<?xml version="1.0" standalone="no"?>
<!DOCTYPE svg PUBLIC "-//W3C//DTD SVG 1.1//EN" "http://www.w3.org/Graphics/SVG/1.1/DTD/svg11.dtd" >
<svg xmlns="http://www.w3.org/2000/svg" xmlns:xlink="http://www.w3.org/1999/xlink" version="1.1">
<metadata>
Created by FontForge 20170731 at Wed Sep 22 08:56:18 2021
 By Aleksey,,,
Copyright (c) 2021 by Hurufatfont Type Foundry-Oguzhan Cengiz. All rights reserved.
</metadata>
<defs>
<font id="Rapor-ExtraLightItalic" horiz-adv-x="607" >
  <font-face 
    font-family="Rapor ExtLt"
    font-weight="200"
    font-style="italic"
    font-stretch="normal"
    units-per-em="1000"
    panose-1="0 0 0 0 0 0 0 0 0 0"
    ascent="800"
    descent="-200"
    x-height="440"
    cap-height="700"
    bbox="-97.9091 -220 1145.17 937"
    underline-thickness="50"
    underline-position="-175"
    slope="-9.5"
    unicode-range="U+0002-FB06"
  />
<missing-glyph horiz-adv-x="350" 
d="M350 -200h-350v940h350v-940zM50 690v-840h250v840h-250zM175 588l72 72l33 -33l-72 -72l72 -72l-33 -33l-72 72l-72 -72l-33 33l72 72l-72 72l33 33zM175 308l72 72l33 -33l-72 -72l72 -72l-33 -33l-72 72l-72 -72l-33 33l72 72l-72 72l33 33zM175 18l72 72l33 -33
l-72 -72l72 -72l-33 -33l-72 72l-72 -72l-33 33l72 72l-72 72l33 33z" />
    <glyph glyph-name="f_f" unicode="ff" horiz-adv-x="605" 
d="M631 440q7 0 6 -7l-4 -25q-2 -7 -8 -7h-132l-65 -394q-2 -7 -8 -7h-29q-8 0 -6 7l65 394h-238l-65 -394q-2 -7 -9 -7h-29q-8 0 -6 7l66 394h-74q-5 0 -5 7l4 25q1 7 8 7h73l23 135q13 78 66.5 121.5t129.5 43.5q43 0 76.5 -16t57.5 -43q27 29 64 44t79 15q30 0 52.5 -5.5
t46.5 -19.5q6 -4 1 -9l-14 -21q-4 -7 -11 -4q-17 11 -36 16t-45 5q-54 0 -92.5 -31t-49.5 -94l-23 -137h131zM457 440l24 142q2 18 7.5 33.5t13.5 29.5q-17 24 -45 40.5t-68 16.5q-61 0 -99.5 -33.5t-49.5 -98.5l-22 -130h239z" />
    <glyph glyph-name="fi" unicode="fi" horiz-adv-x="484" 
d="M494 440q6 0 5 -7l-70 -426q-2 -7 -8 -7h-30q-8 0 -6 7l65 394h-238l-65 -394q-2 -7 -9 -7h-29q-8 0 -6 7l66 394h-74q-5 0 -5 7l4 25q1 7 8 7h73l22 131q6 39 23.5 70t44 53t60 34t72.5 12q82 0 138 -47q4 -4 -1 -11l-21 -20q-6 -8 -10 -1q-23 20 -50 30.5t-62 10.5
q-63 0 -101.5 -35.5t-49.5 -99.5l-22 -127h276z" />
    <glyph glyph-name="fl" unicode="fl" horiz-adv-x="488" 
d="M350 440q7 0 6 -7l-5 -25q0 -7 -8 -7h-131l-65 -394q-2 -7 -9 -7h-29q-8 0 -6 7l66 394h-74q-5 0 -5 7l4 25q1 7 8 7h73l23 138q13 76 66.5 119t132.5 43q86 0 142 -49q2 -2 2 -7l-113 -677q-2 -7 -8 -7h-29q-8 0 -6 7l110 661q-18 15 -42.5 24.5t-61.5 9.5
q-61 0 -100 -31.5t-50 -97.5l-23 -133h132z" />
    <glyph glyph-name="f_f_i" unicode="ffi" horiz-adv-x="765" 
d="M775 440q7 0 6 -7l-71 -426q-2 -7 -8 -7h-30q-7 0 -5 7l65 394h-239l-65 -394q-2 -7 -8 -7h-29q-8 0 -6 7l65 394h-238l-65 -394q-2 -7 -9 -7h-29q-8 0 -6 7l66 394h-74q-5 0 -5 7l4 25q1 7 8 7h73l23 138q13 78 68 120t131 42q42 0 76.5 -15.5t59.5 -41.5q56 57 147 57
q82 0 137 -48q4 -4 0 -10l-21 -20q-6 -6 -10 -1q-20 20 -47 30.5t-65 10.5q-61 0 -101 -32t-51 -97l-22 -133h275zM457 440l23 138q6 39 24 69q-17 23 -46 39t-67 16q-63 0 -101 -32t-49 -97l-23 -133h239z" />
    <glyph glyph-name="f_f_l" unicode="ffl" horiz-adv-x="770" 
d="M681 740q42 0 75 -10.5t62 -36.5q6 -5 4 -13l-112 -673q-2 -7 -8 -7h-30q-7 0 -5 7l110 662q-20 17 -43.5 25t-58.5 8q-62 0 -102 -32t-51 -97l-22 -133h131q7 0 6 -7l-4 -25q0 -7 -8 -7h-132l-65 -394q-2 -7 -8 -7h-29q-8 0 -6 7l65 394h-238l-65 -394q-2 -7 -9 -7h-29
q-8 0 -6 7l66 394h-74q-5 0 -5 7l4 25q1 7 8 7h73l23 138q6 39 24 69t45 51t61 31.5t72 10.5q41 0 74.5 -15.5t58.5 -41.5q28 29 65.5 43t82.5 14zM457 440l23 138q6 39 24 69q-17 23 -45 39t-66 16q-62 0 -101.5 -32t-50.5 -97l-23 -133h239z" />
    <glyph glyph-name="Th.dlig" unicode="Th" horiz-adv-x="1026" 
d="M162 693q0 7 8 7h517l5 33q1 7 8 7h30q7 0 6 -7l-66 -397q32 55 87 85t118 30q83 0 120.5 -47.5t23.5 -133.5l-44 -263q-2 -7 -8 -7h-29q-8 0 -6 7l43 261q24 144 -114 144q-42 0 -77.5 -14t-63 -39t-45 -57.5t-23.5 -70.5l-37 -224q-2 -7 -8 -7h-30q-8 0 -6 7l109 651
h-256l-109 -651q-2 -7 -8 -7h-31q-7 0 -5 7l108 651h-216q-7 0 -5 7z" />
    <glyph glyph-name="f_j" unicode="fj" horiz-adv-x="484" 
d="M494 440q6 0 5 -7l-79 -475q-12 -67 -49 -106.5t-100 -41.5q-6 0 -6 7l5 27q0 7 8 7q41 2 65.5 28.5t32.5 73.5l74 448h-238l-65 -394q-2 -7 -9 -7h-29q-8 0 -6 7l66 394h-74q-5 0 -5 7l4 25q1 7 8 7h73l22 131q6 39 23.5 70t44 53t60 34t72.5 12q82 0 138 -47
q4 -4 -1 -11l-21 -20q-6 -8 -10 -1q-23 20 -50 30.5t-62 10.5q-63 0 -101.5 -35.5t-49.5 -99.5l-22 -127h276z" />
    <glyph glyph-name="f_f_j" unicode="ffj" horiz-adv-x="765" 
d="M109 0q-8 0 -6 7l66 394h-74q-5 0 -5 7l4 25q1 7 8 7h73l23 138q13 78 68 120t131 42q42 0 76.5 -15.5t59.5 -41.5q56 57 147 57q82 0 137 -48q4 -4 0 -10l-21 -20q-6 -6 -10 -1q-20 20 -47 30.5t-65 10.5q-61 0 -101 -32t-51 -97l-22 -133h275q7 0 6 -7l-79 -475
q-11 -67 -49 -106.5t-101 -41.5q-6 0 -5 7l5 27q0 7 8 7q41 2 65.5 28.5t32.5 73.5l74 448h-239l-65 -394q-2 -7 -8 -7h-29q-8 0 -6 7l65 394h-238l-65 -394q-2 -7 -9 -7h-29zM457 440l23 138q6 39 24 69q-17 23 -46 39t-67 16q-63 0 -101 -32t-49 -97l-23 -133h239z" />
    <glyph glyph-name=".notdef" horiz-adv-x="350" 
d="M350 -200h-350v940h350v-940zM50 690v-840h250v840h-250zM175 588l72 72l33 -33l-72 -72l72 -72l-33 -33l-72 72l-72 -72l-33 33l72 72l-72 72l33 33zM175 308l72 72l33 -33l-72 -72l72 -72l-33 -33l-72 72l-72 -72l-33 33l72 72l-72 72l33 33zM175 18l72 72l33 -33
l-72 -72l72 -72l-33 -33l-72 72l-72 -72l-33 33l72 72l-72 72l33 33z" />
    <glyph glyph-name=".null" horiz-adv-x="500" 
 />
    <glyph glyph-name=".null" horiz-adv-x="500" 
 />
    <glyph glyph-name="uni000D" horiz-adv-x="500" 
 />
    <glyph glyph-name="uni0002" horiz-adv-x="333" 
 />
    <glyph glyph-name="uni0009" unicode="&#x9;" horiz-adv-x="80" 
 />
    <glyph glyph-name="uni000A" unicode="&#xa;" horiz-adv-x="333" 
 />
    <glyph glyph-name="uni000D.1" unicode="&#xd;" horiz-adv-x="333" 
 />
    <glyph glyph-name="space" unicode=" " horiz-adv-x="240" 
 />
    <glyph glyph-name="exclam" unicode="!" horiz-adv-x="262" 
d="M180 207q-2 -7 -8 -7h-14q-6 0 -6 7l25 200l47 286q1 7 8 7h33q6 0 6 -7l-48 -286zM142 67q18 0 27.5 -10.5t6.5 -27.5q-3 -20 -16.5 -30.5t-30.5 -10.5t-26 10.5t-6 30.5q3 17 15.5 27.5t29.5 10.5z" />
    <glyph glyph-name="quotedbl" unicode="&#x22;" horiz-adv-x="314" 
d="M202 518q0 -7 -8 -7h-16q-8 0 -6 7l19 175q2 7 9 7h35q8 0 6 -7zM320 518q-2 -7 -8 -7h-17q-6 0 -6 7l20 175q0 7 8 7h36q7 0 5 -7z" />
    <glyph glyph-name="numbersign" unicode="#" horiz-adv-x="721" 
d="M446 0q-7 0 -4 6l43 180h-210l-44 -183q-3 -3 -5 -3h-26q-6 0 -5 6l44 180h-105q-5 0 -5 5l-1 26q0 4 5 4h114l59 242h-118q-4 0 -4 5l-1 26q0 4 4 4h128l47 199q2 3 5 3h26q7 0 5 -6l-47 -196h210l48 199q2 3 4 3h27q7 0 5 -6l-48 -196h105q5 0 5 -4v-26q0 -5 -4 -5
h-114l-59 -242h117q5 0 5 -4v-26q0 -5 -5 -5h-126l-44 -183q-3 -3 -4 -3h-27zM494 221l58 242h-210l-59 -242h211z" />
    <glyph glyph-name="dollar" unicode="$" 
d="M606 565q-5 -4 -10 1q-27 51 -76.5 73t-112.5 22q-38 0 -71.5 -7.5t-59.5 -23.5t-43 -41t-23 -59t3.5 -57.5t32.5 -40t58.5 -29.5t81.5 -27q43 -13 80.5 -29t64 -39t39.5 -55t5 -78q-7 -45 -30.5 -78t-57.5 -54t-75.5 -31.5t-85.5 -12.5l-21 -122q-1 -7 -8 -7h-23
q-7 0 -6 7l21 122q-141 5 -222 104q-4 6 1 9l24 24q7 5 11 0q35 -48 91 -72.5t122 -24.5q97 0 149 36t63 98q6 37 -4.5 62.5t-34.5 44t-59.5 32t-78.5 26.5q-44 13 -81.5 28t-63 37t-37.5 52.5t-5 73.5q7 41 28 72.5t53.5 53.5t73.5 33.5t87 12.5l19 112q1 7 8 7h23
q7 0 6 -7l-19 -112q27 -2 54.5 -9.5t53 -20.5t47.5 -32t37 -45q4 -5 -3 -10z" />
    <glyph glyph-name="percent" unicode="%" horiz-adv-x="679" 
d="M297 700q33 0 58.5 -11t42 -31t23 -47t1.5 -60q-6 -33 -21.5 -60.5t-38.5 -47.5t-52.5 -31t-62.5 -11t-58.5 11t-42 31t-23 47.5t-0.5 60.5q5 33 20.5 60t39 47t52.5 31t62 11zM758 671q5 -4 -1 -10l-696 -645q-5 -5 -9 0l-13 14q-5 4 1 10l696 643q5 5 9 0zM291 667
q-54 0 -89.5 -32t-43.5 -84q-9 -53 16 -85t78 -32q54 0 89.5 32t45.5 85q8 52 -17 84t-79 32zM542 289q33 0 58 -11t41.5 -31t23 -47.5t1.5 -60.5q-6 -33 -21.5 -60.5t-38.5 -47.5t-52 -31t-62 -11t-58.5 11t-42 31t-23 47.5t-0.5 60.5q5 33 20.5 60.5t39 47.5t52.5 31
t62 11zM536 256q-54 0 -90 -32t-44 -85q-8 -52 17 -84t78 -32q54 0 90 32t44 84q8 53 -16.5 85t-78.5 32z" />
    <glyph glyph-name="ampersand" unicode="&#x26;" horiz-adv-x="670" 
d="M597 550q-8 -42 -33 -71.5t-60 -51t-77 -37.5t-84 -31l197 -212q25 32 42 69.5t27 79.5q2 9 9 7l26 -5q6 0 4 -7q-11 -48 -31.5 -92t-49.5 -81l82 -92q5 -5 -2 -9l-23 -20q-5 -6 -9 0l-79 89q-46 -46 -108 -71t-137 -25q-49 0 -89 11t-68.5 33t-43.5 54.5t-13 74.5
q2 44 19.5 77t44.5 58t62.5 43t73.5 33q-33 40 -47 87t-9 86q5 40 22.5 71t46 52t65.5 31.5t79 10.5q43 0 76.5 -11.5t55 -32.5t30 -51t1.5 -67zM317 390q41 15 81 29t72.5 31.5t55 41t28.5 57.5q12 61 -20.5 93t-103.5 32q-31 0 -59.5 -7t-50.5 -23t-36.5 -40.5
t-18.5 -59.5q-5 -38 7 -77t45 -77zM304 345q-36 -13 -68.5 -29t-57 -36.5t-40 -47.5t-17.5 -64t10 -63.5t36 -43.5t57.5 -25t75.5 -8q66 0 119 24t93 65z" />
    <glyph glyph-name="quotesingle" unicode="'" horiz-adv-x="197" 
d="M202 518q0 -7 -8 -7h-16q-8 0 -6 7l19 175q2 7 9 7h35q8 0 6 -7z" />
    <glyph glyph-name="parenleft" unicode="(" horiz-adv-x="290" 
d="M358 738q2 2 6 2h27q11 0 2 -9q-53 -51 -93 -107.5t-68 -115t-46 -118.5t-28 -119q-10 -58 -11.5 -117t7.5 -116t30 -112.5t57 -106.5q3 -4 1.5 -6.5t-6.5 -2.5h-27q-3 0 -5 2q-37 53 -59.5 109.5t-32 115t-8.5 118t11 117.5q10 59 28.5 119.5t48 119.5t71 116.5
t95.5 110.5z" />
    <glyph glyph-name="parenright" unicode=")" horiz-adv-x="293" 
d="M177 740q3 0 5 -2q37 -53 59 -111t31.5 -118.5t8 -121t-11.5 -119.5q-10 -58 -28 -117t-47.5 -116.5t-70 -113.5t-95.5 -109q-2 -2 -6 -2h-27q-5 0 -6 2.5t4 6.5q53 51 92.5 105.5t67.5 111t45.5 115t27.5 116.5q10 59 12 120t-6.5 120t-29.5 116t-57 108q-3 4 -1.5 6.5
t6.5 2.5h27z" />
    <glyph glyph-name="asterisk" unicode="*" horiz-adv-x="464" 
d="M375 740q8 0 6 -7l-36 -151l153 55q9 2 9 -5l4 -32q1 -7 -6 -9l-156 -33l80 -113q4 -6 -3 -10l-31 -21q-7 -3 -10 1l-61 126l-101 -132q-4 -6 -10 -2l-25 20q-6 4 0 10l119 121l-147 33q-7 2 -3 9l16 32q4 6 11 5l135 -55l13 151q2 7 8 7h35z" />
    <glyph glyph-name="plus" unicode="+" horiz-adv-x="582" 
d="M390 510q6 0 6 -7l-35 -209h207q6 0 6 -7l-4 -23q-1 -7 -8 -7h-207l-35 -208q-2 -7 -8 -7h-26q-8 0 -6 7l34 208h-207q-7 0 -6 7l4 23q1 7 8 7h208l34 209q2 7 9 7h26z" />
    <glyph glyph-name="comma" unicode="," horiz-adv-x="219" 
d="M117 70q17 0 27 -12t6 -35q-5 -38 -23 -77.5t-46 -74.5q-5 -5 -9 -2l-13 8q-5 3 0 10q22 27 34 53.5t17 54.5q-22 -2 -31 9.5t-7 26.5q3 18 15.5 28.5t29.5 10.5z" />
    <glyph glyph-name="hyphen" unicode="-" horiz-adv-x="433" 
d="M124 287q0 7 8 7h271q7 0 6 -7l-4 -24q-2 -7 -8 -7h-272q-7 0 -5 7z" />
    <glyph glyph-name="period" unicode="." horiz-adv-x="226" 
d="M127 70q17 0 26 -11t7 -28q-4 -20 -17 -30.5t-29 -10.5q-17 0 -26.5 10.5t-6.5 30.5q3 17 16 28t30 11z" />
    <glyph glyph-name="slash" unicode="/" horiz-adv-x="522" 
d="M585 740q9 0 2 -10l-499 -767q-1 -3 -6 -3h-27q-10 0 -3 10l499 767q2 3 7 3h27z" />
    <glyph glyph-name="zero" unicode="0" horiz-adv-x="648" 
d="M440 700q71 0 115 -29t66 -77.5t25 -112t-9 -131.5q-11 -69 -35 -133.5t-62 -115t-91.5 -81t-124.5 -30.5q-70 0 -114 30.5t-66 81t-25 115t8 133.5q12 68 35.5 131.5t61.5 112t91.5 77.5t124.5 29zM435 661q-61 0 -105.5 -26t-76 -69.5t-51 -99.5t-29.5 -116
t-9.5 -117.5t17 -103t52 -73t96.5 -27.5t106 27.5t76.5 73t51 103t29.5 117.5t9.5 116t-17 99.5t-52.5 69.5t-97 26z" />
    <glyph glyph-name="one" unicode="1" horiz-adv-x="334" 
d="M350 688q6 0 6 -7l-113 -674q-2 -7 -8 -7h-28q-8 0 -6 7l105 628l-157 -54q-7 -2 -7 4l-8 26q-2 7 6 9l188 65q8 3 14 3h8z" />
    <glyph glyph-name="two" unicode="2" horiz-adv-x="560" 
d="M187 521q-5 -6 -10 -4l-23 8q-8 0 -4 8q33 79 101 123t158 44q95 0 140 -46.5t31 -128.5q-5 -28 -17 -56t-32 -57t-49.5 -61t-70.5 -69l-272 -243h355q6 0 6 -7l-4 -25q-2 -7 -9 -7h-423q-8 0 -6 7l2 9q0 3 2 5l320 286q71 63 108 113.5t46 103.5q11 66 -23.5 101.5
t-109.5 35.5q-77 0 -132 -36t-84 -104z" />
    <glyph glyph-name="three" unicode="3" horiz-adv-x="587" 
d="M261 333q-8 0 -6 7l4 24q1 7 9 7h87q39 0 72 12.5t57.5 34t40.5 50.5t21 61q10 63 -27.5 98t-113.5 35q-79 0 -134 -36.5t-82 -103.5q-3 -7 -9 -4l-24 9q-8 0 -4 8q33 80 100 122.5t158 42.5q49 0 85.5 -12.5t60 -35.5t32 -54.5t2.5 -69.5q-5 -32 -19.5 -59.5t-35 -50
t-46 -38.5t-54.5 -25q64 -14 94.5 -60.5t18.5 -116.5q-7 -44 -28.5 -79t-54.5 -59t-76 -37t-93 -13q-91 0 -149.5 42.5t-65.5 122.5q0 8 7 8l27 8q7 2 7 -4q5 -66 53.5 -102.5t126.5 -36.5q81 0 135 39.5t67 114.5q6 33 0 60.5t-24.5 48t-51 31.5t-80.5 11h-87z" />
    <glyph glyph-name="four" unicode="4" horiz-adv-x="591" 
d="M586 178q-2 -7 -8 -7h-123l-28 -164q-2 -7 -8 -7h-29q-8 0 -6 7l28 164h-332q-7 0 -5 7v9q1 1 1.5 2.5t1.5 2.5l350 495q3 3 8 3h33q12 0 4 -10l-337 -469h282l26 159q1 7 8 7h30q6 0 5 -7l-26 -159h124q6 0 5 -7z" />
    <glyph glyph-name="five" unicode="5" horiz-adv-x="580" 
d="M576 654q-1 -7 -8 -7h-299l-56 -232h120q56 0 100.5 -13t73 -39t40.5 -65t3 -92q-8 -48 -30 -87.5t-55.5 -68t-77 -44.5t-95.5 -16q-84 0 -138 41.5t-62 123.5q-1 3 1.5 5.5t5.5 2.5l26 8q7 2 7 -5q5 -66 49.5 -101.5t116.5 -35.5q87 0 140 47t67 127q27 173 -184 173
h-151q-8 0 -6 7l73 299q2 7 8 7h330q7 0 5 -7z" />
    <glyph glyph-name="six" unicode="6" horiz-adv-x="611" 
d="M488 688q12 0 4 -11l-233 -266q28 17 62.5 26t69.5 9q48 0 86.5 -16t64 -45.5t36 -71t1.5 -92.5q-9 -52 -34 -94.5t-62 -73t-84 -47t-100 -16.5q-51 0 -91.5 15.5t-66.5 44t-36 69t-2 89.5q8 42 28 85t49 78l266 314q3 3 7 3h35zM371 407q-44 0 -82 -15t-67 -41t-48 -62
t-26 -78q-13 -85 30.5 -133.5t128.5 -48.5q44 0 82 13.5t68 38t49.5 59t26.5 77.5q15 89 -29 139.5t-133 50.5z" />
    <glyph glyph-name="seven" unicode="7" horiz-adv-x="505" 
d="M157 646q-7 0 -5 7l4 28q0 7 8 7h407q6 0 6 -7l-1 -8q-1 -4 -4 -8l-382 -660q-3 -5 -8 -5h-33q-5 0 -6.5 2.5t1.5 6.5l376 637h-363z" />
    <glyph glyph-name="eight" unicode="8" horiz-adv-x="591" 
d="M413 700q92 0 140.5 -46t34.5 -131q-10 -60 -49 -104.5t-103 -62.5q69 -18 98 -66t18 -115q-14 -87 -82 -136t-176 -49q-106 0 -158 49t-37 136q11 67 56 115t119 66q-58 18 -82 62.5t-14 104.5q7 42 27.5 75t51 55.5t70.5 34.5t86 12zM406 661q-71 0 -121 -33.5
t-62 -105.5q-6 -37 1.5 -65t26.5 -46.5t46.5 -27.5t60.5 -9q34 0 64.5 9t55.5 27.5t42 46.5t23 65q12 72 -26.5 105.5t-110.5 33.5zM352 335q-38 0 -73 -9t-62.5 -28.5t-46.5 -48.5t-26 -70q-6 -39 3 -67.5t30 -47t53 -27t71 -8.5t74 8.5t62 27t45.5 47t24.5 67.5
q7 41 -2 70t-30.5 48.5t-53 28.5t-69.5 9z" />
    <glyph glyph-name="nine" unicode="9" horiz-adv-x="612" 
d="M425 698q51 0 91.5 -15.5t67 -44t37 -69t2.5 -89.5q-7 -42 -27 -85t-50 -78l-266 -313q-3 -4 -7 -4h-34q-6 0 -7.5 3t3.5 8l232 266q-28 -17 -62.5 -26t-69.5 -9q-48 0 -86.5 16t-64 45.5t-36 71t-1.5 92.5q9 52 33.5 94.5t61.5 73t83.5 47t99.5 16.5zM419 659
q-44 0 -82 -13t-67.5 -37.5t-49.5 -59.5t-27 -78q-15 -89 29 -139.5t134 -50.5q44 0 81.5 15t66.5 41t47.5 62t25.5 78q15 86 -29 134t-129 48z" />
    <glyph glyph-name="colon" unicode=":" horiz-adv-x="227" 
d="M191 450q16 0 25.5 -10.5t6.5 -29.5q-3 -18 -16 -28.5t-30 -10.5t-26.5 10.5t-6.5 28.5q3 19 16.5 29.5t30.5 10.5zM127 70q17 0 26 -11t6 -28q-3 -20 -16 -30.5t-29 -10.5q-17 0 -27 10.5t-6 30.5q3 17 16 28t30 11z" />
    <glyph glyph-name="semicolon" unicode=";" horiz-adv-x="210" 
d="M171 451q16 0 25.5 -10.5t6.5 -29.5q-3 -18 -16 -28.5t-30 -10.5t-26.5 10.5t-6.5 28.5q3 19 16.5 29.5t30.5 10.5zM106 70q17 0 28.5 -12t7.5 -35q-7 -37 -24 -76.5t-49 -75.5q-4 -6 -9 -2l-12 7q-5 4 0 11q23 27 36 54.5t18 53.5q-23 -5 -33.5 7t-7.5 29t15.5 28
t29.5 11z" />
    <glyph glyph-name="less" unicode="&#x3c;" horiz-adv-x="537" 
d="M566 512q0 -5 -6 -7l-380 -159l327 -158q6 -2 3 -7l-5 -31q-2 -11 -11 -6l-377 191q-4 1 -4 5l3 12q0 4 4 6l441 191q12 4 10 -6z" />
    <glyph glyph-name="equal" unicode="=" horiz-adv-x="536" 
d="M540 366q-1 -7 -8 -7h-408q-7 0 -6 7l4 23q2 7 8 7h408q8 0 6 -7zM506 162q-1 -7 -9 -7h-408q-6 0 -5 7l4 24q2 7 8 7h408q8 0 6 -7z" />
    <glyph glyph-name="greater" unicode="&#x3e;" horiz-adv-x="537" 
d="M146 505q-4 1 -4 7l5 31q3 10 12 6l377 -191q3 -1 3 -6l-1 -11q-1 -4 -5 -6l-442 -191q-11 -5 -9 6l5 31l2 4t4 3l381 158z" />
    <glyph glyph-name="question" unicode="?" horiz-adv-x="518" 
d="M316 237q-2 -7 -8 -7h-30q-8 0 -6 7q6 30 14.5 53.5t24.5 44.5t39.5 40.5t59.5 41.5q55 32 78 64t30 76q9 54 -23 84.5t-101 30.5q-75 0 -129.5 -37t-86.5 -92q-4 -8 -10 -3l-24 15q-4 1 -2 8q38 66 102.5 107.5t151.5 41.5q91 0 134.5 -44t32.5 -113q-9 -56 -40.5 -94
t-94.5 -77q-28 -18 -47.5 -33.5t-32 -32.5t-20 -36.5t-12.5 -44.5zM271 67q17 0 26.5 -10.5t6.5 -27.5q-3 -20 -16.5 -30.5t-30.5 -10.5q-16 0 -25.5 10.5t-6.5 30.5q3 17 16 27.5t30 10.5z" />
    <glyph glyph-name="at" unicode="@" horiz-adv-x="871" 
d="M665 411q9 0 7 -8l-47 -243q-10 -47 4 -76.5t52 -29.5q28 0 51.5 17t40.5 46t26.5 68t9.5 84q0 72 -22 129t-62.5 97.5t-97 62t-125.5 21.5q-76 0 -141.5 -26t-113 -73t-74.5 -111.5t-27 -141.5q0 -65 19.5 -121t57.5 -97.5t93.5 -65.5t127.5 -26q9 0 7 -9l-3 -16
q-2 -5 -7 -5q-79 1 -140 27t-103 71t-63.5 106t-21.5 130q0 85 29 156t80 122.5t122 80t155 28.5q77 0 140 -24t108 -68t70 -106t25 -138q0 -53 -11.5 -98.5t-33.5 -79t-52 -52.5t-67 -19q-50 0 -73.5 38.5t-12.5 99.5q-23 -38 -64.5 -60.5t-89.5 -22.5q-36 0 -64.5 12.5
t-46.5 35.5t-24.5 55t0.5 70t24.5 69t42.5 53t57 33.5t68 11.5q50 0 82 -22.5t43 -59.5l18 69q0 6 6 6h21zM496 385q-60 0 -102.5 -36.5t-54.5 -98.5q-12 -63 17 -101.5t89 -38.5q30 0 56.5 10t47.5 28t36 43t21 55q13 62 -18 100.5t-92 38.5z" />
    <glyph glyph-name="A" unicode="A" horiz-adv-x="749" 
d="M497 705q5 0 6 -4l192 -692q2 -9 -8 -9h-35q-3 0 -5 5l-54 202h-363l-122 -202q-2 -5 -7 -5h-40q-9 0 -4 9l423 692q3 4 8 4h9zM584 248l-102 379l-227 -379h329z" />
    <glyph glyph-name="B" unicode="B" horiz-adv-x="622" 
d="M208 693q1 7 8 7h214q54 0 92 -12.5t61.5 -35t31.5 -53.5t2 -68q-10 -59 -49 -103.5t-99 -65.5q64 -14 96 -61t20 -116q-7 -42 -28 -76t-53 -58.5t-74.5 -37.5t-93.5 -13h-237q-7 0 -5 7zM200 378h190q32 0 62 10.5t54 30t40.5 46.5t22.5 61q5 29 -0.5 53.5t-23.5 42
t-50 27t-80 9.5h-168zM144 42h196q85 0 136 39.5t62 106.5q11 71 -30 110t-120 39h-195z" />
    <glyph glyph-name="C" unicode="C" horiz-adv-x="739" 
d="M779 589q2 -7 -3 -10l-26 -16q-7 -3 -10 1q-70 106 -214 106q-66 0 -125 -23.5t-105.5 -66t-77.5 -101t-43 -129.5q-12 -70 -0.5 -129t43 -101t82 -65.5t116.5 -23.5q72 0 136.5 28.5t116.5 81.5q5 7 10 2l23 -20q5 -5 0 -11q-60 -60 -133 -92t-157 -32q-76 0 -135 27
t-96.5 75.5t-51.5 115t-1 145.5t48.5 145t88.5 114t120 75t143 27q83 0 147.5 -32t103.5 -91z" />
    <glyph glyph-name="D" unicode="D" horiz-adv-x="752" 
d="M208 693q1 7 8 7h225q87 0 150 -26t100.5 -71.5t50.5 -108t1 -135.5q-12 -74 -45 -139.5t-86 -114t-125 -77t-161 -28.5h-227q-7 0 -5 7zM144 42h187q77 0 140 25t109.5 68.5t76 101t39.5 123.5q11 66 0.5 120.5t-42.5 94t-86 61.5t-132 22h-189z" />
    <glyph glyph-name="E" unicode="E" horiz-adv-x="575" 
d="M208 693q1 7 8 7h393q6 0 6 -7l-5 -28q-2 -7 -8 -7h-355l-47 -280h318q7 0 6 -7l-5 -26q0 -7 -8 -7h-318l-49 -296h359q8 0 6 -7l-5 -28q0 -7 -8 -7h-397q-7 0 -5 7z" />
    <glyph glyph-name="F" unicode="F" horiz-adv-x="565" 
d="M536 320q-2 -7 -8 -7h-339l-51 -306q-2 -7 -8 -7h-31q-7 0 -5 7l114 686q1 7 8 7h387q6 0 6 -7l-5 -28q-2 -7 -8 -7h-349l-51 -304h338q6 0 6 -7z" />
    <glyph glyph-name="G" unicode="G" horiz-adv-x="815" 
d="M471 305q-6 0 -5 6l4 27q1 7 8 7h314q8 0 8.5 -7.5t-1.5 -23.5q-13 -77 -46.5 -137.5t-82.5 -102.5t-111.5 -64t-134.5 -22q-79 0 -140 27t-100 75.5t-54 115.5t-2 146q13 78 48.5 144t88.5 114t121.5 75t147.5 27q84 0 150.5 -30.5t104.5 -91.5q2 -6 -3 -11l-27 -17
q-5 -4 -9 2q-33 54 -88.5 80t-128.5 26q-70 0 -130.5 -23.5t-107 -65.5t-77.5 -100.5t-43 -128.5q-12 -71 0 -130t44.5 -101.5t85 -66t122.5 -23.5q65 0 119.5 20t96.5 56t69.5 86.5t37.5 111.5h-279z" />
    <glyph glyph-name="H" unicode="H" horiz-adv-x="695" 
d="M713 700q6 0 6 -7l-115 -686q0 -7 -8 -7h-30q-8 0 -6 7l52 315h-421l-53 -315q-2 -7 -8 -7h-31q-7 0 -5 7l114 686q1 7 8 7h31q6 0 6 -7l-55 -329h421l55 329q1 7 8 7h31z" />
    <glyph glyph-name="I" unicode="I" horiz-adv-x="244" 
d="M254 700q7 0 6 -7l-114 -686q-2 -7 -8 -7h-31q-8 0 -6 7l115 686q0 7 8 7h30z" />
    <glyph glyph-name="J" unicode="J" horiz-adv-x="227" 
d="M245 700q6 0 6 -7l-115 -686q-15 -91 -60.5 -138t-132.5 -49q-7 0 -6 7l5 28q2 7 8 7q34 0 58 10t41 29t27 46t16 60l114 686q1 7 8 7h31z" />
    <glyph glyph-name="K" unicode="K" horiz-adv-x="595" 
d="M208 693q1 7 8 7h31q6 0 6 -7l-54 -320l410 325q1 2 6 2h45q19 0 2 -12l-414 -325l313 -351q10 -12 -7 -12h-39q-3 0 -6 3l-313 354l-58 -350q-2 -7 -8 -7h-31q-7 0 -5 7z" />
    <glyph glyph-name="L" unicode="L" horiz-adv-x="565" 
d="M247 700q6 0 6 -7l-109 -651h360q8 0 6 -7l-5 -28q-2 -7 -8 -7h-398q-7 0 -5 7l114 686q1 7 8 7h31z" />
    <glyph glyph-name="M" unicode="M" horiz-adv-x="942" 
d="M841 705q6 0 7 -6l34 -691q0 -8 -7 -8h-32q-6 0 -6 6l-26 596l-315 -530q-3 -4 -8 -4h-5q-5 0 -6 4l-146 533l-220 -599q-1 -6 -8 -6h-34q-4 0 -5.5 2.5t0.5 5.5l259 691q2 6 7 6h8q6 0 7 -4l151 -553l329 553q3 4 7 4h9z" />
    <glyph glyph-name="N" unicode="N" horiz-adv-x="705" 
d="M724 700q6 0 5 -7l-115 -691q0 -7 -8 -7h-7q-4 0 -8 5l-352 610l-101 -603q-2 -7 -8 -7h-31q-7 0 -5 7l115 691q0 7 8 7h7q5 0 7 -4l353 -611l101 603q1 7 8 7h31z" />
    <glyph glyph-name="O" unicode="O" horiz-adv-x="842" 
d="M536 712q77 0 137.5 -27.5t100 -76.5t55.5 -115t3 -143q-13 -78 -50 -144t-91 -114.5t-122.5 -76t-143.5 -27.5q-76 0 -137 27.5t-100.5 76.5t-56 115t-3.5 143q13 78 49.5 144t90.5 114.5t123 76t145 27.5zM534 670q-67 0 -127 -24t-108 -67t-80 -101.5t-44 -127.5
q-11 -69 1 -127.5t45 -101t85 -67t120 -24.5q67 0 127 24.5t108 67t80 101t44 127.5q11 69 -1.5 127.5t-45.5 101t-85 67t-119 24.5z" />
    <glyph glyph-name="P" unicode="P" horiz-adv-x="593" 
d="M208 693q0 7 8 7h210q112 0 164 -58.5t35 -158.5q-16 -100 -87.5 -157t-183.5 -57h-172l-44 -262q-2 -7 -8 -7h-31q-7 0 -5 7zM189 310h164q98 0 154.5 45t70.5 130t-27.5 129.5t-139.5 44.5h-164z" />
    <glyph glyph-name="Q" unicode="Q" horiz-adv-x="841" 
d="M541 712q76 0 135.5 -27.5t98 -76.5t54 -115t2.5 -143q-12 -73 -46.5 -136.5t-85.5 -111.5t-114.5 -78t-134.5 -35l62 -159q3 -10 -8 -10h-35q-4 0 -6 3l-61 165q-72 3 -129 32t-93.5 77.5t-50.5 113t-2 139.5q13 77 50.5 143t92 115t124 76.5t147.5 27.5zM534 671
q-67 0 -127 -24.5t-108 -67.5t-80 -101.5t-44 -127.5q-11 -69 0.5 -127.5t44 -101t84.5 -67t122 -24.5q66 0 126 24.5t108 67t80.5 101t43.5 127.5t-1 127.5t-44.5 101.5t-84 67.5t-120.5 24.5z" />
    <glyph glyph-name="R" unicode="R" horiz-adv-x="616" 
d="M138 7q-2 -7 -8 -7h-31q-7 0 -5 7l114 686q1 7 8 7h210q112 0 165 -54t36 -151q-17 -105 -80 -155.5t-174 -60.5l162 -268q8 -11 -7 -11h-36q-3 0 -5 3l-160 270h-144zM189 314h132q72 0 119.5 14t76.5 39t43.5 58.5t20.5 72.5q27 161 -166 161h-168z" />
    <glyph glyph-name="S" unicode="S" horiz-adv-x="586" 
d="M569 591q-7 -3 -10 1q-27 42 -71.5 60.5t-105.5 18.5q-80 0 -127.5 -35.5t-57.5 -94.5q-5 -31 1 -55.5t26 -44.5t54 -35.5t84 -29.5q111 -29 158.5 -77t33.5 -129q-15 -87 -82.5 -134.5t-171.5 -47.5q-78 0 -138.5 29.5t-94.5 85.5q-2 2 -1 4.5t3 4.5l23 21q7 5 11 -2
q27 -48 77.5 -75t120.5 -27q96 0 145.5 40.5t60.5 103.5q5 32 -1 57t-25.5 44.5t-55 35t-88.5 28.5q-212 52 -187 207q13 76 76.5 121.5t162.5 45.5q69 0 120 -21.5t85 -68.5q5 -5 -2 -10z" />
    <glyph glyph-name="T" unicode="T" horiz-adv-x="583" 
d="M162 693q1 7 8 7h477q6 0 6 -7l-5 -28q-2 -7 -8 -7h-216l-109 -651q0 -7 -8 -7h-31q-7 0 -5 7l108 651h-216q-8 0 -6 7z" />
    <glyph glyph-name="U" unicode="U" horiz-adv-x="677" 
d="M699 700q6 0 6 -7l-74 -440q-10 -62 -35 -111t-62 -83.5t-85.5 -52.5t-106.5 -18t-102 18t-71.5 52.5t-37.5 83.5t0 111l73 440q1 7 8 7h31q6 0 6 -7l-73 -434q-18 -109 25 -169t142 -60q100 0 163.5 60t81.5 169l72 434q1 7 8 7h31z" />
    <glyph glyph-name="V" unicode="V" horiz-adv-x="723" 
d="M789 700q11 0 4 -9l-420 -692q-3 -4 -7 -4h-9q-5 0 -5 4l-191 692q-2 9 9 9h31q4 0 6 -4l166 -617l372 617q4 4 8 4h36z" />
    <glyph glyph-name="W" unicode="W" horiz-adv-x="1062" 
d="M1115 700q9 0 4 -9l-343 -691q-1 -5 -7 -5h-9q-4 0 -5 4l-124 594l-324 -594q-3 -4 -7 -4h-10q-5 0 -5 5l-111 691q-1 9 7 9h32q5 0 6 -5l93 -605l320 587q3 5 8 5h5q5 0 6 -4l124 -589l299 606q1 5 7 5h34z" />
    <glyph glyph-name="X" unicode="X" horiz-adv-x="651" 
d="M712 700q12 0 3 -11l-304 -342l192 -336q6 -11 -7 -11h-35q-4 0 -6 3l-177 315l-276 -315q-3 -3 -6 -3h-40q-12 0 -4 11l304 341l-191 337q-5 11 8 11h35q4 0 5 -3l178 -315l277 315q2 3 6 3h38z" />
    <glyph glyph-name="Y" unicode="Y" horiz-adv-x="653" 
d="M717 700q11 0 4 -10l-324 -403l-47 -280q0 -7 -8 -7h-31q-7 0 -5 7l46 280l-190 403q-5 10 7 10h34q4 0 5 -3l171 -368l292 368q2 3 6 3h40z" />
    <glyph glyph-name="Z" unicode="Z" horiz-adv-x="649" 
d="M198 658q-8 0 -6 7l5 28q0 7 8 7h474q8 0 6 -6l-1 -10q-1 -6 -6 -12l-539 -631l439 1q6 0 6 -7l-5 -28q-2 -7 -8 -7h-492q-7 0 -5 7l2 15l2 6t6 8l531 622h-417z" />
    <glyph glyph-name="bracketleft" unicode="[" horiz-adv-x="309" 
d="M230 733q0 7 8 7h174q7 0 6 -7l-3 -20q-2 -7 -8 -7h-142l-143 -862h141q8 0 6 -7l-4 -20q0 -7 -8 -7h-174q-7 0 -6 7z" />
    <glyph glyph-name="backslash" unicode="\" horiz-adv-x="545" 
d="M179 730q-3 10 6 10h23q4 0 5 -3l270 -767q3 -10 -6 -10h-22q-4 0 -6 3z" />
    <glyph glyph-name="bracketright" unicode="]" horiz-adv-x="313" 
d="M322 740q7 0 6 -7l-153 -916q-1 -7 -8 -7h-175q-6 0 -5 7l3 20q2 7 8 7h142l143 862h-141q-8 0 -6 7l3 20q1 7 8 7h175z" />
    <glyph glyph-name="asciicircum" unicode="^" horiz-adv-x="509" 
d="M512 360q3 -10 -8 -10h-29q-5 0 -6 4l-101 298l-206 -298q-3 -4 -7 -4h-32q-12 0 -5 10l244 349q2 3 8 3h9q5 0 6 -3z" />
    <glyph glyph-name="underscore" unicode="_" horiz-adv-x="453" 
d="M433 -123q-1 -7 -8 -7h-440q-6 0 -5 7l3 21q1 7 9 7h440q6 0 5 -7z" />
    <glyph glyph-name="grave" unicode="`" horiz-adv-x="306" 
d="M309 577q4 -7 -3 -7h-28q-3 0 -5 3l-63 119q-4 8 5 8h33q5 0 6 -4z" />
    <glyph glyph-name="a" unicode="a" horiz-adv-x="552" 
d="M339 452q30 0 57.5 -8t50.5 -24t39.5 -41t22.5 -58l28 113q2 6 8 6h17q7 0 6 -7l-71 -426q-2 -7 -8 -7h-17q-6 0 -6 7l9 112q-18 -33 -42 -58t-52.5 -41t-58.5 -24t-60 -8q-47 0 -83.5 18t-60 49.5t-32.5 73.5t-1 91t31.5 91.5t57 73.5t76 49t89.5 18zM341 413
q-41 0 -76.5 -14.5t-63 -40.5t-45.5 -61.5t-25 -76.5q-7 -40 0 -75t25.5 -61.5t49.5 -41.5t72 -15q39 0 74.5 14.5t64 40.5t47.5 61t26 76q7 42 -1 77.5t-27.5 61.5t-50.5 40.5t-70 14.5z" />
    <glyph glyph-name="b" unicode="b" horiz-adv-x="559" 
d="M370 452q47 0 83.5 -18t60 -49t32.5 -73.5t1 -91.5t-31.5 -91t-57 -73.5t-76.5 -49.5t-90 -18q-30 0 -57.5 8t-50.5 24.5t-39 41.5t-23 59l-28 -114q-1 -7 -8 -7h-17q-8 0 -6 7l121 726q1 7 8 7h30q6 0 5 -7l-68 -408q18 33 42.5 56.5t52 39.5t57.5 23.5t59 7.5zM355 414
q-40 0 -75.5 -14.5t-64 -41t-48 -62t-26.5 -77.5q-7 -41 1 -76.5t27.5 -61.5t50.5 -40.5t70 -14.5q41 0 76.5 15t63.5 41.5t46.5 62t25.5 75.5q7 41 0 76.5t-26 61.5t-49.5 41t-71.5 15z" />
    <glyph glyph-name="c" unicode="c" horiz-adv-x="485" 
d="M507 355q3 -4 -3 -9l-26 -14q-6 -3 -9 2q-16 37 -49 58.5t-83 21.5q-40 0 -74.5 -15t-61.5 -41.5t-45 -61.5t-25 -76q-7 -40 -0.5 -75.5t24.5 -61.5t48 -41.5t71 -15.5q48 0 86.5 22.5t67.5 60.5q5 6 10 3l22 -17q5 -5 1 -10q-37 -45 -85.5 -71t-109.5 -26
q-49 0 -86 18.5t-61 50t-32.5 74.5t-0.5 92t30.5 91t55.5 72.5t76.5 48t93.5 17.5q58 0 100.5 -25.5t64.5 -71.5z" />
    <glyph glyph-name="d" unicode="d" horiz-adv-x="557" 
d="M339 452q29 0 56.5 -7.5t50 -23t39 -39t23.5 -55.5l67 406q1 7 9 7h28q7 0 6 -7l-121 -726q-2 -7 -8 -7h-17q-6 0 -6 7l9 112q-18 -33 -42 -58t-52.5 -41t-58.5 -24t-60 -8q-47 0 -83.5 18t-60 49.5t-32.5 73.5t-1 91t31.5 91.5t57 73.5t76 49t89.5 18zM341 413
q-41 0 -76.5 -14.5t-63 -40.5t-45.5 -61.5t-25 -76.5q-7 -40 0 -75t25.5 -61.5t49.5 -41.5t72 -15q39 0 74.5 14.5t64 40.5t47.5 61t26 76q7 42 -1 77.5t-27.5 61.5t-50.5 40.5t-70 14.5z" />
    <glyph glyph-name="e" unicode="e" horiz-adv-x="518" 
d="M514 234q-3 -17 -6 -23t-10 -6h-369q-5 -38 1.5 -70.5t25 -56.5t48.5 -38t70 -14q50 0 89.5 23t70.5 59q6 6 10 1l18 -18q5 -5 1 -10q-38 -42 -87 -67.5t-109 -25.5q-49 0 -87 18t-61.5 49.5t-32.5 73.5t-1 91t30.5 91.5t56.5 73.5t77 49t93 18q48 0 85 -16t60 -45
t30.5 -69t-3.5 -88zM473 240q8 37 3 68.5t-22 55t-46 37t-69 13.5q-39 0 -73 -13.5t-61 -36.5t-45 -55t-26 -69h339z" />
    <glyph glyph-name="f" unicode="f" horiz-adv-x="321" 
d="M351 408q0 -7 -8 -7h-131l-65 -394q-2 -7 -9 -7h-29q-8 0 -6 7l66 394h-74q-5 0 -5 7l4 25q1 7 8 7h73l20 121q14 81 64.5 122.5t121.5 41.5q27 0 52 -5t50 -19q6 -3 2 -9l-15 -22q-5 -6 -11 -3q-35 20 -84 20q-54 0 -90 -31.5t-47 -99.5l-20 -116h131q7 0 6 -7z" />
    <glyph glyph-name="g" unicode="g" horiz-adv-x="504" 
d="M564 408q-2 -7 -9 -7l-113 -1q25 -20 36 -49.5t4 -70.5q-6 -35 -23.5 -63t-44 -48t-60.5 -30.5t-72 -10.5q-63 0 -103 23q-27 -14 -32 -40q-3 -19 7 -31.5t43 -17.5l152 -22q139 -19 126 -100q-11 -65 -78.5 -99t-175.5 -34q-113 0 -166.5 34.5t-45.5 94.5
q6 39 33.5 68.5t74.5 47.5q-18 19 -13 50q3 20 16.5 37t35.5 28q-47 43 -33 122q12 72 65.5 117.5t139.5 45.5q19 0 39.5 -3t38.5 -9h156q6 0 6 -7zM331 415q-69 0 -111.5 -33t-53.5 -93q-10 -67 24 -95.5t95 -28.5q60 0 103 32t53 92q10 58 -20 92t-90 34zM144 33
q-34 -11 -59 -34.5t-30 -59.5q-6 -51 39.5 -73t134.5 -22q94 0 144 27t57 65q5 29 -16 42.5t-74 21.5l-155 22q-23 3 -41 11z" />
    <glyph glyph-name="h" unicode="h" horiz-adv-x="517" 
d="M222 740q6 0 6 -7l-67 -397q34 55 88.5 85.5t116.5 30.5q84 0 121 -48t23 -134l-44 -263q-2 -7 -8 -7h-29q-8 0 -6 7l43 261q24 145 -113 145q-42 0 -77.5 -14.5t-62.5 -39t-45 -57.5t-24 -71l-37 -224q-2 -7 -8 -7h-30q-6 0 -6 7l121 726q1 7 8 7h30z" />
    <glyph glyph-name="i" unicode="i" horiz-adv-x="157" 
d="M167 440q6 0 6 -7l-71 -426q-2 -7 -8 -7h-30q-6 0 -6 7l71 426q1 7 8 7h30zM178 615q14 0 22 -8.5t6 -21.5q-2 -14 -10 -22t-22 -8q-13 0 -21.5 8t-6.5 22t10 22t22 8z" />
    <glyph glyph-name="j" unicode="j" horiz-adv-x="151" 
d="M164 440q7 0 6 -7l-79 -475q-11 -67 -48.5 -106.5t-100.5 -41.5q-7 0 -6 7l5 27q0 7 8 7q42 2 66 28.5t32 73.5l80 480q1 7 8 7h29zM175 615q14 0 22 -8.5t6 -21.5q-2 -14 -10 -22t-22 -8q-13 0 -21.5 8t-6.5 22t10 22t22 8z" />
    <glyph glyph-name="k" unicode="k" horiz-adv-x="441" 
d="M184 733q1 7 8 7h30q6 0 6 -7l-83 -493l274 197q4 3 10 3h45q5 0 5.5 -3t-5.5 -8l-283 -200l225 -220q3 -3 2 -6t-6 -3h-40q-6 0 -10 4l-220 218l-35 -215q-2 -7 -8 -7h-30q-6 0 -6 7z" />
    <glyph glyph-name="l" unicode="l" horiz-adv-x="167" 
d="M107 7q-2 -7 -8 -7h-30q-6 0 -6 7l121 726q1 7 8 7h30q6 0 6 -7z" />
    <glyph glyph-name="m" unicode="m" horiz-adv-x="799" 
d="M129 433q1 7 8 7h17q6 0 6 -6l-9 -104q32 58 82.5 90t110.5 32q61 0 93 -31.5t34 -90.5q32 59 83 90.5t109 31.5q77 0 110 -46.5t19 -131.5l-45 -267q-2 -7 -8 -7h-29q-8 0 -6 7l44 263q11 68 -13.5 105.5t-86.5 37.5q-37 0 -68 -13.5t-55 -37t-40.5 -55.5t-22.5 -70
l-38 -230q-2 -7 -8 -7h-29q-7 0 -5 7l43 263q11 69 -11.5 106t-85.5 37q-37 0 -69 -14.5t-56.5 -39t-41 -57.5t-22.5 -71l-38 -224q-2 -7 -8 -7h-29q-8 0 -6 7z" />
    <glyph glyph-name="n" unicode="n" horiz-adv-x="512" 
d="M154 440q8 0 6 -6l-8 -104q33 58 88.5 90t119.5 32q85 0 122 -48t22 -134l-43 -263q-2 -7 -8 -7h-30q-6 0 -6 7l44 261q11 69 -16.5 107t-97.5 38q-42 0 -77.5 -14.5t-62.5 -39t-44.5 -57.5t-23.5 -71l-37 -224q-2 -7 -8 -7h-30q-6 0 -6 7l71 426q1 7 8 7h17z" />
    <glyph glyph-name="o" unicode="o" horiz-adv-x="547" 
d="M349 452q50 0 88 -18t63 -49t34.5 -73.5t1.5 -91.5t-31 -91.5t-57.5 -73.5t-79.5 -49t-96 -18q-49 0 -87.5 18t-63.5 49t-34.5 73.5t-1.5 91.5t31.5 91.5t58 73.5t79 49t95.5 18zM345 414q-42 0 -78 -14.5t-64 -40.5t-46.5 -61.5t-25.5 -77.5q-7 -41 -1 -76.5t25 -61.5
t50 -41t73 -15q41 0 76.5 15t63.5 41t46.5 61.5t25.5 76.5q7 42 1 77.5t-24.5 61.5t-49 40.5t-72.5 14.5z" />
    <glyph glyph-name="p" unicode="p" horiz-adv-x="553" 
d="M364 452q47 0 83.5 -18t60 -49.5t33 -73.5t1.5 -91q-8 -51 -31 -93.5t-57 -73.5t-76 -48t-89 -17q-29 0 -56.5 7.5t-50.5 23.5t-39.5 39.5t-23.5 56.5l-50 -298q0 -7 -8 -7h-29q-6 0 -6 7l103 616q1 7 8 7h17q6 0 6 -6l-9 -115q18 34 42 59t52.5 41.5t58.5 24.5t60 8z
M349 414q-39 0 -74.5 -14.5t-64 -40t-48 -60.5t-26.5 -77t1 -77.5t27.5 -62t50.5 -41.5t71 -15q41 0 76 15t62.5 41t46 61.5t25.5 76.5t0.5 76t-25 61.5t-49.5 41.5t-73 15z" />
    <glyph glyph-name="q" unicode="q" horiz-adv-x="552" 
d="M339 452q60 0 108 -31.5t62 -97.5l28 111q2 6 8 6h17q7 0 6 -7l-103 -616q0 -7 -8 -7h-29q-6 0 -6 7l49 294q-18 -31 -42 -54t-52 -38.5t-57 -23t-58 -7.5q-47 0 -83.5 18t-60 49t-32.5 73.5t-1 91.5t30.5 91t56 73.5t76.5 49.5t91 18zM342 414q-41 0 -77 -15
t-63.5 -41.5t-46 -61.5t-25.5 -76t-1 -76.5t25 -61.5t50 -41t73 -15q40 0 75.5 15t63.5 41.5t47.5 62t26.5 77.5t-0.5 77t-27 60.5t-50.5 40t-70 14.5z" />
    <glyph glyph-name="r" unicode="r" horiz-adv-x="322" 
d="M129 433q1 7 8 7h17q8 0 6 -6l-9 -109q32 58 86.5 91t126.5 35q6 0 5 -7l-5 -30q0 -8 -8 -8q-47 1 -84.5 -13t-65 -39t-45 -59.5t-24.5 -75.5l-35 -212q-2 -7 -8 -7h-30q-6 0 -6 7z" />
    <glyph glyph-name="s" unicode="s" horiz-adv-x="447" 
d="M432 366q-5 -5 -11 -1q-23 23 -61 36.5t-76 13.5q-53 0 -90 -17.5t-43 -55.5q-3 -18 0 -33.5t17.5 -27.5t41.5 -21.5t71 -17.5q46 -8 76 -21t46.5 -29.5t21.5 -37.5t1 -46q-5 -29 -21.5 -51.5t-42 -37.5t-58 -23t-70.5 -8q-62 0 -108 17.5t-74 42.5q-4 3 -1 9l18 21
q5 6 10 1q23 -20 64 -37t98 -17q55 0 94.5 22t45.5 60q3 17 1 32t-15 27.5t-40 23t-75 18.5q-91 16 -122.5 50t-23.5 82q9 54 58 83t124 29q47 0 92 -15t72 -42q2 -2 1.5 -4.5t-2.5 -4.5z" />
    <glyph glyph-name="t" unicode="t" horiz-adv-x="335" 
d="M229 547q8 0 6 -7l-16 -100h137q6 0 5 -7l-4 -25q0 -7 -8 -7h-137l-46 -277q-7 -43 2.5 -69.5t51.5 -26.5q14 0 34 5.5t40 14.5q9 4 9 -4l6 -24q2 -7 -4 -9q-21 -10 -46.5 -16.5t-46.5 -6.5q-59 0 -79.5 35.5t-10.5 94.5l47 283h-73q-8 0 -6 7l4 25q1 7 8 7h75l36 101
q3 6 8 6h8z" />
    <glyph glyph-name="u" unicode="u" horiz-adv-x="511" 
d="M521 440q6 0 6 -7l-71 -426q-2 -7 -8 -7h-17q-7 0 -6 7l9 104q-33 -58 -88 -90.5t-121 -32.5q-84 0 -120.5 48t-22.5 135l43 262q1 7 8 7h30q6 0 6 -7l-43 -258q-12 -69 15.5 -107.5t98.5 -38.5q42 0 77 14t62 38.5t44 57.5t23 70l37 224q1 7 9 7h29z" />
    <glyph glyph-name="v" unicode="v" horiz-adv-x="472" 
d="M91 430q-2 10 7 10h33q2 0 4 -1t3 -3l108 -367l231 367q3 4 8 4h34q13 0 6 -10l-278 -430q-1 -4 -7 -4h-11q-4 0 -5 4z" />
    <glyph glyph-name="w" unicode="w" horiz-adv-x="766" 
d="M813 440q5 0 6.5 -2.5t-1.5 -6.5l-251 -431q-3 -4 -8 -4h-10q-5 0 -6 4l-98 367l-222 -367q-3 -4 -7 -4h-11q-5 0 -6 4l-108 431q-2 9 8 9h32q4 0 6 -4l87 -363l219 363q3 4 8 4h10q5 0 6 -4l97 -363l207 363q4 4 8 4h34z" />
    <glyph glyph-name="x" unicode="x" horiz-adv-x="459" 
d="M491 440q15 0 4 -11l-200 -207l137 -211q7 -11 -8 -11h-34q-4 0 -6 3l-122 193l-182 -193q-3 -3 -6 -3h-39q-7 0 -7.5 3t4.5 8l207 214l-132 204q-8 11 7 11h35q4 0 6 -2l117 -187l176 187q2 2 5 2h38z" />
    <glyph glyph-name="y" unicode="y" horiz-adv-x="463" 
d="M92 430q-3 10 8 10h28q6 0 7 -4l117 -383l217 383q1 2 3 3t4 1h35q5 0 6.5 -2.5t-1.5 -6.5l-357 -617q-3 -4 -8 -4h-34q-11 0 -4 9l111 186z" />
    <glyph glyph-name="z" unicode="z" horiz-adv-x="447" 
d="M120 402q-6 0 -6 7l4 24q1 7 8 7h343q6 0 6 -7l-2 -11q-1 -4 -7 -10l-356 -374h300q8 0 6 -7l-4 -24q-2 -7 -8 -7h-360q-6 0 -6 7l2 11q1 3 3 5.5t4 5.5l355 373h-282z" />
    <glyph glyph-name="braceleft" unicode="{" horiz-adv-x="291" 
d="M397 714q-1 -7 -8 -7q-32 -1 -54.5 -7.5t-37.5 -20t-24.5 -35t-14.5 -52.5l-34 -206q-8 -48 -37 -77.5t-73 -34.5q42 -5 61 -34.5t11 -78.5l-34 -203q-11 -63 9.5 -88t83.5 -27q6 0 6 -7l-4 -19q0 -7 -8 -7q-81 2 -110 38.5t-17 109.5l34 202q8 51 -11 73t-72 23
q-8 0 -6 7l4 24q2 7 8 7q53 1 80 23.5t35 73.5l34 201q12 73 53 109.5t123 38.5q7 0 6 -7z" />
    <glyph glyph-name="bar" unicode="|" horiz-adv-x="255" 
d="M114 -203q-1 -7 -8 -7h-27q-6 0 -5 7l160 966q1 7 8 7h27q7 0 6 -7z" />
    <glyph glyph-name="braceright" unicode="}" horiz-adv-x="289" 
d="M142 707q-7 0 -6 7l3 19q1 7 8 7q81 -2 110.5 -38.5t16.5 -109.5l-33 -201q-8 -51 10.5 -73.5t71.5 -23.5q8 0 6 -7l-4 -24q-2 -7 -8 -7q-53 -1 -79.5 -23t-35.5 -73l-33 -202q-12 -73 -54 -109.5t-123 -38.5q-6 0 -5 7l3 19q1 7 8 7q63 1 91.5 27t38.5 88l34 203
q8 49 37 78.5t73 34.5q-42 5 -61.5 34.5t-11.5 77.5l35 206q10 62 -10 88t-82 27z" />
    <glyph glyph-name="asciitilde" unicode="~" horiz-adv-x="553" 
d="M548 345q6 -1 4 -7q-16 -52 -47 -81t-79 -29q-38 0 -63.5 15t-48.5 35q-19 16 -40.5 29t-50.5 13q-65 0 -91 -81q-4 -7 -10 -6l-21 5q-5 2 -3 8q16 51 48 80t80 29q37 0 62 -15t53 -38q17 -13 37 -25t49 -12q66 0 92 80q1 4 4 6t5 0z" />
    <glyph glyph-name="exclamdown" unicode="&#xa1;" horiz-adv-x="263" 
d="M217 512q17 0 26.5 -10.5t6.5 -29.5q-3 -18 -16 -28.5t-30 -10.5t-26.5 10.5t-6.5 28.5q3 19 16 29.5t30 10.5zM189 302q7 0 5 -7l-22 -192l-50 -298q-2 -7 -8 -7h-33q-7 0 -5 7l49 298l42 192q2 7 8 7h14z" />
    <glyph glyph-name="cent" unicode="&#xa2;" horiz-adv-x="537" 
d="M426 720q6 0 5 -7l-18 -111q121 -8 170 -108q3 -5 -4 -10l-26 -15q-5 -4 -10 2q-23 48 -63.5 70.5t-99.5 22.5q-43 0 -81.5 -16t-69 -44.5t-51 -68t-28.5 -85.5q-8 -49 0.5 -88.5t31 -67.5t58.5 -43t83 -15q55 0 101 25.5t79 67.5q6 6 11 2l20 -15q5 -4 1 -10
q-41 -48 -93 -76t-113 -32l-18 -111q-1 -7 -8 -7h-24q-7 0 -6 7l19 111q-51 4 -89.5 24t-62.5 53.5t-33 78t0 96.5t32.5 96.5t58.5 78t80 53.5t97 24l19 111q1 7 8 7h24z" />
    <glyph glyph-name="sterling" unicode="&#xa3;" horiz-adv-x="732" 
d="M613 362q-2 -7 -9 -7h-252q-12 -53 -24.5 -108t-27.5 -106q24 -16 45.5 -36t43 -37.5t45 -29.5t50.5 -12q53 0 93.5 31.5t66.5 108.5q2 8 10 5l24 -9q7 -2 3 -8q-20 -52 -43.5 -84.5t-49.5 -50.5t-54.5 -24.5t-58.5 -6.5q-31 0 -55.5 12t-47 29t-43.5 37t-44 35
q-9 -24 -20 -44.5t-26 -35.5t-33.5 -24t-42.5 -9q-22 0 -37 8t-24 20.5t-11.5 28t-0.5 30.5q7 51 40.5 73.5t77.5 22.5q14 0 28.5 -3t26.5 -8q10 33 22.5 85.5t23.5 109.5h-94q-6 0 -6 7l3 22q0 7 8 7h96l25 106q48 203 208 203q154 0 158 -163q0 -5 -6 -7l-25 -7
q-7 -1 -9 6q-1 66 -27.5 99.5t-92.5 33.5q-69 0 -107 -42.5t-57 -123.5l-25 -105h252q6 0 6 -7zM252 123q-21 12 -47 12q-36 0 -55 -16.5t-23 -43.5q-3 -23 8 -37.5t34 -14.5q30 0 49.5 24.5t33.5 75.5z" />
    <glyph glyph-name="currency" unicode="&#xa4;" 
d="M397 548q35 0 67 -12.5t54 -34.5l82 72q6 5 9 0l15 -18q5 -5 -2 -10l-82 -69q19 -26 26.5 -60.5t1.5 -71.5q-6 -36 -24.5 -69.5t-44.5 -59.5l58 -70q4 -4 -1 -10l-22 -18q-4 -4 -8 1l-58 70q-29 -23 -66 -35.5t-74 -12.5q-36 0 -68 12.5t-54 35.5l-81 -70q-5 -4 -10 -1
l-15 18q-4 5 2 10l82 70q-18 26 -25.5 59.5t-0.5 69.5q5 37 24 71t47 60l-59 70q-4 6 2 10l21 18q5 5 9 0l59 -72q29 22 65 34.5t71 12.5zM392 513q-37 0 -70 -13t-59 -35.5t-44 -53.5t-24 -67t1 -67t26 -53.5t48 -35.5t66 -13t70 13t59 35.5t43.5 53.5t23.5 67t-1.5 67
t-26 53.5t-47 35.5t-65.5 13z" />
    <glyph glyph-name="yen" unicode="&#xa5;" horiz-adv-x="662" 
d="M124 363q2 7 8 7h204l-152 320q-5 10 8 10h33q4 0 5 -3l151 -327h20l260 327q2 3 7 3h37q12 0 4 -10l-259 -320h204q8 0 6 -7l-4 -22q-1 -7 -8 -7h-522q-7 0 -6 7zM105 253q2 7 8 7h522q8 0 6 -7l-4 -23q-1 -6 -8 -6h-238l-36 -217q-2 -7 -8 -7h-31q-8 0 -6 7l36 217
h-239q-7 0 -6 6z" />
    <glyph glyph-name="brokenbar" unicode="&#xa6;" horiz-adv-x="255" 
d="M209 367q-1 -6 -8 -6h-26q-7 0 -6 6l66 401q1 7 9 7h26q7 0 6 -7zM114 -203q-1 -7 -8 -7h-26q-7 0 -6 7l65 396q2 7 8 7h27q7 0 5 -7z" />
    <glyph glyph-name="section" unicode="&#xa7;" horiz-adv-x="578" 
d="M582 578q-6 -4 -10 1q-36 48 -88 70t-106 24q-78 2 -128.5 -21t-58.5 -80q-3 -23 3 -42.5t24.5 -37t51 -34t82.5 -33.5q65 -22 106.5 -42.5t64 -42t29.5 -46.5t3 -56q-8 -61 -55.5 -94.5t-114.5 -42.5q37 -17 61.5 -33.5t39 -34.5t19 -39t1.5 -48q-4 -37 -22.5 -65.5
t-48 -47.5t-68.5 -28.5t-86 -8.5q-33 1 -67 7.5t-65 20t-57.5 35t-45.5 52.5q-2 6 3 9l24 19q6 6 10 0q15 -27 37 -46t47.5 -32t54 -19t55.5 -7q80 -2 128.5 27.5t54.5 83.5q3 23 -2.5 41.5t-23 34.5t-50 31.5t-84.5 33.5q-62 22 -103 43t-64.5 44.5t-31.5 49t-4 56.5
q7 59 54 92.5t120 41.5q-72 29 -102.5 69.5t-23.5 93.5q11 72 73 104.5t156 30.5q70 -2 129 -27.5t104 -77.5q3 -5 -2 -10zM143 276q-3 -27 6.5 -47t32 -37.5t58.5 -32.5t87 -31q85 3 130 32t52 80q4 27 -5 47t-31.5 36.5t-59.5 31.5t-89 31q-81 -3 -128 -29t-53 -81z" />
    <glyph glyph-name="dieresis" unicode="&#xa8;" horiz-adv-x="416" 
d="M232 662q14 0 21.5 -8.5t5.5 -22.5q-2 -13 -12 -21.5t-24 -8.5q-13 0 -20.5 8.5t-5.5 21.5q2 14 11.5 22.5t23.5 8.5zM402 662q14 0 21.5 -8.5t5.5 -22.5q-2 -13 -11.5 -21.5t-23.5 -8.5q-13 0 -20.5 8.5t-5.5 21.5q2 14 11.5 22.5t22.5 8.5z" />
    <glyph glyph-name="copyright" unicode="&#xa9;" horiz-adv-x="875" 
d="M496 711q78 0 144.5 -27t115.5 -75.5t76.5 -114.5t27.5 -144t-27.5 -144t-76.5 -114.5t-115.5 -75.5t-144.5 -27t-144 27t-115 75.5t-76.5 114.5t-27.5 144t27.5 144t76.5 114.5t115 75.5t144 27zM496 687q-72 0 -133.5 -25.5t-106 -71t-70 -107t-25.5 -133.5
t25.5 -133.5t70 -107t106 -71t133.5 -25.5t133.5 25.5t106.5 71t70.5 107t25.5 133.5t-25.5 133.5t-70.5 107t-106.5 71t-133.5 25.5zM651 483q5 -4 -1 -10l-16 -12q-4 -4 -10 1q-46 52 -121 52q-69 0 -110.5 -43t-41.5 -121q0 -77 41.5 -120.5t110.5 -43.5q76 0 122 52
q3 6 10 2l16 -12q5 -4 2 -11q-26 -30 -64.5 -47.5t-85.5 -17.5q-42 0 -77.5 15t-61 41t-39.5 62.5t-14 79.5t14 79.5t39.5 63t61 41.5t77.5 15q46 0 84 -17.5t64 -48.5z" />
    <glyph glyph-name="ordfeminine" unicode="&#xaa;" horiz-adv-x="411" 
d="M313 703q43 0 76 -21t43 -64l12 71q2 7 8 7h20q8 0 6 -7l-49 -295q-2 -7 -8 -7h-14q-5 0 -5 7l5 69q-25 -45 -64.5 -64.5t-80.5 -19.5q-33 0 -58.5 12.5t-42 34t-22.5 51.5t0 64q6 35 21.5 65t38.5 51.5t52 33.5t62 12zM319 670q-28 0 -52 -10t-43 -27t-31 -41t-17 -51
q-9 -55 18 -91.5t82 -36.5q54 0 93.5 35.5t49.5 91.5q9 57 -19 93.5t-81 36.5z" />
    <glyph glyph-name="guillemotleft" unicode="&#xab;" horiz-adv-x="416" 
d="M104 273q-2 4 1 9l136 154q3 4 9 4h28q13 0 5 -11l-135 -154l82 -148q5 -11 -7 -11h-27q-5 0 -8 5zM248 273q-2 4 1 9l136 154q3 4 9 4h31q6 0 7.5 -3t-3.5 -8l-136 -154l84 -148q5 -11 -7 -11h-30q-4 0 -7 5z" />
    <glyph glyph-name="logicalnot" unicode="&#xac;" horiz-adv-x="529" 
d="M117 316q-8 0 -6 7l4 25q2 7 8 7h401q8 0 6 -7l-26 -157q-1 -7 -9 -7h-29q-7 0 -6 7l22 125h-365z" />
    <glyph glyph-name="registered" unicode="&#xae;" horiz-adv-x="776" 
d="M466 775q67 0 124.5 -23.5t99.5 -65.5t66 -99t24 -125q0 -67 -24 -124t-66 -99t-99.5 -65.5t-124.5 -23.5t-125 23.5t-100 65.5t-66 99t-24 124q0 68 24 125t66 99t100 65.5t125 23.5zM466 750q-63 0 -115.5 -21.5t-90.5 -60t-59.5 -91t-21.5 -115.5q0 -62 21.5 -114.5
t59.5 -91t90.5 -60t115.5 -21.5q62 0 114.5 21.5t90.5 60t59.5 91t21.5 114.5q0 63 -21.5 115.5t-59.5 91t-90.5 60t-114.5 21.5zM360 627q0 7 7 7h109q61 0 90.5 -26.5t29.5 -72.5q0 -39 -20 -66.5t-57 -36.5l78 -123q7 -11 -6 -11h-26q-5 0 -6 4l-74 123h-90v-120
q0 -7 -7 -7h-21q-7 0 -7 7v322zM395 456h76q45 0 66.5 19.5t21.5 54.5q0 38 -21.5 55.5t-68.5 17.5h-74v-147z" />
    <glyph glyph-name="macron" unicode="&#xaf;" horiz-adv-x="444" 
d="M457 621q-2 -5 -5 -5h-251q-4 0 -4 5l2 21q0 5 4 5h252q4 0 4 -5z" />
    <glyph glyph-name="degree" unicode="&#xb0;" horiz-adv-x="430" 
d="M338 740q37 0 66 -12t47.5 -33.5t26 -51.5t1.5 -66t-23.5 -66.5t-43.5 -52t-58.5 -33.5t-69.5 -12q-36 0 -65 12t-47.5 33.5t-25.5 52t-1 66.5t23.5 66t43 51.5t58 33.5t68.5 12zM333 707q-57 0 -99 -34.5t-53 -95.5q-11 -62 20 -96.5t89 -34.5t100 34.5t53 96.5
q10 61 -20.5 95.5t-89.5 34.5z" />
    <glyph glyph-name="plusminus" unicode="&#xb1;" horiz-adv-x="558" 
d="M376 504q8 0 6 -7l-35 -208h194q6 0 6 -7l-3 -24q-2 -7 -8 -7h-195l-35 -213h194q8 0 6 -7l-4 -24q-2 -7 -8 -7h-430q-8 0 -6 7l5 24q2 7 7 7h195l36 213h-195q-6 0 -6 7l4 24q0 7 8 7h195l35 208q2 7 8 7h26z" />
    <glyph glyph-name="twosuperior" unicode="&#xb2;" horiz-adv-x="336" 
d="M187 721q-3 -8 -9 -5l-18 6q-6 4 -4 9q22 47 61.5 73t93.5 26q55 0 85.5 -27.5t21.5 -80.5q-6 -37 -30 -70.5t-69 -73.5l-153 -133h201q6 0 6 -7l-4 -21q-2 -7 -8 -7h-255q-7 0 -5 6l1 9q1 1 1.5 2t1.5 2l191 171q40 36 59.5 64t24.5 57q7 38 -13.5 56.5t-59.5 18.5
q-42 0 -73 -20t-47 -55z" />
    <glyph glyph-name="threesuperior" unicode="&#xb3;" horiz-adv-x="348" 
d="M228 603q-7 0 -6 7l3 18q2 7 8 7h47q44 0 72 26.5t34 61.5t-13.5 54t-61.5 19q-45 0 -75 -19.5t-47 -55.5q-2 -5 -9 -5l-19 8q-6 2 -3 8q20 47 59.5 72.5t96.5 25.5q61 0 90.5 -28.5t21.5 -74.5q-7 -39 -33 -67.5t-59 -39.5q38 -8 55 -36t10 -68q-9 -54 -50 -85t-103 -31
q-55 0 -91 25.5t-41 73.5q-2 8 6 8l21 7q7 1 8 -5q5 -35 31 -55t69 -20q46 0 75.5 21.5t36.5 63.5q7 38 -13 61t-73 23h-47z" />
    <glyph glyph-name="acute" unicode="&#xb4;" horiz-adv-x="302" 
d="M281 697q2 3 7 3h35q7 0 2 -8l-98 -118q-3 -4 -8 -4h-26q-3 0 -4.5 1.5t1.5 5.5z" />
    <glyph glyph-name="uni00B5" unicode="&#xb5;" horiz-adv-x="515" 
d="M167 440q6 0 5 -7l-40 -239q-14 -81 17 -123t100 -42q83 0 134.5 46t65.5 134l38 224q1 7 8 7h30q7 0 6 -7l-71 -426q-2 -7 -8 -7h-17q-6 0 -6 7l11 99q-33 -62 -85 -90t-115 -28q-52 0 -88 25t-42 76l-37 -260q-2 -7 -8 -7h-30q-8 0 -6 7l100 604q1 7 8 7h30z" />
    <glyph glyph-name="paragraph" unicode="&#xb6;" horiz-adv-x="603" 
d="M621 700q7 0 6 -7l-137 -822q-1 -6 -8 -6h-27q-6 0 -5 6l131 789h-100l-131 -789q-1 -6 -9 -6h-26q-7 0 -6 6l66 395q-53 0 -98.5 11.5t-77 37t-46 67t-4.5 101.5q10 61 35 102.5t61.5 67t83.5 36.5t101 11h191z" />
    <glyph glyph-name="periodcentered" unicode="&#xb7;" horiz-adv-x="226" 
d="M170 339q17 0 27 -10.5t8 -28.5t-15 -28.5t-30 -10.5q-16 0 -26 10.5t-8 28.5t15 28.5t29 10.5z" />
    <glyph glyph-name="cedilla" unicode="&#xb8;" horiz-adv-x="371" 
d="M169 7q7 0 3 -6l-24 -61q120 -3 108 -74q-5 -35 -36 -53.5t-86 -18.5q-19 0 -38.5 2t-32.5 5q-4 2 -3 8l4 18q1 5 8 4q32 -8 66 -8q42 0 61.5 13.5t22.5 33.5q4 21 -17 34.5t-87 12.5q-7 0 -5 6l33 80q2 4 6 4h17z" />
    <glyph glyph-name="onesuperior" unicode="&#xb9;" horiz-adv-x="242" 
d="M303 822q7 0 5 -6l-66 -399q-2 -7 -8 -7h-24q-7 0 -5 7l60 363l-96 -30q-7 -2 -8 4l-3 21q-2 7 6 9l121 37q2 1 4 1h4h10z" />
    <glyph glyph-name="ordmasculine" unicode="&#xba;" horiz-adv-x="411" 
d="M323 703q35 0 61.5 -12.5t44 -34t24 -51t0.5 -64.5q-6 -34 -22.5 -64t-41 -51.5t-55 -34t-65.5 -12.5q-34 0 -61 12.5t-44 34t-24 51.5t-1 64q6 35 21.5 64.5t39.5 51t55.5 34t67.5 12.5zM318 670q-56 0 -94.5 -37t-47.5 -92q-10 -55 14.5 -92t83.5 -37q26 0 50 10t43 27
t32.5 41t17.5 51q9 55 -15.5 92t-83.5 37z" />
    <glyph glyph-name="guillemotright" unicode="&#xbb;" horiz-adv-x="417" 
d="M406 282q2 -4 -2 -8l-135 -154q-3 -4 -9 -4h-29q-13 0 -4 11l135 154l-83 148q-5 11 8 11h26q6 0 8 -5zM261 282q2 -3 -1 -8l-136 -154q-2 -4 -9 -4h-31q-13 0 -4 11l137 154l-83 148q-5 11 7 11h28q6 0 8 -5z" />
    <glyph glyph-name="onequarter" unicode="&#xbc;" horiz-adv-x="717" 
d="M283 702q7 0 5 -6l-66 -399q-2 -7 -8 -7h-24q-6 0 -6 7l61 363l-96 -30q-7 -2 -8 4l-3 21q-4 7 6 9l121 37q2 1 4 1h4h10zM669 700q13 0 5 -10l-526 -686q-1 -4 -6 -4h-22q-6 0 -7.5 3t2.5 7l526 687q3 3 7 3h21zM708 102q-1 -7 -8 -7h-68l-15 -88q-2 -7 -8 -7h-23
q-8 0 -6 7l15 88h-192q-6 0 -5 6l1 9q0 3 2 3l202 293q3 4 7 4h28q11 0 4 -10l-192 -271h150l15 91q2 7 8 7h24q6 0 6 -7l-16 -91h68q8 0 6 -7z" />
    <glyph glyph-name="onehalf" unicode="&#xbd;" horiz-adv-x="747" 
d="M283 702q7 0 5 -6l-66 -399q-2 -7 -8 -7h-24q-6 0 -6 7l61 363l-96 -30q-7 -2 -8 4l-3 21q-4 7 6 9l121 37q2 1 4 1h4h10zM669 700q13 0 5 -10l-526 -686q-3 -4 -6 -4h-22q-6 0 -7.5 3t2.5 7l526 687q2 3 6 3h22zM529 311q-3 -8 -9 -5l-18 6q-6 4 -4 9q22 47 62 73t94 26
t84.5 -27.5t22.5 -80.5q-7 -37 -31 -70.5t-69 -73.5l-153 -133h201q6 0 6 -7l-4 -21q0 -7 -8 -7h-255q-5 0 -5 6l2 9q0 3 3 4l190 171q40 36 59.5 64t24.5 57q7 38 -13.5 56.5t-58.5 18.5q-42 0 -73 -20t-48 -55z" />
    <glyph glyph-name="threequarters" unicode="&#xbe;" horiz-adv-x="824" 
d="M207 483q-6 0 -5 7l3 18q0 7 8 7h47q44 0 72 26.5t34 61.5t-14 54t-62 19q-44 0 -74.5 -19.5t-46.5 -55.5q-2 -5 -9 -5l-19 7q-8 0 -4 8q21 48 62 73.5t98 25.5q60 0 88.5 -27t20.5 -74q-7 -38 -33 -68t-59 -41q38 -8 55 -35t10 -68q-9 -54 -51 -85.5t-104 -31.5
q-55 0 -90 25.5t-41 73.5q0 8 7 8l21 7q7 2 7 -5q5 -35 31.5 -55t69.5 -20q46 0 75.5 21.5t36.5 63.5q6 38 -13.5 61t-72.5 23h-48zM764 700q13 0 5 -10l-526 -686q-3 -4 -7 -4h-21q-6 0 -7.5 3t2.5 7l526 687q2 3 6 3h22zM815 102q-1 -7 -8 -7h-68l-15 -88q-2 -7 -8 -7h-23
q-8 0 -6 7l14 88h-191q-6 0 -5 6l1 9q0 3 2 3l202 293q3 4 7 4h28q11 0 4 -10l-192 -271h150l15 91q2 7 8 7h24q6 0 6 -7l-16 -91h68q8 0 6 -7z" />
    <glyph glyph-name="questiondown" unicode="&#xbf;" horiz-adv-x="519" 
d="M359 512q17 0 26.5 -10.5t6.5 -29.5q-3 -18 -16 -28.5t-30 -10.5t-27 10.5t-7 28.5q3 19 16.5 29.5t30.5 10.5zM342 285q7 0 6 -7q-5 -30 -14 -53.5t-25.5 -44t-41.5 -40t-63 -41.5q-60 -35 -88 -67.5t-30 -78.5q-2 -51 30.5 -81.5t102.5 -30.5q76 0 126.5 35.5
t82.5 88.5q4 6 10 3l21 -16q5 -4 2 -9q-38 -62 -99.5 -102.5t-147.5 -40.5q-45 0 -78.5 12t-55.5 33t-31.5 49.5t-6.5 60.5q2 31 13 55.5t29.5 45.5t44.5 40t59 38q29 18 49 33t33 31.5t20.5 35.5t12.5 44q1 7 8 7h31z" />
    <glyph glyph-name="Agrave" unicode="&#xc0;" horiz-adv-x="749" 
d="M497 705q5 0 6 -4l192 -692q2 -9 -8 -9h-35q-3 0 -5 5l-54 202h-363l-122 -202q-2 -5 -7 -5h-40q-9 0 -4 9l423 692q3 4 8 4h9zM584 248l-102 379l-227 -379h329zM516 757q4 -7 -3 -7h-28q-3 0 -5 3l-63 119q-4 8 5 8h33q5 0 6 -4z" />
    <glyph glyph-name="Aacute" unicode="&#xc1;" horiz-adv-x="749" 
d="M497 705q5 0 6 -4l192 -692q2 -9 -8 -9h-35q-3 0 -5 5l-54 202h-363l-122 -202q-2 -5 -7 -5h-40q-9 0 -4 9l423 692q3 4 8 4h9zM584 248l-102 379l-227 -379h329zM579 877q2 3 7 3h35q7 0 2 -8l-98 -118q-3 -4 -8 -4h-26q-3 0 -4.5 1.5t1.5 5.5z" />
    <glyph glyph-name="Acircumflex" unicode="&#xc2;" horiz-adv-x="749" 
d="M497 705q5 0 6 -4l192 -692q2 -9 -8 -9h-35q-3 0 -5 5l-54 202h-363l-122 -202q-2 -5 -7 -5h-40q-9 0 -4 9l423 692q3 4 8 4h9zM584 248l-102 379l-227 -379h329zM622 758q5 -8 -4 -8h-27q-3 0 -5 3l-67 103l-95 -104q-2 -2 -4 -2h-32q-9 0 -2 8l110 119q3 3 9 3h27
q5 0 7 -4z" />
    <glyph glyph-name="Atilde" unicode="&#xc3;" horiz-adv-x="749" 
d="M497 705q5 0 6 -4l192 -692q2 -9 -8 -9h-35q-3 0 -5 5l-54 202h-363l-122 -202q-2 -5 -7 -5h-40q-9 0 -4 9l423 692q3 4 8 4h9zM584 248l-102 379l-227 -379h329zM659 881q4 0 4 -5q-10 -66 -33.5 -101t-58.5 -35q-25 0 -38.5 17.5t-23 39t-20 39t-29.5 17.5
q-20 0 -38.5 -24t-26.5 -79q0 -5 -5 -5h-25q-4 0 -4 5q11 67 37.5 101t61.5 34q25 0 38.5 -17.5t23 -38.5t20 -38.5t28.5 -17.5q20 0 35.5 24t23.5 79q0 5 6 5h24z" />
    <glyph glyph-name="Adieresis" unicode="&#xc4;" horiz-adv-x="749" 
d="M497 705q5 0 6 -4l192 -692q2 -9 -8 -9h-35q-3 0 -5 5l-54 202h-363l-122 -202q-2 -5 -7 -5h-40q-9 0 -4 9l423 692q3 4 8 4h9zM584 248l-102 379l-227 -379h329zM430 842q14 0 21.5 -8.5t5.5 -22.5q-2 -13 -12 -21.5t-24 -8.5q-13 0 -20.5 8.5t-5.5 21.5q2 14 11.5 22.5
t23.5 8.5zM600 842q14 0 21.5 -8.5t5.5 -22.5q-2 -13 -11.5 -21.5t-23.5 -8.5q-13 0 -20.5 8.5t-5.5 21.5q2 14 11.5 22.5t22.5 8.5z" />
    <glyph glyph-name="Aring" unicode="&#xc5;" horiz-adv-x="749" 
d="M497 705q5 0 6 -4l192 -692q2 -9 -8 -9h-35q-3 0 -5 5l-54 202h-363l-122 -202q-2 -5 -7 -5h-40q-9 0 -4 9l423 692q3 4 8 4h9zM584 248l-102 379l-227 -379h329zM532 937q46 0 69.5 -28t16.5 -70t-39 -69.5t-79 -27.5q-46 0 -69 27.5t-17 69.5q7 42 39.5 70t78.5 28z
M529 911q-36 0 -58.5 -19.5t-28.5 -52.5q-5 -32 11 -52t51 -20t57.5 20t27.5 52q6 33 -9.5 52.5t-50.5 19.5z" />
    <glyph glyph-name="AE" unicode="&#xc6;" horiz-adv-x="959" 
d="M995 665q-2 -7 -8 -7h-456l37 -280h330q6 0 5 -7l-4 -26q-1 -7 -8 -7h-318l39 -296h276q8 0 6 -7l-5 -28q0 -7 -8 -7h-305q-6 0 -6 5l-25 201h-318l-122 -201q-3 -5 -7 -5h-35q-5 0 -6.5 2.5t1.5 6.5l412 687q4 4 8 4h516q7 0 6 -7zM541 248l-53 400l-236 -400h289z" />
    <glyph glyph-name="Ccedilla" unicode="&#xc7;" horiz-adv-x="739" 
d="M779 589q2 -7 -3 -10l-26 -16q-7 -3 -10 1q-70 106 -214 106q-66 0 -125 -23.5t-105.5 -66t-77.5 -101t-43 -129.5q-12 -70 -0.5 -129t43 -101t82 -65.5t116.5 -23.5q72 0 136.5 28.5t116.5 81.5q5 7 10 2l23 -20q5 -5 0 -11q-60 -60 -133 -92t-157 -32q-76 0 -135 27
t-96.5 75.5t-51.5 115t-1 145.5t48.5 145t88.5 114t120 75t143 27q83 0 147.5 -32t103.5 -91zM421 7q7 0 3 -6l-24 -61q120 -3 108 -74q-5 -35 -36 -53.5t-86 -18.5q-19 0 -38.5 2t-32.5 5q-4 2 -3 8l4 18q1 5 8 4q32 -8 66 -8q42 0 61.5 13.5t22.5 33.5q4 21 -17 34.5
t-87 12.5q-7 0 -5 6l33 80q2 4 6 4h17z" />
    <glyph glyph-name="Egrave" unicode="&#xc8;" horiz-adv-x="575" 
d="M208 693q1 7 8 7h393q6 0 6 -7l-5 -28q-2 -7 -8 -7h-355l-47 -280h318q7 0 6 -7l-5 -26q0 -7 -8 -7h-318l-49 -296h359q8 0 6 -7l-5 -28q0 -7 -8 -7h-397q-7 0 -5 7zM442 757q4 -7 -3 -7h-28q-3 0 -5 3l-63 119q-4 8 5 8h33q5 0 6 -4z" />
    <glyph glyph-name="Eacute" unicode="&#xc9;" horiz-adv-x="575" 
d="M208 693q1 7 8 7h393q6 0 6 -7l-5 -28q-2 -7 -8 -7h-355l-47 -280h318q7 0 6 -7l-5 -26q0 -7 -8 -7h-318l-49 -296h359q8 0 6 -7l-5 -28q0 -7 -8 -7h-397q-7 0 -5 7zM506 877q2 3 7 3h35q7 0 2 -8l-98 -118q-3 -4 -8 -4h-26q-3 0 -4.5 1.5t1.5 5.5z" />
    <glyph glyph-name="Ecircumflex" unicode="&#xca;" horiz-adv-x="575" 
d="M208 693q1 7 8 7h393q6 0 6 -7l-5 -28q-2 -7 -8 -7h-355l-47 -280h318q7 0 6 -7l-5 -26q0 -7 -8 -7h-318l-49 -296h359q8 0 6 -7l-5 -28q0 -7 -8 -7h-397q-7 0 -5 7zM548 758q5 -8 -4 -8h-27q-3 0 -5 3l-67 103l-95 -104q-2 -2 -4 -2h-32q-9 0 -2 8l110 119q3 3 9 3h27
q5 0 7 -4z" />
    <glyph glyph-name="Edieresis" unicode="&#xcb;" horiz-adv-x="575" 
d="M208 693q1 7 8 7h393q6 0 6 -7l-5 -28q-2 -7 -8 -7h-355l-47 -280h318q7 0 6 -7l-5 -26q0 -7 -8 -7h-318l-49 -296h359q8 0 6 -7l-5 -28q0 -7 -8 -7h-397q-7 0 -5 7zM356 842q14 0 21.5 -8.5t5.5 -22.5q-2 -13 -12 -21.5t-24 -8.5q-13 0 -20.5 8.5t-5.5 21.5
q2 14 11.5 22.5t23.5 8.5zM526 842q14 0 21.5 -8.5t5.5 -22.5q-2 -13 -11.5 -21.5t-23.5 -8.5q-13 0 -20.5 8.5t-5.5 21.5q2 14 11.5 22.5t22.5 8.5z" />
    <glyph glyph-name="Igrave" unicode="&#xcc;" horiz-adv-x="244" 
d="M254 700q7 0 6 -7l-114 -686q-2 -7 -8 -7h-31q-8 0 -6 7l115 686q0 7 8 7h30zM262 757q4 -7 -3 -7h-28q-3 0 -5 3l-63 119q-4 8 5 8h33q5 0 6 -4z" />
    <glyph glyph-name="Iacute" unicode="&#xcd;" horiz-adv-x="244" 
d="M254 700q7 0 6 -7l-114 -686q-2 -7 -8 -7h-31q-8 0 -6 7l115 686q0 7 8 7h30zM326 877q2 3 7 3h35q7 0 2 -8l-98 -118q-3 -4 -8 -4h-26q-3 0 -4.5 1.5t1.5 5.5z" />
    <glyph glyph-name="Icircumflex" unicode="&#xce;" horiz-adv-x="244" 
d="M254 700q7 0 6 -7l-114 -686q-2 -7 -8 -7h-31q-8 0 -6 7l115 686q0 7 8 7h30zM368 758q5 -8 -4 -8h-27q-3 0 -5 3l-67 103l-95 -104q-2 -2 -4 -2h-32q-9 0 -2 8l110 119q3 3 9 3h27q5 0 7 -4z" />
    <glyph glyph-name="Idieresis" unicode="&#xcf;" horiz-adv-x="244" 
d="M254 700q7 0 6 -7l-114 -686q-2 -7 -8 -7h-31q-8 0 -6 7l115 686q0 7 8 7h30zM176 842q14 0 21.5 -8.5t5.5 -22.5q-2 -13 -12 -21.5t-24 -8.5q-13 0 -20.5 8.5t-5.5 21.5q2 14 11.5 22.5t23.5 8.5zM346 842q14 0 21.5 -8.5t5.5 -22.5q-2 -13 -11.5 -21.5t-23.5 -8.5
q-13 0 -20.5 8.5t-5.5 21.5q2 14 11.5 22.5t22.5 8.5z" />
    <glyph glyph-name="Eth" unicode="&#xd0;" horiz-adv-x="808" 
d="M264 693q1 7 8 7h227q88 0 150.5 -25.5t100 -71t49.5 -108t0 -135.5q-12 -74 -46 -139.5t-87.5 -114.5t-124.5 -77.5t-158 -28.5h-228q-7 0 -5 7l54 328h-79q-6 0 -6 7l4 23q2 7 8 7h79zM465 372q6 0 6 -7l-4 -23q-2 -7 -8 -7h-210l-49 -293h190q77 0 139 25t108 68
t75 101t40 124t1 120.5t-42.5 94t-86.5 61.5t-132 22h-189l-48 -286h210z" />
    <glyph glyph-name="Ntilde" unicode="&#xd1;" horiz-adv-x="705" 
d="M724 700q6 0 5 -7l-115 -691q0 -7 -8 -7h-7q-4 0 -8 5l-352 610l-101 -603q-2 -7 -8 -7h-31q-7 0 -5 7l115 691q0 7 8 7h7q5 0 7 -4l353 -611l101 603q1 7 8 7h31zM635 881q4 0 4 -5q-10 -66 -33.5 -101t-58.5 -35q-25 0 -38.5 17.5t-23 39t-20 39t-29.5 17.5
q-20 0 -38.5 -24t-26.5 -79q0 -5 -5 -5h-25q-4 0 -4 5q11 67 37.5 101t61.5 34q25 0 38.5 -17.5t23 -38.5t20 -38.5t28.5 -17.5q20 0 35.5 24t23.5 79q0 5 6 5h24z" />
    <glyph glyph-name="Ograve" unicode="&#xd2;" horiz-adv-x="842" 
d="M536 712q77 0 137.5 -27.5t100 -76.5t55.5 -115t3 -143q-13 -78 -50 -144t-91 -114.5t-122.5 -76t-143.5 -27.5q-76 0 -137 27.5t-100.5 76.5t-56 115t-3.5 143q13 78 49.5 144t90.5 114.5t123 76t145 27.5zM534 670q-67 0 -127 -24t-108 -67t-80 -101.5t-44 -127.5
q-11 -69 1 -127.5t45 -101t85 -67t120 -24.5q67 0 127 24.5t108 67t80 101t44 127.5q11 69 -1.5 127.5t-45.5 101t-85 67t-119 24.5zM561 767q4 -7 -3 -7h-28q-3 0 -5 3l-63 119q-4 8 5 8h33q5 0 6 -4z" />
    <glyph glyph-name="Oacute" unicode="&#xd3;" horiz-adv-x="842" 
d="M536 712q77 0 137.5 -27.5t100 -76.5t55.5 -115t3 -143q-13 -78 -50 -144t-91 -114.5t-122.5 -76t-143.5 -27.5q-76 0 -137 27.5t-100.5 76.5t-56 115t-3.5 143q13 78 49.5 144t90.5 114.5t123 76t145 27.5zM534 670q-67 0 -127 -24t-108 -67t-80 -101.5t-44 -127.5
q-11 -69 1 -127.5t45 -101t85 -67t120 -24.5q67 0 127 24.5t108 67t80 101t44 127.5q11 69 -1.5 127.5t-45.5 101t-85 67t-119 24.5zM625 887q2 3 7 3h35q7 0 2 -8l-98 -118q-3 -4 -8 -4h-26q-3 0 -4.5 1.5t1.5 5.5z" />
    <glyph glyph-name="Ocircumflex" unicode="&#xd4;" horiz-adv-x="842" 
d="M536 712q77 0 137.5 -27.5t100 -76.5t55.5 -115t3 -143q-13 -78 -50 -144t-91 -114.5t-122.5 -76t-143.5 -27.5q-76 0 -137 27.5t-100.5 76.5t-56 115t-3.5 143q13 78 49.5 144t90.5 114.5t123 76t145 27.5zM534 670q-67 0 -127 -24t-108 -67t-80 -101.5t-44 -127.5
q-11 -69 1 -127.5t45 -101t85 -67t120 -24.5q67 0 127 24.5t108 67t80 101t44 127.5q11 69 -1.5 127.5t-45.5 101t-85 67t-119 24.5zM667 768q5 -8 -4 -8h-27q-3 0 -5 3l-67 103l-95 -104q-2 -2 -4 -2h-32q-9 0 -2 8l110 119q3 3 9 3h27q5 0 7 -4z" />
    <glyph glyph-name="Otilde" unicode="&#xd5;" horiz-adv-x="842" 
d="M536 712q77 0 137.5 -27.5t100 -76.5t55.5 -115t3 -143q-13 -78 -50 -144t-91 -114.5t-122.5 -76t-143.5 -27.5q-76 0 -137 27.5t-100.5 76.5t-56 115t-3.5 143q13 78 49.5 144t90.5 114.5t123 76t145 27.5zM534 670q-67 0 -127 -24t-108 -67t-80 -101.5t-44 -127.5
q-11 -69 1 -127.5t45 -101t85 -67t120 -24.5q67 0 127 24.5t108 67t80 101t44 127.5q11 69 -1.5 127.5t-45.5 101t-85 67t-119 24.5zM705 891q4 0 4 -5q-10 -66 -33.5 -101t-58.5 -35q-25 0 -38.5 17.5t-23 39t-20 39t-29.5 17.5q-20 0 -38.5 -24t-26.5 -79q0 -5 -5 -5h-25
q-4 0 -4 5q11 67 37.5 101t61.5 34q25 0 38.5 -17.5t23 -38.5t20 -38.5t28.5 -17.5q20 0 35.5 24t23.5 79q0 5 6 5h24z" />
    <glyph glyph-name="Odieresis" unicode="&#xd6;" horiz-adv-x="842" 
d="M536 712q77 0 137.5 -27.5t100 -76.5t55.5 -115t3 -143q-13 -78 -50 -144t-91 -114.5t-122.5 -76t-143.5 -27.5q-76 0 -137 27.5t-100.5 76.5t-56 115t-3.5 143q13 78 49.5 144t90.5 114.5t123 76t145 27.5zM534 670q-67 0 -127 -24t-108 -67t-80 -101.5t-44 -127.5
q-11 -69 1 -127.5t45 -101t85 -67t120 -24.5q67 0 127 24.5t108 67t80 101t44 127.5q11 69 -1.5 127.5t-45.5 101t-85 67t-119 24.5zM475 852q14 0 21.5 -8.5t5.5 -22.5q-2 -13 -12 -21.5t-24 -8.5q-13 0 -20.5 8.5t-5.5 21.5q2 14 11.5 22.5t23.5 8.5zM645 852
q14 0 21.5 -8.5t5.5 -22.5q-2 -13 -11.5 -21.5t-23.5 -8.5q-13 0 -20.5 8.5t-5.5 21.5q2 14 11.5 22.5t22.5 8.5z" />
    <glyph glyph-name="multiply" unicode="&#xd7;" horiz-adv-x="480" 
d="M488 418q3 -3 2.5 -5.5t-2.5 -4.5l-178 -153l127 -154q4 -3 -2 -9l-19 -15q-2 -2 -4.5 -2t-4.5 2l-127 154l-177 -152q-5 -3 -10 0l-15 21q-4 6 2 10l175 149l-127 153q-3 4 2 9l19 16q5 5 9 0l127 -153l178 153q5 4 9 0z" />
    <glyph glyph-name="Oslash" unicode="&#xd8;" horiz-adv-x="841" 
d="M540 712q69 0 123 -22t92 -63l108 100q6 6 10 1l14 -14q2 -2 -2 -9l-108 -100q37 -49 52 -114t2 -141q-13 -77 -50.5 -143t-92.5 -115t-124 -76.5t-145 -27.5q-67 0 -121.5 22t-92.5 62l-111 -102q-5 -4 -10 -1l-13 14q-2 3 2 10l110 101q-38 49 -53 114.5t-2 141.5
q13 77 50.5 143t92.5 115t124 76.5t145 27.5zM533 671q-67 0 -127 -24.5t-108 -67.5t-80 -101.5t-44 -127.5q-11 -66 1 -123t43 -100l504 469q-34 35 -81.5 55t-107.5 20zM237 104q33 -36 81 -55.5t108 -19.5q67 0 127 24.5t108 67.5t80 101.5t44 127.5q11 66 -0.5 122.5
t-41.5 99.5z" />
    <glyph glyph-name="Ugrave" unicode="&#xd9;" horiz-adv-x="677" 
d="M699 700q6 0 6 -7l-74 -440q-10 -62 -35 -111t-62 -83.5t-85.5 -52.5t-106.5 -18t-102 18t-71.5 52.5t-37.5 83.5t0 111l73 440q1 7 8 7h31q6 0 6 -7l-73 -434q-18 -109 25 -169t142 -60q100 0 163.5 60t81.5 169l72 434q1 7 8 7h31zM474 757q4 -7 -3 -7h-28q-3 0 -5 3
l-63 119q-4 8 5 8h33q5 0 6 -4z" />
    <glyph glyph-name="Uacute" unicode="&#xda;" horiz-adv-x="677" 
d="M699 700q6 0 6 -7l-74 -440q-10 -62 -35 -111t-62 -83.5t-85.5 -52.5t-106.5 -18t-102 18t-71.5 52.5t-37.5 83.5t0 111l73 440q1 7 8 7h31q6 0 6 -7l-73 -434q-18 -109 25 -169t142 -60q100 0 163.5 60t81.5 169l72 434q1 7 8 7h31zM537 877q2 3 7 3h35q7 0 2 -8
l-98 -118q-3 -4 -8 -4h-26q-3 0 -4.5 1.5t1.5 5.5z" />
    <glyph glyph-name="Ucircumflex" unicode="&#xdb;" horiz-adv-x="677" 
d="M699 700q6 0 6 -7l-74 -440q-10 -62 -35 -111t-62 -83.5t-85.5 -52.5t-106.5 -18t-102 18t-71.5 52.5t-37.5 83.5t0 111l73 440q1 7 8 7h31q6 0 6 -7l-73 -434q-18 -109 25 -169t142 -60q100 0 163.5 60t81.5 169l72 434q1 7 8 7h31zM579 758q5 -8 -4 -8h-27q-3 0 -5 3
l-67 103l-95 -104q-2 -2 -4 -2h-32q-9 0 -2 8l110 119q3 3 9 3h27q5 0 7 -4z" />
    <glyph glyph-name="Udieresis" unicode="&#xdc;" horiz-adv-x="677" 
d="M699 700q6 0 6 -7l-74 -440q-10 -62 -35 -111t-62 -83.5t-85.5 -52.5t-106.5 -18t-102 18t-71.5 52.5t-37.5 83.5t0 111l73 440q1 7 8 7h31q6 0 6 -7l-73 -434q-18 -109 25 -169t142 -60q100 0 163.5 60t81.5 169l72 434q1 7 8 7h31zM387 842q14 0 21.5 -8.5t5.5 -22.5
q-2 -13 -12 -21.5t-24 -8.5q-13 0 -20.5 8.5t-5.5 21.5q2 14 11.5 22.5t23.5 8.5zM557 842q14 0 21.5 -8.5t5.5 -22.5q-2 -13 -11.5 -21.5t-23.5 -8.5q-13 0 -20.5 8.5t-5.5 21.5q2 14 11.5 22.5t22.5 8.5z" />
    <glyph glyph-name="Yacute" unicode="&#xdd;" horiz-adv-x="653" 
d="M717 700q11 0 4 -10l-324 -403l-47 -280q0 -7 -8 -7h-31q-7 0 -5 7l46 280l-190 403q-5 10 7 10h34q4 0 5 -3l171 -368l292 368q2 3 6 3h40zM519 877q2 3 7 3h35q7 0 2 -8l-98 -118q-3 -4 -8 -4h-26q-3 0 -4.5 1.5t1.5 5.5z" />
    <glyph glyph-name="Thorn" unicode="&#xde;" horiz-adv-x="577" 
d="M208 693q0 7 8 7h31q6 0 6 -7l-25 -149h155q124 0 172 -49.5t32 -143.5t-78.5 -144.5t-185.5 -50.5h-160l-25 -149q-2 -7 -8 -7h-31q-7 0 -5 7zM170 198h154q53 0 91 9.5t63.5 28t40.5 47t21 67.5q7 39 2 68t-23.5 47.5t-53 28t-87.5 9.5h-157z" />
    <glyph glyph-name="germandbls" unicode="&#xdf;" horiz-adv-x="540" 
d="M37 -190q-6 0 -6 7l116 692q8 48 24.5 89t43.5 70t64.5 45.5t88.5 16.5q82 0 120.5 -37t27.5 -102q-6 -34 -23 -60t-35.5 -47.5t-34 -40t-18.5 -38.5q-3 -16 6 -30.5t24 -30t32 -32.5t31 -38.5t21 -48t1 -59.5q-6 -39 -25 -71.5t-50 -56t-74 -37t-98 -13.5q-28 0 -50 2.5
t-45 7.5q-7 2 -5 8l5 27q2 8 10 6q20 -5 40 -8.5t46 -3.5q88 0 139.5 39t62.5 105q5 31 -2.5 54t-21.5 41.5t-31.5 34t-32 31.5t-23.5 33.5t-5 39.5q4 24 20 44.5t35 41t35.5 44t21.5 53.5q16 104 -107 104q-42 0 -72.5 -14t-51 -39.5t-32.5 -60t-19 -75.5l-115 -686
q-1 -7 -8 -7h-30z" />
    <glyph glyph-name="agrave" unicode="&#xe0;" horiz-adv-x="552" 
d="M339 452q30 0 57.5 -8t50.5 -24t39.5 -41t22.5 -58l28 113q2 6 8 6h17q7 0 6 -7l-71 -426q-2 -7 -8 -7h-17q-6 0 -6 7l9 112q-18 -33 -42 -58t-52.5 -41t-58.5 -24t-60 -8q-47 0 -83.5 18t-60 49.5t-32.5 73.5t-1 91t31.5 91.5t57 73.5t76 49t89.5 18zM341 413
q-41 0 -76.5 -14.5t-63 -40.5t-45.5 -61.5t-25 -76.5q-7 -40 0 -75t25.5 -61.5t49.5 -41.5t72 -15q39 0 74.5 14.5t64 40.5t47.5 61t26 76q7 42 -1 77.5t-27.5 61.5t-50.5 40.5t-70 14.5zM374 537q4 -7 -3 -7h-28q-3 0 -5 3l-63 119q-4 8 5 8h33q5 0 6 -4z" />
    <glyph glyph-name="aacute" unicode="&#xe1;" horiz-adv-x="552" 
d="M339 452q30 0 57.5 -8t50.5 -24t39.5 -41t22.5 -58l28 113q2 6 8 6h17q7 0 6 -7l-71 -426q-2 -7 -8 -7h-17q-6 0 -6 7l9 112q-18 -33 -42 -58t-52.5 -41t-58.5 -24t-60 -8q-47 0 -83.5 18t-60 49.5t-32.5 73.5t-1 91t31.5 91.5t57 73.5t76 49t89.5 18zM341 413
q-41 0 -76.5 -14.5t-63 -40.5t-45.5 -61.5t-25 -76.5q-7 -40 0 -75t25.5 -61.5t49.5 -41.5t72 -15q39 0 74.5 14.5t64 40.5t47.5 61t26 76q7 42 -1 77.5t-27.5 61.5t-50.5 40.5t-70 14.5zM438 657q2 3 7 3h35q7 0 2 -8l-98 -118q-3 -4 -8 -4h-26q-3 0 -4.5 1.5t1.5 5.5z" />
    <glyph glyph-name="acircumflex" unicode="&#xe2;" horiz-adv-x="552" 
d="M339 452q30 0 57.5 -8t50.5 -24t39.5 -41t22.5 -58l28 113q2 6 8 6h17q7 0 6 -7l-71 -426q-2 -7 -8 -7h-17q-6 0 -6 7l9 112q-18 -33 -42 -58t-52.5 -41t-58.5 -24t-60 -8q-47 0 -83.5 18t-60 49.5t-32.5 73.5t-1 91t31.5 91.5t57 73.5t76 49t89.5 18zM341 413
q-41 0 -76.5 -14.5t-63 -40.5t-45.5 -61.5t-25 -76.5q-7 -40 0 -75t25.5 -61.5t49.5 -41.5t72 -15q39 0 74.5 14.5t64 40.5t47.5 61t26 76q7 42 -1 77.5t-27.5 61.5t-50.5 40.5t-70 14.5zM480 538q5 -8 -4 -8h-27q-3 0 -5 3l-67 103l-95 -104q-2 -2 -4 -2h-32q-9 0 -2 8
l110 119q3 3 9 3h27q5 0 7 -4z" />
    <glyph glyph-name="atilde" unicode="&#xe3;" horiz-adv-x="552" 
d="M339 452q30 0 57.5 -8t50.5 -24t39.5 -41t22.5 -58l28 113q2 6 8 6h17q7 0 6 -7l-71 -426q-2 -7 -8 -7h-17q-6 0 -6 7l9 112q-18 -33 -42 -58t-52.5 -41t-58.5 -24t-60 -8q-47 0 -83.5 18t-60 49.5t-32.5 73.5t-1 91t31.5 91.5t57 73.5t76 49t89.5 18zM341 413
q-41 0 -76.5 -14.5t-63 -40.5t-45.5 -61.5t-25 -76.5q-7 -40 0 -75t25.5 -61.5t49.5 -41.5t72 -15q39 0 74.5 14.5t64 40.5t47.5 61t26 76q7 42 -1 77.5t-27.5 61.5t-50.5 40.5t-70 14.5zM517 661q4 0 4 -5q-10 -66 -33.5 -101t-58.5 -35q-25 0 -38.5 17.5t-23 39t-20 39
t-29.5 17.5q-20 0 -38.5 -24t-26.5 -79q0 -5 -5 -5h-25q-4 0 -4 5q11 67 37.5 101t61.5 34q25 0 38.5 -17.5t23 -38.5t20 -38.5t28.5 -17.5q20 0 35.5 24t23.5 79q0 5 6 5h24z" />
    <glyph glyph-name="adieresis" unicode="&#xe4;" horiz-adv-x="552" 
d="M339 452q30 0 57.5 -8t50.5 -24t39.5 -41t22.5 -58l28 113q2 6 8 6h17q7 0 6 -7l-71 -426q-2 -7 -8 -7h-17q-6 0 -6 7l9 112q-18 -33 -42 -58t-52.5 -41t-58.5 -24t-60 -8q-47 0 -83.5 18t-60 49.5t-32.5 73.5t-1 91t31.5 91.5t57 73.5t76 49t89.5 18zM341 413
q-41 0 -76.5 -14.5t-63 -40.5t-45.5 -61.5t-25 -76.5q-7 -40 0 -75t25.5 -61.5t49.5 -41.5t72 -15q39 0 74.5 14.5t64 40.5t47.5 61t26 76q7 42 -1 77.5t-27.5 61.5t-50.5 40.5t-70 14.5zM288 622q14 0 21.5 -8.5t5.5 -22.5q-2 -13 -12 -21.5t-24 -8.5q-13 0 -20.5 8.5
t-5.5 21.5q2 14 11.5 22.5t23.5 8.5zM458 622q14 0 21.5 -8.5t5.5 -22.5q-2 -13 -11.5 -21.5t-23.5 -8.5q-13 0 -20.5 8.5t-5.5 21.5q2 14 11.5 22.5t22.5 8.5z" />
    <glyph glyph-name="aring" unicode="&#xe5;" horiz-adv-x="552" 
d="M339 452q30 0 57.5 -8t50.5 -24t39.5 -41t22.5 -58l28 113q2 6 8 6h17q7 0 6 -7l-71 -426q-2 -7 -8 -7h-17q-6 0 -6 7l9 112q-18 -33 -42 -58t-52.5 -41t-58.5 -24t-60 -8q-47 0 -83.5 18t-60 49.5t-32.5 73.5t-1 91t31.5 91.5t57 73.5t76 49t89.5 18zM341 413
q-41 0 -76.5 -14.5t-63 -40.5t-45.5 -61.5t-25 -76.5q-7 -40 0 -75t25.5 -61.5t49.5 -41.5t72 -15q39 0 74.5 14.5t64 40.5t47.5 61t26 76q7 42 -1 77.5t-27.5 61.5t-50.5 40.5t-70 14.5zM391 717q46 0 69.5 -28t16.5 -70t-39 -69.5t-79 -27.5q-46 0 -69 27.5t-17 69.5
q7 42 39.5 70t78.5 28zM388 691q-36 0 -58.5 -19.5t-28.5 -52.5q-5 -32 11 -52t51 -20t57.5 20t27.5 52q6 33 -9.5 52.5t-50.5 19.5z" />
    <glyph glyph-name="ae" unicode="&#xe6;" horiz-adv-x="918" 
d="M912 227q-5 -22 -18 -22h-366q-5 -37 2.5 -70t26.5 -57t48.5 -38t68.5 -14q48 0 87 23t69 58q6 6 10 1l19 -18q5 -3 1 -9q-36 -42 -83.5 -67.5t-104.5 -25.5q-67 0 -110.5 36.5t-54.5 96.5l-20 -114q-2 -7 -8 -7h-16q-8 0 -6 7l14 107q-37 -66 -93 -96t-116 -30
q-47 0 -83.5 18t-60 49t-32.5 73.5t-1 91.5t31.5 91t57 73.5t76 49.5t89.5 18q29 0 56 -7.5t49.5 -23.5t38.5 -40.5t22 -57.5l18 110q1 7 8 7h23q6 0 6 -7l-19 -111q31 60 85.5 95t123.5 35q47 0 82.5 -16t57 -45.5t27.5 -71t-5 -92.5zM872 240q9 36 5 68t-20.5 55.5
t-45.5 37t-70 13.5q-39 0 -73.5 -13.5t-61.5 -37t-45.5 -55t-26.5 -68.5h338zM341 414q-41 0 -76.5 -14.5t-63 -40.5t-45.5 -61.5t-25 -77.5t-0.5 -77.5t25 -61.5t49.5 -40.5t73 -14.5q39 0 74.5 14.5t63.5 40.5t47 61.5t26 76.5t-0.5 77t-27 62t-50 41t-70.5 15z" />
    <glyph glyph-name="ccedilla" unicode="&#xe7;" horiz-adv-x="485" 
d="M507 355q3 -4 -3 -9l-26 -14q-6 -3 -9 2q-16 37 -49 58.5t-83 21.5q-40 0 -74.5 -15t-61.5 -41.5t-45 -61.5t-25 -76q-7 -40 -0.5 -75.5t24.5 -61.5t48 -41.5t71 -15.5q48 0 86.5 22.5t67.5 60.5q5 6 10 3l22 -17q5 -5 1 -10q-37 -45 -85.5 -71t-109.5 -26
q-49 0 -86 18.5t-61 50t-32.5 74.5t-0.5 92t30.5 91t55.5 72.5t76.5 48t93.5 17.5q58 0 100.5 -25.5t64.5 -71.5zM273 7q7 0 3 -6l-24 -61q120 -3 108 -74q-5 -35 -36 -53.5t-86 -18.5q-19 0 -38.5 2t-32.5 5q-4 2 -3 8l4 18q1 5 8 4q32 -8 66 -8q42 0 61.5 13.5t22.5 33.5
q4 21 -17 34.5t-87 12.5q-7 0 -5 6l33 80q2 4 6 4h17z" />
    <glyph glyph-name="egrave" unicode="&#xe8;" horiz-adv-x="518" 
d="M514 234q-3 -17 -6 -23t-10 -6h-369q-5 -38 1.5 -70.5t25 -56.5t48.5 -38t70 -14q50 0 89.5 23t70.5 59q6 6 10 1l18 -18q5 -5 1 -10q-38 -42 -87 -67.5t-109 -25.5q-49 0 -87 18t-61.5 49.5t-32.5 73.5t-1 91t30.5 91.5t56.5 73.5t77 49t93 18q48 0 85 -16t60 -45
t30.5 -69t-3.5 -88zM473 240q8 37 3 68.5t-22 55t-46 37t-69 13.5q-39 0 -73 -13.5t-61 -36.5t-45 -55t-26 -69h339zM371 537q4 -7 -3 -7h-28q-3 0 -5 3l-63 119q-4 8 5 8h33q5 0 6 -4z" />
    <glyph glyph-name="eacute" unicode="&#xe9;" horiz-adv-x="518" 
d="M514 234q-3 -17 -6 -23t-10 -6h-369q-5 -38 1.5 -70.5t25 -56.5t48.5 -38t70 -14q50 0 89.5 23t70.5 59q6 6 10 1l18 -18q5 -5 1 -10q-38 -42 -87 -67.5t-109 -25.5q-49 0 -87 18t-61.5 49.5t-32.5 73.5t-1 91t30.5 91.5t56.5 73.5t77 49t93 18q48 0 85 -16t60 -45
t30.5 -69t-3.5 -88zM473 240q8 37 3 68.5t-22 55t-46 37t-69 13.5q-39 0 -73 -13.5t-61 -36.5t-45 -55t-26 -69h339zM435 657q2 3 7 3h35q7 0 2 -8l-98 -118q-3 -4 -8 -4h-26q-3 0 -4.5 1.5t1.5 5.5z" />
    <glyph glyph-name="ecircumflex" unicode="&#xea;" horiz-adv-x="518" 
d="M514 234q-3 -17 -6 -23t-10 -6h-369q-5 -38 1.5 -70.5t25 -56.5t48.5 -38t70 -14q50 0 89.5 23t70.5 59q6 6 10 1l18 -18q5 -5 1 -10q-38 -42 -87 -67.5t-109 -25.5q-49 0 -87 18t-61.5 49.5t-32.5 73.5t-1 91t30.5 91.5t56.5 73.5t77 49t93 18q48 0 85 -16t60 -45
t30.5 -69t-3.5 -88zM473 240q8 37 3 68.5t-22 55t-46 37t-69 13.5q-39 0 -73 -13.5t-61 -36.5t-45 -55t-26 -69h339zM477 538q5 -8 -4 -8h-27q-3 0 -5 3l-67 103l-95 -104q-2 -2 -4 -2h-32q-9 0 -2 8l110 119q3 3 9 3h27q5 0 7 -4z" />
    <glyph glyph-name="edieresis" unicode="&#xeb;" horiz-adv-x="518" 
d="M514 234q-3 -17 -6 -23t-10 -6h-369q-5 -38 1.5 -70.5t25 -56.5t48.5 -38t70 -14q50 0 89.5 23t70.5 59q6 6 10 1l18 -18q5 -5 1 -10q-38 -42 -87 -67.5t-109 -25.5q-49 0 -87 18t-61.5 49.5t-32.5 73.5t-1 91t30.5 91.5t56.5 73.5t77 49t93 18q48 0 85 -16t60 -45
t30.5 -69t-3.5 -88zM473 240q8 37 3 68.5t-22 55t-46 37t-69 13.5q-39 0 -73 -13.5t-61 -36.5t-45 -55t-26 -69h339zM285 622q14 0 21.5 -8.5t5.5 -22.5q-2 -13 -12 -21.5t-24 -8.5q-13 0 -20.5 8.5t-5.5 21.5q2 14 11.5 22.5t23.5 8.5zM455 622q14 0 21.5 -8.5t5.5 -22.5
q-2 -13 -11.5 -21.5t-23.5 -8.5q-13 0 -20.5 8.5t-5.5 21.5q2 14 11.5 22.5t22.5 8.5z" />
    <glyph glyph-name="igrave" unicode="&#xec;" horiz-adv-x="157" 
d="M167 440q6 0 6 -7l-71 -426q-2 -7 -8 -7h-30q-6 0 -6 7l71 426q1 7 8 7h30zM181 537q4 -7 -3 -7h-28q-3 0 -5 3l-63 119q-4 8 5 8h33q5 0 6 -4z" />
    <glyph glyph-name="iacute" unicode="&#xed;" horiz-adv-x="157" 
d="M167 440q6 0 6 -7l-71 -426q-2 -7 -8 -7h-30q-6 0 -6 7l71 426q1 7 8 7h30zM244 657q2 3 7 3h35q7 0 2 -8l-98 -118q-3 -4 -8 -4h-26q-3 0 -4.5 1.5t1.5 5.5z" />
    <glyph glyph-name="icircumflex" unicode="&#xee;" horiz-adv-x="157" 
d="M167 440q6 0 6 -7l-71 -426q-2 -7 -8 -7h-30q-6 0 -6 7l71 426q1 7 8 7h30zM287 538q5 -8 -4 -8h-27q-3 0 -5 3l-67 103l-95 -104q-2 -2 -4 -2h-32q-9 0 -2 8l110 119q3 3 9 3h27q5 0 7 -4z" />
    <glyph glyph-name="idieresis" unicode="&#xef;" horiz-adv-x="157" 
d="M167 440q6 0 6 -7l-71 -426q-2 -7 -8 -7h-30q-6 0 -6 7l71 426q1 7 8 7h30zM95 622q14 0 21.5 -8.5t5.5 -22.5q-2 -13 -12 -21.5t-24 -8.5q-13 0 -20.5 8.5t-5.5 21.5q2 14 11.5 22.5t23.5 8.5zM265 622q14 0 21.5 -8.5t5.5 -22.5q-2 -13 -11.5 -21.5t-23.5 -8.5
q-13 0 -20.5 8.5t-5.5 21.5q2 14 11.5 22.5t22.5 8.5z" />
    <glyph glyph-name="eth" unicode="&#xf0;" horiz-adv-x="570" 
d="M260 548q-7 -5 -9 2l-7 17q-3 5 4 10l100 58l-50 94q-6 11 7 11h35q4 0 5 -3l44 -82l88 51q6 4 8 -3l8 -17q2 -6 -4 -9l-87 -50l131 -256q19 -35 25 -78t-2 -85q-8 -49 -32 -89.5t-59.5 -69.5t-80.5 -45t-96 -16q-53 0 -94.5 17t-68.5 47.5t-38 73.5t-2 95
q8 51 32.5 92.5t59.5 71t79 45.5t92 16q35 0 66 -9t54 -26l-105 195zM355 407q-89 0 -150 -50.5t-76 -139.5q-7 -43 1 -78t30 -60t55.5 -38.5t77.5 -13.5q42 0 79 12.5t65.5 36.5t47.5 58t26 77q7 42 0.5 78t-26.5 62t-52.5 41t-77.5 15z" />
    <glyph glyph-name="ntilde" unicode="&#xf1;" horiz-adv-x="512" 
d="M154 440q8 0 6 -6l-8 -104q33 58 88.5 90t119.5 32q85 0 122 -48t22 -134l-43 -263q-2 -7 -8 -7h-30q-6 0 -6 7l44 261q11 69 -16.5 107t-97.5 38q-42 0 -77.5 -14.5t-62.5 -39t-44.5 -57.5t-23.5 -71l-37 -224q-2 -7 -8 -7h-30q-6 0 -6 7l71 426q1 7 8 7h17zM504 661
q4 0 4 -5q-10 -66 -33.5 -101t-58.5 -35q-25 0 -38.5 17.5t-23 39t-20 39t-29.5 17.5q-20 0 -38.5 -24t-26.5 -79q0 -5 -5 -5h-25q-4 0 -4 5q11 67 37.5 101t61.5 34q25 0 38.5 -17.5t23 -38.5t20 -38.5t28.5 -17.5q20 0 35.5 24t23.5 79q0 5 6 5h24z" />
    <glyph glyph-name="ograve" unicode="&#xf2;" horiz-adv-x="547" 
d="M349 452q50 0 88 -18t63 -49t34.5 -73.5t1.5 -91.5t-31 -91.5t-57.5 -73.5t-79.5 -49t-96 -18q-49 0 -87.5 18t-63.5 49t-34.5 73.5t-1.5 91.5t31.5 91.5t58 73.5t79 49t95.5 18zM345 414q-42 0 -78 -14.5t-64 -40.5t-46.5 -61.5t-25.5 -77.5q-7 -41 -1 -76.5t25 -61.5
t50 -41t73 -15q41 0 76.5 15t63.5 41t46.5 61.5t25.5 76.5q7 42 1 77.5t-24.5 61.5t-49 40.5t-72.5 14.5zM377 537q4 -7 -3 -7h-28q-3 0 -5 3l-63 119q-4 8 5 8h33q5 0 6 -4z" />
    <glyph glyph-name="oacute" unicode="&#xf3;" horiz-adv-x="547" 
d="M349 452q50 0 88 -18t63 -49t34.5 -73.5t1.5 -91.5t-31 -91.5t-57.5 -73.5t-79.5 -49t-96 -18q-49 0 -87.5 18t-63.5 49t-34.5 73.5t-1.5 91.5t31.5 91.5t58 73.5t79 49t95.5 18zM345 414q-42 0 -78 -14.5t-64 -40.5t-46.5 -61.5t-25.5 -77.5q-7 -41 -1 -76.5t25 -61.5
t50 -41t73 -15q41 0 76.5 15t63.5 41t46.5 61.5t25.5 76.5q7 42 1 77.5t-24.5 61.5t-49 40.5t-72.5 14.5zM441 657q2 3 7 3h35q7 0 2 -8l-98 -118q-3 -4 -8 -4h-26q-3 0 -4.5 1.5t1.5 5.5z" />
    <glyph glyph-name="ocircumflex" unicode="&#xf4;" horiz-adv-x="547" 
d="M349 452q50 0 88 -18t63 -49t34.5 -73.5t1.5 -91.5t-31 -91.5t-57.5 -73.5t-79.5 -49t-96 -18q-49 0 -87.5 18t-63.5 49t-34.5 73.5t-1.5 91.5t31.5 91.5t58 73.5t79 49t95.5 18zM345 414q-42 0 -78 -14.5t-64 -40.5t-46.5 -61.5t-25.5 -77.5q-7 -41 -1 -76.5t25 -61.5
t50 -41t73 -15q41 0 76.5 15t63.5 41t46.5 61.5t25.5 76.5q7 42 1 77.5t-24.5 61.5t-49 40.5t-72.5 14.5zM483 538q5 -8 -4 -8h-27q-3 0 -5 3l-67 103l-95 -104q-2 -2 -4 -2h-32q-9 0 -2 8l110 119q3 3 9 3h27q5 0 7 -4z" />
    <glyph glyph-name="otilde" unicode="&#xf5;" horiz-adv-x="547" 
d="M349 452q50 0 88 -18t63 -49t34.5 -73.5t1.5 -91.5t-31 -91.5t-57.5 -73.5t-79.5 -49t-96 -18q-49 0 -87.5 18t-63.5 49t-34.5 73.5t-1.5 91.5t31.5 91.5t58 73.5t79 49t95.5 18zM345 414q-42 0 -78 -14.5t-64 -40.5t-46.5 -61.5t-25.5 -77.5q-7 -41 -1 -76.5t25 -61.5
t50 -41t73 -15q41 0 76.5 15t63.5 41t46.5 61.5t25.5 76.5q7 42 1 77.5t-24.5 61.5t-49 40.5t-72.5 14.5zM521 661q4 0 4 -5q-10 -66 -33.5 -101t-58.5 -35q-25 0 -38.5 17.5t-23 39t-20 39t-29.5 17.5q-20 0 -38.5 -24t-26.5 -79q0 -5 -5 -5h-25q-4 0 -4 5q11 67 37.5 101
t61.5 34q25 0 38.5 -17.5t23 -38.5t20 -38.5t28.5 -17.5q20 0 35.5 24t23.5 79q0 5 6 5h24z" />
    <glyph glyph-name="odieresis" unicode="&#xf6;" horiz-adv-x="547" 
d="M349 452q50 0 88 -18t63 -49t34.5 -73.5t1.5 -91.5t-31 -91.5t-57.5 -73.5t-79.5 -49t-96 -18q-49 0 -87.5 18t-63.5 49t-34.5 73.5t-1.5 91.5t31.5 91.5t58 73.5t79 49t95.5 18zM345 414q-42 0 -78 -14.5t-64 -40.5t-46.5 -61.5t-25.5 -77.5q-7 -41 -1 -76.5t25 -61.5
t50 -41t73 -15q41 0 76.5 15t63.5 41t46.5 61.5t25.5 76.5q7 42 1 77.5t-24.5 61.5t-49 40.5t-72.5 14.5zM291 622q14 0 21.5 -8.5t5.5 -22.5q-2 -13 -12 -21.5t-24 -8.5q-13 0 -20.5 8.5t-5.5 21.5q2 14 11.5 22.5t23.5 8.5zM461 622q14 0 21.5 -8.5t5.5 -22.5
q-2 -13 -11.5 -21.5t-23.5 -8.5q-13 0 -20.5 8.5t-5.5 21.5q2 14 11.5 22.5t22.5 8.5z" />
    <glyph glyph-name="divide" unicode="&#xf7;" horiz-adv-x="600" 
d="M382 491q17 0 27 -11.5t6 -28.5q-2 -19 -15.5 -29.5t-30.5 -10.5t-27 10.5t-7 29.5q3 17 16.5 28.5t30.5 11.5zM585 294q7 0 6 -7l-4 -23q-1 -7 -8 -7h-472q-7 0 -6 7l4 23q1 7 8 7h472zM324 141q17 0 27 -11t7 -29t-16.5 -29.5t-31.5 -11.5q-17 0 -26.5 11.5t-6.5 29.5
q4 18 17 29t30 11z" />
    <glyph glyph-name="oslash" unicode="&#xf8;" horiz-adv-x="547" 
d="M549 499q6 4 10 1l15 -12q4 -4 -1 -10l-80 -85q29 -32 40 -75.5t3 -97.5q-8 -49 -32 -91.5t-59 -73.5t-79 -48.5t-94 -17.5q-38 0 -69 10.5t-54 29.5l-75 -79q-5 -6 -10 -1l-14 12q-5 4 0 11l75 78q-26 32 -37 75.5t-3 94.5q8 49 32 91.5t59 73.5t79.5 48.5t93.5 17.5
q73 0 119 -37zM343 413q-42 0 -77.5 -14.5t-63.5 -40.5t-46 -61t-25 -77q-7 -41 -1 -75.5t26 -60.5l284 298q-37 31 -97 31zM178 61q37 -34 100 -34q42 0 78 14.5t63.5 40.5t45.5 61.5t25 76.5q8 42 0 78t-28 61z" />
    <glyph glyph-name="ugrave" unicode="&#xf9;" horiz-adv-x="511" 
d="M521 440q6 0 6 -7l-71 -426q-2 -7 -8 -7h-17q-7 0 -6 7l9 104q-33 -58 -88 -90.5t-121 -32.5q-84 0 -120.5 48t-22.5 135l43 262q1 7 8 7h30q6 0 6 -7l-43 -258q-12 -69 15.5 -107.5t98.5 -38.5q42 0 77 14t62 38.5t44 57.5t23 70l37 224q1 7 9 7h29zM355 537q4 -7 -3 -7
h-28q-3 0 -5 3l-63 119q-4 8 5 8h33q5 0 6 -4z" />
    <glyph glyph-name="uacute" unicode="&#xfa;" horiz-adv-x="511" 
d="M521 440q6 0 6 -7l-71 -426q-2 -7 -8 -7h-17q-7 0 -6 7l9 104q-33 -58 -88 -90.5t-121 -32.5q-84 0 -120.5 48t-22.5 135l43 262q1 7 8 7h30q6 0 6 -7l-43 -258q-12 -69 15.5 -107.5t98.5 -38.5q42 0 77 14t62 38.5t44 57.5t23 70l37 224q1 7 9 7h29zM418 657q2 3 7 3h35
q7 0 2 -8l-98 -118q-3 -4 -8 -4h-26q-3 0 -4.5 1.5t1.5 5.5z" />
    <glyph glyph-name="ucircumflex" unicode="&#xfb;" horiz-adv-x="511" 
d="M521 440q6 0 6 -7l-71 -426q-2 -7 -8 -7h-17q-7 0 -6 7l9 104q-33 -58 -88 -90.5t-121 -32.5q-84 0 -120.5 48t-22.5 135l43 262q1 7 8 7h30q6 0 6 -7l-43 -258q-12 -69 15.5 -107.5t98.5 -38.5q42 0 77 14t62 38.5t44 57.5t23 70l37 224q1 7 9 7h29zM460 538q5 -8 -4 -8
h-27q-3 0 -5 3l-67 103l-95 -104q-2 -2 -4 -2h-32q-9 0 -2 8l110 119q3 3 9 3h27q5 0 7 -4z" />
    <glyph glyph-name="udieresis" unicode="&#xfc;" horiz-adv-x="511" 
d="M521 440q6 0 6 -7l-71 -426q-2 -7 -8 -7h-17q-7 0 -6 7l9 104q-33 -58 -88 -90.5t-121 -32.5q-84 0 -120.5 48t-22.5 135l43 262q1 7 8 7h30q6 0 6 -7l-43 -258q-12 -69 15.5 -107.5t98.5 -38.5q42 0 77 14t62 38.5t44 57.5t23 70l37 224q1 7 9 7h29zM269 622
q14 0 21.5 -8.5t5.5 -22.5q-2 -13 -12 -21.5t-24 -8.5q-13 0 -20.5 8.5t-5.5 21.5q2 14 11.5 22.5t23.5 8.5zM439 622q14 0 21.5 -8.5t5.5 -22.5q-2 -13 -11.5 -21.5t-23.5 -8.5q-13 0 -20.5 8.5t-5.5 21.5q2 14 11.5 22.5t22.5 8.5z" />
    <glyph glyph-name="yacute" unicode="&#xfd;" horiz-adv-x="463" 
d="M92 430q-3 10 8 10h28q6 0 7 -4l117 -383l217 383q1 2 3 3t4 1h35q5 0 6.5 -2.5t-1.5 -6.5l-357 -617q-3 -4 -8 -4h-34q-11 0 -4 9l111 186zM401 657q2 3 7 3h35q7 0 2 -8l-98 -118q-3 -4 -8 -4h-26q-3 0 -4.5 1.5t1.5 5.5z" />
    <glyph glyph-name="thorn" unicode="&#xfe;" horiz-adv-x="554" 
d="M364 452q47 0 84 -18t60.5 -49t32.5 -73.5t1 -91.5t-31 -91t-56.5 -73.5t-76 -49.5t-90.5 -18q-28 0 -55.5 7.5t-50 23t-39 39t-23.5 55.5l-49 -296q0 -7 -8 -7h-30q-6 0 -5 7l152 916q1 7 8 7h30q7 0 6 -7l-68 -406q18 32 42 55.5t51.5 39t57 23t57.5 7.5zM348 411
q-39 0 -74 -14t-63 -39t-47.5 -60t-26.5 -76t1 -76.5t27.5 -61.5t50.5 -40.5t71 -14.5q39 0 74 14.5t63 40.5t47 61t26 75q6 41 -0.5 75.5t-25.5 60.5t-50 40.5t-73 14.5z" />
    <glyph glyph-name="ydieresis" unicode="&#xff;" horiz-adv-x="463" 
d="M92 430q-3 10 8 10h28q6 0 7 -4l117 -383l217 383q1 2 3 3t4 1h35q5 0 6.5 -2.5t-1.5 -6.5l-357 -617q-3 -4 -8 -4h-34q-11 0 -4 9l111 186zM252 622q14 0 21.5 -8.5t5.5 -22.5q-2 -13 -12 -21.5t-24 -8.5q-13 0 -20.5 8.5t-5.5 21.5q2 14 11.5 22.5t23.5 8.5zM422 622
q14 0 21.5 -8.5t5.5 -22.5q-2 -13 -11.5 -21.5t-23.5 -8.5q-13 0 -20.5 8.5t-5.5 21.5q2 14 11.5 22.5t22.5 8.5z" />
    <glyph glyph-name="Amacron" unicode="&#x100;" horiz-adv-x="749" 
d="M497 705q5 0 6 -4l192 -692q2 -9 -8 -9h-35q-3 0 -5 5l-54 202h-363l-122 -202q-2 -5 -7 -5h-40q-9 0 -4 9l423 692q3 4 8 4h9zM584 248l-102 379l-227 -379h329zM640 801q-2 -5 -5 -5h-251q-4 0 -4 5l2 21q0 5 4 5h252q4 0 4 -5z" />
    <glyph glyph-name="amacron" unicode="&#x101;" horiz-adv-x="552" 
d="M339 452q30 0 57.5 -8t50.5 -24t39.5 -41t22.5 -58l28 113q2 6 8 6h17q7 0 6 -7l-71 -426q-2 -7 -8 -7h-17q-6 0 -6 7l9 112q-18 -33 -42 -58t-52.5 -41t-58.5 -24t-60 -8q-47 0 -83.5 18t-60 49.5t-32.5 73.5t-1 91t31.5 91.5t57 73.5t76 49t89.5 18zM341 413
q-41 0 -76.5 -14.5t-63 -40.5t-45.5 -61.5t-25 -76.5q-7 -40 0 -75t25.5 -61.5t49.5 -41.5t72 -15q39 0 74.5 14.5t64 40.5t47.5 61t26 76q7 42 -1 77.5t-27.5 61.5t-50.5 40.5t-70 14.5zM498 581q-2 -5 -5 -5h-251q-4 0 -4 5l2 21q0 5 4 5h252q4 0 4 -5z" />
    <glyph glyph-name="Abreve" unicode="&#x102;" horiz-adv-x="749" 
d="M497 705q5 0 6 -4l192 -692q2 -9 -8 -9h-35q-3 0 -5 5l-54 202h-363l-122 -202q-2 -5 -7 -5h-40q-9 0 -4 9l423 692q3 4 8 4h9zM584 248l-102 379l-227 -379h329zM387 875q0 5 5 5h24q3 0 3 -5q-3 -19 -1.5 -37t10.5 -32.5t27 -23t48 -8.5t51.5 9.5t36 24t22 32.5t9.5 35
q0 5 6 5h25q3 0 3 -5q-4 -26 -14.5 -49.5t-29.5 -41.5t-46 -28.5t-64 -10.5q-36 0 -60 10.5t-37.5 28.5t-17 41.5t-0.5 49.5z" />
    <glyph glyph-name="abreve" unicode="&#x103;" horiz-adv-x="552" 
d="M339 452q30 0 57.5 -8t50.5 -24t39.5 -41t22.5 -58l28 113q2 6 8 6h17q7 0 6 -7l-71 -426q-2 -7 -8 -7h-17q-6 0 -6 7l9 112q-18 -33 -42 -58t-52.5 -41t-58.5 -24t-60 -8q-47 0 -83.5 18t-60 49.5t-32.5 73.5t-1 91t31.5 91.5t57 73.5t76 49t89.5 18zM341 413
q-41 0 -76.5 -14.5t-63 -40.5t-45.5 -61.5t-25 -76.5q-7 -40 0 -75t25.5 -61.5t49.5 -41.5t72 -15q39 0 74.5 14.5t64 40.5t47.5 61t26 76q7 42 -1 77.5t-27.5 61.5t-50.5 40.5t-70 14.5zM246 655q0 5 5 5h24q3 0 3 -5q-3 -19 -1.5 -37t10.5 -32.5t27 -23t48 -8.5t51.5 9.5
t36 24t22 32.5t9.5 35q0 5 6 5h25q3 0 3 -5q-4 -26 -14.5 -49.5t-29.5 -41.5t-46 -28.5t-64 -10.5q-36 0 -60 10.5t-37.5 28.5t-17 41.5t-0.5 49.5z" />
    <glyph glyph-name="Aogonek" unicode="&#x104;" horiz-adv-x="703" 
d="M472 705q6 0 7 -4l166 -690q1 -5 -0.5 -11t-8.5 -11q-45 -31 -67.5 -58.5t-25.5 -58.5q-6 -58 49 -58q11 0 19 1t16 4q8 2 8 -5l2 -18q0 -6 -7 -9t-16.5 -4.5t-18.5 -2t-13 -0.5q-44 0 -63.5 22t-14.5 60q5 40 34 75.5t73 62.5h-7q-4 0 -5 5l-50 212h-321l-120 -212
q-2 -5 -7 -5h-38q-12 0 -5 9l398 692q3 4 8 4h8zM540 259l-83 365l-205 -365h288z" />
    <glyph glyph-name="aogonek" unicode="&#x105;" horiz-adv-x="467" 
d="M337 452q30 0 58 -8t51 -24t39.5 -41t22.5 -58l28 113q2 6 8 6h17q7 0 6 -7l-71 -428q-2 -7 -10 -12q-47 -29 -69 -59t-27 -62q-9 -58 49 -58q11 0 19 1t16 4q7 1 8 -5l3 -18q0 -5 -7.5 -8.5t-17 -5t-19 -2t-12.5 -0.5q-44 0 -65 22t-14 60q7 42 37.5 79t78.5 66l8 112
q-18 -33 -42 -58t-52.5 -41t-58.5 -24t-60 -8q-47 0 -84 18t-60 49.5t-32 74t0 91.5q8 50 30.5 92t56 73t76 48.5t89.5 17.5zM340 413q-41 0 -76.5 -14.5t-63 -40.5t-45.5 -61.5t-25 -76.5q-7 -40 -0.5 -75t25.5 -61.5t50 -41.5t72 -15q39 0 74.5 14.5t63.5 40.5t47.5 61
t26.5 76q7 42 -1 77.5t-27.5 61.5t-50.5 40.5t-70 14.5z" />
    <glyph glyph-name="Cacute" unicode="&#x106;" horiz-adv-x="739" 
d="M779 589q2 -7 -3 -10l-26 -16q-7 -3 -10 1q-70 106 -214 106q-66 0 -125 -23.5t-105.5 -66t-77.5 -101t-43 -129.5q-12 -70 -0.5 -129t43 -101t82 -65.5t116.5 -23.5q72 0 136.5 28.5t116.5 81.5q5 7 10 2l23 -20q5 -5 0 -11q-60 -60 -133 -92t-157 -32q-76 0 -135 27
t-96.5 75.5t-51.5 115t-1 145.5t48.5 145t88.5 114t120 75t143 27q83 0 147.5 -32t103.5 -91zM613 887q2 3 7 3h35q7 0 2 -8l-98 -118q-3 -4 -8 -4h-26q-3 0 -4.5 1.5t1.5 5.5z" />
    <glyph glyph-name="cacute" unicode="&#x107;" horiz-adv-x="485" 
d="M507 355q3 -4 -3 -9l-26 -14q-6 -3 -9 2q-16 37 -49 58.5t-83 21.5q-40 0 -74.5 -15t-61.5 -41.5t-45 -61.5t-25 -76q-7 -40 -0.5 -75.5t24.5 -61.5t48 -41.5t71 -15.5q48 0 86.5 22.5t67.5 60.5q5 6 10 3l22 -17q5 -5 1 -10q-37 -45 -85.5 -71t-109.5 -26
q-49 0 -86 18.5t-61 50t-32.5 74.5t-0.5 92t30.5 91t55.5 72.5t76.5 48t93.5 17.5q58 0 100.5 -25.5t64.5 -71.5zM434 657q2 3 7 3h35q7 0 2 -8l-98 -118q-3 -4 -8 -4h-26q-3 0 -4.5 1.5t1.5 5.5z" />
    <glyph glyph-name="Ccircumflex" unicode="&#x108;" horiz-adv-x="739" 
d="M779 589q2 -7 -3 -10l-26 -16q-7 -3 -10 1q-70 106 -214 106q-66 0 -125 -23.5t-105.5 -66t-77.5 -101t-43 -129.5q-12 -70 -0.5 -129t43 -101t82 -65.5t116.5 -23.5q72 0 136.5 28.5t116.5 81.5q5 7 10 2l23 -20q5 -5 0 -11q-60 -60 -133 -92t-157 -32q-76 0 -135 27
t-96.5 75.5t-51.5 115t-1 145.5t48.5 145t88.5 114t120 75t143 27q83 0 147.5 -32t103.5 -91zM656 768q5 -8 -4 -8h-27q-3 0 -5 3l-67 103l-95 -104q-2 -2 -4 -2h-32q-9 0 -2 8l110 119q3 3 9 3h27q5 0 7 -4z" />
    <glyph glyph-name="ccircumflex" unicode="&#x109;" horiz-adv-x="485" 
d="M507 355q3 -4 -3 -9l-26 -14q-6 -3 -9 2q-16 37 -49 58.5t-83 21.5q-40 0 -74.5 -15t-61.5 -41.5t-45 -61.5t-25 -76q-7 -40 -0.5 -75.5t24.5 -61.5t48 -41.5t71 -15.5q48 0 86.5 22.5t67.5 60.5q5 6 10 3l22 -17q5 -5 1 -10q-37 -45 -85.5 -71t-109.5 -26
q-49 0 -86 18.5t-61 50t-32.5 74.5t-0.5 92t30.5 91t55.5 72.5t76.5 48t93.5 17.5q58 0 100.5 -25.5t64.5 -71.5zM477 538q5 -8 -4 -8h-27q-3 0 -5 3l-67 103l-95 -104q-2 -2 -4 -2h-32q-9 0 -2 8l110 119q3 3 9 3h27q5 0 7 -4z" />
    <glyph glyph-name="Cdotaccent" unicode="&#x10a;" horiz-adv-x="739" 
d="M779 589q2 -7 -3 -10l-26 -16q-7 -3 -10 1q-70 106 -214 106q-66 0 -125 -23.5t-105.5 -66t-77.5 -101t-43 -129.5q-12 -70 -0.5 -129t43 -101t82 -65.5t116.5 -23.5q72 0 136.5 28.5t116.5 81.5q5 7 10 2l23 -20q5 -5 0 -11q-60 -60 -133 -92t-157 -32q-76 0 -135 27
t-96.5 75.5t-51.5 115t-1 145.5t48.5 145t88.5 114t120 75t143 27q83 0 147.5 -32t103.5 -91zM546 845q14 0 22 -8.5t6 -21.5q-2 -14 -10 -22t-22 -8q-13 0 -21.5 8t-6.5 22t10 22t22 8z" />
    <glyph glyph-name="cdotaccent" unicode="&#x10b;" horiz-adv-x="485" 
d="M507 355q3 -4 -3 -9l-26 -14q-6 -3 -9 2q-16 37 -49 58.5t-83 21.5q-40 0 -74.5 -15t-61.5 -41.5t-45 -61.5t-25 -76q-7 -40 -0.5 -75.5t24.5 -61.5t48 -41.5t71 -15.5q48 0 86.5 22.5t67.5 60.5q5 6 10 3l22 -17q5 -5 1 -10q-37 -45 -85.5 -71t-109.5 -26
q-49 0 -86 18.5t-61 50t-32.5 74.5t-0.5 92t30.5 91t55.5 72.5t76.5 48t93.5 17.5q58 0 100.5 -25.5t64.5 -71.5zM367 615q14 0 22 -8.5t6 -21.5q-2 -14 -10 -22t-22 -8q-13 0 -21.5 8t-6.5 22t10 22t22 8z" />
    <glyph glyph-name="Ccaron" unicode="&#x10c;" horiz-adv-x="739" 
d="M779 589q2 -7 -3 -10l-26 -16q-7 -3 -10 1q-70 106 -214 106q-66 0 -125 -23.5t-105.5 -66t-77.5 -101t-43 -129.5q-12 -70 -0.5 -129t43 -101t82 -65.5t116.5 -23.5q72 0 136.5 28.5t116.5 81.5q5 7 10 2l23 -20q5 -5 0 -11q-60 -60 -133 -92t-157 -32q-76 0 -135 27
t-96.5 75.5t-51.5 115t-1 145.5t48.5 145t88.5 114t120 75t143 27q83 0 147.5 -32t103.5 -91zM435 882q-6 8 3 8h27q3 0 6 -3l68 -103l93 104q2 2 5 2h31q8 0 3 -8l-111 -119q-3 -3 -8 -3h-28q-5 0 -7 4z" />
    <glyph glyph-name="ccaron" unicode="&#x10d;" horiz-adv-x="485" 
d="M507 355q3 -4 -3 -9l-26 -14q-6 -3 -9 2q-16 37 -49 58.5t-83 21.5q-40 0 -74.5 -15t-61.5 -41.5t-45 -61.5t-25 -76q-7 -40 -0.5 -75.5t24.5 -61.5t48 -41.5t71 -15.5q48 0 86.5 22.5t67.5 60.5q5 6 10 3l22 -17q5 -5 1 -10q-37 -45 -85.5 -71t-109.5 -26
q-49 0 -86 18.5t-61 50t-32.5 74.5t-0.5 92t30.5 91t55.5 72.5t76.5 48t93.5 17.5q58 0 100.5 -25.5t64.5 -71.5zM256 652q-6 8 3 8h27q3 0 6 -3l68 -103l93 104q2 2 5 2h31q8 0 3 -8l-111 -119q-3 -3 -8 -3h-28q-5 0 -7 4z" />
    <glyph glyph-name="Dcaron" unicode="&#x10e;" horiz-adv-x="752" 
d="M208 693q1 7 8 7h225q87 0 150 -26t100.5 -71.5t50.5 -108t1 -135.5q-12 -74 -45 -139.5t-86 -114t-125 -77t-161 -28.5h-227q-7 0 -5 7zM144 42h187q77 0 140 25t109.5 68.5t76 101t39.5 123.5q11 66 0.5 120.5t-42.5 94t-86 61.5t-132 22h-189zM360 872q-6 8 3 8h27
q3 0 6 -3l68 -103l93 104q2 2 5 2h31q8 0 3 -8l-111 -119q-3 -3 -8 -3h-28q-5 0 -7 4z" />
    <glyph glyph-name="dcaron" unicode="&#x10f;" horiz-adv-x="557" 
d="M339 452q29 0 56.5 -7.5t50 -23t39 -39t23.5 -55.5l67 406q1 7 9 7h28q7 0 6 -7l-121 -726q-2 -7 -8 -7h-17q-6 0 -6 7l9 112q-18 -33 -42 -58t-52.5 -41t-58.5 -24t-60 -8q-47 0 -83.5 18t-60 49.5t-32.5 73.5t-1 91t31.5 91.5t57 73.5t76 49t89.5 18zM341 413
q-41 0 -76.5 -14.5t-63 -40.5t-45.5 -61.5t-25 -76.5q-7 -40 0 -75t25.5 -61.5t49.5 -41.5t72 -15q39 0 74.5 14.5t64 40.5t47.5 61t26 76q7 42 -1 77.5t-27.5 61.5t-50.5 40.5t-70 14.5zM728 752q16 0 27 -11.5t9 -33.5q-7 -67 -63 -121q-3 -3 -6 -1l-13 11q-4 4 0 8
q20 20 30.5 41t12.5 38q-19 -2 -28 10t-7 26q2 17 12.5 25t25.5 8z" />
    <glyph glyph-name="Dcroat" unicode="&#x110;" horiz-adv-x="808" 
d="M264 693q1 7 8 7h227q88 0 150.5 -25.5t100 -71t49.5 -108t0 -135.5q-12 -74 -46 -139.5t-87.5 -114.5t-124.5 -77.5t-158 -28.5h-228q-7 0 -5 7l54 328h-79q-6 0 -6 7l4 23q2 7 8 7h79zM465 372q6 0 6 -7l-4 -23q-2 -7 -8 -7h-210l-49 -293h190q77 0 139 25t108 68
t75 101t40 124t1 120.5t-42.5 94t-86.5 61.5t-132 22h-189l-48 -286h210z" />
    <glyph glyph-name="dcroat" unicode="&#x111;" horiz-adv-x="566" 
d="M385 629q2 7 8 7h164l17 97q1 7 8 7h29q7 0 6 -7l-16 -97h64q7 0 5 -7l-3 -23q-2 -7 -9 -7h-64l-98 -592q-2 -7 -8 -7h-17q-7 0 -6 7l9 112q-17 -34 -41.5 -58.5t-52.5 -40.5t-58.5 -24t-60.5 -8q-47 0 -84 18t-60 49.5t-32 73.5t0 91q8 49 30.5 91.5t56.5 73.5t76.5 49
t89.5 18q29 0 56.5 -7.5t50 -23t38.5 -39t23 -56.5l45 273h-164q-6 0 -6 7zM340 413q-41 0 -76.5 -14.5t-63 -40.5t-45.5 -61.5t-25 -76.5q-7 -40 -0.5 -75t25.5 -61.5t50 -41.5t72 -15q39 0 74.5 14.5t63.5 40.5t47.5 61t26.5 76q7 42 -1 77.5t-27.5 61.5t-50.5 40.5
t-70 14.5z" />
    <glyph glyph-name="Emacron" unicode="&#x112;" horiz-adv-x="575" 
d="M208 693q1 7 8 7h393q6 0 6 -7l-5 -28q-2 -7 -8 -7h-355l-47 -280h318q7 0 6 -7l-5 -26q0 -7 -8 -7h-318l-49 -296h359q8 0 6 -7l-5 -28q0 -7 -8 -7h-397q-7 0 -5 7zM566 801q-2 -5 -5 -5h-251q-4 0 -4 5l2 21q0 5 4 5h252q4 0 4 -5z" />
    <glyph glyph-name="emacron" unicode="&#x113;" horiz-adv-x="518" 
d="M514 234q-3 -17 -6 -23t-10 -6h-369q-5 -38 1.5 -70.5t25 -56.5t48.5 -38t70 -14q50 0 89.5 23t70.5 59q6 6 10 1l18 -18q5 -5 1 -10q-38 -42 -87 -67.5t-109 -25.5q-49 0 -87 18t-61.5 49.5t-32.5 73.5t-1 91t30.5 91.5t56.5 73.5t77 49t93 18q48 0 85 -16t60 -45
t30.5 -69t-3.5 -88zM473 240q8 37 3 68.5t-22 55t-46 37t-69 13.5q-39 0 -73 -13.5t-61 -36.5t-45 -55t-26 -69h339zM496 581q-2 -5 -5 -5h-251q-4 0 -4 5l2 21q0 5 4 5h252q4 0 4 -5z" />
    <glyph glyph-name="Ebreve" unicode="&#x114;" horiz-adv-x="575" 
d="M208 693q1 7 8 7h393q6 0 6 -7l-5 -28q-2 -7 -8 -7h-355l-47 -280h318q7 0 6 -7l-5 -26q0 -7 -8 -7h-318l-49 -296h359q8 0 6 -7l-5 -28q0 -7 -8 -7h-397q-7 0 -5 7zM314 875q0 5 5 5h24q3 0 3 -5q-3 -19 -1.5 -37t10.5 -32.5t27 -23t48 -8.5t51.5 9.5t36 24t22 32.5
t9.5 35q0 5 6 5h25q3 0 3 -5q-4 -26 -14.5 -49.5t-29.5 -41.5t-46 -28.5t-64 -10.5q-36 0 -60 10.5t-37.5 28.5t-17 41.5t-0.5 49.5z" />
    <glyph glyph-name="ebreve" unicode="&#x115;" horiz-adv-x="518" 
d="M514 234q-3 -17 -6 -23t-10 -6h-369q-5 -38 1.5 -70.5t25 -56.5t48.5 -38t70 -14q50 0 89.5 23t70.5 59q6 6 10 1l18 -18q5 -5 1 -10q-38 -42 -87 -67.5t-109 -25.5q-49 0 -87 18t-61.5 49.5t-32.5 73.5t-1 91t30.5 91.5t56.5 73.5t77 49t93 18q48 0 85 -16t60 -45
t30.5 -69t-3.5 -88zM473 240q8 37 3 68.5t-22 55t-46 37t-69 13.5q-39 0 -73 -13.5t-61 -36.5t-45 -55t-26 -69h339zM243 655q0 5 5 5h24q3 0 3 -5q-3 -19 -1.5 -37t10.5 -32.5t27 -23t48 -8.5t51.5 9.5t36 24t22 32.5t9.5 35q0 5 6 5h25q3 0 3 -5q-4 -26 -14.5 -49.5
t-29.5 -41.5t-46 -28.5t-64 -10.5q-36 0 -60 10.5t-37.5 28.5t-17 41.5t-0.5 49.5z" />
    <glyph glyph-name="Edotaccent" unicode="&#x116;" horiz-adv-x="575" 
d="M208 693q1 7 8 7h393q6 0 6 -7l-5 -28q-2 -7 -8 -7h-355l-47 -280h318q7 0 6 -7l-5 -26q0 -7 -8 -7h-318l-49 -296h359q8 0 6 -7l-5 -28q0 -7 -8 -7h-397q-7 0 -5 7zM439 835q14 0 22 -8.5t6 -21.5q-2 -14 -10 -22t-22 -8q-13 0 -21.5 8t-6.5 22t10 22t22 8z" />
    <glyph glyph-name="edotaccent" unicode="&#x117;" horiz-adv-x="518" 
d="M514 234q-3 -17 -6 -23t-10 -6h-369q-5 -38 1.5 -70.5t25 -56.5t48.5 -38t70 -14q50 0 89.5 23t70.5 59q6 6 10 1l18 -18q5 -5 1 -10q-38 -42 -87 -67.5t-109 -25.5q-49 0 -87 18t-61.5 49.5t-32.5 73.5t-1 91t30.5 91.5t56.5 73.5t77 49t93 18q48 0 85 -16t60 -45
t30.5 -69t-3.5 -88zM473 240q8 37 3 68.5t-22 55t-46 37t-69 13.5q-39 0 -73 -13.5t-61 -36.5t-45 -55t-26 -69h339zM368 615q14 0 22 -8.5t6 -21.5q-2 -14 -10 -22t-22 -8q-13 0 -21.5 8t-6.5 22t10 22t22 8z" />
    <glyph glyph-name="Eogonek" unicode="&#x118;" horiz-adv-x="577" 
d="M208 693q0 7 8 7h393q6 0 6 -7l-5 -28q-2 -7 -8 -7h-355l-47 -280h318q6 0 6 -7l-4 -26q-1 -7 -8 -7h-318l-50 -296h359q8 0 6 -7l-5 -30q-2 -4 -3 -6.5t-6 -4.5q-47 -29 -69 -59.5t-27 -62.5q-5 -28 7.5 -43t40.5 -15q12 0 19.5 1t15.5 4q8 2 9 -5l1 -18q0 -7 -5 -8
q-22 -8 -50 -8q-44 0 -64.5 22t-13.5 60q6 40 32 75t69 63h-361q-7 0 -5 7z" />
    <glyph glyph-name="eogonek" unicode="&#x119;" horiz-adv-x="516" 
d="M513 234q-4 -17 -6.5 -23t-9.5 -6h-369q-5 -38 2.5 -70.5t26 -56.5t48 -38t68.5 -14q50 0 89.5 22.5t70.5 58.5q5 5 10 2l19 -18q4 -5 -1 -10q-12 -14 -26.5 -26t-29.5 -23q-54 -44 -78.5 -81t-30.5 -72q-5 -34 11 -49.5t44 -15.5q11 0 19 1t16 4q8 2 8 -5l2 -18
q0 -6 -7 -9t-16.5 -4.5t-18.5 -2t-13 -0.5q-45 0 -69 22.5t-16 66.5q5 31 25.5 64.5t58.5 68.5q-34 -14 -74 -14q-49 0 -87 18t-61.5 49.5t-32.5 73.5t0 91q8 49 30.5 91.5t56 73.5t77 49t93.5 18q48 0 85 -16t60 -45t30 -69t-4 -88zM472 240q8 37 3 68.5t-23 55t-47 37
t-69 13.5q-39 0 -72.5 -13.5t-60 -36.5t-44.5 -55t-25 -69h338z" />
    <glyph glyph-name="Ecaron" unicode="&#x11a;" horiz-adv-x="575" 
d="M208 693q1 7 8 7h393q6 0 6 -7l-5 -28q-2 -7 -8 -7h-355l-47 -280h318q7 0 6 -7l-5 -26q0 -7 -8 -7h-318l-49 -296h359q8 0 6 -7l-5 -28q0 -7 -8 -7h-397q-7 0 -5 7zM327 872q-6 8 3 8h27q3 0 6 -3l68 -103l93 104q2 2 5 2h31q8 0 3 -8l-111 -119q-3 -3 -8 -3h-28
q-5 0 -7 4z" />
    <glyph glyph-name="ecaron" unicode="&#x11b;" horiz-adv-x="518" 
d="M514 234q-3 -17 -6 -23t-10 -6h-369q-5 -38 1.5 -70.5t25 -56.5t48.5 -38t70 -14q50 0 89.5 23t70.5 59q6 6 10 1l18 -18q5 -5 1 -10q-38 -42 -87 -67.5t-109 -25.5q-49 0 -87 18t-61.5 49.5t-32.5 73.5t-1 91t30.5 91.5t56.5 73.5t77 49t93 18q48 0 85 -16t60 -45
t30.5 -69t-3.5 -88zM473 240q8 37 3 68.5t-22 55t-46 37t-69 13.5q-39 0 -73 -13.5t-61 -36.5t-45 -55t-26 -69h339zM256 652q-6 8 3 8h27q3 0 6 -3l68 -103l93 104q2 2 5 2h31q8 0 3 -8l-111 -119q-3 -3 -8 -3h-28q-5 0 -7 4z" />
    <glyph glyph-name="Gcircumflex" unicode="&#x11c;" horiz-adv-x="815" 
d="M471 305q-6 0 -5 6l4 27q1 7 8 7h314q8 0 8.5 -7.5t-1.5 -23.5q-13 -77 -46.5 -137.5t-82.5 -102.5t-111.5 -64t-134.5 -22q-79 0 -140 27t-100 75.5t-54 115.5t-2 146q13 78 48.5 144t88.5 114t121.5 75t147.5 27q84 0 150.5 -30.5t104.5 -91.5q2 -6 -3 -11l-27 -17
q-5 -4 -9 2q-33 54 -88.5 80t-128.5 26q-70 0 -130.5 -23.5t-107 -65.5t-77.5 -100.5t-43 -128.5q-12 -71 0 -130t44.5 -101.5t85 -66t122.5 -23.5q65 0 119.5 20t96.5 56t69.5 86.5t37.5 111.5h-279zM664 767q5 -8 -4 -8h-27q-3 0 -5 3l-67 103l-95 -104q-2 -2 -4 -2h-32
q-9 0 -2 8l110 119q3 3 9 3h27q5 0 7 -4z" />
    <glyph glyph-name="gcircumflex" unicode="&#x11d;" horiz-adv-x="504" 
d="M564 408q-2 -7 -9 -7l-113 -1q25 -20 36 -49.5t4 -70.5q-6 -35 -23.5 -63t-44 -48t-60.5 -30.5t-72 -10.5q-63 0 -103 23q-27 -14 -32 -40q-3 -19 7 -31.5t43 -17.5l152 -22q139 -19 126 -100q-11 -65 -78.5 -99t-175.5 -34q-113 0 -166.5 34.5t-45.5 94.5
q6 39 33.5 68.5t74.5 47.5q-18 19 -13 50q3 20 16.5 37t35.5 28q-47 43 -33 122q12 72 65.5 117.5t139.5 45.5q19 0 39.5 -3t38.5 -9h156q6 0 6 -7zM331 415q-69 0 -111.5 -33t-53.5 -93q-10 -67 24 -95.5t95 -28.5q60 0 103 32t53 92q10 58 -20 92t-90 34zM144 33
q-34 -11 -59 -34.5t-30 -59.5q-6 -51 39.5 -73t134.5 -22q94 0 144 27t57 65q5 29 -16 42.5t-74 21.5l-155 22q-23 3 -41 11zM474 538q5 -8 -4 -8h-27q-3 0 -5 3l-67 103l-95 -104q-2 -2 -4 -2h-32q-9 0 -2 8l110 119q3 3 9 3h27q5 0 7 -4z" />
    <glyph glyph-name="Gbreve" unicode="&#x11e;" horiz-adv-x="815" 
d="M471 305q-6 0 -5 6l4 27q1 7 8 7h314q8 0 8.5 -7.5t-1.5 -23.5q-13 -77 -46.5 -137.5t-82.5 -102.5t-111.5 -64t-134.5 -22q-79 0 -140 27t-100 75.5t-54 115.5t-2 146q13 78 48.5 144t88.5 114t121.5 75t147.5 27q84 0 150.5 -30.5t104.5 -91.5q2 -6 -3 -11l-27 -17
q-5 -4 -9 2q-33 54 -88.5 80t-128.5 26q-70 0 -130.5 -23.5t-107 -65.5t-77.5 -100.5t-43 -128.5q-12 -71 0 -130t44.5 -101.5t85 -66t122.5 -23.5q65 0 119.5 20t96.5 56t69.5 86.5t37.5 111.5h-279zM430 884q0 5 5 5h24q3 0 3 -5q-3 -19 -1.5 -37t10.5 -32.5t27 -23
t48 -8.5t51.5 9.5t36 24t22 32.5t9.5 35q0 5 6 5h25q3 0 3 -5q-4 -26 -14.5 -49.5t-29.5 -41.5t-46 -28.5t-64 -10.5q-36 0 -60 10.5t-37.5 28.5t-17 41.5t-0.5 49.5z" />
    <glyph glyph-name="gbreve" unicode="&#x11f;" horiz-adv-x="504" 
d="M564 408q-2 -7 -9 -7l-113 -1q25 -20 36 -49.5t4 -70.5q-6 -35 -23.5 -63t-44 -48t-60.5 -30.5t-72 -10.5q-63 0 -103 23q-27 -14 -32 -40q-3 -19 7 -31.5t43 -17.5l152 -22q139 -19 126 -100q-11 -65 -78.5 -99t-175.5 -34q-113 0 -166.5 34.5t-45.5 94.5
q6 39 33.5 68.5t74.5 47.5q-18 19 -13 50q3 20 16.5 37t35.5 28q-47 43 -33 122q12 72 65.5 117.5t139.5 45.5q19 0 39.5 -3t38.5 -9h156q6 0 6 -7zM331 415q-69 0 -111.5 -33t-53.5 -93q-10 -67 24 -95.5t95 -28.5q60 0 103 32t53 92q10 58 -20 92t-90 34zM144 33
q-34 -11 -59 -34.5t-30 -59.5q-6 -51 39.5 -73t134.5 -22q94 0 144 27t57 65q5 29 -16 42.5t-74 21.5l-155 22q-23 3 -41 11zM240 655q0 5 5 5h24q3 0 3 -5q-3 -19 -1.5 -37t10.5 -32.5t27 -23t48 -8.5t51.5 9.5t36 24t22 32.5t9.5 35q0 5 6 5h25q3 0 3 -5
q-4 -26 -14.5 -49.5t-29.5 -41.5t-46 -28.5t-64 -10.5q-36 0 -60 10.5t-37.5 28.5t-17 41.5t-0.5 49.5z" />
    <glyph glyph-name="Gdotaccent" unicode="&#x120;" horiz-adv-x="815" 
d="M471 305q-6 0 -5 6l4 27q1 7 8 7h314q8 0 8.5 -7.5t-1.5 -23.5q-13 -77 -46.5 -137.5t-82.5 -102.5t-111.5 -64t-134.5 -22q-79 0 -140 27t-100 75.5t-54 115.5t-2 146q13 78 48.5 144t88.5 114t121.5 75t147.5 27q84 0 150.5 -30.5t104.5 -91.5q2 -6 -3 -11l-27 -17
q-5 -4 -9 2q-33 54 -88.5 80t-128.5 26q-70 0 -130.5 -23.5t-107 -65.5t-77.5 -100.5t-43 -128.5q-12 -71 0 -130t44.5 -101.5t85 -66t122.5 -23.5q65 0 119.5 20t96.5 56t69.5 86.5t37.5 111.5h-279zM555 844q14 0 22 -8.5t6 -21.5q-2 -14 -10 -22t-22 -8q-13 0 -21.5 8
t-6.5 22t10 22t22 8z" />
    <glyph glyph-name="gdotaccent" unicode="&#x121;" horiz-adv-x="504" 
d="M564 408q-2 -7 -9 -7l-113 -1q25 -20 36 -49.5t4 -70.5q-6 -35 -23.5 -63t-44 -48t-60.5 -30.5t-72 -10.5q-63 0 -103 23q-27 -14 -32 -40q-3 -19 7 -31.5t43 -17.5l152 -22q139 -19 126 -100q-11 -65 -78.5 -99t-175.5 -34q-113 0 -166.5 34.5t-45.5 94.5
q6 39 33.5 68.5t74.5 47.5q-18 19 -13 50q3 20 16.5 37t35.5 28q-47 43 -33 122q12 72 65.5 117.5t139.5 45.5q19 0 39.5 -3t38.5 -9h156q6 0 6 -7zM331 415q-69 0 -111.5 -33t-53.5 -93q-10 -67 24 -95.5t95 -28.5q60 0 103 32t53 92q10 58 -20 92t-90 34zM144 33
q-34 -11 -59 -34.5t-30 -59.5q-6 -51 39.5 -73t134.5 -22q94 0 144 27t57 65q5 29 -16 42.5t-74 21.5l-155 22q-23 3 -41 11zM365 615q14 0 22 -8.5t6 -21.5q-2 -14 -10 -22t-22 -8q-13 0 -21.5 8t-6.5 22t10 22t22 8z" />
    <glyph glyph-name="uni0122" unicode="&#x122;" horiz-adv-x="815" 
d="M471 305q-6 0 -5 6l4 27q1 7 8 7h314q8 0 8.5 -7.5t-1.5 -23.5q-13 -77 -46.5 -137.5t-82.5 -102.5t-111.5 -64t-134.5 -22q-79 0 -140 27t-100 75.5t-54 115.5t-2 146q13 78 48.5 144t88.5 114t121.5 75t147.5 27q84 0 150.5 -30.5t104.5 -91.5q2 -6 -3 -11l-27 -17
q-5 -4 -9 2q-33 54 -88.5 80t-128.5 26q-70 0 -130.5 -23.5t-107 -65.5t-77.5 -100.5t-43 -128.5q-12 -71 0 -130t44.5 -101.5t85 -66t122.5 -23.5q65 0 119.5 20t96.5 56t69.5 86.5t37.5 111.5h-279zM410 -38q14 0 25 -10t9 -31q-4 -28 -19.5 -57t-42.5 -52q-4 -2 -6 1
l-11 10q-4 4 1 7q20 18 29.5 37.5t11.5 34.5q-16 -3 -26 6t-8 25q2 15 12.5 22t24.5 7z" />
    <glyph glyph-name="uni0123" unicode="&#x123;" horiz-adv-x="504" 
d="M564 408q-2 -7 -9 -7l-113 -1q25 -20 36 -49.5t4 -70.5q-6 -35 -23.5 -63t-44 -48t-60.5 -30.5t-72 -10.5q-63 0 -103 23q-27 -14 -32 -40q-3 -19 7 -31.5t43 -17.5l152 -22q139 -19 126 -100q-11 -65 -78.5 -99t-175.5 -34q-113 0 -166.5 34.5t-45.5 94.5
q6 39 33.5 68.5t74.5 47.5q-18 19 -13 50q3 20 16.5 37t35.5 28q-47 43 -33 122q12 72 65.5 117.5t139.5 45.5q19 0 39.5 -3t38.5 -9h156q6 0 6 -7zM331 415q-69 0 -111.5 -33t-53.5 -93q-10 -67 24 -95.5t95 -28.5q60 0 103 32t53 92q10 58 -20 92t-90 34zM144 33
q-34 -11 -59 -34.5t-30 -59.5q-6 -51 39.5 -73t134.5 -22q94 0 144 27t57 65q5 29 -16 42.5t-74 21.5l-155 22q-23 3 -41 11zM353 530q-15 0 -25 10t-8 31q3 32 19.5 62.5t43.5 54.5q4 2 6 -1l12 -11q5 -3 -1 -7q-20 -19 -30 -38.5t-12 -34.5q19 2 28 -7.5t7 -23.5
q-2 -16 -13.5 -25.5t-26.5 -9.5z" />
    <glyph glyph-name="Hcircumflex" unicode="&#x124;" horiz-adv-x="695" 
d="M713 700q6 0 6 -7l-115 -686q0 -7 -8 -7h-30q-8 0 -6 7l52 315h-421l-53 -315q-2 -7 -8 -7h-31q-7 0 -5 7l114 686q1 7 8 7h31q6 0 6 -7l-55 -329h421l55 329q1 7 8 7h31zM590 758q5 -8 -4 -8h-27q-3 0 -5 3l-67 103l-95 -104q-2 -2 -4 -2h-32q-9 0 -2 8l110 119q3 3 9 3
h27q5 0 7 -4z" />
    <glyph glyph-name="hcircumflex" unicode="&#x125;" horiz-adv-x="517" 
d="M222 740q6 0 6 -7l-67 -397q34 55 88.5 85.5t116.5 30.5q84 0 121 -48t23 -134l-44 -263q-2 -7 -8 -7h-29q-8 0 -6 7l43 261q24 145 -113 145q-42 0 -77.5 -14.5t-62.5 -39t-45 -57.5t-24 -71l-37 -224q-2 -7 -8 -7h-30q-6 0 -6 7l121 726q1 7 8 7h30zM330 778
q5 -8 -4 -8h-27q-3 0 -5 3l-67 103l-95 -104q-2 -2 -4 -2h-32q-9 0 -2 8l110 119q3 3 9 3h27q5 0 7 -4z" />
    <glyph glyph-name="Hbar" unicode="&#x126;" horiz-adv-x="760" 
d="M134 527q-8 0 -6 7l4 22q2 7 8 7h78l22 130q1 7 9 7h31q6 0 6 -7l-23 -130h422l22 130q1 7 9 7h30q6 0 6 -7l-22 -130h78q8 0 6 -7l-3 -22q-2 -7 -8 -7h-79l-87 -520q-2 -7 -8 -7h-30q-8 0 -6 7l52 315h-421l-53 -315q-2 -7 -8 -7h-31q-8 0 -6 7l87 520h-79zM652 364
l28 163h-422l-27 -163h421z" />
    <glyph glyph-name="hbar" unicode="&#x127;" horiz-adv-x="528" 
d="M106 629q2 7 8 7h65l16 97q1 7 8 7h30q6 0 5 -7l-16 -97h163q8 0 6 -7l-4 -23q0 -7 -8 -7h-163l-44 -263q33 56 87.5 86t117.5 30q84 0 121 -48t23 -134l-44 -263q-2 -7 -8 -7h-29q-7 0 -5 7l43 261q24 145 -114 145q-42 0 -77.5 -14.5t-63 -39t-45 -57.5t-23.5 -71
l-37 -224q-2 -7 -8 -7h-30q-7 0 -5 7l98 592h-65q-6 0 -6 7z" />
    <glyph glyph-name="Itilde" unicode="&#x128;" horiz-adv-x="244" 
d="M254 700q7 0 6 -7l-114 -686q-2 -7 -8 -7h-31q-8 0 -6 7l115 686q0 7 8 7h30zM405 881q4 0 4 -5q-10 -66 -33.5 -101t-58.5 -35q-25 0 -38.5 17.5t-23 39t-20 39t-29.5 17.5q-20 0 -38.5 -24t-26.5 -79q0 -5 -5 -5h-25q-4 0 -4 5q11 67 37.5 101t61.5 34q25 0 38.5 -17.5
t23 -38.5t20 -38.5t28.5 -17.5q20 0 35.5 24t23.5 79q0 5 6 5h24z" />
    <glyph glyph-name="itilde" unicode="&#x129;" horiz-adv-x="157" 
d="M167 440q6 0 6 -7l-71 -426q-2 -7 -8 -7h-30q-6 0 -6 7l71 426q1 7 8 7h30zM324 661q4 0 4 -5q-10 -66 -33.5 -101t-58.5 -35q-25 0 -38.5 17.5t-23 39t-20 39t-29.5 17.5q-20 0 -38.5 -24t-26.5 -79q0 -5 -5 -5h-25q-4 0 -4 5q11 67 37.5 101t61.5 34q25 0 38.5 -17.5
t23 -38.5t20 -38.5t28.5 -17.5q20 0 35.5 24t23.5 79q0 5 6 5h24z" />
    <glyph glyph-name="Imacron" unicode="&#x12a;" horiz-adv-x="244" 
d="M254 700q7 0 6 -7l-114 -686q-2 -7 -8 -7h-31q-8 0 -6 7l115 686q0 7 8 7h30zM386 801q-2 -5 -5 -5h-251q-4 0 -4 5l2 21q0 5 4 5h252q4 0 4 -5z" />
    <glyph glyph-name="imacron" unicode="&#x12b;" horiz-adv-x="157" 
d="M167 440q6 0 6 -7l-71 -426q-2 -7 -8 -7h-30q-6 0 -6 7l71 426q1 7 8 7h30zM305 581q-2 -5 -5 -5h-251q-4 0 -4 5l2 21q0 5 4 5h252q4 0 4 -5z" />
    <glyph glyph-name="Ibreve" unicode="&#x12c;" horiz-adv-x="244" 
d="M254 700q7 0 6 -7l-114 -686q-2 -7 -8 -7h-31q-8 0 -6 7l115 686q0 7 8 7h30zM134 875q0 5 5 5h24q3 0 3 -5q-3 -19 -1.5 -37t10.5 -32.5t27 -23t48 -8.5t51.5 9.5t36 24t22 32.5t9.5 35q0 5 6 5h25q3 0 3 -5q-4 -26 -14.5 -49.5t-29.5 -41.5t-46 -28.5t-64 -10.5
q-36 0 -60 10.5t-37.5 28.5t-17 41.5t-0.5 49.5z" />
    <glyph glyph-name="ibreve" unicode="&#x12d;" horiz-adv-x="157" 
d="M167 440q6 0 6 -7l-71 -426q-2 -7 -8 -7h-30q-6 0 -6 7l71 426q1 7 8 7h30zM53 655q0 5 5 5h24q3 0 3 -5q-3 -19 -1.5 -37t10.5 -32.5t27 -23t48 -8.5t51.5 9.5t36 24t22 32.5t9.5 35q0 5 6 5h25q3 0 3 -5q-4 -26 -14.5 -49.5t-29.5 -41.5t-46 -28.5t-64 -10.5
q-36 0 -60 10.5t-37.5 28.5t-17 41.5t-0.5 49.5z" />
    <glyph glyph-name="Iogonek" unicode="&#x12e;" horiz-adv-x="244" 
d="M254 700q7 0 6 -7l-114 -684q-1 -5 -4 -8.5t-7 -6.5q-47 -31 -71 -61t-29 -63q-5 -28 8 -43.5t41 -15.5q13 0 21.5 1.5t16.5 4.5q5 2 5 -4l3 -18q2 -6 -3 -6q-11 -5 -24 -7t-27 -2q-43 0 -63.5 22t-14.5 60q7 41 35.5 75.5t66.5 60.5l116 695q0 7 8 7h30z" />
    <glyph glyph-name="iogonek" unicode="&#x12f;" horiz-adv-x="151" 
d="M182 626q15 0 23 -10t5 -25q-2 -14 -13.5 -23.5t-26.5 -9.5t-23.5 9.5t-6.5 23.5q3 15 15 25t27 10zM165 440q7 0 6 -7l-72 -429q0 -4 -4 -6q-48 -30 -72 -61.5t-29 -64.5q-5 -28 8 -43t40 -15q12 0 19.5 1t15.5 4q8 2 8 -5l3 -18q0 -6 -7.5 -9t-17 -4.5t-18.5 -2
t-13 -0.5q-44 0 -65 22t-14 60q8 42 36 76.5t68 60.5l71 434q1 7 8 7h29z" />
    <glyph glyph-name="Idotaccent" unicode="&#x130;" horiz-adv-x="244" 
d="M254 700q7 0 6 -7l-114 -686q-2 -7 -8 -7h-31q-8 0 -6 7l115 686q0 7 8 7h30zM259 835q14 0 22 -8.5t6 -21.5q-2 -14 -10 -22t-22 -8q-13 0 -21.5 8t-6.5 22t10 22t22 8z" />
    <glyph glyph-name="dotlessi" unicode="&#x131;" horiz-adv-x="157" 
d="M167 440q6 0 6 -7l-71 -426q-2 -7 -8 -7h-30q-6 0 -6 7l71 426q1 7 8 7h30z" />
    <glyph glyph-name="IJ" unicode="&#x132;" horiz-adv-x="476" 
d="M247 700q7 0 6 -7l-98 -588q-1 -7 -8 -7h-31q-7 0 -6 7l98 588q1 7 8 7h31zM493 700q7 0 6 -7l-114 -686q-16 -95 -56.5 -141t-119.5 -46q-72 0 -100.5 42.5t-16.5 127.5q2 7 8 7h31q7 0 5 -7q-8 -61 7 -94.5t73 -33.5q31 0 51.5 9t34.5 27t22 44t14 60l115 691q1 7 9 7
h31z" />
    <glyph glyph-name="ij" unicode="&#x133;" horiz-adv-x="312" 
d="M167 440q6 0 6 -7l-71 -426q-2 -7 -8 -7h-30q-6 0 -6 7l71 426q1 7 8 7h30zM178 615q14 0 22 -8.5t6 -21.5q-2 -14 -10 -22t-22 -8q-13 0 -21.5 8t-6.5 22t10 22t22 8zM321 440q7 0 6 -7l-79 -475q-11 -67 -48.5 -106.5t-100.5 -41.5q-7 0 -6 7l5 27q0 7 8 7
q42 2 66 28.5t32 73.5l80 480q1 7 8 7h29zM332 615q14 0 22 -8.5t6 -21.5q-2 -14 -10 -22t-22 -8q-13 0 -21.5 8t-6.5 22t10 22t22 8z" />
    <glyph glyph-name="Jcircumflex" unicode="&#x134;" horiz-adv-x="227" 
d="M245 700q6 0 6 -7l-115 -686q-15 -91 -60.5 -138t-132.5 -49q-7 0 -6 7l5 28q2 7 8 7q34 0 58 10t41 29t27 46t16 60l114 686q1 7 8 7h31zM354 758q5 -8 -4 -8h-27q-3 0 -5 3l-67 103l-95 -104q-2 -2 -4 -2h-32q-9 0 -2 8l110 119q3 3 9 3h27q5 0 7 -4z" />
    <glyph glyph-name="jcircumflex" unicode="&#x135;" horiz-adv-x="155" 
d="M164 440q7 0 6 -7l-79 -475q-11 -67 -48.5 -106.5t-100.5 -41.5q-7 0 -6 7l5 27q0 7 8 7q42 2 66 28.5t32 73.5l80 480q1 7 8 7h29zM284 538q5 -8 -4 -8h-27q-3 0 -5 3l-67 103l-95 -104q-2 -2 -4 -2h-32q-9 0 -2 8l110 119q3 3 9 3h27q5 0 7 -4z" />
    <glyph glyph-name="uni0136" unicode="&#x136;" horiz-adv-x="595" 
d="M208 693q1 7 8 7h31q6 0 6 -7l-54 -320l410 325q1 2 6 2h45q19 0 2 -12l-414 -325l313 -351q10 -12 -7 -12h-39q-3 0 -6 3l-313 354l-58 -350q-2 -7 -8 -7h-31q-7 0 -5 7zM305 -38q14 0 25 -10t9 -31q-4 -28 -19.5 -57t-42.5 -52q-4 -2 -6 1l-11 10q-4 4 1 7
q20 18 29.5 37.5t11.5 34.5q-16 -3 -26 6t-8 25q2 15 12.5 22t24.5 7z" />
    <glyph glyph-name="uni0137" unicode="&#x137;" horiz-adv-x="441" 
d="M184 733q1 7 8 7h30q6 0 6 -7l-83 -493l274 197q4 3 10 3h45q5 0 5.5 -3t-5.5 -8l-283 -200l225 -220q3 -3 2 -6t-6 -3h-40q-6 0 -10 4l-220 218l-35 -215q-2 -7 -8 -7h-30q-6 0 -6 7zM229 -38q14 0 25 -10t9 -31q-4 -28 -19.5 -57t-42.5 -52q-4 -2 -6 1l-11 10q-4 4 1 7
q20 18 29.5 37.5t11.5 34.5q-16 -3 -26 6t-8 25q2 15 12.5 22t24.5 7z" />
    <glyph glyph-name="kgreenlandic" unicode="&#x138;" horiz-adv-x="439" 
d="M129 433q1 7 8 7h30q6 0 6 -7l-33 -193l274 197q4 3 10 3h45q5 0 5.5 -3t-5.5 -8l-283 -200l225 -220q3 -3 2 -6t-6 -3h-40q-6 0 -10 4l-220 218l-35 -215q-2 -7 -8 -7h-30q-6 0 -6 7z" />
    <glyph glyph-name="Lacute" unicode="&#x139;" horiz-adv-x="565" 
d="M247 700q6 0 6 -7l-109 -651h360q8 0 6 -7l-5 -28q-2 -7 -8 -7h-398q-7 0 -5 7l114 686q1 7 8 7h31zM316 877q2 3 7 3h35q7 0 2 -8l-98 -118q-3 -4 -8 -4h-26q-3 0 -4.5 1.5t1.5 5.5z" />
    <glyph glyph-name="lacute" unicode="&#x13a;" horiz-adv-x="167" 
d="M107 7q-2 -7 -8 -7h-30q-6 0 -6 7l121 726q1 7 8 7h30q6 0 6 -7zM290 897q2 3 7 3h35q7 0 2 -8l-98 -118q-3 -4 -8 -4h-26q-3 0 -4.5 1.5t1.5 5.5z" />
    <glyph glyph-name="uni013B" unicode="&#x13b;" horiz-adv-x="565" 
d="M247 700q6 0 6 -7l-109 -651h360q8 0 6 -7l-5 -28q-2 -7 -8 -7h-398q-7 0 -5 7l114 686q1 7 8 7h31zM283 -38q14 0 25 -10t9 -31q-4 -28 -19.5 -57t-42.5 -52q-4 -2 -6 1l-11 10q-4 4 1 7q20 18 29.5 37.5t11.5 34.5q-16 -3 -26 6t-8 25q2 15 12.5 22t24.5 7z" />
    <glyph glyph-name="uni013C" unicode="&#x13c;" horiz-adv-x="167" 
d="M107 7q-2 -7 -8 -7h-30q-6 0 -6 7l121 726q1 7 8 7h30q6 0 6 -7zM74 -38q14 0 25 -10t9 -31q-4 -28 -19.5 -57t-42.5 -52q-4 -2 -6 1l-11 10q-4 4 1 7q20 18 29.5 37.5t11.5 34.5q-16 -3 -26 6t-8 25q2 15 12.5 22t24.5 7z" />
    <glyph glyph-name="Lcaron" unicode="&#x13d;" horiz-adv-x="565" 
d="M247 700q6 0 6 -7l-109 -651h360q8 0 6 -7l-5 -28q-2 -7 -8 -7h-398q-7 0 -5 7l114 686q1 7 8 7h31zM486 712q16 0 27 -11.5t9 -33.5q-7 -67 -63 -121q-3 -3 -6 -1l-13 11q-4 4 0 8q20 20 30.5 41t12.5 38q-19 -2 -28 10t-7 26q2 17 12.5 25t25.5 8z" />
    <glyph glyph-name="lcaron" unicode="&#x13e;" horiz-adv-x="167" 
d="M107 7q-2 -7 -8 -7h-30q-6 0 -6 7l121 726q1 7 8 7h30q6 0 6 -7zM335 752q16 0 27 -11.5t9 -33.5q-7 -67 -63 -121q-3 -3 -6 -1l-13 11q-4 4 0 8q20 20 30.5 41t12.5 38q-19 -2 -28 10t-7 26q2 17 12.5 25t25.5 8z" />
    <glyph glyph-name="Ldot" unicode="&#x13f;" horiz-adv-x="565" 
d="M247 700q6 0 6 -7l-109 -651h360q8 0 6 -7l-5 -28q-2 -7 -8 -7h-398q-7 0 -5 7l114 686q1 7 8 7h31zM468 432q17 0 27 -10.5t8 -28.5t-15 -28.5t-30 -10.5q-16 0 -26 10.5t-8 28.5t15 28.5t29 10.5z" />
    <glyph glyph-name="ldot" unicode="&#x140;" horiz-adv-x="393" 
d="M107 7q-2 -7 -8 -7h-30q-6 0 -6 7l121 726q1 7 8 7h30q6 0 6 -7zM293 409q17 0 27 -10.5t8 -28.5t-15 -28.5t-30 -10.5q-16 0 -26 10.5t-8 28.5t15 28.5t29 10.5z" />
    <glyph glyph-name="Lslash" unicode="&#x141;" horiz-adv-x="603" 
d="M98 263q-7 -3 -9 3l-6 19q-3 7 5 9l97 42l60 357q0 7 8 7h31q5 0 5 -7l-56 -337l213 89q9 3 9 -3l5 -21q3 -5 -6 -9l-228 -94l-45 -276h360q7 0 5 -7l-4 -28q-2 -7 -8 -7h-398q-8 0 -6 7l48 290z" />
    <glyph glyph-name="lslash" unicode="&#x142;" horiz-adv-x="184" 
d="M31 278q-7 -4 -10 2l-7 17q-1 5 4 9l116 65l60 362q1 7 8 7h29q7 0 6 -7l-55 -335l97 54q6 5 8 -3l7 -16q2 -6 -4 -9l-116 -66l-58 -351q-2 -7 -8 -7h-29q-8 0 -6 7l54 325z" />
    <glyph glyph-name="Nacute" unicode="&#x143;" horiz-adv-x="705" 
d="M724 700q6 0 5 -7l-115 -691q0 -7 -8 -7h-7q-4 0 -8 5l-352 610l-101 -603q-2 -7 -8 -7h-31q-7 0 -5 7l115 691q0 7 8 7h7q5 0 7 -4l353 -611l101 603q1 7 8 7h31zM556 877q2 3 7 3h35q7 0 2 -8l-98 -118q-3 -4 -8 -4h-26q-3 0 -4.5 1.5t1.5 5.5z" />
    <glyph glyph-name="nacute" unicode="&#x144;" horiz-adv-x="512" 
d="M154 440q8 0 6 -6l-8 -104q33 58 88.5 90t119.5 32q85 0 122 -48t22 -134l-43 -263q-2 -7 -8 -7h-30q-6 0 -6 7l44 261q11 69 -16.5 107t-97.5 38q-42 0 -77.5 -14.5t-62.5 -39t-44.5 -57.5t-23.5 -71l-37 -224q-2 -7 -8 -7h-30q-6 0 -6 7l71 426q1 7 8 7h17zM425 657
q2 3 7 3h35q7 0 2 -8l-98 -118q-3 -4 -8 -4h-26q-3 0 -4.5 1.5t1.5 5.5z" />
    <glyph glyph-name="uni0145" unicode="&#x145;" horiz-adv-x="705" 
d="M724 700q6 0 5 -7l-115 -691q0 -7 -8 -7h-7q-4 0 -8 5l-352 610l-101 -603q-2 -7 -8 -7h-31q-7 0 -5 7l115 691q0 7 8 7h7q5 0 7 -4l353 -611l101 603q1 7 8 7h31zM344 -38q14 0 25 -10t9 -31q-4 -28 -19.5 -57t-42.5 -52q-4 -2 -6 1l-11 10q-4 4 1 7q20 18 29.5 37.5
t11.5 34.5q-16 -3 -26 6t-8 25q2 15 12.5 22t24.5 7z" />
    <glyph glyph-name="uni0146" unicode="&#x146;" horiz-adv-x="512" 
d="M154 440q8 0 6 -6l-8 -104q33 58 88.5 90t119.5 32q85 0 122 -48t22 -134l-43 -263q-2 -7 -8 -7h-30q-6 0 -6 7l44 261q11 69 -16.5 107t-97.5 38q-42 0 -77.5 -14.5t-62.5 -39t-44.5 -57.5t-23.5 -71l-37 -224q-2 -7 -8 -7h-30q-6 0 -6 7l71 426q1 7 8 7h17zM253 -38
q14 0 25 -10t9 -31q-4 -28 -19.5 -57t-42.5 -52q-4 -2 -6 1l-11 10q-4 4 1 7q20 18 29.5 37.5t11.5 34.5q-16 -3 -26 6t-8 25q2 15 12.5 22t24.5 7z" />
    <glyph glyph-name="Ncaron" unicode="&#x147;" horiz-adv-x="705" 
d="M724 700q6 0 5 -7l-115 -691q0 -7 -8 -7h-7q-4 0 -8 5l-352 610l-101 -603q-2 -7 -8 -7h-31q-7 0 -5 7l115 691q0 7 8 7h7q5 0 7 -4l353 -611l101 603q1 7 8 7h31zM377 872q-6 8 3 8h27q3 0 6 -3l68 -103l93 104q2 2 5 2h31q8 0 3 -8l-111 -119q-3 -3 -8 -3h-28
q-5 0 -7 4z" />
    <glyph glyph-name="ncaron" unicode="&#x148;" horiz-adv-x="512" 
d="M154 440q8 0 6 -6l-8 -104q33 58 88.5 90t119.5 32q85 0 122 -48t22 -134l-43 -263q-2 -7 -8 -7h-30q-6 0 -6 7l44 261q11 69 -16.5 107t-97.5 38q-42 0 -77.5 -14.5t-62.5 -39t-44.5 -57.5t-23.5 -71l-37 -224q-2 -7 -8 -7h-30q-6 0 -6 7l71 426q1 7 8 7h17zM246 652
q-6 8 3 8h27q3 0 6 -3l68 -103l93 104q2 2 5 2h31q8 0 3 -8l-111 -119q-3 -3 -8 -3h-28q-5 0 -7 4z" />
    <glyph glyph-name="napostrophe" unicode="&#x149;" horiz-adv-x="512" 
d="M154 440q8 0 6 -6l-8 -104q33 58 88.5 90t119.5 32q85 0 122 -48t22 -134l-43 -263q-2 -7 -8 -7h-30q-6 0 -6 7l44 261q11 69 -16.5 107t-97.5 38q-42 0 -77.5 -14.5t-62.5 -39t-44.5 -57.5t-23.5 -71l-37 -224q-2 -7 -8 -7h-30q-6 0 -6 7l71 426q1 7 8 7h17zM149 697
q16 0 27 -11.5t9 -33.5q-7 -67 -63 -121q-3 -3 -6 -1l-13 11q-4 4 0 8q20 20 30.5 41t12.5 38q-19 -2 -28 10t-7 26q2 17 12.5 25t25.5 8z" />
    <glyph glyph-name="Eng" unicode="&#x14a;" horiz-adv-x="716" 
d="M735 700q6 0 6 -7l-123 -734q-24 -149 -163 -152q-6 0 -5 7l4 27q1 7 8 7q48 2 75.5 27t36.5 79l12 71l-349 589l-100 -607q-2 -7 -8 -7h-30q-7 0 -5 7l114 691q1 7 8 7h8q4 0 8 -5l366 -613l99 606q1 7 8 7h30z" />
    <glyph glyph-name="eng" unicode="&#x14b;" horiz-adv-x="513" 
d="M129 433q1 7 8 7h17q6 0 6 -6l-9 -105q33 58 89 90.5t122 32.5q84 0 120.5 -47.5t22.5 -134.5l-52 -313q-11 -68 -47.5 -106.5t-99.5 -40.5q-6 0 -5 7l5 28q0 7 8 7q80 4 95 100l53 316q11 69 -16.5 106t-99.5 37q-42 0 -77.5 -14t-62 -38.5t-44 -57t-23.5 -70.5
l-38 -224q-2 -7 -8 -7h-29q-8 0 -6 7z" />
    <glyph glyph-name="Omacron" unicode="&#x14c;" horiz-adv-x="842" 
d="M536 712q77 0 137.5 -27.5t100 -76.5t55.5 -115t3 -143q-13 -78 -50 -144t-91 -114.5t-122.5 -76t-143.5 -27.5q-76 0 -137 27.5t-100.5 76.5t-56 115t-3.5 143q13 78 49.5 144t90.5 114.5t123 76t145 27.5zM534 670q-67 0 -127 -24t-108 -67t-80 -101.5t-44 -127.5
q-11 -69 1 -127.5t45 -101t85 -67t120 -24.5q67 0 127 24.5t108 67t80 101t44 127.5q11 69 -1.5 127.5t-45.5 101t-85 67t-119 24.5zM686 811q-2 -5 -5 -5h-251q-4 0 -4 5l2 21q0 5 4 5h252q4 0 4 -5z" />
    <glyph glyph-name="omacron" unicode="&#x14d;" horiz-adv-x="547" 
d="M349 452q50 0 88 -18t63 -49t34.5 -73.5t1.5 -91.5t-31 -91.5t-57.5 -73.5t-79.5 -49t-96 -18q-49 0 -87.5 18t-63.5 49t-34.5 73.5t-1.5 91.5t31.5 91.5t58 73.5t79 49t95.5 18zM345 414q-42 0 -78 -14.5t-64 -40.5t-46.5 -61.5t-25.5 -77.5q-7 -41 -1 -76.5t25 -61.5
t50 -41t73 -15q41 0 76.5 15t63.5 41t46.5 61.5t25.5 76.5q7 42 1 77.5t-24.5 61.5t-49 40.5t-72.5 14.5zM502 581q-2 -5 -5 -5h-251q-4 0 -4 5l2 21q0 5 4 5h252q4 0 4 -5z" />
    <glyph glyph-name="Obreve" unicode="&#x14e;" horiz-adv-x="842" 
d="M536 712q77 0 137.5 -27.5t100 -76.5t55.5 -115t3 -143q-13 -78 -50 -144t-91 -114.5t-122.5 -76t-143.5 -27.5q-76 0 -137 27.5t-100.5 76.5t-56 115t-3.5 143q13 78 49.5 144t90.5 114.5t123 76t145 27.5zM534 670q-67 0 -127 -24t-108 -67t-80 -101.5t-44 -127.5
q-11 -69 1 -127.5t45 -101t85 -67t120 -24.5q67 0 127 24.5t108 67t80 101t44 127.5q11 69 -1.5 127.5t-45.5 101t-85 67t-119 24.5zM433 885q0 5 5 5h24q3 0 3 -5q-3 -19 -1.5 -37t10.5 -32.5t27 -23t48 -8.5t51.5 9.5t36 24t22 32.5t9.5 35q0 5 6 5h25q3 0 3 -5
q-4 -26 -14.5 -49.5t-29.5 -41.5t-46 -28.5t-64 -10.5q-36 0 -60 10.5t-37.5 28.5t-17 41.5t-0.5 49.5z" />
    <glyph glyph-name="obreve" unicode="&#x14f;" horiz-adv-x="547" 
d="M349 452q50 0 88 -18t63 -49t34.5 -73.5t1.5 -91.5t-31 -91.5t-57.5 -73.5t-79.5 -49t-96 -18q-49 0 -87.5 18t-63.5 49t-34.5 73.5t-1.5 91.5t31.5 91.5t58 73.5t79 49t95.5 18zM345 414q-42 0 -78 -14.5t-64 -40.5t-46.5 -61.5t-25.5 -77.5q-7 -41 -1 -76.5t25 -61.5
t50 -41t73 -15q41 0 76.5 15t63.5 41t46.5 61.5t25.5 76.5q7 42 1 77.5t-24.5 61.5t-49 40.5t-72.5 14.5zM249 655q0 5 5 5h24q3 0 3 -5q-3 -19 -1.5 -37t10.5 -32.5t27 -23t48 -8.5t51.5 9.5t36 24t22 32.5t9.5 35q0 5 6 5h25q3 0 3 -5q-4 -26 -14.5 -49.5t-29.5 -41.5
t-46 -28.5t-64 -10.5q-36 0 -60 10.5t-37.5 28.5t-17 41.5t-0.5 49.5z" />
    <glyph glyph-name="Ohungarumlaut" unicode="&#x150;" horiz-adv-x="842" 
d="M536 712q77 0 137.5 -27.5t100 -76.5t55.5 -115t3 -143q-13 -78 -50 -144t-91 -114.5t-122.5 -76t-143.5 -27.5q-76 0 -137 27.5t-100.5 76.5t-56 115t-3.5 143q13 78 49.5 144t90.5 114.5t123 76t145 27.5zM534 670q-67 0 -127 -24t-108 -67t-80 -101.5t-44 -127.5
q-11 -69 1 -127.5t45 -101t85 -67t120 -24.5q67 0 127 24.5t108 67t80 101t44 127.5q11 69 -1.5 127.5t-45.5 101t-85 67t-119 24.5zM547 887q3 3 7 3h30q7 0 3 -7l-91 -120q-2 -3 -5 -3h-21q-7 0 -3 6zM701 887q2 3 6 3h30q9 0 3 -7l-100 -120q-2 -3 -5 -3h-21q-6 0 -2 6z
" />
    <glyph glyph-name="ohungarumlaut" unicode="&#x151;" horiz-adv-x="547" 
d="M349 452q50 0 88 -18t63 -49t34.5 -73.5t1.5 -91.5t-31 -91.5t-57.5 -73.5t-79.5 -49t-96 -18q-49 0 -87.5 18t-63.5 49t-34.5 73.5t-1.5 91.5t31.5 91.5t58 73.5t79 49t95.5 18zM345 414q-42 0 -78 -14.5t-64 -40.5t-46.5 -61.5t-25.5 -77.5q-7 -41 -1 -76.5t25 -61.5
t50 -41t73 -15q41 0 76.5 15t63.5 41t46.5 61.5t25.5 76.5q7 42 1 77.5t-24.5 61.5t-49 40.5t-72.5 14.5zM363 657q3 3 7 3h30q7 0 3 -7l-91 -120q-2 -3 -5 -3h-21q-7 0 -3 6zM517 657q2 3 6 3h30q9 0 3 -7l-100 -120q-2 -3 -5 -3h-21q-6 0 -2 6z" />
    <glyph glyph-name="OE" unicode="&#x152;" horiz-adv-x="1016" 
d="M1050 700q6 0 6 -7l-5 -28q-2 -7 -8 -7h-355l-47 -280h317q6 0 6 -7l-5 -26q-1 -7 -8 -7h-317l-49 -296h359q7 0 5 -7l-4 -28q-2 -7 -8 -7h-518q-78 0 -138 26t-98.5 72.5t-53.5 110.5t-2 141t49.5 141t90.5 110.5t122.5 72.5t146.5 26h514zM533 658q-71 0 -132 -22.5
t-107.5 -63t-77 -97t-42.5 -125.5q-11 -69 1 -125.5t45 -97t86 -63t124 -22.5h111l103 616h-111z" />
    <glyph glyph-name="oe" unicode="&#x153;" horiz-adv-x="931" 
d="M347 452q75 0 122 -42.5t54 -113.5q15 35 39 63.5t54.5 49t66 32t73.5 11.5q48 0 83.5 -16t58 -44.5t30 -68t-0.5 -87.5q-3 -22 -8 -27.5t-14 -5.5h-372q-5 -38 4 -70.5t29.5 -56t50.5 -37t68 -13.5q46 0 85.5 22.5t69.5 57.5q4 7 9 2l19 -18q8 -4 1 -9
q-36 -42 -83.5 -67.5t-105.5 -25.5q-78 0 -126.5 42.5t-55.5 114.5q-15 -36 -38.5 -65t-53 -49.5t-64 -31.5t-72.5 -11q-49 0 -87.5 18t-63 49.5t-34 73.5t-0.5 91q8 50 32 92.5t59 73.5t79 48.5t92 17.5zM887 237q14 81 -22.5 129.5t-115.5 48.5q-37 0 -72 -13.5t-62.5 -37
t-47 -56t-27.5 -71.5h347zM341 414q-39 0 -74 -14.5t-63 -40t-47.5 -61t-26.5 -78.5q-7 -41 0 -76.5t26 -61.5t49.5 -41t70.5 -15q39 0 74.5 14.5t64 40t48.5 61.5t27 78t-1 78t-28 61.5t-50.5 40t-69.5 14.5z" />
    <glyph glyph-name="Racute" unicode="&#x154;" horiz-adv-x="616" 
d="M138 7q-2 -7 -8 -7h-31q-7 0 -5 7l114 686q1 7 8 7h210q112 0 165 -54t36 -151q-17 -105 -80 -155.5t-174 -60.5l162 -268q8 -11 -7 -11h-36q-3 0 -5 3l-160 270h-144zM189 314h132q72 0 119.5 14t76.5 39t43.5 58.5t20.5 72.5q27 161 -166 161h-168zM521 877q2 3 7 3h35
q7 0 2 -8l-98 -118q-3 -4 -8 -4h-26q-3 0 -4.5 1.5t1.5 5.5z" />
    <glyph glyph-name="racute" unicode="&#x155;" horiz-adv-x="322" 
d="M129 433q1 7 8 7h17q8 0 6 -6l-9 -109q32 58 86.5 91t126.5 35q6 0 5 -7l-5 -30q0 -8 -8 -8q-47 1 -84.5 -13t-65 -39t-45 -59.5t-24.5 -75.5l-35 -212q-2 -7 -8 -7h-30q-6 0 -6 7zM344 657q2 3 7 3h35q7 0 2 -8l-98 -118q-3 -4 -8 -4h-26q-3 0 -4.5 1.5t1.5 5.5z" />
    <glyph glyph-name="uni0156" unicode="&#x156;" horiz-adv-x="616" 
d="M138 7q-2 -7 -8 -7h-31q-7 0 -5 7l114 686q1 7 8 7h210q112 0 165 -54t36 -151q-17 -105 -80 -155.5t-174 -60.5l162 -268q8 -11 -7 -11h-36q-3 0 -5 3l-160 270h-144zM189 314h132q72 0 119.5 14t76.5 39t43.5 58.5t20.5 72.5q27 161 -166 161h-168zM312 -38
q14 0 25 -10t9 -31q-4 -28 -19.5 -57t-42.5 -52q-4 -2 -6 1l-11 10q-4 4 1 7q20 18 29.5 37.5t11.5 34.5q-16 -3 -26 6t-8 25q2 15 12.5 22t24.5 7z" />
    <glyph glyph-name="uni0157" unicode="&#x157;" horiz-adv-x="322" 
d="M129 433q1 7 8 7h17q8 0 6 -6l-9 -109q32 58 86.5 91t126.5 35q6 0 5 -7l-5 -30q0 -8 -8 -8q-47 1 -84.5 -13t-65 -39t-45 -59.5t-24.5 -75.5l-35 -212q-2 -7 -8 -7h-30q-6 0 -6 7zM68 -38q14 0 25 -10t9 -31q-4 -28 -19.5 -57t-42.5 -52q-4 -2 -6 1l-11 10q-4 4 1 7
q20 18 29.5 37.5t11.5 34.5q-16 -3 -26 6t-8 25q2 15 12.5 22t24.5 7z" />
    <glyph glyph-name="Rcaron" unicode="&#x158;" horiz-adv-x="616" 
d="M138 7q-2 -7 -8 -7h-31q-7 0 -5 7l114 686q1 7 8 7h210q112 0 165 -54t36 -151q-17 -105 -80 -155.5t-174 -60.5l162 -268q8 -11 -7 -11h-36q-3 0 -5 3l-160 270h-144zM189 314h132q72 0 119.5 14t76.5 39t43.5 58.5t20.5 72.5q27 161 -166 161h-168zM342 872q-6 8 3 8
h27q3 0 6 -3l68 -103l93 104q2 2 5 2h31q8 0 3 -8l-111 -119q-3 -3 -8 -3h-28q-5 0 -7 4z" />
    <glyph glyph-name="rcaron" unicode="&#x159;" horiz-adv-x="322" 
d="M129 433q1 7 8 7h17q8 0 6 -6l-9 -109q32 58 86.5 91t126.5 35q6 0 5 -7l-5 -30q0 -8 -8 -8q-47 1 -84.5 -13t-65 -39t-45 -59.5t-24.5 -75.5l-35 -212q-2 -7 -8 -7h-30q-6 0 -6 7zM165 652q-6 8 3 8h27q3 0 6 -3l68 -103l93 104q2 2 5 2h31q8 0 3 -8l-111 -119
q-3 -3 -8 -3h-28q-5 0 -7 4z" />
    <glyph glyph-name="Sacute" unicode="&#x15a;" horiz-adv-x="586" 
d="M569 591q-7 -3 -10 1q-27 42 -71.5 60.5t-105.5 18.5q-80 0 -127.5 -35.5t-57.5 -94.5q-5 -31 1 -55.5t26 -44.5t54 -35.5t84 -29.5q111 -29 158.5 -77t33.5 -129q-15 -87 -82.5 -134.5t-171.5 -47.5q-78 0 -138.5 29.5t-94.5 85.5q-2 2 -1 4.5t3 4.5l23 21q7 5 11 -2
q27 -48 77.5 -75t120.5 -27q96 0 145.5 40.5t60.5 103.5q5 32 -1 57t-25.5 44.5t-55 35t-88.5 28.5q-212 52 -187 207q13 76 76.5 121.5t162.5 45.5q69 0 120 -21.5t85 -68.5q5 -5 -2 -10zM476 887q2 3 7 3h35q7 0 2 -8l-98 -118q-3 -4 -8 -4h-26q-3 0 -4.5 1.5t1.5 5.5z
" />
    <glyph glyph-name="sacute" unicode="&#x15b;" horiz-adv-x="447" 
d="M432 366q-5 -5 -11 -1q-23 23 -61 36.5t-76 13.5q-53 0 -90 -17.5t-43 -55.5q-3 -18 0 -33.5t17.5 -27.5t41.5 -21.5t71 -17.5q46 -8 76 -21t46.5 -29.5t21.5 -37.5t1 -46q-5 -29 -21.5 -51.5t-42 -37.5t-58 -23t-70.5 -8q-62 0 -108 17.5t-74 42.5q-4 3 -1 9l18 21
q5 6 10 1q23 -20 64 -37t98 -17q55 0 94.5 22t45.5 60q3 17 1 32t-15 27.5t-40 23t-75 18.5q-91 16 -122.5 50t-23.5 82q9 54 58 83t124 29q47 0 92 -15t72 -42q2 -2 1.5 -4.5t-2.5 -4.5zM390 657q2 3 7 3h35q7 0 2 -8l-98 -118q-3 -4 -8 -4h-26q-3 0 -4.5 1.5t1.5 5.5z" />
    <glyph glyph-name="Scircumflex" unicode="&#x15c;" horiz-adv-x="586" 
d="M569 591q-7 -3 -10 1q-27 42 -71.5 60.5t-105.5 18.5q-80 0 -127.5 -35.5t-57.5 -94.5q-5 -31 1 -55.5t26 -44.5t54 -35.5t84 -29.5q111 -29 158.5 -77t33.5 -129q-15 -87 -82.5 -134.5t-171.5 -47.5q-78 0 -138.5 29.5t-94.5 85.5q-2 2 -1 4.5t3 4.5l23 21q7 5 11 -2
q27 -48 77.5 -75t120.5 -27q96 0 145.5 40.5t60.5 103.5q5 32 -1 57t-25.5 44.5t-55 35t-88.5 28.5q-212 52 -187 207q13 76 76.5 121.5t162.5 45.5q69 0 120 -21.5t85 -68.5q5 -5 -2 -10zM518 768q5 -8 -4 -8h-27q-3 0 -5 3l-67 103l-95 -104q-2 -2 -4 -2h-32q-9 0 -2 8
l110 119q3 3 9 3h27q5 0 7 -4z" />
    <glyph glyph-name="scircumflex" unicode="&#x15d;" horiz-adv-x="447" 
d="M432 366q-5 -5 -11 -1q-23 23 -61 36.5t-76 13.5q-53 0 -90 -17.5t-43 -55.5q-3 -18 0 -33.5t17.5 -27.5t41.5 -21.5t71 -17.5q46 -8 76 -21t46.5 -29.5t21.5 -37.5t1 -46q-5 -29 -21.5 -51.5t-42 -37.5t-58 -23t-70.5 -8q-62 0 -108 17.5t-74 42.5q-4 3 -1 9l18 21
q5 6 10 1q23 -20 64 -37t98 -17q55 0 94.5 22t45.5 60q3 17 1 32t-15 27.5t-40 23t-75 18.5q-91 16 -122.5 50t-23.5 82q9 54 58 83t124 29q47 0 92 -15t72 -42q2 -2 1.5 -4.5t-2.5 -4.5zM432 538q5 -8 -4 -8h-27q-3 0 -5 3l-67 103l-95 -104q-2 -2 -4 -2h-32q-9 0 -2 8
l110 119q3 3 9 3h27q5 0 7 -4z" />
    <glyph glyph-name="Scedilla" unicode="&#x15e;" horiz-adv-x="586" 
d="M569 591q-7 -3 -10 1q-27 42 -71.5 60.5t-105.5 18.5q-80 0 -127.5 -35.5t-57.5 -94.5q-5 -31 1 -55.5t26 -44.5t54 -35.5t84 -29.5q111 -29 158.5 -77t33.5 -129q-15 -87 -82.5 -134.5t-171.5 -47.5q-78 0 -138.5 29.5t-94.5 85.5q-2 2 -1 4.5t3 4.5l23 21q7 5 11 -2
q27 -48 77.5 -75t120.5 -27q96 0 145.5 40.5t60.5 103.5q5 32 -1 57t-25.5 44.5t-55 35t-88.5 28.5q-212 52 -187 207q13 76 76.5 121.5t162.5 45.5q69 0 120 -21.5t85 -68.5q5 -5 -2 -10zM302 7q7 0 3 -6l-24 -61q120 -3 108 -74q-5 -35 -36 -53.5t-86 -18.5q-19 0 -38.5 2
t-32.5 5q-4 2 -3 8l4 18q1 5 8 4q32 -8 66 -8q42 0 61.5 13.5t22.5 33.5q4 21 -17 34.5t-87 12.5q-7 0 -5 6l33 80q2 4 6 4h17z" />
    <glyph glyph-name="scedilla" unicode="&#x15f;" horiz-adv-x="447" 
d="M432 366q-5 -5 -11 -1q-23 23 -61 36.5t-76 13.5q-53 0 -90 -17.5t-43 -55.5q-3 -18 0 -33.5t17.5 -27.5t41.5 -21.5t71 -17.5q46 -8 76 -21t46.5 -29.5t21.5 -37.5t1 -46q-5 -29 -21.5 -51.5t-42 -37.5t-58 -23t-70.5 -8q-62 0 -108 17.5t-74 42.5q-4 3 -1 9l18 21
q5 6 10 1q23 -20 64 -37t98 -17q55 0 94.5 22t45.5 60q3 17 1 32t-15 27.5t-40 23t-75 18.5q-91 16 -122.5 50t-23.5 82q9 54 58 83t124 29q47 0 92 -15t72 -42q2 -2 1.5 -4.5t-2.5 -4.5zM237 7q7 0 3 -6l-24 -61q120 -3 108 -74q-5 -35 -36 -53.5t-86 -18.5q-19 0 -38.5 2
t-32.5 5q-4 2 -3 8l4 18q1 5 8 4q32 -8 66 -8q42 0 61.5 13.5t22.5 33.5q4 21 -17 34.5t-87 12.5q-7 0 -5 6l33 80q2 4 6 4h17z" />
    <glyph glyph-name="Scaron" unicode="&#x160;" horiz-adv-x="586" 
d="M569 591q-7 -3 -10 1q-27 42 -71.5 60.5t-105.5 18.5q-80 0 -127.5 -35.5t-57.5 -94.5q-5 -31 1 -55.5t26 -44.5t54 -35.5t84 -29.5q111 -29 158.5 -77t33.5 -129q-15 -87 -82.5 -134.5t-171.5 -47.5q-78 0 -138.5 29.5t-94.5 85.5q-2 2 -1 4.5t3 4.5l23 21q7 5 11 -2
q27 -48 77.5 -75t120.5 -27q96 0 145.5 40.5t60.5 103.5q5 32 -1 57t-25.5 44.5t-55 35t-88.5 28.5q-212 52 -187 207q13 76 76.5 121.5t162.5 45.5q69 0 120 -21.5t85 -68.5q5 -5 -2 -10zM297 882q-6 8 3 8h27q3 0 6 -3l68 -103l93 104q2 2 5 2h31q8 0 3 -8l-111 -119
q-3 -3 -8 -3h-28q-5 0 -7 4z" />
    <glyph glyph-name="scaron" unicode="&#x161;" horiz-adv-x="447" 
d="M432 366q-5 -5 -11 -1q-23 23 -61 36.5t-76 13.5q-53 0 -90 -17.5t-43 -55.5q-3 -18 0 -33.5t17.5 -27.5t41.5 -21.5t71 -17.5q46 -8 76 -21t46.5 -29.5t21.5 -37.5t1 -46q-5 -29 -21.5 -51.5t-42 -37.5t-58 -23t-70.5 -8q-62 0 -108 17.5t-74 42.5q-4 3 -1 9l18 21
q5 6 10 1q23 -20 64 -37t98 -17q55 0 94.5 22t45.5 60q3 17 1 32t-15 27.5t-40 23t-75 18.5q-91 16 -122.5 50t-23.5 82q9 54 58 83t124 29q47 0 92 -15t72 -42q2 -2 1.5 -4.5t-2.5 -4.5zM211 652q-6 8 3 8h27q3 0 6 -3l68 -103l93 104q2 2 5 2h31q8 0 3 -8l-111 -119
q-3 -3 -8 -3h-28q-5 0 -7 4z" />
    <glyph glyph-name="uni0162" unicode="&#x162;" horiz-adv-x="583" 
d="M162 693q1 7 8 7h477q6 0 6 -7l-5 -28q-2 -7 -8 -7h-216l-109 -651q0 -7 -8 -7h-31q-7 0 -5 7l108 651h-216q-8 0 -6 7zM302 7q7 0 3 -6l-24 -61q120 -3 108 -74q-5 -35 -36 -53.5t-86 -18.5q-19 0 -38.5 2t-32.5 5q-4 2 -3 8l4 18q1 5 8 4q32 -8 66 -8q42 0 61.5 13.5
t22.5 33.5q4 21 -17 34.5t-87 12.5q-7 0 -5 6l33 80q2 4 6 4h17z" />
    <glyph glyph-name="uni0163" unicode="&#x163;" horiz-adv-x="335" 
d="M229 547q8 0 6 -7l-16 -100h137q6 0 5 -7l-4 -25q0 -7 -8 -7h-137l-46 -277q-7 -43 2.5 -69.5t51.5 -26.5q14 0 34 5.5t40 14.5q9 4 9 -4l6 -24q2 -7 -4 -9q-21 -10 -46.5 -16.5t-46.5 -6.5q-59 0 -79.5 35.5t-10.5 94.5l47 283h-73q-8 0 -6 7l4 25q1 7 8 7h75l36 101
q3 6 8 6h8zM170 12q7 0 3 -6l-24 -61q120 -3 108 -74q-5 -35 -36 -53.5t-86 -18.5q-19 0 -38.5 2t-32.5 5q-4 2 -3 8l4 18q1 5 8 4q32 -8 66 -8q42 0 61.5 13.5t22.5 33.5q4 21 -17 34.5t-87 12.5q-7 0 -5 6l33 80q2 4 6 4h17z" />
    <glyph glyph-name="Tcaron" unicode="&#x164;" horiz-adv-x="583" 
d="M162 693q1 7 8 7h477q6 0 6 -7l-5 -28q-2 -7 -8 -7h-216l-109 -651q0 -7 -8 -7h-31q-7 0 -5 7l108 651h-216q-8 0 -6 7zM316 872q-6 8 3 8h27q3 0 6 -3l68 -103l93 104q2 2 5 2h31q8 0 3 -8l-111 -119q-3 -3 -8 -3h-28q-5 0 -7 4z" />
    <glyph glyph-name="tcaron" unicode="&#x165;" horiz-adv-x="335" 
d="M229 547q8 0 6 -7l-16 -100h137q6 0 5 -7l-4 -25q0 -7 -8 -7h-137l-46 -277q-7 -43 2.5 -69.5t51.5 -26.5q14 0 34 5.5t40 14.5q9 4 9 -4l6 -24q2 -7 -4 -9q-21 -10 -46.5 -16.5t-46.5 -6.5q-59 0 -79.5 35.5t-10.5 94.5l47 283h-73q-8 0 -6 7l4 25q1 7 8 7h75l36 101
q3 6 8 6h8zM377 752q16 0 27 -11.5t9 -33.5q-7 -67 -63 -121q-3 -3 -6 -1l-13 11q-4 4 0 8q20 20 30.5 41t12.5 38q-19 -2 -28 10t-7 26q2 17 12.5 25t25.5 8z" />
    <glyph glyph-name="Tbar" unicode="&#x166;" horiz-adv-x="583" 
d="M162 693q0 7 8 7h477q6 0 6 -7l-5 -28q-2 -7 -8 -7h-216l-51 -302h151q8 0 6 -7l-3 -23q-2 -7 -9 -7h-150l-53 -312q-2 -7 -8 -7h-31q-7 0 -5 7l52 312h-151q-8 0 -6 7l3 23q2 7 8 7h151l51 302h-216q-7 0 -5 7z" />
    <glyph glyph-name="tbar" unicode="&#x167;" horiz-adv-x="335" 
d="M80 256q2 7 8 7h58l23 138h-74q-7 0 -5 7l4 25q1 7 8 7h74l37 101q3 6 8 6h8q8 0 6 -7l-17 -100h137q7 0 6 -7l-4 -25q-2 -7 -8 -7h-137l-23 -138h134q8 0 6 -7l-4 -23q-2 -7 -8 -7h-134l-17 -102q-7 -43 2.5 -69.5t51.5 -26.5q14 0 34 5.5t40 14.5q7 3 10 -4l6 -24
q2 -6 -6 -9q-20 -9 -45.5 -16t-46.5 -7q-59 0 -79.5 35.5t-10.5 94.5l18 108h-58q-8 0 -6 7z" />
    <glyph glyph-name="Utilde" unicode="&#x168;" horiz-adv-x="677" 
d="M699 700q6 0 6 -7l-74 -440q-10 -62 -35 -111t-62 -83.5t-85.5 -52.5t-106.5 -18t-102 18t-71.5 52.5t-37.5 83.5t0 111l73 440q1 7 8 7h31q6 0 6 -7l-73 -434q-18 -109 25 -169t142 -60q100 0 163.5 60t81.5 169l72 434q1 7 8 7h31zM617 881q4 0 4 -5
q-10 -66 -33.5 -101t-58.5 -35q-25 0 -38.5 17.5t-23 39t-20 39t-29.5 17.5q-20 0 -38.5 -24t-26.5 -79q0 -5 -5 -5h-25q-4 0 -4 5q11 67 37.5 101t61.5 34q25 0 38.5 -17.5t23 -38.5t20 -38.5t28.5 -17.5q20 0 35.5 24t23.5 79q0 5 6 5h24z" />
    <glyph glyph-name="utilde" unicode="&#x169;" horiz-adv-x="511" 
d="M521 440q6 0 6 -7l-71 -426q-2 -7 -8 -7h-17q-7 0 -6 7l9 104q-33 -58 -88 -90.5t-121 -32.5q-84 0 -120.5 48t-22.5 135l43 262q1 7 8 7h30q6 0 6 -7l-43 -258q-12 -69 15.5 -107.5t98.5 -38.5q42 0 77 14t62 38.5t44 57.5t23 70l37 224q1 7 9 7h29zM498 661q4 0 4 -5
q-10 -66 -33.5 -101t-58.5 -35q-25 0 -38.5 17.5t-23 39t-20 39t-29.5 17.5q-20 0 -38.5 -24t-26.5 -79q0 -5 -5 -5h-25q-4 0 -4 5q11 67 37.5 101t61.5 34q25 0 38.5 -17.5t23 -38.5t20 -38.5t28.5 -17.5q20 0 35.5 24t23.5 79q0 5 6 5h24z" />
    <glyph glyph-name="Umacron" unicode="&#x16a;" horiz-adv-x="677" 
d="M699 700q6 0 6 -7l-74 -440q-10 -62 -35 -111t-62 -83.5t-85.5 -52.5t-106.5 -18t-102 18t-71.5 52.5t-37.5 83.5t0 111l73 440q1 7 8 7h31q6 0 6 -7l-73 -434q-18 -109 25 -169t142 -60q100 0 163.5 60t81.5 169l72 434q1 7 8 7h31zM598 801q-2 -5 -5 -5h-251q-4 0 -4 5
l2 21q0 5 4 5h252q4 0 4 -5z" />
    <glyph glyph-name="umacron" unicode="&#x16b;" horiz-adv-x="511" 
d="M521 440q6 0 6 -7l-71 -426q-2 -7 -8 -7h-17q-7 0 -6 7l9 104q-33 -58 -88 -90.5t-121 -32.5q-84 0 -120.5 48t-22.5 135l43 262q1 7 8 7h30q6 0 6 -7l-43 -258q-12 -69 15.5 -107.5t98.5 -38.5q42 0 77 14t62 38.5t44 57.5t23 70l37 224q1 7 9 7h29zM479 581
q-2 -5 -5 -5h-251q-4 0 -4 5l2 21q0 5 4 5h252q4 0 4 -5z" />
    <glyph glyph-name="Ubreve" unicode="&#x16c;" horiz-adv-x="677" 
d="M699 700q6 0 6 -7l-74 -440q-10 -62 -35 -111t-62 -83.5t-85.5 -52.5t-106.5 -18t-102 18t-71.5 52.5t-37.5 83.5t0 111l73 440q1 7 8 7h31q6 0 6 -7l-73 -434q-18 -109 25 -169t142 -60q100 0 163.5 60t81.5 169l72 434q1 7 8 7h31zM345 875q0 5 5 5h24q3 0 3 -5
q-3 -19 -1.5 -37t10.5 -32.5t27 -23t48 -8.5t51.5 9.5t36 24t22 32.5t9.5 35q0 5 6 5h25q3 0 3 -5q-4 -26 -14.5 -49.5t-29.5 -41.5t-46 -28.5t-64 -10.5q-36 0 -60 10.5t-37.5 28.5t-17 41.5t-0.5 49.5z" />
    <glyph glyph-name="ubreve" unicode="&#x16d;" horiz-adv-x="511" 
d="M521 440q6 0 6 -7l-71 -426q-2 -7 -8 -7h-17q-7 0 -6 7l9 104q-33 -58 -88 -90.5t-121 -32.5q-84 0 -120.5 48t-22.5 135l43 262q1 7 8 7h30q6 0 6 -7l-43 -258q-12 -69 15.5 -107.5t98.5 -38.5q42 0 77 14t62 38.5t44 57.5t23 70l37 224q1 7 9 7h29zM226 655q0 5 5 5h24
q3 0 3 -5q-3 -19 -1.5 -37t10.5 -32.5t27 -23t48 -8.5t51.5 9.5t36 24t22 32.5t9.5 35q0 5 6 5h25q3 0 3 -5q-4 -26 -14.5 -49.5t-29.5 -41.5t-46 -28.5t-64 -10.5q-36 0 -60 10.5t-37.5 28.5t-17 41.5t-0.5 49.5z" />
    <glyph glyph-name="Uring" unicode="&#x16e;" horiz-adv-x="677" 
d="M699 700q6 0 6 -7l-74 -440q-10 -62 -35 -111t-62 -83.5t-85.5 -52.5t-106.5 -18t-102 18t-71.5 52.5t-37.5 83.5t0 111l73 440q1 7 8 7h31q6 0 6 -7l-73 -434q-18 -109 25 -169t142 -60q100 0 163.5 60t81.5 169l72 434q1 7 8 7h31zM490 937q46 0 69.5 -28t16.5 -70
t-39 -69.5t-79 -27.5q-46 0 -69 27.5t-17 69.5q7 42 39.5 70t78.5 28zM487 911q-36 0 -58.5 -19.5t-28.5 -52.5q-5 -32 11 -52t51 -20t57.5 20t27.5 52q6 33 -9.5 52.5t-50.5 19.5z" />
    <glyph glyph-name="uring" unicode="&#x16f;" horiz-adv-x="511" 
d="M521 440q6 0 6 -7l-71 -426q-2 -7 -8 -7h-17q-7 0 -6 7l9 104q-33 -58 -88 -90.5t-121 -32.5q-84 0 -120.5 48t-22.5 135l43 262q1 7 8 7h30q6 0 6 -7l-43 -258q-12 -69 15.5 -107.5t98.5 -38.5q42 0 77 14t62 38.5t44 57.5t23 70l37 224q1 7 9 7h29zM371 717
q46 0 69.5 -28t16.5 -70t-39 -69.5t-79 -27.5q-46 0 -69 27.5t-17 69.5q7 42 39.5 70t78.5 28zM368 691q-36 0 -58.5 -19.5t-28.5 -52.5q-5 -32 11 -52t51 -20t57.5 20t27.5 52q6 33 -9.5 52.5t-50.5 19.5z" />
    <glyph glyph-name="Uhungarumlaut" unicode="&#x170;" horiz-adv-x="677" 
d="M699 700q6 0 6 -7l-74 -440q-10 -62 -35 -111t-62 -83.5t-85.5 -52.5t-106.5 -18t-102 18t-71.5 52.5t-37.5 83.5t0 111l73 440q1 7 8 7h31q6 0 6 -7l-73 -434q-18 -109 25 -169t142 -60q100 0 163.5 60t81.5 169l72 434q1 7 8 7h31zM459 877q3 3 7 3h30q7 0 3 -7
l-91 -120q-2 -3 -5 -3h-21q-7 0 -3 6zM613 877q2 3 6 3h30q9 0 3 -7l-100 -120q-2 -3 -5 -3h-21q-6 0 -2 6z" />
    <glyph glyph-name="uhungarumlaut" unicode="&#x171;" horiz-adv-x="511" 
d="M521 440q6 0 6 -7l-71 -426q-2 -7 -8 -7h-17q-7 0 -6 7l9 104q-33 -58 -88 -90.5t-121 -32.5q-84 0 -120.5 48t-22.5 135l43 262q1 7 8 7h30q6 0 6 -7l-43 -258q-12 -69 15.5 -107.5t98.5 -38.5q42 0 77 14t62 38.5t44 57.5t23 70l37 224q1 7 9 7h29zM341 657q3 3 7 3h30
q7 0 3 -7l-91 -120q-2 -3 -5 -3h-21q-7 0 -3 6zM495 657q2 3 6 3h30q9 0 3 -7l-100 -120q-2 -3 -5 -3h-21q-6 0 -2 6z" />
    <glyph glyph-name="Uogonek" unicode="&#x172;" horiz-adv-x="677" 
d="M700 700q7 0 6 -7l-74 -440q-19 -109 -85 -178t-169 -84q-42 -27 -65 -57.5t-28 -62.5q-8 -57 50 -57q12 0 19.5 1t15.5 4q8 2 8 -5l2 -18q0 -6 -7 -9t-16.5 -4.5t-18.5 -2t-13 -0.5q-44 0 -64.5 22.5t-14.5 60.5q6 34 28 66.5t59 58.5q-115 2 -168.5 72.5t-33.5 192.5
l73 440q1 7 8 7h31q7 0 6 -7l-73 -438q-19 -110 23.5 -167.5t142.5 -57.5q99 0 163.5 59t82.5 170l73 434q1 7 8 7h31z" />
    <glyph glyph-name="uogonek" unicode="&#x173;" horiz-adv-x="508" 
d="M520 440q7 0 6 -7l-71 -425q-1 -3 -3.5 -7t-7.5 -7q-47 -29 -68.5 -59.5t-26.5 -62.5q-5 -28 7.5 -43t41.5 -15q21 0 35 5q8 2 8 -5l2 -18q0 -7 -6 -8q-22 -8 -49 -8q-45 0 -65.5 22t-13.5 60q7 42 38 80t78 65l8 104q-33 -58 -88 -90.5t-121 -32.5q-84 0 -121 48
t-23 135l44 262q1 7 8 7h30q6 0 5 -7l-42 -258q-12 -69 15.5 -107.5t98.5 -38.5q42 0 77 14t61.5 38.5t44 57.5t23.5 70l37 224q1 7 8 7h30z" />
    <glyph glyph-name="Wcircumflex" unicode="&#x174;" horiz-adv-x="1062" 
d="M1115 700q9 0 4 -9l-343 -691q-1 -5 -7 -5h-9q-4 0 -5 4l-124 594l-324 -594q-3 -4 -7 -4h-10q-5 0 -5 5l-111 691q-1 9 7 9h32q5 0 6 -5l93 -605l320 587q3 5 8 5h5q5 0 6 -4l124 -589l299 606q1 5 7 5h34zM777 758q5 -8 -4 -8h-27q-3 0 -5 3l-67 103l-95 -104
q-2 -2 -4 -2h-32q-9 0 -2 8l110 119q3 3 9 3h27q5 0 7 -4z" />
    <glyph glyph-name="wcircumflex" unicode="&#x175;" horiz-adv-x="766" 
d="M813 440q5 0 6.5 -2.5t-1.5 -6.5l-251 -431q-3 -4 -8 -4h-10q-5 0 -6 4l-98 367l-222 -367q-3 -4 -7 -4h-11q-5 0 -6 4l-108 431q-2 9 8 9h32q4 0 6 -4l87 -363l219 363q3 4 8 4h10q5 0 6 -4l97 -363l207 363q4 4 8 4h34zM591 538q5 -8 -4 -8h-27q-3 0 -5 3l-67 103
l-95 -104q-2 -2 -4 -2h-32q-9 0 -2 8l110 119q3 3 9 3h27q5 0 7 -4z" />
    <glyph glyph-name="Ycircumflex" unicode="&#x176;" horiz-adv-x="653" 
d="M717 700q11 0 4 -10l-324 -403l-47 -280q0 -7 -8 -7h-31q-7 0 -5 7l46 280l-190 403q-5 10 7 10h34q4 0 5 -3l171 -368l292 368q2 3 6 3h40zM561 758q5 -8 -4 -8h-27q-3 0 -5 3l-67 103l-95 -104q-2 -2 -4 -2h-32q-9 0 -2 8l110 119q3 3 9 3h27q5 0 7 -4z" />
    <glyph glyph-name="ycircumflex" unicode="&#x177;" horiz-adv-x="463" 
d="M92 430q-3 10 8 10h28q6 0 7 -4l117 -383l217 383q1 2 3 3t4 1h35q5 0 6.5 -2.5t-1.5 -6.5l-357 -617q-3 -4 -8 -4h-34q-11 0 -4 9l111 186zM444 538q5 -8 -4 -8h-27q-3 0 -5 3l-67 103l-95 -104q-2 -2 -4 -2h-32q-9 0 -2 8l110 119q3 3 9 3h27q5 0 7 -4z" />
    <glyph glyph-name="Ydieresis" unicode="&#x178;" horiz-adv-x="653" 
d="M717 700q11 0 4 -10l-324 -403l-47 -280q0 -7 -8 -7h-31q-7 0 -5 7l46 280l-190 403q-5 10 7 10h34q4 0 5 -3l171 -368l292 368q2 3 6 3h40zM369 842q14 0 21.5 -8.5t5.5 -22.5q-2 -13 -12 -21.5t-24 -8.5q-13 0 -20.5 8.5t-5.5 21.5q2 14 11.5 22.5t23.5 8.5zM539 842
q14 0 21.5 -8.5t5.5 -22.5q-2 -13 -11.5 -21.5t-23.5 -8.5q-13 0 -20.5 8.5t-5.5 21.5q2 14 11.5 22.5t22.5 8.5z" />
    <glyph glyph-name="Zacute" unicode="&#x179;" horiz-adv-x="649" 
d="M198 658q-8 0 -6 7l5 28q0 7 8 7h474q8 0 6 -6l-1 -10q-1 -6 -6 -12l-539 -631l439 1q6 0 6 -7l-5 -28q-2 -7 -8 -7h-492q-7 0 -5 7l2 15l2 6t6 8l531 622h-417zM526 877q2 3 7 3h35q7 0 2 -8l-98 -118q-3 -4 -8 -4h-26q-3 0 -4.5 1.5t1.5 5.5z" />
    <glyph glyph-name="zacute" unicode="&#x17a;" horiz-adv-x="447" 
d="M120 402q-6 0 -6 7l4 24q1 7 8 7h343q6 0 6 -7l-2 -11q-1 -4 -7 -10l-356 -374h300q8 0 6 -7l-4 -24q-2 -7 -8 -7h-360q-6 0 -6 7l2 11q1 3 3 5.5t4 5.5l355 373h-282zM400 657q2 3 7 3h35q7 0 2 -8l-98 -118q-3 -4 -8 -4h-26q-3 0 -4.5 1.5t1.5 5.5z" />
    <glyph glyph-name="Zdotaccent" unicode="&#x17b;" horiz-adv-x="649" 
d="M198 658q-8 0 -6 7l5 28q0 7 8 7h474q8 0 6 -6l-1 -10q-1 -6 -6 -12l-539 -631l439 1q6 0 6 -7l-5 -28q-2 -7 -8 -7h-492q-7 0 -5 7l2 15l2 6t6 8l531 622h-417zM459 835q14 0 22 -8.5t6 -21.5q-2 -14 -10 -22t-22 -8q-13 0 -21.5 8t-6.5 22t10 22t22 8z" />
    <glyph glyph-name="zdotaccent" unicode="&#x17c;" horiz-adv-x="447" 
d="M120 402q-6 0 -6 7l4 24q1 7 8 7h343q6 0 6 -7l-2 -11q-1 -4 -7 -10l-356 -374h300q8 0 6 -7l-4 -24q-2 -7 -8 -7h-360q-6 0 -6 7l2 11q1 3 3 5.5t4 5.5l355 373h-282zM333 615q14 0 22 -8.5t6 -21.5q-2 -14 -10 -22t-22 -8q-13 0 -21.5 8t-6.5 22t10 22t22 8z" />
    <glyph glyph-name="Zcaron" unicode="&#x17d;" horiz-adv-x="649" 
d="M198 658q-8 0 -6 7l5 28q0 7 8 7h474q8 0 6 -6l-1 -10q-1 -6 -6 -12l-539 -631l439 1q6 0 6 -7l-5 -28q-2 -7 -8 -7h-492q-7 0 -5 7l2 15l2 6t6 8l531 622h-417zM347 872q-6 8 3 8h27q3 0 6 -3l68 -103l93 104q2 2 5 2h31q8 0 3 -8l-111 -119q-3 -3 -8 -3h-28q-5 0 -7 4z
" />
    <glyph glyph-name="zcaron" unicode="&#x17e;" horiz-adv-x="447" 
d="M120 402q-6 0 -6 7l4 24q1 7 8 7h343q6 0 6 -7l-2 -11q-1 -4 -7 -10l-356 -374h300q8 0 6 -7l-4 -24q-2 -7 -8 -7h-360q-6 0 -6 7l2 11q1 3 3 5.5t4 5.5l355 373h-282zM221 652q-6 8 3 8h27q3 0 6 -3l68 -103l93 104q2 2 5 2h31q8 0 3 -8l-111 -119q-3 -3 -8 -3h-28
q-5 0 -7 4z" />
    <glyph glyph-name="florin" unicode="&#x192;" horiz-adv-x="496" 
d="M43 125q0 7 7 8l25 7q7 1 7 -6q2 -57 22 -82.5t60 -25.5q41 0 67.5 26.5t37.5 90.5l44 262h-128q-7 0 -5 7l4 23q2 6 7 6h128l19 118q14 81 57.5 116t103.5 35q4 0 16.5 -1t26 -3t24 -6t10.5 -9l-5 -26q-1 -7 -9 -5q-31 12 -69 12q-45 0 -72.5 -25t-38.5 -92l-19 -114
h165q8 0 6 -6l-4 -23q-2 -7 -8 -7h-165l-44 -262q-13 -81 -54.5 -118t-98.5 -37t-86.5 34t-30.5 103z" />
    <glyph glyph-name="AEacute" unicode="&#x1fc;" horiz-adv-x="959" 
d="M995 665q-2 -7 -8 -7h-456l37 -280h330q6 0 5 -7l-4 -26q-1 -7 -8 -7h-318l39 -296h276q8 0 6 -7l-5 -28q0 -7 -8 -7h-305q-6 0 -6 5l-25 201h-318l-122 -201q-3 -5 -7 -5h-35q-5 0 -6.5 2.5t1.5 6.5l412 687q4 4 8 4h516q7 0 6 -7zM541 248l-53 400l-236 -400h289z
M805 877q2 3 7 3h35q7 0 2 -8l-98 -118q-3 -4 -8 -4h-26q-3 0 -4.5 1.5t1.5 5.5z" />
    <glyph glyph-name="aeacute" unicode="&#x1fd;" horiz-adv-x="918" 
d="M912 227q-5 -22 -18 -22h-366q-5 -37 2.5 -70t26.5 -57t48.5 -38t68.5 -14q48 0 87 23t69 58q6 6 10 1l19 -18q5 -3 1 -9q-36 -42 -83.5 -67.5t-104.5 -25.5q-67 0 -110.5 36.5t-54.5 96.5l-20 -114q-2 -7 -8 -7h-16q-8 0 -6 7l14 107q-37 -66 -93 -96t-116 -30
q-47 0 -83.5 18t-60 49t-32.5 73.5t-1 91.5t31.5 91t57 73.5t76 49.5t89.5 18q29 0 56 -7.5t49.5 -23.5t38.5 -40.5t22 -57.5l18 110q1 7 8 7h23q6 0 6 -7l-19 -111q31 60 85.5 95t123.5 35q47 0 82.5 -16t57 -45.5t27.5 -71t-5 -92.5zM872 240q9 36 5 68t-20.5 55.5
t-45.5 37t-70 13.5q-39 0 -73.5 -13.5t-61.5 -37t-45.5 -55t-26.5 -68.5h338zM341 414q-41 0 -76.5 -14.5t-63 -40.5t-45.5 -61.5t-25 -77.5t-0.5 -77.5t25 -61.5t49.5 -40.5t73 -14.5q39 0 74.5 14.5t63.5 40.5t47 61.5t26 76.5t-0.5 77t-27 62t-50 41t-70.5 15zM639 657
q2 3 7 3h35q7 0 2 -8l-98 -118q-3 -4 -8 -4h-26q-3 0 -4.5 1.5t1.5 5.5z" />
    <glyph glyph-name="Oslashacute" unicode="&#x1fe;" horiz-adv-x="841" 
d="M540 712q69 0 123 -22t92 -63l108 100q6 6 10 1l14 -14q2 -2 -2 -9l-108 -100q37 -49 52 -114t2 -141q-13 -77 -50.5 -143t-92.5 -115t-124 -76.5t-145 -27.5q-67 0 -121.5 22t-92.5 62l-111 -102q-5 -4 -10 -1l-13 14q-2 3 2 10l110 101q-38 49 -53 114.5t-2 141.5
q13 77 50.5 143t92.5 115t124 76.5t145 27.5zM533 671q-67 0 -127 -24.5t-108 -67.5t-80 -101.5t-44 -127.5q-11 -66 1 -123t43 -100l504 469q-34 35 -81.5 55t-107.5 20zM237 104q33 -36 81 -55.5t108 -19.5q67 0 127 24.5t108 67.5t80 101.5t44 127.5q11 66 -0.5 122.5
t-41.5 99.5zM642 887q2 3 7 3h35q7 0 2 -8l-98 -118q-3 -4 -8 -4h-26q-3 0 -4.5 1.5t1.5 5.5z" />
    <glyph glyph-name="oslashacute" unicode="&#x1ff;" horiz-adv-x="547" 
d="M549 499q6 4 10 1l15 -12q4 -4 -1 -10l-80 -85q29 -32 40 -75.5t3 -97.5q-8 -49 -32 -91.5t-59 -73.5t-79 -48.5t-94 -17.5q-38 0 -69 10.5t-54 29.5l-75 -79q-5 -6 -10 -1l-14 12q-5 4 0 11l75 78q-26 32 -37 75.5t-3 94.5q8 49 32 91.5t59 73.5t79.5 48.5t93.5 17.5
q73 0 119 -37zM343 413q-42 0 -77.5 -14.5t-63.5 -40.5t-46 -61t-25 -77q-7 -41 -1 -75.5t26 -60.5l284 298q-37 31 -97 31zM178 61q37 -34 100 -34q42 0 78 14.5t63.5 40.5t45.5 61.5t25 76.5q8 42 0 78t-28 61zM441 657q2 3 7 3h35q7 0 2 -8l-98 -118q-3 -4 -8 -4h-26
q-3 0 -4.5 1.5t1.5 5.5z" />
    <glyph glyph-name="uni0218" unicode="&#x218;" horiz-adv-x="586" 
d="M569 591q-7 -3 -10 1q-27 42 -71.5 60.5t-105.5 18.5q-80 0 -127.5 -35.5t-57.5 -94.5q-5 -31 1 -55.5t26 -44.5t54 -35.5t84 -29.5q111 -29 158.5 -77t33.5 -129q-15 -87 -82.5 -134.5t-171.5 -47.5q-78 0 -138.5 29.5t-94.5 85.5q-2 2 -1 4.5t3 4.5l23 21q7 5 11 -2
q27 -48 77.5 -75t120.5 -27q96 0 145.5 40.5t60.5 103.5q5 32 -1 57t-25.5 44.5t-55 35t-88.5 28.5q-212 52 -187 207q13 76 76.5 121.5t162.5 45.5q69 0 120 -21.5t85 -68.5q5 -5 -2 -10zM284 -38q14 0 25 -10t9 -31q-4 -28 -19.5 -57t-42.5 -52q-4 -2 -6 1l-11 10
q-4 4 1 7q20 18 29.5 37.5t11.5 34.5q-16 -3 -26 6t-8 25q2 15 12.5 22t24.5 7z" />
    <glyph glyph-name="uni0219" unicode="&#x219;" horiz-adv-x="447" 
d="M432 366q-5 -5 -11 -1q-23 23 -61 36.5t-76 13.5q-53 0 -90 -17.5t-43 -55.5q-3 -18 0 -33.5t17.5 -27.5t41.5 -21.5t71 -17.5q46 -8 76 -21t46.5 -29.5t21.5 -37.5t1 -46q-5 -29 -21.5 -51.5t-42 -37.5t-58 -23t-70.5 -8q-62 0 -108 17.5t-74 42.5q-4 3 -1 9l18 21
q5 6 10 1q23 -20 64 -37t98 -17q55 0 94.5 22t45.5 60q3 17 1 32t-15 27.5t-40 23t-75 18.5q-91 16 -122.5 50t-23.5 82q9 54 58 83t124 29q47 0 92 -15t72 -42q2 -2 1.5 -4.5t-2.5 -4.5zM219 -38q14 0 25 -10t9 -31q-4 -28 -19.5 -57t-42.5 -52q-4 -2 -6 1l-11 10q-4 4 1 7
q20 18 29.5 37.5t11.5 34.5q-16 -3 -26 6t-8 25q2 15 12.5 22t24.5 7z" />
    <glyph glyph-name="uni021A" unicode="&#x21a;" horiz-adv-x="583" 
d="M162 693q1 7 8 7h477q6 0 6 -7l-5 -28q-2 -7 -8 -7h-216l-109 -651q0 -7 -8 -7h-31q-7 0 -5 7l108 651h-216q-8 0 -6 7zM284 -38q14 0 25 -10t9 -31q-4 -28 -19.5 -57t-42.5 -52q-4 -2 -6 1l-11 10q-4 4 1 7q20 18 29.5 37.5t11.5 34.5q-16 -3 -26 6t-8 25q2 15 12.5 22
t24.5 7z" />
    <glyph glyph-name="uni021B" unicode="&#x21b;" horiz-adv-x="335" 
d="M229 547q8 0 6 -7l-16 -100h137q6 0 5 -7l-4 -25q0 -7 -8 -7h-137l-46 -277q-7 -43 2.5 -69.5t51.5 -26.5q14 0 34 5.5t40 14.5q9 4 9 -4l6 -24q2 -7 -4 -9q-21 -10 -46.5 -16.5t-46.5 -6.5q-59 0 -79.5 35.5t-10.5 94.5l47 283h-73q-8 0 -6 7l4 25q1 7 8 7h75l36 101
q3 6 8 6h8zM152 -33q14 0 25 -10t9 -31q-4 -28 -19.5 -57t-42.5 -52q-4 -2 -6 1l-11 10q-4 4 1 7q20 18 29.5 37.5t11.5 34.5q-16 -3 -26 6t-8 25q2 15 12.5 22t24.5 7z" />
    <glyph glyph-name="uni0237" unicode="&#x237;" horiz-adv-x="155" 
d="M164 440q7 0 6 -7l-79 -475q-11 -67 -48.5 -106.5t-100.5 -41.5q-7 0 -6 7l5 27q0 7 8 7q42 2 66 28.5t32 73.5l80 480q1 7 8 7h29z" />
    <glyph glyph-name="circumflex" unicode="&#x2c6;" horiz-adv-x="424" 
d="M426 578q5 -8 -4 -8h-27q-3 0 -5 3l-67 103l-95 -104q-2 -2 -4 -2h-32q-9 0 -2 8l110 119q3 3 9 3h27q5 0 7 -4z" />
    <glyph glyph-name="caron" unicode="&#x2c7;" horiz-adv-x="423" 
d="M210 692q-6 8 3 8h27q3 0 6 -3l68 -103l93 104q2 2 5 2h31q8 0 3 -8l-111 -119q-3 -3 -8 -3h-28q-5 0 -7 4z" />
    <glyph glyph-name="breve" unicode="&#x2d8;" horiz-adv-x="453" 
d="M208 695q0 5 5 5h24q3 0 3 -5q-3 -19 -1.5 -37t10.5 -32.5t27 -23t48 -8.5t51.5 9.5t36 24t22 32.5t9.5 35q0 5 6 5h25q3 0 3 -5q-4 -26 -14.5 -49.5t-29.5 -41.5t-46 -28.5t-64 -10.5q-36 0 -60 10.5t-37.5 28.5t-17 41.5t-0.5 49.5z" />
    <glyph glyph-name="dotaccent" unicode="&#x2d9;" horiz-adv-x="244" 
d="M228 655q14 0 22 -8.5t6 -21.5q-2 -14 -10 -22t-22 -8q-13 0 -21.5 8t-6.5 22t10 22t22 8z" />
    <glyph glyph-name="ring" unicode="&#x2da;" horiz-adv-x="387" 
d="M329 808q46 0 69.5 -28t16.5 -70t-39 -69.5t-79 -27.5q-46 0 -69 27.5t-17 69.5q7 42 39.5 70t78.5 28zM326 782q-36 0 -58.5 -19.5t-28.5 -52.5q-5 -32 11 -52t51 -20t57.5 20t27.5 52q6 33 -9.5 52.5t-50.5 19.5z" />
    <glyph glyph-name="ogonek" unicode="&#x2db;" horiz-adv-x="328" 
d="M190 -183q5 1 7 -4l5 -17q0 -7 -5 -9q-21 -7 -50 -7q-43 0 -64 22t-14 60q7 42 39 81t83 65q4 2 6 0l8 -5q8 -4 0 -8q-43 -28 -69 -60t-31 -65q-5 -28 7.5 -43.5t40.5 -15.5q14 0 21.5 2t15.5 4z" />
    <glyph glyph-name="tilde" unicode="&#x2dc;" horiz-adv-x="465" 
d="M486 701q4 0 4 -5q-10 -66 -33.5 -101t-58.5 -35q-25 0 -38.5 17.5t-23 39t-20 39t-29.5 17.5q-20 0 -38.5 -24t-26.5 -79q0 -5 -5 -5h-25q-4 0 -4 5q11 67 37.5 101t61.5 34q25 0 38.5 -17.5t23 -38.5t20 -38.5t28.5 -17.5q20 0 35.5 24t23.5 79q0 5 6 5h24z" />
    <glyph glyph-name="hungarumlaut" unicode="&#x2dd;" horiz-adv-x="439" 
d="M269 697q3 3 7 3h30q7 0 3 -7l-91 -120q-2 -3 -5 -3h-21q-7 0 -3 6zM423 697q2 3 6 3h30q9 0 3 -7l-100 -120q-2 -3 -5 -3h-21q-6 0 -2 6z" />
    <glyph glyph-name="uni0326" unicode="&#x326;" horiz-adv-x="257" 
d="M119 -38q14 0 25 -10t9 -31q-4 -28 -19.5 -57t-42.5 -52q-4 -2 -6 1l-11 10q-4 4 1 7q20 18 29.5 37.5t11.5 34.5q-16 -3 -26 6t-8 25q2 15 12.5 22t24.5 7z" />
    <glyph glyph-name="uni0394" unicode="&#x394;" horiz-adv-x="688" 
d="M450 696q3 4 7 4h10q5 0 5 -4l161 -687q2 -9 -8 -9h-563q-10 0 -5 9zM117 41h466l-127 586z" />
    <glyph glyph-name="uni03A9" unicode="&#x3a9;" horiz-adv-x="855" 
d="M541 713q74 0 133.5 -22.5t100 -65t59 -103t9.5 -136.5q-14 -109 -82.5 -201t-194.5 -155l204 9q7 0 6 -7l-2 -25q-2 -7 -8 -7h-272q-5 0 -5 5v9q2 5 5 6q137 62 213.5 155.5t90.5 206.5q9 69 -6 123.5t-49 92t-85.5 57t-116.5 19.5q-66 0 -125.5 -19.5t-106.5 -57
t-79.5 -92t-44.5 -123.5q-9 -55 -4.5 -107t26.5 -98.5t61.5 -86t99.5 -71.5q5 -1 3 -6l-2 -9q-3 -4 -8 -4h-272q-7 0 -5 7l2 25q1 7 8 7l203 -9q-51 31 -85 70.5t-52.5 85t-23 96.5t4.5 104q13 76 49.5 136.5t90 103t120.5 65t140 22.5z" />
    <glyph glyph-name="uni03BC" unicode="&#x3bc;" horiz-adv-x="515" 
d="M167 440q6 0 5 -7l-40 -239q-14 -81 17 -123t100 -42q83 0 134.5 46t65.5 134l38 224q1 7 8 7h30q7 0 6 -7l-71 -426q-2 -7 -8 -7h-17q-6 0 -6 7l11 99q-33 -62 -85 -90t-115 -28q-52 0 -88 25t-42 76l-37 -260q-2 -7 -8 -7h-30q-8 0 -6 7l100 604q1 7 8 7h30z" />
    <glyph glyph-name="pi" unicode="&#x3c0;" horiz-adv-x="656" 
d="M661 418q0 -7 -8 -7l-140 -10l-29 -248q-7 -66 14.5 -91t62.5 -25q14 0 28 2.5t28 6.5q7 3 9 -5l1 -26q0 -6 -10.5 -9.5t-23.5 -5.5t-25.5 -2.5t-17.5 -0.5q-55 0 -86.5 37.5t-22.5 112.5l30 254h-198l-120 -395q-1 -6 -8 -6h-29q-8 0 -6 8l119 393h-123q-8 0 -6 7l4 25
q1 7 8 7h545q6 0 6 -7z" />
    <glyph glyph-name="Wgrave" unicode="&#x1e80;" horiz-adv-x="1062" 
d="M1115 700q9 0 4 -9l-343 -691q-1 -5 -7 -5h-9q-4 0 -5 4l-124 594l-324 -594q-3 -4 -7 -4h-10q-5 0 -5 5l-111 691q-1 9 7 9h32q5 0 6 -5l93 -605l320 587q3 5 8 5h5q5 0 6 -4l124 -589l299 606q1 5 7 5h34zM671 757q4 -7 -3 -7h-28q-3 0 -5 3l-63 119q-4 8 5 8h33
q5 0 6 -4z" />
    <glyph glyph-name="wgrave" unicode="&#x1e81;" horiz-adv-x="766" 
d="M813 440q5 0 6.5 -2.5t-1.5 -6.5l-251 -431q-3 -4 -8 -4h-10q-5 0 -6 4l-98 367l-222 -367q-3 -4 -7 -4h-11q-5 0 -6 4l-108 431q-2 9 8 9h32q4 0 6 -4l87 -363l219 363q3 4 8 4h10q5 0 6 -4l97 -363l207 363q4 4 8 4h34zM486 537q4 -7 -3 -7h-28q-3 0 -5 3l-63 119
q-4 8 5 8h33q5 0 6 -4z" />
    <glyph glyph-name="Wacute" unicode="&#x1e82;" horiz-adv-x="1062" 
d="M1115 700q9 0 4 -9l-343 -691q-1 -5 -7 -5h-9q-4 0 -5 4l-124 594l-324 -594q-3 -4 -7 -4h-10q-5 0 -5 5l-111 691q-1 9 7 9h32q5 0 6 -5l93 -605l320 587q3 5 8 5h5q5 0 6 -4l124 -589l299 606q1 5 7 5h34zM735 877q2 3 7 3h35q7 0 2 -8l-98 -118q-3 -4 -8 -4h-26
q-3 0 -4.5 1.5t1.5 5.5z" />
    <glyph glyph-name="wacute" unicode="&#x1e83;" horiz-adv-x="766" 
d="M813 440q5 0 6.5 -2.5t-1.5 -6.5l-251 -431q-3 -4 -8 -4h-10q-5 0 -6 4l-98 367l-222 -367q-3 -4 -7 -4h-11q-5 0 -6 4l-108 431q-2 9 8 9h32q4 0 6 -4l87 -363l219 363q3 4 8 4h10q5 0 6 -4l97 -363l207 363q4 4 8 4h34zM549 657q2 3 7 3h35q7 0 2 -8l-98 -118
q-3 -4 -8 -4h-26q-3 0 -4.5 1.5t1.5 5.5z" />
    <glyph glyph-name="Wdieresis" unicode="&#x1e84;" horiz-adv-x="1062" 
d="M1115 700q9 0 4 -9l-343 -691q-1 -5 -7 -5h-9q-4 0 -5 4l-124 594l-324 -594q-3 -4 -7 -4h-10q-5 0 -5 5l-111 691q-1 9 7 9h32q5 0 6 -5l93 -605l320 587q3 5 8 5h5q5 0 6 -4l124 -589l299 606q1 5 7 5h34zM585 842q14 0 21.5 -8.5t5.5 -22.5q-2 -13 -12 -21.5t-24 -8.5
q-13 0 -20.5 8.5t-5.5 21.5q2 14 11.5 22.5t23.5 8.5zM755 842q14 0 21.5 -8.5t5.5 -22.5q-2 -13 -11.5 -21.5t-23.5 -8.5q-13 0 -20.5 8.5t-5.5 21.5q2 14 11.5 22.5t22.5 8.5z" />
    <glyph glyph-name="wdieresis" unicode="&#x1e85;" horiz-adv-x="766" 
d="M813 440q5 0 6.5 -2.5t-1.5 -6.5l-251 -431q-3 -4 -8 -4h-10q-5 0 -6 4l-98 367l-222 -367q-3 -4 -7 -4h-11q-5 0 -6 4l-108 431q-2 9 8 9h32q4 0 6 -4l87 -363l219 363q3 4 8 4h10q5 0 6 -4l97 -363l207 363q4 4 8 4h34zM399 622q14 0 21.5 -8.5t5.5 -22.5
q-2 -13 -12 -21.5t-24 -8.5q-13 0 -20.5 8.5t-5.5 21.5q2 14 11.5 22.5t23.5 8.5zM569 622q14 0 21.5 -8.5t5.5 -22.5q-2 -13 -11.5 -21.5t-23.5 -8.5q-13 0 -20.5 8.5t-5.5 21.5q2 14 11.5 22.5t22.5 8.5z" />
    <glyph glyph-name="Germandbls" unicode="&#x1e9e;" horiz-adv-x="648" 
d="M653 683q-1 -6 -6 -11l-222 -259q57 -1 96.5 -16.5t62.5 -42.5t31 -64t0 -82q-17 -103 -91 -155.5t-195 -52.5h-86q-8 0 -6 7l5 28q2 7 8 7h83q102 0 161.5 40t73.5 126q14 88 -28.5 128.5t-138.5 40.5h-36q-8 0 -6 7l1 10q0 4 4 10l218 254h-175q-81 0 -126 -34.5
t-59 -119.5l-84 -497q-2 -7 -8 -7h-31q-7 0 -5 7l82 496q18 105 78 151t162 46h233q6 0 5 -7z" />
    <glyph glyph-name="endash" unicode="&#x2013;" horiz-adv-x="601" 
d="M124 287q0 7 8 7h440q6 0 5 -7l-4 -24q0 -7 -8 -7h-440q-7 0 -5 7z" />
    <glyph glyph-name="emdash" unicode="&#x2014;" horiz-adv-x="925" 
d="M124 287q0 7 8 7h764q6 0 5 -7l-4 -24q0 -7 -8 -7h-764q-7 0 -5 7z" />
    <glyph glyph-name="uni2015" unicode="&#x2015;" horiz-adv-x="909" 
d="M49 287q1 7 8 7h894q6 0 6 -7l-5 -24q0 -7 -8 -7h-893q-8 0 -6 7z" />
    <glyph glyph-name="quoteleft" unicode="&#x2018;" horiz-adv-x="215" 
d="M191 518q-17 0 -27 12t-7 35q5 35 22.5 71.5t46.5 68.5q4 6 10 2l9 -8q5 -3 0 -10q-22 -24 -32 -48.5t-15 -47.5q21 2 30.5 -10t7.5 -27q-4 -18 -16 -28t-29 -10z" />
    <glyph glyph-name="quoteright" unicode="&#x2019;" horiz-adv-x="215" 
d="M220 711q17 0 27 -12t6 -35q-5 -35 -21.5 -71.5t-46.5 -69.5q-6 -6 -9 -1l-10 8q-4 5 0 9q21 24 32.5 48.5t15.5 49.5q-22 -3 -31.5 9t-6.5 27q2 17 15 27.5t29 10.5z" />
    <glyph glyph-name="quotesinglbase" unicode="&#x201a;" horiz-adv-x="216" 
d="M114 70q17 0 27 -12t6 -35q-5 -38 -23 -77.5t-46 -74.5q-5 -5 -9 -2l-13 8q-5 3 0 10q22 27 34 53.5t17 54.5q-22 -2 -31 9.5t-7 26.5q3 18 15.5 28.5t29.5 10.5z" />
    <glyph glyph-name="quotedblleft" unicode="&#x201c;" horiz-adv-x="345" 
d="M191 518q-17 0 -27 12t-7 35q5 35 22.5 71.5t46.5 68.5q4 6 10 2l9 -8q5 -3 0 -10q-22 -24 -32 -48.5t-15 -47.5q21 2 30.5 -10t7.5 -27q-4 -18 -16 -28t-29 -10zM320 518q-17 0 -27 12t-6 35q5 35 22 71.5t46 68.5q5 5 10 2l9 -8q5 -3 0 -10q-21 -24 -31.5 -48.5
t-15.5 -47.5q22 2 31.5 -10t7.5 -27q-3 -18 -16 -28t-30 -10z" />
    <glyph glyph-name="quotedblright" unicode="&#x201d;" horiz-adv-x="345" 
d="M350 711q17 0 27 -12t6 -35q-5 -35 -22 -71.5t-46 -69.5q-2 -2 -4.5 -2.5t-4.5 1.5l-10 8q-6 4 1 9q21 25 31.5 49t14.5 49q-22 -3 -31 9t-7 27q3 17 15.5 27.5t29.5 10.5zM220 711q17 0 27 -12t6 -35q-5 -35 -21.5 -71.5t-46.5 -69.5q-6 -6 -9 -1l-10 8q-4 5 0 9
q21 24 32.5 48.5t15.5 49.5q-22 -3 -31.5 9t-6.5 27q2 17 15 27.5t29 10.5z" />
    <glyph glyph-name="quotedblbase" unicode="&#x201e;" horiz-adv-x="353" 
d="M251 70q17 0 27 -12t6 -35q-5 -35 -22 -72t-46 -69q-6 -5 -9 -1l-10 8q-6 4 1 9q21 25 31.5 49t14.5 49q-21 -3 -30.5 9t-7.5 27q3 17 15.5 27.5t29.5 10.5zM121 70q17 0 27 -12t7 -35q-5 -35 -22 -72t-47 -69q-5 -5 -9 -1l-10 8q-6 4 1 9q21 25 32 49.5t14 48.5
q-22 -3 -31 9t-7 27q3 17 16 27.5t29 10.5z" />
    <glyph glyph-name="dagger" unicode="&#x2020;" horiz-adv-x="436" 
d="M356 730q7 0 6 -7l-29 -171h136q7 0 5 -7l-4 -24q-2 -7 -8 -7h-135l-65 -387q-2 -7 -8 -7h-26q-8 0 -6 7l64 387h-136q-8 0 -6 7l4 24q2 7 8 7h137l28 171q1 7 9 7h26z" />
    <glyph glyph-name="daggerdbl" unicode="&#x2021;" horiz-adv-x="436" 
d="M356 730q7 0 6 -7l-30 -174h136q7 0 6 -7l-5 -24q-1 -7 -8 -7h-135l-30 -182h135q8 0 6 -7l-5 -25q-1 -7 -8 -7h-135l-35 -213q-2 -7 -8 -7h-26q-8 0 -6 7l34 213h-136q-7 0 -6 7l5 25q2 7 8 7h137l29 182h-136q-7 0 -6 7l4 24q1 7 8 7h137l29 174q1 7 9 7h26z" />
    <glyph glyph-name="bullet" unicode="&#x2022;" 
d="M362 507q72 0 114.5 -42.5t42.5 -114.5t-42.5 -114.5t-114.5 -42.5t-114.5 42.5t-42.5 114.5t42.5 114.5t114.5 42.5z" />
    <glyph glyph-name="uni2023" unicode="&#x2023;" horiz-adv-x="622" 
d="M523 354q10 -4 0 -8l-277 -151q-6 -2 -6 5v300q0 9 6 5z" />
    <glyph glyph-name="ellipsis" unicode="&#x2026;" horiz-adv-x="679" 
d="M127 70q17 0 26 -11t7 -28q-4 -20 -17 -30.5t-29 -10.5q-17 0 -26.5 10.5t-6.5 30.5q3 17 16 28t30 11zM353 70q17 0 26 -11t7 -28q-4 -20 -17 -30.5t-29 -10.5q-17 0 -26.5 10.5t-6.5 30.5q3 17 16 28t30 11zM580 70q17 0 26 -11t7 -28q-4 -20 -17 -30.5t-29 -10.5
q-17 0 -26.5 10.5t-6.5 30.5q3 17 16 28t30 11z" />
    <glyph glyph-name="perthousand" unicode="&#x2030;" horiz-adv-x="1053" 
d="M297 700q33 0 58.5 -11t42 -31t23 -47t1.5 -60q-6 -33 -21.5 -60.5t-38.5 -47.5t-52.5 -31t-62.5 -11t-58.5 11t-42 31t-23 47.5t-0.5 60.5q5 33 20.5 60t39 47t52.5 31t62 11zM757 671q4 -4 0 -10l-696 -645q-5 -5 -9 0l-13 14q-5 4 1 10l694 643q6 5 11 0zM291 667
q-54 0 -89.5 -32t-43.5 -84q-9 -53 16 -85t78 -32q54 0 89.5 32t45.5 85q8 52 -17 84t-79 32zM542 289q33 0 58 -11t41.5 -31t23 -47.5t1.5 -60.5q-6 -33 -21.5 -60.5t-38.5 -47.5t-52 -31t-62 -11t-58.5 11t-42 31t-23 47.5t-0.5 60.5q5 33 20.5 60.5t39 47.5t52.5 31
t62 11zM922 289q33 0 58 -11t41.5 -31t23 -47.5t1.5 -60.5q-6 -33 -21.5 -60.5t-38.5 -47.5t-52 -31t-62 -11t-58.5 11t-42 31t-23.5 47.5t-1 60.5q5 33 21 60.5t39 47.5t52.5 31t62.5 11zM536 256q-54 0 -90 -32t-44 -85q-8 -52 17 -84t78 -32q54 0 90 32t44 84
q8 53 -16.5 85t-78.5 32zM916 256q-54 0 -90 -32t-44 -85q-8 -52 17 -84t78 -32q54 0 90 32t44 84q8 53 -16.5 85t-78.5 32z" />
    <glyph glyph-name="minute" unicode="&#x2032;" horiz-adv-x="197" 
d="M202 518q0 -7 -8 -7h-16q-8 0 -6 7l19 175q2 7 9 7h35q8 0 6 -7z" />
    <glyph glyph-name="second" unicode="&#x2033;" horiz-adv-x="314" 
d="M202 518q0 -7 -8 -7h-16q-8 0 -6 7l19 175q2 7 9 7h35q8 0 6 -7zM320 518q-2 -7 -8 -7h-17q-6 0 -6 7l20 175q0 7 8 7h36q7 0 5 -7z" />
    <glyph glyph-name="guilsinglleft" unicode="&#x2039;" horiz-adv-x="271" 
d="M104 273q-2 4 1 9l134 154q3 4 10 4h30q14 0 5 -11l-135 -154l82 -148q6 -11 -7 -11h-29q-5 0 -8 5z" />
    <glyph glyph-name="guilsinglright" unicode="&#x203a;" horiz-adv-x="271" 
d="M260 282q3 -4 -1 -9l-134 -152q-4 -5 -10 -5h-31q-13 0 -4 11l135 154l-81 150q-5 9 7 9h28q7 0 9 -4z" />
    <glyph glyph-name="fraction" unicode="&#x2044;" horiz-adv-x="252" 
d="M460 700q12 0 5 -10l-527 -686q-1 -4 -6 -4h-22q-6 0 -7.5 3t2.5 7l526 687q3 3 7 3h22z" />
    <glyph glyph-name="uni2070" unicode="&#x2070;" horiz-adv-x="372" 
d="M324 830q44 0 70.5 -18t40 -48t15.5 -69t-5 -80q-7 -42 -22 -80.5t-38.5 -68.5t-56 -48t-75.5 -18t-70 18t-40.5 48t-15.5 68.5t5 80.5q7 41 22 80t38 69t56 48t76 18zM318 794q-34 0 -59 -14.5t-42.5 -39.5t-28.5 -57.5t-17 -67.5t-5.5 -67.5t10 -57.5t29.5 -40t54 -15
q33 0 58 15t43 40t29 57.5t17 67.5t5.5 67.5t-10 57.5t-29.5 39.5t-54 14.5z" />
    <glyph glyph-name="uni2074" unicode="&#x2074;" horiz-adv-x="357" 
d="M416 512q0 -7 -8 -7h-65l-15 -88q-2 -7 -8 -7h-23q-8 0 -6 7l15 88h-190q-5 0 -5 6l2 9q0 3 1 3l202 293q3 4 8 4h27q11 0 4 -10l-192 -271h148l15 91q2 7 8 7h24q6 0 6 -7l-16 -91h66q6 0 6 -7z" />
    <glyph glyph-name="uni2075" unicode="&#x2075;" horiz-adv-x="348" 
d="M416 791q-1 -6 -9 -6h-172l-31 -126h65q68 0 105.5 -31.5t26.5 -94.5q-10 -57 -52 -95t-106 -38q-51 0 -84 25.5t-39 73.5q0 8 7 8l20 7q6 1 8 -5q3 -36 28.5 -55.5t65.5 -19.5q47 0 75.5 26t36.5 71q17 95 -100 95h-93q-8 0 -6 7l44 180q1 7 8 7h199q7 0 6 -7z" />
    <glyph glyph-name="uni2076" unicode="&#x2076;" horiz-adv-x="345" 
d="M352 820q14 0 4 -10l-133 -154q33 19 74 19q28 0 50.5 -9.5t37.5 -27.5t21 -43t1 -56t-20.5 -57t-38 -44t-51 -28t-60.5 -10q-63 0 -97 35.5t-24 95.5q5 27 17.5 53t29.5 47l155 186q3 3 7 3h27zM281 643q-51 0 -84 -30.5t-41 -76.5q-8 -48 16 -74.5t72 -26.5t82 28
t42 76t-15.5 76t-71.5 28z" />
    <glyph glyph-name="uni2077" unicode="&#x2077;" horiz-adv-x="303" 
d="M160 785q-6 0 -5 6l3 22q1 7 8 7h246q7 0 5 -6l-2 -10v-2l-224 -387q-2 -5 -7 -5h-27q-5 0 -6.5 2.5t2.5 6.5l215 366h-208z" />
    <glyph glyph-name="uni2078" unicode="&#x2078;" horiz-adv-x="342" 
d="M309 830q57 0 87 -27.5t22 -78.5q-6 -35 -29 -63t-61 -39q41 -12 57.5 -40.5t10.5 -68.5q-9 -53 -50.5 -83t-107.5 -30q-67 0 -98 30t-23 83q7 40 33.5 68.5t70.5 40.5q-33 11 -47 39t-8 63q8 51 47 78.5t96 27.5zM304 796q-39 0 -66.5 -18t-34.5 -58q-7 -41 15 -62
t59 -21t66 21t36 62q7 40 -15 58t-60 18zM272 605q-43 0 -75 -21t-40 -66q-7 -44 17.5 -64t68.5 -20q45 0 76 20t38 64q8 44 -17.5 65.5t-67.5 21.5z" />
    <glyph glyph-name="uni2079" unicode="&#x2079;" horiz-adv-x="345" 
d="M198 410q-6 0 -7.5 3t3.5 7l133 154q-31 -18 -74 -18q-28 0 -50.5 9.5t-37.5 27.5t-21 43t-1 55q5 32 20.5 57.5t38 43.5t51 28t60.5 10t56.5 -9.5t40.5 -26.5t22 -42t1 -55q-4 -26 -16 -52t-30 -46l-155 -185q-3 -4 -7 -4h-27zM269 587q51 0 84 30.5t41 76.5
q8 48 -16 74.5t-72 26.5t-82 -28t-42 -76t15.5 -76t71.5 -28z" />
    <glyph glyph-name="uni2080" unicode="&#x2080;" horiz-adv-x="372" 
d="M220 210q44 0 70.5 -18t40 -48t15.5 -69t-5 -80q-7 -42 -22 -80.5t-38.5 -68.5t-56 -48t-75.5 -18t-70 18t-40.5 48t-15.5 68.5t5 80.5q7 41 22 80t38 69t56 48t76 18zM214 174q-34 0 -59 -14.5t-42.5 -39.5t-28.5 -57.5t-17 -67.5t-5.5 -67.5t10 -57.5t29.5 -40t54 -15
q33 0 58 15t43 40t29 57.5t17 67.5t5.5 67.5t-10 57.5t-29.5 39.5t-54 14.5z" />
    <glyph glyph-name="uni2081" unicode="&#x2081;" horiz-adv-x="242" 
d="M199 202q7 0 5 -6l-66 -399q-2 -7 -8 -7h-24q-7 0 -5 7l60 363l-96 -30q-7 -2 -8 4l-3 21q-2 7 6 9l121 37q2 1 4 1h4h10z" />
    <glyph glyph-name="uni2082" unicode="&#x2082;" horiz-adv-x="336" 
d="M83 101q-3 -8 -9 -5l-18 6q-6 4 -4 9q22 47 61.5 73t93.5 26q55 0 85.5 -27.5t21.5 -80.5q-6 -37 -30 -70.5t-69 -73.5l-153 -133h201q6 0 6 -7l-4 -21q-2 -7 -8 -7h-255q-7 0 -5 6l1 9q1 1 1.5 2t1.5 2l191 171q40 36 59.5 64t24.5 57q7 38 -13.5 56.5t-59.5 18.5
q-42 0 -73 -20t-47 -55z" />
    <glyph glyph-name="uni2083" unicode="&#x2083;" horiz-adv-x="348" 
d="M124 -17q-7 0 -6 7l3 18q2 7 8 7h47q44 0 72 26.5t34 61.5t-13.5 54t-61.5 19q-45 0 -75 -19.5t-47 -55.5q-2 -5 -9 -5l-19 8q-6 2 -3 8q20 47 59.5 72.5t96.5 25.5q61 0 90.5 -28.5t21.5 -74.5q-7 -39 -33 -67.5t-59 -39.5q38 -8 55 -36t10 -68q-9 -54 -50 -85t-103 -31
q-55 0 -91 25.5t-41 73.5q-2 8 6 8l21 7q7 1 8 -5q5 -35 31 -55t69 -20q46 0 75.5 21.5t36.5 63.5q7 38 -13 61t-73 23h-47z" />
    <glyph glyph-name="uni2084" unicode="&#x2084;" horiz-adv-x="357" 
d="M312 -108q0 -7 -8 -7h-65l-15 -88q-2 -7 -8 -7h-23q-8 0 -6 7l15 88h-190q-5 0 -5 6l2 9q0 3 1 3l202 293q3 4 8 4h27q11 0 4 -10l-192 -271h148l15 91q2 7 8 7h24q6 0 6 -7l-16 -91h66q6 0 6 -7z" />
    <glyph glyph-name="uni2085" unicode="&#x2085;" horiz-adv-x="348" 
d="M312 171q-1 -6 -9 -6h-172l-31 -126h65q68 0 105.5 -31.5t26.5 -94.5q-10 -57 -52 -95t-106 -38q-51 0 -84 25.5t-39 73.5q0 8 7 8l20 7q6 1 8 -5q3 -36 28.5 -55.5t65.5 -19.5q47 0 75.5 26t36.5 71q17 95 -100 95h-93q-8 0 -6 7l44 180q1 7 8 7h199q7 0 6 -7z" />
    <glyph glyph-name="uni2086" unicode="&#x2086;" horiz-adv-x="345" 
d="M248 200q14 0 4 -10l-133 -154q33 19 74 19q28 0 50.5 -9.5t37.5 -27.5t21 -43t1 -56t-20.5 -57t-38 -44t-51 -28t-60.5 -10q-63 0 -97 35.5t-24 95.5q5 27 17.5 53t29.5 47l155 186q3 3 7 3h27zM177 23q-51 0 -84 -30.5t-41 -76.5q-8 -48 16 -74.5t72 -26.5t82 28t42 76
t-15.5 76t-71.5 28z" />
    <glyph glyph-name="uni2087" unicode="&#x2087;" horiz-adv-x="303" 
d="M56 165q-6 0 -5 6l3 22q1 7 8 7h246q7 0 5 -6l-2 -10v-2l-224 -387q-2 -5 -7 -5h-27q-5 0 -6.5 2.5t2.5 6.5l215 366h-208z" />
    <glyph glyph-name="uni2088" unicode="&#x2088;" horiz-adv-x="342" 
d="M205 210q57 0 87 -27.5t22 -78.5q-6 -35 -29 -63t-61 -39q41 -12 57.5 -40.5t10.5 -68.5q-9 -53 -50.5 -83t-107.5 -30q-67 0 -98 30t-23 83q7 40 33.5 68.5t70.5 40.5q-33 11 -47 39t-8 63q8 51 47 78.5t96 27.5zM200 176q-39 0 -66.5 -18t-34.5 -58q-7 -41 15 -62
t59 -21t66 21t36 62q7 40 -15 58t-60 18zM168 -15q-43 0 -75 -21t-40 -66q-7 -44 17.5 -64t68.5 -20q45 0 76 20t38 64q8 44 -17.5 65.5t-67.5 21.5z" />
    <glyph glyph-name="uni2089" unicode="&#x2089;" horiz-adv-x="345" 
d="M94 -210q-6 0 -7.5 3t3.5 7l133 154q-31 -18 -74 -18q-28 0 -50.5 9.5t-37.5 27.5t-21 43t-1 55q5 32 20.5 57.5t38 43.5t51 28t60.5 10t56.5 -9.5t40.5 -26.5t22 -42t1 -55q-4 -26 -16 -52t-30 -46l-155 -185q-3 -4 -7 -4h-27zM165 -33q51 0 84 30.5t41 76.5
q8 48 -16 74.5t-72 26.5t-82 -28t-42 -76t15.5 -76t71.5 -28z" />
    <glyph glyph-name="Euro" unicode="&#x20ac;" horiz-adv-x="599" 
d="M108 382q-7 0 -6 7l4 22q1 7 8 7h57q14 55 38 106t59.5 90t83 62.5t108.5 23.5q70 0 115.5 -31t67.5 -83q3 -5 -3 -9l-24 -14q-5 -4 -9 3q-18 45 -55 70.5t-95 25.5q-52 0 -92 -21t-69 -55t-48.5 -78t-31.5 -90h263q8 0 5 -9l-11 -23q-1 -4 -7 -4h-358zM89 272q-6 0 -5 7
l3 22q2 7 8 7h344q11 0 6 -9l-11 -23q-4 -4 -7 -4h-235q-4 -46 0.5 -90.5t22.5 -79t51.5 -55.5t87.5 -21q60 0 103 27t76 73q6 6 11 2l19 -15q4 -3 1 -9q-39 -54 -90.5 -85t-124.5 -31q-62 0 -102.5 24t-64 63.5t-31 91t-3.5 105.5h-59z" />
    <glyph glyph-name="uni20BA" unicode="&#x20ba;" horiz-adv-x="688" 
d="M110 386q-8 -4 -7 6l3 20q0 4 6 5l134 47l38 229q1 7 8 7h30q6 0 5 -7l-36 -213l253 85q10 3 8 -7l-3 -18q0 -6 -8 -9zM86 292q0 4 5 6l433 147q9 3 8 -7l-3 -18q0 -6 -8 -8l-255 -87l-47 -278q26 -8 53 -12t53 -4q54 0 103.5 13.5t90 44.5t70 83t43.5 128q2 7 8 7l27 -4
q8 -1 6 -8q-14 -81 -45.5 -139t-77.5 -94.5t-104 -54t-126 -17.5q-32 0 -70.5 5.5t-73.5 16.5q-6 2 -5 7l49 291l-130 -44q-8 -3 -7 6z" />
    <glyph glyph-name="uni20BD" unicode="&#x20bd;" horiz-adv-x="616" 
d="M233 693q1 7 8 7h209q112 0 164 -55t35 -154t-87 -155t-182 -56h-289q-8 0 -6 7l5 26q1 7 8 7h73zM216 320h166q98 0 152.5 44t68.5 127t-27 126.5t-138 43.5h-165zM67 179q2 6 8 6h368q8 0 6 -6l-4 -22q-1 -7 -8 -7h-250l-23 -143q-2 -7 -8 -7h-32q-8 0 -6 7l24 143h-73
q-7 0 -6 7z" />
    <glyph glyph-name="uni2113" unicode="&#x2113;" horiz-adv-x="503" 
d="M101 251q-7 0 -7 7v16q0 6 7 7q35 2 65 6q1 93 15 168t39 127.5t59 81t76 28.5q45 0 72 -33t27 -96q0 -114 -62 -190t-182 -105q1 -67 11 -113.5t27 -75.5t40 -42.5t50 -13.5q42 0 88 31q7 3 11 -3l8 -16q2 -5 -1 -10q-54 -37 -113 -37q-78 0 -120.5 68.5t-44.5 200.5
q-32 -5 -65 -6zM210 298q107 26 161 94.5t54 174.5q0 51 -21 73t-50 22q-34 0 -60.5 -26.5t-45 -74.5t-28 -115t-10.5 -148z" />
    <glyph glyph-name="uni2116" unicode="&#x2116;" horiz-adv-x="1100" 
d="M1015 706q34 0 60 -12t43 -33.5t23.5 -50t1.5 -61.5q-6 -34 -22 -62.5t-40 -49.5t-54.5 -33t-64.5 -12q-33 0 -59.5 12t-43 33t-23.5 49.5t-1 62.5q6 33 22 61.5t40 50t54.5 33.5t63.5 12zM724 700q6 0 6 -7l-116 -691q0 -7 -8 -7h-7q-5 0 -8 5l-352 610l-101 -603
q-2 -7 -8 -7h-31q-7 0 -5 7l114 691q1 7 8 7h8q5 0 7 -4l353 -611l101 603q0 7 8 7h31zM1009 671q-26 0 -49 -9.5t-41 -26t-30.5 -38.5t-16.5 -48q-8 -53 18 -88t78 -35q26 0 49 9.5t41.5 26t31 39t16.5 48.5q8 52 -18.5 87t-78.5 35zM793 256q-6 0 -5 6l4 24q2 7 7 7h294
q8 0 6 -7l-4 -24q-1 -6 -8 -6h-294z" />
    <glyph glyph-name="trademark" unicode="&#x2122;" horiz-adv-x="563" 
d="M340 700q7 0 6 -7l-3 -16q-2 -7 -8 -7h-69l-35 -213q-2 -7 -9 -7h-17q-8 0 -6 7l36 213h-68q-7 0 -5 7l2 16q1 7 9 7h167zM626 700q6 0 5 -7l-40 -236q-2 -7 -8 -7h-17q-8 0 -6 7l32 188l-106 -132q-2 -2 -5 -2t-5 2l-62 135l-32 -191q-2 -7 -8 -7h-18q-7 0 -5 7l39 236
q1 7 8 7h20q3 0 4 -3l65 -140l112 140q2 3 7 3h20z" />
    <glyph glyph-name="uni2126" unicode="&#x2126;" horiz-adv-x="855" 
d="M541 713q74 0 133.5 -22.5t100 -65t59 -103t9.5 -136.5q-14 -109 -82.5 -201t-194.5 -155l204 9q7 0 6 -7l-2 -25q-2 -7 -8 -7h-272q-5 0 -5 5v9q2 5 5 6q137 62 213.5 155.5t90.5 206.5q9 69 -6 123.5t-49 92t-85.5 57t-116.5 19.5q-66 0 -125.5 -19.5t-106.5 -57
t-79.5 -92t-44.5 -123.5q-9 -55 -4.5 -107t26.5 -98.5t61.5 -86t99.5 -71.5q5 -1 3 -6l-2 -9q-3 -4 -8 -4h-272q-7 0 -5 7l2 25q1 7 8 7l203 -9q-51 31 -85 70.5t-52.5 85t-23 96.5t4.5 104q13 76 49.5 136.5t90 103t120.5 65t140 22.5z" />
    <glyph glyph-name="estimated" unicode="&#x212e;" horiz-adv-x="791" 
d="M771 299q0 -6 -2.5 -11t-7.5 -5h-524v-170q18 -20 42.5 -36t53 -27.5t59 -18t60.5 -6.5q33 0 67.5 8t66 22t59 34t46.5 44q4 7 10 1l13 -10q3 -5 0 -10q-46 -52 -114.5 -83t-149.5 -31q-70 0 -130 24t-103.5 65t-68 97t-24.5 119q0 64 24.5 119.5t68 97t103 65.5
t128.5 24q68 0 127 -24t102.5 -66t68.5 -99t25 -123zM654 501q-35 37 -89 59.5t-114 22.5q-31 0 -62.5 -6.5t-59.5 -17.5t-51.5 -26.5t-40.5 -32.5v-189h417v190z" />
    <glyph glyph-name="arrowleft" unicode="&#x2190;" horiz-adv-x="886" 
d="M847 317q0 -4 -5 -4h-627l273 -274q3 -2 2 -5t-5 -3h-39q-3 0 -5 2l-292 295q-3 4 0 7l292 295q1 1 5 1h39q4 0 5 -2.5t-2 -4.5l-273 -274h627q5 0 5 -5v-28z" />
    <glyph glyph-name="arrowup" unicode="&#x2191;" horiz-adv-x="790" 
d="M758 408q1 -2 1 -4v-40q0 -10 -8 -4l-272 274v-629q0 -5 -5 -5h-29q-4 0 -4 5v629l-274 -274q-2 -2 -4.5 -1t-2.5 5l-1 40l2 4l295 292q4 4 6 0z" />
    <glyph glyph-name="arrowright" unicode="&#x2192;" horiz-adv-x="886" 
d="M555 33q-2 -2 -3 -2h-41q-3 0 -4 3t1 5l274 274h-628q-4 0 -4 4v28q0 5 4 5h628l-274 274q-2 2 -1 4.5t4 2.5h41q2 0 3 -1l293 -295q2 -3 0 -7z" />
    <glyph glyph-name="arrowdown" unicode="&#x2193;" horiz-adv-x="790" 
d="M462 700q5 0 5 -5v-628l273 273q2 3 4.5 2t2.5 -5l1 -41q0 -1 -2 -3l-295 -293q-3 -2 -7 0l-295 293q-1 1 -1 3v41q0 4 2.5 5t5.5 -2l273 -273v628q0 5 5 5h28z" />
    <glyph glyph-name="arrowboth" unicode="&#x2194;" horiz-adv-x="1099" 
d="M1061 335q4 -3 0 -7l-255 -258l-2 -2h-1l-41 1q-4 0 -5 2.5t2 4.5l236 237h-780l237 -237q5 -7 -4 -7l-40 -1q-2 0 -4 2l-255 258q-3 4 0 7l255 258l4 2l40 -1q4 0 5 -2.5t-1 -4.5l-237 -237h780l-236 237q-2 2 -1 4.5t5 2.5l40 1l4 -2z" />
    <glyph glyph-name="arrowupdn" unicode="&#x2195;" horiz-adv-x="822" 
d="M466 793q4 4 7 0l258 -255l2 -4l-1 -40q0 -4 -2.5 -5t-4.5 1l-237 237v-757l237 236q2 3 4.5 2t2.5 -5l1 -41q0 -1 -2 -3l-258 -255q-3 -4 -7 0l-258 255q-2 2 -2 4l1 40q0 9 7 4l236 -237v757l-236 -237q-2 -2 -4.5 -1t-2.5 5l-1 40q0 2 2 4z" />
    <glyph glyph-name="uni2196" unicode="&#x2196;" horiz-adv-x="796" 
d="M215 585q0 5 4 5l416 2h1q2 0 2 -1l28 -29q2 -2 1.5 -4.5t-4.5 -2.5l-387 -1l444 -443q4 -4 0 -6l-20 -20q-4 -4 -6 0l-444 444v-387q0 -8 -7 -3l-29 28q-1 1 -1 3z" />
    <glyph glyph-name="uni2197" unicode="&#x2197;" horiz-adv-x="729" 
d="M634 590q4 0 4 -5l3 -415q0 -1 -2 -3l-29 -28q-2 -2 -4.5 -1.5t-2.5 4.5v387l-444 -444q-2 -4 -6 0l-20 20q-4 2 0 6l444 443l-387 1q-4 0 -4.5 2.5t2.5 4.5l27 29q1 1 2 1h1z" />
    <glyph glyph-name="uni2198" unicode="&#x2198;" horiz-adv-x="796" 
d="M209 591q2 4 6 0l443 -444v387q0 9 8 3l29 -28q1 0 1 -2v-1l-2 -416q0 -4 -5 -4l-415 -2q-2 0 -3 1l-28 28q-6 8 3 8l386 1l-444 443q-2 2 0 6z" />
    <glyph glyph-name="uni2199" unicode="&#x2199;" horiz-adv-x="729" 
d="M208 86q-4 0 -4 4l-3 416l1 1l1 2l29 28q2 2 4.5 1.5t2.5 -4.5v-387l444 444q2 4 6 0l20 -20q4 -4 0 -6l-444 -443l387 -1q10 0 2 -8l-27 -28q-1 -1 -2 -1h-1z" />
    <glyph glyph-name="partialdiff" unicode="&#x2202;" horiz-adv-x="589" 
d="M376 457q68 0 112 -28.5t63 -76.5q7 23 12.5 44.5t8.5 41.5q19 113 -12 176t-123 63q-35 0 -69.5 -10t-66.5 -27q-7 -4 -10 4l-9 21q-2 6 4 9q39 20 78.5 29.5t78.5 9.5q56 0 93.5 -20t58.5 -56.5t25.5 -88t-7.5 -114.5q-14 -78 -44.5 -157.5t-77.5 -144t-112 -105
t-148 -40.5q-43 0 -75 15.5t-51.5 42t-26 63t0.5 78.5q9 57 34 106t63.5 86t89 58t110.5 21zM374 422q-51 0 -94.5 -19t-76 -51t-54 -74.5t-29.5 -90.5q-11 -73 20 -118t101 -45q54 0 99.5 24t82 63t64.5 88.5t47 101.5q-11 53 -53.5 87t-106.5 34z" />
    <glyph glyph-name="uni2206" unicode="&#x2206;" horiz-adv-x="688" 
d="M450 696q3 4 7 4h10q5 0 5 -4l161 -687q2 -9 -8 -9h-563q-10 0 -5 9zM117 41h466l-127 586z" />
    <glyph glyph-name="product" unicode="&#x220f;" horiz-adv-x="695" 
d="M713 700q7 0 6 -7l-137 -819q-1 -7 -8 -7h-31q-7 0 -6 7l132 785h-422l-132 -785q-1 -7 -8 -7h-30q-7 0 -6 7l137 819q1 7 8 7h497z" />
    <glyph glyph-name="summation" unicode="&#x2211;" horiz-adv-x="656" 
d="M702 666q-2 -7 -8 -7h-448l212 -360q3 -7 2 -13l-2 -10q-1 -7 -7 -14l-324 -361h441q7 0 5 -7l-4 -27q-1 -7 -8 -7h-501q-7 0 -6 7l1 10q2 10 11 19l349 391l-225 383q-5 6 -3 15l1 8q1 7 8 7h505q7 0 6 -7z" />
    <glyph glyph-name="minus" unicode="&#x2212;" horiz-adv-x="543" 
d="M530 264q-1 -7 -8 -7h-415q-7 0 -6 7l4 23q1 7 8 7h416q7 0 6 -7z" />
    <glyph glyph-name="radical" unicode="&#x221a;" horiz-adv-x="659" 
d="M101 269q-2 8 4 10l27 9q8 2 9 -3l107 -365l441 840q4 4 7 4h29q10 0 5 -9l-477 -901q-2 -4 -6 -4h-9q-5 0 -7 3z" />
    <glyph glyph-name="infinity" unicode="&#x221e;" horiz-adv-x="800" 
d="M288 475q33 0 59 -10.5t47 -28.5t38.5 -41t32.5 -48q23 24 47.5 46.5t50 39.5t53 27.5t57.5 10.5q32 0 57.5 -11.5t42 -31.5t23 -48.5t0.5 -63.5q-6 -36 -21.5 -64.5t-38.5 -48t-51.5 -30t-61.5 -10.5q-32 0 -57 10t-45 27t-36 39t-30 46q-23 -24 -47.5 -47t-51 -40.5
t-55.5 -28.5t-61 -11q-33 0 -59.5 12t-43.5 33t-24 50t-3 63q5 36 20.5 65.5t39.5 50.5t54 32t64 11zM286 439q-51 0 -88.5 -32.5t-44.5 -89.5q-6 -54 18 -87t75 -33q25 0 49 9t47.5 25t47 38t47.5 47q-15 27 -31 49.5t-34 39t-39 25.5t-47 9zM484 317q13 -23 27 -44
t31 -37.5t38 -26t47 -9.5q48 0 82.5 32t43.5 86q9 53 -14.5 84.5t-71.5 31.5q-26 0 -49.5 -9.5t-46 -25.5t-44 -37.5t-43.5 -44.5z" />
    <glyph glyph-name="integral" unicode="&#x222b;" horiz-adv-x="296" 
d="M389 774q-1 -7 -8 -7q-64 -1 -91.5 -32t-33.5 -92l-71 -662q-9 -87 -49 -134t-126 -47q-7 0 -6 7l4 19q1 7 8 7q63 2 91.5 36.5t35.5 98.5l72 672q9 77 48.5 118t122.5 42q6 0 5 -7z" />
    <glyph glyph-name="approxequal" unicode="&#x2248;" horiz-adv-x="554" 
d="M564 436q6 -1 4 -8q-16 -52 -46.5 -81t-78.5 -29q-38 0 -63.5 15t-48.5 34q-20 17 -41 29.5t-50 12.5q-66 0 -92 -80q-1 -7 -9 -6l-22 6q-6 1 -4 7q17 52 49.5 80.5t80.5 28.5q36 0 61.5 -15t53.5 -38q16 -13 36.5 -25.5t49.5 -12.5q34 0 55.5 20t34.5 60q2 8 10 6z
M529 222q6 -1 4 -8q-16 -52 -47 -81t-79 -29q-38 0 -63.5 15t-48.5 35q-19 17 -40.5 29.5t-50.5 12.5q-66 0 -91 -80q-2 -8 -10 -6l-22 5q-6 2 -4 7q17 52 49.5 80.5t80.5 28.5q36 0 61.5 -15t53.5 -38q16 -13 36.5 -25t49.5 -12q34 0 55.5 19t34.5 61q2 8 11 6z" />
    <glyph glyph-name="notequal" unicode="&#x2260;" horiz-adv-x="536" 
d="M540 366q-2 -7 -8 -7h-136l-110 -168h218q8 0 6 -6l-4 -23q-1 -7 -9 -7h-235l-102 -156q-1 -3 -7 -3h-26q-10 0 -3 10l97 149h-132q-6 0 -5 7l4 23q2 6 8 6h150l109 168h-231q-8 0 -6 7l4 23q2 7 8 7h250l95 145q2 3 6 3h27q9 0 3 -10l-91 -138h118q8 0 6 -7z" />
    <glyph glyph-name="lessequal" unicode="&#x2264;" horiz-adv-x="539" 
d="M508 153q-2 -10 -12 -6l-379 188q-4 2 -3 6l2 11q0 4 4 6l443 188q11 5 9 -6l-4 -28q0 -5 -6 -7l-382 -159l329 -158q6 -2 3 -7zM491 95q7 0 6 -7l-4 -24q0 -7 -8 -7h-410q-6 0 -5 7l4 24q1 7 8 7h409z" />
    <glyph glyph-name="greaterequal" unicode="&#x2265;" horiz-adv-x="538" 
d="M91 147q-5 -2 -7.5 -0.5t-0.5 6.5l4 28l2 4t4 3l382 158l-329 159q-4 1 -4 7l5 28q2 11 11 6l380 -188q3 -1 3 -6l-2 -12q-2 -4 -4 -5zM72 88q1 7 8 7h409q7 0 6 -7l-4 -24q0 -7 -8 -7h-410q-6 0 -5 7z" />
    <glyph glyph-name="house" unicode="&#x2302;" horiz-adv-x="818" 
d="M444 697q4 4 6 0l276 -245q1 -2 1 -4v-443q0 -5 -4 -5h-551q-5 0 -5 5v443q0 2 2 4zM199 437v-406h497v406l-249 222z" />
    <glyph glyph-name="uni2460" unicode="&#x2460;" horiz-adv-x="1131" 
d="M624 818q100 0 185.5 -35.5t148 -98.5t98 -148.5t35.5 -185.5t-35.5 -185.5t-98 -148.5t-148 -98.5t-185.5 -35.5q-99 0 -184.5 35.5t-148 98.5t-98 148.5t-35.5 185.5t35.5 185.5t98 148.5t148 98.5t184.5 35.5zM624 786q-95 0 -174.5 -33t-136.5 -91.5t-89 -138.5
t-32 -173t32 -172.5t89 -138t136.5 -92t174.5 -33.5t174.5 33.5t136.5 92t89 138t32 172.5t-32 173t-89 138.5t-136.5 91.5t-174.5 33zM649 617q4 0 4 -4v-541q0 -5 -4 -5h-29q-5 0 -5 5v504l-131 -46q-3 -1 -6 3l-7 26q-1 3 3 6l164 52h11z" />
    <glyph glyph-name="uni2461" unicode="&#x2461;" horiz-adv-x="1131" 
d="M624 818q100 0 185.5 -35.5t148 -98.5t98 -148.5t35.5 -185.5t-35.5 -185.5t-98 -148.5t-148 -98.5t-185.5 -35.5q-99 0 -184.5 35.5t-148 98.5t-98 148.5t-35.5 185.5t35.5 185.5t98 148.5t148 98.5t184.5 35.5zM624 786q-95 0 -174.5 -33t-136.5 -91.5t-89 -138.5
t-32 -173t32 -172.5t89 -138t136.5 -92t174.5 -33.5t174.5 33.5t136.5 92t89 138t32 172.5t-32 173t-89 138.5t-136.5 91.5t-174.5 33zM479 487q-3 -4 -6 -3l-25 7q-4 3 -3 6q15 65 63.5 100t121.5 35q72 0 116.5 -35.5t44.5 -105.5q0 -46 -23 -89.5t-78 -100.5l-188 -193
h286q5 0 5 -5v-26q0 -5 -5 -5h-343q-5 0 -5 5v9q0 1 2 3l220 233q48 51 69 88.5t21 79.5q0 56 -34 82t-89 26q-60 0 -98.5 -28.5t-51.5 -82.5z" />
    <glyph glyph-name="uni2462" unicode="&#x2462;" horiz-adv-x="1131" 
d="M624 818q100 0 185.5 -35.5t148 -98.5t98 -148.5t35.5 -185.5t-35.5 -185.5t-98 -148.5t-148 -98.5t-185.5 -35.5q-99 0 -184.5 35.5t-148 98.5t-98 148.5t-35.5 185.5t35.5 185.5t98 148.5t148 98.5t184.5 35.5zM624 786q-95 0 -174.5 -33t-136.5 -91.5t-88.5 -138.5
t-31.5 -173t31.5 -172.5t88.5 -138t136.5 -92t174.5 -33.5t174.5 33.5t136.5 92t88.5 138t31.5 172.5t-31.5 173t-88.5 138.5t-136.5 91.5t-174.5 33zM556 336q-4 0 -4 5v23q0 4 4 4h71q31 0 54.5 10t40 27.5t25 39.5t8.5 46q0 50 -34 77.5t-94 27.5q-62 0 -100.5 -29
t-50.5 -82q-1 -4 -6 -3l-26 7q-4 2 -3 6q16 65 64.5 100t123.5 35q78 0 122 -37t44 -99q0 -51 -28.5 -88.5t-71.5 -51.5q53 -11 82.5 -47t29.5 -91q0 -36 -13 -65t-36.5 -49t-56.5 -31t-73 -11q-73 0 -125 35.5t-69 99.5q-1 5 3 6l26 8q4 3 6 -3q12 -53 55 -82t105 -29
q63 0 100.5 31t37.5 91q0 52 -33 85.5t-107 33.5h-71z" />
    <glyph glyph-name="uni2463" unicode="&#x2463;" horiz-adv-x="1131" 
d="M624 818q100 0 185.5 -35.5t148 -98.5t98 -148.5t35.5 -185.5t-35.5 -185.5t-98 -148.5t-148 -98.5t-185.5 -35.5q-99 0 -184.5 35.5t-148 98.5t-98 148.5t-35.5 185.5t35.5 185.5t98 148.5t148 98.5t184.5 35.5zM624 786q-95 0 -174.5 -33t-136.5 -91.5t-89 -138.5
t-32 -173t32 -172.5t89 -138t136.5 -92t174.5 -33.5t174.5 33.5t136.5 92t89 138t32 172.5t-32 173t-89 138.5t-136.5 91.5t-174.5 33zM818 210q0 -5 -4 -5h-97v-129q0 -5 -5 -5h-29q-5 0 -5 5v129h-265q-5 0 -5 5v10q0 1 1 2l212 396q2 3 4 3h33q7 0 5 -6l-207 -375h222
v130q0 4 5 4h29q5 0 5 -4v-130h97q4 0 4 -4v-26z" />
    <glyph glyph-name="uni2464" unicode="&#x2464;" horiz-adv-x="1131" 
d="M624 818q100 0 185.5 -35.5t148 -98.5t98 -148.5t35.5 -185.5t-35.5 -185.5t-98 -148.5t-148 -98.5t-185.5 -35.5q-99 0 -184.5 35.5t-148 98.5t-98 148.5t-35.5 185.5t35.5 185.5t98 148.5t148 98.5t184.5 35.5zM624 786q-95 0 -174.5 -33t-136.5 -91.5t-89 -138.5
t-32 -173t32 -172.5t89 -138t136.5 -92t174.5 -33.5t174.5 33.5t136.5 92t89 138t32 172.5t-32 173t-89 138.5t-136.5 91.5t-174.5 33zM768 588q0 -5 -5 -5h-237l-14 -181h94q91 0 146 -41.5t55 -125.5q0 -38 -12 -70.5t-35 -56t-56.5 -36.5t-75.5 -13q-68 0 -117 35
t-65 100q-1 5 3 6l25 7q4 3 6 -2q12 -54 52 -82t97 -28q67 0 103 37t36 100q0 67 -42.5 101t-124.5 34h-123q-5 0 -5 5l18 244q0 4 5 4h267q5 0 5 -4v-28z" />
    <glyph glyph-name="uni2465" unicode="&#x2465;" horiz-adv-x="1131" 
d="M624 818q100 0 185.5 -35.5t148 -98.5t98 -148.5t35.5 -185.5t-35.5 -185.5t-98 -148.5t-148 -98.5t-185.5 -35.5q-99 0 -184.5 35.5t-148 98.5t-98 148.5t-35.5 185.5t35.5 185.5t98 148.5t148 98.5t184.5 35.5zM624 786q-95 0 -174.5 -33t-136.5 -91.5t-89 -138.5
t-32 -173t32 -172.5t89 -138t136.5 -92t174.5 -33.5t174.5 33.5t136.5 92t89 138t32 172.5t-32 173t-89 138.5t-136.5 91.5t-174.5 33zM674 621q10 0 5 -7l-152 -213q42 28 100 28q38 0 71 -13t57 -36.5t38 -57t14 -74.5q0 -42 -14.5 -76t-40 -58.5t-61.5 -37.5t-78 -13
q-41 0 -75.5 12.5t-59.5 35.5t-39 55t-14 72q0 34 10 68t30 62l171 251q2 2 4 2h34zM617 395q-36 0 -64.5 -11.5t-48 -32.5t-30 -49t-10.5 -61q0 -68 41.5 -105.5t108.5 -37.5q69 0 111 40t42 109t-41 108.5t-109 39.5z" />
    <glyph glyph-name="uni2466" unicode="&#x2466;" horiz-adv-x="1131" 
d="M624 818q100 0 185.5 -35.5t148 -98.5t98 -148.5t35.5 -185.5t-35.5 -185.5t-98 -148.5t-148 -98.5t-185.5 -35.5q-99 0 -184.5 35.5t-148 98.5t-98 148.5t-35.5 185.5t35.5 185.5t98 148.5t148 98.5t184.5 35.5zM624 786q-95 0 -174.5 -33t-136.5 -91.5t-89 -138.5
t-32 -173t32 -172.5t89 -138t136.5 -92t174.5 -33.5t174.5 33.5t136.5 92t89 138t32 172.5t-32 173t-89 138.5t-136.5 91.5t-174.5 33zM464 548q-4 0 -4 4v27q0 5 4 5h330q4 0 4 -5v-7q0 -4 -1 -7l-218 -528q-3 -3 -4 -3h-32q-8 0 -4 6l216 508h-291z" />
    <glyph glyph-name="uni2467" unicode="&#x2467;" horiz-adv-x="1131" 
d="M624 818q100 0 185.5 -35.5t148 -98.5t98 -148.5t35.5 -185.5t-35.5 -185.5t-98 -148.5t-148 -98.5t-185.5 -35.5q-99 0 -184.5 35.5t-148 98.5t-98 148.5t-35.5 185.5t35.5 185.5t98 148.5t148 98.5t184.5 35.5zM624 786q-95 0 -174.5 -33t-136.5 -91.5t-88.5 -138.5
t-31.5 -173t31.5 -172.5t88.5 -138t136.5 -92t174.5 -33.5t174.5 33.5t136.5 92t88.5 138t31.5 172.5t-31.5 173t-88.5 138.5t-136.5 91.5t-174.5 33zM619 630q74 0 120 -36t46 -105q0 -48 -25 -83.5t-73 -50.5q57 -14 86 -52t29 -92q0 -70 -48 -110.5t-135 -40.5
t-134.5 40.5t-47.5 110.5q0 54 29.5 92t86.5 52q-48 15 -73.5 50.5t-25.5 83.5q0 69 45.5 105t119.5 36zM619 595q-56 0 -91 -25.5t-35 -82.5q0 -29 9.5 -50.5t26.5 -36t40 -21.5t50 -7t50 7t40 21.5t26.5 36t9.5 50.5q0 57 -35 82.5t-91 25.5zM619 337q-60 0 -101 -29.5
t-41 -92.5q0 -31 10.5 -53.5t29.5 -37t45 -21.5t57 -7q62 0 102 28.5t40 90.5q0 63 -41 92.5t-101 29.5z" />
    <glyph glyph-name="uni2468" unicode="&#x2468;" horiz-adv-x="1131" 
d="M624 818q100 0 185.5 -35.5t148 -98.5t98 -148.5t35.5 -185.5t-35.5 -185.5t-98 -148.5t-148 -98.5t-185.5 -35.5q-99 0 -184.5 35.5t-148 98.5t-98 148.5t-35.5 185.5t35.5 185.5t98 148.5t148 98.5t184.5 35.5zM624 786q-95 0 -174.5 -33t-136.5 -91.5t-89 -138.5
t-32 -173t32 -172.5t89 -138t136.5 -92t174.5 -33.5t174.5 33.5t136.5 92t89 138t32 172.5t-32 173t-89 138.5t-136.5 91.5t-174.5 33zM565 50q-9 0 -4 7l152 215q-20 -14 -45.5 -21t-53.5 -7q-38 0 -71 13t-57 36.5t-37.5 57t-13.5 74.5q0 42 14 76t39.5 58t61 37.5
t77.5 13.5q41 0 75.5 -12.5t59.5 -35.5t39 -55t14 -72q0 -34 -10 -68.5t-29 -62.5l-172 -252q-2 -2 -5 -2h-34zM622 277q37 0 65.5 12.5t48 33.5t30 49t10.5 60q0 66 -41 104.5t-108 38.5q-69 0 -111 -40.5t-42 -109.5t41 -108.5t107 -39.5z" />
    <glyph glyph-name="uni24D5" unicode="&#x24d5;" horiz-adv-x="905" 
d="M511 724q81 0 150 -28.5t119.5 -79t79.5 -120t29 -150.5t-29 -150t-79.5 -120t-119.5 -79.5t-150 -28.5q-80 0 -149 28.5t-120 79.5t-80 120t-29 150t29 150.5t80 120t120 79t149 28.5zM511 697q-76 0 -139.5 -27t-110 -74t-72.5 -111.5t-26 -138.5t26 -138t72.5 -111
t110 -74t139.5 -27t139.5 27t110 74t72.5 111t26 138t-26 138.5t-72.5 111.5t-110 74t-139.5 27zM604 379q0 -5 -5 -5h-103v-257q0 -5 -4 -5h-22q-5 0 -5 5v257h-63q-5 0 -5 5v19q0 4 5 4h63v47q0 60 27.5 87.5t67.5 27.5q26 0 47.5 -6t39.5 -16q4 0 2 -6l-8 -16
q-2 -2 -7 -1q-16 8 -33 12.5t-37 4.5q-13 0 -25 -4t-21.5 -14.5t-15.5 -28t-6 -43.5v-44h103q5 0 5 -4v-19z" />
    <glyph glyph-name="uni24E3" unicode="&#x24e3;" horiz-adv-x="905" 
d="M511 724q81 0 150 -28.5t119.5 -79t79.5 -120t29 -150.5t-29 -150t-79.5 -120t-119.5 -79.5t-150 -28.5q-80 0 -149 28.5t-120 79.5t-80 120t-29 150t29 150.5t80 120t120 79t149 28.5zM511 697q-76 0 -139.5 -27t-110 -74t-72.5 -111.5t-26 -138.5t26 -138t72.5 -111
t110 -74t139.5 -27t139.5 27t110 74t72.5 111t26 138t-26 138.5t-72.5 111.5t-110 74t-139.5 27zM493 532q5 0 5 -5v-82h97q4 0 4 -4v-19q0 -5 -4 -5h-97v-191q0 -27 9.5 -41.5t39.5 -14.5q24 0 50 14q5 3 7 -2l8 -17q3 -3 -2 -5q-16 -10 -34.5 -15t-34.5 -5q-40 0 -57.5 22
t-17.5 60v195h-65q-5 0 -5 5v19q0 4 5 4h69l10 83q2 4 5 4h8z" />
    <glyph glyph-name="uni24EA" unicode="&#x24ea;" horiz-adv-x="1131" 
d="M624 818q100 0 185.5 -35.5t148 -98.5t98 -148.5t35.5 -185.5t-35.5 -185.5t-98 -148.5t-148 -98.5t-185.5 -35.5q-99 0 -184.5 35.5t-148 98.5t-98 148.5t-35.5 185.5t35.5 185.5t98 148.5t148 98.5t184.5 35.5zM624 786q-95 0 -174.5 -33t-136.5 -91.5t-88.5 -138.5
t-31.5 -173t31.5 -172.5t88.5 -138t136.5 -92t174.5 -33.5t174.5 33.5t136.5 92t88.5 138t31.5 172.5t-31.5 173t-88.5 138.5t-136.5 91.5t-174.5 33zM623 630q58 0 97.5 -24t63.5 -64t34.5 -91t10.5 -105t-10.5 -105.5t-34.5 -91.5t-63.5 -64.5t-97.5 -24.5
q-57 0 -96.5 24.5t-64 64.5t-35 91.5t-10.5 105.5t10.5 105t35 91t64 64t96.5 24zM623 594q-48 0 -80 -21t-50.5 -56t-26.5 -79.5t-8 -91.5t7.5 -91.5t26.5 -79.5t51 -56.5t80 -21.5t80 21.5t51 56.5t26.5 79.5t7.5 91.5t-7.5 91.5t-26.5 79.5t-51 56t-80 21z" />
    <glyph glyph-name="uni24FF" unicode="&#x24ff;" horiz-adv-x="1131" 
d="M624 818q100 0 185.5 -35.5t148 -98.5t98 -148.5t35.5 -185.5t-35.5 -185.5t-98 -148.5t-148 -98.5t-185.5 -35.5q-99 0 -184.5 35.5t-148 98.5t-98 148.5t-35.5 185.5t35.5 185.5t98 148.5t148 98.5t184.5 35.5zM624 631q-57 0 -96.5 -24t-64 -64t-35 -91t-10.5 -105
t11 -105.5t35 -91.5t63.5 -64.5t96.5 -24.5q58 0 97.5 24.5t63.5 64.5t34.5 91.5t10.5 105.5t-10.5 105t-34.5 91t-63.5 64t-97.5 24zM624 595q49 0 81 -21t50.5 -56t26 -79.5t7.5 -91.5t-7.5 -91.5t-26 -79.5t-50.5 -56.5t-81 -21.5q-48 0 -80 21.5t-50.5 56.5t-26.5 79.5
t-8 91.5t8 91.5t26.5 79.5t50.5 56t80 21z" />
    <glyph glyph-name="filledbox" unicode="&#x25a0;" horiz-adv-x="1238" 
d="M230 -100q-5 0 -5 5v890q0 5 5 5h895q5 0 5 -5v-890q0 -5 -5 -5h-895z" />
    <glyph glyph-name="uni25A1" unicode="&#x25a1;" horiz-adv-x="1238" 
d="M230 -100q-5 0 -5 5v890q0 5 5 5h895q5 0 5 -5v-890q0 -5 -5 -5h-895zM1095 -68v836h-835v-836h835z" />
    <glyph glyph-name="uni25AA" unicode="&#x25aa;" horiz-adv-x="643" 
d="M256 222q-4 0 -4 5v246q0 5 4 5h247q5 0 5 -5v-246q0 -5 -5 -5h-247z" />
    <glyph glyph-name="triagup" unicode="&#x25b2;" horiz-adv-x="800" 
d="M88 50q-7 0 -5 7l313 585q4 10 8 0l313 -585q4 -7 -5 -7h-624z" />
    <glyph glyph-name="uni25B6" unicode="&#x25b6;" horiz-adv-x="780" 
d="M107 38q-7 -2 -7 5v624q0 9 7 5l585 -313q10 -4 0 -8z" />
    <glyph glyph-name="triagdn" unicode="&#x25bc;" horiz-adv-x="800" 
d="M712 630q9 0 5 -7l-313 -585q-4 -10 -8 0l-313 585q-2 7 5 7h624z" />
    <glyph glyph-name="uni25C0" unicode="&#x25c0;" horiz-adv-x="780" 
d="M680 43q0 -7 -7 -5l-585 313q-10 4 0 8l585 313q7 4 7 -5v-624z" />
    <glyph glyph-name="lozenge" unicode="&#x25ca;" horiz-adv-x="587" 
d="M598 350q1 -3 -1 -7l-284 -352q-3 -3 -7 -3h-25q-4 0 -6 3l-170 352q-1 2 1 7l286 359q3 3 7 3h25q4 0 5 -3zM407 673l-260 -330l151 -317l260 324z" />
    <glyph glyph-name="circle" unicode="&#x25cb;" horiz-adv-x="1086" 
d="M601 818q100 0 185.5 -35.5t148 -98.5t98 -148.5t35.5 -185.5t-35.5 -185.5t-98 -148.5t-148 -98.5t-185.5 -35.5q-99 0 -184.5 35.5t-148 98.5t-98 148.5t-35.5 185.5t35.5 185.5t98 148.5t148 98.5t184.5 35.5zM601 786q-95 0 -174.5 -33t-136.5 -91.5t-88.5 -138.5
t-31.5 -173t31.5 -172.5t88.5 -138t136.5 -92t174.5 -33.5q96 0 175.5 33.5t136.5 92t88.5 138t31.5 172.5t-31.5 173t-88.5 138.5t-136.5 91.5t-175.5 33z" />
    <glyph glyph-name="uni25CF" unicode="&#x25cf;" horiz-adv-x="1086" 
d="M601 818q100 0 185.5 -35.5t148 -98.5t98 -148.5t35.5 -185.5t-35.5 -185.5t-98 -148.5t-148 -98.5t-185.5 -35.5q-99 0 -184.5 35.5t-148 98.5t-98 148.5t-35.5 185.5t35.5 185.5t98 148.5t148 98.5t184.5 35.5z" />
    <glyph glyph-name="uni2605" unicode="&#x2605;" horiz-adv-x="977" 
d="M483 739q4 14 9 0l91 -281h300q13 0 3 -8l-242 -180l89 -286q2 -6 0 -8t-7 3l-239 179l-236 -179q-5 -5 -7 -3t0 8l89 286l-242 180q-10 8 3 8h301z" />
    <glyph glyph-name="uni2606" unicode="&#x2606;" horiz-adv-x="998" 
d="M493 757q5 13 10 0l93 -289h308q14 0 3 -8l-248 -185l91 -293q3 -15 -7 -5l-245 184l-243 -184q-5 -5 -6.5 -3.5t0.5 8.5l91 293l-249 185q-10 8 3 8h309zM422 441h-258l208 -155l-75 -243l201 153l204 -155l-76 245l208 155h-257l-79 244z" />
    <glyph glyph-name="uni261C" unicode="&#x261c;" horiz-adv-x="1160" 
d="M1090 415h-243q-35 61 -87.5 84.5t-112.5 23.5q-24 0 -48 -3l-203 -26q-8 -1 -18 -5.5t-10 -17.5q0 -28 23 -40t69 -12q27 0 63.5 3t72.5 10q12 -17 25 -32.5t30.5 -29.5t42 -25.5t58.5 -19.5l-7 -23q-37 8 -63.5 20.5t-49.5 32.5q-2 -23 -23 -37q40 -7 49 -47
q5 -19 -5 -38.5t-33 -28.5q14 -3 24.5 -12.5t13.5 -27.5q5 -23 -7.5 -42.5t-41.5 -24.5l-26 -5q30 -6 64 -6q60 0 120 18t98 51h225v-24h-215q-45 -35 -105.5 -52t-122.5 -17q-32 0 -63.5 5t-58.5 14l-28 -6q-28 -5 -50.5 4t-28.5 35q-5 16 -0.5 29.5t12.5 21.5
q-32 -1 -49.5 13.5t-22.5 37.5q-3 17 2.5 33t19.5 24q-20 1 -35 13.5t-20 31.5q-4 14 0.5 31t22.5 28l-144 -11q-36 -4 -56 11.5t-20 42.5t21.5 41t57.5 16l138 13q5 11 15.5 17t22.5 8l215 29q24 3 48 3q62 0 120 -24.5t97 -83.5h227v-24zM211 454q-27 -2 -41.5 -9.5
t-14.5 -24.5q0 -32 54 -31l223 11q-86 3 -90 66zM402 372q-29 -5 -43 -17t-10 -32q2 -20 19.5 -27t46.5 -2l149 26q48 9 43 45q-2 14 -14 24.5t-46 5.5zM634 266q-4 20 -19.5 27.5t-48.5 1.5l-142 -25q-26 -5 -35 -19t-7 -30q3 -16 17.5 -27t42.5 -6l144 26q29 5 39.5 19
t8.5 33zM478 169q-27 -5 -33.5 -19t-3.5 -27t15 -20.5t33 -4.5l114 21q20 4 26.5 17t4.5 27q-2 13 -15.5 20.5t-35.5 3.5z" />
    <glyph glyph-name="uni261D" unicode="&#x261d;" horiz-adv-x="657" 
d="M470 -199v243q36 21 59 49t34.5 60.5t14 68t-2.5 70.5l-26 202q-1 8 -6 18t-18 10q-52 0 -52 -92q0 -27 3 -63t10 -72q-16 -12 -32 -25.5t-29.5 -31t-25 -41.5t-20.5 -59l-22 8q8 37 20 63t33 49q-23 3 -38 23q-8 -41 -46 -49q-19 -5 -38.5 5.5t-29.5 33.5
q-3 -14 -12.5 -24.5t-27.5 -14.5q-23 -5 -42 7.5t-24 41.5l-5 26q-7 -33 -6.5 -72t9 -77.5t24 -73.5t36.5 -59v-224h-24v214q-27 35 -43 79t-22.5 91t-2.5 94t17 86l-6 29q-5 28 4 50t35 29q16 5 29.5 0.5t21.5 -13.5q-1 32 14 50t38 23q17 3 33 -3t23 -20q2 21 14 35.5
t31 19.5q14 4 31 -0.5t28 -22.5l-11 144q-3 36 12.5 56t42.5 20t40 -21t17 -57l13 -139q20 -10 25 -38l28 -214q5 -37 2.5 -74.5t-14.5 -72t-35 -65t-58 -53.5v-227h-23zM508 680q-2 27 -9 41t-24 14q-33 0 -32 -54l12 -223q2 43 17.5 65.5t48.5 24.5zM426 488q-9 61 -48 54
q-38 -6 -29 -67l25 -149q9 -46 45 -43q14 2 25 14.5t6 45.5zM320 257q20 4 27.5 19.5t2.5 47.5l-25 143q-5 25 -19.5 34.5t-30.5 6.5q-16 -2 -26.5 -16.5t-5.5 -43.5l25 -143q5 -30 19 -40.5t33 -7.5zM223 412q-5 27 -19 33.5t-27 4.5q-13 -3 -20.5 -15.5t-4.5 -32.5
l21 -114q4 -21 17 -27.5t27 -3.5q13 2 21 15t4 35z" />
    <glyph glyph-name="uni261E" unicode="&#x261e;" horiz-adv-x="1114" 
d="M357 439q40 59 97.5 83.5t120.5 24.5q24 0 48 -3l213 -29q29 -3 38 -25l138 -13q36 -4 58 -17t22 -40t-20.5 -42.5t-56.5 -11.5l-143 11q17 -11 21.5 -28t0.5 -31q-5 -19 -19.5 -31.5t-35.5 -13.5q14 -8 20.5 -24t2.5 -33q-5 -23 -22.5 -37.5t-49.5 -13.5q9 -8 13 -21.5
t0 -29.5q-8 -26 -29.5 -35t-50.5 -4l-28 6q-28 -9 -59 -14t-64 -5q-62 0 -122 17t-105 52h-215v24h225q38 -33 98 -51t120 -18q34 0 64 6l-26 5q-29 5 -42 24.5t-8 42.5q4 18 14.5 27.5t24.5 12.5q-23 9 -33 28.5t-5 38.5q9 39 48 47q-10 7 -15 16.5t-7 20.5
q-23 -20 -50 -32.5t-63 -20.5l-8 23q35 8 59.5 19.5t42 25.5t31 29.5t25.5 32.5q36 -7 72 -10t63 -3q46 0 68.5 12t22.5 40q0 13 -9.5 17.5t-17.5 5.5l-203 26q-24 3 -48 3q-59 0 -112 -23.5t-88 -84.5h-243v24h227zM877 466q-3 -63 -89 -66l223 -11q54 -1 54 31
q0 17 -14.5 24.5t-41.5 9.5zM673 395q-33 5 -45.5 -5.5t-14.5 -24.5q-3 -36 43 -45l149 -26q29 -5 46.5 2t19.5 27q8 40 -53 49zM587 266q-3 -19 7.5 -33t40.5 -19l143 -26q28 -5 42.5 6t16.5 27q3 16 -6 30t-34 19l-143 25q-32 6 -48 -1.5t-19 -27.5zM637 187
q-22 4 -35 -3.5t-15 -20.5q-3 -14 3.5 -27t27.5 -17l113 -21q21 -3 33.5 4.5t14.5 20.5q3 13 -4 27t-33 19z" />
    <glyph glyph-name="uni261F" unicode="&#x261f;" horiz-adv-x="652" 
d="M493 535q35 -23 58 -53.5t35 -65t14.5 -72t-2.5 -74.5l-29 -214q-3 -28 -25 -38l-13 -139q-4 -36 -16.5 -57t-39.5 -21t-42.5 20t-12.5 56l11 143q-11 -18 -28 -21.5t-31 -1.5q-19 5 -31 20t-14 35q-7 -14 -23 -19.5t-33 -1.5q-23 5 -38 22.5t-14 49.5q-8 -9 -21.5 -13.5
t-29.5 0.5q-26 7 -35 29t-4 50l6 29q-13 39 -17 86t2 94t22.5 91.5t42.5 78.5v214h25v-225q-21 -24 -36.5 -58.5t-24 -73t-9 -78t6.5 -72.5l4 27q5 29 24.5 41.5t42.5 7.5q18 -3 27.5 -14t12.5 -25q9 23 28.5 33t38.5 5q39 -9 47 -48q15 20 37 22q-20 23 -32 50t-21 63l23 7
q8 -34 19.5 -58.5t25.5 -42t30 -30.5t32 -25q-7 -36 -10 -72t-3 -63q0 -92 52 -92q13 0 17.5 9.5t6.5 18.5l26 202q5 35 2.5 70.5t-14 68t-34.5 60.5t-59 49v243h23v-227zM241 255q4 22 -3.5 35.5t-20.5 15.5q-14 2 -27 -4.5t-17 -26.5l-21 -114q-3 -20 4.5 -32.5
t20.5 -15.5q13 -2 27 4t19 33zM320 306q-19 2 -33 -8.5t-19 -39.5l-25 -144q-5 -28 5.5 -42.5t26.5 -17.5q16 -2 30.5 7t19.5 35l24 143q6 32 -1.5 47.5t-27.5 19.5zM449 219q5 34 -5.5 46t-24.5 14q-36 5 -45 -43l-25 -149q-5 -29 2 -46.5t26 -19.5q20 -4 32 10t17 43z
M520 15q-62 4 -65 89l-12 -223q-1 -54 32 -54q17 0 24 14.5t9 41.5z" />
    <glyph glyph-name="uni2630" unicode="&#x2630;" horiz-adv-x="919" 
d="M208 635q-4 0 -4 5v27q0 5 4 5h631q5 0 5 -5v-27q0 -5 -5 -5h-631zM208 366q-4 0 -4 5v27q0 4 4 4h631q5 0 5 -4v-27q0 -5 -5 -5h-631zM208 96q-4 0 -4 5v27q0 5 4 5h631q5 0 5 -5v-27q0 -5 -5 -5h-631z" />
    <glyph glyph-name="uni2639" unicode="&#x2639;" horiz-adv-x="903" 
d="M509 722q80 0 149 -29t119.5 -79.5t79.5 -119.5t29 -149q0 -79 -29 -148t-79.5 -120t-119.5 -80t-149 -29q-79 0 -148 29t-120 80t-80 120t-29 148q0 80 29 149t80 119.5t120 79.5t148 29zM509 694q-75 0 -138.5 -27t-110 -74.5t-72.5 -111t-26 -136.5t26 -136.5
t72.5 -110.5t110 -74.5t138.5 -27.5t139 27.5t110.5 74.5t72.5 110.5t26 136.5t-26 136.5t-72.5 111t-110.5 74.5t-139 27zM395 479q22 0 36 -13.5t14 -36.5q0 -22 -14 -35.5t-36 -13.5t-36 13.5t-14 35.5q0 23 14 36.5t36 13.5zM622 479q22 0 36 -13.5t14 -36.5
q0 -22 -14 -35.5t-36 -13.5t-36.5 13.5t-14.5 35.5q0 23 14.5 36.5t36.5 13.5zM508 244q-32 0 -59 -8.5t-48.5 -22t-38.5 -31.5t-29 -37q-4 -4 -7 -1l-14 10q-3 4 -1 6q13 20 31 39t42.5 35t55.5 25.5t68 9.5q38 0 69 -9.5t55.5 -25.5t42.5 -35t31 -39q1 -1 -1 -6l-14 -10
q-3 -3 -7 1q-12 19 -29 37t-39 31.5t-49 22t-59 8.5z" />
    <glyph glyph-name="smileface" unicode="&#x263a;" horiz-adv-x="903" 
d="M509 722q80 0 149 -29t119.5 -79.5t79.5 -119.5t29 -149q0 -79 -29 -148t-79.5 -120t-119.5 -80t-149 -29q-79 0 -148 29t-120 80t-80 120t-29 148q0 80 29 149t80 119.5t120 79.5t148 29zM509 694q-75 0 -138.5 -27t-110 -74.5t-72.5 -111t-26 -136.5t26 -136.5
t72.5 -110.5t110 -74.5t138.5 -27.5t139 27.5t110.5 74.5t72.5 110.5t26 136.5t-26 136.5t-72.5 111t-110.5 74.5t-139 27zM395 479q22 0 36 -13.5t14 -36.5q0 -22 -14 -35.5t-36 -13.5t-36 13.5t-14 35.5q0 23 14 36.5t36 13.5zM622 479q22 0 36 -13.5t14 -36.5
q0 -22 -14 -35.5t-36 -13.5t-36.5 13.5t-14.5 35.5q0 23 14.5 36.5t36.5 13.5zM508 166q32 0 59 8.5t49 22t39 31.5t29 37q4 4 7 1l14 -10q2 -5 1 -6q-13 -19 -31 -38.5t-42.5 -35.5t-55.5 -25.5t-69 -9.5q-37 0 -68 9.5t-55.5 25.5t-42.5 35.5t-31 38.5q-2 3 1 6l14 10
q3 3 7 -1q12 -19 29 -37t38.5 -31.5t48.5 -22t59 -8.5z" />
    <glyph glyph-name="invsmileface" unicode="&#x263b;" horiz-adv-x="885" 
d="M501 715q80 0 147 -28.5t116.5 -78.5t77 -117.5t27.5 -145.5q0 -77 -27.5 -144.5t-77 -117.5t-116.5 -79t-147 -29t-147.5 29t-117 79t-77 117.5t-27.5 144.5q0 78 27.5 145.5t77 117.5t117 78.5t147.5 28.5zM386 479q-22 0 -36 -13.5t-14 -36.5q0 -22 14 -35.5t36 -13.5
q23 0 36.5 13.5t13.5 35.5q0 23 -13.5 36.5t-36.5 13.5zM613 479q-22 0 -36 -13.5t-14 -36.5q0 -22 14 -35.5t36 -13.5t36 13.5t14 35.5q0 23 -14 36.5t-36 13.5zM500 166q-33 0 -60.5 8.5t-50 23t-39.5 33t-29 38.5l-21 -16q12 -19 30.5 -39t43 -36.5t56 -26.5t70.5 -10
t70 10t55.5 26.5t43 36.5t30.5 39l-21 16q-12 -20 -29 -38.5t-39.5 -33t-49.5 -23t-60 -8.5z" />
    <glyph glyph-name="spade" unicode="&#x2660;" horiz-adv-x="807" 
d="M619 456q38 -37 61.5 -79.5t23.5 -90.5q0 -66 -40 -104.5t-109 -38.5q-29 0 -52 9.5t-40 26t-28 38t-16 46.5h-7q0 -50 6 -89t15 -70t21 -54.5t24 -41.5q5 -8 -4 -8h-142q-9 0 -4 8q12 18 24 41.5t21 54.5t15 70t6 89h-7q-5 -25 -16 -46.5t-27.5 -38t-39.5 -26t-52 -9.5
q-69 0 -109 38.5t-40 104.5q0 48 23.5 90.5t61.5 79.5l210 203q5 5 12 0z" />
    <glyph glyph-name="club" unicode="&#x2663;" horiz-adv-x="764" 
d="M124 317q0 33 11 60.5t30.5 47t47 30t60.5 10.5q5 0 14.5 -1.5t14.5 -2.5q-7 13 -11.5 28t-4.5 31q0 67 41 107.5t108 40.5q66 0 107 -40.5t41 -107.5q0 -16 -5 -31.5t-12 -28.5q6 1 15.5 3t16.5 2q67 0 107 -41t40 -107q0 -68 -40 -108.5t-107 -40.5q-68 0 -106.5 40.5
t-38.5 108.5h-9q0 -50 6 -97t15.5 -87.5t21.5 -72.5t24 -52q5 -8 -5 -8h-141q-10 0 -5 8q12 20 24 52t21.5 72.5t15.5 87.5t6 97h-9q0 -68 -39 -108.5t-106 -40.5t-108 40.5t-41 108.5z" />
    <glyph glyph-name="heart" unicode="&#x2665;" horiz-adv-x="786" 
d="M237 267q-41 39 -66 84.5t-25 96.5q0 71 43 112t117 41q31 0 56.5 -10t45 -27.5t33 -41t19.5 -49.5h15q6 26 19 49.5t32.5 41t45.5 27.5t57 10q74 0 117 -41t43 -112q0 -51 -25.5 -96t-66.5 -85l-223 -217q-6 -6 -12 0z" />
    <glyph glyph-name="diamond" unicode="&#x2666;" horiz-adv-x="626" 
d="M120 297q-4 4 0 6q39 42 72 80.5t61.5 77t54 79.5t49.5 88q6 6 12 0q24 -47 49.5 -88t54 -79.5t61.5 -77t72 -80.5q4 -2 0 -6q-39 -42 -71.5 -80.5t-61 -77t-54 -79.5t-50.5 -88q-2 -3 -6 -3t-6 3q-25 47 -50.5 88t-54 79.5t-61 77t-71.5 80.5z" />
    <glyph glyph-name="uni2706" unicode="&#x2706;" horiz-adv-x="905" 
d="M511 724q81 0 150 -28.5t119.5 -79t79.5 -120t29 -150.5t-29 -150t-79.5 -120t-119.5 -79.5t-150 -28.5q-80 0 -149 28.5t-120 79.5t-80 120t-29 150t29 150.5t80 120t120 79t149 28.5zM511 697q-76 0 -139.5 -27t-110 -74t-72.5 -111.5t-26 -138.5t26 -138t72.5 -111
t110 -74t139.5 -27t139.5 27t110 74t72.5 111t26 138t-26 138.5t-72.5 111.5t-110 74t-139.5 27zM386 135q-3 -3 -6 0q-19 12 -35 26.5t-26 32.5t-11.5 39t8.5 45q32 83 89 155.5t129 127.5q23 17 55 17q25 0 50.5 -10.5t45.5 -30.5q1 0 1 -1.5t-1 -2.5q-9 -29 -33 -58.5
t-54 -52.5q-4 -2 -6 0l-46 31q-57 -25 -84.5 -62.5t-37.5 -97.5l45 -42v-2q2 0 0 -2q-14 -35 -36.5 -65t-46.5 -47zM638 393q-4 -2 -6 0l-18 14q-5 3 -1 7q56 45 84 103q4 5 8 1l16 -16q2 -2 1 -5q-9 -27 -32 -55.5t-52 -48.5zM429 105q-3 -1 -6 0l-21 14q-4 3 0 7
q52 46 77 107q2 7 7 2l19 -16q2 -2 2 -5q-8 -28 -30 -58.5t-48 -50.5z" />
    <glyph glyph-name="uni2709" unicode="&#x2709;" horiz-adv-x="1149" 
d="M198 0q-5 0 -5 5v599q0 5 5 5h855q5 0 5 -5v-599q0 -5 -5 -5h-855zM628 261l385 321h-775zM520 316l-298 245v-519zM733 314l295 -271v518zM541 299l-295 -272h761l-295 270l-84 -70z" />
    <glyph glyph-name="uni2713" unicode="&#x2713;" horiz-adv-x="632" 
d="M141 404q-3 3 1 7l25 12q6 2 7 -2l198 -334l257 545q0 3 6 3l25 -11q3 -1 3 -7l-274 -565q-2 -2 -4 -2h-27q-2 0 -2.5 0.5t-1.5 0.5z" />
    <glyph glyph-name="uni2715" unicode="&#x2715;" horiz-adv-x="793" 
d="M718 591q4 -4 0 -6l-238 -238l238 -238q4 -2 0 -6l-19 -19q-3 -3 -6 0l-238 238l-238 -238q-4 -2 -6 0l-19 19q-4 4 0 6l238 238l-238 237q-4 2 0 6l19 19q2 4 6 0l238 -237l238 238q3 2 6 0z" />
    <glyph glyph-name="uni275B" unicode="&#x275b;" horiz-adv-x="478" 
d="M286 288q-71 0 -109 46.5t-24 132.5q10 56 33.5 109t63.5 95.5t97 71.5t134 38q3 0 3 -3l4 -20q2 -6 -4 -6q-39 -3 -81 -16.5t-79.5 -39.5t-67 -64.5t-43.5 -91.5q12 15 29 26.5t36 18.5t37 10.5t32 3.5q70 0 108 -39.5t26 -110.5q-6 -35 -22 -64.5t-41.5 -51t-59 -33.5
t-72.5 -12z" />
    <glyph glyph-name="uni275C" unicode="&#x275c;" horiz-adv-x="478" 
d="M179 283q-3 -1 -5 3l-3 19q-2 6 5 6q39 3 80.5 16.5t79 39.5t66.5 65t44 92q-12 -16 -29 -27t-35.5 -18.5t-37 -11t-32.5 -3.5q-70 0 -107.5 39.5t-26.5 110.5q6 35 22.5 64.5t41.5 51t58.5 33.5t72.5 12q71 0 108.5 -46.5t23.5 -132.5q-9 -56 -32.5 -108.5t-63.5 -95
t-96.5 -71.5t-133.5 -38z" />
    <glyph glyph-name="uni275D" unicode="&#x275d;" horiz-adv-x="845" 
d="M654 288q-71 0 -109 46.5t-24 132.5q9 56 32.5 109t63.5 95.5t97 71.5t134 38q4 0 4 -3l4 -20q0 -6 -5 -6q-39 -3 -80.5 -16.5t-79 -39.5t-67 -64.5t-44.5 -91.5q12 15 29 26.5t36 18.5t37 10.5t32 3.5q70 0 108 -39.5t26 -110.5q-6 -35 -22 -64.5t-41 -51t-58.5 -33.5
t-72.5 -12zM286 288q-71 0 -109 46.5t-24 132.5q10 56 33.5 109t63.5 95.5t97 71.5t134 38q3 0 3 -3l4 -20q2 -6 -4 -6q-39 -3 -81 -16.5t-79.5 -39.5t-67 -64.5t-43.5 -91.5q12 15 29 26.5t36 18.5t37 10.5t32 3.5q70 0 108 -39.5t26 -110.5q-6 -35 -22 -64.5t-41.5 -51
t-59 -33.5t-72.5 -12z" />
    <glyph glyph-name="uni275E" unicode="&#x275e;" horiz-adv-x="845" 
d="M179 283q-3 -1 -5 3l-3 19q-2 6 5 6q39 3 80.5 16.5t79 39.5t66.5 65t44 92q-12 -16 -29 -27t-35.5 -18.5t-37 -11t-32.5 -3.5q-70 0 -107.5 39.5t-26.5 110.5q6 35 22.5 64.5t41.5 51t58.5 33.5t72.5 12q71 0 108.5 -46.5t23.5 -132.5q-9 -56 -32.5 -108.5t-63.5 -95
t-96.5 -71.5t-133.5 -38zM546 283q-1 -1 -5 3l-3 19q-2 6 5 6q39 3 80.5 16.5t79 39.5t67 65t44.5 92q-12 -16 -29.5 -27t-36 -18.5t-37 -11t-32.5 -3.5q-70 0 -107.5 39.5t-26.5 110.5q6 35 22.5 64.5t41.5 51t58.5 33.5t72.5 12q71 0 109 -46.5t24 -132.5
q-9 -56 -32.5 -108.5t-63.5 -95t-97 -71.5t-134 -38z" />
    <glyph glyph-name="uni275F" unicode="&#x275f;" horiz-adv-x="478" 
d="M296 311q71 0 108.5 -46.5t23.5 -132.5q-9 -56 -32.5 -108.5t-63.5 -95t-97 -72t-133 -38.5q-5 0 -5 4l-3 19q-2 6 5 6q39 3 80.5 16.5t78.5 39.5t66.5 65t44.5 92q-12 -16 -29 -27t-36 -18.5t-37 -11t-32 -3.5q-70 0 -108 39.5t-26 110.5q6 35 22 64.5t41.5 51t59 33.5
t72.5 12z" />
    <glyph glyph-name="uni2760" unicode="&#x2760;" horiz-adv-x="845" 
d="M296 311q71 0 108.5 -46.5t23.5 -132.5q-9 -56 -32.5 -108.5t-63.5 -95t-97 -72t-133 -38.5q-3 0 -5 4l-3 19q-2 6 5 6q39 3 80.5 16.5t78.5 39.5t66.5 65t44.5 92q-12 -16 -29 -27t-36 -18.5t-37 -11t-32 -3.5q-70 0 -108 39.5t-26 110.5q6 35 22 64.5t41.5 51t59 33.5
t72.5 12zM663 311q71 0 109 -46.5t24 -132.5q-9 -56 -33 -108.5t-63.5 -95t-96.5 -72t-134 -38.5q-3 0 -5 4l-3 19q-2 6 5 6q39 3 80.5 16.5t79 39.5t67 65t43.5 92q-12 -16 -29 -27t-36 -18.5t-37 -11t-32 -3.5q-70 0 -108 39.5t-26 110.5q6 35 22 64.5t41.5 51t59 33.5
t72.5 12z" />
    <glyph glyph-name="uni2766" unicode="&#x2766;" horiz-adv-x="750" 
d="M469 338q23 47 42.5 91t31.5 83q-38 15 -73 37t-67 41.5t-63 33.5t-62 14q-42 0 -64 -19.5t-23 -52.5q-1 -18 7.5 -40t31.5 -45q4 -4 -1 -7l-11 -9q-4 -2 -6 0q-26 26 -36.5 51t-9.5 53q1 39 28.5 65.5t78.5 26.5q32 0 61 -10.5t58 -26.5q26 49 56.5 68t56.5 19
q41 0 60.5 -25.5t19.5 -69.5q0 -39 -14 -90q36 -12 77 -12q39 0 60 18t23 44q5 46 -43 75q-5 2 -1 7l8 12q1 1 6 1q29 -19 42.5 -43t11.5 -50q-2 -37 -30 -62t-77 -25q-43 0 -83 14q-13 -43 -33 -87.5t-43 -89.5l5 -4q23 43 57.5 67t68.5 24q45 0 75.5 -26t30.5 -80
q0 -40 -16.5 -67.5t-41 -47t-53.5 -33.5t-53.5 -26.5t-41 -26.5t-16.5 -34q0 -24 14 -37.5t39 -13.5q42 0 73.5 19.5t52.5 51.5q2 5 7 1l3 -1q4 -2 2 -7q-29 -48 -72 -73.5t-101 -25.5q-62 0 -111 25t-83.5 66t-52.5 92.5t-18 103.5q0 44 9.5 75t26 51t38.5 29.5t46 9.5
q15 0 31 -5.5t29 -17.5t21 -30.5t6 -45.5zM412 613q33 -20 66.5 -41.5t71.5 -36.5q6 24 9.5 45t3.5 38q0 33 -14.5 51.5t-43.5 18.5t-52.5 -21.5t-40.5 -53.5z" />
    <glyph glyph-name="uni2767" unicode="&#x2767;" horiz-adv-x="812" 
d="M502 329q-48 23 -71 57.5t-23 63.5q0 41 26.5 65.5t71.5 24.5q35 0 60 -14t43 -35.5t31.5 -46.5t26.5 -46.5t26.5 -35.5t31.5 -14q23 0 33.5 13.5t10.5 35.5q0 67 -67 111q-3 3 -1 6l3 5q0 5 6 1q45 -30 67.5 -67t22.5 -87q0 -57 -23.5 -104t-61 -80.5t-85 -52
t-95.5 -18.5q-80 0 -117 29t-37 73q0 18 7.5 35t21.5 30t33 19t42 2l3 5q-38 20 -83.5 31t-90.5 10h-19.5t-19.5 -2q19 -32 32 -65.5t13 -73.5q0 -33 -9 -57t-24 -39.5t-34 -23t-40 -7.5q-45 0 -76.5 32.5t-31.5 91.5q0 33 10 59t28 45.5t42.5 32.5t52.5 20q-23 38 -41 76
t-18 80q0 25 8 43.5t21 31t30 18.5t36 6q23 0 45.5 -9t41.5 -26q2 -2 0 -6l-9 -11q-2 -5 -6 -1q-18 16 -36.5 23t-35.5 7q-30 0 -50.5 -20t-20.5 -55q0 -41 18.5 -77.5t41.5 -74.5q12 2 24 3t25 1q46 0 93 -10t94 -33zM249 339q-53 -13 -86.5 -46t-33.5 -87q0 -51 24.5 -78
t59.5 -27q32 0 58 25.5t26 78.5q0 35 -14.5 68t-33.5 66z" />
    <glyph glyph-name="uni2776" unicode="&#x2776;" horiz-adv-x="1131" 
d="M624 818q100 0 185.5 -35.5t148 -98.5t98 -148.5t35.5 -185.5t-35.5 -185.5t-98 -148.5t-148 -98.5t-185.5 -35.5q-99 0 -184.5 35.5t-148 98.5t-98 148.5t-35.5 185.5t35.5 185.5t98 148.5t148 98.5t184.5 35.5zM640 617l-164 -52q-4 -3 -3 -6l7 -26q3 -4 7 -3l130 46
v-504q0 -5 5 -5h29q4 0 4 5v541q0 4 -4 4h-11z" />
    <glyph glyph-name="uni2777" unicode="&#x2777;" horiz-adv-x="1131" 
d="M624 818q100 0 185.5 -35.5t148 -98.5t98 -148.5t35.5 -185.5t-35.5 -185.5t-98 -148.5t-148 -98.5t-185.5 -35.5q-99 0 -184.5 35.5t-148 98.5t-98 148.5t-35.5 185.5t35.5 185.5t98 148.5t148 98.5t184.5 35.5zM482 487q13 54 51.5 82.5t98.5 28.5q55 0 89 -26t34 -82
q0 -42 -21 -79.5t-69 -88.5l-220 -233q-2 -2 -2 -3v-9q0 -5 5 -5h343q5 0 5 5v26q0 5 -5 5h-286l188 193q55 57 78 100.5t23 89.5q0 70 -44.5 105.5t-116.5 35.5q-73 0 -121.5 -35t-63.5 -100q-1 -3 3 -6l25 -7q3 -1 6 3z" />
    <glyph glyph-name="uni2778" unicode="&#x2778;" horiz-adv-x="1131" 
d="M624 818q100 0 185.5 -35.5t148 -98.5t98 -148.5t35.5 -185.5t-35.5 -185.5t-98 -148.5t-148 -98.5t-185.5 -35.5q-99 0 -184.5 35.5t-148 98.5t-98 148.5t-35.5 185.5t35.5 185.5t98 148.5t148 98.5t184.5 35.5zM630 336q74 0 106.5 -33.5t32.5 -85.5q0 -60 -37 -91
t-100 -31t-105.5 29t-55.5 82q-2 6 -6 3l-26 -8q-4 -2 -3 -6q17 -64 69 -99.5t125 -35.5q40 0 73 11t56.5 31t36.5 49t13 65q0 55 -29.5 91t-82.5 47q43 14 71.5 51.5t28.5 88.5q0 62 -44 99t-122 37q-75 0 -123.5 -35t-63.5 -100q-1 -4 3 -6l25 -7q5 -1 6 3q12 53 51 82
t100 29q60 0 94 -27.5t34 -77.5q0 -24 -8.5 -46t-24.5 -39.5t-40 -27.5t-54 -10h-71q-5 0 -5 -4v-23q0 -5 5 -5h71z" />
    <glyph glyph-name="uni2779" unicode="&#x2779;" horiz-adv-x="1131" 
d="M624 818q100 0 185.5 -35.5t148 -98.5t98 -148.5t35.5 -185.5t-35.5 -185.5t-98 -148.5t-148 -98.5t-185.5 -35.5q-99 0 -184.5 35.5t-148 98.5t-98 148.5t-35.5 185.5t35.5 185.5t98 148.5t148 98.5t184.5 35.5zM812 236q0 4 -5 4h-97v130q0 4 -4 4h-30q-4 0 -4 -4v-130
h-222l206 375q4 6 -4 6h-33q-3 0 -5 -3l-212 -396v-2v-10q0 -5 4 -5h266v-129q0 -5 4 -5h30q4 0 4 5v129h97q5 0 5 5v26z" />
    <glyph glyph-name="uni277A" unicode="&#x277a;" horiz-adv-x="1131" 
d="M624 818q100 0 185.5 -35.5t148 -98.5t98 -148.5t35.5 -185.5t-35.5 -185.5t-98 -148.5t-148 -98.5t-185.5 -35.5q-99 0 -184.5 35.5t-148 98.5t-98 148.5t-35.5 185.5t35.5 185.5t98 148.5t148 98.5t184.5 35.5zM760 616q0 4 -5 4h-267q-5 0 -5 -4l-18 -244q0 -5 4 -5
h124q82 0 124.5 -34t42.5 -101q0 -63 -36 -100t-103 -37q-57 0 -97 28t-52 82q-2 5 -6 2l-25 -7q-4 -1 -3 -6q16 -65 65 -100t117 -35q42 0 75.5 13t56.5 36.5t35 56t12 70.5q0 84 -55 125.5t-146 41.5h-94l13 181h238q5 0 5 5v28z" />
    <glyph glyph-name="uni277B" unicode="&#x277b;" horiz-adv-x="1131" 
d="M624 818q100 0 185.5 -35.5t148 -98.5t98 -148.5t35.5 -185.5t-35.5 -185.5t-98 -148.5t-148 -98.5t-185.5 -35.5q-99 0 -184.5 35.5t-148 98.5t-98 148.5t-35.5 185.5t35.5 185.5t98 148.5t148 98.5t184.5 35.5zM641 621q-2 0 -4 -2l-171 -251q-20 -28 -30 -62t-10 -68
q0 -40 14 -72t39 -55t59.5 -35.5t75.5 -12.5q42 0 78 13t61.5 37.5t40 58.5t14.5 76q0 41 -14 74.5t-38 57t-57 36.5t-71 13q-28 0 -53.5 -7t-45.5 -21l151 213q5 7 -4 7h-35zM618 395q68 0 109.5 -39.5t41.5 -108.5t-42.5 -109t-111.5 -40q-67 0 -108.5 37.5t-41.5 105.5
q0 33 10.5 61t30.5 49t48 32.5t64 11.5z" />
    <glyph glyph-name="uni277C" unicode="&#x277c;" horiz-adv-x="1131" 
d="M624 818q100 0 185.5 -35.5t148 -98.5t98 -148.5t35.5 -185.5t-35.5 -185.5t-98 -148.5t-148 -98.5t-185.5 -35.5q-99 0 -184.5 35.5t-148 98.5t-98 148.5t-35.5 185.5t35.5 185.5t98 148.5t148 98.5t184.5 35.5zM756 548l-216 -508q-4 -6 4 -6h32q1 0 4 3l218 528
q1 3 1 7v7q0 5 -5 5h-329q-4 0 -4 -5v-27q0 -4 4 -4h291z" />
    <glyph glyph-name="uni277D" unicode="&#x277d;" horiz-adv-x="1131" 
d="M624 818q100 0 185.5 -35.5t148 -98.5t98 -148.5t35.5 -185.5t-35.5 -185.5t-98 -148.5t-148 -98.5t-185.5 -35.5q-99 0 -184.5 35.5t-148 98.5t-98 148.5t-35.5 185.5t35.5 185.5t98 148.5t148 98.5t184.5 35.5zM621 630q-74 0 -119.5 -35.5t-45.5 -104.5
q0 -49 25 -84.5t73 -50.5q-57 -14 -86.5 -52t-29.5 -92q0 -70 48 -110.5t135 -40.5t134.5 40.5t47.5 110.5q0 54 -29 92t-86 52q48 15 73 50.5t25 83.5q0 69 -46 105t-119 36zM621 595q56 0 91 -25.5t35 -82.5q0 -29 -10 -50.5t-27 -36t-40 -21.5t-49 -7t-49 7t-40 21.5
t-27 36t-10 50.5q0 57 35 82.5t91 25.5zM621 337q60 0 101 -29.5t41 -92.5q0 -62 -40.5 -90.5t-101.5 -28.5q-31 0 -57 7t-45 21.5t-29.5 37t-10.5 53.5q0 63 41 92.5t101 29.5z" />
    <glyph glyph-name="uni277E" unicode="&#x277e;" horiz-adv-x="1131" 
d="M624 818q100 0 185.5 -35.5t148 -98.5t98 -148.5t35.5 -185.5t-35.5 -185.5t-98 -148.5t-148 -98.5t-185.5 -35.5q-99 0 -184.5 35.5t-148 98.5t-98 148.5t-35.5 185.5t35.5 185.5t98 148.5t148 98.5t184.5 35.5zM596 50q2 0 4 2l173 252q19 28 29 62.5t10 68.5
q0 40 -14 72t-39 55t-59.5 35.5t-75.5 12.5q-42 0 -77.5 -13.5t-61 -37.5t-40 -58t-14.5 -76q0 -41 14 -74.5t38 -57t57 -36.5t71 -13q57 0 99 28l-153 -215q-5 -7 4 -7h35zM619 277q-67 0 -108 39.5t-41 108.5t42.5 109.5t111.5 40.5q67 0 107.5 -38.5t40.5 -104.5
q0 -32 -10 -60t-29.5 -49t-48 -33.5t-65.5 -12.5z" />
    <glyph glyph-name="uni2B51" unicode="&#x2b51;" horiz-adv-x="587" 
d="M574 404q13 0 3 -8l-132 -97l48 -152q2 -6 0 -8t-7 3l-127 94l-124 -94q-5 -5 -7 -3t0 8l46 152l-130 97q-10 8 3 8h161l47 150q5 12 9 0l48 -150h162z" />
    <glyph glyph-name="uni2B52" unicode="&#x2b52;" horiz-adv-x="587" 
d="M572 404q13 0 3 -8l-130 -96l47 -152q2 -6 0 -8t-7 3l-125 95l-125 -95q-5 -5 -6.5 -3t0.5 8l46 152l-129 96q-10 8 3 8h159l48 149q5 12 9 0l47 -149h160zM397 382l-37 111l-35 -111h-123l101 -73l-38 -117l95 77l96 -77l-38 117l101 73h-122z" />
    <glyph glyph-name="uni2B6E" unicode="&#x2b6e;" horiz-adv-x="974" 
d="M360 615q6 2 8 -3l81 -200q1 -2 0.5 -4.5t-3.5 -3.5l-22 -10q-6 -2 -8 4l-58 155q-32 -38 -53 -90.5t-21 -122.5q0 -66 21 -123t61 -99.5t98 -66.5t131 -24q71 0 130.5 23t102 65t66.5 100.5t24 130.5q0 75 -26 138.5t-83 111.5q-2 2 -2.5 4.5t1.5 4.5l19 18q4 4 9 -1
q57 -48 89 -119t32 -159q0 -78 -26 -143.5t-73 -112.5t-114 -73.5t-149 -26.5t-146.5 26.5t-109.5 73t-69 111t-24 140.5q0 71 20 124.5t52 101.5l-173 -61q-6 -2 -8 3l-8 21q-5 5 2 7z" />
    <glyph glyph-name="uni2B6F" unicode="&#x2b6f;" horiz-adv-x="912" 
d="M958 535q6 -2 3 -7l-9 -21q-2 -5 -7 -3l-174 61q32 -48 52.5 -101.5t20.5 -124.5q0 -76 -24 -140.5t-69 -111t-110 -73t-147 -26.5t-149 26.5t-114 73.5t-73 112.5t-26 143.5q0 88 32 159t90 119q1 2 3.5 2.5t5.5 -1.5l18 -18q5 -4 0 -9q-57 -48 -83.5 -111.5
t-26.5 -138.5q0 -72 24 -130.5t67 -100.5t102.5 -65t130.5 -23q73 0 130.5 24t97.5 66.5t61 99.5t21 123q0 70 -21 122.5t-53 90.5l-58 -155q-2 -5 -8 -4l-22 10q-3 1 -3.5 3.5t0.5 4.5l81 200q3 4 8 3z" />
    <glyph glyph-name="uniE000" unicode="&#xe000;" horiz-adv-x="603" 
d="M163 545q0 50 17 92.5t47.5 73t72.5 47.5t91 17q50 0 92.5 -17t73 -47.5t47.5 -73t17 -92.5q0 -49 -17 -91t-47.5 -72.5t-73 -47.5t-92.5 -17q-49 0 -91 17t-72.5 47.5t-47.5 72.5t-17 91zM198 545q0 -42 14.5 -77.5t40 -62t61 -41t77.5 -14.5q44 0 79.5 14.5t60.5 41
t39 62t14 77.5t-14 78t-39 62t-60.5 40.5t-79.5 14.5q-42 0 -77.5 -14.5t-61 -40.5t-40 -62t-14.5 -78zM447 612v-59h58v-60h-58v-58h-60v58h-60v-58h-59v177h59v-59h60v118h118v-59h-58z" />
    <glyph glyph-name="uniE001" unicode="&#xe001;" horiz-adv-x="688" 
d="M428 740q53 0 99.5 -17.5t81.5 -51.5t55.5 -84.5t20.5 -116.5q0 -70 -21 -136t-55.5 -127t-77.5 -116.5t-88 -104.5q0 -1 -2 -1h-1h-19q-2 0 -3 1q-45 49 -88.5 104.5t-78 116.5t-55.5 127t-21 136q0 66 20.5 116.5t55 84.5t80.5 51.5t97 17.5zM428 642q-32 0 -58 -11
t-44.5 -30.5t-28.5 -47t-10 -59.5t10 -59t28.5 -46.5t44.5 -30.5t58 -11q65 0 103 41.5t38 105.5q0 65 -38 106.5t-103 41.5z" />
    </font>
</defs>
</svg>
