<?xml version="1.0" standalone="no"?>
<!DOCTYPE svg PUBLIC "-//W3C//DTD SVG 1.1//EN" "http://www.w3.org/Graphics/SVG/1.1/DTD/svg11.dtd" >
<svg xmlns="http://www.w3.org/2000/svg" xmlns:xlink="http://www.w3.org/1999/xlink" version="1.1">
<metadata>
Created by FontForge 20170731 at Wed Sep 22 08:56:22 2021
 By Aleksey,,,
Copyright (c) 2021 by Hurufatfont Type Foundry-Oguzhan Cengiz. All rights reserved.
</metadata>
<defs>
<font id="Rapor-RegularItalic" horiz-adv-x="627" >
  <font-face 
    font-family="Rapor Regular"
    font-weight="400"
    font-style="italic"
    font-stretch="normal"
    units-per-em="1000"
    panose-1="0 0 0 0 0 0 0 0 0 0"
    ascent="800"
    descent="-200"
    x-height="440"
    cap-height="700"
    bbox="-124.172 -220 1162.67 964"
    underline-thickness="50"
    underline-position="-175"
    slope="-9.5"
    unicode-range="U+0002-FB06"
  />
<missing-glyph horiz-adv-x="350" 
d="M350 -200h-350v940h350v-940zM50 690v-840h250v840h-250zM175 588l72 72l33 -33l-72 -72l72 -72l-33 -33l-72 72l-72 -72l-33 33l72 72l-72 72l33 33zM175 308l72 72l33 -33l-72 -72l72 -72l-33 -33l-72 72l-72 -72l-33 33l72 72l-72 72l33 33zM175 18l72 72l33 -33
l-72 -72l72 -72l-33 -33l-72 72l-72 -72l-33 33l72 72l-72 72l33 33z" />
    <glyph glyph-name="f_f" unicode="ff" horiz-adv-x="675" 
d="M700 440q10 0 8 -10l-11 -64q-2 -9 -11 -9h-129l-57 -347q-2 -10 -11 -10h-74q-9 0 -7 10l57 347h-214l-57 -347q-2 -10 -12 -10h-73q-10 0 -8 10l58 347h-71q-8 0 -8 9l11 64q2 10 11 10h70l19 112q8 44 29 79t51.5 59t68 37t78.5 13q87 0 148 -53q59 53 148 53
q38 0 66.5 -7t56.5 -23q9 -4 2 -13l-38 -56q-6 -9 -14 -5q-41 22 -89 22q-47 0 -73 -27.5t-33 -70.5l-21 -120h129zM479 440l21 126q2 13 5.5 24t7.5 22q-20 26 -48.5 36t-59.5 10q-55 0 -84.5 -31t-37.5 -81l-18 -106h214z" />
    <glyph glyph-name="fi" unicode="fi" horiz-adv-x="552" 
d="M564 440q10 0 8 -10l-70 -420q-2 -10 -11 -10h-76q-9 0 -7 10l57 347h-214l-57 -347q-2 -10 -12 -10h-73q-10 0 -8 10l58 347h-71q-8 0 -8 9l11 64q2 10 11 10h70l19 111q8 45 30 80t54.5 59t73 37t85.5 13q52 0 95 -15.5t74 -44.5q5 -7 -2 -14l-54 -50q-7 -8 -14 -1
q-41 43 -113 43q-57 0 -92.5 -29.5t-44.5 -83.5l-18 -105h299z" />
    <glyph glyph-name="fl" unicode="fl" horiz-adv-x="555" 
d="M369 440q11 0 9 -10l-11 -64q-2 -9 -12 -9h-104l-57 -347q-2 -10 -12 -10h-73q-10 0 -8 10l58 347h-71q-8 0 -8 9l11 64q2 10 11 10h70l19 112q7 42 28 76.5t52.5 59t72 38.5t86.5 14q21 0 44.5 -2.5t46.5 -9.5t45 -19t40 -30q5 -6 3 -14l-109 -655q-2 -10 -11 -10h-74
q-9 0 -7 10l103 622q-17 12 -41 19t-55 7q-54 0 -88.5 -29t-43.5 -83l-18 -106h104z" />
    <glyph glyph-name="f_f_i" unicode="ffi" horiz-adv-x="856" 
d="M868 440q11 0 9 -10l-70 -420q-2 -10 -12 -10h-73q-10 0 -8 10l57 347h-214l-57 -347q-2 -10 -11 -10h-74q-9 0 -7 10l57 347h-214l-57 -347q-2 -10 -12 -10h-73q-10 0 -8 10l58 347h-71q-8 0 -8 9l11 64q2 10 11 10h70l19 112q8 45 30 80t54.5 59t72.5 36.5t82 12.5
q37 0 78 -12t76 -40q34 26 74.5 39t82.5 13t86 -13t80 -48q6 -6 0 -13l-53 -51q-8 -8 -15 0q-21 25 -51.5 34t-62.5 9q-54 0 -91 -31t-45 -81l-18 -106h297zM479 440l18 112q6 35 24 65q-23 23 -53 32t-53 9q-58 0 -91 -31t-41 -81l-18 -106h214z" />
    <glyph glyph-name="f_f_l" unicode="ffl" horiz-adv-x="861" 
d="M745 740q42 0 85.5 -11.5t80.5 -49.5q6 -7 4 -14l-108 -655q-2 -10 -12 -10h-73q-10 0 -8 10l103 618q-20 17 -43 23.5t-45 6.5q-58 0 -95 -31t-45 -81l-18 -106h104q11 0 9 -10l-11 -64q-2 -9 -11 -9h-105l-57 -347q-2 -10 -11 -10h-74q-9 0 -7 10l57 347h-214l-57 -347
q-2 -10 -12 -10h-73q-10 0 -8 10l58 347h-71q-8 0 -8 9l11 64q2 10 11 10h70l19 112q8 45 31.5 80t57 59t75 36.5t83.5 12.5q37 0 75 -12.5t71 -39.5q34 26 75.5 39t85.5 13zM479 440l18 112q6 36 24 66q-21 23 -48 31.5t-50 8.5q-58 0 -95 -31t-45 -81l-18 -106h214z" />
    <glyph glyph-name="Th.dlig" unicode="Th" horiz-adv-x="1050" 
d="M148 690q2 10 12 10h539l5 30q2 10 11 10h73q11 0 9 -10l-60 -357q30 37 70.5 58t88.5 21q88 0 126 -53t21 -151l-39 -238q-2 -10 -12 -10h-73q-10 0 -8 10l39 235q10 61 -11 92t-78 31q-26 0 -50.5 -10.5t-45 -29.5t-34.5 -46t-19 -59l-35 -213q-2 -10 -12 -10h-73
q-10 0 -8 10l100 598h-243l-99 -598q-2 -10 -11 -10h-79q-10 0 -8 10l99 598h-199q-9 0 -8 9z" />
    <glyph glyph-name="f_j" unicode="fj" horiz-adv-x="552" 
d="M564 440q10 0 8 -10l-75 -440q-17 -91 -63.5 -134.5t-126.5 -45.5q-10 0 -8 10l11 67q2 10 12 10q36 2 54.5 20.5t25.5 62.5l63 377h-214l-57 -347q-2 -10 -12 -10h-73q-10 0 -8 10l58 347h-71q-8 0 -8 9l11 64q2 10 11 10h70l19 111q8 45 30 80t54.5 59t73 37t85.5 13
q52 0 95 -15.5t74 -44.5q5 -7 -2 -14l-54 -50q-7 -8 -14 -1q-41 43 -113 43q-57 0 -92.5 -29.5t-44.5 -83.5l-18 -105h299z" />
    <glyph glyph-name="f_f_j" unicode="ffj" horiz-adv-x="856" 
d="M109 0q-10 0 -8 10l58 347h-71q-8 0 -8 9l11 64q2 10 11 10h70l19 112q8 45 30 80t54.5 59t72.5 36.5t82 12.5q37 0 78 -12t76 -40q34 26 74.5 39t82.5 13t86 -13t80 -48q6 -6 0 -13l-53 -51q-8 -8 -15 0q-21 25 -51.5 34t-62.5 9q-54 0 -91 -31t-45 -81l-18 -106h297
q11 0 9 -10l-74 -440q-15 -91 -62.5 -134.5t-127.5 -45.5q-10 0 -8 10l11 67q2 10 12 10q37 2 55 20.5t25 62.5l63 377h-214l-57 -347q-2 -10 -11 -10h-74q-9 0 -7 10l57 347h-214l-57 -347q-2 -10 -12 -10h-73zM479 440l18 112q6 35 24 65q-23 23 -53 32t-53 9
q-58 0 -91 -31t-41 -81l-18 -106h214z" />
    <glyph glyph-name=".notdef" horiz-adv-x="350" 
d="M350 -200h-350v940h350v-940zM50 690v-840h250v840h-250zM175 588l72 72l33 -33l-72 -72l72 -72l-33 -33l-72 72l-72 -72l-33 33l72 72l-72 72l33 33zM175 308l72 72l33 -33l-72 -72l72 -72l-33 -33l-72 72l-72 -72l-33 33l72 72l-72 72l33 33zM175 18l72 72l33 -33
l-72 -72l72 -72l-33 -33l-72 72l-72 -72l-33 33l72 72l-72 72l33 33z" />
    <glyph glyph-name=".null" horiz-adv-x="500" 
 />
    <glyph glyph-name=".null" horiz-adv-x="500" 
 />
    <glyph glyph-name="uni000D" horiz-adv-x="500" 
 />
    <glyph glyph-name="uni0002" horiz-adv-x="333" 
 />
    <glyph glyph-name="uni0009" unicode="&#x9;" horiz-adv-x="80" 
 />
    <glyph glyph-name="uni000A" unicode="&#xa;" horiz-adv-x="333" 
 />
    <glyph glyph-name="uni000D.1" unicode="&#xd;" horiz-adv-x="333" 
 />
    <glyph glyph-name="space" unicode=" " horiz-adv-x="240" 
 />
    <glyph glyph-name="exclam" unicode="!" horiz-adv-x="294" 
d="M223 252q-3 -8 -11 -8h-47q-9 0 -9 8l22 223l36 215q2 10 11 10h79q10 0 8 -10l-36 -215zM169 127q29 0 45.5 -18t11.5 -50t-28.5 -50.5t-51.5 -18.5q-29 0 -46 18.5t-12 50.5q6 32 29 50t52 18z" />
    <glyph glyph-name="quotedbl" unicode="&#x22;" horiz-adv-x="396" 
d="M226 458q-4 -9 -11 -9h-47q-8 0 -8 9l21 232q0 10 12 10h81q11 0 8 -10zM389 458q-2 -9 -11 -9h-47q-8 0 -8 9l21 232q2 10 12 10h81q11 0 8 -10z" />
    <glyph glyph-name="numbersign" unicode="#" horiz-adv-x="711" 
d="M421 0q-13 0 -9 11l37 153h-158l-38 -157q-2 -7 -10 -7h-62q-13 0 -9 11l37 153h-82q-9 0 -9 10v59q0 9 9 9h101l48 202h-93q-9 0 -9 9l-1 59q0 10 10 10h113l41 171q2 7 9 7h63q13 0 9 -11l-40 -167h158l41 171q2 7 9 7h63q13 0 9 -11l-40 -167h81q9 0 9 -10v-59
q0 -9 -9 -9h-100l-49 -202h93q9 0 9 -9v-59q0 -10 -9 -10h-112l-38 -157q-2 -7 -10 -7h-62zM468 242l48 202h-157l-49 -202h158z" />
    <glyph glyph-name="dollar" unicode="$" horiz-adv-x="605" 
d="M565 539q-6 -5 -13 0q-32 38 -71.5 55t-89.5 17q-133 0 -149 -94q-4 -23 0.5 -39t21.5 -29t48.5 -24.5t81.5 -26.5q116 -35 162.5 -80.5t33.5 -122.5q-14 -85 -81.5 -135t-170.5 -58l-20 -122q-2 -10 -11 -10h-56q-9 0 -7 10l20 122q-127 11 -211 90q-5 7 1 13l59 62
q3 4 7.5 4.5t6.5 -2.5q38 -40 87 -60t106 -20q153 0 168 95q4 24 -1.5 41.5t-24 32t-52.5 28t-86 29.5q-106 34 -150.5 80.5t-31.5 123.5q14 81 76.5 127.5t161.5 52.5l19 111q2 10 11 10h56q9 0 7 -10l-19 -113q55 -8 100.5 -31t77.5 -65q8 -8 -3 -13z" />
    <glyph glyph-name="percent" unicode="%" horiz-adv-x="658" 
d="M297 700q34 0 60 -11.5t42.5 -31.5t23 -48t0.5 -61t-21.5 -61.5t-39 -48.5t-53 -31.5t-63.5 -11.5q-33 0 -59.5 11.5t-43 31.5t-23.5 48.5t-1 61.5t21.5 61t39 48t53.5 31.5t64 11.5zM735 624q6 -7 -2 -13l-652 -567q-8 -6 -13 0l-29 33q-6 7 2 13l652 566q6 7 13 0z
M286 636q-40 0 -67 -23t-34 -65t12.5 -65.5t58.5 -23.5t66 23.5t35 65.5q7 42 -12.5 65t-58.5 23zM522 293q68 0 102.5 -42.5t23.5 -109.5q-5 -33 -21 -61.5t-39 -48.5t-53 -31.5t-64 -11.5q-33 0 -59 11.5t-43 31.5t-23.5 48.5t-1.5 61.5q6 33 21.5 61t39 48.5t53.5 31.5
t64 11zM511 229q-40 0 -67 -23t-34 -65t12.5 -65t58.5 -23t66.5 23t33.5 65q8 42 -11.5 65t-58.5 23z" />
    <glyph glyph-name="ampersand" unicode="&#x26;" horiz-adv-x="660" 
d="M602 546q-7 -38 -27.5 -66t-49.5 -50t-65 -38.5t-73 -31.5l139 -158q17 26 28 55.5t18 61.5q2 10 13 8l61 -11q8 -1 6 -9q-8 -45 -25.5 -89.5t-45.5 -81.5l69 -78q5 -7 -3 -13l-60 -49q-7 -7 -14 0l-59 71q-45 -39 -103.5 -58.5t-127.5 -19.5q-49 0 -89.5 13t-69 37
t-42.5 58t-11 76t19.5 74.5t41.5 57.5t56.5 44.5t65.5 34.5q-29 39 -40.5 79t-6.5 74q12 81 70.5 128t148.5 47q43 0 78.5 -11.5t59.5 -33.5t34.5 -52.5t3.5 -68.5zM338 420q33 12 63 24.5t53.5 27t39 32.5t18.5 42q6 39 -15 62.5t-77 23.5q-48 0 -80 -26t-40 -72
q-5 -29 3 -54.5t35 -59.5zM305 326q-27 -12 -51.5 -25.5t-43 -30t-30.5 -37t-15 -46.5q-6 -60 26 -89t107 -29q51 0 93.5 19t75.5 48z" />
    <glyph glyph-name="quotesingle" unicode="'" horiz-adv-x="233" 
d="M226 458q-4 -9 -11 -9h-47q-8 0 -8 9l21 232q0 10 12 10h81q11 0 8 -10z" />
    <glyph glyph-name="parenleft" unicode="(" horiz-adv-x="312" 
d="M337 736q3 4 8 4h76q3 0 3.5 -2.5t-1.5 -4.5q-95 -92 -152 -208t-79 -250q-23 -134 -4.5 -250t82.5 -208q2 -2 0.5 -4.5t-4.5 -2.5h-76q-4 0 -7 4q-62 97 -83.5 215t-0.5 246q22 128 83 246t155 215z" />
    <glyph glyph-name="parenright" unicode=")" horiz-adv-x="311" 
d="M214 740q6 0 7 -4q31 -48 51.5 -104.5t31 -117.5t10.5 -125t-11 -128q-22 -128 -81.5 -239t-154.5 -208q-3 -4 -8 -4h-76q-3 0 -3.5 2.5t1.5 4.5q95 92 151 201t78 243q11 66 12.5 131t-7.5 125.5t-29 115t-52 100.5q-2 2 -0.5 4.5t4.5 2.5h76z" />
    <glyph glyph-name="asterisk" unicode="*" horiz-adv-x="458" 
d="M386 740q13 0 8 -10l-33 -129l124 55q5 2 8.5 0.5t3.5 -6.5l11 -60q3 -9 -8 -13l-129 -30l67 -96q5 -8 -4 -13l-59 -39q-4 -2 -7.5 -1.5t-5.5 4.5l-46 106l-80 -107q-7 -7 -15 -3l-46 39q-8 5 0 13l100 97l-119 30q-11 3 -5 13l32 60q5 11 14 6l106 -55l8 129q2 10 12 10
h63z" />
    <glyph glyph-name="plus" unicode="+" horiz-adv-x="590" 
d="M413 514q10 0 8 -9l-32 -193h192q10 0 8 -9l-10 -61q-1 -9 -11 -9h-192l-32 -193q-2 -9 -11 -9h-65q-10 0 -8 9l33 193h-193q-9 0 -8 9l10 61q2 9 11 9h193l32 193q2 9 11 9h64z" />
    <glyph glyph-name="comma" unicode="," horiz-adv-x="272" 
d="M156 131q29 0 47 -20.5t12 -59.5q-11 -62 -39 -114.5t-63 -95.5q-5 -5 -13 -2l-34 19q-7 4 -2 13q27 32 42 61t26 67q-32 0 -47 19.5t-10 45.5q5 32 28.5 49.5t52.5 17.5z" />
    <glyph glyph-name="hyphen" unicode="-" horiz-adv-x="430" 
d="M117 303q2 9 11 9h279q10 0 8 -9l-10 -63q-2 -9 -12 -9h-278q-10 0 -8 9z" />
    <glyph glyph-name="period" unicode="." horiz-adv-x="273" 
d="M159 131q28 0 45.5 -19t12.5 -51t-29 -51.5t-53 -19.5t-46.5 19.5t-11.5 51.5q5 32 29 51t53 19z" />
    <glyph glyph-name="slash" unicode="/" horiz-adv-x="518" 
d="M593 740q16 0 5 -14l-480 -761q-2 -5 -9 -5h-66q-16 0 -7 14l481 761q3 5 10 5h66z" />
    <glyph glyph-name="zero" unicode="0" horiz-adv-x="616" 
d="M420 700q125 0 177.5 -90.5t23.5 -259.5q-28 -172 -106.5 -266t-200.5 -94q-61 0 -105.5 24t-70.5 70.5t-33.5 113.5t6.5 152q29 169 106.5 259.5t202.5 90.5zM411 615q-81 0 -129 -64.5t-71 -200.5q-23 -139 2.5 -207t105.5 -68q81 0 130.5 68t72.5 207
q23 136 -3.5 200.5t-107.5 64.5z" />
    <glyph glyph-name="one" unicode="1" horiz-adv-x="367" 
d="M394 688q9 0 7 -10l-111 -668q-2 -10 -11 -10h-74q-9 0 -7 10l92 559l-126 -48q-4 -2 -7.5 -1t-4.5 6l-20 66q-2 10 8 13l215 79q10 4 17 4h22z" />
    <glyph glyph-name="two" unicode="2" horiz-adv-x="560" 
d="M212 499q-7 -9 -14 -5l-58 22q-9 3 -4 12q40 81 112.5 126.5t164.5 45.5q97 0 144 -49t33 -135q-5 -27 -16 -54t-31.5 -56.5t-50.5 -63t-72 -74.5l-194 -183h282q9 0 9 -9l-11 -66q-2 -10 -12 -10h-433q-9 0 -7 10l3 23q0 2 1 3.5t2 3.5l296 280q29 28 53 52.5t42 47.5
t29.5 46t15.5 47q18 102 -103 102q-120 0 -181 -116z" />
    <glyph glyph-name="three" unicode="3" horiz-adv-x="581" 
d="M255 310q-10 0 -8 10l10 62q2 10 12 10h56q30 0 59 7t53 22t41 39t21 58q8 51 -21 76t-86 25q-66 0 -108.5 -31t-68.5 -85q-5 -11 -13 -7l-60 27q-8 2 -4 11q39 84 108.5 125t154.5 41q54 0 93.5 -15t63.5 -40t33 -58.5t3 -70.5q-11 -63 -52.5 -103t-100.5 -57
q33 -8 57.5 -26t39 -42t19.5 -53t0 -61q-14 -85 -82 -134.5t-178 -49.5q-91 0 -152 43t-74 128q0 9 8 12l69 22q11 2 11 -7q8 -54 43.5 -85t103.5 -31q66 0 107 30t51 88q10 59 -27 89.5t-125 30.5h-57z" />
    <glyph glyph-name="four" unicode="4" horiz-adv-x="594" 
d="M592 158q-2 -10 -11 -10h-98l-23 -138q-2 -10 -11 -10h-74q-9 0 -7 10l22 138h-318q-9 0 -7 10l3 22q0 6 5 11l338 494q5 5 9 5h84q7 0 9 -4t-3 -10l-310 -442h204l24 140q2 9 11 9h73q10 0 8 -9l-23 -140h98q10 0 8 -10z" />
    <glyph glyph-name="five" unicode="5" horiz-adv-x="580" 
d="M584 607q-2 -10 -12 -10h-279l-42 -170h98q48 0 91.5 -11t74 -36.5t45 -66.5t4.5 -100q-8 -48 -30.5 -89t-57 -70.5t-80 -46.5t-100.5 -17q-83 0 -141 41t-73 130q-1 4 1.5 7t5.5 5l66 21q11 4 11 -8q7 -54 43.5 -82.5t98.5 -28.5q70 0 109 34t50 98q11 69 -22.5 102
t-123.5 33h-172q-10 0 -8 11l82 328q4 9 12 9h353q10 0 8 -10z" />
    <glyph glyph-name="six" unicode="6" horiz-adv-x="584" 
d="M499 688q19 0 6 -15l-213 -255q42 21 97 21q47 0 84 -15t61 -42.5t34 -67.5t1 -91q-9 -53 -34.5 -96t-63 -73.5t-86 -47t-104.5 -16.5q-106 0 -158 58t-36 157q8 48 30 92.5t53 83.5l234 302q3 5 10 5h85zM348 354q-64 0 -108.5 -41t-55.5 -107q-11 -64 19.5 -97.5
t97.5 -33.5q69 0 113.5 35t55.5 100q13 76 -18 110t-104 34z" />
    <glyph glyph-name="seven" unicode="7" horiz-adv-x="503" 
d="M138 596q-9 0 -8 9l12 73q2 10 12 10h427q9 0 7 -10l-2 -18q-4 -11 -10 -22l-351 -632q-6 -6 -11 -6h-85q-7 0 -9 4t2 9l337 583h-321z" />
    <glyph glyph-name="eight" unicode="8" horiz-adv-x="574" 
d="M404 700q54 0 91.5 -13.5t60 -38t30.5 -57.5t1 -72q-9 -57 -45.5 -102.5t-99.5 -64.5q66 -18 92.5 -66.5t16.5 -109.5q-7 -43 -29 -77.5t-56.5 -58.5t-80 -37t-99.5 -13q-110 0 -163.5 50t-39.5 136q10 61 52.5 109.5t114.5 66.5q-57 19 -78.5 64.5t-11.5 102.5
q6 39 25 72t50 57.5t73 38t96 13.5zM390 615q-55 0 -90 -23.5t-45 -82.5q-10 -61 18.5 -88t79.5 -27t88.5 26.5t48.5 88.5q9 59 -18 82.5t-82 23.5zM339 309q-66 0 -106.5 -29t-51.5 -91q-10 -58 19 -86t100 -28t109 28t47 86q11 62 -20 91t-97 29z" />
    <glyph glyph-name="nine" unicode="9" horiz-adv-x="585" 
d="M412 698q53 0 94 -15t67.5 -43t37 -67.5t2.5 -88.5q-8 -48 -30 -93t-53 -84l-234 -302q-5 -5 -10 -5h-85q-19 0 -6 15l213 255q-42 -21 -97 -21q-46 0 -83.5 15t-61.5 42.5t-34 67.5t-1 91q9 53 33 96t60.5 73.5t84.5 47t103 16.5zM399 613q-69 0 -114 -35t-55 -100
q-14 -76 17.5 -110t104.5 -34q65 0 108.5 41t54.5 107q11 65 -19 98t-97 33z" />
    <glyph glyph-name="colon" unicode=":" horiz-adv-x="274" 
d="M212 450q28 0 45.5 -19t12.5 -51t-29 -51.5t-53 -19.5q-28 0 -46 19.5t-13 51.5q6 32 30 51t53 19zM158 131q29 0 46.5 -19t12.5 -51t-29.5 -51.5t-52.5 -19.5q-29 0 -46.5 19.5t-11.5 51.5q5 32 29 51t52 19z" />
    <glyph glyph-name="semicolon" unicode=";" horiz-adv-x="258" 
d="M192 451q28 0 46 -19t13 -51q-6 -32 -30 -51.5t-53 -19.5q-28 0 -45.5 19.5t-12.5 51.5t29 51t53 19zM139 131q30 0 49 -20.5t12 -59.5q-8 -51 -35.5 -105.5t-69.5 -104.5q-6 -5 -13 -2l-33 19q-10 4 -2 14q56 63 72 127q-33 -2 -50 15.5t-12 49.5q5 29 28 48t54 19z" />
    <glyph glyph-name="less" unicode="&#x3c;" horiz-adv-x="576" 
d="M604 482q0 -6 -7 -10l-343 -134l298 -133q5 -2 5 -10l-14 -80q-2 -15 -14 -8l-419 210q-5 4 -4 8l4 26q2 6 7 9l488 210q16 7 13 -9z" />
    <glyph glyph-name="equal" unicode="=" horiz-adv-x="593" 
d="M599 347q-2 -10 -10 -10h-471q-11 0 -9 10l10 60q2 10 12 10h471q9 0 7 -10zM564 136q-2 -10 -11 -10h-471q-10 0 -8 10l11 60q2 10 11 10h471q9 0 7 -10z" />
    <glyph glyph-name="greater" unicode="&#x3e;" horiz-adv-x="575" 
d="M136 472q-4 3 -4 10l13 79q3 16 15 9l419 -210q4 -3 4 -9l-4 -26q-2 -6 -8 -8l-488 -210q-14 -7 -12 8l13 80q2 7 7 10l344 133z" />
    <glyph glyph-name="question" unicode="?" horiz-adv-x="525" 
d="M360 266q-2 -10 -12 -10h-82q-10 0 -8 10q5 25 13.5 46.5t24 42.5t40 41.5t61.5 42.5q43 26 63 51t23 57q4 34 -16.5 57t-76.5 23q-54 0 -101 -28t-82 -77q-3 -4 -7 -5.5t-8 1.5l-58 44q-7 6 -2 12q48 68 115 103t145 35q53 0 91 -14.5t61 -38.5t32 -55.5t4 -64.5
q-7 -49 -36.5 -85t-95.5 -77q-21 -13 -36.5 -25t-25.5 -25t-16.5 -27.5t-9.5 -33.5zM287 127q28 0 45 -18t11 -50q-5 -32 -28 -50.5t-52 -18.5q-28 0 -45 18.5t-12 50.5t28.5 50t52.5 18z" />
    <glyph glyph-name="at" unicode="@" horiz-adv-x="869" 
d="M672 425q12 0 10 -12l-50 -291q-6 -32 5.5 -55t43.5 -23q24 0 44.5 16.5t36 45t24.5 67t9 83.5q0 73 -21 127.5t-59.5 90.5t-91.5 54t-117 18q-78 0 -142.5 -25t-111 -70t-72.5 -106.5t-26 -135.5q0 -58 16.5 -107t48 -84.5t77.5 -56t105 -22.5q12 0 10 -12l-7 -39
q1 -3 -2 -5t-7 -2q-72 1 -128.5 26t-95 66.5t-58.5 97.5t-20 120q0 89 28.5 164t81.5 130t128 85.5t168 30.5q81 0 146 -23.5t111.5 -68t71.5 -108.5t25 -145q0 -62 -13.5 -112t-38.5 -85.5t-58.5 -55t-72.5 -19.5q-26 0 -47 10.5t-34.5 28.5t-19 42.5t-2.5 52.5
q-23 -30 -62 -50t-85 -20q-39 0 -70.5 14.5t-52 40t-28 62t-0.5 79.5q7 41 25.5 75.5t46.5 59.5t63 39t75 14q46 0 76 -18t46 -48l15 52q2 7 10 7h46zM482 366q-60 0 -95 -34t-44 -89q-11 -59 13.5 -94t80.5 -35q53 0 95 34t53 94q10 57 -18 90.5t-85 33.5z" />
    <glyph glyph-name="A" unicode="A" horiz-adv-x="745" 
d="M503 705q5 0 8 -6l196 -686q4 -13 -12 -13h-83q-7 0 -9 6l-44 165h-305l-97 -165q-3 -6 -10 -6h-97q-14 0 -7 13l425 686q3 6 10 6h25zM537 264l-71 270l-157 -270h228z" />
    <glyph glyph-name="B" unicode="B" horiz-adv-x="641" 
d="M194 690q2 10 12 10h236q120 0 171 -44t37 -128q-8 -51 -39.5 -92.5t-97.5 -70.5q64 -18 90.5 -62.5t15.5 -111.5q-16 -94 -87.5 -142.5t-194.5 -48.5h-248q-10 0 -8 10zM244 400h133q72 0 114.5 27t53.5 85q4 26 0 44t-19 29.5t-42.5 17t-69.5 5.5h-136zM193 92h151
q88 0 127 26t48 83q5 33 -3.5 54.5t-28.5 34t-50.5 17t-69.5 4.5h-138z" />
    <glyph glyph-name="C" unicode="C" horiz-adv-x="723" 
d="M773 583q5 -9 -4 -14l-68 -38q-9 -5 -13 2q-28 46 -70.5 66.5t-108.5 20.5q-58 0 -107.5 -19t-87.5 -54.5t-64 -85t-36 -110.5q-10 -62 -1.5 -112t35 -85t69.5 -54t100 -19q65 0 115.5 23.5t99.5 74.5q8 8 14 2l57 -48q6 -6 0 -14q-60 -62 -133.5 -96.5t-166.5 -34.5
q-79 0 -139.5 27.5t-98.5 76.5t-52 116t-1 146q13 78 47.5 144t87 113.5t121 74t148.5 26.5q93 0 156 -34t101 -95z" />
    <glyph glyph-name="D" unicode="D" horiz-adv-x="748" 
d="M194 690q2 10 11 10h234q87 0 151.5 -24.5t105 -69.5t55.5 -108.5t3 -141.5q-12 -79 -48 -144.5t-92 -112.5t-130 -73t-161 -26h-234q-10 0 -8 10zM192 92h146q63 0 117 18.5t95 53.5t67.5 84.5t35.5 111.5q19 122 -39 185t-190 63h-146z" />
    <glyph glyph-name="E" unicode="E" horiz-adv-x="573" 
d="M194 690q2 10 11 10h413q10 0 8 -10l-12 -73q-1 -9 -11 -9h-325l-34 -207h289q10 0 8 -10l-11 -68q-1 -9 -11 -9h-290l-37 -222h329q10 0 8 -9l-12 -73q-2 -10 -11 -10h-417q-10 0 -8 10z" />
    <glyph glyph-name="F" unicode="F" horiz-adv-x="563" 
d="M540 297q-2 -9 -11 -9h-304l-46 -278q-2 -10 -12 -10h-78q-10 0 -8 10l113 680q2 10 12 10h407q9 0 7 -10l-12 -73q-1 -9 -11 -9h-319l-38 -233h304q9 0 7 -10z" />
    <glyph glyph-name="G" unicode="G" horiz-adv-x="804" 
d="M468 275q-8 0 -8 9l12 69q2 9 11 9h307q11 0 14 -8t0 -34q-10 -78 -42 -139.5t-82 -104t-115 -65.5t-141 -23q-80 0 -144 27t-105.5 75t-58.5 115t-4 146q13 78 49 144.5t89 114.5t121.5 75t147.5 27q88 0 159.5 -31.5t107.5 -94.5q4 -7 -4 -14l-66 -44q-9 -4 -13 3
q-27 46 -75.5 67.5t-111.5 21.5q-60 0 -110.5 -19t-90 -54.5t-65.5 -85t-36 -110.5q-10 -62 0 -112t38 -85t73 -54t105 -19q52 0 96.5 14t78.5 39.5t56 61t29 79.5h-222z" />
    <glyph glyph-name="H" unicode="H" horiz-adv-x="693" 
d="M722 700q10 0 8 -10l-113 -680q-2 -10 -11 -10h-79q-10 0 -8 10l48 288h-340l-48 -288q-2 -10 -12 -10h-78q-10 0 -8 10l113 680q2 10 11 10h79q10 0 8 -10l-50 -300h340l50 300q2 10 11 10h79z" />
    <glyph glyph-name="I" unicode="I" horiz-adv-x="257" 
d="M285 700q10 0 8 -10l-113 -680q-2 -10 -12 -10h-78q-10 0 -8 10l113 680q2 10 11 10h79z" />
    <glyph glyph-name="J" unicode="J" horiz-adv-x="254" 
d="M283 700q10 0 8 -10l-108 -646q-9 -55 -26.5 -96.5t-46 -69.5t-69 -42.5t-95.5 -15.5q-10 0 -8 10l12 73q1 9 11 9q59 2 86 32t38 100l108 646q2 10 11 10h79z" />
    <glyph glyph-name="K" unicode="K" horiz-adv-x="629" 
d="M194 690q2 10 11 10h79q10 0 8 -10l-50 -301l336 306q5 5 11 5h114q11 0 12 -4.5t-8 -11.5l-364 -317l265 -351q5 -7 2.5 -11.5t-12.5 -4.5h-99q-9 0 -13 7l-250 347l-57 -344q-2 -10 -12 -10h-78q-10 0 -8 10z" />
    <glyph glyph-name="L" unicode="L" horiz-adv-x="563" 
d="M284 700q10 0 8 -10l-100 -598h329q10 0 8 -9l-12 -73q-2 -10 -11 -10h-417q-10 0 -8 10l113 680q2 10 11 10h79z" />
    <glyph glyph-name="M" unicode="M" horiz-adv-x="964" 
d="M868 705q9 0 9 -8l40 -685q2 -12 -12 -12h-80q-9 0 -9 8l-21 475l-284 -440q-2 -5 -10 -5h-14q-6 0 -7 5l-143 450l-181 -485q-3 -8 -10 -8h-87q-13 0 -8 12l268 685q3 8 10 8h24q7 0 8 -6l156 -491l318 491q3 6 9 6h24z" />
    <glyph glyph-name="N" unicode="N" horiz-adv-x="703" 
d="M732 700q10 0 8 -10l-114 -685q-2 -10 -11 -10h-20q-7 0 -12 6l-323 497l-81 -488q-2 -10 -12 -10h-78q-10 0 -8 10l114 685q2 10 11 10h21q6 0 10 -6l324 -497l81 488q2 10 12 10h78z" />
    <glyph glyph-name="O" unicode="O" horiz-adv-x="815" 
d="M513 712q79 0 142 -27.5t104 -75.5t58 -114.5t4 -144.5q-13 -81 -49 -147.5t-89 -114.5t-120 -74t-143 -26q-79 0 -142 27.5t-104 75.5t-58 114.5t-4 144.5q14 81 49.5 147.5t88 114.5t120 74t143.5 26zM507 620q-57 0 -106 -19t-87.5 -54t-64 -85t-36.5 -112
q-10 -61 0 -110.5t38 -85t72.5 -55t102.5 -19.5q57 0 106 19t87.5 54t64 85t35.5 112q10 61 0 110.5t-37.5 85t-72 55t-102.5 19.5z" />
    <glyph glyph-name="P" unicode="P" horiz-adv-x="597" 
d="M194 690q2 10 12 10h231q116 0 169.5 -60.5t35.5 -166.5q-17 -107 -91 -167t-190 -60h-143l-39 -236q-2 -10 -12 -10h-78q-10 0 -8 10zM233 336h126q81 0 125.5 33t57.5 105q11 71 -23 103t-115 32h-126z" />
    <glyph glyph-name="Q" unicode="Q" horiz-adv-x="822" 
d="M531 712q78 0 139 -27t100.5 -75.5t55 -115t2.5 -144.5q-12 -69 -43 -129.5t-77 -107t-104 -78t-124 -42.5l60 -159q5 -14 -12 -14h-88q-5 0 -7 5l-58 164q-70 6 -125 35.5t-90 77t-48 111t-1 137.5q13 78 51 144.5t93.5 115t126 75.5t149.5 27zM516 623
q-58 0 -108.5 -19.5t-90 -55.5t-66 -86.5t-37.5 -111.5q-10 -61 0 -111t37.5 -85t71 -54.5t101.5 -19.5t108.5 19.5t90 54.5t66 85t36.5 111t0.5 111.5t-37 86.5t-71 55.5t-101.5 19.5z" />
    <glyph glyph-name="R" unicode="R" horiz-adv-x="622" 
d="M179 10q-2 -10 -12 -10h-78q-10 0 -8 10l113 680q2 10 11 10h225q119 0 175.5 -55.5t39.5 -159.5q-9 -52 -30 -91t-51.5 -65.5t-68 -41t-79.5 -18.5l138 -254q8 -15 -10 -15h-94q-3 0 -7 4l-130 255h-93zM235 350h135q81 0 123 35t53 103q11 65 -20 93t-112 28h-135z" />
    <glyph glyph-name="S" unicode="S" horiz-adv-x="604" 
d="M572 558q-9 -7 -14 0q-32 35 -74.5 50t-96.5 15q-73 0 -106 -27.5t-39 -65.5q-5 -30 5 -51t30 -36t49 -25.5t62 -19.5q41 -12 80 -29t68 -42.5t43.5 -62t6.5 -86.5q-8 -48 -32.5 -83.5t-62 -59t-85.5 -35.5t-103 -12q-74 0 -138.5 21.5t-112.5 73.5q-3 2 -2.5 6t3.5 7
l54 60q9 7 15 -1q19 -22 42 -37t48 -24t51 -13t50 -4q47 0 78 9.5t51 24.5t30 34.5t13 39.5q5 29 -2.5 48t-26 33t-48 24.5t-69.5 20.5q-43 11 -82.5 29t-68 45t-42 64t-5.5 86q14 84 82.5 130.5t179.5 46.5q72 0 127.5 -18.5t99.5 -66.5q6 -6 -1 -13z" />
    <glyph glyph-name="T" unicode="T" horiz-adv-x="581" 
d="M148 690q2 10 11 10h497q10 0 8 -10l-12 -73q-1 -9 -11 -9h-200l-99 -598q-2 -10 -11 -10h-79q-10 0 -8 10l99 598h-199q-9 0 -8 9z" />
    <glyph glyph-name="U" unicode="U" horiz-adv-x="675" 
d="M708 700q10 0 8 -10l-72 -431q-10 -61 -35.5 -111.5t-64.5 -85.5t-90 -54.5t-112 -19.5t-107.5 19.5t-75.5 54.5t-40 85.5t-1 111.5l72 431q2 10 11 10h79q10 0 8 -10l-70 -421q-16 -94 17.5 -141.5t114.5 -47.5t131.5 47.5t66.5 141.5l70 421q2 10 11 10h79z" />
    <glyph glyph-name="V" unicode="V" horiz-adv-x="725" 
d="M805 700q6 0 7 -4t-3 -9l-425 -686q-3 -6 -10 -6h-24q-8 0 -8 6l-197 686q-2 13 10 13h82q7 0 8 -6l141 -522l317 522q3 6 11 6h91z" />
    <glyph glyph-name="W" unicode="W" horiz-adv-x="1066" 
d="M1127 700q12 0 5 -12l-346 -686q-3 -7 -10 -7h-24q-6 0 -9 6l-130 496l-290 -496q-3 -6 -10 -6h-24q-6 0 -8 7l-117 686q-3 12 8 12h80q8 0 8 -7l81 -493l281 481q4 5 11 5h12q7 0 9 -5l128 -487l249 499q2 7 9 7h87z" />
    <glyph glyph-name="X" unicode="X" horiz-adv-x="652" 
d="M725 700q16 0 3 -15l-282 -346l171 -325q3 -6 0.5 -10t-8.5 -4h-95q-5 0 -7 5l-139 273l-216 -273q-5 -5 -9 -5h-98q-17 0 -6 14l284 345l-171 326q-4 7 -1 11t11 4h93q4 0 7 -5l139 -275l217 275q3 5 8 5h99z" />
    <glyph glyph-name="Y" unicode="Y" horiz-adv-x="643" 
d="M722 700q14 0 3 -14l-308 -405l-45 -271q-2 -10 -11 -10h-79q-10 0 -8 10l45 271l-173 405q-5 14 9 14h87q5 0 7 -5l130 -321l234 321q5 5 10 5h99z" />
    <glyph glyph-name="Z" unicode="Z" horiz-adv-x="635" 
d="M175 608q-9 0 -8 9l13 73q2 10 11 10h488q10 0 8 -9l-4 -23q-2 -7 -5 -10l-462 -567l367 1q10 0 8 -9l-12 -73q-2 -10 -11 -10h-499q-10 0 -8 10l3 22q1 6 5 11l461 565h-355z" />
    <glyph glyph-name="bracketleft" unicode="[" horiz-adv-x="311" 
d="M216 730q2 10 11 10h188q10 0 8 -10l-8 -46q-2 -9 -11 -9h-114l-133 -800h114q10 0 8 -9l-8 -46q-2 -10 -11 -10h-188q-10 0 -8 10z" />
    <glyph glyph-name="backslash" unicode="\" horiz-adv-x="536" 
d="M163 726q-5 14 11 14h56q5 0 7 -5l254 -761q5 -14 -10 -14h-57q-6 0 -8 5z" />
    <glyph glyph-name="bracketright" unicode="]" horiz-adv-x="311" 
d="M331 740q10 0 8 -10l-152 -910q-2 -10 -11 -10h-188q-10 0 -8 10l7 46q2 9 12 9h114l133 800h-114q-10 0 -8 9l8 46q2 10 11 10h188z" />
    <glyph glyph-name="asciicircum" unicode="^" horiz-adv-x="570" 
d="M570 321q5 -14 -10 -14h-72q-7 0 -8 5l-90 275l-187 -275q-4 -5 -10 -5h-80q-15 0 -6 14l275 386q3 5 10 5h25q6 0 8 -5z" />
    <glyph glyph-name="underscore" unicode="_" horiz-adv-x="462" 
d="M437 -147q-2 -9 -11 -9h-443q-9 0 -7 9l9 55q2 10 11 10h443q10 0 8 -10z" />
    <glyph glyph-name="grave" unicode="`" horiz-adv-x="335" 
d="M352 584q6 -14 -10 -14h-68q-4 0 -7 4l-69 111q-5 7 -2.5 11t11.5 4h84q4 0 7 -5z" />
    <glyph glyph-name="a" unicode="a" horiz-adv-x="555" 
d="M333 452q55 0 92.5 -23.5t54.5 -66.5l26 70q2 8 11 8h51q10 0 8 -10l-71 -420q-2 -10 -11 -10h-51q-8 0 -8 8l-3 72q-32 -43 -77 -67.5t-99 -24.5q-46 0 -83 17.5t-60.5 48.5t-33 73.5t-0.5 93.5q8 50 31.5 92.5t57.5 73.5t76.5 48t88.5 17zM336 370q-66 0 -109 -41.5
t-54 -107.5q-5 -33 -0.5 -60.5t19 -48t38 -32t56.5 -11.5q30 0 57 11t49.5 31.5t37.5 48.5t21 61q5 33 -1 60.5t-21.5 47t-39 30.5t-53.5 11z" />
    <glyph glyph-name="b" unicode="b" horiz-adv-x="561" 
d="M378 452q47 0 83.5 -17t60.5 -48t33 -73.5t1 -92.5q-9 -51 -32.5 -93.5t-57.5 -73.5t-76 -48.5t-89 -17.5q-54 0 -91.5 24.5t-54.5 67.5l-27 -72q-3 -8 -11 -8h-51q-9 0 -7 10l120 720q2 10 10 10h74q10 0 8 -10l-60 -357q32 37 74 58t93 21zM348 371q-30 0 -57 -11
t-49 -31t-37.5 -47.5t-20.5 -60.5q-6 -33 0 -61t21 -48.5t38.5 -31.5t53.5 -11q33 0 60.5 11.5t49 32t35.5 48t19 60.5q11 65 -18.5 107.5t-94.5 42.5z" />
    <glyph glyph-name="c" unicode="c" horiz-adv-x="484" 
d="M514 359q4 -6 -5 -12l-60 -35q-8 -5 -13 3q-15 27 -39.5 42t-62.5 15q-32 0 -59 -12t-48 -32t-34.5 -47.5t-19.5 -59.5q-5 -31 -0.5 -59t19 -49t38.5 -33t57 -12q35 0 62 16.5t49 42.5q8 8 15 3l51 -37q6 -4 1 -12q-40 -49 -88.5 -71t-108.5 -22q-49 0 -88 18t-64 49.5
t-35 75t-2 94.5q9 50 31 92t56 72t78 46.5t97 16.5q55 0 102 -23t71 -70z" />
    <glyph glyph-name="d" unicode="d" horiz-adv-x="561" 
d="M333 452q51 0 87.5 -21.5t55.5 -59.5l60 359q2 10 11 10h71q10 0 8 -10l-121 -720q-2 -10 -11 -10h-51q-8 0 -8 8l-3 72q-32 -43 -77 -67.5t-99 -24.5q-46 0 -83 17.5t-60.5 48.5t-33 73.5t-0.5 93.5q8 50 31.5 92.5t57.5 73.5t76.5 48t88.5 17zM336 370
q-66 0 -109 -41.5t-54 -107.5q-5 -33 -0.5 -60.5t19 -48t38 -32t56.5 -11.5q30 0 57 11t49.5 31.5t37.5 48.5t21 61q5 33 -1 60.5t-21.5 47t-39 30.5t-53.5 11z" />
    <glyph glyph-name="e" unicode="e" horiz-adv-x="522" 
d="M528 250q-4 -21 -7 -33.5t-6.5 -18.5t-7 -7.5t-7.5 -1.5h-330q-5 -55 26.5 -88t88.5 -33q38 0 70.5 15.5t58.5 41.5q8 7 15 0l38 -44q8 -6 -1 -13q-38 -35 -88.5 -57.5t-106.5 -22.5q-52 0 -92 17.5t-65 48.5t-34.5 73.5t-0.5 92.5q8 50 31.5 92.5t58.5 73.5t79.5 48.5
t95.5 17.5q47 0 84.5 -15t62.5 -41.5t35 -63.5t2 -82zM440 261q5 48 -23.5 79.5t-86.5 31.5q-54 0 -95 -30t-53 -81h258z" />
    <glyph glyph-name="f" unicode="f" horiz-adv-x="368" 
d="M391 366q-2 -9 -11 -9h-129l-57 -347q-2 -10 -12 -10h-73q-10 0 -8 10l58 347h-71q-8 0 -8 9l11 64q2 10 11 10h70l21 123q7 41 26 73.5t47 55t64 34.5t76 12q38 0 67 -7t57 -23q10 -4 2 -12l-38 -57q-6 -9 -14 -5q-41 22 -89 22q-47 0 -72.5 -27.5t-33.5 -71.5l-20 -117
h128q11 0 9 -10z" />
    <glyph glyph-name="g" unicode="g" horiz-adv-x="514" 
d="M566 366q-2 -9 -12 -9l-95 -1q20 -15 29 -39t3 -57q-11 -64 -65.5 -101t-135.5 -37q-55 0 -91 16q-12 -11 -16 -27q-3 -18 7.5 -28.5t37.5 -13.5l121 -16q151 -19 135 -113q-11 -66 -80.5 -102.5t-187.5 -36.5t-170 33.5t-42 92.5q6 34 30 63t66 49q-14 23 -8 52
q3 22 18 42t41 34q-48 45 -35 120q6 35 22 65.5t42 52.5t62 34.5t82 12.5q20 0 41 -2.5t41 -9.5h162q10 0 8 -10zM323 376q-49 0 -78.5 -24t-36.5 -66t16 -65t68 -23q47 0 77 23.5t38 65.5q7 42 -15.5 65.5t-68.5 23.5zM150 0q-39 -20 -45 -59q-5 -34 26.5 -49t100.5 -15
q71 0 110 12t43 37q4 20 -10 29.5t-48 14.5l-123 16q-30 4 -54 14z" />
    <glyph glyph-name="h" unicode="h" horiz-adv-x="523" 
d="M263 740q10 0 8 -10l-59 -357q30 37 70.5 58t88.5 21q88 0 125.5 -53t21.5 -151l-40 -238q-2 -10 -11 -10h-74q-10 0 -8 10l39 235q21 123 -88 123q-26 0 -50.5 -10.5t-45 -29.5t-34.5 -46t-19 -59l-36 -213q-2 -10 -11 -10h-74q-10 0 -8 10l121 720q2 10 11 10h73z" />
    <glyph glyph-name="i" unicode="i" horiz-adv-x="195" 
d="M208 440q10 0 8 -10l-70 -420q-2 -10 -11 -10h-74q-10 0 -8 10l71 420q2 10 11 10h73zM204 654q25 0 39.5 -15t11.5 -40q-4 -26 -20 -40.5t-41 -14.5q-26 0 -40.5 14.5t-10.5 40.5t19.5 40.5t41.5 14.5z" />
    <glyph glyph-name="j" unicode="j" horiz-adv-x="195" 
d="M210 440q10 0 8 -10l-73 -440q-15 -91 -62.5 -134.5t-127.5 -45.5q-10 0 -8 10l12 67q2 10 11 10q36 2 54.5 20.5t26.5 62.5l75 450q2 10 11 10h73zM206 654q25 0 39.5 -15t11.5 -40q-4 -26 -20 -40.5t-41 -14.5q-26 0 -40.5 14.5t-10.5 40.5t19.5 40.5t41.5 14.5z" />
    <glyph glyph-name="k" unicode="k" horiz-adv-x="505" 
d="M179 730q2 10 11 10h73q10 0 8 -10l-79 -475l220 182q5 3 8 3h118q4 0 4.5 -4t-3.5 -6l-250 -196l194 -225q4 -4 2 -6.5t-5 -2.5h-107q-4 0 -7 3l-180 217l-35 -210q-2 -10 -11 -10h-74q-10 0 -8 10z" />
    <glyph glyph-name="l" unicode="l" horiz-adv-x="205" 
d="M151 10q-2 -10 -11 -10h-74q-10 0 -8 10l121 720q2 10 11 10h73q10 0 8 -10z" />
    <glyph glyph-name="m" unicode="m" horiz-adv-x="806" 
d="M123 430q2 10 11 10h50q9 0 9 -8l2 -74q31 43 73.5 68.5t92.5 25.5q112 0 133 -98q31 47 76 72.5t96 25.5q85 0 118 -49t18 -140l-42 -253q-2 -10 -11 -10h-74q-9 0 -7 10l39 241q10 56 -9 86.5t-68 30.5q-24 0 -46.5 -8t-41.5 -24.5t-32.5 -40.5t-18.5 -56l-38 -229
q-2 -10 -12 -10h-73q-10 0 -8 10l40 240q10 60 -7 89t-68 29q-25 0 -48.5 -10.5t-43 -30t-33.5 -46t-19 -58.5l-36 -213q-2 -10 -11 -10h-73q-10 0 -8 10z" />
    <glyph glyph-name="n" unicode="n" horiz-adv-x="516" 
d="M186 440q8 0 8 -8l1 -72q32 43 75.5 67.5t95.5 24.5q87 0 124.5 -53t20.5 -151l-40 -238q-2 -10 -11 -10h-73q-10 0 -8 10l39 235q10 60 -10.5 91.5t-76.5 31.5q-27 0 -51.5 -10.5t-44.5 -29.5t-34 -46t-19 -59l-36 -213q-2 -10 -11 -10h-74q-10 0 -8 10l71 420
q2 10 11 10h51z" />
    <glyph glyph-name="o" unicode="o" horiz-adv-x="545" 
d="M348 452q50 0 89.5 -17.5t65.5 -48.5t36 -73.5t2 -92.5t-32.5 -92.5t-60.5 -73.5t-81 -48.5t-96 -17.5q-50 0 -89.5 17.5t-65 48.5t-35.5 73.5t-2 92.5t32 92.5t60 73.5t81 48.5t96 17.5zM335 372q-60 0 -105 -40.5t-57 -110.5q-11 -70 20 -111.5t91 -41.5q30 0 57 11
t48.5 31t36 48t20.5 63q12 70 -19 110.5t-92 40.5z" />
    <glyph glyph-name="p" unicode="p" horiz-adv-x="554" 
d="M372 452q47 0 83.5 -17.5t60 -48.5t33 -73.5t0.5 -93.5q-8 -51 -31.5 -93t-57.5 -73t-76 -48t-89 -17q-51 0 -86 21t-54 58l-42 -247q0 -10 -11 -10h-73q-10 0 -8 10l102 610q2 10 11 10h50q9 0 9 -8l3 -72q32 43 77 67.5t99 24.5zM342 371q-30 0 -57 -11t-49.5 -31
t-37.5 -48t-21 -62q-6 -33 0.5 -60.5t22 -47t39 -30.5t53.5 -11q66 0 108.5 41.5t53.5 107.5q6 33 1.5 60.5t-19 48t-38 32t-56.5 11.5z" />
    <glyph glyph-name="q" unicode="q" horiz-adv-x="556" 
d="M333 452q54 0 91.5 -24.5t54.5 -67.5l27 72q3 8 10 8h51q11 0 9 -10l-102 -610q-2 -10 -12 -10h-73q-10 0 -8 10l41 247q-31 -37 -73 -58t-93 -21q-46 0 -83 17.5t-61 48t-33 73t-1 92.5q9 51 32 93.5t57 73.5t76.5 48.5t89.5 17.5zM337 371q-33 0 -61 -11.5t-49 -32
t-35 -48t-19 -60.5q-11 -66 18.5 -107.5t95.5 -41.5q30 0 57 11t48.5 30.5t36.5 47t21 60.5q6 34 0 62t-21 48t-38.5 31t-53.5 11z" />
    <glyph glyph-name="r" unicode="r" horiz-adv-x="340" 
d="M124 430q2 10 11 10h51q8 0 8 -8l1 -80q32 43 79.5 69.5t110.5 30.5q10 0 8 -10l-12 -72q-2 -11 -12 -11q-71 2 -123.5 -34t-66.5 -119l-33 -196q-2 -10 -11 -10h-74q-10 0 -8 10z" />
    <glyph glyph-name="s" unicode="s" horiz-adv-x="449" 
d="M416 330q-8 -6 -15 -1q-20 20 -50.5 32.5t-64.5 12.5q-38 0 -61 -11.5t-27 -34.5q-2 -13 1 -23t13.5 -18t30.5 -14.5t51 -13.5q88 -20 120 -50t23 -84q-5 -30 -23 -55.5t-45.5 -43.5t-63.5 -28t-78 -10q-57 0 -105 17t-77 44q-4 5 1 12l45 54q7 9 15 2q23 -20 57.5 -35.5
t78.5 -15.5q38 0 66.5 15.5t32.5 38.5q2 12 -0.5 21t-14.5 16.5t-34.5 14.5t-60.5 16q-76 18 -106.5 50.5t-21.5 85.5q10 59 61.5 93.5t132.5 34.5q55 0 98 -16.5t72 -43.5q5 -5 -1 -13z" />
    <glyph glyph-name="t" unicode="t" horiz-adv-x="375" 
d="M274 548q10 0 8 -10l-17 -98h126q10 0 8 -10l-11 -64q-2 -9 -11 -9h-126l-34 -208q-8 -43 3 -59t36 -16q19 0 37 5t35 13q11 5 14 -4l15 -58q3 -9 -6 -13q-28 -13 -58 -21t-57 -8q-139 0 -113 152l36 217h-71q-8 0 -8 9l11 64q2 10 11 10h75l60 102q3 6 10 6h27z" />
    <glyph glyph-name="u" unicode="u" horiz-adv-x="515" 
d="M528 440q10 0 8 -10l-70 -420q-2 -10 -11 -10h-51q-8 0 -8 8l-1 73q-32 -43 -75.5 -68t-95.5 -25q-86 0 -123.5 53t-20.5 151l40 238q2 10 11 10h73q10 0 8 -10l-39 -234q-10 -61 11 -91t77 -30q26 0 50.5 10.5t44 29t33.5 45t19 58.5l36 212q2 10 11 10h73z" />
    <glyph glyph-name="v" unicode="v" horiz-adv-x="496" 
d="M92 427q-2 5 0.5 9t9.5 4h86q7 0 8 -6l78 -281l170 281q5 6 11 6h85q8 0 9.5 -4t-2.5 -9l-276 -425q-3 -6 -10 -6h-28q-4 0 -7 6z" />
    <glyph glyph-name="w" unicode="w" horiz-adv-x="788" 
d="M832 440q7 0 9 -4t-2 -9l-258 -426q-3 -6 -10 -6h-26q-6 0 -8 6l-94 290l-191 -290q-4 -6 -10 -6h-25q-6 0 -8 6l-118 426q-4 13 11 13h84q6 0 9 -6l67 -277l183 278q5 5 10 5h25q6 0 8 -5l91 -278l158 277q5 6 11 6h84z" />
    <glyph glyph-name="x" unicode="x" horiz-adv-x="488" 
d="M528 440q18 0 5 -15l-192 -205l125 -205q8 -15 -11 -15h-95q-4 0 -6 4l-85 159l-136 -159q-6 -4 -9 -4h-91q-19 0 -4 15l192 206l-124 204q-8 15 10 15h94q4 0 8 -4l84 -158l136 158q4 4 8 4h91z" />
    <glyph glyph-name="y" unicode="y" horiz-adv-x="499" 
d="M91 427q-2 5 1 9t10 4h74q6 0 9 -6l84 -323l178 323q4 6 10 6h86q7 0 9 -4t-2 -9l-353 -611q-3 -6 -10 -6h-83q-6 0 -8 4t2 9l111 185z" />
    <glyph glyph-name="z" unicode="z" horiz-adv-x="446" 
d="M110 360q-8 0 -8 10l11 60q2 10 11 10h346q10 0 8 -10l-4 -24q0 -4 -4 -8l-281 -318h230q10 0 8 -10l-10 -60q-2 -10 -11 -10h-365q-10 0 -8 10l4 24q1 3 2 4.5t2 3.5l281 318h-212z" />
    <glyph glyph-name="braceleft" unicode="{" horiz-adv-x="297" 
d="M402 684q-2 -9 -11 -9q-38 -1 -61 -9.5t-36.5 -25.5t-21 -44t-13.5 -65l-24 -145q-8 -47 -37.5 -78.5t-68.5 -36.5q38 -4 57 -35.5t11 -78.5l-23 -138q-6 -38 -8 -65t5.5 -44t28 -25.5t57.5 -9.5q10 0 8 -9l-7 -46q-2 -10 -11 -10q-57 1 -91.5 15.5t-52 41t-19.5 65
t6 87.5l22 131q8 48 -3.5 68t-49.5 22q-9 0 -8 9l9 52q2 10 11 10q38 2 56.5 22t26.5 68l22 130q8 49 22.5 87.5t41 65t66 41t96.5 15.5q10 0 8 -10z" />
    <glyph glyph-name="bar" unicode="|" horiz-adv-x="272" 
d="M144 -200q-2 -10 -11 -10h-64q-10 0 -8 10l160 960q2 10 11 10h64q11 0 9 -10z" />
    <glyph glyph-name="braceright" unicode="}" horiz-adv-x="296" 
d="M132 675q-10 0 -8 9l8 46q2 10 11 10q57 -1 91.5 -15.5t51.5 -41t19 -65t-6 -87.5l-22 -130q-8 -48 3.5 -68t49.5 -22q10 0 8 -10l-9 -52q-1 -9 -11 -9q-38 -2 -56.5 -22t-26.5 -68l-21 -131q-8 -49 -23 -87.5t-41 -65t-65.5 -41t-96.5 -15.5q-10 0 -8 10l7 46q2 9 12 9
q38 1 61 9.5t36.5 25.5t20.5 44t13 65l23 138q8 47 37.5 78.5t68.5 35.5q-38 5 -57 36.5t-11 78.5l24 145q6 38 8 65t-5.5 44t-27.5 25.5t-58 9.5z" />
    <glyph glyph-name="asciitilde" unicode="~" horiz-adv-x="578" 
d="M575 338q8 -2 7 -9q-13 -62 -50 -102t-98 -40q-43 0 -70 18t-49 38q-19 17 -37.5 30t-43.5 13q-54 0 -71 -77q-2 -12 -13 -10l-56 12q-7 2 -6 9q14 63 51 102.5t97 39.5q42 0 69.5 -18t55.5 -44q14 -13 31.5 -25t43.5 -12q29 0 46 20.5t26 58.5q1 5 4.5 8.5t8.5 1.5z" />
    <glyph glyph-name="exclamdown" unicode="&#xa1;" horiz-adv-x="298" 
d="M234 512q29 0 47 -19t13 -51q-6 -32 -30 -51.5t-53 -19.5t-46.5 19.5t-11.5 51.5q5 32 29 51t52 19zM216 259q8 0 8 -9l-22 -230l-35 -211q-2 -9 -11 -9h-79q-10 0 -8 9l34 211l54 230q2 9 12 9h47z" />
    <glyph glyph-name="cent" unicode="&#xa2;" horiz-adv-x="533" 
d="M436 720q10 0 8 -10l-20 -120q52 -5 93 -29t67 -71q6 -7 -4 -14l-64 -40q-10 -5 -15 3q-17 35 -49.5 52.5t-79.5 17.5q-33 0 -62.5 -10.5t-53.5 -30.5t-40.5 -49.5t-22.5 -68.5t0.5 -68.5t24 -50t44 -30.5t59.5 -10q46 0 85 18.5t66 51.5q8 8 15 3l51 -40q6 -6 0 -14
q-42 -47 -91 -71t-102 -29l-21 -120q-2 -10 -11 -10h-55q-10 0 -8 10l20 121q-46 6 -81.5 26t-58 50.5t-30.5 72t0 90.5q8 50 30 91t54.5 71.5t74.5 50.5t91 26l20 121q2 10 11 10h55z" />
    <glyph glyph-name="sterling" unicode="&#xa3;" horiz-adv-x="736" 
d="M600 338q-2 -10 -12 -10h-218q-8 -43 -17 -90.5t-23 -92.5q16 -13 33 -26t35 -24t37.5 -18t39.5 -7q48 0 83.5 26t61.5 92q4 11 13 7l62 -25q7 -4 4 -12q-23 -54 -50 -87t-58 -51.5t-64.5 -25t-68.5 -6.5q-49 0 -91.5 23.5t-75.5 52.5q-23 -39 -51.5 -57.5t-69.5 -18.5
q-28 0 -46.5 10t-29 25t-13.5 33.5t-1 35.5q3 27 14 46t27.5 32t37 19t42.5 6q12 0 25.5 -2t23.5 -6q5 19 8.5 34.5t6.5 31t7 33.5t8 42h-75q-9 0 -7 10l9 55q2 9 10 9h78l18 86q23 111 79 161.5t141 50.5q81 0 123 -43.5t50 -113.5q1 -7 -8 -11l-64 -20q-10 -3 -11 7
q-3 20 -8.5 38t-17 32t-29 22t-43.5 8q-53 0 -81.5 -33.5t-42.5 -100.5l-17 -83h216q11 0 9 -9zM228 111q-19 11 -33 11t-26 -6.5t-14 -25.5q-2 -12 3.5 -21t20.5 -9t27 11.5t22 39.5z" />
    <glyph glyph-name="currency" unicode="&#xa4;" horiz-adv-x="620" 
d="M396 524q31 0 56 -7t44 -20l88 77q7 7 14 0l36 -44q5 -7 -3 -14l-87 -70q25 -48 15 -113q-5 -30 -16 -55.5t-27 -47.5l62 -72q5 -7 -3 -13l-51 -44q-7 -6 -14 1l-57 71q-53 -33 -121 -33q-34 0 -60.5 8.5t-47.5 24.5l-81 -71q-6 -6 -13 -1l-37 44q-5 7 3 13l85 72
q-19 45 -10 103q10 64 52 112l-63 71q-4 8 3 14l53 44q7 7 13 0l60 -77q23 13 50.5 20t56.5 7zM386 453q-57 0 -94 -32.5t-47 -87.5q-9 -56 17 -89t84 -33q57 0 93.5 33t45.5 89q10 55 -16 87.5t-83 32.5z" />
    <glyph glyph-name="yen" unicode="&#xa5;" horiz-adv-x="644" 
d="M134 386q2 9 11 9h130l-118 291q-5 14 12 14h83q6 0 8 -5l111 -300h25l214 300q3 5 9 5h91q8 0 9.5 -4t-3.5 -10l-216 -291h131q10 0 8 -9l-9 -55q-2 -10 -12 -10h-485q-10 0 -8 10zM111 250q2 9 12 9h485q10 0 8 -9l-9 -56q-2 -9 -11 -9h-194l-29 -175q-2 -10 -11 -10
h-79q-10 0 -8 10l29 175h-193q-11 0 -9 9z" />
    <glyph glyph-name="brokenbar" unicode="&#xa6;" horiz-adv-x="272" 
d="M244 391q-2 -9 -12 -9h-64q-10 0 -8 9l62 374q2 10 12 10h64q10 0 8 -10zM145 -200q-2 -10 -11 -10h-64q-10 0 -8 10l61 369q2 9 11 9h64q10 0 8 -9z" />
    <glyph glyph-name="section" unicode="&#xa7;" horiz-adv-x="589" 
d="M559 551q-7 -8 -13 0q-31 34 -76 55t-95 21q-59 0 -97.5 -16t-45.5 -59q-3 -19 2 -34.5t22 -29t47.5 -26.5t78.5 -27q60 -18 100.5 -38.5t64 -44.5t31.5 -53t2 -63q-8 -49 -39.5 -81.5t-79.5 -48.5q39 -24 59 -60.5t12 -85.5q-13 -80 -74.5 -120.5t-163.5 -40.5
q-76 1 -142.5 26.5t-107.5 71.5q-6 7 2 13l58 53q8 8 15 0q14 -18 33.5 -32.5t42.5 -24.5t48.5 -15.5t49.5 -5.5q60 -1 96 17.5t42 58.5q3 20 -2 36t-22 29.5t-47.5 26t-78.5 26.5q-60 18 -100.5 39t-64 46.5t-31.5 55.5t-3 64q8 51 40 81.5t83 46.5q-39 26 -60 65.5
t-13 86.5q13 76 74 112t161 36q71 0 137.5 -26t109.5 -69q6 -6 -2 -14zM181 273q-3 -25 11 -43t39.5 -31t60 -22.5t73.5 -18.5q57 5 83.5 26.5t31.5 56.5q5 26 -10.5 45t-42 32.5t-61 22.5t-69.5 15q-55 -3 -83 -24.5t-33 -58.5z" />
    <glyph glyph-name="dieresis" unicode="&#xa8;" horiz-adv-x="469" 
d="M251 692q26 0 39 -15.5t9 -41.5q-4 -25 -22 -40.5t-44 -15.5t-39 15.5t-9 40.5q4 26 21.5 41.5t44.5 15.5zM449 692q26 0 39 -15.5t9 -41.5q-4 -25 -22 -40.5t-44 -15.5t-39 15.5t-9 40.5q4 26 21.5 41.5t44.5 15.5z" />
    <glyph glyph-name="copyright" unicode="&#xa9;" horiz-adv-x="847" 
d="M482 715q79 0 146 -27.5t115.5 -76t76 -115.5t27.5 -146t-27.5 -145.5t-76 -115.5t-115.5 -76.5t-146 -27.5q-78 0 -145 27.5t-116 76.5t-76.5 115.5t-27.5 145.5t27.5 146t76.5 115.5t116 76t145 27.5zM482 675q-69 0 -128 -25t-102 -68.5t-67.5 -103t-24.5 -128.5
t24.5 -128.5t67.5 -103t102 -68.5t128 -25t128 25t102 68.5t67.5 103t24.5 128.5t-24.5 128.5t-67.5 103t-102 68.5t-128 25zM643 479q6 -8 -2 -14l-43 -32q-7 -5 -14 2q-35 42 -97 42q-51 0 -83.5 -30.5t-32.5 -95.5t32.5 -96t83.5 -31q31 0 56.5 10t42.5 31q8 8 13 2
l45 -32q8 -6 2 -14q-25 -30 -66.5 -50.5t-92.5 -20.5q-45 0 -81.5 15.5t-63 43t-40.5 64t-14 78.5t14 78.5t40.5 63.5t63 42.5t81.5 15.5q51 0 91 -20.5t65 -51.5z" />
    <glyph glyph-name="ordfeminine" unicode="&#xaa;" horiz-adv-x="409" 
d="M307 702q35 0 61 -15t37 -40l8 40q2 10 11 10h51q10 0 8 -10l-50 -290q-2 -10 -11 -10h-37q-8 0 -8 8l-2 46q-22 -29 -53 -45t-68 -16q-66 0 -100 44.5t-22 116.5q6 36 22 65.5t39.5 51t52.5 33t61 11.5zM311 635q-41 0 -70 -26t-36 -68q-8 -42 13 -68t62 -26q39 0 69 25
t38 69q7 44 -14.5 69t-61.5 25z" />
    <glyph glyph-name="guillemotleft" unicode="&#xab;" horiz-adv-x="500" 
d="M97 268q-2 5 2 10l129 157q5 5 9 5h76q18 0 7 -14l-126 -156l71 -150q6 -14 -12 -14h-72q-4 0 -7 5zM285 268q-2 5 2 10l129 157q5 5 9 5h85q8 0 10 -4.5t-4 -10.5l-133 -154l79 -150q4 -8 1 -11.5t-11 -3.5h-82q-4 0 -7 5z" />
    <glyph glyph-name="logicalnot" unicode="&#xac;" horiz-adv-x="593" 
d="M105 263q-10 0 -8 10l10 62q2 10 12 10h469q10 0 8 -10l-36 -222q-2 -10 -12 -10h-73q-10 0 -8 10l25 150h-387z" />
    <glyph glyph-name="registered" unicode="&#xae;" horiz-adv-x="741" 
d="M448 775q68 0 125 -23.5t99 -65.5t65.5 -99t23.5 -124t-23.5 -124.5t-65.5 -99.5t-99 -65.5t-125 -23.5q-67 0 -124.5 23.5t-99.5 65.5t-65.5 99.5t-23.5 124.5t23.5 124t65.5 99t99.5 65.5t124.5 23.5zM448 737q-60 0 -109.5 -20.5t-85 -57t-55.5 -87t-20 -109.5
q0 -60 20 -110t55.5 -87t85 -57.5t109.5 -20.5t109.5 20.5t85 57.5t55.5 87t20 110q0 59 -20 109.5t-55.5 87t-85 57t-109.5 20.5zM323 624q0 10 9 10h132q68 0 99 -27.5t31 -75.5q0 -32 -17 -61.5t-62 -44.5l77 -112q10 -15 -8 -15h-62q-5 0 -8 5l-65 103h-54v-98
q0 -10 -10 -10h-53q-9 0 -9 10v316zM395 472h44q79 0 79 50q0 26 -15.5 37.5t-58.5 11.5h-49v-99z" />
    <glyph glyph-name="macron" unicode="&#xaf;" horiz-adv-x="473" 
d="M496 608q-1 -9 -10 -9h-297q-9 0 -8 9l8 55q2 9 11 9h297q10 0 8 -9z" />
    <glyph glyph-name="degree" unicode="&#xb0;" horiz-adv-x="403" 
d="M325 740q35 0 62.5 -11.5t45 -32.5t25 -50t1.5 -64q-6 -34 -22.5 -63t-41 -50t-56 -33t-66.5 -12t-62.5 12t-45 33t-25 50t-1.5 63q6 35 22.5 64t41.5 50t56 32.5t66 11.5zM314 671q-38 0 -66 -24.5t-35 -64.5t13 -64.5t58 -24.5t66 24.5t35 64.5q6 40 -13.5 64.5
t-57.5 24.5z" />
    <glyph glyph-name="plusminus" unicode="&#xb1;" horiz-adv-x="596" 
d="M420 534q9 0 7 -10l-31 -190h195q9 0 7 -9l-10 -61q-1 -9 -11 -9h-195l-29 -175h195q10 0 8 -10l-10 -60q-2 -10 -11 -10h-474q-9 0 -7 10l10 60q2 10 10 10h195l29 175h-195q-8 0 -7 9l10 61q2 9 11 9h195l32 190q2 10 11 10h65z" />
    <glyph glyph-name="twosuperior" unicode="&#xb2;" horiz-adv-x="336" 
d="M207 703q-6 -9 -15 -6l-43 18q-9 5 -4 13q27 48 71.5 75t100.5 27q60 0 90 -31t21 -85q-7 -40 -31.5 -73t-66.5 -70l-99 -87h150q10 0 8 -9l-10 -55q-2 -10 -11 -10h-265q-10 0 -8 10l4 23q0 3 4 7l177 164q32 29 47.5 50.5t19.5 44.5q4 24 -8.5 37.5t-41.5 13.5
t-51.5 -15t-38.5 -42z" />
    <glyph glyph-name="threesuperior" unicode="&#xb3;" horiz-adv-x="348" 
d="M228 586q-9 0 -8 9l7 44q2 10 12 10h31q29 0 52.5 16t28.5 45q9 50 -50 50q-60 0 -91 -55q-7 -9 -13 -6l-45 22q-9 4 -4 12q22 45 60.5 71t98.5 26q70 0 102.5 -32.5t24.5 -80.5q-6 -38 -30 -62t-58 -35q38 -10 52.5 -40t8.5 -66q-8 -53 -49.5 -83.5t-109.5 -30.5
q-56 0 -95.5 26t-48.5 77q-2 7 8 11l53 18q9 5 11 -6q12 -55 75 -55q68 0 77 56q9 59 -68 59h-32z" />
    <glyph glyph-name="acute" unicode="&#xb4;" horiz-adv-x="334" 
d="M270 695q3 5 10 5h82q20 0 5 -15l-106 -111q-4 -4 -9 -4h-68q-17 0 -5 14z" />
    <glyph glyph-name="uni00B5" unicode="&#xb5;" horiz-adv-x="519" 
d="M208 440q10 0 8 -10l-35 -209q-13 -75 8 -109t76 -34q26 0 49.5 7t43 23.5t33.5 43t21 66.5l36 212q2 10 11 10h73q10 0 8 -10l-70 -420q-2 -10 -11 -10h-51q-8 0 -8 8l-1 65q-60 -83 -157 -83q-68 0 -99 43l-28 -212q-1 -9 -11 -9h-74q-9 0 -8 9l102 609q2 10 11 10h73z
" />
    <glyph glyph-name="paragraph" unicode="&#xb6;" horiz-adv-x="642" 
d="M671 700q9 0 7 -10l-138 -829q-2 -9 -11 -9h-64q-10 0 -8 9l126 757h-100l-126 -757q-2 -9 -12 -9h-64q-10 0 -8 9l67 405q-53 0 -95.5 11.5t-70.5 37t-39.5 67t-1.5 101.5q10 61 35 102.5t61.5 67t83.5 36.5t101 11h257z" />
    <glyph glyph-name="periodcentered" unicode="&#xb7;" horiz-adv-x="268" 
d="M195 369q27 0 44.5 -18.5t12.5 -50.5t-28.5 -50.5t-50.5 -18.5t-44.5 18.5t-12.5 50.5t28.5 50.5t50.5 18.5z" />
    <glyph glyph-name="cedilla" unicode="&#xb8;" horiz-adv-x="384" 
d="M192 15q12 0 8 -11l-18 -51q57 -4 82 -27t19 -61q-7 -42 -46 -63.5t-107 -21.5q-42 0 -79 8q-9 2 -5 11l13 44q3 11 13 8q18 -5 38.5 -7t38.5 -2q28 0 43.5 9t17.5 23q3 18 -17 26.5t-71 10.5q-12 0 -8 11l31 85q2 8 10 8h37z" />
    <glyph glyph-name="onesuperior" unicode="&#xb9;" horiz-adv-x="246" 
d="M324 820q8 0 8 -9l-66 -391q-2 -10 -11 -10h-59q-10 0 -8 10l52 310l-78 -21q-9 -3 -11 7l-6 55q-2 8 9 12l140 37h3h27z" />
    <glyph glyph-name="ordmasculine" unicode="&#xba;" horiz-adv-x="407" 
d="M320 702q35 0 63 -12t46 -33.5t25.5 -51t1.5 -64.5t-23.5 -64.5t-43 -51t-57 -33.5t-65.5 -12q-36 0 -64 12t-45.5 33.5t-24.5 51t-1 64.5t22.5 64.5t41.5 51t56.5 33.5t67.5 12zM311 635q-40 0 -69.5 -26t-36.5 -68q-8 -42 8.5 -68t58.5 -26q41 0 72.5 26t38.5 68
t-10.5 68t-61.5 26z" />
    <glyph glyph-name="guillemotright" unicode="&#xbb;" horiz-adv-x="500" 
d="M493 278q3 -5 -2 -10l-129 -158q-3 -4 -9 -4h-76q-15 0 -6 14l127 158l-72 148q-7 14 11 14h72q5 0 7 -5zM305 278q3 -5 -2 -10l-129 -158q-3 -4 -9 -4h-85q-17 0 -5 15l134 157l-75 147q-8 15 10 15h76q5 0 7 -5z" />
    <glyph glyph-name="onequarter" unicode="&#xbc;" horiz-adv-x="780" 
d="M304 700q10 0 8 -9l-66 -391q-2 -10 -11 -10h-58q-10 0 -8 10l51 310l-78 -21q-9 -3 -11 7l-6 55q-2 8 9 12l140 37h3h27zM718 700q18 0 7 -14l-522 -681q-5 -5 -10 -5h-55q-17 0 -7 14l522 681q5 5 10 5h55zM777 87q-1 -9 -11 -9h-53l-12 -68q-2 -10 -11 -10h-59
q-10 0 -8 10l12 68h-188q-9 0 -8 9l4 26q1 1 1 2t1 2l185 287q5 6 10 6h68q8 0 9 -4t-3 -9l-168 -250h100l13 78q2 10 11 10h59q10 0 8 -10l-13 -78h53q10 0 8 -9z" />
    <glyph glyph-name="onehalf" unicode="&#xbd;" horiz-adv-x="795" 
d="M304 700q10 0 8 -9l-66 -391q-2 -10 -11 -10h-58q-10 0 -8 10l51 310l-78 -21q-9 -3 -11 7l-6 55q-2 8 9 12l140 37h3h27zM718 700q17 0 6 -14l-522 -681q-3 -5 -9 -5h-56q-17 0 -7 14l522 681q5 5 10 5h56zM597 293q-5 -9 -14 -6l-44 18q-7 5 -4 13q27 48 72 75t101 27
q60 0 90 -31t21 -85q-7 -40 -31.5 -73t-66.5 -70l-100 -87h150q10 0 8 -9l-9 -55q-2 -10 -11 -10h-266q-9 0 -7 10l3 23q1 2 1.5 3.5t2.5 3.5l178 164q32 29 47 50.5t19 44.5q5 24 -7.5 37.5t-41.5 13.5t-52 -15t-39 -42z" />
    <glyph glyph-name="threequarters" unicode="&#xbe;" horiz-adv-x="861" 
d="M208 466q-9 0 -8 9l8 44q2 10 11 10h31q29 0 52.5 16t28.5 45q9 50 -50 50q-60 0 -91 -55q-7 -9 -13 -6l-46 17q-9 4 -4 12q25 49 69 75.5t104 26.5q63 0 93.5 -28t22.5 -76q-7 -37 -31.5 -66t-57.5 -40q37 -10 52.5 -36.5t9.5 -62.5q-9 -53 -55 -87t-114 -34
q-56 0 -91.5 26t-44.5 77q-2 7 8 11l53 18q9 5 11 -6q12 -55 75 -55q68 0 77 56q9 59 -68 59h-32zM795 700q18 0 6 -14l-521 -681q-5 -5 -10 -5h-56q-16 0 -6 14l522 681q3 5 9 5h56zM858 87q-1 -9 -11 -9h-54l-11 -68q-2 -10 -11 -10h-59q-10 0 -8 10l12 68h-188q-9 0 -8 9
l4 26q0 2 2 4l185 287q5 6 10 6h68q7 0 8.5 -4t-2.5 -9l-168 -250h100l13 78q2 10 11 10h59q10 0 8 -10l-13 -78h53q10 0 8 -9z" />
    <glyph glyph-name="questiondown" unicode="&#xbf;" horiz-adv-x="520" 
d="M385 512q29 0 47 -19t13 -51q-3 -16 -11 -29t-19.5 -22.5t-25 -14.5t-27.5 -5q-29 0 -46 19.5t-12 51.5t28.5 51t52.5 19zM395 291q10 0 8 -9q-5 -25 -14 -48.5t-26.5 -46t-46.5 -45t-74 -45.5q-30 -15 -50.5 -28t-33.5 -26t-19.5 -27.5t-8.5 -32.5q-5 -45 21 -69.5
t89 -24.5q56 0 95.5 28t73.5 71q7 6 13 0l50 -45q5 -5 -1 -13q-48 -62 -109.5 -96t-138.5 -34q-53 0 -91 15t-62 40.5t-33.5 59t-4.5 70.5q5 34 19 60t36 47.5t51 40t65 37.5q23 12 39 23.5t27.5 24.5t19 28.5t11.5 35.5q2 9 12 9h83z" />
    <glyph glyph-name="Agrave" unicode="&#xc0;" horiz-adv-x="745" 
d="M503 705q5 0 8 -6l196 -686q4 -13 -12 -13h-83q-7 0 -9 6l-44 165h-305l-97 -165q-3 -6 -10 -6h-97q-14 0 -7 13l425 686q3 6 10 6h25zM537 264l-71 270l-157 -270h228zM536 764q6 -14 -10 -14h-68q-4 0 -7 4l-69 111q-5 7 -2.5 11t11.5 4h84q4 0 7 -5z" />
    <glyph glyph-name="Aacute" unicode="&#xc1;" horiz-adv-x="745" 
d="M503 705q5 0 8 -6l196 -686q4 -13 -12 -13h-83q-7 0 -9 6l-44 165h-305l-97 -165q-3 -6 -10 -6h-97q-14 0 -7 13l425 686q3 6 10 6h25zM537 264l-71 270l-157 -270h228zM552 875q3 5 10 5h82q20 0 5 -15l-106 -111q-4 -4 -9 -4h-68q-17 0 -5 14z" />
    <glyph glyph-name="Acircumflex" unicode="&#xc2;" horiz-adv-x="745" 
d="M503 705q5 0 8 -6l196 -686q4 -13 -12 -13h-83q-7 0 -9 6l-44 165h-305l-97 -165q-3 -6 -10 -6h-97q-14 0 -7 13l425 686q3 6 10 6h25zM537 264l-71 270l-157 -270h228zM650 765q5 -6 3 -10.5t-9 -4.5h-69q-5 0 -8 4l-59 78l-72 -77q-3 -4 -5 -4.5t-4 -0.5h-73
q-20 0 -5 15l116 111q3 4 8 4h72q4 0 7 -4z" />
    <glyph glyph-name="Atilde" unicode="&#xc3;" horiz-adv-x="745" 
d="M503 705q5 0 8 -6l196 -686q4 -13 -12 -13h-83q-7 0 -9 6l-44 165h-305l-97 -165q-3 -6 -10 -6h-97q-14 0 -7 13l425 686q3 6 10 6h25zM537 264l-71 270l-157 -270h228zM676 880q10 0 8 -9q-7 -42 -19 -70t-27.5 -44.5t-33.5 -23t-37 -6.5q-23 0 -39.5 13t-29.5 28.5
t-25.5 28.5t-27.5 13q-14 0 -26.5 -16t-17.5 -53q-2 -9 -11 -9h-56q-9 0 -7 9q5 39 17 66.5t28.5 45t35.5 25t38 7.5q24 0 39.5 -13t28.5 -28t25 -28t28 -13q15 0 26.5 14t16.5 54q2 9 11 9h55z" />
    <glyph glyph-name="Adieresis" unicode="&#xc4;" horiz-adv-x="745" 
d="M503 705q5 0 8 -6l196 -686q4 -13 -12 -13h-83q-7 0 -9 6l-44 165h-305l-97 -165q-3 -6 -10 -6h-97q-14 0 -7 13l425 686q3 6 10 6h25zM537 264l-71 270l-157 -270h228zM417 872q26 0 39 -15.5t9 -41.5q-4 -25 -22 -40.5t-44 -15.5t-39 15.5t-9 40.5q4 26 21.5 41.5
t44.5 15.5zM615 872q26 0 39 -15.5t9 -41.5q-4 -25 -22 -40.5t-44 -15.5t-39 15.5t-9 40.5q4 26 21.5 41.5t44.5 15.5z" />
    <glyph glyph-name="Aring" unicode="&#xc5;" horiz-adv-x="745" 
d="M503 705q5 0 8 -6l196 -686q4 -13 -12 -13h-83q-7 0 -9 6l-44 165h-305l-97 -165q-3 -6 -10 -6h-97q-14 0 -7 13l425 686q3 6 10 6h25zM537 264l-71 270l-157 -270h228zM531 964q54 0 82 -33.5t20 -84.5q-4 -24 -16.5 -45.5t-31.5 -37t-42.5 -24.5t-49.5 -9
q-54 0 -82 33.5t-20 82.5q4 25 16 46.5t31 37.5t42.5 25t50.5 9zM523 910q-32 0 -50.5 -17t-23.5 -47q-5 -29 7.5 -45.5t44.5 -16.5t50 16.5t23 45.5q5 30 -7.5 47t-43.5 17z" />
    <glyph glyph-name="AE" unicode="&#xc6;" horiz-adv-x="943" 
d="M987 617q-1 -9 -11 -9h-385l21 -207h290q10 0 8 -10l-12 -68q-1 -9 -11 -9h-267l21 -222h249q10 0 8 -9l-12 -73q-2 -10 -11 -10h-321q-8 0 -8 8l-15 162h-283l-100 -164q-4 -6 -11 -6h-87q-8 0 -9.5 4t2.5 9l422 681q3 6 9 6h517q10 0 8 -10zM526 263l-32 315l-191 -315
h223z" />
    <glyph glyph-name="Ccedilla" unicode="&#xc7;" horiz-adv-x="723" 
d="M773 583q5 -9 -4 -14l-68 -38q-9 -5 -13 2q-28 46 -70.5 66.5t-108.5 20.5q-58 0 -107.5 -19t-87.5 -54.5t-64 -85t-36 -110.5q-10 -62 -1.5 -112t35 -85t69.5 -54t100 -19q65 0 115.5 23.5t99.5 74.5q8 8 14 2l57 -48q6 -6 0 -14q-60 -62 -133.5 -96.5t-166.5 -34.5
q-79 0 -139.5 27.5t-98.5 76.5t-52 116t-1 146q13 78 47.5 144t87 113.5t121 74t148.5 26.5q93 0 156 -34t101 -95zM422 15q12 0 8 -11l-18 -51q57 -4 82 -27t19 -61q-7 -42 -46 -63.5t-107 -21.5q-42 0 -79 8q-9 2 -5 11l13 44q3 11 13 8q18 -5 38.5 -7t38.5 -2
q28 0 43.5 9t17.5 23q3 18 -17 26.5t-71 10.5q-12 0 -8 11l31 85q2 8 10 8h37z" />
    <glyph glyph-name="Egrave" unicode="&#xc8;" horiz-adv-x="573" 
d="M194 690q2 10 11 10h413q10 0 8 -10l-12 -73q-1 -9 -11 -9h-325l-34 -207h289q10 0 8 -10l-11 -68q-1 -9 -11 -9h-290l-37 -222h329q10 0 8 -9l-12 -73q-2 -10 -11 -10h-417q-10 0 -8 10zM466 764q6 -14 -10 -14h-68q-4 0 -7 4l-69 111q-5 7 -2.5 11t11.5 4h84q4 0 7 -5z
" />
    <glyph glyph-name="Eacute" unicode="&#xc9;" horiz-adv-x="573" 
d="M194 690q2 10 11 10h413q10 0 8 -10l-12 -73q-1 -9 -11 -9h-325l-34 -207h289q10 0 8 -10l-11 -68q-1 -9 -11 -9h-290l-37 -222h329q10 0 8 -9l-12 -73q-2 -10 -11 -10h-417q-10 0 -8 10zM482 875q3 5 10 5h82q20 0 5 -15l-106 -111q-4 -4 -9 -4h-68q-17 0 -5 14z" />
    <glyph glyph-name="Ecircumflex" unicode="&#xca;" horiz-adv-x="573" 
d="M194 690q2 10 11 10h413q10 0 8 -10l-12 -73q-1 -9 -11 -9h-325l-34 -207h289q10 0 8 -10l-11 -68q-1 -9 -11 -9h-290l-37 -222h329q10 0 8 -9l-12 -73q-2 -10 -11 -10h-417q-10 0 -8 10zM580 765q5 -6 3 -10.5t-9 -4.5h-69q-5 0 -8 4l-59 78l-72 -77q-3 -4 -5 -4.5
t-4 -0.5h-73q-20 0 -5 15l116 111q3 4 8 4h72q4 0 7 -4z" />
    <glyph glyph-name="Edieresis" unicode="&#xcb;" horiz-adv-x="573" 
d="M194 690q2 10 11 10h413q10 0 8 -10l-12 -73q-1 -9 -11 -9h-325l-34 -207h289q10 0 8 -10l-11 -68q-1 -9 -11 -9h-290l-37 -222h329q10 0 8 -9l-12 -73q-2 -10 -11 -10h-417q-10 0 -8 10zM346 872q26 0 39 -15.5t9 -41.5q-4 -25 -22 -40.5t-44 -15.5t-39 15.5t-9 40.5
q4 26 21.5 41.5t44.5 15.5zM544 872q26 0 39 -15.5t9 -41.5q-4 -25 -22 -40.5t-44 -15.5t-39 15.5t-9 40.5q4 26 21.5 41.5t44.5 15.5z" />
    <glyph glyph-name="Igrave" unicode="&#xcc;" horiz-adv-x="257" 
d="M285 700q10 0 8 -10l-113 -680q-2 -10 -12 -10h-78q-10 0 -8 10l113 680q2 10 11 10h79zM295 764q6 -14 -10 -14h-68q-4 0 -7 4l-69 111q-5 7 -2.5 11t11.5 4h84q4 0 7 -5z" />
    <glyph glyph-name="Iacute" unicode="&#xcd;" horiz-adv-x="257" 
d="M285 700q10 0 8 -10l-113 -680q-2 -10 -12 -10h-78q-10 0 -8 10l113 680q2 10 11 10h79zM311 875q3 5 10 5h82q20 0 5 -15l-106 -111q-4 -4 -9 -4h-68q-17 0 -5 14z" />
    <glyph glyph-name="Icircumflex" unicode="&#xce;" horiz-adv-x="257" 
d="M285 700q10 0 8 -10l-113 -680q-2 -10 -12 -10h-78q-10 0 -8 10l113 680q2 10 11 10h79zM408 765q5 -6 3 -10.5t-9 -4.5h-69q-5 0 -8 4l-59 78l-72 -77q-3 -4 -5 -4.5t-4 -0.5h-73q-20 0 -5 15l116 111q3 4 8 4h72q4 0 7 -4z" />
    <glyph glyph-name="Idieresis" unicode="&#xcf;" horiz-adv-x="257" 
d="M285 700q10 0 8 -10l-113 -680q-2 -10 -12 -10h-78q-10 0 -8 10l113 680q2 10 11 10h79zM175 872q26 0 39 -15.5t9 -41.5q-4 -25 -22 -40.5t-44 -15.5t-39 15.5t-9 40.5q4 26 21.5 41.5t44.5 15.5zM373 872q26 0 39 -15.5t9 -41.5q-4 -25 -22 -40.5t-44 -15.5t-39 15.5
t-9 40.5q4 26 21.5 41.5t44.5 15.5z" />
    <glyph glyph-name="Eth" unicode="&#xd0;" horiz-adv-x="804" 
d="M250 690q2 10 11 10h234q87 0 152 -24t106 -68.5t56 -107t2 -140.5q-13 -80 -50.5 -146t-94 -113.5t-130 -74t-157.5 -26.5h-234q-10 0 -8 10l50 301h-77q-10 0 -8 9l10 55q2 10 11 10h76zM458 385q10 0 8 -10l-9 -55q-2 -9 -11 -9h-161l-37 -219h146q63 0 116.5 18.5
t94 53t67.5 84t37 112.5q20 122 -38.5 185t-190.5 63h-146l-37 -223h161z" />
    <glyph glyph-name="Ntilde" unicode="&#xd1;" horiz-adv-x="703" 
d="M732 700q10 0 8 -10l-114 -685q-2 -10 -11 -10h-20q-7 0 -12 6l-323 497l-81 -488q-2 -10 -12 -10h-78q-10 0 -8 10l114 685q2 10 11 10h21q6 0 10 -6l324 -497l81 488q2 10 12 10h78zM655 880q10 0 8 -9q-7 -42 -19 -70t-27.5 -44.5t-33.5 -23t-37 -6.5q-23 0 -39.5 13
t-29.5 28.5t-25.5 28.5t-27.5 13q-14 0 -26.5 -16t-17.5 -53q-2 -9 -11 -9h-56q-9 0 -7 9q5 39 17 66.5t28.5 45t35.5 25t38 7.5q24 0 39.5 -13t28.5 -28t25 -28t28 -13q15 0 26.5 14t16.5 54q2 9 11 9h55z" />
    <glyph glyph-name="Ograve" unicode="&#xd2;" horiz-adv-x="815" 
d="M513 712q79 0 142 -27.5t104 -75.5t58 -114.5t4 -144.5q-13 -81 -49 -147.5t-89 -114.5t-120 -74t-143 -26q-79 0 -142 27.5t-104 75.5t-58 114.5t-4 144.5q14 81 49.5 147.5t88 114.5t120 74t143.5 26zM507 620q-57 0 -106 -19t-87.5 -54t-64 -85t-36.5 -112
q-10 -61 0 -110.5t38 -85t72.5 -55t102.5 -19.5q57 0 106 19t87.5 54t64 85t35.5 112q10 61 0 110.5t-37.5 85t-72 55t-102.5 19.5zM568 774q6 -14 -10 -14h-68q-4 0 -7 4l-69 111q-5 7 -2.5 11t11.5 4h84q4 0 7 -5z" />
    <glyph glyph-name="Oacute" unicode="&#xd3;" horiz-adv-x="815" 
d="M513 712q79 0 142 -27.5t104 -75.5t58 -114.5t4 -144.5q-13 -81 -49 -147.5t-89 -114.5t-120 -74t-143 -26q-79 0 -142 27.5t-104 75.5t-58 114.5t-4 144.5q14 81 49.5 147.5t88 114.5t120 74t143.5 26zM507 620q-57 0 -106 -19t-87.5 -54t-64 -85t-36.5 -112
q-10 -61 0 -110.5t38 -85t72.5 -55t102.5 -19.5q57 0 106 19t87.5 54t64 85t35.5 112q10 61 0 110.5t-37.5 85t-72 55t-102.5 19.5zM584 885q3 5 10 5h82q20 0 5 -15l-106 -111q-4 -4 -9 -4h-68q-17 0 -5 14z" />
    <glyph glyph-name="Ocircumflex" unicode="&#xd4;" horiz-adv-x="815" 
d="M513 712q79 0 142 -27.5t104 -75.5t58 -114.5t4 -144.5q-13 -81 -49 -147.5t-89 -114.5t-120 -74t-143 -26q-79 0 -142 27.5t-104 75.5t-58 114.5t-4 144.5q14 81 49.5 147.5t88 114.5t120 74t143.5 26zM507 620q-57 0 -106 -19t-87.5 -54t-64 -85t-36.5 -112
q-10 -61 0 -110.5t38 -85t72.5 -55t102.5 -19.5q57 0 106 19t87.5 54t64 85t35.5 112q10 61 0 110.5t-37.5 85t-72 55t-102.5 19.5zM682 775q5 -6 3 -10.5t-9 -4.5h-69q-5 0 -8 4l-59 78l-72 -77q-3 -4 -5 -4.5t-4 -0.5h-73q-20 0 -5 15l116 111q3 4 8 4h72q4 0 7 -4z" />
    <glyph glyph-name="Otilde" unicode="&#xd5;" horiz-adv-x="815" 
d="M513 712q79 0 142 -27.5t104 -75.5t58 -114.5t4 -144.5q-13 -81 -49 -147.5t-89 -114.5t-120 -74t-143 -26q-79 0 -142 27.5t-104 75.5t-58 114.5t-4 144.5q14 81 49.5 147.5t88 114.5t120 74t143.5 26zM507 620q-57 0 -106 -19t-87.5 -54t-64 -85t-36.5 -112
q-10 -61 0 -110.5t38 -85t72.5 -55t102.5 -19.5q57 0 106 19t87.5 54t64 85t35.5 112q10 61 0 110.5t-37.5 85t-72 55t-102.5 19.5zM708 890q10 0 8 -9q-7 -42 -19 -70t-27.5 -44.5t-33.5 -23t-37 -6.5q-23 0 -39.5 13t-29.5 28.5t-25.5 28.5t-27.5 13q-14 0 -26.5 -16
t-17.5 -53q-2 -9 -11 -9h-56q-9 0 -7 9q5 39 17 66.5t28.5 45t35.5 25t38 7.5q24 0 39.5 -13t28.5 -28t25 -28t28 -13q15 0 26.5 14t16.5 54q2 9 11 9h55z" />
    <glyph glyph-name="Odieresis" unicode="&#xd6;" horiz-adv-x="815" 
d="M513 712q79 0 142 -27.5t104 -75.5t58 -114.5t4 -144.5q-13 -81 -49 -147.5t-89 -114.5t-120 -74t-143 -26q-79 0 -142 27.5t-104 75.5t-58 114.5t-4 144.5q14 81 49.5 147.5t88 114.5t120 74t143.5 26zM507 620q-57 0 -106 -19t-87.5 -54t-64 -85t-36.5 -112
q-10 -61 0 -110.5t38 -85t72.5 -55t102.5 -19.5q57 0 106 19t87.5 54t64 85t35.5 112q10 61 0 110.5t-37.5 85t-72 55t-102.5 19.5zM449 882q26 0 39 -15.5t9 -41.5q-4 -25 -22 -40.5t-44 -15.5t-39 15.5t-9 40.5q4 26 21.5 41.5t44.5 15.5zM647 882q26 0 39 -15.5t9 -41.5
q-4 -25 -22 -40.5t-44 -15.5t-39 15.5t-9 40.5q4 26 21.5 41.5t44.5 15.5z" />
    <glyph glyph-name="multiply" unicode="&#xd7;" horiz-adv-x="562" 
d="M572 436q5 -5 -1 -13l-190 -161l142 -171q5 -7 -2 -14l-47 -39q-6 -7 -13 0l-142 171l-189 -160q-7 -7 -13 0l-38 46q-6 6 2 13l189 161l-142 171q-5 6 2 13l47 40q7 5 13 0l142 -172l188 160q7 7 13 0z" />
    <glyph glyph-name="Oslash" unicode="&#xd8;" horiz-adv-x="815" 
d="M527 712q61 0 111 -16.5t88 -47.5l101 99q6 8 14 2l33 -34q6 -5 0 -13l-103 -100q36 -48 49.5 -112t0.5 -140q-13 -78 -50 -144.5t-92 -115t-125 -75.5t-148 -27q-60 0 -110 16.5t-88 46.5l-106 -104q-7 -7 -14 -1l-31 36q-6 6 1 13l104 102q-36 48 -49.5 112.5
t-0.5 140.5q13 78 50 144.5t92 115t125 75.5t148 27zM512 621q-58 0 -108 -19.5t-89.5 -55t-66 -85.5t-36.5 -111q-9 -54 -2 -99.5t28 -79.5l416 406q-55 44 -142 44zM280 122q55 -43 141 -43q58 0 108 19.5t89.5 55t66 85.5t36.5 111q18 108 -25 179z" />
    <glyph glyph-name="Ugrave" unicode="&#xd9;" horiz-adv-x="675" 
d="M708 700q10 0 8 -10l-72 -431q-10 -61 -35.5 -111.5t-64.5 -85.5t-90 -54.5t-112 -19.5t-107.5 19.5t-75.5 54.5t-40 85.5t-1 111.5l72 431q2 10 11 10h79q10 0 8 -10l-70 -421q-16 -94 17.5 -141.5t114.5 -47.5t131.5 47.5t66.5 141.5l70 421q2 10 11 10h79zM499 764
q6 -14 -10 -14h-68q-4 0 -7 4l-69 111q-5 7 -2.5 11t11.5 4h84q4 0 7 -5z" />
    <glyph glyph-name="Uacute" unicode="&#xda;" horiz-adv-x="675" 
d="M708 700q10 0 8 -10l-72 -431q-10 -61 -35.5 -111.5t-64.5 -85.5t-90 -54.5t-112 -19.5t-107.5 19.5t-75.5 54.5t-40 85.5t-1 111.5l72 431q2 10 11 10h79q10 0 8 -10l-70 -421q-16 -94 17.5 -141.5t114.5 -47.5t131.5 47.5t66.5 141.5l70 421q2 10 11 10h79zM515 875
q3 5 10 5h82q20 0 5 -15l-106 -111q-4 -4 -9 -4h-68q-17 0 -5 14z" />
    <glyph glyph-name="Ucircumflex" unicode="&#xdb;" horiz-adv-x="675" 
d="M708 700q10 0 8 -10l-72 -431q-10 -61 -35.5 -111.5t-64.5 -85.5t-90 -54.5t-112 -19.5t-107.5 19.5t-75.5 54.5t-40 85.5t-1 111.5l72 431q2 10 11 10h79q10 0 8 -10l-70 -421q-16 -94 17.5 -141.5t114.5 -47.5t131.5 47.5t66.5 141.5l70 421q2 10 11 10h79zM612 765
q5 -6 3 -10.5t-9 -4.5h-69q-5 0 -8 4l-59 78l-72 -77q-3 -4 -5 -4.5t-4 -0.5h-73q-20 0 -5 15l116 111q3 4 8 4h72q4 0 7 -4z" />
    <glyph glyph-name="Udieresis" unicode="&#xdc;" horiz-adv-x="675" 
d="M708 700q10 0 8 -10l-72 -431q-10 -61 -35.5 -111.5t-64.5 -85.5t-90 -54.5t-112 -19.5t-107.5 19.5t-75.5 54.5t-40 85.5t-1 111.5l72 431q2 10 11 10h79q10 0 8 -10l-70 -421q-16 -94 17.5 -141.5t114.5 -47.5t131.5 47.5t66.5 141.5l70 421q2 10 11 10h79zM379 872
q26 0 39 -15.5t9 -41.5q-4 -25 -22 -40.5t-44 -15.5t-39 15.5t-9 40.5q4 26 21.5 41.5t44.5 15.5zM577 872q26 0 39 -15.5t9 -41.5q-4 -25 -22 -40.5t-44 -15.5t-39 15.5t-9 40.5q4 26 21.5 41.5t44.5 15.5z" />
    <glyph glyph-name="Yacute" unicode="&#xdd;" horiz-adv-x="643" 
d="M722 700q14 0 3 -14l-308 -405l-45 -271q-2 -10 -11 -10h-79q-10 0 -8 10l45 271l-173 405q-5 14 9 14h87q5 0 7 -5l130 -321l234 321q5 5 10 5h99zM502 875q3 5 10 5h82q20 0 5 -15l-106 -111q-4 -4 -9 -4h-68q-17 0 -5 14z" />
    <glyph glyph-name="Thorn" unicode="&#xde;" horiz-adv-x="595" 
d="M194 690q2 10 12 10h78q10 0 8 -10l-23 -136h133q122 0 178.5 -52.5t40.5 -149.5q-17 -97 -82 -151.5t-183 -54.5h-155l-22 -136q-2 -10 -12 -10h-78q-10 0 -8 10zM217 239h129q81 0 122.5 25.5t51.5 85.5q11 62 -16 86.5t-108 24.5h-142z" />
    <glyph glyph-name="germandbls" unicode="&#xdf;" horiz-adv-x="555" 
d="M34 -190q-9 0 -7 10l117 707q8 46 28 83.5t49.5 64t68.5 41t84 14.5q94 0 134.5 -39.5t29.5 -104.5q-5 -31 -20.5 -56.5t-33 -48t-32 -41.5t-17.5 -37q-2 -11 7 -23.5t22.5 -27t29.5 -32t29 -39.5t19.5 -48.5t0.5 -59.5t-23 -66.5t-48 -59.5t-75 -42.5t-104 -16.5
q-25 0 -46 1.5t-41 5.5q-8 2 -6 10l11 66q2 12 13 10q15 -4 35 -6t39 -2q66 0 103 33.5t45 78.5q4 27 -3.5 46.5t-20.5 35t-29.5 29.5t-30 29t-21.5 33t-4 42q5 27 20.5 49t33 41.5t32.5 39t19 42.5q5 36 -12 56t-66 20q-55 0 -86 -32.5t-41 -91.5l-118 -704q-2 -10 -11 -10
h-74z" />
    <glyph glyph-name="agrave" unicode="&#xe0;" horiz-adv-x="555" 
d="M333 452q55 0 92.5 -23.5t54.5 -66.5l26 70q2 8 11 8h51q10 0 8 -10l-71 -420q-2 -10 -11 -10h-51q-8 0 -8 8l-3 72q-32 -43 -77 -67.5t-99 -24.5q-46 0 -83 17.5t-60.5 48.5t-33 73.5t-0.5 93.5q8 50 31.5 92.5t57.5 73.5t76.5 48t88.5 17zM336 370q-66 0 -109 -41.5
t-54 -107.5q-5 -33 -0.5 -60.5t19 -48t38 -32t56.5 -11.5q30 0 57 11t49.5 31.5t37.5 48.5t21 61q5 33 -1 60.5t-21.5 47t-39 30.5t-53.5 11zM401 544q6 -14 -10 -14h-68q-4 0 -7 4l-69 111q-5 7 -2.5 11t11.5 4h84q4 0 7 -5z" />
    <glyph glyph-name="aacute" unicode="&#xe1;" horiz-adv-x="555" 
d="M333 452q55 0 92.5 -23.5t54.5 -66.5l26 70q2 8 11 8h51q10 0 8 -10l-71 -420q-2 -10 -11 -10h-51q-8 0 -8 8l-3 72q-32 -43 -77 -67.5t-99 -24.5q-46 0 -83 17.5t-60.5 48.5t-33 73.5t-0.5 93.5q8 50 31.5 92.5t57.5 73.5t76.5 48t88.5 17zM336 370q-66 0 -109 -41.5
t-54 -107.5q-5 -33 -0.5 -60.5t19 -48t38 -32t56.5 -11.5q30 0 57 11t49.5 31.5t37.5 48.5t21 61q5 33 -1 60.5t-21.5 47t-39 30.5t-53.5 11zM417 655q3 5 10 5h82q20 0 5 -15l-106 -111q-4 -4 -9 -4h-68q-17 0 -5 14z" />
    <glyph glyph-name="acircumflex" unicode="&#xe2;" horiz-adv-x="555" 
d="M333 452q55 0 92.5 -23.5t54.5 -66.5l26 70q2 8 11 8h51q10 0 8 -10l-71 -420q-2 -10 -11 -10h-51q-8 0 -8 8l-3 72q-32 -43 -77 -67.5t-99 -24.5q-46 0 -83 17.5t-60.5 48.5t-33 73.5t-0.5 93.5q8 50 31.5 92.5t57.5 73.5t76.5 48t88.5 17zM336 370q-66 0 -109 -41.5
t-54 -107.5q-5 -33 -0.5 -60.5t19 -48t38 -32t56.5 -11.5q30 0 57 11t49.5 31.5t37.5 48.5t21 61q5 33 -1 60.5t-21.5 47t-39 30.5t-53.5 11zM514 545q5 -6 3 -10.5t-9 -4.5h-69q-5 0 -8 4l-59 78l-72 -77q-3 -4 -5 -4.5t-4 -0.5h-73q-20 0 -5 15l116 111q3 4 8 4h72
q4 0 7 -4z" />
    <glyph glyph-name="atilde" unicode="&#xe3;" horiz-adv-x="555" 
d="M333 452q55 0 92.5 -23.5t54.5 -66.5l26 70q2 8 11 8h51q10 0 8 -10l-71 -420q-2 -10 -11 -10h-51q-8 0 -8 8l-3 72q-32 -43 -77 -67.5t-99 -24.5q-46 0 -83 17.5t-60.5 48.5t-33 73.5t-0.5 93.5q8 50 31.5 92.5t57.5 73.5t76.5 48t88.5 17zM336 370q-66 0 -109 -41.5
t-54 -107.5q-5 -33 -0.5 -60.5t19 -48t38 -32t56.5 -11.5q30 0 57 11t49.5 31.5t37.5 48.5t21 61q5 33 -1 60.5t-21.5 47t-39 30.5t-53.5 11zM540 660q10 0 8 -9q-7 -42 -19 -70t-27.5 -44.5t-33.5 -23t-37 -6.5q-23 0 -39.5 13t-29.5 28.5t-25.5 28.5t-27.5 13
q-14 0 -26.5 -16t-17.5 -53q-2 -9 -11 -9h-56q-9 0 -7 9q5 39 17 66.5t28.5 45t35.5 25t38 7.5q24 0 39.5 -13t28.5 -28t25 -28t28 -13q15 0 26.5 14t16.5 54q2 9 11 9h55z" />
    <glyph glyph-name="adieresis" unicode="&#xe4;" horiz-adv-x="555" 
d="M333 452q55 0 92.5 -23.5t54.5 -66.5l26 70q2 8 11 8h51q10 0 8 -10l-71 -420q-2 -10 -11 -10h-51q-8 0 -8 8l-3 72q-32 -43 -77 -67.5t-99 -24.5q-46 0 -83 17.5t-60.5 48.5t-33 73.5t-0.5 93.5q8 50 31.5 92.5t57.5 73.5t76.5 48t88.5 17zM336 370q-66 0 -109 -41.5
t-54 -107.5q-5 -33 -0.5 -60.5t19 -48t38 -32t56.5 -11.5q30 0 57 11t49.5 31.5t37.5 48.5t21 61q5 33 -1 60.5t-21.5 47t-39 30.5t-53.5 11zM281 652q26 0 39 -15.5t9 -41.5q-4 -25 -22 -40.5t-44 -15.5t-39 15.5t-9 40.5q4 26 21.5 41.5t44.5 15.5zM479 652q26 0 39 -15.5
t9 -41.5q-4 -25 -22 -40.5t-44 -15.5t-39 15.5t-9 40.5q4 26 21.5 41.5t44.5 15.5z" />
    <glyph glyph-name="aring" unicode="&#xe5;" horiz-adv-x="555" 
d="M333 452q55 0 92.5 -23.5t54.5 -66.5l26 70q2 8 11 8h51q10 0 8 -10l-71 -420q-2 -10 -11 -10h-51q-8 0 -8 8l-3 72q-32 -43 -77 -67.5t-99 -24.5q-46 0 -83 17.5t-60.5 48.5t-33 73.5t-0.5 93.5q8 50 31.5 92.5t57.5 73.5t76.5 48t88.5 17zM336 370q-66 0 -109 -41.5
t-54 -107.5q-5 -33 -0.5 -60.5t19 -48t38 -32t56.5 -11.5q30 0 57 11t49.5 31.5t37.5 48.5t21 61q5 33 -1 60.5t-21.5 47t-39 30.5t-53.5 11zM395 744q54 0 82 -33.5t20 -84.5q-4 -24 -16.5 -45.5t-31.5 -37t-42.5 -24.5t-49.5 -9q-54 0 -82 33.5t-20 82.5q4 25 16 46.5
t31 37.5t42.5 25t50.5 9zM387 690q-32 0 -50.5 -17t-23.5 -47q-5 -29 7.5 -45.5t44.5 -16.5t50 16.5t23 45.5q5 30 -7.5 47t-43.5 17z" />
    <glyph glyph-name="ae" unicode="&#xe6;" horiz-adv-x="876" 
d="M877 223q-3 -17 -7.5 -25t-15.5 -8h-325q-5 -53 25.5 -86.5t86.5 -33.5q33 0 62.5 14.5t54.5 38.5q8 7 14 1l43 -42q7 -5 0 -13q-37 -36 -80 -58.5t-96 -22.5q-48 0 -87.5 22t-57.5 60l-14 -61q-4 -9 -11 -9h-48q-8 0 -8 9l5 61q-30 -39 -71 -60.5t-92 -21.5
q-46 0 -83 17.5t-60.5 48t-32.5 73t0 93.5q8 50 31 92.5t57 73.5t76 48.5t88 17.5q50 0 84 -20t51 -55l9 53q2 10 11 10h64q10 0 8 -10l-9 -55q32 39 75 58t94 19q46 0 80 -16.5t54.5 -46.5t27 -72.5t-2.5 -93.5zM795 261q5 47 -20 79t-86 32q-54 0 -94.5 -31t-53.5 -80h254
zM337 372q-68 0 -110 -41t-54 -111q-11 -70 17 -111t96 -41q29 0 56 11.5t49 32t37 48t21 60.5q5 33 -0.5 60.5t-20.5 48t-38.5 32t-52.5 11.5z" />
    <glyph glyph-name="ccedilla" unicode="&#xe7;" horiz-adv-x="484" 
d="M514 359q4 -6 -5 -12l-60 -35q-8 -5 -13 3q-15 27 -39.5 42t-62.5 15q-32 0 -59 -12t-48 -32t-34.5 -47.5t-19.5 -59.5q-5 -31 -0.5 -59t19 -49t38.5 -33t57 -12q35 0 62 16.5t49 42.5q8 8 15 3l51 -37q6 -4 1 -12q-40 -49 -88.5 -71t-108.5 -22q-49 0 -88 18t-64 49.5
t-35 75t-2 94.5q9 50 31 92t56 72t78 46.5t97 16.5q55 0 102 -23t71 -70zM280 15q12 0 8 -11l-18 -51q57 -4 82 -27t19 -61q-7 -42 -46 -63.5t-107 -21.5q-42 0 -79 8q-9 2 -5 11l13 44q3 11 13 8q18 -5 38.5 -7t38.5 -2q28 0 43.5 9t17.5 23q3 18 -17 26.5t-71 10.5
q-12 0 -8 11l31 85q2 8 10 8h37z" />
    <glyph glyph-name="egrave" unicode="&#xe8;" horiz-adv-x="522" 
d="M528 250q-4 -21 -7 -33.5t-6.5 -18.5t-7 -7.5t-7.5 -1.5h-330q-5 -55 26.5 -88t88.5 -33q38 0 70.5 15.5t58.5 41.5q8 7 15 0l38 -44q8 -6 -1 -13q-38 -35 -88.5 -57.5t-106.5 -22.5q-52 0 -92 17.5t-65 48.5t-34.5 73.5t-0.5 92.5q8 50 31.5 92.5t58.5 73.5t79.5 48.5
t95.5 17.5q47 0 84.5 -15t62.5 -41.5t35 -63.5t2 -82zM440 261q5 48 -23.5 79.5t-86.5 31.5q-54 0 -95 -30t-53 -81h258zM398 544q6 -14 -10 -14h-68q-4 0 -7 4l-69 111q-5 7 -2.5 11t11.5 4h84q4 0 7 -5z" />
    <glyph glyph-name="eacute" unicode="&#xe9;" horiz-adv-x="522" 
d="M528 250q-4 -21 -7 -33.5t-6.5 -18.5t-7 -7.5t-7.5 -1.5h-330q-5 -55 26.5 -88t88.5 -33q38 0 70.5 15.5t58.5 41.5q8 7 15 0l38 -44q8 -6 -1 -13q-38 -35 -88.5 -57.5t-106.5 -22.5q-52 0 -92 17.5t-65 48.5t-34.5 73.5t-0.5 92.5q8 50 31.5 92.5t58.5 73.5t79.5 48.5
t95.5 17.5q47 0 84.5 -15t62.5 -41.5t35 -63.5t2 -82zM440 261q5 48 -23.5 79.5t-86.5 31.5q-54 0 -95 -30t-53 -81h258zM414 655q3 5 10 5h82q20 0 5 -15l-106 -111q-4 -4 -9 -4h-68q-17 0 -5 14z" />
    <glyph glyph-name="ecircumflex" unicode="&#xea;" horiz-adv-x="522" 
d="M528 250q-4 -21 -7 -33.5t-6.5 -18.5t-7 -7.5t-7.5 -1.5h-330q-5 -55 26.5 -88t88.5 -33q38 0 70.5 15.5t58.5 41.5q8 7 15 0l38 -44q8 -6 -1 -13q-38 -35 -88.5 -57.5t-106.5 -22.5q-52 0 -92 17.5t-65 48.5t-34.5 73.5t-0.5 92.5q8 50 31.5 92.5t58.5 73.5t79.5 48.5
t95.5 17.5q47 0 84.5 -15t62.5 -41.5t35 -63.5t2 -82zM440 261q5 48 -23.5 79.5t-86.5 31.5q-54 0 -95 -30t-53 -81h258zM512 545q5 -6 3 -10.5t-9 -4.5h-69q-5 0 -8 4l-59 78l-72 -77q-3 -4 -5 -4.5t-4 -0.5h-73q-20 0 -5 15l116 111q3 4 8 4h72q4 0 7 -4z" />
    <glyph glyph-name="edieresis" unicode="&#xeb;" horiz-adv-x="522" 
d="M528 250q-4 -21 -7 -33.5t-6.5 -18.5t-7 -7.5t-7.5 -1.5h-330q-5 -55 26.5 -88t88.5 -33q38 0 70.5 15.5t58.5 41.5q8 7 15 0l38 -44q8 -6 -1 -13q-38 -35 -88.5 -57.5t-106.5 -22.5q-52 0 -92 17.5t-65 48.5t-34.5 73.5t-0.5 92.5q8 50 31.5 92.5t58.5 73.5t79.5 48.5
t95.5 17.5q47 0 84.5 -15t62.5 -41.5t35 -63.5t2 -82zM440 261q5 48 -23.5 79.5t-86.5 31.5q-54 0 -95 -30t-53 -81h258zM279 652q26 0 39 -15.5t9 -41.5q-4 -25 -22 -40.5t-44 -15.5t-39 15.5t-9 40.5q4 26 21.5 41.5t44.5 15.5zM477 652q26 0 39 -15.5t9 -41.5
q-4 -25 -22 -40.5t-44 -15.5t-39 15.5t-9 40.5q4 26 21.5 41.5t44.5 15.5z" />
    <glyph glyph-name="igrave" unicode="&#xec;" horiz-adv-x="195" 
d="M208 440q10 0 8 -10l-70 -420q-2 -10 -11 -10h-74q-10 0 -8 10l71 420q2 10 11 10h73zM227 544q6 -14 -10 -14h-68q-4 0 -7 4l-69 111q-5 7 -2.5 11t11.5 4h84q4 0 7 -5z" />
    <glyph glyph-name="iacute" unicode="&#xed;" horiz-adv-x="195" 
d="M208 440q10 0 8 -10l-70 -420q-2 -10 -11 -10h-74q-10 0 -8 10l71 420q2 10 11 10h73zM243 655q3 5 10 5h82q20 0 5 -15l-106 -111q-4 -4 -9 -4h-68q-17 0 -5 14z" />
    <glyph glyph-name="icircumflex" unicode="&#xee;" horiz-adv-x="195" 
d="M208 440q10 0 8 -10l-70 -420q-2 -10 -11 -10h-74q-10 0 -8 10l71 420q2 10 11 10h73zM341 545q5 -6 3 -10.5t-9 -4.5h-69q-5 0 -8 4l-59 78l-72 -77q-3 -4 -5 -4.5t-4 -0.5h-73q-20 0 -5 15l116 111q3 4 8 4h72q4 0 7 -4z" />
    <glyph glyph-name="idieresis" unicode="&#xef;" horiz-adv-x="195" 
d="M208 440q10 0 8 -10l-70 -420q-2 -10 -11 -10h-74q-10 0 -8 10l71 420q2 10 11 10h73zM108 652q26 0 39 -15.5t9 -41.5q-4 -25 -22 -40.5t-44 -15.5t-39 15.5t-9 40.5q4 26 21.5 41.5t44.5 15.5zM306 652q26 0 39 -15.5t9 -41.5q-4 -25 -22 -40.5t-44 -15.5t-39 15.5
t-9 40.5q4 26 21.5 41.5t44.5 15.5z" />
    <glyph glyph-name="eth" unicode="&#xf0;" horiz-adv-x="561" 
d="M252 541q-9 -5 -12 4l-18 43q-3 8 7 13l83 41l-41 84q-9 14 10 14h86q6 0 8 -5l24 -50l76 38q10 3 13 -4l16 -43q3 -8 -5 -14l-75 -37l107 -244q18 -40 24.5 -84t-1.5 -92q-8 -49 -31 -89.5t-57.5 -68.5t-79 -43.5t-97.5 -15.5q-55 0 -98.5 17t-71 47.5t-38.5 74t-2 96.5
q9 51 32 91t56.5 67.5t75.5 42.5t88 15q26 0 49.5 -5t40.5 -16l-81 166zM344 354q-73 0 -115.5 -34t-55.5 -110q-11 -65 22 -101t102 -36q67 0 108.5 34.5t52.5 98.5q11 66 -19 107t-95 41z" />
    <glyph glyph-name="ntilde" unicode="&#xf1;" horiz-adv-x="516" 
d="M186 440q8 0 8 -8l1 -72q32 43 75.5 67.5t95.5 24.5q87 0 124.5 -53t20.5 -151l-40 -238q-2 -10 -11 -10h-73q-10 0 -8 10l39 235q10 60 -10.5 91.5t-76.5 31.5q-27 0 -51.5 -10.5t-44.5 -29.5t-34 -46t-19 -59l-36 -213q-2 -10 -11 -10h-74q-10 0 -8 10l71 420
q2 10 11 10h51zM524 660q10 0 8 -9q-7 -42 -19 -70t-27.5 -44.5t-33.5 -23t-37 -6.5q-23 0 -39.5 13t-29.5 28.5t-25.5 28.5t-27.5 13q-14 0 -26.5 -16t-17.5 -53q-2 -9 -11 -9h-56q-9 0 -7 9q5 39 17 66.5t28.5 45t35.5 25t38 7.5q24 0 39.5 -13t28.5 -28t25 -28t28 -13
q15 0 26.5 14t16.5 54q2 9 11 9h55z" />
    <glyph glyph-name="ograve" unicode="&#xf2;" horiz-adv-x="545" 
d="M348 452q50 0 89.5 -17.5t65.5 -48.5t36 -73.5t2 -92.5t-32.5 -92.5t-60.5 -73.5t-81 -48.5t-96 -17.5q-50 0 -89.5 17.5t-65 48.5t-35.5 73.5t-2 92.5t32 92.5t60 73.5t81 48.5t96 17.5zM335 372q-60 0 -105 -40.5t-57 -110.5q-11 -70 20 -111.5t91 -41.5q30 0 57 11
t48.5 31t36 48t20.5 63q12 70 -19 110.5t-92 40.5zM402 544q6 -14 -10 -14h-68q-4 0 -7 4l-69 111q-5 7 -2.5 11t11.5 4h84q4 0 7 -5z" />
    <glyph glyph-name="oacute" unicode="&#xf3;" horiz-adv-x="545" 
d="M348 452q50 0 89.5 -17.5t65.5 -48.5t36 -73.5t2 -92.5t-32.5 -92.5t-60.5 -73.5t-81 -48.5t-96 -17.5q-50 0 -89.5 17.5t-65 48.5t-35.5 73.5t-2 92.5t32 92.5t60 73.5t81 48.5t96 17.5zM335 372q-60 0 -105 -40.5t-57 -110.5q-11 -70 20 -111.5t91 -41.5q30 0 57 11
t48.5 31t36 48t20.5 63q12 70 -19 110.5t-92 40.5zM418 655q3 5 10 5h82q20 0 5 -15l-106 -111q-4 -4 -9 -4h-68q-17 0 -5 14z" />
    <glyph glyph-name="ocircumflex" unicode="&#xf4;" horiz-adv-x="545" 
d="M348 452q50 0 89.5 -17.5t65.5 -48.5t36 -73.5t2 -92.5t-32.5 -92.5t-60.5 -73.5t-81 -48.5t-96 -17.5q-50 0 -89.5 17.5t-65 48.5t-35.5 73.5t-2 92.5t32 92.5t60 73.5t81 48.5t96 17.5zM335 372q-60 0 -105 -40.5t-57 -110.5q-11 -70 20 -111.5t91 -41.5q30 0 57 11
t48.5 31t36 48t20.5 63q12 70 -19 110.5t-92 40.5zM515 545q5 -6 3 -10.5t-9 -4.5h-69q-5 0 -8 4l-59 78l-72 -77q-3 -4 -5 -4.5t-4 -0.5h-73q-20 0 -5 15l116 111q3 4 8 4h72q4 0 7 -4z" />
    <glyph glyph-name="otilde" unicode="&#xf5;" horiz-adv-x="545" 
d="M348 452q50 0 89.5 -17.5t65.5 -48.5t36 -73.5t2 -92.5t-32.5 -92.5t-60.5 -73.5t-81 -48.5t-96 -17.5q-50 0 -89.5 17.5t-65 48.5t-35.5 73.5t-2 92.5t32 92.5t60 73.5t81 48.5t96 17.5zM335 372q-60 0 -105 -40.5t-57 -110.5q-11 -70 20 -111.5t91 -41.5q30 0 57 11
t48.5 31t36 48t20.5 63q12 70 -19 110.5t-92 40.5zM541 660q10 0 8 -9q-7 -42 -19 -70t-27.5 -44.5t-33.5 -23t-37 -6.5q-23 0 -39.5 13t-29.5 28.5t-25.5 28.5t-27.5 13q-14 0 -26.5 -16t-17.5 -53q-2 -9 -11 -9h-56q-9 0 -7 9q5 39 17 66.5t28.5 45t35.5 25t38 7.5
q24 0 39.5 -13t28.5 -28t25 -28t28 -13q15 0 26.5 14t16.5 54q2 9 11 9h55z" />
    <glyph glyph-name="odieresis" unicode="&#xf6;" horiz-adv-x="545" 
d="M348 452q50 0 89.5 -17.5t65.5 -48.5t36 -73.5t2 -92.5t-32.5 -92.5t-60.5 -73.5t-81 -48.5t-96 -17.5q-50 0 -89.5 17.5t-65 48.5t-35.5 73.5t-2 92.5t32 92.5t60 73.5t81 48.5t96 17.5zM335 372q-60 0 -105 -40.5t-57 -110.5q-11 -70 20 -111.5t91 -41.5q30 0 57 11
t48.5 31t36 48t20.5 63q12 70 -19 110.5t-92 40.5zM282 652q26 0 39 -15.5t9 -41.5q-4 -25 -22 -40.5t-44 -15.5t-39 15.5t-9 40.5q4 26 21.5 41.5t44.5 15.5zM480 652q26 0 39 -15.5t9 -41.5q-4 -25 -22 -40.5t-44 -15.5t-39 15.5t-9 40.5q4 26 21.5 41.5t44.5 15.5z" />
    <glyph glyph-name="divide" unicode="&#xf7;" horiz-adv-x="602" 
d="M390 532q29 0 46.5 -19.5t11.5 -51.5q-5 -32 -29 -51t-53 -19q-28 0 -46 19t-13 51q6 32 30 51.5t53 19.5zM592 312q11 0 9 -9l-10 -61q-1 -9 -12 -9h-479q-9 0 -8 9l10 61q2 9 11 9h479zM327 154q28 0 45.5 -19t12.5 -51t-29 -51.5t-53 -19.5t-46.5 19.5t-12.5 51.5
q6 32 30 51t53 19z" />
    <glyph glyph-name="oslash" unicode="&#xf8;" horiz-adv-x="545" 
d="M526 509q7 7 13 1l38 -29q7 -7 -1 -13l-73 -82q26 -31 36 -73t2 -93q-8 -50 -32.5 -92.5t-60.5 -73t-81 -48t-96 -17.5q-29 0 -55.5 6.5t-48.5 17.5l-75 -83q-6 -7 -14 -2l-35 32q-6 6 1 14l73 80q-26 32 -36 74t-2 92t32.5 92.5t60 73.5t81 48t95.5 17q61 0 104 -24z
M335 371q-60 0 -105 -40t-57 -110q-9 -56 10 -93l208 231q-12 5 -25.5 8.5t-30.5 3.5zM229 82q24 -13 56 -13q30 0 57 10.5t48 30.5t35.5 48t20.5 63q5 27 2 50t-11 41z" />
    <glyph glyph-name="ugrave" unicode="&#xf9;" horiz-adv-x="515" 
d="M528 440q10 0 8 -10l-70 -420q-2 -10 -11 -10h-51q-8 0 -8 8l-1 73q-32 -43 -75.5 -68t-95.5 -25q-86 0 -123.5 53t-20.5 151l40 238q2 10 11 10h73q10 0 8 -10l-39 -234q-10 -61 11 -91t77 -30q26 0 50.5 10.5t44 29t33.5 45t19 58.5l36 212q2 10 11 10h73zM383 544
q6 -14 -10 -14h-68q-4 0 -7 4l-69 111q-5 7 -2.5 11t11.5 4h84q4 0 7 -5z" />
    <glyph glyph-name="uacute" unicode="&#xfa;" horiz-adv-x="515" 
d="M528 440q10 0 8 -10l-70 -420q-2 -10 -11 -10h-51q-8 0 -8 8l-1 73q-32 -43 -75.5 -68t-95.5 -25q-86 0 -123.5 53t-20.5 151l40 238q2 10 11 10h73q10 0 8 -10l-39 -234q-10 -61 11 -91t77 -30q26 0 50.5 10.5t44 29t33.5 45t19 58.5l36 212q2 10 11 10h73zM399 655
q3 5 10 5h82q20 0 5 -15l-106 -111q-4 -4 -9 -4h-68q-17 0 -5 14z" />
    <glyph glyph-name="ucircumflex" unicode="&#xfb;" horiz-adv-x="515" 
d="M528 440q10 0 8 -10l-70 -420q-2 -10 -11 -10h-51q-8 0 -8 8l-1 73q-32 -43 -75.5 -68t-95.5 -25q-86 0 -123.5 53t-20.5 151l40 238q2 10 11 10h73q10 0 8 -10l-39 -234q-10 -61 11 -91t77 -30q26 0 50.5 10.5t44 29t33.5 45t19 58.5l36 212q2 10 11 10h73zM497 545
q5 -6 3 -10.5t-9 -4.5h-69q-5 0 -8 4l-59 78l-72 -77q-3 -4 -5 -4.5t-4 -0.5h-73q-20 0 -5 15l116 111q3 4 8 4h72q4 0 7 -4z" />
    <glyph glyph-name="udieresis" unicode="&#xfc;" horiz-adv-x="515" 
d="M528 440q10 0 8 -10l-70 -420q-2 -10 -11 -10h-51q-8 0 -8 8l-1 73q-32 -43 -75.5 -68t-95.5 -25q-86 0 -123.5 53t-20.5 151l40 238q2 10 11 10h73q10 0 8 -10l-39 -234q-10 -61 11 -91t77 -30q26 0 50.5 10.5t44 29t33.5 45t19 58.5l36 212q2 10 11 10h73zM264 652
q26 0 39 -15.5t9 -41.5q-4 -25 -22 -40.5t-44 -15.5t-39 15.5t-9 40.5q4 26 21.5 41.5t44.5 15.5zM462 652q26 0 39 -15.5t9 -41.5q-4 -25 -22 -40.5t-44 -15.5t-39 15.5t-9 40.5q4 26 21.5 41.5t44.5 15.5z" />
    <glyph glyph-name="yacute" unicode="&#xfd;" horiz-adv-x="499" 
d="M91 427q-2 5 1 9t10 4h74q6 0 9 -6l84 -323l178 323q4 6 10 6h86q7 0 9 -4t-2 -9l-353 -611q-3 -6 -10 -6h-83q-6 0 -8 4t2 9l111 185zM394 655q3 5 10 5h82q20 0 5 -15l-106 -111q-4 -4 -9 -4h-68q-17 0 -5 14z" />
    <glyph glyph-name="thorn" unicode="&#xfe;" horiz-adv-x="558" 
d="M376 452q47 0 83.5 -17.5t60 -48t32.5 -73t1 -93.5q-9 -50 -32 -92.5t-56.5 -73.5t-76 -48.5t-89.5 -17.5q-50 0 -85.5 21t-53.5 58l-41 -247q-2 -10 -12 -10h-73q-10 0 -8 10l152 910q2 10 11 10h73q11 0 9 -10l-60 -358q32 38 73.5 59t91.5 21zM344 363
q-29 0 -55.5 -10t-48 -28.5t-36.5 -45t-21 -59.5q-5 -33 1 -59t21.5 -45t39 -29t52.5 -10q30 0 57 10.5t48.5 29.5t36 45.5t20.5 57.5q5 32 -1 58t-21 45t-38.5 29.5t-54.5 10.5z" />
    <glyph glyph-name="ydieresis" unicode="&#xff;" horiz-adv-x="499" 
d="M91 427q-2 5 1 9t10 4h74q6 0 9 -6l84 -323l178 323q4 6 10 6h86q7 0 9 -4t-2 -9l-353 -611q-3 -6 -10 -6h-83q-6 0 -8 4t2 9l111 185zM259 652q26 0 39 -15.5t9 -41.5q-4 -25 -22 -40.5t-44 -15.5t-39 15.5t-9 40.5q4 26 21.5 41.5t44.5 15.5zM457 652q26 0 39 -15.5
t9 -41.5q-4 -25 -22 -40.5t-44 -15.5t-39 15.5t-9 40.5q4 26 21.5 41.5t44.5 15.5z" />
    <glyph glyph-name="Amacron" unicode="&#x100;" horiz-adv-x="745" 
d="M503 705q5 0 8 -6l196 -686q4 -13 -12 -13h-83q-7 0 -9 6l-44 165h-305l-97 -165q-3 -6 -10 -6h-97q-14 0 -7 13l425 686q3 6 10 6h25zM537 264l-71 270l-157 -270h228zM660 788q-1 -9 -10 -9h-297q-9 0 -8 9l8 55q2 9 11 9h297q10 0 8 -9z" />
    <glyph glyph-name="amacron" unicode="&#x101;" horiz-adv-x="555" 
d="M333 452q55 0 92.5 -23.5t54.5 -66.5l26 70q2 8 11 8h51q10 0 8 -10l-71 -420q-2 -10 -11 -10h-51q-8 0 -8 8l-3 72q-32 -43 -77 -67.5t-99 -24.5q-46 0 -83 17.5t-60.5 48.5t-33 73.5t-0.5 93.5q8 50 31.5 92.5t57.5 73.5t76.5 48t88.5 17zM336 370q-66 0 -109 -41.5
t-54 -107.5q-5 -33 -0.5 -60.5t19 -48t38 -32t56.5 -11.5q30 0 57 11t49.5 31.5t37.5 48.5t21 61q5 33 -1 60.5t-21.5 47t-39 30.5t-53.5 11zM524 568q-1 -9 -10 -9h-297q-9 0 -8 9l8 55q2 9 11 9h297q10 0 8 -9z" />
    <glyph glyph-name="Abreve" unicode="&#x102;" horiz-adv-x="745" 
d="M503 705q5 0 8 -6l196 -686q4 -13 -12 -13h-83q-7 0 -9 6l-44 165h-305l-97 -165q-3 -6 -10 -6h-97q-14 0 -7 13l425 686q3 6 10 6h25zM537 264l-71 270l-157 -270h228zM366 871q2 9 11 9h55q10 0 8 -9q-4 -32 8 -53t55 -21q44 0 63 21t26 53q2 9 11 9h55q10 0 8 -9
q-10 -69 -53.5 -104t-112.5 -35q-73 0 -107.5 36t-26.5 103z" />
    <glyph glyph-name="abreve" unicode="&#x103;" horiz-adv-x="555" 
d="M333 452q55 0 92.5 -23.5t54.5 -66.5l26 70q2 8 11 8h51q10 0 8 -10l-71 -420q-2 -10 -11 -10h-51q-8 0 -8 8l-3 72q-32 -43 -77 -67.5t-99 -24.5q-46 0 -83 17.5t-60.5 48.5t-33 73.5t-0.5 93.5q8 50 31.5 92.5t57.5 73.5t76.5 48t88.5 17zM336 370q-66 0 -109 -41.5
t-54 -107.5q-5 -33 -0.5 -60.5t19 -48t38 -32t56.5 -11.5q30 0 57 11t49.5 31.5t37.5 48.5t21 61q5 33 -1 60.5t-21.5 47t-39 30.5t-53.5 11zM230 651q2 9 11 9h55q10 0 8 -9q-4 -32 8 -53t55 -21q44 0 63 21t26 53q2 9 11 9h55q10 0 8 -9q-10 -69 -53.5 -104t-112.5 -35
q-73 0 -107.5 36t-26.5 103z" />
    <glyph glyph-name="Aogonek" unicode="&#x104;" horiz-adv-x="732" 
d="M499 705q7 0 8 -6l191 -680q2 -8 -0.5 -16t-15.5 -17q-38 -27 -53.5 -49t-19.5 -45q-6 -42 40 -42q18 0 30 3q10 3 12 -7l3 -46q0 -7 -9 -11t-20.5 -6t-22.5 -2.5t-16 -0.5q-56 0 -80.5 24.5t-17.5 67.5q5 35 29.5 68.5t66.5 59.5h-19q-7 0 -9 6l-43 167h-299l-97 -167
q-4 -6 -11 -6h-96q-15 0 -8 13l422 686q5 6 10 6h25zM530 265l-67 269l-155 -269h222z" />
    <glyph glyph-name="aogonek" unicode="&#x105;" horiz-adv-x="477" 
d="M327 452q55 0 94.5 -23.5t56.5 -66.5l27 70q3 8 10 8h51q11 0 9 -10l-70 -421q-1 -5 -6.5 -9.5t-14.5 -10.5q-39 -24 -55.5 -48.5t-21.5 -48.5q-7 -42 40 -42q17 0 30 3q11 4 11 -7l4 -46q0 -7 -9 -11q-14 -5 -29.5 -7t-30.5 -2q-56 0 -80.5 24.5t-16.5 67.5
q6 36 33 72.5t75 63.5l-3 72q-31 -43 -76.5 -67.5t-99.5 -24.5q-46 0 -83 18t-60.5 50t-33 75t-0.5 94q8 51 30.5 92.5t55.5 71.5t75 46.5t88 16.5zM336 370q-66 0 -109 -42t-54 -107q-6 -33 -1.5 -60.5t19 -48t38 -32t56.5 -11.5q30 0 57 11t49 31.5t37.5 48.5t21.5 61
q5 33 -1 60.5t-21 47t-38.5 30.5t-53.5 11z" />
    <glyph glyph-name="Cacute" unicode="&#x106;" horiz-adv-x="723" 
d="M773 583q5 -9 -4 -14l-68 -38q-9 -5 -13 2q-28 46 -70.5 66.5t-108.5 20.5q-58 0 -107.5 -19t-87.5 -54.5t-64 -85t-36 -110.5q-10 -62 -1.5 -112t35 -85t69.5 -54t100 -19q65 0 115.5 23.5t99.5 74.5q8 8 14 2l57 -48q6 -6 0 -14q-60 -62 -133.5 -96.5t-166.5 -34.5
q-79 0 -139.5 27.5t-98.5 76.5t-52 116t-1 146q13 78 47.5 144t87 113.5t121 74t148.5 26.5q93 0 156 -34t101 -95zM586 885q3 5 10 5h82q20 0 5 -15l-106 -111q-4 -4 -9 -4h-68q-17 0 -5 14z" />
    <glyph glyph-name="cacute" unicode="&#x107;" horiz-adv-x="484" 
d="M514 359q4 -6 -5 -12l-60 -35q-8 -5 -13 3q-15 27 -39.5 42t-62.5 15q-32 0 -59 -12t-48 -32t-34.5 -47.5t-19.5 -59.5q-5 -31 -0.5 -59t19 -49t38.5 -33t57 -12q35 0 62 16.5t49 42.5q8 8 15 3l51 -37q6 -4 1 -12q-40 -49 -88.5 -71t-108.5 -22q-49 0 -88 18t-64 49.5
t-35 75t-2 94.5q9 50 31 92t56 72t78 46.5t97 16.5q55 0 102 -23t71 -70zM413 655q3 5 10 5h82q20 0 5 -15l-106 -111q-4 -4 -9 -4h-68q-17 0 -5 14z" />
    <glyph glyph-name="Ccircumflex" unicode="&#x108;" horiz-adv-x="723" 
d="M773 583q5 -9 -4 -14l-68 -38q-9 -5 -13 2q-28 46 -70.5 66.5t-108.5 20.5q-58 0 -107.5 -19t-87.5 -54.5t-64 -85t-36 -110.5q-10 -62 -1.5 -112t35 -85t69.5 -54t100 -19q65 0 115.5 23.5t99.5 74.5q8 8 14 2l57 -48q6 -6 0 -14q-60 -62 -133.5 -96.5t-166.5 -34.5
q-79 0 -139.5 27.5t-98.5 76.5t-52 116t-1 146q13 78 47.5 144t87 113.5t121 74t148.5 26.5q93 0 156 -34t101 -95zM684 775q5 -6 3 -10.5t-9 -4.5h-69q-5 0 -8 4l-59 78l-72 -77q-3 -4 -5 -4.5t-4 -0.5h-73q-20 0 -5 15l116 111q3 4 8 4h72q4 0 7 -4z" />
    <glyph glyph-name="ccircumflex" unicode="&#x109;" horiz-adv-x="484" 
d="M514 359q4 -6 -5 -12l-60 -35q-8 -5 -13 3q-15 27 -39.5 42t-62.5 15q-32 0 -59 -12t-48 -32t-34.5 -47.5t-19.5 -59.5q-5 -31 -0.5 -59t19 -49t38.5 -33t57 -12q35 0 62 16.5t49 42.5q8 8 15 3l51 -37q6 -4 1 -12q-40 -49 -88.5 -71t-108.5 -22q-49 0 -88 18t-64 49.5
t-35 75t-2 94.5q9 50 31 92t56 72t78 46.5t97 16.5q55 0 102 -23t71 -70zM510 545q5 -6 3 -10.5t-9 -4.5h-69q-5 0 -8 4l-59 78l-72 -77q-3 -4 -5 -4.5t-4 -0.5h-73q-20 0 -5 15l116 111q3 4 8 4h72q4 0 7 -4z" />
    <glyph glyph-name="Cdotaccent" unicode="&#x10a;" horiz-adv-x="723" 
d="M773 583q5 -9 -4 -14l-68 -38q-9 -5 -13 2q-28 46 -70.5 66.5t-108.5 20.5q-58 0 -107.5 -19t-87.5 -54.5t-64 -85t-36 -110.5q-10 -62 -1.5 -112t35 -85t69.5 -54t100 -19q65 0 115.5 23.5t99.5 74.5q8 8 14 2l57 -48q6 -6 0 -14q-60 -62 -133.5 -96.5t-166.5 -34.5
q-79 0 -139.5 27.5t-98.5 76.5t-52 116t-1 146q13 78 47.5 144t87 113.5t121 74t148.5 26.5q93 0 156 -34t101 -95zM547 884q25 0 39.5 -15t11.5 -40q-4 -26 -20 -40.5t-41 -14.5q-26 0 -40.5 14.5t-10.5 40.5t19.5 40.5t41.5 14.5z" />
    <glyph glyph-name="cdotaccent" unicode="&#x10b;" horiz-adv-x="484" 
d="M514 359q4 -6 -5 -12l-60 -35q-8 -5 -13 3q-15 27 -39.5 42t-62.5 15q-32 0 -59 -12t-48 -32t-34.5 -47.5t-19.5 -59.5q-5 -31 -0.5 -59t19 -49t38.5 -33t57 -12q35 0 62 16.5t49 42.5q8 8 15 3l51 -37q6 -4 1 -12q-40 -49 -88.5 -71t-108.5 -22q-49 0 -88 18t-64 49.5
t-35 75t-2 94.5q9 50 31 92t56 72t78 46.5t97 16.5q55 0 102 -23t71 -70zM373 654q25 0 39.5 -15t11.5 -40q-4 -26 -20 -40.5t-41 -14.5q-26 0 -40.5 14.5t-10.5 40.5t19.5 40.5t41.5 14.5z" />
    <glyph glyph-name="Ccaron" unicode="&#x10c;" horiz-adv-x="723" 
d="M773 583q5 -9 -4 -14l-68 -38q-9 -5 -13 2q-28 46 -70.5 66.5t-108.5 20.5q-58 0 -107.5 -19t-87.5 -54.5t-64 -85t-36 -110.5q-10 -62 -1.5 -112t35 -85t69.5 -54t100 -19q65 0 115.5 23.5t99.5 74.5q8 8 14 2l57 -48q6 -6 0 -14q-60 -62 -133.5 -96.5t-166.5 -34.5
q-79 0 -139.5 27.5t-98.5 76.5t-52 116t-1 146q13 78 47.5 144t87 113.5t121 74t148.5 26.5q93 0 156 -34t101 -95zM393 875q-6 6 -4 10.5t10 4.5h69q2 0 3.5 -0.5t4.5 -3.5l62 -75l69 74q3 4 5 4.5t4 0.5h73q20 0 5 -15l-116 -111q-3 -4 -8 -4h-72q-4 0 -7 4z" />
    <glyph glyph-name="ccaron" unicode="&#x10d;" horiz-adv-x="484" 
d="M514 359q4 -6 -5 -12l-60 -35q-8 -5 -13 3q-15 27 -39.5 42t-62.5 15q-32 0 -59 -12t-48 -32t-34.5 -47.5t-19.5 -59.5q-5 -31 -0.5 -59t19 -49t38.5 -33t57 -12q35 0 62 16.5t49 42.5q8 8 15 3l51 -37q6 -4 1 -12q-40 -49 -88.5 -71t-108.5 -22q-49 0 -88 18t-64 49.5
t-35 75t-2 94.5q9 50 31 92t56 72t78 46.5t97 16.5q55 0 102 -23t71 -70zM220 645q-6 6 -4 10.5t10 4.5h69q2 0 3.5 -0.5t4.5 -3.5l62 -75l69 74q3 4 5 4.5t4 0.5h73q20 0 5 -15l-116 -111q-3 -4 -8 -4h-72q-4 0 -7 4z" />
    <glyph glyph-name="Dcaron" unicode="&#x10e;" horiz-adv-x="748" 
d="M194 690q2 10 11 10h234q87 0 151.5 -24.5t105 -69.5t55.5 -108.5t3 -141.5q-12 -79 -48 -144.5t-92 -112.5t-130 -73t-161 -26h-234q-10 0 -8 10zM192 92h146q63 0 117 18.5t95 53.5t67.5 84.5t35.5 111.5q19 122 -39 185t-190 63h-146zM290 865q-6 6 -4 10.5t10 4.5h69
q2 0 3.5 -0.5t4.5 -3.5l62 -75l69 74q3 4 5 4.5t4 0.5h73q20 0 5 -15l-116 -111q-3 -4 -8 -4h-72q-4 0 -7 4z" />
    <glyph glyph-name="dcaron" unicode="&#x10f;" horiz-adv-x="561" 
d="M333 452q51 0 87.5 -21.5t55.5 -59.5l60 359q2 10 11 10h71q10 0 8 -10l-121 -720q-2 -10 -11 -10h-51q-8 0 -8 8l-3 72q-32 -43 -77 -67.5t-99 -24.5q-46 0 -83 17.5t-60.5 48.5t-33 73.5t-0.5 93.5q8 50 31.5 92.5t57.5 73.5t76.5 48t88.5 17zM336 370
q-66 0 -109 -41.5t-54 -107.5q-5 -33 -0.5 -60.5t19 -48t38 -32t56.5 -11.5q30 0 57 11t49.5 31.5t37.5 48.5t21 61q5 33 -1 60.5t-21.5 47t-39 30.5t-53.5 11zM754 752q30 0 50 -20.5t14 -59.5q-8 -52 -32.5 -92t-62.5 -73q-6 -6 -12 -1l-23 26q-8 6 1 15q21 20 32.5 37.5
t15.5 38.5q-30 0 -45.5 18.5t-11.5 44.5q5 32 25.5 49t48.5 17z" />
    <glyph glyph-name="Dcroat" unicode="&#x110;" horiz-adv-x="804" 
d="M250 690q2 10 11 10h234q87 0 152 -24t106 -68.5t56 -107t2 -140.5q-13 -80 -50.5 -146t-94 -113.5t-130 -74t-157.5 -26.5h-234q-10 0 -8 10l50 301h-77q-10 0 -8 9l10 55q2 10 11 10h76zM458 385q10 0 8 -10l-9 -55q-2 -9 -11 -9h-161l-37 -219h146q63 0 116.5 18.5
t94 53t67.5 84t37 112.5q20 122 -38.5 185t-190.5 63h-146l-37 -223h161z" />
    <glyph glyph-name="dcroat" unicode="&#x111;" horiz-adv-x="568" 
d="M376 639q2 10 11 10h131l14 81q2 10 11 10h73q11 0 9 -10l-14 -81h55q10 0 8 -10l-9 -55q-2 -9 -11 -9h-56l-93 -565q-2 -10 -12 -10h-51q-8 0 -8 8l-3 72q-31 -43 -76.5 -67.5t-99.5 -24.5q-46 0 -83 17.5t-60.5 48.5t-33 73.5t-0.5 93.5q8 50 31.5 92.5t57.5 73.5
t76.5 48t88.5 17q51 0 87 -20.5t54 -58.5l34 202h-132q-10 0 -8 9zM336 370q-66 0 -109 -42t-54 -107q-6 -33 -1.5 -60.5t19 -48t38 -32t56.5 -11.5q30 0 57 11t49 31.5t37.5 48.5t21.5 61q5 33 -1 60.5t-21 47t-38.5 30.5t-53.5 11z" />
    <glyph glyph-name="Emacron" unicode="&#x112;" horiz-adv-x="573" 
d="M194 690q2 10 11 10h413q10 0 8 -10l-12 -73q-1 -9 -11 -9h-325l-34 -207h289q10 0 8 -10l-11 -68q-1 -9 -11 -9h-290l-37 -222h329q10 0 8 -9l-12 -73q-2 -10 -11 -10h-417q-10 0 -8 10zM589 788q-1 -9 -10 -9h-297q-9 0 -8 9l8 55q2 9 11 9h297q10 0 8 -9z" />
    <glyph glyph-name="emacron" unicode="&#x113;" horiz-adv-x="522" 
d="M528 250q-4 -21 -7 -33.5t-6.5 -18.5t-7 -7.5t-7.5 -1.5h-330q-5 -55 26.5 -88t88.5 -33q38 0 70.5 15.5t58.5 41.5q8 7 15 0l38 -44q8 -6 -1 -13q-38 -35 -88.5 -57.5t-106.5 -22.5q-52 0 -92 17.5t-65 48.5t-34.5 73.5t-0.5 92.5q8 50 31.5 92.5t58.5 73.5t79.5 48.5
t95.5 17.5q47 0 84.5 -15t62.5 -41.5t35 -63.5t2 -82zM440 261q5 48 -23.5 79.5t-86.5 31.5q-54 0 -95 -30t-53 -81h258zM522 568q-1 -9 -10 -9h-297q-9 0 -8 9l8 55q2 9 11 9h297q10 0 8 -9z" />
    <glyph glyph-name="Ebreve" unicode="&#x114;" horiz-adv-x="573" 
d="M194 690q2 10 11 10h413q10 0 8 -10l-12 -73q-1 -9 -11 -9h-325l-34 -207h289q10 0 8 -10l-11 -68q-1 -9 -11 -9h-290l-37 -222h329q10 0 8 -9l-12 -73q-2 -10 -11 -10h-417q-10 0 -8 10zM296 871q2 9 11 9h55q10 0 8 -9q-4 -32 8 -53t55 -21q44 0 63 21t26 53q2 9 11 9
h55q10 0 8 -9q-10 -69 -53.5 -104t-112.5 -35q-73 0 -107.5 36t-26.5 103z" />
    <glyph glyph-name="ebreve" unicode="&#x115;" horiz-adv-x="522" 
d="M528 250q-4 -21 -7 -33.5t-6.5 -18.5t-7 -7.5t-7.5 -1.5h-330q-5 -55 26.5 -88t88.5 -33q38 0 70.5 15.5t58.5 41.5q8 7 15 0l38 -44q8 -6 -1 -13q-38 -35 -88.5 -57.5t-106.5 -22.5q-52 0 -92 17.5t-65 48.5t-34.5 73.5t-0.5 92.5q8 50 31.5 92.5t58.5 73.5t79.5 48.5
t95.5 17.5q47 0 84.5 -15t62.5 -41.5t35 -63.5t2 -82zM440 261q5 48 -23.5 79.5t-86.5 31.5q-54 0 -95 -30t-53 -81h258zM228 651q2 9 11 9h55q10 0 8 -9q-4 -32 8 -53t55 -21q44 0 63 21t26 53q2 9 11 9h55q10 0 8 -9q-10 -69 -53.5 -104t-112.5 -35q-73 0 -107.5 36
t-26.5 103z" />
    <glyph glyph-name="Edotaccent" unicode="&#x116;" horiz-adv-x="573" 
d="M194 690q2 10 11 10h413q10 0 8 -10l-12 -73q-1 -9 -11 -9h-325l-34 -207h289q10 0 8 -10l-11 -68q-1 -9 -11 -9h-290l-37 -222h329q10 0 8 -9l-12 -73q-2 -10 -11 -10h-417q-10 0 -8 10zM442 874q25 0 39.5 -15t11.5 -40q-4 -26 -20 -40.5t-41 -14.5q-26 0 -40.5 14.5
t-10.5 40.5t19.5 40.5t41.5 14.5z" />
    <glyph glyph-name="edotaccent" unicode="&#x117;" horiz-adv-x="522" 
d="M528 250q-4 -21 -7 -33.5t-6.5 -18.5t-7 -7.5t-7.5 -1.5h-330q-5 -55 26.5 -88t88.5 -33q38 0 70.5 15.5t58.5 41.5q8 7 15 0l38 -44q8 -6 -1 -13q-38 -35 -88.5 -57.5t-106.5 -22.5q-52 0 -92 17.5t-65 48.5t-34.5 73.5t-0.5 92.5q8 50 31.5 92.5t58.5 73.5t79.5 48.5
t95.5 17.5q47 0 84.5 -15t62.5 -41.5t35 -63.5t2 -82zM440 261q5 48 -23.5 79.5t-86.5 31.5q-54 0 -95 -30t-53 -81h258zM375 654q25 0 39.5 -15t11.5 -40q-4 -26 -20 -40.5t-41 -14.5q-26 0 -40.5 14.5t-10.5 40.5t19.5 40.5t41.5 14.5z" />
    <glyph glyph-name="Eogonek" unicode="&#x118;" horiz-adv-x="575" 
d="M194 690q2 10 12 10h413q9 0 7 -10l-12 -73q-1 -9 -11 -9h-325l-34 -207h289q10 0 8 -10l-11 -68q-1 -9 -11 -9h-289l-37 -222h328q10 0 8 -9l-12 -74q-2 -6 -5.5 -9.5t-14.5 -9.5q-40 -25 -56.5 -49.5t-20.5 -48.5q-7 -42 39 -42q18 0 30 3q10 3 12 -7l3 -46
q0 -8 -8 -11q-14 -4 -30 -6.5t-31 -2.5q-55 0 -80 24.5t-17 67.5q5 35 29 68.5t66 59.5h-344q-10 0 -8 10z" />
    <glyph glyph-name="eogonek" unicode="&#x119;" horiz-adv-x="521" 
d="M527 250q-3 -21 -6.5 -33.5t-7 -18.5t-7 -7.5t-7.5 -1.5h-330q-5 -55 26.5 -88t87.5 -33q39 0 71.5 15t58.5 41q8 8 14 1l39 -44q8 -6 -1 -13q-14 -14 -31.5 -26t-36.5 -22q-52 -38 -70.5 -70.5t-22.5 -56.5q-7 -43 40 -43q18 0 30 3q9 3 11 -7l4 -46q0 -7 -8 -11
q-14 -4 -30 -6.5t-31 -2.5q-56 0 -81 24.5t-17 68.5q5 26 25.5 59t62.5 63q-7 -3 -18 -5t-22 -2q-52 0 -92 17.5t-65 48.5t-34.5 73.5t-0.5 92.5q8 50 31.5 92.5t58 73.5t79.5 48.5t96 17.5q47 0 84.5 -15t62.5 -41.5t35 -63.5t2 -82zM439 261q5 48 -23.5 79.5t-86.5 31.5
q-54 0 -95.5 -30t-52.5 -81h258z" />
    <glyph glyph-name="Ecaron" unicode="&#x11a;" horiz-adv-x="573" 
d="M194 690q2 10 11 10h413q10 0 8 -10l-12 -73q-1 -9 -11 -9h-325l-34 -207h289q10 0 8 -10l-11 -68q-1 -9 -11 -9h-290l-37 -222h329q10 0 8 -9l-12 -73q-2 -10 -11 -10h-417q-10 0 -8 10zM289 865q-6 6 -4 10.5t10 4.5h69q2 0 3.5 -0.5t4.5 -3.5l62 -75l69 74q3 4 5 4.5
t4 0.5h73q20 0 5 -15l-116 -111q-3 -4 -8 -4h-72q-4 0 -7 4z" />
    <glyph glyph-name="ecaron" unicode="&#x11b;" horiz-adv-x="522" 
d="M528 250q-4 -21 -7 -33.5t-6.5 -18.5t-7 -7.5t-7.5 -1.5h-330q-5 -55 26.5 -88t88.5 -33q38 0 70.5 15.5t58.5 41.5q8 7 15 0l38 -44q8 -6 -1 -13q-38 -35 -88.5 -57.5t-106.5 -22.5q-52 0 -92 17.5t-65 48.5t-34.5 73.5t-0.5 92.5q8 50 31.5 92.5t58.5 73.5t79.5 48.5
t95.5 17.5q47 0 84.5 -15t62.5 -41.5t35 -63.5t2 -82zM440 261q5 48 -23.5 79.5t-86.5 31.5q-54 0 -95 -30t-53 -81h258zM221 645q-6 6 -4 10.5t10 4.5h69q2 0 3.5 -0.5t4.5 -3.5l62 -75l69 74q3 4 5 4.5t4 0.5h73q20 0 5 -15l-116 -111q-3 -4 -8 -4h-72q-4 0 -7 4z" />
    <glyph glyph-name="Gcircumflex" unicode="&#x11c;" horiz-adv-x="804" 
d="M468 275q-8 0 -8 9l12 69q2 9 11 9h307q11 0 14 -8t0 -34q-10 -78 -42 -139.5t-82 -104t-115 -65.5t-141 -23q-80 0 -144 27t-105.5 75t-58.5 115t-4 146q13 78 49 144.5t89 114.5t121.5 75t147.5 27q88 0 159.5 -31.5t107.5 -94.5q4 -7 -4 -14l-66 -44q-9 -4 -13 3
q-27 46 -75.5 67.5t-111.5 21.5q-60 0 -110.5 -19t-90 -54.5t-65.5 -85t-36 -110.5q-10 -62 0 -112t38 -85t73 -54t105 -19q52 0 96.5 14t78.5 39.5t56 61t29 79.5h-222zM688 775q5 -6 3 -10.5t-9 -4.5h-69q-5 0 -8 4l-59 78l-72 -77q-3 -4 -5 -4.5t-4 -0.5h-73q-20 0 -5 15
l116 111q3 4 8 4h72q4 0 7 -4z" />
    <glyph glyph-name="gcircumflex" unicode="&#x11d;" horiz-adv-x="514" 
d="M566 366q-2 -9 -12 -9l-95 -1q20 -15 29 -39t3 -57q-11 -64 -65.5 -101t-135.5 -37q-55 0 -91 16q-12 -11 -16 -27q-3 -18 7.5 -28.5t37.5 -13.5l121 -16q151 -19 135 -113q-11 -66 -80.5 -102.5t-187.5 -36.5t-170 33.5t-42 92.5q6 34 30 63t66 49q-14 23 -8 52
q3 22 18 42t41 34q-48 45 -35 120q6 35 22 65.5t42 52.5t62 34.5t82 12.5q20 0 41 -2.5t41 -9.5h162q10 0 8 -10zM323 376q-49 0 -78.5 -24t-36.5 -66t16 -65t68 -23q47 0 77 23.5t38 65.5q7 42 -15.5 65.5t-68.5 23.5zM150 0q-39 -20 -45 -59q-5 -34 26.5 -49t100.5 -15
q71 0 110 12t43 37q4 20 -10 29.5t-48 14.5l-123 16q-30 4 -54 14zM514 545q5 -6 3 -10.5t-9 -4.5h-69q-5 0 -8 4l-59 78l-72 -77q-3 -4 -5 -4.5t-4 -0.5h-73q-20 0 -5 15l116 111q3 4 8 4h72q4 0 7 -4z" />
    <glyph glyph-name="Gbreve" unicode="&#x11e;" horiz-adv-x="804" 
d="M468 275q-8 0 -8 9l12 69q2 9 11 9h307q11 0 14 -8t0 -34q-10 -78 -42 -139.5t-82 -104t-115 -65.5t-141 -23q-80 0 -144 27t-105.5 75t-58.5 115t-4 146q13 78 49 144.5t89 114.5t121.5 75t147.5 27q88 0 159.5 -31.5t107.5 -94.5q4 -7 -4 -14l-66 -44q-9 -4 -13 3
q-27 46 -75.5 67.5t-111.5 21.5q-60 0 -110.5 -19t-90 -54.5t-65.5 -85t-36 -110.5q-10 -62 0 -112t38 -85t73 -54t105 -19q52 0 96.5 14t78.5 39.5t56 61t29 79.5h-222zM404 881q2 9 11 9h55q10 0 8 -9q-4 -32 8 -53t55 -21q44 0 63 21t26 53q2 9 11 9h55q10 0 8 -9
q-10 -69 -53.5 -104t-112.5 -35q-73 0 -107.5 36t-26.5 103z" />
    <glyph glyph-name="gbreve" unicode="&#x11f;" horiz-adv-x="514" 
d="M566 366q-2 -9 -12 -9l-95 -1q20 -15 29 -39t3 -57q-11 -64 -65.5 -101t-135.5 -37q-55 0 -91 16q-12 -11 -16 -27q-3 -18 7.5 -28.5t37.5 -13.5l121 -16q151 -19 135 -113q-11 -66 -80.5 -102.5t-187.5 -36.5t-170 33.5t-42 92.5q6 34 30 63t66 49q-14 23 -8 52
q3 22 18 42t41 34q-48 45 -35 120q6 35 22 65.5t42 52.5t62 34.5t82 12.5q20 0 41 -2.5t41 -9.5h162q10 0 8 -10zM323 376q-49 0 -78.5 -24t-36.5 -66t16 -65t68 -23q47 0 77 23.5t38 65.5q7 42 -15.5 65.5t-68.5 23.5zM150 0q-39 -20 -45 -59q-5 -34 26.5 -49t100.5 -15
q71 0 110 12t43 37q4 20 -10 29.5t-48 14.5l-123 16q-30 4 -54 14zM230 651q2 9 11 9h55q10 0 8 -9q-4 -32 8 -53t55 -21q44 0 63 21t26 53q2 9 11 9h55q10 0 8 -9q-10 -69 -53.5 -104t-112.5 -35q-73 0 -107.5 36t-26.5 103z" />
    <glyph glyph-name="Gdotaccent" unicode="&#x120;" horiz-adv-x="804" 
d="M468 275q-8 0 -8 9l12 69q2 9 11 9h307q11 0 14 -8t0 -34q-10 -78 -42 -139.5t-82 -104t-115 -65.5t-141 -23q-80 0 -144 27t-105.5 75t-58.5 115t-4 146q13 78 49 144.5t89 114.5t121.5 75t147.5 27q88 0 159.5 -31.5t107.5 -94.5q4 -7 -4 -14l-66 -44q-9 -4 -13 3
q-27 46 -75.5 67.5t-111.5 21.5q-60 0 -110.5 -19t-90 -54.5t-65.5 -85t-36 -110.5q-10 -62 0 -112t38 -85t73 -54t105 -19q52 0 96.5 14t78.5 39.5t56 61t29 79.5h-222zM551 884q25 0 39.5 -15t11.5 -40q-4 -26 -20 -40.5t-41 -14.5q-26 0 -40.5 14.5t-10.5 40.5t19.5 40.5
t41.5 14.5z" />
    <glyph glyph-name="gdotaccent" unicode="&#x121;" horiz-adv-x="514" 
d="M566 366q-2 -9 -12 -9l-95 -1q20 -15 29 -39t3 -57q-11 -64 -65.5 -101t-135.5 -37q-55 0 -91 16q-12 -11 -16 -27q-3 -18 7.5 -28.5t37.5 -13.5l121 -16q151 -19 135 -113q-11 -66 -80.5 -102.5t-187.5 -36.5t-170 33.5t-42 92.5q6 34 30 63t66 49q-14 23 -8 52
q3 22 18 42t41 34q-48 45 -35 120q6 35 22 65.5t42 52.5t62 34.5t82 12.5q20 0 41 -2.5t41 -9.5h162q10 0 8 -10zM323 376q-49 0 -78.5 -24t-36.5 -66t16 -65t68 -23q47 0 77 23.5t38 65.5q7 42 -15.5 65.5t-68.5 23.5zM150 0q-39 -20 -45 -59q-5 -34 26.5 -49t100.5 -15
q71 0 110 12t43 37q4 20 -10 29.5t-48 14.5l-123 16q-30 4 -54 14zM377 654q25 0 39.5 -15t11.5 -40q-4 -26 -20 -40.5t-41 -14.5q-26 0 -40.5 14.5t-10.5 40.5t19.5 40.5t41.5 14.5z" />
    <glyph glyph-name="uni0122" unicode="&#x122;" horiz-adv-x="804" 
d="M468 275q-8 0 -8 9l12 69q2 9 11 9h307q11 0 14 -8t0 -34q-10 -78 -42 -139.5t-82 -104t-115 -65.5t-141 -23q-80 0 -144 27t-105.5 75t-58.5 115t-4 146q13 78 49 144.5t89 114.5t121.5 75t147.5 27q88 0 159.5 -31.5t107.5 -94.5q4 -7 -4 -14l-66 -44q-9 -4 -13 3
q-27 46 -75.5 67.5t-111.5 21.5q-60 0 -110.5 -19t-90 -54.5t-65.5 -85t-36 -110.5q-10 -62 0 -112t38 -85t73 -54t105 -19q52 0 96.5 14t78.5 39.5t56 61t29 79.5h-222zM400 -31q11 0 23.5 -3.5t22 -12t15 -22t2.5 -32.5q-5 -29 -27.5 -60t-59.5 -51q-7 -3 -11 1l-16 22
q-3 4 -2 8t5 6q17 10 26.5 22t14.5 25q-22 -5 -41.5 8.5t-17.5 40.5q3 25 22.5 36.5t43.5 11.5z" />
    <glyph glyph-name="uni0123" unicode="&#x123;" horiz-adv-x="514" 
d="M566 366q-2 -9 -12 -9l-95 -1q20 -15 29 -39t3 -57q-11 -64 -65.5 -101t-135.5 -37q-55 0 -91 16q-12 -11 -16 -27q-3 -18 7.5 -28.5t37.5 -13.5l121 -16q151 -19 135 -113q-11 -66 -80.5 -102.5t-187.5 -36.5t-170 33.5t-42 92.5q6 34 30 63t66 49q-14 23 -8 52
q3 22 18 42t41 34q-48 45 -35 120q6 35 22 65.5t42 52.5t62 34.5t82 12.5q20 0 41 -2.5t41 -9.5h162q10 0 8 -10zM323 376q-49 0 -78.5 -24t-36.5 -66t16 -65t68 -23q47 0 77 23.5t38 65.5q7 42 -15.5 65.5t-68.5 23.5zM150 0q-39 -20 -45 -59q-5 -34 26.5 -49t100.5 -15
q71 0 110 12t43 37q4 20 -10 29.5t-48 14.5l-123 16q-30 4 -54 14zM359 530q-27 0 -47.5 16t-14.5 55q7 42 32.5 78t65.5 59q6 4 11 -1l20 -24q4 -4 2.5 -8t-5.5 -6q-19 -14 -29.5 -26t-15.5 -26q32 2 47 -13.5t11 -41.5q-5 -29 -27 -45.5t-50 -16.5z" />
    <glyph glyph-name="Hcircumflex" unicode="&#x124;" horiz-adv-x="693" 
d="M722 700q10 0 8 -10l-113 -680q-2 -10 -11 -10h-79q-10 0 -8 10l48 288h-340l-48 -288q-2 -10 -12 -10h-78q-10 0 -8 10l113 680q2 10 11 10h79q10 0 8 -10l-50 -300h340l50 300q2 10 11 10h79zM624 765q5 -6 3 -10.5t-9 -4.5h-69q-5 0 -8 4l-59 78l-72 -77
q-3 -4 -5 -4.5t-4 -0.5h-73q-20 0 -5 15l116 111q3 4 8 4h72q4 0 7 -4z" />
    <glyph glyph-name="hcircumflex" unicode="&#x125;" horiz-adv-x="523" 
d="M263 740q10 0 8 -10l-59 -357q30 37 70.5 58t88.5 21q88 0 125.5 -53t21.5 -151l-40 -238q-2 -10 -11 -10h-74q-10 0 -8 10l39 235q21 123 -88 123q-26 0 -50.5 -10.5t-45 -29.5t-34.5 -46t-19 -59l-36 -213q-2 -10 -11 -10h-74q-10 0 -8 10l121 720q2 10 11 10h73z
M386 785q5 -6 3 -10.5t-9 -4.5h-69q-5 0 -8 4l-59 78l-72 -77q-3 -4 -5 -4.5t-4 -0.5h-73q-20 0 -5 15l116 111q3 4 8 4h72q4 0 7 -4z" />
    <glyph glyph-name="Hbar" unicode="&#x126;" horiz-adv-x="799" 
d="M141 511q-10 0 -9 9l10 55q2 10 11 10h76l18 105q2 10 12 10h78q10 0 8 -10l-18 -105h341l17 105q2 10 12 10h79q9 0 7 -10l-17 -105h76q10 0 8 -10l-9 -55q-1 -9 -11 -9h-76l-84 -501q-2 -10 -11 -10h-79q-10 0 -8 10l48 288h-340l-48 -288q-2 -10 -12 -10h-78
q-10 0 -8 10l83 501h-76zM636 390l20 121h-341l-20 -121h341z" />
    <glyph glyph-name="hbar" unicode="&#x127;" horiz-adv-x="524" 
d="M108 639q2 10 10 10h46l15 81q2 10 10 10h74q10 0 8 -10l-14 -81h140q11 0 9 -10l-9 -55q-2 -9 -12 -9h-141l-34 -202q31 37 71.5 58t88.5 21q88 0 126 -53t22 -151l-40 -238q-2 -10 -12 -10h-73q-10 0 -8 10l39 235q21 123 -89 123q-26 0 -50.5 -10.5t-44.5 -29.5
t-34 -46t-20 -59l-35 -213q-2 -10 -11 -10h-74q-9 0 -7 10l94 565h-47q-9 0 -7 9z" />
    <glyph glyph-name="Itilde" unicode="&#x128;" horiz-adv-x="257" 
d="M285 700q10 0 8 -10l-113 -680q-2 -10 -12 -10h-78q-10 0 -8 10l113 680q2 10 11 10h79zM434 880q10 0 8 -9q-7 -42 -19 -70t-27.5 -44.5t-33.5 -23t-37 -6.5q-23 0 -39.5 13t-29.5 28.5t-25.5 28.5t-27.5 13q-14 0 -26.5 -16t-17.5 -53q-2 -9 -11 -9h-56q-9 0 -7 9
q5 39 17 66.5t28.5 45t35.5 25t38 7.5q24 0 39.5 -13t28.5 -28t25 -28t28 -13q15 0 26.5 14t16.5 54q2 9 11 9h55z" />
    <glyph glyph-name="itilde" unicode="&#x129;" horiz-adv-x="195" 
d="M208 440q10 0 8 -10l-70 -420q-2 -10 -11 -10h-74q-10 0 -8 10l71 420q2 10 11 10h73zM367 660q10 0 8 -9q-7 -42 -19 -70t-27.5 -44.5t-33.5 -23t-37 -6.5q-23 0 -39.5 13t-29.5 28.5t-25.5 28.5t-27.5 13q-14 0 -26.5 -16t-17.5 -53q-2 -9 -11 -9h-56q-9 0 -7 9
q5 39 17 66.5t28.5 45t35.5 25t38 7.5q24 0 39.5 -13t28.5 -28t25 -28t28 -13q15 0 26.5 14t16.5 54q2 9 11 9h55z" />
    <glyph glyph-name="Imacron" unicode="&#x12a;" horiz-adv-x="257" 
d="M285 700q10 0 8 -10l-113 -680q-2 -10 -12 -10h-78q-10 0 -8 10l113 680q2 10 11 10h79zM418 788q-1 -9 -10 -9h-297q-9 0 -8 9l8 55q2 9 11 9h297q10 0 8 -9z" />
    <glyph glyph-name="imacron" unicode="&#x12b;" horiz-adv-x="195" 
d="M208 440q10 0 8 -10l-70 -420q-2 -10 -11 -10h-74q-10 0 -8 10l71 420q2 10 11 10h73zM351 568q-1 -9 -10 -9h-297q-9 0 -8 9l8 55q2 9 11 9h297q10 0 8 -9z" />
    <glyph glyph-name="Ibreve" unicode="&#x12c;" horiz-adv-x="257" 
d="M285 700q10 0 8 -10l-113 -680q-2 -10 -12 -10h-78q-10 0 -8 10l113 680q2 10 11 10h79zM124 871q2 9 11 9h55q10 0 8 -9q-4 -32 8 -53t55 -21q44 0 63 21t26 53q2 9 11 9h55q10 0 8 -9q-10 -69 -53.5 -104t-112.5 -35q-73 0 -107.5 36t-26.5 103z" />
    <glyph glyph-name="ibreve" unicode="&#x12d;" horiz-adv-x="195" 
d="M208 440q10 0 8 -10l-70 -420q-2 -10 -11 -10h-74q-10 0 -8 10l71 420q2 10 11 10h73zM57 651q2 9 11 9h55q10 0 8 -9q-4 -32 8 -53t55 -21q44 0 63 21t26 53q2 9 11 9h55q10 0 8 -9q-10 -69 -53.5 -104t-112.5 -35q-73 0 -107.5 36t-26.5 103z" />
    <glyph glyph-name="Iogonek" unicode="&#x12e;" horiz-adv-x="257" 
d="M285 700q10 0 8 -10l-113 -680q-2 -8 -8 -12l-12 -8q-40 -26 -57 -50t-21 -48q-7 -43 39 -43q19 0 31 4q10 2 11 -7l3 -46q1 -7 -8 -11q-14 -4 -29.5 -6.5t-30.5 -2.5q-55 0 -80 24.5t-17 67.5q6 40 29 68.5t48 48.5l117 701q2 10 11 10h79z" />
    <glyph glyph-name="iogonek" unicode="&#x12f;" horiz-adv-x="194" 
d="M206 655q27 0 41 -17t9 -43q-4 -25 -23.5 -42t-45.5 -17q-27 0 -41.5 17t-9.5 42q4 26 24 43t46 17zM207 440q10 0 8 -10l-71 -424q-1 -5 -5 -9q-48 -27 -67.5 -53t-23.5 -52q-7 -42 39 -42q18 0 30 3q10 3 12 -7l3 -46q0 -8 -8 -11q-14 -4 -30 -6.5t-31 -2.5
q-55 0 -80 24.5t-17 67.5t31.5 72.5t53.5 51.5l73 434q2 10 10 10h73z" />
    <glyph glyph-name="Idotaccent" unicode="&#x130;" horiz-adv-x="257" 
d="M285 700q10 0 8 -10l-113 -680q-2 -10 -12 -10h-78q-10 0 -8 10l113 680q2 10 11 10h79zM271 874q25 0 39.5 -15t11.5 -40q-4 -26 -20 -40.5t-41 -14.5q-26 0 -40.5 14.5t-10.5 40.5t19.5 40.5t41.5 14.5z" />
    <glyph glyph-name="dotlessi" unicode="&#x131;" horiz-adv-x="195" 
d="M208 440q10 0 8 -10l-70 -420q-2 -10 -11 -10h-74q-10 0 -8 10l71 420q2 10 11 10h73z" />
    <glyph glyph-name="IJ" unicode="&#x132;" horiz-adv-x="532" 
d="M285 700q10 0 8 -10l-98 -589q-2 -10 -11 -10h-80q-10 0 -8 10l98 589q2 10 12 10h79zM561 700q10 0 8 -10l-108 -646q-20 -119 -75 -171.5t-150 -52.5q-80 0 -123 45t-31 136q2 10 12 10h79q9 0 7 -10q-5 -49 12 -69t60 -20q24 0 41 5t30 18t21 35t14 56l111 664
q2 10 11 10h81z" />
    <glyph glyph-name="ij" unicode="&#x133;" horiz-adv-x="394" 
d="M208 440q10 0 8 -10l-70 -420q-2 -10 -11 -10h-74q-10 0 -8 10l71 420q2 10 11 10h73zM204 654q25 0 39.5 -15t11.5 -40q-4 -26 -20 -40.5t-41 -14.5q-26 0 -40.5 14.5t-10.5 40.5t19.5 40.5t41.5 14.5zM405 440q10 0 8 -10l-73 -440q-15 -91 -62.5 -134.5t-127.5 -45.5
q-10 0 -8 10l12 67q2 10 11 10q36 2 54.5 20.5t26.5 62.5l75 450q2 10 11 10h73zM401 654q25 0 39.5 -15t11.5 -40q-4 -26 -20 -40.5t-41 -14.5q-26 0 -40.5 14.5t-10.5 40.5t19.5 40.5t41.5 14.5z" />
    <glyph glyph-name="Jcircumflex" unicode="&#x134;" horiz-adv-x="254" 
d="M283 700q10 0 8 -10l-108 -646q-9 -55 -26.5 -96.5t-46 -69.5t-69 -42.5t-95.5 -15.5q-10 0 -8 10l12 73q1 9 11 9q59 2 86 32t38 100l108 646q2 10 11 10h79zM405 765q5 -6 3 -10.5t-9 -4.5h-69q-5 0 -8 4l-59 78l-72 -77q-3 -4 -5 -4.5t-4 -0.5h-73q-20 0 -5 15
l116 111q3 4 8 4h72q4 0 7 -4z" />
    <glyph glyph-name="jcircumflex" unicode="&#x135;" horiz-adv-x="199" 
d="M210 440q10 0 8 -10l-73 -440q-15 -91 -62.5 -134.5t-127.5 -45.5q-10 0 -8 10l12 67q2 10 11 10q36 2 54.5 20.5t26.5 62.5l75 450q2 10 11 10h73zM343 545q5 -6 3 -10.5t-9 -4.5h-69q-5 0 -8 4l-59 78l-72 -77q-3 -4 -5 -4.5t-4 -0.5h-73q-20 0 -5 15l116 111q3 4 8 4
h72q4 0 7 -4z" />
    <glyph glyph-name="uni0136" unicode="&#x136;" horiz-adv-x="629" 
d="M194 690q2 10 11 10h79q10 0 8 -10l-50 -301l336 306q5 5 11 5h114q11 0 12 -4.5t-8 -11.5l-364 -317l265 -351q5 -7 2.5 -11.5t-12.5 -4.5h-99q-9 0 -13 7l-250 347l-57 -344q-2 -10 -12 -10h-78q-10 0 -8 10zM309 -31q11 0 23.5 -3.5t22 -12t15 -22t2.5 -32.5
q-5 -29 -27.5 -60t-59.5 -51q-7 -3 -11 1l-16 22q-3 4 -2 8t5 6q17 10 26.5 22t14.5 25q-22 -5 -41.5 8.5t-17.5 40.5q3 25 22.5 36.5t43.5 11.5z" />
    <glyph glyph-name="uni0137" unicode="&#x137;" horiz-adv-x="505" 
d="M179 730q2 10 11 10h73q10 0 8 -10l-79 -475l220 182q5 3 8 3h118q4 0 4.5 -4t-3.5 -6l-250 -196l194 -225q4 -4 2 -6.5t-5 -2.5h-107q-4 0 -7 3l-180 217l-35 -210q-2 -10 -11 -10h-74q-10 0 -8 10zM230 -31q11 0 23.5 -3.5t22 -12t15 -22t2.5 -32.5q-5 -29 -27.5 -60
t-59.5 -51q-7 -3 -11 1l-16 22q-3 4 -2 8t5 6q17 10 26.5 22t14.5 25q-22 -5 -41.5 8.5t-17.5 40.5q3 25 22.5 36.5t43.5 11.5z" />
    <glyph glyph-name="kgreenlandic" unicode="&#x138;" horiz-adv-x="501" 
d="M124 430q2 10 11 10h73q10 0 8 -10l-29 -175l220 182q5 3 8 3h118q4 0 4.5 -4t-3.5 -6l-250 -196l194 -225q4 -4 2 -6.5t-5 -2.5h-107q-4 0 -7 3l-180 217l-35 -210q-2 -10 -11 -10h-74q-10 0 -8 10z" />
    <glyph glyph-name="Lacute" unicode="&#x139;" horiz-adv-x="563" 
d="M284 700q10 0 8 -10l-100 -598h329q10 0 8 -9l-12 -73q-2 -10 -11 -10h-417q-10 0 -8 10l113 680q2 10 11 10h79zM309 875q3 5 10 5h82q20 0 5 -15l-106 -111q-4 -4 -9 -4h-68q-17 0 -5 14z" />
    <glyph glyph-name="lacute" unicode="&#x13a;" horiz-adv-x="205" 
d="M151 10q-2 -10 -11 -10h-74q-10 0 -8 10l121 720q2 10 11 10h73q10 0 8 -10zM291 895q3 5 10 5h82q20 0 5 -15l-106 -111q-4 -4 -9 -4h-68q-17 0 -5 14z" />
    <glyph glyph-name="uni013B" unicode="&#x13b;" horiz-adv-x="563" 
d="M284 700q10 0 8 -10l-100 -598h329q10 0 8 -9l-12 -73q-2 -10 -11 -10h-417q-10 0 -8 10l113 680q2 10 11 10h79zM285 -31q11 0 23.5 -3.5t22 -12t15 -22t2.5 -32.5q-5 -29 -27.5 -60t-59.5 -51q-7 -3 -11 1l-16 22q-3 4 -2 8t5 6q17 10 26.5 22t14.5 25
q-22 -5 -41.5 8.5t-17.5 40.5q3 25 22.5 36.5t43.5 11.5z" />
    <glyph glyph-name="uni013C" unicode="&#x13c;" horiz-adv-x="205" 
d="M151 10q-2 -10 -11 -10h-74q-10 0 -8 10l121 720q2 10 11 10h73q10 0 8 -10zM90 -31q11 0 23.5 -3.5t22 -12t15 -22t2.5 -32.5q-5 -29 -27.5 -60t-59.5 -51q-7 -3 -11 1l-16 22q-3 4 -2 8t5 6q17 10 26.5 22t14.5 25q-22 -5 -41.5 8.5t-17.5 40.5q3 25 22.5 36.5
t43.5 11.5z" />
    <glyph glyph-name="Lcaron" unicode="&#x13d;" horiz-adv-x="563" 
d="M284 700q10 0 8 -10l-100 -598h329q10 0 8 -9l-12 -73q-2 -10 -11 -10h-417q-10 0 -8 10l113 680q2 10 11 10h79zM492 712q30 0 50 -20.5t14 -59.5q-8 -52 -32.5 -92t-62.5 -73q-6 -6 -12 -1l-23 26q-8 6 1 15q21 20 32.5 37.5t15.5 38.5q-30 0 -45.5 18.5t-11.5 44.5
q5 32 25.5 49t48.5 17z" />
    <glyph glyph-name="lcaron" unicode="&#x13e;" horiz-adv-x="205" 
d="M151 10q-2 -10 -11 -10h-74q-10 0 -8 10l121 720q2 10 11 10h73q10 0 8 -10zM400 752q30 0 50 -20.5t14 -59.5q-8 -52 -32.5 -92t-62.5 -73q-6 -6 -12 -1l-23 26q-8 6 1 15q21 20 32.5 37.5t15.5 38.5q-30 0 -45.5 18.5t-11.5 44.5q5 32 25.5 49t48.5 17z" />
    <glyph glyph-name="Ldot" unicode="&#x13f;" horiz-adv-x="563" 
d="M284 700q10 0 8 -10l-100 -598h329q10 0 8 -9l-12 -73q-2 -10 -11 -10h-417q-10 0 -8 10l113 680q2 10 11 10h79zM478 469q27 0 44.5 -18.5t12.5 -50.5t-28.5 -50.5t-50.5 -18.5t-44.5 18.5t-12.5 50.5t28.5 50.5t50.5 18.5z" />
    <glyph glyph-name="ldot" unicode="&#x140;" horiz-adv-x="473" 
d="M151 10q-2 -10 -11 -10h-74q-10 0 -8 10l121 720q2 10 11 10h73q10 0 8 -10zM354 439q27 0 44.5 -18.5t12.5 -50.5t-28.5 -50.5t-50.5 -18.5t-44.5 18.5t-12.5 50.5t28.5 50.5t50.5 18.5z" />
    <glyph glyph-name="Lslash" unicode="&#x141;" horiz-adv-x="613" 
d="M106 244q-10 -4 -12 5l-15 48q-4 9 6 13l102 44l56 336q2 10 12 10h79q9 0 7 -10l-48 -290l174 72q10 3 12 -5l11 -50q4 -9 -6 -13l-205 -83l-37 -229h329q9 0 7 -9l-12 -73q-2 -10 -11 -10h-417q-10 0 -8 10l44 264z" />
    <glyph glyph-name="lslash" unicode="&#x142;" horiz-adv-x="224" 
d="M48 266q-10 -4 -13 4l-17 39q-3 9 4 13l108 60l58 348q2 10 11 10h73q11 0 9 -10l-49 -290l69 39q10 5 13 -4l17 -39q3 -8 -5 -13l-108 -61l-58 -352q-2 -10 -11 -10h-73q-10 0 -8 10l49 295z" />
    <glyph glyph-name="Nacute" unicode="&#x143;" horiz-adv-x="703" 
d="M732 700q10 0 8 -10l-114 -685q-2 -10 -11 -10h-20q-7 0 -12 6l-323 497l-81 -488q-2 -10 -12 -10h-78q-10 0 -8 10l114 685q2 10 11 10h21q6 0 10 -6l324 -497l81 488q2 10 12 10h78zM532 875q3 5 10 5h82q20 0 5 -15l-106 -111q-4 -4 -9 -4h-68q-17 0 -5 14z" />
    <glyph glyph-name="nacute" unicode="&#x144;" horiz-adv-x="516" 
d="M186 440q8 0 8 -8l1 -72q32 43 75.5 67.5t95.5 24.5q87 0 124.5 -53t20.5 -151l-40 -238q-2 -10 -11 -10h-73q-10 0 -8 10l39 235q10 60 -10.5 91.5t-76.5 31.5q-27 0 -51.5 -10.5t-44.5 -29.5t-34 -46t-19 -59l-36 -213q-2 -10 -11 -10h-74q-10 0 -8 10l71 420
q2 10 11 10h51zM401 655q3 5 10 5h82q20 0 5 -15l-106 -111q-4 -4 -9 -4h-68q-17 0 -5 14z" />
    <glyph glyph-name="uni0145" unicode="&#x145;" horiz-adv-x="703" 
d="M732 700q10 0 8 -10l-114 -685q-2 -10 -11 -10h-20q-7 0 -12 6l-323 497l-81 -488q-2 -10 -12 -10h-78q-10 0 -8 10l114 685q2 10 11 10h21q6 0 10 -6l324 -497l81 488q2 10 12 10h78zM338 -31q11 0 23.5 -3.5t22 -12t15 -22t2.5 -32.5q-5 -29 -27.5 -60t-59.5 -51
q-7 -3 -11 1l-16 22q-3 4 -2 8t5 6q17 10 26.5 22t14.5 25q-22 -5 -41.5 8.5t-17.5 40.5q3 25 22.5 36.5t43.5 11.5z" />
    <glyph glyph-name="uni0146" unicode="&#x146;" horiz-adv-x="516" 
d="M186 440q8 0 8 -8l1 -72q32 43 75.5 67.5t95.5 24.5q87 0 124.5 -53t20.5 -151l-40 -238q-2 -10 -11 -10h-73q-10 0 -8 10l39 235q10 60 -10.5 91.5t-76.5 31.5q-27 0 -51.5 -10.5t-44.5 -29.5t-34 -46t-19 -59l-36 -213q-2 -10 -11 -10h-74q-10 0 -8 10l71 420
q2 10 11 10h51zM251 -31q11 0 23.5 -3.5t22 -12t15 -22t2.5 -32.5q-5 -29 -27.5 -60t-59.5 -51q-7 -3 -11 1l-16 22q-3 4 -2 8t5 6q17 10 26.5 22t14.5 25q-22 -5 -41.5 8.5t-17.5 40.5q3 25 22.5 36.5t43.5 11.5z" />
    <glyph glyph-name="Ncaron" unicode="&#x147;" horiz-adv-x="703" 
d="M732 700q10 0 8 -10l-114 -685q-2 -10 -11 -10h-20q-7 0 -12 6l-323 497l-81 -488q-2 -10 -12 -10h-78q-10 0 -8 10l114 685q2 10 11 10h21q6 0 10 -6l324 -497l81 488q2 10 12 10h78zM339 865q-6 6 -4 10.5t10 4.5h69q2 0 3.5 -0.5t4.5 -3.5l62 -75l69 74q3 4 5 4.5
t4 0.5h73q20 0 5 -15l-116 -111q-3 -4 -8 -4h-72q-4 0 -7 4z" />
    <glyph glyph-name="ncaron" unicode="&#x148;" horiz-adv-x="516" 
d="M186 440q8 0 8 -8l1 -72q32 43 75.5 67.5t95.5 24.5q87 0 124.5 -53t20.5 -151l-40 -238q-2 -10 -11 -10h-73q-10 0 -8 10l39 235q10 60 -10.5 91.5t-76.5 31.5q-27 0 -51.5 -10.5t-44.5 -29.5t-34 -46t-19 -59l-36 -213q-2 -10 -11 -10h-74q-10 0 -8 10l71 420
q2 10 11 10h51zM208 645q-6 6 -4 10.5t10 4.5h69q2 0 3.5 -0.5t4.5 -3.5l62 -75l69 74q3 4 5 4.5t4 0.5h73q20 0 5 -15l-116 -111q-3 -4 -8 -4h-72q-4 0 -7 4z" />
    <glyph glyph-name="napostrophe" unicode="&#x149;" horiz-adv-x="516" 
d="M186 440q8 0 8 -8l1 -72q32 43 75.5 67.5t95.5 24.5q87 0 124.5 -53t20.5 -151l-40 -238q-2 -10 -11 -10h-73q-10 0 -8 10l39 235q10 60 -10.5 91.5t-76.5 31.5q-27 0 -51.5 -10.5t-44.5 -29.5t-34 -46t-19 -59l-36 -213q-2 -10 -11 -10h-74q-10 0 -8 10l71 420
q2 10 11 10h51zM141 710q30 0 50 -20.5t14 -59.5q-8 -52 -32.5 -92t-62.5 -73q-6 -6 -12 -1l-23 26q-8 6 1 15q21 20 32.5 37.5t15.5 38.5q-30 0 -45.5 18.5t-11.5 44.5q5 32 25.5 49t48.5 17z" />
    <glyph glyph-name="Eng" unicode="&#x14a;" horiz-adv-x="713" 
d="M743 700q8 0 8 -10l-116 -695q-17 -100 -68.5 -146t-138.5 -48q-10 0 -8 9l11 69q2 10 12 10q44 1 66 21t31 74l13 76l-298 441l-81 -491q-2 -10 -12 -10h-73q-10 0 -8 10l114 685q2 10 11 10h21q5 0 9 -6l340 -500l82 491q2 10 11 10h74z" />
    <glyph glyph-name="eng" unicode="&#x14b;" horiz-adv-x="515" 
d="M123 430q2 10 11 10h50q9 0 9 -8l2 -73q31 43 74.5 68t94.5 25q87 0 124.5 -53t20.5 -150l-43 -259q-15 -91 -61 -134.5t-127 -45.5q-9 0 -7 10l12 70q0 10 11 10q35 2 53 19t26 60l44 266q20 119 -88 119q-54 0 -95.5 -38.5t-52.5 -102.5l-36 -213q-2 -10 -11 -10h-73
q-10 0 -8 10z" />
    <glyph glyph-name="Omacron" unicode="&#x14c;" horiz-adv-x="815" 
d="M513 712q79 0 142 -27.5t104 -75.5t58 -114.5t4 -144.5q-13 -81 -49 -147.5t-89 -114.5t-120 -74t-143 -26q-79 0 -142 27.5t-104 75.5t-58 114.5t-4 144.5q14 81 49.5 147.5t88 114.5t120 74t143.5 26zM507 620q-57 0 -106 -19t-87.5 -54t-64 -85t-36.5 -112
q-10 -61 0 -110.5t38 -85t72.5 -55t102.5 -19.5q57 0 106 19t87.5 54t64 85t35.5 112q10 61 0 110.5t-37.5 85t-72 55t-102.5 19.5zM692 798q-1 -9 -10 -9h-297q-9 0 -8 9l8 55q2 9 11 9h297q10 0 8 -9z" />
    <glyph glyph-name="omacron" unicode="&#x14d;" horiz-adv-x="545" 
d="M348 452q50 0 89.5 -17.5t65.5 -48.5t36 -73.5t2 -92.5t-32.5 -92.5t-60.5 -73.5t-81 -48.5t-96 -17.5q-50 0 -89.5 17.5t-65 48.5t-35.5 73.5t-2 92.5t32 92.5t60 73.5t81 48.5t96 17.5zM335 372q-60 0 -105 -40.5t-57 -110.5q-11 -70 20 -111.5t91 -41.5q30 0 57 11
t48.5 31t36 48t20.5 63q12 70 -19 110.5t-92 40.5zM525 568q-1 -9 -10 -9h-297q-9 0 -8 9l8 55q2 9 11 9h297q10 0 8 -9z" />
    <glyph glyph-name="Obreve" unicode="&#x14e;" horiz-adv-x="815" 
d="M513 712q79 0 142 -27.5t104 -75.5t58 -114.5t4 -144.5q-13 -81 -49 -147.5t-89 -114.5t-120 -74t-143 -26q-79 0 -142 27.5t-104 75.5t-58 114.5t-4 144.5q14 81 49.5 147.5t88 114.5t120 74t143.5 26zM507 620q-57 0 -106 -19t-87.5 -54t-64 -85t-36.5 -112
q-10 -61 0 -110.5t38 -85t72.5 -55t102.5 -19.5q57 0 106 19t87.5 54t64 85t35.5 112q10 61 0 110.5t-37.5 85t-72 55t-102.5 19.5zM398 881q2 9 11 9h55q10 0 8 -9q-4 -32 8 -53t55 -21q44 0 63 21t26 53q2 9 11 9h55q10 0 8 -9q-10 -69 -53.5 -104t-112.5 -35
q-73 0 -107.5 36t-26.5 103z" />
    <glyph glyph-name="obreve" unicode="&#x14f;" horiz-adv-x="545" 
d="M348 452q50 0 89.5 -17.5t65.5 -48.5t36 -73.5t2 -92.5t-32.5 -92.5t-60.5 -73.5t-81 -48.5t-96 -17.5q-50 0 -89.5 17.5t-65 48.5t-35.5 73.5t-2 92.5t32 92.5t60 73.5t81 48.5t96 17.5zM335 372q-60 0 -105 -40.5t-57 -110.5q-11 -70 20 -111.5t91 -41.5q30 0 57 11
t48.5 31t36 48t20.5 63q12 70 -19 110.5t-92 40.5zM232 651q2 9 11 9h55q10 0 8 -9q-4 -32 8 -53t55 -21q44 0 63 21t26 53q2 9 11 9h55q10 0 8 -9q-10 -69 -53.5 -104t-112.5 -35q-73 0 -107.5 36t-26.5 103z" />
    <glyph glyph-name="Ohungarumlaut" unicode="&#x150;" horiz-adv-x="815" 
d="M513 712q79 0 142 -27.5t104 -75.5t58 -114.5t4 -144.5q-13 -81 -49 -147.5t-89 -114.5t-120 -74t-143 -26q-79 0 -142 27.5t-104 75.5t-58 114.5t-4 144.5q14 81 49.5 147.5t88 114.5t120 74t143.5 26zM507 620q-57 0 -106 -19t-87.5 -54t-64 -85t-36.5 -112
q-10 -61 0 -110.5t38 -85t72.5 -55t102.5 -19.5q57 0 106 19t87.5 54t64 85t35.5 112q10 61 0 110.5t-37.5 85t-72 55t-102.5 19.5zM497 885q5 5 10 5h77q17 0 5 -15l-102 -111q-3 -4 -8 -4h-53q-6 0 -8.5 2.5t1.5 7.5zM665 885q5 5 10 5h75q20 0 5 -15l-110 -111
q-4 -4 -8 -4h-53q-5 0 -7 3t3 8z" />
    <glyph glyph-name="ohungarumlaut" unicode="&#x151;" horiz-adv-x="545" 
d="M348 452q50 0 89.5 -17.5t65.5 -48.5t36 -73.5t2 -92.5t-32.5 -92.5t-60.5 -73.5t-81 -48.5t-96 -17.5q-50 0 -89.5 17.5t-65 48.5t-35.5 73.5t-2 92.5t32 92.5t60 73.5t81 48.5t96 17.5zM335 372q-60 0 -105 -40.5t-57 -110.5q-11 -70 20 -111.5t91 -41.5q30 0 57 11
t48.5 31t36 48t20.5 63q12 70 -19 110.5t-92 40.5zM330 655q5 5 10 5h77q17 0 5 -15l-102 -111q-3 -4 -8 -4h-53q-6 0 -8.5 2.5t1.5 7.5zM498 655q5 5 10 5h75q20 0 5 -15l-110 -111q-4 -4 -8 -4h-53q-5 0 -7 3t3 8z" />
    <glyph glyph-name="OE" unicode="&#x152;" horiz-adv-x="999" 
d="M1047 700q9 0 7 -10l-12 -73q-1 -9 -11 -9h-325l-35 -207h286q11 0 9 -10l-12 -68q-1 -9 -11 -9h-285l-37 -222h325q9 0 7 -9l-11 -73q-2 -10 -12 -10h-525q-78 0 -138 25.5t-99 71.5t-54.5 110.5t-2.5 142.5t50 142.5t91 110.5t123 71.5t147 25.5h525zM510 608
q-58 0 -108 -17.5t-89 -50.5t-64.5 -81t-36.5 -109q-10 -61 0 -109t38 -81t72 -50.5t102 -17.5h101l86 516h-101z" />
    <glyph glyph-name="oe" unicode="&#x153;" horiz-adv-x="887" 
d="M347 452q63 0 104.5 -27.5t58.5 -75.5q35 48 87.5 75.5t116.5 27.5q48 0 84.5 -15t60 -42.5t32 -65.5t0.5 -83q-3 -19 -6.5 -30.5t-7.5 -17t-9.5 -7t-11.5 -1.5h-319q-5 -54 26.5 -88t88.5 -34q31 0 60.5 14.5t55.5 39.5q6 7 14 1l42 -42q8 -5 0 -13q-38 -36 -83.5 -58
t-102.5 -22q-64 0 -108 27.5t-62 75.5q-34 -48 -84.5 -75.5t-113.5 -27.5q-50 0 -89.5 17.5t-65 48.5t-36 73.5t-1.5 92.5q8 50 32.5 92.5t60 73.5t81 48.5t95.5 17.5zM804 261q4 48 -23 79.5t-82 31.5q-25 0 -49.5 -8t-44.5 -23t-34.5 -35.5t-20.5 -44.5h254zM334 372
q-30 0 -57 -10.5t-48 -30t-35.5 -47.5t-20.5 -63q-12 -70 19 -111.5t91 -41.5q30 0 57 11t48.5 31t36.5 48t21 63q11 70 -20.5 110.5t-91.5 40.5z" />
    <glyph glyph-name="Racute" unicode="&#x154;" horiz-adv-x="622" 
d="M179 10q-2 -10 -12 -10h-78q-10 0 -8 10l113 680q2 10 11 10h225q119 0 175.5 -55.5t39.5 -159.5q-9 -52 -30 -91t-51.5 -65.5t-68 -41t-79.5 -18.5l138 -254q8 -15 -10 -15h-94q-3 0 -7 4l-130 255h-93zM235 350h135q81 0 123 35t53 103q11 65 -20 93t-112 28h-135z
M499 875q3 5 10 5h82q20 0 5 -15l-106 -111q-4 -4 -9 -4h-68q-17 0 -5 14z" />
    <glyph glyph-name="racute" unicode="&#x155;" horiz-adv-x="340" 
d="M124 430q2 10 11 10h51q8 0 8 -8l1 -80q32 43 79.5 69.5t110.5 30.5q10 0 8 -10l-12 -72q-2 -11 -12 -11q-71 2 -123.5 -34t-66.5 -119l-33 -196q-2 -10 -11 -10h-74q-10 0 -8 10zM331 655q3 5 10 5h82q20 0 5 -15l-106 -111q-4 -4 -9 -4h-68q-17 0 -5 14z" />
    <glyph glyph-name="uni0156" unicode="&#x156;" horiz-adv-x="622" 
d="M179 10q-2 -10 -12 -10h-78q-10 0 -8 10l113 680q2 10 11 10h225q119 0 175.5 -55.5t39.5 -159.5q-9 -52 -30 -91t-51.5 -65.5t-68 -41t-79.5 -18.5l138 -254q8 -15 -10 -15h-94q-3 0 -7 4l-130 255h-93zM235 350h135q81 0 123 35t53 103q11 65 -20 93t-112 28h-135z
M314 -31q11 0 23.5 -3.5t22 -12t15 -22t2.5 -32.5q-5 -29 -27.5 -60t-59.5 -51q-7 -3 -11 1l-16 22q-3 4 -2 8t5 6q17 10 26.5 22t14.5 25q-22 -5 -41.5 8.5t-17.5 40.5q3 25 22.5 36.5t43.5 11.5z" />
    <glyph glyph-name="uni0157" unicode="&#x157;" horiz-adv-x="340" 
d="M124 430q2 10 11 10h51q8 0 8 -8l1 -80q32 43 79.5 69.5t110.5 30.5q10 0 8 -10l-12 -72q-2 -11 -12 -11q-71 2 -123.5 -34t-66.5 -119l-33 -196q-2 -10 -11 -10h-74q-10 0 -8 10zM85 -31q11 0 23.5 -3.5t22 -12t15 -22t2.5 -32.5q-5 -29 -27.5 -60t-59.5 -51
q-7 -3 -11 1l-16 22q-3 4 -2 8t5 6q17 10 26.5 22t14.5 25q-22 -5 -41.5 8.5t-17.5 40.5q3 25 22.5 36.5t43.5 11.5z" />
    <glyph glyph-name="Rcaron" unicode="&#x158;" horiz-adv-x="622" 
d="M179 10q-2 -10 -12 -10h-78q-10 0 -8 10l113 680q2 10 11 10h225q119 0 175.5 -55.5t39.5 -159.5q-9 -52 -30 -91t-51.5 -65.5t-68 -41t-79.5 -18.5l138 -254q8 -15 -10 -15h-94q-3 0 -7 4l-130 255h-93zM235 350h135q81 0 123 35t53 103q11 65 -20 93t-112 28h-135z
M306 865q-6 6 -4 10.5t10 4.5h69q2 0 3.5 -0.5t4.5 -3.5l62 -75l69 74q3 4 5 4.5t4 0.5h73q20 0 5 -15l-116 -111q-3 -4 -8 -4h-72q-4 0 -7 4z" />
    <glyph glyph-name="rcaron" unicode="&#x159;" horiz-adv-x="340" 
d="M124 430q2 10 11 10h51q8 0 8 -8l1 -80q32 43 79.5 69.5t110.5 30.5q10 0 8 -10l-12 -72q-2 -11 -12 -11q-71 2 -123.5 -34t-66.5 -119l-33 -196q-2 -10 -11 -10h-74q-10 0 -8 10zM138 645q-6 6 -4 10.5t10 4.5h69q2 0 3.5 -0.5t4.5 -3.5l62 -75l69 74q3 4 5 4.5t4 0.5
h73q20 0 5 -15l-116 -111q-3 -4 -8 -4h-72q-4 0 -7 4z" />
    <glyph glyph-name="Sacute" unicode="&#x15a;" horiz-adv-x="604" 
d="M572 558q-9 -7 -14 0q-32 35 -74.5 50t-96.5 15q-73 0 -106 -27.5t-39 -65.5q-5 -30 5 -51t30 -36t49 -25.5t62 -19.5q41 -12 80 -29t68 -42.5t43.5 -62t6.5 -86.5q-8 -48 -32.5 -83.5t-62 -59t-85.5 -35.5t-103 -12q-74 0 -138.5 21.5t-112.5 73.5q-3 2 -2.5 6t3.5 7
l54 60q9 7 15 -1q19 -22 42 -37t48 -24t51 -13t50 -4q47 0 78 9.5t51 24.5t30 34.5t13 39.5q5 29 -2.5 48t-26 33t-48 24.5t-69.5 20.5q-43 11 -82.5 29t-68 45t-42 64t-5.5 86q14 84 82.5 130.5t179.5 46.5q72 0 127.5 -18.5t99.5 -66.5q6 -6 -1 -13zM471 885q3 5 10 5h82
q20 0 5 -15l-106 -111q-4 -4 -9 -4h-68q-17 0 -5 14z" />
    <glyph glyph-name="sacute" unicode="&#x15b;" horiz-adv-x="449" 
d="M416 330q-8 -6 -15 -1q-20 20 -50.5 32.5t-64.5 12.5q-38 0 -61 -11.5t-27 -34.5q-2 -13 1 -23t13.5 -18t30.5 -14.5t51 -13.5q88 -20 120 -50t23 -84q-5 -30 -23 -55.5t-45.5 -43.5t-63.5 -28t-78 -10q-57 0 -105 17t-77 44q-4 5 1 12l45 54q7 9 15 2q23 -20 57.5 -35.5
t78.5 -15.5q38 0 66.5 15.5t32.5 38.5q2 12 -0.5 21t-14.5 16.5t-34.5 14.5t-60.5 16q-76 18 -106.5 50.5t-21.5 85.5q10 59 61.5 93.5t132.5 34.5q55 0 98 -16.5t72 -43.5q5 -5 -1 -13zM370 655q3 5 10 5h82q20 0 5 -15l-106 -111q-4 -4 -9 -4h-68q-17 0 -5 14z" />
    <glyph glyph-name="Scircumflex" unicode="&#x15c;" horiz-adv-x="604" 
d="M572 558q-9 -7 -14 0q-32 35 -74.5 50t-96.5 15q-73 0 -106 -27.5t-39 -65.5q-5 -30 5 -51t30 -36t49 -25.5t62 -19.5q41 -12 80 -29t68 -42.5t43.5 -62t6.5 -86.5q-8 -48 -32.5 -83.5t-62 -59t-85.5 -35.5t-103 -12q-74 0 -138.5 21.5t-112.5 73.5q-3 2 -2.5 6t3.5 7
l54 60q9 7 15 -1q19 -22 42 -37t48 -24t51 -13t50 -4q47 0 78 9.5t51 24.5t30 34.5t13 39.5q5 29 -2.5 48t-26 33t-48 24.5t-69.5 20.5q-43 11 -82.5 29t-68 45t-42 64t-5.5 86q14 84 82.5 130.5t179.5 46.5q72 0 127.5 -18.5t99.5 -66.5q6 -6 -1 -13zM569 775q5 -6 3 -10.5
t-9 -4.5h-69q-5 0 -8 4l-59 78l-72 -77q-3 -4 -5 -4.5t-4 -0.5h-73q-20 0 -5 15l116 111q3 4 8 4h72q4 0 7 -4z" />
    <glyph glyph-name="scircumflex" unicode="&#x15d;" horiz-adv-x="449" 
d="M416 330q-8 -6 -15 -1q-20 20 -50.5 32.5t-64.5 12.5q-38 0 -61 -11.5t-27 -34.5q-2 -13 1 -23t13.5 -18t30.5 -14.5t51 -13.5q88 -20 120 -50t23 -84q-5 -30 -23 -55.5t-45.5 -43.5t-63.5 -28t-78 -10q-57 0 -105 17t-77 44q-4 5 1 12l45 54q7 9 15 2q23 -20 57.5 -35.5
t78.5 -15.5q38 0 66.5 15.5t32.5 38.5q2 12 -0.5 21t-14.5 16.5t-34.5 14.5t-60.5 16q-76 18 -106.5 50.5t-21.5 85.5q10 59 61.5 93.5t132.5 34.5q55 0 98 -16.5t72 -43.5q5 -5 -1 -13zM468 545q5 -6 3 -10.5t-9 -4.5h-69q-5 0 -8 4l-59 78l-72 -77q-3 -4 -5 -4.5t-4 -0.5
h-73q-20 0 -5 15l116 111q3 4 8 4h72q4 0 7 -4z" />
    <glyph glyph-name="Scedilla" unicode="&#x15e;" horiz-adv-x="604" 
d="M572 558q-9 -7 -14 0q-32 35 -74.5 50t-96.5 15q-73 0 -106 -27.5t-39 -65.5q-5 -30 5 -51t30 -36t49 -25.5t62 -19.5q41 -12 80 -29t68 -42.5t43.5 -62t6.5 -86.5q-8 -48 -32.5 -83.5t-62 -59t-85.5 -35.5t-103 -12q-74 0 -138.5 21.5t-112.5 73.5q-3 2 -2.5 6t3.5 7
l54 60q9 7 15 -1q19 -22 42 -37t48 -24t51 -13t50 -4q47 0 78 9.5t51 24.5t30 34.5t13 39.5q5 29 -2.5 48t-26 33t-48 24.5t-69.5 20.5q-43 11 -82.5 29t-68 45t-42 64t-5.5 86q14 84 82.5 130.5t179.5 46.5q72 0 127.5 -18.5t99.5 -66.5q6 -6 -1 -13zM315 15q12 0 8 -11
l-18 -51q57 -4 82 -27t19 -61q-7 -42 -46 -63.5t-107 -21.5q-42 0 -79 8q-9 2 -5 11l13 44q3 11 13 8q18 -5 38.5 -7t38.5 -2q28 0 43.5 9t17.5 23q3 18 -17 26.5t-71 10.5q-12 0 -8 11l31 85q2 8 10 8h37z" />
    <glyph glyph-name="scedilla" unicode="&#x15f;" horiz-adv-x="449" 
d="M416 330q-8 -6 -15 -1q-20 20 -50.5 32.5t-64.5 12.5q-38 0 -61 -11.5t-27 -34.5q-2 -13 1 -23t13.5 -18t30.5 -14.5t51 -13.5q88 -20 120 -50t23 -84q-5 -30 -23 -55.5t-45.5 -43.5t-63.5 -28t-78 -10q-57 0 -105 17t-77 44q-4 5 1 12l45 54q7 9 15 2q23 -20 57.5 -35.5
t78.5 -15.5q38 0 66.5 15.5t32.5 38.5q2 12 -0.5 21t-14.5 16.5t-34.5 14.5t-60.5 16q-76 18 -106.5 50.5t-21.5 85.5q10 59 61.5 93.5t132.5 34.5q55 0 98 -16.5t72 -43.5q5 -5 -1 -13zM241 15q12 0 8 -11l-18 -51q57 -4 82 -27t19 -61q-7 -42 -46 -63.5t-107 -21.5
q-42 0 -79 8q-9 2 -5 11l13 44q3 11 13 8q18 -5 38.5 -7t38.5 -2q28 0 43.5 9t17.5 23q3 18 -17 26.5t-71 10.5q-12 0 -8 11l31 85q2 8 10 8h37z" />
    <glyph glyph-name="Scaron" unicode="&#x160;" horiz-adv-x="604" 
d="M572 558q-9 -7 -14 0q-32 35 -74.5 50t-96.5 15q-73 0 -106 -27.5t-39 -65.5q-5 -30 5 -51t30 -36t49 -25.5t62 -19.5q41 -12 80 -29t68 -42.5t43.5 -62t6.5 -86.5q-8 -48 -32.5 -83.5t-62 -59t-85.5 -35.5t-103 -12q-74 0 -138.5 21.5t-112.5 73.5q-3 2 -2.5 6t3.5 7
l54 60q9 7 15 -1q19 -22 42 -37t48 -24t51 -13t50 -4q47 0 78 9.5t51 24.5t30 34.5t13 39.5q5 29 -2.5 48t-26 33t-48 24.5t-69.5 20.5q-43 11 -82.5 29t-68 45t-42 64t-5.5 86q14 84 82.5 130.5t179.5 46.5q72 0 127.5 -18.5t99.5 -66.5q6 -6 -1 -13zM278 875q-6 6 -4 10.5
t10 4.5h69q2 0 3.5 -0.5t4.5 -3.5l62 -75l69 74q3 4 5 4.5t4 0.5h73q20 0 5 -15l-116 -111q-3 -4 -8 -4h-72q-4 0 -7 4z" />
    <glyph glyph-name="scaron" unicode="&#x161;" horiz-adv-x="449" 
d="M416 330q-8 -6 -15 -1q-20 20 -50.5 32.5t-64.5 12.5q-38 0 -61 -11.5t-27 -34.5q-2 -13 1 -23t13.5 -18t30.5 -14.5t51 -13.5q88 -20 120 -50t23 -84q-5 -30 -23 -55.5t-45.5 -43.5t-63.5 -28t-78 -10q-57 0 -105 17t-77 44q-4 5 1 12l45 54q7 9 15 2q23 -20 57.5 -35.5
t78.5 -15.5q38 0 66.5 15.5t32.5 38.5q2 12 -0.5 21t-14.5 16.5t-34.5 14.5t-60.5 16q-76 18 -106.5 50.5t-21.5 85.5q10 59 61.5 93.5t132.5 34.5q55 0 98 -16.5t72 -43.5q5 -5 -1 -13zM177 645q-6 6 -4 10.5t10 4.5h69q2 0 3.5 -0.5t4.5 -3.5l62 -75l69 74q3 4 5 4.5
t4 0.5h73q20 0 5 -15l-116 -111q-3 -4 -8 -4h-72q-4 0 -7 4z" />
    <glyph glyph-name="uni0162" unicode="&#x162;" horiz-adv-x="581" 
d="M148 690q2 10 11 10h497q10 0 8 -10l-12 -73q-1 -9 -11 -9h-200l-99 -598q-2 -10 -11 -10h-79q-10 0 -8 10l99 598h-199q-9 0 -8 9zM313 15q12 0 8 -11l-18 -51q57 -4 82 -27t19 -61q-7 -42 -46 -63.5t-107 -21.5q-42 0 -79 8q-9 2 -5 11l13 44q3 11 13 8q18 -5 38.5 -7
t38.5 -2q28 0 43.5 9t17.5 23q3 18 -17 26.5t-71 10.5q-12 0 -8 11l31 85q2 8 10 8h37z" />
    <glyph glyph-name="uni0163" unicode="&#x163;" horiz-adv-x="375" 
d="M274 548q10 0 8 -10l-17 -98h126q10 0 8 -10l-11 -64q-2 -9 -11 -9h-126l-34 -208q-8 -43 3 -59t36 -16q19 0 37 5t35 13q11 5 14 -4l15 -58q3 -9 -6 -13q-28 -13 -58 -21t-57 -8q-139 0 -113 152l36 217h-71q-8 0 -8 9l11 64q2 10 11 10h75l60 102q3 6 10 6h27zM194 31
q12 0 8 -11l-18 -51q57 -4 82 -27t19 -61q-7 -42 -46 -63.5t-107 -21.5q-42 0 -79 8q-9 2 -5 11l13 44q3 11 13 8q18 -5 38.5 -7t38.5 -2q28 0 43.5 9t17.5 23q3 18 -17 26.5t-71 10.5q-12 0 -8 11l31 85q2 8 10 8h37z" />
    <glyph glyph-name="Tcaron" unicode="&#x164;" horiz-adv-x="581" 
d="M148 690q2 10 11 10h497q10 0 8 -10l-12 -73q-1 -9 -11 -9h-200l-99 -598q-2 -10 -11 -10h-79q-10 0 -8 10l99 598h-199q-9 0 -8 9zM280 865q-6 6 -4 10.5t10 4.5h69q2 0 3.5 -0.5t4.5 -3.5l62 -75l69 74q3 4 5 4.5t4 0.5h73q20 0 5 -15l-116 -111q-3 -4 -8 -4h-72
q-4 0 -7 4z" />
    <glyph glyph-name="tcaron" unicode="&#x165;" horiz-adv-x="375" 
d="M274 548q10 0 8 -10l-17 -98h126q10 0 8 -10l-11 -64q-2 -9 -11 -9h-126l-34 -208q-8 -43 3 -59t36 -16q19 0 37 5t35 13q11 5 14 -4l15 -58q3 -9 -6 -13q-28 -13 -58 -21t-57 -8q-139 0 -113 152l36 217h-71q-8 0 -8 9l11 64q2 10 11 10h75l60 102q3 6 10 6h27zM408 752
q30 0 50 -20.5t14 -59.5q-8 -52 -32.5 -92t-62.5 -73q-6 -6 -12 -1l-23 26q-8 6 1 15q21 20 32.5 37.5t15.5 38.5q-30 0 -45.5 18.5t-11.5 44.5q5 32 25.5 49t48.5 17z" />
    <glyph glyph-name="Tbar" unicode="&#x166;" horiz-adv-x="581" 
d="M148 690q2 10 12 10h497q9 0 7 -10l-12 -73q-1 -9 -11 -9h-200l-39 -239h122q10 0 8 -10l-9 -55q-2 -9 -12 -9h-122l-47 -285q-2 -10 -11 -10h-79q-10 0 -8 10l47 285h-122q-10 0 -8 9l9 55q2 10 11 10h123l39 239h-199q-9 0 -8 9z" />
    <glyph glyph-name="tbar" unicode="&#x167;" horiz-adv-x="375" 
d="M77 266q2 10 10 10h58l14 81h-71q-10 0 -8 9l11 64q2 10 11 10h75l60 102q3 6 9 6h27q11 0 9 -10l-17 -98h126q10 0 8 -10l-11 -64q-2 -9 -11 -9h-126l-13 -81h132q11 0 9 -10l-10 -55q-2 -9 -11 -9h-132l-10 -53q-7 -43 3.5 -59t36.5 -16q19 0 37 5t35 13q11 5 14 -4
l15 -58q3 -9 -6 -13q-28 -13 -58 -21t-57 -8q-139 0 -113 152l10 62h-58q-10 0 -8 9z" />
    <glyph glyph-name="Utilde" unicode="&#x168;" horiz-adv-x="675" 
d="M708 700q10 0 8 -10l-72 -431q-10 -61 -35.5 -111.5t-64.5 -85.5t-90 -54.5t-112 -19.5t-107.5 19.5t-75.5 54.5t-40 85.5t-1 111.5l72 431q2 10 11 10h79q10 0 8 -10l-70 -421q-16 -94 17.5 -141.5t114.5 -47.5t131.5 47.5t66.5 141.5l70 421q2 10 11 10h79zM638 880
q10 0 8 -9q-7 -42 -19 -70t-27.5 -44.5t-33.5 -23t-37 -6.5q-23 0 -39.5 13t-29.5 28.5t-25.5 28.5t-27.5 13q-14 0 -26.5 -16t-17.5 -53q-2 -9 -11 -9h-56q-9 0 -7 9q5 39 17 66.5t28.5 45t35.5 25t38 7.5q24 0 39.5 -13t28.5 -28t25 -28t28 -13q15 0 26.5 14t16.5 54
q2 9 11 9h55z" />
    <glyph glyph-name="utilde" unicode="&#x169;" horiz-adv-x="515" 
d="M528 440q10 0 8 -10l-70 -420q-2 -10 -11 -10h-51q-8 0 -8 8l-1 73q-32 -43 -75.5 -68t-95.5 -25q-86 0 -123.5 53t-20.5 151l40 238q2 10 11 10h73q10 0 8 -10l-39 -234q-10 -61 11 -91t77 -30q26 0 50.5 10.5t44 29t33.5 45t19 58.5l36 212q2 10 11 10h73zM523 660
q10 0 8 -9q-7 -42 -19 -70t-27.5 -44.5t-33.5 -23t-37 -6.5q-23 0 -39.5 13t-29.5 28.5t-25.5 28.5t-27.5 13q-14 0 -26.5 -16t-17.5 -53q-2 -9 -11 -9h-56q-9 0 -7 9q5 39 17 66.5t28.5 45t35.5 25t38 7.5q24 0 39.5 -13t28.5 -28t25 -28t28 -13q15 0 26.5 14t16.5 54
q2 9 11 9h55z" />
    <glyph glyph-name="Umacron" unicode="&#x16a;" horiz-adv-x="675" 
d="M708 700q10 0 8 -10l-72 -431q-10 -61 -35.5 -111.5t-64.5 -85.5t-90 -54.5t-112 -19.5t-107.5 19.5t-75.5 54.5t-40 85.5t-1 111.5l72 431q2 10 11 10h79q10 0 8 -10l-70 -421q-16 -94 17.5 -141.5t114.5 -47.5t131.5 47.5t66.5 141.5l70 421q2 10 11 10h79zM622 788
q-1 -9 -10 -9h-297q-9 0 -8 9l8 55q2 9 11 9h297q10 0 8 -9z" />
    <glyph glyph-name="umacron" unicode="&#x16b;" horiz-adv-x="515" 
d="M528 440q10 0 8 -10l-70 -420q-2 -10 -11 -10h-51q-8 0 -8 8l-1 73q-32 -43 -75.5 -68t-95.5 -25q-86 0 -123.5 53t-20.5 151l40 238q2 10 11 10h73q10 0 8 -10l-39 -234q-10 -61 11 -91t77 -30q26 0 50.5 10.5t44 29t33.5 45t19 58.5l36 212q2 10 11 10h73zM507 568
q-1 -9 -10 -9h-297q-9 0 -8 9l8 55q2 9 11 9h297q10 0 8 -9z" />
    <glyph glyph-name="Ubreve" unicode="&#x16c;" horiz-adv-x="675" 
d="M708 700q10 0 8 -10l-72 -431q-10 -61 -35.5 -111.5t-64.5 -85.5t-90 -54.5t-112 -19.5t-107.5 19.5t-75.5 54.5t-40 85.5t-1 111.5l72 431q2 10 11 10h79q10 0 8 -10l-70 -421q-16 -94 17.5 -141.5t114.5 -47.5t131.5 47.5t66.5 141.5l70 421q2 10 11 10h79zM328 871
q2 9 11 9h55q10 0 8 -9q-4 -32 8 -53t55 -21q44 0 63 21t26 53q2 9 11 9h55q10 0 8 -9q-10 -69 -53.5 -104t-112.5 -35q-73 0 -107.5 36t-26.5 103z" />
    <glyph glyph-name="ubreve" unicode="&#x16d;" horiz-adv-x="515" 
d="M528 440q10 0 8 -10l-70 -420q-2 -10 -11 -10h-51q-8 0 -8 8l-1 73q-32 -43 -75.5 -68t-95.5 -25q-86 0 -123.5 53t-20.5 151l40 238q2 10 11 10h73q10 0 8 -10l-39 -234q-10 -61 11 -91t77 -30q26 0 50.5 10.5t44 29t33.5 45t19 58.5l36 212q2 10 11 10h73zM213 651
q2 9 11 9h55q10 0 8 -9q-4 -32 8 -53t55 -21q44 0 63 21t26 53q2 9 11 9h55q10 0 8 -9q-10 -69 -53.5 -104t-112.5 -35q-73 0 -107.5 36t-26.5 103z" />
    <glyph glyph-name="Uring" unicode="&#x16e;" horiz-adv-x="675" 
d="M708 700q10 0 8 -10l-72 -431q-10 -61 -35.5 -111.5t-64.5 -85.5t-90 -54.5t-112 -19.5t-107.5 19.5t-75.5 54.5t-40 85.5t-1 111.5l72 431q2 10 11 10h79q10 0 8 -10l-70 -421q-16 -94 17.5 -141.5t114.5 -47.5t131.5 47.5t66.5 141.5l70 421q2 10 11 10h79zM493 964
q54 0 82 -33.5t20 -84.5q-4 -24 -16.5 -45.5t-31.5 -37t-42.5 -24.5t-49.5 -9q-54 0 -82 33.5t-20 82.5q4 25 16 46.5t31 37.5t42.5 25t50.5 9zM485 910q-32 0 -50.5 -17t-23.5 -47q-5 -29 7.5 -45.5t44.5 -16.5t50 16.5t23 45.5q5 30 -7.5 47t-43.5 17z" />
    <glyph glyph-name="uring" unicode="&#x16f;" horiz-adv-x="515" 
d="M528 440q10 0 8 -10l-70 -420q-2 -10 -11 -10h-51q-8 0 -8 8l-1 73q-32 -43 -75.5 -68t-95.5 -25q-86 0 -123.5 53t-20.5 151l40 238q2 10 11 10h73q10 0 8 -10l-39 -234q-10 -61 11 -91t77 -30q26 0 50.5 10.5t44 29t33.5 45t19 58.5l36 212q2 10 11 10h73zM378 744
q54 0 82 -33.5t20 -84.5q-4 -24 -16.5 -45.5t-31.5 -37t-42.5 -24.5t-49.5 -9q-54 0 -82 33.5t-20 82.5q4 25 16 46.5t31 37.5t42.5 25t50.5 9zM370 690q-32 0 -50.5 -17t-23.5 -47q-5 -29 7.5 -45.5t44.5 -16.5t50 16.5t23 45.5q5 30 -7.5 47t-43.5 17z" />
    <glyph glyph-name="Uhungarumlaut" unicode="&#x170;" horiz-adv-x="675" 
d="M708 700q10 0 8 -10l-72 -431q-10 -61 -35.5 -111.5t-64.5 -85.5t-90 -54.5t-112 -19.5t-107.5 19.5t-75.5 54.5t-40 85.5t-1 111.5l72 431q2 10 11 10h79q10 0 8 -10l-70 -421q-16 -94 17.5 -141.5t114.5 -47.5t131.5 47.5t66.5 141.5l70 421q2 10 11 10h79zM427 875
q5 5 10 5h77q17 0 5 -15l-102 -111q-3 -4 -8 -4h-53q-6 0 -8.5 2.5t1.5 7.5zM595 875q5 5 10 5h75q20 0 5 -15l-110 -111q-4 -4 -8 -4h-53q-5 0 -7 3t3 8z" />
    <glyph glyph-name="uhungarumlaut" unicode="&#x171;" horiz-adv-x="515" 
d="M528 440q10 0 8 -10l-70 -420q-2 -10 -11 -10h-51q-8 0 -8 8l-1 73q-32 -43 -75.5 -68t-95.5 -25q-86 0 -123.5 53t-20.5 151l40 238q2 10 11 10h73q10 0 8 -10l-39 -234q-10 -61 11 -91t77 -30q26 0 50.5 10.5t44 29t33.5 45t19 58.5l36 212q2 10 11 10h73zM311 655
q5 5 10 5h77q17 0 5 -15l-102 -111q-3 -4 -8 -4h-53q-6 0 -8.5 2.5t1.5 7.5zM479 655q5 5 10 5h75q20 0 5 -15l-110 -111q-4 -4 -8 -4h-53q-5 0 -7 3t3 8z" />
    <glyph glyph-name="Uogonek" unicode="&#x172;" horiz-adv-x="678" 
d="M711 700q10 0 8 -10l-72 -431q-18 -106 -83 -176.5t-163 -88.5q-39 -26 -58 -52.5t-22 -49.5q-7 -42 39 -42q18 0 30 3q10 3 12 -7l3 -46q0 -8 -8 -11q-14 -4 -30 -6.5t-31 -2.5q-55 0 -80 24.5t-17 68.5q5 29 24.5 59.5t53.5 56.5q-56 3 -97.5 23.5t-67.5 55.5t-35 83.5
t1 107.5l72 431q2 10 12 10h79q10 0 8 -10l-70 -422q-16 -93 18 -140.5t115 -47.5t131 47.5t66 141.5l70 421q2 10 12 10h80z" />
    <glyph glyph-name="uogonek" unicode="&#x173;" horiz-adv-x="514" 
d="M527 440q11 0 9 -10l-71 -418q-2 -12 -20 -22q-40 -25 -56.5 -49.5t-20.5 -48.5q-7 -42 40 -42q17 0 29 3q10 3 12 -7l4 -46q0 -7 -9 -11q-14 -4 -30 -6.5t-30 -2.5q-56 0 -80.5 24.5t-17.5 67.5q7 36 34 72t75 67l-1 70q-31 -43 -75 -68t-96 -25q-86 0 -123.5 53
t-21.5 151l41 238q2 10 10 10h74q10 0 8 -10l-39 -234q-10 -61 11 -91t77 -30q26 0 50.5 10.5t44 29t33 45t19.5 58.5l36 212q2 10 11 10h73z" />
    <glyph glyph-name="Wcircumflex" unicode="&#x174;" horiz-adv-x="1066" 
d="M1127 700q12 0 5 -12l-346 -686q-3 -7 -10 -7h-24q-6 0 -9 6l-130 496l-290 -496q-3 -6 -10 -6h-24q-6 0 -8 7l-117 686q-3 12 8 12h80q8 0 8 -7l81 -493l281 481q4 5 11 5h12q7 0 9 -5l128 -487l249 499q2 7 9 7h87zM811 765q5 -6 3 -10.5t-9 -4.5h-69q-5 0 -8 4l-59 78
l-72 -77q-3 -4 -5 -4.5t-4 -0.5h-73q-20 0 -5 15l116 111q3 4 8 4h72q4 0 7 -4z" />
    <glyph glyph-name="wcircumflex" unicode="&#x175;" horiz-adv-x="788" 
d="M832 440q7 0 9 -4t-2 -9l-258 -426q-3 -6 -10 -6h-26q-6 0 -8 6l-94 290l-191 -290q-4 -6 -10 -6h-25q-6 0 -8 6l-118 426q-4 13 11 13h84q6 0 9 -6l67 -277l183 278q5 5 10 5h25q6 0 8 -5l91 -278l158 277q5 6 11 6h84zM636 545q5 -6 3 -10.5t-9 -4.5h-69q-5 0 -8 4
l-59 78l-72 -77q-3 -4 -5 -4.5t-4 -0.5h-73q-20 0 -5 15l116 111q3 4 8 4h72q4 0 7 -4z" />
    <glyph glyph-name="Ycircumflex" unicode="&#x176;" horiz-adv-x="643" 
d="M722 700q14 0 3 -14l-308 -405l-45 -271q-2 -10 -11 -10h-79q-10 0 -8 10l45 271l-173 405q-5 14 9 14h87q5 0 7 -5l130 -321l234 321q5 5 10 5h99zM600 765q5 -6 3 -10.5t-9 -4.5h-69q-5 0 -8 4l-59 78l-72 -77q-3 -4 -5 -4.5t-4 -0.5h-73q-20 0 -5 15l116 111q3 4 8 4
h72q4 0 7 -4z" />
    <glyph glyph-name="ycircumflex" unicode="&#x177;" horiz-adv-x="499" 
d="M91 427q-2 5 1 9t10 4h74q6 0 9 -6l84 -323l178 323q4 6 10 6h86q7 0 9 -4t-2 -9l-353 -611q-3 -6 -10 -6h-83q-6 0 -8 4t2 9l111 185zM492 545q5 -6 3 -10.5t-9 -4.5h-69q-5 0 -8 4l-59 78l-72 -77q-3 -4 -5 -4.5t-4 -0.5h-73q-20 0 -5 15l116 111q3 4 8 4h72q4 0 7 -4z
" />
    <glyph glyph-name="Ydieresis" unicode="&#x178;" horiz-adv-x="643" 
d="M722 700q14 0 3 -14l-308 -405l-45 -271q-2 -10 -11 -10h-79q-10 0 -8 10l45 271l-173 405q-5 14 9 14h87q5 0 7 -5l130 -321l234 321q5 5 10 5h99zM366 872q26 0 39 -15.5t9 -41.5q-4 -25 -22 -40.5t-44 -15.5t-39 15.5t-9 40.5q4 26 21.5 41.5t44.5 15.5zM564 872
q26 0 39 -15.5t9 -41.5q-4 -25 -22 -40.5t-44 -15.5t-39 15.5t-9 40.5q4 26 21.5 41.5t44.5 15.5z" />
    <glyph glyph-name="Zacute" unicode="&#x179;" horiz-adv-x="635" 
d="M175 608q-9 0 -8 9l13 73q2 10 11 10h488q10 0 8 -9l-4 -23q-2 -7 -5 -10l-462 -567l367 1q10 0 8 -9l-12 -73q-2 -10 -11 -10h-499q-10 0 -8 10l3 22q1 6 5 11l461 565h-355zM493 875q3 5 10 5h82q20 0 5 -15l-106 -111q-4 -4 -9 -4h-68q-17 0 -5 14z" />
    <glyph glyph-name="zacute" unicode="&#x17a;" horiz-adv-x="446" 
d="M110 360q-8 0 -8 10l11 60q2 10 11 10h346q10 0 8 -10l-4 -24q0 -4 -4 -8l-281 -318h230q10 0 8 -10l-10 -60q-2 -10 -11 -10h-365q-10 0 -8 10l4 24q1 3 2 4.5t2 3.5l281 318h-212zM380 655q3 5 10 5h82q20 0 5 -15l-106 -111q-4 -4 -9 -4h-68q-17 0 -5 14z" />
    <glyph glyph-name="Zdotaccent" unicode="&#x17b;" horiz-adv-x="635" 
d="M175 608q-9 0 -8 9l13 73q2 10 11 10h488q10 0 8 -9l-4 -23q-2 -7 -5 -10l-462 -567l367 1q10 0 8 -9l-12 -73q-2 -10 -11 -10h-499q-10 0 -8 10l3 22q1 6 5 11l461 565h-355zM454 874q25 0 39.5 -15t11.5 -40q-4 -26 -20 -40.5t-41 -14.5q-26 0 -40.5 14.5t-10.5 40.5
t19.5 40.5t41.5 14.5z" />
    <glyph glyph-name="zdotaccent" unicode="&#x17c;" horiz-adv-x="446" 
d="M110 360q-8 0 -8 10l11 60q2 10 11 10h346q10 0 8 -10l-4 -24q0 -4 -4 -8l-281 -318h230q10 0 8 -10l-10 -60q-2 -10 -11 -10h-365q-10 0 -8 10l4 24q1 3 2 4.5t2 3.5l281 318h-212zM341 654q25 0 39.5 -15t11.5 -40q-4 -26 -20 -40.5t-41 -14.5q-26 0 -40.5 14.5
t-10.5 40.5t19.5 40.5t41.5 14.5z" />
    <glyph glyph-name="Zcaron" unicode="&#x17d;" horiz-adv-x="635" 
d="M175 608q-9 0 -8 9l13 73q2 10 11 10h488q10 0 8 -9l-4 -23q-2 -7 -5 -10l-462 -567l367 1q10 0 8 -9l-12 -73q-2 -10 -11 -10h-499q-10 0 -8 10l3 22q1 6 5 11l461 565h-355zM300 865q-6 6 -4 10.5t10 4.5h69q2 0 3.5 -0.5t4.5 -3.5l62 -75l69 74q3 4 5 4.5t4 0.5h73
q20 0 5 -15l-116 -111q-3 -4 -8 -4h-72q-4 0 -7 4z" />
    <glyph glyph-name="zcaron" unicode="&#x17e;" horiz-adv-x="446" 
d="M110 360q-8 0 -8 10l11 60q2 10 11 10h346q10 0 8 -10l-4 -24q0 -4 -4 -8l-281 -318h230q10 0 8 -10l-10 -60q-2 -10 -11 -10h-365q-10 0 -8 10l4 24q1 3 2 4.5t2 3.5l281 318h-212zM187 645q-6 6 -4 10.5t10 4.5h69q2 0 3.5 -0.5t4.5 -3.5l62 -75l69 74q3 4 5 4.5t4 0.5
h73q20 0 5 -15l-116 -111q-3 -4 -8 -4h-72q-4 0 -7 4z" />
    <glyph glyph-name="florin" unicode="&#x192;" horiz-adv-x="543" 
d="M42 139q0 10 9 11l64 19q11 4 11 -9q1 -41 17.5 -65.5t50.5 -24.5q35 0 53.5 24t26.5 73l35 204h-137q-10 0 -8 10l10 55q2 9 10 9h137l15 91q8 46 27.5 79t46.5 54t60 31t69 10q18 0 33 -2t31 -7q8 -1 6 -9l-11 -66q-1 -6 -2.5 -8t-7.5 0q-30 11 -62 11
q-45 0 -65.5 -23.5t-28.5 -72.5l-15 -88h141q11 0 9 -9l-9 -55q-2 -10 -12 -10h-141l-35 -207q-7 -46 -24.5 -79.5t-41.5 -55t-53.5 -31.5t-60.5 -10q-66 0 -105.5 35t-42.5 116z" />
    <glyph glyph-name="AEacute" unicode="&#x1fc;" horiz-adv-x="943" 
d="M987 617q-1 -9 -11 -9h-385l21 -207h290q10 0 8 -10l-12 -68q-1 -9 -11 -9h-267l21 -222h249q10 0 8 -9l-12 -73q-2 -10 -11 -10h-321q-8 0 -8 8l-15 162h-283l-100 -164q-4 -6 -11 -6h-87q-8 0 -9.5 4t2.5 9l422 681q3 6 9 6h517q10 0 8 -10zM526 263l-32 315l-191 -315
h223zM781 875q3 5 10 5h82q20 0 5 -15l-106 -111q-4 -4 -9 -4h-68q-17 0 -5 14z" />
    <glyph glyph-name="aeacute" unicode="&#x1fd;" horiz-adv-x="876" 
d="M877 223q-3 -17 -7.5 -25t-15.5 -8h-325q-5 -53 25.5 -86.5t86.5 -33.5q33 0 62.5 14.5t54.5 38.5q8 7 14 1l43 -42q7 -5 0 -13q-37 -36 -80 -58.5t-96 -22.5q-48 0 -87.5 22t-57.5 60l-14 -61q-4 -9 -11 -9h-48q-8 0 -8 9l5 61q-30 -39 -71 -60.5t-92 -21.5
q-46 0 -83 17.5t-60.5 48t-32.5 73t0 93.5q8 50 31 92.5t57 73.5t76 48.5t88 17.5q50 0 84 -20t51 -55l9 53q2 10 11 10h64q10 0 8 -10l-9 -55q32 39 75 58t94 19q46 0 80 -16.5t54.5 -46.5t27 -72.5t-2.5 -93.5zM795 261q5 47 -20 79t-86 32q-54 0 -94.5 -31t-53.5 -80h254
zM337 372q-68 0 -110 -41t-54 -111q-11 -70 17 -111t96 -41q29 0 56 11.5t49 32t37 48t21 60.5q5 33 -0.5 60.5t-20.5 48t-38.5 32t-52.5 11.5zM590 655q3 5 10 5h82q20 0 5 -15l-106 -111q-4 -4 -9 -4h-68q-17 0 -5 14z" />
    <glyph glyph-name="Oslashacute" unicode="&#x1fe;" horiz-adv-x="815" 
d="M527 712q61 0 111 -16.5t88 -47.5l101 99q6 8 14 2l33 -34q6 -5 0 -13l-103 -100q36 -48 49.5 -112t0.5 -140q-13 -78 -50 -144.5t-92 -115t-125 -75.5t-148 -27q-60 0 -110 16.5t-88 46.5l-106 -104q-7 -7 -14 -1l-31 36q-6 6 1 13l104 102q-36 48 -49.5 112.5
t-0.5 140.5q13 78 50 144.5t92 115t125 75.5t148 27zM512 621q-58 0 -108 -19.5t-89.5 -55t-66 -85.5t-36.5 -111q-9 -54 -2 -99.5t28 -79.5l416 406q-55 44 -142 44zM280 122q55 -43 141 -43q58 0 108 19.5t89.5 55t66 85.5t36.5 111q18 108 -25 179zM594 885q3 5 10 5h82
q20 0 5 -15l-106 -111q-4 -4 -9 -4h-68q-17 0 -5 14z" />
    <glyph glyph-name="oslashacute" unicode="&#x1ff;" horiz-adv-x="545" 
d="M526 509q7 7 13 1l38 -29q7 -7 -1 -13l-73 -82q26 -31 36 -73t2 -93q-8 -50 -32.5 -92.5t-60.5 -73t-81 -48t-96 -17.5q-29 0 -55.5 6.5t-48.5 17.5l-75 -83q-6 -7 -14 -2l-35 32q-6 6 1 14l73 80q-26 32 -36 74t-2 92t32.5 92.5t60 73.5t81 48t95.5 17q61 0 104 -24z
M335 371q-60 0 -105 -40t-57 -110q-9 -56 10 -93l208 231q-12 5 -25.5 8.5t-30.5 3.5zM229 82q24 -13 56 -13q30 0 57 10.5t48 30.5t35.5 48t20.5 63q5 27 2 50t-11 41zM419 655q3 5 10 5h82q20 0 5 -15l-106 -111q-4 -4 -9 -4h-68q-17 0 -5 14z" />
    <glyph glyph-name="uni0218" unicode="&#x218;" horiz-adv-x="604" 
d="M572 558q-9 -7 -14 0q-32 35 -74.5 50t-96.5 15q-73 0 -106 -27.5t-39 -65.5q-5 -30 5 -51t30 -36t49 -25.5t62 -19.5q41 -12 80 -29t68 -42.5t43.5 -62t6.5 -86.5q-8 -48 -32.5 -83.5t-62 -59t-85.5 -35.5t-103 -12q-74 0 -138.5 21.5t-112.5 73.5q-3 2 -2.5 6t3.5 7
l54 60q9 7 15 -1q19 -22 42 -37t48 -24t51 -13t50 -4q47 0 78 9.5t51 24.5t30 34.5t13 39.5q5 29 -2.5 48t-26 33t-48 24.5t-69.5 20.5q-43 11 -82.5 29t-68 45t-42 64t-5.5 86q14 84 82.5 130.5t179.5 46.5q72 0 127.5 -18.5t99.5 -66.5q6 -6 -1 -13zM281 -31
q11 0 23.5 -3.5t22 -12t15 -22t2.5 -32.5q-5 -29 -27.5 -60t-59.5 -51q-7 -3 -11 1l-16 22q-3 4 -2 8t5 6q17 10 26.5 22t14.5 25q-22 -5 -41.5 8.5t-17.5 40.5q3 25 22.5 36.5t43.5 11.5z" />
    <glyph glyph-name="uni0219" unicode="&#x219;" horiz-adv-x="449" 
d="M416 330q-8 -6 -15 -1q-20 20 -50.5 32.5t-64.5 12.5q-38 0 -61 -11.5t-27 -34.5q-2 -13 1 -23t13.5 -18t30.5 -14.5t51 -13.5q88 -20 120 -50t23 -84q-5 -30 -23 -55.5t-45.5 -43.5t-63.5 -28t-78 -10q-57 0 -105 17t-77 44q-4 5 1 12l45 54q7 9 15 2q23 -20 57.5 -35.5
t78.5 -15.5q38 0 66.5 15.5t32.5 38.5q2 12 -0.5 21t-14.5 16.5t-34.5 14.5t-60.5 16q-76 18 -106.5 50.5t-21.5 85.5q10 59 61.5 93.5t132.5 34.5q55 0 98 -16.5t72 -43.5q5 -5 -1 -13zM207 -31q11 0 23.5 -3.5t22 -12t15 -22t2.5 -32.5q-5 -29 -27.5 -60t-59.5 -51
q-7 -3 -11 1l-16 22q-3 4 -2 8t5 6q17 10 26.5 22t14.5 25q-22 -5 -41.5 8.5t-17.5 40.5q3 25 22.5 36.5t43.5 11.5z" />
    <glyph glyph-name="uni021A" unicode="&#x21a;" horiz-adv-x="581" 
d="M148 690q2 10 11 10h497q10 0 8 -10l-12 -73q-1 -9 -11 -9h-200l-99 -598q-2 -10 -11 -10h-79q-10 0 -8 10l99 598h-199q-9 0 -8 9zM279 -31q11 0 23.5 -3.5t22 -12t15 -22t2.5 -32.5q-5 -29 -27.5 -60t-59.5 -51q-7 -3 -11 1l-16 22q-3 4 -2 8t5 6q17 10 26.5 22
t14.5 25q-22 -5 -41.5 8.5t-17.5 40.5q3 25 22.5 36.5t43.5 11.5z" />
    <glyph glyph-name="uni021B" unicode="&#x21b;" horiz-adv-x="375" 
d="M274 548q10 0 8 -10l-17 -98h126q10 0 8 -10l-11 -64q-2 -9 -11 -9h-126l-34 -208q-8 -43 3 -59t36 -16q19 0 37 5t35 13q11 5 14 -4l15 -58q3 -9 -6 -13q-28 -13 -58 -21t-57 -8q-139 0 -113 152l36 217h-71q-8 0 -8 9l11 64q2 10 11 10h75l60 102q3 6 10 6h27zM160 -15
q11 0 23.5 -3.5t22 -12t15 -22t2.5 -32.5q-5 -29 -27.5 -60t-59.5 -51q-7 -3 -11 1l-16 22q-3 4 -2 8t5 6q17 10 26.5 22t14.5 25q-22 -5 -41.5 8.5t-17.5 40.5q3 25 22.5 36.5t43.5 11.5z" />
    <glyph glyph-name="uni0237" unicode="&#x237;" horiz-adv-x="199" 
d="M210 440q10 0 8 -10l-73 -440q-15 -91 -62.5 -134.5t-127.5 -45.5q-10 0 -8 10l12 67q2 10 11 10q36 2 54.5 20.5t26.5 62.5l75 450q2 10 11 10h73z" />
    <glyph glyph-name="circumflex" unicode="&#x2c6;" horiz-adv-x="467" 
d="M481 585q5 -6 3 -10.5t-9 -4.5h-69q-5 0 -8 4l-59 78l-72 -77q-3 -4 -5 -4.5t-4 -0.5h-73q-20 0 -5 15l116 111q3 4 8 4h72q4 0 7 -4z" />
    <glyph glyph-name="caron" unicode="&#x2c7;" horiz-adv-x="467" 
d="M198 685q-6 6 -4 10.5t10 4.5h69q2 0 3.5 -0.5t4.5 -3.5l62 -75l69 74q3 4 5 4.5t4 0.5h73q20 0 5 -15l-116 -111q-3 -4 -8 -4h-72q-4 0 -7 4z" />
    <glyph glyph-name="breve" unicode="&#x2d8;" horiz-adv-x="457" 
d="M194 691q2 9 11 9h55q10 0 8 -9q-4 -32 8 -53t55 -21q44 0 63 21t26 53q2 9 11 9h55q10 0 8 -9q-10 -69 -53.5 -104t-112.5 -35q-73 0 -107.5 36t-26.5 103z" />
    <glyph glyph-name="dotaccent" unicode="&#x2d9;" horiz-adv-x="269" 
d="M247 694q25 0 39.5 -15t11.5 -40q-4 -26 -20 -40.5t-41 -14.5q-26 0 -40.5 14.5t-10.5 40.5t19.5 40.5t41.5 14.5z" />
    <glyph glyph-name="ring" unicode="&#x2da;" horiz-adv-x="399" 
d="M335 808q54 0 82 -33.5t20 -84.5q-4 -24 -16.5 -45.5t-31.5 -37t-42.5 -24.5t-49.5 -9q-54 0 -82 33.5t-20 82.5q4 25 16 46.5t31 37.5t42.5 25t50.5 9zM327 754q-32 0 -50.5 -17t-23.5 -47q-5 -29 7.5 -45.5t44.5 -16.5t50 16.5t23 45.5q5 30 -7.5 47t-43.5 17z" />
    <glyph glyph-name="ogonek" unicode="&#x2db;" horiz-adv-x="335" 
d="M207 -147q11 2 11 -7l5 -46q0 -7 -9 -11q-14 -4 -29.5 -6.5t-30.5 -2.5q-55 0 -80 24.5t-17 67.5q6 40 37.5 79t88.5 66q5 3 8 1l25 -11q17 -8 0 -17q-40 -25 -57 -49.5t-22 -48.5q-7 -43 40 -43q18 0 30 4z" />
    <glyph glyph-name="tilde" unicode="&#x2dc;" horiz-adv-x="493" 
d="M522 700q10 0 8 -9q-7 -42 -19 -70t-27.5 -44.5t-33.5 -23t-37 -6.5q-23 0 -39.5 13t-29.5 28.5t-25.5 28.5t-27.5 13q-14 0 -26.5 -16t-17.5 -53q-2 -9 -11 -9h-56q-9 0 -7 9q5 39 17 66.5t28.5 45t35.5 25t38 7.5q24 0 39.5 -13t28.5 -28t25 -28t28 -13q15 0 26.5 14
t16.5 54q2 9 11 9h55z" />
    <glyph glyph-name="hungarumlaut" unicode="&#x2dd;" horiz-adv-x="480" 
d="M255 695q5 5 10 5h77q17 0 5 -15l-102 -111q-3 -4 -8 -4h-53q-6 0 -8.5 2.5t1.5 7.5zM423 695q5 5 10 5h75q20 0 5 -15l-110 -111q-4 -4 -8 -4h-53q-5 0 -7 3t3 8z" />
    <glyph glyph-name="uni0326" unicode="&#x326;" horiz-adv-x="290" 
d="M132 -31q11 0 23.5 -3.5t22 -12t15 -22t2.5 -32.5q-5 -29 -27.5 -60t-59.5 -51q-7 -3 -11 1l-16 22q-3 4 -2 8t5 6q17 10 26.5 22t14.5 25q-22 -5 -41.5 8.5t-17.5 40.5q3 25 22.5 36.5t43.5 11.5z" />
    <glyph glyph-name="uni0394" unicode="&#x394;" horiz-adv-x="666" 
d="M431 694q5 6 11 6h23q8 0 8 -6l156 -681q2 -13 -12 -13h-568q-14 0 -7 13zM177 89h347l-91 446z" />
    <glyph glyph-name="uni03A9" unicode="&#x3a9;" horiz-adv-x="824" 
d="M530 713q67 0 123.5 -22t95 -63t55 -101t4.5 -136q-8 -52 -29 -99t-50 -87.5t-64 -75.5t-72 -64l179 18q10 0 9 -10l-10 -63q-2 -10 -11 -10h-281q-8 0 -8 8l-2 22q0 7 5 10q42 26 81 62.5t70.5 80.5t53.5 93.5t31 102.5q11 65 0 112t-37.5 78t-66.5 46t-88 15t-93 -15
t-82.5 -46t-64 -78t-37.5 -112q-9 -53 -3.5 -102.5t22.5 -93.5t43.5 -80.5t60.5 -62.5q5 -5 1 -10l-9 -22q-3 -8 -11 -8h-280q-10 0 -8 10l9 63q1 10 12 10l174 -18q-27 29 -50.5 64t-38.5 75.5t-20.5 87.5t3.5 99q13 76 49.5 136t89 101t116 63t129.5 22z" />
    <glyph glyph-name="uni03BC" unicode="&#x3bc;" horiz-adv-x="519" 
d="M208 440q10 0 8 -10l-35 -209q-13 -75 8 -109t76 -34q26 0 49.5 7t43 23.5t33.5 43t21 66.5l36 212q2 10 11 10h73q10 0 8 -10l-70 -420q-2 -10 -11 -10h-51q-8 0 -8 8l-1 65q-60 -83 -157 -83q-68 0 -99 43l-28 -212q-1 -9 -11 -9h-74q-9 0 -8 9l102 609q2 10 11 10h73z
" />
    <glyph glyph-name="pi" unicode="&#x3c0;" horiz-adv-x="666" 
d="M680 384q-1 -9 -10 -9l-134 -18l-17 -186q-5 -51 7.5 -72t49.5 -21q10 0 23 2t25 4q10 3 12 -7l6 -58q2 -9 -8 -11q-19 -5 -42 -8t-41 -3q-68 0 -99 44t-23 127l19 189h-148l-116 -349q-3 -8 -9 -8h-75q-10 0 -7 12l113 345h-110q-10 0 -8 9l11 64q2 10 10 10h571
q10 0 8 -10z" />
    <glyph glyph-name="Wgrave" unicode="&#x1e80;" horiz-adv-x="1066" 
d="M1127 700q12 0 5 -12l-346 -686q-3 -7 -10 -7h-24q-6 0 -9 6l-130 496l-290 -496q-3 -6 -10 -6h-24q-6 0 -8 7l-117 686q-3 12 8 12h80q8 0 8 -7l81 -493l281 481q4 5 11 5h12q7 0 9 -5l128 -487l249 499q2 7 9 7h87zM698 764q6 -14 -10 -14h-68q-4 0 -7 4l-69 111
q-5 7 -2.5 11t11.5 4h84q4 0 7 -5z" />
    <glyph glyph-name="wgrave" unicode="&#x1e81;" horiz-adv-x="788" 
d="M832 440q7 0 9 -4t-2 -9l-258 -426q-3 -6 -10 -6h-26q-6 0 -8 6l-94 290l-191 -290q-4 -6 -10 -6h-25q-6 0 -8 6l-118 426q-4 13 11 13h84q6 0 9 -6l67 -277l183 278q5 5 10 5h25q6 0 8 -5l91 -278l158 277q5 6 11 6h84zM522 544q6 -14 -10 -14h-68q-4 0 -7 4l-69 111
q-5 7 -2.5 11t11.5 4h84q4 0 7 -5z" />
    <glyph glyph-name="Wacute" unicode="&#x1e82;" horiz-adv-x="1066" 
d="M1127 700q12 0 5 -12l-346 -686q-3 -7 -10 -7h-24q-6 0 -9 6l-130 496l-290 -496q-3 -6 -10 -6h-24q-6 0 -8 7l-117 686q-3 12 8 12h80q8 0 8 -7l81 -493l281 481q4 5 11 5h12q7 0 9 -5l128 -487l249 499q2 7 9 7h87zM714 875q3 5 10 5h82q20 0 5 -15l-106 -111
q-4 -4 -9 -4h-68q-17 0 -5 14z" />
    <glyph glyph-name="wacute" unicode="&#x1e83;" horiz-adv-x="788" 
d="M832 440q7 0 9 -4t-2 -9l-258 -426q-3 -6 -10 -6h-26q-6 0 -8 6l-94 290l-191 -290q-4 -6 -10 -6h-25q-6 0 -8 6l-118 426q-4 13 11 13h84q6 0 9 -6l67 -277l183 278q5 5 10 5h25q6 0 8 -5l91 -278l158 277q5 6 11 6h84zM538 655q3 5 10 5h82q20 0 5 -15l-106 -111
q-4 -4 -9 -4h-68q-17 0 -5 14z" />
    <glyph glyph-name="Wdieresis" unicode="&#x1e84;" horiz-adv-x="1066" 
d="M1127 700q12 0 5 -12l-346 -686q-3 -7 -10 -7h-24q-6 0 -9 6l-130 496l-290 -496q-3 -6 -10 -6h-24q-6 0 -8 7l-117 686q-3 12 8 12h80q8 0 8 -7l81 -493l281 481q4 5 11 5h12q7 0 9 -5l128 -487l249 499q2 7 9 7h87zM578 872q26 0 39 -15.5t9 -41.5q-4 -25 -22 -40.5
t-44 -15.5t-39 15.5t-9 40.5q4 26 21.5 41.5t44.5 15.5zM776 872q26 0 39 -15.5t9 -41.5q-4 -25 -22 -40.5t-44 -15.5t-39 15.5t-9 40.5q4 26 21.5 41.5t44.5 15.5z" />
    <glyph glyph-name="wdieresis" unicode="&#x1e85;" horiz-adv-x="788" 
d="M832 440q7 0 9 -4t-2 -9l-258 -426q-3 -6 -10 -6h-26q-6 0 -8 6l-94 290l-191 -290q-4 -6 -10 -6h-25q-6 0 -8 6l-118 426q-4 13 11 13h84q6 0 9 -6l67 -277l183 278q5 5 10 5h25q6 0 8 -5l91 -278l158 277q5 6 11 6h84zM402 652q26 0 39 -15.5t9 -41.5q-4 -25 -22 -40.5
t-44 -15.5t-39 15.5t-9 40.5q4 26 21.5 41.5t44.5 15.5zM600 652q26 0 39 -15.5t9 -41.5q-4 -25 -22 -40.5t-44 -15.5t-39 15.5t-9 40.5q4 26 21.5 41.5t44.5 15.5z" />
    <glyph glyph-name="Germandbls" unicode="&#x1e9e;" horiz-adv-x="655" 
d="M671 669q-2 -8 -7 -13l-192 -228q52 -3 87 -20t54.5 -45t25 -65t-1.5 -80q-18 -105 -93.5 -161.5t-194.5 -56.5h-83q-10 0 -8 10l12 73q2 9 11 9h73q80 0 125.5 29.5t57.5 99.5q6 38 -1 63t-25 40.5t-45.5 22t-62.5 6.5h-64q-9 0 -9 8v23q0 8 4 12l175 212h-103
q-34 0 -59 -5t-42.5 -18.5t-29 -38.5t-17.5 -64l-79 -472q-2 -10 -12 -10h-78q-10 0 -8 10l79 479q18 109 85 160t180 51h242q10 0 8 -10z" />
    <glyph glyph-name="endash" unicode="&#x2013;" horiz-adv-x="594" 
d="M117 303q2 9 11 9h443q10 0 8 -9l-11 -63q-2 -9 -11 -9h-442q-10 0 -8 9z" />
    <glyph glyph-name="emdash" unicode="&#x2014;" horiz-adv-x="927" 
d="M117 303q2 9 11 9h775q10 0 8 -9l-10 -63q-2 -9 -11 -9h-775q-10 0 -8 9z" />
    <glyph glyph-name="uni2015" unicode="&#x2015;" horiz-adv-x="925" 
d="M51 303q2 9 12 9h904q10 0 8 -9l-10 -63q-2 -9 -11 -9h-905q-10 0 -8 9z" />
    <glyph glyph-name="quoteleft" unicode="&#x2018;" horiz-adv-x="254" 
d="M194 450q-30 0 -47.5 20.5t-11.5 59.5q10 53 35 96t64 80q7 7 12 1l24 -19q10 -5 0 -15q-23 -23 -35 -45t-18 -48q32 0 47 -19.5t10 -45.5q-5 -32 -28.5 -48.5t-51.5 -16.5z" />
    <glyph glyph-name="quoteright" unicode="&#x2019;" horiz-adv-x="254" 
d="M236 712q29 0 46.5 -20.5t10.5 -59.5q-8 -53 -33 -96t-65 -80q-5 -6 -12 -1l-24 19q-9 6 0 15q23 23 35.5 45t17.5 48q-32 0 -47 19.5t-10 45.5q6 32 29 48.5t52 16.5z" />
    <glyph glyph-name="quotesinglbase" unicode="&#x201a;" horiz-adv-x="255" 
d="M139 131q29 0 47 -20.5t12 -59.5q-11 -62 -39 -114.5t-63 -95.5q-5 -5 -13 -2l-34 19q-7 4 -2 13q27 32 42 61t26 67q-32 0 -47 19.5t-10 45.5q5 32 28.5 49.5t52.5 17.5z" />
    <glyph glyph-name="quotedblleft" unicode="&#x201c;" horiz-adv-x="445" 
d="M194 450q-30 0 -47.5 20.5t-11.5 59.5q10 53 35 96t64 80q7 7 12 1l24 -19q10 -5 0 -15q-23 -23 -35 -45t-18 -48q32 0 47 -19.5t10 -45.5q-5 -32 -28.5 -48.5t-51.5 -16.5zM384 450q-29 0 -46.5 20.5t-11.5 59.5q9 53 34.5 96t64.5 80q6 6 12 1l24 -19q10 -5 0 -15
q-23 -23 -35 -45t-18 -48q32 0 47 -19.5t10 -45.5q-5 -32 -28.5 -48.5t-52.5 -16.5z" />
    <glyph glyph-name="quotedblright" unicode="&#x201d;" horiz-adv-x="445" 
d="M427 712q29 0 46.5 -20.5t10.5 -59.5q-8 -53 -33.5 -96t-64.5 -80q-5 -6 -12 -1l-24 19q-10 5 0 15q23 23 35 45t18 48q-32 0 -47 19.5t-10 45.5q5 32 28.5 48.5t52.5 16.5zM236 712q29 0 46.5 -20.5t10.5 -59.5q-8 -53 -33 -96t-65 -80q-5 -6 -12 -1l-24 19q-9 6 0 15
q23 23 35.5 45t17.5 48q-32 0 -47 19.5t-10 45.5q6 32 29 48.5t52 16.5z" />
    <glyph glyph-name="quotedblbase" unicode="&#x201e;" horiz-adv-x="445" 
d="M329 131q30 0 47.5 -20.5t11.5 -59.5q-9 -53 -34.5 -96t-63.5 -80q-8 -6 -13 -1l-24 19q-9 5 1 15q23 23 35 45t17 48q-32 0 -46.5 19.5t-9.5 45.5q5 32 28 48.5t51 16.5zM138 131q30 0 47.5 -20.5t11.5 -59.5q-8 -53 -34 -96t-64 -80q-7 -6 -12 -1l-25 19q-9 5 1 15
q43 45 52 93q-32 0 -46.5 19.5t-9.5 45.5q5 32 28 48.5t51 16.5z" />
    <glyph glyph-name="dagger" unicode="&#x2020;" horiz-adv-x="437" 
d="M375 730q10 0 8 -10l-25 -147h118q10 0 8 -10l-10 -59q-2 -10 -11 -10h-118l-60 -364q-2 -10 -12 -10h-64q-10 0 -8 10l61 364h-118q-11 0 -9 10l10 59q2 10 12 10h118l24 147q2 10 12 10h64z" />
    <glyph glyph-name="daggerdbl" unicode="&#x2021;" horiz-adv-x="438" 
d="M375 730q10 0 8 -10l-26 -151h118q11 0 9 -10l-11 -59q-2 -10 -11 -10h-118l-24 -143h118q11 0 9 -9l-11 -60q-2 -10 -11 -10h-118l-31 -188q-2 -10 -11 -10h-64q-11 0 -9 10l32 188h-118q-10 0 -8 10l10 60q2 9 11 9h118l24 143h-118q-10 0 -8 10l10 59q2 10 11 10h118
l25 151q2 10 12 10h64z" />
    <glyph glyph-name="bullet" unicode="&#x2022;" horiz-adv-x="607" 
d="M362 507q72 0 114.5 -42.5t42.5 -114.5t-42.5 -114.5t-114.5 -42.5t-114.5 42.5t-42.5 114.5t42.5 114.5t114.5 42.5z" />
    <glyph glyph-name="uni2023" unicode="&#x2023;" horiz-adv-x="618" 
d="M514 358q8 -3 8 -8t-8 -8l-262 -143q-14 -7 -14 9v284q0 16 14 9z" />
    <glyph glyph-name="ellipsis" unicode="&#x2026;" horiz-adv-x="784" 
d="M159 131q28 0 45.5 -19t12.5 -51t-29 -51.5t-53 -19.5t-46.5 19.5t-11.5 51.5q5 32 29 51t53 19zM415 131q28 0 45.5 -19t12.5 -51t-29 -51.5t-53 -19.5t-46.5 19.5t-11.5 51.5q5 32 29 51t53 19zM670 131q28 0 45.5 -19t12.5 -51t-29 -51.5t-53 -19.5t-46.5 19.5
t-11.5 51.5q5 32 29 51t53 19z" />
    <glyph glyph-name="perthousand" unicode="&#x2030;" horiz-adv-x="1020" 
d="M297 700q34 0 60 -11.5t42.5 -31.5t23 -48t0.5 -61t-21.5 -61.5t-39 -48.5t-53 -31.5t-63.5 -11.5q-33 0 -59.5 11.5t-43 31.5t-23.5 48.5t-1 61.5t21.5 61t39 48t53.5 31.5t64 11.5zM735 624q6 -7 -2 -13l-652 -567q-8 -6 -13 0l-29 33q-6 7 2 13l651 566q7 7 14 0z
M286 636q-40 0 -67 -23t-34 -65t12.5 -65.5t58.5 -23.5t66 23.5t35 65.5q7 42 -12.5 65t-58.5 23zM522 293q68 0 102.5 -42.5t23.5 -109.5q-5 -33 -21 -61.5t-39 -48.5t-53 -31.5t-64 -11.5q-33 0 -59 11.5t-43 31.5t-23.5 48.5t-1.5 61.5q6 33 21.5 61t39 48.5t53.5 31.5
t64 11zM893 293q68 0 102.5 -42.5t23.5 -109.5q-5 -33 -21 -61.5t-39 -48.5t-53 -31.5t-64 -11.5q-33 0 -59 11.5t-43 31.5t-23.5 48.5t-1.5 61.5q6 33 22 61t39.5 48.5t53.5 31.5t63 11zM511 229q-40 0 -67 -23t-34 -65t12.5 -65t58.5 -23t66.5 23t33.5 65q8 42 -11.5 65
t-58.5 23zM882 229q-40 0 -67 -23t-34 -65q-6 -42 13 -65t59 -23q39 0 66 23t34 65t-12.5 65t-58.5 23z" />
    <glyph glyph-name="minute" unicode="&#x2032;" horiz-adv-x="233" 
d="M226 458q-4 -9 -11 -9h-47q-8 0 -8 9l21 232q0 10 12 10h81q11 0 8 -10z" />
    <glyph glyph-name="second" unicode="&#x2033;" horiz-adv-x="396" 
d="M226 458q-4 -9 -11 -9h-47q-8 0 -8 9l21 232q0 10 12 10h81q11 0 8 -10zM389 458q-2 -9 -11 -9h-47q-8 0 -8 9l21 232q2 10 12 10h81q11 0 8 -10z" />
    <glyph glyph-name="guilsinglleft" unicode="&#x2039;" horiz-adv-x="307" 
d="M97 268q-2 5 2 10l124 157q5 5 10 5h84q19 0 6 -15l-127 -154l71 -150q8 -15 -11 -15h-78q-5 0 -8 5z" />
    <glyph glyph-name="guilsinglright" unicode="&#x203a;" horiz-adv-x="306" 
d="M300 278q2 -6 -2 -10l-124 -157q-2 -5 -10 -5h-84q-17 0 -5 15l128 157l-71 147q-7 15 10 15h77q6 0 9 -5z" />
    <glyph glyph-name="fraction" unicode="&#x2044;" horiz-adv-x="236" 
d="M468 700q17 0 6 -14l-522 -681q-5 -5 -10 -5h-55q-18 0 -7 14l522 681q5 5 10 5h56z" />
    <glyph glyph-name="uni2070" unicode="&#x2070;" horiz-adv-x="373" 
d="M324 830q42 0 70 -16t43.5 -44.5t19 -68t-4.5 -86.5q-8 -48 -25 -87.5t-41.5 -68t-58 -44t-74.5 -15.5q-42 0 -70 15.5t-43 44t-18.5 68t4.5 87.5q8 47 24.5 86.5t41 68t57.5 44.5t75 16zM312 754q-42 0 -66.5 -33.5t-36.5 -105.5t1 -105.5t55 -33.5t67 33.5t37 105.5
t-1.5 105.5t-55.5 33.5z" />
    <glyph glyph-name="uni2074" unicode="&#x2074;" horiz-adv-x="354" 
d="M420 497q-1 -9 -11 -9h-44l-12 -68q-2 -10 -11 -10h-59q-10 0 -8 10l12 68h-179q-9 0 -8 9l4 26q1 1 1 2t1 2l185 287q5 6 10 6h68q8 0 9.5 -4t-3.5 -9l-168 -250h91l13 78q2 10 11 10h59q10 0 8 -10l-13 -78h44q10 0 8 -9z" />
    <glyph glyph-name="uni2075" unicode="&#x2075;" horiz-adv-x="348" 
d="M423 755q-2 -9 -11 -9h-158l-19 -77h43q32 0 59 -7.5t45 -23.5t26.5 -40.5t2.5 -58.5q-4 -29 -18 -54.5t-35.5 -44t-50 -29.5t-63.5 -11q-54 0 -88.5 26t-42.5 77q-2 8 8 11l49 17q11 3 13 -6q5 -27 23 -40.5t47 -13.5q33 0 52.5 17t24.5 47q5 32 -10 48t-57 16h-111
q-10 0 -7 11l49 201q4 9 11 9h219q10 0 8 -10z" />
    <glyph glyph-name="uni2076" unicode="&#x2076;" horiz-adv-x="345" 
d="M373 820q18 0 6 -14l-118 -143q20 10 48 10q27 0 48.5 -9t35.5 -26.5t19.5 -41.5t0.5 -54q-11 -66 -60.5 -104t-118.5 -38q-66 0 -100 34.5t-23 97.5q5 29 18 56t31 51l136 176q5 5 10 5h67zM277 610q-35 0 -57 -19.5t-27 -51.5t9.5 -49t47.5 -17t54.5 18t27.5 52
q5 33 -9 50t-46 17z" />
    <glyph glyph-name="uni2077" unicode="&#x2077;" horiz-adv-x="313" 
d="M153 746q-10 0 -8 9l9 55q2 10 11 10h256q10 0 8 -9l-4 -26q0 -2 -2 -4l-200 -365q-4 -6 -10 -6h-69q-6 0 -8 4t2 9l189 323h-174z" />
    <glyph glyph-name="uni2078" unicode="&#x2078;" horiz-adv-x="342" 
d="M309 830q65 0 95 -29.5t22 -79.5q-5 -32 -26.5 -60t-56.5 -41q39 -13 53 -41.5t9 -63.5q-9 -53 -52 -84t-115 -31t-105 31t-24 83q6 36 30 64.5t67 41.5q-32 13 -43.5 41t-5.5 60q8 50 48 79.5t104 29.5zM298 760q-56 0 -65 -50q-4 -27 8.5 -41.5t38.5 -14.5t43 14.5
t22 41.5q5 26 -8 38t-39 12zM269 589q-67 0 -76 -61q-5 -26 8.5 -41t48.5 -15t52.5 15t22.5 41q11 61 -56 61z" />
    <glyph glyph-name="uni2079" unicode="&#x2079;" horiz-adv-x="345" 
d="M177 410q-18 0 -6 14l118 142q-21 -9 -48 -9q-54 0 -84 35.5t-20 95.5q11 66 60.5 104t118.5 38q66 0 100 -35t23 -98q-5 -29 -18 -56t-31 -50l-136 -176q-5 -5 -10 -5h-67zM273 620q35 0 57 20t27 51q11 66 -57 66q-33 0 -54.5 -18t-27.5 -52q-5 -32 9 -49.5t46 -17.5z
" />
    <glyph glyph-name="uni2080" unicode="&#x2080;" horiz-adv-x="373" 
d="M220 210q42 0 70 -16t43.5 -44.5t19 -68t-4.5 -86.5q-8 -48 -25 -87.5t-41.5 -68t-58 -44t-74.5 -15.5q-42 0 -70 15.5t-43 44t-18.5 68t4.5 87.5q8 47 24.5 86.5t41 68t57.5 44.5t75 16zM208 134q-42 0 -66.5 -33.5t-36.5 -105.5t1 -105.5t55 -33.5t67 33.5t37 105.5
t-1.5 105.5t-55.5 33.5z" />
    <glyph glyph-name="uni2081" unicode="&#x2081;" horiz-adv-x="246" 
d="M220 200q8 0 8 -9l-66 -391q-2 -10 -11 -10h-59q-10 0 -8 10l52 310l-78 -21q-9 -3 -11 7l-6 55q-2 8 9 12l140 37h3h27z" />
    <glyph glyph-name="uni2082" unicode="&#x2082;" horiz-adv-x="336" 
d="M103 83q-6 -9 -15 -6l-43 18q-9 5 -4 13q27 48 71.5 75t100.5 27q60 0 90 -31t21 -85q-7 -40 -31.5 -73t-66.5 -70l-99 -87h150q10 0 8 -9l-10 -55q-2 -10 -11 -10h-265q-10 0 -8 10l4 23q0 3 4 7l177 164q32 29 47.5 50.5t19.5 44.5q4 24 -8.5 37.5t-41.5 13.5
t-51.5 -15t-38.5 -42z" />
    <glyph glyph-name="uni2083" unicode="&#x2083;" horiz-adv-x="349" 
d="M125 -34q-9 0 -8 9l7 44q2 10 12 10h31q29 0 52.5 16t28.5 45q9 50 -50 50q-60 0 -91 -55q-7 -9 -13 -6l-45 22q-9 4 -4 12q22 45 60.5 71t98.5 26q70 0 102.5 -32.5t24.5 -80.5q-6 -38 -30 -62t-58 -35q38 -10 52.5 -40t8.5 -66q-8 -53 -49.5 -83.5t-109.5 -30.5
q-56 0 -95.5 26t-48.5 77q-2 7 8 11l53 18q9 5 11 -6q12 -55 75 -55q68 0 77 56q9 59 -68 59h-32z" />
    <glyph glyph-name="uni2084" unicode="&#x2084;" horiz-adv-x="354" 
d="M316 -123q-1 -9 -11 -9h-44l-12 -68q-2 -10 -11 -10h-59q-10 0 -8 10l12 68h-179q-9 0 -8 9l4 26q1 1 1 2t1 2l185 287q5 6 10 6h68q8 0 9.5 -4t-3.5 -9l-168 -250h91l13 78q2 10 11 10h59q10 0 8 -10l-13 -78h44q10 0 8 -9z" />
    <glyph glyph-name="uni2085" unicode="&#x2085;" horiz-adv-x="348" 
d="M319 135q-2 -9 -11 -9h-158l-19 -77h43q32 0 59 -7.5t45 -23.5t26.5 -40.5t2.5 -58.5q-4 -29 -18 -54.5t-35.5 -44t-50 -29.5t-63.5 -11q-54 0 -88.5 26t-42.5 77q-2 8 8 11l49 17q11 3 13 -6q5 -27 23 -40.5t47 -13.5q33 0 52.5 17t24.5 47q5 32 -10 48t-57 16h-111
q-10 0 -7 11l49 201q4 9 11 9h219q10 0 8 -10z" />
    <glyph glyph-name="uni2086" unicode="&#x2086;" horiz-adv-x="345" 
d="M269 200q18 0 6 -14l-118 -143q20 10 48 10q27 0 48.5 -9t35.5 -26.5t19.5 -41.5t0.5 -54q-11 -66 -60.5 -104t-118.5 -38q-66 0 -100 34.5t-23 97.5q5 29 18 56t31 51l136 176q5 5 10 5h67zM173 -10q-35 0 -57 -19.5t-27 -51.5t9.5 -49t47.5 -17t54.5 18t27.5 52
q5 33 -9 50t-46 17z" />
    <glyph glyph-name="uni2087" unicode="&#x2087;" horiz-adv-x="313" 
d="M49 126q-10 0 -8 9l9 55q2 10 11 10h256q10 0 8 -9l-4 -26q0 -2 -2 -4l-200 -365q-4 -6 -10 -6h-69q-6 0 -8 4t2 9l189 323h-174z" />
    <glyph glyph-name="uni2088" unicode="&#x2088;" horiz-adv-x="342" 
d="M205 210q65 0 95 -29.5t22 -79.5q-5 -32 -26.5 -60t-56.5 -41q39 -13 53 -41.5t9 -63.5q-9 -53 -52 -84t-115 -31t-105 31t-24 83q6 36 30 64.5t67 41.5q-32 13 -43.5 41t-5.5 60q8 50 48 79.5t104 29.5zM194 140q-56 0 -65 -50q-4 -27 8.5 -41.5t38.5 -14.5t43 14.5
t22 41.5q5 26 -8 38t-39 12zM165 -31q-67 0 -76 -61q-5 -26 8.5 -41t48.5 -15t52.5 15t22.5 41q11 61 -56 61z" />
    <glyph glyph-name="uni2089" unicode="&#x2089;" horiz-adv-x="345" 
d="M73 -210q-18 0 -6 14l118 142q-21 -9 -48 -9q-54 0 -84 35.5t-20 95.5q11 66 60.5 104t118.5 38q66 0 100 -35t23 -98q-5 -29 -18 -56t-31 -50l-136 -176q-5 -5 -10 -5h-67zM169 0q35 0 57 20t27 51q11 66 -57 66q-33 0 -54.5 -18t-27.5 -52q-5 -32 9 -49.5t46 -17.5z
" />
    <glyph glyph-name="Euro" unicode="&#x20ac;" horiz-adv-x="586" 
d="M104 375q-10 0 -8 10l9 55q2 9 12 9h54q34 121 104.5 186t174.5 65q69 0 119.5 -28.5t74.5 -83.5q3 -8 -5 -13l-57 -33q-9 -6 -13 4q-18 38 -48 55.5t-71 17.5q-67 0 -113.5 -41.5t-69.5 -128.5h252q13 0 7 -12l-27 -55q-2 -7 -9 -7h-386zM81 239q-9 0 -7 10l9 55
q2 9 10 9h367q13 0 8 -12l-27 -55q-3 -7 -10 -7h-197q-5 -85 27 -127t97 -42q80 0 142 78q7 9 14 4l47 -38q7 -6 1 -13q-41 -57 -93 -85t-120 -28q-102 0 -158 66.5t-53 184.5h-57z" />
    <glyph glyph-name="uni20BA" unicode="&#x20ba;" horiz-adv-x="692" 
d="M108 384q-13 -5 -11 9l8 49q2 6 9 8l110 38l34 202q2 10 11 10h74q10 0 8 -10l-29 -169l221 71q7 2 10 -1t2 -9l-9 -49q0 -7 -8 -9zM81 292q2 7 7 9l429 139q14 5 12 -9l-9 -49q-2 -8 -9 -9l-226 -72l-35 -211q17 -3 36.5 -5t36.5 -2q50 0 96 13.5t83.5 44t65 80.5
t40.5 122q2 10 11 8l72 -10q9 -1 7 -9q-16 -90 -50.5 -154.5t-85 -106.5t-115 -61.5t-140.5 -19.5q-33 0 -75.5 6.5t-78.5 17.5q-8 2 -6 9l40 244l-104 -33q-12 -4 -10 8z" />
    <glyph glyph-name="uni20BD" unicode="&#x20bd;" horiz-adv-x="603" 
d="M218 690q2 10 12 10h218q116 0 169 -53t36 -155t-88 -157t-187 -55h-290q-10 0 -8 10l12 67q2 10 10 10h62zM262 367h122q80 0 118.5 29.5t49.5 95.5t-19 95.5t-111 29.5h-118zM64 189q2 9 10 9h364q10 0 8 -9l-9 -55q-2 -10 -11 -10h-204l-19 -114q-2 -10 -11 -10h-79
q-10 0 -8 10l19 114h-62q-10 0 -8 10z" />
    <glyph glyph-name="uni2113" unicode="&#x2113;" horiz-adv-x="490" 
d="M91 236q-10 0 -10 9v30q0 8 10 10q29 2 54 6q4 202 58 305t137 103q48 0 74.5 -33.5t26.5 -98.5q0 -107 -52.5 -184.5t-148.5 -115.5q1 -61 9 -101.5t21 -64.5t31.5 -33.5t40.5 -9.5q17 0 35.5 5.5t35.5 16.5q9 5 14 -5l19 -39q3 -9 -4 -13q-27 -19 -59 -27t-61 -8
q-89 0 -131 67t-46 186q-13 -2 -26 -3t-28 -2zM240 322q70 33 109.5 96t39.5 159q0 36 -13 53t-36 17q-51 0 -74.5 -82.5t-25.5 -242.5z" />
    <glyph glyph-name="uni2116" unicode="&#x2116;" horiz-adv-x="1111" 
d="M733 700q9 0 7 -10l-114 -685q-2 -10 -11 -10h-20q-7 0 -12 6l-323 497l-81 -488q-2 -10 -12 -10h-78q-10 0 -8 10l114 685q2 10 11 10h21q5 0 9 -6l325 -497l81 488q2 10 12 10h79zM1027 702q35 0 62 -12t44.5 -33t25 -49.5t1.5 -62.5t-22.5 -63t-41.5 -50t-56 -32.5
t-66 -11.5q-34 0 -61 11.5t-45 32.5t-25 50t-1 63t22.5 62.5t41.5 49.5t56 33t65 12zM1015 630q-35 0 -62.5 -23.5t-33.5 -61.5t13 -62t54 -24q36 0 63.5 24t33.5 62t-13 61.5t-55 23.5zM800 237q-10 0 -8 9l10 56q2 9 10 9h299q11 0 9 -9l-9 -56q-2 -9 -12 -9h-299z" />
    <glyph glyph-name="trademark" unicode="&#x2122;" horiz-adv-x="616" 
d="M356 700q9 0 7 -10l-5 -35q-2 -9 -12 -9h-63l-31 -186q-2 -10 -12 -10h-40q-10 0 -8 10l31 186h-64q-9 0 -7 9l5 35q2 10 12 10h187zM682 700q9 0 7 -10l-38 -230q-2 -10 -11 -10h-41q-10 0 -8 10l24 140l-85 -102q-5 -5 -12 -5t-9 5l-53 102l-24 -140q-2 -10 -11 -10
h-41q-9 0 -7 10l38 230q2 10 11 10h40q3 0 7 -4l62 -121l102 121q4 4 9 4h40z" />
    <glyph glyph-name="uni2126" unicode="&#x2126;" horiz-adv-x="824" 
d="M530 713q67 0 123.5 -22t95 -63t55 -101t4.5 -136q-8 -52 -29 -99t-50 -87.5t-64 -75.5t-72 -64l179 18q10 0 9 -10l-10 -63q-2 -10 -11 -10h-281q-8 0 -8 8l-2 22q0 7 5 10q42 26 81 62.5t70.5 80.5t53.5 93.5t31 102.5q11 65 0 112t-37.5 78t-66.5 46t-88 15t-93 -15
t-82.5 -46t-64 -78t-37.5 -112q-9 -53 -3.5 -102.5t22.5 -93.5t43.5 -80.5t60.5 -62.5q5 -5 1 -10l-9 -22q-3 -8 -11 -8h-280q-10 0 -8 10l9 63q1 10 12 10l174 -18q-27 29 -50.5 64t-38.5 75.5t-20.5 87.5t3.5 99q13 76 49.5 136t89 101t116 63t129.5 22z" />
    <glyph glyph-name="estimated" unicode="&#x212e;" horiz-adv-x="758" 
d="M755 301q0 -7 -3.5 -12.5t-8.5 -5.5h-522v-170q18 -20 42.5 -36t53 -27.5t59 -18t60.5 -6.5q33 0 66.5 7.5t65 21.5t59 33t46.5 43q6 8 14 2l9 -7q7 -5 1 -13q-47 -51 -115 -81.5t-148 -30.5q-70 0 -130 24t-103.5 65t-68 97t-24.5 119q0 64 24.5 119.5t68 97t103 65.5
t128.5 24q70 0 129.5 -25t102.5 -67t67 -98.5t24 -119.5zM638 501q-35 37 -89 59.5t-114 22.5q-31 0 -62.5 -6.5t-59.5 -17.5t-51.5 -26.5t-40.5 -32.5v-189h417v190z" />
    <glyph glyph-name="arrowleft" unicode="&#x2190;" horiz-adv-x="864" 
d="M826 241q0 -9 -9 -9h-531l240 -241q5 -5 2 -9t-8 -4h-106q-4 0 -7 3l-279 291q-7 6 0 13l279 290q3 3 7 3h106q5 0 8 -4t-2 -9l-240 -241h531q9 0 9 -9v-74z" />
    <glyph glyph-name="arrowup" unicode="&#x2191;" horiz-adv-x="774" 
d="M746 426q3 -3 3 -6v-106q0 -5 -5 -8t-9 1l-240 240v-538q0 -9 -10 -9h-73q-9 0 -9 9v538l-241 -240q-4 -4 -8.5 -1t-4.5 8v106q0 2 2 6l291 279q7 7 13 0z" />
    <glyph glyph-name="arrowright" unicode="&#x2192;" horiz-adv-x="864" 
d="M551 -19q-3 -3 -7 -3h-106q-5 0 -7.5 4.5t1.5 8.5l240 241h-531q-9 0 -9 9v74q0 9 9 9h531l-240 241q-4 4 -1.5 8.5t7.5 4.5h106q4 0 7 -3l279 -290q6 -7 0 -13z" />
    <glyph glyph-name="arrowdown" unicode="&#x2193;" horiz-adv-x="775" 
d="M480 700q10 0 10 -9v-537l240 240q5 5 9.5 2t4.5 -9v-106q0 -3 -3 -6l-291 -279q-6 -7 -13 0l-291 279q-2 4 -2 6v106q0 6 4 9t9 -2l241 -240v537q0 9 9 9h73z" />
    <glyph glyph-name="arrowboth" unicode="&#x2194;" horiz-adv-x="1183" 
d="M1148 285q7 -7 0 -13l-274 -286q-3 -3 -7 -3h-106q-5 0 -7.5 4.5t1.5 8.5l235 236h-704l236 -236q4 -5 1.5 -9t-8.5 -4h-106q-4 0 -7 3l-274 286q-7 6 0 13l274 285q3 3 7 3h106q6 0 8.5 -4t-1.5 -9l-236 -236h704l-235 236q-4 4 -1.5 8.5t7.5 4.5h106q4 0 7 -3z" />
    <glyph glyph-name="arrowupdn" unicode="&#x2195;" horiz-adv-x="859" 
d="M481 810q7 7 13 0l286 -274q3 -3 3 -6l-1 -106q0 -5 -4.5 -8t-8.5 1l-236 235v-613l236 235q5 5 9 2t4 -9l1 -106q0 -3 -3 -6l-286 -275q-6 -5 -13 0l-286 275q-3 3 -3 6v106q0 6 4.5 9t8.5 -2l236 -235v613l-236 -235q-3 -4 -8 -1t-5 8v106q0 3 3 6z" />
    <glyph glyph-name="uni2196" unicode="&#x2196;" horiz-adv-x="786" 
d="M202 589q0 10 9 10l403 8q4 0 7 -3l75 -75q3 -4 2 -8.5t-6 -4.5l-341 -1l375 -375q7 -7 0 -13l-52 -52q-6 -6 -13 0l-375 375v-339q0 -6 -5 -8t-9 2l-75 75q-3 3 -3 7z" />
    <glyph glyph-name="uni2197" unicode="&#x2197;" horiz-adv-x="743" 
d="M653 599q9 0 9 -10l9 -402q0 -4 -3 -7l-75 -75q-4 -4 -9 -2t-5 8v339l-376 -375q-6 -7 -13 0l-52 52q-6 6 0 13l376 375l-341 1q-5 0 -6 5t2 8l75 75q3 3 6 3z" />
    <glyph glyph-name="uni2198" unicode="&#x2198;" horiz-adv-x="786" 
d="M225 601q6 6 13 0l375 -376v339q0 6 5 8t9 -2l75 -75q3 -3 3 -6l-8 -403q0 -10 -10 -10l-403 -8q-3 0 -6 3l-75 75q-3 3 -2 8t6 5l341 1l-376 375q-6 7 0 13z" />
    <glyph glyph-name="uni2199" unicode="&#x2199;" horiz-adv-x="743" 
d="M203 76q-9 0 -9 10l-9 403q0 3 3 6l75 75q4 4 9 2t5 -8v-339l376 376q6 6 13 0l52 -53q6 -6 0 -13l-376 -375l341 -1q6 0 7 -4.5t-3 -8.5l-75 -75q-3 -3 -6 -3z" />
    <glyph glyph-name="partialdiff" unicode="&#x2202;" horiz-adv-x="593" 
d="M357 433q53 0 96.5 -19.5t66.5 -54.5q5 18 9.5 35.5t6.5 33.5q9 51 8.5 90t-13 66t-38 40.5t-67.5 13.5q-26 0 -56.5 -8t-61.5 -24q-10 -4 -13 5l-22 52q-3 8 7 12q42 22 83.5 30t81.5 8q56 0 96 -21t62.5 -59.5t27.5 -92t-9 -119.5q-16 -80 -48 -157.5t-80.5 -139
t-114 -99t-148.5 -37.5q-42 0 -74 15.5t-53 42.5t-29 64t-2 80q8 54 33 98.5t63 77t86 50t102 17.5zM351 359q-40 0 -73 -13t-58.5 -35.5t-41.5 -54t-21 -68.5q-8 -61 18.5 -92t75.5 -31q40 0 75.5 17t65.5 45.5t54 66t42 77.5q-13 38 -48 63t-89 25z" />
    <glyph glyph-name="uni2206" unicode="&#x2206;" horiz-adv-x="666" 
d="M431 694q5 6 11 6h23q8 0 8 -6l156 -681q2 -13 -12 -13h-568q-14 0 -7 13zM177 89h347l-91 446z" />
    <glyph glyph-name="product" unicode="&#x220f;" horiz-adv-x="668" 
d="M697 700q10 0 8 -10l-137 -820q-2 -9 -10 -9h-78q-10 0 -8 9l124 741h-319l-124 -741q-2 -9 -10 -9h-77q-11 0 -9 9l137 820q2 10 12 10h491z" />
    <glyph glyph-name="summation" unicode="&#x2211;" horiz-adv-x="654" 
d="M699 621q-2 -10 -10 -10h-382l182 -302q5 -7 3 -16l-4 -25q-1 -8 -7 -15l-278 -304h375q10 0 8 -10l-12 -69q-2 -10 -10 -10h-514q-10 0 -8 10l2 21q1 5 5 15t12 18l331 368l-218 361q-2 3 -3 8t0 10l3 19q2 10 12 10h518q9 0 7 -10z" />
    <glyph glyph-name="minus" unicode="&#x2212;" horiz-adv-x="594" 
d="M583 242q-1 -9 -11 -9h-472q-9 0 -8 9l10 61q2 9 11 9h472q10 0 8 -9z" />
    <glyph glyph-name="radical" unicode="&#x221a;" horiz-adv-x="673" 
d="M83 253q-3 10 6 14l73 24q9 3 12 -4l95 -317l401 797q4 7 10 7h73q14 0 7 -13l-483 -948q-2 -7 -9 -7h-25q-6 0 -8 5z" />
    <glyph glyph-name="infinity" unicode="&#x221e;" horiz-adv-x="805" 
d="M302 488q33 0 60 -9t49 -24.5t39.5 -36t30.5 -42.5q38 40 82.5 69.5t102.5 29.5q36 0 64.5 -12.5t47.5 -34.5t26.5 -52.5t1.5 -66.5q-12 -72 -60 -117t-124 -45q-32 0 -57.5 7.5t-45.5 20.5t-35.5 30t-27.5 36q-18 -21 -40 -40.5t-46.5 -34t-52.5 -23.5t-60 -9
q-39 0 -69.5 14t-51 37.5t-29 55.5t-4.5 68q5 38 21.5 71t42.5 57t60.5 37.5t74.5 13.5zM302 409q-43 0 -71.5 -27t-33.5 -71q-5 -41 12.5 -68.5t63.5 -27.5q33 0 67 22t79 71q-31 59 -57.5 80t-59.5 21zM517 311q10 -18 20.5 -33.5t23 -27t28 -18t34.5 -6.5q35 0 59.5 22.5
t31.5 65.5q6 38 -8 60t-50 22q-40 0 -72.5 -24.5t-66.5 -60.5z" />
    <glyph glyph-name="integral" unicode="&#x222b;" horiz-adv-x="303" 
d="M396 744q-2 -9 -11 -9q-53 -2 -77.5 -26.5t-30.5 -81.5l-68 -646q-8 -84 -58 -132.5t-144 -48.5q-9 0 -7 10l7 46q2 9 12 9q95 6 107 103l70 656q10 87 60.5 131.5t139.5 44.5q10 0 8 -10z" />
    <glyph glyph-name="approxequal" unicode="&#x2248;" horiz-adv-x="578" 
d="M591 434q8 -2 7 -9q-14 -62 -50.5 -102t-97.5 -40q-43 0 -70 18t-49 38q-18 17 -37 30t-44 13q-28 0 -44 -19t-25 -57q-2 -12 -12 -10l-58 11q-8 2 -7 9q14 63 51 102.5t98 39.5q42 0 70 -18t54 -44q14 -13 31.5 -25t43.5 -12q29 0 44.5 19.5t24.5 57.5q2 11 13 9z
M553 206q8 -2 6 -8q-13 -63 -49 -103t-98 -40q-43 0 -70 18t-50 38q-18 17 -36 30t-43 13q-53 0 -70 -76q-2 -12 -13 -10l-58 11q-6 2 -5 9q13 63 50 102.5t97 39.5q43 0 70.5 -18t54.5 -44q14 -13 31.5 -25t43.5 -12q29 0 44.5 19.5t23.5 57.5q2 11 14 9z" />
    <glyph glyph-name="notequal" unicode="&#x2260;" horiz-adv-x="593" 
d="M600 349q-2 -10 -11 -10h-157l-93 -135h227q10 0 8 -9l-10 -59q-2 -10 -11 -10h-267l-91 -135q-3 -5 -9 -5h-62q-16 0 -6 15l85 125h-121q-10 0 -8 10l11 59q2 9 10 9h161l92 135h-230q-10 0 -8 10l9 58q2 10 12 10h270l90 132q3 5 8 5h63q14 0 6 -15l-84 -122h118
q9 0 7 -10z" />
    <glyph glyph-name="lessequal" unicode="&#x2264;" horiz-adv-x="581" 
d="M550 123q-4 -14 -16 -8l-424 202q-5 4 -4 9l4 24q2 6 7 10l492 202q16 7 12 -9l-12 -71q0 -6 -7 -10l-348 -134l303 -133q5 -2 5 -10zM535 91q9 0 7 -10l-10 -64q-2 -10 -11 -10h-454q-9 0 -7 10l10 64q2 10 11 10h454z" />
    <glyph glyph-name="greaterequal" unicode="&#x2265;" horiz-adv-x="580" 
d="M84 115q-6 -3 -9.5 -0.5t-1.5 8.5l11 72q2 7 7 10l348 133l-303 134q-4 3 -4 10l12 71q1 7 5.5 9.5t9.5 -0.5l424 -202q6 -3 4 -10l-4 -24q-2 -7 -7 -9zM65 81q2 10 12 10h453q10 0 8 -10l-10 -64q-2 -10 -12 -10h-453q-10 0 -8 10z" />
    <glyph glyph-name="house" unicode="&#x2302;" horiz-adv-x="825" 
d="M445 695q6 6 11 0l288 -242q4 -3 4 -8v-436q0 -9 -9 -9h-577q-9 0 -9 9v436q0 5 4 8zM218 424v-361h465v361l-232 193z" />
    <glyph glyph-name="uni2460" unicode="&#x2460;" horiz-adv-x="1133" 
d="M625 831q105 0 193 -35.5t151.5 -99t99.5 -152t36 -194.5t-36 -194t-99.5 -152t-151.5 -99.5t-193 -35.5t-193 35.5t-151.5 99.5t-99.5 152t-36 194t36 194.5t99.5 152t151.5 99t193 35.5zM625 760q-92 0 -166.5 -30.5t-127 -85t-81 -130t-28.5 -164.5t28.5 -164t81 -130
t127 -85.5t166.5 -30.5t166.5 30.5t127 85.5t81 130t28.5 164t-28.5 164.5t-81 130t-127 85t-166.5 30.5zM667 612q10 0 10 -9v-532q0 -9 -10 -9h-71q-10 0 -10 9v444l-106 -33q-9 -3 -12 7l-18 60q-3 9 7 12l182 51h28z" />
    <glyph glyph-name="uni2461" unicode="&#x2461;" horiz-adv-x="1133" 
d="M625 831q105 0 193 -35.5t151.5 -99t99.5 -152t36 -194.5t-36 -194t-99.5 -152t-151.5 -99.5t-193 -35.5t-193 35.5t-151.5 99.5t-99.5 152t-36 194t36 194.5t99.5 152t151.5 99t193 35.5zM625 760q-92 0 -166.5 -30.5t-127 -85t-81 -130t-28.5 -164.5t28.5 -164t81 -130
t127 -85.5t166.5 -30.5t166.5 30.5t127 85.5t81 130t28.5 164t-28.5 164.5t-81 130t-127 85t-166.5 30.5zM506 473q-5 -8 -12 -5l-61 21q-8 4 -5 12q23 66 74.5 102t126.5 36q80 0 126 -40.5t46 -111.5q0 -22 -5 -42.5t-16 -42.5t-30 -46.5t-47 -54.5l-128 -136h217
q9 0 9 -9v-68q0 -9 -9 -9h-353q-9 0 -9 9v24q0 3 2 7l205 229q38 43 54.5 72t16.5 63q0 73 -86 73q-85 0 -116 -83z" />
    <glyph glyph-name="uni2462" unicode="&#x2462;" horiz-adv-x="1133" 
d="M625 831q105 0 193 -35.5t151.5 -99t99.5 -152t36 -194.5t-36 -194t-99.5 -152t-151.5 -99.5t-193 -35.5t-193 35.5t-151.5 99.5t-99.5 152t-36 194t36 194.5t99.5 152t151.5 99t193 35.5zM625 760q-92 0 -166.5 -30.5t-127 -85t-81 -130t-28.5 -164.5t28.5 -164t81 -130
t127 -85.5t166.5 -30.5t166.5 30.5t127 85.5t81 130t28.5 164t-28.5 164.5t-81 130t-127 85t-166.5 30.5zM557 313q-9 0 -9 9v58q0 9 9 9h46q42 0 73.5 21.5t31.5 65.5q0 37 -22.5 55t-63.5 18q-46 0 -75 -22t-43 -61q-3 -9 -12 -7l-61 21q-8 3 -6 12q21 66 74 102t132 36
q84 0 128.5 -38.5t44.5 -101.5q0 -50 -27.5 -85.5t-70.5 -49.5q54 -12 82 -48.5t28 -85.5q0 -34 -13.5 -63.5t-39 -51t-61.5 -34t-80 -12.5q-75 0 -127 35.5t-75 103.5q-4 7 6 11l61 23q10 3 12 -6q14 -41 44 -63.5t78 -22.5t73.5 22.5t25.5 63.5q0 42 -28.5 64t-88.5 22
h-46z" />
    <glyph glyph-name="uni2463" unicode="&#x2463;" horiz-adv-x="1133" 
d="M625 831q105 0 193 -35.5t151.5 -99t99.5 -152t36 -194.5t-36 -194t-99.5 -152t-151.5 -99.5t-193 -35.5t-193 35.5t-151.5 99.5t-99.5 152t-36 194t36 194.5t99.5 152t151.5 99t193 35.5zM625 760q-92 0 -166.5 -30.5t-127 -85t-81 -130t-28.5 -164.5t28.5 -164t81 -130
t127 -85.5t166.5 -30.5t166.5 30.5t127 85.5t81 130t28.5 164t-28.5 164.5t-81 130t-127 85t-166.5 30.5zM825 195q0 -9 -9 -9h-68v-100q0 -10 -9 -10h-73q-10 0 -10 10v100h-249q-9 0 -9 9v26q0 3 1 4l193 397q3 6 9 6h84q6 0 8.5 -4t-0.5 -10l-181 -344h144v110
q0 10 10 10h73q9 0 9 -10v-110h68q9 0 9 -10v-65z" />
    <glyph glyph-name="uni2464" unicode="&#x2464;" horiz-adv-x="1133" 
d="M625 831q105 0 193 -35.5t151.5 -99t99.5 -152t36 -194.5t-36 -194t-99.5 -152t-151.5 -99.5t-193 -35.5t-193 35.5t-151.5 99.5t-99.5 152t-36 194t36 194.5t99.5 152t151.5 99t193 35.5zM625 760q-92 0 -166.5 -30.5t-127 -85t-81 -130t-28.5 -164.5t28.5 -164t81 -130
t127 -85.5t166.5 -30.5t166.5 30.5t127 85.5t81 130t28.5 164t-28.5 164.5t-81 130t-127 85t-166.5 30.5zM779 541q0 -9 -9 -9h-217l-9 -118h67q41 0 78 -9.5t64.5 -30t44 -52.5t16.5 -78q0 -39 -12.5 -72.5t-36.5 -58.5t-59.5 -39t-81.5 -14q-69 0 -120.5 33.5t-74.5 104.5
q-3 8 5 12l60 21q9 3 12 -5q27 -82 118 -82q48 0 72 24t24 69q0 48 -27 72t-90 24h-144q-11 0 -9 10l21 272q2 9 9 9h290q9 0 9 -10v-73z" />
    <glyph glyph-name="uni2465" unicode="&#x2465;" horiz-adv-x="1133" 
d="M625 831q105 0 193 -35.5t151.5 -99t99.5 -152t36 -194.5t-36 -194t-99.5 -152t-151.5 -99.5t-193 -35.5t-193 35.5t-151.5 99.5t-99.5 152t-36 194t36 194.5t99.5 152t151.5 99t193 35.5zM625 760q-92 0 -166.5 -30.5t-127 -85t-81 -130t-28.5 -164.5t28.5 -164t81 -130
t127 -85.5t166.5 -30.5t166.5 30.5t127 85.5t81 130t28.5 164t-28.5 164.5t-81 130t-127 85t-166.5 30.5zM704 627q17 0 8 -15l-132 -196q29 15 68 15q36 0 67 -12t53.5 -35t35.5 -55t13 -73q0 -43 -15 -78t-41.5 -60t-64 -38t-82.5 -13q-43 0 -78 12.5t-60 35t-38.5 55.5
t-13.5 73q0 38 11 74t31 68l146 238q4 4 8 4h84zM627 352q-53 0 -80.5 -28t-27.5 -76q0 -46 25.5 -70.5t73.5 -24.5q49 0 77 26.5t28 77.5q0 48 -25 71.5t-71 23.5z" />
    <glyph glyph-name="uni2466" unicode="&#x2466;" horiz-adv-x="1133" 
d="M625 831q105 0 193 -35.5t151.5 -99t99.5 -152t36 -194.5t-36 -194t-99.5 -152t-151.5 -99.5t-193 -35.5t-193 35.5t-151.5 99.5t-99.5 152t-36 194t36 194.5t99.5 152t151.5 99t193 35.5zM625 760q-92 0 -166.5 -30.5t-127 -85t-81 -130t-28.5 -164.5t28.5 -164t81 -130
t127 -85.5t166.5 -30.5t166.5 30.5t127 85.5t81 130t28.5 164t-28.5 164.5t-81 130t-127 85t-166.5 30.5zM451 504q-9 0 -9 9v70q0 10 9 10h344q9 0 9 -10v-21q0 -8 -2 -12l-194 -502q-2 -5 -9 -5h-80q-14 0 -9 13l189 448h-248z" />
    <glyph glyph-name="uni2467" unicode="&#x2467;" horiz-adv-x="1133" 
d="M625 831q105 0 193 -35.5t151.5 -99t99.5 -152t36 -194.5t-36 -194t-99.5 -152t-151.5 -99.5t-193 -35.5t-193 35.5t-151.5 99.5t-99.5 152t-36 194t36 194.5t99.5 152t151.5 99t193 35.5zM625 760q-92 0 -166.5 -30.5t-127 -85t-81 -130t-28.5 -164.5t28.5 -164t81 -130
t127 -85.5t166.5 -30.5t166.5 30.5t127 85.5t81 130t28.5 164t-28.5 164.5t-81 130t-127 85t-166.5 30.5zM620 630q86 0 130.5 -40t44.5 -105q0 -44 -22 -80.5t-68 -52.5q55 -15 81 -53.5t26 -86.5q0 -69 -49.5 -110.5t-142.5 -41.5q-94 0 -143.5 41.5t-49.5 110.5
q0 48 26 86.5t82 53.5q-47 16 -69 52.5t-22 80.5q0 65 44.5 105t131.5 40zM620 548q-39 0 -61 -17.5t-22 -57.5q0 -42 22.5 -61t60.5 -19q37 0 59.5 19t22.5 61q0 40 -22 57.5t-60 17.5zM620 314q-98 0 -98 -86q0 -83 98 -83q97 0 97 83q0 86 -97 86z" />
    <glyph glyph-name="uni2468" unicode="&#x2468;" horiz-adv-x="1133" 
d="M625 831q105 0 193 -35.5t151.5 -99t99.5 -152t36 -194.5t-36 -194t-99.5 -152t-151.5 -99.5t-193 -35.5t-193 35.5t-151.5 99.5t-99.5 152t-36 194t36 194.5t99.5 152t151.5 99t193 35.5zM625 760q-92 0 -166.5 -30.5t-127 -85t-81 -130t-28.5 -164.5t28.5 -164t81 -130
t127 -85.5t166.5 -30.5t166.5 30.5t127 85.5t81 130t28.5 164t-28.5 164.5t-81 130t-127 85t-166.5 30.5zM539 59q-16 0 -8 14l131 197q-28 -14 -67 -14q-36 0 -67.5 12t-54 35t-35.5 55.5t-13 72.5q0 43 14.5 78t41 59.5t63 37.5t81.5 13q44 0 79.5 -12t61 -35t39.5 -55
t14 -73q0 -38 -12 -74.5t-30 -67.5l-145 -239q-4 -4 -9 -4h-84zM615 334q54 0 81 29t27 76q0 46 -25.5 70t-73.5 24q-49 0 -77.5 -26.5t-28.5 -77.5q0 -48 26 -71.5t71 -23.5z" />
    <glyph glyph-name="uni24D5" unicode="&#x24d5;" horiz-adv-x="887" 
d="M502 734q83 0 153.5 -28t121.5 -78.5t80 -121t29 -156.5t-29 -157t-80 -121.5t-121.5 -78.5t-153.5 -28q-82 0 -152.5 28t-122 78.5t-80.5 121.5t-29 157t29 156.5t80.5 121t122 78.5t152.5 28zM502 678q-72 0 -131 -24t-102 -67.5t-66.5 -104t-23.5 -132.5t23.5 -132.5
t66.5 -104t102 -68t131 -24.5t131.5 24.5t102.5 68t66.5 104t23.5 132.5t-23.5 132.5t-66.5 104t-102.5 67.5t-131.5 24zM595 353q0 -9 -9 -9h-77v-205q0 -10 -9 -10h-52q-9 0 -9 10v205h-53q-9 0 -9 9v43q0 10 9 10h53v27q0 60 29 94.5t82 34.5q49 0 94 -22q8 -2 4 -12
l-17 -35q-6 -8 -13 -4q-28 14 -57 14q-28 0 -40 -20.5t-12 -52.5v-24h77q9 0 9 -10v-43z" />
    <glyph glyph-name="uni24E3" unicode="&#x24e3;" horiz-adv-x="887" 
d="M502 734q83 0 153.5 -28t121.5 -78.5t80 -121t29 -156.5t-29 -157t-80 -121.5t-121.5 -78.5t-153.5 -28q-82 0 -152.5 28t-122 78.5t-80.5 121.5t-29 157t29 156.5t80.5 121t122 78.5t152.5 28zM502 678q-72 0 -131 -24t-102 -67.5t-66.5 -104t-23.5 -132.5t23.5 -132.5
t66.5 -104t102 -68t131 -24.5t131.5 24.5t102.5 68t66.5 104t23.5 132.5t-23.5 132.5t-66.5 104t-102.5 67.5t-131.5 24zM503 522q9 0 9 -10v-61h85q9 0 9 -9v-43q0 -10 -9 -10h-85v-117q0 -26 8 -36t33 -10q12 0 23.5 3.5t23.5 9.5q9 7 14 -4l18 -37q4 -7 -4 -12
q-20 -11 -43.5 -18t-49.5 -7q-49 0 -71 28t-22 76v124h-51q-10 0 -10 10v43q0 9 10 9h60l22 65q2 6 9 6h21z" />
    <glyph glyph-name="uni24EA" unicode="&#x24ea;" horiz-adv-x="1133" 
d="M625 831q105 0 193 -35.5t151.5 -99t99.5 -152t36 -194.5t-36 -194t-99.5 -152t-151.5 -99.5t-193 -35.5t-193 35.5t-151.5 99.5t-99.5 152t-36 194t36 194.5t99.5 152t151.5 99t193 35.5zM625 760q-92 0 -166.5 -30.5t-127 -85t-81 -130t-28.5 -164.5t28.5 -164t81 -130
t127 -85.5t166.5 -30.5t166.5 30.5t127 85.5t81 130t28.5 164t-28.5 164.5t-81 130t-127 85t-166.5 30.5zM620 630q53 0 92.5 -20t66 -56.5t39.5 -88.5t13 -116q0 -66 -13.5 -119t-39.5 -91t-65.5 -58.5t-92.5 -20.5q-52 0 -92 20.5t-66.5 58.5t-40 91t-13.5 119
q0 64 13 116t39.5 88.5t66.5 56.5t93 20zM620 543q-60 0 -87 -47t-27 -147q0 -103 27 -152.5t87 -49.5q59 0 86 49.5t27 152.5q0 100 -26.5 147t-86.5 47z" />
    <glyph glyph-name="uni24FF" unicode="&#x24ff;" horiz-adv-x="1133" 
d="M625 831q105 0 193 -35.5t151.5 -99t99.5 -152t36 -194.5t-36 -194t-99.5 -152t-151.5 -99.5t-193 -35.5t-193 35.5t-151.5 99.5t-99.5 152t-36 194t36 194.5t99.5 152t151.5 99t193 35.5zM625 635q-53 0 -92.5 -20t-66 -57t-39.5 -89t-13 -116q0 -65 13.5 -118.5
t39.5 -91t66 -58t92 -20.5q53 0 92.5 20.5t65.5 58t39.5 91t13.5 118.5q0 64 -13 116t-39 89t-66 57t-93 20zM625 547q60 0 87 -46.5t27 -147.5q0 -102 -27 -151.5t-87 -49.5t-87 49.5t-27 151.5q0 101 27 147.5t87 46.5z" />
    <glyph glyph-name="filledbox" unicode="&#x25a0;" horiz-adv-x="1213" 
d="M220 -100q-9 0 -9 9v882q0 9 9 9h889q10 0 10 -9v-882q0 -9 -10 -9h-889z" />
    <glyph glyph-name="uni25A1" unicode="&#x25a1;" horiz-adv-x="1213" 
d="M220 -100q-9 0 -9 9v882q0 9 9 9h889q10 0 10 -9v-882q0 -9 -10 -9h-889zM1041 -26v752h-752v-752h752z" />
    <glyph glyph-name="uni25AA" unicode="&#x25aa;" horiz-adv-x="641" 
d="M260 222q-9 0 -9 9v238q0 9 9 9h238q9 0 9 -9v-238q0 -9 -9 -9h-238z" />
    <glyph glyph-name="triagup" unicode="&#x25b2;" horiz-adv-x="800" 
d="M96 50q-16 0 -9 14l305 570q3 8 8 8t8 -8l305 -570q7 -14 -9 -14h-608z" />
    <glyph glyph-name="uni25B6" unicode="&#x25b6;" horiz-adv-x="780" 
d="M114 42q-14 -7 -14 9v608q0 16 14 9l570 -305q8 -3 8 -8t-8 -8z" />
    <glyph glyph-name="triagdn" unicode="&#x25bc;" horiz-adv-x="800" 
d="M704 630q16 0 9 -14l-305 -570q-3 -7 -8 -7t-8 7l-305 570q-7 14 9 14h608z" />
    <glyph glyph-name="uni25C0" unicode="&#x25c0;" horiz-adv-x="780" 
d="M680 51q0 -16 -14 -9l-570 305q-7 3 -7 8t7 8l570 305q14 7 14 -9v-608z" />
    <glyph glyph-name="lozenge" unicode="&#x25ca;" horiz-adv-x="587" 
d="M603 351q2 -6 -1 -10l-279 -355q-5 -5 -10 -5h-52q-6 0 -8 5l-153 355q-2 6 1 10l281 363q5 5 10 5h52q6 0 8 -5zM408 637l-224 -296l114 -282l223 295z" />
    <glyph glyph-name="circle" unicode="&#x25cb;" horiz-adv-x="1082" 
d="M599 831q105 0 193 -35.5t151.5 -99t99.5 -152t36 -194.5t-36 -194t-99.5 -152t-151.5 -99.5t-193 -35.5t-193 35.5t-151.5 99.5t-99.5 152t-36 194t36 194.5t99.5 152t151.5 99t193 35.5zM599 760q-92 0 -166.5 -30.5t-127 -85t-81 -130t-28.5 -164.5t28.5 -164t81 -130
t127 -85.5t166.5 -30.5q93 0 167.5 30.5t127 85.5t81 130t28.5 164t-28.5 164.5t-81 130t-127 85t-167.5 30.5z" />
    <glyph glyph-name="uni25CF" unicode="&#x25cf;" horiz-adv-x="1082" 
d="M599 831q105 0 193 -35.5t151.5 -99t99.5 -152t36 -194.5t-36 -194t-99.5 -152t-151.5 -99.5t-193 -35.5t-193 35.5t-151.5 99.5t-99.5 152t-36 194t36 194.5t99.5 152t151.5 99t193 35.5z" />
    <glyph glyph-name="uni2605" unicode="&#x2605;" horiz-adv-x="977" 
d="M479 725q3 13 8 13q6 0 9 -13l87 -267h286q26 0 6 -17l-231 -171l85 -272q5 -17 -3 -17q-3 0 -12 7l-227 170l-224 -170q-21 -17 -15 10l85 272l-231 171q-20 17 6 17h287z" />
    <glyph glyph-name="uni2606" unicode="&#x2606;" horiz-adv-x="1059" 
d="M520 794q5 12 10 12t9 -12l94 -296h318q13 0 14.5 -4.5t-8.5 -12.5l-256 -190l93 -302q4 -13 0 -15.5t-14 5.5l-251 189l-250 -189q-10 -8 -14 -5.5t0 15.5l93 302l-256 190q-10 8 -8.5 12.5t14.5 4.5h318zM463 442h-215l175 -131l-62 -200l168 127l169 -127l-62 200
l175 131h-215l-67 216z" />
    <glyph glyph-name="uni261C" unicode="&#x261c;" horiz-adv-x="1153" 
d="M1097 399h-250q-17 33 -40.5 55.5t-50.5 36t-56.5 19t-59.5 5.5q-24 0 -48 -3l-178 -22q-14 -2 -24.5 -6t-10.5 -17q0 -41 91 -41q27 0 59 3t68 11q11 -14 22 -29t27.5 -30t41 -28.5t61.5 -24.5l-11 -32q-34 9 -59.5 20.5t-47.5 30.5q-3 -19 -18 -31q20 -5 31 -14.5
t16 -30.5q5 -19 -6 -39t-31 -31q14 -3 25 -11.5t14 -26.5q5 -23 -7.5 -40t-35.5 -22l-9 -2q12 -2 24 -3.5t25 -1.5q54 0 107.5 20t92.5 57h238v-36h-224q-56 -39 -115.5 -56.5t-116.5 -17.5q-65 0 -123 20l-28 -6q-28 -6 -51 4.5t-28 33.5q-4 17 1 28.5t11 19.5
q-29 -1 -46.5 12.5t-22.5 37.5q-3 16 3 33t20 25q-23 1 -37.5 13.5t-19.5 31.5q-3 14 0.5 31t18.5 28l-139 -14q-36 -4 -57 13t-21 44q0 54 74 62l147 15q5 11 16.5 18.5t30.5 9.5l201 27q24 3 49 3q33 0 66 -6t64 -20t57.5 -35.5t45.5 -53.5h224v-37zM209 443
q-26 -4 -36 -9t-10 -18q0 -25 53 -22l175 13q-22 6 -36 18t-17 32zM409 366q-29 -5 -45 -15t-13 -30q2 -14 13 -19t28 -5q15 0 33 3l133 23q24 4 34.5 12.5t8.5 26.5q-2 14 -14.5 22t-45.5 2zM627 263q-4 20 -19.5 24.5t-47.5 -0.5l-126 -22q-26 -5 -38 -18t-10 -29
q3 -16 16.5 -23.5t41.5 -2.5l135 24q30 5 40.5 16.5t7.5 30.5zM480 162q-24 -5 -32 -14.5t-5 -22.5q4 -23 48 -17l105 18q21 4 27.5 13t3.5 23q-2 13 -15 17t-35 0z" />
    <glyph glyph-name="uni261D" unicode="&#x261d;" horiz-adv-x="642" 
d="M449 -205v251q40 21 64.5 50t37 63t15 70.5t-2.5 71.5l-24 177q-1 15 -5.5 25t-17.5 10q-39 0 -39 -90q0 -27 2.5 -59t10.5 -68q-14 -10 -29.5 -21.5t-30.5 -28t-28.5 -41t-24.5 -61.5l-30 12q8 32 19.5 57.5t30.5 48.5q-17 3 -31 17q-5 -19 -14.5 -30t-29.5 -16
q-19 -5 -39 6t-32 32q-3 -14 -11 -25.5t-26 -15.5q-23 -5 -41 8t-23 36l-1 9q-7 -30 -5 -64t11.5 -67t26 -63.5t38.5 -54.5v-239h-36v224q-30 44 -47.5 90.5t-23 92.5t-0.5 90t18 83l-6 28q-5 28 4.5 50.5t33.5 28.5q17 4 28.5 -1t18.5 -11q-1 28 13 46.5t38 23.5
q16 2 33 -4t24 -20q1 23 14 37.5t32 19.5q14 3 30.5 -0.5t28.5 -19.5l-14 140q-4 36 13 57t44 21q54 0 62 -74l15 -148q10 -5 18 -16t10 -30l27 -201q5 -37 2 -77.5t-16 -78t-37 -70.5t-62 -56v-225h-36zM492 684q-3 26 -8.5 36t-17.5 10q-25 0 -22 -53l14 -175
q5 22 17.5 36.5t32.5 16.5zM416 484q-5 29 -15 45.5t-30 12.5q-19 -3 -22 -24t2 -50l21 -132q4 -25 13 -35.5t27 -8.5q14 2 22 14.5t3 45.5zM312 266q20 4 25 19.5t0 47.5l-22 126q-5 25 -18 38t-29 10t-23 -16t-2 -42l23 -135q5 -30 16 -40.5t30 -7.5zM212 413
q-5 24 -15 32t-23 6q-24 -6 -16 -48l19 -106q4 -20 13 -27t23 -4q12 2 16 15.5t0 34.5z" />
    <glyph glyph-name="uni261E" unicode="&#x261e;" horiz-adv-x="1109" 
d="M347 436q20 32 46.5 53.5t57.5 35.5t64 20t66 6q25 0 49 -3l201 -27q19 -2 30.5 -9.5t16.5 -18.5l147 -15q74 -8 74 -62q0 -27 -21 -44t-57 -13l-139 14q15 -11 18 -28t1 -31q-5 -19 -20 -31.5t-38 -13.5q14 -8 20.5 -25t3.5 -33q-5 -24 -22.5 -37.5t-46.5 -12.5
q6 -8 10.5 -19.5t1.5 -28.5q-6 -23 -28.5 -33.5t-51.5 -4.5l-27 6q-58 -20 -124 -20q-57 0 -116 17.5t-116 56.5h-223v36h238q39 -37 92.5 -57t107.5 -20q13 0 25 1.5t24 3.5l-9 2q-23 5 -36 22t-8 40q4 18 15 26.5t25 11.5q-20 11 -31 31t-6 39q5 21 15.5 30.5t30.5 14.5
q-14 12 -17 31q-22 -19 -48 -30.5t-59 -20.5l-12 32q37 11 61.5 24.5t41.5 28.5t28 30t21 29q36 -8 68 -11t59 -3q91 0 91 41q0 13 -10 17t-25 6l-178 22q-24 3 -48 3q-60 0 -115.5 -25t-90.5 -91h-250v37h223zM883 457q-3 -20 -17 -32t-36 -18l175 -13q53 -3 53 22
q0 13 -10 18t-36 9zM680 386q-33 6 -45.5 -2t-14.5 -22q-2 -18 8.5 -26.5t34.5 -12.5l133 -23q18 -3 33 -3q17 0 27.5 5t12.5 19q4 20 -12 30t-45 15zM594 263q-3 -19 7.5 -30.5t40.5 -16.5l135 -24q28 -5 41.5 2.5t16.5 23.5q2 16 -10.5 29t-37.5 18l-126 22q-32 5 -48 0.5
t-19 -24.5zM644 179q-22 4 -35 0t-15 -17q-3 -14 3.5 -23t27.5 -13l105 -18q44 -6 48 17q3 13 -5 22.5t-32 14.5z" />
    <glyph glyph-name="uni261F" unicode="&#x261f;" horiz-adv-x="638" 
d="M484 546q38 -24 62 -57t37 -70.5t16 -77t-2 -77.5l-27 -201q-2 -19 -9.5 -30.5t-18.5 -16.5l-15 -147q-8 -74 -62 -74q-27 0 -44 21t-13 57l14 139q-12 -15 -28.5 -18t-30.5 -1q-19 5 -31.5 19.5t-14.5 37.5q-7 -14 -24 -20t-32 -3q-25 5 -39 22.5t-13 46.5
q-7 -6 -18.5 -10.5t-28.5 -1.5q-24 6 -33.5 28.5t-4.5 51.5l6 27q-13 39 -18 83t0.5 90t23 92.5t47.5 90.5v224h37v-239q-22 -24 -38.5 -54.5t-26 -63.5t-11.5 -66.5t4 -64.5l1 9q5 23 23 36t41 8q18 -4 26 -15t11 -25q12 20 32 31t39 6q20 -5 29.5 -16t14.5 -31
q13 15 31 18q-19 22 -30 48t-20 59l30 11q11 -37 25 -61.5t29 -41t30 -27.5t29 -21q-8 -36 -10.5 -68.5t-2.5 -59.5q0 -90 39 -90q13 0 17.5 9.5t6.5 25.5l23 178q5 35 2.5 71.5t-15 70t-37 62.5t-64.5 50v251h36v-225zM228 250q4 22 0 35t-16 15q-14 3 -23 -3.5t-13 -27.5
l-19 -105q-8 -44 17 -48q13 -3 22.5 5t14.5 32zM311 300q-19 3 -30 -7.5t-16 -40.5l-23 -135q-9 -53 25 -59q16 -2 29.5 10.5t18.5 38.5l21 126q5 32 0 48t-25 19zM436 214q5 33 -3 45.5t-22 14.5q-18 2 -26.5 -8.5t-13.5 -34.5l-21 -134q-5 -29 -2 -49.5t22 -22.5
q20 -4 30 12t15 45zM507 11q-20 3 -32.5 17t-17.5 36l-14 -175q-3 -53 22 -53q12 0 17.5 10t9.5 36z" />
    <glyph glyph-name="uni2630" unicode="&#x2630;" horiz-adv-x="895" 
d="M201 602q-9 0 -9 9v65q0 9 9 9h622q9 0 9 -9v-65q0 -9 -9 -9h-622zM201 343q-9 0 -9 9v64q0 10 9 10h622q9 0 9 -10v-64q0 -9 -9 -9h-622zM201 83q-9 0 -9 9v65q0 9 9 9h622q9 0 9 -9v-65q0 -9 -9 -9h-622z" />
    <glyph glyph-name="uni2639" unicode="&#x2639;" horiz-adv-x="876" 
d="M496 725q81 0 150.5 -29t120.5 -80t80 -120.5t29 -150.5q0 -80 -29 -149.5t-80 -120.5t-120.5 -80.5t-150.5 -29.5q-80 0 -149.5 29.5t-120.5 80.5t-80.5 120.5t-29.5 149.5q0 81 29.5 150.5t80.5 120.5t120.5 80t149.5 29zM496 669q-69 0 -128 -25.5t-102 -69.5
t-67.5 -103t-24.5 -126t24.5 -125.5t67.5 -102.5t102 -69.5t128 -25.5t128 25.5t102 69.5t67.5 102.5t24.5 125.5t-24.5 126t-67.5 103t-102 69.5t-128 25.5zM380 483q23 0 39 -15.5t16 -38.5t-16 -38t-39 -15t-38.5 15t-15.5 38t15.5 38.5t38.5 15.5zM611 483
q23 0 38.5 -15.5t15.5 -38.5t-15.5 -38t-38.5 -15t-39.5 15t-16.5 38t16.5 38.5t39.5 15.5zM495 232q-60 0 -100.5 -25.5t-65.5 -60.5q-7 -8 -13 -2l-21 16q-7 7 -2 12q13 19 32 38t44.5 34t57 24.5t68.5 9.5q38 0 69.5 -9.5t56.5 -24.5t44 -34t32 -38q5 -5 -2 -12l-20 -16
q-8 -6 -14 2q-24 35 -65 60.5t-101 25.5z" />
    <glyph glyph-name="smileface" unicode="&#x263a;" horiz-adv-x="876" 
d="M496 725q81 0 150.5 -29t120.5 -80t80 -120.5t29 -150.5q0 -80 -29 -149.5t-80 -120.5t-120.5 -80.5t-150.5 -29.5q-80 0 -149.5 29.5t-120.5 80.5t-80.5 120.5t-29.5 149.5q0 81 29.5 150.5t80.5 120.5t120.5 80t149.5 29zM496 669q-69 0 -128 -25.5t-102 -69.5
t-67.5 -103t-24.5 -126t24.5 -125.5t67.5 -102.5t102 -69.5t128 -25.5t128 25.5t102 69.5t67.5 102.5t24.5 125.5t-24.5 126t-67.5 103t-102 69.5t-128 25.5zM380 483q23 0 39 -15.5t16 -38.5t-16 -38t-39 -15t-38.5 15t-15.5 38t15.5 38.5t38.5 15.5zM611 483
q23 0 38.5 -15.5t15.5 -38.5t-15.5 -38t-38.5 -15t-39.5 15t-16.5 38t16.5 38.5t39.5 15.5zM495 183q60 0 101 26t65 60q6 8 14 2l20 -16q6 -6 2 -12q-13 -19 -32 -38t-44 -34t-56.5 -24t-69.5 -9q-37 0 -68.5 9t-57 24t-44.5 34t-32 38q-4 6 2 12l21 16q6 6 13 -2
q25 -34 65.5 -60t100.5 -26z" />
    <glyph glyph-name="invsmileface" unicode="&#x263b;" horiz-adv-x="865" 
d="M491 720q80 0 148.5 -29t118.5 -79.5t78.5 -119t28.5 -147.5t-28.5 -147.5t-78.5 -119t-118.5 -79.5t-148.5 -29t-148.5 29t-119 79.5t-79 119t-28.5 147.5t28.5 147.5t79 119t119 79.5t148.5 29zM375 483q-23 0 -39 -15.5t-16 -38.5t16 -38t39 -15t38.5 15t15.5 38
t-15.5 38.5t-38.5 15.5zM605 483q-23 0 -39 -15.5t-16 -38.5t16 -38t39 -15t39 15t16 38t-16 38.5t-39 15.5zM490 183q-32 0 -58.5 8t-47.5 21t-37.5 30t-28.5 36l-35 -28q13 -20 32 -40t45 -36t58.5 -26t71.5 -10t71.5 10t58.5 26t45 36t31 40l-34 28q-24 -38 -66.5 -66.5
t-105.5 -28.5z" />
    <glyph glyph-name="spade" unicode="&#x2660;" horiz-adv-x="807" 
d="M619 456q38 -37 61.5 -79.5t23.5 -90.5q0 -66 -40 -104.5t-109 -38.5q-29 0 -51.5 9.5t-38 26t-26 38t-15.5 46.5h-7q1 -95 17 -153t39 -95q8 -15 -9 -15h-122q-17 0 -9 15q23 37 39 95t17 153h-7q-5 -25 -15 -46.5t-26 -38t-38 -26t-51 -9.5q-69 0 -109 38.5t-40 104.5
q0 48 23.5 90.5t61.5 79.5l208 201q8 8 15 0z" />
    <glyph glyph-name="club" unicode="&#x2663;" horiz-adv-x="732" 
d="M108 317q0 33 11 60.5t30.5 47t47 30t60.5 10.5q5 0 14.5 -1.5t14.5 -2.5q-7 13 -11.5 28t-4.5 31q0 67 41 107.5t108 40.5q66 0 107 -40.5t41 -107.5q0 -16 -5 -31.5t-12 -28.5q6 1 15.5 3t16.5 2q67 0 107 -41t40 -107q0 -68 -40 -108.5t-107 -40.5q-68 0 -103.5 40.5
t-35.5 108.5h-9q0 -48 5 -93t12.5 -84.5t17.5 -71t21 -52.5q8 -16 -9 -16h-123q-17 0 -9 16q11 21 21 52.5t17.5 71t12.5 84.5t5 93h-9q0 -68 -36 -108.5t-103 -40.5t-108 40.5t-41 108.5z" />
    <glyph glyph-name="heart" unicode="&#x2665;" horiz-adv-x="754" 
d="M221 267q-41 39 -66 84.5t-25 96.5q0 71 43 112t117 41q31 0 56.5 -10t45 -27.5t33 -41t19.5 -49.5h15q6 26 19 49.5t32.5 41t45.5 27.5t57 10q74 0 117 -41t43 -112q0 -51 -25.5 -96t-66.5 -85l-222 -216q-7 -7 -14 0z" />
    <glyph glyph-name="diamond" unicode="&#x2666;" horiz-adv-x="591" 
d="M105 294q-6 6 0 13q39 41 71 78.5t60.5 75.5t53.5 78.5t49 86.5q2 4 7 4t7 -4q24 -46 49 -86.5t53 -78.5t60 -75.5t71 -78.5q6 -7 0 -13q-39 -41 -71 -79t-60 -76t-53 -78.5t-49 -86.5q-2 -4 -7 -4t-7 4q-24 46 -49 86.5t-53.5 78.5t-60.5 76t-71 79z" />
    <glyph glyph-name="uni2706" unicode="&#x2706;" horiz-adv-x="887" 
d="M502 734q83 0 153.5 -28t121.5 -78.5t80 -121t29 -156.5t-29 -157t-80 -121.5t-121.5 -78.5t-153.5 -28q-82 0 -152.5 28t-122 78.5t-80.5 121.5t-29 157t29 156.5t80.5 121t122 78.5t152.5 28zM502 678q-72 0 -131 -24t-102 -67.5t-66.5 -104t-23.5 -132.5t23.5 -132.5
t66.5 -104t102 -68t131 -24.5t131.5 24.5t102.5 68t66.5 104t23.5 132.5t-23.5 132.5t-66.5 104t-102.5 67.5t-131.5 24zM373 139q-5 -4 -9 0q-41 27 -60 58t-3 76q16 41 39.5 82t52 79t62 72t68.5 61q21 17 55 17q24 0 48.5 -10t43.5 -28q4 -4 2 -9q-10 -27 -32 -55
t-51 -50q-5 -3 -11 0l-43 28q-57 -24 -87 -65t-40 -101l42 -39q5 -3 3 -10q-14 -32 -35.5 -60.5t-44.5 -45.5zM634 399q-5 -4 -11 0l-16 12q-10 7 -1 14q48 42 75 93q7 10 15 3l15 -14q3 -3 2 -9q-9 -26 -30.5 -53t-48.5 -46zM424 103q-6 -3 -11 0l-21 15q-9 6 0 15
q21 20 39 44.5t29 51.5q6 11 16 3l18 -16q3 -3 3 -10q-8 -26 -28 -54.5t-45 -48.5z" />
    <glyph glyph-name="uni2709" unicode="&#x2709;" horiz-adv-x="1134" 
d="M188 0q-9 0 -9 9v591q0 9 9 9h860q9 0 9 -9v-591q0 -9 -9 -9h-860zM620 288l346 267h-691zM490 326l-255 199v-439zM748 323l253 -236v435zM531 294l-258 -240h692l-258 238l-87 -68z" />
    <glyph glyph-name="uni2713" unicode="&#x2713;" horiz-adv-x="650" 
d="M131 417q-5 8 4 13l66 31q9 4 12 -4l169 -322l228 504q3 8 12 6l66 -25q9 -4 5 -13l-275 -571q-3 -5 -9 -5h-57q-6 0 -8 4z" />
    <glyph glyph-name="uni2715" unicode="&#x2715;" horiz-adv-x="771" 
d="M712 574q7 -7 0 -13l-208 -209l209 -207q7 -7 0 -13l-48 -48q-6 -6 -13 0l-208 208l-210 -207q-6 -7 -13 0l-46 47q-7 6 0 13l209 207l-208 208q-6 6 0 13l48 47q7 7 13 0l207 -208l208 208q7 7 13 0z" />
    <glyph glyph-name="uni275B" unicode="&#x275b;" horiz-adv-x="464" 
d="M278 295q-71 0 -109 46.5t-24 132.5q9 55 32 106.5t61.5 93.5t93 71.5t127.5 40.5q9 2 9 -6l6 -45q2 -5 -1 -8t-8 -4q-70 -8 -124 -44t-80 -106q20 17 43 25t45 8q70 0 103.5 -39.5t21.5 -110.5q-6 -35 -22.5 -64.5t-42 -51t-59 -33.5t-72.5 -12z" />
    <glyph glyph-name="uni275C" unicode="&#x275c;" horiz-adv-x="464" 
d="M183 284q-5 -1 -9 6l-6 45q-2 10 11 12q69 8 123 44t80 106q-19 -17 -43 -25t-45 -8q-70 0 -103.5 39.5t-22.5 110.5q6 35 22.5 64.5t42 51t59 33.5t72.5 12q71 0 109 -46.5t24 -132.5q-9 -55 -32 -106.5t-61 -93.5t-93 -71.5t-128 -40.5z" />
    <glyph glyph-name="uni275D" unicode="&#x275d;" horiz-adv-x="827" 
d="M641 295q-71 0 -109 46.5t-24 132.5q9 55 32 106.5t61.5 93.5t93 71.5t127.5 40.5q7 1 9 -6l6 -45q2 -5 -1 -8t-8 -4q-70 -8 -124 -44t-80 -106q19 17 42.5 25t44.5 8q70 0 104 -39.5t22 -110.5q-6 -35 -22.5 -64.5t-42 -51t-59 -33.5t-72.5 -12zM278 295
q-71 0 -109 46.5t-24 132.5q9 55 32 106.5t61.5 93.5t93 71.5t127.5 40.5q9 2 9 -6l6 -45q2 -5 -1 -8t-8 -4q-70 -8 -124 -44t-80 -106q20 17 43 25t45 8q70 0 103.5 -39.5t21.5 -110.5q-6 -35 -22.5 -64.5t-42 -51t-59 -33.5t-72.5 -12z" />
    <glyph glyph-name="uni275E" unicode="&#x275e;" horiz-adv-x="827" 
d="M183 284q-5 -1 -9 6l-6 45q-2 10 11 12q69 8 123 44t80 106q-19 -17 -43 -25t-45 -8q-70 0 -103.5 39.5t-22.5 110.5q6 35 22.5 64.5t42 51t59 33.5t72.5 12q71 0 109 -46.5t24 -132.5q-9 -55 -32 -106.5t-61 -93.5t-93 -71.5t-128 -40.5zM546 284q-5 -1 -9 6l-6 45
q-2 10 10 12q70 8 124 44t79 106q-19 -17 -42.5 -25t-45.5 -8q-70 0 -103 39.5t-22 110.5q6 35 22.5 64.5t42 51t59 33.5t72.5 12q71 0 109 -46.5t24 -132.5q-9 -55 -32 -106.5t-61 -93.5t-93 -71.5t-128 -40.5z" />
    <glyph glyph-name="uni275F" unicode="&#x275f;" horiz-adv-x="464" 
d="M287 311q71 0 109 -46.5t24 -132.5q-9 -55 -32 -106.5t-61 -93.5t-93 -71.5t-128 -40.5q-7 -2 -9 6l-6 45q-2 10 10 12q69 8 123.5 44t80.5 106q-20 -17 -43.5 -25t-44.5 -8q-70 0 -104 39.5t-22 110.5q6 35 22.5 64.5t42 51t59 33.5t72.5 12z" />
    <glyph glyph-name="uni2760" unicode="&#x2760;" horiz-adv-x="827" 
d="M287 311q71 0 109 -46.5t24 -132.5q-9 -55 -32 -106.5t-61 -93.5t-93 -71.5t-128 -40.5q-7 -2 -9 6l-6 45q-2 10 10 12q69 8 123.5 44t80.5 106q-20 -17 -43.5 -25t-44.5 -8q-70 0 -104 39.5t-22 110.5q6 35 22.5 64.5t42 51t59 33.5t72.5 12zM650 311q71 0 109 -46.5
t24 -132.5q-9 -55 -32 -106.5t-61.5 -93.5t-93 -71.5t-127.5 -40.5q-7 -1 -9 6l-6 45q-2 5 1 8t8 4q70 8 124.5 44t79.5 106q-20 -17 -43 -25t-45 -8q-70 0 -103.5 39.5t-21.5 110.5q6 35 22.5 64.5t42 51t59 33.5t72.5 12z" />
    <glyph glyph-name="uni2766" unicode="&#x2766;" horiz-adv-x="714" 
d="M445 339q21 42 39.5 85t31.5 84q-36 15 -69.5 35.5t-64 39t-59.5 31t-58 12.5q-34 0 -53 -14t-22 -39q-5 -36 34 -78q7 -9 -2 -15l-17 -11q-6 -4 -12 0q-26 26 -36 55t-7 55q5 35 32 60.5t78 25.5q31 0 59.5 -10.5t57.5 -25.5q25 47 55.5 64.5t55.5 17.5q43 0 62 -26.5
t19 -71.5q0 -36 -11 -83q35 -12 73 -12q34 0 53 15t22 36q2 16 -5.5 38t-37.5 42q-11 7 -2 14l12 17q7 5 13 1q36 -28 48 -56t10 -54q-1 -17 -9 -33t-22 -28.5t-34.5 -20t-47.5 -7.5q-22 0 -42 3.5t-40 9.5q-13 -41 -31 -83.5t-40 -85.5l6 -2q23 43 54 67t65 24
q45 0 74.5 -27.5t29.5 -81.5q0 -40 -16 -67t-40.5 -46t-52.5 -32t-52.5 -24.5t-40.5 -25t-16 -33.5q0 -24 15 -34.5t38 -10.5q73 0 117 60q3 8 12 3h1q8 -5 3 -12q-26 -47 -69.5 -71.5t-100.5 -24.5q-62 0 -111 25t-83.5 66t-52.5 92.5t-18 103.5q0 44 9.5 75t26 51
t38.5 29.5t46 9.5q15 0 31 -5t28.5 -16.5t18.5 -30.5t1 -47zM408 611q29 -17 57.5 -35t60.5 -32q4 18 6.5 34.5t2.5 30.5q0 30 -11 47.5t-36 17.5q-26 0 -45 -17t-35 -46z" />
    <glyph glyph-name="uni2767" unicode="&#x2767;" horiz-adv-x="779" 
d="M486 335q-52 24 -73.5 57t-21.5 62q0 38 25.5 63.5t70.5 25.5q35 0 59.5 -14.5t42.5 -36t31 -47t25 -47t25.5 -36t31.5 -14.5q23 0 31.5 13.5t8.5 35.5q0 33 -13.5 58t-42.5 46q-6 6 -1 13v2q6 6 13 1q36 -26 61 -64.5t25 -89.5q0 -57 -23.5 -103.5t-61 -79.5t-85 -51
t-95.5 -18q-80 0 -117 31t-37 75q0 18 7.5 33.5t21.5 26.5t33 15.5t42 0.5l2 6q-36 18 -80.5 29t-89.5 10h-16t-16 -1q16 -30 26.5 -63t10.5 -70q0 -33 -9 -57t-23.5 -39.5t-33 -23t-38.5 -7.5q-21 0 -41.5 8.5t-36 25.5t-25 41.5t-9.5 55.5q0 63 33.5 100t86.5 53
q-20 37 -35.5 74.5t-15.5 78.5q0 26 8.5 45.5t23 32.5t33 19.5t37.5 6.5q23 0 45 -8t39 -23q7 -6 1 -12l-13 -17q-6 -7 -14 -1q-14 11 -30 16t-30 5q-25 0 -42.5 -15.5t-17.5 -47.5q0 -38 16.5 -73t36.5 -72q24 3 50 3q45 0 91 -10.5t90 -32.5zM227 329q-42 -13 -69 -40
t-27 -75q0 -51 20 -74t49 -23q25 0 46 20.5t21 69.5q0 31 -11.5 61t-28.5 61z" />
    <glyph glyph-name="uni2776" unicode="&#x2776;" horiz-adv-x="1133" 
d="M625 831q105 0 193 -35.5t151.5 -99t99.5 -152t36 -194.5t-36 -194t-99.5 -152t-151.5 -99.5t-193 -35.5t-193 35.5t-151.5 99.5t-99.5 152t-36 194t36 194.5t99.5 152t151.5 99t193 35.5zM647 612l-182 -51q-10 -3 -7 -12l18 -60q3 -10 12 -7l106 33v-444q0 -9 10 -9h71
q10 0 10 9v532q0 9 -10 9h-28z" />
    <glyph glyph-name="uni2777" unicode="&#x2777;" horiz-adv-x="1133" 
d="M625 831q105 0 193 -35.5t151.5 -99t99.5 -152t36 -194.5t-36 -194t-99.5 -152t-151.5 -99.5t-193 -35.5t-193 35.5t-151.5 99.5t-99.5 152t-36 194t36 194.5t99.5 152t151.5 99t193 35.5zM509 473q31 83 116 83q86 0 86 -73q0 -34 -16.5 -63t-54.5 -72l-205 -229
q-2 -4 -2 -7v-24q0 -9 9 -9h353q9 0 9 9v68q0 9 -9 9h-217l128 136q28 30 47 54.5t30 46.5t16 42.5t5 42.5q0 71 -46 111.5t-126 40.5q-75 0 -126.5 -36t-74.5 -102q-3 -8 5 -12l61 -21q7 -3 12 5z" />
    <glyph glyph-name="uni2778" unicode="&#x2778;" horiz-adv-x="1133" 
d="M625 831q105 0 193 -35.5t151.5 -99t99.5 -152t36 -194.5t-36 -194t-99.5 -152t-151.5 -99.5t-193 -35.5t-193 35.5t-151.5 99.5t-99.5 152t-36 194t36 194.5t99.5 152t151.5 99t193 35.5zM603 313q61 0 89 -22t28 -64q0 -41 -25 -63.5t-73 -22.5t-78 22.5t-44 63.5
q-3 10 -12 6l-62 -23q-8 -3 -6 -11q23 -68 75 -103.5t127 -35.5q45 0 80.5 12.5t61 34t39 51t13.5 63.5q0 49 -27.5 85.5t-81.5 48.5q43 14 70 49.5t27 85.5q0 63 -44.5 101.5t-128.5 38.5q-78 0 -131 -36t-74 -102q-3 -8 5 -12l61 -21q9 -2 12 7q14 39 43 61t75 22
q41 0 63.5 -18t22.5 -55q0 -44 -31 -65.5t-74 -21.5h-46q-9 0 -9 -9v-58q0 -9 9 -9h46z" />
    <glyph glyph-name="uni2779" unicode="&#x2779;" horiz-adv-x="1133" 
d="M625 831q105 0 193 -35.5t151.5 -99t99.5 -152t36 -194.5t-36 -194t-99.5 -152t-151.5 -99.5t-193 -35.5t-193 35.5t-151.5 99.5t-99.5 152t-36 194t36 194.5t99.5 152t151.5 99t193 35.5zM819 260q0 10 -9 10h-68v110q0 10 -9 10h-73q-10 0 -10 -10v-110h-144l180 344
q4 6 1.5 10t-8.5 4h-84q-6 0 -9 -6l-194 -397v-4v-26q0 -9 9 -9h249v-100q0 -10 10 -10h73q9 0 9 10v100h68q9 0 9 9v65z" />
    <glyph glyph-name="uni277A" unicode="&#x277a;" horiz-adv-x="1133" 
d="M625 831q105 0 193 -35.5t151.5 -99t99.5 -152t36 -194.5t-36 -194t-99.5 -152t-151.5 -99.5t-193 -35.5t-193 35.5t-151.5 99.5t-99.5 152t-36 194t36 194.5t99.5 152t151.5 99t193 35.5zM777 614q0 10 -10 10h-289q-8 0 -10 -9l-21 -272q-2 -10 9 -10h144q63 0 90 -24
t27 -72q0 -45 -23.5 -69t-72.5 -24q-91 0 -118 82q-3 8 -12 5l-60 -21q-8 -4 -5 -12q23 -71 74.5 -104.5t120.5 -33.5q46 0 81.5 14t59.5 39t36.5 58.5t12.5 72.5q0 46 -16.5 78t-44 52.5t-64.5 30t-78 9.5h-67l9 118h217q10 0 10 9v73z" />
    <glyph glyph-name="uni277B" unicode="&#x277b;" horiz-adv-x="1133" 
d="M625 831q105 0 193 -35.5t151.5 -99t99.5 -152t36 -194.5t-36 -194t-99.5 -152t-151.5 -99.5t-193 -35.5t-193 35.5t-151.5 99.5t-99.5 152t-36 194t36 194.5t99.5 152t151.5 99t193 35.5zM625 627q-5 0 -9 -4l-146 -238q-20 -32 -30.5 -68t-10.5 -74q0 -40 13.5 -73
t38 -55.5t59.5 -35t78 -12.5q45 0 82.5 13t64.5 38t42 60t15 78q0 41 -13 73t-35.5 55t-54 35t-67.5 12q-38 0 -67 -15l132 198q8 13 -6 13h-86zM631 352q46 0 71 -23.5t25 -71.5q0 -51 -27.5 -77.5t-76.5 -26.5q-48 0 -74 24.5t-26 70.5q0 48 27.5 76t80.5 28z" />
    <glyph glyph-name="uni277C" unicode="&#x277c;" horiz-adv-x="1133" 
d="M625 831q105 0 193 -35.5t151.5 -99t99.5 -152t36 -194.5t-36 -194t-99.5 -152t-151.5 -99.5t-193 -35.5t-193 35.5t-151.5 99.5t-99.5 152t-36 194t36 194.5t99.5 152t151.5 99t193 35.5zM703 504l-189 -448q-6 -13 8 -13h81q6 0 8 5l195 502q2 4 2 12v21q0 10 -10 10
h-343q-10 0 -10 -10v-70q0 -9 10 -9h248z" />
    <glyph glyph-name="uni277D" unicode="&#x277d;" horiz-adv-x="1133" 
d="M625 831q105 0 193 -35.5t151.5 -99t99.5 -152t36 -194.5t-36 -194t-99.5 -152t-151.5 -99.5t-193 -35.5t-193 35.5t-151.5 99.5t-99.5 152t-36 194t36 194.5t99.5 152t151.5 99t193 35.5zM623 630q-87 0 -132 -40t-45 -105q0 -44 22.5 -80.5t69.5 -52.5
q-56 -15 -82.5 -53.5t-26.5 -86.5q0 -69 50 -110.5t144 -41.5q93 0 142.5 41.5t49.5 110.5q0 48 -26.5 86.5t-80.5 53.5q46 16 68 52.5t22 80.5q0 65 -45 105t-130 40zM623 547q38 0 60 -17t22 -57q0 -42 -22.5 -61t-59.5 -19q-38 0 -61 19t-23 61q0 40 22.5 57t61.5 17z
M623 314q47 0 72 -21.5t25 -64.5q0 -83 -97 -83q-99 0 -99 83q0 86 99 86z" />
    <glyph glyph-name="uni277E" unicode="&#x277e;" horiz-adv-x="1133" 
d="M625 831q105 0 193 -35.5t151.5 -99t99.5 -152t36 -194.5t-36 -194t-99.5 -152t-151.5 -99.5t-193 -35.5t-193 35.5t-151.5 99.5t-99.5 152t-36 194t36 194.5t99.5 152t151.5 99t193 35.5zM621 59q5 0 9 4l145 239q18 31 29.5 67.5t11.5 74.5q0 41 -14 73t-39.5 55
t-61 35t-78.5 12q-45 0 -81.5 -13t-63 -37.5t-41 -59.5t-14.5 -78q0 -40 13 -72.5t35.5 -55.5t54 -35t67.5 -12q37 0 67 14l-131 -197q-8 -14 8 -14h84zM613 334q-45 0 -71 23.5t-26 71.5q0 51 28.5 77.5t77.5 26.5q48 0 73.5 -24t25.5 -70q0 -47 -27 -76t-81 -29z" />
    <glyph glyph-name="uni2B51" unicode="&#x2b51;" horiz-adv-x="573" 
d="M552 404q26 0 6 -17l-120 -88l44 -139q6 -25 -15 -10l-115 86l-113 -85q-22 -17 -14 10l42 138l-119 88q-20 17 6 17h147l43 136q3 13 8 13q6 0 9 -13l44 -136h147z" />
    <glyph glyph-name="uni2B52" unicode="&#x2b52;" horiz-adv-x="573" 
d="M551 404q26 0 6 -17l-119 -87l43 -138q6 -27 -15 -10l-114 86l-113 -86q-10 -8 -14 -5.5t0 15.5l43 138l-118 87q-20 17 5 17h146l43 135q4 13 9 13t9 -13l43 -135h146zM385 372l-32 93l-30 -93h-102l84 -61l-30 -95l78 63l79 -63l-30 95l84 61h-101z" />
    <glyph glyph-name="uni2B6E" unicode="&#x2b6e;" horiz-adv-x="938" 
d="M356 634q8 3 11 -5l101 -199q5 -7 -4 -13l-52 -26q-10 -2 -13 5l-44 92q-18 -30 -28.5 -66t-10.5 -78q0 -58 19 -107t53.5 -83.5t83 -54t107.5 -19.5t107.5 19t83.5 54t54.5 83.5t19.5 107.5q0 71 -22.5 123.5t-70.5 94.5q-8 8 0 15l52 46q6 5 11 0q58 -47 90 -117.5
t32 -161.5q0 -79 -25.5 -145t-72.5 -112.5t-113 -72.5t-146 -26t-145.5 26t-112 72.5t-72 112t-25.5 144.5q0 51 11 95.5t31 82.5l-120 -46q-10 -4 -12 5l-21 50q-4 8 5 12z" />
    <glyph glyph-name="uni2B6F" unicode="&#x2b6f;" horiz-adv-x="874" 
d="M935 542q8 -4 4 -12l-20 -50q-3 -8 -12 -5l-120 46q20 -38 30.5 -82.5t10.5 -95.5q0 -79 -25.5 -144.5t-72 -112t-112 -72.5t-145.5 -26t-146 26t-113 72.5t-72.5 112.5t-25.5 145q0 91 32 161.5t90 117.5q5 5 12 0l52 -46q8 -7 0 -15q-49 -42 -71.5 -94.5t-22.5 -123.5
q0 -59 19.5 -107.5t54.5 -83.5t83.5 -54t107.5 -19t107.5 19.5t83 54t53.5 83.5t19 107q0 42 -10 78t-28 66l-44 -92q-4 -7 -13 -5l-53 26q-8 5 -4 13l101 199q3 8 12 5z" />
    </font>
</defs>
</svg>
