<?xml version="1.0" standalone="no"?>
<!DOCTYPE svg PUBLIC "-//W3C//DTD SVG 1.1//EN" "http://www.w3.org/Graphics/SVG/1.1/DTD/svg11.dtd" >
<svg xmlns="http://www.w3.org/2000/svg" xmlns:xlink="http://www.w3.org/1999/xlink" version="1.1">
<metadata>
Created by FontForge 20170731 at Wed Sep 22 08:53:33 2021
 By Aleksey,,,
Copyright (c) 2021 by Hurufatfont Type Foundry-Oguzhan Cengiz. All rights reserved.
</metadata>
<defs>
<font id="Rapor-ExtraLight" horiz-adv-x="1119" >
  <font-face 
    font-family="Rapor ExtLt"
    font-weight="200"
    font-stretch="normal"
    units-per-em="1000"
    panose-1="0 0 0 0 0 0 0 0 0 0"
    ascent="800"
    descent="-200"
    x-height="440"
    cap-height="700"
    bbox="-112 -220 1052 940"
    underline-thickness="50"
    underline-position="-175"
    unicode-range="U+0002-FB06"
  />
<missing-glyph horiz-adv-x="350" 
d="M350 -200h-350v940h350v-940zM50 690v-840h250v840h-250zM175 588l72 72l33 -33l-72 -72l72 -72l-33 -33l-72 72l-72 -72l-33 33l72 72l-72 72l33 33zM175 308l72 72l33 -33l-72 -72l72 -72l-33 -33l-72 72l-72 -72l-33 33l72 72l-72 72l33 33zM175 18l72 72l33 -33
l-72 -72l72 -72l-33 -33l-72 72l-72 -72l-33 33l72 72l-72 72l33 33z" />
    <glyph glyph-name="f_f" unicode="ff" horiz-adv-x="604" 
d="M557 440q7 0 7 -7v-25q0 -7 -7 -7h-131v-394q0 -7 -7 -7h-29q-7 0 -7 7v394h-239v-394q0 -7 -7 -7h-29q-7 0 -7 7v394h-73q-7 0 -7 7v25q0 7 7 7h73v135q0 78 46.5 121.5t122.5 43.5q43 0 79 -16t65 -43q22 29 56.5 44t76.5 15q30 0 53.5 -5.5t49.5 -19.5q7 -4 2 -9
l-10 -21q-3 -7 -10 -4q-20 11 -39.5 16t-45.5 5q-54 0 -87.5 -31t-33.5 -94v-137h131zM383 440v142q0 35 11 63q-21 24 -51.5 40.5t-71.5 16.5q-61 0 -94 -33.5t-33 -98.5v-130h239z" />
    <glyph glyph-name="fi" unicode="fi" horiz-adv-x="484" 
d="M420 440q6 0 6 -7v-426q0 -7 -6 -7h-30q-7 0 -7 7v394h-239v-394q0 -7 -7 -7h-29q-7 0 -7 7v394h-73q-7 0 -7 7v25q0 7 7 7h73v131q0 39 12.5 70t35 53t54 34t70.5 12q82 0 146 -47q5 -5 0 -11l-17 -20q-4 -6 -11 -1q-25 20 -53.5 30.5t-63.5 10.5q-64 0 -97 -35.5
t-33 -99.5v-127h276z" />
    <glyph glyph-name="fl" unicode="fl" horiz-adv-x="488" 
d="M276 440q7 0 7 -7v-25q0 -7 -7 -7h-132v-394q0 -7 -7 -7h-29q-7 0 -7 7v394h-73q-7 0 -7 7v25q0 7 7 7h73v138q0 76 46.5 119t125.5 43q86 0 150 -49q3 -3 3 -7v-677q0 -7 -7 -7h-29q-7 0 -7 7v661q-21 15 -46.5 24.5t-62.5 9.5q-61 0 -95.5 -31.5t-34.5 -97.5v-133h132z
" />
    <glyph glyph-name="f_f_i" unicode="ffi" horiz-adv-x="764" 
d="M700 440q7 0 7 -7v-426q0 -7 -7 -7h-29q-7 0 -7 7v394h-238v-394q0 -7 -7 -7h-29q-7 0 -7 7v394h-239v-394q0 -7 -7 -7h-29q-7 0 -7 7v394h-73q-7 0 -7 7v25q0 7 7 7h73v138q0 78 48 120t124 42q42 0 79 -15.5t67 -41.5q23 29 57.5 43t79.5 14q83 0 144 -48q6 -5 1 -10
l-16 -20q-5 -6 -10 -1q-23 20 -51.5 30.5t-66.5 10.5q-61 0 -96 -32t-35 -97v-133h274zM383 440v138q0 40 13 69q-23 23 -53.5 39t-68.5 16q-63 0 -96.5 -32t-33.5 -97v-133h239z" />
    <glyph glyph-name="f_f_l" unicode="ffl" horiz-adv-x="769" 
d="M557 740q83 0 147 -49q1 -2 2 -3.5t1 -3.5v-677q0 -7 -7 -7h-29q-7 0 -7 7v659q-22 17 -47 26.5t-59 9.5q-63 0 -97.5 -32t-34.5 -97v-133h131q7 0 7 -7v-25q0 -7 -7 -7h-131v-394q0 -7 -7 -7h-29q-7 0 -7 7v394h-239v-394q0 -7 -7 -7h-29q-7 0 -7 7v394h-73q-7 0 -7 7
v25q0 7 7 7h73v138q0 39 13 69t36.5 51t55.5 31.5t70 10.5q41 0 77.5 -15.5t65.5 -41.5q23 29 58 43t80 14zM383 440v138q0 40 13 69q-22 23 -52 39t-68 16q-62 0 -97 -32t-35 -97v-133h239z" />
    <glyph glyph-name="Th.dlig" unicode="Th" horiz-adv-x="1026" 
d="M46 693q0 7 7 7h517v33q0 7 7 7h30q6 0 6 -7v-397q24 55 73.5 85t112.5 30q84 0 129 -47.5t45 -133.5v-263q0 -7 -7 -7h-29q-6 0 -6 7v261q0 144 -138 144q-42 0 -75.5 -14t-57 -39t-35.5 -57.5t-12 -70.5v-224q0 -7 -6 -7h-30q-7 0 -7 7v651h-256v-651q0 -7 -7 -7h-31
q-7 0 -7 7v651h-216q-7 0 -7 7v28z" />
    <glyph glyph-name="f_j" unicode="fj" horiz-adv-x="484" 
d="M420 440q6 0 6 -7v-475q-1 -67 -31.5 -106.5t-92.5 -41.5q-7 0 -7 7v27q0 7 7 7q41 2 61 28.5t20 73.5v448h-239v-394q0 -7 -7 -7h-29q-7 0 -7 7v394h-73q-7 0 -7 7v25q0 7 7 7h73v131q0 39 12.5 70t35 53t54 34t70.5 12q82 0 146 -47q5 -5 0 -11l-17 -20q-4 -6 -11 -1
q-25 20 -53.5 30.5t-63.5 10.5q-64 0 -97 -35.5t-33 -99.5v-127h276z" />
    <glyph glyph-name="f_f_j" unicode="ffj" horiz-adv-x="764" 
d="M108 0q-7 0 -7 7v394h-73q-7 0 -7 7v25q0 7 7 7h73v138q0 78 48 120t124 42q42 0 79 -15.5t67 -41.5q23 29 57.5 43t79.5 14q83 0 144 -48q6 -5 1 -10l-16 -20q-5 -6 -10 -1q-23 20 -51.5 30.5t-66.5 10.5q-61 0 -96 -32t-35 -97v-133h274q7 0 7 -7v-475
q0 -67 -31 -106.5t-93 -41.5q-7 0 -7 7v27q0 7 7 7q41 2 61 28.5t20 73.5v448h-238v-394q0 -7 -7 -7h-29q-7 0 -7 7v394h-239v-394q0 -7 -7 -7h-29zM383 440v138q0 40 13 69q-23 23 -53.5 39t-68.5 16q-63 0 -96.5 -32t-33.5 -97v-133h239z" />
    <glyph glyph-name=".notdef" horiz-adv-x="350" 
d="M350 -200h-350v940h350v-940zM50 690v-840h250v840h-250zM175 588l72 72l33 -33l-72 -72l72 -72l-33 -33l-72 72l-72 -72l-33 33l72 72l-72 72l33 33zM175 308l72 72l33 -33l-72 -72l72 -72l-33 -33l-72 72l-72 -72l-33 33l72 72l-72 72l33 33zM175 18l72 72l33 -33
l-72 -72l72 -72l-33 -33l-72 72l-72 -72l-33 33l72 72l-72 72l33 33z" />
    <glyph glyph-name=".null" horiz-adv-x="500" 
 />
    <glyph glyph-name=".null" horiz-adv-x="500" 
 />
    <glyph glyph-name="uni000D" horiz-adv-x="500" 
 />
    <glyph glyph-name="uni0002" horiz-adv-x="333" 
 />
    <glyph glyph-name="uni0009" unicode="&#x9;" horiz-adv-x="80" 
 />
    <glyph glyph-name="uni000A" unicode="&#xa;" horiz-adv-x="333" 
 />
    <glyph glyph-name="uni000D.1" unicode="&#xd;" horiz-adv-x="333" 
 />
    <glyph glyph-name="space" unicode=" " horiz-adv-x="240" 
 />
    <glyph glyph-name="exclam" unicode="!" horiz-adv-x="260" 
d="M145 203q0 -7 -7 -7h-15q-6 0 -6 7l-9 204v286q0 7 7 7h32q7 0 7 -7v-286zM130 66q17 0 27.5 -10t10.5 -27t-10.5 -27.5t-27.5 -10.5t-27.5 10.5t-10.5 27.5t10.5 27t27.5 10z" />
    <glyph glyph-name="quotedbl" unicode="&#x22;" horiz-adv-x="320" 
d="M117 518q0 -7 -7 -7h-16q-7 0 -7 7l-10 175q0 7 7 7h36q7 0 7 -7zM234 518q0 -7 -7 -7h-16q-7 0 -7 7l-10 175q0 7 7 7h36q7 0 7 -7z" />
    <glyph glyph-name="numbersign" unicode="#" horiz-adv-x="764" 
d="M411 0q-9 0 -7 8l43 177h-207l-43 -179q-1 -6 -7 -6h-25q-9 0 -7 8l42 177h-101q-7 0 -7 7v24q0 7 7 7h112l56 239h-113q-6 0 -6 7l-1 25q0 7 7 7h124l47 193q2 6 7 6h25q9 0 7 -8l-46 -191h206l47 193q2 6 6 6h26q9 0 6 -8l-45 -191h100q7 0 7 -7l1 -25q0 -7 -7 -7h-111
l-58 -239h114q7 0 7 -7v-24q0 -7 -7 -7h-123l-44 -179q-1 -6 -7 -6h-25zM456 223l58 239h-206l-58 -239h206z" />
    <glyph glyph-name="dollar" unicode="$" horiz-adv-x="609" 
d="M512 565q-5 -5 -9 1q-36 51 -89 73t-116 22q-39 0 -71 -7.5t-55 -23.5t-36 -41t-13 -59t13 -57.5t38.5 -40t63 -29.5t86.5 -27q45 -13 85.5 -29t71 -39t48.5 -55t18 -78q0 -45 -18 -78t-48 -54t-70 -31.5t-84 -12.5v-122q0 -7 -7 -7h-23q-7 0 -7 7v122q-141 5 -239 104
q-5 5 0 9l19 24q7 5 11 0q44 -48 103.5 -72.5t125.5 -24.5q97 0 143.5 36t46.5 98q0 37 -15 62.5t-42 44t-64.5 32t-83.5 26.5t-85.5 28t-69 37t-46.5 52.5t-17 73.5q0 41 16 72.5t44.5 53.5t67.5 33.5t85 12.5v112q0 7 7 7h23q7 0 7 -7v-112q56 -5 113.5 -30t97.5 -77
q3 -5 -2 -10z" />
    <glyph glyph-name="percent" unicode="%" horiz-adv-x="680" 
d="M180 700q33 0 60.5 -11t47.5 -31t31 -47t11 -60t-11 -60.5t-31 -47.5t-47.5 -31t-60.5 -11t-60 11t-47 31t-31 47.5t-11 60.5t11 60t31 47t47 31t60 11zM647 671q5 -5 1 -10l-589 -645q-5 -5 -10 0l-15 14q-6 4 0 10l589 643q4 5 9 0zM180 667q-53 0 -83.5 -32t-30.5 -84
q0 -53 30.5 -85t83.5 -32q54 0 84.5 32t30.5 85q0 52 -30.5 84t-84.5 32zM494 289q33 0 60 -11t47 -31t31 -47.5t11 -60.5t-11 -60.5t-31 -47.5t-47 -31t-60 -11t-60 11t-47 31t-31 47.5t-11 60.5t11 60.5t31 47.5t47 31t60 11zM494 256q-54 0 -84.5 -32t-30.5 -85
q0 -52 30.5 -84t84.5 -32t84 32t30 84q0 53 -30 85t-84 32z" />
    <glyph glyph-name="ampersand" unicode="&#x26;" horiz-adv-x="664" 
d="M588 298q6 -2 6 -7q-9 -98 -54 -170l99 -95q4 -4 0 -9l-20 -20q-2 -2 -4.5 -2t-4.5 2l-95 90q-38 -45 -95 -71t-132 -26q-54 0 -98 13.5t-75.5 38t-49 60t-17.5 80.5q0 77 40.5 128.5t109.5 78.5q-35 35 -51 71t-16 78q0 83 52 128.5t138 45.5q85 0 136 -44.5t51 -121.5
q0 -47 -20 -80t-52 -54.5t-73.5 -32t-85.5 -11.5l234 -221q37 63 45 148q0 9 8 7zM245 399q39 0 78.5 6.5t71 22.5t51.5 44.5t20 71.5q0 63 -37.5 96.5t-108.5 33.5q-63 0 -104.5 -33.5t-41.5 -102.5q0 -42 17.5 -73.5t53.5 -65.5zM224 364q-65 -25 -99 -69.5t-34 -107.5
q0 -75 54 -117t146 -42q66 0 115 23t81 62z" />
    <glyph glyph-name="quotesingle" unicode="'" horiz-adv-x="203" 
d="M117 518q0 -7 -7 -7h-16q-7 0 -7 7l-10 175q0 7 7 7h36q7 0 7 -7z" />
    <glyph glyph-name="parenleft" unicode="(" horiz-adv-x="289" 
d="M235 738q2 2 6 2h27q5 0 6 -2.5t-3 -6.5q-45 -51 -75 -107.5t-48.5 -115t-26.5 -118.5t-8 -119q0 -58 8 -117t26.5 -116t48.5 -112.5t75 -106.5q4 -4 3 -6.5t-6 -2.5h-27q-4 0 -6 2q-46 53 -77.5 109.5t-51 115t-28.5 118t-9 117.5q0 59 9 119.5t28.5 119.5t51 116.5
t77.5 110.5z" />
    <glyph glyph-name="parenright" unicode=")" horiz-adv-x="289" 
d="M49 740q3 0 5 -2q46 -53 78 -111t51.5 -118.5t28 -121t8.5 -119.5q0 -58 -8.5 -117t-28 -116.5t-51.5 -113.5t-78 -109q-2 -2 -5 -2h-27q-13 0 -4 9q89 103 124 217t35 231q0 59 -8 120t-27 120t-49 116t-75 108q-9 9 4 9h27z" />
    <glyph glyph-name="asterisk" unicode="*" horiz-adv-x="467" 
d="M253 740q7 0 7 -7l-11 -151l144 55q7 1 10 -5l10 -32q1 -7 -4 -9l-152 -33l100 -114q4 -6 -1 -10l-29 -20q-2 -2 -5 -2t-5 3l-82 126l-79 -132q-3 -6 -10 -2l-29 20q-5 4 -1 10l99 121l-152 33q-7 2 -5 9l11 32q3 6 10 5l144 -55l-12 151q0 7 7 7h35z" />
    <glyph glyph-name="plus" unicode="+" horiz-adv-x="583" 
d="M305 510q7 0 7 -7v-209h207q7 0 7 -7v-23q0 -7 -7 -7h-207v-208q0 -7 -7 -7h-26q-7 0 -7 7v208h-208q-7 0 -7 7v23q0 7 7 7h208v209q0 7 7 7h26z" />
    <glyph glyph-name="comma" unicode="," horiz-adv-x="232" 
d="M115 70q17 0 28.5 -12t11.5 -35q2 -38 -9.5 -77.5t-33.5 -74.5q-5 -5 -10 -2l-14 8q-6 4 -1 10q17 27 24.5 53.5t8.5 54.5q-21 -2 -32.5 9.5t-11.5 26.5q0 18 11 28.5t28 10.5z" />
    <glyph glyph-name="hyphen" unicode="-" horiz-adv-x="438" 
d="M77 287q0 7 7 7h271q7 0 7 -7v-24q0 -7 -7 -7h-271q-7 0 -7 7v24z" />
    <glyph glyph-name="period" unicode="." horiz-adv-x="229" 
d="M115 66q16 0 27 -10t11 -27t-11 -27.5t-27 -10.5q-17 0 -27.5 10.5t-10.5 27.5t10.5 27t27.5 10z" />
    <glyph glyph-name="slash" unicode="/" horiz-adv-x="528" 
d="M469 740q10 0 5 -10l-386 -767q-3 -3 -6 -3h-23q-10 0 -5 10l387 767q2 3 5 3h23z" />
    <glyph glyph-name="zero" unicode="0" horiz-adv-x="649" 
d="M324 700q71 0 119.5 -29t78.5 -77.5t43.5 -112t13.5 -131.5q0 -69 -13.5 -133.5t-43.5 -115t-78.5 -81t-119.5 -30.5q-70 0 -119 30.5t-79 81t-43.5 115t-13.5 133.5q0 68 13.5 131.5t43.5 112t79 77.5t119 29zM324 661q-61 0 -101 -26t-64 -69.5t-34 -99.5t-10 -116
t10 -117.5t34 -103t64 -73t101 -27.5q62 0 102.5 27.5t64.5 73t33.5 103t9.5 117.5t-10 116t-34 99.5t-64.5 69.5t-101.5 26z" />
    <glyph glyph-name="one" unicode="1" horiz-adv-x="334" 
d="M235 688q7 0 7 -7v-674q0 -7 -7 -7h-28q-7 0 -7 7v628l-147 -54q-6 -2 -9 4l-11 26q-4 7 4 9l177 65q8 3 13 3h8z" />
    <glyph glyph-name="two" unicode="2" horiz-adv-x="560" 
d="M100 521q-2 -7 -9 -4l-24 8q-8 0 -6 8q20 79 80.5 123t150.5 44q95 0 147.5 -46.5t52.5 -128.5q0 -28 -7 -56t-22.5 -57t-39.5 -61t-59 -69l-232 -243h355q7 0 7 -7v-25q0 -7 -7 -7h-423q-7 0 -7 7v9q0 3 2 5l272 286q59 63 88.5 113.5t29.5 103.5q0 66 -40.5 101.5
t-115.5 35.5q-77 0 -126.5 -36t-66.5 -104z" />
    <glyph glyph-name="three" unicode="3" horiz-adv-x="588" 
d="M205 333q-7 0 -7 7v24q0 7 7 7h88q39 0 69.5 12.5t51.5 34.5t32 50.5t11 60.5q0 63 -42.5 98t-118.5 35q-79 0 -128 -36.5t-66 -103.5q-2 -7 -8 -4l-25 7q-8 0 -6 8q20 80 80.5 123.5t153.5 43.5q97 0 151 -46.5t54 -123.5q0 -31 -9.5 -59.5t-26.5 -51t-40 -39t-50 -25.5
q66 -12 104.5 -58t38.5 -115q0 -45 -16 -80.5t-45.5 -60t-71 -38t-91.5 -13.5q-45 0 -84 11t-70.5 32t-53.5 51.5t-32 70.5q-2 8 6 8l25 8q6 1 9 -4q16 -66 70.5 -102.5t132.5 -36.5q81 0 128.5 39.5t47.5 114.5q0 66 -43 108.5t-138 42.5h-88z" />
    <glyph glyph-name="four" unicode="4" horiz-adv-x="606" 
d="M564 178q0 -7 -7 -7h-123v-164q0 -7 -7 -7h-29q-7 0 -7 7v164h-332q-7 0 -7 7v9q0 3 2 5l268 495q2 3 6 3h34q11 0 6 -10l-259 -469h282v159q0 7 7 7h29q7 0 7 -7v-159h123q7 0 7 -7v-26z" />
    <glyph glyph-name="five" unicode="5" horiz-adv-x="580" 
d="M467 654q0 -7 -7 -7h-299l-16 -232h120q56 0 102 -13t79 -39t51 -65t18 -92q0 -48 -15 -87.5t-43.5 -68t-69.5 -44.5t-93 -16q-84 0 -145.5 41.5t-82.5 123.5q-2 8 5 8l25 8q7 1 9 -5q15 -66 65.5 -101.5t123.5 -35.5q86 0 131.5 47t45.5 127q0 86 -53.5 129.5
t-159.5 43.5h-151q-7 0 -7 7l23 299q2 7 7 7h330q7 0 7 -7v-28z" />
    <glyph glyph-name="six" unicode="6" horiz-adv-x="612" 
d="M374 688q12 0 6 -11l-189 -266q26 17 58.5 26t68.5 9q48 0 89 -16t71 -45.5t47.5 -71t17.5 -92.5q0 -52 -18 -94.5t-50 -73t-76.5 -47t-97.5 -16.5q-51 0 -93.5 15.5t-73.5 44t-48 69t-17 89.5q0 42 13 85t37 78l214 314q2 3 6 3h35zM304 407q-45 0 -80 -15t-59.5 -41
t-37.5 -62t-13 -78q0 -86 51.5 -134t137.5 -48q44 0 80 13.5t61.5 38t39.5 59t14 77.5q0 89 -52.5 139.5t-141.5 50.5z" />
    <glyph glyph-name="seven" unicode="7" horiz-adv-x="505" 
d="M49 646q-7 0 -7 7v28q0 7 7 7h407q7 0 7 -7v-8q0 -2 -0.5 -4t-0.5 -4l-274 -660q-3 -5 -7 -5h-32q-11 0 -6 9l269 637h-363z" />
    <glyph glyph-name="eight" unicode="8" horiz-adv-x="592" 
d="M296 700q46 0 83.5 -12t64.5 -34.5t42 -55.5t15 -75q0 -60 -31.5 -104.5t-92.5 -62.5q72 -18 109 -66t37 -115q0 -87 -60 -136t-167 -49q-106 0 -166.5 49t-60.5 136q0 67 37.5 115t108.5 66q-61 18 -92.5 62.5t-31.5 104.5q0 42 15 75t42 55.5t64.5 34.5t83.5 12z
M296 661q-71 0 -115.5 -33.5t-44.5 -105.5q0 -37 12.5 -65t34 -46.5t51 -27.5t62.5 -9q34 0 63 9t50.5 27.5t34 46.5t12.5 65q0 72 -44 105.5t-116 33.5zM296 335q-38 0 -71.5 -9t-58 -28.5t-38.5 -48.5t-14 -70q0 -39 13.5 -67.5t38 -47t58 -27t72.5 -8.5t72.5 8.5t58 27
t38 47t13.5 67.5q0 41 -14 70t-38.5 48.5t-58 28.5t-71.5 9z" />
    <glyph glyph-name="nine" unicode="9" horiz-adv-x="612" 
d="M309 698q51 0 94 -15.5t74 -44t48.5 -69t17.5 -89.5q0 -42 -13 -85t-37 -78l-214 -313q-1 -4 -6 -4h-34q-6 0 -8 3t2 8l188 266q-26 -17 -58.5 -26t-67.5 -9q-48 0 -89.5 16t-71.5 45.5t-47.5 71t-17.5 92.5q0 52 17.5 94.5t49.5 73t76 47t97 16.5zM310 659
q-89 0 -142.5 -50.5t-53.5 -137.5q0 -89 52.5 -139.5t142.5 -50.5q44 0 79 15t59.5 41t37.5 62t13 78q0 86 -51.5 134t-136.5 48z" />
    <glyph glyph-name="colon" unicode=":" horiz-adv-x="229" 
d="M115 449q16 0 27 -10.5t11 -27.5t-11 -27t-27 -10q-17 0 -27.5 10t-10.5 27t10.5 27.5t27.5 10.5zM115 66q16 0 27 -10t11 -27t-11 -27.5t-27 -10.5q-17 0 -27.5 10.5t-10.5 27.5t10.5 27t27.5 10z" />
    <glyph glyph-name="semicolon" unicode=";" horiz-adv-x="215" 
d="M96 449q17 0 27.5 -10.5t10.5 -27.5t-10.5 -27t-27.5 -10q-16 0 -27 10t-11 27t11 27.5t27 10.5zM96 70q17 0 30 -12t13 -35q0 -37 -10.5 -76.5t-36.5 -75.5q-5 -5 -10 -2l-13 7q-6 4 -1 11q18 27 26.5 54.5t8.5 53.5q-22 -5 -34 7t-12 29t11 28t28 11z" />
    <glyph glyph-name="less" unicode="&#x3c;" horiz-adv-x="537" 
d="M480 512q0 -6 -4 -7l-354 -159l354 -158q2 -1 3 -3t1 -4v-31q0 -10 -10 -6l-409 191q-4 1 -4 5v12q0 5 4 6l409 191q10 4 10 -6v-31z" />
    <glyph glyph-name="equal" unicode="=" horiz-adv-x="536" 
d="M479 366q0 -7 -7 -7h-408q-7 0 -7 7v23q0 7 7 7h408q7 0 7 -7v-23zM479 162q0 -7 -7 -7h-408q-7 0 -7 7v24q0 7 7 7h408q7 0 7 -7v-24z" />
    <glyph glyph-name="greater" unicode="&#x3e;" horiz-adv-x="537" 
d="M62 505q-5 1 -5 7v31q0 11 10 6l410 -191q3 -1 3 -6v-11q0 -4 -3 -6l-410 -191q-10 -5 -10 6v31q0 2 1 4t4 3l354 158z" />
    <glyph glyph-name="question" unicode="?" horiz-adv-x="519" 
d="M275 202q0 -6 -7 -6h-27q-7 0 -7 6q0 35 5.5 65.5t17.5 56.5t32.5 49t51.5 44q48 32 65.5 63t17.5 75q0 54 -37 85t-105 31q-75 0 -123.5 -36.5t-72.5 -91.5q-2 -8 -9 -3l-24 14q-7 2 -3 8q13 32 34 59.5t49.5 47.5t65 31.5t79.5 11.5q89 0 141 -42t52 -112
q0 -61 -27.5 -100t-80.5 -75q-51 -36 -69 -80t-19 -101zM259 66q17 0 27.5 -10t10.5 -27t-10.5 -27.5t-27.5 -10.5t-27.5 10.5t-10.5 27.5t10.5 27t27.5 10z" />
    <glyph glyph-name="at" unicode="@" horiz-adv-x="868" 
d="M624 411q8 0 6 -8l-49 -243q-10 -47 5 -76.5t52 -29.5q28 0 51.5 17t40.5 46t26.5 68t9.5 84q0 72 -22.5 129t-63 97.5t-97 62t-125.5 21.5q-76 0 -141.5 -26t-112.5 -73t-74 -111.5t-27 -141.5q0 -65 19.5 -121t58 -97.5t94 -65.5t127.5 -26q10 0 7 -9l-4 -16
q-2 -5 -7 -5q-79 1 -140 27t-103 71t-64 106t-22 130q0 85 29 156t80.5 122.5t122.5 80t155 28.5q77 0 140 -24t108 -68t70 -106t25 -138q0 -53 -12 -98.5t-33.5 -79t-52 -52.5t-67.5 -19q-50 0 -73.5 38.5t-12.5 99.5q-23 -38 -64.5 -60.5t-89.5 -22.5q-36 0 -64 12.5
t-46 35.5t-24.5 55t0.5 70t24.5 69t43 53t57.5 33.5t68 11.5q50 0 82.5 -22.5t43.5 -59.5l17 69q2 6 7 6h21zM453 385q-60 0 -102.5 -36.5t-54.5 -98.5q-12 -63 17.5 -101.5t89.5 -38.5q30 0 56.5 10t47.5 28t36 43t21 55q6 31 0.5 56.5t-20 44t-38 28.5t-53.5 10z" />
    <glyph glyph-name="A" unicode="A" horiz-adv-x="745" 
d="M378 705q5 0 6 -4l307 -692q5 -9 -6 -9h-35q-4 0 -6 5l-90 202h-364l-89 -202q-1 -5 -6 -5h-36q-10 0 -6 9l308 692q1 4 8 4h9zM537 248l-164 377l-165 -377h329z" />
    <glyph glyph-name="B" unicode="B" horiz-adv-x="622" 
d="M92 693q0 7 7 7h214q108 0 162 -47t54 -121q0 -59 -31.5 -104t-88.5 -66q66 -14 105.5 -61t39.5 -116q0 -85 -58 -135t-160 -50h-237q-7 0 -7 7v686zM137 378h190q32 0 60 10.5t49 30t33 46.5t12 61q0 29 -9.5 53.5t-30.5 42t-54.5 27t-81.5 9.5h-168v-280zM137 42h196
q85 0 129.5 39.5t44.5 106.5q0 71 -48 110t-128 39h-194v-295z" />
    <glyph glyph-name="C" unicode="C" horiz-adv-x="738" 
d="M680 590q4 -5 -1 -10l-22 -18q-4 -2 -11 1q-42 53 -102 80t-132 27q-66 0 -120.5 -23.5t-93.5 -66t-60 -101t-21 -129.5q0 -70 21 -129t60 -101t93.5 -65.5t120.5 -23.5q73 0 133 27.5t103 78.5q5 5 10 2l23 -18q4 -4 1 -10q-50 -60 -118.5 -91.5t-151.5 -31.5
q-76 0 -139 27t-108.5 75t-70.5 114.5t-25 145.5t25 145.5t70.5 114.5t108.5 75t139 27q82 0 151 -32t117 -90z" />
    <glyph glyph-name="D" unicode="D" horiz-adv-x="752" 
d="M92 693q0 7 7 7h227q88 0 154.5 -25.5t111.5 -71t68 -108t23 -135.5q0 -74 -23 -139.5t-68.5 -114.5t-112 -77.5t-153.5 -28.5h-227q-7 0 -7 7v686zM137 42h189q77 0 135 25t97 68t58.5 101t19.5 124t-19.5 120.5t-58 94t-96.5 61.5t-136 22h-189v-616z" />
    <glyph glyph-name="E" unicode="E" horiz-adv-x="575" 
d="M92 693q0 7 7 7h393q7 0 7 -7v-28q0 -7 -7 -7h-355v-280h318q7 0 7 -7v-26q0 -7 -7 -7h-318v-296h359q7 0 7 -7v-28q0 -7 -7 -7h-397q-7 0 -7 7v686z" />
    <glyph glyph-name="F" unicode="F" horiz-adv-x="565" 
d="M482 320q0 -7 -7 -7h-338v-306q0 -7 -7 -7h-31q-7 0 -7 7v686q0 7 7 7h387q7 0 7 -7v-28q0 -7 -7 -7h-349v-304h338q7 0 7 -7v-27z" />
    <glyph glyph-name="G" unicode="G" horiz-adv-x="816" 
d="M421 305q-7 0 -7 6v27q0 7 7 7h317q6 0 7 -6q0 -6 0.5 -11.5t0.5 -13.5q0 -74 -24 -134.5t-66.5 -103t-102 -65.5t-131.5 -23q-78 0 -143 27t-111.5 75.5t-72.5 115.5t-26 146q0 78 25.5 144t71.5 114t110.5 75t143.5 27q84 0 153 -30.5t117 -91.5q4 -6 -1 -11l-23 -17
q-5 -3 -10 2q-42 54 -102.5 80t-132.5 26q-70 0 -126.5 -23.5t-96 -65.5t-60.5 -100.5t-21 -128.5q0 -71 21.5 -130t61.5 -101.5t97 -66t127 -23.5q64 0 115 20t87 56t55 86.5t19 111.5h-279z" />
    <glyph glyph-name="H" unicode="H" horiz-adv-x="695" 
d="M596 700q7 0 7 -7v-686q0 -7 -7 -7h-31q-7 0 -7 7v315h-421v-315q0 -7 -7 -7h-31q-7 0 -7 7v686q0 7 7 7h31q7 0 7 -7v-329h421v329q0 7 7 7h31z" />
    <glyph glyph-name="I" unicode="I" horiz-adv-x="229" 
d="M130 700q7 0 7 -7v-686q0 -7 -7 -7h-31q-7 0 -7 7v686q0 7 7 7h31z" />
    <glyph glyph-name="J" unicode="J" horiz-adv-x="228" 
d="M129 700q7 0 7 -7v-686q0 -91 -37.5 -138t-124.5 -49q-7 0 -7 7v28q0 7 7 7q34 0 56.5 10t36 29t19.5 46t6 60v686q0 7 7 7h30z" />
    <glyph glyph-name="K" unicode="K" horiz-adv-x="596" 
d="M92 693q0 7 7 7h31q7 0 7 -7v-321l360 326q2 2 5 2h41q19 0 5 -12l-362 -323l373 -353q12 -12 -5 -12h-43q-4 0 -7 3l-367 351v-347q0 -7 -7 -7h-31q-7 0 -7 7v686z" />
    <glyph glyph-name="L" unicode="L" horiz-adv-x="566" 
d="M130 700q7 0 7 -7v-651h360q7 0 7 -7v-28q0 -7 -7 -7h-398q-7 0 -7 7v686q0 7 7 7h31z" />
    <glyph glyph-name="M" unicode="M" horiz-adv-x="908" 
d="M707 705q6 0 7 -6l131 -691q2 -8 -6 -8h-31q-5 0 -7 6l-112 595l-225 -529q-1 -4 -7 -4h-5q-6 0 -7 4l-232 529l-105 -595q-1 -6 -7 -6h-31q-9 0 -7 8l125 691q2 6 7 6h9q5 0 6 -4l244 -551l237 551q1 4 7 4h9z" />
    <glyph glyph-name="N" unicode="N" horiz-adv-x="706" 
d="M607 700q7 0 7 -7v-691q0 -7 -7 -7h-7q-5 0 -9 5l-455 608v-601q0 -7 -7 -7h-30q-7 0 -7 7v691q0 7 7 7h8q5 0 7 -4l457 -608v600q0 7 7 7h29z" />
    <glyph glyph-name="O" unicode="O" horiz-adv-x="843" 
d="M421 712q76 0 140.5 -27.5t111.5 -76.5t73.5 -115t26.5 -143t-26.5 -143t-73.5 -115t-111.5 -76.5t-140.5 -27.5t-140.5 27.5t-111.5 76.5t-73.5 115t-26.5 143t26.5 143t73.5 115t111.5 76.5t140.5 27.5zM421 670q-67 0 -123 -24.5t-96 -67t-62.5 -101t-22.5 -127.5
t22.5 -127.5t62.5 -101t96 -67t123 -24.5q68 0 124 24.5t96 67t62.5 101t22.5 127.5t-22.5 127.5t-62.5 101t-96 67t-124 24.5z" />
    <glyph glyph-name="P" unicode="P" horiz-adv-x="594" 
d="M92 693q0 7 7 7h210q112 0 174 -57.5t62 -157.5t-62 -158t-174 -58h-172v-262q0 -7 -7 -7h-31q-7 0 -7 7v686zM137 310h164q98 0 147.5 45t49.5 130t-49.5 129.5t-147.5 44.5h-164v-349z" />
    <glyph glyph-name="Q" unicode="Q" horiz-adv-x="841" 
d="M421 712q76 0 140 -27.5t110.5 -76.5t73 -115t26.5 -143q0 -73 -24 -136.5t-66.5 -111.5t-101 -78t-128.5 -35l88 -159q5 -10 -6 -10h-35q-4 0 -6 3l-89 165q-73 3 -134 32t-105.5 77.5t-69.5 113t-25 139.5q0 77 26.5 143t73.5 115t111.5 76.5t140.5 27.5zM421 671
q-67 0 -123 -24.5t-96.5 -67.5t-63 -101.5t-22.5 -127.5t22.5 -127.5t63 -101t96.5 -67t123 -24.5t123 24.5t96 67t62.5 101t22.5 127.5t-22.5 127.5t-62.5 101.5t-96 67.5t-123 24.5z" />
    <glyph glyph-name="R" unicode="R" horiz-adv-x="627" 
d="M137 7q0 -7 -7 -7h-31q-7 0 -7 7v686q0 7 7 7h213q112 0 172.5 -51.5t60.5 -148.5q0 -106 -57 -160t-167 -62l212 -267q11 -11 -5 -11h-42q-2 0 -5 3l-212 270h-132v-266zM137 314h131q122 0 176 44t54 141q0 160 -195 160h-166v-345z" />
    <glyph glyph-name="S" unicode="S" horiz-adv-x="587" 
d="M469 592q-5 -4 -10 1q-34 42 -79.5 60t-106.5 18q-80 0 -123 -35.5t-43 -94.5q0 -31 10.5 -55.5t33 -44t59.5 -35t89 -29.5q115 -29 170.5 -74.5t55.5 -126.5q0 -88 -61.5 -138t-166.5 -50q-79 0 -141 29.5t-105 85.5q-4 5 0 9l22 22q6 6 10 -2q35 -48 89.5 -75.5
t124.5 -27.5q93 0 137 40.5t44 103.5q0 32 -10 56.5t-33.5 44t-61 35t-92.5 28.5q-112 26 -166.5 75t-54.5 127q0 38 15 69.5t43 54.5t67 36t88 13q70 0 123 -21t95 -69q5 -4 -1 -10z" />
    <glyph glyph-name="T" unicode="T" horiz-adv-x="583" 
d="M46 693q0 7 7 7h477q7 0 7 -7v-28q0 -7 -7 -7h-216v-651q0 -7 -7 -7h-31q-7 0 -7 7v651h-216q-7 0 -7 7v28z" />
    <glyph glyph-name="U" unicode="U" horiz-adv-x="677" 
d="M582 700q7 0 7 -7v-440q0 -62 -17.5 -111t-50 -83.5t-78.5 -52.5t-104 -18t-104.5 18t-79 52.5t-50 83.5t-17.5 111v440q0 7 7 7h31q7 0 7 -7v-434q0 -109 53 -169t153 -60q99 0 152.5 60t53.5 169v434q0 7 7 7h30z" />
    <glyph glyph-name="V" unicode="V" horiz-adv-x="719" 
d="M669 700q11 0 7 -9l-306 -692q-1 -4 -6 -4h-9q-4 0 -7 4l-304 692q-5 9 6 9h34q4 0 6 -4l269 -620l270 620q2 4 6 4h34z" />
    <glyph glyph-name="W" unicode="W" horiz-adv-x="1057" 
d="M996 700q8 0 5 -9l-228 -691q-1 -5 -5 -5h-10q-5 0 -6 4l-224 594l-224 -594q-1 -4 -6 -4h-10q-5 0 -6 5l-226 691q-3 9 5 9h34q5 0 6 -5l196 -605l222 588q1 4 6 4h6q5 0 6 -4l222 -588l197 605q1 5 6 5h34z" />
    <glyph glyph-name="X" unicode="X" horiz-adv-x="653" 
d="M596 700q12 0 6 -11l-247 -339l247 -339q7 -11 -5 -11h-38q-3 0 -5 3l-227 316l-227 -316q-3 -3 -6 -3h-37q-12 0 -6 11l247 339l-246 339q-8 11 5 11h37q3 0 6 -3l227 -316l227 316q2 3 5 3h37z" />
    <glyph glyph-name="Y" unicode="Y" horiz-adv-x="648" 
d="M598 700q11 0 6 -10l-257 -403v-280q0 -7 -7 -7h-31q-6 0 -6 7v280l-258 403q-7 10 6 10h37q3 0 6 -3l231 -369l230 369q3 3 6 3h37z" />
    <glyph glyph-name="Z" unicode="Z" horiz-adv-x="650" 
d="M88 658q-7 0 -7 7v28q0 7 7 7h475q7 0 7 -7v-8q0 -4 -2 -7l-431 -637l434 1q7 0 7 -7v-28q0 -7 -7 -7h-492q-7 0 -7 7v9q0 3 3 7l429 635h-416z" />
    <glyph glyph-name="bracketleft" unicode="[" horiz-adv-x="311" 
d="M107 733q0 7 7 7h175q7 0 7 -7v-20q0 -7 -7 -7h-141v-862h141q7 0 7 -7v-20q0 -7 -7 -7h-175q-7 0 -7 7v916z" />
    <glyph glyph-name="backslash" unicode="\" horiz-adv-x="528" 
d="M54 730q-5 10 6 10h23q5 0 6 -3l385 -767q5 -10 -6 -10h-23q-4 0 -6 3z" />
    <glyph glyph-name="bracketright" unicode="]" horiz-adv-x="311" 
d="M197 740q7 0 7 -7v-916q0 -7 -7 -7h-175q-7 0 -7 7v20q0 7 7 7h142v862h-142q-7 0 -7 7v20q0 7 7 7h175z" />
    <glyph glyph-name="asciicircum" unicode="^" horiz-adv-x="512" 
d="M453 360q5 -10 -6 -10h-31q-6 0 -7 4l-153 298l-152 -298q-1 -4 -7 -4h-32q-11 0 -6 10l186 349q2 3 6 3h11q5 0 6 -3z" />
    <glyph glyph-name="underscore" unicode="_" horiz-adv-x="454" 
d="M454 -123q0 -7 -7 -7h-440q-7 0 -7 7v21q0 7 7 7h440q7 0 7 -7v-21z" />
    <glyph glyph-name="grave" unicode="`" horiz-adv-x="307" 
d="M212 580q2 -4 0.5 -7t-7.5 -3h-28q-3 0 -5 3l-77 116q-7 11 6 11h34q3 0 6 -3z" />
    <glyph glyph-name="a" unicode="a" horiz-adv-x="464" 
d="M239 452q36 0 67 -9.5t53.5 -29t35 -49t12.5 -70.5v-287q0 -7 -7 -7h-16q-7 0 -7 7l-7 80q-28 -51 -79 -74.5t-106 -23.5q-69 0 -105.5 31t-36.5 85q0 31 12 53.5t33.5 38t50.5 24.5t63 13l163 17v45q0 63 -35.5 90.5t-91.5 27.5q-39 0 -76 -11.5t-68 -34.5q-6 -6 -10 1
l-14 20q-3 6 2 10q77 53 167 53zM213 201q-55 -6 -90 -25.5t-35 -69.5q0 -82 105 -82q33 0 64 10t55 29t38.5 47t14.5 64v43z" />
    <glyph glyph-name="b" unicode="b" horiz-adv-x="558" 
d="M295 452q47 0 86.5 -18t68 -49t44.5 -73.5t16 -91.5t-16 -91t-44.5 -73.5t-68.5 -49.5t-87 -18q-30 0 -59 8t-54.5 24.5t-45.5 41.5t-32 59l-10 -114q0 -7 -7 -7h-17q-7 0 -7 7v726q0 7 7 7h29q7 0 7 -7v-408q12 33 32.5 56.5t45.5 39.5t54 23.5t58 7.5zM287 414
q-40 0 -73.5 -14.5t-57.5 -41t-37.5 -62t-13.5 -77.5q0 -41 13.5 -76.5t37.5 -61.5t57 -40.5t72 -14.5q41 0 74.5 15t57 41.5t36 62t12.5 75.5q0 41 -12.5 76.5t-36 61.5t-56 41t-73.5 15z" />
    <glyph glyph-name="c" unicode="c" horiz-adv-x="485" 
d="M447 355q4 -4 -2 -9l-23 -14q-6 -3 -9 2q-24 36 -60 58t-86 22q-40 0 -72.5 -15t-55 -41.5t-34.5 -61.5t-12 -76q0 -40 12 -75.5t35 -61.5t55.5 -41.5t73.5 -15.5q49 0 84.5 21.5t58.5 59.5q4 6 9 2l22 -14q6 -4 3 -10q-29 -44 -74 -70.5t-106 -26.5q-49 0 -89 18
t-68.5 49.5t-44.5 73.5t-16 91t16 91.5t44.5 73.5t69 49t89.5 18q58 0 104.5 -25.5t75.5 -71.5z" />
    <glyph glyph-name="d" unicode="d" horiz-adv-x="557" 
d="M263 452q29 0 57.5 -7.5t53.5 -23t45.5 -39t32.5 -55.5v406q0 7 7 7h29q7 0 7 -7v-726q0 -7 -7 -7h-17q-7 0 -7 7l-10 112q-12 -33 -32 -58t-45.5 -41t-54.5 -24t-59 -8q-47 0 -86.5 18t-68 49.5t-44.5 73.5t-16 91t16 91.5t44.5 73.5t68 49t86.5 18zM271 413
q-41 0 -74 -14.5t-56 -40.5t-35.5 -61.5t-12.5 -76.5q0 -40 12.5 -75t36 -61.5t56.5 -41.5t75 -15q39 0 72 14.5t56.5 40.5t37 61t13.5 76q0 42 -13.5 77.5t-37.5 61.5t-57 40.5t-73 14.5z" />
    <glyph glyph-name="e" unicode="e" horiz-adv-x="517" 
d="M474 234q-1 -17 -2.5 -23t-8.5 -6h-370q1 -38 14 -70.5t36 -56.5t54.5 -38t70.5 -14q50 0 87.5 21t61.5 58q6 6 10 1l19 -15q6 -5 2 -10q-30 -42 -75 -67.5t-105 -25.5q-49 0 -90 18t-69.5 49.5t-44.5 73.5t-16 91t15.5 91.5t44 73.5t69 49t90.5 18q48 0 87.5 -16t67 -45
t41.5 -69t11 -88zM432 240q2 37 -8.5 68.5t-31.5 55t-52.5 37t-71.5 13.5q-39 0 -71 -13.5t-54.5 -36.5t-35.5 -55t-14 -69h339z" />
    <glyph glyph-name="f" unicode="f" horiz-adv-x="320" 
d="M282 408q0 -7 -7 -7h-131v-394q0 -7 -7 -7h-29q-7 0 -7 7v394h-73q-7 0 -7 7v25q0 7 7 7h73v121q0 81 43.5 122.5t114.5 41.5q27 0 53 -5t54 -19q6 -4 2 -9l-11 -22q-3 -6 -10 -3q-38 20 -87 20q-54 0 -85 -31.5t-31 -99.5v-116h131q7 0 7 -7v-25z" />
    <glyph glyph-name="g" unicode="g" horiz-adv-x="504" 
d="M495 408q0 -7 -7 -7l-114 -1q29 -20 45 -49.5t16 -70.5q0 -35 -13 -63t-36 -48t-55.5 -30.5t-70.5 -10.5q-63 0 -107 23q-25 -14 -25 -40q0 -19 12 -31.5t46 -17.5l157 -22q78 -10 110 -35.5t32 -64.5q0 -60 -62 -96.5t-171 -36.5q-115 0 -174 34t-59 94q0 38 23 68.5
t65 48.5q-21 20 -21 50q0 41 41 65q-53 42 -53 122q0 72 46.5 117.5t132.5 45.5q40 0 79 -12h156q7 0 7 -7v-25zM261 415q-69 0 -106.5 -33t-37.5 -93q0 -33 10.5 -56.5t29 -38.5t44.5 -22t56 -7q60 0 97.5 32t37.5 92q0 58 -35.5 92t-95.5 34zM137 33q-29 -12 -50.5 -35.5
t-21.5 -58.5q0 -48 49 -71.5t140 -23.5q94 0 139.5 27t45.5 65q0 28 -23 42.5t-77 21.5l-159 22q-24 3 -43 11z" />
    <glyph glyph-name="h" unicode="h" horiz-adv-x="518" 
d="M99 740q6 0 6 -7v-397q24 55 73.5 85.5t112.5 30.5q84 0 129 -48t45 -134v-263q0 -7 -7 -7h-29q-7 0 -7 7v261q0 145 -137 145q-42 0 -75.5 -14.5t-57 -39t-35.5 -57.5t-12 -71v-224q0 -7 -6 -7h-30q-7 0 -7 7v726q0 7 7 7h30z" />
    <glyph glyph-name="i" unicode="i" horiz-adv-x="157" 
d="M94 440q6 0 6 -7v-426q0 -7 -6 -7h-30q-7 0 -7 7v426q0 7 7 7h30zM78 615q14 0 22 -8t8 -22t-8 -22t-22 -8q-13 0 -21.5 8t-8.5 22t8.5 22t21.5 8z" />
    <glyph glyph-name="j" unicode="j" horiz-adv-x="151" 
d="M91 440q7 0 7 -7v-475q0 -67 -31 -106.5t-93 -41.5q-7 0 -7 7v27q0 7 7 7q41 2 61 28.5t20 73.5v480q0 7 7 7h29zM76 615q14 0 22 -8t8 -22t-8 -22t-22 -8q-13 0 -21.5 8t-8.5 22t8.5 22t21.5 8z" />
    <glyph glyph-name="k" unicode="k" horiz-adv-x="442" 
d="M62 733q0 7 7 7h30q6 0 6 -7v-494l243 198q4 3 9 3h43q5 0 6.5 -3t-3.5 -8l-249 -197l261 -223q4 -3 3 -6t-6 -3h-46q-5 0 -10 4l-251 216v-213q0 -7 -6 -7h-30q-7 0 -7 7v726z" />
    <glyph glyph-name="l" unicode="l" horiz-adv-x="167" 
d="M105 7q0 -7 -6 -7h-30q-7 0 -7 7v726q0 7 7 7h30q6 0 6 -7v-726z" />
    <glyph glyph-name="m" unicode="m" horiz-adv-x="799" 
d="M57 433q0 7 7 7h17q7 0 7 -6l9 -104q22 58 67 90t105 32q61 0 98.5 -31.5t49.5 -90.5q21 59 67 90.5t104 31.5q77 0 117.5 -46.5t40.5 -131.5v-267q0 -7 -7 -7h-29q-7 0 -7 7v263q0 68 -30.5 105.5t-93.5 37.5q-37 0 -66 -13.5t-49 -37t-30.5 -55.5t-10.5 -70v-230
q0 -7 -7 -7h-29q-6 0 -6 7v263q0 69 -29 106t-92 37q-37 0 -67 -14.5t-50.5 -39t-31.5 -57.5t-11 -71v-224q0 -7 -7 -7h-29q-7 0 -7 7v426z" />
    <glyph glyph-name="n" unicode="n" horiz-adv-x="513" 
d="M81 440q7 0 7 -6l9 -104q23 58 73.5 90t114.5 32q84 0 129.5 -48t45.5 -134v-263q0 -7 -7 -7h-30q-7 0 -7 7v261q0 69 -34 107t-104 38q-42 0 -75 -14.5t-56 -39t-35 -57.5t-12 -71v-224q0 -7 -6 -7h-30q-7 0 -7 7v426q0 7 7 7h17z" />
    <glyph glyph-name="o" unicode="o" horiz-adv-x="546" 
d="M273 452q50 0 91 -18t71 -49t46.5 -73.5t16.5 -91.5t-16.5 -91.5t-46.5 -73.5t-71 -49t-91 -18q-49 0 -90.5 18t-71.5 49t-46.5 73.5t-16.5 91.5t16.5 91.5t46.5 73.5t71.5 49t90.5 18zM273 414q-42 0 -75 -14.5t-56.5 -40.5t-36 -61.5t-12.5 -77.5q0 -41 12.5 -76.5
t36 -61.5t56.5 -41t75 -15q41 0 74.5 15t57 41t36 61.5t12.5 76.5q0 42 -12.5 77.5t-36 61.5t-57 40.5t-74.5 14.5z" />
    <glyph glyph-name="p" unicode="p" horiz-adv-x="553" 
d="M289 452q47 0 87 -18t68.5 -49.5t44.5 -73.5t16 -91t-16 -91.5t-44.5 -73.5t-68 -49t-86.5 -18q-29 0 -58 7.5t-54 23.5t-45.5 39.5t-32.5 56.5v-298q0 -7 -7 -7h-29q-7 0 -7 7v616q0 7 7 7h17q7 0 7 -6l10 -115q12 34 32 59t45.5 41.5t54.5 24.5t59 8zM280 414
q-39 0 -72 -14.5t-57 -40t-37.5 -60.5t-13.5 -77t13.5 -77.5t37.5 -62t57.5 -41.5t73.5 -15q41 0 73.5 15t56 41t36 61.5t12.5 76.5t-12.5 76t-36 61.5t-57 41.5t-74.5 15z" />
    <glyph glyph-name="q" unicode="q" horiz-adv-x="553" 
d="M264 452q29 0 58 -8t54.5 -23.5t46 -40t32.5 -57.5l10 111q0 6 7 6h17q7 0 7 -7v-616q0 -7 -7 -7h-30q-7 0 -7 7v294q-12 -31 -32.5 -54t-45.5 -38.5t-53 -23t-57 -7.5q-47 0 -86.5 18t-68.5 49t-45 73.5t-16 91.5t16 91t45 73.5t68.5 49.5t86.5 18zM273 414
q-41 0 -74.5 -15t-57 -41.5t-36 -61.5t-12.5 -76t12.5 -76.5t36 -61.5t56.5 -41t74 -15q40 0 73 15t57 41.5t37.5 62t13.5 77.5t-13.5 77t-37.5 60.5t-57 40t-72 14.5z" />
    <glyph glyph-name="r" unicode="r" horiz-adv-x="322" 
d="M57 433q0 7 7 7h17q7 0 7 -6l9 -109q22 58 71 91t121 35q6 0 6 -7v-30q0 -8 -7 -8q-47 1 -82 -13t-58.5 -39t-35.5 -59.5t-12 -75.5v-212q0 -7 -6 -7h-30q-7 0 -7 7v426z" />
    <glyph glyph-name="s" unicode="s" horiz-adv-x="447" 
d="M370 366q-4 -4 -11 -1q-26 23 -64 36.5t-76 13.5q-57 0 -91 -21.5t-34 -59.5q0 -18 7 -33t24 -26.5t46 -20t72 -13.5q90 -12 127.5 -42.5t37.5 -80.5q0 -29 -13 -53t-35.5 -41t-54 -26.5t-69.5 -9.5q-62 0 -111 17.5t-81 42.5q-5 3 -2 9l14 21q4 6 11 1q26 -20 69.5 -37
t100.5 -17q55 0 90.5 25.5t35.5 64.5q0 17 -6.5 31.5t-23 26t-45 20.5t-73.5 15q-93 12 -129.5 44.5t-36.5 80.5q0 53 45 86t124 33q47 0 91.5 -15t76.5 -42q6 -4 1 -9z" />
    <glyph glyph-name="t" unicode="t" horiz-adv-x="334" 
d="M137 547q7 0 7 -7v-100h137q7 0 7 -7v-25q0 -7 -7 -7h-137v-277q0 -43 15 -69.5t57 -26.5q14 0 32.5 5.5t37.5 13.5q7 3 10 -4l9 -23q3 -7 -3 -9q-20 -10 -44 -16.5t-45 -6.5q-31 0 -52 9.5t-34.5 26.5t-19.5 41t-6 53v283h-73q-7 0 -7 7v25q0 7 7 7h74l20 101q2 6 7 6h8
z" />
    <glyph glyph-name="u" unicode="u" horiz-adv-x="512" 
d="M448 440q7 0 7 -7v-426q0 -7 -7 -7h-17q-7 0 -7 7l-9 104q-23 -58 -72.5 -90.5t-115.5 -32.5q-84 0 -129 48t-45 135v262q0 7 7 7h30q6 0 6 -7v-258q0 -69 34 -107.5t105 -38.5q42 0 75 14t55.5 38.5t34 57.5t11.5 70v224q0 7 7 7h30z" />
    <glyph glyph-name="v" unicode="v" horiz-adv-x="473" 
d="M20 430q-5 10 6 10h35q4 0 7 -4l168 -367l170 367q1 4 7 4h34q12 0 7 -10l-206 -430q-1 -2 -3 -3t-4 -1h-10q-4 0 -7 4z" />
    <glyph glyph-name="w" unicode="w" horiz-adv-x="764" 
d="M738 440q11 0 7 -9l-179 -431q-1 -2 -3 -3t-4 -1h-10q-6 0 -7 4l-161 371l-159 -371q-1 -4 -7 -4h-10q-4 0 -7 4l-179 431q-4 9 7 9h33q5 0 7 -4l146 -365l158 365q1 4 6 4h11q4 0 7 -4l158 -365l145 365q4 4 7 4h34z" />
    <glyph glyph-name="x" unicode="x" horiz-adv-x="461" 
d="M419 440q14 0 5 -11l-165 -205l171 -213q11 -11 -5 -11h-38q-4 0 -6 3l-152 195l-151 -195q-1 -3 -6 -3h-36q-15 0 -6 11l171 213l-165 205q-9 11 5 11h37q4 0 6 -2l147 -188l146 188q2 2 5 2h37z" />
    <glyph glyph-name="y" unicode="y" horiz-adv-x="463" 
d="M19 430q-3 10 7 10h35q6 0 7 -4l178 -381l152 381q1 4 6 4h33q11 0 6 -9l-254 -617q-1 -2 -3 -3t-4 -1h-34q-11 0 -6 9l80 186z" />
    <glyph glyph-name="z" unicode="z" horiz-adv-x="448" 
d="M53 402q-7 0 -7 7v24q0 7 7 7h343q6 0 6 -7v-8q0 -5 -5 -11l-294 -376h301q7 0 7 -7v-24q0 -7 -7 -7h-360q-7 0 -7 7v8q0 2 1 5t5 8l294 374h-284z" />
    <glyph glyph-name="braceleft" unicode="{" horiz-adv-x="295" 
d="M280 714q0 -7 -7 -7q-63 -1 -87.5 -27t-24.5 -88v-206q0 -48 -23.5 -77.5t-66.5 -34.5q43 -5 66.5 -34.5t23.5 -78.5v-203q0 -62 24.5 -88t87.5 -27q7 0 7 -7v-19q0 -7 -7 -7q-81 2 -116.5 38.5t-35.5 109.5v202q0 51 -23 73t-76 23q-7 0 -7 7v24q0 7 7 7q53 1 76 23.5
t23 73.5v201q0 73 35.5 109.5t116.5 38.5q7 0 7 -7v-19z" />
    <glyph glyph-name="bar" unicode="|" horiz-adv-x="255" 
d="M147 -203q0 -7 -6 -7h-27q-7 0 -7 7v966q0 7 7 7h27q6 0 6 -7v-966z" />
    <glyph glyph-name="braceright" unicode="}" horiz-adv-x="294" 
d="M22 707q-7 0 -7 7v19q0 7 7 7q81 -2 116.5 -38.5t35.5 -109.5v-201q0 -51 22.5 -73.5t75.5 -23.5q7 0 7 -7v-24q0 -7 -7 -7q-53 -1 -75.5 -23t-22.5 -73v-202q0 -73 -35.5 -109.5t-116.5 -38.5q-7 0 -7 7v19q0 7 7 7q62 1 86.5 27t24.5 88v203q0 49 24 78.5t67 34.5
q-43 5 -67 34.5t-24 77.5v206q0 62 -24.5 88t-86.5 27z" />
    <glyph glyph-name="asciitilde" unicode="~" horiz-adv-x="554" 
d="M492 345q6 0 4 -7q-7 -52 -33 -81t-74 -29q-38 0 -66 15t-54 35q-23 16 -46 29t-52 13q-66 0 -78 -80q-2 -8 -9 -7l-21 5q-7 2 -5 8q8 51 35 80t75 29q37 0 64.5 -15t59.5 -38q18 -13 40.5 -25t51.5 -12q65 0 77 79q2 9 9 7z" />
    <glyph glyph-name="exclamdown" unicode="&#xa1;" horiz-adv-x="264" 
d="M132 472q17 0 28.5 -10.5t11.5 -29.5q0 -18 -11.5 -28.5t-28.5 -10.5t-28.5 10.5t-11.5 28.5q0 19 11.5 29.5t28.5 10.5zM138 262q7 0 7 -7l9 -183v-267q0 -7 -7 -7h-32q-7 0 -7 7v267l10 183q0 7 6 7h14z" />
    <glyph glyph-name="cent" unicode="&#xa2;" horiz-adv-x="537" 
d="M305 720q7 0 7 -7v-111q60 -4 108 -31.5t80 -76.5q3 -5 -2 -10l-24 -15q-5 -4 -10 2q-31 48 -75 70.5t-103 22.5q-44 0 -80 -16t-61.5 -44.5t-39.5 -68t-14 -85.5q0 -49 15 -88.5t42.5 -67.5t66 -43t85.5 -15q55 0 96.5 25.5t67.5 67.5q5 6 10 2l24 -15q5 -5 2 -10
q-33 -48 -80.5 -76t-107.5 -32v-111q0 -7 -7 -7h-24q-7 0 -7 7v111q-51 4 -93 24t-71.5 53.5t-45.5 78t-16 96.5t16 96.5t45.5 78t71.5 53.5t93 24v111q0 7 7 7h24z" />
    <glyph glyph-name="sterling" unicode="&#xa3;" horiz-adv-x="733" 
d="M552 362q0 -7 -7 -7h-253q-2 -53 -5.5 -108t-9.5 -106q26 -15 50.5 -35t49 -37.5t50 -30t52.5 -12.5q53 0 88 31.5t51 107.5q2 8 9 5l23 -7q7 -2 5 -8q-12 -52 -30.5 -84.5t-41.5 -51t-49.5 -25t-56.5 -6.5q-31 0 -58 12t-52.5 29.5t-49.5 37t-49 34.5q-5 -23 -13 -43.5
t-20 -36t-29.5 -24.5t-41.5 -9q-22 0 -38.5 7.5t-27.5 19.5t-16 27.5t-5 30.5q0 48 31 73t76 25q14 0 27 -3t26 -8q4 34 7.5 86t5.5 109h-95q-7 0 -7 7v22q0 7 7 7h96l8 106q6 100 51 151.5t125 51.5q81 0 123.5 -39.5t58.5 -122.5q1 -5 -4 -8l-25 -8q-7 -2 -9 6
q-11 66 -43.5 100t-98.5 34q-69 0 -100 -42.5t-37 -123.5l-7 -105h252q7 0 7 -7v-22zM232 123q-22 12 -49 12q-36 0 -52 -18t-16 -43q0 -23 13 -37t36 -14q30 0 45.5 24.5t22.5 75.5z" />
    <glyph glyph-name="currency" unicode="&#xa4;" horiz-adv-x="614" 
d="M307 549q35 0 69 -13t59 -35l71 72q5 5 9 0l18 -18q5 -5 0 -10l-70 -69q23 -26 36.5 -60.5t13.5 -71.5q0 -36 -13 -69.5t-36 -59.5l71 -70q4 -4 0 -10l-18 -18q-5 -3 -10 1l-69 70q-26 -23 -60 -36t-71 -13t-71 13t-60 36l-69 -70q-5 -5 -9 -1l-18 18q-6 6 0 10l70 70
q-23 26 -36 59.5t-13 69.5q0 37 13.5 71t36.5 60l-70 70q-5 5 0 10l18 18q4 4 10 0l70 -72q25 22 59 35t69 13zM308 514q-37 0 -68 -13t-53.5 -35.5t-35.5 -54t-13 -67.5t13 -67.5t35.5 -54t53.5 -35.5t68 -13t68 13t53.5 35.5t35.5 54t13 67.5t-13 67.5t-35.5 54
t-53.5 35.5t-68 13z" />
    <glyph glyph-name="yen" unicode="&#xa5;" horiz-adv-x="657" 
d="M60 363q0 7 7 7h205l-206 320q-7 10 6 10h37q3 0 6 -3l202 -327h23l202 327q3 3 6 3h37q13 0 6 -10l-206 -320h205q7 0 7 -7v-22q0 -7 -7 -7h-523q-7 0 -7 7v22zM60 253q0 7 7 7h523q7 0 7 -7v-23q0 -6 -7 -6h-239v-217q0 -7 -7 -7h-31q-7 0 -7 7v217h-239q-7 0 -7 6v23z
" />
    <glyph glyph-name="brokenbar" unicode="&#xa6;" horiz-adv-x="255" 
d="M147 367q0 -6 -6 -6h-27q-7 0 -7 6v401q0 7 7 7h27q6 0 6 -7v-401zM147 -203q0 -7 -6 -7h-27q-7 0 -7 7v396q0 7 7 7h27q6 0 6 -7v-396z" />
    <glyph glyph-name="section" unicode="&#xa7;" horiz-adv-x="576" 
d="M483 572q-6 -3 -10 2q-40 52 -97 75.5t-111 23.5q-79 0 -124.5 -26t-45.5 -83q0 -23 8 -41t29 -33.5t57 -31t91 -33.5q68 -22 113 -41.5t71.5 -40.5t37.5 -45t11 -55q0 -60 -40 -95.5t-105 -43.5q39 -17 67 -33.5t45 -34.5t25 -39t8 -48q0 -74 -55.5 -113.5t-150.5 -39.5
q-33 0 -66.5 6.5t-66 20t-62 35.5t-53.5 53q-4 5 2 9l20 20q6 6 10 -1q40 -54 97 -79t114 -25q165 0 165 113q0 23 -8 41t-28.5 34t-56 31t-90.5 33q-68 23 -113 42.5t-72 40.5t-38 45t-11 55q0 58 37.5 93t108.5 46q-76 29 -111.5 64.5t-35.5 88.5q0 36 15 64t43 47
t66.5 29t86.5 10q69 0 132 -25t112 -85q6 -6 -1 -10zM97 272q0 -27 12.5 -46.5t38 -36t65 -31.5t92.5 -31q85 3 123.5 32.5t38.5 80.5q0 27 -12 47t-37.5 36.5t-65 31.5t-94.5 31q-83 -5 -122 -32.5t-39 -81.5z" />
    <glyph glyph-name="dieresis" unicode="&#xa8;" horiz-adv-x="423" 
d="M125 665q14 0 23.5 -9.5t9.5 -24.5q0 -14 -9.5 -23t-23.5 -9t-23.5 9t-9.5 23q0 15 9.5 24.5t23.5 9.5zM298 665q14 0 23.5 -9.5t9.5 -24.5q0 -14 -9.5 -23t-23.5 -9t-23.5 9t-9.5 23q0 15 9.5 24.5t23.5 9.5z" />
    <glyph glyph-name="copyright" unicode="&#xa9;" horiz-adv-x="865" 
d="M432 711q78 0 144.5 -27t115.5 -75.5t76.5 -114.5t27.5 -144t-27.5 -144t-76.5 -114.5t-115.5 -75.5t-144.5 -27t-144 27t-115 75.5t-76.5 114.5t-27.5 144t27.5 144t76.5 114.5t115 75.5t144 27zM432 687q-72 0 -133.5 -25.5t-106 -71t-70 -107t-25.5 -133.5
t25.5 -133.5t70 -107t106 -71t133.5 -25.5t133.5 25.5t106.5 71t70.5 107t25.5 133.5t-25.5 133.5t-70.5 107t-106.5 71t-133.5 25.5zM587 483q5 -4 -1 -10l-16 -12q-6 -6 -10 1q-46 52 -121 52q-69 0 -110.5 -43t-41.5 -121q0 -77 41.5 -120.5t110.5 -43.5q77 0 121 52
q4 5 11 2l16 -12q5 -4 2 -11q-26 -30 -64.5 -47.5t-85.5 -17.5q-42 0 -77.5 15t-61 41t-39.5 62.5t-14 79.5t14 79.5t39.5 63t61 41.5t77.5 15q46 0 84 -17.5t64 -48.5z" />
    <glyph glyph-name="ordfeminine" unicode="&#xaa;" horiz-adv-x="355" 
d="M186 703q51 0 86.5 -27.5t35.5 -84.5v-197q0 -7 -7 -7h-14q-6 0 -7 7l-5 53q-17 -34 -51.5 -51t-71.5 -17q-54 0 -79 23.5t-25 61.5q0 42 29.5 62t80.5 25l115 13v29q0 43 -25 61.5t-63 18.5q-51 0 -96 -31q-7 -3 -11 1l-9 14q-6 6 1 10q27 19 56.5 27.5t59.5 8.5z
M168 526q-39 -5 -61.5 -16t-22.5 -45q0 -57 76 -57q20 0 40.5 6.5t36.5 19t26 31t10 42.5v30z" />
    <glyph glyph-name="guillemotleft" unicode="&#xab;" horiz-adv-x="419" 
d="M59 273q-3 5 0 9l110 154q3 4 9 4h28q14 0 6 -11l-109 -152l109 -150q8 -11 -6 -11h-28q-5 0 -9 5zM204 273q-3 5 0 9l109 154q3 4 9 4h31q13 0 6 -11l-112 -152l112 -150q6 -11 -6 -11h-31q-5 0 -9 5z" />
    <glyph glyph-name="logicalnot" unicode="&#xac;" horiz-adv-x="529" 
d="M64 316q-7 0 -7 7v25q0 7 7 7h401q7 0 7 -7v-157q0 -7 -7 -7h-29q-7 0 -7 7v125h-365z" />
    <glyph glyph-name="registered" unicode="&#xae;" horiz-adv-x="767" 
d="M384 775q67 0 124 -23.5t99 -65.5t66 -99t24 -125q0 -67 -24 -124t-66 -99t-99 -65.5t-124 -23.5t-125 23.5t-100 65.5t-66 99t-24 124q0 68 24 125t66 99t100 65.5t125 23.5zM384 750q-63 0 -115.5 -21.5t-90.5 -60t-59.5 -91t-21.5 -115.5q0 -62 21.5 -114.5t59.5 -91
t90.5 -60t115.5 -21.5q62 0 114.5 21.5t90.5 60t59.5 91t21.5 114.5q0 63 -21.5 115.5t-59.5 91t-90.5 60t-114.5 21.5zM278 627q0 7 7 7h109q61 0 90.5 -26.5t29.5 -72.5q0 -39 -20 -66.5t-57 -36.5l78 -123q7 -11 -6 -11h-26q-5 0 -6 4l-74 123h-90v-120q0 -7 -7 -7h-21
q-7 0 -7 7v322zM313 456h76q45 0 66.5 19.5t21.5 54.5q0 38 -21.5 55.5t-68.5 17.5h-74v-147z" />
    <glyph glyph-name="macron" unicode="&#xaf;" horiz-adv-x="449" 
d="M357 621q0 -7 -7 -7h-251q-7 0 -7 7v21q0 7 7 7h251q7 0 7 -7v-21z" />
    <glyph glyph-name="degree" unicode="&#xb0;" horiz-adv-x="429" 
d="M214 740q37 0 68 -12t53 -33.5t34.5 -51.5t12.5 -66t-12.5 -66.5t-34.5 -52t-53 -33.5t-68 -12q-36 0 -66.5 12t-52.5 33.5t-34.5 52t-12.5 66.5t12.5 66t34.5 51.5t52.5 33.5t66.5 12zM214 707q-57 0 -93.5 -34.5t-36.5 -95.5q0 -62 36.5 -96.5t93.5 -34.5
q59 0 95.5 34.5t36.5 96.5q0 61 -36.5 95.5t-95.5 34.5z" />
    <glyph glyph-name="plusminus" unicode="&#xb1;" horiz-adv-x="557" 
d="M292 504q7 0 7 -7v-208h194q7 0 7 -7v-24q0 -7 -7 -7h-194v-213h194q7 0 7 -7v-24q0 -7 -7 -7h-429q-7 0 -7 7v24q0 7 7 7h195v213h-195q-7 0 -7 7v24q0 7 7 7h195v208q0 7 7 7h26z" />
    <glyph glyph-name="twosuperior" unicode="&#xb2;" horiz-adv-x="336" 
d="M67 721q-2 -8 -9 -5l-18 6q-7 3 -6 9q14 47 51 73t91 26q55 0 88.5 -27.5t33.5 -80.5q0 -37 -19 -70t-57 -74l-130 -133h201q7 0 7 -7v-21q0 -7 -7 -7h-255q-6 0 -6 6v7q0 4 2 6l162 171q34 36 49 64t15 57q0 38 -23.5 56.5t-61.5 18.5q-42 0 -70 -20t-38 -55z" />
    <glyph glyph-name="threesuperior" unicode="&#xb3;" horiz-adv-x="348" 
d="M127 603q-7 0 -7 7v18q0 7 7 7h48q43 0 67 26.5t24 61.5t-23 54t-65 19q-44 0 -71.5 -19.5t-37.5 -55.5q-2 -8 -8 -5l-20 7q-8 2 -5 8q13 48 49.5 73.5t93.5 25.5q60 0 93 -27t33 -74q0 -38 -21.5 -67.5t-53.5 -41.5q39 -8 61 -35t22 -68q0 -54 -37 -85.5t-98 -31.5
q-56 0 -95 25.5t-52 73.5q-3 6 5 8l19 8q6 2 8 -5q11 -36 41 -56t73 -20q46 0 72 21.5t26 63.5q0 38 -23.5 61t-76.5 23h-48z" />
    <glyph glyph-name="acute" unicode="&#xb4;" horiz-adv-x="307" 
d="M165 697q3 3 6 3h35q13 0 6 -11l-78 -116q-1 -3 -5 -3h-28q-6 0 -7.5 3t1.5 7z" />
    <glyph glyph-name="uni00B5" unicode="&#xb5;" horiz-adv-x="516" 
d="M94 440q6 0 6 -7v-239q0 -81 38.5 -123t107.5 -42q84 0 126.5 46t42.5 134v224q0 7 7 7h30q7 0 7 -7v-426q0 -7 -7 -7h-17q-7 0 -7 7l-8 99q-21 -62 -68 -90t-110 -28q-52 0 -92.5 25t-56.5 76l8 -229q0 -7 -7 -7h-30q-7 0 -7 7v573q0 7 7 7h30z" />
    <glyph glyph-name="paragraph" unicode="&#xb6;" horiz-adv-x="603" 
d="M504 700q7 0 7 -7v-822q0 -6 -7 -6h-26q-7 0 -7 6v789h-100v-789q0 -6 -7 -6h-26q-7 0 -7 6v395q-53 0 -100.5 11.5t-83.5 37t-57 67t-21 101.5q0 61 18 102.5t50 67t77 36.5t99 11h191z" />
    <glyph glyph-name="periodcentered" unicode="&#xb7;" horiz-adv-x="232" 
d="M116 339q17 0 28.5 -10.5t11.5 -28.5t-11.5 -28.5t-28.5 -10.5q-16 0 -27.5 10.5t-11.5 28.5t11.5 28.5t27.5 10.5z" />
    <glyph glyph-name="cedilla" unicode="&#xb8;" horiz-adv-x="375" 
d="M169 5q9 0 7 -9l-14 -55q62 -2 91 -19.5t29 -52.5t-28.5 -55.5t-84.5 -20.5q-18 0 -37.5 2t-33.5 6q-7 0 -5 7l4 19q2 7 8 5q30 -8 66 -8q42 0 58 13t16 33t-23 34t-86 12q-9 0 -7 9l18 75q2 5 7 5h15z" />
    <glyph glyph-name="onesuperior" unicode="&#xb9;" horiz-adv-x="242" 
d="M166 822q6 0 6 -6v-399q0 -7 -6 -7h-24q-7 0 -7 7v363l-92 -30q-7 -2 -8 3l-7 22q-4 7 6 9l110 36q10 2 14 2h8z" />
    <glyph glyph-name="ordmasculine" unicode="&#xba;" horiz-adv-x="410" 
d="M205 703q35 0 64 -12.5t49.5 -34t32 -51t11.5 -64.5q0 -34 -11.5 -64t-32 -51.5t-49.5 -34t-64 -12.5q-34 0 -63 12.5t-50 34t-32.5 51.5t-11.5 64q0 35 11.5 64.5t32.5 51t50 34t63 12.5zM205 670q-27 0 -49 -10t-37.5 -27t-24.5 -41t-9 -51t9 -51t24.5 -41t37.5 -27
t49 -10t49 10t38 27t25 41t9 51t-9 51t-25 41t-38 27t-49 10z" />
    <glyph glyph-name="guillemotright" unicode="&#xbb;" horiz-adv-x="419" 
d="M360 282q3 -4 0 -8l-110 -154q-3 -4 -9 -4h-28q-14 0 -6 11l109 151l-109 151q-8 11 6 11h28q5 0 9 -5zM215 282q3 -4 0 -8l-109 -154q-3 -4 -9 -4h-31q-12 0 -6 11l112 151l-112 151q-7 11 6 11h31q5 0 9 -5z" />
    <glyph glyph-name="onequarter" unicode="&#xbc;" horiz-adv-x="720" 
d="M166 702q6 0 6 -6v-399q0 -7 -6 -7h-24q-7 0 -7 7v363l-92 -30q-7 -2 -8 3l-7 22q-4 7 6 9l110 36q10 2 14 2h8zM553 700q12 0 7 -10l-411 -686q-1 -4 -6 -4h-21q-6 0 -7.5 3t1.5 7l410 687q2 3 6 3h21zM694 102q0 -7 -7 -7h-65v-88q0 -7 -7 -7h-24q-7 0 -7 7v88h-189
q-6 0 -6 6v9q0 1 0.5 4.5t2.5 5.5l151 286q3 4 7 4h27q13 0 6 -10l-148 -271h149v91q0 7 7 7h24q7 0 7 -7v-91h65q7 0 7 -7v-20z" />
    <glyph glyph-name="onehalf" unicode="&#xbd;" horiz-adv-x="762" 
d="M166 702q6 0 6 -6v-399q0 -7 -6 -7h-24q-7 0 -7 7v363l-92 -30q-7 -2 -8 3l-7 22q-4 7 6 9l110 36q10 2 14 2h8zM548 700q12 0 7 -10l-411 -686q-1 -4 -6 -4h-21q-6 0 -7.5 3t1.5 7l410 687q2 3 6 3h21zM493 311q-2 -8 -9 -5l-18 6q-7 3 -6 9q14 47 51 73t91 26
q55 0 88.5 -27.5t33.5 -80.5q0 -37 -19 -70t-57 -74l-130 -133h201q7 0 7 -7v-21q0 -7 -7 -7h-255q-6 0 -6 6v7q0 4 2 6l162 171q34 36 49 64t15 57q0 38 -23.5 56.5t-61.5 18.5q-42 0 -70 -20t-38 -55z" />
    <glyph glyph-name="threequarters" unicode="&#xbe;" horiz-adv-x="805" 
d="M127 483q-7 0 -7 7v18q0 7 7 7h48q43 0 67 26.5t24 61.5t-23 54t-65 19q-44 0 -71.5 -19.5t-37.5 -55.5q-2 -8 -8 -5l-20 7q-8 2 -5 8q13 48 49.5 73.5t93.5 25.5q60 0 93 -27t33 -74q0 -38 -21.5 -67.5t-53.5 -41.5q39 -8 61 -35t22 -68q0 -54 -37 -85.5t-98 -31.5
q-56 0 -95 25.5t-52 73.5q-3 6 5 8l19 8q6 2 8 -5q11 -36 41 -56t73 -20q46 0 72 21.5t26 63.5q0 38 -23.5 61t-76.5 23h-48zM637 700q12 0 7 -10l-411 -686q-1 -4 -6 -4h-21q-6 0 -7.5 3t1.5 7l410 687q2 3 6 3h21zM779 102q0 -7 -7 -7h-65v-88q0 -7 -7 -7h-24q-7 0 -7 7
v88h-189q-6 0 -6 6v9q0 1 0.5 4.5t2.5 5.5l151 286q3 4 7 4h27q13 0 6 -10l-148 -271h149v91q0 7 7 7h24q7 0 7 -7v-91h65q7 0 7 -7v-20z" />
    <glyph glyph-name="questiondown" unicode="&#xbf;" horiz-adv-x="513" 
d="M270 472q17 0 28 -10.5t11 -29.5q0 -18 -11 -28.5t-28 -10.5t-28.5 10.5t-11.5 28.5q0 19 11.5 29.5t28.5 10.5zM291 278q7 0 7 -7q0 -30 -5 -52.5t-17 -42t-33.5 -38t-56.5 -40.5q-51 -34 -71 -65.5t-20 -77.5q0 -54 37.5 -84t106.5 -30q74 0 120.5 34.5t70.5 86.5
q4 8 10 3l21 -17q5 -3 2 -8q-28 -60 -82.5 -100t-140.5 -40q-43 0 -78.5 10.5t-60.5 30t-39 47.5t-14 63q0 62 29.5 103.5t87.5 79.5q26 17 43 31.5t26.5 29.5t13.5 33t5 43q0 7 7 7h31z" />
    <glyph glyph-name="Agrave" unicode="&#xc0;" horiz-adv-x="745" 
d="M378 705q5 0 6 -4l307 -692q5 -9 -6 -9h-35q-4 0 -6 5l-90 202h-364l-89 -202q-1 -5 -6 -5h-36q-10 0 -6 9l308 692q1 4 8 4h9zM537 248l-164 377l-165 -377h329zM388 760q2 -4 0.5 -7t-7.5 -3h-28q-3 0 -5 3l-77 116q-7 11 6 11h34q3 0 6 -3z" />
    <glyph glyph-name="Aacute" unicode="&#xc1;" horiz-adv-x="745" 
d="M378 705q5 0 6 -4l307 -692q5 -9 -6 -9h-35q-4 0 -6 5l-90 202h-364l-89 -202q-1 -5 -6 -5h-36q-10 0 -6 9l308 692q1 4 8 4h9zM537 248l-164 377l-165 -377h329zM429 877q3 3 6 3h35q13 0 6 -11l-78 -116q-1 -3 -5 -3h-28q-6 0 -7.5 3t1.5 7z" />
    <glyph glyph-name="Acircumflex" unicode="&#xc2;" horiz-adv-x="745" 
d="M378 705q5 0 6 -4l307 -692q5 -9 -6 -9h-35q-4 0 -6 5l-90 202h-364l-89 -202q-1 -5 -6 -5h-36q-10 0 -6 9l308 692q1 4 8 4h9zM537 248l-164 377l-165 -377h329zM492 761q9 -11 -5 -11h-32q-4 0 -6 3l-76 105l-76 -105q-1 -3 -6 -3h-31q-15 0 -6 11l89 117q4 2 6 2h47
q4 0 6 -2z" />
    <glyph glyph-name="Atilde" unicode="&#xc3;" horiz-adv-x="745" 
d="M378 705q5 0 6 -4l307 -692q5 -9 -6 -9h-35q-4 0 -6 5l-90 202h-364l-89 -202q-1 -5 -6 -5h-36q-10 0 -6 9l308 692q1 4 8 4h9zM537 248l-164 377l-165 -377h329zM507 881q7 0 7 -7q-2 -69 -19.5 -101.5t-51.5 -32.5q-25 0 -41.5 17t-30 37.5t-27 37.5t-31.5 17
q-20 0 -32.5 -22t-13.5 -75q0 -7 -7 -7h-21q-7 0 -7 7q2 68 22 100.5t55 32.5q25 0 42 -17t30.5 -38t26.5 -38t31 -17q20 0 29 22.5t10 76.5q0 7 7 7h22z" />
    <glyph glyph-name="Adieresis" unicode="&#xc4;" horiz-adv-x="745" 
d="M378 705q5 0 6 -4l307 -692q5 -9 -6 -9h-35q-4 0 -6 5l-90 202h-364l-89 -202q-1 -5 -6 -5h-36q-10 0 -6 9l308 692q1 4 8 4h9zM537 248l-164 377l-165 -377h329zM287 845q14 0 23.5 -9.5t9.5 -24.5q0 -14 -9.5 -23t-23.5 -9t-23.5 9t-9.5 23q0 15 9.5 24.5t23.5 9.5z
M460 845q14 0 23.5 -9.5t9.5 -24.5q0 -14 -9.5 -23t-23.5 -9t-23.5 9t-9.5 23q0 15 9.5 24.5t23.5 9.5z" />
    <glyph glyph-name="Aring" unicode="&#xc5;" horiz-adv-x="745" 
d="M378 705q5 0 6 -4l307 -692q5 -9 -6 -9h-35q-4 0 -6 5l-90 202h-364l-89 -202q-1 -5 -6 -5h-36q-10 0 -6 9l308 692q1 4 8 4h9zM537 248l-164 377l-165 -377h329zM373 940q47 0 75 -28.5t28 -70.5q0 -43 -28 -71.5t-75 -28.5t-75.5 28.5t-28.5 71.5q0 42 28.5 70.5
t75.5 28.5zM373 912q-35 0 -54 -19.5t-19 -51.5q0 -33 19 -52t54 -19t53.5 19t18.5 52q0 32 -18.5 51.5t-53.5 19.5z" />
    <glyph glyph-name="AE" unicode="&#xc6;" horiz-adv-x="958" 
d="M882 665q0 -7 -7 -7h-455l85 -280h327q7 0 7 -7v-26q0 -7 -7 -7h-316l89 -296h274q6 0 6 -7v-28q0 -7 -6 -7h-306q-5 0 -7 5l-60 201h-318l-86 -201q-3 -5 -7 -5h-35q-11 0 -7 9l299 687q2 4 6 4h517q7 0 7 -7v-28zM494 248l-117 400l-171 -400h288z" />
    <glyph glyph-name="Ccedilla" unicode="&#xc7;" horiz-adv-x="738" 
d="M680 590q4 -5 -1 -10l-22 -18q-4 -2 -11 1q-42 53 -102 80t-132 27q-66 0 -120.5 -23.5t-93.5 -66t-60 -101t-21 -129.5q0 -70 21 -129t60 -101t93.5 -65.5t120.5 -23.5q73 0 133 27.5t103 78.5q5 5 10 2l23 -18q4 -4 1 -10q-50 -60 -118.5 -91.5t-151.5 -31.5
q-76 0 -139 27t-108.5 75t-70.5 114.5t-25 145.5t25 145.5t70.5 114.5t108.5 75t139 27q82 0 151 -32t117 -90zM419 5q9 0 7 -9l-14 -55q62 -2 91 -19.5t29 -52.5t-28.5 -55.5t-84.5 -20.5q-18 0 -37.5 2t-33.5 6q-7 0 -5 7l4 19q2 7 8 5q30 -8 66 -8q42 0 58 13t16 33
t-23 34t-86 12q-9 0 -7 9l18 75q2 5 7 5h15z" />
    <glyph glyph-name="Egrave" unicode="&#xc8;" horiz-adv-x="575" 
d="M92 693q0 7 7 7h393q7 0 7 -7v-28q0 -7 -7 -7h-355v-280h318q7 0 7 -7v-26q0 -7 -7 -7h-318v-296h359q7 0 7 -7v-28q0 -7 -7 -7h-397q-7 0 -7 7v686zM317 760q2 -4 0.5 -7t-7.5 -3h-28q-3 0 -5 3l-77 116q-7 11 6 11h34q3 0 6 -3z" />
    <glyph glyph-name="Eacute" unicode="&#xc9;" horiz-adv-x="575" 
d="M92 693q0 7 7 7h393q7 0 7 -7v-28q0 -7 -7 -7h-355v-280h318q7 0 7 -7v-26q0 -7 -7 -7h-318v-296h359q7 0 7 -7v-28q0 -7 -7 -7h-397q-7 0 -7 7v686zM358 877q3 3 6 3h35q13 0 6 -11l-78 -116q-1 -3 -5 -3h-28q-6 0 -7.5 3t1.5 7z" />
    <glyph glyph-name="Ecircumflex" unicode="&#xca;" horiz-adv-x="575" 
d="M92 693q0 7 7 7h393q7 0 7 -7v-28q0 -7 -7 -7h-355v-280h318q7 0 7 -7v-26q0 -7 -7 -7h-318v-296h359q7 0 7 -7v-28q0 -7 -7 -7h-397q-7 0 -7 7v686zM422 761q9 -11 -5 -11h-32q-4 0 -6 3l-76 105l-76 -105q-1 -3 -6 -3h-31q-15 0 -6 11l89 117q4 2 6 2h47q4 0 6 -2z" />
    <glyph glyph-name="Edieresis" unicode="&#xcb;" horiz-adv-x="575" 
d="M92 693q0 7 7 7h393q7 0 7 -7v-28q0 -7 -7 -7h-355v-280h318q7 0 7 -7v-26q0 -7 -7 -7h-318v-296h359q7 0 7 -7v-28q0 -7 -7 -7h-397q-7 0 -7 7v686zM216 845q14 0 23.5 -9.5t9.5 -24.5q0 -14 -9.5 -23t-23.5 -9t-23.5 9t-9.5 23q0 15 9.5 24.5t23.5 9.5zM389 845
q14 0 23.5 -9.5t9.5 -24.5q0 -14 -9.5 -23t-23.5 -9t-23.5 9t-9.5 23q0 15 9.5 24.5t23.5 9.5z" />
    <glyph glyph-name="Igrave" unicode="&#xcc;" horiz-adv-x="229" 
d="M130 700q7 0 7 -7v-686q0 -7 -7 -7h-31q-7 0 -7 7v686q0 7 7 7h31zM130 760q2 -4 0.5 -7t-7.5 -3h-28q-3 0 -5 3l-77 116q-7 11 6 11h34q3 0 6 -3z" />
    <glyph glyph-name="Iacute" unicode="&#xcd;" horiz-adv-x="229" 
d="M130 700q7 0 7 -7v-686q0 -7 -7 -7h-31q-7 0 -7 7v686q0 7 7 7h31zM170 877q3 3 6 3h35q13 0 6 -11l-78 -116q-1 -3 -5 -3h-28q-6 0 -7.5 3t1.5 7z" />
    <glyph glyph-name="Icircumflex" unicode="&#xce;" horiz-adv-x="229" 
d="M130 700q7 0 7 -7v-686q0 -7 -7 -7h-31q-7 0 -7 7v686q0 7 7 7h31zM234 761q9 -11 -5 -11h-32q-4 0 -6 3l-76 105l-76 -105q-1 -3 -6 -3h-31q-15 0 -6 11l89 117q4 2 6 2h47q4 0 6 -2z" />
    <glyph glyph-name="Idieresis" unicode="&#xcf;" horiz-adv-x="229" 
d="M130 700q7 0 7 -7v-686q0 -7 -7 -7h-31q-7 0 -7 7v686q0 7 7 7h31zM28 845q14 0 23.5 -9.5t9.5 -24.5q0 -14 -9.5 -23t-23.5 -9t-23.5 9t-9.5 23q0 15 9.5 24.5t23.5 9.5zM201 845q14 0 23.5 -9.5t9.5 -24.5q0 -14 -9.5 -23t-23.5 -9t-23.5 9t-9.5 23q0 15 9.5 24.5
t23.5 9.5z" />
    <glyph glyph-name="Eth" unicode="&#xd0;" horiz-adv-x="808" 
d="M148 693q0 7 7 7h228q87 0 153.5 -25.5t111.5 -71t68 -108t23 -135.5q0 -74 -23 -139.5t-68 -114.5t-111.5 -77.5t-153.5 -28.5h-228q-7 0 -7 7v328h-79q-7 0 -7 7v23q0 7 7 7h79v321zM403 372q7 0 7 -7v-23q0 -7 -7 -7h-210v-293h190q77 0 134.5 25t96.5 68t58.5 101
t19.5 124t-19.5 120.5t-58 94t-96.5 61.5t-135 22h-190v-286h210z" />
    <glyph glyph-name="Ntilde" unicode="&#xd1;" horiz-adv-x="706" 
d="M607 700q7 0 7 -7v-691q0 -7 -7 -7h-7q-5 0 -9 5l-455 608v-601q0 -7 -7 -7h-30q-7 0 -7 7v691q0 7 7 7h8q5 0 7 -4l457 -608v600q0 7 7 7h29zM486 881q7 0 7 -7q-2 -69 -19.5 -101.5t-51.5 -32.5q-25 0 -41.5 17t-30 37.5t-27 37.5t-31.5 17q-20 0 -32.5 -22t-13.5 -75
q0 -7 -7 -7h-21q-7 0 -7 7q2 68 22 100.5t55 32.5q25 0 42 -17t30.5 -38t26.5 -38t31 -17q20 0 29 22.5t10 76.5q0 7 7 7h22z" />
    <glyph glyph-name="Ograve" unicode="&#xd2;" horiz-adv-x="843" 
d="M421 712q76 0 140.5 -27.5t111.5 -76.5t73.5 -115t26.5 -143t-26.5 -143t-73.5 -115t-111.5 -76.5t-140.5 -27.5t-140.5 27.5t-111.5 76.5t-73.5 115t-26.5 143t26.5 143t73.5 115t111.5 76.5t140.5 27.5zM421 670q-67 0 -123 -24.5t-96 -67t-62.5 -101t-22.5 -127.5
t22.5 -127.5t62.5 -101t96 -67t123 -24.5q68 0 124 24.5t96 67t62.5 101t22.5 127.5t-22.5 127.5t-62.5 101t-96 67t-124 24.5zM436 770q2 -4 0.5 -7t-7.5 -3h-28q-3 0 -5 3l-77 116q-7 11 6 11h34q3 0 6 -3z" />
    <glyph glyph-name="Oacute" unicode="&#xd3;" horiz-adv-x="843" 
d="M421 712q76 0 140.5 -27.5t111.5 -76.5t73.5 -115t26.5 -143t-26.5 -143t-73.5 -115t-111.5 -76.5t-140.5 -27.5t-140.5 27.5t-111.5 76.5t-73.5 115t-26.5 143t26.5 143t73.5 115t111.5 76.5t140.5 27.5zM421 670q-67 0 -123 -24.5t-96 -67t-62.5 -101t-22.5 -127.5
t22.5 -127.5t62.5 -101t96 -67t123 -24.5q68 0 124 24.5t96 67t62.5 101t22.5 127.5t-22.5 127.5t-62.5 101t-96 67t-124 24.5zM477 887q3 3 6 3h35q13 0 6 -11l-78 -116q-1 -3 -5 -3h-28q-6 0 -7.5 3t1.5 7z" />
    <glyph glyph-name="Ocircumflex" unicode="&#xd4;" horiz-adv-x="843" 
d="M421 712q76 0 140.5 -27.5t111.5 -76.5t73.5 -115t26.5 -143t-26.5 -143t-73.5 -115t-111.5 -76.5t-140.5 -27.5t-140.5 27.5t-111.5 76.5t-73.5 115t-26.5 143t26.5 143t73.5 115t111.5 76.5t140.5 27.5zM421 670q-67 0 -123 -24.5t-96 -67t-62.5 -101t-22.5 -127.5
t22.5 -127.5t62.5 -101t96 -67t123 -24.5q68 0 124 24.5t96 67t62.5 101t22.5 127.5t-22.5 127.5t-62.5 101t-96 67t-124 24.5zM541 771q9 -11 -5 -11h-32q-4 0 -6 3l-76 105l-76 -105q-1 -3 -6 -3h-31q-15 0 -6 11l89 117q4 2 6 2h47q4 0 6 -2z" />
    <glyph glyph-name="Otilde" unicode="&#xd5;" horiz-adv-x="843" 
d="M421 712q76 0 140.5 -27.5t111.5 -76.5t73.5 -115t26.5 -143t-26.5 -143t-73.5 -115t-111.5 -76.5t-140.5 -27.5t-140.5 27.5t-111.5 76.5t-73.5 115t-26.5 143t26.5 143t73.5 115t111.5 76.5t140.5 27.5zM421 670q-67 0 -123 -24.5t-96 -67t-62.5 -101t-22.5 -127.5
t22.5 -127.5t62.5 -101t96 -67t123 -24.5q68 0 124 24.5t96 67t62.5 101t22.5 127.5t-22.5 127.5t-62.5 101t-96 67t-124 24.5zM555 891q7 0 7 -7q-2 -69 -19.5 -101.5t-51.5 -32.5q-25 0 -41.5 17t-30 37.5t-27 37.5t-31.5 17q-20 0 -32.5 -22t-13.5 -75q0 -7 -7 -7h-21
q-7 0 -7 7q2 68 22 100.5t55 32.5q25 0 42 -17t30.5 -38t26.5 -38t31 -17q20 0 29 22.5t10 76.5q0 7 7 7h22z" />
    <glyph glyph-name="Odieresis" unicode="&#xd6;" horiz-adv-x="843" 
d="M421 712q76 0 140.5 -27.5t111.5 -76.5t73.5 -115t26.5 -143t-26.5 -143t-73.5 -115t-111.5 -76.5t-140.5 -27.5t-140.5 27.5t-111.5 76.5t-73.5 115t-26.5 143t26.5 143t73.5 115t111.5 76.5t140.5 27.5zM421 670q-67 0 -123 -24.5t-96 -67t-62.5 -101t-22.5 -127.5
t22.5 -127.5t62.5 -101t96 -67t123 -24.5q68 0 124 24.5t96 67t62.5 101t22.5 127.5t-22.5 127.5t-62.5 101t-96 67t-124 24.5zM335 855q14 0 23.5 -9.5t9.5 -24.5q0 -14 -9.5 -23t-23.5 -9t-23.5 9t-9.5 23q0 15 9.5 24.5t23.5 9.5zM508 855q14 0 23.5 -9.5t9.5 -24.5
q0 -14 -9.5 -23t-23.5 -9t-23.5 9t-9.5 23q0 15 9.5 24.5t23.5 9.5z" />
    <glyph glyph-name="multiply" unicode="&#xd7;" horiz-adv-x="482" 
d="M422 421q5 -5 1 -9l-154 -154l153 -154q5 -4 0 -9l-18 -18q-5 -5 -10 0l-153 154l-154 -154q-2 -2 -4.5 -2t-4.5 2l-19 18q-3 5 0 10l154 153l-153 154q-5 4 0 9l18 18q5 5 10 0l153 -153l154 153q5 5 9 0z" />
    <glyph glyph-name="Oslash" unicode="&#xd8;" horiz-adv-x="842" 
d="M421 712q69 0 127 -22t103 -63l91 100q5 6 10 1l16 -14q4 -4 -1 -9l-91 -100q45 -49 71 -114t26 -141q0 -77 -26.5 -143t-73.5 -115t-111.5 -76.5t-140.5 -27.5q-67 0 -125 22t-103 62l-94 -102q-5 -5 -9 -1l-16 14q-4 5 1 10l93 101q-47 49 -73 114.5t-26 141.5
q0 77 26.5 143t73.5 115t111.5 76.5t140.5 27.5zM421 671q-67 0 -123 -24.5t-96.5 -67.5t-63 -101.5t-22.5 -127.5q0 -66 21 -123t59 -100l426 469q-39 35 -90 55t-111 20zM220 104q39 -36 90 -55.5t111 -19.5q68 0 124 24.5t96.5 67.5t63 101.5t22.5 127.5q0 66 -21 122.5
t-59 99.5z" />
    <glyph glyph-name="Ugrave" unicode="&#xd9;" horiz-adv-x="677" 
d="M582 700q7 0 7 -7v-440q0 -62 -17.5 -111t-50 -83.5t-78.5 -52.5t-104 -18t-104.5 18t-79 52.5t-50 83.5t-17.5 111v440q0 7 7 7h31q7 0 7 -7v-434q0 -109 53 -169t153 -60q99 0 152.5 60t53.5 169v434q0 7 7 7h30zM354 760q2 -4 0.5 -7t-7.5 -3h-28q-3 0 -5 3l-77 116
q-7 11 6 11h34q3 0 6 -3z" />
    <glyph glyph-name="Uacute" unicode="&#xda;" horiz-adv-x="677" 
d="M582 700q7 0 7 -7v-440q0 -62 -17.5 -111t-50 -83.5t-78.5 -52.5t-104 -18t-104.5 18t-79 52.5t-50 83.5t-17.5 111v440q0 7 7 7h31q7 0 7 -7v-434q0 -109 53 -169t153 -60q99 0 152.5 60t53.5 169v434q0 7 7 7h30zM394 877q3 3 6 3h35q13 0 6 -11l-78 -116q-1 -3 -5 -3
h-28q-6 0 -7.5 3t1.5 7z" />
    <glyph glyph-name="Ucircumflex" unicode="&#xdb;" horiz-adv-x="677" 
d="M582 700q7 0 7 -7v-440q0 -62 -17.5 -111t-50 -83.5t-78.5 -52.5t-104 -18t-104.5 18t-79 52.5t-50 83.5t-17.5 111v440q0 7 7 7h31q7 0 7 -7v-434q0 -109 53 -169t153 -60q99 0 152.5 60t53.5 169v434q0 7 7 7h30zM458 761q9 -11 -5 -11h-32q-4 0 -6 3l-76 105l-76 -105
q-1 -3 -6 -3h-31q-15 0 -6 11l89 117q4 2 6 2h47q4 0 6 -2z" />
    <glyph glyph-name="Udieresis" unicode="&#xdc;" horiz-adv-x="677" 
d="M582 700q7 0 7 -7v-440q0 -62 -17.5 -111t-50 -83.5t-78.5 -52.5t-104 -18t-104.5 18t-79 52.5t-50 83.5t-17.5 111v440q0 7 7 7h31q7 0 7 -7v-434q0 -109 53 -169t153 -60q99 0 152.5 60t53.5 169v434q0 7 7 7h30zM252 845q14 0 23.5 -9.5t9.5 -24.5q0 -14 -9.5 -23
t-23.5 -9t-23.5 9t-9.5 23q0 15 9.5 24.5t23.5 9.5zM425 845q14 0 23.5 -9.5t9.5 -24.5q0 -14 -9.5 -23t-23.5 -9t-23.5 9t-9.5 23q0 15 9.5 24.5t23.5 9.5z" />
    <glyph glyph-name="Yacute" unicode="&#xdd;" horiz-adv-x="648" 
d="M598 700q11 0 6 -10l-257 -403v-280q0 -7 -7 -7h-31q-6 0 -6 7v280l-258 403q-7 10 6 10h37q3 0 6 -3l231 -369l230 369q3 3 6 3h37zM380 877q3 3 6 3h35q13 0 6 -11l-78 -116q-1 -3 -5 -3h-28q-6 0 -7.5 3t1.5 7z" />
    <glyph glyph-name="Thorn" unicode="&#xde;" horiz-adv-x="578" 
d="M92 693q0 7 7 7h31q7 0 7 -7v-149h159q123 0 178 -49.5t55 -143.5t-55 -144.5t-178 -50.5h-159v-149q0 -7 -7 -7h-31q-7 0 -7 7v686zM137 198h156q53 0 89.5 9.5t58.5 28t31.5 47t9.5 67.5t-10 68t-32.5 47.5t-58.5 28t-89 9.5h-155v-305z" />
    <glyph glyph-name="germandbls" unicode="&#xdf;" horiz-adv-x="539" 
d="M69 -190q-7 0 -7 7v692q0 48 10.5 89t33 70t58.5 45.5t86 16.5q82 0 124.5 -36t42.5 -101q0 -34 -12.5 -60t-27.5 -47.5t-27.5 -40t-12.5 -38.5q0 -16 11.5 -30t28.5 -29t37.5 -31.5t37.5 -37.5t28.5 -47t11.5 -60q0 -38 -13.5 -71.5t-40.5 -58.5t-67.5 -39.5
t-95.5 -14.5q-28 0 -51 2.5t-46 7.5q-6 2 -6 7v25q0 9 8 7q22 -4 43.5 -7t47.5 -3q44 0 76 10.5t54 30t32.5 46.5t10.5 59q0 31 -11 53.5t-28 40.5t-36.5 33t-36.5 30t-28 32t-11 40q0 24 12.5 44.5t27.5 41.5t27.5 45t12.5 54q0 105 -121 105q-42 0 -70.5 -13.5
t-45.5 -38.5t-24 -59t-7 -75v-689q0 -7 -7 -7h-29z" />
    <glyph glyph-name="agrave" unicode="&#xe0;" horiz-adv-x="464" 
d="M239 452q36 0 67 -9.5t53.5 -29t35 -49t12.5 -70.5v-287q0 -7 -7 -7h-16q-7 0 -7 7l-7 80q-28 -51 -79 -74.5t-106 -23.5q-69 0 -105.5 31t-36.5 85q0 31 12 53.5t33.5 38t50.5 24.5t63 13l163 17v45q0 63 -35.5 90.5t-91.5 27.5q-39 0 -76 -11.5t-68 -34.5q-6 -6 -10 1
l-14 20q-3 6 2 10q77 53 167 53zM213 201q-55 -6 -90 -25.5t-35 -69.5q0 -82 105 -82q33 0 64 10t55 29t38.5 47t14.5 64v43zM251 540q2 -4 0.5 -7t-7.5 -3h-28q-3 0 -5 3l-77 116q-7 11 6 11h34q3 0 6 -3z" />
    <glyph glyph-name="aacute" unicode="&#xe1;" horiz-adv-x="464" 
d="M239 452q36 0 67 -9.5t53.5 -29t35 -49t12.5 -70.5v-287q0 -7 -7 -7h-16q-7 0 -7 7l-7 80q-28 -51 -79 -74.5t-106 -23.5q-69 0 -105.5 31t-36.5 85q0 31 12 53.5t33.5 38t50.5 24.5t63 13l163 17v45q0 63 -35.5 90.5t-91.5 27.5q-39 0 -76 -11.5t-68 -34.5q-6 -6 -10 1
l-14 20q-3 6 2 10q77 53 167 53zM213 201q-55 -6 -90 -25.5t-35 -69.5q0 -82 105 -82q33 0 64 10t55 29t38.5 47t14.5 64v43zM292 657q3 3 6 3h35q13 0 6 -11l-78 -116q-1 -3 -5 -3h-28q-6 0 -7.5 3t1.5 7z" />
    <glyph glyph-name="acircumflex" unicode="&#xe2;" horiz-adv-x="464" 
d="M239 452q36 0 67 -9.5t53.5 -29t35 -49t12.5 -70.5v-287q0 -7 -7 -7h-16q-7 0 -7 7l-7 80q-28 -51 -79 -74.5t-106 -23.5q-69 0 -105.5 31t-36.5 85q0 31 12 53.5t33.5 38t50.5 24.5t63 13l163 17v45q0 63 -35.5 90.5t-91.5 27.5q-39 0 -76 -11.5t-68 -34.5q-6 -6 -10 1
l-14 20q-3 6 2 10q77 53 167 53zM213 201q-55 -6 -90 -25.5t-35 -69.5q0 -82 105 -82q33 0 64 10t55 29t38.5 47t14.5 64v43zM356 541q9 -11 -5 -11h-32q-4 0 -6 3l-76 105l-76 -105q-1 -3 -6 -3h-31q-15 0 -6 11l89 117q4 2 6 2h47q4 0 6 -2z" />
    <glyph glyph-name="atilde" unicode="&#xe3;" horiz-adv-x="464" 
d="M239 452q36 0 67 -9.5t53.5 -29t35 -49t12.5 -70.5v-287q0 -7 -7 -7h-16q-7 0 -7 7l-7 80q-28 -51 -79 -74.5t-106 -23.5q-69 0 -105.5 31t-36.5 85q0 31 12 53.5t33.5 38t50.5 24.5t63 13l163 17v45q0 63 -35.5 90.5t-91.5 27.5q-39 0 -76 -11.5t-68 -34.5q-6 -6 -10 1
l-14 20q-3 6 2 10q77 53 167 53zM213 201q-55 -6 -90 -25.5t-35 -69.5q0 -82 105 -82q33 0 64 10t55 29t38.5 47t14.5 64v43zM370 661q7 0 7 -7q-2 -69 -19.5 -101.5t-51.5 -32.5q-25 0 -41.5 17t-30 37.5t-27 37.5t-31.5 17q-20 0 -32.5 -22t-13.5 -75q0 -7 -7 -7h-21
q-7 0 -7 7q2 68 22 100.5t55 32.5q25 0 42 -17t30.5 -38t26.5 -38t31 -17q20 0 29 22.5t10 76.5q0 7 7 7h22z" />
    <glyph glyph-name="adieresis" unicode="&#xe4;" horiz-adv-x="464" 
d="M239 452q36 0 67 -9.5t53.5 -29t35 -49t12.5 -70.5v-287q0 -7 -7 -7h-16q-7 0 -7 7l-7 80q-28 -51 -79 -74.5t-106 -23.5q-69 0 -105.5 31t-36.5 85q0 31 12 53.5t33.5 38t50.5 24.5t63 13l163 17v45q0 63 -35.5 90.5t-91.5 27.5q-39 0 -76 -11.5t-68 -34.5q-6 -6 -10 1
l-14 20q-3 6 2 10q77 53 167 53zM213 201q-55 -6 -90 -25.5t-35 -69.5q0 -82 105 -82q33 0 64 10t55 29t38.5 47t14.5 64v43zM150 625q14 0 23.5 -9.5t9.5 -24.5q0 -14 -9.5 -23t-23.5 -9t-23.5 9t-9.5 23q0 15 9.5 24.5t23.5 9.5zM323 625q14 0 23.5 -9.5t9.5 -24.5
q0 -14 -9.5 -23t-23.5 -9t-23.5 9t-9.5 23q0 15 9.5 24.5t23.5 9.5z" />
    <glyph glyph-name="aring" unicode="&#xe5;" horiz-adv-x="464" 
d="M239 452q36 0 67 -9.5t53.5 -29t35 -49t12.5 -70.5v-287q0 -7 -7 -7h-16q-7 0 -7 7l-7 80q-28 -51 -79 -74.5t-106 -23.5q-69 0 -105.5 31t-36.5 85q0 31 12 53.5t33.5 38t50.5 24.5t63 13l163 17v45q0 63 -35.5 90.5t-91.5 27.5q-39 0 -76 -11.5t-68 -34.5q-6 -6 -10 1
l-14 20q-3 6 2 10q77 53 167 53zM213 201q-55 -6 -90 -25.5t-35 -69.5q0 -82 105 -82q33 0 64 10t55 29t38.5 47t14.5 64v43zM237 720q47 0 75 -28.5t28 -70.5q0 -43 -28 -71.5t-75 -28.5t-75.5 28.5t-28.5 71.5q0 42 28.5 70.5t75.5 28.5zM237 692q-35 0 -54 -19.5
t-19 -51.5q0 -33 19 -52t54 -19t53.5 19t18.5 52q0 32 -18.5 51.5t-53.5 19.5z" />
    <glyph glyph-name="ae" unicode="&#xe6;" horiz-adv-x="836" 
d="M792 227q-1 -13 -3 -17.5t-9 -4.5h-368q1 -37 14 -70t36 -57t55 -38t71 -14q47 0 83 21.5t61 56.5q4 7 9 2l21 -16q7 -4 2 -9q-29 -42 -72 -67.5t-100 -25.5q-66 0 -114 34t-71 91v-106q0 -7 -7 -7h-16q-7 0 -7 7l-7 85q-25 -52 -74.5 -78t-103.5 -26q-77 0 -113 32.5
t-36 87.5q0 31 11.5 53t32 37t49.5 23.5t64 12.5l166 17v45q0 63 -36 90.5t-92 27.5q-78 0 -143 -48q-7 -3 -11 2l-14 21q-5 5 2 9q38 28 80 41t86 13q31 0 59.5 -7.5t50.5 -24t36.5 -41t17.5 -59.5q23 59 73 95.5t119 36.5q47 0 85 -16.5t64 -46t39 -71t10 -91.5zM751 240
q2 36 -8 68t-31 55.5t-52 37t-70 13.5t-71 -13.5t-55.5 -37t-37 -55t-14.5 -68.5h339zM211 201q-28 -3 -51 -8.5t-39 -15.5t-24.5 -26.5t-8.5 -41.5q0 -86 113 -86q29 0 58.5 9.5t53 28.5t38.5 46.5t15 64.5v47z" />
    <glyph glyph-name="ccedilla" unicode="&#xe7;" horiz-adv-x="485" 
d="M447 355q4 -4 -2 -9l-23 -14q-6 -3 -9 2q-24 36 -60 58t-86 22q-40 0 -72.5 -15t-55 -41.5t-34.5 -61.5t-12 -76q0 -40 12 -75.5t35 -61.5t55.5 -41.5t73.5 -15.5q49 0 84.5 21.5t58.5 59.5q4 6 9 2l22 -14q6 -4 3 -10q-29 -44 -74 -70.5t-106 -26.5q-49 0 -89 18
t-68.5 49.5t-44.5 73.5t-16 91t16 91.5t44.5 73.5t69 49t89.5 18q58 0 104.5 -25.5t75.5 -71.5zM269 5q9 0 7 -9l-14 -55q62 -2 91 -19.5t29 -52.5t-28.5 -55.5t-84.5 -20.5q-18 0 -37.5 2t-33.5 6q-7 0 -5 7l4 19q2 7 8 5q30 -8 66 -8q42 0 58 13t16 33t-23 34t-86 12
q-9 0 -7 9l18 75q2 5 7 5h15z" />
    <glyph glyph-name="egrave" unicode="&#xe8;" horiz-adv-x="517" 
d="M474 234q-1 -17 -2.5 -23t-8.5 -6h-370q1 -38 14 -70.5t36 -56.5t54.5 -38t70.5 -14q50 0 87.5 21t61.5 58q6 6 10 1l19 -15q6 -5 2 -10q-30 -42 -75 -67.5t-105 -25.5q-49 0 -90 18t-69.5 49.5t-44.5 73.5t-16 91t15.5 91.5t44 73.5t69 49t90.5 18q48 0 87.5 -16t67 -45
t41.5 -69t11 -88zM432 240q2 37 -8.5 68.5t-31.5 55t-52.5 37t-71.5 13.5q-39 0 -71 -13.5t-54.5 -36.5t-35.5 -55t-14 -69h339zM282 540q2 -4 0.5 -7t-7.5 -3h-28q-3 0 -5 3l-77 116q-7 11 6 11h34q3 0 6 -3z" />
    <glyph glyph-name="eacute" unicode="&#xe9;" horiz-adv-x="517" 
d="M474 234q-1 -17 -2.5 -23t-8.5 -6h-370q1 -38 14 -70.5t36 -56.5t54.5 -38t70.5 -14q50 0 87.5 21t61.5 58q6 6 10 1l19 -15q6 -5 2 -10q-30 -42 -75 -67.5t-105 -25.5q-49 0 -90 18t-69.5 49.5t-44.5 73.5t-16 91t15.5 91.5t44 73.5t69 49t90.5 18q48 0 87.5 -16t67 -45
t41.5 -69t11 -88zM432 240q2 37 -8.5 68.5t-31.5 55t-52.5 37t-71.5 13.5q-39 0 -71 -13.5t-54.5 -36.5t-35.5 -55t-14 -69h339zM322 657q3 3 6 3h35q13 0 6 -11l-78 -116q-1 -3 -5 -3h-28q-6 0 -7.5 3t1.5 7z" />
    <glyph glyph-name="ecircumflex" unicode="&#xea;" horiz-adv-x="517" 
d="M474 234q-1 -17 -2.5 -23t-8.5 -6h-370q1 -38 14 -70.5t36 -56.5t54.5 -38t70.5 -14q50 0 87.5 21t61.5 58q6 6 10 1l19 -15q6 -5 2 -10q-30 -42 -75 -67.5t-105 -25.5q-49 0 -90 18t-69.5 49.5t-44.5 73.5t-16 91t15.5 91.5t44 73.5t69 49t90.5 18q48 0 87.5 -16t67 -45
t41.5 -69t11 -88zM432 240q2 37 -8.5 68.5t-31.5 55t-52.5 37t-71.5 13.5q-39 0 -71 -13.5t-54.5 -36.5t-35.5 -55t-14 -69h339zM386 541q9 -11 -5 -11h-32q-4 0 -6 3l-76 105l-76 -105q-1 -3 -6 -3h-31q-15 0 -6 11l89 117q4 2 6 2h47q4 0 6 -2z" />
    <glyph glyph-name="edieresis" unicode="&#xeb;" horiz-adv-x="517" 
d="M474 234q-1 -17 -2.5 -23t-8.5 -6h-370q1 -38 14 -70.5t36 -56.5t54.5 -38t70.5 -14q50 0 87.5 21t61.5 58q6 6 10 1l19 -15q6 -5 2 -10q-30 -42 -75 -67.5t-105 -25.5q-49 0 -90 18t-69.5 49.5t-44.5 73.5t-16 91t15.5 91.5t44 73.5t69 49t90.5 18q48 0 87.5 -16t67 -45
t41.5 -69t11 -88zM432 240q2 37 -8.5 68.5t-31.5 55t-52.5 37t-71.5 13.5q-39 0 -71 -13.5t-54.5 -36.5t-35.5 -55t-14 -69h339zM180 625q14 0 23.5 -9.5t9.5 -24.5q0 -14 -9.5 -23t-23.5 -9t-23.5 9t-9.5 23q0 15 9.5 24.5t23.5 9.5zM353 625q14 0 23.5 -9.5t9.5 -24.5
q0 -14 -9.5 -23t-23.5 -9t-23.5 9t-9.5 23q0 15 9.5 24.5t23.5 9.5z" />
    <glyph glyph-name="igrave" unicode="&#xec;" horiz-adv-x="157" 
d="M94 440q6 0 6 -7v-426q0 -7 -6 -7h-30q-7 0 -7 7v426q0 7 7 7h30zM94 540q2 -4 0.5 -7t-7.5 -3h-28q-3 0 -5 3l-77 116q-7 11 6 11h34q3 0 6 -3z" />
    <glyph glyph-name="iacute" unicode="&#xed;" horiz-adv-x="157" 
d="M94 440q6 0 6 -7v-426q0 -7 -6 -7h-30q-7 0 -7 7v426q0 7 7 7h30zM134 657q3 3 6 3h35q13 0 6 -11l-78 -116q-1 -3 -5 -3h-28q-6 0 -7.5 3t1.5 7z" />
    <glyph glyph-name="icircumflex" unicode="&#xee;" horiz-adv-x="157" 
d="M94 440q6 0 6 -7v-426q0 -7 -6 -7h-30q-7 0 -7 7v426q0 7 7 7h30zM198 541q9 -11 -5 -11h-32q-4 0 -6 3l-76 105l-76 -105q-1 -3 -6 -3h-31q-15 0 -6 11l89 117q4 2 6 2h47q4 0 6 -2z" />
    <glyph glyph-name="idieresis" unicode="&#xef;" horiz-adv-x="157" 
d="M94 440q6 0 6 -7v-426q0 -7 -6 -7h-30q-7 0 -7 7v426q0 7 7 7h30zM-8 625q14 0 23.5 -9.5t9.5 -24.5q0 -14 -9.5 -23t-23.5 -9t-23.5 9t-9.5 23q0 15 9.5 24.5t23.5 9.5zM165 625q14 0 23.5 -9.5t9.5 -24.5q0 -14 -9.5 -23t-23.5 -9t-23.5 9t-9.5 23q0 15 9.5 24.5
t23.5 9.5z" />
    <glyph glyph-name="eth" unicode="&#xf0;" horiz-adv-x="569" 
d="M168 548q-5 -5 -9 2l-10 17q-3 6 3 10l91 58l-67 94q-8 11 5 11h35q5 0 6 -3l57 -82l79 51q7 3 10 -3l10 -17q5 -5 -2 -9l-79 -50l174 -256q25 -35 37.5 -78t12.5 -85q0 -49 -17 -89.5t-47.5 -69.5t-73.5 -45t-94 -16q-53 0 -97 17t-76 47.5t-50 73.5t-18 95
q0 51 17.5 92.5t47.5 71t71 45.5t89 16q35 0 68 -9t59 -26l-138 195zM287 407q-89 0 -141.5 -50.5t-52.5 -139.5q0 -43 14 -78t39.5 -60t61.5 -38.5t80 -13.5q85 0 136.5 49t51.5 135q0 42 -13 78t-37.5 62t-59.5 41t-79 15z" />
    <glyph glyph-name="ntilde" unicode="&#xf1;" horiz-adv-x="513" 
d="M81 440q7 0 7 -6l9 -104q23 58 73.5 90t114.5 32q84 0 129.5 -48t45.5 -134v-263q0 -7 -7 -7h-30q-7 0 -7 7v261q0 69 -34 107t-104 38q-42 0 -75 -14.5t-56 -39t-35 -57.5t-12 -71v-224q0 -7 -6 -7h-30q-7 0 -7 7v426q0 7 7 7h17zM400 661q7 0 7 -7q-2 -69 -19.5 -101.5
t-51.5 -32.5q-25 0 -41.5 17t-30 37.5t-27 37.5t-31.5 17q-20 0 -32.5 -22t-13.5 -75q0 -7 -7 -7h-21q-7 0 -7 7q2 68 22 100.5t55 32.5q25 0 42 -17t30.5 -38t26.5 -38t31 -17q20 0 29 22.5t10 76.5q0 7 7 7h22z" />
    <glyph glyph-name="ograve" unicode="&#xf2;" horiz-adv-x="546" 
d="M273 452q50 0 91 -18t71 -49t46.5 -73.5t16.5 -91.5t-16.5 -91.5t-46.5 -73.5t-71 -49t-91 -18q-49 0 -90.5 18t-71.5 49t-46.5 73.5t-16.5 91.5t16.5 91.5t46.5 73.5t71.5 49t90.5 18zM273 414q-42 0 -75 -14.5t-56.5 -40.5t-36 -61.5t-12.5 -77.5q0 -41 12.5 -76.5
t36 -61.5t56.5 -41t75 -15q41 0 74.5 15t57 41t36 61.5t12.5 76.5q0 42 -12.5 77.5t-36 61.5t-57 40.5t-74.5 14.5zM288 540q2 -4 0.5 -7t-7.5 -3h-28q-3 0 -5 3l-77 116q-7 11 6 11h34q3 0 6 -3z" />
    <glyph glyph-name="oacute" unicode="&#xf3;" horiz-adv-x="546" 
d="M273 452q50 0 91 -18t71 -49t46.5 -73.5t16.5 -91.5t-16.5 -91.5t-46.5 -73.5t-71 -49t-91 -18q-49 0 -90.5 18t-71.5 49t-46.5 73.5t-16.5 91.5t16.5 91.5t46.5 73.5t71.5 49t90.5 18zM273 414q-42 0 -75 -14.5t-56.5 -40.5t-36 -61.5t-12.5 -77.5q0 -41 12.5 -76.5
t36 -61.5t56.5 -41t75 -15q41 0 74.5 15t57 41t36 61.5t12.5 76.5q0 42 -12.5 77.5t-36 61.5t-57 40.5t-74.5 14.5zM328 657q3 3 6 3h35q13 0 6 -11l-78 -116q-1 -3 -5 -3h-28q-6 0 -7.5 3t1.5 7z" />
    <glyph glyph-name="ocircumflex" unicode="&#xf4;" horiz-adv-x="546" 
d="M273 452q50 0 91 -18t71 -49t46.5 -73.5t16.5 -91.5t-16.5 -91.5t-46.5 -73.5t-71 -49t-91 -18q-49 0 -90.5 18t-71.5 49t-46.5 73.5t-16.5 91.5t16.5 91.5t46.5 73.5t71.5 49t90.5 18zM273 414q-42 0 -75 -14.5t-56.5 -40.5t-36 -61.5t-12.5 -77.5q0 -41 12.5 -76.5
t36 -61.5t56.5 -41t75 -15q41 0 74.5 15t57 41t36 61.5t12.5 76.5q0 42 -12.5 77.5t-36 61.5t-57 40.5t-74.5 14.5zM392 541q9 -11 -5 -11h-32q-4 0 -6 3l-76 105l-76 -105q-1 -3 -6 -3h-31q-15 0 -6 11l89 117q4 2 6 2h47q4 0 6 -2z" />
    <glyph glyph-name="otilde" unicode="&#xf5;" horiz-adv-x="546" 
d="M273 452q50 0 91 -18t71 -49t46.5 -73.5t16.5 -91.5t-16.5 -91.5t-46.5 -73.5t-71 -49t-91 -18q-49 0 -90.5 18t-71.5 49t-46.5 73.5t-16.5 91.5t16.5 91.5t46.5 73.5t71.5 49t90.5 18zM273 414q-42 0 -75 -14.5t-56.5 -40.5t-36 -61.5t-12.5 -77.5q0 -41 12.5 -76.5
t36 -61.5t56.5 -41t75 -15q41 0 74.5 15t57 41t36 61.5t12.5 76.5q0 42 -12.5 77.5t-36 61.5t-57 40.5t-74.5 14.5zM407 661q7 0 7 -7q-2 -69 -19.5 -101.5t-51.5 -32.5q-25 0 -41.5 17t-30 37.5t-27 37.5t-31.5 17q-20 0 -32.5 -22t-13.5 -75q0 -7 -7 -7h-21q-7 0 -7 7
q2 68 22 100.5t55 32.5q25 0 42 -17t30.5 -38t26.5 -38t31 -17q20 0 29 22.5t10 76.5q0 7 7 7h22z" />
    <glyph glyph-name="odieresis" unicode="&#xf6;" horiz-adv-x="546" 
d="M273 452q50 0 91 -18t71 -49t46.5 -73.5t16.5 -91.5t-16.5 -91.5t-46.5 -73.5t-71 -49t-91 -18q-49 0 -90.5 18t-71.5 49t-46.5 73.5t-16.5 91.5t16.5 91.5t46.5 73.5t71.5 49t90.5 18zM273 414q-42 0 -75 -14.5t-56.5 -40.5t-36 -61.5t-12.5 -77.5q0 -41 12.5 -76.5
t36 -61.5t56.5 -41t75 -15q41 0 74.5 15t57 41t36 61.5t12.5 76.5q0 42 -12.5 77.5t-36 61.5t-57 40.5t-74.5 14.5zM186 625q14 0 23.5 -9.5t9.5 -24.5q0 -14 -9.5 -23t-23.5 -9t-23.5 9t-9.5 23q0 15 9.5 24.5t23.5 9.5zM359 625q14 0 23.5 -9.5t9.5 -24.5q0 -14 -9.5 -23
t-23.5 -9t-23.5 9t-9.5 23q0 15 9.5 24.5t23.5 9.5z" />
    <glyph glyph-name="divide" unicode="&#xf7;" horiz-adv-x="600" 
d="M300 491q17 0 29 -11.5t12 -28.5q0 -19 -12 -29.5t-29 -10.5t-28.5 10.5t-11.5 29.5q0 17 11.5 28.5t28.5 11.5zM536 294q7 0 7 -7v-23q0 -7 -7 -7h-472q-7 0 -7 7v23q0 7 7 7h472zM300 141q17 0 29 -11t12 -29t-12 -29.5t-29 -11.5t-28.5 11.5t-11.5 29.5t11.5 29
t28.5 11z" />
    <glyph glyph-name="oslash" unicode="&#xf8;" horiz-adv-x="546" 
d="M465 499q5 3 10 1l16 -12q5 -4 2 -10l-66 -85q34 -32 52.5 -75.5t18.5 -97.5q0 -49 -16.5 -91.5t-46.5 -73.5t-71 -48.5t-91 -17.5q-38 0 -71 10.5t-59 29.5l-61 -79q-5 -5 -11 -1l-16 12q-6 4 -1 11l62 78q-32 32 -50 75.5t-18 94.5q0 49 16.5 91.5t46.5 73.5t71.5 48.5
t90.5 17.5q72 0 126 -37zM273 413q-42 0 -75 -14.5t-56.5 -40.5t-36 -61t-12.5 -77q0 -41 12 -75.5t36 -60.5l234 298q-42 31 -102 31zM167 61q43 -34 106 -34q42 0 75 14.5t56.5 40.5t36 61.5t12.5 76.5q0 42 -13.5 78t-38.5 61z" />
    <glyph glyph-name="ugrave" unicode="&#xf9;" horiz-adv-x="512" 
d="M448 440q7 0 7 -7v-426q0 -7 -7 -7h-17q-7 0 -7 7l-9 104q-23 -58 -72.5 -90.5t-115.5 -32.5q-84 0 -129 48t-45 135v262q0 7 7 7h30q6 0 6 -7v-258q0 -69 34 -107.5t105 -38.5q42 0 75 14t55.5 38.5t34 57.5t11.5 70v224q0 7 7 7h30zM266 540q2 -4 0.5 -7t-7.5 -3h-28
q-3 0 -5 3l-77 116q-7 11 6 11h34q3 0 6 -3z" />
    <glyph glyph-name="uacute" unicode="&#xfa;" horiz-adv-x="512" 
d="M448 440q7 0 7 -7v-426q0 -7 -7 -7h-17q-7 0 -7 7l-9 104q-23 -58 -72.5 -90.5t-115.5 -32.5q-84 0 -129 48t-45 135v262q0 7 7 7h30q6 0 6 -7v-258q0 -69 34 -107.5t105 -38.5q42 0 75 14t55.5 38.5t34 57.5t11.5 70v224q0 7 7 7h30zM306 657q3 3 6 3h35q13 0 6 -11
l-78 -116q-1 -3 -5 -3h-28q-6 0 -7.5 3t1.5 7z" />
    <glyph glyph-name="ucircumflex" unicode="&#xfb;" horiz-adv-x="512" 
d="M448 440q7 0 7 -7v-426q0 -7 -7 -7h-17q-7 0 -7 7l-9 104q-23 -58 -72.5 -90.5t-115.5 -32.5q-84 0 -129 48t-45 135v262q0 7 7 7h30q6 0 6 -7v-258q0 -69 34 -107.5t105 -38.5q42 0 75 14t55.5 38.5t34 57.5t11.5 70v224q0 7 7 7h30zM370 541q9 -11 -5 -11h-32
q-4 0 -6 3l-76 105l-76 -105q-1 -3 -6 -3h-31q-15 0 -6 11l89 117q4 2 6 2h47q4 0 6 -2z" />
    <glyph glyph-name="udieresis" unicode="&#xfc;" horiz-adv-x="512" 
d="M448 440q7 0 7 -7v-426q0 -7 -7 -7h-17q-7 0 -7 7l-9 104q-23 -58 -72.5 -90.5t-115.5 -32.5q-84 0 -129 48t-45 135v262q0 7 7 7h30q6 0 6 -7v-258q0 -69 34 -107.5t105 -38.5q42 0 75 14t55.5 38.5t34 57.5t11.5 70v224q0 7 7 7h30zM165 625q14 0 23.5 -9.5t9.5 -24.5
q0 -14 -9.5 -23t-23.5 -9t-23.5 9t-9.5 23q0 15 9.5 24.5t23.5 9.5zM338 625q14 0 23.5 -9.5t9.5 -24.5q0 -14 -9.5 -23t-23.5 -9t-23.5 9t-9.5 23q0 15 9.5 24.5t23.5 9.5z" />
    <glyph glyph-name="yacute" unicode="&#xfd;" horiz-adv-x="463" 
d="M19 430q-3 10 7 10h35q6 0 7 -4l178 -381l152 381q1 4 6 4h33q11 0 6 -9l-254 -617q-1 -2 -3 -3t-4 -1h-34q-11 0 -6 9l80 186zM289 657q3 3 6 3h35q13 0 6 -11l-78 -116q-1 -3 -5 -3h-28q-6 0 -7.5 3t1.5 7z" />
    <glyph glyph-name="thorn" unicode="&#xfe;" horiz-adv-x="553" 
d="M289 452q47 0 87 -18t68.5 -49t44.5 -73.5t16 -91.5t-16 -91t-44.5 -73.5t-68 -49.5t-86.5 -18q-29 0 -57.5 7.5t-53.5 23t-45 39t-32 55.5v-296q0 -7 -7 -7h-30q-7 0 -7 7v916q0 7 7 7h30q7 0 7 -7v-406q12 32 32.5 55.5t45 39t53 23t56.5 7.5zM280 411q-39 0 -72 -14
t-57 -39t-37.5 -60t-13.5 -76t13.5 -76.5t37.5 -61.5t57.5 -40.5t73.5 -14.5t72.5 14.5t56 40.5t36.5 61t13 75q0 41 -13 75.5t-36.5 60.5t-56.5 40.5t-74 14.5z" />
    <glyph glyph-name="ydieresis" unicode="&#xff;" horiz-adv-x="463" 
d="M19 430q-3 10 7 10h35q6 0 7 -4l178 -381l152 381q1 4 6 4h33q11 0 6 -9l-254 -617q-1 -2 -3 -3t-4 -1h-34q-11 0 -6 9l80 186zM147 625q14 0 23.5 -9.5t9.5 -24.5q0 -14 -9.5 -23t-23.5 -9t-23.5 9t-9.5 23q0 15 9.5 24.5t23.5 9.5zM320 625q14 0 23.5 -9.5t9.5 -24.5
q0 -14 -9.5 -23t-23.5 -9t-23.5 9t-9.5 23q0 15 9.5 24.5t23.5 9.5z" />
    <glyph glyph-name="Amacron" unicode="&#x100;" horiz-adv-x="745" 
d="M378 705q5 0 6 -4l307 -692q5 -9 -6 -9h-35q-4 0 -6 5l-90 202h-364l-89 -202q-1 -5 -6 -5h-36q-10 0 -6 9l308 692q1 4 8 4h9zM537 248l-164 377l-165 -377h329zM506 801q0 -7 -7 -7h-251q-7 0 -7 7v21q0 7 7 7h251q7 0 7 -7v-21z" />
    <glyph glyph-name="amacron" unicode="&#x101;" horiz-adv-x="464" 
d="M239 452q36 0 67 -9.5t53.5 -29t35 -49t12.5 -70.5v-287q0 -7 -7 -7h-16q-7 0 -7 7l-7 80q-28 -51 -79 -74.5t-106 -23.5q-69 0 -105.5 31t-36.5 85q0 31 12 53.5t33.5 38t50.5 24.5t63 13l163 17v45q0 63 -35.5 90.5t-91.5 27.5q-39 0 -76 -11.5t-68 -34.5q-6 -6 -10 1
l-14 20q-3 6 2 10q77 53 167 53zM213 201q-55 -6 -90 -25.5t-35 -69.5q0 -82 105 -82q33 0 64 10t55 29t38.5 47t14.5 64v43zM369 581q0 -7 -7 -7h-251q-7 0 -7 7v21q0 7 7 7h251q7 0 7 -7v-21z" />
    <glyph glyph-name="Abreve" unicode="&#x102;" horiz-adv-x="745" 
d="M378 705q5 0 6 -4l307 -692q5 -9 -6 -9h-35q-4 0 -6 5l-90 202h-364l-89 -202q-1 -5 -6 -5h-36q-10 0 -6 9l308 692q1 4 8 4h9zM537 248l-164 377l-165 -377h329zM236 873q0 7 7 7h24q6 0 6 -7q1 -18 5.5 -35.5t16 -31t30.5 -22t48 -8.5t48 8.5t30 22t15.5 31t5.5 35.5
q0 7 7 7h23q7 0 7 -7q-1 -26 -8.5 -49.5t-23.5 -41t-41.5 -27.5t-62.5 -10t-62.5 10t-41.5 27.5t-24 41t-9 49.5z" />
    <glyph glyph-name="abreve" unicode="&#x103;" horiz-adv-x="464" 
d="M239 452q36 0 67 -9.5t53.5 -29t35 -49t12.5 -70.5v-287q0 -7 -7 -7h-16q-7 0 -7 7l-7 80q-28 -51 -79 -74.5t-106 -23.5q-69 0 -105.5 31t-36.5 85q0 31 12 53.5t33.5 38t50.5 24.5t63 13l163 17v45q0 63 -35.5 90.5t-91.5 27.5q-39 0 -76 -11.5t-68 -34.5q-6 -6 -10 1
l-14 20q-3 6 2 10q77 53 167 53zM213 201q-55 -6 -90 -25.5t-35 -69.5q0 -82 105 -82q33 0 64 10t55 29t38.5 47t14.5 64v43zM99 653q0 7 7 7h24q6 0 6 -7q1 -18 5.5 -35.5t16 -31t30.5 -22t48 -8.5t48 8.5t30 22t15.5 31t5.5 35.5q0 7 7 7h23q7 0 7 -7q-1 -26 -8.5 -49.5
t-23.5 -41t-41.5 -27.5t-62.5 -10t-62.5 10t-41.5 27.5t-24 41t-9 49.5z" />
    <glyph glyph-name="Aogonek" unicode="&#x104;" horiz-adv-x="743" 
d="M377 705q4 0 7 -4l306 -691q6 -10 -7 -20q-39 -30 -56 -58t-17 -60q0 -58 59 -58q11 0 18.5 1t15.5 4q8 2 9 -5l4 -18q2 -6 -4 -8q-21 -8 -47 -8q-45 0 -69 22t-24 60q0 40 22.5 75.5t60.5 62.5h-6q-3 0 -6 5l-89 201h-364l-90 -201q-1 -5 -6 -5h-35q-11 0 -6 9l308 692
q1 4 7 4h9zM537 248l-165 377l-165 -377h330z" />
    <glyph glyph-name="aogonek" unicode="&#x105;" horiz-adv-x="468" 
d="M244 452q36 0 67 -9.5t53.5 -29t35 -49t12.5 -70.5v-289q0 -9 -8 -14q-39 -26 -57 -55.5t-18 -63.5q0 -28 15.5 -43t43.5 -15q23 0 34 5q8 2 9 -5l5 -18q2 -6 -4 -8q-22 -8 -48 -8q-44 0 -68.5 22t-24.5 60q0 42 23.5 78t67.5 65l-7 83q-28 -51 -79 -75t-106 -24
q-69 0 -105.5 31t-36.5 85q0 31 11 53t30.5 37.5t47.5 24.5t62 13l171 18v45q0 63 -35.5 90.5t-91.5 27.5q-39 0 -76 -11.5t-68 -34.5q-5 -5 -10 1l-15 20q-4 5 3 10q39 28 80.5 40.5t86.5 12.5zM210 201q-54 -6 -85.5 -25.5t-31.5 -69.5q0 -82 105 -82q33 0 64 10t55 29
t38.5 47t14.5 64v44z" />
    <glyph glyph-name="Cacute" unicode="&#x106;" horiz-adv-x="738" 
d="M680 590q4 -5 -1 -10l-22 -18q-4 -2 -11 1q-42 53 -102 80t-132 27q-66 0 -120.5 -23.5t-93.5 -66t-60 -101t-21 -129.5q0 -70 21 -129t60 -101t93.5 -65.5t120.5 -23.5q73 0 133 27.5t103 78.5q5 5 10 2l23 -18q4 -4 1 -10q-50 -60 -118.5 -91.5t-151.5 -31.5
q-76 0 -139 27t-108.5 75t-70.5 114.5t-25 145.5t25 145.5t70.5 114.5t108.5 75t139 27q82 0 151 -32t117 -90zM464 887q3 3 6 3h35q13 0 6 -11l-78 -116q-1 -3 -5 -3h-28q-6 0 -7.5 3t1.5 7z" />
    <glyph glyph-name="cacute" unicode="&#x107;" horiz-adv-x="485" 
d="M447 355q4 -4 -2 -9l-23 -14q-6 -3 -9 2q-24 36 -60 58t-86 22q-40 0 -72.5 -15t-55 -41.5t-34.5 -61.5t-12 -76q0 -40 12 -75.5t35 -61.5t55.5 -41.5t73.5 -15.5q49 0 84.5 21.5t58.5 59.5q4 6 9 2l22 -14q6 -4 3 -10q-29 -44 -74 -70.5t-106 -26.5q-49 0 -89 18
t-68.5 49.5t-44.5 73.5t-16 91t16 91.5t44.5 73.5t69 49t89.5 18q58 0 104.5 -25.5t75.5 -71.5zM322 657q3 3 6 3h35q13 0 6 -11l-78 -116q-1 -3 -5 -3h-28q-6 0 -7.5 3t1.5 7z" />
    <glyph glyph-name="Ccircumflex" unicode="&#x108;" horiz-adv-x="738" 
d="M680 590q4 -5 -1 -10l-22 -18q-4 -2 -11 1q-42 53 -102 80t-132 27q-66 0 -120.5 -23.5t-93.5 -66t-60 -101t-21 -129.5q0 -70 21 -129t60 -101t93.5 -65.5t120.5 -23.5q73 0 133 27.5t103 78.5q5 5 10 2l23 -18q4 -4 1 -10q-50 -60 -118.5 -91.5t-151.5 -31.5
q-76 0 -139 27t-108.5 75t-70.5 114.5t-25 145.5t25 145.5t70.5 114.5t108.5 75t139 27q82 0 151 -32t117 -90zM528 771q9 -11 -5 -11h-32q-4 0 -6 3l-76 105l-76 -105q-1 -3 -6 -3h-31q-15 0 -6 11l89 117q4 2 6 2h47q4 0 6 -2z" />
    <glyph glyph-name="ccircumflex" unicode="&#x109;" horiz-adv-x="485" 
d="M447 355q4 -4 -2 -9l-23 -14q-6 -3 -9 2q-24 36 -60 58t-86 22q-40 0 -72.5 -15t-55 -41.5t-34.5 -61.5t-12 -76q0 -40 12 -75.5t35 -61.5t55.5 -41.5t73.5 -15.5q49 0 84.5 21.5t58.5 59.5q4 6 9 2l22 -14q6 -4 3 -10q-29 -44 -74 -70.5t-106 -26.5q-49 0 -89 18
t-68.5 49.5t-44.5 73.5t-16 91t16 91.5t44.5 73.5t69 49t89.5 18q58 0 104.5 -25.5t75.5 -71.5zM385 541q9 -11 -5 -11h-32q-4 0 -6 3l-76 105l-76 -105q-1 -3 -6 -3h-31q-15 0 -6 11l89 117q4 2 6 2h47q4 0 6 -2z" />
    <glyph glyph-name="Cdotaccent" unicode="&#x10a;" horiz-adv-x="738" 
d="M680 590q4 -5 -1 -10l-22 -18q-4 -2 -11 1q-42 53 -102 80t-132 27q-66 0 -120.5 -23.5t-93.5 -66t-60 -101t-21 -129.5q0 -70 21 -129t60 -101t93.5 -65.5t120.5 -23.5q73 0 133 27.5t103 78.5q5 5 10 2l23 -18q4 -4 1 -10q-50 -60 -118.5 -91.5t-151.5 -31.5
q-76 0 -139 27t-108.5 75t-70.5 114.5t-25 145.5t25 145.5t70.5 114.5t108.5 75t139 27q82 0 151 -32t117 -90zM408 845q14 0 22 -8t8 -22t-8 -22t-22 -8q-13 0 -21.5 8t-8.5 22t8.5 22t21.5 8z" />
    <glyph glyph-name="cdotaccent" unicode="&#x10b;" horiz-adv-x="485" 
d="M447 355q4 -4 -2 -9l-23 -14q-6 -3 -9 2q-24 36 -60 58t-86 22q-40 0 -72.5 -15t-55 -41.5t-34.5 -61.5t-12 -76q0 -40 12 -75.5t35 -61.5t55.5 -41.5t73.5 -15.5q49 0 84.5 21.5t58.5 59.5q4 6 9 2l22 -14q6 -4 3 -10q-29 -44 -74 -70.5t-106 -26.5q-49 0 -89 18
t-68.5 49.5t-44.5 73.5t-16 91t16 91.5t44.5 73.5t69 49t89.5 18q58 0 104.5 -25.5t75.5 -71.5zM266 615q14 0 22 -8t8 -22t-8 -22t-22 -8q-13 0 -21.5 8t-8.5 22t8.5 22t21.5 8z" />
    <glyph glyph-name="Ccaron" unicode="&#x10c;" horiz-adv-x="738" 
d="M680 590q4 -5 -1 -10l-22 -18q-4 -2 -11 1q-42 53 -102 80t-132 27q-66 0 -120.5 -23.5t-93.5 -66t-60 -101t-21 -129.5q0 -70 21 -129t60 -101t93.5 -65.5t120.5 -23.5q73 0 133 27.5t103 78.5q5 5 10 2l23 -18q4 -4 1 -10q-50 -60 -118.5 -91.5t-151.5 -31.5
q-76 0 -139 27t-108.5 75t-70.5 114.5t-25 145.5t25 145.5t70.5 114.5t108.5 75t139 27q82 0 151 -32t117 -90zM523 890q14 0 5 -11l-90 -116q-1 -3 -6 -3h-47q-3 0 -6 3l-89 116q-9 11 6 11h31q4 0 6 -2l76 -106l76 106q2 2 6 2h32z" />
    <glyph glyph-name="ccaron" unicode="&#x10d;" horiz-adv-x="485" 
d="M447 355q4 -4 -2 -9l-23 -14q-6 -3 -9 2q-24 36 -60 58t-86 22q-40 0 -72.5 -15t-55 -41.5t-34.5 -61.5t-12 -76q0 -40 12 -75.5t35 -61.5t55.5 -41.5t73.5 -15.5q49 0 84.5 21.5t58.5 59.5q4 6 9 2l22 -14q6 -4 3 -10q-29 -44 -74 -70.5t-106 -26.5q-49 0 -89 18
t-68.5 49.5t-44.5 73.5t-16 91t16 91.5t44.5 73.5t69 49t89.5 18q58 0 104.5 -25.5t75.5 -71.5zM380 660q14 0 5 -11l-90 -116q-1 -3 -6 -3h-47q-3 0 -6 3l-89 116q-9 11 6 11h31q4 0 6 -2l76 -106l76 106q2 2 6 2h32z" />
    <glyph glyph-name="Dcaron" unicode="&#x10e;" horiz-adv-x="752" 
d="M92 693q0 7 7 7h227q88 0 154.5 -25.5t111.5 -71t68 -108t23 -135.5q0 -74 -23 -139.5t-68.5 -114.5t-112 -77.5t-153.5 -28.5h-227q-7 0 -7 7v686zM137 42h189q77 0 135 25t97 68t58.5 101t19.5 124t-19.5 120.5t-58 94t-96.5 61.5t-136 22h-189v-616zM490 880
q14 0 5 -11l-90 -116q-1 -3 -6 -3h-47q-3 0 -6 3l-89 116q-9 11 6 11h31q4 0 6 -2l76 -106l76 106q2 2 6 2h32z" />
    <glyph glyph-name="dcaron" unicode="&#x10f;" horiz-adv-x="557" 
d="M263 452q29 0 57.5 -7.5t53.5 -23t45.5 -39t32.5 -55.5v406q0 7 7 7h29q7 0 7 -7v-726q0 -7 -7 -7h-17q-7 0 -7 7l-10 112q-12 -33 -32 -58t-45.5 -41t-54.5 -24t-59 -8q-47 0 -86.5 18t-68 49.5t-44.5 73.5t-16 91t16 91.5t44.5 73.5t68 49t86.5 18zM271 413
q-41 0 -74 -14.5t-56 -40.5t-35.5 -61.5t-12.5 -76.5q0 -40 12.5 -75t36 -61.5t56.5 -41.5t75 -15q39 0 72 14.5t56.5 40.5t37 61t13.5 76q0 42 -13.5 77.5t-37.5 61.5t-57 40.5t-73 14.5zM607 752q17 0 29 -12t13 -35q2 -71 -46 -125q-4 -4 -8 -1l-13 9q-7 3 -1 11
q17 20 23.5 41t4.5 38q-19 -2 -30 9.5t-11 26.5q0 18 11.5 28t27.5 10z" />
    <glyph glyph-name="Dcroat" unicode="&#x110;" horiz-adv-x="808" 
d="M148 693q0 7 7 7h228q87 0 153.5 -25.5t111.5 -71t68 -108t23 -135.5q0 -74 -23 -139.5t-68 -114.5t-111.5 -77.5t-153.5 -28.5h-228q-7 0 -7 7v328h-79q-7 0 -7 7v23q0 7 7 7h79v321zM403 372q7 0 7 -7v-23q0 -7 -7 -7h-210v-293h190q77 0 134.5 25t96.5 68t58.5 101
t19.5 124t-19.5 120.5t-58 94t-96.5 61.5t-135 22h-190v-286h210z" />
    <glyph glyph-name="dcroat" unicode="&#x111;" horiz-adv-x="566" 
d="M280 629q0 7 7 7h165v97q0 7 7 7h29q7 0 7 -7v-97h64q7 0 7 -7v-23q0 -7 -7 -7h-64v-592q0 -7 -7 -7h-17q-7 0 -7 7l-10 112q-12 -34 -32 -58.5t-45.5 -40.5t-54.5 -24t-59 -8q-47 0 -86.5 18t-68 49.5t-44.5 73.5t-16 91t16 91.5t44.5 73.5t68 49t86.5 18
q29 0 57.5 -7.5t53.5 -23t45.5 -39t32.5 -56.5v273h-165q-7 0 -7 7v23zM271 413q-41 0 -74 -14.5t-56 -40.5t-35.5 -61.5t-12.5 -76.5q0 -40 12.5 -75t36 -61.5t56.5 -41.5t75 -15q39 0 72 14.5t56.5 40.5t37 61t13.5 76q0 42 -13.5 77.5t-37.5 61.5t-57 40.5t-73 14.5z" />
    <glyph glyph-name="Emacron" unicode="&#x112;" horiz-adv-x="575" 
d="M92 693q0 7 7 7h393q7 0 7 -7v-28q0 -7 -7 -7h-355v-280h318q7 0 7 -7v-26q0 -7 -7 -7h-318v-296h359q7 0 7 -7v-28q0 -7 -7 -7h-397q-7 0 -7 7v686zM435 801q0 -7 -7 -7h-251q-7 0 -7 7v21q0 7 7 7h251q7 0 7 -7v-21z" />
    <glyph glyph-name="emacron" unicode="&#x113;" horiz-adv-x="517" 
d="M474 234q-1 -17 -2.5 -23t-8.5 -6h-370q1 -38 14 -70.5t36 -56.5t54.5 -38t70.5 -14q50 0 87.5 21t61.5 58q6 6 10 1l19 -15q6 -5 2 -10q-30 -42 -75 -67.5t-105 -25.5q-49 0 -90 18t-69.5 49.5t-44.5 73.5t-16 91t15.5 91.5t44 73.5t69 49t90.5 18q48 0 87.5 -16t67 -45
t41.5 -69t11 -88zM432 240q2 37 -8.5 68.5t-31.5 55t-52.5 37t-71.5 13.5q-39 0 -71 -13.5t-54.5 -36.5t-35.5 -55t-14 -69h339zM399 581q0 -7 -7 -7h-251q-7 0 -7 7v21q0 7 7 7h251q7 0 7 -7v-21z" />
    <glyph glyph-name="Ebreve" unicode="&#x114;" horiz-adv-x="575" 
d="M92 693q0 7 7 7h393q7 0 7 -7v-28q0 -7 -7 -7h-355v-280h318q7 0 7 -7v-26q0 -7 -7 -7h-318v-296h359q7 0 7 -7v-28q0 -7 -7 -7h-397q-7 0 -7 7v686zM165 873q0 7 7 7h24q6 0 6 -7q1 -18 5.5 -35.5t16 -31t30.5 -22t48 -8.5t48 8.5t30 22t15.5 31t5.5 35.5q0 7 7 7h23
q7 0 7 -7q-1 -26 -8.5 -49.5t-23.5 -41t-41.5 -27.5t-62.5 -10t-62.5 10t-41.5 27.5t-24 41t-9 49.5z" />
    <glyph glyph-name="ebreve" unicode="&#x115;" horiz-adv-x="517" 
d="M474 234q-1 -17 -2.5 -23t-8.5 -6h-370q1 -38 14 -70.5t36 -56.5t54.5 -38t70.5 -14q50 0 87.5 21t61.5 58q6 6 10 1l19 -15q6 -5 2 -10q-30 -42 -75 -67.5t-105 -25.5q-49 0 -90 18t-69.5 49.5t-44.5 73.5t-16 91t15.5 91.5t44 73.5t69 49t90.5 18q48 0 87.5 -16t67 -45
t41.5 -69t11 -88zM432 240q2 37 -8.5 68.5t-31.5 55t-52.5 37t-71.5 13.5q-39 0 -71 -13.5t-54.5 -36.5t-35.5 -55t-14 -69h339zM130 653q0 7 7 7h24q6 0 6 -7q1 -18 5.5 -35.5t16 -31t30.5 -22t48 -8.5t48 8.5t30 22t15.5 31t5.5 35.5q0 7 7 7h23q7 0 7 -7
q-1 -26 -8.5 -49.5t-23.5 -41t-41.5 -27.5t-62.5 -10t-62.5 10t-41.5 27.5t-24 41t-9 49.5z" />
    <glyph glyph-name="Edotaccent" unicode="&#x116;" horiz-adv-x="575" 
d="M92 693q0 7 7 7h393q7 0 7 -7v-28q0 -7 -7 -7h-355v-280h318q7 0 7 -7v-26q0 -7 -7 -7h-318v-296h359q7 0 7 -7v-28q0 -7 -7 -7h-397q-7 0 -7 7v686zM302 835q14 0 22 -8t8 -22t-8 -22t-22 -8q-13 0 -21.5 8t-8.5 22t8.5 22t21.5 8z" />
    <glyph glyph-name="edotaccent" unicode="&#x117;" horiz-adv-x="517" 
d="M474 234q-1 -17 -2.5 -23t-8.5 -6h-370q1 -38 14 -70.5t36 -56.5t54.5 -38t70.5 -14q50 0 87.5 21t61.5 58q6 6 10 1l19 -15q6 -5 2 -10q-30 -42 -75 -67.5t-105 -25.5q-49 0 -90 18t-69.5 49.5t-44.5 73.5t-16 91t15.5 91.5t44 73.5t69 49t90.5 18q48 0 87.5 -16t67 -45
t41.5 -69t11 -88zM432 240q2 37 -8.5 68.5t-31.5 55t-52.5 37t-71.5 13.5q-39 0 -71 -13.5t-54.5 -36.5t-35.5 -55t-14 -69h339zM266 615q14 0 22 -8t8 -22t-8 -22t-22 -8q-13 0 -21.5 8t-8.5 22t8.5 22t21.5 8z" />
    <glyph glyph-name="Eogonek" unicode="&#x118;" horiz-adv-x="574" 
d="M91 693q0 7 7 7h393q7 0 7 -7v-28q0 -7 -7 -7h-355v-280h318q7 0 7 -7v-26q0 -7 -7 -7h-318v-296h359q7 0 7 -7v-30q0 -7 -7 -11q-42 -29 -59.5 -59.5t-17.5 -62.5q0 -28 15.5 -43t43.5 -15q12 0 19.5 1t15.5 4q6 2 9 -5l4 -18q2 -6 -4 -8q-21 -8 -48 -8q-44 0 -68.5 22
t-24.5 60q0 40 21 75t59 63h-362q-7 0 -7 7v686z" />
    <glyph glyph-name="eogonek" unicode="&#x119;" horiz-adv-x="517" 
d="M474 234q-1 -17 -2.5 -23t-8.5 -6h-370q1 -38 14 -70.5t36 -56.5t54.5 -38t70.5 -14q50 0 87.5 21t61.5 58q6 6 10 1l19 -15q6 -5 2 -10q-11 -14 -23 -26.5t-25 -23.5q-48 -42 -66 -79.5t-18 -72.5q0 -34 18.5 -49.5t47.5 -15.5q11 0 18.5 1t15.5 4q8 2 9 -5l4 -18
q2 -6 -3 -8q-22 -8 -48 -8q-45 0 -72.5 22.5t-27.5 66.5q0 31 14.5 64.5t46.5 68.5q-31 -14 -71 -14q-49 0 -90 18t-69.5 49.5t-44.5 73.5t-16 91t15.5 91.5t44 73.5t69 49t90.5 18q48 0 87.5 -16t67 -45t41.5 -69t11 -88zM432 240q2 37 -8.5 68.5t-31.5 55t-52.5 37
t-71.5 13.5q-39 0 -71 -13.5t-54.5 -36.5t-35.5 -55t-14 -69h339z" />
    <glyph glyph-name="Ecaron" unicode="&#x11a;" horiz-adv-x="575" 
d="M92 693q0 7 7 7h393q7 0 7 -7v-28q0 -7 -7 -7h-355v-280h318q7 0 7 -7v-26q0 -7 -7 -7h-318v-296h359q7 0 7 -7v-28q0 -7 -7 -7h-397q-7 0 -7 7v686zM417 880q14 0 5 -11l-90 -116q-1 -3 -6 -3h-47q-3 0 -6 3l-89 116q-9 11 6 11h31q4 0 6 -2l76 -106l76 106q2 2 6 2h32z
" />
    <glyph glyph-name="ecaron" unicode="&#x11b;" horiz-adv-x="517" 
d="M474 234q-1 -17 -2.5 -23t-8.5 -6h-370q1 -38 14 -70.5t36 -56.5t54.5 -38t70.5 -14q50 0 87.5 21t61.5 58q6 6 10 1l19 -15q6 -5 2 -10q-30 -42 -75 -67.5t-105 -25.5q-49 0 -90 18t-69.5 49.5t-44.5 73.5t-16 91t15.5 91.5t44 73.5t69 49t90.5 18q48 0 87.5 -16t67 -45
t41.5 -69t11 -88zM432 240q2 37 -8.5 68.5t-31.5 55t-52.5 37t-71.5 13.5q-39 0 -71 -13.5t-54.5 -36.5t-35.5 -55t-14 -69h339zM381 660q14 0 5 -11l-90 -116q-1 -3 -6 -3h-47q-3 0 -6 3l-89 116q-9 11 6 11h31q4 0 6 -2l76 -106l76 106q2 2 6 2h32z" />
    <glyph glyph-name="Gcircumflex" unicode="&#x11c;" horiz-adv-x="816" 
d="M421 305q-7 0 -7 6v27q0 7 7 7h317q6 0 7 -6q0 -6 0.5 -11.5t0.5 -13.5q0 -74 -24 -134.5t-66.5 -103t-102 -65.5t-131.5 -23q-78 0 -143 27t-111.5 75.5t-72.5 115.5t-26 146q0 78 25.5 144t71.5 114t110.5 75t143.5 27q84 0 153 -30.5t117 -91.5q4 -6 -1 -11l-23 -17
q-5 -3 -10 2q-42 54 -102.5 80t-132.5 26q-70 0 -126.5 -23.5t-96 -65.5t-60.5 -100.5t-21 -128.5q0 -71 21.5 -130t61.5 -101.5t97 -66t127 -23.5q64 0 115 20t87 56t55 86.5t19 111.5h-279zM536 771q9 -11 -5 -11h-32q-4 0 -6 3l-76 105l-76 -105q-1 -3 -6 -3h-31
q-15 0 -6 11l89 117q4 2 6 2h47q4 0 6 -2z" />
    <glyph glyph-name="gcircumflex" unicode="&#x11d;" horiz-adv-x="504" 
d="M495 408q0 -7 -7 -7l-114 -1q29 -20 45 -49.5t16 -70.5q0 -35 -13 -63t-36 -48t-55.5 -30.5t-70.5 -10.5q-63 0 -107 23q-25 -14 -25 -40q0 -19 12 -31.5t46 -17.5l157 -22q78 -10 110 -35.5t32 -64.5q0 -60 -62 -96.5t-171 -36.5q-115 0 -174 34t-59 94q0 38 23 68.5
t65 48.5q-21 20 -21 50q0 41 41 65q-53 42 -53 122q0 72 46.5 117.5t132.5 45.5q40 0 79 -12h156q7 0 7 -7v-25zM261 415q-69 0 -106.5 -33t-37.5 -93q0 -33 10.5 -56.5t29 -38.5t44.5 -22t56 -7q60 0 97.5 32t37.5 92q0 58 -35.5 92t-95.5 34zM137 33q-29 -12 -50.5 -35.5
t-21.5 -58.5q0 -48 49 -71.5t140 -23.5q94 0 139.5 27t45.5 65q0 28 -23 42.5t-77 21.5l-159 22q-24 3 -43 11zM384 541q9 -11 -5 -11h-32q-4 0 -6 3l-76 105l-76 -105q-1 -3 -6 -3h-31q-15 0 -6 11l89 117q4 2 6 2h47q4 0 6 -2z" />
    <glyph glyph-name="Gbreve" unicode="&#x11e;" horiz-adv-x="816" 
d="M421 305q-7 0 -7 6v27q0 7 7 7h317q6 0 7 -6q0 -6 0.5 -11.5t0.5 -13.5q0 -74 -24 -134.5t-66.5 -103t-102 -65.5t-131.5 -23q-78 0 -143 27t-111.5 75.5t-72.5 115.5t-26 146q0 78 25.5 144t71.5 114t110.5 75t143.5 27q84 0 153 -30.5t117 -91.5q4 -6 -1 -11l-23 -17
q-5 -3 -10 2q-42 54 -102.5 80t-132.5 26q-70 0 -126.5 -23.5t-96 -65.5t-60.5 -100.5t-21 -128.5q0 -71 21.5 -130t61.5 -101.5t97 -66t127 -23.5q64 0 115 20t87 56t55 86.5t19 111.5h-279zM280 883q0 7 7 7h24q6 0 6 -7q1 -18 5.5 -35.5t16 -31t30.5 -22t48 -8.5t48 8.5
t30 22t15.5 31t5.5 35.5q0 7 7 7h23q7 0 7 -7q-1 -26 -8.5 -49.5t-23.5 -41t-41.5 -27.5t-62.5 -10t-62.5 10t-41.5 27.5t-24 41t-9 49.5z" />
    <glyph glyph-name="gbreve" unicode="&#x11f;" horiz-adv-x="504" 
d="M495 408q0 -7 -7 -7l-114 -1q29 -20 45 -49.5t16 -70.5q0 -35 -13 -63t-36 -48t-55.5 -30.5t-70.5 -10.5q-63 0 -107 23q-25 -14 -25 -40q0 -19 12 -31.5t46 -17.5l157 -22q78 -10 110 -35.5t32 -64.5q0 -60 -62 -96.5t-171 -36.5q-115 0 -174 34t-59 94q0 38 23 68.5
t65 48.5q-21 20 -21 50q0 41 41 65q-53 42 -53 122q0 72 46.5 117.5t132.5 45.5q40 0 79 -12h156q7 0 7 -7v-25zM261 415q-69 0 -106.5 -33t-37.5 -93q0 -33 10.5 -56.5t29 -38.5t44.5 -22t56 -7q60 0 97.5 32t37.5 92q0 58 -35.5 92t-95.5 34zM137 33q-29 -12 -50.5 -35.5
t-21.5 -58.5q0 -48 49 -71.5t140 -23.5q94 0 139.5 27t45.5 65q0 28 -23 42.5t-77 21.5l-159 22q-24 3 -43 11zM127 653q0 7 7 7h24q6 0 6 -7q1 -18 5.5 -35.5t16 -31t30.5 -22t48 -8.5t48 8.5t30 22t15.5 31t5.5 35.5q0 7 7 7h23q7 0 7 -7q-1 -26 -8.5 -49.5t-23.5 -41
t-41.5 -27.5t-62.5 -10t-62.5 10t-41.5 27.5t-24 41t-9 49.5z" />
    <glyph glyph-name="Gdotaccent" unicode="&#x120;" horiz-adv-x="816" 
d="M421 305q-7 0 -7 6v27q0 7 7 7h317q6 0 7 -6q0 -6 0.5 -11.5t0.5 -13.5q0 -74 -24 -134.5t-66.5 -103t-102 -65.5t-131.5 -23q-78 0 -143 27t-111.5 75.5t-72.5 115.5t-26 146q0 78 25.5 144t71.5 114t110.5 75t143.5 27q84 0 153 -30.5t117 -91.5q4 -6 -1 -11l-23 -17
q-5 -3 -10 2q-42 54 -102.5 80t-132.5 26q-70 0 -126.5 -23.5t-96 -65.5t-60.5 -100.5t-21 -128.5q0 -71 21.5 -130t61.5 -101.5t97 -66t127 -23.5q64 0 115 20t87 56t55 86.5t19 111.5h-279zM416 845q14 0 22 -8t8 -22t-8 -22t-22 -8q-13 0 -21.5 8t-8.5 22t8.5 22t21.5 8z
" />
    <glyph glyph-name="gdotaccent" unicode="&#x121;" horiz-adv-x="504" 
d="M495 408q0 -7 -7 -7l-114 -1q29 -20 45 -49.5t16 -70.5q0 -35 -13 -63t-36 -48t-55.5 -30.5t-70.5 -10.5q-63 0 -107 23q-25 -14 -25 -40q0 -19 12 -31.5t46 -17.5l157 -22q78 -10 110 -35.5t32 -64.5q0 -60 -62 -96.5t-171 -36.5q-115 0 -174 34t-59 94q0 38 23 68.5
t65 48.5q-21 20 -21 50q0 41 41 65q-53 42 -53 122q0 72 46.5 117.5t132.5 45.5q40 0 79 -12h156q7 0 7 -7v-25zM261 415q-69 0 -106.5 -33t-37.5 -93q0 -33 10.5 -56.5t29 -38.5t44.5 -22t56 -7q60 0 97.5 32t37.5 92q0 58 -35.5 92t-95.5 34zM137 33q-29 -12 -50.5 -35.5
t-21.5 -58.5q0 -48 49 -71.5t140 -23.5q94 0 139.5 27t45.5 65q0 28 -23 42.5t-77 21.5l-159 22q-24 3 -43 11zM264 615q14 0 22 -8t8 -22t-8 -22t-22 -8q-13 0 -21.5 8t-8.5 22t8.5 22t21.5 8z" />
    <glyph glyph-name="uni0122" unicode="&#x122;" horiz-adv-x="816" 
d="M421 305q-7 0 -7 6v27q0 7 7 7h317q6 0 7 -6q0 -6 0.5 -11.5t0.5 -13.5q0 -74 -24 -134.5t-66.5 -103t-102 -65.5t-131.5 -23q-78 0 -143 27t-111.5 75.5t-72.5 115.5t-26 146q0 78 25.5 144t71.5 114t110.5 75t143.5 27q84 0 153 -30.5t117 -91.5q4 -6 -1 -11l-23 -17
q-5 -3 -10 2q-42 54 -102.5 80t-132.5 26q-70 0 -126.5 -23.5t-96 -65.5t-60.5 -100.5t-21 -128.5q0 -71 21.5 -130t61.5 -101.5t97 -66t127 -23.5q64 0 115 20t87 56t55 86.5t19 111.5h-279zM418 -37q15 0 27.5 -10t13.5 -32q1 -29 -10.5 -58t-35.5 -52q-5 -4 -9 -1l-10 9
q-5 5 0 11q16 17 22 35t6 33q-17 -4 -29.5 5.5t-12.5 24.5q0 17 11.5 26t26.5 9z" />
    <glyph glyph-name="uni0123" unicode="&#x123;" horiz-adv-x="504" 
d="M495 408q0 -7 -7 -7l-114 -1q29 -20 45 -49.5t16 -70.5q0 -35 -13 -63t-36 -48t-55.5 -30.5t-70.5 -10.5q-63 0 -107 23q-25 -14 -25 -40q0 -19 12 -31.5t46 -17.5l157 -22q78 -10 110 -35.5t32 -64.5q0 -60 -62 -96.5t-171 -36.5q-115 0 -174 34t-59 94q0 38 23 68.5
t65 48.5q-21 20 -21 50q0 41 41 65q-53 42 -53 122q0 72 46.5 117.5t132.5 45.5q40 0 79 -12h156q7 0 7 -7v-25zM261 415q-69 0 -106.5 -33t-37.5 -93q0 -33 10.5 -56.5t29 -38.5t44.5 -22t56 -7q60 0 97.5 32t37.5 92q0 58 -35.5 92t-95.5 34zM137 33q-29 -12 -50.5 -35.5
t-21.5 -58.5q0 -48 49 -71.5t140 -23.5q94 0 139.5 27t45.5 65q0 28 -23 42.5t-77 21.5l-159 22q-24 3 -43 11zM264 530q-17 0 -29 10.5t-13 33.5q-1 32 11 62.5t36 53.5q7 3 9 0l11 -9q7 -5 1 -11q-17 -18 -23 -36t-6 -33q20 2 30.5 -8.5t10.5 -25.5q0 -17 -10.5 -27
t-27.5 -10z" />
    <glyph glyph-name="Hcircumflex" unicode="&#x124;" horiz-adv-x="695" 
d="M596 700q7 0 7 -7v-686q0 -7 -7 -7h-31q-7 0 -7 7v315h-421v-315q0 -7 -7 -7h-31q-7 0 -7 7v686q0 7 7 7h31q7 0 7 -7v-329h421v329q0 7 7 7h31zM467 761q9 -11 -5 -11h-32q-4 0 -6 3l-76 105l-76 -105q-1 -3 -6 -3h-31q-15 0 -6 11l89 117q4 2 6 2h47q4 0 6 -2z" />
    <glyph glyph-name="hcircumflex" unicode="&#x125;" horiz-adv-x="518" 
d="M99 740q6 0 6 -7v-397q24 55 73.5 85.5t112.5 30.5q84 0 129 -48t45 -134v-263q0 -7 -7 -7h-29q-7 0 -7 7v261q0 145 -137 145q-42 0 -75.5 -14.5t-57 -39t-35.5 -57.5t-12 -71v-224q0 -7 -6 -7h-30q-7 0 -7 7v726q0 7 7 7h30zM202 781q9 -11 -5 -11h-32q-4 0 -6 3
l-76 105l-76 -105q-1 -3 -6 -3h-31q-15 0 -6 11l89 117q4 2 6 2h47q4 0 6 -2z" />
    <glyph glyph-name="Hbar" unicode="&#x126;" horiz-adv-x="807" 
d="M69 527q-7 0 -7 7v22q0 7 7 7h79v130q0 7 6 7h32q7 0 7 -7v-130h422v130q0 7 6 7h31q7 0 7 -7v-130h78q7 0 7 -7v-22q0 -7 -7 -7h-78v-520q0 -7 -7 -7h-31q-6 0 -6 7v315h-422v-315q0 -7 -7 -7h-32q-6 0 -6 7v520h-79zM615 364v163h-422v-163h422z" />
    <glyph glyph-name="hbar" unicode="&#x127;" horiz-adv-x="528" 
d="M0 629q0 7 7 7h65v97q0 7 7 7h30q6 0 6 -7v-97h164q6 0 6 -7v-23q0 -7 -6 -7h-164v-263q24 56 73.5 86t112.5 30q84 0 129 -48t45 -134v-263q0 -7 -7 -7h-29q-6 0 -6 7v261q0 145 -138 145q-42 0 -75.5 -14.5t-57 -39t-35.5 -57.5t-12 -71v-224q0 -7 -6 -7h-30q-7 0 -7 7
v592h-65q-7 0 -7 7v23z" />
    <glyph glyph-name="Itilde" unicode="&#x128;" horiz-adv-x="229" 
d="M130 700q7 0 7 -7v-686q0 -7 -7 -7h-31q-7 0 -7 7v686q0 7 7 7h31zM249 881q7 0 7 -7q-2 -69 -19.5 -101.5t-51.5 -32.5q-25 0 -41.5 17t-30 37.5t-27 37.5t-31.5 17q-20 0 -32.5 -22t-13.5 -75q0 -7 -7 -7h-21q-7 0 -7 7q2 68 22 100.5t55 32.5q25 0 42 -17t30.5 -38
t26.5 -38t31 -17q20 0 29 22.5t10 76.5q0 7 7 7h22z" />
    <glyph glyph-name="itilde" unicode="&#x129;" horiz-adv-x="157" 
d="M94 440q6 0 6 -7v-426q0 -7 -6 -7h-30q-7 0 -7 7v426q0 7 7 7h30zM213 661q7 0 7 -7q-2 -69 -19.5 -101.5t-51.5 -32.5q-25 0 -41.5 17t-30 37.5t-27 37.5t-31.5 17q-20 0 -32.5 -22t-13.5 -75q0 -7 -7 -7h-21q-7 0 -7 7q2 68 22 100.5t55 32.5q25 0 42 -17t30.5 -38
t26.5 -38t31 -17q20 0 29 22.5t10 76.5q0 7 7 7h22z" />
    <glyph glyph-name="Imacron" unicode="&#x12a;" horiz-adv-x="229" 
d="M130 700q7 0 7 -7v-686q0 -7 -7 -7h-31q-7 0 -7 7v686q0 7 7 7h31zM247 801q0 -7 -7 -7h-251q-7 0 -7 7v21q0 7 7 7h251q7 0 7 -7v-21z" />
    <glyph glyph-name="imacron" unicode="&#x12b;" horiz-adv-x="157" 
d="M94 440q6 0 6 -7v-426q0 -7 -6 -7h-30q-7 0 -7 7v426q0 7 7 7h30zM211 581q0 -7 -7 -7h-251q-7 0 -7 7v21q0 7 7 7h251q7 0 7 -7v-21z" />
    <glyph glyph-name="Ibreve" unicode="&#x12c;" horiz-adv-x="229" 
d="M130 700q7 0 7 -7v-686q0 -7 -7 -7h-31q-7 0 -7 7v686q0 7 7 7h31zM-22 873q0 7 7 7h24q6 0 6 -7q1 -18 5.5 -35.5t16 -31t30.5 -22t48 -8.5t48 8.5t30 22t15.5 31t5.5 35.5q0 7 7 7h23q7 0 7 -7q-1 -26 -8.5 -49.5t-23.5 -41t-41.5 -27.5t-62.5 -10t-62.5 10t-41.5 27.5
t-24 41t-9 49.5z" />
    <glyph glyph-name="ibreve" unicode="&#x12d;" horiz-adv-x="157" 
d="M94 440q6 0 6 -7v-426q0 -7 -6 -7h-30q-7 0 -7 7v426q0 7 7 7h30zM-58 653q0 7 7 7h24q6 0 6 -7q1 -18 5.5 -35.5t16 -31t30.5 -22t48 -8.5t48 8.5t30 22t15.5 31t5.5 35.5q0 7 7 7h23q7 0 7 -7q-1 -26 -8.5 -49.5t-23.5 -41t-41.5 -27.5t-62.5 -10t-62.5 10t-41.5 27.5
t-24 41t-9 49.5z" />
    <glyph glyph-name="Iogonek" unicode="&#x12e;" horiz-adv-x="229" 
d="M130 700q7 0 7 -7v-686q0 -7 -7 -7h-31q-7 0 -7 7v686q0 7 7 7h31zM147 -181q6 2 9 -5l4 -18q2 -6 -4 -8q-21 -8 -48 -8q-44 0 -68.5 22t-24.5 60q0 43 26.5 81.5t71.5 64.5q3 2 6 0l10 -3q11 -6 0 -11q-41 -29 -58.5 -59.5t-17.5 -62.5q0 -28 15.5 -43t43.5 -15
q12 0 19.5 1t15.5 4z" />
    <glyph glyph-name="iogonek" unicode="&#x12f;" horiz-adv-x="155" 
d="M77 626q15 0 25 -10t10 -25q0 -14 -10 -23.5t-25 -9.5t-25 9.5t-10 23.5q0 15 10 25t25 10zM92 440q7 0 7 -7v-429q0 -4 -4 -6q-44 -30 -62 -61.5t-18 -64.5q0 -58 58 -58q23 0 34 5q8 2 9 -5l5 -18q2 -6 -3 -8q-24 -8 -49 -8q-44 0 -68.5 22t-24.5 60q0 42 22.5 76.5
t58.5 60.5l-2 434q0 7 7 7h30z" />
    <glyph glyph-name="Idotaccent" unicode="&#x130;" horiz-adv-x="229" 
d="M130 700q7 0 7 -7v-686q0 -7 -7 -7h-31q-7 0 -7 7v686q0 7 7 7h31zM114 835q14 0 22 -8t8 -22t-8 -22t-22 -8q-13 0 -21.5 8t-8.5 22t8.5 22t21.5 8z" />
    <glyph glyph-name="dotlessi" unicode="&#x131;" horiz-adv-x="157" 
d="M94 440q6 0 6 -7v-426q0 -7 -6 -7h-30q-7 0 -7 7v426q0 7 7 7h30z" />
    <glyph glyph-name="IJ" unicode="&#x132;" horiz-adv-x="475" 
d="M130 700q7 0 7 -7v-588q0 -7 -7 -7h-31q-7 0 -7 7v588q0 7 7 7h31zM376 700q7 0 7 -7v-686q0 -95 -32.5 -141t-111.5 -46q-143 0 -146 170q0 7 7 7h31q7 0 7 -7q0 -30 5 -54t16.5 -40.5t31 -25t48.5 -8.5q31 0 50 9t30 27t15 44t4 60v691q0 7 7 7h31z" />
    <glyph glyph-name="ij" unicode="&#x133;" horiz-adv-x="313" 
d="M94 440q6 0 6 -7v-426q0 -7 -6 -7h-30q-7 0 -7 7v426q0 7 7 7h30zM78 615q14 0 22 -8t8 -22t-8 -22t-22 -8q-13 0 -21.5 8t-8.5 22t8.5 22t21.5 8zM248 440q7 0 7 -7v-475q0 -67 -31 -106.5t-93 -41.5q-7 0 -7 7v27q0 7 7 7q41 2 61 28.5t20 73.5v480q0 7 7 7h29z
M233 615q14 0 22 -8t8 -22t-8 -22t-22 -8q-13 0 -21.5 8t-8.5 22t8.5 22t21.5 8z" />
    <glyph glyph-name="Jcircumflex" unicode="&#x134;" horiz-adv-x="228" 
d="M129 700q7 0 7 -7v-686q0 -91 -37.5 -138t-124.5 -49q-7 0 -7 7v28q0 7 7 7q34 0 56.5 10t36 29t19.5 46t6 60v686q0 7 7 7h30zM231 761q9 -11 -5 -11h-32q-4 0 -6 3l-76 105l-76 -105q-1 -3 -6 -3h-31q-15 0 -6 11l89 117q4 2 6 2h47q4 0 6 -2z" />
    <glyph glyph-name="jcircumflex" unicode="&#x135;" horiz-adv-x="155" 
d="M91 440q7 0 7 -7v-475q0 -67 -31 -106.5t-93 -41.5q-7 0 -7 7v27q0 7 7 7q41 2 61 28.5t20 73.5v480q0 7 7 7h29zM196 541q9 -11 -5 -11h-32q-4 0 -6 3l-76 105l-76 -105q-1 -3 -6 -3h-31q-15 0 -6 11l89 117q4 2 6 2h47q4 0 6 -2z" />
    <glyph glyph-name="uni0136" unicode="&#x136;" horiz-adv-x="596" 
d="M92 693q0 7 7 7h31q7 0 7 -7v-321l360 326q2 2 5 2h41q19 0 5 -12l-362 -323l373 -353q12 -12 -5 -12h-43q-4 0 -7 3l-367 351v-347q0 -7 -7 -7h-31q-7 0 -7 7v686zM314 -37q15 0 27.5 -10t13.5 -32q1 -29 -10.5 -58t-35.5 -52q-5 -4 -9 -1l-10 9q-5 5 0 11q16 17 22 35
t6 33q-17 -4 -29.5 5.5t-12.5 24.5q0 17 11.5 26t26.5 9z" />
    <glyph glyph-name="uni0137" unicode="&#x137;" horiz-adv-x="442" 
d="M62 733q0 7 7 7h30q6 0 6 -7v-494l243 198q4 3 9 3h43q5 0 6.5 -3t-3.5 -8l-249 -197l261 -223q4 -3 3 -6t-6 -3h-46q-5 0 -10 4l-251 216v-213q0 -7 -6 -7h-30q-7 0 -7 7v726zM230 -37q15 0 27.5 -10t13.5 -32q1 -29 -10.5 -58t-35.5 -52q-5 -4 -9 -1l-10 9q-5 5 0 11
q16 17 22 35t6 33q-17 -4 -29.5 5.5t-12.5 24.5q0 17 11.5 26t26.5 9z" />
    <glyph glyph-name="kgreenlandic" unicode="&#x138;" horiz-adv-x="440" 
d="M57 433q0 7 7 7h29q7 0 7 -7v-194l243 198q4 3 9 3h43q5 0 6.5 -3t-3.5 -8l-249 -197l261 -223q4 -3 3 -6t-6 -3h-46q-6 0 -10 4l-251 216v-213q0 -7 -7 -7h-29q-7 0 -7 7v426z" />
    <glyph glyph-name="Lacute" unicode="&#x139;" horiz-adv-x="566" 
d="M130 700q7 0 7 -7v-651h360q7 0 7 -7v-28q0 -7 -7 -7h-398q-7 0 -7 7v686q0 7 7 7h31zM170 877q3 3 6 3h35q13 0 6 -11l-78 -116q-1 -3 -5 -3h-28q-6 0 -7.5 3t1.5 7z" />
    <glyph glyph-name="lacute" unicode="&#x13a;" horiz-adv-x="167" 
d="M105 7q0 -7 -6 -7h-30q-7 0 -7 7v726q0 7 7 7h30q6 0 6 -7v-726zM141 897q3 3 6 3h35q13 0 6 -11l-78 -116q-1 -3 -5 -3h-28q-6 0 -7.5 3t1.5 7z" />
    <glyph glyph-name="uni013B" unicode="&#x13b;" horiz-adv-x="566" 
d="M130 700q7 0 7 -7v-651h360q7 0 7 -7v-28q0 -7 -7 -7h-398q-7 0 -7 7v686q0 7 7 7h31zM292 -37q15 0 27.5 -10t13.5 -32q1 -29 -10.5 -58t-35.5 -52q-5 -4 -9 -1l-10 9q-5 5 0 11q16 17 22 35t6 33q-17 -4 -29.5 5.5t-12.5 24.5q0 17 11.5 26t26.5 9z" />
    <glyph glyph-name="uni013C" unicode="&#x13c;" horiz-adv-x="167" 
d="M105 7q0 -7 -6 -7h-30q-7 0 -7 7v726q0 7 7 7h30q6 0 6 -7v-726zM84 -37q15 0 27.5 -10t13.5 -32q1 -29 -10.5 -58t-35.5 -52q-5 -4 -9 -1l-10 9q-5 5 0 11q16 17 22 35t6 33q-17 -4 -29.5 5.5t-12.5 24.5q0 17 11.5 26t26.5 9z" />
    <glyph glyph-name="Lcaron" unicode="&#x13d;" horiz-adv-x="566" 
d="M130 700q7 0 7 -7v-651h360q7 0 7 -7v-28q0 -7 -7 -7h-398q-7 0 -7 7v686q0 7 7 7h31zM370 712q17 0 29 -12t13 -35q2 -71 -46 -125q-4 -4 -8 -1l-13 9q-7 3 -1 11q17 20 23.5 41t4.5 38q-19 -2 -30 9.5t-11 26.5q0 18 11.5 28t27.5 10z" />
    <glyph glyph-name="lcaron" unicode="&#x13e;" horiz-adv-x="167" 
d="M105 7q0 -7 -6 -7h-30q-7 0 -7 7v726q0 7 7 7h30q6 0 6 -7v-726zM218 752q17 0 29 -12t13 -35q2 -71 -46 -125q-4 -4 -8 -1l-13 9q-7 3 -1 11q17 20 23.5 41t4.5 38q-19 -2 -30 9.5t-11 26.5q0 18 11.5 28t27.5 10z" />
    <glyph glyph-name="Ldot" unicode="&#x13f;" horiz-adv-x="566" 
d="M130 700q7 0 7 -7v-651h360q7 0 7 -7v-28q0 -7 -7 -7h-398q-7 0 -7 7v686q0 7 7 7h31zM396 432q17 0 28.5 -10.5t11.5 -28.5t-11.5 -28.5t-28.5 -10.5q-16 0 -27.5 10.5t-11.5 28.5t11.5 28.5t27.5 10.5z" />
    <glyph glyph-name="ldot" unicode="&#x140;" horiz-adv-x="399" 
d="M105 7q0 -7 -6 -7h-30q-7 0 -7 7v726q0 7 7 7h30q6 0 6 -7v-726zM230 409q17 0 28.5 -10.5t11.5 -28.5t-11.5 -28.5t-28.5 -10.5q-16 0 -27.5 10.5t-11.5 28.5t11.5 28.5t27.5 10.5z" />
    <glyph glyph-name="Lslash" unicode="&#x141;" horiz-adv-x="611" 
d="M62 263q-7 -3 -9 3l-9 19q-5 7 3 9l90 42v357q0 7 7 7h30q7 0 7 -7v-337l199 89q6 3 10 -3l8 -21q3 -6 -4 -9l-213 -94v-276h360q7 0 7 -7v-28q0 -7 -7 -7h-397q-7 0 -7 7v290z" />
    <glyph glyph-name="lslash" unicode="&#x142;" horiz-adv-x="187" 
d="M-16 278q-5 -4 -10 2l-10 17q-2 6 3 9l105 65v362q0 7 7 7h29q7 0 7 -7v-335l88 54q7 5 10 -3l9 -16q4 -5 -2 -9l-105 -66v-351q0 -7 -7 -7h-29q-7 0 -7 7v325z" />
    <glyph glyph-name="Nacute" unicode="&#x143;" horiz-adv-x="706" 
d="M607 700q7 0 7 -7v-691q0 -7 -7 -7h-7q-5 0 -9 5l-455 608v-601q0 -7 -7 -7h-30q-7 0 -7 7v691q0 7 7 7h8q5 0 7 -4l457 -608v600q0 7 7 7h29zM408 877q3 3 6 3h35q13 0 6 -11l-78 -116q-1 -3 -5 -3h-28q-6 0 -7.5 3t1.5 7z" />
    <glyph glyph-name="nacute" unicode="&#x144;" horiz-adv-x="513" 
d="M81 440q7 0 7 -6l9 -104q23 58 73.5 90t114.5 32q84 0 129.5 -48t45.5 -134v-263q0 -7 -7 -7h-30q-7 0 -7 7v261q0 69 -34 107t-104 38q-42 0 -75 -14.5t-56 -39t-35 -57.5t-12 -71v-224q0 -7 -6 -7h-30q-7 0 -7 7v426q0 7 7 7h17zM322 657q3 3 6 3h35q13 0 6 -11
l-78 -116q-1 -3 -5 -3h-28q-6 0 -7.5 3t1.5 7z" />
    <glyph glyph-name="uni0145" unicode="&#x145;" horiz-adv-x="706" 
d="M607 700q7 0 7 -7v-691q0 -7 -7 -7h-7q-5 0 -9 5l-455 608v-601q0 -7 -7 -7h-30q-7 0 -7 7v691q0 7 7 7h8q5 0 7 -4l457 -608v600q0 7 7 7h29zM353 -37q15 0 27.5 -10t13.5 -32q1 -29 -10.5 -58t-35.5 -52q-5 -4 -9 -1l-10 9q-5 5 0 11q16 17 22 35t6 33
q-17 -4 -29.5 5.5t-12.5 24.5q0 17 11.5 26t26.5 9z" />
    <glyph glyph-name="uni0146" unicode="&#x146;" horiz-adv-x="513" 
d="M81 440q7 0 7 -6l9 -104q23 58 73.5 90t114.5 32q84 0 129.5 -48t45.5 -134v-263q0 -7 -7 -7h-30q-7 0 -7 7v261q0 69 -34 107t-104 38q-42 0 -75 -14.5t-56 -39t-35 -57.5t-12 -71v-224q0 -7 -6 -7h-30q-7 0 -7 7v426q0 7 7 7h17zM261 -37q15 0 27.5 -10t13.5 -32
q1 -29 -10.5 -58t-35.5 -52q-5 -4 -9 -1l-10 9q-5 5 0 11q16 17 22 35t6 33q-17 -4 -29.5 5.5t-12.5 24.5q0 17 11.5 26t26.5 9z" />
    <glyph glyph-name="Ncaron" unicode="&#x147;" horiz-adv-x="706" 
d="M607 700q7 0 7 -7v-691q0 -7 -7 -7h-7q-5 0 -9 5l-455 608v-601q0 -7 -7 -7h-30q-7 0 -7 7v691q0 7 7 7h8q5 0 7 -4l457 -608v600q0 7 7 7h29zM467 880q14 0 5 -11l-90 -116q-1 -3 -6 -3h-47q-3 0 -6 3l-89 116q-9 11 6 11h31q4 0 6 -2l76 -106l76 106q2 2 6 2h32z" />
    <glyph glyph-name="ncaron" unicode="&#x148;" horiz-adv-x="513" 
d="M81 440q7 0 7 -6l9 -104q23 58 73.5 90t114.5 32q84 0 129.5 -48t45.5 -134v-263q0 -7 -7 -7h-30q-7 0 -7 7v261q0 69 -34 107t-104 38q-42 0 -75 -14.5t-56 -39t-35 -57.5t-12 -71v-224q0 -7 -6 -7h-30q-7 0 -7 7v426q0 7 7 7h17zM381 660q14 0 5 -11l-90 -116
q-1 -3 -6 -3h-47q-3 0 -6 3l-89 116q-9 11 6 11h31q4 0 6 -2l76 -106l76 106q2 2 6 2h32z" />
    <glyph glyph-name="napostrophe" unicode="&#x149;" horiz-adv-x="513" 
d="M81 440q7 0 7 -6l9 -104q23 58 73.5 90t114.5 32q84 0 129.5 -48t45.5 -134v-263q0 -7 -7 -7h-30q-7 0 -7 7v261q0 69 -34 107t-104 38q-42 0 -75 -14.5t-56 -39t-35 -57.5t-12 -71v-224q0 -7 -6 -7h-30q-7 0 -7 7v426q0 7 7 7h17zM73 712q17 0 29 -12t13 -35
q2 -71 -46 -125q-4 -4 -8 -1l-13 9q-7 3 -1 11q17 20 23.5 41t4.5 38q-19 -2 -30 9.5t-11 26.5q0 18 11.5 28t27.5 10z" />
    <glyph glyph-name="Eng" unicode="&#x14a;" horiz-adv-x="717" 
d="M618 700q7 0 7 -7v-734q0 -149 -137 -152q-7 0 -7 7v27q0 7 7 7q48 2 70.5 27t22.5 79v71l-445 582v-600q0 -7 -7 -7h-30q-7 0 -7 7v691q0 7 7 7h8q4 0 8 -5l466 -608v601q0 7 7 7h30z" />
    <glyph glyph-name="eng" unicode="&#x14b;" horiz-adv-x="514" 
d="M57 433q0 7 7 7h17q7 0 7 -6l9 -105q23 58 73.5 90.5t116.5 32.5q84 0 129 -47.5t45 -134.5v-313q0 -68 -30 -106.5t-93 -40.5q-7 0 -7 7v28q0 7 7 7q80 4 80 100v316q0 69 -34.5 106t-105.5 37q-42 0 -75 -14t-56 -38.5t-35 -57t-12 -70.5v-224q0 -7 -7 -7h-29
q-7 0 -7 7v426z" />
    <glyph glyph-name="Omacron" unicode="&#x14c;" horiz-adv-x="843" 
d="M421 712q76 0 140.5 -27.5t111.5 -76.5t73.5 -115t26.5 -143t-26.5 -143t-73.5 -115t-111.5 -76.5t-140.5 -27.5t-140.5 27.5t-111.5 76.5t-73.5 115t-26.5 143t26.5 143t73.5 115t111.5 76.5t140.5 27.5zM421 670q-67 0 -123 -24.5t-96 -67t-62.5 -101t-22.5 -127.5
t22.5 -127.5t62.5 -101t96 -67t123 -24.5q68 0 124 24.5t96 67t62.5 101t22.5 127.5t-22.5 127.5t-62.5 101t-96 67t-124 24.5zM554 811q0 -7 -7 -7h-251q-7 0 -7 7v21q0 7 7 7h251q7 0 7 -7v-21z" />
    <glyph glyph-name="omacron" unicode="&#x14d;" horiz-adv-x="546" 
d="M273 452q50 0 91 -18t71 -49t46.5 -73.5t16.5 -91.5t-16.5 -91.5t-46.5 -73.5t-71 -49t-91 -18q-49 0 -90.5 18t-71.5 49t-46.5 73.5t-16.5 91.5t16.5 91.5t46.5 73.5t71.5 49t90.5 18zM273 414q-42 0 -75 -14.5t-56.5 -40.5t-36 -61.5t-12.5 -77.5q0 -41 12.5 -76.5
t36 -61.5t56.5 -41t75 -15q41 0 74.5 15t57 41t36 61.5t12.5 76.5q0 42 -12.5 77.5t-36 61.5t-57 40.5t-74.5 14.5zM405 581q0 -7 -7 -7h-251q-7 0 -7 7v21q0 7 7 7h251q7 0 7 -7v-21z" />
    <glyph glyph-name="Obreve" unicode="&#x14e;" horiz-adv-x="843" 
d="M421 712q76 0 140.5 -27.5t111.5 -76.5t73.5 -115t26.5 -143t-26.5 -143t-73.5 -115t-111.5 -76.5t-140.5 -27.5t-140.5 27.5t-111.5 76.5t-73.5 115t-26.5 143t26.5 143t73.5 115t111.5 76.5t140.5 27.5zM421 670q-67 0 -123 -24.5t-96 -67t-62.5 -101t-22.5 -127.5
t22.5 -127.5t62.5 -101t96 -67t123 -24.5q68 0 124 24.5t96 67t62.5 101t22.5 127.5t-22.5 127.5t-62.5 101t-96 67t-124 24.5zM284 883q0 7 7 7h24q6 0 6 -7q1 -18 5.5 -35.5t16 -31t30.5 -22t48 -8.5t48 8.5t30 22t15.5 31t5.5 35.5q0 7 7 7h23q7 0 7 -7
q-1 -26 -8.5 -49.5t-23.5 -41t-41.5 -27.5t-62.5 -10t-62.5 10t-41.5 27.5t-24 41t-9 49.5z" />
    <glyph glyph-name="obreve" unicode="&#x14f;" horiz-adv-x="546" 
d="M273 452q50 0 91 -18t71 -49t46.5 -73.5t16.5 -91.5t-16.5 -91.5t-46.5 -73.5t-71 -49t-91 -18q-49 0 -90.5 18t-71.5 49t-46.5 73.5t-16.5 91.5t16.5 91.5t46.5 73.5t71.5 49t90.5 18zM273 414q-42 0 -75 -14.5t-56.5 -40.5t-36 -61.5t-12.5 -77.5q0 -41 12.5 -76.5
t36 -61.5t56.5 -41t75 -15q41 0 74.5 15t57 41t36 61.5t12.5 76.5q0 42 -12.5 77.5t-36 61.5t-57 40.5t-74.5 14.5zM136 653q0 7 7 7h24q6 0 6 -7q1 -18 5.5 -35.5t16 -31t30.5 -22t48 -8.5t48 8.5t30 22t15.5 31t5.5 35.5q0 7 7 7h23q7 0 7 -7q-1 -26 -8.5 -49.5t-23.5 -41
t-41.5 -27.5t-62.5 -10t-62.5 10t-41.5 27.5t-24 41t-9 49.5z" />
    <glyph glyph-name="Ohungarumlaut" unicode="&#x150;" horiz-adv-x="843" 
d="M421 712q76 0 140.5 -27.5t111.5 -76.5t73.5 -115t26.5 -143t-26.5 -143t-73.5 -115t-111.5 -76.5t-140.5 -27.5t-140.5 27.5t-111.5 76.5t-73.5 115t-26.5 143t26.5 143t73.5 115t111.5 76.5t140.5 27.5zM421 670q-67 0 -123 -24.5t-96 -67t-62.5 -101t-22.5 -127.5
t22.5 -127.5t62.5 -101t96 -67t123 -24.5q68 0 124 24.5t96 67t62.5 101t22.5 127.5t-22.5 127.5t-62.5 101t-96 67t-124 24.5zM399 887q2 3 7 3h29q12 0 6 -11l-69 -116q-1 -3 -6 -3h-19q-11 0 -6 10zM554 887q2 3 6 3h29q15 0 6 -11l-78 -116q-3 -3 -6 -3h-19q-5 0 -6.5 3
t1.5 7z" />
    <glyph glyph-name="ohungarumlaut" unicode="&#x151;" horiz-adv-x="546" 
d="M273 452q50 0 91 -18t71 -49t46.5 -73.5t16.5 -91.5t-16.5 -91.5t-46.5 -73.5t-71 -49t-91 -18q-49 0 -90.5 18t-71.5 49t-46.5 73.5t-16.5 91.5t16.5 91.5t46.5 73.5t71.5 49t90.5 18zM273 414q-42 0 -75 -14.5t-56.5 -40.5t-36 -61.5t-12.5 -77.5q0 -41 12.5 -76.5
t36 -61.5t56.5 -41t75 -15q41 0 74.5 15t57 41t36 61.5t12.5 76.5q0 42 -12.5 77.5t-36 61.5t-57 40.5t-74.5 14.5zM250 657q2 3 7 3h29q12 0 6 -11l-69 -116q-1 -3 -6 -3h-19q-11 0 -6 10zM405 657q2 3 6 3h29q15 0 6 -11l-78 -116q-3 -3 -6 -3h-19q-5 0 -6.5 3t1.5 7z" />
    <glyph glyph-name="OE" unicode="&#x152;" horiz-adv-x="1016" 
d="M933 700q7 0 7 -7v-28q0 -7 -7 -7h-355v-280h317q7 0 7 -7v-26q0 -7 -7 -7h-317v-296h359q7 0 7 -7v-28q0 -7 -7 -7h-518q-78 0 -142.5 26t-110.5 72.5t-71.5 110.5t-25.5 141t25.5 141t71.5 110.5t110.5 72.5t142.5 26h514zM423 658q-71 0 -128 -22.5t-96.5 -63t-61 -97
t-21.5 -125.5t21.5 -125.5t61 -97t96.5 -63t128 -22.5h111v616h-111z" />
    <glyph glyph-name="oe" unicode="&#x153;" horiz-adv-x="931" 
d="M272 452q75 0 129 -42.5t73 -113.5q9 35 28.5 63.5t46.5 49t60.5 32t71.5 11.5q48 0 86 -16t65 -44.5t41.5 -68t14.5 -87.5q0 -22 -4 -27.5t-12 -5.5h-372q1 -38 15.5 -70.5t38.5 -56t56.5 -37t69.5 -13.5q48 0 83 21.5t60 56.5q3 6 9 2l20 -16q7 -4 2 -9
q-29 -42 -71.5 -67.5t-102.5 -25.5q-78 0 -132.5 42.5t-73.5 114.5q-19 -71 -73 -114t-129 -43q-49 0 -90 18t-71 49.5t-46.5 73.5t-16.5 91q0 50 17 92.5t47 73.5t71 48.5t89 17.5zM848 237q0 81 -45 129.5t-124 48.5q-37 0 -69.5 -13.5t-56.5 -37t-38 -56t-15 -71.5h348z
M272 414q-39 0 -72 -14.5t-56.5 -40t-37 -61t-13.5 -78.5q0 -41 13 -76.5t36.5 -61.5t56.5 -41t73 -15q39 0 72 14.5t57.5 40t38 61.5t13.5 78t-13.5 78t-38 61.5t-57.5 40t-72 14.5z" />
    <glyph glyph-name="Racute" unicode="&#x154;" horiz-adv-x="627" 
d="M137 7q0 -7 -7 -7h-31q-7 0 -7 7v686q0 7 7 7h213q112 0 172.5 -51.5t60.5 -148.5q0 -106 -57 -160t-167 -62l212 -267q11 -11 -5 -11h-42q-2 0 -5 3l-212 270h-132v-266zM137 314h131q122 0 176 44t54 141q0 160 -195 160h-166v-345zM372 877q3 3 6 3h35q13 0 6 -11
l-78 -116q-1 -3 -5 -3h-28q-6 0 -7.5 3t1.5 7z" />
    <glyph glyph-name="racute" unicode="&#x155;" horiz-adv-x="322" 
d="M57 433q0 7 7 7h17q7 0 7 -6l9 -109q22 58 71 91t121 35q6 0 6 -7v-30q0 -8 -7 -8q-47 1 -82 -13t-58.5 -39t-35.5 -59.5t-12 -75.5v-212q0 -7 -6 -7h-30q-7 0 -7 7v426zM233 657q3 3 6 3h35q13 0 6 -11l-78 -116q-1 -3 -5 -3h-28q-6 0 -7.5 3t1.5 7z" />
    <glyph glyph-name="uni0156" unicode="&#x156;" horiz-adv-x="627" 
d="M137 7q0 -7 -7 -7h-31q-7 0 -7 7v686q0 7 7 7h213q112 0 172.5 -51.5t60.5 -148.5q0 -106 -57 -160t-167 -62l212 -267q11 -11 -5 -11h-42q-2 0 -5 3l-212 270h-132v-266zM137 314h131q122 0 176 44t54 141q0 160 -195 160h-166v-345zM310 -37q15 0 27.5 -10t13.5 -32
q1 -29 -10.5 -58t-35.5 -52q-5 -4 -9 -1l-10 9q-5 5 0 11q16 17 22 35t6 33q-17 -4 -29.5 5.5t-12.5 24.5q0 17 11.5 26t26.5 9z" />
    <glyph glyph-name="uni0157" unicode="&#x157;" horiz-adv-x="322" 
d="M57 433q0 7 7 7h17q7 0 7 -6l9 -109q22 58 71 91t121 35q6 0 6 -7v-30q0 -8 -7 -8q-47 1 -82 -13t-58.5 -39t-35.5 -59.5t-12 -75.5v-212q0 -7 -6 -7h-30q-7 0 -7 7v426zM78 -37q15 0 27.5 -10t13.5 -32q1 -29 -10.5 -58t-35.5 -52q-5 -4 -9 -1l-10 9q-5 5 0 11
q16 17 22 35t6 33q-17 -4 -29.5 5.5t-12.5 24.5q0 17 11.5 26t26.5 9z" />
    <glyph glyph-name="Rcaron" unicode="&#x158;" horiz-adv-x="627" 
d="M137 7q0 -7 -7 -7h-31q-7 0 -7 7v686q0 7 7 7h213q112 0 172.5 -51.5t60.5 -148.5q0 -106 -57 -160t-167 -62l212 -267q11 -11 -5 -11h-42q-2 0 -5 3l-212 270h-132v-266zM137 314h131q122 0 176 44t54 141q0 160 -195 160h-166v-345zM431 880q14 0 5 -11l-90 -116
q-1 -3 -6 -3h-47q-3 0 -6 3l-89 116q-9 11 6 11h31q4 0 6 -2l76 -106l76 106q2 2 6 2h32z" />
    <glyph glyph-name="rcaron" unicode="&#x159;" horiz-adv-x="322" 
d="M57 433q0 7 7 7h17q7 0 7 -6l9 -109q22 58 71 91t121 35q6 0 6 -7v-30q0 -8 -7 -8q-47 1 -82 -13t-58.5 -39t-35.5 -59.5t-12 -75.5v-212q0 -7 -6 -7h-30q-7 0 -7 7v426zM291 660q14 0 5 -11l-90 -116q-1 -3 -6 -3h-47q-3 0 -6 3l-89 116q-9 11 6 11h31q4 0 6 -2l76 -106
l76 106q2 2 6 2h32z" />
    <glyph glyph-name="Sacute" unicode="&#x15a;" horiz-adv-x="587" 
d="M469 592q-5 -4 -10 1q-34 42 -79.5 60t-106.5 18q-80 0 -123 -35.5t-43 -94.5q0 -31 10.5 -55.5t33 -44t59.5 -35t89 -29.5q115 -29 170.5 -74.5t55.5 -126.5q0 -88 -61.5 -138t-166.5 -50q-79 0 -141 29.5t-105 85.5q-4 5 0 9l22 22q6 6 10 -2q35 -48 89.5 -75.5
t124.5 -27.5q93 0 137 40.5t44 103.5q0 32 -10 56.5t-33.5 44t-61 35t-92.5 28.5q-112 26 -166.5 75t-54.5 127q0 38 15 69.5t43 54.5t67 36t88 13q70 0 123 -21t95 -69q5 -4 -1 -10zM330 887q3 3 6 3h35q13 0 6 -11l-78 -116q-1 -3 -5 -3h-28q-6 0 -7.5 3t1.5 7z" />
    <glyph glyph-name="sacute" unicode="&#x15b;" horiz-adv-x="447" 
d="M370 366q-4 -4 -11 -1q-26 23 -64 36.5t-76 13.5q-57 0 -91 -21.5t-34 -59.5q0 -18 7 -33t24 -26.5t46 -20t72 -13.5q90 -12 127.5 -42.5t37.5 -80.5q0 -29 -13 -53t-35.5 -41t-54 -26.5t-69.5 -9.5q-62 0 -111 17.5t-81 42.5q-5 3 -2 9l14 21q4 6 11 1q26 -20 69.5 -37
t100.5 -17q55 0 90.5 25.5t35.5 64.5q0 17 -6.5 31.5t-23 26t-45 20.5t-73.5 15q-93 12 -129.5 44.5t-36.5 80.5q0 53 45 86t124 33q47 0 91.5 -15t76.5 -42q6 -4 1 -9zM279 657q3 3 6 3h35q13 0 6 -11l-78 -116q-1 -3 -5 -3h-28q-6 0 -7.5 3t1.5 7z" />
    <glyph glyph-name="Scircumflex" unicode="&#x15c;" horiz-adv-x="587" 
d="M469 592q-5 -4 -10 1q-34 42 -79.5 60t-106.5 18q-80 0 -123 -35.5t-43 -94.5q0 -31 10.5 -55.5t33 -44t59.5 -35t89 -29.5q115 -29 170.5 -74.5t55.5 -126.5q0 -88 -61.5 -138t-166.5 -50q-79 0 -141 29.5t-105 85.5q-4 5 0 9l22 22q6 6 10 -2q35 -48 89.5 -75.5
t124.5 -27.5q93 0 137 40.5t44 103.5q0 32 -10 56.5t-33.5 44t-61 35t-92.5 28.5q-112 26 -166.5 75t-54.5 127q0 38 15 69.5t43 54.5t67 36t88 13q70 0 123 -21t95 -69q5 -4 -1 -10zM394 771q9 -11 -5 -11h-32q-4 0 -6 3l-76 105l-76 -105q-1 -3 -6 -3h-31q-15 0 -6 11
l89 117q4 2 6 2h47q4 0 6 -2z" />
    <glyph glyph-name="scircumflex" unicode="&#x15d;" horiz-adv-x="447" 
d="M370 366q-4 -4 -11 -1q-26 23 -64 36.5t-76 13.5q-57 0 -91 -21.5t-34 -59.5q0 -18 7 -33t24 -26.5t46 -20t72 -13.5q90 -12 127.5 -42.5t37.5 -80.5q0 -29 -13 -53t-35.5 -41t-54 -26.5t-69.5 -9.5q-62 0 -111 17.5t-81 42.5q-5 3 -2 9l14 21q4 6 11 1q26 -20 69.5 -37
t100.5 -17q55 0 90.5 25.5t35.5 64.5q0 17 -6.5 31.5t-23 26t-45 20.5t-73.5 15q-93 12 -129.5 44.5t-36.5 80.5q0 53 45 86t124 33q47 0 91.5 -15t76.5 -42q6 -4 1 -9zM343 541q9 -11 -5 -11h-32q-4 0 -6 3l-76 105l-76 -105q-1 -3 -6 -3h-31q-15 0 -6 11l89 117q4 2 6 2
h47q4 0 6 -2z" />
    <glyph glyph-name="Scedilla" unicode="&#x15e;" horiz-adv-x="587" 
d="M469 592q-5 -4 -10 1q-34 42 -79.5 60t-106.5 18q-80 0 -123 -35.5t-43 -94.5q0 -31 10.5 -55.5t33 -44t59.5 -35t89 -29.5q115 -29 170.5 -74.5t55.5 -126.5q0 -88 -61.5 -138t-166.5 -50q-79 0 -141 29.5t-105 85.5q-4 5 0 9l22 22q6 6 10 -2q35 -48 89.5 -75.5
t124.5 -27.5q93 0 137 40.5t44 103.5q0 32 -10 56.5t-33.5 44t-61 35t-92.5 28.5q-112 26 -166.5 75t-54.5 127q0 38 15 69.5t43 54.5t67 36t88 13q70 0 123 -21t95 -69q5 -4 -1 -10zM302 5q9 0 7 -9l-14 -55q62 -2 91 -19.5t29 -52.5t-28.5 -55.5t-84.5 -20.5
q-18 0 -37.5 2t-33.5 6q-7 0 -5 7l4 19q2 7 8 5q30 -8 66 -8q42 0 58 13t16 33t-23 34t-86 12q-9 0 -7 9l18 75q2 5 7 5h15z" />
    <glyph glyph-name="scedilla" unicode="&#x15f;" horiz-adv-x="447" 
d="M370 366q-4 -4 -11 -1q-26 23 -64 36.5t-76 13.5q-57 0 -91 -21.5t-34 -59.5q0 -18 7 -33t24 -26.5t46 -20t72 -13.5q90 -12 127.5 -42.5t37.5 -80.5q0 -29 -13 -53t-35.5 -41t-54 -26.5t-69.5 -9.5q-62 0 -111 17.5t-81 42.5q-5 3 -2 9l14 21q4 6 11 1q26 -20 69.5 -37
t100.5 -17q55 0 90.5 25.5t35.5 64.5q0 17 -6.5 31.5t-23 26t-45 20.5t-73.5 15q-93 12 -129.5 44.5t-36.5 80.5q0 53 45 86t124 33q47 0 91.5 -15t76.5 -42q6 -4 1 -9zM235 5q9 0 7 -9l-14 -55q62 -2 91 -19.5t29 -52.5t-28.5 -55.5t-84.5 -20.5q-18 0 -37.5 2t-33.5 6
q-7 0 -5 7l4 19q2 7 8 5q30 -8 66 -8q42 0 58 13t16 33t-23 34t-86 12q-9 0 -7 9l18 75q2 5 7 5h15z" />
    <glyph glyph-name="Scaron" unicode="&#x160;" horiz-adv-x="587" 
d="M469 592q-5 -4 -10 1q-34 42 -79.5 60t-106.5 18q-80 0 -123 -35.5t-43 -94.5q0 -31 10.5 -55.5t33 -44t59.5 -35t89 -29.5q115 -29 170.5 -74.5t55.5 -126.5q0 -88 -61.5 -138t-166.5 -50q-79 0 -141 29.5t-105 85.5q-4 5 0 9l22 22q6 6 10 -2q35 -48 89.5 -75.5
t124.5 -27.5q93 0 137 40.5t44 103.5q0 32 -10 56.5t-33.5 44t-61 35t-92.5 28.5q-112 26 -166.5 75t-54.5 127q0 38 15 69.5t43 54.5t67 36t88 13q70 0 123 -21t95 -69q5 -4 -1 -10zM389 890q14 0 5 -11l-90 -116q-1 -3 -6 -3h-47q-3 0 -6 3l-89 116q-9 11 6 11h31
q4 0 6 -2l76 -106l76 106q2 2 6 2h32z" />
    <glyph glyph-name="scaron" unicode="&#x161;" horiz-adv-x="447" 
d="M370 366q-4 -4 -11 -1q-26 23 -64 36.5t-76 13.5q-57 0 -91 -21.5t-34 -59.5q0 -18 7 -33t24 -26.5t46 -20t72 -13.5q90 -12 127.5 -42.5t37.5 -80.5q0 -29 -13 -53t-35.5 -41t-54 -26.5t-69.5 -9.5q-62 0 -111 17.5t-81 42.5q-5 3 -2 9l14 21q4 6 11 1q26 -20 69.5 -37
t100.5 -17q55 0 90.5 25.5t35.5 64.5q0 17 -6.5 31.5t-23 26t-45 20.5t-73.5 15q-93 12 -129.5 44.5t-36.5 80.5q0 53 45 86t124 33q47 0 91.5 -15t76.5 -42q6 -4 1 -9zM338 660q14 0 5 -11l-90 -116q-1 -3 -6 -3h-47q-3 0 -6 3l-89 116q-9 11 6 11h31q4 0 6 -2l76 -106
l76 106q2 2 6 2h32z" />
    <glyph glyph-name="uni0162" unicode="&#x162;" horiz-adv-x="583" 
d="M46 693q0 7 7 7h477q7 0 7 -7v-28q0 -7 -7 -7h-216v-651q0 -7 -7 -7h-31q-7 0 -7 7v651h-216q-7 0 -7 7v28zM299 5q9 0 7 -9l-14 -55q62 -2 91 -19.5t29 -52.5t-28.5 -55.5t-84.5 -20.5q-18 0 -37.5 2t-33.5 6q-7 0 -5 7l4 19q2 7 8 5q30 -8 66 -8q42 0 58 13t16 33
t-23 34t-86 12q-9 0 -7 9l18 75q2 5 7 5h15z" />
    <glyph glyph-name="uni0163" unicode="&#x163;" horiz-adv-x="334" 
d="M137 547q7 0 7 -7v-100h137q7 0 7 -7v-25q0 -7 -7 -7h-137v-277q0 -43 15 -69.5t57 -26.5q14 0 32.5 5.5t37.5 13.5q7 3 10 -4l9 -23q3 -7 -3 -9q-20 -10 -44 -16.5t-45 -6.5q-31 0 -52 9.5t-34.5 26.5t-19.5 41t-6 53v283h-73q-7 0 -7 7v25q0 7 7 7h74l20 101q2 6 7 6h8
zM166 11q9 0 7 -9l-14 -55q62 -2 91 -19.5t29 -52.5t-28.5 -55.5t-84.5 -20.5q-18 0 -37.5 2t-33.5 6q-7 0 -5 7l4 19q2 7 8 5q30 -8 66 -8q42 0 58 13t16 33t-23 34t-86 12q-9 0 -7 9l18 75q2 5 7 5h15z" />
    <glyph glyph-name="Tcaron" unicode="&#x164;" horiz-adv-x="583" 
d="M46 693q0 7 7 7h477q7 0 7 -7v-28q0 -7 -7 -7h-216v-651q0 -7 -7 -7h-31q-7 0 -7 7v651h-216q-7 0 -7 7v28zM406 880q14 0 5 -11l-90 -116q-1 -3 -6 -3h-47q-3 0 -6 3l-89 116q-9 11 6 11h31q4 0 6 -2l76 -106l76 106q2 2 6 2h32z" />
    <glyph glyph-name="tcaron" unicode="&#x165;" horiz-adv-x="334" 
d="M137 547q7 0 7 -7v-100h137q7 0 7 -7v-25q0 -7 -7 -7h-137v-277q0 -43 15 -69.5t57 -26.5q14 0 32.5 5.5t37.5 13.5q7 3 10 -4l9 -23q3 -7 -3 -9q-20 -10 -44 -16.5t-45 -6.5q-31 0 -52 9.5t-34.5 26.5t-19.5 41t-6 53v283h-73q-7 0 -7 7v25q0 7 7 7h74l20 101q2 6 7 6h8
zM255 752q17 0 29 -12t13 -35q2 -71 -46 -125q-4 -4 -8 -1l-13 9q-7 3 -1 11q17 20 23.5 41t4.5 38q-19 -2 -30 9.5t-11 26.5q0 18 11.5 28t27.5 10z" />
    <glyph glyph-name="Tbar" unicode="&#x166;" horiz-adv-x="583" 
d="M46 693q0 7 7 7h477q7 0 7 -7v-28q0 -7 -7 -7h-216v-302h151q7 0 7 -7v-23q0 -7 -7 -7h-151v-312q0 -7 -7 -7h-31q-7 0 -7 7v312h-151q-6 0 -6 7v23q0 7 6 7h151v302h-216q-7 0 -7 7v28z" />
    <glyph glyph-name="tbar" unicode="&#x167;" horiz-adv-x="334" 
d="M36 256q0 7 7 7h58v138h-73q-7 0 -7 7v25q0 7 7 7h74l20 101q2 6 7 6h8q7 0 7 -7v-100h137q7 0 7 -7v-25q0 -7 -7 -7h-137v-138h135q7 0 7 -7v-23q0 -7 -7 -7h-135v-102q0 -43 15 -69.5t57 -26.5q14 0 32.5 5.5t36.5 13.5q9 3 10 -4l10 -23q3 -7 -3 -9q-20 -10 -44 -16.5
t-45 -6.5q-31 0 -52 9.5t-34.5 26.5t-19.5 41t-6 53v108h-58q-7 0 -7 7v23z" />
    <glyph glyph-name="Utilde" unicode="&#x168;" horiz-adv-x="677" 
d="M582 700q7 0 7 -7v-440q0 -62 -17.5 -111t-50 -83.5t-78.5 -52.5t-104 -18t-104.5 18t-79 52.5t-50 83.5t-17.5 111v440q0 7 7 7h31q7 0 7 -7v-434q0 -109 53 -169t153 -60q99 0 152.5 60t53.5 169v434q0 7 7 7h30zM473 881q7 0 7 -7q-2 -69 -19.5 -101.5t-51.5 -32.5
q-25 0 -41.5 17t-30 37.5t-27 37.5t-31.5 17q-20 0 -32.5 -22t-13.5 -75q0 -7 -7 -7h-21q-7 0 -7 7q2 68 22 100.5t55 32.5q25 0 42 -17t30.5 -38t26.5 -38t31 -17q20 0 29 22.5t10 76.5q0 7 7 7h22z" />
    <glyph glyph-name="utilde" unicode="&#x169;" horiz-adv-x="512" 
d="M448 440q7 0 7 -7v-426q0 -7 -7 -7h-17q-7 0 -7 7l-9 104q-23 -58 -72.5 -90.5t-115.5 -32.5q-84 0 -129 48t-45 135v262q0 7 7 7h30q6 0 6 -7v-258q0 -69 34 -107.5t105 -38.5q42 0 75 14t55.5 38.5t34 57.5t11.5 70v224q0 7 7 7h30zM385 661q7 0 7 -7
q-2 -69 -19.5 -101.5t-51.5 -32.5q-25 0 -41.5 17t-30 37.5t-27 37.5t-31.5 17q-20 0 -32.5 -22t-13.5 -75q0 -7 -7 -7h-21q-7 0 -7 7q2 68 22 100.5t55 32.5q25 0 42 -17t30.5 -38t26.5 -38t31 -17q20 0 29 22.5t10 76.5q0 7 7 7h22z" />
    <glyph glyph-name="Umacron" unicode="&#x16a;" horiz-adv-x="677" 
d="M582 700q7 0 7 -7v-440q0 -62 -17.5 -111t-50 -83.5t-78.5 -52.5t-104 -18t-104.5 18t-79 52.5t-50 83.5t-17.5 111v440q0 7 7 7h31q7 0 7 -7v-434q0 -109 53 -169t153 -60q99 0 152.5 60t53.5 169v434q0 7 7 7h30zM471 801q0 -7 -7 -7h-251q-7 0 -7 7v21q0 7 7 7h251
q7 0 7 -7v-21z" />
    <glyph glyph-name="umacron" unicode="&#x16b;" horiz-adv-x="512" 
d="M448 440q7 0 7 -7v-426q0 -7 -7 -7h-17q-7 0 -7 7l-9 104q-23 -58 -72.5 -90.5t-115.5 -32.5q-84 0 -129 48t-45 135v262q0 7 7 7h30q6 0 6 -7v-258q0 -69 34 -107.5t105 -38.5q42 0 75 14t55.5 38.5t34 57.5t11.5 70v224q0 7 7 7h30zM384 581q0 -7 -7 -7h-251q-7 0 -7 7
v21q0 7 7 7h251q7 0 7 -7v-21z" />
    <glyph glyph-name="Ubreve" unicode="&#x16c;" horiz-adv-x="677" 
d="M582 700q7 0 7 -7v-440q0 -62 -17.5 -111t-50 -83.5t-78.5 -52.5t-104 -18t-104.5 18t-79 52.5t-50 83.5t-17.5 111v440q0 7 7 7h31q7 0 7 -7v-434q0 -109 53 -169t153 -60q99 0 152.5 60t53.5 169v434q0 7 7 7h30zM202 873q0 7 7 7h24q6 0 6 -7q1 -18 5.5 -35.5t16 -31
t30.5 -22t48 -8.5t48 8.5t30 22t15.5 31t5.5 35.5q0 7 7 7h23q7 0 7 -7q-1 -26 -8.5 -49.5t-23.5 -41t-41.5 -27.5t-62.5 -10t-62.5 10t-41.5 27.5t-24 41t-9 49.5z" />
    <glyph glyph-name="ubreve" unicode="&#x16d;" horiz-adv-x="512" 
d="M448 440q7 0 7 -7v-426q0 -7 -7 -7h-17q-7 0 -7 7l-9 104q-23 -58 -72.5 -90.5t-115.5 -32.5q-84 0 -129 48t-45 135v262q0 7 7 7h30q6 0 6 -7v-258q0 -69 34 -107.5t105 -38.5q42 0 75 14t55.5 38.5t34 57.5t11.5 70v224q0 7 7 7h30zM114 653q0 7 7 7h24q6 0 6 -7
q1 -18 5.5 -35.5t16 -31t30.5 -22t48 -8.5t48 8.5t30 22t15.5 31t5.5 35.5q0 7 7 7h23q7 0 7 -7q-1 -26 -8.5 -49.5t-23.5 -41t-41.5 -27.5t-62.5 -10t-62.5 10t-41.5 27.5t-24 41t-9 49.5z" />
    <glyph glyph-name="Uring" unicode="&#x16e;" horiz-adv-x="677" 
d="M582 700q7 0 7 -7v-440q0 -62 -17.5 -111t-50 -83.5t-78.5 -52.5t-104 -18t-104.5 18t-79 52.5t-50 83.5t-17.5 111v440q0 7 7 7h31q7 0 7 -7v-434q0 -109 53 -169t153 -60q99 0 152.5 60t53.5 169v434q0 7 7 7h30zM339 940q47 0 75 -28.5t28 -70.5q0 -43 -28 -71.5
t-75 -28.5t-75.5 28.5t-28.5 71.5q0 42 28.5 70.5t75.5 28.5zM339 912q-35 0 -54 -19.5t-19 -51.5q0 -33 19 -52t54 -19t53.5 19t18.5 52q0 32 -18.5 51.5t-53.5 19.5z" />
    <glyph glyph-name="uring" unicode="&#x16f;" horiz-adv-x="512" 
d="M448 440q7 0 7 -7v-426q0 -7 -7 -7h-17q-7 0 -7 7l-9 104q-23 -58 -72.5 -90.5t-115.5 -32.5q-84 0 -129 48t-45 135v262q0 7 7 7h30q6 0 6 -7v-258q0 -69 34 -107.5t105 -38.5q42 0 75 14t55.5 38.5t34 57.5t11.5 70v224q0 7 7 7h30zM251 720q47 0 75 -28.5t28 -70.5
q0 -43 -28 -71.5t-75 -28.5t-75.5 28.5t-28.5 71.5q0 42 28.5 70.5t75.5 28.5zM251 692q-35 0 -54 -19.5t-19 -51.5q0 -33 19 -52t54 -19t53.5 19t18.5 52q0 32 -18.5 51.5t-53.5 19.5z" />
    <glyph glyph-name="Uhungarumlaut" unicode="&#x170;" horiz-adv-x="677" 
d="M582 700q7 0 7 -7v-440q0 -62 -17.5 -111t-50 -83.5t-78.5 -52.5t-104 -18t-104.5 18t-79 52.5t-50 83.5t-17.5 111v440q0 7 7 7h31q7 0 7 -7v-434q0 -109 53 -169t153 -60q99 0 152.5 60t53.5 169v434q0 7 7 7h30zM316 877q2 3 7 3h29q12 0 6 -11l-69 -116q-1 -3 -6 -3
h-19q-11 0 -6 10zM471 877q2 3 6 3h29q15 0 6 -11l-78 -116q-3 -3 -6 -3h-19q-5 0 -6.5 3t1.5 7z" />
    <glyph glyph-name="uhungarumlaut" unicode="&#x171;" horiz-adv-x="512" 
d="M448 440q7 0 7 -7v-426q0 -7 -7 -7h-17q-7 0 -7 7l-9 104q-23 -58 -72.5 -90.5t-115.5 -32.5q-84 0 -129 48t-45 135v262q0 7 7 7h30q6 0 6 -7v-258q0 -69 34 -107.5t105 -38.5q42 0 75 14t55.5 38.5t34 57.5t11.5 70v224q0 7 7 7h30zM229 657q2 3 7 3h29q12 0 6 -11
l-69 -116q-1 -3 -6 -3h-19q-11 0 -6 10zM384 657q2 3 6 3h29q15 0 6 -11l-78 -116q-3 -3 -6 -3h-19q-5 0 -6.5 3t1.5 7z" />
    <glyph glyph-name="Uogonek" unicode="&#x172;" horiz-adv-x="676" 
d="M581 700q7 0 7 -7v-440q0 -109 -54.5 -178t-154.5 -84q-37 -27 -55 -57.5t-18 -62.5q0 -57 59 -57q11 0 18.5 1t15.5 4q8 2 9 -5l4 -18q2 -6 -3 -8q-22 -8 -48 -8q-45 0 -69 22.5t-24 60.5q0 34 16.5 66.5t49.5 58.5q-58 1 -103.5 19.5t-77.5 53t-49 83t-17 109.5v440
q0 7 7 7h31q7 0 7 -7v-434q0 -111 53 -170t153 -59q99 0 152.5 59t53.5 170v434q0 7 7 7h30z" />
    <glyph glyph-name="uogonek" unicode="&#x173;" horiz-adv-x="510" 
d="M447 440q7 0 7 -7v-425q0 -8 -8 -14q-42 -29 -59 -59.5t-17 -62.5q0 -58 58 -58q12 0 19.5 1t15.5 4q8 2 9 -5l4 -18q2 -6 -4 -8q-21 -8 -47 -8q-45 0 -69 22t-24 60q0 42 25 80t67 65l-10 104q-23 -58 -72.5 -90.5t-115.5 -32.5q-84 0 -129 48t-45 135v262q0 7 7 7h30
q6 0 6 -7v-258q0 -69 34 -107.5t105 -38.5q42 0 75 14t55.5 38.5t34 57.5t11.5 70v224q0 7 7 7h30z" />
    <glyph glyph-name="Wcircumflex" unicode="&#x174;" horiz-adv-x="1057" 
d="M996 700q8 0 5 -9l-228 -691q-1 -5 -5 -5h-10q-5 0 -6 4l-224 594l-224 -594q-1 -4 -6 -4h-10q-5 0 -6 5l-226 691q-3 9 5 9h34q5 0 6 -5l196 -605l222 588q1 4 6 4h6q5 0 6 -4l222 -588l197 605q1 5 6 5h34zM647 761q9 -11 -5 -11h-32q-4 0 -6 3l-76 105l-76 -105
q-1 -3 -6 -3h-31q-15 0 -6 11l89 117q4 2 6 2h47q4 0 6 -2z" />
    <glyph glyph-name="wcircumflex" unicode="&#x175;" horiz-adv-x="764" 
d="M738 440q11 0 7 -9l-179 -431q-1 -2 -3 -3t-4 -1h-10q-6 0 -7 4l-161 371l-159 -371q-1 -4 -7 -4h-10q-4 0 -7 4l-179 431q-4 9 7 9h33q5 0 7 -4l146 -365l158 365q1 4 6 4h11q4 0 7 -4l158 -365l145 365q4 4 7 4h34zM500 541q9 -11 -5 -11h-32q-4 0 -6 3l-76 105
l-76 -105q-1 -3 -6 -3h-31q-15 0 -6 11l89 117q4 2 6 2h47q4 0 6 -2z" />
    <glyph glyph-name="Ycircumflex" unicode="&#x176;" horiz-adv-x="648" 
d="M598 700q11 0 6 -10l-257 -403v-280q0 -7 -7 -7h-31q-6 0 -6 7v280l-258 403q-7 10 6 10h37q3 0 6 -3l231 -369l230 369q3 3 6 3h37zM444 761q9 -11 -5 -11h-32q-4 0 -6 3l-76 105l-76 -105q-1 -3 -6 -3h-31q-15 0 -6 11l89 117q4 2 6 2h47q4 0 6 -2z" />
    <glyph glyph-name="ycircumflex" unicode="&#x177;" horiz-adv-x="463" 
d="M19 430q-3 10 7 10h35q6 0 7 -4l178 -381l152 381q1 4 6 4h33q11 0 6 -9l-254 -617q-1 -2 -3 -3t-4 -1h-34q-11 0 -6 9l80 186zM353 541q9 -11 -5 -11h-32q-4 0 -6 3l-76 105l-76 -105q-1 -3 -6 -3h-31q-15 0 -6 11l89 117q4 2 6 2h47q4 0 6 -2z" />
    <glyph glyph-name="Ydieresis" unicode="&#x178;" horiz-adv-x="648" 
d="M598 700q11 0 6 -10l-257 -403v-280q0 -7 -7 -7h-31q-6 0 -6 7v280l-258 403q-7 10 6 10h37q3 0 6 -3l231 -369l230 369q3 3 6 3h37zM238 845q14 0 23.5 -9.5t9.5 -24.5q0 -14 -9.5 -23t-23.5 -9t-23.5 9t-9.5 23q0 15 9.5 24.5t23.5 9.5zM411 845q14 0 23.5 -9.5
t9.5 -24.5q0 -14 -9.5 -23t-23.5 -9t-23.5 9t-9.5 23q0 15 9.5 24.5t23.5 9.5z" />
    <glyph glyph-name="Zacute" unicode="&#x179;" horiz-adv-x="650" 
d="M88 658q-7 0 -7 7v28q0 7 7 7h475q7 0 7 -7v-8q0 -4 -2 -7l-431 -637l434 1q7 0 7 -7v-28q0 -7 -7 -7h-492q-7 0 -7 7v9q0 3 3 7l429 635h-416zM388 877q3 3 6 3h35q13 0 6 -11l-78 -116q-1 -3 -5 -3h-28q-6 0 -7.5 3t1.5 7z" />
    <glyph glyph-name="zacute" unicode="&#x17a;" horiz-adv-x="448" 
d="M53 402q-7 0 -7 7v24q0 7 7 7h343q6 0 6 -7v-8q0 -5 -5 -11l-294 -376h301q7 0 7 -7v-24q0 -7 -7 -7h-360q-7 0 -7 7v8q0 2 1 5t5 8l294 374h-284zM287 657q3 3 6 3h35q13 0 6 -11l-78 -116q-1 -3 -5 -3h-28q-6 0 -7.5 3t1.5 7z" />
    <glyph glyph-name="Zdotaccent" unicode="&#x17b;" horiz-adv-x="650" 
d="M88 658q-7 0 -7 7v28q0 7 7 7h475q7 0 7 -7v-8q0 -4 -2 -7l-431 -637l434 1q7 0 7 -7v-28q0 -7 -7 -7h-492q-7 0 -7 7v9q0 3 3 7l429 635h-416zM332 835q14 0 22 -8t8 -22t-8 -22t-22 -8q-13 0 -21.5 8t-8.5 22t8.5 22t21.5 8z" />
    <glyph glyph-name="zdotaccent" unicode="&#x17c;" horiz-adv-x="448" 
d="M53 402q-7 0 -7 7v24q0 7 7 7h343q6 0 6 -7v-8q0 -5 -5 -11l-294 -376h301q7 0 7 -7v-24q0 -7 -7 -7h-360q-7 0 -7 7v8q0 2 1 5t5 8l294 374h-284zM232 615q14 0 22 -8t8 -22t-8 -22t-22 -8q-13 0 -21.5 8t-8.5 22t8.5 22t21.5 8z" />
    <glyph glyph-name="Zcaron" unicode="&#x17d;" horiz-adv-x="650" 
d="M88 658q-7 0 -7 7v28q0 7 7 7h475q7 0 7 -7v-8q0 -4 -2 -7l-431 -637l434 1q7 0 7 -7v-28q0 -7 -7 -7h-492q-7 0 -7 7v9q0 3 3 7l429 635h-416zM447 880q14 0 5 -11l-90 -116q-1 -3 -6 -3h-47q-3 0 -6 3l-89 116q-9 11 6 11h31q4 0 6 -2l76 -106l76 106q2 2 6 2h32z" />
    <glyph glyph-name="zcaron" unicode="&#x17e;" horiz-adv-x="448" 
d="M53 402q-7 0 -7 7v24q0 7 7 7h343q6 0 6 -7v-8q0 -5 -5 -11l-294 -376h301q7 0 7 -7v-24q0 -7 -7 -7h-360q-7 0 -7 7v8q0 2 1 5t5 8l294 374h-284zM346 660q14 0 5 -11l-90 -116q-1 -3 -6 -3h-47q-3 0 -6 3l-89 116q-9 11 6 11h31q4 0 6 -2l76 -106l76 106q2 2 6 2h32z
" />
    <glyph glyph-name="florin" unicode="&#x192;" horiz-adv-x="511" 
d="M22 125q-2 6 6 8l23 7q8 2 9 -6q11 -57 35 -82.5t64 -25.5q41 0 64 26.5t23 90.5v261h-128q-7 0 -7 7v22q0 7 7 7h128v119q0 80 38 115.5t97 35.5q21 0 40 -4t35 -9q5 -2 5 -6v-23q0 -9 -10 -7q-17 5 -33.5 8t-36.5 3q-44 0 -67.5 -25t-23.5 -92v-115h165q6 0 6 -7v-22
q0 -7 -6 -7h-165v-261q0 -80 -36 -117.5t-92 -37.5q-115 0 -140 137z" />
    <glyph glyph-name="AEacute" unicode="&#x1fc;" horiz-adv-x="958" 
d="M882 665q0 -7 -7 -7h-455l85 -280h327q7 0 7 -7v-26q0 -7 -7 -7h-316l89 -296h274q6 0 6 -7v-28q0 -7 -6 -7h-306q-5 0 -7 5l-60 201h-318l-86 -201q-3 -5 -7 -5h-35q-11 0 -7 9l299 687q2 4 6 4h517q7 0 7 -7v-28zM494 248l-117 400l-171 -400h288zM671 877q3 3 6 3h35
q13 0 6 -11l-78 -116q-1 -3 -5 -3h-28q-6 0 -7.5 3t1.5 7z" />
    <glyph glyph-name="aeacute" unicode="&#x1fd;" horiz-adv-x="836" 
d="M792 227q-1 -13 -3 -17.5t-9 -4.5h-368q1 -37 14 -70t36 -57t55 -38t71 -14q47 0 83 21.5t61 56.5q4 7 9 2l21 -16q7 -4 2 -9q-29 -42 -72 -67.5t-100 -25.5q-66 0 -114 34t-71 91v-106q0 -7 -7 -7h-16q-7 0 -7 7l-7 85q-25 -52 -74.5 -78t-103.5 -26q-77 0 -113 32.5
t-36 87.5q0 31 11.5 53t32 37t49.5 23.5t64 12.5l166 17v45q0 63 -36 90.5t-92 27.5q-78 0 -143 -48q-7 -3 -11 2l-14 21q-5 5 2 9q38 28 80 41t86 13q31 0 59.5 -7.5t50.5 -24t36.5 -41t17.5 -59.5q23 59 73 95.5t119 36.5q47 0 85 -16.5t64 -46t39 -71t10 -91.5zM751 240
q2 36 -8 68t-31 55.5t-52 37t-70 13.5t-71 -13.5t-55.5 -37t-37 -55t-14.5 -68.5h339zM211 201q-28 -3 -51 -8.5t-39 -15.5t-24.5 -26.5t-8.5 -41.5q0 -86 113 -86q29 0 58.5 9.5t53 28.5t38.5 46.5t15 64.5v47zM443 657q3 3 6 3h35q13 0 6 -11l-78 -116q-1 -3 -5 -3h-28
q-6 0 -7.5 3t1.5 7z" />
    <glyph glyph-name="Oslashacute" unicode="&#x1fe;" horiz-adv-x="842" 
d="M421 712q69 0 127 -22t103 -63l91 100q5 6 10 1l16 -14q4 -4 -1 -9l-91 -100q45 -49 71 -114t26 -141q0 -77 -26.5 -143t-73.5 -115t-111.5 -76.5t-140.5 -27.5q-67 0 -125 22t-103 62l-94 -102q-5 -5 -9 -1l-16 14q-4 5 1 10l93 101q-47 49 -73 114.5t-26 141.5
q0 77 26.5 143t73.5 115t111.5 76.5t140.5 27.5zM421 671q-67 0 -123 -24.5t-96.5 -67.5t-63 -101.5t-22.5 -127.5q0 -66 21 -123t59 -100l426 469q-39 35 -90 55t-111 20zM220 104q39 -36 90 -55.5t111 -19.5q68 0 124 24.5t96.5 67.5t63 101.5t22.5 127.5q0 66 -21 122.5
t-59 99.5zM477 887q3 3 6 3h35q13 0 6 -11l-78 -116q-1 -3 -5 -3h-28q-6 0 -7.5 3t1.5 7z" />
    <glyph glyph-name="oslashacute" unicode="&#x1ff;" horiz-adv-x="546" 
d="M465 499q5 3 10 1l16 -12q5 -4 2 -10l-66 -85q34 -32 52.5 -75.5t18.5 -97.5q0 -49 -16.5 -91.5t-46.5 -73.5t-71 -48.5t-91 -17.5q-38 0 -71 10.5t-59 29.5l-61 -79q-5 -5 -11 -1l-16 12q-6 4 -1 11l62 78q-32 32 -50 75.5t-18 94.5q0 49 16.5 91.5t46.5 73.5t71.5 48.5
t90.5 17.5q72 0 126 -37zM273 413q-42 0 -75 -14.5t-56.5 -40.5t-36 -61t-12.5 -77q0 -41 12 -75.5t36 -60.5l234 298q-42 31 -102 31zM167 61q43 -34 106 -34q42 0 75 14.5t56.5 40.5t36 61.5t12.5 76.5q0 42 -13.5 78t-38.5 61zM328 657q3 3 6 3h35q13 0 6 -11l-78 -116
q-1 -3 -5 -3h-28q-6 0 -7.5 3t1.5 7z" />
    <glyph glyph-name="uni0218" unicode="&#x218;" horiz-adv-x="587" 
d="M469 592q-5 -4 -10 1q-34 42 -79.5 60t-106.5 18q-80 0 -123 -35.5t-43 -94.5q0 -31 10.5 -55.5t33 -44t59.5 -35t89 -29.5q115 -29 170.5 -74.5t55.5 -126.5q0 -88 -61.5 -138t-166.5 -50q-79 0 -141 29.5t-105 85.5q-4 5 0 9l22 22q6 6 10 -2q35 -48 89.5 -75.5
t124.5 -27.5q93 0 137 40.5t44 103.5q0 32 -10 56.5t-33.5 44t-61 35t-92.5 28.5q-112 26 -166.5 75t-54.5 127q0 38 15 69.5t43 54.5t67 36t88 13q70 0 123 -21t95 -69q5 -4 -1 -10zM294 -37q15 0 27.5 -10t13.5 -32q1 -29 -10.5 -58t-35.5 -52q-5 -4 -9 -1l-10 9
q-5 5 0 11q16 17 22 35t6 33q-17 -4 -29.5 5.5t-12.5 24.5q0 17 11.5 26t26.5 9z" />
    <glyph glyph-name="uni0219" unicode="&#x219;" horiz-adv-x="447" 
d="M370 366q-4 -4 -11 -1q-26 23 -64 36.5t-76 13.5q-57 0 -91 -21.5t-34 -59.5q0 -18 7 -33t24 -26.5t46 -20t72 -13.5q90 -12 127.5 -42.5t37.5 -80.5q0 -29 -13 -53t-35.5 -41t-54 -26.5t-69.5 -9.5q-62 0 -111 17.5t-81 42.5q-5 3 -2 9l14 21q4 6 11 1q26 -20 69.5 -37
t100.5 -17q55 0 90.5 25.5t35.5 64.5q0 17 -6.5 31.5t-23 26t-45 20.5t-73.5 15q-93 12 -129.5 44.5t-36.5 80.5q0 53 45 86t124 33q47 0 91.5 -15t76.5 -42q6 -4 1 -9zM228 -37q15 0 27.5 -10t13.5 -32q1 -29 -10.5 -58t-35.5 -52q-5 -4 -9 -1l-10 9q-5 5 0 11q16 17 22 35
t6 33q-17 -4 -29.5 5.5t-12.5 24.5q0 17 11.5 26t26.5 9z" />
    <glyph glyph-name="uni021A" unicode="&#x21a;" horiz-adv-x="583" 
d="M46 693q0 7 7 7h477q7 0 7 -7v-28q0 -7 -7 -7h-216v-651q0 -7 -7 -7h-31q-7 0 -7 7v651h-216q-7 0 -7 7v28zM292 -37q15 0 27.5 -10t13.5 -32q1 -29 -10.5 -58t-35.5 -52q-5 -4 -9 -1l-10 9q-5 5 0 11q16 17 22 35t6 33q-17 -4 -29.5 5.5t-12.5 24.5q0 17 11.5 26t26.5 9
z" />
    <glyph glyph-name="uni021B" unicode="&#x21b;" horiz-adv-x="334" 
d="M137 547q7 0 7 -7v-100h137q7 0 7 -7v-25q0 -7 -7 -7h-137v-277q0 -43 15 -69.5t57 -26.5q14 0 32.5 5.5t37.5 13.5q7 3 10 -4l9 -23q3 -7 -3 -9q-20 -10 -44 -16.5t-45 -6.5q-31 0 -52 9.5t-34.5 26.5t-19.5 41t-6 53v283h-73q-7 0 -7 7v25q0 7 7 7h74l20 101q2 6 7 6h8
zM159 -31q15 0 27.5 -10t13.5 -32q1 -29 -10.5 -58t-35.5 -52q-5 -4 -9 -1l-10 9q-5 5 0 11q16 17 22 35t6 33q-17 -4 -29.5 5.5t-12.5 24.5q0 17 11.5 26t26.5 9z" />
    <glyph glyph-name="uni0237" unicode="&#x237;" horiz-adv-x="155" 
d="M91 440q7 0 7 -7v-475q0 -67 -31 -106.5t-93 -41.5q-7 0 -7 7v27q0 7 7 7q41 2 61 28.5t20 73.5v480q0 7 7 7h29z" />
    <glyph glyph-name="circumflex" unicode="&#x2c6;" horiz-adv-x="430" 
d="M334 581q9 -11 -5 -11h-32q-4 0 -6 3l-76 105l-76 -105q-1 -3 -6 -3h-31q-15 0 -6 11l89 117q4 2 6 2h47q4 0 6 -2z" />
    <glyph glyph-name="caron" unicode="&#x2c7;" horiz-adv-x="430" 
d="M329 700q14 0 5 -11l-90 -116q-1 -3 -6 -3h-47q-3 0 -6 3l-89 116q-9 11 6 11h31q4 0 6 -2l76 -106l76 106q2 2 6 2h32z" />
    <glyph glyph-name="breve" unicode="&#x2d8;" horiz-adv-x="457" 
d="M92 693q0 7 7 7h24q6 0 6 -7q1 -18 5.5 -35.5t16 -31t30.5 -22t48 -8.5t48 8.5t30 22t15.5 31t5.5 35.5q0 7 7 7h23q7 0 7 -7q-1 -26 -8.5 -49.5t-23.5 -41t-41.5 -27.5t-62.5 -10t-62.5 10t-41.5 27.5t-24 41t-9 49.5z" />
    <glyph glyph-name="dotaccent" unicode="&#x2d9;" horiz-adv-x="245" 
d="M122 655q14 0 22 -8t8 -22t-8 -22t-22 -8q-13 0 -21.5 8t-8.5 22t8.5 22t21.5 8z" />
    <glyph glyph-name="ring" unicode="&#x2da;" horiz-adv-x="391" 
d="M196 808q47 0 75 -28.5t28 -70.5q0 -43 -28 -71.5t-75 -28.5t-75.5 28.5t-28.5 71.5q0 42 28.5 70.5t75.5 28.5zM196 780q-35 0 -54 -19.5t-19 -51.5q0 -33 19 -52t54 -19t53.5 19t18.5 52q0 32 -18.5 51.5t-53.5 19.5z" />
    <glyph glyph-name="ogonek" unicode="&#x2db;" horiz-adv-x="330" 
d="M224 -181q6 2 9 -5l4 -18q2 -6 -4 -8q-21 -8 -48 -8q-44 0 -68.5 22t-24.5 60q0 43 26.5 81.5t71.5 64.5q3 2 6 0l10 -3q11 -6 0 -11q-41 -29 -58.5 -59.5t-17.5 -62.5q0 -28 15.5 -43t43.5 -15q12 0 19.5 1t15.5 4z" />
    <glyph glyph-name="tilde" unicode="&#x2dc;" horiz-adv-x="466" 
d="M367 701q7 0 7 -7q-2 -69 -19.5 -101.5t-51.5 -32.5q-25 0 -41.5 17t-30 37.5t-27 37.5t-31.5 17q-20 0 -32.5 -22t-13.5 -75q0 -7 -7 -7h-21q-7 0 -7 7q2 68 22 100.5t55 32.5q25 0 42 -17t30.5 -38t26.5 -38t31 -17q20 0 29 22.5t10 76.5q0 7 7 7h22z" />
    <glyph glyph-name="hungarumlaut" unicode="&#x2dd;" horiz-adv-x="444" 
d="M152 697q2 3 7 3h29q12 0 6 -11l-69 -116q-1 -3 -6 -3h-19q-11 0 -6 10zM307 697q2 3 6 3h29q15 0 6 -11l-78 -116q-3 -3 -6 -3h-19q-5 0 -6.5 3t1.5 7z" />
    <glyph glyph-name="uni0326" unicode="&#x326;" horiz-adv-x="263" 
d="M130 -37q15 0 27.5 -10t13.5 -32q1 -29 -10.5 -58t-35.5 -52q-5 -4 -9 -1l-10 9q-5 5 0 11q16 17 22 35t6 33q-17 -4 -29.5 5.5t-12.5 24.5q0 17 11.5 26t26.5 9z" />
    <glyph glyph-name="uni0394" unicode="&#x394;" horiz-adv-x="683" 
d="M332 696q1 4 7 4h9q4 0 6 -4l276 -687q4 -9 -7 -9h-563q-11 0 -6 9zM108 41h466l-231 586z" />
    <glyph glyph-name="uni03A9" unicode="&#x3a9;" horiz-adv-x="855" 
d="M428 713q74 0 138 -22.5t111 -65t74.5 -103t27.5 -136.5q0 -53 -13.5 -104.5t-41 -97.5t-70 -85t-100.5 -69l212 9q7 0 7 -7v-25q0 -7 -7 -7h-272q-6 0 -6 5l-2 6q-2 6 3 8q63 29 109 68.5t76.5 86.5t45 100t14.5 108q0 69 -23.5 123.5t-64.5 92t-97 57t-121 19.5
q-66 0 -122 -19.5t-97 -57t-64.5 -92t-23.5 -123.5q0 -55 14.5 -108t45 -100t76.5 -86.5t109 -68.5q4 -1 4 -8l-2 -6q-2 -5 -7 -5h-272q-7 0 -7 7v25q0 7 8 7l212 -9q-58 30 -100.5 69t-70 85t-41 97.5t-13.5 104.5q0 76 27 136.5t74.5 103t111.5 65t138 22.5z" />
    <glyph glyph-name="uni03BC" unicode="&#x3bc;" horiz-adv-x="516" 
d="M94 440q6 0 6 -7v-239q0 -81 38.5 -123t107.5 -42q84 0 126.5 46t42.5 134v224q0 7 7 7h30q7 0 7 -7v-426q0 -7 -7 -7h-17q-7 0 -7 7l-8 99q-21 -62 -68 -90t-110 -28q-52 0 -92.5 25t-56.5 76l8 -229q0 -7 -7 -7h-30q-7 0 -7 7v573q0 7 7 7h30z" />
    <glyph glyph-name="pi" unicode="&#x3c0;" horiz-adv-x="657" 
d="M591 418q0 -7 -7 -7l-138 -10l13 -248q3 -66 30 -91t66 -25q13 0 27 2t27 7q8 2 10 -6l5 -25q2 -6 -4 -8q-18 -5 -36 -7.5t-34 -2.5q-55 0 -93 35t-41 111l-11 258h-199l-54 -395q-1 -6 -7 -6h-29q-9 0 -7 8l54 393h-124q-7 0 -7 7v25q0 7 7 7h545q7 0 7 -7v-15z" />
    <glyph glyph-name="Wgrave" unicode="&#x1e80;" horiz-adv-x="1057" 
d="M996 700q8 0 5 -9l-228 -691q-1 -5 -5 -5h-10q-5 0 -6 4l-224 594l-224 -594q-1 -4 -6 -4h-10q-5 0 -6 5l-226 691q-3 9 5 9h34q5 0 6 -5l196 -605l222 588q1 4 6 4h6q5 0 6 -4l222 -588l197 605q1 5 6 5h34zM543 760q2 -4 0.5 -7t-7.5 -3h-28q-3 0 -5 3l-77 116
q-7 11 6 11h34q3 0 6 -3z" />
    <glyph glyph-name="wgrave" unicode="&#x1e81;" horiz-adv-x="764" 
d="M738 440q11 0 7 -9l-179 -431q-1 -2 -3 -3t-4 -1h-10q-6 0 -7 4l-161 371l-159 -371q-1 -4 -7 -4h-10q-4 0 -7 4l-179 431q-4 9 7 9h33q5 0 7 -4l146 -365l158 365q1 4 6 4h11q4 0 7 -4l158 -365l145 365q4 4 7 4h34zM396 540q2 -4 0.5 -7t-7.5 -3h-28q-3 0 -5 3l-77 116
q-7 11 6 11h34q3 0 6 -3z" />
    <glyph glyph-name="Wacute" unicode="&#x1e82;" horiz-adv-x="1057" 
d="M996 700q8 0 5 -9l-228 -691q-1 -5 -5 -5h-10q-5 0 -6 4l-224 594l-224 -594q-1 -4 -6 -4h-10q-5 0 -6 5l-226 691q-3 9 5 9h34q5 0 6 -5l196 -605l222 588q1 4 6 4h6q5 0 6 -4l222 -588l197 605q1 5 6 5h34zM583 877q3 3 6 3h35q13 0 6 -11l-78 -116q-1 -3 -5 -3h-28
q-6 0 -7.5 3t1.5 7z" />
    <glyph glyph-name="wacute" unicode="&#x1e83;" horiz-adv-x="764" 
d="M738 440q11 0 7 -9l-179 -431q-1 -2 -3 -3t-4 -1h-10q-6 0 -7 4l-161 371l-159 -371q-1 -4 -7 -4h-10q-4 0 -7 4l-179 431q-4 9 7 9h33q5 0 7 -4l146 -365l158 365q1 4 6 4h11q4 0 7 -4l158 -365l145 365q4 4 7 4h34zM436 657q3 3 6 3h35q13 0 6 -11l-78 -116
q-1 -3 -5 -3h-28q-6 0 -7.5 3t1.5 7z" />
    <glyph glyph-name="Wdieresis" unicode="&#x1e84;" horiz-adv-x="1057" 
d="M996 700q8 0 5 -9l-228 -691q-1 -5 -5 -5h-10q-5 0 -6 4l-224 594l-224 -594q-1 -4 -6 -4h-10q-5 0 -6 5l-226 691q-3 9 5 9h34q5 0 6 -5l196 -605l222 588q1 4 6 4h6q5 0 6 -4l222 -588l197 605q1 5 6 5h34zM441 845q14 0 23.5 -9.5t9.5 -24.5q0 -14 -9.5 -23t-23.5 -9
t-23.5 9t-9.5 23q0 15 9.5 24.5t23.5 9.5zM614 845q14 0 23.5 -9.5t9.5 -24.5q0 -14 -9.5 -23t-23.5 -9t-23.5 9t-9.5 23q0 15 9.5 24.5t23.5 9.5z" />
    <glyph glyph-name="wdieresis" unicode="&#x1e85;" horiz-adv-x="764" 
d="M738 440q11 0 7 -9l-179 -431q-1 -2 -3 -3t-4 -1h-10q-6 0 -7 4l-161 371l-159 -371q-1 -4 -7 -4h-10q-4 0 -7 4l-179 431q-4 9 7 9h33q5 0 7 -4l146 -365l158 365q1 4 6 4h11q4 0 7 -4l158 -365l145 365q4 4 7 4h34zM294 625q14 0 23.5 -9.5t9.5 -24.5q0 -14 -9.5 -23
t-23.5 -9t-23.5 9t-9.5 23q0 15 9.5 24.5t23.5 9.5zM467 625q14 0 23.5 -9.5t9.5 -24.5q0 -14 -9.5 -23t-23.5 -9t-23.5 9t-9.5 23q0 15 9.5 24.5t23.5 9.5z" />
    <glyph glyph-name="Germandbls" unicode="&#x1e9e;" horiz-adv-x="647" 
d="M528 684q0 -1 -2 -7l-171 -264q59 -1 101 -16t69.5 -42t40.5 -64t13 -82q0 -103 -64.5 -156t-185.5 -53h-86q-7 0 -7 7v28q0 7 7 7h82q103 0 155.5 40.5t52.5 127.5t-50.5 127t-142.5 40h-34q-3 0 -4 2t-3 5l-2 9q-2 4 2 8l165 257h-167q-81 0 -120.5 -34.5t-39.5 -119.5
v-497q0 -7 -7 -7h-31q-7 0 -7 7v496q0 105 52.5 151t154.5 46h223q6 0 6 -7v-9z" />
    <glyph glyph-name="endash" unicode="&#x2013;" horiz-adv-x="607" 
d="M77 287q0 7 7 7h440q7 0 7 -7v-24q0 -7 -7 -7h-440q-7 0 -7 7v24z" />
    <glyph glyph-name="emdash" unicode="&#x2014;" horiz-adv-x="931" 
d="M77 287q0 7 7 7h764q7 0 7 -7v-24q0 -7 -7 -7h-764q-7 0 -7 7v24z" />
    <glyph glyph-name="uni2015" unicode="&#x2015;" horiz-adv-x="908" 
d="M0 287q0 7 7 7h894q7 0 7 -7v-24q0 -7 -7 -7h-894q-7 0 -7 7v24z" />
    <glyph glyph-name="quoteleft" unicode="&#x2018;" horiz-adv-x="213" 
d="M99 518q-17 0 -29 12t-13 35q-1 35 10.5 71.5t34.5 68.5q4 5 10 2l10 -8q6 -3 2 -10q-17 -24 -24 -48.5t-7 -47.5q21 2 32.5 -10t11.5 -27q0 -18 -11 -28t-27 -10z" />
    <glyph glyph-name="quoteright" unicode="&#x2019;" horiz-adv-x="213" 
d="M95 711q17 0 29 -12t12 -35q2 -35 -9 -71.5t-36 -69.5q-5 -5 -9 -1l-10 8q-7 4 -2 9q17 24 24 48.5t7 49.5q-21 -3 -32.5 9t-11.5 27q0 17 11 27.5t27 10.5z" />
    <glyph glyph-name="quotesinglbase" unicode="&#x201a;" horiz-adv-x="221" 
d="M104 70q17 0 28.5 -12t11.5 -35q2 -38 -9.5 -77.5t-33.5 -74.5q-5 -5 -10 -2l-14 8q-6 4 -1 10q17 27 24.5 53.5t8.5 54.5q-21 -2 -32.5 9.5t-11.5 26.5q0 18 11 28.5t28 10.5z" />
    <glyph glyph-name="quotedblleft" unicode="&#x201c;" horiz-adv-x="343" 
d="M99 518q-17 0 -29 12t-13 35q-1 35 10.5 71.5t34.5 68.5q4 5 10 2l10 -8q6 -3 2 -10q-17 -24 -24 -48.5t-7 -47.5q21 2 32.5 -10t11.5 -27q0 -18 -11 -28t-27 -10zM228 518q-17 0 -28.5 12t-12.5 35q-1 35 10 71.5t35 68.5q3 6 9 2l11 -8q6 -3 1 -10q-17 -24 -23.5 -48.5
t-6.5 -47.5q21 2 32.5 -10t11.5 -27q0 -18 -11 -28t-28 -10z" />
    <glyph glyph-name="quotedblright" unicode="&#x201d;" horiz-adv-x="343" 
d="M225 711q17 0 28.5 -12t12.5 -35q2 -35 -9.5 -71.5t-35.5 -69.5q-4 -6 -9 -1l-11 8q-7 3 -1 9q17 25 23.5 49t6.5 49q-21 -3 -32.5 9t-11.5 27q0 17 11 27.5t28 10.5zM95 711q17 0 29 -12t12 -35q2 -35 -9 -71.5t-36 -69.5q-5 -5 -9 -1l-10 8q-7 4 -2 9q17 24 24 48.5
t7 49.5q-21 -3 -32.5 9t-11.5 27q0 17 11 27.5t27 10.5z" />
    <glyph glyph-name="quotedblbase" unicode="&#x201e;" horiz-adv-x="343" 
d="M225 70q17 0 28.5 -12t12.5 -35q2 -35 -9.5 -72t-35.5 -69q-4 -6 -9 -1l-11 8q-7 3 -1 9q17 25 24 49t6 49q-20 -3 -31.5 9t-11.5 27q0 17 10.5 27.5t27.5 10.5zM95 70q17 0 29 -12t13 -35q1 -35 -10 -72t-35 -69q-5 -5 -10 -1l-10 8q-6 3 -2 9q17 25 24 49.5t7 48.5
q-21 -3 -32.5 9t-11.5 27q0 17 11 27.5t27 10.5z" />
    <glyph glyph-name="dagger" unicode="&#x2020;" horiz-adv-x="436" 
d="M234 730q7 0 7 -7v-171h135q7 0 7 -7v-24q0 -7 -7 -7h-135v-387q0 -7 -7 -7h-27q-6 0 -6 7v387h-137q-7 0 -7 7v24q0 7 7 7h137v171q0 7 6 7h27z" />
    <glyph glyph-name="daggerdbl" unicode="&#x2021;" horiz-adv-x="436" 
d="M234 730q7 0 7 -7v-174h135q7 0 7 -7v-24q0 -7 -7 -7h-135v-182h135q7 0 7 -7v-25q0 -7 -7 -7h-135v-213q0 -7 -7 -7h-27q-6 0 -6 7v213h-137q-7 0 -7 7v25q0 7 7 7h137v182h-137q-7 0 -7 7v24q0 7 7 7h137v174q0 7 6 7h27z" />
    <glyph glyph-name="bullet" unicode="&#x2022;" horiz-adv-x="600" 
d="M300 507q72 0 114.5 -42.5t42.5 -114.5t-42.5 -114.5t-114.5 -42.5t-114.5 42.5t-42.5 114.5t42.5 114.5t114.5 42.5z" />
    <glyph glyph-name="uni2023" unicode="&#x2023;" horiz-adv-x="594" 
d="M435 356q12 -5 0 -12l-270 -146q-4 -3 -7 -1t-3 7v292q0 5 3 7t7 -1z" />
    <glyph glyph-name="ellipsis" unicode="&#x2026;" horiz-adv-x="682" 
d="M115 66q16 0 27 -10t11 -27t-11 -27.5t-27 -10.5q-17 0 -27.5 10.5t-10.5 27.5t10.5 27t27.5 10zM341 66q16 0 27 -10t11 -27t-11 -27.5t-27 -10.5q-17 0 -27.5 10.5t-10.5 27.5t10.5 27t27.5 10zM568 66q16 0 27 -10t11 -27t-11 -27.5t-27 -10.5q-17 0 -27.5 10.5
t-10.5 27.5t10.5 27t27.5 10z" />
    <glyph glyph-name="perthousand" unicode="&#x2030;" horiz-adv-x="1053" 
d="M180 700q33 0 60.5 -11t47.5 -31t31 -47t11 -60t-11 -60.5t-31 -47.5t-47.5 -31t-60.5 -11t-60 11t-47 31t-31 47.5t-11 60.5t11 60t31 47t47 31t60 11zM646 671q5 -5 1 -10l-588 -645q-5 -5 -10 0l-15 14q-6 4 0 10l587 643q5 5 10 0zM180 667q-53 0 -83.5 -32
t-30.5 -84q0 -53 30.5 -85t83.5 -32q54 0 84.5 32t30.5 85q0 52 -30.5 84t-84.5 32zM494 289q33 0 60 -11t47 -31t31 -47.5t11 -60.5t-11 -60.5t-31 -47.5t-47 -31t-60 -11t-60 11t-47 31t-31 47.5t-11 60.5t11 60.5t31 47.5t47 31t60 11zM874 289q33 0 60 -11t47 -31
t31 -47.5t11 -60.5t-11 -60.5t-31 -47.5t-47 -31t-60 -11t-60.5 11t-47.5 31t-31 47.5t-11 60.5t11 60.5t31 47.5t47.5 31t60.5 11zM494 256q-54 0 -84.5 -32t-30.5 -85q0 -52 30.5 -84t84.5 -32t84 32t30 84q0 53 -30 85t-84 32zM874 256q-54 0 -84.5 -32t-30.5 -85
q0 -52 30.5 -84t84.5 -32q53 0 83.5 32t30.5 84q0 53 -30.5 85t-83.5 32z" />
    <glyph glyph-name="minute" unicode="&#x2032;" horiz-adv-x="203" 
d="M117 518q0 -7 -7 -7h-16q-7 0 -7 7l-10 175q0 7 7 7h36q7 0 7 -7z" />
    <glyph glyph-name="second" unicode="&#x2033;" horiz-adv-x="320" 
d="M117 518q0 -7 -7 -7h-16q-7 0 -7 7l-10 175q0 7 7 7h36q7 0 7 -7zM234 518q0 -7 -7 -7h-16q-7 0 -7 7l-10 175q0 7 7 7h36q7 0 7 -7z" />
    <glyph glyph-name="guilsinglleft" unicode="&#x2039;" horiz-adv-x="273" 
d="M59 273q-3 5 0 9l109 154q2 4 9 4h30q14 0 6 -11l-110 -152l110 -150q8 -11 -6 -11h-30q-6 0 -9 5z" />
    <glyph glyph-name="guilsinglright" unicode="&#x203a;" horiz-adv-x="273" 
d="M214 282q3 -4 0 -9l-108 -152q-4 -5 -9 -5h-31q-12 0 -6 11l110 150l-110 152q-6 11 6 11h31q6 0 9 -4z" />
    <glyph glyph-name="fraction" unicode="&#x2044;" horiz-adv-x="223" 
d="M327 700q12 0 7 -10l-411 -686q-1 -4 -6 -4h-21q-6 0 -7.5 3t1.5 7l410 687q2 3 6 3h21z" />
    <glyph glyph-name="uni2070" unicode="&#x2070;" horiz-adv-x="372" 
d="M186 830q44 0 73.5 -18t48 -48t26.5 -69t8 -80q0 -42 -8 -80.5t-26.5 -68.5t-48.5 -48t-73 -18t-73 18t-48.5 48t-26.5 68.5t-8 80.5q0 41 8 80t26.5 69t48.5 48t73 18zM186 794q-34 0 -56.5 -14.5t-36 -39.5t-19.5 -57.5t-6 -67.5t6 -67.5t19.5 -57.5t36 -40t56.5 -15
t56.5 15t36 40t19.5 57.5t6 67.5t-6 67.5t-19.5 57.5t-36 39.5t-56.5 14.5z" />
    <glyph glyph-name="uni2074" unicode="&#x2074;" horiz-adv-x="357" 
d="M331 512q0 -7 -7 -7h-65v-88q0 -7 -7 -7h-24q-7 0 -7 7v88h-189q-6 0 -6 6v9q0 1 0.5 4.5t2.5 5.5l151 286q3 4 7 4h27q13 0 6 -10l-148 -271h149v91q0 7 7 7h24q7 0 7 -7v-91h65q7 0 7 -7v-20z" />
    <glyph glyph-name="uni2075" unicode="&#x2075;" horiz-adv-x="348" 
d="M284 791q0 -6 -7 -6h-173l-10 -126h66q68 0 110 -31.5t42 -94.5q0 -57 -35.5 -95t-100.5 -38q-51 0 -88 25.5t-51 73.5q-2 6 5 8l19 7q7 3 9 -5q10 -36 38 -55.5t68 -19.5q48 0 72.5 26t24.5 71q0 95 -116 95h-94q-7 0 -7 7l14 180q0 7 7 7h200q7 0 7 -7v-22z" />
    <glyph glyph-name="uni2076" unicode="&#x2076;" horiz-adv-x="345" 
d="M217 820q12 0 4 -10l-107 -154q30 19 70 19q28 0 52.5 -9.5t42.5 -27.5t28 -43t10 -56t-11 -57t-30.5 -44t-46.5 -28t-59 -10q-31 0 -57 9t-45 26.5t-29.5 41.5t-10.5 54q0 56 30 100l124 186q3 3 6 3h29zM174 643q-51 0 -79 -30.5t-28 -76.5q0 -48 28.5 -74.5
t76.5 -26.5t77 28t29 76t-28 76t-76 28z" />
    <glyph glyph-name="uni2077" unicode="&#x2077;" horiz-adv-x="304" 
d="M30 785q-7 0 -7 6v22q0 7 7 7h245q6 0 6 -6v-7q0 -7 -4 -15l-155 -377q-2 -5 -7 -5h-26q-11 0 -6 9l154 366h-207z" />
    <glyph glyph-name="uni2078" unicode="&#x2078;" horiz-adv-x="342" 
d="M171 830q57 0 91.5 -27.5t34.5 -78.5q0 -35 -19 -63t-54 -39q43 -12 64.5 -40.5t21.5 -68.5q0 -53 -36 -83t-103 -30t-103 30t-36 83q0 40 22 68.5t64 40.5q-35 11 -54 39t-19 63q0 51 34.5 78.5t91.5 27.5zM171 796q-38 0 -63 -18t-25 -58q0 -41 25.5 -62t62.5 -21
t62.5 21t25.5 62q0 40 -25 58t-63 18zM171 605q-43 0 -71.5 -21t-28.5 -66q0 -44 27.5 -64t72.5 -20t72.5 20t27.5 64q0 45 -28.5 66t-71.5 21z" />
    <glyph glyph-name="uni2079" unicode="&#x2079;" horiz-adv-x="345" 
d="M130 410q-6 0 -8 3t2 7l107 154q-28 -18 -70 -18q-28 0 -52.5 9.5t-42.5 27.5t-28 43t-10 55q0 32 11 57.5t30.5 43.5t46.5 28t58 10q63 0 103 -36t40 -97q0 -26 -8 -52t-22 -46l-124 -185q-1 -4 -6 -4h-27zM171 587q51 0 79 30.5t28 76.5q0 48 -28.5 74.5t-76.5 26.5
t-77 -28t-29 -76t28.5 -76t75.5 -28z" />
    <glyph glyph-name="uni2080" unicode="&#x2080;" horiz-adv-x="372" 
d="M186 210q44 0 73.5 -18t48 -48t26.5 -69t8 -80q0 -42 -8 -80.5t-26.5 -68.5t-48.5 -48t-73 -18t-73 18t-48.5 48t-26.5 68.5t-8 80.5q0 41 8 80t26.5 69t48.5 48t73 18zM186 174q-34 0 -56.5 -14.5t-36 -39.5t-19.5 -57.5t-6 -67.5t6 -67.5t19.5 -57.5t36 -40t56.5 -15
t56.5 15t36 40t19.5 57.5t6 67.5t-6 67.5t-19.5 57.5t-36 39.5t-56.5 14.5z" />
    <glyph glyph-name="uni2081" unicode="&#x2081;" horiz-adv-x="242" 
d="M166 202q6 0 6 -6v-399q0 -7 -6 -7h-24q-7 0 -7 7v363l-92 -30q-7 -2 -8 3l-7 22q-4 7 6 9l110 36q10 2 14 2h8z" />
    <glyph glyph-name="uni2082" unicode="&#x2082;" horiz-adv-x="336" 
d="M67 101q-2 -8 -9 -5l-18 6q-7 3 -6 9q14 47 51 73t91 26q55 0 88.5 -27.5t33.5 -80.5q0 -37 -19 -70t-57 -74l-130 -133h201q7 0 7 -7v-21q0 -7 -7 -7h-255q-6 0 -6 6v7q0 4 2 6l162 171q34 36 49 64t15 57q0 38 -23.5 56.5t-61.5 18.5q-42 0 -70 -20t-38 -55z" />
    <glyph glyph-name="uni2083" unicode="&#x2083;" horiz-adv-x="348" 
d="M127 -17q-7 0 -7 7v18q0 7 7 7h48q43 0 67 26.5t24 61.5t-23 54t-65 19q-44 0 -71.5 -19.5t-37.5 -55.5q-2 -8 -8 -5l-20 7q-8 2 -5 8q13 48 49.5 73.5t93.5 25.5q60 0 93 -27t33 -74q0 -38 -21.5 -67.5t-53.5 -41.5q39 -8 61 -35t22 -68q0 -54 -37 -85.5t-98 -31.5
q-56 0 -95 25.5t-52 73.5q-3 6 5 8l19 8q6 2 8 -5q11 -36 41 -56t73 -20q46 0 72 21.5t26 63.5q0 38 -23.5 61t-76.5 23h-48z" />
    <glyph glyph-name="uni2084" unicode="&#x2084;" horiz-adv-x="357" 
d="M331 -108q0 -7 -7 -7h-65v-88q0 -7 -7 -7h-24q-7 0 -7 7v88h-189q-6 0 -6 6v9q0 1 0.5 4.5t2.5 5.5l151 286q3 4 7 4h27q13 0 6 -10l-148 -271h149v91q0 7 7 7h24q7 0 7 -7v-91h65q7 0 7 -7v-20z" />
    <glyph glyph-name="uni2085" unicode="&#x2085;" horiz-adv-x="348" 
d="M284 171q0 -6 -7 -6h-173l-10 -126h66q68 0 110 -31.5t42 -94.5q0 -57 -35.5 -95t-100.5 -38q-51 0 -88 25.5t-51 73.5q-2 6 5 8l19 7q7 3 9 -5q10 -36 38 -55.5t68 -19.5q48 0 72.5 26t24.5 71q0 95 -116 95h-94q-7 0 -7 7l14 180q0 7 7 7h200q7 0 7 -7v-22z" />
    <glyph glyph-name="uni2086" unicode="&#x2086;" horiz-adv-x="345" 
d="M217 200q12 0 4 -10l-107 -154q30 19 70 19q28 0 52.5 -9.5t42.5 -27.5t28 -43t10 -56t-11 -57t-30.5 -44t-46.5 -28t-59 -10q-31 0 -57 9t-45 26.5t-29.5 41.5t-10.5 54q0 56 30 100l124 186q3 3 6 3h29zM174 23q-51 0 -79 -30.5t-28 -76.5q0 -48 28.5 -74.5t76.5 -26.5
t77 28t29 76t-28 76t-76 28z" />
    <glyph glyph-name="uni2087" unicode="&#x2087;" horiz-adv-x="304" 
d="M30 165q-7 0 -7 6v22q0 7 7 7h245q6 0 6 -6v-7q0 -7 -4 -15l-155 -377q-2 -5 -7 -5h-26q-11 0 -6 9l154 366h-207z" />
    <glyph glyph-name="uni2088" unicode="&#x2088;" horiz-adv-x="342" 
d="M171 210q57 0 91.5 -27.5t34.5 -78.5q0 -35 -19 -63t-54 -39q43 -12 64.5 -40.5t21.5 -68.5q0 -53 -36 -83t-103 -30t-103 30t-36 83q0 40 22 68.5t64 40.5q-35 11 -54 39t-19 63q0 51 34.5 78.5t91.5 27.5zM171 176q-38 0 -63 -18t-25 -58q0 -41 25.5 -62t62.5 -21
t62.5 21t25.5 62q0 40 -25 58t-63 18zM171 -15q-43 0 -71.5 -21t-28.5 -66q0 -44 27.5 -64t72.5 -20t72.5 20t27.5 64q0 45 -28.5 66t-71.5 21z" />
    <glyph glyph-name="uni2089" unicode="&#x2089;" horiz-adv-x="345" 
d="M130 -210q-6 0 -8 3t2 7l107 154q-28 -18 -70 -18q-28 0 -52.5 9.5t-42.5 27.5t-28 43t-10 55q0 32 11 57.5t30.5 43.5t46.5 28t58 10q63 0 103 -36t40 -97q0 -26 -8 -52t-22 -46l-124 -185q-1 -4 -6 -4h-27zM171 -33q51 0 79 30.5t28 76.5q0 48 -28.5 74.5t-76.5 26.5
t-77 -28t-29 -76t28.5 -76t75.5 -28z" />
    <glyph glyph-name="Euro" unicode="&#x20ac;" horiz-adv-x="601" 
d="M44 382q-7 0 -7 7v22q0 7 7 7h57q6 55 22 106t45.5 90t74 62.5t106.5 23.5q73 0 120 -31t77 -83q3 -6 -2 -9l-23 -14q-6 -4 -9 3q-26 45 -64 70.5t-97 25.5q-54 0 -91 -21t-61 -55.5t-36 -78t-17 -89.5h263q10 0 7 -9l-7 -23q-2 -4 -6 -4h-359zM44 272q-7 0 -7 7v22
q0 7 7 7h344q11 0 7 -9l-8 -23q-2 -4 -6 -4h-234q4 -46 16 -90.5t36 -79t61 -55.5t91 -21q60 0 98.5 26.5t64.5 72.5q3 5 9 2l21 -13q7 -4 2 -9q-29 -54 -76 -85.5t-121 -31.5q-62 0 -106.5 24t-73.5 63.5t-45 90.5t-22 106h-58z" />
    <glyph glyph-name="uni20BA" unicode="&#x20ba;" horiz-adv-x="686" 
d="M46 386q-9 -5 -9 6v20q0 3 5 5l126 47v229q0 7 7 7h29q7 0 7 -7v-213l239 85q9 3 9 -7v-18q0 -7 -7 -9zM37 292q0 4 5 6l408 147q9 3 9 -7v-18q0 -7 -7 -8l-241 -87v-282q28 -5 55.5 -8.5t53.5 -3.5q54 0 101.5 14.5t82.5 46.5t56.5 83t22.5 125q0 7 7 6l26 -3q8 -1 8 -8
q0 -81 -24 -139t-65.5 -94.5t-98.5 -54t-124 -17.5q-32 0 -67 3.5t-71 10.5q-6 2 -6 7v299l-122 -44q-9 -4 -9 7v19z" />
    <glyph glyph-name="uni20BD" unicode="&#x20bd;" horiz-adv-x="616" 
d="M117 693q0 7 7 7h209q112 0 173 -55t61 -154t-61 -155t-173 -56h-289q-7 0 -7 7v26q0 7 7 7h73v373zM163 320h165q98 0 145.5 44t47.5 127t-48.5 126.5t-145.5 43.5h-164v-341zM37 179q0 6 7 6h368q7 0 7 -6v-22q0 -7 -7 -7h-249v-143q0 -7 -7 -7h-32q-7 0 -7 7v143h-73
q-7 0 -7 7v22z" />
    <glyph glyph-name="uni2113" unicode="&#x2113;" horiz-adv-x="472" 
d="M55 251q-7 0 -7 7v16q0 5 7 7q34 1 66 6q1 93 15 168t38.5 127.5t59 81t76.5 28.5q45 0 71.5 -33t26.5 -96q0 -114 -62 -190t-182 -105q1 -67 11 -113.5t27 -76t40.5 -43t50.5 -13.5q22 0 43.5 8t44.5 23q7 4 10 -3l9 -16q3 -6 -2 -9q-54 -37 -114 -37q-76 0 -118.5 68.5
t-44.5 200.5q-31 -4 -66 -6zM164 298q107 26 161 94.5t54 174.5q0 51 -20.5 73t-49.5 22q-34 0 -60.5 -26.5t-45 -74.5t-28.5 -115t-11 -148z" />
    <glyph glyph-name="uni2116" unicode="&#x2116;" horiz-adv-x="1099" 
d="M898 706q33 0 61.5 -12t49 -33.5t32 -50t11.5 -61.5q0 -34 -11.5 -62.5t-32 -49.5t-49 -33t-61.5 -12q-34 0 -62 12t-48.5 33t-32 49.5t-11.5 62.5q0 33 11.5 61.5t32 50t48.5 33.5t62 12zM609 700q7 0 7 -7v-691q0 -7 -7 -7h-8q-3 0 -7 4l-458 609v-601q0 -7 -7 -7h-30
q-7 0 -7 7v691q0 7 7 7h8q5 0 7 -3l459 -610v601q0 7 7 7h29zM898 671q-53 0 -85 -35t-32 -87q0 -53 32 -88t85 -35q26 0 47 9.5t37 26t24.5 39t8.5 48.5t-8.5 48t-24.5 38.5t-37 26t-47 9.5zM751 256q-7 0 -7 6v24q0 7 7 7h294q7 0 7 -7v-24q0 -6 -7 -6h-294z" />
    <glyph glyph-name="trademark" unicode="&#x2122;" horiz-adv-x="561" 
d="M222 700q7 0 7 -7v-16q0 -7 -7 -7h-69v-213q0 -7 -7 -7h-17q-7 0 -7 7v213h-67q-7 0 -7 7v16q0 7 7 7h167zM507 700q7 0 7 -7v-236q0 -7 -7 -7h-17q-7 0 -7 7v189l-85 -133q-1 -2 -4 -2t-5 2l-84 133v-189q0 -7 -7 -7h-18q-6 0 -6 7v236q0 7 6 7h20q4 0 5 -3l88 -140
l89 140q2 3 6 3h19z" />
    <glyph glyph-name="uni2126" unicode="&#x2126;" horiz-adv-x="855" 
d="M428 713q74 0 138 -22.5t111 -65t74.5 -103t27.5 -136.5q0 -53 -13.5 -104.5t-41 -97.5t-70 -85t-100.5 -69l212 9q7 0 7 -7v-25q0 -7 -7 -7h-272q-6 0 -6 5l-2 6q-2 6 3 8q63 29 109 68.5t76.5 86.5t45 100t14.5 108q0 69 -23.5 123.5t-64.5 92t-97 57t-121 19.5
q-66 0 -122 -19.5t-97 -57t-64.5 -92t-23.5 -123.5q0 -55 14.5 -108t45 -100t76.5 -86.5t109 -68.5q4 -1 4 -8l-2 -6q-2 -5 -7 -5h-272q-7 0 -7 7v25q0 7 8 7l212 -9q-58 30 -100.5 69t-70 85t-41 97.5t-13.5 104.5q0 76 27 136.5t74.5 103t111.5 65t138 22.5z" />
    <glyph glyph-name="estimated" unicode="&#x212e;" horiz-adv-x="786" 
d="M716 299q0 -6 -2.5 -11t-7.5 -5h-524v-170q18 -20 42.5 -36t53 -27.5t59 -18t60.5 -6.5q33 0 67 8t66 22t59.5 34t46.5 44q4 7 10 1l13 -10q3 -5 0 -10q-46 -52 -114.5 -83t-149.5 -31q-70 0 -130 24t-103.5 65t-68 97t-24.5 119q0 64 24.5 119.5t68 97t103 65.5
t128.5 24q68 0 127 -24t102.5 -66t68.5 -99t25 -123zM599 501q-35 37 -89 59.5t-114 22.5q-31 0 -62.5 -6.5t-59.5 -17.5t-51.5 -26.5t-40.5 -32.5v-189h417v190z" />
    <glyph glyph-name="arrowleft" unicode="&#x2190;" horiz-adv-x="883" 
d="M791 313q0 -7 -7 -7h-617l266 -268q5 -4 3.5 -7t-7.5 -3l-40 -1q-3 0 -5 2l-289 293q-5 5 0 9l289 294q2 2 5 2l40 -1q6 0 7.5 -3t-3.5 -8l-266 -267h617q7 0 7 -7v-28z" />
    <glyph glyph-name="arrowup" unicode="&#x2191;" horiz-adv-x="785" 
d="M690 410q2 -2 2 -6v-39q0 -6 -3.5 -7.5t-7.5 2.5l-268 266v-619q0 -7 -7 -7h-28q-7 0 -7 7v619l-267 -266q-5 -4 -8.5 -2.5t-3.5 7.5v39q0 5 3 6l293 289q2 2 4.5 2t4.5 -2z" />
    <glyph glyph-name="arrowright" unicode="&#x2192;" horiz-adv-x="883" 
d="M500 29q-4 -2 -6 -2h-40q-6 0 -8 3.5t3 7.5l267 268h-617q-7 0 -7 7v28q0 7 7 7h617l-267 267q-5 5 -3 8.5t8 3.5h40q2 0 6 -2l289 -294q4 -4 0 -9z" />
    <glyph glyph-name="arrowdown" unicode="&#x2193;" horiz-adv-x="785" 
d="M406 700q7 0 7 -7v-619l268 267q5 5 8 3t3 -8v-40q0 -2 -2 -6l-293 -289q-4 -5 -9 0l-293 289q-3 3 -3 6v41q0 6 3.5 7.5t8.5 -3.5l267 -267v619q0 7 7 7h28z" />
    <glyph glyph-name="arrowboth" unicode="&#x2194;" horiz-adv-x="1108" 
d="M1013 331q5 -4 0 -9l-255 -258q-1 -3 -5 -3h-40q-6 0 -8 3.5t3 8.5l233 233h-774l233 -233q5 -5 3.5 -8.5t-7.5 -3.5h-41q-3 0 -6 3l-254 258q-5 5 0 9l254 260q4 2 6 2h40q6 0 8 -3.5t-3 -8.5l-233 -233h774l-232 233q-5 5 -3 8.5t8 3.5h39q3 0 5 -2z" />
    <glyph glyph-name="arrowupdn" unicode="&#x2195;" horiz-adv-x="766" 
d="M378 793q5 5 10 0l259 -255q2 -2 2 -5v-40q0 -6 -3.5 -8t-8.5 3l-233 233v-745l233 231q5 5 8.5 3.5t3.5 -7.5v-40q0 -3 -2 -5l-259 -255q-5 -3 -10 0l-258 256q-3 2 -3 5v39q0 6 3.5 8t8.5 -3l232 -232v745l-232 -233q-5 -5 -8.5 -3t-3.5 8v40q0 4 3 5z" />
    <glyph glyph-name="uni2196" unicode="&#x2196;" horiz-adv-x="720" 
d="M119 584q0 7 7 7l412 3q3 0 6 -3l27 -28q9 -11 -5 -11l-377 -1l437 -436q4 -5 0 -9l-21 -21q-5 -3 -10 0l-436 437v-377q0 -6 -3.5 -8t-8.5 3l-27 27q-3 3 -3 6z" />
    <glyph glyph-name="uni2197" unicode="&#x2197;" horiz-adv-x="720" 
d="M593 591q7 0 7 -7l3 -411q0 -2 -2 -6l-29 -27q-5 -4 -8.5 -3t-3.5 7v378l-436 -437q-4 -4 -9 0l-20 21q-5 4 0 9l436 436l-378 1q-6 0 -7 3.5t3 7.5l28 28q2 3 5 3z" />
    <glyph glyph-name="uni2198" unicode="&#x2198;" horiz-adv-x="720" 
d="M115 591q5 5 9 0l436 -437v377q0 6 3.5 7.5t8.5 -2.5l29 -28q2 -2 2 -5l-3 -411q0 -7 -7 -7l-411 -3q-3 0 -5 2l-28 29q-4 4 -3 7.5t7 3.5l378 1l-436 436q-2 2 -2 4.5t2 4.5z" />
    <glyph glyph-name="uni2199" unicode="&#x2199;" horiz-adv-x="720" 
d="M126 85q-7 0 -7 7l-2 411q0 4 3 5l27 28q5 5 8.5 3t3.5 -8v-377l436 437q5 3 10 0l21 -21q5 -4 0 -9l-437 -436l377 -1q7 0 8 -3.5t-3 -7.5l-27 -29q-4 -2 -6 -2z" />
    <glyph glyph-name="partialdiff" unicode="&#x2202;" horiz-adv-x="589" 
d="M309 457q62 0 110.5 -28.5t74.5 -76.5q3 23 4 44.5t1 41.5q0 113 -43 176t-133 63q-69 0 -128 -36q-7 -4 -11 3l-7 20q-4 5 2 9q35 20 73.5 30t76.5 10q53 0 93 -19t66.5 -54t40 -85t13.5 -112q0 -47 -7.5 -99t-23.5 -102.5t-40.5 -96.5t-59.5 -81t-80 -56t-102 -21
q-43 0 -76.5 15t-57 41.5t-35.5 62t-12 77.5q0 57 18.5 107t52.5 87t82 58.5t108 21.5zM305 422q-51 0 -91 -19t-67.5 -51t-41.5 -75t-14 -91q0 -36 9.5 -65.5t28.5 -51t46 -33.5t62 -12q55 0 97 24t72 63t49.5 88.5t29.5 101.5q-20 57 -68 89t-112 32z" />
    <glyph glyph-name="uni2206" unicode="&#x2206;" horiz-adv-x="683" 
d="M332 696q1 4 7 4h9q4 0 6 -4l276 -687q4 -9 -7 -9h-563q-11 0 -6 9zM108 41h466l-231 586z" />
    <glyph glyph-name="product" unicode="&#x220f;" horiz-adv-x="696" 
d="M596 700q7 0 7 -7v-819q0 -7 -7 -7h-31q-7 0 -7 7v785h-421v-785q0 -7 -7 -7h-31q-7 0 -7 7v819q0 7 7 7h497z" />
    <glyph glyph-name="summation" unicode="&#x2211;" horiz-adv-x="663" 
d="M591 666q0 -7 -7 -7h-441l268 -367l1.5 -3t0.5 -3v-12q0 -2 -0.5 -3l-1.5 -3l-268 -367h441q7 0 7 -7v-27q0 -7 -7 -7h-502q-7 0 -7 7v9q0 1 2 5l289 399l-292 399q-2 4 -2 5v9q0 7 7 7h505q7 0 7 -7v-27z" />
    <glyph glyph-name="minus" unicode="&#x2212;" horiz-adv-x="544" 
d="M487 264q0 -7 -7 -7h-416q-7 0 -7 7v23q0 7 7 7h416q7 0 7 -7v-23z" />
    <glyph glyph-name="radical" unicode="&#x221a;" horiz-adv-x="656" 
d="M54 269q-3 7 3 10l26 11q7 3 10 -3l170 -367l299 840q0 4 6 4h28q10 0 7 -9l-327 -901q0 -4 -6 -4h-9q-4 0 -7 3z" />
    <glyph glyph-name="infinity" unicode="&#x221e;" horiz-adv-x="801" 
d="M212 475q33 0 60.5 -10.5t51 -28.5t44.5 -41t40 -48q19 24 39 46.5t43 39.5t49 27.5t56 10.5q32 0 59 -11.5t47 -31.5t31.5 -48.5t11.5 -63.5q0 -34 -11.5 -62t-31.5 -48t-48 -31.5t-61 -11.5q-31 0 -57.5 10t-49 27t-42 39t-37.5 46q-19 -24 -40 -47t-44.5 -40.5
t-51 -28.5t-59.5 -11q-33 0 -61.5 12t-49 33t-32 50t-11.5 63q0 35 11.5 64t32 50t49 33t62.5 12zM213 439q-51 0 -82 -34t-31 -88t31 -87.5t82 -33.5t91 34.5t80 84.5q-20 27 -39.5 49.5t-40 39t-43 26t-48.5 9.5zM431 317q17 -23 35 -44t37.5 -37.5t42 -26t48.5 -9.5
q48 0 77 32t29 86q0 53 -28.5 84.5t-76.5 31.5q-26 0 -48 -9.5t-42 -25.5t-38 -37.5t-36 -44.5z" />
    <glyph glyph-name="integral" unicode="&#x222b;" horiz-adv-x="293" 
d="M256 774q0 -7 -7 -7q-63 -2 -85.5 -32.5t-18.5 -91.5l43 -682q6 -88 -28.5 -133.5t-115.5 -47.5q-7 0 -7 7v19q0 7 7 7q62 2 85.5 36.5t19.5 98.5l-43 692q-5 77 30 117.5t113 42.5q7 0 7 -7v-19z" />
    <glyph glyph-name="approxequal" unicode="&#x2248;" horiz-adv-x="554" 
d="M492 436q6 -2 4 -8q-7 -52 -33 -81t-74 -29q-38 0 -66 15t-54 34q-23 17 -46 29.5t-52 12.5q-66 0 -78 -80q-1 -7 -9 -6l-21 5q-7 2 -5 7q8 52 35 81t75 29q37 0 64.5 -15t59.5 -38q18 -13 40.5 -25.5t51.5 -12.5q66 0 77 80q2 8 9 6zM492 222q6 -2 4 -8q-7 -52 -33 -81
t-74 -29q-38 0 -66 15t-54 35q-23 17 -46 29.5t-52 12.5q-67 0 -78 -80q-1 -7 -9 -6l-21 4q-7 2 -5 7q8 52 35 81t75 29q37 0 64.5 -15t59.5 -38q18 -13 40.5 -25t51.5 -12q65 0 77 80q2 8 9 6z" />
    <glyph glyph-name="notequal" unicode="&#x2260;" horiz-adv-x="536" 
d="M479 366q0 -7 -7 -7h-136l-81 -168h217q7 0 7 -6v-23q0 -7 -7 -7h-236l-75 -156q-3 -3 -7 -3h-27q-8 0 -4 10l72 149h-131q-7 0 -7 7v23q0 6 7 6h151l81 168h-232q-7 0 -7 7v23q0 7 7 7h250l70 145q2 3 7 3h26q9 0 5 -10l-68 -138h118q7 0 7 -7v-23z" />
    <glyph glyph-name="lessequal" unicode="&#x2264;" horiz-adv-x="539" 
d="M482 153q0 -10 -10 -6l-411 188q-4 1 -4 6v11q0 5 4 6l411 188q10 4 10 -6v-28q0 -6 -4 -7l-356 -159l356 -158q2 -1 3 -3t1 -4v-28zM475 95q7 0 7 -7v-24q0 -7 -7 -7h-409q-7 0 -7 7v24q0 7 7 7h409z" />
    <glyph glyph-name="greaterequal" unicode="&#x2265;" horiz-adv-x="539" 
d="M67 147q-10 -5 -10 6v28q0 2 1 4t4 3l355 158l-355 159q-5 1 -5 7v28q0 11 10 6l412 -188q3 -1 3 -6v-12q0 -3 -3 -5zM57 88q0 7 7 7h409q7 0 7 -7v-24q0 -7 -7 -7h-409q-7 0 -7 7v24z" />
    <glyph glyph-name="house" unicode="&#x2302;" horiz-adv-x="747" 
d="M369 696q4 5 9 0l274 -244q3 -1 3 -5v-440q0 -7 -7 -7h-549q-7 0 -7 7v440q0 4 3 5zM126 436v-402h495v402l-248 219z" />
    <glyph glyph-name="uni2460" unicode="&#x2460;" 
d="M560 818q100 0 185.5 -35.5t148 -98t98 -148t35.5 -186.5q0 -100 -35.5 -186t-98 -148.5t-148 -98t-185.5 -35.5t-185.5 35.5t-148.5 98t-98.5 148.5t-35.5 186q0 101 35.5 186.5t98.5 148t148.5 98t185.5 35.5zM560 784q-95 0 -174 -33t-136 -91.5t-88.5 -137.5
t-31.5 -172q0 -92 31.5 -171.5t88.5 -138t136 -91.5t174 -33t174 33t135.5 91.5t88 138t31.5 171.5q0 93 -31.5 172t-88 137.5t-135.5 91.5t-174 33zM584 616q6 0 6 -6v-537q0 -7 -7 -7h-28q-7 0 -7 7v497l-127 -43q-8 -2 -9 5l-6 23q-3 7 4 10l153 49q10 2 13 2h8z" />
    <glyph glyph-name="uni2461" unicode="&#x2461;" 
d="M560 818q100 0 185.5 -35.5t148 -98t98 -148t35.5 -186.5q0 -100 -35.5 -186t-98 -148.5t-148 -98t-185.5 -35.5t-185.5 35.5t-148.5 98t-98.5 148.5t-35.5 186q0 101 35.5 186.5t98.5 148t148.5 98t185.5 35.5zM560 784q-95 0 -174 -33t-136 -91.5t-88.5 -137.5
t-31.5 -172q0 -92 31.5 -171.5t88.5 -138t136 -91.5t174 -33t174 33t135.5 91.5t88 138t31.5 171.5q0 93 -31.5 172t-88 137.5t-135.5 91.5t-174 33zM416 488q-2 -7 -8 -5l-24 8q-6 3 -5 9q17 63 65.5 98t120.5 35t117 -36t45 -106q0 -46 -22.5 -89.5t-78.5 -100.5
l-182 -188h278q7 0 7 -7v-26q0 -7 -7 -7h-341q-6 0 -6 6v9q0 2 2 4l218 232q47 50 67.5 87t20.5 78q0 54 -32.5 79.5t-87.5 25.5q-118 0 -147 -106z" />
    <glyph glyph-name="uni2462" unicode="&#x2462;" 
d="M560 818q100 0 185.5 -35.5t148 -98t98 -148t35.5 -186.5q0 -100 -35.5 -186t-98 -148.5t-148 -98t-185.5 -35.5t-185.5 35.5t-148.5 98t-98.5 148.5t-35.5 186q0 101 35.5 186.5t98.5 148t148.5 98t185.5 35.5zM560 784q-95 0 -174 -33t-135.5 -91.5t-88 -137.5
t-31.5 -172q0 -92 31.5 -171.5t88 -138t135.5 -91.5t174 -33t174 33t135.5 91.5t88 138t31.5 171.5q0 93 -31.5 172t-88 137.5t-135.5 91.5t-174 33zM493 334q-7 0 -7 7v22q0 7 7 7h68q30 0 53 9.5t39 26t24.5 38t8.5 45.5q0 49 -33 76t-91 27q-60 0 -98 -28t-50 -79
q-4 -6 -9 -4l-24 7q-8 2 -6 8q17 65 65.5 99.5t123.5 34.5q79 0 123 -37t44 -99q0 -51 -28.5 -88.5t-71.5 -51.5q53 -11 82.5 -47t29.5 -90q0 -72 -49.5 -114.5t-130.5 -42.5q-73 0 -125.5 35t-69.5 99q-1 6 5 9l25 8q6 1 9 -5q14 -51 55.5 -79t101.5 -28q62 0 98 30.5
t36 87.5q0 52 -32 84.5t-105 32.5h-68z" />
    <glyph glyph-name="uni2463" unicode="&#x2463;" 
d="M560 818q100 0 185.5 -35.5t148 -98t98 -148t35.5 -186.5q0 -100 -35.5 -186t-98 -148.5t-148 -98t-185.5 -35.5t-185.5 35.5t-148.5 98t-98.5 148.5t-35.5 186q0 101 35.5 186.5t98.5 148t148.5 98t185.5 35.5zM560 784q-95 0 -174 -33t-136 -91.5t-88.5 -137.5
t-31.5 -172q0 -92 31.5 -171.5t88.5 -138t136 -91.5t174 -33t174 33t135.5 91.5t88 138t31.5 171.5q0 93 -31.5 172t-88 137.5t-135.5 91.5t-174 33zM755 211q0 -7 -7 -7h-93v-125q0 -7 -7 -7h-29q-7 0 -7 7v125h-263q-6 0 -6 6v7q0 4 3 8l207 393q3 4 7 4h33q11 0 6 -10
l-203 -369h216v126q0 7 7 7h29q7 0 7 -7v-126h93q7 0 7 -7v-25z" />
    <glyph glyph-name="uni2464" unicode="&#x2464;" 
d="M560 818q100 0 185.5 -35.5t148 -98t98 -148t35.5 -186.5q0 -100 -35.5 -186t-98 -148.5t-148 -98t-185.5 -35.5t-185.5 35.5t-148.5 98t-98.5 148.5t-35.5 186q0 101 35.5 186.5t98.5 148t148.5 98t185.5 35.5zM560 784q-95 0 -174 -33t-136 -91.5t-88.5 -137.5
t-31.5 -172q0 -92 31.5 -171.5t88.5 -138t136 -91.5t174 -33t174 33t135.5 91.5t88 138t31.5 171.5q0 93 -31.5 172t-88 137.5t-135.5 91.5t-174 33zM704 585q0 -7 -7 -7h-234l-13 -175h92q45 0 82 -10.5t63.5 -31t41.5 -52t15 -73.5q0 -39 -12 -71.5t-35.5 -56t-57 -36.5
t-76.5 -13q-67 0 -116.5 34.5t-66.5 99.5q-2 6 5 8l25 8q6 2 8 -4q12 -52 51 -79t95 -27q66 0 101 35.5t35 98.5q0 131 -164 131h-123q-7 0 -7 7l19 243q0 6 7 6h265q7 0 7 -7v-28z" />
    <glyph glyph-name="uni2465" unicode="&#x2465;" 
d="M560 818q100 0 185.5 -35.5t148 -98t98 -148t35.5 -186.5q0 -100 -35.5 -186t-98 -148.5t-148 -98t-185.5 -35.5t-185.5 35.5t-148.5 98t-98.5 148.5t-35.5 186q0 101 35.5 186.5t98.5 148t148.5 98t185.5 35.5zM560 784q-95 0 -174 -33t-136 -91.5t-88.5 -137.5
t-31.5 -172q0 -92 31.5 -171.5t88.5 -138t136 -91.5t174 -33t174 33t135.5 91.5t88 138t31.5 171.5q0 93 -31.5 172t-88 137.5t-135.5 91.5t-174 33zM608 622q6 0 8 -3t-2 -8l-146 -208q19 13 44 19.5t52 6.5q38 0 71 -13t57 -36.5t37.5 -56.5t13.5 -74q0 -42 -14.5 -76.5
t-40.5 -59t-61.5 -37.5t-78.5 -13q-42 0 -76.5 12.5t-59 35.5t-38.5 55.5t-14 72.5q0 34 10.5 68t29.5 63l168 248q1 4 6 4h34zM554 391q-35 0 -63 -11.5t-47.5 -31.5t-29.5 -47t-10 -59q0 -66 39.5 -102.5t105.5 -36.5q68 0 109 39t41 106q0 66 -40 104.5t-105 38.5z" />
    <glyph glyph-name="uni2466" unicode="&#x2466;" 
d="M560 818q100 0 185.5 -35.5t148 -98t98 -148t35.5 -186.5q0 -100 -35.5 -186t-98 -148.5t-148 -98t-185.5 -35.5t-185.5 35.5t-148.5 98t-98.5 148.5t-35.5 186q0 101 35.5 186.5t98.5 148t148.5 98t185.5 35.5zM560 784q-95 0 -174 -33t-136 -91.5t-88.5 -137.5
t-31.5 -172q0 -92 31.5 -171.5t88.5 -138t136 -91.5t174 -33t174 33t135.5 91.5t88 138t31.5 171.5q0 93 -31.5 172t-88 137.5t-135.5 91.5t-174 33zM401 551q-7 0 -7 7v27q0 7 7 7h327q6 0 6 -6v-9q0 -4 -2 -12l-214 -519q-1 -2 -3 -3t-4 -1h-32q-9 0 -6 9l214 500h-286z
" />
    <glyph glyph-name="uni2467" unicode="&#x2467;" 
d="M560 818q100 0 185.5 -35.5t148 -98t98 -148t35.5 -186.5q0 -100 -35.5 -186t-98 -148.5t-148 -98t-185.5 -35.5t-185.5 35.5t-148.5 98t-98.5 148.5t-35.5 186q0 101 35.5 186.5t98.5 148t148.5 98t185.5 35.5zM560 784q-95 0 -174 -33t-135.5 -91.5t-88 -137.5
t-31.5 -172q0 -92 31.5 -171.5t88 -138t135.5 -91.5t174 -33t174 33t135.5 91.5t88 138t31.5 171.5q0 93 -31.5 172t-88 137.5t-135.5 91.5t-174 33zM555 630q75 0 120.5 -36t45.5 -105q0 -48 -24.5 -83.5t-72.5 -50.5q57 -14 85.5 -52.5t28.5 -91.5q0 -70 -48 -110.5
t-135 -40.5q-88 0 -136 40.5t-48 110.5q0 53 29.5 91.5t86.5 52.5q-48 15 -73.5 50.5t-25.5 83.5q0 69 46 105t121 36zM555 592q-55 0 -88.5 -25.5t-33.5 -80.5q0 -57 34.5 -85t87.5 -28q52 0 87 28t35 85q0 55 -34 80.5t-88 25.5zM555 335q-30 0 -55 -7t-44 -21.5
t-29.5 -37t-10.5 -53.5q0 -60 39 -88t100 -28q60 0 99 28t39 88q0 31 -10.5 53.5t-29 37t-44 21.5t-54.5 7z" />
    <glyph glyph-name="uni2468" unicode="&#x2468;" 
d="M560 818q100 0 185.5 -35.5t148 -98t98 -148t35.5 -186.5q0 -100 -35.5 -186t-98 -148.5t-148 -98t-185.5 -35.5t-185.5 35.5t-148.5 98t-98.5 148.5t-35.5 186q0 101 35.5 186.5t98.5 148t148.5 98t185.5 35.5zM560 784q-95 0 -174 -33t-136 -91.5t-88.5 -137.5
t-31.5 -172q0 -92 31.5 -171.5t88.5 -138t136 -91.5t174 -33t174 33t135.5 91.5t88 138t31.5 171.5q0 93 -31.5 172t-88 137.5t-135.5 91.5t-174 33zM502 51q-12 0 -6 11l148 210q-19 -14 -44 -20.5t-52 -6.5q-38 0 -71 13t-57 36.5t-37.5 57t-13.5 74.5q0 42 14.5 76t40 58
t61 37.5t78.5 13.5q41 0 75.5 -12.5t59.5 -35.5t39 -55t14 -72q0 -35 -10 -69.5t-29 -62.5l-170 -250q-1 -3 -6 -3h-34zM557 281q36 0 64 12t46.5 32.5t28.5 48t10 58.5q0 66 -39 102.5t-104 36.5q-68 0 -109 -38.5t-41 -107.5q0 -67 39.5 -105.5t104.5 -38.5z" />
    <glyph glyph-name="uni24D5" unicode="&#x24d5;" horiz-adv-x="896" 
d="M448 725q81 0 150 -28.5t120 -79t80 -120t29 -151.5q0 -81 -29 -150.5t-80 -120t-120 -79t-150 -28.5t-150 28.5t-120 79t-80 120t-29 150.5q0 82 29 151.5t80 120t120 79t150 28.5zM448 695q-75 0 -138.5 -26.5t-109.5 -73.5t-71.5 -111t-25.5 -138t25.5 -137.5
t71.5 -110.5t109.5 -73.5t138.5 -26.5q76 0 139.5 26.5t109.5 73.5t71.5 110.5t25.5 137.5t-25.5 138t-71.5 111t-109.5 73.5t-139.5 26.5zM541 379q0 -7 -7 -7h-99v-251q0 -7 -7 -7h-20q-7 0 -7 7v251h-61q-6 0 -6 7v16q0 7 6 7h61v45q0 60 27.5 88.5t69.5 28.5
q25 0 45.5 -5.5t39.5 -14.5q7 -3 3 -9l-7 -15q-4 -6 -10 -3q-16 8 -32 12t-35 4q-26 0 -46.5 -19t-20.5 -70v-42h99q7 0 7 -7v-16z" />
    <glyph glyph-name="uni24E3" unicode="&#x24e3;" horiz-adv-x="896" 
d="M448 725q81 0 150 -28.5t120 -79t80 -120t29 -151.5q0 -81 -29 -150.5t-80 -120t-120 -79t-150 -28.5t-150 28.5t-120 79t-80 120t-29 150.5q0 82 29 151.5t80 120t120 79t150 28.5zM448 695q-75 0 -138.5 -26.5t-109.5 -73.5t-71.5 -111t-25.5 -138t25.5 -137.5
t71.5 -110.5t109.5 -73.5t138.5 -26.5q76 0 139.5 26.5t109.5 73.5t71.5 110.5t25.5 137.5t-25.5 138t-71.5 111t-109.5 73.5t-139.5 26.5zM430 531q7 0 7 -7v-78h94q7 0 7 -7v-17q0 -7 -7 -7h-94v-185q0 -27 9.5 -41t39.5 -14q11 0 23 3t24 10q8 3 11 -3l7 -15q2 -6 -3 -9
q-16 -8 -34.5 -13.5t-35.5 -5.5q-41 0 -58.5 22t-17.5 62v189h-63q-7 0 -7 7v17q0 7 7 7h66l12 80q2 5 7 5h6z" />
    <glyph glyph-name="uni24EA" unicode="&#x24ea;" 
d="M560 818q100 0 185.5 -35.5t148 -98t98 -148t35.5 -186.5q0 -100 -35.5 -186t-98 -148.5t-148 -98t-185.5 -35.5t-185.5 35.5t-148.5 98t-98.5 148.5t-35.5 186q0 101 35.5 186.5t98.5 148t148.5 98t185.5 35.5zM560 784q-95 0 -174 -33t-135.5 -91.5t-88 -137.5
t-31.5 -172q0 -92 31.5 -171.5t88 -138t135.5 -91.5t174 -33t174 33t135.5 91.5t88 138t31.5 171.5q0 93 -31.5 172t-88 137.5t-135.5 91.5t-174 33zM558 630q57 0 96.5 -24t64 -63.5t35 -90.5t10.5 -106t-10.5 -106.5t-35 -91.5t-64 -64t-96.5 -24t-96 24t-63.5 64
t-35.5 91.5t-11 106.5t11 106t35 90.5t63.5 63.5t96.5 24zM558 589q-46 0 -77 -20t-50 -54t-26.5 -78t-7.5 -91t7.5 -91.5t26.5 -78.5t50 -54.5t77 -20.5q47 0 78 20.5t49.5 54.5t26 78.5t7.5 91.5t-7.5 91t-26 78t-49.5 54t-78 20z" />
    <glyph glyph-name="uni24FF" unicode="&#x24ff;" 
d="M560 818q100 0 185.5 -35.5t148 -98t98 -148t35.5 -186.5q0 -100 -35.5 -186t-98 -148.5t-148 -98t-185.5 -35.5t-185.5 35.5t-148.5 98t-98.5 148.5t-35.5 186q0 101 35.5 186.5t98.5 148t148.5 98t185.5 35.5zM560 631q-57 0 -96.5 -24t-64 -63.5t-35.5 -90.5t-11 -106
t11 -106.5t35.5 -91.5t64 -64t96.5 -24t96.5 24t63.5 64t35 91.5t11 106.5t-10.5 106t-35 90.5t-64 63.5t-96.5 24zM560 591q47 0 78 -20.5t49 -54.5t25.5 -78t7.5 -91t-7.5 -91t-26 -78t-49 -54.5t-77.5 -20.5t-78 20.5t-49.5 54.5t-26 78t-7.5 91t7.5 91t26.5 78t50 54.5
t77 20.5z" />
    <glyph glyph-name="filledbox" unicode="&#x25a0;" horiz-adv-x="1089" 
d="M99 -100q-7 0 -7 7v886q0 7 7 7h891q7 0 7 -7v-886q0 -7 -7 -7h-891z" />
    <glyph glyph-name="uni25A1" unicode="&#x25a1;" horiz-adv-x="1089" 
d="M99 -100q-7 0 -7 7v886q0 7 7 7h891q7 0 7 -7v-886q0 -7 -7 -7h-891zM958 -64v828h-828v-828h828z" />
    <glyph glyph-name="uni25AA" unicode="&#x25aa;" horiz-adv-x="600" 
d="M179 222q-7 0 -7 7v242q0 7 7 7h242q7 0 7 -7v-242q0 -7 -7 -7h-242z" />
    <glyph glyph-name="triagup" unicode="&#x25b2;" horiz-adv-x="800" 
d="M92 50q-5 0 -7 3t1 7l308 578q7 12 12 0l308 -578q3 -4 1 -7t-7 -3h-616z" />
    <glyph glyph-name="uni25B6" unicode="&#x25b6;" horiz-adv-x="780" 
d="M110 41q-4 -3 -7 -1t-3 7v616q0 5 3 7t7 -1l578 -308q12 -5 0 -12z" />
    <glyph glyph-name="triagdn" unicode="&#x25bc;" horiz-adv-x="800" 
d="M708 630q13 0 6 -10l-308 -578q-5 -12 -12 0l-308 578q-7 10 6 10h616z" />
    <glyph glyph-name="uni25C0" unicode="&#x25c0;" horiz-adv-x="780" 
d="M680 47q0 -13 -10 -6l-578 308q-12 7 0 12l578 308q10 7 10 -6v-616z" />
    <glyph glyph-name="lozenge" unicode="&#x25ca;" horiz-adv-x="588" 
d="M540 350q1 -4 0 -7l-227 -390q-1 -3 -6 -3h-25q-4 0 -6 3l-228 390q-1 3 0 7l228 397q2 3 6 3h25q5 0 6 -3zM294 712l-203 -366l203 -357l204 357z" />
    <glyph glyph-name="circle" unicode="&#x25cb;" horiz-adv-x="1074" 
d="M538 818q100 0 185.5 -35.5t148 -98t98 -148t35.5 -186.5q0 -100 -35.5 -186t-98 -148.5t-148 -98t-185.5 -35.5t-186 35.5t-149 98t-98.5 148.5t-35.5 186q0 101 35.5 186.5t98.5 148t149 98t186 35.5zM538 784q-95 0 -174 -33t-135.5 -91.5t-88 -137.5t-31.5 -172
q0 -92 31.5 -171.5t88 -138t135.5 -91.5t174 -33t173.5 33t135 91.5t88 138t31.5 171.5q0 93 -31.5 172t-88 137.5t-135 91.5t-173.5 33z" />
    <glyph glyph-name="uni25CF" unicode="&#x25cf;" horiz-adv-x="1074" 
d="M538 818q100 0 185.5 -35.5t148 -98t98 -148t35.5 -186.5q0 -100 -35.5 -186t-98 -148.5t-148 -98t-185.5 -35.5t-186 35.5t-149 98t-98.5 148.5t-35.5 186q0 101 35.5 186.5t98.5 148t149 98t186 35.5z" />
    <glyph glyph-name="uni2605" unicode="&#x2605;" horiz-adv-x="977" 
d="M480 732q8 20 14 0l89 -274h293q20 0 4 -13l-236 -175l87 -279q3 -10 0 -12t-11 4l-233 175l-230 -175q-16 -11 -10 8l86 279l-236 175q-16 13 4 13h294z" />
    <glyph glyph-name="uni2606" unicode="&#x2606;" horiz-adv-x="1004" 
d="M493 755q8 19 14 0l92 -284h304q20 0 4 -13l-244 -181l89 -289q5 -21 -11 -8l-241 181l-238 -181q-8 -5 -11 -3.5t1 11.5l89 289l-244 181q-16 13 4 13h304zM425 441h-254l206 -153l-75 -240l198 152l202 -153l-75 241l205 153h-254l-78 241z" />
    <glyph glyph-name="uni261C" unicode="&#x261c;" horiz-adv-x="1113" 
d="M1015 439q5 0 5 -5v-15q0 -5 -5 -5h-235q-2 0 -4 2q-34 60 -87 83t-112 23q-25 0 -49 -3l-200 -25q-10 -2 -19.5 -6t-9.5 -17q0 -28 23 -40t69 -12q26 0 59 3t71 10q4 0 6 -2q12 -16 24.5 -31t29.5 -28.5t40 -24.5t56 -20q5 -2 4 -6l-6 -15q-2 -4 -6 -3q-34 9 -60 20.5
t-47 31.5q-2 -22 -22 -36q20 -5 31.5 -15t16.5 -32q4 -19 -5.5 -38.5t-32.5 -28.5q14 -3 25 -12.5t14 -27.5q5 -28 -11.5 -45t-41.5 -22l-24 -5q14 -3 30 -5t33 -2q29 0 59.5 5t59.5 14t54.5 22.5t44.5 29.5q1 1 3 1h219q5 0 5 -5v-16q0 -5 -5 -5h-210q-45 -35 -105 -52.5
t-121 -17.5q-67 0 -124 20l-29 -5q-28 -5 -50.5 3.5t-28.5 34.5q-5 16 0 29.5t13 21.5q-32 -1 -49.5 12.5t-22.5 36.5q-3 17 2.5 34t19.5 25q-21 1 -36 13.5t-20 31.5q-3 14 1 31t22 28l-143 -12q-36 -3 -56.5 12.5t-20.5 42.5t19.5 40.5t55.5 16.5l144 13q11 23 40 26
l211 28q12 2 24.5 3t24.5 1q63 0 120.5 -25t96.5 -84h222zM133 454q-26 -2 -37.5 -9.5t-11.5 -24.5q0 -34 51 -31l224 12q-82 3 -85 64zM332 371q-59 -9 -53 -48q3 -20 20 -26.5t46 -1.5l148 25q48 9 43 45q-2 14 -14 24t-46 5zM563 266q-3 20 -19 27t-49 1l-141 -25
q-26 -5 -35 -19t-7 -31q3 -15 17.5 -25.5t42.5 -5.5l143 26q29 5 40 19t8 33zM408 168q-26 -5 -33 -19t-4 -27q2 -13 14.5 -20.5t33.5 -3.5l108 21q25 5 31.5 17.5t4.5 26.5q-2 13 -15.5 20t-35.5 3z" />
    <glyph glyph-name="uni261D" unicode="&#x261d;" horiz-adv-x="637" 
d="M435 -195q0 -5 -5 -5h-15q-5 0 -5 5v272q0 2 2 4q36 21 58.5 49.5t34 61t13.5 67.5t-3 70l-25 200q-2 10 -6 19.5t-17 9.5q-28 0 -40 -23t-12 -69q0 -26 3 -59t10 -71q0 -4 -2 -6q-16 -12 -31 -24.5t-28.5 -29.5t-24.5 -40t-20 -56q-2 -6 -6 -3l-15 5q-4 2 -3 6
q9 35 20.5 60.5t31.5 46.5q-23 3 -36 22q-5 -20 -15 -31.5t-32 -16.5q-19 -4 -38.5 5.5t-28.5 32.5q-3 -14 -12.5 -25t-27.5 -14q-28 -5 -45 11.5t-22 41.5l-5 24q-7 -33 -6 -71.5t9.5 -77t24 -73.5t36.5 -59q1 -1 1 -3v-256q0 -5 -5 -5h-16q-5 0 -5 5v247q-27 35 -43.5 79
t-22.5 91t-2 94t18 87l-5 28q-5 28 3.5 50.5t34.5 28.5q16 5 29.5 0.5t21.5 -12.5q-1 32 12.5 49t36.5 22q17 4 34 -2t25 -20q1 21 13.5 36t31.5 20q14 3 31 -1t28 -22l-12 143q-3 36 12.5 56.5t42.5 20.5t40.5 -19t16.5 -55l13 -145q23 -11 26 -40l28 -211q5 -37 2.5 -74.5
t-15 -72.5t-35 -65.5t-57.5 -53.5v-259zM450 724q-2 26 -10 38t-25 11q-33 0 -30 -51l12 -224q3 82 64 86zM367 525q-9 59 -48 53q-20 -3 -26.5 -20t-1.5 -46l25 -148q9 -48 45 -43q14 2 24 14t5 46zM262 294q20 4 27 19.5t1 48.5l-25 141q-5 26 -19 35t-31 7
q-15 -3 -25.5 -17.5t-5.5 -42.5l26 -143q5 -29 19 -40t33 -8zM164 449q-5 26 -19 33t-27 4q-13 -2 -20.5 -14.5t-3.5 -33.5l21 -107q5 -26 17.5 -32.5t26.5 -4.5q13 2 20 15.5t3 35.5z" />
    <glyph glyph-name="uni261E" unicode="&#x261e;" horiz-adv-x="1113" 
d="M284 439q39 59 96.5 84t120.5 25q13 0 25 -1t25 -3l210 -28q31 -3 40 -26l145 -13q36 -3 55 -16.5t19 -40.5t-20.5 -42.5t-56.5 -12.5l-143 12q18 -11 22 -28t1 -31q-5 -19 -19.5 -31.5t-36.5 -13.5q14 -8 20 -25t2 -34q-5 -23 -22 -36.5t-49 -12.5q8 -8 12.5 -21.5
t0.5 -29.5q-7 -26 -29 -34.5t-50 -3.5l-29 5q-57 -20 -124 -20q-61 0 -121.5 17.5t-105.5 52.5h-210q-5 0 -5 5v16q0 5 5 5h219q3 0 4 -1q38 -33 98 -52t120 -19q17 0 32.5 2t30.5 5l-24 5q-26 5 -42.5 22t-11.5 45q3 18 14.5 27.5t25.5 12.5q-23 9 -32.5 28.5t-5.5 38.5
q5 22 16.5 32t30.5 15q-19 13 -21 36q-22 -20 -47.5 -31.5t-60.5 -20.5q-4 -1 -6 3l-5 15q-1 4 3 6q33 9 56 20t40.5 24.5t30 28.5t24.5 31q2 2 5 2q38 -7 71 -10t59 -3q46 0 69.5 12t23.5 40q0 13 -10 17t-19 6l-200 25q-24 3 -49 3q-59 0 -112 -23t-87 -83q-2 -2 -4 -2
h-236q-5 0 -5 5v15q0 5 5 5h222zM804 465q-4 -61 -85 -64l223 -12q51 -3 51 31q0 17 -11 24.5t-37 9.5zM601 394q-33 5 -45.5 -5t-14.5 -24q-5 -36 43 -45l148 -25q29 -5 46.5 1.5t20.5 26.5t-11 31.5t-43 16.5zM515 266q-3 -19 7.5 -33t40.5 -19l143 -26q28 -5 42.5 5.5
t16.5 25.5q3 17 -6.5 31t-35.5 19l-141 25q-32 6 -48 -1t-19 -27zM565 186q-22 4 -35 -3t-15 -20q-2 -14 4.5 -26.5t31.5 -17.5l108 -21q21 -4 33 3.5t15 20.5t-4 27t-33 19z" />
    <glyph glyph-name="uni261F" unicode="&#x261f;" horiz-adv-x="637" 
d="M435 536q35 -23 57.5 -53.5t35 -65.5t15 -72.5t-2.5 -74.5l-28 -211q-3 -29 -26 -40l-13 -145q-3 -36 -16.5 -55t-40.5 -19t-42.5 20.5t-12.5 56.5l12 143q-11 -18 -28 -22t-31 -1q-19 5 -31.5 20t-13.5 36q-8 -14 -25 -19.5t-34 -2.5q-23 5 -36.5 22.5t-12.5 49.5
q-8 -8 -21.5 -13t-29.5 0q-26 6 -34.5 28.5t-3.5 50.5l5 29q-14 40 -18 86.5t2 93.5t22.5 91t43.5 79v210q0 5 5 5h16q5 0 5 -5v-219q0 -2 -1 -3q-21 -24 -36.5 -59t-24 -73.5t-9.5 -77t6 -71.5l5 24q5 25 22 41.5t45 11.5q18 -3 27.5 -14t12.5 -25q9 23 28.5 32.5t38.5 5.5
q22 -5 32 -16.5t15 -31.5q13 19 36 22q-20 21 -31.5 47t-20.5 60q-1 4 3 6l15 6q4 1 6 -4q9 -33 20 -56t24.5 -40t28.5 -29.5t31 -24.5q2 -2 2 -6q-7 -38 -10 -71t-3 -59q0 -46 12 -69t40 -23q13 0 17 9.5t6 19.5l25 200q5 35 3 70t-13.5 67.5t-34 61t-58.5 49.5q-2 2 -2 4
v235q0 5 5 5h15q5 0 5 -5v-222zM262 306q-19 3 -33 -8t-19 -40l-26 -143q-5 -28 5.5 -42.5t25.5 -17.5q17 -2 31 7t19 35l25 141q6 33 -1 49t-27 19zM182 255q4 22 -3 35.5t-20 15.5q-14 2 -26.5 -4.5t-17.5 -32.5l-21 -107q-4 -21 3.5 -33.5t20.5 -14.5q13 -3 27 4t19 33z
M390 219q5 34 -5 46t-24 14q-36 5 -45 -43l-25 -148q-5 -29 1.5 -46t26.5 -20q39 -6 48 53zM461 16q-61 4 -64 86l-12 -224q-3 -51 30 -51q17 -1 25 11t10 38z" />
    <glyph glyph-name="uni2630" unicode="&#x2630;" horiz-adv-x="825" 
d="M99 632q-7 0 -7 7v27q0 6 7 6h626q7 0 7 -6v-27q0 -7 -7 -7h-626zM99 364q-7 0 -7 7v27q0 7 7 7h626q7 0 7 -7v-27q0 -7 -7 -7h-626zM99 96q-7 0 -7 7v26q0 7 7 7h626q7 0 7 -7v-26q0 -7 -7 -7h-626z" />
    <glyph glyph-name="uni2639" unicode="&#x2639;" horiz-adv-x="893" 
d="M447 722q80 0 149 -29t119.5 -79.5t79.5 -119.5t29 -149q0 -79 -29 -148t-79.5 -120t-119.5 -80t-149 -29t-149 29t-120 80t-80 120t-29 148q0 80 29 149t80 119.5t120 79.5t149 29zM447 692q-75 0 -138.5 -27t-109.5 -74t-72 -110.5t-26 -135.5t26 -135.5t72 -110.5
t109.5 -74t138.5 -27t138 27t109 74t72 110.5t26 135.5t-26 135.5t-72 110.5t-109 74t-138 27zM332 479q23 0 37 -13.5t14 -36.5q0 -22 -14 -35.5t-37 -13.5q-22 0 -36 13.5t-14 35.5q0 23 14 36.5t36 13.5zM560 479q21 0 35 -13.5t14 -36.5q0 -22 -14 -35.5t-35 -13.5
q-23 0 -37.5 13.5t-14.5 35.5q0 23 14.5 36.5t37.5 13.5zM446 243q-63 0 -106.5 -29t-67.5 -66q-4 -7 -10 -2l-12 8q-3 5 -1 9q13 19 31 38t42.5 34.5t55 25t68.5 9.5t68.5 -9.5t54.5 -25t42 -34.5t31 -38q3 -4 -1 -9l-11 -8q-6 -5 -10 2q-25 37 -68 66t-106 29z" />
    <glyph glyph-name="smileface" unicode="&#x263a;" horiz-adv-x="893" 
d="M447 722q80 0 149 -29t119.5 -79.5t79.5 -119.5t29 -149q0 -79 -29 -148t-79.5 -120t-119.5 -80t-149 -29t-149 29t-120 80t-80 120t-29 148q0 80 29 149t80 119.5t120 79.5t149 29zM447 692q-75 0 -138.5 -27t-109.5 -74t-72 -110.5t-26 -135.5t26 -135.5t72 -110.5
t109.5 -74t138.5 -27t138 27t109 74t72 110.5t26 135.5t-26 135.5t-72 110.5t-109 74t-138 27zM332 479q23 0 37 -13.5t14 -36.5q0 -22 -14 -35.5t-37 -13.5q-22 0 -36 13.5t-14 35.5q0 23 14 36.5t36 13.5zM560 479q21 0 35 -13.5t14 -36.5q0 -22 -14 -35.5t-35 -13.5
q-23 0 -37.5 13.5t-14.5 35.5q0 23 14.5 36.5t37.5 13.5zM446 168q63 0 106 28.5t68 66.5q5 6 10 2l11 -8q3 -5 1 -10q-13 -19 -31 -38t-42 -34t-54.5 -24.5t-68.5 -9.5t-68.5 9.5t-55 24.5t-42.5 34t-31 38q-2 5 1 10l12 8q5 5 10 -2q24 -38 67.5 -66.5t106.5 -28.5z" />
    <glyph glyph-name="invsmileface" unicode="&#x263b;" horiz-adv-x="876" 
d="M438 716q80 0 147.5 -29t117 -79t77 -117.5t27.5 -145.5q0 -77 -27.5 -144.5t-77 -118t-117 -79.5t-147.5 -29q-79 0 -147 29t-117 79.5t-77 118t-28 144.5q0 78 28 145.5t77 117.5t117 79t147 29zM324 479q-22 0 -36.5 -13.5t-14.5 -36.5q0 -22 14.5 -35.5t36.5 -13.5
t36 13.5t14 35.5q0 23 -14 36.5t-36 13.5zM551 479q-23 0 -37 -13.5t-14 -36.5q0 -22 14 -35.5t37 -13.5q21 0 35.5 13.5t14.5 35.5q0 23 -14.5 36.5t-35.5 13.5zM437 168q-33 0 -60.5 8.5t-49.5 22.5t-39 32.5t-29 38.5l-22 -17q12 -19 30.5 -39t43.5 -36.5t56 -26.5
t70 -10t70.5 10t56.5 26.5t43 36.5t31 39l-23 17q-12 -20 -29 -38.5t-39 -32.5t-49.5 -22.5t-60.5 -8.5z" />
    <glyph glyph-name="spade" unicode="&#x2660;" horiz-adv-x="807" 
d="M619 456q38 -37 61.5 -79.5t23.5 -90.5q0 -66 -40 -104.5t-109 -38.5q-29 0 -52 9.5t-39.5 26t-27.5 38t-16 46.5h-7q0 -49 5.5 -87.5t14 -69t19.5 -54t23 -41.5q4 -5 2 -8t-8 -3h-132q-13 0 -6 11q12 18 23 41.5t19.5 54t14 69t5.5 87.5h-7q-5 -25 -15.5 -46.5t-27 -38
t-39.5 -26t-52 -9.5q-69 0 -109 38.5t-40 104.5q0 48 23.5 90.5t61.5 79.5l209 202q2 2 6.5 2t6.5 -2z" />
    <glyph glyph-name="club" unicode="&#x2663;" horiz-adv-x="760" 
d="M69 317q0 33 11 60.5t30.5 47t47 30t60.5 10.5q5 0 14.5 -1.5t14.5 -2.5q-7 13 -11.5 28t-4.5 31q0 67 41 107.5t108 40.5q66 0 107 -40.5t41 -107.5q0 -16 -5 -31.5t-12 -28.5q6 1 15.5 3t16.5 2q67 0 107 -41t40 -107q0 -68 -40 -108.5t-107 -40.5q-68 0 -106 40.5
t-38 108.5h-9q0 -49 5.5 -95.5t14.5 -86t20 -71.5t23 -52q7 -12 -6 -12h-133q-12 0 -7 12q12 20 24 52t21 71.5t14.5 86t5.5 95.5h-9q0 -68 -39 -108.5t-106 -40.5t-108 40.5t-41 108.5z" />
    <glyph glyph-name="heart" unicode="&#x2665;" horiz-adv-x="782" 
d="M160 267q-41 39 -66 84.5t-25 96.5q0 71 43 112t117 41q31 0 56.5 -10t45 -27.5t33 -41t19.5 -49.5h15q6 26 19 49.5t32.5 41t45.5 27.5t57 10q74 0 117 -41t43 -112q0 -51 -25.5 -96t-66.5 -85l-222 -217q-8 -6 -14 0z" />
    <glyph glyph-name="diamond" unicode="&#x2666;" horiz-adv-x="626" 
d="M72 295q-5 5 0 10q39 41 71 79t60.5 76.5t53.5 79t49 87.5q2 3 7 3t7 -3q24 -47 49 -87.5t53.5 -79t61 -76.5t71.5 -79q3 -5 0 -10q-39 -41 -71.5 -79t-61 -76.5t-53.5 -79t-49 -87.5q-2 -3 -7 -3t-7 3q-24 47 -49 87.5t-53.5 79t-60.5 76.5t-71 79z" />
    <glyph glyph-name="uni2706" unicode="&#x2706;" horiz-adv-x="896" 
d="M448 725q81 0 150 -28.5t120 -79t80 -120t29 -151.5q0 -81 -29 -150.5t-80 -120t-120 -79t-150 -28.5t-150 28.5t-120 79t-80 120t-29 150.5q0 82 29 151.5t80 120t120 79t150 28.5zM448 695q-75 0 -138.5 -26.5t-109.5 -73.5t-71.5 -111t-25.5 -138t25.5 -137.5
t71.5 -110.5t109.5 -73.5t138.5 -26.5q76 0 139.5 26.5t109.5 73.5t71.5 110.5t25.5 137.5t-25.5 138t-71.5 111t-109.5 73.5t-139.5 26.5zM323 135q-3 -2 -7 0q-19 12 -35 27t-25.5 32.5t-11 38t7.5 44.5q33 83 90 156.5t129 128.5q22 16 54 16q26 0 51 -10t45 -29
q2 -4 1 -6q-10 -28 -33 -57t-53 -52q-3 -3 -8 -1l-45 30q-57 -24 -85 -62t-37 -98l42 -40q3 -2 3 -8q-14 -34 -37 -63.5t-46 -46.5zM576 394q-3 -2 -8 1l-15 11q-7 6 0 11q50 43 79 97q6 8 12 2l13 -13q3 -3 2 -6q-10 -28 -32 -55.5t-51 -47.5zM367 106q-3 -2 -7 0l-18 11
q-7 4 -1 12q23 21 42 46.5t31 54.5q5 9 11 3l16 -14q4 -2 2 -7q-8 -28 -29 -57t-47 -49z" />
    <glyph glyph-name="uni2709" unicode="&#x2709;" horiz-adv-x="1050" 
d="M99 0q-7 0 -7 7v595q0 7 7 7h852q7 0 7 -7v-595q0 -7 -7 -7h-852zM527 263l382 316h-768zM417 316l-294 242v-512zM635 315l291 -268v511zM440 298l-292 -268h755l-292 266l-84 -69z" />
    <glyph glyph-name="uni2713" unicode="&#x2713;" horiz-adv-x="670" 
d="M74 404q-5 5 3 9l24 12q7 3 10 -3l194 -331l253 540q3 6 10 4l25 -11q7 -3 3 -10l-271 -562q-1 -4 -7 -4h-27q-4 0 -6 3z" />
    <glyph glyph-name="uni2715" unicode="&#x2715;" horiz-adv-x="714" 
d="M619 591q5 -4 0 -9l-234 -234l235 -234q5 -4 0 -9l-19 -19q-5 -5 -9 0l-235 233l-234 -233q-5 -5 -10 0l-18 19q-2 2 -2 4.5t2 4.5l234 234l-234 233q-4 5 0 9l19 19q5 4 9 0l234 -234l235 235q4 4 9 -1z" />
    <glyph glyph-name="uni275B" unicode="&#x275b;" horiz-adv-x="483" 
d="M239 289q-35 0 -65 12t-51.5 35t-33.5 56t-12 76q0 56 14.5 108.5t47 94.5t84 71t125.5 39q7 0 8 -4l6 -18q3 -9 -6 -9q-38 -3 -76.5 -17t-70 -39t-53.5 -62.5t-28 -88.5q9 15 24 26t32 17.5t34 10t31 3.5q70 0 114 -39.5t44 -110.5q0 -35 -11.5 -64.5t-33 -51t-53 -33.5
t-70.5 -12z" />
    <glyph glyph-name="uni275C" unicode="&#x275c;" horiz-adv-x="483" 
d="M245 775q35 0 65 -12t51.5 -35t33.5 -56t12 -76q0 -56 -14.5 -108.5t-47 -94.5t-84 -71t-125.5 -39q-6 0 -8 4l-6 18q-3 9 6 9q38 3 76.5 17t70 39.5t53.5 62.5t28 88q-10 -15 -25 -26t-31.5 -17.5t-33.5 -10t-31 -3.5q-70 0 -114 39.5t-44 110.5q0 35 11.5 64.5t33 51
t53 33.5t70.5 12z" />
    <glyph glyph-name="uni275D" unicode="&#x275d;" horiz-adv-x="851" 
d="M605 289q-35 0 -65 12t-51.5 35t-33.5 56t-12 76q0 56 14.5 108.5t47 94.5t84.5 71t126 39q5 0 8 -4l5 -18q3 -9 -6 -9q-38 -3 -75.5 -17t-69 -39t-53.5 -62t-28 -88q9 15 24 25.5t31.5 17t33.5 10t30 3.5q70 0 114.5 -39.5t44.5 -110.5q0 -35 -11.5 -64.5t-33.5 -51
t-53.5 -33.5t-70.5 -12zM239 289q-35 0 -65 12t-51.5 35t-33.5 56t-12 76q0 56 14.5 108.5t47 94.5t84 71t125.5 39q7 0 8 -4l6 -18q3 -9 -6 -9q-38 -3 -76.5 -17t-70 -39t-53.5 -62.5t-28 -88.5q9 15 24 26t32 17.5t34 10t31 3.5q70 0 114 -39.5t44 -110.5
q0 -35 -11.5 -64.5t-33 -51t-53 -33.5t-70.5 -12z" />
    <glyph glyph-name="uni275E" unicode="&#x275e;" horiz-adv-x="851" 
d="M136 283q-5 -1 -8 4l-6 18q-3 9 6 9q38 3 76.5 17t70 39.5t53.5 62.5t28 88q-10 -15 -25 -26t-31.5 -17.5t-33.5 -10t-31 -3.5q-70 0 -114 39.5t-44 110.5q0 35 11.5 64.5t33 51t53 33.5t70.5 12q35 0 65 -12t51.5 -35t33.5 -56t12 -76q0 -56 -14.5 -108.5t-47 -95
t-84 -71.5t-125.5 -38zM502 283q-2 -1 -4.5 0.5t-3.5 3.5l-5 18q-3 9 5 9q38 3 76 17t69.5 39t54 62t28.5 88q-10 -15 -25 -25.5t-31.5 -17t-33.5 -10t-31 -3.5q-70 0 -114 39.5t-44 110.5q0 35 11.5 64.5t33 51t53 33.5t70.5 12q35 0 65 -12t52 -35t34 -56t12 -76
q0 -56 -14.5 -108.5t-47 -95t-84.5 -71.5t-126 -38z" />
    <glyph glyph-name="uni275F" unicode="&#x275f;" horiz-adv-x="483" 
d="M245 311q35 0 65 -12t51.5 -35t33.5 -56t12 -76q0 -56 -14.5 -108.5t-47 -94.5t-84 -71t-125.5 -39q-7 0 -8 4l-6 18q-3 9 6 9q38 3 76.5 17t70 39t53.5 62.5t28 88.5q-10 -15 -25 -26t-31.5 -17.5t-33.5 -10t-31 -3.5q-70 0 -114 39.5t-44 110.5q0 35 11.5 64.5t33 51
t53 33.5t70.5 12z" />
    <glyph glyph-name="uni2760" unicode="&#x2760;" horiz-adv-x="851" 
d="M245 311q35 0 65 -12t51.5 -35t33.5 -56t12 -76q0 -56 -14.5 -108.5t-47 -95t-84 -71.5t-125.5 -38q-7 0 -8 4l-6 18q-3 9 6 9q38 3 76.5 17t70 39t53.5 62.5t28 88.5q-10 -15 -25 -26t-31.5 -17.5t-33.5 -10t-31 -3.5q-70 0 -114 39.5t-44 110.5q0 35 11.5 64.5t33 51
t53 33.5t70.5 12zM611 311q35 0 65 -12t52 -35t34 -56t12 -76q0 -56 -14.5 -108.5t-47 -94.5t-84.5 -71t-126 -39q-7 0 -8 4l-5 18q-3 9 5 9q38 3 76 17t69.5 39t54 62t28.5 88q-10 -15 -25 -25.5t-31.5 -17t-33.5 -10t-31 -3.5q-70 0 -114 39.5t-44 110.5q0 35 11.5 64.5
t33 51t53 33.5t70.5 12z" />
    <glyph glyph-name="uni2766" unicode="&#x2766;" horiz-adv-x="730" 
d="M373 338q23 47 42 91t32 83q-38 15 -72.5 36.5t-67 41t-63.5 33.5t-61 14q-42 0 -64 -19t-22 -51q-1 -18 7 -39t29 -44q6 -6 0 -11l-10 -7q-4 -4 -9 1q-25 25 -35 50t-9 53q1 39 29 65t79 26q32 0 61 -10.5t58 -25.5q26 48 56 67t56 19q41 0 61 -25.5t20 -69.5
q0 -39 -14 -89q18 -6 37 -9.5t39 -3.5q38 0 59 18t24 44q5 44 -41 74q-7 3 -2 9l6 9q4 6 9 2q29 -20 42 -43.5t11 -49.5q-2 -36 -30 -61.5t-78 -25.5q-43 0 -83 14q-13 -42 -32.5 -86.5t-43.5 -89.5l6 -4q23 43 57 67t68 24q45 0 75.5 -26t30.5 -80q0 -40 -16.5 -67.5
t-41 -47t-53.5 -33.5t-53.5 -27t-41 -27.5t-16.5 -35.5q0 -22 13 -34.5t40 -12.5q42 0 73 18.5t52 49.5q3 7 8 3l3 -1q4 -3 1 -9q-28 -47 -71.5 -72t-100.5 -25q-62 0 -111 25t-83.5 66t-52.5 92.5t-18 103.5q0 44 9.5 75t26 51t38.5 29.5t46 9.5q15 0 31 -5.5t29 -17.5
t21 -30.5t6 -45.5zM317 613q33 -20 66.5 -41.5t69.5 -35.5q14 48 14 81q0 70 -58 70q-29 0 -52 -21t-40 -53z" />
    <glyph glyph-name="uni2767" unicode="&#x2767;" horiz-adv-x="834" 
d="M467 330q-49 23 -72 57t-23 63q0 41 25.5 67.5t70.5 26.5q35 0 60 -14.5t43.5 -36.5t32 -47t26.5 -47t27 -36.5t32 -14.5q43 0 43 52q0 35 -17.5 61t-46.5 46q-7 4 -4 9l2 3q4 5 10 0q44 -30 66.5 -67t22.5 -86q0 -57 -23.5 -104t-61 -80.5t-85 -52t-95.5 -18.5
q-80 0 -117 29t-37 73q0 18 7.5 35t21.5 29.5t33 18.5t42 2l2 5q-38 20 -83 31t-90 11q-21 0 -39 -3q18 -31 31.5 -65t13.5 -73q0 -33 -9 -57t-24 -39.5t-34 -23t-40 -7.5q-22 0 -42 8.5t-35 24.5t-23.5 39t-8.5 53q0 33 10.5 58.5t28.5 45t42 33t52 20.5q-22 38 -40 75.5
t-18 79.5q0 25 8 43.5t21 31t30 18.5t36 6q22 0 44 -8t41 -25q4 -4 1 -9l-7 -9q-4 -6 -11 -1q-34 28 -69 28q-29 0 -49.5 -19.5t-20.5 -54.5q0 -41 18.5 -77t41.5 -74q12 2 24.5 3t25.5 1q45 0 91.5 -10.5t94.5 -33.5zM214 337q-53 -12 -86 -44t-33 -86q0 -51 24 -78t59 -27
q32 0 57 25t25 78q0 35 -13.5 67.5t-32.5 64.5z" />
    <glyph glyph-name="uni2776" unicode="&#x2776;" 
d="M560 818q100 0 185.5 -35.5t148 -98t98 -148t35.5 -186.5q0 -100 -35.5 -186t-98 -148.5t-148 -98t-185.5 -35.5t-185.5 35.5t-148.5 98t-98.5 148.5t-35.5 186q0 101 35.5 186.5t98.5 148t148.5 98t185.5 35.5zM576 616h-2q-3 0 -4 -1l-158 -50q-7 -3 -4 -10l6 -23
q3 -6 10 -5l126 43v-497q0 -7 7 -7h28q7 0 7 7v537q0 6 -6 6h-10z" />
    <glyph glyph-name="uni2777" unicode="&#x2777;" 
d="M560 818q100 0 185.5 -35.5t148 -98t98 -148t35.5 -186.5q0 -100 -35.5 -186t-98 -148.5t-148 -98t-185.5 -35.5t-185.5 35.5t-148.5 98t-98.5 148.5t-35.5 186q0 101 35.5 186.5t98.5 148t148.5 98t185.5 35.5zM417 488q14 52 51.5 79t95.5 27q54 0 87 -25.5t33 -79.5
q0 -41 -20.5 -78t-67.5 -87l-218 -232q-2 -2 -2 -4v-9q0 -6 6 -6h341q7 0 7 7v26q0 7 -7 7h-278l182 188q56 57 78 100.5t22 89.5q0 70 -44.5 106t-116.5 36q-73 0 -121 -35t-65 -98q-2 -5 5 -9l24 -8q6 -2 8 5z" />
    <glyph glyph-name="uni2778" unicode="&#x2778;" 
d="M560 818q100 0 185.5 -35.5t148 -98t98 -148t35.5 -186.5q0 -100 -35.5 -186t-98 -148.5t-148 -98t-185.5 -35.5t-185.5 35.5t-148.5 98t-98.5 148.5t-35.5 186q0 101 35.5 186.5t98.5 148t148.5 98t185.5 35.5zM561 334q73 0 105 -32.5t32 -84.5q0 -57 -36 -87.5
t-98 -30.5q-60 0 -101.5 28t-55.5 79q-3 6 -9 5l-25 -8q-6 -3 -5 -9q17 -64 69.5 -99t125.5 -35q81 0 130.5 42.5t49.5 114.5q0 54 -29.5 90t-82.5 47q43 14 71.5 51.5t28.5 88.5q0 62 -44 99t-123 37q-75 0 -123.5 -34.5t-65.5 -99.5q-2 -6 6 -8l24 -7q5 -2 9 4
q12 51 50 79t98 28q58 0 91 -27t33 -76q0 -24 -8.5 -45.5t-24.5 -38t-39 -26t-53 -9.5h-68q-7 0 -7 -7v-22q0 -7 7 -7h68z" />
    <glyph glyph-name="uni2779" unicode="&#x2779;" 
d="M560 818q100 0 185.5 -35.5t148 -98t98 -148t35.5 -186.5q0 -100 -35.5 -186t-98 -148.5t-148 -98t-185.5 -35.5t-185.5 35.5t-148.5 98t-98.5 148.5t-35.5 186q0 101 35.5 186.5t98.5 148t148.5 98t185.5 35.5zM753 236q0 7 -7 7h-93v126q0 7 -7 7h-28q-7 0 -7 -7v-126
h-216l202 369q3 5 1.5 7.5t-6.5 2.5h-33q-6 0 -7 -4l-208 -394q-2 -2 -2 -6v-8q0 -6 6 -6h263v-125q0 -7 7 -7h28q7 0 7 7v125h93q7 0 7 7v25z" />
    <glyph glyph-name="uni277A" unicode="&#x277a;" 
d="M560 818q100 0 185.5 -35.5t148 -98t98 -148t35.5 -186.5q0 -100 -35.5 -186t-98 -148.5t-148 -98t-185.5 -35.5t-185.5 35.5t-148.5 98t-98.5 148.5t-35.5 186q0 101 35.5 186.5t98.5 148t148.5 98t185.5 35.5zM704 613q0 7 -7 7h-266q-6 0 -6 -6l-19 -243q-1 -3 1.5 -5
t5.5 -2h123q163 0 163 -131q0 -63 -35 -98.5t-101 -35.5q-55 0 -94 27t-52 79q-2 5 -8 4l-24 -8q-8 -2 -6 -8q17 -65 66.5 -99.5t117.5 -34.5q43 0 76.5 13t56.5 36.5t35 56t12 71.5q0 42 -14.5 73.5t-41 52t-63.5 31t-82 10.5h-92l13 175h234q7 0 7 7v28z" />
    <glyph glyph-name="uni277B" unicode="&#x277b;" 
d="M560 818q100 0 185.5 -35.5t148 -98t98 -148t35.5 -186.5q0 -100 -35.5 -186t-98 -148.5t-148 -98t-185.5 -35.5t-185.5 35.5t-148.5 98t-98.5 148.5t-35.5 186q0 101 35.5 186.5t98.5 148t148.5 98t185.5 35.5zM575 622q-5 0 -6 -4l-168 -248q-19 -29 -29.5 -63
t-10.5 -68q0 -40 14 -72.5t39 -55.5t59.5 -35.5t75.5 -12.5q43 0 78.5 13t61.5 37.5t40.5 59t14.5 76.5q0 41 -13.5 74t-37.5 56.5t-57 36.5t-71 13q-27 0 -52 -6.5t-44 -19.5l147 209q3 4 1.5 7t-7.5 3h-35zM555 391q66 0 105.5 -38.5t39.5 -104.5q0 -67 -41 -106t-109 -39
q-66 0 -105.5 36.5t-39.5 102.5q0 32 10 59t29.5 47t47.5 31.5t63 11.5z" />
    <glyph glyph-name="uni277C" unicode="&#x277c;" 
d="M560 818q100 0 185.5 -35.5t148 -98t98 -148t35.5 -186.5q0 -100 -35.5 -186t-98 -148.5t-148 -98t-185.5 -35.5t-185.5 35.5t-148.5 98t-98.5 148.5t-35.5 186q0 101 35.5 186.5t98.5 148t148.5 98t185.5 35.5zM688 551l-214 -500q-4 -9 6 -9h32q2 0 4 1t3 3l214 519
q2 8 2 12v9q0 6 -6 6h-327q-7 0 -7 -7v-27q0 -7 7 -7h286z" />
    <glyph glyph-name="uni277D" unicode="&#x277d;" 
d="M560 818q100 0 185.5 -35.5t148 -98t98 -148t35.5 -186.5q0 -100 -35.5 -186t-98 -148.5t-148 -98t-185.5 -35.5t-185.5 35.5t-148.5 98t-98.5 148.5t-35.5 186q0 101 35.5 186.5t98.5 148t148.5 98t185.5 35.5zM555 630q-75 0 -120.5 -36t-45.5 -105q0 -48 25 -83.5
t73 -50.5q-57 -14 -86 -52.5t-29 -91.5q0 -70 48 -110.5t135 -40.5q88 0 136 40.5t48 110.5q0 53 -29 91.5t-86 52.5q48 15 73 50.5t25 83.5q0 69 -46 105t-121 36zM555 591q55 0 88.5 -25t33.5 -80q0 -57 -35 -85t-87 -28t-87 28t-35 85q0 55 34 80t88 25zM555 335
q30 0 55 -7t44 -21.5t29.5 -37t10.5 -53.5q0 -60 -39 -88t-100 -28q-60 0 -99 28t-39 88q0 31 10.5 53.5t29 37t44 21.5t54.5 7z" />
    <glyph glyph-name="uni277E" unicode="&#x277e;" 
d="M560 818q100 0 185.5 -35.5t148 -98t98 -148t35.5 -186.5q0 -100 -35.5 -186t-98 -148.5t-148 -98t-185.5 -35.5t-185.5 35.5t-148.5 98t-98.5 148.5t-35.5 186q0 101 35.5 186.5t98.5 148t148.5 98t185.5 35.5zM536 51q5 0 6 3l169 250q19 28 29 62.5t10 69.5
q0 40 -14 72t-39 55t-59.5 35.5t-75.5 12.5q-43 0 -78.5 -13.5t-61 -37.5t-39.5 -58t-14 -76q0 -41 13.5 -74.5t37.5 -57t57 -36.5t71 -13q27 0 51.5 6.5t43.5 20.5l-147 -210q-8 -11 5 -11h35zM557 281q-66 0 -105 38.5t-39 105.5q0 69 41 107.5t108 38.5q66 0 105 -36.5
t39 -102.5q0 -31 -10 -58.5t-29 -48t-46.5 -32.5t-63.5 -12z" />
    <glyph glyph-name="uni2B51" unicode="&#x2b51;" horiz-adv-x="581" 
d="M497 404q20 0 4 -13l-125 -92l45 -145q6 -21 -11 -8l-120 90l-119 -90q-8 -6 -11 -4t0 12l45 145l-124 92q-16 13 3 13h155l44 143q6 20 14 0l46 -143h154z" />
    <glyph glyph-name="uni2B52" unicode="&#x2b52;" horiz-adv-x="580" 
d="M494 404q20 0 4 -13l-123 -91l44 -145q6 -19 -10 -8l-119 91l-119 -91q-17 -12 -11 8l45 145l-123 91q-16 13 3 13h153l45 142q6 20 14 0l45 -142h152zM325 381l-35 110l-35 -110h-121l99 -72l-37 -115l94 76l94 -76l-37 115l99 72h-121z" />
    <glyph glyph-name="uni2B6E" unicode="&#x2b6e;" horiz-adv-x="909" 
d="M245 616q6 2 8 -4l81 -199q4 -7 -4 -9l-22 -9q-7 -2 -9 3l-57 148q-31 -38 -51 -88t-20 -118q0 -65 21 -121.5t60.5 -98t96.5 -65.5t129 -24q70 0 128.5 23t101 64t66 99.5t23.5 128.5q0 74 -25.5 136.5t-81.5 110.5q-5 7 1 11l19 18q5 4 9 0q57 -48 89 -119t32 -159
q0 -78 -26 -143.5t-73 -112.5t-114 -73.5t-149 -26.5q-81 0 -146 26.5t-110 73t-69 111t-24 140.5q0 69 18.5 123.5t50.5 98.5l-140 -41q-5 -1 -9 4l-9 22q-2 7 5 9z" />
    <glyph glyph-name="uni2B6F" unicode="&#x2b6f;" horiz-adv-x="909" 
d="M196 626q7 4 10 -1l17 -20q4 -5 0 -10q-58 -49 -84 -112.5t-26 -138.5q0 -70 23.5 -127.5t65.5 -98.5t100.5 -64t128.5 -23q72 0 129 24t96 66t60 99t21 124q0 65 -20 114.5t-50 87.5l-57 -148q-2 -5 -8 -3l-23 9q-6 1 -4 9l81 199q2 6 8 4l201 -61q6 -2 4 -9l-9 -22
q-2 -6 -9 -4l-140 41q32 -44 51 -97.5t19 -119.5q0 -78 -24 -143.5t-69.5 -112.5t-110.5 -73.5t-146 -26.5q-82 0 -149 26.5t-114 73.5t-73 112.5t-26 143.5q0 89 33.5 160.5t93.5 121.5z" />
    <glyph glyph-name="uniE000" unicode="&#xe000;" horiz-adv-x="597" 
d="M69 545q0 50 17 92.5t47.5 73t72.5 47.5t91 17q50 0 92.5 -17t73 -47.5t47.5 -73t17 -92.5q0 -49 -17 -91t-47.5 -72.5t-73 -47.5t-92.5 -17q-49 0 -91 17t-72.5 47.5t-47.5 72.5t-17 91zM104 545q0 -42 14.5 -77.5t40 -62t61 -41t77.5 -14.5q44 0 79.5 14.5t60.5 41
t39 62t14 77.5t-14 78t-39 62t-60.5 40.5t-79.5 14.5q-42 0 -77.5 -14.5t-61 -40.5t-40 -62t-14.5 -78zM353 612v-59h58v-60h-58v-58h-60v58h-60v-58h-59v177h59v-59h60v118h118v-59h-58z" />
    <glyph glyph-name="uniE001" unicode="&#xe001;" horiz-adv-x="695" 
d="M345 740q53 0 99.5 -17.5t81.5 -51.5t55.5 -84.5t20.5 -116.5q0 -70 -21 -136t-55 -126.5t-77.5 -116t-87.5 -104.5q-2 -2 -6 -2h-17q-3 0 -5 2q-44 49 -87.5 104.5t-77.5 116t-55 126.5t-21 136q0 66 20.5 116.5t55 84.5t80.5 51.5t97 17.5zM345 641q-65 0 -103 -41
t-38 -106q0 -64 38 -105t103 -41q64 0 102 41t38 105q0 65 -38 106t-102 41z" />
    <glyph glyph-name="uniE007" unicode="&#xe007;" horiz-adv-x="893" 
d="M447 722q80 0 149 -29t119.5 -79.5t79.5 -119.5t29 -149q0 -79 -29 -148t-79.5 -120t-119.5 -80t-149 -29t-149 29t-120 80t-80 120t-29 148q0 80 29 149t80 119.5t120 79.5t149 29zM447 692q-75 0 -138.5 -27t-109.5 -74t-72 -110.5t-26 -135.5t26 -135.5t72 -110.5
t109.5 -74t138.5 -27t138 27t109 74t72 110.5t26 135.5t-26 135.5t-72 110.5t-109 74t-138 27zM332 479q23 0 37 -13.5t14 -36.5q0 -22 -14 -35.5t-37 -13.5q-22 0 -36 13.5t-14 35.5q0 23 14 36.5t36 13.5zM560 479q21 0 35 -13.5t14 -36.5q0 -22 -14 -35.5t-35 -13.5
q-23 0 -37.5 13.5t-14.5 35.5q0 23 14.5 36.5t37.5 13.5zM293 199q-7 0 -7 7v14q0 7 7 7h308q7 0 7 -7v-14q0 -7 -7 -7h-308z" />
    <glyph glyph-name="s_t" unicode="&#xfb06;" horiz-adv-x="783" 
d="M404 700q99 0 144.5 -52t45.5 -169v-39h137q7 0 7 -7v-25q0 -7 -7 -7h-137v-277q0 -43 14.5 -69.5t56.5 -26.5q14 0 32.5 5.5t37.5 13.5q7 3 10 -4l9 -23q4 -7 -3 -9q-20 -10 -44 -16.5t-45 -6.5q-31 0 -52 9.5t-34.5 26.5t-19.5 41t-6 53v283h-73q-7 0 -7 7v25q0 7 7 7
h73v35q0 52 -7.5 87.5t-24.5 58t-45 32.5t-70 10q-78 0 -118.5 -45t-40.5 -139v-28q39 -4 77 -18.5t65 -37.5q6 -4 1 -9l-17 -20q-4 -4 -11 -1q-26 23 -64 36.5t-76 13.5q-57 0 -91 -21.5t-34 -59.5q0 -18 7 -33t24 -26.5t46 -20t72 -13.5q90 -12 127.5 -42.5t37.5 -80.5
q0 -29 -12.5 -53t-35.5 -41t-54.5 -26.5t-69.5 -9.5q-62 0 -111 17.5t-81 42.5q-5 3 -2 9l14 21q4 6 11 1q26 -20 70 -37t101 -17q54 0 89.5 25.5t35.5 64.5q0 17 -6.5 31.5t-23 26t-45 20.5t-73.5 15q-92 12 -129 44.5t-37 80.5q0 51 41.5 83.5t115.5 35.5v26
q0 111 51.5 166.5t146.5 55.5z" />
    <glyph glyph-name="M.alt" horiz-adv-x="837" 
d="M737 705q7 0 7 -7v-691q0 -7 -7 -7h-30q-7 0 -7 7v590l-269 -382q-4 -4 -8 -4h-10q-4 0 -7 4l-269 382v-590q0 -7 -7 -7h-31q-7 0 -7 7v691q0 7 6 7h9q3 0 7 -4l304 -432l304 432q3 4 7 4h8z" />
    <glyph glyph-name="Jacute" horiz-adv-x="228" 
d="M129 700q7 0 7 -7v-686q0 -91 -37.5 -138t-124.5 -49q-7 0 -7 7v28q0 7 7 7q34 0 56.5 10t36 29t19.5 46t6 60v686q0 7 7 7h30zM167 877q3 3 6 3h35q13 0 6 -11l-78 -116q-1 -3 -5 -3h-28q-6 0 -7.5 3t1.5 7z" />
    <glyph glyph-name="a.alt" horiz-adv-x="552" 
d="M263 452q30 0 59 -8t54.5 -24t45.5 -41t32 -58l10 113q0 6 7 6h17q7 0 7 -7v-426q0 -7 -7 -7h-17q-7 0 -7 7l-10 112q-12 -33 -32 -58t-45.5 -41t-54.5 -24t-59 -8q-47 0 -86.5 18t-68 49.5t-44.5 73.5t-16 91t16 91.5t44.5 73.5t68 49t86.5 18zM271 413q-41 0 -74 -14.5
t-56 -40.5t-35.5 -61.5t-12.5 -76.5q0 -40 12.5 -75t36 -61.5t56.5 -41.5t75 -15q39 0 72 14.5t56.5 40.5t37 61t13.5 76q0 42 -13.5 77.5t-37.5 61.5t-57 40.5t-73 14.5z" />
    <glyph glyph-name="g.alt" horiz-adv-x="552" 
d="M263 452q30 0 59 -8t54.5 -23.5t45.5 -40t32 -57.5l11 111q0 6 7 6h16q7 0 7 -7v-419q0 -99 -56 -156.5t-156 -57.5q-74 0 -129.5 26.5t-96.5 74.5q-4 4 1 9l17 19q6 5 11 0q33 -43 82.5 -67t114.5 -24q81 0 125.5 45.5t44.5 123.5l-1 105q-26 -63 -78.5 -92.5
t-110.5 -29.5q-47 0 -86.5 17.5t-68 48.5t-44.5 73t-16 91t16 91.5t44.5 73.5t68 49t86.5 18zM271 414q-41 0 -74 -15t-56 -41t-35.5 -61.5t-12.5 -76.5q0 -40 12.5 -75t36 -61.5t56.5 -41.5t75 -15q39 0 72 14.5t56.5 40.5t37 61t13.5 76q0 42 -13.5 77.5t-37.5 62t-57 41
t-73 14.5z" />
    <glyph glyph-name="r.alt" horiz-adv-x="435" 
d="M57 433q0 7 7 7h17q7 0 7 -6l8 -106q22 57 66 90.5t105 33.5q54 0 93 -28t57 -82q2 -5 -4 -8l-27 -10q-7 -5 -9 3q-14 45 -44.5 65.5t-74.5 20.5q-36 0 -65 -14t-50 -39.5t-32 -61t-11 -79.5v-212q0 -7 -6 -7h-30q-7 0 -7 7v426z" />
    <glyph glyph-name="ae.alt" horiz-adv-x="912" 
d="M868 227q-2 -22 -14 -22h-366q1 -37 14 -70t36 -57t55 -38t71 -14q47 0 83.5 21.5t59.5 56.5q5 7 10 2l21 -16q7 -4 2 -9q-29 -42 -72 -67.5t-100 -25.5q-67 0 -116.5 36.5t-70.5 96.5l-2 -114q0 -7 -6 -7h-16q-7 0 -7 7l-5 109q-12 -33 -32 -57.5t-45 -40t-53 -23
t-57 -7.5q-47 0 -86.5 18t-68 49t-44.5 73.5t-16 91.5t16 91t44.5 73.5t68 49.5t85.5 18q29 0 57.5 -7.5t54 -23.5t45.5 -40.5t31 -57.5v110q0 7 7 7h23q7 0 7 -7v-113q22 59 70.5 95.5t117.5 36.5q47 0 85.5 -16.5t64.5 -46t39 -71t9 -91.5zM827 240q2 36 -8 68t-31 55.5
t-52 37t-70 13.5t-71.5 -13.5t-55.5 -37t-36.5 -55t-14.5 -68.5h339zM266 414q-41 0 -74 -14.5t-56 -40.5t-35.5 -61.5t-12.5 -77.5t12.5 -77.5t35.5 -61.5t56.5 -40.5t75.5 -14.5q39 0 72 14.5t56.5 40.5t37 61.5t13.5 76.5t-13.5 77t-37.5 62t-57 41t-73 15z" />
    </font>
</defs>
</svg>
