<?xml version="1.0" standalone="no"?>
<!DOCTYPE svg PUBLIC "-//W3C//DTD SVG 1.1//EN" "http://www.w3.org/Graphics/SVG/1.1/DTD/svg11.dtd" >
<svg xmlns="http://www.w3.org/2000/svg" xmlns:xlink="http://www.w3.org/1999/xlink" version="1.1">
<metadata>
Created by FontForge 20170731 at Wed Sep 22 08:53:52 2021
 By Aleksey,,,
Copyright (c) 2021 by Hurufatfont Type Foundry-Oguzhan Cengiz. All rights reserved.
</metadata>
<defs>
<font id="Rapor-Black" horiz-adv-x="650" >
  <font-face 
    font-family="Rapor Black"
    font-weight="900"
    font-stretch="normal"
    units-per-em="1000"
    panose-1="0 0 0 0 0 0 0 0 0 0"
    ascent="800"
    descent="-200"
    x-height="440"
    cap-height="700"
    bbox="-103.781 -225 1121 988"
    underline-thickness="50"
    underline-position="-175"
    unicode-range="U+0002-FB06"
  />
<missing-glyph horiz-adv-x="350" 
d="M350 -200h-350v940h350v-940zM50 690v-840h250v840h-250zM175 588l72 72l33 -33l-72 -72l72 -72l-33 -33l-72 72l-72 -72l-33 33l72 72l-72 72l33 33zM175 308l72 72l33 -33l-72 -72l72 -72l-33 -33l-72 72l-72 -72l-33 33l72 72l-72 72l33 33zM175 18l72 72l33 -33
l-72 -72l72 -72l-33 -33l-72 72l-72 -72l-33 33l72 72l-72 72l33 33z" />
    <glyph glyph-name="f_f" unicode="ff" horiz-adv-x="799" 
d="M750 440q12 0 12 -12v-116q0 -12 -12 -12h-128v-288q0 -12 -12 -12h-166q-12 0 -12 12v288h-150v-288q0 -12 -12 -12h-166q-12 0 -12 12v288h-68q-12 0 -12 12v116q0 12 12 12h68v90q0 98 66 154t182 56q45 0 92.5 -10t88.5 -28q26 18 59.5 28t74.5 10q53 0 98 -8.5
t88 -25.5q11 -5 6 -16l-50 -116q-5 -11 -16 -6q-21 10 -40 15t-44 5q-75 0 -75 -78v-70h128zM432 440v80q0 11 1 22t3 22q-17 8 -36 13.5t-41 5.5q-38 0 -57.5 -17t-19.5 -56v-70h150z" />
    <glyph glyph-name="fi" unicode="fi" horiz-adv-x="668" 
d="M610 440q12 0 12 -12v-416q0 -12 -12 -12h-166q-12 0 -12 12v288h-150v-288q0 -12 -12 -12h-166q-12 0 -12 12v288h-68q-12 0 -12 12v116q0 12 12 12h68v80q0 50 20.5 90.5t56.5 69.5t86 44.5t109 15.5q63 0 123.5 -12.5t113.5 -38.5q10 -6 4 -17l-71 -113q-6 -11 -18 -4
q-26 15 -61.5 23t-64.5 8q-54 0 -81 -23.5t-27 -62.5v-60h328z" />
    <glyph glyph-name="fl" unicode="fl" horiz-adv-x="668" 
d="M360 440q12 0 12 -12v-116q0 -12 -12 -12h-78v-288q0 -12 -12 -12h-166q-12 0 -12 12v288h-68q-12 0 -12 12v116q0 12 12 12h68v80q0 106 66 163t197 57q31 0 64 -3.5t66 -10t64.5 -16t58.5 -21.5q14 -6 14 -19v-658q0 -12 -12 -12h-166q-12 0 -12 12v560q-17 5 -32 8
t-30 3q-18 0 -34 -2.5t-28 -10.5t-19 -22.5t-7 -37.5v-70h78z" />
    <glyph glyph-name="f_f_i" unicode="ffi" horiz-adv-x="1008" 
d="M950 440q12 0 12 -12v-416q0 -12 -12 -12h-166q-12 0 -12 12v288h-150v-288q0 -12 -12 -12h-166q-12 0 -12 12v288h-150v-288q0 -12 -12 -12h-166q-12 0 -12 12v288h-68q-12 0 -12 12v116q0 12 12 12h68v80q0 49 19 89.5t53 69.5t81.5 45t104.5 16q48 0 97.5 -11
t91.5 -31q68 42 162 42q63 0 120.5 -12.5t109.5 -38.5q11 -6 5 -17l-63 -112q-5 -12 -17 -5q-27 15 -63.5 23t-65.5 8q-54 0 -79.5 -23.5t-25.5 -62.5v-60h328zM432 440v70q0 32 7 57q-16 8 -33 12t-37 4q-38 0 -62.5 -17t-24.5 -56v-70h150z" />
    <glyph glyph-name="f_f_l" unicode="ffl" horiz-adv-x="1008" 
d="M695 740q64 0 131.5 -13t124.5 -39q11 -5 11 -17v-659q0 -12 -12 -12h-166q-12 0 -12 12v560q-17 5 -32 8t-30 3q-18 0 -34 -2.5t-28 -10.5t-19 -22.5t-7 -37.5v-70h78q12 0 12 -12v-116q0 -12 -12 -12h-78v-288q0 -12 -12 -12h-166q-12 0 -12 12v288h-150v-288
q0 -12 -12 -12h-166q-12 0 -12 12v288h-68q-12 0 -12 12v116q0 12 12 12h68v90q0 98 66 154t182 56q46 0 94 -10.5t89 -29.5q66 40 172 40zM432 440v80q0 23 3 44q-17 8 -35.5 13.5t-40.5 5.5q-38 0 -57.5 -17t-19.5 -56v-70h150z" />
    <glyph glyph-name="Th.dlig" unicode="Th" horiz-adv-x="1124" 
d="M20 688q0 12 12 12h578v28q0 12 12 12h166q12 0 12 -12v-322q26 22 59 34t71 12q70 0 110 -48.5t40 -131.5v-260q0 -12 -12 -12h-166q-12 0 -12 12v221q0 8 -1.5 18t-6 19t-12.5 15t-21 6q-28 0 -38.5 -19t-10.5 -40v-220q0 -12 -12 -12h-166q-12 0 -12 12v498h-197v-498
q0 -12 -12 -12h-182q-12 0 -12 12v498h-175q-12 0 -12 12v166z" />
    <glyph glyph-name="f_j" unicode="fj" horiz-adv-x="668" 
d="M610 440q12 0 12 -12v-381q0 -115 -52 -174.5t-165 -62.5q-12 0 -12 12v155q0 11 12 13q17 3 22 15t5 29v266h-150v-288q0 -12 -12 -12h-166q-12 0 -12 12v288h-68q-12 0 -12 12v116q0 12 12 12h68v80q0 50 20.5 90.5t56.5 69.5t86 44.5t109 15.5q63 0 123.5 -12.5
t113.5 -38.5q10 -6 4 -17l-71 -113q-6 -11 -18 -4q-26 15 -61.5 23t-64.5 8q-54 0 -81 -23.5t-27 -62.5v-60h328z" />
    <glyph glyph-name="f_f_j" unicode="ffj" horiz-adv-x="1008" 
d="M104 0q-12 0 -12 12v288h-68q-12 0 -12 12v116q0 12 12 12h68v80q0 49 19 89.5t53 69.5t81.5 45t104.5 16q48 0 97.5 -11t91.5 -31q68 42 162 42q63 0 120.5 -12.5t109.5 -38.5q11 -6 5 -17l-63 -112q-5 -12 -17 -5q-27 15 -63.5 23t-65.5 8q-54 0 -79.5 -23.5
t-25.5 -62.5v-60h328q12 0 12 -12v-381q0 -115 -52 -174.5t-165 -62.5q-12 0 -12 12v155q0 11 12 13q17 3 22 15t5 29v266h-150v-288q0 -12 -12 -12h-166q-12 0 -12 12v288h-150v-288q0 -12 -12 -12h-166zM432 440v70q0 32 7 57q-16 8 -33 12t-37 4q-38 0 -62.5 -17
t-24.5 -56v-70h150z" />
    <glyph glyph-name=".notdef" horiz-adv-x="350" 
d="M350 -200h-350v940h350v-940zM50 690v-840h250v840h-250zM175 588l72 72l33 -33l-72 -72l72 -72l-33 -33l-72 72l-72 -72l-33 33l72 72l-72 72l33 33zM175 308l72 72l33 -33l-72 -72l72 -72l-33 -33l-72 72l-72 -72l-33 33l72 72l-72 72l33 33zM175 18l72 72l33 -33
l-72 -72l72 -72l-33 -33l-72 72l-72 -72l-33 33l72 72l-72 72l33 33z" />
    <glyph glyph-name=".null" horiz-adv-x="500" 
 />
    <glyph glyph-name=".null" horiz-adv-x="500" 
 />
    <glyph glyph-name="uni000D" horiz-adv-x="500" 
 />
    <glyph glyph-name="uni0002" horiz-adv-x="333" 
 />
    <glyph glyph-name="uni0009" unicode="&#x9;" horiz-adv-x="80" 
 />
    <glyph glyph-name="uni000A" unicode="&#xa;" horiz-adv-x="333" 
 />
    <glyph glyph-name="uni000D.1" unicode="&#xd;" horiz-adv-x="333" 
 />
    <glyph glyph-name="space" unicode=" " horiz-adv-x="240" 
 />
    <glyph glyph-name="exclam" unicode="!" horiz-adv-x="328" 
d="M244 258q-2 -10 -12 -10h-137q-10 0 -12 10l-27 242v188q0 12 12 12h192q12 0 12 -12v-188zM165 189q47 0 74.5 -27t27.5 -74t-27.5 -73.5t-74.5 -26.5t-76 26.5t-29 73.5t29 74t76 27z" />
    <glyph glyph-name="quotedbl" unicode="&#x22;" horiz-adv-x="484" 
d="M195 371q-2 -11 -12 -11h-110q-10 0 -12 11l-20 316q-2 13 12 13h151q14 0 12 -13zM422 371q-2 -11 -12 -11h-110q-10 0 -12 11l-20 316q-2 13 12 13h151q14 0 12 -13z" />
    <glyph glyph-name="numbersign" unicode="#" horiz-adv-x="721" 
d="M354 0q-14 0 -11 15l33 131h-133l-35 -137q-2 -9 -11 -9h-108q-14 0 -11 15l33 131h-43q-12 0 -12 12v116q0 12 12 12h78l30 120h-62q-12 0 -12 12v116q0 12 12 12h97l36 145q2 9 11 9h108q16 0 11 -15l-34 -139h133l36 145q2 9 11 9h108q16 0 11 -15l-34 -139h45
q12 0 12 -12v-116q0 -12 -12 -12h-80l-30 -120h65q12 0 12 -12v-116q0 -12 -12 -12h-100l-35 -137q-2 -9 -11 -9h-108zM411 286l30 120h-133l-30 -120h133z" />
    <glyph glyph-name="dollar" unicode="$" horiz-adv-x="594" 
d="M462 477q-9 -9 -17 -2q-30 22 -61 33t-66 11q-56 0 -56 -31q0 -8 4 -14.5t15 -12.5t31.5 -13t53.5 -17q107 -31 154.5 -82t47.5 -132q0 -84 -47 -138t-135 -73v-134q0 -12 -12 -12h-136q-12 0 -12 12v130q-53 8 -103.5 27t-104.5 52q-10 5 -3 16l89 140q6 11 17 4
q41 -27 85.5 -41t89.5 -14q60 0 60 29q0 7 -3 12.5t-11 11t-22.5 11t-37.5 13.5q-65 22 -110 45t-72.5 50t-40 59.5t-12.5 73.5q0 79 46.5 132t132.5 71v114q0 12 12 12h136q12 0 12 -12v-114q48 -9 92 -30t80 -52q8 -8 1 -17z" />
    <glyph glyph-name="percent" unicode="%" horiz-adv-x="692" 
d="M178 700q34 0 64.5 -12t53 -33t35.5 -49.5t13 -62.5t-13 -63t-35.5 -50t-52.5 -32.5t-65 -11.5q-34 0 -64.5 11.5t-53 32.5t-35.5 50t-13 63t13 62.5t35.5 49.5t53 33t64.5 12zM648 600q8 -8 0 -16l-550 -552q-8 -8 -17 0l-50 51q-8 8 0 16l550 551q8 9 17 0zM178 590
q-20 0 -32.5 -13t-12.5 -34t12.5 -34t32.5 -13q21 0 33 13.5t12 33.5t-12 33.5t-33 13.5zM514 302q34 0 64.5 -12t53 -33t35.5 -49.5t13 -62.5t-13 -63t-35.5 -50t-52.5 -32.5t-65 -11.5q-34 0 -64.5 11.5t-53 32.5t-35.5 50t-13 63t13 62.5t35.5 49.5t53 33t64.5 12z
M514 192q-20 0 -32.5 -13t-12.5 -34t12.5 -34t32.5 -13q21 0 33 13.5t12 33.5t-12 33.5t-33 13.5z" />
    <glyph glyph-name="ampersand" unicode="&#x26;" horiz-adv-x="694" 
d="M646 328q12 -2 10 -14q-6 -37 -14.5 -66.5t-21.5 -55.5l68 -54q10 -9 2 -17l-102 -123q-9 -9 -17 -1l-65 58q-38 -32 -91.5 -49t-114.5 -17q-136 0 -205.5 53t-69.5 153q0 60 30 107t85 79q-26 32 -37.5 67t-11.5 70q0 91 63.5 142t175.5 51q55 0 100 -13t77 -37
t49.5 -57t17.5 -74q0 -69 -42.5 -115t-110.5 -63l64 -52q5 20 6 41q2 13 14 11zM311 441q82 6 82 57q0 26 -16 37t-38 11q-27 0 -42 -13.5t-15 -39.5q0 -24 29 -52zM258 271q-25 -22 -25 -57q0 -31 21.5 -47.5t62.5 -16.5q19 0 35 5t25 13z" />
    <glyph glyph-name="quotesingle" unicode="'" horiz-adv-x="256" 
d="M194 371q-2 -11 -12 -11h-109q-10 0 -12 11l-20 316q-2 13 12 13h150q14 0 12 -13z" />
    <glyph glyph-name="parenleft" unicode="(" horiz-adv-x="344" 
d="M161 734q3 6 10 6h148q5 0 6 -3t-1 -5q-75 -108 -102.5 -223t-27.5 -229q0 -57 6.5 -116t21.5 -118t40 -116.5t62 -111.5q2 -2 1 -5t-6 -3h-148q-7 0 -10 6q-61 109 -94 230t-33 234t33 229t94 225z" />
    <glyph glyph-name="parenright" unicode=")" horiz-adv-x="344" 
d="M173 740q7 0 10 -6q61 -109 94 -225t33 -229t-33 -234t-94 -230q-3 -6 -10 -6h-148q-5 0 -6 3t1 5q38 54 63 111.5t40 116.5t21 118t6 116q0 114 -27.5 229t-102.5 223q-2 2 -1 5t6 3h148z" />
    <glyph glyph-name="asterisk" unicode="*" horiz-adv-x="440" 
d="M271 740q14 0 12 -14l-15 -84l75 43q12 6 18 -7l34 -85q5 -13 -9 -16l-90 -18l61 -59q10 -10 -2 -18l-79 -57q-10 -7 -17 4l-38 72l-38 -71q-7 -12 -18 -4l-78 57q-12 9 -2 19l61 57l-90 18q-14 3 -9 16l33 85q5 13 18 7l75 -43l-15 84q-2 14 12 14h101z" />
    <glyph glyph-name="plus" unicode="+" horiz-adv-x="592" 
d="M371 527q12 0 12 -12v-151h151q12 0 12 -12v-150q0 -12 -12 -12h-151v-151q0 -12 -12 -12h-150q-12 0 -12 12v151h-151q-12 0 -12 12v150q0 12 12 12h151v151q0 12 12 12h150z" />
    <glyph glyph-name="comma" unicode="," horiz-adv-x="322" 
d="M157 219q61 0 93 -38t32 -95q0 -39 -8.5 -77.5t-22.5 -74.5t-32.5 -68t-39.5 -59q-6 -6 -15 -3l-88 42q-14 7 -5 19q26 33 41.5 67t20.5 68q-42 8 -68.5 31.5t-26.5 74.5q0 24 9 44.5t24.5 36t37.5 24t48 8.5z" />
    <glyph glyph-name="hyphen" unicode="-" horiz-adv-x="400" 
d="M40 338q0 12 12 12h296q12 0 12 -12v-126q0 -12 -12 -12h-296q-12 0 -12 12v126z" />
    <glyph glyph-name="period" unicode="." horiz-adv-x="314" 
d="M157 222q53 0 85 -32t32 -85t-32 -85t-85 -32t-85 32t-32 85t32 85t85 32z" />
    <glyph glyph-name="slash" unicode="/" horiz-adv-x="520" 
d="M491 740q18 0 10 -17l-335 -756q-3 -7 -10 -7h-127q-18 0 -10 17l335 756q4 7 10 7h127z" />
    <glyph glyph-name="zero" unicode="0" horiz-adv-x="660" 
d="M329 700q81 0 138 -29t92 -78.5t51 -114t16 -135.5q0 -70 -15.5 -134.5t-51 -114t-92 -78.5t-138.5 -29t-138 29t-91 78t-50.5 113.5t-15.5 135.5t15.5 136t50.5 114t91.5 78t137.5 29zM330 500q-23 0 -40 -7t-28 -25t-16.5 -48t-5.5 -76t5.5 -76.5t16.5 -48.5t28 -25
t40 -7t40 7t28 25t16.5 48.5t5.5 76.5t-5.5 76t-16.5 48t-28 25t-40 7z" />
    <glyph glyph-name="one" unicode="1" horiz-adv-x="446" 
d="M378 688q12 0 12 -12v-664q0 -12 -12 -12h-166q-12 0 -12 12v453l-101 -41q-12 -5 -16 7l-49 153q-2 5 0 9t7 6l249 82q8 3 18.5 5t18.5 2h51z" />
    <glyph glyph-name="two" unicode="2" horiz-adv-x="560" 
d="M173 450q-5 -10 -16 -5l-135 59q-9 5 -6 15q35 86 102 135t155 49q122 0 190.5 -57.5t68.5 -155.5q0 -28 -6 -53t-19 -50t-33.5 -52t-49.5 -61l-73 -84h169q12 0 12 -12v-166q0 -12 -12 -12h-486q-12 0 -12 12v64q0 4 3 7l249 294q30 35 41.5 56.5t11.5 40.5
q0 20 -13 35.5t-42 15.5q-31 0 -55.5 -20t-43.5 -55z" />
    <glyph glyph-name="three" unicode="3" horiz-adv-x="594" 
d="M233 273q-12 0 -12 12v126q0 12 12 12h60q62 0 62 49q0 24 -16 38.5t-44 14.5q-32 0 -56.5 -18.5t-41.5 -51.5q-5 -9 -16 -6l-140 56q-12 3 -7 15q32 86 102 134.5t170 48.5q123 0 188.5 -48.5t65.5 -136.5q0 -57 -28 -100.5t-78 -63.5q55 -26 80.5 -64.5t25.5 -92.5
q0 -47 -19 -86t-53 -66.5t-81.5 -42.5t-105.5 -15q-104 0 -175.5 47t-102.5 135q-3 11 7 14l141 59q11 5 16 -6q17 -38 41 -54.5t59 -16.5t51.5 14t16.5 39q0 55 -62 55h-60z" />
    <glyph glyph-name="four" unicode="4" horiz-adv-x="616" 
d="M600 110q0 -12 -12 -12h-55v-86q0 -12 -12 -12h-166q-12 0 -12 12v86h-315q-12 0 -12 12v56q0 11 4 20l198 496q3 8 11 8h188q18 0 11 -17l-170 -395h85v104q0 12 12 12h166q12 0 12 -12v-104h55q12 0 12 -12v-156z" />
    <glyph glyph-name="five" unicode="5" horiz-adv-x="580" 
d="M516 510q0 -12 -12 -12h-250l-3 -51h49q121 0 185.5 -55.5t64.5 -164.5q0 -45 -16.5 -88.5t-48 -77t-77 -54t-103.5 -20.5q-110 0 -176.5 45.5t-95.5 136.5q-3 11 7 14l138 58q11 5 16 -8q12 -33 32.5 -50.5t54.5 -17.5q31 0 49 14.5t18 43.5q0 23 -14.5 40t-50.5 17
h-218q-14 0 -12 13l28 384q2 11 12 11h411q12 0 12 -12v-166z" />
    <glyph glyph-name="six" unicode="6" horiz-adv-x="607" 
d="M464 688q21 0 10 -19l-147 -225q11 2 21 3.5t18 1.5q44 0 82 -16t66 -44t43.5 -66.5t15.5 -84.5q0 -61 -21 -108t-57 -79t-85 -48t-106 -16q-61 0 -111 15.5t-85 45.5t-54.5 75t-19.5 105q0 42 14 86t37 83l172 285q3 6 10 6h197zM304 303q-65 0 -65 -64t65 -64
q31 0 47.5 17t16.5 46q0 31 -15 48t-49 17z" />
    <glyph glyph-name="seven" unicode="7" horiz-adv-x="524" 
d="M34 498q-12 0 -12 12v166q0 12 12 12h456q12 0 12 -12v-54q0 -7 -2 -16t-4 -16l-197 -582q-3 -8 -12 -8h-196q-17 0 -11 16l179 482h-225z" />
    <glyph glyph-name="eight" unicode="8" horiz-adv-x="602" 
d="M301 703q54 0 98.5 -13t76.5 -37t50 -58.5t18 -76.5q0 -47 -24.5 -92.5t-72.5 -68.5q65 -26 93 -72t28 -100q0 -45 -16 -81.5t-49 -62.5t-83 -40t-119 -14t-119 14t-83 40t-49 62.5t-16 81.5q0 54 28 100t93 72q-48 23 -72.5 68.5t-24.5 92.5q0 42 18 76.5t50 58.5
t76.5 37t98.5 13zM301 531q-25 0 -37 -14t-12 -33t10 -33t39 -14t39 14t10 33t-12 33t-37 14zM301 283q-35 0 -48.5 -16t-13.5 -40q0 -23 13.5 -39.5t48.5 -16.5t48.5 16.5t13.5 39.5q0 24 -13.5 40t-48.5 16z" />
    <glyph glyph-name="nine" unicode="9" horiz-adv-x="607" 
d="M303 701q61 0 111 -15.5t85 -45.5t54.5 -75t19.5 -105q0 -42 -14 -86t-37 -83l-172 -285q-3 -6 -10 -6h-197q-21 0 -10 19l147 225q-11 -2 -21 -3.5t-18 -1.5q-44 0 -82 16t-65.5 44t-43.5 66.5t-16 84.5q0 62 21 108.5t57 78.5t85 48t106 16zM303 513q-31 0 -47.5 -17
t-16.5 -46q0 -31 15 -48t49 -17q65 0 65 64t-65 64z" />
    <glyph glyph-name="colon" unicode=":" horiz-adv-x="287" 
d="M145 451q47 0 74.5 -27t27.5 -74t-27.5 -73.5t-74.5 -26.5t-76 26.5t-29 73.5t29 74t76 27zM145 189q47 0 74.5 -27t27.5 -74t-27.5 -73.5t-74.5 -26.5t-76 26.5t-29 73.5t29 74t76 27z" />
    <glyph glyph-name="semicolon" unicode=";" horiz-adv-x="277" 
d="M125 451q47 0 74.5 -27t27.5 -74t-27.5 -73.5t-74.5 -26.5t-76 26.5t-29 73.5t29 74t76 27zM128 195q47 0 78 -32t31 -82q0 -80 -32.5 -150.5t-79.5 -123.5q-7 -7 -15 -2l-60 39q-13 8 -2 19q30 31 49.5 63.5t24.5 69.5q-45 -2 -73.5 25t-28.5 72q0 47 30 74.5t78 27.5z
" />
    <glyph glyph-name="less" unicode="&#x3c;" horiz-adv-x="612" 
d="M566 452q0 -8 -8 -11l-230 -89l231 -94q7 -3 7 -11v-192q0 -9 -5 -12.5t-13 1.5l-496 262q-6 4 -6 10v66q0 6 6 10l496 263q8 5 13 1.5t5 -12.5v-192z" />
    <glyph glyph-name="equal" unicode="=" horiz-adv-x="540" 
d="M494 302q0 -12 -12 -12h-424q-12 0 -12 12v146q0 12 12 12h424q12 0 12 -12v-146zM494 53q0 -12 -12 -12h-424q-12 0 -12 12v146q0 12 12 12h424q12 0 12 -12v-146z" />
    <glyph glyph-name="greater" unicode="&#x3e;" horiz-adv-x="612" 
d="M54 441q-8 3 -8 11v192q0 9 5 12.5t13 -1.5l496 -263q6 -4 6 -10v-66q0 -6 -6 -10l-496 -262q-8 -5 -13 -1.5t-5 12.5v192q0 8 7 11l231 94z" />
    <glyph glyph-name="question" unicode="?" horiz-adv-x="523" 
d="M352 260q0 -12 -13 -12h-139q-11 0 -11 11q0 42 14 81.5t46 68.5q14 13 26 23t21 19t14 19t5 23q0 49 -54 49q-29 0 -53.5 -18.5t-41.5 -54.5q-5 -11 -16 -6l-130 54q-10 4 -7 14q16 45 43.5 78.5t63 56.5t77 34.5t85.5 11.5q49 0 91 -11.5t72.5 -33.5t48 -55t17.5 -76
q0 -33 -8 -58.5t-22.5 -46t-33.5 -37.5t-40 -33q-52 -39 -55 -101zM266 189q47 0 74.5 -27t27.5 -74t-27.5 -73.5t-74.5 -26.5t-76 26.5t-29 73.5t29 74t76 27z" />
    <glyph glyph-name="at" unicode="@" horiz-adv-x="876" 
d="M635 403q16 0 12 -14l-53 -249q-8 -35 3 -55.5t39 -20.5q31 0 52 24.5t33.5 59t18 73t5.5 66.5q0 53 -17.5 101.5t-53 85.5t-89.5 59.5t-127 22.5q-72 0 -129.5 -22.5t-99 -63.5t-66 -98.5t-30.5 -126.5q-11 -133 53 -210.5t198 -82.5q14 0 12 -14l-11 -68
q-2 -10 -12 -10q-82 2 -147 30t-109 78t-65.5 120t-15.5 155q6 90 39 164t88 127t130 82t165 29q92 0 163 -29.5t120.5 -80.5t75 -119.5t25.5 -146.5q0 -51 -12 -104t-38 -96.5t-67 -71.5t-100 -28q-79 0 -113.5 51t-19.5 134q-41 -70 -132 -70q-36 0 -62 14t-41.5 38
t-19.5 56t3 68q8 36 23.5 64.5t37.5 49t48.5 31.5t55.5 11q26 0 51.5 -11t38.5 -36l12 27q4 7 11 7h117zM437 287q-17 0 -26.5 -10.5t-13.5 -26.5q-5 -17 0.5 -27t23.5 -10t26 9.5t12 24.5q9 40 -22 40z" />
    <glyph glyph-name="A" unicode="A" horiz-adv-x="768" 
d="M416 705q8 0 11 -7l323 -681q4 -8 0.5 -12.5t-11.5 -4.5h-201q-7 0 -11 7l-34 83h-218l-34 -83q-3 -7 -11 -7h-201q-19 0 -11 17l323 681q4 7 11 7h64zM434 250l-49 130l-51 -130h100z" />
    <glyph glyph-name="B" unicode="B" horiz-adv-x="692" 
d="M56 688q0 12 12 12h331q237 0 237 -186q0 -43 -21.5 -82.5t-60.5 -63.5q51 -23 78.5 -66t27.5 -93q0 -96 -61.5 -152.5t-179.5 -56.5h-351q-12 0 -12 12v676zM262 433h111q27 0 39 11.5t12 31.5t-12 32t-39 12h-111v-87zM262 180h136q26 0 38 12.5t12 32.5t-12 34t-38 14
h-136v-93z" />
    <glyph glyph-name="C" unicode="C" horiz-adv-x="741" 
d="M712 534q5 -11 -6 -16l-157 -69q-10 -4 -16 6q-19 36 -53 53.5t-77 17.5q-71 0 -114 -44.5t-43 -131.5q0 -88 43 -132t115 -44q44 0 78.5 19t53.5 58q5 12 16 7l161 -61q11 -5 7 -15q-36 -93 -121.5 -143.5t-201.5 -50.5q-81 0 -148 25.5t-114.5 72.5t-74 114t-26.5 150
t26.5 150t74.5 114t115 72.5t148 25.5q55 0 103.5 -12t89 -34.5t71.5 -55.5t50 -76z" />
    <glyph glyph-name="D" unicode="D" horiz-adv-x="750" 
d="M56 688q0 12 12 12h285q90 0 158 -27t113.5 -74t68.5 -110.5t23 -136.5q0 -74 -22.5 -138t-68 -111.5t-113.5 -75t-159 -27.5h-285q-12 0 -12 12v676zM262 186h93q42 0 70.5 13.5t46 36.5t25 53t7.5 63q0 32 -7.5 61.5t-25 52t-46 35.5t-70.5 13h-93v-328z" />
    <glyph glyph-name="E" unicode="E" horiz-adv-x="592" 
d="M56 688q0 12 12 12h471q12 0 12 -12v-162q0 -12 -12 -12h-277v-76h234q12 0 12 -12v-152q0 -12 -12 -12h-234v-76h282q12 0 12 -12v-162q0 -12 -12 -12h-476q-12 0 -12 12v676z" />
    <glyph glyph-name="F" unicode="F" horiz-adv-x="572" 
d="M526 241q0 -12 -12 -12h-252v-217q0 -12 -12 -12h-182q-12 0 -12 12v676q0 12 12 12h456q12 0 12 -12v-162q0 -12 -12 -12h-262v-115h252q12 0 12 -12v-146z" />
    <glyph glyph-name="G" unicode="G" horiz-adv-x="808" 
d="M420 261q-12 0 -12 12v126q0 12 12 12h339q11 0 11 -10q2 -17 3 -32t1 -28q0 -80 -26 -145t-73 -111.5t-114 -71.5t-148 -25q-87 0 -157 25.5t-119.5 72.5t-76 114t-26.5 150q0 82 26 149t74 114t116 73t152 26q57 0 108 -12t94 -34.5t76 -55.5t52 -76q5 -11 -6 -16
l-159 -70q-11 -5 -16 6q-19 35 -54.5 53.5t-83.5 18.5q-79 0 -123 -47.5t-44 -133.5q0 -85 43.5 -131t128.5 -46q52 0 90.5 25.5t49.5 67.5h-138z" />
    <glyph glyph-name="H" unicode="H" horiz-adv-x="732" 
d="M664 700q12 0 12 -12v-676q0 -12 -12 -12h-182q-12 0 -12 12v238h-208v-238q0 -12 -12 -12h-182q-12 0 -12 12v676q0 12 12 12h182q12 0 12 -12v-248h208v248q0 12 12 12h182z" />
    <glyph glyph-name="I" unicode="I" horiz-adv-x="316" 
d="M248 700q12 0 12 -12v-676q0 -12 -12 -12h-180q-12 0 -12 12v676q0 12 12 12h180z" />
    <glyph glyph-name="J" unicode="J" horiz-adv-x="316" 
d="M248 700q12 0 12 -12v-608q0 -66 -21 -114.5t-58.5 -80t-89 -48t-113.5 -17.5q-12 0 -12 12v156q0 12 12 12q36 2 57 20t21 60v608q0 12 12 12h180z" />
    <glyph glyph-name="K" unicode="K" horiz-adv-x="733" 
d="M56 688q0 12 12 12h182q12 0 12 -12v-280l223 283q7 9 18 9h213q26 0 9 -20l-261 -306l268 -355q6 -8 3.5 -13.5t-13.5 -5.5h-233q-10 0 -15 8l-212 306v-302q0 -12 -12 -12h-182q-12 0 -12 12v676z" />
    <glyph glyph-name="L" unicode="L" horiz-adv-x="582" 
d="M250 700q12 0 12 -12v-498h282q12 0 12 -12v-166q0 -12 -12 -12h-476q-12 0 -12 12v676q0 12 12 12h182z" />
    <glyph glyph-name="M" unicode="M" horiz-adv-x="928" 
d="M745 702q9 0 11 -9l145 -678q3 -15 -11 -15h-186q-10 0 -12 10l-50 269l-135 -262q-3 -7 -10 -7h-66q-6 0 -10 7l-135 262l-50 -269q-2 -10 -12 -10h-186q-14 0 -11 15l145 678q2 9 11 9h64q6 0 10 -6l207 -390l207 390q4 6 10 6h64z" />
    <glyph glyph-name="N" unicode="N" horiz-adv-x="752" 
d="M684 700q12 0 12 -12v-681q0 -12 -12 -12h-60q-8 0 -13 5l-349 338v-326q0 -12 -12 -12h-182q-12 0 -12 12v681q0 12 12 12h57q11 0 18 -7l347 -338v328q0 12 12 12h182z" />
    <glyph glyph-name="O" unicode="O" horiz-adv-x="808" 
d="M404 712q81 0 148.5 -25t117 -72t77 -114t27.5 -151t-27.5 -151t-77 -114t-117 -72t-148.5 -25t-148.5 25t-117 72t-77 114t-27.5 151t27.5 151t77 114t117 72t148.5 25zM404 526q-75 0 -116.5 -47.5t-41.5 -128.5t41.5 -128.5t116.5 -47.5t116.5 47.5t41.5 128.5
t-41.5 128.5t-116.5 47.5z" />
    <glyph glyph-name="P" unicode="P" 
d="M56 688q0 12 12 12h292q130 0 203 -67t73 -186q0 -59 -19 -106t-54.5 -79.5t-86.5 -50t-116 -17.5h-98v-182q0 -12 -12 -12h-182q-12 0 -12 12v676zM262 380h84q37 0 57.5 15.5t20.5 52.5q0 35 -20 50.5t-58 15.5h-84v-134z" />
    <glyph glyph-name="Q" unicode="Q" horiz-adv-x="808" 
d="M404 712q81 0 148.5 -25t117 -72t77 -114t27.5 -151q0 -66 -17 -121.5t-48.5 -99t-76 -74.5t-98.5 -48l97 -169q10 -18 -11 -18h-202q-6 0 -10 7l-82 167q-65 11 -118.5 40.5t-92 75t-60 106.5t-21.5 134q0 84 27.5 151t77 114t117 72t148.5 25zM404 526
q-79 0 -114.5 -47.5t-35.5 -128.5q0 -40 8.5 -73.5t27 -58t47 -38t67.5 -13.5t67.5 13.5t47 38t27 58t8.5 73.5q0 81 -35.5 128.5t-114.5 47.5z" />
    <glyph glyph-name="R" unicode="R" horiz-adv-x="682" 
d="M262 12q0 -12 -12 -12h-182q-12 0 -12 12v676q0 12 12 12h291q63 0 114.5 -16t87.5 -47.5t55.5 -78t19.5 -106.5q0 -39 -10.5 -73t-28.5 -60.5t-41.5 -45.5t-50.5 -30l120 -225q10 -18 -10 -18h-219q-6 0 -10 7l-77 191h-47v-186zM262 368h85q77 0 77 75q0 71 -80 71h-82
v-146z" />
    <glyph glyph-name="S" unicode="S" horiz-adv-x="587" 
d="M434 493q-8 -10 -18 -2q-51 41 -112 41q-29 0 -40.5 -10t-11.5 -23q0 -9 3 -15.5t14 -14t32 -16.5t56 -22q49 -18 87 -37t64 -44t39.5 -57t13.5 -74q0 -107 -72 -169t-207 -62q-73 0 -140 22t-125 70q-9 8 -2 17l108 132q8 9 18 1q34 -33 68.5 -47.5t79.5 -14.5
q30 0 43.5 11t13.5 26q0 8 -3 14.5t-11 12t-22 11.5t-36 14q-66 23 -111 46.5t-72 52t-39 62.5t-12 78q0 52 20 92.5t54.5 68t81.5 41.5t100 14q64 0 124.5 -13t118.5 -57q11 -7 2 -16z" />
    <glyph glyph-name="T" unicode="T" horiz-adv-x="620" 
d="M20 688q0 12 12 12h556q12 0 12 -12v-166q0 -12 -12 -12h-175v-498q0 -12 -12 -12h-182q-12 0 -12 12v498h-175q-12 0 -12 12v166z" />
    <glyph glyph-name="U" unicode="U" horiz-adv-x="704" 
d="M640 700q12 0 12 -12v-425q0 -132 -78.5 -203.5t-221.5 -71.5t-221.5 71.5t-78.5 203.5v425q0 12 12 12h182q12 0 12 -12v-405q0 -45 21.5 -75t72.5 -30t72.5 30t21.5 75v405q0 12 12 12h182z" />
    <glyph glyph-name="V" unicode="V" horiz-adv-x="740" 
d="M722 700q18 0 9 -17l-318 -681q-3 -7 -11 -7h-64q-7 0 -11 7l-318 681q-8 17 9 17h207q8 0 11 -8l138 -347l130 347q3 8 11 8h207z" />
    <glyph glyph-name="W" unicode="W" horiz-adv-x="1081" 
d="M1055 700q15 0 8 -16l-261 -681q-3 -8 -11 -8h-64q-7 0 -11 7l-175 366l-175 -366q-3 -7 -11 -7h-64q-8 0 -11 8l-262 681q-5 16 8 16h202q9 0 12 -8l109 -334l149 325q4 7 11 7h64q8 0 11 -7l149 -325l108 334q3 8 12 8h202z" />
    <glyph glyph-name="X" unicode="X" horiz-adv-x="730" 
d="M699 700q21 0 10 -18l-213 -334l217 -329q6 -9 3.5 -14t-10.5 -5h-208q-7 0 -10 6l-123 208l-123 -208q-3 -6 -10 -6h-208q-8 0 -10.5 5t3.5 14l217 329l-213 334q-11 18 10 18h205q7 0 10 -6l119 -200l119 200q3 6 10 6h205z" />
    <glyph glyph-name="Y" unicode="Y" horiz-adv-x="719" 
d="M703 700q16 0 5 -18l-246 -413v-257q0 -12 -12 -12h-182q-12 0 -12 12v257l-246 413q-11 18 7 18h211q7 0 10 -7l121 -238l121 238q4 7 10 7h213z" />
    <glyph glyph-name="Z" unicode="Z" horiz-adv-x="652" 
d="M53 510q-12 0 -12 12v166q0 12 12 12h546q12 0 12 -12v-62q0 -6 -3 -11l-274 -425h270q12 0 12 -12v-166q0 -12 -12 -12h-556q-12 0 -12 12v62q0 7 3 11l274 425h-260z" />
    <glyph glyph-name="bracketleft" unicode="[" horiz-adv-x="382" 
d="M71 728q0 12 12 12h269q12 0 12 -12v-96q0 -12 -12 -12h-121v-690h121q12 0 12 -12v-96q0 -12 -12 -12h-269q-12 0 -12 12v906z" />
    <glyph glyph-name="backslash" unicode="\" horiz-adv-x="516" 
d="M19 723q-8 17 10 17h124q7 0 10 -7l334 -756q8 -17 -10 -17h-124q-6 0 -10 7z" />
    <glyph glyph-name="bracketright" unicode="]" horiz-adv-x="382" 
d="M299 740q12 0 12 -12v-906q0 -12 -12 -12h-269q-12 0 -12 12v96q0 12 12 12h121v690h-121q-12 0 -12 12v96q0 12 12 12h269z" />
    <glyph glyph-name="asciicircum" unicode="^" horiz-adv-x="642" 
d="M592 343q11 -18 -10 -18h-170q-7 0 -11 7l-79 178l-81 -178q-3 -7 -11 -7h-170q-21 0 -10 18l227 363q5 6 11 6h66q7 0 11 -6z" />
    <glyph glyph-name="underscore" unicode="_" horiz-adv-x="520" 
d="M520 -188q0 -12 -12 -12h-496q-12 0 -12 12v136q0 12 12 12h496q12 0 12 -12v-136z" />
    <glyph glyph-name="grave" unicode="`" horiz-adv-x="376" 
d="M318 587q7 -17 -11 -17h-156q-7 0 -10 5l-80 116q-6 8 -3.5 13.5t13.5 5.5h190q8 0 11 -7z" />
    <glyph glyph-name="a" unicode="a" horiz-adv-x="519" 
d="M258 452q103 0 159 -49t56 -144v-247q0 -12 -12 -12h-120q-8 0 -11 8l-18 46q-13 -16 -31 -28.5t-39 -21t-42.5 -12.5t-41.5 -4q-67 0 -102.5 34.5t-35.5 100.5q0 57 49 95t135 47l85 9v4q0 26 -18 34t-45 8q-28 0 -58.5 -8.5t-58.5 -25.5q-11 -6 -17 5l-52 99
q-6 11 5 16q50 24 102 35t111 11zM257 177q-17 -2 -30 -8.5t-13 -27.5q0 -35 31 -35q15 0 23.5 6t13 15t6 19.5t1.5 19.5v14z" />
    <glyph glyph-name="b" unicode="b" horiz-adv-x="580" 
d="M355 452q46 0 83 -16t63 -46t40 -73t14 -97q0 -109 -53.5 -170.5t-150.5 -61.5q-93 0 -141 83l-21 -63q-3 -8 -12 -8h-119q-12 0 -12 12v716q0 12 12 12h166q12 0 12 -12v-318q45 42 119 42zM300 290q-35 0 -50 -20t-15 -50q0 -29 15 -49.5t50 -20.5t48 20.5t13 49.5
q0 30 -13 50t-48 20z" />
    <glyph glyph-name="c" unicode="c" horiz-adv-x="495" 
d="M484 333q5 -10 -5 -15l-118 -55q-12 -7 -17 6q-8 14 -23 23.5t-38 9.5q-33 0 -48.5 -23.5t-15.5 -58.5t15.5 -58.5t48.5 -23.5q23 0 38 9.5t23 23.5q5 13 17 6l117 -55q11 -5 5 -16q-34 -60 -85.5 -89t-126.5 -29q-54 0 -99 17t-78 48t-51 73.5t-18 93.5t18 93.5t50.5 73
t77 48t96.5 17.5q75 0 133 -32.5t84 -86.5z" />
    <glyph glyph-name="d" unicode="d" horiz-adv-x="575" 
d="M222 452q37 0 66 -10.5t51 -30.5v317q0 12 12 12h166q12 0 12 -12v-716q0 -12 -12 -12h-119q-9 0 -12 8l-20 62q-23 -40 -58.5 -61t-80.5 -21q-96 0 -149 61t-53 170q0 54 14 97t39.5 73.5t62 46.5t81.5 16zM279 290q-33 0 -46.5 -21.5t-13.5 -49.5q0 -29 13.5 -49
t46.5 -20t48 20t15 49q0 28 -15 49.5t-48 21.5z" />
    <glyph glyph-name="e" unicode="e" horiz-adv-x="517" 
d="M495 219q-3 -29 -7 -36.5t-12 -7.5h-266q5 -25 22 -39t46 -14q26 0 47 8t38 22q10 6 17 -1l79 -76q9 -8 0 -17q-43 -37 -91 -53.5t-107 -16.5q-57 0 -101 17t-74 47.5t-45.5 72.5t-15.5 93t17 94t48 74t75 48.5t98 17.5q56 0 101.5 -15t76 -44.5t45.5 -73t9 -100.5z
M320 265q0 9 -1.5 19t-7 18t-16.5 13.5t-30 5.5q-28 0 -42 -16.5t-15 -39.5h112z" />
    <glyph glyph-name="f" unicode="f" horiz-adv-x="469" 
d="M422 312q0 -12 -12 -12h-128v-288q0 -12 -12 -12h-166q-12 0 -12 12v288h-68q-12 0 -12 12v116q0 12 12 12h68v80q0 49 15.5 89.5t46.5 69.5t76 45t105 16q53 0 93.5 -8.5t82.5 -25.5q11 -5 6 -16l-50 -115q-5 -12 -16 -7q-20 9 -41.5 14.5t-45.5 5.5q-45 0 -63.5 -25
t-18.5 -63v-60h128q12 0 12 -12v-116z" />
    <glyph glyph-name="g" unicode="g" horiz-adv-x="534" 
d="M512 312q0 -12 -12 -12l-89 -1q11 -10 17 -25t6 -41q0 -21 -11.5 -41.5t-33.5 -36.5t-54 -25.5t-73 -9.5q-18 0 -34.5 1.5t-32.5 3.5q-5 -5 -5 -14q0 -12 9.5 -17.5t29.5 -8.5l97 -14q42 -6 75 -14.5t55.5 -22.5t34 -34t11.5 -50q0 -37 -20.5 -65t-57.5 -47t-88.5 -28.5
t-112.5 -9.5q-228 0 -228 125q0 59 62 97q-20 23 -20 58q0 52 50 85q-61 44 -61 121t51.5 121.5t147.5 44.5q25 0 52.5 -3t50.5 -9h172q12 0 12 -12v-116zM251 331q-24 0 -36 -13.5t-12 -32.5q0 -18 13.5 -31t34.5 -13q24 0 36.5 12.5t12.5 31.5t-12.5 32.5t-36.5 13.5z
M179 -31q-6 -12 -6 -25q0 -20 14 -30.5t52 -10.5q35 0 56.5 5.5t21.5 19.5q0 8 -5.5 14t-28.5 10z" />
    <glyph glyph-name="h" unicode="h" horiz-adv-x="560" 
d="M224 740q12 0 12 -12v-322q26 22 59 34t71 12q70 0 110 -48.5t40 -131.5v-260q0 -12 -12 -12h-166q-12 0 -12 12v221q0 8 -1.5 18t-6 19t-12.5 15t-21 6q-28 0 -38.5 -19t-10.5 -40v-220q0 -12 -12 -12h-166q-12 0 -12 12v716q0 12 12 12h166z" />
    <glyph glyph-name="i" unicode="i" horiz-adv-x="282" 
d="M224 440q12 0 12 -12v-416q0 -12 -12 -12h-166q-12 0 -12 12v416q0 12 12 12h166zM141 702q45 0 75 -26t30 -71t-30 -71t-75 -26t-74 26t-29 71t29 71t74 26z" />
    <glyph glyph-name="j" unicode="j" horiz-adv-x="280" 
d="M224 440q12 0 12 -12v-381q0 -115 -52 -174.5t-165 -62.5q-12 0 -12 12v155q0 11 12 13q17 3 22 15t5 29v394q0 12 12 12h166zM141 702q45 0 75 -26t30 -71t-30 -71t-75 -26t-74 26t-29 71t29 71t74 26z" />
    <glyph glyph-name="k" unicode="k" horiz-adv-x="616" 
d="M46 728q0 12 12 12h166q12 0 12 -12v-463l116 170q4 5 10 5h218q5 0 7 -4t-2 -9l-165 -190l177 -225q3 -4 2 -8t-6 -4h-223q-6 0 -10 5l-124 182v-175q0 -12 -12 -12h-166q-12 0 -12 12v716z" />
    <glyph glyph-name="l" unicode="l" horiz-adv-x="277" 
d="M231 12q0 -12 -12 -12h-161q-12 0 -12 12v716q0 12 12 12h161q12 0 12 -12v-716z" />
    <glyph glyph-name="m" unicode="m" horiz-adv-x="860" 
d="M46 428q0 12 12 12h121q8 0 11 -8l20 -51q28 33 68 52t88 19q46 0 80 -19t54 -54q28 34 68 53.5t89 19.5q72 0 115.5 -49t43.5 -135v-256q0 -12 -12 -12h-166q-12 0 -12 12v220q0 10 -1.5 21t-7 20t-14.5 14.5t-24 5.5t-25 -6t-16.5 -15.5t-9 -21.5t-2.5 -23v-215
q0 -12 -12 -12h-166q-12 0 -12 12v221q0 9 -2 19.5t-7.5 19.5t-15 15t-23.5 6q-29 0 -40.5 -19t-11.5 -41v-221q0 -12 -12 -12h-166q-12 0 -12 12v416z" />
    <glyph glyph-name="n" unicode="n" horiz-adv-x="560" 
d="M178 440q8 0 11 -8l20 -51q28 33 67.5 52t87.5 19q71 0 111.5 -47.5t40.5 -130.5v-262q0 -12 -12 -12h-166q-12 0 -12 12v223q0 8 -1.5 18t-6 18.5t-12.5 14t-22 5.5q-27 0 -37.5 -18t-10.5 -39v-222q0 -12 -12 -12h-166q-12 0 -12 12v416q0 12 12 12h120z" />
    <glyph glyph-name="o" unicode="o" horiz-adv-x="576" 
d="M288 452q61 0 109.5 -16.5t82.5 -46.5t52.5 -73t18.5 -96q0 -54 -18 -97t-52 -73t-83 -46t-110 -16t-110 16t-83 46t-52 73t-18 97q0 53 18.5 96t52.5 73t82.5 46.5t109.5 16.5zM288 312q-71 0 -71 -92t71 -92t71 92t-71 92z" />
    <glyph glyph-name="p" unicode="p" horiz-adv-x="580" 
d="M351 452q97 0 150.5 -61.5t53.5 -170.5q0 -54 -14 -97t-40 -73t-63 -46t-83 -16q-74 0 -119 42v-208q0 -12 -12 -12h-166q-12 0 -12 12v606q0 12 12 12h119q9 0 12 -8l21 -63q48 83 141 83zM300 290q-32 0 -48.5 -20t-16.5 -50q0 -29 16.5 -49.5t48.5 -20.5t46.5 20.5
t14.5 49.5q0 30 -14.5 50t-46.5 20z" />
    <glyph glyph-name="q" unicode="q" horiz-adv-x="580" 
d="M230 452q46 0 82 -21.5t59 -61.5l20 63q3 8 12 8h119q12 0 12 -12v-606q0 -12 -12 -12h-166q-12 0 -12 12v208q-45 -42 -118 -42q-93 0 -147 61.5t-54 170.5t54.5 170.5t150.5 61.5zM280 290q-32 0 -46.5 -20t-14.5 -50q0 -29 14.5 -49.5t46.5 -20.5t49 20.5t17 49.5
q0 30 -17 50t-49 20z" />
    <glyph glyph-name="r" unicode="r" horiz-adv-x="402" 
d="M46 428q0 12 12 12h119q9 0 12 -8l23 -76q25 40 62 66.5t90 29.5q12 0 12 -12v-155q0 -13 -13 -13q-34 0 -58 -10t-39.5 -26.5t-22.5 -38.5t-7 -47v-138q0 -12 -12 -12h-166q-12 0 -12 12v416z" />
    <glyph glyph-name="s" unicode="s" horiz-adv-x="477" 
d="M379 288q-7 -9 -17 -2q-22 15 -50 24.5t-53 9.5q-14 0 -20.5 -5.5t-6.5 -10.5q0 -12 14 -19.5t46 -13.5q86 -17 127 -51.5t41 -87.5q0 -66 -55 -105t-150 -39q-65 0 -126 15.5t-106 41.5q-9 7 -4 16l56 105q7 12 18 4q37 -26 74 -39t71 -13q15 0 22 5t7 12q0 4 -1.5 8
t-8 8t-19.5 8.5t-36 9.5q-87 18 -126 52.5t-39 87.5q0 32 15 58.5t42.5 45t67.5 29t89 10.5q56 0 108.5 -14t91.5 -39q12 -7 3 -17z" />
    <glyph glyph-name="t" unicode="t" horiz-adv-x="456" 
d="M268 554q12 0 12 -12v-102h120q12 0 12 -12v-116q0 -12 -12 -12h-122v-115q0 -20 8.5 -34.5t35.5 -14.5q12 0 28 4.5t31 11.5q12 5 17 -7l40 -108q5 -10 -6 -15q-34 -16 -74.5 -25t-85.5 -9q-89 0 -134.5 43t-45.5 132v137h-68q-12 0 -12 12v116q0 12 12 12h79l83 109
q5 5 10 5h72z" />
    <glyph glyph-name="u" unicode="u" horiz-adv-x="554" 
d="M496 440q12 0 12 -12v-416q0 -12 -12 -12h-120q-8 0 -11 8l-18 47q-26 -32 -62.5 -49.5t-80.5 -17.5q-72 0 -116 47.5t-44 130.5v262q0 12 12 12h166q12 0 12 -12v-223q0 -9 1 -18.5t5 -17.5t11 -13.5t20 -5.5q28 0 37.5 18t9.5 38v222q0 12 12 12h166z" />
    <glyph glyph-name="v" unicode="v" horiz-adv-x="563" 
d="M13 422q-8 18 11 18h184q8 0 11 -8l63 -169l62 169q3 8 11 8h184q19 0 11 -18l-226 -421q-4 -6 -10 -6h-65q-6 0 -10 6z" />
    <glyph glyph-name="w" unicode="w" horiz-adv-x="786" 
d="M762 440q20 0 11 -17l-193 -421q-3 -7 -11 -7h-65q-6 0 -10 7l-101 199l-101 -199q-3 -7 -10 -7h-65q-7 0 -11 7l-193 421q-8 17 11 17h188q9 0 11 -9l43 -156l83 159q4 6 10 6h67q6 0 10 -6l83 -159l44 156q2 9 11 9h188z" />
    <glyph glyph-name="x" unicode="x" horiz-adv-x="591" 
d="M561 440q11 0 13.5 -5.5t-4.5 -13.5l-153 -201l153 -201q7 -8 4.5 -13.5t-13.5 -5.5h-204q-6 0 -10 6l-51 98l-51 -98q-4 -6 -10 -6h-205q-11 0 -13.5 5.5t4.5 13.5l153 201l-153 201q-7 8 -4.5 13.5t13.5 5.5h205q6 0 10 -6l51 -98l51 98q4 6 10 6h204z" />
    <glyph glyph-name="y" unicode="y" horiz-adv-x="575" 
d="M13 423q-8 17 11 17h190q8 0 11 -8l74 -205l59 204q2 9 11 9h183q18 0 11 -17l-260 -606q-3 -7 -11 -7h-187q-19 0 -11 17l101 197z" />
    <glyph glyph-name="z" unicode="z" horiz-adv-x="473" 
d="M46 300q-12 0 -12 12v116q0 12 12 12h380q12 0 12 -12v-60q0 -8 -4 -14l-150 -214h151q12 0 12 -12v-116q0 -12 -12 -12h-397q-12 0 -12 12v61q0 8 4 13l151 214h-135z" />
    <glyph glyph-name="braceleft" unicode="{" horiz-adv-x="351" 
d="M333 633q0 -12 -13 -12q-29 0 -41 -13.5t-12 -33.5v-155q0 -53 -24 -92t-88 -52q64 -13 88 -51.5t24 -91.5v-155q0 -20 12 -34t41 -14q13 0 13 -12v-96q0 -5 -3 -8.5t-8 -3.5q-117 -5 -166 46.5t-49 155.5v120q0 27 -18 46t-58 18q-13 0 -13 12v134q0 12 13 12
q40 0 58 19.5t18 46.5v120q0 107 50.5 157t164.5 45q5 0 8 -3.5t3 -8.5v-96z" />
    <glyph glyph-name="bar" unicode="|" horiz-adv-x="282" 
d="M211 -198q0 -12 -12 -12h-116q-12 0 -12 12v956q0 12 12 12h116q12 0 12 -12v-956z" />
    <glyph glyph-name="braceright" unicode="}" horiz-adv-x="351" 
d="M31 621q-13 0 -13 12v96q0 5 3 8.5t8 3.5q114 5 164.5 -45t50.5 -157v-120q0 -27 18 -46.5t58 -19.5q13 0 13 -12v-134q0 -12 -13 -12q-40 1 -58 -18t-18 -46v-120q0 -104 -49 -155.5t-166 -46.5q-5 0 -8 3.5t-3 8.5v96q0 12 13 12q29 0 41 14t12 34v155q0 53 24 91.5
t88 51.5q-64 13 -88 52t-24 92v155q0 20 -12 33.5t-41 13.5z" />
    <glyph glyph-name="asciitilde" unicode="~" horiz-adv-x="649" 
d="M592 404q11 -2 11 -12q-1 -46 -11 -86.5t-31 -70.5t-53.5 -47t-78.5 -17q-45 0 -75 14t-54 29q-26 16 -39.5 21.5t-24.5 5.5q-24 0 -31.5 -17.5t-7.5 -38.5q-2 -13 -14 -13l-126 14q-11 2 -11 12q1 44 11 84t31 70t53 48t78 18q44 0 75.5 -13.5t54.5 -27.5
q19 -12 34.5 -19t30.5 -7q23 0 30 16.5t8 36.5q0 13 14 13z" />
    <glyph glyph-name="exclamdown" unicode="&#xa1;" horiz-adv-x="346" 
d="M173 472q48 0 82.5 -31t34.5 -85q0 -26 -9.5 -48t-25 -37.5t-37 -24t-45.5 -8.5t-45.5 8.5t-37 24t-25 37.5t-9.5 48q0 54 34.5 85t82.5 31zM242 180q10 0 12 -10l27 -191v-167q0 -12 -12 -12h-192q-12 0 -12 12v167l28 191q2 10 12 10h137z" />
    <glyph glyph-name="cent" unicode="&#xa2;" horiz-adv-x="525" 
d="M365 720q12 0 12 -12v-106q83 -23 135 -90q7 -10 -3 -17l-128 -84q-9 -6 -18 2q-11 11 -29 17.5t-37 6.5q-39 0 -60 -24.5t-21 -61.5t21 -61.5t60 -24.5q46 0 70 23q7 8 17 3l126 -85q10 -7 3 -17q-52 -67 -136 -90v-107q0 -12 -12 -12h-136q-12 0 -12 12v107
q-43 11 -78.5 33.5t-61 55t-39 74t-13.5 89.5t13.5 89.5t39 74t61 55t78.5 33.5v105q0 12 12 12h136z" />
    <glyph glyph-name="sterling" unicode="&#xa3;" horiz-adv-x="798" 
d="M543 304q0 -12 -12 -12h-119q-1 -28 -3.5 -55t-8.5 -54q31 -18 59.5 -31.5t54.5 -13.5q35 0 59.5 17t39.5 65q5 13 17 7l120 -60q9 -5 6 -15q-21 -47 -45.5 -81t-55 -56t-68.5 -32.5t-86 -10.5q-55 0 -97 20t-75 47q-26 -27 -58.5 -42.5t-74.5 -15.5q-47 0 -77 13.5
t-47.5 34.5t-24 46t-6.5 48q0 35 12 62t32.5 45.5t47.5 28t57 9.5q20 0 45 -5q2 8 2 14v15h-82q-12 0 -12 12v106q0 12 12 12h82l1 31q4 116 64 181.5t175 65.5q91 0 147 -43t82 -134q3 -10 -8 -15l-140 -48q-13 -5 -16 9q-6 25 -20 39t-40 14q-16 0 -26.5 -5t-17 -12.5
t-9 -17.5t-3.5 -19l-4 -46h109q12 0 12 -12v-106zM226 133q-16 12 -32 12q-27 0 -27 -26q0 -13 6 -19.5t15 -6.5q10 0 20.5 8.5t17.5 31.5z" />
    <glyph glyph-name="currency" unicode="&#xa4;" horiz-adv-x="578" 
d="M289 539q33 0 60.5 -9t50.5 -23l59 59q8 8 16 0l59 -59q8 -8 0 -16l-57 -57q38 -50 38 -118t-38 -118l57 -57q8 -8 0 -16l-59 -59q-8 -8 -16 0l-59 59q-23 -14 -50.5 -23t-60.5 -9t-60.5 9t-50.5 23l-59 -59q-8 -8 -16 0l-59 59q-8 8 0 16l57 57q-38 50 -38 118t38 118
l-57 57q-8 8 0 16l59 59q8 8 16 0l59 -59q23 14 50.5 23t60.5 9zM289 383q-30 0 -50 -19t-20 -48t20 -48t50 -19t50 19t20 48t-20 48t-50 19z" />
    <glyph glyph-name="yen" unicode="&#xa5;" horiz-adv-x="702" 
d="M41 392q0 12 12 12h89l-124 279q-7 17 11 17h204q8 0 11 -8l102 -288h10l102 288q3 8 11 8h204q18 0 11 -17l-124 -279h89q12 0 12 -12v-61q0 -12 -12 -12h-596q-12 0 -12 12v61zM41 247q0 12 12 12h596q12 0 12 -12v-61q0 -12 -12 -12h-195v-162q0 -12 -12 -12h-182
q-12 0 -12 12v162h-195q-12 0 -12 12v61z" />
    <glyph glyph-name="brokenbar" unicode="&#xa6;" horiz-adv-x="282" 
d="M211 377q0 -12 -12 -12h-116q-12 0 -12 12v386q0 12 12 12h116q12 0 12 -12v-386zM211 -198q0 -12 -12 -12h-116q-12 0 -12 12v381q0 12 12 12h116q12 0 12 -12v-381z" />
    <glyph glyph-name="section" unicode="&#xa7;" horiz-adv-x="584" 
d="M456 497q-3 -5 -7.5 -5t-8.5 2q-32 21 -68.5 33t-72.5 12q-54 0 -54 -33q0 -9 5 -17t18 -15.5t34 -15.5t54 -19q48 -15 86 -31.5t63.5 -38t39 -49.5t13.5 -67q0 -47 -23 -81t-62 -57q32 -27 48 -60.5t16 -77.5q0 -95 -69.5 -146t-187.5 -51q-68 0 -133.5 19t-128.5 66
q-10 7 -3 16l90 115q8 9 18 1q30 -23 70 -33.5t73 -10.5q30 0 46.5 8t16.5 25q0 9 -5 17t-18 15.5t-34 16t-54 18.5q-41 13 -78 29t-64.5 38t-43.5 51.5t-16 69.5q0 47 22 81t60 57q-61 51 -61 136q0 95 68 146t195 51q60 0 123.5 -16.5t123.5 -67.5q9 -8 2 -17zM224 255
q0 -38 81 -62q26 4 35.5 17t9.5 27q0 38 -81 62q-29 -4 -37 -17t-8 -27z" />
    <glyph glyph-name="dieresis" unicode="&#xa8;" horiz-adv-x="492" 
d="M142 730q41 0 63 -24.5t22 -61.5t-22 -61.5t-63 -24.5q-42 0 -64 24.5t-22 61.5t22 61.5t64 24.5zM350 730q42 0 64 -24.5t22 -61.5t-22 -61.5t-64 -24.5t-63.5 24.5t-21.5 61.5t21.5 61.5t63.5 24.5z" />
    <glyph glyph-name="copyright" unicode="&#xa9;" horiz-adv-x="798" 
d="M399 716q77 0 143.5 -28.5t115.5 -78t77.5 -116t28.5 -143.5t-28.5 -143.5t-77.5 -116t-115.5 -78t-143.5 -28.5q-76 0 -143 28.5t-116 78t-77.5 116t-28.5 143.5t28.5 143.5t77.5 116t116 78t143 28.5zM399 638q-63 0 -115.5 -22t-90.5 -61t-59 -91.5t-21 -113.5
t21 -114t59 -92t90.5 -61.5t115.5 -22.5t115.5 22.5t90.5 61.5t59 92t21 114t-21 113.5t-59 91.5t-90.5 61t-115.5 22zM573 479q7 -9 -2 -16l-76 -63q-8 -8 -17 1q-30 28 -70 28q-35 0 -56 -19.5t-21 -57.5t21 -57.5t56 -19.5q40 0 70 28q9 9 17 1l76 -63q9 -7 2 -16
q-32 -38 -74.5 -55t-93.5 -17q-47 0 -85 15t-65 41.5t-42 63t-15 79.5t15 79.5t42 63t65 41.5t85 15q51 0 93.5 -17t74.5 -55z" />
    <glyph glyph-name="ordfeminine" unicode="&#xaa;" horiz-adv-x="363" 
d="M188 703q72 0 111 -33.5t39 -99.5v-171q0 -12 -12 -12h-75q-7 0 -11 7l-13 32q-18 -23 -49 -35t-59 -12q-51 0 -72.5 26t-21.5 68q0 39 32 65.5t93 34.5l61 7v4q0 17 -12.5 22.5t-32.5 5.5q-18 0 -37.5 -5.5t-36.5 -15.5q-13 -6 -19 4l-33 60q-5 10 5 16q28 15 66 23.5
t77 8.5zM187 512q-13 -2 -22 -7t-9 -19q0 -24 23 -24q20 0 26 14t6 27v11z" />
    <glyph glyph-name="guillemotleft" unicode="&#xab;" horiz-adv-x="638" 
d="M48 248q-4 6 0 12l109 174q5 6 11 6h145q22 0 11 -18l-105 -168l105 -169q11 -18 -11 -18h-145q-6 0 -11 6zM294 248q-4 6 0 12l108 174q5 6 11 6h164q11 0 13.5 -5.5t-3.5 -13.5l-123 -167l123 -168q6 -8 3.5 -13.5t-13.5 -5.5h-164q-6 0 -11 6z" />
    <glyph glyph-name="logicalnot" unicode="&#xac;" horiz-adv-x="623" 
d="M58 263q-12 0 -12 12v155q0 12 12 12h507q12 0 12 -12v-297q0 -12 -12 -12h-168q-12 0 -12 12v130h-327z" />
    <glyph glyph-name="registered" unicode="&#xae;" horiz-adv-x="694" 
d="M347 775q66 0 123 -24.5t99.5 -66.5t66.5 -99t24 -123t-24 -123t-66.5 -99t-99.5 -66t-123 -24q-65 0 -122 24t-99.5 66t-67 99t-24.5 123t24.5 123t67 99t99.5 66.5t122 24.5zM347 709q-54 0 -98.5 -19t-76.5 -52t-50 -78t-18 -98q0 -52 18 -97t50 -78.5t76.5 -52.5
t98.5 -19t98.5 19t76.5 52.5t50 78.5t18 97q0 53 -18 98t-50 78t-76.5 52t-98.5 19zM209 614q0 12 12 12h150q28 0 53 -6.5t43.5 -20.5t29.5 -34.5t11 -49.5q0 -35 -15 -60t-41 -42l49 -89q10 -18 -10 -18h-102q-7 0 -11 7l-30 72h-26v-67q0 -12 -12 -12h-89q-12 0 -12 12
v296zM322 476h40q14 0 22 5t8 22q0 16 -8 21.5t-22 5.5h-40v-54z" />
    <glyph glyph-name="macron" unicode="&#xaf;" horiz-adv-x="432" 
d="M376 606q0 -12 -12 -12h-296q-12 0 -12 12v76q0 12 12 12h296q12 0 12 -12v-76z" />
    <glyph glyph-name="degree" unicode="&#xb0;" horiz-adv-x="420" 
d="M210 740q41 0 75 -14t58.5 -38.5t38 -57t13.5 -70.5q0 -37 -13.5 -70t-38 -58t-58.5 -39t-75 -14t-75 14t-58.5 39t-38 58t-13.5 70q0 38 13.5 70.5t38 57t58.5 38.5t75 14zM210 646q-42 0 -64 -22t-22 -64t22 -64.5t64 -22.5t64 22.5t22 64.5t-22 64t-64 22z" />
    <glyph glyph-name="plusminus" unicode="&#xb1;" horiz-adv-x="586" 
d="M368 550q12 0 12 -12v-118h148q12 0 12 -12v-146q0 -12 -12 -12h-148v-80h148q12 0 12 -12v-146q0 -12 -12 -12h-470q-12 0 -12 12v146q0 12 12 12h148v80h-148q-12 0 -12 12v146q0 12 12 12h148v118q0 12 12 12h150z" />
    <glyph glyph-name="twosuperior" unicode="&#xb2;" horiz-adv-x="341" 
d="M116 683q-5 -10 -16 -5l-77 33q-11 5 -7 15q21 49 66 76.5t102 27.5q69 0 106.5 -35t37.5 -89q0 -36 -16 -68.5t-54 -67.5l-54 -50h112q12 0 12 -12v-86q0 -12 -12 -12h-286q-12 0 -12 12v43q0 5 3 8l149 161q19 20 24 34t5 24t-7.5 18t-24.5 8q-15 0 -27.5 -7.5
t-23.5 -27.5z" />
    <glyph glyph-name="threesuperior" unicode="&#xb3;" horiz-adv-x="352" 
d="M148 571q-12 0 -12 12v66q0 12 12 12h32q17 0 24 9.5t7 20.5q0 12 -8 19.5t-25 7.5q-16 0 -30.5 -7.5t-24.5 -24.5q-6 -11 -16 -7l-78 32q-11 5 -7 15q20 50 61.5 77t107.5 27q67 0 108 -28t41 -81q0 -35 -16.5 -61.5t-45.5 -38.5q61 -32 61 -95q0 -57 -43 -91.5
t-114 -34.5q-62 0 -104 26.5t-62 77.5q-4 11 6 14l80 34q11 5 16 -5q11 -20 24.5 -27.5t30.5 -7.5q37 0 37 28q0 14 -8 22.5t-22 8.5h-32z" />
    <glyph glyph-name="acute" unicode="&#xb4;" horiz-adv-x="388" 
d="M116 704q3 6 10 6h191q11 0 14 -5.5t-5 -14.5l-91 -116q-3 -4 -9 -4h-156q-21 0 -11 18z" />
    <glyph glyph-name="uni00B5" unicode="&#xb5;" horiz-adv-x="556" 
d="M224 440q12 0 12 -12v-228q0 -28 8.5 -47t31.5 -19t33.5 20t10.5 52v222q0 12 12 12h166q12 0 12 -12v-416q0 -12 -12 -12h-140q-10 0 -12 9l-5 22q-33 -42 -76 -42q-22 0 -35 5l6 -172q0 -12 -12 -12h-166q-12 0 -12 12v606q0 12 12 12h166z" />
    <glyph glyph-name="paragraph" unicode="&#xb6;" horiz-adv-x="610" 
d="M542 700q12 0 12 -12v-836q0 -12 -12 -12h-66q-12 0 -12 12v758h-100v-758q0 -12 -12 -12h-66q-12 0 -12 12v394q-53 0 -97 13t-76 40.5t-49.5 70.5t-17.5 103q0 61 18 104t50 70.5t77 40t99 12.5h264z" />
    <glyph glyph-name="periodcentered" unicode="&#xb7;" horiz-adv-x="296" 
d="M148 408q22 0 41.5 -8.5t34.5 -23.5t23.5 -34.5t8.5 -41.5t-8.5 -41.5t-23.5 -34.5t-34.5 -23.5t-41.5 -8.5t-42 8.5t-34.5 23.5t-23 34.5t-8.5 41.5t8.5 41.5t23.5 34.5t34.5 23.5t41.5 8.5z" />
    <glyph glyph-name="cedilla" unicode="&#xb8;" horiz-adv-x="386" 
d="M213 10q15 0 12 -15l-10 -35q57 -3 86 -25.5t29 -58.5q0 -43 -41.5 -72t-129.5 -29q-23 0 -46.5 2t-46.5 7q-11 2 -9 14l10 55q3 12 16 9q17 -4 35.5 -6.5t33.5 -2.5q29 0 38 9t9 19q0 14 -16.5 22.5t-70.5 10.5q-15 0 -12 15l17 72q2 9 12 9h84z" />
    <glyph glyph-name="onesuperior" unicode="&#xb9;" horiz-adv-x="253" 
d="M206 820q12 0 12 -12v-386q0 -12 -12 -12h-95q-12 0 -12 12v256l-53 -17q-12 -3 -15 8l-30 84q-4 11 7 15l139 48q11 4 21 4h38z" />
    <glyph glyph-name="ordmasculine" unicode="&#xba;" horiz-adv-x="393" 
d="M197 703q39 0 70.5 -12.5t54 -34t34.5 -51.5t12 -65t-12 -64.5t-34 -51t-54 -33.5t-71 -12t-70.5 12t-54 33.5t-35 51t-12.5 64.5t12.5 65t35 51.5t54 34t70.5 12.5zM197 587q-22 0 -31.5 -13t-9.5 -33t9.5 -32.5t31.5 -12.5q21 0 30.5 12.5t9.5 32.5t-9.5 33t-30.5 13z
" />
    <glyph glyph-name="guillemotright" unicode="&#xbb;" horiz-adv-x="638" 
d="M590 260q4 -6 0 -12l-109 -175q-4 -6 -11 -6h-145q-22 0 -11 18l105 169l-105 168q-11 18 11 18h145q7 0 11 -6zM344 260q4 -6 0 -12l-108 -175q-4 -6 -11 -6h-164q-11 0 -13.5 5.5t3.5 13.5l123 168l-123 167q-6 8 -3.5 13.5t13.5 5.5h164q7 0 11 -6z" />
    <glyph glyph-name="onequarter" unicode="&#xbc;" horiz-adv-x="822" 
d="M206 700q12 0 12 -12v-386q0 -12 -12 -12h-95q-12 0 -12 12v256l-53 -17q-12 -3 -15 8l-30 84q-4 11 7 15l139 48q11 4 21 4h38zM648 700q21 0 10 -18l-430 -676q-4 -6 -11 -6h-95q-21 0 -10 18l430 676q5 6 11 6h95zM810 75q0 -12 -12 -12h-20v-51q0 -12 -12 -12h-86
q-12 0 -12 12v51h-196q-12 0 -12 12v34q0 14 7 29l123 265q4 7 11 7h110q9 0 12.5 -5t-1.5 -13l-116 -219h62v51q0 12 12 12h86q12 0 12 -12v-51h20q12 0 12 -12v-86z" />
    <glyph glyph-name="onehalf" unicode="&#xbd;" horiz-adv-x="814" 
d="M206 700q12 0 12 -12v-386q0 -12 -12 -12h-95q-12 0 -12 12v256l-53 -17q-12 -3 -15 8l-30 84q-4 11 7 15l139 48q11 4 21 4h38zM637 700q21 0 10 -18l-430 -676q-4 -6 -11 -6h-95q-21 0 -10 18l430 676q5 6 11 6h95zM589 273q-5 -10 -16 -5l-77 33q-11 5 -7 15
q21 49 66 76.5t102 27.5q69 0 106.5 -35t37.5 -89q0 -36 -16 -68.5t-54 -67.5l-54 -50h112q12 0 12 -12v-86q0 -12 -12 -12h-286q-12 0 -12 12v43q0 5 3 8l149 161q19 20 24 34t5 24t-7.5 18t-24.5 8q-15 0 -27.5 -7.5t-23.5 -27.5z" />
    <glyph glyph-name="threequarters" unicode="&#xbe;" horiz-adv-x="891" 
d="M148 451q-12 0 -12 12v66q0 12 12 12h32q17 0 24 9.5t7 20.5q0 12 -8 19.5t-25 7.5q-16 0 -30.5 -7.5t-24.5 -24.5q-6 -11 -16 -7l-78 32q-11 5 -7 15q20 50 61.5 77t107.5 27q67 0 108 -28t41 -81q0 -35 -16.5 -61.5t-45.5 -38.5q61 -32 61 -95q0 -57 -43 -91.5
t-114 -34.5q-62 0 -104 26.5t-62 77.5q-4 11 6 14l80 34q11 5 16 -5q11 -20 24.5 -27.5t30.5 -7.5q37 0 37 28q0 14 -8 22.5t-22 8.5h-32zM726 700q21 0 10 -18l-430 -676q-4 -6 -11 -6h-95q-21 0 -10 18l430 676q5 6 11 6h95zM879 75q0 -12 -12 -12h-20v-51q0 -12 -12 -12
h-86q-12 0 -12 12v51h-196q-12 0 -12 12v34q0 14 7 29l123 265q4 7 11 7h110q9 0 12.5 -5t-1.5 -13l-116 -219h62v51q0 12 12 12h86q12 0 12 -12v-51h20q12 0 12 -12v-86z" />
    <glyph glyph-name="questiondown" unicode="&#xbf;" horiz-adv-x="499" 
d="M249 472q44 0 74.5 -27.5t30.5 -76.5q0 -47 -30.5 -76t-74.5 -29q-43 0 -73.5 29t-30.5 76q0 49 30.5 76.5t73.5 27.5zM316 200q11 0 11 -11q0 -32 -16 -65.5t-50 -62.5q-29 -25 -42 -41t-13 -33q0 -27 37 -27q32 0 64 20t52 57q3 5 7.5 8t9.5 -1l102 -69q11 -7 7 -14
q-25 -45 -57 -76t-68 -50t-74 -27t-76 -8q-97 0 -147.5 39.5t-50.5 108.5q0 54 28.5 91.5t70.5 68.5q27 20 35 38.5t10 41.5q2 12 13 12h147z" />
    <glyph glyph-name="Agrave" unicode="&#xc0;" horiz-adv-x="768" 
d="M416 705q8 0 11 -7l323 -681q4 -8 0.5 -12.5t-11.5 -4.5h-201q-7 0 -11 7l-34 83h-218l-34 -83q-3 -7 -11 -7h-201q-19 0 -11 17l323 681q4 7 11 7h64zM434 250l-49 130l-51 -130h100zM467 767q7 -17 -11 -17h-156q-7 0 -10 5l-80 116q-6 8 -3.5 13.5t13.5 5.5h190
q8 0 11 -7z" />
    <glyph glyph-name="Aacute" unicode="&#xc1;" horiz-adv-x="768" 
d="M416 705q8 0 11 -7l323 -681q4 -8 0.5 -12.5t-11.5 -4.5h-201q-7 0 -11 7l-34 83h-218l-34 -83q-3 -7 -11 -7h-201q-19 0 -11 17l323 681q4 7 11 7h64zM434 250l-49 130l-51 -130h100zM361 884q3 6 10 6h191q11 0 14 -5.5t-5 -14.5l-91 -116q-3 -4 -9 -4h-156
q-21 0 -11 18z" />
    <glyph glyph-name="Acircumflex" unicode="&#xc2;" horiz-adv-x="768" 
d="M416 705q8 0 11 -7l323 -681q4 -8 0.5 -12.5t-11.5 -4.5h-201q-7 0 -11 7l-34 83h-218l-34 -83q-3 -7 -11 -7h-201q-19 0 -11 17l323 681q4 7 11 7h64zM434 250l-49 130l-51 -130h100zM567 769q13 -19 -10 -19h-129q-7 0 -11 7l-31 74l-31 -74q-3 -7 -11 -7h-129
q-23 0 -10 19l77 116q5 5 10 5h188q5 0 10 -5z" />
    <glyph glyph-name="Atilde" unicode="&#xc3;" horiz-adv-x="768" 
d="M416 705q8 0 11 -7l323 -681q4 -8 0.5 -12.5t-11.5 -4.5h-201q-7 0 -11 7l-34 83h-218l-34 -83q-3 -7 -11 -7h-201q-19 0 -11 17l323 681q4 7 11 7h64zM434 250l-49 130l-51 -130h100zM569 900q12 0 12 -12q-5 -158 -106 -158q-25 0 -44.5 8.5t-35.5 19t-30 19t-27 8.5
q-11 0 -18.5 -8t-9.5 -35q0 -12 -12 -12h-101q-12 0 -12 12q2 78 26.5 123t74.5 45q22 0 42 -11t38 -24t33 -24t28 -11q12 0 19.5 9t9.5 39q0 12 12 12h101z" />
    <glyph glyph-name="Adieresis" unicode="&#xc4;" horiz-adv-x="768" 
d="M416 705q8 0 11 -7l323 -681q4 -8 0.5 -12.5t-11.5 -4.5h-201q-7 0 -11 7l-34 83h-218l-34 -83q-3 -7 -11 -7h-201q-19 0 -11 17l323 681q4 7 11 7h64zM434 250l-49 130l-51 -130h100zM280 910q41 0 63 -24.5t22 -61.5t-22 -61.5t-63 -24.5q-42 0 -64 24.5t-22 61.5
t22 61.5t64 24.5zM488 910q42 0 64 -24.5t22 -61.5t-22 -61.5t-64 -24.5t-63.5 24.5t-21.5 61.5t21.5 61.5t63.5 24.5z" />
    <glyph glyph-name="Aring" unicode="&#xc5;" horiz-adv-x="768" 
d="M416 705q8 0 11 -7l323 -681q4 -8 0.5 -12.5t-11.5 -4.5h-201q-7 0 -11 7l-34 83h-218l-34 -83q-3 -7 -11 -7h-201q-19 0 -11 17l323 681q4 7 11 7h64zM434 250l-49 130l-51 -130h100zM384 988q68 0 107.5 -34.5t39.5 -94.5t-39.5 -94.5t-107.5 -34.5t-107.5 34.5
t-39.5 94.5t39.5 94.5t107.5 34.5zM384 886q-17 0 -20.5 -9.5t-3.5 -17.5t3.5 -17.5t20.5 -9.5t20.5 9.5t3.5 17.5t-3.5 17.5t-20.5 9.5z" />
    <glyph glyph-name="AE" unicode="&#xc6;" horiz-adv-x="929" 
d="M888 526q0 -12 -12 -12h-313l19 -76h261q12 0 12 -12v-152q0 -12 -12 -12h-215l19 -76h234q12 0 12 -12v-162q0 -12 -12 -12h-373q-9 0 -11 9l-28 106h-197l-35 -107q-3 -8 -12 -8h-196q-17 0 -12 16l268 676q3 8 11 8h580q12 0 12 -12v-162zM424 292l-42 161l-53 -161
h95z" />
    <glyph glyph-name="Ccedilla" unicode="&#xc7;" horiz-adv-x="741" 
d="M712 534q5 -11 -6 -16l-157 -69q-10 -4 -16 6q-19 36 -53 53.5t-77 17.5q-71 0 -114 -44.5t-43 -131.5q0 -88 43 -132t115 -44q44 0 78.5 19t53.5 58q5 12 16 7l161 -61q11 -5 7 -15q-36 -93 -121.5 -143.5t-201.5 -50.5q-81 0 -148 25.5t-114.5 72.5t-74 114t-26.5 150
t26.5 150t74.5 114t115 72.5t148 25.5q55 0 103.5 -12t89 -34.5t71.5 -55.5t50 -76zM435 10q15 0 12 -15l-10 -35q57 -3 86 -25.5t29 -58.5q0 -43 -41.5 -72t-129.5 -29q-23 0 -46.5 2t-46.5 7q-11 2 -9 14l10 55q3 12 16 9q17 -4 35.5 -6.5t33.5 -2.5q29 0 38 9t9 19
q0 14 -16.5 22.5t-70.5 10.5q-15 0 -12 15l17 72q2 9 12 9h84z" />
    <glyph glyph-name="Egrave" unicode="&#xc8;" horiz-adv-x="592" 
d="M56 688q0 12 12 12h471q12 0 12 -12v-162q0 -12 -12 -12h-277v-76h234q12 0 12 -12v-152q0 -12 -12 -12h-234v-76h282q12 0 12 -12v-162q0 -12 -12 -12h-476q-12 0 -12 12v676zM384 767q7 -17 -11 -17h-156q-7 0 -10 5l-80 116q-6 8 -3.5 13.5t13.5 5.5h190q8 0 11 -7z
" />
    <glyph glyph-name="Eacute" unicode="&#xc9;" horiz-adv-x="592" 
d="M56 688q0 12 12 12h471q12 0 12 -12v-162q0 -12 -12 -12h-277v-76h234q12 0 12 -12v-152q0 -12 -12 -12h-234v-76h282q12 0 12 -12v-162q0 -12 -12 -12h-476q-12 0 -12 12v676zM278 884q3 6 10 6h191q11 0 14 -5.5t-5 -14.5l-91 -116q-3 -4 -9 -4h-156q-21 0 -11 18z" />
    <glyph glyph-name="Ecircumflex" unicode="&#xca;" horiz-adv-x="592" 
d="M56 688q0 12 12 12h471q12 0 12 -12v-162q0 -12 -12 -12h-277v-76h234q12 0 12 -12v-152q0 -12 -12 -12h-234v-76h282q12 0 12 -12v-162q0 -12 -12 -12h-476q-12 0 -12 12v676zM484 769q13 -19 -10 -19h-129q-7 0 -11 7l-31 74l-31 -74q-3 -7 -11 -7h-129q-23 0 -10 19
l77 116q5 5 10 5h188q5 0 10 -5z" />
    <glyph glyph-name="Edieresis" unicode="&#xcb;" horiz-adv-x="592" 
d="M56 688q0 12 12 12h471q12 0 12 -12v-162q0 -12 -12 -12h-277v-76h234q12 0 12 -12v-152q0 -12 -12 -12h-234v-76h282q12 0 12 -12v-162q0 -12 -12 -12h-476q-12 0 -12 12v676zM197 910q41 0 63 -24.5t22 -61.5t-22 -61.5t-63 -24.5q-42 0 -64 24.5t-22 61.5t22 61.5
t64 24.5zM405 910q42 0 64 -24.5t22 -61.5t-22 -61.5t-64 -24.5t-63.5 24.5t-21.5 61.5t21.5 61.5t63.5 24.5z" />
    <glyph glyph-name="Igrave" unicode="&#xcc;" horiz-adv-x="316" 
d="M248 700q12 0 12 -12v-676q0 -12 -12 -12h-180q-12 0 -12 12v676q0 12 12 12h180zM241 767q7 -17 -11 -17h-156q-7 0 -10 5l-80 116q-6 8 -3.5 13.5t13.5 5.5h190q8 0 11 -7z" />
    <glyph glyph-name="Iacute" unicode="&#xcd;" horiz-adv-x="316" 
d="M248 700q12 0 12 -12v-676q0 -12 -12 -12h-180q-12 0 -12 12v676q0 12 12 12h180zM135 884q3 6 10 6h191q11 0 14 -5.5t-5 -14.5l-91 -116q-3 -4 -9 -4h-156q-21 0 -11 18z" />
    <glyph glyph-name="Icircumflex" unicode="&#xce;" horiz-adv-x="316" 
d="M248 700q12 0 12 -12v-676q0 -12 -12 -12h-180q-12 0 -12 12v676q0 12 12 12h180zM341 769q13 -19 -10 -19h-129q-7 0 -11 7l-31 74l-31 -74q-3 -7 -11 -7h-129q-23 0 -10 19l77 116q5 5 10 5h188q5 0 10 -5z" />
    <glyph glyph-name="Idieresis" unicode="&#xcf;" horiz-adv-x="316" 
d="M248 700q12 0 12 -12v-676q0 -12 -12 -12h-180q-12 0 -12 12v676q0 12 12 12h180zM54 910q41 0 63 -24.5t22 -61.5t-22 -61.5t-63 -24.5q-42 0 -64 24.5t-22 61.5t22 61.5t64 24.5zM262 910q42 0 64 -24.5t22 -61.5t-22 -61.5t-64 -24.5t-63.5 24.5t-21.5 61.5t21.5 61.5
t63.5 24.5z" />
    <glyph glyph-name="Eth" unicode="&#xd0;" horiz-adv-x="780" 
d="M86 688q0 12 12 12h295q86 0 152 -27t110.5 -74t67.5 -110.5t23 -136.5q0 -74 -22.5 -138t-67 -111.5t-110.5 -75t-153 -27.5h-295q-12 0 -12 12v272h-48q-12 0 -12 12v106q0 12 12 12h48v274zM402 414q12 0 12 -12v-106q0 -12 -12 -12h-110v-88h93q42 0 70.5 12t46 33
t25 49.5t7.5 61.5q0 32 -7.5 60t-25 48.5t-46 32t-70.5 11.5h-93v-90h110z" />
    <glyph glyph-name="Ntilde" unicode="&#xd1;" horiz-adv-x="752" 
d="M684 700q12 0 12 -12v-681q0 -12 -12 -12h-60q-8 0 -13 5l-349 338v-326q0 -12 -12 -12h-182q-12 0 -12 12v681q0 12 12 12h57q11 0 18 -7l347 -338v328q0 12 12 12h182zM539 900q12 0 12 -12q-5 -158 -106 -158q-25 0 -44.5 8.5t-35.5 19t-30 19t-27 8.5q-11 0 -18.5 -8
t-9.5 -35q0 -12 -12 -12h-101q-12 0 -12 12q2 78 26.5 123t74.5 45q22 0 42 -11t38 -24t33 -24t28 -11q12 0 19.5 9t9.5 39q0 12 12 12h101z" />
    <glyph glyph-name="Ograve" unicode="&#xd2;" horiz-adv-x="808" 
d="M404 712q81 0 148.5 -25t117 -72t77 -114t27.5 -151t-27.5 -151t-77 -114t-117 -72t-148.5 -25t-148.5 25t-117 72t-77 114t-27.5 151t27.5 151t77 114t117 72t148.5 25zM404 526q-75 0 -116.5 -47.5t-41.5 -128.5t41.5 -128.5t116.5 -47.5t116.5 47.5t41.5 128.5
t-41.5 128.5t-116.5 47.5zM487 777q7 -17 -11 -17h-156q-7 0 -10 5l-80 116q-6 8 -3.5 13.5t13.5 5.5h190q8 0 11 -7z" />
    <glyph glyph-name="Oacute" unicode="&#xd3;" horiz-adv-x="808" 
d="M404 712q81 0 148.5 -25t117 -72t77 -114t27.5 -151t-27.5 -151t-77 -114t-117 -72t-148.5 -25t-148.5 25t-117 72t-77 114t-27.5 151t27.5 151t77 114t117 72t148.5 25zM404 526q-75 0 -116.5 -47.5t-41.5 -128.5t41.5 -128.5t116.5 -47.5t116.5 47.5t41.5 128.5
t-41.5 128.5t-116.5 47.5zM381 894q3 6 10 6h191q11 0 14 -5.5t-5 -14.5l-91 -116q-3 -4 -9 -4h-156q-21 0 -11 18z" />
    <glyph glyph-name="Ocircumflex" unicode="&#xd4;" horiz-adv-x="808" 
d="M404 712q81 0 148.5 -25t117 -72t77 -114t27.5 -151t-27.5 -151t-77 -114t-117 -72t-148.5 -25t-148.5 25t-117 72t-77 114t-27.5 151t27.5 151t77 114t117 72t148.5 25zM404 526q-75 0 -116.5 -47.5t-41.5 -128.5t41.5 -128.5t116.5 -47.5t116.5 47.5t41.5 128.5
t-41.5 128.5t-116.5 47.5zM587 779q13 -19 -10 -19h-129q-7 0 -11 7l-31 74l-31 -74q-3 -7 -11 -7h-129q-23 0 -10 19l77 116q5 5 10 5h188q5 0 10 -5z" />
    <glyph glyph-name="Otilde" unicode="&#xd5;" horiz-adv-x="808" 
d="M404 712q81 0 148.5 -25t117 -72t77 -114t27.5 -151t-27.5 -151t-77 -114t-117 -72t-148.5 -25t-148.5 25t-117 72t-77 114t-27.5 151t27.5 151t77 114t117 72t148.5 25zM404 526q-75 0 -116.5 -47.5t-41.5 -128.5t41.5 -128.5t116.5 -47.5t116.5 47.5t41.5 128.5
t-41.5 128.5t-116.5 47.5zM589 910q12 0 12 -12q-5 -158 -106 -158q-25 0 -44.5 8.5t-35.5 19t-30 19t-27 8.5q-11 0 -18.5 -8t-9.5 -35q0 -12 -12 -12h-101q-12 0 -12 12q2 78 26.5 123t74.5 45q22 0 42 -11t38 -24t33 -24t28 -11q12 0 19.5 9t9.5 39q0 12 12 12h101z" />
    <glyph glyph-name="Odieresis" unicode="&#xd6;" horiz-adv-x="808" 
d="M404 712q81 0 148.5 -25t117 -72t77 -114t27.5 -151t-27.5 -151t-77 -114t-117 -72t-148.5 -25t-148.5 25t-117 72t-77 114t-27.5 151t27.5 151t77 114t117 72t148.5 25zM404 526q-75 0 -116.5 -47.5t-41.5 -128.5t41.5 -128.5t116.5 -47.5t116.5 47.5t41.5 128.5
t-41.5 128.5t-116.5 47.5zM300 920q41 0 63 -24.5t22 -61.5t-22 -61.5t-63 -24.5q-42 0 -64 24.5t-22 61.5t22 61.5t64 24.5zM508 920q42 0 64 -24.5t22 -61.5t-22 -61.5t-64 -24.5t-63.5 24.5t-21.5 61.5t21.5 61.5t63.5 24.5z" />
    <glyph glyph-name="multiply" unicode="&#xd7;" horiz-adv-x="567" 
d="M516 356q9 -8 0 -17l-109 -109l109 -109q9 -8 0 -17l-107 -107q-8 -8 -16 0l-109 109l-110 -109q-8 -8 -16 0l-107 107q-8 9 0 17l109 109l-109 109q-8 9 0 17l107 107q8 8 16 0l110 -109l109 109q8 8 16 0z" />
    <glyph glyph-name="Oslash" unicode="&#xd8;" horiz-adv-x="806" 
d="M403 712q117 0 203 -55l86 99q3 5 7.5 5t8.5 -3l54 -41q10 -8 2 -18l-87 -100q45 -44 70 -107.5t25 -141.5q0 -84 -27.5 -151t-76.5 -114t-116.5 -72t-148.5 -25q-58 0 -109 15t-93 41l-87 -104q-8 -9 -17 -2l-53 42q-10 9 -2 17l87 104q-45 43 -70 106.5t-25 142.5
q0 84 27.5 151t76.5 114t116.5 72t148.5 25zM403 523q-76 0 -112.5 -46t-36.5 -127q0 -53 14 -88l210 245q-31 16 -75 16zM330 192q30 -15 73 -15q76 0 112.5 46t36.5 127q0 49 -14 86z" />
    <glyph glyph-name="Ugrave" unicode="&#xd9;" horiz-adv-x="704" 
d="M640 700q12 0 12 -12v-425q0 -132 -78.5 -203.5t-221.5 -71.5t-221.5 71.5t-78.5 203.5v425q0 12 12 12h182q12 0 12 -12v-405q0 -45 21.5 -75t72.5 -30t72.5 30t21.5 75v405q0 12 12 12h182zM435 767q7 -17 -11 -17h-156q-7 0 -10 5l-80 116q-6 8 -3.5 13.5t13.5 5.5
h190q8 0 11 -7z" />
    <glyph glyph-name="Uacute" unicode="&#xda;" horiz-adv-x="704" 
d="M640 700q12 0 12 -12v-425q0 -132 -78.5 -203.5t-221.5 -71.5t-221.5 71.5t-78.5 203.5v425q0 12 12 12h182q12 0 12 -12v-405q0 -45 21.5 -75t72.5 -30t72.5 30t21.5 75v405q0 12 12 12h182zM329 884q3 6 10 6h191q11 0 14 -5.5t-5 -14.5l-91 -116q-3 -4 -9 -4h-156
q-21 0 -11 18z" />
    <glyph glyph-name="Ucircumflex" unicode="&#xdb;" horiz-adv-x="704" 
d="M640 700q12 0 12 -12v-425q0 -132 -78.5 -203.5t-221.5 -71.5t-221.5 71.5t-78.5 203.5v425q0 12 12 12h182q12 0 12 -12v-405q0 -45 21.5 -75t72.5 -30t72.5 30t21.5 75v405q0 12 12 12h182zM535 769q13 -19 -10 -19h-129q-7 0 -11 7l-31 74l-31 -74q-3 -7 -11 -7h-129
q-23 0 -10 19l77 116q5 5 10 5h188q5 0 10 -5z" />
    <glyph glyph-name="Udieresis" unicode="&#xdc;" horiz-adv-x="704" 
d="M640 700q12 0 12 -12v-425q0 -132 -78.5 -203.5t-221.5 -71.5t-221.5 71.5t-78.5 203.5v425q0 12 12 12h182q12 0 12 -12v-405q0 -45 21.5 -75t72.5 -30t72.5 30t21.5 75v405q0 12 12 12h182zM248 910q41 0 63 -24.5t22 -61.5t-22 -61.5t-63 -24.5q-42 0 -64 24.5
t-22 61.5t22 61.5t64 24.5zM456 910q42 0 64 -24.5t22 -61.5t-22 -61.5t-64 -24.5t-63.5 24.5t-21.5 61.5t21.5 61.5t63.5 24.5z" />
    <glyph glyph-name="Yacute" unicode="&#xdd;" horiz-adv-x="719" 
d="M703 700q16 0 5 -18l-246 -413v-257q0 -12 -12 -12h-182q-12 0 -12 12v257l-246 413q-11 18 7 18h211q7 0 10 -7l121 -238l121 238q4 7 10 7h213zM336 884q3 6 10 6h191q11 0 14 -5.5t-5 -14.5l-91 -116q-3 -4 -9 -4h-156q-21 0 -11 18z" />
    <glyph glyph-name="Thorn" unicode="&#xde;" 
d="M56 688q0 12 12 12h182q12 0 12 -12v-100h113q61 0 109.5 -17t82 -48t51.5 -75t18 -98t-18 -98t-51.5 -74.5t-82 -47.5t-109.5 -17h-113v-101q0 -12 -12 -12h-182q-12 0 -12 12v676zM262 299h93q33 0 47 14t14 37t-14 37.5t-47 14.5h-93v-103z" />
    <glyph glyph-name="germandbls" unicode="&#xdf;" horiz-adv-x="585" 
d="M58 -190q-12 0 -12 12v678q0 111 65 170.5t178 59.5q46 0 84.5 -11.5t66.5 -32.5t44 -50.5t16 -65.5q0 -34 -6.5 -56t-14.5 -39t-14.5 -33.5t-6.5 -38.5q0 -19 16 -40.5t35 -48t35 -59t16 -74.5q0 -95 -57.5 -144t-166.5 -49q-11 0 -27 1.5t-30 3.5q-9 2 -9 12v150
q0 15 15 12q5 -1 10.5 -1.5t12.5 -0.5q26 0 42.5 12.5t16.5 41.5q0 26 -13 45t-28 37t-28 38t-13 49q0 19 6.5 35.5t14 32t14 31t6.5 33.5q0 49 -45 49q-26 0 -37 -16t-11 -48v-683q0 -12 -12 -12h-163z" />
    <glyph glyph-name="agrave" unicode="&#xe0;" horiz-adv-x="519" 
d="M258 452q103 0 159 -49t56 -144v-247q0 -12 -12 -12h-120q-8 0 -11 8l-18 46q-13 -16 -31 -28.5t-39 -21t-42.5 -12.5t-41.5 -4q-67 0 -102.5 34.5t-35.5 100.5q0 57 49 95t135 47l85 9v4q0 26 -18 34t-45 8q-28 0 -58.5 -8.5t-58.5 -25.5q-11 -6 -17 5l-52 99
q-6 11 5 16q50 24 102 35t111 11zM257 177q-17 -2 -30 -8.5t-13 -27.5q0 -35 31 -35q15 0 23.5 6t13 15t6 19.5t1.5 19.5v14zM331 547q7 -17 -11 -17h-156q-7 0 -10 5l-80 116q-6 8 -3.5 13.5t13.5 5.5h190q8 0 11 -7z" />
    <glyph glyph-name="aacute" unicode="&#xe1;" horiz-adv-x="519" 
d="M258 452q103 0 159 -49t56 -144v-247q0 -12 -12 -12h-120q-8 0 -11 8l-18 46q-13 -16 -31 -28.5t-39 -21t-42.5 -12.5t-41.5 -4q-67 0 -102.5 34.5t-35.5 100.5q0 57 49 95t135 47l85 9v4q0 26 -18 34t-45 8q-28 0 -58.5 -8.5t-58.5 -25.5q-11 -6 -17 5l-52 99
q-6 11 5 16q50 24 102 35t111 11zM257 177q-17 -2 -30 -8.5t-13 -27.5q0 -35 31 -35q15 0 23.5 6t13 15t6 19.5t1.5 19.5v14zM225 664q3 6 10 6h191q11 0 14 -5.5t-5 -14.5l-91 -116q-3 -4 -9 -4h-156q-21 0 -11 18z" />
    <glyph glyph-name="acircumflex" unicode="&#xe2;" horiz-adv-x="519" 
d="M258 452q103 0 159 -49t56 -144v-247q0 -12 -12 -12h-120q-8 0 -11 8l-18 46q-13 -16 -31 -28.5t-39 -21t-42.5 -12.5t-41.5 -4q-67 0 -102.5 34.5t-35.5 100.5q0 57 49 95t135 47l85 9v4q0 26 -18 34t-45 8q-28 0 -58.5 -8.5t-58.5 -25.5q-11 -6 -17 5l-52 99
q-6 11 5 16q50 24 102 35t111 11zM257 177q-17 -2 -30 -8.5t-13 -27.5q0 -35 31 -35q15 0 23.5 6t13 15t6 19.5t1.5 19.5v14zM431 549q13 -19 -10 -19h-129q-7 0 -11 7l-31 74l-31 -74q-3 -7 -11 -7h-129q-23 0 -10 19l77 116q5 5 10 5h188q5 0 10 -5z" />
    <glyph glyph-name="atilde" unicode="&#xe3;" horiz-adv-x="519" 
d="M258 452q103 0 159 -49t56 -144v-247q0 -12 -12 -12h-120q-8 0 -11 8l-18 46q-13 -16 -31 -28.5t-39 -21t-42.5 -12.5t-41.5 -4q-67 0 -102.5 34.5t-35.5 100.5q0 57 49 95t135 47l85 9v4q0 26 -18 34t-45 8q-28 0 -58.5 -8.5t-58.5 -25.5q-11 -6 -17 5l-52 99
q-6 11 5 16q50 24 102 35t111 11zM257 177q-17 -2 -30 -8.5t-13 -27.5q0 -35 31 -35q15 0 23.5 6t13 15t6 19.5t1.5 19.5v14zM433 680q12 0 12 -12q-5 -158 -106 -158q-25 0 -44.5 8.5t-35.5 19t-30 19t-27 8.5q-11 0 -18.5 -8t-9.5 -35q0 -12 -12 -12h-101q-12 0 -12 12
q2 78 26.5 123t74.5 45q22 0 42 -11t38 -24t33 -24t28 -11q12 0 19.5 9t9.5 39q0 12 12 12h101z" />
    <glyph glyph-name="adieresis" unicode="&#xe4;" horiz-adv-x="519" 
d="M258 452q103 0 159 -49t56 -144v-247q0 -12 -12 -12h-120q-8 0 -11 8l-18 46q-13 -16 -31 -28.5t-39 -21t-42.5 -12.5t-41.5 -4q-67 0 -102.5 34.5t-35.5 100.5q0 57 49 95t135 47l85 9v4q0 26 -18 34t-45 8q-28 0 -58.5 -8.5t-58.5 -25.5q-11 -6 -17 5l-52 99
q-6 11 5 16q50 24 102 35t111 11zM257 177q-17 -2 -30 -8.5t-13 -27.5q0 -35 31 -35q15 0 23.5 6t13 15t6 19.5t1.5 19.5v14zM144 690q41 0 63 -24.5t22 -61.5t-22 -61.5t-63 -24.5q-42 0 -64 24.5t-22 61.5t22 61.5t64 24.5zM352 690q42 0 64 -24.5t22 -61.5t-22 -61.5
t-64 -24.5t-63.5 24.5t-21.5 61.5t21.5 61.5t63.5 24.5z" />
    <glyph glyph-name="aring" unicode="&#xe5;" horiz-adv-x="519" 
d="M258 452q103 0 159 -49t56 -144v-247q0 -12 -12 -12h-120q-8 0 -11 8l-18 46q-13 -16 -31 -28.5t-39 -21t-42.5 -12.5t-41.5 -4q-67 0 -102.5 34.5t-35.5 100.5q0 57 49 95t135 47l85 9v4q0 26 -18 34t-45 8q-28 0 -58.5 -8.5t-58.5 -25.5q-11 -6 -17 5l-52 99
q-6 11 5 16q50 24 102 35t111 11zM257 177q-17 -2 -30 -8.5t-13 -27.5q0 -35 31 -35q15 0 23.5 6t13 15t6 19.5t1.5 19.5v14zM248 768q68 0 107.5 -34.5t39.5 -94.5t-39.5 -94.5t-107.5 -34.5t-107.5 34.5t-39.5 94.5t39.5 94.5t107.5 34.5zM248 666q-17 0 -20.5 -9.5
t-3.5 -17.5t3.5 -17.5t20.5 -9.5t20.5 9.5t3.5 17.5t-3.5 17.5t-20.5 9.5z" />
    <glyph glyph-name="ae" unicode="&#xe6;" horiz-adv-x="779" 
d="M758 233q-2 -30 -6 -37.5t-18 -7.5h-262q5 -21 20.5 -34.5t42.5 -13.5q16 0 30.5 6.5t25.5 17.5q8 9 17 3l113 -72q10 -7 4 -16q-31 -50 -71.5 -70.5t-88.5 -20.5q-32 0 -60.5 9.5t-51.5 31.5v-17q0 -12 -12 -12h-100q-8 0 -11 8l-18 46q-13 -16 -31 -28.5t-39 -21
t-42.5 -12.5t-41.5 -4q-68 0 -103 36.5t-35 93.5q0 27 11 51.5t33.5 44t57 33t82.5 18.5l85 9v9q0 23 -16.5 32t-46.5 9q-27 0 -57.5 -10t-58.5 -29q-11 -8 -18 4l-52 97q-6 11 4 16q43 23 100 36.5t114 13.5q59 0 95.5 -19t59.5 -58q24 36 65.5 56.5t87.5 20.5
q44 0 80.5 -17t62 -46.5t38.5 -69.5t11 -86zM586 264q0 14 -13 28.5t-40 14.5q-26 0 -39.5 -12.5t-19.5 -30.5h112zM257 177q-17 -2 -30 -8.5t-13 -27.5q0 -35 31 -35q15 0 23.5 6t13 15t6 19.5t1.5 19.5v14z" />
    <glyph glyph-name="ccedilla" unicode="&#xe7;" horiz-adv-x="495" 
d="M484 333q5 -10 -5 -15l-118 -55q-12 -7 -17 6q-8 14 -23 23.5t-38 9.5q-33 0 -48.5 -23.5t-15.5 -58.5t15.5 -58.5t48.5 -23.5q23 0 38 9.5t23 23.5q5 13 17 6l117 -55q11 -5 5 -16q-34 -60 -85.5 -89t-126.5 -29q-54 0 -99 17t-78 48t-51 73.5t-18 93.5t18 93.5t50.5 73
t77 48t96.5 17.5q75 0 133 -32.5t84 -86.5zM300 10q15 0 12 -15l-10 -35q57 -3 86 -25.5t29 -58.5q0 -43 -41.5 -72t-129.5 -29q-23 0 -46.5 2t-46.5 7q-11 2 -9 14l10 55q3 12 16 9q17 -4 35.5 -6.5t33.5 -2.5q29 0 38 9t9 19q0 14 -16.5 22.5t-70.5 10.5q-15 0 -12 15
l17 72q2 9 12 9h84z" />
    <glyph glyph-name="egrave" unicode="&#xe8;" horiz-adv-x="517" 
d="M495 219q-3 -29 -7 -36.5t-12 -7.5h-266q5 -25 22 -39t46 -14q26 0 47 8t38 22q10 6 17 -1l79 -76q9 -8 0 -17q-43 -37 -91 -53.5t-107 -16.5q-57 0 -101 17t-74 47.5t-45.5 72.5t-15.5 93t17 94t48 74t75 48.5t98 17.5q56 0 101.5 -15t76 -44.5t45.5 -73t9 -100.5z
M320 265q0 9 -1.5 19t-7 18t-16.5 13.5t-30 5.5q-28 0 -42 -16.5t-15 -39.5h112zM332 547q7 -17 -11 -17h-156q-7 0 -10 5l-80 116q-6 8 -3.5 13.5t13.5 5.5h190q8 0 11 -7z" />
    <glyph glyph-name="eacute" unicode="&#xe9;" horiz-adv-x="517" 
d="M495 219q-3 -29 -7 -36.5t-12 -7.5h-266q5 -25 22 -39t46 -14q26 0 47 8t38 22q10 6 17 -1l79 -76q9 -8 0 -17q-43 -37 -91 -53.5t-107 -16.5q-57 0 -101 17t-74 47.5t-45.5 72.5t-15.5 93t17 94t48 74t75 48.5t98 17.5q56 0 101.5 -15t76 -44.5t45.5 -73t9 -100.5z
M320 265q0 9 -1.5 19t-7 18t-16.5 13.5t-30 5.5q-28 0 -42 -16.5t-15 -39.5h112zM226 664q3 6 10 6h191q11 0 14 -5.5t-5 -14.5l-91 -116q-3 -4 -9 -4h-156q-21 0 -11 18z" />
    <glyph glyph-name="ecircumflex" unicode="&#xea;" horiz-adv-x="517" 
d="M495 219q-3 -29 -7 -36.5t-12 -7.5h-266q5 -25 22 -39t46 -14q26 0 47 8t38 22q10 6 17 -1l79 -76q9 -8 0 -17q-43 -37 -91 -53.5t-107 -16.5q-57 0 -101 17t-74 47.5t-45.5 72.5t-15.5 93t17 94t48 74t75 48.5t98 17.5q56 0 101.5 -15t76 -44.5t45.5 -73t9 -100.5z
M320 265q0 9 -1.5 19t-7 18t-16.5 13.5t-30 5.5q-28 0 -42 -16.5t-15 -39.5h112zM432 549q13 -19 -10 -19h-129q-7 0 -11 7l-31 74l-31 -74q-3 -7 -11 -7h-129q-23 0 -10 19l77 116q5 5 10 5h188q5 0 10 -5z" />
    <glyph glyph-name="edieresis" unicode="&#xeb;" horiz-adv-x="517" 
d="M495 219q-3 -29 -7 -36.5t-12 -7.5h-266q5 -25 22 -39t46 -14q26 0 47 8t38 22q10 6 17 -1l79 -76q9 -8 0 -17q-43 -37 -91 -53.5t-107 -16.5q-57 0 -101 17t-74 47.5t-45.5 72.5t-15.5 93t17 94t48 74t75 48.5t98 17.5q56 0 101.5 -15t76 -44.5t45.5 -73t9 -100.5z
M320 265q0 9 -1.5 19t-7 18t-16.5 13.5t-30 5.5q-28 0 -42 -16.5t-15 -39.5h112zM145 690q41 0 63 -24.5t22 -61.5t-22 -61.5t-63 -24.5q-42 0 -64 24.5t-22 61.5t22 61.5t64 24.5zM353 690q42 0 64 -24.5t22 -61.5t-22 -61.5t-64 -24.5t-63.5 24.5t-21.5 61.5t21.5 61.5
t63.5 24.5z" />
    <glyph glyph-name="igrave" unicode="&#xec;" horiz-adv-x="282" 
d="M224 440q12 0 12 -12v-416q0 -12 -12 -12h-166q-12 0 -12 12v416q0 12 12 12h166zM224 547q7 -17 -11 -17h-156q-7 0 -10 5l-80 116q-6 8 -3.5 13.5t13.5 5.5h190q8 0 11 -7z" />
    <glyph glyph-name="iacute" unicode="&#xed;" horiz-adv-x="282" 
d="M224 440q12 0 12 -12v-416q0 -12 -12 -12h-166q-12 0 -12 12v416q0 12 12 12h166zM118 664q3 6 10 6h191q11 0 14 -5.5t-5 -14.5l-91 -116q-3 -4 -9 -4h-156q-21 0 -11 18z" />
    <glyph glyph-name="icircumflex" unicode="&#xee;" horiz-adv-x="282" 
d="M224 440q12 0 12 -12v-416q0 -12 -12 -12h-166q-12 0 -12 12v416q0 12 12 12h166zM324 549q13 -19 -10 -19h-129q-7 0 -11 7l-31 74l-31 -74q-3 -7 -11 -7h-129q-23 0 -10 19l77 116q5 5 10 5h188q5 0 10 -5z" />
    <glyph glyph-name="idieresis" unicode="&#xef;" horiz-adv-x="282" 
d="M224 440q12 0 12 -12v-416q0 -12 -12 -12h-166q-12 0 -12 12v416q0 12 12 12h166zM37 690q41 0 63 -24.5t22 -61.5t-22 -61.5t-63 -24.5q-42 0 -64 24.5t-22 61.5t22 61.5t64 24.5zM245 690q42 0 64 -24.5t22 -61.5t-22 -61.5t-64 -24.5t-63.5 24.5t-21.5 61.5t21.5 61.5
t63.5 24.5z" />
    <glyph glyph-name="eth" unicode="&#xf0;" horiz-adv-x="589" 
d="M142 473q-11 -5 -16 5l-36 67q-6 11 5 17l75 38l-77 122q-5 8 -2 13t11 5h197q7 0 11 -6l28 -47l74 38q11 5 16 -5l36 -68q6 -11 -5 -17l-69 -35l123 -203q24 -40 37.5 -83.5t13.5 -85.5q0 -60 -19.5 -105t-54.5 -75t-85 -45t-111 -15q-57 0 -106 16t-85 47.5t-57 78.5
t-21 108q0 46 16 84.5t43.5 66.5t65.5 44t82 16q17 0 39 -5l-46 72zM294 303q-34 0 -49 -17t-15 -48q0 -29 16.5 -46t47.5 -17q65 0 65 64t-65 64z" />
    <glyph glyph-name="ntilde" unicode="&#xf1;" horiz-adv-x="560" 
d="M178 440q8 0 11 -8l20 -51q28 33 67.5 52t87.5 19q71 0 111.5 -47.5t40.5 -130.5v-262q0 -12 -12 -12h-166q-12 0 -12 12v223q0 8 -1.5 18t-6 18.5t-12.5 14t-22 5.5q-27 0 -37.5 -18t-10.5 -39v-222q0 -12 -12 -12h-166q-12 0 -12 12v416q0 12 12 12h120zM484 680
q12 0 12 -12q-5 -158 -106 -158q-25 0 -44.5 8.5t-35.5 19t-30 19t-27 8.5q-11 0 -18.5 -8t-9.5 -35q0 -12 -12 -12h-101q-12 0 -12 12q2 78 26.5 123t74.5 45q22 0 42 -11t38 -24t33 -24t28 -11q12 0 19.5 9t9.5 39q0 12 12 12h101z" />
    <glyph glyph-name="ograve" unicode="&#xf2;" horiz-adv-x="576" 
d="M288 452q61 0 109.5 -16.5t82.5 -46.5t52.5 -73t18.5 -96q0 -54 -18 -97t-52 -73t-83 -46t-110 -16t-110 16t-83 46t-52 73t-18 97q0 53 18.5 96t52.5 73t82.5 46.5t109.5 16.5zM288 312q-71 0 -71 -92t71 -92t71 92t-71 92zM371 547q7 -17 -11 -17h-156q-7 0 -10 5
l-80 116q-6 8 -3.5 13.5t13.5 5.5h190q8 0 11 -7z" />
    <glyph glyph-name="oacute" unicode="&#xf3;" horiz-adv-x="576" 
d="M288 452q61 0 109.5 -16.5t82.5 -46.5t52.5 -73t18.5 -96q0 -54 -18 -97t-52 -73t-83 -46t-110 -16t-110 16t-83 46t-52 73t-18 97q0 53 18.5 96t52.5 73t82.5 46.5t109.5 16.5zM288 312q-71 0 -71 -92t71 -92t71 92t-71 92zM265 664q3 6 10 6h191q11 0 14 -5.5t-5 -14.5
l-91 -116q-3 -4 -9 -4h-156q-21 0 -11 18z" />
    <glyph glyph-name="ocircumflex" unicode="&#xf4;" horiz-adv-x="576" 
d="M288 452q61 0 109.5 -16.5t82.5 -46.5t52.5 -73t18.5 -96q0 -54 -18 -97t-52 -73t-83 -46t-110 -16t-110 16t-83 46t-52 73t-18 97q0 53 18.5 96t52.5 73t82.5 46.5t109.5 16.5zM288 312q-71 0 -71 -92t71 -92t71 92t-71 92zM471 549q13 -19 -10 -19h-129q-7 0 -11 7
l-31 74l-31 -74q-3 -7 -11 -7h-129q-23 0 -10 19l77 116q5 5 10 5h188q5 0 10 -5z" />
    <glyph glyph-name="otilde" unicode="&#xf5;" horiz-adv-x="576" 
d="M288 452q61 0 109.5 -16.5t82.5 -46.5t52.5 -73t18.5 -96q0 -54 -18 -97t-52 -73t-83 -46t-110 -16t-110 16t-83 46t-52 73t-18 97q0 53 18.5 96t52.5 73t82.5 46.5t109.5 16.5zM288 312q-71 0 -71 -92t71 -92t71 92t-71 92zM473 680q12 0 12 -12q-5 -158 -106 -158
q-25 0 -44.5 8.5t-35.5 19t-30 19t-27 8.5q-11 0 -18.5 -8t-9.5 -35q0 -12 -12 -12h-101q-12 0 -12 12q2 78 26.5 123t74.5 45q22 0 42 -11t38 -24t33 -24t28 -11q12 0 19.5 9t9.5 39q0 12 12 12h101z" />
    <glyph glyph-name="odieresis" unicode="&#xf6;" horiz-adv-x="576" 
d="M288 452q61 0 109.5 -16.5t82.5 -46.5t52.5 -73t18.5 -96q0 -54 -18 -97t-52 -73t-83 -46t-110 -16t-110 16t-83 46t-52 73t-18 97q0 53 18.5 96t52.5 73t82.5 46.5t109.5 16.5zM288 312q-71 0 -71 -92t71 -92t71 92t-71 92zM184 690q41 0 63 -24.5t22 -61.5t-22 -61.5
t-63 -24.5q-42 0 -64 24.5t-22 61.5t22 61.5t64 24.5zM392 690q42 0 64 -24.5t22 -61.5t-22 -61.5t-64 -24.5t-63.5 24.5t-21.5 61.5t21.5 61.5t63.5 24.5z" />
    <glyph glyph-name="divide" unicode="&#xf7;" horiz-adv-x="572" 
d="M287 567q40 0 66 -26t26 -65t-26 -65t-66 -26q-39 0 -66 26t-27 65t27 65t66 26zM514 360q12 0 12 -12v-146q0 -12 -12 -12h-456q-12 0 -12 12v146q0 12 12 12h456zM287 165q40 0 66 -26t26 -65t-26 -65t-66 -26q-39 0 -66 26t-27 65t27 65t66 26z" />
    <glyph glyph-name="oslash" unicode="&#xf8;" horiz-adv-x="576" 
d="M471 509q7 9 16 2l38 -30q10 -7 2 -17l-56 -70q38 -31 59 -75.5t21 -98.5q0 -51 -18.5 -93.5t-52.5 -73t-82.5 -48t-109.5 -17.5q-66 0 -121 22l-64 -81q-9 -10 -17 -2l-37 31q-9 9 -2 17l57 71q-38 31 -58.5 75.5t-20.5 98.5q0 51 18.5 93.5t53 73t83 48t108.5 17.5
q65 0 120 -22zM288 312q-69 0 -69 -92q0 -7 0.5 -13.5t1.5 -12.5l91 114q-5 2 -11 3t-13 1zM264 132q5 -2 11 -3t13 -1q69 0 69 92q0 8 -0.5 14.5t-1.5 12.5z" />
    <glyph glyph-name="ugrave" unicode="&#xf9;" horiz-adv-x="554" 
d="M496 440q12 0 12 -12v-416q0 -12 -12 -12h-120q-8 0 -11 8l-18 47q-26 -32 -62.5 -49.5t-80.5 -17.5q-72 0 -116 47.5t-44 130.5v262q0 12 12 12h166q12 0 12 -12v-223q0 -9 1 -18.5t5 -17.5t11 -13.5t20 -5.5q28 0 37.5 18t9.5 38v222q0 12 12 12h166zM355 547
q7 -17 -11 -17h-156q-7 0 -10 5l-80 116q-6 8 -3.5 13.5t13.5 5.5h190q8 0 11 -7z" />
    <glyph glyph-name="uacute" unicode="&#xfa;" horiz-adv-x="554" 
d="M496 440q12 0 12 -12v-416q0 -12 -12 -12h-120q-8 0 -11 8l-18 47q-26 -32 -62.5 -49.5t-80.5 -17.5q-72 0 -116 47.5t-44 130.5v262q0 12 12 12h166q12 0 12 -12v-223q0 -9 1 -18.5t5 -17.5t11 -13.5t20 -5.5q28 0 37.5 18t9.5 38v222q0 12 12 12h166zM249 664q3 6 10 6
h191q11 0 14 -5.5t-5 -14.5l-91 -116q-3 -4 -9 -4h-156q-21 0 -11 18z" />
    <glyph glyph-name="ucircumflex" unicode="&#xfb;" horiz-adv-x="554" 
d="M496 440q12 0 12 -12v-416q0 -12 -12 -12h-120q-8 0 -11 8l-18 47q-26 -32 -62.5 -49.5t-80.5 -17.5q-72 0 -116 47.5t-44 130.5v262q0 12 12 12h166q12 0 12 -12v-223q0 -9 1 -18.5t5 -17.5t11 -13.5t20 -5.5q28 0 37.5 18t9.5 38v222q0 12 12 12h166zM455 549
q13 -19 -10 -19h-129q-7 0 -11 7l-31 74l-31 -74q-3 -7 -11 -7h-129q-23 0 -10 19l77 116q5 5 10 5h188q5 0 10 -5z" />
    <glyph glyph-name="udieresis" unicode="&#xfc;" horiz-adv-x="554" 
d="M496 440q12 0 12 -12v-416q0 -12 -12 -12h-120q-8 0 -11 8l-18 47q-26 -32 -62.5 -49.5t-80.5 -17.5q-72 0 -116 47.5t-44 130.5v262q0 12 12 12h166q12 0 12 -12v-223q0 -9 1 -18.5t5 -17.5t11 -13.5t20 -5.5q28 0 37.5 18t9.5 38v222q0 12 12 12h166zM168 690
q41 0 63 -24.5t22 -61.5t-22 -61.5t-63 -24.5q-42 0 -64 24.5t-22 61.5t22 61.5t64 24.5zM376 690q42 0 64 -24.5t22 -61.5t-22 -61.5t-64 -24.5t-63.5 24.5t-21.5 61.5t21.5 61.5t63.5 24.5z" />
    <glyph glyph-name="yacute" unicode="&#xfd;" horiz-adv-x="575" 
d="M13 423q-8 17 11 17h190q8 0 11 -8l74 -205l59 204q2 9 11 9h183q18 0 11 -17l-260 -606q-3 -7 -11 -7h-187q-19 0 -11 17l101 197zM272 664q3 6 10 6h191q11 0 14 -5.5t-5 -14.5l-91 -116q-3 -4 -9 -4h-156q-21 0 -11 18z" />
    <glyph glyph-name="thorn" unicode="&#xfe;" horiz-adv-x="580" 
d="M351 452q97 0 150.5 -61.5t53.5 -170.5q0 -54 -14 -97t-40 -73t-63 -46t-83 -16q-74 0 -119 42v-208q0 -12 -12 -12h-166q-12 0 -12 12v906q0 12 12 12h166q12 0 12 -12v-324q46 48 115 48zM300 287q-32 0 -48.5 -18.5t-16.5 -48.5q0 -29 16.5 -48t48.5 -19t46.5 19
t14.5 48q0 30 -14.5 48.5t-46.5 18.5z" />
    <glyph glyph-name="ydieresis" unicode="&#xff;" horiz-adv-x="575" 
d="M13 423q-8 17 11 17h190q8 0 11 -8l74 -205l59 204q2 9 11 9h183q18 0 11 -17l-260 -606q-3 -7 -11 -7h-187q-19 0 -11 17l101 197zM191 690q41 0 63 -24.5t22 -61.5t-22 -61.5t-63 -24.5q-42 0 -64 24.5t-22 61.5t22 61.5t64 24.5zM399 690q42 0 64 -24.5t22 -61.5
t-22 -61.5t-64 -24.5t-63.5 24.5t-21.5 61.5t21.5 61.5t63.5 24.5z" />
    <glyph glyph-name="Amacron" unicode="&#x100;" horiz-adv-x="768" 
d="M416 705q8 0 11 -7l323 -681q4 -8 0.5 -12.5t-11.5 -4.5h-201q-7 0 -11 7l-34 83h-218l-34 -83q-3 -7 -11 -7h-201q-19 0 -11 17l323 681q4 7 11 7h64zM434 250l-49 130l-51 -130h100zM544 786q0 -12 -12 -12h-296q-12 0 -12 12v76q0 12 12 12h296q12 0 12 -12v-76z" />
    <glyph glyph-name="amacron" unicode="&#x101;" horiz-adv-x="519" 
d="M258 452q103 0 159 -49t56 -144v-247q0 -12 -12 -12h-120q-8 0 -11 8l-18 46q-13 -16 -31 -28.5t-39 -21t-42.5 -12.5t-41.5 -4q-67 0 -102.5 34.5t-35.5 100.5q0 57 49 95t135 47l85 9v4q0 26 -18 34t-45 8q-28 0 -58.5 -8.5t-58.5 -25.5q-11 -6 -17 5l-52 99
q-6 11 5 16q50 24 102 35t111 11zM257 177q-17 -2 -30 -8.5t-13 -27.5q0 -35 31 -35q15 0 23.5 6t13 15t6 19.5t1.5 19.5v14zM408 566q0 -12 -12 -12h-296q-12 0 -12 12v76q0 12 12 12h296q12 0 12 -12v-76z" />
    <glyph glyph-name="Abreve" unicode="&#x102;" horiz-adv-x="768" 
d="M416 705q8 0 11 -7l323 -681q4 -8 0.5 -12.5t-11.5 -4.5h-201q-7 0 -11 7l-34 83h-218l-34 -83q-3 -7 -11 -7h-201q-19 0 -11 17l323 681q4 7 11 7h64zM434 250l-49 130l-51 -130h100zM199 878q0 12 12 12h116q12 0 12 -12q2 -38 15 -49t30 -11q18 0 30.5 11t14.5 49
q0 12 12 12h116q12 0 12 -12q-2 -34 -13.5 -63t-34 -50t-56.5 -33t-81 -12t-81 12t-56.5 33t-34 50t-13.5 63z" />
    <glyph glyph-name="abreve" unicode="&#x103;" horiz-adv-x="519" 
d="M258 452q103 0 159 -49t56 -144v-247q0 -12 -12 -12h-120q-8 0 -11 8l-18 46q-13 -16 -31 -28.5t-39 -21t-42.5 -12.5t-41.5 -4q-67 0 -102.5 34.5t-35.5 100.5q0 57 49 95t135 47l85 9v4q0 26 -18 34t-45 8q-28 0 -58.5 -8.5t-58.5 -25.5q-11 -6 -17 5l-52 99
q-6 11 5 16q50 24 102 35t111 11zM257 177q-17 -2 -30 -8.5t-13 -27.5q0 -35 31 -35q15 0 23.5 6t13 15t6 19.5t1.5 19.5v14zM63 658q0 12 12 12h116q12 0 12 -12q2 -38 15 -49t30 -11q18 0 30.5 11t14.5 49q0 12 12 12h116q12 0 12 -12q-2 -34 -13.5 -63t-34 -50t-56.5 -33
t-81 -12t-81 12t-56.5 33t-34 50t-13.5 63z" />
    <glyph glyph-name="Aogonek" unicode="&#x104;" horiz-adv-x="744" 
d="M404 705q8 0 11 -7l323 -681q5 -11 2 -17t-15 -17q-30 -27 -30 -56q0 -26 27 -26q9 0 13 1q12 2 14 -10l17 -82q2 -10 -8 -13q-19 -7 -45.5 -12t-57.5 -5q-38 0 -63 9.5t-40 24.5t-21 33.5t-6 37.5q0 30 14 59t46 56h-59q-7 0 -11 7l-34 83h-218l-34 -83q-3 -7 -11 -7
h-201q-8 0 -11.5 4.5t0.5 12.5l323 681q4 7 11 7h64zM422 250l-49 130l-51 -130h100z" />
    <glyph glyph-name="aogonek" unicode="&#x105;" horiz-adv-x="518" 
d="M263 452q103 0 159 -49t56 -144v-244q0 -9 -5.5 -16.5t-15.5 -15.5q-17 -14 -23.5 -28t-6.5 -28q0 -26 27 -26q9 0 13 1q12 2 14 -10l17 -82q2 -10 -8 -13q-19 -7 -45.5 -12t-57.5 -5q-38 0 -63 9.5t-40 24.5t-21 33.5t-6 37.5q0 34 17 66t59 62l-16 41
q-13 -16 -31 -28.5t-39 -21t-42.5 -12.5t-41.5 -4q-67 0 -102.5 34.5t-35.5 100.5q0 57 49 95t135 47l85 9v4q0 26 -18 34t-45 8q-28 0 -58.5 -8.5t-58.5 -25.5q-11 -6 -17 5l-52 99q-6 11 5 16q50 24 102 35t111 11zM262 177q-17 -2 -30 -8.5t-13 -27.5q0 -35 31 -35
q15 0 23.5 6t13 15t6 19.5t1.5 19.5v14z" />
    <glyph glyph-name="Cacute" unicode="&#x106;" horiz-adv-x="741" 
d="M712 534q5 -11 -6 -16l-157 -69q-10 -4 -16 6q-19 36 -53 53.5t-77 17.5q-71 0 -114 -44.5t-43 -131.5q0 -88 43 -132t115 -44q44 0 78.5 19t53.5 58q5 12 16 7l161 -61q11 -5 7 -15q-36 -93 -121.5 -143.5t-201.5 -50.5q-81 0 -148 25.5t-114.5 72.5t-74 114t-26.5 150
t26.5 150t74.5 114t115 72.5t148 25.5q55 0 103.5 -12t89 -34.5t71.5 -55.5t50 -76zM370 894q3 6 10 6h191q11 0 14 -5.5t-5 -14.5l-91 -116q-3 -4 -9 -4h-156q-21 0 -11 18z" />
    <glyph glyph-name="cacute" unicode="&#x107;" horiz-adv-x="495" 
d="M484 333q5 -10 -5 -15l-118 -55q-12 -7 -17 6q-8 14 -23 23.5t-38 9.5q-33 0 -48.5 -23.5t-15.5 -58.5t15.5 -58.5t48.5 -23.5q23 0 38 9.5t23 23.5q5 13 17 6l117 -55q11 -5 5 -16q-34 -60 -85.5 -89t-126.5 -29q-54 0 -99 17t-78 48t-51 73.5t-18 93.5t18 93.5t50.5 73
t77 48t96.5 17.5q75 0 133 -32.5t84 -86.5zM244 664q3 6 10 6h191q11 0 14 -5.5t-5 -14.5l-91 -116q-3 -4 -9 -4h-156q-21 0 -11 18z" />
    <glyph glyph-name="Ccircumflex" unicode="&#x108;" horiz-adv-x="741" 
d="M712 534q5 -11 -6 -16l-157 -69q-10 -4 -16 6q-19 36 -53 53.5t-77 17.5q-71 0 -114 -44.5t-43 -131.5q0 -88 43 -132t115 -44q44 0 78.5 19t53.5 58q5 12 16 7l161 -61q11 -5 7 -15q-36 -93 -121.5 -143.5t-201.5 -50.5q-81 0 -148 25.5t-114.5 72.5t-74 114t-26.5 150
t26.5 150t74.5 114t115 72.5t148 25.5q55 0 103.5 -12t89 -34.5t71.5 -55.5t50 -76zM576 779q13 -19 -10 -19h-129q-7 0 -11 7l-31 74l-31 -74q-3 -7 -11 -7h-129q-23 0 -10 19l77 116q5 5 10 5h188q5 0 10 -5z" />
    <glyph glyph-name="ccircumflex" unicode="&#x109;" horiz-adv-x="495" 
d="M484 333q5 -10 -5 -15l-118 -55q-12 -7 -17 6q-8 14 -23 23.5t-38 9.5q-33 0 -48.5 -23.5t-15.5 -58.5t15.5 -58.5t48.5 -23.5q23 0 38 9.5t23 23.5q5 13 17 6l117 -55q11 -5 5 -16q-34 -60 -85.5 -89t-126.5 -29q-54 0 -99 17t-78 48t-51 73.5t-18 93.5t18 93.5t50.5 73
t77 48t96.5 17.5q75 0 133 -32.5t84 -86.5zM450 549q13 -19 -10 -19h-129q-7 0 -11 7l-31 74l-31 -74q-3 -7 -11 -7h-129q-23 0 -10 19l77 116q5 5 10 5h188q5 0 10 -5z" />
    <glyph glyph-name="Cdotaccent" unicode="&#x10a;" horiz-adv-x="741" 
d="M712 534q5 -11 -6 -16l-157 -69q-10 -4 -16 6q-19 36 -53 53.5t-77 17.5q-71 0 -114 -44.5t-43 -131.5q0 -88 43 -132t115 -44q44 0 78.5 19t53.5 58q5 12 16 7l161 -61q11 -5 7 -15q-36 -93 -121.5 -143.5t-201.5 -50.5q-81 0 -148 25.5t-114.5 72.5t-74 114t-26.5 150
t26.5 150t74.5 114t115 72.5t148 25.5q55 0 103.5 -12t89 -34.5t71.5 -55.5t50 -76zM393 932q45 0 75 -26t30 -71t-30 -71t-75 -26t-74 26t-29 71t29 71t74 26z" />
    <glyph glyph-name="cdotaccent" unicode="&#x10b;" horiz-adv-x="495" 
d="M484 333q5 -10 -5 -15l-118 -55q-12 -7 -17 6q-8 14 -23 23.5t-38 9.5q-33 0 -48.5 -23.5t-15.5 -58.5t15.5 -58.5t48.5 -23.5q23 0 38 9.5t23 23.5q5 13 17 6l117 -55q11 -5 5 -16q-34 -60 -85.5 -89t-126.5 -29q-54 0 -99 17t-78 48t-51 73.5t-18 93.5t18 93.5t50.5 73
t77 48t96.5 17.5q75 0 133 -32.5t84 -86.5zM267 702q45 0 75 -26t30 -71t-30 -71t-75 -26t-74 26t-29 71t29 71t74 26z" />
    <glyph glyph-name="Ccaron" unicode="&#x10c;" horiz-adv-x="741" 
d="M712 534q5 -11 -6 -16l-157 -69q-10 -4 -16 6q-19 36 -53 53.5t-77 17.5q-71 0 -114 -44.5t-43 -131.5q0 -88 43 -132t115 -44q44 0 78.5 19t53.5 58q5 12 16 7l161 -61q11 -5 7 -15q-36 -93 -121.5 -143.5t-201.5 -50.5q-81 0 -148 25.5t-114.5 72.5t-74 114t-26.5 150
t26.5 150t74.5 114t115 72.5t148 25.5q55 0 103.5 -12t89 -34.5t71.5 -55.5t50 -76zM566 900q23 0 10 -19l-77 -116q-5 -5 -10 -5h-188q-5 0 -10 5l-77 116q-13 19 10 19h129q8 0 11 -7l31 -74l31 74q4 7 11 7h129z" />
    <glyph glyph-name="ccaron" unicode="&#x10d;" horiz-adv-x="495" 
d="M484 333q5 -10 -5 -15l-118 -55q-12 -7 -17 6q-8 14 -23 23.5t-38 9.5q-33 0 -48.5 -23.5t-15.5 -58.5t15.5 -58.5t48.5 -23.5q23 0 38 9.5t23 23.5q5 13 17 6l117 -55q11 -5 5 -16q-34 -60 -85.5 -89t-126.5 -29q-54 0 -99 17t-78 48t-51 73.5t-18 93.5t18 93.5t50.5 73
t77 48t96.5 17.5q75 0 133 -32.5t84 -86.5zM440 670q23 0 10 -19l-77 -116q-5 -5 -10 -5h-188q-5 0 -10 5l-77 116q-13 19 10 19h129q8 0 11 -7l31 -74l31 74q4 7 11 7h129z" />
    <glyph glyph-name="Dcaron" unicode="&#x10e;" horiz-adv-x="750" 
d="M56 688q0 12 12 12h285q90 0 158 -27t113.5 -74t68.5 -110.5t23 -136.5q0 -74 -22.5 -138t-68 -111.5t-113.5 -75t-159 -27.5h-285q-12 0 -12 12v676zM262 186h93q42 0 70.5 13.5t46 36.5t25 53t7.5 63q0 32 -7.5 61.5t-25 52t-46 35.5t-70.5 13h-93v-328zM549 890
q23 0 10 -19l-77 -116q-5 -5 -10 -5h-188q-5 0 -10 5l-77 116q-13 19 10 19h129q8 0 11 -7l31 -74l31 74q4 7 11 7h129z" />
    <glyph glyph-name="dcaron" unicode="&#x10f;" horiz-adv-x="575" 
d="M222 452q37 0 66 -10.5t51 -30.5v317q0 12 12 12h166q12 0 12 -12v-716q0 -12 -12 -12h-119q-9 0 -12 8l-20 62q-23 -40 -58.5 -61t-80.5 -21q-96 0 -149 61t-53 170q0 54 14 97t39.5 73.5t62 46.5t81.5 16zM279 290q-33 0 -46.5 -21.5t-13.5 -49.5q0 -29 13.5 -49
t46.5 -20t48 20t15 49q0 28 -15 49.5t-48 21.5zM651 752q45 0 74 -24.5t29 -78.5q0 -25 -8 -50t-22 -47t-33.5 -39.5t-42.5 -28.5q-7 -4 -14 3l-27 35q-8 12 3 18q27 18 35 45q-38 0 -62 21.5t-24 56.5q0 42 25.5 65.5t66.5 23.5z" />
    <glyph glyph-name="Dcroat" unicode="&#x110;" horiz-adv-x="780" 
d="M86 688q0 12 12 12h295q86 0 152 -27t110.5 -74t67.5 -110.5t23 -136.5q0 -74 -22.5 -138t-67 -111.5t-110.5 -75t-153 -27.5h-295q-12 0 -12 12v272h-48q-12 0 -12 12v106q0 12 12 12h48v274zM402 414q12 0 12 -12v-106q0 -12 -12 -12h-110v-88h93q42 0 70.5 12t46 33
t25 49.5t7.5 61.5q0 32 -7.5 60t-25 48.5t-46 32t-70.5 11.5h-93v-90h110z" />
    <glyph glyph-name="dcroat" unicode="&#x111;" horiz-adv-x="608" 
d="M258 638q0 12 12 12h69v78q0 12 12 12h166q12 0 12 -12v-78h67q12 0 12 -12v-76q0 -12 -12 -12h-67v-538q0 -12 -12 -12h-119q-9 0 -12 8l-20 62q-23 -40 -58.5 -61t-80.5 -21q-96 0 -149 61t-53 170q0 54 14 97t39.5 73.5t62 46.5t81.5 16q37 0 66 -10.5t51 -30.5v139
h-69q-12 0 -12 12v76zM279 290q-33 0 -46.5 -21.5t-13.5 -49.5q0 -29 13.5 -49t46.5 -20t48 20t15 49q0 28 -15 49.5t-48 21.5z" />
    <glyph glyph-name="Emacron" unicode="&#x112;" horiz-adv-x="592" 
d="M56 688q0 12 12 12h471q12 0 12 -12v-162q0 -12 -12 -12h-277v-76h234q12 0 12 -12v-152q0 -12 -12 -12h-234v-76h282q12 0 12 -12v-162q0 -12 -12 -12h-476q-12 0 -12 12v676zM461 786q0 -12 -12 -12h-296q-12 0 -12 12v76q0 12 12 12h296q12 0 12 -12v-76z" />
    <glyph glyph-name="emacron" unicode="&#x113;" horiz-adv-x="517" 
d="M495 219q-3 -29 -7 -36.5t-12 -7.5h-266q5 -25 22 -39t46 -14q26 0 47 8t38 22q10 6 17 -1l79 -76q9 -8 0 -17q-43 -37 -91 -53.5t-107 -16.5q-57 0 -101 17t-74 47.5t-45.5 72.5t-15.5 93t17 94t48 74t75 48.5t98 17.5q56 0 101.5 -15t76 -44.5t45.5 -73t9 -100.5z
M320 265q0 9 -1.5 19t-7 18t-16.5 13.5t-30 5.5q-28 0 -42 -16.5t-15 -39.5h112zM409 566q0 -12 -12 -12h-296q-12 0 -12 12v76q0 12 12 12h296q12 0 12 -12v-76z" />
    <glyph glyph-name="Ebreve" unicode="&#x114;" horiz-adv-x="592" 
d="M56 688q0 12 12 12h471q12 0 12 -12v-162q0 -12 -12 -12h-277v-76h234q12 0 12 -12v-152q0 -12 -12 -12h-234v-76h282q12 0 12 -12v-162q0 -12 -12 -12h-476q-12 0 -12 12v676zM116 878q0 12 12 12h116q12 0 12 -12q2 -38 15 -49t30 -11q18 0 30.5 11t14.5 49q0 12 12 12
h116q12 0 12 -12q-2 -34 -13.5 -63t-34 -50t-56.5 -33t-81 -12t-81 12t-56.5 33t-34 50t-13.5 63z" />
    <glyph glyph-name="ebreve" unicode="&#x115;" horiz-adv-x="517" 
d="M495 219q-3 -29 -7 -36.5t-12 -7.5h-266q5 -25 22 -39t46 -14q26 0 47 8t38 22q10 6 17 -1l79 -76q9 -8 0 -17q-43 -37 -91 -53.5t-107 -16.5q-57 0 -101 17t-74 47.5t-45.5 72.5t-15.5 93t17 94t48 74t75 48.5t98 17.5q56 0 101.5 -15t76 -44.5t45.5 -73t9 -100.5z
M320 265q0 9 -1.5 19t-7 18t-16.5 13.5t-30 5.5q-28 0 -42 -16.5t-15 -39.5h112zM64 658q0 12 12 12h116q12 0 12 -12q2 -38 15 -49t30 -11q18 0 30.5 11t14.5 49q0 12 12 12h116q12 0 12 -12q-2 -34 -13.5 -63t-34 -50t-56.5 -33t-81 -12t-81 12t-56.5 33t-34 50t-13.5 63z
" />
    <glyph glyph-name="Edotaccent" unicode="&#x116;" horiz-adv-x="592" 
d="M56 688q0 12 12 12h471q12 0 12 -12v-162q0 -12 -12 -12h-277v-76h234q12 0 12 -12v-152q0 -12 -12 -12h-234v-76h282q12 0 12 -12v-162q0 -12 -12 -12h-476q-12 0 -12 12v676zM301 922q45 0 75 -26t30 -71t-30 -71t-75 -26t-74 26t-29 71t29 71t74 26z" />
    <glyph glyph-name="edotaccent" unicode="&#x117;" horiz-adv-x="517" 
d="M495 219q-3 -29 -7 -36.5t-12 -7.5h-266q5 -25 22 -39t46 -14q26 0 47 8t38 22q10 6 17 -1l79 -76q9 -8 0 -17q-43 -37 -91 -53.5t-107 -16.5q-57 0 -101 17t-74 47.5t-45.5 72.5t-15.5 93t17 94t48 74t75 48.5t98 17.5q56 0 101.5 -15t76 -44.5t45.5 -73t9 -100.5z
M320 265q0 9 -1.5 19t-7 18t-16.5 13.5t-30 5.5q-28 0 -42 -16.5t-15 -39.5h112zM249 702q45 0 75 -26t30 -71t-30 -71t-75 -26t-74 26t-29 71t29 71t74 26z" />
    <glyph glyph-name="Eogonek" unicode="&#x118;" horiz-adv-x="580" 
d="M50 688q0 12 12 12h471q12 0 12 -12v-162q0 -12 -12 -12h-277v-76h234q12 0 12 -12v-152q0 -12 -12 -12h-234v-76h282q12 0 12 -12v-162q0 -9 -3.5 -14t-15.5 -13q-20 -14 -27 -27.5t-7 -27.5t8 -21.5t21 -7.5q9 0 13 1q12 2 14 -10l17 -82q2 -10 -8 -13
q-19 -7 -45.5 -12t-57.5 -5q-38 0 -63 9.5t-40 24.5t-21 33.5t-6 37.5q0 30 15.5 59.5t57.5 55.5h-340q-12 0 -12 12v676z" />
    <glyph glyph-name="eogonek" unicode="&#x119;" horiz-adv-x="517" 
d="M495 219q-3 -29 -7 -36.5t-12 -7.5h-266q5 -25 22 -39t46 -14q26 0 47 8t38 22q10 6 17 -1l77 -74q9 -8 0 -17q-8 -8 -16 -14.5t-16 -14.5q-26 -25 -35.5 -48t-9.5 -43q0 -21 11 -30t24 -9q9 0 13 1q12 2 14 -10l17 -82q2 -10 -8 -13q-19 -7 -45.5 -12t-57.5 -5
q-60 0 -89 27.5t-29 72.5q0 22 13 53t46 60q-15 -5 -28 -5q-57 0 -101 17t-74 47.5t-45.5 72.5t-15.5 93t17 94t48 74t75 48.5t98 17.5q56 0 101.5 -15t76 -44.5t45.5 -73t9 -100.5zM320 265q0 9 -1.5 19t-7 18t-16.5 13.5t-30 5.5q-28 0 -42 -16.5t-15 -39.5h112z" />
    <glyph glyph-name="Ecaron" unicode="&#x11a;" horiz-adv-x="592" 
d="M56 688q0 12 12 12h471q12 0 12 -12v-162q0 -12 -12 -12h-277v-76h234q12 0 12 -12v-152q0 -12 -12 -12h-234v-76h282q12 0 12 -12v-162q0 -12 -12 -12h-476q-12 0 -12 12v676zM474 890q23 0 10 -19l-77 -116q-5 -5 -10 -5h-188q-5 0 -10 5l-77 116q-13 19 10 19h129
q8 0 11 -7l31 -74l31 74q4 7 11 7h129z" />
    <glyph glyph-name="ecaron" unicode="&#x11b;" horiz-adv-x="517" 
d="M495 219q-3 -29 -7 -36.5t-12 -7.5h-266q5 -25 22 -39t46 -14q26 0 47 8t38 22q10 6 17 -1l79 -76q9 -8 0 -17q-43 -37 -91 -53.5t-107 -16.5q-57 0 -101 17t-74 47.5t-45.5 72.5t-15.5 93t17 94t48 74t75 48.5t98 17.5q56 0 101.5 -15t76 -44.5t45.5 -73t9 -100.5z
M320 265q0 9 -1.5 19t-7 18t-16.5 13.5t-30 5.5q-28 0 -42 -16.5t-15 -39.5h112zM422 670q23 0 10 -19l-77 -116q-5 -5 -10 -5h-188q-5 0 -10 5l-77 116q-13 19 10 19h129q8 0 11 -7l31 -74l31 74q4 7 11 7h129z" />
    <glyph glyph-name="Gcircumflex" unicode="&#x11c;" horiz-adv-x="808" 
d="M420 261q-12 0 -12 12v126q0 12 12 12h339q11 0 11 -10q2 -17 3 -32t1 -28q0 -80 -26 -145t-73 -111.5t-114 -71.5t-148 -25q-87 0 -157 25.5t-119.5 72.5t-76 114t-26.5 150q0 82 26 149t74 114t116 73t152 26q57 0 108 -12t94 -34.5t76 -55.5t52 -76q5 -11 -6 -16
l-159 -70q-11 -5 -16 6q-19 35 -54.5 53.5t-83.5 18.5q-79 0 -123 -47.5t-44 -133.5q0 -85 43.5 -131t128.5 -46q52 0 90.5 25.5t49.5 67.5h-138zM591 779q13 -19 -10 -19h-129q-7 0 -11 7l-31 74l-31 -74q-3 -7 -11 -7h-129q-23 0 -10 19l77 116q5 5 10 5h188q5 0 10 -5z
" />
    <glyph glyph-name="gcircumflex" unicode="&#x11d;" horiz-adv-x="534" 
d="M512 312q0 -12 -12 -12l-89 -1q11 -10 17 -25t6 -41q0 -21 -11.5 -41.5t-33.5 -36.5t-54 -25.5t-73 -9.5q-18 0 -34.5 1.5t-32.5 3.5q-5 -5 -5 -14q0 -12 9.5 -17.5t29.5 -8.5l97 -14q42 -6 75 -14.5t55.5 -22.5t34 -34t11.5 -50q0 -37 -20.5 -65t-57.5 -47t-88.5 -28.5
t-112.5 -9.5q-228 0 -228 125q0 59 62 97q-20 23 -20 58q0 52 50 85q-61 44 -61 121t51.5 121.5t147.5 44.5q25 0 52.5 -3t50.5 -9h172q12 0 12 -12v-116zM251 331q-24 0 -36 -13.5t-12 -32.5q0 -18 13.5 -31t34.5 -13q24 0 36.5 12.5t12.5 31.5t-12.5 32.5t-36.5 13.5z
M179 -31q-6 -12 -6 -25q0 -20 14 -30.5t52 -10.5q35 0 56.5 5.5t21.5 19.5q0 8 -5.5 14t-28.5 10zM429 549q13 -19 -10 -19h-129q-7 0 -11 7l-31 74l-31 -74q-3 -7 -11 -7h-129q-23 0 -10 19l77 116q5 5 10 5h188q5 0 10 -5z" />
    <glyph glyph-name="Gbreve" unicode="&#x11e;" horiz-adv-x="808" 
d="M420 261q-12 0 -12 12v126q0 12 12 12h339q11 0 11 -10q2 -17 3 -32t1 -28q0 -80 -26 -145t-73 -111.5t-114 -71.5t-148 -25q-87 0 -157 25.5t-119.5 72.5t-76 114t-26.5 150q0 82 26 149t74 114t116 73t152 26q57 0 108 -12t94 -34.5t76 -55.5t52 -76q5 -11 -6 -16
l-159 -70q-11 -5 -16 6q-19 35 -54.5 53.5t-83.5 18.5q-79 0 -123 -47.5t-44 -133.5q0 -85 43.5 -131t128.5 -46q52 0 90.5 25.5t49.5 67.5h-138zM223 888q0 12 12 12h116q12 0 12 -12q2 -38 15 -49t30 -11q18 0 30.5 11t14.5 49q0 12 12 12h116q12 0 12 -12
q-2 -34 -13.5 -63t-34 -50t-56.5 -33t-81 -12t-81 12t-56.5 33t-34 50t-13.5 63z" />
    <glyph glyph-name="gbreve" unicode="&#x11f;" horiz-adv-x="534" 
d="M512 312q0 -12 -12 -12l-89 -1q11 -10 17 -25t6 -41q0 -21 -11.5 -41.5t-33.5 -36.5t-54 -25.5t-73 -9.5q-18 0 -34.5 1.5t-32.5 3.5q-5 -5 -5 -14q0 -12 9.5 -17.5t29.5 -8.5l97 -14q42 -6 75 -14.5t55.5 -22.5t34 -34t11.5 -50q0 -37 -20.5 -65t-57.5 -47t-88.5 -28.5
t-112.5 -9.5q-228 0 -228 125q0 59 62 97q-20 23 -20 58q0 52 50 85q-61 44 -61 121t51.5 121.5t147.5 44.5q25 0 52.5 -3t50.5 -9h172q12 0 12 -12v-116zM251 331q-24 0 -36 -13.5t-12 -32.5q0 -18 13.5 -31t34.5 -13q24 0 36.5 12.5t12.5 31.5t-12.5 32.5t-36.5 13.5z
M179 -31q-6 -12 -6 -25q0 -20 14 -30.5t52 -10.5q35 0 56.5 5.5t21.5 19.5q0 8 -5.5 14t-28.5 10zM61 658q0 12 12 12h116q12 0 12 -12q2 -38 15 -49t30 -11q18 0 30.5 11t14.5 49q0 12 12 12h116q12 0 12 -12q-2 -34 -13.5 -63t-34 -50t-56.5 -33t-81 -12t-81 12t-56.5 33
t-34 50t-13.5 63z" />
    <glyph glyph-name="Gdotaccent" unicode="&#x120;" horiz-adv-x="808" 
d="M420 261q-12 0 -12 12v126q0 12 12 12h339q11 0 11 -10q2 -17 3 -32t1 -28q0 -80 -26 -145t-73 -111.5t-114 -71.5t-148 -25q-87 0 -157 25.5t-119.5 72.5t-76 114t-26.5 150q0 82 26 149t74 114t116 73t152 26q57 0 108 -12t94 -34.5t76 -55.5t52 -76q5 -11 -6 -16
l-159 -70q-11 -5 -16 6q-19 35 -54.5 53.5t-83.5 18.5q-79 0 -123 -47.5t-44 -133.5q0 -85 43.5 -131t128.5 -46q52 0 90.5 25.5t49.5 67.5h-138zM408 932q45 0 75 -26t30 -71t-30 -71t-75 -26t-74 26t-29 71t29 71t74 26z" />
    <glyph glyph-name="gdotaccent" unicode="&#x121;" horiz-adv-x="534" 
d="M512 312q0 -12 -12 -12l-89 -1q11 -10 17 -25t6 -41q0 -21 -11.5 -41.5t-33.5 -36.5t-54 -25.5t-73 -9.5q-18 0 -34.5 1.5t-32.5 3.5q-5 -5 -5 -14q0 -12 9.5 -17.5t29.5 -8.5l97 -14q42 -6 75 -14.5t55.5 -22.5t34 -34t11.5 -50q0 -37 -20.5 -65t-57.5 -47t-88.5 -28.5
t-112.5 -9.5q-228 0 -228 125q0 59 62 97q-20 23 -20 58q0 52 50 85q-61 44 -61 121t51.5 121.5t147.5 44.5q25 0 52.5 -3t50.5 -9h172q12 0 12 -12v-116zM251 331q-24 0 -36 -13.5t-12 -32.5q0 -18 13.5 -31t34.5 -13q24 0 36.5 12.5t12.5 31.5t-12.5 32.5t-36.5 13.5z
M179 -31q-6 -12 -6 -25q0 -20 14 -30.5t52 -10.5q35 0 56.5 5.5t21.5 19.5q0 8 -5.5 14t-28.5 10zM246 702q45 0 75 -26t30 -71t-30 -71t-75 -26t-74 26t-29 71t29 71t74 26z" />
    <glyph glyph-name="uni0122" unicode="&#x122;" horiz-adv-x="808" 
d="M420 261q-12 0 -12 12v126q0 12 12 12h339q11 0 11 -10q2 -17 3 -32t1 -28q0 -80 -26 -145t-73 -111.5t-114 -71.5t-148 -25q-87 0 -157 25.5t-119.5 72.5t-76 114t-26.5 150q0 82 26 149t74 114t116 73t152 26q57 0 108 -12t94 -34.5t76 -55.5t52 -76q5 -11 -6 -16
l-159 -70q-11 -5 -16 6q-19 35 -54.5 53.5t-83.5 18.5q-79 0 -123 -47.5t-44 -133.5q0 -85 43.5 -131t128.5 -46q52 0 90.5 25.5t49.5 67.5h-138zM414 -30q41 0 65 -18t24 -57q0 -23 -10.5 -41.5t-25.5 -33t-32 -24.5t-31 -14q-9 -3 -14 2l-26 26q-10 10 2 19q16 11 24 28
q-29 -3 -44.5 11.5t-15.5 36.5q0 30 23 47.5t61 17.5z" />
    <glyph glyph-name="uni0123" unicode="&#x123;" horiz-adv-x="534" 
d="M512 312q0 -12 -12 -12l-89 -1q11 -10 17 -25t6 -41q0 -21 -11.5 -41.5t-33.5 -36.5t-54 -25.5t-73 -9.5q-18 0 -34.5 1.5t-32.5 3.5q-5 -5 -5 -14q0 -12 9.5 -17.5t29.5 -8.5l97 -14q42 -6 75 -14.5t55.5 -22.5t34 -34t11.5 -50q0 -37 -20.5 -65t-57.5 -47t-88.5 -28.5
t-112.5 -9.5q-228 0 -228 125q0 59 62 97q-20 23 -20 58q0 52 50 85q-61 44 -61 121t51.5 121.5t147.5 44.5q25 0 52.5 -3t50.5 -9h172q12 0 12 -12v-116zM251 331q-24 0 -36 -13.5t-12 -32.5q0 -18 13.5 -31t34.5 -13q24 0 36.5 12.5t12.5 31.5t-12.5 32.5t-36.5 13.5z
M179 -31q-6 -12 -6 -25q0 -20 14 -30.5t52 -10.5q35 0 56.5 5.5t21.5 19.5q0 8 -5.5 14t-28.5 10zM245 530q-45 0 -75 24.5t-30 78.5q0 26 8 50.5t22 46.5t33.5 39.5t42.5 28.5q7 4 14 -3l27 -35q8 -12 -3 -18q-27 -18 -35 -45q42 0 66.5 -21.5t24.5 -56.5
q0 -42 -25.5 -65.5t-69.5 -23.5z" />
    <glyph glyph-name="Hcircumflex" unicode="&#x124;" horiz-adv-x="732" 
d="M664 700q12 0 12 -12v-676q0 -12 -12 -12h-182q-12 0 -12 12v238h-208v-238q0 -12 -12 -12h-182q-12 0 -12 12v676q0 12 12 12h182q12 0 12 -12v-248h208v248q0 12 12 12h182zM549 769q13 -19 -10 -19h-129q-7 0 -11 7l-31 74l-31 -74q-3 -7 -11 -7h-129q-23 0 -10 19
l77 116q5 5 10 5h188q5 0 10 -5z" />
    <glyph glyph-name="hcircumflex" unicode="&#x125;" horiz-adv-x="560" 
d="M224 740q12 0 12 -12v-322q26 22 59 34t71 12q70 0 110 -48.5t40 -131.5v-260q0 -12 -12 -12h-166q-12 0 -12 12v221q0 8 -1.5 18t-6 19t-12.5 15t-21 6q-28 0 -38.5 -19t-10.5 -40v-220q0 -12 -12 -12h-166q-12 0 -12 12v716q0 12 12 12h166zM325 789q13 -19 -10 -19
h-129q-7 0 -11 7l-31 74l-31 -74q-3 -7 -11 -7h-129q-23 0 -10 19l77 116q5 5 10 5h188q5 0 10 -5z" />
    <glyph glyph-name="Hbar" unicode="&#x126;" horiz-adv-x="792" 
d="M38 509q-12 0 -12 12v96q0 12 12 12h48v59q0 12 12 12h182q12 0 12 -12v-59h208v59q0 12 12 12h182q12 0 12 -12v-59h48q12 0 12 -12v-96q0 -12 -12 -12h-48v-497q0 -12 -12 -12h-182q-12 0 -12 12v238h-208v-238q0 -12 -12 -12h-182q-12 0 -12 12v497h-48zM500 440v69
h-208v-69h208z" />
    <glyph glyph-name="hbar" unicode="&#x127;" horiz-adv-x="573" 
d="M0 638q0 12 12 12h47v78q0 12 12 12h166q12 0 12 -12v-78h89q12 0 12 -12v-76q0 -12 -12 -12h-89v-144q26 22 59 34t71 12q70 0 110 -48.5t40 -131.5v-260q0 -12 -12 -12h-166q-12 0 -12 12v221q0 8 -1.5 18t-6 19t-12.5 15t-21 6q-28 0 -38.5 -19t-10.5 -40v-220
q0 -12 -12 -12h-166q-12 0 -12 12v538h-47q-12 0 -12 12v76z" />
    <glyph glyph-name="Itilde" unicode="&#x128;" horiz-adv-x="316" 
d="M248 700q12 0 12 -12v-676q0 -12 -12 -12h-180q-12 0 -12 12v676q0 12 12 12h180zM343 900q12 0 12 -12q-5 -158 -106 -158q-25 0 -44.5 8.5t-35.5 19t-30 19t-27 8.5q-11 0 -18.5 -8t-9.5 -35q0 -12 -12 -12h-101q-12 0 -12 12q2 78 26.5 123t74.5 45q22 0 42 -11
t38 -24t33 -24t28 -11q12 0 19.5 9t9.5 39q0 12 12 12h101z" />
    <glyph glyph-name="itilde" unicode="&#x129;" horiz-adv-x="282" 
d="M224 440q12 0 12 -12v-416q0 -12 -12 -12h-166q-12 0 -12 12v416q0 12 12 12h166zM326 680q12 0 12 -12q-5 -158 -106 -158q-25 0 -44.5 8.5t-35.5 19t-30 19t-27 8.5q-11 0 -18.5 -8t-9.5 -35q0 -12 -12 -12h-101q-12 0 -12 12q2 78 26.5 123t74.5 45q22 0 42 -11
t38 -24t33 -24t28 -11q12 0 19.5 9t9.5 39q0 12 12 12h101z" />
    <glyph glyph-name="Imacron" unicode="&#x12a;" horiz-adv-x="316" 
d="M248 700q12 0 12 -12v-676q0 -12 -12 -12h-180q-12 0 -12 12v676q0 12 12 12h180zM318 786q0 -12 -12 -12h-296q-12 0 -12 12v76q0 12 12 12h296q12 0 12 -12v-76z" />
    <glyph glyph-name="imacron" unicode="&#x12b;" horiz-adv-x="282" 
d="M224 440q12 0 12 -12v-416q0 -12 -12 -12h-166q-12 0 -12 12v416q0 12 12 12h166zM301 566q0 -12 -12 -12h-296q-12 0 -12 12v76q0 12 12 12h296q12 0 12 -12v-76z" />
    <glyph glyph-name="Ibreve" unicode="&#x12c;" horiz-adv-x="316" 
d="M248 700q12 0 12 -12v-676q0 -12 -12 -12h-180q-12 0 -12 12v676q0 12 12 12h180zM-27 878q0 12 12 12h116q12 0 12 -12q2 -38 15 -49t30 -11q18 0 30.5 11t14.5 49q0 12 12 12h116q12 0 12 -12q-2 -34 -13.5 -63t-34 -50t-56.5 -33t-81 -12t-81 12t-56.5 33t-34 50
t-13.5 63z" />
    <glyph glyph-name="ibreve" unicode="&#x12d;" horiz-adv-x="282" 
d="M224 440q12 0 12 -12v-416q0 -12 -12 -12h-166q-12 0 -12 12v416q0 12 12 12h166zM-44 658q0 12 12 12h116q12 0 12 -12q2 -38 15 -49t30 -11q18 0 30.5 11t14.5 49q0 12 12 12h116q12 0 12 -12q-2 -34 -13.5 -63t-34 -50t-56.5 -33t-81 -12t-81 12t-56.5 33t-34 50
t-13.5 63z" />
    <glyph glyph-name="Iogonek" unicode="&#x12e;" horiz-adv-x="316" 
d="M248 700q12 0 12 -12v-676q0 -12 -12 -12h-180q-12 0 -12 12v676q0 12 12 12h180zM249 -98q12 2 14 -10l17 -82q2 -10 -8 -13q-19 -7 -45.5 -12t-57.5 -5q-38 0 -63 9.5t-40 24.5t-21 33.5t-6 37.5q0 38 21.5 73.5t74.5 67.5q5 2 9 1l89 -21q24 -6 6 -23q-30 -27 -30 -56
q0 -26 27 -26q9 0 13 1z" />
    <glyph glyph-name="iogonek" unicode="&#x12f;" horiz-adv-x="270" 
d="M135 700q42 0 72.5 -22.5t30.5 -72.5q0 -49 -30.5 -72t-72.5 -23t-71.5 23t-29.5 72q0 50 30 72.5t71 22.5zM218 440q12 0 12 -12v-422q0 -5 -5 -10q-46 -35 -46 -69q0 -26 27 -26q9 0 13 1q12 2 14 -10l17 -82q2 -10 -8 -13q-19 -7 -45.5 -12t-57.5 -5q-38 0 -63 9.5
t-40 24.5t-21 33.5t-6 37.5q0 31 8 55.5t23 47.5v440q0 12 12 12h166z" />
    <glyph glyph-name="Idotaccent" unicode="&#x130;" horiz-adv-x="316" 
d="M248 700q12 0 12 -12v-676q0 -12 -12 -12h-180q-12 0 -12 12v676q0 12 12 12h180zM158 922q45 0 75 -26t30 -71t-30 -71t-75 -26t-74 26t-29 71t29 71t74 26z" />
    <glyph glyph-name="dotlessi" unicode="&#x131;" horiz-adv-x="282" 
d="M224 440q12 0 12 -12v-416q0 -12 -12 -12h-166q-12 0 -12 12v416q0 12 12 12h166z" />
    <glyph glyph-name="IJ" unicode="&#x132;" horiz-adv-x="626" 
d="M248 700q12 0 12 -12v-546q0 -12 -12 -12h-180q-12 0 -12 12v546q0 12 12 12h180zM558 700q12 0 12 -12v-608q0 -134 -63.5 -197t-193.5 -63q-257 0 -257 228q0 12 12 12h180q12 0 12 -12q2 -27 14 -37.5t40 -10.5q30 0 41 13t11 51v624q0 12 12 12h180z" />
    <glyph glyph-name="ij" unicode="&#x133;" horiz-adv-x="564" 
d="M224 440q12 0 12 -12v-416q0 -12 -12 -12h-166q-12 0 -12 12v416q0 12 12 12h166zM141 702q45 0 75 -26t30 -71t-30 -71t-75 -26t-74 26t-29 71t29 71t74 26zM506 440q12 0 12 -12v-381q0 -115 -52 -174.5t-165 -62.5q-12 0 -12 12v155q0 11 12 13q17 3 22 15t5 29v394
q0 12 12 12h166zM423 702q45 0 75 -26t30 -71t-30 -71t-75 -26t-74 26t-29 71t29 71t74 26z" />
    <glyph glyph-name="Jcircumflex" unicode="&#x134;" horiz-adv-x="316" 
d="M248 700q12 0 12 -12v-608q0 -66 -21 -114.5t-58.5 -80t-89 -48t-113.5 -17.5q-12 0 -12 12v156q0 12 12 12q36 2 57 20t21 60v608q0 12 12 12h180zM340 769q13 -19 -10 -19h-129q-7 0 -11 7l-31 74l-31 -74q-3 -7 -11 -7h-129q-23 0 -10 19l77 116q5 5 10 5h188
q5 0 10 -5z" />
    <glyph glyph-name="jcircumflex" unicode="&#x135;" horiz-adv-x="282" 
d="M224 440q12 0 12 -12v-381q0 -115 -52 -174.5t-165 -62.5q-12 0 -12 12v155q0 11 12 13q17 3 22 15t5 29v394q0 12 12 12h166zM324 549q13 -19 -10 -19h-129q-7 0 -11 7l-31 74l-31 -74q-3 -7 -11 -7h-129q-23 0 -10 19l77 116q5 5 10 5h188q5 0 10 -5z" />
    <glyph glyph-name="uni0136" unicode="&#x136;" horiz-adv-x="733" 
d="M56 688q0 12 12 12h182q12 0 12 -12v-280l223 283q7 9 18 9h213q26 0 9 -20l-261 -306l268 -355q6 -8 3.5 -13.5t-13.5 -5.5h-233q-10 0 -15 8l-212 306v-302q0 -12 -12 -12h-182q-12 0 -12 12v676zM362 -30q41 0 65 -18t24 -57q0 -23 -10.5 -41.5t-25.5 -33t-32 -24.5
t-31 -14q-9 -3 -14 2l-26 26q-10 10 2 19q16 11 24 28q-29 -3 -44.5 11.5t-15.5 36.5q0 30 23 47.5t61 17.5z" />
    <glyph glyph-name="uni0137" unicode="&#x137;" horiz-adv-x="616" 
d="M46 728q0 12 12 12h166q12 0 12 -12v-463l116 170q4 5 10 5h218q5 0 7 -4t-2 -9l-165 -190l177 -225q3 -4 2 -8t-6 -4h-223q-6 0 -10 5l-124 182v-175q0 -12 -12 -12h-166q-12 0 -12 12v716zM294 -30q41 0 65 -18t24 -57q0 -23 -10.5 -41.5t-25.5 -33t-32 -24.5t-31 -14
q-9 -3 -14 2l-26 26q-10 10 2 19q16 11 24 28q-29 -3 -44.5 11.5t-15.5 36.5q0 30 23 47.5t61 17.5z" />
    <glyph glyph-name="kgreenlandic" unicode="&#x138;" horiz-adv-x="616" 
d="M46 428q0 12 12 12h166q12 0 12 -12v-163l116 170q4 5 10 5h218q5 0 7 -4t-2 -9l-165 -190l177 -225q3 -4 2 -8t-6 -4h-223q-6 0 -10 5l-124 182v-175q0 -12 -12 -12h-166q-12 0 -12 12v416z" />
    <glyph glyph-name="Lacute" unicode="&#x139;" horiz-adv-x="582" 
d="M250 700q12 0 12 -12v-498h282q12 0 12 -12v-166q0 -12 -12 -12h-476q-12 0 -12 12v676q0 12 12 12h182zM137 884q3 6 10 6h191q11 0 14 -5.5t-5 -14.5l-91 -116q-3 -4 -9 -4h-156q-21 0 -11 18z" />
    <glyph glyph-name="lacute" unicode="&#x13a;" horiz-adv-x="277" 
d="M231 12q0 -12 -12 -12h-161q-12 0 -12 12v716q0 12 12 12h161q12 0 12 -12v-716zM114 904q3 6 10 6h191q11 0 14 -5.5t-5 -14.5l-91 -116q-3 -4 -9 -4h-156q-21 0 -11 18z" />
    <glyph glyph-name="uni013B" unicode="&#x13b;" horiz-adv-x="582" 
d="M250 700q12 0 12 -12v-498h282q12 0 12 -12v-166q0 -12 -12 -12h-476q-12 0 -12 12v676q0 12 12 12h182zM311 -30q41 0 65 -18t24 -57q0 -23 -10.5 -41.5t-25.5 -33t-32 -24.5t-31 -14q-9 -3 -14 2l-26 26q-10 10 2 19q16 11 24 28q-29 -3 -44.5 11.5t-15.5 36.5
q0 30 23 47.5t61 17.5z" />
    <glyph glyph-name="uni013C" unicode="&#x13c;" horiz-adv-x="277" 
d="M231 12q0 -12 -12 -12h-161q-12 0 -12 12v716q0 12 12 12h161q12 0 12 -12v-716zM140 -30q41 0 65 -18t24 -57q0 -23 -10.5 -41.5t-25.5 -33t-32 -24.5t-31 -14q-9 -3 -14 2l-26 26q-10 10 2 19q16 11 24 28q-29 -3 -44.5 11.5t-15.5 36.5q0 30 23 47.5t61 17.5z" />
    <glyph glyph-name="Lcaron" unicode="&#x13d;" horiz-adv-x="582" 
d="M250 700q12 0 12 -12v-498h282q12 0 12 -12v-166q0 -12 -12 -12h-476q-12 0 -12 12v676q0 12 12 12h182zM433 712q45 0 74 -24.5t29 -78.5q0 -25 -8 -50t-22 -47t-33.5 -39.5t-42.5 -28.5q-7 -4 -14 3l-27 35q-8 12 3 18q27 18 35 45q-38 0 -62 21.5t-24 56.5
q0 42 25.5 65.5t66.5 23.5z" />
    <glyph glyph-name="lcaron" unicode="&#x13e;" horiz-adv-x="277" 
d="M231 12q0 -12 -12 -12h-161q-12 0 -12 12v716q0 12 12 12h161q12 0 12 -12v-716zM353 752q45 0 74 -24.5t29 -78.5q0 -25 -8 -50t-22 -47t-33.5 -39.5t-42.5 -28.5q-7 -4 -14 3l-27 35q-8 12 3 18q27 18 35 45q-38 0 -62 21.5t-24 56.5q0 42 25.5 65.5t66.5 23.5z" />
    <glyph glyph-name="Ldot" unicode="&#x13f;" horiz-adv-x="582" 
d="M250 700q12 0 12 -12v-498h282q12 0 12 -12v-166q0 -12 -12 -12h-476q-12 0 -12 12v676q0 12 12 12h182zM446 538q22 0 41.5 -8.5t34.5 -23.5t23.5 -34.5t8.5 -41.5t-8.5 -41.5t-23.5 -34.5t-34.5 -23.5t-41.5 -8.5t-42 8.5t-34.5 23.5t-23 34.5t-8.5 41.5t8.5 41.5
t23.5 34.5t34.5 23.5t41.5 8.5z" />
    <glyph glyph-name="ldot" unicode="&#x140;" horiz-adv-x="573" 
d="M231 12q0 -12 -12 -12h-161q-12 0 -12 12v716q0 12 12 12h161q12 0 12 -12v-716zM388 478q22 0 41.5 -8.5t34.5 -23.5t23.5 -34.5t8.5 -41.5t-8.5 -41.5t-23.5 -34.5t-34.5 -23.5t-41.5 -8.5t-42 8.5t-34.5 23.5t-23 34.5t-8.5 41.5t8.5 41.5t23.5 34.5t34.5 23.5
t41.5 8.5z" />
    <glyph glyph-name="Lslash" unicode="&#x141;" horiz-adv-x="634" 
d="M59 232q-11 -5 -16 6l-35 81q-5 11 6 16l94 41v312q0 12 12 12h182q12 0 12 -12v-221l115 50q11 5 16 -6l35 -81q5 -11 -6 -16l-160 -70v-154h282q12 0 12 -12v-166q0 -12 -12 -12h-476q-12 0 -12 12v242z" />
    <glyph glyph-name="lslash" unicode="&#x142;" horiz-adv-x="265" 
d="M2 254q-11 -6 -16 4l-30 48q-7 11 4 16l80 51v355q0 12 12 12h161q12 0 12 -12v-238l38 24q11 6 16 -4l30 -48q7 -10 -4 -16l-80 -51v-383q0 -12 -12 -12h-161q-12 0 -12 12v266z" />
    <glyph glyph-name="Nacute" unicode="&#x143;" horiz-adv-x="752" 
d="M684 700q12 0 12 -12v-681q0 -12 -12 -12h-60q-8 0 -13 5l-349 338v-326q0 -12 -12 -12h-182q-12 0 -12 12v681q0 12 12 12h57q11 0 18 -7l347 -338v328q0 12 12 12h182zM331 884q3 6 10 6h191q11 0 14 -5.5t-5 -14.5l-91 -116q-3 -4 -9 -4h-156q-21 0 -11 18z" />
    <glyph glyph-name="nacute" unicode="&#x144;" horiz-adv-x="560" 
d="M178 440q8 0 11 -8l20 -51q28 33 67.5 52t87.5 19q71 0 111.5 -47.5t40.5 -130.5v-262q0 -12 -12 -12h-166q-12 0 -12 12v223q0 8 -1.5 18t-6 18.5t-12.5 14t-22 5.5q-27 0 -37.5 -18t-10.5 -39v-222q0 -12 -12 -12h-166q-12 0 -12 12v416q0 12 12 12h120zM276 664
q3 6 10 6h191q11 0 14 -5.5t-5 -14.5l-91 -116q-3 -4 -9 -4h-156q-21 0 -11 18z" />
    <glyph glyph-name="uni0145" unicode="&#x145;" horiz-adv-x="752" 
d="M684 700q12 0 12 -12v-681q0 -12 -12 -12h-60q-8 0 -13 5l-349 338v-326q0 -12 -12 -12h-182q-12 0 -12 12v681q0 12 12 12h57q11 0 18 -7l347 -338v328q0 12 12 12h182zM404 -30q41 0 65 -18t24 -57q0 -23 -10.5 -41.5t-25.5 -33t-32 -24.5t-31 -14q-9 -3 -14 2l-26 26
q-10 10 2 19q16 11 24 28q-29 -3 -44.5 11.5t-15.5 36.5q0 30 23 47.5t61 17.5z" />
    <glyph glyph-name="uni0146" unicode="&#x146;" horiz-adv-x="560" 
d="M178 440q8 0 11 -8l20 -51q28 33 67.5 52t87.5 19q71 0 111.5 -47.5t40.5 -130.5v-262q0 -12 -12 -12h-166q-12 0 -12 12v223q0 8 -1.5 18t-6 18.5t-12.5 14t-22 5.5q-27 0 -37.5 -18t-10.5 -39v-222q0 -12 -12 -12h-166q-12 0 -12 12v416q0 12 12 12h120zM289 -30
q41 0 65 -18t24 -57q0 -23 -10.5 -41.5t-25.5 -33t-32 -24.5t-31 -14q-9 -3 -14 2l-26 26q-10 10 2 19q16 11 24 28q-29 -3 -44.5 11.5t-15.5 36.5q0 30 23 47.5t61 17.5z" />
    <glyph glyph-name="Ncaron" unicode="&#x147;" horiz-adv-x="752" 
d="M684 700q12 0 12 -12v-681q0 -12 -12 -12h-60q-8 0 -13 5l-349 338v-326q0 -12 -12 -12h-182q-12 0 -12 12v681q0 12 12 12h57q11 0 18 -7l347 -338v328q0 12 12 12h182zM527 890q23 0 10 -19l-77 -116q-5 -5 -10 -5h-188q-5 0 -10 5l-77 116q-13 19 10 19h129q8 0 11 -7
l31 -74l31 74q4 7 11 7h129z" />
    <glyph glyph-name="ncaron" unicode="&#x148;" horiz-adv-x="560" 
d="M178 440q8 0 11 -8l20 -51q28 33 67.5 52t87.5 19q71 0 111.5 -47.5t40.5 -130.5v-262q0 -12 -12 -12h-166q-12 0 -12 12v223q0 8 -1.5 18t-6 18.5t-12.5 14t-22 5.5q-27 0 -37.5 -18t-10.5 -39v-222q0 -12 -12 -12h-166q-12 0 -12 12v416q0 12 12 12h120zM472 670
q23 0 10 -19l-77 -116q-5 -5 -10 -5h-188q-5 0 -10 5l-77 116q-13 19 10 19h129q8 0 11 -7l31 -74l31 74q4 7 11 7h129z" />
    <glyph glyph-name="napostrophe" unicode="&#x149;" horiz-adv-x="560" 
d="M178 440q8 0 11 -8l20 -51q28 33 67.5 52t87.5 19q71 0 111.5 -47.5t40.5 -130.5v-262q0 -12 -12 -12h-166q-12 0 -12 12v223q0 8 -1.5 18t-6 18.5t-12.5 14t-22 5.5q-27 0 -37.5 -18t-10.5 -39v-222q0 -12 -12 -12h-166q-12 0 -12 12v416q0 12 12 12h120zM122 712
q45 0 74 -24.5t29 -78.5q0 -25 -8 -50t-22 -47t-33.5 -39.5t-42.5 -28.5q-7 -4 -14 3l-27 35q-8 12 3 18q27 18 35 45q-38 0 -62 21.5t-24 56.5q0 42 25.5 65.5t66.5 23.5z" />
    <glyph glyph-name="Eng" unicode="&#x14a;" horiz-adv-x="752" 
d="M684 700q12 0 12 -12v-654q0 -123 -59 -187t-174 -67q-12 0 -12 12v164q0 12 12 12q23 2 33.5 12.5t10.5 33.5v85l-245 237v-324q0 -12 -12 -12h-182q-12 0 -12 12v681q0 12 12 12h57q11 0 18 -7l347 -331v321q0 12 12 12h182z" />
    <glyph glyph-name="eng" unicode="&#x14b;" horiz-adv-x="565" 
d="M46 428q0 12 12 12h120q8 0 11 -8l20 -52q28 34 68.5 53t88.5 19q73 0 114 -47.5t41 -132.5v-232q0 -114 -53 -172t-166 -58q-12 0 -12 12v153q0 11 12 13q29 4 29 40v207q0 9 -1.5 19t-6.5 18.5t-13.5 14t-22.5 5.5q-29 0 -40 -18.5t-11 -40.5v-221q0 -12 -12 -12h-166
q-12 0 -12 12v416z" />
    <glyph glyph-name="Omacron" unicode="&#x14c;" horiz-adv-x="808" 
d="M404 712q81 0 148.5 -25t117 -72t77 -114t27.5 -151t-27.5 -151t-77 -114t-117 -72t-148.5 -25t-148.5 25t-117 72t-77 114t-27.5 151t27.5 151t77 114t117 72t148.5 25zM404 526q-75 0 -116.5 -47.5t-41.5 -128.5t41.5 -128.5t116.5 -47.5t116.5 47.5t41.5 128.5
t-41.5 128.5t-116.5 47.5zM564 796q0 -12 -12 -12h-296q-12 0 -12 12v76q0 12 12 12h296q12 0 12 -12v-76z" />
    <glyph glyph-name="omacron" unicode="&#x14d;" horiz-adv-x="576" 
d="M288 452q61 0 109.5 -16.5t82.5 -46.5t52.5 -73t18.5 -96q0 -54 -18 -97t-52 -73t-83 -46t-110 -16t-110 16t-83 46t-52 73t-18 97q0 53 18.5 96t52.5 73t82.5 46.5t109.5 16.5zM288 312q-71 0 -71 -92t71 -92t71 92t-71 92zM448 566q0 -12 -12 -12h-296q-12 0 -12 12v76
q0 12 12 12h296q12 0 12 -12v-76z" />
    <glyph glyph-name="Obreve" unicode="&#x14e;" horiz-adv-x="808" 
d="M404 712q81 0 148.5 -25t117 -72t77 -114t27.5 -151t-27.5 -151t-77 -114t-117 -72t-148.5 -25t-148.5 25t-117 72t-77 114t-27.5 151t27.5 151t77 114t117 72t148.5 25zM404 526q-75 0 -116.5 -47.5t-41.5 -128.5t41.5 -128.5t116.5 -47.5t116.5 47.5t41.5 128.5
t-41.5 128.5t-116.5 47.5zM219 888q0 12 12 12h116q12 0 12 -12q2 -38 15 -49t30 -11q18 0 30.5 11t14.5 49q0 12 12 12h116q12 0 12 -12q-2 -34 -13.5 -63t-34 -50t-56.5 -33t-81 -12t-81 12t-56.5 33t-34 50t-13.5 63z" />
    <glyph glyph-name="obreve" unicode="&#x14f;" horiz-adv-x="576" 
d="M288 452q61 0 109.5 -16.5t82.5 -46.5t52.5 -73t18.5 -96q0 -54 -18 -97t-52 -73t-83 -46t-110 -16t-110 16t-83 46t-52 73t-18 97q0 53 18.5 96t52.5 73t82.5 46.5t109.5 16.5zM288 312q-71 0 -71 -92t71 -92t71 92t-71 92zM103 658q0 12 12 12h116q12 0 12 -12
q2 -38 15 -49t30 -11q18 0 30.5 11t14.5 49q0 12 12 12h116q12 0 12 -12q-2 -34 -13.5 -63t-34 -50t-56.5 -33t-81 -12t-81 12t-56.5 33t-34 50t-13.5 63z" />
    <glyph glyph-name="Ohungarumlaut" unicode="&#x150;" horiz-adv-x="808" 
d="M404 712q81 0 148.5 -25t117 -72t77 -114t27.5 -151t-27.5 -151t-77 -114t-117 -72t-148.5 -25t-148.5 25t-117 72t-77 114t-27.5 151t27.5 151t77 114t117 72t148.5 25zM404 526q-75 0 -116.5 -47.5t-41.5 -128.5t41.5 -128.5t116.5 -47.5t116.5 47.5t41.5 128.5
t-41.5 128.5t-116.5 47.5zM294 892q3 8 12 8h131q20 0 10 -18l-64 -116q-3 -6 -10 -6h-106q-17 0 -12 16zM483 892q3 8 11 8h131q9 0 12 -5t-2 -13l-70 -116q-4 -6 -11 -6h-105q-17 0 -12 16z" />
    <glyph glyph-name="ohungarumlaut" unicode="&#x151;" horiz-adv-x="576" 
d="M288 452q61 0 109.5 -16.5t82.5 -46.5t52.5 -73t18.5 -96q0 -54 -18 -97t-52 -73t-83 -46t-110 -16t-110 16t-83 46t-52 73t-18 97q0 53 18.5 96t52.5 73t82.5 46.5t109.5 16.5zM288 312q-71 0 -71 -92t71 -92t71 92t-71 92zM178 662q3 8 12 8h131q20 0 10 -18l-64 -116
q-3 -6 -10 -6h-106q-17 0 -12 16zM367 662q3 8 11 8h131q9 0 12 -5t-2 -13l-70 -116q-4 -6 -11 -6h-105q-17 0 -12 16z" />
    <glyph glyph-name="OE" unicode="&#x152;" horiz-adv-x="979" 
d="M926 700q12 0 12 -12v-162q0 -12 -12 -12h-257v-76h234q12 0 12 -12v-152q0 -12 -12 -12h-234v-76h262q12 0 12 -12v-162q0 -12 -12 -12h-528q-81 0 -148.5 23t-116.5 68t-76.5 110t-27.5 149t27.5 149t76.5 109.5t116.5 68t148.5 23.5h523zM403 510q-149 0 -149 -160
t149 -160l70 -1v321h-70z" />
    <glyph glyph-name="oe" unicode="&#x153;" horiz-adv-x="850" 
d="M278 452q51 0 92 -16.5t73 -45.5q32 29 73 45.5t89 16.5q106 0 165.5 -55t59.5 -151q0 -25 -2 -39t-6.5 -21t-10 -9t-13.5 -2h-254q5 -25 22 -39t46 -14q26 0 47 8t38 22q10 6 17 -1l79 -76q9 -8 0 -17q-43 -37 -91 -53.5t-107 -16.5q-48 0 -88 14.5t-69 41.5
q-31 -26 -71.5 -41t-88.5 -15q-57 0 -104 16t-80 46t-51 73t-18 97q0 53 18 96t51.5 73t80 46.5t103.5 16.5zM654 265q0 9 -1.5 19t-7 18t-16.5 13.5t-30 5.5q-28 0 -42 -16.5t-15 -39.5h112zM288 312q-71 0 -71 -92t71 -92t71 92t-71 92z" />
    <glyph glyph-name="Racute" unicode="&#x154;" horiz-adv-x="682" 
d="M262 12q0 -12 -12 -12h-182q-12 0 -12 12v676q0 12 12 12h291q63 0 114.5 -16t87.5 -47.5t55.5 -78t19.5 -106.5q0 -39 -10.5 -73t-28.5 -60.5t-41.5 -45.5t-50.5 -30l120 -225q10 -18 -10 -18h-219q-6 0 -10 7l-77 191h-47v-186zM262 368h85q77 0 77 75q0 71 -80 71h-82
v-146zM303 884q3 6 10 6h191q11 0 14 -5.5t-5 -14.5l-91 -116q-3 -4 -9 -4h-156q-21 0 -11 18z" />
    <glyph glyph-name="racute" unicode="&#x155;" horiz-adv-x="402" 
d="M46 428q0 12 12 12h119q9 0 12 -8l23 -76q25 40 62 66.5t90 29.5q12 0 12 -12v-155q0 -13 -13 -13q-34 0 -58 -10t-39.5 -26.5t-22.5 -38.5t-7 -47v-138q0 -12 -12 -12h-166q-12 0 -12 12v416zM186 664q3 6 10 6h191q11 0 14 -5.5t-5 -14.5l-91 -116q-3 -4 -9 -4h-156
q-21 0 -11 18z" />
    <glyph glyph-name="uni0156" unicode="&#x156;" horiz-adv-x="682" 
d="M262 12q0 -12 -12 -12h-182q-12 0 -12 12v676q0 12 12 12h291q63 0 114.5 -16t87.5 -47.5t55.5 -78t19.5 -106.5q0 -39 -10.5 -73t-28.5 -60.5t-41.5 -45.5t-50.5 -30l120 -225q10 -18 -10 -18h-219q-6 0 -10 7l-77 191h-47v-186zM262 368h85q77 0 77 75q0 71 -80 71h-82
v-146zM335 -30q41 0 65 -18t24 -57q0 -23 -10.5 -41.5t-25.5 -33t-32 -24.5t-31 -14q-9 -3 -14 2l-26 26q-10 10 2 19q16 11 24 28q-29 -3 -44.5 11.5t-15.5 36.5q0 30 23 47.5t61 17.5z" />
    <glyph glyph-name="uni0157" unicode="&#x157;" horiz-adv-x="402" 
d="M46 428q0 12 12 12h119q9 0 12 -8l23 -76q25 40 62 66.5t90 29.5q12 0 12 -12v-155q0 -13 -13 -13q-34 0 -58 -10t-39.5 -26.5t-22.5 -38.5t-7 -47v-138q0 -12 -12 -12h-166q-12 0 -12 12v416zM149 -30q41 0 65 -18t24 -57q0 -23 -10.5 -41.5t-25.5 -33t-32 -24.5
t-31 -14q-9 -3 -14 2l-26 26q-10 10 2 19q16 11 24 28q-29 -3 -44.5 11.5t-15.5 36.5q0 30 23 47.5t61 17.5z" />
    <glyph glyph-name="Rcaron" unicode="&#x158;" horiz-adv-x="682" 
d="M262 12q0 -12 -12 -12h-182q-12 0 -12 12v676q0 12 12 12h291q63 0 114.5 -16t87.5 -47.5t55.5 -78t19.5 -106.5q0 -39 -10.5 -73t-28.5 -60.5t-41.5 -45.5t-50.5 -30l120 -225q10 -18 -10 -18h-219q-6 0 -10 7l-77 191h-47v-186zM262 368h85q77 0 77 75q0 71 -80 71h-82
v-146zM499 890q23 0 10 -19l-77 -116q-5 -5 -10 -5h-188q-5 0 -10 5l-77 116q-13 19 10 19h129q8 0 11 -7l31 -74l31 74q4 7 11 7h129z" />
    <glyph glyph-name="rcaron" unicode="&#x159;" horiz-adv-x="402" 
d="M46 428q0 12 12 12h119q9 0 12 -8l23 -76q25 40 62 66.5t90 29.5q12 0 12 -12v-155q0 -13 -13 -13q-34 0 -58 -10t-39.5 -26.5t-22.5 -38.5t-7 -47v-138q0 -12 -12 -12h-166q-12 0 -12 12v416zM382 670q23 0 10 -19l-77 -116q-5 -5 -10 -5h-188q-5 0 -10 5l-77 116
q-13 19 10 19h129q8 0 11 -7l31 -74l31 74q4 7 11 7h129z" />
    <glyph glyph-name="Sacute" unicode="&#x15a;" horiz-adv-x="587" 
d="M434 493q-8 -10 -18 -2q-51 41 -112 41q-29 0 -40.5 -10t-11.5 -23q0 -9 3 -15.5t14 -14t32 -16.5t56 -22q49 -18 87 -37t64 -44t39.5 -57t13.5 -74q0 -107 -72 -169t-207 -62q-73 0 -140 22t-125 70q-9 8 -2 17l108 132q8 9 18 1q34 -33 68.5 -47.5t79.5 -14.5
q30 0 43.5 11t13.5 26q0 8 -3 14.5t-11 12t-22 11.5t-36 14q-66 23 -111 46.5t-72 52t-39 62.5t-12 78q0 52 20 92.5t54.5 68t81.5 41.5t100 14q64 0 124.5 -13t118.5 -57q11 -7 2 -16zM272 894q3 6 10 6h191q11 0 14 -5.5t-5 -14.5l-91 -116q-3 -4 -9 -4h-156q-21 0 -11 18
z" />
    <glyph glyph-name="sacute" unicode="&#x15b;" horiz-adv-x="477" 
d="M379 288q-7 -9 -17 -2q-22 15 -50 24.5t-53 9.5q-14 0 -20.5 -5.5t-6.5 -10.5q0 -12 14 -19.5t46 -13.5q86 -17 127 -51.5t41 -87.5q0 -66 -55 -105t-150 -39q-65 0 -126 15.5t-106 41.5q-9 7 -4 16l56 105q7 12 18 4q37 -26 74 -39t71 -13q15 0 22 5t7 12q0 4 -1.5 8
t-8 8t-19.5 8.5t-36 9.5q-87 18 -126 52.5t-39 87.5q0 32 15 58.5t42.5 45t67.5 29t89 10.5q56 0 108.5 -14t91.5 -39q12 -7 3 -17zM223 664q3 6 10 6h191q11 0 14 -5.5t-5 -14.5l-91 -116q-3 -4 -9 -4h-156q-21 0 -11 18z" />
    <glyph glyph-name="Scircumflex" unicode="&#x15c;" horiz-adv-x="587" 
d="M434 493q-8 -10 -18 -2q-51 41 -112 41q-29 0 -40.5 -10t-11.5 -23q0 -9 3 -15.5t14 -14t32 -16.5t56 -22q49 -18 87 -37t64 -44t39.5 -57t13.5 -74q0 -107 -72 -169t-207 -62q-73 0 -140 22t-125 70q-9 8 -2 17l108 132q8 9 18 1q34 -33 68.5 -47.5t79.5 -14.5
q30 0 43.5 11t13.5 26q0 8 -3 14.5t-11 12t-22 11.5t-36 14q-66 23 -111 46.5t-72 52t-39 62.5t-12 78q0 52 20 92.5t54.5 68t81.5 41.5t100 14q64 0 124.5 -13t118.5 -57q11 -7 2 -16zM478 779q13 -19 -10 -19h-129q-7 0 -11 7l-31 74l-31 -74q-3 -7 -11 -7h-129
q-23 0 -10 19l77 116q5 5 10 5h188q5 0 10 -5z" />
    <glyph glyph-name="scircumflex" unicode="&#x15d;" horiz-adv-x="477" 
d="M379 288q-7 -9 -17 -2q-22 15 -50 24.5t-53 9.5q-14 0 -20.5 -5.5t-6.5 -10.5q0 -12 14 -19.5t46 -13.5q86 -17 127 -51.5t41 -87.5q0 -66 -55 -105t-150 -39q-65 0 -126 15.5t-106 41.5q-9 7 -4 16l56 105q7 12 18 4q37 -26 74 -39t71 -13q15 0 22 5t7 12q0 4 -1.5 8
t-8 8t-19.5 8.5t-36 9.5q-87 18 -126 52.5t-39 87.5q0 32 15 58.5t42.5 45t67.5 29t89 10.5q56 0 108.5 -14t91.5 -39q12 -7 3 -17zM429 549q13 -19 -10 -19h-129q-7 0 -11 7l-31 74l-31 -74q-3 -7 -11 -7h-129q-23 0 -10 19l77 116q5 5 10 5h188q5 0 10 -5z" />
    <glyph glyph-name="Scedilla" unicode="&#x15e;" horiz-adv-x="587" 
d="M434 493q-8 -10 -18 -2q-51 41 -112 41q-29 0 -40.5 -10t-11.5 -23q0 -9 3 -15.5t14 -14t32 -16.5t56 -22q49 -18 87 -37t64 -44t39.5 -57t13.5 -74q0 -107 -72 -169t-207 -62q-73 0 -140 22t-125 70q-9 8 -2 17l108 132q8 9 18 1q34 -33 68.5 -47.5t79.5 -14.5
q30 0 43.5 11t13.5 26q0 8 -3 14.5t-11 12t-22 11.5t-36 14q-66 23 -111 46.5t-72 52t-39 62.5t-12 78q0 52 20 92.5t54.5 68t81.5 41.5t100 14q64 0 124.5 -13t118.5 -57q11 -7 2 -16zM333 10q15 0 12 -15l-10 -35q57 -3 86 -25.5t29 -58.5q0 -43 -41.5 -72t-129.5 -29
q-23 0 -46.5 2t-46.5 7q-11 2 -9 14l10 55q3 12 16 9q17 -4 35.5 -6.5t33.5 -2.5q29 0 38 9t9 19q0 14 -16.5 22.5t-70.5 10.5q-15 0 -12 15l17 72q2 9 12 9h84z" />
    <glyph glyph-name="scedilla" unicode="&#x15f;" horiz-adv-x="477" 
d="M379 288q-7 -9 -17 -2q-22 15 -50 24.5t-53 9.5q-14 0 -20.5 -5.5t-6.5 -10.5q0 -12 14 -19.5t46 -13.5q86 -17 127 -51.5t41 -87.5q0 -66 -55 -105t-150 -39q-65 0 -126 15.5t-106 41.5q-9 7 -4 16l56 105q7 12 18 4q37 -26 74 -39t71 -13q15 0 22 5t7 12q0 4 -1.5 8
t-8 8t-19.5 8.5t-36 9.5q-87 18 -126 52.5t-39 87.5q0 32 15 58.5t42.5 45t67.5 29t89 10.5q56 0 108.5 -14t91.5 -39q12 -7 3 -17zM290 10q15 0 12 -15l-10 -35q57 -3 86 -25.5t29 -58.5q0 -43 -41.5 -72t-129.5 -29q-23 0 -46.5 2t-46.5 7q-11 2 -9 14l10 55q3 12 16 9
q17 -4 35.5 -6.5t33.5 -2.5q29 0 38 9t9 19q0 14 -16.5 22.5t-70.5 10.5q-15 0 -12 15l17 72q2 9 12 9h84z" />
    <glyph glyph-name="Scaron" unicode="&#x160;" horiz-adv-x="587" 
d="M434 493q-8 -10 -18 -2q-51 41 -112 41q-29 0 -40.5 -10t-11.5 -23q0 -9 3 -15.5t14 -14t32 -16.5t56 -22q49 -18 87 -37t64 -44t39.5 -57t13.5 -74q0 -107 -72 -169t-207 -62q-73 0 -140 22t-125 70q-9 8 -2 17l108 132q8 9 18 1q34 -33 68.5 -47.5t79.5 -14.5
q30 0 43.5 11t13.5 26q0 8 -3 14.5t-11 12t-22 11.5t-36 14q-66 23 -111 46.5t-72 52t-39 62.5t-12 78q0 52 20 92.5t54.5 68t81.5 41.5t100 14q64 0 124.5 -13t118.5 -57q11 -7 2 -16zM468 900q23 0 10 -19l-77 -116q-5 -5 -10 -5h-188q-5 0 -10 5l-77 116q-13 19 10 19
h129q8 0 11 -7l31 -74l31 74q4 7 11 7h129z" />
    <glyph glyph-name="scaron" unicode="&#x161;" horiz-adv-x="477" 
d="M379 288q-7 -9 -17 -2q-22 15 -50 24.5t-53 9.5q-14 0 -20.5 -5.5t-6.5 -10.5q0 -12 14 -19.5t46 -13.5q86 -17 127 -51.5t41 -87.5q0 -66 -55 -105t-150 -39q-65 0 -126 15.5t-106 41.5q-9 7 -4 16l56 105q7 12 18 4q37 -26 74 -39t71 -13q15 0 22 5t7 12q0 4 -1.5 8
t-8 8t-19.5 8.5t-36 9.5q-87 18 -126 52.5t-39 87.5q0 32 15 58.5t42.5 45t67.5 29t89 10.5q56 0 108.5 -14t91.5 -39q12 -7 3 -17zM419 670q23 0 10 -19l-77 -116q-5 -5 -10 -5h-188q-5 0 -10 5l-77 116q-13 19 10 19h129q8 0 11 -7l31 -74l31 74q4 7 11 7h129z" />
    <glyph glyph-name="uni0162" unicode="&#x162;" horiz-adv-x="620" 
d="M20 688q0 12 12 12h556q12 0 12 -12v-166q0 -12 -12 -12h-175v-498q0 -12 -12 -12h-182q-12 0 -12 12v498h-175q-12 0 -12 12v166zM351 10q15 0 12 -15l-10 -35q57 -3 86 -25.5t29 -58.5q0 -43 -41.5 -72t-129.5 -29q-23 0 -46.5 2t-46.5 7q-11 2 -9 14l10 55q3 12 16 9
q17 -4 35.5 -6.5t33.5 -2.5q29 0 38 9t9 19q0 14 -16.5 22.5t-70.5 10.5q-15 0 -12 15l17 72q2 9 12 9h84z" />
    <glyph glyph-name="uni0163" unicode="&#x163;" horiz-adv-x="456" 
d="M268 554q12 0 12 -12v-102h120q12 0 12 -12v-116q0 -12 -12 -12h-122v-115q0 -20 8.5 -34.5t35.5 -14.5q12 0 28 4.5t31 11.5q12 5 17 -7l40 -108q5 -10 -6 -15q-34 -16 -74.5 -25t-85.5 -9q-89 0 -134.5 43t-45.5 132v137h-68q-12 0 -12 12v116q0 12 12 12h79l83 109
q5 5 10 5h72zM264 10q15 0 12 -15l-10 -35q57 -3 86 -25.5t29 -58.5q0 -43 -41.5 -72t-129.5 -29q-23 0 -46.5 2t-46.5 7q-11 2 -9 14l10 55q3 12 16 9q17 -4 35.5 -6.5t33.5 -2.5q29 0 38 9t9 19q0 14 -16.5 22.5t-70.5 10.5q-15 0 -12 15l17 72q2 9 12 9h84z" />
    <glyph glyph-name="Tcaron" unicode="&#x164;" horiz-adv-x="620" 
d="M20 688q0 12 12 12h556q12 0 12 -12v-166q0 -12 -12 -12h-175v-498q0 -12 -12 -12h-182q-12 0 -12 12v498h-175q-12 0 -12 12v166zM483 890q23 0 10 -19l-77 -116q-5 -5 -10 -5h-188q-5 0 -10 5l-77 116q-13 19 10 19h129q8 0 11 -7l31 -74l31 74q4 7 11 7h129z" />
    <glyph glyph-name="tcaron" unicode="&#x165;" horiz-adv-x="456" 
d="M268 554q12 0 12 -12v-102h120q12 0 12 -12v-116q0 -12 -12 -12h-122v-115q0 -20 8.5 -34.5t35.5 -14.5q12 0 28 4.5t31 11.5q12 5 17 -7l40 -108q5 -10 -6 -15q-34 -16 -74.5 -25t-85.5 -9q-89 0 -134.5 43t-45.5 132v137h-68q-12 0 -12 12v116q0 12 12 12h79l83 109
q5 5 10 5h72zM373 742q45 0 74 -24.5t29 -78.5q0 -25 -8 -50t-22 -47t-33.5 -39.5t-42.5 -28.5q-7 -4 -14 3l-27 35q-8 12 3 18q27 18 35 45q-38 0 -62 21.5t-24 56.5q0 42 25.5 65.5t66.5 23.5z" />
    <glyph glyph-name="Tbar" unicode="&#x166;" horiz-adv-x="620" 
d="M20 688q0 12 12 12h556q12 0 12 -12v-166q0 -12 -12 -12h-175v-146h86q12 0 12 -12v-106q0 -12 -12 -12h-86v-222q0 -12 -12 -12h-182q-12 0 -12 12v222h-86q-12 0 -12 12v106q0 12 12 12h86v146h-175q-12 0 -12 12v166z" />
    <glyph glyph-name="tbar" unicode="&#x167;" horiz-adv-x="456" 
d="M31 253q0 12 12 12h49v35h-68q-12 0 -12 12v116q0 12 12 12h79l83 109q5 5 10 5h72q12 0 12 -12v-102h120q12 0 12 -12v-116q0 -12 -12 -12h-122v-35h121q12 0 12 -12v-56q0 -12 -12 -12h-121v-10q0 -17 7.5 -28t36.5 -11q12 0 28 4.5t30 11.5q13 5 18 -7l40 -108
q5 -10 -6 -15q-34 -16 -74.5 -25t-85.5 -9q-89 0 -134.5 43t-45.5 132v22h-49q-12 0 -12 12v56z" />
    <glyph glyph-name="Utilde" unicode="&#x168;" horiz-adv-x="704" 
d="M640 700q12 0 12 -12v-425q0 -132 -78.5 -203.5t-221.5 -71.5t-221.5 71.5t-78.5 203.5v425q0 12 12 12h182q12 0 12 -12v-405q0 -45 21.5 -75t72.5 -30t72.5 30t21.5 75v405q0 12 12 12h182zM537 900q12 0 12 -12q-5 -158 -106 -158q-25 0 -44.5 8.5t-35.5 19t-30 19
t-27 8.5q-11 0 -18.5 -8t-9.5 -35q0 -12 -12 -12h-101q-12 0 -12 12q2 78 26.5 123t74.5 45q22 0 42 -11t38 -24t33 -24t28 -11q12 0 19.5 9t9.5 39q0 12 12 12h101z" />
    <glyph glyph-name="utilde" unicode="&#x169;" horiz-adv-x="554" 
d="M496 440q12 0 12 -12v-416q0 -12 -12 -12h-120q-8 0 -11 8l-18 47q-26 -32 -62.5 -49.5t-80.5 -17.5q-72 0 -116 47.5t-44 130.5v262q0 12 12 12h166q12 0 12 -12v-223q0 -9 1 -18.5t5 -17.5t11 -13.5t20 -5.5q28 0 37.5 18t9.5 38v222q0 12 12 12h166zM457 680
q12 0 12 -12q-5 -158 -106 -158q-25 0 -44.5 8.5t-35.5 19t-30 19t-27 8.5q-11 0 -18.5 -8t-9.5 -35q0 -12 -12 -12h-101q-12 0 -12 12q2 78 26.5 123t74.5 45q22 0 42 -11t38 -24t33 -24t28 -11q12 0 19.5 9t9.5 39q0 12 12 12h101z" />
    <glyph glyph-name="Umacron" unicode="&#x16a;" horiz-adv-x="704" 
d="M640 700q12 0 12 -12v-425q0 -132 -78.5 -203.5t-221.5 -71.5t-221.5 71.5t-78.5 203.5v425q0 12 12 12h182q12 0 12 -12v-405q0 -45 21.5 -75t72.5 -30t72.5 30t21.5 75v405q0 12 12 12h182zM512 786q0 -12 -12 -12h-296q-12 0 -12 12v76q0 12 12 12h296q12 0 12 -12
v-76z" />
    <glyph glyph-name="umacron" unicode="&#x16b;" horiz-adv-x="554" 
d="M496 440q12 0 12 -12v-416q0 -12 -12 -12h-120q-8 0 -11 8l-18 47q-26 -32 -62.5 -49.5t-80.5 -17.5q-72 0 -116 47.5t-44 130.5v262q0 12 12 12h166q12 0 12 -12v-223q0 -9 1 -18.5t5 -17.5t11 -13.5t20 -5.5q28 0 37.5 18t9.5 38v222q0 12 12 12h166zM432 566
q0 -12 -12 -12h-296q-12 0 -12 12v76q0 12 12 12h296q12 0 12 -12v-76z" />
    <glyph glyph-name="Ubreve" unicode="&#x16c;" horiz-adv-x="704" 
d="M640 700q12 0 12 -12v-425q0 -132 -78.5 -203.5t-221.5 -71.5t-221.5 71.5t-78.5 203.5v425q0 12 12 12h182q12 0 12 -12v-405q0 -45 21.5 -75t72.5 -30t72.5 30t21.5 75v405q0 12 12 12h182zM167 878q0 12 12 12h116q12 0 12 -12q2 -38 15 -49t30 -11q18 0 30.5 11
t14.5 49q0 12 12 12h116q12 0 12 -12q-2 -34 -13.5 -63t-34 -50t-56.5 -33t-81 -12t-81 12t-56.5 33t-34 50t-13.5 63z" />
    <glyph glyph-name="ubreve" unicode="&#x16d;" horiz-adv-x="554" 
d="M496 440q12 0 12 -12v-416q0 -12 -12 -12h-120q-8 0 -11 8l-18 47q-26 -32 -62.5 -49.5t-80.5 -17.5q-72 0 -116 47.5t-44 130.5v262q0 12 12 12h166q12 0 12 -12v-223q0 -9 1 -18.5t5 -17.5t11 -13.5t20 -5.5q28 0 37.5 18t9.5 38v222q0 12 12 12h166zM87 658
q0 12 12 12h116q12 0 12 -12q2 -38 15 -49t30 -11q18 0 30.5 11t14.5 49q0 12 12 12h116q12 0 12 -12q-2 -34 -13.5 -63t-34 -50t-56.5 -33t-81 -12t-81 12t-56.5 33t-34 50t-13.5 63z" />
    <glyph glyph-name="Uring" unicode="&#x16e;" horiz-adv-x="704" 
d="M640 700q12 0 12 -12v-425q0 -132 -78.5 -203.5t-221.5 -71.5t-221.5 71.5t-78.5 203.5v425q0 12 12 12h182q12 0 12 -12v-405q0 -45 21.5 -75t72.5 -30t72.5 30t21.5 75v405q0 12 12 12h182zM352 988q68 0 107.5 -34.5t39.5 -94.5t-39.5 -94.5t-107.5 -34.5t-107.5 34.5
t-39.5 94.5t39.5 94.5t107.5 34.5zM352 886q-17 0 -20.5 -9.5t-3.5 -17.5t3.5 -17.5t20.5 -9.5t20.5 9.5t3.5 17.5t-3.5 17.5t-20.5 9.5z" />
    <glyph glyph-name="uring" unicode="&#x16f;" horiz-adv-x="554" 
d="M496 440q12 0 12 -12v-416q0 -12 -12 -12h-120q-8 0 -11 8l-18 47q-26 -32 -62.5 -49.5t-80.5 -17.5q-72 0 -116 47.5t-44 130.5v262q0 12 12 12h166q12 0 12 -12v-223q0 -9 1 -18.5t5 -17.5t11 -13.5t20 -5.5q28 0 37.5 18t9.5 38v222q0 12 12 12h166zM272 768
q68 0 107.5 -34.5t39.5 -94.5t-39.5 -94.5t-107.5 -34.5t-107.5 34.5t-39.5 94.5t39.5 94.5t107.5 34.5zM272 666q-17 0 -20.5 -9.5t-3.5 -17.5t3.5 -17.5t20.5 -9.5t20.5 9.5t3.5 17.5t-3.5 17.5t-20.5 9.5z" />
    <glyph glyph-name="Uhungarumlaut" unicode="&#x170;" horiz-adv-x="704" 
d="M640 700q12 0 12 -12v-425q0 -132 -78.5 -203.5t-221.5 -71.5t-221.5 71.5t-78.5 203.5v425q0 12 12 12h182q12 0 12 -12v-405q0 -45 21.5 -75t72.5 -30t72.5 30t21.5 75v405q0 12 12 12h182zM242 882q3 8 12 8h131q20 0 10 -18l-64 -116q-3 -6 -10 -6h-106q-17 0 -12 16
zM431 882q3 8 11 8h131q9 0 12 -5t-2 -13l-70 -116q-4 -6 -11 -6h-105q-17 0 -12 16z" />
    <glyph glyph-name="uhungarumlaut" unicode="&#x171;" horiz-adv-x="554" 
d="M496 440q12 0 12 -12v-416q0 -12 -12 -12h-120q-8 0 -11 8l-18 47q-26 -32 -62.5 -49.5t-80.5 -17.5q-72 0 -116 47.5t-44 130.5v262q0 12 12 12h166q12 0 12 -12v-223q0 -9 1 -18.5t5 -17.5t11 -13.5t20 -5.5q28 0 37.5 18t9.5 38v222q0 12 12 12h166zM162 662q3 8 12 8
h131q20 0 10 -18l-64 -116q-3 -6 -10 -6h-106q-17 0 -12 16zM351 662q3 8 11 8h131q9 0 12 -5t-2 -13l-70 -116q-4 -6 -11 -6h-105q-17 0 -12 16z" />
    <glyph glyph-name="Uogonek" unicode="&#x172;" horiz-adv-x="692" 
d="M634 700q12 0 12 -12v-425q0 -110 -54.5 -178.5t-156.5 -88.5q-24 -21 -33.5 -38.5t-9.5 -30.5q0 -26 27 -26q9 0 13 1q12 2 14 -10l17 -82q2 -10 -8 -13q-19 -7 -45.5 -12t-57.5 -5q-38 0 -63 9.5t-40 24.5t-21 33.5t-6 37.5q0 29 12 55.5t40 52.5q-110 17 -169 86
t-59 184v425q0 12 12 12h182q12 0 12 -12v-405q0 -45 21.5 -75t72.5 -30t72.5 30t21.5 75v405q0 12 12 12h182z" />
    <glyph glyph-name="uogonek" unicode="&#x173;" horiz-adv-x="542" 
d="M490 440q12 0 12 -12v-416q0 -9 -4.5 -14t-16.5 -15q-19 -15 -24.5 -28.5t-5.5 -27.5q0 -26 27 -26q9 0 13 1q12 2 14 -10l17 -82q2 -10 -8 -13q-19 -7 -45.5 -12t-57.5 -5q-38 0 -63 9.5t-40 24.5t-21 33.5t-6 37.5q0 34 17 66t59 62l-16 42q-26 -32 -62.5 -49.5
t-80.5 -17.5q-72 0 -116 47.5t-44 130.5v262q0 12 12 12h166q12 0 12 -12v-223q0 -9 1 -18.5t5 -17.5t11 -13.5t20 -5.5q28 0 37.5 18t9.5 38v222q0 12 12 12h166z" />
    <glyph glyph-name="Wcircumflex" unicode="&#x174;" horiz-adv-x="1081" 
d="M1055 700q15 0 8 -16l-261 -681q-3 -8 -11 -8h-64q-7 0 -11 7l-175 366l-175 -366q-3 -7 -11 -7h-64q-8 0 -11 8l-262 681q-5 16 8 16h202q9 0 12 -8l109 -334l149 325q4 7 11 7h64q8 0 11 -7l149 -325l108 334q3 8 12 8h202zM725 769q13 -19 -10 -19h-129q-7 0 -11 7
l-31 74l-31 -74q-3 -7 -11 -7h-129q-23 0 -10 19l77 116q5 5 10 5h188q5 0 10 -5z" />
    <glyph glyph-name="wcircumflex" unicode="&#x175;" horiz-adv-x="786" 
d="M762 440q20 0 11 -17l-193 -421q-3 -7 -11 -7h-65q-6 0 -10 7l-101 199l-101 -199q-3 -7 -10 -7h-65q-7 0 -11 7l-193 421q-8 17 11 17h188q9 0 11 -9l43 -156l83 159q4 6 10 6h67q6 0 10 -6l83 -159l44 156q2 9 11 9h188zM573 549q13 -19 -10 -19h-129q-7 0 -11 7
l-31 74l-31 -74q-3 -7 -11 -7h-129q-23 0 -10 19l77 116q5 5 10 5h188q5 0 10 -5z" />
    <glyph glyph-name="Ycircumflex" unicode="&#x176;" horiz-adv-x="719" 
d="M703 700q16 0 5 -18l-246 -413v-257q0 -12 -12 -12h-182q-12 0 -12 12v257l-246 413q-11 18 7 18h211q7 0 10 -7l121 -238l121 238q4 7 10 7h213zM542 769q13 -19 -10 -19h-129q-7 0 -11 7l-31 74l-31 -74q-3 -7 -11 -7h-129q-23 0 -10 19l77 116q5 5 10 5h188q5 0 10 -5
z" />
    <glyph glyph-name="ycircumflex" unicode="&#x177;" horiz-adv-x="575" 
d="M13 423q-8 17 11 17h190q8 0 11 -8l74 -205l59 204q2 9 11 9h183q18 0 11 -17l-260 -606q-3 -7 -11 -7h-187q-19 0 -11 17l101 197zM478 549q13 -19 -10 -19h-129q-7 0 -11 7l-31 74l-31 -74q-3 -7 -11 -7h-129q-23 0 -10 19l77 116q5 5 10 5h188q5 0 10 -5z" />
    <glyph glyph-name="Ydieresis" unicode="&#x178;" horiz-adv-x="719" 
d="M703 700q16 0 5 -18l-246 -413v-257q0 -12 -12 -12h-182q-12 0 -12 12v257l-246 413q-11 18 7 18h211q7 0 10 -7l121 -238l121 238q4 7 10 7h213zM255 910q41 0 63 -24.5t22 -61.5t-22 -61.5t-63 -24.5q-42 0 -64 24.5t-22 61.5t22 61.5t64 24.5zM463 910q42 0 64 -24.5
t22 -61.5t-22 -61.5t-64 -24.5t-63.5 24.5t-21.5 61.5t21.5 61.5t63.5 24.5z" />
    <glyph glyph-name="Zacute" unicode="&#x179;" horiz-adv-x="652" 
d="M53 510q-12 0 -12 12v166q0 12 12 12h546q12 0 12 -12v-62q0 -6 -3 -11l-274 -425h270q12 0 12 -12v-166q0 -12 -12 -12h-556q-12 0 -12 12v62q0 7 3 11l274 425h-260zM313 884q3 6 10 6h191q11 0 14 -5.5t-5 -14.5l-91 -116q-3 -4 -9 -4h-156q-21 0 -11 18z" />
    <glyph glyph-name="zacute" unicode="&#x17a;" horiz-adv-x="473" 
d="M46 300q-12 0 -12 12v116q0 12 12 12h380q12 0 12 -12v-60q0 -8 -4 -14l-150 -214h151q12 0 12 -12v-116q0 -12 -12 -12h-397q-12 0 -12 12v61q0 8 4 13l151 214h-135zM215 664q3 6 10 6h191q11 0 14 -5.5t-5 -14.5l-91 -116q-3 -4 -9 -4h-156q-21 0 -11 18z" />
    <glyph glyph-name="Zdotaccent" unicode="&#x17b;" horiz-adv-x="652" 
d="M53 510q-12 0 -12 12v166q0 12 12 12h546q12 0 12 -12v-62q0 -6 -3 -11l-274 -425h270q12 0 12 -12v-166q0 -12 -12 -12h-556q-12 0 -12 12v62q0 7 3 11l274 425h-260zM336 922q45 0 75 -26t30 -71t-30 -71t-75 -26t-74 26t-29 71t29 71t74 26z" />
    <glyph glyph-name="zdotaccent" unicode="&#x17c;" horiz-adv-x="473" 
d="M46 300q-12 0 -12 12v116q0 12 12 12h380q12 0 12 -12v-60q0 -8 -4 -14l-150 -214h151q12 0 12 -12v-116q0 -12 -12 -12h-397q-12 0 -12 12v61q0 8 4 13l151 214h-135zM238 702q45 0 75 -26t30 -71t-30 -71t-75 -26t-74 26t-29 71t29 71t74 26z" />
    <glyph glyph-name="Zcaron" unicode="&#x17d;" horiz-adv-x="652" 
d="M53 510q-12 0 -12 12v166q0 12 12 12h546q12 0 12 -12v-62q0 -6 -3 -11l-274 -425h270q12 0 12 -12v-166q0 -12 -12 -12h-556q-12 0 -12 12v62q0 7 3 11l274 425h-260zM509 890q23 0 10 -19l-77 -116q-5 -5 -10 -5h-188q-5 0 -10 5l-77 116q-13 19 10 19h129q8 0 11 -7
l31 -74l31 74q4 7 11 7h129z" />
    <glyph glyph-name="zcaron" unicode="&#x17e;" horiz-adv-x="473" 
d="M46 300q-12 0 -12 12v116q0 12 12 12h380q12 0 12 -12v-60q0 -8 -4 -14l-150 -214h151q12 0 12 -12v-116q0 -12 -12 -12h-397q-12 0 -12 12v61q0 8 4 13l151 214h-135zM411 670q23 0 10 -19l-77 -116q-5 -5 -10 -5h-188q-5 0 -10 5l-77 116q-13 19 10 19h129q8 0 11 -7
l31 -74l31 74q4 7 11 7h129z" />
    <glyph glyph-name="florin" unicode="&#x192;" horiz-adv-x="560" 
d="M13 167q-2 11 9 13l114 23q12 3 15 -11q6 -32 33 -32q16 0 24.5 10.5t8.5 39.5v100h-127q-12 0 -12 12v106q0 12 12 12h127v50q0 113 52 166.5t158 53.5q20 0 38 -2.5t26 -5.5q9 -3 9 -11v-156q0 -5 -4 -3q-11 5 -24 7.5t-26 2.5q-23 0 -36 -15t-13 -39v-48h89
q12 0 12 -12v-106q0 -12 -12 -12h-89v-102q0 -55 -14 -96.5t-38.5 -69t-58.5 -41t-75 -13.5q-39 0 -72.5 11t-59.5 33t-43 56t-23 79z" />
    <glyph glyph-name="AEacute" unicode="&#x1fc;" horiz-adv-x="929" 
d="M888 526q0 -12 -12 -12h-313l19 -76h261q12 0 12 -12v-152q0 -12 -12 -12h-215l19 -76h234q12 0 12 -12v-162q0 -12 -12 -12h-373q-9 0 -11 9l-28 106h-197l-35 -107q-3 -8 -12 -8h-196q-17 0 -12 16l268 676q3 8 11 8h580q12 0 12 -12v-162zM424 292l-42 161l-53 -161
h95zM535 884q3 6 10 6h191q11 0 14 -5.5t-5 -14.5l-91 -116q-3 -4 -9 -4h-156q-21 0 -11 18z" />
    <glyph glyph-name="aeacute" unicode="&#x1fd;" horiz-adv-x="779" 
d="M758 233q-2 -30 -6 -37.5t-18 -7.5h-262q5 -21 20.5 -34.5t42.5 -13.5q16 0 30.5 6.5t25.5 17.5q8 9 17 3l113 -72q10 -7 4 -16q-31 -50 -71.5 -70.5t-88.5 -20.5q-32 0 -60.5 9.5t-51.5 31.5v-17q0 -12 -12 -12h-100q-8 0 -11 8l-18 46q-13 -16 -31 -28.5t-39 -21
t-42.5 -12.5t-41.5 -4q-68 0 -103 36.5t-35 93.5q0 27 11 51.5t33.5 44t57 33t82.5 18.5l85 9v9q0 23 -16.5 32t-46.5 9q-27 0 -57.5 -10t-58.5 -29q-11 -8 -18 4l-52 97q-6 11 4 16q43 23 100 36.5t114 13.5q59 0 95.5 -19t59.5 -58q24 36 65.5 56.5t87.5 20.5
q44 0 80.5 -17t62 -46.5t38.5 -69.5t11 -86zM586 264q0 14 -13 28.5t-40 14.5q-26 0 -39.5 -12.5t-19.5 -30.5h112zM257 177q-17 -2 -30 -8.5t-13 -27.5q0 -35 31 -35q15 0 23.5 6t13 15t6 19.5t1.5 19.5v14zM370 664q3 6 10 6h191q11 0 14 -5.5t-5 -14.5l-91 -116
q-3 -4 -9 -4h-156q-21 0 -11 18z" />
    <glyph glyph-name="Oslashacute" unicode="&#x1fe;" horiz-adv-x="806" 
d="M403 712q117 0 203 -55l86 99q3 5 7.5 5t8.5 -3l54 -41q10 -8 2 -18l-87 -100q45 -44 70 -107.5t25 -141.5q0 -84 -27.5 -151t-76.5 -114t-116.5 -72t-148.5 -25q-58 0 -109 15t-93 41l-87 -104q-8 -9 -17 -2l-53 42q-10 9 -2 17l87 104q-45 43 -70 106.5t-25 142.5
q0 84 27.5 151t76.5 114t116.5 72t148.5 25zM403 523q-76 0 -112.5 -46t-36.5 -127q0 -53 14 -88l210 245q-31 16 -75 16zM330 192q30 -15 73 -15q76 0 112.5 46t36.5 127q0 49 -14 86zM377 894q3 6 10 6h191q11 0 14 -5.5t-5 -14.5l-91 -116q-3 -4 -9 -4h-156q-21 0 -11 18
z" />
    <glyph glyph-name="oslashacute" unicode="&#x1ff;" horiz-adv-x="576" 
d="M471 509q7 9 16 2l38 -30q10 -7 2 -17l-56 -70q38 -31 59 -75.5t21 -98.5q0 -51 -18.5 -93.5t-52.5 -73t-82.5 -48t-109.5 -17.5q-66 0 -121 22l-64 -81q-9 -10 -17 -2l-37 31q-9 9 -2 17l57 71q-38 31 -58.5 75.5t-20.5 98.5q0 51 18.5 93.5t53 73t83 48t108.5 17.5
q65 0 120 -22zM288 312q-69 0 -69 -92q0 -7 0.5 -13.5t1.5 -12.5l91 114q-5 2 -11 3t-13 1zM264 132q5 -2 11 -3t13 -1q69 0 69 92q0 8 -0.5 14.5t-1.5 12.5zM265 664q3 6 10 6h191q11 0 14 -5.5t-5 -14.5l-91 -116q-3 -4 -9 -4h-156q-21 0 -11 18z" />
    <glyph glyph-name="uni0218" unicode="&#x218;" horiz-adv-x="587" 
d="M434 493q-8 -10 -18 -2q-51 41 -112 41q-29 0 -40.5 -10t-11.5 -23q0 -9 3 -15.5t14 -14t32 -16.5t56 -22q49 -18 87 -37t64 -44t39.5 -57t13.5 -74q0 -107 -72 -169t-207 -62q-73 0 -140 22t-125 70q-9 8 -2 17l108 132q8 9 18 1q34 -33 68.5 -47.5t79.5 -14.5
q30 0 43.5 11t13.5 26q0 8 -3 14.5t-11 12t-22 11.5t-36 14q-66 23 -111 46.5t-72 52t-39 62.5t-12 78q0 52 20 92.5t54.5 68t81.5 41.5t100 14q64 0 124.5 -13t118.5 -57q11 -7 2 -16zM297 -30q41 0 65 -18t24 -57q0 -23 -10.5 -41.5t-25.5 -33t-32 -24.5t-31 -14
q-9 -3 -14 2l-26 26q-10 10 2 19q16 11 24 28q-29 -3 -44.5 11.5t-15.5 36.5q0 30 23 47.5t61 17.5z" />
    <glyph glyph-name="uni0219" unicode="&#x219;" horiz-adv-x="477" 
d="M379 288q-7 -9 -17 -2q-22 15 -50 24.5t-53 9.5q-14 0 -20.5 -5.5t-6.5 -10.5q0 -12 14 -19.5t46 -13.5q86 -17 127 -51.5t41 -87.5q0 -66 -55 -105t-150 -39q-65 0 -126 15.5t-106 41.5q-9 7 -4 16l56 105q7 12 18 4q37 -26 74 -39t71 -13q15 0 22 5t7 12q0 4 -1.5 8
t-8 8t-19.5 8.5t-36 9.5q-87 18 -126 52.5t-39 87.5q0 32 15 58.5t42.5 45t67.5 29t89 10.5q56 0 108.5 -14t91.5 -39q12 -7 3 -17zM254 -30q41 0 65 -18t24 -57q0 -23 -10.5 -41.5t-25.5 -33t-32 -24.5t-31 -14q-9 -3 -14 2l-26 26q-10 10 2 19q16 11 24 28
q-29 -3 -44.5 11.5t-15.5 36.5q0 30 23 47.5t61 17.5z" />
    <glyph glyph-name="uni021A" unicode="&#x21a;" horiz-adv-x="620" 
d="M20 688q0 12 12 12h556q12 0 12 -12v-166q0 -12 -12 -12h-175v-498q0 -12 -12 -12h-182q-12 0 -12 12v498h-175q-12 0 -12 12v166zM315 -30q41 0 65 -18t24 -57q0 -23 -10.5 -41.5t-25.5 -33t-32 -24.5t-31 -14q-9 -3 -14 2l-26 26q-10 10 2 19q16 11 24 28
q-29 -3 -44.5 11.5t-15.5 36.5q0 30 23 47.5t61 17.5z" />
    <glyph glyph-name="uni021B" unicode="&#x21b;" horiz-adv-x="456" 
d="M268 554q12 0 12 -12v-102h120q12 0 12 -12v-116q0 -12 -12 -12h-122v-115q0 -20 8.5 -34.5t35.5 -14.5q12 0 28 4.5t31 11.5q12 5 17 -7l40 -108q5 -10 -6 -15q-34 -16 -74.5 -25t-85.5 -9q-89 0 -134.5 43t-45.5 132v137h-68q-12 0 -12 12v116q0 12 12 12h79l83 109
q5 5 10 5h72zM228 -30q41 0 65 -18t24 -57q0 -23 -10.5 -41.5t-25.5 -33t-32 -24.5t-31 -14q-9 -3 -14 2l-26 26q-10 10 2 19q16 11 24 28q-29 -3 -44.5 11.5t-15.5 36.5q0 30 23 47.5t61 17.5z" />
    <glyph glyph-name="uni0237" unicode="&#x237;" horiz-adv-x="282" 
d="M224 440q12 0 12 -12v-381q0 -115 -52 -174.5t-165 -62.5q-12 0 -12 12v155q0 11 12 13q17 3 22 15t5 29v394q0 12 12 12h166z" />
    <glyph glyph-name="circumflex" unicode="&#x2c6;" horiz-adv-x="484" 
d="M423 589q13 -19 -10 -19h-129q-7 0 -11 7l-31 74l-31 -74q-3 -7 -11 -7h-129q-23 0 -10 19l77 116q5 5 10 5h188q5 0 10 -5z" />
    <glyph glyph-name="caron" unicode="&#x2c7;" horiz-adv-x="484" 
d="M413 710q23 0 10 -19l-77 -116q-5 -5 -10 -5h-188q-5 0 -10 5l-77 116q-13 19 10 19h129q8 0 11 -7l31 -74l31 74q4 7 11 7h129z" />
    <glyph glyph-name="breve" unicode="&#x2d8;" horiz-adv-x="482" 
d="M56 698q0 12 12 12h116q12 0 12 -12q2 -38 15 -49t30 -11q18 0 30.5 11t14.5 49q0 12 12 12h116q12 0 12 -12q-2 -34 -13.5 -63t-34 -50t-56.5 -33t-81 -12t-81 12t-56.5 33t-34 50t-13.5 63z" />
    <glyph glyph-name="dotaccent" unicode="&#x2d9;" horiz-adv-x="320" 
d="M159 742q45 0 75 -26t30 -71t-30 -71t-75 -26t-74 26t-29 71t29 71t74 26z" />
    <glyph glyph-name="ring" unicode="&#x2da;" horiz-adv-x="406" 
d="M203 808q68 0 107.5 -34.5t39.5 -94.5t-39.5 -94.5t-107.5 -34.5t-107.5 34.5t-39.5 94.5t39.5 94.5t107.5 34.5zM203 706q-17 0 -20.5 -9.5t-3.5 -17.5t3.5 -17.5t20.5 -9.5t20.5 9.5t3.5 17.5t-3.5 17.5t-20.5 9.5z" />
    <glyph glyph-name="ogonek" unicode="&#x2db;" horiz-adv-x="354" 
d="M266 -98q12 2 14 -10l17 -82q2 -10 -8 -13q-19 -7 -45.5 -12t-57.5 -5q-38 0 -63 9.5t-40 24.5t-21 33.5t-6 37.5q0 38 21.5 73.5t74.5 67.5q5 2 9 1l89 -21q24 -6 6 -23q-30 -27 -30 -56q0 -26 27 -26q9 0 13 1z" />
    <glyph glyph-name="tilde" unicode="&#x2dc;" horiz-adv-x="508" 
d="M440 720q12 0 12 -12q-5 -158 -106 -158q-25 0 -44.5 8.5t-35.5 19t-30 19t-27 8.5q-11 0 -18.5 -8t-9.5 -35q0 -12 -12 -12h-101q-12 0 -12 12q2 78 26.5 123t74.5 45q22 0 42 -11t38 -24t33 -24t28 -11q12 0 19.5 9t9.5 39q0 12 12 12h101z" />
    <glyph glyph-name="hungarumlaut" unicode="&#x2dd;" horiz-adv-x="497" 
d="M96 702q3 8 12 8h131q20 0 10 -18l-64 -116q-3 -6 -10 -6h-106q-17 0 -12 16zM285 702q3 8 11 8h131q9 0 12 -5t-2 -13l-70 -116q-4 -6 -11 -6h-105q-17 0 -12 16z" />
    <glyph glyph-name="uni0326" unicode="&#x326;" horiz-adv-x="285" 
d="M140 -30q41 0 65 -18t24 -57q0 -23 -10.5 -41.5t-25.5 -33t-32 -24.5t-31 -14q-9 -3 -14 2l-26 26q-10 10 2 19q16 11 24 28q-29 -3 -44.5 11.5t-15.5 36.5q0 30 23 47.5t61 17.5z" />
    <glyph glyph-name="uni0394" unicode="&#x394;" horiz-adv-x="707" 
d="M310 703q4 7 11 7h64q8 0 11 -7l293 -686q7 -17 -11 -17h-649q-18 0 -11 17zM274 170h159l-80 232z" />
    <glyph glyph-name="uni03A9" unicode="&#x3a9;" horiz-adv-x="812" 
d="M406 713q79 0 146 -22t116.5 -62t77.5 -97t28 -127q0 -31 -8.5 -66t-26.5 -68.5t-45 -63t-65 -50.5l136 15q13 0 13 -12v-148q0 -12 -12 -12h-272q-9 0 -12 8l-21 61q-2 7 3 12q34 36 54.5 70t31.5 65.5t14.5 61.5t3.5 60q0 91 -40.5 132.5t-121.5 41.5t-121.5 -41.5
t-40.5 -132.5q0 -30 3.5 -60t14.5 -61.5t31.5 -65.5t54.5 -70q5 -5 3 -12l-21 -61q-3 -8 -12 -8h-272q-12 0 -12 12v148q0 12 13 12l136 -15q-37 21 -64.5 50.5t-45.5 63t-26.5 68.5t-8.5 66q0 70 28 127t77.5 97t116.5 62t146 22z" />
    <glyph glyph-name="uni03BC" unicode="&#x3bc;" horiz-adv-x="556" 
d="M224 440q12 0 12 -12v-228q0 -28 8.5 -47t31.5 -19t33.5 20t10.5 52v222q0 12 12 12h166q12 0 12 -12v-416q0 -12 -12 -12h-140q-10 0 -12 9l-5 22q-33 -42 -76 -42q-22 0 -35 5l6 -172q0 -12 -12 -12h-166q-12 0 -12 12v606q0 12 12 12h166z" />
    <glyph glyph-name="pi" unicode="&#x3c0;" horiz-adv-x="713" 
d="M666 308q0 -8 -8 -11l-99 -37l14 -55q7 -26 13.5 -35.5t21.5 -9.5q16 0 32 4q14 4 17 -9l34 -125q4 -10 -7 -14q-67 -28 -129 -28q-34 0 -61.5 8.5t-48.5 28.5t-35.5 53t-20.5 82l-13 100h-76l-34 -250q0 -10 -11 -10h-169q-14 0 -12 14l38 246h-79q-12 0 -12 12v156
q0 12 12 12h621q12 0 12 -12v-120z" />
    <glyph glyph-name="Wgrave" unicode="&#x1e80;" horiz-adv-x="1081" 
d="M1055 700q15 0 8 -16l-261 -681q-3 -8 -11 -8h-64q-7 0 -11 7l-175 366l-175 -366q-3 -7 -11 -7h-64q-8 0 -11 8l-262 681q-5 16 8 16h202q9 0 12 -8l109 -334l149 325q4 7 11 7h64q8 0 11 -7l149 -325l108 334q3 8 12 8h202zM625 767q7 -17 -11 -17h-156q-7 0 -10 5
l-80 116q-6 8 -3.5 13.5t13.5 5.5h190q8 0 11 -7z" />
    <glyph glyph-name="wgrave" unicode="&#x1e81;" horiz-adv-x="786" 
d="M762 440q20 0 11 -17l-193 -421q-3 -7 -11 -7h-65q-6 0 -10 7l-101 199l-101 -199q-3 -7 -10 -7h-65q-7 0 -11 7l-193 421q-8 17 11 17h188q9 0 11 -9l43 -156l83 159q4 6 10 6h67q6 0 10 -6l83 -159l44 156q2 9 11 9h188zM473 547q7 -17 -11 -17h-156q-7 0 -10 5
l-80 116q-6 8 -3.5 13.5t13.5 5.5h190q8 0 11 -7z" />
    <glyph glyph-name="Wacute" unicode="&#x1e82;" horiz-adv-x="1081" 
d="M1055 700q15 0 8 -16l-261 -681q-3 -8 -11 -8h-64q-7 0 -11 7l-175 366l-175 -366q-3 -7 -11 -7h-64q-8 0 -11 8l-262 681q-5 16 8 16h202q9 0 12 -8l109 -334l149 325q4 7 11 7h64q8 0 11 -7l149 -325l108 334q3 8 12 8h202zM519 884q3 6 10 6h191q11 0 14 -5.5
t-5 -14.5l-91 -116q-3 -4 -9 -4h-156q-21 0 -11 18z" />
    <glyph glyph-name="wacute" unicode="&#x1e83;" horiz-adv-x="786" 
d="M762 440q20 0 11 -17l-193 -421q-3 -7 -11 -7h-65q-6 0 -10 7l-101 199l-101 -199q-3 -7 -10 -7h-65q-7 0 -11 7l-193 421q-8 17 11 17h188q9 0 11 -9l43 -156l83 159q4 6 10 6h67q6 0 10 -6l83 -159l44 156q2 9 11 9h188zM367 664q3 6 10 6h191q11 0 14 -5.5t-5 -14.5
l-91 -116q-3 -4 -9 -4h-156q-21 0 -11 18z" />
    <glyph glyph-name="Wdieresis" unicode="&#x1e84;" horiz-adv-x="1081" 
d="M1055 700q15 0 8 -16l-261 -681q-3 -8 -11 -8h-64q-7 0 -11 7l-175 366l-175 -366q-3 -7 -11 -7h-64q-8 0 -11 8l-262 681q-5 16 8 16h202q9 0 12 -8l109 -334l149 325q4 7 11 7h64q8 0 11 -7l149 -325l108 334q3 8 12 8h202zM438 910q41 0 63 -24.5t22 -61.5t-22 -61.5
t-63 -24.5q-42 0 -64 24.5t-22 61.5t22 61.5t64 24.5zM646 910q42 0 64 -24.5t22 -61.5t-22 -61.5t-64 -24.5t-63.5 24.5t-21.5 61.5t21.5 61.5t63.5 24.5z" />
    <glyph glyph-name="wdieresis" unicode="&#x1e85;" horiz-adv-x="786" 
d="M762 440q20 0 11 -17l-193 -421q-3 -7 -11 -7h-65q-6 0 -10 7l-101 199l-101 -199q-3 -7 -10 -7h-65q-7 0 -11 7l-193 421q-8 17 11 17h188q9 0 11 -9l43 -156l83 159q4 6 10 6h67q6 0 10 -6l83 -159l44 156q2 9 11 9h188zM286 690q41 0 63 -24.5t22 -61.5t-22 -61.5
t-63 -24.5q-42 0 -64 24.5t-22 61.5t22 61.5t64 24.5zM494 690q42 0 64 -24.5t22 -61.5t-22 -61.5t-64 -24.5t-63.5 24.5t-21.5 61.5t21.5 61.5t63.5 24.5z" />
    <glyph glyph-name="Germandbls" unicode="&#x1e9e;" horiz-adv-x="684" 
d="M602 634q0 -13 -6 -25l-87 -192q27 -9 52.5 -24t46 -37.5t32.5 -53.5t12 -72q0 -64 -25 -108t-65.5 -71t-92.5 -39t-106 -12h-44q-12 0 -12 12v166q0 12 12 12h54q35 0 56 12t21 43q0 29 -19.5 40t-47.5 11h-43q-5 0 -7.5 2.5t-4.5 7.5l-20 45q-4 8 -2.5 15t4.5 14
l56 140h-58q-25 0 -37.5 -19t-12.5 -48v-441q0 -12 -12 -12h-178q-12 0 -12 12v468q0 106 55.5 163t173.5 57h305q12 0 12 -12v-54z" />
    <glyph glyph-name="endash" unicode="&#x2013;" horiz-adv-x="600" 
d="M40 338q0 12 12 12h496q12 0 12 -12v-126q0 -12 -12 -12h-496q-12 0 -12 12v126z" />
    <glyph glyph-name="emdash" unicode="&#x2014;" horiz-adv-x="930" 
d="M40 338q0 12 12 12h826q12 0 12 -12v-126q0 -12 -12 -12h-826q-12 0 -12 12v126z" />
    <glyph glyph-name="uni2015" unicode="&#x2015;" horiz-adv-x="1040" 
d="M0 338q0 12 12 12h1016q12 0 12 -12v-127q0 -12 -12 -12h-1016q-12 0 -12 12v127z" />
    <glyph glyph-name="quoteleft" unicode="&#x2018;" horiz-adv-x="283" 
d="M141 350q-45 0 -78 28t-33 85q0 78 31 138t80 104q6 6 15 1l47 -38q11 -9 1 -19q-24 -24 -38.5 -49t-18.5 -53q17 0 34.5 -5.5t31 -17.5t22 -30.5t8.5 -43.5q0 -48 -28.5 -74t-73.5 -26z" />
    <glyph glyph-name="quoteright" unicode="&#x2019;" horiz-adv-x="283" 
d="M132 712q45 0 78 -28t33 -85q0 -78 -31 -133.5t-79 -98.5q-8 -6 -16 -1l-47 38q-11 9 -1 19q24 23 38.5 43.5t18.5 48.5q-17 0 -34.5 5.5t-31 17.5t-22 30.5t-8.5 43.5q0 48 28.5 74t73.5 26z" />
    <glyph glyph-name="quotesinglbase" unicode="&#x201a;" horiz-adv-x="324" 
d="M159 219q61 0 93 -38t32 -95q0 -39 -8.5 -77.5t-22.5 -74.5t-32.5 -68t-39.5 -59q-6 -6 -15 -3l-88 42q-14 7 -5 19q26 33 41.5 67t20.5 68q-42 8 -68.5 31.5t-26.5 74.5q0 24 9 44.5t24.5 36t37.5 24t48 8.5z" />
    <glyph glyph-name="quotedblleft" unicode="&#x201c;" horiz-adv-x="549" 
d="M141 350q-45 0 -78 28t-33 85q0 78 31 138t80 104q6 6 15 1l47 -38q11 -9 1 -19q-24 -24 -38.5 -49t-18.5 -53q17 0 34.5 -5.5t31 -17.5t22 -30.5t8.5 -43.5q0 -48 -28.5 -74t-73.5 -26zM407 350q-45 0 -78 28t-33 85q0 78 31 138t80 104q6 6 15 1l47 -38q11 -9 1 -19
q-24 -24 -38.5 -49t-18.5 -53q17 0 34.5 -5.5t31 -17.5t22 -30.5t8.5 -43.5q0 -48 -28.5 -74t-73.5 -26z" />
    <glyph glyph-name="quotedblright" unicode="&#x201d;" horiz-adv-x="549" 
d="M398 712q45 0 78 -28t33 -85q0 -78 -31 -133.5t-79 -98.5q-8 -6 -16 -1l-47 38q-11 9 -1 19q24 23 38.5 43.5t18.5 48.5q-17 0 -34.5 5.5t-31 17.5t-22 30.5t-8.5 43.5q0 48 28.5 74t73.5 26zM132 712q45 0 78 -28t33 -85q0 -78 -31 -133.5t-79 -98.5q-8 -6 -16 -1
l-47 38q-11 9 -1 19q24 23 38.5 43.5t18.5 48.5q-17 0 -34.5 5.5t-31 17.5t-22 30.5t-8.5 43.5q0 48 28.5 74t73.5 26z" />
    <glyph glyph-name="quotedblbase" unicode="&#x201e;" horiz-adv-x="549" 
d="M398 209q45 0 78 -28t33 -85q0 -78 -31 -138t-80 -104q-6 -6 -15 -1l-47 38q-11 9 -1 19q24 24 38.5 49t18.5 53q-17 0 -34.5 5.5t-31 17.5t-22 30.5t-8.5 43.5q0 48 28.5 74t73.5 26zM132 209q45 0 78 -28t33 -85q0 -78 -31 -138t-80 -104q-6 -6 -15 -1l-47 38
q-11 9 -1 19q24 24 38.5 49t18.5 53q-17 0 -34.5 5.5t-31 17.5t-22 30.5t-8.5 43.5q0 48 28.5 74t73.5 26z" />
    <glyph glyph-name="dagger" unicode="&#x2020;" horiz-adv-x="517" 
d="M348 730q12 0 12 -12v-98h101q12 0 12 -12v-156q0 -12 -12 -12h-101v-308q0 -12 -12 -12h-176q-12 0 -12 12v308h-102q-12 0 -12 12v156q0 12 12 12h102v98q0 12 12 12h176z" />
    <glyph glyph-name="daggerdbl" unicode="&#x2021;" horiz-adv-x="500" 
d="M339 730q12 0 12 -12v-88h93q12 0 12 -12v-146q0 -12 -12 -12h-93v-80h93q12 0 12 -12v-146q0 -12 -12 -12h-93v-128q0 -12 -12 -12h-176q-12 0 -12 12v128h-93q-12 0 -12 12v146q0 12 12 12h93v80h-93q-12 0 -12 12v146q0 12 12 12h93v88q0 12 12 12h176z" />
    <glyph glyph-name="bullet" unicode="&#x2022;" horiz-adv-x="600" 
d="M300 507q72 0 114.5 -42.5t42.5 -114.5t-42.5 -114.5t-114.5 -42.5t-114.5 42.5t-42.5 114.5t42.5 114.5t114.5 42.5z" />
    <glyph glyph-name="uni2023" unicode="&#x2023;" horiz-adv-x="590" 
d="M427 361q17 -11 0 -22l-254 -137q-18 -10 -18 10v276q0 20 18 10z" />
    <glyph glyph-name="ellipsis" unicode="&#x2026;" horiz-adv-x="906" 
d="M157 222q53 0 85 -32t32 -85t-32 -85t-85 -32t-85 32t-32 85t32 85t85 32zM453 222q53 0 85 -32t32 -85t-32 -85t-85 -32t-85 32t-32 85t32 85t85 32zM749 222q53 0 85 -32t32 -85t-32 -85t-85 -32t-85 32t-32 85t32 85t85 32z" />
    <glyph glyph-name="perthousand" unicode="&#x2030;" horiz-adv-x="1054" 
d="M178 700q34 0 64.5 -12t53 -33t35.5 -49.5t13 -62.5t-13 -63t-35.5 -50t-52.5 -32.5t-65 -11.5q-34 0 -64.5 11.5t-53 32.5t-35.5 50t-13 63t13 62.5t35.5 49.5t53 33t64.5 12zM648 600q8 -8 0 -16l-550 -552q-8 -8 -17 0l-50 51q-8 8 0 16l550 551q8 9 17 0zM178 590
q-20 0 -32.5 -13t-12.5 -34t12.5 -34t32.5 -13q21 0 33 13.5t12 33.5t-12 33.5t-33 13.5zM514 302q34 0 64.5 -12t53 -33t35.5 -49.5t13 -62.5t-13 -63t-35.5 -50t-52.5 -32.5t-65 -11.5q-34 0 -64.5 11.5t-53 32.5t-35.5 50t-13 63t13 62.5t35.5 49.5t53 33t64.5 12z
M876 302q34 0 64.5 -12t53 -33t35.5 -49.5t13 -62.5t-13 -63t-35.5 -50t-52.5 -32.5t-65 -11.5q-34 0 -64.5 11.5t-53 32.5t-35.5 50t-13 63t13 62.5t35.5 49.5t53 33t64.5 12zM514 192q-20 0 -32.5 -13t-12.5 -34t12.5 -34t32.5 -13q21 0 33 13.5t12 33.5t-12 33.5
t-33 13.5zM876 192q-20 0 -32.5 -13t-12.5 -34t12.5 -34t32.5 -13q21 0 33 13.5t12 33.5t-12 33.5t-33 13.5z" />
    <glyph glyph-name="minute" unicode="&#x2032;" horiz-adv-x="256" 
d="M194 371q-2 -11 -12 -11h-109q-10 0 -12 11l-20 316q-2 13 12 13h150q14 0 12 -13z" />
    <glyph glyph-name="second" unicode="&#x2033;" horiz-adv-x="484" 
d="M195 371q-2 -11 -12 -11h-110q-10 0 -12 11l-20 316q-2 13 12 13h151q14 0 12 -13zM422 371q-2 -11 -12 -11h-110q-10 0 -12 11l-20 316q-2 13 12 13h151q14 0 12 -13z" />
    <glyph glyph-name="guilsinglleft" unicode="&#x2039;" horiz-adv-x="399" 
d="M48 248q-4 6 0 12l109 174q5 6 11 6h170q11 0 13.5 -5.5t-3.5 -13.5l-122 -167l122 -168q6 -8 3.5 -13.5t-13.5 -5.5h-170q-6 0 -11 6z" />
    <glyph glyph-name="guilsinglright" unicode="&#x203a;" horiz-adv-x="399" 
d="M351 260q4 -6 0 -12l-109 -175q-4 -6 -11 -6h-170q-11 0 -13.5 5.5t3.5 13.5l122 168l-122 167q-6 8 -3.5 13.5t13.5 5.5h170q7 0 11 -6z" />
    <glyph glyph-name="fraction" unicode="&#x2044;" horiz-adv-x="346" 
d="M436 700q21 0 10 -18l-430 -676q-4 -6 -11 -6h-95q-21 0 -10 18l430 676q5 6 11 6h95z" />
    <glyph glyph-name="uni2070" unicode="&#x2070;" horiz-adv-x="386" 
d="M193 830q50 0 84.5 -18t56 -48t31 -69t9.5 -81q0 -41 -9.5 -79.5t-31 -68.5t-56 -48t-84.5 -18q-51 0 -85.5 18t-55.5 47.5t-30.5 68t-9.5 80.5t9.5 81t31 69t56 48t84.5 18zM193 703q-13 0 -22.5 -4t-15.5 -14t-9 -27t-3 -43q0 -52 12 -70t38 -18t38 18t12 70
q0 26 -3 43t-9 27t-15.5 14t-22.5 4z" />
    <glyph glyph-name="uni2074" unicode="&#x2074;" horiz-adv-x="374" 
d="M362 485q0 -12 -12 -12h-20v-51q0 -12 -12 -12h-86q-12 0 -12 12v51h-196q-12 0 -12 12v34q0 14 7 29l123 265q4 7 11 7h110q9 0 12.5 -5t-1.5 -13l-116 -219h62v51q0 12 12 12h86q12 0 12 -12v-51h20q12 0 12 -12v-86z" />
    <glyph glyph-name="uni2075" unicode="&#x2075;" horiz-adv-x="348" 
d="M312 722q0 -12 -12 -12h-145l-1 -39h28q75 0 112 -33t37 -91q0 -30 -10 -57t-29 -47t-46.5 -31.5t-62.5 -11.5q-66 0 -105.5 26t-57.5 78q-3 11 7 14l77 33q12 6 17 -7q14 -32 47 -32q16 0 26 7.5t10 22.5q0 11 -7 20.5t-26 9.5h-129q-14 0 -12 13l16 224q2 11 12 11h242
q12 0 12 -12v-86z" />
    <glyph glyph-name="uni2076" unicode="&#x2076;" horiz-adv-x="345" 
d="M264 820q10 0 13 -5t-3 -14l-82 -126q6 1 12 1.5t12 0.5q25 0 47 -8t38 -24t25.5 -38.5t9.5 -52.5q0 -35 -12 -63.5t-34 -48.5t-52 -31t-66 -11q-35 0 -65 9t-51.5 26.5t-34 43.5t-12.5 60q0 29 8 56.5t22 50.5l101 168q5 6 11 6h113zM172 586q-34 0 -34 -33
q0 -34 34 -34q35 0 35 33q0 15 -8 24.5t-27 9.5z" />
    <glyph glyph-name="uni2077" unicode="&#x2077;" horiz-adv-x="314" 
d="M24 710q-12 0 -12 12v86q0 12 12 12h266q12 0 12 -12v-38q0 -9 -6 -27l-112 -325q-3 -8 -12 -8h-112q-18 0 -11 16l113 284h-138z" />
    <glyph glyph-name="uni2078" unicode="&#x2078;" horiz-adv-x="348" 
d="M174 830q65 0 106.5 -28.5t41.5 -79.5q0 -29 -14.5 -56t-42.5 -42q38 -15 54.5 -44.5t16.5 -63.5q0 -52 -38.5 -84t-123.5 -32t-123.5 32t-38.5 84q0 34 16.5 63.5t54.5 44.5q-28 15 -42.5 42t-14.5 56q0 51 41.5 79.5t106.5 28.5zM174 722q-14 0 -19.5 -7t-5.5 -17
q0 -8 4.5 -16t20.5 -8t20.5 8t4.5 16q0 10 -5.5 17t-19.5 7zM174 579q-20 0 -26.5 -11t-6.5 -22q0 -12 7 -21t26 -9t26 9t7 21q0 11 -6.5 22t-26.5 11z" />
    <glyph glyph-name="uni2079" unicode="&#x2079;" horiz-adv-x="345" 
d="M81 410q-10 0 -13 5t3 14l82 126q-6 -1 -12 -1.5t-12 -0.5q-25 0 -47 8t-38 24t-25.5 38.5t-9.5 52.5q0 35 12 63.5t34 48.5t52 31t66 11q35 0 65 -9t52 -26.5t34 -43.5t12 -60q0 -29 -8 -56.5t-22 -50.5l-101 -168q-4 -6 -11 -6h-113zM173 644q34 0 34 33q0 34 -34 34
q-35 0 -35 -33q0 -15 8 -24.5t27 -9.5z" />
    <glyph glyph-name="uni2080" unicode="&#x2080;" horiz-adv-x="386" 
d="M193 210q50 0 84.5 -18t56 -48t31 -69t9.5 -81q0 -41 -9.5 -79.5t-31 -68.5t-56 -48t-84.5 -18q-51 0 -85.5 18t-55.5 47.5t-30.5 68t-9.5 80.5t9.5 81t31 69t56 48t84.5 18zM193 83q-13 0 -22.5 -4t-15.5 -14t-9 -27t-3 -43q0 -52 12 -70t38 -18t38 18t12 70q0 26 -3 43
t-9 27t-15.5 14t-22.5 4z" />
    <glyph glyph-name="uni2081" unicode="&#x2081;" horiz-adv-x="253" 
d="M206 200q12 0 12 -12v-386q0 -12 -12 -12h-95q-12 0 -12 12v256l-53 -17q-12 -3 -15 8l-30 84q-4 11 7 15l139 48q11 4 21 4h38z" />
    <glyph glyph-name="uni2082" unicode="&#x2082;" horiz-adv-x="341" 
d="M116 63q-5 -10 -16 -5l-77 33q-11 5 -7 15q21 49 66 76.5t102 27.5q69 0 106.5 -35t37.5 -89q0 -36 -16 -68.5t-54 -67.5l-54 -50h112q12 0 12 -12v-86q0 -12 -12 -12h-286q-12 0 -12 12v43q0 5 3 8l149 161q19 20 24 34t5 24t-7.5 18t-24.5 8q-15 0 -27.5 -7.5
t-23.5 -27.5z" />
    <glyph glyph-name="uni2083" unicode="&#x2083;" horiz-adv-x="352" 
d="M148 -49q-12 0 -12 12v66q0 12 12 12h32q17 0 24 9.5t7 20.5q0 12 -8 19.5t-25 7.5q-16 0 -30.5 -7.5t-24.5 -24.5q-6 -11 -16 -7l-78 32q-11 5 -7 15q20 50 61.5 77t107.5 27q67 0 108 -28t41 -81q0 -35 -16.5 -61.5t-45.5 -38.5q61 -32 61 -95q0 -57 -43 -91.5
t-114 -34.5q-62 0 -104 26.5t-62 77.5q-4 11 6 14l80 34q11 5 16 -5q11 -20 24.5 -27.5t30.5 -7.5q37 0 37 28q0 14 -8 22.5t-22 8.5h-32z" />
    <glyph glyph-name="uni2084" unicode="&#x2084;" horiz-adv-x="374" 
d="M362 -135q0 -12 -12 -12h-20v-51q0 -12 -12 -12h-86q-12 0 -12 12v51h-196q-12 0 -12 12v34q0 14 7 29l123 265q4 7 11 7h110q9 0 12.5 -5t-1.5 -13l-116 -219h62v51q0 12 12 12h86q12 0 12 -12v-51h20q12 0 12 -12v-86z" />
    <glyph glyph-name="uni2085" unicode="&#x2085;" horiz-adv-x="348" 
d="M312 102q0 -12 -12 -12h-145l-1 -39h28q75 0 112 -33t37 -91q0 -30 -10 -57t-29 -47t-46.5 -31.5t-62.5 -11.5q-66 0 -105.5 26t-57.5 78q-3 11 7 14l77 33q12 6 17 -7q14 -32 47 -32q16 0 26 7.5t10 22.5q0 11 -7 20.5t-26 9.5h-129q-14 0 -12 13l16 224q2 11 12 11h242
q12 0 12 -12v-86z" />
    <glyph glyph-name="uni2086" unicode="&#x2086;" horiz-adv-x="345" 
d="M264 200q10 0 13 -5t-3 -14l-82 -126q6 1 12 1.5t12 0.5q25 0 47 -8t38 -24t25.5 -38.5t9.5 -52.5q0 -35 -12 -63.5t-34 -48.5t-52 -31t-66 -11q-35 0 -65 9t-51.5 26.5t-34 43.5t-12.5 60q0 29 8 56.5t22 50.5l101 168q5 6 11 6h113zM172 -34q-34 0 -34 -33
q0 -34 34 -34q35 0 35 33q0 15 -8 24.5t-27 9.5z" />
    <glyph glyph-name="uni2087" unicode="&#x2087;" horiz-adv-x="314" 
d="M24 90q-12 0 -12 12v86q0 12 12 12h266q12 0 12 -12v-38q0 -9 -6 -27l-112 -325q-3 -8 -12 -8h-112q-18 0 -11 16l113 284h-138z" />
    <glyph glyph-name="uni2088" unicode="&#x2088;" horiz-adv-x="348" 
d="M174 210q65 0 106.5 -28.5t41.5 -79.5q0 -29 -14.5 -56t-42.5 -42q38 -15 54.5 -44.5t16.5 -63.5q0 -52 -38.5 -84t-123.5 -32t-123.5 32t-38.5 84q0 34 16.5 63.5t54.5 44.5q-28 15 -42.5 42t-14.5 56q0 51 41.5 79.5t106.5 28.5zM174 102q-14 0 -19.5 -7t-5.5 -17
q0 -8 4.5 -16t20.5 -8t20.5 8t4.5 16q0 10 -5.5 17t-19.5 7zM174 -41q-20 0 -26.5 -11t-6.5 -22q0 -12 7 -21t26 -9t26 9t7 21q0 11 -6.5 22t-26.5 11z" />
    <glyph glyph-name="uni2089" unicode="&#x2089;" horiz-adv-x="345" 
d="M81 -210q-10 0 -13 5t3 14l82 126q-6 -1 -12 -1.5t-12 -0.5q-25 0 -47 8t-38 24t-25.5 38.5t-9.5 52.5q0 35 12 63.5t34 48.5t52 31t66 11q35 0 65 -9t52 -26.5t34 -43.5t12 -60q0 -29 -8 -56.5t-22 -50.5l-101 -168q-4 -6 -11 -6h-113zM173 24q34 0 34 33q0 34 -34 34
q-35 0 -35 -33q0 -15 8 -24.5t27 -9.5z" />
    <glyph glyph-name="Euro" unicode="&#x20ac;" horiz-adv-x="610" 
d="M38 374q-12 0 -12 12v61q0 12 12 12h62q7 51 25.5 95.5t51.5 76.5t81 50.5t112 18.5q67 0 120.5 -28t92.5 -94q6 -9 -4 -16l-127 -78q-10 -6 -17 3q-27 33 -65 33q-55 0 -61 -61h104q15 0 12 -15l-16 -61q-2 -9 -11 -9h-360zM38 229q-12 0 -12 12v61q0 12 12 12h343
q16 0 11 -15l-15 -61q-2 -9 -11 -9h-57q7 -61 61 -61q20 0 36 9.5t31 33.5q7 10 16 5l134 -60q9 -5 6 -16q-15 -32 -36.5 -60t-50 -48.5t-62.5 -32t-74 -11.5q-65 0 -112.5 18.5t-80.5 50.5t-51.5 76.5t-25.5 95.5h-62z" />
    <glyph glyph-name="uni20BA" unicode="&#x20ba;" horiz-adv-x="726" 
d="M42 375q-16 -5 -16 12v64q0 9 8 12l61 20v205q0 12 12 12h182q12 0 12 -12v-135l116 39q16 5 16 -12v-64q0 -9 -8 -12zM26 304q0 9 8 12l383 128q16 5 16 -12v-64q0 -9 -8 -12l-124 -41v-118q16 -3 29.5 -4t22.5 -1q62 0 98 36.5t36 111.5q0 15 14 13l188 -17
q11 -2 11 -12q-2 -101 -32.5 -166.5t-81.5 -104t-118 -53.5t-141 -15q-54 0 -110.5 6t-111.5 16q-10 2 -10 12v227l-53 -18q-16 -5 -16 12v64z" />
    <glyph glyph-name="uni20BD" unicode="&#x20bd;" horiz-adv-x="630" 
d="M83 688q0 12 12 12h265q57 0 104.5 -15t81 -43.5t52 -69.5t18.5 -93t-18.5 -93.5t-52 -70t-81 -43.5t-104.5 -15h-320q-12 0 -12 12v106q0 12 12 12h43v301zM289 387h57q26 0 42 14t16 46t-15.5 46t-42.5 14h-57v-120zM26 185q0 12 12 12h403q12 0 12 -12v-76
q0 -12 -12 -12h-152v-85q0 -12 -12 -12h-182q-12 0 -12 12v85h-45q-12 0 -12 12v76z" />
    <glyph glyph-name="uni2113" unicode="&#x2113;" horiz-adv-x="465" 
d="M24 227q-12 0 -12 12v51q0 12 12 12h20.5t18.5 1q3 111 24.5 188t55 125.5t76.5 70.5t89 22q60 0 95.5 -35t35.5 -107q0 -121 -56.5 -197.5t-159.5 -111.5q4 -70 26.5 -109t67.5 -39q25 0 53 16q12 7 17 -6l34 -90q3 -9 -5 -14q-25 -14 -64 -23.5t-80 -9.5
q-103 0 -153 63t-56 182q-10 -1 -19.5 -1h-19.5zM223 334q70 29 102 84.5t32 146.5q0 30 -9.5 48.5t-29.5 18.5q-21 0 -38 -21.5t-29 -60.5t-19 -94t-9 -122z" />
    <glyph glyph-name="uni2116" unicode="&#x2116;" horiz-adv-x="1122" 
d="M684 700q12 0 12 -12v-681q0 -12 -12 -12h-60q-8 0 -13 5l-349 338v-326q0 -12 -12 -12h-182q-12 0 -12 12v681q0 12 12 12h57q11 0 18 -7l347 -338v328q0 12 12 12h182zM931 701q34 0 64.5 -12t53 -33t35.5 -49.5t13 -62.5t-13 -63t-35.5 -50t-52.5 -32.5t-65 -11.5
q-34 0 -64.5 11.5t-53 32.5t-35.5 50t-13 63t13 62.5t35.5 49.5t53 33t64.5 12zM931 591q-20 0 -32.5 -13t-12.5 -34t12.5 -34t32.5 -13q21 0 33 13.5t12 33.5t-12 33.5t-33 13.5zM777 224q-12 0 -12 12v86q0 12 12 12h308q12 0 12 -12v-86q0 -12 -12 -12h-308z" />
    <glyph glyph-name="trademark" unicode="&#x2122;" horiz-adv-x="613" 
d="M244 700q12 0 12 -12v-78q0 -12 -12 -12h-49v-136q0 -12 -12 -12h-84q-12 0 -12 12v136h-50q-12 0 -12 12v78q0 12 12 12h207zM576 700q12 0 12 -12v-226q0 -12 -12 -12h-80q-12 0 -12 12v87l-39 -46q-7 -9 -15 0l-38 45v-86q0 -12 -12 -12h-80q-12 0 -12 12v226
q0 12 12 12h69q4 0 10 -4l60 -75l56 74q5 5 10 5h71z" />
    <glyph glyph-name="uni2126" unicode="&#x2126;" horiz-adv-x="812" 
d="M406 713q79 0 146 -22t116.5 -62t77.5 -97t28 -127q0 -31 -8.5 -66t-26.5 -68.5t-45 -63t-65 -50.5l136 15q13 0 13 -12v-148q0 -12 -12 -12h-272q-9 0 -12 8l-21 61q-2 7 3 12q34 36 54.5 70t31.5 65.5t14.5 61.5t3.5 60q0 91 -40.5 132.5t-121.5 41.5t-121.5 -41.5
t-40.5 -132.5q0 -30 3.5 -60t14.5 -61.5t31.5 -65.5t54.5 -70q5 -5 3 -12l-21 -61q-3 -8 -12 -8h-272q-12 0 -12 12v148q0 12 13 12l136 -15q-37 21 -64.5 50.5t-45.5 63t-26.5 68.5t-8.5 66q0 70 28 127t77.5 97t116.5 62t146 22z" />
    <glyph glyph-name="estimated" unicode="&#x212e;" horiz-adv-x="715" 
d="M681 301q0 -5 -3 -11.5t-11 -6.5h-520v-170q18 -20 42.5 -36t53 -27.5t59 -18t60.5 -6.5q32 0 65.5 7.5t64.5 21t58.5 32.5t46.5 43q9 10 18 1l4 -3q9 -9 1 -17q-46 -51 -114 -80.5t-146 -29.5q-70 0 -130 24t-103.5 65t-68 97t-24.5 119q0 64 24.5 119.5t68 97t103 65.5
t128.5 24q71 0 130 -25t102 -67.5t67 -98.5t24 -119zM564 501q-35 37 -89 59.5t-114 22.5q-31 0 -62.5 -6.5t-59.5 -17.5t-51.5 -26.5t-40.5 -32.5v-189h417v190z" />
    <glyph glyph-name="arrowleft" unicode="&#x2190;" horiz-adv-x="837" 
d="M781 241q0 -12 -12 -12h-401l208 -195q3 -3 2.5 -8.5t-7.5 -5.5h-214q-5 0 -9 4l-288 288q-8 8 0 16l288 288q4 4 9 4h214q7 0 7.5 -5.5t-2.5 -8.5l-208 -195h401q12 0 12 -12v-158z" />
    <glyph glyph-name="arrowup" unicode="&#x2191;" horiz-adv-x="712" 
d="M652 424q4 -4 4 -9v-214q0 -6 -5.5 -6.5t-8.5 2.5l-195 207v-401q0 -12 -12 -12h-157q-12 0 -12 12v401l-196 -207q-3 -3 -8.5 -2.5t-5.5 6.5v214q0 5 4 9l288 288q8 8 16 0z" />
    <glyph glyph-name="arrowright" unicode="&#x2192;" horiz-adv-x="837" 
d="M489 24q-4 -4 -9 -4h-214q-6 0 -7 5t2 9l208 195h-401q-12 0 -12 12v158q0 12 12 12h401l-208 195q-3 4 -2 9t7 5h214q5 0 9 -4l288 -288q8 -8 0 -16z" />
    <glyph glyph-name="arrowdown" unicode="&#x2193;" horiz-adv-x="712" 
d="M435 710q12 0 12 -12v-402l195 208q3 3 8.5 3t5.5 -7v-215q0 -5 -4 -9l-288 -287q-8 -8 -16 0l-288 287q-4 4 -4 9v215q0 7 5.5 7t8.5 -3l196 -208v402q0 12 12 12h157z" />
    <glyph glyph-name="arrowboth" unicode="&#x2194;" horiz-adv-x="1130" 
d="M1071 320q6 -8 0 -16l-262 -296q-6 -4 -9 -4h-205q-5 0 -6 6t1 8l183 203h-417l183 -203q3 -3 2 -8.5t-7 -5.5l-204 1q-3 0 -9 4l-262 296q-6 8 0 16l263 296q6 4 9 4l204 -1q6 0 7 -5.5t-2 -8.5l-184 -202l417 -1l-182 203q-2 2 -1 8t6 6h205q3 0 9 -4z" />
    <glyph glyph-name="arrowupdn" unicode="&#x2195;" horiz-adv-x="779" 
d="M382 858q8 6 16 0l296 -262q4 -6 4 -9v-205q0 -5 -6 -6t-8 1l-203 183v-417l203 183q2 4 8 2.5t6 -7.5l-1 -204q0 -3 -4 -9l-296 -262q-8 -6 -16 0l-296 263q-4 6 -4 9l1 203q0 6 5.5 8t9.5 -2l202 -184l1 417l-203 -181q-3 -3 -9 -2t-6 7v204q0 3 4 9z" />
    <glyph glyph-name="uni2196" unicode="&#x2196;" horiz-adv-x="720" 
d="M81 597q0 12 12 12h407q5 0 9 -3l152 -151q5 -5 2 -9.5t-9 -4.5l-285 9l284 -283q9 -9 0 -17l-112 -112q-8 -8 -16 0l-285 283l10 -285q0 -5 -4.5 -7.5t-8.5 1.5l-152 151q-4 4 -4 9v407z" />
    <glyph glyph-name="uni2197" unicode="&#x2197;" horiz-adv-x="719" 
d="M626 609q12 0 12 -12v-407q0 -5 -4 -9l-151 -151q-4 -4 -8.5 -1.5t-4.5 7.5l9 285l-285 -283q-8 -8 -16 0l-112 112q-8 8 0 16l284 284l-286 -9q-5 0 -7 5t2 9l151 151q5 3 9 3h407z" />
    <glyph glyph-name="uni2198" unicode="&#x2198;" horiz-adv-x="719" 
d="M178 635q7 9 17 1l284 -284l-9 285q0 5 4.5 8t8.5 -1l152 -152q3 -4 3 -9v-407q0 -12 -12 -12h-407q-5 0 -9 4l-151 151q-4 4 -2 9t7 5l286 -10l-284 284q-8 8 0 16z" />
    <glyph glyph-name="uni2199" unicode="&#x2199;" horiz-adv-x="720" 
d="M93 64q-12 0 -12 12v407q0 5 4 9l152 152q5 5 9 1.5t4 -8.5l-10 -285l285 284q8 8 16 0l113 -113q8 -8 -1 -16l-284 -284l285 10q6 0 9 -4.5t-2 -9.5l-152 -152q-4 -3 -9 -3h-407z" />
    <glyph glyph-name="partialdiff" unicode="&#x2202;" horiz-adv-x="602" 
d="M280 435q26 0 58.5 -7.5t58.5 -29.5q1 9 1.5 17t0.5 15q0 54 -25 86t-84 32q-28 0 -55 -6.5t-61 -20.5q-14 -7 -17 8l-32 126q-2 9 7 13q48 22 96.5 33.5t90.5 11.5q66 0 114.5 -20t80.5 -56.5t47.5 -88.5t15.5 -115q0 -78 -21 -157.5t-63.5 -144.5t-108.5 -106t-156 -41
q-95 0 -149 50t-54 138q0 56 18 104.5t51.5 83.5t80.5 55t105 20zM297 270q-32 0 -56 -16.5t-24 -51.5q0 -21 12.5 -31.5t32.5 -10.5q32 0 56 25t41 62q-16 11 -32 17t-30 6z" />
    <glyph glyph-name="uni2206" unicode="&#x2206;" horiz-adv-x="707" 
d="M310 703q4 7 11 7h64q8 0 11 -7l293 -686q7 -17 -11 -17h-649q-18 0 -11 17zM274 170h159l-80 232z" />
    <glyph glyph-name="product" unicode="&#x220f;" horiz-adv-x="682" 
d="M614 700q12 0 12 -12v-858q0 -12 -12 -12h-166q-12 0 -12 12v687h-190v-687q0 -12 -12 -12h-166q-12 0 -12 12v858q0 12 12 12h546z" />
    <glyph glyph-name="summation" unicode="&#x2211;" horiz-adv-x="672" 
d="M621 525q0 -12 -12 -12h-275l129 -226q2 -4 2 -6v-35q0 -3 -2 -7l-143 -215h304q12 0 12 -12v-163q0 -12 -12 -12h-576q-12 0 -12 12v64q0 3 2 7l238 342l-222 355q-2 4 -2 6v65q0 12 12 12h545q12 0 12 -12v-163z" />
    <glyph glyph-name="minus" unicode="&#x2212;" horiz-adv-x="583" 
d="M537 202q0 -12 -12 -12h-467q-12 0 -12 12v151q0 12 12 12h467q12 0 12 -12v-151z" />
    <glyph glyph-name="radical" unicode="&#x221a;" horiz-adv-x="728" 
d="M18 236q-6 11 6 16l140 63q10 5 15 -5l114 -217l231 674q3 8 12 8h164q16 0 11 -16l-366 -951q-3 -8 -11 -8h-65q-7 0 -10 6z" />
    <glyph glyph-name="infinity" unicode="&#x221e;" horiz-adv-x="840" 
d="M244 486q63 0 107.5 -28t78.5 -67q26 27 47.5 45.5t41 29.5t38.5 15.5t40 4.5q43 0 79 -15t62.5 -41.5t41 -63t14.5 -80.5q0 -36 -12 -71.5t-37 -63.5t-63.5 -45.5t-90.5 -17.5q-56 0 -100.5 30t-80.5 69q-25 -28 -46.5 -47.5t-41 -30.5t-39 -16t-40.5 -5q-43 0 -79 14.5
t-62 40.5t-41 62.5t-15 80.5t15 81t41.5 63.5t62.5 41t79 14.5zM506 297q26 -29 42 -38.5t30 -9.5t26.5 9.5t12.5 30.5q0 17 -10.5 29.5t-30.5 12.5q-18 0 -34 -7.5t-36 -26.5zM261 327q-17 0 -29 -11t-12 -29q0 -19 11.5 -31.5t28.5 -12.5q16 0 32.5 8.5t38.5 29.5
q-18 20 -35 33t-35 13z" />
    <glyph glyph-name="integral" unicode="&#x222b;" horiz-adv-x="302" 
d="M276 712q0 -12 -12 -12q-48 -3 -62 -30.5t-8 -83.5l61 -586q6 -57 -12.5 -97.5t-50.5 -67t-73 -40t-81 -15.5q-12 0 -12 12v76q0 11 12 13q42 4 59 32.5t12 74.5l-60 604q-11 101 45.5 153t169.5 55q12 0 12 -12v-76z" />
    <glyph glyph-name="approxequal" unicode="&#x2248;" horiz-adv-x="649" 
d="M592 494q11 -2 11 -12q-1 -46 -11 -86.5t-31 -70.5t-53.5 -47t-78.5 -17q-45 0 -75 14t-54 29q-26 16 -39.5 21.5t-24.5 5.5q-24 0 -31.5 -17.5t-7.5 -38.5q-2 -13 -14 -13l-126 14q-11 2 -11 12q1 44 11 84t31 70t53 48t78 18q44 0 75.5 -13.5t54.5 -27.5
q19 -12 34.5 -19t30.5 -7q23 0 30 16.5t8 36.5q0 13 14 13zM592 224q11 -2 11 -12q-1 -46 -11 -86.5t-31 -70.5t-53.5 -47t-78.5 -17q-45 0 -75 14t-54 29q-26 16 -39.5 21.5t-24.5 5.5q-24 0 -31.5 -17.5t-7.5 -38.5q-2 -13 -14 -13l-126 14q-11 2 -11 12q1 44 11 84t31 70
t53 48t78 18q44 0 75.5 -13.5t54.5 -27.5q19 -12 34.5 -19t30.5 -7q23 0 30 16.5t8 36.5q0 13 14 13z" />
    <glyph glyph-name="notequal" unicode="&#x2260;" horiz-adv-x="552" 
d="M506 302q0 -12 -12 -12h-143l-27 -64h170q12 0 12 -12v-146q0 -12 -12 -12h-241l-37 -90q-3 -7 -11 -7h-84q-18 0 -11 17l33 80h-85q-12 0 -12 12v146q0 12 12 12h156l26 64h-182q-12 0 -12 12v146q0 12 12 12h253l36 88q4 7 11 7h85q18 0 11 -17l-33 -78h73q12 0 12 -12
v-146z" />
    <glyph glyph-name="lessequal" unicode="&#x2264;" horiz-adv-x="617" 
d="M571 203q0 -8 -4.5 -11t-11.5 0l-501 190q-8 3 -8 11v64q0 8 7 11l501 220q17 7 17 -11v-154q0 -8 -8 -11l-207 -73l207 -70q8 -3 8 -12v-154zM559 162q12 0 12 -12v-158q0 -12 -12 -12h-496q-12 0 -12 12v158q0 12 12 12h496z" />
    <glyph glyph-name="greaterequal" unicode="&#x2265;" horiz-adv-x="617" 
d="M62 192q-7 -3 -11.5 0t-4.5 11v154q0 9 8 12l207 70l-207 73q-8 3 -8 11v154q0 18 17 11l501 -220q7 -3 7 -11v-64q0 -8 -8 -11zM46 150q0 12 12 12h496q12 0 12 -12v-158q0 -12 -12 -12h-496q-12 0 -12 12v158z" />
    <glyph glyph-name="house" unicode="&#x2302;" horiz-adv-x="732" 
d="M358 694q8 6 16 0l298 -240q4 -6 4 -10v-432q0 -12 -12 -12h-596q-12 0 -12 12v432q0 4 4 10zM176 399v-280h380v280l-190 147z" />
    <glyph glyph-name="uni2460" unicode="&#x2460;" horiz-adv-x="1119" 
d="M560 866q106 0 197.5 -39t159.5 -107t107 -159.5t39 -197.5t-39 -197.5t-107 -159.5t-159.5 -107t-197.5 -39t-198 39t-160 107t-107 159.5t-39 197.5t39 197.5t107 159.5t160 107t198 39zM560 752q-84 0 -154.5 -30t-122 -82.5t-80.5 -123.5t-29 -153t29 -153
t80.5 -123.5t122 -82.5t154.5 -30t154.5 30t121.5 82.5t80 123.5t29 153t-29 153t-80 123.5t-121.5 82.5t-154.5 30zM640 622q12 0 12 -12v-526q0 -12 -12 -12h-128q-12 0 -12 12v375l-81 -18q-11 -3 -14 8l-31 112q-3 11 9 15l188 44q8 2 14 2h55z" />
    <glyph glyph-name="uni2461" unicode="&#x2461;" horiz-adv-x="1119" 
d="M560 866q106 0 197.5 -39t159.5 -107t107 -159.5t39 -197.5t-39 -197.5t-107 -159.5t-159.5 -107t-197.5 -39t-198 39t-160 107t-107 159.5t-39 197.5t39 197.5t107 159.5t160 107t198 39zM560 752q-84 0 -154.5 -30t-122 -82.5t-80.5 -123.5t-29 -153t29 -153
t80.5 -123.5t122 -82.5t154.5 -30t154.5 30t121.5 82.5t80 123.5t29 153t-29 153t-80 123.5t-121.5 82.5t-154.5 30zM472 452q-5 -10 -16 -5l-104 45q-11 5 -6 15q28 68 82 105.5t123 37.5q97 0 152 -45t55 -124q0 -45 -21 -85t-70 -90l-62 -64h141q12 0 12 -12v-128
q0 -12 -12 -12h-384q-12 0 -12 12v53q0 5 3 8l199 222q25 27 33.5 48t8.5 36q0 16 -10.5 27.5t-33.5 11.5q-47 0 -78 -56z" />
    <glyph glyph-name="uni2462" unicode="&#x2462;" horiz-adv-x="1119" 
d="M560 866q106 0 197.5 -39t159.5 -107t107 -159.5t39 -197.5t-39 -197.5t-107 -159.5t-159.5 -107t-197.5 -39t-198 39t-160 107t-107 159.5t-39 197.5t39 197.5t107 159.5t160 107t198 39zM560 752q-84 0 -154.5 -30t-122 -82.5t-80.5 -123.5t-29 -153t29 -153
t80.5 -123.5t122 -82.5t154.5 -30t154.5 30t121.5 82.5t80 123.5t29 153t-29 153t-80 123.5t-121.5 82.5t-154.5 30zM502 301q-12 0 -12 12v96q0 12 12 12h46q49 0 49 40q0 19 -12.5 29t-35.5 10q-50 0 -77 -51q-5 -9 -16 -6l-108 43q-12 3 -7 15q26 68 82 105t135 37
q99 0 151 -37.5t52 -106.5q0 -47 -22.5 -82t-61.5 -51q44 -21 64 -52t20 -73q0 -38 -15 -69t-42.5 -53t-65.5 -34t-84 -12q-82 0 -139 37t-82 106q-5 10 6 14l109 46q10 5 16 -6q14 -30 33 -42t46 -12q54 0 54 41q0 44 -49 44h-46z" />
    <glyph glyph-name="uni2463" unicode="&#x2463;" horiz-adv-x="1119" 
d="M560 866q106 0 197.5 -39t159.5 -107t107 -159.5t39 -197.5t-39 -197.5t-107 -159.5t-159.5 -107t-197.5 -39t-198 39t-160 107t-107 159.5t-39 197.5t39 197.5t107 159.5t160 107t198 39zM560 752q-84 0 -154.5 -30t-122 -82.5t-80.5 -123.5t-29 -153t29 -153
t80.5 -123.5t122 -82.5t154.5 -30t154.5 30t121.5 82.5t80 123.5t29 153t-29 153t-80 123.5t-121.5 82.5t-154.5 30zM774 178q0 -12 -12 -12h-38v-66q0 -12 -12 -12h-111q-12 0 -12 12v66h-264q-12 0 -12 12v46q0 10 5 23l158 386q4 7 11 7h150q18 0 11 -17l-137 -313h78v81
q0 12 12 12h111q12 0 12 -12v-81h38q12 0 12 -12v-120z" />
    <glyph glyph-name="uni2464" unicode="&#x2464;" horiz-adv-x="1119" 
d="M560 866q106 0 197.5 -39t159.5 -107t107 -159.5t39 -197.5t-39 -197.5t-107 -159.5t-159.5 -107t-197.5 -39t-198 39t-160 107t-107 159.5t-39 197.5t39 197.5t107 159.5t160 107t198 39zM560 752q-84 0 -154.5 -30t-122 -82.5t-80.5 -123.5t-29 -153t29 -153
t80.5 -123.5t122 -82.5t154.5 -30t154.5 30t121.5 82.5t80 123.5t29 153t-29 153t-80 123.5t-121.5 82.5t-154.5 30zM738 497q0 -12 -12 -12h-198l-2 -52h39q97 0 148.5 -44t51.5 -132q0 -36 -13.5 -70.5t-38.5 -61.5t-61.5 -43.5t-82.5 -16.5q-88 0 -141 36t-76 107
q-3 11 7 14l106 45q11 5 16 -8q10 -25 26.5 -38t42.5 -13q25 0 39 11t14 34q0 19 -11.5 32.5t-40.5 13.5h-171q-14 0 -12 13l22 312q0 11 12 11h324q12 0 12 -12v-126z" />
    <glyph glyph-name="uni2465" unicode="&#x2465;" horiz-adv-x="1119" 
d="M560 866q106 0 197.5 -39t159.5 -107t107 -159.5t39 -197.5t-39 -197.5t-107 -159.5t-159.5 -107t-197.5 -39t-198 39t-160 107t-107 159.5t-39 197.5t39 197.5t107 159.5t160 107t198 39zM560 752q-84 0 -154.5 -30t-122 -82.5t-80.5 -123.5t-29 -153t29 -153
t80.5 -123.5t122 -82.5t154.5 -30t154.5 30t121.5 82.5t80 123.5t29 153t-29 153t-80 123.5t-121.5 82.5t-154.5 30zM673 632q10 0 13 -5t-3 -14l-115 -176q15 2 24 3t17 1q32 0 60.5 -12.5t49.5 -36t33.5 -56t12.5 -72.5q0 -46 -16.5 -82t-46.5 -60.5t-70.5 -37
t-88.5 -12.5q-46 0 -84.5 12t-66.5 35.5t-43 57.5t-15 79q0 39 11 75.5t30 68.5l136 226q5 6 11 6h151zM550 324q-52 0 -52 -51q0 -50 50 -50q53 0 53 52q0 23 -12 36t-39 13z" />
    <glyph glyph-name="uni2466" unicode="&#x2466;" horiz-adv-x="1119" 
d="M560 866q106 0 197.5 -39t159.5 -107t107 -159.5t39 -197.5t-39 -197.5t-107 -159.5t-159.5 -107t-197.5 -39t-198 39t-160 107t-107 159.5t-39 197.5t39 197.5t107 159.5t160 107t198 39zM560 752q-84 0 -154.5 -30t-122 -82.5t-80.5 -123.5t-29 -153t29 -153
t80.5 -123.5t122 -82.5t154.5 -30t154.5 30t121.5 82.5t80 123.5t29 153t-29 153t-80 123.5t-121.5 82.5t-154.5 30zM384 454q-12 0 -12 12v126q0 12 12 12h360q12 0 12 -12v-47q0 -7 -1 -12t-3 -10l-158 -461q-3 -8 -12 -8h-150q-17 0 -12 16l152 384h-188z" />
    <glyph glyph-name="uni2467" unicode="&#x2467;" horiz-adv-x="1119" 
d="M560 866q106 0 197.5 -39t159.5 -107t107 -159.5t39 -197.5t-39 -197.5t-107 -159.5t-159.5 -107t-197.5 -39t-198 39t-160 107t-107 159.5t-39 197.5t39 197.5t107 159.5t160 107t198 39zM560 752q-84 0 -154.5 -30t-122 -82.5t-80.5 -123.5t-29 -153t29 -153
t80.5 -123.5t122 -82.5t154.5 -30t154.5 30t121.5 82.5t80 123.5t29 153t-29 153t-80 123.5t-121.5 82.5t-154.5 30zM562 646q43 0 78.5 -10t61 -28.5t40 -45.5t14.5 -61q0 -38 -19.5 -74.5t-57.5 -54.5q51 -21 73.5 -58.5t22.5 -82.5q0 -69 -51.5 -112t-161.5 -43t-162 43
t-52 112q0 45 22.5 82.5t74.5 58.5q-38 18 -58 54.5t-20 74.5q0 34 14.5 61t40 45.5t61.5 28.5t79 10zM562 508q-20 0 -29.5 -10t-9.5 -27q0 -14 8 -24.5t31 -10.5t32 10.5t9 24.5q0 17 -10.5 27t-30.5 10zM562 312q-29 0 -39.5 -12.5t-10.5 -31.5t11 -31.5t39 -12.5
t38.5 12.5t10.5 31.5t-10.5 31.5t-38.5 12.5z" />
    <glyph glyph-name="uni2468" unicode="&#x2468;" horiz-adv-x="1119" 
d="M560 866q106 0 197.5 -39t159.5 -107t107 -159.5t39 -197.5t-39 -197.5t-107 -159.5t-159.5 -107t-197.5 -39t-198 39t-160 107t-107 159.5t-39 197.5t39 197.5t107 159.5t160 107t198 39zM560 752q-84 0 -154.5 -30t-122 -82.5t-80.5 -123.5t-29 -153t29 -153
t80.5 -123.5t122 -82.5t154.5 -30t154.5 30t121.5 82.5t80 123.5t29 153t-29 153t-80 123.5t-121.5 82.5t-154.5 30zM435 68q-10 0 -13 5t3 14l115 176q-8 -2 -18.5 -3t-21.5 -1q-32 0 -60.5 13t-50 36t-34 56t-12.5 73q0 46 17 81.5t46.5 60t70 37t88.5 12.5q47 0 85.5 -12
t66 -35.5t43 -57.5t15.5 -79q0 -39 -11 -75t-30 -68l-137 -227q-3 -6 -10 -6h-152zM559 376q52 0 52 51t-51 51q-53 0 -53 -52q0 -23 12.5 -36.5t39.5 -13.5z" />
    <glyph glyph-name="uni24D5" unicode="&#x24d5;" horiz-adv-x="874" 
d="M438 748q88 0 161.5 -28.5t127 -80.5t83.5 -125t30 -163t-30 -163.5t-83.5 -126t-127 -81t-161.5 -28.5t-162 28.5t-128 81t-84 126t-30 163.5t30 163t84 125t128 80.5t162 28.5zM438 653q-67 0 -123 -21.5t-96.5 -61t-62.5 -95t-22 -124.5t22.5 -125t62.5 -96t96 -61.5
t123 -21.5t122.5 21.5t95.5 61t62 96t22 125.5t-22 125t-62 95t-95.5 60.5t-122.5 21.5zM534 325q0 -12 -12 -12h-71v-167q0 -12 -12 -12h-82q-12 0 -12 12v167h-39q-12 0 -12 12v66q0 12 12 12h39v22q0 33 10.5 59t28.5 44.5t43 28t53 9.5q27 0 53 -4.5t54 -17.5
q11 -5 6 -16l-26 -56q-5 -9 -16 -6q-29 10 -52 10q-27 0 -37.5 -15.5t-10.5 -44.5v-13h71q12 0 12 -12v-66z" />
    <glyph glyph-name="uni24E3" unicode="&#x24e3;" horiz-adv-x="874" 
d="M438 748q88 0 161.5 -28.5t127 -80.5t83.5 -125t30 -163t-30 -163.5t-83.5 -126t-127 -81t-161.5 -28.5t-162 28.5t-128 81t-84 126t-30 163.5t30 163t84 125t128 80.5t162 28.5zM438 653q-67 0 -123 -21.5t-96.5 -61t-62.5 -95t-22 -124.5t22.5 -125t62.5 -96t96 -61.5
t123 -21.5t122.5 21.5t95.5 61t62 96t22 125.5t-22 125t-62 95t-95.5 60.5t-122.5 21.5zM439 527q12 0 12 -12v-56h96q12 0 12 -12l-2 -68q0 -12 -12 -12h-94v-69q0 -26 8 -35.5t32 -9.5q20 0 44 11q13 5 18 -7l20 -59q4 -9 -6 -14q-23 -11 -50.5 -17t-50.5 -6q-25 0 -47 7
t-38.5 20t-26 32t-9.5 43v104h-46q-12 0 -12 12l2 68q0 12 12 12h59l38 62q3 6 10 6h31z" />
    <glyph glyph-name="uni24EA" unicode="&#x24ea;" horiz-adv-x="1119" 
d="M560 866q106 0 197.5 -39t159.5 -107t107 -159.5t39 -197.5t-39 -197.5t-107 -159.5t-159.5 -107t-197.5 -39t-198 39t-160 107t-107 159.5t-39 197.5t39 197.5t107 159.5t160 107t198 39zM560 752q-84 0 -154.5 -30t-122 -82.5t-80.5 -123.5t-29 -153t29 -153
t80.5 -123.5t122 -82.5t154.5 -30t154.5 30t121.5 82.5t80 123.5t29 153t-29 153t-80 123.5t-121.5 82.5t-154.5 30zM564 643q65 0 110 -23.5t73.5 -62.5t41 -90.5t12.5 -108.5t-12.5 -108.5t-40.5 -90.5t-73.5 -62.5t-110.5 -23.5q-66 0 -111 23t-73 62t-40.5 90.5
t-12.5 108.5t12.5 109t40.5 91t73.5 62.5t110.5 23.5zM564 483q-18 0 -31.5 -5.5t-22.5 -20t-13.5 -38.5t-4.5 -61t4.5 -61t13.5 -38t22.5 -20t31.5 -6t31.5 6t22.5 20t13.5 38t4.5 61t-4.5 61t-13.5 38.5t-22.5 20t-31.5 5.5z" />
    <glyph glyph-name="uni24FF" unicode="&#x24ff;" horiz-adv-x="1116" 
d="M558 866q113 0 205.5 -35.5t158.5 -101t102 -158.5t36 -208t-36 -208.5t-102 -158.5t-158.5 -100.5t-205.5 -35.5t-205.5 35.5t-158.5 100.5t-102 158.5t-36 208.5t36 208t102 158.5t158.5 101t205.5 35.5zM558 648q-65 0 -110.5 -23.5t-73.5 -62.5t-40.5 -91t-12.5 -109
t12.5 -108.5t40.5 -90.5t73 -62t111 -23q65 0 110.5 23.5t73.5 62.5t40.5 90.5t12.5 108.5t-12.5 108.5t-41 90.5t-73.5 62.5t-110 23.5zM558 488q18 0 31.5 -5.5t22.5 -20t13.5 -38.5t4.5 -61t-4.5 -61t-13.5 -38t-22.5 -20t-31.5 -6t-31.5 6t-22.5 20t-13.5 38t-4.5 61
t4.5 61t13.5 38.5t22.5 20t31.5 5.5z" />
    <glyph glyph-name="filledbox" unicode="&#x25a0;" horiz-adv-x="1112" 
d="M68 -146q-12 0 -12 12v968q0 12 12 12h976q12 0 12 -12v-968q0 -12 -12 -12h-976z" />
    <glyph glyph-name="uni25A1" unicode="&#x25a1;" horiz-adv-x="1112" 
d="M68 -146q-12 0 -12 12v968q0 12 12 12h976q12 0 12 -12v-968q0 -12 -12 -12h-976zM938 -32v764h-764v-764h764z" />
    <glyph glyph-name="uni25AA" unicode="&#x25aa;" horiz-adv-x="600" 
d="M184 222q-12 0 -12 12v232q0 12 12 12h232q12 0 12 -12v-232q0 -12 -12 -12h-232z" />
    <glyph glyph-name="triagup" unicode="&#x25b2;" horiz-adv-x="800" 
d="M100 50q-19 0 -11 18l300 562q11 19 22 0l300 -562q8 -18 -11 -18h-600z" />
    <glyph glyph-name="uni25B6" unicode="&#x25b6;" horiz-adv-x="780" 
d="M118 44q-18 -8 -18 11v600q0 19 18 11l562 -300q19 -11 0 -22z" />
    <glyph glyph-name="triagdn" unicode="&#x25bc;" horiz-adv-x="800" 
d="M700 630q19 0 11 -18l-300 -562q-11 -19 -22 0l-300 562q-8 18 11 18h600z" />
    <glyph glyph-name="uni25C0" unicode="&#x25c0;" horiz-adv-x="780" 
d="M680 55q0 -19 -18 -11l-562 300q-19 11 0 22l562 300q18 8 18 -11v-600z" />
    <glyph glyph-name="lozenge" unicode="&#x25ca;" horiz-adv-x="643" 
d="M604 356q5 -6 0 -12l-200 -344q-3 -6 -10 -6h-146q-7 0 -10 6l-200 344q-3 6 0 12l200 344q3 6 10 6h146q7 0 10 -6zM322 591l-120 -241l120 -242l119 242z" />
    <glyph glyph-name="circle" unicode="&#x25cb;" horiz-adv-x="1075" 
d="M538 866q106 0 197.5 -39t159.5 -107t107 -159.5t39 -197.5t-39 -197.5t-107 -159.5t-159.5 -107t-197.5 -39t-198 39t-160 107t-107 159.5t-39 197.5t39 197.5t107 159.5t160 107t198 39zM538 752q-84 0 -154.5 -30t-122 -82.5t-80.5 -123.5t-29 -153t29 -153
t80.5 -123.5t122 -82.5t154.5 -30t154.5 30t121.5 82.5t80 123.5t29 153t-29 153t-80 123.5t-121.5 82.5t-154.5 30z" />
    <glyph glyph-name="uni25CF" unicode="&#x25cf;" horiz-adv-x="1075" 
d="M538 866q106 0 197.5 -39t159.5 -107t107 -159.5t39 -197.5t-39 -197.5t-107 -159.5t-159.5 -107t-197.5 -39t-198 39t-160 107t-107 159.5t-39 197.5t39 197.5t107 159.5t160 107t198 39z" />
    <glyph glyph-name="uni2605" unicode="&#x2605;" horiz-adv-x="977" 
d="M476 717q6 17 12 17t11 -17l84 -259h278q16 0 18 -6t-11 -16l-224 -166l82 -265q6 -20 -3 -20q-6 0 -16 7l-220 166l-217 -165q-11 -8 -16 -8q-9 0 -3 21l82 264l-224 166q-13 10 -11 16t18 6h279z" />
    <glyph glyph-name="uni2606" unicode="&#x2606;" horiz-adv-x="1072" 
d="M525 794q4 16 11 16t11 -16l96 -292h313q17 0 18.5 -6t-11.5 -16l-252 -187l92 -298q6 -20 -3 -20q-6 0 -16 7l-248 187l-248 -187q-10 -7 -16 -7q-9 0 -3 20l92 298l-252 187q-13 10 -11.5 16t18.5 6h313zM494 413h-146l117 -87l-41 -130l112 84l112 -84l-41 130l117 87
h-146l-42 131z" />
    <glyph glyph-name="uni261C" unicode="&#x261c;" horiz-adv-x="1177" 
d="M1109 466q12 0 12 -12v-37q0 -12 -12 -12h-237q-7 0 -11 7q-35 71 -95 101t-129 30q-23 0 -49 -3l-189 -26q-12 -2 -19 -7t-9.5 -11t-2 -12t2.5 -9q8 -14 25.5 -19.5t46.5 -5.5q35 0 71.5 2.5t71.5 10.5q10 3 15 -6q18 -35 46.5 -62t79.5 -44q13 -5 7 -18l-15 -27
q-5 -8 -15 -5q-43 17 -67.5 34.5t-41.5 40.5q0 -14 -5.5 -28t-18.5 -23q47 -9 59 -57q5 -20 -3.5 -42.5t-27.5 -32.5q14 -8 22.5 -18.5t12.5 -27.5q5 -20 -5.5 -44.5t-39.5 -33.5l-10 -3q24 -3 48 -3q40 0 76.5 7.5t67.5 19.5t56 27.5t42 31.5q5 3 9 3h231q12 0 12 -12v-38
q0 -12 -12 -12h-224q-19 -16 -45.5 -30.5t-58.5 -25t-68.5 -17t-76.5 -6.5q-38 0 -78 6.5t-81 21.5l-10 -2q-38 -8 -65 6t-34 38q-5 16 -2 32.5t11 27.5q-38 3 -58 22.5t-25 40.5q-3 16 0.5 33.5t14.5 32.5q-19 7 -31 24.5t-14 35.5q-1 9 0 20.5t6 23.5l-127 -8
q-27 -2 -46 5.5t-30 20t-16 28t-5 30.5q0 29 22.5 52.5t80.5 27.5l175 11q10 12 24.5 18t37.5 9l208 28q24 3 48 3q38 0 75 -7.5t71 -24t64 -41.5t53 -60h204zM161 478q-30 -1 -42 -7.5t-12 -23.5q0 -16 11 -22t40 -4l175 12q-9 7 -15.5 20t-6.5 30zM366 376q-27 -4 -39 -13
t-9 -27q2 -17 17.5 -21.5t41.5 0.5l129 24q23 5 30 12.5t5 21.5q-1 11 -11 18t-37 3zM579 258q-2 18 -16.5 24.5t-44.5 1.5l-138 -25q-23 -5 -30 -17t-5 -26q2 -15 16 -23t40 -3l134 24q28 5 37.5 15.5t6.5 28.5zM446 140q-20 -4 -26.5 -15t-3.5 -23t15.5 -15.5t31.5 1.5
l90 20q19 5 25.5 12t4.5 20q-2 11 -13 16t-31 1z" />
    <glyph glyph-name="uni261D" unicode="&#x261d;" horiz-adv-x="692" 
d="M502 -188q0 -12 -12 -12h-37q-12 0 -12 12v232q0 8 7 11q42 20 69 50t42 66t19 76t-2 81l-26 189q-2 12 -7 19t-11 9.5t-12 2t-9 -2.5q-14 -8 -19.5 -25.5t-5.5 -46.5q0 -35 2.5 -71.5t10.5 -71.5q3 -9 -6 -15q-35 -18 -62 -46.5t-44 -79.5q-5 -13 -18 -7l-27 15
q-8 5 -5 15q17 43 34.5 67.5t40.5 41.5q-14 0 -28 5.5t-23 18.5q-9 -47 -57 -59q-20 -5 -42.5 3.5t-32.5 27.5q-8 -14 -18.5 -22.5t-27.5 -12.5q-20 -5 -44.5 5.5t-33.5 39.5l-3 10q-6 -47 -0.5 -91t18 -81.5t30 -67.5t35.5 -50q3 -4 3 -9v-226q0 -12 -12 -12h-38
q-12 0 -12 12v219q-24 28 -43.5 71.5t-29 97.5t-5.5 115t27 124l-2 10q-8 38 6 65t38 34q16 5 32.5 2t27.5 -11q3 38 22.5 58t40.5 25q16 3 33.5 -0.5t32.5 -14.5q7 19 24.5 31t35.5 14q9 1 20.5 0t23.5 -6l-8 127q-2 27 5.5 46t20 30t28 16t30.5 5q29 0 52.5 -22.5
t27.5 -80.5l11 -175q12 -10 18 -24.5t9 -37.5l28 -208q6 -42 1.5 -86t-20.5 -85t-43 -77t-68 -63v-199zM514 755q-1 30 -7.5 42t-23.5 12q-16 0 -22 -11t-4 -40l12 -175q7 9 20 15.5t30 6.5zM412 550q-4 27 -13 39t-27 9q-17 -2 -21.5 -17.5t0.5 -41.5l24 -129
q5 -23 12.5 -30t21.5 -5q11 1 18 11t3 37zM294 337q18 2 24.5 16.5t1.5 44.5l-25 138q-4 23 -16.5 30t-26.5 5q-15 -2 -23 -16t-3 -40l24 -134q5 -28 15.5 -37.5t28.5 -6.5zM176 470q-4 20 -15 26.5t-23 3.5t-15.5 -15.5t1.5 -31.5l20 -90q5 -19 12 -25.5t20 -4.5
q11 2 16 13t1 31z" />
    <glyph glyph-name="uni261E" unicode="&#x261e;" horiz-adv-x="1177" 
d="M262 466q23 35 53 60t64 41.5t71.5 24t74.5 7.5q24 0 48 -3l208 -28q23 -3 37.5 -9t24.5 -18l175 -11q58 -4 80.5 -27.5t22.5 -52.5q0 -15 -5 -30.5t-16 -28t-30 -20t-46 -5.5l-127 8q5 -12 6 -23.5t0 -20.5q-2 -18 -14 -35.5t-31 -24.5q11 -15 14.5 -32.5t0.5 -33.5
q-5 -21 -25 -40.5t-58 -22.5q8 -11 11 -27.5t-2 -32.5q-7 -24 -34 -38t-65 -6l-10 2q-41 -15 -81 -21.5t-78 -6.5q-40 0 -76.5 6.5t-68.5 17t-58.5 25t-45.5 30.5h-224q-12 0 -12 12v38q0 12 12 12h231q5 0 9 -3q17 -16 42 -31.5t56 -27.5t67.5 -19.5t76.5 -7.5q24 0 48 3
l-10 3q-29 9 -39.5 33.5t-5.5 44.5q4 17 12.5 27.5t22.5 18.5q-19 10 -27.5 32.5t-3.5 42.5q12 48 59 57q-13 9 -18.5 23t-5.5 28q-17 -23 -41.5 -40.5t-67.5 -34.5q-10 -3 -15 5l-15 27q-6 13 7 18q51 17 79.5 44t46.5 62q6 9 15 6q35 -8 71.5 -10.5t71.5 -2.5
q29 0 46.5 5.5t25.5 19.5q2 3 2.5 9t-2 12t-9.5 11t-19 7l-189 26q-25 3 -49 3q-69 0 -129 -30t-95 -101q-3 -7 -11 -7h-237q-12 0 -12 12v37q0 12 12 12h204zM856 483q0 -17 -6.5 -30t-15.5 -20l175 -12q29 -2 40 4t11 22q0 17 -12 23.5t-42 7.5zM674 394q-27 4 -37 -3
t-11 -18q-2 -14 5 -21.5t30 -12.5l129 -24q26 -5 41.5 -0.5t17.5 21.5q3 18 -9 27t-39 13zM588 258q-3 -18 6.5 -28.5t37.5 -15.5l134 -24q26 -5 40 3t16 23q2 14 -5 26.5t-30 16.5l-138 25q-30 5 -44.5 -1.5t-16.5 -24.5zM628 157q-20 4 -31 -1t-13 -16q-2 -13 4.5 -20
t25.5 -12l90 -20q19 -5 31.5 -1.5t15.5 15.5t-3.5 23t-26.5 15z" />
    <glyph glyph-name="uni261F" unicode="&#x261f;" horiz-adv-x="692" 
d="M502 659q41 -27 68 -63t43 -77t20.5 -85t-1.5 -86l-28 -208q-3 -23 -9 -37.5t-18 -24.5l-11 -175q-4 -58 -27.5 -80.5t-52.5 -22.5q-15 0 -30.5 5t-28 16t-20 30t-5.5 46l8 127q-12 -5 -23.5 -6t-20.5 0q-18 2 -35.5 14t-24.5 31q-15 -11 -32.5 -14.5t-33.5 -0.5
q-21 5 -40.5 25t-22.5 58q-11 -8 -27.5 -11t-32.5 2q-24 7 -38 34t-6 65l2 10q-23 63 -27 124t5.5 115t29 97.5t43.5 71.5v184q0 12 12 12h38q12 0 12 -12v-191q0 -4 -3 -9q-18 -19 -35.5 -49.5t-30 -68t-18 -81.5t0.5 -91l3 10q9 29 33.5 39.5t44.5 5.5q17 -4 27.5 -12.5
t18.5 -22.5q10 19 32.5 27.5t42.5 3.5q48 -12 57 -59q9 13 23 18.5t28 5.5q-23 17 -40.5 41.5t-34.5 67.5q-3 10 5 15l27 15q13 6 18 -7q17 -51 44 -79.5t62 -46.5q9 -5 6 -15q-8 -35 -10.5 -71.5t-2.5 -71.5q0 -29 5.5 -46.5t19.5 -25.5q3 -2 9 -2.5t12 2t11 9.5t7 19
l26 189q6 41 2 81t-19 76t-42 66t-69 50q-7 4 -7 11v197q0 12 12 12h37q12 0 12 -12v-164zM193 293q4 20 -1 31t-16 13q-13 2 -20 -4.5t-12 -25.5l-20 -90q-5 -19 -1.5 -31.5t15.5 -15.5t23 3.5t15 26.5zM294 333q-18 3 -28.5 -6.5t-15.5 -37.5l-24 -134q-5 -26 3 -40
t23 -16q14 -2 26.5 5t16.5 30l25 138q5 30 -1.5 44.5t-24.5 16.5zM430 247q4 27 -3 37t-18 11q-14 2 -21.5 -5t-12.5 -30l-24 -129q-5 -26 -0.5 -41.5t21.5 -17.5q18 -3 27 9t13 39zM519 65q-17 0 -30 6.5t-20 15.5l-12 -175q-2 -29 4 -40t22 -11q17 0 23.5 12t7.5 42z" />
    <glyph glyph-name="uni2630" unicode="&#x2630;" horiz-adv-x="752" 
d="M68 567q-12 0 -12 12v96q0 12 12 12h616q12 0 12 -12v-96q0 -12 -12 -12h-616zM68 324q-12 0 -12 12v96q0 12 12 12h616q12 0 12 -12v-96q0 -12 -12 -12h-616zM68 81q-12 0 -12 12v96q0 12 12 12h616q12 0 12 -12v-96q0 -12 -12 -12h-616z" />
    <glyph glyph-name="uni2639" unicode="&#x2639;" horiz-adv-x="842" 
d="M421 732q82 0 153 -29.5t123 -81.5t81.5 -123t29.5 -153t-29.5 -153t-81.5 -123t-123 -81.5t-153 -29.5t-153 29.5t-123 81.5t-81.5 123t-29.5 153t29.5 153t81.5 123t123 81.5t153 29.5zM421 645q-65 0 -120 -23t-94.5 -63.5t-62 -95.5t-22.5 -118q0 -64 22.5 -119
t62 -95.5t94.5 -63.5t120 -23t120 23t94.5 63.5t61.5 95.5t22 119q0 63 -22 118t-61.5 95.5t-94.5 63.5t-120 23zM300 486q26 0 42.5 -15.5t16.5 -41.5t-16.5 -42t-42.5 -16t-42.5 16t-16.5 42t16.5 41.5t42.5 15.5zM539 486q26 0 42.5 -15.5t16.5 -41.5t-16.5 -42
t-42.5 -16t-42 16t-16 42t16 41.5t42 15.5zM420 232q-31 0 -55 -6.5t-43.5 -17.5t-34.5 -24t-27 -27q-9 -9 -17 -1l-25 24q-8 6 -1 16q14 17 32.5 34t43.5 31t56.5 23t70.5 9q38 0 69.5 -9t56.5 -23t44.5 -31t32.5 -34q7 -10 -1 -16l-25 -24q-8 -8 -17 1q-12 14 -27 27
t-34.5 24t-43.5 17.5t-55 6.5z" />
    <glyph glyph-name="smileface" unicode="&#x263a;" horiz-adv-x="842" 
d="M421 732q82 0 153 -29.5t123 -81.5t81.5 -123t29.5 -153t-29.5 -153t-81.5 -123t-123 -81.5t-153 -29.5t-153 29.5t-123 81.5t-81.5 123t-29.5 153t29.5 153t81.5 123t123 81.5t153 29.5zM421 645q-65 0 -120 -23t-94.5 -63.5t-62 -95.5t-22.5 -118q0 -64 22.5 -119
t62 -95.5t94.5 -63.5t120 -23t120 23t94.5 63.5t61.5 95.5t22 119q0 63 -22 118t-61.5 95.5t-94.5 63.5t-120 23zM300 486q26 0 42.5 -15.5t16.5 -41.5t-16.5 -42t-42.5 -16t-42.5 16t-16.5 42t16.5 41.5t42.5 15.5zM539 486q26 0 42.5 -15.5t16.5 -41.5t-16.5 -42
t-42.5 -16t-42 16t-16 42t16 41.5t42 15.5zM420 209q31 0 55 6.5t43.5 17.5t34.5 24.5t27 26.5q9 9 17 1l25 -24q8 -6 1 -16q-13 -16 -32.5 -33.5t-44.5 -31.5t-56.5 -23t-69.5 -9q-39 0 -70.5 9t-56.5 23t-43.5 31.5t-32.5 33.5q-7 10 1 16l25 24q8 8 17 -1
q12 -13 27 -26.5t34.5 -24.5t43.5 -17.5t55 -6.5z" />
    <glyph glyph-name="invsmileface" unicode="&#x263b;" horiz-adv-x="848" 
d="M424 734q83 0 154 -29.5t123.5 -81.5t82.5 -123.5t30 -154.5t-30 -154t-82.5 -123.5t-123.5 -82t-154 -29.5q-82 0 -153.5 29.5t-124 82t-82.5 123.5t-30 154t30 154.5t82.5 123.5t124 81.5t153.5 29.5zM303 486q-26 0 -42.5 -15.5t-16.5 -41.5t16.5 -42t42.5 -16
t42.5 16t16.5 42t-16.5 41.5t-42.5 15.5zM542 486q-26 0 -42 -15.5t-16 -41.5t16 -42t42 -16t42.5 16t16.5 42t-16.5 41.5t-42.5 15.5zM423 209q-33 0 -59 8t-46 20t-35.5 27t-27.5 29l-42 -39q13 -17 32 -36t45 -34.5t59 -25.5t74 -10t74 10t59 25.5t45 34.5t32 36l-42 39
q-13 -14 -28 -29t-35 -27t-46 -20t-59 -8z" />
    <glyph glyph-name="spade" unicode="&#x2660;" horiz-adv-x="807" 
d="M619 456q38 -37 61.5 -79.5t23.5 -90.5q0 -66 -40 -104.5t-109 -38.5q-29 0 -49.5 9.5t-34 26t-22 38t-13.5 46.5h-11q1 -92 15 -149.5t35 -93.5q11 -20 -11 -20h-122q-22 0 -11 20q21 36 35 93.5t15 149.5h-11q-5 -25 -13 -46.5t-21.5 -38t-34 -26t-49.5 -9.5
q-69 0 -109 38.5t-40 104.5q0 48 23.5 90.5t61.5 79.5l208 201q8 8 15 0z" />
    <glyph glyph-name="club" unicode="&#x2663;" horiz-adv-x="689" 
d="M34 317q0 33 11 60.5t30.5 47t47 30t60.5 10.5q5 0 14.5 -1.5t14.5 -2.5q-7 13 -11.5 28t-4.5 31q0 67 41 107.5t108 40.5q66 0 107 -40.5t41 -107.5q0 -16 -5 -31.5t-12 -28.5q6 1 15.5 3t16.5 2q67 0 107 -41t40 -107q0 -68 -40 -108.5t-107 -40.5q-68 0 -98 40.5
t-30 108.5h-13q1 -94 15 -173.5t36 -123.5q10 -20 -12 -20h-122q-22 0 -12 20q22 44 36 123.5t15 173.5h-13q0 -68 -30 -108.5t-97 -40.5t-108 40.5t-41 108.5z" />
    <glyph glyph-name="heart" unicode="&#x2665;" horiz-adv-x="711" 
d="M125 267q-41 39 -66 84.5t-25 96.5q0 71 43 112t117 41q31 0 56.5 -10t45 -27.5t33 -41t19.5 -49.5h15q6 26 19 49.5t32.5 41t45.5 27.5t57 10q74 0 117 -41t43 -112q0 -51 -25.5 -96t-66.5 -85l-222 -216q-7 -7 -15 0z" />
    <glyph glyph-name="diamond" unicode="&#x2666;" horiz-adv-x="552" 
d="M38 292q-8 8 0 16q38 41 70 78.5t59.5 75.5t52.5 78t49 86q2 4 7 4t7 -4q24 -46 49 -86t52.5 -78t59.5 -75.5t70 -78.5q8 -8 0 -16q-38 -41 -70 -78.5t-59.5 -75.5t-52.5 -78t-49 -86q-2 -4 -7 -4t-7 4q-24 46 -49 86t-52.5 78t-59.5 75.5t-70 78.5z" />
    <glyph glyph-name="uni2706" unicode="&#x2706;" horiz-adv-x="874" 
d="M438 748q88 0 161.5 -28.5t127 -80.5t83.5 -125t30 -163t-30 -163.5t-83.5 -126t-127 -81t-161.5 -28.5t-162 28.5t-128 81t-84 126t-30 163.5t30 163t84 125t128 80.5t162 28.5zM438 653q-67 0 -123 -21.5t-96.5 -61t-62.5 -95t-22 -124.5t22.5 -125t62.5 -96t96 -61.5
t123 -21.5t122.5 21.5t95.5 61t62 96t22 125.5t-22 125t-62 95t-95.5 60.5t-122.5 21.5zM306 148q-5 -5 -13 -1q-39 27 -57.5 57.5t-2.5 74.5q31 83 90.5 160t130.5 132q23 17 55 17q23 0 47.5 -9.5t43.5 -27.5q5 -5 3 -12q-10 -26 -32 -53.5t-50 -48.5q-7 -5 -13 -1l-29 15
q-51 -24 -81.5 -66t-44.5 -97l27 -25q6 -5 3 -13q-13 -32 -33.5 -58.5t-43.5 -43.5zM567 403q-8 -4 -14 1l-12 9q-13 8 -1 19q45 40 71 87q3 6 8.5 7t10.5 -4l11 -10q6 -4 4 -12q-10 -26 -31 -52t-47 -45zM358 111q-7 -5 -14 0l-17 12q-6 4 -6.5 9t4.5 10q42 39 65 90
q8 16 20 5l15 -14q5 -5 3 -12q-8 -26 -27 -53.5t-43 -46.5z" />
    <glyph glyph-name="uni2709" unicode="&#x2709;" horiz-adv-x="1012" 
d="M68 0q-12 0 -12 12v585q0 12 12 12h876q12 0 12 -12v-585q0 -12 -12 -12h-876zM509 321l278 200h-556zM354 326l-208 151v-344zM661 324l205 -189v338zM422 276l-203 -188h576l-202 186l-84 -61z" />
    <glyph glyph-name="uni2713" unicode="&#x2713;" horiz-adv-x="658" 
d="M39 373q-7 10 5 17l139 68q10 5 15 -5l110 -208l164 362q5 11 16 6l127 -61q11 -5 5 -16l-253 -483q-4 -6 -10 -6h-106q-6 0 -11 6z" />
    <glyph glyph-name="uni2715" unicode="&#x2715;" horiz-adv-x="703" 
d="M642 539q8 -8 0 -16l-176 -178l177 -178q8 -8 0 -16l-97 -97q-8 -8 -16 0l-179 178l-178 -176q-8 -8 -16 0l-96 96q-9 9 0 17l178 176l-176 178q-8 8 0 16l96 96q9 9 17 0l176 -177l177 177q8 9 17 0z" />
    <glyph glyph-name="uni275B" unicode="&#x275b;" horiz-adv-x="470" 
d="M241 232q-43 0 -79.5 14.5t-63.5 42t-42.5 67t-15.5 89.5q0 52 19 105t57 99t94 80t130 49q11 2 14 -8l19 -66q2 -7 -1 -11t-9 -5q-52 -9 -92.5 -35t-60.5 -73q26 12 51 12q39 0 70 -13.5t53 -36.5t34 -54t12 -66t-12 -69t-35.5 -61t-59 -43.5t-82.5 -16.5z" />
    <glyph glyph-name="uni275C" unicode="&#x275c;" horiz-adv-x="470" 
d="M229 794q43 0 79.5 -14.5t63.5 -42t42.5 -67t15.5 -89.5q0 -52 -19 -105t-57 -99t-94 -80t-130 -49q-11 -2 -14 8l-19 66q-2 7 1 11t9 5q52 9 92.5 35t60.5 73q-25 -12 -51 -12q-39 0 -70 13.5t-53 36.5t-34 54t-12 66t12 69t35.5 61t59 43.5t82.5 16.5z" />
    <glyph glyph-name="uni275D" unicode="&#x275d;" horiz-adv-x="889" 
d="M660 232q-43 0 -79.5 14.5t-63.5 42t-42.5 67t-15.5 89.5q0 52 19 105t57 99t94 80t130 49q11 2 14 -8l19 -66q3 -14 -10 -16q-52 -9 -92.5 -35t-60.5 -73q26 12 51 12q39 0 70 -13.5t53 -36.5t34 -54t12 -66t-12 -69t-35.5 -61t-59 -43.5t-82.5 -16.5zM241 232
q-43 0 -79.5 14.5t-63.5 42t-42.5 67t-15.5 89.5q0 52 19 105t57 99t94 80t130 49q11 2 14 -8l19 -66q3 -14 -10 -16q-52 -9 -92.5 -35t-60.5 -73q26 12 51 12q39 0 70 -13.5t53 -36.5t34 -54t12 -66t-12 -69t-35.5 -61t-59 -43.5t-82.5 -16.5z" />
    <glyph glyph-name="uni275E" unicode="&#x275e;" horiz-adv-x="889" 
d="M130 248q-11 -2 -14 8l-19 66q-2 7 1 11t9 5q52 9 92.5 35t60.5 73q-25 -12 -51 -12q-39 0 -70 13.5t-53 36.5t-34 54t-12 66t12 69t35.5 61t59 43.5t82.5 16.5q43 0 79.5 -14.5t63.5 -42t42.5 -67t15.5 -89.5q0 -52 -19 -105t-57 -99t-94 -80t-130 -49zM549 248
q-11 -2 -14 8l-19 66q-2 7 1 11t9 5q52 9 92.5 35t60.5 73q-25 -12 -51 -12q-39 0 -70 13.5t-53 36.5t-34 54t-12 66t12 69t35.5 61t59 43.5t82.5 16.5q43 0 79.5 -14.5t63.5 -42t42.5 -67t15.5 -89.5q0 -52 -19 -105t-57 -99t-94 -80t-130 -49z" />
    <glyph glyph-name="uni275F" unicode="&#x275f;" horiz-adv-x="470" 
d="M229 350q43 0 79.5 -14.5t63.5 -42t42.5 -67t15.5 -89.5q0 -52 -19 -105t-57 -99t-94 -80t-130 -49q-11 -2 -14 8l-19 66q-3 14 10 16q52 9 92.5 35t60.5 73q-25 -12 -51 -12q-39 0 -70 13.5t-53 36.5t-34 54t-12 66t12 69t35.5 61t59 43.5t82.5 16.5z" />
    <glyph glyph-name="uni2760" unicode="&#x2760;" horiz-adv-x="889" 
d="M229 350q43 0 79.5 -14.5t63.5 -42t42.5 -67t15.5 -89.5q0 -52 -19 -105t-57 -99t-94 -80t-130 -49q-11 -2 -14 8l-19 66q-2 7 1 11t9 5q52 9 92.5 35t60.5 73q-25 -12 -51 -12q-39 0 -70 13.5t-53 36.5t-34 54t-12 66t12 69t35.5 61t59 43.5t82.5 16.5zM648 350
q43 0 79.5 -14.5t63.5 -42t42.5 -67t15.5 -89.5q0 -52 -19 -105t-57 -99t-94 -80t-130 -49q-11 -2 -14 8l-19 66q-2 7 1 11t9 5q52 9 92.5 35t60.5 73q-25 -12 -51 -12q-39 0 -70 13.5t-53 36.5t-34 54t-12 66t12 69t35.5 61t59 43.5t82.5 16.5z" />
    <glyph glyph-name="uni2766" unicode="&#x2766;" horiz-adv-x="681" 
d="M326 339q21 41 39.5 82.5t32.5 79.5q-35 16 -67.5 36.5t-62 38.5t-57 30.5t-53.5 12.5q-66 0 -69 -49q-1 -16 4.5 -38t26.5 -48q10 -10 -2 -18l-21 -15q-8 -6 -15 1q-26 28 -37.5 61t-9.5 62q3 40 32.5 68.5t82.5 28.5q31 0 60 -10.5t58 -26.5q21 38 50.5 59.5t61.5 21.5
q46 0 70.5 -25.5t24.5 -72.5q0 -40 -13 -88q14 -4 28 -6t29 -2q35 0 52.5 13.5t19.5 34.5q2 14 -3.5 28t-19.5 27q-10 8 -2 18l17 21q7 9 16 2q25 -18 36.5 -42.5t10.5 -49.5q0 -19 -8 -37.5t-23.5 -33t-38 -23.5t-52.5 -9q-20 0 -39 3.5t-38 8.5q-12 -35 -29 -74t-39 -82
l11 -3q23 43 51.5 67t63.5 24q45 0 72.5 -28t27.5 -82q0 -40 -16.5 -67t-41.5 -45.5t-53.5 -31.5t-53.5 -25t-41.5 -25t-16.5 -33q0 -37 47 -37q32 0 56.5 17t44.5 46q7 10 17 3l16 -10q9 -7 4 -15q-27 -47 -70.5 -70.5t-99.5 -23.5q-62 0 -112 25t-85.5 66t-54.5 92.5
t-19 103.5q0 44 10.5 75t28 51t40.5 29.5t47 9.5q15 0 29 -5t24 -16.5t13.5 -30.5t-1.5 -47zM306 613q26 -17 52 -33.5t54 -30.5q3 14 5 27.5t2 25.5q-1 26 -11.5 42t-33.5 16q-21 0 -37.5 -10.5t-30.5 -36.5z" />
    <glyph glyph-name="uni2767" unicode="&#x2767;" horiz-adv-x="770" 
d="M437 345q-48 23 -73 48.5t-25 54.5q0 42 26.5 66.5t71.5 24.5q35 0 59 -14t41.5 -34.5t30 -45t24.5 -45t25 -34.5t31 -14q17 0 27.5 11.5t10.5 28.5q0 26 -14 49t-47 46q-11 7 -4 17l9 14q7 10 16 4q90 -55 90 -155q0 -57 -24 -104.5t-62.5 -81t-87 -52t-96.5 -18.5
q-81 0 -117.5 28t-36.5 73q0 36 29 57.5t75 13.5l4 11q-36 19 -80 29.5t-87 11.5h-15t-14 -1q14 -30 24.5 -62t10.5 -68q0 -33 -9.5 -57.5t-25.5 -41t-35 -25t-39 -8.5q-49 0 -82.5 33.5t-33.5 97.5q0 65 31.5 104t82.5 56q-18 36 -32.5 74t-14.5 77q0 29 9.5 50.5
t25.5 35.5t36.5 21t42.5 7q46 0 84 -27q5 -3 5 -7.5t-3 -8.5l-16 -21q-7 -10 -17 -3q-27 18 -55 18q-25 0 -42.5 -16t-17.5 -48q0 -35 15 -69.5t34 -69.5q11 2 21.5 2h21.5q46 0 94 -10.5t95 -30.5zM169 323q-36 -13 -58.5 -40t-22.5 -73q0 -44 16 -65t44 -21q24 0 41 19.5
t17 63.5q0 28 -11 57t-26 59z" />
    <glyph glyph-name="uni2776" unicode="&#x2776;" horiz-adv-x="1116" 
d="M558 866q113 0 205.5 -35.5t158.5 -101t102 -158.5t36 -208t-36 -208.5t-102 -158.5t-158.5 -100.5t-205.5 -35.5t-205.5 35.5t-158.5 100.5t-102 158.5t-36 208.5t36 208t102 158.5t158.5 101t205.5 35.5zM585 622q-6 0 -14 -2l-188 -44q-12 -4 -9 -15l31 -112
q3 -11 14 -8l81 18v-375q0 -12 12 -12h128q12 0 12 12v526q0 12 -12 12h-55z" />
    <glyph glyph-name="uni2777" unicode="&#x2777;" horiz-adv-x="1116" 
d="M558 866q113 0 205.5 -35.5t158.5 -101t102 -158.5t36 -208t-36 -208.5t-102 -158.5t-158.5 -100.5t-205.5 -35.5t-205.5 35.5t-158.5 100.5t-102 158.5t-36 208.5t36 208t102 158.5t158.5 101t205.5 35.5zM467 452q31 56 78 56q23 0 33.5 -11.5t10.5 -27.5
q0 -15 -8.5 -36t-33.5 -48l-199 -222q-3 -3 -3 -8v-53q0 -12 12 -12h384q12 0 12 12v128q0 12 -12 12h-141l62 64q49 50 70 90t21 85q0 79 -55 124t-152 45q-69 0 -123 -37.5t-82 -105.5q-5 -10 6 -15l104 -45q11 -5 16 5z" />
    <glyph glyph-name="uni2778" unicode="&#x2778;" horiz-adv-x="1116" 
d="M558 866q113 0 205.5 -35.5t158.5 -101t102 -158.5t36 -208t-36 -208.5t-102 -158.5t-158.5 -100.5t-205.5 -35.5t-205.5 35.5t-158.5 100.5t-102 158.5t-36 208.5t36 208t102 158.5t158.5 101t205.5 35.5zM543 301q49 0 49 -44q0 -41 -54 -41q-27 0 -46 12t-33 42
q-6 11 -16 6l-109 -46q-11 -4 -6 -14q25 -69 82 -106t139 -37q46 0 84 12t65.5 34t42.5 53t15 69q0 42 -20 73t-64 52q39 16 61.5 51t22.5 82q0 69 -52 106.5t-151 37.5q-79 0 -135 -37t-82 -105q-5 -12 7 -15l108 -43q11 -3 16 6q27 51 77 51q23 0 35.5 -10t12.5 -29
q0 -40 -49 -40h-46q-12 0 -12 -12v-96q0 -12 12 -12h46z" />
    <glyph glyph-name="uni2779" unicode="&#x2779;" horiz-adv-x="1116" 
d="M558 866q113 0 205.5 -35.5t158.5 -101t102 -158.5t36 -208t-36 -208.5t-102 -158.5t-158.5 -100.5t-205.5 -35.5t-205.5 35.5t-158.5 100.5t-102 158.5t-36 208.5t36 208t102 158.5t158.5 101t205.5 35.5zM774 298q0 12 -12 12h-38v81q0 12 -12 12h-111q-12 0 -12 -12
v-81h-78l137 313q7 17 -11 17h-150q-7 0 -11 -7l-158 -386q-5 -13 -5 -23v-46q0 -12 12 -12h264v-66q0 -12 12 -12h111q12 0 12 12v66h38q12 0 12 12v120z" />
    <glyph glyph-name="uni277A" unicode="&#x277a;" horiz-adv-x="1116" 
d="M558 866q113 0 205.5 -35.5t158.5 -101t102 -158.5t36 -208t-36 -208.5t-102 -158.5t-158.5 -100.5t-205.5 -35.5t-205.5 35.5t-158.5 100.5t-102 158.5t-36 208.5t36 208t102 158.5t158.5 101t205.5 35.5zM734 623q0 12 -12 12h-324q-10 0 -12 -11l-22 -312
q-2 -13 12 -13h171q29 0 40.5 -13.5t11.5 -32.5q0 -23 -14 -34t-39 -11q-26 0 -42.5 13t-26.5 38q-5 13 -16 8l-106 -45q-10 -3 -7 -14q23 -71 76 -107t141 -36q46 0 82.5 16.5t61.5 43.5t38.5 61.5t13.5 70.5q0 88 -51.5 132t-148.5 44h-39l2 52h198q12 0 12 12v126z" />
    <glyph glyph-name="uni277B" unicode="&#x277b;" horiz-adv-x="1116" 
d="M558 866q113 0 205.5 -35.5t158.5 -101t102 -158.5t36 -208t-36 -208.5t-102 -158.5t-158.5 -100.5t-205.5 -35.5t-205.5 35.5t-158.5 100.5t-102 158.5t-36 208.5t36 208t102 158.5t158.5 101t205.5 35.5zM529 632q-6 0 -11 -6l-136 -226q-19 -32 -30 -68.5t-11 -75.5
q0 -45 15 -79t43 -57.5t66.5 -35.5t84.5 -12q48 0 88.5 12.5t70.5 37t46.5 60.5t16.5 82q0 40 -12.5 72.5t-33.5 56t-49.5 36t-60.5 12.5q-8 0 -17 -1t-24 -3l117 179q5 7 3.5 11.5t-9.5 4.5h-157zM557 324q27 0 39 -13t12 -36q0 -52 -53 -52q-50 0 -50 50q0 51 52 51z" />
    <glyph glyph-name="uni277C" unicode="&#x277c;" horiz-adv-x="1116" 
d="M558 866q113 0 205.5 -35.5t158.5 -101t102 -158.5t36 -208t-36 -208.5t-102 -158.5t-158.5 -100.5t-205.5 -35.5t-205.5 35.5t-158.5 100.5t-102 158.5t-36 208.5t36 208t102 158.5t158.5 101t205.5 35.5zM562 454l-152 -384q-5 -16 12 -16h150q9 0 12 8l158 461
q2 5 3 10t1 12v47q0 12 -12 12h-360q-12 0 -12 -12v-126q0 -12 12 -12h188z" />
    <glyph glyph-name="uni277D" unicode="&#x277d;" horiz-adv-x="1116" 
d="M558 866q113 0 205.5 -35.5t158.5 -101t102 -158.5t36 -208t-36 -208.5t-102 -158.5t-158.5 -100.5t-205.5 -35.5t-205.5 35.5t-158.5 100.5t-102 158.5t-36 208.5t36 208t102 158.5t158.5 101t205.5 35.5zM562 646q-43 0 -79 -10t-61.5 -28.5t-40 -45.5t-14.5 -61
q0 -38 20 -74.5t58 -54.5q-52 -21 -74.5 -58.5t-22.5 -82.5q0 -69 52 -112t162 -43t161.5 43t51.5 112q0 45 -22.5 82.5t-73.5 58.5q38 18 57.5 54.5t19.5 74.5q0 34 -14.5 61t-40 45.5t-61 28.5t-78.5 10zM562 508q20 0 30.5 -10t10.5 -27q0 -14 -9 -24.5t-32 -10.5
t-31 10.5t-8 24.5q0 17 9.5 27t29.5 10zM562 312q28 0 38.5 -12.5t10.5 -31.5t-10.5 -31.5t-38.5 -12.5t-39 12.5t-11 31.5t10.5 31.5t39.5 12.5z" />
    <glyph glyph-name="uni277E" unicode="&#x277e;" horiz-adv-x="1116" 
d="M558 866q113 0 205.5 -35.5t158.5 -101t102 -158.5t36 -208t-36 -208.5t-102 -158.5t-158.5 -100.5t-205.5 -35.5t-205.5 35.5t-158.5 100.5t-102 158.5t-36 208.5t36 208t102 158.5t158.5 101t205.5 35.5zM582 78q7 0 10 6l137 227q19 32 30 68t11 75q0 45 -15.5 79
t-43 57.5t-66 35.5t-85.5 12q-48 0 -88.5 -12.5t-70 -37t-46.5 -60t-17 -81.5q0 -40 12.5 -73t34 -56t50 -36t60.5 -13q11 0 21.5 1t18.5 3l-115 -176q-11 -19 10 -19h152zM554 386q-27 0 -39.5 13.5t-12.5 36.5q0 52 53 52q51 0 51 -51t-52 -51z" />
    <glyph glyph-name="uni2B51" unicode="&#x2b51;" horiz-adv-x="565" 
d="M474 404q16 0 18 -6t-11 -16l-113 -83l41 -131q6 -20 -3 -20q-6 0 -16 7l-108 81l-106 -81q-10 -7 -15 -7q-10 0 -4 21l40 130l-112 83q-13 10 -11.5 16t18.5 6h139l40 128q6 17 12 17t11 -17l41 -128h139z" />
    <glyph glyph-name="uni2B52" unicode="&#x2b52;" horiz-adv-x="564" 
d="M472 404q16 0 18 -6t-11 -16l-112 -82l40 -130q6 -21 -3 -21q-5 0 -16 8l-107 81l-106 -81q-11 -8 -16 -8q-9 0 -3 21l41 130l-112 82q-13 10 -11 16t18 6h138l40 127q6 17 12 17t11 -17l41 -127h138zM308 369l-26 83l-24 -83h-94l73 -58l-24 -86l69 58l73 -58l-28 86
l74 58h-93z" />
    <glyph glyph-name="uni2B6E" unicode="&#x2b6e;" horiz-adv-x="883" 
d="M296 675q5 2 9 0.5t6 -5.5l143 -252q5 -11 -6 -17l-91 -43q-11 -5 -16 6l-44 91q-11 -25 -17 -54t-6 -64q0 -100 54.5 -154.5t154.5 -54.5q105 0 160 58t55 160q0 66 -22 112.5t-60 80.5q-10 10 0 19l90 73q7 7 14 0q61 -50 95 -125.5t34 -164.5q0 -80 -27.5 -145
t-76 -111.5t-115 -71.5t-144.5 -25t-144.5 25.5t-115 72t-76 112t-27.5 146.5q0 44 11 83.5t28 74.5l-99 -41q-11 -3 -16 6l-41 88q-5 12 7 16z" />
    <glyph glyph-name="uni2B6F" unicode="&#x2b6f;" horiz-adv-x="883" 
d="M163 631q7 7 14 0l90 -73q10 -9 0 -19q-38 -34 -60 -80.5t-22 -112.5q0 -102 54.5 -160t157.5 -58t157.5 55.5t54.5 162.5q0 30 -6 57.5t-17 51.5l-44 -91q-5 -11 -16 -6l-91 43q-11 6 -6 17l143 252q2 4 6 5.5t9 -0.5l283 -104q12 -4 7 -16l-41 -88q-5 -9 -16 -6l-99 41
q17 -35 28 -74.5t11 -83.5q0 -81 -27.5 -146.5t-76 -112t-115 -72t-144.5 -25.5t-144.5 25.5t-115 72t-76 112t-27.5 146.5q0 87 34 162t95 125z" />
    <glyph glyph-name="uniE000" unicode="&#xe000;" horiz-adv-x="549" 
d="M34 533q0 53 18 97.5t50 76.5t76 50t96 18q53 0 97 -18t76 -50t50 -76.5t18 -97.5q0 -52 -18 -96t-50 -75.5t-76 -49.5t-97 -18q-52 0 -96 18t-76 49.5t-50 75.5t-18 96zM71 533q0 -44 15 -81.5t42 -65t64 -43t82 -15.5q46 0 83.5 15.5t64 43t41 65t14.5 81.5
q0 45 -14.5 82.5t-41 64.5t-64 42.5t-83.5 15.5q-45 0 -82 -15.5t-64 -42.5t-42 -64.5t-15 -82.5zM333 604v-62h61v-63h-61v-61h-64v61h-63v-61h-62v186h62v-62h63v124h125v-62h-61z" />
    <glyph glyph-name="uniE001" unicode="&#xe001;" horiz-adv-x="618" 
d="M309 740q51 0 97 -16t80.5 -48t55 -81t20.5 -115q0 -67 -20 -132t-52 -126.5t-71.5 -120t-78.5 -111.5q-5 -5 -10 -5h-42q-5 0 -10 5q-39 53 -78.5 111.5t-71.5 120t-52 126.5t-20 132q0 66 20.5 115t55 81t80.5 48t97 16zM309 617q-56 0 -89.5 -33.5t-33.5 -89.5
q0 -55 33.5 -88.5t89.5 -33.5t89.5 33.5t33.5 88.5q0 56 -33.5 89.5t-89.5 33.5z" />
    <glyph glyph-name="uniE007" unicode="&#xe007;" horiz-adv-x="842" 
d="M421 732q82 0 153 -29.5t123 -81.5t81.5 -123t29.5 -153t-29.5 -153t-81.5 -123t-123 -81.5t-153 -29.5t-153 29.5t-123 81.5t-81.5 123t-29.5 153t29.5 153t81.5 123t123 81.5t153 29.5zM421 645q-65 0 -120 -23t-94.5 -63.5t-62 -95.5t-22.5 -118q0 -64 22.5 -119
t62 -95.5t94.5 -63.5t120 -23t120 23t94.5 63.5t61.5 95.5t22 119q0 63 -22 118t-61.5 95.5t-94.5 63.5t-120 23zM300 486q26 0 42.5 -15.5t16.5 -41.5t-16.5 -42t-42.5 -16t-42.5 16t-16.5 42t16.5 41.5t42.5 15.5zM539 486q26 0 42.5 -15.5t16.5 -41.5t-16.5 -42
t-42.5 -16t-42 16t-16 42t16 41.5t42 15.5zM285 189q-12 0 -12 12v50q0 12 12 12h270q12 0 12 -12v-50q0 -12 -12 -12h-270z" />
    <glyph glyph-name="s_t" unicode="&#xfb06;" horiz-adv-x="943" 
d="M483 700q137 0 208 -60t71 -170v-30h125q12 0 12 -12v-116q0 -12 -12 -12h-122v-115q0 -20 8.5 -34.5t35.5 -14.5q12 0 28 4.5t31 11.5q12 5 17 -7l40 -108q5 -10 -6 -15q-34 -16 -74.5 -25t-85.5 -9q-89 0 -134.5 43t-45.5 132v137h-68q-12 0 -12 12v116q0 12 12 12h84
v18q0 60 -27.5 86t-95.5 26t-99 -29t-31 -83v-16q62 -14 110 -43q10 -7 2 -17l-75 -94q-7 -9 -17 -2q-22 15 -50 24.5t-53 9.5q-14 0 -20.5 -5.5t-6.5 -10.5q0 -12 14 -19.5t46 -13.5q86 -17 127 -51.5t41 -87.5q0 -66 -55 -105t-150 -39q-65 0 -126 15.5t-106 41.5
q-9 7 -4 16l56 105q7 12 18 4q37 -26 74 -39t71 -13q15 0 22 5t7 12q0 4 -1.5 8t-8 8t-19.5 8.5t-36 9.5q-87 18 -126 52.5t-39 87.5q0 56 42 93t116 47v11q0 54 20 98.5t57.5 76t91 48.5t119.5 17z" />
    <glyph glyph-name="M.alt" horiz-adv-x="874" 
d="M806 705q12 0 12 -12v-681q0 -12 -12 -12h-182q-12 0 -12 12v273l-130 -161q-6 -7 -15 -7h-60q-9 0 -15 7l-131 161l1 -273q0 -12 -12 -12h-182q-12 0 -12 12v681q0 12 12 12h61q6 0 12 -6l296 -353l296 353q6 6 12 6h61z" />
    <glyph glyph-name="Jacute" horiz-adv-x="316" 
d="M248 700q12 0 12 -12v-608q0 -66 -21 -114.5t-58.5 -80t-89 -48t-113.5 -17.5q-12 0 -12 12v156q0 12 12 12q36 2 57 20t21 60v608q0 12 12 12h180zM134 884q3 6 10 6h191q11 0 14 -5.5t-5 -14.5l-91 -116q-3 -4 -9 -4h-156q-21 0 -11 18z" />
    <glyph glyph-name="a.alt" horiz-adv-x="575" 
d="M227 452q45 0 80.5 -21t58.5 -61l20 62q3 8 12 8h119q12 0 12 -12v-416q0 -12 -12 -12h-119q-9 0 -12 8l-18 57q-22 -37 -58.5 -57t-87.5 -20q-45 0 -81.5 16t-62 46.5t-39.5 73.5t-14 97q0 109 53 170t149 61zM279 290q-33 0 -46.5 -20t-13.5 -49q0 -28 13.5 -49.5
t46.5 -21.5t48 21.5t15 49.5q0 29 -15 49t-48 20z" />
    <glyph glyph-name="g.alt" horiz-adv-x="575" 
d="M222 452q51 0 86.5 -22.5t57.5 -59.5l20 62q3 8 12 8h119q12 0 12 -12v-398q0 -51 -16.5 -94.5t-49 -76t-81 -51t-112.5 -18.5q-72 0 -130 22.5t-106 57.5q-9 7 -2 16l71 102q8 12 18 2q59 -50 135 -50q40 0 65 21t23 60l-1 24q-45 -45 -116 -45q-48 0 -85.5 16.5
t-63.5 46t-39.5 69.5t-13.5 87q0 54 14 97t39.5 73.5t62 46.5t81.5 16zM279 290q-33 0 -46.5 -21.5t-13.5 -49.5q0 -29 13.5 -49t46.5 -20t48 20t15 49q0 28 -15 49.5t-48 21.5z" />
    <glyph glyph-name="r.alt" horiz-adv-x="504" 
d="M46 428q0 12 12 12h119q9 0 12 -8l18 -59q23 37 57 58t82 21q66 0 105 -43t46 -119q2 -9 -7 -12l-141 -54q-14 -5 -17 10q-5 26 -16 35t-30 9q-29 0 -39.5 -29.5t-10.5 -92.5v-144q0 -12 -12 -12h-166q-12 0 -12 12v416z" />
    <glyph glyph-name="ae.alt" horiz-adv-x="824" 
d="M802 233q-2 -18 -6 -31.5t-18 -13.5h-262q5 -21 20.5 -35t42.5 -14q16 0 30.5 7t25.5 18q8 9 17 3l113 -72q10 -7 4 -16q-31 -50 -71.5 -70.5t-88.5 -20.5q-39 0 -69.5 16t-52.5 43l-4 -36q-2 -11 -12 -11h-106q-10 0 -12 11l-4 42q-45 -65 -125 -65q-96 0 -150 61.5
t-54 170.5t53.5 170.5t146.5 61.5q40 0 69.5 -13t50.5 -37v26q0 12 12 12h133q12 0 12 -12v-22q21 22 49.5 34t63.5 12q44 0 81.5 -16t63.5 -45t39 -69t8 -89zM630 264q0 14 -12.5 28t-39.5 14q-26 0 -40.5 -12t-19.5 -30h112zM274 287q-32 0 -46 -18.5t-14 -48.5
q0 -29 14 -48t46 -19t49 19t17 48q0 30 -17 48.5t-49 18.5z" />
    <glyph glyph-name="agrave.alt" horiz-adv-x="575" 
d="M227 452q45 0 80.5 -21t58.5 -61l20 62q3 8 12 8h119q12 0 12 -12v-416q0 -12 -12 -12h-119q-9 0 -12 8l-18 57q-22 -37 -58.5 -57t-87.5 -20q-45 0 -81.5 16t-62 46.5t-39.5 73.5t-14 97q0 109 53 170t149 61zM279 290q-33 0 -46.5 -20t-13.5 -49q0 -28 13.5 -49.5
t46.5 -21.5t48 21.5t15 49.5q0 29 -15 49t-48 20zM356 547q7 -17 -11 -17h-156q-7 0 -10 5l-80 116q-6 8 -3.5 13.5t13.5 5.5h190q8 0 11 -7z" />
    <glyph glyph-name="abreve.alt" horiz-adv-x="575" 
d="M227 452q45 0 80.5 -21t58.5 -61l20 62q3 8 12 8h119q12 0 12 -12v-416q0 -12 -12 -12h-119q-9 0 -12 8l-18 57q-22 -37 -58.5 -57t-87.5 -20q-45 0 -81.5 16t-62 46.5t-39.5 73.5t-14 97q0 109 53 170t149 61zM279 290q-33 0 -46.5 -20t-13.5 -49q0 -28 13.5 -49.5
t46.5 -21.5t48 21.5t15 49.5q0 29 -15 49t-48 20zM88 658q0 12 12 12h116q12 0 12 -12q2 -38 15 -49t30 -11q18 0 30.5 11t14.5 49q0 12 12 12h116q12 0 12 -12q-2 -34 -13.5 -63t-34 -50t-56.5 -33t-81 -12t-81 12t-56.5 33t-34 50t-13.5 63z" />
    </font>
</defs>
</svg>
