<?xml version="1.0" standalone="no"?>
<!DOCTYPE svg PUBLIC "-//W3C//DTD SVG 1.1//EN" "http://www.w3.org/Graphics/SVG/1.1/DTD/svg11.dtd" >
<svg xmlns="http://www.w3.org/2000/svg" xmlns:xlink="http://www.w3.org/1999/xlink" version="1.1">
<metadata>
Created by FontForge 20170731 at Wed Sep 22 08:56:15 2021
 By Aleksey,,,
Copyright (c) 2021 by Hurufatfont Type Foundry-Oguzhan Cengiz. All rights reserved.
</metadata>
<defs>
<font id="Rapor-ThinItalic" horiz-adv-x="600" >
  <font-face 
    font-family="Rapor Thin"
    font-weight="100"
    font-style="italic"
    font-stretch="normal"
    units-per-em="1000"
    panose-1="0 0 0 0 0 0 0 0 0 0"
    ascent="800"
    descent="-200"
    x-height="440"
    cap-height="700"
    bbox="-88.6667 -220 1139.17 928"
    underline-thickness="50"
    underline-position="-175"
    slope="-9.5"
    unicode-range="U+0002-FB06"
  />
<missing-glyph horiz-adv-x="350" 
d="M350 -200h-350v940h350v-940zM50 690v-840h250v840h-250zM175 588l72 72l33 -33l-72 -72l72 -72l-33 -33l-72 72l-72 -72l-33 33l72 72l-72 72l33 33zM175 308l72 72l33 -33l-72 -72l72 -72l-33 -33l-72 72l-72 -72l-33 33l72 72l-72 72l33 33zM175 18l72 72l33 -33
l-72 -72l72 -72l-33 -33l-72 72l-72 -72l-33 33l72 72l-72 72l33 33z" />
    <glyph glyph-name="f_f" unicode="ff" horiz-adv-x="580" 
d="M607 440q7 0 5 -6l-2 -11q0 -6 -7 -6h-132l-68 -411q-1 -6 -7 -6h-14q-6 0 -5 6l68 411h-247l-68 -411q-1 -6 -7 -6h-14q-6 0 -5 6l68 411h-74q-5 0 -5 6l2 11q2 6 7 6h74l24 143q13 75 62.5 116t123.5 41q43 0 75 -17t54 -44q26 30 62.5 45.5t78.5 15.5q27 0 47 -4.5
t43 -18.5q5 -4 1 -8l-5 -9q-4 -6 -10 -3q-17 10 -35 15t-44 5q-28 0 -53 -8t-45.5 -24.5t-35 -41.5t-20.5 -60l-24 -143h132zM449 440l25 148q3 20 9.5 37t14.5 31q-15 24 -43 42.5t-72 18.5q-63 0 -104.5 -34t-53.5 -105l-23 -138h247z" />
    <glyph glyph-name="fi" unicode="fi" horiz-adv-x="460" 
d="M469 440q7 0 5 -6l-71 -428q-1 -6 -7 -6h-14q-6 0 -5 6l68 411h-247l-68 -411q-1 -6 -7 -6h-14q-6 0 -5 6l68 411h-74q-5 0 -5 6l2 11q2 6 7 6h74l23 138q12 73 61 117.5t124 44.5t127 -43q4 -3 0 -9l-10 -10q-5 -5 -9 -1q-23 20 -49.5 30t-61.5 10q-66 0 -105.5 -37.5
t-50.5 -105.5l-23 -134h267z" />
    <glyph glyph-name="fl" unicode="fl" horiz-adv-x="465" 
d="M343 440q7 0 5 -6l-2 -11q0 -6 -7 -6h-141l-68 -411q-1 -6 -7 -6h-14q-6 0 -5 6l68 411h-74q-5 0 -5 6l2 11q2 6 7 6h74l25 147q12 74 61 113.5t124 39.5q42 0 73 -12t57 -33q1 -1 1 -5l-114 -684q-1 -6 -7 -6h-14q-6 0 -5 6l112 675q-18 16 -42.5 26t-63.5 10
q-63 0 -104 -32t-53 -103l-24 -142h141z" />
    <glyph glyph-name="f_f_i" unicode="ffi" horiz-adv-x="733" 
d="M742 440q7 0 5 -6l-71 -428q-1 -6 -7 -6h-14q-6 0 -5 6l68 411h-247l-68 -411q-1 -6 -7 -6h-14q-6 0 -5 6l68 411h-247l-68 -411q-1 -6 -7 -6h-14q-6 0 -5 6l68 411h-74q-5 0 -5 6l2 11q2 6 7 6h74l25 147q12 75 61.5 114t123.5 39q42 0 74.5 -16.5t54.5 -42.5
q26 29 62.5 44t81.5 15q41 0 71 -11.5t55 -31.5q5 -4 0 -9l-9 -10q-6 -4 -9 -1q-20 17 -45 28.5t-66 11.5q-63 0 -104.5 -32.5t-52.5 -102.5l-24 -142h267zM449 440l25 147q6 40 24 70q-16 24 -44 42t-71 18q-64 0 -105 -32.5t-52 -102.5l-24 -142h247z" />
    <glyph glyph-name="f_f_l" unicode="ffl" horiz-adv-x="738" 
d="M659 740q41 0 70.5 -10.5t56.5 -31.5q5 -5 3 -13l-113 -679q-1 -6 -7 -6h-14q-6 0 -5 6l113 677q-20 17 -44 25.5t-63 8.5q-63 0 -104.5 -32.5t-52.5 -102.5l-24 -142h141q7 0 5 -6l-2 -11q0 -6 -7 -6h-141l-68 -411q-1 -6 -7 -6h-14q-6 0 -5 6l68 411h-247l-68 -411
q-1 -6 -7 -6h-14q-6 0 -5 6l68 411h-74q-5 0 -5 6l2 11q2 6 7 6h74l25 147q12 75 61.5 114t124.5 39q42 0 74 -16.5t54 -42.5q26 29 62.5 44t81.5 15zM449 440l25 147q6 40 24 70q-16 24 -44 42t-71 18q-63 0 -104.5 -32.5t-52.5 -102.5l-24 -142h247z" />
    <glyph glyph-name="Th.dlig" unicode="Th" horiz-adv-x="1018" 
d="M167 694q0 6 7 6h509l5 34q2 6 7 6h14q7 0 5 -6l-68 -411q34 62 93.5 95t127.5 33q81 0 119 -46t24 -128l-45 -271q-1 -6 -7 -6h-14q-6 0 -5 6l45 270q13 75 -18.5 113.5t-104.5 38.5q-48 0 -87.5 -15.5t-69 -42t-48.5 -62t-25 -74.5l-38 -228q-1 -6 -7 -6h-14q-6 0 -5 6
l112 670h-261l-112 -670q-1 -6 -7 -6h-14q-6 0 -5 6l112 670h-222q-6 0 -5 6z" />
    <glyph glyph-name="f_j" unicode="fj" horiz-adv-x="460" 
d="M469 440q7 0 5 -6l-81 -487q-11 -59 -44.5 -97t-90.5 -40q-5 0 -5 6l3 13q0 6 7 6q42 2 69 31.5t35 77.5l78 473h-247l-68 -411q-1 -6 -7 -6h-14q-6 0 -5 6l68 411h-74q-5 0 -5 6l2 11q2 6 7 6h74l23 138q12 73 61 117.5t124 44.5t127 -43q4 -3 0 -9l-10 -10q-5 -5 -9 -1
q-23 20 -49.5 30t-61.5 10q-66 0 -105.5 -37.5t-50.5 -105.5l-23 -134h267z" />
    <glyph glyph-name="f_f_j" unicode="ffj" horiz-adv-x="733" 
d="M109 0q-6 0 -5 6l68 411h-74q-5 0 -5 6l2 11q2 6 7 6h74l25 147q12 75 61.5 114t123.5 39q42 0 74.5 -16.5t54.5 -42.5q26 29 62.5 44t81.5 15q41 0 71 -11.5t55 -31.5q5 -4 0 -9l-9 -10q-6 -4 -9 -1q-20 17 -45 28.5t-66 11.5q-63 0 -104.5 -32.5t-52.5 -102.5l-24 -142
h267q7 0 5 -6l-81 -487q-10 -59 -44 -97t-91 -40q-5 0 -5 6l3 13q0 6 7 6q42 2 69 31.5t35 77.5l78 473h-247l-68 -411q-1 -6 -7 -6h-14q-6 0 -5 6l68 411h-247l-68 -411q-1 -6 -7 -6h-14zM449 440l25 147q6 40 24 70q-16 24 -44 42t-71 18q-64 0 -105 -32.5t-52 -102.5
l-24 -142h247z" />
    <glyph glyph-name=".notdef" horiz-adv-x="350" 
d="M350 -200h-350v940h350v-940zM50 690v-840h250v840h-250zM175 588l72 72l33 -33l-72 -72l72 -72l-33 -33l-72 72l-72 -72l-33 33l72 72l-72 72l33 33zM175 308l72 72l33 -33l-72 -72l72 -72l-33 -33l-72 72l-72 -72l-33 33l72 72l-72 72l33 33zM175 18l72 72l33 -33
l-72 -72l72 -72l-33 -33l-72 72l-72 -72l-33 33l72 72l-72 72l33 33z" />
    <glyph glyph-name=".null" horiz-adv-x="500" 
 />
    <glyph glyph-name=".null" horiz-adv-x="500" 
 />
    <glyph glyph-name="uni000D" horiz-adv-x="500" 
 />
    <glyph glyph-name="uni0002" horiz-adv-x="333" 
 />
    <glyph glyph-name="uni0009" unicode="&#x9;" horiz-adv-x="80" 
 />
    <glyph glyph-name="uni000A" unicode="&#xa;" horiz-adv-x="333" 
 />
    <glyph glyph-name="uni000D.1" unicode="&#xd;" horiz-adv-x="333" 
 />
    <glyph glyph-name="space" unicode=" " horiz-adv-x="240" 
 />
    <glyph glyph-name="exclam" unicode="!" horiz-adv-x="251" 
d="M165 191q-1 -6 -7 -6h-2q-6 0 -5 6l25 192l52 311q0 6 7 6h16q5 0 5 -6l-52 -311zM133 46q14 0 20.5 -7.5t4.5 -20.5q-2 -14 -11.5 -22t-23.5 -8q-28 0 -23 30q5 28 33 28z" />
    <glyph glyph-name="quotedbl" unicode="&#x22;" horiz-adv-x="286" 
d="M194 539q-1 -6 -7 -6h-6q-6 0 -5 6l19 155q0 6 7 6h20q5 0 5 -6zM295 539q-1 -6 -7 -6h-6q-6 0 -5 6l19 155q0 6 7 6h20q5 0 5 -6z" />
    <glyph glyph-name="numbersign" unicode="#" horiz-adv-x="724" 
d="M455 0q-4 0 -3 4l46 190h-229l-46 -192q-2 -2 -3 -2h-14q-4 0 -3 4l46 190h-113q-3 0 -3 3l-1 14q0 3 3 3h119l62 256h-126q-3 0 -3 3l-1 14q0 3 3 3h132l50 208q2 2 3 2h14q4 0 3 -4l-50 -206h229l50 208q2 2 3 2h14q4 0 3 -4l-50 -206h113q3 0 3 -3l1 -14q0 -3 -3 -3
h-119l-62 -256h126q3 0 3 -3v-14q0 -3 -3 -3h-131l-46 -192q-2 -2 -3 -2h-14zM503 214l62 256h-229l-62 -256h229z" />
    <glyph glyph-name="dollar" unicode="$" horiz-adv-x="608" 
d="M620 574q-5 -4 -8 2q-26 55 -79 78.5t-120 23.5q-40 0 -76.5 -8.5t-65 -26t-47.5 -44.5t-25 -65t5 -64t35.5 -44t61.5 -31t82 -27q38 -12 74.5 -26.5t64.5 -37t42 -55.5t6 -81q-8 -46 -32 -78.5t-58.5 -52.5t-75.5 -29.5t-82 -9.5l-21 -122q-1 -6 -7 -6h-12q-6 0 -5 6
l21 122q-146 2 -226 109q-3 4 1 8l12 10q5 5 9 0q35 -51 93.5 -77t126.5 -26q105 0 161 40.5t67 106.5q7 41 -5.5 69.5t-38.5 48.5t-62 33.5t-76 25.5t-77.5 25.5t-64.5 34t-40 51t-6 75.5q7 42 29 73.5t54.5 53t73.5 32.5t86 11l19 112q2 6 7 6h12q7 0 5 -6l-19 -112
q27 -1 55.5 -8t55 -20.5t49 -34t37.5 -48.5q3 -4 -3 -8z" />
    <glyph glyph-name="percent" unicode="%" horiz-adv-x="686" 
d="M297 700q33 0 58 -11t41.5 -30.5t23 -46.5t1.5 -60q-6 -33 -21.5 -60.5t-38.5 -47t-52 -30.5t-62 -11q-32 0 -57.5 11t-42 30.5t-23 47t-0.5 60.5q5 33 20.5 60t39 46.5t52.5 30.5t61 11zM766 687q4 -3 0 -9l-712 -672q-4 -4 -8 0l-7 7q-5 3 1 9l711 671q5 3 8 0z
M293 678q-58 0 -97 -35t-48 -91q-10 -57 17.5 -92t85.5 -35t97 35t49 92q9 56 -18.5 91t-85.5 35zM549 287q32 0 57.5 -11t41.5 -31t22.5 -47t1.5 -60q-6 -33 -21.5 -60t-38.5 -46.5t-52 -30.5t-61 -11t-57.5 11t-42 30.5t-23 46.5t-0.5 60q5 33 20.5 60t39 47t52.5 31
t61 11zM545 265q-58 0 -97.5 -35t-48.5 -92q-9 -56 18.5 -91t85.5 -35t97 35t48 91q9 57 -18 92t-85 35z" />
    <glyph glyph-name="ampersand" unicode="&#x26;" horiz-adv-x="673" 
d="M595 551q-9 -43 -35 -72.5t-63 -51t-81 -37.5t-89 -31l218 -231q28 34 47 74t30 86q2 8 8 6l13 -2q2 0 3.5 -2t0.5 -4q-12 -50 -34 -94t-51 -80l86 -97q4 -3 -1 -8l-10 -10q-4 -4 -8 0l-86 95q-46 -48 -108.5 -75t-140.5 -27q-49 0 -89 10.5t-68.5 31.5t-43.5 53t-14 74
q2 45 19.5 78.5t45.5 58t64.5 42t76.5 32.5q-35 41 -49.5 90t-9.5 90q4 40 22 70.5t46 50.5t64.5 30.5t78.5 10.5q85 0 128.5 -43t29.5 -118zM309 379q44 15 87.5 30t79.5 34t61 44.5t32 62.5q14 69 -22.5 104t-113.5 35q-34 0 -64.5 -7.5t-55 -24.5t-40.5 -44t-20 -66
q-5 -41 8 -84t48 -84zM303 351q-39 -14 -74 -30t-62 -38t-43.5 -51.5t-18.5 -70.5q-1 -40 13 -68t40 -46t63 -26t80 -8q71 0 128 26t99 71z" />
    <glyph glyph-name="quotesingle" unicode="'" horiz-adv-x="185" 
d="M194 539q-1 -6 -7 -6h-6q-6 0 -5 6l19 155q0 6 7 6h20q5 0 5 -6z" />
    <glyph glyph-name="parenleft" unicode="(" horiz-adv-x="283" 
d="M365 738q2 2 5 2h10q13 0 3 -10q-55 -53 -95.5 -110.5t-69 -116t-46 -117.5t-26.5 -116q-9 -56 -11 -113.5t7 -114.5t30.5 -113t58.5 -109q7 -10 -6 -10h-10q-2 0 -4 2q-39 54 -61.5 111.5t-32.5 116t-8 116.5t11 115q10 57 28 116.5t47.5 119.5t71 118.5t98.5 112.5z
" />
    <glyph glyph-name="parenright" unicode=")" horiz-adv-x="287" 
d="M164 740q3 0 5 -2q39 -54 61.5 -112.5t31.5 -118.5t7 -120t-11 -117t-27 -115t-46.5 -116t-70.5 -115.5t-99 -111.5q-2 -2 -6 -2h-10q-12 0 -2 10q56 53 96 109t67.5 113t45 114t26.5 113q9 57 11.5 116t-6 118t-29.5 116.5t-59 110.5q-7 10 5 10h10z" />
    <glyph glyph-name="asterisk" unicode="*" horiz-adv-x="466" 
d="M371 740q7 0 5 -6l-37 -159l164 55q7 2 7 -4l2 -23q2 -7 -5 -7l-166 -34l85 -119q2 -6 -3 -9l-21 -15q-6 -3 -9 1l-66 133l-108 -141q-4 -5 -9 -2l-18 14q-4 4 0 9l126 129l-156 34q-5 0 -3 7l11 23q3 6 9 4l145 -55l15 159q2 6 7 6h25z" />
    <glyph glyph-name="plus" unicode="+" horiz-adv-x="579" 
d="M382 508q5 0 5 -6l-36 -214h212q7 0 5 -6l-2 -11q0 -6 -7 -6h-212l-35 -213q-1 -6 -7 -6h-13q-6 0 -5 6l35 213h-213q-5 0 -5 6l2 11q2 6 7 6h213l36 214q0 6 7 6h13z" />
    <glyph glyph-name="comma" unicode="," horiz-adv-x="200" 
d="M103 48q13 0 19.5 -9t4.5 -26q-3 -30 -17.5 -64.5t-40.5 -66.5q-3 -5 -8 -2l-5 4q-4 2 0 8q21 26 31.5 51.5t14.5 50.5q-18 -4 -26 5.5t-6 20.5q2 13 11.5 20.5t21.5 7.5z" />
    <glyph glyph-name="hyphen" unicode="-" horiz-adv-x="434" 
d="M126 282q2 6 7 6h269q7 0 5 -6l-2 -11q0 -6 -7 -6h-269q-5 0 -5 6z" />
    <glyph glyph-name="period" unicode="." horiz-adv-x="210" 
d="M116 48q12 0 18.5 -7.5t4.5 -20.5q-2 -14 -11.5 -22t-21.5 -8q-13 0 -19.5 8t-4.5 22q2 13 11.5 20.5t22.5 7.5z" />
    <glyph glyph-name="slash" unicode="/" horiz-adv-x="523" 
d="M582 740q8 0 1 -9l-506 -768q-1 -3 -5 -3h-13q-7 0 -2 9l506 768q2 3 6 3h13z" />
    <glyph glyph-name="zero" unicode="0" horiz-adv-x="659" 
d="M447 700q74 0 117.5 -31t64.5 -81t23 -112.5t-9 -125.5q-10 -63 -33 -127t-61 -115.5t-92.5 -84.5t-128.5 -33t-117.5 33t-64.5 84.5t-22 115.5t9 127q11 63 33.5 125.5t60 112.5t92 81t128.5 31zM443 677q-68 0 -117 -30t-83 -77t-54 -105t-29 -115t-9 -117t17.5 -108.5
t56.5 -80t107 -31.5q69 0 118.5 31.5t83.5 80t54 108.5t29 117t9 115t-18 105t-57.5 77t-107.5 30z" />
    <glyph glyph-name="one" unicode="1" horiz-adv-x="322" 
d="M335 688q5 0 5 -6l-113 -676q-1 -6 -7 -6h-13q-6 0 -5 6l109 652l-167 -56q-6 -2 -6 3l-3 12q-3 6 5 8l178 60q9 3 13 3h4z" />
    <glyph glyph-name="two" unicode="2" horiz-adv-x="560" 
d="M178 529q-3 -5 -8 -4l-11 3q-7 0 -4 7q31 78 97 121.5t156 43.5q94 0 138 -45.5t30 -126.5q-5 -29 -17 -57t-32 -57t-49.5 -60.5t-69.5 -66.5l-300 -264h381q5 0 5 -6l-2 -11q-1 -6 -7 -6h-420q-6 0 -5 6l1 4q0 2 2 4l328 289q74 65 112 117.5t47 107.5
q12 72 -25.5 110.5t-118.5 38.5q-82 0 -141 -38.5t-87 -109.5z" />
    <glyph glyph-name="three" unicode="3" horiz-adv-x="589" 
d="M263 341q-6 0 -5 6l2 11q0 6 7 6h98q42 0 76.5 14.5t59.5 38.5t40.5 54.5t20.5 61.5q11 68 -29 106t-123 38q-84 0 -143 -38.5t-87 -109.5q-3 -5 -8 -4l-11 3q-7 0 -4 7q31 78 97.5 121.5t158.5 43.5q95 0 142 -45.5t34 -122.5q-6 -32 -20.5 -60.5t-35 -51.5t-46.5 -40
t-54 -26q63 -12 93.5 -57t18.5 -117q-7 -45 -29 -80.5t-55 -60t-75 -37t-91 -12.5q-45 0 -82.5 11t-65 31.5t-44 51t-19.5 69.5q0 7 7 7l12 3q6 2 6 -4q5 -70 57.5 -108t134.5 -38q86 0 144.5 42.5t72.5 123.5q6 35 0.5 64.5t-24 51t-51.5 34t-82 12.5h-98z" />
    <glyph glyph-name="four" unicode="4" horiz-adv-x="590" 
d="M584 185q-1 -6 -7 -6h-132l-29 -173q-1 -6 -7 -6h-14q-6 0 -5 6l29 173h-336q-6 0 -5 6v4q3 3 2 3l354 495q3 3 7 3h16q10 0 3 -9l-346 -478h309l27 166q2 6 7 6h14q7 0 5 -6l-27 -166h132q5 0 5 -6z" />
    <glyph glyph-name="five" unicode="5" horiz-adv-x="580" 
d="M573 670q-1 -6 -7 -6h-305l-61 -253h128q118 0 176 -52.5t41 -154.5q-8 -48 -29.5 -87t-54.5 -67.5t-76 -44t-94 -15.5q-84 0 -137.5 42t-58.5 121q0 7 7 7l12 3q6 2 6 -4q4 -71 51.5 -108.5t123.5 -37.5q92 0 150.5 51.5t72.5 137.5q15 92 -35.5 139t-161.5 47h-144
q-7 0 -5 6l70 288q0 6 7 6h321q5 0 5 -6z" />
    <glyph glyph-name="six" unicode="6" horiz-adv-x="621" 
d="M484 688q11 0 3 -10l-240 -269q31 20 69 30t76 10q48 0 87 -16.5t65 -46.5t36.5 -72.5t2.5 -93.5q-9 -52 -34 -94.5t-61.5 -72.5t-83.5 -46.5t-99 -16.5q-51 0 -91 16t-66 44.5t-36.5 69t-2.5 89.5q7 41 26.5 83.5t48.5 74.5l277 318q2 3 6 3h17zM379 426
q-49 0 -90 -16.5t-72.5 -45t-52 -67.5t-28.5 -84q-7 -46 1.5 -83.5t31.5 -63t58.5 -39.5t81.5 -14q47 0 88.5 15t74 42t54.5 65t29 84q8 47 -1 85t-32 65t-59.5 42t-83.5 15z" />
    <glyph glyph-name="seven" unicode="7" horiz-adv-x="505" 
d="M164 664q-6 0 -5 6l2 12q0 6 7 6h400q5 0 5 -6l-1 -5q0 -1 -1 -2l-393 -671q-3 -4 -7 -4h-15q-10 0 -4 8l389 656h-377z" />
    <glyph glyph-name="eight" unicode="8" horiz-adv-x="597" 
d="M416 700q43 0 78 -11t58.5 -33t33.5 -54.5t3 -76.5q-11 -62 -50.5 -106t-103.5 -62q69 -18 99 -65.5t18 -116.5q-14 -88 -81.5 -136.5t-173.5 -48.5t-156.5 48.5t-36.5 136.5q12 69 58 116.5t121 65.5q-58 18 -83.5 62t-14.5 106q7 44 28 76.5t51.5 54.5t69.5 33t82 11z
M412 677q-76 0 -131.5 -37t-68.5 -114q-7 -40 2 -69.5t29.5 -49.5t50.5 -30t66 -10t70 10t61 30t45.5 49.5t25.5 69.5q6 39 -2 67t-28.5 47t-51 28t-68.5 9zM356 344q-40 0 -77.5 -10t-67.5 -30.5t-51 -52t-29 -75.5q-7 -43 3.5 -74t33.5 -51t57.5 -29t75.5 -9t78.5 9
t67.5 29t50.5 51t27.5 74q8 44 -2.5 75.5t-34 52t-58 30.5t-74.5 10z" />
    <glyph glyph-name="nine" unicode="9" horiz-adv-x="621" 
d="M430 698q50 0 90.5 -16t66.5 -44.5t37 -69t3 -89.5q-7 -41 -26.5 -83.5t-49.5 -74.5l-277 -318q-1 -3 -5 -3h-17q-11 0 -3 10l239 269q-31 -20 -68.5 -30t-75.5 -10q-48 0 -87.5 16.5t-65 46.5t-36.5 72.5t-2 93.5q9 52 33.5 94.5t61.5 72.5t83.5 46.5t98.5 16.5z
M426 675q-47 0 -88.5 -14.5t-74 -41.5t-54 -65t-29.5 -85t1 -85t32.5 -65t60 -42t83.5 -15q49 0 90 16.5t72.5 45t52 67.5t27.5 84q8 47 -1 84t-32 62.5t-58.5 39.5t-81.5 14z" />
    <glyph glyph-name="colon" unicode=":" horiz-adv-x="210" 
d="M183 450q12 0 18.5 -7.5t4.5 -21.5t-11.5 -21.5t-21.5 -7.5q-13 0 -19.5 7.5t-4.5 21.5t11.5 21.5t22.5 7.5zM116 48q12 0 18.5 -7.5t4.5 -20.5q-2 -14 -11.5 -22t-21.5 -8q-13 0 -19.5 8t-4.5 22q2 13 11.5 20.5t22.5 7.5z" />
    <glyph glyph-name="semicolon" unicode=";" horiz-adv-x="193" 
d="M163 451q12 0 18.5 -7.5t4.5 -21.5t-11.5 -21.5t-21.5 -7.5q-13 0 -19.5 7.5t-4.5 21.5t11.5 21.5t22.5 7.5zM95 48q13 0 21 -8.5t5 -26.5q-5 -32 -18.5 -66t-42.5 -65q-3 -5 -8 -2l-4 3q-4 4 0 9q22 26 33.5 51.5t14.5 50.5q-20 -5 -28 5t-6 21q2 13 11.5 20.5t21.5 7.5
z" />
    <glyph glyph-name="less" unicode="&#x3c;" horiz-adv-x="523" 
d="M552 522q0 -4 -5 -6l-393 -167l337 -167q5 -2 3 -6l-2 -14q-2 -9 -10 -5l-363 184q-3 2 -3 4l2 7q0 4 3 5l425 184q10 4 8 -5z" />
    <glyph glyph-name="equal" unicode="=" horiz-adv-x="516" 
d="M519 372q-1 -6 -7 -6h-386q-6 0 -5 6l2 10q2 6 7 6h386q7 0 5 -6zM485 171q-1 -6 -7 -6h-386q-6 0 -5 6l2 11q2 6 7 6h386q7 0 5 -6z" />
    <glyph glyph-name="greater" unicode="&#x3e;" horiz-adv-x="524" 
d="M149 516q-3 1 -3 6l2 14q2 10 10 5l363 -184q3 -1 3 -5l-1 -6q-2 -4 -4 -5l-425 -184q-10 -5 -8 5l2 14q3 5 5 6l394 167z" />
    <glyph glyph-name="question" unicode="?" horiz-adv-x="516" 
d="M301 227q-1 -6 -7 -6h-12q-6 0 -5 6q6 32 14.5 56t24.5 45t39.5 40t59.5 41q29 18 49.5 34.5t33.5 34.5t20.5 38.5t11.5 44.5q11 60 -25.5 93.5t-108.5 33.5q-41 0 -76 -11t-63.5 -29.5t-51 -43.5t-37.5 -54q-3 -6 -9 -3l-11 5q-4 1 -2 7q17 32 41.5 60t56 48.5t70 32.5
t83.5 12q85 0 128.5 -41t31.5 -110q-10 -58 -42 -97t-94 -77q-31 -19 -51.5 -36.5t-34 -36t-21.5 -39.5t-13 -48zM265 46q14 0 20.5 -7.5t4.5 -20.5q-2 -14 -11.5 -22t-23.5 -8q-12 0 -18.5 8t-4.5 22q2 13 11.5 20.5t21.5 7.5z" />
    <glyph glyph-name="at" unicode="@" horiz-adv-x="872" 
d="M664 406q7 0 5 -7l-48 -226q-11 -51 5 -83.5t55 -32.5q29 0 53.5 17t42 46.5t27.5 69t10 84.5q0 71 -23 129t-64 99.5t-99 64.5t-129 23q-76 0 -141 -26.5t-113 -73.5t-75 -113t-27 -144q0 -67 21 -125.5t61 -102t99.5 -69t135.5 -26.5q9 0 6 -8l-3 -9q-2 -4 -6 -4
q-81 1 -144 27.5t-106 73t-65.5 108.5t-22.5 133q0 84 29 153.5t80 120t120.5 78.5t150.5 28q75 0 137.5 -24t107 -68t69.5 -105.5t25 -135.5q0 -51 -11.5 -95t-32 -76.5t-50 -51.5t-65.5 -19q-48 0 -69.5 38.5t-10.5 101.5q-23 -41 -65 -64.5t-91 -23.5q-35 0 -62 12
t-44.5 34t-23 52.5t1.5 67.5t24 66.5t42 50t56 31.5t65 11q51 0 84 -24t43 -64l17 76q1 5 6 5h12zM500 391q-60 0 -104.5 -37t-57.5 -101t17.5 -104t93.5 -40q30 0 57.5 10.5t49 29t37 44t21.5 55.5q6 31 1 57.5t-20.5 45.5t-39.5 29.5t-55 10.5z" />
    <glyph glyph-name="A" unicode="A" horiz-adv-x="751" 
d="M496 705q4 0 5 -4l190 -693q3 -8 -6 -8h-18q-4 0 -4 4l-57 215h-383l-131 -215q-3 -4 -6 -4h-20q-7 0 -4 8l423 693q1 4 8 4h3zM601 243l-113 416l-251 -416h364z" />
    <glyph glyph-name="B" unicode="B" horiz-adv-x="615" 
d="M213 694q2 6 7 6h206q52 0 89 -13t59 -35.5t30 -53t2 -66.5q-11 -62 -52.5 -107t-99.5 -64q32 -6 57 -22t40.5 -39t21.5 -52.5t0 -64.5q-7 -40 -27 -74t-51 -58t-71.5 -37.5t-87.5 -13.5h-233q-6 0 -5 6zM185 370h210q31 0 61 12t55 33t42.5 50.5t23.5 65.5
q5 30 -0.5 56.5t-25 46t-53 31t-83.5 11.5h-179zM127 24h211q42 0 77 12t62 33t44.5 50.5t23.5 64.5q6 36 -2 65.5t-27.5 51t-50 33.5t-70.5 12h-214z" />
    <glyph glyph-name="C" unicode="C" horiz-adv-x="744" 
d="M781 591q2 -5 -3 -9l-11 -8q-7 -4 -9 1q-37 55 -94.5 83.5t-131.5 28.5q-69 0 -131 -25t-111.5 -69.5t-83 -106.5t-45.5 -136t0 -136t45.5 -106.5t86.5 -69.5t122 -25q75 0 144 30.5t122 84.5q6 5 10 2l11 -11q5 -3 -1 -9q-59 -59 -132 -90.5t-154 -31.5q-75 0 -133.5 27
t-96 75t-51.5 114.5t-1 145.5t49 145.5t89 114.5t119.5 75t141.5 27q80 0 144.5 -31.5t104.5 -89.5z" />
    <glyph glyph-name="D" unicode="D" horiz-adv-x="753" 
d="M213 694q0 6 7 6h222q87 0 149 -26.5t99 -72t49 -107.5t0 -134t-44 -137.5t-84 -115t-123 -78.5t-161 -29h-224q-6 0 -5 6zM127 24h202q82 0 147.5 27.5t114 73.5t79 107t41.5 128t1 125t-43 100.5t-90 66.5t-139 24h-204z" />
    <glyph glyph-name="E" unicode="E" horiz-adv-x="575" 
d="M213 694q0 6 7 6h386q5 0 5 -6l-2 -12q-1 -6 -7 -6h-366l-51 -306h328q5 0 5 -6l-2 -12q-1 -6 -7 -6h-328l-54 -322h370q7 0 5 -6l-2 -12q-1 -6 -7 -6h-390q-6 0 -5 6z" />
    <glyph glyph-name="F" unicode="F" horiz-adv-x="565" 
d="M534 328q-1 -6 -7 -6h-350l-53 -316q-1 -6 -7 -6h-14q-6 0 -5 6l115 688q2 6 7 6h380q5 0 5 -6l-2 -12q-1 -6 -7 -6h-360l-55 -330h350q5 0 5 -6z" />
    <glyph glyph-name="G" unicode="G" horiz-adv-x="819" 
d="M473 315q-6 0 -5 6l2 12q0 6 7 6h316q7 0 6.5 -7.5t-2.5 -19.5q-14 -77 -47.5 -137t-82.5 -101.5t-111 -63.5t-132 -22q-78 0 -138 27t-98.5 75.5t-52.5 115.5t-1 146q13 78 48 144t88 114t121.5 75t147.5 27q83 0 147.5 -30t103.5 -91q2 -5 -3 -9l-12 -8q-5 -2 -9 2
q-35 56 -92.5 83.5t-133.5 27.5q-74 0 -138 -25t-113.5 -69.5t-82 -106t-44.5 -134.5q-12 -75 0 -137t46 -107t89.5 -70t128.5 -25q69 0 127 22t103 62t75 95.5t41 122.5h-299z" />
    <glyph glyph-name="H" unicode="H" horiz-adv-x="695" 
d="M710 700q5 0 5 -6l-115 -688q-1 -6 -7 -6h-14q-6 0 -5 6l54 325h-450l-54 -325q-1 -6 -7 -6h-14q-6 0 -5 6l115 688q0 6 7 6h14q5 0 5 -6l-57 -339h450l57 339q0 6 7 6h14z" />
    <glyph glyph-name="I" unicode="I" horiz-adv-x="239" 
d="M244 700q5 0 5 -6l-115 -688q-1 -6 -7 -6h-14q-6 0 -5 6l115 688q0 6 7 6h14z" />
    <glyph glyph-name="J" unicode="J" horiz-adv-x="218" 
d="M232 700q5 0 5 -6l-117 -700q-14 -84 -57 -128t-121 -46q-7 0 -5 6l2 12q1 6 7 6q35 0 60.5 11t43 31t28 47.5t16.5 60.5l117 700q0 6 7 6h14z" />
    <glyph glyph-name="K" unicode="K" horiz-adv-x="583" 
d="M213 694q0 6 7 6h14q5 0 5 -6l-55 -326l436 331q1 1 4 1h21q16 0 2 -11l-433 -327l331 -352q8 -10 -7 -10h-17q-2 0 -4 2l-334 356l-59 -352q-1 -6 -7 -6h-14q-6 0 -5 6z" />
    <glyph glyph-name="L" unicode="L" horiz-adv-x="566" 
d="M234 700q5 0 5 -6l-112 -670h371q7 0 5 -6l-2 -12q-1 -6 -7 -6h-391q-6 0 -5 6l115 688q0 6 7 6h14z" />
    <glyph glyph-name="M" unicode="M" horiz-adv-x="935" 
d="M832 705q4 0 6 -5l32 -693q0 -7 -6 -7h-15q-5 0 -5 5l-27 639l-326 -562q-3 -4 -7 -4h-3q-4 0 -5 4l-147 562l-234 -639q-2 -5 -7 -5h-15q-8 0 -5 7l256 693q2 5 6 5h3q5 0 6 -4l150 -574l333 574q1 4 6 4h4z" />
    <glyph glyph-name="N" unicode="N" horiz-adv-x="706" 
d="M721 700q5 0 5 -6l-116 -693q0 -6 -7 -6h-3q-3 0 -6 5l-363 649l-107 -643q-1 -6 -7 -6h-14q-6 0 -5 6l116 693q0 6 7 6h3q4 0 5 -3l364 -651l107 643q0 6 7 6h14z" />
    <glyph glyph-name="O" unicode="O" horiz-adv-x="851" 
d="M544 712q75 0 135 -28t99 -76.5t54.5 -114.5t2.5 -143q-13 -76 -50 -142.5t-92 -115t-123.5 -76.5t-143.5 -28t-135 28t-99.5 76.5t-55.5 115t-3 142.5q13 77 50 143t92 114.5t124 76.5t145 28zM543 688q-70 0 -134 -26t-115 -71.5t-86 -107.5t-47 -133t1 -133
t47.5 -107.5t89.5 -71.5t127 -26q71 0 134.5 26t114.5 71.5t85.5 107.5t46.5 133t-1.5 133t-48 107.5t-89 71.5t-125.5 26z" />
    <glyph glyph-name="P" unicode="P" horiz-adv-x="592" 
d="M213 694q0 6 7 6h202q55 0 95.5 -15t66 -43t34.5 -67.5t1 -88.5q-16 -98 -87 -153.5t-181 -55.5h-182l-45 -271q-1 -6 -7 -6h-14q-6 0 -5 6zM173 301h178q104 0 165 49.5t75 138.5q15 89 -29.5 138t-147.5 49h-178z" />
    <glyph glyph-name="Q" unicode="Q" horiz-adv-x="848" 
d="M544 712q75 0 134 -28t97.5 -76.5t54 -114.5t2.5 -143q-12 -75 -48 -139.5t-88.5 -113t-118.5 -77.5t-138 -32l63 -159q4 -9 -7 -9h-16q-5 0 -5 3l-63 165q-73 2 -130 31t-94 77.5t-51.5 113.5t-2.5 140q13 77 49.5 143t91.5 114.5t124 76.5t146 28zM540 688
q-70 0 -134 -26t-114 -71.5t-84.5 -107.5t-46.5 -133t0.5 -133t47 -107.5t89.5 -71.5t129 -26q69 0 132 26t113.5 71.5t85 107.5t46.5 133t-0.5 133t-47 107.5t-89 71.5t-127.5 26z" />
    <glyph glyph-name="R" unicode="R" horiz-adv-x="614" 
d="M124 6q-1 -6 -7 -6h-14q-6 0 -5 6l115 688q0 6 7 6h205q109 0 160.5 -54t35.5 -148q-9 -52 -28.5 -90.5t-51.5 -64.5t-77.5 -41t-105.5 -20l171 -272q7 -10 -6 -10h-17q-3 0 -4 2l-170 276h-163zM173 302h130q84 0 137.5 16t85 43t46.5 63t22 77q14 85 -30.5 130
t-148.5 45h-179z" />
    <glyph glyph-name="S" unicode="S" horiz-adv-x="580" 
d="M568 603q-6 -3 -9 1q-26 44 -71 64t-108 20q-82 0 -135 -38.5t-64 -104.5q-5 -31 0 -57t24 -48t55 -39.5t92 -32.5q60 -16 99.5 -35.5t61.5 -44t28.5 -54.5t0.5 -67q-14 -84 -77.5 -131.5t-165.5 -47.5q-81 0 -139.5 32.5t-87.5 89.5q-2 5 3 8l12 7q5 3 9 -2
q23 -49 73 -80t128 -31q96 0 150.5 42.5t66.5 114.5q6 33 0.5 59.5t-25.5 48t-57.5 39t-95.5 31.5q-57 14 -95 34t-59.5 45.5t-28 56t-0.5 65.5q6 37 25.5 67t49.5 51.5t69.5 33.5t86.5 12q68 0 117.5 -22.5t79.5 -69.5q4 -3 -2 -9z" />
    <glyph glyph-name="T" unicode="T" horiz-adv-x="583" 
d="M167 694q0 6 7 6h470q5 0 5 -6l-2 -12q-1 -6 -7 -6h-222l-112 -670q-1 -6 -7 -6h-14q-6 0 -5 6l112 670h-222q-6 0 -5 6z" />
    <glyph glyph-name="U" unicode="U" horiz-adv-x="677" 
d="M696 700q5 0 5 -6l-74 -443q-21 -125 -96 -194t-189 -69q-57 0 -100 18t-70.5 51.5t-37 82.5t0.5 111l74 443q0 6 7 6h14q5 0 5 -6l-73 -438q-20 -115 26.5 -179.5t152.5 -64.5t173.5 64.5t87.5 179.5l73 438q0 6 7 6h14z" />
    <glyph glyph-name="V" unicode="V" horiz-adv-x="723" 
d="M784 700q9 0 4 -8l-419 -693q-3 -4 -6 -4h-4q-4 0 -4 4l-188 693q-2 8 8 8h14q2 0 4 -4l176 -650l391 650q2 4 6 4h18z" />
    <glyph glyph-name="W" unicode="W" horiz-adv-x="1060" 
d="M1111 700q8 0 3 -8l-341 -693q-3 -4 -6 -4h-4q-4 0 -4 4l-122 628l-336 -628q-3 -4 -6 -4h-5q-4 0 -4 4l-109 693q-2 8 7 8h16q4 0 4 -4l98 -644l333 624q3 5 8 5h3q3 0 4 -4l123 -625l316 644q3 4 6 4h16z" />
    <glyph glyph-name="X" unicode="X" horiz-adv-x="651" 
d="M708 700q11 0 3 -10l-312 -340l199 -340q5 -10 -7 -10h-14q-4 0 -5 2l-191 330l-297 -330q-2 -2 -5 -2h-19q-11 0 -3 10l310 340l-197 340q-5 10 7 10h15q2 0 4 -2l191 -330l298 330q2 2 6 2h17z" />
    <glyph glyph-name="Y" unicode="Y" horiz-adv-x="656" 
d="M716 700q10 0 3 -9l-329 -402l-47 -283q-1 -6 -7 -6h-14q-6 0 -5 6l47 283l-196 402q-5 9 7 9h15q4 0 4 -3l185 -384l312 384q3 3 6 3h19z" />
    <glyph glyph-name="Z" unicode="Z" horiz-adv-x="654" 
d="M206 676q-6 0 -5 6l2 12q0 6 7 6h469q7 0 6 -5l-1 -6l-2 -6t-4 -6l-566 -653h464q7 0 5 -6l-2 -12q-1 -6 -7 -6h-489q-6 0 -5 6l2 12q1 4 2.5 7t6.5 8l556 643h-439z" />
    <glyph glyph-name="bracketleft" unicode="[" horiz-adv-x="309" 
d="M234 734q2 6 7 6h170q7 0 5 -6l-1 -11q-1 -6 -7 -6h-151l-148 -884h151q7 0 5 -6l-2 -11q0 -6 -7 -6h-170q-5 0 -5 6z" />
    <glyph glyph-name="backslash" unicode="\" horiz-adv-x="548" 
d="M185 731q-4 9 4 9h11q3 0 4 -3l276 -768q4 -9 -4 -9h-10q-3 0 -5 3z" />
    <glyph glyph-name="bracketright" unicode="]" horiz-adv-x="313" 
d="M318 740q7 0 5 -6l-153 -918q0 -6 -7 -6h-170q-5 0 -5 6l2 11q1 6 7 6h151l148 884h-151q-6 0 -5 6l1 11q2 6 7 6h170z" />
    <glyph glyph-name="asciicircum" unicode="^" horiz-adv-x="488" 
d="M491 374q4 -9 -6 -9h-14q-4 0 -6 3l-105 307l-213 -307q-1 -3 -6 -3h-15q-11 0 -4 9l233 335q2 3 7 3h4q4 0 5 -3z" />
    <glyph glyph-name="underscore" unicode="_" horiz-adv-x="450" 
d="M432 -115q-1 -6 -7 -6h-439q-7 0 -5 6l2 10q1 6 7 6h439q7 0 5 -6z" />
    <glyph glyph-name="grave" unicode="`" horiz-adv-x="296" 
d="M295 575q2 -5 -2 -5h-14q-2 0 -4 3l-61 122q-2 5 3 5h16q4 0 6 -4z" />
    <glyph glyph-name="a" unicode="a" horiz-adv-x="551" 
d="M341 452q30 0 59.5 -8.5t54 -26.5t41.5 -45t23 -65l29 127q2 6 7 6h5q7 0 5 -6l-71 -428q-1 -6 -7 -6h-5q-6 0 -5 6l13 126q-18 -37 -44.5 -64.5t-56.5 -45t-62 -26t-63 -8.5q-47 0 -83.5 18t-60 49.5t-32 74t-0.5 90.5q8 49 30.5 91t56.5 73.5t76.5 49.5t89.5 18z
M342 428q-43 0 -81.5 -16t-68 -44t-49.5 -66t-27 -82q-7 -43 0.5 -81t28 -66t53.5 -44.5t77 -16.5q42 0 80.5 16t69 43.5t51 65.5t27.5 81q8 45 -0.5 83.5t-29.5 66.5t-54.5 44t-76.5 16z" />
    <glyph glyph-name="b" unicode="b" horiz-adv-x="558" 
d="M367 452q47 0 83.5 -18t60 -49.5t32.5 -73.5t1 -91q-8 -48 -31.5 -90.5t-57 -74t-76.5 -49.5t-90 -18q-30 0 -59.5 8.5t-54 26.5t-41.5 45.5t-23 66.5l-29 -129q-1 -6 -7 -6h-5q-6 0 -5 6l121 728q2 6 7 6h14q7 0 5 -6l-71 -426q19 38 45 65t56 44.5t62.5 26t62.5 8.5z
M358 429q-43 0 -82 -16t-70 -44.5t-51.5 -67t-28.5 -83.5q-7 -44 1 -82t29.5 -65.5t54.5 -43.5t76 -16q44 0 82.5 16.5t68.5 44.5t50.5 66.5t27.5 81.5q7 44 -0.5 82t-28 66.5t-53 44.5t-76.5 16z" />
    <glyph glyph-name="c" unicode="c" horiz-adv-x="485" 
d="M505 354q3 -4 -3 -8l-13 -7q-6 -3 -8 2q-17 40 -52.5 64t-89.5 24q-43 0 -80.5 -16.5t-67 -44.5t-49 -66t-26.5 -82q-7 -43 -0.5 -81t26 -66.5t52 -45t75.5 -16.5q54 0 96 25t73 67q5 5 9 2l12 -10q4 -3 1 -8q-35 -45 -84.5 -72t-110.5 -27q-48 0 -85 18.5t-60 50
t-31.5 74.5t-0.5 91q8 49 30.5 91t55.5 73t76 48.5t92 17.5q60 0 101 -26.5t62 -71.5z" />
    <glyph glyph-name="d" unicode="d" horiz-adv-x="556" 
d="M341 452q30 0 59 -8t53.5 -25.5t42 -44t23.5 -63.5l70 423q2 6 7 6h14q7 0 5 -6l-121 -728q-1 -6 -7 -6h-5q-6 0 -5 6l13 126q-18 -37 -44.5 -64.5t-56.5 -45t-62 -26t-63 -8.5q-47 0 -83.5 18t-60 49.5t-32 74t-0.5 90.5q8 49 30.5 91t56.5 73.5t76.5 49.5t89.5 18z
M342 428q-43 0 -81.5 -16t-68 -44t-49.5 -66t-27 -82q-7 -43 0.5 -81t28 -66t53.5 -44.5t77 -16.5q42 0 80.5 16t69 43.5t51 65.5t27.5 81q8 45 -0.5 83.5t-29.5 66.5t-54.5 44t-76.5 16z" />
    <glyph glyph-name="e" unicode="e" horiz-adv-x="517" 
d="M509 228q-2 -7 -4 -12.5t-8 -5.5h-383q-6 -41 1 -77.5t26.5 -63.5t51.5 -42.5t77 -15.5q54 0 96.5 25.5t74.5 65.5q5 5 8 2l12 -10q4 -4 0 -8q-36 -45 -85.5 -71.5t-109.5 -26.5q-49 0 -86 18t-60 49.5t-31.5 74t-0.5 90.5q8 49 30 91t55 73.5t76 49.5t92 18
q48 0 85 -16.5t59.5 -46.5t29 -71t-5.5 -90zM485 232q10 42 5.5 78t-23 62.5t-49.5 41.5t-75 15q-43 0 -81 -15.5t-67.5 -42t-49 -62.5t-27.5 -77h367z" />
    <glyph glyph-name="f" unicode="f" horiz-adv-x="304" 
d="M337 423q0 -6 -7 -6h-132l-68 -411q-1 -6 -7 -6h-14q-6 0 -5 6l68 411h-74q-5 0 -5 6l2 11q2 6 7 6h74l20 120q14 81 61.5 121t114.5 40q23 0 47 -4.5t48 -17.5q5 -4 1 -8l-7 -10q-3 -6 -9 -3q-34 20 -83 20q-56 0 -95.5 -33t-52.5 -110l-19 -115h132q7 0 5 -6z" />
    <glyph glyph-name="g" unicode="g" horiz-adv-x="500" 
d="M563 423q-1 -6 -7 -6l-121 -1q57 -45 44 -129q-6 -36 -24 -65t-44.5 -49.5t-60 -31.5t-71.5 -11q-67 0 -107 26q-32 -15 -37 -45q-4 -19 6 -33t45 -19l162 -23q136 -19 123 -96q-11 -64 -77.5 -97.5t-171.5 -33.5q-112 0 -165.5 34.5t-45.5 95.5q5 42 34.5 71.5
t77.5 46.5q-20 18 -15 49q3 19 16.5 35t33.5 26q-45 42 -33 123q12 72 66 117t138 45q18 0 38.5 -3t37.5 -9h154q7 0 5 -6zM334 429q-76 0 -124 -36t-59 -103q-6 -37 1.5 -63.5t25.5 -42.5t45 -23.5t60 -7.5q64 0 111 35.5t58 101.5q11 63 -21 101t-97 38zM141 44
q-38 -11 -68 -37t-35 -68q-7 -57 43.5 -82t145.5 -25q51 0 90 9t66.5 23.5t43 34t18.5 40.5q5 32 -18 48t-83 24l-166 23q-11 2 -20 4.5t-17 5.5z" />
    <glyph glyph-name="h" unicode="h" horiz-adv-x="515" 
d="M207 740q7 0 5 -6l-68 -411q35 62 94 95.5t126 33.5q82 0 119.5 -46.5t23.5 -128.5l-45 -271q-1 -6 -7 -6h-14q-6 0 -5 6l45 270q13 75 -17.5 114t-103.5 39q-48 0 -87.5 -15.5t-69 -42.5t-48.5 -62.5t-26 -74.5l-38 -228q-1 -6 -7 -6h-14q-6 0 -5 6l121 728q2 6 7 6h14z
" />
    <glyph glyph-name="i" unicode="i" horiz-adv-x="143" 
d="M152 440q7 0 5 -6l-71 -428q-1 -6 -7 -6h-14q-6 0 -5 6l71 428q2 6 7 6h14zM170 601q9 0 15 -6t4 -15t-8 -15t-15 -6t-15 6t-4 15t8 15t15 6z" />
    <glyph glyph-name="j" unicode="j" horiz-adv-x="136" 
d="M148 440q7 0 5 -6l-81 -487q-10 -59 -44 -97t-91 -40q-5 0 -5 6l2 13q1 6 7 6q44 2 70.5 31.5t34.5 77.5l81 490q2 6 7 6h14zM166 601q9 0 15 -6t4 -15t-8 -15t-15 -6t-15 6t-4 15t8 15t15 6z" />
    <glyph glyph-name="k" unicode="k" horiz-adv-x="419" 
d="M186 734q2 6 7 6h14q7 0 5 -6l-83 -499l293 202q4 3 10 3h19q5 0 6.5 -3t-5.5 -8l-295 -202l236 -218q3 -3 1.5 -6t-6.5 -3h-17q-6 0 -10 4l-234 218l-36 -216q-1 -6 -7 -6h-14q-6 0 -5 6z" />
    <glyph glyph-name="l" unicode="l" horiz-adv-x="153" 
d="M91 6q-1 -6 -7 -6h-14q-6 0 -5 6l121 728q2 6 7 6h14q7 0 5 -6z" />
    <glyph glyph-name="m" unicode="m" horiz-adv-x="796" 
d="M131 434q2 6 7 6h5q7 0 5 -6l-12 -114q32 63 85.5 97.5t116.5 34.5t94.5 -34t30.5 -97q32 63 85 97t114 34q74 0 107 -45.5t19 -128.5l-45 -272q-1 -6 -7 -6h-14q-6 0 -5 6l45 271q12 72 -15 112t-93 40q-41 0 -75.5 -15.5t-60 -41.5t-42.5 -61.5t-24 -74.5l-38 -230
q-1 -6 -7 -6h-13q-6 0 -5 6l45 271q12 72 -12.5 112t-92.5 40q-42 0 -76.5 -15.5t-61 -42.5t-44 -62.5t-23.5 -74.5l-38 -228q-1 -6 -7 -6h-14q-6 0 -5 6z" />
    <glyph glyph-name="n" unicode="n" horiz-adv-x="510" 
d="M143 440q7 0 5 -6l-12 -115q34 64 93.5 98.5t128.5 34.5q83 0 120.5 -46.5t23.5 -128.5l-45 -271q-1 -6 -7 -6h-14q-6 0 -5 6l45 270q12 72 -18 112.5t-105 40.5q-48 0 -87 -15.5t-68.5 -42.5t-48 -62.5t-25.5 -74.5l-38 -228q-1 -6 -7 -6h-14q-6 0 -5 6l71 428q2 6 7 6
h5z" />
    <glyph glyph-name="o" unicode="o" horiz-adv-x="547" 
d="M349 452q49 0 87 -18t62.5 -49.5t34 -73.5t1.5 -91t-30.5 -91t-57 -73.5t-78.5 -49.5t-96 -18q-49 0 -87 18t-62.5 49.5t-33.5 73.5t-1 91t30.5 91t57 73.5t78.5 49.5t95 18zM349 429q-46 0 -85.5 -16t-70 -44.5t-50.5 -66.5t-27 -82t-1 -82t26.5 -66.5t54 -44.5
t80.5 -16q44 0 83 16t69 44.5t50.5 66.5t27.5 82t0.5 82t-26.5 66.5t-53 44.5t-78 16z" />
    <glyph glyph-name="p" unicode="p" horiz-adv-x="553" 
d="M361 452q47 0 84 -18t60.5 -49.5t32.5 -74t1 -90.5q-8 -51 -31 -93.5t-56.5 -73.5t-75.5 -48t-89 -17q-30 0 -60 8.5t-54.5 26t-42 45t-23.5 64.5l-53 -316q0 -6 -7 -6h-14q-5 0 -5 6l103 618q2 6 7 6h5q7 0 5 -6l-13 -129q18 39 44.5 66.5t56.5 45.5t62.5 26.5t62.5 8.5
zM351 429q-43 0 -81 -15.5t-68.5 -43t-51 -65.5t-28.5 -82q-7 -45 1 -83.5t29 -67t55 -45t77 -16.5t81 16t68 44.5t50.5 66.5t27.5 82t0 82t-27 66t-53.5 44.5t-79.5 16.5z" />
    <glyph glyph-name="q" unicode="q" horiz-adv-x="551" 
d="M341 452q30 0 59.5 -8.5t54 -25.5t42 -44t23.5 -64l28 124q2 6 7 6h5q7 0 5 -6l-103 -618q0 -6 -7 -6h-14q-5 0 -5 6l52 311q-19 -36 -45 -62t-56 -43.5t-61.5 -25.5t-61.5 -8q-47 0 -83.5 18t-60 49.5t-32.5 73.5t-1 91q8 48 30.5 90.5t56 74t76 49.5t91.5 18zM344 429
q-44 0 -83 -16.5t-69 -44.5t-50 -66t-27 -82t-0.5 -82t26.5 -66.5t53.5 -44.5t78.5 -16q44 0 82.5 16.5t69 45t51.5 67t28 83.5q8 44 -0.5 82t-29.5 65.5t-54 43t-76 15.5z" />
    <glyph glyph-name="r" unicode="r" horiz-adv-x="315" 
d="M131 434q2 6 7 6h5q7 0 5 -6l-12 -118q32 63 88.5 98t131.5 37q7 0 5 -6l-2 -16q-2 -6 -7 -6q-51 1 -91 -15t-68.5 -43.5t-46 -64t-24.5 -76.5l-36 -218q-1 -6 -7 -6h-14q-6 0 -5 6z" />
    <glyph glyph-name="s" unicode="s" horiz-adv-x="447" 
d="M437 379q-3 -5 -9 -1q-23 24 -63.5 37.5t-80.5 13.5q-58 0 -100 -19t-50 -63q-3 -20 0.5 -37t19 -31t45 -24.5t77.5 -18.5q47 -7 77.5 -20t47 -30.5t21 -38.5t0.5 -45q-4 -28 -20 -49.5t-41 -35.5t-57 -21.5t-68 -7.5q-63 0 -108.5 17.5t-73.5 41.5q-4 3 -1 8l8 10
q3 5 9 1q23 -21 66 -38t105 -17q61 0 103.5 23.5t50.5 68.5q3 19 1.5 36t-15 31t-42.5 25.5t-80 19.5q-48 8 -79.5 20.5t-49 29.5t-22.5 37.5t-1 43.5q8 51 56.5 78.5t120.5 27.5q22 0 45 -3.5t45 -11t41 -17.5t32 -24q4 -3 -1 -8z" />
    <glyph glyph-name="t" unicode="t" horiz-adv-x="321" 
d="M214 546q7 0 5 -6l-17 -100h141q7 0 5 -6l-1 -11q-1 -6 -7 -6h-141l-51 -302q-3 -21 -3 -40t6 -33t19 -22t37 -8q13 0 34 5.5t41 14.5q6 2 8 -3l3 -13q0 -6 -4 -7q-19 -8 -42.5 -14.5t-42.5 -6.5q-55 0 -73 34.5t-10 87.5l52 307h-74q-6 0 -5 6l1 11q2 6 7 6h74l29 101
q3 5 7 5h2z" />
    <glyph glyph-name="u" unicode="u" horiz-adv-x="509" 
d="M518 440q7 0 5 -6l-71 -428q-1 -6 -7 -6h-5q-6 0 -5 6l12 115q-33 -63 -92.5 -98t-129.5 -35q-82 0 -119.5 46.5t-23.5 128.5l45 271q2 6 7 6h14q7 0 5 -6l-44 -267q-12 -72 17.5 -113t106.5 -41q47 0 86 15.5t68 42t47.5 61.5t24.5 74l38 228q2 6 7 6h14z" />
    <glyph glyph-name="v" unicode="v" horiz-adv-x="464" 
d="M91 431q-1 9 6 9h14q5 0 6 -3l119 -398l253 398q2 3 6 3h17q11 0 5 -9l-278 -432q-1 -3 -7 -3h-4q-3 0 -5 3z" />
    <glyph glyph-name="w" unicode="w" horiz-adv-x="758" 
d="M806 440q10 0 5 -8l-249 -432q-1 -2 -3 -3t-4 -1h-5q-4 0 -5 4l-99 394l-233 -394q-1 -2 -3 -3t-4 -1h-5q-4 0 -5 4l-105 432q-2 8 7 8h13q4 0 6 -4l94 -393l232 393q1 4 6 4h5q5 0 6 -4l99 -393l224 393q2 4 6 4h17z" />
    <glyph glyph-name="x" unicode="x" horiz-adv-x="449" 
d="M478 440q14 0 4 -10l-203 -207l141 -213q7 -10 -7 -10h-13q-3 0 -5 2l-135 206l-199 -206q-2 -2 -5 -2h-20q-13 0 -3 10l212 217l-135 203q-7 10 6 10h15q3 0 5 -2l128 -196l190 196q2 2 5 2h19z" />
    <glyph glyph-name="y" unicode="y" horiz-adv-x="451" 
d="M92 431q-3 9 7 9h12q5 0 6 -3l129 -404l230 403q1 4 6 4h17q10 0 5 -8l-359 -618q-1 -2 -3 -3t-4 -1h-17q-9 0 -3 8l111 186z" />
    <glyph glyph-name="z" unicode="z" horiz-adv-x="447" 
d="M124 417q-6 0 -5 6l1 11q2 6 7 6h341q7 0 5 -6l-1 -6q0 -2 -7 -11l-383 -394h325q7 0 5 -6l-2 -11q-1 -6 -7 -6h-358q-6 0 -5 6l1 6q1 5 8 12l382 393h-307z" />
    <glyph glyph-name="braceleft" unicode="{" horiz-adv-x="289" 
d="M395 724q-1 -6 -7 -6q-59 -1 -90 -24t-41 -81l-38 -227q-8 -49 -36.5 -77.5t-73.5 -33.5q44 -5 62.5 -34t10.5 -78l-37 -226q-10 -58 13 -81t82 -24q7 0 5 -6l-2 -10q0 -6 -7 -6q-69 2 -98 32.5t-18 94.5l37 226q9 52 -13 75t-80 24q-6 0 -5 6l2 14q2 6 7 6q58 1 88 24
t39 75l37 226q11 64 50 94.5t109 32.5q7 0 5 -6z" />
    <glyph glyph-name="bar" unicode="|" horiz-adv-x="249" 
d="M103 -204q-1 -6 -7 -6h-13q-6 0 -5 6l161 968q2 6 7 6h13q7 0 5 -6z" />
    <glyph glyph-name="braceright" unicode="}" horiz-adv-x="287" 
d="M145 718q-6 0 -5 6l1 10q2 6 7 6q69 -2 98.5 -32.5t18.5 -94.5l-37 -226q-9 -52 12.5 -75t79.5 -24q7 0 5 -6l-2 -14q-1 -6 -7 -6q-58 -1 -87.5 -24t-38.5 -75l-37 -226q-11 -64 -50.5 -94.5t-109.5 -32.5q-5 0 -5 6l2 10q1 6 7 6q58 1 89 24t41 81l37 226q8 49 37.5 78
t74.5 34q-44 5 -63.5 33.5t-11.5 77.5l38 227q10 58 -13 81t-81 24z" />
    <glyph glyph-name="asciitilde" unicode="~" horiz-adv-x="544" 
d="M539 348q5 -2 3 -7q-17 -48 -46.5 -73.5t-72.5 -25.5q-35 0 -60.5 14.5t-48.5 33.5q-20 16 -42.5 29t-52.5 13q-69 0 -98 -82q-3 -6 -9 -5l-8 3q-5 2 -3 7q17 48 47.5 73t74.5 25q35 0 59 -14.5t52 -35.5q17 -13 38 -25.5t52 -12.5q70 0 99 81q2 7 8 5z" />
    <glyph glyph-name="exclamdown" unicode="&#xa1;" horiz-adv-x="251" 
d="M211 512q13 0 19.5 -8t4.5 -22q-5 -28 -33 -28q-14 0 -20.5 7.5t-4.5 20.5q5 30 34 30zM179 317q7 0 5 -6l-23 -179l-55 -328q-1 -6 -7 -6h-16q-6 0 -5 6l55 328l37 179q2 6 7 6h2z" />
    <glyph glyph-name="cent" unicode="&#xa2;" horiz-adv-x="539" 
d="M422 720q7 0 5 -6l-18 -108q63 -3 106.5 -32t66.5 -79q3 -4 -3 -8l-13 -7q-5 -3 -8 2q-25 53 -68.5 77t-106.5 24q-47 0 -88.5 -18t-74.5 -49.5t-55 -74t-30 -91.5q-9 -52 0 -95t33.5 -73.5t64 -47.5t91.5 -17q58 0 106.5 28t83.5 73q5 5 9 2l10 -7q5 -4 1 -8
q-41 -49 -94 -78.5t-116 -32.5l-18 -108q-1 -6 -7 -6h-13q-6 0 -5 6l18 108q-52 3 -91.5 23t-64 54t-34 80t-0.5 99t33.5 99t60.5 80t82 54t99 23l18 108q2 6 7 6h13z" />
    <glyph glyph-name="sterling" unicode="&#xa3;" horiz-adv-x="731" 
d="M617 371q0 -6 -7 -6h-265q-13 -57 -26.5 -114.5t-28.5 -111.5q26 -17 49 -39t46 -42t47.5 -33.5t54.5 -13.5q54 0 96.5 33.5t68.5 113.5q2 7 9 5l11 -4q5 -2 3 -7q-19 -51 -41.5 -83t-47 -50t-51.5 -24.5t-54 -6.5q-33 0 -58.5 14t-48 33.5t-44 41t-47.5 37.5
q-8 -25 -19 -48t-25.5 -40t-33.5 -27.5t-44 -10.5q-20 0 -34 7t-22.5 18.5t-11 26t-0.5 29.5q8 49 40.5 71t77.5 22q15 0 29.5 -3.5t27.5 -8.5q5 16 11.5 40.5t13 53.5t13.5 60t13 61h-101q-5 0 -5 6l1 10q0 6 7 6h102l28 113q24 98 74.5 149t128.5 51t115.5 -39.5
t37.5 -125.5q0 -4 -5 -6l-11 -2q-8 -2 -8 5q0 76 -29 110.5t-99 34.5q-75 0 -116.5 -45.5t-62.5 -131.5l-27 -113h264q5 0 5 -6zM261 127q-22 12 -52 12q-45 0 -66 -19.5t-26 -49.5q-4 -26 9 -43t39 -17q35 0 57 28.5t39 88.5z" />
    <glyph glyph-name="currency" unicode="&#xa4;" horiz-adv-x="603" 
d="M397 556q38 0 71.5 -14t56.5 -39l80 69q6 5 8 1l8 -9q3 -5 -2 -9l-80 -69q21 -26 29.5 -63t2.5 -75q-7 -38 -27.5 -75t-50.5 -63l57 -69q4 -4 -1 -9l-11 -9q-4 -4 -7 1l-58 69q-30 -25 -69 -39t-77 -14t-71.5 14t-56.5 39l-80 -69q-6 -4 -9 -1l-7 9q-4 4 1 9l81 69
q-21 26 -30 63t-2 75q6 38 27 75t51 63l-58 69q-3 5 2 9l10 9q5 3 8 -1l58 -69q30 25 69 39t77 14zM394 534q-40 0 -76.5 -14.5t-65.5 -39.5t-49 -59t-26 -73q-7 -39 1.5 -73t29.5 -59t52.5 -39.5t71.5 -14.5t76 14.5t65.5 39.5t49 59t26.5 73q6 39 -2.5 73t-29 59t-52 39.5
t-71.5 14.5z" />
    <glyph glyph-name="yen" unicode="&#xa5;" horiz-adv-x="668" 
d="M120 355q2 6 7 6h230l-164 330q-5 9 7 9h15q3 0 4 -3l165 -336h19l276 336q2 3 6 3h18q12 0 3 -9l-274 -330h230q7 0 5 -6l-2 -11q-1 -6 -7 -6h-535q-6 0 -5 6zM103 254q2 6 7 6h535q7 0 5 -6l-2 -11q-1 -6 -7 -6h-254l-38 -231q-1 -6 -7 -6h-15q-6 0 -5 6l38 231h-254
q-6 0 -5 6z" />
    <glyph glyph-name="brokenbar" unicode="&#xa6;" horiz-adv-x="249" 
d="M197 359q-1 -6 -7 -6h-13q-6 0 -5 6l68 410q2 6 7 6h13q7 0 5 -6zM103 -204q-1 -6 -7 -6h-13q-6 0 -5 6l67 405q2 6 7 6h13q7 0 5 -6z" />
    <glyph glyph-name="section" unicode="&#xa7;" horiz-adv-x="574" 
d="M590 587q-5 -3 -9 2q-38 52 -92 75t-110 25q-42 2 -77.5 -3.5t-62 -19t-42.5 -35t-20 -52.5q-3 -24 3.5 -45t25.5 -40t52 -37t84 -36q67 -24 108.5 -44t64 -40.5t28.5 -44t3 -53.5q-4 -33 -20 -57.5t-41 -41.5t-57.5 -27.5t-69.5 -13.5q43 -18 71 -35t44 -35t21.5 -39.5
t2.5 -48.5q-4 -36 -22 -63.5t-47 -46.5t-67.5 -28t-83.5 -8q-31 1 -64.5 7.5t-64 20.5t-57 37t-44.5 56q-2 5 3 8l12 7q6 4 9 -1q15 -29 38 -50t49.5 -34.5t55.5 -20t57 -7.5q88 -2 140.5 30.5t58.5 92.5q3 24 -2.5 43t-23.5 36t-51 34t-86 36q-63 23 -104 44.5t-64.5 43.5
t-31.5 46.5t-5 54.5q6 62 58.5 96t133.5 39q-83 31 -117 72t-27 95q5 35 23.5 60.5t48.5 41.5t69.5 23.5t85.5 5.5q69 -2 125.5 -27.5t101.5 -80.5q4 -5 -2 -9zM130 277q-3 -27 5 -48t29.5 -39.5t58 -36t91.5 -36.5q95 2 146.5 34t58.5 89q3 27 -3.5 47.5t-27.5 38t-58.5 34
t-95.5 36.5q-90 -2 -144 -30t-60 -89z" />
    <glyph glyph-name="dieresis" unicode="&#xa8;" horiz-adv-x="397" 
d="M227 652q9 0 14.5 -6.5t3.5 -15.5t-9.5 -15.5t-16.5 -6.5q-8 0 -13.5 6.5t-3.5 15.5t9.5 15.5t15.5 6.5zM388 652q9 0 14.5 -6.5t3.5 -15.5t-9.5 -15.5t-16.5 -6.5q-8 0 -13.5 6.5t-3.5 15.5t9.5 15.5t15.5 6.5z" />
    <glyph glyph-name="copyright" unicode="&#xa9;" horiz-adv-x="885" 
d="M501 710q78 0 144 -27t115 -75t76.5 -114t27.5 -144t-27.5 -144t-76.5 -114t-115 -75t-144 -27q-77 0 -143.5 27t-115 75t-76 114t-27.5 144t27.5 144t76 114t115 75t143.5 27zM501 691q-73 0 -135.5 -26t-108 -71.5t-71 -108t-25.5 -135.5t25.5 -135.5t71 -108
t108 -71.5t135.5 -26q74 0 136 26t108 71.5t71.5 108t25.5 135.5t-25.5 135.5t-71.5 108t-108 71.5t-136 26zM654 485q4 -6 -1 -9l-6 -5q-5 -5 -9 1q-49 55 -129 55q-75 0 -120 -48t-45 -129t45 -129t120 -48q81 0 129 56q3 5 9 1l7 -5q5 -3 1 -9q-26 -31 -63.5 -47.5
t-82.5 -16.5q-42 0 -76.5 14.5t-60 41t-39.5 63t-14 79.5q0 44 14 80t39.5 62.5t60 41t76.5 14.5q44 0 81.5 -16.5t63.5 -46.5z" />
    <glyph glyph-name="ordfeminine" unicode="&#xaa;" horiz-adv-x="412" 
d="M315 703q46 0 81 -23t45 -72l14 81q0 6 7 6h10q5 0 5 -6l-50 -296q0 -6 -7 -6h-5q-4 0 -4 6l7 77q-26 -49 -68.5 -70t-84.5 -21q-33 0 -58.5 12.5t-42 34.5t-23 51.5t-0.5 63.5q6 35 21.5 64.5t38.5 51.5t52 34t62 12zM321 682q-31 0 -57 -11t-46.5 -30t-33.5 -44.5
t-18 -55.5t0 -55.5t19.5 -44t37 -29.5t52.5 -11q29 0 55 10.5t46.5 29t34.5 44t19 55.5t-0.5 56t-20 45t-37 30t-51.5 11z" />
    <glyph glyph-name="guillemotleft" unicode="&#xab;" horiz-adv-x="387" 
d="M106 275q-2 3 1 8l138 153q3 4 9 4h12q12 0 4 -10l-138 -153l86 -148q5 -10 -6 -10h-11q-5 0 -8 5zM235 275q-2 3 1 8l138 153q3 4 9 4h12q12 0 4 -10l-138 -153l86 -148q5 -10 -6 -10h-11q-5 0 -8 5z" />
    <glyph glyph-name="logicalnot" unicode="&#xac;" horiz-adv-x="507" 
d="M121 335q-6 0 -5 6l2 11q2 6 7 6h377q7 0 5 -6l-23 -134q-1 -6 -7 -6h-14q-6 0 -5 6l20 117h-357z" />
    <glyph glyph-name="registered" unicode="&#xae;" horiz-adv-x="788" 
d="M472 775q67 0 124.5 -23.5t99.5 -65.5t66 -99t24 -125q0 -67 -24 -124t-66 -99t-99.5 -65.5t-124.5 -23.5t-125 23.5t-100 65.5t-66 99t-24 124q0 68 24 125t66 99t100 65.5t125 23.5zM472 755q-64 0 -117.5 -22t-92.5 -61t-61 -92.5t-22 -117.5q0 -63 22 -116.5
t61 -92.5t92.5 -61t117.5 -22q63 0 116.5 22t92.5 61t61 92.5t22 116.5q0 64 -22 117.5t-61 92.5t-92.5 61t-116.5 22zM373 628q0 6 6 6h101q59 0 87.5 -26t28.5 -72q0 -42 -20.5 -68t-54.5 -33l78 -128q5 -9 -5 -9h-14q-3 0 -5 3l-77 130h-103v-127q0 -6 -6 -6h-10
q-6 0 -6 6v324zM395 450h87q48 0 69.5 22.5t21.5 60.5q0 81 -95 81h-83v-164z" />
    <glyph glyph-name="macron" unicode="&#xaf;" horiz-adv-x="434" 
d="M442 625q0 -3 -3 -3h-234q-3 0 -3 3l1 10q0 3 3 3h235q3 0 3 -3z" />
    <glyph glyph-name="degree" unicode="&#xb0;" horiz-adv-x="440" 
d="M343 740q38 0 67 -12t48 -33.5t26.5 -52t1.5 -67.5t-24 -67.5t-44 -52.5t-59 -34t-71 -12q-37 0 -66 12t-48 34t-26 52.5t-1 67.5t23.5 67.5t43.5 52t59 33.5t70 12zM340 720q-32 0 -60.5 -10t-51 -28.5t-37.5 -45.5t-21 -61q-12 -69 22.5 -107t99.5 -38q66 0 112.5 38
t58.5 107q11 69 -23 107t-100 38z" />
    <glyph glyph-name="plusminus" unicode="&#xb1;" horiz-adv-x="544" 
d="M361 493q7 0 5 -6l-36 -214h194q5 0 5 -6l-1 -11q0 -6 -7 -6h-194l-38 -227h194q7 0 5 -6l-2 -11q-1 -6 -7 -6h-414q-6 0 -5 6l2 11q2 6 7 6h195l38 227h-195q-5 0 -5 6l1 11q0 6 7 6h195l36 214q2 6 7 6h13z" />
    <glyph glyph-name="twosuperior" unicode="&#xb2;" horiz-adv-x="336" 
d="M180 727q-2 -7 -8 -5l-8 3q-6 2 -4 7q20 46 58 72t91 26t83.5 -26.5t22.5 -78.5q-6 -36 -29.5 -69.5t-70.5 -74.5l-172 -150h219q7 0 5 -6l-2 -9q0 -6 -7 -6h-251q-4 0 -4 5l1 3q0 2 2 4l195 173q44 38 65 68t26 62q8 44 -15.5 64t-65.5 20q-47 0 -80.5 -22t-50.5 -60z
" />
    <glyph glyph-name="threesuperior" unicode="&#xb3;" horiz-adv-x="348" 
d="M228 609q-6 0 -5 6l1 9q2 6 7 6h53q24 0 43.5 8.5t34.5 22t24 31t12 36.5q7 39 -15 60t-69 21q-48 0 -81.5 -21.5t-50.5 -60.5q-1 -5 -8 -5l-9 3q-7 0 -4 7q20 47 59.5 72.5t95.5 25.5q58 0 86.5 -27t20.5 -73q-7 -39 -33.5 -69t-60.5 -41q38 -7 56 -34.5t11 -69.5
q-9 -54 -49.5 -85t-100.5 -31q-55 0 -89.5 25.5t-39.5 72.5q0 7 6 7l10 3q6 0 6 -5q4 -38 33 -60t76 -22q51 0 84 24t41 71q7 41 -14 67t-78 26h-53z" />
    <glyph glyph-name="acute" unicode="&#xb4;" horiz-adv-x="291" 
d="M285 697q2 3 6 3h18q5 0 1 -5l-95 -121q-3 -4 -7 -4h-12q-2 0 -3 1t1 4z" />
    <glyph glyph-name="uni00B5" unicode="&#xb5;" horiz-adv-x="513" 
d="M152 440q7 0 5 -6l-41 -249q-14 -83 20.5 -128t109.5 -45q94 0 148 51.5t69 142.5l38 228q2 6 7 6h14q7 0 5 -6l-71 -428q-1 -6 -7 -6h-5q-5 0 -5 6l13 112q-33 -69 -89 -99.5t-124 -30.5q-58 0 -98.5 29.5t-44.5 91.5l-38 -277q-1 -6 -7 -6h-15q-6 0 -5 6l100 602
q2 6 7 6h14z" />
    <glyph glyph-name="paragraph" unicode="&#xb6;" horiz-adv-x="589" 
d="M604 700q7 0 5 -6l-137 -819q-1 -6 -7 -6h-13q-6 0 -5 6l133 800h-100l-133 -800q-1 -6 -7 -6h-13q-6 0 -5 6l65 391q-53 0 -99.5 11.5t-79 37t-48 67t-5.5 101.5q10 61 35 102.5t61.5 67t83.5 36.5t101 11h168z" />
    <glyph glyph-name="periodcentered" unicode="&#xb7;" horiz-adv-x="212" 
d="M163 329q13 0 20 -8t5 -21q-2 -14 -12 -21.5t-23 -7.5q-12 0 -19 7.5t-5 21.5q2 13 12 21t22 8z" />
    <glyph glyph-name="cedilla" unicode="&#xb8;" horiz-adv-x="366" 
d="M161 4q4 0 2 -4l-27 -64q123 -2 111 -70q-5 -32 -33.5 -49.5t-79.5 -17.5q-17 0 -36.5 2t-30.5 5q-3 2 -2 6l2 9q1 4 6 3q14 -4 29 -6t33 -2q48 0 68 15t24 38q2 11 -2 20.5t-16 16.5t-34.5 10.5t-58.5 2.5q-5 0 -3 4l34 79q2 2 4 2h10z" />
    <glyph glyph-name="onesuperior" unicode="&#xb9;" horiz-adv-x="240" 
d="M296 823q6 0 4 -5l-67 -402q0 -6 -7 -6h-11q-5 0 -5 6l64 381l-103 -33q-6 -2 -6 3l-3 9q-2 6 6 8l114 37q6 2 10 2h4z" />
    <glyph glyph-name="ordmasculine" unicode="&#xba;" horiz-adv-x="412" 
d="M324 703q34 0 60.5 -12.5t43.5 -34.5t23.5 -51.5t0.5 -63.5t-22 -63.5t-40.5 -51.5t-55 -34.5t-64.5 -12.5t-61 12.5t-44 34.5t-23.5 51.5t-0.5 63.5t21.5 63.5t39 51.5t54.5 34.5t68 12.5zM320 682q-31 0 -57 -11t-46.5 -30t-33.5 -44.5t-18 -55.5t-0.5 -55.5t18 -44.5
t36.5 -30t55 -11q28 0 54 11t46.5 30t34.5 44.5t19 55.5t1 55.5t-17.5 44.5t-36.5 30t-55 11z" />
    <glyph glyph-name="guillemotright" unicode="&#xbb;" horiz-adv-x="388" 
d="M375 284q2 -3 -1 -8l-138 -153q-3 -4 -9 -4h-12q-12 0 -4 10l138 153l-86 148q-5 10 6 10h11q6 0 8 -5zM246 284q2 -3 -1 -8l-138 -153q-3 -4 -9 -4h-12q-12 0 -4 10l138 153l-86 148q-5 10 6 10h11q6 0 8 -5z" />
    <glyph glyph-name="onequarter" unicode="&#xbc;" horiz-adv-x="695" 
d="M276 703q6 0 4 -5l-67 -402q0 -6 -7 -6h-11q-5 0 -5 6l64 381l-103 -33q-6 -2 -6 3l-3 9q-2 6 6 8l114 37q6 2 10 2h4zM653 700q11 0 4 -9l-527 -688q-3 -3 -6 -3h-10q-11 0 -4 9l527 688q3 3 6 3h10zM684 107q-1 -6 -7 -6h-73l-16 -95q-1 -6 -7 -6h-11q-6 0 -5 6l16 95
h-193q-6 0 -4 5v3q0 3 2 3l208 295q2 3 6 3h13q11 0 4 -9l-201 -279h168l16 96q2 6 7 6h11q7 0 5 -6l-16 -96h73q7 0 5 -6z" />
    <glyph glyph-name="onehalf" unicode="&#xbd;" horiz-adv-x="730" 
d="M276 703q6 0 4 -5l-67 -402q0 -6 -7 -6h-11q-5 0 -5 6l64 381l-103 -33q-6 -2 -6 3l-3 9q-2 6 6 8l114 37q6 2 10 2h4zM653 700q11 0 4 -9l-527 -688q-3 -3 -6 -3h-10q-11 0 -4 9l527 688q3 3 6 3h10zM506 317q-3 -6 -8 -5l-8 3q-6 2 -4 7q20 46 58 72t91 26t83.5 -26.5
t22.5 -78.5q-6 -36 -29.5 -69.5t-70.5 -74.5l-172 -150h219q5 0 5 -6l-2 -9q-1 -6 -7 -6h-251q-6 0 -4 5v3q1 1 1.5 2t1.5 2l195 173q43 38 64.5 68t26.5 62q7 44 -16 64t-65 20q-47 0 -81 -22t-50 -60z" />
    <glyph glyph-name="threequarters" unicode="&#xbe;" horiz-adv-x="811" 
d="M208 489q-6 0 -5 6l1 9q2 6 7 6h53q24 0 43.5 8.5t34.5 22t24 31t12 36.5q7 39 -15 60t-69 21q-48 0 -81.5 -21.5t-50.5 -60.5q-1 -5 -8 -5l-9 3q-7 0 -4 7q20 47 59.5 72.5t95.5 25.5q58 0 86.5 -27t20.5 -73q-7 -39 -33.5 -69t-60.5 -41q38 -7 56 -34.5t11 -69.5
q-9 -54 -49.5 -85t-100.5 -31q-55 0 -89.5 25.5t-39.5 72.5q0 7 6 7l10 3q6 0 6 -5q4 -38 33 -60t76 -22q51 0 84 24t41 71q7 41 -14 67t-78 26h-53zM754 700q11 0 4 -9l-527 -688q-3 -3 -6 -3h-10q-11 0 -4 9l527 688q3 3 6 3h10zM800 107q-1 -6 -7 -6h-73l-16 -95
q-1 -6 -7 -6h-11q-6 0 -5 6l16 95h-193q-6 0 -4 5v3q0 3 2 3l208 295q2 3 6 3h13q11 0 4 -9l-201 -279h168l16 96q2 6 7 6h11q7 0 5 -6l-16 -96h73q7 0 5 -6z" />
    <glyph glyph-name="questiondown" unicode="&#xbf;" horiz-adv-x="519" 
d="M350 512q28 0 23 -30q-5 -28 -32 -28q-14 0 -21 7.5t-5 20.5q2 14 11.5 22t23.5 8zM324 283q7 0 5 -6q-6 -31 -15 -55t-24.5 -44t-39.5 -38.5t-60 -40.5q-60 -37 -88.5 -71.5t-30.5 -85.5q-2 -52 33 -85t108 -33q41 0 75 10t62 28t49 42.5t37 52.5q3 7 9 4l11 -6
q5 -3 2 -7q-17 -31 -41 -58t-54.5 -47t-68 -31.5t-82.5 -11.5q-43 0 -74.5 11t-52.5 30.5t-30.5 46t-8.5 56.5q2 30 11.5 54.5t27 45t42.5 39.5t57 39q32 19 53 35.5t34.5 34t21 38t12.5 47.5q2 6 7 6h13z" />
    <glyph glyph-name="Agrave" unicode="&#xc0;" horiz-adv-x="751" 
d="M496 705q4 0 5 -4l190 -693q3 -8 -6 -8h-18q-4 0 -4 4l-57 215h-383l-131 -215q-3 -4 -6 -4h-20q-7 0 -4 8l423 693q1 4 8 4h3zM601 243l-113 416l-251 -416h364zM510 755q2 -5 -2 -5h-14q-2 0 -4 3l-61 122q-2 5 3 5h16q4 0 6 -4z" />
    <glyph glyph-name="Aacute" unicode="&#xc1;" horiz-adv-x="751" 
d="M496 705q4 0 5 -4l190 -693q3 -8 -6 -8h-18q-4 0 -4 4l-57 215h-383l-131 -215q-3 -4 -6 -4h-20q-7 0 -4 8l423 693q1 4 8 4h3zM601 243l-113 416l-251 -416h364zM589 877q2 3 6 3h18q5 0 1 -5l-95 -121q-3 -4 -7 -4h-12q-2 0 -3 1t1 4z" />
    <glyph glyph-name="Acircumflex" unicode="&#xc2;" horiz-adv-x="751" 
d="M496 705q4 0 5 -4l190 -693q3 -8 -6 -8h-18q-4 0 -4 4l-57 215h-383l-131 -215q-3 -4 -6 -4h-20q-7 0 -4 8l423 693q1 4 8 4h3zM601 243l-113 416l-251 -416h364zM612 755q3 -5 -3 -5h-12q-3 0 -5 3l-71 112l-101 -114q-1 -1 -3 -1h-17q-5 0 -1 5l108 122q3 3 9 3h12
q5 0 7 -4z" />
    <glyph glyph-name="Atilde" unicode="&#xc3;" horiz-adv-x="751" 
d="M496 705q4 0 5 -4l190 -693q3 -8 -6 -8h-18q-4 0 -4 4l-57 215h-383l-131 -215q-3 -4 -6 -4h-20q-7 0 -4 8l423 693q1 4 8 4h3zM601 243l-113 416l-251 -416h364zM652 881q3 0 3 -3q-10 -60 -29.5 -96.5t-54.5 -36.5q-25 0 -37.5 19t-21.5 42.5t-19 42.5t-30 19
q-23 0 -42.5 -26.5t-28.5 -88.5q0 -3 -3 -3h-14q-3 0 -3 3q11 63 34.5 97.5t58.5 34.5q25 0 37.5 -19t21.5 -42.5t19 -42.5t29 -19q23 0 38.5 28t24.5 88q0 3 4 3h13z" />
    <glyph glyph-name="Adieresis" unicode="&#xc4;" horiz-adv-x="751" 
d="M496 705q4 0 5 -4l190 -693q3 -8 -6 -8h-18q-4 0 -4 4l-57 215h-383l-131 -215q-3 -4 -6 -4h-20q-7 0 -4 8l423 693q1 4 8 4h3zM601 243l-113 416l-251 -416h364zM436 832q9 0 14.5 -6.5t3.5 -15.5t-9.5 -15.5t-16.5 -6.5q-8 0 -13.5 6.5t-3.5 15.5t9.5 15.5t15.5 6.5z
M597 832q9 0 14.5 -6.5t3.5 -15.5t-9.5 -15.5t-16.5 -6.5q-8 0 -13.5 6.5t-3.5 15.5t9.5 15.5t15.5 6.5z" />
    <glyph glyph-name="Aring" unicode="&#xc5;" horiz-adv-x="751" 
d="M496 705q4 0 5 -4l190 -693q3 -8 -6 -8h-18q-4 0 -4 4l-57 215h-383l-131 -215q-3 -4 -6 -4h-20q-7 0 -4 8l423 693q1 4 8 4h3zM601 243l-113 416l-251 -416h364zM533 928q44 0 65 -26t14 -65q-6 -39 -36 -65t-74 -26t-65 26t-15 65q7 39 37 65t74 26zM530 912
q-37 0 -60.5 -20.5t-29.5 -54.5q-5 -34 11.5 -54.5t53.5 -20.5t60.5 20.5t28.5 54.5q6 34 -10.5 54.5t-53.5 20.5z" />
    <glyph glyph-name="AE" unicode="&#xc6;" horiz-adv-x="965" 
d="M998 682q-1 -6 -7 -6h-481l43 -306h343q5 0 5 -6l-2 -12q-1 -6 -7 -6h-336l45 -322h286q7 0 5 -6l-2 -12q-1 -6 -7 -6h-300q-5 0 -5 4l-28 215h-331l-129 -215q-4 -4 -6 -4h-17q-8 0 -5 8l410 688q2 4 7 4h516q5 0 5 -6zM546 243l-60 429l-252 -429h312z" />
    <glyph glyph-name="Ccedilla" unicode="&#xc7;" horiz-adv-x="744" 
d="M781 591q2 -5 -3 -9l-11 -8q-7 -4 -9 1q-37 55 -94.5 83.5t-131.5 28.5q-69 0 -131 -25t-111.5 -69.5t-83 -106.5t-45.5 -136t0 -136t45.5 -106.5t86.5 -69.5t122 -25q75 0 144 30.5t122 84.5q6 5 10 2l11 -11q5 -3 -1 -9q-59 -59 -132 -90.5t-154 -31.5q-75 0 -133.5 27
t-96 75t-51.5 114.5t-1 145.5t49 145.5t89 114.5t119.5 75t141.5 27q80 0 144.5 -31.5t104.5 -89.5zM421 4q4 0 2 -4l-27 -64q123 -2 111 -70q-5 -32 -33.5 -49.5t-79.5 -17.5q-17 0 -36.5 2t-30.5 5q-3 2 -2 6l2 9q1 4 6 3q14 -4 29 -6t33 -2q48 0 68 15t24 38
q2 11 -2 20.5t-16 16.5t-34.5 10.5t-58.5 2.5q-5 0 -3 4l34 79q2 2 4 2h10z" />
    <glyph glyph-name="Egrave" unicode="&#xc8;" horiz-adv-x="575" 
d="M213 694q0 6 7 6h386q5 0 5 -6l-2 -12q-1 -6 -7 -6h-366l-51 -306h328q5 0 5 -6l-2 -12q-1 -6 -7 -6h-328l-54 -322h370q7 0 5 -6l-2 -12q-1 -6 -7 -6h-390q-6 0 -5 6zM435 755q2 -5 -2 -5h-14q-2 0 -4 3l-61 122q-2 5 3 5h16q4 0 6 -4z" />
    <glyph glyph-name="Eacute" unicode="&#xc9;" horiz-adv-x="575" 
d="M213 694q0 6 7 6h386q5 0 5 -6l-2 -12q-1 -6 -7 -6h-366l-51 -306h328q5 0 5 -6l-2 -12q-1 -6 -7 -6h-328l-54 -322h370q7 0 5 -6l-2 -12q-1 -6 -7 -6h-390q-6 0 -5 6zM514 877q2 3 6 3h18q5 0 1 -5l-95 -121q-3 -4 -7 -4h-12q-2 0 -3 1t1 4z" />
    <glyph glyph-name="Ecircumflex" unicode="&#xca;" horiz-adv-x="575" 
d="M213 694q0 6 7 6h386q5 0 5 -6l-2 -12q-1 -6 -7 -6h-366l-51 -306h328q5 0 5 -6l-2 -12q-1 -6 -7 -6h-328l-54 -322h370q7 0 5 -6l-2 -12q-1 -6 -7 -6h-390q-6 0 -5 6zM537 755q3 -5 -3 -5h-12q-3 0 -5 3l-71 112l-101 -114q-1 -1 -3 -1h-17q-5 0 -1 5l108 122q3 3 9 3
h12q5 0 7 -4z" />
    <glyph glyph-name="Edieresis" unicode="&#xcb;" horiz-adv-x="575" 
d="M213 694q0 6 7 6h386q5 0 5 -6l-2 -12q-1 -6 -7 -6h-366l-51 -306h328q5 0 5 -6l-2 -12q-1 -6 -7 -6h-328l-54 -322h370q7 0 5 -6l-2 -12q-1 -6 -7 -6h-390q-6 0 -5 6zM361 832q9 0 14.5 -6.5t3.5 -15.5t-9.5 -15.5t-16.5 -6.5q-8 0 -13.5 6.5t-3.5 15.5t9.5 15.5
t15.5 6.5zM522 832q9 0 14.5 -6.5t3.5 -15.5t-9.5 -15.5t-16.5 -6.5q-8 0 -13.5 6.5t-3.5 15.5t9.5 15.5t15.5 6.5z" />
    <glyph glyph-name="Igrave" unicode="&#xcc;" horiz-adv-x="239" 
d="M244 700q5 0 5 -6l-115 -688q-1 -6 -7 -6h-14q-6 0 -5 6l115 688q0 6 7 6h14zM252 755q2 -5 -2 -5h-14q-2 0 -4 3l-61 122q-2 5 3 5h16q4 0 6 -4z" />
    <glyph glyph-name="Iacute" unicode="&#xcd;" horiz-adv-x="239" 
d="M244 700q5 0 5 -6l-115 -688q-1 -6 -7 -6h-14q-6 0 -5 6l115 688q0 6 7 6h14zM331 877q2 3 6 3h18q5 0 1 -5l-95 -121q-3 -4 -7 -4h-12q-2 0 -3 1t1 4z" />
    <glyph glyph-name="Icircumflex" unicode="&#xce;" horiz-adv-x="239" 
d="M244 700q5 0 5 -6l-115 -688q-1 -6 -7 -6h-14q-6 0 -5 6l115 688q0 6 7 6h14zM354 755q3 -5 -3 -5h-12q-3 0 -5 3l-71 112l-101 -114q-1 -1 -3 -1h-17q-5 0 -1 5l108 122q3 3 9 3h12q5 0 7 -4z" />
    <glyph glyph-name="Idieresis" unicode="&#xcf;" horiz-adv-x="239" 
d="M244 700q5 0 5 -6l-115 -688q-1 -6 -7 -6h-14q-6 0 -5 6l115 688q0 6 7 6h14zM178 832q9 0 14.5 -6.5t3.5 -15.5t-9.5 -15.5t-16.5 -6.5q-8 0 -13.5 6.5t-3.5 15.5t9.5 15.5t15.5 6.5zM339 832q9 0 14.5 -6.5t3.5 -15.5t-9.5 -15.5t-16.5 -6.5q-8 0 -13.5 6.5t-3.5 15.5
t9.5 15.5t15.5 6.5z" />
    <glyph glyph-name="Eth" unicode="&#xd0;" horiz-adv-x="809" 
d="M269 694q0 6 7 6h225q88 0 149.5 -26.5t97.5 -72t47.5 -107.5t-0.5 -134t-45 -137.5t-85 -115t-122.5 -78.5t-158.5 -29h-225q-6 0 -5 6l56 338h-80q-5 0 -5 6l2 11q2 6 7 6h80zM467 367q7 0 5 -6l-2 -11q0 -6 -7 -6h-227l-53 -320h205q81 0 146.5 27.5t113.5 73.5
t78 107t41 128t1 125t-43 100.5t-89.5 66.5t-138.5 24h-205l-52 -309h227z" />
    <glyph glyph-name="Ntilde" unicode="&#xd1;" horiz-adv-x="706" 
d="M721 700q5 0 5 -6l-116 -693q0 -6 -7 -6h-3q-3 0 -6 5l-363 649l-107 -643q-1 -6 -7 -6h-14q-6 0 -5 6l116 693q0 6 7 6h3q4 0 5 -3l364 -651l107 643q0 6 7 6h14zM627 881q3 0 3 -3q-10 -60 -29.5 -96.5t-54.5 -36.5q-25 0 -37.5 19t-21.5 42.5t-19 42.5t-30 19
q-23 0 -42.5 -26.5t-28.5 -88.5q0 -3 -3 -3h-14q-3 0 -3 3q11 63 34.5 97.5t58.5 34.5q25 0 37.5 -19t21.5 -42.5t19 -42.5t29 -19q23 0 38.5 28t24.5 88q0 3 4 3h13z" />
    <glyph glyph-name="Ograve" unicode="&#xd2;" horiz-adv-x="851" 
d="M544 712q75 0 135 -28t99 -76.5t54.5 -114.5t2.5 -143q-13 -76 -50 -142.5t-92 -115t-123.5 -76.5t-143.5 -28t-135 28t-99.5 76.5t-55.5 115t-3 142.5q13 77 50 143t92 114.5t124 76.5t145 28zM543 688q-70 0 -134 -26t-115 -71.5t-86 -107.5t-47 -133t1 -133
t47.5 -107.5t89.5 -71.5t127 -26q71 0 134.5 26t114.5 71.5t85.5 107.5t46.5 133t-1.5 133t-48 107.5t-89 71.5t-125.5 26zM560 765q2 -5 -2 -5h-14q-2 0 -4 3l-61 122q-2 5 3 5h16q4 0 6 -4z" />
    <glyph glyph-name="Oacute" unicode="&#xd3;" horiz-adv-x="851" 
d="M544 712q75 0 135 -28t99 -76.5t54.5 -114.5t2.5 -143q-13 -76 -50 -142.5t-92 -115t-123.5 -76.5t-143.5 -28t-135 28t-99.5 76.5t-55.5 115t-3 142.5q13 77 50 143t92 114.5t124 76.5t145 28zM543 688q-70 0 -134 -26t-115 -71.5t-86 -107.5t-47 -133t1 -133
t47.5 -107.5t89.5 -71.5t127 -26q71 0 134.5 26t114.5 71.5t85.5 107.5t46.5 133t-1.5 133t-48 107.5t-89 71.5t-125.5 26zM639 887q2 3 6 3h18q5 0 1 -5l-95 -121q-3 -4 -7 -4h-12q-2 0 -3 1t1 4z" />
    <glyph glyph-name="Ocircumflex" unicode="&#xd4;" horiz-adv-x="851" 
d="M544 712q75 0 135 -28t99 -76.5t54.5 -114.5t2.5 -143q-13 -76 -50 -142.5t-92 -115t-123.5 -76.5t-143.5 -28t-135 28t-99.5 76.5t-55.5 115t-3 142.5q13 77 50 143t92 114.5t124 76.5t145 28zM543 688q-70 0 -134 -26t-115 -71.5t-86 -107.5t-47 -133t1 -133
t47.5 -107.5t89.5 -71.5t127 -26q71 0 134.5 26t114.5 71.5t85.5 107.5t46.5 133t-1.5 133t-48 107.5t-89 71.5t-125.5 26zM662 765q3 -5 -3 -5h-12q-3 0 -5 3l-71 112l-101 -114q-1 -1 -3 -1h-17q-5 0 -1 5l108 122q3 3 9 3h12q5 0 7 -4z" />
    <glyph glyph-name="Otilde" unicode="&#xd5;" horiz-adv-x="851" 
d="M544 712q75 0 135 -28t99 -76.5t54.5 -114.5t2.5 -143q-13 -76 -50 -142.5t-92 -115t-123.5 -76.5t-143.5 -28t-135 28t-99.5 76.5t-55.5 115t-3 142.5q13 77 50 143t92 114.5t124 76.5t145 28zM543 688q-70 0 -134 -26t-115 -71.5t-86 -107.5t-47 -133t1 -133
t47.5 -107.5t89.5 -71.5t127 -26q71 0 134.5 26t114.5 71.5t85.5 107.5t46.5 133t-1.5 133t-48 107.5t-89 71.5t-125.5 26zM702 891q3 0 3 -3q-10 -60 -29.5 -96.5t-54.5 -36.5q-25 0 -37.5 19t-21.5 42.5t-19 42.5t-30 19q-23 0 -42.5 -26.5t-28.5 -88.5q0 -3 -3 -3h-14
q-3 0 -3 3q11 63 34.5 97.5t58.5 34.5q25 0 37.5 -19t21.5 -42.5t19 -42.5t29 -19q23 0 38.5 28t24.5 88q0 3 4 3h13z" />
    <glyph glyph-name="Odieresis" unicode="&#xd6;" horiz-adv-x="851" 
d="M544 712q75 0 135 -28t99 -76.5t54.5 -114.5t2.5 -143q-13 -76 -50 -142.5t-92 -115t-123.5 -76.5t-143.5 -28t-135 28t-99.5 76.5t-55.5 115t-3 142.5q13 77 50 143t92 114.5t124 76.5t145 28zM543 688q-70 0 -134 -26t-115 -71.5t-86 -107.5t-47 -133t1 -133
t47.5 -107.5t89.5 -71.5t127 -26q71 0 134.5 26t114.5 71.5t85.5 107.5t46.5 133t-1.5 133t-48 107.5t-89 71.5t-125.5 26zM486 842q9 0 14.5 -6.5t3.5 -15.5t-9.5 -15.5t-16.5 -6.5q-8 0 -13.5 6.5t-3.5 15.5t9.5 15.5t15.5 6.5zM647 842q9 0 14.5 -6.5t3.5 -15.5
t-9.5 -15.5t-16.5 -6.5q-8 0 -13.5 6.5t-3.5 15.5t9.5 15.5t15.5 6.5z" />
    <glyph glyph-name="multiply" unicode="&#xd7;" horiz-adv-x="452" 
d="M459 412q5 -4 0 -9l-174 -150l122 -148q2 -4 -2 -8l-9 -7q-4 -4 -8 0l-122 148l-173 -148q-4 -4 -8 0l-8 12q-2 5 2 8l171 146l-122 146q-3 3 2 8l9 7q4 4 8 0l122 -146l174 150q4 4 8 0z" />
    <glyph glyph-name="Oslash" unicode="&#xd8;" horiz-adv-x="850" 
d="M545 712q71 0 126.5 -24t93.5 -68l111 100q6 5 8 1l7 -7q3 -3 -2 -8l-110 -100q38 -49 53 -114.5t2 -141.5t-50.5 -142.5t-92.5 -115t-123.5 -76.5t-143.5 -28q-70 0 -125.5 24t-95.5 67l-112 -101q-4 -5 -8 -1l-7 7q-2 4 3 8l112 101q-39 49 -54.5 115t-3.5 142
q13 77 50.5 143t93 114.5t124.5 76.5t144 28zM541 688q-70 0 -134 -26t-114.5 -71.5t-85 -107.5t-46.5 -133q-11 -70 2 -131t48 -107l534 490q-35 41 -86.5 63.5t-117.5 22.5zM222 97q35 -41 87.5 -63t118.5 -22q71 0 134.5 26t114 71.5t84.5 107.5t46 133q12 70 -1 130.5
t-47 106.5z" />
    <glyph glyph-name="Ugrave" unicode="&#xd9;" horiz-adv-x="677" 
d="M696 700q5 0 5 -6l-74 -443q-21 -125 -96 -194t-189 -69q-57 0 -100 18t-70.5 51.5t-37 82.5t0.5 111l74 443q0 6 7 6h14q5 0 5 -6l-73 -438q-20 -115 26.5 -179.5t152.5 -64.5t173.5 64.5t87.5 179.5l73 438q0 6 7 6h14zM466 755q2 -5 -2 -5h-14q-2 0 -4 3l-61 122
q-2 5 3 5h16q4 0 6 -4z" />
    <glyph glyph-name="Uacute" unicode="&#xda;" horiz-adv-x="677" 
d="M696 700q5 0 5 -6l-74 -443q-21 -125 -96 -194t-189 -69q-57 0 -100 18t-70.5 51.5t-37 82.5t0.5 111l74 443q0 6 7 6h14q5 0 5 -6l-73 -438q-20 -115 26.5 -179.5t152.5 -64.5t173.5 64.5t87.5 179.5l73 438q0 6 7 6h14zM545 877q2 3 6 3h18q5 0 1 -5l-95 -121
q-3 -4 -7 -4h-12q-2 0 -3 1t1 4z" />
    <glyph glyph-name="Ucircumflex" unicode="&#xdb;" horiz-adv-x="677" 
d="M696 700q5 0 5 -6l-74 -443q-21 -125 -96 -194t-189 -69q-57 0 -100 18t-70.5 51.5t-37 82.5t0.5 111l74 443q0 6 7 6h14q5 0 5 -6l-73 -438q-20 -115 26.5 -179.5t152.5 -64.5t173.5 64.5t87.5 179.5l73 438q0 6 7 6h14zM568 755q3 -5 -3 -5h-12q-3 0 -5 3l-71 112
l-101 -114q-1 -1 -3 -1h-17q-5 0 -1 5l108 122q3 3 9 3h12q5 0 7 -4z" />
    <glyph glyph-name="Udieresis" unicode="&#xdc;" horiz-adv-x="677" 
d="M696 700q5 0 5 -6l-74 -443q-21 -125 -96 -194t-189 -69q-57 0 -100 18t-70.5 51.5t-37 82.5t0.5 111l74 443q0 6 7 6h14q5 0 5 -6l-73 -438q-20 -115 26.5 -179.5t152.5 -64.5t173.5 64.5t87.5 179.5l73 438q0 6 7 6h14zM392 832q9 0 14.5 -6.5t3.5 -15.5t-9.5 -15.5
t-16.5 -6.5q-8 0 -13.5 6.5t-3.5 15.5t9.5 15.5t15.5 6.5zM553 832q9 0 14.5 -6.5t3.5 -15.5t-9.5 -15.5t-16.5 -6.5q-8 0 -13.5 6.5t-3.5 15.5t9.5 15.5t15.5 6.5z" />
    <glyph glyph-name="Yacute" unicode="&#xdd;" horiz-adv-x="656" 
d="M716 700q10 0 3 -9l-329 -402l-47 -283q-1 -6 -7 -6h-14q-6 0 -5 6l47 283l-196 402q-5 9 7 9h15q4 0 4 -3l185 -384l312 384q3 3 6 3h19zM525 877q2 3 6 3h18q5 0 1 -5l-95 -121q-3 -4 -7 -4h-12q-2 0 -3 1t1 4z" />
    <glyph glyph-name="Thorn" unicode="&#xde;" horiz-adv-x="571" 
d="M213 694q0 6 7 6h14q5 0 5 -6l-26 -153h163q62 0 104 -12.5t65.5 -36.5t30.5 -59.5t-1 -82.5q-7 -46 -26 -81.5t-51 -60t-78 -37t-108 -12.5h-163l-25 -153q-1 -6 -7 -6h-14q-6 0 -5 6zM153 183h163q57 0 98 10.5t68 31.5t42.5 52t22.5 73t2 73t-25.5 52t-58 31.5
t-94.5 10.5h-162z" />
    <glyph glyph-name="germandbls" unicode="&#xdf;" horiz-adv-x="535" 
d="M38 -190q-5 0 -5 6l115 687q8 49 23.5 90.5t41 72t63.5 47.5t90 17q78 0 115.5 -36t26.5 -101q-6 -36 -23 -62t-36 -47t-35 -39t-19 -39q-3 -17 6 -32.5t24 -31.5t32.5 -33t31.5 -38t21.5 -47.5t1.5 -60.5q-14 -81 -76.5 -128t-169.5 -47q-29 0 -52 3t-46 8q-5 2 -4 7
l3 13q2 7 8 5q21 -5 41.5 -9t49.5 -4q95 0 152 41.5t69 113.5q6 32 -2 56.5t-22.5 44t-32 35.5t-33 32.5t-24.5 33.5t-5 39q4 23 20 43t35 41t36 45.5t23 57.5q10 60 -20 87t-97 27q-48 0 -81 -16.5t-55 -45t-35 -67.5t-21 -84l-114 -679q0 -6 -7 -6h-14z" />
    <glyph glyph-name="agrave" unicode="&#xe0;" horiz-adv-x="551" 
d="M341 452q30 0 59.5 -8.5t54 -26.5t41.5 -45t23 -65l29 127q2 6 7 6h5q7 0 5 -6l-71 -428q-1 -6 -7 -6h-5q-6 0 -5 6l13 126q-18 -37 -44.5 -64.5t-56.5 -45t-62 -26t-63 -8.5q-47 0 -83.5 18t-60 49.5t-32 74t-0.5 90.5q8 49 30.5 91t56.5 73.5t76.5 49.5t89.5 18z
M342 428q-43 0 -81.5 -16t-68 -44t-49.5 -66t-27 -82q-7 -43 0.5 -81t28 -66t53.5 -44.5t77 -16.5q42 0 80.5 16t69 43.5t51 65.5t27.5 81q8 45 -0.5 83.5t-29.5 66.5t-54.5 44t-76.5 16zM366 535q2 -5 -2 -5h-14q-2 0 -4 3l-61 122q-2 5 3 5h16q4 0 6 -4z" />
    <glyph glyph-name="aacute" unicode="&#xe1;" horiz-adv-x="551" 
d="M341 452q30 0 59.5 -8.5t54 -26.5t41.5 -45t23 -65l29 127q2 6 7 6h5q7 0 5 -6l-71 -428q-1 -6 -7 -6h-5q-6 0 -5 6l13 126q-18 -37 -44.5 -64.5t-56.5 -45t-62 -26t-63 -8.5q-47 0 -83.5 18t-60 49.5t-32 74t-0.5 90.5q8 49 30.5 91t56.5 73.5t76.5 49.5t89.5 18z
M342 428q-43 0 -81.5 -16t-68 -44t-49.5 -66t-27 -82q-7 -43 0.5 -81t28 -66t53.5 -44.5t77 -16.5q42 0 80.5 16t69 43.5t51 65.5t27.5 81q8 45 -0.5 83.5t-29.5 66.5t-54.5 44t-76.5 16zM445 657q2 3 6 3h18q5 0 1 -5l-95 -121q-3 -4 -7 -4h-12q-2 0 -3 1t1 4z" />
    <glyph glyph-name="acircumflex" unicode="&#xe2;" horiz-adv-x="551" 
d="M341 452q30 0 59.5 -8.5t54 -26.5t41.5 -45t23 -65l29 127q2 6 7 6h5q7 0 5 -6l-71 -428q-1 -6 -7 -6h-5q-6 0 -5 6l13 126q-18 -37 -44.5 -64.5t-56.5 -45t-62 -26t-63 -8.5q-47 0 -83.5 18t-60 49.5t-32 74t-0.5 90.5q8 49 30.5 91t56.5 73.5t76.5 49.5t89.5 18z
M342 428q-43 0 -81.5 -16t-68 -44t-49.5 -66t-27 -82q-7 -43 0.5 -81t28 -66t53.5 -44.5t77 -16.5q42 0 80.5 16t69 43.5t51 65.5t27.5 81q8 45 -0.5 83.5t-29.5 66.5t-54.5 44t-76.5 16zM468 535q3 -5 -3 -5h-12q-3 0 -5 3l-71 112l-101 -114q-1 -1 -3 -1h-17q-5 0 -1 5
l108 122q3 3 9 3h12q5 0 7 -4z" />
    <glyph glyph-name="atilde" unicode="&#xe3;" horiz-adv-x="551" 
d="M341 452q30 0 59.5 -8.5t54 -26.5t41.5 -45t23 -65l29 127q2 6 7 6h5q7 0 5 -6l-71 -428q-1 -6 -7 -6h-5q-6 0 -5 6l13 126q-18 -37 -44.5 -64.5t-56.5 -45t-62 -26t-63 -8.5q-47 0 -83.5 18t-60 49.5t-32 74t-0.5 90.5q8 49 30.5 91t56.5 73.5t76.5 49.5t89.5 18z
M342 428q-43 0 -81.5 -16t-68 -44t-49.5 -66t-27 -82q-7 -43 0.5 -81t28 -66t53.5 -44.5t77 -16.5q42 0 80.5 16t69 43.5t51 65.5t27.5 81q8 45 -0.5 83.5t-29.5 66.5t-54.5 44t-76.5 16zM508 661q3 0 3 -3q-10 -60 -29.5 -96.5t-54.5 -36.5q-25 0 -37.5 19t-21.5 42.5
t-19 42.5t-30 19q-23 0 -42.5 -26.5t-28.5 -88.5q0 -3 -3 -3h-14q-3 0 -3 3q11 63 34.5 97.5t58.5 34.5q25 0 37.5 -19t21.5 -42.5t19 -42.5t29 -19q23 0 38.5 28t24.5 88q0 3 4 3h13z" />
    <glyph glyph-name="adieresis" unicode="&#xe4;" horiz-adv-x="551" 
d="M341 452q30 0 59.5 -8.5t54 -26.5t41.5 -45t23 -65l29 127q2 6 7 6h5q7 0 5 -6l-71 -428q-1 -6 -7 -6h-5q-6 0 -5 6l13 126q-18 -37 -44.5 -64.5t-56.5 -45t-62 -26t-63 -8.5q-47 0 -83.5 18t-60 49.5t-32 74t-0.5 90.5q8 49 30.5 91t56.5 73.5t76.5 49.5t89.5 18z
M342 428q-43 0 -81.5 -16t-68 -44t-49.5 -66t-27 -82q-7 -43 0.5 -81t28 -66t53.5 -44.5t77 -16.5q42 0 80.5 16t69 43.5t51 65.5t27.5 81q8 45 -0.5 83.5t-29.5 66.5t-54.5 44t-76.5 16zM292 612q9 0 14.5 -6.5t3.5 -15.5t-9.5 -15.5t-16.5 -6.5q-8 0 -13.5 6.5t-3.5 15.5
t9.5 15.5t15.5 6.5zM453 612q9 0 14.5 -6.5t3.5 -15.5t-9.5 -15.5t-16.5 -6.5q-8 0 -13.5 6.5t-3.5 15.5t9.5 15.5t15.5 6.5z" />
    <glyph glyph-name="aring" unicode="&#xe5;" horiz-adv-x="551" 
d="M341 452q30 0 59.5 -8.5t54 -26.5t41.5 -45t23 -65l29 127q2 6 7 6h5q7 0 5 -6l-71 -428q-1 -6 -7 -6h-5q-6 0 -5 6l13 126q-18 -37 -44.5 -64.5t-56.5 -45t-62 -26t-63 -8.5q-47 0 -83.5 18t-60 49.5t-32 74t-0.5 90.5q8 49 30.5 91t56.5 73.5t76.5 49.5t89.5 18z
M342 428q-43 0 -81.5 -16t-68 -44t-49.5 -66t-27 -82q-7 -43 0.5 -81t28 -66t53.5 -44.5t77 -16.5q42 0 80.5 16t69 43.5t51 65.5t27.5 81q8 45 -0.5 83.5t-29.5 66.5t-54.5 44t-76.5 16zM389 708q44 0 65 -26t14 -65q-6 -39 -36 -65t-74 -26t-65 26t-15 65q7 39 37 65
t74 26zM386 692q-37 0 -60.5 -20.5t-29.5 -54.5q-5 -34 11.5 -54.5t53.5 -20.5t60.5 20.5t28.5 54.5q6 34 -10.5 54.5t-53.5 20.5z" />
    <glyph glyph-name="ae" unicode="&#xe6;" horiz-adv-x="932" 
d="M924 228q-2 -7 -6 -12.5t-10 -5.5h-380q-6 -41 1.5 -77.5t28 -63.5t53 -42.5t75.5 -15.5q52 0 94.5 25.5t74.5 64.5q4 6 8 2l12 -10q4 -4 0 -8q-35 -43 -83.5 -70t-107.5 -27q-74 0 -119 42t-54 109l-22 -133q-1 -6 -7 -6h-5q-6 0 -5 6l18 123q-19 -37 -45 -64t-55.5 -44
t-61.5 -25t-64 -8q-47 0 -83.5 18t-59.5 49.5t-32 73.5t-1 91q8 48 31 90.5t56.5 74t76 49.5t89.5 18q30 0 59.5 -8.5t54.5 -26.5t42 -46t22 -67l21 130q2 6 7 6h8q7 0 5 -6l-21 -131q30 68 88.5 108.5t133.5 40.5q47 0 83 -16t57.5 -45.5t28 -71t-5.5 -91.5zM900 232
q11 41 7 77t-22 62.5t-49.5 42t-75.5 15.5q-43 0 -81.5 -15.5t-68.5 -42t-50 -62.5t-28 -77h368zM343 429q-44 0 -82 -16t-68 -44.5t-50 -66.5t-27 -82t0 -82t27.5 -66.5t53.5 -44.5t78 -16q43 0 81 16t68.5 43.5t51 65.5t27.5 82q8 45 0 83.5t-29 67t-54 44.5t-77 16z" />
    <glyph glyph-name="ccedilla" unicode="&#xe7;" horiz-adv-x="485" 
d="M505 354q3 -4 -3 -8l-13 -7q-6 -3 -8 2q-17 40 -52.5 64t-89.5 24q-43 0 -80.5 -16.5t-67 -44.5t-49 -66t-26.5 -82q-7 -43 -0.5 -81t26 -66.5t52 -45t75.5 -16.5q54 0 96 25t73 67q5 5 9 2l12 -10q4 -3 1 -8q-35 -45 -84.5 -72t-110.5 -27q-48 0 -85 18.5t-60 50
t-31.5 74.5t-0.5 91q8 49 30.5 91t55.5 73t76 48.5t92 17.5q60 0 101 -26.5t62 -71.5zM270 4q4 0 2 -4l-27 -64q123 -2 111 -70q-5 -32 -33.5 -49.5t-79.5 -17.5q-17 0 -36.5 2t-30.5 5q-3 2 -2 6l2 9q1 4 6 3q14 -4 29 -6t33 -2q48 0 68 15t24 38q2 11 -2 20.5t-16 16.5
t-34.5 10.5t-58.5 2.5q-5 0 -3 4l34 79q2 2 4 2h10z" />
    <glyph glyph-name="egrave" unicode="&#xe8;" horiz-adv-x="517" 
d="M509 228q-2 -7 -4 -12.5t-8 -5.5h-383q-6 -41 1 -77.5t26.5 -63.5t51.5 -42.5t77 -15.5q54 0 96.5 25.5t74.5 65.5q5 5 8 2l12 -10q4 -4 0 -8q-36 -45 -85.5 -71.5t-109.5 -26.5q-49 0 -86 18t-60 49.5t-31.5 74t-0.5 90.5q8 49 30 91t55 73.5t76 49.5t92 18
q48 0 85 -16.5t59.5 -46.5t29 -71t-5.5 -90zM485 232q10 42 5.5 78t-23 62.5t-49.5 41.5t-75 15q-43 0 -81 -15.5t-67.5 -42t-49 -62.5t-27.5 -77h367zM363 535q2 -5 -2 -5h-14q-2 0 -4 3l-61 122q-2 5 3 5h16q4 0 6 -4z" />
    <glyph glyph-name="eacute" unicode="&#xe9;" horiz-adv-x="517" 
d="M509 228q-2 -7 -4 -12.5t-8 -5.5h-383q-6 -41 1 -77.5t26.5 -63.5t51.5 -42.5t77 -15.5q54 0 96.5 25.5t74.5 65.5q5 5 8 2l12 -10q4 -4 0 -8q-36 -45 -85.5 -71.5t-109.5 -26.5q-49 0 -86 18t-60 49.5t-31.5 74t-0.5 90.5q8 49 30 91t55 73.5t76 49.5t92 18
q48 0 85 -16.5t59.5 -46.5t29 -71t-5.5 -90zM485 232q10 42 5.5 78t-23 62.5t-49.5 41.5t-75 15q-43 0 -81 -15.5t-67.5 -42t-49 -62.5t-27.5 -77h367zM442 657q2 3 6 3h18q5 0 1 -5l-95 -121q-3 -4 -7 -4h-12q-2 0 -3 1t1 4z" />
    <glyph glyph-name="ecircumflex" unicode="&#xea;" horiz-adv-x="517" 
d="M509 228q-2 -7 -4 -12.5t-8 -5.5h-383q-6 -41 1 -77.5t26.5 -63.5t51.5 -42.5t77 -15.5q54 0 96.5 25.5t74.5 65.5q5 5 8 2l12 -10q4 -4 0 -8q-36 -45 -85.5 -71.5t-109.5 -26.5q-49 0 -86 18t-60 49.5t-31.5 74t-0.5 90.5q8 49 30 91t55 73.5t76 49.5t92 18
q48 0 85 -16.5t59.5 -46.5t29 -71t-5.5 -90zM485 232q10 42 5.5 78t-23 62.5t-49.5 41.5t-75 15q-43 0 -81 -15.5t-67.5 -42t-49 -62.5t-27.5 -77h367zM465 535q3 -5 -3 -5h-12q-3 0 -5 3l-71 112l-101 -114q-1 -1 -3 -1h-17q-5 0 -1 5l108 122q3 3 9 3h12q5 0 7 -4z" />
    <glyph glyph-name="edieresis" unicode="&#xeb;" horiz-adv-x="517" 
d="M509 228q-2 -7 -4 -12.5t-8 -5.5h-383q-6 -41 1 -77.5t26.5 -63.5t51.5 -42.5t77 -15.5q54 0 96.5 25.5t74.5 65.5q5 5 8 2l12 -10q4 -4 0 -8q-36 -45 -85.5 -71.5t-109.5 -26.5q-49 0 -86 18t-60 49.5t-31.5 74t-0.5 90.5q8 49 30 91t55 73.5t76 49.5t92 18
q48 0 85 -16.5t59.5 -46.5t29 -71t-5.5 -90zM485 232q10 42 5.5 78t-23 62.5t-49.5 41.5t-75 15q-43 0 -81 -15.5t-67.5 -42t-49 -62.5t-27.5 -77h367zM289 612q9 0 14.5 -6.5t3.5 -15.5t-9.5 -15.5t-16.5 -6.5q-8 0 -13.5 6.5t-3.5 15.5t9.5 15.5t15.5 6.5zM450 612
q9 0 14.5 -6.5t3.5 -15.5t-9.5 -15.5t-16.5 -6.5q-8 0 -13.5 6.5t-3.5 15.5t9.5 15.5t15.5 6.5z" />
    <glyph glyph-name="igrave" unicode="&#xec;" horiz-adv-x="143" 
d="M152 440q7 0 5 -6l-71 -428q-1 -6 -7 -6h-14q-6 0 -5 6l71 428q2 6 7 6h14zM166 535q2 -5 -2 -5h-14q-2 0 -4 3l-61 122q-2 5 3 5h16q4 0 6 -4z" />
    <glyph glyph-name="iacute" unicode="&#xed;" horiz-adv-x="143" 
d="M152 440q7 0 5 -6l-71 -428q-1 -6 -7 -6h-14q-6 0 -5 6l71 428q2 6 7 6h14zM245 657q2 3 6 3h18q5 0 1 -5l-95 -121q-3 -4 -7 -4h-12q-2 0 -3 1t1 4z" />
    <glyph glyph-name="icircumflex" unicode="&#xee;" horiz-adv-x="143" 
d="M152 440q7 0 5 -6l-71 -428q-1 -6 -7 -6h-14q-6 0 -5 6l71 428q2 6 7 6h14zM268 535q3 -5 -3 -5h-12q-3 0 -5 3l-71 112l-101 -114q-1 -1 -3 -1h-17q-5 0 -1 5l108 122q3 3 9 3h12q5 0 7 -4z" />
    <glyph glyph-name="idieresis" unicode="&#xef;" horiz-adv-x="143" 
d="M152 440q7 0 5 -6l-71 -428q-1 -6 -7 -6h-14q-6 0 -5 6l71 428q2 6 7 6h14zM92 612q9 0 14.5 -6.5t3.5 -15.5t-9.5 -15.5t-16.5 -6.5q-8 0 -13.5 6.5t-3.5 15.5t9.5 15.5t15.5 6.5zM253 612q9 0 14.5 -6.5t3.5 -15.5t-9.5 -15.5t-16.5 -6.5q-8 0 -13.5 6.5t-3.5 15.5
t9.5 15.5t15.5 6.5z" />
    <glyph glyph-name="eth" unicode="&#xf0;" horiz-adv-x="573" 
d="M263 550q-6 -3 -8 2l-4 8q-2 5 4 8l106 64l-54 98q-5 10 6 10h17q4 0 5 -3l50 -92l92 55q5 3 7 -2l5 -8q2 -5 -3 -8l-92 -54l140 -261q19 -33 24.5 -75t-1.5 -83q-8 -49 -32.5 -89.5t-60.5 -70t-81 -45.5t-96 -16q-52 0 -93 17t-67.5 47.5t-37.5 73t-2 94.5
q8 51 32.5 93.5t60.5 72.5t81 46.5t93 16.5q38 0 72 -10t59 -30l-114 205zM359 426q-47 0 -88.5 -15t-74 -42t-54 -65t-29.5 -85q-7 -46 2 -84.5t32.5 -66t60 -42.5t83.5 -15q46 0 86 14t71.5 40.5t53 64t28.5 83.5q8 45 0.5 84t-29.5 67.5t-57.5 45t-84.5 16.5z" />
    <glyph glyph-name="ntilde" unicode="&#xf1;" horiz-adv-x="510" 
d="M143 440q7 0 5 -6l-12 -115q34 64 93.5 98.5t128.5 34.5q83 0 120.5 -46.5t23.5 -128.5l-45 -271q-1 -6 -7 -6h-14q-6 0 -5 6l45 270q12 72 -18 112.5t-105 40.5q-48 0 -87 -15.5t-68.5 -42.5t-48 -62.5t-25.5 -74.5l-38 -228q-1 -6 -7 -6h-14q-6 0 -5 6l71 428q2 6 7 6
h5zM496 661q3 0 3 -3q-10 -60 -29.5 -96.5t-54.5 -36.5q-25 0 -37.5 19t-21.5 42.5t-19 42.5t-30 19q-23 0 -42.5 -26.5t-28.5 -88.5q0 -3 -3 -3h-14q-3 0 -3 3q11 63 34.5 97.5t58.5 34.5q25 0 37.5 -19t21.5 -42.5t19 -42.5t29 -19q23 0 38.5 28t24.5 88q0 3 4 3h13z" />
    <glyph glyph-name="ograve" unicode="&#xf2;" horiz-adv-x="547" 
d="M349 452q49 0 87 -18t62.5 -49.5t34 -73.5t1.5 -91t-30.5 -91t-57 -73.5t-78.5 -49.5t-96 -18q-49 0 -87 18t-62.5 49.5t-33.5 73.5t-1 91t30.5 91t57 73.5t78.5 49.5t95 18zM349 429q-46 0 -85.5 -16t-70 -44.5t-50.5 -66.5t-27 -82t-1 -82t26.5 -66.5t54 -44.5
t80.5 -16q44 0 83 16t69 44.5t50.5 66.5t27.5 82t0.5 82t-26.5 66.5t-53 44.5t-78 16zM370 535q2 -5 -2 -5h-14q-2 0 -4 3l-61 122q-2 5 3 5h16q4 0 6 -4z" />
    <glyph glyph-name="oacute" unicode="&#xf3;" horiz-adv-x="547" 
d="M349 452q49 0 87 -18t62.5 -49.5t34 -73.5t1.5 -91t-30.5 -91t-57 -73.5t-78.5 -49.5t-96 -18q-49 0 -87 18t-62.5 49.5t-33.5 73.5t-1 91t30.5 91t57 73.5t78.5 49.5t95 18zM349 429q-46 0 -85.5 -16t-70 -44.5t-50.5 -66.5t-27 -82t-1 -82t26.5 -66.5t54 -44.5
t80.5 -16q44 0 83 16t69 44.5t50.5 66.5t27.5 82t0.5 82t-26.5 66.5t-53 44.5t-78 16zM449 657q2 3 6 3h18q5 0 1 -5l-95 -121q-3 -4 -7 -4h-12q-2 0 -3 1t1 4z" />
    <glyph glyph-name="ocircumflex" unicode="&#xf4;" horiz-adv-x="547" 
d="M349 452q49 0 87 -18t62.5 -49.5t34 -73.5t1.5 -91t-30.5 -91t-57 -73.5t-78.5 -49.5t-96 -18q-49 0 -87 18t-62.5 49.5t-33.5 73.5t-1 91t30.5 91t57 73.5t78.5 49.5t95 18zM349 429q-46 0 -85.5 -16t-70 -44.5t-50.5 -66.5t-27 -82t-1 -82t26.5 -66.5t54 -44.5
t80.5 -16q44 0 83 16t69 44.5t50.5 66.5t27.5 82t0.5 82t-26.5 66.5t-53 44.5t-78 16zM472 535q3 -5 -3 -5h-12q-3 0 -5 3l-71 112l-101 -114q-1 -1 -3 -1h-17q-5 0 -1 5l108 122q3 3 9 3h12q5 0 7 -4z" />
    <glyph glyph-name="otilde" unicode="&#xf5;" horiz-adv-x="547" 
d="M349 452q49 0 87 -18t62.5 -49.5t34 -73.5t1.5 -91t-30.5 -91t-57 -73.5t-78.5 -49.5t-96 -18q-49 0 -87 18t-62.5 49.5t-33.5 73.5t-1 91t30.5 91t57 73.5t78.5 49.5t95 18zM349 429q-46 0 -85.5 -16t-70 -44.5t-50.5 -66.5t-27 -82t-1 -82t26.5 -66.5t54 -44.5
t80.5 -16q44 0 83 16t69 44.5t50.5 66.5t27.5 82t0.5 82t-26.5 66.5t-53 44.5t-78 16zM512 661q3 0 3 -3q-10 -60 -29.5 -96.5t-54.5 -36.5q-25 0 -37.5 19t-21.5 42.5t-19 42.5t-30 19q-23 0 -42.5 -26.5t-28.5 -88.5q0 -3 -3 -3h-14q-3 0 -3 3q11 63 34.5 97.5t58.5 34.5
q25 0 37.5 -19t21.5 -42.5t19 -42.5t29 -19q23 0 38.5 28t24.5 88q0 3 4 3h13z" />
    <glyph glyph-name="odieresis" unicode="&#xf6;" horiz-adv-x="547" 
d="M349 452q49 0 87 -18t62.5 -49.5t34 -73.5t1.5 -91t-30.5 -91t-57 -73.5t-78.5 -49.5t-96 -18q-49 0 -87 18t-62.5 49.5t-33.5 73.5t-1 91t30.5 91t57 73.5t78.5 49.5t95 18zM349 429q-46 0 -85.5 -16t-70 -44.5t-50.5 -66.5t-27 -82t-1 -82t26.5 -66.5t54 -44.5
t80.5 -16q44 0 83 16t69 44.5t50.5 66.5t27.5 82t0.5 82t-26.5 66.5t-53 44.5t-78 16zM296 612q9 0 14.5 -6.5t3.5 -15.5t-9.5 -15.5t-16.5 -6.5q-8 0 -13.5 6.5t-3.5 15.5t9.5 15.5t15.5 6.5zM457 612q9 0 14.5 -6.5t3.5 -15.5t-9.5 -15.5t-16.5 -6.5q-8 0 -13.5 6.5
t-3.5 15.5t9.5 15.5t15.5 6.5z" />
    <glyph glyph-name="divide" unicode="&#xf7;" horiz-adv-x="599" 
d="M379 476q14 0 20.5 -8t4.5 -21q-5 -29 -34 -29q-13 0 -20 7.5t-5 21.5q2 13 11.5 21t22.5 8zM583 288q7 0 5 -6l-2 -11q-1 -6 -7 -6h-470q-6 0 -5 6l2 11q2 6 7 6h470zM323 136q14 0 20.5 -8t4.5 -21q-2 -14 -11.5 -22t-23.5 -8q-13 0 -19.5 8t-4.5 22q2 13 11.5 21
t22.5 8z" />
    <glyph glyph-name="oslash" unicode="&#xf8;" horiz-adv-x="547" 
d="M558 495q4 4 8 1l7 -5q3 -5 -1 -9l-82 -87q29 -32 41 -76.5t3 -98.5q-8 -49 -31.5 -91t-58.5 -73t-79 -49t-93 -18q-41 0 -73.5 12t-55.5 34l-75 -78q-6 -5 -9 -1l-7 6q-4 3 0 9l76 78q-27 32 -38 75.5t-2 95.5q8 49 31.5 91t58 73t78.5 49t93 18q77 0 125 -42zM345 428
q-45 0 -84 -16t-69 -44t-49.5 -66t-26.5 -82q-8 -45 -0.5 -84t30.5 -68l311 322q-20 18 -48.5 28t-63.5 10zM160 53q44 -41 116 -41q46 0 84.5 16t68.5 44t50 66t27 82q8 48 -1 88t-34 68z" />
    <glyph glyph-name="ugrave" unicode="&#xf9;" horiz-adv-x="509" 
d="M518 440q7 0 5 -6l-71 -428q-1 -6 -7 -6h-5q-6 0 -5 6l12 115q-33 -63 -92.5 -98t-129.5 -35q-82 0 -119.5 46.5t-23.5 128.5l45 271q2 6 7 6h14q7 0 5 -6l-44 -267q-12 -72 17.5 -113t106.5 -41q47 0 86 15.5t68 42t47.5 61.5t24.5 74l38 228q2 6 7 6h14zM346 535
q2 -5 -2 -5h-14q-2 0 -4 3l-61 122q-2 5 3 5h16q4 0 6 -4z" />
    <glyph glyph-name="uacute" unicode="&#xfa;" horiz-adv-x="509" 
d="M518 440q7 0 5 -6l-71 -428q-1 -6 -7 -6h-5q-6 0 -5 6l12 115q-33 -63 -92.5 -98t-129.5 -35q-82 0 -119.5 46.5t-23.5 128.5l45 271q2 6 7 6h14q7 0 5 -6l-44 -267q-12 -72 17.5 -113t106.5 -41q47 0 86 15.5t68 42t47.5 61.5t24.5 74l38 228q2 6 7 6h14zM425 657
q2 3 6 3h18q5 0 1 -5l-95 -121q-3 -4 -7 -4h-12q-2 0 -3 1t1 4z" />
    <glyph glyph-name="ucircumflex" unicode="&#xfb;" horiz-adv-x="509" 
d="M518 440q7 0 5 -6l-71 -428q-1 -6 -7 -6h-5q-6 0 -5 6l12 115q-33 -63 -92.5 -98t-129.5 -35q-82 0 -119.5 46.5t-23.5 128.5l45 271q2 6 7 6h14q7 0 5 -6l-44 -267q-12 -72 17.5 -113t106.5 -41q47 0 86 15.5t68 42t47.5 61.5t24.5 74l38 228q2 6 7 6h14zM448 535
q3 -5 -3 -5h-12q-3 0 -5 3l-71 112l-101 -114q-1 -1 -3 -1h-17q-5 0 -1 5l108 122q3 3 9 3h12q5 0 7 -4z" />
    <glyph glyph-name="udieresis" unicode="&#xfc;" horiz-adv-x="509" 
d="M518 440q7 0 5 -6l-71 -428q-1 -6 -7 -6h-5q-6 0 -5 6l12 115q-33 -63 -92.5 -98t-129.5 -35q-82 0 -119.5 46.5t-23.5 128.5l45 271q2 6 7 6h14q7 0 5 -6l-44 -267q-12 -72 17.5 -113t106.5 -41q47 0 86 15.5t68 42t47.5 61.5t24.5 74l38 228q2 6 7 6h14zM272 612
q9 0 14.5 -6.5t3.5 -15.5t-9.5 -15.5t-16.5 -6.5q-8 0 -13.5 6.5t-3.5 15.5t9.5 15.5t15.5 6.5zM433 612q9 0 14.5 -6.5t3.5 -15.5t-9.5 -15.5t-16.5 -6.5q-8 0 -13.5 6.5t-3.5 15.5t9.5 15.5t15.5 6.5z" />
    <glyph glyph-name="yacute" unicode="&#xfd;" horiz-adv-x="451" 
d="M92 431q-3 9 7 9h12q5 0 6 -3l129 -404l230 403q1 4 6 4h17q10 0 5 -8l-359 -618q-1 -2 -3 -3t-4 -1h-17q-9 0 -3 8l111 186zM404 657q2 3 6 3h18q5 0 1 -5l-95 -121q-3 -4 -7 -4h-12q-2 0 -3 1t1 4z" />
    <glyph glyph-name="thorn" unicode="&#xfe;" horiz-adv-x="552" 
d="M360 452q47 0 84 -18t60.5 -49.5t32.5 -73.5t1 -91q-8 -48 -30.5 -90.5t-56 -74t-76.5 -49.5t-91 -18q-30 0 -59 8.5t-53.5 25.5t-42 43.5t-23.5 63.5l-52 -313q0 -6 -7 -6h-14q-5 0 -5 6l153 918q2 6 7 6h14q7 0 5 -6l-70 -423q18 37 44 63.5t56 44t61.5 25.5t61.5 8z
M350 428q-42 0 -80.5 -15.5t-69 -43t-51 -65t-28.5 -81.5q-7 -45 1 -83.5t29.5 -67t55 -44.5t76.5 -16q42 0 80 16t68 44.5t51 66.5t28 81q7 44 0 81.5t-27 66t-53.5 44.5t-79.5 16z" />
    <glyph glyph-name="ydieresis" unicode="&#xff;" horiz-adv-x="451" 
d="M92 431q-3 9 7 9h12q5 0 6 -3l129 -404l230 403q1 4 6 4h17q10 0 5 -8l-359 -618q-1 -2 -3 -3t-4 -1h-17q-9 0 -3 8l111 186zM251 612q9 0 14.5 -6.5t3.5 -15.5t-9.5 -15.5t-16.5 -6.5q-8 0 -13.5 6.5t-3.5 15.5t9.5 15.5t15.5 6.5zM412 612q9 0 14.5 -6.5t3.5 -15.5
t-9.5 -15.5t-16.5 -6.5q-8 0 -13.5 6.5t-3.5 15.5t9.5 15.5t15.5 6.5z" />
    <glyph glyph-name="Amacron" unicode="&#x100;" horiz-adv-x="751" 
d="M496 705q4 0 5 -4l190 -693q3 -8 -6 -8h-18q-4 0 -4 4l-57 215h-383l-131 -215q-3 -4 -6 -4h-20q-7 0 -4 8l423 693q1 4 8 4h3zM601 243l-113 416l-251 -416h364zM632 805q0 -3 -3 -3h-234q-3 0 -3 3l1 10q0 3 3 3h235q3 0 3 -3z" />
    <glyph glyph-name="amacron" unicode="&#x101;" horiz-adv-x="551" 
d="M341 452q30 0 59.5 -8.5t54 -26.5t41.5 -45t23 -65l29 127q2 6 7 6h5q7 0 5 -6l-71 -428q-1 -6 -7 -6h-5q-6 0 -5 6l13 126q-18 -37 -44.5 -64.5t-56.5 -45t-62 -26t-63 -8.5q-47 0 -83.5 18t-60 49.5t-32 74t-0.5 90.5q8 49 30.5 91t56.5 73.5t76.5 49.5t89.5 18z
M342 428q-43 0 -81.5 -16t-68 -44t-49.5 -66t-27 -82q-7 -43 0.5 -81t28 -66t53.5 -44.5t77 -16.5q42 0 80.5 16t69 43.5t51 65.5t27.5 81q8 45 -0.5 83.5t-29.5 66.5t-54.5 44t-76.5 16zM488 585q0 -3 -3 -3h-234q-3 0 -3 3l1 10q0 3 3 3h235q3 0 3 -3z" />
    <glyph glyph-name="Abreve" unicode="&#x102;" horiz-adv-x="751" 
d="M496 705q4 0 5 -4l190 -693q3 -8 -6 -8h-18q-4 0 -4 4l-57 215h-383l-131 -215q-3 -4 -6 -4h-20q-7 0 -4 8l423 693q1 4 8 4h3zM601 243l-113 416l-251 -416h364zM395 877q0 3 4 3h12q2 0 2 -3q-3 -21 -1.5 -40.5t11.5 -35.5t29.5 -25.5t52.5 -9.5t56.5 11t39 27.5
t23.5 36t10 36.5q0 3 4 3h14q2 0 2 -3q-4 -23 -14 -46t-28 -41t-44.5 -29t-64.5 -11q-36 0 -58.5 11t-34.5 29t-15 41t0 46z" />
    <glyph glyph-name="abreve" unicode="&#x103;" horiz-adv-x="551" 
d="M341 452q30 0 59.5 -8.5t54 -26.5t41.5 -45t23 -65l29 127q2 6 7 6h5q7 0 5 -6l-71 -428q-1 -6 -7 -6h-5q-6 0 -5 6l13 126q-18 -37 -44.5 -64.5t-56.5 -45t-62 -26t-63 -8.5q-47 0 -83.5 18t-60 49.5t-32 74t-0.5 90.5q8 49 30.5 91t56.5 73.5t76.5 49.5t89.5 18z
M342 428q-43 0 -81.5 -16t-68 -44t-49.5 -66t-27 -82q-7 -43 0.5 -81t28 -66t53.5 -44.5t77 -16.5q42 0 80.5 16t69 43.5t51 65.5t27.5 81q8 45 -0.5 83.5t-29.5 66.5t-54.5 44t-76.5 16zM251 657q0 3 4 3h12q2 0 2 -3q-3 -21 -1.5 -40.5t11.5 -35.5t29.5 -25.5t52.5 -9.5
t56.5 11t39 27.5t23.5 36t10 36.5q0 3 4 3h14q2 0 2 -3q-4 -23 -14 -46t-28 -41t-44.5 -29t-64.5 -11q-36 0 -58.5 11t-34.5 29t-15 41t0 46z" />
    <glyph glyph-name="Aogonek" unicode="&#x104;" horiz-adv-x="693" 
d="M463 705q5 0 6 -4l157 -693q1 -5 0 -10t-6 -8q-47 -32 -72 -62t-28 -63t10 -48t42 -15q23 0 37 5q7 2 7 -4l1 -8q0 -5 -6.5 -8t-15 -4.5t-17 -2t-11.5 -0.5q-40 0 -58 21t-14 58q5 42 36 78t75 63h-2q-3 0 -4 4l-52 229h-329l-128 -229q-3 -4 -6 -4h-18q-9 0 -4 8
l390 693q3 4 7 4h3zM543 257l-88 399l-222 -399h310z" />
    <glyph glyph-name="aogonek" unicode="&#x105;" horiz-adv-x="463" 
d="M340 452q30 0 59.5 -8.5t54 -26.5t41.5 -45t23 -65l29 127q2 6 7 6h5q7 0 5 -6l-71 -430q-2 -7 -7 -10q-49 -30 -73 -62t-29 -67q-5 -30 9 -46.5t43 -16.5q23 0 37 5q6 1 7 -4l2 -8q2 -5 -5 -7q-21 -8 -46 -8q-40 0 -59.5 21t-12.5 58q7 43 38.5 80.5t79.5 66.5l12 126
q-18 -37 -44.5 -64.5t-56.5 -45t-62 -26t-63 -8.5q-47 0 -83.5 18t-60 49.5t-32 74t-0.5 90.5q8 49 30.5 91t56.5 73.5t76.5 49.5t89.5 18zM341 428q-43 0 -81.5 -16t-68 -44t-49.5 -66t-27 -82q-7 -43 0 -81t27.5 -66t54 -44.5t77.5 -16.5q42 0 80.5 16t69 43.5t51 65.5
t27.5 81q8 45 -0.5 83.5t-29.5 66.5t-54.5 44t-76.5 16z" />
    <glyph glyph-name="Cacute" unicode="&#x106;" horiz-adv-x="744" 
d="M781 591q2 -5 -3 -9l-11 -8q-7 -4 -9 1q-37 55 -94.5 83.5t-131.5 28.5q-69 0 -131 -25t-111.5 -69.5t-83 -106.5t-45.5 -136t0 -136t45.5 -106.5t86.5 -69.5t122 -25q75 0 144 30.5t122 84.5q6 5 10 2l11 -11q5 -3 -1 -9q-59 -59 -132 -90.5t-154 -31.5q-75 0 -133.5 27
t-96 75t-51.5 114.5t-1 145.5t49 145.5t89 114.5t119.5 75t141.5 27q80 0 144.5 -31.5t104.5 -89.5zM623 887q2 3 6 3h18q5 0 1 -5l-95 -121q-3 -4 -7 -4h-12q-2 0 -3 1t1 4z" />
    <glyph glyph-name="cacute" unicode="&#x107;" horiz-adv-x="485" 
d="M505 354q3 -4 -3 -8l-13 -7q-6 -3 -8 2q-17 40 -52.5 64t-89.5 24q-43 0 -80.5 -16.5t-67 -44.5t-49 -66t-26.5 -82q-7 -43 -0.5 -81t26 -66.5t52 -45t75.5 -16.5q54 0 96 25t73 67q5 5 9 2l12 -10q4 -3 1 -8q-35 -45 -84.5 -72t-110.5 -27q-48 0 -85 18.5t-60 50
t-31.5 74.5t-0.5 91q8 49 30.5 91t55.5 73t76 48.5t92 17.5q60 0 101 -26.5t62 -71.5zM442 657q2 3 6 3h18q5 0 1 -5l-95 -121q-3 -4 -7 -4h-12q-2 0 -3 1t1 4z" />
    <glyph glyph-name="Ccircumflex" unicode="&#x108;" horiz-adv-x="744" 
d="M781 591q2 -5 -3 -9l-11 -8q-7 -4 -9 1q-37 55 -94.5 83.5t-131.5 28.5q-69 0 -131 -25t-111.5 -69.5t-83 -106.5t-45.5 -136t0 -136t45.5 -106.5t86.5 -69.5t122 -25q75 0 144 30.5t122 84.5q6 5 10 2l11 -11q5 -3 -1 -9q-59 -59 -132 -90.5t-154 -31.5q-75 0 -133.5 27
t-96 75t-51.5 114.5t-1 145.5t49 145.5t89 114.5t119.5 75t141.5 27q80 0 144.5 -31.5t104.5 -89.5zM646 765q3 -5 -3 -5h-12q-3 0 -5 3l-71 112l-101 -114q-1 -1 -3 -1h-17q-5 0 -1 5l108 122q3 3 9 3h12q5 0 7 -4z" />
    <glyph glyph-name="ccircumflex" unicode="&#x109;" horiz-adv-x="485" 
d="M505 354q3 -4 -3 -8l-13 -7q-6 -3 -8 2q-17 40 -52.5 64t-89.5 24q-43 0 -80.5 -16.5t-67 -44.5t-49 -66t-26.5 -82q-7 -43 -0.5 -81t26 -66.5t52 -45t75.5 -16.5q54 0 96 25t73 67q5 5 9 2l12 -10q4 -3 1 -8q-35 -45 -84.5 -72t-110.5 -27q-48 0 -85 18.5t-60 50
t-31.5 74.5t-0.5 91q8 49 30.5 91t55.5 73t76 48.5t92 17.5q60 0 101 -26.5t62 -71.5zM465 535q3 -5 -3 -5h-12q-3 0 -5 3l-71 112l-101 -114q-1 -1 -3 -1h-17q-5 0 -1 5l108 122q3 3 9 3h12q5 0 7 -4z" />
    <glyph glyph-name="Cdotaccent" unicode="&#x10a;" horiz-adv-x="744" 
d="M781 591q2 -5 -3 -9l-11 -8q-7 -4 -9 1q-37 55 -94.5 83.5t-131.5 28.5q-69 0 -131 -25t-111.5 -69.5t-83 -106.5t-45.5 -136t0 -136t45.5 -106.5t86.5 -69.5t122 -25q75 0 144 30.5t122 84.5q6 5 10 2l11 -11q5 -3 -1 -9q-59 -59 -132 -90.5t-154 -31.5q-75 0 -133.5 27
t-96 75t-51.5 114.5t-1 145.5t49 145.5t89 114.5t119.5 75t141.5 27q80 0 144.5 -31.5t104.5 -89.5zM548 831q9 0 15 -6t4 -15t-8 -15t-15 -6t-15 6t-4 15t8 15t15 6z" />
    <glyph glyph-name="cdotaccent" unicode="&#x10b;" horiz-adv-x="485" 
d="M505 354q3 -4 -3 -8l-13 -7q-6 -3 -8 2q-17 40 -52.5 64t-89.5 24q-43 0 -80.5 -16.5t-67 -44.5t-49 -66t-26.5 -82q-7 -43 -0.5 -81t26 -66.5t52 -45t75.5 -16.5q54 0 96 25t73 67q5 5 9 2l12 -10q4 -3 1 -8q-35 -45 -84.5 -72t-110.5 -27q-48 0 -85 18.5t-60 50
t-31.5 74.5t-0.5 91q8 49 30.5 91t55.5 73t76 48.5t92 17.5q60 0 101 -26.5t62 -71.5zM367 601q9 0 15 -6t4 -15t-8 -15t-15 -6t-15 6t-4 15t8 15t15 6z" />
    <glyph glyph-name="Ccaron" unicode="&#x10c;" horiz-adv-x="744" 
d="M781 591q2 -5 -3 -9l-11 -8q-7 -4 -9 1q-37 55 -94.5 83.5t-131.5 28.5q-69 0 -131 -25t-111.5 -69.5t-83 -106.5t-45.5 -136t0 -136t45.5 -106.5t86.5 -69.5t122 -25q75 0 144 30.5t122 84.5q6 5 10 2l11 -11q5 -3 -1 -9q-59 -59 -132 -90.5t-154 -31.5q-75 0 -133.5 27
t-96 75t-51.5 114.5t-1 145.5t49 145.5t89 114.5t119.5 75t141.5 27q80 0 144.5 -31.5t104.5 -89.5zM449 885q-3 5 3 5h12q4 0 5 -3l71 -112l101 114q1 1 3 1h17q5 0 1 -5l-108 -122q-3 -3 -9 -3h-12q-5 0 -7 4z" />
    <glyph glyph-name="ccaron" unicode="&#x10d;" horiz-adv-x="485" 
d="M505 354q3 -4 -3 -8l-13 -7q-6 -3 -8 2q-17 40 -52.5 64t-89.5 24q-43 0 -80.5 -16.5t-67 -44.5t-49 -66t-26.5 -82q-7 -43 -0.5 -81t26 -66.5t52 -45t75.5 -16.5q54 0 96 25t73 67q5 5 9 2l12 -10q4 -3 1 -8q-35 -45 -84.5 -72t-110.5 -27q-48 0 -85 18.5t-60 50
t-31.5 74.5t-0.5 91q8 49 30.5 91t55.5 73t76 48.5t92 17.5q60 0 101 -26.5t62 -71.5zM268 655q-3 5 3 5h12q4 0 5 -3l71 -112l101 114q1 1 3 1h17q5 0 1 -5l-108 -122q-3 -3 -9 -3h-12q-5 0 -7 4z" />
    <glyph glyph-name="Dcaron" unicode="&#x10e;" horiz-adv-x="753" 
d="M213 694q0 6 7 6h222q87 0 149 -26.5t99 -72t49 -107.5t0 -134t-44 -137.5t-84 -115t-123 -78.5t-161 -29h-224q-6 0 -5 6zM127 24h202q82 0 147.5 27.5t114 73.5t79 107t41.5 128t1 125t-43 100.5t-90 66.5t-139 24h-204zM384 875q-3 5 3 5h12q4 0 5 -3l71 -112l101 114
q1 1 3 1h17q5 0 1 -5l-108 -122q-3 -3 -9 -3h-12q-5 0 -7 4z" />
    <glyph glyph-name="dcaron" unicode="&#x10f;" horiz-adv-x="556" 
d="M341 452q30 0 59 -8t53.5 -25.5t42 -44t23.5 -63.5l70 423q2 6 7 6h14q7 0 5 -6l-121 -728q-1 -6 -7 -6h-5q-6 0 -5 6l13 126q-18 -37 -44.5 -64.5t-56.5 -45t-62 -26t-63 -8.5q-47 0 -83.5 18t-60 49.5t-32 74t-0.5 90.5q8 49 30.5 91t56.5 73.5t76.5 49.5t89.5 18z
M342 428q-43 0 -81.5 -16t-68 -44t-49.5 -66t-27 -82q-7 -43 0.5 -81t28 -66t53.5 -44.5t77 -16.5q42 0 80.5 16t69 43.5t51 65.5t27.5 81q8 45 -0.5 83.5t-29.5 66.5t-54.5 44t-76.5 16zM718 752q11 0 18.5 -8.5t5.5 -24.5q-6 -58 -54 -106q-2 -2 -4 0l-8 6q-2 3 0 5
q20 20 29.5 42t11.5 38q-15 -2 -21.5 7t-4.5 19q2 11 9.5 16.5t17.5 5.5z" />
    <glyph glyph-name="Dcroat" unicode="&#x110;" horiz-adv-x="809" 
d="M269 694q0 6 7 6h225q88 0 149.5 -26.5t97.5 -72t47.5 -107.5t-0.5 -134t-45 -137.5t-85 -115t-122.5 -78.5t-158.5 -29h-225q-6 0 -5 6l56 338h-80q-5 0 -5 6l2 11q2 6 7 6h80zM467 367q7 0 5 -6l-2 -11q0 -6 -7 -6h-227l-53 -320h205q81 0 146.5 27.5t113.5 73.5
t78 107t41 128t1 125t-43 100.5t-89.5 66.5t-138.5 24h-205l-52 -309h227z" />
    <glyph glyph-name="dcroat" unicode="&#x111;" horiz-adv-x="565" 
d="M388 625q2 6 7 6h176l17 103q2 6 7 6h14q7 0 5 -6l-17 -103h67q7 0 5 -6l-2 -11q0 -6 -7 -6h-67l-100 -602q-1 -6 -7 -6h-5q-6 0 -5 6l13 127q-18 -38 -44 -65.5t-56.5 -45t-63 -26t-62.5 -8.5q-47 0 -83.5 18t-60 49.5t-32 74t-0.5 90.5q8 49 30.5 91t56.5 73.5
t76.5 49.5t89.5 18q30 0 59.5 -8.5t53.5 -25.5t41.5 -44t23.5 -64l49 298h-176q-5 0 -5 6zM341 428q-43 0 -81.5 -16t-68 -44t-49.5 -66t-27 -82q-7 -43 0 -81t27.5 -66t54 -44.5t77.5 -16.5q42 0 80.5 16t69 43.5t51 65.5t27.5 81q8 45 -0.5 83.5t-29.5 66.5t-54.5 44
t-76.5 16z" />
    <glyph glyph-name="Emacron" unicode="&#x112;" horiz-adv-x="575" 
d="M213 694q0 6 7 6h386q5 0 5 -6l-2 -12q-1 -6 -7 -6h-366l-51 -306h328q5 0 5 -6l-2 -12q-1 -6 -7 -6h-328l-54 -322h370q7 0 5 -6l-2 -12q-1 -6 -7 -6h-390q-6 0 -5 6zM557 805q0 -3 -3 -3h-234q-3 0 -3 3l1 10q0 3 3 3h235q3 0 3 -3z" />
    <glyph glyph-name="emacron" unicode="&#x113;" horiz-adv-x="517" 
d="M509 228q-2 -7 -4 -12.5t-8 -5.5h-383q-6 -41 1 -77.5t26.5 -63.5t51.5 -42.5t77 -15.5q54 0 96.5 25.5t74.5 65.5q5 5 8 2l12 -10q4 -4 0 -8q-36 -45 -85.5 -71.5t-109.5 -26.5q-49 0 -86 18t-60 49.5t-31.5 74t-0.5 90.5q8 49 30 91t55 73.5t76 49.5t92 18
q48 0 85 -16.5t59.5 -46.5t29 -71t-5.5 -90zM485 232q10 42 5.5 78t-23 62.5t-49.5 41.5t-75 15q-43 0 -81 -15.5t-67.5 -42t-49 -62.5t-27.5 -77h367zM485 585q0 -3 -3 -3h-234q-3 0 -3 3l1 10q0 3 3 3h235q3 0 3 -3z" />
    <glyph glyph-name="Ebreve" unicode="&#x114;" horiz-adv-x="575" 
d="M213 694q0 6 7 6h386q5 0 5 -6l-2 -12q-1 -6 -7 -6h-366l-51 -306h328q5 0 5 -6l-2 -12q-1 -6 -7 -6h-328l-54 -322h370q7 0 5 -6l-2 -12q-1 -6 -7 -6h-390q-6 0 -5 6zM320 877q0 3 4 3h12q2 0 2 -3q-3 -21 -1.5 -40.5t11.5 -35.5t29.5 -25.5t52.5 -9.5t56.5 11t39 27.5
t23.5 36t10 36.5q0 3 4 3h14q2 0 2 -3q-4 -23 -14 -46t-28 -41t-44.5 -29t-64.5 -11q-36 0 -58.5 11t-34.5 29t-15 41t0 46z" />
    <glyph glyph-name="ebreve" unicode="&#x115;" horiz-adv-x="517" 
d="M509 228q-2 -7 -4 -12.5t-8 -5.5h-383q-6 -41 1 -77.5t26.5 -63.5t51.5 -42.5t77 -15.5q54 0 96.5 25.5t74.5 65.5q5 5 8 2l12 -10q4 -4 0 -8q-36 -45 -85.5 -71.5t-109.5 -26.5q-49 0 -86 18t-60 49.5t-31.5 74t-0.5 90.5q8 49 30 91t55 73.5t76 49.5t92 18
q48 0 85 -16.5t59.5 -46.5t29 -71t-5.5 -90zM485 232q10 42 5.5 78t-23 62.5t-49.5 41.5t-75 15q-43 0 -81 -15.5t-67.5 -42t-49 -62.5t-27.5 -77h367zM248 657q0 3 4 3h12q2 0 2 -3q-3 -21 -1.5 -40.5t11.5 -35.5t29.5 -25.5t52.5 -9.5t56.5 11t39 27.5t23.5 36t10 36.5
q0 3 4 3h14q2 0 2 -3q-4 -23 -14 -46t-28 -41t-44.5 -29t-64.5 -11q-36 0 -58.5 11t-34.5 29t-15 41t0 46z" />
    <glyph glyph-name="Edotaccent" unicode="&#x116;" horiz-adv-x="575" 
d="M213 694q0 6 7 6h386q5 0 5 -6l-2 -12q-1 -6 -7 -6h-366l-51 -306h328q5 0 5 -6l-2 -12q-1 -6 -7 -6h-328l-54 -322h370q7 0 5 -6l-2 -12q-1 -6 -7 -6h-390q-6 0 -5 6zM439 821q9 0 15 -6t4 -15t-8 -15t-15 -6t-15 6t-4 15t8 15t15 6z" />
    <glyph glyph-name="edotaccent" unicode="&#x117;" horiz-adv-x="517" 
d="M509 228q-2 -7 -4 -12.5t-8 -5.5h-383q-6 -41 1 -77.5t26.5 -63.5t51.5 -42.5t77 -15.5q54 0 96.5 25.5t74.5 65.5q5 5 8 2l12 -10q4 -4 0 -8q-36 -45 -85.5 -71.5t-109.5 -26.5q-49 0 -86 18t-60 49.5t-31.5 74t-0.5 90.5q8 49 30 91t55 73.5t76 49.5t92 18
q48 0 85 -16.5t59.5 -46.5t29 -71t-5.5 -90zM485 232q10 42 5.5 78t-23 62.5t-49.5 41.5t-75 15q-43 0 -81 -15.5t-67.5 -42t-49 -62.5t-27.5 -77h367zM367 601q9 0 15 -6t4 -15t-8 -15t-15 -6t-15 6t-4 15t8 15t15 6z" />
    <glyph glyph-name="Eogonek" unicode="&#x118;" horiz-adv-x="577" 
d="M213 694q0 6 7 6h386q5 0 5 -6l-2 -12q-1 -6 -7 -6h-366l-51 -306h328q5 0 5 -6l-2 -12q-1 -6 -7 -6h-328l-54 -322h370q7 0 5 -6l-3 -15q-1 -2 -1.5 -4t-3.5 -4q-49 -30 -73.5 -62.5t-29.5 -67.5q-5 -30 9 -46.5t43 -16.5q23 0 37 5q7 2 7 -4l1 -8q0 -5 -6.5 -8
t-15 -4.5t-17 -2t-11.5 -0.5q-40 0 -59.5 21t-12.5 58q7 42 33.5 77t70.5 64h-367q-6 0 -5 6z" />
    <glyph glyph-name="eogonek" unicode="&#x119;" horiz-adv-x="514" 
d="M508 228q-2 -7 -4 -12.5t-8 -5.5h-383q-6 -41 1.5 -77.5t28 -63.5t52.5 -42.5t74 -15.5q54 0 96.5 25t74.5 65q5 5 9 2l11 -9q4 -4 0 -8q-12 -14 -25 -26.5t-27 -23.5q-55 -45 -81.5 -84t-33.5 -78q-6 -38 12.5 -55t47.5 -17q23 0 37 5q7 2 7 -4l1 -8q0 -5 -6.5 -8
t-15 -4.5t-17 -2t-11.5 -0.5q-40 0 -63.5 22t-16.5 66q5 32 25 66.5t57 69.5q-20 -8 -41 -12t-44 -4q-49 0 -86 18t-60 49.5t-31.5 74t-0.5 90.5q8 49 30 91t55.5 73.5t77 49.5t92.5 18q48 0 84.5 -16.5t59 -46.5t28.5 -71t-6 -90zM484 232q10 42 5 78t-24 62.5t-50.5 41.5
t-75.5 15q-43 0 -80.5 -15.5t-66.5 -42t-48 -62.5t-27 -77h367z" />
    <glyph glyph-name="Ecaron" unicode="&#x11a;" horiz-adv-x="575" 
d="M213 694q0 6 7 6h386q5 0 5 -6l-2 -12q-1 -6 -7 -6h-366l-51 -306h328q5 0 5 -6l-2 -12q-1 -6 -7 -6h-328l-54 -322h370q7 0 5 -6l-2 -12q-1 -6 -7 -6h-390q-6 0 -5 6zM340 875q-3 5 3 5h12q4 0 5 -3l71 -112l101 114q1 1 3 1h17q5 0 1 -5l-108 -122q-3 -3 -9 -3h-12
q-5 0 -7 4z" />
    <glyph glyph-name="ecaron" unicode="&#x11b;" horiz-adv-x="517" 
d="M509 228q-2 -7 -4 -12.5t-8 -5.5h-383q-6 -41 1 -77.5t26.5 -63.5t51.5 -42.5t77 -15.5q54 0 96.5 25.5t74.5 65.5q5 5 8 2l12 -10q4 -4 0 -8q-36 -45 -85.5 -71.5t-109.5 -26.5q-49 0 -86 18t-60 49.5t-31.5 74t-0.5 90.5q8 49 30 91t55 73.5t76 49.5t92 18
q48 0 85 -16.5t59.5 -46.5t29 -71t-5.5 -90zM485 232q10 42 5.5 78t-23 62.5t-49.5 41.5t-75 15q-43 0 -81 -15.5t-67.5 -42t-49 -62.5t-27.5 -77h367zM268 655q-3 5 3 5h12q4 0 5 -3l71 -112l101 114q1 1 3 1h17q5 0 1 -5l-108 -122q-3 -3 -9 -3h-12q-5 0 -7 4z" />
    <glyph glyph-name="Gcircumflex" unicode="&#x11c;" horiz-adv-x="819" 
d="M473 315q-6 0 -5 6l2 12q0 6 7 6h316q7 0 6.5 -7.5t-2.5 -19.5q-14 -77 -47.5 -137t-82.5 -101.5t-111 -63.5t-132 -22q-78 0 -138 27t-98.5 75.5t-52.5 115.5t-1 146q13 78 48 144t88 114t121.5 75t147.5 27q83 0 147.5 -30t103.5 -91q2 -5 -3 -9l-12 -8q-5 -2 -9 2
q-35 56 -92.5 83.5t-133.5 27.5q-74 0 -138 -25t-113.5 -69.5t-82 -106t-44.5 -134.5q-12 -75 0 -137t46 -107t89.5 -70t128.5 -25q69 0 127 22t103 62t75 95.5t41 122.5h-299zM656 764q3 -5 -3 -5h-12q-3 0 -5 3l-71 112l-101 -114q-1 -1 -3 -1h-17q-5 0 -1 5l108 122
q3 3 9 3h12q5 0 7 -4z" />
    <glyph glyph-name="gcircumflex" unicode="&#x11d;" horiz-adv-x="500" 
d="M563 423q-1 -6 -7 -6l-121 -1q57 -45 44 -129q-6 -36 -24 -65t-44.5 -49.5t-60 -31.5t-71.5 -11q-67 0 -107 26q-32 -15 -37 -45q-4 -19 6 -33t45 -19l162 -23q136 -19 123 -96q-11 -64 -77.5 -97.5t-171.5 -33.5q-112 0 -165.5 34.5t-45.5 95.5q5 42 34.5 71.5
t77.5 46.5q-20 18 -15 49q3 19 16.5 35t33.5 26q-45 42 -33 123q12 72 66 117t138 45q18 0 38.5 -3t37.5 -9h154q7 0 5 -6zM334 429q-76 0 -124 -36t-59 -103q-6 -37 1.5 -63.5t25.5 -42.5t45 -23.5t60 -7.5q64 0 111 35.5t58 101.5q11 63 -21 101t-97 38zM141 44
q-38 -11 -68 -37t-35 -68q-7 -57 43.5 -82t145.5 -25q51 0 90 9t66.5 23.5t43 34t18.5 40.5q5 32 -18 48t-83 24l-166 23q-11 2 -20 4.5t-17 5.5zM460 535q3 -5 -3 -5h-12q-3 0 -5 3l-71 112l-101 -114q-1 -1 -3 -1h-17q-5 0 -1 5l108 122q3 3 9 3h12q5 0 7 -4z" />
    <glyph glyph-name="Gbreve" unicode="&#x11e;" horiz-adv-x="819" 
d="M473 315q-6 0 -5 6l2 12q0 6 7 6h316q7 0 6.5 -7.5t-2.5 -19.5q-14 -77 -47.5 -137t-82.5 -101.5t-111 -63.5t-132 -22q-78 0 -138 27t-98.5 75.5t-52.5 115.5t-1 146q13 78 48 144t88 114t121.5 75t147.5 27q83 0 147.5 -30t103.5 -91q2 -5 -3 -9l-12 -8q-5 -2 -9 2
q-35 56 -92.5 83.5t-133.5 27.5q-74 0 -138 -25t-113.5 -69.5t-82 -106t-44.5 -134.5q-12 -75 0 -137t46 -107t89.5 -70t128.5 -25q69 0 127 22t103 62t75 95.5t41 122.5h-299zM439 886q0 3 4 3h12q2 0 2 -3q-3 -21 -1.5 -40.5t11.5 -35.5t29.5 -25.5t52.5 -9.5t56.5 11
t39 27.5t23.5 36t10 36.5q0 3 4 3h14q2 0 2 -3q-4 -23 -14 -46t-28 -41t-44.5 -29t-64.5 -11q-36 0 -58.5 11t-34.5 29t-15 41t0 46z" />
    <glyph glyph-name="gbreve" unicode="&#x11f;" horiz-adv-x="500" 
d="M563 423q-1 -6 -7 -6l-121 -1q57 -45 44 -129q-6 -36 -24 -65t-44.5 -49.5t-60 -31.5t-71.5 -11q-67 0 -107 26q-32 -15 -37 -45q-4 -19 6 -33t45 -19l162 -23q136 -19 123 -96q-11 -64 -77.5 -97.5t-171.5 -33.5q-112 0 -165.5 34.5t-45.5 95.5q5 42 34.5 71.5
t77.5 46.5q-20 18 -15 49q3 19 16.5 35t33.5 26q-45 42 -33 123q12 72 66 117t138 45q18 0 38.5 -3t37.5 -9h154q7 0 5 -6zM334 429q-76 0 -124 -36t-59 -103q-6 -37 1.5 -63.5t25.5 -42.5t45 -23.5t60 -7.5q64 0 111 35.5t58 101.5q11 63 -21 101t-97 38zM141 44
q-38 -11 -68 -37t-35 -68q-7 -57 43.5 -82t145.5 -25q51 0 90 9t66.5 23.5t43 34t18.5 40.5q5 32 -18 48t-83 24l-166 23q-11 2 -20 4.5t-17 5.5zM243 657q0 3 4 3h12q2 0 2 -3q-3 -21 -1.5 -40.5t11.5 -35.5t29.5 -25.5t52.5 -9.5t56.5 11t39 27.5t23.5 36t10 36.5q0 3 4 3
h14q2 0 2 -3q-4 -23 -14 -46t-28 -41t-44.5 -29t-64.5 -11q-36 0 -58.5 11t-34.5 29t-15 41t0 46z" />
    <glyph glyph-name="Gdotaccent" unicode="&#x120;" horiz-adv-x="819" 
d="M473 315q-6 0 -5 6l2 12q0 6 7 6h316q7 0 6.5 -7.5t-2.5 -19.5q-14 -77 -47.5 -137t-82.5 -101.5t-111 -63.5t-132 -22q-78 0 -138 27t-98.5 75.5t-52.5 115.5t-1 146q13 78 48 144t88 114t121.5 75t147.5 27q83 0 147.5 -30t103.5 -91q2 -5 -3 -9l-12 -8q-5 -2 -9 2
q-35 56 -92.5 83.5t-133.5 27.5q-74 0 -138 -25t-113.5 -69.5t-82 -106t-44.5 -134.5q-12 -75 0 -137t46 -107t89.5 -70t128.5 -25q69 0 127 22t103 62t75 95.5t41 122.5h-299zM558 830q9 0 15 -6t4 -15t-8 -15t-15 -6t-15 6t-4 15t8 15t15 6z" />
    <glyph glyph-name="gdotaccent" unicode="&#x121;" horiz-adv-x="500" 
d="M563 423q-1 -6 -7 -6l-121 -1q57 -45 44 -129q-6 -36 -24 -65t-44.5 -49.5t-60 -31.5t-71.5 -11q-67 0 -107 26q-32 -15 -37 -45q-4 -19 6 -33t45 -19l162 -23q136 -19 123 -96q-11 -64 -77.5 -97.5t-171.5 -33.5q-112 0 -165.5 34.5t-45.5 95.5q5 42 34.5 71.5
t77.5 46.5q-20 18 -15 49q3 19 16.5 35t33.5 26q-45 42 -33 123q12 72 66 117t138 45q18 0 38.5 -3t37.5 -9h154q7 0 5 -6zM334 429q-76 0 -124 -36t-59 -103q-6 -37 1.5 -63.5t25.5 -42.5t45 -23.5t60 -7.5q64 0 111 35.5t58 101.5q11 63 -21 101t-97 38zM141 44
q-38 -11 -68 -37t-35 -68q-7 -57 43.5 -82t145.5 -25q51 0 90 9t66.5 23.5t43 34t18.5 40.5q5 32 -18 48t-83 24l-166 23q-11 2 -20 4.5t-17 5.5zM362 601q9 0 15 -6t4 -15t-8 -15t-15 -6t-15 6t-4 15t8 15t15 6z" />
    <glyph glyph-name="uni0122" unicode="&#x122;" horiz-adv-x="819" 
d="M473 315q-6 0 -5 6l2 12q0 6 7 6h316q7 0 6.5 -7.5t-2.5 -19.5q-14 -77 -47.5 -137t-82.5 -101.5t-111 -63.5t-132 -22q-78 0 -138 27t-98.5 75.5t-52.5 115.5t-1 146q13 78 48 144t88 114t121.5 75t147.5 27q83 0 147.5 -30t103.5 -91q2 -5 -3 -9l-12 -8q-5 -2 -9 2
q-35 56 -92.5 83.5t-133.5 27.5q-74 0 -138 -25t-113.5 -69.5t-82 -106t-44.5 -134.5q-12 -75 0 -137t46 -107t89.5 -70t128.5 -25q69 0 127 22t103 62t75 95.5t41 122.5h-299zM413 -40q11 0 17.5 -8t4.5 -23q-3 -28 -16 -56t-37 -52q-2 -2 -4 0l-8 6q-3 2 0 5
q20 20 29.5 42t10.5 38q-14 -2 -20.5 6t-4.5 19q2 12 9.5 17.5t18.5 5.5z" />
    <glyph glyph-name="uni0123" unicode="&#x123;" horiz-adv-x="500" 
d="M563 423q-1 -6 -7 -6l-121 -1q57 -45 44 -129q-6 -36 -24 -65t-44.5 -49.5t-60 -31.5t-71.5 -11q-67 0 -107 26q-32 -15 -37 -45q-4 -19 6 -33t45 -19l162 -23q136 -19 123 -96q-11 -64 -77.5 -97.5t-171.5 -33.5q-112 0 -165.5 34.5t-45.5 95.5q5 42 34.5 71.5
t77.5 46.5q-20 18 -15 49q3 19 16.5 35t33.5 26q-45 42 -33 123q12 72 66 117t138 45q18 0 38.5 -3t37.5 -9h154q7 0 5 -6zM334 429q-76 0 -124 -36t-59 -103q-6 -37 1.5 -63.5t25.5 -42.5t45 -23.5t60 -7.5q64 0 111 35.5t58 101.5q11 63 -21 101t-97 38zM141 44
q-38 -11 -68 -37t-35 -68q-7 -57 43.5 -82t145.5 -25q51 0 90 9t66.5 23.5t43 34t18.5 40.5q5 32 -18 48t-83 24l-166 23q-11 2 -20 4.5t-17 5.5zM351 530q-25 0 -22 31q3 28 16.5 56.5t36.5 52.5q2 2 4 0l8 -7q3 -2 0 -5q-20 -20 -29.5 -42t-10.5 -38q14 2 20.5 -5.5
t4.5 -17.5q-2 -11 -9.5 -18t-18.5 -7z" />
    <glyph glyph-name="Hcircumflex" unicode="&#x124;" horiz-adv-x="695" 
d="M710 700q5 0 5 -6l-115 -688q-1 -6 -7 -6h-14q-6 0 -5 6l54 325h-450l-54 -325q-1 -6 -7 -6h-14q-6 0 -5 6l115 688q0 6 7 6h14q5 0 5 -6l-57 -339h450l57 339q0 6 7 6h14zM578 755q3 -5 -3 -5h-12q-3 0 -5 3l-71 112l-101 -114q-1 -1 -3 -1h-17q-5 0 -1 5l108 122
q3 3 9 3h12q5 0 7 -4z" />
    <glyph glyph-name="hcircumflex" unicode="&#x125;" horiz-adv-x="515" 
d="M207 740q7 0 5 -6l-68 -411q35 62 94 95.5t126 33.5q82 0 119.5 -46.5t23.5 -128.5l-45 -271q-1 -6 -7 -6h-14q-6 0 -5 6l45 270q13 75 -17.5 114t-103.5 39q-48 0 -87.5 -15.5t-69 -42.5t-48.5 -62.5t-26 -74.5l-38 -228q-1 -6 -7 -6h-14q-6 0 -5 6l121 728q2 6 7 6h14z
M311 775q3 -5 -3 -5h-12q-3 0 -5 3l-71 112l-101 -114q-1 -1 -3 -1h-17q-5 0 -1 5l108 122q3 3 9 3h12q5 0 7 -4z" />
    <glyph glyph-name="Hbar" unicode="&#x126;" horiz-adv-x="746" 
d="M132 533q-6 0 -5 6l1 10q2 6 7 6h79l24 139q0 6 7 6h15q5 0 5 -6l-24 -139h450l24 139q0 6 7 6h14q5 0 5 -6l-24 -139h79q7 0 5 -6l-1 -10q-1 -6 -7 -6h-79l-88 -527q-1 -6 -7 -6h-14q-6 0 -5 6l54 325h-450l-54 -325q-1 -6 -7 -6h-15q-6 0 -5 6l88 527h-79zM658 355
l30 178h-450l-30 -178h450z" />
    <glyph glyph-name="hbar" unicode="&#x127;" horiz-adv-x="530" 
d="M105 625q2 6 7 6h72l17 103q2 6 7 6h14q7 0 5 -6l-17 -103h171q7 0 5 -6l-2 -11q0 -6 -7 -6h-171l-47 -285q34 63 93.5 96t127.5 33q81 0 118.5 -46.5t23.5 -128.5l-45 -271q-1 -6 -7 -6h-13q-6 0 -5 6l45 270q13 75 -18.5 114t-104.5 39q-48 0 -87.5 -15.5t-69 -42.5
t-48.5 -62.5t-25 -74.5l-38 -228q-1 -6 -7 -6h-14q-6 0 -5 6l100 602h-72q-5 0 -5 6z" />
    <glyph glyph-name="Itilde" unicode="&#x128;" horiz-adv-x="239" 
d="M244 700q5 0 5 -6l-115 -688q-1 -6 -7 -6h-14q-6 0 -5 6l115 688q0 6 7 6h14zM394 881q3 0 3 -3q-10 -60 -29.5 -96.5t-54.5 -36.5q-25 0 -37.5 19t-21.5 42.5t-19 42.5t-30 19q-23 0 -42.5 -26.5t-28.5 -88.5q0 -3 -3 -3h-14q-3 0 -3 3q11 63 34.5 97.5t58.5 34.5
q25 0 37.5 -19t21.5 -42.5t19 -42.5t29 -19q23 0 38.5 28t24.5 88q0 3 4 3h13z" />
    <glyph glyph-name="itilde" unicode="&#x129;" horiz-adv-x="143" 
d="M152 440q7 0 5 -6l-71 -428q-1 -6 -7 -6h-14q-6 0 -5 6l71 428q2 6 7 6h14zM308 661q3 0 3 -3q-10 -60 -29.5 -96.5t-54.5 -36.5q-25 0 -37.5 19t-21.5 42.5t-19 42.5t-30 19q-23 0 -42.5 -26.5t-28.5 -88.5q0 -3 -3 -3h-14q-3 0 -3 3q11 63 34.5 97.5t58.5 34.5
q25 0 37.5 -19t21.5 -42.5t19 -42.5t29 -19q23 0 38.5 28t24.5 88q0 3 4 3h13z" />
    <glyph glyph-name="Imacron" unicode="&#x12a;" horiz-adv-x="239" 
d="M244 700q5 0 5 -6l-115 -688q-1 -6 -7 -6h-14q-6 0 -5 6l115 688q0 6 7 6h14zM374 805q0 -3 -3 -3h-234q-3 0 -3 3l1 10q0 3 3 3h235q3 0 3 -3z" />
    <glyph glyph-name="imacron" unicode="&#x12b;" horiz-adv-x="143" 
d="M152 440q7 0 5 -6l-71 -428q-1 -6 -7 -6h-14q-6 0 -5 6l71 428q2 6 7 6h14zM288 585q0 -3 -3 -3h-234q-3 0 -3 3l1 10q0 3 3 3h235q3 0 3 -3z" />
    <glyph glyph-name="Ibreve" unicode="&#x12c;" horiz-adv-x="239" 
d="M244 700q5 0 5 -6l-115 -688q-1 -6 -7 -6h-14q-6 0 -5 6l115 688q0 6 7 6h14zM137 877q0 3 4 3h12q2 0 2 -3q-3 -21 -1.5 -40.5t11.5 -35.5t29.5 -25.5t52.5 -9.5t56.5 11t39 27.5t23.5 36t10 36.5q0 3 4 3h14q2 0 2 -3q-4 -23 -14 -46t-28 -41t-44.5 -29t-64.5 -11
q-36 0 -58.5 11t-34.5 29t-15 41t0 46z" />
    <glyph glyph-name="ibreve" unicode="&#x12d;" horiz-adv-x="143" 
d="M152 440q7 0 5 -6l-71 -428q-1 -6 -7 -6h-14q-6 0 -5 6l71 428q2 6 7 6h14zM51 657q0 3 4 3h12q2 0 2 -3q-3 -21 -1.5 -40.5t11.5 -35.5t29.5 -25.5t52.5 -9.5t56.5 11t39 27.5t23.5 36t10 36.5q0 3 4 3h14q2 0 2 -3q-4 -23 -14 -46t-28 -41t-44.5 -29t-64.5 -11
q-36 0 -58.5 11t-34.5 29t-15 41t0 46z" />
    <glyph glyph-name="Iogonek" unicode="&#x12e;" horiz-adv-x="239" 
d="M244 700q5 0 5 -6l-115 -686q-1 -7 -8 -12q-49 -32 -75.5 -64.5t-32.5 -68.5q-5 -31 9.5 -48t43.5 -17q14 0 23 1.5t17 4.5q3 1 4 -2l3 -9q0 -4 -2 -4q-10 -5 -22.5 -7t-25.5 -2q-38 0 -57.5 20.5t-13.5 57.5q8 42 37.5 78.5t72.5 64.5l116 693q0 6 7 6h14z" />
    <glyph glyph-name="iogonek" unicode="&#x12f;" horiz-adv-x="136" 
d="M173 616q11 0 17 -7.5t4 -18.5t-10.5 -18t-19.5 -7t-17.5 7t-4.5 18t11 18.5t20 7.5zM150 440q7 0 5 -6l-72 -431q0 -4 -3 -5q-49 -31 -74.5 -64.5t-30.5 -68.5q-5 -30 8.5 -46.5t42.5 -16.5q23 0 37 5q7 2 7 -4l2 -8q0 -5 -6.5 -8t-15.5 -4.5t-17.5 -2t-11.5 -0.5
q-40 0 -59.5 21t-12.5 58q7 42 36.5 78.5t73.5 62.5l70 434q2 6 7 6h14z" />
    <glyph glyph-name="Idotaccent" unicode="&#x130;" horiz-adv-x="239" 
d="M244 700q5 0 5 -6l-115 -688q-1 -6 -7 -6h-14q-6 0 -5 6l115 688q0 6 7 6h14zM256 821q9 0 15 -6t4 -15t-8 -15t-15 -6t-15 6t-4 15t8 15t15 6z" />
    <glyph glyph-name="dotlessi" unicode="&#x131;" horiz-adv-x="143" 
d="M152 440q7 0 5 -6l-71 -428q-1 -6 -7 -6h-14q-6 0 -5 6l71 428q2 6 7 6h14z" />
    <glyph glyph-name="IJ" unicode="&#x132;" horiz-adv-x="456" 
d="M234 700q7 0 5 -6l-98 -588q-1 -6 -7 -6h-14q-6 0 -5 6l98 588q2 6 7 6h14zM469 700q7 0 5 -6l-116 -700q-14 -86 -49.5 -130t-108.5 -44q-70 0 -93.5 42.5t-11.5 123.5q2 6 7 6h14q7 0 5 -6q-5 -32 -4.5 -58.5t9.5 -45t27.5 -28.5t50.5 -10q33 0 55 10.5t36 30t22 47
t14 61.5l117 701q2 6 7 6h14z" />
    <glyph glyph-name="ij" unicode="&#x133;" horiz-adv-x="283" 
d="M152 440q7 0 5 -6l-71 -428q-1 -6 -7 -6h-14q-6 0 -5 6l71 428q2 6 7 6h14zM170 601q9 0 15 -6t4 -15t-8 -15t-15 -6t-15 6t-4 15t8 15t15 6zM291 440q7 0 5 -6l-81 -487q-10 -59 -44 -97t-91 -40q-5 0 -5 6l2 13q1 6 7 6q44 2 70.5 31.5t34.5 77.5l81 490q2 6 7 6h14z
M309 601q9 0 15 -6t4 -15t-8 -15t-15 -6t-15 6t-4 15t8 15t15 6z" />
    <glyph glyph-name="Jcircumflex" unicode="&#x134;" horiz-adv-x="218" 
d="M232 700q5 0 5 -6l-117 -700q-14 -84 -57 -128t-121 -46q-7 0 -5 6l2 12q1 6 7 6q35 0 60.5 11t43 31t28 47.5t16.5 60.5l117 700q0 6 7 6h14zM337 755q3 -5 -3 -5h-12q-3 0 -5 3l-71 112l-101 -114q-1 -1 -3 -1h-17q-5 0 -1 5l108 122q3 3 9 3h12q5 0 7 -4z" />
    <glyph glyph-name="jcircumflex" unicode="&#x135;" horiz-adv-x="140" 
d="M148 440q7 0 5 -6l-81 -487q-10 -59 -44 -97t-91 -40q-5 0 -5 6l2 13q1 6 7 6q44 2 70.5 31.5t34.5 77.5l81 490q2 6 7 6h14zM264 535q3 -5 -3 -5h-12q-3 0 -5 3l-71 112l-101 -114q-1 -1 -3 -1h-17q-5 0 -1 5l108 122q3 3 9 3h12q5 0 7 -4z" />
    <glyph glyph-name="uni0136" unicode="&#x136;" horiz-adv-x="583" 
d="M213 694q0 6 7 6h14q5 0 5 -6l-55 -326l436 331q1 1 4 1h21q16 0 2 -11l-433 -327l331 -352q8 -10 -7 -10h-17q-2 0 -4 2l-334 356l-59 -352q-1 -6 -7 -6h-14q-6 0 -5 6zM303 -40q11 0 17.5 -8t4.5 -23q-3 -28 -16 -56t-37 -52q-2 -2 -4 0l-8 6q-3 2 0 5q20 20 29.5 42
t10.5 38q-14 -2 -20.5 6t-4.5 19q2 12 9.5 17.5t18.5 5.5z" />
    <glyph glyph-name="uni0137" unicode="&#x137;" horiz-adv-x="419" 
d="M186 734q2 6 7 6h14q7 0 5 -6l-83 -499l293 202q4 3 10 3h19q5 0 6.5 -3t-5.5 -8l-295 -202l236 -218q3 -3 1.5 -6t-6.5 -3h-17q-6 0 -10 4l-234 218l-36 -216q-1 -6 -7 -6h-14q-6 0 -5 6zM228 -40q11 0 17.5 -8t4.5 -23q-3 -28 -16 -56t-37 -52q-2 -2 -4 0l-8 6
q-3 2 0 5q20 20 29.5 42t10.5 38q-14 -2 -20.5 6t-4.5 19q2 12 9.5 17.5t18.5 5.5z" />
    <glyph glyph-name="kgreenlandic" unicode="&#x138;" horiz-adv-x="418" 
d="M131 434q2 6 7 6h14q7 0 5 -6l-33 -199l293 202q4 3 10 3h19q5 0 6.5 -3t-5.5 -8l-295 -202l236 -218q3 -3 1.5 -6t-6.5 -3h-17q-6 0 -10 4l-234 218l-36 -216q-1 -6 -7 -6h-14q-6 0 -5 6z" />
    <glyph glyph-name="Lacute" unicode="&#x139;" horiz-adv-x="566" 
d="M234 700q5 0 5 -6l-112 -670h371q7 0 5 -6l-2 -12q-1 -6 -7 -6h-391q-6 0 -5 6l115 688q0 6 7 6h14zM319 877q2 3 6 3h18q5 0 1 -5l-95 -121q-3 -4 -7 -4h-12q-2 0 -3 1t1 4z" />
    <glyph glyph-name="lacute" unicode="&#x13a;" horiz-adv-x="153" 
d="M91 6q-1 -6 -7 -6h-14q-6 0 -5 6l121 728q2 6 7 6h14q7 0 5 -6zM290 897q2 3 6 3h18q5 0 1 -5l-95 -121q-3 -4 -7 -4h-12q-2 0 -3 1t1 4z" />
    <glyph glyph-name="uni013B" unicode="&#x13b;" horiz-adv-x="566" 
d="M234 700q5 0 5 -6l-112 -670h371q7 0 5 -6l-2 -12q-1 -6 -7 -6h-391q-6 0 -5 6l115 688q0 6 7 6h14zM282 -40q11 0 17.5 -8t4.5 -23q-3 -28 -16 -56t-37 -52q-2 -2 -4 0l-8 6q-3 2 0 5q20 20 29.5 42t10.5 38q-14 -2 -20.5 6t-4.5 19q2 12 9.5 17.5t18.5 5.5z" />
    <glyph glyph-name="uni013C" unicode="&#x13c;" horiz-adv-x="153" 
d="M91 6q-1 -6 -7 -6h-14q-6 0 -5 6l121 728q2 6 7 6h14q7 0 5 -6zM68 -40q11 0 17.5 -8t4.5 -23q-3 -28 -16 -56t-37 -52q-2 -2 -4 0l-8 6q-3 2 0 5q20 20 29.5 42t10.5 38q-14 -2 -20.5 6t-4.5 19q2 12 9.5 17.5t18.5 5.5z" />
    <glyph glyph-name="Lcaron" unicode="&#x13d;" horiz-adv-x="566" 
d="M234 700q5 0 5 -6l-112 -670h371q7 0 5 -6l-2 -12q-1 -6 -7 -6h-391q-6 0 -5 6l115 688q0 6 7 6h14zM483 712q11 0 18.5 -8.5t5.5 -24.5q-6 -58 -54 -106q-2 -2 -4 0l-8 6q-2 3 0 5q20 20 29.5 42t11.5 38q-15 -2 -21.5 7t-4.5 19q2 11 9.5 16.5t17.5 5.5z" />
    <glyph glyph-name="lcaron" unicode="&#x13e;" horiz-adv-x="153" 
d="M91 6q-1 -6 -7 -6h-14q-6 0 -5 6l121 728q2 6 7 6h14q7 0 5 -6zM312 752q11 0 18.5 -8.5t5.5 -24.5q-6 -58 -54 -106q-2 -2 -4 0l-8 6q-2 3 0 5q20 20 29.5 42t11.5 38q-15 -2 -21.5 7t-4.5 19q2 11 9.5 16.5t17.5 5.5z" />
    <glyph glyph-name="Ldot" unicode="&#x13f;" horiz-adv-x="566" 
d="M234 700q5 0 5 -6l-112 -670h371q7 0 5 -6l-2 -12q-1 -6 -7 -6h-391q-6 0 -5 6l115 688q0 6 7 6h14zM466 419q13 0 20 -8t5 -21q-2 -14 -12 -21.5t-23 -7.5q-12 0 -19 7.5t-5 21.5q2 13 12 21t22 8z" />
    <glyph glyph-name="ldot" unicode="&#x140;" horiz-adv-x="365" 
d="M91 6q-1 -6 -7 -6h-14q-6 0 -5 6l121 728q2 6 7 6h14q7 0 5 -6zM274 399q13 0 20 -8t5 -21q-2 -14 -12 -21.5t-23 -7.5q-12 0 -19 7.5t-5 21.5q2 13 12 21t22 8z" />
    <glyph glyph-name="Lslash" unicode="&#x141;" horiz-adv-x="599" 
d="M95 269q-6 -2 -8 3l-2 9q-3 6 4 8l95 40l61 365q0 6 7 6h14q5 0 5 -6l-59 -353l227 94q8 3 8 -2l2 -10q2 -4 -5 -8l-236 -98l-49 -293h371q7 0 5 -6l-2 -12q-1 -6 -7 -6h-391q-6 0 -5 6l50 299z" />
    <glyph glyph-name="lslash" unicode="&#x142;" horiz-adv-x="170" 
d="M25 282q-6 -4 -9 2l-3 9q-1 4 4 8l118 66l61 367q2 6 7 6h14q7 0 5 -6l-58 -351l107 60q5 4 7 -3l3 -8q2 -5 -3 -8l-119 -67l-58 -351q-1 -6 -7 -6h-14q-6 0 -5 6l56 336z" />
    <glyph glyph-name="Nacute" unicode="&#x143;" horiz-adv-x="706" 
d="M721 700q5 0 5 -6l-116 -693q0 -6 -7 -6h-3q-3 0 -6 5l-363 649l-107 -643q-1 -6 -7 -6h-14q-6 0 -5 6l116 693q0 6 7 6h3q4 0 5 -3l364 -651l107 643q0 6 7 6h14zM564 877q2 3 6 3h18q5 0 1 -5l-95 -121q-3 -4 -7 -4h-12q-2 0 -3 1t1 4z" />
    <glyph glyph-name="nacute" unicode="&#x144;" horiz-adv-x="510" 
d="M143 440q7 0 5 -6l-12 -115q34 64 93.5 98.5t128.5 34.5q83 0 120.5 -46.5t23.5 -128.5l-45 -271q-1 -6 -7 -6h-14q-6 0 -5 6l45 270q12 72 -18 112.5t-105 40.5q-48 0 -87 -15.5t-68.5 -42.5t-48 -62.5t-25.5 -74.5l-38 -228q-1 -6 -7 -6h-14q-6 0 -5 6l71 428q2 6 7 6
h5zM433 657q2 3 6 3h18q5 0 1 -5l-95 -121q-3 -4 -7 -4h-12q-2 0 -3 1t1 4z" />
    <glyph glyph-name="uni0145" unicode="&#x145;" horiz-adv-x="706" 
d="M721 700q5 0 5 -6l-116 -693q0 -6 -7 -6h-3q-3 0 -6 5l-363 649l-107 -643q-1 -6 -7 -6h-14q-6 0 -5 6l116 693q0 6 7 6h3q4 0 5 -3l364 -651l107 643q0 6 7 6h14zM346 -40q11 0 17.5 -8t4.5 -23q-3 -28 -16 -56t-37 -52q-2 -2 -4 0l-8 6q-3 2 0 5q20 20 29.5 42t10.5 38
q-14 -2 -20.5 6t-4.5 19q2 12 9.5 17.5t18.5 5.5z" />
    <glyph glyph-name="uni0146" unicode="&#x146;" horiz-adv-x="510" 
d="M143 440q7 0 5 -6l-12 -115q34 64 93.5 98.5t128.5 34.5q83 0 120.5 -46.5t23.5 -128.5l-45 -271q-1 -6 -7 -6h-14q-6 0 -5 6l45 270q12 72 -18 112.5t-105 40.5q-48 0 -87 -15.5t-68.5 -42.5t-48 -62.5t-25.5 -74.5l-38 -228q-1 -6 -7 -6h-14q-6 0 -5 6l71 428q2 6 7 6
h5zM253 -40q11 0 17.5 -8t4.5 -23q-3 -28 -16 -56t-37 -52q-2 -2 -4 0l-8 6q-3 2 0 5q20 20 29.5 42t10.5 38q-14 -2 -20.5 6t-4.5 19q2 12 9.5 17.5t18.5 5.5z" />
    <glyph glyph-name="Ncaron" unicode="&#x147;" horiz-adv-x="706" 
d="M721 700q5 0 5 -6l-116 -693q0 -6 -7 -6h-3q-3 0 -6 5l-363 649l-107 -643q-1 -6 -7 -6h-14q-6 0 -5 6l116 693q0 6 7 6h3q4 0 5 -3l364 -651l107 643q0 6 7 6h14zM390 875q-3 5 3 5h12q4 0 5 -3l71 -112l101 114q1 1 3 1h17q5 0 1 -5l-108 -122q-3 -3 -9 -3h-12
q-5 0 -7 4z" />
    <glyph glyph-name="ncaron" unicode="&#x148;" horiz-adv-x="510" 
d="M143 440q7 0 5 -6l-12 -115q34 64 93.5 98.5t128.5 34.5q83 0 120.5 -46.5t23.5 -128.5l-45 -271q-1 -6 -7 -6h-14q-6 0 -5 6l45 270q12 72 -18 112.5t-105 40.5q-48 0 -87 -15.5t-68.5 -42.5t-48 -62.5t-25.5 -74.5l-38 -228q-1 -6 -7 -6h-14q-6 0 -5 6l71 428q2 6 7 6
h5zM259 655q-3 5 3 5h12q4 0 5 -3l71 -112l101 114q1 1 3 1h17q5 0 1 -5l-108 -122q-3 -3 -9 -3h-12q-5 0 -7 4z" />
    <glyph glyph-name="napostrophe" unicode="&#x149;" horiz-adv-x="510" 
d="M143 440q7 0 5 -6l-12 -115q34 64 93.5 98.5t128.5 34.5q83 0 120.5 -46.5t23.5 -128.5l-45 -271q-1 -6 -7 -6h-14q-6 0 -5 6l45 270q12 72 -18 112.5t-105 40.5q-48 0 -87 -15.5t-68.5 -42.5t-48 -62.5t-25.5 -74.5l-38 -228q-1 -6 -7 -6h-14q-6 0 -5 6l71 428q2 6 7 6
h5zM151 692q11 0 18.5 -8.5t5.5 -24.5q-6 -58 -54 -106q-2 -2 -4 0l-8 6q-2 3 0 5q20 20 29.5 42t11.5 38q-15 -2 -21.5 7t-4.5 19q2 11 9.5 16.5t17.5 5.5z" />
    <glyph glyph-name="Eng" unicode="&#x14a;" horiz-adv-x="717" 
d="M732 700q5 0 5 -6l-125 -747q-11 -66 -47.5 -101t-99.5 -37q-5 0 -5 6l2 13q2 6 7 6q99 3 117 110l11 69l-367 640l-106 -647q-1 -6 -7 -6h-14q-6 0 -5 6l115 693q2 6 7 6h3q5 0 7 -5l375 -652l106 646q0 6 7 6h14z" />
    <glyph glyph-name="eng" unicode="&#x14b;" horiz-adv-x="513" 
d="M131 434q2 6 7 6h5q7 0 5 -6l-12 -116q34 64 94.5 99t130.5 35q83 0 120 -46t23 -129l-55 -331q-10 -60 -43 -97t-90 -39q-5 0 -5 6l3 13q0 6 7 6q42 2 67.5 30.5t33.5 76.5l56 334q12 72 -18.5 112t-107.5 40q-48 0 -87 -15.5t-68 -42t-48 -62t-25 -74.5l-38 -228
q-1 -6 -7 -6h-14q-6 0 -5 6z" />
    <glyph glyph-name="Omacron" unicode="&#x14c;" horiz-adv-x="851" 
d="M544 712q75 0 135 -28t99 -76.5t54.5 -114.5t2.5 -143q-13 -76 -50 -142.5t-92 -115t-123.5 -76.5t-143.5 -28t-135 28t-99.5 76.5t-55.5 115t-3 142.5q13 77 50 143t92 114.5t124 76.5t145 28zM543 688q-70 0 -134 -26t-115 -71.5t-86 -107.5t-47 -133t1 -133
t47.5 -107.5t89.5 -71.5t127 -26q71 0 134.5 26t114.5 71.5t85.5 107.5t46.5 133t-1.5 133t-48 107.5t-89 71.5t-125.5 26zM682 815q0 -3 -3 -3h-234q-3 0 -3 3l1 10q0 3 3 3h235q3 0 3 -3z" />
    <glyph glyph-name="omacron" unicode="&#x14d;" horiz-adv-x="547" 
d="M349 452q49 0 87 -18t62.5 -49.5t34 -73.5t1.5 -91t-30.5 -91t-57 -73.5t-78.5 -49.5t-96 -18q-49 0 -87 18t-62.5 49.5t-33.5 73.5t-1 91t30.5 91t57 73.5t78.5 49.5t95 18zM349 429q-46 0 -85.5 -16t-70 -44.5t-50.5 -66.5t-27 -82t-1 -82t26.5 -66.5t54 -44.5
t80.5 -16q44 0 83 16t69 44.5t50.5 66.5t27.5 82t0.5 82t-26.5 66.5t-53 44.5t-78 16zM492 585q0 -3 -3 -3h-234q-3 0 -3 3l1 10q0 3 3 3h235q3 0 3 -3z" />
    <glyph glyph-name="Obreve" unicode="&#x14e;" horiz-adv-x="851" 
d="M544 712q75 0 135 -28t99 -76.5t54.5 -114.5t2.5 -143q-13 -76 -50 -142.5t-92 -115t-123.5 -76.5t-143.5 -28t-135 28t-99.5 76.5t-55.5 115t-3 142.5q13 77 50 143t92 114.5t124 76.5t145 28zM543 688q-70 0 -134 -26t-115 -71.5t-86 -107.5t-47 -133t1 -133
t47.5 -107.5t89.5 -71.5t127 -26q71 0 134.5 26t114.5 71.5t85.5 107.5t46.5 133t-1.5 133t-48 107.5t-89 71.5t-125.5 26zM445 887q0 3 4 3h12q2 0 2 -3q-3 -21 -1.5 -40.5t11.5 -35.5t29.5 -25.5t52.5 -9.5t56.5 11t39 27.5t23.5 36t10 36.5q0 3 4 3h14q2 0 2 -3
q-4 -23 -14 -46t-28 -41t-44.5 -29t-64.5 -11q-36 0 -58.5 11t-34.5 29t-15 41t0 46z" />
    <glyph glyph-name="obreve" unicode="&#x14f;" horiz-adv-x="547" 
d="M349 452q49 0 87 -18t62.5 -49.5t34 -73.5t1.5 -91t-30.5 -91t-57 -73.5t-78.5 -49.5t-96 -18q-49 0 -87 18t-62.5 49.5t-33.5 73.5t-1 91t30.5 91t57 73.5t78.5 49.5t95 18zM349 429q-46 0 -85.5 -16t-70 -44.5t-50.5 -66.5t-27 -82t-1 -82t26.5 -66.5t54 -44.5
t80.5 -16q44 0 83 16t69 44.5t50.5 66.5t27.5 82t0.5 82t-26.5 66.5t-53 44.5t-78 16zM255 657q0 3 4 3h12q2 0 2 -3q-3 -21 -1.5 -40.5t11.5 -35.5t29.5 -25.5t52.5 -9.5t56.5 11t39 27.5t23.5 36t10 36.5q0 3 4 3h14q2 0 2 -3q-4 -23 -14 -46t-28 -41t-44.5 -29t-64.5 -11
q-36 0 -58.5 11t-34.5 29t-15 41t0 46z" />
    <glyph glyph-name="Ohungarumlaut" unicode="&#x150;" horiz-adv-x="851" 
d="M544 712q75 0 135 -28t99 -76.5t54.5 -114.5t2.5 -143q-13 -76 -50 -142.5t-92 -115t-123.5 -76.5t-143.5 -28t-135 28t-99.5 76.5t-55.5 115t-3 142.5q13 77 50 143t92 114.5t124 76.5t145 28zM543 688q-70 0 -134 -26t-115 -71.5t-86 -107.5t-47 -133t1 -133
t47.5 -107.5t89.5 -71.5t127 -26q71 0 134.5 26t114.5 71.5t85.5 107.5t46.5 133t-1.5 133t-48 107.5t-89 71.5t-125.5 26zM565 887q2 3 5 3h14q5 0 2 -4l-87 -124q-1 -2 -4 -2h-9q-5 0 -2 4zM714 887q2 3 5 3h14q5 0 2 -4l-96 -123q-2 -3 -5 -3h-9q-4 0 -1 4z" />
    <glyph glyph-name="ohungarumlaut" unicode="&#x151;" horiz-adv-x="547" 
d="M349 452q49 0 87 -18t62.5 -49.5t34 -73.5t1.5 -91t-30.5 -91t-57 -73.5t-78.5 -49.5t-96 -18q-49 0 -87 18t-62.5 49.5t-33.5 73.5t-1 91t30.5 91t57 73.5t78.5 49.5t95 18zM349 429q-46 0 -85.5 -16t-70 -44.5t-50.5 -66.5t-27 -82t-1 -82t26.5 -66.5t54 -44.5
t80.5 -16q44 0 83 16t69 44.5t50.5 66.5t27.5 82t0.5 82t-26.5 66.5t-53 44.5t-78 16zM375 657q2 3 5 3h14q5 0 2 -4l-87 -124q-1 -2 -4 -2h-9q-5 0 -2 4zM524 657q2 3 5 3h14q5 0 2 -4l-96 -123q-2 -3 -5 -3h-9q-4 0 -1 4z" />
    <glyph glyph-name="OE" unicode="&#x152;" horiz-adv-x="1022" 
d="M1051 700q5 0 5 -6l-2 -12q-1 -6 -7 -6h-366l-51 -306h328q5 0 5 -6l-2 -12q-1 -6 -7 -6h-328l-54 -322h371q7 0 5 -6l-2 -12q-1 -6 -7 -6h-515q-78 0 -138 26t-98.5 72.5t-53 111t-1.5 140.5q13 77 49 141t89.5 110.5t122.5 72.5t147 26h510zM541 676q-76 0 -140 -24
t-113.5 -67.5t-82 -103.5t-44.5 -131t1 -131t47.5 -103.5t91 -67.5t131.5 -24h115l109 652h-115z" />
    <glyph glyph-name="oe" unicode="&#x153;" horiz-adv-x="947" 
d="M347 452q39 0 72 -12.5t56.5 -35.5t37.5 -55.5t15 -71.5q14 39 38.5 71t56.5 55.5t70 36t78 12.5q47 0 82.5 -16t57.5 -45t29.5 -69.5t-0.5 -89.5q-2 -15 -6 -20t-12 -5h-390q-6 -42 3.5 -77.5t31.5 -62t55 -41.5t74 -15q52 0 94.5 25.5t74.5 64.5q3 5 8 2l11 -10
q5 -4 1 -8q-35 -43 -83.5 -70t-107.5 -27q-82 0 -132.5 47.5t-52.5 128.5q-15 -40 -39 -72.5t-55.5 -55.5t-68.5 -35.5t-76 -12.5q-49 0 -86.5 18t-62 49.5t-33.5 74t-1 90.5q8 50 32 92t58.5 73.5t78 49t91.5 17.5zM916 229q17 93 -22.5 147t-127.5 54q-42 0 -80 -15
t-68.5 -42t-52 -63.5t-29.5 -80.5h380zM343 429q-42 0 -80 -15.5t-68.5 -43.5t-51 -66.5t-28.5 -83.5q-7 -44 0.5 -82t28 -66.5t54 -44.5t76.5 -16q42 0 80.5 16t69.5 43.5t52.5 66t28.5 83.5q8 45 -1 83.5t-30.5 66t-55 43.5t-75.5 16z" />
    <glyph glyph-name="Racute" unicode="&#x154;" horiz-adv-x="614" 
d="M124 6q-1 -6 -7 -6h-14q-6 0 -5 6l115 688q0 6 7 6h205q109 0 160.5 -54t35.5 -148q-9 -52 -28.5 -90.5t-51.5 -64.5t-77.5 -41t-105.5 -20l171 -272q7 -10 -6 -10h-17q-3 0 -4 2l-170 276h-163zM173 302h130q84 0 137.5 16t85 43t46.5 63t22 77q14 85 -30.5 130
t-148.5 45h-179zM529 877q2 3 6 3h18q5 0 1 -5l-95 -121q-3 -4 -7 -4h-12q-2 0 -3 1t1 4z" />
    <glyph glyph-name="racute" unicode="&#x155;" horiz-adv-x="315" 
d="M131 434q2 6 7 6h5q7 0 5 -6l-12 -118q32 63 88.5 98t131.5 37q7 0 5 -6l-2 -16q-2 -6 -7 -6q-51 1 -91 -15t-68.5 -43.5t-46 -64t-24.5 -76.5l-36 -218q-1 -6 -7 -6h-14q-6 0 -5 6zM348 657q2 3 6 3h18q5 0 1 -5l-95 -121q-3 -4 -7 -4h-12q-2 0 -3 1t1 4z" />
    <glyph glyph-name="uni0156" unicode="&#x156;" horiz-adv-x="614" 
d="M124 6q-1 -6 -7 -6h-14q-6 0 -5 6l115 688q0 6 7 6h205q109 0 160.5 -54t35.5 -148q-9 -52 -28.5 -90.5t-51.5 -64.5t-77.5 -41t-105.5 -20l171 -272q7 -10 -6 -10h-17q-3 0 -4 2l-170 276h-163zM173 302h130q84 0 137.5 16t85 43t46.5 63t22 77q14 85 -30.5 130
t-148.5 45h-179zM311 -40q11 0 17.5 -8t4.5 -23q-3 -28 -16 -56t-37 -52q-2 -2 -4 0l-8 6q-3 2 0 5q20 20 29.5 42t10.5 38q-14 -2 -20.5 6t-4.5 19q2 12 9.5 17.5t18.5 5.5z" />
    <glyph glyph-name="uni0157" unicode="&#x157;" horiz-adv-x="315" 
d="M131 434q2 6 7 6h5q7 0 5 -6l-12 -118q32 63 88.5 98t131.5 37q7 0 5 -6l-2 -16q-2 -6 -7 -6q-51 1 -91 -15t-68.5 -43.5t-46 -64t-24.5 -76.5l-36 -218q-1 -6 -7 -6h-14q-6 0 -5 6zM61 -40q11 0 17.5 -8t4.5 -23q-3 -28 -16 -56t-37 -52q-2 -2 -4 0l-8 6q-3 2 0 5
q20 20 29.5 42t10.5 38q-14 -2 -20.5 6t-4.5 19q2 12 9.5 17.5t18.5 5.5z" />
    <glyph glyph-name="Rcaron" unicode="&#x158;" horiz-adv-x="614" 
d="M124 6q-1 -6 -7 -6h-14q-6 0 -5 6l115 688q0 6 7 6h205q109 0 160.5 -54t35.5 -148q-9 -52 -28.5 -90.5t-51.5 -64.5t-77.5 -41t-105.5 -20l171 -272q7 -10 -6 -10h-17q-3 0 -4 2l-170 276h-163zM173 302h130q84 0 137.5 16t85 43t46.5 63t22 77q14 85 -30.5 130
t-148.5 45h-179zM355 875q-3 5 3 5h12q4 0 5 -3l71 -112l101 114q1 1 3 1h17q5 0 1 -5l-108 -122q-3 -3 -9 -3h-12q-5 0 -7 4z" />
    <glyph glyph-name="rcaron" unicode="&#x159;" horiz-adv-x="315" 
d="M131 434q2 6 7 6h5q7 0 5 -6l-12 -118q32 63 88.5 98t131.5 37q7 0 5 -6l-2 -16q-2 -6 -7 -6q-51 1 -91 -15t-68.5 -43.5t-46 -64t-24.5 -76.5l-36 -218q-1 -6 -7 -6h-14q-6 0 -5 6zM174 655q-3 5 3 5h12q4 0 5 -3l71 -112l101 114q1 1 3 1h17q5 0 1 -5l-108 -122
q-3 -3 -9 -3h-12q-5 0 -7 4z" />
    <glyph glyph-name="Sacute" unicode="&#x15a;" horiz-adv-x="580" 
d="M568 603q-6 -3 -9 1q-26 44 -71 64t-108 20q-82 0 -135 -38.5t-64 -104.5q-5 -31 0 -57t24 -48t55 -39.5t92 -32.5q60 -16 99.5 -35.5t61.5 -44t28.5 -54.5t0.5 -67q-14 -84 -77.5 -131.5t-165.5 -47.5q-81 0 -139.5 32.5t-87.5 89.5q-2 5 3 8l12 7q5 3 9 -2
q23 -49 73 -80t128 -31q96 0 150.5 42.5t66.5 114.5q6 33 0.5 59.5t-25.5 48t-57.5 39t-95.5 31.5q-57 14 -95 34t-59.5 45.5t-28 56t-0.5 65.5q6 37 25.5 67t49.5 51.5t69.5 33.5t86.5 12q68 0 117.5 -22.5t79.5 -69.5q4 -3 -2 -9zM478 887q2 3 6 3h18q5 0 1 -5l-95 -121
q-3 -4 -7 -4h-12q-2 0 -3 1t1 4z" />
    <glyph glyph-name="sacute" unicode="&#x15b;" horiz-adv-x="447" 
d="M437 379q-3 -5 -9 -1q-23 24 -63.5 37.5t-80.5 13.5q-58 0 -100 -19t-50 -63q-3 -20 0.5 -37t19 -31t45 -24.5t77.5 -18.5q47 -7 77.5 -20t47 -30.5t21 -38.5t0.5 -45q-4 -28 -20 -49.5t-41 -35.5t-57 -21.5t-68 -7.5q-63 0 -108.5 17.5t-73.5 41.5q-4 3 -1 8l8 10
q3 5 9 1q23 -21 66 -38t105 -17q61 0 103.5 23.5t50.5 68.5q3 19 1.5 36t-15 31t-42.5 25.5t-80 19.5q-48 8 -79.5 20.5t-49 29.5t-22.5 37.5t-1 43.5q8 51 56.5 78.5t120.5 27.5q22 0 45 -3.5t45 -11t41 -17.5t32 -24q4 -3 -1 -8zM397 657q2 3 6 3h18q5 0 1 -5l-95 -121
q-3 -4 -7 -4h-12q-2 0 -3 1t1 4z" />
    <glyph glyph-name="Scircumflex" unicode="&#x15c;" horiz-adv-x="580" 
d="M568 603q-6 -3 -9 1q-26 44 -71 64t-108 20q-82 0 -135 -38.5t-64 -104.5q-5 -31 0 -57t24 -48t55 -39.5t92 -32.5q60 -16 99.5 -35.5t61.5 -44t28.5 -54.5t0.5 -67q-14 -84 -77.5 -131.5t-165.5 -47.5q-81 0 -139.5 32.5t-87.5 89.5q-2 5 3 8l12 7q5 3 9 -2
q23 -49 73 -80t128 -31q96 0 150.5 42.5t66.5 114.5q6 33 0.5 59.5t-25.5 48t-57.5 39t-95.5 31.5q-57 14 -95 34t-59.5 45.5t-28 56t-0.5 65.5q6 37 25.5 67t49.5 51.5t69.5 33.5t86.5 12q68 0 117.5 -22.5t79.5 -69.5q4 -3 -2 -9zM501 765q3 -5 -3 -5h-12q-3 0 -5 3
l-71 112l-101 -114q-1 -1 -3 -1h-17q-5 0 -1 5l108 122q3 3 9 3h12q5 0 7 -4z" />
    <glyph glyph-name="scircumflex" unicode="&#x15d;" horiz-adv-x="447" 
d="M437 379q-3 -5 -9 -1q-23 24 -63.5 37.5t-80.5 13.5q-58 0 -100 -19t-50 -63q-3 -20 0.5 -37t19 -31t45 -24.5t77.5 -18.5q47 -7 77.5 -20t47 -30.5t21 -38.5t0.5 -45q-4 -28 -20 -49.5t-41 -35.5t-57 -21.5t-68 -7.5q-63 0 -108.5 17.5t-73.5 41.5q-4 3 -1 8l8 10
q3 5 9 1q23 -21 66 -38t105 -17q61 0 103.5 23.5t50.5 68.5q3 19 1.5 36t-15 31t-42.5 25.5t-80 19.5q-48 8 -79.5 20.5t-49 29.5t-22.5 37.5t-1 43.5q8 51 56.5 78.5t120.5 27.5q22 0 45 -3.5t45 -11t41 -17.5t32 -24q4 -3 -1 -8zM420 535q3 -5 -3 -5h-12q-3 0 -5 3
l-71 112l-101 -114q-1 -1 -3 -1h-17q-5 0 -1 5l108 122q3 3 9 3h12q5 0 7 -4z" />
    <glyph glyph-name="Scedilla" unicode="&#x15e;" horiz-adv-x="580" 
d="M568 603q-6 -3 -9 1q-26 44 -71 64t-108 20q-82 0 -135 -38.5t-64 -104.5q-5 -31 0 -57t24 -48t55 -39.5t92 -32.5q60 -16 99.5 -35.5t61.5 -44t28.5 -54.5t0.5 -67q-14 -84 -77.5 -131.5t-165.5 -47.5q-81 0 -139.5 32.5t-87.5 89.5q-2 5 3 8l12 7q5 3 9 -2
q23 -49 73 -80t128 -31q96 0 150.5 42.5t66.5 114.5q6 33 0.5 59.5t-25.5 48t-57.5 39t-95.5 31.5q-57 14 -95 34t-59.5 45.5t-28 56t-0.5 65.5q6 37 25.5 67t49.5 51.5t69.5 33.5t86.5 12q68 0 117.5 -22.5t79.5 -69.5q4 -3 -2 -9zM298 4q4 0 2 -4l-27 -64q123 -2 111 -70
q-5 -32 -33.5 -49.5t-79.5 -17.5q-17 0 -36.5 2t-30.5 5q-3 2 -2 6l2 9q1 4 6 3q14 -4 29 -6t33 -2q48 0 68 15t24 38q2 11 -2 20.5t-16 16.5t-34.5 10.5t-58.5 2.5q-5 0 -3 4l34 79q2 2 4 2h10z" />
    <glyph glyph-name="scedilla" unicode="&#x15f;" horiz-adv-x="447" 
d="M437 379q-3 -5 -9 -1q-23 24 -63.5 37.5t-80.5 13.5q-58 0 -100 -19t-50 -63q-3 -20 0.5 -37t19 -31t45 -24.5t77.5 -18.5q47 -7 77.5 -20t47 -30.5t21 -38.5t0.5 -45q-4 -28 -20 -49.5t-41 -35.5t-57 -21.5t-68 -7.5q-63 0 -108.5 17.5t-73.5 41.5q-4 3 -1 8l8 10
q3 5 9 1q23 -21 66 -38t105 -17q61 0 103.5 23.5t50.5 68.5q3 19 1.5 36t-15 31t-42.5 25.5t-80 19.5q-48 8 -79.5 20.5t-49 29.5t-22.5 37.5t-1 43.5q8 51 56.5 78.5t120.5 27.5q22 0 45 -3.5t45 -11t41 -17.5t32 -24q4 -3 -1 -8zM236 4q4 0 2 -4l-27 -64q123 -2 111 -70
q-5 -32 -33.5 -49.5t-79.5 -17.5q-17 0 -36.5 2t-30.5 5q-3 2 -2 6l2 9q1 4 6 3q14 -4 29 -6t33 -2q48 0 68 15t24 38q2 11 -2 20.5t-16 16.5t-34.5 10.5t-58.5 2.5q-5 0 -3 4l34 79q2 2 4 2h10z" />
    <glyph glyph-name="Scaron" unicode="&#x160;" horiz-adv-x="580" 
d="M568 603q-6 -3 -9 1q-26 44 -71 64t-108 20q-82 0 -135 -38.5t-64 -104.5q-5 -31 0 -57t24 -48t55 -39.5t92 -32.5q60 -16 99.5 -35.5t61.5 -44t28.5 -54.5t0.5 -67q-14 -84 -77.5 -131.5t-165.5 -47.5q-81 0 -139.5 32.5t-87.5 89.5q-2 5 3 8l12 7q5 3 9 -2
q23 -49 73 -80t128 -31q96 0 150.5 42.5t66.5 114.5q6 33 0.5 59.5t-25.5 48t-57.5 39t-95.5 31.5q-57 14 -95 34t-59.5 45.5t-28 56t-0.5 65.5q6 37 25.5 67t49.5 51.5t69.5 33.5t86.5 12q68 0 117.5 -22.5t79.5 -69.5q4 -3 -2 -9zM304 885q-3 5 3 5h12q4 0 5 -3l71 -112
l101 114q1 1 3 1h17q5 0 1 -5l-108 -122q-3 -3 -9 -3h-12q-5 0 -7 4z" />
    <glyph glyph-name="scaron" unicode="&#x161;" horiz-adv-x="447" 
d="M437 379q-3 -5 -9 -1q-23 24 -63.5 37.5t-80.5 13.5q-58 0 -100 -19t-50 -63q-3 -20 0.5 -37t19 -31t45 -24.5t77.5 -18.5q47 -7 77.5 -20t47 -30.5t21 -38.5t0.5 -45q-4 -28 -20 -49.5t-41 -35.5t-57 -21.5t-68 -7.5q-63 0 -108.5 17.5t-73.5 41.5q-4 3 -1 8l8 10
q3 5 9 1q23 -21 66 -38t105 -17q61 0 103.5 23.5t50.5 68.5q3 19 1.5 36t-15 31t-42.5 25.5t-80 19.5q-48 8 -79.5 20.5t-49 29.5t-22.5 37.5t-1 43.5q8 51 56.5 78.5t120.5 27.5q22 0 45 -3.5t45 -11t41 -17.5t32 -24q4 -3 -1 -8zM223 655q-3 5 3 5h12q4 0 5 -3l71 -112
l101 114q1 1 3 1h17q5 0 1 -5l-108 -122q-3 -3 -9 -3h-12q-5 0 -7 4z" />
    <glyph glyph-name="uni0162" unicode="&#x162;" horiz-adv-x="583" 
d="M167 694q0 6 7 6h470q5 0 5 -6l-2 -12q-1 -6 -7 -6h-222l-112 -670q-1 -6 -7 -6h-14q-6 0 -5 6l112 670h-222q-6 0 -5 6zM298 4q4 0 2 -4l-27 -64q123 -2 111 -70q-5 -32 -33.5 -49.5t-79.5 -17.5q-17 0 -36.5 2t-30.5 5q-3 2 -2 6l2 9q1 4 6 3q14 -4 29 -6t33 -2
q48 0 68 15t24 38q2 11 -2 20.5t-16 16.5t-34.5 10.5t-58.5 2.5q-5 0 -3 4l34 79q2 2 4 2h10z" />
    <glyph glyph-name="uni0163" unicode="&#x163;" horiz-adv-x="321" 
d="M214 546q7 0 5 -6l-17 -100h141q7 0 5 -6l-1 -11q-1 -6 -7 -6h-141l-51 -302q-3 -21 -3 -40t6 -33t19 -22t37 -8q13 0 34 5.5t41 14.5q6 2 8 -3l3 -13q0 -6 -4 -7q-19 -8 -42.5 -14.5t-42.5 -6.5q-55 0 -73 34.5t-10 87.5l52 307h-74q-6 0 -5 6l1 11q2 6 7 6h74l29 101
q3 5 7 5h2zM162 5q4 0 2 -4l-27 -64q123 -2 111 -70q-5 -32 -33.5 -49.5t-79.5 -17.5q-17 0 -36.5 2t-30.5 5q-3 2 -2 6l2 9q1 4 6 3q14 -4 29 -6t33 -2q48 0 68 15t24 38q2 11 -2 20.5t-16 16.5t-34.5 10.5t-58.5 2.5q-5 0 -3 4l34 79q2 2 4 2h10z" />
    <glyph glyph-name="Tcaron" unicode="&#x164;" horiz-adv-x="583" 
d="M167 694q0 6 7 6h470q5 0 5 -6l-2 -12q-1 -6 -7 -6h-222l-112 -670q-1 -6 -7 -6h-14q-6 0 -5 6l112 670h-222q-6 0 -5 6zM329 875q-3 5 3 5h12q4 0 5 -3l71 -112l101 114q1 1 3 1h17q5 0 1 -5l-108 -122q-3 -3 -9 -3h-12q-5 0 -7 4z" />
    <glyph glyph-name="tcaron" unicode="&#x165;" horiz-adv-x="321" 
d="M214 546q7 0 5 -6l-17 -100h141q7 0 5 -6l-1 -11q-1 -6 -7 -6h-141l-51 -302q-3 -21 -3 -40t6 -33t19 -22t37 -8q13 0 34 5.5t41 14.5q6 2 8 -3l3 -13q0 -6 -4 -7q-19 -8 -42.5 -14.5t-42.5 -6.5q-55 0 -73 34.5t-10 87.5l52 307h-74q-6 0 -5 6l1 11q2 6 7 6h74l29 101
q3 5 7 5h2zM366 752q11 0 18.5 -8.5t5.5 -24.5q-6 -58 -54 -106q-2 -2 -4 0l-8 6q-2 3 0 5q20 20 29.5 42t11.5 38q-15 -2 -21.5 7t-4.5 19q2 11 9.5 16.5t17.5 5.5z" />
    <glyph glyph-name="Tbar" unicode="&#x166;" horiz-adv-x="583" 
d="M167 694q0 6 7 6h470q5 0 5 -6l-2 -12q-1 -6 -7 -6h-222l-55 -325h161q7 0 5 -6l-1 -11q-1 -6 -7 -6h-161l-54 -322q-1 -6 -7 -6h-14q-6 0 -5 6l54 322h-161q-6 0 -5 6l1 11q2 6 7 6h161l55 325h-222q-6 0 -5 6z" />
    <glyph glyph-name="tbar" unicode="&#x167;" horiz-adv-x="321" 
d="M81 252q2 6 7 6h58l26 159h-74q-6 0 -5 6l2 11q2 6 7 6h74l29 101q3 5 7 5h2q7 0 5 -6l-17 -100h141q7 0 5 -6l-2 -11q-1 -6 -7 -6h-141l-26 -159h135q7 0 5 -6l-2 -11q-1 -6 -7 -6h-135l-20 -120q-3 -21 -3 -40t6 -33t19 -22t37 -8q13 0 34 5.5t41 14.5q6 2 8 -3l3 -13
q1 -4 -5 -7q-18 -8 -41.5 -14.5t-42.5 -6.5q-55 0 -73 34.5t-10 87.5l21 125h-58q-6 0 -5 6z" />
    <glyph glyph-name="Utilde" unicode="&#x168;" horiz-adv-x="677" 
d="M696 700q5 0 5 -6l-74 -443q-21 -125 -96 -194t-189 -69q-57 0 -100 18t-70.5 51.5t-37 82.5t0.5 111l74 443q0 6 7 6h14q5 0 5 -6l-73 -438q-20 -115 26.5 -179.5t152.5 -64.5t173.5 64.5t87.5 179.5l73 438q0 6 7 6h14zM608 881q3 0 3 -3q-10 -60 -29.5 -96.5
t-54.5 -36.5q-25 0 -37.5 19t-21.5 42.5t-19 42.5t-30 19q-23 0 -42.5 -26.5t-28.5 -88.5q0 -3 -3 -3h-14q-3 0 -3 3q11 63 34.5 97.5t58.5 34.5q25 0 37.5 -19t21.5 -42.5t19 -42.5t29 -19q23 0 38.5 28t24.5 88q0 3 4 3h13z" />
    <glyph glyph-name="utilde" unicode="&#x169;" horiz-adv-x="509" 
d="M518 440q7 0 5 -6l-71 -428q-1 -6 -7 -6h-5q-6 0 -5 6l12 115q-33 -63 -92.5 -98t-129.5 -35q-82 0 -119.5 46.5t-23.5 128.5l45 271q2 6 7 6h14q7 0 5 -6l-44 -267q-12 -72 17.5 -113t106.5 -41q47 0 86 15.5t68 42t47.5 61.5t24.5 74l38 228q2 6 7 6h14zM488 661
q3 0 3 -3q-10 -60 -29.5 -96.5t-54.5 -36.5q-25 0 -37.5 19t-21.5 42.5t-19 42.5t-30 19q-23 0 -42.5 -26.5t-28.5 -88.5q0 -3 -3 -3h-14q-3 0 -3 3q11 63 34.5 97.5t58.5 34.5q25 0 37.5 -19t21.5 -42.5t19 -42.5t29 -19q23 0 38.5 28t24.5 88q0 3 4 3h13z" />
    <glyph glyph-name="Umacron" unicode="&#x16a;" horiz-adv-x="677" 
d="M696 700q5 0 5 -6l-74 -443q-21 -125 -96 -194t-189 -69q-57 0 -100 18t-70.5 51.5t-37 82.5t0.5 111l74 443q0 6 7 6h14q5 0 5 -6l-73 -438q-20 -115 26.5 -179.5t152.5 -64.5t173.5 64.5t87.5 179.5l73 438q0 6 7 6h14zM588 805q0 -3 -3 -3h-234q-3 0 -3 3l1 10
q0 3 3 3h235q3 0 3 -3z" />
    <glyph glyph-name="umacron" unicode="&#x16b;" horiz-adv-x="509" 
d="M518 440q7 0 5 -6l-71 -428q-1 -6 -7 -6h-5q-6 0 -5 6l12 115q-33 -63 -92.5 -98t-129.5 -35q-82 0 -119.5 46.5t-23.5 128.5l45 271q2 6 7 6h14q7 0 5 -6l-44 -267q-12 -72 17.5 -113t106.5 -41q47 0 86 15.5t68 42t47.5 61.5t24.5 74l38 228q2 6 7 6h14zM468 585
q0 -3 -3 -3h-234q-3 0 -3 3l1 10q0 3 3 3h235q3 0 3 -3z" />
    <glyph glyph-name="Ubreve" unicode="&#x16c;" horiz-adv-x="677" 
d="M696 700q5 0 5 -6l-74 -443q-21 -125 -96 -194t-189 -69q-57 0 -100 18t-70.5 51.5t-37 82.5t0.5 111l74 443q0 6 7 6h14q5 0 5 -6l-73 -438q-20 -115 26.5 -179.5t152.5 -64.5t173.5 64.5t87.5 179.5l73 438q0 6 7 6h14zM351 877q0 3 4 3h12q2 0 2 -3q-3 -21 -1.5 -40.5
t11.5 -35.5t29.5 -25.5t52.5 -9.5t56.5 11t39 27.5t23.5 36t10 36.5q0 3 4 3h14q2 0 2 -3q-4 -23 -14 -46t-28 -41t-44.5 -29t-64.5 -11q-36 0 -58.5 11t-34.5 29t-15 41t0 46z" />
    <glyph glyph-name="ubreve" unicode="&#x16d;" horiz-adv-x="509" 
d="M518 440q7 0 5 -6l-71 -428q-1 -6 -7 -6h-5q-6 0 -5 6l12 115q-33 -63 -92.5 -98t-129.5 -35q-82 0 -119.5 46.5t-23.5 128.5l45 271q2 6 7 6h14q7 0 5 -6l-44 -267q-12 -72 17.5 -113t106.5 -41q47 0 86 15.5t68 42t47.5 61.5t24.5 74l38 228q2 6 7 6h14zM231 657
q0 3 4 3h12q2 0 2 -3q-3 -21 -1.5 -40.5t11.5 -35.5t29.5 -25.5t52.5 -9.5t56.5 11t39 27.5t23.5 36t10 36.5q0 3 4 3h14q2 0 2 -3q-4 -23 -14 -46t-28 -41t-44.5 -29t-64.5 -11q-36 0 -58.5 11t-34.5 29t-15 41t0 46z" />
    <glyph glyph-name="Uring" unicode="&#x16e;" horiz-adv-x="677" 
d="M696 700q5 0 5 -6l-74 -443q-21 -125 -96 -194t-189 -69q-57 0 -100 18t-70.5 51.5t-37 82.5t0.5 111l74 443q0 6 7 6h14q5 0 5 -6l-73 -438q-20 -115 26.5 -179.5t152.5 -64.5t173.5 64.5t87.5 179.5l73 438q0 6 7 6h14zM489 928q44 0 65 -26t14 -65q-6 -39 -36 -65
t-74 -26t-65 26t-15 65q7 39 37 65t74 26zM486 912q-37 0 -60.5 -20.5t-29.5 -54.5q-5 -34 11.5 -54.5t53.5 -20.5t60.5 20.5t28.5 54.5q6 34 -10.5 54.5t-53.5 20.5z" />
    <glyph glyph-name="uring" unicode="&#x16f;" horiz-adv-x="509" 
d="M518 440q7 0 5 -6l-71 -428q-1 -6 -7 -6h-5q-6 0 -5 6l12 115q-33 -63 -92.5 -98t-129.5 -35q-82 0 -119.5 46.5t-23.5 128.5l45 271q2 6 7 6h14q7 0 5 -6l-44 -267q-12 -72 17.5 -113t106.5 -41q47 0 86 15.5t68 42t47.5 61.5t24.5 74l38 228q2 6 7 6h14zM369 708
q44 0 65 -26t14 -65q-6 -39 -36 -65t-74 -26t-65 26t-15 65q7 39 37 65t74 26zM366 692q-37 0 -60.5 -20.5t-29.5 -54.5q-5 -34 11.5 -54.5t53.5 -20.5t60.5 20.5t28.5 54.5q6 34 -10.5 54.5t-53.5 20.5z" />
    <glyph glyph-name="Uhungarumlaut" unicode="&#x170;" horiz-adv-x="677" 
d="M696 700q5 0 5 -6l-74 -443q-21 -125 -96 -194t-189 -69q-57 0 -100 18t-70.5 51.5t-37 82.5t0.5 111l74 443q0 6 7 6h14q5 0 5 -6l-73 -438q-20 -115 26.5 -179.5t152.5 -64.5t173.5 64.5t87.5 179.5l73 438q0 6 7 6h14zM471 877q2 3 5 3h14q5 0 2 -4l-87 -124
q-1 -2 -4 -2h-9q-5 0 -2 4zM620 877q2 3 5 3h14q5 0 2 -4l-96 -123q-2 -3 -5 -3h-9q-4 0 -1 4z" />
    <glyph glyph-name="uhungarumlaut" unicode="&#x171;" horiz-adv-x="509" 
d="M518 440q7 0 5 -6l-71 -428q-1 -6 -7 -6h-5q-6 0 -5 6l12 115q-33 -63 -92.5 -98t-129.5 -35q-82 0 -119.5 46.5t-23.5 128.5l45 271q2 6 7 6h14q7 0 5 -6l-44 -267q-12 -72 17.5 -113t106.5 -41q47 0 86 15.5t68 42t47.5 61.5t24.5 74l38 228q2 6 7 6h14zM351 657
q2 3 5 3h14q5 0 2 -4l-87 -124q-1 -2 -4 -2h-9q-5 0 -2 4zM500 657q2 3 5 3h14q5 0 2 -4l-96 -123q-2 -3 -5 -3h-9q-4 0 -1 4z" />
    <glyph glyph-name="Uogonek" unicode="&#x172;" horiz-adv-x="677" 
d="M696 700q7 0 5 -6l-74 -443q-19 -111 -85.5 -179t-171.5 -82q-42 -27 -66.5 -59t-30.5 -67q-5 -30 9.5 -46t43.5 -16q13 0 20.5 1t16.5 4q7 2 7 -4l1 -8q0 -5 -6.5 -8t-15 -4.5t-17 -2t-11.5 -0.5q-40 0 -59 21.5t-13 58.5q6 35 29 68.5t61 59.5q-117 0 -170.5 69.5
t-33.5 193.5l74 443q2 6 7 6h14q7 0 5 -6l-74 -443q-20 -117 25.5 -178t151.5 -61t175 63t89 181l73 438q2 6 7 6h14z" />
    <glyph glyph-name="uogonek" unicode="&#x173;" horiz-adv-x="506" 
d="M517 440q7 0 5 -6l-71 -428q-1 -2 -2 -5t-5 -5q-50 -32 -73.5 -64t-28.5 -67q-5 -30 9 -46.5t43 -16.5q23 0 37 5q7 2 7 -4l1 -8q0 -5 -6.5 -8t-15 -4.5t-17 -2t-11.5 -0.5q-40 0 -59.5 21t-12.5 58q7 43 39.5 82t78.5 65l11 115q-33 -63 -92.5 -98t-129.5 -35
q-82 0 -119.5 46.5t-23.5 128.5l45 271q2 6 7 6h14q7 0 5 -6l-44 -267q-12 -72 17.5 -113t106.5 -41q47 0 86 15.5t68 42t47.5 61.5t24.5 74l38 228q2 6 7 6h14z" />
    <glyph glyph-name="Wcircumflex" unicode="&#x174;" horiz-adv-x="1060" 
d="M1111 700q8 0 3 -8l-341 -693q-3 -4 -6 -4h-4q-4 0 -4 4l-122 628l-336 -628q-3 -4 -6 -4h-5q-4 0 -4 4l-109 693q-2 8 7 8h16q4 0 4 -4l98 -644l333 624q3 5 8 5h3q3 0 4 -4l123 -625l316 644q3 4 6 4h16zM765 755q3 -5 -3 -5h-12q-3 0 -5 3l-71 112l-101 -114
q-1 -1 -3 -1h-17q-5 0 -1 5l108 122q3 3 9 3h12q5 0 7 -4z" />
    <glyph glyph-name="wcircumflex" unicode="&#x175;" horiz-adv-x="758" 
d="M806 440q10 0 5 -8l-249 -432q-1 -2 -3 -3t-4 -1h-5q-4 0 -5 4l-99 394l-233 -394q-1 -2 -3 -3t-4 -1h-5q-4 0 -5 4l-105 432q-2 8 7 8h13q4 0 6 -4l94 -393l232 393q1 4 6 4h5q5 0 6 -4l99 -393l224 393q2 4 6 4h17zM576 535q3 -5 -3 -5h-12q-3 0 -5 3l-71 112
l-101 -114q-1 -1 -3 -1h-17q-5 0 -1 5l108 122q3 3 9 3h12q5 0 7 -4z" />
    <glyph glyph-name="Ycircumflex" unicode="&#x176;" horiz-adv-x="656" 
d="M716 700q10 0 3 -9l-329 -402l-47 -283q-1 -6 -7 -6h-14q-6 0 -5 6l47 283l-196 402q-5 9 7 9h15q4 0 4 -3l185 -384l312 384q3 3 6 3h19zM548 755q3 -5 -3 -5h-12q-3 0 -5 3l-71 112l-101 -114q-1 -1 -3 -1h-17q-5 0 -1 5l108 122q3 3 9 3h12q5 0 7 -4z" />
    <glyph glyph-name="ycircumflex" unicode="&#x177;" horiz-adv-x="451" 
d="M92 431q-3 9 7 9h12q5 0 6 -3l129 -404l230 403q1 4 6 4h17q10 0 5 -8l-359 -618q-1 -2 -3 -3t-4 -1h-17q-9 0 -3 8l111 186zM427 535q3 -5 -3 -5h-12q-3 0 -5 3l-71 112l-101 -114q-1 -1 -3 -1h-17q-5 0 -1 5l108 122q3 3 9 3h12q5 0 7 -4z" />
    <glyph glyph-name="Ydieresis" unicode="&#x178;" horiz-adv-x="656" 
d="M716 700q10 0 3 -9l-329 -402l-47 -283q-1 -6 -7 -6h-14q-6 0 -5 6l47 283l-196 402q-5 9 7 9h15q4 0 4 -3l185 -384l312 384q3 3 6 3h19zM372 832q9 0 14.5 -6.5t3.5 -15.5t-9.5 -15.5t-16.5 -6.5q-8 0 -13.5 6.5t-3.5 15.5t9.5 15.5t15.5 6.5zM533 832q9 0 14.5 -6.5
t3.5 -15.5t-9.5 -15.5t-16.5 -6.5q-8 0 -13.5 6.5t-3.5 15.5t9.5 15.5t15.5 6.5z" />
    <glyph glyph-name="Zacute" unicode="&#x179;" horiz-adv-x="654" 
d="M206 676q-6 0 -5 6l2 12q0 6 7 6h469q7 0 6 -5l-1 -6l-2 -6t-4 -6l-566 -653h464q7 0 5 -6l-2 -12q-1 -6 -7 -6h-489q-6 0 -5 6l2 12q1 4 2.5 7t6.5 8l556 643h-439zM537 877q2 3 6 3h18q5 0 1 -5l-95 -121q-3 -4 -7 -4h-12q-2 0 -3 1t1 4z" />
    <glyph glyph-name="zacute" unicode="&#x17a;" horiz-adv-x="447" 
d="M124 417q-6 0 -5 6l1 11q2 6 7 6h341q7 0 5 -6l-1 -6q0 -2 -7 -11l-383 -394h325q7 0 5 -6l-2 -11q-1 -6 -7 -6h-358q-6 0 -5 6l1 6q1 5 8 12l382 393h-307zM407 657q2 3 6 3h18q5 0 1 -5l-95 -121q-3 -4 -7 -4h-12q-2 0 -3 1t1 4z" />
    <glyph glyph-name="Zdotaccent" unicode="&#x17b;" horiz-adv-x="654" 
d="M206 676q-6 0 -5 6l2 12q0 6 7 6h469q7 0 6 -5l-1 -6l-2 -6t-4 -6l-566 -653h464q7 0 5 -6l-2 -12q-1 -6 -7 -6h-489q-6 0 -5 6l2 12q1 4 2.5 7t6.5 8l556 643h-439zM462 821q9 0 15 -6t4 -15t-8 -15t-15 -6t-15 6t-4 15t8 15t15 6z" />
    <glyph glyph-name="zdotaccent" unicode="&#x17c;" horiz-adv-x="447" 
d="M124 417q-6 0 -5 6l1 11q2 6 7 6h341q7 0 5 -6l-1 -6q0 -2 -7 -11l-383 -394h325q7 0 5 -6l-2 -11q-1 -6 -7 -6h-358q-6 0 -5 6l1 6q1 5 8 12l382 393h-307zM332 601q9 0 15 -6t4 -15t-8 -15t-15 -6t-15 6t-4 15t8 15t15 6z" />
    <glyph glyph-name="Zcaron" unicode="&#x17d;" horiz-adv-x="654" 
d="M206 676q-6 0 -5 6l2 12q0 6 7 6h469q7 0 6 -5l-1 -6l-2 -6t-4 -6l-566 -653h464q7 0 5 -6l-2 -12q-1 -6 -7 -6h-489q-6 0 -5 6l2 12q1 4 2.5 7t6.5 8l556 643h-439zM363 875q-3 5 3 5h12q4 0 5 -3l71 -112l101 114q1 1 3 1h17q5 0 1 -5l-108 -122q-3 -3 -9 -3h-12
q-5 0 -7 4z" />
    <glyph glyph-name="zcaron" unicode="&#x17e;" horiz-adv-x="447" 
d="M124 417q-6 0 -5 6l1 11q2 6 7 6h341q7 0 5 -6l-1 -6q0 -2 -7 -11l-383 -394h325q7 0 5 -6l-2 -11q-1 -6 -7 -6h-358q-6 0 -5 6l1 6q1 5 8 12l382 393h-307zM233 655q-3 5 3 5h12q4 0 5 -3l71 -112l101 114q1 1 3 1h17q5 0 1 -5l-108 -122q-3 -3 -9 -3h-12q-5 0 -7 4z
" />
    <glyph glyph-name="florin" unicode="&#x192;" horiz-adv-x="480" 
d="M43 120q0 6 6 7l12 3q6 2 6 -5q2 -62 23 -88t63 -26q43 0 73 27t41 97l47 282h-124q-6 0 -5 6l2 11q2 6 7 6h124l21 127q13 76 52 109.5t94 33.5q22 0 41.5 -4.5t34.5 -9.5q3 -1 3 -5l-3 -13q-1 -5 -8 -3q-17 6 -33 9t-39 3q-22 0 -40.5 -5.5t-33.5 -20t-25.5 -38.5
t-16.5 -61l-21 -122h173q7 0 5 -6l-2 -11q-1 -6 -7 -6h-173l-47 -282q-12 -76 -50.5 -111.5t-92.5 -35.5q-107 0 -107 132z" />
    <glyph glyph-name="AEacute" unicode="&#x1fc;" horiz-adv-x="965" 
d="M998 682q-1 -6 -7 -6h-481l43 -306h343q5 0 5 -6l-2 -12q-1 -6 -7 -6h-336l45 -322h286q7 0 5 -6l-2 -12q-1 -6 -7 -6h-300q-5 0 -5 4l-28 215h-331l-129 -215q-4 -4 -6 -4h-17q-8 0 -5 8l410 688q2 4 7 4h516q5 0 5 -6zM546 243l-60 429l-252 -429h312zM813 877q2 3 6 3
h18q5 0 1 -5l-95 -121q-3 -4 -7 -4h-12q-2 0 -3 1t1 4z" />
    <glyph glyph-name="aeacute" unicode="&#x1fd;" horiz-adv-x="932" 
d="M924 228q-2 -7 -6 -12.5t-10 -5.5h-380q-6 -41 1.5 -77.5t28 -63.5t53 -42.5t75.5 -15.5q52 0 94.5 25.5t74.5 64.5q4 6 8 2l12 -10q4 -4 0 -8q-35 -43 -83.5 -70t-107.5 -27q-74 0 -119 42t-54 109l-22 -133q-1 -6 -7 -6h-5q-6 0 -5 6l18 123q-19 -37 -45 -64t-55.5 -44
t-61.5 -25t-64 -8q-47 0 -83.5 18t-59.5 49.5t-32 73.5t-1 91q8 48 31 90.5t56.5 74t76 49.5t89.5 18q30 0 59.5 -8.5t54.5 -26.5t42 -46t22 -67l21 130q2 6 7 6h8q7 0 5 -6l-21 -131q30 68 88.5 108.5t133.5 40.5q47 0 83 -16t57.5 -45.5t28 -71t-5.5 -91.5zM900 232
q11 41 7 77t-22 62.5t-49.5 42t-75.5 15.5q-43 0 -81.5 -15.5t-68.5 -42t-50 -62.5t-28 -77h368zM343 429q-44 0 -82 -16t-68 -44.5t-50 -66.5t-27 -82t0 -82t27.5 -66.5t53.5 -44.5t78 -16q43 0 81 16t68.5 43.5t51 65.5t27.5 82q8 45 0 83.5t-29 67t-54 44.5t-77 16z
M656 657q2 3 6 3h18q5 0 1 -5l-95 -121q-3 -4 -7 -4h-12q-2 0 -3 1t1 4z" />
    <glyph glyph-name="Oslashacute" unicode="&#x1fe;" horiz-adv-x="850" 
d="M545 712q71 0 126.5 -24t93.5 -68l111 100q6 5 8 1l7 -7q3 -3 -2 -8l-110 -100q38 -49 53 -114.5t2 -141.5t-50.5 -142.5t-92.5 -115t-123.5 -76.5t-143.5 -28q-70 0 -125.5 24t-95.5 67l-112 -101q-4 -5 -8 -1l-7 7q-2 4 3 8l112 101q-39 49 -54.5 115t-3.5 142
q13 77 50.5 143t93 114.5t124.5 76.5t144 28zM541 688q-70 0 -134 -26t-114.5 -71.5t-85 -107.5t-46.5 -133q-11 -70 2 -131t48 -107l534 490q-35 41 -86.5 63.5t-117.5 22.5zM222 97q35 -41 87.5 -63t118.5 -22q71 0 134.5 26t114 71.5t84.5 107.5t46 133q12 70 -1 130.5
t-47 106.5zM659 887q2 3 6 3h18q5 0 1 -5l-95 -121q-3 -4 -7 -4h-12q-2 0 -3 1t1 4z" />
    <glyph glyph-name="oslashacute" unicode="&#x1ff;" horiz-adv-x="547" 
d="M558 495q4 4 8 1l7 -5q3 -5 -1 -9l-82 -87q29 -32 41 -76.5t3 -98.5q-8 -49 -31.5 -91t-58.5 -73t-79 -49t-93 -18q-41 0 -73.5 12t-55.5 34l-75 -78q-6 -5 -9 -1l-7 6q-4 3 0 9l76 78q-27 32 -38 75.5t-2 95.5q8 49 31.5 91t58 73t78.5 49t93 18q77 0 125 -42zM345 428
q-45 0 -84 -16t-69 -44t-49.5 -66t-26.5 -82q-8 -45 -0.5 -84t30.5 -68l311 322q-20 18 -48.5 28t-63.5 10zM160 53q44 -41 116 -41q46 0 84.5 16t68.5 44t50 66t27 82q8 48 -1 88t-34 68zM449 657q2 3 6 3h18q5 0 1 -5l-95 -121q-3 -4 -7 -4h-12q-2 0 -3 1t1 4z" />
    <glyph glyph-name="uni0218" unicode="&#x218;" horiz-adv-x="580" 
d="M568 603q-6 -3 -9 1q-26 44 -71 64t-108 20q-82 0 -135 -38.5t-64 -104.5q-5 -31 0 -57t24 -48t55 -39.5t92 -32.5q60 -16 99.5 -35.5t61.5 -44t28.5 -54.5t0.5 -67q-14 -84 -77.5 -131.5t-165.5 -47.5q-81 0 -139.5 32.5t-87.5 89.5q-2 5 3 8l12 7q5 3 9 -2
q23 -49 73 -80t128 -31q96 0 150.5 42.5t66.5 114.5q6 33 0.5 59.5t-25.5 48t-57.5 39t-95.5 31.5q-57 14 -95 34t-59.5 45.5t-28 56t-0.5 65.5q6 37 25.5 67t49.5 51.5t69.5 33.5t86.5 12q68 0 117.5 -22.5t79.5 -69.5q4 -3 -2 -9zM285 -40q11 0 17.5 -8t4.5 -23
q-3 -28 -16 -56t-37 -52q-2 -2 -4 0l-8 6q-3 2 0 5q20 20 29.5 42t10.5 38q-14 -2 -20.5 6t-4.5 19q2 12 9.5 17.5t18.5 5.5z" />
    <glyph glyph-name="uni0219" unicode="&#x219;" horiz-adv-x="447" 
d="M437 379q-3 -5 -9 -1q-23 24 -63.5 37.5t-80.5 13.5q-58 0 -100 -19t-50 -63q-3 -20 0.5 -37t19 -31t45 -24.5t77.5 -18.5q47 -7 77.5 -20t47 -30.5t21 -38.5t0.5 -45q-4 -28 -20 -49.5t-41 -35.5t-57 -21.5t-68 -7.5q-63 0 -108.5 17.5t-73.5 41.5q-4 3 -1 8l8 10
q3 5 9 1q23 -21 66 -38t105 -17q61 0 103.5 23.5t50.5 68.5q3 19 1.5 36t-15 31t-42.5 25.5t-80 19.5q-48 8 -79.5 20.5t-49 29.5t-22.5 37.5t-1 43.5q8 51 56.5 78.5t120.5 27.5q22 0 45 -3.5t45 -11t41 -17.5t32 -24q4 -3 -1 -8zM223 -40q11 0 17.5 -8t4.5 -23
q-3 -28 -16 -56t-37 -52q-2 -2 -4 0l-8 6q-3 2 0 5q20 20 29.5 42t10.5 38q-14 -2 -20.5 6t-4.5 19q2 12 9.5 17.5t18.5 5.5z" />
    <glyph glyph-name="uni021A" unicode="&#x21a;" horiz-adv-x="583" 
d="M167 694q0 6 7 6h470q5 0 5 -6l-2 -12q-1 -6 -7 -6h-222l-112 -670q-1 -6 -7 -6h-14q-6 0 -5 6l112 670h-222q-6 0 -5 6zM285 -40q11 0 17.5 -8t4.5 -23q-3 -28 -16 -56t-37 -52q-2 -2 -4 0l-8 6q-3 2 0 5q20 20 29.5 42t10.5 38q-14 -2 -20.5 6t-4.5 19q2 12 9.5 17.5
t18.5 5.5z" />
    <glyph glyph-name="uni021B" unicode="&#x21b;" horiz-adv-x="321" 
d="M214 546q7 0 5 -6l-17 -100h141q7 0 5 -6l-1 -11q-1 -6 -7 -6h-141l-51 -302q-3 -21 -3 -40t6 -33t19 -22t37 -8q13 0 34 5.5t41 14.5q6 2 8 -3l3 -13q0 -6 -4 -7q-19 -8 -42.5 -14.5t-42.5 -6.5q-55 0 -73 34.5t-10 87.5l52 307h-74q-6 0 -5 6l1 11q2 6 7 6h74l29 101
q3 5 7 5h2zM149 -39q11 0 17.5 -8t4.5 -23q-3 -28 -16 -56t-37 -52q-2 -2 -4 0l-8 6q-3 2 0 5q20 20 29.5 42t10.5 38q-14 -2 -20.5 6t-4.5 19q2 12 9.5 17.5t18.5 5.5z" />
    <glyph glyph-name="uni0237" unicode="&#x237;" horiz-adv-x="140" 
d="M148 440q7 0 5 -6l-81 -487q-10 -59 -44 -97t-91 -40q-5 0 -5 6l2 13q1 6 7 6q44 2 70.5 31.5t34.5 77.5l81 490q2 6 7 6h14z" />
    <glyph glyph-name="circumflex" unicode="&#x2c6;" horiz-adv-x="409" 
d="M407 575q3 -5 -3 -5h-12q-3 0 -5 3l-71 112l-101 -114q-1 -1 -3 -1h-17q-5 0 -1 5l108 122q3 3 9 3h12q5 0 7 -4z" />
    <glyph glyph-name="caron" unicode="&#x2c7;" horiz-adv-x="408" 
d="M214 695q-3 5 3 5h12q4 0 5 -3l71 -112l101 114q1 1 3 1h17q5 0 1 -5l-108 -122q-3 -3 -9 -3h-12q-5 0 -7 4z" />
    <glyph glyph-name="breve" unicode="&#x2d8;" horiz-adv-x="452" 
d="M213 697q0 3 4 3h12q2 0 2 -3q-3 -21 -1.5 -40.5t11.5 -35.5t29.5 -25.5t52.5 -9.5t56.5 11t39 27.5t23.5 36t10 36.5q0 3 4 3h14q2 0 2 -3q-4 -23 -14 -46t-28 -41t-44.5 -29t-64.5 -11q-36 0 -58.5 11t-34.5 29t-15 41t0 46z" />
    <glyph glyph-name="dotaccent" unicode="&#x2d9;" horiz-adv-x="235" 
d="M223 641q9 0 15 -6t4 -15t-8 -15t-15 -6t-15 6t-4 15t8 15t15 6z" />
    <glyph glyph-name="ring" unicode="&#x2da;" horiz-adv-x="383" 
d="M327 808q44 0 65 -26t14 -65q-6 -39 -36 -65t-74 -26t-65 26t-15 65q7 39 37 65t74 26zM324 792q-37 0 -60.5 -20.5t-29.5 -54.5q-5 -34 11.5 -54.5t53.5 -20.5t60.5 20.5t28.5 54.5q6 34 -10.5 54.5t-53.5 20.5z" />
    <glyph glyph-name="ogonek" unicode="&#x2db;" horiz-adv-x="326" 
d="M185 -196q4 1 6 -3l3 -7q2 -5 -3 -7q-20 -7 -47 -7q-38 0 -57.5 20.5t-13.5 57.5q8 44 40.5 82.5t80.5 64.5q3 2 5 0l2 -3q2 -4 0 -5q-45 -29 -73 -63.5t-34 -70.5q-5 -31 9 -48t44 -17q14 0 22 2z" />
    <glyph glyph-name="tilde" unicode="&#x2dc;" horiz-adv-x="455" 
d="M472 701q3 0 3 -3q-10 -60 -29.5 -96.5t-54.5 -36.5q-25 0 -37.5 19t-21.5 42.5t-19 42.5t-30 19q-23 0 -42.5 -26.5t-28.5 -88.5q0 -3 -3 -3h-14q-3 0 -3 3q11 63 34.5 97.5t58.5 34.5q25 0 37.5 -19t21.5 -42.5t19 -42.5t29 -19q23 0 38.5 28t24.5 88q0 3 4 3h13z" />
    <glyph glyph-name="hungarumlaut" unicode="&#x2dd;" horiz-adv-x="425" 
d="M274 697q2 3 5 3h14q5 0 2 -4l-87 -124q-1 -2 -4 -2h-9q-5 0 -2 4zM423 697q2 3 5 3h14q5 0 2 -4l-96 -123q-2 -3 -5 -3h-9q-4 0 -1 4z" />
    <glyph glyph-name="uni0326" unicode="&#x326;" horiz-adv-x="245" 
d="M114 -40q11 0 17.5 -8t4.5 -23q-3 -28 -16 -56t-37 -52q-2 -2 -4 0l-8 6q-3 2 0 5q20 20 29.5 42t10.5 38q-14 -2 -20.5 6t-4.5 19q2 12 9.5 17.5t18.5 5.5z" />
    <glyph glyph-name="uni0394" unicode="&#x394;" horiz-adv-x="695" 
d="M456 696q3 4 6 4h5q4 0 5 -4l163 -688q2 -8 -7 -8h-561q-10 0 -5 8zM99 24h507l-147 635z" />
    <glyph glyph-name="uni03A9" unicode="&#x3a9;" horiz-adv-x="866" 
d="M545 713q76 0 137 -23t102.5 -65.5t60 -103.5t10.5 -137q-6 -54 -26.5 -106t-56.5 -99t-89 -88t-125 -73l214 6q7 0 5 -6l-2 -12q-1 -6 -7 -6h-269q-4 0 -3 4l1 4q1 4 5 5q154 65 233.5 160t92.5 210q8 71 -8.5 128t-53.5 97t-93 61t-127 21q-72 0 -136 -21t-114.5 -61
t-84.5 -97t-46 -128q-9 -56 -4.5 -108.5t28 -100t68 -88.5t114.5 -74q4 -1 3 -5l-1 -4q-1 -3 -6 -3h-269q-6 0 -5 6l2 12q2 6 7 6l213 -6q-59 32 -97 73t-58.5 88.5t-25 99.5t4.5 105q13 76 49.5 137t90.5 103.5t122 65.5t144 23z" />
    <glyph glyph-name="uni03BC" unicode="&#x3bc;" horiz-adv-x="513" 
d="M152 440q7 0 5 -6l-41 -249q-14 -83 20.5 -128t109.5 -45q94 0 148 51.5t69 142.5l38 228q2 6 7 6h14q7 0 5 -6l-71 -428q-1 -6 -7 -6h-5q-5 0 -5 6l13 112q-33 -69 -89 -99.5t-124 -30.5q-58 0 -98.5 29.5t-44.5 91.5l-38 -277q-1 -6 -7 -6h-15q-6 0 -5 6l100 602
q2 6 7 6h14z" />
    <glyph glyph-name="pi" unicode="&#x3c0;" horiz-adv-x="653" 
d="M654 430q0 -6 -7 -6l-142 -7l-33 -270q-4 -36 0.5 -60t15.5 -38.5t28.5 -20.5t39.5 -6q14 0 29 3t29 8q8 3 8 -4v-15q0 -5 -9.5 -8.5t-22 -5.5t-24.5 -2.5t-16 -0.5q-51 0 -82.5 35.5t-22.5 106.5l34 278h-216l-121 -412q-2 -5 -7 -5h-14q-7 0 -5 7l121 410h-128
q-6 0 -5 6l2 11q2 6 7 6h536q5 0 5 -6v-4z" />
    <glyph glyph-name="Wgrave" unicode="&#x1e80;" horiz-adv-x="1060" 
d="M1111 700q8 0 3 -8l-341 -693q-3 -4 -6 -4h-4q-4 0 -4 4l-122 628l-336 -628q-3 -4 -6 -4h-5q-4 0 -4 4l-109 693q-2 8 7 8h16q4 0 4 -4l98 -644l333 624q3 5 8 5h3q3 0 4 -4l123 -625l316 644q3 4 6 4h16zM663 755q2 -5 -2 -5h-14q-2 0 -4 3l-61 122q-2 5 3 5h16
q4 0 6 -4z" />
    <glyph glyph-name="wgrave" unicode="&#x1e81;" horiz-adv-x="758" 
d="M806 440q10 0 5 -8l-249 -432q-1 -2 -3 -3t-4 -1h-5q-4 0 -5 4l-99 394l-233 -394q-1 -2 -3 -3t-4 -1h-5q-4 0 -5 4l-105 432q-2 8 7 8h13q4 0 6 -4l94 -393l232 393q1 4 6 4h5q5 0 6 -4l99 -393l224 393q2 4 6 4h17zM474 535q2 -5 -2 -5h-14q-2 0 -4 3l-61 122q-2 5 3 5
h16q4 0 6 -4z" />
    <glyph glyph-name="Wacute" unicode="&#x1e82;" horiz-adv-x="1060" 
d="M1111 700q8 0 3 -8l-341 -693q-3 -4 -6 -4h-4q-4 0 -4 4l-122 628l-336 -628q-3 -4 -6 -4h-5q-4 0 -4 4l-109 693q-2 8 7 8h16q4 0 4 -4l98 -644l333 624q3 5 8 5h3q3 0 4 -4l123 -625l316 644q3 4 6 4h16zM742 877q2 3 6 3h18q5 0 1 -5l-95 -121q-3 -4 -7 -4h-12
q-2 0 -3 1t1 4z" />
    <glyph glyph-name="wacute" unicode="&#x1e83;" horiz-adv-x="758" 
d="M806 440q10 0 5 -8l-249 -432q-1 -2 -3 -3t-4 -1h-5q-4 0 -5 4l-99 394l-233 -394q-1 -2 -3 -3t-4 -1h-5q-4 0 -5 4l-105 432q-2 8 7 8h13q4 0 6 -4l94 -393l232 393q1 4 6 4h5q5 0 6 -4l99 -393l224 393q2 4 6 4h17zM553 657q2 3 6 3h18q5 0 1 -5l-95 -121q-3 -4 -7 -4
h-12q-2 0 -3 1t1 4z" />
    <glyph glyph-name="Wdieresis" unicode="&#x1e84;" horiz-adv-x="1060" 
d="M1111 700q8 0 3 -8l-341 -693q-3 -4 -6 -4h-4q-4 0 -4 4l-122 628l-336 -628q-3 -4 -6 -4h-5q-4 0 -4 4l-109 693q-2 8 7 8h16q4 0 4 -4l98 -644l333 624q3 5 8 5h3q3 0 4 -4l123 -625l316 644q3 4 6 4h16zM589 832q9 0 14.5 -6.5t3.5 -15.5t-9.5 -15.5t-16.5 -6.5
q-8 0 -13.5 6.5t-3.5 15.5t9.5 15.5t15.5 6.5zM750 832q9 0 14.5 -6.5t3.5 -15.5t-9.5 -15.5t-16.5 -6.5q-8 0 -13.5 6.5t-3.5 15.5t9.5 15.5t15.5 6.5z" />
    <glyph glyph-name="wdieresis" unicode="&#x1e85;" horiz-adv-x="758" 
d="M806 440q10 0 5 -8l-249 -432q-1 -2 -3 -3t-4 -1h-5q-4 0 -5 4l-99 394l-233 -394q-1 -2 -3 -3t-4 -1h-5q-4 0 -5 4l-105 432q-2 8 7 8h13q4 0 6 -4l94 -393l232 393q1 4 6 4h5q5 0 6 -4l99 -393l224 393q2 4 6 4h17zM400 612q9 0 14.5 -6.5t3.5 -15.5t-9.5 -15.5
t-16.5 -6.5q-8 0 -13.5 6.5t-3.5 15.5t9.5 15.5t15.5 6.5zM561 612q9 0 14.5 -6.5t3.5 -15.5t-9.5 -15.5t-16.5 -6.5q-8 0 -13.5 6.5t-3.5 15.5t9.5 15.5t15.5 6.5z" />
    <glyph glyph-name="Germandbls" unicode="&#x1e9e;" horiz-adv-x="645" 
d="M646 688q-1 -7 -5 -11l-233 -269q117 -1 165.5 -56.5t33.5 -147.5q-17 -102 -90 -153t-195 -51h-87q-6 0 -5 6l2 12q2 6 7 6h86q110 0 174.5 44t79.5 136q30 182 -179 182h-26q-6 0 -5 6l1 5q2 7 5 10l233 269h-201q-86 0 -134.5 -38t-63.5 -126l-85 -506q-1 -6 -7 -6
h-14q-6 0 -5 6l84 502q17 104 74.5 148t156.5 44h229q7 0 5 -6z" />
    <glyph glyph-name="endash" unicode="&#x2013;" horiz-adv-x="604" 
d="M126 282q2 6 7 6h439q7 0 5 -6l-2 -11q0 -6 -7 -6h-439q-5 0 -5 6z" />
    <glyph glyph-name="emdash" unicode="&#x2014;" horiz-adv-x="925" 
d="M126 282q2 6 7 6h760q7 0 5 -6l-2 -11q0 -6 -7 -6h-760q-5 0 -5 6z" />
    <glyph glyph-name="uni2015" unicode="&#x2015;" horiz-adv-x="903" 
d="M48 282q2 6 7 6h890q7 0 5 -6l-2 -11q0 -6 -7 -6h-890q-5 0 -5 6z" />
    <glyph glyph-name="quoteleft" unicode="&#x2018;" horiz-adv-x="201" 
d="M190 542q-13 0 -20 9t-5 26q4 29 18 63t40 65q5 5 9 2l4 -4q4 -2 0 -8q-21 -25 -31 -50t-14 -48q17 3 25 -6.5t6 -20.5q-2 -13 -11 -20.5t-21 -7.5z" />
    <glyph glyph-name="quoteright" unicode="&#x2019;" horiz-adv-x="201" 
d="M215 710q13 0 20 -9t4 -26q-3 -29 -17 -63t-41 -65q-4 -6 -8 -2l-4 4q-4 4 0 8q20 24 31 49.5t14 49.5q-18 -4 -25.5 5.5t-5.5 20.5q2 13 11 20.5t21 7.5z" />
    <glyph glyph-name="quotesinglbase" unicode="&#x201a;" horiz-adv-x="202" 
d="M105 48q13 0 19.5 -9t4.5 -26q-3 -30 -17.5 -64.5t-40.5 -66.5q-3 -5 -8 -2l-5 4q-4 2 0 8q21 26 31.5 51.5t14.5 50.5q-18 -4 -26 5.5t-6 20.5q2 13 11.5 20.5t21.5 7.5z" />
    <glyph glyph-name="quotedblleft" unicode="&#x201c;" horiz-adv-x="310" 
d="M190 542q-13 0 -20 9t-5 26q4 29 18 63t40 65q5 5 9 2l4 -4q4 -2 0 -8q-21 -25 -31 -50t-14 -48q17 3 25 -6.5t6 -20.5q-2 -13 -11 -20.5t-21 -7.5zM298 542q-13 0 -20 9t-5 26q5 29 18.5 63t39.5 65q5 5 9 2l4 -4q4 -2 0 -8q-21 -25 -31 -50t-14 -48q18 3 26 -6.5
t6 -20.5q-2 -13 -11.5 -20.5t-21.5 -7.5z" />
    <glyph glyph-name="quotedblright" unicode="&#x201d;" horiz-adv-x="310" 
d="M323 710q13 0 20 -9t5 -26q-3 -29 -17.5 -63t-40.5 -65q-4 -6 -8 -2l-5 4q-3 4 1 8q20 25 30.5 50t13.5 49q-18 -4 -25.5 5.5t-5.5 20.5q2 13 11 20.5t21 7.5zM215 710q13 0 20 -9t4 -26q-3 -29 -17 -63t-41 -65q-4 -6 -8 -2l-4 4q-4 4 0 8q20 24 31 49.5t14 49.5
q-18 -4 -25.5 5.5t-5.5 20.5q2 13 11 20.5t21 7.5z" />
    <glyph glyph-name="quotedblbase" unicode="&#x201e;" horiz-adv-x="321" 
d="M223 48q13 0 20 -9t5 -26q-3 -29 -17.5 -63t-40.5 -65q-5 -5 -8 -2l-5 4q-3 3 1 8q20 25 30.5 50t13.5 49q-17 -4 -25 5.5t-6 20.5q2 13 11 20.5t21 7.5zM115 48q13 0 20 -9t5 -26q-3 -29 -17.5 -63t-40.5 -65q-5 -5 -8 -2l-5 4q-3 3 1 8q20 25 30.5 50t13.5 49
q-18 -4 -26 5.5t-6 20.5q2 13 11.5 20.5t21.5 7.5z" />
    <glyph glyph-name="dagger" unicode="&#x2020;" horiz-adv-x="436" 
d="M349 730q7 0 5 -6l-30 -180h142q7 0 5 -6l-2 -11q-1 -6 -7 -6h-142l-66 -395q-1 -6 -7 -6h-13q-6 0 -5 6l66 395h-143q-6 0 -5 6l2 11q2 6 7 6h143l30 180q2 6 7 6h13z" />
    <glyph glyph-name="daggerdbl" unicode="&#x2021;" horiz-adv-x="436" 
d="M349 730q7 0 5 -6l-31 -182h142q7 0 5 -6l-2 -12q-1 -6 -7 -6h-142l-32 -196h142q7 0 5 -6l-3 -13q-1 -6 -7 -6h-142l-36 -221q-1 -6 -7 -6h-13q-6 0 -5 6l36 221h-143q-6 0 -5 6l3 13q2 6 7 6h143l32 196h-143q-6 0 -5 6l2 12q2 6 7 6h143l31 182q2 6 7 6h13z" />
    <glyph glyph-name="bullet" unicode="&#x2022;" horiz-adv-x="607" 
d="M362 507q72 0 114.5 -42.5t42.5 -114.5t-42.5 -114.5t-114.5 -42.5t-114.5 42.5t-42.5 114.5t42.5 114.5t114.5 42.5z" />
    <glyph glyph-name="uni2023" unicode="&#x2023;" horiz-adv-x="624" 
d="M526 353q5 -3 0 -6l-282 -153q-4 -2 -4 3v306q0 5 4 3z" />
    <glyph glyph-name="ellipsis" unicode="&#x2026;" horiz-adv-x="642" 
d="M116 48q12 0 18.5 -7.5t4.5 -20.5q-2 -14 -11.5 -22t-21.5 -8q-13 0 -19.5 8t-4.5 22q2 13 11.5 20.5t22.5 7.5zM332 48q12 0 18.5 -7.5t4.5 -20.5q-2 -14 -11.5 -22t-21.5 -8q-13 0 -19.5 8t-4.5 22q2 13 11.5 20.5t22.5 7.5zM548 48q12 0 18.5 -7.5t4.5 -20.5
q-2 -14 -11.5 -22t-21.5 -8q-13 0 -19.5 8t-4.5 22q2 13 11.5 20.5t22.5 7.5z" />
    <glyph glyph-name="perthousand" unicode="&#x2030;" horiz-adv-x="1064" 
d="M297 700q33 0 58 -11t41.5 -30.5t23 -46.5t1.5 -60q-6 -33 -21.5 -60.5t-38.5 -47t-52 -30.5t-62 -11q-32 0 -57.5 11t-42 30.5t-23 47t-0.5 60.5q5 33 20.5 60t39 46.5t52.5 30.5t61 11zM765 687q4 -3 0 -9l-711 -672q-4 -4 -8 0l-7 7q-5 3 1 9l709 670q6 4 9 1z
M293 678q-58 0 -97 -35t-48 -91q-10 -57 17.5 -92t85.5 -35t97 35t49 92q9 56 -18.5 91t-85.5 35zM549 287q32 0 57.5 -11t41.5 -31t22.5 -47t1.5 -60q-6 -33 -21.5 -60t-38.5 -46.5t-52 -30.5t-61 -11t-57.5 11t-42 30.5t-23 46.5t-0.5 60q5 33 20.5 60t39 47t52.5 31
t61 11zM932 287q32 0 57.5 -11t41.5 -31t22.5 -47t1.5 -60q-6 -33 -21.5 -60t-38.5 -46.5t-52 -30.5t-61 -11t-57.5 11t-42 30.5t-23.5 46.5t-1 60q5 33 21 60t39 47t52.5 31t61.5 11zM545 265q-58 0 -97.5 -35t-48.5 -92q-9 -56 18.5 -91t85.5 -35t97 35t48 91q9 57 -18 92
t-85 35zM928 265q-58 0 -97.5 -35t-48.5 -92q-9 -56 18.5 -91t85.5 -35t97 35t48 91q9 57 -18 92t-85 35z" />
    <glyph glyph-name="minute" unicode="&#x2032;" horiz-adv-x="185" 
d="M194 539q-1 -6 -7 -6h-6q-6 0 -5 6l19 155q0 6 7 6h20q5 0 5 -6z" />
    <glyph glyph-name="second" unicode="&#x2033;" horiz-adv-x="286" 
d="M194 539q-1 -6 -7 -6h-6q-6 0 -5 6l19 155q0 6 7 6h20q5 0 5 -6zM295 539q-1 -6 -7 -6h-6q-6 0 -5 6l19 155q0 6 7 6h20q5 0 5 -6z" />
    <glyph glyph-name="guilsinglleft" unicode="&#x2039;" horiz-adv-x="258" 
d="M106 275q-2 3 1 8l138 153q3 4 9 4h12q12 0 4 -10l-138 -153l87 -148q5 -10 -6 -10h-12q-5 0 -8 5z" />
    <glyph glyph-name="guilsinglright" unicode="&#x203a;" horiz-adv-x="259" 
d="M246 283q2 -3 -1 -8l-137 -151q-5 -5 -10 -5h-12q-12 0 -4 10l137 153l-85 151q-3 7 6 7h11q7 0 9 -4z" />
    <glyph glyph-name="fraction" unicode="&#x2044;" horiz-adv-x="257" 
d="M457 700q11 0 4 -9l-528 -688q-2 -3 -5 -3h-10q-10 0 -5 9l528 688q3 3 6 3h10z" />
    <glyph glyph-name="uni2070" unicode="&#x2070;" horiz-adv-x="372" 
d="M324 830q44 0 70.5 -19t39.5 -49.5t14 -69t-5 -77.5q-7 -39 -21 -77.5t-37 -69t-55.5 -49.5t-76.5 -19q-43 0 -69.5 19t-39.5 49.5t-14.5 69t5.5 77.5q6 39 20 77.5t37 69t55.5 49.5t76.5 19zM321 808q-38 0 -66.5 -17t-48 -44.5t-31 -62t-17.5 -69.5q-6 -34 -6 -69
t10.5 -62.5t33 -45t60.5 -17.5t66.5 17.5t48 45t31.5 62.5t18 69q6 35 5.5 69.5t-11 62t-33 44.5t-60.5 17z" />
    <glyph glyph-name="uni2074" unicode="&#x2074;" horiz-adv-x="358" 
d="M415 517q0 -6 -7 -6h-73l-16 -95q0 -6 -7 -6h-11q-5 0 -5 6l16 95h-193q-4 0 -4 5l1 3q0 3 1 3l208 295q3 3 7 3h13q10 0 3 -9l-200 -279h168l16 96q0 6 7 6h11q5 0 5 -6l-16 -96h73q5 0 5 -6z" />
    <glyph glyph-name="uni2075" unicode="&#x2075;" horiz-adv-x="348" 
d="M413 804q-1 -6 -7 -6h-178l-35 -143h73q69 0 105.5 -31t26.5 -93q-10 -57 -51 -94t-104 -37q-50 0 -82.5 25.5t-37.5 72.5q0 7 6 7l10 3q6 0 6 -5q3 -39 30.5 -60.5t71.5 -21.5q52 0 84.5 29.5t40.5 78.5q9 53 -19.5 79.5t-91.5 26.5h-88q-7 0 -5 6l42 173q0 6 7 6h193
q5 0 5 -6z" />
    <glyph glyph-name="uni2076" unicode="&#x2076;" horiz-adv-x="345" 
d="M345 820q12 0 3 -9l-138 -158q36 22 83 22q29 0 51.5 -10t37.5 -28t21.5 -43t1.5 -56q-11 -63 -57.5 -100.5t-109.5 -37.5q-31 0 -55.5 9.5t-40 26.5t-22 41t-1.5 54q4 26 16 51.5t29 45.5l162 189q3 3 6 3h13zM282 655q-57 0 -93.5 -34.5t-45.5 -85.5q-8 -53 18.5 -83.5
t80.5 -30.5t92 31.5t47 85.5t-18.5 85.5t-80.5 31.5z" />
    <glyph glyph-name="uni2077" unicode="&#x2077;" horiz-adv-x="300" 
d="M163 798q-6 0 -5 6l2 10q0 6 7 6h242q4 0 4 -5l-1 -4v-2l-232 -395q-1 -2 -3 -3t-4 -1h-12q-9 0 -3 8l224 380h-219z" />
    <glyph glyph-name="uni2078" unicode="&#x2078;" horiz-adv-x="342" 
d="M309 830q54 0 84 -27t22 -78q-6 -37 -30 -64.5t-62 -38.5q42 -11 59.5 -39.5t9.5 -70.5q-8 -53 -48.5 -82.5t-105.5 -29.5t-95.5 29.5t-22.5 82.5q8 42 35 70.5t72 39.5q-35 11 -49.5 38.5t-8.5 64.5q8 51 47 78t93 27zM306 809q-43 0 -74 -20t-39 -65q-4 -23 1 -40.5
t16.5 -29t28.5 -17.5t37 -6q41 0 74 23.5t41 69.5q8 44 -17 64.5t-68 20.5zM273 611q-23 0 -44 -5.5t-38.5 -17.5t-29.5 -30.5t-16 -43.5q-8 -49 20 -71t76 -22q47 0 83.5 22t44.5 71q8 50 -21 73.5t-75 23.5z" />
    <glyph glyph-name="uni2079" unicode="&#x2079;" horiz-adv-x="345" 
d="M205 410q-12 0 -3 9l138 158q-36 -22 -82 -22q-28 0 -51.5 10t-38.5 28t-21.5 43t-1.5 56t20 56.5t37.5 43.5t50 28t58.5 10t55.5 -9.5t40.5 -27t22.5 -42t1.5 -54.5q-4 -25 -15.5 -50t-29.5 -45l-162 -189q-1 -3 -6 -3h-13zM268 575q56 0 93.5 34.5t45.5 85.5
q9 53 -18 83t-81 30t-92 -31t-47 -85q-8 -54 19 -85.5t80 -31.5z" />
    <glyph glyph-name="uni2080" unicode="&#x2080;" horiz-adv-x="372" 
d="M220 210q44 0 70.5 -19t39.5 -49.5t14 -69t-5 -77.5q-7 -39 -21 -77.5t-37 -69t-55.5 -49.5t-76.5 -19q-43 0 -69.5 19t-39.5 49.5t-14.5 69t5.5 77.5q6 39 20 77.5t37 69t55.5 49.5t76.5 19zM217 188q-38 0 -66.5 -17t-48 -44.5t-31 -62t-17.5 -69.5q-6 -34 -6 -69
t10.5 -62.5t33 -45t60.5 -17.5t66.5 17.5t48 45t31.5 62.5t18 69q6 35 5.5 69.5t-11 62t-33 44.5t-60.5 17z" />
    <glyph glyph-name="uni2081" unicode="&#x2081;" horiz-adv-x="240" 
d="M192 203q6 0 4 -5l-67 -402q0 -6 -7 -6h-11q-5 0 -5 6l64 381l-103 -33q-6 -2 -6 3l-3 9q-2 6 6 8l114 37q6 2 10 2h4z" />
    <glyph glyph-name="uni2082" unicode="&#x2082;" horiz-adv-x="336" 
d="M76 107q-2 -7 -8 -5l-8 3q-6 2 -4 7q20 46 58 72t91 26t83.5 -26.5t22.5 -78.5q-6 -36 -29.5 -69.5t-70.5 -74.5l-172 -150h219q7 0 5 -6l-2 -9q0 -6 -7 -6h-251q-4 0 -4 5l1 3q0 2 2 4l195 173q44 38 65 68t26 62q8 44 -15.5 64t-65.5 20q-47 0 -80.5 -22t-50.5 -60z
" />
    <glyph glyph-name="uni2083" unicode="&#x2083;" horiz-adv-x="348" 
d="M124 -11q-6 0 -5 6l1 9q2 6 7 6h53q24 0 43.5 8.5t34.5 22t24 31t12 36.5q7 39 -15 60t-69 21q-48 0 -81.5 -21.5t-50.5 -60.5q-1 -5 -8 -5l-9 3q-7 0 -4 7q20 47 59.5 72.5t95.5 25.5q58 0 86.5 -27t20.5 -73q-7 -39 -33.5 -69t-60.5 -41q38 -7 56 -34.5t11 -69.5
q-9 -54 -49.5 -85t-100.5 -31q-55 0 -89.5 25.5t-39.5 72.5q0 7 6 7l10 3q6 0 6 -5q4 -38 33 -60t76 -22q51 0 84 24t41 71q7 41 -14 67t-78 26h-53z" />
    <glyph glyph-name="uni2084" unicode="&#x2084;" horiz-adv-x="358" 
d="M311 -103q0 -6 -7 -6h-73l-16 -95q0 -6 -7 -6h-11q-5 0 -5 6l16 95h-193q-4 0 -4 5l1 3q0 3 1 3l208 295q3 3 7 3h13q10 0 3 -9l-200 -279h168l16 96q0 6 7 6h11q5 0 5 -6l-16 -96h73q5 0 5 -6z" />
    <glyph glyph-name="uni2085" unicode="&#x2085;" horiz-adv-x="348" 
d="M309 184q-1 -6 -7 -6h-178l-35 -143h73q69 0 105.5 -31t26.5 -93q-10 -57 -51 -94t-104 -37q-50 0 -82.5 25.5t-37.5 72.5q0 7 6 7l10 3q6 0 6 -5q3 -39 30.5 -60.5t71.5 -21.5q52 0 84.5 29.5t40.5 78.5q9 53 -19.5 79.5t-91.5 26.5h-88q-7 0 -5 6l42 173q0 6 7 6h193
q5 0 5 -6z" />
    <glyph glyph-name="uni2086" unicode="&#x2086;" horiz-adv-x="345" 
d="M241 200q12 0 3 -9l-138 -158q36 22 83 22q29 0 51.5 -10t37.5 -28t21.5 -43t1.5 -56q-11 -63 -57.5 -100.5t-109.5 -37.5q-31 0 -55.5 9.5t-40 26.5t-22 41t-1.5 54q4 26 16 51.5t29 45.5l162 189q3 3 6 3h13zM178 35q-57 0 -93.5 -34.5t-45.5 -85.5q-8 -53 18.5 -83.5
t80.5 -30.5t92 31.5t47 85.5t-18.5 85.5t-80.5 31.5z" />
    <glyph glyph-name="uni2087" unicode="&#x2087;" horiz-adv-x="300" 
d="M59 178q-6 0 -5 6l2 10q0 6 7 6h242q4 0 4 -5l-1 -4v-2l-232 -395q-1 -2 -3 -3t-4 -1h-12q-9 0 -3 8l224 380h-219z" />
    <glyph glyph-name="uni2088" unicode="&#x2088;" horiz-adv-x="342" 
d="M205 210q54 0 84 -27t22 -78q-6 -37 -30 -64.5t-62 -38.5q42 -11 59.5 -39.5t9.5 -70.5q-8 -53 -48.5 -82.5t-105.5 -29.5t-95.5 29.5t-22.5 82.5q8 42 35 70.5t72 39.5q-35 11 -49.5 38.5t-8.5 64.5q8 51 47 78t93 27zM202 189q-43 0 -74 -20t-39 -65q-4 -23 1 -40.5
t16.5 -29t28.5 -17.5t37 -6q41 0 74 23.5t41 69.5q8 44 -17 64.5t-68 20.5zM169 -9q-23 0 -44 -5.5t-38.5 -17.5t-29.5 -30.5t-16 -43.5q-8 -49 20 -71t76 -22q47 0 83.5 22t44.5 71q8 50 -21 73.5t-75 23.5z" />
    <glyph glyph-name="uni2089" unicode="&#x2089;" horiz-adv-x="345" 
d="M101 -210q-12 0 -3 9l138 158q-36 -22 -82 -22q-28 0 -51.5 10t-38.5 28t-21.5 43t-1.5 56t20 56.5t37.5 43.5t50 28t58.5 10t55.5 -9.5t40.5 -27t22.5 -42t1.5 -54.5q-4 -25 -15.5 -50t-29.5 -45l-162 -189q-1 -3 -6 -3h-13zM164 -45q56 0 93.5 34.5t45.5 85.5
q9 53 -18 83t-81 30t-92 -31t-47 -85q-8 -54 19 -85.5t80 -31.5z" />
    <glyph glyph-name="Euro" unicode="&#x20ac;" horiz-adv-x="604" 
d="M109 384q-6 0 -5 6l2 11q2 6 7 6h58q13 53 36.5 105.5t58.5 94t84 67.5t113 26q71 0 115 -32t65 -83q2 -5 -3 -8l-12 -7q-5 -3 -8 3q-18 47 -57 75.5t-103 28.5q-59 0 -103 -24.5t-75.5 -63.5t-51.5 -87t-32 -95h267q7 0 4 -8l-5 -11q-1 -4 -6 -4h-349zM92 283q-6 0 -5 6
l2 11q2 6 7 6h336q10 0 5 -8l-6 -11q-2 -4 -6 -4h-248q-4 -48 -0.5 -96.5t22 -87.5t55.5 -63.5t98 -24.5q67 0 113 29.5t80 77.5q4 6 9 2l10 -7q3 -3 0 -8q-38 -52 -89 -84.5t-126 -32.5q-66 0 -107 26.5t-63 68.5t-27 94.5t-1 105.5h-59z" />
    <glyph glyph-name="uni20BA" unicode="&#x20ba;" horiz-adv-x="687" 
d="M111 386q-7 -3 -6 5l1 10q0 4 5 5l142 50l40 238q2 6 7 6h14q7 0 5 -6l-39 -229l264 90q8 3 7 -6l-1 -7q0 -5 -8 -8zM88 292q0 4 4 5l434 150q8 3 7 -6l-1 -8q0 -5 -8 -8l-265 -91l-51 -302q29 -10 59 -14.5t59 -4.5q55 0 105.5 13.5t92 45t71.5 83.5t45 130q2 6 7 6
l11 -1q8 -1 6 -8q-13 -78 -43.5 -133t-75 -90.5t-100.5 -52t-120 -16.5q-32 0 -69.5 5.5t-71.5 15.5q-5 2 -4 6l51 308l-138 -48q-7 -3 -6 5z" />
    <glyph glyph-name="uni20BD" unicode="&#x20bd;" horiz-adv-x="621" 
d="M238 694q2 6 7 6h206q110 0 161.5 -56t35.5 -154q-17 -97 -87 -153.5t-180 -56.5h-289q-6 0 -5 6l2 12q2 6 7 6h77zM200 304h181q104 0 164.5 49t75.5 137q14 89 -30.5 138t-147.5 49h-181zM68 175q2 6 7 6h370q7 0 5 -6l-2 -10q-1 -6 -7 -6h-266l-25 -153q-1 -6 -7 -6
h-15q-6 0 -5 6l25 153h-77q-6 0 -5 6z" />
    <glyph glyph-name="uni2113" unicode="&#x2113;" horiz-adv-x="508" 
d="M104 256q-6 0 -6 6v11q0 6 6 6q19 1 36 2.5t33 4.5q1 90 14.5 164t38 127.5t58.5 82.5t76 29q44 0 71 -32.5t27 -94.5q0 -116 -65.5 -192t-193.5 -102q1 -69 11.5 -117.5t28.5 -79.5t43 -45.5t54 -14.5q44 0 95 34q6 3 9 -2l5 -9q3 -4 -1 -8q-26 -18 -53.5 -28t-56.5 -10
q-73 0 -116 69t-45 206q-17 -3 -34 -4.5t-35 -2.5zM199 290q120 24 179 94t59 179q0 57 -23 80.5t-55 23.5q-37 0 -66.5 -28.5t-50 -78.5t-31.5 -119.5t-12 -150.5z" />
    <glyph glyph-name="uni2116" unicode="&#x2116;" horiz-adv-x="1096" 
d="M1011 707q33 0 59 -12t42.5 -33.5t23 -50t1.5 -61.5q-6 -33 -22 -62t-40 -50t-54 -33t-63 -12t-59 12t-42.5 33t-23 50t-0.5 62q5 33 21 61.5t40 50t54 33.5t63 12zM721 700q5 0 5 -6l-116 -693q0 -6 -7 -6h-3q-3 0 -6 5l-363 649l-107 -643q-1 -6 -7 -6h-14q-6 0 -5 6
l115 693q2 6 7 6h3q4 0 6 -3l363 -651l108 643q0 6 7 6h14zM1007 685q-29 0 -54.5 -10.5t-45.5 -28.5t-33 -42.5t-18 -53.5q-10 -58 19 -97t87 -39q29 0 54 10.5t45.5 28.5t34 43t18.5 54t-0.5 53.5t-20 42.5t-36 28.5t-50.5 10.5zM791 262q-6 0 -5 6l2 12q2 6 7 6h292
q7 0 5 -6l-2 -12q-1 -6 -7 -6h-292z" />
    <glyph glyph-name="trademark" unicode="&#x2122;" horiz-adv-x="545" 
d="M335 700q7 0 5 -6l-2 -9q-1 -6 -7 -6h-71l-37 -223q-1 -6 -7 -6h-9q-6 0 -5 6l37 223h-69q-6 0 -5 6l2 9q2 6 7 6h161zM606 700q7 0 5 -6l-41 -238q-1 -6 -7 -6h-9q-6 0 -5 6l35 205l-113 -143q-1 -2 -3 -2t-3 2l-66 147l-35 -209q-1 -6 -7 -6h-9q-6 0 -5 6l40 238
q2 6 7 6h12q3 0 4 -3l66 -146l115 146q2 3 6 3h13z" />
    <glyph glyph-name="uni2126" unicode="&#x2126;" horiz-adv-x="866" 
d="M545 713q76 0 137 -23t102.5 -65.5t60 -103.5t10.5 -137q-6 -54 -26.5 -106t-56.5 -99t-89 -88t-125 -73l214 6q7 0 5 -6l-2 -12q-1 -6 -7 -6h-269q-4 0 -3 4l1 4q1 4 5 5q154 65 233.5 160t92.5 210q8 71 -8.5 128t-53.5 97t-93 61t-127 21q-72 0 -136 -21t-114.5 -61
t-84.5 -97t-46 -128q-9 -56 -4.5 -108.5t28 -100t68 -88.5t114.5 -74q4 -1 3 -5l-1 -4q-1 -3 -6 -3h-269q-6 0 -5 6l2 12q2 6 7 6l213 -6q-59 32 -97 73t-58.5 88.5t-25 99.5t4.5 105q13 76 49.5 137t90.5 103.5t122 65.5t144 23z" />
    <glyph glyph-name="estimated" unicode="&#x212e;" horiz-adv-x="802" 
d="M777 298q0 -5 -2.5 -10t-7.5 -5h-524v-170q18 -20 42.5 -36t53 -27.5t59 -18t60.5 -6.5q33 0 67.5 8t66 22t59 34.5t46.5 44.5q3 5 9 1l14 -12q4 -4 0 -8q-46 -53 -114.5 -84t-149.5 -31q-70 0 -130 24t-103.5 65t-68 97t-24.5 119q0 64 24.5 119.5t68 97t103 65.5
t128.5 24q67 0 125.5 -23.5t102.5 -65t69.5 -99t25.5 -125.5zM660 501q-35 37 -89 59.5t-114 22.5q-31 0 -62.5 -6.5t-59.5 -17.5t-51.5 -26.5t-40.5 -32.5v-189h417v190z" />
    <glyph glyph-name="arrowleft" unicode="&#x2190;" horiz-adv-x="893" 
d="M854 344q0 -3 -3 -3h-661l285 -285q6 -6 -2 -6h-16q-3 0 -4 1l-297 297q-2 2 0 4l297 297q1 1 4 1h16q8 0 2 -6l-285 -285h661q3 0 3 -3v-12z" />
    <glyph glyph-name="arrowup" unicode="&#x2191;" horiz-adv-x="795" 
d="M762 401l1 -2l-1 -18q0 -7 -5 -2l-284 285v-661q0 -3 -3 -3h-13q-3 0 -3 3v661l-285 -285q-5 -5 -5 2l-1 18q0 1 1 2l297 297q2 2 4 0z" />
    <glyph glyph-name="arrowright" unicode="&#x2192;" horiz-adv-x="893" 
d="M557 51l-2 -1h-18q-8 0 -2 6l285 285h-661q-3 0 -3 3v12q0 3 3 3h661l-285 285q-6 6 2 6h18q1 0 2 -1l297 -297q2 -2 0 -4z" />
    <glyph glyph-name="arrowdown" unicode="&#x2193;" horiz-adv-x="795" 
d="M456 700q3 0 3 -3v-661l284 285q5 5 5 -2l1 -18q0 -1 -1 -2l-297 -297q-2 -2 -4 0l-297 297l-1 2l1 18q0 7 5 2l285 -285v661q0 3 3 3h13z" />
    <glyph glyph-name="arrowboth" unicode="&#x2194;" horiz-adv-x="1070" 
d="M1031 352q2 -2 0 -4l-249 -249l-2 -1l-18 1q-7 0 -2 5l237 237h-807l237 -237q5 -5 -2 -5l-18 -1q-1 0 -2 1l-249 249q-2 2 0 4l249 249l2 1l18 -1q7 0 2 -5l-237 -237h807l-236 237q-5 5 2 5l18 1q1 0 2 -1z" />
    <glyph glyph-name="arrowupdn" unicode="&#x2195;" horiz-adv-x="809" 
d="M461 787q2 2 4 0l249 -249l1 -2l-1 -18q0 -7 -5 -2l-237 237v-807l237 236q5 5 5 -2l1 -18q0 -1 -1 -2l-249 -248q-2 -2 -4 0l-249 249l-1 2l1 18q0 7 5 2l236 -237v807l-236 -237q-5 -5 -5 2l-1 18q0 1 1 2z" />
    <glyph glyph-name="uni2196" unicode="&#x2196;" horiz-adv-x="799" 
d="M219 584q0 3 3 3h420q1 0 2 -1l11 -12q5 -5 -2 -5l-403 -1l468 -467q2 -2 0 -4l-9 -9q-2 -2 -4 0l-467 468v-403q0 -7 -5 -2l-13 11l-1 2v420z" />
    <glyph glyph-name="uni2197" unicode="&#x2197;" horiz-adv-x="724" 
d="M627 587q3 0 3 -3v-420q0 -1 -1 -2l-13 -11q-5 -5 -5 2v403l-467 -468q-2 -2 -4 0l-9 9q-2 2 0 4l468 467l-403 1q-7 0 -2 5l11 12l2 1h420z" />
    <glyph glyph-name="uni2198" unicode="&#x2198;" horiz-adv-x="799" 
d="M203 588q2 2 4 0l467 -468v403q0 7 5 2l13 -11l1 -2v-420q0 -3 -3 -3h-420q-1 0 -2 1l-11 12q-5 5 2 5l403 1l-468 467q-2 2 0 4z" />
    <glyph glyph-name="uni2199" unicode="&#x2199;" horiz-adv-x="724" 
d="M210 89q-3 0 -3 3v420q0 1 1 2l13 11q5 5 5 -2v-403l467 468q2 2 4 0l9 -9q2 -2 0 -4l-468 -467l403 -1q7 0 2 -5l-11 -12l-2 -1h-420z" />
    <glyph glyph-name="partialdiff" unicode="&#x2202;" horiz-adv-x="587" 
d="M382 466q73 0 118 -32.5t62 -83.5q16 50 23 91q19 116 -15 182.5t-129 66.5q-38 0 -74 -10.5t-68 -27.5q-6 -3 -9 3l-5 10q-2 5 3 8q76 40 154 40q55 0 92.5 -19.5t57.5 -55.5t24.5 -87t-6.5 -113q-9 -51 -25 -104.5t-40 -104t-55 -94.5t-70 -77t-86 -52t-103 -19
q-44 0 -75.5 15t-50.5 42t-25 63t1 78q9 57 34.5 108.5t64 89.5t90 60.5t112.5 22.5zM382 444q-55 0 -102 -21t-82.5 -56t-58.5 -82t-32 -98q-6 -39 -1 -71.5t21 -56t43.5 -36.5t66.5 -13q59 0 108 26t88 69t68.5 97t48.5 109q-11 59 -56 96t-112 37z" />
    <glyph glyph-name="uni2206" unicode="&#x2206;" horiz-adv-x="695" 
d="M456 696q3 4 6 4h5q4 0 5 -4l163 -688q2 -8 -7 -8h-561q-10 0 -5 8zM99 24h507l-147 635z" />
    <glyph glyph-name="product" unicode="&#x220f;" horiz-adv-x="704" 
d="M719 700q7 0 5 -6l-137 -819q-1 -6 -7 -6h-15q-6 0 -5 6l134 801h-458l-134 -801q-1 -6 -7 -6h-14q-6 0 -5 6l137 819q2 6 7 6h499z" />
    <glyph glyph-name="summation" unicode="&#x2211;" horiz-adv-x="656" 
d="M703 682q-1 -6 -7 -6h-471l222 -380q3 -7 2 -12l-1 -5q-1 -7 -8 -14l-339 -381h463q5 0 5 -6l-2 -12q-1 -6 -7 -6h-497q-6 0 -5 6l1 6q1 3 2.5 6t6.5 8l355 399l-228 391q-5 6 -3 14l1 4q2 6 7 6h500q7 0 5 -6z" />
    <glyph glyph-name="minus" unicode="&#x2212;" horiz-adv-x="525" 
d="M512 271q-1 -6 -7 -6h-396q-6 0 -5 6l2 11q2 6 7 6h396q7 0 5 -6z" />
    <glyph glyph-name="radical" unicode="&#x221a;" horiz-adv-x="654" 
d="M107 275q-2 6 3 8l12 4q7 2 8 -3l110 -382l456 855q2 4 6 4h13q9 0 4 -8l-474 -884q-2 -4 -5 -4h-4q-4 0 -6 3z" />
    <glyph glyph-name="infinity" unicode="&#x221e;" horiz-adv-x="798" 
d="M283 471q33 0 58.5 -11.5t46.5 -30t38.5 -42.5t33.5 -50q24 25 49.5 49t52 42.5t55 30t59.5 11.5q30 0 54.5 -11t40 -31t22 -47.5t0.5 -61.5q-13 -72 -60 -111.5t-110 -39.5q-32 0 -56.5 11t-44.5 29.5t-36.5 42.5t-31.5 49q-24 -25 -49.5 -49t-52.5 -42.5t-56.5 -30
t-61.5 -11.5q-31 0 -56 11t-41 31t-22.5 48t-2.5 62q5 35 20.5 63.5t38.5 48t52 30t60 10.5zM281 449q-54 0 -94.5 -34t-48.5 -96q-7 -59 19.5 -94t78.5 -35q29 0 55 10.5t51.5 28.5t50.5 41.5t50 48.5q-15 26 -31.5 49.5t-35.5 41.5t-42.5 28.5t-52.5 10.5zM472 319
q15 -25 30.5 -48t34 -41t41 -28.5t50.5 -10.5q52 0 90.5 35t48.5 93t-17 93t-79 35q-28 0 -54 -10.5t-50 -28.5t-47.5 -41t-47.5 -48z" />
    <glyph glyph-name="integral" unicode="&#x222b;" horiz-adv-x="293" 
d="M386 784q0 -6 -7 -6q-34 -1 -57.5 -9.5t-38.5 -25t-23.5 -40.5t-11.5 -55l-71 -667q-5 -44 -16 -78t-30.5 -57t-48.5 -34.5t-71 -11.5q-6 0 -5 6l2 10q2 6 7 6q35 1 58.5 11t39 28.5t24 45t12.5 61.5l73 677q8 74 43.5 113.5t116.5 41.5q5 0 5 -6z" />
    <glyph glyph-name="approxequal" unicode="&#x2248;" horiz-adv-x="546" 
d="M555 436q5 -2 3 -7q-35 -99 -118 -99q-35 0 -60.5 14t-48.5 33q-20 16 -42.5 29t-52.5 13q-35 0 -60 -19.5t-39 -62.5q-1 -6 -8 -4l-10 3q-5 2 -3 7q36 97 123 97q35 0 59.5 -14t52.5 -36q17 -13 38 -25.5t52 -12.5q69 0 98 81q2 7 8 5zM521 227q5 -2 3 -7
q-35 -99 -119 -99q-35 0 -60.5 14t-48.5 34q-20 16 -42.5 29t-52.5 13q-71 0 -99 -82q-2 -7 -8 -5l-10 3q-5 2 -3 7q35 97 123 97q35 0 59.5 -14t52.5 -36q17 -13 38 -25t52 -12q35 0 59 19t39 62q2 7 9 5z" />
    <glyph glyph-name="notequal" unicode="&#x2260;" horiz-adv-x="516" 
d="M519 372q-1 -6 -7 -6h-129l-115 -179h214q7 0 5 -6l-2 -10q-1 -6 -7 -6h-225l-105 -163q-1 -3 -6 -3h-14q-8 0 -2 9l101 157h-135q-6 0 -5 6l2 10q2 6 7 6h147l115 179h-232q-6 0 -5 6l2 10q2 6 7 6h243l96 150q2 3 6 3h14q8 0 2 -9l-93 -144h118q7 0 5 -6z" />
    <glyph glyph-name="lessequal" unicode="&#x2264;" horiz-adv-x="524" 
d="M493 163q-2 -9 -10 -5l-364 183q-4 2 -2 5l1 6q0 4 3 5l426 183q10 5 8 -5l-2 -13q0 -4 -5 -6l-394 -167l338 -167q5 -2 3 -6zM476 97q7 0 5 -6l-2 -11q0 -6 -7 -6h-394q-5 0 -5 6l2 11q2 6 7 6h394z" />
    <glyph glyph-name="greaterequal" unicode="&#x2265;" horiz-adv-x="524" 
d="M94 158q-10 -5 -8 5l2 13q3 5 5 6l394 167l-338 167q-3 1 -3 6l2 13q2 9 10 5l364 -183q3 -1 3 -4l-2 -8q0 -2 -3 -4zM74 91q2 6 7 6h394q7 0 5 -6l-2 -11q0 -6 -7 -6h-394q-5 0 -5 6z" />
    <glyph glyph-name="house" unicode="&#x2302;" horiz-adv-x="816" 
d="M444 698q2 2 4 0l271 -247l1 -2v-446q0 -3 -3 -3h-542q-3 0 -3 3v446q0 1 1 2zM192 441v-421h508v421l-254 232z" />
    <glyph glyph-name="uni2460" unicode="&#x2460;" horiz-adv-x="1131" 
d="M624 813q98 0 182.5 -35.5t146.5 -98t97.5 -147t35.5 -182.5t-35.5 -182.5t-97.5 -147t-146.5 -98t-182.5 -35.5t-182.5 35.5t-146.5 98t-97.5 147t-35.5 182.5t35.5 182.5t97.5 147t146.5 98t182.5 35.5zM624 795q-96 0 -177.5 -34t-140 -94t-91.5 -141.5t-33 -175.5
t33 -175.5t91.5 -141.5t140 -94t177.5 -34t177.5 34t140 94t91.5 141.5t33 175.5t-33 175.5t-91.5 141.5t-140 94t-177.5 34zM642 619q3 0 3 -3v-544q0 -3 -3 -3h-14q-3 0 -3 3v525l-139 -50q-2 -1 -4 2l-4 13q-1 2 2 4l157 53h5z" />
    <glyph glyph-name="uni2461" unicode="&#x2461;" horiz-adv-x="1131" 
d="M624 813q98 0 182.5 -35.5t146.5 -98t97.5 -147t35.5 -182.5t-35.5 -182.5t-97.5 -147t-146.5 -98t-182.5 -35.5t-182.5 35.5t-146.5 98t-97.5 147t-35.5 182.5t35.5 182.5t97.5 147t146.5 98t182.5 35.5zM624 795q-96 0 -177.5 -34t-140 -94t-91.5 -141.5t-33 -175.5
t33 -175.5t91.5 -141.5t140 -94t177.5 -34t177.5 34t140 94t91.5 141.5t33 175.5t-33 175.5t-91.5 141.5t-140 94t-177.5 34zM469 492q-2 -3 -4 -2l-12 2q-3 2 -2 4q13 64 60 99t119 35q34 0 63 -8.5t50 -25.5t32.5 -43t11.5 -61q0 -46 -23.5 -90.5t-78.5 -100.5l-208 -213
h310q3 0 3 -3v-12q0 -3 -3 -3h-340q-3 0 -3 3v4q0 1 1 2l226 234q51 53 73.5 94t22.5 85q0 63 -38 91.5t-98 28.5q-66 0 -108 -31t-54 -89z" />
    <glyph glyph-name="uni2462" unicode="&#x2462;" horiz-adv-x="1131" 
d="M624 813q98 0 182.5 -35.5t146.5 -98t97.5 -147t35.5 -182.5t-35.5 -182.5t-97.5 -147t-146.5 -98t-182.5 -35.5t-182.5 35.5t-146.5 98t-97.5 147t-35.5 182.5t35.5 182.5t97.5 147t146.5 98t182.5 35.5zM624 795q-96 0 -177 -34t-139.5 -94t-91.5 -141.5t-33 -175.5
t33 -175.5t91.5 -141.5t139.5 -94t177 -34t177 34t139.5 94t91.5 141.5t33 175.5t-33 175.5t-91.5 141.5t-139.5 94t-177 34zM556 344q-3 0 -3 3v11q0 3 3 3h80q34 0 59 12t42 31t25.5 43t8.5 49q0 54 -37.5 85t-104.5 31t-109.5 -31.5t-53.5 -88.5q-2 -3 -4 -2l-13 2
q-3 2 -2 4q14 64 60.5 99t120.5 35q76 0 120 -36.5t44 -97.5q0 -51 -29 -90t-72 -53q52 -10 82.5 -46t30.5 -93q0 -36 -12.5 -65t-35.5 -48.5t-55 -30t-71 -10.5q-36 0 -67.5 9t-56.5 26.5t-42.5 42.5t-24.5 56q-1 2 2 4l13 3q2 1 4 -2q12 -57 59.5 -88.5t114.5 -31.5
q69 0 110 34t41 100q0 28 -8 52t-26 41.5t-46 27.5t-67 10h-80z" />
    <glyph glyph-name="uni2463" unicode="&#x2463;" horiz-adv-x="1131" 
d="M624 813q98 0 182.5 -35.5t146.5 -98t97.5 -147t35.5 -182.5t-35.5 -182.5t-97.5 -147t-146.5 -98t-182.5 -35.5t-182.5 35.5t-146.5 98t-97.5 147t-35.5 182.5t35.5 182.5t97.5 147t146.5 98t182.5 35.5zM624 795q-96 0 -177.5 -34t-140 -94t-91.5 -141.5t-33 -175.5
t33 -175.5t91.5 -141.5t140 -94t177.5 -34t177.5 34t140 94t91.5 141.5t33 175.5t-33 175.5t-91.5 141.5t-140 94t-177.5 34zM816 215q0 -3 -3 -3h-107v-140q0 -3 -3 -3h-14q-3 0 -3 3v140h-271q-3 0 -3 3v6l219 396q2 2 3 2h15q5 0 3 -4l-215 -385h249v136q0 3 3 3h14
q3 0 3 -3v-136h107q3 0 3 -3v-12z" />
    <glyph glyph-name="uni2464" unicode="&#x2464;" horiz-adv-x="1131" 
d="M624 813q98 0 182.5 -35.5t146.5 -98t97.5 -147t35.5 -182.5t-35.5 -182.5t-97.5 -147t-146.5 -98t-182.5 -35.5t-182.5 35.5t-146.5 98t-97.5 147t-35.5 182.5t35.5 182.5t97.5 147t146.5 98t182.5 35.5zM624 795q-96 0 -177.5 -34t-140 -94t-91.5 -141.5t-33 -175.5
t33 -175.5t91.5 -141.5t140 -94t177.5 -34t177.5 34t140 94t91.5 141.5t33 175.5t-33 175.5t-91.5 141.5t-140 94t-177.5 34zM764 604q0 -3 -3 -3h-245l-15 -203h103q94 0 147.5 -42.5t53.5 -123.5q0 -38 -12 -70t-34.5 -55t-55 -35.5t-73.5 -12.5q-68 0 -116 35.5t-62 98.5
q-1 2 2 4l13 2q2 1 4 -2q11 -57 54.5 -88t105.5 -31q73 0 113.5 41.5t40.5 110.5q0 74 -47.5 111.5t-137.5 37.5h-116q-3 0 -3 3l17 234q0 3 3 3h260q3 0 3 -3v-12z" />
    <glyph glyph-name="uni2465" unicode="&#x2465;" horiz-adv-x="1131" 
d="M624 813q98 0 182.5 -35.5t146.5 -98t97.5 -147t35.5 -182.5t-35.5 -182.5t-97.5 -147t-146.5 -98t-182.5 -35.5t-182.5 35.5t-146.5 98t-97.5 147t-35.5 182.5t35.5 182.5t97.5 147t146.5 98t182.5 35.5zM624 795q-96 0 -177.5 -34t-140 -94t-91.5 -141.5t-33 -175.5
t33 -175.5t91.5 -141.5t140 -94t177.5 -34t177.5 34t140 94t91.5 141.5t33 175.5t-33 175.5t-91.5 141.5t-140 94t-177.5 34zM664 619q6 0 3 -5l-158 -218q22 16 51 24t60 8q39 0 72 -13.5t58 -37.5t39 -57.5t14 -74.5q0 -42 -14 -76t-39.5 -58t-60.5 -37t-77 -13
q-40 0 -74.5 12.5t-59.5 35.5t-39 55.5t-14 71.5q0 32 10 66t29 60l180 256h1l1 1h1h17zM614 410q-39 0 -70.5 -13t-53.5 -36.5t-33.5 -54.5t-11.5 -67q0 -37 12.5 -67t34.5 -50.5t52.5 -31.5t67.5 -11q38 0 69.5 11.5t54 33.5t35 52.5t12.5 67.5q0 38 -12.5 68.5t-35 52
t-53.5 33.5t-68 12z" />
    <glyph glyph-name="uni2466" unicode="&#x2466;" horiz-adv-x="1131" 
d="M624 813q98 0 182.5 -35.5t146.5 -98t97.5 -147t35.5 -182.5t-35.5 -182.5t-97.5 -147t-146.5 -98t-182.5 -35.5t-182.5 35.5t-146.5 98t-97.5 147t-35.5 182.5t35.5 182.5t97.5 147t146.5 98t182.5 35.5zM624 795q-96 0 -177.5 -34t-140 -94t-91.5 -141.5t-33 -175.5
t33 -175.5t91.5 -141.5t140 -94t177.5 -34t177.5 34t140 94t91.5 141.5t33 175.5t-33 175.5t-91.5 141.5t-140 94t-177.5 34zM469 563q-3 0 -3 3v12q0 3 3 3h324q3 0 3 -3v-3q0 -2 -1 -5l-226 -537q-2 -2 -3 -2h-14q-5 0 -3 4l226 528h-306z" />
    <glyph glyph-name="uni2467" unicode="&#x2467;" horiz-adv-x="1131" 
d="M624 813q98 0 182.5 -35.5t146.5 -98t97.5 -147t35.5 -182.5t-35.5 -182.5t-97.5 -147t-146.5 -98t-182.5 -35.5t-182.5 35.5t-146.5 98t-97.5 147t-35.5 182.5t35.5 182.5t97.5 147t146.5 98t182.5 35.5zM624 795q-96 0 -177 -34t-139.5 -94t-91.5 -141.5t-33 -175.5
t33 -175.5t91.5 -141.5t139.5 -94t177 -34t177 34t139.5 94t91.5 141.5t33 175.5t-33 175.5t-91.5 141.5t-139.5 94t-177 34zM619 630q35 0 64.5 -8.5t51 -26t34 -44t12.5 -61.5q0 -50 -26 -85t-75 -49q57 -14 87.5 -52t30.5 -94q0 -70 -47 -110t-132 -40t-132 40t-47 110
q0 56 30.5 94t88.5 52q-49 14 -75.5 49t-26.5 86q0 35 12.5 61t34 43.5t51.5 26t64 8.5zM619 612q-62 0 -101.5 -29t-39.5 -91q0 -32 11 -56t30 -40t45 -24t55 -8t55 8t45 24t30 40t11 56q0 62 -39.5 91t-101.5 29zM619 345q-32 0 -61 -8t-50.5 -24.5t-34 -41.5t-12.5 -60
t12.5 -60t34 -41t50 -23.5t61.5 -7.5t61.5 7.5t50 23.5t34 41t12.5 60t-12.5 60t-34 41.5t-50.5 24.5t-61 8z" />
    <glyph glyph-name="uni2468" unicode="&#x2468;" horiz-adv-x="1131" 
d="M624 813q98 0 182.5 -35.5t146.5 -98t97.5 -147t35.5 -182.5t-35.5 -182.5t-97.5 -147t-146.5 -98t-182.5 -35.5t-182.5 35.5t-146.5 98t-97.5 147t-35.5 182.5t35.5 182.5t97.5 147t146.5 98t182.5 35.5zM624 795q-96 0 -177.5 -34t-140 -94t-91.5 -141.5t-33 -175.5
t33 -175.5t91.5 -141.5t140 -94t177.5 -34t177.5 34t140 94t91.5 141.5t33 175.5t-33 175.5t-91.5 141.5t-140 94t-177.5 34zM574 47q-6 0 -3 5l160 220q-22 -16 -50.5 -24t-59.5 -8q-39 0 -72.5 13t-58 37t-38.5 58t-14 75t14 75t39.5 58t60 37.5t76.5 13.5q41 0 75 -12.5
t58.5 -35.5t38.5 -55.5t14 -71.5q0 -32 -9.5 -66.5t-28.5 -60.5l-182 -257q-1 -1 -3 -1h-17zM625 257q40 0 71.5 14t53 37.5t33 54.5t11.5 66q0 74 -46 117t-120 43q-38 0 -69 -11.5t-53.5 -33.5t-35 -52t-12.5 -68t12 -69t34 -52.5t53 -33.5t68 -12z" />
    <glyph glyph-name="uni24D5" unicode="&#x24d5;" horiz-adv-x="912" 
d="M514 721q80 0 148.5 -29t119 -79.5t79.5 -119t29 -148.5q0 -79 -29 -148t-79.5 -119.5t-119 -79.5t-148.5 -29q-79 0 -148 29t-119.5 79.5t-79.5 119.5t-29 148q0 80 29 148.5t79.5 119t119.5 79.5t148 29zM514 703q-77 0 -142.5 -28t-113 -76t-74 -113.5t-26.5 -140.5
t26.5 -140.5t74 -113.5t113 -76t142.5 -28t142.5 28t113 76t74 113.5t26.5 140.5t-26.5 140.5t-74 113.5t-113 76t-142.5 28zM607 388q0 -3 -3 -3h-112v-276q0 -3 -3 -3h-12q-3 0 -3 3v276h-67q-3 0 -3 3v10q0 3 3 3h67v53q0 59 27 84.5t63 25.5q26 0 47 -6t37 -15q3 0 1 -4
l-5 -9q0 -1 -4 -1q-17 8 -35 13t-40 5q-12 0 -25 -3.5t-23.5 -14t-17.5 -29.5t-7 -49v-50h112q3 0 3 -3v-10z" />
    <glyph glyph-name="uni24E3" unicode="&#x24e3;" horiz-adv-x="912" 
d="M514 721q80 0 148.5 -29t119 -79.5t79.5 -119t29 -148.5q0 -79 -29 -148t-79.5 -119.5t-119 -79.5t-148.5 -29q-79 0 -148 29t-119.5 79.5t-79.5 119.5t-29 148q0 80 29 148.5t79.5 119t119.5 79.5t148 29zM514 703q-77 0 -142.5 -28t-113 -76t-74 -113.5t-26.5 -140.5
t26.5 -140.5t74 -113.5t113 -76t142.5 -28t142.5 28t113 76t74 113.5t26.5 140.5t-26.5 140.5t-74 113.5t-113 76t-142.5 28zM490 535q3 0 3 -3v-89h101q3 0 3 -3v-10q0 -3 -3 -3h-101v-217q0 -28 10 -43.5t42 -15.5q23 0 51 14q4 2 4 -1l5 -10q3 -3 -1 -3
q-15 -9 -31.5 -13.5t-29.5 -4.5q-37 0 -52.5 19.5t-15.5 54.5v220h-71q-3 0 -3 3v10q0 3 3 3h72l7 89q0 3 3 3h4z" />
    <glyph glyph-name="uni24EA" unicode="&#x24ea;" horiz-adv-x="1131" 
d="M624 813q98 0 182.5 -35.5t146.5 -98t97.5 -147t35.5 -182.5t-35.5 -182.5t-97.5 -147t-146.5 -98t-182.5 -35.5t-182.5 35.5t-146.5 98t-97.5 147t-35.5 182.5t35.5 182.5t97.5 147t146.5 98t182.5 35.5zM624 795q-96 0 -177 -34t-139.5 -94t-91.5 -141.5t-33 -175.5
t33 -175.5t91.5 -141.5t139.5 -94t177 -34t177 34t139.5 94t91.5 141.5t33 175.5t-33 175.5t-91.5 141.5t-139.5 94t-177 34zM624 630q60 0 99 -25.5t62.5 -66.5t33 -92t9.5 -101t-9.5 -100.5t-33 -91.5t-62.5 -67t-99 -26q-59 0 -98 26t-62.5 67t-33.5 91.5t-10 100.5
t10 101t33.5 92t62.5 66.5t98 25.5zM624 612q-54 0 -89.5 -24.5t-56.5 -63t-29 -86t-8 -93.5q0 -45 8 -92.5t28.5 -86t56 -63t90.5 -24.5t90.5 24.5t56 63t28.5 86t8 92.5q0 46 -8 93.5t-28.5 86t-56 63t-90.5 24.5z" />
    <glyph glyph-name="uni24FF" unicode="&#x24ff;" horiz-adv-x="1131" 
d="M624 813q98 0 182.5 -35.5t146.5 -98t97.5 -147t35.5 -182.5t-35.5 -182.5t-97.5 -147t-146.5 -98t-182.5 -35.5t-182.5 35.5t-146.5 98t-97.5 147t-35.5 182.5t35.5 182.5t97.5 147t146.5 98t182.5 35.5zM624 630q-59 0 -98 -25.5t-62.5 -66.5t-33.5 -92t-10 -101
t10 -100.5t33.5 -91.5t62.5 -67t98 -26q60 0 99 26t62.5 67t33 91.5t9.5 100.5t-9.5 101t-33 92t-62.5 66.5t-99 25.5zM624 612q55 0 90.5 -24.5t56 -63t28.5 -86t8 -93.5q0 -45 -8 -92.5t-28.5 -86t-56 -63t-90.5 -24.5t-90.5 24.5t-56 63t-28.5 86t-8 92.5q0 46 8 93.5
t29 86t56.5 63t89.5 24.5z" />
    <glyph glyph-name="filledbox" unicode="&#x25a0;" horiz-adv-x="1247" 
d="M233 -100q-3 0 -3 3v894q0 3 3 3h898q3 0 3 -3v-894q0 -3 -3 -3h-898z" />
    <glyph glyph-name="uni25A1" unicode="&#x25a1;" horiz-adv-x="1247" 
d="M233 -100q-3 0 -3 3v894q0 3 3 3h898q3 0 3 -3v-894q0 -3 -3 -3h-898zM1114 -82v864h-864v-864h864z" />
    <glyph glyph-name="uni25AA" unicode="&#x25aa;" horiz-adv-x="643" 
d="M255 222q-3 0 -3 3v250q0 3 3 3h250q3 0 3 -3v-250q0 -3 -3 -3h-250z" />
    <glyph glyph-name="triagup" unicode="&#x25b2;" horiz-adv-x="800" 
d="M85 50q-5 0 -3 4l315 591q3 5 6 0l315 -591q2 -4 -3 -4h-630z" />
    <glyph glyph-name="uni25B6" unicode="&#x25b6;" horiz-adv-x="780" 
d="M104 37q-4 -2 -4 3v630q0 5 4 3l591 -315q5 -3 0 -6z" />
    <glyph glyph-name="triagdn" unicode="&#x25bc;" horiz-adv-x="800" 
d="M715 630q5 0 3 -4l-315 -591q-3 -4 -6 0l-315 591q-2 4 3 4h630z" />
    <glyph glyph-name="uni25C0" unicode="&#x25c0;" horiz-adv-x="780" 
d="M680 40q0 -5 -4 -3l-591 315q-4 3 0 6l591 315q4 2 4 -3v-630z" />
    <glyph glyph-name="lozenge" unicode="&#x25ca;" horiz-adv-x="587" 
d="M596 349q1 -2 -1 -6l-286 -350q-1 -3 -5 -3h-16q-3 0 -5 3l-176 350q-1 2 1 6l287 358q3 3 6 3h16q3 0 4 -3zM406 685l-272 -342l164 -328l273 334z" />
    <glyph glyph-name="circle" unicode="&#x25cb;" horiz-adv-x="1087" 
d="M602 813q98 0 182.5 -35.5t146.5 -98t97.5 -147t35.5 -182.5t-35.5 -182.5t-97.5 -147t-146.5 -98t-182.5 -35.5t-182.5 35.5t-146.5 98t-97.5 147t-35.5 182.5t35.5 182.5t97.5 147t146.5 98t182.5 35.5zM602 795q-96 0 -177 -34t-139.5 -94t-91.5 -141.5t-33 -175.5
t33 -175.5t91.5 -141.5t139.5 -94t177 -34t177 34t139.5 94t91.5 141.5t33 175.5t-33 175.5t-91.5 141.5t-139.5 94t-177 34z" />
    <glyph glyph-name="uni25CF" unicode="&#x25cf;" horiz-adv-x="1087" 
d="M602 813q98 0 182.5 -35.5t146.5 -98t97.5 -147t35.5 -182.5t-35.5 -182.5t-97.5 -147t-146.5 -98t-182.5 -35.5t-182.5 35.5t-146.5 98t-97.5 147t-35.5 182.5t35.5 182.5t97.5 147t146.5 98t182.5 35.5z" />
    <glyph glyph-name="uni2605" unicode="&#x2605;" horiz-adv-x="977" 
d="M484 744q3 8 6 0l93 -286h305q9 0 2 -5l-246 -183l90 -291q2 -4 0.5 -5t-4.5 2l-243 182l-240 -182q-3 -3 -4.5 -2t0.5 5l90 291l-246 183q-7 5 2 5h306z" />
    <glyph glyph-name="uni2606" unicode="&#x2606;" horiz-adv-x="977" 
d="M484 744q3 8 6 0l93 -286h305q9 0 2 -5l-246 -183l90 -291q2 -4 0.5 -5t-4.5 2l-243 182l-240 -182q-3 -3 -4.5 -2t0.5 5l90 291l-246 183q-7 5 2 5h306zM408 440h-274l220 -163l-80 -258l213 162l217 -164l-81 260l219 163h-272l-83 254z" />
    <glyph glyph-name="uni261C" unicode="&#x261c;" horiz-adv-x="1162" 
d="M1087 421h-240q-34 59 -86.5 82t-110.5 23q-25 0 -49 -3l-211 -27q-7 -1 -16.5 -6t-9.5 -18q0 -56 93 -56q27 0 64.5 3t73.5 10q13 -18 26.5 -33.5t31.5 -29t42 -24t58 -18.5l-6 -20q-38 8 -65 20.5t-50 33.5q-2 -25 -24 -40q40 -6 49 -47q5 -19 -5 -38.5t-33 -27.5
q14 -3 24.5 -13t13.5 -28q5 -23 -7.5 -43t-43.5 -25l-33 -6q31 -7 71 -7q31 0 62.5 4.5t61 13t55.5 21t44 28.5h220v-20h-211q-42 -33 -103 -50t-125 -17q-66 0 -120 18l-29 -6q-28 -5 -50 3.5t-29 35.5q-5 16 -1 30t14 22q-34 -1 -51 14t-22 38q-4 18 1.5 33.5t19.5 22.5
q-20 2 -34.5 14t-19.5 31q-4 14 0.5 31t23.5 28l-145 -10q-36 -3 -56 12t-20 42t22.5 40t58.5 15l135 12q5 11 14.5 16.5t20.5 7.5l219 29q24 3 49 3q61 0 116 -24t94 -81h228v-19zM211 458q-27 -2 -43 -10t-16 -26q0 -36 54 -35l240 11q-99 0 -102 71zM399 374
q-59 -9 -51 -50q5 -41 63 -32l155 27q48 9 43 47q-2 14 -14 25.5t-46 6.5zM636 267q-4 20 -19.5 28.5t-48.5 2.5l-148 -26q-26 -5 -33.5 -19.5t-5.5 -30.5q3 -16 17.5 -28t42.5 -7l147 26q29 5 39.5 20t8.5 34zM477 171q-28 -5 -34 -20.5t-3 -28.5t15 -22t33 -6l117 22
q20 4 26.5 18.5t4.5 28.5q-2 13 -15.5 22t-35.5 5z" />
    <glyph glyph-name="uni261D" unicode="&#x261d;" horiz-adv-x="662" 
d="M477 -197v240q35 21 57 48.5t33.5 60t14 67.5t-2.5 70l-27 211q-1 6 -6 15.5t-18 9.5q-56 0 -56 -92q0 -27 3 -64.5t10 -73.5q-18 -13 -33.5 -27t-29 -32t-24 -42t-18.5 -58l-20 6q8 38 20.5 65t33.5 50q-25 3 -40 24q-6 -40 -47 -49q-19 -5 -38.5 5t-27.5 34
q-3 -14 -13 -24.5t-28 -14.5q-23 -5 -43 8t-25 44l-6 32q-7 -34 -6.5 -75t8 -81.5t22.5 -77t36 -60.5v-219h-20v211q-25 31 -41 74.5t-22 91t-2.5 95t16.5 87.5l-6 29q-5 28 3.5 49.5t35.5 29.5q16 5 30 1t22 -14q-1 33 14 50.5t38 22.5q18 4 33.5 -2t22.5 -20q2 20 14 34.5
t31 19.5q14 4 31 -0.5t28 -23.5l-10 145q-3 36 12 56t42 20t39 -22t16 -58l12 -136q11 -5 16.5 -14.5t7.5 -20.5l29 -218q10 -75 -12 -143.5t-90 -115.5v-228h-19zM514 679q-2 27 -10 42.5t-26 15.5q-36 0 -35 -54l11 -240q0 99 71 102zM430 490q-9 60 -50 52
q-41 -6 -32 -64l27 -155q9 -46 47 -43q14 2 25.5 14.5t6.5 45.5zM323 254q20 4 28.5 19.5t2.5 47.5l-26 149q-5 25 -19.5 33t-30.5 5q-16 -2 -28 -17t-7 -43l26 -146q5 -30 20 -40.5t34 -7.5zM227 412q-5 28 -20.5 34t-28.5 3q-13 -2 -22 -14.5t-6 -33.5l22 -116
q4 -21 18.5 -27.5t28.5 -3.5q13 2 22 15t5 35z" />
    <glyph glyph-name="uni261E" unicode="&#x261e;" horiz-adv-x="1116" 
d="M360 440q40 57 94.5 81t116.5 24q25 0 49 -3l218 -29q11 -2 20.5 -7.5t14.5 -16.5l135 -12q36 -4 58.5 -16t22.5 -39t-20 -42t-56 -12l-145 10q19 -11 23.5 -28t0.5 -31q-5 -19 -19.5 -31t-34.5 -14q14 -7 20 -22.5t2 -33.5q-5 -23 -22.5 -38t-50.5 -14q10 -8 14 -22
t-1 -30q-8 -27 -29.5 -35.5t-49.5 -3.5l-29 6q-54 -18 -121 -18q-63 0 -124.5 17t-102.5 50h-212v20h220q19 -16 44.5 -28.5t55.5 -21t61.5 -13t62.5 -4.5q19 0 36.5 1.5t33.5 5.5l-32 6q-31 5 -44 25t-8 43q4 18 14.5 28t24.5 13q-24 8 -34 27.5t-5 38.5q9 41 49 47
q-21 15 -24 40q-23 -21 -50 -33.5t-65 -20.5l-6 20q34 8 58 18.5t42 24t32 29t27 33.5q36 -7 73.5 -10t64.5 -3q92 0 92 56q0 13 -9.5 18t-15.5 6l-211 27q-24 3 -49 3q-58 0 -110.5 -23t-87.5 -82h-240v19h228zM875 469q-3 -71 -102 -71l240 -11q54 -1 54 35q0 18 -16 26
t-43 10zM670 398q-33 5 -45.5 -6.5t-14.5 -25.5q-3 -38 43 -47l155 -27q58 -9 64 32q8 41 -52 50zM584 267q-3 -19 7.5 -34t40.5 -20l146 -26q28 -5 43 7t17 28q3 16 -5 30.5t-33 19.5l-149 26q-32 6 -47.5 -2.5t-19.5 -28.5zM634 190q-22 4 -35 -5t-15 -22
q-3 -14 3.5 -28.5t27.5 -18.5l116 -22q21 -3 33.5 6t14.5 22q3 13 -3 28.5t-34 20.5z" />
    <glyph glyph-name="uni261F" unicode="&#x261f;" horiz-adv-x="657" 
d="M496 531q34 -23 56 -52.5t34 -63t14.5 -70t-2.5 -73.5l-29 -219q-2 -11 -7.5 -20t-16.5 -14l-12 -136q-4 -36 -16 -58t-39 -22t-42 19.5t-12 55.5l10 145q-11 -19 -28 -23t-31 -1q-19 5 -31 19.5t-14 34.5q-7 -14 -22.5 -19.5t-33.5 -1.5q-23 5 -38 22.5t-14 50.5
q-8 -10 -22 -14t-30 1q-27 7 -35.5 29t-3.5 50l6 29q-13 39 -16.5 87t2.5 95.5t22 91t41 74.5v211h20v-220q-21 -24 -36 -60t-22.5 -76.5t-8 -81.5t6.5 -76l6 33q5 31 25 43.5t43 7.5q18 -3 28 -13.5t13 -24.5q8 23 27.5 33t38.5 5q41 -9 47 -49q15 22 40 24
q-21 23 -33.5 50t-20.5 65l20 6q8 -34 18.5 -58t24 -42t29 -31.5t33.5 -26.5q-7 -36 -10 -73.5t-3 -64.5q0 -92 56 -92q13 0 18 9t6 16l27 211q5 35 2.5 70t-14 67.5t-33.5 60t-57 48.5v240h19v-228zM246 257q4 22 -5 35.5t-22 15.5q-14 2 -28.5 -4.5t-18.5 -26.5l-22 -117
q-3 -20 6 -32.5t22 -15.5q13 -2 28.5 3.5t20.5 33.5zM323 308q-19 2 -34 -8.5t-20 -39.5l-26 -147q-5 -28 7 -42.5t28 -17.5q16 -2 30.5 5.5t19.5 33.5l26 149q6 32 -2.5 47.5t-28.5 19.5zM454 221q5 34 -6.5 46t-25.5 14q-38 5 -47 -43l-27 -155q-9 -58 32 -63q41 -8 50 51
zM525 16q-71 4 -71 102l-11 -240q-1 -54 35 -54q18 0 26 16t10 43z" />
    <glyph glyph-name="uni2630" unicode="&#x2630;" horiz-adv-x="927" 
d="M211 647q-3 0 -3 3v14q0 3 3 3h634q3 0 3 -3v-14q0 -3 -3 -3h-634zM211 374q-3 0 -3 3v14q0 3 3 3h634q3 0 3 -3v-14q0 -3 -3 -3h-634zM211 101q-3 0 -3 3v14q0 3 3 3h634q3 0 3 -3v-14q0 -3 -3 -3h-634z" />
    <glyph glyph-name="uni2639" unicode="&#x2639;" horiz-adv-x="912" 
d="M514 721q80 0 148.5 -29t119 -79.5t79.5 -119t29 -148.5q0 -79 -29 -148t-79.5 -119.5t-119 -79.5t-148.5 -29q-79 0 -148 29t-119.5 79.5t-79.5 119.5t-29 148q0 80 29 148.5t79.5 119t119.5 79.5t148 29zM514 703q-77 0 -142.5 -28t-113 -76t-74 -113.5t-26.5 -140.5
t26.5 -140.5t74 -113.5t113 -76t142.5 -28t142.5 28t113 76t74 113.5t26.5 140.5t-26.5 140.5t-74 113.5t-113 76t-142.5 28zM400 477q22 0 35.5 -13t13.5 -35t-13.5 -35t-35.5 -13q-21 0 -34.5 13t-13.5 35t13.5 35t34.5 13zM626 477q21 0 34.5 -13t13.5 -35t-13.5 -35
t-34.5 -13q-22 0 -35.5 13t-13.5 35t13.5 35t35.5 13zM513 248q-33 0 -60.5 -8.5t-50 -23t-39.5 -33t-29 -38.5q-1 -3 -5 -1l-11 8q-1 1 -1 4q13 20 31 39.5t42 35t54.5 25.5t68.5 10t68.5 -10t54.5 -25.5t42 -35t31 -39.5q0 -3 -1 -4l-11 -8q-4 -2 -5 1q-12 20 -29 38.5
t-39.5 33t-50 23t-60.5 8.5z" />
    <glyph glyph-name="smileface" unicode="&#x263a;" horiz-adv-x="912" 
d="M514 721q80 0 148.5 -29t119 -79.5t79.5 -119t29 -148.5q0 -79 -29 -148t-79.5 -119.5t-119 -79.5t-148.5 -29q-79 0 -148 29t-119.5 79.5t-79.5 119.5t-29 148q0 80 29 148.5t79.5 119t119.5 79.5t148 29zM514 703q-77 0 -142.5 -28t-113 -76t-74 -113.5t-26.5 -140.5
t26.5 -140.5t74 -113.5t113 -76t142.5 -28t142.5 28t113 76t74 113.5t26.5 140.5t-26.5 140.5t-74 113.5t-113 76t-142.5 28zM400 477q22 0 35.5 -13t13.5 -35t-13.5 -35t-35.5 -13q-21 0 -34.5 13t-13.5 35t13.5 35t34.5 13zM626 477q21 0 34.5 -13t13.5 -35t-13.5 -35
t-34.5 -13q-22 0 -35.5 13t-13.5 35t13.5 35t35.5 13zM513 160q33 0 60.5 8.5t50 23t39.5 33t29 38.5q1 3 5 1l11 -8q1 -1 1 -4q-13 -19 -31 -39t-42 -35.5t-54.5 -25.5t-68.5 -10t-68.5 10t-54.5 25.5t-42 35.5t-31 39q0 3 1 4l11 8q4 2 5 -1q12 -20 29 -38.5t39.5 -33
t50 -23t60.5 -8.5z" />
    <glyph glyph-name="invsmileface" unicode="&#x263b;" horiz-adv-x="892" 
d="M504 713q80 0 147 -28.5t115.5 -78.5t76 -117t27.5 -144t-27.5 -144t-76 -117t-115.5 -78.5t-147 -28.5q-79 0 -146.5 28.5t-116 78.5t-76 117t-27.5 144t27.5 144t76 117t116 78.5t146.5 28.5zM390 477q-21 0 -34.5 -13t-13.5 -35t13.5 -35t34.5 -13q22 0 35.5 13
t13.5 35t-13.5 35t-35.5 13zM616 477q-22 0 -35.5 -13t-13.5 -35t13.5 -35t35.5 -13q21 0 34.5 13t13.5 35t-13.5 35t-34.5 13zM503 160q-33 0 -61 9t-50.5 24t-40 34t-29.5 39l-16 -12q12 -19 30 -39t42 -36.5t55 -26.5t70 -10t70 10t55 26.5t42 36.5t30 39l-16 12
q-12 -20 -29.5 -39t-40 -34t-50.5 -24t-61 -9z" />
    <glyph glyph-name="spade" unicode="&#x2660;" horiz-adv-x="807" 
d="M619 456q38 -37 61.5 -79.5t23.5 -90.5q0 -66 -40 -104.5t-109 -38.5q-29 0 -52.5 9.5t-40.5 26t-28.5 38t-16.5 46.5h-7q0 -51 6.5 -91t16 -71t22 -54.5t25.5 -41.5q3 -5 -3 -5h-148q-6 0 -3 5q13 18 25.5 41.5t22 54.5t16 71t6.5 91h-7q-5 -25 -16 -46.5t-28.5 -38
t-40.5 -26t-52 -9.5q-69 0 -109 38.5t-40 104.5q0 48 23.5 90.5t61.5 79.5l210 203q6 6 11 0z" />
    <glyph glyph-name="club" unicode="&#x2663;" horiz-adv-x="775" 
d="M130 317q0 33 11 60.5t30.5 47t47 30t60.5 10.5q5 0 14.5 -1.5t14.5 -2.5q-7 13 -11.5 28t-4.5 31q0 67 41 107.5t108 40.5q66 0 107 -40.5t41 -107.5q0 -16 -5 -31.5t-12 -28.5q6 1 15.5 3t16.5 2q67 0 107 -41t40 -107q0 -68 -40 -108.5t-107 -40.5q-68 0 -107.5 40.5
t-39.5 108.5h-9q0 -51 6.5 -99t16 -88.5t22 -72.5t25.5 -52q3 -5 -3 -5h-148q-6 0 -3 5q13 20 25.5 52t22 72.5t16 88.5t6.5 99h-9q0 -68 -39.5 -108.5t-106.5 -40.5t-108 40.5t-41 108.5z" />
    <glyph glyph-name="heart" unicode="&#x2665;" horiz-adv-x="797" 
d="M243 267q-41 39 -66 84.5t-25 96.5q0 71 43 112t117 41q31 0 56.5 -10t45 -27.5t33 -41t19.5 -49.5h15q6 26 19 49.5t32.5 41t45.5 27.5t57 10q74 0 117 -41t43 -112q0 -51 -25.5 -96t-66.5 -85l-224 -218q-2 -2 -5 -2t-6 2z" />
    <glyph glyph-name="diamond" unicode="&#x2666;" horiz-adv-x="638" 
d="M125 298q-2 2 0 4q39 42 72 80.5t62 77.5t54.5 80t49.5 88q6 6 12 0q24 -47 49.5 -88t54.5 -80t62 -77.5t72 -80.5q2 -2 0 -4q-39 -42 -72 -81t-61.5 -77.5t-54 -79.5t-50.5 -88q-2 -3 -6 -3t-6 3q-25 47 -50.5 88t-54 79.5t-61.5 77.5t-72 81z" />
    <glyph glyph-name="uni2706" unicode="&#x2706;" horiz-adv-x="912" 
d="M514 721q80 0 148.5 -29t119 -79.5t79.5 -119t29 -148.5q0 -79 -29 -148t-79.5 -119.5t-119 -79.5t-148.5 -29q-79 0 -148 29t-119.5 79.5t-79.5 119.5t-29 148q0 80 29 148.5t79.5 119t119.5 79.5t148 29zM514 703q-77 0 -142.5 -28t-113 -76t-74 -113.5t-26.5 -140.5
t26.5 -140.5t74 -113.5t113 -76t142.5 -28t142.5 28t113 76t74 113.5t26.5 140.5t-26.5 140.5t-74 113.5t-113 76t-142.5 28zM390 133q-2 -2 -4 0q-19 11 -35 26t-26 34t-12 40.5t8 46.5q33 83 89 153.5t128 125.5q11 8 25 12t29 4q26 0 52 -10.5t46 -30.5q3 0 0 -3
q-9 -29 -33.5 -59t-55.5 -54h-4l-47 32q-57 -25 -84 -61t-36 -97l45 -42v-1q1 -1 0 -2q-14 -35 -37 -66t-48 -48zM639 391q-2 -2 -4 0l-19 15q-4 2 0 4q57 46 87 106q2 4 5 1l17 -17v-1q1 -1 0 -2q-9 -28 -33 -57t-53 -49zM431 106q-2 -2 -4 0l-21 13q-3 2 0 5
q26 23 46.5 51.5t32.5 59.5q2 4 5 1l19 -16v-1l1 -1q-8 -29 -30 -60.5t-49 -51.5z" />
    <glyph glyph-name="uni2709" unicode="&#x2709;" horiz-adv-x="1154" 
d="M201 0q-3 0 -3 3v603q0 3 3 3h854q3 0 3 -3v-603q0 -3 -3 -3h-854zM631 251l398 340h-804zM728 311l310 -284v548zM530 312l-312 262v-547zM544 301l-308 -283h785l-307 281l-83 -71z" />
    <glyph glyph-name="uni2713" unicode="&#x2713;" horiz-adv-x="625" 
d="M144 399q-2 4 1 5l10 6q4 0 5 -1l208 -339l267 559q0 2 4 2l11 -6q2 0 2 -4l-273 -563q-2 -2 -3 -2h-16h-1l-1 1h-1z" />
    <glyph glyph-name="uni2715" unicode="&#x2715;" horiz-adv-x="801" 
d="M720 597q2 -2 0 -4l-248 -248l248 -248q2 -2 0 -4l-9 -9q-2 -2 -4 0l-248 248l-248 -248q-2 -2 -4 0l-9 9q-2 2 0 4l248 248l-249 247q-2 2 0 4l9 9q2 2 4 0l249 -247l248 248q2 2 4 0z" />
    <glyph glyph-name="uni275B" unicode="&#x275b;" horiz-adv-x="483" 
d="M289 286q-71 0 -109 46.5t-24 132.5q10 57 33.5 110t64 95.5t98.5 71.5t136 37q2 0 2 -2l3 -11q0 -4 -3 -4q-40 -2 -85.5 -16.5t-87 -43t-74 -72t-47.5 -102.5q13 18 32.5 31t40.5 21.5t41.5 12.5t35.5 4q35 0 63 -10t46.5 -29.5t26 -47.5t1.5 -63t-22 -64.5t-41 -51
t-58.5 -33.5t-72.5 -12z" />
    <glyph glyph-name="uni275C" unicode="&#x275c;" horiz-adv-x="483" 
d="M177 282q-1 0 -3 2l-2 11q-2 4 3 4q41 2 86 16.5t86 43t74 72t48 102.5q-13 -18 -32.5 -31t-41 -21.5t-42 -12.5t-35.5 -4q-70 0 -109 39.5t-28 110.5q6 35 22.5 64.5t41.5 51t58.5 33.5t72.5 12q71 0 108.5 -46.5t23.5 -132.5q-9 -57 -33 -110t-64 -95.5t-98 -71.5
t-136 -37z" />
    <glyph glyph-name="uni275D" unicode="&#x275d;" horiz-adv-x="852" 
d="M658 286q-71 0 -109 46.5t-24 132.5q10 57 33.5 110t64 95.5t98.5 71.5t136 37q2 0 2 -2l3 -11q0 -4 -3 -4q-40 -2 -85.5 -16.5t-87 -43t-74 -72t-47.5 -102.5q13 18 32.5 31t40.5 21.5t41.5 12.5t35.5 4q35 0 63 -10t46.5 -29.5t26 -47.5t1.5 -63t-22 -64.5t-41 -51
t-58.5 -33.5t-72.5 -12zM289 286q-71 0 -109 46.5t-24 132.5q10 57 33.5 110t64 95.5t98.5 71.5t136 37q2 0 2 -2l3 -11q0 -4 -3 -4q-40 -2 -85.5 -16.5t-87 -43t-74 -72t-47.5 -102.5q13 18 32.5 31t40.5 21.5t41.5 12.5t35.5 4q35 0 63 -10t46.5 -29.5t26 -47.5t1.5 -63
t-22 -64.5t-41 -51t-58.5 -33.5t-72.5 -12z" />
    <glyph glyph-name="uni275E" unicode="&#x275e;" horiz-adv-x="852" 
d="M177 282q-1 0 -3 2l-2 11q-2 4 3 4q41 2 86 16.5t86 43t74 72t48 102.5q-13 -18 -32.5 -31t-41 -21.5t-42 -12.5t-35.5 -4q-70 0 -109 39.5t-28 110.5q6 35 22.5 64.5t41.5 51t58.5 33.5t72.5 12q71 0 108.5 -46.5t23.5 -132.5q-9 -57 -33 -110t-64 -95.5t-98 -71.5
t-136 -37zM546 282q-1 0 -3 2l-2 11q-2 4 3 4q41 2 86 16.5t86 43t74 72t48 102.5q-13 -18 -32.5 -31t-41 -21.5t-42 -12.5t-35.5 -4q-70 0 -109 39.5t-28 110.5q6 35 22.5 64.5t41.5 51t58.5 33.5t72.5 12q71 0 108.5 -46.5t23.5 -132.5q-9 -57 -33 -110t-64 -95.5
t-98 -71.5t-136 -37z" />
    <glyph glyph-name="uni275F" unicode="&#x275f;" horiz-adv-x="483" 
d="M299 311q71 0 108.5 -46.5t23.5 -132.5q-9 -57 -33 -110t-64.5 -95.5t-98 -71.5t-135.5 -37q-3 0 -3 2l-2 11q-2 4 3 4q40 2 85 16.5t86.5 43t74 72t47.5 102.5q-13 -18 -32.5 -31t-40.5 -21.5t-41.5 -12.5t-35.5 -4q-35 0 -63 10t-46.5 29.5t-26 47.5t-1.5 63t22 64.5
t41.5 51t59 33.5t72.5 12z" />
    <glyph glyph-name="uni2760" unicode="&#x2760;" horiz-adv-x="852" 
d="M299 311q71 0 108.5 -46.5t23.5 -132.5q-9 -57 -33 -110t-64.5 -95.5t-98 -71.5t-135.5 -37q-1 0 -3 2l-2 11q-2 4 3 4q40 2 85 16.5t86.5 43t74 72t47.5 102.5q-13 -18 -32.5 -31t-40.5 -21.5t-41.5 -12.5t-35.5 -4q-35 0 -63 10t-46.5 29.5t-26 47.5t-1.5 63t22 64.5
t41.5 51t59 33.5t72.5 12zM668 311q71 0 108.5 -46.5t23.5 -132.5q-9 -57 -33 -110t-64.5 -95.5t-98 -71.5t-135.5 -37q-1 0 -3 2l-2 11q-2 4 3 4q40 2 85 16.5t86.5 43t74 72t47.5 102.5q-13 -18 -32.5 -31t-40.5 -21.5t-41.5 -12.5t-35.5 -4q-35 0 -63 10t-46.5 29.5
t-26 47.5t-1.5 63t22 64.5t41.5 51t59 33.5t72.5 12z" />
    <glyph glyph-name="uni2766" unicode="&#x2766;" horiz-adv-x="762" 
d="M477 338q25 48 44.5 92.5t31.5 83.5q-39 15 -74 37t-68 42.5t-64.5 34.5t-63.5 14q-45 0 -68.5 -21.5t-23.5 -56.5q0 -19 8.5 -41.5t32.5 -46.5q2 -2 0 -4l-10 -8q-2 -2 -4 0q-26 25 -36.5 49t-10.5 53q0 40 27.5 67t79.5 27q32 0 61 -10.5t58 -27.5q26 50 57 69.5
t57 19.5q40 0 60 -25.5t20 -68.5q0 -20 -4 -43t-11 -49q18 -6 37.5 -9.5t40.5 -3.5q41 0 62.5 19.5t23.5 47.5q2 25 -9 42t-34 30q-3 1 -1 5l6 10q1 1 4 1q56 -33 53 -87q-2 -37 -30 -61.5t-75 -24.5q-43 0 -83 14q-14 -43 -34 -89t-44 -91l5 -4q23 43 58.5 67t69.5 24
q45 0 75.5 -25.5t30.5 -79.5q0 -40 -16.5 -68t-41.5 -47.5t-53.5 -33.5t-53.5 -27t-41.5 -27t-16.5 -34q0 -24 13.5 -39t39.5 -15q44 0 76.5 21.5t52.5 53.5q1 3 5 1l4 -2q2 -1 2 -5q-29 -48 -72.5 -74t-101.5 -26q-62 0 -111 25t-83.5 66t-52.5 92.5t-18 103.5q0 44 9.5 75
t26 51t38.5 29.5t46 9.5q15 0 31 -5.5t29.5 -17.5t22 -31t7.5 -45zM413 613q35 -21 70.5 -43t74.5 -38q15 53 15 89q0 35 -16.5 53.5t-45.5 18.5q-30 0 -55.5 -23t-42.5 -57z" />
    <glyph glyph-name="uni2767" unicode="&#x2767;" horiz-adv-x="823" 
d="M508 327q-48 23 -71 57.5t-23 63.5q0 42 26.5 66.5t71.5 24.5q35 0 60 -14t43.5 -35.5t32 -46t26.5 -46t27 -35.5t32 -14q23 0 34 13.5t11 35.5q0 35 -16.5 63t-53.5 51q-4 0 -1 3l3 6q0 3 4 1q48 -32 70 -68.5t22 -85.5q0 -57 -23.5 -104.5t-61 -81t-85 -52t-95.5 -18.5
q-81 0 -117.5 28t-36.5 73q0 18 7.5 35.5t21.5 31t33 20t42 2.5l3 5q-39 20 -84.5 31t-90.5 11q-21 0 -42 -3q20 -32 34 -66t14 -75q0 -33 -9 -57t-24 -39.5t-34.5 -23t-40.5 -7.5q-45 0 -76 32.5t-31 89.5q0 33 10.5 59.5t29.5 46t44 32.5t54 20q-23 38 -42.5 76t-19.5 81
q0 50 28 73.5t65 23.5q23 0 45.5 -9t41.5 -27q2 -2 0 -4l-7 -9q-2 -3 -4 -1q-20 17 -39 25t-37 8q-32 0 -53.5 -22t-21.5 -57q0 -42 20 -79t43 -75q12 2 24 3t25 1q46 0 93.5 -10t95.5 -33zM257 342q-57 -13 -93 -48t-36 -91q0 -51 26 -79.5t64 -28.5q35 0 62 27.5t27 81.5
q0 37 -15 71t-35 67z" />
    <glyph glyph-name="uni2776" unicode="&#x2776;" horiz-adv-x="1131" 
d="M624 813q98 0 182.5 -35.5t146.5 -98t97.5 -147t35.5 -182.5t-35.5 -182.5t-97.5 -147t-146.5 -98t-182.5 -35.5t-182.5 35.5t-146.5 98t-97.5 147t-35.5 182.5t35.5 182.5t97.5 147t146.5 98t182.5 35.5zM637 619l-157 -53q-3 -2 -2 -4l4 -13q2 -3 4 -2l139 50v-525
q0 -3 3 -3h14q3 0 3 3v544q0 3 -3 3h-5z" />
    <glyph glyph-name="uni2777" unicode="&#x2777;" horiz-adv-x="1131" 
d="M624 813q98 0 182.5 -35.5t146.5 -98t97.5 -147t35.5 -182.5t-35.5 -182.5t-97.5 -147t-146.5 -98t-182.5 -35.5t-182.5 35.5t-146.5 98t-97.5 147t-35.5 182.5t35.5 182.5t97.5 147t146.5 98t182.5 35.5zM472 492q12 58 54 89t108 31q60 0 98 -28.5t38 -91.5
q0 -44 -22.5 -85t-73.5 -94l-226 -234q-1 -1 -1 -2v-4q0 -3 3 -3h340q3 0 3 3v12q0 3 -3 3h-310l208 213q55 56 78.5 100.5t23.5 90.5q0 35 -11.5 61t-32.5 43t-50 25.5t-63 8.5q-72 0 -119 -35t-60 -99q-1 -2 2 -4l12 -2q2 -1 4 2z" />
    <glyph glyph-name="uni2778" unicode="&#x2778;" horiz-adv-x="1131" 
d="M624 813q98 0 182.5 -35.5t146.5 -98t97.5 -147t35.5 -182.5t-35.5 -182.5t-97.5 -147t-146.5 -98t-182.5 -35.5t-182.5 35.5t-146.5 98t-97.5 147t-35.5 182.5t35.5 182.5t97.5 147t146.5 98t182.5 35.5zM639 344q39 0 67 -10t46 -27.5t26 -41.5t8 -52q0 -66 -41 -100
t-110 -34q-67 0 -114.5 31.5t-59.5 88.5q-2 3 -4 2l-13 -3q-3 -2 -2 -4q7 -31 24.5 -56t42.5 -42.5t56.5 -26.5t67.5 -9q39 0 71 10.5t55 30t35.5 48.5t12.5 65q0 57 -30.5 93t-82.5 46q43 14 72 53t29 90q0 61 -44 97.5t-120 36.5q-74 0 -120.5 -35t-60.5 -99q-1 -2 2 -4
l13 -2q2 -1 4 2q11 57 53.5 88.5t109.5 31.5t104.5 -31t37.5 -85q0 -25 -8.5 -49t-25.5 -43t-42 -31t-59 -12h-80q-3 0 -3 -3v-11q0 -3 3 -3h80z" />
    <glyph glyph-name="uni2779" unicode="&#x2779;" horiz-adv-x="1131" 
d="M624 813q98 0 182.5 -35.5t146.5 -98t97.5 -147t35.5 -182.5t-35.5 -182.5t-97.5 -147t-146.5 -98t-182.5 -35.5t-182.5 35.5t-146.5 98t-97.5 147t-35.5 182.5t35.5 182.5t97.5 147t146.5 98t182.5 35.5zM809 227q0 3 -3 3h-107v136q0 3 -3 3h-14q-3 0 -3 -3v-136h-249
l215 385q2 4 -3 4h-15q-1 0 -3 -2l-219 -396v-6q0 -3 3 -3h271v-140q0 -3 3 -3h14q3 0 3 3v140h107q3 0 3 3v12z" />
    <glyph glyph-name="uni277A" unicode="&#x277a;" horiz-adv-x="1131" 
d="M624 813q98 0 182.5 -35.5t146.5 -98t97.5 -147t35.5 -182.5t-35.5 -182.5t-97.5 -147t-146.5 -98t-182.5 -35.5t-182.5 35.5t-146.5 98t-97.5 147t-35.5 182.5t35.5 182.5t97.5 147t146.5 98t182.5 35.5zM754 616q0 3 -3 3h-260q-3 0 -3 -3l-17 -234q0 -3 3 -3h116
q90 0 137.5 -37.5t47.5 -111.5q0 -69 -40.5 -110.5t-113.5 -41.5q-62 0 -105.5 31t-54.5 88q-2 3 -4 2l-13 -2q-3 -2 -2 -4q14 -63 62 -98.5t116 -35.5q41 0 73.5 12.5t55 35.5t34.5 55t12 70q0 81 -53.5 123.5t-147.5 42.5h-103l15 203h245q3 0 3 3v12z" />
    <glyph glyph-name="uni277B" unicode="&#x277b;" horiz-adv-x="1131" 
d="M624 813q98 0 182.5 -35.5t146.5 -98t97.5 -147t35.5 -182.5t-35.5 -182.5t-97.5 -147t-146.5 -98t-182.5 -35.5t-182.5 35.5t-146.5 98t-97.5 147t-35.5 182.5t35.5 182.5t97.5 147t146.5 98t182.5 35.5zM647 619h-1l-1 -1h-1l-180 -256q-19 -26 -29 -60t-10 -66
q0 -39 14 -71.5t39 -55.5t59.5 -35.5t74.5 -12.5q42 0 77 13t60.5 37t39.5 58t14 76q0 41 -14 74.5t-39 57.5t-58 37.5t-72 13.5q-31 0 -60 -8t-51 -24l158 218q3 5 -3 5h-17zM614 410q37 0 68 -12t53.5 -33.5t35 -52t12.5 -68.5q0 -37 -12.5 -67.5t-35 -52.5t-54 -33.5
t-69.5 -11.5q-37 0 -67.5 11t-52.5 31.5t-34.5 50.5t-12.5 67q0 36 11.5 67t33.5 54.5t53.5 36.5t70.5 13z" />
    <glyph glyph-name="uni277C" unicode="&#x277c;" horiz-adv-x="1131" 
d="M624 813q98 0 182.5 -35.5t146.5 -98t97.5 -147t35.5 -182.5t-35.5 -182.5t-97.5 -147t-146.5 -98t-182.5 -35.5t-182.5 35.5t-146.5 98t-97.5 147t-35.5 182.5t35.5 182.5t97.5 147t146.5 98t182.5 35.5zM775 563l-226 -528q-2 -4 3 -4h14q1 0 3 2l226 537q1 3 1 5v3
q0 3 -3 3h-324q-3 0 -3 -3v-12q0 -3 3 -3h306z" />
    <glyph glyph-name="uni277D" unicode="&#x277d;" horiz-adv-x="1131" 
d="M624 813q98 0 182.5 -35.5t146.5 -98t97.5 -147t35.5 -182.5t-35.5 -182.5t-97.5 -147t-146.5 -98t-182.5 -35.5t-182.5 35.5t-146.5 98t-97.5 147t-35.5 182.5t35.5 182.5t97.5 147t146.5 98t182.5 35.5zM620 630q-34 0 -63.5 -8.5t-51.5 -26t-34 -43t-12 -60.5
q0 -51 26 -86.5t75 -49.5q-58 -14 -88.5 -52t-30.5 -94q0 -70 47 -110t132 -40t132 40t47 110q0 56 -30.5 94t-87.5 52q49 14 75 49t26 86q0 35 -12.5 61t-34 43.5t-51 26t-64.5 8.5zM620 612q62 0 101.5 -29t39.5 -91q0 -32 -11 -56t-30 -40t-45 -24t-55 -8t-54.5 8
t-44.5 24t-30 40t-11 56q0 62 39.5 91t100.5 29zM620 345q33 0 61.5 -8t50 -24.5t34 -41.5t12.5 -60t-12.5 -60t-34 -41t-50 -23.5t-61.5 -7.5t-61.5 7.5t-49.5 23.5t-33.5 41t-12.5 60t12.5 60t34 41.5t50 24.5t60.5 8z" />
    <glyph glyph-name="uni277E" unicode="&#x277e;" horiz-adv-x="1131" 
d="M624 813q98 0 182.5 -35.5t146.5 -98t97.5 -147t35.5 -182.5t-35.5 -182.5t-97.5 -147t-146.5 -98t-182.5 -35.5t-182.5 35.5t-146.5 98t-97.5 147t-35.5 182.5t35.5 182.5t97.5 147t146.5 98t182.5 35.5zM587 47q2 0 3 1l182 257q19 26 28.5 60.5t9.5 66.5
q0 39 -14 71.5t-38.5 55.5t-58.5 35.5t-75 12.5q-42 0 -76.5 -13.5t-60 -37.5t-39.5 -58t-14 -75t14 -75t38.5 -58t58 -37t72.5 -13q31 0 59.5 8t50.5 24l-160 -220q-3 -5 3 -5h17zM621 257q-37 0 -68 12t-53 33.5t-34 52.5t-12 69t12.5 68t35 52t53.5 33.5t69 11.5
q74 0 120 -43t46 -117q0 -35 -11.5 -66t-33 -54.5t-53 -37.5t-71.5 -14z" />
    <glyph glyph-name="uni2B51" unicode="&#x2b51;" horiz-adv-x="592" 
d="M581 404q9 0 2 -5l-135 -100l49 -157q2 -4 0.5 -5t-4.5 2l-131 97l-129 -97q-3 -3 -4.5 -2t0.5 5l48 157l-134 100q-7 5 2 5h166l48 155q3 8 6 0l50 -155h166z" />
    <glyph glyph-name="uni2B52" unicode="&#x2b52;" horiz-adv-x="592" 
d="M579 404q9 0 2 -5l-133 -99l48 -157q2 -4 0.5 -5t-4.5 2l-129 98l-129 -98q-3 -3 -4.5 -2t0.5 5l48 157l-133 99q-7 5 2 5h164l49 154q3 8 6 0l49 -154h164zM401 385l-38 118l-38 -118h-130l107 -77l-41 -125l102 82l102 -82l-41 125l107 77h-130z" />
    <glyph glyph-name="uni2B6E" unicode="&#x2b6e;" horiz-adv-x="987" 
d="M362 608q4 1 6 -2l74 -200q3 -5 -2 -7l-12 -4q-4 -1 -6 4l-63 177q-36 -41 -61 -99.5t-25 -137.5q0 -69 21.5 -129.5t63.5 -105t103 -70.5t139 -26q75 0 138.5 24.5t109 69t71 107t25.5 138.5t-27.5 143t-87.5 118q-5 3 -1 7l7 8q2 2 4.5 1t3.5 -2q57 -48 89 -119
t32 -159q0 -77 -26 -142.5t-73 -113t-114 -74t-150 -26.5q-82 0 -147 26.5t-109.5 73.5t-68 110.5t-23.5 138.5q0 78 23.5 135t59.5 108l-192 -66q-4 -1 -6 2l-4 11q-2 5 2 6z" />
    <glyph glyph-name="uni2B6F" unicode="&#x2b6f;" horiz-adv-x="925" 
d="M966 533q4 -1 2 -6l-4 -11q-2 -3 -6 -2l-192 66q36 -51 59.5 -108t23.5 -135q0 -75 -23.5 -138.5t-68 -110.5t-109 -73.5t-147.5 -26.5q-82 0 -149.5 26.5t-114.5 74t-73 113t-26 142.5q0 88 32 159t89 119q1 1 3.5 2t4.5 -1l7 -8q4 -4 -1 -7q-60 -51 -87.5 -118
t-27.5 -143t25.5 -138.5t71 -107t109 -69t138.5 -24.5q78 0 139 26t103 70.5t63.5 105t21.5 129.5q0 79 -25 137.5t-61 99.5l-63 -177q-2 -5 -6 -4l-12 4q-5 2 -2 7l74 200q2 3 6 2z" />
    <glyph glyph-name="uniE000" unicode="&#xe000;" horiz-adv-x="614" 
d="M169 545q0 50 17 92.5t47.5 73t72.5 47.5t91 17q50 0 92.5 -17t73 -47.5t47.5 -73t17 -92.5q0 -49 -17 -91t-47.5 -72.5t-73 -47.5t-92.5 -17q-49 0 -91 17t-72.5 47.5t-47.5 72.5t-17 91zM204 545q0 -42 14.5 -77.5t40 -62t61 -41t77.5 -14.5q44 0 79.5 14.5t60.5 41
t39 62t14 77.5t-14 78t-39 62t-60.5 40.5t-79.5 14.5q-42 0 -77.5 -14.5t-61 -40.5t-40 -62t-14.5 -78zM453 612v-59h58v-60h-58v-58h-60v58h-60v-58h-59v177h59v-59h60v118h118v-59h-58z" />
    <glyph glyph-name="uniE001" unicode="&#xe001;" horiz-adv-x="692" 
d="M433 740q53 0 99.5 -17.5t81.5 -51.5t55.5 -84.5t20.5 -116.5q0 -70 -21.5 -136t-56.5 -127t-78.5 -116.5t-88.5 -104.5l-2 -1h-16q-1 0 -2 1q-45 49 -88.5 104.5t-78.5 116.5t-56.5 127t-21.5 136q0 66 20.5 116.5t55 84.5t80.5 51.5t97 17.5zM433 644q-33 0 -59 -11
t-45 -31t-29 -47.5t-10 -60.5q0 -65 38.5 -107t104.5 -42t104.5 42t38.5 107q0 33 -10 60.5t-29 47.5t-45 31t-59 11z" />
    </font>
</defs>
</svg>
