<?xml version="1.0" standalone="no"?>
<!DOCTYPE svg PUBLIC "-//W3C//DTD SVG 1.1//EN" "http://www.w3.org/Graphics/SVG/1.1/DTD/svg11.dtd" >
<svg xmlns="http://www.w3.org/2000/svg" xmlns:xlink="http://www.w3.org/1999/xlink" version="1.1">
<metadata>
Created by FontForge 20170731 at Wed Sep 22 08:56:24 2021
 By Aleksey,,,
Copyright (c) 2021 by Hurufatfont Type Foundry-Oguzhan Cengiz. All rights reserved.
</metadata>
<defs>
<font id="Rapor-MediumItalic" horiz-adv-x="633" >
  <font-face 
    font-family="Rapor Med"
    font-weight="500"
    font-style="italic"
    font-stretch="normal"
    units-per-em="1000"
    panose-1="0 0 0 0 0 0 0 0 0 0"
    ascent="800"
    descent="-200"
    x-height="440"
    cap-height="700"
    bbox="-125.8 -222 1168.67 971"
    underline-thickness="50"
    underline-position="-175"
    slope="-9.5"
    unicode-range="U+0002-FB06"
  />
<missing-glyph horiz-adv-x="350" 
d="M350 -200h-350v940h350v-940zM50 690v-840h250v840h-250zM175 588l72 72l33 -33l-72 -72l72 -72l-33 -33l-72 72l-72 -72l-33 33l72 72l-72 72l33 33zM175 308l72 72l33 -33l-72 -72l72 -72l-33 -33l-72 72l-72 -72l-33 33l72 72l-72 72l33 33zM175 18l72 72l33 -33
l-72 -72l72 -72l-33 -33l-72 72l-72 -72l-33 33l72 72l-72 72l33 33z" />
    <glyph glyph-name="f_f" unicode="ff" horiz-adv-x="701" 
d="M726 440q11 0 9 -10l-13 -77q-2 -10 -12 -10h-128l-55 -333q-2 -10 -13 -10h-91q-11 0 -9 10l55 333h-201l-55 -333q-2 -10 -13 -10h-92q-10 0 -8 10l55 333h-70q-10 0 -8 10l13 77q2 10 11 10h70l18 106q8 46 29.5 82t53.5 61t72 38t83 13q89 0 154 -50q59 50 147 50
q42 0 73 -7.5t62 -23.5q9 -5 2 -14l-45 -69q-3 -4 -7.5 -5.5t-7.5 0.5q-22 11 -43 16t-46 5q-45 0 -68.5 -26t-30.5 -66l-19 -110h128zM485 440l20 117q2 12 5 22.5t7 21.5q-20 23 -47 32t-56 9q-51 0 -78.5 -29t-35.5 -75l-16 -98h201z" />
    <glyph glyph-name="fi" unicode="fi" horiz-adv-x="576" 
d="M589 440q11 0 9 -10l-70 -420q-2 -10 -12 -10h-93q-11 0 -9 10l55 333h-201l-55 -333q-2 -10 -13 -10h-92q-10 0 -8 10l55 333h-70q-10 0 -8 10l13 77q2 10 11 10h70l18 104q8 46 31 82.5t57.5 61.5t78 38.5t90.5 13.5q54 0 100.5 -15.5t80.5 -44.5q6 -6 -1 -15l-64 -63
q-6 -8 -15 -1q-41 41 -114 41q-56 0 -90.5 -27.5t-42.5 -78.5l-16 -96h305z" />
    <glyph glyph-name="fl" unicode="fl" horiz-adv-x="578" 
d="M381 440q11 0 9 -10l-13 -77q-2 -10 -13 -10h-96l-55 -333q-2 -10 -13 -10h-92q-10 0 -8 10l55 333h-70q-10 0 -8 10l13 77q2 10 11 10h70l18 104q7 44 29 80t55 61.5t76 40t92 14.5q23 0 48 -2.5t50 -9.5t48.5 -19t43.5 -30q5 -7 4 -16l-108 -653q-2 -10 -13 -10h-91
q-11 0 -9 10l101 608q-17 11 -39.5 17.5t-50.5 6.5q-51 0 -83.5 -26.5t-41.5 -77.5l-16 -98h97z" />
    <glyph glyph-name="f_f_i" unicode="ffi" horiz-adv-x="888" 
d="M902 440q11 0 9 -10l-70 -420q-2 -10 -12 -10h-92q-11 0 -9 10l55 333h-201l-55 -333q-2 -10 -13 -10h-91q-11 0 -9 10l55 333h-201l-55 -333q-2 -10 -13 -10h-92q-10 0 -8 10l55 333h-70q-10 0 -8 10l13 77q2 10 11 10h70l18 104q8 46 31 82.5t57 61.5t76 38.5t87 13.5
q38 0 81 -11.5t80 -38.5q35 24 76 37t83 13q45 0 92 -13t86 -48q7 -5 0 -14l-61 -64q-10 -8 -16 0q-22 24 -53.5 32.5t-61.5 8.5q-54 0 -89 -29.5t-43 -76.5l-16 -96h304zM485 440l17 103q3 17 8.5 33t13.5 31q-22 20 -50 27.5t-49 7.5q-55 0 -86 -29t-39 -75l-16 -98h201z
" />
    <glyph glyph-name="f_f_l" unicode="ffl" horiz-adv-x="892" 
d="M763 740q45 0 93 -12t88 -49q7 -7 5 -15l-108 -654q-2 -10 -13 -10h-91q-11 0 -9 10l101 605q-20 16 -41.5 21.5t-40.5 5.5q-55 0 -90 -28.5t-43 -75.5l-16 -98h97q11 0 9 -10l-13 -77q-2 -10 -12 -10h-97l-55 -333q-2 -10 -13 -10h-91q-11 0 -9 10l55 333h-201l-55 -333
q-2 -10 -13 -10h-92q-10 0 -8 10l55 333h-70q-10 0 -8 10l13 77q2 10 11 10h70l18 106q8 46 32 82t59 61t78.5 38t88.5 13q38 0 77.5 -11.5t74.5 -37.5q35 24 77 36.5t87 12.5zM485 440l18 104q6 35 21 63q-20 20 -45.5 27.5t-47.5 7.5q-54 0 -88.5 -29t-42.5 -75l-16 -98
h201z" />
    <glyph glyph-name="Th.dlig" unicode="Th" horiz-adv-x="1061" 
d="M144 690q2 10 12 10h548l5 30q2 10 11 10h92q11 0 9 -10l-58 -347q30 32 67.5 50.5t82.5 18.5q86 0 123 -53t21 -150l-40 -239q-2 -10 -12 -10h-92q-10 0 -8 10l38 230q8 54 -9.5 82.5t-68.5 28.5q-22 0 -43.5 -9t-38.5 -26t-29 -40.5t-17 -52.5l-36 -213q-2 -10 -12 -10
h-92q-10 0 -8 10l96 577h-234l-96 -577q-2 -10 -12 -10h-100q-10 0 -8 10l96 577h-194q-10 0 -8 11z" />
    <glyph glyph-name="f_j" unicode="fj" horiz-adv-x="576" 
d="M589 440q11 0 9 -10l-73 -428q-17 -97 -67 -143.5t-137 -48.5q-11 0 -9 10l14 86q2 10 13 10q33 2 49 19t23 56l58 352h-201l-55 -333q-2 -10 -13 -10h-92q-10 0 -8 10l55 333h-70q-10 0 -8 10l13 77q2 10 11 10h70l18 104q8 46 31 82.5t57.5 61.5t78 38.5t90.5 13.5
q54 0 100.5 -15.5t80.5 -44.5q6 -6 -1 -15l-64 -63q-6 -8 -15 -1q-41 41 -114 41q-56 0 -90.5 -27.5t-42.5 -78.5l-16 -96h305z" />
    <glyph glyph-name="f_f_j" unicode="ffj" horiz-adv-x="888" 
d="M108 0q-10 0 -8 10l55 333h-70q-10 0 -8 10l13 77q2 10 11 10h70l18 104q8 46 31 82.5t57 61.5t76 38.5t87 13.5q38 0 81 -11.5t80 -38.5q35 24 76 37t83 13q45 0 92 -13t86 -48q7 -5 0 -14l-61 -64q-10 -8 -16 0q-22 24 -53.5 32.5t-61.5 8.5q-54 0 -89 -29.5t-43 -76.5
l-16 -96h304q11 0 9 -10l-72 -428q-17 -97 -67 -143.5t-137 -48.5q-11 0 -9 10l14 86q2 10 13 10q33 2 49 19t23 56l58 352h-201l-55 -333q-2 -10 -13 -10h-91q-11 0 -9 10l55 333h-201l-55 -333q-2 -10 -13 -10h-92zM485 440l17 103q3 17 8.5 33t13.5 31q-22 20 -50 27.5
t-49 7.5q-55 0 -86 -29t-39 -75l-16 -98h201z" />
    <glyph glyph-name=".notdef" horiz-adv-x="350" 
d="M350 -200h-350v940h350v-940zM50 690v-840h250v840h-250zM175 588l72 72l33 -33l-72 -72l72 -72l-33 -33l-72 72l-72 -72l-33 33l72 72l-72 72l33 33zM175 308l72 72l33 -33l-72 -72l72 -72l-33 -33l-72 72l-72 -72l-33 33l72 72l-72 72l33 33zM175 18l72 72l33 -33
l-72 -72l72 -72l-33 -33l-72 72l-72 -72l-33 33l72 72l-72 72l33 33z" />
    <glyph glyph-name=".null" horiz-adv-x="500" 
 />
    <glyph glyph-name=".null" horiz-adv-x="500" 
 />
    <glyph glyph-name="uni000D" horiz-adv-x="500" 
 />
    <glyph glyph-name="uni0002" horiz-adv-x="333" 
 />
    <glyph glyph-name="uni0009" unicode="&#x9;" horiz-adv-x="80" 
 />
    <glyph glyph-name="uni000A" unicode="&#xa;" horiz-adv-x="333" 
 />
    <glyph glyph-name="uni000D.1" unicode="&#xd;" horiz-adv-x="333" 
 />
    <glyph glyph-name="space" unicode=" " horiz-adv-x="240" 
 />
    <glyph glyph-name="exclam" unicode="!" horiz-adv-x="304" 
d="M238 263q-2 -9 -11 -9h-64q-9 0 -9 9l19 224l34 203q2 10 12 10h101q10 0 8 -10l-33 -203zM177 146q33 0 52.5 -21t13.5 -57t-32.5 -57t-59.5 -21t-52.5 21t-14.5 57q7 36 33.5 57t59.5 21z" />
    <glyph glyph-name="quotedbl" unicode="&#x22;" horiz-adv-x="418" 
d="M233 438q-2 -9 -11 -9h-60q-9 0 -9 9l23 251q0 11 12 11h97q12 0 9 -11zM411 438q-2 -9 -11 -9h-60q-9 0 -9 9l23 251q0 11 12 11h97q12 0 9 -11z" />
    <glyph glyph-name="numbersign" unicode="#" horiz-adv-x="706" 
d="M414 0q-13 0 -10 12l35 147h-147l-37 -151q-2 -8 -10 -8h-74q-13 0 -10 12l36 147h-73q-11 0 -11 10v72q0 10 11 10h96l44 185h-86q-10 0 -10 10v72q0 10 10 10h109l40 164q2 8 10 8h73q14 0 11 -12l-39 -160h148l39 164q2 8 11 8h73q13 0 10 -12l-38 -160h72
q11 0 11 -10v-72q0 -10 -11 -10h-95l-45 -185h86q10 0 10 -10v-72q0 -10 -10 -10h-109l-36 -151q-2 -8 -10 -8h-74zM462 251l45 185h-148l-44 -185h147z" />
    <glyph glyph-name="dollar" unicode="$" horiz-adv-x="602" 
d="M556 527q-7 -6 -15 0q-62 65 -151 65q-117 0 -130 -81q-3 -19 0.5 -32.5t18.5 -25t44 -23t77 -25.5q59 -18 99 -37.5t63 -44t30 -54.5t1 -68q-14 -84 -79 -136t-168 -62l-20 -124q-2 -10 -13 -10h-70q-11 0 -9 10l20 123q-120 12 -207 87q-6 7 1 14l71 78q8 9 15 2
q76 -74 187 -74q69 0 104.5 19.5t43.5 61.5q3 20 -1 35t-20.5 27.5t-47.5 25t-80 27.5q-110 36 -153 84.5t-30 124.5q14 80 74.5 128t158.5 56l19 112q2 10 13 10h70q11 0 9 -10l-19 -114q54 -8 97.5 -31t75.5 -62q7 -7 -3 -14z" />
    <glyph glyph-name="percent" unicode="%" horiz-adv-x="660" 
d="M297 700q34 0 60 -11.5t43 -32t24 -48.5t1 -62q-6 -33 -22 -61.5t-39.5 -48.5t-54 -31.5t-64.5 -11.5t-60.5 11.5t-43.5 31.5t-24 48.5t-1 61.5q6 34 22 62t40 48.5t54.5 32t64.5 11.5zM734 615q5 -7 -3 -15l-644 -554q-10 -7 -15 0l-32 38q-5 7 2 14l644 554q8 7 15 0z
M284 625q-35 0 -59.5 -20.5t-30.5 -58.5q-6 -37 11.5 -57.5t52.5 -20.5t58.5 20.5t30.5 57.5q6 38 -11 58.5t-52 20.5zM525 295q34 0 60 -11.5t43 -31.5t24 -48.5t1 -61.5q-5 -34 -21 -62t-40 -48.5t-54 -32t-64 -11.5t-60.5 11.5t-43.5 32t-24 48.5t-1 62q6 33 22 61.5
t40 48.5t54 31.5t64 11.5zM513 220q-35 0 -59.5 -20.5t-30.5 -57.5q-6 -38 11 -58.5t52 -20.5t59.5 20.5t29.5 58.5q7 37 -10 57.5t-52 20.5z" />
    <glyph glyph-name="ampersand" unicode="&#x26;" horiz-adv-x="662" 
d="M610 543q-6 -37 -25.5 -65t-47 -49.5t-61.5 -38t-70 -31.5l119 -136q14 23 23.5 49.5t15.5 53.5q2 11 14 9l76 -15q9 -1 7 -10q-8 -44 -25 -86.5t-43 -77.5l65 -72q7 -8 -2 -15l-74 -63q-7 -7 -15 0l-54 65q-45 -37 -102.5 -54.5t-124.5 -17.5q-52 0 -94 13.5t-70.5 38.5
t-42.5 60t-11 78q4 41 20 73t40 57t54.5 44.5t63.5 35.5q-28 38 -38.5 77.5t-5.5 72.5q13 81 73 127t152 46q44 0 81 -12t61.5 -34t36 -53t4.5 -70zM345 428q30 12 57 23.5t48 24.5t34.5 28.5t15.5 35.5q5 34 -13.5 54.5t-66.5 20.5q-44 0 -71.5 -23.5t-35.5 -63.5
q-4 -25 2.5 -47t29.5 -53zM306 317q-47 -22 -81 -50.5t-39 -72.5q-7 -54 21 -81t97 -27q45 0 83 16t67 42z" />
    <glyph glyph-name="quotesingle" unicode="'" horiz-adv-x="240" 
d="M233 438q-4 -9 -11 -9h-60q-9 0 -9 9l23 251q0 11 12 11h97q12 0 9 -11z" />
    <glyph glyph-name="parenleft" unicode="(" horiz-adv-x="318" 
d="M327 740q3 4 9 4h92q3 0 3.5 -2.5t-1.5 -4.5q-93 -92 -149 -209.5t-78 -250.5q-23 -133 -6 -250.5t80 -209.5q2 -2 0 -4.5t-5 -2.5h-92q-5 0 -8 4q-57 97 -78 216t0 247t81.5 247t151.5 216z" />
    <glyph glyph-name="parenright" unicode=")" horiz-adv-x="317" 
d="M230 740q6 0 7 -4q29 -48 48.5 -105t29 -118t9.5 -125.5t-11 -127.5q-21 -128 -80 -240.5t-150 -209.5q-4 -4 -9 -4h-92q-4 0 -4.5 2.5t2.5 4.5q93 92 147.5 203t77.5 244q11 66 12.5 131t-7 126t-27.5 115.5t-50 100.5q-2 2 -0.5 4.5t4.5 2.5h93z" />
    <glyph glyph-name="asterisk" unicode="*" horiz-adv-x="452" 
d="M388 740q13 0 8 -11l-33 -120l115 54q12 5 14 -6l12 -68q3 -11 -9 -14l-120 -28l63 -88q2 -4 1 -8.5t-5 -6.5l-67 -43q-9 -5 -14 3l-41 99l-73 -99q-8 -8 -16 -3l-52 43q-8 7 0 15l93 88l-110 28q-11 3 -5 14l35 68q5 11 16 6l97 -54l6 120q2 11 12 11h73z" />
    <glyph glyph-name="plus" unicode="+" horiz-adv-x="590" 
d="M422 517q11 0 9 -11l-31 -184h184q11 0 9 -10l-13 -78q-2 -10 -12 -10h-185l-30 -185q-2 -10 -12 -10h-81q-11 0 -9 10l31 185h-185q-10 0 -8 10l13 78q2 10 12 10h184l31 184q2 11 12 11h81z" />
    <glyph glyph-name="comma" unicode="," horiz-adv-x="286" 
d="M166 151q35 0 55.5 -24t12.5 -68q-11 -66 -42.5 -123.5t-69.5 -102.5q-6 -6 -14 -3l-43 24q-9 5 -2 14q28 33 44.5 63t27.5 69q-35 1 -51 22t-11 52q6 36 33 56.5t60 20.5z" />
    <glyph glyph-name="hyphen" unicode="-" horiz-adv-x="426" 
d="M113 310q2 10 12 10h282q11 0 9 -10l-13 -76q-2 -11 -12 -11h-282q-11 0 -9 11z" />
    <glyph glyph-name="period" unicode="." horiz-adv-x="284" 
d="M168 152q33 0 53 -23t14 -58q-6 -36 -33.5 -58.5t-60.5 -22.5q-34 0 -54 22.5t-14 58.5q6 35 34 58t61 23z" />
    <glyph glyph-name="slash" unicode="/" horiz-adv-x="514" 
d="M595 740q17 0 7 -15l-473 -760q-3 -5 -10 -5h-82q-8 0 -10 4t3 11l473 760q3 5 11 5h81z" />
    <glyph glyph-name="zero" unicode="0" horiz-adv-x="616" 
d="M419 700q63 0 109 -23.5t72.5 -68t33.5 -110t-7 -149.5q-29 -172 -107.5 -265.5t-203.5 -93.5q-62 0 -108 24t-73.5 70t-35 113t6.5 152q29 169 107 260t206 91zM407 593q-70 0 -113.5 -56.5t-65.5 -187.5q-22 -134 2 -193t93 -59q70 0 115.5 59t67.5 193
q22 131 -3 187.5t-96 56.5z" />
    <glyph glyph-name="one" unicode="1" horiz-adv-x="382" 
d="M413 688q10 0 8 -10l-111 -668q-2 -10 -12 -10h-92q-10 0 -8 10l89 536l-120 -46q-11 -6 -13 5l-22 83q-2 11 8 14l225 82q5 2 10.5 3t10.5 1h27z" />
    <glyph glyph-name="two" unicode="2" horiz-adv-x="560" 
d="M221 490q-7 -10 -16 -6l-71 30q-9 3 -4 12q42 83 115.5 128.5t165.5 45.5q100 0 149 -50t34 -138q-4 -28 -15 -54.5t-30.5 -55.5t-49 -62t-71.5 -73l-169 -161h257q11 0 9 -11l-14 -85q-2 -10 -12 -10h-442q-10 0 -8 10l5 32q0 2 1 3.5t2 3.5l293 281q27 26 49 48.5
t38.5 43.5t26.5 41.5t14 42.5q15 90 -91 90q-108 0 -166 -106z" />
    <glyph glyph-name="three" unicode="3" horiz-adv-x="581" 
d="M257 302q-10 0 -8 11l13 76q2 10 12 10h53q26 0 52.5 5.5t48 18.5t37 34.5t19.5 52.5q6 46 -19.5 68t-75.5 22q-60 0 -98.5 -28t-63.5 -78q-7 -11 -15 -7l-74 34q-7 3 -4 13q41 85 110.5 125.5t156.5 40.5q56 0 96.5 -15t66 -40.5t35 -60t3.5 -72.5q-11 -63 -52 -101
t-98 -55q32 -9 55.5 -27t37.5 -42t18.5 -53t-0.5 -59q-14 -85 -84 -135t-182 -50q-92 0 -154 44t-76 129q-2 8 9 12l85 29q10 3 13 -7q8 -51 40 -79t93 -28q60 0 97 27t45 78q18 107 -138 107h-54z" />
    <glyph glyph-name="four" unicode="4" horiz-adv-x="597" 
d="M597 149q-2 -11 -12 -11h-89l-20 -128q-2 -10 -13 -10h-92q-10 0 -8 10l21 128h-316q-10 0 -8 11l5 28q0 6 5 13l328 495q5 5 10 5h105q8 0 9.5 -4t-3.5 -11l-295 -432h177l22 132q2 10 13 10h92q10 0 8 -10l-22 -132h88q11 0 9 -10z" />
    <glyph glyph-name="five" unicode="5" horiz-adv-x="580" 
d="M587 587q-2 -10 -12 -10h-272l-36 -145h87q49 0 92 -11.5t74 -37t45 -67t4 -100.5q-8 -48 -30.5 -89t-57.5 -71.5t-81 -48t-102 -17.5q-88 0 -146 41t-75 132q-2 8 9 12l82 28q10 3 12 -8q7 -49 39.5 -75t89.5 -26q123 0 141 116q10 59 -19 89t-109 30h-181q-11 0 -8 11
l84 340q3 10 13 10h364q10 0 8 -11z" />
    <glyph glyph-name="six" unicode="6" horiz-adv-x="582" 
d="M511 688q19 0 6 -16l-206 -249q37 17 85 17q46 0 82.5 -15t60 -42.5t33 -67.5t1.5 -90q-9 -54 -35 -97.5t-64.5 -74t-87.5 -47t-105 -16.5q-109 0 -162 57.5t-36 159.5q8 48 29.5 93t52.5 85l229 298q3 5 10 5h107zM346 340q-57 0 -96 -35t-49 -95q-18 -115 103 -115
q61 0 100 30.5t49 87.5q11 68 -15.5 97.5t-91.5 29.5z" />
    <glyph glyph-name="seven" unicode="7" horiz-adv-x="504" 
d="M132 575q-10 0 -8 11l15 92q2 10 12 10h434q10 0 8 -10l-4 -25q-3 -12 -10 -25l-340 -622q-6 -6 -11 -6h-108q-16 0 -7 14l321 561h-302z" />
    <glyph glyph-name="eight" unicode="8" horiz-adv-x="574" 
d="M404 700q55 0 93.5 -14t62 -38t31.5 -57.5t2 -72.5q-10 -55 -45 -100.5t-97 -65.5q66 -20 91 -67.5t14 -107.5q-7 -43 -29 -77.5t-56.5 -59t-81 -37.5t-103.5 -13q-114 0 -168.5 50.5t-39.5 136.5q10 60 50.5 107.5t112.5 67.5q-55 20 -75 65.5t-11 100.5q6 39 25.5 72.5
t51 57.5t75 38t97.5 14zM387 597q-49 0 -79.5 -21t-38.5 -72q-9 -54 15 -77.5t71 -23.5q46 0 78 23.5t41 77.5q8 51 -15 72t-72 21zM338 302q-121 0 -139 -107q-8 -50 16 -75t88 -25q65 0 97.5 25t40.5 75q18 107 -103 107z" />
    <glyph glyph-name="nine" unicode="9" horiz-adv-x="583" 
d="M411 698q54 0 96 -15t69 -43t37.5 -68t2.5 -91q-8 -48 -30 -93t-53 -85l-228 -298q-5 -5 -10 -5h-108q-19 0 -6 16l206 250q-18 -9 -39.5 -13t-44.5 -4q-46 0 -82.5 14.5t-60.5 42.5t-33.5 67.5t-1.5 89.5q9 54 33.5 97.5t62 74t86 47t104.5 16.5zM394 593
q-61 0 -100.5 -30.5t-48.5 -87.5q-11 -68 15.5 -97.5t92.5 -29.5q57 0 95.5 35t48.5 95q10 57 -16.5 86t-86.5 29z" />
    <glyph glyph-name="colon" unicode=":" horiz-adv-x="282" 
d="M216 450q32 0 51.5 -21.5t13.5 -56.5q-5 -35 -32 -57t-59 -22q-33 0 -52.5 22t-14.5 57q6 35 33.5 56.5t59.5 21.5zM165 147q32 0 52 -21.5t14 -56.5t-33 -57t-59 -22q-33 0 -52.5 22t-13.5 57t33 56.5t59 21.5z" />
    <glyph glyph-name="semicolon" unicode=";" horiz-adv-x="266" 
d="M196 451q32 0 51.5 -22t14.5 -57q-6 -35 -33 -56.5t-59 -21.5q-33 0 -52.5 21.5t-13.5 56.5q5 35 32.5 57t59.5 22zM146 148q34 0 55 -23.5t14 -65.5q-10 -57 -41 -116t-76 -110q-6 -6 -14 -3l-38 23q-10 6 -2 16q30 33 49.5 64.5t27.5 65.5q-35 -2 -54 18t-14 55
q6 33 32 54.5t61 21.5z" />
    <glyph glyph-name="less" unicode="&#x3c;" horiz-adv-x="585" 
d="M614 474q0 -8 -8 -11l-325 -124l283 -125q7 -3 5 -10l-17 -102q-2 -16 -16 -9l-428 220q-6 4 -4 9l4 33q2 7 8 10l502 220q16 7 13 -10z" />
    <glyph glyph-name="equal" unicode="=" horiz-adv-x="591" 
d="M598 338q-2 -10 -11 -10h-472q-11 0 -9 10l13 77q2 11 12 11h472q10 0 8 -11zM563 121q-2 -10 -13 -10h-472q-10 0 -8 10l13 77q2 10 12 10h472q10 0 8 -10z" />
    <glyph glyph-name="greater" unicode="&#x3e;" horiz-adv-x="584" 
d="M133 463q-5 3 -5 11l17 101q3 17 16 10l429 -220q6 -3 4 -10l-5 -33q-2 -7 -8 -9l-501 -220q-16 -6 -14 9l18 102q0 7 7 10l325 125z" />
    <glyph glyph-name="question" unicode="?" horiz-adv-x="524" 
d="M370 272q-2 -11 -12 -11h-98q-10 0 -8 10q5 23 13 44t23 41t38 40t57 41q41 26 60.5 49t22.5 52q3 30 -14.5 50.5t-68.5 20.5q-48 0 -90.5 -25t-77.5 -72q-3 -4 -7 -5.5t-8 1.5l-72 51q-7 5 -2 13q49 71 117.5 105.5t146.5 34.5q54 0 93 -15t63.5 -39.5t34 -57t3.5 -67.5
q-4 -24 -12.5 -44t-24.5 -39t-39.5 -38t-56.5 -40q-38 -24 -56 -45t-25 -55zM290 146q33 0 52.5 -21t13.5 -57t-32.5 -57t-59.5 -21t-52.5 21t-14.5 57q7 36 33.5 57t59.5 21z" />
    <glyph glyph-name="at" unicode="@" horiz-adv-x="869" 
d="M673 424q12 0 10 -13l-51 -292q-5 -31 6 -52t42 -21q24 0 45 17.5t36 46.5t23 68t8 81q-1 70 -22 123t-58.5 89t-90 54t-117.5 18q-77 0 -140.5 -24.5t-109 -68.5t-71 -105t-25.5 -133q-1 -59 14.5 -107.5t46.5 -84t76.5 -55.5t103.5 -22q12 0 10 -12l-8 -46q0 -8 -11 -8
q-73 1 -129.5 26t-95.5 68t-58.5 100t-18.5 123q1 90 30 165.5t82.5 130t129.5 85.5t169 31q83 0 149.5 -24.5t113 -70t71.5 -110t25 -145.5q0 -61 -14 -112.5t-39.5 -88.5t-60.5 -57.5t-77 -20.5q-28 0 -50 10.5t-36.5 29.5t-20.5 44.5t-2 55.5q-22 -29 -60 -48t-83 -19
q-39 0 -70 14.5t-51 40t-27.5 61.5t-0.5 79q7 41 25.5 75t45.5 59t61 39t73 14q43 0 72.5 -16.5t46.5 -45.5l13 47q2 7 10 7h60zM477 352q-54 0 -84 -30.5t-37 -78.5q-9 -52 12.5 -83t72.5 -31q48 0 84 29.5t45 83.5q8 52 -17 81t-76 29z" />
    <glyph glyph-name="A" unicode="A" horiz-adv-x="744" 
d="M506 705q7 0 8 -6l199 -685q5 -14 -13 -14h-105q-6 0 -9 6l-38 149h-287l-87 -149q-4 -6 -11 -6h-119q-17 0 -8 14l427 685q3 6 10 6h33zM521 264l-60 239l-137 -239h197z" />
    <glyph glyph-name="B" unicode="B" horiz-adv-x="649" 
d="M188 690q2 10 13 10h252q121 0 173 -44t38 -131q-8 -48 -38 -89.5t-93 -70.5q61 -18 86 -62t14 -109q-16 -95 -88 -144.5t-197 -49.5h-264q-11 0 -9 10zM261 407h123q67 0 104.5 23.5t46.5 74.5q8 47 -16.5 65.5t-98.5 18.5h-128zM212 111h144q39 0 67 5.5t46 17t28 29.5
t14 43q5 30 -2.5 48.5t-25.5 29t-45.5 14.5t-63.5 4h-130z" />
    <glyph glyph-name="C" unicode="C" horiz-adv-x="722" 
d="M775 575q5 -9 -5 -14l-87 -46q-9 -5 -14 3q-25 44 -64.5 63t-101.5 19q-53 0 -99 -17.5t-81 -49.5t-59 -78.5t-33 -103.5q-10 -58 -1.5 -104.5t32.5 -79t64 -50t93 -17.5q61 0 108.5 23.5t93.5 74.5q8 8 15 2l73 -57q7 -7 0 -14q-60 -67 -135.5 -104t-173.5 -37
q-80 0 -140.5 27.5t-99 76.5t-52.5 116.5t-1 146.5t48 144.5t88 113t121.5 73.5t149.5 26q97 0 161.5 -35.5t99.5 -101.5z" />
    <glyph glyph-name="D" unicode="D" horiz-adv-x="746" 
d="M188 690q2 10 12 10h242q86 0 150.5 -24.5t105.5 -70t56.5 -109.5t3.5 -143t-48.5 -144t-92.5 -111.5t-129.5 -72t-161.5 -25.5h-242q-11 0 -9 10zM212 112h133q58 0 107 17t86.5 48.5t62.5 77.5t34 104q17 115 -37 172t-174 57h-133z" />
    <glyph glyph-name="E" unicode="E" horiz-adv-x="574" 
d="M188 690q2 10 12 10h424q11 0 9 -10l-16 -92q-2 -10 -12 -10h-314l-29 -179h277q11 0 9 -10l-14 -85q-2 -11 -12 -11h-278l-32 -191h318q11 0 9 -10l-15 -92q-3 -10 -12 -10h-428q-11 0 -9 10z" />
    <glyph glyph-name="F" unicode="F" horiz-adv-x="563" 
d="M544 287q-2 -11 -12 -11h-293l-44 -266q-2 -10 -12 -10h-99q-11 0 -9 10l113 680q2 10 13 10h416q10 0 8 -10l-15 -92q-2 -10 -12 -10h-307l-34 -207h292q11 0 9 -10z" />
    <glyph glyph-name="G" unicode="G" horiz-adv-x="801" 
d="M467 269q-11 0 -9 10l14 82q2 10 12 10h309q12 0 15 -8.5t0 -38.5q-10 -78 -42.5 -140t-82.5 -105.5t-116 -67t-144 -23.5q-82 0 -146.5 27t-107 75t-59.5 115t-4 146t49 145t89.5 114t122.5 75t148 27q46 0 88 -8.5t78 -25.5t64 -42t45 -58q5 -9 -5 -14l-86 -51
q-8 -4 -14 3q-24 44 -69.5 64t-104.5 20q-55 0 -102.5 -17.5t-83.5 -50t-60.5 -79t-33.5 -103.5q-10 -58 -0.5 -104.5t35.5 -79t68 -50t98 -17.5q47 0 87 12t71 34.5t51.5 53.5t27.5 70h-202z" />
    <glyph glyph-name="H" unicode="H" horiz-adv-x="697" 
d="M731 700q11 0 9 -10l-114 -680q-2 -10 -12 -10h-99q-11 0 -9 10l47 278h-312l-46 -278q-2 -10 -12 -10h-99q-11 0 -9 10l113 680q2 10 12 10h100q10 0 8 -10l-48 -290h311l49 290q2 10 12 10h99z" />
    <glyph glyph-name="I" unicode="I" horiz-adv-x="265" 
d="M299 700q11 0 9 -10l-113 -680q-2 -10 -12 -10h-99q-11 0 -9 10l113 680q2 10 12 10h99z" />
    <glyph glyph-name="J" unicode="J" horiz-adv-x="264" 
d="M298 700q11 0 9 -10l-106 -636q-20 -116 -80.5 -174t-175.5 -60q-10 0 -8 10l15 91q2 10 12 10q55 2 81 29t36 94l106 636q2 10 12 10h99z" />
    <glyph glyph-name="K" unicode="K" horiz-adv-x="646" 
d="M188 690q2 10 12 10h100q10 0 8 -10l-49 -297l314 301q5 6 13 6h140q11 0 12 -4.5t-7 -12.5l-350 -317l250 -349q12 -17 -10 -17h-125q-10 0 -14 7l-231 341l-56 -338q-2 -10 -12 -10h-99q-11 0 -9 10z" />
    <glyph glyph-name="L" unicode="L" horiz-adv-x="564" 
d="M300 700q10 0 8 -10l-96 -577h318q11 0 9 -11l-15 -92q-3 -10 -12 -10h-428q-11 0 -9 10l113 680q2 10 12 10h100z" />
    <glyph glyph-name="M" unicode="M" horiz-adv-x="966" 
d="M873 705q9 0 9 -8l42 -685q2 -12 -12 -12h-102q-9 0 -9 8l-19 435l-266 -407q-3 -6 -10 -6h-22q-6 0 -8 6l-137 418l-166 -446q-3 -8 -12 -8h-107q-6 0 -8.5 3.5t0.5 8.5l270 685q3 8 11 8h31q8 0 9 -6l154 -469l310 469q5 6 10 6h32z" />
    <glyph glyph-name="N" unicode="N" horiz-adv-x="708" 
d="M742 700q11 0 9 -10l-114 -685q-2 -10 -12 -10h-27q-9 0 -12 6l-316 460l-75 -451q-2 -10 -12 -10h-99q-11 0 -9 10l114 685q2 10 12 10h28q7 0 11 -6l316 -460l75 451q2 10 12 10h99z" />
    <glyph glyph-name="O" unicode="O" horiz-adv-x="809" 
d="M509 712q80 0 143.5 -27.5t105 -76t58.5 -115t4 -144.5q-13 -81 -49 -148t-89 -114t-120.5 -73t-144.5 -26q-80 0 -143.5 27.5t-105 76t-58.5 115t-4 144.5q14 81 49.5 148t88.5 114t120.5 73t144.5 26zM502 600q-53 0 -98.5 -17.5t-81 -50t-59 -78.5t-33.5 -104
q-9 -57 0 -103t34.5 -79t66 -50.5t94.5 -17.5q53 0 98 17.5t80.5 50t59 78.5t33.5 104q9 57 0.5 103t-34 79t-66 50.5t-94.5 17.5z" />
    <glyph glyph-name="P" unicode="P" horiz-adv-x="603" 
d="M188 690q2 10 13 10h243q118 0 173 -61.5t36 -170.5q-9 -54 -32.5 -97.5t-60.5 -73.5t-86 -46t-108 -16h-134l-37 -225q-2 -10 -12 -10h-99q-11 0 -9 10zM251 346h115q72 0 112.5 29t51.5 94q11 64 -20.5 92.5t-103.5 28.5h-115z" />
    <glyph glyph-name="Q" unicode="Q" horiz-adv-x="816" 
d="M525 712q79 0 141 -26.5t102.5 -74.5t56.5 -114.5t3 -146.5q-11 -69 -41 -128t-74.5 -105t-101 -77t-120.5 -44l61 -161q5 -15 -13 -15h-110q-7 0 -9 5l-55 165q-69 7 -123 36.5t-88.5 77t-47 110t-0.5 136.5q13 80 50.5 146.5t93 114.5t126 74.5t149.5 26.5zM509 603
q-54 0 -100.5 -18t-82.5 -51t-60.5 -80t-33.5 -104t-0.5 -103.5t33.5 -79.5t65 -51t94 -18t100.5 18t83 51t61 79.5t33.5 103.5q10 57 1 104t-34 80t-65.5 51t-94.5 18z" />
    <glyph glyph-name="R" unicode="R" horiz-adv-x="628" 
d="M195 10q-2 -10 -12 -10h-99q-11 0 -9 10l113 680q2 10 12 10h236q121 0 179.5 -56.5t40.5 -163.5q-9 -51 -29.5 -89t-49.5 -64.5t-64 -42t-73 -20.5l126 -248q8 -16 -11 -16h-118q-4 0 -8 4l-114 245h-80zM253 357h128q132 0 153 124q9 58 -18.5 83.5t-99.5 25.5h-124z
" />
    <glyph glyph-name="S" unicode="S" horiz-adv-x="601" 
d="M563 545q-9 -9 -15 -1q-31 32 -71.5 46t-89.5 14q-33 0 -56.5 -6.5t-38.5 -17.5t-22.5 -25.5t-10.5 -30.5q-4 -27 5 -45t28 -31.5t45.5 -23.5t57.5 -19q40 -12 78.5 -29.5t67 -43.5t43 -63t6.5 -87q-8 -49 -33 -85.5t-63 -60.5t-87.5 -36t-106.5 -12q-72 0 -138.5 21
t-114.5 73q-3 2 -2.5 6t3.5 7l66 74q8 8 16 0q19 -21 41.5 -35.5t46.5 -22.5t48.5 -11.5t46.5 -3.5q42 0 70.5 8t45.5 21t25.5 30t11.5 34q4 25 -2.5 42t-23.5 29t-43.5 21.5t-62.5 18.5q-43 12 -82.5 31t-67.5 46.5t-41.5 65t-5.5 87.5q14 87 84 134.5t183 47.5
q70 0 127 -18t103 -66q7 -7 -2 -14z" />
    <glyph glyph-name="T" unicode="T" horiz-adv-x="585" 
d="M144 690q2 10 12 10h508q10 0 8 -10l-15 -92q-2 -11 -12 -11h-194l-96 -577q-2 -10 -12 -10h-100q-10 0 -8 10l96 577h-194q-11 0 -9 11z" />
    <glyph glyph-name="U" unicode="U" horiz-adv-x="678" 
d="M716 700q10 0 8 -10l-71 -430q-10 -62 -36 -112t-65.5 -85.5t-91.5 -55t-115 -19.5t-111 19.5t-78.5 55t-41.5 85.5t-1 112l71 430q2 10 12 10h100q10 0 8 -10l-69 -418q-14 -85 15.5 -128t103.5 -43q75 0 120.5 43t59.5 128l70 418q2 10 12 10h100z" />
    <glyph glyph-name="V" unicode="V" horiz-adv-x="722" 
d="M808 700q14 0 5 -14l-426 -685q-3 -6 -11 -6h-31q-7 0 -9 6l-197 685q-5 14 10 14h103q8 0 9 -6l129 -486l292 486q5 6 12 6h114z" />
    <glyph glyph-name="W" unicode="W" horiz-adv-x="1066" 
d="M1134 700q12 0 5 -13l-351 -685q-3 -7 -11 -7h-31q-7 0 -9 6l-129 465l-278 -465q-4 -6 -11 -6h-31q-8 0 -8 7l-123 685q-3 13 9 13h101q7 0 9 -7l76 -457l266 445q5 6 12 6h18q8 0 9 -6l124 -450l231 462q4 7 10 7h112z" />
    <glyph glyph-name="X" unicode="X" horiz-adv-x="661" 
d="M739 700q16 0 3 -16l-277 -345l167 -324q3 -7 0.5 -11t-8.5 -4h-119q-5 0 -7 5l-128 259l-200 -259q-5 -5 -9 -5h-121q-18 0 -6 15l280 343l-167 326q-8 16 11 16h116q4 0 7 -5l127 -259l200 259q3 5 9 5h122z" />
    <glyph glyph-name="Y" unicode="Y" horiz-adv-x="649" 
d="M735 700q15 0 3 -15l-307 -406l-44 -269q-2 -10 -12 -10h-100q-10 0 -8 10l44 269l-171 406q-7 15 8 15h111q6 0 8 -5l117 -304l215 304q5 5 10 5h126z" />
    <glyph glyph-name="Z" unicode="Z" horiz-adv-x="634" 
d="M167 587q-11 0 -9 11l15 92q2 10 12 10h498q11 0 9 -10l-5 -30q-2 -7 -5 -10l-434 -539l342 2q11 0 9 -11l-15 -92q-3 -10 -12 -10h-508q-11 0 -9 10l5 30q1 2 2 5t3 5l433 537h-331z" />
    <glyph glyph-name="bracketleft" unicode="[" horiz-adv-x="320" 
d="M210 730q2 10 12 10h201q11 0 9 -10l-10 -57q-2 -10 -12 -10h-111l-130 -776h112q11 0 8 -10l-9 -57q-2 -10 -12 -10h-201q-11 0 -9 10z" />
    <glyph glyph-name="backslash" unicode="\" horiz-adv-x="531" 
d="M156 725q-5 15 12 15h70q6 0 8 -5l247 -760q5 -15 -12 -15h-70q-7 0 -9 5z" />
    <glyph glyph-name="bracketright" unicode="]" horiz-adv-x="320" 
d="M344 740q11 0 9 -10l-152 -910q-2 -10 -12 -10h-201q-10 0 -8 10l9 57q2 10 12 10h112l129 776h-112q-10 0 -8 10l9 57q2 10 12 10h201z" />
    <glyph glyph-name="asciicircum" unicode="^" horiz-adv-x="586" 
d="M588 319q5 -15 -11 -15h-88q-6 0 -8 6l-85 258l-176 -258q-4 -6 -10 -6h-99q-17 0 -7 15l282 388q3 5 10 5h33q6 0 8 -5z" />
    <glyph glyph-name="underscore" unicode="_" horiz-adv-x="471" 
d="M445 -155q-2 -11 -12 -11h-451q-10 0 -8 11l12 70q2 11 12 11h451q10 0 8 -11z" />
    <glyph glyph-name="grave" unicode="`" horiz-adv-x="344" 
d="M366 585q8 -15 -11 -15h-85q-5 0 -8 4l-70 111q-5 7 -2.5 11.5t13.5 4.5h104q5 0 8 -5z" />
    <glyph glyph-name="a" unicode="a" horiz-adv-x="557" 
d="M328 452q54 0 89 -22.5t52 -61.5l26 64q3 8 12 8h65q10 0 8 -10l-70 -420q-2 -10 -12 -10h-65q-8 0 -8 8l-6 65q-30 -39 -72.5 -62t-96.5 -23q-46 0 -82 17t-59.5 48t-32.5 74t0 94q8 51 31 93.5t56.5 73t76 47.5t88.5 17zM335 354q-60 0 -97 -37t-47 -96
q-10 -58 15 -96.5t84 -38.5q27 0 51 10t43.5 28t33 42.5t18.5 54.5q5 29 -0.5 53.5t-19 42t-34.5 27.5t-47 10z" />
    <glyph glyph-name="b" unicode="b" horiz-adv-x="563" 
d="M386 452q46 0 82.5 -17t60 -47.5t32.5 -73t0 -93.5t-32 -94t-56.5 -74t-75.5 -48t-89 -17q-53 0 -87.5 23t-52.5 63l-28 -66q-3 -8 -11 -8h-65q-10 0 -8 10l120 720q2 10 11 10h92q11 0 9 -10l-58 -346q30 32 69 50t87 18zM347 354q-54 0 -95 -36.5t-51 -96.5
q-5 -30 0 -55t18.5 -42.5t34 -27.5t47.5 -10q60 0 97.5 38t48.5 97q9 59 -16 96t-84 37z" />
    <glyph glyph-name="c" unicode="c" horiz-adv-x="485" 
d="M519 356q4 -7 -6 -13l-74 -40q-9 -5 -14 3q-13 24 -35 37.5t-57 13.5q-28 0 -52.5 -10.5t-42.5 -29t-30 -43t-17 -53.5q-5 -28 -1 -53.5t16.5 -44t34 -29.5t51.5 -11q32 0 55.5 15t43.5 38q9 9 16 3l62 -42q8 -5 1 -14q-40 -51 -89 -73t-112 -22q-50 0 -89.5 18t-65 50
t-36 75.5t-1.5 94.5q8 51 30.5 92.5t56.5 71t78.5 46t97.5 16.5q57 0 106 -24t73 -72z" />
    <glyph glyph-name="d" unicode="d" horiz-adv-x="562" 
d="M328 452q48 0 82 -19t53 -51l58 348q2 10 12 10h90q10 0 8 -10l-121 -720q-2 -10 -12 -10h-65q-8 0 -8 8l-6 65q-31 -39 -73.5 -62t-94.5 -23q-46 0 -82.5 17t-60 48t-32.5 74t0 94q8 51 31 93.5t56.5 73t76 47.5t88.5 17zM335 354q-60 0 -97 -37.5t-47 -95.5
q-10 -59 15 -97t84 -38q27 0 51 10t43.5 27.5t33 42.5t18.5 55q5 29 -0.5 53.5t-19 42t-34.5 27.5t-47 10z" />
    <glyph glyph-name="e" unicode="e" horiz-adv-x="521" 
d="M530 247q-4 -22 -7 -34.5t-6.5 -18.5t-7 -7.5t-8.5 -1.5h-316q-4 -48 25 -76t78 -28q35 0 65 13.5t55 36.5q9 7 15 -1l46 -52q6 -6 -2 -13q-39 -35 -90 -56t-107 -21q-53 0 -93.5 17.5t-65.5 48t-34.5 73t-0.5 93.5q8 50 31.5 92.5t59 73.5t80.5 48.5t97 17.5
q48 0 86.5 -14.5t63.5 -41.5t35 -65t1 -84zM425 264q3 40 -21 68t-76 28q-48 0 -83.5 -25.5t-46.5 -70.5h227z" />
    <glyph glyph-name="f" unicode="f" horiz-adv-x="388" 
d="M408 353q-2 -10 -12 -10h-128l-55 -333q-2 -10 -13 -10h-92q-10 0 -8 10l55 333h-70q-10 0 -8 10l13 77q2 10 11 10h70l20 117q7 43 27 77t49.5 57.5t67.5 36t82 12.5q42 0 72.5 -7.5t60.5 -23.5q9 -5 2 -14l-45 -69q-3 -4 -7.5 -5.5t-7.5 0.5q-42 21 -89 21
q-45 0 -69.5 -26.5t-31.5 -66.5l-18 -109h128q11 0 9 -10z" />
    <glyph glyph-name="g" unicode="g" horiz-adv-x="517" 
d="M566 353q-2 -10 -12 -10l-92 -1q17 -14 25 -35t3 -53q-5 -30 -21.5 -55t-43 -42t-60.5 -26.5t-75 -9.5q-52 0 -86 14q-10 -11 -13 -24q-4 -33 43 -39l114 -15q78 -10 112.5 -37.5t26.5 -78.5q-11 -66 -83 -103.5t-192 -37.5q-118 0 -169.5 33t-41.5 93q11 67 91 109
q-13 21 -8 53q4 23 19.5 43.5t41.5 35.5q-48 45 -36 120q6 35 22.5 65.5t43 52.5t63 34.5t82.5 12.5q21 0 43 -2.5t43 -9.5h164q11 0 8 -10zM320 365q-43 0 -68.5 -22t-31.5 -58q-6 -35 13.5 -56t59.5 -21q42 0 68.5 21t32.5 58q6 36 -13 57t-61 21zM154 -9q-29 -18 -35 -50
q-5 -29 22 -42.5t90 -13.5t98 9t39 31q3 17 -8.5 25t-41.5 13l-114 16q-27 4 -50 12z" />
    <glyph glyph-name="h" unicode="h" horiz-adv-x="526" 
d="M279 740q10 0 8 -10l-58 -347q30 32 68 50.5t82 18.5q86 0 123 -53t21 -150l-40 -239q-2 -10 -12 -10h-92q-10 0 -8 10l38 230q9 54 -9 82.5t-68 28.5q-46 0 -83 -35t-46 -93l-36 -213q-2 -10 -12 -10h-91q-11 0 -9 10l120 720q2 10 12 10h92z" />
    <glyph glyph-name="i" unicode="i" horiz-adv-x="210" 
d="M224 440q11 0 9 -10l-70 -420q-2 -10 -12 -10h-92q-10 0 -8 10l70 420q2 10 12 10h91zM214 666q29 0 46.5 -17.5t12.5 -46.5q-5 -30 -24.5 -47.5t-48.5 -17.5q-30 0 -47 17.5t-12 47.5q5 29 24 46.5t49 17.5z" />
    <glyph glyph-name="j" unicode="j" horiz-adv-x="211" 
d="M228 440q11 0 9 -10l-72 -428q-16 -97 -66 -143.5t-138 -48.5q-10 0 -8 10l14 86q2 10 12 10q33 2 49.5 19t22.5 56l74 439q2 10 12 10h91zM217 666q29 0 46.5 -17.5t12.5 -46.5q-5 -30 -24.5 -47.5t-48.5 -17.5q-30 0 -47 17.5t-12 47.5q5 29 24 46.5t49 17.5z" />
    <glyph glyph-name="k" unicode="k" horiz-adv-x="527" 
d="M175 730q2 10 12 10h92q10 0 8 -10l-78 -471l202 178q3 3 7 3h142q5 0 5.5 -4t-3.5 -6l-238 -195l183 -226q3 -4 1 -6.5t-5 -2.5h-131q-4 0 -6 3l-164 214l-35 -207q-2 -10 -12 -10h-91q-11 0 -9 10z" />
    <glyph glyph-name="l" unicode="l" horiz-adv-x="219" 
d="M168 10q-2 -10 -12 -10h-92q-11 0 -8 10l119 720q2 10 12 10h92q10 0 8 -10z" />
    <glyph glyph-name="m" unicode="m" horiz-adv-x="812" 
d="M121 430q2 10 11 10h65q9 0 9 -8l4 -67q32 39 73.5 63t90.5 24q52 0 86 -22.5t45 -68.5q32 43 76 67t93 24q85 0 118.5 -49.5t17.5 -140.5l-41 -252q-2 -10 -13 -10h-92q-10 0 -8 10l39 236q8 50 -8 78t-61 28q-42 0 -77.5 -29t-44.5 -86l-38 -227q-2 -10 -12 -10h-92
q-11 0 -9 10l39 235q9 54 -5.5 80.5t-60.5 26.5q-45 0 -81.5 -35.5t-46.5 -92.5l-35 -214q-2 -10 -12 -10h-92q-10 0 -8 10z" />
    <glyph glyph-name="n" unicode="n" horiz-adv-x="520" 
d="M198 440q7 0 9 -8l4 -65q31 39 73 62t91 23q85 0 122 -53t20 -150l-40 -239q-2 -10 -12 -10h-91q-11 0 -9 10l39 230q8 54 -9 82.5t-67 28.5q-22 0 -43.5 -9t-38.5 -26t-29.5 -40t-17.5 -52l-35 -214q-3 -10 -12 -10h-92q-11 0 -9 10l70 420q2 10 12 10h65z" />
    <glyph glyph-name="o" unicode="o" horiz-adv-x="549" 
d="M351 452q52 0 92.5 -17.5t66.5 -48t36.5 -73t1.5 -93.5q-8 -50 -32.5 -92.5t-61 -73.5t-83 -48.5t-98.5 -17.5t-92.5 17.5t-66.5 48.5t-36.5 73.5t-1.5 92.5q8 51 32.5 93.5t61 73t83 48t98.5 17.5zM335 358q-54 0 -94 -36t-51 -101t17 -102t82 -37t94 37t51 102t-17 101
t-82 36z" />
    <glyph glyph-name="p" unicode="p" horiz-adv-x="556" 
d="M379 452q47 0 83.5 -17t60 -48t32.5 -74t0 -94q-8 -51 -31 -93.5t-56.5 -73t-75.5 -47.5t-89 -17q-48 0 -80.5 18t-52.5 50l-39 -236q-2 -10 -12 -10h-92q-10 0 -8 10l102 610q2 10 11 10h65q9 0 9 -8l6 -66q30 40 72.5 63t94.5 23zM341 355q-26 0 -50.5 -10t-44 -28
t-33 -43t-18.5 -55q-5 -29 0.5 -53.5t19 -42t34.5 -27.5t48 -10q59 0 96 37t47 96t-15 97.5t-84 38.5z" />
    <glyph glyph-name="q" unicode="q" horiz-adv-x="558" 
d="M328 452q52 0 87.5 -23t52.5 -63l27 66q3 8 12 8h64q11 0 9 -10l-101 -610q-2 -10 -13 -10h-92q-10 0 -8 10l39 236q-29 -32 -68 -50t-87 -18q-46 0 -82.5 17t-60 47.5t-32.5 73t0 93.5t32 94t56.5 74t75.5 48t89 17zM335 355q-60 0 -98 -38.5t-48 -97.5t16 -96t85 -37
q54 0 94.5 37t50.5 96q5 30 0 55t-18.5 43t-34.5 28t-47 10z" />
    <glyph glyph-name="r" unicode="r" horiz-adv-x="349" 
d="M121 430q2 10 12 10h65q7 0 9 -8l2 -76q32 41 78.5 66.5t106.5 29.5q10 0 8 -10l-15 -90q-2 -11 -13 -11q-67 2 -117 -32.5t-63 -112.5l-31 -186q-2 -10 -12 -10h-92q-10 0 -8 10z" />
    <glyph glyph-name="s" unicode="s" horiz-adv-x="452" 
d="M415 320q-8 -8 -15 -1q-20 18 -49 30t-61 12q-68 0 -74 -38q-4 -23 13.5 -35.5t71.5 -25.5q87 -19 119.5 -49.5t23.5 -84.5q-5 -31 -23 -56.5t-46 -44t-65 -29t-80 -10.5q-58 0 -108 17t-80 43q-6 7 1 14l52 65q8 9 16 3q25 -21 59 -36.5t74 -15.5q33 0 57.5 13.5
t27.5 32.5q2 10 -1 17.5t-13.5 13.5t-31.5 12.5t-55 15.5q-75 18 -105.5 50.5t-21.5 85.5q10 61 63.5 97t137.5 36q57 0 101 -16t73 -44q7 -5 -1 -13z" />
    <glyph glyph-name="t" unicode="t" horiz-adv-x="392" 
d="M292 549q10 0 8 -10l-16 -99h123q11 0 9 -10l-13 -77q-2 -10 -12 -10h-124l-31 -185q-6 -40 4 -54.5t33 -14.5q19 0 36.5 4.5t34.5 12.5q11 5 14 -5l18 -69q3 -10 -7 -13q-30 -14 -62.5 -22.5t-62.5 -8.5q-148 0 -121 158l32 197h-69q-11 0 -9 10l13 77q2 10 12 10h75
l69 103q3 6 10 6h36z" />
    <glyph glyph-name="u" unicode="u" horiz-adv-x="519" 
d="M533 440q11 0 9 -10l-70 -420q-2 -10 -12 -10h-64q-9 0 -9 8l-4 66q-31 -39 -72.5 -62.5t-90.5 -23.5q-85 0 -122 53t-20 150l40 239q2 10 12 10h91q11 0 9 -10l-39 -230q-8 -54 9 -81t67 -27q45 0 81.5 34t45.5 91l36 213q2 10 12 10h91z" />
    <glyph glyph-name="v" unicode="v" horiz-adv-x="508" 
d="M91 425q-5 15 11 15h106q8 0 9 -6l68 -254l151 254q5 6 11 6h106q15 0 7 -15l-279 -423q-3 -6 -10 -6h-35q-5 0 -8 6z" />
    <glyph glyph-name="w" unicode="w" horiz-adv-x="790" 
d="M835 440q8 0 10 -4t-3 -10l-259 -425q-4 -6 -11 -6h-34q-5 0 -8 6l-90 268l-179 -268q-3 -6 -10 -6h-33q-6 0 -8 6l-120 425q-3 14 12 14h105q8 0 9 -6l58 -249l168 250q5 5 10 5h34q5 0 8 -5l85 -250l140 249q3 6 11 6h105z" />
    <glyph glyph-name="x" unicode="x" horiz-adv-x="504" 
d="M546 440q20 0 6 -16l-190 -204l123 -204q8 -16 -12 -16h-118q-5 0 -7 4l-73 146l-120 -146q-6 -4 -9 -4h-114q-19 0 -5 16l189 204l-121 204q-10 16 10 16h117q4 0 8 -4l73 -146l121 146q6 4 9 4h113z" />
    <glyph glyph-name="y" unicode="y" horiz-adv-x="514" 
d="M90 426q-5 14 12 14h94q8 0 9 -6l74 -299l162 299q2 6 10 6h108q16 0 7 -14l-353 -610q-4 -6 -11 -6h-104q-16 0 -7 14l115 186z" />
    <glyph glyph-name="z" unicode="z" horiz-adv-x="448" 
d="M107 346q-11 0 -9 11l12 73q2 10 12 10h352q10 0 8 -10l-5 -31q0 -5 -4 -9l-256 -296h208q11 0 9 -11l-13 -73q-2 -10 -12 -10h-369q-11 0 -9 10l6 31q0 3 1 5l2 4l257 296h-190z" />
    <glyph glyph-name="braceleft" unicode="{" horiz-adv-x="304" 
d="M407 673q-2 -10 -12 -10q-36 -1 -57.5 -9t-34 -24t-18.5 -41t-12 -60l-23 -138q-8 -48 -38 -81t-72 -38q41 -5 59.5 -38t10.5 -81l-22 -132q-6 -35 -7.5 -60t5.5 -41t25.5 -24t53.5 -9q11 0 9 -10l-9 -57q-2 -10 -12 -10q-60 1 -96 15.5t-54 42t-20.5 67.5t6.5 91l20 120
q8 45 -3.5 64t-46.5 21q-11 0 -9 10l11 67q2 11 12 11q36 2 53.5 21t25.5 64l20 120q9 51 24.5 91t42.5 67.5t68 42t101 15.5q10 0 8 -10z" />
    <glyph glyph-name="bar" unicode="|" horiz-adv-x="274" 
d="M152 -200q-2 -10 -12 -10h-76q-11 0 -9 10l160 960q2 10 12 10h76q11 0 9 -10z" />
    <glyph glyph-name="braceright" unicode="}" horiz-adv-x="303" 
d="M131 663q-11 0 -9 10l9 57q2 10 12 10q59 -1 95.5 -15.5t54.5 -42t20 -67.5t-6 -91l-20 -120q-8 -45 3.5 -64t46.5 -21q11 0 9 -11l-11 -67q-2 -10 -12 -10q-37 -2 -54.5 -21t-24.5 -64l-20 -120q-9 -51 -24.5 -91t-42.5 -67.5t-68 -42t-101 -15.5q-10 0 -8 10l9 57
q2 10 12 10q36 1 57 9t33.5 24t19 41t12.5 60l22 132q8 47 37.5 80.5t71.5 38.5q-40 5 -58.5 38t-10.5 81l23 138q6 35 7.5 60t-5.5 41t-25.5 24t-53.5 9z" />
    <glyph glyph-name="asciitilde" unicode="~" horiz-adv-x="590" 
d="M590 345q8 -2 7 -9q-6 -33 -19.5 -61.5t-33 -49.5t-46.5 -33t-60 -12q-44 0 -71.5 17.5t-48.5 37.5q-20 17 -37 28.5t-40 11.5q-26 0 -42 -19.5t-23 -54.5q-2 -12 -14 -10l-70 15q-7 2 -6 9q6 33 19.5 61.5t33.5 49.5t46 33t59 12q22 0 39.5 -5t32.5 -13t28 -19t26 -23
q14 -13 31 -24.5t41 -11.5q27 0 42 20.5t23 55.5q4 13 15 10z" />
    <glyph glyph-name="exclamdown" unicode="&#xa1;" horiz-adv-x="307" 
d="M239 512q33 0 53.5 -22t14.5 -59q-6 -36 -34 -58.5t-61 -22.5q-32 0 -52.5 22.5t-14.5 58.5q6 37 34 59t60 22zM228 248q8 0 8 -10l-20 -232l-32 -196q-2 -10 -12 -10h-101q-10 0 -8 10l31 196l57 232q3 10 13 10h64z" />
    <glyph glyph-name="cent" unicode="&#xa2;" horiz-adv-x="530" 
d="M444 720q11 0 9 -10l-20 -120q49 -6 88.5 -29.5t64.5 -68.5q5 -8 -5 -14l-80 -50q-10 -5 -15 3q-15 29 -44.5 45t-70.5 16q-60 0 -105 -36t-57 -106q-11 -70 22 -106t93 -36q42 0 76.5 16t58.5 45q8 8 17 3l63 -50q8 -6 0 -14q-40 -45 -87.5 -68.5t-98.5 -29.5l-20 -120
q-2 -10 -12 -10h-70q-11 0 -9 10l20 121q-45 8 -79.5 28t-56.5 50.5t-29.5 71t0.5 89.5q17 99 82.5 162t162.5 77l19 121q2 10 13 10h70z" />
    <glyph glyph-name="sterling" unicode="&#xa3;" horiz-adv-x="744" 
d="M597 330q-2 -10 -12 -10h-200q-8 -40 -16 -83.5t-22 -85.5q30 -24 64 -45t71 -21q45 0 79.5 24t58.5 86q5 12 15 8l73 -33q8 -3 5 -12q-24 -53 -52 -86.5t-59.5 -52.5t-66.5 -26t-73 -7q-48 0 -91 20.5t-73 48.5q-25 -36 -54 -52t-69 -16q-32 0 -52 11t-31.5 27.5t-15 36
t-1.5 37.5q3 28 14.5 49t29 34.5t39.5 20t45 6.5q11 0 25 -2t24 -6q4 17 7 30t5.5 26t5.5 27.5t7 35.5h-74q-10 0 -8 10l11 66q2 11 12 11h76l15 75q23 112 80.5 165t147.5 53q82 0 127 -44t54 -115q1 -9 -9 -12l-81 -26q-11 -3 -12 7q-2 17 -7.5 33.5t-15.5 29t-26 20
t-39 7.5q-48 0 -73 -30t-38 -89l-15 -74h197q11 0 9 -11zM227 112q-16 12 -31 12q-11 0 -21.5 -5.5t-12.5 -22.5q-2 -11 3 -19t18 -8q12 0 23.5 9.5t20.5 33.5z" />
    <glyph glyph-name="currency" unicode="&#xa4;" horiz-adv-x="615" 
d="M394 523q30 0 54.5 -7t43.5 -18l86 75q7 7 14 0l41 -50q5 -7 -3 -14l-85 -69q12 -23 16 -50.5t-1 -60.5q-5 -29 -16.5 -54t-26.5 -48l61 -70q5 -7 -3 -14l-58 -49q-7 -7 -14 0l-56 71q-53 -31 -118 -31q-34 0 -60 8t-46 23l-79 -71q-8 -7 -15 0l-41 49q-5 7 3 14l83 70
q-19 46 -10 102q5 33 18 60t33 50l-61 70q-5 7 3 14l59 50q7 7 14 0l59 -75q47 25 105 25zM380 436q-51 0 -83.5 -29t-40.5 -78q-9 -50 14 -79t75 -29q51 0 83 29t41 79q8 49 -15 78t-74 29z" />
    <glyph glyph-name="yen" unicode="&#xa5;" horiz-adv-x="646" 
d="M130 389q2 11 12 11h115l-108 285q-5 15 12 15h105q6 0 8 -5l99 -295h24l199 295q3 5 10 5h115q8 0 9.5 -4t-3.5 -11l-204 -285h115q11 0 9 -11l-10 -60q-2 -10 -12 -10h-496q-11 0 -9 10zM106 249q2 10 13 10h496q10 0 8 -10l-10 -60q-2 -11 -11 -11h-188l-28 -168
q-2 -10 -13 -10h-99q-10 0 -8 10l28 168h-189q-11 0 -9 11z" />
    <glyph glyph-name="brokenbar" unicode="&#xa6;" horiz-adv-x="275" 
d="M252 393q-2 -11 -12 -11h-77q-10 0 -8 11l61 372q2 10 13 10h76q10 0 8 -10zM153 -200q-2 -10 -12 -10h-76q-11 0 -9 10l61 368q2 10 12 10h76q11 0 9 -10z" />
    <glyph glyph-name="section" unicode="&#xa7;" horiz-adv-x="588" 
d="M552 540q-8 -8 -14 0q-30 30 -72.5 49.5t-90.5 19.5q-52 0 -85.5 -14t-39.5 -52q-3 -17 2 -30.5t20.5 -26t44.5 -24.5t74 -26q114 -33 159.5 -81t34.5 -119q-8 -47 -37.5 -79.5t-74.5 -49.5q34 -23 51.5 -59.5t9.5 -84.5q-14 -83 -77.5 -124.5t-167.5 -41.5
q-76 0 -143 25t-109 68q-6 6 1 14l68 67q8 8 16 0q13 -17 32 -30t41.5 -22t46.5 -14t47 -5q53 0 85 15.5t38 50.5q3 18 -2 32.5t-21.5 27t-45 24.5t-73.5 25q-115 33 -160.5 84t-33.5 123q8 48 38 79.5t76 49.5q-33 25 -51 64.5t-10 84.5q13 79 76 115.5t164 36.5
q69 0 136.5 -25t112.5 -67q6 -6 -2 -14zM197 271q-3 -24 10 -40.5t36.5 -28.5t55.5 -20t66 -16q48 6 70.5 25t27.5 49q4 24 -10.5 41.5t-39 29.5t-56.5 20t-62 14q-48 -4 -71 -23.5t-27 -50.5z" />
    <glyph glyph-name="dieresis" unicode="&#xa8;" horiz-adv-x="478" 
d="M255 701q30 0 44 -17.5t9 -46.5t-24.5 -46t-50.5 -17q-30 0 -44 17t-9 46t24.5 46.5t50.5 17.5zM457 701q31 0 45 -17.5t9 -46.5t-24.5 -46t-50.5 -17q-30 0 -44 17t-9 46t24.5 46.5t49.5 17.5z" />
    <glyph glyph-name="copyright" unicode="&#xa9;" horiz-adv-x="837" 
d="M477 715q78 0 145 -27.5t116 -76.5t76.5 -116t27.5 -145t-27.5 -145t-76.5 -116t-116 -76.5t-145 -27.5t-145 27.5t-116 76.5t-76.5 116t-27.5 145t27.5 145t76.5 116t116 76.5t145 27.5zM477 668q-68 0 -126 -24t-100 -67t-65.5 -101t-23.5 -126t23.5 -126t65.5 -101
t100 -67t126 -24t126 24t100 67t65.5 101t23.5 126t-23.5 126t-65.5 101t-100 67t-126 24zM641 478q6 -8 -2 -14l-52 -39q-7 -6 -15 2q-32 38 -90 38q-46 0 -76 -27t-30 -87t30 -87.5t76 -27.5q29 0 52 9t40 29q7 7 14 2l53 -39q9 -7 2 -15q-26 -31 -67.5 -51.5t-94.5 -20.5
q-45 0 -82.5 16t-63.5 43t-40.5 63.5t-14.5 78.5t14.5 78.5t40.5 63.5t63.5 42.5t82.5 15.5q53 0 93.5 -20.5t66.5 -52.5z" />
    <glyph glyph-name="ordfeminine" unicode="&#xaa;" horiz-adv-x="407" 
d="M302 702q33 0 58 -13.5t35 -35.5l7 34q2 10 12 10h62q11 0 9 -10l-50 -290q-2 -10 -12 -10h-45q-9 0 -9 8l-4 43q-21 -27 -50.5 -42.5t-64.5 -15.5q-66 0 -99.5 44t-21.5 117q6 36 21.5 66t38.5 51t52 32.5t61 11.5zM308 624q-36 0 -61.5 -23t-32.5 -60q-6 -37 12.5 -60
t54.5 -23q35 0 61.5 22.5t33.5 60.5q6 38 -13.5 60.5t-54.5 22.5z" />
    <glyph glyph-name="guillemotleft" unicode="&#xab;" horiz-adv-x="528" 
d="M94 264q-2 5 2 11l130 160q5 5 9 5h92q19 0 7 -15l-127 -159l71 -152q8 -15 -12 -15h-88q-4 0 -7 5zM296 264q-2 5 2 11l130 160q5 5 9 5h103q9 0 10.5 -4.5t-4.5 -11.5l-135 -157l79 -152q5 -8 1.5 -12t-12.5 -4h-99q-4 0 -7 5z" />
    <glyph glyph-name="logicalnot" unicode="&#xac;" horiz-adv-x="604" 
d="M102 256q-10 0 -8 10l13 81q2 10 12 10h484q10 0 8 -10l-39 -241q-2 -11 -13 -11h-92q-10 0 -8 11l24 150h-381z" />
    <glyph glyph-name="registered" unicode="&#xae;" horiz-adv-x="730" 
d="M442 775q67 0 124.5 -23.5t99.5 -65.5t65.5 -99t23.5 -124t-23.5 -124.5t-65.5 -99.5t-99.5 -65.5t-124.5 -23.5t-124 23.5t-99 65.5t-65.5 99.5t-23.5 124.5t23.5 124t65.5 99t99 65.5t124 23.5zM442 731q-58 0 -106.5 -20t-83.5 -56t-54.5 -85t-19.5 -107t19.5 -107.5
t54.5 -85.5t83.5 -56t106.5 -20q59 0 107.5 20t83 56t54 85.5t19.5 107.5t-19.5 107t-54 85t-83 56t-107.5 20zM313 623q0 10 10 10h137q67 0 100 -27.5t33 -77.5q0 -32 -16.5 -60.5t-60.5 -44.5l73 -108q11 -16 -8 -16h-73q-5 0 -8 5l-60 97h-45v-92q0 -10 -10 -10h-62
q-10 0 -10 10v314zM395 474h40q35 0 53 10.5t18 34.5q0 23 -14 32.5t-52 9.5h-45v-87z" />
    <glyph glyph-name="macron" unicode="&#xaf;" horiz-adv-x="469" 
d="M498 606q-2 -10 -12 -10h-303q-11 0 -9 10l11 62q2 11 12 11h303q10 0 8 -11z" />
    <glyph glyph-name="degree" unicode="&#xb0;" horiz-adv-x="401" 
d="M324 740q36 0 64 -12t46 -33.5t25 -50.5t1 -64q-6 -34 -22.5 -63.5t-42 -51.5t-57 -34t-67.5 -12q-35 0 -63 12t-46 34t-25.5 51.5t-1.5 63.5q6 35 23 64t42 50.5t57 33.5t67 12zM312 663q-36 0 -62 -22.5t-32 -60.5q-7 -38 11.5 -61t54.5 -23q35 0 61 23t33 61
q6 38 -12.5 60.5t-53.5 22.5z" />
    <glyph glyph-name="plusminus" unicode="&#xb1;" horiz-adv-x="598" 
d="M430 540q10 0 8 -11l-29 -177h188q11 0 9 -10l-13 -77q-2 -11 -12 -11h-189l-26 -156h188q12 0 10 -10l-13 -78q-2 -10 -12 -10h-479q-10 0 -8 10l12 78q2 10 12 10h188l26 156h-188q-10 0 -8 11l12 77q2 10 13 10h188l30 177q2 11 12 11h81z" />
    <glyph glyph-name="twosuperior" unicode="&#xb2;" horiz-adv-x="337" 
d="M213 698q-6 -9 -16 -6l-51 22q-10 4 -4 13q29 49 74 76t101 27q63 0 93.5 -31.5t21.5 -86.5q-7 -40 -31 -73t-66 -69l-87 -76h137q11 0 9 -10l-11 -64q-2 -10 -12 -10h-269q-11 0 -9 10l5 29q0 3 4 7l175 163q29 26 43.5 46t17.5 40t-7.5 32t-36.5 12q-50 0 -81 -51z" />
    <glyph glyph-name="threesuperior" unicode="&#xb3;" horiz-adv-x="349" 
d="M230 581q-10 0 -8 11l8 50q2 10 12 10h30q26 0 46 14t25 40q7 43 -44 43q-52 0 -83 -49q-7 -9 -14 -6l-52 26q-9 5 -4 13q23 45 62 71t100 26q70 0 104 -33t26 -82q-6 -37 -29.5 -60.5t-56.5 -34.5q36 -11 50 -40.5t8 -64.5q-8 -54 -49.5 -84.5t-110.5 -30.5
q-57 0 -97 26t-51 77q-2 8 9 12l61 22q10 5 12 -5q14 -51 68 -51q60 0 68 49q8 51 -60 51h-30z" />
    <glyph glyph-name="acute" unicode="&#xb4;" horiz-adv-x="346" 
d="M264 696q3 5 10 5h104q10 0 11.5 -4.5t-6.5 -11.5l-109 -111q-4 -4 -9 -4h-85q-19 0 -6 15z" />
    <glyph glyph-name="uni00B5" unicode="&#xb5;" horiz-adv-x="524" 
d="M225 440q11 0 9 -10l-35 -208q-11 -69 6.5 -99.5t66.5 -30.5q21 0 41.5 6t37.5 20.5t29.5 38.5t18.5 60l35 213q2 10 12 10h92q11 0 9 -10l-70 -420q-2 -10 -12 -10h-68q-9 0 -9 8l-3 55q-26 -35 -62 -54t-78 -19q-57 0 -87 30l-26 -201q-2 -10 -12 -10h-92q-11 0 -9 10
l102 611q2 10 12 10h92z" />
    <glyph glyph-name="paragraph" unicode="&#xb6;" horiz-adv-x="641" 
d="M675 700q10 0 8 -10l-138 -831q-2 -10 -13 -10h-69q-10 0 -8 10l125 753h-100l-125 -753q-2 -10 -13 -10h-69q-10 0 -8 10l67 404q-53 0 -95 11.5t-69.5 37.5t-38.5 68t-1 102q10 61 35 102.5t61.5 67t83.5 37t101 11.5h266z" />
    <glyph glyph-name="periodcentered" unicode="&#xb7;" horiz-adv-x="277" 
d="M202 378q30 0 49.5 -21.5t14.5 -56.5q-6 -35 -32.5 -56.5t-57.5 -21.5t-50.5 21.5t-13.5 56.5q3 18 11.5 32t21 24.5t27.5 16t30 5.5z" />
    <glyph glyph-name="cedilla" unicode="&#xb8;" horiz-adv-x="384" 
d="M198 17q13 0 8 -12l-16 -49q57 -5 81 -29t18 -62q-8 -43 -49 -65t-113 -22q-42 0 -82 8q-8 2 -5 12l15 49q3 11 15 8q17 -5 38.5 -7t38.5 -2q26 0 40 8.5t16 21.5q3 17 -16 25t-69 10q-13 0 -8 12l30 86q3 8 12 8h46z" />
    <glyph glyph-name="onesuperior" unicode="&#xb9;" horiz-adv-x="248" 
d="M329 820q11 0 8 -10l-64 -390q-2 -10 -12 -10h-69q-10 0 -8 10l49 297l-73 -20q-10 -3 -12 7l-7 64q-2 9 9 13l145 39h3h31z" />
    <glyph glyph-name="ordmasculine" unicode="&#xba;" horiz-adv-x="403" 
d="M317 702q36 0 64.5 -12t46.5 -34t25.5 -51.5t1.5 -64.5t-23 -64.5t-42 -50.5t-57 -33t-67 -12q-36 0 -64.5 12t-47 33.5t-25.5 51t-1 65.5q6 35 23 64.5t41.5 50.5t56.5 33t68 12zM307 624q-35 0 -61 -23t-33 -60q-6 -37 8 -60t51 -23q36 0 64 23t34 60t-9.5 60t-53.5 23
z" />
    <glyph glyph-name="guillemotright" unicode="&#xbb;" horiz-adv-x="527" 
d="M522 275q4 -5 -2 -11l-129 -160q-3 -5 -9 -5h-92q-18 0 -6 15l126 161l-71 150q-7 15 12 15h87q6 0 8 -5zM320 275q4 -5 -2 -11l-129 -160q-3 -5 -9 -5h-103q-18 0 -5 16l136 160l-76 149q-8 16 11 16h93q6 0 8 -5z" />
    <glyph glyph-name="onequarter" unicode="&#xbc;" horiz-adv-x="797" 
d="M309 700q11 0 8 -10l-64 -390q-2 -10 -12 -10h-69q-10 0 -8 10l49 297l-73 -20q-10 -3 -12 7l-7 64q-2 9 9 13l145 39h3h31zM735 700q18 0 6 -15l-524 -680q-5 -5 -11 -5h-65q-18 0 -6 15l524 680q5 5 11 5h65zM796 84q-4 -11 -12 -11h-47l-11 -63q-2 -10 -12 -10h-67
q-10 0 -8 10l10 63h-188q-11 0 -9 11l5 30q1 1 1 2t1 2l182 286q5 6 10 6h79q17 0 7 -15l-163 -242h89l12 73q2 10 12 10h67q10 0 8 -10l-12 -73h47q10 0 8 -10z" />
    <glyph glyph-name="onehalf" unicode="&#xbd;" horiz-adv-x="811" 
d="M309 700q11 0 8 -10l-64 -390q-2 -10 -12 -10h-69q-10 0 -8 10l49 297l-73 -20q-10 -3 -12 7l-7 64q-2 9 9 13l145 39h3h31zM734 700q18 0 6 -15l-524 -680q-5 -5 -10 -5h-66q-18 0 -6 15l525 680q3 5 10 5h65zM618 288q-6 -9 -15 -6l-51 22q-10 4 -4 13q28 49 73 76
t101 27q63 0 94 -31.5t22 -86.5q-7 -40 -31.5 -73t-66.5 -69l-87 -76h138q11 0 9 -10l-11 -64q-2 -10 -12 -10h-270q-10 0 -8 10l4 29q1 2 2 3.5t3 3.5l175 163q29 26 43 46t18 40q3 20 -7.5 32t-36.5 12q-50 0 -82 -51z" />
    <glyph glyph-name="threequarters" unicode="&#xbe;" horiz-adv-x="875" 
d="M210 461q-10 0 -8 11l8 50q2 10 12 10h30q26 0 46 14t25 40q7 43 -44 43q-52 0 -83 -49q-6 -9 -14 -6l-53 20q-10 4 -4 13q26 50 71 76.5t106 26.5q63 0 94.5 -28t23.5 -77q-6 -36 -30 -65t-57 -40q36 -11 50.5 -36.5t8.5 -60.5q-4 -27 -18.5 -49.5t-37 -39t-52 -25.5
t-63.5 -9q-57 0 -93 26t-46 77q-2 8 9 12l61 22q10 5 12 -5q14 -51 68 -51q60 0 68 49q8 51 -60 51h-30zM808 700q19 0 7 -15l-525 -680q-3 -5 -10 -5h-65q-19 0 -7 15l525 680q5 5 10 5h65zM873 84q-2 -11 -11 -11h-47l-11 -63q-2 -10 -12 -10h-67q-10 0 -8 10l10 63h-188
q-11 0 -9 11l5 30q1 1 1 2t1 2l182 286q5 6 10 6h79q17 0 7 -15l-163 -242h89l12 73q2 10 12 10h67q10 0 8 -10l-12 -73h47q10 0 8 -10z" />
    <glyph glyph-name="questiondown" unicode="&#xbf;" horiz-adv-x="515" 
d="M379 512q32 0 53 -22t16 -59q-3 -18 -12.5 -33t-22.5 -25.5t-29 -16.5t-32 -6q-32 0 -52.5 22.5t-13.5 58.5q6 37 33 59t60 22zM395 283q10 0 8 -10q-5 -23 -13.5 -45.5t-25.5 -44.5t-44 -43.5t-69 -43.5q-28 -15 -47.5 -26.5t-32 -23.5t-19 -24.5t-8.5 -29.5
q-5 -42 18 -64.5t80 -22.5q49 0 85.5 26.5t68.5 66.5q6 8 15 1l62 -52q6 -6 -1 -14q-49 -65 -111.5 -99t-137.5 -34q-54 0 -94 15.5t-64.5 41.5t-33.5 61t-3 73q5 33 18.5 59t35 47t50.5 39t63 37q20 11 35 21.5t25.5 22t17 25t10.5 31.5q2 10 13 10h99z" />
    <glyph glyph-name="Agrave" unicode="&#xc0;" horiz-adv-x="744" 
d="M506 705q7 0 8 -6l199 -685q5 -14 -13 -14h-105q-6 0 -9 6l-38 149h-287l-87 -149q-4 -6 -11 -6h-119q-17 0 -8 14l427 685q3 6 10 6h33zM521 264l-60 239l-137 -239h197zM544 765q8 -15 -11 -15h-85q-5 0 -8 4l-70 111q-5 7 -2.5 11.5t13.5 4.5h104q5 0 8 -5z" />
    <glyph glyph-name="Aacute" unicode="&#xc1;" horiz-adv-x="744" 
d="M506 705q7 0 8 -6l199 -685q5 -14 -13 -14h-105q-6 0 -9 6l-38 149h-287l-87 -149q-4 -6 -11 -6h-119q-17 0 -8 14l427 685q3 6 10 6h33zM521 264l-60 239l-137 -239h197zM541 876q3 5 10 5h104q10 0 11.5 -4.5t-6.5 -11.5l-109 -111q-4 -4 -9 -4h-85q-19 0 -6 15z" />
    <glyph glyph-name="Acircumflex" unicode="&#xc2;" horiz-adv-x="744" 
d="M506 705q7 0 8 -6l199 -685q5 -14 -13 -14h-105q-6 0 -9 6l-38 149h-287l-87 -149q-4 -6 -11 -6h-119q-17 0 -8 14l427 685q3 6 10 6h33zM521 264l-60 239l-137 -239h197zM657 766q5 -6 2.5 -11t-10.5 -5h-79q-6 0 -9 4l-56 73l-65 -72q-3 -4 -5.5 -4.5t-4.5 -0.5h-84
q-10 0 -11.5 4.5t6.5 11.5l114 111q3 4 9 4h86q4 0 8 -4z" />
    <glyph glyph-name="Atilde" unicode="&#xc3;" horiz-adv-x="744" 
d="M506 705q7 0 8 -6l199 -685q5 -14 -13 -14h-105q-6 0 -9 6l-38 149h-287l-87 -149q-4 -6 -11 -6h-119q-17 0 -8 14l427 685q3 6 10 6h33zM521 264l-60 239l-137 -239h197zM682 883q11 0 9 -10q-7 -43 -19.5 -71.5t-29 -45.5t-35.5 -23.5t-39 -6.5q-23 0 -39.5 11.5
t-30.5 26t-26.5 26t-27.5 11.5q-13 0 -24 -14t-16 -47q-2 -10 -12 -10h-66q-10 0 -8 10q5 40 17.5 68.5t29.5 46.5t36.5 26t39.5 8q23 0 40 -12t30.5 -26.5t26.5 -26.5t28 -12q14 0 24 12t15 49q2 10 12 10h65z" />
    <glyph glyph-name="Adieresis" unicode="&#xc4;" horiz-adv-x="744" 
d="M506 705q7 0 8 -6l199 -685q5 -14 -13 -14h-105q-6 0 -9 6l-38 149h-287l-87 -149q-4 -6 -11 -6h-119q-17 0 -8 14l427 685q3 6 10 6h33zM521 264l-60 239l-137 -239h197zM416 881q30 0 44 -17.5t9 -46.5t-24.5 -46t-50.5 -17q-30 0 -44 17t-9 46t24.5 46.5t50.5 17.5z
M618 881q31 0 45 -17.5t9 -46.5t-24.5 -46t-50.5 -17q-30 0 -44 17t-9 46t24.5 46.5t49.5 17.5z" />
    <glyph glyph-name="Aring" unicode="&#xc5;" horiz-adv-x="744" 
d="M506 705q7 0 8 -6l199 -685q5 -14 -13 -14h-105q-6 0 -9 6l-38 149h-287l-87 -149q-4 -6 -11 -6h-119q-17 0 -8 14l427 685q3 6 10 6h33zM521 264l-60 239l-137 -239h197zM531 971q57 0 86.5 -34.5t20.5 -87.5q-4 -26 -17 -48t-32.5 -38t-44.5 -25t-53 -9q-57 0 -86.5 34
t-20.5 86q4 26 17 48.5t32.5 39t44.5 25.5t53 9zM521 907q-29 0 -45 -16t-21 -42q-4 -25 7 -40.5t40 -15.5t44.5 15.5t20.5 40.5q5 26 -6 42t-40 16z" />
    <glyph glyph-name="AE" unicode="&#xc6;" horiz-adv-x="936" 
d="M983 598q-2 -10 -12 -10h-366l17 -179h281q10 0 8 -10l-14 -85q-2 -11 -12 -11h-254l18 -191h243q11 0 9 -10l-16 -92q-2 -10 -12 -10h-330q-8 0 -8 8l-14 150h-266l-91 -152q-4 -6 -11 -6h-109q-17 0 -8 14l417 680q5 6 10 6h526q11 0 9 -10zM515 269l-27 283l-170 -283
h197z" />
    <glyph glyph-name="Ccedilla" unicode="&#xc7;" horiz-adv-x="722" 
d="M775 575q5 -9 -5 -14l-87 -46q-9 -5 -14 3q-25 44 -64.5 63t-101.5 19q-53 0 -99 -17.5t-81 -49.5t-59 -78.5t-33 -103.5q-10 -58 -1.5 -104.5t32.5 -79t64 -50t93 -17.5q61 0 108.5 23.5t93.5 74.5q8 8 15 2l73 -57q7 -7 0 -14q-60 -67 -135.5 -104t-173.5 -37
q-80 0 -140.5 27.5t-99 76.5t-52.5 116.5t-1 146.5t48 144.5t88 113t121.5 73.5t149.5 26q97 0 161.5 -35.5t99.5 -101.5zM425 17q13 0 8 -12l-16 -49q57 -5 81 -29t18 -62q-8 -43 -49 -65t-113 -22q-42 0 -82 8q-8 2 -5 12l15 49q3 11 15 8q17 -5 38.5 -7t38.5 -2
q26 0 40 8.5t16 21.5q3 17 -16 25t-69 10q-13 0 -8 12l30 86q3 8 12 8h46z" />
    <glyph glyph-name="Egrave" unicode="&#xc8;" horiz-adv-x="574" 
d="M188 690q2 10 12 10h424q11 0 9 -10l-16 -92q-2 -10 -12 -10h-314l-29 -179h277q11 0 9 -10l-14 -85q-2 -11 -12 -11h-278l-32 -191h318q11 0 9 -10l-15 -92q-3 -10 -12 -10h-428q-11 0 -9 10zM474 765q8 -15 -11 -15h-85q-5 0 -8 4l-70 111q-5 7 -2.5 11.5t13.5 4.5h104
q5 0 8 -5z" />
    <glyph glyph-name="Eacute" unicode="&#xc9;" horiz-adv-x="574" 
d="M188 690q2 10 12 10h424q11 0 9 -10l-16 -92q-2 -10 -12 -10h-314l-29 -179h277q11 0 9 -10l-14 -85q-2 -11 -12 -11h-278l-32 -191h318q11 0 9 -10l-15 -92q-3 -10 -12 -10h-428q-11 0 -9 10zM471 876q3 5 10 5h104q10 0 11.5 -4.5t-6.5 -11.5l-109 -111q-4 -4 -9 -4
h-85q-19 0 -6 15z" />
    <glyph glyph-name="Ecircumflex" unicode="&#xca;" horiz-adv-x="574" 
d="M188 690q2 10 12 10h424q11 0 9 -10l-16 -92q-2 -10 -12 -10h-314l-29 -179h277q11 0 9 -10l-14 -85q-2 -11 -12 -11h-278l-32 -191h318q11 0 9 -10l-15 -92q-3 -10 -12 -10h-428q-11 0 -9 10zM587 766q5 -6 2.5 -11t-10.5 -5h-79q-6 0 -9 4l-56 73l-65 -72
q-3 -4 -5.5 -4.5t-4.5 -0.5h-84q-10 0 -11.5 4.5t6.5 11.5l114 111q3 4 9 4h86q4 0 8 -4z" />
    <glyph glyph-name="Edieresis" unicode="&#xcb;" horiz-adv-x="574" 
d="M188 690q2 10 12 10h424q11 0 9 -10l-16 -92q-2 -10 -12 -10h-314l-29 -179h277q11 0 9 -10l-14 -85q-2 -11 -12 -11h-278l-32 -191h318q11 0 9 -10l-15 -92q-3 -10 -12 -10h-428q-11 0 -9 10zM345 881q30 0 44 -17.5t9 -46.5t-24.5 -46t-50.5 -17q-30 0 -44 17t-9 46
t24.5 46.5t50.5 17.5zM547 881q31 0 45 -17.5t9 -46.5t-24.5 -46t-50.5 -17q-30 0 -44 17t-9 46t24.5 46.5t49.5 17.5z" />
    <glyph glyph-name="Igrave" unicode="&#xcc;" horiz-adv-x="265" 
d="M299 700q11 0 9 -10l-113 -680q-2 -10 -12 -10h-99q-11 0 -9 10l113 680q2 10 12 10h99zM307 765q8 -15 -11 -15h-85q-5 0 -8 4l-70 111q-5 7 -2.5 11.5t13.5 4.5h104q5 0 8 -5z" />
    <glyph glyph-name="Iacute" unicode="&#xcd;" horiz-adv-x="265" 
d="M299 700q11 0 9 -10l-113 -680q-2 -10 -12 -10h-99q-11 0 -9 10l113 680q2 10 12 10h99zM305 876q3 5 10 5h104q10 0 11.5 -4.5t-6.5 -11.5l-109 -111q-4 -4 -9 -4h-85q-19 0 -6 15z" />
    <glyph glyph-name="Icircumflex" unicode="&#xce;" horiz-adv-x="265" 
d="M299 700q11 0 9 -10l-113 -680q-2 -10 -12 -10h-99q-11 0 -9 10l113 680q2 10 12 10h99zM420 766q5 -6 2.5 -11t-10.5 -5h-79q-6 0 -9 4l-56 73l-65 -72q-3 -4 -5.5 -4.5t-4.5 -0.5h-84q-10 0 -11.5 4.5t6.5 11.5l114 111q3 4 9 4h86q4 0 8 -4z" />
    <glyph glyph-name="Idieresis" unicode="&#xcf;" horiz-adv-x="265" 
d="M299 700q11 0 9 -10l-113 -680q-2 -10 -12 -10h-99q-11 0 -9 10l113 680q2 10 12 10h99zM179 881q30 0 44 -17.5t9 -46.5t-24.5 -46t-50.5 -17q-30 0 -44 17t-9 46t24.5 46.5t50.5 17.5zM381 881q31 0 45 -17.5t9 -46.5t-24.5 -46t-50.5 -17q-30 0 -44 17t-9 46
t24.5 46.5t49.5 17.5z" />
    <glyph glyph-name="Eth" unicode="&#xd0;" horiz-adv-x="798" 
d="M241 690q2 10 12 10h243q87 0 152 -24t105.5 -68.5t55.5 -107.5t2 -141q-13 -80 -50.5 -146t-94 -113.5t-129.5 -73.5t-158 -26h-243q-11 0 -9 10l49 294h-72q-10 0 -8 10l11 67q2 10 12 10h72zM459 391q10 0 8 -10l-11 -67q-2 -10 -12 -10h-148l-31 -191h132
q118 0 194 64.5t96 181.5q19 113 -35 170.5t-176 57.5h-133l-32 -196h148z" />
    <glyph glyph-name="Ntilde" unicode="&#xd1;" horiz-adv-x="708" 
d="M742 700q11 0 9 -10l-114 -685q-2 -10 -12 -10h-27q-9 0 -12 6l-316 460l-75 -451q-2 -10 -12 -10h-99q-11 0 -9 10l114 685q2 10 12 10h28q7 0 11 -6l316 -460l75 451q2 10 12 10h99zM662 883q11 0 9 -10q-7 -43 -19.5 -71.5t-29 -45.5t-35.5 -23.5t-39 -6.5
q-23 0 -39.5 11.5t-30.5 26t-26.5 26t-27.5 11.5q-13 0 -24 -14t-16 -47q-2 -10 -12 -10h-66q-10 0 -8 10q5 40 17.5 68.5t29.5 46.5t36.5 26t39.5 8q23 0 40 -12t30.5 -26.5t26.5 -26.5t28 -12q14 0 24 12t15 49q2 10 12 10h65z" />
    <glyph glyph-name="Ograve" unicode="&#xd2;" horiz-adv-x="809" 
d="M509 712q80 0 143.5 -27.5t105 -76t58.5 -115t4 -144.5q-13 -81 -49 -148t-89 -114t-120.5 -73t-144.5 -26q-80 0 -143.5 27.5t-105 76t-58.5 115t-4 144.5q14 81 49.5 148t88.5 114t120.5 73t144.5 26zM502 600q-53 0 -98.5 -17.5t-81 -50t-59 -78.5t-33.5 -104
q-9 -57 0 -103t34.5 -79t66 -50.5t94.5 -17.5q53 0 98 17.5t80.5 50t59 78.5t33.5 104q9 57 0.5 103t-34 79t-66 50.5t-94.5 17.5zM574 775q8 -15 -11 -15h-85q-5 0 -8 4l-70 111q-5 7 -2.5 11.5t13.5 4.5h104q5 0 8 -5z" />
    <glyph glyph-name="Oacute" unicode="&#xd3;" horiz-adv-x="809" 
d="M509 712q80 0 143.5 -27.5t105 -76t58.5 -115t4 -144.5q-13 -81 -49 -148t-89 -114t-120.5 -73t-144.5 -26q-80 0 -143.5 27.5t-105 76t-58.5 115t-4 144.5q14 81 49.5 148t88.5 114t120.5 73t144.5 26zM502 600q-53 0 -98.5 -17.5t-81 -50t-59 -78.5t-33.5 -104
q-9 -57 0 -103t34.5 -79t66 -50.5t94.5 -17.5q53 0 98 17.5t80.5 50t59 78.5t33.5 104q9 57 0.5 103t-34 79t-66 50.5t-94.5 17.5zM572 886q3 5 10 5h104q10 0 11.5 -4.5t-6.5 -11.5l-109 -111q-4 -4 -9 -4h-85q-19 0 -6 15z" />
    <glyph glyph-name="Ocircumflex" unicode="&#xd4;" horiz-adv-x="809" 
d="M509 712q80 0 143.5 -27.5t105 -76t58.5 -115t4 -144.5q-13 -81 -49 -148t-89 -114t-120.5 -73t-144.5 -26q-80 0 -143.5 27.5t-105 76t-58.5 115t-4 144.5q14 81 49.5 148t88.5 114t120.5 73t144.5 26zM502 600q-53 0 -98.5 -17.5t-81 -50t-59 -78.5t-33.5 -104
q-9 -57 0 -103t34.5 -79t66 -50.5t94.5 -17.5q53 0 98 17.5t80.5 50t59 78.5t33.5 104q9 57 0.5 103t-34 79t-66 50.5t-94.5 17.5zM688 776q5 -6 2.5 -11t-10.5 -5h-79q-6 0 -9 4l-56 73l-65 -72q-3 -4 -5.5 -4.5t-4.5 -0.5h-84q-10 0 -11.5 4.5t6.5 11.5l114 111q3 4 9 4
h86q4 0 8 -4z" />
    <glyph glyph-name="Otilde" unicode="&#xd5;" horiz-adv-x="809" 
d="M509 712q80 0 143.5 -27.5t105 -76t58.5 -115t4 -144.5q-13 -81 -49 -148t-89 -114t-120.5 -73t-144.5 -26q-80 0 -143.5 27.5t-105 76t-58.5 115t-4 144.5q14 81 49.5 148t88.5 114t120.5 73t144.5 26zM502 600q-53 0 -98.5 -17.5t-81 -50t-59 -78.5t-33.5 -104
q-9 -57 0 -103t34.5 -79t66 -50.5t94.5 -17.5q53 0 98 17.5t80.5 50t59 78.5t33.5 104q9 57 0.5 103t-34 79t-66 50.5t-94.5 17.5zM712 893q11 0 9 -10q-7 -43 -19.5 -71.5t-29 -45.5t-35.5 -23.5t-39 -6.5q-23 0 -39.5 11.5t-30.5 26t-26.5 26t-27.5 11.5q-13 0 -24 -14
t-16 -47q-2 -10 -12 -10h-66q-10 0 -8 10q5 40 17.5 68.5t29.5 46.5t36.5 26t39.5 8q23 0 40 -12t30.5 -26.5t26.5 -26.5t28 -12q14 0 24 12t15 49q2 10 12 10h65z" />
    <glyph glyph-name="Odieresis" unicode="&#xd6;" horiz-adv-x="809" 
d="M509 712q80 0 143.5 -27.5t105 -76t58.5 -115t4 -144.5q-13 -81 -49 -148t-89 -114t-120.5 -73t-144.5 -26q-80 0 -143.5 27.5t-105 76t-58.5 115t-4 144.5q14 81 49.5 148t88.5 114t120.5 73t144.5 26zM502 600q-53 0 -98.5 -17.5t-81 -50t-59 -78.5t-33.5 -104
q-9 -57 0 -103t34.5 -79t66 -50.5t94.5 -17.5q53 0 98 17.5t80.5 50t59 78.5t33.5 104q9 57 0.5 103t-34 79t-66 50.5t-94.5 17.5zM446 891q30 0 44 -17.5t9 -46.5t-24.5 -46t-50.5 -17q-30 0 -44 17t-9 46t24.5 46.5t50.5 17.5zM648 891q31 0 45 -17.5t9 -46.5t-24.5 -46
t-50.5 -17q-30 0 -44 17t-9 46t24.5 46.5t49.5 17.5z" />
    <glyph glyph-name="multiply" unicode="&#xd7;" horiz-adv-x="570" 
d="M582 426q5 -7 -3 -14l-182 -155l137 -166q5 -7 -2 -14l-59 -49q-7 -9 -14 0l-137 164l-182 -154q-7 -7 -14 0l-48 59q-3 3 -3 7t5 7l182 154l-137 166q-7 7 2 14l59 49q7 7 14 0l137 -165l180 154q9 7 14 0z" />
    <glyph glyph-name="Oslash" unicode="&#xd8;" horiz-adv-x="809" 
d="M524 712q119 0 196 -60l101 99q6 8 14 2l38 -38q6 -5 -1 -14l-101 -99q35 -48 48.5 -112t0.5 -140q-13 -79 -50 -145.5t-92.5 -114.5t-125.5 -75t-149 -27q-60 0 -108.5 15t-86.5 44l-105 -104q-8 -8 -15 -1l-36 40q-6 6 1 13l103 102q-36 48 -49.5 112t-0.5 141
q14 80 51 146.5t92.5 114.5t125.5 74.5t149 26.5zM505 601q-54 0 -100 -17.5t-82 -50.5t-60 -79.5t-33 -103.5q-8 -49 -2.5 -89.5t22.5 -71.5l382 376q-49 36 -127 36zM297 134q23 -17 54.5 -26t69.5 -9q54 0 100 17.5t82 50.5t60 79.5t34 103.5q15 97 -20 160z" />
    <glyph glyph-name="Ugrave" unicode="&#xd9;" horiz-adv-x="678" 
d="M716 700q10 0 8 -10l-71 -430q-10 -62 -36 -112t-65.5 -85.5t-91.5 -55t-115 -19.5t-111 19.5t-78.5 55t-41.5 85.5t-1 112l71 430q2 10 12 10h100q10 0 8 -10l-69 -418q-14 -85 15.5 -128t103.5 -43q75 0 120.5 43t59.5 128l70 418q2 10 12 10h100zM508 765
q8 -15 -11 -15h-85q-5 0 -8 4l-70 111q-5 7 -2.5 11.5t13.5 4.5h104q5 0 8 -5z" />
    <glyph glyph-name="Uacute" unicode="&#xda;" horiz-adv-x="678" 
d="M716 700q10 0 8 -10l-71 -430q-10 -62 -36 -112t-65.5 -85.5t-91.5 -55t-115 -19.5t-111 19.5t-78.5 55t-41.5 85.5t-1 112l71 430q2 10 12 10h100q10 0 8 -10l-69 -418q-14 -85 15.5 -128t103.5 -43q75 0 120.5 43t59.5 128l70 418q2 10 12 10h100zM506 876q3 5 10 5
h104q10 0 11.5 -4.5t-6.5 -11.5l-109 -111q-4 -4 -9 -4h-85q-19 0 -6 15z" />
    <glyph glyph-name="Ucircumflex" unicode="&#xdb;" horiz-adv-x="678" 
d="M716 700q10 0 8 -10l-71 -430q-10 -62 -36 -112t-65.5 -85.5t-91.5 -55t-115 -19.5t-111 19.5t-78.5 55t-41.5 85.5t-1 112l71 430q2 10 12 10h100q10 0 8 -10l-69 -418q-14 -85 15.5 -128t103.5 -43q75 0 120.5 43t59.5 128l70 418q2 10 12 10h100zM622 766
q5 -6 2.5 -11t-10.5 -5h-79q-6 0 -9 4l-56 73l-65 -72q-3 -4 -5.5 -4.5t-4.5 -0.5h-84q-10 0 -11.5 4.5t6.5 11.5l114 111q3 4 9 4h86q4 0 8 -4z" />
    <glyph glyph-name="Udieresis" unicode="&#xdc;" horiz-adv-x="678" 
d="M716 700q10 0 8 -10l-71 -430q-10 -62 -36 -112t-65.5 -85.5t-91.5 -55t-115 -19.5t-111 19.5t-78.5 55t-41.5 85.5t-1 112l71 430q2 10 12 10h100q10 0 8 -10l-69 -418q-14 -85 15.5 -128t103.5 -43q75 0 120.5 43t59.5 128l70 418q2 10 12 10h100zM380 881
q30 0 44 -17.5t9 -46.5t-24.5 -46t-50.5 -17q-30 0 -44 17t-9 46t24.5 46.5t50.5 17.5zM582 881q31 0 45 -17.5t9 -46.5t-24.5 -46t-50.5 -17q-30 0 -44 17t-9 46t24.5 46.5t49.5 17.5z" />
    <glyph glyph-name="Yacute" unicode="&#xdd;" horiz-adv-x="649" 
d="M735 700q15 0 3 -15l-307 -406l-44 -269q-2 -10 -12 -10h-100q-10 0 -8 10l44 269l-171 406q-7 15 8 15h111q6 0 8 -5l117 -304l215 304q5 5 10 5h126zM494 876q3 5 10 5h104q10 0 11.5 -4.5t-6.5 -11.5l-109 -111q-4 -4 -9 -4h-85q-19 0 -6 15z" />
    <glyph glyph-name="Thorn" unicode="&#xde;" horiz-adv-x="604" 
d="M188 690q2 10 13 10h99q10 0 8 -10l-22 -130h126q122 0 180.5 -55t42.5 -154q-17 -99 -84 -154.5t-185 -55.5h-149l-22 -131q-2 -10 -12 -10h-99q-11 0 -9 10zM236 253h120q72 0 109 22.5t45 74.5q5 27 1.5 45.5t-16 30.5t-35.5 17t-58 5h-134z" />
    <glyph glyph-name="germandbls" unicode="&#xdf;" horiz-adv-x="560" 
d="M32 -190q-10 0 -8 10l117 706q8 47 29 84.5t52 64t71.5 41t86.5 14.5q94 0 136.5 -40.5t31.5 -106.5q-5 -30 -19.5 -55.5t-31 -47t-30 -40.5t-16.5 -37q-3 -16 15.5 -36t40 -46.5t37.5 -62t8 -83.5q-6 -34 -23.5 -68t-48 -60t-75 -42.5t-104.5 -16.5q-47 0 -82 7
q-8 2 -6 10l14 83q2 12 13 10q14 -2 31.5 -4t33.5 -2q59 0 91.5 29.5t38.5 70.5q4 25 -2.5 43t-19 33t-27.5 28t-27.5 28t-19.5 32.5t-3 41.5q5 26 19 47t30.5 40t30.5 38t17 40q5 32 -9.5 50t-58.5 18q-47 0 -75 -27.5t-36 -79.5l-118 -704q-2 -10 -12 -10h-92z" />
    <glyph glyph-name="agrave" unicode="&#xe0;" horiz-adv-x="557" 
d="M328 452q54 0 89 -22.5t52 -61.5l26 64q3 8 12 8h65q10 0 8 -10l-70 -420q-2 -10 -12 -10h-65q-8 0 -8 8l-6 65q-30 -39 -72.5 -62t-96.5 -23q-46 0 -82 17t-59.5 48t-32.5 74t0 94q8 51 31 93.5t56.5 73t76 47.5t88.5 17zM335 354q-60 0 -97 -37t-47 -96
q-10 -58 15 -96.5t84 -38.5q27 0 51 10t43.5 28t33 42.5t18.5 54.5q5 29 -0.5 53.5t-19 42t-34.5 27.5t-47 10zM409 545q8 -15 -11 -15h-85q-5 0 -8 4l-70 111q-5 7 -2.5 11.5t13.5 4.5h104q5 0 8 -5z" />
    <glyph glyph-name="aacute" unicode="&#xe1;" horiz-adv-x="557" 
d="M328 452q54 0 89 -22.5t52 -61.5l26 64q3 8 12 8h65q10 0 8 -10l-70 -420q-2 -10 -12 -10h-65q-8 0 -8 8l-6 65q-30 -39 -72.5 -62t-96.5 -23q-46 0 -82 17t-59.5 48t-32.5 74t0 94q8 51 31 93.5t56.5 73t76 47.5t88.5 17zM335 354q-60 0 -97 -37t-47 -96
q-10 -58 15 -96.5t84 -38.5q27 0 51 10t43.5 28t33 42.5t18.5 54.5q5 29 -0.5 53.5t-19 42t-34.5 27.5t-47 10zM407 656q3 5 10 5h104q10 0 11.5 -4.5t-6.5 -11.5l-109 -111q-4 -4 -9 -4h-85q-19 0 -6 15z" />
    <glyph glyph-name="acircumflex" unicode="&#xe2;" horiz-adv-x="557" 
d="M328 452q54 0 89 -22.5t52 -61.5l26 64q3 8 12 8h65q10 0 8 -10l-70 -420q-2 -10 -12 -10h-65q-8 0 -8 8l-6 65q-30 -39 -72.5 -62t-96.5 -23q-46 0 -82 17t-59.5 48t-32.5 74t0 94q8 51 31 93.5t56.5 73t76 47.5t88.5 17zM335 354q-60 0 -97 -37t-47 -96
q-10 -58 15 -96.5t84 -38.5q27 0 51 10t43.5 28t33 42.5t18.5 54.5q5 29 -0.5 53.5t-19 42t-34.5 27.5t-47 10zM522 546q5 -6 2.5 -11t-10.5 -5h-79q-6 0 -9 4l-56 73l-65 -72q-3 -4 -5.5 -4.5t-4.5 -0.5h-84q-10 0 -11.5 4.5t6.5 11.5l114 111q3 4 9 4h86q4 0 8 -4z" />
    <glyph glyph-name="atilde" unicode="&#xe3;" horiz-adv-x="557" 
d="M328 452q54 0 89 -22.5t52 -61.5l26 64q3 8 12 8h65q10 0 8 -10l-70 -420q-2 -10 -12 -10h-65q-8 0 -8 8l-6 65q-30 -39 -72.5 -62t-96.5 -23q-46 0 -82 17t-59.5 48t-32.5 74t0 94q8 51 31 93.5t56.5 73t76 47.5t88.5 17zM335 354q-60 0 -97 -37t-47 -96
q-10 -58 15 -96.5t84 -38.5q27 0 51 10t43.5 28t33 42.5t18.5 54.5q5 29 -0.5 53.5t-19 42t-34.5 27.5t-47 10zM547 663q11 0 9 -10q-7 -43 -19.5 -71.5t-29 -45.5t-35.5 -23.5t-39 -6.5q-23 0 -39.5 11.5t-30.5 26t-26.5 26t-27.5 11.5q-13 0 -24 -14t-16 -47
q-2 -10 -12 -10h-66q-10 0 -8 10q5 40 17.5 68.5t29.5 46.5t36.5 26t39.5 8q23 0 40 -12t30.5 -26.5t26.5 -26.5t28 -12q14 0 24 12t15 49q2 10 12 10h65z" />
    <glyph glyph-name="adieresis" unicode="&#xe4;" horiz-adv-x="557" 
d="M328 452q54 0 89 -22.5t52 -61.5l26 64q3 8 12 8h65q10 0 8 -10l-70 -420q-2 -10 -12 -10h-65q-8 0 -8 8l-6 65q-30 -39 -72.5 -62t-96.5 -23q-46 0 -82 17t-59.5 48t-32.5 74t0 94q8 51 31 93.5t56.5 73t76 47.5t88.5 17zM335 354q-60 0 -97 -37t-47 -96
q-10 -58 15 -96.5t84 -38.5q27 0 51 10t43.5 28t33 42.5t18.5 54.5q5 29 -0.5 53.5t-19 42t-34.5 27.5t-47 10zM281 661q30 0 44 -17.5t9 -46.5t-24.5 -46t-50.5 -17q-30 0 -44 17t-9 46t24.5 46.5t50.5 17.5zM483 661q31 0 45 -17.5t9 -46.5t-24.5 -46t-50.5 -17
q-30 0 -44 17t-9 46t24.5 46.5t49.5 17.5z" />
    <glyph glyph-name="aring" unicode="&#xe5;" horiz-adv-x="557" 
d="M328 452q54 0 89 -22.5t52 -61.5l26 64q3 8 12 8h65q10 0 8 -10l-70 -420q-2 -10 -12 -10h-65q-8 0 -8 8l-6 65q-30 -39 -72.5 -62t-96.5 -23q-46 0 -82 17t-59.5 48t-32.5 74t0 94q8 51 31 93.5t56.5 73t76 47.5t88.5 17zM335 354q-60 0 -97 -37t-47 -96
q-10 -58 15 -96.5t84 -38.5q27 0 51 10t43.5 28t33 42.5t18.5 54.5q5 29 -0.5 53.5t-19 42t-34.5 27.5t-47 10zM396 751q57 0 86.5 -34.5t20.5 -87.5q-4 -26 -17 -48t-32.5 -38t-44.5 -25t-53 -9q-57 0 -86.5 34t-20.5 86q4 26 17 48.5t32.5 39t44.5 25.5t53 9zM386 687
q-29 0 -45 -16t-21 -42q-4 -25 7 -40.5t40 -15.5t44.5 15.5t20.5 40.5q5 26 -6 42t-40 16z" />
    <glyph glyph-name="ae" unicode="&#xe6;" horiz-adv-x="863" 
d="M869 224q-4 -19 -9 -27.5t-16 -8.5h-311q-4 -46 23.5 -74t75.5 -28q29 0 55 12t49 33q10 6 15 1l55 -49q6 -5 -1 -14q-37 -38 -80 -59.5t-94 -21.5q-45 0 -82 18.5t-55 53.5l-14 -51q-4 -9 -12 -9h-59q-9 0 -9 9l4 53q-29 -35 -67 -54.5t-87 -19.5q-46 0 -82.5 17
t-59.5 47.5t-32 73.5t0 94q8 51 31 93.5t56 73.5t75 48t88 17q48 0 79 -17.5t49 -47.5l7 43q2 10 12 10h78q11 0 9 -10l-7 -44q32 35 72 50.5t85 15.5q46 0 80 -16.5t54 -46.5t26.5 -72t-1.5 -93zM769 264q2 40 -19 67t-75 27q-48 0 -82.5 -26t-46.5 -68h223zM335 355
q-61 0 -97.5 -36t-47.5 -99q-10 -63 14.5 -99t85.5 -36q26 0 50 10t43.5 28t32.5 43t18 54q10 59 -18 97t-81 38z" />
    <glyph glyph-name="ccedilla" unicode="&#xe7;" horiz-adv-x="485" 
d="M519 356q4 -7 -6 -13l-74 -40q-9 -5 -14 3q-13 24 -35 37.5t-57 13.5q-28 0 -52.5 -10.5t-42.5 -29t-30 -43t-17 -53.5q-5 -28 -1 -53.5t16.5 -44t34 -29.5t51.5 -11q32 0 55.5 15t43.5 38q9 9 16 3l62 -42q8 -5 1 -14q-40 -51 -89 -73t-112 -22q-50 0 -89.5 18t-65 50
t-36 75.5t-1.5 94.5q8 51 30.5 92.5t56.5 71t78.5 46t97.5 16.5q57 0 106 -24t73 -72zM285 17q13 0 8 -12l-16 -49q57 -5 81 -29t18 -62q-8 -43 -49 -65t-113 -22q-42 0 -82 8q-8 2 -5 12l15 49q3 11 15 8q17 -5 38.5 -7t38.5 -2q26 0 40 8.5t16 21.5q3 17 -16 25t-69 10
q-13 0 -8 12l30 86q3 8 12 8h46z" />
    <glyph glyph-name="egrave" unicode="&#xe8;" horiz-adv-x="521" 
d="M530 247q-4 -22 -7 -34.5t-6.5 -18.5t-7 -7.5t-8.5 -1.5h-316q-4 -48 25 -76t78 -28q35 0 65 13.5t55 36.5q9 7 15 -1l46 -52q6 -6 -2 -13q-39 -35 -90 -56t-107 -21q-53 0 -93.5 17.5t-65.5 48t-34.5 73t-0.5 93.5q8 50 31.5 92.5t59 73.5t80.5 48.5t97 17.5
q48 0 86.5 -14.5t63.5 -41.5t35 -65t1 -84zM425 264q3 40 -21 68t-76 28q-48 0 -83.5 -25.5t-46.5 -70.5h227zM404 545q8 -15 -11 -15h-85q-5 0 -8 4l-70 111q-5 7 -2.5 11.5t13.5 4.5h104q5 0 8 -5z" />
    <glyph glyph-name="eacute" unicode="&#xe9;" horiz-adv-x="521" 
d="M530 247q-4 -22 -7 -34.5t-6.5 -18.5t-7 -7.5t-8.5 -1.5h-316q-4 -48 25 -76t78 -28q35 0 65 13.5t55 36.5q9 7 15 -1l46 -52q6 -6 -2 -13q-39 -35 -90 -56t-107 -21q-53 0 -93.5 17.5t-65.5 48t-34.5 73t-0.5 93.5q8 50 31.5 92.5t59 73.5t80.5 48.5t97 17.5
q48 0 86.5 -14.5t63.5 -41.5t35 -65t1 -84zM425 264q3 40 -21 68t-76 28q-48 0 -83.5 -25.5t-46.5 -70.5h227zM402 656q3 5 10 5h104q10 0 11.5 -4.5t-6.5 -11.5l-109 -111q-4 -4 -9 -4h-85q-19 0 -6 15z" />
    <glyph glyph-name="ecircumflex" unicode="&#xea;" horiz-adv-x="521" 
d="M530 247q-4 -22 -7 -34.5t-6.5 -18.5t-7 -7.5t-8.5 -1.5h-316q-4 -48 25 -76t78 -28q35 0 65 13.5t55 36.5q9 7 15 -1l46 -52q6 -6 -2 -13q-39 -35 -90 -56t-107 -21q-53 0 -93.5 17.5t-65.5 48t-34.5 73t-0.5 93.5q8 50 31.5 92.5t59 73.5t80.5 48.5t97 17.5
q48 0 86.5 -14.5t63.5 -41.5t35 -65t1 -84zM425 264q3 40 -21 68t-76 28q-48 0 -83.5 -25.5t-46.5 -70.5h227zM517 546q5 -6 2.5 -11t-10.5 -5h-79q-6 0 -9 4l-56 73l-65 -72q-3 -4 -5.5 -4.5t-4.5 -0.5h-84q-10 0 -11.5 4.5t6.5 11.5l114 111q3 4 9 4h86q4 0 8 -4z" />
    <glyph glyph-name="edieresis" unicode="&#xeb;" horiz-adv-x="521" 
d="M530 247q-4 -22 -7 -34.5t-6.5 -18.5t-7 -7.5t-8.5 -1.5h-316q-4 -48 25 -76t78 -28q35 0 65 13.5t55 36.5q9 7 15 -1l46 -52q6 -6 -2 -13q-39 -35 -90 -56t-107 -21q-53 0 -93.5 17.5t-65.5 48t-34.5 73t-0.5 93.5q8 50 31.5 92.5t59 73.5t80.5 48.5t97 17.5
q48 0 86.5 -14.5t63.5 -41.5t35 -65t1 -84zM425 264q3 40 -21 68t-76 28q-48 0 -83.5 -25.5t-46.5 -70.5h227zM276 661q30 0 44 -17.5t9 -46.5t-24.5 -46t-50.5 -17q-30 0 -44 17t-9 46t24.5 46.5t50.5 17.5zM478 661q31 0 45 -17.5t9 -46.5t-24.5 -46t-50.5 -17
q-30 0 -44 17t-9 46t24.5 46.5t49.5 17.5z" />
    <glyph glyph-name="igrave" unicode="&#xec;" horiz-adv-x="210" 
d="M224 440q11 0 9 -10l-70 -420q-2 -10 -12 -10h-92q-10 0 -8 10l70 420q2 10 12 10h91zM243 545q8 -15 -11 -15h-85q-5 0 -8 4l-70 111q-5 7 -2.5 11.5t13.5 4.5h104q5 0 8 -5z" />
    <glyph glyph-name="iacute" unicode="&#xed;" horiz-adv-x="210" 
d="M224 440q11 0 9 -10l-70 -420q-2 -10 -12 -10h-92q-10 0 -8 10l70 420q2 10 12 10h91zM241 656q3 5 10 5h104q10 0 11.5 -4.5t-6.5 -11.5l-109 -111q-4 -4 -9 -4h-85q-19 0 -6 15z" />
    <glyph glyph-name="icircumflex" unicode="&#xee;" horiz-adv-x="210" 
d="M224 440q11 0 9 -10l-70 -420q-2 -10 -12 -10h-92q-10 0 -8 10l70 420q2 10 12 10h91zM357 546q5 -6 2.5 -11t-10.5 -5h-79q-6 0 -9 4l-56 73l-65 -72q-3 -4 -5.5 -4.5t-4.5 -0.5h-84q-10 0 -11.5 4.5t6.5 11.5l114 111q3 4 9 4h86q4 0 8 -4z" />
    <glyph glyph-name="idieresis" unicode="&#xef;" horiz-adv-x="210" 
d="M224 440q11 0 9 -10l-70 -420q-2 -10 -12 -10h-92q-10 0 -8 10l70 420q2 10 12 10h91zM115 661q30 0 44 -17.5t9 -46.5t-24.5 -46t-50.5 -17q-30 0 -44 17t-9 46t24.5 46.5t50.5 17.5zM317 661q31 0 45 -17.5t9 -46.5t-24.5 -46t-50.5 -17q-30 0 -44 17t-9 46t24.5 46.5
t49.5 17.5z" />
    <glyph glyph-name="eth" unicode="&#xf0;" horiz-adv-x="563" 
d="M246 531q-10 -4 -13 4l-20 50q-3 9 7 14l82 38l-41 88q-8 15 10 15h107q6 0 8 -5l21 -46l76 36q10 5 13 -4l19 -50q3 -8 -6 -14l-74 -35l102 -237q18 -42 24.5 -86t-1.5 -92q-8 -51 -31 -91.5t-58.5 -69t-81.5 -43.5t-100 -15q-56 0 -99.5 16.5t-72 47.5t-39.5 75t-2 98
q8 50 31 90t56 67.5t74.5 42.5t87.5 15q23 0 44 -4.5t37 -13.5l-72 150zM342 340q-65 0 -102 -29.5t-48 -97.5q-10 -57 19 -88.5t90 -31.5q60 0 96 30t45 87q11 60 -16 95t-84 35z" />
    <glyph glyph-name="ntilde" unicode="&#xf1;" horiz-adv-x="520" 
d="M198 440q7 0 9 -8l4 -65q31 39 73 62t91 23q85 0 122 -53t20 -150l-40 -239q-2 -10 -12 -10h-91q-11 0 -9 10l39 230q8 54 -9 82.5t-67 28.5q-22 0 -43.5 -9t-38.5 -26t-29.5 -40t-17.5 -52l-35 -214q-3 -10 -12 -10h-92q-11 0 -9 10l70 420q2 10 12 10h65zM533 663
q11 0 9 -10q-7 -43 -19.5 -71.5t-29 -45.5t-35.5 -23.5t-39 -6.5q-23 0 -39.5 11.5t-30.5 26t-26.5 26t-27.5 11.5q-13 0 -24 -14t-16 -47q-2 -10 -12 -10h-66q-10 0 -8 10q5 40 17.5 68.5t29.5 46.5t36.5 26t39.5 8q23 0 40 -12t30.5 -26.5t26.5 -26.5t28 -12q14 0 24 12
t15 49q2 10 12 10h65z" />
    <glyph glyph-name="ograve" unicode="&#xf2;" horiz-adv-x="549" 
d="M351 452q52 0 92.5 -17.5t66.5 -48t36.5 -73t1.5 -93.5q-8 -50 -32.5 -92.5t-61 -73.5t-83 -48.5t-98.5 -17.5t-92.5 17.5t-66.5 48.5t-36.5 73.5t-1.5 92.5q8 51 32.5 93.5t61 73t83 48t98.5 17.5zM335 358q-54 0 -94 -36t-51 -101t17 -102t82 -37t94 37t51 102t-17 101
t-82 36zM412 545q8 -15 -11 -15h-85q-5 0 -8 4l-70 111q-5 7 -2.5 11.5t13.5 4.5h104q5 0 8 -5z" />
    <glyph glyph-name="oacute" unicode="&#xf3;" horiz-adv-x="549" 
d="M351 452q52 0 92.5 -17.5t66.5 -48t36.5 -73t1.5 -93.5q-8 -50 -32.5 -92.5t-61 -73.5t-83 -48.5t-98.5 -17.5t-92.5 17.5t-66.5 48.5t-36.5 73.5t-1.5 92.5q8 51 32.5 93.5t61 73t83 48t98.5 17.5zM335 358q-54 0 -94 -36t-51 -101t17 -102t82 -37t94 37t51 102t-17 101
t-82 36zM410 656q3 5 10 5h104q10 0 11.5 -4.5t-6.5 -11.5l-109 -111q-4 -4 -9 -4h-85q-19 0 -6 15z" />
    <glyph glyph-name="ocircumflex" unicode="&#xf4;" horiz-adv-x="549" 
d="M351 452q52 0 92.5 -17.5t66.5 -48t36.5 -73t1.5 -93.5q-8 -50 -32.5 -92.5t-61 -73.5t-83 -48.5t-98.5 -17.5t-92.5 17.5t-66.5 48.5t-36.5 73.5t-1.5 92.5q8 51 32.5 93.5t61 73t83 48t98.5 17.5zM335 358q-54 0 -94 -36t-51 -101t17 -102t82 -37t94 37t51 102t-17 101
t-82 36zM525 546q5 -6 2.5 -11t-10.5 -5h-79q-6 0 -9 4l-56 73l-65 -72q-3 -4 -5.5 -4.5t-4.5 -0.5h-84q-10 0 -11.5 4.5t6.5 11.5l114 111q3 4 9 4h86q4 0 8 -4z" />
    <glyph glyph-name="otilde" unicode="&#xf5;" horiz-adv-x="549" 
d="M351 452q52 0 92.5 -17.5t66.5 -48t36.5 -73t1.5 -93.5q-8 -50 -32.5 -92.5t-61 -73.5t-83 -48.5t-98.5 -17.5t-92.5 17.5t-66.5 48.5t-36.5 73.5t-1.5 92.5q8 51 32.5 93.5t61 73t83 48t98.5 17.5zM335 358q-54 0 -94 -36t-51 -101t17 -102t82 -37t94 37t51 102t-17 101
t-82 36zM550 663q11 0 9 -10q-7 -43 -19.5 -71.5t-29 -45.5t-35.5 -23.5t-39 -6.5q-23 0 -39.5 11.5t-30.5 26t-26.5 26t-27.5 11.5q-13 0 -24 -14t-16 -47q-2 -10 -12 -10h-66q-10 0 -8 10q5 40 17.5 68.5t29.5 46.5t36.5 26t39.5 8q23 0 40 -12t30.5 -26.5t26.5 -26.5
t28 -12q14 0 24 12t15 49q2 10 12 10h65z" />
    <glyph glyph-name="odieresis" unicode="&#xf6;" horiz-adv-x="549" 
d="M351 452q52 0 92.5 -17.5t66.5 -48t36.5 -73t1.5 -93.5q-8 -50 -32.5 -92.5t-61 -73.5t-83 -48.5t-98.5 -17.5t-92.5 17.5t-66.5 48.5t-36.5 73.5t-1.5 92.5q8 51 32.5 93.5t61 73t83 48t98.5 17.5zM335 358q-54 0 -94 -36t-51 -101t17 -102t82 -37t94 37t51 102t-17 101
t-82 36zM284 661q30 0 44 -17.5t9 -46.5t-24.5 -46t-50.5 -17q-30 0 -44 17t-9 46t24.5 46.5t50.5 17.5zM486 661q31 0 45 -17.5t9 -46.5t-24.5 -46t-50.5 -17q-30 0 -44 17t-9 46t24.5 46.5t49.5 17.5z" />
    <glyph glyph-name="divide" unicode="&#xf7;" horiz-adv-x="596" 
d="M389 542q32 0 51 -21t13 -56q-5 -35 -31.5 -56t-58.5 -21q-31 0 -50.5 21t-14.5 56q6 35 32.5 56t58.5 21zM590 321q11 0 9 -10l-13 -77q-2 -10 -12 -10h-477q-10 0 -8 10l13 77q2 10 11 10h477zM325 157q31 0 50.5 -21t13.5 -56t-32 -56t-58 -21t-51 21t-14 56
q6 35 32.5 56t58.5 21z" />
    <glyph glyph-name="oslash" unicode="&#xf8;" horiz-adv-x="549" 
d="M527 510q8 8 15 2l39 -32q8 -6 0 -14l-72 -80q26 -31 37 -73t2 -93q-8 -50 -32.5 -92.5t-61 -73t-83 -48t-98.5 -17.5q-57 0 -103 22l-75 -84q-8 -8 -15 -2l-38 35q-6 6 1 14l72 80q-27 31 -37.5 73t-1.5 93q8 50 32.5 92.5t61 73.5t82.5 48t98 17q61 0 104 -22zM335 358
q-54 0 -93.5 -36t-50.5 -101q-8 -48 5 -78l185 205q-22 10 -46 10zM243 92q10 -5 21 -7.5t25 -2.5q54 0 94 37t51 102q4 23 2 41.5t-8 34.5z" />
    <glyph glyph-name="ugrave" unicode="&#xf9;" horiz-adv-x="519" 
d="M533 440q11 0 9 -10l-70 -420q-2 -10 -12 -10h-64q-9 0 -9 8l-4 66q-31 -39 -72.5 -62.5t-90.5 -23.5q-85 0 -122 53t-20 150l40 239q2 10 12 10h91q11 0 9 -10l-39 -230q-8 -54 9 -81t67 -27q45 0 81.5 34t45.5 91l36 213q2 10 12 10h91zM393 545q8 -15 -11 -15h-85
q-5 0 -8 4l-70 111q-5 7 -2.5 11.5t13.5 4.5h104q5 0 8 -5z" />
    <glyph glyph-name="uacute" unicode="&#xfa;" horiz-adv-x="519" 
d="M533 440q11 0 9 -10l-70 -420q-2 -10 -12 -10h-64q-9 0 -9 8l-4 66q-31 -39 -72.5 -62.5t-90.5 -23.5q-85 0 -122 53t-20 150l40 239q2 10 12 10h91q11 0 9 -10l-39 -230q-8 -54 9 -81t67 -27q45 0 81.5 34t45.5 91l36 213q2 10 12 10h91zM391 656q3 5 10 5h104
q10 0 11.5 -4.5t-6.5 -11.5l-109 -111q-4 -4 -9 -4h-85q-19 0 -6 15z" />
    <glyph glyph-name="ucircumflex" unicode="&#xfb;" horiz-adv-x="519" 
d="M533 440q11 0 9 -10l-70 -420q-2 -10 -12 -10h-64q-9 0 -9 8l-4 66q-31 -39 -72.5 -62.5t-90.5 -23.5q-85 0 -122 53t-20 150l40 239q2 10 12 10h91q11 0 9 -10l-39 -230q-8 -54 9 -81t67 -27q45 0 81.5 34t45.5 91l36 213q2 10 12 10h91zM507 546q5 -6 2.5 -11t-10.5 -5
h-79q-6 0 -9 4l-56 73l-65 -72q-3 -4 -5.5 -4.5t-4.5 -0.5h-84q-10 0 -11.5 4.5t6.5 11.5l114 111q3 4 9 4h86q4 0 8 -4z" />
    <glyph glyph-name="udieresis" unicode="&#xfc;" horiz-adv-x="519" 
d="M533 440q11 0 9 -10l-70 -420q-2 -10 -12 -10h-64q-9 0 -9 8l-4 66q-31 -39 -72.5 -62.5t-90.5 -23.5q-85 0 -122 53t-20 150l40 239q2 10 12 10h91q11 0 9 -10l-39 -230q-8 -54 9 -81t67 -27q45 0 81.5 34t45.5 91l36 213q2 10 12 10h91zM265 661q30 0 44 -17.5t9 -46.5
t-24.5 -46t-50.5 -17q-30 0 -44 17t-9 46t24.5 46.5t50.5 17.5zM467 661q31 0 45 -17.5t9 -46.5t-24.5 -46t-50.5 -17q-30 0 -44 17t-9 46t24.5 46.5t49.5 17.5z" />
    <glyph glyph-name="yacute" unicode="&#xfd;" horiz-adv-x="514" 
d="M90 426q-5 14 12 14h94q8 0 9 -6l74 -299l162 299q2 6 10 6h108q16 0 7 -14l-353 -610q-4 -6 -11 -6h-104q-16 0 -7 14l115 186zM393 656q3 5 10 5h104q10 0 11.5 -4.5t-6.5 -11.5l-109 -111q-4 -4 -9 -4h-85q-19 0 -6 15z" />
    <glyph glyph-name="thorn" unicode="&#xfe;" horiz-adv-x="561" 
d="M384 452q47 0 83 -17t59.5 -47.5t32.5 -73.5t0 -94t-32 -93.5t-56.5 -73.5t-75 -48t-88.5 -17t-79.5 18t-51.5 50l-40 -236q-2 -10 -12 -10h-92q-10 0 -8 10l152 910q2 10 11 10h92q11 0 9 -10l-58 -347q30 32 68.5 50.5t85.5 18.5zM343 346q-52 0 -92 -33.5t-50 -92.5
t19 -92.5t81 -33.5q55 0 94 35t50 91q9 56 -19 91t-83 35z" />
    <glyph glyph-name="ydieresis" unicode="&#xff;" horiz-adv-x="514" 
d="M90 426q-5 14 12 14h94q8 0 9 -6l74 -299l162 299q2 6 10 6h108q16 0 7 -14l-353 -610q-4 -6 -11 -6h-104q-16 0 -7 14l115 186zM267 661q30 0 44 -17.5t9 -46.5t-24.5 -46t-50.5 -17q-30 0 -44 17t-9 46t24.5 46.5t50.5 17.5zM469 661q31 0 45 -17.5t9 -46.5t-24.5 -46
t-50.5 -17q-30 0 -44 17t-9 46t24.5 46.5t49.5 17.5z" />
    <glyph glyph-name="Amacron" unicode="&#x100;" horiz-adv-x="744" 
d="M506 705q7 0 8 -6l199 -685q5 -14 -13 -14h-105q-6 0 -9 6l-38 149h-287l-87 -149q-4 -6 -11 -6h-119q-17 0 -8 14l427 685q3 6 10 6h33zM521 264l-60 239l-137 -239h197zM663 786q-2 -10 -12 -10h-303q-11 0 -9 10l11 62q2 11 12 11h303q10 0 8 -11z" />
    <glyph glyph-name="amacron" unicode="&#x101;" horiz-adv-x="557" 
d="M328 452q54 0 89 -22.5t52 -61.5l26 64q3 8 12 8h65q10 0 8 -10l-70 -420q-2 -10 -12 -10h-65q-8 0 -8 8l-6 65q-30 -39 -72.5 -62t-96.5 -23q-46 0 -82 17t-59.5 48t-32.5 74t0 94q8 51 31 93.5t56.5 73t76 47.5t88.5 17zM335 354q-60 0 -97 -37t-47 -96
q-10 -58 15 -96.5t84 -38.5q27 0 51 10t43.5 28t33 42.5t18.5 54.5q5 29 -0.5 53.5t-19 42t-34.5 27.5t-47 10zM528 566q-2 -10 -12 -10h-303q-11 0 -9 10l11 62q2 11 12 11h303q10 0 8 -11z" />
    <glyph glyph-name="Abreve" unicode="&#x102;" horiz-adv-x="744" 
d="M506 705q7 0 8 -6l199 -685q5 -14 -13 -14h-105q-6 0 -9 6l-38 149h-287l-87 -149q-4 -6 -11 -6h-119q-17 0 -8 14l427 685q3 6 10 6h33zM521 264l-60 239l-137 -239h197zM359 871q2 10 12 10h67q11 0 9 -10q-4 -32 7.5 -50t49.5 -18t55 18t24 50q2 10 12 10h68
q11 0 9 -10q-11 -72 -57 -107t-118 -35q-75 0 -111 36.5t-27 105.5z" />
    <glyph glyph-name="abreve" unicode="&#x103;" horiz-adv-x="557" 
d="M328 452q54 0 89 -22.5t52 -61.5l26 64q3 8 12 8h65q10 0 8 -10l-70 -420q-2 -10 -12 -10h-65q-8 0 -8 8l-6 65q-30 -39 -72.5 -62t-96.5 -23q-46 0 -82 17t-59.5 48t-32.5 74t0 94q8 51 31 93.5t56.5 73t76 47.5t88.5 17zM335 354q-60 0 -97 -37t-47 -96
q-10 -58 15 -96.5t84 -38.5q27 0 51 10t43.5 28t33 42.5t18.5 54.5q5 29 -0.5 53.5t-19 42t-34.5 27.5t-47 10zM224 651q2 10 12 10h67q11 0 9 -10q-4 -32 7.5 -50t49.5 -18t55 18t24 50q2 10 12 10h68q11 0 9 -10q-11 -72 -57 -107t-118 -35q-75 0 -111 36.5t-27 105.5z
" />
    <glyph glyph-name="Aogonek" unicode="&#x104;" horiz-adv-x="737" 
d="M506 705q7 0 8 -6l197 -679q2 -9 -0.5 -16.5t-16.5 -17.5q-35 -26 -48.5 -45.5t-17.5 -41.5q-6 -38 36 -38q16 0 28 3q10 3 12 -7l3 -55q0 -7 -10 -11.5t-23.5 -6.5t-26 -3t-17.5 -1q-60 0 -84.5 26.5t-17.5 68.5q5 33 27.5 66t64.5 59h-24q-7 0 -9 6l-39 149h-286
l-88 -149q-4 -6 -11 -6h-119q-8 0 -10.5 4t2.5 10l426 685q5 6 11 6h33zM521 264l-59 239l-138 -239h197z" />
    <glyph glyph-name="aogonek" unicode="&#x105;" horiz-adv-x="484" 
d="M323 452q53 0 90.5 -22.5t54.5 -61.5l26 64q3 8 11 8h65q11 0 9 -10l-69 -420q-2 -6 -7.5 -11t-15.5 -11q-35 -23 -50 -45t-19 -44q-8 -38 36 -38q15 0 27 3t12 -7l3 -55q0 -8 -10 -12t-23 -6.5t-26 -3t-18 -0.5q-60 0 -84.5 26.5t-17.5 68.5q6 35 32 70.5t74 63.5l-5 64
q-30 -39 -72.5 -62t-96.5 -23q-46 0 -82 18t-59.5 49.5t-32.5 75t0 94.5q8 51 30.5 93t55 72t74 46t88.5 16zM334 354q-59 0 -96.5 -37t-47.5 -96q-10 -58 15 -96.5t84 -38.5q26 0 50.5 10t44 28t33 42.5t18.5 54.5q10 59 -18.5 96t-82.5 37z" />
    <glyph glyph-name="Cacute" unicode="&#x106;" horiz-adv-x="722" 
d="M775 575q5 -9 -5 -14l-87 -46q-9 -5 -14 3q-25 44 -64.5 63t-101.5 19q-53 0 -99 -17.5t-81 -49.5t-59 -78.5t-33 -103.5q-10 -58 -1.5 -104.5t32.5 -79t64 -50t93 -17.5q61 0 108.5 23.5t93.5 74.5q8 8 15 2l73 -57q7 -7 0 -14q-60 -67 -135.5 -104t-173.5 -37
q-80 0 -140.5 27.5t-99 76.5t-52.5 116.5t-1 146.5t48 144.5t88 113t121.5 73.5t149.5 26q97 0 161.5 -35.5t99.5 -101.5zM574 886q3 5 10 5h104q10 0 11.5 -4.5t-6.5 -11.5l-109 -111q-4 -4 -9 -4h-85q-19 0 -6 15z" />
    <glyph glyph-name="cacute" unicode="&#x107;" horiz-adv-x="485" 
d="M519 356q4 -7 -6 -13l-74 -40q-9 -5 -14 3q-13 24 -35 37.5t-57 13.5q-28 0 -52.5 -10.5t-42.5 -29t-30 -43t-17 -53.5q-5 -28 -1 -53.5t16.5 -44t34 -29.5t51.5 -11q32 0 55.5 15t43.5 38q9 9 16 3l62 -42q8 -5 1 -14q-40 -51 -89 -73t-112 -22q-50 0 -89.5 18t-65 50
t-36 75.5t-1.5 94.5q8 51 30.5 92.5t56.5 71t78.5 46t97.5 16.5q57 0 106 -24t73 -72zM402 656q3 5 10 5h104q10 0 11.5 -4.5t-6.5 -11.5l-109 -111q-4 -4 -9 -4h-85q-19 0 -6 15z" />
    <glyph glyph-name="Ccircumflex" unicode="&#x108;" horiz-adv-x="722" 
d="M775 575q5 -9 -5 -14l-87 -46q-9 -5 -14 3q-25 44 -64.5 63t-101.5 19q-53 0 -99 -17.5t-81 -49.5t-59 -78.5t-33 -103.5q-10 -58 -1.5 -104.5t32.5 -79t64 -50t93 -17.5q61 0 108.5 23.5t93.5 74.5q8 8 15 2l73 -57q7 -7 0 -14q-60 -67 -135.5 -104t-173.5 -37
q-80 0 -140.5 27.5t-99 76.5t-52.5 116.5t-1 146.5t48 144.5t88 113t121.5 73.5t149.5 26q97 0 161.5 -35.5t99.5 -101.5zM689 776q5 -6 2.5 -11t-10.5 -5h-79q-6 0 -9 4l-56 73l-65 -72q-3 -4 -5.5 -4.5t-4.5 -0.5h-84q-10 0 -11.5 4.5t6.5 11.5l114 111q3 4 9 4h86
q4 0 8 -4z" />
    <glyph glyph-name="ccircumflex" unicode="&#x109;" horiz-adv-x="485" 
d="M519 356q4 -7 -6 -13l-74 -40q-9 -5 -14 3q-13 24 -35 37.5t-57 13.5q-28 0 -52.5 -10.5t-42.5 -29t-30 -43t-17 -53.5q-5 -28 -1 -53.5t16.5 -44t34 -29.5t51.5 -11q32 0 55.5 15t43.5 38q9 9 16 3l62 -42q8 -5 1 -14q-40 -51 -89 -73t-112 -22q-50 0 -89.5 18t-65 50
t-36 75.5t-1.5 94.5q8 51 30.5 92.5t56.5 71t78.5 46t97.5 16.5q57 0 106 -24t73 -72zM518 546q5 -6 2.5 -11t-10.5 -5h-79q-6 0 -9 4l-56 73l-65 -72q-3 -4 -5.5 -4.5t-4.5 -0.5h-84q-10 0 -11.5 4.5t6.5 11.5l114 111q3 4 9 4h86q4 0 8 -4z" />
    <glyph glyph-name="Cdotaccent" unicode="&#x10a;" horiz-adv-x="722" 
d="M775 575q5 -9 -5 -14l-87 -46q-9 -5 -14 3q-25 44 -64.5 63t-101.5 19q-53 0 -99 -17.5t-81 -49.5t-59 -78.5t-33 -103.5q-10 -58 -1.5 -104.5t32.5 -79t64 -50t93 -17.5q61 0 108.5 23.5t93.5 74.5q8 8 15 2l73 -57q7 -7 0 -14q-60 -67 -135.5 -104t-173.5 -37
q-80 0 -140.5 27.5t-99 76.5t-52.5 116.5t-1 146.5t48 144.5t88 113t121.5 73.5t149.5 26q97 0 161.5 -35.5t99.5 -101.5zM547 896q29 0 46.5 -17.5t12.5 -46.5q-5 -30 -24.5 -47.5t-48.5 -17.5q-30 0 -47 17.5t-12 47.5q5 29 24 46.5t49 17.5z" />
    <glyph glyph-name="cdotaccent" unicode="&#x10b;" horiz-adv-x="485" 
d="M519 356q4 -7 -6 -13l-74 -40q-9 -5 -14 3q-13 24 -35 37.5t-57 13.5q-28 0 -52.5 -10.5t-42.5 -29t-30 -43t-17 -53.5q-5 -28 -1 -53.5t16.5 -44t34 -29.5t51.5 -11q32 0 55.5 15t43.5 38q9 9 16 3l62 -42q8 -5 1 -14q-40 -51 -89 -73t-112 -22q-50 0 -89.5 18t-65 50
t-36 75.5t-1.5 94.5q8 51 30.5 92.5t56.5 71t78.5 46t97.5 16.5q57 0 106 -24t73 -72zM375 666q29 0 46.5 -17.5t12.5 -46.5q-5 -30 -24.5 -47.5t-48.5 -17.5q-30 0 -47 17.5t-12 47.5q5 29 24 46.5t49 17.5z" />
    <glyph glyph-name="Ccaron" unicode="&#x10c;" horiz-adv-x="722" 
d="M775 575q5 -9 -5 -14l-87 -46q-9 -5 -14 3q-25 44 -64.5 63t-101.5 19q-53 0 -99 -17.5t-81 -49.5t-59 -78.5t-33 -103.5q-10 -58 -1.5 -104.5t32.5 -79t64 -50t93 -17.5q61 0 108.5 23.5t93.5 74.5q8 8 15 2l73 -57q7 -7 0 -14q-60 -67 -135.5 -104t-173.5 -37
q-80 0 -140.5 27.5t-99 76.5t-52.5 116.5t-1 146.5t48 144.5t88 113t121.5 73.5t149.5 26q97 0 161.5 -35.5t99.5 -101.5zM382 875q-5 7 -2.5 11.5t10.5 4.5h81q5 0 8 -4l58 -70l62 69q3 4 5.5 4.5t4.5 0.5h84q10 0 11.5 -4.5t-6.5 -11.5l-114 -111q-4 -4 -9 -4h-87
q-4 0 -7 4z" />
    <glyph glyph-name="ccaron" unicode="&#x10d;" horiz-adv-x="485" 
d="M519 356q4 -7 -6 -13l-74 -40q-9 -5 -14 3q-13 24 -35 37.5t-57 13.5q-28 0 -52.5 -10.5t-42.5 -29t-30 -43t-17 -53.5q-5 -28 -1 -53.5t16.5 -44t34 -29.5t51.5 -11q32 0 55.5 15t43.5 38q9 9 16 3l62 -42q8 -5 1 -14q-40 -51 -89 -73t-112 -22q-50 0 -89.5 18t-65 50
t-36 75.5t-1.5 94.5q8 51 30.5 92.5t56.5 71t78.5 46t97.5 16.5q57 0 106 -24t73 -72zM211 645q-5 7 -2.5 11.5t10.5 4.5h81q5 0 8 -4l58 -70l62 69q3 4 5.5 4.5t4.5 0.5h84q10 0 11.5 -4.5t-6.5 -11.5l-114 -111q-4 -4 -9 -4h-87q-4 0 -7 4z" />
    <glyph glyph-name="Dcaron" unicode="&#x10e;" horiz-adv-x="746" 
d="M188 690q2 10 12 10h242q86 0 150.5 -24.5t105.5 -70t56.5 -109.5t3.5 -143t-48.5 -144t-92.5 -111.5t-129.5 -72t-161.5 -25.5h-242q-11 0 -9 10zM212 112h133q58 0 107 17t86.5 48.5t62.5 77.5t34 104q17 115 -37 172t-174 57h-133zM281 865q-5 7 -2.5 11.5t10.5 4.5
h81q5 0 8 -4l58 -70l62 69q3 4 5.5 4.5t4.5 0.5h84q10 0 11.5 -4.5t-6.5 -11.5l-114 -111q-4 -4 -9 -4h-87q-4 0 -7 4z" />
    <glyph glyph-name="dcaron" unicode="&#x10f;" horiz-adv-x="562" 
d="M328 452q48 0 82 -19t53 -51l58 348q2 10 12 10h90q10 0 8 -10l-121 -720q-2 -10 -12 -10h-65q-8 0 -8 8l-6 65q-31 -39 -73.5 -62t-94.5 -23q-46 0 -82.5 17t-60 48t-32.5 74t0 94q8 51 31 93.5t56.5 73t76 47.5t88.5 17zM335 354q-60 0 -97 -37.5t-47 -95.5
q-10 -59 15 -97t84 -38q27 0 51 10t43.5 27.5t33 42.5t18.5 55q5 29 -0.5 53.5t-19 42t-34.5 27.5t-47 10zM759 752q34 0 56.5 -22t15.5 -65q-9 -55 -37 -97t-69 -74q-6 -6 -13 -1l-24 29q-7 8 1 16q20 18 32 34.5t17 37.5q-33 0 -49.5 20t-11.5 49q5 35 27.5 54t54.5 19z
" />
    <glyph glyph-name="Dcroat" unicode="&#x110;" horiz-adv-x="798" 
d="M241 690q2 10 12 10h243q87 0 152 -24t105.5 -68.5t55.5 -107.5t2 -141q-13 -80 -50.5 -146t-94 -113.5t-129.5 -73.5t-158 -26h-243q-11 0 -9 10l49 294h-72q-10 0 -8 10l11 67q2 10 12 10h72zM459 391q10 0 8 -10l-11 -67q-2 -10 -12 -10h-148l-31 -191h132
q118 0 194 64.5t96 181.5q19 113 -35 170.5t-176 57.5h-133l-32 -196h148z" />
    <glyph glyph-name="dcroat" unicode="&#x111;" horiz-adv-x="573" 
d="M373 641q2 10 12 10h118l14 79q2 10 11 10h92q11 0 9 -10l-14 -79h56q11 0 9 -10l-10 -63q-2 -10 -13 -10h-55l-93 -558q-2 -10 -12 -10h-65q-9 0 -9 8l-6 65q-30 -39 -72.5 -62t-94.5 -23q-47 0 -83.5 17t-60 48t-32 74t0.5 94q8 51 31 93.5t56.5 73t75.5 47.5t88 17
q48 0 81 -18t52 -50l31 184h-119q-10 0 -8 10zM334 354q-60 0 -97.5 -37.5t-47.5 -95.5q-9 -59 15.5 -97t83.5 -38q54 0 95 37.5t52 97.5q5 29 -0.5 53.5t-19 42t-34.5 27.5t-47 10z" />
    <glyph glyph-name="Emacron" unicode="&#x112;" horiz-adv-x="574" 
d="M188 690q2 10 12 10h424q11 0 9 -10l-16 -92q-2 -10 -12 -10h-314l-29 -179h277q11 0 9 -10l-14 -85q-2 -11 -12 -11h-278l-32 -191h318q11 0 9 -10l-15 -92q-3 -10 -12 -10h-428q-11 0 -9 10zM592 786q-2 -10 -12 -10h-303q-11 0 -9 10l11 62q2 11 12 11h303q10 0 8 -11
z" />
    <glyph glyph-name="emacron" unicode="&#x113;" horiz-adv-x="521" 
d="M530 247q-4 -22 -7 -34.5t-6.5 -18.5t-7 -7.5t-8.5 -1.5h-316q-4 -48 25 -76t78 -28q35 0 65 13.5t55 36.5q9 7 15 -1l46 -52q6 -6 -2 -13q-39 -35 -90 -56t-107 -21q-53 0 -93.5 17.5t-65.5 48t-34.5 73t-0.5 93.5q8 50 31.5 92.5t59 73.5t80.5 48.5t97 17.5
q48 0 86.5 -14.5t63.5 -41.5t35 -65t1 -84zM425 264q3 40 -21 68t-76 28q-48 0 -83.5 -25.5t-46.5 -70.5h227zM523 566q-2 -10 -12 -10h-303q-11 0 -9 10l11 62q2 11 12 11h303q10 0 8 -11z" />
    <glyph glyph-name="Ebreve" unicode="&#x114;" horiz-adv-x="574" 
d="M188 690q2 10 12 10h424q11 0 9 -10l-16 -92q-2 -10 -12 -10h-314l-29 -179h277q11 0 9 -10l-14 -85q-2 -11 -12 -11h-278l-32 -191h318q11 0 9 -10l-15 -92q-3 -10 -12 -10h-428q-11 0 -9 10zM288 871q2 10 12 10h67q11 0 9 -10q-4 -32 7.5 -50t49.5 -18t55 18t24 50
q2 10 12 10h68q11 0 9 -10q-11 -72 -57 -107t-118 -35q-75 0 -111 36.5t-27 105.5z" />
    <glyph glyph-name="ebreve" unicode="&#x115;" horiz-adv-x="521" 
d="M530 247q-4 -22 -7 -34.5t-6.5 -18.5t-7 -7.5t-8.5 -1.5h-316q-4 -48 25 -76t78 -28q35 0 65 13.5t55 36.5q9 7 15 -1l46 -52q6 -6 -2 -13q-39 -35 -90 -56t-107 -21q-53 0 -93.5 17.5t-65.5 48t-34.5 73t-0.5 93.5q8 50 31.5 92.5t59 73.5t80.5 48.5t97 17.5
q48 0 86.5 -14.5t63.5 -41.5t35 -65t1 -84zM425 264q3 40 -21 68t-76 28q-48 0 -83.5 -25.5t-46.5 -70.5h227zM219 651q2 10 12 10h67q11 0 9 -10q-4 -32 7.5 -50t49.5 -18t55 18t24 50q2 10 12 10h68q11 0 9 -10q-11 -72 -57 -107t-118 -35q-75 0 -111 36.5t-27 105.5z" />
    <glyph glyph-name="Edotaccent" unicode="&#x116;" horiz-adv-x="574" 
d="M188 690q2 10 12 10h424q11 0 9 -10l-16 -92q-2 -10 -12 -10h-314l-29 -179h277q11 0 9 -10l-14 -85q-2 -11 -12 -11h-278l-32 -191h318q11 0 9 -10l-15 -92q-3 -10 -12 -10h-428q-11 0 -9 10zM444 886q29 0 46.5 -17.5t12.5 -46.5q-5 -30 -24.5 -47.5t-48.5 -17.5
q-30 0 -47 17.5t-12 47.5q5 29 24 46.5t49 17.5z" />
    <glyph glyph-name="edotaccent" unicode="&#x117;" horiz-adv-x="521" 
d="M530 247q-4 -22 -7 -34.5t-6.5 -18.5t-7 -7.5t-8.5 -1.5h-316q-4 -48 25 -76t78 -28q35 0 65 13.5t55 36.5q9 7 15 -1l46 -52q6 -6 -2 -13q-39 -35 -90 -56t-107 -21q-53 0 -93.5 17.5t-65.5 48t-34.5 73t-0.5 93.5q8 50 31.5 92.5t59 73.5t80.5 48.5t97 17.5
q48 0 86.5 -14.5t63.5 -41.5t35 -65t1 -84zM425 264q3 40 -21 68t-76 28q-48 0 -83.5 -25.5t-46.5 -70.5h227zM374 666q29 0 46.5 -17.5t12.5 -46.5q-5 -30 -24.5 -47.5t-48.5 -17.5q-30 0 -47 17.5t-12 47.5q5 29 24 46.5t49 17.5z" />
    <glyph glyph-name="Eogonek" unicode="&#x118;" horiz-adv-x="576" 
d="M188 690q2 10 13 10h423q11 0 9 -10l-15 -92q-2 -10 -13 -10h-314l-30 -179h278q11 0 9 -10l-14 -85q-3 -11 -12 -11h-278l-32 -191h318q11 0 9 -10l-15 -92q-2 -7 -6.5 -10.5t-15.5 -11.5q-36 -23 -51 -45t-19 -43q-7 -39 36 -39q15 0 27 3q10 3 12 -7l4 -55
q0 -8 -9 -12q-15 -4 -33.5 -7t-35.5 -3q-60 0 -84.5 26.5t-16.5 68.5q5 33 28 66t65 59h-341q-11 0 -9 10z" />
    <glyph glyph-name="eogonek" unicode="&#x119;" horiz-adv-x="521" 
d="M529 247q-4 -22 -7 -34.5t-6.5 -18.5t-7 -7.5t-8.5 -1.5h-316q-4 -48 24.5 -76t78.5 -28q35 0 65 13.5t55 36.5q9 7 15 -1l45 -51q7 -7 -1 -14q-14 -14 -30.5 -24.5t-34.5 -20.5q-49 -36 -65.5 -66.5t-20.5 -52.5q-7 -40 36 -40q15 0 27 3q10 3 12 -7l4 -55q0 -9 -10 -12
q-15 -4 -33 -7t-35 -3q-57 0 -82.5 25.5t-17.5 69.5q5 25 25.5 57.5t61.5 61.5q-6 -2 -15.5 -4t-18.5 -2q-53 0 -93.5 17.5t-65.5 48t-34.5 73t-0.5 93.5q8 50 31.5 92.5t58.5 73.5t80 48.5t97 17.5q49 0 87.5 -14.5t63.5 -41.5t35 -65t1 -84zM424 264q3 40 -21 68t-76 28
q-48 0 -83.5 -25.5t-46.5 -70.5h227z" />
    <glyph glyph-name="Ecaron" unicode="&#x11a;" horiz-adv-x="574" 
d="M188 690q2 10 12 10h424q11 0 9 -10l-16 -92q-2 -10 -12 -10h-314l-29 -179h277q11 0 9 -10l-14 -85q-2 -11 -12 -11h-278l-32 -191h318q11 0 9 -10l-15 -92q-3 -10 -12 -10h-428q-11 0 -9 10zM279 865q-5 7 -2.5 11.5t10.5 4.5h81q5 0 8 -4l58 -70l62 69q3 4 5.5 4.5
t4.5 0.5h84q10 0 11.5 -4.5t-6.5 -11.5l-114 -111q-4 -4 -9 -4h-87q-4 0 -7 4z" />
    <glyph glyph-name="ecaron" unicode="&#x11b;" horiz-adv-x="521" 
d="M530 247q-4 -22 -7 -34.5t-6.5 -18.5t-7 -7.5t-8.5 -1.5h-316q-4 -48 25 -76t78 -28q35 0 65 13.5t55 36.5q9 7 15 -1l46 -52q6 -6 -2 -13q-39 -35 -90 -56t-107 -21q-53 0 -93.5 17.5t-65.5 48t-34.5 73t-0.5 93.5q8 50 31.5 92.5t59 73.5t80.5 48.5t97 17.5
q48 0 86.5 -14.5t63.5 -41.5t35 -65t1 -84zM425 264q3 40 -21 68t-76 28q-48 0 -83.5 -25.5t-46.5 -70.5h227zM210 645q-5 7 -2.5 11.5t10.5 4.5h81q5 0 8 -4l58 -70l62 69q3 4 5.5 4.5t4.5 0.5h84q10 0 11.5 -4.5t-6.5 -11.5l-114 -111q-4 -4 -9 -4h-87q-4 0 -7 4z" />
    <glyph glyph-name="Gcircumflex" unicode="&#x11c;" horiz-adv-x="801" 
d="M467 269q-11 0 -9 10l14 82q2 10 12 10h309q12 0 15 -8.5t0 -38.5q-10 -78 -42.5 -140t-82.5 -105.5t-116 -67t-144 -23.5q-82 0 -146.5 27t-107 75t-59.5 115t-4 146t49 145t89.5 114t122.5 75t148 27q46 0 88 -8.5t78 -25.5t64 -42t45 -58q5 -9 -5 -14l-86 -51
q-8 -4 -14 3q-24 44 -69.5 64t-104.5 20q-55 0 -102.5 -17.5t-83.5 -50t-60.5 -79t-33.5 -103.5q-10 -58 -0.5 -104.5t35.5 -79t68 -50t98 -17.5q47 0 87 12t71 34.5t51.5 53.5t27.5 70h-202zM694 776q5 -6 2.5 -11t-10.5 -5h-79q-6 0 -9 4l-56 73l-65 -72q-3 -4 -5.5 -4.5
t-4.5 -0.5h-84q-10 0 -11.5 4.5t6.5 11.5l114 111q3 4 9 4h86q4 0 8 -4z" />
    <glyph glyph-name="gcircumflex" unicode="&#x11d;" horiz-adv-x="517" 
d="M566 353q-2 -10 -12 -10l-92 -1q17 -14 25 -35t3 -53q-5 -30 -21.5 -55t-43 -42t-60.5 -26.5t-75 -9.5q-52 0 -86 14q-10 -11 -13 -24q-4 -33 43 -39l114 -15q78 -10 112.5 -37.5t26.5 -78.5q-11 -66 -83 -103.5t-192 -37.5q-118 0 -169.5 33t-41.5 93q11 67 91 109
q-13 21 -8 53q4 23 19.5 43.5t41.5 35.5q-48 45 -36 120q6 35 22.5 65.5t43 52.5t63 34.5t82.5 12.5q21 0 43 -2.5t43 -9.5h164q11 0 8 -10zM320 365q-43 0 -68.5 -22t-31.5 -58q-6 -35 13.5 -56t59.5 -21q42 0 68.5 21t32.5 58q6 36 -13 57t-61 21zM154 -9q-29 -18 -35 -50
q-5 -29 22 -42.5t90 -13.5t98 9t39 31q3 17 -8.5 25t-41.5 13l-114 16q-27 4 -50 12zM519 546q5 -6 2.5 -11t-10.5 -5h-79q-6 0 -9 4l-56 73l-65 -72q-3 -4 -5.5 -4.5t-4.5 -0.5h-84q-10 0 -11.5 4.5t6.5 11.5l114 111q3 4 9 4h86q4 0 8 -4z" />
    <glyph glyph-name="Gbreve" unicode="&#x11e;" horiz-adv-x="801" 
d="M467 269q-11 0 -9 10l14 82q2 10 12 10h309q12 0 15 -8.5t0 -38.5q-10 -78 -42.5 -140t-82.5 -105.5t-116 -67t-144 -23.5q-82 0 -146.5 27t-107 75t-59.5 115t-4 146t49 145t89.5 114t122.5 75t148 27q46 0 88 -8.5t78 -25.5t64 -42t45 -58q5 -9 -5 -14l-86 -51
q-8 -4 -14 3q-24 44 -69.5 64t-104.5 20q-55 0 -102.5 -17.5t-83.5 -50t-60.5 -79t-33.5 -103.5q-10 -58 -0.5 -104.5t35.5 -79t68 -50t98 -17.5q47 0 87 12t71 34.5t51.5 53.5t27.5 70h-202zM396 881q2 10 12 10h67q11 0 9 -10q-4 -32 7.5 -50t49.5 -18t55 18t24 50
q2 10 12 10h68q11 0 9 -10q-11 -72 -57 -107t-118 -35q-75 0 -111 36.5t-27 105.5z" />
    <glyph glyph-name="gbreve" unicode="&#x11f;" horiz-adv-x="517" 
d="M566 353q-2 -10 -12 -10l-92 -1q17 -14 25 -35t3 -53q-5 -30 -21.5 -55t-43 -42t-60.5 -26.5t-75 -9.5q-52 0 -86 14q-10 -11 -13 -24q-4 -33 43 -39l114 -15q78 -10 112.5 -37.5t26.5 -78.5q-11 -66 -83 -103.5t-192 -37.5q-118 0 -169.5 33t-41.5 93q11 67 91 109
q-13 21 -8 53q4 23 19.5 43.5t41.5 35.5q-48 45 -36 120q6 35 22.5 65.5t43 52.5t63 34.5t82.5 12.5q21 0 43 -2.5t43 -9.5h164q11 0 8 -10zM320 365q-43 0 -68.5 -22t-31.5 -58q-6 -35 13.5 -56t59.5 -21q42 0 68.5 21t32.5 58q6 36 -13 57t-61 21zM154 -9q-29 -18 -35 -50
q-5 -29 22 -42.5t90 -13.5t98 9t39 31q3 17 -8.5 25t-41.5 13l-114 16q-27 4 -50 12zM221 651q2 10 12 10h67q11 0 9 -10q-4 -32 7.5 -50t49.5 -18t55 18t24 50q2 10 12 10h68q11 0 9 -10q-11 -72 -57 -107t-118 -35q-75 0 -111 36.5t-27 105.5z" />
    <glyph glyph-name="Gdotaccent" unicode="&#x120;" horiz-adv-x="801" 
d="M467 269q-11 0 -9 10l14 82q2 10 12 10h309q12 0 15 -8.5t0 -38.5q-10 -78 -42.5 -140t-82.5 -105.5t-116 -67t-144 -23.5q-82 0 -146.5 27t-107 75t-59.5 115t-4 146t49 145t89.5 114t122.5 75t148 27q46 0 88 -8.5t78 -25.5t64 -42t45 -58q5 -9 -5 -14l-86 -51
q-8 -4 -14 3q-24 44 -69.5 64t-104.5 20q-55 0 -102.5 -17.5t-83.5 -50t-60.5 -79t-33.5 -103.5q-10 -58 -0.5 -104.5t35.5 -79t68 -50t98 -17.5q47 0 87 12t71 34.5t51.5 53.5t27.5 70h-202zM551 896q29 0 46.5 -17.5t12.5 -46.5q-5 -30 -24.5 -47.5t-48.5 -17.5
q-30 0 -47 17.5t-12 47.5q5 29 24 46.5t49 17.5z" />
    <glyph glyph-name="gdotaccent" unicode="&#x121;" horiz-adv-x="517" 
d="M566 353q-2 -10 -12 -10l-92 -1q17 -14 25 -35t3 -53q-5 -30 -21.5 -55t-43 -42t-60.5 -26.5t-75 -9.5q-52 0 -86 14q-10 -11 -13 -24q-4 -33 43 -39l114 -15q78 -10 112.5 -37.5t26.5 -78.5q-11 -66 -83 -103.5t-192 -37.5q-118 0 -169.5 33t-41.5 93q11 67 91 109
q-13 21 -8 53q4 23 19.5 43.5t41.5 35.5q-48 45 -36 120q6 35 22.5 65.5t43 52.5t63 34.5t82.5 12.5q21 0 43 -2.5t43 -9.5h164q11 0 8 -10zM320 365q-43 0 -68.5 -22t-31.5 -58q-6 -35 13.5 -56t59.5 -21q42 0 68.5 21t32.5 58q6 36 -13 57t-61 21zM154 -9q-29 -18 -35 -50
q-5 -29 22 -42.5t90 -13.5t98 9t39 31q3 17 -8.5 25t-41.5 13l-114 16q-27 4 -50 12zM376 666q29 0 46.5 -17.5t12.5 -46.5q-5 -30 -24.5 -47.5t-48.5 -17.5q-30 0 -47 17.5t-12 47.5q5 29 24 46.5t49 17.5z" />
    <glyph glyph-name="uni0122" unicode="&#x122;" horiz-adv-x="801" 
d="M467 269q-11 0 -9 10l14 82q2 10 12 10h309q12 0 15 -8.5t0 -38.5q-10 -78 -42.5 -140t-82.5 -105.5t-116 -67t-144 -23.5q-82 0 -146.5 27t-107 75t-59.5 115t-4 146t49 145t89.5 114t122.5 75t148 27q46 0 88 -8.5t78 -25.5t64 -42t45 -58q5 -9 -5 -14l-86 -51
q-8 -4 -14 3q-24 44 -69.5 64t-104.5 20q-55 0 -102.5 -17.5t-83.5 -50t-60.5 -79t-33.5 -103.5q-10 -58 -0.5 -104.5t35.5 -79t68 -50t98 -17.5q47 0 87 12t71 34.5t51.5 53.5t27.5 70h-202zM398 -30q13 0 26 -4t23.5 -13t16 -23t2.5 -35q-5 -32 -31.5 -62.5t-62.5 -48.5
q-9 -4 -12 2l-18 23q-6 10 4 15q28 17 39 42q-24 -5 -44 9.5t-17 42.5q3 27 25 39.5t49 12.5z" />
    <glyph glyph-name="uni0123" unicode="&#x123;" horiz-adv-x="517" 
d="M566 353q-2 -10 -12 -10l-92 -1q17 -14 25 -35t3 -53q-5 -30 -21.5 -55t-43 -42t-60.5 -26.5t-75 -9.5q-52 0 -86 14q-10 -11 -13 -24q-4 -33 43 -39l114 -15q78 -10 112.5 -37.5t26.5 -78.5q-11 -66 -83 -103.5t-192 -37.5q-118 0 -169.5 33t-41.5 93q11 67 91 109
q-13 21 -8 53q4 23 19.5 43.5t41.5 35.5q-48 45 -36 120q6 35 22.5 65.5t43 52.5t63 34.5t82.5 12.5q21 0 43 -2.5t43 -9.5h164q11 0 8 -10zM320 365q-43 0 -68.5 -22t-31.5 -58q-6 -35 13.5 -56t59.5 -21q42 0 68.5 21t32.5 58q6 36 -13 57t-61 21zM154 -9q-29 -18 -35 -50
q-5 -29 22 -42.5t90 -13.5t98 9t39 31q3 17 -8.5 25t-41.5 13l-114 16q-27 4 -50 12zM356 530q-31 0 -53 18t-15 61q7 45 35 83t72 61q6 5 11 -2l22 -26q7 -9 -4 -16q-34 -22 -45 -48q35 2 52 -15.5t12 -46.5q-5 -32 -30 -50.5t-57 -18.5z" />
    <glyph glyph-name="Hcircumflex" unicode="&#x124;" horiz-adv-x="697" 
d="M731 700q11 0 9 -10l-114 -680q-2 -10 -12 -10h-99q-11 0 -9 10l47 278h-312l-46 -278q-2 -10 -12 -10h-99q-11 0 -9 10l113 680q2 10 12 10h100q10 0 8 -10l-48 -290h311l49 290q2 10 12 10h99zM635 766q5 -6 2.5 -11t-10.5 -5h-79q-6 0 -9 4l-56 73l-65 -72
q-3 -4 -5.5 -4.5t-4.5 -0.5h-84q-10 0 -11.5 4.5t6.5 11.5l114 111q3 4 9 4h86q4 0 8 -4z" />
    <glyph glyph-name="hcircumflex" unicode="&#x125;" horiz-adv-x="526" 
d="M279 740q10 0 8 -10l-58 -347q30 32 68 50.5t82 18.5q86 0 123 -53t21 -150l-40 -239q-2 -10 -12 -10h-92q-10 0 -8 10l38 230q9 54 -9 82.5t-68 28.5q-46 0 -83 -35t-46 -93l-36 -213q-2 -10 -12 -10h-91q-11 0 -9 10l120 720q2 10 12 10h92zM401 786q5 -6 2.5 -11
t-10.5 -5h-79q-6 0 -9 4l-56 73l-65 -72q-3 -4 -5.5 -4.5t-4.5 -0.5h-84q-10 0 -11.5 4.5t6.5 11.5l114 111q3 4 9 4h86q4 0 8 -4z" />
    <glyph glyph-name="Hbar" unicode="&#x126;" horiz-adv-x="802" 
d="M139 508q-11 0 -9 10l10 66q2 10 13 10h72l16 96q2 10 12 10h100q10 0 8 -10l-16 -96h311l16 96q2 10 13 10h100q10 0 8 -10l-16 -96h72q10 0 8 -10l-11 -66q-2 -10 -11 -10h-72l-83 -498q-2 -10 -12 -10h-100q-11 0 -9 10l46 278h-311l-46 -278q-2 -10 -12 -10h-100
q-10 0 -8 10l83 498h-72zM624 400l18 108h-311l-18 -108h311z" />
    <glyph glyph-name="hbar" unicode="&#x127;" horiz-adv-x="529" 
d="M108 641q2 10 11 10h44l14 79q2 10 11 10h92q11 0 9 -10l-14 -79h130q12 0 10 -10l-11 -63q-2 -10 -12 -10h-131l-31 -185q30 32 68 50.5t83 18.5q85 0 122.5 -53t21.5 -150l-40 -239q-2 -10 -12 -10h-92q-10 0 -8 10l38 230q8 54 -9.5 82.5t-68.5 28.5q-22 0 -43.5 -9
t-38.5 -26t-29.5 -40.5t-17.5 -52.5l-35 -213q-2 -10 -12 -10h-92q-9 0 -7 10l92 558h-44q-10 0 -8 10z" />
    <glyph glyph-name="Itilde" unicode="&#x128;" horiz-adv-x="265" 
d="M299 700q11 0 9 -10l-113 -680q-2 -10 -12 -10h-99q-11 0 -9 10l113 680q2 10 12 10h99zM445 883q11 0 9 -10q-7 -43 -19.5 -71.5t-29 -45.5t-35.5 -23.5t-39 -6.5q-23 0 -39.5 11.5t-30.5 26t-26.5 26t-27.5 11.5q-13 0 -24 -14t-16 -47q-2 -10 -12 -10h-66q-10 0 -8 10
q5 40 17.5 68.5t29.5 46.5t36.5 26t39.5 8q23 0 40 -12t30.5 -26.5t26.5 -26.5t28 -12q14 0 24 12t15 49q2 10 12 10h65z" />
    <glyph glyph-name="itilde" unicode="&#x129;" horiz-adv-x="210" 
d="M224 440q11 0 9 -10l-70 -420q-2 -10 -12 -10h-92q-10 0 -8 10l70 420q2 10 12 10h91zM381 663q11 0 9 -10q-7 -43 -19.5 -71.5t-29 -45.5t-35.5 -23.5t-39 -6.5q-23 0 -39.5 11.5t-30.5 26t-26.5 26t-27.5 11.5q-13 0 -24 -14t-16 -47q-2 -10 -12 -10h-66q-10 0 -8 10
q5 40 17.5 68.5t29.5 46.5t36.5 26t39.5 8q23 0 40 -12t30.5 -26.5t26.5 -26.5t28 -12q14 0 24 12t15 49q2 10 12 10h65z" />
    <glyph glyph-name="Imacron" unicode="&#x12a;" horiz-adv-x="265" 
d="M299 700q11 0 9 -10l-113 -680q-2 -10 -12 -10h-99q-11 0 -9 10l113 680q2 10 12 10h99zM426 786q-2 -10 -12 -10h-303q-11 0 -9 10l11 62q2 11 12 11h303q10 0 8 -11z" />
    <glyph glyph-name="imacron" unicode="&#x12b;" horiz-adv-x="210" 
d="M224 440q11 0 9 -10l-70 -420q-2 -10 -12 -10h-92q-10 0 -8 10l70 420q2 10 12 10h91zM362 566q-2 -10 -12 -10h-303q-11 0 -9 10l11 62q2 11 12 11h303q10 0 8 -11z" />
    <glyph glyph-name="Ibreve" unicode="&#x12c;" horiz-adv-x="265" 
d="M299 700q11 0 9 -10l-113 -680q-2 -10 -12 -10h-99q-11 0 -9 10l113 680q2 10 12 10h99zM122 871q2 10 12 10h67q11 0 9 -10q-4 -32 7.5 -50t49.5 -18t55 18t24 50q2 10 12 10h68q11 0 9 -10q-11 -72 -57 -107t-118 -35q-75 0 -111 36.5t-27 105.5z" />
    <glyph glyph-name="ibreve" unicode="&#x12d;" horiz-adv-x="210" 
d="M224 440q11 0 9 -10l-70 -420q-2 -10 -12 -10h-92q-10 0 -8 10l70 420q2 10 12 10h91zM58 651q2 10 12 10h67q11 0 9 -10q-4 -32 7.5 -50t49.5 -18t55 18t24 50q2 10 12 10h68q11 0 9 -10q-11 -72 -57 -107t-118 -35q-75 0 -111 36.5t-27 105.5z" />
    <glyph glyph-name="Iogonek" unicode="&#x12e;" horiz-adv-x="265" 
d="M299 700q11 0 9 -10l-113 -680q-2 -8 -8 -12.5t-14 -9.5q-35 -24 -50.5 -45.5t-19.5 -43.5q-6 -38 36 -38q17 0 27 3t12 -7l4 -55q0 -8 -9 -12q-15 -4 -33 -7t-35 -3q-60 0 -85.5 26.5t-17.5 69.5q6 38 26 65t43 47l117 702q2 10 12 10h99z" />
    <glyph glyph-name="iogonek" unicode="&#x12f;" horiz-adv-x="210" 
d="M216 665q30 0 46.5 -18.5t11.5 -49.5q-5 -30 -27.5 -48.5t-53.5 -18.5q-30 0 -46.5 18.5t-11.5 48.5q5 31 28 49.5t53 18.5zM224 440q11 0 9 -10l-71 -424q-1 -6 -6 -9q-45 -26 -63 -50t-21 -48q-8 -38 35 -38q17 0 27 3t12 -7l4 -55q0 -8 -9 -12q-15 -4 -33 -7t-35 -3
q-60 0 -85 26.5t-17 68.5t29 70t49 50l73 435q2 10 11 10h91z" />
    <glyph glyph-name="Idotaccent" unicode="&#x130;" horiz-adv-x="265" 
d="M299 700q11 0 9 -10l-113 -680q-2 -10 -12 -10h-99q-11 0 -9 10l113 680q2 10 12 10h99zM277 886q29 0 46.5 -17.5t12.5 -46.5q-5 -30 -24.5 -47.5t-48.5 -17.5q-30 0 -47 17.5t-12 47.5q5 29 24 46.5t49 17.5z" />
    <glyph glyph-name="dotlessi" unicode="&#x131;" horiz-adv-x="210" 
d="M224 440q11 0 9 -10l-70 -420q-2 -10 -12 -10h-92q-10 0 -8 10l70 420q2 10 12 10h91z" />
    <glyph glyph-name="IJ" unicode="&#x132;" horiz-adv-x="551" 
d="M301 700q10 0 8 -10l-97 -584q-2 -10 -12 -10h-100q-11 0 -9 10l97 584q2 10 13 10h100zM586 700q10 0 8 -10l-106 -636q-21 -125 -80 -179.5t-162 -54.5q-87 0 -134 47t-34 142q2 11 12 11h100q10 0 8 -11q-5 -45 11.5 -61.5t55.5 -16.5q21 0 37 4.5t28 16t20 31.5
t13 52l109 655q2 10 12 10h102z" />
    <glyph glyph-name="ij" unicode="&#x133;" horiz-adv-x="425" 
d="M224 440q11 0 9 -10l-70 -420q-2 -10 -12 -10h-92q-10 0 -8 10l70 420q2 10 12 10h91zM214 666q29 0 46.5 -17.5t12.5 -46.5q-5 -30 -24.5 -47.5t-48.5 -17.5q-30 0 -47 17.5t-12 47.5q5 29 24 46.5t49 17.5zM438 440q11 0 9 -10l-72 -428q-16 -97 -66 -143.5t-138 -48.5
q-10 0 -8 10l14 86q2 10 12 10q33 2 49.5 19t22.5 56l74 439q2 10 12 10h91zM427 666q29 0 46.5 -17.5t12.5 -46.5q-5 -30 -24.5 -47.5t-48.5 -17.5q-30 0 -47 17.5t-12 47.5q5 29 24 46.5t49 17.5z" />
    <glyph glyph-name="Jcircumflex" unicode="&#x134;" horiz-adv-x="264" 
d="M298 700q11 0 9 -10l-106 -636q-20 -116 -80.5 -174t-175.5 -60q-10 0 -8 10l15 91q2 10 12 10q55 2 81 29t36 94l106 636q2 10 12 10h99zM419 766q5 -6 2.5 -11t-10.5 -5h-79q-6 0 -9 4l-56 73l-65 -72q-3 -4 -5.5 -4.5t-4.5 -0.5h-84q-10 0 -11.5 4.5t6.5 11.5l114 111
q3 4 9 4h86q4 0 8 -4z" />
    <glyph glyph-name="jcircumflex" unicode="&#x135;" horiz-adv-x="214" 
d="M228 440q11 0 9 -10l-72 -428q-16 -97 -66 -143.5t-138 -48.5q-10 0 -8 10l14 86q2 10 12 10q33 2 49.5 19t22.5 56l74 439q2 10 12 10h91zM360 546q5 -6 2.5 -11t-10.5 -5h-79q-6 0 -9 4l-56 73l-65 -72q-3 -4 -5.5 -4.5t-4.5 -0.5h-84q-10 0 -11.5 4.5t6.5 11.5
l114 111q3 4 9 4h86q4 0 8 -4z" />
    <glyph glyph-name="uni0136" unicode="&#x136;" horiz-adv-x="646" 
d="M188 690q2 10 12 10h100q10 0 8 -10l-49 -297l314 301q5 6 13 6h140q11 0 12 -4.5t-7 -12.5l-350 -317l250 -349q12 -17 -10 -17h-125q-10 0 -14 7l-231 341l-56 -338q-2 -10 -12 -10h-99q-11 0 -9 10zM315 -30q13 0 26 -4t23.5 -13t16 -23t2.5 -35q-5 -32 -31.5 -62.5
t-62.5 -48.5q-9 -4 -12 2l-18 23q-6 10 4 15q28 17 39 42q-24 -5 -44 9.5t-17 42.5q3 27 25 39.5t49 12.5z" />
    <glyph glyph-name="uni0137" unicode="&#x137;" horiz-adv-x="527" 
d="M175 730q2 10 12 10h92q10 0 8 -10l-78 -471l202 178q3 3 7 3h142q5 0 5.5 -4t-3.5 -6l-238 -195l183 -226q3 -4 1 -6.5t-5 -2.5h-131q-4 0 -6 3l-164 214l-35 -207q-2 -10 -12 -10h-91q-11 0 -9 10zM236 -30q13 0 26 -4t23.5 -13t16 -23t2.5 -35q-5 -32 -31.5 -62.5
t-62.5 -48.5q-9 -4 -12 2l-18 23q-6 10 4 15q28 17 39 42q-24 -5 -44 9.5t-17 42.5q3 27 25 39.5t49 12.5z" />
    <glyph glyph-name="kgreenlandic" unicode="&#x138;" horiz-adv-x="523" 
d="M121 430q2 10 12 10h92q10 0 8 -10l-28 -171l202 178q3 3 7 3h142q5 0 5.5 -4t-3.5 -6l-238 -195l183 -226q3 -4 1 -6.5t-5 -2.5h-131q-4 0 -6 3l-164 214l-35 -207q-2 -10 -12 -10h-91q-11 0 -9 10z" />
    <glyph glyph-name="Lacute" unicode="&#x139;" horiz-adv-x="564" 
d="M300 700q10 0 8 -10l-96 -577h318q11 0 9 -11l-15 -92q-3 -10 -12 -10h-428q-11 0 -9 10l113 680q2 10 12 10h100zM305 876q3 5 10 5h104q10 0 11.5 -4.5t-6.5 -11.5l-109 -111q-4 -4 -9 -4h-85q-19 0 -6 15z" />
    <glyph glyph-name="lacute" unicode="&#x13a;" horiz-adv-x="219" 
d="M168 10q-2 -10 -12 -10h-92q-11 0 -8 10l119 720q2 10 12 10h92q10 0 8 -10zM288 896q3 5 10 5h104q10 0 11.5 -4.5t-6.5 -11.5l-109 -111q-4 -4 -9 -4h-85q-19 0 -6 15z" />
    <glyph glyph-name="uni013B" unicode="&#x13b;" horiz-adv-x="564" 
d="M300 700q10 0 8 -10l-96 -577h318q11 0 9 -11l-15 -92q-3 -10 -12 -10h-428q-11 0 -9 10l113 680q2 10 12 10h100zM286 -30q13 0 26 -4t23.5 -13t16 -23t2.5 -35q-5 -32 -31.5 -62.5t-62.5 -48.5q-9 -4 -12 2l-18 23q-6 10 4 15q28 17 39 42q-24 -5 -44 9.5t-17 42.5
q3 27 25 39.5t49 12.5z" />
    <glyph glyph-name="uni013C" unicode="&#x13c;" horiz-adv-x="219" 
d="M168 10q-2 -10 -12 -10h-92q-11 0 -8 10l119 720q2 10 12 10h92q10 0 8 -10zM97 -30q13 0 26 -4t23.5 -13t16 -23t2.5 -35q-5 -32 -31.5 -62.5t-62.5 -48.5q-9 -4 -12 2l-18 23q-6 10 4 15q28 17 39 42q-24 -5 -44 9.5t-17 42.5q3 27 25 39.5t49 12.5z" />
    <glyph glyph-name="Lcaron" unicode="&#x13d;" horiz-adv-x="564" 
d="M300 700q10 0 8 -10l-96 -577h318q11 0 9 -11l-15 -92q-3 -10 -12 -10h-428q-11 0 -9 10l113 680q2 10 12 10h100zM498 712q34 0 56.5 -22t15.5 -65q-9 -55 -37 -97t-69 -74q-6 -6 -13 -1l-24 29q-7 8 1 16q20 18 32 34.5t17 37.5q-33 0 -49.5 20t-11.5 49q5 35 27.5 54
t54.5 19z" />
    <glyph glyph-name="lcaron" unicode="&#x13e;" horiz-adv-x="219" 
d="M168 10q-2 -10 -12 -10h-92q-11 0 -8 10l119 720q2 10 12 10h92q10 0 8 -10zM417 752q34 0 56.5 -22t15.5 -65q-9 -55 -37 -97t-69 -74q-6 -6 -13 -1l-24 29q-7 8 1 16q20 18 32 34.5t17 37.5q-33 0 -49.5 20t-11.5 49q5 35 27.5 54t54.5 19z" />
    <glyph glyph-name="Ldot" unicode="&#x13f;" horiz-adv-x="564" 
d="M300 700q10 0 8 -10l-96 -577h318q11 0 9 -11l-15 -92q-3 -10 -12 -10h-428q-11 0 -9 10l113 680q2 10 12 10h100zM488 483q30 0 49.5 -21.5t14.5 -56.5q-6 -35 -32.5 -56.5t-57.5 -21.5t-50.5 21.5t-13.5 56.5q3 18 11.5 32t21 24.5t27.5 16t30 5.5z" />
    <glyph glyph-name="ldot" unicode="&#x140;" horiz-adv-x="496" 
d="M168 10q-2 -10 -12 -10h-92q-11 0 -8 10l119 720q2 10 12 10h92q10 0 8 -10zM378 448q30 0 49.5 -21.5t14.5 -56.5q-6 -35 -32.5 -56.5t-57.5 -21.5t-50.5 21.5t-13.5 56.5q3 18 11.5 32t21 24.5t27.5 16t30 5.5z" />
    <glyph glyph-name="Lslash" unicode="&#x141;" horiz-adv-x="617" 
d="M105 240q-10 -4 -12 5l-18 57q-4 9 6 13l103 45l55 330q2 10 13 10h100q10 0 8 -10l-46 -275l162 67q10 3 12 -5l15 -59q2 -10 -8 -13l-197 -81l-34 -211h318q10 0 8 -11l-15 -92q-2 -10 -12 -10h-428q-11 0 -9 10l43 259z" />
    <glyph glyph-name="lslash" unicode="&#x142;" horiz-adv-x="235" 
d="M49 263q-10 -4 -13 4l-20 43q-4 10 5 14l104 59l58 347q2 10 11 10h92q11 0 9 -10l-46 -278l61 35q11 5 14 -4l20 -43q4 -9 -6 -14l-104 -58l-59 -358q-2 -10 -12 -10h-92q-10 0 -8 10l48 288z" />
    <glyph glyph-name="Nacute" unicode="&#x143;" horiz-adv-x="708" 
d="M742 700q11 0 9 -10l-114 -685q-2 -10 -12 -10h-27q-9 0 -12 6l-316 460l-75 -451q-2 -10 -12 -10h-99q-11 0 -9 10l114 685q2 10 12 10h28q7 0 11 -6l316 -460l75 451q2 10 12 10h99zM521 876q3 5 10 5h104q10 0 11.5 -4.5t-6.5 -11.5l-109 -111q-4 -4 -9 -4h-85
q-19 0 -6 15z" />
    <glyph glyph-name="nacute" unicode="&#x144;" horiz-adv-x="520" 
d="M198 440q7 0 9 -8l4 -65q31 39 73 62t91 23q85 0 122 -53t20 -150l-40 -239q-2 -10 -12 -10h-91q-11 0 -9 10l39 230q8 54 -9 82.5t-67 28.5q-22 0 -43.5 -9t-38.5 -26t-29.5 -40t-17.5 -52l-35 -214q-3 -10 -12 -10h-92q-11 0 -9 10l70 420q2 10 12 10h65zM393 656
q3 5 10 5h104q10 0 11.5 -4.5t-6.5 -11.5l-109 -111q-4 -4 -9 -4h-85q-19 0 -6 15z" />
    <glyph glyph-name="uni0145" unicode="&#x145;" horiz-adv-x="708" 
d="M742 700q11 0 9 -10l-114 -685q-2 -10 -12 -10h-27q-9 0 -12 6l-316 460l-75 -451q-2 -10 -12 -10h-99q-11 0 -9 10l114 685q2 10 12 10h28q7 0 11 -6l316 -460l75 451q2 10 12 10h99zM344 -30q13 0 26 -4t23.5 -13t16 -23t2.5 -35q-5 -32 -31.5 -62.5t-62.5 -48.5
q-9 -4 -12 2l-18 23q-6 10 4 15q28 17 39 42q-24 -5 -44 9.5t-17 42.5q3 27 25 39.5t49 12.5z" />
    <glyph glyph-name="uni0146" unicode="&#x146;" horiz-adv-x="520" 
d="M198 440q7 0 9 -8l4 -65q31 39 73 62t91 23q85 0 122 -53t20 -150l-40 -239q-2 -10 -12 -10h-91q-11 0 -9 10l39 230q8 54 -9 82.5t-67 28.5q-22 0 -43.5 -9t-38.5 -26t-29.5 -40t-17.5 -52l-35 -214q-3 -10 -12 -10h-92q-11 0 -9 10l70 420q2 10 12 10h65zM253 -30
q13 0 26 -4t23.5 -13t16 -23t2.5 -35q-5 -32 -31.5 -62.5t-62.5 -48.5q-9 -4 -12 2l-18 23q-6 10 4 15q28 17 39 42q-24 -5 -44 9.5t-17 42.5q3 27 25 39.5t49 12.5z" />
    <glyph glyph-name="Ncaron" unicode="&#x147;" horiz-adv-x="708" 
d="M742 700q11 0 9 -10l-114 -685q-2 -10 -12 -10h-27q-9 0 -12 6l-316 460l-75 -451q-2 -10 -12 -10h-99q-11 0 -9 10l114 685q2 10 12 10h28q7 0 11 -6l316 -460l75 451q2 10 12 10h99zM330 865q-5 7 -2.5 11.5t10.5 4.5h81q5 0 8 -4l58 -70l62 69q3 4 5.5 4.5t4.5 0.5h84
q10 0 11.5 -4.5t-6.5 -11.5l-114 -111q-4 -4 -9 -4h-87q-4 0 -7 4z" />
    <glyph glyph-name="ncaron" unicode="&#x148;" horiz-adv-x="520" 
d="M198 440q7 0 9 -8l4 -65q31 39 73 62t91 23q85 0 122 -53t20 -150l-40 -239q-2 -10 -12 -10h-91q-11 0 -9 10l39 230q8 54 -9 82.5t-67 28.5q-22 0 -43.5 -9t-38.5 -26t-29.5 -40t-17.5 -52l-35 -214q-3 -10 -12 -10h-92q-11 0 -9 10l70 420q2 10 12 10h65zM201 645
q-5 7 -2.5 11.5t10.5 4.5h81q5 0 8 -4l58 -70l62 69q3 4 5.5 4.5t4.5 0.5h84q10 0 11.5 -4.5t-6.5 -11.5l-114 -111q-4 -4 -9 -4h-87q-4 0 -7 4z" />
    <glyph glyph-name="napostrophe" unicode="&#x149;" horiz-adv-x="520" 
d="M198 440q7 0 9 -8l4 -65q31 39 73 62t91 23q85 0 122 -53t20 -150l-40 -239q-2 -10 -12 -10h-91q-11 0 -9 10l39 230q8 54 -9 82.5t-67 28.5q-22 0 -43.5 -9t-38.5 -26t-29.5 -40t-17.5 -52l-35 -214q-3 -10 -12 -10h-92q-11 0 -9 10l70 420q2 10 12 10h65zM141 714
q34 0 56.5 -22t15.5 -65q-9 -55 -37 -97t-69 -74q-6 -6 -13 -1l-24 29q-7 8 1 16q20 18 32 34.5t17 37.5q-33 0 -49.5 20t-11.5 49q5 35 27.5 54t54.5 19z" />
    <glyph glyph-name="Eng" unicode="&#x14a;" horiz-adv-x="717" 
d="M751 700q11 0 9 -10l-115 -685q-17 -106 -72.5 -156t-148.5 -52q-12 0 -10 10l16 88q2 10 12 10q20 1 35 5.5t25.5 14t17.5 26t11 41.5l13 78l-278 393l-76 -453q-2 -10 -12 -10h-94q-11 0 -9 10l114 685q2 10 12 10h27q7 0 11 -6l330 -462l76 453q2 10 12 10h94z" />
    <glyph glyph-name="eng" unicode="&#x14b;" horiz-adv-x="520" 
d="M121 430q2 10 11 10h65q9 0 9 -8l4 -67q32 40 73.5 63.5t90.5 23.5q85 0 122 -52.5t21 -149.5l-42 -249q-16 -97 -65.5 -143t-136.5 -48q-11 0 -9 10l15 88q2 10 12 10q32 2 48 17.5t23 53.5l41 251q9 54 -9 81t-68 27q-45 0 -81.5 -34t-46.5 -90l-35 -214
q-2 -10 -12 -10h-92q-10 0 -8 10z" />
    <glyph glyph-name="Omacron" unicode="&#x14c;" horiz-adv-x="809" 
d="M509 712q80 0 143.5 -27.5t105 -76t58.5 -115t4 -144.5q-13 -81 -49 -148t-89 -114t-120.5 -73t-144.5 -26q-80 0 -143.5 27.5t-105 76t-58.5 115t-4 144.5q14 81 49.5 148t88.5 114t120.5 73t144.5 26zM502 600q-53 0 -98.5 -17.5t-81 -50t-59 -78.5t-33.5 -104
q-9 -57 0 -103t34.5 -79t66 -50.5t94.5 -17.5q53 0 98 17.5t80.5 50t59 78.5t33.5 104q9 57 0.5 103t-34 79t-66 50.5t-94.5 17.5zM693 796q-2 -10 -12 -10h-303q-11 0 -9 10l11 62q2 11 12 11h303q10 0 8 -11z" />
    <glyph glyph-name="omacron" unicode="&#x14d;" horiz-adv-x="549" 
d="M351 452q52 0 92.5 -17.5t66.5 -48t36.5 -73t1.5 -93.5q-8 -50 -32.5 -92.5t-61 -73.5t-83 -48.5t-98.5 -17.5t-92.5 17.5t-66.5 48.5t-36.5 73.5t-1.5 92.5q8 51 32.5 93.5t61 73t83 48t98.5 17.5zM335 358q-54 0 -94 -36t-51 -101t17 -102t82 -37t94 37t51 102t-17 101
t-82 36zM531 566q-2 -10 -12 -10h-303q-11 0 -9 10l11 62q2 11 12 11h303q10 0 8 -11z" />
    <glyph glyph-name="Obreve" unicode="&#x14e;" horiz-adv-x="809" 
d="M509 712q80 0 143.5 -27.5t105 -76t58.5 -115t4 -144.5q-13 -81 -49 -148t-89 -114t-120.5 -73t-144.5 -26q-80 0 -143.5 27.5t-105 76t-58.5 115t-4 144.5q14 81 49.5 148t88.5 114t120.5 73t144.5 26zM502 600q-53 0 -98.5 -17.5t-81 -50t-59 -78.5t-33.5 -104
q-9 -57 0 -103t34.5 -79t66 -50.5t94.5 -17.5q53 0 98 17.5t80.5 50t59 78.5t33.5 104q9 57 0.5 103t-34 79t-66 50.5t-94.5 17.5zM389 881q2 10 12 10h67q11 0 9 -10q-4 -32 7.5 -50t49.5 -18t55 18t24 50q2 10 12 10h68q11 0 9 -10q-11 -72 -57 -107t-118 -35
q-75 0 -111 36.5t-27 105.5z" />
    <glyph glyph-name="obreve" unicode="&#x14f;" horiz-adv-x="549" 
d="M351 452q52 0 92.5 -17.5t66.5 -48t36.5 -73t1.5 -93.5q-8 -50 -32.5 -92.5t-61 -73.5t-83 -48.5t-98.5 -17.5t-92.5 17.5t-66.5 48.5t-36.5 73.5t-1.5 92.5q8 51 32.5 93.5t61 73t83 48t98.5 17.5zM335 358q-54 0 -94 -36t-51 -101t17 -102t82 -37t94 37t51 102t-17 101
t-82 36zM227 651q2 10 12 10h67q11 0 9 -10q-4 -32 7.5 -50t49.5 -18t55 18t24 50q2 10 12 10h68q11 0 9 -10q-11 -72 -57 -107t-118 -35q-75 0 -111 36.5t-27 105.5z" />
    <glyph glyph-name="Ohungarumlaut" unicode="&#x150;" horiz-adv-x="809" 
d="M509 712q80 0 143.5 -27.5t105 -76t58.5 -115t4 -144.5q-13 -81 -49 -148t-89 -114t-120.5 -73t-144.5 -26q-80 0 -143.5 27.5t-105 76t-58.5 115t-4 144.5q14 81 49.5 148t88.5 114t120.5 73t144.5 26zM502 600q-53 0 -98.5 -17.5t-81 -50t-59 -78.5t-33.5 -104
q-9 -57 0 -103t34.5 -79t66 -50.5t94.5 -17.5q53 0 98 17.5t80.5 50t59 78.5t33.5 104q9 57 0.5 103t-34 79t-66 50.5t-94.5 17.5zM482 886q3 5 10 5h91q19 0 5 -16l-100 -111q-4 -4 -9 -4h-65q-14 0 -7 12zM655 886q3 5 10 5h89q9 0 11 -4.5t-6 -11.5l-108 -111
q-4 -4 -9 -4h-64q-6 0 -8.5 3t2.5 10z" />
    <glyph glyph-name="ohungarumlaut" unicode="&#x151;" horiz-adv-x="549" 
d="M351 452q52 0 92.5 -17.5t66.5 -48t36.5 -73t1.5 -93.5q-8 -50 -32.5 -92.5t-61 -73.5t-83 -48.5t-98.5 -17.5t-92.5 17.5t-66.5 48.5t-36.5 73.5t-1.5 92.5q8 51 32.5 93.5t61 73t83 48t98.5 17.5zM335 358q-54 0 -94 -36t-51 -101t17 -102t82 -37t94 37t51 102t-17 101
t-82 36zM320 656q3 5 10 5h91q19 0 5 -16l-100 -111q-4 -4 -9 -4h-65q-14 0 -7 12zM493 656q3 5 10 5h89q9 0 11 -4.5t-6 -11.5l-108 -111q-4 -4 -9 -4h-64q-6 0 -8.5 3t2.5 10z" />
    <glyph glyph-name="OE" unicode="&#x152;" horiz-adv-x="992" 
d="M1045 700q10 0 8 -10l-15 -92q-2 -10 -12 -10h-311l-30 -179h274q11 0 9 -10l-15 -85q-2 -11 -11 -11h-274l-32 -191h312q10 0 8 -10l-15 -92q-2 -10 -12 -10h-527q-78 0 -139 25t-100 70.5t-54.5 110.5t-2.5 144q13 80 50 144.5t91.5 110t124 70.5t147.5 25h526z
M503 587q-108 0 -180.5 -61t-91.5 -176t33 -176t160 -61h96l79 474h-96z" />
    <glyph glyph-name="oe" unicode="&#x153;" horiz-adv-x="875" 
d="M347 452q60 0 100.5 -24t60.5 -66q35 42 85.5 66t110.5 24q48 0 85 -15t60.5 -42t33 -64.5t1.5 -82.5q-4 -22 -8 -34.5t-8.5 -18.5t-10 -7.5t-11.5 -1.5h-303q-4 -47 23.5 -76t78.5 -29q28 0 55 12.5t52 34.5q6 8 15 1l48 -50q9 -5 0 -14q-40 -35 -86 -56t-103 -21
q-60 0 -102.5 24t-63.5 66q-34 -42 -82 -66t-108 -24q-51 0 -91.5 17.5t-66.5 48.5t-36 73.5t-1 92.5q8 51 32.5 93.5t60.5 73t82 48t97 17.5zM778 264q2 40 -20 68t-72 28q-22 0 -43.5 -7t-38.5 -20t-29.5 -30.5t-18.5 -38.5h222zM334 358q-54 0 -94 -36t-51 -101
t16.5 -102t81.5 -37t94.5 37t51.5 102t-17 101t-82 36z" />
    <glyph glyph-name="Racute" unicode="&#x154;" horiz-adv-x="628" 
d="M195 10q-2 -10 -12 -10h-99q-11 0 -9 10l113 680q2 10 12 10h236q121 0 179.5 -56.5t40.5 -163.5q-9 -51 -29.5 -89t-49.5 -64.5t-64 -42t-73 -20.5l126 -248q8 -16 -11 -16h-118q-4 0 -8 4l-114 245h-80zM253 357h128q132 0 153 124q9 58 -18.5 83.5t-99.5 25.5h-124z
M489 876q3 5 10 5h104q10 0 11.5 -4.5t-6.5 -11.5l-109 -111q-4 -4 -9 -4h-85q-19 0 -6 15z" />
    <glyph glyph-name="racute" unicode="&#x155;" horiz-adv-x="349" 
d="M121 430q2 10 12 10h65q7 0 9 -8l2 -76q32 41 78.5 66.5t106.5 29.5q10 0 8 -10l-15 -90q-2 -11 -13 -11q-67 2 -117 -32.5t-63 -112.5l-31 -186q-2 -10 -12 -10h-92q-10 0 -8 10zM324 656q3 5 10 5h104q10 0 11.5 -4.5t-6.5 -11.5l-109 -111q-4 -4 -9 -4h-85
q-19 0 -6 15z" />
    <glyph glyph-name="uni0156" unicode="&#x156;" horiz-adv-x="628" 
d="M195 10q-2 -10 -12 -10h-99q-11 0 -9 10l113 680q2 10 12 10h236q121 0 179.5 -56.5t40.5 -163.5q-9 -51 -29.5 -89t-49.5 -64.5t-64 -42t-73 -20.5l126 -248q8 -16 -11 -16h-118q-4 0 -8 4l-114 245h-80zM253 357h128q132 0 153 124q9 58 -18.5 83.5t-99.5 25.5h-124z
M315 -30q13 0 26 -4t23.5 -13t16 -23t2.5 -35q-5 -32 -31.5 -62.5t-62.5 -48.5q-9 -4 -12 2l-18 23q-6 10 4 15q28 17 39 42q-24 -5 -44 9.5t-17 42.5q3 27 25 39.5t49 12.5z" />
    <glyph glyph-name="uni0157" unicode="&#x157;" horiz-adv-x="349" 
d="M121 430q2 10 12 10h65q7 0 9 -8l2 -76q32 41 78.5 66.5t106.5 29.5q10 0 8 -10l-15 -90q-2 -11 -13 -11q-67 2 -117 -32.5t-63 -112.5l-31 -186q-2 -10 -12 -10h-92q-10 0 -8 10zM94 -30q13 0 26 -4t23.5 -13t16 -23t2.5 -35q-5 -32 -31.5 -62.5t-62.5 -48.5
q-9 -4 -12 2l-18 23q-6 10 4 15q28 17 39 42q-24 -5 -44 9.5t-17 42.5q3 27 25 39.5t49 12.5z" />
    <glyph glyph-name="Rcaron" unicode="&#x158;" horiz-adv-x="628" 
d="M195 10q-2 -10 -12 -10h-99q-11 0 -9 10l113 680q2 10 12 10h236q121 0 179.5 -56.5t40.5 -163.5q-9 -51 -29.5 -89t-49.5 -64.5t-64 -42t-73 -20.5l126 -248q8 -16 -11 -16h-118q-4 0 -8 4l-114 245h-80zM253 357h128q132 0 153 124q9 58 -18.5 83.5t-99.5 25.5h-124z
M297 865q-5 7 -2.5 11.5t10.5 4.5h81q5 0 8 -4l58 -70l62 69q3 4 5.5 4.5t4.5 0.5h84q10 0 11.5 -4.5t-6.5 -11.5l-114 -111q-4 -4 -9 -4h-87q-4 0 -7 4z" />
    <glyph glyph-name="rcaron" unicode="&#x159;" horiz-adv-x="349" 
d="M121 430q2 10 12 10h65q7 0 9 -8l2 -76q32 41 78.5 66.5t106.5 29.5q10 0 8 -10l-15 -90q-2 -11 -13 -11q-67 2 -117 -32.5t-63 -112.5l-31 -186q-2 -10 -12 -10h-92q-10 0 -8 10zM133 645q-5 7 -2.5 11.5t10.5 4.5h81q5 0 8 -4l58 -70l62 69q3 4 5.5 4.5t4.5 0.5h84
q10 0 11.5 -4.5t-6.5 -11.5l-114 -111q-4 -4 -9 -4h-87q-4 0 -7 4z" />
    <glyph glyph-name="Sacute" unicode="&#x15a;" horiz-adv-x="601" 
d="M563 545q-9 -9 -15 -1q-31 32 -71.5 46t-89.5 14q-33 0 -56.5 -6.5t-38.5 -17.5t-22.5 -25.5t-10.5 -30.5q-4 -27 5 -45t28 -31.5t45.5 -23.5t57.5 -19q40 -12 78.5 -29.5t67 -43.5t43 -63t6.5 -87q-8 -49 -33 -85.5t-63 -60.5t-87.5 -36t-106.5 -12q-72 0 -138.5 21
t-114.5 73q-3 2 -2.5 6t3.5 7l66 74q8 8 16 0q19 -21 41.5 -35.5t46.5 -22.5t48.5 -11.5t46.5 -3.5q42 0 70.5 8t45.5 21t25.5 30t11.5 34q4 25 -2.5 42t-23.5 29t-43.5 21.5t-62.5 18.5q-43 12 -82.5 31t-67.5 46.5t-41.5 65t-5.5 87.5q14 87 84 134.5t183 47.5
q70 0 127 -18t103 -66q7 -7 -2 -14zM462 886q3 5 10 5h104q10 0 11.5 -4.5t-6.5 -11.5l-109 -111q-4 -4 -9 -4h-85q-19 0 -6 15z" />
    <glyph glyph-name="sacute" unicode="&#x15b;" horiz-adv-x="452" 
d="M415 320q-8 -8 -15 -1q-20 18 -49 30t-61 12q-68 0 -74 -38q-4 -23 13.5 -35.5t71.5 -25.5q87 -19 119.5 -49.5t23.5 -84.5q-5 -31 -23 -56.5t-46 -44t-65 -29t-80 -10.5q-58 0 -108 17t-80 43q-6 7 1 14l52 65q8 9 16 3q25 -21 59 -36.5t74 -15.5q33 0 57.5 13.5
t27.5 32.5q2 10 -1 17.5t-13.5 13.5t-31.5 12.5t-55 15.5q-75 18 -105.5 50.5t-21.5 85.5q10 61 63.5 97t137.5 36q57 0 101 -16t73 -44q7 -5 -1 -13zM363 656q3 5 10 5h104q10 0 11.5 -4.5t-6.5 -11.5l-109 -111q-4 -4 -9 -4h-85q-19 0 -6 15z" />
    <glyph glyph-name="Scircumflex" unicode="&#x15c;" horiz-adv-x="601" 
d="M563 545q-9 -9 -15 -1q-31 32 -71.5 46t-89.5 14q-33 0 -56.5 -6.5t-38.5 -17.5t-22.5 -25.5t-10.5 -30.5q-4 -27 5 -45t28 -31.5t45.5 -23.5t57.5 -19q40 -12 78.5 -29.5t67 -43.5t43 -63t6.5 -87q-8 -49 -33 -85.5t-63 -60.5t-87.5 -36t-106.5 -12q-72 0 -138.5 21
t-114.5 73q-3 2 -2.5 6t3.5 7l66 74q8 8 16 0q19 -21 41.5 -35.5t46.5 -22.5t48.5 -11.5t46.5 -3.5q42 0 70.5 8t45.5 21t25.5 30t11.5 34q4 25 -2.5 42t-23.5 29t-43.5 21.5t-62.5 18.5q-43 12 -82.5 31t-67.5 46.5t-41.5 65t-5.5 87.5q14 87 84 134.5t183 47.5
q70 0 127 -18t103 -66q7 -7 -2 -14zM578 776q5 -6 2.5 -11t-10.5 -5h-79q-6 0 -9 4l-56 73l-65 -72q-3 -4 -5.5 -4.5t-4.5 -0.5h-84q-10 0 -11.5 4.5t6.5 11.5l114 111q3 4 9 4h86q4 0 8 -4z" />
    <glyph glyph-name="scircumflex" unicode="&#x15d;" horiz-adv-x="452" 
d="M415 320q-8 -8 -15 -1q-20 18 -49 30t-61 12q-68 0 -74 -38q-4 -23 13.5 -35.5t71.5 -25.5q87 -19 119.5 -49.5t23.5 -84.5q-5 -31 -23 -56.5t-46 -44t-65 -29t-80 -10.5q-58 0 -108 17t-80 43q-6 7 1 14l52 65q8 9 16 3q25 -21 59 -36.5t74 -15.5q33 0 57.5 13.5
t27.5 32.5q2 10 -1 17.5t-13.5 13.5t-31.5 12.5t-55 15.5q-75 18 -105.5 50.5t-21.5 85.5q10 61 63.5 97t137.5 36q57 0 101 -16t73 -44q7 -5 -1 -13zM479 546q5 -6 2.5 -11t-10.5 -5h-79q-6 0 -9 4l-56 73l-65 -72q-3 -4 -5.5 -4.5t-4.5 -0.5h-84q-10 0 -11.5 4.5t6.5 11.5
l114 111q3 4 9 4h86q4 0 8 -4z" />
    <glyph glyph-name="Scedilla" unicode="&#x15e;" horiz-adv-x="601" 
d="M563 545q-9 -9 -15 -1q-31 32 -71.5 46t-89.5 14q-33 0 -56.5 -6.5t-38.5 -17.5t-22.5 -25.5t-10.5 -30.5q-4 -27 5 -45t28 -31.5t45.5 -23.5t57.5 -19q40 -12 78.5 -29.5t67 -43.5t43 -63t6.5 -87q-8 -49 -33 -85.5t-63 -60.5t-87.5 -36t-106.5 -12q-72 0 -138.5 21
t-114.5 73q-3 2 -2.5 6t3.5 7l66 74q8 8 16 0q19 -21 41.5 -35.5t46.5 -22.5t48.5 -11.5t46.5 -3.5q42 0 70.5 8t45.5 21t25.5 30t11.5 34q4 25 -2.5 42t-23.5 29t-43.5 21.5t-62.5 18.5q-43 12 -82.5 31t-67.5 46.5t-41.5 65t-5.5 87.5q14 87 84 134.5t183 47.5
q70 0 127 -18t103 -66q7 -7 -2 -14zM318 17q13 0 8 -12l-16 -49q57 -5 81 -29t18 -62q-8 -43 -49 -65t-113 -22q-42 0 -82 8q-8 2 -5 12l15 49q3 11 15 8q17 -5 38.5 -7t38.5 -2q26 0 40 8.5t16 21.5q3 17 -16 25t-69 10q-13 0 -8 12l30 86q3 8 12 8h46z" />
    <glyph glyph-name="scedilla" unicode="&#x15f;" horiz-adv-x="452" 
d="M415 320q-8 -8 -15 -1q-20 18 -49 30t-61 12q-68 0 -74 -38q-4 -23 13.5 -35.5t71.5 -25.5q87 -19 119.5 -49.5t23.5 -84.5q-5 -31 -23 -56.5t-46 -44t-65 -29t-80 -10.5q-58 0 -108 17t-80 43q-6 7 1 14l52 65q8 9 16 3q25 -21 59 -36.5t74 -15.5q33 0 57.5 13.5
t27.5 32.5q2 10 -1 17.5t-13.5 13.5t-31.5 12.5t-55 15.5q-75 18 -105.5 50.5t-21.5 85.5q10 61 63.5 97t137.5 36q57 0 101 -16t73 -44q7 -5 -1 -13zM249 17q13 0 8 -12l-16 -49q57 -5 81 -29t18 -62q-8 -43 -49 -65t-113 -22q-42 0 -82 8q-8 2 -5 12l15 49q3 11 15 8
q17 -5 38.5 -7t38.5 -2q26 0 40 8.5t16 21.5q3 17 -16 25t-69 10q-13 0 -8 12l30 86q3 8 12 8h46z" />
    <glyph glyph-name="Scaron" unicode="&#x160;" horiz-adv-x="601" 
d="M563 545q-9 -9 -15 -1q-31 32 -71.5 46t-89.5 14q-33 0 -56.5 -6.5t-38.5 -17.5t-22.5 -25.5t-10.5 -30.5q-4 -27 5 -45t28 -31.5t45.5 -23.5t57.5 -19q40 -12 78.5 -29.5t67 -43.5t43 -63t6.5 -87q-8 -49 -33 -85.5t-63 -60.5t-87.5 -36t-106.5 -12q-72 0 -138.5 21
t-114.5 73q-3 2 -2.5 6t3.5 7l66 74q8 8 16 0q19 -21 41.5 -35.5t46.5 -22.5t48.5 -11.5t46.5 -3.5q42 0 70.5 8t45.5 21t25.5 30t11.5 34q4 25 -2.5 42t-23.5 29t-43.5 21.5t-62.5 18.5q-43 12 -82.5 31t-67.5 46.5t-41.5 65t-5.5 87.5q14 87 84 134.5t183 47.5
q70 0 127 -18t103 -66q7 -7 -2 -14zM270 875q-5 7 -2.5 11.5t10.5 4.5h81q5 0 8 -4l58 -70l62 69q3 4 5.5 4.5t4.5 0.5h84q10 0 11.5 -4.5t-6.5 -11.5l-114 -111q-4 -4 -9 -4h-87q-4 0 -7 4z" />
    <glyph glyph-name="scaron" unicode="&#x161;" horiz-adv-x="452" 
d="M415 320q-8 -8 -15 -1q-20 18 -49 30t-61 12q-68 0 -74 -38q-4 -23 13.5 -35.5t71.5 -25.5q87 -19 119.5 -49.5t23.5 -84.5q-5 -31 -23 -56.5t-46 -44t-65 -29t-80 -10.5q-58 0 -108 17t-80 43q-6 7 1 14l52 65q8 9 16 3q25 -21 59 -36.5t74 -15.5q33 0 57.5 13.5
t27.5 32.5q2 10 -1 17.5t-13.5 13.5t-31.5 12.5t-55 15.5q-75 18 -105.5 50.5t-21.5 85.5q10 61 63.5 97t137.5 36q57 0 101 -16t73 -44q7 -5 -1 -13zM171 645q-5 7 -2.5 11.5t10.5 4.5h81q5 0 8 -4l58 -70l62 69q3 4 5.5 4.5t4.5 0.5h84q10 0 11.5 -4.5t-6.5 -11.5
l-114 -111q-4 -4 -9 -4h-87q-4 0 -7 4z" />
    <glyph glyph-name="uni0162" unicode="&#x162;" horiz-adv-x="585" 
d="M144 690q2 10 12 10h508q10 0 8 -10l-15 -92q-2 -11 -12 -11h-194l-96 -577q-2 -10 -12 -10h-100q-10 0 -8 10l96 577h-194q-11 0 -9 11zM320 17q13 0 8 -12l-16 -49q57 -5 81 -29t18 -62q-8 -43 -49 -65t-113 -22q-42 0 -82 8q-8 2 -5 12l15 49q3 11 15 8q17 -5 38.5 -7
t38.5 -2q26 0 40 8.5t16 21.5q3 17 -16 25t-69 10q-13 0 -8 12l30 86q3 8 12 8h46z" />
    <glyph glyph-name="uni0163" unicode="&#x163;" horiz-adv-x="392" 
d="M292 549q10 0 8 -10l-16 -99h123q11 0 9 -10l-13 -77q-2 -10 -12 -10h-124l-31 -185q-6 -40 4 -54.5t33 -14.5q19 0 36.5 4.5t34.5 12.5q11 5 14 -5l18 -69q3 -10 -7 -13q-30 -14 -62.5 -22.5t-62.5 -8.5q-148 0 -121 158l32 197h-69q-11 0 -9 10l13 77q2 10 12 10h75
l69 103q3 6 10 6h36zM208 32q13 0 8 -12l-16 -49q57 -5 81 -29t18 -62q-8 -43 -49 -65t-113 -22q-42 0 -82 8q-8 2 -5 12l15 49q3 11 15 8q17 -5 38.5 -7t38.5 -2q26 0 40 8.5t16 21.5q3 17 -16 25t-69 10q-13 0 -8 12l30 86q3 8 12 8h46z" />
    <glyph glyph-name="Tcaron" unicode="&#x164;" horiz-adv-x="585" 
d="M144 690q2 10 12 10h508q10 0 8 -10l-15 -92q-2 -11 -12 -11h-194l-96 -577q-2 -10 -12 -10h-100q-10 0 -8 10l96 577h-194q-11 0 -9 11zM273 865q-5 7 -2.5 11.5t10.5 4.5h81q5 0 8 -4l58 -70l62 69q3 4 5.5 4.5t4.5 0.5h84q10 0 11.5 -4.5t-6.5 -11.5l-114 -111
q-4 -4 -9 -4h-87q-4 0 -7 4z" />
    <glyph glyph-name="tcaron" unicode="&#x165;" horiz-adv-x="392" 
d="M292 549q10 0 8 -10l-16 -99h123q11 0 9 -10l-13 -77q-2 -10 -12 -10h-124l-31 -185q-6 -40 4 -54.5t33 -14.5q19 0 36.5 4.5t34.5 12.5q11 5 14 -5l18 -69q3 -10 -7 -13q-30 -14 -62.5 -22.5t-62.5 -8.5q-148 0 -121 158l32 197h-69q-11 0 -9 10l13 77q2 10 12 10h75
l69 103q3 6 10 6h36zM423 751q34 0 56.5 -22t15.5 -65q-9 -55 -37 -97t-69 -74q-6 -6 -13 -1l-24 29q-7 8 1 16q20 18 32 34.5t17 37.5q-33 0 -49.5 20t-11.5 49q5 35 27.5 54t54.5 19z" />
    <glyph glyph-name="Tbar" unicode="&#x166;" horiz-adv-x="585" 
d="M144 690q2 10 12 10h508q11 0 9 -10l-15 -92q-2 -11 -13 -11h-194l-36 -217h114q10 0 8 -10l-11 -67q-2 -10 -12 -10h-114l-45 -273q-2 -10 -12 -10h-100q-10 0 -8 10l45 273h-114q-10 0 -8 10l11 67q2 10 12 10h114l36 217h-194q-10 0 -8 11z" />
    <glyph glyph-name="tbar" unicode="&#x167;" horiz-adv-x="392" 
d="M76 266q2 10 11 10h57l11 67h-70q-10 0 -8 10l13 77q2 10 11 10h76l68 103q6 6 11 6h35q12 0 10 -10l-17 -99h123q11 0 9 -10l-13 -77q-2 -10 -12 -10h-124l-11 -67h130q12 0 10 -10l-10 -59q-2 -11 -13 -11h-130l-7 -40q-6 -39 4 -53t33 -14q19 0 36.5 4.5t33.5 12.5
q13 5 16 -5l16 -69q3 -9 -6 -13q-30 -14 -62.5 -22.5t-62.5 -8.5q-148 0 -121 158l8 50h-57q-10 0 -8 11z" />
    <glyph glyph-name="Utilde" unicode="&#x168;" horiz-adv-x="678" 
d="M716 700q10 0 8 -10l-71 -430q-10 -62 -36 -112t-65.5 -85.5t-91.5 -55t-115 -19.5t-111 19.5t-78.5 55t-41.5 85.5t-1 112l71 430q2 10 12 10h100q10 0 8 -10l-69 -418q-14 -85 15.5 -128t103.5 -43q75 0 120.5 43t59.5 128l70 418q2 10 12 10h100zM646 883q11 0 9 -10
q-7 -43 -19.5 -71.5t-29 -45.5t-35.5 -23.5t-39 -6.5q-23 0 -39.5 11.5t-30.5 26t-26.5 26t-27.5 11.5q-13 0 -24 -14t-16 -47q-2 -10 -12 -10h-66q-10 0 -8 10q5 40 17.5 68.5t29.5 46.5t36.5 26t39.5 8q23 0 40 -12t30.5 -26.5t26.5 -26.5t28 -12q14 0 24 12t15 49
q2 10 12 10h65z" />
    <glyph glyph-name="utilde" unicode="&#x169;" horiz-adv-x="519" 
d="M533 440q11 0 9 -10l-70 -420q-2 -10 -12 -10h-64q-9 0 -9 8l-4 66q-31 -39 -72.5 -62.5t-90.5 -23.5q-85 0 -122 53t-20 150l40 239q2 10 12 10h91q11 0 9 -10l-39 -230q-8 -54 9 -81t67 -27q45 0 81.5 34t45.5 91l36 213q2 10 12 10h91zM531 663q11 0 9 -10
q-7 -43 -19.5 -71.5t-29 -45.5t-35.5 -23.5t-39 -6.5q-23 0 -39.5 11.5t-30.5 26t-26.5 26t-27.5 11.5q-13 0 -24 -14t-16 -47q-2 -10 -12 -10h-66q-10 0 -8 10q5 40 17.5 68.5t29.5 46.5t36.5 26t39.5 8q23 0 40 -12t30.5 -26.5t26.5 -26.5t28 -12q14 0 24 12t15 49
q2 10 12 10h65z" />
    <glyph glyph-name="Umacron" unicode="&#x16a;" horiz-adv-x="678" 
d="M716 700q10 0 8 -10l-71 -430q-10 -62 -36 -112t-65.5 -85.5t-91.5 -55t-115 -19.5t-111 19.5t-78.5 55t-41.5 85.5t-1 112l71 430q2 10 12 10h100q10 0 8 -10l-69 -418q-14 -85 15.5 -128t103.5 -43q75 0 120.5 43t59.5 128l70 418q2 10 12 10h100zM627 786
q-2 -10 -12 -10h-303q-11 0 -9 10l11 62q2 11 12 11h303q10 0 8 -11z" />
    <glyph glyph-name="umacron" unicode="&#x16b;" horiz-adv-x="519" 
d="M533 440q11 0 9 -10l-70 -420q-2 -10 -12 -10h-64q-9 0 -9 8l-4 66q-31 -39 -72.5 -62.5t-90.5 -23.5q-85 0 -122 53t-20 150l40 239q2 10 12 10h91q11 0 9 -10l-39 -230q-8 -54 9 -81t67 -27q45 0 81.5 34t45.5 91l36 213q2 10 12 10h91zM512 566q-2 -10 -12 -10h-303
q-11 0 -9 10l11 62q2 11 12 11h303q10 0 8 -11z" />
    <glyph glyph-name="Ubreve" unicode="&#x16c;" horiz-adv-x="678" 
d="M716 700q10 0 8 -10l-71 -430q-10 -62 -36 -112t-65.5 -85.5t-91.5 -55t-115 -19.5t-111 19.5t-78.5 55t-41.5 85.5t-1 112l71 430q2 10 12 10h100q10 0 8 -10l-69 -418q-14 -85 15.5 -128t103.5 -43q75 0 120.5 43t59.5 128l70 418q2 10 12 10h100zM323 871q2 10 12 10
h67q11 0 9 -10q-4 -32 7.5 -50t49.5 -18t55 18t24 50q2 10 12 10h68q11 0 9 -10q-11 -72 -57 -107t-118 -35q-75 0 -111 36.5t-27 105.5z" />
    <glyph glyph-name="ubreve" unicode="&#x16d;" horiz-adv-x="519" 
d="M533 440q11 0 9 -10l-70 -420q-2 -10 -12 -10h-64q-9 0 -9 8l-4 66q-31 -39 -72.5 -62.5t-90.5 -23.5q-85 0 -122 53t-20 150l40 239q2 10 12 10h91q11 0 9 -10l-39 -230q-8 -54 9 -81t67 -27q45 0 81.5 34t45.5 91l36 213q2 10 12 10h91zM208 651q2 10 12 10h67
q11 0 9 -10q-4 -32 7.5 -50t49.5 -18t55 18t24 50q2 10 12 10h68q11 0 9 -10q-11 -72 -57 -107t-118 -35q-75 0 -111 36.5t-27 105.5z" />
    <glyph glyph-name="Uring" unicode="&#x16e;" horiz-adv-x="678" 
d="M716 700q10 0 8 -10l-71 -430q-10 -62 -36 -112t-65.5 -85.5t-91.5 -55t-115 -19.5t-111 19.5t-78.5 55t-41.5 85.5t-1 112l71 430q2 10 12 10h100q10 0 8 -10l-69 -418q-14 -85 15.5 -128t103.5 -43q75 0 120.5 43t59.5 128l70 418q2 10 12 10h100zM495 971
q57 0 86.5 -34.5t20.5 -87.5q-4 -26 -17 -48t-32.5 -38t-44.5 -25t-53 -9q-57 0 -86.5 34t-20.5 86q4 26 17 48.5t32.5 39t44.5 25.5t53 9zM485 907q-29 0 -45 -16t-21 -42q-4 -25 7 -40.5t40 -15.5t44.5 15.5t20.5 40.5q5 26 -6 42t-40 16z" />
    <glyph glyph-name="uring" unicode="&#x16f;" horiz-adv-x="519" 
d="M533 440q11 0 9 -10l-70 -420q-2 -10 -12 -10h-64q-9 0 -9 8l-4 66q-31 -39 -72.5 -62.5t-90.5 -23.5q-85 0 -122 53t-20 150l40 239q2 10 12 10h91q11 0 9 -10l-39 -230q-8 -54 9 -81t67 -27q45 0 81.5 34t45.5 91l36 213q2 10 12 10h91zM380 751q57 0 86.5 -34.5
t20.5 -87.5q-4 -26 -17 -48t-32.5 -38t-44.5 -25t-53 -9q-57 0 -86.5 34t-20.5 86q4 26 17 48.5t32.5 39t44.5 25.5t53 9zM370 687q-29 0 -45 -16t-21 -42q-4 -25 7 -40.5t40 -15.5t44.5 15.5t20.5 40.5q5 26 -6 42t-40 16z" />
    <glyph glyph-name="Uhungarumlaut" unicode="&#x170;" horiz-adv-x="678" 
d="M716 700q10 0 8 -10l-71 -430q-10 -62 -36 -112t-65.5 -85.5t-91.5 -55t-115 -19.5t-111 19.5t-78.5 55t-41.5 85.5t-1 112l71 430q2 10 12 10h100q10 0 8 -10l-69 -418q-14 -85 15.5 -128t103.5 -43q75 0 120.5 43t59.5 128l70 418q2 10 12 10h100zM416 876q3 5 10 5h91
q19 0 5 -16l-100 -111q-4 -4 -9 -4h-65q-14 0 -7 12zM589 876q3 5 10 5h89q9 0 11 -4.5t-6 -11.5l-108 -111q-4 -4 -9 -4h-64q-6 0 -8.5 3t2.5 10z" />
    <glyph glyph-name="uhungarumlaut" unicode="&#x171;" horiz-adv-x="519" 
d="M533 440q11 0 9 -10l-70 -420q-2 -10 -12 -10h-64q-9 0 -9 8l-4 66q-31 -39 -72.5 -62.5t-90.5 -23.5q-85 0 -122 53t-20 150l40 239q2 10 12 10h91q11 0 9 -10l-39 -230q-8 -54 9 -81t67 -27q45 0 81.5 34t45.5 91l36 213q2 10 12 10h91zM301 656q3 5 10 5h91
q19 0 5 -16l-100 -111q-4 -4 -9 -4h-65q-14 0 -7 12zM474 656q3 5 10 5h89q9 0 11 -4.5t-6 -11.5l-108 -111q-4 -4 -9 -4h-64q-6 0 -8.5 3t2.5 10z" />
    <glyph glyph-name="Uogonek" unicode="&#x172;" horiz-adv-x="681" 
d="M719 700q11 0 9 -10l-72 -430q-9 -53 -30.5 -97.5t-53.5 -78.5t-73 -57t-90 -33q-37 -25 -54.5 -49.5t-20.5 -45.5q-8 -38 36 -38q15 0 27 3q10 3 12 -7l4 -55q0 -8 -9 -12q-15 -4 -33.5 -7t-35.5 -3q-60 0 -84.5 26.5t-16.5 68.5q5 29 23.5 59t52.5 56q-55 4 -96.5 25
t-67 56t-34.5 83t1 106l71 430q2 10 13 10h100q11 0 9 -10l-70 -418q-14 -85 16.5 -128t105.5 -43t119.5 43t58.5 128l69 418q2 10 13 10h101z" />
    <glyph glyph-name="uogonek" unicode="&#x173;" horiz-adv-x="519" 
d="M533 440q11 0 9 -10l-70 -417q-1 -12 -22 -25q-36 -23 -51 -45t-18 -44q-8 -38 35 -38q17 0 27 3t12 -7l4 -55q0 -8 -9 -12q-15 -4 -33 -7t-35 -3q-60 0 -85 26.5t-17 68.5q6 35 32 70t75 67l-4 62q-31 -39 -73 -62.5t-90 -23.5q-85 0 -122.5 53t-20.5 150l40 239
q2 10 12 10h92q11 0 9 -10l-39 -230q-9 -54 8.5 -81t67.5 -27q45 0 81 34t46 91l36 213q2 10 11 10h92z" />
    <glyph glyph-name="Wcircumflex" unicode="&#x174;" horiz-adv-x="1066" 
d="M1134 700q12 0 5 -13l-351 -685q-3 -7 -11 -7h-31q-7 0 -9 6l-129 465l-278 -465q-4 -6 -11 -6h-31q-8 0 -8 7l-123 685q-3 13 9 13h101q7 0 9 -7l76 -457l266 445q5 6 12 6h18q8 0 9 -6l124 -450l231 462q4 7 10 7h112zM819 766q5 -6 2.5 -11t-10.5 -5h-79q-6 0 -9 4
l-56 73l-65 -72q-3 -4 -5.5 -4.5t-4.5 -0.5h-84q-10 0 -11.5 4.5t6.5 11.5l114 111q3 4 9 4h86q4 0 8 -4z" />
    <glyph glyph-name="wcircumflex" unicode="&#x175;" horiz-adv-x="790" 
d="M835 440q8 0 10 -4t-3 -10l-259 -425q-4 -6 -11 -6h-34q-5 0 -8 6l-90 268l-179 -268q-3 -6 -10 -6h-33q-6 0 -8 6l-120 425q-3 14 12 14h105q8 0 9 -6l58 -249l168 250q5 5 10 5h34q5 0 8 -5l85 -250l140 249q3 6 11 6h105zM645 546q5 -6 2.5 -11t-10.5 -5h-79
q-6 0 -9 4l-56 73l-65 -72q-3 -4 -5.5 -4.5t-4.5 -0.5h-84q-10 0 -11.5 4.5t6.5 11.5l114 111q3 4 9 4h86q4 0 8 -4z" />
    <glyph glyph-name="Ycircumflex" unicode="&#x176;" horiz-adv-x="649" 
d="M735 700q15 0 3 -15l-307 -406l-44 -269q-2 -10 -12 -10h-100q-10 0 -8 10l44 269l-171 406q-7 15 8 15h111q6 0 8 -5l117 -304l215 304q5 5 10 5h126zM609 766q5 -6 2.5 -11t-10.5 -5h-79q-6 0 -9 4l-56 73l-65 -72q-3 -4 -5.5 -4.5t-4.5 -0.5h-84q-10 0 -11.5 4.5
t6.5 11.5l114 111q3 4 9 4h86q4 0 8 -4z" />
    <glyph glyph-name="ycircumflex" unicode="&#x177;" horiz-adv-x="514" 
d="M90 426q-5 14 12 14h94q8 0 9 -6l74 -299l162 299q2 6 10 6h108q16 0 7 -14l-353 -610q-4 -6 -11 -6h-104q-16 0 -7 14l115 186zM509 546q5 -6 2.5 -11t-10.5 -5h-79q-6 0 -9 4l-56 73l-65 -72q-3 -4 -5.5 -4.5t-4.5 -0.5h-84q-10 0 -11.5 4.5t6.5 11.5l114 111q3 4 9 4
h86q4 0 8 -4z" />
    <glyph glyph-name="Ydieresis" unicode="&#x178;" horiz-adv-x="649" 
d="M735 700q15 0 3 -15l-307 -406l-44 -269q-2 -10 -12 -10h-100q-10 0 -8 10l44 269l-171 406q-7 15 8 15h111q6 0 8 -5l117 -304l215 304q5 5 10 5h126zM368 881q30 0 44 -17.5t9 -46.5t-24.5 -46t-50.5 -17q-30 0 -44 17t-9 46t24.5 46.5t50.5 17.5zM570 881
q31 0 45 -17.5t9 -46.5t-24.5 -46t-50.5 -17q-30 0 -44 17t-9 46t24.5 46.5t49.5 17.5z" />
    <glyph glyph-name="Zacute" unicode="&#x179;" horiz-adv-x="634" 
d="M167 587q-11 0 -9 11l15 92q2 10 12 10h498q11 0 9 -10l-5 -30q-2 -7 -5 -10l-434 -539l342 2q11 0 9 -11l-15 -92q-3 -10 -12 -10h-508q-11 0 -9 10l5 30q1 2 2 5t3 5l433 537h-331zM484 876q3 5 10 5h104q10 0 11.5 -4.5t-6.5 -11.5l-109 -111q-4 -4 -9 -4h-85
q-19 0 -6 15z" />
    <glyph glyph-name="zacute" unicode="&#x17a;" horiz-adv-x="448" 
d="M107 346q-11 0 -9 11l12 73q2 10 12 10h352q10 0 8 -10l-5 -31q0 -5 -4 -9l-256 -296h208q11 0 9 -11l-13 -73q-2 -10 -12 -10h-369q-11 0 -9 10l6 31q0 3 1 5l2 4l257 296h-190zM370 656q3 5 10 5h104q10 0 11.5 -4.5t-6.5 -11.5l-109 -111q-4 -4 -9 -4h-85q-19 0 -6 15
z" />
    <glyph glyph-name="Zdotaccent" unicode="&#x17b;" horiz-adv-x="634" 
d="M167 587q-11 0 -9 11l15 92q2 10 12 10h498q11 0 9 -10l-5 -30q-2 -7 -5 -10l-434 -539l342 2q11 0 9 -11l-15 -92q-3 -10 -12 -10h-508q-11 0 -9 10l5 30q1 2 2 5t3 5l433 537h-331zM456 886q29 0 46.5 -17.5t12.5 -46.5q-5 -30 -24.5 -47.5t-48.5 -17.5q-30 0 -47 17.5
t-12 47.5q5 29 24 46.5t49 17.5z" />
    <glyph glyph-name="zdotaccent" unicode="&#x17c;" horiz-adv-x="448" 
d="M107 346q-11 0 -9 11l12 73q2 10 12 10h352q10 0 8 -10l-5 -31q0 -5 -4 -9l-256 -296h208q11 0 9 -11l-13 -73q-2 -10 -12 -10h-369q-11 0 -9 10l6 31q0 3 1 5l2 4l257 296h-190zM343 666q29 0 46.5 -17.5t12.5 -46.5q-5 -30 -24.5 -47.5t-48.5 -17.5q-30 0 -47 17.5
t-12 47.5q5 29 24 46.5t49 17.5z" />
    <glyph glyph-name="Zcaron" unicode="&#x17d;" horiz-adv-x="634" 
d="M167 587q-11 0 -9 11l15 92q2 10 12 10h498q11 0 9 -10l-5 -30q-2 -7 -5 -10l-434 -539l342 2q11 0 9 -11l-15 -92q-3 -10 -12 -10h-508q-11 0 -9 10l5 30q1 2 2 5t3 5l433 537h-331zM292 865q-5 7 -2.5 11.5t10.5 4.5h81q5 0 8 -4l58 -70l62 69q3 4 5.5 4.5t4.5 0.5h84
q10 0 11.5 -4.5t-6.5 -11.5l-114 -111q-4 -4 -9 -4h-87q-4 0 -7 4z" />
    <glyph glyph-name="zcaron" unicode="&#x17e;" horiz-adv-x="448" 
d="M107 346q-11 0 -9 11l12 73q2 10 12 10h352q10 0 8 -10l-5 -31q0 -5 -4 -9l-256 -296h208q11 0 9 -11l-13 -73q-2 -10 -12 -10h-369q-11 0 -9 10l6 31q0 3 1 5l2 4l257 296h-190zM179 645q-5 7 -2.5 11.5t10.5 4.5h81q5 0 8 -4l58 -70l62 69q3 4 5.5 4.5t4.5 0.5h84
q10 0 11.5 -4.5t-6.5 -11.5l-114 -111q-4 -4 -9 -4h-87q-4 0 -7 4z" />
    <glyph glyph-name="florin" unicode="&#x192;" horiz-adv-x="552" 
d="M42 145q0 9 9 12l77 20q11 4 11 -9q1 -35 16 -57.5t45 -22.5q32 0 48 22t24 66l31 184h-137q-10 0 -8 11l11 66q2 10 12 10h136l14 80q8 48 27.5 83t48 57t64 32.5t74.5 10.5q18 0 33.5 -1.5t29.5 -6.5q8 -2 6 -10l-13 -83q-1 -12 -11 -8q-14 5 -29 7.5t-29 2.5
q-42 0 -61 -22t-26 -65l-13 -77h131q11 0 9 -10l-11 -66q-2 -11 -12 -11h-131l-32 -187q-8 -48 -26 -83t-43.5 -57.5t-56.5 -33.5t-64 -11q-68 0 -110 37t-44 120z" />
    <glyph glyph-name="AEacute" unicode="&#x1fc;" horiz-adv-x="936" 
d="M983 598q-2 -10 -12 -10h-366l17 -179h281q10 0 8 -10l-14 -85q-2 -11 -12 -11h-254l18 -191h243q11 0 9 -10l-16 -92q-2 -10 -12 -10h-330q-8 0 -8 8l-14 150h-266l-91 -152q-4 -6 -11 -6h-109q-17 0 -8 14l417 680q5 6 10 6h526q11 0 9 -10zM515 269l-27 283l-170 -283
h197zM764 876q3 5 10 5h104q10 0 11.5 -4.5t-6.5 -11.5l-109 -111q-4 -4 -9 -4h-85q-19 0 -6 15z" />
    <glyph glyph-name="aeacute" unicode="&#x1fd;" horiz-adv-x="863" 
d="M869 224q-4 -19 -9 -27.5t-16 -8.5h-311q-4 -46 23.5 -74t75.5 -28q29 0 55 12t49 33q10 6 15 1l55 -49q6 -5 -1 -14q-37 -38 -80 -59.5t-94 -21.5q-45 0 -82 18.5t-55 53.5l-14 -51q-4 -9 -12 -9h-59q-9 0 -9 9l4 53q-29 -35 -67 -54.5t-87 -19.5q-46 0 -82.5 17
t-59.5 47.5t-32 73.5t0 94q8 51 31 93.5t56 73.5t75 48t88 17q48 0 79 -17.5t49 -47.5l7 43q2 10 12 10h78q11 0 9 -10l-7 -44q32 35 72 50.5t85 15.5q46 0 80 -16.5t54 -46.5t26.5 -72t-1.5 -93zM769 264q2 40 -19 67t-75 27q-48 0 -82.5 -26t-46.5 -68h223zM335 355
q-61 0 -97.5 -36t-47.5 -99q-10 -63 14.5 -99t85.5 -36q26 0 50 10t43.5 28t32.5 43t18 54q10 59 -18 97t-81 38zM573 656q3 5 10 5h104q10 0 11.5 -4.5t-6.5 -11.5l-109 -111q-4 -4 -9 -4h-85q-19 0 -6 15z" />
    <glyph glyph-name="Oslashacute" unicode="&#x1fe;" horiz-adv-x="809" 
d="M524 712q119 0 196 -60l101 99q6 8 14 2l38 -38q6 -5 -1 -14l-101 -99q35 -48 48.5 -112t0.5 -140q-13 -79 -50 -145.5t-92.5 -114.5t-125.5 -75t-149 -27q-60 0 -108.5 15t-86.5 44l-105 -104q-8 -8 -15 -1l-36 40q-6 6 1 13l103 102q-36 48 -49.5 112t-0.5 141
q14 80 51 146.5t92.5 114.5t125.5 74.5t149 26.5zM505 601q-54 0 -100 -17.5t-82 -50.5t-60 -79.5t-33 -103.5q-8 -49 -2.5 -89.5t22.5 -71.5l382 376q-49 36 -127 36zM297 134q23 -17 54.5 -26t69.5 -9q54 0 100 17.5t82 50.5t60 79.5t34 103.5q15 97 -20 160zM578 886
q3 5 10 5h104q10 0 11.5 -4.5t-6.5 -11.5l-109 -111q-4 -4 -9 -4h-85q-19 0 -6 15z" />
    <glyph glyph-name="oslashacute" unicode="&#x1ff;" horiz-adv-x="549" 
d="M527 510q8 8 15 2l39 -32q8 -6 0 -14l-72 -80q26 -31 37 -73t2 -93q-8 -50 -32.5 -92.5t-61 -73t-83 -48t-98.5 -17.5q-57 0 -103 22l-75 -84q-8 -8 -15 -2l-38 35q-6 6 1 14l72 80q-27 31 -37.5 73t-1.5 93q8 50 32.5 92.5t61 73.5t82.5 48t98 17q61 0 104 -22zM335 358
q-54 0 -93.5 -36t-50.5 -101q-8 -48 5 -78l185 205q-22 10 -46 10zM243 92q10 -5 21 -7.5t25 -2.5q54 0 94 37t51 102q4 23 2 41.5t-8 34.5zM410 656q3 5 10 5h104q10 0 11.5 -4.5t-6.5 -11.5l-109 -111q-4 -4 -9 -4h-85q-19 0 -6 15z" />
    <glyph glyph-name="uni0218" unicode="&#x218;" horiz-adv-x="601" 
d="M563 545q-9 -9 -15 -1q-31 32 -71.5 46t-89.5 14q-33 0 -56.5 -6.5t-38.5 -17.5t-22.5 -25.5t-10.5 -30.5q-4 -27 5 -45t28 -31.5t45.5 -23.5t57.5 -19q40 -12 78.5 -29.5t67 -43.5t43 -63t6.5 -87q-8 -49 -33 -85.5t-63 -60.5t-87.5 -36t-106.5 -12q-72 0 -138.5 21
t-114.5 73q-3 2 -2.5 6t3.5 7l66 74q8 8 16 0q19 -21 41.5 -35.5t46.5 -22.5t48.5 -11.5t46.5 -3.5q42 0 70.5 8t45.5 21t25.5 30t11.5 34q4 25 -2.5 42t-23.5 29t-43.5 21.5t-62.5 18.5q-43 12 -82.5 31t-67.5 46.5t-41.5 65t-5.5 87.5q14 87 84 134.5t183 47.5
q70 0 127 -18t103 -66q7 -7 -2 -14zM278 -30q13 0 26 -4t23.5 -13t16 -23t2.5 -35q-5 -32 -31.5 -62.5t-62.5 -48.5q-9 -4 -12 2l-18 23q-6 10 4 15q28 17 39 42q-24 -5 -44 9.5t-17 42.5q3 27 25 39.5t49 12.5z" />
    <glyph glyph-name="uni0219" unicode="&#x219;" horiz-adv-x="452" 
d="M415 320q-8 -8 -15 -1q-20 18 -49 30t-61 12q-68 0 -74 -38q-4 -23 13.5 -35.5t71.5 -25.5q87 -19 119.5 -49.5t23.5 -84.5q-5 -31 -23 -56.5t-46 -44t-65 -29t-80 -10.5q-58 0 -108 17t-80 43q-6 7 1 14l52 65q8 9 16 3q25 -21 59 -36.5t74 -15.5q33 0 57.5 13.5
t27.5 32.5q2 10 -1 17.5t-13.5 13.5t-31.5 12.5t-55 15.5q-75 18 -105.5 50.5t-21.5 85.5q10 61 63.5 97t137.5 36q57 0 101 -16t73 -44q7 -5 -1 -13zM210 -30q13 0 26 -4t23.5 -13t16 -23t2.5 -35q-5 -32 -31.5 -62.5t-62.5 -48.5q-9 -4 -12 2l-18 23q-6 10 4 15
q28 17 39 42q-24 -5 -44 9.5t-17 42.5q3 27 25 39.5t49 12.5z" />
    <glyph glyph-name="uni021A" unicode="&#x21a;" horiz-adv-x="585" 
d="M144 690q2 10 12 10h508q10 0 8 -10l-15 -92q-2 -11 -12 -11h-194l-96 -577q-2 -10 -12 -10h-100q-10 0 -8 10l96 577h-194q-11 0 -9 11zM281 -30q13 0 26 -4t23.5 -13t16 -23t2.5 -35q-5 -32 -31.5 -62.5t-62.5 -48.5q-9 -4 -12 2l-18 23q-6 10 4 15q28 17 39 42
q-24 -5 -44 9.5t-17 42.5q3 27 25 39.5t49 12.5z" />
    <glyph glyph-name="uni021B" unicode="&#x21b;" horiz-adv-x="392" 
d="M292 549q10 0 8 -10l-16 -99h123q11 0 9 -10l-13 -77q-2 -10 -12 -10h-124l-31 -185q-6 -40 4 -54.5t33 -14.5q19 0 36.5 4.5t34.5 12.5q11 5 14 -5l18 -69q3 -10 -7 -13q-30 -14 -62.5 -22.5t-62.5 -8.5q-148 0 -121 158l32 197h-69q-11 0 -9 10l13 77q2 10 12 10h75
l69 103q3 6 10 6h36zM169 -15q13 0 26 -4t23.5 -13t16 -23t2.5 -35q-5 -32 -31.5 -62.5t-62.5 -48.5q-9 -4 -12 2l-18 23q-6 10 4 15q28 17 39 42q-24 -5 -44 9.5t-17 42.5q3 27 25 39.5t49 12.5z" />
    <glyph glyph-name="uni0237" unicode="&#x237;" horiz-adv-x="214" 
d="M228 440q11 0 9 -10l-72 -428q-16 -97 -66 -143.5t-138 -48.5q-10 0 -8 10l14 86q2 10 12 10q33 2 49.5 19t22.5 56l74 439q2 10 12 10h91z" />
    <glyph glyph-name="circumflex" unicode="&#x2c6;" horiz-adv-x="471" 
d="M491 586q5 -6 2.5 -11t-10.5 -5h-79q-6 0 -9 4l-56 73l-65 -72q-3 -4 -5.5 -4.5t-4.5 -0.5h-84q-10 0 -11.5 4.5t6.5 11.5l114 111q3 4 9 4h86q4 0 8 -4z" />
    <glyph glyph-name="caron" unicode="&#x2c7;" horiz-adv-x="471" 
d="M192 685q-5 7 -2.5 11.5t10.5 4.5h81q5 0 8 -4l58 -70l62 69q3 4 5.5 4.5t4.5 0.5h84q10 0 11.5 -4.5t-6.5 -11.5l-114 -111q-4 -4 -9 -4h-87q-4 0 -7 4z" />
    <glyph glyph-name="breve" unicode="&#x2d8;" horiz-adv-x="459" 
d="M189 691q2 10 12 10h67q11 0 9 -10q-4 -32 7.5 -50t49.5 -18t55 18t24 50q2 10 12 10h68q11 0 9 -10q-11 -72 -57 -107t-118 -35q-75 0 -111 36.5t-27 105.5z" />
    <glyph glyph-name="dotaccent" unicode="&#x2d9;" horiz-adv-x="278" 
d="M254 706q29 0 46.5 -17.5t12.5 -46.5q-5 -30 -24.5 -47.5t-48.5 -17.5q-30 0 -47 17.5t-12 47.5q5 29 24 46.5t49 17.5z" />
    <glyph glyph-name="ring" unicode="&#x2da;" horiz-adv-x="400" 
d="M335 808q57 0 86.5 -34.5t20.5 -87.5q-4 -26 -17 -48t-32.5 -38t-44.5 -25t-53 -9q-57 0 -86.5 34t-20.5 86q4 26 17 48.5t32.5 39t44.5 25.5t53 9zM325 744q-29 0 -45 -16t-21 -42q-4 -25 7 -40.5t40 -15.5t44.5 15.5t20.5 40.5q5 26 -6 42t-40 16z" />
    <glyph glyph-name="ogonek" unicode="&#x2db;" horiz-adv-x="337" 
d="M215 -136q12 3 12 -7l4 -55q0 -9 -10 -12q-14 -4 -32 -7t-35 -3q-60 0 -85 26.5t-17 68.5q6 39 37 77.5t89 66.5q5 3 8 1l36 -13q18 -7 -1 -19q-35 -23 -50.5 -45t-18.5 -44q-8 -38 36 -38q15 0 27 3z" />
    <glyph glyph-name="tilde" unicode="&#x2dc;" horiz-adv-x="497" 
d="M531 703q11 0 9 -10q-7 -43 -19.5 -71.5t-29 -45.5t-35.5 -23.5t-39 -6.5q-23 0 -39.5 11.5t-30.5 26t-26.5 26t-27.5 11.5q-13 0 -24 -14t-16 -47q-2 -10 -12 -10h-66q-10 0 -8 10q5 40 17.5 68.5t29.5 46.5t36.5 26t39.5 8q23 0 40 -12t30.5 -26.5t26.5 -26.5t28 -12
q14 0 24 12t15 49q2 10 12 10h65z" />
    <glyph glyph-name="hungarumlaut" unicode="&#x2dd;" horiz-adv-x="486" 
d="M247 696q3 5 10 5h91q19 0 5 -16l-100 -111q-4 -4 -9 -4h-65q-14 0 -7 12zM420 696q3 5 10 5h89q9 0 11 -4.5t-6 -11.5l-108 -111q-4 -4 -9 -4h-64q-6 0 -8.5 3t2.5 10z" />
    <glyph glyph-name="uni0326" unicode="&#x326;" horiz-adv-x="292" 
d="M133 -30q13 0 26 -4t23.5 -13t16 -23t2.5 -35q-5 -32 -31.5 -62.5t-62.5 -48.5q-9 -4 -12 2l-18 23q-6 10 4 15q28 17 39 42q-24 -5 -44 9.5t-17 42.5q3 27 25 39.5t49 12.5z" />
    <glyph glyph-name="uni0394" unicode="&#x394;" horiz-adv-x="666" 
d="M427 695q3 6 11 6h31q7 0 9 -6l158 -681q2 -14 -13 -14h-580q-16 0 -7 14zM202 106h306l-82 398z" />
    <glyph glyph-name="uni03A9" unicode="&#x3a9;" horiz-adv-x="816" 
d="M528 713q67 0 124 -21.5t95.5 -62.5t55.5 -100.5t5 -134.5q-8 -49 -28 -94t-47.5 -84t-60 -73t-67.5 -61l170 19q12 2 10 -11l-14 -80q-2 -10 -12 -10h-280q-9 0 -9 8l-3 29q-2 7 4 11q39 27 74 62.5t63.5 77.5t49 88.5t28.5 95.5q10 62 0.5 106.5t-34 73t-61 42.5
t-81.5 14t-86.5 -14t-75 -42.5t-58 -73t-34.5 -106.5q-8 -49 -3.5 -95.5t19 -88.5t37.5 -77.5t53 -62.5q5 -3 1 -11l-13 -29q-3 -8 -11 -8h-281q-10 0 -8 10l13 80q2 13 13 11l164 -19q-25 27 -47 61t-36 73t-19 84t3 94q12 75 49 134.5t89.5 100.5t117 62.5t131.5 21.5z
" />
    <glyph glyph-name="uni03BC" unicode="&#x3bc;" horiz-adv-x="524" 
d="M225 440q11 0 9 -10l-35 -208q-11 -69 6.5 -99.5t66.5 -30.5q21 0 41.5 6t37.5 20.5t29.5 38.5t18.5 60l35 213q2 10 12 10h92q11 0 9 -10l-70 -420q-2 -10 -12 -10h-68q-9 0 -9 8l-3 55q-26 -35 -62 -54t-78 -19q-57 0 -87 30l-26 -201q-2 -10 -12 -10h-92q-11 0 -9 10
l102 611q2 10 12 10h92z" />
    <glyph glyph-name="pi" unicode="&#x3c0;" horiz-adv-x="673" 
d="M687 369q-1 -9 -11 -10l-128 -22l-13 -159q-4 -45 6.5 -64t43.5 -19q9 0 21 2l24 4q10 3 12 -8l10 -72q2 -9 -9 -11q-20 -7 -46 -10.5t-46 -3.5q-69 0 -101.5 44t-24.5 130l16 167h-132l-110 -329q-3 -8 -10 -8h-93q-12 0 -9 12l109 325h-105q-10 0 -8 11l14 82
q2 10 11 10h581q11 0 9 -10z" />
    <glyph glyph-name="Wgrave" unicode="&#x1e80;" horiz-adv-x="1066" 
d="M1134 700q12 0 5 -13l-351 -685q-3 -7 -11 -7h-31q-7 0 -9 6l-129 465l-278 -465q-4 -6 -11 -6h-31q-8 0 -8 7l-123 685q-3 13 9 13h101q7 0 9 -7l76 -457l266 445q5 6 12 6h18q8 0 9 -6l124 -450l231 462q4 7 10 7h112zM706 765q8 -15 -11 -15h-85q-5 0 -8 4l-70 111
q-5 7 -2.5 11.5t13.5 4.5h104q5 0 8 -5z" />
    <glyph glyph-name="wgrave" unicode="&#x1e81;" horiz-adv-x="790" 
d="M835 440q8 0 10 -4t-3 -10l-259 -425q-4 -6 -11 -6h-34q-5 0 -8 6l-90 268l-179 -268q-3 -6 -10 -6h-33q-6 0 -8 6l-120 425q-3 14 12 14h105q8 0 9 -6l58 -249l168 250q5 5 10 5h34q5 0 8 -5l85 -250l140 249q3 6 11 6h105zM532 545q8 -15 -11 -15h-85q-5 0 -8 4
l-70 111q-5 7 -2.5 11.5t13.5 4.5h104q5 0 8 -5z" />
    <glyph glyph-name="Wacute" unicode="&#x1e82;" horiz-adv-x="1066" 
d="M1134 700q12 0 5 -13l-351 -685q-3 -7 -11 -7h-31q-7 0 -9 6l-129 465l-278 -465q-4 -6 -11 -6h-31q-8 0 -8 7l-123 685q-3 13 9 13h101q7 0 9 -7l76 -457l266 445q5 6 12 6h18q8 0 9 -6l124 -450l231 462q4 7 10 7h112zM703 876q3 5 10 5h104q10 0 11.5 -4.5t-6.5 -11.5
l-109 -111q-4 -4 -9 -4h-85q-19 0 -6 15z" />
    <glyph glyph-name="wacute" unicode="&#x1e83;" horiz-adv-x="790" 
d="M835 440q8 0 10 -4t-3 -10l-259 -425q-4 -6 -11 -6h-34q-5 0 -8 6l-90 268l-179 -268q-3 -6 -10 -6h-33q-6 0 -8 6l-120 425q-3 14 12 14h105q8 0 9 -6l58 -249l168 250q5 5 10 5h34q5 0 8 -5l85 -250l140 249q3 6 11 6h105zM529 656q3 5 10 5h104q10 0 11.5 -4.5
t-6.5 -11.5l-109 -111q-4 -4 -9 -4h-85q-19 0 -6 15z" />
    <glyph glyph-name="Wdieresis" unicode="&#x1e84;" horiz-adv-x="1066" 
d="M1134 700q12 0 5 -13l-351 -685q-3 -7 -11 -7h-31q-7 0 -9 6l-129 465l-278 -465q-4 -6 -11 -6h-31q-8 0 -8 7l-123 685q-3 13 9 13h101q7 0 9 -7l76 -457l266 445q5 6 12 6h18q8 0 9 -6l124 -450l231 462q4 7 10 7h112zM578 881q30 0 44 -17.5t9 -46.5t-24.5 -46
t-50.5 -17q-30 0 -44 17t-9 46t24.5 46.5t50.5 17.5zM780 881q31 0 45 -17.5t9 -46.5t-24.5 -46t-50.5 -17q-30 0 -44 17t-9 46t24.5 46.5t49.5 17.5z" />
    <glyph glyph-name="wdieresis" unicode="&#x1e85;" horiz-adv-x="790" 
d="M835 440q8 0 10 -4t-3 -10l-259 -425q-4 -6 -11 -6h-34q-5 0 -8 6l-90 268l-179 -268q-3 -6 -10 -6h-33q-6 0 -8 6l-120 425q-3 14 12 14h105q8 0 9 -6l58 -249l168 250q5 5 10 5h34q5 0 8 -5l85 -250l140 249q3 6 11 6h105zM403 661q30 0 44 -17.5t9 -46.5t-24.5 -46
t-50.5 -17q-30 0 -44 17t-9 46t24.5 46.5t50.5 17.5zM605 661q31 0 45 -17.5t9 -46.5t-24.5 -46t-50.5 -17q-30 0 -44 17t-9 46t24.5 46.5t49.5 17.5z" />
    <glyph glyph-name="Germandbls" unicode="&#x1e9e;" horiz-adv-x="658" 
d="M680 662q-2 -3 -3.5 -7t-4.5 -8l-180 -219q48 -4 80.5 -21t51.5 -44t24 -63.5t-2 -79.5q-9 -54 -34 -95t-63.5 -69t-88 -42t-107.5 -14h-78q-10 0 -8 10l15 92q2 11 12 11h69q71 0 111.5 25t50.5 88q6 33 -0.5 55.5t-22.5 36t-40.5 19t-55.5 5.5h-66q-9 0 -9 8v31
q0 9 3 12l158 196h-88q-30 0 -52.5 -4.5t-38 -17t-25.5 -35t-16 -57.5l-77 -465q-2 -10 -12 -10h-99q-11 0 -9 10l79 476q36 214 268 214h254q10 0 8 -10z" />
    <glyph glyph-name="endash" unicode="&#x2013;" horiz-adv-x="594" 
d="M113 310q2 10 12 10h451q10 0 8 -10l-13 -76q-2 -11 -12 -11h-450q-11 0 -9 11z" />
    <glyph glyph-name="emdash" unicode="&#x2014;" horiz-adv-x="927" 
d="M113 310q2 10 12 10h784q11 0 9 -10l-13 -76q-2 -11 -12 -11h-784q-11 0 -9 11z" />
    <glyph glyph-name="uni2015" unicode="&#x2015;" horiz-adv-x="943" 
d="M53 310q2 10 12 10h921q11 0 9 -10l-13 -77q-2 -10 -12 -10h-922q-10 0 -8 10z" />
    <glyph glyph-name="quoteleft" unicode="&#x2018;" horiz-adv-x="263" 
d="M195 427q-34 0 -54 22.5t-12 66.5q10 59 38 105.5t71 84.5q7 7 14 1l28 -23q10 -7 -1 -16q-23 -23 -36.5 -45.5t-19.5 -48.5q34 0 50.5 -21t11.5 -52q-6 -36 -32 -55t-58 -19z" />
    <glyph glyph-name="quoteright" unicode="&#x2019;" horiz-adv-x="263" 
d="M240 712q33 0 53 -22.5t12 -66.5q-9 -58 -37.5 -104t-70.5 -84q-7 -6 -14 -1l-28 23q-10 6 0 16q24 23 37.5 45t19.5 48q-34 0 -51 21t-12 52q7 35 33 54t58 19z" />
    <glyph glyph-name="quotesinglbase" unicode="&#x201a;" horiz-adv-x="270" 
d="M150 151q35 0 55.5 -24t12.5 -68q-11 -66 -42.5 -123.5t-69.5 -102.5q-6 -6 -14 -3l-43 24q-9 5 -2 14q28 33 44.5 63t27.5 69q-35 1 -51 22t-11 52q6 36 33 56.5t60 20.5z" />
    <glyph glyph-name="quotedblleft" unicode="&#x201c;" horiz-adv-x="472" 
d="M195 427q-34 0 -54 22.5t-12 66.5q10 59 38 105.5t71 84.5q7 7 14 1l28 -23q10 -7 -1 -16q-23 -23 -36.5 -45.5t-19.5 -48.5q34 0 50.5 -21t11.5 -52q-6 -36 -32 -55t-58 -19zM404 427q-34 0 -54 22.5t-12 66.5q10 59 38.5 105.5t71.5 84.5q6 6 13 1l28 -23q10 -6 0 -16
q-24 -23 -37.5 -45.5t-19.5 -48.5q34 0 51 -21t12 -52q-7 -36 -33 -55t-58 -19z" />
    <glyph glyph-name="quotedblright" unicode="&#x201d;" horiz-adv-x="472" 
d="M449 712q34 0 53.5 -22.5t11.5 -66.5q-9 -58 -37 -104t-71 -84q-7 -7 -14 -1l-28 23q-10 7 1 16q24 23 37 45t19 48q-34 0 -51 21t-12 52q7 35 33 54t58 19zM240 712q33 0 53 -22.5t12 -66.5q-9 -58 -37.5 -104t-70.5 -84q-7 -6 -14 -1l-28 23q-10 6 0 16q24 23 37.5 45
t19.5 48q-34 0 -51 21t-12 52q7 35 33 54t58 19z" />
    <glyph glyph-name="quotedblbase" unicode="&#x201e;" horiz-adv-x="471" 
d="M354 150q33 0 53.5 -22.5t12.5 -66.5q-10 -59 -38.5 -105.5t-70.5 -84.5q-8 -6 -13 -1l-29 24q-9 5 1 15q24 23 37.5 45.5t18.5 48.5q-34 0 -50.5 21t-11.5 52q6 36 32 55t58 19zM145 150q33 0 53 -22.5t13 -66.5q-10 -59 -38.5 -105.5t-70.5 -84.5q-8 -6 -13 -1l-29 24
q-9 5 1 15q24 23 37.5 46t18.5 48q-34 0 -50.5 21t-11.5 52q5 36 31.5 55t58.5 19z" />
    <glyph glyph-name="dagger" unicode="&#x2020;" horiz-adv-x="447" 
d="M390 730q11 0 9 -10l-24 -138h114q10 0 8 -10l-13 -78q-2 -10 -12 -10h-113l-58 -354q-2 -10 -13 -10h-85q-10 0 -8 10l59 354h-113q-11 0 -9 10l13 78q2 10 12 10h113l23 138q2 10 12 10h85z" />
    <glyph glyph-name="daggerdbl" unicode="&#x2021;" horiz-adv-x="445" 
d="M389 730q10 0 8 -10l-23 -140h112q11 0 9 -10l-13 -76q-2 -11 -12 -11h-112l-22 -129h112q11 0 9 -10l-13 -76q-2 -11 -12 -11h-112l-30 -177q-2 -10 -11 -10h-85q-11 0 -9 10l30 177h-112q-11 0 -9 11l13 76q2 10 12 10h112l21 129h-112q-10 0 -8 11l13 76q2 10 11 10
h112l24 140q2 10 12 10h85z" />
    <glyph glyph-name="bullet" unicode="&#x2022;" horiz-adv-x="607" 
d="M362 507q72 0 114.5 -42.5t42.5 -114.5t-42.5 -114.5t-114.5 -42.5t-114.5 42.5t-42.5 114.5t42.5 114.5t114.5 42.5z" />
    <glyph glyph-name="uni2023" unicode="&#x2023;" horiz-adv-x="617" 
d="M513 359q8 -4 8 -9t-8 -9l-260 -141q-15 -8 -15 9v282q0 17 15 9z" />
    <glyph glyph-name="ellipsis" unicode="&#x2026;" horiz-adv-x="815" 
d="M168 152q33 0 53 -23t14 -58q-6 -36 -33.5 -58.5t-60.5 -22.5q-34 0 -54 22.5t-14 58.5q6 35 34 58t61 23zM433 152q33 0 53 -23t14 -58q-6 -36 -33.5 -58.5t-60.5 -22.5q-34 0 -54 22.5t-14 58.5q6 35 34 58t61 23zM698 152q33 0 53 -23t14 -58q-6 -36 -33.5 -58.5
t-60.5 -22.5q-34 0 -54 22.5t-14 58.5q6 35 34 58t61 23z" />
    <glyph glyph-name="perthousand" unicode="&#x2030;" horiz-adv-x="1020" 
d="M297 700q34 0 60 -11.5t43 -32t24 -48.5t1 -62q-6 -33 -22 -61.5t-39.5 -48.5t-54 -31.5t-64.5 -11.5t-60.5 11.5t-43.5 31.5t-24 48.5t-1 61.5q6 34 22 62t40 48.5t54.5 32t64.5 11.5zM734 615q5 -7 -3 -15l-644 -554q-10 -7 -15 0l-32 38q-5 7 2 14l644 554q8 7 15 0z
M284 625q-35 0 -59.5 -20.5t-30.5 -58.5q-6 -37 11.5 -57.5t52.5 -20.5t58.5 20.5t30.5 57.5q6 38 -11 58.5t-52 20.5zM525 295q34 0 60 -11.5t43 -31.5t24 -48.5t1 -61.5q-5 -34 -21 -62t-40 -48.5t-54 -32t-64 -11.5t-60.5 11.5t-43.5 32t-24 48.5t-1 62q6 33 22 61.5
t40 48.5t54 31.5t64 11.5zM894 295q34 0 60 -11.5t43 -31.5t24 -48.5t1 -61.5q-5 -34 -21 -62t-40 -48.5t-54 -32t-64 -11.5t-60.5 11.5t-43.5 32t-24 48.5t-2 62q6 33 22 61.5t40 48.5t54.5 31.5t64.5 11.5zM513 220q-35 0 -59.5 -20.5t-30.5 -57.5q-6 -38 11 -58.5
t52 -20.5t59.5 20.5t29.5 58.5q7 37 -10 57.5t-52 20.5zM881 220q-35 0 -59 -20.5t-31 -57.5q-5 -38 12 -58.5t52 -20.5t59.5 20.5t29.5 58.5q7 37 -10.5 57.5t-52.5 20.5z" />
    <glyph glyph-name="minute" unicode="&#x2032;" horiz-adv-x="240" 
d="M233 438q-4 -9 -11 -9h-60q-9 0 -9 9l23 251q0 11 12 11h97q12 0 9 -11z" />
    <glyph glyph-name="second" unicode="&#x2033;" horiz-adv-x="418" 
d="M233 438q-2 -9 -11 -9h-60q-9 0 -9 9l23 251q0 11 12 11h97q12 0 9 -11zM411 438q-2 -9 -11 -9h-60q-9 0 -9 9l23 251q0 11 12 11h97q12 0 9 -11z" />
    <glyph glyph-name="guilsinglleft" unicode="&#x2039;" horiz-adv-x="322" 
d="M94 264q-2 5 2 11l125 160q5 5 11 5h103q19 0 6 -16l-130 -157l71 -152q8 -16 -11 -16h-96q-6 0 -9 5z" />
    <glyph glyph-name="guilsinglright" unicode="&#x203a;" horiz-adv-x="321" 
d="M317 275q2 -7 -2 -11l-125 -160q-3 -5 -10 -5h-103q-18 0 -5 16l130 159l-71 150q-8 16 10 16h96q6 0 8 -5z" />
    <glyph glyph-name="fraction" unicode="&#x2044;" horiz-adv-x="246" 
d="M479 700q19 0 7 -15l-525 -680q-5 -5 -10 -5h-66q-18 0 -6 15l525 680q3 5 10 5h65z" />
    <glyph glyph-name="uni2070" unicode="&#x2070;" horiz-adv-x="375" 
d="M325 830q43 0 71.5 -16t44.5 -44.5t19.5 -68t-4.5 -86.5t-24.5 -86.5t-42 -68t-59.5 -44.5t-76 -16q-43 0 -71.5 15.5t-44 44t-19 68t4.5 87.5q8 47 24.5 86.5t41.5 68t58.5 44.5t76.5 16zM311 742q-36 0 -58.5 -29t-33.5 -98q-12 -69 0.5 -98t48.5 -29t59 29t34 98
t-1.5 98t-48.5 29z" />
    <glyph glyph-name="uni2074" unicode="&#x2074;" horiz-adv-x="357" 
d="M424 494q-2 -11 -12 -11h-38l-11 -63q-2 -10 -12 -10h-67q-11 0 -9 10l11 63h-180q-10 0 -8 11l5 30q0 3 1 4l182 286q5 6 11 6h79q16 0 6 -15l-163 -242h80l12 73q2 10 12 10h67q11 0 9 -10l-12 -73h38q11 0 9 -10z" />
    <glyph glyph-name="uni2075" unicode="&#x2075;" horiz-adv-x="348" 
d="M425 746q-2 -10 -12 -10h-154l-16 -65h39q32 0 59 -7.5t45 -23.5t26 -40.5t2 -57.5q-4 -29 -18 -55t-36 -45.5t-51 -30.5t-64 -11q-56 0 -90.5 26t-43.5 77q-2 9 8 12l58 21q11 4 13 -7q11 -48 63 -48q59 0 68 56q5 27 -8 41t-49 14h-116q-11 0 -8 11l51 208q2 9 11 9
h225q11 0 9 -10z" />
    <glyph glyph-name="uni2076" unicode="&#x2076;" horiz-adv-x="345" 
d="M380 820q17 0 6 -16l-114 -138q19 8 42 8q26 0 47.5 -9t35 -26t19 -41t0.5 -54q-5 -33 -21.5 -60t-40.5 -45.5t-54.5 -28.5t-65.5 -10q-67 0 -102 35t-24 98q5 30 18.5 57t31.5 51l132 174q5 5 11 5h79zM276 602q-31 0 -49.5 -17t-23.5 -44q-9 -56 49 -56q29 0 47.5 15
t23.5 45q9 57 -47 57z" />
    <glyph glyph-name="uni2077" unicode="&#x2077;" horiz-adv-x="314" 
d="M150 736q-11 0 -8 10l10 64q2 10 12 10h259q11 0 9 -10l-5 -31q0 -2 -2 -4l-194 -359q-4 -6 -10 -6h-81q-16 0 -6 14l182 312h-166z" />
    <glyph glyph-name="uni2078" unicode="&#x2078;" horiz-adv-x="343" 
d="M310 830q66 0 96.5 -29.5t22.5 -79.5q-5 -31 -25 -59t-55 -41q38 -14 51.5 -42.5t7.5 -63.5q-9 -53 -52 -84t-118 -31t-107.5 31t-24.5 83q6 35 29.5 64t65.5 43q-30 13 -41 41t-6 59q8 50 49 79.5t107 29.5zM296 750q-47 0 -54 -43q-4 -23 6 -35.5t33 -12.5t37.5 12.5
t18.5 35.5q7 43 -41 43zM269 585q-30 0 -46 -14.5t-20 -38.5q-4 -22 7 -35.5t42 -13.5t46 13.5t19 35.5q5 24 -6.5 38.5t-41.5 14.5z" />
    <glyph glyph-name="uni2079" unicode="&#x2079;" horiz-adv-x="345" 
d="M171 410q-18 0 -7 16l114 138q-19 -8 -42 -8q-26 0 -47.5 9t-35 26t-19 41t-0.5 54q5 33 21.5 60t40.5 45.5t55 28.5t65 10q67 0 102 -35.5t24 -98.5q-5 -29 -18.5 -56.5t-31.5 -50.5l-132 -174q-5 -5 -11 -5h-78zM274 628q31 0 49.5 17t23.5 44q9 56 -49 56
q-29 0 -47.5 -15t-23.5 -45q-9 -57 47 -57z" />
    <glyph glyph-name="uni2080" unicode="&#x2080;" horiz-adv-x="375" 
d="M221 210q43 0 71.5 -16t44.5 -44.5t19.5 -68t-4.5 -86.5t-24.5 -86.5t-42 -68t-59.5 -44.5t-76 -16q-43 0 -71.5 15.5t-44 44t-19 68t4.5 87.5q8 47 24.5 86.5t41.5 68t58.5 44.5t76.5 16zM207 122q-36 0 -58.5 -29t-33.5 -98q-12 -69 0.5 -98t48.5 -29t59 29t34 98
t-1.5 98t-48.5 29z" />
    <glyph glyph-name="uni2081" unicode="&#x2081;" horiz-adv-x="248" 
d="M225 200q11 0 8 -10l-64 -390q-2 -10 -12 -10h-69q-10 0 -8 10l49 297l-73 -20q-10 -3 -12 7l-7 64q-2 9 9 13l145 39h3h31z" />
    <glyph glyph-name="uni2082" unicode="&#x2082;" horiz-adv-x="337" 
d="M109 78q-6 -9 -16 -6l-51 22q-10 4 -4 13q29 49 74 76t101 27q63 0 93.5 -31.5t21.5 -86.5q-7 -40 -31 -73t-66 -69l-87 -76h137q11 0 9 -10l-11 -64q-2 -10 -12 -10h-269q-11 0 -9 10l5 29q0 3 4 7l175 163q29 26 43.5 46t17.5 40t-7.5 32t-36.5 12q-50 0 -81 -51z" />
    <glyph glyph-name="uni2083" unicode="&#x2083;" horiz-adv-x="349" 
d="M127 -39q-10 0 -8 11l8 50q2 10 12 10h30q26 0 46 14t25 40q7 43 -44 43q-52 0 -83 -49q-7 -9 -14 -6l-52 26q-9 5 -4 13q23 45 62 71t100 26q70 0 104 -33t26 -82q-6 -37 -29.5 -60.5t-56.5 -34.5q36 -11 50 -40.5t8 -64.5q-8 -54 -49.5 -84.5t-110.5 -30.5
q-57 0 -97 26t-51 77q-2 8 9 12l61 22q10 5 12 -5q14 -51 68 -51q60 0 68 49q8 51 -60 51h-30z" />
    <glyph glyph-name="uni2084" unicode="&#x2084;" horiz-adv-x="357" 
d="M320 -126q-2 -11 -12 -11h-38l-11 -63q-2 -10 -12 -10h-67q-11 0 -9 10l11 63h-180q-10 0 -8 11l5 30q0 3 1 4l182 286q5 6 11 6h79q16 0 6 -15l-163 -242h80l12 73q2 10 12 10h67q11 0 9 -10l-12 -73h38q11 0 9 -10z" />
    <glyph glyph-name="uni2085" unicode="&#x2085;" horiz-adv-x="348" 
d="M321 126q-2 -10 -12 -10h-154l-16 -65h39q32 0 59 -7.5t45 -23.5t26 -40.5t2 -57.5q-4 -29 -18 -55t-36 -45.5t-51 -30.5t-64 -11q-56 0 -90.5 26t-43.5 77q-2 9 8 12l58 21q11 4 13 -7q11 -48 63 -48q59 0 68 56q5 27 -8 41t-49 14h-116q-11 0 -8 11l51 208q2 9 11 9
h225q11 0 9 -10z" />
    <glyph glyph-name="uni2086" unicode="&#x2086;" horiz-adv-x="345" 
d="M276 200q17 0 6 -16l-114 -138q19 8 42 8q26 0 47.5 -9t35 -26t19 -41t0.5 -54q-5 -33 -21.5 -60t-40.5 -45.5t-54.5 -28.5t-65.5 -10q-67 0 -102 35t-24 98q5 30 18.5 57t31.5 51l132 174q5 5 11 5h79zM172 -18q-31 0 -49.5 -17t-23.5 -44q-9 -56 49 -56q29 0 47.5 15
t23.5 45q9 57 -47 57z" />
    <glyph glyph-name="uni2087" unicode="&#x2087;" horiz-adv-x="314" 
d="M46 116q-11 0 -8 10l10 64q2 10 12 10h259q11 0 9 -10l-5 -31q0 -2 -2 -4l-194 -359q-4 -6 -10 -6h-81q-16 0 -6 14l182 312h-166z" />
    <glyph glyph-name="uni2088" unicode="&#x2088;" horiz-adv-x="343" 
d="M206 210q66 0 96.5 -29.5t22.5 -79.5q-5 -31 -25 -59t-55 -41q38 -14 51.5 -42.5t7.5 -63.5q-9 -53 -52 -84t-118 -31t-107.5 31t-24.5 83q6 35 29.5 64t65.5 43q-30 13 -41 41t-6 59q8 50 49 79.5t107 29.5zM192 130q-47 0 -54 -43q-4 -23 6 -35.5t33 -12.5t37.5 12.5
t18.5 35.5q7 43 -41 43zM165 -35q-30 0 -46 -14.5t-20 -38.5q-4 -22 7 -35.5t42 -13.5t46 13.5t19 35.5q5 24 -6.5 38.5t-41.5 14.5z" />
    <glyph glyph-name="uni2089" unicode="&#x2089;" horiz-adv-x="345" 
d="M67 -210q-18 0 -7 16l114 138q-19 -8 -42 -8q-26 0 -47.5 9t-35 26t-19 41t-0.5 54q5 33 21.5 60t40.5 45.5t55 28.5t65 10q67 0 102 -35.5t24 -98.5q-5 -29 -18.5 -56.5t-31.5 -50.5l-132 -174q-5 -5 -11 -5h-78zM170 8q31 0 49.5 17t23.5 44q9 56 -49 56
q-29 0 -47.5 -15t-23.5 -45q-9 -57 47 -57z" />
    <glyph glyph-name="Euro" unicode="&#x20ac;" horiz-adv-x="586" 
d="M102 374q-10 0 -8 10l10 60q2 11 12 11h55q33 120 104 182.5t177 62.5q68 0 119.5 -28.5t76.5 -84.5q4 -9 -5 -14l-73 -42q-10 -6 -14 4q-17 35 -44.5 49.5t-62.5 14.5q-57 0 -98 -33t-61 -111h229q14 0 8 -14l-29 -60q-2 -7 -10 -7h-386zM79 233q-10 0 -8 11l10 60
q2 10 11 10h366q13 0 8 -13l-28 -60q-3 -8 -11 -8h-173q-4 -75 26 -109.5t84 -34.5q35 0 66.5 16.5t60.5 53.5q7 10 15 5l62 -44q7 -6 1 -13q-81 -119 -217 -119q-103 0 -161 64t-55 181h-57z" />
    <glyph glyph-name="uni20BA" unicode="&#x20ba;" horiz-adv-x="694" 
d="M107 383q-14 -5 -12 9l9 55q2 7 9 9l101 34l33 200q2 10 12 10h95q10 0 8 -10l-26 -159l203 64q7 2 10 -1t2 -9l-9 -55q-2 -7 -10 -10zM79 294q2 7 8 9l425 137q14 5 12 -10l-9 -55q-2 -7 -9 -9l-210 -66l-31 -190q15 -2 32.5 -3.5t33.5 -1.5q47 0 89.5 13t77 42t60 75
t37.5 113q2 11 13 9l93 -11q10 -2 8 -11q-17 -92 -52.5 -157.5t-86.5 -107.5t-117 -61.5t-143 -19.5q-36 0 -82 7.5t-85 18.5q-7 4 -6 11l38 233l-94 -30q-13 -5 -11 9z" />
    <glyph glyph-name="uni20BD" unicode="&#x20bd;" horiz-adv-x="604" 
d="M213 690q2 10 12 10h226q117 0 170.5 -53.5t36.5 -156.5t-88.5 -158t-188.5 -55h-294q-11 0 -9 10l13 79q2 10 11 10h58zM280 376h107q70 0 103.5 25t43.5 85q10 59 -16.5 84.5t-96.5 25.5h-104zM62 189q2 11 11 11h369q11 0 9 -11l-11 -62q-2 -10 -12 -10h-191l-17 -107
q-2 -10 -12 -10h-100q-10 0 -8 10l17 107h-58q-10 0 -8 10z" />
    <glyph glyph-name="uni2113" unicode="&#x2113;" horiz-adv-x="487" 
d="M86 233q-10 0 -10 9v35q0 9 10 11q28 2 51 6q2 103 18.5 179.5t43.5 127t63 75.5t78 25q49 0 77 -33.5t28 -99.5q0 -109 -52 -186.5t-146 -115.5q2 -57 9 -94.5t20 -60t30.5 -32t38.5 -9.5q16 0 33 4.5t33 15.5q10 5 15 -5l23 -50q3 -8 -5 -13q-26 -18 -59.5 -26.5
t-64.5 -8.5q-46 0 -80 17t-56 49.5t-33.5 79t-13.5 105.5q-12 -2 -24.5 -3t-26.5 -2zM247 327q66 33 102.5 94.5t36.5 155.5q0 66 -45 66q-48 0 -70 -80t-24 -236z" />
    <glyph glyph-name="uni2116" unicode="&#x2116;" horiz-adv-x="1113" 
d="M743 700q10 0 8 -10l-114 -685q-2 -10 -12 -10h-28q-7 0 -12 6l-315 460l-75 -451q-2 -10 -12 -10h-99q-11 0 -9 10l114 685q2 10 12 10h27q7 0 11 -6l316 -460l76 451q2 10 12 10h100zM1031 701q35 0 62.5 -11.5t45.5 -32.5t25.5 -50t1.5 -63t-23 -63t-42.5 -50
t-56.5 -32.5t-66 -11.5q-34 0 -61.5 11.5t-45.5 32.5t-25.5 50t-1.5 63t23 63t42 50t56.5 32.5t65.5 11.5zM1017 619q-31 0 -55.5 -21t-29.5 -54t11.5 -54t48.5 -21t56 21t30 54q5 33 -12 54t-49 21zM802 233q-10 0 -8 10l11 64q2 10 11 10h301q11 0 9 -10l-10 -64
q-2 -10 -13 -10h-301z" />
    <glyph glyph-name="trademark" unicode="&#x2122;" horiz-adv-x="622" 
d="M358 700q10 0 8 -10l-7 -44q-2 -10 -12 -10h-61l-29 -176q-2 -10 -12 -10h-50q-10 0 -8 10l29 176h-61q-11 0 -8 10l7 44q2 10 12 10h192zM690 700q10 0 8 -10l-38 -230q-2 -10 -12 -10h-49q-10 0 -8 10l21 127l-77 -90q-5 -5 -12 -5t-9 5l-49 90l-21 -127
q-2 -10 -12 -10h-49q-11 0 -9 10l38 230q2 10 13 10h46q3 0 7 -4l59 -112l97 112q4 4 9 4h47z" />
    <glyph glyph-name="uni2126" unicode="&#x2126;" horiz-adv-x="816" 
d="M528 713q67 0 124 -21.5t95.5 -62.5t55.5 -100.5t5 -134.5q-8 -49 -28 -94t-47.5 -84t-60 -73t-67.5 -61l170 19q12 2 10 -11l-14 -80q-2 -10 -12 -10h-280q-9 0 -9 8l-3 29q-2 7 4 11q39 27 74 62.5t63.5 77.5t49 88.5t28.5 95.5q10 62 0.5 106.5t-34 73t-61 42.5
t-81.5 14t-86.5 -14t-75 -42.5t-58 -73t-34.5 -106.5q-8 -49 -3.5 -95.5t19 -88.5t37.5 -77.5t53 -62.5q5 -3 1 -11l-13 -29q-3 -8 -11 -8h-281q-10 0 -8 10l13 80q2 13 13 11l164 -19q-25 27 -47 61t-36 73t-19 84t3 94q12 75 49 134.5t89.5 100.5t117 62.5t131.5 21.5z
" />
    <glyph glyph-name="estimated" unicode="&#x212e;" horiz-adv-x="747" 
d="M750 301q0 -7 -4 -12.5t-9 -5.5h-521v-170q18 -20 42.5 -36t53 -27.5t59 -18t60.5 -6.5q32 0 65.5 7.5t65 21.5t59 33t46.5 43q7 9 15 2l8 -7q7 -5 1 -13q-47 -51 -115 -81.5t-147 -30.5q-70 0 -130 24t-103.5 65t-68 97t-24.5 119q0 64 24.5 119.5t68 97t103 65.5
t128.5 24q71 0 130 -25t102 -67.5t67 -98.5t24 -119zM633 501q-35 37 -89 59.5t-114 22.5q-31 0 -62.5 -6.5t-59.5 -17.5t-51.5 -26.5t-40.5 -32.5v-189h417v190z" />
    <glyph glyph-name="arrowleft" unicode="&#x2190;" horiz-adv-x="858" 
d="M824 232q0 -11 -10 -11h-500l231 -230q5 -5 2 -9.5t-9 -4.5h-130q-4 0 -7 3l-278 290q-7 7 0 14l278 290q3 3 7 3h130q6 0 9 -4.5t-2 -9.5l-231 -230h500q10 0 10 -10v-91z" />
    <glyph glyph-name="arrowup" unicode="&#x2191;" horiz-adv-x="767" 
d="M740 428q3 -3 3 -7v-130q0 -5 -5 -7.5t-9 1.5l-230 231v-507q0 -10 -10 -10h-91q-10 0 -10 10v507l-231 -231q-4 -4 -9 -1.5t-5 7.5v130q0 4 3 7l290 279q7 7 14 0z" />
    <glyph glyph-name="arrowright" unicode="&#x2192;" horiz-adv-x="858" 
d="M550 -20q-3 -3 -7 -3h-130q-5 0 -8 5t1 9l232 230h-500q-11 0 -11 11v91q0 10 11 10h500l-232 230q-4 4 -1 9t8 5h130q4 0 7 -3l279 -290q7 -7 0 -14z" />
    <glyph glyph-name="arrowdown" unicode="&#x2193;" horiz-adv-x="768" 
d="M487 701q11 0 11 -10v-506l230 231q5 5 9.5 2.5t4.5 -8.5v-130q0 -4 -3 -7l-290 -279q-7 -7 -14 0l-290 279q-3 3 -3 7v130q0 6 4.5 8.5t9.5 -2.5l230 -231v506q0 10 10 10h91z" />
    <glyph glyph-name="arrowboth" unicode="&#x2194;" horiz-adv-x="1184" 
d="M1155 283q7 -7 0 -14l-275 -291q-3 -3 -7 -3h-129q-5 0 -7.5 5t1.5 9l227 231h-653l228 -231q4 -5 1.5 -9.5t-8.5 -4.5h-128q-5 0 -8 3l-275 291q-7 7 0 14l275 291q5 3 8 3h128q6 0 8.5 -4.5t-1.5 -9.5l-228 -231h653l-227 231q-4 4 -1 9t8 5h128q4 0 7 -3z" />
    <glyph glyph-name="arrowupdn" unicode="&#x2195;" horiz-adv-x="862" 
d="M482 819q7 7 14 0l291 -275q3 -3 3 -7v-128q0 -5 -5 -8t-9 1l-231 228v-568l231 228q5 5 9.5 2t4.5 -9v-128q0 -4 -3 -7l-291 -275q-7 -7 -14 0l-291 275q-3 3 -3 7v128q0 6 4.5 9t9.5 -2l231 -228v568l-231 -228q-4 -4 -9 -1t-5 8v128q0 4 3 8z" />
    <glyph glyph-name="uni2196" unicode="&#x2196;" horiz-adv-x="783" 
d="M197 591q0 10 10 10l402 8q4 0 7 -3l92 -92q4 -4 2.5 -9t-7.5 -5l-327 1l354 -354q7 -7 0 -14l-65 -65q-7 -7 -14 0l-354 354l2 -326q0 -5 -5.5 -7.5t-9.5 1.5l-92 92q-3 3 -3 7z" />
    <glyph glyph-name="uni2197" unicode="&#x2197;" horiz-adv-x="746" 
d="M662 601q10 0 10 -10l8 -402q0 -4 -4 -7l-91 -92q-4 -4 -9.5 -1.5t-5.5 7.5l1 326l-354 -354q-7 -7 -14 0l-65 65q-7 7 0 14l354 354l-327 -1q-5 0 -6 5.5t2 8.5l91 92q5 3 8 3z" />
    <glyph glyph-name="uni2198" unicode="&#x2198;" horiz-adv-x="783" 
d="M231 607q7 7 14 0l354 -354l-1 326q0 5 5 7.5t9 -1.5l92 -92q3 -3 3 -7l-8 -402q0 -10 -10 -10l-402 -8q-4 0 -7 3l-92 92q-3 3 -2 8.5t6 5.5l328 -1l-354 354q-7 7 0 14z" />
    <glyph glyph-name="uni2199" unicode="&#x2199;" horiz-adv-x="746" 
d="M197 74q-10 0 -10 10l-8 402q0 4 4 7l91 92q4 4 9.5 1.5t5.5 -7.5l-1 -326l353 354q8 7 15 0l65 -65q7 -7 -1 -14l-353 -354l327 1q6 0 7 -5t-3 -9l-91 -92q-4 -3 -8 -3z" />
    <glyph glyph-name="partialdiff" unicode="&#x2202;" horiz-adv-x="594" 
d="M353 430q48 0 89.5 -17t64.5 -48q10 33 15 62q8 47 7.5 83t-12 60.5t-35.5 37t-64 12.5q-24 0 -53.5 -7t-61.5 -23q-11 -5 -14 6l-25 66q-3 8 7 12q44 22 88 30.5t85 8.5q58 0 98.5 -21.5t63.5 -60t28 -92.5t-8 -120q-16 -80 -48 -157.5t-81 -138.5t-115 -98.5
t-150 -37.5q-44 0 -77 16t-54 43.5t-29 64.5t-2 80q8 54 33 98t63 75.5t86 48.5t101 17zM346 339q-35 0 -64.5 -11t-52 -30.5t-36.5 -47t-18 -60.5q-7 -54 16.5 -80t65.5 -26q35 0 66 15t58 39.5t49.5 57t38.5 67.5q-13 32 -44 54t-79 22z" />
    <glyph glyph-name="uni2206" unicode="&#x2206;" horiz-adv-x="666" 
d="M427 695q3 6 11 6h31q7 0 9 -6l158 -681q2 -14 -13 -14h-580q-16 0 -7 14zM202 106h306l-82 398z" />
    <glyph glyph-name="product" unicode="&#x220f;" horiz-adv-x="665" 
d="M699 700q11 0 9 -10l-138 -826q-2 -10 -12 -10h-95q-11 0 -9 10l122 728h-288l-121 -728q-2 -10 -12 -10h-95q-11 0 -9 10l137 826q2 10 13 10h498z" />
    <glyph glyph-name="summation" unicode="&#x2211;" horiz-adv-x="655" 
d="M699 602q-2 -11 -11 -11h-359l166 -283q5 -8 3 -17l-5 -26q-1 -7 -7 -16l-257 -284h357q10 0 8 -10l-15 -88q-2 -10 -11 -10h-523q-12 0 -10 10l3 27q1 6 5.5 16t11.5 18l323 362l-208 354q-5 8 -3 20l4 26q2 10 12 10h523q11 0 9 -10z" />
    <glyph glyph-name="minus" unicode="&#x2212;" horiz-adv-x="598" 
d="M588 234q-3 -10 -13 -10h-478q-10 0 -8 10l13 78q2 10 11 10h478q12 0 10 -10z" />
    <glyph glyph-name="radical" unicode="&#x221a;" horiz-adv-x="680" 
d="M76 251q-3 10 7 15l88 29q10 3 13 -4l91 -298l390 775q4 7 10 7h92q6 0 8.5 -3.5t-0.5 -9.5l-490 -955q-3 -7 -10 -7h-32q-6 0 -9 5z" />
    <glyph glyph-name="infinity" unicode="&#x221e;" horiz-adv-x="809" 
d="M305 489q65 0 109.5 -32t69.5 -75q41 42 83.5 68.5t98.5 26.5q38 0 67.5 -13t49 -35.5t27 -54t1.5 -69.5q-6 -37 -21.5 -67.5t-40 -53t-57 -35t-73.5 -12.5q-63 0 -102 26.5t-64 63.5q-38 -43 -86 -73t-108 -30q-40 0 -72 14t-52.5 39t-29.5 58t-5 70q5 40 22 73.5
t43.5 58t62 38.5t77.5 14zM305 394q-38 0 -63.5 -24.5t-30.5 -62.5q-4 -36 11.5 -60.5t57.5 -24.5q29 0 59 18.5t71 62.5q-28 55 -52 73t-53 18zM526 308q19 -33 40 -54t55 -21q30 0 52 19.5t28 57.5q6 33 -6.5 52.5t-44.5 19.5q-35 0 -64 -21t-60 -53z" />
    <glyph glyph-name="integral" unicode="&#x222b;" horiz-adv-x="303" 
d="M396 736q-2 -10 -11 -10q-51 -2 -74.5 -26t-29.5 -80l-62 -634q-8 -87 -64.5 -136t-148.5 -50q-10 0 -8 10l8 54q2 10 13 10q44 3 70.5 28t31.5 72l65 644q10 90 63.5 136t147.5 46q11 0 9 -10z" />
    <glyph glyph-name="approxequal" unicode="&#x2248;" horiz-adv-x="589" 
d="M605 442q9 -2 8 -9q-7 -34 -20 -62.5t-33 -49.5t-46.5 -33t-60.5 -12q-44 0 -71 17.5t-49 37.5q-19 17 -36.5 28.5t-39.5 11.5q-27 0 -41.5 -19t-22.5 -54q-2 -12 -13 -10l-72 12q-8 2 -7 10q7 33 20 62t33 50t46.5 33t59.5 12q44 0 72 -18t54 -42q14 -13 31 -24.5
t40 -11.5q27 0 41 19t22 54q4 12 14 11zM566 207q8 -1 7 -10q-7 -33 -20 -62t-32.5 -50t-46 -33t-60.5 -12q-22 0 -39.5 5t-31.5 12.5t-26.5 17.5t-23.5 20q-19 17 -36 29t-39 12q-27 0 -41.5 -19t-22.5 -54q-2 -13 -14 -11l-71 13q-9 1 -7 9q7 33 20 62t33 50t46.5 33
t59.5 12q22 0 39.5 -5t32.5 -13t28 -19t26 -23q14 -13 31 -24t40 -11q27 0 41 19t22 54q2 12 14 10z" />
    <glyph glyph-name="notequal" unicode="&#x2260;" horiz-adv-x="594" 
d="M601 340q-2 -10 -12 -10h-158l-83 -121h220q11 0 9 -10l-12 -76q-2 -10 -13 -10h-267l-84 -126q-3 -6 -10 -6h-70q-16 0 -6 16l78 116h-115q-10 0 -8 10l13 76q2 10 11 10h162l82 121h-223q-10 0 -8 10l12 75q2 11 12 11h270l84 124q3 5 9 5h70q17 0 7 -15l-77 -114h111
q10 0 8 -11z" />
    <glyph glyph-name="lessequal" unicode="&#x2264;" horiz-adv-x="590" 
d="M562 131q-3 -15 -16 -9l-436 202q-7 3 -5 10l5 31q2 7 8 10l505 206q16 7 12 -9l-15 -89q0 -6 -7 -10l-326 -122l285 -121q5 -2 5 -11zM547 100q10 0 8 -10l-13 -82q-2 -11 -12 -11h-465q-11 0 -9 11l13 82q2 10 13 10h465z" />
    <glyph glyph-name="greaterequal" unicode="&#x2265;" horiz-adv-x="589" 
d="M84 122q-6 -3 -10 -0.5t-2 9.5l14 88q0 7 8 11l325 121l-284 122q-5 3 -5 10l15 89q4 16 16 9l436 -206q6 -3 4 -10l-5 -31q-2 -8 -8 -10zM64 90q2 10 13 10h465q10 0 8 -10l-13 -82q-2 -11 -12 -11h-465q-11 0 -9 11z" />
    <glyph glyph-name="house" unicode="&#x2302;" horiz-adv-x="822" 
d="M443 695q6 6 12 0l291 -242q4 -3 4 -8v-435q0 -10 -10 -10h-582q-11 0 -11 10v435q0 4 4 8zM224 419v-344h449v344l-224 183z" />
    <glyph glyph-name="uni2460" unicode="&#x2460;" horiz-adv-x="1132" 
d="M625 838q105 0 194 -36t153.5 -100.5t101 -153.5t36.5 -196q0 -106 -36.5 -195.5t-101 -154t-153.5 -100.5t-194 -36t-194 36t-153.5 100.5t-101 154t-36.5 195.5q0 107 36.5 196t101 153.5t153.5 100.5t194 36zM625 755q-90 0 -163.5 -30t-125.5 -84t-80 -128t-28 -161
t28 -161t80 -128t125.5 -84.5t163.5 -30.5q91 0 164.5 30.5t125 84.5t79.5 128t28 161t-28 161t-79.5 128t-125 84t-164.5 30zM675 613q10 0 10 -11v-529q0 -10 -10 -10h-85q-11 0 -11 10v426l-100 -29q-10 -3 -13 7l-20 72q-3 10 7 13l185 50q2 0 2 1h2h33z" />
    <glyph glyph-name="uni2461" unicode="&#x2461;" horiz-adv-x="1132" 
d="M625 838q105 0 194 -36t153.5 -100.5t101 -153.5t36.5 -196q0 -106 -36.5 -195.5t-101 -154t-153.5 -100.5t-194 -36t-194 36t-153.5 100.5t-101 154t-36.5 195.5q0 107 36.5 196t101 153.5t153.5 100.5t194 36zM625 755q-90 0 -163.5 -30t-125.5 -84t-80 -128t-28 -161
t28 -161t80 -128t125.5 -84.5t163.5 -30.5q91 0 164.5 30.5t125 84.5t79.5 128t28 161t-28 161t-79.5 128t-125 84t-164.5 30zM514 468q-2 -4 -6 -5.5t-8 0.5l-71 26q-9 5 -6 13q25 66 77.5 102.5t126.5 36.5q83 0 130.5 -41.5t47.5 -114.5q0 -22 -4.5 -42t-16 -42t-30 -46
t-45.5 -53l-111 -118h196q11 0 11 -11v-81q0 -11 -11 -11h-358q-10 0 -10 11v30q0 4 3 7l202 228q34 39 49 66t15 57q0 64 -75 64t-106 -76z" />
    <glyph glyph-name="uni2462" unicode="&#x2462;" horiz-adv-x="1132" 
d="M625 838q105 0 194 -36t153.5 -100.5t101 -153.5t36.5 -196q0 -106 -36.5 -195.5t-101 -154t-153.5 -100.5t-194 -36t-194 36t-153.5 100.5t-101 154t-36.5 195.5q0 107 36.5 196t101 153.5t153.5 100.5t194 36zM625 755q-90 0 -163.5 -30t-125.5 -84t-80 -128t-28 -161
t28 -161t80 -128t125.5 -84.5t163.5 -30.5q91 0 164.5 30.5t125 84.5t79.5 128t28 161t-28 161t-79.5 128t-125 84t-164.5 30zM558 308q-10 0 -10 10v68q0 10 10 10h43q38 0 66 18t28 58q0 32 -20 48t-55 16q-42 0 -68 -20t-40 -55q-3 -10 -14 -7l-71 26q-10 3 -7 12
q23 68 77 104t133 36q86 0 132 -39t46 -103q0 -49 -26.5 -84t-68.5 -49q53 -14 79 -49t26 -83q0 -35 -14 -65t-39.5 -51.5t-62.5 -34t-82 -12.5q-76 0 -129 35.5t-76 103.5q-3 9 6 13l73 28q9 5 13 -6q14 -38 41 -58t70 -20t65.5 19.5t22.5 54.5q0 76 -105 76h-43z" />
    <glyph glyph-name="uni2463" unicode="&#x2463;" horiz-adv-x="1132" 
d="M625 838q105 0 194 -36t153.5 -100.5t101 -153.5t36.5 -196q0 -106 -36.5 -195.5t-101 -154t-153.5 -100.5t-194 -36t-194 36t-153.5 100.5t-101 154t-36.5 195.5q0 107 36.5 196t101 153.5t153.5 100.5t194 36zM625 755q-90 0 -163.5 -30t-125.5 -84t-80 -128t-28 -161
t28 -161t80 -128t125.5 -84.5t163.5 -30.5q91 0 164.5 30.5t125 84.5t79.5 128t28 161t-28 161t-79.5 128t-125 84t-164.5 30zM828 191q0 -10 -11 -10h-59v-92q0 -10 -10 -10h-85q-10 0 -10 10v92h-249q-11 0 -11 10v32q0 3 1 4l187 397q4 7 9 7h101q7 0 9.5 -4.5
t-1.5 -11.5l-171 -336h125v104q0 11 10 11h85q10 0 10 -11v-104h59q11 0 11 -10v-78z" />
    <glyph glyph-name="uni2464" unicode="&#x2464;" horiz-adv-x="1132" 
d="M625 838q105 0 194 -36t153.5 -100.5t101 -153.5t36.5 -196q0 -106 -36.5 -195.5t-101 -154t-153.5 -100.5t-194 -36t-194 36t-153.5 100.5t-101 154t-36.5 195.5q0 107 36.5 196t101 153.5t153.5 100.5t194 36zM625 755q-90 0 -163.5 -30t-125.5 -84t-80 -128t-28 -161
t28 -161t80 -128t125.5 -84.5t163.5 -30.5q91 0 164.5 30.5t125 84.5t79.5 128t28 161t-28 161t-79.5 128t-125 84t-164.5 30zM784 529q0 -10 -10 -10h-212l-7 -101h59q41 0 78 -9.5t65 -30t44 -53t16 -78.5q0 -39 -12.5 -72.5t-37.5 -59t-60.5 -40t-82.5 -14.5
q-71 0 -123.5 33.5t-75.5 105.5q-4 9 6 13l70 27q11 3 14 -7q26 -74 107 -74q84 0 84 81q0 41 -23 62.5t-78 21.5h-151q-12 0 -10 11l22 281q2 10 10 10h298q10 0 10 -11v-86z" />
    <glyph glyph-name="uni2465" unicode="&#x2465;" horiz-adv-x="1132" 
d="M625 838q105 0 194 -36t153.5 -100.5t101 -153.5t36.5 -196q0 -106 -36.5 -195.5t-101 -154t-153.5 -100.5t-194 -36t-194 36t-153.5 100.5t-101 154t-36.5 195.5q0 107 36.5 196t101 153.5t153.5 100.5t194 36zM625 755q-90 0 -163.5 -30t-125.5 -84t-80 -128t-28 -161
t28 -161t80 -128t125.5 -84.5t163.5 -30.5q91 0 164.5 30.5t125 84.5t79.5 128t28 161t-28 161t-79.5 128t-125 84t-164.5 30zM712 629q19 0 9 -17l-127 -191q25 11 60 11t65.5 -12t53 -34.5t35 -54.5t12.5 -73q0 -44 -15 -79t-42.5 -59.5t-65.5 -37.5t-84 -13
q-88 0 -140.5 46.5t-52.5 130.5q0 39 11 75.5t31 68.5l141 233q3 6 10 6h99zM626 343q-47 0 -70.5 -24.5t-23.5 -66.5q0 -82 86 -82q43 0 67 22.5t24 67.5q0 83 -83 83z" />
    <glyph glyph-name="uni2466" unicode="&#x2466;" horiz-adv-x="1132" 
d="M625 838q105 0 194 -36t153.5 -100.5t101 -153.5t36.5 -196q0 -106 -36.5 -195.5t-101 -154t-153.5 -100.5t-194 -36t-194 36t-153.5 100.5t-101 154t-36.5 195.5q0 107 36.5 196t101 153.5t153.5 100.5t194 36zM625 755q-90 0 -163.5 -30t-125.5 -84t-80 -128t-28 -161
t28 -161t80 -128t125.5 -84.5t163.5 -30.5q91 0 164.5 30.5t125 84.5t79.5 128t28 161t-28 161t-79.5 128t-125 84t-164.5 30zM449 491q-11 0 -11 10v84q0 10 11 10h348q10 0 10 -10v-27q0 -9 -2 -13l-187 -493q-2 -7 -9 -7h-97q-7 0 -9.5 4.5t0.5 10.5l180 431h-234z" />
    <glyph glyph-name="uni2467" unicode="&#x2467;" horiz-adv-x="1132" 
d="M625 838q105 0 194 -36t153.5 -100.5t101 -153.5t36.5 -196q0 -106 -36.5 -195.5t-101 -154t-153.5 -100.5t-194 -36t-194 36t-153.5 100.5t-101 154t-36.5 195.5q0 107 36.5 196t101 153.5t153.5 100.5t194 36zM625 755q-90 0 -163.5 -30t-125.5 -84t-80 -128t-28 -161
t28 -161t80 -128t125.5 -84.5t163.5 -30.5q91 0 164.5 30.5t125 84.5t79.5 128t28 161t-28 161t-79.5 128t-125 84t-164.5 30zM621 632q87 0 133 -40.5t46 -105.5q0 -42 -21 -78.5t-66 -52.5q54 -17 79 -55t25 -85q0 -69 -50 -111t-146 -42q-97 0 -147.5 42t-50.5 111
q0 47 25.5 85t80.5 55q-45 16 -67 52.5t-22 78.5q0 65 46.5 105.5t134.5 40.5zM621 536q-35 0 -53.5 -15t-18.5 -50t18.5 -52t53.5 -17q33 0 52 17t19 52t-18.5 50t-52.5 15zM621 310q-86 0 -86 -75q0 -35 20 -54t66 -19q45 0 64.5 19t19.5 54q0 75 -84 75z" />
    <glyph glyph-name="uni2468" unicode="&#x2468;" horiz-adv-x="1132" 
d="M625 838q105 0 194 -36t153.5 -100.5t101 -153.5t36.5 -196q0 -106 -36.5 -195.5t-101 -154t-153.5 -100.5t-194 -36t-194 36t-153.5 100.5t-101 154t-36.5 195.5q0 107 36.5 196t101 153.5t153.5 100.5t194 36zM625 755q-90 0 -163.5 -30t-125.5 -84t-80 -128t-28 -161
t28 -161t80 -128t125.5 -84.5t163.5 -30.5q91 0 164.5 30.5t125 84.5t79.5 128t28 161t-28 161t-79.5 128t-125 84t-164.5 30zM530 63q-8 0 -10.5 4t2.5 11l125 192q-23 -10 -59 -10q-35 0 -65.5 12t-53 34.5t-35 55t-12.5 72.5q0 44 14.5 78.5t41.5 59.5t64.5 38t82.5 13
q89 0 143 -46.5t54 -130.5q0 -39 -12 -75.5t-30 -67.5l-141 -235q-3 -5 -9 -5h-100zM615 348q48 0 71 25t23 67q0 82 -85 82q-43 0 -68 -23t-25 -68q0 -42 22 -62.5t62 -20.5z" />
    <glyph glyph-name="uni24D5" unicode="&#x24d5;" horiz-adv-x="883" 
d="M501 737q83 0 154 -28t123 -78.5t81 -122t29 -158.5t-29 -158.5t-81 -122t-123 -78.5t-154 -28q-84 0 -155 28t-122.5 78.5t-81 122t-29.5 158.5t29.5 158.5t81 122t122.5 78.5t155 28zM501 672q-71 0 -129.5 -23.5t-100.5 -66t-65 -101.5t-23 -131t23 -131t65 -101.5
t100.5 -66t129.5 -23.5t129 23.5t100 66t65 101.5t23 131t-23 131t-65 101.5t-100 66t-129 23.5zM594 346q0 -11 -10 -11h-73v-192q0 -11 -10 -11h-60q-10 0 -10 11v192h-49q-11 0 -11 11v49q0 11 11 11h49v24q0 60 30.5 96.5t85.5 36.5q49 0 97 -22q9 -5 5 -14l-20 -40
q-5 -8 -15 -5q-13 6 -26 9.5t-27 3.5q-29 0 -39.5 -20t-10.5 -49v-20h73q10 0 10 -11v-49z" />
    <glyph glyph-name="uni24E3" unicode="&#x24e3;" horiz-adv-x="883" 
d="M501 737q83 0 154 -28t123 -78.5t81 -122t29 -158.5t-29 -158.5t-81 -122t-123 -78.5t-154 -28q-84 0 -155 28t-122.5 78.5t-81 122t-29.5 158.5t29.5 158.5t81 122t122.5 78.5t155 28zM501 672q-71 0 -129.5 -23.5t-100.5 -66t-65 -101.5t-23 -131t23 -131t65 -101.5
t100.5 -66t129.5 -23.5t129 23.5t100 66t65 101.5t23 131t-23 131t-65 101.5t-100 66t-129 23.5zM503 521q11 0 11 -10v-58h84q11 0 11 -10l-1 -50q0 -10 -10 -10h-84v-101q0 -26 8 -35.5t32 -9.5q11 0 22.5 3.5t22.5 8.5q11 6 16 -4l20 -43q4 -9 -5 -13q-20 -11 -45.5 -18
t-51.5 -7q-51 0 -75.5 29t-24.5 77v113h-48q-10 0 -10 10v50q0 10 10 10h59l26 62q2 6 9 6h24z" />
    <glyph glyph-name="uni24EA" unicode="&#x24ea;" horiz-adv-x="1132" 
d="M625 838q105 0 194 -36t153.5 -100.5t101 -153.5t36.5 -196q0 -106 -36.5 -195.5t-101 -154t-153.5 -100.5t-194 -36t-194 36t-153.5 100.5t-101 154t-36.5 195.5q0 107 36.5 196t101 153.5t153.5 100.5t194 36zM625 755q-90 0 -163.5 -30t-125.5 -84t-80 -128t-28 -161
t28 -161t80 -128t125.5 -84.5t163.5 -30.5q91 0 164.5 30.5t125 84.5t79.5 128t28 161t-28 161t-79.5 128t-125 84t-164.5 30zM620 632q54 0 94.5 -20t67.5 -56.5t40.5 -88.5t13.5 -117q0 -66 -13.5 -119t-40.5 -90.5t-67.5 -58t-94.5 -20.5t-94 20.5t-67 58t-40.5 90.5
t-13.5 119q0 65 13 117t40 88.5t67.5 56.5t94.5 20zM620 528q-26 0 -45 -9.5t-31.5 -30.5t-18.5 -55t-6 -83q0 -99 25 -141.5t76 -42.5t76 42.5t25 141.5q0 49 -6 83t-18.5 55t-31.5 30.5t-45 9.5z" />
    <glyph glyph-name="uni24FF" unicode="&#x24ff;" horiz-adv-x="1132" 
d="M625 838q106 0 195 -35.5t153 -99.5t100 -153.5t36 -197.5t-36 -197t-100 -153.5t-153 -100t-195 -35.5t-195.5 35.5t-153.5 100t-100 153.5t-36 197t36 197.5t100 153.5t153.5 99.5t195.5 35.5zM625 637q-54 0 -94.5 -20t-67.5 -56.5t-40.5 -88.5t-13.5 -117
q0 -66 13.5 -119t40.5 -90.5t67.5 -58t94.5 -20.5t94 20.5t67 58t40.5 90.5t13.5 119q0 65 -13.5 117t-40 88.5t-67 56.5t-94.5 20zM625 533q26 0 44.5 -9.5t31.5 -30.5t19 -55t6 -83q0 -99 -25 -141.5t-76 -42.5t-76.5 42.5t-25.5 141.5q0 49 6 83t19 55t32 30.5t45 9.5z
" />
    <glyph glyph-name="filledbox" unicode="&#x25a0;" horiz-adv-x="1217" 
d="M217 -106q-11 0 -11 10v892q0 10 11 10h900q10 0 10 -10v-892q0 -10 -10 -10h-900z" />
    <glyph glyph-name="uni25A1" unicode="&#x25a1;" horiz-adv-x="1217" 
d="M217 -106q-11 0 -11 10v892q0 10 11 10h900q10 0 10 -10v-892q0 -10 -10 -10h-900zM1039 -22v744h-744v-744h744z" />
    <glyph glyph-name="uni25AA" unicode="&#x25aa;" horiz-adv-x="641" 
d="M261 222q-10 0 -10 10v236q0 10 10 10h236q10 0 10 -10v-236q0 -10 -10 -10h-236z" />
    <glyph glyph-name="triagup" unicode="&#x25b2;" horiz-adv-x="800" 
d="M97 50q-17 0 -9 15l303 568q4 8 9 8t9 -8l303 -568q8 -15 -9 -15h-606z" />
    <glyph glyph-name="uni25B6" unicode="&#x25b6;" horiz-adv-x="780" 
d="M115 43q-15 -8 -15 9v606q0 17 15 9l568 -303q8 -4 8 -9t-8 -9z" />
    <glyph glyph-name="triagdn" unicode="&#x25bc;" horiz-adv-x="800" 
d="M703 630q17 0 9 -15l-303 -568q-4 -8 -9 -8t-9 8l-303 568q-8 15 9 15h606z" />
    <glyph glyph-name="uni25C0" unicode="&#x25c0;" horiz-adv-x="780" 
d="M680 52q0 -17 -15 -9l-568 303q-8 4 -8 9t8 9l568 303q15 8 15 -9v-606z" />
    <glyph glyph-name="lozenge" unicode="&#x25ca;" horiz-adv-x="591" 
d="M610 352q2 -6 -1 -11l-275 -357q-5 -5 -10 -5h-69q-6 0 -8 5l-149 357q-2 7 1 12l277 363q5 5 10 5h69q6 0 8 -5zM409 627l-213 -286l106 -272l210 287z" />
    <glyph glyph-name="circle" unicode="&#x25cb;" horiz-adv-x="1081" 
d="M599 838q105 0 194 -36t153.5 -100.5t101 -153.5t36.5 -196q0 -106 -36.5 -195.5t-101 -154t-153.5 -100.5t-194 -36t-194 36t-153.5 100.5t-101 154t-36.5 195.5q0 107 36.5 196t101 153.5t153.5 100.5t194 36zM599 755q-90 0 -163.5 -30t-125.5 -84t-80 -128t-28 -161
t28 -161t80 -128t125.5 -84.5t163.5 -30.5q91 0 164.5 30.5t125 84.5t79.5 128t28 161t-28 161t-79.5 128t-125 84t-164.5 30z" />
    <glyph glyph-name="uni25CF" unicode="&#x25cf;" horiz-adv-x="1081" 
d="M599 838q105 0 194 -36t153.5 -100.5t101 -153.5t36.5 -196q0 -106 -36.5 -195.5t-101 -154t-153.5 -100.5t-194 -36t-194 36t-153.5 100.5t-101 154t-36.5 195.5q0 107 36.5 196t101 153.5t153.5 100.5t194 36z" />
    <glyph glyph-name="uni2605" unicode="&#x2605;" horiz-adv-x="977" 
d="M478 722q4 14 9 14q6 0 10 -14l86 -264h283q30 0 6 -19l-228 -169l84 -269q5 -18 -4 -18q-4 0 -13 6l-224 169l-221 -168q-8 -7 -14 -7q-7 0 -3 18l84 269l-228 169q-24 19 6 19h284z" />
    <glyph glyph-name="uni2606" unicode="&#x2606;" horiz-adv-x="1069" 
d="M524 798q4 14 10 14t10 -14l96 -296h318q28 0 6 -19l-256 -190l93 -302q5 -14 0 -17t-16 5l-251 190l-250 -190q-9 -6 -14 -6q-7 0 -3 18l94 302l-256 190q-24 19 6 19h318zM473 438h-200l163 -121l-58 -185l156 117l156 -117l-57 185l162 121h-199l-62 201z" />
    <glyph glyph-name="uni261C" unicode="&#x261c;" horiz-adv-x="1163" 
d="M1111 397h-252q-17 35 -40.5 58t-51 37t-57.5 20t-61 6q-24 0 -48 -3l-177 -22q-17 -3 -26 -8.5t-8 -17.5q1 -37 87 -37q29 0 61.5 3.5t68.5 11.5q10 -15 21 -30.5t27.5 -30.5t41 -28.5t61.5 -24.5l-14 -36q-35 11 -61 23t-47 32q-3 -20 -18 -33q20 -5 31.5 -15t16.5 -31
q5 -20 -5.5 -40t-30.5 -31q14 -4 25 -13t14 -27q5 -23 -7.5 -40.5t-35.5 -22.5l-5 -1q11 -2 23 -3t24 -1q56 0 110 21t92 57h241v-41h-226q-56 -38 -116 -56.5t-120 -18.5q-68 0 -128 21l-25 -5q-29 -7 -53 4t-29 35q-4 16 0.5 28t11.5 20q-29 0 -47.5 14.5t-23.5 37.5
q-3 16 3 33.5t19 25.5q-23 2 -37 15.5t-19 31.5q-2 14 0.5 30t16.5 27l-137 -13q-38 -4 -59.5 14.5t-21.5 46.5q0 27 19.5 44t58.5 21l151 15q6 10 18 18t32 10l202 28q23 3 47 3q34 0 68 -6.5t66 -21t59.5 -37t47.5 -55.5h222v-42zM212 446q-26 -3 -36 -8.5t-10 -17.5
q0 -13 12 -18t41 -3l169 13q-18 7 -30.5 18.5t-14.5 29.5zM414 367q-29 -5 -45 -14.5t-13 -29.5q2 -13 12.5 -18t27.5 -5q15 0 33 3l131 22q24 4 34 12.5t8 25.5q-2 13 -14.5 21t-44.5 2zM629 261q-3 20 -18.5 25t-47.5 0l-126 -23q-24 -5 -36.5 -17.5t-10.5 -28.5
q3 -15 16.5 -22t41.5 -2l134 23q30 5 40 16t7 29zM486 159q-23 -5 -31 -14.5t-5 -22.5q2 -12 14.5 -15t33.5 0l101 17q21 4 27.5 12.5t3.5 22.5q-2 13 -15 16.5t-34 -0.5z" />
    <glyph glyph-name="uni261D" unicode="&#x261d;" horiz-adv-x="648" 
d="M451 -209v249q41 20 66 49.5t38 64t16 72t-2 73.5l-23 176q-2 17 -8 26.5t-18 8.5q-36 -3 -36 -88q0 -29 3 -61t11 -69q-15 -10 -30.5 -21t-30.5 -27.5t-28.5 -41t-24.5 -60.5l-35 14q11 35 22.5 60.5t31.5 46.5q-9 2 -17 6t-16 12q-5 -20 -15 -31t-30 -16
q-19 -5 -39.5 5.5t-32.5 31.5q-4 -14 -12.5 -25.5t-26.5 -15.5q-23 -5 -41 7.5t-23 35.5l-1 6q-6 -33 -3.5 -67t12.5 -67t26.5 -62.5t38.5 -53.5v-238h-41v224q-30 43 -47.5 89t-24 93t-2 93t19.5 88l-5 25q-5 29 5 53t34 29q16 4 28.5 -0.5t20.5 -10.5q-1 29 13.5 48
t38.5 24q15 2 32.5 -4t25.5 -19q2 23 15.5 37t32.5 18q14 3 29.5 0t27.5 -17l-14 137q-4 39 15 60t47 21q27 0 44 -19t21 -58l15 -152q10 -6 17.5 -17.5t10.5 -32.5l27 -201q5 -38 2 -79t-16.5 -79.5t-38.5 -72t-63 -57.5v-220h-42zM499 688q-3 26 -8.5 35.5t-16.5 9.5
q-14 0 -19 -12t-3 -40l13 -169q7 17 19 30t30 15zM420 486q-5 28 -14.5 44.5t-29.5 12.5q-19 -3 -21.5 -23.5t2.5 -49.5l21 -130q5 -24 13 -34t26 -8q13 2 20.5 14t2.5 44zM315 270q20 4 24.5 19t-0.5 47l-22 126q-5 25 -17.5 37.5t-28.5 9.5t-22.5 -16t-1.5 -42l23 -134
q5 -29 15.5 -39.5t29.5 -7.5zM212 413q-5 24 -14.5 31.5t-22.5 5.5q-22 -5 -14 -48l17 -102q4 -20 12.5 -27t22.5 -4q12 2 15.5 15.5t-0.5 34.5z" />
    <glyph glyph-name="uni261E" unicode="&#x261e;" horiz-adv-x="1117" 
d="M345 439q20 33 47.5 55.5t59 37t65.5 21t68 6.5q24 0 48 -3l201 -28q20 -2 32.5 -10t17.5 -18l152 -15q39 -4 58 -21t19 -44q0 -28 -21 -46.5t-59 -14.5l-138 13q14 -11 16.5 -27t0.5 -30q-4 -18 -18.5 -31.5t-37.5 -15.5q14 -8 20 -25.5t3 -33.5q-5 -23 -23.5 -37.5
t-47.5 -14.5q6 -8 10.5 -20t0.5 -28q-6 -24 -29 -35t-53 -4l-25 5q-61 -21 -128 -21q-60 0 -120 18.5t-116 56.5h-226v41h241q39 -36 92.5 -57t109.5 -21q12 0 24 1t24 3l-6 1q-23 5 -35.5 22.5t-7.5 40.5q3 18 14.5 27t25.5 13q-20 11 -30.5 31t-5.5 40q5 21 16.5 31
t31.5 15q-16 15 -18 33q-22 -20 -47.5 -32t-60.5 -23l-14 36q36 11 60.5 24.5t41 28.5t27.5 30.5t21 30.5q36 -8 68.5 -11.5t61.5 -3.5q86 0 87 37q1 12 -8 17.5t-27 8.5l-176 22q-24 3 -47 3q-31 0 -61 -6t-58 -20t-51.5 -37t-40.5 -58h-252v42h223zM891 460
q-3 -18 -15.5 -29.5t-29.5 -18.5l169 -13q53 -3 53 21q0 12 -10 17.5t-37 8.5zM690 386q-32 6 -44 -2t-14 -21q-2 -17 8 -25.5t34 -12.5l131 -22q18 -3 32 -3q17 0 27 5t12 18q4 20 -12 29.5t-44 14.5zM604 261q-3 -18 7.5 -29t40.5 -16l134 -23q27 -5 40.5 2t16.5 22
q2 16 -10 28.5t-38 17.5l-125 23q-32 5 -47.5 0t-18.5 -25zM653 175q-46 8 -49 -16q-3 -14 3.5 -22.5t26.5 -12.5l102 -17q20 -3 33 0t15 15q3 13 -5.5 22.5t-31.5 14.5z" />
    <glyph glyph-name="uni261F" unicode="&#x261f;" horiz-adv-x="645" 
d="M494 560q39 -24 64 -58t38.5 -72.5t16.5 -79.5t-2 -79l-28 -201q-2 -20 -10 -32t-18 -18l-15 -152q-4 -39 -20.5 -58t-43.5 -19q-28 0 -47 21t-15 60l14 137q-12 -14 -28 -16.5t-29 -0.5q-19 4 -32.5 18.5t-15.5 37.5q-8 -13 -25.5 -19.5t-32.5 -3.5q-24 5 -38.5 23.5
t-14.5 47.5q-8 -6 -20 -10t-28 -1q-24 6 -34.5 29.5t-4.5 53.5l5 24q-30 86 -18 181.5t72 182.5v223h41v-238q-22 -23 -39 -52.5t-26.5 -62.5t-12 -67.5t3.5 -67.5l1 6q5 23 23 36t41 8q17 -4 26 -15.5t13 -25.5q12 20 32 31t39 6q21 -5 31 -16.5t15 -31.5q13 15 33 18
q-20 21 -31.5 47t-22.5 61l35 14q11 -37 24.5 -61.5t28.5 -41t30.5 -27.5t30.5 -21q-8 -36 -11 -68t-3 -61q0 -87 36 -88q22 0 26 35l23 176q5 36 2 73t-16 71.5t-38 64t-66 49.5v249h41v-219zM230 252q4 21 0.5 34t-15.5 15q-14 3 -22.5 -4t-12.5 -27l-17 -101
q-8 -44 14 -48q13 -3 22.5 5t14.5 31zM316 300q-19 3 -29 -7.5t-15 -39.5l-24 -134q-5 -28 2 -41.5t23 -16.5q15 -2 28 10t18 38l22 125q5 32 0 47.5t-25 18.5zM442 214q5 32 -2.5 44t-21.5 14q-17 2 -25.5 -7.5t-12.5 -33.5l-21 -131q-5 -29 -2.5 -49.5t21.5 -22.5
q20 -4 29.5 12t14.5 45zM516 13q-18 3 -30 15.5t-19 30.5l-13 -170q-2 -28 3 -40t18 -12q12 0 17.5 9.5t8.5 36.5z" />
    <glyph glyph-name="uni2630" unicode="&#x2630;" horiz-adv-x="884" 
d="M197 593q-11 0 -11 10v74q0 10 11 10h619q10 0 10 -10v-74q0 -10 -10 -10h-619zM197 337q-11 0 -11 10v74q0 10 11 10h619q10 0 10 -10v-74q0 -10 -10 -10h-619zM197 81q-11 0 -11 10v74q0 10 11 10h619q10 0 10 -10v-74q0 -10 -10 -10h-619z" />
    <glyph glyph-name="uni2639" unicode="&#x2639;" horiz-adv-x="868" 
d="M492 726q81 0 150.5 -29t121 -80.5t80.5 -121t29 -150.5t-29 -150.5t-80.5 -120.5t-121 -80.5t-150.5 -29.5t-150.5 29.5t-120.5 80.5t-80.5 120.5t-29.5 150.5t29.5 150.5t80.5 121t120.5 80.5t150.5 29zM492 662q-68 0 -125.5 -25t-99.5 -67.5t-66 -100.5t-24 -124
t24 -123.5t66 -100t99.5 -67.5t125.5 -25t125.5 25t99.5 67.5t66 100t24 123.5t-24 124t-66 100.5t-99.5 67.5t-125.5 25zM375 484q24 0 40 -16t16 -39t-16 -39t-40 -16q-23 0 -39 16t-16 39t16 39t39 16zM607 484q23 0 39.5 -16t16.5 -39t-16.5 -39t-39.5 -16t-39.5 16
t-16.5 39t16.5 39t39.5 16zM491 230q-60 0 -99 -25t-65 -57q-7 -9 -15 -2l-22 18q-7 7 -2 13q13 19 32.5 37.5t45 33.5t57 24t68.5 9q38 0 69.5 -9t57 -24t44.5 -33.5t32 -37.5q5 -6 -2 -13l-21 -18q-9 -6 -16 2q-25 32 -64.5 57t-99.5 25z" />
    <glyph glyph-name="smileface" unicode="&#x263a;" horiz-adv-x="868" 
d="M492 726q81 0 150.5 -29t121 -80.5t80.5 -121t29 -150.5t-29 -150.5t-80.5 -120.5t-121 -80.5t-150.5 -29.5t-150.5 29.5t-120.5 80.5t-80.5 120.5t-29.5 150.5t29.5 150.5t80.5 121t120.5 80.5t150.5 29zM492 662q-68 0 -125.5 -25t-99.5 -67.5t-66 -100.5t-24 -124
t24 -123.5t66 -100t99.5 -67.5t125.5 -25t125.5 25t99.5 67.5t66 100t24 123.5t-24 124t-66 100.5t-99.5 67.5t-125.5 25zM375 484q24 0 40 -16t16 -39t-16 -39t-40 -16q-23 0 -39 16t-16 39t16 39t39 16zM607 484q23 0 39.5 -16t16.5 -39t-16.5 -39t-39.5 -16t-39.5 16
t-16.5 39t16.5 39t39.5 16zM491 189q60 0 99.5 25t64.5 58q7 8 16 2l21 -18q7 -6 2 -14q-13 -19 -32 -37.5t-44.5 -33t-57 -23.5t-69.5 -9q-37 0 -68.5 9t-57 23.5t-45 33t-32.5 37.5q-4 8 2 14l22 18q8 7 15 -2q26 -33 65 -58t99 -25z" />
    <glyph glyph-name="invsmileface" unicode="&#x263b;" horiz-adv-x="860" 
d="M488 723q81 0 150 -29t119.5 -80t79 -120t28.5 -149q0 -79 -28.5 -148t-79 -120t-119.5 -80.5t-150 -29.5t-150 29.5t-119.5 80.5t-79 120t-28.5 148q0 80 28.5 149t79 120t119.5 80t150 29zM371 484q-23 0 -39 -16t-16 -39t16 -39t39 -16q24 0 40 16t16 39t-16 39
t-40 16zM603 484q-23 0 -39.5 -16t-16.5 -39t16.5 -39t39.5 -16t39.5 16t16.5 39t-16.5 39t-39.5 16zM487 189q-32 0 -58 8t-47 20.5t-37.5 29t-28.5 34.5l-37 -31q13 -19 32 -39t45 -36t58.5 -26t72.5 -10t72.5 10t58.5 26t45 36t32 39l-37 31q-12 -18 -28.5 -34.5
t-37.5 -29t-47 -20.5t-58 -8z" />
    <glyph glyph-name="spade" unicode="&#x2660;" horiz-adv-x="807" 
d="M619 456q38 -37 61.5 -79.5t23.5 -90.5q0 -66 -40 -104.5t-109 -38.5q-29 0 -51 9.5t-37 26t-25 38t-15 46.5h-8q1 -94 16 -152t37 -94q11 -17 -9 -17h-120q-20 0 -9 17q22 36 37 94t16 152h-7q-5 -25 -15 -46.5t-25 -38t-37 -26t-51 -9.5q-69 0 -109 38.5t-40 104.5
q0 48 23.5 90.5t61.5 79.5l208 201q8 8 15 0z" />
    <glyph glyph-name="club" unicode="&#x2663;" horiz-adv-x="721" 
d="M103 317q0 33 11 60.5t30.5 47t47 30t60.5 10.5q5 0 14.5 -1.5t14.5 -2.5q-7 13 -11.5 28t-4.5 31q0 67 41 107.5t108 40.5q66 0 107 -40.5t41 -107.5q0 -16 -5 -31.5t-12 -28.5q6 1 15.5 3t16.5 2q67 0 107 -41t40 -107q0 -68 -40 -108.5t-107 -40.5q-68 0 -102.5 40.5
t-34.5 108.5h-10q1 -96 16.5 -176t37.5 -124q9 -17 -10 -17h-120q-19 0 -10 17q22 44 37.5 124t16.5 176h-10q0 -68 -34.5 -108.5t-101.5 -40.5t-108 40.5t-41 108.5z" />
    <glyph glyph-name="heart" unicode="&#x2665;" horiz-adv-x="743" 
d="M216 267q-41 39 -66 84.5t-25 96.5q0 71 43 112t117 41q31 0 56.5 -10t45 -27.5t33 -41t19.5 -49.5h15q6 26 19 49.5t32.5 41t45.5 27.5t57 10q74 0 117 -41t43 -112q0 -51 -25.5 -96t-66.5 -85l-222 -216q-7 -7 -15 0z" />
    <glyph glyph-name="diamond" unicode="&#x2666;" horiz-adv-x="580" 
d="M100 293q-5 7 0 14q39 41 71 78.5t60 75.5t53 78.5t49 86.5q2 4 7 4t7 -4q24 -46 49 -86.5t53 -78.5t60 -75.5t71 -78.5q5 -7 0 -14q-39 -41 -71 -78.5t-60 -75.5t-53 -78.5t-49 -86.5q-2 -4 -7 -4t-7 4q-24 46 -49 86.5t-53 78.5t-60 75.5t-71 78.5z" />
    <glyph glyph-name="uni2706" unicode="&#x2706;" horiz-adv-x="883" 
d="M501 737q83 0 154 -28t123 -78.5t81 -122t29 -158.5t-29 -158.5t-81 -122t-123 -78.5t-154 -28q-84 0 -155 28t-122.5 78.5t-81 122t-29.5 158.5t29.5 158.5t81 122t122.5 78.5t155 28zM501 672q-71 0 -129.5 -23.5t-100.5 -66t-65 -101.5t-23 -131t23 -131t65 -101.5
t100.5 -66t129.5 -23.5t129 23.5t100 66t65 101.5t23 131t-23 131t-65 101.5t-100 66t-129 23.5zM370 141q-5 -5 -10 0q-40 27 -59 57.5t-3 74.5q15 41 38.5 82.5t52.5 79.5t62.5 72t68.5 61q11 9 25.5 13t29.5 4q24 0 48.5 -9.5t43.5 -27.5q4 -5 2 -10q-10 -27 -32 -55
t-50 -49q-6 -4 -12 -1l-41 27q-57 -24 -86.5 -66t-40.5 -101l39 -36q5 -5 3 -11q-14 -32 -35 -60t-44 -45zM632 400q-7 -3 -11 1l-16 10q-12 8 -1 17q47 41 74 90q6 11 16 3l14 -12q5 -5 3 -11q-9 -26 -30.5 -52.5t-48.5 -45.5zM422 104q-6 -3 -12 0l-20 15q-11 6 -1 16
q21 20 38.5 44t28.5 50q7 13 17 4l18 -17q3 -3 3 -10q-8 -26 -27.5 -54t-44.5 -48z" />
    <glyph glyph-name="uni2709" unicode="&#x2709;" horiz-adv-x="1128" 
d="M184 0q-11 0 -11 10v589q0 10 11 10h862q10 0 10 -10v-589q0 -10 -10 -10h-862zM617 296l331 251h-661zM481 327l-243 187v-416zM751 324l241 -224v410zM527 291l-245 -229h667l-245 227l-87 -67z" />
    <glyph glyph-name="uni2713" unicode="&#x2713;" horiz-adv-x="648" 
d="M124 413q-5 9 5 14l82 39q10 4 13 -5l157 -305l215 479q3 11 14 6l79 -31q10 -3 5 -15l-272 -558q-3 -6 -9 -6h-68q-6 0 -9 5z" />
    <glyph glyph-name="uni2715" unicode="&#x2715;" horiz-adv-x="766" 
d="M713 567q7 -8 0 -15l-200 -200l201 -200q7 -7 0 -14l-59 -58q-7 -7 -14 0l-200 200l-202 -199q-7 -7 -14 0l-57 57q-8 8 0 15l201 199l-199 199q-7 8 0 15l58 58q7 7 14 0l199 -200l200 200q7 7 14 0z" />
    <glyph glyph-name="uni275B" unicode="&#x275b;" horiz-adv-x="463" 
d="M277 287q-36 0 -64.5 12.5t-47.5 36t-25.5 57.5t0.5 78q9 55 32.5 106.5t62.5 94t94.5 72.5t128.5 42q8 2 10 -7l7 -51q2 -11 -11 -13q-66 -9 -115 -41.5t-75 -95.5q18 14 37.5 20.5t39.5 6.5q71 0 104.5 -41t21.5 -112q-6 -35 -22.5 -65t-42.5 -52.5t-60 -35t-75 -12.5z
" />
    <glyph glyph-name="uni275C" unicode="&#x275c;" horiz-adv-x="463" 
d="M182 279q-7 -1 -10 7l-6 51q-2 11 11 13q66 9 115 41.5t75 94.5q-17 -14 -37.5 -20t-39.5 -6q-72 0 -105 41t-22 112q6 35 23 65t42.5 52.5t60 35t74.5 12.5q36 0 65 -12.5t47.5 -36t25.5 -57.5t-1 -78q-9 -55 -32 -106.5t-62.5 -94t-95 -72.5t-128.5 -42z" />
    <glyph glyph-name="uni275D" unicode="&#x275d;" horiz-adv-x="833" 
d="M647 287q-36 0 -64.5 12.5t-47.5 36t-25.5 57.5t0.5 78q9 55 32.5 106.5t62.5 94t94.5 72.5t128.5 42q8 2 10 -7l7 -51q2 -11 -11 -13q-66 -9 -115.5 -41.5t-75.5 -95.5q19 14 38.5 20.5t39.5 6.5q71 0 104.5 -41t21.5 -112q-6 -35 -22.5 -65t-42.5 -52.5t-60 -35
t-75 -12.5zM277 287q-36 0 -64.5 12.5t-47.5 36t-25.5 57.5t0.5 78q9 55 32.5 106.5t62.5 94t94.5 72.5t128.5 42q8 2 10 -7l7 -51q2 -11 -11 -13q-66 -9 -115 -41.5t-75 -95.5q18 14 37.5 20.5t39.5 6.5q71 0 104.5 -41t21.5 -112q-6 -35 -22.5 -65t-42.5 -52.5t-60 -35
t-75 -12.5z" />
    <glyph glyph-name="uni275E" unicode="&#x275e;" horiz-adv-x="833" 
d="M182 279q-7 -1 -10 7l-6 51q-2 11 11 13q66 9 115 41.5t75 94.5q-17 -14 -37.5 -20t-39.5 -6q-72 0 -105 41t-22 112q6 35 23 65t42.5 52.5t60 35t74.5 12.5q36 0 65 -12.5t47.5 -36t25.5 -57.5t-1 -78q-9 -55 -32 -106.5t-62.5 -94t-95 -72.5t-128.5 -42zM552 279
q-7 -1 -10 7l-6 51q-2 11 11 13q66 9 115 41.5t75 94.5q-17 -14 -37.5 -20t-39.5 -6q-72 0 -105 41t-22 112q6 35 23 65t42.5 52.5t60 35t74.5 12.5q36 0 65 -12.5t47.5 -36t25.5 -57.5t-1 -78q-9 -55 -32 -106.5t-62.5 -94t-95 -72.5t-128.5 -42z" />
    <glyph glyph-name="uni275F" unicode="&#x275f;" horiz-adv-x="463" 
d="M286 317q73 0 112.5 -48t25.5 -136q-9 -55 -32.5 -106.5t-62.5 -94t-94.5 -72.5t-128.5 -42q-9 -2 -11 7l-6 50q-3 12 10 14q66 9 116 41.5t75 94.5q-18 -14 -38 -20t-39 -6q-71 0 -104.5 40.5t-21.5 111.5q6 35 22.5 65t42 52.5t60 35.5t74.5 13z" />
    <glyph glyph-name="uni2760" unicode="&#x2760;" horiz-adv-x="833" 
d="M286 317q73 0 112.5 -48t25.5 -136q-9 -55 -32.5 -106.5t-62.5 -94t-94.5 -72.5t-128.5 -42q-9 -2 -11 7l-6 50q-3 12 10 14q66 9 116 41.5t75 94.5q-18 -14 -38 -20t-39 -6q-71 0 -104.5 40.5t-21.5 111.5q6 35 22.5 65t42 52.5t60 35.5t74.5 13zM656 317
q73 0 112.5 -48t25.5 -136q-9 -55 -32.5 -106.5t-63 -94t-95 -72.5t-128.5 -42q-8 -2 -10 7l-6 50q-3 12 10 14q66 9 116 41.5t75 94.5q-18 -14 -38 -20t-39 -6q-71 0 -104.5 40.5t-21.5 111.5q6 35 22.5 65t42 52.5t60 35.5t74.5 13z" />
    <glyph glyph-name="uni2766" unicode="&#x2766;" horiz-adv-x="704" 
d="M438 339q21 41 39.5 84t31.5 83q-36 15 -69 35.5t-63.5 38.5t-59 30.5t-56.5 12.5q-67 0 -72 -50q-6 -34 32 -78q8 -9 -2 -16l-18 -12q-6 -6 -13 1q-26 26 -36.5 56t-6.5 55q5 36 32.5 61.5t78.5 25.5q31 0 59.5 -10t57.5 -25q24 45 54 63t56 18q44 0 64 -27t20 -72
q0 -38 -12 -82q35 -12 70 -12q34 0 52.5 14.5t21.5 34.5q2 15 -4.5 36.5t-35.5 41.5q-10 7 -2 15l13 18q7 7 15 1q35 -27 46.5 -55t9.5 -54q-1 -18 -8.5 -34t-21.5 -29t-35 -20.5t-50 -7.5q-22 0 -41.5 3.5t-39.5 9.5q-12 -41 -30 -83t-40 -84l7 -2q23 43 53 67t64 24
q45 0 74.5 -28t29.5 -82q0 -40 -16 -67t-40.5 -45.5t-52.5 -31.5t-52.5 -25t-40.5 -25t-16 -33q0 -23 14.5 -32.5t37.5 -9.5q35 0 63 14t50 45q5 8 14 3l3 -2q8 -5 3 -13q-26 -46 -69.5 -70.5t-100.5 -24.5q-62 0 -111 25t-83.5 66t-53 92.5t-18.5 103.5q0 44 10 75t26.5 51
t38.5 29.5t46 9.5q15 0 30.5 -5t27.5 -16.5t17.5 -30.5t0.5 -47zM406 611l56 -34t57 -31q4 17 6.5 32t2.5 29q0 29 -10.5 46t-35.5 17q-24 0 -42.5 -15t-33.5 -44z" />
    <glyph glyph-name="uni2767" unicode="&#x2767;" horiz-adv-x="769" 
d="M481 337q-51 24 -73 56t-22 61q0 38 25.5 63t70.5 25q35 0 59.5 -14.5t42 -35.5t30.5 -46.5t25 -46.5t25.5 -35.5t31.5 -14.5q21 0 30 13t9 34q0 32 -13.5 56.5t-41.5 45.5q-9 7 -2 15l1 2q6 8 15 3q36 -26 60.5 -65t24.5 -90q0 -57 -23.5 -103.5t-61 -79.5t-85 -51
t-95.5 -18q-80 0 -117 30.5t-37 74.5q0 18 7.5 33.5t21.5 26t33 15t42 0.5l2 6q-35 19 -79.5 29.5t-89.5 10.5h-15.5t-15.5 -1q15 -30 25.5 -63t10.5 -69q0 -33 -9 -57t-23.5 -40t-33 -23.5t-38.5 -7.5q-22 0 -42 8.5t-36 25.5t-25.5 41.5t-9.5 56.5q0 63 33 100t84 53
q-19 37 -34 74.5t-15 78.5q0 27 9 47t23.5 33t33.5 19.5t39 6.5q22 0 44 -7.5t39 -22.5q8 -5 2 -14l-15 -18q-6 -8 -15 -1q-28 20 -59 20q-23 0 -40.5 -15t-17.5 -47q0 -37 16 -72t36 -71q24 3 49 3q45 0 91 -10.5t91 -32.5zM221 326q-40 -12 -65.5 -38.5t-25.5 -73.5
q0 -49 19 -71.5t47 -22.5q24 0 43.5 19.5t19.5 67.5q0 30 -11 59.5t-27 59.5z" />
    <glyph glyph-name="uni2776" unicode="&#x2776;" horiz-adv-x="1132" 
d="M625 838q106 0 195 -35.5t153 -99.5t100 -153.5t36 -197.5t-36 -197t-100 -153.5t-153 -100t-195 -35.5t-195.5 35.5t-153.5 100t-100 153.5t-36 197t36 197.5t100 153.5t153.5 99.5t195.5 35.5zM650 613q-1 0 -2 -0.5t-2 -0.5l-185 -50q-10 -3 -7 -13l20 -72
q3 -10 13 -7l100 29v-426q0 -10 11 -10h85q10 0 10 10v529q0 11 -10 11h-33z" />
    <glyph glyph-name="uni2777" unicode="&#x2777;" horiz-adv-x="1132" 
d="M625 838q106 0 195 -35.5t153 -99.5t100 -153.5t36 -197.5t-36 -197t-100 -153.5t-153 -100t-195 -35.5t-195.5 35.5t-153.5 100t-100 153.5t-36 197t36 197.5t100 153.5t153.5 99.5t195.5 35.5zM516 468q31 76 106 76t75 -64q0 -30 -15 -57t-49 -66l-202 -228
q-3 -3 -3 -7v-30q0 -11 10 -11h358q11 0 11 11v81q0 11 -11 11h-196l111 118q27 29 45.5 53t30 46t16 42t4.5 42q0 73 -47.5 114.5t-130.5 41.5q-74 0 -126.5 -36.5t-77.5 -102.5q-3 -8 6 -13l71 -26q4 -2 8 -0.5t6 5.5z" />
    <glyph glyph-name="uni2778" unicode="&#x2778;" horiz-adv-x="1132" 
d="M625 838q106 0 195 -35.5t153 -99.5t100 -153.5t36 -197.5t-36 -197t-100 -153.5t-153 -100t-195 -35.5t-195.5 35.5t-153.5 100t-100 153.5t-36 197t36 197.5t100 153.5t153.5 99.5t195.5 35.5zM600 308q54 0 79.5 -19t25.5 -57q0 -35 -22.5 -54.5t-64.5 -19.5
q-43 0 -70 20t-41 58q-4 11 -14 6l-73 -28q-9 -4 -6 -13q24 -68 77 -103.5t129 -35.5q45 0 81.5 12.5t62 34t39.5 51.5t14 65q0 48 -26 83t-79 49q42 14 68.5 49t26.5 84q0 64 -45.5 103t-132.5 39q-79 0 -132.5 -36t-76.5 -104q-3 -8 6 -12l72 -26q10 -3 13 7
q14 35 40.5 55t67.5 20q35 0 55.5 -16t20.5 -48q0 -40 -28.5 -58t-66.5 -18h-42q-11 0 -11 -10v-68q0 -10 11 -10h42z" />
    <glyph glyph-name="uni2779" unicode="&#x2779;" horiz-adv-x="1132" 
d="M625 838q106 0 195 -35.5t153 -99.5t100 -153.5t36 -197.5t-36 -197t-100 -153.5t-153 -100t-195 -35.5t-195.5 35.5t-153.5 100t-100 153.5t-36 197t36 197.5t100 153.5t153.5 99.5t195.5 35.5zM823 269q0 10 -11 10h-59v104q0 11 -10 11h-85q-10 0 -10 -11v-104h-125
l171 336q4 7 1.5 11.5t-9.5 4.5h-101q-5 0 -9 -7l-187 -397q-1 -1 -1 -4v-32q0 -10 11 -10h249v-92q0 -10 10 -10h85q10 0 10 10v92h59q11 0 11 10v78z" />
    <glyph glyph-name="uni277A" unicode="&#x277a;" horiz-adv-x="1132" 
d="M625 838q106 0 195 -35.5t153 -99.5t100 -153.5t36 -197.5t-36 -197t-100 -153.5t-153 -100t-195 -35.5t-195.5 35.5t-153.5 100t-100 153.5t-36 197t36 197.5t100 153.5t153.5 99.5t195.5 35.5zM782 615q0 11 -11 11h-297q-8 0 -10 -10l-22 -281q-2 -11 10 -11h150
q56 0 79 -21.5t23 -62.5q0 -81 -84 -81q-81 0 -107 74q-3 11 -14 7l-70 -27q-11 -4 -7 -13q24 -72 76.5 -105.5t123.5 -33.5q47 0 82.5 14.5t60.5 40t37.5 59t12.5 72.5q0 46 -16 78.5t-44 53t-65 30t-78 9.5h-59l7 101h211q11 0 11 10v86z" />
    <glyph glyph-name="uni277B" unicode="&#x277b;" horiz-adv-x="1132" 
d="M625 838q106 0 195 -35.5t153 -99.5t100 -153.5t36 -197.5t-36 -197t-100 -153.5t-153 -100t-195 -35.5t-195.5 35.5t-153.5 100t-100 153.5t-36 197t36 197.5t100 153.5t153.5 99.5t195.5 35.5zM618 629q-6 0 -9 -6l-141 -233q-20 -32 -31 -68.5t-11 -75.5
q0 -84 52 -130.5t140 -46.5q46 0 84 13t65.5 37.5t43 59.5t15.5 79q0 41 -12.5 73t-35 54.5t-53 34.5t-66.5 12q-34 0 -60 -11l129 193q4 6 2 10.5t-9 4.5h-103zM631 343q83 0 83 -83q0 -45 -23.5 -67.5t-67.5 -22.5q-86 0 -86 82q0 42 24 66.5t70 24.5z" />
    <glyph glyph-name="uni277C" unicode="&#x277c;" horiz-adv-x="1132" 
d="M625 838q106 0 195 -35.5t153 -99.5t100 -153.5t36 -197.5t-36 -197t-100 -153.5t-153 -100t-195 -35.5t-195.5 35.5t-153.5 100t-100 153.5t-36 197t36 197.5t100 153.5t153.5 99.5t195.5 35.5zM685 491l-180 -431q-3 -6 -0.5 -10.5t9.5 -4.5h97q7 0 10 7l186 493
q2 4 2 13v27q0 10 -10 10h-348q-10 0 -10 -10v-84q0 -10 10 -10h234z" />
    <glyph glyph-name="uni277D" unicode="&#x277d;" horiz-adv-x="1132" 
d="M625 838q106 0 195 -35.5t153 -99.5t100 -153.5t36 -197.5t-36 -197t-100 -153.5t-153 -100t-195 -35.5t-195.5 35.5t-153.5 100t-100 153.5t-36 197t36 197.5t100 153.5t153.5 99.5t195.5 35.5zM623 632q-88 0 -134 -40.5t-46 -105.5q0 -42 21.5 -78.5t66.5 -52.5
q-54 -17 -79.5 -55t-25.5 -85q0 -69 50 -111t147 -42t147 42t50 111q0 47 -25 85t-79 55q44 16 65.5 52.5t21.5 78.5q0 65 -46 105.5t-134 40.5zM623 536q34 0 53 -15t19 -50t-19.5 -52t-52.5 -17q-34 0 -52.5 17t-18.5 52t18.5 50t52.5 15zM623 310q85 0 85 -75
q0 -35 -19.5 -54t-65.5 -19t-66 19t-20 54q0 75 86 75z" />
    <glyph glyph-name="uni277E" unicode="&#x277e;" horiz-adv-x="1132" 
d="M625 838q106 0 195 -35.5t153 -99.5t100 -153.5t36 -197.5t-36 -197t-100 -153.5t-153 -100t-195 -35.5t-195.5 35.5t-153.5 100t-100 153.5t-36 197t36 197.5t100 153.5t153.5 99.5t195.5 35.5zM628 63q6 0 9 5l141 235q18 31 29.5 67.5t11.5 75.5q0 84 -54 130.5
t-142 46.5q-45 0 -82.5 -13t-64.5 -38t-42 -59.5t-15 -78.5q0 -40 12.5 -72.5t35 -55t53 -34.5t66.5 -12q17 0 32 2.5t27 7.5l-126 -192q-10 -15 9 -15h100zM613 348q-40 0 -62 20.5t-22 62.5q0 45 24.5 68t68.5 23q85 0 85 -82q0 -42 -23.5 -67t-70.5 -25z" />
    <glyph glyph-name="uni2B51" unicode="&#x2b51;" horiz-adv-x="570" 
d="M548 404q28 0 6 -19l-117 -86l42 -136q5 -14 0 -17t-16 6l-112 84l-111 -84q-7 -6 -13 -6q-7 0 -3 18l42 135l-117 86q-22 19 6 19h145l41 133q4 14 10 14t10 -14l43 -133h144z" />
    <glyph glyph-name="uni2B52" unicode="&#x2b52;" horiz-adv-x="570" 
d="M547 404q28 0 6 -19l-116 -85l41 -135q5 -14 0 -17t-16 6l-111 84l-111 -84q-24 -19 -16 11l43 135l-117 85q-22 19 6 19h144l41 132q4 14 10 14t10 -14l43 -132h143zM382 371l-30 89l-29 -89h-98l80 -60l-28 -90l75 60l75 -60l-29 90l81 60h-97z" />
    <glyph glyph-name="uni2B6E" unicode="&#x2b6e;" horiz-adv-x="933" 
d="M362 642q8 3 13 -5l109 -206q5 -9 -4 -14l-62 -31q-10 -4 -14 6l-43 83q-31 -57 -31 -132q0 -56 18 -102t50.5 -78.5t78.5 -50.5t102 -18t102.5 18t79.5 51t51 79t18 102q0 69 -22 120t-68 91q-8 8 0 16l61 53q7 6 13 0q58 -47 91 -118.5t33 -161.5q0 -80 -26 -145.5
t-73.5 -112.5t-113 -72.5t-145.5 -25.5t-145.5 25.5t-112.5 72t-73 112t-26 145.5q0 95 37 169l-115 -45q-9 -4 -13 5l-24 59q-4 10 6 13z" />
    <glyph glyph-name="uni2B6F" unicode="&#x2b6f;" horiz-adv-x="869" 
d="M935 544q9 -4 5 -13l-24 -59q-4 -9 -13 -5l-115 45q18 -36 28 -78.5t10 -90.5q0 -80 -26 -145.5t-73 -112t-112.5 -72t-145.5 -25.5t-146 25.5t-113 72.5t-73 112.5t-26 145.5q0 90 32.5 161.5t91.5 118.5q5 5 12 0l62 -53q8 -8 0 -16q-47 -40 -69 -91t-22 -120
q0 -56 18 -102t51 -79t79.5 -51t102.5 -18t102 18t78.5 50.5t50.5 78.5t18 102q0 75 -31 132l-42 -83q-4 -10 -15 -6l-61 31q-10 5 -5 14l110 206q3 8 12 5z" />
    </font>
</defs>
</svg>
