<?xml version="1.0" standalone="no"?>
<!DOCTYPE svg PUBLIC "-//W3C//DTD SVG 1.1//EN" "http://www.w3.org/Graphics/SVG/1.1/DTD/svg11.dtd" >
<svg xmlns="http://www.w3.org/2000/svg" xmlns:xlink="http://www.w3.org/1999/xlink" version="1.1">
<metadata>
Created by FontForge 20170731 at Wed Sep 22 08:53:44 2021
 By Aleksey,,,
Copyright (c) 2021 by Hurufatfont Type Foundry-Oguzhan Cengiz. All rights reserved.
</metadata>
<defs>
<font id="Rapor-SemiBold" horiz-adv-x="637" >
  <font-face 
    font-family="Rapor SemBd"
    font-weight="600"
    font-stretch="normal"
    units-per-em="1000"
    panose-1="0 0 0 0 0 0 0 0 0 0"
    ascent="800"
    descent="-200"
    x-height="440"
    cap-height="700"
    bbox="-117.448 -223 1106.5 975"
    underline-thickness="50"
    underline-position="-175"
    unicode-range="U+0002-FB06"
  />
<missing-glyph horiz-adv-x="350" 
d="M350 -200h-350v940h350v-940zM50 690v-840h250v840h-250zM175 588l72 72l33 -33l-72 -72l72 -72l-33 -33l-72 72l-72 -72l-33 33l72 72l-72 72l33 33zM175 308l72 72l33 -33l-72 -72l72 -72l-33 -33l-72 72l-72 -72l-33 33l72 72l-72 72l33 33zM175 18l72 72l33 -33
l-72 -72l72 -72l-33 -33l-72 72l-72 -72l-33 33l72 72l-72 72l33 33z" />
    <glyph glyph-name="f_f" unicode="ff" horiz-adv-x="723" 
d="M675 440q10 0 10 -11v-85q0 -11 -10 -11h-128v-322q0 -11 -11 -11h-109q-11 0 -11 11v322h-189v-322q0 -11 -11 -11h-109q-11 0 -11 11v322h-69q-11 0 -11 11v85q0 11 11 11h69v102q0 47 16 83.5t45 62t68.5 39t86.5 13.5q44 0 86.5 -12t79.5 -35q53 47 138 47
q45 0 80 -8t70 -24q10 -3 5 -14l-37 -80q-5 -9 -15 -6q-23 11 -44 16.5t-46 5.5q-43 0 -62.5 -24.5t-19.5 -64.5v-101h128zM416 440v108q0 12 1.5 22.5t3.5 21.5q-23 20 -49 28t-53 8q-48 0 -70 -26t-22 -71v-91h189z" />
    <glyph glyph-name="fi" unicode="fi" horiz-adv-x="599" 
d="M537 440q11 0 11 -11v-418q0 -11 -11 -11h-110q-11 0 -11 11v322h-189v-322q0 -11 -11 -11h-109q-11 0 -11 11v322h-69q-11 0 -11 11v85q0 11 11 11h69v99q0 47 18 84t49.5 63t75 40t93.5 14q57 0 108.5 -15t93.5 -43q8 -6 1 -15l-56 -75q-3 -5 -7.5 -5t-8.5 3
q-25 19 -57 29t-65 10q-56 0 -85 -26.5t-29 -74.5v-88h310z" />
    <glyph glyph-name="fl" unicode="fl" horiz-adv-x="601" 
d="M319 440q11 0 11 -11v-85q0 -11 -11 -11h-92v-322q0 -11 -11 -11h-109q-11 0 -11 11v322h-69q-11 0 -11 11v85q0 11 11 11h69v99q0 45 16 82.5t46 63.5t72.5 40.5t95.5 14.5q49 0 106.5 -12t105.5 -47q9 -6 9 -16v-654q0 -11 -11 -11h-109q-11 0 -11 11v597
q-37 20 -86 20q-48 0 -75.5 -23t-27.5 -74v-91h92z" />
    <glyph glyph-name="f_f_i" unicode="ffi" horiz-adv-x="918" 
d="M856 440q11 0 11 -11v-418q0 -11 -11 -11h-109q-11 0 -11 11v322h-189v-322q0 -11 -11 -11h-109q-11 0 -11 11v322h-189v-322q0 -11 -11 -11h-109q-11 0 -11 11v322h-69q-11 0 -11 11v85q0 11 11 11h69v99q0 47 17.5 84t48.5 63t72.5 40t89.5 14q40 0 86 -11t87 -37
q32 23 71.5 35.5t83.5 12.5q48 0 99 -13t98 -46q4 -2 5 -6t-2 -8l-53 -75q-7 -11 -16 -2q-26 22 -60.5 30.5t-63.5 8.5q-54 0 -83 -28t-29 -73v-88h309zM416 440v95q0 32 11 62q-23 18 -50 24.5t-48 6.5q-51 0 -76.5 -26t-25.5 -71v-91h189z" />
    <glyph glyph-name="f_f_l" unicode="ffl" horiz-adv-x="922" 
d="M652 740q50 0 104 -12t103 -47q8 -6 8 -15v-655q0 -11 -11 -11h-109q-11 0 -11 11v594q-20 14 -41 18.5t-39 4.5q-51 0 -80 -24.5t-29 -72.5v-91h92q11 0 11 -11v-85q0 -11 -11 -11h-92v-322q0 -11 -11 -11h-109q-11 0 -11 11v322h-189v-322q0 -11 -11 -11h-109
q-11 0 -11 11v322h-69q-11 0 -11 11v85q0 11 11 11h69v102q0 47 18 83.5t49.5 62t73.5 39t90 13.5q39 0 82 -11.5t83 -35.5q32 23 72.5 35t87.5 12zM416 440v99q0 31 9 58q-22 17 -46.5 24t-46.5 7q-51 0 -78 -26t-27 -71v-91h189z" />
    <glyph glyph-name="Th.dlig" unicode="Th" horiz-adv-x="1081" 
d="M29 689q0 11 11 11h555v29q0 11 11 11h109q10 0 10 -11v-341q25 30 59.5 47t77.5 17q82 0 126.5 -52t44.5 -146v-243q0 -11 -10 -11h-110q-10 0 -10 11v227q0 45 -19.5 72t-64.5 27q-41 0 -67.5 -31.5t-26.5 -80.5v-214q0 -11 -10 -11h-109q-11 0 -11 11v558h-226v-558
q0 -11 -10 -11h-119q-11 0 -11 11v558h-189q-11 0 -11 11v109z" />
    <glyph glyph-name="f_j" unicode="fj" horiz-adv-x="599" 
d="M537 440q11 0 11 -11l-1 -416q-1 -102 -45.5 -151.5t-137.5 -51.5q-11 0 -11 11v101q0 11 11 11q29 3 40.5 18.5t11.5 49.5v332h-189v-322q0 -11 -11 -11h-109q-11 0 -11 11v322h-69q-11 0 -11 11v85q0 11 11 11h69v99q0 47 18 84t49.5 63t75 40t93.5 14q57 0 108.5 -15
t93.5 -43q8 -6 1 -15l-56 -75q-3 -5 -7.5 -5t-8.5 3q-25 19 -57 29t-65 10q-56 0 -85 -26.5t-29 -74.5v-88h310z" />
    <glyph glyph-name="f_f_j" unicode="ffj" horiz-adv-x="918" 
d="M107 0q-11 0 -11 11v322h-69q-11 0 -11 11v85q0 11 11 11h69v99q0 47 17.5 84t48.5 63t72.5 40t89.5 14q40 0 86 -11t87 -37q32 23 71.5 35.5t83.5 12.5q48 0 99 -13t98 -46q4 -2 5 -6t-2 -8l-53 -75q-7 -11 -16 -2q-26 22 -60.5 30.5t-63.5 8.5q-54 0 -83 -28t-29 -73
v-88h309q11 0 11 -11v-416q0 -102 -45 -151.5t-138 -51.5q-10 0 -10 11v101q0 11 10 11q29 3 40.5 18.5t11.5 49.5v332h-189v-322q0 -11 -11 -11h-109q-11 0 -11 11v322h-189v-322q0 -11 -11 -11h-109zM416 440v95q0 32 11 62q-23 18 -50 24.5t-48 6.5q-51 0 -76.5 -26
t-25.5 -71v-91h189z" />
    <glyph glyph-name=".notdef" horiz-adv-x="350" 
d="M350 -200h-350v940h350v-940zM50 690v-840h250v840h-250zM175 588l72 72l33 -33l-72 -72l72 -72l-33 -33l-72 72l-72 -72l-33 33l72 72l-72 72l33 33zM175 308l72 72l33 -33l-72 -72l72 -72l-33 -33l-72 72l-72 -72l-33 33l72 72l-72 72l33 33zM175 18l72 72l33 -33
l-72 -72l72 -72l-33 -33l-72 72l-72 -72l-33 33l72 72l-72 72l33 33z" />
    <glyph glyph-name=".null" horiz-adv-x="500" 
 />
    <glyph glyph-name=".null" horiz-adv-x="500" 
 />
    <glyph glyph-name="uni000D" horiz-adv-x="500" 
 />
    <glyph glyph-name="uni0002" horiz-adv-x="333" 
 />
    <glyph glyph-name="uni0009" unicode="&#x9;" horiz-adv-x="80" 
 />
    <glyph glyph-name="uni000A" unicode="&#xa;" horiz-adv-x="333" 
 />
    <glyph glyph-name="uni000D.1" unicode="&#xd;" horiz-adv-x="333" 
 />
    <glyph glyph-name="space" unicode=" " horiz-adv-x="240" 
 />
    <glyph glyph-name="exclam" unicode="!" horiz-adv-x="313" 
d="M208 246q-2 -10 -11 -10h-81q-9 0 -11 10l-20 244v199q0 11 11 11h122q10 0 10 -11v-199zM157 154q36 0 59.5 -22t23.5 -60t-23.5 -60.5t-59.5 -22.5q-35 0 -59.5 22.5t-24.5 60.5t24.5 60t59.5 22z" />
    <glyph glyph-name="quotedbl" unicode="&#x22;" horiz-adv-x="435" 
d="M169 423q-2 -10 -10 -10h-72q-9 0 -11 10l-18 265q-1 12 10 12h110q12 0 10 -12zM359 423q-2 -10 -11 -10h-72q-8 0 -10 10l-19 265q-1 12 11 12h109q13 0 11 -12z" />
    <glyph glyph-name="numbersign" unicode="#" horiz-adv-x="741" 
d="M372 0q-13 0 -10 13l35 143h-145l-36 -148q-2 -8 -10 -8h-82q-13 0 -10 13l35 143h-66q-11 0 -11 11v81q0 11 11 11h91l42 170h-81q-11 0 -11 11v82q0 10 11 10h106l39 160q2 8 10 8h82q6 0 9 -3.5t1 -9.5l-37 -155h144l39 160q2 8 10 8h82q6 0 9 -3.5t1 -9.5l-37 -155
h66q11 0 11 -10v-82q0 -11 -11 -11h-92l-41 -170h81q10 0 10 -11v-81q0 -11 -10 -11h-107l-36 -148q-2 -8 -11 -8h-81zM422 259l41 170h-144l-41 -170h144z" />
    <glyph glyph-name="dollar" unicode="$" horiz-adv-x="607" 
d="M470 515q-7 -7 -15 0q-69 60 -154 60q-103 0 -103 -69q0 -17 5.5 -29t21.5 -22.5t44.5 -20.5t74.5 -23q60 -17 102 -37t68.5 -45t38.5 -55.5t12 -68.5q0 -84 -54 -136.5t-153 -65.5v-126q0 -10 -10 -10h-86q-11 0 -11 10v125q-120 14 -218 85q-8 6 -2 15l64 92q7 10 16 3
q43 -35 92 -52.5t102 -17.5q116 0 116 69q0 17 -6 29.5t-22 23.5t-44.5 22t-73.5 24q-60 19 -102 40.5t-68.5 47t-38.5 56.5t-12 70q0 80 51.5 128.5t145.5 59.5v112q0 11 11 11h86q10 0 10 -11v-114q106 -15 186 -90q7 -7 -1 -15z" />
    <glyph glyph-name="percent" unicode="%" horiz-adv-x="668" 
d="M180 700q34 0 62.5 -11.5t49.5 -32t33 -49t12 -61.5q0 -34 -11.5 -62.5t-32.5 -49t-50 -32t-63 -11.5t-63 11.5t-50 32t-32.5 49t-11.5 62.5q0 33 11.5 61.5t32.5 49t50 32t63 11.5zM636 611q9 -7 0 -14l-552 -554q-7 -8 -15 0l-41 41q-9 7 0 14l551 553q7 8 15 0z
M180 617q-32 0 -50.5 -19t-18.5 -52q0 -34 18.5 -53t50.5 -19t50.5 19.5t18.5 52.5t-18.5 52t-50.5 19zM486 297q34 0 62.5 -11.5t49.5 -32t32.5 -49t11.5 -62.5q0 -33 -11.5 -61.5t-32.5 -49t-49.5 -32t-62.5 -11.5t-63 11.5t-50 32t-33 49t-12 61.5q0 34 12 62.5t33 49
t50 32t63 11.5zM486 214q-32 0 -51 -19t-19 -53q0 -33 19 -52t51 -19t50 19t18 52q0 34 -18 53t-50 19z" />
    <glyph glyph-name="ampersand" unicode="&#x26;" horiz-adv-x="669" 
d="M609 321q11 0 9 -11q-6 -82 -41 -149l78 -72q8 -6 1 -15l-71 -77q-8 -8 -15 -1l-70 68q-38 -35 -91 -55t-119 -20q-118 0 -186.5 52t-68.5 147q0 66 33 116.5t93 82.5q-26 32 -39.5 66t-13.5 72q0 42 14.5 76.5t41.5 59t66.5 38t90.5 13.5q47 0 86.5 -12.5t67.5 -36
t43.5 -56t15.5 -72.5q0 -37 -12.5 -67t-34.5 -53t-52 -38.5t-65 -23.5l119 -113q8 20 12.5 42t7.5 45q1 10 13 9zM290 425q24 2 45 8.5t37.5 18t26 28.5t9.5 40q0 79 -84 79q-40 0 -62.5 -21.5t-22.5 -58.5q0 -26 12.5 -47t38.5 -47zM238 313q-38 -22 -52 -49.5t-14 -59.5
q0 -48 31.5 -75.5t93.5 -27.5q39 0 68.5 10.5t50.5 30.5z" />
    <glyph glyph-name="quotesingle" unicode="'" horiz-adv-x="245" 
d="M169 423q-2 -10 -11 -10h-71q-9 0 -11 10l-18 265q-1 12 10 12h109q13 0 11 -12z" />
    <glyph glyph-name="parenleft" unicode="(" horiz-adv-x="329" 
d="M196 735q3 5 9 5h105q4 0 5 -2.5t-1 -4.5q-77 -96 -111.5 -212t-34.5 -244t34.5 -246t111.5 -214q2 -2 1 -4.5t-5 -2.5h-105q-6 0 -9 5q-71 100 -109.5 218.5t-38.5 243.5q0 124 38.5 241t109.5 217z" />
    <glyph glyph-name="parenright" unicode=")" horiz-adv-x="329" 
d="M125 740q7 0 9 -5q71 -100 110 -222t39 -246q0 -125 -39 -238.5t-110 -213.5q-2 -5 -9 -5h-105q-4 0 -5 2.5t1 4.5q77 96 111.5 209t34.5 241t-34.5 249t-111.5 217q-2 2 -1 4.5t5 2.5h105z" />
    <glyph glyph-name="asterisk" unicode="*" horiz-adv-x="458" 
d="M270 740q13 0 11 -12l-14 -111l99 51q10 4 16 -6l28 -72q3 -11 -8 -14l-111 -26l74 -82q8 -8 -2 -15l-64 -46q-10 -6 -16 3l-52 92l-53 -92q-5 -10 -16 -3l-63 46q-11 7 -2 16l74 81l-111 26q-11 3 -8 14l28 72q5 11 15 6l99 -51l-14 111q-2 12 11 12h79z" />
    <glyph glyph-name="plus" unicode="+" horiz-adv-x="596" 
d="M347 519q11 0 11 -11v-176h176q11 0 11 -11v-95q0 -10 -11 -10h-176v-177q0 -11 -11 -11h-97q-11 0 -11 11v177h-177q-10 0 -10 10v95q0 11 10 11h177v176q0 11 11 11h97z" />
    <glyph glyph-name="comma" unicode="," horiz-adv-x="294" 
d="M145 167q42 0 67.5 -27t25.5 -74q0 -69 -24.5 -130.5t-56.5 -108.5q-6 -6 -14 -3l-57 28q-11 5 -4 16q23 33 35 63.5t17 68.5q-36 2 -57.5 24t-21.5 58q0 38 26 61.5t64 23.5z" />
    <glyph glyph-name="hyphen" unicode="-" horiz-adv-x="420" 
d="M57 316q0 11 10 11h286q10 0 10 -11v-87q0 -11 -10 -11h-286q-10 0 -10 11v87z" />
    <glyph glyph-name="period" unicode="." horiz-adv-x="292" 
d="M146 168q38 0 63.5 -24.5t25.5 -64.5q0 -41 -25.5 -65.5t-63.5 -24.5t-63.5 24.5t-25.5 65.5q0 40 25.5 64.5t63.5 24.5z" />
    <glyph glyph-name="slash" unicode="/" horiz-adv-x="525" 
d="M482 740q15 0 9 -16l-354 -758q-3 -6 -9 -6h-84q-16 0 -10 16l354 758q3 6 10 6h84z" />
    <glyph glyph-name="zero" unicode="0" horiz-adv-x="632" 
d="M316 700q68 0 118 -24.5t84 -70.5t50.5 -111t16.5 -146q0 -82 -17 -148.5t-50.5 -113t-84 -72t-117.5 -25.5t-117.5 25t-84 72t-50.5 113.5t-17 148.5q0 81 16.5 146t50.5 111t84.5 70.5t117.5 24.5zM316 571q-65 0 -96 -50.5t-31 -172.5q0 -124 31.5 -177t95.5 -53
q65 0 96.5 53t31.5 177q0 122 -31.5 172.5t-96.5 50.5z" />
    <glyph glyph-name="one" unicode="1" horiz-adv-x="399" 
d="M317 688q10 0 10 -11v-666q0 -11 -10 -11h-110q-10 0 -10 11v516l-110 -45q-11 -5 -14 6l-39 99q-2 5 -0.5 9t6.5 6l220 81q12 5 24 5h33z" />
    <glyph glyph-name="two" unicode="2" horiz-adv-x="560" 
d="M147 480q-5 -10 -15 -5l-90 36q-9 5 -6 13q29 84 95.5 130.5t157.5 46.5q106 0 165.5 -52t59.5 -142q0 -28 -6 -54t-20.5 -54.5t-37.5 -60t-57 -69.5l-126 -144h237q10 0 10 -10v-104q0 -11 -10 -11h-452q-11 0 -11 11v39q0 4 3 7l246 284q42 49 65.5 84t23.5 73
q0 39 -23 60.5t-71 21.5q-97 0 -138 -100z" />
    <glyph glyph-name="three" unicode="3" horiz-adv-x="587" 
d="M213 295q-10 0 -10 11v88q0 11 10 11h55q24 0 45.5 5.5t38.5 17t27 29.5t10 44q0 42 -25.5 61.5t-70.5 19.5q-53 0 -86 -25.5t-50 -71.5q-5 -10 -14 -7l-93 33q-10 3 -7 13q28 85 94.5 131t163.5 46q111 0 168.5 -49.5t57.5 -128.5q0 -62 -33 -106t-87 -62
q66 -16 99.5 -60t33.5 -104q0 -43 -17.5 -80t-49.5 -64t-78 -42.5t-102 -15.5q-96 0 -162 44.5t-95 130.5q-3 10 7 13l94 36q11 3 14 -7q17 -48 51 -73t89 -25q54 0 82.5 23.5t28.5 68.5q0 95 -134 95h-55z" />
    <glyph glyph-name="four" unicode="4" horiz-adv-x="605" 
d="M580 140q0 -11 -10 -11h-81v-118q0 -11 -11 -11h-109q-11 0 -11 11v118h-315q-11 0 -11 11v35q0 7 3 14l235 495q3 6 10 6h124q16 0 10 -16l-211 -423h155v126q0 10 11 10h109q11 0 11 -10v-126h81q10 0 10 -11v-100z" />
    <glyph glyph-name="five" unicode="5" horiz-adv-x="580" 
d="M496 569q0 -10 -11 -10h-267l-10 -124h79q51 0 96.5 -12t79.5 -38.5t54 -67.5t20 -99q0 -47 -16 -88.5t-46 -73t-74 -49.5t-100 -18q-93 0 -158.5 42t-96.5 133q-3 10 7 13l91 35q11 3 14 -8q14 -45 47.5 -69.5t84.5 -24.5q110 0 110 103q0 51 -29.5 78t-99.5 27h-189
q-13 0 -11 11l28 351q2 9 11 9h375q11 0 11 -10v-110z" />
    <glyph glyph-name="six" unicode="6" horiz-adv-x="594" 
d="M415 688q18 0 9 -17l-161 -243q33 14 72 14q45 0 84 -15t67.5 -43t44.5 -67.5t16 -88.5q0 -56 -19 -100.5t-53 -75t-81.5 -47t-103.5 -16.5q-55 0 -100 15t-77 43.5t-49 70t-17 94.5q0 46 14.5 91t38.5 85l177 295q3 5 9 5h129zM295 331q-52 0 -80.5 -30.5t-28.5 -83.5
q0 -103 108 -103q54 0 84 27t30 78q0 60 -28 86t-85 26z" />
    <glyph glyph-name="seven" unicode="7" horiz-adv-x="515" 
d="M38 557q-11 0 -11 11v109q0 11 11 11h439q11 0 11 -11v-31q0 -6 -2 -13.5t-4 -13.5l-231 -612q-3 -7 -11 -7h-124q-7 0 -10 4t0 11l218 542h-286z" />
    <glyph glyph-name="eight" unicode="8" horiz-adv-x="586" 
d="M293 701q54 0 96 -13.5t70.5 -38t43.5 -58t15 -73.5q0 -53 -27 -99t-83 -66q34 -10 58.5 -27.5t40.5 -40.5t24 -50t8 -56q0 -88 -63 -139t-183 -51q-119 0 -182 51t-63 139q0 58 32 106t99 68q-55 20 -82.5 66t-27.5 99q0 40 14.5 73.5t43 58t70.5 38t96 13.5zM293 582
q-43 0 -66 -19.5t-23 -63.5q0 -45 23.5 -66.5t65.5 -21.5q43 0 66.5 21.5t23.5 66.5q0 44 -23 63.5t-67 19.5zM293 298q-107 0 -107 -95q0 -44 25 -67.5t82 -23.5q58 0 83 23.5t25 67.5q0 95 -108 95z" />
    <glyph glyph-name="nine" unicode="9" horiz-adv-x="594" 
d="M299 699q56 0 101.5 -15t78 -43.5t50.5 -70t18 -94.5q0 -46 -14.5 -91t-38.5 -85l-177 -295q-3 -5 -9 -5h-129q-18 0 -9 17l161 244q-31 -15 -72 -15q-45 0 -84 15t-67.5 43t-44.5 67.5t-16 88.5q0 56 18.5 100.5t51.5 75t79.5 47t102.5 16.5zM300 574q-54 0 -84 -27
t-30 -78q0 -59 27.5 -85.5t85.5 -26.5q52 0 80.5 30.5t28.5 83.5q0 103 -108 103z" />
    <glyph glyph-name="colon" unicode=":" horiz-adv-x="282" 
d="M142 450q35 0 59.5 -22.5t24.5 -60.5t-24.5 -61t-59.5 -23q-36 0 -60.5 23t-24.5 61t24.5 60.5t60.5 22.5zM142 157q35 0 59.5 -23t24.5 -61t-24.5 -61t-59.5 -23q-36 0 -60.5 23t-24.5 61t24.5 61t60.5 23z" />
    <glyph glyph-name="semicolon" unicode=";" horiz-adv-x="269" 
d="M122 451q35 0 59.5 -23t24.5 -61t-24.5 -60.5t-59.5 -22.5q-36 0 -60.5 22.5t-24.5 60.5t24.5 61t60.5 23zM123 159q37 0 63.5 -25t26.5 -70q0 -63 -24 -124.5t-63 -112.5q-6 -6 -14 -3l-47 27q-11 6 -3 17q26 32 41 64t18 67q-37 -2 -60.5 19t-23.5 59q0 36 24 59t62 23
z" />
    <glyph glyph-name="less" unicode="&#x3c;" horiz-adv-x="596" 
d="M545 469q0 -8 -7 -11l-287 -116l288 -118q6 -3 6 -10v-123q0 -17 -15 -9l-473 229q-6 4 -6 10v41q0 5 6 9l473 230q15 8 15 -10v-122z" />
    <glyph glyph-name="equal" unicode="=" horiz-adv-x="585" 
d="M534 330q0 -11 -11 -11h-461q-11 0 -11 11v93q0 11 11 11h461q11 0 11 -11v-93zM534 105q0 -10 -11 -10h-461q-11 0 -11 10v93q0 11 11 11h461q11 0 11 -11v-93z" />
    <glyph glyph-name="greater" unicode="&#x3e;" horiz-adv-x="596" 
d="M58 458q-7 4 -7 11v122q0 8 4.5 11t11.5 -1l472 -230q6 -3 6 -9v-41q0 -7 -6 -10l-472 -229q-7 -4 -11.5 -1.5t-4.5 10.5v123q0 7 7 10l287 118z" />
    <glyph glyph-name="question" unicode="?" horiz-adv-x="526" 
d="M327 247q0 -11 -11 -11h-99q-10 0 -10 11q1 59 21.5 104t67.5 80q17 13 29 23t19.5 20.5t11.5 21.5t4 26q0 29 -19.5 49t-64.5 20q-44 0 -79.5 -23t-60.5 -65q-6 -11 -15 -5l-86 47q-11 4 -5 13q34 73 100.5 113.5t147.5 40.5q50 0 91 -11.5t70 -33.5t44.5 -53.5
t15.5 -70.5q0 -33 -9 -59.5t-23.5 -47.5t-34 -38t-40.5 -32q-34 -23 -49 -53.5t-16 -65.5zM265 154q36 0 59.5 -22t23.5 -60t-23.5 -60.5t-59.5 -22.5q-35 0 -59 22.5t-24 60.5t24 60t59 22z" />
    <glyph glyph-name="at" unicode="@" horiz-adv-x="874" 
d="M637 419q13 0 11 -13l-52 -282q-6 -32 5 -53t41 -21q26 0 46.5 19t35 49.5t22 69t7.5 77.5q0 66 -20 118t-57 88.5t-90.5 55.5t-119.5 19q-76 0 -138 -24t-107 -67.5t-70 -103.5t-27 -132q-2 -60 13.5 -109.5t46.5 -85.5t77.5 -56.5t106.5 -22.5q13 0 11 -12l-9 -51
q0 -9 -10 -9q-75 1 -134 27t-99 70t-60.5 104.5t-18.5 130.5q2 90 32 165t84 129.5t129.5 85t168.5 30.5q85 0 152.5 -25.5t115 -72.5t72.5 -112.5t25 -145.5q0 -59 -13.5 -111t-39 -90.5t-62 -60.5t-82.5 -22q-31 0 -54.5 11.5t-38.5 31.5t-20.5 47.5t-1.5 60.5
q-22 -31 -59 -49.5t-82 -18.5q-38 0 -68 14t-49 39.5t-25.5 60.5t0.5 77q8 39 25.5 72t43.5 57t58.5 37t69.5 13q38 0 67 -15t45 -43l13 42q4 7 11 7h72zM442 337q-45 0 -70.5 -25.5t-33.5 -66.5q-8 -45 9.5 -71t60.5 -26q41 0 71 25t38 70t-12.5 69.5t-62.5 24.5z" />
    <glyph glyph-name="A" unicode="A" horiz-adv-x="757" 
d="M399 705q7 0 10 -6l315 -684q7 -15 -10 -15h-130q-7 0 -10 6l-58 134h-274l-57 -134q-3 -6 -11 -6h-129q-18 0 -11 15l315 684q3 6 10 6h40zM467 261l-88 210l-88 -210h176z" />
    <glyph glyph-name="B" unicode="B" horiz-adv-x="665" 
d="M72 689q0 11 11 11h271q238 0 238 -175q0 -47 -22.5 -89t-76.5 -70q61 -20 92.5 -63.5t31.5 -104.5q0 -96 -63 -147t-187 -51h-284q-11 0 -11 11v678zM212 413h120q115 0 115 85q0 41 -24 58t-87 17h-124v-160zM212 127h142q67 0 92.5 20.5t25.5 63.5q0 50 -34 67t-94 17
h-132v-168z" />
    <glyph glyph-name="C" unicode="C" horiz-adv-x="729" 
d="M689 568q7 -9 -3 -14l-95 -56q-9 -4 -15 3q-57 82 -171 82q-99 0 -156 -61.5t-57 -170.5q0 -110 57 -172t157 -62q59 0 101.5 22t71.5 62q6 9 15 4l97 -53q9 -4 4 -14q-47 -73 -120 -111.5t-171 -38.5q-80 0 -146 26.5t-112.5 74.5t-72 114.5t-25.5 147.5q0 80 25 146.5
t71.5 114t112 74t145.5 26.5q97 0 170 -37.5t117 -106.5z" />
    <glyph glyph-name="D" unicode="D" horiz-adv-x="753" 
d="M72 689q0 11 11 11h252q88 0 157 -25t116.5 -70t72.5 -108t25 -140q0 -78 -25.5 -144t-73.5 -113t-117 -73.5t-155 -26.5h-252q-11 0 -11 11v678zM212 129h124q110 0 167.5 61.5t57.5 166.5q0 102 -56 158t-169 56h-124v-442z" />
    <glyph glyph-name="E" unicode="E" horiz-adv-x="584" 
d="M72 689q0 11 11 11h435q10 0 10 -11v-108q0 -10 -10 -10h-306v-155h268q11 0 11 -11v-101q0 -10 -11 -10h-268v-165h310q11 0 11 -10v-108q0 -11 -11 -11h-439q-11 0 -11 11v678z" />
    <glyph glyph-name="F" unicode="F" horiz-adv-x="571" 
d="M506 276q0 -11 -11 -11h-283v-254q0 -11 -11 -11h-118q-11 0 -11 11v678q0 11 11 11h425q11 0 11 -11v-108q0 -10 -11 -10h-296v-186h283q11 0 11 -10v-99z" />
    <glyph glyph-name="G" unicode="G" horiz-adv-x="808" 
d="M424 267q-10 0 -10 11v92q0 11 10 11h324q10 0 10 -10q3 -21 3 -43q0 -75 -24.5 -137.5t-69.5 -107.5t-108.5 -70t-141.5 -25q-82 0 -150 26.5t-117 74t-75.5 114.5t-26.5 148q0 80 26 146t73.5 114t114 74.5t146.5 26.5q98 0 175.5 -36.5t121.5 -107.5q6 -9 -3 -15
l-96 -55q-9 -5 -15 4q-29 42 -74.5 61.5t-102.5 19.5q-51 0 -92.5 -16.5t-70 -46.5t-44 -73.5t-15.5 -97.5t15.5 -97.5t45 -73.5t71.5 -46.5t95 -16.5q42 0 76.5 11t60 30.5t40 48t16.5 62.5h-188z" />
    <glyph glyph-name="H" unicode="H" horiz-adv-x="711" 
d="M628 700q11 0 11 -11v-678q0 -11 -11 -11h-119q-10 0 -10 11v268h-287v-268q0 -11 -11 -11h-119q-10 0 -10 11v678q0 11 10 11h119q11 0 11 -11v-279h287v279q0 11 10 11h119z" />
    <glyph glyph-name="I" unicode="I" horiz-adv-x="283" 
d="M201 700q11 0 11 -11v-678q0 -11 -11 -11h-118q-11 0 -11 11v678q0 11 11 11h118z" />
    <glyph glyph-name="J" unicode="J" horiz-adv-x="283" 
d="M201 700q11 0 11 -11v-629q0 -120 -58 -179t-174 -61q-11 0 -11 11v105q0 11 11 11q51 2 71.5 27t20.5 86v629q0 11 11 11h118z" />
    <glyph glyph-name="K" unicode="K" horiz-adv-x="672" 
d="M72 689q0 11 11 11h119q10 0 10 -11v-295l267 300q6 6 13 6h145q24 0 8 -18l-292 -311l302 -353q7 -8 4.5 -13t-12.5 -5h-154q-9 0 -15 7l-266 325v-321q0 -11 -10 -11h-119q-11 0 -11 11v678z" />
    <glyph glyph-name="L" unicode="L" horiz-adv-x="574" 
d="M202 700q10 0 10 -11v-558h310q11 0 11 -11v-109q0 -11 -11 -11h-439q-11 0 -11 11v678q0 11 11 11h119z" />
    <glyph glyph-name="M" unicode="M" horiz-adv-x="919" 
d="M734 704q9 0 11 -8l132 -683q2 -13 -11 -13h-118q-9 0 -11 9l-69 390l-183 -367q-3 -7 -9 -7h-32q-6 0 -10 7l-182 367l-69 -390q-1 -9 -11 -9h-119q-12 0 -10 13l132 683q2 8 10 8h39q6 0 9 -6l227 -451l226 451q3 6 10 6h38z" />
    <glyph glyph-name="N" unicode="N" horiz-adv-x="724" 
d="M642 700q11 0 11 -11v-683q0 -11 -11 -11h-35q-8 0 -13 6l-386 434v-424q0 -11 -10 -11h-115q-11 0 -11 11v683q0 11 11 11h34q8 0 14 -6l386 -434v424q0 11 10 11h115z" />
    <glyph glyph-name="O" unicode="O" horiz-adv-x="815" 
d="M408 712q79 0 145 -26.5t114 -74.5t74.5 -114.5t26.5 -146.5q0 -81 -26.5 -147.5t-74.5 -114t-114 -74t-145 -26.5t-145.5 26.5t-114 74t-74 114t-26.5 147.5q0 80 26.5 146.5t74 114.5t114 74.5t145.5 26.5zM408 583q-50 0 -90 -16.5t-68 -47t-43 -73.5t-15 -96t15 -96
t43 -73.5t68 -47t90 -16.5t89.5 16.5t67.5 47t43 73.5t15 96t-15 96t-43 73.5t-67.5 47t-89.5 16.5z" />
    <glyph glyph-name="P" unicode="P" horiz-adv-x="620" 
d="M72 689q0 11 11 11h254q121 0 188 -62.5t67 -174.5t-67 -174.5t-188 -62.5h-125v-215q0 -11 -11 -11h-118q-11 0 -11 11v678zM212 354h108q63 0 95.5 26t32.5 84t-32 83t-96 25h-108v-218z" />
    <glyph glyph-name="Q" unicode="Q" horiz-adv-x="816" 
d="M408 712q80 0 146 -26.5t114 -74.5t74.5 -114.5t26.5 -146.5q0 -68 -19 -126t-54 -104t-84.5 -77t-109.5 -45l89 -162q10 -16 -9 -16h-132q-7 0 -10 6l-83 165q-69 8 -126 37.5t-98 76t-63.5 109t-22.5 136.5q0 80 26.5 146.5t74.5 114.5t114.5 74.5t145.5 26.5zM408 585
q-51 0 -90.5 -16.5t-67.5 -47.5t-42.5 -74.5t-14.5 -96.5t14.5 -96.5t42.5 -74.5t67.5 -48t90.5 -17t90.5 17t67.5 48t42.5 74.5t14.5 96.5t-14.5 96.5t-42.5 74.5t-67.5 47.5t-90.5 16.5z" />
    <glyph glyph-name="R" unicode="R" horiz-adv-x="654" 
d="M212 11q0 -11 -10 -11h-119q-11 0 -11 11v678q0 11 11 11h257q123 0 188 -56t65 -167q0 -47 -13 -83.5t-35.5 -63t-52.5 -44t-64 -25.5l152 -244q11 -17 -8 -17h-151q-5 0 -8 5l-131 232h-70v-226zM212 359h118q119 0 119 113q0 53 -29 76.5t-93 23.5h-115v-213z" />
    <glyph glyph-name="S" unicode="S" horiz-adv-x="605" 
d="M464 535q-3 -4 -7.5 -4t-7.5 3q-34 29 -72 41t-83 12q-29 0 -48 -5.5t-30.5 -15.5t-16 -22t-4.5 -26q0 -22 10 -38t29 -28t45.5 -21.5t59.5 -19.5q44 -13 84.5 -29t71.5 -39.5t50 -57.5t19 -82q0 -50 -19 -90t-54 -67.5t-84 -42.5t-109 -15q-75 0 -141 20.5t-124 71.5
q-9 7 -2 14l71 87q8 8 16 0q44 -41 90.5 -54.5t91.5 -13.5q36 0 58.5 7t36 18t18.5 25.5t5 29.5q0 21 -8 35.5t-24.5 25t-41 19t-58.5 17.5q-51 15 -94 33.5t-74.5 44.5t-49.5 61.5t-18 83.5q0 46 17.5 82.5t49 62.5t76.5 40t100 14q69 0 128.5 -16.5t115.5 -62.5
q9 -7 1 -15z" />
    <glyph glyph-name="T" unicode="T" horiz-adv-x="599" 
d="M30 689q0 11 10 11h519q11 0 11 -11v-109q0 -11 -11 -11h-189v-558q0 -11 -11 -11h-119q-10 0 -10 11v558h-190q-10 0 -10 11v109z" />
    <glyph glyph-name="U" unicode="U" horiz-adv-x="689" 
d="M611 700q11 0 11 -11v-428q0 -63 -19 -113.5t-54.5 -86t-87 -54.5t-116.5 -19t-116.5 19t-87 54.5t-54.5 86t-19 113.5v428q0 11 11 11h119q10 0 10 -11v-415q0 -75 34 -115t103 -40t103 40t34 115v415q0 11 11 11h118z" />
    <glyph glyph-name="V" unicode="V" horiz-adv-x="735" 
d="M703 700q15 0 8 -15l-314 -684q-3 -6 -10 -6h-39q-7 0 -10 6l-314 684q-7 15 8 15h134q7 0 10 -7l193 -455l190 455q3 7 10 7h134z" />
    <glyph glyph-name="W" unicode="W" horiz-adv-x="1078" 
d="M1030 700q13 0 8 -14l-243 -684q-2 -7 -10 -7h-39q-7 0 -10 6l-197 442l-196 -442q-3 -6 -11 -6h-39q-7 0 -9 7l-243 684q-5 14 7 14h128q8 0 10 -7l145 -429l182 418q3 6 10 6h31q7 0 10 -6l184 -418l144 429q2 7 10 7h128z" />
    <glyph glyph-name="X" unicode="X" horiz-adv-x="684" 
d="M643 700q18 0 7 -17l-218 -334l220 -333q10 -16 -6 -16h-139q-6 0 -9 5l-156 251l-156 -251q-3 -5 -9 -5h-138q-8 0 -10 4t3 12l220 333l-218 334q-11 17 8 17h137q5 0 8 -5l155 -248l155 248q3 5 8 5h138z" />
    <glyph glyph-name="Y" unicode="Y" horiz-adv-x="672" 
d="M641 700q16 0 6 -16l-241 -408v-265q0 -11 -10 -11h-119q-11 0 -11 11v265l-240 408q-10 16 6 16h140q6 0 9 -6l155 -289l156 289q3 6 9 6h140z" />
    <glyph glyph-name="Z" unicode="Z" horiz-adv-x="644" 
d="M68 569q-11 0 -11 11v109q0 11 11 11h509q11 0 11 -11v-37q0 -5 -3 -10l-330 -513l327 2q11 0 11 -11v-109q0 -11 -11 -11h-519q-11 0 -11 11v37q0 6 3 10l329 511h-316z" />
    <glyph glyph-name="bracketleft" unicode="[" horiz-adv-x="339" 
d="M87 729q0 11 11 11h217q10 0 10 -11v-65q0 -11 -10 -11h-114v-756h114q10 0 10 -11v-65q0 -11 -10 -11h-217q-11 0 -11 11v908z" />
    <glyph glyph-name="backslash" unicode="\" horiz-adv-x="524" 
d="M34 724q-6 16 10 16h83q6 0 9 -6l354 -758q6 -16 -10 -16h-83q-6 0 -9 6z" />
    <glyph glyph-name="bracketright" unicode="]" horiz-adv-x="339" 
d="M242 740q11 0 11 -11v-908q0 -11 -11 -11h-217q-11 0 -11 11v65q0 11 11 11h114v756h-114q-11 0 -11 11v65q0 11 11 11h217z" />
    <glyph glyph-name="asciicircum" unicode="^" horiz-adv-x="606" 
d="M552 325q8 -16 -10 -16h-115q-6 0 -9 6l-114 239l-115 -239q-3 -6 -10 -6h-115q-19 0 -9 16l218 382q3 5 10 5h41q6 0 9 -5z" />
    <glyph glyph-name="underscore" unicode="_" horiz-adv-x="482" 
d="M482 -163q0 -11 -10 -11h-461q-11 0 -11 11v86q0 11 11 11h461q10 0 10 -11v-86z" />
    <glyph glyph-name="grave" unicode="`" horiz-adv-x="358" 
d="M282 586q8 -16 -9 -16h-102q-5 0 -8 4l-86 112q-14 17 8 17h125q6 0 9 -5z" />
    <glyph glyph-name="a" unicode="a" horiz-adv-x="492" 
d="M244 452q94 0 145.5 -46.5t51.5 -134.5v-260q0 -11 -11 -11h-78q-8 0 -10 8l-12 49q-27 -32 -69.5 -50.5t-87.5 -18.5q-72 0 -107.5 35t-35.5 95q0 54 40.5 91t118.5 45l124 15v13q0 36 -21.5 52t-61.5 16q-65 0 -117 -37q-10 -6 -16 3l-43 70q-5 9 4 15q83 51 186 51z
M227 178q-32 -4 -48 -14.5t-16 -36.5q0 -48 52 -48q42 0 70 26.5t28 68.5v15z" />
    <glyph glyph-name="b" unicode="b" horiz-adv-x="569" 
d="M323 452q47 0 85.5 -16.5t66.5 -47t43.5 -73t15.5 -94.5t-15.5 -95t-43.5 -73.5t-67 -47.5t-86 -17q-51 0 -89 22.5t-62 62.5l-18 -65q-2 -8 -10 -8h-78q-10 0 -10 11v718q0 11 10 11h110q10 0 10 -11v-339q24 29 58.5 45.5t79.5 16.5zM293 339q-49 0 -79.5 -33
t-30.5 -85q0 -53 30.5 -86.5t79.5 -33.5q54 0 81 34t27 86t-27 85t-81 33z" />
    <glyph glyph-name="c" unicode="c" horiz-adv-x="487" 
d="M464 351q7 -9 -3 -14l-79 -44q-9 -5 -16 4q-15 22 -37 34.5t-54 12.5q-51 0 -79 -35.5t-28 -87.5q0 -26 7 -48.5t21 -39.5t34.5 -27t47.5 -10q30 0 51 12.5t35 34.5q3 4 7 5.5t9 -1.5l78 -44q9 -4 4 -14q-31 -48 -80 -74.5t-115 -26.5q-51 0 -93.5 17.5t-73 48t-48 73.5
t-17.5 94t17.5 93t48 73t73.5 48t94 17q62 0 114 -26t82 -75z" />
    <glyph glyph-name="d" unicode="d" horiz-adv-x="567" 
d="M244 452q46 0 80 -16.5t58 -44.5v338q0 11 11 11h109q11 0 11 -11v-718q0 -11 -11 -11h-78q-8 0 -10 8l-18 65q-23 -40 -61 -62.5t-89 -22.5q-47 0 -86 16.5t-66.5 47t-43 73.5t-15.5 95t15.5 94.5t43.5 73t66 47.5t84 17zM276 339q-54 0 -81 -34t-27 -85t27 -85t81 -34
q48 0 78.5 33.5t30.5 85.5t-30.5 85.5t-78.5 33.5z" />
    <glyph glyph-name="e" unicode="e" horiz-adv-x="520" 
d="M490 241q-1 -20 -2.5 -31.5t-3.5 -17.5t-5.5 -7.5t-7.5 -1.5h-305q5 -43 34.5 -68t74.5 -25q33 0 59 12t46 34q8 7 16 -1l60 -57q8 -7 0 -15q-35 -35 -82.5 -55t-104.5 -20q-54 0 -97.5 17t-74 48t-46.5 73t-16 93t16.5 93.5t47 73.5t73 48.5t94.5 17.5q50 0 92 -15
t72 -42.5t46 -66.5t14 -87zM366 264q-2 35 -26.5 61t-73.5 26q-42 0 -70 -23.5t-30 -63.5h200z" />
    <glyph glyph-name="f" unicode="f" horiz-adv-x="406" 
d="M365 344q0 -11 -10 -11h-128v-322q0 -11 -11 -11h-109q-11 0 -11 11v322h-69q-11 0 -11 11v85q0 11 11 11h69v108q0 89 55.5 140.5t151.5 51.5q44 0 78 -8t69 -24q9 -4 4 -14l-37 -80q-5 -9 -15 -6q-22 11 -44 16.5t-47 5.5q-45 0 -64.5 -26.5t-19.5 -65.5v-98h128
q10 0 10 -11v-85z" />
    <glyph glyph-name="g" unicode="g" horiz-adv-x="525" 
d="M508 344q0 -11 -11 -11l-91 -1q18 -13 28.5 -33t10.5 -50q0 -57 -47.5 -92.5t-129.5 -35.5q-45 0 -84 11q-7 -10 -7 -21q0 -30 47 -36l111 -15q81 -11 122 -37.5t41 -79.5q0 -69 -68.5 -106t-189.5 -37q-118 0 -174.5 33t-56.5 93q0 65 70 106q-17 23 -17 54q0 49 48 80
q-57 45 -57 121q0 72 47 118.5t140 46.5q22 0 45.5 -2.5t45.5 -9.5h166q11 0 11 -11v-85zM257 357q-38 0 -58 -20t-20 -52t21 -50.5t56 -18.5q38 0 59 19t21 51t-20.5 51.5t-58.5 19.5zM161 -14q-22 -17 -22 -44t26 -40t83 -13t87.5 8.5t30.5 28.5q0 15 -11 22.5t-40 12.5
l-110 15q-12 2 -23 4.5t-21 5.5z" />
    <glyph glyph-name="h" unicode="h" horiz-adv-x="541" 
d="M175 740q11 0 11 -11v-341q25 30 59.5 47t76.5 17q82 0 126.5 -52t44.5 -146v-243q0 -11 -10 -11h-110q-10 0 -10 11v227q0 45 -19.5 72t-64.5 27q-41 0 -67 -31.5t-26 -80.5v-214q0 -11 -11 -11h-109q-11 0 -11 11v718q0 11 11 11h109z" />
    <glyph glyph-name="i" unicode="i" horiz-adv-x="233" 
d="M172 440q10 0 10 -11v-418q0 -11 -10 -11h-110q-10 0 -10 11v418q0 11 10 11h110zM117 674q33 0 54 -19t21 -53q0 -33 -21 -52.5t-54 -19.5t-54 19.5t-21 52.5q0 34 21 53t54 19z" />
    <glyph glyph-name="j" unicode="j" horiz-adv-x="230" 
d="M171 440q11 0 11 -11v-416q0 -102 -45 -151.5t-138 -51.5q-11 0 -11 11v101q0 11 11 11q29 3 40.5 18.5t11.5 49.5v428q0 11 11 11h109zM117 674q33 0 54 -19t21 -53q0 -33 -21 -52.5t-54 -19.5t-54 19.5t-21 52.5q0 34 21 53t54 19z" />
    <glyph glyph-name="k" unicode="k" horiz-adv-x="554" 
d="M55 729q0 11 11 11h109q11 0 11 -11v-475l162 182q3 4 8 4h156q5 0 6 -4t-2 -7l-196 -192l210 -227q4 -4 2.5 -7t-5.5 -3h-162q-5 0 -8 4l-171 199v-192q0 -11 -11 -11h-109q-11 0 -11 11v718z" />
    <glyph glyph-name="l" unicode="l" horiz-adv-x="238" 
d="M184 11q0 -11 -11 -11h-107q-11 0 -11 11v718q0 11 11 11h107q11 0 11 -11v-718z" />
    <glyph glyph-name="m" unicode="m" horiz-adv-x="830" 
d="M51 429q0 11 11 11h78q8 0 10 -8l17 -63q26 38 64 60.5t87 22.5q103 0 143 -87q26 41 66 64t89 23q81 0 123.5 -49.5t42.5 -139.5v-252q0 -11 -11 -11h-109q-11 0 -11 11v232q0 42 -17.5 68.5t-59.5 26.5q-40 0 -66 -27t-26 -76v-224q0 -11 -11 -11h-109q-11 0 -11 11
v231q0 45 -16.5 70.5t-58.5 25.5t-68 -32t-26 -80v-215q0 -11 -11 -11h-109q-11 0 -11 11v418z" />
    <glyph glyph-name="n" unicode="n" horiz-adv-x="536" 
d="M140 440q8 0 10 -8l16 -62q26 38 64.5 60t87.5 22q82 0 126.5 -51.5t44.5 -145.5v-244q0 -11 -11 -11h-109q-11 0 -11 11v228q0 45 -18.5 71.5t-63.5 26.5q-42 0 -68 -31t-26 -80v-215q0 -11 -10 -11h-110q-10 0 -10 11v418q0 11 10 11h78z" />
    <glyph glyph-name="o" unicode="o" horiz-adv-x="555" 
d="M277 452q54 0 98.5 -17t77 -47.5t50 -73.5t17.5 -94t-17.5 -93.5t-49.5 -73.5t-77 -48t-99 -17t-98.5 17t-76.5 48t-49.5 73.5t-17.5 93.5t17.5 94t49.5 73.5t76.5 47.5t98.5 17zM277 348q-49 0 -79 -33.5t-30 -93.5t30 -94.5t79 -34.5q50 0 80 34.5t30 94.5t-30 93.5
t-80 33.5z" />
    <glyph glyph-name="p" unicode="p" horiz-adv-x="565" 
d="M319 452q47 0 86 -17t67 -47.5t43.5 -73.5t15.5 -95t-15.5 -94.5t-43.5 -73t-67 -47t-85 -16.5q-45 0 -79.5 16.5t-58.5 45.5v-229q0 -11 -11 -11h-109q-11 0 -11 11v608q0 11 11 11h77q9 0 11 -8l18 -65q23 40 61.5 62.5t89.5 22.5zM289 340q-48 0 -78.5 -33.5
t-30.5 -87.5q0 -52 30.5 -85t78.5 -33q53 0 80.5 33.5t27.5 84.5q0 52 -27.5 86.5t-80.5 34.5z" />
    <glyph glyph-name="q" unicode="q" horiz-adv-x="565" 
d="M247 452q51 0 89 -23t62 -62l17 65q3 8 11 8h78q10 0 10 -11v-608q0 -11 -10 -11h-110q-10 0 -10 11v229q-24 -29 -58.5 -45.5t-79.5 -16.5q-46 0 -85 16.5t-67 47t-43.5 73t-15.5 94.5t15.5 95t43.5 73.5t67 47.5t86 17zM276 340q-53 0 -80.5 -34.5t-27.5 -86.5
q0 -51 27.5 -84.5t80.5 -33.5q48 0 79 33t31 85q0 54 -31 87.5t-79 33.5z" />
    <glyph glyph-name="r" unicode="r" horiz-adv-x="368" 
d="M52 429q0 11 10 11h78q8 0 10 -8l18 -76q26 41 66 66.5t99 29.5q10 0 10 -11v-104q0 -12 -11 -12q-68 2 -109 -32.5t-41 -106.5v-175q0 -11 -10 -11h-110q-10 0 -10 11v418z" />
    <glyph glyph-name="s" unicode="s" horiz-adv-x="459" 
d="M366 312q-6 -8 -16 -1q-23 17 -53 29t-60 12q-29 0 -43.5 -9t-14.5 -24q0 -21 18 -32.5t69 -22.5q89 -19 127.5 -50t38.5 -85q0 -31 -14 -57t-39.5 -45t-61.5 -29t-80 -10q-60 0 -114 16.5t-91 43.5q-7 6 -2 14l44 74q6 9 16 3q30 -22 67 -36.5t76 -14.5q29 0 47.5 11
t18.5 27q0 9 -3.5 15.5t-14 12.5t-30 12t-52.5 14q-81 18 -117.5 51t-36.5 86q0 62 50 98.5t138 36.5q56 0 104 -16t83 -42q7 -6 2 -15z" />
    <glyph glyph-name="t" unicode="t" horiz-adv-x="406" 
d="M215 550q11 0 11 -11v-99h123q10 0 10 -11v-85q0 -11 -10 -11h-124v-169q0 -35 12 -49.5t36 -14.5q17 0 33 4.5t32 12.5q5 2 9.5 1t6.5 -7l31 -78q4 -9 -4 -14q-29 -14 -62.5 -22.5t-67.5 -8.5q-155 0 -155 162v183h-69q-11 0 -11 11v85q0 11 11 11h76l59 104q3 6 9 6h44
z" />
    <glyph glyph-name="u" unicode="u" horiz-adv-x="534" 
d="M472 440q11 0 11 -11v-418q0 -11 -11 -11h-78q-8 0 -10 8l-16 62q-24 -38 -61.5 -60t-85.5 -22q-82 0 -127.5 51.5t-45.5 145.5v244q0 11 11 11h109q11 0 11 -11v-228q0 -45 18 -70.5t62 -25.5q42 0 67.5 30.5t25.5 79.5v214q0 11 11 11h109z" />
    <glyph glyph-name="v" unicode="v" horiz-adv-x="520" 
d="M18 425q-8 15 9 15h124q8 0 11 -7l98 -234l99 234q3 7 10 7h124q17 0 10 -15l-213 -423q-3 -6 -9 -6h-42q-6 0 -9 6z" />
    <glyph glyph-name="w" unicode="w" horiz-adv-x="784" 
d="M756 440q17 0 10 -15l-187 -424q-3 -6 -10 -6h-41q-6 0 -9 6l-127 262l-127 -262q-3 -6 -9 -6h-41q-6 0 -9 6l-189 424q-5 15 10 15h122q8 0 10 -7l88 -233l115 235q3 5 9 5h41q7 0 10 -5l115 -235l87 233q4 7 10 7h122z" />
    <glyph glyph-name="x" unicode="x" horiz-adv-x="530" 
d="M496 440q21 0 9 -17l-156 -203l156 -203q12 -17 -9 -17h-138q-5 0 -8 5l-86 135l-86 -135q-3 -5 -9 -5h-135q-10 0 -12 4.5t4 12.5l155 203l-155 203q-14 17 8 17h138q5 0 8 -5l87 -135l86 135q3 5 9 5h134z" />
    <glyph glyph-name="y" unicode="y" horiz-adv-x="528" 
d="M18 425q-8 15 9 15h128q7 0 10 -7l110 -277l98 277q2 7 9 7h119q17 0 10 -15l-253 -609q-3 -6 -11 -6h-123q-17 0 -9 15l87 188z" />
    <glyph glyph-name="z" unicode="z" horiz-adv-x="460" 
d="M51 336q-11 0 -11 10v83q0 11 11 11h358q11 0 11 -11v-37q0 -6 -5 -13l-195 -275h198q11 0 11 -10v-83q0 -11 -11 -11h-376q-10 0 -10 11v36q0 3 1 7.5t5 9.5l195 272h-182z" />
    <glyph glyph-name="braceleft" unicode="{" horiz-adv-x="320" 
d="M306 664q0 -11 -11 -11q-30 -1 -47.5 -8t-26.5 -20.5t-11.5 -34.5t-2.5 -50v-143q0 -48 -24 -83t-71 -42q47 -7 71 -41t24 -83v-137q0 -29 2.5 -50.5t11.5 -35t26.5 -20.5t47.5 -8q11 0 11 -11v-66q0 -10 -10 -10q-59 0 -98 13.5t-62.5 40.5t-33 67t-9.5 91v120
q0 41 -15.5 60t-52.5 21q-11 0 -11 10v83q0 11 11 11q37 2 52.5 21t15.5 60v120q0 52 9.5 91.5t33 66.5t62.5 40.5t98 13.5q10 0 10 -10v-66z" />
    <glyph glyph-name="bar" unicode="|" horiz-adv-x="281" 
d="M194 -199q0 -11 -11 -11h-85q-11 0 -11 11v958q0 11 11 11h85q11 0 11 -11v-958z" />
    <glyph glyph-name="braceright" unicode="}" horiz-adv-x="320" 
d="M25 653q-11 0 -11 11v66q0 10 11 10q59 0 98 -13.5t62 -40.5t33 -66.5t10 -91.5v-120q0 -41 15 -60t52 -21q11 0 11 -11v-83q0 -10 -11 -10q-37 -2 -52 -21t-15 -60v-120q0 -51 -9.5 -91t-32.5 -67t-62.5 -40.5t-98.5 -13.5q-11 0 -11 10v66q0 11 11 11q31 1 48.5 8
t26.5 20.5t11.5 35t2.5 50.5v137q0 49 24 83t71 41q-47 7 -71 42t-24 83v143q0 29 -2.5 50t-11.5 34.5t-26.5 20.5t-48.5 8z" />
    <glyph glyph-name="asciitilde" unicode="~" horiz-adv-x="609" 
d="M548 360q10 -2 10 -10q-1 -37 -10 -68.5t-26.5 -54.5t-44 -36t-62.5 -13q-44 0 -74 16.5t-55 35.5q-23 17 -41 27t-38 10q-26 0 -36.5 -18.5t-11.5 -50.5q-2 -11 -13 -11l-86 13q-9 0 -9 10q1 36 10 67.5t26 54.5t43.5 36.5t62.5 13.5q44 0 75 -17t60 -39
q17 -12 35 -22.5t39 -10.5q26 0 36 18t12 50q0 13 13 11z" />
    <glyph glyph-name="exclamdown" unicode="&#xa1;" horiz-adv-x="322" 
d="M161 472q36 0 62.5 -24t26.5 -65q0 -40 -26.5 -65t-62.5 -25t-62.5 25t-26.5 65q0 41 26.5 65t62.5 24zM202 201q10 0 10 -9l21 -195v-186q0 -11 -11 -11h-122q-11 0 -11 11v186l21 195q2 9 11 9h81z" />
    <glyph glyph-name="cent" unicode="&#xa2;" horiz-adv-x="529" 
d="M333 720q11 0 11 -11v-116q48 -8 89 -31t72 -65q7 -8 -2 -15l-85 -58q-8 -5 -16 3q-18 25 -47 38.5t-65 13.5q-55 0 -89.5 -33t-34.5 -96q0 -62 34.5 -95.5t89.5 -33.5q76 0 113 53q7 9 16 3l84 -58q10 -7 3 -15q-31 -42 -72.5 -65.5t-89.5 -30.5v-117q0 -11 -11 -11h-85
q-11 0 -11 11v117q-46 8 -83.5 28.5t-63.5 52t-40.5 72t-14.5 89.5t14.5 90t40.5 72t63.5 51.5t83.5 28.5v117q0 11 11 11h85z" />
    <glyph glyph-name="sterling" unicode="&#xa3;" horiz-adv-x="760" 
d="M544 324q0 -11 -10 -11h-181q-2 -37 -3 -76.5t-7 -77.5q32 -23 67.5 -42.5t70.5 -19.5q43 0 72 23t44 80q2 13 14 8l84 -34q9 -4 7 -13q-17 -52 -39.5 -86t-51 -54.5t-62.5 -29t-75 -8.5q-52 0 -95.5 21.5t-78.5 47.5q-20 -30 -50 -48t-70 -18q-36 0 -59.5 11t-37.5 27.5
t-20 37t-6 39.5q0 29 10 52t26.5 38.5t39.5 23.5t48 8q23 0 44 -6q1 14 1.5 24.5t1 20.5t1 22t0.5 29h-75q-11 0 -11 11v75q0 11 11 11h77l2 65q4 108 57.5 166.5t152.5 58.5q85 0 133.5 -42.5t70.5 -118.5q3 -9 -6 -13l-92 -34q-11 -4 -14 8q-4 16 -11.5 31t-18 26t-26 18
t-36.5 7q-45 0 -62.5 -27t-19.5 -77l-4 -68h177q10 0 10 -11v-75zM215 117q-18 12 -33 12q-11 0 -20 -6t-9 -23q0 -11 6.5 -18t17.5 -7q12 0 21.5 9.5t16.5 32.5z" />
    <glyph glyph-name="currency" unicode="&#xa4;" horiz-adv-x="607" 
d="M302 529q32 0 58 -8.5t47 -20.5l70 71q7 8 15 0l51 -51q7 -8 0 -15l-69 -66q16 -24 26 -51.5t10 -61.5q0 -31 -9 -57t-23 -49l69 -66q8 -8 0 -15l-51 -51q-8 -8 -15 0l-66 67q-23 -14 -51 -24t-61 -10q-34 0 -61 10t-50 24l-66 -67q-7 -9 -14 0l-52 51q-7 7 0 15l68 66
q-14 23 -22.5 49t-8.5 57q0 34 9.5 61.5t26.5 50.5l-69 67q-7 7 0 15l52 51q8 8 15 0l68 -71q22 13 48 21t55 8zM304 426q-47 0 -75 -27.5t-28 -72.5t28 -73t75 -28q46 0 73.5 28t27.5 73t-27.5 72.5t-73.5 27.5z" />
    <glyph glyph-name="yen" unicode="&#xa5;" horiz-adv-x="668" 
d="M63 390q0 11 11 11h109l-148 283q-8 16 9 16h136q7 0 10 -6l134 -293h20l134 293q3 6 10 6h136q17 0 9 -16l-148 -283h109q10 0 10 -11v-60q0 -11 -10 -11h-520q-11 0 -11 11v60zM63 248q0 11 11 11h520q10 0 10 -11v-60q0 -11 -10 -11h-190v-166q0 -11 -11 -11h-118
q-11 0 -11 11v166h-190q-11 0 -11 11v60z" />
    <glyph glyph-name="brokenbar" unicode="&#xa6;" horiz-adv-x="281" 
d="M194 389q0 -11 -11 -11h-85q-11 0 -11 11v375q0 11 11 11h85q11 0 11 -11v-375zM194 -199q0 -11 -11 -11h-85q-11 0 -11 11v370q0 11 11 11h85q11 0 11 -11v-370z" />
    <glyph glyph-name="section" unicode="&#xa7;" horiz-adv-x="592" 
d="M462 530q-6 -8 -15 -1q-34 28 -77 46t-88 18q-101 0 -101 -65q0 -15 6.5 -26.5t23.5 -21.5t45.5 -20.5t72.5 -22.5q57 -16 99 -34t69 -40t40 -49.5t13 -63.5q0 -48 -22 -81t-62 -54q35 -25 54.5 -58.5t19.5 -80.5q0 -85 -63 -134t-175 -49q-72 0 -136 22t-118 70
q-8 6 -2 14l66 78q9 9 16 0q32 -31 74.5 -47.5t90.5 -16.5q57 0 81 16t24 46q0 16 -6.5 28.5t-23.5 23t-45.5 21t-72.5 22.5q-55 15 -96.5 33t-69 40.5t-41.5 50.5t-14 65q0 48 22 81t62 54q-74 51 -74 138q0 83 63 131.5t179 48.5q68 0 130.5 -20.5t116.5 -70.5q8 -6 1 -15
zM171 267q0 -20 16 -35.5t40 -26.5t52.5 -19t52.5 -13q43 5 59.5 23t16.5 44q0 20 -14.5 35t-37.5 26.5t-51.5 19t-57.5 13.5q-44 -5 -60 -23t-16 -44z" />
    <glyph glyph-name="dieresis" unicode="&#xa8;" horiz-adv-x="487" 
d="M142 708q32 0 50.5 -19.5t18.5 -49.5q0 -31 -18.5 -50t-50.5 -19q-33 0 -51.5 19t-18.5 50q0 30 18.5 49.5t51.5 19.5zM346 708q33 0 51 -19.5t18 -49.5q0 -31 -18 -50t-51 -19t-51 19t-18 50q0 30 18 49.5t51 19.5z" />
    <glyph glyph-name="copyright" unicode="&#xa9;" horiz-adv-x="824" 
d="M412 715q78 0 145 -28t115.5 -76.5t76.5 -115.5t28 -145t-28 -145t-76.5 -115.5t-115.5 -76.5t-145 -28t-145 28t-115.5 76.5t-76.5 115.5t-28 145t28 145t76.5 115.5t115.5 76.5t145 28zM412 661q-67 0 -123.5 -23.5t-97.5 -65.5t-64 -99t-23 -123t23 -123t64 -99
t97.5 -66t123.5 -24t123.5 24t98 66t64.5 99t23 123t-23 123t-64.5 99t-98 65.5t-123.5 23.5zM578 478q7 -8 -2 -14l-57 -45q-4 -3 -8 -2t-7 4q-33 36 -86 36q-44 0 -71.5 -25.5t-27.5 -80.5q0 -54 27.5 -80t71.5 -26q56 0 87 36q8 8 15 1l58 -44q8 -7 2 -15
q-27 -33 -69 -52.5t-94 -19.5q-46 0 -83 15.5t-63.5 42.5t-41 63.5t-14.5 78.5t14.5 78.5t41 63.5t63.5 42.5t83 15.5q52 0 93 -19.5t68 -53.5z" />
    <glyph glyph-name="ordfeminine" unicode="&#xaa;" horiz-adv-x="360" 
d="M185 702q67 0 104 -32.5t37 -93.5v-178q0 -11 -11 -11h-53q-8 0 -10 8l-9 32q-19 -23 -48.5 -35t-61.5 -12q-51 0 -74.5 24t-23.5 66q0 38 28.5 63.5t83.5 32.5l85 10v9q0 24 -15 34.5t-43 10.5q-21 0 -40.5 -6t-36.5 -17q-10 -5 -15 3l-28 44q-6 7 3 14q56 34 128 34z
M175 513q-22 -4 -33 -11.5t-11 -24.5q0 -31 36 -31q27 0 46 17t19 45v11z" />
    <glyph glyph-name="guillemotleft" unicode="&#xab;" horiz-adv-x="560" 
d="M53 261q-3 5 0 10l105 164q3 5 9 5h104q20 0 9 -16l-101 -158l101 -159q5 -7 2.5 -11.5t-11.5 -4.5h-104q-6 0 -9 6zM266 261q-3 5 0 10l104 164q3 5 9 5h117q9 0 11.5 -4.5t-2.5 -12.5l-114 -157l114 -158q5 -7 2.5 -12t-11.5 -5h-117q-6 0 -9 6z" />
    <glyph glyph-name="logicalnot" unicode="&#xac;" horiz-adv-x="613" 
d="M62 258q-11 0 -11 10v98q0 11 11 11h489q11 0 11 -11v-254q0 -11 -11 -11h-110q-10 0 -10 11v146h-369z" />
    <glyph glyph-name="registered" unicode="&#xae;" horiz-adv-x="720" 
d="M360 775q67 0 124 -24t99 -66t66 -99t24 -123q0 -67 -24 -124.5t-66 -99.5t-99 -65.5t-124 -23.5t-124 23.5t-99 65.5t-66 99.5t-24 124.5q0 66 24 123t66 99t99 66t124 24zM360 726q-57 0 -105 -20t-82 -55t-53 -83t-19 -105t19 -105.5t53 -83.5t82 -55t105 -20
t104.5 20t82 55t53.5 83.5t19 105.5t-19 105t-53.5 83t-82 55t-104.5 20zM228 621q0 10 11 10h140q64 0 99 -27.5t35 -78.5q0 -32 -16 -60t-56 -45l67 -103q11 -16 -8 -16h-80q-6 0 -9 5l-52 91h-41v-86q0 -10 -11 -10h-68q-11 0 -11 10v310zM318 475h39q30 0 46 9t16 31
t-12.5 30.5t-45.5 8.5h-43v-79z" />
    <glyph glyph-name="macron" unicode="&#xaf;" horiz-adv-x="466" 
d="M395 606q0 -11 -11 -11h-301q-11 0 -11 11v65q0 11 11 11h301q11 0 11 -11v-65z" />
    <glyph glyph-name="degree" unicode="&#xb0;" horiz-adv-x="405" 
d="M203 740q37 0 67.5 -12.5t53 -34.5t35 -52.5t12.5 -65.5t-12.5 -65.5t-35 -52.5t-53 -34.5t-67.5 -12.5t-67.5 12.5t-53 34.5t-35 52.5t-12.5 65.5t12.5 65.5t35 52.5t53 34.5t67.5 12.5zM203 659q-37 0 -59.5 -23t-22.5 -61t22.5 -61t59.5 -23t59 23t22 61t-22 61
t-59 23z" />
    <glyph glyph-name="plusminus" unicode="&#xb1;" horiz-adv-x="601" 
d="M349 542q11 0 11 -11v-163h179q10 0 10 -11v-93q0 -11 -10 -11h-179v-138h179q10 0 10 -11v-93q0 -11 -10 -11h-477q-11 0 -11 11v93q0 11 11 11h179v138h-179q-11 0 -11 11v93q0 11 11 11h179v163q0 11 11 11h97z" />
    <glyph glyph-name="twosuperior" unicode="&#xb2;" horiz-adv-x="338" 
d="M101 694q-5 -9 -15 -5l-60 24q-9 4 -6 14q20 49 62 76t99 27q64 0 100 -32.5t36 -86.5q0 -39 -18.5 -72t-54.5 -69l-70 -70h132q11 0 11 -10v-69q0 -11 -11 -11h-273q-11 0 -11 11v30q0 6 3 9l148 162q23 25 33 43.5t10 36.5t-11.5 29t-35.5 11q-45 0 -68 -48z" />
    <glyph glyph-name="threesuperior" unicode="&#xb3;" horiz-adv-x="349" 
d="M137 579q-11 0 -11 11v54q0 10 11 10h30q23 0 39 12.5t16 35.5q0 40 -47 40q-49 0 -70 -47q-6 -9 -14 -6l-61 25q-10 3 -7 13q19 50 59.5 76.5t102.5 26.5q65 0 102 -28t37 -78q0 -36 -18.5 -63.5t-49.5 -40.5q37 -12 54.5 -37t17.5 -60q0 -54 -41.5 -88.5t-110.5 -34.5
q-58 0 -98.5 26t-59.5 77q-3 9 6 13l62 26q9 3 14 -6q21 -48 72 -48q55 0 55 44q0 47 -60 47h-30z" />
    <glyph glyph-name="acute" unicode="&#xb4;" horiz-adv-x="362" 
d="M143 698q3 5 8 5h125q23 0 9 -17l-90 -112q-3 -4 -8 -4h-102q-19 0 -9 16z" />
    <glyph glyph-name="uni00B5" unicode="&#xb5;" horiz-adv-x="537" 
d="M172 440q10 0 10 -11v-212q0 -59 19.5 -87t62.5 -28q38 0 64.5 25.5t26.5 87.5v214q0 11 11 11h109q11 0 11 -11v-418q0 -11 -11 -11h-84q-9 0 -11 8l-10 47q-42 -65 -117 -65q-48 0 -78 24l7 -193q0 -11 -10 -11h-110q-10 0 -10 11v608q0 11 10 11h110z" />
    <glyph glyph-name="paragraph" unicode="&#xb6;" horiz-adv-x="639" 
d="M557 700q10 0 10 -11v-832q0 -10 -10 -10h-69q-11 0 -11 10v754h-100v-754q0 -10 -10 -10h-69q-11 0 -11 10v402q-53 0 -97 12t-76 38t-49.5 68.5t-17.5 102.5q0 61 18 103t50 68t77 37.5t99 11.5h266z" />
    <glyph glyph-name="periodcentered" unicode="&#xb7;" horiz-adv-x="281" 
d="M141 385q34 0 59 -23.5t25 -61.5t-25 -61.5t-59 -23.5q-35 0 -59.5 23.5t-24.5 61.5t25 61.5t59 23.5z" />
    <glyph glyph-name="cedilla" unicode="&#xb8;" horiz-adv-x="391" 
d="M202 10q13 0 11 -13l-8 -40q114 -9 114 -84q0 -43 -38.5 -69.5t-113.5 -26.5q-43 0 -86 8q-10 2 -8 13l10 50q2 12 14 9q18 -5 38 -7t37 -2q26 0 38 8.5t12 20.5q0 17 -19.5 24.5t-70.5 9.5q-6 0 -9.5 4t-1.5 9l16 78q2 8 10 8h55z" />
    <glyph glyph-name="onesuperior" unicode="&#xb9;" horiz-adv-x="249" 
d="M195 820q11 0 11 -11v-388q0 -11 -11 -11h-74q-11 0 -11 11v287l-65 -19q-11 -3 -14 7l-21 68q-3 11 7 14l127 38q12 4 23 4h28z" />
    <glyph glyph-name="ordmasculine" unicode="&#xba;" horiz-adv-x="401" 
d="M200 702q38 0 68.5 -12t52 -33.5t33.5 -51t12 -64.5t-12 -64.5t-33.5 -51t-52 -33.5t-68.5 -12q-37 0 -67 12t-52 33.5t-34 51t-12 64.5t12 64.5t34 51t52 33.5t67 12zM200 615q-32 0 -50.5 -20.5t-18.5 -53.5t18.5 -53.5t50.5 -20.5q33 0 51.5 20.5t18.5 53.5
t-18.5 53.5t-51.5 20.5z" />
    <glyph glyph-name="guillemotright" unicode="&#xbb;" horiz-adv-x="560" 
d="M507 271q3 -5 0 -10l-104 -164q-4 -6 -10 -6h-104q-9 0 -11.5 4.5t2.5 11.5l101 159l-101 158q-11 16 9 16h104q5 0 10 -5zM295 271q3 -5 0 -10l-104 -164q-4 -6 -10 -6h-117q-9 0 -11.5 5t3.5 12l113 158l-113 157q-6 8 -3.5 12.5t11.5 4.5h117q5 0 10 -5z" />
    <glyph glyph-name="onequarter" unicode="&#xbc;" horiz-adv-x="783" 
d="M195 700q11 0 11 -11v-388q0 -11 -11 -11h-74q-11 0 -11 11v287l-65 -19q-11 -3 -14 7l-21 68q-3 11 7 14l127 38q12 4 23 4h28zM625 700q19 0 9 -16l-411 -679q-5 -5 -10 -5h-70q-19 0 -9 16l411 679q5 5 10 5h70zM768 82q0 -11 -10 -11h-34v-60q0 -11 -11 -11h-71
q-11 0 -11 11v60h-184q-10 0 -10 11v28q0 10 4 18l130 276q3 6 9 6h87q17 0 9 -15l-121 -237h76v67q0 11 11 11h71q11 0 11 -11v-67h34q10 0 10 -11v-65z" />
    <glyph glyph-name="onehalf" unicode="&#xbd;" horiz-adv-x="805" 
d="M195 700q11 0 11 -11v-388q0 -11 -11 -11h-74q-11 0 -11 11v287l-65 -19q-11 -3 -14 7l-21 68q-3 11 7 14l127 38q12 4 23 4h28zM609 700q19 0 9 -16l-411 -679q-5 -5 -10 -5h-70q-19 0 -9 16l411 679q5 5 10 5h70zM568 284q-5 -9 -15 -5l-60 24q-9 4 -6 14q20 49 62 76
t99 27q64 0 100 -32.5t36 -86.5q0 -39 -18.5 -72t-54.5 -69l-70 -70h132q11 0 11 -10v-69q0 -11 -11 -11h-273q-11 0 -11 11v30q0 6 3 9l148 162q23 25 33 43.5t10 36.5t-11.5 29t-35.5 11q-45 0 -68 -48z" />
    <glyph glyph-name="threequarters" unicode="&#xbe;" horiz-adv-x="855" 
d="M137 459q-11 0 -11 11v54q0 10 11 10h30q23 0 39 12.5t16 35.5q0 40 -47 40q-49 0 -70 -47q-6 -9 -14 -6l-61 25q-10 3 -7 13q19 50 59.5 76.5t102.5 26.5q65 0 102 -28t37 -78q0 -36 -18.5 -63.5t-49.5 -40.5q37 -12 54.5 -37t17.5 -60q0 -54 -41.5 -88.5t-110.5 -34.5
q-58 0 -98.5 26t-59.5 77q-3 9 6 13l62 26q9 3 14 -6q21 -48 72 -48q55 0 55 44q0 47 -60 47h-30zM694 700q19 0 9 -16l-411 -679q-5 -5 -10 -5h-70q-19 0 -9 16l411 679q5 5 10 5h70zM841 82q0 -11 -10 -11h-34v-60q0 -11 -11 -11h-71q-11 0 -11 11v60h-184q-10 0 -10 11
v28q0 10 4 18l130 276q3 6 9 6h87q17 0 9 -15l-121 -237h76v67q0 11 11 11h71q11 0 11 -11v-67h34q10 0 10 -11v-65z" />
    <glyph glyph-name="questiondown" unicode="&#xbf;" horiz-adv-x="500" 
d="M280 472q35 0 60.5 -23t25.5 -62q0 -38 -25.5 -61.5t-60.5 -23.5t-59.5 23.5t-24.5 61.5q0 39 24.5 62t59.5 23zM336 241q10 0 10 -10q0 -22 -3.5 -42.5t-14.5 -40t-31 -38.5t-54 -38q-37 -23 -56.5 -45.5t-19.5 -50.5t19 -43t61 -15t75 21t59 58q8 9 15 2l70 -56
q8 -7 3 -14q-86 -129 -238 -129q-45 0 -82.5 10.5t-64.5 30t-41.5 48t-14.5 64.5q0 33 10.5 60.5t28 50t40.5 41t48 34.5q18 11 29 20.5t17.5 19.5t9.5 22.5t4 28.5q0 11 11 11h110z" />
    <glyph glyph-name="Agrave" unicode="&#xc0;" horiz-adv-x="757" 
d="M399 705q7 0 10 -6l315 -684q7 -15 -10 -15h-130q-7 0 -10 6l-58 134h-274l-57 -134q-3 -6 -11 -6h-129q-18 0 -11 15l315 684q3 6 10 6h40zM467 261l-88 210l-88 -210h176zM434 766q8 -16 -9 -16h-102q-5 0 -8 4l-86 112q-14 17 8 17h125q6 0 9 -5z" />
    <glyph glyph-name="Aacute" unicode="&#xc1;" horiz-adv-x="757" 
d="M399 705q7 0 10 -6l315 -684q7 -15 -10 -15h-130q-7 0 -10 6l-58 134h-274l-57 -134q-3 -6 -11 -6h-129q-18 0 -11 15l315 684q3 6 10 6h40zM467 261l-88 210l-88 -210h176zM393 878q3 5 8 5h125q23 0 9 -17l-90 -112q-3 -4 -8 -4h-102q-19 0 -9 16z" />
    <glyph glyph-name="Acircumflex" unicode="&#xc2;" horiz-adv-x="757" 
d="M399 705q7 0 10 -6l315 -684q7 -15 -10 -15h-130q-7 0 -10 6l-58 134h-274l-57 -134q-3 -6 -11 -6h-129q-18 0 -11 15l315 684q3 6 10 6h40zM467 261l-88 210l-88 -210h176zM548 767q6 -8 3.5 -12.5t-12.5 -4.5h-99q-6 0 -9 5l-51 82l-51 -82q-3 -5 -9 -5h-99
q-10 0 -12.5 4.5t3.5 12.5l86 112q4 4 9 4h146q5 0 9 -4z" />
    <glyph glyph-name="Atilde" unicode="&#xc3;" horiz-adv-x="757" 
d="M399 705q7 0 10 -6l315 -684q7 -15 -10 -15h-130q-7 0 -10 6l-58 134h-274l-57 -134q-3 -6 -11 -6h-129q-18 0 -11 15l315 684q3 6 10 6h40zM467 261l-88 210l-88 -210h176zM549 887q11 0 11 -11q-2 -81 -29.5 -115t-70.5 -34q-24 0 -43 11t-35 24t-30.5 24t-28.5 11
q-12 0 -19.5 -12t-9.5 -44q0 -11 -11 -11h-74q-11 0 -11 11q2 81 29.5 117t69.5 36q23 0 42 -12t35.5 -26t31.5 -26t30 -12q14 0 20.5 12.5t8.5 45.5q0 11 10 11h74z" />
    <glyph glyph-name="Adieresis" unicode="&#xc4;" horiz-adv-x="757" 
d="M399 705q7 0 10 -6l315 -684q7 -15 -10 -15h-130q-7 0 -10 6l-58 134h-274l-57 -134q-3 -6 -11 -6h-129q-18 0 -11 15l315 684q3 6 10 6h40zM467 261l-88 210l-88 -210h176zM277 888q32 0 50.5 -19.5t18.5 -49.5q0 -31 -18.5 -50t-50.5 -19q-33 0 -51.5 19t-18.5 50
q0 30 18.5 49.5t51.5 19.5zM481 888q33 0 51 -19.5t18 -49.5q0 -31 -18 -50t-51 -19t-51 19t-18 50q0 30 18 49.5t51 19.5z" />
    <glyph glyph-name="Aring" unicode="&#xc5;" horiz-adv-x="757" 
d="M399 705q7 0 10 -6l315 -684q7 -15 -10 -15h-130q-7 0 -10 6l-58 134h-274l-57 -134q-3 -6 -11 -6h-129q-18 0 -11 15l315 684q3 6 10 6h40zM467 261l-88 210l-88 -210h176zM379 975q59 0 95.5 -34.5t36.5 -89.5q0 -54 -36.5 -88t-95.5 -34t-95.5 34t-36.5 88
q0 55 36.5 89.5t95.5 34.5zM379 902q-26 0 -37 -14t-11 -37q0 -21 11 -35t37 -14t37 14t11 35q0 23 -11 37t-37 14z" />
    <glyph glyph-name="AE" unicode="&#xc6;" horiz-adv-x="942" 
d="M888 581q0 -10 -10 -10h-351l40 -155h274q10 0 10 -11v-101q0 -10 -10 -10h-242l42 -165h238q11 0 11 -10v-108q0 -11 -11 -11h-340q-8 0 -10 8l-37 140h-250l-57 -141q-3 -7 -11 -7h-129q-16 0 -11 15l296 678q3 7 9 7h539q10 0 10 -11v-108zM461 274l-64 255l-108 -255
h172z" />
    <glyph glyph-name="Ccedilla" unicode="&#xc7;" horiz-adv-x="729" 
d="M689 568q7 -9 -3 -14l-95 -56q-9 -4 -15 3q-57 82 -171 82q-99 0 -156 -61.5t-57 -170.5q0 -110 57 -172t157 -62q59 0 101.5 22t71.5 62q6 9 15 4l97 -53q9 -4 4 -14q-47 -73 -120 -111.5t-171 -38.5q-80 0 -146 26.5t-112.5 74.5t-72 114.5t-25.5 147.5q0 80 25 146.5
t71.5 114t112 74t145.5 26.5q97 0 170 -37.5t117 -106.5zM427 10q13 0 11 -13l-8 -40q114 -9 114 -84q0 -43 -38.5 -69.5t-113.5 -26.5q-43 0 -86 8q-10 2 -8 13l10 50q2 12 14 9q18 -5 38 -7t37 -2q26 0 38 8.5t12 20.5q0 17 -19.5 24.5t-70.5 9.5q-6 0 -9.5 4t-1.5 9
l16 78q2 8 10 8h55z" />
    <glyph glyph-name="Egrave" unicode="&#xc8;" horiz-adv-x="584" 
d="M72 689q0 11 11 11h435q10 0 10 -11v-108q0 -10 -10 -10h-306v-155h268q11 0 11 -11v-101q0 -10 -11 -10h-268v-165h310q11 0 11 -10v-108q0 -11 -11 -11h-439q-11 0 -11 11v678zM357 766q8 -16 -9 -16h-102q-5 0 -8 4l-86 112q-14 17 8 17h125q6 0 9 -5z" />
    <glyph glyph-name="Eacute" unicode="&#xc9;" horiz-adv-x="584" 
d="M72 689q0 11 11 11h435q10 0 10 -11v-108q0 -10 -10 -10h-306v-155h268q11 0 11 -11v-101q0 -10 -11 -10h-268v-165h310q11 0 11 -10v-108q0 -11 -11 -11h-439q-11 0 -11 11v678zM316 878q3 5 8 5h125q23 0 9 -17l-90 -112q-3 -4 -8 -4h-102q-19 0 -9 16z" />
    <glyph glyph-name="Ecircumflex" unicode="&#xca;" horiz-adv-x="584" 
d="M72 689q0 11 11 11h435q10 0 10 -11v-108q0 -10 -10 -10h-306v-155h268q11 0 11 -11v-101q0 -10 -11 -10h-268v-165h310q11 0 11 -10v-108q0 -11 -11 -11h-439q-11 0 -11 11v678zM471 767q6 -8 3.5 -12.5t-12.5 -4.5h-99q-6 0 -9 5l-51 82l-51 -82q-3 -5 -9 -5h-99
q-10 0 -12.5 4.5t3.5 12.5l86 112q4 4 9 4h146q5 0 9 -4z" />
    <glyph glyph-name="Edieresis" unicode="&#xcb;" horiz-adv-x="584" 
d="M72 689q0 11 11 11h435q10 0 10 -11v-108q0 -10 -10 -10h-306v-155h268q11 0 11 -11v-101q0 -10 -11 -10h-268v-165h310q11 0 11 -10v-108q0 -11 -11 -11h-439q-11 0 -11 11v678zM201 888q32 0 50.5 -19.5t18.5 -49.5q0 -31 -18.5 -50t-50.5 -19q-33 0 -51.5 19t-18.5 50
q0 30 18.5 49.5t51.5 19.5zM405 888q33 0 51 -19.5t18 -49.5q0 -31 -18 -50t-51 -19t-51 19t-18 50q0 30 18 49.5t51 19.5z" />
    <glyph glyph-name="Igrave" unicode="&#xcc;" horiz-adv-x="283" 
d="M201 700q11 0 11 -11v-678q0 -11 -11 -11h-118q-11 0 -11 11v678q0 11 11 11h118zM196 766q8 -16 -9 -16h-102q-5 0 -8 4l-86 112q-14 17 8 17h125q6 0 9 -5z" />
    <glyph glyph-name="Iacute" unicode="&#xcd;" horiz-adv-x="283" 
d="M201 700q11 0 11 -11v-678q0 -11 -11 -11h-118q-11 0 -11 11v678q0 11 11 11h118zM155 878q3 5 8 5h125q23 0 9 -17l-90 -112q-3 -4 -8 -4h-102q-19 0 -9 16z" />
    <glyph glyph-name="Icircumflex" unicode="&#xce;" horiz-adv-x="283" 
d="M201 700q11 0 11 -11v-678q0 -11 -11 -11h-118q-11 0 -11 11v678q0 11 11 11h118zM311 767q6 -8 3.5 -12.5t-12.5 -4.5h-99q-6 0 -9 5l-51 82l-51 -82q-3 -5 -9 -5h-99q-10 0 -12.5 4.5t3.5 12.5l86 112q4 4 9 4h146q5 0 9 -4z" />
    <glyph glyph-name="Idieresis" unicode="&#xcf;" horiz-adv-x="283" 
d="M201 700q11 0 11 -11v-678q0 -11 -11 -11h-118q-11 0 -11 11v678q0 11 11 11h118zM40 888q32 0 50.5 -19.5t18.5 -49.5q0 -31 -18.5 -50t-50.5 -19q-33 0 -51.5 19t-18.5 50q0 30 18.5 49.5t51.5 19.5zM244 888q33 0 51 -19.5t18 -49.5q0 -31 -18 -50t-51 -19t-51 19
t-18 50q0 30 18 49.5t51 19.5z" />
    <glyph glyph-name="Eth" unicode="&#xd0;" horiz-adv-x="800" 
d="M119 689q0 11 11 11h255q87 0 155 -25t115.5 -70t72.5 -108t25 -140q0 -78 -25.5 -144t-73.5 -113t-116 -73.5t-153 -26.5h-255q-11 0 -11 11v288h-66q-11 0 -11 11v76q0 10 11 10h66v293zM398 396q11 0 11 -10v-76q0 -11 -11 -11h-139v-166h124q110 0 167.5 59.5
t57.5 164.5q0 102 -56 156t-169 54h-124v-171h139z" />
    <glyph glyph-name="Ntilde" unicode="&#xd1;" horiz-adv-x="724" 
d="M642 700q11 0 11 -11v-683q0 -11 -11 -11h-35q-8 0 -13 6l-386 434v-424q0 -11 -10 -11h-115q-11 0 -11 11v683q0 11 11 11h34q8 0 14 -6l386 -434v424q0 11 10 11h115zM523 887q11 0 11 -11q-2 -81 -29.5 -115t-70.5 -34q-24 0 -43 11t-35 24t-30.5 24t-28.5 11
q-12 0 -19.5 -12t-9.5 -44q0 -11 -11 -11h-74q-11 0 -11 11q2 81 29.5 117t69.5 36q23 0 42 -12t35.5 -26t31.5 -26t30 -12q14 0 20.5 12.5t8.5 45.5q0 11 10 11h74z" />
    <glyph glyph-name="Ograve" unicode="&#xd2;" horiz-adv-x="815" 
d="M408 712q79 0 145 -26.5t114 -74.5t74.5 -114.5t26.5 -146.5q0 -81 -26.5 -147.5t-74.5 -114t-114 -74t-145 -26.5t-145.5 26.5t-114 74t-74 114t-26.5 147.5q0 80 26.5 146.5t74 114.5t114 74.5t145.5 26.5zM408 583q-50 0 -90 -16.5t-68 -47t-43 -73.5t-15 -96t15 -96
t43 -73.5t68 -47t90 -16.5t89.5 16.5t67.5 47t43 73.5t15 96t-15 96t-43 73.5t-67.5 47t-89.5 16.5zM462 776q8 -16 -9 -16h-102q-5 0 -8 4l-86 112q-14 17 8 17h125q6 0 9 -5z" />
    <glyph glyph-name="Oacute" unicode="&#xd3;" horiz-adv-x="815" 
d="M408 712q79 0 145 -26.5t114 -74.5t74.5 -114.5t26.5 -146.5q0 -81 -26.5 -147.5t-74.5 -114t-114 -74t-145 -26.5t-145.5 26.5t-114 74t-74 114t-26.5 147.5q0 80 26.5 146.5t74 114.5t114 74.5t145.5 26.5zM408 583q-50 0 -90 -16.5t-68 -47t-43 -73.5t-15 -96t15 -96
t43 -73.5t68 -47t90 -16.5t89.5 16.5t67.5 47t43 73.5t15 96t-15 96t-43 73.5t-67.5 47t-89.5 16.5zM421 888q3 5 8 5h125q23 0 9 -17l-90 -112q-3 -4 -8 -4h-102q-19 0 -9 16z" />
    <glyph glyph-name="Ocircumflex" unicode="&#xd4;" horiz-adv-x="815" 
d="M408 712q79 0 145 -26.5t114 -74.5t74.5 -114.5t26.5 -146.5q0 -81 -26.5 -147.5t-74.5 -114t-114 -74t-145 -26.5t-145.5 26.5t-114 74t-74 114t-26.5 147.5q0 80 26.5 146.5t74 114.5t114 74.5t145.5 26.5zM408 583q-50 0 -90 -16.5t-68 -47t-43 -73.5t-15 -96t15 -96
t43 -73.5t68 -47t90 -16.5t89.5 16.5t67.5 47t43 73.5t15 96t-15 96t-43 73.5t-67.5 47t-89.5 16.5zM576 777q6 -8 3.5 -12.5t-12.5 -4.5h-99q-6 0 -9 5l-51 82l-51 -82q-3 -5 -9 -5h-99q-10 0 -12.5 4.5t3.5 12.5l86 112q4 4 9 4h146q5 0 9 -4z" />
    <glyph glyph-name="Otilde" unicode="&#xd5;" horiz-adv-x="815" 
d="M408 712q79 0 145 -26.5t114 -74.5t74.5 -114.5t26.5 -146.5q0 -81 -26.5 -147.5t-74.5 -114t-114 -74t-145 -26.5t-145.5 26.5t-114 74t-74 114t-26.5 147.5q0 80 26.5 146.5t74 114.5t114 74.5t145.5 26.5zM408 583q-50 0 -90 -16.5t-68 -47t-43 -73.5t-15 -96t15 -96
t43 -73.5t68 -47t90 -16.5t89.5 16.5t67.5 47t43 73.5t15 96t-15 96t-43 73.5t-67.5 47t-89.5 16.5zM577 897q11 0 11 -11q-2 -81 -29.5 -115t-70.5 -34q-24 0 -43 11t-35 24t-30.5 24t-28.5 11q-12 0 -19.5 -12t-9.5 -44q0 -11 -11 -11h-74q-11 0 -11 11q2 81 29.5 117
t69.5 36q23 0 42 -12t35.5 -26t31.5 -26t30 -12q14 0 20.5 12.5t8.5 45.5q0 11 10 11h74z" />
    <glyph glyph-name="Odieresis" unicode="&#xd6;" horiz-adv-x="815" 
d="M408 712q79 0 145 -26.5t114 -74.5t74.5 -114.5t26.5 -146.5q0 -81 -26.5 -147.5t-74.5 -114t-114 -74t-145 -26.5t-145.5 26.5t-114 74t-74 114t-26.5 147.5q0 80 26.5 146.5t74 114.5t114 74.5t145.5 26.5zM408 583q-50 0 -90 -16.5t-68 -47t-43 -73.5t-15 -96t15 -96
t43 -73.5t68 -47t90 -16.5t89.5 16.5t67.5 47t43 73.5t15 96t-15 96t-43 73.5t-67.5 47t-89.5 16.5zM306 898q32 0 50.5 -19.5t18.5 -49.5q0 -31 -18.5 -50t-50.5 -19q-33 0 -51.5 19t-18.5 50q0 30 18.5 49.5t51.5 19.5zM510 898q33 0 51 -19.5t18 -49.5q0 -31 -18 -50
t-51 -19t-51 19t-18 50q0 30 18 49.5t51 19.5z" />
    <glyph glyph-name="multiply" unicode="&#xd7;" horiz-adv-x="582" 
d="M527 423q8 -8 0 -15l-152 -152l152 -151q7 -8 0 -15l-70 -70q-7 -7 -14 0l-152 152l-152 -151q-7 -8 -15 0l-69 69q-8 8 0 15l152 151l-151 152q-8 8 0 15l69 70q7 7 15 0l151 -152l152 151q8 7 15 0z" />
    <glyph glyph-name="Oslash" unicode="&#xd8;" horiz-adv-x="814" 
d="M407 712q60 0 111.5 -15t94.5 -44l85 99q5 8 14 2l46 -38q9 -6 2 -16l-85 -99q44 -47 68 -110.5t24 -140.5q0 -81 -26.5 -147.5t-74 -114t-113.5 -74t-146 -26.5q-59 0 -110.5 15.5t-93.5 43.5l-87 -104q-7 -9 -16 -2l-44 40q-9 7 -2 15l87 102q-45 47 -69 111t-24 141
q0 80 26.5 146.5t74 114.5t113.5 74.5t145 26.5zM407 583q-50 0 -89.5 -16.5t-67 -47t-42 -73.5t-14.5 -96q0 -44 10 -80t29 -64l294 345q-50 32 -120 32zM290 148q50 -31 117 -31q50 0 90 16.5t67.5 47t42 73.5t14.5 96q0 43 -10 79t-28 64z" />
    <glyph glyph-name="Ugrave" unicode="&#xd9;" horiz-adv-x="689" 
d="M611 700q11 0 11 -11v-428q0 -63 -19 -113.5t-54.5 -86t-87 -54.5t-116.5 -19t-116.5 19t-87 54.5t-54.5 86t-19 113.5v428q0 11 11 11h119q10 0 10 -11v-415q0 -75 34 -115t103 -40t103 40t34 115v415q0 11 11 11h118zM400 766q8 -16 -9 -16h-102q-5 0 -8 4l-86 112
q-14 17 8 17h125q6 0 9 -5z" />
    <glyph glyph-name="Uacute" unicode="&#xda;" horiz-adv-x="689" 
d="M611 700q11 0 11 -11v-428q0 -63 -19 -113.5t-54.5 -86t-87 -54.5t-116.5 -19t-116.5 19t-87 54.5t-54.5 86t-19 113.5v428q0 11 11 11h119q10 0 10 -11v-415q0 -75 34 -115t103 -40t103 40t34 115v415q0 11 11 11h118zM359 878q3 5 8 5h125q23 0 9 -17l-90 -112
q-3 -4 -8 -4h-102q-19 0 -9 16z" />
    <glyph glyph-name="Ucircumflex" unicode="&#xdb;" horiz-adv-x="689" 
d="M611 700q11 0 11 -11v-428q0 -63 -19 -113.5t-54.5 -86t-87 -54.5t-116.5 -19t-116.5 19t-87 54.5t-54.5 86t-19 113.5v428q0 11 11 11h119q10 0 10 -11v-415q0 -75 34 -115t103 -40t103 40t34 115v415q0 11 11 11h118zM514 767q6 -8 3.5 -12.5t-12.5 -4.5h-99q-6 0 -9 5
l-51 82l-51 -82q-3 -5 -9 -5h-99q-10 0 -12.5 4.5t3.5 12.5l86 112q4 4 9 4h146q5 0 9 -4z" />
    <glyph glyph-name="Udieresis" unicode="&#xdc;" horiz-adv-x="689" 
d="M611 700q11 0 11 -11v-428q0 -63 -19 -113.5t-54.5 -86t-87 -54.5t-116.5 -19t-116.5 19t-87 54.5t-54.5 86t-19 113.5v428q0 11 11 11h119q10 0 10 -11v-415q0 -75 34 -115t103 -40t103 40t34 115v415q0 11 11 11h118zM243 888q32 0 50.5 -19.5t18.5 -49.5
q0 -31 -18.5 -50t-50.5 -19q-33 0 -51.5 19t-18.5 50q0 30 18.5 49.5t51.5 19.5zM447 888q33 0 51 -19.5t18 -49.5q0 -31 -18 -50t-51 -19t-51 19t-18 50q0 30 18 49.5t51 19.5z" />
    <glyph glyph-name="Yacute" unicode="&#xdd;" horiz-adv-x="672" 
d="M641 700q16 0 6 -16l-241 -408v-265q0 -11 -10 -11h-119q-11 0 -11 11v265l-240 408q-10 16 6 16h140q6 0 9 -6l155 -289l156 289q3 6 9 6h140zM350 878q3 5 8 5h125q23 0 9 -17l-90 -112q-3 -4 -8 -4h-102q-19 0 -9 16z" />
    <glyph glyph-name="Thorn" unicode="&#xde;" horiz-adv-x="620" 
d="M72 689q0 11 11 11h118q11 0 11 -11v-123h133q119 0 183 -57t64 -158t-64 -159t-183 -58h-133v-123q0 -11 -11 -11h-118q-11 0 -11 11v678zM212 263h121q63 0 88 21t25 66q0 48 -26.5 67.5t-89.5 19.5h-118v-174z" />
    <glyph glyph-name="germandbls" unicode="&#xdf;" horiz-adv-x="569" 
d="M65 -190q-10 0 -10 11v699q0 49 15 88t42.5 66t67 41.5t87.5 14.5q94 0 146 -41t52 -109q0 -31 -9.5 -55t-21.5 -44t-21.5 -38t-9.5 -37q0 -17 20.5 -37t45 -46t45 -60.5t20.5 -81.5q0 -37 -12.5 -72t-39.5 -62t-69 -43t-100 -16q-41 0 -77 6q-8 2 -8 11v99q0 13 13 10
q11 -2 26.5 -3.5t29.5 -1.5q51 0 75.5 25.5t24.5 63.5q0 34 -19 56t-41.5 41.5t-41.5 41t-19 55.5q0 25 10 45.5t21.5 39t21.5 37t10 39.5q0 30 -17 47t-55 17q-42 0 -62.5 -25t-20.5 -72v-699q0 -11 -10 -11h-109z" />
    <glyph glyph-name="agrave" unicode="&#xe0;" horiz-adv-x="492" 
d="M244 452q94 0 145.5 -46.5t51.5 -134.5v-260q0 -11 -11 -11h-78q-8 0 -10 8l-12 49q-27 -32 -69.5 -50.5t-87.5 -18.5q-72 0 -107.5 35t-35.5 95q0 54 40.5 91t118.5 45l124 15v13q0 36 -21.5 52t-61.5 16q-65 0 -117 -37q-10 -6 -16 3l-43 70q-5 9 4 15q83 51 186 51z
M227 178q-32 -4 -48 -14.5t-16 -36.5q0 -48 52 -48q42 0 70 26.5t28 68.5v15zM291 546q8 -16 -9 -16h-102q-5 0 -8 4l-86 112q-14 17 8 17h125q6 0 9 -5z" />
    <glyph glyph-name="aacute" unicode="&#xe1;" horiz-adv-x="492" 
d="M244 452q94 0 145.5 -46.5t51.5 -134.5v-260q0 -11 -11 -11h-78q-8 0 -10 8l-12 49q-27 -32 -69.5 -50.5t-87.5 -18.5q-72 0 -107.5 35t-35.5 95q0 54 40.5 91t118.5 45l124 15v13q0 36 -21.5 52t-61.5 16q-65 0 -117 -37q-10 -6 -16 3l-43 70q-5 9 4 15q83 51 186 51z
M227 178q-32 -4 -48 -14.5t-16 -36.5q0 -48 52 -48q42 0 70 26.5t28 68.5v15zM250 658q3 5 8 5h125q23 0 9 -17l-90 -112q-3 -4 -8 -4h-102q-19 0 -9 16z" />
    <glyph glyph-name="acircumflex" unicode="&#xe2;" horiz-adv-x="492" 
d="M244 452q94 0 145.5 -46.5t51.5 -134.5v-260q0 -11 -11 -11h-78q-8 0 -10 8l-12 49q-27 -32 -69.5 -50.5t-87.5 -18.5q-72 0 -107.5 35t-35.5 95q0 54 40.5 91t118.5 45l124 15v13q0 36 -21.5 52t-61.5 16q-65 0 -117 -37q-10 -6 -16 3l-43 70q-5 9 4 15q83 51 186 51z
M227 178q-32 -4 -48 -14.5t-16 -36.5q0 -48 52 -48q42 0 70 26.5t28 68.5v15zM405 547q6 -8 3.5 -12.5t-12.5 -4.5h-99q-6 0 -9 5l-51 82l-51 -82q-3 -5 -9 -5h-99q-10 0 -12.5 4.5t3.5 12.5l86 112q4 4 9 4h146q5 0 9 -4z" />
    <glyph glyph-name="atilde" unicode="&#xe3;" horiz-adv-x="492" 
d="M244 452q94 0 145.5 -46.5t51.5 -134.5v-260q0 -11 -11 -11h-78q-8 0 -10 8l-12 49q-27 -32 -69.5 -50.5t-87.5 -18.5q-72 0 -107.5 35t-35.5 95q0 54 40.5 91t118.5 45l124 15v13q0 36 -21.5 52t-61.5 16q-65 0 -117 -37q-10 -6 -16 3l-43 70q-5 9 4 15q83 51 186 51z
M227 178q-32 -4 -48 -14.5t-16 -36.5q0 -48 52 -48q42 0 70 26.5t28 68.5v15zM406 667q11 0 11 -11q-2 -81 -29.5 -115t-70.5 -34q-24 0 -43 11t-35 24t-30.5 24t-28.5 11q-12 0 -19.5 -12t-9.5 -44q0 -11 -11 -11h-74q-11 0 -11 11q2 81 29.5 117t69.5 36q23 0 42 -12
t35.5 -26t31.5 -26t30 -12q14 0 20.5 12.5t8.5 45.5q0 11 10 11h74z" />
    <glyph glyph-name="adieresis" unicode="&#xe4;" horiz-adv-x="492" 
d="M244 452q94 0 145.5 -46.5t51.5 -134.5v-260q0 -11 -11 -11h-78q-8 0 -10 8l-12 49q-27 -32 -69.5 -50.5t-87.5 -18.5q-72 0 -107.5 35t-35.5 95q0 54 40.5 91t118.5 45l124 15v13q0 36 -21.5 52t-61.5 16q-65 0 -117 -37q-10 -6 -16 3l-43 70q-5 9 4 15q83 51 186 51z
M227 178q-32 -4 -48 -14.5t-16 -36.5q0 -48 52 -48q42 0 70 26.5t28 68.5v15zM135 668q32 0 50.5 -19.5t18.5 -49.5q0 -31 -18.5 -50t-50.5 -19q-33 0 -51.5 19t-18.5 50q0 30 18.5 49.5t51.5 19.5zM339 668q33 0 51 -19.5t18 -49.5q0 -31 -18 -50t-51 -19t-51 19t-18 50
q0 30 18 49.5t51 19.5z" />
    <glyph glyph-name="aring" unicode="&#xe5;" horiz-adv-x="492" 
d="M244 452q94 0 145.5 -46.5t51.5 -134.5v-260q0 -11 -11 -11h-78q-8 0 -10 8l-12 49q-27 -32 -69.5 -50.5t-87.5 -18.5q-72 0 -107.5 35t-35.5 95q0 54 40.5 91t118.5 45l124 15v13q0 36 -21.5 52t-61.5 16q-65 0 -117 -37q-10 -6 -16 3l-43 70q-5 9 4 15q83 51 186 51z
M227 178q-32 -4 -48 -14.5t-16 -36.5q0 -48 52 -48q42 0 70 26.5t28 68.5v15zM236 755q59 0 95.5 -34.5t36.5 -89.5q0 -54 -36.5 -88t-95.5 -34t-95.5 34t-36.5 88q0 55 36.5 89.5t95.5 34.5zM236 682q-26 0 -37 -14t-11 -37q0 -21 11 -35t37 -14t37 14t11 35q0 23 -11 37
t-37 14z" />
    <glyph glyph-name="ae" unicode="&#xe6;" horiz-adv-x="799" 
d="M768 226q-1 -21 -4 -29.5t-15 -8.5h-301q5 -40 32.5 -65t71.5 -25q26 0 48 11.5t39 28.5q7 9 16 2l74 -54q9 -7 3 -15q-63 -83 -161 -83q-82 0 -137 55v-32q0 -11 -11 -11h-71q-8 0 -10 8l-12 49q-27 -32 -69.5 -50.5t-87.5 -18.5q-72 0 -107.5 35.5t-35.5 93.5
q0 54 39.5 91t120.5 46l123 15v15q0 68 -83 68q-32 0 -61 -11t-55 -30q-9 -6 -15 3l-44 71q-7 9 2 14q40 26 87.5 39.5t99.5 13.5q120 0 164 -83q27 40 70.5 61.5t94.5 21.5q45 0 82.5 -17t63 -47t39 -71.5t10.5 -90.5zM646 264q-3 34 -26.5 57.5t-67.5 23.5
q-42 0 -70 -22.5t-33 -58.5h197zM227 178q-32 -4 -48 -14.5t-16 -36.5q0 -48 52 -48q42 0 70 26.5t28 68.5v15z" />
    <glyph glyph-name="ccedilla" unicode="&#xe7;" horiz-adv-x="487" 
d="M464 351q7 -9 -3 -14l-79 -44q-9 -5 -16 4q-15 22 -37 34.5t-54 12.5q-51 0 -79 -35.5t-28 -87.5q0 -26 7 -48.5t21 -39.5t34.5 -27t47.5 -10q30 0 51 12.5t35 34.5q3 4 7 5.5t9 -1.5l78 -44q9 -4 4 -14q-31 -48 -80 -74.5t-115 -26.5q-51 0 -93.5 17.5t-73 48t-48 73.5
t-17.5 94t17.5 93t48 73t73.5 48t94 17q62 0 114 -26t82 -75zM285 10q13 0 11 -13l-8 -40q114 -9 114 -84q0 -43 -38.5 -69.5t-113.5 -26.5q-43 0 -86 8q-10 2 -8 13l10 50q2 12 14 9q18 -5 38 -7t37 -2q26 0 38 8.5t12 20.5q0 17 -19.5 24.5t-70.5 9.5q-6 0 -9.5 4t-1.5 9
l16 78q2 8 10 8h55z" />
    <glyph glyph-name="egrave" unicode="&#xe8;" horiz-adv-x="520" 
d="M490 241q-1 -20 -2.5 -31.5t-3.5 -17.5t-5.5 -7.5t-7.5 -1.5h-305q5 -43 34.5 -68t74.5 -25q33 0 59 12t46 34q8 7 16 -1l60 -57q8 -7 0 -15q-35 -35 -82.5 -55t-104.5 -20q-54 0 -97.5 17t-74 48t-46.5 73t-16 93t16.5 93.5t47 73.5t73 48.5t94.5 17.5q50 0 92 -15
t72 -42.5t46 -66.5t14 -87zM366 264q-2 35 -26.5 61t-73.5 26q-42 0 -70 -23.5t-30 -63.5h200zM316 546q8 -16 -9 -16h-102q-5 0 -8 4l-86 112q-14 17 8 17h125q6 0 9 -5z" />
    <glyph glyph-name="eacute" unicode="&#xe9;" horiz-adv-x="520" 
d="M490 241q-1 -20 -2.5 -31.5t-3.5 -17.5t-5.5 -7.5t-7.5 -1.5h-305q5 -43 34.5 -68t74.5 -25q33 0 59 12t46 34q8 7 16 -1l60 -57q8 -7 0 -15q-35 -35 -82.5 -55t-104.5 -20q-54 0 -97.5 17t-74 48t-46.5 73t-16 93t16.5 93.5t47 73.5t73 48.5t94.5 17.5q50 0 92 -15
t72 -42.5t46 -66.5t14 -87zM366 264q-2 35 -26.5 61t-73.5 26q-42 0 -70 -23.5t-30 -63.5h200zM275 658q3 5 8 5h125q23 0 9 -17l-90 -112q-3 -4 -8 -4h-102q-19 0 -9 16z" />
    <glyph glyph-name="ecircumflex" unicode="&#xea;" horiz-adv-x="520" 
d="M490 241q-1 -20 -2.5 -31.5t-3.5 -17.5t-5.5 -7.5t-7.5 -1.5h-305q5 -43 34.5 -68t74.5 -25q33 0 59 12t46 34q8 7 16 -1l60 -57q8 -7 0 -15q-35 -35 -82.5 -55t-104.5 -20q-54 0 -97.5 17t-74 48t-46.5 73t-16 93t16.5 93.5t47 73.5t73 48.5t94.5 17.5q50 0 92 -15
t72 -42.5t46 -66.5t14 -87zM366 264q-2 35 -26.5 61t-73.5 26q-42 0 -70 -23.5t-30 -63.5h200zM431 547q6 -8 3.5 -12.5t-12.5 -4.5h-99q-6 0 -9 5l-51 82l-51 -82q-3 -5 -9 -5h-99q-10 0 -12.5 4.5t3.5 12.5l86 112q4 4 9 4h146q5 0 9 -4z" />
    <glyph glyph-name="edieresis" unicode="&#xeb;" horiz-adv-x="520" 
d="M490 241q-1 -20 -2.5 -31.5t-3.5 -17.5t-5.5 -7.5t-7.5 -1.5h-305q5 -43 34.5 -68t74.5 -25q33 0 59 12t46 34q8 7 16 -1l60 -57q8 -7 0 -15q-35 -35 -82.5 -55t-104.5 -20q-54 0 -97.5 17t-74 48t-46.5 73t-16 93t16.5 93.5t47 73.5t73 48.5t94.5 17.5q50 0 92 -15
t72 -42.5t46 -66.5t14 -87zM366 264q-2 35 -26.5 61t-73.5 26q-42 0 -70 -23.5t-30 -63.5h200zM160 668q32 0 50.5 -19.5t18.5 -49.5q0 -31 -18.5 -50t-50.5 -19q-33 0 -51.5 19t-18.5 50q0 30 18.5 49.5t51.5 19.5zM364 668q33 0 51 -19.5t18 -49.5q0 -31 -18 -50t-51 -19
t-51 19t-18 50q0 30 18 49.5t51 19.5z" />
    <glyph glyph-name="igrave" unicode="&#xec;" horiz-adv-x="233" 
d="M172 440q10 0 10 -11v-418q0 -11 -10 -11h-110q-10 0 -10 11v418q0 11 10 11h110zM171 546q8 -16 -9 -16h-102q-5 0 -8 4l-86 112q-14 17 8 17h125q6 0 9 -5z" />
    <glyph glyph-name="iacute" unicode="&#xed;" horiz-adv-x="233" 
d="M172 440q10 0 10 -11v-418q0 -11 -10 -11h-110q-10 0 -10 11v418q0 11 10 11h110zM130 658q3 5 8 5h125q23 0 9 -17l-90 -112q-3 -4 -8 -4h-102q-19 0 -9 16z" />
    <glyph glyph-name="icircumflex" unicode="&#xee;" horiz-adv-x="233" 
d="M172 440q10 0 10 -11v-418q0 -11 -10 -11h-110q-10 0 -10 11v418q0 11 10 11h110zM286 547q6 -8 3.5 -12.5t-12.5 -4.5h-99q-6 0 -9 5l-51 82l-51 -82q-3 -5 -9 -5h-99q-10 0 -12.5 4.5t3.5 12.5l86 112q4 4 9 4h146q5 0 9 -4z" />
    <glyph glyph-name="idieresis" unicode="&#xef;" horiz-adv-x="233" 
d="M172 440q10 0 10 -11v-418q0 -11 -10 -11h-110q-10 0 -10 11v418q0 11 10 11h110zM15 668q32 0 50.5 -19.5t18.5 -49.5q0 -31 -18.5 -50t-50.5 -19q-33 0 -51.5 19t-18.5 50q0 30 18.5 49.5t51.5 19.5zM219 668q33 0 51 -19.5t18 -49.5q0 -31 -18 -50t-51 -19t-51 19
t-18 50q0 30 18 49.5t51 19.5z" />
    <glyph glyph-name="eth" unicode="&#xf0;" horiz-adv-x="569" 
d="M154 517q-10 -5 -15 5l-29 53q-5 10 4 15l75 38l-62 96q-5 7 -2 11.5t11 4.5h129q6 0 9 -5l28 -47l71 37q10 5 15 -4l29 -54q7 -10 -4 -15l-68 -35l137 -229q25 -42 38.5 -86t13.5 -90q0 -106 -65.5 -165t-177.5 -59q-56 0 -103 16.5t-81 47.5t-53 75.5t-19 100.5
q0 49 16 88.5t44.5 67.5t67 43t84.5 15q39 0 72 -14l-85 131zM287 331q-58 0 -86 -26t-28 -86q0 -51 30 -79t84 -28t81.5 27t27.5 78q0 53 -29 83.5t-80 30.5z" />
    <glyph glyph-name="ntilde" unicode="&#xf1;" horiz-adv-x="536" 
d="M140 440q8 0 10 -8l16 -62q26 38 64.5 60t87.5 22q82 0 126.5 -51.5t44.5 -145.5v-244q0 -11 -11 -11h-109q-11 0 -11 11v228q0 45 -18.5 71.5t-63.5 26.5q-42 0 -68 -31t-26 -80v-215q0 -11 -10 -11h-110q-10 0 -10 11v418q0 11 10 11h78zM452 667q11 0 11 -11
q-2 -81 -29.5 -115t-70.5 -34q-24 0 -43 11t-35 24t-30.5 24t-28.5 11q-12 0 -19.5 -12t-9.5 -44q0 -11 -11 -11h-74q-11 0 -11 11q2 81 29.5 117t69.5 36q23 0 42 -12t35.5 -26t31.5 -26t30 -12q14 0 20.5 12.5t8.5 45.5q0 11 10 11h74z" />
    <glyph glyph-name="ograve" unicode="&#xf2;" horiz-adv-x="555" 
d="M277 452q54 0 98.5 -17t77 -47.5t50 -73.5t17.5 -94t-17.5 -93.5t-49.5 -73.5t-77 -48t-99 -17t-98.5 17t-76.5 48t-49.5 73.5t-17.5 93.5t17.5 94t49.5 73.5t76.5 47.5t98.5 17zM277 348q-49 0 -79 -33.5t-30 -93.5t30 -94.5t79 -34.5q50 0 80 34.5t30 94.5t-30 93.5
t-80 33.5zM332 546q8 -16 -9 -16h-102q-5 0 -8 4l-86 112q-14 17 8 17h125q6 0 9 -5z" />
    <glyph glyph-name="oacute" unicode="&#xf3;" horiz-adv-x="555" 
d="M277 452q54 0 98.5 -17t77 -47.5t50 -73.5t17.5 -94t-17.5 -93.5t-49.5 -73.5t-77 -48t-99 -17t-98.5 17t-76.5 48t-49.5 73.5t-17.5 93.5t17.5 94t49.5 73.5t76.5 47.5t98.5 17zM277 348q-49 0 -79 -33.5t-30 -93.5t30 -94.5t79 -34.5q50 0 80 34.5t30 94.5t-30 93.5
t-80 33.5zM291 658q3 5 8 5h125q23 0 9 -17l-90 -112q-3 -4 -8 -4h-102q-19 0 -9 16z" />
    <glyph glyph-name="ocircumflex" unicode="&#xf4;" horiz-adv-x="555" 
d="M277 452q54 0 98.5 -17t77 -47.5t50 -73.5t17.5 -94t-17.5 -93.5t-49.5 -73.5t-77 -48t-99 -17t-98.5 17t-76.5 48t-49.5 73.5t-17.5 93.5t17.5 94t49.5 73.5t76.5 47.5t98.5 17zM277 348q-49 0 -79 -33.5t-30 -93.5t30 -94.5t79 -34.5q50 0 80 34.5t30 94.5t-30 93.5
t-80 33.5zM446 547q6 -8 3.5 -12.5t-12.5 -4.5h-99q-6 0 -9 5l-51 82l-51 -82q-3 -5 -9 -5h-99q-10 0 -12.5 4.5t3.5 12.5l86 112q4 4 9 4h146q5 0 9 -4z" />
    <glyph glyph-name="otilde" unicode="&#xf5;" horiz-adv-x="555" 
d="M277 452q54 0 98.5 -17t77 -47.5t50 -73.5t17.5 -94t-17.5 -93.5t-49.5 -73.5t-77 -48t-99 -17t-98.5 17t-76.5 48t-49.5 73.5t-17.5 93.5t17.5 94t49.5 73.5t76.5 47.5t98.5 17zM277 348q-49 0 -79 -33.5t-30 -93.5t30 -94.5t79 -34.5q50 0 80 34.5t30 94.5t-30 93.5
t-80 33.5zM447 667q11 0 11 -11q-2 -81 -29.5 -115t-70.5 -34q-24 0 -43 11t-35 24t-30.5 24t-28.5 11q-12 0 -19.5 -12t-9.5 -44q0 -11 -11 -11h-74q-11 0 -11 11q2 81 29.5 117t69.5 36q23 0 42 -12t35.5 -26t31.5 -26t30 -12q14 0 20.5 12.5t8.5 45.5q0 11 10 11h74z" />
    <glyph glyph-name="odieresis" unicode="&#xf6;" horiz-adv-x="555" 
d="M277 452q54 0 98.5 -17t77 -47.5t50 -73.5t17.5 -94t-17.5 -93.5t-49.5 -73.5t-77 -48t-99 -17t-98.5 17t-76.5 48t-49.5 73.5t-17.5 93.5t17.5 94t49.5 73.5t76.5 47.5t98.5 17zM277 348q-49 0 -79 -33.5t-30 -93.5t30 -94.5t79 -34.5q50 0 80 34.5t30 94.5t-30 93.5
t-80 33.5zM175 668q32 0 50.5 -19.5t18.5 -49.5q0 -31 -18.5 -50t-50.5 -19q-33 0 -51.5 19t-18.5 50q0 30 18.5 49.5t51.5 19.5zM379 668q33 0 51 -19.5t18 -49.5q0 -31 -18 -50t-51 -19t-51 19t-18 50q0 30 18 49.5t51 19.5z" />
    <glyph glyph-name="divide" unicode="&#xf7;" horiz-adv-x="596" 
d="M298 548q34 0 57.5 -22.5t23.5 -58.5q0 -35 -23.5 -57.5t-57.5 -22.5q-33 0 -57 22.5t-24 57.5q0 36 24 58.5t57 22.5zM534 330q11 0 11 -10v-94q0 -10 -11 -10h-472q-11 0 -11 10v94q0 10 11 10h472zM298 159q34 0 57.5 -22.5t23.5 -57.5q0 -36 -23.5 -58.5t-57.5 -22.5
q-33 0 -57 22.5t-24 58.5q0 35 24 57.5t57 22.5z" />
    <glyph glyph-name="oslash" unicode="&#xf8;" horiz-adv-x="555" 
d="M448 510q7 9 15 2l43 -32q8 -6 2 -15l-58 -77q33 -31 51.5 -74t18.5 -94q0 -50 -17.5 -92.5t-49.5 -73t-77 -48t-99 -17.5q-60 0 -110 22l-62 -83q-6 -9 -15 -2l-42 33q-8 8 -2 15l59 78q-34 31 -52 74t-18 94q0 50 17.5 92.5t49.5 73.5t76.5 48t98.5 17q63 0 111 -22z
M277 347q-49 0 -79 -33t-30 -93q0 -39 15 -66l137 184q-21 8 -43 8zM236 101q19 -8 41 -8q50 0 80 34t30 94q0 19 -4 34.5t-11 29.5z" />
    <glyph glyph-name="ugrave" unicode="&#xf9;" horiz-adv-x="534" 
d="M472 440q11 0 11 -11v-418q0 -11 -11 -11h-78q-8 0 -10 8l-16 62q-24 -38 -61.5 -60t-85.5 -22q-82 0 -127.5 51.5t-45.5 145.5v244q0 11 11 11h109q11 0 11 -11v-228q0 -45 18 -70.5t62 -25.5q42 0 67.5 30.5t25.5 79.5v214q0 11 11 11h109zM317 546q8 -16 -9 -16h-102
q-5 0 -8 4l-86 112q-14 17 8 17h125q6 0 9 -5z" />
    <glyph glyph-name="uacute" unicode="&#xfa;" horiz-adv-x="534" 
d="M472 440q11 0 11 -11v-418q0 -11 -11 -11h-78q-8 0 -10 8l-16 62q-24 -38 -61.5 -60t-85.5 -22q-82 0 -127.5 51.5t-45.5 145.5v244q0 11 11 11h109q11 0 11 -11v-228q0 -45 18 -70.5t62 -25.5q42 0 67.5 30.5t25.5 79.5v214q0 11 11 11h109zM276 658q3 5 8 5h125
q23 0 9 -17l-90 -112q-3 -4 -8 -4h-102q-19 0 -9 16z" />
    <glyph glyph-name="ucircumflex" unicode="&#xfb;" horiz-adv-x="534" 
d="M472 440q11 0 11 -11v-418q0 -11 -11 -11h-78q-8 0 -10 8l-16 62q-24 -38 -61.5 -60t-85.5 -22q-82 0 -127.5 51.5t-45.5 145.5v244q0 11 11 11h109q11 0 11 -11v-228q0 -45 18 -70.5t62 -25.5q42 0 67.5 30.5t25.5 79.5v214q0 11 11 11h109zM431 547q6 -8 3.5 -12.5
t-12.5 -4.5h-99q-6 0 -9 5l-51 82l-51 -82q-3 -5 -9 -5h-99q-10 0 -12.5 4.5t3.5 12.5l86 112q4 4 9 4h146q5 0 9 -4z" />
    <glyph glyph-name="udieresis" unicode="&#xfc;" horiz-adv-x="534" 
d="M472 440q11 0 11 -11v-418q0 -11 -11 -11h-78q-8 0 -10 8l-16 62q-24 -38 -61.5 -60t-85.5 -22q-82 0 -127.5 51.5t-45.5 145.5v244q0 11 11 11h109q11 0 11 -11v-228q0 -45 18 -70.5t62 -25.5q42 0 67.5 30.5t25.5 79.5v214q0 11 11 11h109zM161 668q32 0 50.5 -19.5
t18.5 -49.5q0 -31 -18.5 -50t-50.5 -19q-33 0 -51.5 19t-18.5 50q0 30 18.5 49.5t51.5 19.5zM365 668q33 0 51 -19.5t18 -49.5q0 -31 -18 -50t-51 -19t-51 19t-18 50q0 30 18 49.5t51 19.5z" />
    <glyph glyph-name="yacute" unicode="&#xfd;" horiz-adv-x="528" 
d="M18 425q-8 15 9 15h128q7 0 10 -7l110 -277l98 277q2 7 9 7h119q17 0 10 -15l-253 -609q-3 -6 -11 -6h-123q-17 0 -9 15l87 188zM280 658q3 5 8 5h125q23 0 9 -17l-90 -112q-3 -4 -8 -4h-102q-19 0 -9 16z" />
    <glyph glyph-name="thorn" unicode="&#xfe;" horiz-adv-x="567" 
d="M321 452q47 0 86 -16.5t67 -47t43.5 -73.5t15.5 -95t-15.5 -94.5t-43.5 -73t-66.5 -47.5t-84.5 -17q-45 0 -80 16.5t-58 45.5v-229q0 -11 -10 -11h-110q-10 0 -10 11v908q0 11 10 11h110q10 0 10 -11v-341q24 30 58 47t78 17zM291 333q-47 0 -77.5 -30.5t-30.5 -82.5
t30.5 -82t77.5 -30q50 0 79 31t29 81t-29 81.5t-79 31.5z" />
    <glyph glyph-name="ydieresis" unicode="&#xff;" horiz-adv-x="528" 
d="M18 425q-8 15 9 15h128q7 0 10 -7l110 -277l98 277q2 7 9 7h119q17 0 10 -15l-253 -609q-3 -6 -11 -6h-123q-17 0 -9 15l87 188zM165 668q32 0 50.5 -19.5t18.5 -49.5q0 -31 -18.5 -50t-50.5 -19q-33 0 -51.5 19t-18.5 50q0 30 18.5 49.5t51.5 19.5zM369 668
q33 0 51 -19.5t18 -49.5q0 -31 -18 -50t-51 -19t-51 19t-18 50q0 30 18 49.5t51 19.5z" />
    <glyph glyph-name="Amacron" unicode="&#x100;" horiz-adv-x="757" 
d="M399 705q7 0 10 -6l315 -684q7 -15 -10 -15h-130q-7 0 -10 6l-58 134h-274l-57 -134q-3 -6 -11 -6h-129q-18 0 -11 15l315 684q3 6 10 6h40zM467 261l-88 210l-88 -210h176zM541 786q0 -11 -11 -11h-301q-11 0 -11 11v65q0 11 11 11h301q11 0 11 -11v-65z" />
    <glyph glyph-name="amacron" unicode="&#x101;" horiz-adv-x="492" 
d="M244 452q94 0 145.5 -46.5t51.5 -134.5v-260q0 -11 -11 -11h-78q-8 0 -10 8l-12 49q-27 -32 -69.5 -50.5t-87.5 -18.5q-72 0 -107.5 35t-35.5 95q0 54 40.5 91t118.5 45l124 15v13q0 36 -21.5 52t-61.5 16q-65 0 -117 -37q-10 -6 -16 3l-43 70q-5 9 4 15q83 51 186 51z
M227 178q-32 -4 -48 -14.5t-16 -36.5q0 -48 52 -48q42 0 70 26.5t28 68.5v15zM398 566q0 -11 -11 -11h-301q-11 0 -11 11v65q0 11 11 11h301q11 0 11 -11v-65z" />
    <glyph glyph-name="Abreve" unicode="&#x102;" horiz-adv-x="757" 
d="M399 705q7 0 10 -6l315 -684q7 -15 -10 -15h-130q-7 0 -10 6l-58 134h-274l-57 -134q-3 -6 -11 -6h-129q-18 0 -11 15l315 684q3 6 10 6h40zM467 261l-88 210l-88 -210h176zM216 873q0 10 11 10h79q11 0 11 -10q2 -34 16 -50.5t46 -16.5q33 0 47 16.5t16 50.5q0 10 11 10
h79q11 0 11 -10q-4 -69 -43.5 -107.5t-120.5 -38.5q-80 0 -119.5 38.5t-43.5 107.5z" />
    <glyph glyph-name="abreve" unicode="&#x103;" horiz-adv-x="492" 
d="M244 452q94 0 145.5 -46.5t51.5 -134.5v-260q0 -11 -11 -11h-78q-8 0 -10 8l-12 49q-27 -32 -69.5 -50.5t-87.5 -18.5q-72 0 -107.5 35t-35.5 95q0 54 40.5 91t118.5 45l124 15v13q0 36 -21.5 52t-61.5 16q-65 0 -117 -37q-10 -6 -16 3l-43 70q-5 9 4 15q83 51 186 51z
M227 178q-32 -4 -48 -14.5t-16 -36.5q0 -48 52 -48q42 0 70 26.5t28 68.5v15zM73 653q0 10 11 10h79q11 0 11 -10q2 -34 16 -50.5t46 -16.5q33 0 47 16.5t16 50.5q0 10 11 10h79q11 0 11 -10q-4 -69 -43.5 -107.5t-120.5 -38.5q-80 0 -119.5 38.5t-43.5 107.5z" />
    <glyph glyph-name="Aogonek" unicode="&#x104;" horiz-adv-x="744" 
d="M392 705q7 0 10 -6l314 -683q5 -9 1 -15t-15 -16q-27 -23 -37 -41t-10 -38q0 -35 39 -35h13t11 2t8.5 -0.5t4.5 -7.5l14 -61q2 -9 -7 -12q-16 -5 -35.5 -8.5t-39.5 -3.5q-64 0 -92.5 28t-28.5 70q0 32 16.5 64t52.5 58h-34q-7 0 -10 6l-58 134h-274l-57 -134
q-3 -6 -11 -6h-129q-18 0 -11 15l315 684q3 6 10 6h40zM460 260l-88 211l-88 -211h176z" />
    <glyph glyph-name="aogonek" unicode="&#x105;" horiz-adv-x="492" 
d="M249 452q94 0 145.5 -46.5t51.5 -134.5v-258q0 -8 -5.5 -14t-13.5 -12q-29 -20 -39 -40.5t-10 -40.5q0 -35 38 -35h13t11 2t8.5 -0.5t4.5 -7.5l14 -61q2 -9 -7 -12q-16 -5 -35.5 -8.5t-39.5 -3.5q-63 0 -92 28t-29 70q0 35 19.5 69t62.5 63l-11 47q-27 -32 -69.5 -50.5
t-87.5 -18.5q-72 0 -107.5 35t-35.5 95q0 54 41 90.5t119 45.5l123 15v13q0 36 -21.5 52t-61.5 16q-65 0 -117 -37q-10 -6 -16 3l-43 70q-5 9 4 15q83 51 186 51zM232 178q-32 -4 -48 -14.5t-16 -36.5q0 -48 52 -48q42 0 70 26.5t28 68.5v15z" />
    <glyph glyph-name="Cacute" unicode="&#x106;" horiz-adv-x="729" 
d="M689 568q7 -9 -3 -14l-95 -56q-9 -4 -15 3q-57 82 -171 82q-99 0 -156 -61.5t-57 -170.5q0 -110 57 -172t157 -62q59 0 101.5 22t71.5 62q6 9 15 4l97 -53q9 -4 4 -14q-47 -73 -120 -111.5t-171 -38.5q-80 0 -146 26.5t-112.5 74.5t-72 114.5t-25.5 147.5q0 80 25 146.5
t71.5 114t112 74t145.5 26.5q97 0 170 -37.5t117 -106.5zM415 888q3 5 8 5h125q23 0 9 -17l-90 -112q-3 -4 -8 -4h-102q-19 0 -9 16z" />
    <glyph glyph-name="cacute" unicode="&#x107;" horiz-adv-x="487" 
d="M464 351q7 -9 -3 -14l-79 -44q-9 -5 -16 4q-15 22 -37 34.5t-54 12.5q-51 0 -79 -35.5t-28 -87.5q0 -26 7 -48.5t21 -39.5t34.5 -27t47.5 -10q30 0 51 12.5t35 34.5q3 4 7 5.5t9 -1.5l78 -44q9 -4 4 -14q-31 -48 -80 -74.5t-115 -26.5q-51 0 -93.5 17.5t-73 48t-48 73.5
t-17.5 94t17.5 93t48 73t73.5 48t94 17q62 0 114 -26t82 -75zM280 658q3 5 8 5h125q23 0 9 -17l-90 -112q-3 -4 -8 -4h-102q-19 0 -9 16z" />
    <glyph glyph-name="Ccircumflex" unicode="&#x108;" horiz-adv-x="729" 
d="M689 568q7 -9 -3 -14l-95 -56q-9 -4 -15 3q-57 82 -171 82q-99 0 -156 -61.5t-57 -170.5q0 -110 57 -172t157 -62q59 0 101.5 22t71.5 62q6 9 15 4l97 -53q9 -4 4 -14q-47 -73 -120 -111.5t-171 -38.5q-80 0 -146 26.5t-112.5 74.5t-72 114.5t-25.5 147.5q0 80 25 146.5
t71.5 114t112 74t145.5 26.5q97 0 170 -37.5t117 -106.5zM570 777q6 -8 3.5 -12.5t-12.5 -4.5h-99q-6 0 -9 5l-51 82l-51 -82q-3 -5 -9 -5h-99q-10 0 -12.5 4.5t3.5 12.5l86 112q4 4 9 4h146q5 0 9 -4z" />
    <glyph glyph-name="ccircumflex" unicode="&#x109;" horiz-adv-x="487" 
d="M464 351q7 -9 -3 -14l-79 -44q-9 -5 -16 4q-15 22 -37 34.5t-54 12.5q-51 0 -79 -35.5t-28 -87.5q0 -26 7 -48.5t21 -39.5t34.5 -27t47.5 -10q30 0 51 12.5t35 34.5q3 4 7 5.5t9 -1.5l78 -44q9 -4 4 -14q-31 -48 -80 -74.5t-115 -26.5q-51 0 -93.5 17.5t-73 48t-48 73.5
t-17.5 94t17.5 93t48 73t73.5 48t94 17q62 0 114 -26t82 -75zM435 547q6 -8 3.5 -12.5t-12.5 -4.5h-99q-6 0 -9 5l-51 82l-51 -82q-3 -5 -9 -5h-99q-10 0 -12.5 4.5t3.5 12.5l86 112q4 4 9 4h146q5 0 9 -4z" />
    <glyph glyph-name="Cdotaccent" unicode="&#x10a;" horiz-adv-x="729" 
d="M689 568q7 -9 -3 -14l-95 -56q-9 -4 -15 3q-57 82 -171 82q-99 0 -156 -61.5t-57 -170.5q0 -110 57 -172t157 -62q59 0 101.5 22t71.5 62q6 9 15 4l97 -53q9 -4 4 -14q-47 -73 -120 -111.5t-171 -38.5q-80 0 -146 26.5t-112.5 74.5t-72 114.5t-25.5 147.5q0 80 25 146.5
t71.5 114t112 74t145.5 26.5q97 0 170 -37.5t117 -106.5zM401 904q33 0 54 -19t21 -53q0 -33 -21 -52.5t-54 -19.5t-54 19.5t-21 52.5q0 34 21 53t54 19z" />
    <glyph glyph-name="cdotaccent" unicode="&#x10b;" horiz-adv-x="487" 
d="M464 351q7 -9 -3 -14l-79 -44q-9 -5 -16 4q-15 22 -37 34.5t-54 12.5q-51 0 -79 -35.5t-28 -87.5q0 -26 7 -48.5t21 -39.5t34.5 -27t47.5 -10q30 0 51 12.5t35 34.5q3 4 7 5.5t9 -1.5l78 -44q9 -4 4 -14q-31 -48 -80 -74.5t-115 -26.5q-51 0 -93.5 17.5t-73 48t-48 73.5
t-17.5 94t17.5 93t48 73t73.5 48t94 17q62 0 114 -26t82 -75zM267 674q33 0 54 -19t21 -53q0 -33 -21 -52.5t-54 -19.5t-54 19.5t-21 52.5q0 34 21 53t54 19z" />
    <glyph glyph-name="Ccaron" unicode="&#x10c;" horiz-adv-x="729" 
d="M689 568q7 -9 -3 -14l-95 -56q-9 -4 -15 3q-57 82 -171 82q-99 0 -156 -61.5t-57 -170.5q0 -110 57 -172t157 -62q59 0 101.5 22t71.5 62q6 9 15 4l97 -53q9 -4 4 -14q-47 -73 -120 -111.5t-171 -38.5q-80 0 -146 26.5t-112.5 74.5t-72 114.5t-25.5 147.5q0 80 25 146.5
t71.5 114t112 74t145.5 26.5q97 0 170 -37.5t117 -106.5zM561 893q10 0 12.5 -4.5t-3.5 -12.5l-86 -112q-4 -4 -9 -4h-146q-5 0 -9 4l-86 112q-6 8 -3.5 12.5t12.5 4.5h99q6 0 9 -5l51 -81l51 81q3 5 9 5h99z" />
    <glyph glyph-name="ccaron" unicode="&#x10d;" horiz-adv-x="487" 
d="M464 351q7 -9 -3 -14l-79 -44q-9 -5 -16 4q-15 22 -37 34.5t-54 12.5q-51 0 -79 -35.5t-28 -87.5q0 -26 7 -48.5t21 -39.5t34.5 -27t47.5 -10q30 0 51 12.5t35 34.5q3 4 7 5.5t9 -1.5l78 -44q9 -4 4 -14q-31 -48 -80 -74.5t-115 -26.5q-51 0 -93.5 17.5t-73 48t-48 73.5
t-17.5 94t17.5 93t48 73t73.5 48t94 17q62 0 114 -26t82 -75zM426 663q10 0 12.5 -4.5t-3.5 -12.5l-86 -112q-4 -4 -9 -4h-146q-5 0 -9 4l-86 112q-6 8 -3.5 12.5t12.5 4.5h99q6 0 9 -5l51 -81l51 81q3 5 9 5h99z" />
    <glyph glyph-name="Dcaron" unicode="&#x10e;" horiz-adv-x="753" 
d="M72 689q0 11 11 11h252q88 0 157 -25t116.5 -70t72.5 -108t25 -140q0 -78 -25.5 -144t-73.5 -113t-117 -73.5t-155 -26.5h-252q-11 0 -11 11v678zM212 129h124q110 0 167.5 61.5t57.5 166.5q0 102 -56 158t-169 56h-124v-442zM532 883q10 0 12.5 -4.5t-3.5 -12.5
l-86 -112q-4 -4 -9 -4h-146q-5 0 -9 4l-86 112q-6 8 -3.5 12.5t12.5 4.5h99q6 0 9 -5l51 -81l51 81q3 5 9 5h99z" />
    <glyph glyph-name="dcaron" unicode="&#x10f;" horiz-adv-x="567" 
d="M244 452q46 0 80 -16.5t58 -44.5v338q0 11 11 11h109q11 0 11 -11v-718q0 -11 -11 -11h-78q-8 0 -10 8l-18 65q-23 -40 -61 -62.5t-89 -22.5q-47 0 -86 16.5t-66.5 47t-43 73.5t-15.5 95t15.5 94.5t43.5 73t66 47.5t84 17zM276 339q-54 0 -81 -34t-27 -85t27 -85t81 -34
q48 0 78.5 33.5t30.5 85.5t-30.5 85.5t-78.5 33.5zM642 752q36 0 61 -22.5t25 -68.5q0 -54 -23 -96.5t-61 -72.5q-6 -6 -13 0l-29 25q-10 8 -1 17q34 33 37 70q-34 0 -55 20.5t-21 50.5q0 36 23.5 56.5t56.5 20.5z" />
    <glyph glyph-name="Dcroat" unicode="&#x110;" horiz-adv-x="800" 
d="M119 689q0 11 11 11h255q87 0 155 -25t115.5 -70t72.5 -108t25 -140q0 -78 -25.5 -144t-73.5 -113t-116 -73.5t-153 -26.5h-255q-11 0 -11 11v288h-66q-11 0 -11 11v76q0 10 11 10h66v293zM398 396q11 0 11 -10v-76q0 -11 -11 -11h-139v-166h124q110 0 167.5 59.5
t57.5 164.5q0 102 -56 156t-169 54h-124v-171h139z" />
    <glyph glyph-name="dcroat" unicode="&#x111;" horiz-adv-x="582" 
d="M265 640q0 11 10 11h107v78q0 11 11 11h109q11 0 11 -11v-78h58q11 0 11 -11v-65q0 -11 -11 -11h-58v-553q0 -11 -11 -11h-78q-8 0 -10 8l-18 65q-23 -40 -61 -62.5t-89 -22.5q-47 0 -86 16.5t-66.5 47t-43 73.5t-15.5 95t15.5 94.5t43.5 73t66 47.5t84 17t80 -16.5
t58 -44.5v173h-107q-10 0 -10 11v65zM276 339q-54 0 -81 -34t-27 -85t27 -85t81 -34q48 0 78.5 33.5t30.5 85.5t-30.5 85.5t-78.5 33.5z" />
    <glyph glyph-name="Emacron" unicode="&#x112;" horiz-adv-x="584" 
d="M72 689q0 11 11 11h435q10 0 10 -11v-108q0 -10 -10 -10h-306v-155h268q11 0 11 -11v-101q0 -10 -11 -10h-268v-165h310q11 0 11 -10v-108q0 -11 -11 -11h-439q-11 0 -11 11v678zM464 786q0 -11 -11 -11h-301q-11 0 -11 11v65q0 11 11 11h301q11 0 11 -11v-65z" />
    <glyph glyph-name="emacron" unicode="&#x113;" horiz-adv-x="520" 
d="M490 241q-1 -20 -2.5 -31.5t-3.5 -17.5t-5.5 -7.5t-7.5 -1.5h-305q5 -43 34.5 -68t74.5 -25q33 0 59 12t46 34q8 7 16 -1l60 -57q8 -7 0 -15q-35 -35 -82.5 -55t-104.5 -20q-54 0 -97.5 17t-74 48t-46.5 73t-16 93t16.5 93.5t47 73.5t73 48.5t94.5 17.5q50 0 92 -15
t72 -42.5t46 -66.5t14 -87zM366 264q-2 35 -26.5 61t-73.5 26q-42 0 -70 -23.5t-30 -63.5h200zM423 566q0 -11 -11 -11h-301q-11 0 -11 11v65q0 11 11 11h301q11 0 11 -11v-65z" />
    <glyph glyph-name="Ebreve" unicode="&#x114;" horiz-adv-x="584" 
d="M72 689q0 11 11 11h435q10 0 10 -11v-108q0 -10 -10 -10h-306v-155h268q11 0 11 -11v-101q0 -10 -11 -10h-268v-165h310q11 0 11 -10v-108q0 -11 -11 -11h-439q-11 0 -11 11v678zM139 873q0 10 11 10h79q11 0 11 -10q2 -34 16 -50.5t46 -16.5q33 0 47 16.5t16 50.5
q0 10 11 10h79q11 0 11 -10q-4 -69 -43.5 -107.5t-120.5 -38.5q-80 0 -119.5 38.5t-43.5 107.5z" />
    <glyph glyph-name="ebreve" unicode="&#x115;" horiz-adv-x="520" 
d="M490 241q-1 -20 -2.5 -31.5t-3.5 -17.5t-5.5 -7.5t-7.5 -1.5h-305q5 -43 34.5 -68t74.5 -25q33 0 59 12t46 34q8 7 16 -1l60 -57q8 -7 0 -15q-35 -35 -82.5 -55t-104.5 -20q-54 0 -97.5 17t-74 48t-46.5 73t-16 93t16.5 93.5t47 73.5t73 48.5t94.5 17.5q50 0 92 -15
t72 -42.5t46 -66.5t14 -87zM366 264q-2 35 -26.5 61t-73.5 26q-42 0 -70 -23.5t-30 -63.5h200zM98 653q0 10 11 10h79q11 0 11 -10q2 -34 16 -50.5t46 -16.5q33 0 47 16.5t16 50.5q0 10 11 10h79q11 0 11 -10q-4 -69 -43.5 -107.5t-120.5 -38.5q-80 0 -119.5 38.5
t-43.5 107.5z" />
    <glyph glyph-name="Edotaccent" unicode="&#x116;" horiz-adv-x="584" 
d="M72 689q0 11 11 11h435q10 0 10 -11v-108q0 -10 -10 -10h-306v-155h268q11 0 11 -11v-101q0 -10 -11 -10h-268v-165h310q11 0 11 -10v-108q0 -11 -11 -11h-439q-11 0 -11 11v678zM303 894q33 0 54 -19t21 -53q0 -33 -21 -52.5t-54 -19.5t-54 19.5t-21 52.5q0 34 21 53
t54 19z" />
    <glyph glyph-name="edotaccent" unicode="&#x117;" horiz-adv-x="520" 
d="M490 241q-1 -20 -2.5 -31.5t-3.5 -17.5t-5.5 -7.5t-7.5 -1.5h-305q5 -43 34.5 -68t74.5 -25q33 0 59 12t46 34q8 7 16 -1l60 -57q8 -7 0 -15q-35 -35 -82.5 -55t-104.5 -20q-54 0 -97.5 17t-74 48t-46.5 73t-16 93t16.5 93.5t47 73.5t73 48.5t94.5 17.5q50 0 92 -15
t72 -42.5t46 -66.5t14 -87zM366 264q-2 35 -26.5 61t-73.5 26q-42 0 -70 -23.5t-30 -63.5h200zM262 674q33 0 54 -19t21 -53q0 -33 -21 -52.5t-54 -19.5t-54 19.5t-21 52.5q0 34 21 53t54 19z" />
    <glyph glyph-name="Eogonek" unicode="&#x118;" horiz-adv-x="575" 
d="M67 689q0 11 11 11h435q10 0 10 -11v-108q0 -10 -10 -10h-306v-155h268q11 0 11 -11v-101q0 -10 -11 -10h-268v-165h310q11 0 11 -10v-108q0 -8 -4 -12t-15 -11q-29 -21 -39.5 -41t-10.5 -40q0 -36 39 -36h13t11 2t8.5 -0.5t4.5 -7.5l14 -61q2 -9 -7 -12
q-16 -5 -35.5 -8.5t-39.5 -3.5q-64 0 -92.5 28t-28.5 70q0 32 17.5 64t55.5 58h-341q-11 0 -11 11v678z" />
    <glyph glyph-name="eogonek" unicode="&#x119;" horiz-adv-x="520" 
d="M490 241q-1 -20 -2.5 -31.5t-3.5 -17.5t-5.5 -7.5t-7.5 -1.5h-305q5 -43 34.5 -68t74.5 -25q33 0 59 12t46 34q8 7 16 -1l59 -57q3 -2 3.5 -6.5t-2.5 -7.5q-11 -12 -24.5 -22.5t-27.5 -21.5q-20 -15 -32 -30t-19 -29t-9 -27t-2 -24q0 -39 41 -39h13t11 2t8.5 -0.5
t4.5 -7.5l14 -61q2 -9 -7 -12q-16 -5 -35.5 -8.5t-39.5 -3.5q-58 0 -87.5 25.5t-29.5 70.5q0 24 15 56.5t50 61.5q-5 -2 -14 -4t-17 -2q-54 0 -97.5 17t-74 48t-46.5 73t-16 93t16.5 93.5t47 73.5t73 48.5t94.5 17.5q50 0 92 -15t72 -42.5t46 -66.5t14 -87zM366 264
q-2 35 -26.5 61t-73.5 26q-42 0 -70 -23.5t-30 -63.5h200z" />
    <glyph glyph-name="Ecaron" unicode="&#x11a;" horiz-adv-x="584" 
d="M72 689q0 11 11 11h435q10 0 10 -11v-108q0 -10 -10 -10h-306v-155h268q11 0 11 -11v-101q0 -10 -11 -10h-268v-165h310q11 0 11 -10v-108q0 -11 -11 -11h-439q-11 0 -11 11v678zM462 883q10 0 12.5 -4.5t-3.5 -12.5l-86 -112q-4 -4 -9 -4h-146q-5 0 -9 4l-86 112
q-6 8 -3.5 12.5t12.5 4.5h99q6 0 9 -5l51 -81l51 81q3 5 9 5h99z" />
    <glyph glyph-name="ecaron" unicode="&#x11b;" horiz-adv-x="520" 
d="M490 241q-1 -20 -2.5 -31.5t-3.5 -17.5t-5.5 -7.5t-7.5 -1.5h-305q5 -43 34.5 -68t74.5 -25q33 0 59 12t46 34q8 7 16 -1l60 -57q8 -7 0 -15q-35 -35 -82.5 -55t-104.5 -20q-54 0 -97.5 17t-74 48t-46.5 73t-16 93t16.5 93.5t47 73.5t73 48.5t94.5 17.5q50 0 92 -15
t72 -42.5t46 -66.5t14 -87zM366 264q-2 35 -26.5 61t-73.5 26q-42 0 -70 -23.5t-30 -63.5h200zM422 663q10 0 12.5 -4.5t-3.5 -12.5l-86 -112q-4 -4 -9 -4h-146q-5 0 -9 4l-86 112q-6 8 -3.5 12.5t12.5 4.5h99q6 0 9 -5l51 -81l51 81q3 5 9 5h99z" />
    <glyph glyph-name="Gcircumflex" unicode="&#x11c;" horiz-adv-x="808" 
d="M424 267q-10 0 -10 11v92q0 11 10 11h324q10 0 10 -10q3 -21 3 -43q0 -75 -24.5 -137.5t-69.5 -107.5t-108.5 -70t-141.5 -25q-82 0 -150 26.5t-117 74t-75.5 114.5t-26.5 148q0 80 26 146t73.5 114t114 74.5t146.5 26.5q98 0 175.5 -36.5t121.5 -107.5q6 -9 -3 -15
l-96 -55q-9 -5 -15 4q-29 42 -74.5 61.5t-102.5 19.5q-51 0 -92.5 -16.5t-70 -46.5t-44 -73.5t-15.5 -97.5t15.5 -97.5t45 -73.5t71.5 -46.5t95 -16.5q42 0 76.5 11t60 30.5t40 48t16.5 62.5h-188zM577 777q6 -8 3.5 -12.5t-12.5 -4.5h-99q-6 0 -9 5l-51 82l-51 -82
q-3 -5 -9 -5h-99q-10 0 -12.5 4.5t3.5 12.5l86 112q4 4 9 4h146q5 0 9 -4z" />
    <glyph glyph-name="gcircumflex" unicode="&#x11d;" horiz-adv-x="525" 
d="M508 344q0 -11 -11 -11l-91 -1q18 -13 28.5 -33t10.5 -50q0 -57 -47.5 -92.5t-129.5 -35.5q-45 0 -84 11q-7 -10 -7 -21q0 -30 47 -36l111 -15q81 -11 122 -37.5t41 -79.5q0 -69 -68.5 -106t-189.5 -37q-118 0 -174.5 33t-56.5 93q0 65 70 106q-17 23 -17 54q0 49 48 80
q-57 45 -57 121q0 72 47 118.5t140 46.5q22 0 45.5 -2.5t45.5 -9.5h166q11 0 11 -11v-85zM257 357q-38 0 -58 -20t-20 -52t21 -50.5t56 -18.5q38 0 59 19t21 51t-20.5 51.5t-58.5 19.5zM161 -14q-22 -17 -22 -44t26 -40t83 -13t87.5 8.5t30.5 28.5q0 15 -11 22.5t-40 12.5
l-110 15q-12 2 -23 4.5t-21 5.5zM432 547q6 -8 3.5 -12.5t-12.5 -4.5h-99q-6 0 -9 5l-51 82l-51 -82q-3 -5 -9 -5h-99q-10 0 -12.5 4.5t3.5 12.5l86 112q4 4 9 4h146q5 0 9 -4z" />
    <glyph glyph-name="Gbreve" unicode="&#x11e;" horiz-adv-x="808" 
d="M424 267q-10 0 -10 11v92q0 11 10 11h324q10 0 10 -10q3 -21 3 -43q0 -75 -24.5 -137.5t-69.5 -107.5t-108.5 -70t-141.5 -25q-82 0 -150 26.5t-117 74t-75.5 114.5t-26.5 148q0 80 26 146t73.5 114t114 74.5t146.5 26.5q98 0 175.5 -36.5t121.5 -107.5q6 -9 -3 -15
l-96 -55q-9 -5 -15 4q-29 42 -74.5 61.5t-102.5 19.5q-51 0 -92.5 -16.5t-70 -46.5t-44 -73.5t-15.5 -97.5t15.5 -97.5t45 -73.5t71.5 -46.5t95 -16.5q42 0 76.5 11t60 30.5t40 48t16.5 62.5h-188zM245 883q0 10 11 10h79q11 0 11 -10q2 -34 16 -50.5t46 -16.5q33 0 47 16.5
t16 50.5q0 10 11 10h79q11 0 11 -10q-4 -69 -43.5 -107.5t-120.5 -38.5q-80 0 -119.5 38.5t-43.5 107.5z" />
    <glyph glyph-name="gbreve" unicode="&#x11f;" horiz-adv-x="525" 
d="M508 344q0 -11 -11 -11l-91 -1q18 -13 28.5 -33t10.5 -50q0 -57 -47.5 -92.5t-129.5 -35.5q-45 0 -84 11q-7 -10 -7 -21q0 -30 47 -36l111 -15q81 -11 122 -37.5t41 -79.5q0 -69 -68.5 -106t-189.5 -37q-118 0 -174.5 33t-56.5 93q0 65 70 106q-17 23 -17 54q0 49 48 80
q-57 45 -57 121q0 72 47 118.5t140 46.5q22 0 45.5 -2.5t45.5 -9.5h166q11 0 11 -11v-85zM257 357q-38 0 -58 -20t-20 -52t21 -50.5t56 -18.5q38 0 59 19t21 51t-20.5 51.5t-58.5 19.5zM161 -14q-22 -17 -22 -44t26 -40t83 -13t87.5 8.5t30.5 28.5q0 15 -11 22.5t-40 12.5
l-110 15q-12 2 -23 4.5t-21 5.5zM100 653q0 10 11 10h79q11 0 11 -10q2 -34 16 -50.5t46 -16.5q33 0 47 16.5t16 50.5q0 10 11 10h79q11 0 11 -10q-4 -69 -43.5 -107.5t-120.5 -38.5q-80 0 -119.5 38.5t-43.5 107.5z" />
    <glyph glyph-name="Gdotaccent" unicode="&#x120;" horiz-adv-x="808" 
d="M424 267q-10 0 -10 11v92q0 11 10 11h324q10 0 10 -10q3 -21 3 -43q0 -75 -24.5 -137.5t-69.5 -107.5t-108.5 -70t-141.5 -25q-82 0 -150 26.5t-117 74t-75.5 114.5t-26.5 148q0 80 26 146t73.5 114t114 74.5t146.5 26.5q98 0 175.5 -36.5t121.5 -107.5q6 -9 -3 -15
l-96 -55q-9 -5 -15 4q-29 42 -74.5 61.5t-102.5 19.5q-51 0 -92.5 -16.5t-70 -46.5t-44 -73.5t-15.5 -97.5t15.5 -97.5t45 -73.5t71.5 -46.5t95 -16.5q42 0 76.5 11t60 30.5t40 48t16.5 62.5h-188zM409 904q33 0 54 -19t21 -53q0 -33 -21 -52.5t-54 -19.5t-54 19.5t-21 52.5
q0 34 21 53t54 19z" />
    <glyph glyph-name="gdotaccent" unicode="&#x121;" horiz-adv-x="525" 
d="M508 344q0 -11 -11 -11l-91 -1q18 -13 28.5 -33t10.5 -50q0 -57 -47.5 -92.5t-129.5 -35.5q-45 0 -84 11q-7 -10 -7 -21q0 -30 47 -36l111 -15q81 -11 122 -37.5t41 -79.5q0 -69 -68.5 -106t-189.5 -37q-118 0 -174.5 33t-56.5 93q0 65 70 106q-17 23 -17 54q0 49 48 80
q-57 45 -57 121q0 72 47 118.5t140 46.5q22 0 45.5 -2.5t45.5 -9.5h166q11 0 11 -11v-85zM257 357q-38 0 -58 -20t-20 -52t21 -50.5t56 -18.5q38 0 59 19t21 51t-20.5 51.5t-58.5 19.5zM161 -14q-22 -17 -22 -44t26 -40t83 -13t87.5 8.5t30.5 28.5q0 15 -11 22.5t-40 12.5
l-110 15q-12 2 -23 4.5t-21 5.5zM264 674q33 0 54 -19t21 -53q0 -33 -21 -52.5t-54 -19.5t-54 19.5t-21 52.5q0 34 21 53t54 19z" />
    <glyph glyph-name="uni0122" unicode="&#x122;" horiz-adv-x="808" 
d="M424 267q-10 0 -10 11v92q0 11 10 11h324q10 0 10 -10q3 -21 3 -43q0 -75 -24.5 -137.5t-69.5 -107.5t-108.5 -70t-141.5 -25q-82 0 -150 26.5t-117 74t-75.5 114.5t-26.5 148q0 80 26 146t73.5 114t114 74.5t146.5 26.5q98 0 175.5 -36.5t121.5 -107.5q6 -9 -3 -15
l-96 -55q-9 -5 -15 4q-29 42 -74.5 61.5t-102.5 19.5q-51 0 -92.5 -16.5t-70 -46.5t-44 -73.5t-15.5 -97.5t15.5 -97.5t45 -73.5t71.5 -46.5t95 -16.5q42 0 76.5 11t60 30.5t40 48t16.5 62.5h-188zM416 -30q15 0 28.5 -3.5t24.5 -12t17.5 -22.5t6.5 -34q0 -17 -6.5 -34
t-18 -32t-26 -27.5t-30.5 -21.5q-7 -4 -13 2l-22 24q-8 8 2 16q12 8 18.5 18.5t10.5 22.5q-26 -7 -46.5 5.5t-20.5 38.5q0 31 22 45.5t53 14.5z" />
    <glyph glyph-name="uni0123" unicode="&#x123;" horiz-adv-x="525" 
d="M508 344q0 -11 -11 -11l-91 -1q18 -13 28.5 -33t10.5 -50q0 -57 -47.5 -92.5t-129.5 -35.5q-45 0 -84 11q-7 -10 -7 -21q0 -30 47 -36l111 -15q81 -11 122 -37.5t41 -79.5q0 -69 -68.5 -106t-189.5 -37q-118 0 -174.5 33t-56.5 93q0 65 70 106q-17 23 -17 54q0 49 48 80
q-57 45 -57 121q0 72 47 118.5t140 46.5q22 0 45.5 -2.5t45.5 -9.5h166q11 0 11 -11v-85zM257 357q-38 0 -58 -20t-20 -52t21 -50.5t56 -18.5q38 0 59 19t21 51t-20.5 51.5t-58.5 19.5zM161 -14q-22 -17 -22 -44t26 -40t83 -13t87.5 8.5t30.5 28.5q0 15 -11 22.5t-40 12.5
l-110 15q-12 2 -23 4.5t-21 5.5zM262 530q-34 0 -60.5 19.5t-26.5 65.5q0 45 24 85.5t66 63.5q6 5 12 -3l25 -28q8 -10 -1 -17q-16 -11 -24.5 -22t-12.5 -25q36 2 57 -16.5t21 -48.5q0 -35 -22.5 -54.5t-57.5 -19.5z" />
    <glyph glyph-name="Hcircumflex" unicode="&#x124;" horiz-adv-x="711" 
d="M628 700q11 0 11 -11v-678q0 -11 -11 -11h-119q-10 0 -10 11v268h-287v-268q0 -11 -11 -11h-119q-10 0 -10 11v678q0 11 10 11h119q11 0 11 -11v-279h287v279q0 11 10 11h119zM524 767q6 -8 3.5 -12.5t-12.5 -4.5h-99q-6 0 -9 5l-51 82l-51 -82q-3 -5 -9 -5h-99
q-10 0 -12.5 4.5t3.5 12.5l86 112q4 4 9 4h146q5 0 9 -4z" />
    <glyph glyph-name="hcircumflex" unicode="&#x125;" horiz-adv-x="541" 
d="M175 740q11 0 11 -11v-341q25 30 59.5 47t76.5 17q82 0 126.5 -52t44.5 -146v-243q0 -11 -10 -11h-110q-10 0 -10 11v227q0 45 -19.5 72t-64.5 27q-41 0 -67 -31.5t-26 -80.5v-214q0 -11 -11 -11h-109q-11 0 -11 11v718q0 11 11 11h109zM289 787q6 -8 3.5 -12.5
t-12.5 -4.5h-99q-6 0 -9 5l-51 82l-51 -82q-3 -5 -9 -5h-99q-10 0 -12.5 4.5t3.5 12.5l86 112q4 4 9 4h146q5 0 9 -4z" />
    <glyph glyph-name="Hbar" unicode="&#x126;" horiz-adv-x="805" 
d="M53 508q-11 0 -11 11v72q0 11 11 11h66v87q0 11 11 11h118q11 0 11 -11v-87h287v87q0 11 11 11h119q10 0 10 -11v-87h67q10 0 10 -11v-72q0 -11 -10 -11h-67v-497q0 -11 -10 -11h-119q-11 0 -11 11v268h-287v-268q0 -11 -11 -11h-118q-11 0 -11 11v497h-66zM546 410v98
h-287v-98h287z" />
    <glyph glyph-name="hbar" unicode="&#x127;" horiz-adv-x="541" 
d="M0 640q0 11 11 11h44v78q0 11 11 11h109q11 0 11 -11v-78h120q11 0 11 -11v-65q0 -11 -11 -11h-120v-176q25 30 59.5 47t76.5 17q82 0 126.5 -52t44.5 -146v-243q0 -11 -10 -11h-110q-10 0 -10 11v227q0 45 -19 72t-64 27q-42 0 -68 -31.5t-26 -80.5v-214q0 -11 -11 -11
h-109q-11 0 -11 11v553h-44q-11 0 -11 11v65z" />
    <glyph glyph-name="Itilde" unicode="&#x128;" horiz-adv-x="283" 
d="M201 700q11 0 11 -11v-678q0 -11 -11 -11h-118q-11 0 -11 11v678q0 11 11 11h118zM311 887q11 0 11 -11q-2 -81 -29.5 -115t-70.5 -34q-24 0 -43 11t-35 24t-30.5 24t-28.5 11q-12 0 -19.5 -12t-9.5 -44q0 -11 -11 -11h-74q-11 0 -11 11q2 81 29.5 117t69.5 36
q23 0 42 -12t35.5 -26t31.5 -26t30 -12q14 0 20.5 12.5t8.5 45.5q0 11 10 11h74z" />
    <glyph glyph-name="itilde" unicode="&#x129;" horiz-adv-x="233" 
d="M172 440q10 0 10 -11v-418q0 -11 -10 -11h-110q-10 0 -10 11v418q0 11 10 11h110zM287 667q11 0 11 -11q-2 -81 -29.5 -115t-70.5 -34q-24 0 -43 11t-35 24t-30.5 24t-28.5 11q-12 0 -19.5 -12t-9.5 -44q0 -11 -11 -11h-74q-11 0 -11 11q2 81 29.5 117t69.5 36
q23 0 42 -12t35.5 -26t31.5 -26t30 -12q14 0 20.5 12.5t8.5 45.5q0 11 10 11h74z" />
    <glyph glyph-name="Imacron" unicode="&#x12a;" horiz-adv-x="283" 
d="M201 700q11 0 11 -11v-678q0 -11 -11 -11h-118q-11 0 -11 11v678q0 11 11 11h118zM303 786q0 -11 -11 -11h-301q-11 0 -11 11v65q0 11 11 11h301q11 0 11 -11v-65z" />
    <glyph glyph-name="imacron" unicode="&#x12b;" horiz-adv-x="233" 
d="M172 440q10 0 10 -11v-418q0 -11 -10 -11h-110q-10 0 -10 11v418q0 11 10 11h110zM278 566q0 -11 -11 -11h-301q-11 0 -11 11v65q0 11 11 11h301q11 0 11 -11v-65z" />
    <glyph glyph-name="Ibreve" unicode="&#x12c;" horiz-adv-x="283" 
d="M201 700q11 0 11 -11v-678q0 -11 -11 -11h-118q-11 0 -11 11v678q0 11 11 11h118zM-22 873q0 10 11 10h79q11 0 11 -10q2 -34 16 -50.5t46 -16.5q33 0 47 16.5t16 50.5q0 10 11 10h79q11 0 11 -10q-4 -69 -43.5 -107.5t-120.5 -38.5q-80 0 -119.5 38.5t-43.5 107.5z" />
    <glyph glyph-name="ibreve" unicode="&#x12d;" horiz-adv-x="233" 
d="M172 440q10 0 10 -11v-418q0 -11 -10 -11h-110q-10 0 -10 11v418q0 11 10 11h110zM-46 653q0 10 11 10h79q11 0 11 -10q2 -34 16 -50.5t46 -16.5q33 0 47 16.5t16 50.5q0 10 11 10h79q11 0 11 -10q-4 -69 -43.5 -107.5t-120.5 -38.5q-80 0 -119.5 38.5t-43.5 107.5z" />
    <glyph glyph-name="Iogonek" unicode="&#x12e;" horiz-adv-x="283" 
d="M201 700q11 0 11 -11v-678q0 -11 -11 -11h-118q-11 0 -11 11v678q0 11 11 11h118zM206 -127q5 2 8.5 -0.5t4.5 -7.5l14 -61q2 -9 -7 -12q-16 -5 -35.5 -8.5t-39.5 -3.5q-64 0 -92.5 28t-28.5 70q0 38 23.5 76t77.5 67q2 1 4 1h4l50 -15q11 -3 11.5 -8.5t-7.5 -11.5
q-29 -21 -39.5 -41t-10.5 -40q0 -35 39 -35h13t11 2z" />
    <glyph glyph-name="iogonek" unicode="&#x12f;" horiz-adv-x="224" 
d="M112 673q33 0 55 -19.5t22 -54.5t-22 -54.5t-55 -19.5t-55 19.5t-22 54.5t22 54.5t55 19.5zM167 440q10 0 10 -11v-423q0 -6 -5 -9q-36 -24 -49.5 -46.5t-13.5 -44.5q0 -35 39 -35h13t11 2q9 3 13 -8l14 -61q2 -9 -8 -12q-15 -5 -34.5 -8.5t-39.5 -3.5q-64 0 -92.5 28
t-28.5 70q0 38 14 65.5t37 49.5v436q0 11 10 11h110z" />
    <glyph glyph-name="Idotaccent" unicode="&#x130;" horiz-adv-x="283" 
d="M201 700q11 0 11 -11v-678q0 -11 -11 -11h-118q-11 0 -11 11v678q0 11 11 11h118zM142 894q33 0 54 -19t21 -53q0 -33 -21 -52.5t-54 -19.5t-54 19.5t-21 52.5q0 34 21 53t54 19z" />
    <glyph glyph-name="dotlessi" unicode="&#x131;" horiz-adv-x="233" 
d="M172 440q10 0 10 -11v-418q0 -11 -10 -11h-110q-10 0 -10 11v418q0 11 10 11h110z" />
    <glyph glyph-name="IJ" unicode="&#x132;" horiz-adv-x="572" 
d="M201 700q10 0 10 -11v-575q0 -10 -10 -10h-118q-11 0 -11 10v575q0 11 11 11h118zM489 700q11 0 11 -11v-629q0 -127 -53 -183.5t-161 -56.5q-97 0 -153.5 49t-58.5 149q0 11 11 11h118q10 0 10 -11q2 -41 19.5 -56t53.5 -15q20 0 34.5 4t23.5 14.5t13 29t4 47.5v647
q0 11 10 11h118z" />
    <glyph glyph-name="ij" unicode="&#x133;" horiz-adv-x="466" 
d="M172 440q10 0 10 -11v-418q0 -11 -10 -11h-110q-10 0 -10 11v418q0 11 10 11h110zM117 674q33 0 54 -19t21 -53q0 -33 -21 -52.5t-54 -19.5t-54 19.5t-21 52.5q0 34 21 53t54 19zM404 440q11 0 11 -11v-416q0 -102 -45 -151.5t-138 -51.5q-11 0 -11 11v101q0 11 11 11
q29 3 40.5 18.5t11.5 49.5v428q0 11 11 11h109zM350 674q33 0 54 -19t21 -53q0 -33 -21 -52.5t-54 -19.5t-54 19.5t-21 52.5q0 34 21 53t54 19z" />
    <glyph glyph-name="Jcircumflex" unicode="&#x134;" horiz-adv-x="283" 
d="M201 700q11 0 11 -11v-629q0 -120 -58 -179t-174 -61q-11 0 -11 11v105q0 11 11 11q51 2 71.5 27t20.5 86v629q0 11 11 11h118zM310 767q6 -8 3.5 -12.5t-12.5 -4.5h-99q-6 0 -9 5l-51 82l-51 -82q-3 -5 -9 -5h-99q-10 0 -12.5 4.5t3.5 12.5l86 112q4 4 9 4h146q5 0 9 -4
z" />
    <glyph glyph-name="jcircumflex" unicode="&#x135;" horiz-adv-x="233" 
d="M171 440q11 0 11 -11v-416q0 -102 -45 -151.5t-138 -51.5q-11 0 -11 11v101q0 11 11 11q29 3 40.5 18.5t11.5 49.5v428q0 11 11 11h109zM286 547q6 -8 3.5 -12.5t-12.5 -4.5h-99q-6 0 -9 5l-51 82l-51 -82q-3 -5 -9 -5h-99q-10 0 -12.5 4.5t3.5 12.5l86 112q4 4 9 4h146
q5 0 9 -4z" />
    <glyph glyph-name="uni0136" unicode="&#x136;" horiz-adv-x="672" 
d="M72 689q0 11 11 11h119q10 0 10 -11v-295l267 300q6 6 13 6h145q24 0 8 -18l-292 -311l302 -353q7 -8 4.5 -13t-12.5 -5h-154q-9 0 -15 7l-266 325v-321q0 -11 -10 -11h-119q-11 0 -11 11v678zM340 -30q15 0 28.5 -3.5t24.5 -12t17.5 -22.5t6.5 -34q0 -17 -6.5 -34
t-18 -32t-26 -27.5t-30.5 -21.5q-7 -4 -13 2l-22 24q-8 8 2 16q12 8 18.5 18.5t10.5 22.5q-26 -7 -46.5 5.5t-20.5 38.5q0 31 22 45.5t53 14.5z" />
    <glyph glyph-name="uni0137" unicode="&#x137;" horiz-adv-x="554" 
d="M55 729q0 11 11 11h109q11 0 11 -11v-475l162 182q3 4 8 4h156q5 0 6 -4t-2 -7l-196 -192l210 -227q4 -4 2.5 -7t-5.5 -3h-162q-5 0 -8 4l-171 199v-192q0 -11 -11 -11h-109q-11 0 -11 11v718zM264 -30q15 0 28.5 -3.5t24.5 -12t17.5 -22.5t6.5 -34q0 -17 -6.5 -34
t-18 -32t-26 -27.5t-30.5 -21.5q-7 -4 -13 2l-22 24q-8 8 2 16q12 8 18.5 18.5t10.5 22.5q-26 -7 -46.5 5.5t-20.5 38.5q0 31 22 45.5t53 14.5z" />
    <glyph glyph-name="kgreenlandic" unicode="&#x138;" horiz-adv-x="551" 
d="M51 429q0 11 11 11h109q11 0 11 -11v-175l162 182q3 4 8 4h157q4 0 5.5 -4t-2.5 -7l-196 -192l210 -227q4 -4 2.5 -7t-4.5 -3h-163q-4 0 -8 4l-171 199v-192q0 -11 -11 -11h-109q-11 0 -11 11v418z" />
    <glyph glyph-name="Lacute" unicode="&#x139;" horiz-adv-x="574" 
d="M202 700q10 0 10 -11v-558h310q11 0 11 -11v-109q0 -11 -11 -11h-439q-11 0 -11 11v678q0 11 11 11h119zM156 878q3 5 8 5h125q23 0 9 -17l-90 -112q-3 -4 -8 -4h-102q-19 0 -9 16z" />
    <glyph glyph-name="lacute" unicode="&#x13a;" horiz-adv-x="238" 
d="M184 11q0 -11 -11 -11h-107q-11 0 -11 11v718q0 11 11 11h107q11 0 11 -11v-718zM134 898q3 5 8 5h125q23 0 9 -17l-90 -112q-3 -4 -8 -4h-102q-19 0 -9 16z" />
    <glyph glyph-name="uni013B" unicode="&#x13b;" horiz-adv-x="574" 
d="M202 700q10 0 10 -11v-558h310q11 0 11 -11v-109q0 -11 -11 -11h-439q-11 0 -11 11v678q0 11 11 11h119zM306 -30q15 0 28.5 -3.5t24.5 -12t17.5 -22.5t6.5 -34q0 -17 -6.5 -34t-18 -32t-26 -27.5t-30.5 -21.5q-7 -4 -13 2l-22 24q-8 8 2 16q12 8 18.5 18.5t10.5 22.5
q-26 -7 -46.5 5.5t-20.5 38.5q0 31 22 45.5t53 14.5z" />
    <glyph glyph-name="uni013C" unicode="&#x13c;" horiz-adv-x="238" 
d="M184 11q0 -11 -11 -11h-107q-11 0 -11 11v718q0 11 11 11h107q11 0 11 -11v-718zM121 -30q15 0 28.5 -3.5t24.5 -12t17.5 -22.5t6.5 -34q0 -17 -6.5 -34t-18 -32t-26 -27.5t-30.5 -21.5q-7 -4 -13 2l-22 24q-8 8 2 16q12 8 18.5 18.5t10.5 22.5q-26 -7 -46.5 5.5
t-20.5 38.5q0 31 22 45.5t53 14.5z" />
    <glyph glyph-name="Lcaron" unicode="&#x13d;" horiz-adv-x="574" 
d="M202 700q10 0 10 -11v-558h310q11 0 11 -11v-109q0 -11 -11 -11h-439q-11 0 -11 11v678q0 11 11 11h119zM403 712q36 0 61 -22.5t25 -68.5q0 -54 -23 -96.5t-61 -72.5q-6 -6 -13 0l-29 25q-10 8 -1 17q34 33 37 70q-34 0 -55 20.5t-21 50.5q0 36 23.5 56.5t56.5 20.5z
" />
    <glyph glyph-name="lcaron" unicode="&#x13e;" horiz-adv-x="238" 
d="M184 11q0 -11 -11 -11h-107q-11 0 -11 11v718q0 11 11 11h107q11 0 11 -11v-718zM314 752q36 0 61 -22.5t25 -68.5q0 -54 -23 -96.5t-61 -72.5q-6 -6 -13 0l-29 25q-10 8 -1 17q34 33 37 70q-34 0 -55 20.5t-21 50.5q0 36 23.5 56.5t56.5 20.5z" />
    <glyph glyph-name="Ldot" unicode="&#x13f;" horiz-adv-x="574" 
d="M202 700q10 0 10 -11v-558h310q11 0 11 -11v-109q0 -11 -11 -11h-439q-11 0 -11 11v678q0 11 11 11h119zM419 496q34 0 59 -23.5t25 -61.5t-25 -61.5t-59 -23.5q-35 0 -59.5 23.5t-24.5 61.5t25 61.5t59 23.5z" />
    <glyph glyph-name="ldot" unicode="&#x140;" horiz-adv-x="520" 
d="M184 11q0 -11 -11 -11h-107q-11 0 -11 11v718q0 11 11 11h107q11 0 11 -11v-718zM325 455q34 0 59 -23.5t25 -61.5t-25 -61.5t-59 -23.5q-35 0 -59.5 23.5t-24.5 61.5t25 61.5t59 23.5z" />
    <glyph glyph-name="Lslash" unicode="&#x141;" horiz-adv-x="626" 
d="M67 238q-11 -4 -14 5l-29 63q-5 11 5 14l95 44v325q0 11 11 11h118q11 0 11 -11v-262l143 63q9 4 14 -5l26 -64q4 -11 -5 -14l-178 -78v-198h310q10 0 10 -11v-109q0 -11 -10 -11h-439q-11 0 -11 11v254z" />
    <glyph glyph-name="lslash" unicode="&#x142;" horiz-adv-x="242" 
d="M5 261q-10 -5 -15 4l-27 44q-6 9 3 14l91 57v349q0 11 10 11h108q10 0 10 -11v-268l52 33q10 5 15 -4l27 -45q3 -4 2 -8t-5 -6l-91 -57v-363q0 -11 -10 -11h-108q-10 0 -10 11v282z" />
    <glyph glyph-name="Nacute" unicode="&#x143;" horiz-adv-x="724" 
d="M642 700q11 0 11 -11v-683q0 -11 -11 -11h-35q-8 0 -13 6l-386 434v-424q0 -11 -10 -11h-115q-11 0 -11 11v683q0 11 11 11h34q8 0 14 -6l386 -434v424q0 11 10 11h115zM367 878q3 5 8 5h125q23 0 9 -17l-90 -112q-3 -4 -8 -4h-102q-19 0 -9 16z" />
    <glyph glyph-name="nacute" unicode="&#x144;" horiz-adv-x="536" 
d="M140 440q8 0 10 -8l16 -62q26 38 64.5 60t87.5 22q82 0 126.5 -51.5t44.5 -145.5v-244q0 -11 -11 -11h-109q-11 0 -11 11v228q0 45 -18.5 71.5t-63.5 26.5q-42 0 -68 -31t-26 -80v-215q0 -11 -10 -11h-110q-10 0 -10 11v418q0 11 10 11h78zM296 658q3 5 8 5h125
q23 0 9 -17l-90 -112q-3 -4 -8 -4h-102q-19 0 -9 16z" />
    <glyph glyph-name="uni0145" unicode="&#x145;" horiz-adv-x="724" 
d="M642 700q11 0 11 -11v-683q0 -11 -11 -11h-35q-8 0 -13 6l-386 434v-424q0 -11 -10 -11h-115q-11 0 -11 11v683q0 11 11 11h34q8 0 14 -6l386 -434v424q0 11 10 11h115zM372 -30q15 0 28.5 -3.5t24.5 -12t17.5 -22.5t6.5 -34q0 -17 -6.5 -34t-18 -32t-26 -27.5
t-30.5 -21.5q-7 -4 -13 2l-22 24q-8 8 2 16q12 8 18.5 18.5t10.5 22.5q-26 -7 -46.5 5.5t-20.5 38.5q0 31 22 45.5t53 14.5z" />
    <glyph glyph-name="uni0146" unicode="&#x146;" horiz-adv-x="536" 
d="M140 440q8 0 10 -8l16 -62q26 38 64.5 60t87.5 22q82 0 126.5 -51.5t44.5 -145.5v-244q0 -11 -11 -11h-109q-11 0 -11 11v228q0 45 -18.5 71.5t-63.5 26.5q-42 0 -68 -31t-26 -80v-215q0 -11 -10 -11h-110q-10 0 -10 11v418q0 11 10 11h78zM276 -30q15 0 28.5 -3.5
t24.5 -12t17.5 -22.5t6.5 -34q0 -17 -6.5 -34t-18 -32t-26 -27.5t-30.5 -21.5q-7 -4 -13 2l-22 24q-8 8 2 16q12 8 18.5 18.5t10.5 22.5q-26 -7 -46.5 5.5t-20.5 38.5q0 31 22 45.5t53 14.5z" />
    <glyph glyph-name="Ncaron" unicode="&#x147;" horiz-adv-x="724" 
d="M642 700q11 0 11 -11v-683q0 -11 -11 -11h-35q-8 0 -13 6l-386 434v-424q0 -11 -10 -11h-115q-11 0 -11 11v683q0 11 11 11h34q8 0 14 -6l386 -434v424q0 11 10 11h115zM513 883q10 0 12.5 -4.5t-3.5 -12.5l-86 -112q-4 -4 -9 -4h-146q-5 0 -9 4l-86 112q-6 8 -3.5 12.5
t12.5 4.5h99q6 0 9 -5l51 -81l51 81q3 5 9 5h99z" />
    <glyph glyph-name="ncaron" unicode="&#x148;" horiz-adv-x="536" 
d="M140 440q8 0 10 -8l16 -62q26 38 64.5 60t87.5 22q82 0 126.5 -51.5t44.5 -145.5v-244q0 -11 -11 -11h-109q-11 0 -11 11v228q0 45 -18.5 71.5t-63.5 26.5q-42 0 -68 -31t-26 -80v-215q0 -11 -10 -11h-110q-10 0 -10 11v418q0 11 10 11h78zM442 663q10 0 12.5 -4.5
t-3.5 -12.5l-86 -112q-4 -4 -9 -4h-146q-5 0 -9 4l-86 112q-6 8 -3.5 12.5t12.5 4.5h99q6 0 9 -5l51 -81l51 81q3 5 9 5h99z" />
    <glyph glyph-name="napostrophe" unicode="&#x149;" horiz-adv-x="536" 
d="M140 440q8 0 10 -8l16 -62q26 38 64.5 60t87.5 22q82 0 126.5 -51.5t44.5 -145.5v-244q0 -11 -11 -11h-109q-11 0 -11 11v228q0 45 -18.5 71.5t-63.5 26.5q-42 0 -68 -31t-26 -80v-215q0 -11 -10 -11h-110q-10 0 -10 11v418q0 11 10 11h78zM98 712q36 0 61 -22.5
t25 -68.5q0 -54 -23 -96.5t-61 -72.5q-6 -6 -13 0l-29 25q-10 8 -1 17q34 33 37 70q-34 0 -55 20.5t-21 50.5q0 36 23.5 56.5t56.5 20.5z" />
    <glyph glyph-name="Eng" unicode="&#x14a;" horiz-adv-x="731" 
d="M648 700q11 0 11 -11v-677q0 -110 -50 -163.5t-148 -55.5q-11 0 -11 11v105q0 11 11 11q37 2 52.5 17.5t15.5 59.5v80l-321 357v-423q0 -11 -11 -11h-114q-11 0 -11 11v683q0 11 11 11h34q8 0 14 -6l392 -432v422q0 11 11 11h114z" />
    <glyph glyph-name="eng" unicode="&#x14b;" horiz-adv-x="537" 
d="M51 429q0 11 11 11h78q8 0 10 -8l17 -63q26 38 64 60.5t87 22.5q82 0 126.5 -51.5t44.5 -145.5v-245q0 -200 -182 -200q-10 0 -10 11v102q0 11 10 11q28 2 40 16t12 48v241q0 45 -19 70.5t-64 25.5q-42 0 -68 -30.5t-26 -78.5v-215q0 -11 -11 -11h-109q-11 0 -11 11v418z
" />
    <glyph glyph-name="Omacron" unicode="&#x14c;" horiz-adv-x="815" 
d="M408 712q79 0 145 -26.5t114 -74.5t74.5 -114.5t26.5 -146.5q0 -81 -26.5 -147.5t-74.5 -114t-114 -74t-145 -26.5t-145.5 26.5t-114 74t-74 114t-26.5 147.5q0 80 26.5 146.5t74 114.5t114 74.5t145.5 26.5zM408 583q-50 0 -90 -16.5t-68 -47t-43 -73.5t-15 -96t15 -96
t43 -73.5t68 -47t90 -16.5t89.5 16.5t67.5 47t43 73.5t15 96t-15 96t-43 73.5t-67.5 47t-89.5 16.5zM569 796q0 -11 -11 -11h-301q-11 0 -11 11v65q0 11 11 11h301q11 0 11 -11v-65z" />
    <glyph glyph-name="omacron" unicode="&#x14d;" horiz-adv-x="555" 
d="M277 452q54 0 98.5 -17t77 -47.5t50 -73.5t17.5 -94t-17.5 -93.5t-49.5 -73.5t-77 -48t-99 -17t-98.5 17t-76.5 48t-49.5 73.5t-17.5 93.5t17.5 94t49.5 73.5t76.5 47.5t98.5 17zM277 348q-49 0 -79 -33.5t-30 -93.5t30 -94.5t79 -34.5q50 0 80 34.5t30 94.5t-30 93.5
t-80 33.5zM439 566q0 -11 -11 -11h-301q-11 0 -11 11v65q0 11 11 11h301q11 0 11 -11v-65z" />
    <glyph glyph-name="Obreve" unicode="&#x14e;" horiz-adv-x="815" 
d="M408 712q79 0 145 -26.5t114 -74.5t74.5 -114.5t26.5 -146.5q0 -81 -26.5 -147.5t-74.5 -114t-114 -74t-145 -26.5t-145.5 26.5t-114 74t-74 114t-26.5 147.5q0 80 26.5 146.5t74 114.5t114 74.5t145.5 26.5zM408 583q-50 0 -90 -16.5t-68 -47t-43 -73.5t-15 -96t15 -96
t43 -73.5t68 -47t90 -16.5t89.5 16.5t67.5 47t43 73.5t15 96t-15 96t-43 73.5t-67.5 47t-89.5 16.5zM244 883q0 10 11 10h79q11 0 11 -10q2 -34 16 -50.5t46 -16.5q33 0 47 16.5t16 50.5q0 10 11 10h79q11 0 11 -10q-4 -69 -43.5 -107.5t-120.5 -38.5q-80 0 -119.5 38.5
t-43.5 107.5z" />
    <glyph glyph-name="obreve" unicode="&#x14f;" horiz-adv-x="555" 
d="M277 452q54 0 98.5 -17t77 -47.5t50 -73.5t17.5 -94t-17.5 -93.5t-49.5 -73.5t-77 -48t-99 -17t-98.5 17t-76.5 48t-49.5 73.5t-17.5 93.5t17.5 94t49.5 73.5t76.5 47.5t98.5 17zM277 348q-49 0 -79 -33.5t-30 -93.5t30 -94.5t79 -34.5q50 0 80 34.5t30 94.5t-30 93.5
t-80 33.5zM114 653q0 10 11 10h79q11 0 11 -10q2 -34 16 -50.5t46 -16.5q33 0 47 16.5t16 50.5q0 10 11 10h79q11 0 11 -10q-4 -69 -43.5 -107.5t-120.5 -38.5q-80 0 -119.5 38.5t-43.5 107.5z" />
    <glyph glyph-name="Ohungarumlaut" unicode="&#x150;" horiz-adv-x="815" 
d="M408 712q79 0 145 -26.5t114 -74.5t74.5 -114.5t26.5 -146.5q0 -81 -26.5 -147.5t-74.5 -114t-114 -74t-145 -26.5t-145.5 26.5t-114 74t-74 114t-26.5 147.5q0 80 26.5 146.5t74 114.5t114 74.5t145.5 26.5zM408 583q-50 0 -90 -16.5t-68 -47t-43 -73.5t-15 -96t15 -96
t43 -73.5t68 -47t90 -16.5t89.5 16.5t67.5 47t43 73.5t15 96t-15 96t-43 73.5t-67.5 47t-89.5 16.5zM333 887q3 6 10 6h100q19 0 9 -16l-78 -112q-3 -5 -9 -5h-72q-7 0 -10 4t0 11zM510 887q3 6 9 6h99q10 0 12 -4.5t-3 -11.5l-86 -112q-2 -5 -9 -5h-71q-17 0 -9 15z" />
    <glyph glyph-name="ohungarumlaut" unicode="&#x151;" horiz-adv-x="555" 
d="M277 452q54 0 98.5 -17t77 -47.5t50 -73.5t17.5 -94t-17.5 -93.5t-49.5 -73.5t-77 -48t-99 -17t-98.5 17t-76.5 48t-49.5 73.5t-17.5 93.5t17.5 94t49.5 73.5t76.5 47.5t98.5 17zM277 348q-49 0 -79 -33.5t-30 -93.5t30 -94.5t79 -34.5q50 0 80 34.5t30 94.5t-30 93.5
t-80 33.5zM202 657q3 6 10 6h100q19 0 9 -16l-78 -112q-3 -5 -9 -5h-72q-7 0 -10 4t0 11zM379 657q3 6 9 6h99q10 0 12 -4.5t-3 -11.5l-86 -112q-2 -5 -9 -5h-71q-17 0 -9 15z" />
    <glyph glyph-name="OE" unicode="&#x152;" horiz-adv-x="994" 
d="M930 700q11 0 11 -11v-108q0 -10 -11 -10h-299v-155h265q11 0 11 -11v-101q0 -10 -11 -10h-265v-165h301q10 0 10 -10v-108q0 -11 -10 -11h-527q-79 0 -144.5 24.5t-113 70t-74 110t-26.5 145.5q0 80 26.5 145t74 110.5t113 70t144.5 24.5h525zM407 569
q-100 0 -156.5 -56t-56.5 -163t56.5 -163t156.5 -56l90 -1v439h-90z" />
    <glyph glyph-name="oe" unicode="&#x153;" horiz-adv-x="870" 
d="M274 452q57 0 101 -23t72 -61q29 39 74 61.5t103 22.5q50 0 89.5 -15t68 -42t43.5 -64.5t15 -83.5q0 -22 -2 -34.5t-5.5 -19t-9 -8t-12.5 -1.5h-291q4 -42 33 -68t74 -26q28 0 52 12t44 32q7 7 15 0l62 -56q9 -7 2 -15q-35 -35 -79.5 -55t-101.5 -20q-58 0 -102.5 22
t-73.5 60q-28 -38 -71 -60t-100 -22q-53 0 -97 17t-75.5 48t-49 73.5t-17.5 93.5t17.5 94t49 73.5t75.5 47.5t97 17zM716 264q-3 35 -26 61t-70 26q-42 0 -69.5 -24.5t-31.5 -62.5h197zM277 348q-49 0 -79 -33.5t-30 -93.5t30 -94.5t79 -34.5q50 0 80 34.5t30 94.5t-30 93.5
t-80 33.5z" />
    <glyph glyph-name="Racute" unicode="&#x154;" horiz-adv-x="654" 
d="M212 11q0 -11 -10 -11h-119q-11 0 -11 11v678q0 11 11 11h257q123 0 188 -56t65 -167q0 -47 -13 -83.5t-35.5 -63t-52.5 -44t-64 -25.5l152 -244q11 -17 -8 -17h-151q-5 0 -8 5l-131 232h-70v-226zM212 359h118q119 0 119 113q0 53 -29 76.5t-93 23.5h-115v-213zM336 878
q3 5 8 5h125q23 0 9 -17l-90 -112q-3 -4 -8 -4h-102q-19 0 -9 16z" />
    <glyph glyph-name="racute" unicode="&#x155;" horiz-adv-x="368" 
d="M52 429q0 11 10 11h78q8 0 10 -8l18 -76q26 41 66 66.5t99 29.5q10 0 10 -11v-104q0 -12 -11 -12q-68 2 -109 -32.5t-41 -106.5v-175q0 -11 -10 -11h-110q-10 0 -10 11v418zM210 658q3 5 8 5h125q23 0 9 -17l-90 -112q-3 -4 -8 -4h-102q-19 0 -9 16z" />
    <glyph glyph-name="uni0156" unicode="&#x156;" horiz-adv-x="654" 
d="M212 11q0 -11 -10 -11h-119q-11 0 -11 11v678q0 11 11 11h257q123 0 188 -56t65 -167q0 -47 -13 -83.5t-35.5 -63t-52.5 -44t-64 -25.5l152 -244q11 -17 -8 -17h-151q-5 0 -8 5l-131 232h-70v-226zM212 359h118q119 0 119 113q0 53 -29 76.5t-93 23.5h-115v-213zM333 -30
q15 0 28.5 -3.5t24.5 -12t17.5 -22.5t6.5 -34q0 -17 -6.5 -34t-18 -32t-26 -27.5t-30.5 -21.5q-7 -4 -13 2l-22 24q-8 8 2 16q12 8 18.5 18.5t10.5 22.5q-26 -7 -46.5 5.5t-20.5 38.5q0 31 22 45.5t53 14.5z" />
    <glyph glyph-name="uni0157" unicode="&#x157;" horiz-adv-x="368" 
d="M52 429q0 11 10 11h78q8 0 10 -8l18 -76q26 41 66 66.5t99 29.5q10 0 10 -11v-104q0 -12 -11 -12q-68 2 -109 -32.5t-41 -106.5v-175q0 -11 -10 -11h-110q-10 0 -10 11v418zM121 -30q15 0 28.5 -3.5t24.5 -12t17.5 -22.5t6.5 -34q0 -17 -6.5 -34t-18 -32t-26 -27.5
t-30.5 -21.5q-7 -4 -13 2l-22 24q-8 8 2 16q12 8 18.5 18.5t10.5 22.5q-26 -7 -46.5 5.5t-20.5 38.5q0 31 22 45.5t53 14.5z" />
    <glyph glyph-name="Rcaron" unicode="&#x158;" horiz-adv-x="654" 
d="M212 11q0 -11 -10 -11h-119q-11 0 -11 11v678q0 11 11 11h257q123 0 188 -56t65 -167q0 -47 -13 -83.5t-35.5 -63t-52.5 -44t-64 -25.5l152 -244q11 -17 -8 -17h-151q-5 0 -8 5l-131 232h-70v-226zM212 359h118q119 0 119 113q0 53 -29 76.5t-93 23.5h-115v-213zM482 883
q10 0 12.5 -4.5t-3.5 -12.5l-86 -112q-4 -4 -9 -4h-146q-5 0 -9 4l-86 112q-6 8 -3.5 12.5t12.5 4.5h99q6 0 9 -5l51 -81l51 81q3 5 9 5h99z" />
    <glyph glyph-name="rcaron" unicode="&#x159;" horiz-adv-x="368" 
d="M52 429q0 11 10 11h78q8 0 10 -8l18 -76q26 41 66 66.5t99 29.5q10 0 10 -11v-104q0 -12 -11 -12q-68 2 -109 -32.5t-41 -106.5v-175q0 -11 -10 -11h-110q-10 0 -10 11v418zM356 663q10 0 12.5 -4.5t-3.5 -12.5l-86 -112q-4 -4 -9 -4h-146q-5 0 -9 4l-86 112
q-6 8 -3.5 12.5t12.5 4.5h99q6 0 9 -5l51 -81l51 81q3 5 9 5h99z" />
    <glyph glyph-name="Sacute" unicode="&#x15a;" horiz-adv-x="605" 
d="M464 535q-3 -4 -7.5 -4t-7.5 3q-34 29 -72 41t-83 12q-29 0 -48 -5.5t-30.5 -15.5t-16 -22t-4.5 -26q0 -22 10 -38t29 -28t45.5 -21.5t59.5 -19.5q44 -13 84.5 -29t71.5 -39.5t50 -57.5t19 -82q0 -50 -19 -90t-54 -67.5t-84 -42.5t-109 -15q-75 0 -141 20.5t-124 71.5
q-9 7 -2 14l71 87q8 8 16 0q44 -41 90.5 -54.5t91.5 -13.5q36 0 58.5 7t36 18t18.5 25.5t5 29.5q0 21 -8 35.5t-24.5 25t-41 19t-58.5 17.5q-51 15 -94 33.5t-74.5 44.5t-49.5 61.5t-18 83.5q0 46 17.5 82.5t49 62.5t76.5 40t100 14q69 0 128.5 -16.5t115.5 -62.5
q9 -7 1 -15zM308 888q3 5 8 5h125q23 0 9 -17l-90 -112q-3 -4 -8 -4h-102q-19 0 -9 16z" />
    <glyph glyph-name="sacute" unicode="&#x15b;" horiz-adv-x="459" 
d="M366 312q-6 -8 -16 -1q-23 17 -53 29t-60 12q-29 0 -43.5 -9t-14.5 -24q0 -21 18 -32.5t69 -22.5q89 -19 127.5 -50t38.5 -85q0 -31 -14 -57t-39.5 -45t-61.5 -29t-80 -10q-60 0 -114 16.5t-91 43.5q-7 6 -2 14l44 74q6 9 16 3q30 -22 67 -36.5t76 -14.5q29 0 47.5 11
t18.5 27q0 9 -3.5 15.5t-14 12.5t-30 12t-52.5 14q-81 18 -117.5 51t-36.5 86q0 62 50 98.5t138 36.5q56 0 104 -16t83 -42q7 -6 2 -15zM246 658q3 5 8 5h125q23 0 9 -17l-90 -112q-3 -4 -8 -4h-102q-19 0 -9 16z" />
    <glyph glyph-name="Scircumflex" unicode="&#x15c;" horiz-adv-x="605" 
d="M464 535q-3 -4 -7.5 -4t-7.5 3q-34 29 -72 41t-83 12q-29 0 -48 -5.5t-30.5 -15.5t-16 -22t-4.5 -26q0 -22 10 -38t29 -28t45.5 -21.5t59.5 -19.5q44 -13 84.5 -29t71.5 -39.5t50 -57.5t19 -82q0 -50 -19 -90t-54 -67.5t-84 -42.5t-109 -15q-75 0 -141 20.5t-124 71.5
q-9 7 -2 14l71 87q8 8 16 0q44 -41 90.5 -54.5t91.5 -13.5q36 0 58.5 7t36 18t18.5 25.5t5 29.5q0 21 -8 35.5t-24.5 25t-41 19t-58.5 17.5q-51 15 -94 33.5t-74.5 44.5t-49.5 61.5t-18 83.5q0 46 17.5 82.5t49 62.5t76.5 40t100 14q69 0 128.5 -16.5t115.5 -62.5
q9 -7 1 -15zM463 777q6 -8 3.5 -12.5t-12.5 -4.5h-99q-6 0 -9 5l-51 82l-51 -82q-3 -5 -9 -5h-99q-10 0 -12.5 4.5t3.5 12.5l86 112q4 4 9 4h146q5 0 9 -4z" />
    <glyph glyph-name="scircumflex" unicode="&#x15d;" horiz-adv-x="459" 
d="M366 312q-6 -8 -16 -1q-23 17 -53 29t-60 12q-29 0 -43.5 -9t-14.5 -24q0 -21 18 -32.5t69 -22.5q89 -19 127.5 -50t38.5 -85q0 -31 -14 -57t-39.5 -45t-61.5 -29t-80 -10q-60 0 -114 16.5t-91 43.5q-7 6 -2 14l44 74q6 9 16 3q30 -22 67 -36.5t76 -14.5q29 0 47.5 11
t18.5 27q0 9 -3.5 15.5t-14 12.5t-30 12t-52.5 14q-81 18 -117.5 51t-36.5 86q0 62 50 98.5t138 36.5q56 0 104 -16t83 -42q7 -6 2 -15zM401 547q6 -8 3.5 -12.5t-12.5 -4.5h-99q-6 0 -9 5l-51 82l-51 -82q-3 -5 -9 -5h-99q-10 0 -12.5 4.5t3.5 12.5l86 112q4 4 9 4h146
q5 0 9 -4z" />
    <glyph glyph-name="Scedilla" unicode="&#x15e;" horiz-adv-x="605" 
d="M464 535q-3 -4 -7.5 -4t-7.5 3q-34 29 -72 41t-83 12q-29 0 -48 -5.5t-30.5 -15.5t-16 -22t-4.5 -26q0 -22 10 -38t29 -28t45.5 -21.5t59.5 -19.5q44 -13 84.5 -29t71.5 -39.5t50 -57.5t19 -82q0 -50 -19 -90t-54 -67.5t-84 -42.5t-109 -15q-75 0 -141 20.5t-124 71.5
q-9 7 -2 14l71 87q8 8 16 0q44 -41 90.5 -54.5t91.5 -13.5q36 0 58.5 7t36 18t18.5 25.5t5 29.5q0 21 -8 35.5t-24.5 25t-41 19t-58.5 17.5q-51 15 -94 33.5t-74.5 44.5t-49.5 61.5t-18 83.5q0 46 17.5 82.5t49 62.5t76.5 40t100 14q69 0 128.5 -16.5t115.5 -62.5
q9 -7 1 -15zM323 10q13 0 11 -13l-8 -40q114 -9 114 -84q0 -43 -38.5 -69.5t-113.5 -26.5q-43 0 -86 8q-10 2 -8 13l10 50q2 12 14 9q18 -5 38 -7t37 -2q26 0 38 8.5t12 20.5q0 17 -19.5 24.5t-70.5 9.5q-6 0 -9.5 4t-1.5 9l16 78q2 8 10 8h55z" />
    <glyph glyph-name="scedilla" unicode="&#x15f;" horiz-adv-x="459" 
d="M366 312q-6 -8 -16 -1q-23 17 -53 29t-60 12q-29 0 -43.5 -9t-14.5 -24q0 -21 18 -32.5t69 -22.5q89 -19 127.5 -50t38.5 -85q0 -31 -14 -57t-39.5 -45t-61.5 -29t-80 -10q-60 0 -114 16.5t-91 43.5q-7 6 -2 14l44 74q6 9 16 3q30 -22 67 -36.5t76 -14.5q29 0 47.5 11
t18.5 27q0 9 -3.5 15.5t-14 12.5t-30 12t-52.5 14q-81 18 -117.5 51t-36.5 86q0 62 50 98.5t138 36.5q56 0 104 -16t83 -42q7 -6 2 -15zM256 10q13 0 11 -13l-8 -40q114 -9 114 -84q0 -43 -38.5 -69.5t-113.5 -26.5q-43 0 -86 8q-10 2 -8 13l10 50q2 12 14 9q18 -5 38 -7
t37 -2q26 0 38 8.5t12 20.5q0 17 -19.5 24.5t-70.5 9.5q-6 0 -9.5 4t-1.5 9l16 78q2 8 10 8h55z" />
    <glyph glyph-name="Scaron" unicode="&#x160;" horiz-adv-x="605" 
d="M464 535q-3 -4 -7.5 -4t-7.5 3q-34 29 -72 41t-83 12q-29 0 -48 -5.5t-30.5 -15.5t-16 -22t-4.5 -26q0 -22 10 -38t29 -28t45.5 -21.5t59.5 -19.5q44 -13 84.5 -29t71.5 -39.5t50 -57.5t19 -82q0 -50 -19 -90t-54 -67.5t-84 -42.5t-109 -15q-75 0 -141 20.5t-124 71.5
q-9 7 -2 14l71 87q8 8 16 0q44 -41 90.5 -54.5t91.5 -13.5q36 0 58.5 7t36 18t18.5 25.5t5 29.5q0 21 -8 35.5t-24.5 25t-41 19t-58.5 17.5q-51 15 -94 33.5t-74.5 44.5t-49.5 61.5t-18 83.5q0 46 17.5 82.5t49 62.5t76.5 40t100 14q69 0 128.5 -16.5t115.5 -62.5
q9 -7 1 -15zM454 893q10 0 12.5 -4.5t-3.5 -12.5l-86 -112q-4 -4 -9 -4h-146q-5 0 -9 4l-86 112q-6 8 -3.5 12.5t12.5 4.5h99q6 0 9 -5l51 -81l51 81q3 5 9 5h99z" />
    <glyph glyph-name="scaron" unicode="&#x161;" horiz-adv-x="459" 
d="M366 312q-6 -8 -16 -1q-23 17 -53 29t-60 12q-29 0 -43.5 -9t-14.5 -24q0 -21 18 -32.5t69 -22.5q89 -19 127.5 -50t38.5 -85q0 -31 -14 -57t-39.5 -45t-61.5 -29t-80 -10q-60 0 -114 16.5t-91 43.5q-7 6 -2 14l44 74q6 9 16 3q30 -22 67 -36.5t76 -14.5q29 0 47.5 11
t18.5 27q0 9 -3.5 15.5t-14 12.5t-30 12t-52.5 14q-81 18 -117.5 51t-36.5 86q0 62 50 98.5t138 36.5q56 0 104 -16t83 -42q7 -6 2 -15zM392 663q10 0 12.5 -4.5t-3.5 -12.5l-86 -112q-4 -4 -9 -4h-146q-5 0 -9 4l-86 112q-6 8 -3.5 12.5t12.5 4.5h99q6 0 9 -5l51 -81l51 81
q3 5 9 5h99z" />
    <glyph glyph-name="uni0162" unicode="&#x162;" horiz-adv-x="599" 
d="M30 689q0 11 10 11h519q11 0 11 -11v-109q0 -11 -11 -11h-189v-558q0 -11 -11 -11h-119q-10 0 -10 11v558h-190q-10 0 -10 11v109zM327 10q13 0 11 -13l-8 -40q114 -9 114 -84q0 -43 -38.5 -69.5t-113.5 -26.5q-43 0 -86 8q-10 2 -8 13l10 50q2 12 14 9q18 -5 38 -7
t37 -2q26 0 38 8.5t12 20.5q0 17 -19.5 24.5t-70.5 9.5q-6 0 -9.5 4t-1.5 9l16 78q2 8 10 8h55z" />
    <glyph glyph-name="uni0163" unicode="&#x163;" horiz-adv-x="406" 
d="M215 550q11 0 11 -11v-99h123q10 0 10 -11v-85q0 -11 -10 -11h-124v-169q0 -35 12 -49.5t36 -14.5q17 0 33 4.5t32 12.5q5 2 9.5 1t6.5 -7l31 -78q4 -9 -4 -14q-29 -14 -62.5 -22.5t-67.5 -8.5q-155 0 -155 162v183h-69q-11 0 -11 11v85q0 11 11 11h76l59 104q3 6 9 6h44
zM215 22q13 0 11 -13l-8 -40q114 -9 114 -84q0 -43 -38.5 -69.5t-113.5 -26.5q-43 0 -86 8q-10 2 -8 13l10 50q2 12 14 9q18 -5 38 -7t37 -2q26 0 38 8.5t12 20.5q0 17 -19.5 24.5t-70.5 9.5q-6 0 -9.5 4t-1.5 9l16 78q2 8 10 8h55z" />
    <glyph glyph-name="Tcaron" unicode="&#x164;" horiz-adv-x="599" 
d="M30 689q0 11 10 11h519q11 0 11 -11v-109q0 -11 -11 -11h-189v-558q0 -11 -11 -11h-119q-10 0 -10 11v558h-190q-10 0 -10 11v109zM459 883q10 0 12.5 -4.5t-3.5 -12.5l-86 -112q-4 -4 -9 -4h-146q-5 0 -9 4l-86 112q-6 8 -3.5 12.5t12.5 4.5h99q6 0 9 -5l51 -81l51 81
q3 5 9 5h99z" />
    <glyph glyph-name="tcaron" unicode="&#x165;" horiz-adv-x="406" 
d="M215 550q11 0 11 -11v-99h123q10 0 10 -11v-85q0 -11 -10 -11h-124v-169q0 -35 12 -49.5t36 -14.5q17 0 33 4.5t32 12.5q5 2 9.5 1t6.5 -7l31 -78q4 -9 -4 -14q-29 -14 -62.5 -22.5t-67.5 -8.5q-155 0 -155 162v183h-69q-11 0 -11 11v85q0 11 11 11h76l59 104q3 6 9 6h44
zM320 749q36 0 61 -22.5t25 -68.5q0 -54 -23 -96.5t-61 -72.5q-6 -6 -13 0l-29 25q-10 8 -1 17q34 33 37 70q-34 0 -55 20.5t-21 50.5q0 36 23.5 56.5t56.5 20.5z" />
    <glyph glyph-name="Tbar" unicode="&#x166;" horiz-adv-x="599" 
d="M29 689q0 11 11 11h519q11 0 11 -11v-109q0 -11 -11 -11h-190v-200h108q10 0 10 -11v-76q0 -10 -10 -10h-108v-261q0 -11 -10 -11h-119q-11 0 -11 11v261h-107q-10 0 -10 10v76q0 11 10 11h107v200h-189q-11 0 -11 11v109z" />
    <glyph glyph-name="tbar" unicode="&#x167;" horiz-adv-x="406" 
d="M30 263q0 11 11 11h55v59h-69q-11 0 -11 11v85q0 11 11 11h76l59 104q3 6 9 6h44q11 0 11 -11v-99h123q10 0 10 -11v-85q0 -11 -10 -11h-124v-59h129q10 0 10 -11v-59q0 -10 -10 -10h-129v-33q0 -35 11.5 -48t36.5 -13q17 0 33 4.5t32 12.5q5 2 9.5 1t6.5 -7l31 -78
q4 -9 -4 -14q-29 -14 -62.5 -22.5t-67.5 -8.5q-155 0 -155 162v44h-55q-11 0 -11 10v59z" />
    <glyph glyph-name="Utilde" unicode="&#x168;" horiz-adv-x="689" 
d="M611 700q11 0 11 -11v-428q0 -63 -19 -113.5t-54.5 -86t-87 -54.5t-116.5 -19t-116.5 19t-87 54.5t-54.5 86t-19 113.5v428q0 11 11 11h119q10 0 10 -11v-415q0 -75 34 -115t103 -40t103 40t34 115v415q0 11 11 11h118zM515 887q11 0 11 -11q-2 -81 -29.5 -115t-70.5 -34
q-24 0 -43 11t-35 24t-30.5 24t-28.5 11q-12 0 -19.5 -12t-9.5 -44q0 -11 -11 -11h-74q-11 0 -11 11q2 81 29.5 117t69.5 36q23 0 42 -12t35.5 -26t31.5 -26t30 -12q14 0 20.5 12.5t8.5 45.5q0 11 10 11h74z" />
    <glyph glyph-name="utilde" unicode="&#x169;" horiz-adv-x="534" 
d="M472 440q11 0 11 -11v-418q0 -11 -11 -11h-78q-8 0 -10 8l-16 62q-24 -38 -61.5 -60t-85.5 -22q-82 0 -127.5 51.5t-45.5 145.5v244q0 11 11 11h109q11 0 11 -11v-228q0 -45 18 -70.5t62 -25.5q42 0 67.5 30.5t25.5 79.5v214q0 11 11 11h109zM432 667q11 0 11 -11
q-2 -81 -29.5 -115t-70.5 -34q-24 0 -43 11t-35 24t-30.5 24t-28.5 11q-12 0 -19.5 -12t-9.5 -44q0 -11 -11 -11h-74q-11 0 -11 11q2 81 29.5 117t69.5 36q23 0 42 -12t35.5 -26t31.5 -26t30 -12q14 0 20.5 12.5t8.5 45.5q0 11 10 11h74z" />
    <glyph glyph-name="Umacron" unicode="&#x16a;" horiz-adv-x="689" 
d="M611 700q11 0 11 -11v-428q0 -63 -19 -113.5t-54.5 -86t-87 -54.5t-116.5 -19t-116.5 19t-87 54.5t-54.5 86t-19 113.5v428q0 11 11 11h119q10 0 10 -11v-415q0 -75 34 -115t103 -40t103 40t34 115v415q0 11 11 11h118zM507 786q0 -11 -11 -11h-301q-11 0 -11 11v65
q0 11 11 11h301q11 0 11 -11v-65z" />
    <glyph glyph-name="umacron" unicode="&#x16b;" horiz-adv-x="534" 
d="M472 440q11 0 11 -11v-418q0 -11 -11 -11h-78q-8 0 -10 8l-16 62q-24 -38 -61.5 -60t-85.5 -22q-82 0 -127.5 51.5t-45.5 145.5v244q0 11 11 11h109q11 0 11 -11v-228q0 -45 18 -70.5t62 -25.5q42 0 67.5 30.5t25.5 79.5v214q0 11 11 11h109zM424 566q0 -11 -11 -11h-301
q-11 0 -11 11v65q0 11 11 11h301q11 0 11 -11v-65z" />
    <glyph glyph-name="Ubreve" unicode="&#x16c;" horiz-adv-x="689" 
d="M611 700q11 0 11 -11v-428q0 -63 -19 -113.5t-54.5 -86t-87 -54.5t-116.5 -19t-116.5 19t-87 54.5t-54.5 86t-19 113.5v428q0 11 11 11h119q10 0 10 -11v-415q0 -75 34 -115t103 -40t103 40t34 115v415q0 11 11 11h118zM182 873q0 10 11 10h79q11 0 11 -10
q2 -34 16 -50.5t46 -16.5q33 0 47 16.5t16 50.5q0 10 11 10h79q11 0 11 -10q-4 -69 -43.5 -107.5t-120.5 -38.5q-80 0 -119.5 38.5t-43.5 107.5z" />
    <glyph glyph-name="ubreve" unicode="&#x16d;" horiz-adv-x="534" 
d="M472 440q11 0 11 -11v-418q0 -11 -11 -11h-78q-8 0 -10 8l-16 62q-24 -38 -61.5 -60t-85.5 -22q-82 0 -127.5 51.5t-45.5 145.5v244q0 11 11 11h109q11 0 11 -11v-228q0 -45 18 -70.5t62 -25.5q42 0 67.5 30.5t25.5 79.5v214q0 11 11 11h109zM99 653q0 10 11 10h79
q11 0 11 -10q2 -34 16 -50.5t46 -16.5q33 0 47 16.5t16 50.5q0 10 11 10h79q11 0 11 -10q-4 -69 -43.5 -107.5t-120.5 -38.5q-80 0 -119.5 38.5t-43.5 107.5z" />
    <glyph glyph-name="Uring" unicode="&#x16e;" horiz-adv-x="689" 
d="M611 700q11 0 11 -11v-428q0 -63 -19 -113.5t-54.5 -86t-87 -54.5t-116.5 -19t-116.5 19t-87 54.5t-54.5 86t-19 113.5v428q0 11 11 11h119q10 0 10 -11v-415q0 -75 34 -115t103 -40t103 40t34 115v415q0 11 11 11h118zM345 975q59 0 95.5 -34.5t36.5 -89.5
q0 -54 -36.5 -88t-95.5 -34t-95.5 34t-36.5 88q0 55 36.5 89.5t95.5 34.5zM345 902q-26 0 -37 -14t-11 -37q0 -21 11 -35t37 -14t37 14t11 35q0 23 -11 37t-37 14z" />
    <glyph glyph-name="uring" unicode="&#x16f;" horiz-adv-x="534" 
d="M472 440q11 0 11 -11v-418q0 -11 -11 -11h-78q-8 0 -10 8l-16 62q-24 -38 -61.5 -60t-85.5 -22q-82 0 -127.5 51.5t-45.5 145.5v244q0 11 11 11h109q11 0 11 -11v-228q0 -45 18 -70.5t62 -25.5q42 0 67.5 30.5t25.5 79.5v214q0 11 11 11h109zM262 755q59 0 95.5 -34.5
t36.5 -89.5q0 -54 -36.5 -88t-95.5 -34t-95.5 34t-36.5 88q0 55 36.5 89.5t95.5 34.5zM262 682q-26 0 -37 -14t-11 -37q0 -21 11 -35t37 -14t37 14t11 35q0 23 -11 37t-37 14z" />
    <glyph glyph-name="Uhungarumlaut" unicode="&#x170;" horiz-adv-x="689" 
d="M611 700q11 0 11 -11v-428q0 -63 -19 -113.5t-54.5 -86t-87 -54.5t-116.5 -19t-116.5 19t-87 54.5t-54.5 86t-19 113.5v428q0 11 11 11h119q10 0 10 -11v-415q0 -75 34 -115t103 -40t103 40t34 115v415q0 11 11 11h118zM270 877q3 6 10 6h100q19 0 9 -16l-78 -112
q-3 -5 -9 -5h-72q-7 0 -10 4t0 11zM447 877q3 6 9 6h99q10 0 12 -4.5t-3 -11.5l-86 -112q-2 -5 -9 -5h-71q-17 0 -9 15z" />
    <glyph glyph-name="uhungarumlaut" unicode="&#x171;" horiz-adv-x="534" 
d="M472 440q11 0 11 -11v-418q0 -11 -11 -11h-78q-8 0 -10 8l-16 62q-24 -38 -61.5 -60t-85.5 -22q-82 0 -127.5 51.5t-45.5 145.5v244q0 11 11 11h109q11 0 11 -11v-228q0 -45 18 -70.5t62 -25.5q42 0 67.5 30.5t25.5 79.5v214q0 11 11 11h109zM187 657q3 6 10 6h100
q19 0 9 -16l-78 -112q-3 -5 -9 -5h-72q-7 0 -10 4t0 11zM364 657q3 6 9 6h99q10 0 12 -4.5t-3 -11.5l-86 -112q-2 -5 -9 -5h-71q-17 0 -9 15z" />
    <glyph glyph-name="Uogonek" unicode="&#x172;" horiz-adv-x="680" 
d="M606 700q11 0 11 -11v-428q0 -108 -53 -177.5t-150 -88.5q-31 -24 -43.5 -47t-12.5 -42q0 -35 39 -35h13t11 2t8.5 -0.5t4.5 -7.5l14 -61q2 -9 -7 -12q-16 -5 -35.5 -8.5t-39.5 -3.5q-64 0 -92.5 28t-28.5 70q0 29 13.5 57.5t42.5 54.5q-112 11 -175 82.5t-63 188.5v428
q0 11 11 11h119q10 0 10 -11v-415q0 -75 34 -115t103 -40t103 40t34 115v415q0 11 11 11h118z" />
    <glyph glyph-name="uogonek" unicode="&#x173;" horiz-adv-x="524" 
d="M467 440q11 0 11 -11v-416q0 -8 -4.5 -13t-14.5 -13q-29 -21 -39.5 -41t-10.5 -40q0 -35 39 -35h13t11 2t8.5 -0.5t4.5 -7.5l14 -61q2 -9 -7 -12q-16 -5 -35.5 -8.5t-39.5 -3.5q-64 0 -92.5 28t-28.5 70q0 35 19.5 69t62.5 65l-15 58q-24 -38 -61.5 -60t-85.5 -22
q-82 0 -127.5 51.5t-45.5 145.5v244q0 11 11 11h109q11 0 11 -11v-228q0 -45 18 -70.5t62 -25.5q42 0 67.5 30.5t25.5 79.5v214q0 11 11 11h109z" />
    <glyph glyph-name="Wcircumflex" unicode="&#x174;" horiz-adv-x="1078" 
d="M1030 700q13 0 8 -14l-243 -684q-2 -7 -10 -7h-39q-7 0 -10 6l-197 442l-196 -442q-3 -6 -11 -6h-39q-7 0 -9 7l-243 684q-5 14 7 14h128q8 0 10 -7l145 -429l182 418q3 6 10 6h31q7 0 10 -6l184 -418l144 429q2 7 10 7h128zM707 767q6 -8 3.5 -12.5t-12.5 -4.5h-99
q-6 0 -9 5l-51 82l-51 -82q-3 -5 -9 -5h-99q-10 0 -12.5 4.5t3.5 12.5l86 112q4 4 9 4h146q5 0 9 -4z" />
    <glyph glyph-name="wcircumflex" unicode="&#x175;" horiz-adv-x="784" 
d="M756 440q17 0 10 -15l-187 -424q-3 -6 -10 -6h-41q-6 0 -9 6l-127 262l-127 -262q-3 -6 -9 -6h-41q-6 0 -9 6l-189 424q-5 15 10 15h122q8 0 10 -7l88 -233l115 235q3 5 9 5h41q7 0 10 -5l115 -235l87 233q4 7 10 7h122zM559 547q6 -8 3.5 -12.5t-12.5 -4.5h-99
q-6 0 -9 5l-51 82l-51 -82q-3 -5 -9 -5h-99q-10 0 -12.5 4.5t3.5 12.5l86 112q4 4 9 4h146q5 0 9 -4z" />
    <glyph glyph-name="Ycircumflex" unicode="&#x176;" horiz-adv-x="672" 
d="M641 700q16 0 6 -16l-241 -408v-265q0 -11 -10 -11h-119q-11 0 -11 11v265l-240 408q-10 16 6 16h140q6 0 9 -6l155 -289l156 289q3 6 9 6h140zM505 767q6 -8 3.5 -12.5t-12.5 -4.5h-99q-6 0 -9 5l-51 82l-51 -82q-3 -5 -9 -5h-99q-10 0 -12.5 4.5t3.5 12.5l86 112
q4 4 9 4h146q5 0 9 -4z" />
    <glyph glyph-name="ycircumflex" unicode="&#x177;" horiz-adv-x="528" 
d="M18 425q-8 15 9 15h128q7 0 10 -7l110 -277l98 277q2 7 9 7h119q17 0 10 -15l-253 -609q-3 -6 -11 -6h-123q-17 0 -9 15l87 188zM435 547q6 -8 3.5 -12.5t-12.5 -4.5h-99q-6 0 -9 5l-51 82l-51 -82q-3 -5 -9 -5h-99q-10 0 -12.5 4.5t3.5 12.5l86 112q4 4 9 4h146
q5 0 9 -4z" />
    <glyph glyph-name="Ydieresis" unicode="&#x178;" horiz-adv-x="672" 
d="M641 700q16 0 6 -16l-241 -408v-265q0 -11 -10 -11h-119q-11 0 -11 11v265l-240 408q-10 16 6 16h140q6 0 9 -6l155 -289l156 289q3 6 9 6h140zM235 888q32 0 50.5 -19.5t18.5 -49.5q0 -31 -18.5 -50t-50.5 -19q-33 0 -51.5 19t-18.5 50q0 30 18.5 49.5t51.5 19.5z
M439 888q33 0 51 -19.5t18 -49.5q0 -31 -18 -50t-51 -19t-51 19t-18 50q0 30 18 49.5t51 19.5z" />
    <glyph glyph-name="Zacute" unicode="&#x179;" horiz-adv-x="644" 
d="M68 569q-11 0 -11 11v109q0 11 11 11h509q11 0 11 -11v-37q0 -5 -3 -10l-330 -513l327 2q11 0 11 -11v-109q0 -11 -11 -11h-519q-11 0 -11 11v37q0 6 3 10l329 511h-316zM341 878q3 5 8 5h125q23 0 9 -17l-90 -112q-3 -4 -8 -4h-102q-19 0 -9 16z" />
    <glyph glyph-name="zacute" unicode="&#x17a;" horiz-adv-x="460" 
d="M51 336q-11 0 -11 10v83q0 11 11 11h358q11 0 11 -11v-37q0 -6 -5 -13l-195 -275h198q11 0 11 -10v-83q0 -11 -11 -11h-376q-10 0 -10 11v36q0 3 1 7.5t5 9.5l195 272h-182zM252 658q3 5 8 5h125q23 0 9 -17l-90 -112q-3 -4 -8 -4h-102q-19 0 -9 16z" />
    <glyph glyph-name="Zdotaccent" unicode="&#x17b;" horiz-adv-x="644" 
d="M68 569q-11 0 -11 11v109q0 11 11 11h509q11 0 11 -11v-37q0 -5 -3 -10l-330 -513l327 2q11 0 11 -11v-109q0 -11 -11 -11h-519q-11 0 -11 11v37q0 6 3 10l329 511h-316zM327 894q33 0 54 -19t21 -53q0 -33 -21 -52.5t-54 -19.5t-54 19.5t-21 52.5q0 34 21 53t54 19z" />
    <glyph glyph-name="zdotaccent" unicode="&#x17c;" horiz-adv-x="460" 
d="M51 336q-11 0 -11 10v83q0 11 11 11h358q11 0 11 -11v-37q0 -6 -5 -13l-195 -275h198q11 0 11 -10v-83q0 -11 -11 -11h-376q-10 0 -10 11v36q0 3 1 7.5t5 9.5l195 272h-182zM239 674q33 0 54 -19t21 -53q0 -33 -21 -52.5t-54 -19.5t-54 19.5t-21 52.5q0 34 21 53t54 19z
" />
    <glyph glyph-name="Zcaron" unicode="&#x17d;" horiz-adv-x="644" 
d="M68 569q-11 0 -11 11v109q0 11 11 11h509q11 0 11 -11v-37q0 -5 -3 -10l-330 -513l327 2q11 0 11 -11v-109q0 -11 -11 -11h-519q-11 0 -11 11v37q0 6 3 10l329 511h-316zM487 883q10 0 12.5 -4.5t-3.5 -12.5l-86 -112q-4 -4 -9 -4h-146q-5 0 -9 4l-86 112q-6 8 -3.5 12.5
t12.5 4.5h99q6 0 9 -5l51 -81l51 81q3 5 9 5h99z" />
    <glyph glyph-name="zcaron" unicode="&#x17e;" horiz-adv-x="460" 
d="M51 336q-11 0 -11 10v83q0 11 11 11h358q11 0 11 -11v-37q0 -6 -5 -13l-195 -275h198q11 0 11 -10v-83q0 -11 -11 -11h-376q-10 0 -10 11v36q0 3 1 7.5t5 9.5l195 272h-182zM398 663q10 0 12.5 -4.5t-3.5 -12.5l-86 -112q-4 -4 -9 -4h-146q-5 0 -9 4l-86 112
q-6 8 -3.5 12.5t12.5 4.5h99q6 0 9 -5l51 -81l51 81q3 5 9 5h99z" />
    <glyph glyph-name="florin" unicode="&#x192;" horiz-adv-x="553" 
d="M17 150q-2 10 8 12l82 21q11 3 14 -9q5 -31 21.5 -50t42.5 -19q28 0 40 19t12 60v159h-134q-11 0 -11 11v75q0 11 11 11h134v78q0 50 14 86.5t39 60t60 34.5t77 11q35 0 64 -8q8 -2 8 -10v-98q0 -11 -11 -7q-27 8 -54 8q-38 0 -52.5 -20.5t-14.5 -58.5v-76h121
q11 0 11 -11v-75q0 -11 -11 -11h-121v-162q0 -50 -13 -86.5t-35.5 -60t-52.5 -35t-65 -11.5q-71 0 -120 38.5t-64 123.5z" />
    <glyph glyph-name="AEacute" unicode="&#x1fc;" horiz-adv-x="942" 
d="M888 581q0 -10 -10 -10h-351l40 -155h274q10 0 10 -11v-101q0 -10 -10 -10h-242l42 -165h238q11 0 11 -10v-108q0 -11 -11 -11h-340q-8 0 -10 8l-37 140h-250l-57 -141q-3 -7 -11 -7h-129q-16 0 -11 15l296 678q3 7 9 7h539q10 0 10 -11v-108zM461 274l-64 255l-108 -255
h172zM606 878q3 5 8 5h125q23 0 9 -17l-90 -112q-3 -4 -8 -4h-102q-19 0 -9 16z" />
    <glyph glyph-name="aeacute" unicode="&#x1fd;" horiz-adv-x="799" 
d="M768 226q-1 -21 -4 -29.5t-15 -8.5h-301q5 -40 32.5 -65t71.5 -25q26 0 48 11.5t39 28.5q7 9 16 2l74 -54q9 -7 3 -15q-63 -83 -161 -83q-82 0 -137 55v-32q0 -11 -11 -11h-71q-8 0 -10 8l-12 49q-27 -32 -69.5 -50.5t-87.5 -18.5q-72 0 -107.5 35.5t-35.5 93.5
q0 54 39.5 91t120.5 46l123 15v15q0 68 -83 68q-32 0 -61 -11t-55 -30q-9 -6 -15 3l-44 71q-7 9 2 14q40 26 87.5 39.5t99.5 13.5q120 0 164 -83q27 40 70.5 61.5t94.5 21.5q45 0 82.5 -17t63 -47t39 -71.5t10.5 -90.5zM646 264q-3 34 -26.5 57.5t-67.5 23.5
q-42 0 -70 -22.5t-33 -58.5h197zM227 178q-32 -4 -48 -14.5t-16 -36.5q0 -48 52 -48q42 0 70 26.5t28 68.5v15zM398 658q3 5 8 5h125q23 0 9 -17l-90 -112q-3 -4 -8 -4h-102q-19 0 -9 16z" />
    <glyph glyph-name="Oslashacute" unicode="&#x1fe;" horiz-adv-x="814" 
d="M407 712q60 0 111.5 -15t94.5 -44l85 99q5 8 14 2l46 -38q9 -6 2 -16l-85 -99q44 -47 68 -110.5t24 -140.5q0 -81 -26.5 -147.5t-74 -114t-113.5 -74t-146 -26.5q-59 0 -110.5 15.5t-93.5 43.5l-87 -104q-7 -9 -16 -2l-44 40q-9 7 -2 15l87 102q-45 47 -69 111t-24 141
q0 80 26.5 146.5t74 114.5t113.5 74.5t145 26.5zM407 583q-50 0 -89.5 -16.5t-67 -47t-42 -73.5t-14.5 -96q0 -44 10 -80t29 -64l294 345q-50 32 -120 32zM290 148q50 -31 117 -31q50 0 90 16.5t67.5 47t42 73.5t14.5 96q0 43 -10 79t-28 64zM420 888q3 5 8 5h125
q23 0 9 -17l-90 -112q-3 -4 -8 -4h-102q-19 0 -9 16z" />
    <glyph glyph-name="oslashacute" unicode="&#x1ff;" horiz-adv-x="555" 
d="M448 510q7 9 15 2l43 -32q8 -6 2 -15l-58 -77q33 -31 51.5 -74t18.5 -94q0 -50 -17.5 -92.5t-49.5 -73t-77 -48t-99 -17.5q-60 0 -110 22l-62 -83q-6 -9 -15 -2l-42 33q-8 8 -2 15l59 78q-34 31 -52 74t-18 94q0 50 17.5 92.5t49.5 73.5t76.5 48t98.5 17q63 0 111 -22z
M277 347q-49 0 -79 -33t-30 -93q0 -39 15 -66l137 184q-21 8 -43 8zM236 101q19 -8 41 -8q50 0 80 34t30 94q0 19 -4 34.5t-11 29.5zM291 658q3 5 8 5h125q23 0 9 -17l-90 -112q-3 -4 -8 -4h-102q-19 0 -9 16z" />
    <glyph glyph-name="uni0218" unicode="&#x218;" horiz-adv-x="605" 
d="M464 535q-3 -4 -7.5 -4t-7.5 3q-34 29 -72 41t-83 12q-29 0 -48 -5.5t-30.5 -15.5t-16 -22t-4.5 -26q0 -22 10 -38t29 -28t45.5 -21.5t59.5 -19.5q44 -13 84.5 -29t71.5 -39.5t50 -57.5t19 -82q0 -50 -19 -90t-54 -67.5t-84 -42.5t-109 -15q-75 0 -141 20.5t-124 71.5
q-9 7 -2 14l71 87q8 8 16 0q44 -41 90.5 -54.5t91.5 -13.5q36 0 58.5 7t36 18t18.5 25.5t5 29.5q0 21 -8 35.5t-24.5 25t-41 19t-58.5 17.5q-51 15 -94 33.5t-74.5 44.5t-49.5 61.5t-18 83.5q0 46 17.5 82.5t49 62.5t76.5 40t100 14q69 0 128.5 -16.5t115.5 -62.5
q9 -7 1 -15zM299 -30q15 0 28.5 -3.5t24.5 -12t17.5 -22.5t6.5 -34q0 -17 -6.5 -34t-18 -32t-26 -27.5t-30.5 -21.5q-7 -4 -13 2l-22 24q-8 8 2 16q12 8 18.5 18.5t10.5 22.5q-26 -7 -46.5 5.5t-20.5 38.5q0 31 22 45.5t53 14.5z" />
    <glyph glyph-name="uni0219" unicode="&#x219;" horiz-adv-x="459" 
d="M366 312q-6 -8 -16 -1q-23 17 -53 29t-60 12q-29 0 -43.5 -9t-14.5 -24q0 -21 18 -32.5t69 -22.5q89 -19 127.5 -50t38.5 -85q0 -31 -14 -57t-39.5 -45t-61.5 -29t-80 -10q-60 0 -114 16.5t-91 43.5q-7 6 -2 14l44 74q6 9 16 3q30 -22 67 -36.5t76 -14.5q29 0 47.5 11
t18.5 27q0 9 -3.5 15.5t-14 12.5t-30 12t-52.5 14q-81 18 -117.5 51t-36.5 86q0 62 50 98.5t138 36.5q56 0 104 -16t83 -42q7 -6 2 -15zM232 -30q15 0 28.5 -3.5t24.5 -12t17.5 -22.5t6.5 -34q0 -17 -6.5 -34t-18 -32t-26 -27.5t-30.5 -21.5q-7 -4 -13 2l-22 24q-8 8 2 16
q12 8 18.5 18.5t10.5 22.5q-26 -7 -46.5 5.5t-20.5 38.5q0 31 22 45.5t53 14.5z" />
    <glyph glyph-name="uni021A" unicode="&#x21a;" horiz-adv-x="599" 
d="M30 689q0 11 10 11h519q11 0 11 -11v-109q0 -11 -11 -11h-189v-558q0 -11 -11 -11h-119q-10 0 -10 11v558h-190q-10 0 -10 11v109zM303 -30q15 0 28.5 -3.5t24.5 -12t17.5 -22.5t6.5 -34q0 -17 -6.5 -34t-18 -32t-26 -27.5t-30.5 -21.5q-7 -4 -13 2l-22 24q-8 8 2 16
q12 8 18.5 18.5t10.5 22.5q-26 -7 -46.5 5.5t-20.5 38.5q0 31 22 45.5t53 14.5z" />
    <glyph glyph-name="uni021B" unicode="&#x21b;" horiz-adv-x="406" 
d="M215 550q11 0 11 -11v-99h123q10 0 10 -11v-85q0 -11 -10 -11h-124v-169q0 -35 12 -49.5t36 -14.5q17 0 33 4.5t32 12.5q5 2 9.5 1t6.5 -7l31 -78q4 -9 -4 -14q-29 -14 -62.5 -22.5t-67.5 -8.5q-155 0 -155 162v183h-69q-11 0 -11 11v85q0 11 11 11h76l59 104q3 6 9 6h44
zM191 -18q15 0 28.5 -3.5t24.5 -12t17.5 -22.5t6.5 -34q0 -17 -6.5 -34t-18 -32t-26 -27.5t-30.5 -21.5q-7 -4 -13 2l-22 24q-8 8 2 16q12 8 18.5 18.5t10.5 22.5q-26 -7 -46.5 5.5t-20.5 38.5q0 31 22 45.5t53 14.5z" />
    <glyph glyph-name="uni0237" unicode="&#x237;" horiz-adv-x="233" 
d="M171 440q11 0 11 -11v-416q0 -102 -45 -151.5t-138 -51.5q-11 0 -11 11v101q0 11 11 11q29 3 40.5 18.5t11.5 49.5v428q0 11 11 11h109z" />
    <glyph glyph-name="circumflex" unicode="&#x2c6;" horiz-adv-x="489" 
d="M413 587q6 -8 3.5 -12.5t-12.5 -4.5h-99q-6 0 -9 5l-51 82l-51 -82q-3 -5 -9 -5h-99q-10 0 -12.5 4.5t3.5 12.5l86 112q4 4 9 4h146q5 0 9 -4z" />
    <glyph glyph-name="caron" unicode="&#x2c7;" horiz-adv-x="489" 
d="M404 703q10 0 12.5 -4.5t-3.5 -12.5l-86 -112q-4 -4 -9 -4h-146q-5 0 -9 4l-86 112q-6 8 -3.5 12.5t12.5 4.5h99q6 0 9 -5l51 -81l51 81q3 5 9 5h99z" />
    <glyph glyph-name="breve" unicode="&#x2d8;" horiz-adv-x="470" 
d="M72 693q0 10 11 10h79q11 0 11 -10q2 -34 16 -50.5t46 -16.5q33 0 47 16.5t16 50.5q0 10 11 10h79q11 0 11 -10q-4 -69 -43.5 -107.5t-120.5 -38.5q-80 0 -119.5 38.5t-43.5 107.5z" />
    <glyph glyph-name="dotaccent" unicode="&#x2d9;" horiz-adv-x="294" 
d="M147 714q33 0 54 -19t21 -53q0 -33 -21 -52.5t-54 -19.5t-54 19.5t-21 52.5q0 34 21 53t54 19z" />
    <glyph glyph-name="ring" unicode="&#x2da;" horiz-adv-x="407" 
d="M204 808q59 0 95.5 -34.5t36.5 -89.5q0 -54 -36.5 -88t-95.5 -34t-95.5 34t-36.5 88q0 55 36.5 89.5t95.5 34.5zM204 735q-26 0 -37 -14t-11 -37q0 -21 11 -35t37 -14t37 14t11 35q0 23 -11 37t-37 14z" />
    <glyph glyph-name="ogonek" unicode="&#x2db;" horiz-adv-x="347" 
d="M248 -127q5 2 8.5 -0.5t4.5 -7.5l14 -61q2 -9 -7 -12q-16 -5 -35.5 -8.5t-39.5 -3.5q-64 0 -92.5 28t-28.5 70q0 38 23.5 76t77.5 67q2 1 4 1h4l50 -15q11 -3 11.5 -8.5t-7.5 -11.5q-29 -21 -39.5 -41t-10.5 -40q0 -35 39 -35h13t11 2z" />
    <glyph glyph-name="tilde" unicode="&#x2dc;" horiz-adv-x="505" 
d="M423 707q11 0 11 -11q-2 -81 -29.5 -115t-70.5 -34q-24 0 -43 11t-35 24t-30.5 24t-28.5 11q-12 0 -19.5 -12t-9.5 -44q0 -11 -11 -11h-74q-11 0 -11 11q2 81 29.5 117t69.5 36q23 0 42 -12t35.5 -26t31.5 -26t30 -12q14 0 20.5 12.5t8.5 45.5q0 11 10 11h74z" />
    <glyph glyph-name="hungarumlaut" unicode="&#x2dd;" horiz-adv-x="494" 
d="M124 697q3 6 10 6h100q19 0 9 -16l-78 -112q-3 -5 -9 -5h-72q-7 0 -10 4t0 11zM301 697q3 6 9 6h99q10 0 12 -4.5t-3 -11.5l-86 -112q-2 -5 -9 -5h-71q-17 0 -9 15z" />
    <glyph glyph-name="uni0326" unicode="&#x326;" horiz-adv-x="296" 
d="M147 -30q15 0 28.5 -3.5t24.5 -12t17.5 -22.5t6.5 -34q0 -17 -6.5 -34t-18 -32t-26 -27.5t-30.5 -21.5q-7 -4 -13 2l-22 24q-8 8 2 16q12 8 18.5 18.5t10.5 22.5q-26 -7 -46.5 5.5t-20.5 38.5q0 31 22 45.5t53 14.5z" />
    <glyph glyph-name="uni0394" unicode="&#x394;" horiz-adv-x="683" 
d="M315 697q3 6 10 6h39q8 0 10 -6l276 -682q7 -15 -10 -15h-596q-17 0 -10 15zM206 121h272l-133 360z" />
    <glyph glyph-name="uni03A9" unicode="&#x3a9;" horiz-adv-x="821" 
d="M411 713q70 0 132.5 -21.5t109 -62.5t73.5 -100t27 -133q0 -45 -11.5 -87t-32 -80t-47.5 -70.5t-59 -58.5l160 17q11 2 11 -10v-96q0 -11 -10 -11h-279q-8 0 -11 8l-11 37q-2 8 3 11q69 59 108.5 139t39.5 169q0 58 -15.5 99.5t-42.5 68.5t-64 40t-81 13q-43 0 -80.5 -13
t-64.5 -40t-42.5 -68.5t-15.5 -99.5q0 -89 39.5 -169t108.5 -139q5 -3 3 -11l-11 -37q-3 -8 -11 -8h-279q-10 0 -10 11v96q0 12 11 10l160 -17q-31 26 -58.5 58.5t-48 70.5t-32 80t-11.5 87q0 74 27 133t73.5 100t109 62.5t132.5 21.5z" />
    <glyph glyph-name="uni03BC" unicode="&#x3bc;" horiz-adv-x="537" 
d="M172 440q10 0 10 -11v-212q0 -59 19.5 -87t62.5 -28q38 0 64.5 25.5t26.5 87.5v214q0 11 11 11h109q11 0 11 -11v-418q0 -11 -11 -11h-84q-9 0 -11 8l-10 47q-42 -65 -117 -65q-48 0 -78 24l7 -193q0 -11 -10 -11h-110q-10 0 -10 11v608q0 11 10 11h110z" />
    <glyph glyph-name="pi" unicode="&#x3c0;" horiz-adv-x="685" 
d="M638 355q0 -8 -9 -10l-119 -26l14 -134q5 -42 16.5 -58.5t40.5 -16.5q20 0 43 5q12 3 15 -9l19 -84q2 -10 -6 -12q-23 -8 -49 -12t-49 -4q-69 0 -110.5 37.5t-48.5 126.5l-10 161h-119l-49 -310q0 -9 -10 -9h-111q-13 0 -11 13l51 306h-99q-11 0 -11 11v99q0 11 11 11
h590q11 0 11 -11v-74z" />
    <glyph glyph-name="Wgrave" unicode="&#x1e80;" horiz-adv-x="1078" 
d="M1030 700q13 0 8 -14l-243 -684q-2 -7 -10 -7h-39q-7 0 -10 6l-197 442l-196 -442q-3 -6 -11 -6h-39q-7 0 -9 7l-243 684q-5 14 7 14h128q8 0 10 -7l145 -429l182 418q3 6 10 6h31q7 0 10 -6l184 -418l144 429q2 7 10 7h128zM593 766q8 -16 -9 -16h-102q-5 0 -8 4
l-86 112q-14 17 8 17h125q6 0 9 -5z" />
    <glyph glyph-name="wgrave" unicode="&#x1e81;" horiz-adv-x="784" 
d="M756 440q17 0 10 -15l-187 -424q-3 -6 -10 -6h-41q-6 0 -9 6l-127 262l-127 -262q-3 -6 -9 -6h-41q-6 0 -9 6l-189 424q-5 15 10 15h122q8 0 10 -7l88 -233l115 235q3 5 9 5h41q7 0 10 -5l115 -235l87 233q4 7 10 7h122zM445 546q8 -16 -9 -16h-102q-5 0 -8 4l-86 112
q-14 17 8 17h125q6 0 9 -5z" />
    <glyph glyph-name="Wacute" unicode="&#x1e82;" horiz-adv-x="1078" 
d="M1030 700q13 0 8 -14l-243 -684q-2 -7 -10 -7h-39q-7 0 -10 6l-197 442l-196 -442q-3 -6 -11 -6h-39q-7 0 -9 7l-243 684q-5 14 7 14h128q8 0 10 -7l145 -429l182 418q3 6 10 6h31q7 0 10 -6l184 -418l144 429q2 7 10 7h128zM552 878q3 5 8 5h125q23 0 9 -17l-90 -112
q-3 -4 -8 -4h-102q-19 0 -9 16z" />
    <glyph glyph-name="wacute" unicode="&#x1e83;" horiz-adv-x="784" 
d="M756 440q17 0 10 -15l-187 -424q-3 -6 -10 -6h-41q-6 0 -9 6l-127 262l-127 -262q-3 -6 -9 -6h-41q-6 0 -9 6l-189 424q-5 15 10 15h122q8 0 10 -7l88 -233l115 235q3 5 9 5h41q7 0 10 -5l115 -235l87 233q4 7 10 7h122zM404 658q3 5 8 5h125q23 0 9 -17l-90 -112
q-3 -4 -8 -4h-102q-19 0 -9 16z" />
    <glyph glyph-name="Wdieresis" unicode="&#x1e84;" horiz-adv-x="1078" 
d="M1030 700q13 0 8 -14l-243 -684q-2 -7 -10 -7h-39q-7 0 -10 6l-197 442l-196 -442q-3 -6 -11 -6h-39q-7 0 -9 7l-243 684q-5 14 7 14h128q8 0 10 -7l145 -429l182 418q3 6 10 6h31q7 0 10 -6l184 -418l144 429q2 7 10 7h128zM437 888q32 0 50.5 -19.5t18.5 -49.5
q0 -31 -18.5 -50t-50.5 -19q-33 0 -51.5 19t-18.5 50q0 30 18.5 49.5t51.5 19.5zM641 888q33 0 51 -19.5t18 -49.5q0 -31 -18 -50t-51 -19t-51 19t-18 50q0 30 18 49.5t51 19.5z" />
    <glyph glyph-name="wdieresis" unicode="&#x1e85;" horiz-adv-x="784" 
d="M756 440q17 0 10 -15l-187 -424q-3 -6 -10 -6h-41q-6 0 -9 6l-127 262l-127 -262q-3 -6 -9 -6h-41q-6 0 -9 6l-189 424q-5 15 10 15h122q8 0 10 -7l88 -233l115 235q3 5 9 5h41q7 0 10 -5l115 -235l87 233q4 7 10 7h122zM289 668q32 0 50.5 -19.5t18.5 -49.5
q0 -31 -18.5 -50t-50.5 -19q-33 0 -51.5 19t-18.5 50q0 30 18.5 49.5t51.5 19.5zM493 668q33 0 51 -19.5t18 -49.5q0 -31 -18 -50t-51 -19t-51 19t-18 50q0 30 18 49.5t51 19.5z" />
    <glyph glyph-name="Germandbls" unicode="&#x1e9e;" horiz-adv-x="669" 
d="M572 653q0 -4 -1 -6.5t-3 -5.5l-120 -215q83 -13 128.5 -63.5t45.5 -135.5q0 -58 -20 -100.5t-55 -70.5t-83.5 -42t-105.5 -14h-70q-11 0 -11 11v109q0 11 11 11h65q63 0 96 23.5t33 79.5q0 55 -30.5 76t-84.5 21h-60q-8 0 -11 9l-10 31q-3 9 2 20l100 182h-79
q-53 0 -75.5 -21t-22.5 -82v-459q0 -11 -11 -11h-117q-11 0 -11 11v474q0 215 231 215h258q11 0 11 -11v-36z" />
    <glyph glyph-name="endash" unicode="&#x2013;" horiz-adv-x="595" 
d="M57 316q0 11 10 11h461q11 0 11 -11v-87q0 -11 -11 -11h-461q-10 0 -10 11v87z" />
    <glyph glyph-name="emdash" unicode="&#x2014;" horiz-adv-x="928" 
d="M57 316q0 11 10 11h794q11 0 11 -11v-87q0 -11 -11 -11h-794q-10 0 -10 11v87z" />
    <glyph glyph-name="uni2015" unicode="&#x2015;" horiz-adv-x="965" 
d="M0 316q0 11 11 11h943q11 0 11 -11v-88q0 -10 -11 -10h-943q-11 0 -11 10v88z" />
    <glyph glyph-name="quoteleft" unicode="&#x2018;" horiz-adv-x="268" 
d="M128 409q-36 0 -62 24t-26 71q0 63 23 112.5t62 89.5q7 7 14 1l36 -27q10 -7 1 -16q-21 -24 -31.5 -47t-12.5 -49q34 0 56.5 -22t22.5 -57q0 -38 -24 -59t-59 -21z" />
    <glyph glyph-name="quoteright" unicode="&#x2019;" horiz-adv-x="268" 
d="M123 712q37 0 62.5 -23.5t25.5 -70.5q0 -63 -23 -111t-62 -88q-6 -6 -14 -1l-35 27q-10 6 -2 16q21 23 31.5 45t12.5 48q-34 0 -56.5 21.5t-22.5 57.5q0 38 24 58.5t59 20.5z" />
    <glyph glyph-name="quotesinglbase" unicode="&#x201a;" horiz-adv-x="282" 
d="M133 167q42 0 67.5 -27t25.5 -74q0 -69 -24.5 -130.5t-56.5 -108.5q-6 -6 -14 -3l-57 28q-11 5 -4 16q23 33 35 63.5t17 68.5q-36 2 -57.5 24t-21.5 58q0 38 26 61.5t64 23.5z" />
    <glyph glyph-name="quotedblleft" unicode="&#x201c;" horiz-adv-x="490" 
d="M128 409q-36 0 -62 24t-26 71q0 63 23 112.5t62 89.5q7 7 14 1l36 -27q10 -7 1 -16q-21 -24 -31.5 -47t-12.5 -49q34 0 56.5 -22t22.5 -57q0 -38 -24 -59t-59 -21zM350 409q-36 0 -62 24t-26 71q0 63 23.5 112.5t62.5 89.5q6 6 13 1l36 -27q10 -7 2 -16q-21 -24 -32 -47
t-13 -49q35 0 57.5 -22t22.5 -57q0 -38 -24.5 -59t-59.5 -21z" />
    <glyph glyph-name="quotedblright" unicode="&#x201d;" horiz-adv-x="490" 
d="M346 712q36 0 62 -23.5t26 -70.5q0 -63 -23.5 -111t-61.5 -88q-7 -7 -14 -1l-36 27q-10 7 -2 16q21 23 32 45t13 48q-34 0 -57 21.5t-23 57.5q0 38 24.5 58.5t59.5 20.5zM123 712q37 0 62.5 -23.5t25.5 -70.5q0 -63 -23 -111t-62 -88q-6 -6 -14 -1l-35 27q-10 6 -2 16
q21 23 31.5 45t12.5 48q-34 0 -56.5 21.5t-22.5 57.5q0 38 24 58.5t59 20.5z" />
    <glyph glyph-name="quotedblbase" unicode="&#x201e;" horiz-adv-x="490" 
d="M346 164q36 0 62 -24t26 -71q0 -63 -23.5 -112.5t-61.5 -89.5q-7 -7 -14 -1l-36 27q-10 7 -2 16q21 24 32 47t13 49q-34 0 -57 22t-23 57q0 38 24.5 59t59.5 21zM123 164q37 0 62.5 -24t25.5 -71q0 -63 -23 -112.5t-62 -89.5q-6 -6 -14 -1l-35 27q-10 6 -2 16
q41 47 44 96q-34 0 -56.5 22t-22.5 57q0 38 24 59t59 21z" />
    <glyph glyph-name="dagger" unicode="&#x2020;" horiz-adv-x="469" 
d="M289 730q11 0 11 -11v-128h110q11 0 11 -11v-96q0 -10 -11 -10h-110v-343q0 -11 -11 -11h-106q-10 0 -10 11v343h-111q-11 0 -11 10v96q0 11 11 11h111v128q0 11 10 11h106z" />
    <glyph glyph-name="daggerdbl" unicode="&#x2021;" horiz-adv-x="463" 
d="M286 730q11 0 11 -11v-127h107q11 0 11 -11v-92q0 -11 -11 -11h-107v-118h107q11 0 11 -10v-93q0 -11 -11 -11h-107v-165q0 -11 -11 -11h-106q-10 0 -10 11v165h-108q-11 0 -11 11v93q0 10 11 10h108v118h-108q-11 0 -11 11v92q0 11 11 11h108v127q0 11 10 11h106z" />
    <glyph glyph-name="bullet" unicode="&#x2022;" horiz-adv-x="600" 
d="M300 507q72 0 114.5 -42.5t42.5 -114.5t-42.5 -114.5t-114.5 -42.5t-114.5 42.5t-42.5 114.5t42.5 114.5t114.5 42.5z" />
    <glyph glyph-name="uni2023" unicode="&#x2023;" horiz-adv-x="591" 
d="M429 360q17 -10 0 -20l-258 -139q-16 -10 -16 9v280q0 19 16 9z" />
    <glyph glyph-name="ellipsis" unicode="&#x2026;" horiz-adv-x="836" 
d="M146 168q38 0 63.5 -24.5t25.5 -64.5q0 -41 -25.5 -65.5t-63.5 -24.5t-63.5 24.5t-25.5 65.5q0 40 25.5 64.5t63.5 24.5zM418 168q38 0 63.5 -24.5t25.5 -64.5q0 -41 -25.5 -65.5t-63.5 -24.5t-63.5 24.5t-25.5 65.5q0 40 25.5 64.5t63.5 24.5zM690 168q38 0 63.5 -24.5
t25.5 -64.5q0 -41 -25.5 -65.5t-63.5 -24.5t-63.5 24.5t-25.5 65.5q0 40 25.5 64.5t63.5 24.5z" />
    <glyph glyph-name="perthousand" unicode="&#x2030;" horiz-adv-x="1029" 
d="M180 700q34 0 62.5 -11.5t49.5 -32t33 -49t12 -61.5q0 -34 -11.5 -62.5t-32.5 -49t-50 -32t-63 -11.5t-63 11.5t-50 32t-32.5 49t-11.5 62.5q0 33 11.5 61.5t32.5 49t50 32t63 11.5zM636 611q9 -7 0 -14l-552 -554q-7 -8 -15 0l-41 41q-9 7 0 14l551 553q7 8 15 0z
M180 617q-32 0 -50.5 -19t-18.5 -52q0 -34 18.5 -53t50.5 -19t50.5 19.5t18.5 52.5t-18.5 52t-50.5 19zM486 297q34 0 62.5 -11.5t49.5 -32t32.5 -49t11.5 -62.5q0 -33 -11.5 -61.5t-32.5 -49t-49.5 -32t-62.5 -11.5t-63 11.5t-50 32t-33 49t-12 61.5q0 34 12 62.5t33 49
t50 32t63 11.5zM853 297q34 0 62.5 -11.5t49.5 -32t33 -49t12 -62.5q0 -33 -11.5 -61.5t-32.5 -49t-50 -32t-63 -11.5t-63 11.5t-50 32t-32.5 49t-11.5 61.5q0 34 11.5 62.5t32.5 49t50 32t63 11.5zM486 214q-32 0 -51 -19t-19 -53q0 -33 19 -52t51 -19t50 19t18 52
q0 34 -18 53t-50 19zM853 214q-32 0 -50.5 -19t-18.5 -53q0 -33 18.5 -52t50.5 -19t50.5 19t18.5 52q0 34 -18.5 53t-50.5 19z" />
    <glyph glyph-name="minute" unicode="&#x2032;" horiz-adv-x="245" 
d="M169 423q-2 -10 -11 -10h-71q-9 0 -11 10l-18 265q-1 12 10 12h109q13 0 11 -12z" />
    <glyph glyph-name="second" unicode="&#x2033;" horiz-adv-x="435" 
d="M169 423q-2 -10 -10 -10h-72q-9 0 -11 10l-18 265q-1 12 10 12h110q12 0 10 -12zM359 423q-2 -10 -11 -10h-72q-8 0 -10 10l-19 265q-1 12 11 12h109q13 0 11 -12z" />
    <glyph glyph-name="guilsinglleft" unicode="&#x2039;" horiz-adv-x="347" 
d="M53 261q-3 5 0 10l101 164q5 5 10 5h119q9 0 11.5 -4.5t-3.5 -12.5l-110 -157l110 -158q6 -8 3.5 -12.5t-11.5 -4.5h-119q-5 0 -10 6z" />
    <glyph glyph-name="guilsinglright" unicode="&#x203a;" horiz-adv-x="347" 
d="M294 271q3 -5 0 -10l-101 -164q-4 -6 -10 -6h-119q-9 0 -11.5 4.5t3.5 12.5l110 158l-110 157q-6 8 -3.5 12.5t11.5 4.5h119q5 0 10 -5z" />
    <glyph glyph-name="fraction" unicode="&#x2044;" horiz-adv-x="271" 
d="M377 700q19 0 9 -16l-411 -679q-5 -5 -10 -5h-70q-19 0 -9 16l411 679q5 5 10 5h70z" />
    <glyph glyph-name="uni2070" unicode="&#x2070;" horiz-adv-x="377" 
d="M188 830q45 0 77 -16.5t52.5 -45.5t30.5 -68t10 -85t-10 -85.5t-30.5 -68t-52.5 -45t-77 -16.5q-44 0 -76 16t-52.5 45t-30.5 68.5t-10 85.5t10 85t30.5 68t52.5 45.5t76 16.5zM188 733q-33 0 -49 -26t-16 -92t16 -92t49 -26q34 0 50.5 26t16.5 92t-16.5 92t-50.5 26z
" />
    <glyph glyph-name="uni2074" unicode="&#x2074;" horiz-adv-x="361" 
d="M346 492q0 -11 -10 -11h-34v-60q0 -11 -11 -11h-71q-11 0 -11 11v60h-184q-10 0 -10 11v28q0 10 4 18l130 276q3 6 9 6h87q17 0 9 -15l-121 -237h76v67q0 11 11 11h71q11 0 11 -11v-67h34q10 0 10 -11v-65z" />
    <glyph glyph-name="uni2075" unicode="&#x2075;" horiz-adv-x="348" 
d="M303 741q0 -11 -10 -11h-152l-4 -59h36q67 0 110 -32t43 -97q0 -29 -9.5 -55t-28.5 -45.5t-46.5 -30.5t-62.5 -11q-117 0 -154 103q-3 10 7 13l60 24q10 4 15 -7q17 -45 65 -45q53 0 53 50q0 23 -13.5 36t-45.5 13h-118q-13 0 -11 12l16 211q2 10 11 10h229q10 0 10 -11
v-68z" />
    <glyph glyph-name="uni2076" unicode="&#x2076;" horiz-adv-x="345" 
d="M248 820q20 0 9 -16l-89 -136q17 6 37 6q52 0 87.5 -34t35.5 -94q0 -68 -44.5 -107t-114.5 -39q-68 0 -110 35t-42 99q0 30 8.5 57t22.5 51l103 173q5 5 10 5h87zM175 599q-29 0 -42.5 -15t-13.5 -40q0 -51 52 -51q55 0 55 54q0 52 -51 52z" />
    <glyph glyph-name="uni2077" unicode="&#x2077;" horiz-adv-x="314" 
d="M27 730q-11 0 -11 11v68q0 11 11 11h260q11 0 11 -11v-26q0 -4 -1.5 -11.5t-3.5 -12.5l-126 -342q-2 -7 -10 -7h-88q-16 0 -9 15l126 305h-159z" />
    <glyph glyph-name="uni2078" unicode="&#x2078;" horiz-adv-x="344" 
d="M172 830q66 0 103 -29.5t37 -79.5q0 -30 -15.5 -58t-46.5 -42q40 -14 57.5 -42.5t17.5 -63.5q0 -52 -38 -83.5t-115 -31.5t-115 31.5t-38 83.5q0 35 18 63.5t57 42.5q-31 14 -46.5 42t-15.5 58q0 50 37 79.5t103 29.5zM172 744q-42 0 -42 -39q0 -20 10.5 -31.5
t31.5 -11.5t31.5 11.5t10.5 31.5q0 39 -42 39zM172 584q-27 0 -39 -13.5t-12 -35.5q0 -20 11.5 -32t39.5 -12q29 0 40.5 12t11.5 32q0 22 -12 35.5t-40 13.5z" />
    <glyph glyph-name="uni2079" unicode="&#x2079;" horiz-adv-x="345" 
d="M98 410q-20 0 -10 16l89 136q-16 -6 -37 -6q-52 0 -87.5 34t-35.5 94q0 68 44.5 107t114.5 39q68 0 110 -35t42 -100q0 -29 -8.5 -56.5t-22.5 -50.5l-103 -173q-5 -5 -10 -5h-86zM170 632q29 0 42.5 14.5t13.5 39.5q0 51 -52 51q-55 0 -55 -54q0 -51 51 -51z" />
    <glyph glyph-name="uni2080" unicode="&#x2080;" horiz-adv-x="377" 
d="M188 210q45 0 77 -16.5t52.5 -45.5t30.5 -68t10 -85t-10 -85.5t-30.5 -68t-52.5 -45t-77 -16.5q-44 0 -76 16t-52.5 45t-30.5 68.5t-10 85.5t10 85t30.5 68t52.5 45.5t76 16.5zM188 113q-33 0 -49 -26t-16 -92t16 -92t49 -26q34 0 50.5 26t16.5 92t-16.5 92t-50.5 26z
" />
    <glyph glyph-name="uni2081" unicode="&#x2081;" horiz-adv-x="249" 
d="M195 200q11 0 11 -11v-388q0 -11 -11 -11h-74q-11 0 -11 11v287l-65 -19q-11 -3 -14 7l-21 68q-3 11 7 14l127 38q12 4 23 4h28z" />
    <glyph glyph-name="uni2082" unicode="&#x2082;" horiz-adv-x="338" 
d="M101 74q-5 -9 -15 -5l-60 24q-9 4 -6 14q20 49 62 76t99 27q64 0 100 -32.5t36 -86.5q0 -39 -18.5 -72t-54.5 -69l-70 -70h132q11 0 11 -10v-69q0 -11 -11 -11h-273q-11 0 -11 11v30q0 6 3 9l148 162q23 25 33 43.5t10 36.5t-11.5 29t-35.5 11q-45 0 -68 -48z" />
    <glyph glyph-name="uni2083" unicode="&#x2083;" horiz-adv-x="349" 
d="M137 -41q-11 0 -11 11v54q0 10 11 10h30q23 0 39 12.5t16 35.5q0 40 -47 40q-49 0 -70 -47q-6 -9 -14 -6l-61 25q-10 3 -7 13q19 50 59.5 76.5t102.5 26.5q65 0 102 -28t37 -78q0 -36 -18.5 -63.5t-49.5 -40.5q37 -12 54.5 -37t17.5 -60q0 -54 -41.5 -88.5t-110.5 -34.5
q-58 0 -98.5 26t-59.5 77q-3 9 6 13l62 26q9 3 14 -6q21 -48 72 -48q55 0 55 44q0 47 -60 47h-30z" />
    <glyph glyph-name="uni2084" unicode="&#x2084;" horiz-adv-x="361" 
d="M346 -128q0 -11 -10 -11h-34v-60q0 -11 -11 -11h-71q-11 0 -11 11v60h-184q-10 0 -10 11v28q0 10 4 18l130 276q3 6 9 6h87q17 0 9 -15l-121 -237h76v67q0 11 11 11h71q11 0 11 -11v-67h34q10 0 10 -11v-65z" />
    <glyph glyph-name="uni2085" unicode="&#x2085;" horiz-adv-x="348" 
d="M303 121q0 -11 -10 -11h-152l-4 -59h36q67 0 110 -32t43 -97q0 -29 -9.5 -55t-28.5 -45.5t-46.5 -30.5t-62.5 -11q-117 0 -154 103q-3 10 7 13l60 24q10 4 15 -7q17 -45 65 -45q53 0 53 50q0 23 -13.5 36t-45.5 13h-118q-13 0 -11 12l16 211q2 10 11 10h229q10 0 10 -11
v-68z" />
    <glyph glyph-name="uni2086" unicode="&#x2086;" horiz-adv-x="345" 
d="M248 200q20 0 9 -16l-89 -136q17 6 37 6q52 0 87.5 -34t35.5 -94q0 -68 -44.5 -107t-114.5 -39q-68 0 -110 35t-42 99q0 30 8.5 57t22.5 51l103 173q5 5 10 5h87zM175 -21q-29 0 -42.5 -15t-13.5 -40q0 -51 52 -51q55 0 55 54q0 52 -51 52z" />
    <glyph glyph-name="uni2087" unicode="&#x2087;" horiz-adv-x="314" 
d="M27 110q-11 0 -11 11v68q0 11 11 11h260q11 0 11 -11v-26q0 -4 -1.5 -11.5t-3.5 -12.5l-126 -342q-2 -7 -10 -7h-88q-16 0 -9 15l126 305h-159z" />
    <glyph glyph-name="uni2088" unicode="&#x2088;" horiz-adv-x="344" 
d="M172 210q66 0 103 -29.5t37 -79.5q0 -30 -15.5 -58t-46.5 -42q40 -14 57.5 -42.5t17.5 -63.5q0 -52 -38 -83.5t-115 -31.5t-115 31.5t-38 83.5q0 35 18 63.5t57 42.5q-31 14 -46.5 42t-15.5 58q0 50 37 79.5t103 29.5zM172 124q-42 0 -42 -39q0 -20 10.5 -31.5
t31.5 -11.5t31.5 11.5t10.5 31.5q0 39 -42 39zM172 -36q-27 0 -39 -13.5t-12 -35.5q0 -20 11.5 -32t39.5 -12q29 0 40.5 12t11.5 32q0 22 -12 35.5t-40 13.5z" />
    <glyph glyph-name="uni2089" unicode="&#x2089;" horiz-adv-x="345" 
d="M98 -210q-20 0 -10 16l89 136q-16 -6 -37 -6q-52 0 -87.5 34t-35.5 94q0 68 44.5 107t114.5 39q68 0 110 -35t42 -100q0 -29 -8.5 -56.5t-22.5 -50.5l-103 -173q-5 -5 -10 -5h-86zM170 12q29 0 42.5 14.5t13.5 39.5q0 51 -52 51q-55 0 -55 -54q0 -51 51 -51z" />
    <glyph glyph-name="Euro" unicode="&#x20ac;" horiz-adv-x="597" 
d="M42 374q-11 0 -11 11v60q0 11 11 11h57q17 115 80.5 179.5t174.5 64.5q68 0 120 -28t87 -87q5 -10 -4 -14l-83 -51q-8 -4 -15 4q-20 31 -45.5 44t-56.5 13q-51 0 -80 -30t-39 -95h201q14 0 10 -14l-18 -60q-2 -8 -9 -8h-380zM42 232q-11 0 -11 11v60q0 11 11 11h361
q15 0 10 -14l-17 -60q-2 -8 -10 -8h-146q21 -125 116 -125q32 0 57.5 14.5t47.5 48.5q5 9 14 4l84 -44q7 -4 4 -14q-32 -60 -84.5 -94t-124.5 -34q-109 0 -172 64.5t-82 179.5h-58z" />
    <glyph glyph-name="uni20BA" unicode="&#x20ba;" horiz-adv-x="708" 
d="M45 381q-14 -5 -14 10v57q0 7 8 10l87 30v201q0 11 11 11h114q11 0 11 -11v-153l175 59q14 5 14 -11v-57q0 -8 -7 -10zM31 296q0 8 8 10l397 135q7 2 10.5 -1t3.5 -9v-58q0 -6 -7 -10l-181 -60v-173q16 -2 32.5 -3.5t30.5 -1.5q43 0 80 13t64.5 40t43.5 68.5t17 98.5
q0 13 12 11l115 -13q9 -1 9 -10q-1 -94 -29.5 -160t-76.5 -107t-113.5 -59.5t-142.5 -18.5q-41 0 -83 4t-86 12q-9 2 -9 11v241l-81 -27q-14 -5 -14 10v57z" />
    <glyph glyph-name="uni20BD" unicode="&#x20bd;" horiz-adv-x="615" 
d="M97 689q0 11 11 11h235q116 0 180.5 -54.5t64.5 -157.5q0 -104 -64.5 -160t-180.5 -56h-300q-11 0 -11 11v85q0 10 11 10h54v311zM237 378h95q60 0 86 23t26 76t-27 75.5t-87 22.5h-93v-197zM31 188q0 11 11 11h377q10 0 10 -11v-65q0 -11 -10 -11h-182v-101
q0 -11 -11 -11h-118q-11 0 -11 11v101h-55q-11 0 -11 11v65z" />
    <glyph glyph-name="uni2113" unicode="&#x2113;" horiz-adv-x="458" 
d="M39 232q-11 -2 -11 10v38q0 11 11 11q12 1 24.5 2t23.5 3q2 105 19.5 181.5t46 126.5t66 74.5t80.5 24.5q52 0 82 -34t30 -101q0 -112 -53 -189t-149 -115q2 -52 9 -87.5t19.5 -57.5t30 -32t39.5 -10q28 0 62 18q4 2 8.5 1t6.5 -6l25 -58q3 -9 -4 -13
q-27 -16 -63.5 -24.5t-69.5 -8.5q-93 0 -136.5 65.5t-48.5 183.5q-24 -3 -48 -3zM209 329q66 32 101.5 91.5t35.5 153.5q0 67 -43 67q-47 0 -69.5 -80.5t-24.5 -231.5z" />
    <glyph glyph-name="uni2116" unicode="&#x2116;" horiz-adv-x="1118" 
d="M648 700q11 0 11 -11v-683q0 -11 -11 -11h-36q-7 0 -10 4l-394 437v-425q0 -11 -11 -11h-114q-11 0 -11 11v683q0 11 11 11h35q8 0 12 -4l393 -437v425q0 11 11 11h114zM921 701q35 0 64.5 -11.5t51 -32.5t34 -50t12.5 -63t-12.5 -63t-34 -50t-51 -32.5t-64.5 -11.5
q-34 0 -64 11.5t-51.5 32.5t-34 50t-12.5 63t12.5 63t34 50t51.5 32.5t64 11.5zM921 613q-29 0 -47.5 -19t-18.5 -50q0 -30 18.5 -49.5t47.5 -19.5t47.5 19.5t18.5 49.5t-18.5 49.5t-47.5 19.5zM770 231q-11 0 -11 10v69q0 11 11 11h303q10 0 10 -11v-69q0 -10 -10 -10h-303
z" />
    <glyph glyph-name="trademark" unicode="&#x2122;" horiz-adv-x="619" 
d="M241 700q11 0 11 -11v-51q0 -11 -11 -11h-58v-166q0 -11 -11 -11h-57q-11 0 -11 11v166h-58q-11 0 -11 11v51q0 11 11 11h195zM573 700q11 0 11 -11v-228q0 -11 -11 -11h-56q-11 0 -11 11v117l-56 -80q-4 -5 -10 -5t-10 5l-58 80v-117q0 -11 -10 -11h-57q-10 0 -10 11
v228q0 11 10 11h52q5 0 9 -4l74 -103l72 103q6 4 9 4h52z" />
    <glyph glyph-name="uni2126" unicode="&#x2126;" horiz-adv-x="821" 
d="M411 713q70 0 132.5 -21.5t109 -62.5t73.5 -100t27 -133q0 -45 -11.5 -87t-32 -80t-47.5 -70.5t-59 -58.5l160 17q11 2 11 -10v-96q0 -11 -10 -11h-279q-8 0 -11 8l-11 37q-2 8 3 11q69 59 108.5 139t39.5 169q0 58 -15.5 99.5t-42.5 68.5t-64 40t-81 13q-43 0 -80.5 -13
t-64.5 -40t-42.5 -68.5t-15.5 -99.5q0 -89 39.5 -169t108.5 -139q5 -3 3 -11l-11 -37q-3 -8 -11 -8h-279q-10 0 -10 11v96q0 12 11 10l160 -17q-31 26 -58.5 58.5t-48 70.5t-32 80t-11.5 87q0 74 27 133t73.5 100t109 62.5t132.5 21.5z" />
    <glyph glyph-name="estimated" unicode="&#x212e;" horiz-adv-x="741" 
d="M694 301q0 -6 -3.5 -12t-9.5 -6h-521v-170q18 -20 42.5 -36t53 -27.5t59 -18t60.5 -6.5q32 0 65.5 7.5t65 21.5t59 33t46.5 43q8 9 16 1l7 -5q6 -6 1 -15q-47 -51 -115 -81t-147 -30q-70 0 -130 24t-103.5 65t-68 97t-24.5 119q0 64 24.5 119.5t68 97t103 65.5t128.5 24
q71 0 130 -25t102 -67.5t67 -98.5t24 -119zM577 501q-35 37 -89 59.5t-114 22.5q-31 0 -62.5 -6.5t-59.5 -17.5t-51.5 -26.5t-40.5 -32.5v-189h417v190z" />
    <glyph glyph-name="arrowleft" unicode="&#x2190;" horiz-adv-x="853" 
d="M781 234q0 -11 -11 -11h-477l226 -222q5 -4 2.5 -9t-8.5 -5h-149q-5 0 -8 3l-281 290q-7 7 0 14l281 290q3 3 8 3h149q6 0 8.5 -5t-2.5 -9l-226 -222h477q11 0 11 -11v-106z" />
    <glyph glyph-name="arrowup" unicode="&#x2191;" horiz-adv-x="744" 
d="M669 427q3 -3 3 -7v-150q0 -5 -5 -7t-9 1l-222 226v-482q0 -11 -11 -11h-106q-11 0 -11 11v482l-222 -226q-4 -3 -9 -1t-5 7v150q0 4 3 7l290 281q7 7 14 0z" />
    <glyph glyph-name="arrowright" unicode="&#x2192;" horiz-adv-x="853" 
d="M497 -10q-3 -3 -8 -3h-149q-5 0 -7.5 5t1.5 9l225 222h-476q-11 0 -11 11v106q0 11 11 11h476l-225 222q-4 4 -1.5 9t7.5 5h149q5 0 8 -3l281 -290q7 -7 0 -14z" />
    <glyph glyph-name="arrowdown" unicode="&#x2193;" horiz-adv-x="744" 
d="M425 703q11 0 11 -10v-482l222 226q4 4 9 2t5 -8v-150q0 -3 -3 -8l-290 -280q-7 -7 -14 0l-290 280q-3 5 -3 8v150q0 6 5 8t9 -2l222 -226v482q0 10 11 10h106z" />
    <glyph glyph-name="arrowboth" unicode="&#x2194;" horiz-adv-x="1178" 
d="M1103 292q7 -8 0 -15l-272 -292q-4 -3 -8 -3h-146q-5 0 -7.5 5t1.5 9l217 224h-599l218 -224q4 -5 1.5 -9.5t-8.5 -4.5h-146q-4 0 -7 3l-272 292q-7 8 0 15l272 292q3 3 8 3h146q6 0 8 -5t-2 -9l-218 -224l599 -1l-217 225q-3 3 -1 8.5t7 5.5h146q5 0 8 -3z" />
    <glyph glyph-name="arrowupdn" unicode="&#x2195;" horiz-adv-x="799" 
d="M393 828q7 7 14 0l292 -272q4 -4 4 -7v-146q0 -5 -5.5 -7.5t-8.5 0.5l-225 218v-533l225 217q4 5 9 2.5t5 -8.5l-1 -146q0 -3 -3 -8l-292 -272q-7 -7 -15 0l-292 273q-3 3 -3 7v146q0 6 5 8.5t10 -1.5l224 -218v533l-224 -217q-4 -4 -9.5 -1.5t-5.5 7.5v146q0 2 4 8z" />
    <glyph glyph-name="uni2196" unicode="&#x2196;" horiz-adv-x="723" 
d="M103 592q0 11 11 11l403 6q4 0 7 -3l106 -105q4 -5 2.5 -9.5t-7.5 -4.5l-317 2l337 -337q8 -8 0 -15l-76 -76q-7 -7 -14 0l-338 337l3 -316q0 -5 -5 -7.5t-9 1.5l-106 106q-3 3 -3 7z" />
    <glyph glyph-name="uni2197" unicode="&#x2197;" horiz-adv-x="722" 
d="M609 603q11 0 11 -11l6 -403q0 -4 -4 -7l-105 -106q-4 -4 -9.5 -1.5t-5.5 7.5l3 316l-337 -337q-8 -7 -15 0l-76 76q-7 7 0 15l338 337l-318 -2q-5 0 -6.5 5t2.5 9l105 105q5 3 8 3z" />
    <glyph glyph-name="uni2198" unicode="&#x2198;" horiz-adv-x="722" 
d="M153 613q6 8 15 1l337 -338l-3 316q0 5 5.5 8t9.5 -1l106 -106q3 -4 3 -8l-6 -403q0 -11 -11 -11l-403 -6q-4 0 -8 4l-105 105q-4 4 -2.5 9t6.5 5l318 -3l-338 338q-7 7 0 15z" />
    <glyph glyph-name="uni2199" unicode="&#x2199;" horiz-adv-x="723" 
d="M114 71q-11 0 -11 11l-6 403q0 4 3 8l106 106q4 4 9 1.5t5 -8.5l-3 -316l338 338q7 7 14 0l76 -76q8 -8 0 -15l-337 -338l317 3q6 0 7.5 -4.5t-2.5 -9.5l-106 -106q-3 -3 -7 -3z" />
    <glyph glyph-name="partialdiff" unicode="&#x2202;" horiz-adv-x="601" 
d="M292 431q42 0 80.5 -14.5t66.5 -43.5q3 29 3 54q0 85 -31.5 130.5t-98.5 45.5q-25 0 -53.5 -7t-58.5 -22q-11 -7 -15 6l-25 80q-4 9 6 12q39 20 83 30.5t82 10.5q59 0 103 -19.5t73 -55t44 -85.5t15 -112q0 -76 -19 -156.5t-60.5 -146.5t-106 -108.5t-155.5 -42.5
q-43 0 -78.5 13.5t-60 38.5t-38 59.5t-13.5 76.5q0 56 18.5 103t52.5 81t81.5 53t104.5 19zM296 323q-62 0 -95.5 -36.5t-33.5 -96.5q1 -42 24 -65.5t60 -23.5q32 0 58 13t46 35t34.5 51t24.5 60q-18 26 -48.5 44.5t-69.5 18.5z" />
    <glyph glyph-name="uni2206" unicode="&#x2206;" horiz-adv-x="683" 
d="M315 697q3 6 10 6h39q8 0 10 -6l276 -682q7 -15 -10 -15h-596q-17 0 -10 15zM206 121h272l-133 360z" />
    <glyph glyph-name="product" unicode="&#x220f;" horiz-adv-x="675" 
d="M592 700q11 0 11 -11v-833q0 -10 -11 -10h-112q-10 0 -10 10v718h-265v-718q0 -10 -11 -10h-111q-11 0 -11 10v833q0 11 11 11h509z" />
    <glyph glyph-name="summation" unicode="&#x2211;" horiz-adv-x="664" 
d="M607 584q0 -11 -10 -11h-332l189 -274q2 -4 2 -6v-37q0 -2 -2 -6l-195 -271h343q10 0 10 -11v-105q0 -11 -10 -11h-537q-11 0 -11 11v39q0 3 2 7l264 365l-261 369q-2 4 -2 6v40q0 11 11 11h529q10 0 10 -11v-105z" />
    <glyph glyph-name="minus" unicode="&#x2212;" horiz-adv-x="600" 
d="M548 226q0 -10 -10 -10h-476q-11 0 -11 10v95q0 11 11 11h476q10 0 10 -11v-95z" />
    <glyph glyph-name="radical" unicode="&#x221a;" horiz-adv-x="698" 
d="M34 246q-5 10 5 15l97 42q11 5 14 -5l138 -278l249 748q4 7 10 7h108q15 0 11 -14l-339 -954q-3 -7 -10 -7h-40q-6 0 -9 5z" />
    <glyph glyph-name="infinity" unicode="&#x221e;" horiz-adv-x="822" 
d="M240 489q33 0 59.5 -8.5t49 -23t41.5 -33.5t35 -40q38 45 76 70t91 25q39 0 71.5 -13t56.5 -37t37.5 -56.5t13.5 -71.5q0 -36 -12.5 -68t-36.5 -55.5t-58 -37.5t-77 -14q-29 0 -54 7.5t-46 20t-39.5 29t-34.5 35.5q-38 -46 -79.5 -74t-97.5 -28q-41 0 -75 14.5t-58.5 39
t-38 58.5t-13.5 73t14 73.5t38.5 60t59.5 40t77 14.5zM247 379q-33 0 -52 -22.5t-19 -54.5t19.5 -54.5t54.5 -22.5q26 0 49.5 15t54.5 54q-33 47 -57 66t-50 19zM484 306q26 -32 49 -50.5t52 -18.5q26 0 43 17t17 51q0 29 -14.5 47t-43.5 18q-32 0 -55 -17.5t-48 -46.5z" />
    <glyph glyph-name="integral" unicode="&#x222b;" horiz-adv-x="306" 
d="M275 731q0 -11 -11 -11q-50 -2 -68.5 -27t-13.5 -81l49 -638q4 -47 -10.5 -82.5t-41 -59.5t-62.5 -37.5t-75 -14.5q-11 0 -11 11v58q0 11 11 11q43 4 64.5 29.5t17.5 72.5l-49 650q-4 46 8.5 80.5t37.5 58t61.5 36t81.5 13.5q11 0 11 -11v-58z" />
    <glyph glyph-name="approxequal" unicode="&#x2248;" horiz-adv-x="609" 
d="M548 454q10 0 10 -10q-1 -36 -10 -67.5t-26.5 -55t-44 -36.5t-62.5 -13q-44 0 -74 16.5t-55 36.5q-23 17 -41 27t-38 10q-26 0 -36.5 -18.5t-11.5 -50.5q-2 -13 -13 -11l-86 13q-9 0 -9 10q1 36 10 67t26 54t43.5 36.5t62.5 13.5q44 0 75 -16.5t60 -38.5q17 -13 35 -23
t39 -10q26 0 36 18t12 50q0 11 13 11zM548 211q10 0 10 -10q-1 -37 -10 -68.5t-26.5 -54.5t-44 -36t-62.5 -13q-44 0 -74 16.5t-55 35.5q-23 17 -41 27t-38 10q-26 0 -36.5 -18.5t-11.5 -50.5q-2 -11 -13 -11l-86 13q-9 0 -9 10q1 36 10 67.5t26 54.5t43.5 36.5t62.5 13.5
q44 0 75 -17t60 -39q17 -12 35 -22.5t39 -10.5q26 0 36 18t12 50q0 13 13 11z" />
    <glyph glyph-name="notequal" unicode="&#x2260;" horiz-adv-x="589" 
d="M538 331q0 -11 -11 -11h-154l-54 -107h208q11 0 11 -11v-92q0 -10 -11 -10h-261l-57 -118q-3 -6 -10 -6h-73q-17 0 -9 16l52 108h-107q-11 0 -11 10v92q0 11 11 11h160l54 107h-214q-11 0 -11 11v92q0 11 11 11h266l57 115q3 6 9 6h74q17 0 9 -16l-52 -105h102
q11 0 11 -11v-92z" />
    <glyph glyph-name="lessequal" unicode="&#x2264;" horiz-adv-x="601" 
d="M550 148q0 -17 -15 -10l-477 199q-7 4 -7 11v38q0 8 7 11l477 209q15 7 15 -9v-104q0 -8 -7 -11l-282 -110l282 -110q7 -3 7 -11v-103zM539 115q11 0 11 -11v-100q0 -11 -11 -11h-472q-11 0 -11 11v100q0 11 11 11h472z" />
    <glyph glyph-name="greaterequal" unicode="&#x2265;" horiz-adv-x="601" 
d="M66 138q-6 -3 -10.5 -0.5t-4.5 10.5v103q0 8 7 11l282 110l-282 110q-7 4 -7 11v104q0 7 4.5 9.5t10.5 -0.5l478 -209q6 -3 6 -11v-38q0 -8 -7 -11zM51 104q0 11 11 11h472q11 0 11 -11v-100q0 -11 -11 -11h-472q-11 0 -11 11v100z" />
    <glyph glyph-name="house" unicode="&#x2302;" horiz-adv-x="750" 
d="M369 695q6 6 13 0l293 -242q4 -4 4 -8v-434q0 -11 -11 -11h-585q-11 0 -11 11v434q0 5 4 8zM159 414v-329h433v329l-217 175z" />
    <glyph glyph-name="uni2460" unicode="&#x2460;" horiz-adv-x="1122" 
d="M561 844q106 0 195.5 -36.5t155 -102t102.5 -155t37 -196.5q0 -106 -37 -195.5t-102.5 -155t-155 -102t-195.5 -36.5q-105 0 -195 36.5t-155 102t-102 155t-37 195.5q0 107 37 196.5t102 155t155 102t195 36.5zM561 755q-88 0 -161 -30.5t-124.5 -84t-80 -127
t-28.5 -159.5t28.5 -159t80 -126.5t124.5 -84t161 -30.5q89 0 162 30.5t125 84t80 126.5t28 159t-28 159.5t-80 127t-125 84t-162 30.5zM618 615q11 0 11 -11v-529q0 -10 -11 -10h-95q-10 0 -10 10v415l-96 -27q-10 -3 -13 8l-23 81q-3 10 7 13l174 46q6 2 12 3t11 1h33z
" />
    <glyph glyph-name="uni2461" unicode="&#x2461;" horiz-adv-x="1122" 
d="M561 844q106 0 195.5 -36.5t155 -102t102.5 -155t37 -196.5q0 -106 -37 -195.5t-102.5 -155t-155 -102t-195.5 -36.5q-105 0 -195 36.5t-155 102t-102 155t-37 195.5q0 107 37 196.5t102 155t155 102t195 36.5zM561 755q-88 0 -161 -30.5t-124.5 -84t-80 -127
t-28.5 -159.5t28.5 -159t80 -126.5t124.5 -84t161 -30.5q89 0 162 30.5t125 84t80 126.5t28 159t-28 159.5t-80 127t-125 84t-162 30.5zM456 465q-5 -10 -14 -6l-79 31q-11 4 -6 13q25 67 78 103.5t126 36.5q86 0 135.5 -42t49.5 -117q0 -43 -21 -84t-74 -97l-100 -106h184
q11 0 11 -11v-92q0 -11 -11 -11h-364q-11 0 -11 11v35q0 5 3 8l201 226q32 37 45.5 62.5t13.5 52.5t-16.5 42.5t-51.5 15.5t-58.5 -18t-40.5 -53z" />
    <glyph glyph-name="uni2462" unicode="&#x2462;" horiz-adv-x="1122" 
d="M561 844q106 0 195.5 -36.5t155 -102t102.5 -155t37 -196.5q0 -106 -37 -195.5t-102.5 -155t-155 -102t-195.5 -36.5q-105 0 -195 36.5t-155 102t-102 155t-37 195.5q0 107 37 196.5t102 155t155 102t195 36.5zM561 755q-88 0 -161 -30.5t-124.5 -84t-80 -127
t-28.5 -159.5t28.5 -159t80 -126.5t124.5 -84t161 -30.5q89 0 162 30.5t125 84t80 126.5t28 159t-28 159.5t-80 127t-125 84t-162 30.5zM497 306q-11 0 -11 11v74q0 11 11 11h43q35 0 59.5 16t24.5 52q0 29 -18.5 43.5t-50.5 14.5q-38 0 -62.5 -18.5t-38.5 -51.5
q-3 -9 -14 -6l-80 29q-11 4 -6 13q23 68 77.5 104t133.5 36q89 0 136.5 -38t47.5 -104q0 -48 -25.5 -83.5t-67.5 -49.5q51 -15 75.5 -49.5t24.5 -80.5q0 -36 -14 -66t-40 -52t-63 -34.5t-82 -12.5q-78 0 -132 36t-77 105q-5 9 6 13l81 32q10 5 14 -6q14 -36 39 -54.5
t64 -18.5t59.5 17.5t20.5 49.5q0 68 -92 68h-43z" />
    <glyph glyph-name="uni2463" unicode="&#x2463;" horiz-adv-x="1122" 
d="M561 844q106 0 195.5 -36.5t155 -102t102.5 -155t37 -196.5q0 -106 -37 -195.5t-102.5 -155t-155 -102t-195.5 -36.5q-105 0 -195 36.5t-155 102t-102 155t-37 195.5q0 107 37 196.5t102 155t155 102t195 36.5zM561 755q-88 0 -161 -30.5t-124.5 -84t-80 -127
t-28.5 -159.5t28.5 -159t80 -126.5t124.5 -84t161 -30.5q89 0 162 30.5t125 84t80 126.5t28 159t-28 159.5t-80 127t-125 84t-162 30.5zM767 188q0 -11 -11 -11h-54v-86q0 -10 -11 -10h-91q-10 0 -10 10v86h-253q-11 0 -11 11v31q0 6 4 16l178 391q4 7 10 7h112q16 0 9 -16
l-164 -331h115v99q0 11 10 11h91q11 0 11 -11v-99h54q11 0 11 -10v-88z" />
    <glyph glyph-name="uni2464" unicode="&#x2464;" horiz-adv-x="1122" 
d="M561 844q106 0 195.5 -36.5t155 -102t102.5 -155t37 -196.5q0 -106 -37 -195.5t-102.5 -155t-155 -102t-195.5 -36.5q-105 0 -195 36.5t-155 102t-102 155t-37 195.5q0 107 37 196.5t102 155t155 102t195 36.5zM561 755q-88 0 -161 -30.5t-124.5 -84t-80 -127
t-28.5 -159.5t28.5 -159t80 -126.5t124.5 -84t161 -30.5q89 0 162 30.5t125 84t80 126.5t28 159t-28 159.5t-80 127t-125 84t-162 30.5zM725 521q0 -10 -11 -10h-208l-6 -89h54q43 0 80 -10t64 -31t42.5 -54t15.5 -78q0 -38 -12.5 -72t-37.5 -59.5t-60.5 -40.5t-82.5 -15
q-75 0 -127.5 34t-76.5 106q-4 9 7 13l79 31q10 3 14 -7q25 -69 98 -69q77 0 77 73q0 36 -20.5 55.5t-69.5 19.5h-155q-13 0 -11 12l22 288q0 10 11 10h303q11 0 11 -11v-96z" />
    <glyph glyph-name="uni2465" unicode="&#x2465;" horiz-adv-x="1122" 
d="M561 844q106 0 195.5 -36.5t155 -102t102.5 -155t37 -196.5q0 -106 -37 -195.5t-102.5 -155t-155 -102t-195.5 -36.5q-105 0 -195 36.5t-155 102t-102 155t-37 195.5q0 107 37 196.5t102 155t155 102t195 36.5zM561 755q-88 0 -161 -30.5t-124.5 -84t-80 -127
t-28.5 -159.5t28.5 -159t80 -126.5t124.5 -84t161 -30.5q89 0 162 30.5t125 84t80 126.5t28 159t-28 159.5t-80 127t-125 84t-162 30.5zM655 629q20 0 9 -17l-124 -187q27 9 55 9q35 0 64.5 -12t52 -35t35 -55t12.5 -73q0 -44 -15.5 -79.5t-43.5 -60t-66.5 -37.5t-85.5 -13
q-89 0 -142.5 47t-53.5 132q0 39 11 75.5t31 68.5l139 232q5 5 10 5h112zM560 339q-42 0 -63 -22t-21 -60q0 -75 77 -75q39 0 60.5 20.5t21.5 61.5q0 75 -75 75z" />
    <glyph glyph-name="uni2466" unicode="&#x2466;" horiz-adv-x="1122" 
d="M561 844q106 0 195.5 -36.5t155 -102t102.5 -155t37 -196.5q0 -106 -37 -195.5t-102.5 -155t-155 -102t-195.5 -36.5q-105 0 -195 36.5t-155 102t-102 155t-37 195.5q0 107 37 196.5t102 155t155 102t195 36.5zM561 755q-88 0 -161 -30.5t-124.5 -84t-80 -127
t-28.5 -159.5t28.5 -159t80 -126.5t124.5 -84t161 -30.5q89 0 162 30.5t125 84t80 126.5t28 159t-28 159.5t-80 127t-125 84t-162 30.5zM385 482q-10 0 -10 11v94q0 10 10 10h351q11 0 11 -10v-32q0 -5 -1 -9t-2 -6l-180 -486q-2 -7 -10 -7h-109q-7 0 -9.5 4.5t-0.5 10.5
l174 420h-224z" />
    <glyph glyph-name="uni2467" unicode="&#x2467;" horiz-adv-x="1122" 
d="M561 844q106 0 195.5 -36.5t155 -102t102.5 -155t37 -196.5q0 -106 -37 -195.5t-102.5 -155t-155 -102t-195.5 -36.5q-105 0 -195 36.5t-155 102t-102 155t-37 195.5q0 107 37 196.5t102 155t155 102t195 36.5zM561 755q-88 0 -161 -30.5t-124.5 -84t-80 -127
t-28.5 -159.5t28.5 -159t80 -126.5t124.5 -84t161 -30.5q89 0 162 30.5t125 84t80 126.5t28 159t-28 159.5t-80 127t-125 84t-162 30.5zM559 635q87 0 135 -39.5t48 -105.5q0 -42 -21 -78t-64 -53q53 -18 77.5 -56t24.5 -84q0 -69 -50.5 -111.5t-149.5 -42.5
q-100 0 -151 42.5t-51 111.5q0 46 25 84t79 56q-44 17 -65 53t-21 78q0 66 48 105.5t136 39.5zM559 530q-64 0 -64 -59q0 -61 64 -61t64 61q0 31 -17 45t-47 14zM559 311q-41 0 -59 -18t-18 -50t17.5 -49t59.5 -17t59 17t17 49t-18.5 50t-57.5 18z" />
    <glyph glyph-name="uni2468" unicode="&#x2468;" horiz-adv-x="1122" 
d="M561 844q106 0 195.5 -36.5t155 -102t102.5 -155t37 -196.5q0 -106 -37 -195.5t-102.5 -155t-155 -102t-195.5 -36.5q-105 0 -195 36.5t-155 102t-102 155t-37 195.5q0 107 37 196.5t102 155t155 102t195 36.5zM561 755q-88 0 -161 -30.5t-124.5 -84t-80 -127
t-28.5 -159.5t28.5 -159t80 -126.5t124.5 -84t161 -30.5q89 0 162 30.5t125 84t80 126.5t28 159t-28 159.5t-80 127t-125 84t-162 30.5zM459 63q-19 0 -8 16l123 189q-25 -10 -55 -10q-34 0 -64 12.5t-52.5 35t-35 55.5t-12.5 73q0 44 15.5 79t43 59.5t65.5 37.5t84 13
q45 0 81.5 -12t63 -35t41 -56t14.5 -75q0 -39 -12 -75.5t-30 -67.5l-140 -234q-3 -5 -9 -5h-113zM554 354q42 0 63 22t21 60q0 74 -77 74q-39 0 -61.5 -20.5t-22.5 -60.5q0 -38 20 -56.5t57 -18.5z" />
    <glyph glyph-name="uni24D5" unicode="&#x24d5;" horiz-adv-x="877" 
d="M439 739q84 0 155.5 -28t123.5 -79t81.5 -122.5t29.5 -159.5t-29.5 -159.5t-81.5 -122.5t-123.5 -79t-155.5 -28q-85 0 -156.5 28t-124 79t-82 122.5t-29.5 159.5t29.5 159.5t82 122.5t124 79t156.5 28zM439 668q-70 0 -128 -23t-99.5 -65t-64.5 -100.5t-23 -129.5
t23 -129.5t64.5 -100t99.5 -64.5t128 -23t127.5 23t99 64.5t64.5 100t23 129.5t-23 129.5t-64.5 100.5t-99 65t-127.5 23zM533 341q0 -11 -11 -11h-72v-187q0 -10 -11 -10h-65q-10 0 -10 10v187h-47q-11 0 -11 11v53q0 11 11 11h47v24q0 62 32.5 98t87.5 36q26 0 49.5 -5
t49.5 -17q10 -3 5 -14l-21 -44q-5 -9 -15 -4q-14 5 -26.5 8.5t-26.5 3.5q-28 0 -38.5 -19t-10.5 -48v-19h72q11 0 11 -11v-53z" />
    <glyph glyph-name="uni24E3" unicode="&#x24e3;" horiz-adv-x="877" 
d="M439 739q84 0 155.5 -28t123.5 -79t81.5 -122.5t29.5 -159.5t-29.5 -159.5t-81.5 -122.5t-123.5 -79t-155.5 -28q-85 0 -156.5 28t-124 79t-82 122.5t-29.5 159.5t29.5 159.5t82 122.5t124 79t156.5 28zM439 668q-70 0 -128 -23t-99.5 -65t-64.5 -100.5t-23 -129.5
t23 -129.5t64.5 -100t99.5 -64.5t128 -23t127.5 23t99 64.5t64.5 100t23 129.5t-23 129.5t-64.5 100.5t-99 65t-127.5 23zM441 522q11 0 11 -10v-58h87q11 0 11 -10l-1 -54q0 -11 -11 -11h-86v-93q0 -26 8 -35.5t32 -9.5q23 0 45 12q11 5 16 -5l20 -47q4 -9 -5 -13
q-21 -11 -46.5 -18t-51.5 -7q-51 0 -77.5 28.5t-26.5 76.5v111h-48q-11 0 -11 11l1 54q0 10 10 10h59l29 62q2 6 9 6h26z" />
    <glyph glyph-name="uni24EA" unicode="&#x24ea;" horiz-adv-x="1122" 
d="M561 844q106 0 195.5 -36.5t155 -102t102.5 -155t37 -196.5q0 -106 -37 -195.5t-102.5 -155t-155 -102t-195.5 -36.5q-105 0 -195 36.5t-155 102t-102 155t-37 195.5q0 107 37 196.5t102 155t155 102t195 36.5zM561 755q-88 0 -161 -30.5t-124.5 -84t-80 -127
t-28.5 -159.5t28.5 -159t80 -126.5t124.5 -84t161 -30.5q89 0 162 30.5t125 84t80 126.5t28 159t-28 159.5t-80 127t-125 84t-162 30.5zM559 634q57 0 98.5 -20.5t68.5 -58t40 -89t13 -114.5t-13.5 -116t-40.5 -91.5t-68.5 -59.5t-97.5 -21q-57 0 -98.5 21t-68.5 59
t-40.5 91t-13.5 117q0 63 13 114.5t40.5 89t69 58t98.5 20.5zM559 517q-48 0 -71.5 -36.5t-23.5 -128.5q0 -93 23.5 -131.5t71.5 -38.5q47 0 70.5 38.5t23.5 131.5q0 92 -23 128.5t-71 36.5z" />
    <glyph glyph-name="uni24FF" unicode="&#x24ff;" horiz-adv-x="1121" 
d="M561 844q108 0 197.5 -35.5t154 -100t100.5 -154.5t36 -200q0 -109 -36 -199.5t-100.5 -154.5t-154 -99.5t-197.5 -35.5t-198 35.5t-154.5 99.5t-100.5 154.5t-36 199.5q0 110 36 200t100.5 154.5t154.5 100t198 35.5zM561 639q-57 0 -98.5 -20.5t-69 -58t-40.5 -89
t-13 -114.5q0 -64 13.5 -117t40.5 -91t68.5 -59t98.5 -21q56 0 97.5 21t68.5 59.5t40.5 91.5t13.5 116t-13 114.5t-40 89t-68.5 58t-98.5 20.5zM561 522q48 0 71 -36.5t23 -128.5q0 -93 -23.5 -131.5t-70.5 -38.5q-48 0 -71.5 38.5t-23.5 131.5q0 92 23.5 128.5t71.5 36.5z
" />
    <glyph glyph-name="filledbox" unicode="&#x25a0;" horiz-adv-x="1083" 
d="M83 -116q-11 0 -11 11v910q0 11 11 11h917q11 0 11 -11v-910q0 -11 -11 -11h-917z" />
    <glyph glyph-name="uni25A1" unicode="&#x25a1;" horiz-adv-x="1083" 
d="M83 -116q-11 0 -11 11v910q0 11 11 11h917q11 0 11 -11v-910q0 -11 -11 -11h-917zM916 -24v748h-749v-748h749z" />
    <glyph glyph-name="uni25AA" unicode="&#x25aa;" horiz-adv-x="600" 
d="M183 222q-11 0 -11 11v234q0 11 11 11h234q11 0 11 -11v-234q0 -11 -11 -11h-234z" />
    <glyph glyph-name="triagup" unicode="&#x25b2;" horiz-adv-x="800" 
d="M98 50q-18 0 -10 16l302 566q10 18 20 0l302 -566q8 -16 -10 -16h-604z" />
    <glyph glyph-name="uni25B6" unicode="&#x25b6;" horiz-adv-x="780" 
d="M116 43q-16 -8 -16 10v604q0 18 16 10l566 -302q18 -10 0 -20z" />
    <glyph glyph-name="triagdn" unicode="&#x25bc;" horiz-adv-x="800" 
d="M702 630q18 0 10 -16l-302 -566q-10 -18 -20 0l-302 566q-8 16 10 16h604z" />
    <glyph glyph-name="uni25C0" unicode="&#x25c0;" horiz-adv-x="780" 
d="M680 53q0 -18 -16 -10l-566 302q-18 10 0 20l566 302q16 8 16 -10v-604z" />
    <glyph glyph-name="lozenge" unicode="&#x25ca;" horiz-adv-x="612" 
d="M568 353q5 -6 0 -11l-209 -372q-3 -5 -10 -5h-86q-7 0 -10 5l-210 372q-3 5 0 11l210 377q3 5 10 5h86q7 0 10 -5zM306 641l-147 -294l147 -288l147 288z" />
    <glyph glyph-name="circle" unicode="&#x25cb;" horiz-adv-x="1073" 
d="M537 844q105 0 195 -36.5t155 -102t102 -155t37 -196.5q0 -106 -37 -195.5t-102 -155t-155 -102t-195 -36.5q-106 0 -195.5 36.5t-155 102t-102.5 155t-37 195.5q0 107 37 196.5t102.5 155t155 102t195.5 36.5zM537 755q-89 0 -162 -30.5t-124.5 -84t-80 -127
t-28.5 -159.5t28.5 -159t80 -126.5t124.5 -84t162 -30.5t161.5 30.5t124.5 84t80 126.5t28 159t-28 159.5t-80 127t-124.5 84t-161.5 30.5z" />
    <glyph glyph-name="uni25CF" unicode="&#x25cf;" horiz-adv-x="1073" 
d="M537 844q105 0 195 -36.5t155 -102t102 -155t37 -196.5q0 -106 -37 -195.5t-102 -155t-155 -102t-195 -36.5q-106 0 -195.5 36.5t-155 102t-102.5 155t-37 195.5q0 107 37 196.5t102.5 155t155 102t195.5 36.5z" />
    <glyph glyph-name="uni2605" unicode="&#x2605;" horiz-adv-x="977" 
d="M477 721q4 14 10 14q7 0 11 -14l85 -263h282q14 0 15.5 -5.5t-9.5 -13.5l-227 -169l83 -268q6 -18 -3 -18q-5 0 -14 6l-223 168l-220 -168q-9 -6 -14 -6q-9 0 -3 18l83 268l-227 169q-11 8 -9.5 13.5t15.5 5.5h283z" />
    <glyph glyph-name="uni2606" unicode="&#x2606;" horiz-adv-x="1069" 
d="M524 797q4 14 11 14q6 0 10 -14l95 -295h317q15 0 16.5 -5.5t-9.5 -13.5l-256 -190l94 -301q5 -18 -4 -18q-4 0 -13 6l-250 189l-250 -189q-9 -6 -14 -6q-9 0 -3 18l93 301l-255 190q-11 8 -9.5 13.5t15.5 5.5h317zM478 432h-187l152 -113l-54 -172l146 109l145 -109
l-53 172l152 113h-187l-57 185z" />
    <glyph glyph-name="uni261C" unicode="&#x261c;" horiz-adv-x="1133" 
d="M1052 446q10 0 10 -10v-28q0 -9 -10 -9h-237q-6 0 -9 5q-17 34 -40.5 57t-51.5 37t-58.5 20t-61.5 6q-24 0 -48 -3l-179 -23q-36 -6 -34 -29q6 -34 84 -34q29 0 61.5 2.5t67.5 10.5q6 2 10 -4q9 -14 20 -29t26.5 -28.5t37 -26t52.5 -22.5q10 -3 6 -14l-9 -21
q-3 -7 -12 -5q-35 12 -59 25t-43 33q-2 -10 -6 -19.5t-14 -17.5q20 -5 33 -15.5t18 -33.5q5 -19 -5 -40t-30 -32q14 -5 24.5 -14t13.5 -26q5 -23 -7.5 -42t-39.5 -26l-13 -3q12 -2 24.5 -3.5t25.5 -1.5q62 0 120.5 23.5t96.5 58.5q4 2 7 2h229q10 0 10 -9v-28q0 -9 -10 -9
h-219q-49 -38 -109 -58t-125 -20q-72 0 -140 25l-22 -5q-31 -7 -55.5 5t-29.5 35q-5 17 -0.5 30t11.5 22q-32 0 -50.5 15.5t-23.5 38.5q-3 16 2.5 33t18.5 28q-23 2 -36.5 16.5t-17.5 33.5q-2 12 0.5 27t14.5 27l-135 -12q-43 -4 -64 17t-21 49t20 46.5t64 22.5l161 13
q7 11 19 18.5t35 10.5l197 27q24 3 50 3q35 0 69.5 -6.5t66 -21.5t59.5 -38t49 -56h211zM139 456q-26 -2 -34 -9t-8 -21t9.5 -20.5t34.5 -4.5l182 16q-32 14 -36 48zM351 369q-28 -5 -43 -14.5t-12 -28.5q3 -23 37 -23q14 0 32 3l130 22q24 5 33.5 12.5t7.5 24.5
q-2 13 -13.5 20.5t-42.5 2.5zM566 261q-3 19 -18 24t-47 0l-129 -23q-24 -5 -35.5 -17t-8.5 -28q2 -15 16 -22.5t41 -2.5l134 23q29 5 39.5 16t7.5 30zM424 154q-22 -5 -29.5 -14.5t-4.5 -22.5q4 -23 47 -15l100 19q20 4 26 12t4 22q-2 12 -14.5 16t-33.5 0z" />
    <glyph glyph-name="uni261D" unicode="&#x261d;" horiz-adv-x="650" 
d="M455 -191q0 -9 -9 -9h-28q-9 0 -9 9v252q0 6 5 8q40 21 65 50t38.5 63.5t16 72t-2.5 74.5l-24 179q-3 20 -10 27.5t-18 6.5q-35 -6 -35 -84q0 -29 3 -61.5t10 -67.5q2 -3 0 -5.5t-4 -4.5q-14 -9 -28.5 -20t-28.5 -26.5t-26.5 -37t-22.5 -52.5q-3 -9 -13 -6l-21 9
q-7 4 -5 12q12 35 25 59t33 44q-23 2 -37 19q-5 -20 -16 -32.5t-33 -17.5q-20 -5 -40.5 5t-31.5 30q-5 -14 -14 -24.5t-27 -14.5q-22 -5 -41.5 7.5t-26.5 39.5l-3 13q-7 -35 -3.5 -73t14.5 -73.5t28 -66.5t38 -54q3 -3 3 -6v-244q0 -9 -10 -9h-27q-10 0 -10 9v233
q-29 38 -47.5 83t-25.5 93.5t-2 98.5t22 99l-4 22q-7 32 4.5 56t35.5 30q16 4 29 0t22 -11q1 31 16.5 49.5t38.5 23.5q16 3 33 -2.5t27 -18.5q3 23 17.5 36.5t32.5 17.5q12 2 27.5 -0.5t26.5 -14.5l-12 135q-4 43 17.5 64t49.5 21t46 -19.5t22 -63.5l14 -161q11 -8 18.5 -20
t10.5 -35l27 -197q5 -39 1.5 -80.5t-17.5 -80.5t-39.5 -73.5t-64.5 -59.5v-225zM465 735q-2 26 -9 36t-21 9t-20 -11.5t-4 -34.5l15 -182q14 32 49 36zM378 524q-4 29 -13.5 44t-28.5 12t-22.5 -22t1.5 -48l23 -130q4 -24 12 -33.5t25 -7.5q13 2 20.5 13.5t2.5 42.5z
M270 309q20 4 25.5 18.5t-0.5 46.5l-23 129q-5 24 -17.5 35.5t-28.5 8.5q-15 -2 -22 -16t-2 -41l23 -134q5 -29 16 -39.5t29 -7.5zM164 451q-5 23 -15 30.5t-22 4.5q-24 -6 -15 -48l18 -99q5 -20 13 -26.5t21 -4.5q25 5 17 48z" />
    <glyph glyph-name="uni261E" unicode="&#x261e;" horiz-adv-x="1133" 
d="M272 446q21 33 49 56t59.5 38t66.5 21.5t69 6.5q26 0 50 -3l197 -27q23 -3 35 -10.5t19 -18.5l161 -13q44 -4 64 -22.5t20 -46.5t-21 -49t-64 -17l-135 12q12 -12 14.5 -27t0.5 -27q-4 -19 -17.5 -33.5t-36.5 -16.5q13 -11 18.5 -28t2.5 -33q-5 -23 -23.5 -38.5
t-50.5 -15.5q7 -9 11.5 -22t-0.5 -30q-5 -23 -29.5 -35t-55.5 -5l-22 5q-68 -25 -140 -25q-65 0 -125 20t-109 58h-219q-10 0 -10 9v28q0 9 10 9h229q3 0 7 -2q38 -35 96.5 -58.5t120.5 -23.5q13 0 25.5 1.5t24.5 3.5l-13 3q-27 7 -39.5 26t-7.5 42q3 17 13.5 26t24.5 14
q-20 11 -30 32t-5 40q5 23 18 33.5t33 15.5q-10 8 -14 17.5t-6 19.5q-19 -20 -43 -33t-59 -25q-9 -2 -12 5l-9 21q-4 11 6 14q31 10 52.5 22.5t37 26t26.5 28.5t20 29q4 6 10 4q35 -8 67.5 -10.5t61.5 -2.5q78 0 84 34q2 23 -34 29l-179 23q-24 3 -48 3q-31 0 -61.5 -6
t-58.5 -20t-51.5 -37t-40.5 -57q-3 -5 -9 -5h-237q-10 0 -10 9v28q0 10 10 10h211zM826 465q-4 -34 -36 -48l182 -16q24 -2 34 4.5t10 20.5t-8 21t-34 9zM633 388q-31 5 -42.5 -2.5t-13.5 -20.5q-2 -17 7.5 -24.5t32.5 -12.5l131 -22q18 -3 32 -3q34 0 37 23q3 19 -12 28.5
t-43 14.5zM547 261q-3 -19 7.5 -30t39.5 -16l134 -23q27 -5 41 2.5t16 22.5q3 16 -8.5 28.5t-35.5 16.5l-129 23q-16 3 -28 3q-33 0 -37 -27zM594 171q-21 4 -33.5 0t-14.5 -16q-2 -14 4 -22t26 -12l100 -19q43 -8 47 15q3 13 -4.5 22.5t-29.5 14.5z" />
    <glyph glyph-name="uni261F" unicode="&#x261f;" horiz-adv-x="650" 
d="M455 590q39 -25 64.5 -59.5t39.5 -73.5t17.5 -80.5t-1.5 -80.5l-27 -197q-3 -24 -10.5 -36t-18.5 -19l-14 -161q-4 -44 -22 -63.5t-46 -19.5q-29 0 -50 21t-17 63l12 135q-11 -11 -26.5 -13.5t-27.5 -0.5q-18 3 -32.5 17t-17.5 36q-10 -13 -27 -18.5t-33 -2.5
q-23 5 -38.5 24t-16.5 50q-9 -7 -22 -11t-29 0q-24 6 -35.5 30t-4.5 56l4 22q-17 49 -22 99t2 98.5t25.5 93.5t47.5 83v205q0 10 10 10h27q10 0 10 -10v-216q0 -3 -3 -6q-21 -22 -38 -53.5t-28 -67t-14.5 -73.5t3.5 -73l3 13q7 27 26.5 39.5t41.5 7.5q18 -4 27 -14.5
t14 -24.5q11 20 31.5 30t40.5 5q22 -5 33 -17.5t16 -32.5q14 17 37 19q-20 20 -33 44t-25 59q-1 3 0.5 6.5t4.5 4.5l21 9q10 5 13 -5q10 -31 22.5 -52.5t26.5 -37t28.5 -26.5t28.5 -20q7 -4 4 -10q-7 -35 -10 -67.5t-3 -61.5q0 -78 35 -84q22 -3 28 33l24 180q5 37 2.5 74.5
t-16 72t-38.5 63.5t-65 50q-5 2 -5 8v224q0 10 9 10h28q9 0 9 -10v-197zM181 268q8 43 -17 48q-13 2 -21 -4.5t-13 -26.5l-18 -99q-9 -42 15 -48q12 -3 22 4.5t15 30.5zM270 315q-18 3 -29 -7.5t-16 -39.5l-23 -134q-5 -27 2 -41t22 -16q16 -3 28.5 8.5t17.5 35.5l23 129
q6 32 0.5 46.5t-25.5 18.5zM398 229q5 31 -2.5 42.5t-20.5 12.5q-17 2 -25 -7t-12 -33l-23 -130q-5 -29 -1.5 -48t22.5 -22t28.5 12t13.5 44zM475 36q-35 4 -49 36l-15 -182q-4 -46 24 -46q14 -1 21 9t9 36z" />
    <glyph glyph-name="uni2630" unicode="&#x2630;" horiz-adv-x="784" 
d="M83 587q-11 0 -11 11v78q0 11 11 11h618q11 0 11 -11v-78q0 -11 -11 -11h-618zM83 334q-11 0 -11 11v78q0 11 11 11h618q11 0 11 -11v-78q0 -11 -11 -11h-618zM83 81q-11 0 -11 11v79q0 10 11 10h618q11 0 11 -10v-79q0 -11 -11 -11h-618z" />
    <glyph glyph-name="uni2639" unicode="&#x2639;" horiz-adv-x="859" 
d="M430 727q81 0 151 -29t121.5 -80.5t80.5 -121.5t29 -151t-29 -151t-80.5 -121t-121.5 -80.5t-151 -29.5t-151 29.5t-121.5 80.5t-81 121t-29.5 151t29.5 151t81 121.5t121.5 80.5t151 29zM430 658q-67 0 -124.5 -24.5t-99 -67t-65 -99.5t-23.5 -122t23.5 -122t65 -99.5
t99 -67t124.5 -24.5t124 24.5t98.5 67t65 99.5t23.5 122t-23.5 122t-65 99.5t-98.5 67t-124 24.5zM312 485q24 0 40 -16t16 -40t-16 -39.5t-40 -15.5t-40 15.5t-16 39.5t16 40t40 16zM546 485q23 0 39.5 -16t16.5 -40t-16.5 -39.5t-39.5 -15.5q-24 0 -40.5 15.5t-16.5 39.5
t16.5 40t40.5 16zM429 231q-60 0 -99 -24.5t-65 -56.5q-7 -9 -15 -2l-23 20q-7 7 -1 14q13 18 32 36t44.5 33t57 24t69.5 9t69.5 -9t56.5 -24t44.5 -33t32.5 -36q5 -7 -2 -14l-22 -20q-9 -6 -16 2q-25 32 -64 56.5t-99 24.5z" />
    <glyph glyph-name="smileface" unicode="&#x263a;" horiz-adv-x="859" 
d="M430 727q81 0 151 -29t121.5 -80.5t80.5 -121.5t29 -151t-29 -151t-80.5 -121t-121.5 -80.5t-151 -29.5t-151 29.5t-121.5 80.5t-81 121t-29.5 151t29.5 151t81 121.5t121.5 80.5t151 29zM430 658q-67 0 -124.5 -24.5t-99 -67t-65 -99.5t-23.5 -122t23.5 -122t65 -99.5
t99 -67t124.5 -24.5t124 24.5t98.5 67t65 99.5t23.5 122t-23.5 122t-65 99.5t-98.5 67t-124 24.5zM312 485q24 0 40 -16t16 -40t-16 -39.5t-40 -15.5t-40 15.5t-16 39.5t16 40t40 16zM546 485q23 0 39.5 -16t16.5 -40t-16.5 -39.5t-39.5 -15.5q-24 0 -40.5 15.5t-16.5 39.5
t16.5 40t40.5 16zM429 194q60 0 99 24.5t64 56.5q7 9 16 1l22 -19q7 -6 2 -14q-13 -18 -32.5 -36.5t-44.5 -33t-56.5 -23.5t-69.5 -9t-69.5 9t-57 23.5t-44.5 33t-32 36.5q-6 7 1 14l23 19q8 8 15 -1q26 -32 65 -56.5t99 -24.5z" />
    <glyph glyph-name="invsmileface" unicode="&#x263b;" horiz-adv-x="855" 
d="M427 725q81 0 150.5 -29t120.5 -80t80 -120.5t29 -150.5q0 -80 -29 -149.5t-80 -120.5t-120.5 -80.5t-150.5 -29.5t-150.5 29.5t-120.5 80.5t-80 120.5t-29 149.5q0 81 29 150.5t80 120.5t120.5 80t150.5 29zM310 485q-24 0 -40.5 -16t-16.5 -40t16.5 -39.5t40.5 -15.5
t40 15.5t16 39.5t-16 40t-40 16zM543 485q-24 0 -40 -16t-16 -40t16 -39.5t40 -15.5t40.5 15.5t16.5 39.5t-16.5 40t-40.5 16zM426 194q-32 0 -58 7.5t-46.5 20.5t-37 29t-28.5 33l-38 -33q13 -19 32 -38.5t45 -35.5t58.5 -26t72.5 -10t73 10t59 26t45 35.5t32 38.5l-39 33
q-12 -17 -28 -33t-37 -29t-47 -20.5t-58 -7.5z" />
    <glyph glyph-name="spade" unicode="&#x2660;" horiz-adv-x="807" 
d="M619 456q38 -37 61.5 -79.5t23.5 -90.5q0 -66 -40 -104.5t-109 -38.5q-29 0 -50.5 9.5t-36.5 26t-24.5 38t-14.5 46.5h-9q1 -93 16 -151t37 -95q9 -17 -10 -17h-120q-19 0 -10 17q22 37 37 95t16 151h-9q-5 -25 -14.5 -46.5t-24 -38t-36 -26t-50.5 -9.5q-69 0 -109 38.5
t-40 104.5q0 48 23.5 90.5t61.5 79.5l208 201q8 8 15 0z" />
    <glyph glyph-name="club" unicode="&#x2663;" horiz-adv-x="715" 
d="M47 317q0 33 11 60.5t30.5 47t47 30t60.5 10.5q5 0 14.5 -1.5t14.5 -2.5q-7 13 -11.5 28t-4.5 31q0 67 41 107.5t108 40.5q66 0 107 -40.5t41 -107.5q0 -16 -5 -31.5t-12 -28.5q6 1 15.5 3t16.5 2q67 0 107 -41t40 -107q0 -68 -40 -108.5t-107 -40.5q-68 0 -101.5 40.5
t-33.5 108.5h-10q0 -47 4.5 -91.5t11.5 -83.5t16.5 -71t20.5 -53q10 -18 -10 -18h-121q-19 0 -11 18q11 21 21 53t17 71t11.5 83.5t4.5 91.5h-10q0 -68 -34 -108.5t-101 -40.5t-108 40.5t-41 108.5z" />
    <glyph glyph-name="heart" unicode="&#x2665;" horiz-adv-x="737" 
d="M138 267q-41 39 -66 84.5t-25 96.5q0 71 43 112t117 41q31 0 56.5 -10t45 -27.5t33 -41t19.5 -49.5h15q6 26 19 49.5t32.5 41t45.5 27.5t57 10q74 0 117 -41t43 -112q0 -51 -25.5 -96t-66.5 -85l-222 -216q-7 -7 -15 0z" />
    <glyph glyph-name="diamond" unicode="&#x2666;" horiz-adv-x="580" 
d="M51 293q-7 7 0 14q38 41 70 78.5t60 75.5t53 78.5t49 86.5q2 4 7 4t7 -4q24 -46 49 -86.5t53 -78.5t60 -75.5t70 -78.5q7 -7 0 -14q-38 -41 -70 -78.5t-60 -75.5t-53 -78.5t-49 -86.5q-2 -4 -7 -4t-7 4q-24 46 -49 86.5t-53 78.5t-60 75.5t-70 78.5z" />
    <glyph glyph-name="uni2706" unicode="&#x2706;" horiz-adv-x="877" 
d="M439 739q84 0 155.5 -28t123.5 -79t81.5 -122.5t29.5 -159.5t-29.5 -159.5t-81.5 -122.5t-123.5 -79t-155.5 -28q-85 0 -156.5 28t-124 79t-82 122.5t-29.5 159.5t29.5 159.5t82 122.5t124 79t156.5 28zM439 668q-70 0 -128 -23t-99.5 -65t-64.5 -100.5t-23 -129.5
t23 -129.5t64.5 -100t99.5 -64.5t128 -23t127.5 23t99 64.5t64.5 100t23 129.5t-23 129.5t-64.5 100.5t-99 65t-127.5 23zM308 143q-5 -5 -11 -1q-40 27 -58.5 57.5t-2.5 74.5q15 41 38.5 82.5t52 79.5t62 72t68.5 61q21 17 55 17q24 0 48.5 -10t43.5 -28q4 -4 2 -10
q-10 -26 -32 -54t-50 -50q-6 -3 -12 0l-38 24q-55 -24 -85.5 -66t-41.5 -100l36 -34q7 -5 3 -11q-13 -32 -34 -59.5t-44 -44.5zM570 401q-6 -4 -12 0l-15 11q-10 8 -1 17q45 39 73 89q7 13 17 3l13 -12q5 -3 3 -10q-9 -26 -30.5 -52.5t-47.5 -45.5zM360 106q-6 -5 -13 0
l-19 14q-11 7 -1 17q43 40 66 92q8 14 18 5l17 -16q5 -5 3 -11q-8 -26 -27 -54t-44 -47z" />
    <glyph glyph-name="uni2709" unicode="&#x2709;" horiz-adv-x="1030" 
d="M83 0q-11 0 -11 11v587q0 11 11 11h865q11 0 11 -11v-587q0 -11 -11 -11h-865zM518 302l319 239h-637zM377 327l-235 178v-399zM656 324l232 -216v393zM429 287l-236 -219h646l-235 217l-86 -65z" />
    <glyph glyph-name="uni2713" unicode="&#x2713;" horiz-adv-x="680" 
d="M54 403q-5 10 5 15l95 46q10 4 14 -5l145 -282l204 452q3 10 14 6l91 -39q10 -3 5 -14l-268 -541q-3 -6 -9 -6h-77q-7 0 -10 5z" />
    <glyph glyph-name="uni2715" unicode="&#x2715;" horiz-adv-x="705" 
d="M629 560q7 -7 0 -15l-195 -195l196 -194q7 -8 0 -15l-67 -67q-8 -7 -15 0l-196 195l-195 -194q-8 -7 -15 0l-66 66q-8 8 0 16l195 193l-193 195q-8 7 0 15l67 66q7 8 15 0l193 -194l195 194q7 8 15 0z" />
    <glyph glyph-name="uni275B" unicode="&#x275b;" horiz-adv-x="465" 
d="M232 274q-37 0 -69.5 13t-55.5 37.5t-36.5 60t-13.5 80.5q0 54 16 106t49 95t84.5 74t123.5 44q9 1 12 -7l16 -54q3 -12 -9 -14q-62 -9 -105 -40t-59 -90q15 12 32.5 17.5t34.5 5.5q73 0 114.5 -43t41.5 -114q0 -35 -11.5 -66t-34 -54.5t-55.5 -37t-75 -13.5z" />
    <glyph glyph-name="uni275C" unicode="&#x275c;" horiz-adv-x="465" 
d="M232 782q38 0 70 -13t55.5 -37.5t37 -60t13.5 -80.5q0 -54 -16 -106t-49 -95t-84.5 -74t-123.5 -44q-9 -1 -12 7l-16 54q-3 12 9 14q62 9 104.5 40t59.5 90q-15 -12 -32.5 -17.5t-35.5 -5.5q-72 0 -113.5 43t-41.5 114q0 35 11.5 66t34 54.5t55 37t74.5 13.5z" />
    <glyph glyph-name="uni275D" unicode="&#x275d;" horiz-adv-x="846" 
d="M614 274q-38 0 -70 13t-55.5 37.5t-37 60t-13.5 80.5q0 54 16 106t49 95t85 74t124 44q9 2 12 -7l15 -54q5 -12 -8 -14q-63 -9 -105.5 -40t-59.5 -90q15 12 33 17.5t35 5.5q72 0 114 -43t42 -114q0 -35 -11.5 -66t-34 -54.5t-55.5 -37t-75 -13.5zM232 274q-37 0 -69.5 13
t-55.5 37.5t-36.5 60t-13.5 80.5q0 54 16 106t49 95t84.5 74t123.5 44q9 1 12 -7l16 -54q5 -12 -9 -14q-62 -9 -105 -40t-59 -90q15 12 32.5 17.5t34.5 5.5q73 0 114.5 -43t41.5 -114q0 -35 -11.5 -66t-34 -54.5t-55.5 -37t-75 -13.5z" />
    <glyph glyph-name="uni275E" unicode="&#x275e;" horiz-adv-x="846" 
d="M135 272q-9 -1 -12 7l-16 54q-3 12 9 14q62 9 104.5 40t59.5 90q-15 -12 -32.5 -17.5t-35.5 -5.5q-72 0 -113.5 43t-41.5 114q0 35 11.5 66t34 54.5t55 37t74.5 13.5q38 0 70 -13t55.5 -37.5t37 -60t13.5 -80.5q0 -54 -16 -106t-49 -95t-84.5 -74t-123.5 -44zM516 272
q-9 -1 -12 7l-16 54q-3 12 9 14q62 9 105 40t59 90q-14 -12 -32 -17.5t-35 -5.5q-73 0 -114.5 43t-41.5 114q0 35 12 66t34.5 54.5t55 37t74.5 13.5q38 0 70 -13t55.5 -37.5t37 -60t13.5 -80.5q0 -54 -16 -106t-49.5 -95t-85 -74t-123.5 -44z" />
    <glyph glyph-name="uni275F" unicode="&#x275f;" horiz-adv-x="465" 
d="M232 324q38 0 70 -12.5t55.5 -37t37 -60t13.5 -80.5q0 -54 -16 -106t-49 -95.5t-84.5 -74.5t-123.5 -43q-9 -1 -12 7l-16 54q-5 12 9 14q62 9 104.5 40t59.5 90q-15 -12 -32.5 -17.5t-35.5 -5.5q-72 0 -113.5 42.5t-41.5 113.5q0 35 11.5 66t34 54.5t55 37t74.5 13.5z
" />
    <glyph glyph-name="uni2760" unicode="&#x2760;" horiz-adv-x="846" 
d="M232 324q38 0 70 -12.5t55.5 -37t37 -60t13.5 -80.5q0 -54 -16 -106t-49 -95.5t-84.5 -74.5t-123.5 -43q-9 -1 -12 7l-16 54q-3 12 9 14q62 9 104.5 40t59.5 90q-15 -12 -32.5 -17.5t-35.5 -5.5q-72 0 -113.5 42.5t-41.5 113.5q0 35 11.5 66t34 54.5t55 37t74.5 13.5z
M614 324q38 0 70 -12.5t55.5 -37t37 -60t13.5 -80.5q0 -54 -16 -106t-49.5 -95.5t-85 -74.5t-123.5 -43q-9 -1 -12 7l-16 54q-3 12 9 14q62 9 105 40t59 90q-14 -12 -32 -17.5t-35 -5.5q-73 0 -114.5 42.5t-41.5 113.5q0 35 12 66t34.5 54.5t55 37t74.5 13.5z" />
    <glyph glyph-name="uni2766" unicode="&#x2766;" horiz-adv-x="697" 
d="M341 339q21 41 39.5 83.5t32.5 82.5q-36 16 -68.5 36t-63 38t-59 30.5t-55.5 12.5q-67 0 -72 -49q-2 -17 5 -37t27 -43q10 -10 -2 -17l-19 -13q-7 -5 -13 1q-26 27 -36.5 57.5t-7.5 56.5q5 37 33 63t79 26q31 0 59.5 -10t57.5 -25q23 44 53.5 62.5t57.5 18.5
q45 0 65.5 -26.5t20.5 -72.5q0 -38 -12 -83q35 -11 67 -11q34 0 52.5 14t21.5 35q2 14 -4.5 34t-32.5 38q-11 7 -2 16l15 18q6 8 14 2q33 -26 45 -53t10 -53q-1 -18 -8.5 -34.5t-22 -29.5t-36 -21t-50.5 -8q-21 0 -41 3.5t-39 8.5q-12 -38 -30 -79.5t-40 -84.5l8 -2
q23 43 52.5 67t64.5 24q45 0 74 -28t29 -82q0 -40 -16 -67t-40.5 -45.5t-53 -31.5t-53 -25t-40.5 -25t-16 -33q0 -22 14 -31.5t37 -9.5q68 0 110 60q5 8 14 3l6 -4q9 -5 4 -13q-26 -47 -70 -71t-100 -24q-62 0 -111.5 25t-84 66t-53 92.5t-18.5 103.5q0 44 10 75t26.5 51
t39 29.5t46.5 9.5q15 0 30.5 -5t26.5 -16.5t16 -30.5t0 -47zM312 612q28 -17 55.5 -34.5t56.5 -31.5q8 35 8 60q0 28 -10.5 45t-34.5 17t-42 -14t-33 -42z" />
    <glyph glyph-name="uni2767" unicode="&#x2767;" horiz-adv-x="790" 
d="M445 339q-51 24 -73.5 54.5t-22.5 59.5q0 39 26 64t71 25q35 0 59.5 -14.5t42 -35.5t30 -46.5t24.5 -46.5t25.5 -35.5t31.5 -14.5q20 0 29.5 13t9.5 33q0 31 -13.5 55t-42.5 46q-11 7 -5 14l5 7q4 8 15 2q38 -26 62 -65t24 -90q0 -57 -23.5 -104t-61 -80t-85.5 -51
t-96 -18q-80 0 -117 30t-37 74q0 18 7.5 33.5t21.5 26t33 14.5t42 0l2 8q-35 18 -79 29t-89 10h-15.5t-14.5 -1q14 -30 24.5 -62.5t10.5 -68.5q0 -33 -9 -57.5t-24 -40t-33.5 -23.5t-38.5 -8q-22 0 -42.5 8.5t-36.5 25.5t-25.5 41.5t-9.5 56.5q0 63 32.5 100.5t84.5 54.5
q-19 36 -34 74t-15 78q0 27 9 47.5t24 34t34 20t40 6.5q23 0 44.5 -7.5t39.5 -22.5q6 -5 1 -14l-15 -19q-6 -8 -15 -1q-14 10 -29 14.5t-29 4.5q-24 0 -41.5 -15t-17.5 -47q0 -36 16 -71t35 -71q12 2 24 2h24q45 0 92 -10.5t92 -31.5zM183 326q-39 -13 -64 -39.5t-25 -73.5
q0 -48 18.5 -70t46.5 -22q24 0 43 19.5t19 66.5q0 29 -11 59t-27 60z" />
    <glyph glyph-name="uni2776" unicode="&#x2776;" horiz-adv-x="1121" 
d="M561 844q108 0 197.5 -35.5t154 -100t100.5 -154.5t36 -200q0 -109 -36 -199.5t-100.5 -154.5t-154 -99.5t-197.5 -35.5t-198 35.5t-154.5 99.5t-100.5 154.5t-36 199.5q0 110 36 200t100.5 154.5t154.5 100t198 35.5zM586 615q-1 0 -2.5 -0.5t-3.5 -0.5l-186 -49
q-10 -3 -7 -13l23 -81q3 -11 13 -8l96 27v-415q0 -10 10 -10h95q11 0 11 10v529q0 11 -11 11h-38z" />
    <glyph glyph-name="uni2777" unicode="&#x2777;" horiz-adv-x="1121" 
d="M561 844q108 0 197.5 -35.5t154 -100t100.5 -154.5t36 -200q0 -109 -36 -199.5t-100.5 -154.5t-154 -99.5t-197.5 -35.5t-198 35.5t-154.5 99.5t-100.5 154.5t-36 199.5q0 110 36 200t100.5 154.5t154.5 100t198 35.5zM456 465q32 71 100 71q34 0 50.5 -15.5t16.5 -42.5
t-13.5 -52.5t-45.5 -62.5l-201 -226q-3 -3 -3 -8v-35q0 -11 11 -11h364q11 0 11 11v92q0 11 -11 11h-184l100 106q53 56 74 97t21 84q0 75 -49 117t-136 42q-72 0 -125 -36.5t-79 -103.5q-4 -9 6 -13l79 -31q9 -4 14 6z" />
    <glyph glyph-name="uni2778" unicode="&#x2778;" horiz-adv-x="1121" 
d="M561 844q108 0 197.5 -35.5t154 -100t100.5 -154.5t36 -200q0 -109 -36 -199.5t-100.5 -154.5t-154 -99.5t-197.5 -35.5t-198 35.5t-154.5 99.5t-100.5 154.5t-36 199.5q0 110 36 200t100.5 154.5t154.5 100t198 35.5zM538 306q92 0 92 -68q0 -32 -20 -49.5t-59 -17.5
t-64.5 18.5t-39.5 54.5q-4 11 -14 6l-81 -32q-10 -4 -6 -13q24 -69 77.5 -105t131.5 -36q45 0 82 12.5t63.5 34.5t40.5 52t14 66q0 46 -25 80.5t-76 49.5q42 14 67.5 49.5t25.5 83.5q0 66 -47.5 104t-136.5 38q-79 0 -133.5 -36t-77.5 -104q-4 -9 6 -13l81 -29q9 -3 14 6
q14 33 38.5 51.5t61.5 18.5q32 0 50.5 -14.5t18.5 -43.5q0 -36 -24.5 -52t-59.5 -16h-43q-11 0 -11 -11v-74q0 -11 11 -11h43z" />
    <glyph glyph-name="uni2779" unicode="&#x2779;" horiz-adv-x="1121" 
d="M561 844q108 0 197.5 -35.5t154 -100t100.5 -154.5t36 -200q0 -109 -36 -199.5t-100.5 -154.5t-154 -99.5t-197.5 -35.5t-198 35.5t-154.5 99.5t-100.5 154.5t-36 199.5q0 110 36 200t100.5 154.5t154.5 100t198 35.5zM763 276q0 10 -11 10h-54v99q0 11 -11 11h-91
q-10 0 -10 -11v-99h-115l164 331q4 7 1.5 11.5t-10.5 4.5h-112q-6 0 -10 -7l-179 -393q-3 -6 -3 -11v-34q0 -11 11 -11h253v-86q0 -10 10 -10h91q11 0 11 10v86h54q11 0 11 11v88z" />
    <glyph glyph-name="uni277A" unicode="&#x277a;" horiz-adv-x="1121" 
d="M561 844q108 0 197.5 -35.5t154 -100t100.5 -154.5t36 -200q0 -109 -36 -199.5t-100.5 -154.5t-154 -99.5t-197.5 -35.5t-198 35.5t-154.5 99.5t-100.5 154.5t-36 199.5q0 110 36 200t100.5 154.5t154.5 100t198 35.5zM722 617q0 11 -11 11h-303q-9 0 -11 -10l-22 -288
q-2 -12 11 -12h155q50 0 70 -19.5t20 -55.5q0 -73 -77 -73q-73 0 -98 69q-3 11 -14 7l-79 -31q-10 -4 -6 -13q23 -72 75.5 -106t127.5 -34q47 0 83 15t60.5 40.5t37.5 59.5t13 72q0 45 -15.5 78t-42.5 54t-64 31t-80 10h-55l6 89h208q11 0 11 10v96z" />
    <glyph glyph-name="uni277B" unicode="&#x277b;" horiz-adv-x="1121" 
d="M561 844q108 0 197.5 -35.5t154 -100t100.5 -154.5t36 -200q0 -109 -36 -199.5t-100.5 -154.5t-154 -99.5t-197.5 -35.5t-198 35.5t-154.5 99.5t-100.5 154.5t-36 199.5q0 110 36 200t100.5 154.5t154.5 100t198 35.5zM549 629q-5 0 -10 -5l-140 -232q-19 -32 -30 -68.5
t-11 -75.5q0 -85 53 -132t143 -47q46 0 85 13t67 37.5t43.5 60t15.5 79.5q0 41 -12.5 73t-35 55t-52 35t-64.5 12q-27 0 -56 -9l126 190q9 14 -7 14h-115zM566 339q75 0 75 -75q0 -41 -21.5 -61.5t-60.5 -20.5q-78 0 -78 75q0 38 21.5 60t63.5 22z" />
    <glyph glyph-name="uni277C" unicode="&#x277c;" horiz-adv-x="1121" 
d="M561 844q108 0 197.5 -35.5t154 -100t100.5 -154.5t36 -200q0 -109 -36 -199.5t-100.5 -154.5t-154 -99.5t-197.5 -35.5t-198 35.5t-154.5 99.5t-100.5 154.5t-36 199.5q0 110 36 200t100.5 154.5t154.5 100t198 35.5zM608 482l-174 -420q-2 -6 0.5 -10.5t9.5 -4.5h110
q7 0 10 7l179 486q3 5 3 15v32q0 10 -11 10h-350q-11 0 -11 -10v-94q0 -11 11 -11h223z" />
    <glyph glyph-name="uni277D" unicode="&#x277d;" horiz-adv-x="1121" 
d="M561 844q108 0 197.5 -35.5t154 -100t100.5 -154.5t36 -200q0 -109 -36 -199.5t-100.5 -154.5t-154 -99.5t-197.5 -35.5t-198 35.5t-154.5 99.5t-100.5 154.5t-36 199.5q0 110 36 200t100.5 154.5t154.5 100t198 35.5zM561 635q-88 0 -136 -39.5t-48 -105.5q0 -42 21 -78
t65 -53q-54 -18 -79 -56t-25 -84q0 -69 51 -111.5t151 -42.5q99 0 149.5 42.5t50.5 111.5q0 46 -24.5 84t-77.5 56q43 17 64 53t21 78q0 66 -48 105.5t-135 39.5zM561 529q30 0 47 -13.5t17 -44.5q0 -61 -64 -61t-64 61q0 31 16 44.5t48 13.5zM561 311q39 0 57.5 -18
t18.5 -50t-17 -49t-59 -17t-60 17t-18 49t18.5 50t59.5 18z" />
    <glyph glyph-name="uni277E" unicode="&#x277e;" horiz-adv-x="1121" 
d="M561 844q108 0 197.5 -35.5t154 -100t100.5 -154.5t36 -200q0 -109 -36 -199.5t-100.5 -154.5t-154 -99.5t-197.5 -35.5t-198 35.5t-154.5 99.5t-100.5 154.5t-36 199.5q0 110 36 200t100.5 154.5t154.5 100t198 35.5zM569 66q6 0 9 6l140 233q18 31 29.5 67.5t11.5 75.5
q0 42 -14.5 75.5t-40.5 56t-62.5 34.5t-81.5 12q-46 0 -84 -13t-65.5 -37.5t-43 -59.5t-15.5 -79q0 -40 12.5 -72.5t35 -55.5t52.5 -35t64 -12q33 0 55 9l-123 -188q-5 -8 -2.5 -12.5t10.5 -4.5h113zM551 357q-37 0 -57 18.5t-20 56.5q0 41 22.5 61.5t61.5 20.5q77 0 77 -75
q0 -38 -21 -60t-63 -22z" />
    <glyph glyph-name="uni2B51" unicode="&#x2b51;" horiz-adv-x="570" 
d="M480 404q14 0 15.5 -5.5t-9.5 -13.5l-116 -86l42 -135q6 -18 -4 -18q-4 0 -13 6l-111 84l-109 -83q-9 -6 -14 -6q-9 0 -3 18l41 134l-115 86q-11 8 -9.5 13.5t15.5 5.5h143l41 132q4 14 10 14q7 0 11 -14l42 -132h143z" />
    <glyph glyph-name="uni2B52" unicode="&#x2b52;" horiz-adv-x="569" 
d="M479 404q14 0 15.5 -5.5t-9.5 -13.5l-115 -85l41 -134q6 -18 -3 -18q-5 0 -14 6l-110 84l-110 -84q-9 -6 -13 -6q-8 0 -4 18l43 134l-116 85q-11 8 -9 13.5t16 5.5h142l41 131q4 14 10 14t10 -14l43 -131h142zM314 370l-29 88l-28 -88h-97l78 -59l-26 -89l73 60l75 -60
l-29 89l79 59h-96z" />
    <glyph glyph-name="uni2B6E" unicode="&#x2b6e;" horiz-adv-x="874" 
d="M258 650q8 3 13 -5l117 -217q5 -10 -5 -15l-68 -33q-10 -5 -15 5l-43 85q-14 -27 -21.5 -59t-7.5 -69q0 -55 17 -99t48.5 -75.5t75.5 -48.5t99 -17t100 17.5t76.5 49.5t48.5 76.5t17 99.5q0 69 -21.5 118.5t-66.5 87.5q-8 9 0 17l68 58q7 6 13 0q59 -48 91.5 -120.5
t32.5 -162.5q0 -80 -26 -145.5t-73.5 -112t-113 -72t-145.5 -25.5q-79 0 -145 25.5t-113.5 72t-73.5 112.5t-26 146q0 47 10 88.5t27 77.5l-87 -34q-10 -5 -14 5l-28 65q-5 10 5 14z" />
    <glyph glyph-name="uni2B6F" unicode="&#x2b6f;" horiz-adv-x="874" 
d="M184 632q6 5 13 -2l63 -61q7 -9 -2 -16q-50 -39 -71.5 -89t-21.5 -119q0 -55 17 -99.5t48.5 -76.5t76 -49.5t99.5 -17.5t99.5 17t76 48.5t48.5 76.5t17 101q0 35 -8 66.5t-22 58.5l-43 -85q-5 -10 -14 -5l-69 33q-10 5 -5 15l118 217q3 8 13 5l233 -90q10 -3 6 -14
l-29 -65q-4 -10 -14 -5l-87 34q18 -36 28 -77.5t10 -88.5q0 -80 -26.5 -146t-73.5 -112.5t-113 -72t-145 -25.5t-145.5 25.5t-113.5 72t-73.5 112.5t-26.5 146q0 90 35 163.5t102 124.5z" />
    <glyph glyph-name="uniE000" unicode="&#xe000;" horiz-adv-x="560" 
d="M47 541q0 51 17.5 94t48.5 74t73.5 48.5t92.5 17.5q51 0 94 -17.5t74 -48.5t48.5 -74t17.5 -94q0 -50 -17.5 -92.5t-48.5 -73.5t-74 -48.5t-94 -17.5q-50 0 -92.5 17.5t-73.5 48.5t-48.5 73.5t-17.5 92.5zM83 541q0 -43 14.5 -79t40.5 -62.5t62 -41.5t79 -15
q44 0 80.5 15t62.5 41.5t40 62.5t14 79t-14 79.5t-40 62.5t-62.5 41t-80.5 15q-43 0 -79 -15t-62 -41t-40.5 -62.5t-14.5 -79.5zM336 609v-60h59v-61h-59v-59h-61v59h-61v-59h-60v180h60v-60h61v120h120v-60h-59z" />
    <glyph glyph-name="uniE001" unicode="&#xe001;" horiz-adv-x="652" 
d="M325 740q52 0 98.5 -17t81.5 -50.5t55.5 -83.5t20.5 -116q0 -68 -20 -133.5t-52.5 -126.5t-73.5 -117.5t-84 -106.5q-3 -4 -8 -4h-34q-5 0 -8 4q-42 50 -83.5 106.5t-73.5 117.5t-52 126.5t-20 133.5q0 66 20.5 116t55 83.5t80.5 50.5t97 17zM325 629q-60 0 -95 -37.5
t-35 -97.5q0 -59 35 -96.5t95 -37.5t95 37.5t35 96.5q0 60 -35 97.5t-95 37.5z" />
    <glyph glyph-name="uniE007" unicode="&#xe007;" horiz-adv-x="859" 
d="M430 727q81 0 151 -29t121.5 -80.5t80.5 -121.5t29 -151t-29 -151t-80.5 -121t-121.5 -80.5t-151 -29.5t-151 29.5t-121.5 80.5t-81 121t-29.5 151t29.5 151t81 121.5t121.5 80.5t151 29zM430 658q-67 0 -124.5 -24.5t-99 -67t-65 -99.5t-23.5 -122t23.5 -122t65 -99.5
t99 -67t124.5 -24.5t124 24.5t98.5 67t65 99.5t23.5 122t-23.5 122t-65 99.5t-98.5 67t-124 24.5zM312 485q24 0 40 -16t16 -40t-16 -39.5t-40 -15.5t-40 15.5t-16 39.5t16 40t40 16zM546 485q23 0 39.5 -16t16.5 -40t-16.5 -39.5t-39.5 -15.5q-24 0 -40.5 15.5t-16.5 39.5
t16.5 40t40.5 16zM291 199q-11 0 -11 11v40q0 10 11 10h277q11 0 11 -10v-40q0 -11 -11 -11h-277z" />
    <glyph glyph-name="s_t" unicode="&#xfb06;" horiz-adv-x="870" 
d="M441 700q116 0 182 -57t66 -166v-37h124q11 0 11 -11v-85q0 -11 -11 -11h-123v-169q0 -35 11.5 -49.5t35.5 -14.5q17 0 33.5 4.5t32.5 12.5q11 5 15 -6l32 -78q4 -8 -5 -14q-29 -14 -62 -22.5t-68 -8.5q-154 0 -154 162v183h-70q-10 0 -10 11v85q0 11 10 11h75v26
q0 72 -29 103t-101 31q-70 0 -103 -35t-33 -107v-13q35 -6 65.5 -19.5t54.5 -31.5q7 -6 2 -15l-56 -67q-6 -8 -16 -1q-23 17 -53 29t-60 12q-29 0 -43.5 -9t-14.5 -24q0 -21 18 -32.5t69 -22.5q89 -19 127.5 -50t38.5 -85q0 -31 -14 -57t-39.5 -45t-61.5 -29t-80 -10
q-60 0 -114 16.5t-91 43.5q-7 6 -2 14l44 74q6 9 16 3q30 -22 67 -36.5t76 -14.5q29 0 47.5 11t18.5 27q0 9 -3.5 15.5t-14 12.5t-30 12t-52.5 14q-81 18 -117.5 51t-36.5 86q0 55 39 90.5t107 42.5v10q0 56 17 100t49 75.5t78.5 48t105.5 16.5z" />
    <glyph glyph-name="M.alt" horiz-adv-x="846" 
d="M764 705q10 0 10 -11v-683q0 -11 -10 -11h-119q-11 0 -11 11v387l-180 -238q-6 -6 -13 -6h-37q-7 0 -13 6l-179 237v-386q0 -11 -11 -11h-118q-11 0 -11 11v683q0 11 11 11h35q7 0 12 -7l293 -378l292 378q7 7 13 7h36z" />
    <glyph glyph-name="Jacute" horiz-adv-x="283" 
d="M201 700q11 0 11 -11v-629q0 -120 -58 -179t-174 -61q-11 0 -11 11v105q0 11 11 11q51 2 71.5 27t20.5 86v629q0 11 11 11h118zM154 878q3 5 8 5h125q23 0 9 -17l-90 -112q-3 -4 -8 -4h-102q-19 0 -9 16z" />
    <glyph glyph-name="a.alt" horiz-adv-x="564" 
d="M246 452q51 0 89.5 -22t61.5 -61l17 63q2 8 10 8h78q11 0 11 -11v-418q0 -11 -11 -11h-78q-8 0 -10 8l-17 63q-23 -38 -61.5 -60.5t-91.5 -22.5q-46 0 -84 17t-66 47.5t-43.5 73.5t-15.5 95t15.5 94.5t43 73t66.5 47t86 16.5zM276 339q-54 0 -81 -33.5t-27 -84.5
t27 -85.5t81 -34.5q48 0 78.5 34t30.5 86t-30.5 85t-78.5 33z" />
    <glyph glyph-name="g.alt" horiz-adv-x="564" 
d="M244 452q54 0 92 -22.5t61 -60.5l17 63q2 8 10 8h78q11 0 11 -11v-406q0 -51 -16 -92.5t-47 -71t-75 -46t-101 -16.5q-69 0 -128.5 21.5t-104.5 59.5q-3 2 -3.5 6.5t2.5 7.5l52 71q7 11 16 1q66 -58 161 -58q56 0 87.5 28t29.5 80l-1 45q-24 -31 -59 -47.5t-80 -16.5
q-47 0 -86 16.5t-66.5 46.5t-43 71.5t-15.5 90.5q0 52 15.5 94.5t43.5 73t66 47.5t84 17zM276 339q-54 0 -81 -34t-27 -85t27 -85t81 -34q48 0 78.5 33.5t30.5 85.5t-30.5 85.5t-78.5 33.5z" />
    <glyph glyph-name="r.alt" horiz-adv-x="466" 
d="M52 429q0 11 10 11h78q8 0 10 -8l15 -62q23 38 57 60t79 22q61 0 101.5 -34t51.5 -100q2 -8 -6 -11l-95 -35q-12 -5 -15 7q-9 31 -26 44t-46 13q-45 0 -64.5 -39.5t-19.5 -108.5v-177q0 -11 -10 -11h-110q-10 0 -10 11v418z" />
    </font>
</defs>
</svg>
