<?xml version="1.0" standalone="no"?>
<!DOCTYPE svg PUBLIC "-//W3C//DTD SVG 1.1//EN" "http://www.w3.org/Graphics/SVG/1.1/DTD/svg11.dtd" >
<svg xmlns="http://www.w3.org/2000/svg" xmlns:xlink="http://www.w3.org/1999/xlink" version="1.1">
<metadata>
Created by FontForge 20170731 at Wed Sep 22 08:53:49 2021
 By Aleksey,,,
Copyright (c) 2021 by Hurufatfont Type Foundry-Oguzhan Cengiz. All rights reserved.
</metadata>
<defs>
<font id="Rapor-ExtraBold" horiz-adv-x="645" >
  <font-face 
    font-family="Rapor ExtBd"
    font-weight="800"
    font-stretch="normal"
    units-per-em="1000"
    panose-1="0 0 0 0 0 0 0 0 0 0"
    ascent="800"
    descent="-200"
    x-height="440"
    cap-height="700"
    bbox="-108.333 -224 1100 983"
    underline-thickness="50"
    underline-position="-175"
    unicode-range="U+0002-FB06"
  />
<missing-glyph horiz-adv-x="350" 
d="M350 -200h-350v940h350v-940zM50 690v-840h250v840h-250zM175 588l72 72l33 -33l-72 -72l72 -72l-33 -33l-72 72l-72 -72l-33 33l72 72l-72 72l33 33zM175 308l72 72l33 -33l-72 -72l72 -72l-33 -33l-72 72l-72 -72l-33 33l72 72l-72 72l33 33zM175 18l72 72l33 -33
l-72 -72l72 -72l-33 -33l-72 72l-72 -72l-33 33l72 72l-72 72l33 33z" />
    <glyph glyph-name="f_f" unicode="ff" horiz-adv-x="772" 
d="M724 440q11 0 11 -11v-106q0 -11 -11 -11h-128v-300q0 -12 -12 -12h-146q-12 0 -12 12v300h-163v-300q0 -12 -12 -12h-146q-12 0 -12 12v300h-68q-12 0 -12 11v106q0 11 12 11h68v94q0 48 17 86t47.5 65t74.5 41t98 14q45 0 91 -10.5t85 -30.5q26 20 59.5 30.5t75.5 10.5
q50 0 91.5 -8t82.5 -25q10 -5 5 -16l-45 -103q-5 -11 -16 -6q-21 11 -41 16t-45 5q-39 0 -58 -21.5t-19 -60.5v-81h128zM426 440v90q0 21 5 44q-41 25 -86 25q-82 0 -82 -82v-77h163z" />
    <glyph glyph-name="fi" unicode="fi" horiz-adv-x="644" 
d="M585 440q11 0 11 -11v-417q0 -12 -11 -12h-147q-12 0 -12 12v300h-163v-300q0 -12 -12 -12h-146q-12 0 -12 12v300h-68q-12 0 -12 11v106q0 11 12 11h68v87q0 49 19.5 88.5t54 67t82.5 42.5t104 15q60 0 117.5 -13.5t106.5 -40.5q10 -6 3 -16l-65 -99q-6 -11 -18 -4
q-26 17 -60 25.5t-64 8.5q-54 0 -82 -24.5t-28 -66.5v-70h322z" />
    <glyph glyph-name="fl" unicode="fl" 
d="M346 440q11 0 11 -11v-106q0 -11 -11 -11h-83v-300q0 -12 -12 -12h-146q-12 0 -12 12v300h-68q-12 0 -12 11v106q0 11 12 11h68v87q0 100 64.5 156.5t187.5 56.5q29 0 60 -3t62 -9.5t61 -17t55 -24.5q13 -6 13 -18v-656q0 -12 -12 -12h-146q-12 0 -12 12v573
q-34 14 -70 14q-41 0 -67 -17t-26 -65v-77h83z" />
    <glyph glyph-name="f_f_i" unicode="ffi" horiz-adv-x="976" 
d="M917 440q12 0 12 -11v-417q0 -12 -12 -12h-146q-11 0 -11 12v300h-164v-300q0 -12 -12 -12h-146q-12 0 -12 12v300h-163v-300q0 -12 -12 -12h-146q-12 0 -12 12v300h-68q-12 0 -12 11v106q0 11 12 11h68v87q0 48 18.5 87.5t51.5 67t78.5 43t99.5 15.5q45 0 93.5 -11
t89.5 -33q33 21 73.5 32.5t86.5 11.5q58 0 113 -12.5t105 -41.5q11 -6 4 -16l-59 -99q-5 -11 -17 -4q-26 18 -62 26t-65 8q-54 0 -80.5 -25t-26.5 -66v-70h321zM426 440v79q0 31 9 59q-37 21 -80 21q-42 0 -67 -20t-25 -62v-77h163z" />
    <glyph glyph-name="f_f_l" unicode="ffl" horiz-adv-x="978" 
d="M680 740q59 0 122 -13t117 -42q10 -6 10 -16v-657q0 -12 -12 -12h-146q-11 0 -11 12v572q-36 15 -69 15q-41 0 -68 -17.5t-27 -64.5v-77h83q11 0 11 -11v-106q0 -11 -11 -11h-83v-300q0 -12 -12 -12h-146q-12 0 -12 12v300h-163v-300q0 -12 -12 -12h-146q-12 0 -12 12
v300h-68q-12 0 -12 11v106q0 11 12 11h68v94q0 48 17.5 86t49 65t76.5 41t99 14q44 0 90.5 -11t86.5 -32q66 43 168 43zM426 440v87q0 25 6 49q-40 23 -82 23t-64.5 -20t-22.5 -62v-77h163z" />
    <glyph glyph-name="Th.dlig" unicode="Th" horiz-adv-x="1109" 
d="M23 689q0 11 12 11h570v29q0 11 11 11h146q12 0 12 -11v-329q26 24 59.5 38t72.5 14q75 0 116.5 -49.5t41.5 -136.5v-254q0 -12 -12 -12h-146q-12 0 -12 12v223q0 13 -2.5 26t-9 23t-17 16.5t-26.5 6.5q-33 0 -49 -23t-16 -54v-218q0 -12 -12 -12h-146q-11 0 -11 12v519
h-207v-519q0 -12 -12 -12h-160q-11 0 -11 12v519h-180q-12 0 -12 11v147z" />
    <glyph glyph-name="f_j" unicode="fj" horiz-adv-x="644" 
d="M585 440q11 0 11 -11v-394q-1 -110 -50 -166t-155 -59q-12 0 -12 11v137q0 10 12 12q21 3 28 16t7 36v290h-163v-300q0 -12 -12 -12h-146q-12 0 -12 12v300h-68q-12 0 -12 11v106q0 11 12 11h68v87q0 49 19.5 88.5t54 67t82.5 42.5t104 15q60 0 117.5 -13.5t106.5 -40.5
q10 -6 3 -16l-65 -99q-6 -11 -18 -4q-26 17 -60 25.5t-64 8.5q-54 0 -82 -24.5t-28 -66.5v-70h322z" />
    <glyph glyph-name="f_f_j" unicode="ffj" horiz-adv-x="976" 
d="M105 0q-12 0 -12 12v300h-68q-12 0 -12 11v106q0 11 12 11h68v87q0 48 18.5 87.5t51.5 67t78.5 43t99.5 15.5q45 0 93.5 -11t89.5 -33q33 21 73.5 32.5t86.5 11.5q58 0 113 -12.5t105 -41.5q11 -6 4 -16l-59 -99q-5 -11 -17 -4q-26 18 -62 26t-65 8q-54 0 -80.5 -25
t-26.5 -66v-70h321q12 0 12 -11v-394q0 -110 -49.5 -166t-155.5 -59q-12 0 -12 11v137q0 10 12 12q21 3 28.5 16t7.5 36v290h-164v-300q0 -12 -12 -12h-146q-12 0 -12 12v300h-163v-300q0 -12 -12 -12h-146zM426 440v79q0 31 9 59q-37 21 -80 21q-42 0 -67 -20t-25 -62v-77
h163z" />
    <glyph glyph-name=".notdef" horiz-adv-x="350" 
d="M350 -200h-350v940h350v-940zM50 690v-840h250v840h-250zM175 588l72 72l33 -33l-72 -72l72 -72l-33 -33l-72 72l-72 -72l-33 33l72 72l-72 72l33 33zM175 308l72 72l33 -33l-72 -72l72 -72l-33 -33l-72 72l-72 -72l-33 33l72 72l-72 72l33 33zM175 18l72 72l33 -33
l-72 -72l72 -72l-33 -33l-72 72l-72 -72l-33 33l72 72l-72 72l33 33z" />
    <glyph glyph-name=".null" horiz-adv-x="500" 
 />
    <glyph glyph-name=".null" horiz-adv-x="500" 
 />
    <glyph glyph-name="uni000D" horiz-adv-x="500" 
 />
    <glyph glyph-name="uni0002" horiz-adv-x="333" 
 />
    <glyph glyph-name="uni0009" unicode="&#x9;" horiz-adv-x="80" 
 />
    <glyph glyph-name="uni000A" unicode="&#xa;" horiz-adv-x="333" 
 />
    <glyph glyph-name="uni000D.1" unicode="&#xd;" horiz-adv-x="333" 
 />
    <glyph glyph-name="space" unicode=" " horiz-adv-x="240" 
 />
    <glyph glyph-name="exclam" unicode="!" horiz-adv-x="323" 
d="M231 254q0 -10 -11 -10h-118q-9 0 -11 10l-25 243v192q0 11 12 11h167q12 0 12 -11v-192zM162 177q43 0 69.5 -25.5t26.5 -69.5t-26.5 -69t-69.5 -25t-70 25t-27 69t27 69.5t70 25.5z" />
    <glyph glyph-name="quotedbl" unicode="&#x22;" horiz-adv-x="467" 
d="M186 389q-2 -10 -12 -10h-96q-10 0 -12 10l-19 299q-2 12 11 12h137q13 0 11 -12zM400 389q-2 -10 -12 -10h-96q-10 0 -12 10l-19 299q-2 12 11 12h137q13 0 11 -12z" />
    <glyph glyph-name="numbersign" unicode="#" horiz-adv-x="728" 
d="M360 0q-13 0 -10 14l33 136h-137l-35 -141q-2 -9 -11 -9h-99q-13 0 -10 14l33 136h-51q-11 0 -11 11v104q0 12 11 12h83l34 137h-69q-11 0 -11 12v104q0 11 11 11h101l37 150q2 9 10 9h99q16 0 11 -14l-35 -145h137l37 150q2 9 10 9h99q16 0 11 -14l-35 -145h52
q12 0 12 -11v-104q0 -12 -12 -12h-84l-34 -137h71q11 0 11 -12v-104q0 -11 -11 -11h-103l-35 -141q-2 -9 -11 -9h-99zM415 277l34 137h-137l-34 -137h137z" />
    <glyph glyph-name="dollar" unicode="$" horiz-adv-x="598" 
d="M465 491q-9 -9 -16 -2q-32 25 -65.5 37.5t-71.5 12.5q-72 0 -72 -45q0 -11 4.5 -19.5t17 -16t36 -15.5t60.5 -19q56 -16 95.5 -36t64.5 -45.5t37 -57.5t12 -72q0 -84 -49.5 -137.5t-141.5 -70.5v-131q0 -12 -11 -12h-119q-11 0 -11 12v128q-109 15 -212 81q-9 5 -2 16
l80 123q6 11 17 4q84 -61 181 -61q80 0 80 43q0 11 -4 19t-15 15t-30 14.5t-50 17.5q-63 21 -107 43.5t-71.5 49t-40 58.5t-12.5 72q0 80 48.5 131.5t137.5 66.5v114q0 11 11 11h119q11 0 11 -11v-114q103 -18 177 -85q9 -8 0 -17z" />
    <glyph glyph-name="percent" unicode="%" horiz-adv-x="684" 
d="M179 700q34 0 63.5 -11.5t51.5 -32.5t34.5 -49.5t12.5 -62.5t-12.5 -62.5t-34.5 -49.5t-51.5 -32.5t-63.5 -11.5t-64 11.5t-52 32.5t-34.5 49.5t-12.5 62.5t12.5 62.5t34.5 49.5t52 32.5t64 11.5zM644 604q8 -8 0 -16l-551 -552q-7 -9 -16 0l-47 47q-8 8 0 16l550 552
q8 8 17 0zM179 600q-25 0 -39.5 -15t-14.5 -41t14.5 -41t39.5 -15t39 15.5t14 40.5t-14 40.5t-39 15.5zM504 300q34 0 64 -11.5t52 -32.5t34.5 -49.5t12.5 -62.5t-12.5 -62.5t-34.5 -49.5t-51.5 -32.5t-64.5 -11.5q-34 0 -64 11.5t-52 32.5t-34.5 49.5t-12.5 62.5t12.5 62.5
t34.5 49.5t52 32.5t64 11.5zM504 200q-24 0 -39 -15t-15 -41t15 -40.5t39 -14.5q25 0 39 15t14 40t-14 40.5t-39 15.5z" />
    <glyph glyph-name="ampersand" unicode="&#x26;" horiz-adv-x="685" 
d="M633 326q12 -2 10 -13q-10 -77 -38 -132l71 -60q11 -9 2 -16l-91 -108q-4 -3 -8.5 -3.5t-7.5 3.5l-67 61q-38 -33 -91 -51t-116 -18q-131 0 -199.5 53t-68.5 151q0 62 30.5 110t87.5 80q-26 32 -38 67t-12 71q0 88 60.5 139t169.5 51q52 0 95 -13t73.5 -36.5t47.5 -56.5
t17 -73q0 -35 -11.5 -64.5t-32.5 -52t-50 -38.5t-63 -25l83 -73q5 14 7 27.5t4 29.5q1 12 14 10zM304 435q42 4 68 21.5t26 49.5q0 30 -17.5 44.5t-46.5 14.5q-32 0 -49.5 -17t-17.5 -46q0 -17 9 -32.5t28 -34.5zM251 286q-23 -16 -31.5 -34t-8.5 -41q0 -38 25.5 -58
t73.5 -20q26 0 46.5 7t34.5 19z" />
    <glyph glyph-name="quotesingle" unicode="'" horiz-adv-x="252" 
d="M185 389q-2 -10 -11 -10h-96q-10 0 -12 10l-19 299q-2 12 11 12h136q14 0 12 -12z" />
    <glyph glyph-name="parenleft" unicode="(" horiz-adv-x="339" 
d="M174 735q3 5 9 5h133q5 0 6 -3t-1 -5q-76 -103 -106 -218.5t-30 -234.5q0 -59 7 -119.5t23 -119t42 -115t64 -107.5q2 -2 1 -5t-6 -3h-133q-6 0 -9 5q-65 106 -100 226.5t-35 237.5t35 233.5t100 222.5z" />
    <glyph glyph-name="parenright" unicode=")" horiz-adv-x="339" 
d="M157 740q6 0 9 -5q65 -106 100 -224t35 -236q0 -117 -35 -235.5t-100 -224.5q-3 -5 -9 -5h-133q-5 0 -6 3t1 5q38 51 64 107t42 114t23 117.5t7 118.5t-7 118.5t-23 117.5t-42 114t-64 107q-2 2 -1 5t6 3h133z" />
    <glyph glyph-name="asterisk" unicode="*" horiz-adv-x="446" 
d="M271 740q13 0 11 -13l-14 -94l83 46q11 6 17 -7l32 -80q4 -11 -8 -15l-98 -21l66 -67q8 -10 -2 -17l-74 -53q-5 -4 -9.5 -3t-6.5 6l-43 80l-44 -79q-5 -11 -17 -4l-73 54q-11 8 -2 17l66 66l-98 21q-12 4 -8 15l31 80q5 14 17 7l83 -46l-14 94q-2 13 11 13h94z" />
    <glyph glyph-name="plus" unicode="+" horiz-adv-x="593" 
d="M363 524q11 0 11 -11v-160h161q11 0 11 -12v-130q0 -12 -11 -12h-161v-160q0 -11 -11 -11h-132q-11 0 -11 11v160h-160q-12 0 -12 12v130q0 12 12 12h160v160q0 11 11 11h132z" />
    <glyph glyph-name="comma" unicode="," horiz-adv-x="312" 
d="M153 201q54 0 84 -34t30 -88q0 -37 -8 -73.5t-21 -70.5t-30.5 -65t-36.5 -56q-6 -6 -14 -3l-77 37q-13 7 -5 18q25 33 39.5 66t19.5 68q-41 6 -65.5 29t-24.5 68t30.5 74.5t78.5 29.5z" />
    <glyph glyph-name="hyphen" unicode="-" horiz-adv-x="407" 
d="M46 330q0 12 11 12h293q11 0 11 -12v-112q0 -12 -11 -12h-293q-11 0 -11 12v112z" />
    <glyph glyph-name="period" unicode="." horiz-adv-x="306" 
d="M153 203q48 0 77.5 -29.5t29.5 -77.5t-29.5 -78t-77.5 -30t-77.5 30t-29.5 78t29.5 77.5t77.5 29.5z" />
    <glyph glyph-name="slash" unicode="/" horiz-adv-x="522" 
d="M488 740q16 0 10 -16l-342 -758q-4 -6 -10 -6h-112q-16 0 -10 16l342 758q4 6 10 6h112z" />
    <glyph glyph-name="zero" unicode="0" horiz-adv-x="650" 
d="M324 700q77 0 131.5 -27.5t89 -75.5t51 -113t16.5 -139q0 -75 -16.5 -140t-51 -113t-89 -76t-131.5 -28q-76 0 -130.5 27.5t-88.5 76t-50 113.5t-16 140t16 139.5t50 112.5t88.5 75.5t130.5 27.5zM325 525q-26 0 -45.5 -9t-32 -30t-19 -55.5t-6.5 -85.5q0 -52 6.5 -87
t19 -56t32 -30t45.5 -9t45.5 9t32.5 30t19 56t6 87q0 51 -6 85.5t-19 55.5t-32.5 30t-45.5 9z" />
    <glyph glyph-name="one" unicode="1" horiz-adv-x="430" 
d="M356 688q12 0 12 -11v-665q0 -12 -12 -12h-146q-11 0 -11 12v475l-104 -43q-12 -5 -15 7l-46 134q-2 5 0 9t7 6l239 82q7 2 16 4t16 2h44z" />
    <glyph glyph-name="two" unicode="2" horiz-adv-x="560" 
d="M164 461q-5 -11 -16 -6l-119 52q-10 3 -6 14q33 85 100 133t156 48q116 0 181.5 -55.5t65.5 -150.5q0 -28 -6 -53t-19.5 -51.5t-35 -55t-52.5 -64.5l-91 -105h192q12 0 12 -11v-144q0 -12 -12 -12h-474q-11 0 -11 12v55q0 4 3 7l248 290q34 41 49.5 67t15.5 52t-17 43.5
t-52 17.5q-37 0 -64.5 -21.5t-47.5 -61.5z" />
    <glyph glyph-name="three" unicode="3" horiz-adv-x="592" 
d="M226 281q-11 0 -11 11v113q0 12 11 12h58q37 0 60 16t23 49q0 30 -19.5 46.5t-53.5 16.5q-39 0 -66.5 -21t-44.5 -59q-5 -9 -15 -6l-124 48q-10 4 -7 14q30 86 99.5 133.5t167.5 47.5q119 0 181.5 -48.5t62.5 -133.5q0 -59 -29.5 -102.5t-80.5 -62.5q59 -23 87 -63.5
t28 -96.5q0 -46 -18.5 -84t-52 -65.5t-80.5 -42.5t-104 -15q-101 0 -170.5 46t-99.5 133q-3 10 6 14l125 51q11 5 16 -6q17 -42 44 -61.5t69 -19.5t63 17.5t21 49.5q0 69 -88 69h-58z" />
    <glyph glyph-name="four" unicode="4" horiz-adv-x="612" 
d="M593 120q0 -11 -11 -11h-64v-97q0 -12 -12 -12h-146q-12 0 -12 12v97h-315q-11 0 -11 11v49q0 9 3 18l211 496q4 7 11 7h165q18 0 11 -16l-184 -405h109v111q0 12 12 12h146q12 0 12 -12v-111h64q11 0 11 -12v-137z" />
    <glyph glyph-name="five" unicode="5" horiz-adv-x="580" 
d="M509 531q0 -12 -12 -12h-256l-5 -76h59q57 0 103.5 -13.5t79 -40.5t50 -68t17.5 -97q0 -46 -16.5 -88.5t-47 -75.5t-75.5 -52.5t-102 -19.5q-208 0 -266 179q-3 10 6 14l122 50q11 5 16 -8q25 -77 102 -77q82 0 82 74q0 33 -19.5 53t-67.5 20h-208q-14 0 -12 13l28 372
q2 11 12 11h398q12 0 12 -12v-146z" />
    <glyph glyph-name="six" unicode="6" horiz-adv-x="602" 
d="M447 688q20 0 9 -18l-151 -232q26 8 50 8q45 0 83 -15.5t66 -43t44 -66.5t16 -86q0 -60 -20 -106t-55.5 -77.5t-84 -47.5t-105.5 -16q-59 0 -107 15t-82 45t-52.5 73.5t-18.5 100.5q0 44 14 88.5t37 83.5l174 288q3 6 10 6h173zM301 313q-40 0 -60.5 -22t-20.5 -60
t19.5 -58t61.5 -20q38 0 59.5 20.5t21.5 57.5q0 42 -19.5 62t-61.5 20z" />
    <glyph glyph-name="seven" unicode="7" horiz-adv-x="521" 
d="M35 519q-11 0 -11 11v147q0 11 11 11h450q12 0 12 -11v-47q0 -6 -2 -14.5t-4 -15.5l-209 -592q-3 -8 -11 -8h-171q-17 0 -11 16l193 503h-247z" />
    <glyph glyph-name="eight" unicode="8" horiz-adv-x="596" 
d="M299 702q54 0 97.5 -13t74 -37t47.5 -58t17 -76q0 -50 -25 -95t-76 -67q65 -24 94.5 -71t29.5 -102q0 -89 -64 -142t-195 -53q-66 0 -114.5 14t-81 39.5t-48.5 61.5t-16 80q0 55 29.5 102t95.5 71q-51 22 -76.5 67t-25.5 95q0 42 17 76t47.5 58t74.5 37t98 13zM299 549
q-32 0 -48 -16t-16 -44t15 -44.5t49 -16.5t48.5 16.5t14.5 44.5t-16 44t-47 16zM299 288q-42 0 -60 -19t-18 -51q0 -30 17.5 -49t60.5 -19q42 0 60 19t18 49q0 32 -18 51t-60 19z" />
    <glyph glyph-name="nine" unicode="9" horiz-adv-x="602" 
d="M302 700q59 0 107.5 -15t83 -45t53 -73.5t18.5 -100.5q0 -43 -14 -87.5t-38 -84.5l-174 -288q-3 -6 -9 -6h-173q-21 0 -10 18l152 232q-26 -8 -51 -8q-45 0 -83 15.5t-65.5 43.5t-43.5 67t-16 86q0 59 20 105t55 77.5t83 47.5t105 16zM302 535q-39 0 -60.5 -20.5
t-21.5 -57.5q0 -82 82 -82q39 0 59.5 22t20.5 60t-19.5 58t-60.5 20z" />
    <glyph glyph-name="colon" unicode=":" horiz-adv-x="285" 
d="M144 451q43 0 69.5 -25.5t26.5 -69.5t-26.5 -69t-69.5 -25t-70.5 25t-27.5 69t27.5 69.5t70.5 25.5zM144 178q43 0 69.5 -25.5t26.5 -69.5t-26.5 -69.5t-69.5 -25.5t-70.5 25.5t-27.5 69.5t27.5 69.5t70.5 25.5z" />
    <glyph glyph-name="semicolon" unicode=";" horiz-adv-x="274" 
d="M124 451q43 0 69.5 -25.5t26.5 -69.5t-26.5 -69t-69.5 -25t-70.5 25t-27.5 69t27.5 69.5t70.5 25.5zM126 182q44 0 73 -29.5t29 -77.5q0 -74 -29 -141.5t-74 -119.5q-5 -7 -14 -2l-56 35q-12 7 -2 18q29 31 46.5 63.5t22.5 68.5q-42 -2 -69 23t-27 67q0 44 27.5 69.5
t72.5 25.5z" />
    <glyph glyph-name="less" unicode="&#x3c;" horiz-adv-x="606" 
d="M559 458q0 -8 -8 -11l-250 -98l251 -103q7 -3 7 -11v-167q0 -19 -17 -11l-488 251q-6 4 -6 10v57q0 6 6 10l488 251q8 5 12.5 1.5t4.5 -12.5v-167z" />
    <glyph glyph-name="equal" unicode="=" horiz-adv-x="556" 
d="M508 312q0 -12 -12 -12h-437q-11 0 -11 12v127q0 12 11 12h437q12 0 12 -12v-127zM508 71q0 -11 -12 -11h-437q-11 0 -11 11v128q0 11 11 11h437q12 0 12 -11v-128z" />
    <glyph glyph-name="greater" unicode="&#x3e;" horiz-adv-x="606" 
d="M55 447q-7 4 -7 11v167q0 9 4.5 12.5t12.5 -1.5l488 -251q6 -4 6 -10v-57q0 -6 -6 -10l-488 -251q-17 -8 -17 11v167q0 8 7 11l250 103z" />
    <glyph glyph-name="question" unicode="?" horiz-adv-x="524" 
d="M343 255q0 -11 -12 -11h-125q-11 0 -11 11q1 48 17.5 89t53.5 73q15 13 27 22.5t20.5 19t13 20t4.5 24.5q0 26 -15.5 41t-49.5 15t-62.5 -20t-48.5 -58q-5 -10 -15 -6l-115 52q-10 3 -6 14q16 42 43 73.5t61.5 53.5t74.5 33t83 11q49 0 90.5 -11.5t71.5 -33.5t47 -54.5
t17 -74.5q0 -33 -8.5 -58.5t-23 -46.5t-33.5 -38t-40 -32q-29 -22 -43 -48t-16 -60zM266 177q43 0 69 -25.5t26 -69.5t-26 -69t-69 -25t-70.5 25t-27.5 69t27.5 69.5t70.5 25.5z" />
    <glyph glyph-name="at" unicode="@" horiz-adv-x="875" 
d="M636 409q16 0 12 -14l-53 -261q-7 -34 4 -54.5t40 -20.5t50 22.5t34 55.5t19 71.5t6 70.5q0 57 -18.5 107t-54.5 87t-89.5 58.5t-124.5 21.5q-73 0 -132 -23t-102 -65t-67.5 -100.5t-29.5 -128.5q-8 -129 55.5 -205.5t193.5 -80.5q13 0 11 -14l-10 -62q-1 -9 -11 -9
q-80 1 -143 28.5t-105.5 75.5t-63 114.5t-16.5 146.5q4 90 36 164.5t87 128t130 83t166 29.5q89 0 159 -28.5t118.5 -78t74 -117t25.5 -145.5q0 -54 -12.5 -107t-38.5 -94.5t-65.5 -67.5t-93.5 -26q-73 0 -106.5 48t-20.5 125q-20 -33 -55 -51t-80 -18q-36 0 -63.5 14
t-44 38.5t-22 57.5t2.5 71q7 37 23.5 67.5t40 52t52 33t60.5 11.5q30 0 57 -12.5t41 -38.5l12 33q4 7 11 7h101zM439 305q-26 0 -41.5 -16t-20.5 -41q-6 -26 3.5 -42t36.5 -16q26 0 42 15t21 41q5 28 -5 43.5t-36 15.5z" />
    <glyph glyph-name="A" unicode="A" horiz-adv-x="764" 
d="M410 705q7 0 10 -7l321 -682q7 -16 -11 -16h-176q-7 0 -11 7l-42 101h-238l-42 -101q-3 -7 -11 -7h-176q-18 0 -11 16l321 682q4 7 10 7h56zM446 254l-63 158l-64 -158h127z" />
    <glyph glyph-name="B" unicode="B" horiz-adv-x="682" 
d="M62 689q0 11 11 11h310q238 0 238 -182q0 -45 -21.5 -85t-66.5 -66q54 -21 83 -64.5t29 -97.5q0 -96 -62 -150.5t-182 -54.5h-328q-11 0 -11 12v677zM244 426h115q73 0 73 58q0 27 -16 41t-56 14h-116v-113zM244 161h139q41 0 57.5 15.5t16.5 43.5q0 61 -78 61h-135v-120
z" />
    <glyph glyph-name="C" unicode="C" horiz-adv-x="737" 
d="M704 546q7 -10 -5 -15l-135 -65q-9 -4 -15 5q-23 38 -60 56.5t-85 18.5q-81 0 -129 -51t-48 -145q0 -95 48.5 -145.5t129.5 -50.5q49 0 86.5 20t60.5 59q5 11 15 6l139 -58q11 -5 5 -14q-39 -86 -120.5 -132.5t-190.5 -46.5q-81 0 -147.5 26t-114 73t-73.5 114t-26 149
t26 148.5t73.5 114t114 73.5t147.5 26q105 0 184.5 -43t119.5 -123z" />
    <glyph glyph-name="D" unicode="D" horiz-adv-x="751" 
d="M62 689q0 11 12 11h273q89 0 157.5 -26.5t115 -73t70 -109.5t23.5 -137q0 -75 -23.5 -140t-70 -112.5t-115 -74.5t-157.5 -27h-273q-12 0 -12 12v677zM245 166h104q47 0 80 14.5t54 40t31 59.5t10 74q0 39 -10 72t-31 57t-54 37.5t-80 13.5h-104v-368z" />
    <glyph glyph-name="E" unicode="E" horiz-adv-x="589" 
d="M62 689q0 11 12 11h458q11 0 11 -11v-143q0 -12 -11 -12h-287v-104h246q11 0 11 -11v-134q0 -12 -11 -12h-246v-107h292q11 0 11 -11v-143q0 -12 -11 -12h-463q-12 0 -12 12v677z" />
    <glyph glyph-name="F" unicode="F" horiz-adv-x="572" 
d="M519 253q0 -11 -12 -11h-263v-230q0 -12 -11 -12h-160q-11 0 -11 12v677q0 11 11 11h445q12 0 12 -11v-143q0 -12 -12 -12h-274v-140h263q12 0 12 -11v-130z" />
    <glyph glyph-name="G" unicode="G" horiz-adv-x="808" 
d="M422 263q-12 0 -12 12v114q0 11 12 11h334q10 0 10 -9q2 -15 3 -28.5t1 -26.5q0 -78 -25.5 -142t-72 -110t-112 -71t-145.5 -25q-85 0 -154.5 26t-119 73t-76 114t-26.5 149q0 81 26.5 148t74.5 114.5t115.5 73.5t149.5 26q108 0 192.5 -42.5t125.5 -123.5q4 -10 -5 -16
l-137 -65q-10 -4 -16 6q-22 37 -61 56t-90 19q-88 0 -137.5 -53t-49.5 -147q0 -93 49.5 -145t142.5 -52q63 0 106.5 31.5t51.5 82.5h-155z" />
    <glyph glyph-name="H" unicode="H" horiz-adv-x="725" 
d="M652 700q11 0 11 -11v-677q0 -12 -11 -12h-160q-12 0 -12 12v248h-235v-248q0 -12 -12 -12h-160q-11 0 -11 12v677q0 11 11 11h160q12 0 12 -11v-260h235v260q0 11 12 11h160z" />
    <glyph glyph-name="I" unicode="I" horiz-adv-x="304" 
d="M232 700q11 0 11 -11v-677q0 -12 -11 -12h-158q-12 0 -12 12v677q0 11 12 11h158z" />
    <glyph glyph-name="J" unicode="J" horiz-adv-x="304" 
d="M232 700q11 0 11 -11v-616q0 -64 -18.5 -111t-53 -78t-83.5 -47t-109 -17q-12 0 -12 11v139q0 11 12 11q42 2 62.5 22.5t20.5 69.5v616q0 11 12 11h158z" />
    <glyph glyph-name="K" unicode="K" horiz-adv-x="712" 
d="M62 689q0 11 12 11h159q12 0 12 -11v-286l238 289q6 8 17 8h189q11 0 13.5 -5.5t-5.5 -13.5l-271 -308l279 -354q7 -8 4.5 -13.5t-13.5 -5.5h-205q-10 0 -15 8l-231 312v-308q0 -12 -12 -12h-159q-12 0 -12 12v677z" />
    <glyph glyph-name="L" unicode="L" horiz-adv-x="579" 
d="M233 700q12 0 12 -11v-520h292q11 0 11 -11v-146q0 -12 -11 -12h-463q-12 0 -12 12v677q0 11 12 11h159z" />
    <glyph glyph-name="M" unicode="M" horiz-adv-x="925" 
d="M741 703q9 0 11 -9l140 -680q4 -14 -10 -14h-163q-9 0 -11 10l-57 311l-152 -299q-3 -7 -9 -7h-55q-5 0 -9 7l-152 299l-57 -311q-2 -10 -11 -10h-163q-13 0 -10 14l140 680q2 9 11 9h55q6 0 10 -6l214 -412l213 412q4 6 10 6h55z" />
    <glyph glyph-name="N" unicode="N" horiz-adv-x="742" 
d="M670 700q11 0 11 -11v-682q0 -12 -11 -12h-52q-8 0 -13 5l-362 372v-360q0 -12 -11 -12h-158q-12 0 -12 12v682q0 11 12 11h49q9 0 16 -7l361 -371v362q0 11 11 11h159z" />
    <glyph glyph-name="O" unicode="O" horiz-adv-x="810" 
d="M406 712q80 0 147.5 -25.5t116 -73t75.5 -114t27 -149.5t-27 -150t-75.5 -114t-116 -72.5t-147.5 -25.5t-147.5 25.5t-116 72.5t-76 114t-27.5 150t27.5 149.5t76 114t116 73t147.5 25.5zM406 546q-84 0 -131.5 -53t-47.5 -143t47.5 -143t131.5 -53t131 53t47 143
t-47 143t-131 53z" />
    <glyph glyph-name="P" unicode="P" horiz-adv-x="639" 
d="M62 689q0 11 11 11h279q127 0 198 -65.5t71 -181.5q0 -117 -70.5 -182.5t-198.5 -65.5h-108v-193q0 -12 -11 -12h-160q-11 0 -11 12v677zM244 371h93q46 0 70.5 19t24.5 64q0 43 -24 61.5t-71 18.5h-93v-163z" />
    <glyph glyph-name="Q" unicode="Q" horiz-adv-x="811" 
d="M405 712q80 0 147.5 -25.5t116.5 -73t76 -114t27 -149.5q0 -66 -18 -122.5t-50.5 -101t-78.5 -75.5t-102 -47l94 -167q10 -17 -10 -17h-178q-6 0 -10 6l-82 167q-66 10 -121 39.5t-94.5 75.5t-61 107.5t-21.5 134.5q0 83 27 149.5t76 114t116 73t147 25.5zM405 547
q-86 0 -129 -54t-43 -143q0 -45 10.5 -82t32 -63.5t54 -41.5t75.5 -15q44 0 76 15t54 41.5t32.5 63.5t10.5 82q0 89 -43 143t-130 54z" />
    <glyph glyph-name="R" unicode="R" horiz-adv-x="672" 
d="M245 12q0 -12 -12 -12h-159q-12 0 -12 12v677q0 11 12 11h279q125 0 196.5 -60.5t71.5 -178.5q0 -42 -11.5 -76.5t-31 -61.5t-45.5 -45.5t-55 -28.5l132 -231q10 -18 -10 -18h-195q-5 0 -9 6l-96 206h-55v-200zM245 365h96q92 0 92 88q0 81 -95 81h-93v-169z" />
    <glyph glyph-name="S" unicode="S" horiz-adv-x="593" 
d="M445 508q-9 -10 -17 -2q-29 24 -60.5 35t-66.5 11q-39 0 -54 -14t-15 -32q0 -13 5.5 -23t19.5 -19t37 -18.5t57 -21.5q47 -16 86 -34.5t67 -42.5t43 -56.5t15 -77.5q0 -105 -72 -165t-202 -60q-74 0 -140.5 21.5t-124.5 70.5q-9 7 -2 16l95 116q8 10 17 1
q38 -36 76.5 -50t83.5 -14t62 16t17 36q0 13 -5 22t-16 16.5t-28.5 14t-43.5 15.5q-61 20 -105 42t-73 49t-43 62t-14 80q0 50 19 89t52.5 66t79.5 41t100 14q66 0 126 -14t118 -59q9 -8 1 -16z" />
    <glyph glyph-name="T" unicode="T" horiz-adv-x="613" 
d="M24 689q0 11 11 11h543q12 0 12 -11v-147q0 -11 -12 -11h-180v-519q0 -12 -11 -12h-160q-12 0 -12 12v519h-180q-11 0 -11 11v147z" />
    <glyph glyph-name="U" unicode="U" horiz-adv-x="699" 
d="M630 700q12 0 12 -11v-427q0 -130 -76.5 -202t-215.5 -72t-215.5 72t-76.5 202v427q0 11 12 11h159q12 0 12 -11v-409q0 -56 26 -89.5t83 -33.5t83 33.5t26 89.5v409q0 11 12 11h159z" />
    <glyph glyph-name="V" unicode="V" horiz-adv-x="738" 
d="M715 700q8 0 10.5 -4.5t-1.5 -11.5l-317 -682q-3 -7 -10 -7h-55q-7 0 -11 7l-317 682q-7 16 9 16h181q8 0 11 -7l157 -386l151 386q4 7 11 7h181z" />
    <glyph glyph-name="W" unicode="W" horiz-adv-x="1080" 
d="M1046 700q15 0 8 -15l-255 -682q-2 -8 -10 -8h-55q-7 0 -11 7l-183 392l-182 -392q-3 -7 -11 -7h-55q-8 0 -11 8l-255 682q-5 15 8 15h176q8 0 11 -8l121 -367l161 358q3 6 11 6h52q8 0 11 -6l161 -358l121 367q3 8 11 8h176z" />
    <glyph glyph-name="X" unicode="X" horiz-adv-x="714" 
d="M679 700q21 0 9 -17l-214 -334l218 -331q5 -8 3 -13t-10 -5h-184q-6 0 -9 6l-135 223l-135 -223q-3 -6 -9 -6h-184q-8 0 -10 5t3 13l218 331l-215 334q-10 17 10 17h181q6 0 9 -6l132 -217l131 217q3 6 10 6h181z" />
    <glyph glyph-name="Y" unicode="Y" horiz-adv-x="703" 
d="M681 700q17 0 5 -17l-244 -411v-260q0 -12 -11 -12h-160q-12 0 -12 12v260l-244 411q-10 17 7 17h186q6 0 10 -6l133 -257l133 257q4 6 10 6h187z" />
    <glyph glyph-name="Z" unicode="Z" horiz-adv-x="649" 
d="M59 531q-12 0 -12 11v147q0 11 12 11h533q11 0 11 -11v-54q0 -5 -3 -10l-293 -456h290q11 0 11 -11v-146q0 -12 -11 -12h-543q-12 0 -12 12v53q0 7 3 11l293 455h-279z" />
    <glyph glyph-name="bracketleft" unicode="[" horiz-adv-x="367" 
d="M77 729q0 11 12 11h250q12 0 12 -11v-86q0 -11 -12 -11h-118v-714h118q12 0 12 -11v-86q0 -11 -12 -11h-250q-12 0 -12 11v908z" />
    <glyph glyph-name="backslash" unicode="\" horiz-adv-x="519" 
d="M24 724q-6 16 10 16h110q6 0 10 -6l340 -758q8 -16 -9 -16h-110q-6 0 -10 6z" />
    <glyph glyph-name="bracketright" unicode="]" horiz-adv-x="367" 
d="M279 740q12 0 12 -11v-908q0 -11 -12 -11h-250q-12 0 -12 11v86q0 11 12 11h118v714h-118q-12 0 -12 11v86q0 11 12 11h250z" />
    <glyph glyph-name="asciicircum" unicode="^" horiz-adv-x="629" 
d="M578 337q10 -18 -10 -18h-151q-6 0 -10 7l-91 200l-93 -200q-3 -7 -11 -7h-151q-20 0 -9 18l224 369q3 6 10 6h57q7 0 11 -6z" />
    <glyph glyph-name="underscore" unicode="_" horiz-adv-x="507" 
d="M507 -179q0 -12 -12 -12h-483q-12 0 -12 12v118q0 12 12 12h483q12 0 12 -12v-118z" />
    <glyph glyph-name="grave" unicode="`" horiz-adv-x="370" 
d="M306 587q7 -17 -11 -17h-137q-6 0 -9 5l-82 114q-6 8 -4 13.5t13 5.5h167q8 0 11 -7z" />
    <glyph glyph-name="a" unicode="a" horiz-adv-x="509" 
d="M253 452q100 0 154.5 -48t54.5 -141v-251q0 -12 -12 -12h-105q-8 0 -11 8l-16 47q-26 -33 -69.5 -50t-85.5 -17q-69 0 -104 35t-35 98q0 56 46 94t129 46l99 11v7q0 30 -19.5 41t-51.5 11q-29 0 -59 -9t-58 -26q-10 -7 -16 4l-49 89q-6 10 4 15q48 25 97.5 36.5
t106.5 11.5zM246 178q-23 -3 -36.5 -11t-13.5 -31q0 -39 39 -39q33 0 48 22.5t15 49.5v14z" />
    <glyph glyph-name="b" unicode="b" horiz-adv-x="576" 
d="M344 452q46 0 83.5 -16.5t64.5 -46.5t41.5 -73t14.5 -96q0 -108 -55.5 -170t-151.5 -62q-48 0 -84.5 21.5t-60.5 62.5l-19 -64q-3 -8 -12 -8h-104q-12 0 -12 12v717q0 11 12 11h146q11 0 11 -11v-326q23 23 54 36t72 13zM297 307q-39 0 -59.5 -24.5t-20.5 -62.5
t20.5 -62.5t59.5 -24.5q42 0 60 25t18 62q0 38 -18 62.5t-60 24.5z" />
    <glyph glyph-name="c" unicode="c" horiz-adv-x="492" 
d="M477 339q6 -9 -4 -14l-105 -51q-11 -7 -16 5q-11 17 -28.5 27.5t-43.5 10.5q-39 0 -59 -28t-20 -69t20 -69t60 -28q26 0 42.5 10.5t27.5 27.5q5 12 17 5l103 -51q9 -5 5 -15q-33 -56 -83.5 -84t-122.5 -28q-53 0 -97 17t-76 48t-50 73.5t-18 93.5t18 93.5t49.5 73
t75.5 48t96 17.5q70 0 125.5 -30t83.5 -83z" />
    <glyph glyph-name="d" unicode="d" horiz-adv-x="572" 
d="M230 452q40 0 70.5 -12.5t53.5 -35.5v325q0 11 12 11h146q11 0 11 -11v-717q0 -12 -11 -12h-105q-8 0 -11 8l-19 63q-23 -40 -59.5 -61.5t-83.5 -21.5q-96 0 -150.5 62t-54.5 170q0 53 14.5 96t40.5 73t63 46.5t83 16.5zM278 307q-40 0 -58.5 -26t-18.5 -61
q0 -37 18.5 -62t58.5 -25q38 0 58.5 24.5t20.5 62.5q0 36 -20.5 61.5t-58.5 25.5z" />
    <glyph glyph-name="e" unicode="e" horiz-adv-x="518" 
d="M493 227q-2 -34 -6.5 -41.5t-12.5 -7.5h-279q5 -32 26 -49.5t56 -17.5q29 0 51.5 9t40.5 26q10 6 17 -1l72 -69q8 -8 0 -16q-81 -72 -194 -72q-56 0 -100 17t-74 48t-45.5 73t-15.5 93t16.5 94t47.5 73.5t74 48t97 17.5t98 -15t75 -44t46 -70.5t10 -95.5zM336 265
q0 24 -14.5 45t-55.5 21q-33 0 -52 -18.5t-21 -47.5h143z" />
    <glyph glyph-name="f" unicode="f" horiz-adv-x="447" 
d="M402 323q0 -11 -11 -11h-128v-300q0 -12 -12 -12h-146q-12 0 -12 12v300h-68q-12 0 -12 11v106q0 11 12 11h68v90q0 47 15.5 86t44.5 66.5t72.5 42.5t98.5 15q50 0 88 -8t77 -25q11 -5 6 -16l-46 -102q-5 -12 -15 -7q-20 10 -42 15.5t-47 5.5q-45 0 -63.5 -26t-18.5 -64
v-73h128q11 0 11 -11v-106z" />
    <glyph glyph-name="g" unicode="g" horiz-adv-x="531" 
d="M511 323q0 -11 -12 -11l-90 -1q14 -11 21.5 -28t7.5 -44q0 -24 -11.5 -45.5t-34 -38t-55 -26t-73.5 -9.5q-20 0 -38 2t-35 6l-4 -8t-2 -9q0 -14 10.5 -20t31.5 -9l102 -15q83 -11 127.5 -37t44.5 -82q0 -36 -19.5 -64t-55.5 -46.5t-86 -28t-111 -9.5q-229 0 -229 125
q0 62 65 101q-19 22 -19 56q0 52 49 84q-59 44 -59 120q0 75 49.5 120.5t144.5 45.5q24 0 50 -3t49 -9h170q12 0 12 -11v-106zM253 340q-29 0 -43.5 -16t-14.5 -39t16 -38t42 -15q29 0 44.5 15t15.5 39q0 23 -15.5 38.5t-44.5 15.5zM173 -25q-12 -14 -12 -32q0 -22 18 -33.5
t63 -11.5q43 0 67.5 6.5t24.5 22.5q0 11 -7.5 17.5t-32.5 10.5l-95 14q-7 2 -13.5 3t-12.5 3z" />
    <glyph glyph-name="h" unicode="h" horiz-adv-x="553" 
d="M207 740q12 0 12 -11v-329q26 24 59.5 38t72.5 14q75 0 116 -49.5t41 -136.5v-254q0 -12 -11 -12h-146q-12 0 -12 12v223q0 13 -2.5 26t-9 23t-17 16.5t-27.5 6.5q-32 0 -48 -23t-16 -54v-218q0 -12 -12 -12h-146q-11 0 -11 12v717q0 11 11 11h146z" />
    <glyph glyph-name="i" unicode="i" horiz-adv-x="265" 
d="M206 440q11 0 11 -11v-417q0 -12 -11 -12h-146q-12 0 -12 12v417q0 11 12 11h146zM132 692q42 0 68.5 -23t26.5 -65q0 -41 -26.5 -64.5t-68.5 -23.5q-41 0 -67 23.5t-26 64.5q0 42 26 65t67 23z" />
    <glyph glyph-name="j" unicode="j" horiz-adv-x="262" 
d="M205 440q12 0 12 -11v-394q0 -110 -49.5 -166t-155.5 -59q-11 0 -11 11v137q0 10 11 12q22 3 29 16t7 36v407q0 11 11 11h146zM132 692q42 0 68.5 -23t26.5 -65q0 -41 -26.5 -64.5t-68.5 -23.5q-41 0 -67 23.5t-26 64.5q0 42 26 65t67 23z" />
    <glyph glyph-name="k" unicode="k" horiz-adv-x="594" 
d="M50 729q0 11 11 11h146q12 0 12 -11v-468l132 175q4 4 9 4h197q5 0 6.5 -4t-2.5 -8l-176 -191l189 -226q3 -4 2 -7.5t-6 -3.5h-201q-6 0 -10 5l-140 188v-181q0 -12 -12 -12h-146q-11 0 -11 12v717z" />
    <glyph glyph-name="l" unicode="l" horiz-adv-x="263" 
d="M215 12q0 -12 -12 -12h-142q-11 0 -11 12v717q0 11 11 11h142q12 0 12 -11v-717z" />
    <glyph glyph-name="m" unicode="m" horiz-adv-x="849" 
d="M48 429q0 11 11 11h106q8 0 11 -8l19 -55q27 35 66.5 55t87.5 20t82.5 -20t54.5 -58q27 36 67.5 57t89.5 21q75 0 118 -49t43 -137v-254q0 -12 -12 -12h-146q-11 0 -11 12v224q0 14 -2.5 27t-9 23.5t-18 16.5t-28.5 6q-33 0 -49.5 -23.5t-16.5 -55.5v-218q0 -12 -12 -12
h-146q-12 0 -12 12v224q0 28 -12 50.5t-45 22.5q-34 0 -50.5 -23.5t-16.5 -55.5v-218q0 -12 -12 -12h-146q-11 0 -11 12v417z" />
    <glyph glyph-name="n" unicode="n" horiz-adv-x="552" 
d="M165 440q8 0 11 -8l18 -55q27 35 66.5 55t87.5 20q75 0 117 -49t42 -136v-255q0 -12 -12 -12h-146q-11 0 -11 12v224q0 27 -11.5 49t-45.5 22q-32 0 -48 -22.5t-16 -53.5v-219q0 -12 -11 -12h-146q-12 0 -12 12v417q0 11 12 11h105z" />
    <glyph glyph-name="o" unicode="o" horiz-adv-x="569" 
d="M284 452q59 0 106 -16.5t80.5 -47t51.5 -73t18 -95.5t-18 -96t-51 -73t-80.5 -46.5t-106.5 -16.5q-58 0 -105.5 16.5t-80.5 46.5t-51 73t-18 96t18 95.5t51.5 73t80.5 47t105 16.5zM284 325q-40 0 -62 -27t-22 -78t22 -77.5t62 -26.5t62.5 26.5t22.5 77.5t-22.5 78
t-62.5 27z" />
    <glyph glyph-name="p" unicode="p" horiz-adv-x="575" 
d="M340 452q96 0 151 -62t55 -170q0 -53 -14.5 -96t-41 -73t-64 -46.5t-83.5 -16.5q-41 0 -72 13t-54 36v-216q0 -11 -12 -11h-146q-11 0 -11 11v608q0 11 11 11h105q9 0 11 -8l20 -64q23 41 60 62.5t85 21.5zM296 307q-37 0 -58.5 -24.5t-21.5 -62.5t21.5 -62.5t58.5 -24.5
q39 0 58.5 24.5t19.5 62.5t-19.5 62.5t-58.5 24.5z" />
    <glyph glyph-name="q" unicode="q" horiz-adv-x="575" 
d="M236 452q48 0 84.5 -22t60.5 -62l19 64q2 8 11 8h105q11 0 11 -11v-608q0 -11 -11 -11h-146q-12 0 -12 11v216q-23 -23 -53.5 -36t-71.5 -13q-46 0 -83.5 16.5t-64.5 46.5t-41.5 73t-14.5 96q0 54 14.5 97t41.5 73t65.5 46t85.5 16zM279 307q-39 0 -58.5 -24.5
t-19.5 -62.5t19.5 -62.5t58.5 -24.5q38 0 59.5 24.5t21.5 62.5t-21.5 62.5t-59.5 24.5z" />
    <glyph glyph-name="r" unicode="r" horiz-adv-x="390" 
d="M48 429q0 11 12 11h104q9 0 12 -8l21 -76q25 40 63.5 66.5t92.5 29.5q12 0 12 -11v-138q0 -12 -13 -12q-68 0 -101.5 -35.5t-33.5 -92.5v-151q0 -12 -11 -12h-146q-12 0 -12 12v417z" />
    <glyph glyph-name="s" unicode="s" horiz-adv-x="471" 
d="M374 297q-7 -8 -16 -2q-23 16 -51.5 26t-55.5 10q-20 0 -29 -6.5t-9 -15.5q0 -15 16 -23.5t54 -16.5q87 -17 127 -50.5t40 -87.5q0 -65 -54 -104t-147 -39q-63 0 -122 16t-101 42q-8 6 -3 15l52 95q7 10 17 3q35 -25 72 -38.5t72 -13.5q20 0 31 7.5t11 17.5q0 6 -2 10.5
t-10 9.5t-23 10t-42 11q-85 18 -123 52t-38 87q0 63 54.5 101.5t150.5 38.5q56 0 106.5 -14.5t88.5 -40.5q9 -6 3 -16z" />
    <glyph glyph-name="t" unicode="t" horiz-adv-x="438" 
d="M249 553q12 0 12 -12v-101h121q11 0 11 -11v-106q0 -11 -11 -11h-123v-134q0 -26 10 -40.5t36 -14.5q14 0 30 4.5t31 12.5q12 5 17 -7l36 -97q5 -10 -5 -15q-32 -15 -70 -24t-79 -9q-172 0 -172 170v154h-68q-12 0 -12 11v106q0 11 12 11h78l74 107q5 6 10 6h62z" />
    <glyph glyph-name="u" unicode="u" horiz-adv-x="547" 
d="M488 440q11 0 11 -11v-417q0 -12 -11 -12h-105q-8 0 -11 8l-17 52q-26 -34 -63 -53t-82 -19q-75 0 -119.5 49t-44.5 136v256q0 11 11 11h146q12 0 12 -11v-225q0 -27 10.5 -48.5t41.5 -21.5q33 0 48 22.5t15 52.5v220q0 11 12 11h146z" />
    <glyph glyph-name="v" unicode="v" horiz-adv-x="548" 
d="M15 423q-8 17 10 17h163q8 0 11 -7l75 -192l75 192q4 7 11 7h163q19 0 10 -17l-221 -422q-4 -6 -10 -6h-56q-6 0 -10 6z" />
    <glyph glyph-name="w" unicode="w" horiz-adv-x="785" 
d="M760 440q18 0 11 -16l-191 -422q-3 -7 -11 -7h-56q-6 0 -10 7l-110 221l-110 -221q-3 -7 -10 -7h-56q-7 0 -11 7l-191 422q-4 7 -1 11.5t11 4.5h165q8 0 11 -8l58 -183l95 185q4 6 9 6h58q6 0 10 -6l94 -185l60 183q2 8 10 8h165z" />
    <glyph glyph-name="x" unicode="x" horiz-adv-x="570" 
d="M538 440q11 0 13.5 -5t-4.5 -13l-154 -202l154 -202q7 -8 4.5 -13t-13.5 -5h-180q-6 0 -10 6l-63 111l-64 -111q-4 -6 -9 -6h-181q-10 0 -12.5 5t4.5 13l153 202l-153 202q-7 8 -4.5 13t12.5 5h182q4 0 9 -5l64 -111l63 111q5 5 10 5h179z" />
    <glyph glyph-name="y" unicode="y" horiz-adv-x="559" 
d="M15 424q-4 7 -1 11.5t11 4.5h168q8 0 11 -7l86 -231l73 230q2 8 11 8h160q18 0 11 -16l-258 -607q-3 -7 -11 -7h-164q-9 0 -12 4.5t1 11.5l97 194z" />
    <glyph glyph-name="z" unicode="z" horiz-adv-x="468" 
d="M48 313q-11 0 -11 11v105q0 11 11 11h372q12 0 12 -11v-53q0 -7 -4 -13l-166 -235h167q12 0 12 -12v-104q0 -12 -12 -12h-389q-12 0 -12 12v52q0 6 5 14l167 235h-152z" />
    <glyph glyph-name="braceleft" unicode="{" horiz-adv-x="340" 
d="M324 644q0 -12 -12 -12q-41 0 -53.5 -18.5t-12.5 -51.5v-151q0 -51 -24 -88.5t-82 -48.5q58 -11 82 -48t24 -88v-149q0 -33 12.5 -52t53.5 -19q12 0 12 -12v-85q0 -5 -3 -8.5t-8 -3.5q-58 -2 -98.5 11t-65.5 39t-36 65t-11 91v120q0 32 -17 51t-56 19q-12 0 -12 11v116
q0 12 12 12q39 0 56 19.5t17 51.5v120q0 106 48 157.5t163 48.5q5 0 8 -3.5t3 -8.5v-85z" />
    <glyph glyph-name="bar" unicode="|" horiz-adv-x="282" 
d="M205 -199q0 -11 -12 -11h-105q-11 0 -11 11v958q0 11 11 11h105q12 0 12 -11v-958z" />
    <glyph glyph-name="braceright" unicode="}" horiz-adv-x="340" 
d="M29 632q-12 0 -12 12v85q0 5 3 8.5t8 3.5q58 2 98 -10.5t65 -38t36.5 -65t11.5 -92.5v-120q0 -32 17 -51.5t56 -19.5q12 0 12 -12v-116q0 -11 -12 -11q-39 0 -56 -19t-17 -51v-120q0 -52 -11 -91t-35.5 -65t-65 -39t-99.5 -11q-5 0 -8 3.5t-3 8.5v85q0 12 12 12
q41 0 53.5 19t12.5 52v149q0 51 24 88t82 48q-58 11 -82 48.5t-24 88.5v151q0 33 -12.5 51.5t-53.5 18.5z" />
    <glyph glyph-name="asciitilde" unicode="~" horiz-adv-x="635" 
d="M577 389q10 -2 10 -12q-1 -43 -11 -80.5t-29.5 -65t-50 -43t-72.5 -15.5q-44 0 -74.5 15.5t-54.5 31.5q-25 16 -40 23t-29 7q-25 0 -33.5 -17.5t-8.5 -42.5q-2 -13 -14 -13l-112 14q-10 2 -10 11q1 41 10.5 78t29 65t50 44t72.5 16q44 0 75 -14.5t57 -31.5
q18 -12 34.5 -20t33.5 -8q24 0 32 17t9 41q0 14 14 12z" />
    <glyph glyph-name="exclamdown" unicode="&#xa1;" horiz-adv-x="338" 
d="M169 472q22 0 41.5 -7.5t34 -21t23 -33.5t8.5 -44t-8.5 -44t-23 -34.5t-34 -22t-41.5 -7.5t-41.5 7.5t-34 22t-23 34.5t-8.5 44q0 49 31 77.5t76 28.5zM228 187q11 0 11 -9l25 -193v-174q0 -11 -11 -11h-168q-11 0 -11 11v174l25 193q2 9 12 9h117z" />
    <glyph glyph-name="cent" unicode="&#xa2;" horiz-adv-x="526" 
d="M354 720q11 0 11 -11v-110q44 -10 80.5 -33t64.5 -59q7 -10 -3 -17l-113 -74q-9 -6 -17 2q-14 16 -35.5 25t-46.5 9q-45 0 -71 -27.5t-26 -73.5t26 -73.5t71 -27.5q55 0 85 33q7 9 16 3l112 -76q8 -7 2 -16q-27 -36 -64 -59t-81 -33v-111q0 -11 -11 -11h-118
q-12 0 -12 11v111q-44 10 -80 32t-61.5 54t-39.5 73.5t-14 89.5t14 89.5t39.5 73.5t61.5 53.5t80 31.5v110q0 11 12 11h118z" />
    <glyph glyph-name="sterling" unicode="&#xa3;" horiz-adv-x="785" 
d="M544 311q0 -12 -12 -12h-141q-1 -31 -3 -62t-8 -63q32 -20 62.5 -35t59.5 -15q38 0 64 19t41 70q5 13 16 7l108 -51q10 -3 6 -14q-39 -97 -96.5 -138t-148.5 -41q-54 0 -96.5 20.5t-76.5 46.5q-24 -28 -55.5 -44t-73.5 -16q-43 0 -70.5 12.5t-43.5 32t-22.5 43t-6.5 44.5
q0 33 11 59t30.5 43t45 26t53.5 9q20 0 45 -5q2 15 2 25v27h-79q-12 0 -12 12v95q0 12 12 12h80l1 43q4 113 62 176t167 63q88 0 141.5 -43t78.5 -128q3 -10 -7 -15l-123 -43q-12 -3 -15 9q-8 27 -24 45t-48 18q-36 0 -49.5 -21t-15.5 -50l-4 -54h133q12 0 12 -12v-95z
M222 127q-16 12 -32 12q-12 0 -20 -6.5t-8 -20.5q0 -25 22 -25q11 0 21 8.5t17 31.5z" />
    <glyph glyph-name="currency" unicode="&#xa4;" horiz-adv-x="588" 
d="M294 536q32 0 59 -9t49 -23l63 64q8 8 16 0l56 -57q8 -7 0 -15l-61 -60q37 -51 37 -116q0 -34 -9 -62t-26 -52l61 -61q7 -7 0 -15l-57 -56q-8 -8 -15 0l-62 62q-23 -15 -50.5 -24t-60.5 -9t-60.5 9t-50.5 24l-61 -62q-8 -8 -16 0l-56 56q-8 8 0 15l61 61q-17 24 -26.5 52
t-9.5 62q0 66 37 115l-61 61q-8 8 0 15l57 57q7 8 15 0l62 -64q23 14 50 23t59 9zM294 398q-36 0 -58.5 -22t-22.5 -56q0 -35 22.5 -57.5t58.5 -22.5t58.5 22.5t22.5 57.5q0 34 -22.5 56t-58.5 22z" />
    <glyph glyph-name="yen" unicode="&#xa5;" horiz-adv-x="690" 
d="M49 391q0 12 11 12h96l-132 281q-7 16 10 16h180q8 0 11 -7l113 -290h14l113 290q4 7 11 7h180q17 0 10 -16l-132 -281h96q11 0 11 -12v-60q0 -12 -11 -12h-570q-11 0 -11 12v60zM49 248q0 11 11 11h570q11 0 11 -11v-61q0 -12 -11 -12h-194v-163q0 -12 -11 -12h-160
q-11 0 -11 12v163h-194q-11 0 -11 12v61z" />
    <glyph glyph-name="brokenbar" unicode="&#xa6;" horiz-adv-x="282" 
d="M205 381q0 -11 -12 -11h-105q-11 0 -11 11v383q0 11 11 11h105q12 0 12 -11v-383zM205 -199q0 -11 -12 -11h-105q-11 0 -11 11v378q0 11 11 11h105q12 0 12 -11v-378z" />
    <glyph glyph-name="section" unicode="&#xa7;" horiz-adv-x="587" 
d="M458 509q-3 -5 -7.5 -5t-7.5 2q-33 24 -72 38t-78 14q-70 0 -70 -44q0 -12 5.5 -21t19.5 -17.5t38 -17.5t61 -20q51 -16 90 -32.5t65.5 -38t39.5 -49.5t13 -66q0 -47 -22.5 -81t-62.5 -56q34 -26 51 -59.5t17 -78.5q0 -92 -67 -142t-183 -50q-69 0 -134.5 20t-125.5 67
q-9 8 -2 15l82 102q7 9 17 1q31 -26 72 -38.5t79 -12.5q77 0 77 43q0 12 -5.5 21.5t-19.5 18t-38 17.5t-61 20q-46 14 -84.5 30.5t-66 38.5t-42.5 51t-15 68q0 48 22 81.5t60 55.5q-65 52 -65 137q0 91 66 141t189 50q62 0 125.5 -18t121.5 -68q9 -8 2 -17zM205 259
q0 -13 9 -24t24 -20t35 -16t42 -13q32 5 43.5 19.5t11.5 32.5q0 28 -30.5 45t-78.5 28q-34 -4 -45 -19t-11 -33z" />
    <glyph glyph-name="dieresis" unicode="&#xa8;" horiz-adv-x="490" 
d="M142 722q38 0 59 -22.5t21 -57.5t-21 -57.5t-59 -22.5t-59 22.5t-21 57.5t21 57.5t59 22.5zM349 722q38 0 59 -22.5t21 -57.5t-21 -57.5t-59 -22.5t-59 22.5t-21 57.5t21 57.5t59 22.5z" />
    <glyph glyph-name="copyright" unicode="&#xa9;" horiz-adv-x="807" 
d="M404 716q77 0 143.5 -28t116 -77.5t77.5 -116.5t28 -144t-28 -144t-77.5 -116.5t-116 -77.5t-143.5 -28t-144 28t-116 77.5t-77 116.5t-28 144t28 144t77 116.5t116 77.5t144 28zM404 646q-64 0 -118 -22.5t-93 -62.5t-61 -94t-22 -117t22 -117.5t61 -94.5t93 -63
t118 -23t118 23t93 63t61 94.5t22 117.5t-22 117t-61 94t-93 62.5t-118 22.5zM575 479q7 -9 -2 -16l-70 -56q-7 -7 -16 1q-31 31 -75 31q-38 0 -61.5 -21.5t-23.5 -65.5t23.5 -65.5t61.5 -21.5q46 0 76 30q8 9 16 1l70 -56q8 -8 2 -16q-30 -36 -73 -54t-94 -18q-46 0 -84 15
t-65 42t-41.5 63.5t-14.5 79.5t14.5 79.5t41.5 63t65 41.5t84 15q51 0 93.5 -18t72.5 -54z" />
    <glyph glyph-name="ordfeminine" unicode="&#xaa;" horiz-adv-x="362" 
d="M187 703q70 0 108.5 -33t38.5 -98v-173q0 -12 -12 -12h-67q-7 0 -11 7l-11 32q-19 -23 -49.5 -35t-59.5 -12q-51 0 -73 25.5t-22 67.5q0 38 30.5 64.5t89.5 33.5l69 9v5q0 20 -13 27t-36 7q-20 0 -39 -5.5t-36 -15.5q-12 -7 -18 3l-31 55q-5 9 4 15q28 16 64 24.5t74 8.5
zM183 512q-16 -2 -26 -8t-10 -21q0 -27 28 -27q23 0 33 15.5t10 33.5v11z" />
    <glyph glyph-name="guillemotleft" unicode="&#xab;" horiz-adv-x="611" 
d="M50 252q-4 6 0 12l107 170q5 6 11 6h130q10 0 13 -4.5t-2 -12.5l-104 -165l104 -165q11 -17 -11 -17h-130q-6 0 -11 5zM284 252q-4 6 0 12l107 170q3 6 10 6h148q11 0 13 -5t-4 -13l-120 -164l120 -164q13 -18 -9 -18h-148q-7 0 -10 5z" />
    <glyph glyph-name="logicalnot" unicode="&#xac;" horiz-adv-x="620" 
d="M59 261q-11 0 -11 12v135q0 11 11 11h501q12 0 12 -11v-282q0 -12 -12 -12h-147q-12 0 -12 12v135h-342z" />
    <glyph glyph-name="registered" unicode="&#xae;" horiz-adv-x="703" 
d="M351 775q66 0 123.5 -24t99.5 -66.5t66 -99.5t24 -123t-24 -123t-66 -99t-99.5 -66t-123.5 -24t-123 24t-99 66t-66 99t-24 123t24 123t66 99.5t99 66.5t123 24zM351 715q-55 0 -100.5 -19.5t-78.5 -53t-51 -80t-18 -100.5t18 -100t51 -80t78.5 -53.5t100.5 -19.5
t101 19.5t79 53.5t51 80t18 100t-18 100.5t-51 80t-79 53t-101 19.5zM216 616q0 12 11 12h147q59 0 97.5 -27t38.5 -82q0 -34 -15.5 -60.5t-46.5 -42.5l56 -94q10 -18 -10 -18h-94q-6 0 -10 7l-38 78h-31v-73q0 -12 -12 -12h-82q-11 0 -11 12v300zM321 476h39q20 0 31 6.5
t11 24.5t-10 24.5t-30 6.5h-41v-62z" />
    <glyph glyph-name="macron" unicode="&#xaf;" horiz-adv-x="444" 
d="M383 606q0 -11 -12 -11h-297q-12 0 -12 11v72q0 12 12 12h297q12 0 12 -12v-72z" />
    <glyph glyph-name="degree" unicode="&#xb0;" horiz-adv-x="415" 
d="M207 740q40 0 73 -13.5t56.5 -37t36.5 -55.5t13 -69t-13 -69t-36.5 -55.5t-56.5 -37t-73 -13.5q-39 0 -72 13.5t-56.5 37t-36.5 55.5t-13 69t13 69t36.5 55.5t56.5 37t72 13.5zM207 651q-39 0 -61.5 -22.5t-22.5 -63.5q0 -40 22.5 -63t61.5 -23q40 0 62.5 23t22.5 63
q0 41 -22.5 63.5t-62.5 22.5z" />
    <glyph glyph-name="plusminus" unicode="&#xb1;" horiz-adv-x="591" 
d="M361 547q12 0 12 -11v-134h159q11 0 11 -12v-127q0 -12 -11 -12h-159v-100h159q11 0 11 -12v-127q0 -12 -11 -12h-473q-11 0 -11 12v127q0 12 11 12h159v100h-159q-11 0 -11 12v127q0 12 11 12h159v134q0 11 12 11h131z" />
    <glyph glyph-name="twosuperior" unicode="&#xb2;" horiz-adv-x="340" 
d="M111 687q-5 -10 -16 -5l-71 30q-10 5 -7 14q21 49 65 76.5t101 27.5q68 0 104.5 -34t36.5 -88q0 -38 -16.5 -70.5t-54.5 -67.5l-59 -57h119q11 0 11 -11v-80q0 -12 -11 -12h-282q-12 0 -12 12v38q0 5 3 8l149 162q20 21 27 37t7 29q0 12 -8.5 21t-28.5 9q-18 0 -32 -9
t-25 -30z" />
    <glyph glyph-name="threesuperior" unicode="&#xb3;" horiz-adv-x="351" 
d="M144 574q-11 0 -11 11v62q0 12 11 12h31q20 0 30 10.5t10 25.5q0 31 -38 31q-19 0 -34.5 -8.5t-25.5 -28.5q-7 -10 -16 -6l-72 29q-10 5 -6 14q20 50 61 77t105 27q66 0 105.5 -28t39.5 -80q0 -35 -17 -62t-47 -39q65 -29 65 -96q0 -56 -42.5 -90.5t-112.5 -34.5
q-60 0 -102 26.5t-61 77.5q-3 10 6 13l73 32q11 3 16 -6q11 -22 26 -30.5t35 -8.5q43 0 43 33q0 17 -10.5 27t-30.5 10h-31z" />
    <glyph glyph-name="acute" unicode="&#xb4;" horiz-adv-x="379" 
d="M126 702q3 6 9 6h168q11 0 13.5 -5.5t-4.5 -13.5l-91 -115q-3 -4 -8 -4h-137q-21 0 -11 17z" />
    <glyph glyph-name="uni00B5" unicode="&#xb5;" horiz-adv-x="549" 
d="M206 440q11 0 11 -11v-223q0 -39 13 -61t42 -22t45 22t16 64v220q0 11 11 11h146q12 0 12 -11v-417q0 -12 -12 -12h-120q-10 0 -12 9l-7 31q-34 -51 -90 -51q-29 0 -50 12l6 -180q0 -11 -11 -11h-146q-12 0 -12 11v608q0 11 12 11h146z" />
    <glyph glyph-name="paragraph" unicode="&#xb6;" horiz-adv-x="620" 
d="M547 700q12 0 12 -11v-835q0 -12 -12 -12h-67q-11 0 -11 12v757h-100v-757q0 -12 -12 -12h-67q-11 0 -11 12v397q-53 0 -97 12.5t-76 39.5t-49.5 69.5t-17.5 102.5q0 61 18 103.5t50 69.5t77 39.5t99 12.5h264z" />
    <glyph glyph-name="periodcentered" unicode="&#xb7;" horiz-adv-x="291" 
d="M145 400q21 0 39 -7.5t31.5 -21t21.5 -32t8 -39.5t-8 -39t-21.5 -31.5t-31.5 -21.5t-39 -8q-20 0 -38 8t-31.5 21.5t-21.5 31.5t-8 39t8 39.5t21.5 32t31.5 21t38 7.5z" />
    <glyph glyph-name="cedilla" unicode="&#xb8;" horiz-adv-x="388" 
d="M210 10q15 0 11 -14l-9 -37q57 -4 86 -26t29 -58q0 -43 -40.5 -71t-124.5 -28q-22 0 -45.5 2t-44.5 6q-11 2 -9 14l10 53q3 12 15 9q17 -4 36 -6.5t35 -2.5q28 0 38 9t10 20q0 14 -17.5 22.5t-70.5 10.5q-14 0 -11 14l16 74q2 9 12 9h74z" />
    <glyph glyph-name="onesuperior" unicode="&#xb9;" horiz-adv-x="252" 
d="M202 820q12 0 12 -11v-387q0 -12 -12 -12h-87q-12 0 -12 12v266l-57 -17q-12 -3 -15 8l-27 78q-4 11 7 15l135 44q11 4 22 4h34z" />
    <glyph glyph-name="ordmasculine" unicode="&#xba;" horiz-adv-x="396" 
d="M198 703q38 0 69.5 -12.5t53.5 -34t34 -51.5t12 -65t-12 -64.5t-34 -51t-53 -33.5t-70 -12q-38 0 -69.5 12t-54 33.5t-34.5 51t-12 64.5t12 65t34.5 51.5t54 34t69.5 12.5zM198 597q-26 0 -38.5 -15.5t-12.5 -40.5t12.5 -40t38.5 -15q25 0 37.5 15t12.5 40t-12.5 40.5
t-37.5 15.5z" />
    <glyph glyph-name="guillemotright" unicode="&#xbb;" horiz-adv-x="611" 
d="M561 264q4 -6 0 -12l-108 -171q-3 -5 -10 -5h-130q-22 0 -11 17l104 165l-104 165q-5 8 -2 12.5t13 4.5h130q7 0 10 -6zM327 264q4 -6 0 -12l-107 -171q-5 -5 -10 -5h-148q-22 0 -9 18l119 164l-119 164q-6 8 -4 13t13 5h148q6 0 10 -6z" />
    <glyph glyph-name="onequarter" unicode="&#xbc;" horiz-adv-x="808" 
d="M202 700q12 0 12 -11v-387q0 -12 -12 -12h-87q-12 0 -12 12v266l-57 -17q-12 -3 -15 8l-27 78q-4 11 7 15l135 44q11 4 22 4h34zM640 700q20 0 10 -17l-424 -677q-5 -6 -10 -6h-87q-9 0 -11.5 4.5t2.5 12.5l423 677q5 6 11 6h86zM795 77q0 -11 -11 -11h-25v-54
q0 -12 -11 -12h-81q-12 0 -12 12v54h-191q-12 0 -12 11v33q0 10 6 25l125 268q4 7 11 7h102q8 0 11.5 -4.5t-1.5 -12.5l-118 -225h67v57q0 11 12 11h81q11 0 11 -11v-57h25q11 0 11 -12v-79z" />
    <glyph glyph-name="onehalf" unicode="&#xbd;" horiz-adv-x="811" 
d="M202 700q12 0 12 -11v-387q0 -12 -12 -12h-87q-12 0 -12 12v266l-57 -17q-12 -3 -15 8l-27 78q-4 11 7 15l135 44q11 4 22 4h34zM627 700q20 0 10 -17l-424 -677q-5 -6 -10 -6h-87q-9 0 -11.5 4.5t2.5 12.5l423 677q5 6 11 6h86zM582 277q-5 -10 -16 -5l-71 30
q-10 5 -7 14q21 49 65 76.5t101 27.5q68 0 104.5 -34t36.5 -88q0 -38 -16.5 -70.5t-54.5 -67.5l-59 -57h119q11 0 11 -11v-80q0 -12 -11 -12h-282q-12 0 -12 12v38q0 5 3 8l149 162q20 21 27 37t7 29q0 12 -8.5 21t-28.5 9q-18 0 -32 -9t-25 -30z" />
    <glyph glyph-name="threequarters" unicode="&#xbe;" horiz-adv-x="878" 
d="M144 454q-11 0 -11 11v62q0 12 11 12h31q20 0 30 10.5t10 25.5q0 31 -38 31q-19 0 -34.5 -8.5t-25.5 -28.5q-7 -10 -16 -6l-72 29q-10 5 -6 14q20 50 61 77t105 27q66 0 105.5 -28t39.5 -80q0 -35 -17 -62t-47 -39q65 -29 65 -96q0 -56 -42.5 -90.5t-112.5 -34.5
q-60 0 -102 26.5t-61 77.5q-3 10 6 13l73 32q11 3 16 -6q11 -22 26 -30.5t35 -8.5q43 0 43 33q0 17 -10.5 27t-30.5 10h-31zM715 700q20 0 10 -17l-424 -677q-5 -6 -10 -6h-87q-9 0 -11.5 4.5t2.5 12.5l423 677q5 6 11 6h86zM865 77q0 -11 -11 -11h-25v-54q0 -12 -11 -12
h-81q-12 0 -12 12v54h-191q-12 0 -12 11v33q0 10 6 25l125 268q4 7 11 7h102q8 0 11.5 -4.5t-1.5 -12.5l-118 -225h67v57q0 11 12 11h81q11 0 11 -11v-57h25q11 0 11 -12v-79z" />
    <glyph glyph-name="questiondown" unicode="&#xbf;" horiz-adv-x="499" 
d="M260 472q41 0 69.5 -26t28.5 -71q0 -44 -28.5 -71t-69.5 -27q-40 0 -68.5 27t-28.5 71q0 45 28.5 71t68.5 26zM323 214q11 0 11 -10q-1 -36 -17 -71.5t-62 -67.5q-32 -24 -47.5 -42.5t-15.5 -39.5q0 -38 52 -38q35 0 67.5 20.5t55.5 57.5q3 5 7 7t9 -2l91 -64q9 -7 5 -14
q-24 -41 -53.5 -69.5t-63.5 -46.5t-70.5 -26t-74.5 -8q-94 0 -146.5 40t-52.5 110q0 29 8.5 53t23.5 44.5t35 38t42 33.5q29 21 38.5 39t11.5 45q0 11 12 11h134z" />
    <glyph glyph-name="Agrave" unicode="&#xc0;" horiz-adv-x="764" 
d="M410 705q7 0 10 -7l321 -682q7 -16 -11 -16h-176q-7 0 -11 7l-42 101h-238l-42 -101q-3 -7 -11 -7h-176q-18 0 -11 16l321 682q4 7 10 7h56zM446 254l-63 158l-64 -158h127zM456 767q7 -17 -11 -17h-137q-6 0 -9 5l-82 114q-6 8 -4 13.5t13 5.5h167q8 0 11 -7z" />
    <glyph glyph-name="Aacute" unicode="&#xc1;" horiz-adv-x="764" 
d="M410 705q7 0 10 -7l321 -682q7 -16 -11 -16h-176q-7 0 -11 7l-42 101h-238l-42 -101q-3 -7 -11 -7h-176q-18 0 -11 16l321 682q4 7 10 7h56zM446 254l-63 158l-64 -158h127zM373 882q3 6 9 6h168q11 0 13.5 -5.5t-4.5 -13.5l-91 -115q-3 -4 -8 -4h-137q-21 0 -11 17z" />
    <glyph glyph-name="Acircumflex" unicode="&#xc2;" horiz-adv-x="764" 
d="M410 705q7 0 10 -7l321 -682q7 -16 -11 -16h-176q-7 0 -11 7l-42 101h-238l-42 -101q-3 -7 -11 -7h-176q-18 0 -11 16l321 682q4 7 10 7h56zM446 254l-63 158l-64 -158h127zM561 768q13 -18 -10 -18h-118q-7 0 -11 6l-38 77l-38 -77q-4 -6 -10 -6h-118q-23 0 -10 18
l80 115q5 5 10 5h173q5 0 10 -5z" />
    <glyph glyph-name="Atilde" unicode="&#xc3;" horiz-adv-x="764" 
d="M410 705q7 0 10 -7l321 -682q7 -16 -11 -16h-176q-7 0 -11 7l-42 101h-238l-42 -101q-3 -7 -11 -7h-176q-18 0 -11 16l321 682q4 7 10 7h56zM446 254l-63 158l-64 -158h127zM562 895q12 0 12 -11q-2 -80 -29 -117.5t-75 -37.5q-24 0 -43.5 9.5t-36 20.5t-30 20.5
t-27.5 9.5q-11 0 -18.5 -9t-9.5 -38q0 -12 -12 -12h-91q-12 0 -12 12q2 78 27.5 120t72.5 42q23 0 42.5 -11t37 -24.5t32.5 -25t28 -11.5t20.5 10t8.5 42q0 11 12 11h91z" />
    <glyph glyph-name="Adieresis" unicode="&#xc4;" horiz-adv-x="764" 
d="M410 705q7 0 10 -7l321 -682q7 -16 -11 -16h-176q-7 0 -11 7l-42 101h-238l-42 -101q-3 -7 -11 -7h-176q-18 0 -11 16l321 682q4 7 10 7h56zM446 254l-63 158l-64 -158h127zM279 902q38 0 59 -22.5t21 -57.5t-21 -57.5t-59 -22.5t-59 22.5t-21 57.5t21 57.5t59 22.5z
M486 902q38 0 59 -22.5t21 -57.5t-21 -57.5t-59 -22.5t-59 22.5t-21 57.5t21 57.5t59 22.5z" />
    <glyph glyph-name="Aring" unicode="&#xc5;" horiz-adv-x="764" 
d="M410 705q7 0 10 -7l321 -682q7 -16 -11 -16h-176q-7 0 -11 7l-42 101h-238l-42 -101q-3 -7 -11 -7h-176q-18 0 -11 16l321 682q4 7 10 7h56zM446 254l-63 158l-64 -158h127zM383 983q65 0 103 -34.5t38 -92.5t-38 -92.5t-103 -34.5t-103.5 34.5t-38.5 92.5t38.5 92.5
t103.5 34.5zM383 891q-20 0 -26.5 -11t-6.5 -24t6.5 -24t26.5 -11t26 11t6 24t-6 24t-26 11z" />
    <glyph glyph-name="AE" unicode="&#xc6;" horiz-adv-x="933" 
d="M888 546q0 -12 -12 -12h-326l27 -104h265q12 0 12 -11v-134q0 -12 -12 -12h-225l28 -107h235q12 0 12 -11v-143q0 -12 -12 -12h-361q-9 0 -11 9l-31 118h-216l-43 -119q-3 -8 -11 -8h-173q-16 0 -11 16l277 677q4 7 11 7h565q12 0 12 -11v-143zM437 286l-50 194l-72 -194
h122z" />
    <glyph glyph-name="Ccedilla" unicode="&#xc7;" horiz-adv-x="737" 
d="M704 546q7 -10 -5 -15l-135 -65q-9 -4 -15 5q-23 38 -60 56.5t-85 18.5q-81 0 -129 -51t-48 -145q0 -95 48.5 -145.5t129.5 -50.5q49 0 86.5 20t60.5 59q5 11 15 6l139 -58q11 -5 5 -14q-39 -86 -120.5 -132.5t-190.5 -46.5q-81 0 -147.5 26t-114 73t-73.5 114t-26 149
t26 148.5t73.5 114t114 73.5t147.5 26q105 0 184.5 -43t119.5 -123zM433 10q15 0 11 -14l-9 -37q57 -4 86 -26t29 -58q0 -43 -40.5 -71t-124.5 -28q-22 0 -45.5 2t-44.5 6q-11 2 -9 14l10 53q3 12 15 9q17 -4 36 -6.5t35 -2.5q28 0 38 9t10 20q0 14 -17.5 22.5t-70.5 10.5
q-14 0 -11 14l16 74q2 9 12 9h74z" />
    <glyph glyph-name="Egrave" unicode="&#xc8;" horiz-adv-x="589" 
d="M62 689q0 11 12 11h458q11 0 11 -11v-143q0 -12 -11 -12h-287v-104h246q11 0 11 -11v-134q0 -12 -11 -12h-246v-107h292q11 0 11 -11v-143q0 -12 -11 -12h-463q-12 0 -12 12v677zM375 767q7 -17 -11 -17h-137q-6 0 -9 5l-82 114q-6 8 -4 13.5t13 5.5h167q8 0 11 -7z" />
    <glyph glyph-name="Eacute" unicode="&#xc9;" horiz-adv-x="589" 
d="M62 689q0 11 12 11h458q11 0 11 -11v-143q0 -12 -11 -12h-287v-104h246q11 0 11 -11v-134q0 -12 -11 -12h-246v-107h292q11 0 11 -11v-143q0 -12 -11 -12h-463q-12 0 -12 12v677zM292 882q3 6 9 6h168q11 0 13.5 -5.5t-4.5 -13.5l-91 -115q-3 -4 -8 -4h-137q-21 0 -11 17
z" />
    <glyph glyph-name="Ecircumflex" unicode="&#xca;" horiz-adv-x="589" 
d="M62 689q0 11 12 11h458q11 0 11 -11v-143q0 -12 -11 -12h-287v-104h246q11 0 11 -11v-134q0 -12 -11 -12h-246v-107h292q11 0 11 -11v-143q0 -12 -11 -12h-463q-12 0 -12 12v677zM480 768q13 -18 -10 -18h-118q-7 0 -11 6l-38 77l-38 -77q-4 -6 -10 -6h-118q-23 0 -10 18
l80 115q5 5 10 5h173q5 0 10 -5z" />
    <glyph glyph-name="Edieresis" unicode="&#xcb;" horiz-adv-x="589" 
d="M62 689q0 11 12 11h458q11 0 11 -11v-143q0 -12 -11 -12h-287v-104h246q11 0 11 -11v-134q0 -12 -11 -12h-246v-107h292q11 0 11 -11v-143q0 -12 -11 -12h-463q-12 0 -12 12v677zM198 902q38 0 59 -22.5t21 -57.5t-21 -57.5t-59 -22.5t-59 22.5t-21 57.5t21 57.5t59 22.5
zM405 902q38 0 59 -22.5t21 -57.5t-21 -57.5t-59 -22.5t-59 22.5t-21 57.5t21 57.5t59 22.5z" />
    <glyph glyph-name="Igrave" unicode="&#xcc;" horiz-adv-x="304" 
d="M232 700q11 0 11 -11v-677q0 -12 -11 -12h-158q-12 0 -12 12v677q0 11 12 11h158zM226 767q7 -17 -11 -17h-137q-6 0 -9 5l-82 114q-6 8 -4 13.5t13 5.5h167q8 0 11 -7z" />
    <glyph glyph-name="Iacute" unicode="&#xcd;" horiz-adv-x="304" 
d="M232 700q11 0 11 -11v-677q0 -12 -11 -12h-158q-12 0 -12 12v677q0 11 12 11h158zM143 882q3 6 9 6h168q11 0 13.5 -5.5t-4.5 -13.5l-91 -115q-3 -4 -8 -4h-137q-21 0 -11 17z" />
    <glyph glyph-name="Icircumflex" unicode="&#xce;" horiz-adv-x="304" 
d="M232 700q11 0 11 -11v-677q0 -12 -11 -12h-158q-12 0 -12 12v677q0 11 12 11h158zM331 768q13 -18 -10 -18h-118q-7 0 -11 6l-38 77l-38 -77q-4 -6 -10 -6h-118q-23 0 -10 18l80 115q5 5 10 5h173q5 0 10 -5z" />
    <glyph glyph-name="Idieresis" unicode="&#xcf;" horiz-adv-x="304" 
d="M232 700q11 0 11 -11v-677q0 -12 -11 -12h-158q-12 0 -12 12v677q0 11 12 11h158zM49 902q38 0 59 -22.5t21 -57.5t-21 -57.5t-59 -22.5t-59 22.5t-21 57.5t21 57.5t59 22.5zM256 902q38 0 59 -22.5t21 -57.5t-21 -57.5t-59 -22.5t-59 22.5t-21 57.5t21 57.5t59 22.5z
" />
    <glyph glyph-name="Eth" unicode="&#xd0;" horiz-adv-x="787" 
d="M98 689q0 11 12 11h281q86 0 153 -26.5t112.5 -73t69 -109.5t23.5 -137q0 -75 -23.5 -140t-69 -112.5t-112.5 -74.5t-153 -27h-281q-12 0 -12 12v277h-54q-12 0 -12 12v95q0 12 12 12h54v281zM401 408q12 0 12 -12v-95q0 -12 -12 -12h-120v-115h104q47 0 80 13t54 37
t31 57t10 73q0 39 -10 70.5t-31 54t-54 35t-80 12.5h-104v-118h120z" />
    <glyph glyph-name="Ntilde" unicode="&#xd1;" horiz-adv-x="742" 
d="M670 700q11 0 11 -11v-682q0 -12 -11 -12h-52q-8 0 -13 5l-362 372v-360q0 -12 -11 -12h-158q-12 0 -12 12v682q0 11 12 11h49q9 0 16 -7l361 -371v362q0 11 11 11h159zM533 895q12 0 12 -11q-2 -80 -29 -117.5t-75 -37.5q-24 0 -43.5 9.5t-36 20.5t-30 20.5t-27.5 9.5
q-11 0 -18.5 -9t-9.5 -38q0 -12 -12 -12h-91q-12 0 -12 12q2 78 27.5 120t72.5 42q23 0 42.5 -11t37 -24.5t32.5 -25t28 -11.5t20.5 10t8.5 42q0 11 12 11h91z" />
    <glyph glyph-name="Ograve" unicode="&#xd2;" horiz-adv-x="810" 
d="M406 712q80 0 147.5 -25.5t116 -73t75.5 -114t27 -149.5t-27 -150t-75.5 -114t-116 -72.5t-147.5 -25.5t-147.5 25.5t-116 72.5t-76 114t-27.5 150t27.5 149.5t76 114t116 73t147.5 25.5zM406 546q-84 0 -131.5 -53t-47.5 -143t47.5 -143t131.5 -53t131 53t47 143
t-47 143t-131 53zM479 777q7 -17 -11 -17h-137q-6 0 -9 5l-82 114q-6 8 -4 13.5t13 5.5h167q8 0 11 -7z" />
    <glyph glyph-name="Oacute" unicode="&#xd3;" horiz-adv-x="810" 
d="M406 712q80 0 147.5 -25.5t116 -73t75.5 -114t27 -149.5t-27 -150t-75.5 -114t-116 -72.5t-147.5 -25.5t-147.5 25.5t-116 72.5t-76 114t-27.5 150t27.5 149.5t76 114t116 73t147.5 25.5zM406 546q-84 0 -131.5 -53t-47.5 -143t47.5 -143t131.5 -53t131 53t47 143
t-47 143t-131 53zM396 892q3 6 9 6h168q11 0 13.5 -5.5t-4.5 -13.5l-91 -115q-3 -4 -8 -4h-137q-21 0 -11 17z" />
    <glyph glyph-name="Ocircumflex" unicode="&#xd4;" horiz-adv-x="810" 
d="M406 712q80 0 147.5 -25.5t116 -73t75.5 -114t27 -149.5t-27 -150t-75.5 -114t-116 -72.5t-147.5 -25.5t-147.5 25.5t-116 72.5t-76 114t-27.5 150t27.5 149.5t76 114t116 73t147.5 25.5zM406 546q-84 0 -131.5 -53t-47.5 -143t47.5 -143t131.5 -53t131 53t47 143
t-47 143t-131 53zM584 778q13 -18 -10 -18h-118q-7 0 -11 6l-38 77l-38 -77q-4 -6 -10 -6h-118q-23 0 -10 18l80 115q5 5 10 5h173q5 0 10 -5z" />
    <glyph glyph-name="Otilde" unicode="&#xd5;" horiz-adv-x="810" 
d="M406 712q80 0 147.5 -25.5t116 -73t75.5 -114t27 -149.5t-27 -150t-75.5 -114t-116 -72.5t-147.5 -25.5t-147.5 25.5t-116 72.5t-76 114t-27.5 150t27.5 149.5t76 114t116 73t147.5 25.5zM406 546q-84 0 -131.5 -53t-47.5 -143t47.5 -143t131.5 -53t131 53t47 143
t-47 143t-131 53zM585 905q12 0 12 -11q-2 -80 -29 -117.5t-75 -37.5q-24 0 -43.5 9.5t-36 20.5t-30 20.5t-27.5 9.5q-11 0 -18.5 -9t-9.5 -38q0 -12 -12 -12h-91q-12 0 -12 12q2 78 27.5 120t72.5 42q23 0 42.5 -11t37 -24.5t32.5 -25t28 -11.5t20.5 10t8.5 42q0 11 12 11
h91z" />
    <glyph glyph-name="Odieresis" unicode="&#xd6;" horiz-adv-x="810" 
d="M406 712q80 0 147.5 -25.5t116 -73t75.5 -114t27 -149.5t-27 -150t-75.5 -114t-116 -72.5t-147.5 -25.5t-147.5 25.5t-116 72.5t-76 114t-27.5 150t27.5 149.5t76 114t116 73t147.5 25.5zM406 546q-84 0 -131.5 -53t-47.5 -143t47.5 -143t131.5 -53t131 53t47 143
t-47 143t-131 53zM302 912q38 0 59 -22.5t21 -57.5t-21 -57.5t-59 -22.5t-59 22.5t-21 57.5t21 57.5t59 22.5zM509 912q38 0 59 -22.5t21 -57.5t-21 -57.5t-59 -22.5t-59 22.5t-21 57.5t21 57.5t59 22.5z" />
    <glyph glyph-name="multiply" unicode="&#xd7;" horiz-adv-x="572" 
d="M520 379q9 -7 0 -16l-124 -124l124 -124q8 -8 0 -16l-94 -94q-8 -8 -16 0l-123 124l-125 -124q-8 -6 -16 0l-94 94q-7 9 0 16l125 124l-124 124q-8 9 0 17l93 93q8 8 16 0l125 -124l124 124q7 8 15 0z" />
    <glyph glyph-name="Oslash" unicode="&#xd8;" horiz-adv-x="809" 
d="M405 712q116 0 204 -56l85 99q3 4 7.5 4t8.5 -2l51 -40q10 -9 2 -17l-86 -100q44 -45 69 -108.5t25 -141.5q0 -83 -27 -150t-75.5 -114t-116 -72.5t-147.5 -25.5q-59 0 -110 15t-93 42l-87 -104q-8 -9 -17 -2l-50 41q-9 9 -1 16l86 104q-45 45 -69.5 108.5t-24.5 141.5
q0 83 27 149.5t75.5 114t116 73t147.5 25.5zM405 544q-85 0 -128.5 -52t-43.5 -142q0 -62 23 -108l239 281q-37 21 -90 21zM316 177q38 -21 89 -21q85 0 128.5 52t43.5 142q0 62 -23 106z" />
    <glyph glyph-name="Ugrave" unicode="&#xd9;" horiz-adv-x="699" 
d="M630 700q12 0 12 -11v-427q0 -130 -76.5 -202t-215.5 -72t-215.5 72t-76.5 202v427q0 11 12 11h159q12 0 12 -11v-409q0 -56 26 -89.5t83 -33.5t83 33.5t26 89.5v409q0 11 12 11h159zM423 767q7 -17 -11 -17h-137q-6 0 -9 5l-82 114q-6 8 -4 13.5t13 5.5h167q8 0 11 -7z
" />
    <glyph glyph-name="Uacute" unicode="&#xda;" horiz-adv-x="699" 
d="M630 700q12 0 12 -11v-427q0 -130 -76.5 -202t-215.5 -72t-215.5 72t-76.5 202v427q0 11 12 11h159q12 0 12 -11v-409q0 -56 26 -89.5t83 -33.5t83 33.5t26 89.5v409q0 11 12 11h159zM340 882q3 6 9 6h168q11 0 13.5 -5.5t-4.5 -13.5l-91 -115q-3 -4 -8 -4h-137
q-21 0 -11 17z" />
    <glyph glyph-name="Ucircumflex" unicode="&#xdb;" horiz-adv-x="699" 
d="M630 700q12 0 12 -11v-427q0 -130 -76.5 -202t-215.5 -72t-215.5 72t-76.5 202v427q0 11 12 11h159q12 0 12 -11v-409q0 -56 26 -89.5t83 -33.5t83 33.5t26 89.5v409q0 11 12 11h159zM528 768q13 -18 -10 -18h-118q-7 0 -11 6l-38 77l-38 -77q-4 -6 -10 -6h-118
q-23 0 -10 18l80 115q5 5 10 5h173q5 0 10 -5z" />
    <glyph glyph-name="Udieresis" unicode="&#xdc;" horiz-adv-x="699" 
d="M630 700q12 0 12 -11v-427q0 -130 -76.5 -202t-215.5 -72t-215.5 72t-76.5 202v427q0 11 12 11h159q12 0 12 -11v-409q0 -56 26 -89.5t83 -33.5t83 33.5t26 89.5v409q0 11 12 11h159zM246 902q38 0 59 -22.5t21 -57.5t-21 -57.5t-59 -22.5t-59 22.5t-21 57.5t21 57.5
t59 22.5zM453 902q38 0 59 -22.5t21 -57.5t-21 -57.5t-59 -22.5t-59 22.5t-21 57.5t21 57.5t59 22.5z" />
    <glyph glyph-name="Yacute" unicode="&#xdd;" horiz-adv-x="703" 
d="M681 700q17 0 5 -17l-244 -411v-260q0 -12 -11 -12h-160q-12 0 -12 12v260l-244 411q-10 17 7 17h186q6 0 10 -6l133 -257l133 257q4 6 10 6h187zM341 882q3 6 9 6h168q11 0 13.5 -5.5t-4.5 -13.5l-91 -115q-3 -4 -8 -4h-137q-21 0 -11 17z" />
    <glyph glyph-name="Thorn" unicode="&#xde;" horiz-adv-x="639" 
d="M62 689q0 11 11 11h160q11 0 11 -11v-109h121q60 0 107.5 -16t80.5 -46t50.5 -72t17.5 -95t-17.5 -95.5t-50.5 -72.5t-80.5 -46.5t-107.5 -16.5h-121v-108q0 -12 -11 -12h-160q-11 0 -11 12v677zM244 287h103q44 0 62 16t18 47q0 32 -18.5 48t-62.5 16h-102v-127z" />
    <glyph glyph-name="germandbls" unicode="&#xdf;" horiz-adv-x="579" 
d="M61 -190q-12 0 -12 11v686q0 53 16.5 94.5t46.5 70t73 43.5t96 15q46 0 84 -11t65.5 -31.5t42.5 -49.5t15 -64q0 -33 -7.5 -56t-17 -41t-17 -35t-7.5 -38q0 -19 17.5 -39.5t38.5 -47t38.5 -59.5t17.5 -77q0 -88 -55.5 -140.5t-167.5 -52.5q-14 0 -31.5 1.5t-32.5 3.5
q-9 2 -9 12v132q0 14 15 11q8 -1 16.5 -2t17.5 -1q35 0 54.5 17.5t19.5 49.5q0 29 -15 49t-33 38t-33 39t-15 51q0 21 7.5 39t16.5 34.5t16.5 33.5t7.5 36q0 26 -12.5 40t-41.5 14q-60 0 -60 -76v-689q0 -11 -12 -11h-143z" />
    <glyph glyph-name="agrave" unicode="&#xe0;" horiz-adv-x="509" 
d="M253 452q100 0 154.5 -48t54.5 -141v-251q0 -12 -12 -12h-105q-8 0 -11 8l-16 47q-26 -33 -69.5 -50t-85.5 -17q-69 0 -104 35t-35 98q0 56 46 94t129 46l99 11v7q0 30 -19.5 41t-51.5 11q-29 0 -59 -9t-58 -26q-10 -7 -16 4l-49 89q-6 10 4 15q48 25 97.5 36.5
t106.5 11.5zM246 178q-23 -3 -36.5 -11t-13.5 -31q0 -39 39 -39q33 0 48 22.5t15 49.5v14zM318 547q7 -17 -11 -17h-137q-6 0 -9 5l-82 114q-6 8 -4 13.5t13 5.5h167q8 0 11 -7z" />
    <glyph glyph-name="aacute" unicode="&#xe1;" horiz-adv-x="509" 
d="M253 452q100 0 154.5 -48t54.5 -141v-251q0 -12 -12 -12h-105q-8 0 -11 8l-16 47q-26 -33 -69.5 -50t-85.5 -17q-69 0 -104 35t-35 98q0 56 46 94t129 46l99 11v7q0 30 -19.5 41t-51.5 11q-29 0 -59 -9t-58 -26q-10 -7 -16 4l-49 89q-6 10 4 15q48 25 97.5 36.5
t106.5 11.5zM246 178q-23 -3 -36.5 -11t-13.5 -31q0 -39 39 -39q33 0 48 22.5t15 49.5v14zM234 662q3 6 9 6h168q11 0 13.5 -5.5t-4.5 -13.5l-91 -115q-3 -4 -8 -4h-137q-21 0 -11 17z" />
    <glyph glyph-name="acircumflex" unicode="&#xe2;" horiz-adv-x="509" 
d="M253 452q100 0 154.5 -48t54.5 -141v-251q0 -12 -12 -12h-105q-8 0 -11 8l-16 47q-26 -33 -69.5 -50t-85.5 -17q-69 0 -104 35t-35 98q0 56 46 94t129 46l99 11v7q0 30 -19.5 41t-51.5 11q-29 0 -59 -9t-58 -26q-10 -7 -16 4l-49 89q-6 10 4 15q48 25 97.5 36.5
t106.5 11.5zM246 178q-23 -3 -36.5 -11t-13.5 -31q0 -39 39 -39q33 0 48 22.5t15 49.5v14zM422 548q13 -18 -10 -18h-118q-7 0 -11 6l-38 77l-38 -77q-4 -6 -10 -6h-118q-23 0 -10 18l80 115q5 5 10 5h173q5 0 10 -5z" />
    <glyph glyph-name="atilde" unicode="&#xe3;" horiz-adv-x="509" 
d="M253 452q100 0 154.5 -48t54.5 -141v-251q0 -12 -12 -12h-105q-8 0 -11 8l-16 47q-26 -33 -69.5 -50t-85.5 -17q-69 0 -104 35t-35 98q0 56 46 94t129 46l99 11v7q0 30 -19.5 41t-51.5 11q-29 0 -59 -9t-58 -26q-10 -7 -16 4l-49 89q-6 10 4 15q48 25 97.5 36.5
t106.5 11.5zM246 178q-23 -3 -36.5 -11t-13.5 -31q0 -39 39 -39q33 0 48 22.5t15 49.5v14zM424 675q12 0 12 -11q-2 -80 -29 -117.5t-75 -37.5q-24 0 -43.5 9.5t-36 20.5t-30 20.5t-27.5 9.5q-11 0 -18.5 -9t-9.5 -38q0 -12 -12 -12h-91q-12 0 -12 12q2 78 27.5 120t72.5 42
q23 0 42.5 -11t37 -24.5t32.5 -25t28 -11.5t20.5 10t8.5 42q0 11 12 11h91z" />
    <glyph glyph-name="adieresis" unicode="&#xe4;" horiz-adv-x="509" 
d="M253 452q100 0 154.5 -48t54.5 -141v-251q0 -12 -12 -12h-105q-8 0 -11 8l-16 47q-26 -33 -69.5 -50t-85.5 -17q-69 0 -104 35t-35 98q0 56 46 94t129 46l99 11v7q0 30 -19.5 41t-51.5 11q-29 0 -59 -9t-58 -26q-10 -7 -16 4l-49 89q-6 10 4 15q48 25 97.5 36.5
t106.5 11.5zM246 178q-23 -3 -36.5 -11t-13.5 -31q0 -39 39 -39q33 0 48 22.5t15 49.5v14zM141 682q38 0 59 -22.5t21 -57.5t-21 -57.5t-59 -22.5t-59 22.5t-21 57.5t21 57.5t59 22.5zM348 682q38 0 59 -22.5t21 -57.5t-21 -57.5t-59 -22.5t-59 22.5t-21 57.5t21 57.5
t59 22.5z" />
    <glyph glyph-name="aring" unicode="&#xe5;" horiz-adv-x="509" 
d="M253 452q100 0 154.5 -48t54.5 -141v-251q0 -12 -12 -12h-105q-8 0 -11 8l-16 47q-26 -33 -69.5 -50t-85.5 -17q-69 0 -104 35t-35 98q0 56 46 94t129 46l99 11v7q0 30 -19.5 41t-51.5 11q-29 0 -59 -9t-58 -26q-10 -7 -16 4l-49 89q-6 10 4 15q48 25 97.5 36.5
t106.5 11.5zM246 178q-23 -3 -36.5 -11t-13.5 -31q0 -39 39 -39q33 0 48 22.5t15 49.5v14zM245 763q65 0 103 -34.5t38 -92.5t-38 -92.5t-103 -34.5t-103.5 34.5t-38.5 92.5t38.5 92.5t103.5 34.5zM245 671q-20 0 -26.5 -11t-6.5 -24t6.5 -24t26.5 -11t26 11t6 24t-6 24
t-26 11z" />
    <glyph glyph-name="ae" unicode="&#xe6;" horiz-adv-x="786" 
d="M762 230q-2 -26 -5.5 -34t-17.5 -8h-275q4 -28 24 -45.5t53 -17.5q20 0 37 8.5t30 21.5q8 9 17 3l99 -66q9 -7 3 -16q-30 -47 -70.5 -67.5t-89.5 -20.5q-35 0 -65.5 11t-55.5 35v-22q0 -12 -11 -12h-90q-8 0 -11 8l-16 47q-26 -33 -69.5 -50t-85.5 -17q-69 0 -104 36
t-35 94q0 54 42 93.5t133 49.5l99 11v11q0 27 -18 39t-53 12q-29 0 -58.5 -10.5t-57.5 -29.5q-11 -7 -17 4l-49 88q-2 4 -1.5 8.5t5.5 6.5q42 24 95 37.5t109 13.5q60 0 98 -19.5t60 -59.5q26 38 67.5 58.5t89.5 20.5q45 0 82 -17t62.5 -47t38.5 -70.5t11 -87.5zM607 264
q-1 21 -18 39t-49 18t-50.5 -16.5t-24.5 -40.5h142zM247 178q-23 -3 -37 -11t-14 -31q0 -39 39 -39q33 0 48 22.5t15 49.5v14z" />
    <glyph glyph-name="ccedilla" unicode="&#xe7;" horiz-adv-x="492" 
d="M477 339q6 -9 -4 -14l-105 -51q-11 -7 -16 5q-11 17 -28.5 27.5t-43.5 10.5q-39 0 -59 -28t-20 -69t20 -69t60 -28q26 0 42.5 10.5t27.5 27.5q5 12 17 5l103 -51q9 -5 5 -15q-33 -56 -83.5 -84t-122.5 -28q-53 0 -97 17t-76 48t-50 73.5t-18 93.5t18 93.5t49.5 73
t75.5 48t96 17.5q70 0 125.5 -30t83.5 -83zM296 10q15 0 11 -14l-9 -37q57 -4 86 -26t29 -58q0 -43 -40.5 -71t-124.5 -28q-22 0 -45.5 2t-44.5 6q-11 2 -9 14l10 53q3 12 15 9q17 -4 36 -6.5t35 -2.5q28 0 38 9t10 20q0 14 -17.5 22.5t-70.5 10.5q-14 0 -11 14l16 74
q2 9 12 9h74z" />
    <glyph glyph-name="egrave" unicode="&#xe8;" horiz-adv-x="518" 
d="M493 227q-2 -34 -6.5 -41.5t-12.5 -7.5h-279q5 -32 26 -49.5t56 -17.5q29 0 51.5 9t40.5 26q10 6 17 -1l72 -69q8 -8 0 -16q-81 -72 -194 -72q-56 0 -100 17t-74 48t-45.5 73t-15.5 93t16.5 94t47.5 73.5t74 48t97 17.5t98 -15t75 -44t46 -70.5t10 -95.5zM336 265
q0 24 -14.5 45t-55.5 21q-33 0 -52 -18.5t-21 -47.5h143zM327 547q7 -17 -11 -17h-137q-6 0 -9 5l-82 114q-6 8 -4 13.5t13 5.5h167q8 0 11 -7z" />
    <glyph glyph-name="eacute" unicode="&#xe9;" horiz-adv-x="518" 
d="M493 227q-2 -34 -6.5 -41.5t-12.5 -7.5h-279q5 -32 26 -49.5t56 -17.5q29 0 51.5 9t40.5 26q10 6 17 -1l72 -69q8 -8 0 -16q-81 -72 -194 -72q-56 0 -100 17t-74 48t-45.5 73t-15.5 93t16.5 94t47.5 73.5t74 48t97 17.5t98 -15t75 -44t46 -70.5t10 -95.5zM336 265
q0 24 -14.5 45t-55.5 21q-33 0 -52 -18.5t-21 -47.5h143zM244 662q3 6 9 6h168q11 0 13.5 -5.5t-4.5 -13.5l-91 -115q-3 -4 -8 -4h-137q-21 0 -11 17z" />
    <glyph glyph-name="ecircumflex" unicode="&#xea;" horiz-adv-x="518" 
d="M493 227q-2 -34 -6.5 -41.5t-12.5 -7.5h-279q5 -32 26 -49.5t56 -17.5q29 0 51.5 9t40.5 26q10 6 17 -1l72 -69q8 -8 0 -16q-81 -72 -194 -72q-56 0 -100 17t-74 48t-45.5 73t-15.5 93t16.5 94t47.5 73.5t74 48t97 17.5t98 -15t75 -44t46 -70.5t10 -95.5zM336 265
q0 24 -14.5 45t-55.5 21q-33 0 -52 -18.5t-21 -47.5h143zM432 548q13 -18 -10 -18h-118q-7 0 -11 6l-38 77l-38 -77q-4 -6 -10 -6h-118q-23 0 -10 18l80 115q5 5 10 5h173q5 0 10 -5z" />
    <glyph glyph-name="edieresis" unicode="&#xeb;" horiz-adv-x="518" 
d="M493 227q-2 -34 -6.5 -41.5t-12.5 -7.5h-279q5 -32 26 -49.5t56 -17.5q29 0 51.5 9t40.5 26q10 6 17 -1l72 -69q8 -8 0 -16q-81 -72 -194 -72q-56 0 -100 17t-74 48t-45.5 73t-15.5 93t16.5 94t47.5 73.5t74 48t97 17.5t98 -15t75 -44t46 -70.5t10 -95.5zM336 265
q0 24 -14.5 45t-55.5 21q-33 0 -52 -18.5t-21 -47.5h143zM150 682q38 0 59 -22.5t21 -57.5t-21 -57.5t-59 -22.5t-59 22.5t-21 57.5t21 57.5t59 22.5zM357 682q38 0 59 -22.5t21 -57.5t-21 -57.5t-59 -22.5t-59 22.5t-21 57.5t21 57.5t59 22.5z" />
    <glyph glyph-name="igrave" unicode="&#xec;" horiz-adv-x="265" 
d="M206 440q11 0 11 -11v-417q0 -12 -11 -12h-146q-12 0 -12 12v417q0 11 12 11h146zM206 547q7 -17 -11 -17h-137q-6 0 -9 5l-82 114q-6 8 -4 13.5t13 5.5h167q8 0 11 -7z" />
    <glyph glyph-name="iacute" unicode="&#xed;" horiz-adv-x="265" 
d="M206 440q11 0 11 -11v-417q0 -12 -11 -12h-146q-12 0 -12 12v417q0 11 12 11h146zM123 662q3 6 9 6h168q11 0 13.5 -5.5t-4.5 -13.5l-91 -115q-3 -4 -8 -4h-137q-21 0 -11 17z" />
    <glyph glyph-name="icircumflex" unicode="&#xee;" horiz-adv-x="265" 
d="M206 440q11 0 11 -11v-417q0 -12 -11 -12h-146q-12 0 -12 12v417q0 11 12 11h146zM311 548q13 -18 -10 -18h-118q-7 0 -11 6l-38 77l-38 -77q-4 -6 -10 -6h-118q-23 0 -10 18l80 115q5 5 10 5h173q5 0 10 -5z" />
    <glyph glyph-name="idieresis" unicode="&#xef;" horiz-adv-x="265" 
d="M206 440q11 0 11 -11v-417q0 -12 -11 -12h-146q-12 0 -12 12v417q0 11 12 11h146zM29 682q38 0 59 -22.5t21 -57.5t-21 -57.5t-59 -22.5t-59 22.5t-21 57.5t21 57.5t59 22.5zM236 682q38 0 59 -22.5t21 -57.5t-21 -57.5t-59 -22.5t-59 22.5t-21 57.5t21 57.5t59 22.5z
" />
    <glyph glyph-name="eth" unicode="&#xf0;" horiz-adv-x="582" 
d="M146 489q-10 -5 -15 4l-34 63q-6 10 5 16l75 38l-72 113q-10 17 9 17h173q7 0 11 -6l28 -46l72 37q11 5 16 -5l34 -63q5 -9 -5 -16l-69 -35l128 -212q24 -41 38 -84.5t14 -87.5q0 -57 -18.5 -100.5t-52.5 -73.5t-82.5 -45t-107.5 -15q-56 0 -104.5 16t-84 47.5
t-55.5 77.5t-20 106q0 47 16 86t43.5 66.5t65.5 43t83 15.5q12 0 25.5 -1.5t25.5 -6.5l-60 93zM291 313q-42 0 -61.5 -20t-19.5 -62q0 -37 21.5 -57.5t60.5 -20.5q41 0 60.5 20t19.5 58t-20.5 60t-60.5 22z" />
    <glyph glyph-name="ntilde" unicode="&#xf1;" horiz-adv-x="552" 
d="M165 440q8 0 11 -8l18 -55q27 35 66.5 55t87.5 20q75 0 117 -49t42 -136v-255q0 -12 -12 -12h-146q-11 0 -11 12v224q0 27 -11.5 49t-45.5 22q-32 0 -48 -22.5t-16 -53.5v-219q0 -12 -11 -12h-146q-12 0 -12 12v417q0 11 12 11h105zM473 675q12 0 12 -11
q-2 -80 -29 -117.5t-75 -37.5q-24 0 -43.5 9.5t-36 20.5t-30 20.5t-27.5 9.5q-11 0 -18.5 -9t-9.5 -38q0 -12 -12 -12h-91q-12 0 -12 12q2 78 27.5 120t72.5 42q23 0 42.5 -11t37 -24.5t32.5 -25t28 -11.5t20.5 10t8.5 42q0 11 12 11h91z" />
    <glyph glyph-name="ograve" unicode="&#xf2;" horiz-adv-x="569" 
d="M284 452q59 0 106 -16.5t80.5 -47t51.5 -73t18 -95.5t-18 -96t-51 -73t-80.5 -46.5t-106.5 -16.5q-58 0 -105.5 16.5t-80.5 46.5t-51 73t-18 96t18 95.5t51.5 73t80.5 47t105 16.5zM284 325q-40 0 -62 -27t-22 -78t22 -77.5t62 -26.5t62.5 26.5t22.5 77.5t-22.5 78
t-62.5 27zM358 547q7 -17 -11 -17h-137q-6 0 -9 5l-82 114q-6 8 -4 13.5t13 5.5h167q8 0 11 -7z" />
    <glyph glyph-name="oacute" unicode="&#xf3;" horiz-adv-x="569" 
d="M284 452q59 0 106 -16.5t80.5 -47t51.5 -73t18 -95.5t-18 -96t-51 -73t-80.5 -46.5t-106.5 -16.5q-58 0 -105.5 16.5t-80.5 46.5t-51 73t-18 96t18 95.5t51.5 73t80.5 47t105 16.5zM284 325q-40 0 -62 -27t-22 -78t22 -77.5t62 -26.5t62.5 26.5t22.5 77.5t-22.5 78
t-62.5 27zM275 662q3 6 9 6h168q11 0 13.5 -5.5t-4.5 -13.5l-91 -115q-3 -4 -8 -4h-137q-21 0 -11 17z" />
    <glyph glyph-name="ocircumflex" unicode="&#xf4;" horiz-adv-x="569" 
d="M284 452q59 0 106 -16.5t80.5 -47t51.5 -73t18 -95.5t-18 -96t-51 -73t-80.5 -46.5t-106.5 -16.5q-58 0 -105.5 16.5t-80.5 46.5t-51 73t-18 96t18 95.5t51.5 73t80.5 47t105 16.5zM284 325q-40 0 -62 -27t-22 -78t22 -77.5t62 -26.5t62.5 26.5t22.5 77.5t-22.5 78
t-62.5 27zM463 548q13 -18 -10 -18h-118q-7 0 -11 6l-38 77l-38 -77q-4 -6 -10 -6h-118q-23 0 -10 18l80 115q5 5 10 5h173q5 0 10 -5z" />
    <glyph glyph-name="otilde" unicode="&#xf5;" horiz-adv-x="569" 
d="M284 452q59 0 106 -16.5t80.5 -47t51.5 -73t18 -95.5t-18 -96t-51 -73t-80.5 -46.5t-106.5 -16.5q-58 0 -105.5 16.5t-80.5 46.5t-51 73t-18 96t18 95.5t51.5 73t80.5 47t105 16.5zM284 325q-40 0 -62 -27t-22 -78t22 -77.5t62 -26.5t62.5 26.5t22.5 77.5t-22.5 78
t-62.5 27zM464 675q12 0 12 -11q-2 -80 -29 -117.5t-75 -37.5q-24 0 -43.5 9.5t-36 20.5t-30 20.5t-27.5 9.5q-11 0 -18.5 -9t-9.5 -38q0 -12 -12 -12h-91q-12 0 -12 12q2 78 27.5 120t72.5 42q23 0 42.5 -11t37 -24.5t32.5 -25t28 -11.5t20.5 10t8.5 42q0 11 12 11h91z" />
    <glyph glyph-name="odieresis" unicode="&#xf6;" horiz-adv-x="569" 
d="M284 452q59 0 106 -16.5t80.5 -47t51.5 -73t18 -95.5t-18 -96t-51 -73t-80.5 -46.5t-106.5 -16.5q-58 0 -105.5 16.5t-80.5 46.5t-51 73t-18 96t18 95.5t51.5 73t80.5 47t105 16.5zM284 325q-40 0 -62 -27t-22 -78t22 -77.5t62 -26.5t62.5 26.5t22.5 77.5t-22.5 78
t-62.5 27zM181 682q38 0 59 -22.5t21 -57.5t-21 -57.5t-59 -22.5t-59 22.5t-21 57.5t21 57.5t59 22.5zM388 682q38 0 59 -22.5t21 -57.5t-21 -57.5t-59 -22.5t-59 22.5t-21 57.5t21 57.5t59 22.5z" />
    <glyph glyph-name="divide" unicode="&#xf7;" horiz-adv-x="580" 
d="M291 560q38 0 63 -24.5t25 -62.5t-25 -62.5t-63 -24.5q-37 0 -63 24.5t-26 62.5t26 62.5t63 24.5zM521 350q12 0 12 -12v-127q0 -12 -12 -12h-462q-11 0 -11 12v127q0 12 11 12h462zM291 163q38 0 63 -24.5t25 -62.5t-25 -63t-63 -25q-37 0 -63 25t-26 63t26 62.5
t63 24.5z" />
    <glyph glyph-name="oslash" unicode="&#xf8;" horiz-adv-x="569" 
d="M463 509q7 9 15 2l40 -30q11 -7 2 -16l-56 -73q36 -31 56 -75t20 -97q0 -50 -18 -92.5t-51.5 -73.5t-80.5 -48.5t-106 -17.5q-64 0 -117 22l-63 -82q-9 -9 -17 -2l-38 32q-9 9 -2 17l57 73q-36 31 -55.5 75t-19.5 97q0 51 18 93.5t51.5 73t80.5 48t105 17.5q64 0 117 -22
zM284 324q-39 0 -61 -26.5t-22 -77.5q0 -11 2 -21t5 -19l107 139q-15 5 -31 5zM254 121q15 -5 30 -5q40 0 61.5 26.5t21.5 77.5q0 23 -6 41z" />
    <glyph glyph-name="ugrave" unicode="&#xf9;" horiz-adv-x="547" 
d="M488 440q11 0 11 -11v-417q0 -12 -11 -12h-105q-8 0 -11 8l-17 52q-26 -34 -63 -53t-82 -19q-75 0 -119.5 49t-44.5 136v256q0 11 11 11h146q12 0 12 -11v-225q0 -27 10.5 -48.5t41.5 -21.5q33 0 48 22.5t15 52.5v220q0 11 12 11h146zM342 547q7 -17 -11 -17h-137
q-6 0 -9 5l-82 114q-6 8 -4 13.5t13 5.5h167q8 0 11 -7z" />
    <glyph glyph-name="uacute" unicode="&#xfa;" horiz-adv-x="547" 
d="M488 440q11 0 11 -11v-417q0 -12 -11 -12h-105q-8 0 -11 8l-17 52q-26 -34 -63 -53t-82 -19q-75 0 -119.5 49t-44.5 136v256q0 11 11 11h146q12 0 12 -11v-225q0 -27 10.5 -48.5t41.5 -21.5q33 0 48 22.5t15 52.5v220q0 11 12 11h146zM259 662q3 6 9 6h168
q11 0 13.5 -5.5t-4.5 -13.5l-91 -115q-3 -4 -8 -4h-137q-21 0 -11 17z" />
    <glyph glyph-name="ucircumflex" unicode="&#xfb;" horiz-adv-x="547" 
d="M488 440q11 0 11 -11v-417q0 -12 -11 -12h-105q-8 0 -11 8l-17 52q-26 -34 -63 -53t-82 -19q-75 0 -119.5 49t-44.5 136v256q0 11 11 11h146q12 0 12 -11v-225q0 -27 10.5 -48.5t41.5 -21.5q33 0 48 22.5t15 52.5v220q0 11 12 11h146zM447 548q13 -18 -10 -18h-118
q-7 0 -11 6l-38 77l-38 -77q-4 -6 -10 -6h-118q-23 0 -10 18l80 115q5 5 10 5h173q5 0 10 -5z" />
    <glyph glyph-name="udieresis" unicode="&#xfc;" horiz-adv-x="547" 
d="M488 440q11 0 11 -11v-417q0 -12 -11 -12h-105q-8 0 -11 8l-17 52q-26 -34 -63 -53t-82 -19q-75 0 -119.5 49t-44.5 136v256q0 11 11 11h146q12 0 12 -11v-225q0 -27 10.5 -48.5t41.5 -21.5q33 0 48 22.5t15 52.5v220q0 11 12 11h146zM165 682q38 0 59 -22.5t21 -57.5
t-21 -57.5t-59 -22.5t-59 22.5t-21 57.5t21 57.5t59 22.5zM372 682q38 0 59 -22.5t21 -57.5t-21 -57.5t-59 -22.5t-59 22.5t-21 57.5t21 57.5t59 22.5z" />
    <glyph glyph-name="yacute" unicode="&#xfd;" horiz-adv-x="559" 
d="M15 424q-4 7 -1 11.5t11 4.5h168q8 0 11 -7l86 -231l73 230q2 8 11 8h160q18 0 11 -16l-258 -607q-3 -7 -11 -7h-164q-9 0 -12 4.5t1 11.5l97 194zM275 662q3 6 9 6h168q11 0 13.5 -5.5t-4.5 -13.5l-91 -115q-3 -4 -8 -4h-137q-21 0 -11 17z" />
    <glyph glyph-name="thorn" unicode="&#xfe;" horiz-adv-x="576" 
d="M341 452q96 0 151 -62t55 -170q0 -53 -14.5 -96t-41 -73t-64 -46.5t-83.5 -16.5q-41 0 -72 13t-54 36v-216q0 -11 -11 -11h-146q-12 0 -12 11v908q0 11 12 11h146q11 0 11 -11v-331q23 26 54 40t69 14zM297 303q-37 0 -58.5 -22.5t-21.5 -60.5q0 -37 21.5 -60t58.5 -23
q38 0 58 23.5t20 59.5q0 37 -20 60t-58 23z" />
    <glyph glyph-name="ydieresis" unicode="&#xff;" horiz-adv-x="559" 
d="M15 424q-4 7 -1 11.5t11 4.5h168q8 0 11 -7l86 -231l73 230q2 8 11 8h160q18 0 11 -16l-258 -607q-3 -7 -11 -7h-164q-9 0 -12 4.5t1 11.5l97 194zM182 682q38 0 59 -22.5t21 -57.5t-21 -57.5t-59 -22.5t-59 22.5t-21 57.5t21 57.5t59 22.5zM389 682q38 0 59 -22.5
t21 -57.5t-21 -57.5t-59 -22.5t-59 22.5t-21 57.5t21 57.5t59 22.5z" />
    <glyph glyph-name="Amacron" unicode="&#x100;" horiz-adv-x="764" 
d="M410 705q7 0 10 -7l321 -682q7 -16 -11 -16h-176q-7 0 -11 7l-42 101h-238l-42 -101q-3 -7 -11 -7h-176q-18 0 -11 16l321 682q4 7 10 7h56zM446 254l-63 158l-64 -158h127zM543 786q0 -11 -12 -11h-297q-12 0 -12 11v72q0 12 12 12h297q12 0 12 -12v-72z" />
    <glyph glyph-name="amacron" unicode="&#x101;" horiz-adv-x="509" 
d="M253 452q100 0 154.5 -48t54.5 -141v-251q0 -12 -12 -12h-105q-8 0 -11 8l-16 47q-26 -33 -69.5 -50t-85.5 -17q-69 0 -104 35t-35 98q0 56 46 94t129 46l99 11v7q0 30 -19.5 41t-51.5 11q-29 0 -59 -9t-58 -26q-10 -7 -16 4l-49 89q-6 10 4 15q48 25 97.5 36.5
t106.5 11.5zM246 178q-23 -3 -36.5 -11t-13.5 -31q0 -39 39 -39q33 0 48 22.5t15 49.5v14zM405 566q0 -11 -12 -11h-297q-12 0 -12 11v72q0 12 12 12h297q12 0 12 -12v-72z" />
    <glyph glyph-name="Abreve" unicode="&#x102;" horiz-adv-x="764" 
d="M410 705q7 0 10 -7l321 -682q7 -16 -11 -16h-176q-7 0 -11 7l-42 101h-238l-42 -101q-3 -7 -11 -7h-176q-18 0 -11 16l321 682q4 7 10 7h56zM446 254l-63 158l-64 -158h127zM205 876q0 12 12 12h103q11 0 11 -12q2 -36 15 -49t36 -13t36.5 12.5t15.5 49.5q0 12 11 12h103
q12 0 12 -12q-2 -34 -13 -62t-33 -48.5t-54.5 -32t-77.5 -11.5q-44 0 -76.5 11.5t-54.5 32t-33 48.5t-13 62z" />
    <glyph glyph-name="abreve" unicode="&#x103;" horiz-adv-x="509" 
d="M253 452q100 0 154.5 -48t54.5 -141v-251q0 -12 -12 -12h-105q-8 0 -11 8l-16 47q-26 -33 -69.5 -50t-85.5 -17q-69 0 -104 35t-35 98q0 56 46 94t129 46l99 11v7q0 30 -19.5 41t-51.5 11q-29 0 -59 -9t-58 -26q-10 -7 -16 4l-49 89q-6 10 4 15q48 25 97.5 36.5
t106.5 11.5zM246 178q-23 -3 -36.5 -11t-13.5 -31q0 -39 39 -39q33 0 48 22.5t15 49.5v14zM67 656q0 12 12 12h103q11 0 11 -12q2 -36 15 -49t36 -13t36.5 12.5t15.5 49.5q0 12 11 12h103q12 0 12 -12q-2 -34 -13 -62t-33 -48.5t-54.5 -32t-77.5 -11.5q-44 0 -76.5 11.5
t-54.5 32t-33 48.5t-13 62z" />
    <glyph glyph-name="Aogonek" unicode="&#x104;" horiz-adv-x="744" 
d="M400 705q7 0 10 -7l320 -681q5 -11 1.5 -16.5t-14.5 -16.5q-20 -18 -28 -33.5t-8 -30.5q0 -30 31 -30q5 0 9 0.5t8 1.5q12 2 14 -10l16 -74q2 -10 -8 -13q-18 -6 -42 -10.5t-51 -4.5q-36 0 -60 9t-39 23t-21.5 32.5t-6.5 37.5q0 31 14.5 61t48.5 57h-50q-7 0 -11 7
l-42 100h-238l-42 -100q-3 -7 -11 -7h-176q-18 0 -11 16l321 682q4 7 10 7h56zM436 254l-63 158l-64 -158h127z" />
    <glyph glyph-name="aogonek" unicode="&#x105;" horiz-adv-x="509" 
d="M258 452q100 0 154.5 -48t54.5 -141v-249q0 -14 -21 -30q-20 -15 -28 -32t-8 -32q0 -30 31 -30q7 0 17 2q11 2 13 -10l16 -74q2 -10 -8 -13q-17 -6 -41.5 -10.5t-51.5 -4.5q-36 0 -60 9t-38.5 23t-21 32.5t-6.5 37.5q0 35 18 68t60 62l-15 43q-26 -33 -69.5 -50
t-85.5 -17q-69 0 -104 35t-35 98q0 56 46 93.5t129 46.5l99 11v7q0 30 -19.5 41t-51.5 11q-29 0 -59 -9t-58 -26q-10 -7 -16 4l-49 89q-6 10 4 15q48 25 97.5 36.5t106.5 11.5zM252 178q-23 -3 -37 -11t-14 -31q0 -39 39 -39q33 0 48 22.5t15 49.5v14z" />
    <glyph glyph-name="Cacute" unicode="&#x106;" horiz-adv-x="737" 
d="M704 546q7 -10 -5 -15l-135 -65q-9 -4 -15 5q-23 38 -60 56.5t-85 18.5q-81 0 -129 -51t-48 -145q0 -95 48.5 -145.5t129.5 -50.5q49 0 86.5 20t60.5 59q5 11 15 6l139 -58q11 -5 5 -14q-39 -86 -120.5 -132.5t-190.5 -46.5q-81 0 -147.5 26t-114 73t-73.5 114t-26 149
t26 148.5t73.5 114t114 73.5t147.5 26q105 0 184.5 -43t119.5 -123zM386 892q3 6 9 6h168q11 0 13.5 -5.5t-4.5 -13.5l-91 -115q-3 -4 -8 -4h-137q-21 0 -11 17z" />
    <glyph glyph-name="cacute" unicode="&#x107;" horiz-adv-x="492" 
d="M477 339q6 -9 -4 -14l-105 -51q-11 -7 -16 5q-11 17 -28.5 27.5t-43.5 10.5q-39 0 -59 -28t-20 -69t20 -69t60 -28q26 0 42.5 10.5t27.5 27.5q5 12 17 5l103 -51q9 -5 5 -15q-33 -56 -83.5 -84t-122.5 -28q-53 0 -97 17t-76 48t-50 73.5t-18 93.5t18 93.5t49.5 73
t75.5 48t96 17.5q70 0 125.5 -30t83.5 -83zM257 662q3 6 9 6h168q11 0 13.5 -5.5t-4.5 -13.5l-91 -115q-3 -4 -8 -4h-137q-21 0 -11 17z" />
    <glyph glyph-name="Ccircumflex" unicode="&#x108;" horiz-adv-x="737" 
d="M704 546q7 -10 -5 -15l-135 -65q-9 -4 -15 5q-23 38 -60 56.5t-85 18.5q-81 0 -129 -51t-48 -145q0 -95 48.5 -145.5t129.5 -50.5q49 0 86.5 20t60.5 59q5 11 15 6l139 -58q11 -5 5 -14q-39 -86 -120.5 -132.5t-190.5 -46.5q-81 0 -147.5 26t-114 73t-73.5 114t-26 149
t26 148.5t73.5 114t114 73.5t147.5 26q105 0 184.5 -43t119.5 -123zM574 778q13 -18 -10 -18h-118q-7 0 -11 6l-38 77l-38 -77q-4 -6 -10 -6h-118q-23 0 -10 18l80 115q5 5 10 5h173q5 0 10 -5z" />
    <glyph glyph-name="ccircumflex" unicode="&#x109;" horiz-adv-x="492" 
d="M477 339q6 -9 -4 -14l-105 -51q-11 -7 -16 5q-11 17 -28.5 27.5t-43.5 10.5q-39 0 -59 -28t-20 -69t20 -69t60 -28q26 0 42.5 10.5t27.5 27.5q5 12 17 5l103 -51q9 -5 5 -15q-33 -56 -83.5 -84t-122.5 -28q-53 0 -97 17t-76 48t-50 73.5t-18 93.5t18 93.5t49.5 73
t75.5 48t96 17.5q70 0 125.5 -30t83.5 -83zM445 548q13 -18 -10 -18h-118q-7 0 -11 6l-38 77l-38 -77q-4 -6 -10 -6h-118q-23 0 -10 18l80 115q5 5 10 5h173q5 0 10 -5z" />
    <glyph glyph-name="Cdotaccent" unicode="&#x10a;" horiz-adv-x="737" 
d="M704 546q7 -10 -5 -15l-135 -65q-9 -4 -15 5q-23 38 -60 56.5t-85 18.5q-81 0 -129 -51t-48 -145q0 -95 48.5 -145.5t129.5 -50.5q49 0 86.5 20t60.5 59q5 11 15 6l139 -58q11 -5 5 -14q-39 -86 -120.5 -132.5t-190.5 -46.5q-81 0 -147.5 26t-114 73t-73.5 114t-26 149
t26 148.5t73.5 114t114 73.5t147.5 26q105 0 184.5 -43t119.5 -123zM395 922q42 0 68.5 -23t26.5 -65q0 -41 -26.5 -64.5t-68.5 -23.5q-41 0 -67 23.5t-26 64.5q0 42 26 65t67 23z" />
    <glyph glyph-name="cdotaccent" unicode="&#x10b;" horiz-adv-x="492" 
d="M477 339q6 -9 -4 -14l-105 -51q-11 -7 -16 5q-11 17 -28.5 27.5t-43.5 10.5q-39 0 -59 -28t-20 -69t20 -69t60 -28q26 0 42.5 10.5t27.5 27.5q5 12 17 5l103 -51q9 -5 5 -15q-33 -56 -83.5 -84t-122.5 -28q-53 0 -97 17t-76 48t-50 73.5t-18 93.5t18 93.5t49.5 73
t75.5 48t96 17.5q70 0 125.5 -30t83.5 -83zM266 692q42 0 68.5 -23t26.5 -65q0 -41 -26.5 -64.5t-68.5 -23.5q-41 0 -67 23.5t-26 64.5q0 42 26 65t67 23z" />
    <glyph glyph-name="Ccaron" unicode="&#x10c;" horiz-adv-x="737" 
d="M704 546q7 -10 -5 -15l-135 -65q-9 -4 -15 5q-23 38 -60 56.5t-85 18.5q-81 0 -129 -51t-48 -145q0 -95 48.5 -145.5t129.5 -50.5q49 0 86.5 20t60.5 59q5 11 15 6l139 -58q11 -5 5 -14q-39 -86 -120.5 -132.5t-190.5 -46.5q-81 0 -147.5 26t-114 73t-73.5 114t-26 149
t26 148.5t73.5 114t114 73.5t147.5 26q105 0 184.5 -43t119.5 -123zM564 898q23 0 10 -19l-80 -114q-5 -5 -10 -5h-173q-5 0 -10 5l-80 114q-13 19 10 19h118q7 0 10 -7l38 -76l38 76q4 7 11 7h118z" />
    <glyph glyph-name="ccaron" unicode="&#x10d;" horiz-adv-x="492" 
d="M477 339q6 -9 -4 -14l-105 -51q-11 -7 -16 5q-11 17 -28.5 27.5t-43.5 10.5q-39 0 -59 -28t-20 -69t20 -69t60 -28q26 0 42.5 10.5t27.5 27.5q5 12 17 5l103 -51q9 -5 5 -15q-33 -56 -83.5 -84t-122.5 -28q-53 0 -97 17t-76 48t-50 73.5t-18 93.5t18 93.5t49.5 73
t75.5 48t96 17.5q70 0 125.5 -30t83.5 -83zM435 668q23 0 10 -19l-80 -114q-5 -5 -10 -5h-173q-5 0 -10 5l-80 114q-13 19 10 19h118q7 0 10 -7l38 -76l38 76q4 7 11 7h118z" />
    <glyph glyph-name="Dcaron" unicode="&#x10e;" horiz-adv-x="751" 
d="M62 689q0 11 12 11h273q89 0 157.5 -26.5t115 -73t70 -109.5t23.5 -137q0 -75 -23.5 -140t-70 -112.5t-115 -74.5t-157.5 -27h-273q-12 0 -12 12v677zM245 166h104q47 0 80 14.5t54 40t31 59.5t10 74q0 39 -10 72t-31 57t-54 37.5t-80 13.5h-104v-368zM543 888
q23 0 10 -19l-80 -114q-5 -5 -10 -5h-173q-5 0 -10 5l-80 114q-13 19 10 19h118q7 0 10 -7l38 -76l38 76q4 7 11 7h118z" />
    <glyph glyph-name="dcaron" unicode="&#x10f;" horiz-adv-x="572" 
d="M230 452q40 0 70.5 -12.5t53.5 -35.5v325q0 11 12 11h146q11 0 11 -11v-717q0 -12 -11 -12h-105q-8 0 -11 8l-19 63q-23 -40 -59.5 -61.5t-83.5 -21.5q-96 0 -150.5 62t-54.5 170q0 53 14.5 96t40.5 73t63 46.5t83 16.5zM278 307q-40 0 -58.5 -26t-18.5 -61
q0 -37 18.5 -62t58.5 -25q38 0 58.5 24.5t20.5 62.5q0 36 -20.5 61.5t-58.5 25.5zM649 752q42 0 69.5 -24t27.5 -75q0 -52 -27.5 -96.5t-70.5 -69.5q-7 -4 -14 2l-28 31q-8 11 2 18q29 23 36 54q-37 0 -60 21t-23 54q0 40 25 62.5t63 22.5z" />
    <glyph glyph-name="Dcroat" unicode="&#x110;" horiz-adv-x="787" 
d="M98 689q0 11 12 11h281q86 0 153 -26.5t112.5 -73t69 -109.5t23.5 -137q0 -75 -23.5 -140t-69 -112.5t-112.5 -74.5t-153 -27h-281q-12 0 -12 12v277h-54q-12 0 -12 12v95q0 12 12 12h54v281zM401 408q12 0 12 -12v-95q0 -12 -12 -12h-120v-115h104q47 0 80 13t54 37
t31 57t10 73q0 39 -10 70.5t-31 54t-54 35t-80 12.5h-104v-118h120z" />
    <glyph glyph-name="dcroat" unicode="&#x111;" horiz-adv-x="599" 
d="M260 639q0 11 12 11h82v79q0 11 12 11h146q11 0 11 -11v-79h64q12 0 12 -11v-73q0 -11 -12 -11h-64v-543q0 -12 -11 -12h-105q-8 0 -11 8l-19 63q-23 -40 -59.5 -61.5t-83.5 -21.5q-96 0 -150.5 62t-54.5 170q0 53 14.5 96t40.5 73t63 46.5t83 16.5q40 0 70.5 -12.5
t53.5 -35.5v151h-82q-12 0 -12 11v73zM278 307q-40 0 -58.5 -26t-18.5 -61q0 -37 18.5 -62t58.5 -25q38 0 58.5 24.5t20.5 62.5q0 36 -20.5 61.5t-58.5 25.5z" />
    <glyph glyph-name="Emacron" unicode="&#x112;" horiz-adv-x="589" 
d="M62 689q0 11 12 11h458q11 0 11 -11v-143q0 -12 -11 -12h-287v-104h246q11 0 11 -11v-134q0 -12 -11 -12h-246v-107h292q11 0 11 -11v-143q0 -12 -11 -12h-463q-12 0 -12 12v677zM462 786q0 -11 -12 -11h-297q-12 0 -12 11v72q0 12 12 12h297q12 0 12 -12v-72z" />
    <glyph glyph-name="emacron" unicode="&#x113;" horiz-adv-x="518" 
d="M493 227q-2 -34 -6.5 -41.5t-12.5 -7.5h-279q5 -32 26 -49.5t56 -17.5q29 0 51.5 9t40.5 26q10 6 17 -1l72 -69q8 -8 0 -16q-81 -72 -194 -72q-56 0 -100 17t-74 48t-45.5 73t-15.5 93t16.5 94t47.5 73.5t74 48t97 17.5t98 -15t75 -44t46 -70.5t10 -95.5zM336 265
q0 24 -14.5 45t-55.5 21q-33 0 -52 -18.5t-21 -47.5h143zM414 566q0 -11 -12 -11h-297q-12 0 -12 11v72q0 12 12 12h297q12 0 12 -12v-72z" />
    <glyph glyph-name="Ebreve" unicode="&#x114;" horiz-adv-x="589" 
d="M62 689q0 11 12 11h458q11 0 11 -11v-143q0 -12 -11 -12h-287v-104h246q11 0 11 -11v-134q0 -12 -11 -12h-246v-107h292q11 0 11 -11v-143q0 -12 -11 -12h-463q-12 0 -12 12v677zM125 876q0 12 12 12h103q11 0 11 -12q2 -36 15 -49t36 -13t36.5 12.5t15.5 49.5
q0 12 11 12h103q12 0 12 -12q-2 -34 -13 -62t-33 -48.5t-54.5 -32t-77.5 -11.5q-44 0 -76.5 11.5t-54.5 32t-33 48.5t-13 62z" />
    <glyph glyph-name="ebreve" unicode="&#x115;" horiz-adv-x="518" 
d="M493 227q-2 -34 -6.5 -41.5t-12.5 -7.5h-279q5 -32 26 -49.5t56 -17.5q29 0 51.5 9t40.5 26q10 6 17 -1l72 -69q8 -8 0 -16q-81 -72 -194 -72q-56 0 -100 17t-74 48t-45.5 73t-15.5 93t16.5 94t47.5 73.5t74 48t97 17.5t98 -15t75 -44t46 -70.5t10 -95.5zM336 265
q0 24 -14.5 45t-55.5 21q-33 0 -52 -18.5t-21 -47.5h143zM76 656q0 12 12 12h103q11 0 11 -12q2 -36 15 -49t36 -13t36.5 12.5t15.5 49.5q0 12 11 12h103q12 0 12 -12q-2 -34 -13 -62t-33 -48.5t-54.5 -32t-77.5 -11.5q-44 0 -76.5 11.5t-54.5 32t-33 48.5t-13 62z" />
    <glyph glyph-name="Edotaccent" unicode="&#x116;" horiz-adv-x="589" 
d="M62 689q0 11 12 11h458q11 0 11 -11v-143q0 -12 -11 -12h-287v-104h246q11 0 11 -11v-134q0 -12 -11 -12h-246v-107h292q11 0 11 -11v-143q0 -12 -11 -12h-463q-12 0 -12 12v677zM301 912q42 0 68.5 -23t26.5 -65q0 -41 -26.5 -64.5t-68.5 -23.5q-41 0 -67 23.5t-26 64.5
q0 42 26 65t67 23z" />
    <glyph glyph-name="edotaccent" unicode="&#x117;" horiz-adv-x="518" 
d="M493 227q-2 -34 -6.5 -41.5t-12.5 -7.5h-279q5 -32 26 -49.5t56 -17.5q29 0 51.5 9t40.5 26q10 6 17 -1l72 -69q8 -8 0 -16q-81 -72 -194 -72q-56 0 -100 17t-74 48t-45.5 73t-15.5 93t16.5 94t47.5 73.5t74 48t97 17.5t98 -15t75 -44t46 -70.5t10 -95.5zM336 265
q0 24 -14.5 45t-55.5 21q-33 0 -52 -18.5t-21 -47.5h143zM253 692q42 0 68.5 -23t26.5 -65q0 -41 -26.5 -64.5t-68.5 -23.5q-41 0 -67 23.5t-26 64.5q0 42 26 65t67 23z" />
    <glyph glyph-name="Eogonek" unicode="&#x118;" horiz-adv-x="578" 
d="M56 689q0 11 12 11h458q11 0 11 -11v-143q0 -12 -11 -12h-287v-104h246q11 0 11 -11v-134q0 -12 -11 -12h-246v-107h292q11 0 11 -11v-143q0 -9 -3.5 -13.5t-15.5 -12.5q-23 -16 -31 -32t-8 -32q0 -32 32 -32q5 0 9 0.5t8 1.5q12 2 14 -10l16 -74q2 -10 -8 -13
q-18 -6 -42 -10.5t-51 -4.5q-36 0 -60 9t-39 23t-21.5 32.5t-6.5 37.5q0 31 16 61.5t57 56.5h-340q-12 0 -12 12v677z" />
    <glyph glyph-name="eogonek" unicode="&#x119;" horiz-adv-x="518" 
d="M493 227q-2 -34 -6.5 -41.5t-12.5 -7.5h-279q5 -32 26 -49.5t56 -17.5q29 0 51.5 9t40.5 26q10 6 17 -1l70 -67q8 -8 1 -17q-10 -9 -20 -17t-19 -17q-32 -26 -41.5 -51.5t-9.5 -45.5q0 -21 11 -30.5t26 -9.5q7 0 17 2q11 2 13 -10l16 -74q2 -10 -8 -13q-17 -6 -41 -10.5
t-52 -4.5q-59 0 -88 27t-29 72q0 23 13.5 54t47.5 60q-15 -5 -29 -5q-56 0 -100 17t-74 48t-45.5 73t-15.5 93t16.5 94t47.5 73.5t74 48t97 17.5t98 -15t75 -44t46 -70.5t10 -95.5zM336 265q0 24 -14.5 45t-55.5 21q-33 0 -52 -18.5t-21 -47.5h143z" />
    <glyph glyph-name="Ecaron" unicode="&#x11a;" horiz-adv-x="589" 
d="M62 689q0 11 12 11h458q11 0 11 -11v-143q0 -12 -11 -12h-287v-104h246q11 0 11 -11v-134q0 -12 -11 -12h-246v-107h292q11 0 11 -11v-143q0 -12 -11 -12h-463q-12 0 -12 12v677zM470 888q23 0 10 -19l-80 -114q-5 -5 -10 -5h-173q-5 0 -10 5l-80 114q-13 19 10 19h118
q7 0 10 -7l38 -76l38 76q4 7 11 7h118z" />
    <glyph glyph-name="ecaron" unicode="&#x11b;" horiz-adv-x="518" 
d="M493 227q-2 -34 -6.5 -41.5t-12.5 -7.5h-279q5 -32 26 -49.5t56 -17.5q29 0 51.5 9t40.5 26q10 6 17 -1l72 -69q8 -8 0 -16q-81 -72 -194 -72q-56 0 -100 17t-74 48t-45.5 73t-15.5 93t16.5 94t47.5 73.5t74 48t97 17.5t98 -15t75 -44t46 -70.5t10 -95.5zM336 265
q0 24 -14.5 45t-55.5 21q-33 0 -52 -18.5t-21 -47.5h143zM422 668q23 0 10 -19l-80 -114q-5 -5 -10 -5h-173q-5 0 -10 5l-80 114q-13 19 10 19h118q7 0 10 -7l38 -76l38 76q4 7 11 7h118z" />
    <glyph glyph-name="Gcircumflex" unicode="&#x11c;" horiz-adv-x="808" 
d="M422 263q-12 0 -12 12v114q0 11 12 11h334q10 0 10 -9q2 -15 3 -28.5t1 -26.5q0 -78 -25.5 -142t-72 -110t-112 -71t-145.5 -25q-85 0 -154.5 26t-119 73t-76 114t-26.5 149q0 81 26.5 148t74.5 114.5t115.5 73.5t149.5 26q108 0 192.5 -42.5t125.5 -123.5q4 -10 -5 -16
l-137 -65q-10 -4 -16 6q-22 37 -61 56t-90 19q-88 0 -137.5 -53t-49.5 -147q0 -93 49.5 -145t142.5 -52q63 0 106.5 31.5t51.5 82.5h-155zM587 778q13 -18 -10 -18h-118q-7 0 -11 6l-38 77l-38 -77q-4 -6 -10 -6h-118q-23 0 -10 18l80 115q5 5 10 5h173q5 0 10 -5z" />
    <glyph glyph-name="gcircumflex" unicode="&#x11d;" horiz-adv-x="531" 
d="M511 323q0 -11 -12 -11l-90 -1q14 -11 21.5 -28t7.5 -44q0 -24 -11.5 -45.5t-34 -38t-55 -26t-73.5 -9.5q-20 0 -38 2t-35 6l-4 -8t-2 -9q0 -14 10.5 -20t31.5 -9l102 -15q83 -11 127.5 -37t44.5 -82q0 -36 -19.5 -64t-55.5 -46.5t-86 -28t-111 -9.5q-229 0 -229 125
q0 62 65 101q-19 22 -19 56q0 52 49 84q-59 44 -59 120q0 75 49.5 120.5t144.5 45.5q24 0 50 -3t49 -9h170q12 0 12 -11v-106zM253 340q-29 0 -43.5 -16t-14.5 -39t16 -38t42 -15q29 0 44.5 15t15.5 39q0 23 -15.5 38.5t-44.5 15.5zM173 -25q-12 -14 -12 -32q0 -22 18 -33.5
t63 -11.5q43 0 67.5 6.5t24.5 22.5q0 11 -7.5 17.5t-32.5 10.5l-95 14q-7 2 -13.5 3t-12.5 3zM431 548q13 -18 -10 -18h-118q-7 0 -11 6l-38 77l-38 -77q-4 -6 -10 -6h-118q-23 0 -10 18l80 115q5 5 10 5h173q5 0 10 -5z" />
    <glyph glyph-name="Gbreve" unicode="&#x11e;" horiz-adv-x="808" 
d="M422 263q-12 0 -12 12v114q0 11 12 11h334q10 0 10 -9q2 -15 3 -28.5t1 -26.5q0 -78 -25.5 -142t-72 -110t-112 -71t-145.5 -25q-85 0 -154.5 26t-119 73t-76 114t-26.5 149q0 81 26.5 148t74.5 114.5t115.5 73.5t149.5 26q108 0 192.5 -42.5t125.5 -123.5q4 -10 -5 -16
l-137 -65q-10 -4 -16 6q-22 37 -61 56t-90 19q-88 0 -137.5 -53t-49.5 -147q0 -93 49.5 -145t142.5 -52q63 0 106.5 31.5t51.5 82.5h-155zM231 886q0 12 12 12h103q11 0 11 -12q2 -36 15 -49t36 -13t36.5 12.5t15.5 49.5q0 12 11 12h103q12 0 12 -12q-2 -34 -13 -62
t-33 -48.5t-54.5 -32t-77.5 -11.5q-44 0 -76.5 11.5t-54.5 32t-33 48.5t-13 62z" />
    <glyph glyph-name="gbreve" unicode="&#x11f;" horiz-adv-x="531" 
d="M511 323q0 -11 -12 -11l-90 -1q14 -11 21.5 -28t7.5 -44q0 -24 -11.5 -45.5t-34 -38t-55 -26t-73.5 -9.5q-20 0 -38 2t-35 6l-4 -8t-2 -9q0 -14 10.5 -20t31.5 -9l102 -15q83 -11 127.5 -37t44.5 -82q0 -36 -19.5 -64t-55.5 -46.5t-86 -28t-111 -9.5q-229 0 -229 125
q0 62 65 101q-19 22 -19 56q0 52 49 84q-59 44 -59 120q0 75 49.5 120.5t144.5 45.5q24 0 50 -3t49 -9h170q12 0 12 -11v-106zM253 340q-29 0 -43.5 -16t-14.5 -39t16 -38t42 -15q29 0 44.5 15t15.5 39q0 23 -15.5 38.5t-44.5 15.5zM173 -25q-12 -14 -12 -32q0 -22 18 -33.5
t63 -11.5q43 0 67.5 6.5t24.5 22.5q0 11 -7.5 17.5t-32.5 10.5l-95 14q-7 2 -13.5 3t-12.5 3zM75 656q0 12 12 12h103q11 0 11 -12q2 -36 15 -49t36 -13t36.5 12.5t15.5 49.5q0 12 11 12h103q12 0 12 -12q-2 -34 -13 -62t-33 -48.5t-54.5 -32t-77.5 -11.5q-44 0 -76.5 11.5
t-54.5 32t-33 48.5t-13 62z" />
    <glyph glyph-name="Gdotaccent" unicode="&#x120;" horiz-adv-x="808" 
d="M422 263q-12 0 -12 12v114q0 11 12 11h334q10 0 10 -9q2 -15 3 -28.5t1 -26.5q0 -78 -25.5 -142t-72 -110t-112 -71t-145.5 -25q-85 0 -154.5 26t-119 73t-76 114t-26.5 149q0 81 26.5 148t74.5 114.5t115.5 73.5t149.5 26q108 0 192.5 -42.5t125.5 -123.5q4 -10 -5 -16
l-137 -65q-10 -4 -16 6q-22 37 -61 56t-90 19q-88 0 -137.5 -53t-49.5 -147q0 -93 49.5 -145t142.5 -52q63 0 106.5 31.5t51.5 82.5h-155zM407 922q42 0 68.5 -23t26.5 -65q0 -41 -26.5 -64.5t-68.5 -23.5q-41 0 -67 23.5t-26 64.5q0 42 26 65t67 23z" />
    <glyph glyph-name="gdotaccent" unicode="&#x121;" horiz-adv-x="531" 
d="M511 323q0 -11 -12 -11l-90 -1q14 -11 21.5 -28t7.5 -44q0 -24 -11.5 -45.5t-34 -38t-55 -26t-73.5 -9.5q-20 0 -38 2t-35 6l-4 -8t-2 -9q0 -14 10.5 -20t31.5 -9l102 -15q83 -11 127.5 -37t44.5 -82q0 -36 -19.5 -64t-55.5 -46.5t-86 -28t-111 -9.5q-229 0 -229 125
q0 62 65 101q-19 22 -19 56q0 52 49 84q-59 44 -59 120q0 75 49.5 120.5t144.5 45.5q24 0 50 -3t49 -9h170q12 0 12 -11v-106zM253 340q-29 0 -43.5 -16t-14.5 -39t16 -38t42 -15q29 0 44.5 15t15.5 39q0 23 -15.5 38.5t-44.5 15.5zM173 -25q-12 -14 -12 -32q0 -22 18 -33.5
t63 -11.5q43 0 67.5 6.5t24.5 22.5q0 11 -7.5 17.5t-32.5 10.5l-95 14q-7 2 -13.5 3t-12.5 3zM251 692q42 0 68.5 -23t26.5 -65q0 -41 -26.5 -64.5t-68.5 -23.5q-41 0 -67 23.5t-26 64.5q0 42 26 65t67 23z" />
    <glyph glyph-name="uni0122" unicode="&#x122;" horiz-adv-x="808" 
d="M422 263q-12 0 -12 12v114q0 11 12 11h334q10 0 10 -9q2 -15 3 -28.5t1 -26.5q0 -78 -25.5 -142t-72 -110t-112 -71t-145.5 -25q-85 0 -154.5 26t-119 73t-76 114t-26.5 149q0 81 26.5 148t74.5 114.5t115.5 73.5t149.5 26q108 0 192.5 -42.5t125.5 -123.5q4 -10 -5 -16
l-137 -65q-10 -4 -16 6q-22 37 -61 56t-90 19q-88 0 -137.5 -53t-49.5 -147q0 -93 49.5 -145t142.5 -52q63 0 106.5 31.5t51.5 82.5h-155zM415 -30q36 0 60.5 -17t24.5 -57q0 -21 -9 -39t-23 -32.5t-30.5 -25.5t-30.5 -17q-9 -3 -14 2l-24 25q-10 10 2 19q18 14 26 32
q-28 -5 -45.5 9.5t-17.5 37.5q0 30 22.5 46.5t58.5 16.5z" />
    <glyph glyph-name="uni0123" unicode="&#x123;" horiz-adv-x="531" 
d="M511 323q0 -11 -12 -11l-90 -1q14 -11 21.5 -28t7.5 -44q0 -24 -11.5 -45.5t-34 -38t-55 -26t-73.5 -9.5q-20 0 -38 2t-35 6l-4 -8t-2 -9q0 -14 10.5 -20t31.5 -9l102 -15q83 -11 127.5 -37t44.5 -82q0 -36 -19.5 -64t-55.5 -46.5t-86 -28t-111 -9.5q-229 0 -229 125
q0 62 65 101q-19 22 -19 56q0 52 49 84q-59 44 -59 120q0 75 49.5 120.5t144.5 45.5q24 0 50 -3t49 -9h170q12 0 12 -11v-106zM253 340q-29 0 -43.5 -16t-14.5 -39t16 -38t42 -15q29 0 44.5 15t15.5 39q0 23 -15.5 38.5t-44.5 15.5zM173 -25q-12 -14 -12 -32q0 -22 18 -33.5
t63 -11.5q43 0 67.5 6.5t24.5 22.5q0 11 -7.5 17.5t-32.5 10.5l-95 14q-7 2 -13.5 3t-12.5 3zM252 530q-42 0 -70.5 22.5t-28.5 74.5q0 49 27.5 93t72.5 66q7 4 14 -3l26 -32q8 -11 -2 -18q-28 -19 -36 -46q40 1 63 -19.5t23 -53.5q0 -39 -24 -61.5t-65 -22.5z" />
    <glyph glyph-name="Hcircumflex" unicode="&#x124;" horiz-adv-x="725" 
d="M652 700q11 0 11 -11v-677q0 -12 -11 -12h-160q-12 0 -12 12v248h-235v-248q0 -12 -12 -12h-160q-11 0 -11 12v677q0 11 11 11h160q12 0 12 -11v-260h235v260q0 11 12 11h160zM541 768q13 -18 -10 -18h-118q-7 0 -11 6l-38 77l-38 -77q-4 -6 -10 -6h-118q-23 0 -10 18
l80 115q5 5 10 5h173q5 0 10 -5z" />
    <glyph glyph-name="hcircumflex" unicode="&#x125;" horiz-adv-x="553" 
d="M207 740q12 0 12 -11v-329q26 24 59.5 38t72.5 14q75 0 116 -49.5t41 -136.5v-254q0 -12 -11 -12h-146q-12 0 -12 12v223q0 13 -2.5 26t-9 23t-17 16.5t-27.5 6.5q-32 0 -48 -23t-16 -54v-218q0 -12 -12 -12h-146q-11 0 -11 12v717q0 11 11 11h146zM313 788
q13 -18 -10 -18h-118q-7 0 -11 6l-38 77l-38 -77q-4 -6 -10 -6h-118q-23 0 -10 18l80 115q5 5 10 5h173q5 0 10 -5z" />
    <glyph glyph-name="Hbar" unicode="&#x126;" horiz-adv-x="797" 
d="M43 509q-11 0 -11 11v88q0 12 11 12h55v69q0 11 11 11h160q11 0 11 -11v-69h236v69q0 11 12 11h160q11 0 11 -11v-69h55q11 0 11 -12v-88q0 -11 -11 -11h-55v-497q0 -12 -11 -12h-160q-12 0 -12 12v248h-236v-248q0 -12 -11 -12h-160q-11 0 -11 12v497h-55zM516 429v80
h-236v-80h236z" />
    <glyph glyph-name="hbar" unicode="&#x127;" horiz-adv-x="562" 
d="M0 639q0 11 12 11h46v79q0 11 11 11h146q12 0 12 -11v-79h100q11 0 11 -11v-73q0 -11 -11 -11h-100v-155q26 24 59.5 38t72.5 14q75 0 116.5 -49.5t41.5 -136.5v-254q0 -12 -12 -12h-146q-12 0 -12 12v223q0 13 -2.5 26t-9 23t-17 16.5t-26.5 6.5q-33 0 -49 -23t-16 -54
v-218q0 -12 -12 -12h-146q-11 0 -11 12v543h-46q-12 0 -12 11v73z" />
    <glyph glyph-name="Itilde" unicode="&#x128;" horiz-adv-x="304" 
d="M232 700q11 0 11 -11v-677q0 -12 -11 -12h-158q-12 0 -12 12v677q0 11 12 11h158zM332 895q12 0 12 -11q-2 -80 -29 -117.5t-75 -37.5q-24 0 -43.5 9.5t-36 20.5t-30 20.5t-27.5 9.5q-11 0 -18.5 -9t-9.5 -38q0 -12 -12 -12h-91q-12 0 -12 12q2 78 27.5 120t72.5 42
q23 0 42.5 -11t37 -24.5t32.5 -25t28 -11.5t20.5 10t8.5 42q0 11 12 11h91z" />
    <glyph glyph-name="itilde" unicode="&#x129;" horiz-adv-x="265" 
d="M206 440q11 0 11 -11v-417q0 -12 -11 -12h-146q-12 0 -12 12v417q0 11 12 11h146zM312 675q12 0 12 -11q-2 -80 -29 -117.5t-75 -37.5q-24 0 -43.5 9.5t-36 20.5t-30 20.5t-27.5 9.5q-11 0 -18.5 -9t-9.5 -38q0 -12 -12 -12h-91q-12 0 -12 12q2 78 27.5 120t72.5 42
q23 0 42.5 -11t37 -24.5t32.5 -25t28 -11.5t20.5 10t8.5 42q0 11 12 11h91z" />
    <glyph glyph-name="Imacron" unicode="&#x12a;" horiz-adv-x="304" 
d="M232 700q11 0 11 -11v-677q0 -12 -11 -12h-158q-12 0 -12 12v677q0 11 12 11h158zM313 786q0 -11 -12 -11h-297q-12 0 -12 11v72q0 12 12 12h297q12 0 12 -12v-72z" />
    <glyph glyph-name="imacron" unicode="&#x12b;" horiz-adv-x="265" 
d="M206 440q11 0 11 -11v-417q0 -12 -11 -12h-146q-12 0 -12 12v417q0 11 12 11h146zM293 566q0 -11 -12 -11h-297q-12 0 -12 11v72q0 12 12 12h297q12 0 12 -12v-72z" />
    <glyph glyph-name="Ibreve" unicode="&#x12c;" horiz-adv-x="304" 
d="M232 700q11 0 11 -11v-677q0 -12 -11 -12h-158q-12 0 -12 12v677q0 11 12 11h158zM-25 876q0 12 12 12h103q11 0 11 -12q2 -36 15 -49t36 -13t36.5 12.5t15.5 49.5q0 12 11 12h103q12 0 12 -12q-2 -34 -13 -62t-33 -48.5t-54.5 -32t-77.5 -11.5q-44 0 -76.5 11.5
t-54.5 32t-33 48.5t-13 62z" />
    <glyph glyph-name="ibreve" unicode="&#x12d;" horiz-adv-x="265" 
d="M206 440q11 0 11 -11v-417q0 -12 -11 -12h-146q-12 0 -12 12v417q0 11 12 11h146zM-44 656q0 12 12 12h103q11 0 11 -12q2 -36 15 -49t36 -13t36.5 12.5t15.5 49.5q0 12 11 12h103q12 0 12 -12q-2 -34 -13 -62t-33 -48.5t-54.5 -32t-77.5 -11.5q-44 0 -76.5 11.5
t-54.5 32t-33 48.5t-13 62z" />
    <glyph glyph-name="Iogonek" unicode="&#x12e;" horiz-adv-x="304" 
d="M232 700q11 0 11 -11v-677q0 -12 -11 -12h-158q-12 0 -12 12v677q0 11 12 11h158zM234 -108q12 2 14 -10l16 -74q2 -10 -8 -13q-18 -6 -42 -10.5t-51 -4.5q-36 0 -60 9t-39 23t-21.5 32.5t-6.5 37.5q0 38 22 74.5t76 67.5q5 3 8 1l76 -19q24 -6 5 -22q-20 -17 -28.5 -33
t-8.5 -31q0 -30 31 -30q5 0 9 0.5t8 1.5z" />
    <glyph glyph-name="iogonek" unicode="&#x12f;" horiz-adv-x="254" 
d="M127 691q39 0 66.5 -21.5t27.5 -66.5q0 -44 -27.5 -66t-66.5 -22q-38 0 -65 22t-27 66q0 45 27 66.5t65 21.5zM200 440q11 0 11 -11v-423q0 -5 -5 -10q-28 -20 -40 -39t-12 -37q0 -30 32 -30q5 0 8.5 0.5t7.5 1.5q12 2 14 -10l16 -74q2 -10 -8 -13q-17 -6 -41.5 -10.5
t-51.5 -4.5q-36 0 -60 9t-39 23t-21.5 32.5t-6.5 37.5q0 34 10.5 59.5t27.5 48.5v439q0 11 12 11h146z" />
    <glyph glyph-name="Idotaccent" unicode="&#x130;" horiz-adv-x="304" 
d="M232 700q11 0 11 -11v-677q0 -12 -11 -12h-158q-12 0 -12 12v677q0 11 12 11h158zM152 912q42 0 68.5 -23t26.5 -65q0 -41 -26.5 -64.5t-68.5 -23.5q-41 0 -67 23.5t-26 64.5q0 42 26 65t67 23z" />
    <glyph glyph-name="dotlessi" unicode="&#x131;" horiz-adv-x="265" 
d="M206 440q11 0 11 -11v-417q0 -12 -11 -12h-146q-12 0 -12 12v417q0 11 12 11h146z" />
    <glyph glyph-name="IJ" unicode="&#x132;" horiz-adv-x="607" 
d="M231 700q12 0 12 -11v-557q0 -11 -12 -11h-158q-11 0 -11 11v557q0 11 11 11h158zM534 700q11 0 11 -11v-616q0 -132 -59.5 -192.5t-181.5 -60.5q-118 0 -179.5 54t-62.5 164q0 11 12 11h158q12 0 12 -11q2 -32 15.5 -44.5t44.5 -12.5q34 0 47 15.5t13 59.5v633
q0 11 12 11h158z" />
    <glyph glyph-name="ij" unicode="&#x133;" horiz-adv-x="530" 
d="M206 440q11 0 11 -11v-417q0 -12 -11 -12h-146q-12 0 -12 12v417q0 11 12 11h146zM132 692q42 0 68.5 -23t26.5 -65q0 -41 -26.5 -64.5t-68.5 -23.5q-41 0 -67 23.5t-26 64.5q0 42 26 65t67 23zM470 440q12 0 12 -11v-394q0 -110 -49.5 -166t-155.5 -59q-11 0 -11 11v137
q0 10 11 12q22 3 29 16t7 36v407q0 11 11 11h146zM397 692q42 0 68.5 -23t26.5 -65q0 -41 -26.5 -64.5t-68.5 -23.5q-41 0 -67 23.5t-26 64.5q0 42 26 65t67 23z" />
    <glyph glyph-name="Jcircumflex" unicode="&#x134;" horiz-adv-x="304" 
d="M232 700q11 0 11 -11v-616q0 -64 -18.5 -111t-53 -78t-83.5 -47t-109 -17q-12 0 -12 11v139q0 11 12 11q42 2 62.5 22.5t20.5 69.5v616q0 11 12 11h158zM330 768q13 -18 -10 -18h-118q-7 0 -11 6l-38 77l-38 -77q-4 -6 -10 -6h-118q-23 0 -10 18l80 115q5 5 10 5h173
q5 0 10 -5z" />
    <glyph glyph-name="jcircumflex" unicode="&#x135;" horiz-adv-x="265" 
d="M205 440q12 0 12 -11v-394q0 -110 -49.5 -166t-155.5 -59q-11 0 -11 11v137q0 10 11 12q22 3 29 16t7 36v407q0 11 11 11h146zM311 548q13 -18 -10 -18h-118q-7 0 -11 6l-38 77l-38 -77q-4 -6 -10 -6h-118q-23 0 -10 18l80 115q5 5 10 5h173q5 0 10 -5z" />
    <glyph glyph-name="uni0136" unicode="&#x136;" horiz-adv-x="712" 
d="M62 689q0 11 12 11h159q12 0 12 -11v-286l238 289q6 8 17 8h189q11 0 13.5 -5.5t-5.5 -13.5l-271 -308l279 -354q7 -8 4.5 -13.5t-13.5 -5.5h-205q-10 0 -15 8l-231 312v-308q0 -12 -12 -12h-159q-12 0 -12 12v677zM355 -30q36 0 60.5 -17t24.5 -57q0 -21 -9 -39
t-23 -32.5t-30.5 -25.5t-30.5 -17q-9 -3 -14 2l-24 25q-10 10 2 19q18 14 26 32q-28 -5 -45.5 9.5t-17.5 37.5q0 30 22.5 46.5t58.5 16.5z" />
    <glyph glyph-name="uni0137" unicode="&#x137;" horiz-adv-x="594" 
d="M50 729q0 11 11 11h146q12 0 12 -11v-468l132 175q4 4 9 4h197q5 0 6.5 -4t-2.5 -8l-176 -191l189 -226q3 -4 2 -7.5t-6 -3.5h-201q-6 0 -10 5l-140 188v-181q0 -12 -12 -12h-146q-11 0 -11 12v717zM284 -30q36 0 60.5 -17t24.5 -57q0 -21 -9 -39t-23 -32.5t-30.5 -25.5
t-30.5 -17q-9 -3 -14 2l-24 25q-10 10 2 19q18 14 26 32q-28 -5 -45.5 9.5t-17.5 37.5q0 30 22.5 46.5t58.5 16.5z" />
    <glyph glyph-name="kgreenlandic" unicode="&#x138;" horiz-adv-x="593" 
d="M48 429q0 11 11 11h146q12 0 12 -11v-168l132 175q4 4 10 4h196q5 0 6.5 -4t-1.5 -8l-176 -191l188 -226q3 -4 2 -7.5t-5 -3.5h-202q-6 0 -9 5l-141 188v-181q0 -12 -12 -12h-146q-11 0 -11 12v417z" />
    <glyph glyph-name="Lacute" unicode="&#x139;" horiz-adv-x="579" 
d="M233 700q12 0 12 -11v-520h292q11 0 11 -11v-146q0 -12 -11 -12h-463q-12 0 -12 12v677q0 11 12 11h159zM144 882q3 6 9 6h168q11 0 13.5 -5.5t-4.5 -13.5l-91 -115q-3 -4 -8 -4h-137q-21 0 -11 17z" />
    <glyph glyph-name="lacute" unicode="&#x13a;" horiz-adv-x="263" 
d="M215 12q0 -12 -12 -12h-142q-11 0 -11 12v717q0 11 11 11h142q12 0 12 -11v-717zM122 902q3 6 9 6h168q11 0 13.5 -5.5t-4.5 -13.5l-91 -115q-3 -4 -8 -4h-137q-21 0 -11 17z" />
    <glyph glyph-name="uni013B" unicode="&#x13b;" horiz-adv-x="579" 
d="M233 700q12 0 12 -11v-520h292q11 0 11 -11v-146q0 -12 -11 -12h-463q-12 0 -12 12v677q0 11 12 11h159zM310 -30q36 0 60.5 -17t24.5 -57q0 -21 -9 -39t-23 -32.5t-30.5 -25.5t-30.5 -17q-9 -3 -14 2l-24 25q-10 10 2 19q18 14 26 32q-28 -5 -45.5 9.5t-17.5 37.5
q0 30 22.5 46.5t58.5 16.5z" />
    <glyph glyph-name="uni013C" unicode="&#x13c;" horiz-adv-x="263" 
d="M215 12q0 -12 -12 -12h-142q-11 0 -11 12v717q0 11 11 11h142q12 0 12 -11v-717zM134 -30q36 0 60.5 -17t24.5 -57q0 -21 -9 -39t-23 -32.5t-30.5 -25.5t-30.5 -17q-9 -3 -14 2l-24 25q-10 10 2 19q18 14 26 32q-28 -5 -45.5 9.5t-17.5 37.5q0 30 22.5 46.5t58.5 16.5z
" />
    <glyph glyph-name="Lcaron" unicode="&#x13d;" horiz-adv-x="579" 
d="M233 700q12 0 12 -11v-520h292q11 0 11 -11v-146q0 -12 -11 -12h-463q-12 0 -12 12v677q0 11 12 11h159zM423 712q42 0 69.5 -24t27.5 -75q0 -52 -27.5 -96.5t-70.5 -69.5q-7 -4 -14 2l-28 31q-8 11 2 18q29 23 36 54q-37 0 -60 21t-23 54q0 40 25 62.5t63 22.5z" />
    <glyph glyph-name="lcaron" unicode="&#x13e;" horiz-adv-x="263" 
d="M215 12q0 -12 -12 -12h-142q-11 0 -11 12v717q0 11 11 11h142q12 0 12 -11v-717zM340 752q42 0 69.5 -24t27.5 -75q0 -52 -27.5 -96.5t-70.5 -69.5q-7 -4 -14 2l-28 31q-8 11 2 18q29 23 36 54q-37 0 -60 21t-23 54q0 40 25 62.5t63 22.5z" />
    <glyph glyph-name="Ldot" unicode="&#x13f;" horiz-adv-x="579" 
d="M233 700q12 0 12 -11v-520h292q11 0 11 -11v-146q0 -12 -11 -12h-463q-12 0 -12 12v677q0 11 12 11h159zM436 523q21 0 39 -7.5t31.5 -21t21.5 -32t8 -39.5t-8 -39t-21.5 -31.5t-31.5 -21.5t-39 -8q-20 0 -38 8t-31.5 21.5t-21.5 31.5t-8 39t8 39.5t21.5 32t31.5 21
t38 7.5z" />
    <glyph glyph-name="ldot" unicode="&#x140;" horiz-adv-x="554" 
d="M215 12q0 -12 -12 -12h-142q-11 0 -11 12v717q0 11 11 11h142q12 0 12 -11v-717zM365 470q21 0 39 -7.5t31.5 -21t21.5 -32t8 -39.5t-8 -39t-21.5 -31.5t-31.5 -21.5t-39 -8q-20 0 -38 8t-31.5 21.5t-21.5 31.5t-8 39t8 39.5t21.5 32t31.5 21t38 7.5z" />
    <glyph glyph-name="Lslash" unicode="&#x141;" horiz-adv-x="631" 
d="M62 234q-12 -5 -15 6l-33 74q-5 11 5 16l95 42v317q0 11 11 11h160q11 0 11 -11v-236l125 55q12 3 15 -6l32 -75q5 -11 -5 -16l-167 -72v-170h292q12 0 12 -11v-146q0 -12 -12 -12h-463q-11 0 -11 12v246z" />
    <glyph glyph-name="lslash" unicode="&#x142;" horiz-adv-x="257" 
d="M3 256q-11 -6 -16 4l-29 47q-6 11 4 16l84 53v353q0 11 11 11h143q11 0 11 -11v-249l43 27q11 6 16 -4l29 -47q5 -10 -4 -15l-84 -53v-376q0 -12 -11 -12h-143q-11 0 -11 12v271z" />
    <glyph glyph-name="Nacute" unicode="&#x143;" horiz-adv-x="742" 
d="M670 700q11 0 11 -11v-682q0 -12 -11 -12h-52q-8 0 -13 5l-362 372v-360q0 -12 -11 -12h-158q-12 0 -12 12v682q0 11 12 11h49q9 0 16 -7l361 -371v362q0 11 11 11h159zM344 882q3 6 9 6h168q11 0 13.5 -5.5t-4.5 -13.5l-91 -115q-3 -4 -8 -4h-137q-21 0 -11 17z" />
    <glyph glyph-name="nacute" unicode="&#x144;" horiz-adv-x="552" 
d="M165 440q8 0 11 -8l18 -55q27 35 66.5 55t87.5 20q75 0 117 -49t42 -136v-255q0 -12 -12 -12h-146q-11 0 -11 12v224q0 27 -11.5 49t-45.5 22q-32 0 -48 -22.5t-16 -53.5v-219q0 -12 -11 -12h-146q-12 0 -12 12v417q0 11 12 11h105zM283 662q3 6 9 6h168q11 0 13.5 -5.5
t-4.5 -13.5l-91 -115q-3 -4 -8 -4h-137q-21 0 -11 17z" />
    <glyph glyph-name="uni0145" unicode="&#x145;" horiz-adv-x="742" 
d="M670 700q11 0 11 -11v-682q0 -12 -11 -12h-52q-8 0 -13 5l-362 372v-360q0 -12 -11 -12h-158q-12 0 -12 12v682q0 11 12 11h49q9 0 16 -7l361 -371v362q0 11 11 11h159zM393 -30q36 0 60.5 -17t24.5 -57q0 -21 -9 -39t-23 -32.5t-30.5 -25.5t-30.5 -17q-9 -3 -14 2
l-24 25q-10 10 2 19q18 14 26 32q-28 -5 -45.5 9.5t-17.5 37.5q0 30 22.5 46.5t58.5 16.5z" />
    <glyph glyph-name="uni0146" unicode="&#x146;" horiz-adv-x="552" 
d="M165 440q8 0 11 -8l18 -55q27 35 66.5 55t87.5 20q75 0 117 -49t42 -136v-255q0 -12 -12 -12h-146q-11 0 -11 12v224q0 27 -11.5 49t-45.5 22q-32 0 -48 -22.5t-16 -53.5v-219q0 -12 -11 -12h-146q-12 0 -12 12v417q0 11 12 11h105zM285 -30q36 0 60.5 -17t24.5 -57
q0 -21 -9 -39t-23 -32.5t-30.5 -25.5t-30.5 -17q-9 -3 -14 2l-24 25q-10 10 2 19q18 14 26 32q-28 -5 -45.5 9.5t-17.5 37.5q0 30 22.5 46.5t58.5 16.5z" />
    <glyph glyph-name="Ncaron" unicode="&#x147;" horiz-adv-x="742" 
d="M670 700q11 0 11 -11v-682q0 -12 -11 -12h-52q-8 0 -13 5l-362 372v-360q0 -12 -11 -12h-158q-12 0 -12 12v682q0 11 12 11h49q9 0 16 -7l361 -371v362q0 11 11 11h159zM522 888q23 0 10 -19l-80 -114q-5 -5 -10 -5h-173q-5 0 -10 5l-80 114q-13 19 10 19h118q7 0 10 -7
l38 -76l38 76q4 7 11 7h118z" />
    <glyph glyph-name="ncaron" unicode="&#x148;" horiz-adv-x="552" 
d="M165 440q8 0 11 -8l18 -55q27 35 66.5 55t87.5 20q75 0 117 -49t42 -136v-255q0 -12 -12 -12h-146q-11 0 -11 12v224q0 27 -11.5 49t-45.5 22q-32 0 -48 -22.5t-16 -53.5v-219q0 -12 -11 -12h-146q-12 0 -12 12v417q0 11 12 11h105zM462 668q23 0 10 -19l-80 -114
q-5 -5 -10 -5h-173q-5 0 -10 5l-80 114q-13 19 10 19h118q7 0 10 -7l38 -76l38 76q4 7 11 7h118z" />
    <glyph glyph-name="napostrophe" unicode="&#x149;" horiz-adv-x="552" 
d="M165 440q8 0 11 -8l18 -55q27 35 66.5 55t87.5 20q75 0 117 -49t42 -136v-255q0 -12 -12 -12h-146q-11 0 -11 12v224q0 27 -11.5 49t-45.5 22q-32 0 -48 -22.5t-16 -53.5v-219q0 -12 -11 -12h-146q-12 0 -12 12v417q0 11 12 11h105zM114 712q42 0 69.5 -24t27.5 -75
q0 -52 -27.5 -96.5t-70.5 -69.5q-7 -4 -14 2l-28 31q-8 11 2 18q29 23 36 54q-37 0 -60 21t-23 54q0 40 25 62.5t63 22.5z" />
    <glyph glyph-name="Eng" unicode="&#x14a;" horiz-adv-x="745" 
d="M672 700q11 0 11 -11v-663q0 -118 -56 -178.5t-165 -62.5q-11 0 -11 11v143q0 12 11 12q29 2 41 14.5t12 42.5v83l-272 279v-358q0 -12 -12 -12h-158q-11 0 -11 12v682q0 11 11 11h49q10 0 17 -7l363 -366v357q0 11 11 11h159z" />
    <glyph glyph-name="eng" unicode="&#x14b;" horiz-adv-x="555" 
d="M48 429q0 11 11 11h106q8 0 10 -8l19 -56q27 35 67 55.5t88 20.5q77 0 119 -49t42 -137v-236q0 -109 -50 -164.5t-156 -55.5q-12 0 -12 11v136q0 10 12 12q37 4 37 49v218q0 28 -12 49.5t-46 21.5q-33 0 -49.5 -22.5t-16.5 -54.5v-218q0 -12 -12 -12h-146q-11 0 -11 12
v417z" />
    <glyph glyph-name="Omacron" unicode="&#x14c;" horiz-adv-x="810" 
d="M406 712q80 0 147.5 -25.5t116 -73t75.5 -114t27 -149.5t-27 -150t-75.5 -114t-116 -72.5t-147.5 -25.5t-147.5 25.5t-116 72.5t-76 114t-27.5 150t27.5 149.5t76 114t116 73t147.5 25.5zM406 546q-84 0 -131.5 -53t-47.5 -143t47.5 -143t131.5 -53t131 53t47 143
t-47 143t-131 53zM566 796q0 -11 -12 -11h-297q-12 0 -12 11v72q0 12 12 12h297q12 0 12 -12v-72z" />
    <glyph glyph-name="omacron" unicode="&#x14d;" horiz-adv-x="569" 
d="M284 452q59 0 106 -16.5t80.5 -47t51.5 -73t18 -95.5t-18 -96t-51 -73t-80.5 -46.5t-106.5 -16.5q-58 0 -105.5 16.5t-80.5 46.5t-51 73t-18 96t18 95.5t51.5 73t80.5 47t105 16.5zM284 325q-40 0 -62 -27t-22 -78t22 -77.5t62 -26.5t62.5 26.5t22.5 77.5t-22.5 78
t-62.5 27zM445 566q0 -11 -12 -11h-297q-12 0 -12 11v72q0 12 12 12h297q12 0 12 -12v-72z" />
    <glyph glyph-name="Obreve" unicode="&#x14e;" horiz-adv-x="810" 
d="M406 712q80 0 147.5 -25.5t116 -73t75.5 -114t27 -149.5t-27 -150t-75.5 -114t-116 -72.5t-147.5 -25.5t-147.5 25.5t-116 72.5t-76 114t-27.5 150t27.5 149.5t76 114t116 73t147.5 25.5zM406 546q-84 0 -131.5 -53t-47.5 -143t47.5 -143t131.5 -53t131 53t47 143
t-47 143t-131 53zM228 886q0 12 12 12h103q11 0 11 -12q2 -36 15 -49t36 -13t36.5 12.5t15.5 49.5q0 12 11 12h103q12 0 12 -12q-2 -34 -13 -62t-33 -48.5t-54.5 -32t-77.5 -11.5q-44 0 -76.5 11.5t-54.5 32t-33 48.5t-13 62z" />
    <glyph glyph-name="obreve" unicode="&#x14f;" horiz-adv-x="569" 
d="M284 452q59 0 106 -16.5t80.5 -47t51.5 -73t18 -95.5t-18 -96t-51 -73t-80.5 -46.5t-106.5 -16.5q-58 0 -105.5 16.5t-80.5 46.5t-51 73t-18 96t18 95.5t51.5 73t80.5 47t105 16.5zM284 325q-40 0 -62 -27t-22 -78t22 -77.5t62 -26.5t62.5 26.5t22.5 77.5t-22.5 78
t-62.5 27zM107 656q0 12 12 12h103q11 0 11 -12q2 -36 15 -49t36 -13t36.5 12.5t15.5 49.5q0 12 11 12h103q12 0 12 -12q-2 -34 -13 -62t-33 -48.5t-54.5 -32t-77.5 -11.5q-44 0 -76.5 11.5t-54.5 32t-33 48.5t-13 62z" />
    <glyph glyph-name="Ohungarumlaut" unicode="&#x150;" horiz-adv-x="810" 
d="M406 712q80 0 147.5 -25.5t116 -73t75.5 -114t27 -149.5t-27 -150t-75.5 -114t-116 -72.5t-147.5 -25.5t-147.5 25.5t-116 72.5t-76 114t-27.5 150t27.5 149.5t76 114t116 73t147.5 25.5zM406 546q-84 0 -131.5 -53t-47.5 -143t47.5 -143t131.5 -53t131 53t47 143
t-47 143t-131 53zM308 890q3 8 12 8h120q19 0 9 -18l-69 -114q-3 -6 -9 -6h-94q-17 0 -12 16zM493 890q3 8 10 8h120q9 0 12 -5t-2 -13l-76 -114q-4 -6 -10 -6h-93q-18 0 -11 16z" />
    <glyph glyph-name="ohungarumlaut" unicode="&#x151;" horiz-adv-x="569" 
d="M284 452q59 0 106 -16.5t80.5 -47t51.5 -73t18 -95.5t-18 -96t-51 -73t-80.5 -46.5t-106.5 -16.5q-58 0 -105.5 16.5t-80.5 46.5t-51 73t-18 96t18 95.5t51.5 73t80.5 47t105 16.5zM284 325q-40 0 -62 -27t-22 -78t22 -77.5t62 -26.5t62.5 26.5t22.5 77.5t-22.5 78
t-62.5 27zM187 660q3 8 12 8h120q19 0 9 -18l-69 -114q-3 -6 -9 -6h-94q-17 0 -12 16zM372 660q3 8 10 8h120q9 0 12 -5t-2 -13l-76 -114q-4 -6 -10 -6h-93q-18 0 -11 16z" />
    <glyph glyph-name="OE" unicode="&#x152;" horiz-adv-x="984" 
d="M927 700q12 0 12 -11v-143q0 -12 -12 -12h-271v-104h245q11 0 11 -11v-134q0 -12 -11 -12h-245v-107h275q12 0 12 -11v-143q0 -12 -12 -12h-527q-80 0 -147 23.5t-115.5 68.5t-75.5 110t-27 148t27 148t75.5 110t115.5 68.5t147 23.5h523zM404 531q-85 0 -128 -45.5
t-43 -135.5t43 -135.5t128 -45.5l77 -1v363h-77z" />
    <glyph glyph-name="oe" unicode="&#x153;" horiz-adv-x="857" 
d="M277 452q53 0 95 -19t72 -51q31 33 74 51.5t94 18.5t92.5 -14.5t70 -41t44 -64.5t15.5 -85q0 -24 -2 -38t-6 -20.5t-10 -8.5t-13 -2h-268q5 -31 26 -49t56 -18q27 0 49 9t40 26q10 6 17 -1l73 -69q7 -9 0 -16q-78 -72 -192 -72q-51 0 -92.5 17t-70.5 48
q-30 -30 -71.5 -47.5t-92.5 -17.5q-56 0 -101.5 16.5t-78 46.5t-50.5 73t-18 96t18 95.5t50.5 73t78.5 47t101 16.5zM676 265q0 12 -3.5 23.5t-11.5 21t-21 15.5t-34 6q-32 0 -51 -18.5t-21 -47.5h142zM284 325q-40 0 -62 -27t-22 -78t22 -77.5t62 -26.5t62.5 26.5
t22.5 77.5t-22.5 78t-62.5 27z" />
    <glyph glyph-name="Racute" unicode="&#x154;" horiz-adv-x="672" 
d="M245 12q0 -12 -12 -12h-159q-12 0 -12 12v677q0 11 12 11h279q125 0 196.5 -60.5t71.5 -178.5q0 -42 -11.5 -76.5t-31 -61.5t-45.5 -45.5t-55 -28.5l132 -231q10 -18 -10 -18h-195q-5 0 -9 6l-96 206h-55v-200zM245 365h96q92 0 92 88q0 81 -95 81h-93v-169zM315 882
q3 6 9 6h168q11 0 13.5 -5.5t-4.5 -13.5l-91 -115q-3 -4 -8 -4h-137q-21 0 -11 17z" />
    <glyph glyph-name="racute" unicode="&#x155;" horiz-adv-x="390" 
d="M48 429q0 11 12 11h104q9 0 12 -8l21 -76q25 40 63.5 66.5t92.5 29.5q12 0 12 -11v-138q0 -12 -13 -12q-68 0 -101.5 -35.5t-33.5 -92.5v-151q0 -12 -11 -12h-146q-12 0 -12 12v417zM195 662q3 6 9 6h168q11 0 13.5 -5.5t-4.5 -13.5l-91 -115q-3 -4 -8 -4h-137
q-21 0 -11 17z" />
    <glyph glyph-name="uni0156" unicode="&#x156;" horiz-adv-x="672" 
d="M245 12q0 -12 -12 -12h-159q-12 0 -12 12v677q0 11 12 11h279q125 0 196.5 -60.5t71.5 -178.5q0 -42 -11.5 -76.5t-31 -61.5t-45.5 -45.5t-55 -28.5l132 -231q10 -18 -10 -18h-195q-5 0 -9 6l-96 206h-55v-200zM245 365h96q92 0 92 88q0 81 -95 81h-93v-169zM335 -30
q36 0 60.5 -17t24.5 -57q0 -21 -9 -39t-23 -32.5t-30.5 -25.5t-30.5 -17q-9 -3 -14 2l-24 25q-10 10 2 19q18 14 26 32q-28 -5 -45.5 9.5t-17.5 37.5q0 30 22.5 46.5t58.5 16.5z" />
    <glyph glyph-name="uni0157" unicode="&#x157;" horiz-adv-x="390" 
d="M48 429q0 11 12 11h104q9 0 12 -8l21 -76q25 40 63.5 66.5t92.5 29.5q12 0 12 -11v-138q0 -12 -13 -12q-68 0 -101.5 -35.5t-33.5 -92.5v-151q0 -12 -11 -12h-146q-12 0 -12 12v417zM140 -30q36 0 60.5 -17t24.5 -57q0 -21 -9 -39t-23 -32.5t-30.5 -25.5t-30.5 -17
q-9 -3 -14 2l-24 25q-10 10 2 19q18 14 26 32q-28 -5 -45.5 9.5t-17.5 37.5q0 30 22.5 46.5t58.5 16.5z" />
    <glyph glyph-name="Rcaron" unicode="&#x158;" horiz-adv-x="672" 
d="M245 12q0 -12 -12 -12h-159q-12 0 -12 12v677q0 11 12 11h279q125 0 196.5 -60.5t71.5 -178.5q0 -42 -11.5 -76.5t-31 -61.5t-45.5 -45.5t-55 -28.5l132 -231q10 -18 -10 -18h-195q-5 0 -9 6l-96 206h-55v-200zM245 365h96q92 0 92 88q0 81 -95 81h-93v-169zM493 888
q23 0 10 -19l-80 -114q-5 -5 -10 -5h-173q-5 0 -10 5l-80 114q-13 19 10 19h118q7 0 10 -7l38 -76l38 76q4 7 11 7h118z" />
    <glyph glyph-name="rcaron" unicode="&#x159;" horiz-adv-x="390" 
d="M48 429q0 11 12 11h104q9 0 12 -8l21 -76q25 40 63.5 66.5t92.5 29.5q12 0 12 -11v-138q0 -12 -13 -12q-68 0 -101.5 -35.5t-33.5 -92.5v-151q0 -12 -11 -12h-146q-12 0 -12 12v417zM373 668q23 0 10 -19l-80 -114q-5 -5 -10 -5h-173q-5 0 -10 5l-80 114q-13 19 10 19
h118q7 0 10 -7l38 -76l38 76q4 7 11 7h118z" />
    <glyph glyph-name="Sacute" unicode="&#x15a;" horiz-adv-x="593" 
d="M445 508q-9 -10 -17 -2q-29 24 -60.5 35t-66.5 11q-39 0 -54 -14t-15 -32q0 -13 5.5 -23t19.5 -19t37 -18.5t57 -21.5q47 -16 86 -34.5t67 -42.5t43 -56.5t15 -77.5q0 -105 -72 -165t-202 -60q-74 0 -140.5 21.5t-124.5 70.5q-9 7 -2 16l95 116q8 10 17 1
q38 -36 76.5 -50t83.5 -14t62 16t17 36q0 13 -5 22t-16 16.5t-28.5 14t-43.5 15.5q-61 20 -105 42t-73 49t-43 62t-14 80q0 50 19 89t52.5 66t79.5 41t100 14q66 0 126 -14t118 -59q9 -8 1 -16zM285 892q3 6 9 6h168q11 0 13.5 -5.5t-4.5 -13.5l-91 -115q-3 -4 -8 -4h-137
q-21 0 -11 17z" />
    <glyph glyph-name="sacute" unicode="&#x15b;" horiz-adv-x="471" 
d="M374 297q-7 -8 -16 -2q-23 16 -51.5 26t-55.5 10q-20 0 -29 -6.5t-9 -15.5q0 -15 16 -23.5t54 -16.5q87 -17 127 -50.5t40 -87.5q0 -65 -54 -104t-147 -39q-63 0 -122 16t-101 42q-8 6 -3 15l52 95q7 10 17 3q35 -25 72 -38.5t72 -13.5q20 0 31 7.5t11 17.5q0 6 -2 10.5
t-10 9.5t-23 10t-42 11q-85 18 -123 52t-38 87q0 63 54.5 101.5t150.5 38.5q56 0 106.5 -14.5t88.5 -40.5q9 -6 3 -16zM232 662q3 6 9 6h168q11 0 13.5 -5.5t-4.5 -13.5l-91 -115q-3 -4 -8 -4h-137q-21 0 -11 17z" />
    <glyph glyph-name="Scircumflex" unicode="&#x15c;" horiz-adv-x="593" 
d="M445 508q-9 -10 -17 -2q-29 24 -60.5 35t-66.5 11q-39 0 -54 -14t-15 -32q0 -13 5.5 -23t19.5 -19t37 -18.5t57 -21.5q47 -16 86 -34.5t67 -42.5t43 -56.5t15 -77.5q0 -105 -72 -165t-202 -60q-74 0 -140.5 21.5t-124.5 70.5q-9 7 -2 16l95 116q8 10 17 1
q38 -36 76.5 -50t83.5 -14t62 16t17 36q0 13 -5 22t-16 16.5t-28.5 14t-43.5 15.5q-61 20 -105 42t-73 49t-43 62t-14 80q0 50 19 89t52.5 66t79.5 41t100 14q66 0 126 -14t118 -59q9 -8 1 -16zM473 778q13 -18 -10 -18h-118q-7 0 -11 6l-38 77l-38 -77q-4 -6 -10 -6h-118
q-23 0 -10 18l80 115q5 5 10 5h173q5 0 10 -5z" />
    <glyph glyph-name="scircumflex" unicode="&#x15d;" horiz-adv-x="471" 
d="M374 297q-7 -8 -16 -2q-23 16 -51.5 26t-55.5 10q-20 0 -29 -6.5t-9 -15.5q0 -15 16 -23.5t54 -16.5q87 -17 127 -50.5t40 -87.5q0 -65 -54 -104t-147 -39q-63 0 -122 16t-101 42q-8 6 -3 15l52 95q7 10 17 3q35 -25 72 -38.5t72 -13.5q20 0 31 7.5t11 17.5q0 6 -2 10.5
t-10 9.5t-23 10t-42 11q-85 18 -123 52t-38 87q0 63 54.5 101.5t150.5 38.5q56 0 106.5 -14.5t88.5 -40.5q9 -6 3 -16zM420 548q13 -18 -10 -18h-118q-7 0 -11 6l-38 77l-38 -77q-4 -6 -10 -6h-118q-23 0 -10 18l80 115q5 5 10 5h173q5 0 10 -5z" />
    <glyph glyph-name="Scedilla" unicode="&#x15e;" horiz-adv-x="593" 
d="M445 508q-9 -10 -17 -2q-29 24 -60.5 35t-66.5 11q-39 0 -54 -14t-15 -32q0 -13 5.5 -23t19.5 -19t37 -18.5t57 -21.5q47 -16 86 -34.5t67 -42.5t43 -56.5t15 -77.5q0 -105 -72 -165t-202 -60q-74 0 -140.5 21.5t-124.5 70.5q-9 7 -2 16l95 116q8 10 17 1
q38 -36 76.5 -50t83.5 -14t62 16t17 36q0 13 -5 22t-16 16.5t-28.5 14t-43.5 15.5q-61 20 -105 42t-73 49t-43 62t-14 80q0 50 19 89t52.5 66t79.5 41t100 14q66 0 126 -14t118 -59q9 -8 1 -16zM330 10q15 0 11 -14l-9 -37q57 -4 86 -26t29 -58q0 -43 -40.5 -71t-124.5 -28
q-22 0 -45.5 2t-44.5 6q-11 2 -9 14l10 53q3 12 15 9q17 -4 36 -6.5t35 -2.5q28 0 38 9t10 20q0 14 -17.5 22.5t-70.5 10.5q-14 0 -11 14l16 74q2 9 12 9h74z" />
    <glyph glyph-name="scedilla" unicode="&#x15f;" horiz-adv-x="471" 
d="M374 297q-7 -8 -16 -2q-23 16 -51.5 26t-55.5 10q-20 0 -29 -6.5t-9 -15.5q0 -15 16 -23.5t54 -16.5q87 -17 127 -50.5t40 -87.5q0 -65 -54 -104t-147 -39q-63 0 -122 16t-101 42q-8 6 -3 15l52 95q7 10 17 3q35 -25 72 -38.5t72 -13.5q20 0 31 7.5t11 17.5q0 6 -2 10.5
t-10 9.5t-23 10t-42 11q-85 18 -123 52t-38 87q0 63 54.5 101.5t150.5 38.5q56 0 106.5 -14.5t88.5 -40.5q9 -6 3 -16zM279 10q15 0 11 -14l-9 -37q57 -4 86 -26t29 -58q0 -43 -40.5 -71t-124.5 -28q-22 0 -45.5 2t-44.5 6q-11 2 -9 14l10 53q3 12 15 9q17 -4 36 -6.5
t35 -2.5q28 0 38 9t10 20q0 14 -17.5 22.5t-70.5 10.5q-14 0 -11 14l16 74q2 9 12 9h74z" />
    <glyph glyph-name="Scaron" unicode="&#x160;" horiz-adv-x="593" 
d="M445 508q-9 -10 -17 -2q-29 24 -60.5 35t-66.5 11q-39 0 -54 -14t-15 -32q0 -13 5.5 -23t19.5 -19t37 -18.5t57 -21.5q47 -16 86 -34.5t67 -42.5t43 -56.5t15 -77.5q0 -105 -72 -165t-202 -60q-74 0 -140.5 21.5t-124.5 70.5q-9 7 -2 16l95 116q8 10 17 1
q38 -36 76.5 -50t83.5 -14t62 16t17 36q0 13 -5 22t-16 16.5t-28.5 14t-43.5 15.5q-61 20 -105 42t-73 49t-43 62t-14 80q0 50 19 89t52.5 66t79.5 41t100 14q66 0 126 -14t118 -59q9 -8 1 -16zM463 898q23 0 10 -19l-80 -114q-5 -5 -10 -5h-173q-5 0 -10 5l-80 114
q-13 19 10 19h118q7 0 10 -7l38 -76l38 76q4 7 11 7h118z" />
    <glyph glyph-name="scaron" unicode="&#x161;" horiz-adv-x="471" 
d="M374 297q-7 -8 -16 -2q-23 16 -51.5 26t-55.5 10q-20 0 -29 -6.5t-9 -15.5q0 -15 16 -23.5t54 -16.5q87 -17 127 -50.5t40 -87.5q0 -65 -54 -104t-147 -39q-63 0 -122 16t-101 42q-8 6 -3 15l52 95q7 10 17 3q35 -25 72 -38.5t72 -13.5q20 0 31 7.5t11 17.5q0 6 -2 10.5
t-10 9.5t-23 10t-42 11q-85 18 -123 52t-38 87q0 63 54.5 101.5t150.5 38.5q56 0 106.5 -14.5t88.5 -40.5q9 -6 3 -16zM410 668q23 0 10 -19l-80 -114q-5 -5 -10 -5h-173q-5 0 -10 5l-80 114q-13 19 10 19h118q7 0 10 -7l38 -76l38 76q4 7 11 7h118z" />
    <glyph glyph-name="uni0162" unicode="&#x162;" horiz-adv-x="613" 
d="M24 689q0 11 11 11h543q12 0 12 -11v-147q0 -11 -12 -11h-180v-519q0 -12 -11 -12h-160q-12 0 -12 12v519h-180q-11 0 -11 11v147zM343 10q15 0 11 -14l-9 -37q57 -4 86 -26t29 -58q0 -43 -40.5 -71t-124.5 -28q-22 0 -45.5 2t-44.5 6q-11 2 -9 14l10 53q3 12 15 9
q17 -4 36 -6.5t35 -2.5q28 0 38 9t10 20q0 14 -17.5 22.5t-70.5 10.5q-14 0 -11 14l16 74q2 9 12 9h74z" />
    <glyph glyph-name="uni0163" unicode="&#x163;" horiz-adv-x="438" 
d="M249 553q12 0 12 -12v-101h121q11 0 11 -11v-106q0 -11 -11 -11h-123v-134q0 -26 10 -40.5t36 -14.5q14 0 30 4.5t31 12.5q12 5 17 -7l36 -97q5 -10 -5 -15q-32 -15 -70 -24t-79 -9q-172 0 -172 170v154h-68q-12 0 -12 11v106q0 11 12 11h78l74 107q5 6 10 6h62zM248 14
q15 0 11 -14l-9 -37q57 -4 86 -26t29 -58q0 -43 -40.5 -71t-124.5 -28q-22 0 -45.5 2t-44.5 6q-11 2 -9 14l10 53q3 12 15 9q17 -4 36 -6.5t35 -2.5q28 0 38 9t10 20q0 14 -17.5 22.5t-70.5 10.5q-14 0 -11 14l16 74q2 9 12 9h74z" />
    <glyph glyph-name="Tcaron" unicode="&#x164;" horiz-adv-x="613" 
d="M24 689q0 11 11 11h543q12 0 12 -11v-147q0 -11 -12 -11h-180v-519q0 -12 -11 -12h-160q-12 0 -12 12v519h-180q-11 0 -11 11v147zM475 888q23 0 10 -19l-80 -114q-5 -5 -10 -5h-173q-5 0 -10 5l-80 114q-13 19 10 19h118q7 0 10 -7l38 -76l38 76q4 7 11 7h118z" />
    <glyph glyph-name="tcaron" unicode="&#x165;" horiz-adv-x="438" 
d="M249 553q12 0 12 -12v-101h121q11 0 11 -11v-106q0 -11 -11 -11h-123v-134q0 -26 10 -40.5t36 -14.5q14 0 30 4.5t31 12.5q12 5 17 -7l36 -97q5 -10 -5 -15q-32 -15 -70 -24t-79 -9q-172 0 -172 170v154h-68q-12 0 -12 11v106q0 11 12 11h78l74 107q5 6 10 6h62zM355 744
q42 0 69.5 -24t27.5 -75q0 -52 -27.5 -96.5t-70.5 -69.5q-7 -4 -14 2l-28 31q-8 11 2 18q29 23 36 54q-37 0 -60 21t-23 54q0 40 25 62.5t63 22.5z" />
    <glyph glyph-name="Tbar" unicode="&#x166;" horiz-adv-x="613" 
d="M23 689q0 11 12 11h543q11 0 11 -11v-147q0 -11 -11 -11h-180v-165h93q12 0 12 -12v-95q0 -12 -12 -12h-93v-235q0 -12 -12 -12h-160q-11 0 -11 12v235h-93q-12 0 -12 12v95q0 12 12 12h93v165h-180q-12 0 -12 11v147z" />
    <glyph glyph-name="tbar" unicode="&#x167;" horiz-adv-x="438" 
d="M31 257q0 11 11 11h51v44h-68q-12 0 -12 11v106q0 11 12 11h78l74 107q5 6 10 6h62q12 0 12 -12v-101h121q11 0 11 -11v-106q0 -11 -11 -11h-123v-44h124q12 0 12 -11v-57q0 -12 -12 -12h-124v-18q0 -23 9.5 -35t36.5 -12q14 0 30 4.5t30 12.5q13 5 18 -7l36 -97
q5 -10 -5 -15q-32 -15 -70 -24t-79 -9q-172 0 -172 170v30h-51q-11 0 -11 12v57z" />
    <glyph glyph-name="Utilde" unicode="&#x168;" horiz-adv-x="699" 
d="M630 700q12 0 12 -11v-427q0 -130 -76.5 -202t-215.5 -72t-215.5 72t-76.5 202v427q0 11 12 11h159q12 0 12 -11v-409q0 -56 26 -89.5t83 -33.5t83 33.5t26 89.5v409q0 11 12 11h159zM529 895q12 0 12 -11q-2 -80 -29 -117.5t-75 -37.5q-24 0 -43.5 9.5t-36 20.5
t-30 20.5t-27.5 9.5q-11 0 -18.5 -9t-9.5 -38q0 -12 -12 -12h-91q-12 0 -12 12q2 78 27.5 120t72.5 42q23 0 42.5 -11t37 -24.5t32.5 -25t28 -11.5t20.5 10t8.5 42q0 11 12 11h91z" />
    <glyph glyph-name="utilde" unicode="&#x169;" horiz-adv-x="547" 
d="M488 440q11 0 11 -11v-417q0 -12 -11 -12h-105q-8 0 -11 8l-17 52q-26 -34 -63 -53t-82 -19q-75 0 -119.5 49t-44.5 136v256q0 11 11 11h146q12 0 12 -11v-225q0 -27 10.5 -48.5t41.5 -21.5q33 0 48 22.5t15 52.5v220q0 11 12 11h146zM448 675q12 0 12 -11
q-2 -80 -29 -117.5t-75 -37.5q-24 0 -43.5 9.5t-36 20.5t-30 20.5t-27.5 9.5q-11 0 -18.5 -9t-9.5 -38q0 -12 -12 -12h-91q-12 0 -12 12q2 78 27.5 120t72.5 42q23 0 42.5 -11t37 -24.5t32.5 -25t28 -11.5t20.5 10t8.5 42q0 11 12 11h91z" />
    <glyph glyph-name="Umacron" unicode="&#x16a;" horiz-adv-x="699" 
d="M630 700q12 0 12 -11v-427q0 -130 -76.5 -202t-215.5 -72t-215.5 72t-76.5 202v427q0 11 12 11h159q12 0 12 -11v-409q0 -56 26 -89.5t83 -33.5t83 33.5t26 89.5v409q0 11 12 11h159zM510 786q0 -11 -12 -11h-297q-12 0 -12 11v72q0 12 12 12h297q12 0 12 -12v-72z" />
    <glyph glyph-name="umacron" unicode="&#x16b;" horiz-adv-x="547" 
d="M488 440q11 0 11 -11v-417q0 -12 -11 -12h-105q-8 0 -11 8l-17 52q-26 -34 -63 -53t-82 -19q-75 0 -119.5 49t-44.5 136v256q0 11 11 11h146q12 0 12 -11v-225q0 -27 10.5 -48.5t41.5 -21.5q33 0 48 22.5t15 52.5v220q0 11 12 11h146zM429 566q0 -11 -12 -11h-297
q-12 0 -12 11v72q0 12 12 12h297q12 0 12 -12v-72z" />
    <glyph glyph-name="Ubreve" unicode="&#x16c;" horiz-adv-x="699" 
d="M630 700q12 0 12 -11v-427q0 -130 -76.5 -202t-215.5 -72t-215.5 72t-76.5 202v427q0 11 12 11h159q12 0 12 -11v-409q0 -56 26 -89.5t83 -33.5t83 33.5t26 89.5v409q0 11 12 11h159zM173 876q0 12 12 12h103q11 0 11 -12q2 -36 15 -49t36 -13t36.5 12.5t15.5 49.5
q0 12 11 12h103q12 0 12 -12q-2 -34 -13 -62t-33 -48.5t-54.5 -32t-77.5 -11.5q-44 0 -76.5 11.5t-54.5 32t-33 48.5t-13 62z" />
    <glyph glyph-name="ubreve" unicode="&#x16d;" horiz-adv-x="547" 
d="M488 440q11 0 11 -11v-417q0 -12 -11 -12h-105q-8 0 -11 8l-17 52q-26 -34 -63 -53t-82 -19q-75 0 -119.5 49t-44.5 136v256q0 11 11 11h146q12 0 12 -11v-225q0 -27 10.5 -48.5t41.5 -21.5q33 0 48 22.5t15 52.5v220q0 11 12 11h146zM92 656q0 12 12 12h103q11 0 11 -12
q2 -36 15 -49t36 -13t36.5 12.5t15.5 49.5q0 12 11 12h103q12 0 12 -12q-2 -34 -13 -62t-33 -48.5t-54.5 -32t-77.5 -11.5q-44 0 -76.5 11.5t-54.5 32t-33 48.5t-13 62z" />
    <glyph glyph-name="Uring" unicode="&#x16e;" horiz-adv-x="699" 
d="M630 700q12 0 12 -11v-427q0 -130 -76.5 -202t-215.5 -72t-215.5 72t-76.5 202v427q0 11 12 11h159q12 0 12 -11v-409q0 -56 26 -89.5t83 -33.5t83 33.5t26 89.5v409q0 11 12 11h159zM350 983q65 0 103 -34.5t38 -92.5t-38 -92.5t-103 -34.5t-103.5 34.5t-38.5 92.5
t38.5 92.5t103.5 34.5zM350 891q-20 0 -26.5 -11t-6.5 -24t6.5 -24t26.5 -11t26 11t6 24t-6 24t-26 11z" />
    <glyph glyph-name="uring" unicode="&#x16f;" horiz-adv-x="547" 
d="M488 440q11 0 11 -11v-417q0 -12 -11 -12h-105q-8 0 -11 8l-17 52q-26 -34 -63 -53t-82 -19q-75 0 -119.5 49t-44.5 136v256q0 11 11 11h146q12 0 12 -11v-225q0 -27 10.5 -48.5t41.5 -21.5q33 0 48 22.5t15 52.5v220q0 11 12 11h146zM269 763q65 0 103 -34.5t38 -92.5
t-38 -92.5t-103 -34.5t-103.5 34.5t-38.5 92.5t38.5 92.5t103.5 34.5zM269 671q-20 0 -26.5 -11t-6.5 -24t6.5 -24t26.5 -11t26 11t6 24t-6 24t-26 11z" />
    <glyph glyph-name="Uhungarumlaut" unicode="&#x170;" horiz-adv-x="699" 
d="M630 700q12 0 12 -11v-427q0 -130 -76.5 -202t-215.5 -72t-215.5 72t-76.5 202v427q0 11 12 11h159q12 0 12 -11v-409q0 -56 26 -89.5t83 -33.5t83 33.5t26 89.5v409q0 11 12 11h159zM252 880q3 8 12 8h120q19 0 9 -18l-69 -114q-3 -6 -9 -6h-94q-17 0 -12 16zM437 880
q3 8 10 8h120q9 0 12 -5t-2 -13l-76 -114q-4 -6 -10 -6h-93q-18 0 -11 16z" />
    <glyph glyph-name="uhungarumlaut" unicode="&#x171;" horiz-adv-x="547" 
d="M488 440q11 0 11 -11v-417q0 -12 -11 -12h-105q-8 0 -11 8l-17 52q-26 -34 -63 -53t-82 -19q-75 0 -119.5 49t-44.5 136v256q0 11 11 11h146q12 0 12 -11v-225q0 -27 10.5 -48.5t41.5 -21.5q33 0 48 22.5t15 52.5v220q0 11 12 11h146zM171 660q3 8 12 8h120q19 0 9 -18
l-69 -114q-3 -6 -9 -6h-94q-17 0 -12 16zM356 660q3 8 10 8h120q9 0 12 -5t-2 -13l-76 -114q-4 -6 -10 -6h-93q-18 0 -11 16z" />
    <glyph glyph-name="Uogonek" unicode="&#x172;" horiz-adv-x="688" 
d="M624 700q12 0 12 -11v-427q0 -109 -54 -178t-154 -89q-26 -22 -37 -41.5t-11 -33.5q0 -30 31 -30q5 0 9 0.5t8 1.5q12 2 14 -10l16 -74q2 -10 -8 -13q-17 -6 -41.5 -10.5t-51.5 -4.5q-36 0 -60 9t-39 23t-21.5 32.5t-6.5 37.5q0 29 12.5 56.5t41.5 53.5q-112 15 -172 85
t-60 185v427q0 11 12 11h159q12 0 12 -11v-409q0 -56 26 -89.5t83 -33.5t83 33.5t26 89.5v409q0 11 12 11h159z" />
    <glyph glyph-name="uogonek" unicode="&#x173;" horiz-adv-x="536" 
d="M482 440q11 0 11 -11v-417q0 -8 -4.5 -13.5t-15.5 -14.5q-23 -17 -30 -33t-7 -31q0 -30 32 -30q5 0 8.5 0.5t7.5 1.5q12 2 14 -10l16 -74q2 -10 -8 -13q-17 -6 -41.5 -10.5t-51.5 -4.5q-36 0 -60 9t-39 23t-21.5 32.5t-6.5 37.5q0 35 18 67.5t60 63.5l-15 47
q-26 -34 -63 -53t-82 -19q-75 0 -119.5 49t-44.5 136v256q0 11 11 11h146q12 0 12 -11v-225q0 -27 10.5 -48.5t41.5 -21.5q33 0 48 22.5t15 52.5v220q0 11 12 11h146z" />
    <glyph glyph-name="Wcircumflex" unicode="&#x174;" horiz-adv-x="1080" 
d="M1046 700q15 0 8 -15l-255 -682q-2 -8 -10 -8h-55q-7 0 -11 7l-183 392l-182 -392q-3 -7 -11 -7h-55q-8 0 -11 8l-255 682q-5 15 8 15h176q8 0 11 -8l121 -367l161 358q3 6 11 6h52q8 0 11 -6l161 -358l121 367q3 8 11 8h176zM719 768q13 -18 -10 -18h-118q-7 0 -11 6
l-38 77l-38 -77q-4 -6 -10 -6h-118q-23 0 -10 18l80 115q5 5 10 5h173q5 0 10 -5z" />
    <glyph glyph-name="wcircumflex" unicode="&#x175;" horiz-adv-x="785" 
d="M760 440q18 0 11 -16l-191 -422q-3 -7 -11 -7h-56q-6 0 -10 7l-110 221l-110 -221q-3 -7 -10 -7h-56q-7 0 -11 7l-191 422q-4 7 -1 11.5t11 4.5h165q8 0 11 -8l58 -183l95 185q4 6 9 6h58q6 0 10 -6l94 -185l60 183q2 8 10 8h165zM569 548q13 -18 -10 -18h-118
q-7 0 -11 6l-38 77l-38 -77q-4 -6 -10 -6h-118q-23 0 -10 18l80 115q5 5 10 5h173q5 0 10 -5z" />
    <glyph glyph-name="Ycircumflex" unicode="&#x176;" horiz-adv-x="703" 
d="M681 700q17 0 5 -17l-244 -411v-260q0 -12 -11 -12h-160q-12 0 -12 12v260l-244 411q-10 17 7 17h186q6 0 10 -6l133 -257l133 257q4 6 10 6h187zM529 768q13 -18 -10 -18h-118q-7 0 -11 6l-38 77l-38 -77q-4 -6 -10 -6h-118q-23 0 -10 18l80 115q5 5 10 5h173q5 0 10 -5
z" />
    <glyph glyph-name="ycircumflex" unicode="&#x177;" horiz-adv-x="559" 
d="M15 424q-4 7 -1 11.5t11 4.5h168q8 0 11 -7l86 -231l73 230q2 8 11 8h160q18 0 11 -16l-258 -607q-3 -7 -11 -7h-164q-9 0 -12 4.5t1 11.5l97 194zM463 548q13 -18 -10 -18h-118q-7 0 -11 6l-38 77l-38 -77q-4 -6 -10 -6h-118q-23 0 -10 18l80 115q5 5 10 5h173
q5 0 10 -5z" />
    <glyph glyph-name="Ydieresis" unicode="&#x178;" horiz-adv-x="703" 
d="M681 700q17 0 5 -17l-244 -411v-260q0 -12 -11 -12h-160q-12 0 -12 12v260l-244 411q-10 17 7 17h186q6 0 10 -6l133 -257l133 257q4 6 10 6h187zM248 902q38 0 59 -22.5t21 -57.5t-21 -57.5t-59 -22.5t-59 22.5t-21 57.5t21 57.5t59 22.5zM455 902q38 0 59 -22.5
t21 -57.5t-21 -57.5t-59 -22.5t-59 22.5t-21 57.5t21 57.5t59 22.5z" />
    <glyph glyph-name="Zacute" unicode="&#x179;" horiz-adv-x="649" 
d="M59 531q-12 0 -12 11v147q0 11 12 11h533q11 0 11 -11v-54q0 -5 -3 -10l-293 -456h290q11 0 11 -11v-146q0 -12 -11 -12h-543q-12 0 -12 12v53q0 7 3 11l293 455h-279zM323 882q3 6 9 6h168q11 0 13.5 -5.5t-4.5 -13.5l-91 -115q-3 -4 -8 -4h-137q-21 0 -11 17z" />
    <glyph glyph-name="zacute" unicode="&#x17a;" horiz-adv-x="468" 
d="M48 313q-11 0 -11 11v105q0 11 11 11h372q12 0 12 -11v-53q0 -7 -4 -13l-166 -235h167q12 0 12 -12v-104q0 -12 -12 -12h-389q-12 0 -12 12v52q0 6 5 14l167 235h-152zM228 662q3 6 9 6h168q11 0 13.5 -5.5t-4.5 -13.5l-91 -115q-3 -4 -8 -4h-137q-21 0 -11 17z" />
    <glyph glyph-name="Zdotaccent" unicode="&#x17b;" horiz-adv-x="649" 
d="M59 531q-12 0 -12 11v147q0 11 12 11h533q11 0 11 -11v-54q0 -5 -3 -10l-293 -456h290q11 0 11 -11v-146q0 -12 -11 -12h-543q-12 0 -12 12v53q0 7 3 11l293 455h-279zM332 912q42 0 68.5 -23t26.5 -65q0 -41 -26.5 -64.5t-68.5 -23.5q-41 0 -67 23.5t-26 64.5
q0 42 26 65t67 23z" />
    <glyph glyph-name="zdotaccent" unicode="&#x17c;" horiz-adv-x="468" 
d="M48 313q-11 0 -11 11v105q0 11 11 11h372q12 0 12 -11v-53q0 -7 -4 -13l-166 -235h167q12 0 12 -12v-104q0 -12 -12 -12h-389q-12 0 -12 12v52q0 6 5 14l167 235h-152zM237 692q42 0 68.5 -23t26.5 -65q0 -41 -26.5 -64.5t-68.5 -23.5q-41 0 -67 23.5t-26 64.5
q0 42 26 65t67 23z" />
    <glyph glyph-name="Zcaron" unicode="&#x17d;" horiz-adv-x="649" 
d="M59 531q-12 0 -12 11v147q0 11 12 11h533q11 0 11 -11v-54q0 -5 -3 -10l-293 -456h290q11 0 11 -11v-146q0 -12 -11 -12h-543q-12 0 -12 12v53q0 7 3 11l293 455h-279zM501 888q23 0 10 -19l-80 -114q-5 -5 -10 -5h-173q-5 0 -10 5l-80 114q-13 19 10 19h118q7 0 10 -7
l38 -76l38 76q4 7 11 7h118z" />
    <glyph glyph-name="zcaron" unicode="&#x17e;" horiz-adv-x="468" 
d="M48 313q-11 0 -11 11v105q0 11 11 11h372q12 0 12 -11v-53q0 -7 -4 -13l-166 -235h167q12 0 12 -12v-104q0 -12 -12 -12h-389q-12 0 -12 12v52q0 6 5 14l167 235h-152zM407 668q23 0 10 -19l-80 -114q-5 -5 -10 -5h-173q-5 0 -10 5l-80 114q-13 19 10 19h118q7 0 10 -7
l38 -76l38 76q4 7 11 7h118z" />
    <glyph glyph-name="florin" unicode="&#x192;" horiz-adv-x="557" 
d="M14 161q-2 11 9 13l103 22q12 3 14 -10q5 -21 15.5 -33t28.5 -12q20 0 30 13.5t10 46.5v121h-130q-11 0 -11 11v96q0 11 11 11h130v60q0 109 52.5 159.5t150.5 50.5q20 0 36.5 -2t27.5 -6q9 -3 9 -11v-135q0 -7 -7 -5q-11 5 -24.5 7.5t-26.5 2.5q-28 0 -42 -17t-14 -46
v-58h101q11 0 11 -11v-96q0 -11 -11 -11h-101v-123q0 -54 -13.5 -93.5t-37.5 -65.5t-56.5 -39t-70.5 -13q-75 0 -128 42t-66 131z" />
    <glyph glyph-name="AEacute" unicode="&#x1fc;" horiz-adv-x="933" 
d="M888 546q0 -12 -12 -12h-326l27 -104h265q12 0 12 -11v-134q0 -12 -12 -12h-225l28 -107h235q12 0 12 -11v-143q0 -12 -12 -12h-361q-9 0 -11 9l-31 118h-216l-43 -119q-3 -8 -11 -8h-173q-16 0 -11 16l277 677q4 7 11 7h565q12 0 12 -11v-143zM437 286l-50 194l-72 -194
h122zM560 882q3 6 9 6h168q11 0 13.5 -5.5t-4.5 -13.5l-91 -115q-3 -4 -8 -4h-137q-21 0 -11 17z" />
    <glyph glyph-name="aeacute" unicode="&#x1fd;" horiz-adv-x="786" 
d="M762 230q-2 -26 -5.5 -34t-17.5 -8h-275q4 -28 24 -45.5t53 -17.5q20 0 37 8.5t30 21.5q8 9 17 3l99 -66q9 -7 3 -16q-30 -47 -70.5 -67.5t-89.5 -20.5q-35 0 -65.5 11t-55.5 35v-22q0 -12 -11 -12h-90q-8 0 -11 8l-16 47q-26 -33 -69.5 -50t-85.5 -17q-69 0 -104 36
t-35 94q0 54 42 93.5t133 49.5l99 11v11q0 27 -18 39t-53 12q-29 0 -58.5 -10.5t-57.5 -29.5q-11 -7 -17 4l-49 88q-2 4 -1.5 8.5t5.5 6.5q42 24 95 37.5t109 13.5q60 0 98 -19.5t60 -59.5q26 38 67.5 58.5t89.5 20.5q45 0 82 -17t62.5 -47t38.5 -70.5t11 -87.5zM607 264
q-1 21 -18 39t-49 18t-50.5 -16.5t-24.5 -40.5h142zM247 178q-23 -3 -37 -11t-14 -31q0 -39 39 -39q33 0 48 22.5t15 49.5v14zM380 662q3 6 9 6h168q11 0 13.5 -5.5t-4.5 -13.5l-91 -115q-3 -4 -8 -4h-137q-21 0 -11 17z" />
    <glyph glyph-name="Oslashacute" unicode="&#x1fe;" horiz-adv-x="809" 
d="M405 712q116 0 204 -56l85 99q3 4 7.5 4t8.5 -2l51 -40q10 -9 2 -17l-86 -100q44 -45 69 -108.5t25 -141.5q0 -83 -27 -150t-75.5 -114t-116 -72.5t-147.5 -25.5q-59 0 -110 15t-93 42l-87 -104q-8 -9 -17 -2l-50 41q-9 9 -1 16l86 104q-45 45 -69.5 108.5t-24.5 141.5
q0 83 27 149.5t75.5 114t116 73t147.5 25.5zM405 544q-85 0 -128.5 -52t-43.5 -142q0 -62 23 -108l239 281q-37 21 -90 21zM316 177q38 -21 89 -21q85 0 128.5 52t43.5 142q0 62 -23 106zM393 892q3 6 9 6h168q11 0 13.5 -5.5t-4.5 -13.5l-91 -115q-3 -4 -8 -4h-137
q-21 0 -11 17z" />
    <glyph glyph-name="oslashacute" unicode="&#x1ff;" horiz-adv-x="569" 
d="M463 509q7 9 15 2l40 -30q11 -7 2 -16l-56 -73q36 -31 56 -75t20 -97q0 -50 -18 -92.5t-51.5 -73.5t-80.5 -48.5t-106 -17.5q-64 0 -117 22l-63 -82q-9 -9 -17 -2l-38 32q-9 9 -2 17l57 73q-36 31 -55.5 75t-19.5 97q0 51 18 93.5t51.5 73t80.5 48t105 17.5q64 0 117 -22
zM284 324q-39 0 -61 -26.5t-22 -77.5q0 -11 2 -21t5 -19l107 139q-15 5 -31 5zM254 121q15 -5 30 -5q40 0 61.5 26.5t21.5 77.5q0 23 -6 41zM275 662q3 6 9 6h168q11 0 13.5 -5.5t-4.5 -13.5l-91 -115q-3 -4 -8 -4h-137q-21 0 -11 17z" />
    <glyph glyph-name="uni0218" unicode="&#x218;" horiz-adv-x="593" 
d="M445 508q-9 -10 -17 -2q-29 24 -60.5 35t-66.5 11q-39 0 -54 -14t-15 -32q0 -13 5.5 -23t19.5 -19t37 -18.5t57 -21.5q47 -16 86 -34.5t67 -42.5t43 -56.5t15 -77.5q0 -105 -72 -165t-202 -60q-74 0 -140.5 21.5t-124.5 70.5q-9 7 -2 16l95 116q8 10 17 1
q38 -36 76.5 -50t83.5 -14t62 16t17 36q0 13 -5 22t-16 16.5t-28.5 14t-43.5 15.5q-61 20 -105 42t-73 49t-43 62t-14 80q0 50 19 89t52.5 66t79.5 41t100 14q66 0 126 -14t118 -59q9 -8 1 -16zM298 -30q36 0 60.5 -17t24.5 -57q0 -21 -9 -39t-23 -32.5t-30.5 -25.5
t-30.5 -17q-9 -3 -14 2l-24 25q-10 10 2 19q18 14 26 32q-28 -5 -45.5 9.5t-17.5 37.5q0 30 22.5 46.5t58.5 16.5z" />
    <glyph glyph-name="uni0219" unicode="&#x219;" horiz-adv-x="471" 
d="M374 297q-7 -8 -16 -2q-23 16 -51.5 26t-55.5 10q-20 0 -29 -6.5t-9 -15.5q0 -15 16 -23.5t54 -16.5q87 -17 127 -50.5t40 -87.5q0 -65 -54 -104t-147 -39q-63 0 -122 16t-101 42q-8 6 -3 15l52 95q7 10 17 3q35 -25 72 -38.5t72 -13.5q20 0 31 7.5t11 17.5q0 6 -2 10.5
t-10 9.5t-23 10t-42 11q-85 18 -123 52t-38 87q0 63 54.5 101.5t150.5 38.5q56 0 106.5 -14.5t88.5 -40.5q9 -6 3 -16zM247 -30q36 0 60.5 -17t24.5 -57q0 -21 -9 -39t-23 -32.5t-30.5 -25.5t-30.5 -17q-9 -3 -14 2l-24 25q-10 10 2 19q18 14 26 32q-28 -5 -45.5 9.5
t-17.5 37.5q0 30 22.5 46.5t58.5 16.5z" />
    <glyph glyph-name="uni021A" unicode="&#x21a;" horiz-adv-x="613" 
d="M24 689q0 11 11 11h543q12 0 12 -11v-147q0 -11 -12 -11h-180v-519q0 -12 -11 -12h-160q-12 0 -12 12v519h-180q-11 0 -11 11v147zM311 -30q36 0 60.5 -17t24.5 -57q0 -21 -9 -39t-23 -32.5t-30.5 -25.5t-30.5 -17q-9 -3 -14 2l-24 25q-10 10 2 19q18 14 26 32
q-28 -5 -45.5 9.5t-17.5 37.5q0 30 22.5 46.5t58.5 16.5z" />
    <glyph glyph-name="uni021B" unicode="&#x21b;" horiz-adv-x="438" 
d="M249 553q12 0 12 -12v-101h121q11 0 11 -11v-106q0 -11 -11 -11h-123v-134q0 -26 10 -40.5t36 -14.5q14 0 30 4.5t31 12.5q12 5 17 -7l36 -97q5 -10 -5 -15q-32 -15 -70 -24t-79 -9q-172 0 -172 170v154h-68q-12 0 -12 11v106q0 11 12 11h78l74 107q5 6 10 6h62zM216 -26
q36 0 60.5 -17t24.5 -57q0 -21 -9 -39t-23 -32.5t-30.5 -25.5t-30.5 -17q-9 -3 -14 2l-24 25q-10 10 2 19q18 14 26 32q-28 -5 -45.5 9.5t-17.5 37.5q0 30 22.5 46.5t58.5 16.5z" />
    <glyph glyph-name="uni0237" unicode="&#x237;" horiz-adv-x="265" 
d="M205 440q12 0 12 -11v-394q0 -110 -49.5 -166t-155.5 -59q-11 0 -11 11v137q0 10 11 12q22 3 29 16t7 36v407q0 11 11 11h146z" />
    <glyph glyph-name="circumflex" unicode="&#x2c6;" horiz-adv-x="486" 
d="M420 588q13 -18 -10 -18h-118q-7 0 -11 6l-38 77l-38 -77q-4 -6 -10 -6h-118q-23 0 -10 18l80 115q5 5 10 5h173q5 0 10 -5z" />
    <glyph glyph-name="caron" unicode="&#x2c7;" horiz-adv-x="486" 
d="M410 708q23 0 10 -19l-80 -114q-5 -5 -10 -5h-173q-5 0 -10 5l-80 114q-13 19 10 19h118q7 0 10 -7l38 -76l38 76q4 7 11 7h118z" />
    <glyph glyph-name="breve" unicode="&#x2d8;" horiz-adv-x="478" 
d="M62 696q0 12 12 12h103q11 0 11 -12q2 -36 15 -49t36 -13t36.5 12.5t15.5 49.5q0 12 11 12h103q12 0 12 -12q-2 -34 -13 -62t-33 -48.5t-54.5 -32t-77.5 -11.5q-44 0 -76.5 11.5t-54.5 32t-33 48.5t-13 62z" />
    <glyph glyph-name="dotaccent" unicode="&#x2d9;" horiz-adv-x="311" 
d="M154 732q42 0 68.5 -23t26.5 -65q0 -41 -26.5 -64.5t-68.5 -23.5q-41 0 -67 23.5t-26 64.5q0 42 26 65t67 23z" />
    <glyph glyph-name="ring" unicode="&#x2da;" horiz-adv-x="406" 
d="M204 808q65 0 103 -34.5t38 -92.5t-38 -92.5t-103 -34.5t-103.5 34.5t-38.5 92.5t38.5 92.5t103.5 34.5zM204 716q-20 0 -26.5 -11t-6.5 -24t6.5 -24t26.5 -11t26 11t6 24t-6 24t-26 11z" />
    <glyph glyph-name="ogonek" unicode="&#x2db;" horiz-adv-x="352" 
d="M260 -108q12 2 14 -10l16 -74q2 -10 -8 -13q-18 -6 -42 -10.5t-51 -4.5q-36 0 -60 9t-39 23t-21.5 32.5t-6.5 37.5q0 38 22 74.5t76 67.5q5 3 8 1l76 -19q24 -6 5 -22q-20 -17 -28.5 -33t-8.5 -31q0 -30 31 -30q5 0 9 0.5t8 1.5z" />
    <glyph glyph-name="tilde" unicode="&#x2dc;" horiz-adv-x="507" 
d="M434 715q12 0 12 -11q-2 -80 -29 -117.5t-75 -37.5q-24 0 -43.5 9.5t-36 20.5t-30 20.5t-27.5 9.5q-11 0 -18.5 -9t-9.5 -38q0 -12 -12 -12h-91q-12 0 -12 12q2 78 27.5 120t72.5 42q23 0 42.5 -11t37 -24.5t32.5 -25t28 -11.5t20.5 10t8.5 42q0 11 12 11h91z" />
    <glyph glyph-name="hungarumlaut" unicode="&#x2dd;" horiz-adv-x="496" 
d="M106 700q3 8 12 8h120q19 0 9 -18l-69 -114q-3 -6 -9 -6h-94q-17 0 -12 16zM291 700q3 8 10 8h120q9 0 12 -5t-2 -13l-76 -114q-4 -6 -10 -6h-93q-18 0 -11 16z" />
    <glyph glyph-name="uni0326" unicode="&#x326;" horiz-adv-x="289" 
d="M143 -30q36 0 60.5 -17t24.5 -57q0 -21 -9 -39t-23 -32.5t-30.5 -25.5t-30.5 -17q-9 -3 -14 2l-24 25q-10 10 2 19q18 14 26 32q-28 -5 -45.5 9.5t-17.5 37.5q0 30 22.5 46.5t58.5 16.5z" />
    <glyph glyph-name="uni0394" unicode="&#x394;" horiz-adv-x="699" 
d="M312 701q4 7 10 7h55q8 0 11 -7l287 -685q7 -16 -11 -16h-630q-18 0 -11 16zM250 153h198l-98 277z" />
    <glyph glyph-name="uni03A9" unicode="&#x3a9;" horiz-adv-x="815" 
d="M408 713q76 0 141.5 -21.5t114 -62t76 -98t27.5 -129.5q0 -36 -9.5 -73.5t-28.5 -72.5t-46 -65.5t-63 -53.5l145 16q12 0 12 -12v-129q0 -12 -11 -12h-275q-9 0 -11 8l-18 52q-2 7 3 12q68 68 94 136.5t26 138.5q0 100 -47 145.5t-130 45.5t-129.5 -45.5t-46.5 -145.5
q0 -70 26 -138.5t93 -136.5q5 -5 3 -12l-17 -52q-3 -8 -12 -8h-274q-12 0 -12 12v129q0 12 13 12l144 -16q-35 23 -62.5 53.5t-46 65.5t-28.5 72.5t-10 73.5q0 72 27.5 129.5t76 98t114 62t141.5 21.5z" />
    <glyph glyph-name="uni03BC" unicode="&#x3bc;" horiz-adv-x="549" 
d="M206 440q11 0 11 -11v-223q0 -39 13 -61t42 -22t45 22t16 64v220q0 11 11 11h146q12 0 12 -11v-417q0 -12 -12 -12h-120q-10 0 -12 9l-7 31q-34 -51 -90 -51q-29 0 -50 12l6 -180q0 -11 -11 -11h-146q-12 0 -12 11v608q0 11 12 11h146z" />
    <glyph glyph-name="pi" unicode="&#x3c0;" horiz-adv-x="703" 
d="M656 325q0 -8 -8 -11l-106 -33l14 -83q6 -31 14.5 -43.5t28.5 -12.5q15 0 35 5q14 3 17 -9l28 -111q3 -9 -6 -13q-29 -12 -59 -18t-59 -6q-34 0 -62 8.5t-49 28.5t-34.5 52.5t-18.5 79.5l-12 122h-91l-39 -271q0 -10 -11 -10h-148q-14 0 -12 14l42 267h-86q-11 0 -11 11
v137q0 11 11 11h611q11 0 11 -11v-104z" />
    <glyph glyph-name="Wgrave" unicode="&#x1e80;" horiz-adv-x="1080" 
d="M1046 700q15 0 8 -15l-255 -682q-2 -8 -10 -8h-55q-7 0 -11 7l-183 392l-182 -392q-3 -7 -11 -7h-55q-8 0 -11 8l-255 682q-5 15 8 15h176q8 0 11 -8l121 -367l161 358q3 6 11 6h52q8 0 11 -6l161 -358l121 367q3 8 11 8h176zM614 767q7 -17 -11 -17h-137q-6 0 -9 5
l-82 114q-6 8 -4 13.5t13 5.5h167q8 0 11 -7z" />
    <glyph glyph-name="wgrave" unicode="&#x1e81;" horiz-adv-x="785" 
d="M760 440q18 0 11 -16l-191 -422q-3 -7 -11 -7h-56q-6 0 -10 7l-110 221l-110 -221q-3 -7 -10 -7h-56q-7 0 -11 7l-191 422q-4 7 -1 11.5t11 4.5h165q8 0 11 -8l58 -183l95 185q4 6 9 6h58q6 0 10 -6l94 -185l60 183q2 8 10 8h165zM464 547q7 -17 -11 -17h-137q-6 0 -9 5
l-82 114q-6 8 -4 13.5t13 5.5h167q8 0 11 -7z" />
    <glyph glyph-name="Wacute" unicode="&#x1e82;" horiz-adv-x="1080" 
d="M1046 700q15 0 8 -15l-255 -682q-2 -8 -10 -8h-55q-7 0 -11 7l-183 392l-182 -392q-3 -7 -11 -7h-55q-8 0 -11 8l-255 682q-5 15 8 15h176q8 0 11 -8l121 -367l161 358q3 6 11 6h52q8 0 11 -6l161 -358l121 367q3 8 11 8h176zM531 882q3 6 9 6h168q11 0 13.5 -5.5
t-4.5 -13.5l-91 -115q-3 -4 -8 -4h-137q-21 0 -11 17z" />
    <glyph glyph-name="wacute" unicode="&#x1e83;" horiz-adv-x="785" 
d="M760 440q18 0 11 -16l-191 -422q-3 -7 -11 -7h-56q-6 0 -10 7l-110 221l-110 -221q-3 -7 -10 -7h-56q-7 0 -11 7l-191 422q-4 7 -1 11.5t11 4.5h165q8 0 11 -8l58 -183l95 185q4 6 9 6h58q6 0 10 -6l94 -185l60 183q2 8 10 8h165zM380 662q3 6 9 6h168q11 0 13.5 -5.5
t-4.5 -13.5l-91 -115q-3 -4 -8 -4h-137q-21 0 -11 17z" />
    <glyph glyph-name="Wdieresis" unicode="&#x1e84;" horiz-adv-x="1080" 
d="M1046 700q15 0 8 -15l-255 -682q-2 -8 -10 -8h-55q-7 0 -11 7l-183 392l-182 -392q-3 -7 -11 -7h-55q-8 0 -11 8l-255 682q-5 15 8 15h176q8 0 11 -8l121 -367l161 358q3 6 11 6h52q8 0 11 -6l161 -358l121 367q3 8 11 8h176zM438 902q38 0 59 -22.5t21 -57.5t-21 -57.5
t-59 -22.5t-59 22.5t-21 57.5t21 57.5t59 22.5zM645 902q38 0 59 -22.5t21 -57.5t-21 -57.5t-59 -22.5t-59 22.5t-21 57.5t21 57.5t59 22.5z" />
    <glyph glyph-name="wdieresis" unicode="&#x1e85;" horiz-adv-x="785" 
d="M760 440q18 0 11 -16l-191 -422q-3 -7 -11 -7h-56q-6 0 -10 7l-110 221l-110 -221q-3 -7 -10 -7h-56q-7 0 -11 7l-191 422q-4 7 -1 11.5t11 4.5h165q8 0 11 -8l58 -183l95 185q4 6 9 6h58q6 0 10 -6l94 -185l60 183q2 8 10 8h165zM287 682q38 0 59 -22.5t21 -57.5
t-21 -57.5t-59 -22.5t-59 22.5t-21 57.5t21 57.5t59 22.5zM494 682q38 0 59 -22.5t21 -57.5t-21 -57.5t-59 -22.5t-59 22.5t-21 57.5t21 57.5t59 22.5z" />
    <glyph glyph-name="Germandbls" unicode="&#x1e9e;" horiz-adv-x="679" 
d="M591 641q0 -12 -5 -21l-99 -200q32 -8 60 -23.5t49 -39t33 -55.5t12 -73q0 -62 -23 -105.5t-62 -71t-89.5 -40t-105.5 -12.5h-53q-11 0 -11 12v146q0 11 11 11h58q45 0 70 16.5t25 55.5q0 38 -23.5 52.5t-60.5 14.5h-49q-8 0 -11 10l-17 40q-3 8 -1.5 14t3.5 12l72 155
h-66q-67 0 -67 -80v-447q0 -12 -11 -12h-157q-11 0 -11 12v470q0 106 55.5 162t173.5 56h289q11 0 11 -11v-48z" />
    <glyph glyph-name="endash" unicode="&#x2013;" horiz-adv-x="598" 
d="M46 330q0 12 11 12h484q12 0 12 -12v-112q0 -12 -12 -12h-484q-11 0 -11 12v112z" />
    <glyph glyph-name="emdash" unicode="&#x2014;" horiz-adv-x="929" 
d="M46 330q0 12 11 12h815q12 0 12 -12v-112q0 -12 -12 -12h-815q-11 0 -11 12v112z" />
    <glyph glyph-name="uni2015" unicode="&#x2015;" horiz-adv-x="1014" 
d="M0 330q0 12 12 12h990q12 0 12 -12v-113q0 -11 -12 -11h-990q-12 0 -12 11v113z" />
    <glyph glyph-name="quoteleft" unicode="&#x2018;" horiz-adv-x="278" 
d="M136 371q-41 0 -71.5 26.5t-30.5 79.5q0 72 28 129t73 99q6 6 15 1l43 -34q11 -8 1 -18q-23 -24 -36 -48t-16 -52q17 0 33 -5.5t29 -17t20.5 -28t7.5 -39.5q0 -45 -27 -69t-69 -24z" />
    <glyph glyph-name="quoteright" unicode="&#x2019;" horiz-adv-x="278" 
d="M129 712q42 0 72.5 -26t30.5 -80q0 -72 -28 -125.5t-73 -95.5q-8 -6 -16 -1l-43 34q-10 10 -1 19q23 23 36 43.5t17 48.5q-17 0 -33.5 5.5t-29 17t-20 28.5t-7.5 39q0 45 26.5 69t68.5 24z" />
    <glyph glyph-name="quotesinglbase" unicode="&#x201a;" horiz-adv-x="309" 
d="M150 201q54 0 84 -34t30 -88q0 -37 -8 -73.5t-21 -70.5t-30.5 -65t-36.5 -56q-6 -6 -14 -3l-77 37q-13 7 -5 18q25 33 39.5 66t19.5 68q-41 6 -65.5 29t-24.5 68t30.5 74.5t78.5 29.5z" />
    <glyph glyph-name="quotedblleft" unicode="&#x201c;" horiz-adv-x="528" 
d="M136 371q-41 0 -71.5 26.5t-30.5 79.5q0 72 28 129t73 99q6 6 15 1l43 -34q11 -8 1 -18q-23 -24 -36 -48t-16 -52q17 0 33 -5.5t29 -17t20.5 -28t7.5 -39.5q0 -45 -27 -69t-69 -24zM387 371q-42 0 -72.5 26t-30.5 80q0 72 28.5 129t73.5 99q6 6 15 1l43 -34q11 -8 1 -18
q-46 -47 -53 -100q17 0 33.5 -5.5t29.5 -17t20.5 -28t7.5 -39.5q0 -45 -27 -69t-69 -24z" />
    <glyph glyph-name="quotedblright" unicode="&#x201d;" horiz-adv-x="528" 
d="M380 712q42 0 72.5 -26t30.5 -80q0 -72 -28.5 -125.5t-73.5 -95.5q-6 -6 -15 -1l-43 34q-11 9 -1 19q23 23 36 43.5t16 48.5q-17 0 -33 5.5t-29 17t-20.5 28.5t-7.5 39q0 45 27 69t69 24zM129 712q42 0 72.5 -26t30.5 -80q0 -72 -28 -125.5t-73 -95.5q-8 -6 -16 -1
l-43 34q-10 10 -1 19q23 23 36 43.5t17 48.5q-17 0 -33.5 5.5t-29 17t-20 28.5t-7.5 39q0 45 26.5 69t68.5 24z" />
    <glyph glyph-name="quotedblbase" unicode="&#x201e;" horiz-adv-x="528" 
d="M380 193q42 0 72.5 -26t30.5 -80q0 -73 -28.5 -129.5t-73.5 -98.5q-6 -6 -15 -1l-43 34q-11 8 -1 18q23 23 36 47.5t16 52.5q-17 0 -33 5.5t-29 17t-20.5 28.5t-7.5 39q0 45 27 69t69 24zM129 193q42 0 72.5 -26t30.5 -80q0 -73 -28.5 -129.5t-73.5 -98.5q-6 -6 -15 -1
l-43 34q-10 9 -1 18q47 47 53 100q-17 0 -33.5 5.5t-29 17t-20 28.5t-7.5 39q0 45 26.5 69t68.5 24z" />
    <glyph glyph-name="dagger" unicode="&#x2020;" horiz-adv-x="500" 
d="M327 730q12 0 12 -11v-109h104q12 0 12 -12v-135q0 -11 -12 -11h-104v-320q0 -12 -12 -12h-151q-12 0 -12 12v320h-105q-11 0 -11 11v135q0 12 11 12h105v109q0 11 12 11h151z" />
    <glyph glyph-name="daggerdbl" unicode="&#x2021;" horiz-adv-x="487" 
d="M320 730q12 0 12 -11v-102h98q12 0 12 -12v-127q0 -12 -12 -12h-98v-93h98q12 0 12 -11v-128q0 -11 -12 -11h-98v-141q0 -12 -12 -12h-151q-11 0 -11 12v141h-99q-11 0 -11 11v128q0 11 11 11h99v93h-99q-11 0 -11 12v127q0 12 11 12h99v102q0 11 11 11h151z" />
    <glyph glyph-name="bullet" unicode="&#x2022;" horiz-adv-x="600" 
d="M300 507q72 0 114.5 -42.5t42.5 -114.5t-42.5 -114.5t-114.5 -42.5t-114.5 42.5t-42.5 114.5t42.5 114.5t114.5 42.5z" />
    <glyph glyph-name="uni2023" unicode="&#x2023;" horiz-adv-x="590" 
d="M428 361q18 -11 0 -21l-256 -138q-17 -10 -17 9v278q0 19 17 10z" />
    <glyph glyph-name="ellipsis" unicode="&#x2026;" horiz-adv-x="881" 
d="M153 203q48 0 77.5 -29.5t29.5 -77.5t-29.5 -78t-77.5 -30t-77.5 30t-29.5 78t29.5 77.5t77.5 29.5zM441 203q48 0 77.5 -29.5t29.5 -77.5t-29.5 -78t-77.5 -30t-77.5 30t-29.5 78t29.5 77.5t77.5 29.5zM728 203q48 0 77.5 -29.5t29.5 -77.5t-29.5 -78t-77.5 -30
t-77.5 30t-29.5 78t29.5 77.5t77.5 29.5z" />
    <glyph glyph-name="perthousand" unicode="&#x2030;" horiz-adv-x="1045" 
d="M179 700q34 0 63.5 -11.5t51.5 -32.5t34.5 -49.5t12.5 -62.5t-12.5 -62.5t-34.5 -49.5t-51.5 -32.5t-63.5 -11.5t-64 11.5t-52 32.5t-34.5 49.5t-12.5 62.5t12.5 62.5t34.5 49.5t52 32.5t64 11.5zM644 604q8 -8 0 -16l-551 -552q-7 -9 -16 0l-47 47q-8 8 0 16l550 552
q8 8 17 0zM179 600q-25 0 -39.5 -15t-14.5 -41t14.5 -41t39.5 -15t39 15.5t14 40.5t-14 40.5t-39 15.5zM504 300q34 0 64 -11.5t52 -32.5t34.5 -49.5t12.5 -62.5t-12.5 -62.5t-34.5 -49.5t-51.5 -32.5t-64.5 -11.5q-34 0 -64 11.5t-52 32.5t-34.5 49.5t-12.5 62.5t12.5 62.5
t34.5 49.5t52 32.5t64 11.5zM868 300q34 0 64 -11.5t52 -32.5t34.5 -49.5t12.5 -62.5t-12.5 -62.5t-34.5 -49.5t-52 -32.5t-64 -11.5t-64 11.5t-52 32.5t-34.5 49.5t-12.5 62.5t12.5 62.5t34.5 49.5t52 32.5t64 11.5zM504 200q-24 0 -39 -15t-15 -41t15 -40.5t39 -14.5
q25 0 39 15t14 40t-14 40.5t-39 15.5zM868 200q-24 0 -39 -15t-15 -41t15 -40.5t39 -14.5q25 0 39 15t14 40t-14 40.5t-39 15.5z" />
    <glyph glyph-name="minute" unicode="&#x2032;" horiz-adv-x="252" 
d="M185 389q-2 -10 -11 -10h-96q-10 0 -12 10l-19 299q-2 12 11 12h136q14 0 12 -12z" />
    <glyph glyph-name="second" unicode="&#x2033;" horiz-adv-x="467" 
d="M186 389q-2 -10 -12 -10h-96q-10 0 -12 10l-19 299q-2 12 11 12h137q13 0 11 -12zM400 389q-2 -10 -12 -10h-96q-10 0 -12 10l-19 299q-2 12 11 12h137q13 0 11 -12z" />
    <glyph glyph-name="guilsinglleft" unicode="&#x2039;" horiz-adv-x="381" 
d="M50 252q-4 6 0 12l106 170q5 6 11 6h152q22 0 9 -18l-118 -164l118 -164q13 -18 -9 -18h-152q-6 0 -11 5z" />
    <glyph glyph-name="guilsinglright" unicode="&#x203a;" horiz-adv-x="381" 
d="M331 264q4 -6 0 -12l-106 -171q-5 -5 -11 -5h-152q-22 0 -9 18l117 164l-117 164q-13 18 9 18h152q7 0 11 -6z" />
    <glyph glyph-name="fraction" unicode="&#x2044;" horiz-adv-x="320" 
d="M415 700q20 0 10 -17l-424 -677q-5 -6 -10 -6h-87q-9 0 -11.5 4.5t2.5 12.5l423 677q5 6 11 6h86z" />
    <glyph glyph-name="uni2070" unicode="&#x2070;" horiz-adv-x="383" 
d="M191 830q48 0 81.5 -17.5t55 -47.5t31 -69t9.5 -82t-9.5 -81.5t-30.5 -68t-55 -47t-82 -17.5t-81.5 17.5t-54.5 46.5t-30.5 68t-9.5 82q0 44 9.5 83t30.5 68.5t54.5 47t81.5 17.5zM191 713q-29 0 -42 -20.5t-13 -77.5q0 -56 13.5 -77t41.5 -21q29 0 42.5 21t13.5 77
q0 57 -13.5 77.5t-42.5 20.5z" />
    <glyph glyph-name="uni2074" unicode="&#x2074;" horiz-adv-x="369" 
d="M356 487q0 -11 -11 -11h-25v-54q0 -12 -11 -12h-81q-12 0 -12 12v54h-191q-12 0 -12 11v33q0 10 6 25l125 268q4 7 11 7h102q8 0 11.5 -4.5t-1.5 -12.5l-118 -225h67v57q0 11 12 11h81q11 0 11 -11v-57h25q11 0 11 -12v-79z" />
    <glyph glyph-name="uni2075" unicode="&#x2075;" horiz-adv-x="348" 
d="M309 729q0 -12 -12 -12h-147l-2 -46h31q72 0 111 -32.5t39 -93.5q0 -30 -10 -56.5t-28.5 -46t-46 -31t-62.5 -11.5q-124 0 -160 104q-3 10 7 13l71 30q5 3 9.5 0.5t6.5 -7.5q16 -36 53 -36q20 0 31 9t11 28q0 15 -9 25.5t-33 10.5h-125q-13 0 -11 13l16 220q0 10 11 10
h237q12 0 12 -11v-80z" />
    <glyph glyph-name="uni2076" unicode="&#x2076;" horiz-adv-x="345" 
d="M258 820q10 0 13 -5t-3 -13l-84 -130q12 4 28 4q51 0 86 -32.5t35 -92.5q0 -34 -12 -62t-33.5 -48t-51 -30.5t-65.5 -10.5q-70 0 -114.5 35t-44.5 102q0 30 8 57t22 51l102 169q5 6 11 6h103zM173 590q-42 0 -42 -40t41 -40q20 0 31 10t11 30q0 40 -41 40z" />
    <glyph glyph-name="uni2077" unicode="&#x2077;" horiz-adv-x="314" 
d="M25 717q-12 0 -12 12v80q0 11 12 11h264q12 0 12 -11v-34q0 -4 -2 -11t-4 -15l-117 -331q-3 -8 -11 -8h-104q-17 0 -10 16l117 291h-145z" />
    <glyph glyph-name="uni2078" unicode="&#x2078;" horiz-adv-x="347" 
d="M173 830q66 0 106 -28.5t40 -79.5q0 -29 -15 -57t-44 -42q38 -14 55 -43.5t17 -63.5q0 -52 -38.5 -84t-120.5 -32q-81 0 -120 32t-39 84q0 34 17.5 63.5t55.5 43.5q-29 14 -44 42t-15 57q0 51 40 79.5t105 28.5zM173 730q-16 0 -23.5 -8t-7.5 -22q0 -12 7 -21t24 -9
q18 0 24.5 9t6.5 21q0 14 -7 22t-24 8zM173 581q-22 0 -30.5 -12t-8.5 -27q0 -14 8.5 -24.5t30.5 -10.5q23 0 31.5 10.5t8.5 24.5q0 15 -8.5 27t-31.5 12z" />
    <glyph glyph-name="uni2079" unicode="&#x2079;" horiz-adv-x="345" 
d="M87 410q-21 0 -10 18l84 129q-13 -3 -28 -3q-51 0 -86 32.5t-35 92.5q0 35 12 62.5t33.5 47.5t51 30.5t65.5 10.5q70 0 114.5 -35t44.5 -103q0 -29 -8 -56.5t-22 -50.5l-102 -169q-4 -6 -10 -6h-104zM172 640q42 0 42 40t-41 40q-20 0 -31 -10t-11 -30q0 -40 41 -40z" />
    <glyph glyph-name="uni2080" unicode="&#x2080;" horiz-adv-x="383" 
d="M191 210q48 0 81.5 -17.5t55 -47.5t31 -69t9.5 -82t-9.5 -81.5t-30.5 -68t-55 -47t-82 -17.5t-81.5 17.5t-54.5 46.5t-30.5 68t-9.5 82q0 44 9.5 83t30.5 68.5t54.5 47t81.5 17.5zM191 93q-29 0 -42 -20.5t-13 -77.5q0 -56 13.5 -77t41.5 -21q29 0 42.5 21t13.5 77
q0 57 -13.5 77.5t-42.5 20.5z" />
    <glyph glyph-name="uni2081" unicode="&#x2081;" horiz-adv-x="252" 
d="M202 200q12 0 12 -11v-387q0 -12 -12 -12h-87q-12 0 -12 12v266l-57 -17q-12 -3 -15 8l-27 78q-4 11 7 15l135 44q11 4 22 4h34z" />
    <glyph glyph-name="uni2082" unicode="&#x2082;" horiz-adv-x="340" 
d="M111 67q-5 -10 -16 -5l-71 30q-10 5 -7 14q21 49 65 76.5t101 27.5q68 0 104.5 -34t36.5 -88q0 -38 -16.5 -70.5t-54.5 -67.5l-59 -57h119q11 0 11 -11v-80q0 -12 -11 -12h-282q-12 0 -12 12v38q0 5 3 8l149 162q20 21 27 37t7 29q0 12 -8.5 21t-28.5 9q-18 0 -32 -9
t-25 -30z" />
    <glyph glyph-name="uni2083" unicode="&#x2083;" horiz-adv-x="351" 
d="M144 -46q-11 0 -11 11v62q0 12 11 12h31q20 0 30 10.5t10 25.5q0 31 -38 31q-19 0 -34.5 -8.5t-25.5 -28.5q-7 -10 -16 -6l-72 29q-10 5 -6 14q20 50 61 77t105 27q66 0 105.5 -28t39.5 -80q0 -35 -17 -62t-47 -39q65 -29 65 -96q0 -56 -42.5 -90.5t-112.5 -34.5
q-60 0 -102 26.5t-61 77.5q-3 10 6 13l73 32q11 3 16 -6q11 -22 26 -30.5t35 -8.5q43 0 43 33q0 17 -10.5 27t-30.5 10h-31z" />
    <glyph glyph-name="uni2084" unicode="&#x2084;" horiz-adv-x="369" 
d="M356 -133q0 -11 -11 -11h-25v-54q0 -12 -11 -12h-81q-12 0 -12 12v54h-191q-12 0 -12 11v33q0 10 6 25l125 268q4 7 11 7h102q8 0 11.5 -4.5t-1.5 -12.5l-118 -225h67v57q0 11 12 11h81q11 0 11 -11v-57h25q11 0 11 -12v-79z" />
    <glyph glyph-name="uni2085" unicode="&#x2085;" horiz-adv-x="348" 
d="M309 109q0 -12 -12 -12h-147l-2 -46h31q72 0 111 -32.5t39 -93.5q0 -30 -10 -56.5t-28.5 -46t-46 -31t-62.5 -11.5q-124 0 -160 104q-3 10 7 13l71 30q5 3 9.5 0.5t6.5 -7.5q16 -36 53 -36q20 0 31 9t11 28q0 15 -9 25.5t-33 10.5h-125q-13 0 -11 13l16 220q0 10 11 10
h237q12 0 12 -11v-80z" />
    <glyph glyph-name="uni2086" unicode="&#x2086;" horiz-adv-x="345" 
d="M258 200q10 0 13 -5t-3 -13l-84 -130q12 4 28 4q51 0 86 -32.5t35 -92.5q0 -34 -12 -62t-33.5 -48t-51 -30.5t-65.5 -10.5q-70 0 -114.5 35t-44.5 102q0 30 8 57t22 51l102 169q5 6 11 6h103zM173 -30q-42 0 -42 -40t41 -40q20 0 31 10t11 30q0 40 -41 40z" />
    <glyph glyph-name="uni2087" unicode="&#x2087;" horiz-adv-x="314" 
d="M25 97q-12 0 -12 12v80q0 11 12 11h264q12 0 12 -11v-34q0 -4 -2 -11t-4 -15l-117 -331q-3 -8 -11 -8h-104q-17 0 -10 16l117 291h-145z" />
    <glyph glyph-name="uni2088" unicode="&#x2088;" horiz-adv-x="347" 
d="M173 210q66 0 106 -28.5t40 -79.5q0 -29 -15 -57t-44 -42q38 -14 55 -43.5t17 -63.5q0 -52 -38.5 -84t-120.5 -32q-81 0 -120 32t-39 84q0 34 17.5 63.5t55.5 43.5q-29 14 -44 42t-15 57q0 51 40 79.5t105 28.5zM173 110q-16 0 -23.5 -8t-7.5 -22q0 -12 7 -21t24 -9
q18 0 24.5 9t6.5 21q0 14 -7 22t-24 8zM173 -39q-22 0 -30.5 -12t-8.5 -27q0 -14 8.5 -24.5t30.5 -10.5q23 0 31.5 10.5t8.5 24.5q0 15 -8.5 27t-31.5 12z" />
    <glyph glyph-name="uni2089" unicode="&#x2089;" horiz-adv-x="345" 
d="M87 -210q-21 0 -10 18l84 129q-13 -3 -28 -3q-51 0 -86 32.5t-35 92.5q0 35 12 62.5t33.5 47.5t51 30.5t65.5 10.5q70 0 114.5 -35t44.5 -103q0 -29 -8 -56.5t-22 -50.5l-102 -169q-4 -6 -10 -6h-104zM172 20q42 0 42 40t-41 40q-20 0 -31 -10t-11 -30q0 -40 41 -40z" />
    <glyph glyph-name="Euro" unicode="&#x20ac;" horiz-adv-x="606" 
d="M39 374q-11 0 -11 12v60q0 12 11 12h61q7 54 26.5 98.5t51.5 76.5t78.5 49.5t107.5 17.5q68 0 120.5 -28t90.5 -92q6 -8 -4 -15l-111 -68q-5 -3 -9.5 -2t-6.5 5q-17 22 -36.5 31.5t-42.5 9.5q-71 0 -81 -83h138q15 0 12 -15l-17 -60q-2 -9 -11 -9h-367zM39 230
q-11 0 -11 12v61q0 11 11 11h350q15 0 10 -14l-15 -61q-2 -9 -11 -9h-88q12 -83 80 -83q24 0 43.5 11t36.5 39q7 9 16 4l116 -54q10 -5 5 -15q-30 -63 -85 -103.5t-133 -40.5q-61 0 -107 18t-78.5 50t-51.5 76.5t-27 97.5h-61z" />
    <glyph glyph-name="uni20BA" unicode="&#x20ba;" horiz-adv-x="720" 
d="M43 377q-15 -5 -15 11v62q0 8 8 11l70 24v204q0 11 11 11h159q11 0 11 -11v-142l137 46q15 5 15 -12v-61q0 -8 -7 -12zM28 301q0 9 8 12l388 130q15 5 15 -11v-62q0 -9 -8 -11l-144 -48v-137q16 -3 30.5 -4t25.5 -1q71 0 114.5 42.5t44.5 130.5q0 14 13 12l163 -15
q10 -2 10 -12q-2 -99 -32 -164.5t-80 -104.5t-116 -55.5t-141 -16.5q-50 0 -101.5 5.5t-102.5 14.5q-9 2 -9 12v232l-63 -22q-15 -5 -15 12v61z" />
    <glyph glyph-name="uni20BD" unicode="&#x20bd;" horiz-adv-x="625" 
d="M88 689q0 11 11 11h255q57 0 103.5 -14.5t79.5 -42.5t51 -68.5t18 -92.5t-18 -93t-51 -69t-79.5 -43t-103.5 -15h-313q-12 0 -12 12v98q0 12 12 12h47v305zM271 384h70q38 0 57.5 17t19.5 56q0 40 -19.5 57t-58.5 17h-69v-147zM28 186q0 12 11 12h394q12 0 12 -12v-72
q0 -12 -12 -12h-162v-90q0 -12 -12 -12h-160q-11 0 -11 12v90h-49q-11 0 -11 12v72z" />
    <glyph glyph-name="uni2113" unicode="&#x2113;" horiz-adv-x="462" 
d="M29 229q-11 -2 -11 11v47q0 11 11 11q11 1 21.5 1t20.5 1q3 109 23 186t52 126t73 72t86 23q57 0 90.5 -35t33.5 -105q0 -117 -55.5 -194t-155.5 -113q7 -162 96 -162q14 0 27 4.5t29 12.5q11 7 16 -6l31 -78q3 -9 -5 -14q-26 -15 -64 -24t-76 -9q-99 0 -147 64.5
t-54 182.5q-11 -2 -21 -2h-21zM218 332q69 30 102 87.5t33 148.5q0 31 -10 49t-30 18q-22 0 -39 -21t-29 -60.5t-18.5 -95.5t-8.5 -126z" />
    <glyph glyph-name="uni2116" unicode="&#x2116;" horiz-adv-x="1121" 
d="M672 700q11 0 11 -11v-682q0 -12 -11 -12h-52q-5 0 -7.5 1t-4.5 3l-365 373v-360q0 -12 -12 -12h-158q-11 0 -11 12v682q0 11 11 11h50q9 0 15 -6l364 -373v363q0 11 11 11h159zM928 701q34 0 64 -12t52 -33t35 -49.5t13 -62.5t-12.5 -63t-35 -50t-52 -32.5t-64.5 -11.5
q-34 0 -64.5 11.5t-52.5 32.5t-35 50t-13 63t13 62.5t35 49.5t52.5 33t64.5 12zM928 599q-23 0 -38 -15.5t-15 -39.5t15 -39.5t38 -15.5q24 0 38 15.5t14 39.5t-14 39.5t-38 15.5zM774 226q-11 0 -11 12v80q0 11 11 11h307q11 0 11 -11v-80q0 -12 -11 -12h-307z" />
    <glyph glyph-name="trademark" unicode="&#x2122;" horiz-adv-x="615" 
d="M243 700q12 0 12 -11v-69q0 -12 -12 -12h-52v-146q0 -12 -12 -12h-74q-12 0 -12 12v146h-53q-11 0 -11 12v69q0 11 11 11h203zM575 700q12 0 12 -11v-227q0 -12 -12 -12h-72q-11 0 -11 12v97l-45 -58q-9 -9 -17 0l-45 57v-96q0 -12 -11 -12h-72q-12 0 -12 12v227
q0 11 12 11h63q5 0 9 -4l65 -85l62 84q5 5 10 5h64z" />
    <glyph glyph-name="uni2126" unicode="&#x2126;" horiz-adv-x="815" 
d="M408 713q76 0 141.5 -21.5t114 -62t76 -98t27.5 -129.5q0 -36 -9.5 -73.5t-28.5 -72.5t-46 -65.5t-63 -53.5l145 16q12 0 12 -12v-129q0 -12 -11 -12h-275q-9 0 -11 8l-18 52q-2 7 3 12q68 68 94 136.5t26 138.5q0 100 -47 145.5t-130 45.5t-129.5 -45.5t-46.5 -145.5
q0 -70 26 -138.5t93 -136.5q5 -5 3 -12l-17 -52q-3 -8 -12 -8h-274q-12 0 -12 12v129q0 12 13 12l144 -16q-35 23 -62.5 53.5t-46 65.5t-28.5 72.5t-10 73.5q0 72 27.5 129.5t76 98t114 62t141.5 21.5z" />
    <glyph glyph-name="estimated" unicode="&#x212e;" horiz-adv-x="724" 
d="M686 301q0 -5 -3 -11.5t-11 -6.5h-520v-170q18 -20 42.5 -36t53 -27.5t59 -18t60.5 -6.5q32 0 65.5 7.5t64.5 21t58.5 32.5t46.5 43q8 10 17 2l5 -4q9 -9 1 -16q-46 -51 -114 -81t-146 -30q-70 0 -130 24t-103.5 65t-68 97t-24.5 119q0 64 24.5 119.5t68 97t103 65.5
t128.5 24q71 0 130 -25t102 -67.5t67 -98.5t24 -119zM569 501q-35 37 -89 59.5t-114 22.5q-31 0 -62.5 -6.5t-59.5 -17.5t-51.5 -26.5t-40.5 -32.5v-189h417v190z" />
    <glyph glyph-name="arrowleft" unicode="&#x2190;" horiz-adv-x="843" 
d="M781 238q0 -11 -11 -11h-428l214 -205q4 -3 2.5 -8.5t-7.5 -5.5h-192q-4 0 -8 4l-286 289q-7 7 0 15l286 289q5 3 8 3h192q6 0 7.5 -5t-2.5 -9l-214 -204h428q11 0 11 -12v-140z" />
    <glyph glyph-name="arrowup" unicode="&#x2191;" horiz-adv-x="723" 
d="M658 425q4 -4 4 -8v-192q0 -5 -5.5 -6.5t-8.5 2.5l-205 213v-429q0 -12 -11 -12h-140q-11 0 -11 12v429l-205 -213q-4 -4 -9 -2.5t-5 6.5v192q0 4 3 8l289 286q8 7 15 0z" />
    <glyph glyph-name="arrowright" unicode="&#x2192;" horiz-adv-x="843" 
d="M492 12q-4 -4 -9 -4h-191q-6 0 -7.5 5t2.5 9l214 205h-428q-11 0 -11 11v140q0 12 11 12h428l-214 204q-4 4 -2.5 9t7.5 5h191q5 0 9 -3l285 -289q8 -8 0 -15z" />
    <glyph glyph-name="arrowdown" unicode="&#x2193;" horiz-adv-x="723" 
d="M432 708q11 0 11 -12v-430l205 214q3 4 8.5 3t5.5 -7v-192q0 -5 -4 -9l-289 -285q-7 -7 -15 0l-289 285q-3 5 -3 9v192q0 6 5 7t9 -3l205 -214v430q0 12 11 12h140z" />
    <glyph glyph-name="arrowboth" unicode="&#x2194;" horiz-adv-x="1147" 
d="M1082 310q7 -8 0 -15l-265 -295q-6 -4 -9 -4h-184q-5 0 -6.5 6t0.5 8l195 211h-480l195 -211q3 -3 1.5 -8.5t-7.5 -5.5l-183 1q-3 0 -9 4l-265 294q-6 8 0 16l266 294q6 4 8 4l184 -1q6 0 7.5 -5t-2.5 -9l-195 -209l480 -1l-194 210q-2 3 -0.5 8.5t6.5 5.5h184q5 0 8 -3z
" />
    <glyph glyph-name="arrowupdn" unicode="&#x2195;" horiz-adv-x="786" 
d="M386 848q8 7 15 0l295 -266q4 -6 4 -8v-185q0 -5 -6 -6.5t-8 1.5l-211 195v-458l211 195q2 5 8 3t6 -8l-1 -184q0 -4 -4 -8l-294 -266q-8 -6 -16 0l-295 266q-3 5 -3 9v183q0 6 5.5 8t9.5 -2l210 -196l1 458l-211 -194q-3 -3 -9 -1.5t-6 7.5v183q0 3 4 9z" />
    <glyph glyph-name="uni2196" unicode="&#x2196;" horiz-adv-x="721" 
d="M89 595q0 12 11 12l406 2q5 0 8 -3l136 -135q5 -5 2.5 -9.5t-8.5 -4.5l-297 7l303 -302q9 -9 0 -17l-99 -99q-8 -8 -16 0l-303 302l8 -296q0 -5 -5 -7.5t-9 1.5l-136 135q-3 5 -3 9z" />
    <glyph glyph-name="uni2197" unicode="&#x2197;" horiz-adv-x="720" 
d="M620 607q12 0 12 -12l2 -405q0 -5 -4 -9l-135 -135q-4 -4 -9 -1.5t-5 7.5l7 296l-303 -302q-8 -8 -16 0l-99 99q-8 8 0 16l303 303l-297 -7q-5 0 -7 5t2 9l135 135q5 3 8 3z" />
    <glyph glyph-name="uni2198" unicode="&#x2198;" horiz-adv-x="720" 
d="M169 627q7 9 17 1l302 -303l-7 296q0 5 5 8t9 -1l136 -136q3 -3 3 -8l-2 -406q0 -11 -12 -11l-406 -2q-3 0 -8 3l-135 135q-4 4 -2 9t7 5l297 -7l-303 303q-8 7 0 15z" />
    <glyph glyph-name="uni2199" unicode="&#x2199;" horiz-adv-x="721" 
d="M100 67q-11 0 -11 11l-2 406q0 5 3 8l136 136q5 5 9.5 2t4.5 -9l-8 -296l303 303q8 8 16 0l100 -100q9 -9 -1 -15l-303 -303l297 7q6 0 8.5 -4.5t-2.5 -9.5l-136 -135q-3 -3 -8 -3z" />
    <glyph glyph-name="partialdiff" unicode="&#x2202;" horiz-adv-x="602" 
d="M284 434q32 0 66.5 -10.5t61.5 -34.5q1 11 1.5 21.5t0.5 18.5q0 66 -27 102.5t-89 36.5q-52 0 -115 -28q-12 -7 -16 7l-30 110q-2 9 7 12q45 22 92 33t87 11q63 0 110 -20t78 -56t46.5 -87t15.5 -114q0 -51 -9 -104.5t-27.5 -104t-46.5 -94.5t-66.5 -77t-87.5 -52
t-109 -19q-93 0 -145.5 51t-52.5 137q0 56 18 104t51.5 83t80.5 54.5t105 19.5zM297 289q-43 0 -70.5 -23.5t-27.5 -67.5q1 -29 17 -44t42 -15q22 0 40 9t33 24t26.5 35.5t20.5 43.5q-17 17 -37.5 27.5t-43.5 10.5z" />
    <glyph glyph-name="uni2206" unicode="&#x2206;" horiz-adv-x="699" 
d="M312 701q4 7 10 7h55q8 0 11 -7l287 -685q7 -16 -11 -16h-630q-18 0 -11 16zM250 153h198l-98 277z" />
    <glyph glyph-name="product" unicode="&#x220f;" horiz-adv-x="679" 
d="M606 700q12 0 12 -11v-850q0 -11 -12 -11h-147q-11 0 -11 11v698h-216v-698q0 -11 -12 -11h-147q-11 0 -11 11v850q0 11 11 11h533z" />
    <glyph glyph-name="summation" unicode="&#x2211;" horiz-adv-x="669" 
d="M616 546q0 -12 -11 -12h-295l150 -243q2 -4 2 -6v-35q0 -3 -2 -7l-162 -235h318q12 0 12 -11v-143q0 -12 -12 -12h-562q-12 0 -12 12v55q0 3 2 7l247 350l-235 360q-2 4 -2 6v57q0 11 11 11h540q11 0 11 -11v-143z" />
    <glyph glyph-name="minus" unicode="&#x2212;" horiz-adv-x="589" 
d="M541 211q0 -12 -12 -12h-470q-11 0 -11 12v131q0 11 11 11h470q12 0 12 -11v-131z" />
    <glyph glyph-name="radical" unicode="&#x221a;" horiz-adv-x="718" 
d="M24 240q-5 10 5 15l125 56q10 5 15 -5l122 -238l238 699q2 8 11 8h144q16 0 11 -15l-356 -952q-3 -8 -11 -8h-56q-7 0 -10 6z" />
    <glyph glyph-name="infinity" unicode="&#x221e;" horiz-adv-x="834" 
d="M243 487q32 0 58.5 -8t49 -21.5t41.5 -31.5t36 -38q24 26 44.5 44t40 29.5t39.5 16.5t43 5q41 0 76 -14t60.5 -39.5t40 -61t14.5 -77.5q0 -36 -12.5 -70t-37 -61t-61 -43t-85.5 -16q-29 0 -54 8t-47 21.5t-41.5 31t-36.5 36.5q-46 -53 -84.5 -76.5t-86.5 -23.5
q-42 0 -77 14.5t-60.5 40t-40 61t-14.5 77.5q0 43 14.5 79t40.5 62t61.5 40.5t78.5 14.5zM256 345q-23 0 -37 -15t-14 -38t14.5 -39t37.5 -16q19 0 38 10.5t44 38.5q-23 29 -42.5 44t-40.5 15zM498 300q26 -30 44.5 -42.5t38.5 -12.5q18 0 32 12t14 38q0 21 -12 35.5
t-35 14.5t-41.5 -11t-40.5 -34z" />
    <glyph glyph-name="integral" unicode="&#x222b;" horiz-adv-x="303" 
d="M276 719q0 -12 -12 -12q-49 -3 -64 -29.5t-10 -82.5l57 -604q5 -53 -12 -92t-47.5 -65t-69.5 -39t-79 -15q-11 0 -11 11v70q0 11 11 13q42 4 61 31t14 74l-56 620q-9 98 46 148t160 53q12 0 12 -11v-70z" />
    <glyph glyph-name="approxequal" unicode="&#x2248;" horiz-adv-x="635" 
d="M577 480q10 -2 10 -11q-1 -43 -11 -80.5t-29.5 -65t-50 -43t-72.5 -15.5q-45 0 -75 14.5t-54 31.5q-25 17 -40 24t-29 7q-25 0 -33.5 -18t-8.5 -43q-2 -12 -14 -12l-112 14q-10 0 -10 11q1 41 10.5 78t29 64.5t50 44t72.5 16.5q44 0 75 -14.5t57 -31.5q18 -12 34.5 -20.5
t33.5 -8.5q24 0 32 17.5t9 41.5q0 12 14 12zM577 219q10 0 10 -11q-1 -43 -11 -80.5t-29.5 -65t-50 -43t-72.5 -15.5q-44 0 -74.5 15.5t-54.5 31.5q-25 16 -40 23t-29 7q-25 0 -33.5 -17.5t-8.5 -42.5q-2 -13 -14 -13l-112 14q-10 2 -10 11q1 41 10.5 78t29 65t50 44
t72.5 16q44 0 75 -14.5t57 -31.5q18 -12 34.5 -20t33.5 -8q24 0 32 17t9 41q0 12 14 12z" />
    <glyph glyph-name="notequal" unicode="&#x2260;" horiz-adv-x="565" 
d="M517 312q0 -11 -11 -11h-147l-37 -80h184q11 0 11 -11v-127q0 -12 -11 -12h-248l-45 -99q-3 -7 -10 -7h-80q-18 0 -11 17l40 89h-93q-11 0 -11 12v127q0 11 11 11h158l36 80h-194q-11 0 -11 11v127q0 12 11 12h258l43 98q4 6 11 6h81q17 0 10 -16l-40 -88h84q11 0 11 -12
v-127z" />
    <glyph glyph-name="lessequal" unicode="&#x2264;" horiz-adv-x="611" 
d="M564 184q0 -8 -4.5 -11t-11.5 0l-493 193q-7 4 -7 11v55q0 8 7 11l492 216q17 7 17 -10v-137q0 -7 -8 -10l-233 -87l233 -84q8 -3 8 -11v-136zM552 145q12 0 12 -11v-138q0 -11 -12 -11h-488q-11 0 -11 11v138q0 11 11 11h488z" />
    <glyph glyph-name="greaterequal" unicode="&#x2265;" horiz-adv-x="611" 
d="M63 173q-6 -3 -10.5 0t-4.5 11v136q0 8 7 11l234 84l-234 87q-7 4 -7 10v137q0 17 16 10l493 -216q7 -3 7 -11v-55q0 -8 -8 -11zM48 134q0 11 11 11h488q12 0 12 -11v-138q0 -11 -12 -11h-488q-11 0 -11 11v138z" />
    <glyph glyph-name="house" unicode="&#x2302;" horiz-adv-x="738" 
d="M362 694q7 7 15 0l296 -240q4 -6 4 -10v-432q0 -12 -12 -12h-592q-11 0 -11 12v432q0 6 4 10zM170 404v-297h399v297l-200 157z" />
    <glyph glyph-name="uni2460" unicode="&#x2460;" horiz-adv-x="1120" 
d="M561 858q105 0 196 -38t158 -105t105.5 -158t38.5 -197t-38.5 -197t-105.5 -158t-158 -105t-196 -38q-106 0 -197 38t-158 105t-105.5 158t-38.5 197t38.5 197t105.5 158t158 105t197 38zM561 753q-85 0 -157 -30t-123.5 -83t-80.5 -125t-29 -155t29 -155t80.5 -125
t123.5 -83t157 -30q86 0 157 30t122.5 83t80 125t28.5 155t-28.5 155t-80 125t-122.5 83t-157 30zM632 619q12 0 12 -11v-527q0 -12 -12 -12h-116q-12 0 -12 12v389l-86 -21q-10 -3 -13 8l-29 101q-3 11 9 14l183 45q10 2 17 2h47z" />
    <glyph glyph-name="uni2461" unicode="&#x2461;" horiz-adv-x="1120" 
d="M561 858q105 0 196 -38t158 -105t105.5 -158t38.5 -197t-38.5 -197t-105.5 -158t-158 -105t-196 -38q-106 0 -197 38t-158 105t-105.5 158t-38.5 197t38.5 197t105.5 158t158 105t197 38zM561 753q-85 0 -157 -30t-123.5 -83t-80.5 -125t-29 -155t29 -155t80.5 -125
t123.5 -83t157 -30q86 0 157 30t122.5 83t80 125t28.5 155t-28.5 155t-80 125t-122.5 83t-157 30zM466 456q-2 -4 -6 -5.5t-9 0.5l-95 40q-11 5 -6 15q27 67 80.5 104.5t124.5 37.5q93 0 146 -44t53 -122q0 -22 -5 -42.5t-16 -41.5t-28.5 -44t-43.5 -49l-75 -79h156
q12 0 12 -11v-116q0 -11 -12 -11h-377q-11 0 -11 11v47q0 5 3 8l199 223q28 31 38 53t10 42t-13 33t-39 13q-53 0 -86 -62z" />
    <glyph glyph-name="uni2462" unicode="&#x2462;" horiz-adv-x="1120" 
d="M561 858q105 0 196 -38t158 -105t105.5 -158t38.5 -197t-38.5 -197t-105.5 -158t-158 -105t-196 -38q-106 0 -197 38t-158 105t-105.5 158t-38.5 197t38.5 197t105.5 158t158 105t197 38zM561 753q-85 0 -157 -30t-123.5 -83t-80.5 -125t-29 -155t29 -155t80.5 -125
t123.5 -83t157 -30q86 0 157 30t122.5 83t80 125t28.5 155t-28.5 155t-80 125t-122.5 83t-157 30zM500 303q-11 0 -11 11v89q0 11 11 11h45q29 0 45.5 12.5t16.5 37.5q0 23 -15 34.5t-41 11.5q-58 0 -85 -58q-5 -9 -16 -6l-98 38q-10 3 -7 15q25 67 80.5 104t134.5 37
q96 0 146.5 -37.5t50.5 -105.5q0 -48 -23.5 -83t-63.5 -51q46 -19 67.5 -51t21.5 -75q0 -37 -14.5 -68t-41.5 -53t-64.5 -34t-83.5 -12q-81 0 -136.5 36.5t-80.5 105.5q-5 10 6 14l99 41q10 5 16 -6q14 -32 35 -46.5t52 -14.5q32 0 47.5 13.5t15.5 36.5q0 53 -64 53h-45z
" />
    <glyph glyph-name="uni2463" unicode="&#x2463;" horiz-adv-x="1120" 
d="M561 858q105 0 196 -38t158 -105t105.5 -158t38.5 -197t-38.5 -197t-105.5 -158t-158 -105t-196 -38q-106 0 -197 38t-158 105t-105.5 158t-38.5 197t38.5 197t105.5 158t158 105t197 38zM561 753q-85 0 -157 -30t-123.5 -83t-80.5 -125t-29 -155t29 -155t80.5 -125
t123.5 -83t157 -30q86 0 157 30t122.5 83t80 125t28.5 155t-28.5 155t-80 125t-122.5 83t-157 30zM771 182q0 -12 -11 -12h-44v-73q0 -12 -11 -12h-104q-12 0 -12 12v73h-260q-11 0 -11 12v40q0 5 1 10.5t3 10.5l165 388q3 6 11 6h136q17 0 11 -16l-146 -319h90v87
q0 11 12 11h104q11 0 11 -11v-87h44q11 0 11 -12v-108z" />
    <glyph glyph-name="uni2464" unicode="&#x2464;" horiz-adv-x="1120" 
d="M561 858q105 0 196 -38t158 -105t105.5 -158t38.5 -197t-38.5 -197t-105.5 -158t-158 -105t-196 -38q-106 0 -197 38t-158 105t-105.5 158t-38.5 197t38.5 197t105.5 158t158 105t197 38zM561 753q-85 0 -157 -30t-123.5 -83t-80.5 -125t-29 -155t29 -155t80.5 -125
t123.5 -83t157 -30q86 0 157 30t122.5 83t80 125t28.5 155t-28.5 155t-80 125t-122.5 83t-157 30zM733 506q0 -12 -11 -12h-202l-3 -65h44q94 0 147.5 -43t53.5 -132q0 -37 -13 -71t-38 -60.5t-61.5 -42.5t-82.5 -16q-166 0 -212 142q-3 9 6 13l97 41q11 3 15 -8
q11 -28 30 -42.5t49 -14.5q62 0 62 55q0 24 -14.5 40t-51.5 16h-165q-13 0 -11 12l22 304q0 10 11 10h317q11 0 11 -11v-115z" />
    <glyph glyph-name="uni2465" unicode="&#x2465;" horiz-adv-x="1120" 
d="M561 858q105 0 196 -38t158 -105t105.5 -158t38.5 -197t-38.5 -197t-105.5 -158t-158 -105t-196 -38q-106 0 -197 38t-158 105t-105.5 158t-38.5 197t38.5 197t105.5 158t158 105t197 38zM561 753q-85 0 -157 -30t-123.5 -83t-80.5 -125t-29 -155t29 -155t80.5 -125
t123.5 -83t157 -30q86 0 157 30t122.5 83t80 125t28.5 155t-28.5 155t-80 125t-122.5 83t-157 30zM667 631q9 0 12 -5t-3 -13l-118 -180q15 3 25.5 4.5t20.5 1.5q33 0 62 -12.5t50.5 -36t34 -56t12.5 -72.5q0 -45 -16.5 -80.5t-45.5 -60t-69 -37.5t-87 -13q-46 0 -83.5 12
t-64.5 35.5t-42 57.5t-15 77q0 39 11 75.5t31 68.5l137 228q5 6 10 6h138zM554 329q-64 0 -64 -62q0 -58 60 -58q63 0 63 62q0 58 -59 58z" />
    <glyph glyph-name="uni2466" unicode="&#x2466;" horiz-adv-x="1120" 
d="M561 858q105 0 196 -38t158 -105t105.5 -158t38.5 -197t-38.5 -197t-105.5 -158t-158 -105t-196 -38q-106 0 -197 38t-158 105t-105.5 158t-38.5 197t38.5 197t105.5 158t158 105t197 38zM561 753q-85 0 -157 -30t-123.5 -83t-80.5 -125t-29 -155t29 -155t80.5 -125
t123.5 -83t157 -30q86 0 157 30t122.5 83t80 125t28.5 155t-28.5 155t-80 125t-122.5 83t-157 30zM385 464q-12 0 -12 12v114q0 12 12 12h356q12 0 12 -12v-41q0 -10 -4 -20l-165 -470q-3 -7 -12 -7h-135q-17 0 -12 15l160 397h-200z" />
    <glyph glyph-name="uni2467" unicode="&#x2467;" horiz-adv-x="1120" 
d="M561 858q105 0 196 -38t158 -105t105.5 -158t38.5 -197t-38.5 -197t-105.5 -158t-158 -105t-196 -38q-106 0 -197 38t-158 105t-105.5 158t-38.5 197t38.5 197t105.5 158t158 105t197 38zM561 753q-85 0 -157 -30t-123.5 -83t-80.5 -125t-29 -155t29 -155t80.5 -125
t123.5 -83t157 -30q86 0 157 30t122.5 83t80 125t28.5 155t-28.5 155t-80 125t-122.5 83t-157 30zM561 642q43 0 78 -10t60 -29t38.5 -46t13.5 -60q0 -39 -20 -75.5t-60 -54.5q52 -20 75 -57.5t23 -82.5q0 -69 -51 -112t-157 -43q-107 0 -158.5 43t-51.5 112q0 45 23.5 82.5
t76.5 57.5q-41 18 -61 54.5t-20 75.5q0 67 52 106t139 39zM561 516q-48 0 -48 -45q0 -20 11 -32t37 -12t37.5 12t11.5 32q0 45 -49 45zM561 312q-33 0 -46.5 -14.5t-13.5 -38.5q0 -23 13.5 -37.5t46.5 -14.5q32 0 45 14.5t13 37.5q0 24 -13 38.5t-45 14.5z" />
    <glyph glyph-name="uni2468" unicode="&#x2468;" horiz-adv-x="1120" 
d="M561 858q105 0 196 -38t158 -105t105.5 -158t38.5 -197t-38.5 -197t-105.5 -158t-158 -105t-196 -38q-106 0 -197 38t-158 105t-105.5 158t-38.5 197t38.5 197t105.5 158t158 105t197 38zM561 753q-85 0 -157 -30t-123.5 -83t-80.5 -125t-29 -155t29 -155t80.5 -125
t123.5 -83t157 -30q86 0 157 30t122.5 83t80 125t28.5 155t-28.5 155t-80 125t-122.5 83t-157 30zM444 66q-21 0 -10 18l118 181q-9 -3 -21 -4.5t-24 -1.5q-33 0 -62 12.5t-51 36t-34.5 56t-12.5 72.5q0 45 16.5 80.5t45.5 59.5t68.5 37t86.5 13q46 0 84 -12t65.5 -35
t42.5 -57t15 -78q0 -39 -11.5 -75t-30.5 -68l-138 -229q-3 -6 -9 -6h-138zM557 368q32 0 48 16.5t16 45.5q0 59 -61 59q-30 0 -46.5 -16t-16.5 -46q0 -59 60 -59z" />
    <glyph glyph-name="uni24D5" unicode="&#x24d5;" horiz-adv-x="875" 
d="M438 745q87 0 160 -28t126 -80t82.5 -124.5t29.5 -161.5t-29.5 -162t-82.5 -125t-126 -80.5t-160 -28.5t-160 28.5t-126 80.5t-83 125t-30 162t30 161.5t83 124.5t126 80t160 28zM438 658q-68 0 -124.5 -22t-97 -62t-63 -97t-22.5 -126q0 -70 22.5 -127t63 -97.5
t97 -62.5t124.5 -22t124 22t96.5 62.5t63 97.5t22.5 127t-22 126.5t-62.5 96.5t-97 62t-124.5 22zM534 331q0 -12 -12 -12h-71v-174q0 -11 -12 -11h-76q-11 0 -11 11v174h-42q-12 0 -12 12v61q0 12 12 12h42v22q0 65 36 102t93 37q27 0 52.5 -4.5t52.5 -17.5q10 -5 5 -15
l-24 -52q-5 -9 -15 -6q-15 6 -28.5 8.5t-24.5 2.5q-27 0 -37.5 -16.5t-10.5 -45.5v-15h71q12 0 12 -12v-61z" />
    <glyph glyph-name="uni24E3" unicode="&#x24e3;" horiz-adv-x="875" 
d="M438 745q87 0 160 -28t126 -80t82.5 -124.5t29.5 -161.5t-29.5 -162t-82.5 -125t-126 -80.5t-160 -28.5t-160 28.5t-126 80.5t-83 125t-30 162t30 161.5t83 124.5t126 80t160 28zM438 658q-68 0 -124.5 -22t-97 -62t-63 -97t-22.5 -126q0 -70 22.5 -127t63 -97.5
t97 -62.5t124.5 -22t124 22t96.5 62.5t63 97.5t22.5 127t-22 126.5t-62.5 96.5t-97 62t-124.5 22zM440 525q11 0 11 -11v-57h93q12 0 12 -11l-2 -63q0 -12 -11 -12h-92v-77q0 -26 8 -35.5t32 -9.5q12 0 23 3t22 8q12 5 17 -6l20 -55q4 -9 -5 -14q-23 -11 -50 -17t-51 -6
q-50 0 -82.5 27.5t-32.5 75.5v106h-46q-12 0 -12 12l2 63q0 11 11 11h59l35 62q3 6 10 6h29z" />
    <glyph glyph-name="uni24EA" unicode="&#x24ea;" horiz-adv-x="1120" 
d="M561 858q105 0 196 -38t158 -105t105.5 -158t38.5 -197t-38.5 -197t-105.5 -158t-158 -105t-196 -38q-106 0 -197 38t-158 105t-105.5 158t-38.5 197t38.5 197t105.5 158t158 105t197 38zM561 753q-85 0 -157 -30t-123.5 -83t-80.5 -125t-29 -155t29 -155t80.5 -125
t123.5 -83t157 -30q86 0 157 30t122.5 83t80 125t28.5 155t-28.5 155t-80 125t-122.5 83t-157 30zM562 640q62 0 106 -22.5t72 -61t40.5 -90t12.5 -110.5t-12.5 -111t-40.5 -91t-72 -61.5t-106 -22.5t-106 22.5t-71.5 61t-40.5 90.5t-13 111t13 111t40.5 90.5t71.5 61
t106 22.5zM562 495q-20 0 -35 -6.5t-25 -22.5t-15 -43t-5 -67q0 -80 20 -110.5t60 -30.5q41 0 60.5 30.5t19.5 110.5t-19.5 109.5t-60.5 29.5z" />
    <glyph glyph-name="uni24FF" unicode="&#x24ff;" horiz-adv-x="1118" 
d="M559 858q111 0 202.5 -35.5t157 -100.5t101.5 -157t36 -205t-36 -205t-101.5 -157t-157 -100.5t-202.5 -35.5t-202.5 35.5t-157 100.5t-101.5 157t-36 205t36 205t101.5 157t157 100.5t202.5 35.5zM559 645q-62 0 -106 -22.5t-71.5 -61t-40.5 -90.5t-13 -111t13 -111
t40.5 -90.5t71.5 -61t106 -22.5t106 22.5t72 61.5t40.5 91t12.5 111t-13 110.5t-40.5 90t-71.5 61t-106 22.5zM559 500q20 0 35 -6.5t25 -22.5t15 -43t5 -67q0 -80 -19.5 -110.5t-60.5 -30.5q-40 0 -60 30.5t-20 110.5q0 40 5 67t15 43t25 22.5t35 6.5z" />
    <glyph glyph-name="filledbox" unicode="&#x25a0;" horiz-adv-x="1102" 
d="M73 -135q-11 0 -11 11v948q0 11 11 11h956q11 0 11 -11v-948q0 -11 -11 -11h-956z" />
    <glyph glyph-name="uni25A1" unicode="&#x25a1;" horiz-adv-x="1102" 
d="M73 -135q-11 0 -11 11v948q0 11 11 11h956q11 0 11 -11v-948q0 -11 -11 -11h-956zM930 -29v758h-758v-758h758z" />
    <glyph glyph-name="uni25AA" unicode="&#x25aa;" horiz-adv-x="600" 
d="M184 222q-12 0 -12 12v233q0 11 12 11h233q11 0 11 -11v-233q0 -12 -11 -12h-233z" />
    <glyph glyph-name="triagup" unicode="&#x25b2;" horiz-adv-x="800" 
d="M99 50q-18 0 -10 17l301 564q10 18 21 0l300 -564q9 -17 -10 -17h-602z" />
    <glyph glyph-name="uni25B6" unicode="&#x25b6;" horiz-adv-x="780" 
d="M117 44q-17 -8 -17 10v602q0 19 17 10l564 -300q18 -11 0 -21z" />
    <glyph glyph-name="triagdn" unicode="&#x25bc;" horiz-adv-x="800" 
d="M701 630q19 0 10 -17l-300 -564q-11 -18 -21 0l-301 564q-8 17 10 17h602z" />
    <glyph glyph-name="uni25C0" unicode="&#x25c0;" horiz-adv-x="780" 
d="M680 54q0 -18 -17 -10l-564 301q-18 10 0 21l564 300q17 9 17 -10v-602z" />
    <glyph glyph-name="lozenge" unicode="&#x25ca;" horiz-adv-x="632" 
d="M592 355q3 -6 0 -12l-204 -353q-3 -6 -10 -6h-125q-7 0 -10 6l-203 353q-3 6 0 12l203 355q3 6 10 6h125q7 0 10 -6zM316 609l-129 -260l129 -258l129 258z" />
    <glyph glyph-name="circle" unicode="&#x25cb;" horiz-adv-x="1074" 
d="M538 858q105 0 196 -38t158 -105t105.5 -158t38.5 -197t-38.5 -197t-105.5 -158t-158 -105t-196 -38q-106 0 -197 38t-158 105t-105.5 158t-38.5 197t38.5 197t105.5 158t158 105t197 38zM538 753q-85 0 -156.5 -30t-123.5 -83t-80.5 -125t-28.5 -155t28.5 -155
t80.5 -125t123.5 -83t156.5 -30q86 0 157 30t122.5 83t80 125t28.5 155t-28.5 155t-80 125t-122.5 83t-157 30z" />
    <glyph glyph-name="uni25CF" unicode="&#x25cf;" horiz-adv-x="1074" 
d="M538 858q105 0 196 -38t158 -105t105.5 -158t38.5 -197t-38.5 -197t-105.5 -158t-158 -105t-196 -38q-106 0 -197 38t-158 105t-105.5 158t-38.5 197t38.5 197t105.5 158t158 105t197 38z" />
    <glyph glyph-name="uni2605" unicode="&#x2605;" horiz-adv-x="977" 
d="M477 718q5 17 11 17t11 -17l84 -260h279q34 0 7 -21l-225 -167l83 -266q6 -20 -4 -20q-5 0 -15 7l-221 167l-218 -166q-13 -10 -18 -7t0 20l82 265l-225 167q-26 21 7 21h280z" />
    <glyph glyph-name="uni2606" unicode="&#x2606;" horiz-adv-x="1071" 
d="M525 795q4 16 11 16q6 0 10 -16l96 -293h315q33 0 6 -21l-253 -188l93 -299q6 -20 -4 -20q-3 0 -15 7l-248 188l-249 -188q-10 -7 -15 -7q-9 0 -3 20l92 299l-253 188q-26 21 7 21h314zM488 420h-160l129 -97l-45 -144l124 93l123 -93l-45 144l129 97h-160l-47 150z" />
    <glyph glyph-name="uni261C" unicode="&#x261c;" horiz-adv-x="1162" 
d="M1089 459q11 0 11 -11v-34q0 -11 -11 -11h-237q-6 0 -10 6q-35 69 -94 98.5t-125 29.5q-12 0 -24.5 -1t-25.5 -3l-185 -25q-23 -3 -28 -15t-2 -20q6 -16 24.5 -22t51.5 -6t68 2.5t70 10.5q10 2 13 -6q19 -32 47 -59.5t83 -46.5q13 -4 6 -16l-13 -25q-4 -9 -13 -5
q-41 16 -65 31.5t-42 37.5q-1 -12 -6 -25t-17 -21q23 -5 37 -17.5t19 -36.5q5 -20 -3.5 -42t-28.5 -32q14 -7 23 -17t13 -27q5 -21 -5.5 -44t-39.5 -31l-11 -3q12 -2 24 -3t24 -1q36 0 70.5 7t65 19t55.5 27.5t42 31.5q5 3 9 3h230q11 0 11 -11v-34q0 -12 -11 -12h-222
q-43 -34 -106 -56t-138 -22q-37 0 -75.5 6.5t-76.5 20.5l-14 -3q-36 -8 -62 5.5t-33 36.5q-5 17 -1.5 32t11.5 25q-35 2 -55 20.5t-25 39.5q-3 16 1.5 33.5t15.5 31.5q-20 5 -33 21.5t-15 34.5q-1 10 0.5 23t8.5 25l-130 -10q-25 -2 -42.5 4.5t-28.5 18t-16 26t-5 29.5
q0 29 21.5 50.5t74.5 25.5l170 12q9 11 22.5 18t37.5 10l204 27q24 3 49 3q36 0 72 -7.5t69.5 -23t63 -40t51.5 -58.5h206zM153 470q-29 -1 -39 -8t-10 -22t10 -21.5t38 -4.5l178 13q-11 7 -18.5 20t-8.5 30zM361 373q-28 -4 -41 -13t-10 -27q2 -18 19 -22t44 1l129 23
q24 5 31.5 13t5.5 22q-1 12 -11.5 19t-39.5 3zM574 259q-2 18 -16.5 24.5t-45.5 1.5l-135 -25q-23 -5 -31.5 -17t-6.5 -27t16 -22.5t40 -2.5l134 24q29 5 38.5 15.5t6.5 28.5zM438 145q-21 -4 -27.5 -14.5t-3.5 -23.5q6 -23 47 -14l93 19q20 5 26 12.5t4 20.5q-3 25 -45 17z
" />
    <glyph glyph-name="uni261D" unicode="&#x261d;" horiz-adv-x="677" 
d="M486 -189q0 -11 -11 -11h-34q-11 0 -11 11v239q0 7 6 10q41 20 67.5 50t41 65t17.5 74.5t-2 79.5l-25 185q-4 23 -15.5 28t-19.5 2q-29 -11 -29 -76q0 -34 2.5 -68.5t10.5 -69.5q3 -8 -5 -14q-32 -18 -60 -46t-46 -83q-5 -12 -16 -7l-25 13q-9 5 -5 14q15 40 31 64.5
t38 42.5q-13 0 -25.5 5.5t-20.5 16.5q-5 -22 -18 -36t-37 -20q-19 -5 -41 4t-32 29q-8 -14 -17.5 -23.5t-27.5 -13.5q-20 -5 -43 6t-31 40l-3 11q-6 -43 -1.5 -85t16.5 -78.5t29.5 -67t36.5 -51.5q3 -3 3 -8v-232q0 -11 -11 -11h-35q-11 0 -11 11v224q-25 32 -44.5 76
t-28 95.5t-4 109t25.5 115.5l-3 14q-8 36 5 62t37 32q16 5 31 2t26 -11q2 35 20 55t40 25q16 3 33.5 -1.5t30.5 -16.5q5 20 22 33t35 15q10 2 23 0.5t24 -9.5l-9 130q-2 25 4.5 42.5t18 29t26 16.5t29.5 5q29 0 50.5 -21.5t25.5 -74.5l12 -170q11 -9 17.5 -23t9.5 -37
l28 -204q6 -41 1.5 -84t-19.5 -83.5t-41.5 -76t-66.5 -61.5v-208zM497 748q-2 29 -8.5 40t-22.5 11q-15 0 -21 -11t-4 -39l13 -177q7 11 19.5 18.5t30.5 8.5zM400 541q-4 27 -13 40.5t-28 10.5q-17 -3 -21 -19.5t1 -43.5l23 -130q5 -23 13 -30.5t22 -5.5q12 1 19 11t3 39z
M286 327q18 3 24 17.5t1 45.5l-24 134q-4 23 -16.5 32t-27.5 7t-23 -16.5t-3 -40.5l24 -134q5 -28 15.5 -38t29.5 -7zM172 463q-5 21 -15.5 28t-22.5 4t-15.5 -15.5t1.5 -31.5l19 -94q5 -19 12.5 -25.5t20.5 -4.5q25 3 17 46z" />
    <glyph glyph-name="uni261E" unicode="&#x261e;" horiz-adv-x="1162" 
d="M266 459q22 34 51.5 58.5t63 40t69.5 23t72 7.5q24 0 48 -3l205 -27q23 -3 36.5 -10t22.5 -18l170 -12q53 -4 74.5 -25.5t21.5 -50.5q0 -15 -5 -29.5t-16 -26t-28.5 -18t-42.5 -4.5l-130 10q7 -12 9 -25t0 -23q-2 -18 -15 -34.5t-33 -21.5q11 -14 15.5 -31.5t1.5 -33.5
q-5 -21 -25 -39.5t-55 -20.5q8 -10 11.5 -25t-1.5 -32q-7 -23 -33 -36.5t-62 -5.5l-14 3q-38 -14 -76.5 -20.5t-75.5 -6.5q-75 0 -138 22t-106 56h-222q-11 0 -11 12v34q0 11 11 11h231q4 0 8 -3q17 -16 42 -31.5t55.5 -27.5t65 -19t70.5 -7q12 0 24 1t24 3l-10 3
q-29 8 -40 31t-6 44q4 17 13 27t23 17q-19 10 -28 32t-4 42q5 24 19 36.5t37 17.5q-12 8 -17 21t-6 25q-18 -22 -42 -37.5t-64 -31.5q-11 -4 -14 5l-13 25q-7 12 6 16q55 19 83.5 46.5t46.5 59.5q5 8 13 6q35 -8 70 -10.5t68 -2.5t52 6t24 22q3 8 -2 20t-28 15l-185 25
q-13 2 -25.5 3t-24.5 1q-66 0 -125 -29.5t-94 -98.5q-2 -6 -10 -6h-237q-11 0 -11 11v34q0 11 11 11h207zM845 477q-2 -35 -26 -50l177 -13q28 -2 38.5 4.5t10.5 21.5t-10.5 22t-39.5 8zM660 392q-29 4 -39.5 -3t-11.5 -19q-2 -14 6 -22t31 -13l129 -23q27 -5 44 -1t19 22
q3 18 -10 27t-41 13zM574 259q-3 -18 6.5 -28.5t38.5 -15.5l134 -24q26 -5 40 2.5t16 22.5t-6.5 27.5t-31.5 16.5l-135 25q-31 5 -45.5 -1.5t-16.5 -24.5zM616 162q-42 8 -45 -17q-2 -13 4 -20.5t26 -12.5l93 -19q20 -5 32.5 -1.5t14.5 15.5q3 13 -3.5 23.5t-27.5 14.5z" />
    <glyph glyph-name="uni261F" unicode="&#x261f;" horiz-adv-x="677" 
d="M486 635q40 -26 66.5 -61.5t41.5 -76t19.5 -83.5t-1.5 -84l-28 -204q-3 -24 -9.5 -37.5t-17.5 -22.5l-12 -170q-4 -53 -25.5 -74.5t-50.5 -21.5q-15 0 -29.5 5t-26 16t-18 28.5t-4.5 43.5l9 129q-11 -7 -24 -8.5t-23 -0.5q-18 2 -35 15t-22 33q-13 -11 -30.5 -15.5
t-33.5 -1.5q-22 5 -40 25t-20 55q-11 -8 -26 -11t-31 1q-24 7 -37 33t-5 62l3 14q-21 58 -25.5 115t4 109t28 96.5t44.5 75.5v192q0 11 11 11h35q11 0 11 -11v-200q0 -5 -3 -8q-19 -21 -36.5 -51.5t-29.5 -67t-16.5 -78.5t1.5 -85l3 11q8 29 31 39.5t43 5.5
q18 -3 27.5 -12.5t17.5 -23.5q10 20 32 29t41 4q24 -6 37 -20t18 -36q8 11 20.5 16.5t25.5 5.5q-22 18 -38 42t-31 65q-4 9 5 14l25 12q11 6 16 -6q18 -55 46 -83t60 -47q3 -2 5 -5.5t0 -7.5q-8 -35 -10.5 -70t-2.5 -68q0 -65 29 -76q8 -3 19.5 2t15.5 28l25 185q5 40 2 79
t-17.5 74.5t-41 65t-67.5 50.5q-6 3 -6 10v207q0 11 11 11h34q11 0 11 -11v-176zM189 284q8 41 -17 46q-13 2 -20.5 -4.5t-12.5 -26.5l-19 -93q-9 -41 14 -47q12 -3 22.5 4t15.5 28zM286 327q-19 3 -29.5 -7t-15.5 -38l-24 -134q-5 -26 3 -40.5t23 -16.5t27.5 6.5t16.5 31.5
l24 135q5 31 -1 45.5t-24 17.5zM419 241q4 28 -3 38.5t-19 11.5q-14 2 -22 -5.5t-13 -31.5l-23 -129q-5 -27 -1 -43.5t21 -19.5q19 -3 28 10t13 41zM504 55q-18 1 -30.5 8.5t-19.5 18.5l-13 -178q-2 -27 4 -38t21 -11q16 0 22.5 11t8.5 40z" />
    <glyph glyph-name="uni2630" unicode="&#x2630;" horiz-adv-x="763" 
d="M73 574q-11 0 -11 12v90q0 11 11 11h617q12 0 12 -11v-90q0 -12 -12 -12h-617zM73 328q-11 0 -11 11v90q0 12 11 12h617q12 0 12 -12v-90q0 -11 -12 -11h-617zM73 81q-11 0 -11 12v90q0 11 11 11h617q12 0 12 -11v-90q0 -12 -12 -12h-617z" />
    <glyph glyph-name="uni2639" unicode="&#x2639;" horiz-adv-x="848" 
d="M424 730q82 0 152.5 -29.5t122 -81t81 -122t29.5 -152.5t-29.5 -152t-81 -122t-122 -81.5t-152.5 -29.5t-152 29.5t-122 81.5t-81.5 122t-29.5 152t29.5 152.5t81.5 122t122 81t152 29.5zM424 650q-66 0 -121.5 -23.5t-96 -65t-63 -97t-22.5 -119.5t22.5 -119.5t63 -97
t96 -65t121.5 -23.5t121.5 23.5t96 65t63 97t22.5 119.5t-22.5 119.5t-63 97t-96 65t-121.5 23.5zM304 486q26 0 42 -16t16 -41t-16 -41t-42 -16q-25 0 -41.5 16t-16.5 41t16.5 41t41.5 16zM541 486q26 0 42 -16t16 -41t-16 -41t-42 -16q-25 0 -41 16t-16 41t16 41t41 16z
M423 232q-30 0 -54.5 -6.5t-44 -17.5t-35 -25t-27.5 -29q-8 -8 -16 -1l-25 23q-7 7 -1 15q14 17 33 35t44 32t56.5 23t69.5 9t69.5 -9t56.5 -23t44.5 -32t32.5 -35q6 -9 -1 -15l-24 -23q-8 -8 -17 1q-12 15 -27.5 29t-35 25t-44 17.5t-54.5 6.5z" />
    <glyph glyph-name="smileface" unicode="&#x263a;" horiz-adv-x="848" 
d="M424 730q82 0 152.5 -29.5t122 -81t81 -122t29.5 -152.5t-29.5 -152t-81 -122t-122 -81.5t-152.5 -29.5t-152 29.5t-122 81.5t-81.5 122t-29.5 152t29.5 152.5t81.5 122t122 81t152 29.5zM424 650q-66 0 -121.5 -23.5t-96 -65t-63 -97t-22.5 -119.5t22.5 -119.5t63 -97
t96 -65t121.5 -23.5t121.5 23.5t96 65t63 97t22.5 119.5t-22.5 119.5t-63 97t-96 65t-121.5 23.5zM304 486q26 0 42 -16t16 -41t-16 -41t-42 -16q-25 0 -41.5 16t-16.5 41t16.5 41t41.5 16zM541 486q26 0 42 -16t16 -41t-16 -41t-42 -16q-25 0 -41 16t-16 41t16 41t41 16z
M423 204q30 0 54.5 6.5t44 17.5t35 25t27.5 28q9 9 17 1l24 -22q8 -6 1 -16q-13 -17 -32.5 -34.5t-44.5 -32t-56.5 -23.5t-69.5 -9t-69.5 9t-56.5 23.5t-44 32t-33 34.5q-6 9 1 16l25 22q8 8 16 -1q12 -14 27.5 -28t35 -25t44 -17.5t54.5 -6.5z" />
    <glyph glyph-name="invsmileface" unicode="&#x263b;" horiz-adv-x="850" 
d="M425 731q82 0 153 -29.5t123 -81t81.5 -122t29.5 -153.5q0 -82 -29.5 -152.5t-81.5 -122.5t-123 -81.5t-153 -29.5t-152.5 29.5t-122.5 81.5t-81.5 122.5t-29.5 152.5q0 83 29.5 153.5t81.5 122t122.5 81t152.5 29.5zM305 486q-25 0 -41.5 -16t-16.5 -41t16.5 -41
t41.5 -16q26 0 42 16t16 41t-16 41t-42 16zM543 486q-26 0 -42 -16t-16 -41t16 -41t42 -16q25 0 41.5 16t16.5 41t-16.5 41t-41.5 16zM424 204q-33 0 -58.5 7.5t-46 20t-36 28t-27.5 30.5l-41 -37q13 -18 32 -37t44.5 -35t58.5 -26t74 -10t74 10t59 26t45 35t32 37l-41 37
q-13 -15 -28.5 -30.5t-35.5 -28t-46 -20t-59 -7.5z" />
    <glyph glyph-name="spade" unicode="&#x2660;" horiz-adv-x="807" 
d="M619 456q38 -37 61.5 -79.5t23.5 -90.5q0 -66 -40 -104.5t-109 -38.5q-29 0 -50 9.5t-35 26t-23 38t-14 46.5h-10q1 -93 15.5 -150.5t35.5 -93.5q11 -19 -10 -19h-122q-21 0 -10 19q21 36 35.5 93.5t15.5 150.5h-10q-5 -25 -13.5 -46.5t-23 -38t-35 -26t-49.5 -9.5
q-69 0 -109 38.5t-40 104.5q0 48 23.5 90.5t61.5 79.5l208 201q8 8 15 0z" />
    <glyph glyph-name="club" unicode="&#x2663;" horiz-adv-x="698" 
d="M39 317q0 33 11 60.5t30.5 47t47 30t60.5 10.5q5 0 14.5 -1.5t14.5 -2.5q-7 13 -11.5 28t-4.5 31q0 67 41 107.5t108 40.5q66 0 107 -40.5t41 -107.5q0 -16 -5 -31.5t-12 -28.5q6 1 15.5 3t16.5 2q67 0 107 -41t40 -107q0 -68 -40 -108.5t-107 -40.5q-68 0 -99.5 40.5
t-31.5 108.5h-12q0 -47 4.5 -91t11 -83t16 -70.5t20.5 -53.5q10 -19 -12 -19h-121q-11 0 -13.5 5.5t1.5 13.5q11 22 20.5 53.5t16.5 70.5t11 83t4 91h-12q0 -68 -31 -108.5t-98 -40.5t-108 40.5t-41 108.5z" />
    <glyph glyph-name="heart" unicode="&#x2665;" horiz-adv-x="720" 
d="M130 267q-41 39 -66 84.5t-25 96.5q0 71 43 112t117 41q31 0 56.5 -10t45 -27.5t33 -41t19.5 -49.5h15q6 26 19 49.5t32.5 41t45.5 27.5t57 10q74 0 117 -41t43 -112q0 -51 -25.5 -96t-66.5 -85l-222 -216q-7 -7 -15 0z" />
    <glyph glyph-name="diamond" unicode="&#x2666;" horiz-adv-x="562" 
d="M42 292q-6 8 0 16q38 41 70 78.5t60 75.5t53 78t49 86q2 4 7 4t7 -4q24 -46 49 -86t52.5 -78t59.5 -75.5t70 -78.5q8 -8 0 -16q-38 -41 -70 -78.5t-59.5 -75.5t-52.5 -78t-49 -86q-2 -4 -7 -4t-7 4q-24 46 -49 86t-53 78t-60 75.5t-70 78.5z" />
    <glyph glyph-name="uni2706" unicode="&#x2706;" horiz-adv-x="875" 
d="M438 745q87 0 160 -28t126 -80t82.5 -124.5t29.5 -161.5t-29.5 -162t-82.5 -125t-126 -80.5t-160 -28.5t-160 28.5t-126 80.5t-83 125t-30 162t30 161.5t83 124.5t126 80t160 28zM438 658q-68 0 -124.5 -22t-97 -62t-63 -97t-22.5 -126q0 -70 22.5 -127t63 -97.5
t97 -62.5t124.5 -22t124 22t96.5 62.5t63 97.5t22.5 127t-22 126.5t-62.5 96.5t-97 62t-124.5 22zM307 146q-5 -5 -13 -1q-39 27 -57.5 57.5t-2.5 74.5q15 41 38.5 82t52 79t62 71.5t68.5 60.5q11 9 25 13t29 4q24 0 48.5 -9.5t43.5 -27.5q5 -5 3 -11q-10 -26 -32 -54
t-50 -49q-6 -4 -13 -1l-32 18q-52 -24 -82.5 -65.5t-43.5 -98.5l30 -28q7 -5 3 -12q-13 -32 -33.5 -59t-43.5 -44zM568 402q-8 -4 -13 1l-13 10q-13 8 -1 18q43 39 71 88q7 14 19 3l11 -11q6 -4 4 -11q-10 -26 -31 -52.5t-47 -45.5zM359 109q-7 -5 -14 0l-18 13q-11 8 -1 18
q21 20 37.5 43t27.5 48q8 16 20 5l15 -15q5 -5 3 -11q-8 -26 -27 -54t-43 -47z" />
    <glyph glyph-name="uni2709" unicode="&#x2709;" horiz-adv-x="1018" 
d="M73 0q-11 0 -11 12v586q0 11 11 11h872q12 0 12 -11v-586q0 -12 -12 -12h-872zM512 314l292 214h-584zM362 326l-217 161v-363zM659 324l215 -198v357zM424 280l-214 -199h601l-214 197l-85 -63z" />
    <glyph glyph-name="uni2713" unicode="&#x2713;" horiz-adv-x="666" 
d="M44 384q-5 9 5 16l124 60q11 5 14 -5l123 -234l178 394q5 9 15 6l114 -53q11 -5 5 -16l-258 -503q-3 -6 -10 -6h-95q-6 0 -11 5z" />
    <glyph glyph-name="uni2715" unicode="&#x2715;" horiz-adv-x="704" 
d="M637 546q8 -7 0 -15l-182 -184l183 -184q8 -8 0 -15l-86 -87q-8 -8 -16 0l-184 184l-185 -182q-8 -8 -15 0l-86 85q-8 9 0 17l184 182l-182 184q-8 7 0 15l86 86q8 10 16 0l182 -183l184 183q6 10 16 0z" />
    <glyph glyph-name="uni275B" unicode="&#x275b;" horiz-adv-x="468" 
d="M238 247q-41 0 -76 14t-61 40t-40.5 64.5t-14.5 86.5q0 53 18 105.5t54.5 97.5t91 78t127.5 47q10 2 13 -8l18 -61q3 -14 -10 -16q-55 -9 -96.5 -36.5t-60.5 -78.5q29 16 57 16q38 0 68.5 -12.5t51.5 -35t32.5 -53t11.5 -65.5t-12 -68t-35 -58.5t-57.5 -41t-79.5 -15.5z
" />
    <glyph glyph-name="uni275C" unicode="&#x275c;" horiz-adv-x="468" 
d="M230 790q41 0 76.5 -14t61 -40t40 -64.5t14.5 -86.5q0 -53 -18 -105.5t-54 -97.5t-90.5 -78.5t-127.5 -47.5q-11 -2 -14 8l-17 62q-4 13 9 15q56 9 97.5 37t59.5 79q-26 -16 -57 -16q-37 0 -67.5 12.5t-52 34.5t-33 52.5t-11.5 65.5t12 68t35 59t57.5 41.5t79.5 15.5z
" />
    <glyph glyph-name="uni275D" unicode="&#x275d;" horiz-adv-x="874" 
d="M644 247q-41 0 -76.5 14t-61 40t-40 64.5t-14.5 86.5q0 53 18 105.5t54 97.5t90.5 78t127.5 47q11 2 14 -8l17 -61q5 -14 -9 -16q-56 -9 -97.5 -36.5t-59.5 -78.5q29 16 57 16q38 0 68 -12.5t51.5 -35t33 -53t11.5 -65.5t-12 -68t-35 -58.5t-57.5 -41t-79.5 -15.5z
M238 247q-41 0 -76 14t-61 40t-40.5 64.5t-14.5 86.5q0 53 18 105.5t54.5 97.5t91 78t127.5 47q10 2 13 -8l18 -61q3 -14 -10 -16q-55 -9 -96.5 -36.5t-60.5 -78.5q29 16 57 16q38 0 68.5 -12.5t51.5 -35t32.5 -53t11.5 -65.5t-12 -68t-35 -58.5t-57.5 -41t-79.5 -15.5z" />
    <glyph glyph-name="uni275E" unicode="&#x275e;" horiz-adv-x="874" 
d="M132 256q-11 -2 -14 8l-17 62q-4 13 9 15q56 9 97.5 37t59.5 79q-26 -16 -57 -16q-37 0 -67.5 12.5t-52 34.5t-33 52.5t-11.5 65.5t12 68t35 59t57.5 41.5t79.5 15.5q41 0 76.5 -14t61 -40t40 -64.5t14.5 -86.5q0 -53 -18 -105.5t-54 -97.5t-90.5 -78.5t-127.5 -47.5z
M537 256q-10 -2 -13 8l-18 62q-3 13 10 15q55 9 96.5 37t60.5 79q-26 -16 -57 -16q-38 0 -68.5 12.5t-51.5 34.5t-32.5 52.5t-11.5 65.5t12 68t35 59t57.5 41.5t79.5 15.5q41 0 76 -14t61 -40t40.5 -64.5t14.5 -86.5q0 -53 -18 -105.5t-54.5 -97.5t-91 -78.5t-127.5 -47.5z
" />
    <glyph glyph-name="uni275F" unicode="&#x275f;" horiz-adv-x="468" 
d="M230 341q41 0 76.5 -14t61 -40t40 -64.5t14.5 -86.5q0 -53 -18 -105.5t-54 -97.5t-90.5 -78t-127.5 -47q-11 -2 -14 7l-17 62q-5 14 9 16q56 9 97.5 36.5t59.5 78.5q-26 -16 -57 -16q-37 0 -67.5 12.5t-52 35t-33 53t-11.5 65.5t12 68t35 58.5t57.5 41t79.5 15.5z" />
    <glyph glyph-name="uni2760" unicode="&#x2760;" horiz-adv-x="874" 
d="M230 341q41 0 76.5 -14t61 -40t40 -64.5t14.5 -86.5q0 -53 -18 -105.5t-54 -97.5t-90.5 -78t-127.5 -47q-11 -2 -14 7l-17 62q-5 14 9 16q56 9 97.5 36.5t59.5 78.5q-26 -16 -57 -16q-37 0 -67.5 12.5t-52 35t-33 53t-11.5 65.5t12 68t35 58.5t57.5 41t79.5 15.5z
M636 341q41 0 76 -14t61 -40t40.5 -64.5t14.5 -86.5q0 -53 -18 -105.5t-54.5 -97.5t-91 -78t-127.5 -47q-10 -2 -13 7l-18 62q-3 14 10 16q55 9 96.5 36.5t60.5 78.5q-26 -16 -57 -16q-38 0 -68.5 12.5t-51.5 35t-32.5 53t-11.5 65.5t12 68t35 58.5t57.5 41t79.5 15.5z" />
    <glyph glyph-name="uni2766" unicode="&#x2766;" horiz-adv-x="687" 
d="M331 339q21 41 39.5 83t32.5 80q-35 16 -67.5 36.5t-62.5 38.5t-58 30.5t-54 12.5q-66 0 -70 -49q-2 -16 4.5 -37.5t27.5 -46.5q8 -10 -2 -17l-21 -15q-6 -6 -14 1q-26 28 -37.5 60t-8.5 60q4 39 32.5 66.5t81.5 27.5q31 0 60 -10t58 -26q22 40 51.5 60.5t59.5 20.5
q45 0 68.5 -26t23.5 -72q0 -39 -12 -87q14 -4 29 -6.5t31 -2.5q35 0 52.5 14t19.5 35q2 14 -3.5 30t-23.5 31q-10 7 -2 17l16 20q7 9 15 2q28 -20 39.5 -45.5t10.5 -51.5q-1 -18 -8.5 -36t-22.5 -32.5t-37 -23t-52 -8.5q-21 0 -40 3.5t-38 9.5q-12 -37 -29.5 -76.5
t-39.5 -82.5l10 -3q23 43 52 67t64 24q45 0 73 -28t28 -82q0 -40 -16.5 -67t-41 -45.5t-53.5 -31.5t-53.5 -25t-41 -25t-16.5 -33q0 -38 48 -38q33 0 59 16t46 45q5 10 16 3l12 -7q9 -7 4 -15q-26 -46 -70 -70t-100 -24q-62 0 -112 25t-85 66t-54 92.5t-19 103.5
q0 44 10.5 75t27.5 51t40 29.5t47 9.5q15 0 29.5 -5t25 -16.5t14.5 -30.5t-1 -47zM308 613q27 -17 53.5 -34t54.5 -31q3 15 5.5 29t2.5 26q-1 27 -11.5 43.5t-34.5 16.5q-41 0 -70 -50z" />
    <glyph glyph-name="uni2767" unicode="&#x2767;" horiz-adv-x="777" 
d="M440 343q-97 46 -97 107q0 41 26 65.5t71 24.5q35 0 59 -14t41.5 -35t30.5 -45.5t25 -45.5t25 -35t31 -14t28 12.5t10 29.5q0 28 -13.5 51.5t-45.5 45.5q-10 7 -4 16l7 12q6 9 16 3q42 -27 65.5 -65.5t23.5 -89.5q0 -57 -24 -104t-62 -80.5t-86.5 -52t-96.5 -18.5
q-80 0 -117 29t-37 73q0 36 29 58t75 14l3 10q-35 19 -79 29.5t-88 11.5h-15t-15 -1q15 -30 25.5 -62.5t10.5 -68.5q0 -33 -9.5 -57.5t-25 -41t-34.5 -24.5t-39 -8q-24 0 -44.5 8.5t-36.5 25t-25 41t-9 56.5q0 65 31.5 103.5t83.5 55.5q-19 36 -33.5 74t-14.5 77
q0 29 9.5 49.5t25 34.5t36 20.5t41.5 6.5q22 0 43.5 -6.5t39.5 -20.5q10 -7 2 -15l-15 -21q-7 -9 -17 -2q-27 18 -56 18q-24 0 -41.5 -15.5t-17.5 -47.5q0 -35 15 -70t34 -70q11 2 22 2h23q45 0 93 -10.5t94 -30.5zM174 324q-37 -13 -60.5 -40t-23.5 -73q0 -45 17 -66.5
t45 -21.5q24 0 41.5 19.5t17.5 64.5q0 29 -11 58t-26 59z" />
    <glyph glyph-name="uni2776" unicode="&#x2776;" horiz-adv-x="1118" 
d="M559 858q111 0 202.5 -35.5t157 -100.5t101.5 -157t36 -205t-36 -205t-101.5 -157t-157 -100.5t-202.5 -35.5t-202.5 35.5t-157 100.5t-101.5 157t-36 205t36 205t101.5 157t157 100.5t202.5 35.5zM586 619h-6t-6 -1l-187 -46q-12 -3 -9 -14l29 -101q3 -11 13 -8l87 21
v-389q0 -12 11 -12h116q12 0 12 12v527q0 11 -12 11h-48z" />
    <glyph glyph-name="uni2777" unicode="&#x2777;" horiz-adv-x="1118" 
d="M559 858q111 0 202.5 -35.5t157 -100.5t101.5 -157t36 -205t-36 -205t-101.5 -157t-157 -100.5t-202.5 -35.5t-202.5 35.5t-157 100.5t-101.5 157t-36 205t36 205t101.5 157t157 100.5t202.5 35.5zM463 456q33 62 86 62q26 0 39 -13t13 -33t-10 -42t-38 -53l-200 -223
q-3 -3 -3 -8v-47q0 -11 12 -11h377q11 0 11 11v116q0 11 -11 11h-156l75 79q25 26 42.5 49t28.5 44t16 41.5t5 42.5q0 78 -52.5 122t-146.5 44q-70 0 -124 -37.5t-80 -104.5q-5 -10 6 -15l95 -40q5 -2 9 -0.5t6 5.5z" />
    <glyph glyph-name="uni2778" unicode="&#x2778;" horiz-adv-x="1118" 
d="M559 858q111 0 202.5 -35.5t157 -100.5t101.5 -157t36 -205t-36 -205t-101.5 -157t-157 -100.5t-202.5 -35.5t-202.5 35.5t-157 100.5t-101.5 157t-36 205t36 205t101.5 157t157 100.5t202.5 35.5zM541 303q65 0 65 -53q0 -23 -16 -36.5t-48 -13.5q-31 0 -52 14.5
t-35 46.5q-5 11 -15 6l-100 -41q-9 -4 -6 -14q25 -69 80.5 -105.5t136.5 -36.5q46 0 83.5 12t64.5 34t42 53t15 68q0 43 -22 75t-68 51q40 16 63.5 51t23.5 83q0 68 -50.5 105.5t-145.5 37.5q-79 0 -135 -37t-80 -104q-5 -11 6 -15l99 -38q10 -3 15 6q27 58 85 58
q26 0 41 -11.5t15 -34.5q0 -25 -16.5 -37.5t-45.5 -12.5h-45q-11 0 -11 -11v-89q0 -11 11 -11h45z" />
    <glyph glyph-name="uni2779" unicode="&#x2779;" horiz-adv-x="1118" 
d="M559 858q111 0 202.5 -35.5t157 -100.5t101.5 -157t36 -205t-36 -205t-101.5 -157t-157 -100.5t-202.5 -35.5t-202.5 35.5t-157 100.5t-101.5 157t-36 205t36 205t101.5 157t157 100.5t202.5 35.5zM770 290q0 12 -11 12h-44v87q0 11 -12 11h-104q-11 0 -11 -11v-87h-91
l146 319q8 16 -10 16h-136q-8 0 -11 -6l-166 -389q-2 -5 -3 -9.5t-1 -9.5v-41q0 -12 12 -12h260v-73q0 -12 11 -12h104q12 0 12 12v73h44q11 0 11 12v108z" />
    <glyph glyph-name="uni277A" unicode="&#x277a;" horiz-adv-x="1118" 
d="M559 858q111 0 202.5 -35.5t157 -100.5t101.5 -157t36 -205t-36 -205t-101.5 -157t-157 -100.5t-202.5 -35.5t-202.5 35.5t-157 100.5t-101.5 157t-36 205t36 205t101.5 157t157 100.5t202.5 35.5zM730 621q0 11 -12 11h-316q-10 0 -12 -10l-22 -304q-2 -12 12 -12h165
q36 0 50.5 -16t14.5 -40q0 -55 -61 -55q-30 0 -49 14.5t-30 42.5q-4 11 -16 8l-96 -41q-10 -3 -7 -13q46 -142 212 -142q47 0 83 16t61 42.5t38 60.5t13 71q0 89 -53 132t-147 43h-45l4 65h201q12 0 12 12v115z" />
    <glyph glyph-name="uni277B" unicode="&#x277b;" horiz-adv-x="1118" 
d="M559 858q111 0 202.5 -35.5t157 -100.5t101.5 -157t36 -205t-36 -205t-101.5 -157t-157 -100.5t-202.5 -35.5t-202.5 35.5t-157 100.5t-101.5 157t-36 205t36 205t101.5 157t157 100.5t202.5 35.5zM536 631q-6 0 -11 -6l-137 -228q-19 -32 -30 -68.5t-11 -75.5
q0 -43 14.5 -77t41.5 -57.5t64.5 -35.5t83.5 -12q48 0 88 13t69 37.5t45 60t16 80.5q0 40 -12.5 72.5t-34 56t-50 36t-61.5 12.5q-11 0 -21.5 -1.5t-24.5 -4.5l120 183q4 6 2.5 10.5t-9.5 4.5h-142zM560 329q60 0 60 -58q0 -62 -64 -62q-59 0 -59 58q0 62 63 62z" />
    <glyph glyph-name="uni277C" unicode="&#x277c;" horiz-adv-x="1118" 
d="M559 858q111 0 202.5 -35.5t157 -100.5t101.5 -157t36 -205t-36 -205t-101.5 -157t-157 -100.5t-202.5 -35.5t-202.5 35.5t-157 100.5t-101.5 157t-36 205t36 205t101.5 157t157 100.5t202.5 35.5zM578 464l-159 -397q-7 -15 11 -15h136q8 0 11 7l166 470q1 4 2 9t1 11
v41q0 12 -11 12h-357q-12 0 -12 -12v-114q0 -12 12 -12h200z" />
    <glyph glyph-name="uni277D" unicode="&#x277d;" horiz-adv-x="1118" 
d="M559 858q111 0 202.5 -35.5t157 -100.5t101.5 -157t36 -205t-36 -205t-101.5 -157t-157 -100.5t-202.5 -35.5t-202.5 35.5t-157 100.5t-101.5 157t-36 205t36 205t101.5 157t157 100.5t202.5 35.5zM562 642q-87 0 -139 -39t-52 -106q0 -39 20 -75.5t60 -54.5
q-53 -20 -76 -57.5t-23 -82.5q0 -69 51.5 -112t158.5 -43q106 0 157 43t51 112q0 45 -23 82.5t-75 57.5q40 18 60 54.5t20 75.5q0 33 -13.5 60t-38.5 46t-60 29t-78 10zM562 515q49 0 49 -44q0 -20 -11.5 -32t-37.5 -12t-37 12t-11 32q0 44 48 44zM562 312q32 0 45 -14.5
t13 -38.5q0 -23 -13 -37.5t-45 -14.5q-33 0 -46.5 14.5t-13.5 37.5q0 24 13.5 38.5t46.5 14.5z" />
    <glyph glyph-name="uni277E" unicode="&#x277e;" horiz-adv-x="1118" 
d="M559 858q111 0 202.5 -35.5t157 -100.5t101.5 -157t36 -205t-36 -205t-101.5 -157t-157 -100.5t-202.5 -35.5t-202.5 35.5t-157 100.5t-101.5 157t-36 205t36 205t101.5 157t157 100.5t202.5 35.5zM577 74q7 0 10 6l138 229q19 32 30 68t11 75q0 44 -15 78t-42 57t-65 35
t-84 12q-47 0 -86.5 -13t-68.5 -37t-45.5 -59.5t-16.5 -80.5q0 -40 12.5 -73t34.5 -56.5t50.5 -36t61.5 -12.5q13 0 25 2t21 4l-118 -180q-11 -18 9 -18h138zM553 376q-61 0 -61 59q0 30 17 46t47 16q60 0 60 -59q0 -29 -15.5 -45.5t-47.5 -16.5z" />
    <glyph glyph-name="uni2B51" unicode="&#x2b51;" horiz-adv-x="567" 
d="M476 404q15 0 17 -5.5t-10 -15.5l-114 -84l41 -132q6 -19 -3 -19q-6 0 -15 6l-109 82l-107 -82q-9 -6 -15 -6q-10 0 -4 20l41 131l-113 84q-27 21 6 21h141l40 129q6 17 11 17q6 0 11 -17l42 -129h140z" />
    <glyph glyph-name="uni2B52" unicode="&#x2b52;" horiz-adv-x="566" 
d="M474 404q33 0 7 -21l-113 -83l40 -131q6 -20 -3 -20q-7 0 -15 7l-108 82l-107 -82q-8 -7 -15 -7q-9 0 -3 20l41 131l-113 83q-26 21 7 21h139l40 128q6 17 12 17t11 -17l41 -128h139zM310 370l-27 84l-25 -84h-95l75 -59l-25 -87l70 59l74 -59l-29 87l76 59h-94z" />
    <glyph glyph-name="uni2B6E" unicode="&#x2b6e;" horiz-adv-x="880" 
d="M283 666q4 2 8 0.5t6 -5.5l134 -239q5 -11 -6 -17l-83 -39q-10 -5 -15 5l-44 89q-11 -26 -18 -56t-7 -65q0 -104 58 -162t162 -58q107 0 165.5 61t58.5 166q0 66 -21.5 114t-62.5 83q-10 10 0 19l82 67q7 7 14 0q60 -49 93.5 -123.5t33.5 -163.5q0 -80 -27 -145
t-75 -111.5t-114 -72t-145 -25.5t-145 25.5t-114 72t-75 112t-27 146.5q0 45 10.5 85t27.5 76l-95 -39q-10 -3 -15 6l-37 80q-3 12 7 15z" />
    <glyph glyph-name="uni2B6F" unicode="&#x2b6f;" horiz-adv-x="880" 
d="M170 631q7 7 14 0l80 -69q11 -9 0 -18q-42 -36 -64 -84t-22 -114q0 -105 58 -166t164 -61t164 59t58 168q0 62 -25 114l-44 -89q-5 -10 -15 -5l-83 39q-11 6 -6 17l134 239q2 4 6 5.5t8 -0.5l266 -99q10 -3 7 -15l-37 -80q-5 -9 -15 -6l-95 39q17 -36 27.5 -76t10.5 -85
q0 -81 -27 -146.5t-75 -112t-114 -72t-145 -25.5t-145 25.5t-114 72t-75 112t-27 146.5q0 88 34 162.5t97 124.5z" />
    <glyph glyph-name="uniE000" unicode="&#xe000;" horiz-adv-x="553" 
d="M39 536q0 52 18 96t49.5 75.5t75 49.5t94.5 18q52 0 96 -18t75.5 -49.5t49 -75.5t17.5 -96t-17.5 -95.5t-49 -75t-75.5 -49t-96 -17.5q-51 0 -94.5 17.5t-75 49t-49.5 75t-18 95.5zM75 536q0 -44 15 -81t41.5 -64t63.5 -42.5t81 -15.5q45 0 82.5 15.5t63.5 42.5t40.5 64
t14.5 81t-14.5 81t-40.5 64t-63.5 42.5t-82.5 15.5q-44 0 -81 -15.5t-63.5 -42.5t-41.5 -64t-15 -81zM334 606v-61h61v-63h-61v-60h-63v60h-62v-60h-61v184h61v-61h62v122h124v-61h-61z" />
    <glyph glyph-name="uniE001" unicode="&#xe001;" horiz-adv-x="630" 
d="M315 740q51 0 97.5 -16t81 -49t55 -82t20.5 -115q0 -67 -20 -132.5t-52.5 -127t-72.5 -119t-80 -110.5q-6 -4 -9 -4h-40q-3 0 -9 4q-40 53 -80 110.5t-72 119t-52 127t-20 132.5q0 66 20.5 115t55 82t80.5 49t97 16zM315 621q-57 0 -91.5 -35t-34.5 -92t34.5 -91.5
t91.5 -34.5t91 34.5t34 91.5t-34 92t-91 35z" />
    <glyph glyph-name="uniE007" unicode="&#xe007;" horiz-adv-x="848" 
d="M424 730q82 0 152.5 -29.5t122 -81t81 -122t29.5 -152.5t-29.5 -152t-81 -122t-122 -81.5t-152.5 -29.5t-152 29.5t-122 81.5t-81.5 122t-29.5 152t29.5 152.5t81.5 122t122 81t152 29.5zM424 650q-66 0 -121.5 -23.5t-96 -65t-63 -97t-22.5 -119.5t22.5 -119.5t63 -97
t96 -65t121.5 -23.5t121.5 23.5t96 65t63 97t22.5 119.5t-22.5 119.5t-63 97t-96 65t-121.5 23.5zM304 486q26 0 42 -16t16 -41t-16 -41t-42 -16q-25 0 -41.5 16t-16.5 41t16.5 41t41.5 16zM541 486q26 0 42 -16t16 -41t-16 -41t-42 -16q-25 0 -41 16t-16 41t16 41t41 16z
M287 193q-11 0 -11 11v47q0 11 11 11h273q11 0 11 -11v-47q0 -11 -11 -11h-273z" />
    <glyph glyph-name="s_t" unicode="&#xfb06;" horiz-adv-x="917" 
d="M468 700q130 0 199 -59t69 -169v-32h125q12 0 12 -11v-106q0 -11 -12 -11h-122v-134q0 -26 9.5 -40.5t35.5 -14.5q14 0 30 4.5t31 12.5q12 5 17 -7l37 -97q5 -10 -6 -15q-32 -15 -70 -24t-79 -9q-171 0 -171 170v154h-69q-11 0 -11 11v106q0 11 11 11h81v21
q0 64 -28 91.5t-98 27.5q-69 0 -100.5 -31t-31.5 -91v-15q64 -13 114 -46q8 -7 2 -16l-69 -84q-7 -8 -16 -2q-23 16 -51.5 26t-55.5 10q-20 0 -29 -6.5t-9 -15.5q0 -15 16 -23.5t54 -16.5q87 -17 127 -50.5t40 -87.5q0 -65 -54 -104t-147 -39q-63 0 -122 16t-101 42
q-8 6 -3 15l52 95q7 10 17 3q35 -25 72 -38.5t72 -13.5q20 0 31 7.5t11 17.5q0 6 -2 10.5t-10 9.5t-23 10t-42 11q-85 18 -123 52t-38 87q0 56 41 92.5t113 45.5v10q0 55 19 99t54.5 75.5t86 48.5t114.5 17z" />
    <glyph glyph-name="M.alt" horiz-adv-x="864" 
d="M791 705q12 0 12 -11v-682q0 -12 -12 -12h-160q-11 0 -11 12v313l-148 -188q-6 -7 -14 -7h-52q-8 0 -14 7l-148 187v-312q0 -12 -11 -12h-160q-11 0 -11 12v682q0 11 11 11h52q8 0 12 -6l295 -362l295 362q6 6 12 6h52z" />
    <glyph glyph-name="Jacute" horiz-adv-x="304" 
d="M232 700q11 0 11 -11v-616q0 -64 -18.5 -111t-53 -78t-83.5 -47t-109 -17q-12 0 -12 11v139q0 11 12 11q42 2 62.5 22.5t20.5 69.5v616q0 11 12 11h158zM142 882q3 6 9 6h168q11 0 13.5 -5.5t-4.5 -13.5l-91 -115q-3 -4 -8 -4h-137q-21 0 -11 17z" />
    <glyph glyph-name="a.alt" horiz-adv-x="571" 
d="M234 452q48 0 84 -21.5t59 -60.5l19 62q3 8 11 8h105q11 0 11 -11v-417q0 -12 -11 -12h-105q-8 0 -11 8l-18 59q-22 -38 -59 -58.5t-89 -20.5q-46 0 -83 16.5t-63 47t-40.5 73.5t-14.5 96q0 108 54.5 169.5t150.5 61.5zM278 307q-40 0 -58.5 -24.5t-18.5 -61.5
q0 -36 18.5 -62t58.5 -26q38 0 58.5 26t20.5 62q0 37 -20.5 61.5t-58.5 24.5z" />
    <glyph glyph-name="g.alt" horiz-adv-x="571" 
d="M230 452q51 0 87.5 -22.5t59.5 -59.5l19 62q3 8 11 8h105q11 0 11 -11v-401q0 -51 -16.5 -94t-48 -74.5t-78.5 -49.5t-109 -18q-70 0 -129 22.5t-105 58.5q-9 7 -2 15l64 91q9 12 17 2q62 -53 145 -53q45 0 72.5 23.5t25.5 67.5l-1 31q-47 -52 -124 -52q-48 0 -86 16.5
t-64.5 46.5t-40.5 70.5t-14 88.5q0 53 14.5 96t40.5 73t63 46.5t83 16.5zM278 307q-40 0 -58.5 -26t-18.5 -61q0 -37 18.5 -62t58.5 -25q38 0 58.5 24.5t20.5 62.5q0 36 -20.5 61.5t-58.5 25.5z" />
    <glyph glyph-name="r.alt" horiz-adv-x="491" 
d="M48 429q0 11 12 11h104q9 0 12 -8l17 -60q23 38 57 59t81 21q63 0 103 -40t48 -112q2 -9 -6 -12l-125 -47q-13 -5 -16 9q-7 27 -20 37.5t-36 10.5q-35 0 -48.5 -32.5t-13.5 -98.5v-155q0 -12 -11 -12h-146q-12 0 -12 12v417z" />
    <glyph glyph-name="ae.alt" horiz-adv-x="834" 
d="M808 230q-2 -18 -5.5 -30t-17.5 -12h-275q5 -28 25 -45.5t53 -17.5q20 0 37 8t30 22q8 9 16 3l100 -66q9 -7 3 -16q-31 -47 -71.5 -67.5t-88.5 -20.5q-41 0 -74 17t-56 46l-4 -40q-2 -11 -11 -11h-94q-11 0 -11 11l-5 44q-22 -32 -54 -49.5t-75 -17.5q-47 0 -85 16
t-65 46t-41.5 73t-14.5 97q0 53 14.5 96t41 73t64 46.5t83.5 16.5q42 0 72.5 -14t52.5 -40v31q0 11 11 11h119q11 0 11 -11v-28q23 24 53.5 37.5t68.5 13.5q45 0 82.5 -16t64 -45.5t39 -70t7.5 -90.5zM654 264q-1 21 -17.5 38.5t-49.5 17.5q-31 0 -50.5 -16t-24.5 -40h142z
M273 305q-40 0 -58.5 -23t-18.5 -62q0 -38 18.5 -61.5t58.5 -23.5q38 0 59.5 24t21.5 61q0 38 -21.5 61.5t-59.5 23.5z" />
    <glyph glyph-name="agrave.alt" horiz-adv-x="571" 
d="M234 452q48 0 84 -21.5t59 -60.5l19 62q3 8 11 8h105q11 0 11 -11v-417q0 -12 -11 -12h-105q-8 0 -11 8l-18 59q-22 -38 -59 -58.5t-89 -20.5q-46 0 -83 16.5t-63 47t-40.5 73.5t-14.5 96q0 108 54.5 169.5t150.5 61.5zM278 307q-40 0 -58.5 -24.5t-18.5 -61.5
q0 -36 18.5 -62t58.5 -26q38 0 58.5 26t20.5 62q0 37 -20.5 61.5t-58.5 24.5zM346 547q7 -17 -11 -17h-137q-6 0 -9 5l-82 114q-6 8 -4 13.5t13 5.5h167q8 0 11 -7z" />
    <glyph glyph-name="abreve.alt" horiz-adv-x="571" 
d="M234 452q48 0 84 -21.5t59 -60.5l19 62q3 8 11 8h105q11 0 11 -11v-417q0 -12 -11 -12h-105q-8 0 -11 8l-18 59q-22 -38 -59 -58.5t-89 -20.5q-46 0 -83 16.5t-63 47t-40.5 73.5t-14.5 96q0 108 54.5 169.5t150.5 61.5zM278 307q-40 0 -58.5 -24.5t-18.5 -61.5
q0 -36 18.5 -62t58.5 -26q38 0 58.5 26t20.5 62q0 37 -20.5 61.5t-58.5 24.5zM95 656q0 12 12 12h103q11 0 11 -12q2 -36 15 -49t36 -13t36.5 12.5t15.5 49.5q0 12 11 12h103q12 0 12 -12q-2 -34 -13 -62t-33 -48.5t-54.5 -32t-77.5 -11.5q-44 0 -76.5 11.5t-54.5 32
t-33 48.5t-13 62z" />
    <glyph glyph-name="aacute.alt" horiz-adv-x="571" 
d="M234 452q48 0 84 -21.5t59 -60.5l19 62q3 8 11 8h105q11 0 11 -11v-417q0 -12 -11 -12h-105q-8 0 -11 8l-18 59q-22 -38 -59 -58.5t-89 -20.5q-46 0 -83 16.5t-63 47t-40.5 73.5t-14.5 96q0 108 54.5 169.5t150.5 61.5zM278 307q-40 0 -58.5 -24.5t-18.5 -61.5
q0 -36 18.5 -62t58.5 -26q38 0 58.5 26t20.5 62q0 37 -20.5 61.5t-58.5 24.5zM263 662q3 6 9 6h168q11 0 13.5 -5.5t-4.5 -13.5l-91 -115q-3 -4 -8 -4h-137q-21 0 -11 17z" />
    <glyph glyph-name="acircumflex.alt" horiz-adv-x="571" 
d="M234 452q48 0 84 -21.5t59 -60.5l19 62q3 8 11 8h105q11 0 11 -11v-417q0 -12 -11 -12h-105q-8 0 -11 8l-18 59q-22 -38 -59 -58.5t-89 -20.5q-46 0 -83 16.5t-63 47t-40.5 73.5t-14.5 96q0 108 54.5 169.5t150.5 61.5zM278 307q-40 0 -58.5 -24.5t-18.5 -61.5
q0 -36 18.5 -62t58.5 -26q38 0 58.5 26t20.5 62q0 37 -20.5 61.5t-58.5 24.5zM451 548q13 -18 -10 -18h-118q-7 0 -11 6l-38 77l-38 -77q-4 -6 -10 -6h-118q-23 0 -10 18l80 115q5 5 10 5h173q5 0 10 -5z" />
    </font>
</defs>
</svg>
