<?xml version="1.0" standalone="no"?>
<!DOCTYPE svg PUBLIC "-//W3C//DTD SVG 1.1//EN" "http://www.w3.org/Graphics/SVG/1.1/DTD/svg11.dtd" >
<svg xmlns="http://www.w3.org/2000/svg" xmlns:xlink="http://www.w3.org/1999/xlink" version="1.1">
<metadata>
Created by FontForge 20170731 at Fri Mar 31 05:53:56 2023
 By Aleksey,,,
Copyright (c) 2019 by Alberto Romanos. All rights reserved.
</metadata>
<defs>
<font id="BwBetoGrande-Light" horiz-adv-x="0" >
  <font-face 
    font-family="Bw Beto Grande Light"
    font-weight="300"
    font-stretch="normal"
    units-per-em="2048"
    panose-1="0 0 4 0 0 0 0 0 0 0"
    ascent="1638"
    descent="-410"
    x-height="1081"
    cap-height="1491"
    bbox="-1010 -459 2671 1960"
    underline-thickness="102"
    underline-position="-307"
    unicode-range="U+000D-FB02"
  />
<missing-glyph horiz-adv-x="2541" 
d="M117 -20q-15 0 -25 10.5t-10 25.5q0 21 10 31l701 698h-664q-47 0 -47 39q0 19 14 33l697 701h-670q-41 0 -41 38v3q0 38 41 38h758q47 0 47 -41q0 -17 -17 -34l-698 -697h676q17 0 29 -12t12 -29v-669l694 692q16 16 35 16q37 0 37 -45v-663l696 692q16 16 33 16
q15 0 25 -12t10 -27t-13 -28l-753 -762q-14 -14 -35 -14q-41 0 -41 47v663l-694 -696q-14 -14 -35 -14q-41 0 -41 47v663l-696 -696q-14 -14 -35 -14z" />
    <glyph glyph-name="fi" unicode="fi" horiz-adv-x="1435" 
d="M684 1626q48 0 81.5 -27t33.5 -69q0 -18 -13 -53h-348q-90 -112 -90 -244q0 -46 19 -86.5t51 -65.5h327l-4 -20h-323v-819q0 -139 48 -187t193 -51v-4h-587v4q122 3 162 42.5t40 154.5v839v21h-204l4 20h200q7 150 61.5 274.5t146.5 197.5t202 73zM1116 1384
q-47 0 -78.5 31.5t-31.5 77.5q0 47 31.5 78t78.5 31t79 -31t32 -78q0 -46 -32 -77.5t-79 -31.5zM1188 201q0 -115 40.5 -154.5t162.5 -42.5v-4h-547v4q121 3 160.5 42t39.5 155v581q0 102 -39.5 141t-160.5 58v4q202 56 340 109h4v-893z" />
    <glyph glyph-name="fl" unicode="fl" horiz-adv-x="1411" 
d="M1163 201q0 -116 40 -155t161 -42v-4h-547v4q122 3 162.5 42.5t40.5 154.5v1079q0 117 -41 157t-162 40h-362q-103 -127 -103 -244q0 -46 17.5 -86.5t48.5 -65.5h332l-5 -20h-327v-819q0 -138 49 -186.5t195 -51.5v-4h-588v4q121 3 160.5 42t39.5 155v839v21h-202l4 20
h200q7 150 68.5 274.5t166.5 197.5t230 73q52 0 86.5 -27t34.5 -69q0 -15 -4 -35q216 84 301 123h4v-1417z" />
    <glyph glyph-name=".notdef" horiz-adv-x="2541" 
d="M117 -20q-15 0 -25 10.5t-10 25.5q0 21 10 31l701 698h-664q-47 0 -47 39q0 19 14 33l697 701h-670q-41 0 -41 38v3q0 38 41 38h758q47 0 47 -41q0 -17 -17 -34l-698 -697h676q17 0 29 -12t12 -29v-669l694 692q16 16 35 16q37 0 37 -45v-663l696 692q16 16 33 16
q15 0 25 -12t10 -27t-13 -28l-753 -762q-14 -14 -35 -14q-41 0 -41 47v663l-694 -696q-14 -14 -35 -14q-41 0 -41 47v663l-696 -696q-14 -14 -35 -14z" />
    <glyph glyph-name=".null" 
 />
    <glyph glyph-name="nonmarkingreturn" horiz-adv-x="682" 
 />
    <glyph glyph-name="CR" unicode="&#xd;" horiz-adv-x="538" 
 />
    <glyph glyph-name="space" unicode=" " horiz-adv-x="538" 
 />
    <glyph glyph-name="exclam" unicode="!" horiz-adv-x="593" 
d="M295 399q-4 172 -51 512q-39 246 -39 502q0 45 25 71.5t67 26.5q44 0 68 -26.5t24 -71.5q0 -256 -39 -502q-47 -340 -51 -512h-4zM297 -20q-54 0 -87.5 32.5t-33.5 85.5t33.5 86t87.5 33t87.5 -33t33.5 -86t-33.5 -85.5t-87.5 -32.5z" />
    <glyph glyph-name="quotedbl" unicode="&#x22;" horiz-adv-x="720" 
d="M205 1061l-72 536l168 29h4l-96 -563zM494 1061l-72 536l166 29h4l-94 -563z" />
    <glyph glyph-name="numbersign" unicode="#" horiz-adv-x="1357" 
d="M1255 817h-278l-78 -422h283l-4 -20h-283l-70 -375h-24l69 375h-479l-69 -375h-25l70 375h-269l4 20h267l77 422h-270l4 21h271l63 346h25l-64 -346h481l64 346h24l-63 -346h279zM874 395l78 422h-481l-78 -422h481z" />
    <glyph glyph-name="dollar" unicode="$" horiz-adv-x="1318" 
d="M731 831q49 -21 75.5 -33t71.5 -34t71.5 -38t63 -40.5t58.5 -46.5t46.5 -52t37.5 -60t22 -67.5t9 -78.5q0 -187 -131.5 -294t-370.5 -107h-6v-185h-25v185q-79 4 -177.5 36.5t-135.5 32.5q-31 0 -52.5 -12.5t-45.5 -46.5h-4l-115 530l4 2q71 -234 209.5 -371t316.5 -147
v698q-48 21 -76 33.5t-73 35t-72.5 39t-65 42.5t-60.5 50t-48.5 56t-39 65.5t-23 74.5t-9.5 86q0 147 111 237t295 90q25 0 65 -4v162h25v-166q43 -9 120.5 -37t115.5 -28q31 0 48 12t42 51h4l135 -502l-4 -2q-72 192 -195 320t-266 160v-623q8 -4 24.5 -11.5t24.5 -11.5z
M319 1227q0 -67 26 -122.5t77 -99t104.5 -75t130.5 -66.5v617q-34 6 -65 6q-125 0 -199 -71.5t-74 -188.5zM680 4q177 0 272 87.5t95 242.5q0 54 -21 101t-51.5 81t-83.5 68t-98.5 56t-114.5 52v-688h2z" />
    <glyph glyph-name="percent" unicode="%" horiz-adv-x="1906" 
d="M322 -51l-19 16l1282 1575l19 -14zM453 641q-150 0 -242 118.5t-92 313.5q0 192 91.5 310t242.5 118t243 -117.5t92 -310.5q0 -195 -92 -313.5t-243 -118.5zM453 659q90 0 144 113.5t54 300.5q0 184 -54 297t-144 113q-89 0 -143 -112.5t-54 -297.5q0 -186 54 -300
t143 -114zM1454 -12q-150 0 -242 118.5t-92 313.5q0 192 91.5 310t242.5 118t243.5 -117.5t92.5 -310.5q0 -195 -92.5 -313.5t-243.5 -118.5zM1454 6q90 0 144.5 113.5t54.5 300.5q0 184 -54.5 296.5t-144.5 112.5q-89 0 -143 -112t-54 -297q0 -186 54 -300t143 -114z" />
    <glyph glyph-name="ampersand" unicode="&#x26;" horiz-adv-x="1914" 
d="M1157 336q410 -326 729 -332v-4h-190q-134 0 -282 48.5t-275 139.5q-15 9 -42 29.5t-32 24.5q-111 -125 -243 -193.5t-265 -68.5q-180 0 -289.5 102.5t-109.5 271.5q0 300 348 451q-193 263 -193 414q0 130 100.5 211t264.5 81q154 0 246 -77t92 -205q0 -107 -102 -206.5
t-265 -152.5q210 -289 492 -520q194 254 260 379q74 136 74 195q0 86 -57 115.5t-193 37.5v4h559v-4q-105 -7 -162 -54.5t-129 -180.5q-146 -273 -336 -506zM668 1487q-92 0 -148.5 -58t-56.5 -155q0 -136 174 -385q107 69 175.5 160.5t68.5 191.5q0 111 -58.5 178.5
t-154.5 67.5zM631 66q215 0 416 188q-150 115 -287.5 254t-239.5 278q-107 -75 -166 -168.5t-59 -220.5q0 -149 90.5 -240t245.5 -91z" />
    <glyph glyph-name="quotesingle" unicode="'" horiz-adv-x="434" 
d="M205 1061l-72 536l168 29h4l-96 -563z" />
    <glyph glyph-name="parenleft" unicode="(" horiz-adv-x="727" 
d="M696 -455q-275 175 -426 441t-151 616q0 351 151 616.5t426 438.5l4 -4q-211 -179 -330.5 -446.5t-119.5 -604.5q0 -338 119.5 -605t330.5 -448z" />
    <glyph glyph-name="parenright" unicode=")" horiz-adv-x="727" 
d="M31 -455l-4 4q211 181 330.5 448t119.5 605q0 337 -119.5 604.5t-330.5 446.5l4 4q275 -173 426 -438.5t151 -616.5q0 -350 -151 -616t-426 -441z" />
    <glyph glyph-name="asterisk" unicode="*" horiz-adv-x="1122" 
d="M991 1315q8 -25 -3.5 -48t-37.5 -32q-96 -29 -381 -64q194 -178 271 -274q15 -23 11 -47t-26 -39q-22 -17 -46.5 -13t-39.5 27q-64 80 -178 342q-113 -256 -178 -342q-17 -23 -41 -26.5t-45 12.5q-23 15 -27 39t13 47q64 88 270 274q-283 34 -381 64q-27 9 -38.5 32
t-2.5 48t31 36.5t49 2.5q91 -28 344 -170q-55 270 -55 379q0 28 16.5 45.5t44.5 17.5q27 0 44.5 -18t17.5 -45q0 -104 -56 -379q253 142 344 170q26 9 49 -2.5t31 -36.5z" />
    <glyph glyph-name="plus" unicode="+" horiz-adv-x="970" 
d="M862 610v-20h-364v-354h-25v354h-364v20h364v357h25v-357h364z" />
    <glyph glyph-name="comma" unicode="," horiz-adv-x="542" 
d="M197 -360l-2 4q46 40 75 101t29 120q0 65 -35.5 110t-93.5 54q-23 30 -23 69q0 52 30 85.5t75 33.5q70 0 113 -59t43 -154q0 -110 -58 -210t-153 -154z" />
    <glyph glyph-name="hyphen" unicode="-" horiz-adv-x="1015" 
d="M170 592l4 20h672l-4 -20h-672z" />
    <glyph glyph-name="period" unicode="." horiz-adv-x="526" 
d="M264 -20q-52 0 -86.5 33.5t-34.5 84.5q0 52 34 85.5t87 33.5t87 -33.5t34 -85.5q0 -51 -34.5 -84.5t-86.5 -33.5z" />
    <glyph glyph-name="slash" unicode="/" horiz-adv-x="1017" 
d="M106 -213l-22 10l829 1854l23 -11z" />
    <glyph glyph-name="zero" unicode="0" horiz-adv-x="1449" 
d="M725 -20q-260 0 -419 210t-159 555t159 555.5t419 210.5q261 0 420.5 -210.5t159.5 -555.5t-159.5 -555t-420.5 -210zM725 4q184 0 296 203t112 538t-112 538.5t-296 203.5q-183 0 -294.5 -204t-111.5 -538t111.5 -537.5t294.5 -203.5z" />
    <glyph glyph-name="one" unicode="1" horiz-adv-x="888" 
d="M543 238q0 -137 53.5 -184t212.5 -50v-4h-688v4q161 3 214.5 50t53.5 184v923q0 83 -22.5 121.5t-79.5 38.5q-51 0 -181 -49l-2 4q235 115 435 248h4v-1286z" />
    <glyph glyph-name="two" unicode="2" horiz-adv-x="1398" 
d="M1274 508h4l-80 -518q-195 10 -696 10h-439l-2 4q144 147 345 315q80 69 127 110.5t115.5 106t108.5 110t87 106.5t72 112t42 110.5t17 117.5q0 130 -87 208t-229 78q-157 0 -292 -89.5t-199 -237.5l-4 2q69 206 225 332t342 126q183 0 294.5 -99.5t111.5 -262.5
q0 -89 -41 -181.5t-88.5 -159.5t-151.5 -162t-162 -141t-188 -145l-39 -30q-103 -79 -240 -199h600q114 0 185 15.5t123.5 60t82.5 114t56 187.5z" />
    <glyph glyph-name="three" unicode="3" horiz-adv-x="1212" 
d="M545 907q254 -37 390 -141t136 -270q0 -145 -112.5 -257.5t-319 -179t-483.5 -79.5v4q228 19 396.5 79t263.5 161.5t95 234.5q0 137 -127 215t-381 106l-2 6l527 574h-387q-181 0 -267 -54.5t-161 -218.5l-4 3l133 432h4q69 -18 207.5 -24.5t429.5 -6.5h192l2 -6z" />
    <glyph glyph-name="four" unicode="4" horiz-adv-x="1390" 
d="M1309 446h-340v-241q0 -117 46.5 -157.5t184.5 -43.5v-4h-655v4q162 3 216 51.5t54 190.5v200h-756l-2 7l793 1038h119v-1024q196 0 342 10h4zM98 467h717v940z" />
    <glyph glyph-name="five" unicode="5" horiz-adv-x="1189" 
d="M195 1026q431 -40 645.5 -165.5t214.5 -352.5q0 -148 -112 -263t-319 -183.5t-485 -81.5v4q228 20 397.5 82t265 166.5t95.5 238.5q0 179 -189.5 277.5t-572.5 134.5l-2 6l160 602h125q291 0 422.5 8.5t216.5 32.5h4l-47 -172h-729z" />
    <glyph glyph-name="six" unicode="6" horiz-adv-x="1329" 
d="M752 862q209 0 343 -116t134 -302q0 -209 -150.5 -336.5t-396.5 -127.5q-244 0 -394.5 166t-150.5 436q0 292 244 547.5t645 381.5l2 -4q-291 -121 -482.5 -341t-228.5 -474q85 78 201 124t234 46zM682 4q169 0 272 122.5t103 322.5q0 171 -92.5 278t-239.5 107
q-117 0 -232 -69t-184 -181v-2q0 -259 103 -418.5t270 -159.5z" />
    <glyph glyph-name="seven" unicode="7" horiz-adv-x="1261" 
d="M1229 1491l2 -6q-264 -380 -428 -727t-215 -688q-15 -90 -101 -90q-84 0 -84 77q0 99 67.5 268.5t172 352t231 365t244.5 317.5h-622q-124 0 -197 -23.5t-125.5 -80.5t-103.5 -169l-4 3l131 432h4q68 -18 207.5 -24.5t429.5 -6.5h391z" />
    <glyph glyph-name="eight" unicode="8" horiz-adv-x="1366" 
d="M778 821q55 -26 84.5 -40.5t80 -41t78.5 -46t67 -48.5t61 -56.5t43.5 -61t31 -71t9.5 -79.5q0 -179 -152 -288t-401 -109q-246 0 -395.5 106t-149.5 279q0 119 118 224.5t314 160.5q-62 31 -108.5 59.5t-95 67.5t-79 80t-50 95t-19.5 115q0 155 128 249.5t337 94.5
q211 0 340 -92t129 -243q0 -112 -102 -209t-271 -144zM358 1214q0 -53 22 -100.5t54.5 -83t88 -73t103 -62.5t119.5 -59q122 57 195.5 151t73.5 195q0 138 -91.5 221.5t-242.5 83.5q-145 0 -233.5 -75t-88.5 -198zM680 4q182 0 293.5 88t111.5 234q0 37 -12 71t-30 61.5
t-50.5 56t-61 48.5t-76 45.5t-80 41.5t-87.5 42l-90 43q-148 -68 -237 -171t-89 -208q0 -158 112.5 -255t295.5 -97z" />
    <glyph glyph-name="nine" unicode="9" horiz-adv-x="1320" 
d="M631 1511q249 0 402 -166t153 -436q0 -292 -216.5 -547.5t-570.5 -381.5l-2 4q255 124 421 351.5t192 487.5q-86 -79 -204 -126.5t-237 -47.5q-208 0 -341.5 113t-133.5 295q0 204 148 329t389 125zM596 676q120 0 234.5 70t183.5 184q-5 251 -109.5 404t-273.5 153
q-164 0 -264.5 -119.5t-100.5 -314.5q0 -167 92 -272t238 -105z" />
    <glyph glyph-name="colon" unicode=":" horiz-adv-x="569" 
d="M285 864q-53 0 -87 33.5t-34 85.5q0 51 34.5 85t86.5 34t86.5 -34t34.5 -85q0 -52 -34 -85.5t-87 -33.5zM285 -20q-52 0 -86.5 33.5t-34.5 84.5q0 52 34 85.5t87 33.5t87 -33.5t34 -85.5q0 -51 -34.5 -84.5t-86.5 -33.5z" />
    <glyph glyph-name="semicolon" unicode=";" horiz-adv-x="604" 
d="M297 864q-53 0 -87 33.5t-34 85.5q0 51 34.5 85t86.5 34t86.5 -34t34.5 -85q0 -52 -34 -85.5t-87 -33.5zM223 -360l-2 4q48 40 77.5 101t29.5 120q0 64 -36 109.5t-93 54.5q-23 30 -23 69q0 52 29.5 85.5t75.5 33.5q70 0 112.5 -58.5t42.5 -154.5q0 -110 -58.5 -210
t-154.5 -154z" />
    <glyph glyph-name="less" unicode="&#x3c;" horiz-adv-x="970" 
d="M846 319l-754 279v4l754 301v-22l-699 -281l699 -258v-23z" />
    <glyph glyph-name="equal" unicode="=" horiz-adv-x="970" 
d="M109 737v21h753v-21h-753zM109 442v21h753v-21h-753z" />
    <glyph glyph-name="greater" unicode="&#x3e;" horiz-adv-x="970" 
d="M125 319v23l700 258l-700 281v22l754 -301v-4z" />
    <glyph glyph-name="question" unicode="?" horiz-adv-x="899" 
d="M229 1511q107 0 209 -45t175 -116.5t117 -165t44 -187.5q0 -161 -117.5 -250t-337.5 -98q-17 -118 -20 -250h-4q-23 203 -68 373l4 4q249 7 374.5 78t125.5 197q0 170 -180 313h-430q-12 21 -12 51q0 42 34 69t86 27zM311 217q53 0 87 -33.5t34 -85.5t-34 -85t-87 -33
q-54 0 -87.5 32.5t-33.5 85.5t33.5 86t87.5 33z" />
    <glyph glyph-name="at" unicode="@" horiz-adv-x="2035" 
d="M1493 43q-101 0 -165 54.5t-64 142.5q-207 -197 -400 -197q-122 0 -193 57.5t-71 153.5q0 81 65.5 136t219.5 112l379 139v152q0 109 -55 167t-156 58q-68 0 -138.5 -26t-119.5 -66v-269q-28 -14 -60 -14q-36 0 -58 24.5t-22 65.5q0 70 44.5 132t112.5 102.5t145.5 64
t146.5 23.5q142 0 217.5 -75.5t75.5 -215.5v-547q0 -61 33 -96t92 -35q158 0 256 167.5t98 442.5q0 175 -57 323.5t-157 250.5t-238.5 159.5t-299.5 57.5q-220 0 -402 -74t-307 -208.5t-194 -327t-69 -424.5q0 -407 209 -633t585 -226q225 0 429.5 66.5t334.5 177.5l2 -4
q-132 -121 -337 -192.5t-429 -71.5q-388 0 -605.5 233t-217.5 650q0 317 122 556.5t349 370.5t530 131q167 0 311.5 -59t248 -164.5t162.5 -257.5t59 -332q0 -194 -51 -342.5t-144.5 -230.5t-216.5 -82zM918 100q80 0 159 40.5t187 123.5v352l-242 -88q-144 -54 -209 -117
t-65 -145q0 -75 46.5 -120.5t123.5 -45.5z" />
    <glyph glyph-name="A" unicode="A" horiz-adv-x="1667" 
d="M1432 197q49 -115 91 -151t146 -42v-4h-639v4q137 12 189.5 38.5t52.5 88.5q0 30 -27 96l-137 328h-688l-90 -217q-54 -134 -54 -184q0 -78 61 -110t208 -40v-4h-541v4q56 5 93 20.5t70 53t59.5 89t64.5 142.5l444 1061l-26 62q68 29 131 79h34zM428 575h672l-336 805z
" />
    <glyph glyph-name="B" unicode="B" horiz-adv-x="1648" 
d="M1063 772q207 -11 333 -115t126 -266q0 -177 -137 -284t-363 -107h-922v4q138 3 185 43.5t47 157.5v1081q0 117 -47 157.5t-185 43.5v4h861q209 0 335.5 -100t126.5 -263q0 -141 -97 -236t-263 -120zM1253 1124q0 157 -91 251.5t-244 94.5h-433v-692h433q153 0 244 94.5
t91 251.5zM975 20q169 0 272 102t103 269q0 165 -103.5 266t-275.5 101h-486v-561q0 -106 30 -141.5t122 -35.5h338z" />
    <glyph glyph-name="C" unicode="C" horiz-adv-x="1544" 
d="M815 -20q-202 0 -356.5 94t-239 265.5t-84.5 395.5q0 230 88.5 406.5t249.5 273t371 96.5q67 0 137 -17.5t122.5 -34.5t76.5 -17q30 0 48 12t38 47h4l131 -522l-4 -2q-87 255 -229 382.5t-330 127.5q-248 0 -398.5 -186.5t-150.5 -493.5q0 -215 74.5 -380t211 -256
t314.5 -91q159 0 310.5 81t234.5 212l4 -2q-76 -173 -247.5 -282t-375.5 -109z" />
    <glyph glyph-name="D" unicode="D" horiz-adv-x="1783" 
d="M838 1491q242 0 426.5 -92.5t285.5 -262t101 -391.5t-101 -391.5t-285.5 -261.5t-426.5 -92h-738v4q138 3 185 43.5t47 157.5v1081q0 117 -47 157.5t-185 43.5v4h738zM805 20q201 0 354.5 90t237.5 254.5t84 380.5q0 327 -184 526t-488 199h-324v-1273q0 -106 23 -141.5
t92 -35.5h205z" />
    <glyph glyph-name="E" unicode="E" horiz-adv-x="1632" 
d="M1536 524l4 -2l-186 -532q-120 10 -371 10h-883v4q138 3 185 43.5t47 157.5v1081q0 117 -47 157.5t-185 43.5v4h828q244 0 362 10l166 -512l-4 -2q-52 150 -100.5 239.5t-119 146.5t-158 77t-222.5 20h-367v-692h234q141 0 195.5 67.5t80.5 272.5h4q-6 -218 -6 -360
q0 -144 6 -361h-4q-14 112 -31.5 179t-49.5 109.5t-77 57.5t-118 15h-234v-561q0 -106 30 -141.5t122 -35.5h293q131 0 217 21t157 80.5t123 153t109 249.5z" />
    <glyph glyph-name="F" unicode="F" horiz-adv-x="1486" 
d="M1270 1501l166 -512l-4 -2q-41 120 -80.5 199.5t-87 137t-110 88.5t-139 44.5t-184.5 13.5h-346v-712h226q141 0 195 67.5t79 272.5h4q-6 -218 -6 -361t6 -360h-4q-13 112 -30 178.5t-49 109t-77 57.5t-118 15h-226v-491q0 -141 54.5 -190t216.5 -52v-4h-656v4
q138 3 185 43.5t47 157.5v1081q0 117 -47 157.5t-185 43.5v4h807q245 0 363 10z" />
    <glyph glyph-name="G" unicode="G" horiz-adv-x="1714" 
d="M1659 668v-4q-126 -3 -168.5 -42.5t-42.5 -154.5v-356q-63 -8 -172 -48q-232 -83 -395 -83q-337 0 -542.5 210t-205.5 555q0 227 93.5 401t265.5 269.5t397 95.5q65 0 126.5 -11.5t99.5 -26t81 -26t76 -11.5t53.5 13t46.5 52h4l56 -522h-5q-43 235 -187.5 371.5
t-350.5 136.5q-263 0 -423.5 -204t-160.5 -538t158 -537.5t418 -203.5q109 0 219.5 44t193.5 118v256q0 97 -25.5 146.5t-89 71.5t-188.5 24v4h668z" />
    <glyph glyph-name="H" unicode="H" horiz-adv-x="1816" 
d="M1716 1487q-138 -3 -183.5 -43.5t-45.5 -157.5v-1081q0 -117 45.5 -157.5t183.5 -43.5v-4h-614v4q138 3 183.5 43.5t45.5 157.5v553h-846v-553q0 -117 46 -157.5t184 -43.5v-4h-615v4q138 3 185 43.5t47 157.5v1081q0 117 -47 157.5t-185 43.5v4h615v-4
q-138 -3 -184 -43.5t-46 -157.5v-508h846v508q0 117 -45.5 157.5t-183.5 43.5v4h614v-4z" />
    <glyph glyph-name="I" unicode="I" horiz-adv-x="815" 
d="M715 1487q-138 -3 -184 -43.5t-46 -157.5v-1081q0 -117 46 -157.5t184 -43.5v-4h-615v4q138 3 185 43.5t47 157.5v1081q0 117 -47 157.5t-185 43.5v4h615v-4z" />
    <glyph glyph-name="J" unicode="J" horiz-adv-x="778" 
d="M86 1491h612v-4q-138 -3 -183.5 -43.5t-45.5 -157.5v-952q0 -186 -102 -340t-267 -219l-2 4q104 77 160.5 206.5t56.5 293.5v1007q0 117 -45.5 157.5t-183.5 43.5v4z" />
    <glyph glyph-name="K" unicode="K" horiz-adv-x="1687" 
d="M485 205q0 -117 46 -157.5t184 -43.5v-4h-615v4q138 3 185 43.5t47 157.5v1081q0 117 -47 157.5t-185 43.5v4h615v-4q-138 -3 -184 -43.5t-46 -157.5v-1081zM700 874q300 -359 474.5 -541t285.5 -254t213 -75v-4h-221q-48 0 -93.5 13.5t-90 37t-102.5 73.5t-111 102.5
t-136 147t-158 183.5t-194 234l516 442q134 113 134 162q0 45 -54 66t-178 26v4h553v-4q-73 0 -135.5 -32t-175.5 -128z" />
    <glyph glyph-name="L" unicode="L" horiz-adv-x="1509" 
d="M1454 524l4 -2l-186 -532q-120 10 -363 10h-809v4q138 3 185 43.5t47 157.5v1081q0 117 -47 157.5t-185 43.5v4h656v-4q-163 -4 -217 -49t-54 -176v-1065q0 -106 29 -141.5t117 -35.5h225q129 0 214 21t155.5 80.5t121.5 153t107 249.5z" />
    <glyph glyph-name="M" unicode="M" horiz-adv-x="2191" 
d="M1892 211q12 -122 60.5 -163t185.5 -44v-4h-655v4q84 2 134 12.5t80 39t37.5 73t0.5 117.5l-111 1157l-571 -1423h-4l-603 1413l-122 -1151q-14 -139 47 -187t258 -51v-4h-580v4q138 3 187 44t61 163l117 1118q9 90 -39 122.5t-187 35.5v4h387l541 -1288l514 1288h369v-4
q-138 -3 -181.5 -35t-35.5 -123z" />
    <glyph glyph-name="N" unicode="N" horiz-adv-x="1722" 
d="M1061 1491h579v-4q-138 -3 -184.5 -43.5t-46.5 -157.5v-1306h-4l-1049 1333v-1067q0 -97 27.5 -146.5t95.5 -71.5t201 -24v-4h-580v4q138 3 185 43.5t47 157.5v1124q0 91 -47 123t-185 35v4h326l958 -1245v999q0 73 -13.5 117t-51 72.5t-98 39.5t-160.5 13v4z" />
    <glyph glyph-name="O" unicode="O" horiz-adv-x="1751" 
d="M877 -20q-335 0 -539.5 210t-204.5 555t204.5 555.5t539.5 210.5q333 0 537 -210.5t204 -555.5t-204 -555t-537 -210zM877 4q257 0 413 203.5t156 537.5q0 221 -70.5 389.5t-200 260.5t-298.5 92q-170 0 -300 -92t-201 -260.5t-71 -389.5q0 -334 157 -537.5t415 -203.5z
" />
    <glyph glyph-name="P" unicode="P" horiz-adv-x="1497" 
d="M924 1491q223 0 359 -108.5t136 -288.5q0 -190 -163 -306t-429 -116h-186l-4 20h170q198 0 319 110.5t121 291.5q0 170 -98.5 273t-259.5 103h-404v-1224q0 -141 54.5 -190t216.5 -52v-4h-656v4q138 3 185 43.5t47 157.5v1081q0 117 -47 157.5t-185 43.5v4h824z" />
    <glyph glyph-name="Q" unicode="Q" horiz-adv-x="1751" 
d="M1010 -10q149 -166 246.5 -248t182 -114t199.5 -34v-4h-213q-170 0 -299.5 83.5t-314.5 308.5q-308 22 -493 229t-185 534q0 345 204.5 555.5t539.5 210.5q333 0 537 -210.5t204 -555.5q0 -309 -164 -511.5t-444 -243.5zM305 745q0 -334 157 -537.5t415 -203.5
q257 0 413 203.5t156 537.5q0 221 -70.5 389.5t-200 260.5t-298.5 92q-170 0 -300 -92t-201 -260.5t-71 -389.5z" />
    <glyph glyph-name="R" unicode="R" horiz-adv-x="1677" 
d="M1024 725q184 -303 291.5 -452t186 -207.5t167.5 -61.5v-4h-199q-65 0 -124 33.5t-132 120t-155 215t-201 338.5h-31h-342v-461q0 -141 54.5 -190t216.5 -52v-4h-656v4q138 3 185 43.5t47 157.5v1081q0 117 -47 157.5t-185 43.5v4h824q223 0 359 -107t136 -282
q0 -141 -106 -241t-289 -136zM807 727q198 0 319 102t121 269t-98.5 269.5t-259.5 102.5h-404v-743h322z" />
    <glyph glyph-name="S" unicode="S" horiz-adv-x="1433" 
d="M721 -20q-80 0 -155.5 17t-132.5 34.5t-93 17.5q-32 0 -55.5 -12.5t-51.5 -46.5h-4l-114 530l4 2q73 -241 234.5 -379.5t363.5 -138.5q212 0 327 90.5t115 249.5q0 47 -14 87t-34 70t-57.5 58t-69.5 46t-86.5 38.5t-91 32.5t-99.5 31q-74 22 -111.5 34t-103.5 37t-102 46
t-83 56t-70.5 72.5t-41 89.5t-17.5 113q0 164 133 260t355 96q77 0 149 -18.5t127 -36.5t90 -18q32 0 52 13t38 50h4l136 -502l-5 -2q-77 219 -242.5 354.5t-348.5 135.5q-160 0 -253.5 -76t-93.5 -205q0 -37 9 -70.5t22 -60t37.5 -51.5t47 -43.5t59.5 -37t64.5 -31t73 -28
t75 -24.5t79.5 -24q68 -20 110 -33t102.5 -37t98.5 -45.5t81.5 -55.5t67.5 -70.5t40.5 -87t16.5 -108.5q0 -195 -152.5 -307t-429.5 -112z" />
    <glyph glyph-name="T" unicode="T" horiz-adv-x="1503" 
d="M1272 1522l174 -533l-4 -2q-46 120 -85.5 199.5t-83.5 137t-96 88.5t-113.5 44.5t-145.5 13.5h-91v-1232q0 -137 54 -184t215 -50v-4h-688v4q83 2 132.5 12.5t80.5 38t42 70t11 113.5v1232h-88q-106 0 -177 -20.5t-133 -76.5t-110.5 -146.5t-104.5 -239.5l-4 2l172 533h4
q70 -19 158 -25t283 -6h155q194 0 282 6t157 25h4z" />
    <glyph glyph-name="U" unicode="U" horiz-adv-x="1732" 
d="M1657 1491v-4q-138 -3 -184 -43.5t-46 -157.5v-801q0 -227 -142.5 -366t-375.5 -139q-281 0 -442.5 139t-161.5 377v790q0 117 -46.5 157.5t-184.5 43.5v4h655v-4q-162 -3 -216 -50t-54 -184v-786q0 -209 124.5 -336t327.5 -127q221 0 356.5 132t135.5 349v760
q0 142 -65 190.5t-261 51.5v4h580z" />
    <glyph glyph-name="V" unicode="V" horiz-adv-x="1654" 
d="M1114 1491h545v-4q-54 -5 -91 -21t-70 -54.5t-59.5 -88.5t-66.5 -141l-528 -1202h-35l-578 1314q-26 61 -43.5 92t-44 55.5t-60 33.5t-89.5 12v4h635v-4q-132 -11 -185 -39t-53 -90q0 -28 27 -94l479 -1106l432 993q55 122 55 182q0 82 -61 115t-209 39v4z" />
    <glyph glyph-name="W" unicode="W" horiz-adv-x="2357" 
d="M1808 1491h551v-4q-75 -7 -121.5 -33.5t-85.5 -89.5t-79 -182l-408 -1202h-35l-452 1275l-447 -1275h-37l-456 1314q-38 112 -84.5 149.5t-153.5 43.5v4h643v-4q-137 -11 -188.5 -39t-51.5 -94q0 -25 21 -90l358 -1061l381 1091v2l76 215h4l467 -1321l320 957
q47 136 47 188q0 81 -58.5 112.5t-210.5 39.5v4z" />
    <glyph glyph-name="X" unicode="X" horiz-adv-x="1662" 
d="M1296 293q36 -47 53.5 -68.5t47.5 -58t47 -54t43 -41t45.5 -35t43 -20.5t46.5 -12v-4h-688v4q138 7 198 38t60 91q0 30 -23.5 70.5t-72.5 103.5l-314 398l-280 -369q-94 -129 -94 -180q0 -68 64 -104t214 -48v-4h-645v4q112 11 201 78t225 250l299 395l-401 510
q-42 54 -57 73t-47 56.5t-48 51t-42 32.5t-49.5 26.5t-51.5 10.5v4h682v-4q-135 -10 -192.5 -41.5t-57.5 -89.5q0 -46 78 -144l305 -391l252 328q100 130 100 188q0 70 -63.5 105.5t-212.5 44.5v4h632v-4q-102 -9 -188.5 -78t-235.5 -260l-268 -348z" />
    <glyph glyph-name="Y" unicode="Y" horiz-adv-x="1556" 
d="M930 1491h633v-4q-54 -5 -96 -20t-92.5 -51.5t-104.5 -105t-115 -173.5l-295 -504v-395q0 -137 53.5 -184t214.5 -50v-4h-688v4q161 3 214 50t53 184v395l-388 629q-77 126 -133 171t-145 54v4h682v-4q-141 -10 -198.5 -38t-57.5 -85q0 -17 10 -43t21.5 -46.5t36.5 -62.5
l321 -534l283 479q46 78 68 123t22 74q0 65 -67.5 95.5t-231.5 37.5v4z" />
    <glyph glyph-name="Z" unicode="Z" horiz-adv-x="1554" 
d="M1436 524h4l-84 -534q-192 10 -694 10h-562l-2 6l1127 1464h-586q-103 0 -172.5 -21t-130.5 -79t-109.5 -149t-107.5 -244l-4 2l164 522q185 -10 647 -10h491l2 -6l-1124 -1465h653q77 0 134 9t105.5 32.5t83 59t65 94t54 132t46.5 177.5z" />
    <glyph glyph-name="bracketleft" unicode="[" horiz-adv-x="700" 
d="M659 1659q-174 -4 -232 -56.5t-58 -205.5v-1592q0 -153 58 -205t232 -55v-4h-426v2122h426v-4z" />
    <glyph glyph-name="backslash" unicode="\" horiz-adv-x="1017" 
d="M911 -213l-829 1853l22 11l830 -1854z" />
    <glyph glyph-name="bracketright" unicode="]" horiz-adv-x="700" 
d="M469 1663v-2122h-428v4q175 3 234 55.5t59 204.5v1592q0 79 -12.5 126.5t-47 78t-89 43t-144.5 14.5v4h428z" />
    <glyph glyph-name="asciicircum" unicode="^" horiz-adv-x="970" 
d="M53 879l430 747h4l431 -747h-29l-404 700l-403 -700h-29z" />
    <glyph glyph-name="underscore" unicode="_" horiz-adv-x="1290" 
d="M51 -209l4 21h1182l-4 -21h-1182z" />
    <glyph glyph-name="grave" unicode="`" horiz-adv-x="897" 
d="M623 1239q-259 144 -336 217q-29 29 -29 68q0 32 24.5 55t55.5 23q33 0 63 -27q78 -78 226 -332z" />
    <glyph glyph-name="a" unicode="a" horiz-adv-x="1218" 
d="M1188 244l4 -2q-71 -262 -209 -262q-135 0 -141 126v84q-230 -210 -445 -210q-137 0 -216 60.5t-79 162.5q0 86 72 146.5t248 125.5l420 156v180q0 123 -60.5 188.5t-175.5 65.5q-77 0 -157 -31t-136 -78v-292q-31 -17 -63 -17q-38 0 -62 27.5t-24 73.5q0 77 49.5 145.5
t124.5 113t160.5 70t160.5 25.5q158 0 242 -83.5t84 -240.5v-643q0 -50 11.5 -68t43.5 -18q76 0 148 195zM457 33q88 0 179 46t206 136v391l-275 -100q-164 -63 -235.5 -132t-71.5 -155q0 -84 54.5 -135t142.5 -51z" />
    <glyph glyph-name="b" unicode="b" horiz-adv-x="1308" 
d="M719 1102q214 0 344.5 -143.5t130.5 -376.5q0 -272 -145.5 -437t-384.5 -165q-155 0 -275 57q-118 -20 -190 -57h-4v1304q0 117 -40 158t-161 45v4q207 69 340 127h4v-735q70 99 174.5 159t206.5 60zM645 8q175 0 282 149.5t107 395.5q0 222 -101.5 359t-264.5 137
q-86 0 -175 -54t-155 -145v-662q44 -86 127.5 -133t179.5 -47z" />
    <glyph glyph-name="c" unicode="c" horiz-adv-x="1181" 
d="M1075 272l4 -2q-60 -130 -187 -210t-274 -80q-227 0 -366 151.5t-139 400.5q0 257 151 413.5t398 156.5q183 0 294 -100.5t111 -264.5q0 -56 -25.5 -90.5t-66.5 -34.5q-35 0 -57 15v350q-51 53 -110.5 76.5t-152.5 23.5q-180 0 -289.5 -135t-109.5 -358
q0 -240 118.5 -386.5t313.5 -146.5q109 0 217 60.5t170 160.5z" />
    <glyph glyph-name="d" unicode="d" horiz-adv-x="1359" 
d="M1114 252q0 -113 40 -151.5t161 -41.5v-4q-174 -28 -340 -75h-4v219q-70 -99 -175 -159t-208 -60q-214 0 -344.5 143.5t-130.5 376.5q0 271 146 436.5t384 165.5q90 0 178 -22.5t150 -61.5v266q0 117 -40.5 157.5t-162.5 45.5v4q203 68 342 127h4v-1366zM641 33
q85 0 174.5 53.5t155.5 144.5v658q-43 88 -126.5 136t-180.5 48q-175 0 -283.5 -150t-108.5 -395q0 -223 102 -359t267 -136z" />
    <glyph glyph-name="e" unicode="e" horiz-adv-x="1204" 
d="M1098 272l4 -2q-63 -131 -192 -210.5t-281 -79.5q-231 0 -372.5 149.5t-141.5 394.5q0 260 147 419t389 159q198 0 319.5 -118t121.5 -310h-830q-4 -58 -4 -90q0 -240 120 -386.5t318 -146.5q111 0 223 61t179 160zM635 1077q-146 0 -244.5 -102t-124.5 -277h514
q82 0 115 25t33 86q0 120 -80.5 194t-212.5 74z" />
    <glyph glyph-name="f" unicode="f" horiz-adv-x="800" 
d="M850 1477h-395q-103 -127 -103 -244q0 -46 17.5 -86.5t48.5 -65.5h340l-4 -20h-336v-819q0 -138 49 -186.5t195 -51.5v-4h-588v4q121 3 160.5 42t39.5 155v839v21h-202l4 20h200q7 150 68.5 274.5t166.5 197.5t230 73q52 0 86.5 -27t34.5 -69q0 -29 -12 -53z" />
    <glyph glyph-name="g" unicode="g" horiz-adv-x="1255" 
d="M895 150q160 -16 233.5 -85.5t73.5 -166.5q0 -147 -157 -237.5t-467 -90.5q-270 0 -398.5 70.5t-128.5 191.5q0 122 211 258q-94 50 -94 150q0 85 127 241q-127 100 -127 264q0 161 121 259t319 98q51 0 123 -10q83 -11 148 -11q161 0 284 21h4l-8 -41h-344
q111 -43 171.5 -125.5t60.5 -190.5q0 -161 -121 -258.5t-318 -97.5q-178 0 -297 80q-40 -59 -56.5 -95t-16.5 -67q0 -16 3.5 -29t17.5 -28t37.5 -26t66.5 -21t102 -15zM608 1077q-126 0 -203 -91.5t-77 -240.5t77.5 -240t202.5 -91t202 91t77 240t-77.5 240.5t-201.5 91.5z
M588 -406q264 0 397 72.5t133 188.5q0 55 -56.5 94.5t-178.5 50.5l-410 37q-113 11 -188 41q-105 -99 -105 -238q0 -118 110.5 -182t297.5 -64z" />
    <glyph glyph-name="h" unicode="h" horiz-adv-x="1400" 
d="M1165 201q0 -116 40 -155t161 -42v-4h-543v4q119 3 159 42.5t40 154.5v592q0 125 -60.5 190.5t-175.5 65.5q-92 0 -185 -46t-210 -137v-665q0 -115 39.5 -154.5t157.5 -42.5v-4h-543v4q122 3 162.5 42.5t40.5 154.5v1083q0 117 -41 157.5t-162 45.5v4q203 68 342 127h4
v-727q249 211 459 211q153 0 234 -83.5t81 -240.5v-577z" />
    <glyph glyph-name="i" unicode="i" horiz-adv-x="671" 
d="M352 1384q-47 0 -78.5 31.5t-31.5 77.5q0 47 31.5 78t78.5 31t79 -31t32 -78q0 -46 -32 -77.5t-79 -31.5zM424 201q0 -116 40 -155t161 -42v-4h-547v4q122 3 162.5 42.5t40.5 154.5v581q0 101 -40.5 140.5t-162.5 58.5v4q200 55 342 109h4v-893z" />
    <glyph glyph-name="j" unicode="j" horiz-adv-x="591" 
d="M326 1384q-47 0 -79 31.5t-32 77.5q0 47 32 78t79 31t78.5 -31t31.5 -78q0 -46 -31.5 -77.5t-78.5 -31.5zM66 -430l-3 4q90 68 140.5 194t50.5 285v729q0 101 -40 140.5t-161 58.5v4q202 56 340 109h4v-985q0 -197 -91 -345t-240 -194z" />
    <glyph glyph-name="k" unicode="k" horiz-adv-x="1300" 
d="M391 201q0 -115 39.5 -154.5t157.5 -42.5v-4h-543v4q122 3 162.5 42.5t40.5 154.5v1083q0 117 -41 157.5t-162 45.5v4q203 68 342 127h4v-1417zM578 637l694 -633v-4h-199l-622 565l315 250q141 112 141 170q0 45 -43 66t-137 26v4h477v-4q-52 0 -105.5 -32.5
t-183.5 -135.5z" />
    <glyph glyph-name="l" unicode="l" horiz-adv-x="638" 
d="M391 201q0 -116 40 -155t161 -42v-4h-547v4q122 3 162.5 42.5t40.5 154.5v1083q0 117 -41 157.5t-162 45.5v4q203 68 342 127h4v-1417z" />
    <glyph glyph-name="m" unicode="m" horiz-adv-x="2166" 
d="M1929 201q0 -115 40.5 -154.5t162.5 -42.5v-4h-543v4q119 3 158 42.5t39 154.5v612q0 236 -225 236q-88 0 -181.5 -47t-205.5 -136q4 -46 4 -67v-598q0 -116 39 -155t157 -42v-4h-538v4q120 3 159 42t39 155v612q0 116 -57.5 176t-167.5 60q-88 0 -178.5 -46t-206.5 -137
v-665q0 -116 39.5 -155t159.5 -42v-4h-545v4q122 3 162.5 42.5t40.5 154.5v581q0 101 -40.5 140.5t-162.5 58.5v4q200 51 342 109h4v-203q241 211 448 211q249 0 297 -213q243 213 453 213q150 0 228.5 -77.5t78.5 -225.5v-598z" />
    <glyph glyph-name="n" unicode="n" horiz-adv-x="1433" 
d="M1198 201q0 -116 40 -155t161 -42v-4h-543v4q120 3 159.5 42t39.5 155v592q0 125 -60.5 190.5t-175.5 65.5q-90 0 -183 -46t-212 -137v-665q0 -116 39.5 -155t159.5 -42v-4h-545v4q122 3 162.5 42.5t40.5 154.5v581q0 101 -40.5 140.5t-162.5 58.5v4q200 51 342 109h4
v-203q249 211 459 211q153 0 234 -83.5t81 -240.5v-577z" />
    <glyph glyph-name="o" unicode="o" horiz-adv-x="1335" 
d="M668 -20q-251 0 -403 154t-152 407t152 407t403 154q249 0 401 -154t152 -407t-152 -407t-401 -154zM668 4q177 0 285 147.5t108 389.5q0 241 -108 388.5t-285 147.5q-178 0 -287 -147t-109 -389t109 -389.5t287 -147.5z" />
    <glyph glyph-name="p" unicode="p" horiz-adv-x="1368" 
d="M778 1102q214 0 344.5 -143.5t130.5 -376.5q0 -272 -145.5 -437t-384.5 -165q-89 0 -177.5 22.5t-148.5 60.5v-231q0 -138 49 -186.5t195 -51.5v-4h-588v4q121 1 161 41t40 156v991q0 101 -40 140.5t-161 58.5v4q201 52 340 109h4v-211q70 99 174.5 159t206.5 60zM705 8
q175 0 282 149.5t107 395.5q0 222 -102 359t-265 137q-86 0 -175.5 -54t-154.5 -145v-662q44 -86 128 -133t180 -47z" />
    <glyph glyph-name="q" unicode="q" horiz-adv-x="1308" 
d="M1114 -209q0 -116 40 -156t161 -41v-4h-588v4q146 3 195 50.5t49 187.5v367q-70 -99 -175 -159t-208 -60q-214 0 -344.5 143.5t-130.5 376.5q0 271 146 436.5t384 165.5q160 0 287 -62q113 20 180 62h4v-1311zM641 33q85 0 174.5 53.5t155.5 144.5v658q-43 88 -126.5 136
t-180.5 48q-175 0 -283.5 -150t-108.5 -395q0 -223 102 -359t267 -136z" />
    <glyph glyph-name="r" unicode="r" horiz-adv-x="913" 
d="M518 936q-41 -69 -94 -215v-479q0 -139 48.5 -187t193.5 -51v-4h-588v4q122 3 162.5 42.5t40.5 154.5v581q0 101 -40.5 140.5t-162.5 58.5v4q195 54 338 109h4l4 -316q51 159 123 241.5t184 82.5q61 0 98 -29t37 -76q0 -31 -18 -61h-330z" />
    <glyph glyph-name="s" unicode="s" horiz-adv-x="1112" 
d="M565 -20q-71 0 -134.5 17t-105 34.5t-59.5 17.5q-40 0 -78 -59h-4l-80 387l5 2q57 -174 179 -274.5t273 -100.5t231 64.5t80 179.5q0 40 -19 73t-46 56t-74.5 44.5t-86 34.5t-99.5 31q-53 16 -84.5 25.5t-79.5 27.5t-77 34.5t-63.5 41.5t-53 51.5t-31.5 63t-13 78.5
q0 134 105.5 213.5t281.5 79.5q74 0 162 -27.5t107 -27.5q24 0 39 9t32 36h5l92 -371l-4 -2q-51 160 -172.5 259t-260.5 99q-122 0 -193 -57.5t-71 -155.5q0 -41 19.5 -76t48 -59t77.5 -46.5t89.5 -36.5t103.5 -32q42 -13 65 -20t62 -21t61.5 -24t55 -26.5t51 -32t40.5 -37
t33 -44t19 -50.5t8 -60q0 -150 -114 -234.5t-322 -84.5z" />
    <glyph glyph-name="t" unicode="t" horiz-adv-x="833" 
d="M502 61q74 0 152.5 47t133.5 123l5 -2q-58 -112 -152.5 -180.5t-191.5 -68.5t-150 51.5t-53 146.5v883h-201v4q132 49 204.5 104.5t135.5 153.5h4v-242h404l-5 -20h-399v-854q0 -82 24.5 -114t88.5 -32z" />
    <glyph glyph-name="u" unicode="u" horiz-adv-x="1392" 
d="M1143 252q0 -113 41 -151.5t162 -41.5v-4q-174 -27 -342 -75h-5v208q-235 -208 -448 -208q-149 0 -227 77t-78 224v501q0 101 -40 140.5t-161 58.5v4q193 53 340 109h4v-822q0 -117 57.5 -178t167.5 -61q88 0 179.5 45.5t205.5 134.5v569q0 102 -39.5 141t-160.5 58v4
q202 56 340 109h4v-842z" />
    <glyph glyph-name="v" unicode="v" horiz-adv-x="1280" 
d="M819 1081h453v-4q-80 -10 -126.5 -69t-127.5 -236l-361 -792h-36l-412 905q-50 111 -86.5 148.5t-114.5 43.5v4h539v-4q-104 -12 -147.5 -39t-43.5 -86q0 -32 29 -98l320 -713l270 598q59 130 59 191q0 75 -50 107t-165 40v4z" />
    <glyph glyph-name="w" unicode="w" horiz-adv-x="1914" 
d="M1413 1081h494v-4q-57 -7 -95.5 -34.5t-75.5 -90t-81 -180.5l-305 -792h-37l-355 903l-356 -903h-37l-354 905q-42 108 -81.5 147t-119.5 45v4h580v-4q-129 -12 -178.5 -38.5t-49.5 -88.5q0 -32 25 -96l260 -702l375 950h4l367 -948l219 587q53 127 53 189
q0 77 -56.5 108t-195.5 39v4z" />
    <glyph glyph-name="x" unicode="x" horiz-adv-x="1230" 
d="M967 213q95 -124 135.5 -163t89.5 -46v-4h-528v4q99 6 143.5 27.5t44.5 66.5q0 38 -66 125l-215 275l-190 -244q-72 -97 -72 -137q0 -52 47 -77t154 -36v-4h-471v4q84 7 145 56t170 192l203 264l-295 375q-60 77 -87.5 108.5t-57.5 52.5t-64 25v4h520v-4
q-94 -11 -136 -32.5t-42 -63.5q0 -38 51 -104l220 -279l174 223q78 110 78 150q0 53 -47 76.5t-154 29.5v4h461v-4q-76 -6 -135 -56t-177 -202l-188 -239z" />
    <glyph glyph-name="y" unicode="y" horiz-adv-x="1284" 
d="M809 1081h465v-4q-78 -10 -124.5 -69t-127.5 -236l-465 -1022q-79 -180 -283 -180q-53 0 -86.5 24t-33.5 60q0 25 10 45h338q27 39 41 70l88 196l-418 920q-48 109 -86 147.5t-115 44.5v4h523v-4q-97 -9 -137 -35t-40 -86q0 -32 31 -102l320 -715l268 600q59 124 59 189
q0 76 -53.5 109.5t-173.5 39.5v4z" />
    <glyph glyph-name="z" unicode="z" horiz-adv-x="1179" 
d="M721 20q145 0 226.5 80t119.5 262h4l-47 -372q-160 10 -526 10h-406l-2 4l795 1057h-406q-135 0 -220.5 -82t-145.5 -268l-4 2l96 379q161 -11 506 -11h358l2 -4l-795 -1057h445z" />
    <glyph glyph-name="braceleft" unicode="{" horiz-adv-x="686" 
d="M330 -123q0 -89 64 -158.5t235 -164.5l-2 -5q-126 41 -210.5 81.5t-132 83.5t-66.5 85t-19 95q0 75 55 231q61 165 61 254q0 48 -11 84t-38 66.5t-78 46.5t-125 16h-12v20h12q74 0 125 16t78 46.5t38 66.5t11 84q0 85 -61 254q-55 156 -55 230q0 70 35 124.5t130.5 110.5
t262.5 111l2 -4q-170 -97 -234.5 -166.5t-64.5 -157.5q0 -73 53 -219q63 -179 63 -264q0 -102 -60.5 -165t-211.5 -77q150 -14 211 -77.5t61 -164.5q0 -85 -63 -264q-53 -150 -53 -219z" />
    <glyph glyph-name="bar" unicode="|" horiz-adv-x="542" 
d="M258 -414v2020l25 4v-2020z" />
    <glyph glyph-name="braceright" unicode="}" horiz-adv-x="686" 
d="M623 612h12v-20h-12q-74 0 -125.5 -16t-78 -46.5t-37.5 -66.5t-11 -84q0 -89 61 -254q55 -156 55 -231q0 -70 -35.5 -124.5t-131.5 -110.5t-263 -110l-2 5q171 95 235 164.5t64 158.5q0 69 -53 219q-63 179 -63 264q0 101 61.5 164.5t212.5 77.5q-151 14 -212.5 77
t-61.5 165q0 85 63 264q53 146 53 219q0 88 -64.5 157.5t-234.5 166.5l2 4q168 -55 264 -111t131 -110.5t35 -124.5q0 -74 -55 -230q-61 -169 -61 -254q0 -48 11 -84t37.5 -66.5t78 -46.5t125.5 -16z" />
    <glyph glyph-name="asciitilde" unicode="~" horiz-adv-x="970" 
d="M668 475q-36 0 -77.5 14t-66 28t-69.5 42q-58 38 -102 58t-89 20q-134 0 -190 -145l-4 2q14 102 80 176.5t155 74.5q81 0 205 -81q60 -40 105.5 -60t93.5 -20q134 0 190 145l4 -2q-14 -103 -80 -177.5t-155 -74.5z" />
    <glyph glyph-name="uni00A0" unicode="&#xa0;" horiz-adv-x="538" 
 />
    <glyph glyph-name="exclamdown" unicode="&#xa1;" horiz-adv-x="591" 
d="M295 1069q-54 0 -87.5 32.5t-33.5 86.5q0 53 33.5 86t87.5 33t87.5 -33t33.5 -86q0 -54 -33.5 -86.5t-87.5 -32.5zM295 -225q-42 0 -67 26.5t-25 71.5q0 237 39 502q46 308 51 512h4q4 -189 53 -512q37 -252 37 -502q0 -45 -24 -71.5t-68 -26.5z" />
    <glyph glyph-name="cent" unicode="&#xa2;" horiz-adv-x="1218" 
d="M1094 475q-55 -120 -166 -197.5t-244 -91.5v-202h-25v200h-26q-227 0 -365.5 152t-138.5 401q0 252 145.5 408t384.5 162v198h25v-198q180 -1 288.5 -101.5t108.5 -263.5q0 -56 -24.5 -90.5t-65.5 -34.5q-38 0 -59 14v353q-49 49 -106 73t-142 25v-1026h18
q110 0 218 60.5t170 160.5zM272 788q0 -225 106 -369t281 -161v1024q-175 -5 -281 -140t-106 -354z" />
    <glyph glyph-name="sterling" unicode="&#xa3;" horiz-adv-x="1400" 
d="M1272 508h4l-82 -518q-192 10 -694 10h-398l-2 6q64 59 113 123l-4 2h4q80 106 109.5 218.5t29.5 252.5q0 48 -4 146h-233l4 20h227q0 27 -2 39q-12 117 -12 246q0 206 134 332t349 126q183 0 294.5 -100t111.5 -264q0 -55 -26 -90t-67 -35q-36 0 -57 14v357
q-52 49 -111 71.5t-151 22.5q-80 0 -139 -22t-95 -58.5t-57.5 -93t-29 -115.5t-7.5 -135q0 -54 17 -203l12 -92h551l-4 -20h-545q4 -70 4 -105q0 -365 -278 -512h585q150 0 233 32t132 110.5t84 234.5z" />
    <glyph glyph-name="currency" unicode="&#xa4;" horiz-adv-x="1435" 
d="M1274 213l-17 -16l-229 227q-114 -117 -311 -117t-307 113l-230 -227l-16 16l227 229q-100 115 -100 310q0 198 102 309l-227 227l16 16l228 -225q110 113 307 113q195 0 307 -115l231 227l17 -16l-230 -229q99 -119 99 -307q0 -190 -97 -304zM717 332q187 0 291 109.5
t104 306.5q0 195 -104 305t-291 110q-189 0 -293.5 -109.5t-104.5 -305.5q0 -197 104.5 -306.5t293.5 -109.5z" />
    <glyph glyph-name="yen" unicode="&#xa5;" horiz-adv-x="1601" 
d="M913 1491h625v-4q-52 -5 -92.5 -19.5t-89 -50.5t-101 -105t-112.5 -175l-277 -492v-2h408l-4 -20h-404v-232h408l-4 -20h-404v-133q0 -137 53 -184t214 -50v-4h-689v4q161 3 214 50t53 184v133h-404l4 20h400v232h-404l4 20h391l-364 619q-73 126 -129.5 171t-145.5 54v4
h676v-4q-139 -10 -194.5 -38t-55.5 -85q0 -38 64 -152l303 -534l264 469q31 56 45 82.5t26.5 59.5t12.5 54q0 71 -65 103t-226 41v4z" />
    <glyph glyph-name="brokenbar" unicode="&#xa6;" horiz-adv-x="542" 
d="M258 823v783l25 4v-783zM258 -414v783l25 4v-783z" />
    <glyph glyph-name="section" unicode="&#xa7;" horiz-adv-x="870" 
d="M315 -438q-52 0 -86 27t-34 69q0 28 10 51h311q76 79 76 199q0 79 -38 184.5t-80 184t-116 204.5q-61 105 -92 162.5t-72 142.5t-59 152.5t-18 126.5q0 91 37 191t96.5 181.5t141.5 135t165 53.5q52 0 86.5 -27t34.5 -69q0 -21 -12 -53h-310q-77 -77 -77 -199
q0 -59 18 -127t57.5 -150.5t70 -139t87.5 -154.5q53 -92 74.5 -130t62.5 -117t58.5 -125t33 -105.5t15.5 -108.5q0 -121 -62 -251t-166 -219t-213 -89zM604 -219q127 175 127 340q0 106 -64.5 248.5t-174.5 326.5q-50 83 -78 132t-66 121t-55.5 123t-32.5 111.5t-13 115
t19 106.5q-125 -175 -125 -340q0 -107 65.5 -251.5t172.5 -321.5q50 -82 78 -131.5t65.5 -121t55 -122.5t32 -111.5t12.5 -116t-18 -108.5z" />
    <glyph glyph-name="dieresis" unicode="&#xa8;" horiz-adv-x="1130" 
d="M360 1395q-43 0 -71.5 27.5t-28.5 70.5t28.5 71.5t71.5 28.5t72 -28.5t29 -71.5q0 -42 -29 -70t-72 -28zM770 1395q-43 0 -71.5 27.5t-28.5 70.5t28.5 71.5t71.5 28.5t71.5 -28.5t28.5 -71.5t-28.5 -70.5t-71.5 -27.5z" />
    <glyph glyph-name="copyright" unicode="&#xa9;" horiz-adv-x="2084" 
d="M1042 -143q-271 0 -478 109.5t-320 309.5t-113 461q0 196 66 360t184 278.5t288 178.5t373 64q202 0 372.5 -66t289 -184t184.5 -284.5t66 -362.5t-66 -357.5t-184.5 -273t-288.5 -172.5t-373 -61zM1042 -119q263 0 463 102.5t310 293.5t110 444q0 254 -109.5 452
t-311 309t-462.5 111t-461.5 -106.5t-310.5 -301.5t-110 -448t110 -448t310.5 -301.5t461.5 -106.5zM1044 147q-236 0 -382 162t-146 424q0 266 152.5 431t402.5 165q57 0 110 -14.5t90.5 -28.5t57.5 -14q23 0 37 10t31 39h4l100 -406l-4 -2q-68 197 -178.5 294.5
t-251.5 97.5q-186 0 -300 -141t-114 -371q0 -249 126.5 -403t330.5 -154q120 0 236 61t178 158l4 -2q-59 -136 -193 -221t-291 -85z" />
    <glyph glyph-name="ordfeminine" unicode="&#xaa;" horiz-adv-x="1064" 
d="M967 850l4 -2q-55 -203 -168 -203q-54 0 -83.5 26.5t-31.5 76.5v69q-175 -172 -338 -172q-103 0 -164 49t-61 131q0 65 54.5 112.5t187.5 98.5l321 117v119q0 100 -45.5 153.5t-130.5 53.5q-54 0 -110 -21.5t-99 -56.5v-244q-32 -16 -59 -16q-32 0 -52 22.5t-20 59.5
q0 50 25 96.5t66 80.5t92 59.5t105 38.5t103 13q122 0 187 -63.5t65 -183.5v-494q0 -34 8 -48.5t33 -14.5q58 0 111 143zM410 698q111 0 278 140v295l-194 -72q-230 -86 -230 -225q0 -61 40.5 -99.5t105.5 -38.5z" />
    <glyph glyph-name="guillemotleft" unicode="&#xab;" horiz-adv-x="880" 
d="M446 997l-196 -397l196 -399l-4 -2l-325 383v34l325 383zM741 997l-198 -397l198 -399l-4 -2l-325 383v34l325 383z" />
    <glyph glyph-name="logicalnot" unicode="&#xac;" horiz-adv-x="970" 
d="M111 739h753v-307h-24v287h-729v20z" />
    <glyph glyph-name="uni00AD" unicode="&#xad;" horiz-adv-x="1015" 
d="M170 592l4 20h672l-4 -20h-672z" />
    <glyph glyph-name="registered" unicode="&#xae;" horiz-adv-x="1263" 
d="M633 1626q227 0 365.5 -132t138.5 -349t-138.5 -349t-365.5 -132q-229 0 -367.5 132t-138.5 349t138.5 349t367.5 132zM633 682q218 0 349.5 127t131.5 336t-131.5 336t-349.5 127q-219 0 -351 -126.5t-132 -336.5t132 -336.5t351 -126.5zM725 1143q93 -156 136 -204.5
t87 -51.5v-4h-86q-56 0 -99.5 46t-133.5 201h-2h-101v-155q0 -49 21 -67t74 -21v-4h-263v4q45 1 62.5 17.5t17.5 56.5v382q0 36 -17.5 52.5t-62.5 19.5v4h299q91 0 146 -38t55 -101q0 -50 -35.5 -86t-97.5 -51zM618 1147q63 0 102.5 36t39.5 93q0 58 -33.5 92.5t-89.5 34.5
h-111v-256h92z" />
    <glyph glyph-name="macron" unicode="&#xaf;" horiz-adv-x="1079" 
d="M207 1460l4 21h661l-4 -21h-661z" />
    <glyph glyph-name="degree" unicode="&#xb0;" horiz-adv-x="811" 
d="M406 1061q-131 0 -210 77.5t-79 204.5q0 128 79.5 205.5t209.5 77.5t209 -77.5t79 -205.5t-79 -205t-209 -77zM406 1085q118 0 189 70.5t71 187.5t-71 188t-189 71t-189.5 -71t-71.5 -188t71.5 -187.5t189.5 -70.5z" />
    <glyph glyph-name="plusminus" unicode="&#xb1;" horiz-adv-x="970" 
d="M498 745h364v-20h-364v-313h-25v313h-364v20h364v316h25v-316zM109 264v21h753v-21h-753z" />
    <glyph glyph-name="uni00B2" unicode="&#xb2;" horiz-adv-x="839" 
d="M745 909h5l-39 -262q-111 6 -412 6h-240l-2 4q56 58 185 170q58 49 94.5 81.5t80.5 78.5t68.5 83.5t42 83t17.5 89.5q0 71 -46 113.5t-122 42.5q-82 0 -152.5 -44t-107.5 -118l-4 2q43 118 133.5 190t195.5 72q104 0 168 -57t64 -148q0 -64 -29 -125.5t-84.5 -118.5
t-112.5 -101.5t-135 -96.5q-52 -38 -120 -96h301q125 0 175.5 30.5t75.5 120.5z" />
    <glyph glyph-name="uni00B3" unicode="&#xb3;" horiz-adv-x="745" 
d="M358 1167q136 -25 210.5 -85.5t74.5 -151.5q0 -122 -140 -199t-390 -90v4q187 18 297 83.5t110 170.5q0 74 -67.5 115.5t-202.5 56.5l-2 4l284 311h-210q-99 0 -147.5 -27.5t-84.5 -109.5l-4 2l74 258h2q71 -18 377 -18h110l2 -4z" />
    <glyph glyph-name="acute" unicode="&#xb4;" horiz-adv-x="897" 
d="M274 1239l-4 4q148 254 226 332q27 27 61 27q32 0 56 -23t24 -55q0 -42 -29 -68q-71 -71 -334 -217z" />
    <glyph glyph-name="uni00B5" unicode="&#xb5;" horiz-adv-x="1488" 
d="M1192 252q0 -113 40 -151.5t161 -41.5v-4q-174 -28 -340 -75h-4v208q-228 -208 -431 -208q-188 0 -253 143q45 -410 45 -488q0 -29 -19 -47t-47 -18t-46.5 18t-18.5 47q0 99 16 672v475q0 101 -40.5 140.5t-162.5 58.5v4q200 55 342 109h4v-822q0 -117 58 -178t168 -61
q88 0 179.5 45.5t205.5 134.5v569q0 101 -40.5 140.5t-162.5 58.5v4q188 51 342 109h4v-842z" />
    <glyph glyph-name="paragraph" unicode="&#xb6;" horiz-adv-x="1263" 
d="M1165 1491v-4q-138 -3 -183.5 -43.5t-45.5 -157.5v-1696l-80 -14v1894h-149v-1880l-80 -14v1096h-9q-248 0 -399 116t-151 306q0 180 125 288.5t329 108.5h643z" />
    <glyph glyph-name="periodcentered" unicode="&#xb7;" horiz-adv-x="567" 
d="M283 475q-52 0 -86.5 34t-34.5 85q0 52 34 85.5t87 33.5t86.5 -33.5t33.5 -85.5q0 -51 -34 -85t-86 -34z" />
    <glyph glyph-name="cedilla" unicode="&#xb8;" horiz-adv-x="864" 
d="M319 -430v4q64 4 102 35t38 78q0 43 -40 92t-108 90l97 131h28l-49 -66q180 -106 180 -215q0 -69 -66 -108t-182 -41z" />
    <glyph glyph-name="uni00B9" unicode="&#xb9;" horiz-adv-x="567" 
d="M358 788q0 -75 29.5 -101.5t114.5 -29.5v-4h-410v4q86 3 115 30t29 101v494q0 46 -12.5 69t-45.5 23q-37 0 -94 -24l-2 4q148 74 274 155h2v-721z" />
    <glyph glyph-name="ordmasculine" unicode="&#xba;" horiz-adv-x="1099" 
d="M551 645q-194 0 -313 120t-119 314q0 195 118.5 313.5t313.5 118.5q194 0 312 -118.5t118 -313.5q0 -194 -118.5 -314t-311.5 -120zM551 664q129 0 208 114t79 301q0 186 -79 300t-208 114q-131 0 -211 -114t-80 -300q0 -187 80 -301t211 -114z" />
    <glyph glyph-name="guillemotright" unicode="&#xbb;" horiz-adv-x="880" 
d="M471 616v-34l-326 -383l-4 2l197 399l-197 397l4 2zM438 999l326 -383v-34l-326 -383l-4 2l199 399l-199 397z" />
    <glyph glyph-name="onequarter" unicode="&#xbc;" horiz-adv-x="1654" 
d="M1401 1540l18 -14l-1282 -1577l-18 16zM264 1374q-37 0 -94 -24l-2 4q147 72 276 155h2v-721q0 -75 29 -101.5t115 -29.5v-4h-412v4q87 3 115.5 30t28.5 101v494q0 47 -12 69.5t-46 22.5zM1571 242h-189v-121q0 -65 26 -89.5t99 -27.5v-4h-395v4q88 3 118 32t30 107v99
h-410l-2 2l444 594h90v-578q102 0 191 6h2zM883 260h377v502z" />
    <glyph glyph-name="onehalf" unicode="&#xbd;" horiz-adv-x="1673" 
d="M1399 1540l18 -14l-1282 -1577l-18 16zM262 1374q-37 0 -94 -24l-2 4q150 73 274 155h4v-721q0 -75 28.5 -101.5t113.5 -29.5v-4h-410v4q87 3 115 29.5t28 101.5v494q0 48 -11.5 70t-45.5 22zM1563 256h4l-37 -262q-111 6 -412 6h-241l-3 4q57 57 187 170
q58 49 93.5 81.5t79.5 79t68.5 83.5t42 82.5t17.5 89.5q0 70 -45.5 112.5t-120.5 42.5q-82 0 -153 -43.5t-109 -117.5l-4 2q42 118 134 190t196 72q105 0 169 -57t64 -148q0 -64 -30.5 -126t-88.5 -120t-115.5 -102.5t-136.5 -97.5q-44 -32 -116 -93h305q125 0 176 30.5
t76 121.5z" />
    <glyph glyph-name="threequarters" unicode="&#xbe;" horiz-adv-x="1746" 
d="M1493 1540l18 -14l-1282 -1577l-18 16zM160 645q187 18 297 83.5t110 170.5q0 74 -67.5 115.5t-202.5 56.5l-2 4l285 311h-211q-99 0 -147.5 -27.5t-84.5 -109.5l-4 2l74 258h2q71 -18 377 -18h110l2 -4l-292 -320q136 -25 210 -85.5t74 -151.5q0 -122 -140 -199
t-390 -90v4zM1663 242h-188v-121q0 -65 25 -89.5t99 -27.5v-4h-397v4q89 3 118.5 32t29.5 107v99h-408l-2 2l444 594h91v-578q101 0 190 6h2zM975 260h375v498z" />
    <glyph glyph-name="questiondown" unicode="&#xbf;" horiz-adv-x="903" 
d="M588 1069q-54 0 -87.5 32.5t-33.5 86.5q0 53 33.5 86t87.5 33t87.5 -33t33.5 -86q0 -54 -33.5 -86.5t-87.5 -32.5zM778 -78q13 -23 13 -51q0 -42 -34.5 -69t-86.5 -27q-107 0 -209 45t-175 116.5t-117 165t-44 187.5q0 161 116.5 250t336.5 98q19 112 22 250h4
q23 -203 68 -373l-4 -4q-249 -7 -375.5 -77.5t-126.5 -196.5q0 -169 182 -314h430z" />
    <glyph glyph-name="Agrave" unicode="&#xc0;" horiz-adv-x="1667" 
d="M594 1712q-25 10 -39 31t-14 45q0 34 23.5 58t58.5 24q23 0 41 -10q114 -54 315 -252l-2 -4q-315 76 -383 108zM1432 197q49 -115 91 -151t146 -42v-4h-639v4q137 12 189.5 38.5t52.5 88.5q0 30 -27 96l-137 328h-688l-90 -217q-54 -134 -54 -184q0 -78 61 -110t208 -40
v-4h-541v4q56 5 93 20.5t70 53t59.5 89t64.5 142.5l444 1061l-26 62q68 29 131 79h34zM428 575h672l-336 805z" />
    <glyph glyph-name="Aacute" unicode="&#xc1;" horiz-adv-x="1667" 
d="M1042 1712q-68 -32 -383 -108l-2 4q200 197 316 252q17 10 41 10q35 0 58.5 -24t23.5 -58q0 -24 -15 -45t-39 -31zM1432 197q49 -115 91 -151t146 -42v-4h-639v4q137 12 189.5 38.5t52.5 88.5q0 30 -27 96l-137 328h-688l-90 -217q-54 -134 -54 -184q0 -78 61 -110
t208 -40v-4h-541v4q56 5 93 20.5t70 53t59.5 89t64.5 142.5l444 1061l-26 62q68 29 131 79h34zM428 575h672l-336 805z" />
    <glyph glyph-name="Acircumflex" unicode="&#xc2;" horiz-adv-x="1667" 
d="M827 1739l-295 -135l-2 4l295 262h4l295 -262l-2 -4zM1432 197q49 -115 91 -151t146 -42v-4h-639v4q137 12 189.5 38.5t52.5 88.5q0 30 -27 96l-137 328h-688l-90 -217q-54 -134 -54 -184q0 -78 61 -110t208 -40v-4h-541v4q56 5 93 20.5t70 53t59.5 89t64.5 142.5
l444 1061l-26 62q68 29 131 79h34zM428 575h672l-336 805z" />
    <glyph glyph-name="Atilde" unicode="&#xc3;" horiz-adv-x="1667" 
d="M606 1761q-120 0 -172 -145l-4 2q12 102 74 177t143 75q80 0 203 -84q58 -38 103 -58t91 -20q124 0 175 143l4 -2q-13 -101 -74.5 -175.5t-144.5 -74.5q-86 0 -209 84q-40 26 -63.5 39t-59 26t-66.5 13zM1432 197q49 -115 91 -151t146 -42v-4h-639v4q137 12 189.5 38.5
t52.5 88.5q0 30 -27 96l-137 328h-688l-90 -217q-54 -134 -54 -184q0 -78 61 -110t208 -40v-4h-541v4q56 5 93 20.5t70 53t59.5 89t64.5 142.5l444 1061l-26 62q68 29 131 79h34zM428 575h672l-336 805z" />
    <glyph glyph-name="Adieresis" unicode="&#xc4;" horiz-adv-x="1667" 
d="M623 1671q-43 0 -72 28.5t-29 69.5q0 43 29 72t72 29t71.5 -29t28.5 -72q0 -41 -28.5 -69.5t-71.5 -28.5zM1032 1671q-43 0 -71.5 28.5t-28.5 69.5q0 43 28.5 72t71.5 29t72 -29t29 -72q0 -41 -29 -69.5t-72 -28.5zM1432 197q49 -115 91 -151t146 -42v-4h-639v4
q137 12 189.5 38.5t52.5 88.5q0 30 -27 96l-137 328h-688l-90 -217q-54 -134 -54 -184q0 -78 61 -110t208 -40v-4h-541v4q56 5 93 20.5t70 53t59.5 89t64.5 142.5l444 1061l-26 62q68 29 131 79h34zM428 575h672l-336 805z" />
    <glyph glyph-name="Aring" unicode="&#xc5;" horiz-adv-x="1667" 
d="M827 1573q-94 0 -151.5 52.5t-57.5 139.5q0 88 57.5 141.5t151.5 53.5t151.5 -53.5t57.5 -141.5q0 -87 -57.5 -139.5t-151.5 -52.5zM827 1935q-81 0 -130.5 -47t-49.5 -123q0 -75 49.5 -121.5t130.5 -46.5q82 0 131.5 46.5t49.5 121.5t-50 122.5t-131 47.5zM1432 197
q49 -115 91 -151t146 -42v-4h-639v4q137 12 189.5 38.5t52.5 88.5q0 30 -27 96l-137 328h-688l-90 -217q-54 -134 -54 -184q0 -78 61 -110t208 -40v-4h-541v4q56 5 93 20.5t70 53t59.5 89t64.5 142.5l444 1061l-26 62q68 29 131 79h34zM428 575h672l-336 805z" />
    <glyph glyph-name="AE" unicode="&#xc6;" horiz-adv-x="2447" 
d="M2353 524l4 -2l-188 -532q-120 10 -371 10h-880v4q138 3 183.5 43.5t45.5 157.5v553h-586l-201 -422q-69 -144 -69 -201q0 -67 56.5 -96t193.5 -35v-4h-543v4q107 11 176.5 76t147.5 229l565 1182h856q244 0 362 10l168 -512l-4 -2q-41 120 -81 199.5t-87.5 137
t-110 88.5t-138.5 44.5t-183 13.5h-369v-692h236q140 0 194.5 68t79.5 272h5q-7 -254 -7 -360q0 -107 7 -361h-5q-17 148 -45.5 223.5t-80.5 106.5t-148 31h-236v-561q0 -106 30.5 -141.5t121.5 -35.5h295q130 0 215.5 21t156.5 80.5t123.5 153t110.5 249.5zM571 778h576
v508q0 105 -49.5 142.5t-196.5 41.5z" />
    <glyph glyph-name="Ccedilla" unicode="&#xc7;" horiz-adv-x="1544" 
d="M815 -20l-35 -46q181 -105 181 -215q0 -69 -66 -108t-182 -41v4q64 4 101.5 35t37.5 78q0 43 -39.5 92t-107.5 90l81 111q-294 11 -472.5 217.5t-178.5 537.5q0 230 88.5 406.5t249.5 273t371 96.5q67 0 137 -17.5t122.5 -34.5t76.5 -17q30 0 48 12t38 47h4l131 -522
l-4 -2q-87 255 -229 382.5t-330 127.5q-248 0 -398.5 -186.5t-150.5 -493.5q0 -215 74.5 -380t211 -256t314.5 -91q159 0 310.5 81t234.5 212l4 -2q-76 -173 -247.5 -282t-375.5 -109z" />
    <glyph glyph-name="Egrave" unicode="&#xc8;" horiz-adv-x="1632" 
d="M549 1712q-24 10 -38.5 31t-14.5 45q0 34 23.5 58t58.5 24q22 0 40 -10q116 -55 316 -252l-2 -4q-315 76 -383 108zM1536 524l4 -2l-186 -532q-120 10 -371 10h-883v4q138 3 185 43.5t47 157.5v1081q0 117 -47 157.5t-185 43.5v4h828q244 0 362 10l166 -512l-4 -2
q-52 150 -100.5 239.5t-119 146.5t-158 77t-222.5 20h-367v-692h234q141 0 195.5 67.5t80.5 272.5h4q-6 -218 -6 -360q0 -144 6 -361h-4q-14 112 -31.5 179t-49.5 109.5t-77 57.5t-118 15h-234v-561q0 -106 30 -141.5t122 -35.5h293q131 0 217 21t157 80.5t123 153
t109 249.5z" />
    <glyph glyph-name="Eacute" unicode="&#xc9;" horiz-adv-x="1632" 
d="M997 1712q-68 -32 -383 -108l-2 4q200 197 316 252q17 10 41 10q35 0 58.5 -24t23.5 -58q0 -24 -14 -45t-40 -31zM1536 524l4 -2l-186 -532q-120 10 -371 10h-883v4q138 3 185 43.5t47 157.5v1081q0 117 -47 157.5t-185 43.5v4h828q244 0 362 10l166 -512l-4 -2
q-52 150 -100.5 239.5t-119 146.5t-158 77t-222.5 20h-367v-692h234q141 0 195.5 67.5t80.5 272.5h4q-6 -218 -6 -360q0 -144 6 -361h-4q-14 112 -31.5 179t-49.5 109.5t-77 57.5t-118 15h-234v-561q0 -106 30 -141.5t122 -35.5h293q131 0 217 21t157 80.5t123 153
t109 249.5z" />
    <glyph glyph-name="Ecircumflex" unicode="&#xca;" horiz-adv-x="1632" 
d="M782 1739l-295 -135l-2 4l295 262h4l295 -262l-2 -4zM1536 524l4 -2l-186 -532q-120 10 -371 10h-883v4q138 3 185 43.5t47 157.5v1081q0 117 -47 157.5t-185 43.5v4h828q244 0 362 10l166 -512l-4 -2q-52 150 -100.5 239.5t-119 146.5t-158 77t-222.5 20h-367v-692h234
q141 0 195.5 67.5t80.5 272.5h4q-6 -218 -6 -360q0 -144 6 -361h-4q-14 112 -31.5 179t-49.5 109.5t-77 57.5t-118 15h-234v-561q0 -106 30 -141.5t122 -35.5h293q131 0 217 21t157 80.5t123 153t109 249.5z" />
    <glyph glyph-name="Edieresis" unicode="&#xcb;" horiz-adv-x="1632" 
d="M578 1671q-43 0 -72 28.5t-29 69.5q0 43 29 72t72 29t71.5 -29t28.5 -72q0 -41 -28.5 -69.5t-71.5 -28.5zM987 1671q-43 0 -71.5 28.5t-28.5 69.5q0 43 28.5 72t71.5 29t71.5 -29t28.5 -72q0 -41 -28.5 -69.5t-71.5 -28.5zM1536 524l4 -2l-186 -532q-120 10 -371 10h-883
v4q138 3 185 43.5t47 157.5v1081q0 117 -47 157.5t-185 43.5v4h828q244 0 362 10l166 -512l-4 -2q-52 150 -100.5 239.5t-119 146.5t-158 77t-222.5 20h-367v-692h234q141 0 195.5 67.5t80.5 272.5h4q-6 -218 -6 -360q0 -144 6 -361h-4q-14 112 -31.5 179t-49.5 109.5
t-77 57.5t-118 15h-234v-561q0 -106 30 -141.5t122 -35.5h293q131 0 217 21t157 80.5t123 153t109 249.5z" />
    <glyph glyph-name="Igrave" unicode="&#xcc;" horiz-adv-x="815" 
d="M174 1712q-24 10 -38.5 31t-14.5 45q0 34 24 58t58 24q23 0 41 -10q114 -54 315 -252l-2 -4q-310 75 -383 108zM715 1487q-138 -3 -184 -43.5t-46 -157.5v-1081q0 -117 46 -157.5t184 -43.5v-4h-615v4q138 3 185 43.5t47 157.5v1081q0 117 -47 157.5t-185 43.5v4h615v-4z
" />
    <glyph glyph-name="Iacute" unicode="&#xcd;" horiz-adv-x="815" 
d="M623 1712q-68 -32 -383 -108l-2 4q201 198 315 252q17 10 41 10q35 0 58.5 -24t23.5 -58q0 -24 -14 -45t-39 -31zM715 1487q-138 -3 -184 -43.5t-46 -157.5v-1081q0 -117 46 -157.5t184 -43.5v-4h-615v4q138 3 185 43.5t47 157.5v1081q0 117 -47 157.5t-185 43.5v4h615
v-4z" />
    <glyph glyph-name="Icircumflex" unicode="&#xce;" horiz-adv-x="815" 
d="M408 1739l-295 -135l-2 4l295 262h4l295 -262l-3 -4zM715 1487q-138 -3 -184 -43.5t-46 -157.5v-1081q0 -117 46 -157.5t184 -43.5v-4h-615v4q138 3 185 43.5t47 157.5v1081q0 117 -47 157.5t-185 43.5v4h615v-4z" />
    <glyph glyph-name="Idieresis" unicode="&#xcf;" horiz-adv-x="815" 
d="M203 1671q-43 0 -72 28.5t-29 69.5q0 43 29 72t72 29t71.5 -29t28.5 -72q0 -41 -28.5 -69.5t-71.5 -28.5zM612 1671q-43 0 -71.5 28.5t-28.5 69.5q0 43 28.5 72t71.5 29t72 -29t29 -72q0 -41 -29 -69.5t-72 -28.5zM715 1487q-138 -3 -184 -43.5t-46 -157.5v-1081
q0 -117 46 -157.5t184 -43.5v-4h-615v4q138 3 185 43.5t47 157.5v1081q0 117 -47 157.5t-185 43.5v4h615v-4z" />
    <glyph glyph-name="Eth" unicode="&#xd0;" horiz-adv-x="1789" 
d="M846 1491q241 0 426 -92.5t286 -262t101 -391.5q0 -166 -59 -305.5t-164.5 -236t-257 -150t-332.5 -53.5h-737v4q138 3 183.5 43.5t45.5 157.5v553h-229l4 20h225v508q0 117 -45.5 157.5t-183.5 43.5v4h737zM813 20q304 0 489 199t185 526q0 328 -183 526.5t-487 198.5
h-325v-692h460l-4 -20h-456v-561q0 -106 23 -141.5t93 -35.5h205z" />
    <glyph glyph-name="Ntilde" unicode="&#xd1;" horiz-adv-x="1722" 
d="M641 1761q-122 0 -174 -145l-4 2q12 102 74.5 177t144.5 75q80 0 203 -84q58 -38 103 -58t91 -20q123 0 174 143l4 -2q-13 -101 -74.5 -175.5t-144.5 -74.5q-86 0 -209 84q-46 29 -65 40t-55.5 24.5t-67.5 13.5zM1061 1491h579v-4q-138 -3 -184.5 -43.5t-46.5 -157.5
v-1306h-4l-1049 1333v-1067q0 -97 27.5 -146.5t95.5 -71.5t201 -24v-4h-580v4q138 3 185 43.5t47 157.5v1124q0 91 -47 123t-185 35v4h326l958 -1245v999q0 73 -13.5 117t-51 72.5t-98 39.5t-160.5 13v4z" />
    <glyph glyph-name="Ograve" unicode="&#xd2;" horiz-adv-x="1751" 
d="M1026 1604q-315 76 -383 108q-25 10 -39 31t-14 45q0 34 23.5 58t58.5 24q24 0 41 -10q114 -54 315 -252zM877 -20q-335 0 -539.5 210t-204.5 555t204.5 555.5t539.5 210.5q333 0 537 -210.5t204 -555.5t-204 -555t-537 -210zM877 4q257 0 413 203.5t156 537.5
q0 221 -70.5 389.5t-200 260.5t-298.5 92q-170 0 -300 -92t-201 -260.5t-71 -389.5q0 -334 157 -537.5t415 -203.5z" />
    <glyph glyph-name="Oacute" unicode="&#xd3;" horiz-adv-x="1751" 
d="M709 1604l-2 4q201 198 315 252q18 10 41 10q34 0 58 -24t24 -58q0 -24 -14.5 -45t-38.5 -31q-73 -33 -383 -108zM877 -20q-335 0 -539.5 210t-204.5 555t204.5 555.5t539.5 210.5q333 0 537 -210.5t204 -555.5t-204 -555t-537 -210zM877 4q257 0 413 203.5t156 537.5
q0 221 -70.5 389.5t-200 260.5t-298.5 92q-170 0 -300 -92t-201 -260.5t-71 -389.5q0 -334 157 -537.5t415 -203.5z" />
    <glyph glyph-name="Ocircumflex" unicode="&#xd4;" horiz-adv-x="1751" 
d="M877 1739l-297 -135l-2 4l296 262h5l295 -262l-3 -4zM877 1511q333 0 537 -210.5t204 -555.5t-204 -555t-537 -210q-335 0 -539.5 210t-204.5 555t204.5 555.5t539.5 210.5zM877 4q257 0 413 203.5t156 537.5q0 221 -70.5 389.5t-200 260.5t-298.5 92q-170 0 -300 -92
t-201 -260.5t-71 -389.5q0 -334 157 -537.5t415 -203.5z" />
    <glyph glyph-name="Otilde" unicode="&#xd5;" horiz-adv-x="1751" 
d="M1053 1599q-86 0 -209 84q-45 28 -65 39.5t-56.5 25t-67.5 13.5q-122 0 -174 -145l-4 2q12 102 74.5 177t144.5 75q80 0 203 -84q120 -78 195 -78q123 0 174 143l4 -2q-13 -101 -74.5 -175.5t-144.5 -74.5zM877 -20q-335 0 -539.5 210t-204.5 555t204.5 555.5
t539.5 210.5q333 0 537 -210.5t204 -555.5t-204 -555t-537 -210zM877 4q257 0 413 203.5t156 537.5q0 221 -70.5 389.5t-200 260.5t-298.5 92q-170 0 -300 -92t-201 -260.5t-71 -389.5q0 -334 157 -537.5t415 -203.5z" />
    <glyph glyph-name="Odieresis" unicode="&#xd6;" horiz-adv-x="1751" 
d="M672 1671q-43 0 -72 28.5t-29 69.5q0 43 29 72t72 29q42 0 70 -29t28 -72q0 -42 -28 -70t-70 -28zM1081 1671q-43 0 -71.5 28.5t-28.5 69.5q0 43 28.5 72t71.5 29t71 -29t28 -72q0 -41 -28 -69.5t-71 -28.5zM877 -20q-335 0 -539.5 210t-204.5 555t204.5 555.5
t539.5 210.5q333 0 537 -210.5t204 -555.5t-204 -555t-537 -210zM877 4q257 0 413 203.5t156 537.5q0 221 -70.5 389.5t-200 260.5t-298.5 92q-170 0 -300 -92t-201 -260.5t-71 -389.5q0 -334 157 -537.5t415 -203.5z" />
    <glyph glyph-name="multiply" unicode="&#xd7;" horiz-adv-x="970" 
d="M788 324l-16 -19l-283 285l-292 -293l-17 18l291 291l-283 283l17 18l284 -282l275 274l16 -18l-274 -275z" />
    <glyph glyph-name="Oslash" unicode="&#xd8;" horiz-adv-x="1769" 
d="M1391 1331q114 -102 174.5 -252t60.5 -334q0 -228 -92 -402t-260 -268.5t-389 -94.5q-286 0 -482 157l-159 -194l-21 16l160 197q-115 103 -177.5 253.5t-62.5 335.5q0 228 92 402t260.5 269t389.5 95q291 0 485 -161l156 186l20 -16zM313 745q0 -312 140 -514l850 1047
q-76 101 -182.5 155t-235.5 54q-257 0 -414.5 -204t-157.5 -538zM885 4q257 0 414 203.5t157 537.5q0 312 -137 510l-848 -1046q74 -99 180 -152t234 -53z" />
    <glyph glyph-name="Ugrave" unicode="&#xd9;" horiz-adv-x="1732" 
d="M670 1712q-26 10 -40 31t-14 45q0 34 23.5 58t58.5 24q22 0 39 -10q111 -51 318 -252l-2 -4q-315 76 -383 108zM1657 1491v-4q-138 -3 -184 -43.5t-46 -157.5v-801q0 -227 -142.5 -366t-375.5 -139q-281 0 -442.5 139t-161.5 377v790q0 117 -46.5 157.5t-184.5 43.5v4
h655v-4q-162 -3 -216 -50t-54 -184v-786q0 -209 124.5 -336t327.5 -127q221 0 356.5 132t135.5 349v760q0 142 -65 190.5t-261 51.5v4h580z" />
    <glyph glyph-name="Uacute" unicode="&#xda;" horiz-adv-x="1732" 
d="M1118 1712q-69 -32 -383 -108l-2 4q200 197 316 252q18 10 41 10q33 0 56 -24t23 -58q0 -54 -51 -76zM1657 1491v-4q-138 -3 -184 -43.5t-46 -157.5v-801q0 -227 -142.5 -366t-375.5 -139q-281 0 -442.5 139t-161.5 377v790q0 117 -46.5 157.5t-184.5 43.5v4h655v-4
q-162 -3 -216 -50t-54 -184v-786q0 -209 124.5 -336t327.5 -127q221 0 356.5 132t135.5 349v760q0 142 -65 190.5t-261 51.5v4h580z" />
    <glyph glyph-name="Ucircumflex" unicode="&#xdb;" horiz-adv-x="1732" 
d="M903 1739l-297 -135l-2 4l297 262h4l295 -262l-2 -4zM1657 1491v-4q-138 -3 -184 -43.5t-46 -157.5v-801q0 -227 -142.5 -366t-375.5 -139q-281 0 -442.5 139t-161.5 377v790q0 117 -46.5 157.5t-184.5 43.5v4h655v-4q-162 -3 -216 -50t-54 -184v-786q0 -209 124.5 -336
t327.5 -127q221 0 356.5 132t135.5 349v760q0 142 -65 190.5t-261 51.5v4h580z" />
    <glyph glyph-name="Udieresis" unicode="&#xdc;" horiz-adv-x="1732" 
d="M698 1671q-44 0 -72 28t-28 70q0 43 28 72t72 29q43 0 71 -29t28 -72q0 -41 -28.5 -69.5t-70.5 -28.5zM1108 1671q-44 0 -72 28t-28 70q0 43 28 72t72 29q42 0 70 -29t28 -72q0 -42 -28 -70t-70 -28zM1657 1491v-4q-138 -3 -184 -43.5t-46 -157.5v-801
q0 -227 -142.5 -366t-375.5 -139q-281 0 -442.5 139t-161.5 377v790q0 117 -46.5 157.5t-184.5 43.5v4h655v-4q-162 -3 -216 -50t-54 -184v-786q0 -209 124.5 -336t327.5 -127q221 0 356.5 132t135.5 349v760q0 142 -65 190.5t-261 51.5v4h580z" />
    <glyph glyph-name="Yacute" unicode="&#xdd;" horiz-adv-x="1556" 
d="M1038 1712q-68 -32 -383 -108l-2 4q207 201 318 252q15 10 39 10q35 0 58.5 -24t23.5 -58q0 -24 -14 -45t-40 -31zM930 1491h633v-4q-54 -5 -96 -20t-92.5 -51.5t-104.5 -105t-115 -173.5l-295 -504v-395q0 -137 53.5 -184t214.5 -50v-4h-688v4q161 3 214 50t53 184v395
l-388 629q-77 126 -133 171t-145 54v4h682v-4q-141 -10 -198.5 -38t-57.5 -85q0 -17 10 -43t21.5 -46.5t36.5 -62.5l321 -534l283 479q46 78 68 123t22 74q0 65 -67.5 95.5t-231.5 37.5v4z" />
    <glyph glyph-name="Thorn" unicode="&#xde;" horiz-adv-x="1513" 
d="M907 1194q223 0 359.5 -109.5t136.5 -289.5q0 -189 -151.5 -304.5t-399.5 -115.5h-367v-129q0 -141 54.5 -190t216.5 -52v-4h-656v4q138 3 185 43.5t47 157.5v1081q0 117 -47 157.5t-185 43.5v4h615v-4q-138 -3 -184 -43.5t-46 -157.5v-92h422zM831 395q180 0 290 110
t110 290q0 170 -99 274.5t-260 104.5h-387v-779h346z" />
    <glyph glyph-name="germandbls" unicode="&#xdf;" horiz-adv-x="1433" 
d="M1073 641q52 -37 81 -59t71.5 -61t65.5 -72.5t40 -80t17 -96.5q0 -133 -96.5 -212.5t-252.5 -79.5q-91 0 -171 47.5t-123 126.5l4 2q44 -52 117 -83.5t151 -31.5q103 0 165 53.5t62 143.5q0 25 -6.5 49t-13.5 41.5t-27 41.5t-29.5 35t-39 36t-38.5 32t-44 35
q-45 33 -72.5 55.5t-64 59.5t-57 71.5t-35.5 82t-15 100.5q0 63 35 117.5t102 125.5q45 50 68 79t45 77.5t22 95.5q0 103 -63 166.5t-166 63.5q-173 0 -280 -144t-107 -377v-880q0 -115 40.5 -154.5t162.5 -42.5v-4h-547v4q121 3 160.5 42t39.5 155v839v21h-202l4 20h198
q12 247 157 396t374 149q170 0 273.5 -65.5t103.5 -174.5q0 -29 -10.5 -56t-22 -44t-38.5 -39.5t-41.5 -32t-49.5 -32.5q-34 -24 -52 -37t-46 -39t-42 -48.5t-25 -56t-11 -71.5q0 -46 17.5 -86.5t54 -77t70 -63t87.5 -62.5z" />
    <glyph glyph-name="agrave" unicode="&#xe0;" horiz-adv-x="1218" 
d="M731 1239q-259 144 -336 217q-28 28 -28 68q0 32 24 55t55 23q35 0 62 -27q81 -81 227 -332zM1188 244l4 -2q-71 -262 -209 -262q-135 0 -141 126v84q-230 -210 -445 -210q-137 0 -216 60.5t-79 162.5q0 86 72 146.5t248 125.5l420 156v180q0 123 -60.5 188.5
t-175.5 65.5q-77 0 -157 -31t-136 -78v-292q-31 -17 -63 -17q-38 0 -62 27.5t-24 73.5q0 77 49.5 145.5t124.5 113t160.5 70t160.5 25.5q158 0 242 -83.5t84 -240.5v-643q0 -50 11.5 -68t43.5 -18q76 0 148 195zM457 33q88 0 179 46t206 136v391l-275 -100
q-164 -63 -235.5 -132t-71.5 -155q0 -84 54.5 -135t142.5 -51z" />
    <glyph glyph-name="aacute" unicode="&#xe1;" horiz-adv-x="1218" 
d="M793 1456q-71 -71 -334 -217l-4 4q149 256 225 332q27 27 61 27q32 0 56 -23t24 -55q0 -43 -28 -68zM1188 244l4 -2q-71 -262 -209 -262q-135 0 -141 126v84q-230 -210 -445 -210q-137 0 -216 60.5t-79 162.5q0 86 72 146.5t248 125.5l420 156v180q0 123 -60.5 188.5
t-175.5 65.5q-77 0 -157 -31t-136 -78v-292q-31 -17 -63 -17q-38 0 -62 27.5t-24 73.5q0 77 49.5 145.5t124.5 113t160.5 70t160.5 25.5q158 0 242 -83.5t84 -240.5v-643q0 -50 11.5 -68t43.5 -18q76 0 148 195zM457 33q88 0 179 46t206 136v391l-275 -100
q-164 -63 -235.5 -132t-71.5 -155q0 -84 54.5 -135t142.5 -51z" />
    <glyph glyph-name="acircumflex" unicode="&#xe2;" horiz-adv-x="1218" 
d="M616 1456l-297 -205l-4 4l299 347h4l300 -347l-5 -4zM1188 244l4 -2q-71 -262 -209 -262q-135 0 -141 126v84q-230 -210 -445 -210q-137 0 -216 60.5t-79 162.5q0 86 72 146.5t248 125.5l420 156v180q0 123 -60.5 188.5t-175.5 65.5q-77 0 -157 -31t-136 -78v-292
q-31 -17 -63 -17q-38 0 -62 27.5t-24 73.5q0 77 49.5 145.5t124.5 113t160.5 70t160.5 25.5q158 0 242 -83.5t84 -240.5v-643q0 -50 11.5 -68t43.5 -18q76 0 148 195zM457 33q88 0 179 46t206 136v391l-275 -100q-164 -63 -235.5 -132t-71.5 -155q0 -84 54.5 -135t142.5 -51
z" />
    <glyph glyph-name="atilde" unicode="&#xe3;" horiz-adv-x="1218" 
d="M416 1456q-110 0 -158 -145l-4 2q13 103 69.5 177.5t133.5 74.5q29 0 63.5 -13.5t57 -27.5t61.5 -41q54 -39 94.5 -59.5t81.5 -20.5q110 0 158 145l4 -2q-13 -103 -69.5 -177.5t-133.5 -74.5q-33 0 -68.5 13.5t-59 28.5t-60.5 42q-36 26 -58 40t-53 26t-59 12zM1188 244
l4 -2q-71 -262 -209 -262q-135 0 -141 126v84q-230 -210 -445 -210q-137 0 -216 60.5t-79 162.5q0 86 72 146.5t248 125.5l420 156v180q0 123 -60.5 188.5t-175.5 65.5q-77 0 -157 -31t-136 -78v-292q-31 -17 -63 -17q-38 0 -62 27.5t-24 73.5q0 77 49.5 145.5t124.5 113
t160.5 70t160.5 25.5q158 0 242 -83.5t84 -240.5v-643q0 -50 11.5 -68t43.5 -18q76 0 148 195zM457 33q88 0 179 46t206 136v391l-275 -100q-164 -63 -235.5 -132t-71.5 -155q0 -84 54.5 -135t142.5 -51z" />
    <glyph glyph-name="adieresis" unicode="&#xe4;" horiz-adv-x="1218" 
d="M412 1395q-43 0 -72 28t-29 70q0 43 29 71.5t72 28.5t71.5 -28.5t28.5 -71.5t-28.5 -70.5t-71.5 -27.5zM821 1395q-43 0 -71.5 27.5t-28.5 70.5t28.5 71.5t71.5 28.5t72 -28.5t29 -71.5q0 -42 -29 -70t-72 -28zM1188 244l4 -2q-71 -262 -209 -262q-135 0 -141 126v84
q-230 -210 -445 -210q-137 0 -216 60.5t-79 162.5q0 86 72 146.5t248 125.5l420 156v180q0 123 -60.5 188.5t-175.5 65.5q-77 0 -157 -31t-136 -78v-292q-31 -17 -63 -17q-38 0 -62 27.5t-24 73.5q0 77 49.5 145.5t124.5 113t160.5 70t160.5 25.5q158 0 242 -83.5t84 -240.5
v-643q0 -50 11.5 -68t43.5 -18q76 0 148 195zM457 33q88 0 179 46t206 136v391l-275 -100q-164 -63 -235.5 -132t-71.5 -155q0 -84 54.5 -135t142.5 -51z" />
    <glyph glyph-name="aring" unicode="&#xe5;" horiz-adv-x="1218" 
d="M616 1214q-94 0 -151 53.5t-57 141.5t57 140.5t151 52.5t151.5 -53t57.5 -140q0 -88 -57.5 -141.5t-151.5 -53.5zM616 1577q-81 0 -130.5 -46.5t-49.5 -121.5q0 -76 49.5 -123t130.5 -47t131 47.5t50 122.5t-49.5 121.5t-131.5 46.5zM1188 244l4 -2q-71 -262 -209 -262
q-135 0 -141 126v84q-230 -210 -445 -210q-137 0 -216 60.5t-79 162.5q0 86 72 146.5t248 125.5l420 156v180q0 123 -60.5 188.5t-175.5 65.5q-77 0 -157 -31t-136 -78v-292q-31 -17 -63 -17q-38 0 -62 27.5t-24 73.5q0 77 49.5 145.5t124.5 113t160.5 70t160.5 25.5
q158 0 242 -83.5t84 -240.5v-643q0 -50 11.5 -68t43.5 -18q76 0 148 195zM457 33q88 0 179 46t206 136v391l-275 -100q-164 -63 -235.5 -132t-71.5 -155q0 -84 54.5 -135t142.5 -51z" />
    <glyph glyph-name="ae" unicode="&#xe6;" horiz-adv-x="1931" 
d="M1825 272l4 -2q-62 -131 -191 -210.5t-280 -79.5q-155 0 -273 69t-182 195q-267 -264 -506 -264q-137 0 -216 60.5t-79 162.5q0 86 72 146.5t248 125.5l420 156v180q0 123 -60.5 188.5t-175.5 65.5q-77 0 -157 -31t-136 -78v-292q-31 -17 -63 -17q-38 0 -62 27.5
t-24 73.5q0 77 48.5 145.5t122 113t157 70t157.5 25.5q132 0 207.5 -67t89.5 -193q64 123 176 191.5t256 68.5q199 0 321 -118t122 -310h-832q-4 -58 -4 -90q0 -240 120 -386.5t318 -146.5q113 0 224.5 61t177.5 160zM1362 1077q-146 0 -244.5 -102t-124.5 -277h514
q83 0 116.5 25.5t33.5 85.5q0 120 -81.5 194t-213.5 74zM457 33q101 0 205 59.5t231 173.5q-51 114 -51 258v82l-275 -100q-164 -63 -235.5 -132t-71.5 -155q0 -84 54.5 -135t142.5 -51z" />
    <glyph glyph-name="ccedilla" unicode="&#xe7;" horiz-adv-x="1181" 
d="M618 -20l-34 -46q180 -106 180 -215q0 -69 -66 -108t-182 -41v4q64 4 101.5 35t37.5 78q0 43 -39.5 92t-107.5 90l82 111q-216 11 -346.5 161t-130.5 391q0 257 151 413.5t398 156.5q183 0 294 -100.5t111 -264.5q0 -56 -25.5 -90.5t-66.5 -34.5q-35 0 -57 15v350
q-51 53 -110.5 76.5t-152.5 23.5q-180 0 -289.5 -135t-109.5 -358q0 -240 118.5 -386.5t313.5 -146.5q109 0 217 60.5t170 160.5l4 -2q-60 -130 -187 -210t-274 -80z" />
    <glyph glyph-name="egrave" unicode="&#xe8;" horiz-adv-x="1204" 
d="M758 1239q-259 144 -336 217q-29 29 -29 68q0 32 24.5 55t55.5 23q35 0 62 -27q81 -81 227 -332zM1098 272l4 -2q-63 -131 -192 -210.5t-281 -79.5q-231 0 -372.5 149.5t-141.5 394.5q0 260 147 419t389 159q198 0 319.5 -118t121.5 -310h-830q-4 -58 -4 -90
q0 -240 120 -386.5t318 -146.5q111 0 223 61t179 160zM635 1077q-146 0 -244.5 -102t-124.5 -277h514q82 0 115 25t33 86q0 120 -80.5 194t-212.5 74z" />
    <glyph glyph-name="eacute" unicode="&#xe9;" horiz-adv-x="1204" 
d="M819 1456q-71 -71 -334 -217l-4 4q148 254 226 332q27 27 61 27q32 0 56 -23t24 -55q0 -42 -29 -68zM1098 272l4 -2q-63 -131 -192 -210.5t-281 -79.5q-231 0 -372.5 149.5t-141.5 394.5q0 260 147 419t389 159q198 0 319.5 -118t121.5 -310h-830q-4 -58 -4 -90
q0 -240 120 -386.5t318 -146.5q111 0 223 61t179 160zM635 1077q-146 0 -244.5 -102t-124.5 -277h514q82 0 115 25t33 86q0 120 -80.5 194t-212.5 74z" />
    <glyph glyph-name="ecircumflex" unicode="&#xea;" horiz-adv-x="1204" 
d="M643 1456l-297 -205l-4 4l299 347h4l299 -347l-4 -4zM1098 272l4 -2q-63 -131 -192 -210.5t-281 -79.5q-231 0 -372.5 149.5t-141.5 394.5q0 260 147 419t389 159q198 0 319.5 -118t121.5 -310h-830q-4 -58 -4 -90q0 -240 120 -386.5t318 -146.5q111 0 223 61t179 160z
M635 1077q-146 0 -244.5 -102t-124.5 -277h514q82 0 115 25t33 86q0 120 -80.5 194t-212.5 74z" />
    <glyph glyph-name="edieresis" unicode="&#xeb;" horiz-adv-x="1204" 
d="M438 1395q-43 0 -71.5 27.5t-28.5 70.5t28.5 71.5t71.5 28.5t72 -28.5t29 -71.5q0 -42 -29 -70t-72 -28zM848 1395q-43 0 -71.5 27.5t-28.5 70.5t28.5 71.5t71.5 28.5t71.5 -28.5t28.5 -71.5t-28.5 -70.5t-71.5 -27.5zM1098 272l4 -2q-63 -131 -192 -210.5t-281 -79.5
q-231 0 -372.5 149.5t-141.5 394.5q0 260 147 419t389 159q198 0 319.5 -118t121.5 -310h-830q-4 -58 -4 -90q0 -240 120 -386.5t318 -146.5q111 0 223 61t179 160zM635 1077q-146 0 -244.5 -102t-124.5 -277h514q82 0 115 25t33 86q0 120 -80.5 194t-212.5 74z" />
    <glyph glyph-name="igrave" unicode="&#xec;" horiz-adv-x="671" 
d="M131 1456q-29 26 -29 68q0 32 24.5 55t55.5 23q35 0 62 -27q76 -76 225 -332l-4 -4q-263 146 -334 217zM424 201q0 -116 40 -155t161 -42v-4h-547v4q122 3 162.5 42.5t40.5 154.5v581q0 101 -40.5 140.5t-162.5 58.5v4q200 55 342 109h4v-893z" />
    <glyph glyph-name="iacute" unicode="&#xed;" horiz-adv-x="671" 
d="M528 1456q-70 -70 -335 -217l-5 4q155 259 228 332q27 27 61 27q31 0 55.5 -23t24.5 -55q0 -39 -29 -68zM424 201q0 -116 40 -155t161 -42v-4h-547v4q122 3 162.5 42.5t40.5 154.5v581q0 101 -40.5 140.5t-162.5 58.5v4q200 55 342 109h4v-893z" />
    <glyph glyph-name="icircumflex" unicode="&#xee;" horiz-adv-x="671" 
d="M354 1602l299 -347l-4 -4l-297 205l-297 -205l-4 4l299 347h4zM424 201q0 -116 40 -155t161 -42v-4h-547v4q122 3 162.5 42.5t40.5 154.5v581q0 101 -40.5 140.5t-162.5 58.5v4q200 55 342 109h4v-893z" />
    <glyph glyph-name="idieresis" unicode="&#xef;" horiz-adv-x="671" 
d="M203 1397q-41 0 -69 27.5t-28 68.5q0 43 28 70.5t69 27.5t68.5 -27.5t27.5 -70.5q0 -41 -27.5 -68.5t-68.5 -27.5zM502 1397q-41 0 -68.5 27.5t-27.5 68.5q0 43 27.5 70.5t68.5 27.5t68.5 -27.5t27.5 -70.5q0 -41 -27.5 -68.5t-68.5 -27.5zM424 201q0 -116 40 -155
t161 -42v-4h-547v4q122 3 162.5 42.5t40.5 154.5v581q0 101 -40.5 140.5t-162.5 58.5v4q200 55 342 109h4v-893z" />
    <glyph glyph-name="eth" unicode="&#xf0;" horiz-adv-x="1302" 
d="M641 1458q255 -164 399 -391.5t144 -474.5q0 -275 -147.5 -443.5t-387.5 -168.5q-242 0 -389 154t-147 407q0 252 142.5 406.5t367.5 154.5q181 0 307 -113q-115 258 -342 447l-344 -152l-11 25l332 145q-129 101 -262 168l2 4q162 -60 309 -149l340 149l11 -24zM649 4
q167 0 271 149t104 388v2q0 229 -104.5 379.5t-270.5 150.5t-271.5 -147.5t-105.5 -384.5q0 -240 104 -388.5t273 -148.5z" />
    <glyph glyph-name="ntilde" unicode="&#xf1;" horiz-adv-x="1433" 
d="M532 1456q-110 0 -155 -145l-4 2q11 102 67 177t133 75q31 0 66 -13.5t57.5 -27.5t61.5 -41q107 -80 176 -80q111 0 156 145l4 -2q-11 -103 -67.5 -177.5t-135.5 -74.5q-46 0 -90 22t-99 62q-105 78 -170 78zM1198 201q0 -116 40 -155t161 -42v-4h-543v4q120 3 159.5 42
t39.5 155v592q0 125 -60.5 190.5t-175.5 65.5q-90 0 -183 -46t-212 -137v-665q0 -116 39.5 -155t159.5 -42v-4h-545v4q122 3 162.5 42.5t40.5 154.5v581q0 101 -40.5 140.5t-162.5 58.5v4q200 51 342 109h4v-203q249 211 459 211q153 0 234 -83.5t81 -240.5v-577z" />
    <glyph glyph-name="ograve" unicode="&#xf2;" horiz-adv-x="1335" 
d="M780 1239q-263 146 -334 217q-28 25 -28 68q0 32 24 55t56 23q34 0 61 -27q76 -76 225 -332zM668 -20q-251 0 -403 154t-152 407t152 407t403 154q249 0 401 -154t152 -407t-152 -407t-401 -154zM668 4q177 0 285 147.5t108 389.5q0 241 -108 388.5t-285 147.5
q-178 0 -287 -147t-109 -389t109 -389.5t287 -147.5z" />
    <glyph glyph-name="oacute" unicode="&#xf3;" horiz-adv-x="1335" 
d="M508 1239l-4 4q146 251 227 332q27 27 62 27q31 0 55 -23t24 -55q0 -40 -28 -68q-69 -69 -336 -217zM668 -20q-251 0 -403 154t-152 407t152 407t403 154q249 0 401 -154t152 -407t-152 -407t-401 -154zM668 4q177 0 285 147.5t108 389.5q0 241 -108 388.5t-285 147.5
q-178 0 -287 -147t-109 -389t109 -389.5t287 -147.5z" />
    <glyph glyph-name="ocircumflex" unicode="&#xf4;" horiz-adv-x="1335" 
d="M668 1456l-297 -205l-4 4l299 347h4l299 -347l-4 -4zM668 1102q249 0 401 -154t152 -407t-152 -407t-401 -154q-251 0 -403 154t-152 407t152 407t403 154zM668 4q177 0 285 147.5t108 389.5q0 241 -108 388.5t-285 147.5q-178 0 -287 -147t-109 -389t109 -389.5
t287 -147.5z" />
    <glyph glyph-name="otilde" unicode="&#xf5;" horiz-adv-x="1335" 
d="M825 1294q-33 0 -68.5 13.5t-59 28.5t-60.5 42q-108 78 -170 78q-110 0 -158 -145l-4 2q11 102 68.5 177t134.5 75q29 0 63.5 -13.5t57 -27.5t61.5 -41q107 -80 176 -80q111 0 156 145l4 -2q-11 -102 -67.5 -177t-133.5 -75zM668 -20q-251 0 -403 154t-152 407t152 407
t403 154q249 0 401 -154t152 -407t-152 -407t-401 -154zM668 4q177 0 285 147.5t108 389.5q0 241 -108 388.5t-285 147.5q-178 0 -287 -147t-109 -389t109 -389.5t287 -147.5z" />
    <glyph glyph-name="odieresis" unicode="&#xf6;" horiz-adv-x="1335" 
d="M463 1395q-43 0 -72 28t-29 70q0 43 29 71.5t72 28.5t71.5 -28.5t28.5 -71.5t-28.5 -70.5t-71.5 -27.5zM872 1395q-43 0 -71.5 27.5t-28.5 70.5t28.5 71.5t71.5 28.5t72 -28.5t29 -71.5q0 -42 -29 -70t-72 -28zM668 -20q-251 0 -403 154t-152 407t152 407t403 154
q249 0 401 -154t152 -407t-152 -407t-401 -154zM668 4q177 0 285 147.5t108 389.5q0 241 -108 388.5t-285 147.5q-178 0 -287 -147t-109 -389t109 -389.5t287 -147.5z" />
    <glyph glyph-name="divide" unicode="&#xf7;" horiz-adv-x="970" 
d="M485 762q-43 0 -70.5 27.5t-27.5 70.5t27.5 70.5t70.5 27.5t71 -27.5t28 -70.5t-28 -70.5t-71 -27.5zM109 590v20h753v-20h-753zM485 244q-43 0 -70.5 27.5t-27.5 70.5t27.5 70.5t70.5 27.5t71 -27.5t28 -70.5t-28 -70.5t-71 -27.5z" />
    <glyph glyph-name="oslash" unicode="&#xf8;" horiz-adv-x="1349" 
d="M1051 967q172 -155 172 -426q0 -253 -152 -407t-401 -154q-208 0 -346 104l-115 -139l-21 16l115 139q-90 74 -139 187.5t-49 253.5q0 253 152 407t403 154q215 0 360 -117l129 156l21 -17zM670 1077q-177 0 -286.5 -147.5t-109.5 -388.5q0 -221 95 -369l598 741
q-110 164 -297 164zM670 4q177 0 286 148t109 389q0 203 -82 348l-598 -739q111 -146 285 -146z" />
    <glyph glyph-name="ugrave" unicode="&#xf9;" horiz-adv-x="1392" 
d="M463 1456q-31 28 -31 68q0 32 24.5 55t55.5 23q33 0 63 -27q78 -78 226 -332l-4 -4q-263 146 -334 217zM1143 252q0 -113 41 -151.5t162 -41.5v-4q-174 -27 -342 -75h-5v208q-235 -208 -448 -208q-149 0 -227 77t-78 224v501q0 101 -40 140.5t-161 58.5v4q193 53 340 109
h4v-822q0 -117 57.5 -178t167.5 -61q88 0 179.5 45.5t205.5 134.5v569q0 102 -39.5 141t-160.5 58v4q202 56 340 109h4v-842z" />
    <glyph glyph-name="uacute" unicode="&#xfa;" horiz-adv-x="1392" 
d="M860 1456q-77 -73 -336 -217l-4 4q149 256 225 332q30 27 64 27q31 0 55.5 -23t24.5 -55q0 -39 -29 -68zM1143 252q0 -113 41 -151.5t162 -41.5v-4q-174 -27 -342 -75h-5v208q-235 -208 -448 -208q-149 0 -227 77t-78 224v501q0 101 -40 140.5t-161 58.5v4
q193 53 340 109h4v-822q0 -117 57.5 -178t167.5 -61q88 0 179.5 45.5t205.5 134.5v569q0 102 -39.5 141t-160.5 58v4q202 56 340 109h4v-842z" />
    <glyph glyph-name="ucircumflex" unicode="&#xfb;" horiz-adv-x="1392" 
d="M684 1456l-299 -205l-4 4l299 347h4l301 -347l-4 -4zM1143 252q0 -113 41 -151.5t162 -41.5v-4q-174 -27 -342 -75h-5v208q-235 -208 -448 -208q-149 0 -227 77t-78 224v501q0 101 -40 140.5t-161 58.5v4q193 53 340 109h4v-822q0 -117 57.5 -178t167.5 -61
q88 0 179.5 45.5t205.5 134.5v569q0 102 -39.5 141t-160.5 58v4q202 56 340 109h4v-842z" />
    <glyph glyph-name="udieresis" unicode="&#xfc;" horiz-adv-x="1392" 
d="M477 1395q-43 0 -70.5 27.5t-27.5 70.5t27.5 71.5t70.5 28.5q44 0 72.5 -28.5t28.5 -71.5t-28.5 -70.5t-72.5 -27.5zM887 1395q-43 0 -71 27.5t-28 70.5t28 71.5t71 28.5q44 0 72 -28.5t28 -71.5t-28 -70.5t-72 -27.5zM1143 252q0 -113 41 -151.5t162 -41.5v-4
q-174 -27 -342 -75h-5v208q-235 -208 -448 -208q-149 0 -227 77t-78 224v501q0 101 -40 140.5t-161 58.5v4q193 53 340 109h4v-822q0 -117 57.5 -178t167.5 -61q88 0 179.5 45.5t205.5 134.5v569q0 102 -39.5 141t-160.5 58v4q202 56 340 109h4v-842z" />
    <glyph glyph-name="yacute" unicode="&#xfd;" horiz-adv-x="1284" 
d="M854 1456q-71 -71 -334 -217l-4 4q149 256 225 332q30 27 64 27q31 0 55.5 -23t24.5 -55q0 -40 -31 -68zM809 1081h465v-4q-78 -10 -124.5 -69t-127.5 -236l-465 -1022q-79 -180 -283 -180q-53 0 -86.5 24t-33.5 60q0 25 10 45h338q27 39 41 70l88 196l-418 920
q-48 109 -86 147.5t-115 44.5v4h523v-4q-97 -9 -137 -35t-40 -86q0 -32 31 -102l320 -715l268 600q59 124 59 189q0 76 -53.5 109.5t-173.5 39.5v4z" />
    <glyph glyph-name="thorn" unicode="&#xfe;" horiz-adv-x="1308" 
d="M719 1102q214 0 344.5 -143.5t130.5 -376.5q0 -272 -145.5 -437t-384.5 -165q-89 0 -176.5 22.5t-149.5 60.5v-231q0 -138 49 -186.5t195 -51.5v-4h-588v4q121 1 161 41t40 156v1493q0 117 -40 158t-161 45v4q207 69 340 127h4v-735q70 99 174.5 159t206.5 60zM645 8
q175 0 282 149.5t107 395.5q0 222 -101.5 359t-264.5 137q-86 0 -175 -54t-155 -145v-662q44 -86 127.5 -133t179.5 -47z" />
    <glyph glyph-name="ydieresis" unicode="&#xff;" horiz-adv-x="1284" 
d="M473 1395q-43 0 -70.5 27.5t-27.5 70.5t27.5 71.5t70.5 28.5t71.5 -28.5t28.5 -71.5t-28.5 -70.5t-71.5 -27.5zM883 1395q-43 0 -71 27.5t-28 70.5t28 71.5t71 28.5t71.5 -28.5t28.5 -71.5t-28.5 -70.5t-71.5 -27.5zM809 1081h465v-4q-78 -10 -124.5 -69t-127.5 -236
l-465 -1022q-79 -180 -283 -180q-53 0 -86.5 24t-33.5 60q0 25 10 45h338q27 39 41 70l88 196l-418 920q-48 109 -86 147.5t-115 44.5v4h523v-4q-97 -9 -137 -35t-40 -86q0 -32 31 -102l320 -715l268 600q59 124 59 189q0 76 -53.5 109.5t-173.5 39.5v4z" />
    <glyph glyph-name="Amacron" unicode="&#x100;" horiz-adv-x="1667" 
d="M1159 1716l-4 -20h-661l4 20h661zM1432 197q49 -115 91 -151t146 -42v-4h-639v4q137 12 189.5 38.5t52.5 88.5q0 30 -27 96l-137 328h-688l-90 -217q-54 -134 -54 -184q0 -78 61 -110t208 -40v-4h-541v4q56 5 93 20.5t70 53t59.5 89t64.5 142.5l444 1061l-26 62
q68 29 131 79h34zM428 575h672l-336 805z" />
    <glyph glyph-name="amacron" unicode="&#x101;" horiz-adv-x="1218" 
d="M948 1481l-4 -21h-659l4 21h659zM1188 244l4 -2q-71 -262 -209 -262q-135 0 -141 126v84q-230 -210 -445 -210q-137 0 -216 60.5t-79 162.5q0 86 72 146.5t248 125.5l420 156v180q0 123 -60.5 188.5t-175.5 65.5q-77 0 -157 -31t-136 -78v-292q-31 -17 -63 -17
q-38 0 -62 27.5t-24 73.5q0 77 49.5 145.5t124.5 113t160.5 70t160.5 25.5q158 0 242 -83.5t84 -240.5v-643q0 -50 11.5 -68t43.5 -18q76 0 148 195zM457 33q88 0 179 46t206 136v391l-275 -100q-164 -63 -235.5 -132t-71.5 -155q0 -84 54.5 -135t142.5 -51z" />
    <glyph glyph-name="Abreve" unicode="&#x102;" horiz-adv-x="1667" 
d="M827 1604q-93 0 -179.5 69.5t-129.5 188.5l4 2q60 -66 140 -104t165 -38t164 38t139 104l5 -2q-43 -119 -129 -188.5t-179 -69.5zM1432 197q49 -115 91 -151t146 -42v-4h-639v4q137 12 189.5 38.5t52.5 88.5q0 30 -27 96l-137 328h-688l-90 -217q-54 -134 -54 -184
q0 -78 61 -110t208 -40v-4h-541v4q56 5 93 20.5t70 53t59.5 89t64.5 142.5l444 1061l-26 62q68 29 131 79h34zM428 575h672l-336 805z" />
    <glyph glyph-name="abreve" unicode="&#x103;" horiz-adv-x="1218" 
d="M616 1251q-99 0 -184 93.5t-129 250.5l4 2q51 -103 135 -165t174 -62t174.5 62t135.5 165l4 -2q-44 -157 -129 -250.5t-185 -93.5zM1188 244l4 -2q-71 -262 -209 -262q-135 0 -141 126v84q-230 -210 -445 -210q-137 0 -216 60.5t-79 162.5q0 86 72 146.5t248 125.5
l420 156v180q0 123 -60.5 188.5t-175.5 65.5q-77 0 -157 -31t-136 -78v-292q-31 -17 -63 -17q-38 0 -62 27.5t-24 73.5q0 77 49.5 145.5t124.5 113t160.5 70t160.5 25.5q158 0 242 -83.5t84 -240.5v-643q0 -50 11.5 -68t43.5 -18q76 0 148 195zM457 33q88 0 179 46t206 136
v391l-275 -100q-164 -63 -235.5 -132t-71.5 -155q0 -84 54.5 -135t142.5 -51z" />
    <glyph glyph-name="Aogonek" unicode="&#x104;" horiz-adv-x="1667" 
d="M1602 0q-117 -63 -189 -142.5t-72 -146.5q0 -41 31 -66.5t82 -25.5q90 0 164 55l2 -4q-101 -90 -225 -90q-77 0 -125.5 34t-48.5 91q0 79 100.5 158t269.5 137h-561v4q137 12 189.5 38.5t52.5 88.5q0 30 -27 96l-137 328h-688l-90 -217q-54 -134 -54 -184q0 -78 61 -110
t208 -40v-4h-541v4q56 5 93 20.5t70 53t59.5 89t64.5 142.5l444 1061l-26 62q68 29 131 79h34l558 -1314q49 -115 91 -151t146 -42v-4h-67zM428 575h672l-336 805z" />
    <glyph glyph-name="aogonek" unicode="&#x105;" horiz-adv-x="1218" 
d="M1028 -381q86 0 152 55l2 -4q-90 -90 -213 -90q-68 0 -111 34.5t-43 90.5q0 65 61 140.5t166 148.5q-25 -14 -59 -14q-135 0 -141 126v84q-230 -210 -445 -210q-137 0 -216 60.5t-79 162.5q0 86 72 146.5t248 125.5l420 156v180q0 123 -60.5 188.5t-175.5 65.5
q-77 0 -157 -31t-136 -78v-292q-31 -17 -63 -17q-38 0 -62 27.5t-24 73.5q0 77 49.5 145.5t124.5 113t160.5 70t160.5 25.5q158 0 242 -83.5t84 -240.5v-643q0 -50 11.5 -68t43.5 -18q76 0 148 195l4 -2q-40 -150 -107 -217q-149 -222 -149 -318q0 -39 25.5 -63.5
t66.5 -24.5zM457 33q88 0 179 46t206 136v391l-275 -100q-164 -63 -235.5 -132t-71.5 -155q0 -84 54.5 -135t142.5 -51z" />
    <glyph glyph-name="Cacute" unicode="&#x106;" horiz-adv-x="1544" 
d="M672 1604l-2 4q208 202 317 252q17 10 39 10q35 0 58.5 -24t23.5 -58q0 -24 -14 -45t-39 -31q-68 -32 -383 -108zM815 -20q-202 0 -356.5 94t-239 265.5t-84.5 395.5q0 230 88.5 406.5t249.5 273t371 96.5q67 0 137 -17.5t122.5 -34.5t76.5 -17q30 0 48 12t38 47h4
l131 -522l-4 -2q-87 255 -229 382.5t-330 127.5q-248 0 -398.5 -186.5t-150.5 -493.5q0 -215 74.5 -380t211 -256t314.5 -91q159 0 310.5 81t234.5 212l4 -2q-76 -173 -247.5 -282t-375.5 -109z" />
    <glyph glyph-name="cacute" unicode="&#x107;" horiz-adv-x="1181" 
d="M827 1456q-73 -73 -333 -217l-5 4q148 254 226 332q27 27 63 27q31 0 55.5 -23t24.5 -55q0 -40 -31 -68zM1075 272l4 -2q-60 -130 -187 -210t-274 -80q-227 0 -366 151.5t-139 400.5q0 257 151 413.5t398 156.5q183 0 294 -100.5t111 -264.5q0 -56 -25.5 -90.5
t-66.5 -34.5q-35 0 -57 15v350q-51 53 -110.5 76.5t-152.5 23.5q-180 0 -289.5 -135t-109.5 -358q0 -240 118.5 -386.5t313.5 -146.5q109 0 217 60.5t170 160.5z" />
    <glyph glyph-name="Cdotaccent" unicode="&#x10a;" horiz-adv-x="1544" 
d="M840 1665q-47 0 -79 31.5t-32 77.5q0 47 31.5 77.5t79.5 30.5q47 0 78.5 -30.5t31.5 -77.5q0 -46 -31.5 -77.5t-78.5 -31.5zM815 -20q-202 0 -356.5 94t-239 265.5t-84.5 395.5q0 230 88.5 406.5t249.5 273t371 96.5q67 0 137 -17.5t122.5 -34.5t76.5 -17q30 0 48 12
t38 47h4l131 -522l-4 -2q-87 255 -229 382.5t-330 127.5q-248 0 -398.5 -186.5t-150.5 -493.5q0 -215 74.5 -380t211 -256t314.5 -91q159 0 310.5 81t234.5 212l4 -2q-76 -173 -247.5 -282t-375.5 -109z" />
    <glyph glyph-name="cdotaccent" unicode="&#x10b;" horiz-adv-x="1181" 
d="M651 1384q-47 0 -78.5 31.5t-31.5 77.5q0 47 31.5 78t78.5 31t79 -31t32 -78q0 -46 -32 -77.5t-79 -31.5zM1075 272l4 -2q-60 -130 -187 -210t-274 -80q-227 0 -366 151.5t-139 400.5q0 257 151 413.5t398 156.5q183 0 294 -100.5t111 -264.5q0 -56 -25.5 -90.5
t-66.5 -34.5q-35 0 -57 15v350q-51 53 -110.5 76.5t-152.5 23.5q-180 0 -289.5 -135t-109.5 -358q0 -240 118.5 -386.5t313.5 -146.5q109 0 217 60.5t170 160.5z" />
    <glyph glyph-name="Ccaron" unicode="&#x10c;" horiz-adv-x="1544" 
d="M842 1604h-4l-295 262l2 4l295 -137l297 137l2 -4zM1434 373l4 -2q-76 -173 -247.5 -282t-375.5 -109q-202 0 -356.5 94t-239 265.5t-84.5 395.5q0 230 88.5 406.5t249.5 273t371 96.5q67 0 137 -17.5t122.5 -34.5t76.5 -17q30 0 48 12t38 47h4l131 -522l-4 -2
q-87 255 -229 382.5t-330 127.5q-248 0 -398.5 -186.5t-150.5 -493.5q0 -215 74.5 -380t211 -256t314.5 -91q159 0 310.5 81t234.5 212z" />
    <glyph glyph-name="ccaron" unicode="&#x10d;" horiz-adv-x="1181" 
d="M653 1249h-4l-299 348l4 5l297 -207l297 207l4 -5zM1075 272l4 -2q-60 -130 -187 -210t-274 -80q-227 0 -366 151.5t-139 400.5q0 257 151 413.5t398 156.5q183 0 294 -100.5t111 -264.5q0 -56 -25.5 -90.5t-66.5 -34.5q-35 0 -57 15v350q-51 53 -110.5 76.5t-152.5 23.5
q-180 0 -289.5 -135t-109.5 -358q0 -240 118.5 -386.5t313.5 -146.5q109 0 217 60.5t170 160.5z" />
    <glyph glyph-name="Dcaron" unicode="&#x10e;" horiz-adv-x="1783" 
d="M803 1604h-4l-295 262l2 4l295 -137l295 137l2 -4zM838 1491q242 0 426.5 -92.5t285.5 -262t101 -391.5t-101 -391.5t-285.5 -261.5t-426.5 -92h-738v4q138 3 185 43.5t47 157.5v1081q0 117 -47 157.5t-185 43.5v4h738zM805 20q201 0 354.5 90t237.5 254.5t84 380.5
q0 327 -184 526t-488 199h-324v-1273q0 -106 23 -141.5t92 -35.5h205z" />
    <glyph glyph-name="dcaron" unicode="&#x10f;" horiz-adv-x="1380" 
d="M1298 1626q58 0 93.5 -46.5t35.5 -121.5q0 -91 -48.5 -173t-127.5 -126l-2 2q38 38 61 88.5t23 100.5q0 54 -30 90.5t-80 42.5q-19 27 -19 51q0 40 26.5 66t67.5 26zM1114 252q0 -113 40 -151.5t161 -41.5v-4q-174 -28 -340 -75h-4v219q-70 -99 -175 -159t-208 -60
q-214 0 -344.5 143.5t-130.5 376.5q0 271 146 436.5t384 165.5q90 0 178 -22.5t150 -61.5v266q0 117 -40.5 157.5t-162.5 45.5v4q203 68 342 127h4v-1366zM641 33q85 0 174.5 53.5t155.5 144.5v658q-43 88 -126.5 136t-180.5 48q-175 0 -283.5 -150t-108.5 -395
q0 -223 102 -359t267 -136z" />
    <glyph glyph-name="Dcroat" unicode="&#x110;" horiz-adv-x="1789" 
d="M846 1491q241 0 426 -92.5t286 -262t101 -391.5q0 -166 -59 -305.5t-164.5 -236t-257 -150t-332.5 -53.5h-737v4q138 3 183.5 43.5t45.5 157.5v553h-229l4 20h225v508q0 117 -45.5 157.5t-183.5 43.5v4h737zM813 20q304 0 489 199t185 526q0 328 -183 526.5t-487 198.5
h-325v-692h460l-4 -20h-456v-561q0 -106 23 -141.5t93 -35.5h205z" />
    <glyph glyph-name="dcroat" unicode="&#x111;" horiz-adv-x="1359" 
d="M1114 252q0 -113 40 -151.5t161 -41.5v-4q-174 -28 -340 -75h-4v219q-70 -99 -175 -159t-208 -60q-214 0 -344.5 143.5t-130.5 376.5q0 271 146 436.5t384 165.5q90 0 178 -22.5t150 -61.5v231h-359l4 21h355v14q0 117 -40.5 157.5t-162.5 45.5v4q203 68 342 127h4v-348
h201l-4 -21h-197v-997zM641 33q85 0 174.5 53.5t155.5 144.5v658q-43 88 -126.5 136t-180.5 48q-175 0 -283.5 -150t-108.5 -395q0 -223 102 -359t267 -136z" />
    <glyph glyph-name="Emacron" unicode="&#x112;" horiz-adv-x="1632" 
d="M1114 1716l-4 -20h-661l4 20h661zM1536 524l4 -2l-186 -532q-120 10 -371 10h-883v4q138 3 185 43.5t47 157.5v1081q0 117 -47 157.5t-185 43.5v4h828q244 0 362 10l166 -512l-4 -2q-52 150 -100.5 239.5t-119 146.5t-158 77t-222.5 20h-367v-692h234q141 0 195.5 67.5
t80.5 272.5h4q-6 -218 -6 -360q0 -144 6 -361h-4q-14 112 -31.5 179t-49.5 109.5t-77 57.5t-118 15h-234v-561q0 -106 30 -141.5t122 -35.5h293q131 0 217 21t157 80.5t123 153t109 249.5z" />
    <glyph glyph-name="emacron" unicode="&#x113;" horiz-adv-x="1204" 
d="M975 1481l-4 -21h-660l4 21h660zM1098 272l4 -2q-63 -131 -192 -210.5t-281 -79.5q-231 0 -372.5 149.5t-141.5 394.5q0 260 147 419t389 159q198 0 319.5 -118t121.5 -310h-830q-4 -58 -4 -90q0 -240 120 -386.5t318 -146.5q111 0 223 61t179 160zM635 1077
q-146 0 -244.5 -102t-124.5 -277h514q82 0 115 25t33 86q0 120 -80.5 194t-212.5 74z" />
    <glyph glyph-name="Edotaccent" unicode="&#x116;" horiz-adv-x="1632" 
d="M782 1665q-47 0 -78.5 31.5t-31.5 77.5q0 47 31.5 77.5t78.5 30.5q48 0 79.5 -30.5t31.5 -77.5q0 -46 -32 -77.5t-79 -31.5zM1536 524l4 -2l-186 -532q-120 10 -371 10h-883v4q138 3 185 43.5t47 157.5v1081q0 117 -47 157.5t-185 43.5v4h828q244 0 362 10l166 -512
l-4 -2q-52 150 -100.5 239.5t-119 146.5t-158 77t-222.5 20h-367v-692h234q141 0 195.5 67.5t80.5 272.5h4q-6 -218 -6 -360q0 -144 6 -361h-4q-14 112 -31.5 179t-49.5 109.5t-77 57.5t-118 15h-234v-561q0 -106 30 -141.5t122 -35.5h293q131 0 217 21t157 80.5t123 153
t109 249.5z" />
    <glyph glyph-name="edotaccent" unicode="&#x117;" horiz-adv-x="1204" 
d="M643 1384q-47 0 -79 31.5t-32 77.5q0 47 32 78t79 31t79 -31t32 -78q0 -46 -32 -77.5t-79 -31.5zM1098 272l4 -2q-63 -131 -192 -210.5t-281 -79.5q-231 0 -372.5 149.5t-141.5 394.5q0 260 147 419t389 159q198 0 319.5 -118t121.5 -310h-830q-4 -58 -4 -90
q0 -240 120 -386.5t318 -146.5q111 0 223 61t179 160zM635 1077q-146 0 -244.5 -102t-124.5 -277h514q82 0 115 25t33 86q0 120 -80.5 194t-212.5 74z" />
    <glyph glyph-name="Eogonek" unicode="&#x118;" horiz-adv-x="1632" 
d="M1212 -2q-116 -63 -186 -141.5t-70 -145.5q0 -41 31 -66.5t82 -25.5q44 0 89.5 16t74.5 39l2 -4q-97 -90 -223 -90q-79 0 -127.5 34t-48.5 91q0 77 99 156t265 137q-53 2 -217 2h-883v4q138 3 185 43.5t47 157.5v1081q0 117 -47 157.5t-185 43.5v4h828q244 0 362 10
l166 -512l-4 -2q-52 150 -100.5 239.5t-119 146.5t-158 77t-222.5 20h-367v-692h234q141 0 195.5 67.5t80.5 272.5h4q-6 -218 -6 -360q0 -144 6 -361h-4q-14 112 -31.5 179t-49.5 109.5t-77 57.5t-118 15h-234v-561q0 -106 30 -141.5t122 -35.5h293q131 0 217 21t157 80.5
t123 153t109 249.5l4 -2l-186 -532q-56 5 -142 8z" />
    <glyph glyph-name="eogonek" unicode="&#x119;" horiz-adv-x="1204" 
d="M942 82q-280 -240 -280 -371q0 -41 30.5 -66.5t81.5 -25.5q45 0 90.5 15.5t73.5 39.5l2 -4q-97 -90 -223 -90q-79 0 -127.5 34t-48.5 91q0 134 297 318q-98 -43 -209 -43q-231 0 -372.5 149.5t-141.5 394.5q0 260 147 419t389 159q198 0 319.5 -118t121.5 -310h-830
q-4 -58 -4 -90q0 -240 120 -386.5t318 -146.5q111 0 223 61t179 160l4 -2q-55 -112 -160 -188zM635 1077q-146 0 -244.5 -102t-124.5 -277h514q82 0 115 25t33 86q0 120 -80.5 194t-212.5 74z" />
    <glyph glyph-name="Ecaron" unicode="&#x11a;" horiz-adv-x="1632" 
d="M784 1604h-4l-295 262l2 4l295 -137l295 137l2 -4zM1536 524l4 -2l-186 -532q-120 10 -371 10h-883v4q138 3 185 43.5t47 157.5v1081q0 117 -47 157.5t-185 43.5v4h828q244 0 362 10l166 -512l-4 -2q-52 150 -100.5 239.5t-119 146.5t-158 77t-222.5 20h-367v-692h234
q141 0 195.5 67.5t80.5 272.5h4q-6 -218 -6 -360q0 -144 6 -361h-4q-14 112 -31.5 179t-49.5 109.5t-77 57.5t-118 15h-234v-561q0 -106 30 -141.5t122 -35.5h293q131 0 217 21t157 80.5t123 153t109 249.5z" />
    <glyph glyph-name="ecaron" unicode="&#x11b;" horiz-adv-x="1204" 
d="M645 1249h-4l-299 348l4 5l297 -207l297 207l4 -5zM1098 272l4 -2q-63 -131 -192 -210.5t-281 -79.5q-231 0 -372.5 149.5t-141.5 394.5q0 260 147 419t389 159q198 0 319.5 -118t121.5 -310h-830q-4 -58 -4 -90q0 -240 120 -386.5t318 -146.5q111 0 223 61t179 160z
M635 1077q-146 0 -244.5 -102t-124.5 -277h514q82 0 115 25t33 86q0 120 -80.5 194t-212.5 74z" />
    <glyph glyph-name="Gbreve" unicode="&#x11e;" horiz-adv-x="1714" 
d="M889 1604q-94 0 -180 69t-129 189l4 2q60 -66 140 -104t165 -38t164 38t139 104l4 -2q-43 -119 -129 -188.5t-178 -69.5zM1659 668v-4q-126 -3 -168.5 -42.5t-42.5 -154.5v-356q-63 -8 -172 -48q-232 -83 -395 -83q-337 0 -542.5 210t-205.5 555q0 227 93.5 401
t265.5 269.5t397 95.5q65 0 126.5 -11.5t99.5 -26t81 -26t76 -11.5t53.5 13t46.5 52h4l56 -522h-5q-43 235 -187.5 371.5t-350.5 136.5q-263 0 -423.5 -204t-160.5 -538t158 -537.5t418 -203.5q109 0 219.5 44t193.5 118v256q0 97 -25.5 146.5t-89 71.5t-188.5 24v4h668z
" />
    <glyph glyph-name="gbreve" unicode="&#x11f;" horiz-adv-x="1255" 
d="M608 1251q-100 0 -185 93.5t-128 250.5l4 2q51 -104 134.5 -165.5t174.5 -61.5q90 0 173 61.5t134 165.5l5 -2q-43 -157 -127.5 -250.5t-184.5 -93.5zM895 150q160 -16 233.5 -85.5t73.5 -166.5q0 -147 -157 -237.5t-467 -90.5q-270 0 -398.5 70.5t-128.5 191.5
q0 122 211 258q-94 50 -94 150q0 85 127 241q-127 100 -127 264q0 161 121 259t319 98q51 0 123 -10q83 -11 148 -11q161 0 284 21h4l-8 -41h-344q111 -43 171.5 -125.5t60.5 -190.5q0 -161 -121 -258.5t-318 -97.5q-178 0 -297 80q-40 -59 -56.5 -95t-16.5 -67
q0 -16 3.5 -29t17.5 -28t37.5 -26t66.5 -21t102 -15zM608 1077q-126 0 -203 -91.5t-77 -240.5t77.5 -240t202.5 -91t202 91t77 240t-77.5 240.5t-201.5 91.5zM588 -406q264 0 397 72.5t133 188.5q0 55 -56.5 94.5t-178.5 50.5l-410 37q-113 11 -188 41q-105 -99 -105 -238
q0 -118 110.5 -182t297.5 -64z" />
    <glyph glyph-name="Gdotaccent" unicode="&#x120;" horiz-adv-x="1714" 
d="M889 1665q-47 0 -79 31.5t-32 77.5q0 47 31.5 77.5t79.5 30.5q47 0 78.5 -30.5t31.5 -77.5q0 -46 -31.5 -77.5t-78.5 -31.5zM1659 668v-4q-126 -3 -168.5 -42.5t-42.5 -154.5v-356q-63 -8 -172 -48q-232 -83 -395 -83q-337 0 -542.5 210t-205.5 555q0 227 93.5 401
t265.5 269.5t397 95.5q65 0 126.5 -11.5t99.5 -26t81 -26t76 -11.5t53.5 13t46.5 52h4l56 -522h-5q-43 235 -187.5 371.5t-350.5 136.5q-263 0 -423.5 -204t-160.5 -538t158 -537.5t418 -203.5q109 0 219.5 44t193.5 118v256q0 97 -25.5 146.5t-89 71.5t-188.5 24v4h668z
" />
    <glyph glyph-name="gdotaccent" unicode="&#x121;" horiz-adv-x="1255" 
d="M608 1384q-47 0 -78.5 31.5t-31.5 77.5q0 47 31.5 78t78.5 31t79 -31t32 -78q0 -46 -32 -77.5t-79 -31.5zM895 150q160 -16 233.5 -85.5t73.5 -166.5q0 -147 -157 -237.5t-467 -90.5q-270 0 -398.5 70.5t-128.5 191.5q0 122 211 258q-94 50 -94 150q0 85 127 241
q-127 100 -127 264q0 161 121 259t319 98q51 0 123 -10q83 -11 148 -11q161 0 284 21h4l-8 -41h-344q111 -43 171.5 -125.5t60.5 -190.5q0 -161 -121 -258.5t-318 -97.5q-178 0 -297 80q-40 -59 -56.5 -95t-16.5 -67q0 -16 3.5 -29t17.5 -28t37.5 -26t66.5 -21t102 -15z
M608 1077q-126 0 -203 -91.5t-77 -240.5t77.5 -240t202.5 -91t202 91t77 240t-77.5 240.5t-201.5 91.5zM588 -406q264 0 397 72.5t133 188.5q0 55 -56.5 94.5t-178.5 50.5l-410 37q-113 11 -188 41q-105 -99 -105 -238q0 -118 110.5 -182t297.5 -64z" />
    <glyph glyph-name="uni0122" unicode="&#x122;" horiz-adv-x="1714" 
d="M1659 668v-4q-126 -3 -168.5 -42.5t-42.5 -154.5v-356q-63 -8 -172 -48q-232 -83 -395 -83q-337 0 -542.5 210t-205.5 555q0 227 93.5 401t265.5 269.5t397 95.5q65 0 126.5 -11.5t99.5 -26t81 -26t76 -11.5t53.5 13t46.5 52h4l56 -522h-5q-43 235 -187.5 371.5
t-350.5 136.5q-263 0 -423.5 -204t-160.5 -538t158 -537.5t418 -203.5q109 0 219.5 44t193.5 118v256q0 97 -25.5 146.5t-89 71.5t-188.5 24v4h668zM885 -74q56 0 90.5 -39t34.5 -102q0 -66 -48.5 -125.5t-130.5 -89.5l-2 4q40 24 66.5 62.5t26.5 76.5q0 40 -32.5 64.5
t-84.5 29.5q-12 20 -12 41q0 33 26.5 55.5t65.5 22.5z" />
    <glyph glyph-name="uni0123" unicode="&#x123;" horiz-adv-x="1255" 
d="M625 1251q-57 0 -91 39.5t-34 102.5q0 71 47.5 133t130.5 94l2 -4q-40 -25 -66 -66.5t-26 -83.5q0 -41 32 -67t82 -29q15 -25 15 -41q0 -33 -26.5 -55.5t-65.5 -22.5zM895 150q160 -16 233.5 -85.5t73.5 -166.5q0 -147 -157 -237.5t-467 -90.5q-270 0 -398.5 70.5
t-128.5 191.5q0 122 211 258q-94 50 -94 150q0 85 127 241q-127 100 -127 264q0 161 121 259t319 98q51 0 123 -10q83 -11 148 -11q161 0 284 21h4l-8 -41h-344q111 -43 171.5 -125.5t60.5 -190.5q0 -161 -121 -258.5t-318 -97.5q-178 0 -297 80q-40 -59 -56.5 -95
t-16.5 -67q0 -16 3.5 -29t17.5 -28t37.5 -26t66.5 -21t102 -15zM608 1077q-126 0 -203 -91.5t-77 -240.5t77.5 -240t202.5 -91t202 91t77 240t-77.5 240.5t-201.5 91.5zM588 -406q264 0 397 72.5t133 188.5q0 55 -56.5 94.5t-178.5 50.5l-410 37q-113 11 -188 41
q-105 -99 -105 -238q0 -118 110.5 -182t297.5 -64z" />
    <glyph glyph-name="Hbar" unicode="&#x126;" horiz-adv-x="1820" 
d="M1718 1487q-138 -3 -183.5 -43.5t-45.5 -157.5v-141h229l-4 -21h-225v-919q0 -117 45.5 -157.5t183.5 -43.5v-4h-614v4q138 3 183.5 43.5t45.5 157.5v553h-846v-553q0 -117 46 -157.5t184 -43.5v-4h-615v4q138 3 185 43.5t47 157.5v919h-232l4 21h228v141
q0 117 -47 157.5t-185 43.5v4h615v-4q-138 -3 -184 -43.5t-46 -157.5v-141h846v141q0 117 -45.5 157.5t-183.5 43.5v4h614v-4zM1333 778v346h-846v-346h846z" />
    <glyph glyph-name="hbar" unicode="&#x127;" horiz-adv-x="1400" 
d="M1165 201q0 -116 40 -155t161 -42v-4h-543v4q119 3 159 42.5t40 154.5v592q0 125 -60.5 190.5t-175.5 65.5q-92 0 -185 -46t-210 -137v-665q0 -115 39.5 -154.5t157.5 -42.5v-4h-543v4q122 3 162.5 42.5t40.5 154.5v1048h-203l4 21h199v14q0 117 -41 157.5t-162 45.5v4
q203 68 342 127h4v-348h357l-5 -21h-352v-358q249 211 459 211q153 0 234 -83.5t81 -240.5v-577z" />
    <glyph glyph-name="Imacron" unicode="&#x12a;" horiz-adv-x="815" 
d="M680 1718l-4 -20h-539l4 20h539zM715 1487q-138 -3 -184 -43.5t-46 -157.5v-1081q0 -117 46 -157.5t184 -43.5v-4h-615v4q138 3 185 43.5t47 157.5v1081q0 117 -47 157.5t-185 43.5v4h615v-4z" />
    <glyph glyph-name="imacron" unicode="&#x12b;" horiz-adv-x="671" 
d="M623 1483l-5 -21h-538l4 21h539zM424 201q0 -116 40 -155t161 -42v-4h-547v4q122 3 162.5 42.5t40.5 154.5v581q0 101 -40.5 140.5t-162.5 58.5v4q200 55 342 109h4v-893z" />
    <glyph glyph-name="Iogonek" unicode="&#x12e;" horiz-adv-x="815" 
d="M715 1487q-138 -3 -184 -43.5t-46 -157.5v-1081q0 -117 46 -157.5t184 -43.5v-4h-53q-117 -63 -189 -142.5t-72 -146.5q0 -41 31 -66.5t82 -25.5q90 0 164 55l2 -4q-97 -90 -225 -90q-77 0 -125.5 34t-48.5 91q0 79 100.5 158t269.5 137h-551v4q138 3 185 43.5t47 157.5
v1081q0 117 -47 157.5t-185 43.5v4h615v-4z" />
    <glyph glyph-name="iogonek" unicode="&#x12f;" horiz-adv-x="671" 
d="M352 1384q-47 0 -78.5 31.5t-31.5 77.5q0 47 31.5 78t78.5 31t79 -31t32 -78q0 -46 -32 -77.5t-79 -31.5zM578 0q-117 -63 -189 -142.5t-72 -146.5q0 -41 31 -66.5t82 -25.5q44 0 89.5 16t74.5 39l2 -4q-97 -90 -223 -90q-79 0 -127.5 34t-48.5 91q0 79 100.5 158
t269.5 137h-489v4q122 3 162.5 42.5t40.5 154.5v581q0 101 -40.5 140.5t-162.5 58.5v4q200 55 342 109h4v-893q0 -116 40 -155t161 -42v-4h-47z" />
    <glyph glyph-name="Idotaccent" unicode="&#x130;" horiz-adv-x="815" 
d="M408 1665q-47 0 -79 31.5t-32 77.5q0 47 31.5 77.5t79.5 30.5q47 0 78.5 -30.5t31.5 -77.5q0 -46 -31.5 -77.5t-78.5 -31.5zM715 1487q-138 -3 -184 -43.5t-46 -157.5v-1081q0 -117 46 -157.5t184 -43.5v-4h-615v4q138 3 185 43.5t47 157.5v1081q0 117 -47 157.5
t-185 43.5v4h615v-4z" />
    <glyph glyph-name="dotlessi" unicode="&#x131;" horiz-adv-x="671" 
d="M424 201q0 -116 40 -155t161 -42v-4h-547v4q122 3 162.5 42.5t40.5 154.5v581q0 101 -40.5 140.5t-162.5 58.5v4q200 55 342 109h4v-893z" />
    <glyph glyph-name="IJ" unicode="&#x132;" horiz-adv-x="1638" 
d="M100 1487v4h615v-4q-138 -3 -184 -43.5t-46 -157.5v-1081q0 -117 46 -157.5t184 -43.5v-4h-615v4q138 3 185 43.5t47 157.5v1081q0 117 -47 157.5t-185 43.5zM946 1491h615v-4q-138 -3 -185 -43.5t-47 -157.5v-952q0 -186 -101.5 -340.5t-266.5 -218.5l-3 4
q104 77 161 206.5t57 293.5v1007q0 117 -46 157.5t-184 43.5v4z" />
    <glyph glyph-name="ij" unicode="&#x133;" horiz-adv-x="1304" 
d="M352 1384q-47 0 -78.5 31.5t-31.5 77.5q0 47 31.5 78t78.5 31t79 -31t32 -78q0 -46 -32 -77.5t-79 -31.5zM1038 1602q47 0 79 -31t32 -78q0 -46 -32 -77.5t-79 -31.5t-78.5 31.5t-31.5 77.5q0 47 31.5 78t78.5 31zM424 201q0 -116 40 -155t161 -42v-4h-547v4
q122 3 162.5 42.5t40.5 154.5v581q0 101 -40.5 140.5t-162.5 58.5v4q200 55 342 109h4v-893zM766 985q193 53 340 109h4v-985q0 -197 -90.5 -345t-239.5 -194l-2 4q89 68 139 194t50 285v729q0 101 -40 140.5t-161 58.5v4z" />
    <glyph glyph-name="uni0136" unicode="&#x136;" horiz-adv-x="1687" 
d="M485 205q0 -117 46 -157.5t184 -43.5v-4h-615v4q138 3 185 43.5t47 157.5v1081q0 117 -47 157.5t-185 43.5v4h615v-4q-138 -3 -184 -43.5t-46 -157.5v-1081zM700 874q300 -359 474.5 -541t285.5 -254t213 -75v-4h-221q-48 0 -93.5 13.5t-90 37t-102.5 73.5t-111 102.5
t-136 147t-158 183.5t-194 234l516 442q134 113 134 162q0 45 -54 66t-178 26v4h553v-4q-73 0 -135.5 -32t-175.5 -128zM887 -74q56 0 90.5 -39t34.5 -102q0 -66 -48 -125.5t-130 -89.5l-3 4q40 24 66.5 62.5t26.5 76.5q0 40 -32.5 64.5t-84.5 29.5q-12 20 -12 41
q0 33 26.5 55.5t65.5 22.5z" />
    <glyph glyph-name="uni0137" unicode="&#x137;" horiz-adv-x="1300" 
d="M391 201q0 -115 39.5 -154.5t157.5 -42.5v-4h-543v4q122 3 162.5 42.5t40.5 154.5v1083q0 117 -41 157.5t-162 45.5v4q203 68 342 127h4v-1417zM578 637l694 -633v-4h-199l-622 565l315 250q141 112 141 170q0 45 -43 66t-137 26v4h477v-4q-52 0 -105.5 -32.5
t-183.5 -135.5zM719 -74q56 0 90.5 -39t34.5 -102q0 -66 -48 -125.5t-130 -89.5l-2 4q40 24 66 62t26 77q0 40 -32.5 64.5t-84.5 29.5q-12 20 -12 41q0 33 25.5 55.5t66.5 22.5z" />
    <glyph glyph-name="Lacute" unicode="&#x139;" horiz-adv-x="1509" 
d="M621 1712q-68 -32 -383 -108l-2 4q208 202 317 252q15 10 39 10q35 0 58.5 -24t23.5 -58q0 -24 -14 -45t-39 -31zM1454 524l4 -2l-186 -532q-120 10 -363 10h-809v4q138 3 185 43.5t47 157.5v1081q0 117 -47 157.5t-185 43.5v4h656v-4q-163 -4 -217 -49t-54 -176v-1065
q0 -106 29 -141.5t117 -35.5h225q129 0 214 21t155.5 80.5t121.5 153t107 249.5z" />
    <glyph glyph-name="lacute" unicode="&#x13a;" horiz-adv-x="638" 
d="M535 1782q-72 -34 -383 -109l-2 4q201 198 315 252q18 10 41 10q35 0 58.5 -23.5t23.5 -57.5q0 -24 -14.5 -45t-38.5 -31zM391 201q0 -116 40 -155t161 -42v-4h-547v4q122 3 162.5 42.5t40.5 154.5v1083q0 117 -41 157.5t-162 45.5v4q203 68 342 127h4v-1417z" />
    <glyph glyph-name="uni013B" unicode="&#x13b;" horiz-adv-x="1509" 
d="M1454 524l4 -2l-186 -532q-120 10 -363 10h-809v4q138 3 185 43.5t47 157.5v1081q0 117 -47 157.5t-185 43.5v4h656v-4q-163 -4 -217 -49t-54 -176v-1065q0 -106 29 -141.5t117 -35.5h225q129 0 214 21t155.5 80.5t121.5 153t107 249.5zM715 -74q57 0 91 -39t34 -102
q0 -66 -47.5 -125.5t-130.5 -89.5l-3 4q41 24 67 62t26 77q0 40 -32 64.5t-83 29.5q-12 20 -12 41q0 33 25.5 55.5t64.5 22.5z" />
    <glyph glyph-name="uni013C" unicode="&#x13c;" horiz-adv-x="638" 
d="M391 201q0 -116 40 -155t161 -42v-4h-547v4q122 3 162.5 42.5t40.5 154.5v1083q0 117 -41 157.5t-162 45.5v4q203 68 342 127h4v-1417zM303 -74q56 0 90.5 -39t34.5 -102q0 -66 -48 -125.5t-130 -89.5l-2 4q40 24 66 62t26 77q0 40 -32.5 64.5t-84.5 29.5q-12 20 -12 41
q0 33 25.5 55.5t66.5 22.5z" />
    <glyph glyph-name="Lcaron" unicode="&#x13d;" horiz-adv-x="1513" 
d="M1202 1350q0 54 -31 90.5t-81 42.5q-17 24 -17 51q0 40 26.5 66t67.5 26q57 0 92 -46.5t35 -121.5q0 -91 -48.5 -173t-127.5 -126l-2 2q39 37 62.5 88t23.5 101zM1454 524l4 -2l-186 -532q-120 10 -363 10h-809v4q138 3 185 43.5t47 157.5v1081q0 117 -47 157.5
t-185 43.5v4h656v-4q-163 -4 -217 -49t-54 -176v-1065q0 -106 29 -141.5t117 -35.5h225q129 0 214 21t155.5 80.5t121.5 153t107 249.5z" />
    <glyph glyph-name="lcaron" unicode="&#x13e;" horiz-adv-x="653" 
d="M594 1626q58 0 92.5 -46t34.5 -122q0 -91 -48.5 -173t-127.5 -126l-2 2q39 37 62.5 88t23.5 101q0 54 -31.5 90.5t-81.5 42.5q-16 22 -16 51q0 40 26.5 66t67.5 26zM391 201q0 -116 40 -155t161 -42v-4h-547v4q122 3 162.5 42.5t40.5 154.5v1083q0 117 -41 157.5
t-162 45.5v4q203 68 342 127h4v-1417z" />
    <glyph glyph-name="Lslash" unicode="&#x141;" horiz-adv-x="1536" 
d="M1483 524l4 -2l-189 -532q-120 10 -362 10h-807v4q138 3 183.5 43.5t45.5 157.5v461l-208 -107l-13 23l221 112v592q0 117 -45.5 157.5t-183.5 43.5v4h653v-4q-163 -4 -216.5 -49t-53.5 -176v-496l385 192l10 -20l-395 -201v-540q0 -106 29 -141.5t118 -35.5h226
q103 0 176.5 14.5t135 46.5t109.5 92t90 143t87 208z" />
    <glyph glyph-name="lslash" unicode="&#x142;" horiz-adv-x="706" 
d="M428 201q0 -116 40 -155t161 -42v-4h-547v4q122 3 162.5 42.5t40.5 154.5v602l-176 -121l-15 18l191 134v450q0 117 -40.5 157.5t-162.5 45.5v4q203 68 342 127h4v-703l182 125l13 -18l-195 -133v-688z" />
    <glyph glyph-name="Nacute" unicode="&#x143;" horiz-adv-x="1722" 
d="M1077 1712q-69 -32 -383 -108l-2 4q200 197 316 252q18 10 41 10q33 0 56 -24t23 -58q0 -54 -51 -76zM1061 1491h579v-4q-138 -3 -184.5 -43.5t-46.5 -157.5v-1306h-4l-1049 1333v-1067q0 -97 27.5 -146.5t95.5 -71.5t201 -24v-4h-580v4q138 3 185 43.5t47 157.5v1124
q0 91 -47 123t-185 35v4h326l958 -1245v999q0 73 -13.5 117t-51 72.5t-98 39.5t-160.5 13v4z" />
    <glyph glyph-name="nacute" unicode="&#x144;" horiz-adv-x="1433" 
d="M911 1456q-77 -73 -336 -217l-4 4q148 254 226 332q30 27 63 27q31 0 55.5 -23t24.5 -55q0 -39 -29 -68zM1198 201q0 -116 40 -155t161 -42v-4h-543v4q120 3 159.5 42t39.5 155v592q0 125 -60.5 190.5t-175.5 65.5q-90 0 -183 -46t-212 -137v-665q0 -116 39.5 -155
t159.5 -42v-4h-545v4q122 3 162.5 42.5t40.5 154.5v581q0 101 -40.5 140.5t-162.5 58.5v4q200 51 342 109h4v-203q249 211 459 211q153 0 234 -83.5t81 -240.5v-577z" />
    <glyph glyph-name="uni0145" unicode="&#x145;" horiz-adv-x="1722" 
d="M1061 1491h579v-4q-138 -3 -184.5 -43.5t-46.5 -157.5v-1306h-4l-1049 1333v-1067q0 -97 27.5 -146.5t95.5 -71.5t201 -24v-4h-580v4q138 3 185 43.5t47 157.5v1124q0 91 -47 123t-185 35v4h326l958 -1245v999q0 73 -13.5 117t-51 72.5t-98 39.5t-160.5 13v4zM856 -74
q57 0 91 -39t34 -102q0 -66 -47.5 -125.5t-130.5 -89.5l-2 4q41 24 66.5 62t25.5 77q0 40 -32 64.5t-83 29.5q-14 23 -14 41q0 33 26.5 55.5t65.5 22.5z" />
    <glyph glyph-name="uni0146" unicode="&#x146;" horiz-adv-x="1433" 
d="M1198 201q0 -116 40 -155t161 -42v-4h-543v4q120 3 159.5 42t39.5 155v592q0 125 -60.5 190.5t-175.5 65.5q-90 0 -183 -46t-212 -137v-665q0 -116 39.5 -155t159.5 -42v-4h-545v4q122 3 162.5 42.5t40.5 154.5v581q0 101 -40.5 140.5t-162.5 58.5v4q200 51 342 109h4
v-203q249 211 459 211q153 0 234 -83.5t81 -240.5v-577zM719 -74q56 0 90.5 -39t34.5 -102q0 -66 -48 -125.5t-130 -89.5l-2 4q40 24 66 62t26 77q0 40 -32.5 64.5t-84.5 29.5q-12 20 -12 41q0 33 25.5 55.5t66.5 22.5z" />
    <glyph glyph-name="Ncaron" unicode="&#x147;" horiz-adv-x="1722" 
d="M864 1604h-4l-297 262l2 4l297 -137l295 137l2 -4zM1061 1491h579v-4q-138 -3 -184.5 -43.5t-46.5 -157.5v-1306h-4l-1049 1333v-1067q0 -97 27.5 -146.5t95.5 -71.5t201 -24v-4h-580v4q138 3 185 43.5t47 157.5v1124q0 91 -47 123t-185 35v4h326l958 -1245v999
q0 73 -13.5 117t-51 72.5t-98 39.5t-160.5 13v4z" />
    <glyph glyph-name="ncaron" unicode="&#x148;" horiz-adv-x="1433" 
d="M735 1249h-4l-299 348l4 5l299 -207l297 207l4 -5zM1198 201q0 -116 40 -155t161 -42v-4h-543v4q120 3 159.5 42t39.5 155v592q0 125 -60.5 190.5t-175.5 65.5q-90 0 -183 -46t-212 -137v-665q0 -116 39.5 -155t159.5 -42v-4h-545v4q122 3 162.5 42.5t40.5 154.5v581
q0 101 -40.5 140.5t-162.5 58.5v4q200 51 342 109h4v-203q249 211 459 211q153 0 234 -83.5t81 -240.5v-577z" />
    <glyph glyph-name="Eng" unicode="&#x14a;" horiz-adv-x="1720" 
d="M1061 1491h579v-4q-138 -3 -184.5 -43.5t-46.5 -157.5v-1040q0 -156 -85.5 -284t-225.5 -187l-2 4q158 80 235 244l-975 1290v-1067q0 -97 27.5 -146.5t95.5 -71.5t201 -24v-4h-580v4q138 3 185 43.5t47 157.5v1124q0 91 -47 123t-185 35v4h326l956 -1288q2 14 2 43v999
q0 73 -13.5 117t-51 72.5t-98 39.5t-160.5 13v4z" />
    <glyph glyph-name="eng" unicode="&#x14b;" horiz-adv-x="1376" 
d="M883 1102q153 0 234 -83.5t81 -240.5v-669q0 -195 -91.5 -344t-240.5 -195l-2 4q90 74 140.5 199t50.5 280v740q0 125 -60.5 190.5t-175.5 65.5q-90 0 -183 -46t-212 -137v-665q0 -116 39.5 -155t159.5 -42v-4h-545v4q122 3 162.5 42.5t40.5 154.5v581q0 101 -40.5 140.5
t-162.5 58.5v4q200 51 342 109h4v-203q249 211 459 211z" />
    <glyph glyph-name="Omacron" unicode="&#x14c;" horiz-adv-x="1751" 
d="M543 1696l4 20h661l-4 -20h-661zM877 -20q-335 0 -539.5 210t-204.5 555t204.5 555.5t539.5 210.5q333 0 537 -210.5t204 -555.5t-204 -555t-537 -210zM877 4q257 0 413 203.5t156 537.5q0 221 -70.5 389.5t-200 260.5t-298.5 92q-170 0 -300 -92t-201 -260.5t-71 -389.5
q0 -334 157 -537.5t415 -203.5z" />
    <glyph glyph-name="omacron" unicode="&#x14d;" horiz-adv-x="1335" 
d="M334 1460l4 21h661l-4 -21h-661zM668 -20q-251 0 -403 154t-152 407t152 407t403 154q249 0 401 -154t152 -407t-152 -407t-401 -154zM668 4q177 0 285 147.5t108 389.5q0 241 -108 388.5t-285 147.5q-178 0 -287 -147t-109 -389t109 -389.5t287 -147.5z" />
    <glyph glyph-name="Ohungarumlaut" unicode="&#x150;" horiz-adv-x="1751" 
d="M625 1593l-2 4q170 230 272 299q30 19 49 19q31 0 55.5 -24.5t24.5 -57.5q0 -47 -41 -72q-53 -40 -358 -168zM958 1593l-2 4q88 118 159.5 194t113.5 105q30 19 49 19q31 0 56.5 -24.5t25.5 -57.5q0 -43 -41 -72q-61 -44 -361 -168zM877 -20q-335 0 -539.5 210
t-204.5 555t204.5 555.5t539.5 210.5q333 0 537 -210.5t204 -555.5t-204 -555t-537 -210zM877 4q257 0 413 203.5t156 537.5q0 221 -70.5 389.5t-200 260.5t-298.5 92q-170 0 -300 -92t-201 -260.5t-71 -389.5q0 -334 157 -537.5t415 -203.5z" />
    <glyph glyph-name="ohungarumlaut" unicode="&#x151;" horiz-adv-x="1335" 
d="M473 1239l-4 4q149 256 225 332q30 27 64 27q31 0 55.5 -23t24.5 -55q0 -39 -29 -68q-77 -73 -336 -217zM766 1239l-4 4q143 246 225 332q30 27 64 27q31 0 55 -23t24 -55q0 -40 -28 -68q-77 -73 -336 -217zM668 -20q-251 0 -403 154t-152 407t152 407t403 154
q249 0 401 -154t152 -407t-152 -407t-401 -154zM668 4q177 0 285 147.5t108 389.5q0 241 -108 388.5t-285 147.5q-178 0 -287 -147t-109 -389t109 -389.5t287 -147.5z" />
    <glyph glyph-name="OE" unicode="&#x152;" horiz-adv-x="2598" 
d="M2505 524l4 -2l-189 -532q-120 10 -370 10h-1004q-367 0 -591 204.5t-224 540.5q0 222 101.5 391.5t286.5 262t427 92.5h948q246 0 363 10l168 -512l-4 -2q-41 120 -81 199.5t-87.5 137t-110 88.5t-138.5 44.5t-183 13.5h-369v-692h236q140 0 194.5 68t79.5 272h4
q-6 -218 -6 -360q0 -144 6 -361h-4q-17 148 -45.5 223.5t-80.5 106.5t-148 31h-236v-561q0 -106 30.5 -141.5t121.5 -35.5h294q130 0 216 21t157 80.5t123.5 153t110.5 249.5zM1184 20q69 0 91.5 35.5t22.5 141.5v1273h-325q-304 0 -487 -198.5t-183 -526.5q0 -327 185 -526
t489 -199h207z" />
    <glyph glyph-name="oe" unicode="&#x153;" horiz-adv-x="2166" 
d="M2060 272l4 -2q-60 -131 -186 -210.5t-272 -79.5q-169 0 -290.5 84t-176.5 233q-59 -149 -183.5 -233t-293.5 -84q-248 0 -398.5 154t-150.5 407t150.5 407t398.5 154q177 0 304 -85.5t183 -236.5q57 152 178.5 237t286.5 85q199 0 320.5 -118t121.5 -310h-831
q-4 -58 -4 -90q0 -240 120 -386.5t318 -146.5q114 0 225 60.5t176 160.5zM668 0q177 0 285 149t108 392t-108 391.5t-285 148.5q-178 0 -287 -148.5t-109 -391.5t109 -392t287 -149zM1597 1077q-146 0 -243.5 -102t-124.5 -277h514q83 0 116 25t33 86q0 120 -81.5 194
t-213.5 74z" />
    <glyph glyph-name="Racute" unicode="&#x154;" horiz-adv-x="1677" 
d="M969 1712q-68 -32 -383 -108l-2 4q201 198 315 252q18 10 41 10q35 0 58.5 -24t23.5 -58q0 -24 -14.5 -45t-38.5 -31zM1024 725q184 -303 291.5 -452t186 -207.5t167.5 -61.5v-4h-199q-65 0 -124 33.5t-132 120t-155 215t-201 338.5h-31h-342v-461q0 -141 54.5 -190
t216.5 -52v-4h-656v4q138 3 185 43.5t47 157.5v1081q0 117 -47 157.5t-185 43.5v4h824q223 0 359 -107t136 -282q0 -141 -106 -241t-289 -136zM807 727q198 0 319 102t121 269t-98.5 269.5t-259.5 102.5h-404v-743h322z" />
    <glyph glyph-name="racute" unicode="&#x155;" horiz-adv-x="913" 
d="M674 1456q-77 -73 -336 -217l-4 4q143 246 225 332q30 27 64 27q31 0 55 -23t24 -55q0 -40 -28 -68zM518 936q-41 -69 -94 -215v-479q0 -139 48.5 -187t193.5 -51v-4h-588v4q122 3 162.5 42.5t40.5 154.5v581q0 101 -40.5 140.5t-162.5 58.5v4q195 54 338 109h4l4 -316
q51 159 123 241.5t184 82.5q61 0 98 -29t37 -76q0 -31 -18 -61h-330z" />
    <glyph glyph-name="uni0156" unicode="&#x156;" horiz-adv-x="1677" 
d="M1024 725q184 -303 291.5 -452t186 -207.5t167.5 -61.5v-4h-199q-65 0 -124 33.5t-132 120t-155 215t-201 338.5h-31h-342v-461q0 -141 54.5 -190t216.5 -52v-4h-656v4q138 3 185 43.5t47 157.5v1081q0 117 -47 157.5t-185 43.5v4h824q223 0 359 -107t136 -282
q0 -141 -106 -241t-289 -136zM807 727q198 0 319 102t121 269t-98.5 269.5t-259.5 102.5h-404v-743h322zM889 -74q56 0 90.5 -39t34.5 -102q0 -66 -48 -125.5t-130 -89.5l-2 4q40 24 66 62t26 77q0 40 -32.5 64.5t-84.5 29.5q-12 20 -12 41q0 33 26.5 55.5t65.5 22.5z" />
    <glyph glyph-name="uni0157" unicode="&#x157;" horiz-adv-x="913" 
d="M518 936q-41 -69 -94 -215v-479q0 -139 48.5 -187t193.5 -51v-4h-588v4q122 3 162.5 42.5t40.5 154.5v581q0 101 -40.5 140.5t-162.5 58.5v4q195 54 338 109h4l4 -316q51 159 123 241.5t184 82.5q61 0 98 -29t37 -76q0 -31 -18 -61h-330zM348 -74q57 0 91 -39t34 -102
q0 -66 -47.5 -125.5t-128.5 -89.5l-2 4q39 24 64.5 62t25.5 77q0 40 -32 64.5t-83 29.5q-12 20 -12 41q0 33 25.5 55.5t64.5 22.5z" />
    <glyph glyph-name="Rcaron" unicode="&#x158;" horiz-adv-x="1677" 
d="M756 1604h-4l-295 262l2 4l295 -137l295 137l2 -4zM1024 725q184 -303 291.5 -452t186 -207.5t167.5 -61.5v-4h-199q-65 0 -124 33.5t-132 120t-155 215t-201 338.5h-31h-342v-461q0 -141 54.5 -190t216.5 -52v-4h-656v4q138 3 185 43.5t47 157.5v1081q0 117 -47 157.5
t-185 43.5v4h824q223 0 359 -107t136 -282q0 -141 -106 -241t-289 -136zM807 727q198 0 319 102t121 269t-98.5 269.5t-259.5 102.5h-404v-743h322z" />
    <glyph glyph-name="rcaron" unicode="&#x159;" horiz-adv-x="913" 
d="M500 1249h-4l-299 348l4 5l297 -207l297 207l4 -5zM518 936q-41 -69 -94 -215v-479q0 -139 48.5 -187t193.5 -51v-4h-588v4q122 3 162.5 42.5t40.5 154.5v581q0 101 -40.5 140.5t-162.5 58.5v4q195 54 338 109h4l4 -316q51 159 123 241.5t184 82.5q61 0 98 -29t37 -76
q0 -31 -18 -61h-330z" />
    <glyph glyph-name="Sacute" unicode="&#x15a;" horiz-adv-x="1433" 
d="M514 1604l-2 4q201 198 315 252q17 10 41 10q35 0 58.5 -24t23.5 -58q0 -24 -14 -45t-39 -31q-68 -32 -383 -108zM721 -20q-80 0 -155.5 17t-132.5 34.5t-93 17.5q-32 0 -55.5 -12.5t-51.5 -46.5h-4l-114 530l4 2q73 -241 234.5 -379.5t363.5 -138.5q212 0 327 90.5
t115 249.5q0 47 -14 87t-34 70t-57.5 58t-69.5 46t-86.5 38.5t-91 32.5t-99.5 31q-74 22 -111.5 34t-103.5 37t-102 46t-83 56t-70.5 72.5t-41 89.5t-17.5 113q0 164 133 260t355 96q77 0 149 -18.5t127 -36.5t90 -18q32 0 52 13t38 50h4l136 -502l-5 -2
q-77 219 -242.5 354.5t-348.5 135.5q-160 0 -253.5 -76t-93.5 -205q0 -37 9 -70.5t22 -60t37.5 -51.5t47 -43.5t59.5 -37t64.5 -31t73 -28t75 -24.5t79.5 -24q68 -20 110 -33t102.5 -37t98.5 -45.5t81.5 -55.5t67.5 -70.5t40.5 -87t16.5 -108.5q0 -195 -152.5 -307
t-429.5 -112z" />
    <glyph glyph-name="sacute" unicode="&#x15b;" horiz-adv-x="1112" 
d="M395 1239l-4 4q149 256 225 332q27 27 62 27q31 0 55.5 -23t24.5 -55q0 -42 -29 -68q-71 -71 -334 -217zM565 -20q-71 0 -134.5 17t-105 34.5t-59.5 17.5q-40 0 -78 -59h-4l-80 387l5 2q57 -174 179 -274.5t273 -100.5t231 64.5t80 179.5q0 40 -19 73t-46 56t-74.5 44.5
t-86 34.5t-99.5 31q-53 16 -84.5 25.5t-79.5 27.5t-77 34.5t-63.5 41.5t-53 51.5t-31.5 63t-13 78.5q0 134 105.5 213.5t281.5 79.5q74 0 162 -27.5t107 -27.5q24 0 39 9t32 36h5l92 -371l-4 -2q-51 160 -172.5 259t-260.5 99q-122 0 -193 -57.5t-71 -155.5q0 -41 19.5 -76
t48 -59t77.5 -46.5t89.5 -36.5t103.5 -32q42 -13 65 -20t62 -21t61.5 -24t55 -26.5t51 -32t40.5 -37t33 -44t19 -50.5t8 -60q0 -150 -114 -234.5t-322 -84.5z" />
    <glyph glyph-name="Scedilla" unicode="&#x15e;" horiz-adv-x="1433" 
d="M1303 399q0 -194 -149 -305t-421 -114l-33 -46q85 -50 133 -102t48 -113q0 -69 -66.5 -108t-181.5 -41v4q63 5 101 35.5t38 77.5q0 43 -39.5 92t-107.5 90l82 111q-76 2 -149 19t-128 33.5t-90 16.5q-32 0 -55.5 -12.5t-51.5 -46.5h-4l-114 530l4 2q73 -241 234.5 -379.5
t363.5 -138.5q212 0 327 90.5t115 249.5q0 47 -14 87t-34 70t-57.5 58t-69.5 46t-86.5 38.5t-91 32.5t-99.5 31q-74 22 -111.5 34t-103.5 37t-102 46t-83 56t-70.5 72.5t-41 89.5t-17.5 113q0 164 133 260t355 96q77 0 149 -18.5t127 -36.5t90 -18q32 0 52 13t38 50h4
l136 -502l-5 -2q-77 219 -242.5 354.5t-348.5 135.5q-160 0 -253.5 -76t-93.5 -205q0 -37 9 -70.5t22 -60t37.5 -51.5t47 -43.5t59.5 -37t64.5 -31t73 -28t75 -24.5t79.5 -24q68 -20 110 -33t102.5 -37t98.5 -45.5t81.5 -55.5t67.5 -70.5t40.5 -87t16.5 -108.5z" />
    <glyph glyph-name="scedilla" unicode="&#x15f;" horiz-adv-x="1112" 
d="M1001 299q0 -148 -112.5 -233t-315.5 -86l-32 -46q180 -106 180 -215q0 -69 -67 -108t-183 -41v4q64 4 101.5 35t37.5 78q0 43 -39.5 92t-107.5 90l82 111q-66 3 -125 20t-97.5 33t-56.5 16q-40 0 -78 -59h-4l-80 387l5 2q57 -174 179 -274.5t273 -100.5t231 64.5
t80 179.5q0 40 -19 73t-46 56t-74.5 44.5t-86 34.5t-99.5 31q-53 16 -84.5 25.5t-79.5 27.5t-77 34.5t-63.5 41.5t-53 51.5t-31.5 63t-13 78.5q0 134 105.5 213.5t281.5 79.5q74 0 162 -27.5t107 -27.5q24 0 39 9t32 36h5l92 -371l-4 -2q-51 160 -172.5 259t-260.5 99
q-122 0 -193 -57.5t-71 -155.5q0 -41 19.5 -76t48 -59t77.5 -46.5t89.5 -36.5t103.5 -32q42 -13 65 -20t62 -21t61.5 -24t55 -26.5t51 -32t40.5 -37t33 -44t19 -50.5t8 -60z" />
    <glyph glyph-name="Scaron" unicode="&#x160;" horiz-adv-x="1433" 
d="M684 1604h-4l-295 262l2 4l295 -137l295 137l2 -4zM786 836q68 -20 110 -33t102.5 -37t98.5 -45.5t81.5 -55.5t67.5 -70.5t40.5 -87t16.5 -108.5q0 -195 -152.5 -307t-429.5 -112q-80 0 -155.5 17t-132.5 34.5t-93 17.5q-32 0 -55.5 -12.5t-51.5 -46.5h-4l-114 530l4 2
q73 -241 234.5 -379.5t363.5 -138.5q212 0 327 90.5t115 249.5q0 47 -14 87t-34 70t-57.5 58t-69.5 46t-86.5 38.5t-91 32.5t-99.5 31q-74 22 -111.5 34t-103.5 37t-102 46t-83 56t-70.5 72.5t-41 89.5t-17.5 113q0 164 133 260t355 96q77 0 149 -18.5t127 -36.5t90 -18
q32 0 52 13t38 50h4l136 -502l-5 -2q-77 219 -242.5 354.5t-348.5 135.5q-160 0 -253.5 -76t-93.5 -205q0 -37 9 -70.5t22 -60t37.5 -51.5t47 -43.5t59.5 -37t64.5 -31t73 -28t75 -24.5t79.5 -24z" />
    <glyph glyph-name="scaron" unicode="&#x161;" horiz-adv-x="1112" 
d="M555 1249h-4l-299 348l4 5l297 -207l297 207l4 -5zM606 614q42 -13 65 -20t62 -21t61.5 -24t55 -26.5t51 -32t40.5 -37t33 -44t19 -50.5t8 -60q0 -150 -114 -234.5t-322 -84.5q-71 0 -134.5 17t-105 34.5t-59.5 17.5q-40 0 -78 -59h-4l-80 387l5 2q57 -174 179 -274.5
t273 -100.5t231 64.5t80 179.5q0 40 -19 73t-46 56t-74.5 44.5t-86 34.5t-99.5 31q-53 16 -84.5 25.5t-79.5 27.5t-77 34.5t-63.5 41.5t-53 51.5t-31.5 63t-13 78.5q0 134 105.5 213.5t281.5 79.5q74 0 162 -27.5t107 -27.5q24 0 39 9t32 36h5l92 -371l-4 -2
q-51 160 -172.5 259t-260.5 99q-122 0 -193 -57.5t-71 -155.5q0 -41 19.5 -76t48 -59t77.5 -46.5t89.5 -36.5t103.5 -32z" />
    <glyph glyph-name="uni0162" unicode="&#x162;" horiz-adv-x="1503" 
d="M1272 1522l174 -533l-4 -2q-46 120 -85.5 199.5t-83.5 137t-96 88.5t-113.5 44.5t-145.5 13.5h-91v-1232q0 -137 54 -184t215 -50v-4h-330l-49 -66q180 -104 180 -215q0 -69 -66 -108t-182 -41v4q64 4 101.5 35t37.5 78q0 43 -39.5 92t-107.5 90l96 131h-329v4
q83 2 132.5 12.5t80.5 38t42 70t11 113.5v1232h-88q-106 0 -177 -20.5t-133 -76.5t-110.5 -146.5t-104.5 -239.5l-4 2l172 533h4q70 -19 158 -25t283 -6h155q194 0 282 6t157 25h4z" />
    <glyph glyph-name="uni0163" unicode="&#x163;" horiz-adv-x="833" 
d="M502 61q74 0 152.5 47t133.5 123l5 -2q-58 -112 -152.5 -180.5t-191.5 -68.5q-35 0 -62 6l-37 -52q180 -106 180 -215q0 -69 -66 -108t-181 -41v4q63 5 101 35.5t38 77.5q0 43 -40 92t-108 90l91 123q-119 42 -119 186v883h-201v4q132 49 204.5 104.5t135.5 153.5h4v-242
h404l-5 -20h-399v-854q0 -82 24.5 -114t88.5 -32z" />
    <glyph glyph-name="Tcaron" unicode="&#x164;" horiz-adv-x="1503" 
d="M754 1604h-4l-295 262l2 4l295 -137l295 137l2 -4zM1272 1522l174 -533l-4 -2q-46 120 -85.5 199.5t-83.5 137t-96 88.5t-113.5 44.5t-145.5 13.5h-91v-1232q0 -137 54 -184t215 -50v-4h-688v4q83 2 132.5 12.5t80.5 38t42 70t11 113.5v1232h-88q-106 0 -177 -20.5
t-133 -76.5t-110.5 -146.5t-104.5 -239.5l-4 2l172 533h4q70 -19 158 -25t283 -6h155q194 0 282 6t157 25h4z" />
    <glyph glyph-name="tcaron" unicode="&#x165;" horiz-adv-x="833" 
d="M748 1350q0 54 -31 90.5t-82 42.5q-17 30 -17 51q0 40 27 66t68 26q58 0 93.5 -46.5t35.5 -121.5q0 -90 -48.5 -172t-127.5 -127l-2 2q38 38 61 88.5t23 100.5zM788 1061h-399v-854q0 -82 24.5 -114t88.5 -32q74 0 152.5 47t133.5 123l5 -2q-58 -112 -152.5 -180.5
t-191.5 -68.5t-150 51.5t-53 146.5v883h-201v4q132 49 204.5 104.5t135.5 153.5h4v-242h404z" />
    <glyph glyph-name="Tbar" unicode="&#x166;" horiz-adv-x="1503" 
d="M1272 1522l174 -533l-4 -2q-46 120 -85.5 199.5t-83.5 137t-96 88.5t-113.5 44.5t-145.5 13.5h-91v-714h347l-5 -21h-342v-497q0 -137 54 -184t215 -50v-4h-688v4q83 2 132.5 12.5t80.5 38t42 70t11 113.5v497h-344l4 21h340v714h-88q-106 0 -177 -20.5t-133 -76.5
t-110.5 -146.5t-104.5 -239.5l-4 2l172 533h4q70 -19 158 -25t283 -6h155q194 0 282 6t157 25h4z" />
    <glyph glyph-name="tbar" unicode="&#x167;" horiz-adv-x="843" 
d="M508 61q74 0 152.5 47t134.5 123l4 -2q-58 -112 -152.5 -180.5t-191.5 -68.5t-150 51.5t-53 146.5v502h-182l4 20h178v361h-201v4q131 49 203 104t137 154h4v-242h404l-4 -20h-400v-361h375l-4 -20h-371v-473q0 -82 24.5 -114t88.5 -32z" />
    <glyph glyph-name="Umacron" unicode="&#x16a;" horiz-adv-x="1732" 
d="M1235 1716l-4 -20h-662l4 20h662zM1657 1491v-4q-138 -3 -184 -43.5t-46 -157.5v-801q0 -227 -142.5 -366t-375.5 -139q-281 0 -442.5 139t-161.5 377v790q0 117 -46.5 157.5t-184.5 43.5v4h655v-4q-162 -3 -216 -50t-54 -184v-786q0 -209 124.5 -336t327.5 -127
q221 0 356.5 132t135.5 349v760q0 142 -65 190.5t-261 51.5v4h580z" />
    <glyph glyph-name="umacron" unicode="&#x16b;" horiz-adv-x="1392" 
d="M1016 1481l-4 -21h-662l4 21h662zM1143 252q0 -113 41 -151.5t162 -41.5v-4q-174 -27 -342 -75h-5v208q-235 -208 -448 -208q-149 0 -227 77t-78 224v501q0 101 -40 140.5t-161 58.5v4q193 53 340 109h4v-822q0 -117 57.5 -178t167.5 -61q88 0 179.5 45.5t205.5 134.5
v569q0 102 -39.5 141t-160.5 58v4q202 56 340 109h4v-842z" />
    <glyph glyph-name="Uring" unicode="&#x16e;" horiz-adv-x="1732" 
d="M903 1573q-95 0 -152 52t-57 140t57 141.5t152 53.5q94 0 150.5 -53.5t56.5 -141.5t-56.5 -140t-150.5 -52zM903 1935q-82 0 -131 -47t-49 -123t48.5 -122t131.5 -46q81 0 129.5 46t48.5 122t-48.5 123t-129.5 47zM1657 1491v-4q-138 -3 -184 -43.5t-46 -157.5v-801
q0 -227 -142.5 -366t-375.5 -139q-281 0 -442.5 139t-161.5 377v790q0 117 -46.5 157.5t-184.5 43.5v4h655v-4q-162 -3 -216 -50t-54 -184v-786q0 -209 124.5 -336t327.5 -127q221 0 356.5 132t135.5 349v760q0 142 -65 190.5t-261 51.5v4h580z" />
    <glyph glyph-name="uring" unicode="&#x16f;" horiz-adv-x="1392" 
d="M682 1214q-94 0 -150.5 53.5t-56.5 141.5t56.5 140.5t150.5 52.5q95 0 152 -52.5t57 -140.5t-57 -141.5t-152 -53.5zM682 1577q-81 0 -129.5 -46t-48.5 -122t48.5 -123t129.5 -47q82 0 131 47t49 123t-48.5 122t-131.5 46zM1143 252q0 -113 41 -151.5t162 -41.5v-4
q-174 -27 -342 -75h-5v208q-235 -208 -448 -208q-149 0 -227 77t-78 224v501q0 101 -40 140.5t-161 58.5v4q193 53 340 109h4v-822q0 -117 57.5 -178t167.5 -61q88 0 179.5 45.5t205.5 134.5v569q0 102 -39.5 141t-160.5 58v4q202 56 340 109h4v-842z" />
    <glyph glyph-name="Uhungarumlaut" unicode="&#x170;" horiz-adv-x="1732" 
d="M1010 1761q-52 -39 -359 -168l-2 4q87 118 158 194t113 105q34 19 51 19q31 0 55.5 -24.5t24.5 -57.5q0 -47 -41 -72zM985 1593l-2 4q170 230 272 299q30 19 50 19q31 0 55 -24.5t24 -57.5q0 -47 -41 -72q-53 -40 -358 -168zM1657 1491v-4q-138 -3 -184 -43.5t-46 -157.5
v-801q0 -227 -142.5 -366t-375.5 -139q-281 0 -442.5 139t-161.5 377v790q0 117 -46.5 157.5t-184.5 43.5v4h655v-4q-162 -3 -216 -50t-54 -184v-786q0 -209 124.5 -336t327.5 -127q221 0 356.5 132t135.5 349v760q0 142 -65 190.5t-261 51.5v4h580z" />
    <glyph glyph-name="uhungarumlaut" unicode="&#x171;" horiz-adv-x="1392" 
d="M823 1456q-71 -71 -334 -217l-4 4q148 254 226 332q27 27 63 27q31 0 55.5 -23t24.5 -55q0 -40 -31 -68zM782 1239l-4 4q148 254 226 332q27 27 63 27q31 0 55.5 -23t24.5 -55q0 -40 -31 -68q-71 -71 -334 -217zM1143 252q0 -113 41 -151.5t162 -41.5v-4
q-174 -27 -342 -75h-5v208q-235 -208 -448 -208q-149 0 -227 77t-78 224v501q0 101 -40 140.5t-161 58.5v4q193 53 340 109h4v-822q0 -117 57.5 -178t167.5 -61q88 0 179.5 45.5t205.5 134.5v569q0 102 -39.5 141t-160.5 58v4q202 56 340 109h4v-842z" />
    <glyph glyph-name="Uogonek" unicode="&#x172;" horiz-adv-x="1732" 
d="M1657 1491v-4q-138 -3 -184 -43.5t-46 -157.5v-801q0 -196 -106.5 -327.5t-288.5 -165.5q-110 -63 -177 -140t-67 -141q0 -41 31 -66.5t82 -25.5q90 0 164 55l2 -4q-97 -90 -225 -90q-77 0 -125.5 34t-48.5 91q0 73 88.5 148.5t240.5 132.5q-43 -6 -88 -6
q-281 0 -442.5 139t-161.5 377v790q0 117 -46.5 157.5t-184.5 43.5v4h655v-4q-162 -3 -216 -50t-54 -184v-786q0 -209 124.5 -336t327.5 -127q221 0 356.5 132t135.5 349v760q0 142 -65 190.5t-261 51.5v4h580z" />
    <glyph glyph-name="uogonek" unicode="&#x173;" horiz-adv-x="1396" 
d="M1346 55q-152 -90 -231 -180t-79 -164q0 -41 31 -66.5t82 -25.5q45 0 90.5 15.5t73.5 39.5l2 -4q-97 -90 -223 -90q-79 0 -128 35.5t-49 93.5q0 85 107 175.5t307 168.5q-182 -33 -325 -73h-5v208q-235 -208 -448 -208q-149 0 -227 77t-78 224v501q0 101 -40 140.5
t-161 58.5v4q193 53 340 109h4v-822q0 -117 57.5 -178t167.5 -61q88 0 179.5 45.5t205.5 134.5v569q0 102 -39.5 141t-160.5 58v4q202 56 340 109h4v-842q0 -113 41 -151.5t162 -41.5v-4z" />
    <glyph glyph-name="Wcircumflex" unicode="&#x174;" horiz-adv-x="2357" 
d="M1223 1739l-297 -135l-2 4l295 262h4l297 -262l-2 -4zM1808 1491h551v-4q-75 -7 -121.5 -33.5t-85.5 -89.5t-79 -182l-408 -1202h-35l-452 1275l-447 -1275h-37l-456 1314q-38 112 -84.5 149.5t-153.5 43.5v4h643v-4q-137 -11 -188.5 -39t-51.5 -94q0 -25 21 -90
l358 -1061l381 1091v2l76 215h4l467 -1321l320 957q47 136 47 188q0 81 -58.5 112.5t-210.5 39.5v4z" />
    <glyph glyph-name="wcircumflex" unicode="&#x175;" horiz-adv-x="1914" 
d="M1001 1456l-296 -205l-5 4l299 347h5l299 -347l-5 -4zM1413 1081h494v-4q-57 -7 -95.5 -34.5t-75.5 -90t-81 -180.5l-305 -792h-37l-355 903l-356 -903h-37l-354 905q-42 108 -81.5 147t-119.5 45v4h580v-4q-129 -12 -178.5 -38.5t-49.5 -88.5q0 -32 25 -96l260 -702
l375 950h4l367 -948l219 587q53 127 53 189q0 77 -56.5 108t-195.5 39v4z" />
    <glyph glyph-name="Ycircumflex" unicode="&#x176;" horiz-adv-x="1556" 
d="M823 1739l-295 -135l-2 4l295 262h4l297 -262l-2 -4zM930 1491h633v-4q-54 -5 -96 -20t-92.5 -51.5t-104.5 -105t-115 -173.5l-295 -504v-395q0 -137 53.5 -184t214.5 -50v-4h-688v4q161 3 214 50t53 184v395l-388 629q-77 126 -133 171t-145 54v4h682v-4
q-141 -10 -198.5 -38t-57.5 -85q0 -17 10 -43t21.5 -46.5t36.5 -62.5l321 -534l283 479q46 78 68 123t22 74q0 65 -67.5 95.5t-231.5 37.5v4z" />
    <glyph glyph-name="ycircumflex" unicode="&#x177;" horiz-adv-x="1284" 
d="M680 1456l-299 -205l-4 4l299 347h4l301 -347l-4 -4zM809 1081h465v-4q-78 -10 -124.5 -69t-127.5 -236l-465 -1022q-79 -180 -283 -180q-53 0 -86.5 24t-33.5 60q0 25 10 45h338q27 39 41 70l88 196l-418 920q-48 109 -86 147.5t-115 44.5v4h523v-4q-97 -9 -137 -35
t-40 -86q0 -32 31 -102l320 -715l268 600q59 124 59 189q0 76 -53.5 109.5t-173.5 39.5v4z" />
    <glyph glyph-name="Ydieresis" unicode="&#x178;" horiz-adv-x="1556" 
d="M618 1671q-43 0 -71.5 28.5t-28.5 69.5q0 43 28.5 72t71.5 29t72 -29t29 -72q0 -41 -29 -69.5t-72 -28.5zM1028 1671q-43 0 -71.5 28.5t-28.5 69.5q0 43 28.5 72t71.5 29t71.5 -29t28.5 -72q0 -41 -28.5 -69.5t-71.5 -28.5zM930 1491h633v-4q-54 -5 -96 -20t-92.5 -51.5
t-104.5 -105t-115 -173.5l-295 -504v-395q0 -137 53.5 -184t214.5 -50v-4h-688v4q161 3 214 50t53 184v395l-388 629q-77 126 -133 171t-145 54v4h682v-4q-141 -10 -198.5 -38t-57.5 -85q0 -17 10 -43t21.5 -46.5t36.5 -62.5l321 -534l283 479q46 78 68 123t22 74
q0 65 -67.5 95.5t-231.5 37.5v4z" />
    <glyph glyph-name="Zacute" unicode="&#x179;" horiz-adv-x="1554" 
d="M1030 1712q-68 -32 -383 -108l-2 4q200 197 316 252q17 10 40 10q35 0 58.5 -24t23.5 -58q0 -24 -14 -45t-39 -31zM1436 524h4l-84 -534q-192 10 -694 10h-562l-2 6l1127 1464h-586q-103 0 -172.5 -21t-130.5 -79t-109.5 -149t-107.5 -244l-4 2l164 522q185 -10 647 -10
h491l2 -6l-1124 -1465h653q77 0 134 9t105.5 32.5t83 59t65 94t54 132t46.5 177.5z" />
    <glyph glyph-name="zacute" unicode="&#x17a;" horiz-adv-x="1179" 
d="M803 1456q-71 -71 -334 -217l-4 4q149 256 225 332q27 27 64 27q31 0 55.5 -23t24.5 -55q0 -40 -31 -68zM721 20q145 0 226.5 80t119.5 262h4l-47 -372q-160 10 -526 10h-406l-2 4l795 1057h-406q-135 0 -220.5 -82t-145.5 -268l-4 2l96 379q161 -11 506 -11h358l2 -4
l-795 -1057h445z" />
    <glyph glyph-name="Zdotaccent" unicode="&#x17b;" horiz-adv-x="1554" 
d="M815 1665q-47 0 -78.5 31.5t-31.5 77.5q0 47 31.5 77.5t78.5 30.5q48 0 79.5 -30.5t31.5 -77.5q0 -46 -32 -77.5t-79 -31.5zM1436 524h4l-84 -534q-192 10 -694 10h-562l-2 6l1127 1464h-586q-103 0 -172.5 -21t-130.5 -79t-109.5 -149t-107.5 -244l-4 2l164 522
q185 -10 647 -10h491l2 -6l-1124 -1465h653q77 0 134 9t105.5 32.5t83 59t65 94t54 132t46.5 177.5z" />
    <glyph glyph-name="zdotaccent" unicode="&#x17c;" horiz-adv-x="1179" 
d="M627 1384q-47 0 -79 31.5t-32 77.5q0 47 32 78t79 31t78.5 -31t31.5 -78q0 -46 -31.5 -77.5t-78.5 -31.5zM721 20q145 0 226.5 80t119.5 262h4l-47 -372q-160 10 -526 10h-406l-2 4l795 1057h-406q-135 0 -220.5 -82t-145.5 -268l-4 2l96 379q161 -11 506 -11h358l2 -4
l-795 -1057h445z" />
    <glyph glyph-name="Zcaron" unicode="&#x17d;" horiz-adv-x="1554" 
d="M817 1604h-4l-295 262l2 4l295 -137l295 137l2 -4zM1436 524h4l-84 -534q-192 10 -694 10h-562l-2 6l1127 1464h-586q-103 0 -172.5 -21t-130.5 -79t-109.5 -149t-107.5 -244l-4 2l164 522q185 -10 647 -10h491l2 -6l-1124 -1465h653q77 0 134 9t105.5 32.5t83 59t65 94
t54 132t46.5 177.5z" />
    <glyph glyph-name="zcaron" unicode="&#x17e;" horiz-adv-x="1179" 
d="M629 1249h-4l-299 348l4 5l297 -207l297 207l4 -5zM721 20q145 0 226.5 80t119.5 262h4l-47 -372q-160 10 -526 10h-406l-2 4l795 1057h-406q-135 0 -220.5 -82t-145.5 -268l-4 2l96 379q161 -11 506 -11h358l2 -4l-795 -1057h445z" />
    <glyph glyph-name="florin" unicode="&#x192;" horiz-adv-x="968" 
d="M877 780l-5 -20h-307q82 -178 82 -338q0 -109 -50.5 -211t-139.5 -166.5t-191 -64.5q-52 0 -86.5 27t-34.5 69q0 28 13 51h354q47 71 47 176q0 81 -32.5 165t-96.5 204q-32 67 -41 88h-293l4 20h281q-59 150 -59 285q0 106 50 208.5t139 170t191 67.5q52 0 86.5 -27
t34.5 -69q0 -30 -12 -51h-356q-49 -75 -49 -184q0 -52 21.5 -119.5t39 -104.5t63.5 -125q7 -15 11 -22q2 -5 7 -14.5t7 -14.5h322z" />
    <glyph glyph-name="AEacute" unicode="&#x1fc;" horiz-adv-x="2447" 
d="M1669 1712q-69 -32 -383 -108l-2 4q201 198 315 252q17 10 41 10q34 0 57 -24t23 -58q0 -54 -51 -76zM2353 524l4 -2l-188 -532q-120 10 -371 10h-880v4q138 3 183.5 43.5t45.5 157.5v553h-586l-201 -422q-69 -144 -69 -201q0 -67 56.5 -96t193.5 -35v-4h-543v4
q107 11 176.5 76t147.5 229l565 1182h856q244 0 362 10l168 -512l-4 -2q-41 120 -81 199.5t-87.5 137t-110 88.5t-138.5 44.5t-183 13.5h-369v-692h236q140 0 194.5 68t79.5 272h5q-7 -254 -7 -360q0 -107 7 -361h-5q-17 148 -45.5 223.5t-80.5 106.5t-148 31h-236v-561
q0 -106 30.5 -141.5t121.5 -35.5h295q130 0 215.5 21t156.5 80.5t123.5 153t110.5 249.5zM571 778h576v508q0 105 -49.5 142.5t-196.5 41.5z" />
    <glyph glyph-name="aeacute" unicode="&#x1fd;" horiz-adv-x="1931" 
d="M1202 1456q-71 -71 -334 -217l-4 4q148 254 226 332q27 27 63 27q31 0 55.5 -23t24.5 -55q0 -40 -31 -68zM1825 272l4 -2q-62 -131 -191 -210.5t-280 -79.5q-155 0 -273 69t-182 195q-267 -264 -506 -264q-137 0 -216 60.5t-79 162.5q0 86 72 146.5t248 125.5l420 156
v180q0 123 -60.5 188.5t-175.5 65.5q-77 0 -157 -31t-136 -78v-292q-31 -17 -63 -17q-38 0 -62 27.5t-24 73.5q0 77 48.5 145.5t122 113t157 70t157.5 25.5q132 0 207.5 -67t89.5 -193q64 123 176 191.5t256 68.5q199 0 321 -118t122 -310h-832q-4 -58 -4 -90
q0 -240 120 -386.5t318 -146.5q113 0 224.5 61t177.5 160zM1362 1077q-146 0 -244.5 -102t-124.5 -277h514q83 0 116.5 25.5t33.5 85.5q0 120 -81.5 194t-213.5 74zM457 33q101 0 205 59.5t231 173.5q-51 114 -51 258v82l-275 -100q-164 -63 -235.5 -132t-71.5 -155
q0 -84 54.5 -135t142.5 -51z" />
    <glyph glyph-name="uni0218" unicode="&#x218;" horiz-adv-x="1433" 
d="M721 -20q-80 0 -155.5 17t-132.5 34.5t-93 17.5q-32 0 -55.5 -12.5t-51.5 -46.5h-4l-114 530l4 2q73 -241 234.5 -379.5t363.5 -138.5q212 0 327 90.5t115 249.5q0 47 -14 87t-34 70t-57.5 58t-69.5 46t-86.5 38.5t-91 32.5t-99.5 31q-74 22 -111.5 34t-103.5 37t-102 46
t-83 56t-70.5 72.5t-41 89.5t-17.5 113q0 164 133 260t355 96q77 0 149 -18.5t127 -36.5t90 -18q32 0 52 13t38 50h4l136 -502l-5 -2q-77 219 -242.5 354.5t-348.5 135.5q-160 0 -253.5 -76t-93.5 -205q0 -37 9 -70.5t22 -60t37.5 -51.5t47 -43.5t59.5 -37t64.5 -31t73 -28
t75 -24.5t79.5 -24q68 -20 110 -33t102.5 -37t98.5 -45.5t81.5 -55.5t67.5 -70.5t40.5 -87t16.5 -108.5q0 -195 -152.5 -307t-429.5 -112zM666 -430l-2 4q40 24 66 62t26 77q0 40 -32.5 64.5t-84.5 29.5q-12 20 -12 41q0 33 25.5 55.5t66.5 22.5q56 0 90.5 -39t34.5 -102
q0 -66 -48 -125.5t-130 -89.5z" />
    <glyph glyph-name="uni0219" unicode="&#x219;" horiz-adv-x="1112" 
d="M565 -20q-71 0 -134.5 17t-105 34.5t-59.5 17.5q-40 0 -78 -59h-4l-80 387l5 2q57 -174 179 -274.5t273 -100.5t231 64.5t80 179.5q0 40 -19 73t-46 56t-74.5 44.5t-86 34.5t-99.5 31q-53 16 -84.5 25.5t-79.5 27.5t-77 34.5t-63.5 41.5t-53 51.5t-31.5 63t-13 78.5
q0 134 105.5 213.5t281.5 79.5q74 0 162 -27.5t107 -27.5q24 0 39 9t32 36h5l92 -371l-4 -2q-51 160 -172.5 259t-260.5 99q-122 0 -193 -57.5t-71 -155.5q0 -41 19.5 -76t48 -59t77.5 -46.5t89.5 -36.5t103.5 -32q42 -13 65 -20t62 -21t61.5 -24t55 -26.5t51 -32t40.5 -37
t33 -44t19 -50.5t8 -60q0 -150 -114 -234.5t-322 -84.5zM504 -430l-2 4q41 24 66.5 62t25.5 77q0 40 -32 64.5t-83 29.5q-14 18 -14 41q0 33 26.5 55.5t65.5 22.5q57 0 91 -39t34 -102q0 -66 -47.5 -125.5t-130.5 -89.5z" />
    <glyph glyph-name="uni021A" unicode="&#x21a;" horiz-adv-x="1503" 
d="M1272 1522l174 -533l-4 -2q-46 120 -85.5 199.5t-83.5 137t-96 88.5t-113.5 44.5t-145.5 13.5h-91v-1232q0 -137 54 -184t215 -50v-4h-688v4q83 2 132.5 12.5t80.5 38t42 70t11 113.5v1232h-88q-106 0 -177 -20.5t-133 -76.5t-110.5 -146.5t-104.5 -239.5l-4 2l172 533h4
q70 -19 158 -25t283 -6h155q194 0 282 6t157 25h4zM735 -74q56 0 90.5 -39t34.5 -102q0 -66 -48 -125.5t-130 -89.5l-2 4q40 24 66 62t26 77q0 40 -32.5 64.5t-84.5 29.5q-12 20 -12 41q0 33 25.5 55.5t66.5 22.5z" />
    <glyph glyph-name="uni021B" unicode="&#x21b;" horiz-adv-x="833" 
d="M502 61q74 0 152.5 47t133.5 123l5 -2q-58 -112 -152.5 -180.5t-191.5 -68.5t-150 51.5t-53 146.5v883h-201v4q132 49 204.5 104.5t135.5 153.5h4v-242h404l-5 -20h-399v-854q0 -82 24.5 -114t88.5 -32zM369 -74q56 0 90.5 -39t34.5 -102q0 -66 -48.5 -125.5
t-130.5 -89.5l-2 4q40 24 66.5 62.5t26.5 76.5q0 40 -32.5 64.5t-84.5 29.5q-13 22 -13 41q0 33 26 55.5t67 22.5z" />
    <glyph glyph-name="uni0237" unicode="&#x237;" horiz-adv-x="591" 
d="M66 -430l-3 4q90 68 140.5 194t50.5 285v729q0 101 -40 140.5t-161 58.5v4q202 56 340 109h4v-985q0 -197 -91 -345t-240 -194z" />
    <glyph glyph-name="circumflex" unicode="&#x2c6;" horiz-adv-x="1130" 
d="M866 1255l-4 -4l-297 205l-297 -205l-4 4l299 347h4z" />
    <glyph glyph-name="caron" unicode="&#x2c7;" horiz-adv-x="1130" 
d="M862 1602l4 -5l-299 -348h-4l-299 348l4 5l297 -207z" />
    <glyph glyph-name="breve" unicode="&#x2d8;" horiz-adv-x="1105" 
d="M553 1251q-99 0 -184 93.5t-129 250.5l4 2q51 -104 134.5 -165.5t174.5 -61.5q90 0 174 62t135 165l4 -2q-44 -157 -129 -250.5t-184 -93.5z" />
    <glyph glyph-name="dotaccent" unicode="&#x2d9;" horiz-adv-x="720" 
d="M360 1384q-47 0 -78.5 31.5t-31.5 77.5q0 47 31.5 78t78.5 31t79 -31t32 -78q0 -46 -32 -77.5t-79 -31.5z" />
    <glyph glyph-name="ring" unicode="&#x2da;" horiz-adv-x="1105" 
d="M553 1214q-94 0 -151.5 53.5t-57.5 141.5q0 87 57.5 140t151.5 53t151.5 -53t57.5 -140q0 -88 -57.5 -141.5t-151.5 -53.5zM553 1239q81 0 130.5 47t49.5 123q0 75 -49.5 121.5t-130.5 46.5t-130.5 -46.5t-49.5 -121.5q0 -76 49.5 -123t130.5 -47z" />
    <glyph glyph-name="ogonek" unicode="&#x2db;" horiz-adv-x="1032" 
d="M473 -420q-77 0 -125.5 34t-48.5 91q0 79 102.5 159.5t274.5 137.5l4 -2q-117 -63 -188.5 -142.5t-71.5 -146.5q0 -41 30.5 -66.5t81.5 -25.5q90 0 164 55l2 -4q-97 -90 -225 -90z" />
    <glyph glyph-name="tilde" unicode="&#x2dc;" horiz-adv-x="1226" 
d="M772 1294q-33 0 -68.5 13.5t-59 28.5t-60.5 42q-36 26 -58 40t-53 26t-59 12q-110 0 -158 -145l-4 2q13 103 69.5 177.5t133.5 74.5q29 0 63.5 -13.5t57 -27.5t61.5 -41q54 -39 94.5 -59.5t81.5 -20.5q110 0 158 145l4 -2q-13 -103 -69.5 -177.5t-133.5 -74.5z" />
    <glyph glyph-name="hungarumlaut" unicode="&#x2dd;" horiz-adv-x="1058" 
d="M209 1239l-4 4q149 256 225 332q30 27 64 27q31 0 55 -23t24 -55q0 -40 -28 -68q-77 -73 -336 -217zM502 1239l-4 4q143 246 225 332q30 27 63 27q31 0 55.5 -23t24.5 -55q0 -40 -28 -68q-77 -73 -336 -217z" />
    <glyph glyph-name="gravecomb" unicode="&#x300;" 
d="M-274 1239q-259 144 -336 217q-29 29 -29 68q0 32 24.5 55t55.5 23q33 0 63 -27q78 -78 226 -332z" />
    <glyph glyph-name="acutecomb" unicode="&#x301;" 
d="M-586 1239l-4 4q145 249 228 332q27 27 61 27q31 0 55.5 -23t24.5 -55q0 -39 -29 -68q-69 -69 -336 -217z" />
    <glyph glyph-name="uni0302" unicode="&#x302;" 
d="M-264 1255l-4 -4l-297 205l-297 -205l-4 4l299 347h4z" />
    <glyph glyph-name="tildecomb" unicode="&#x303;" 
d="M-455 1294q-33 0 -68.5 13.5t-59 28.5t-60.5 42q-36 26 -58 40t-53 26t-59 12q-110 0 -158 -145l-4 2q13 103 69.5 177.5t133.5 74.5q29 0 63.5 -13.5t57 -27.5t61.5 -41q54 -39 94.5 -59.5t81.5 -20.5q110 0 158 145l4 -2q-13 -103 -69.5 -177.5t-133.5 -74.5z" />
    <glyph glyph-name="uni0304" unicode="&#x304;" 
d="M-872 1460l4 21h661l-4 -21h-661z" />
    <glyph glyph-name="uni0306" unicode="&#x306;" 
d="M-553 1251q-99 0 -184 93.5t-129 250.5l4 2q51 -104 134.5 -165.5t174.5 -61.5q90 0 174 62t135 165l4 -2q-44 -157 -129 -250.5t-184 -93.5z" />
    <glyph glyph-name="uni0307" unicode="&#x307;" 
d="M-360 1384q-47 0 -79 31.5t-32 77.5q0 47 32 78t79 31t78.5 -31t31.5 -78q0 -46 -31.5 -77.5t-78.5 -31.5z" />
    <glyph glyph-name="uni0308" unicode="&#x308;" 
d="M-770 1395q-43 0 -71.5 27.5t-28.5 70.5t28.5 71.5t71.5 28.5t71.5 -28.5t28.5 -71.5t-28.5 -70.5t-71.5 -27.5zM-360 1395q-43 0 -72 28t-29 70q0 43 29 71.5t72 28.5t71.5 -28.5t28.5 -71.5t-28.5 -70.5t-71.5 -27.5z" />
    <glyph glyph-name="uni030A" unicode="&#x30a;" 
d="M-553 1214q-94 0 -151.5 53.5t-57.5 141.5q0 87 57.5 140t151.5 53t151.5 -53t57.5 -140q0 -88 -57.5 -141.5t-151.5 -53.5zM-553 1239q81 0 130.5 47t49.5 123q0 75 -49.5 121.5t-130.5 46.5t-130.5 -46.5t-49.5 -121.5q0 -76 49.5 -123t130.5 -47z" />
    <glyph glyph-name="uni030B" unicode="&#x30b;" 
d="M-850 1239l-4 4q149 256 225 332q30 27 64 27q31 0 55.5 -23t24.5 -55q0 -39 -29 -68q-77 -73 -336 -217zM-557 1239l-4 4q143 246 225 332q30 27 64 27q31 0 55 -23t24 -55q0 -40 -28 -68q-77 -73 -336 -217z" />
    <glyph glyph-name="uni030C" unicode="&#x30c;" 
d="M-268 1602l4 -5l-299 -348h-4l-299 348l4 5l297 -207z" />
    <glyph glyph-name="uni0312" unicode="&#x312;" 
d="M-494 1251q-55 0 -89.5 39.5t-34.5 102.5q0 70 48 132.5t130 94.5l2 -4q-40 -26 -66 -67t-26 -83q0 -40 32.5 -66.5t83.5 -29.5q13 -22 13 -41q0 -33 -26 -55.5t-67 -22.5z" />
    <glyph glyph-name="uni0326" unicode="&#x326;" 
d="M-580 -430l-2 4q41 24 67 62t26 77q0 40 -32 64.5t-83 29.5q-14 23 -14 41q0 33 26.5 55.5t65.5 22.5q57 0 91 -39t34 -102q0 -66 -48 -125.5t-131 -89.5z" />
    <glyph glyph-name="uni0327" unicode="&#x327;" 
d="M-545 -430v4q64 4 101.5 35t37.5 78q0 43 -39.5 92t-107.5 90l96 131h29l-49 -66q180 -106 180 -215q0 -69 -66 -108t-182 -41z" />
    <glyph glyph-name="uni0328" unicode="&#x328;" 
d="M-559 -420q-77 0 -125.5 34t-48.5 91q0 79 102.5 159.5t274.5 137.5l4 -2q-117 -63 -188.5 -142.5t-71.5 -146.5q0 -41 30.5 -66.5t81.5 -25.5q90 0 164 55l2 -4q-97 -90 -225 -90z" />
    <glyph glyph-name="uni0394" unicode="&#x394;" horiz-adv-x="1396" 
d="M717 1511l659 -1505l-2 -6h-1349l-2 6l657 1505h37zM53 20h1145l-569 1315z" />
    <glyph glyph-name="uni03A9" unicode="&#x3a9;" horiz-adv-x="1880" 
d="M1751 436h4l-69 -446q-182 10 -642 10h-22l-2 6q196 196 316 417.5t120 436.5q0 282 -142 454.5t-374 172.5t-374 -172.5t-142 -454.5q0 -215 120.5 -436.5t317.5 -417.5l-2 -6h-24q-456 0 -641 -10l-70 446h4q49 -184 135.5 -244.5t294.5 -60.5h170q-203 136 -339 338.5
t-136 402.5q0 287 188.5 463t497.5 176t497.5 -176t188.5 -463q0 -202 -136 -403t-339 -338h170q208 0 294.5 60.5t135.5 244.5z" />
    <glyph glyph-name="uni03BC" unicode="&#x3bc;" horiz-adv-x="1488" 
d="M1192 252q0 -113 40 -151.5t161 -41.5v-4q-174 -28 -340 -75h-4v208q-228 -208 -431 -208q-188 0 -253 143q45 -410 45 -488q0 -29 -19 -47t-47 -18t-46.5 18t-18.5 47q0 99 16 672v475q0 101 -40.5 140.5t-162.5 58.5v4q200 55 342 109h4v-822q0 -117 58 -178t168 -61
q88 0 179.5 45.5t205.5 134.5v569q0 101 -40.5 140.5t-162.5 58.5v4q188 51 342 109h4v-842z" />
    <glyph glyph-name="pi" unicode="&#x3c0;" horiz-adv-x="1439" 
d="M1354 244l4 -2q-71 -262 -213 -262q-67 0 -102 35.5t-35 103.5v942h-594v-860q0 -116 39 -155t159 -42v-4h-542v4q121 3 160.5 42t39.5 155v680q0 116 -39.5 154.5t-160.5 41.5v4h1282v-4q-122 -3 -161.5 -42t-39.5 -154v-746q0 -50 11.5 -68t43.5 -18q40 0 75.5 47.5
t72.5 147.5z" />
    <glyph glyph-name="Wgrave" unicode="&#x1e80;" horiz-adv-x="2357" 
d="M987 1712q-51 22 -51 76q0 34 23.5 58t58.5 24q22 0 39 -10q113 -53 317 -252l-2 -4q-314 76 -385 108zM1808 1491h551v-4q-75 -7 -121.5 -33.5t-85.5 -89.5t-79 -182l-408 -1202h-35l-452 1275l-447 -1275h-37l-456 1314q-38 112 -84.5 149.5t-153.5 43.5v4h643v-4
q-137 -11 -188.5 -39t-51.5 -94q0 -25 21 -90l358 -1061l381 1091v2l76 215h4l467 -1321l320 957q47 136 47 188q0 81 -58.5 112.5t-210.5 39.5v4z" />
    <glyph glyph-name="wgrave" unicode="&#x1e81;" horiz-adv-x="1914" 
d="M1116 1239q-259 144 -336 217q-28 28 -28 68q0 32 24 55t55 23q34 0 64 -27q76 -76 225 -332zM1413 1081h494v-4q-57 -7 -95.5 -34.5t-75.5 -90t-81 -180.5l-305 -792h-37l-355 903l-356 -903h-37l-354 905q-42 108 -81.5 147t-119.5 45v4h580v-4q-129 -12 -178.5 -38.5
t-49.5 -88.5q0 -32 25 -96l260 -702l375 950h4l367 -948l219 587q53 127 53 189q0 77 -56.5 108t-195.5 39v4z" />
    <glyph glyph-name="Wacute" unicode="&#x1e82;" horiz-adv-x="2357" 
d="M1438 1712q-71 -32 -385 -108l-2 4q204 199 317 252q18 10 41 10q34 0 57 -24t23 -58q0 -54 -51 -76zM1808 1491h551v-4q-75 -7 -121.5 -33.5t-85.5 -89.5t-79 -182l-408 -1202h-35l-452 1275l-447 -1275h-37l-456 1314q-38 112 -84.5 149.5t-153.5 43.5v4h643v-4
q-137 -11 -188.5 -39t-51.5 -94q0 -25 21 -90l358 -1061l381 1091v2l76 215h4l467 -1321l320 957q47 136 47 188q0 81 -58.5 112.5t-210.5 39.5v4z" />
    <glyph glyph-name="wacute" unicode="&#x1e83;" horiz-adv-x="1914" 
d="M1178 1456q-71 -71 -334 -217l-4 4q149 256 225 332q27 27 63 27q31 0 55.5 -23t24.5 -55q0 -41 -30 -68zM1413 1081h494v-4q-57 -7 -95.5 -34.5t-75.5 -90t-81 -180.5l-305 -792h-37l-355 903l-356 -903h-37l-354 905q-42 108 -81.5 147t-119.5 45v4h580v-4
q-129 -12 -178.5 -38.5t-49.5 -88.5q0 -32 25 -96l260 -702l375 950h4l367 -948l219 587q53 127 53 189q0 77 -56.5 108t-195.5 39v4z" />
    <glyph glyph-name="Wdieresis" unicode="&#x1e84;" horiz-adv-x="2357" 
d="M1016 1671q-42 0 -70 28t-28 70q0 43 28 72t70 29q44 0 72 -29t28 -72q0 -42 -28 -70t-72 -28zM1425 1671q-42 0 -70 28t-28 70q0 43 28 72t70 29q44 0 72.5 -29t28.5 -72q0 -42 -28.5 -70t-72.5 -28zM1808 1491h551v-4q-75 -7 -121.5 -33.5t-85.5 -89.5t-79 -182
l-408 -1202h-35l-452 1275l-447 -1275h-37l-456 1314q-38 112 -84.5 149.5t-153.5 43.5v4h643v-4q-137 -11 -188.5 -39t-51.5 -94q0 -25 21 -90l358 -1061l381 1091v2l76 215h4l467 -1321l320 957q47 136 47 188q0 81 -58.5 112.5t-210.5 39.5v4z" />
    <glyph glyph-name="wdieresis" unicode="&#x1e85;" horiz-adv-x="1914" 
d="M797 1395q-43 0 -71 27.5t-28 70.5t28 71.5t71 28.5t71.5 -28.5t28.5 -71.5t-28.5 -70.5t-71.5 -27.5zM1206 1395q-43 0 -70.5 27.5t-27.5 70.5t27.5 71.5t70.5 28.5t72 -28.5t29 -71.5q0 -42 -29 -70t-72 -28zM1413 1081h494v-4q-57 -7 -95.5 -34.5t-75.5 -90
t-81 -180.5l-305 -792h-37l-355 903l-356 -903h-37l-354 905q-42 108 -81.5 147t-119.5 45v4h580v-4q-129 -12 -178.5 -38.5t-49.5 -88.5q0 -32 25 -96l260 -702l375 950h4l367 -948l219 587q53 127 53 189q0 77 -56.5 108t-195.5 39v4z" />
    <glyph glyph-name="uni1E9E" unicode="&#x1e9e;" horiz-adv-x="1697" 
d="M1110 940q82 -60 145.5 -112.5t127.5 -117.5t106 -125.5t68 -131t26 -140.5q0 -152 -110.5 -242.5t-294.5 -90.5q-86 0 -162.5 35t-120.5 91l2 5q42 -36 112 -59t144 -23q123 0 198.5 68t75.5 182q0 63 -29 128t-91 137t-131 137.5t-177 156.5l359 467q-87 86 -209.5 134
t-241.5 48q-206 0 -332 -140t-126 -370v-772q0 -117 45.5 -157.5t183.5 -43.5v-4h-612v4q138 3 183.5 43.5t45.5 157.5v721q0 264 168.5 424.5t443.5 160.5q134 0 276.5 -42.5t241.5 -112.5v-4z" />
    <glyph glyph-name="Ygrave" unicode="&#x1ef2;" horiz-adv-x="1556" 
d="M590 1712q-51 22 -51 76q0 34 23 58t56 24q24 0 41 -10q116 -55 316 -252l-2 -4q-314 76 -383 108zM930 1491h633v-4q-54 -5 -96 -20t-92.5 -51.5t-104.5 -105t-115 -173.5l-295 -504v-395q0 -137 53.5 -184t214.5 -50v-4h-688v4q161 3 214 50t53 184v395l-388 629
q-77 126 -133 171t-145 54v4h682v-4q-141 -10 -198.5 -38t-57.5 -85q0 -17 10 -43t21.5 -46.5t36.5 -62.5l321 -534l283 479q46 78 68 123t22 74q0 65 -67.5 95.5t-231.5 37.5v4z" />
    <glyph glyph-name="ygrave" unicode="&#x1ef3;" horiz-adv-x="1284" 
d="M793 1239q-259 144 -336 217q-29 29 -29 68q0 32 24.5 55t55.5 23q33 0 63 -27q78 -78 226 -332zM809 1081h465v-4q-78 -10 -124.5 -69t-127.5 -236l-465 -1022q-79 -180 -283 -180q-53 0 -86.5 24t-33.5 60q0 25 10 45h338q27 39 41 70l88 196l-418 920
q-48 109 -86 147.5t-115 44.5v4h523v-4q-97 -9 -137 -35t-40 -86q0 -32 31 -102l320 -715l268 600q59 124 59 189q0 76 -53.5 109.5t-173.5 39.5v4z" />
    <glyph glyph-name="endash" unicode="&#x2013;" horiz-adv-x="1325" 
d="M170 592l4 20h983l-4 -20h-983z" />
    <glyph glyph-name="emdash" unicode="&#x2014;" horiz-adv-x="1785" 
d="M170 592l4 20h1442l-4 -20h-1442z" />
    <glyph glyph-name="quoteleft" unicode="&#x2018;" horiz-adv-x="514" 
d="M336 1626l2 -4q-47 -42 -76 -102t-29 -119q0 -65 35.5 -110t93.5 -54q23 -30 23 -70q0 -52 -30 -85t-76 -33q-69 0 -111.5 59t-42.5 154q0 109 58 209.5t153 154.5z" />
    <glyph glyph-name="quoteright" unicode="&#x2019;" horiz-adv-x="509" 
d="M180 1049l-2 4q48 40 77.5 100t29.5 119q0 66 -36 111t-95 53q-23 38 -23 71q0 51 30.5 85t76.5 34q69 0 112 -59t43 -154q0 -110 -59 -211t-154 -153z" />
    <glyph glyph-name="quotesinglbase" unicode="&#x201a;" horiz-adv-x="542" 
d="M197 -360l-2 4q46 40 75 101t29 120q0 65 -35.5 110t-93.5 54q-23 30 -23 69q0 52 30 85.5t75 33.5q70 0 113 -59t43 -154q0 -110 -58 -210t-153 -154z" />
    <glyph glyph-name="quotedblleft" unicode="&#x201c;" horiz-adv-x="849" 
d="M336 1626l2 -4q-47 -42 -76 -102t-29 -119q0 -65 35.5 -110t93.5 -54q23 -30 23 -70q0 -52 -30 -85t-76 -33q-69 0 -111.5 59t-42.5 154q0 109 58 209.5t153 154.5zM674 1626l2 -4q-48 -42 -77.5 -102t-29.5 -119q0 -64 36 -109.5t93 -54.5q23 -30 23 -70
q0 -52 -29.5 -85t-75.5 -33q-70 0 -112.5 58.5t-42.5 154.5q0 109 59 209.5t154 154.5z" />
    <glyph glyph-name="quotedblright" unicode="&#x201d;" horiz-adv-x="845" 
d="M180 1049l-2 4q48 40 77.5 100t29.5 119q0 66 -36 111t-95 53q-23 38 -23 71q0 51 30.5 85t76.5 34q69 0 112 -59t43 -154q0 -110 -59 -211t-154 -153zM516 1049l-2 4q48 40 77.5 100t29.5 119q0 66 -35.5 111.5t-93.5 52.5q-23 33 -23 71q0 51 30 85t74 34q70 0 113 -59
t43 -154q0 -111 -58.5 -211.5t-154.5 -152.5z" />
    <glyph glyph-name="quotedblbase" unicode="&#x201e;" horiz-adv-x="878" 
d="M197 -360l-2 4q46 40 75 101t29 120q0 65 -35.5 110t-93.5 54q-23 30 -23 69q0 52 30 85.5t75 33.5q70 0 113 -59t43 -154q0 -110 -58 -210t-153 -154zM532 -360l-2 4q48 40 77.5 101t29.5 120q0 64 -36 109.5t-95 54.5q-23 35 -23 69q0 52 30.5 85.5t76.5 33.5
q69 0 111 -59t42 -154q0 -110 -58 -210t-153 -154z" />
    <glyph glyph-name="dagger" unicode="&#x2020;" horiz-adv-x="1044" 
d="M911 1237q27 0 44.5 -17.5t17.5 -43.5q0 -28 -17 -45t-45 -17q-113 0 -385 57q58 -492 58 -686q0 -30 -17.5 -48.5t-44.5 -18.5t-44 18.5t-17 48.5q0 202 57 686q-272 -57 -383 -57q-28 0 -45.5 17t-17.5 45q0 26 17.5 43.5t45.5 17.5q109 0 381 -55q-55 272 -55 381
q0 28 17.5 45.5t43.5 17.5t44 -18t18 -45q0 -104 -56 -381q272 55 383 55z" />
    <glyph glyph-name="daggerdbl" unicode="&#x2021;" horiz-adv-x="1167" 
d="M195 1114q-28 0 -45 17t-17 45q0 26 17.5 43.5t44.5 17.5q111 0 383 -55q-56 277 -56 381q0 27 18 45t44 18t43.5 -17.5t17.5 -45.5q0 -109 -55 -381q272 55 383 55q27 0 44 -17t17 -44q0 -28 -16.5 -45t-44.5 -17q-115 0 -389 57q-274 -57 -389 -57zM973 930
q27 0 44 -17.5t17 -44.5q0 -28 -16.5 -44.5t-44.5 -16.5q-111 0 -383 55q55 -272 55 -383q0 -27 -17 -44t-44 -17t-44.5 17t-17.5 44q0 106 56 383q-272 -55 -383 -55q-28 0 -45 16.5t-17 44.5q0 27 17.5 44.5t44.5 17.5q110 0 389 -58q279 58 389 58z" />
    <glyph glyph-name="bullet" unicode="&#x2022;" horiz-adv-x="854" 
d="M428 373q-97 0 -160 63t-63 158q0 97 63 159t160 62t160 -62t63 -159q0 -95 -63 -158t-160 -63z" />
    <glyph glyph-name="ellipsis" unicode="&#x2026;" horiz-adv-x="1521" 
d="M264 -20q-52 0 -86.5 33.5t-34.5 84.5q0 52 34 85.5t87 33.5t87 -33.5t34 -85.5q0 -51 -34.5 -84.5t-86.5 -33.5zM762 -20q-52 0 -86.5 33.5t-34.5 84.5q0 52 34 85.5t87 33.5t87 -33.5t34 -85.5q0 -51 -34.5 -84.5t-86.5 -33.5zM1260 -20q-52 0 -86.5 33.5t-34.5 84.5
q0 52 34 85.5t87 33.5t86.5 -33.5t33.5 -85.5q0 -51 -34 -84.5t-86 -33.5z" />
    <glyph glyph-name="perthousand" unicode="&#x2030;" horiz-adv-x="2762" 
d="M322 -51l-19 16l1282 1575l19 -14zM453 641q-150 0 -242 118.5t-92 313.5q0 192 91.5 310t242.5 118t243 -117.5t92 -310.5q0 -195 -92 -313.5t-243 -118.5zM453 659q90 0 144 113.5t54 300.5q0 184 -54 297t-144 113q-89 0 -143 -112.5t-54 -297.5q0 -186 54 -300
t143 -114zM1454 -12q-150 0 -242 118.5t-92 313.5q0 192 91.5 310t242.5 118t243.5 -117.5t92.5 -310.5q0 -195 -92.5 -313.5t-243.5 -118.5zM2335 -12q-150 0 -242 118.5t-92 313.5q0 192 91.5 310t242.5 118t243.5 -117.5t92.5 -310.5q0 -195 -92.5 -313.5t-243.5 -118.5z
M1454 6q90 0 144.5 113.5t54.5 300.5q0 184 -54.5 296.5t-144.5 112.5q-89 0 -143 -112t-54 -297q0 -186 54 -300t143 -114zM2335 6q90 0 144 113.5t54 300.5q0 184 -54 296.5t-144 112.5q-89 0 -144 -112.5t-55 -296.5q0 -186 55 -300t144 -114z" />
    <glyph glyph-name="guilsinglleft" unicode="&#x2039;" horiz-adv-x="587" 
d="M446 997l-196 -397l196 -399l-4 -2l-325 383v34l325 383z" />
    <glyph glyph-name="guilsinglright" unicode="&#x203a;" horiz-adv-x="587" 
d="M145 999l326 -383v-34l-326 -383l-4 2l197 399l-197 397z" />
    <glyph glyph-name="fraction" unicode="&#x2044;" horiz-adv-x="212" 
d="M-524 -51l-19 16l1282 1575l19 -14z" />
    <glyph glyph-name="Euro" unicode="&#x20ac;" horiz-adv-x="1517" 
d="M1337 526h4v-536h-4q-31 36 -53 48.5t-49 12.5q-39 0 -92.5 -17.5t-119.5 -35.5t-136 -18q-248 0 -409 176.5t-189 474.5h-195l4 20h189q-4 62 -4 94q0 81 8 138h-197l4 20h195q37 279 196.5 443.5t397.5 164.5q83 0 192 -34.5t144 -34.5q27 0 46.5 11.5t53.5 47.5h4
v-516h-4q-8 227 -123.5 363.5t-302.5 136.5q-173 0 -290.5 -158t-145.5 -424h571l-4 -20h-569q-6 -65 -6 -138q0 -63 2 -94h532l-4 -20h-526q22 -285 140.5 -455t299.5 -170q192 0 311.5 142.5t128.5 377.5z" />
    <glyph glyph-name="uni20BF" unicode="&#x20bf;" horiz-adv-x="1507" 
d="M930 772q209 -11 335 -114.5t126 -266.5q0 -176 -136 -283.5t-350 -107.5h-16v-205h-25v205h-260v-205h-24v205h-471v4q138 3 183.5 43.5t45.5 157.5v1081q0 117 -45.5 157.5t-183.5 43.5v4h471v178h24v-178h225h35v178h25v-180q185 -15 294 -112.5t109 -248.5
q0 -141 -97.5 -236t-264.5 -120zM784 1470h-292v-692h292q155 0 246.5 94.5t91.5 251.5t-91.5 251.5t-246.5 94.5zM858 20q159 0 260 102.5t101 268.5q0 165 -103.5 266t-275.5 101h-348v-561q0 -106 22.5 -141.5t89.5 -35.5h254z" />
    <glyph glyph-name="trademark" unicode="&#x2122;" horiz-adv-x="1935" 
d="M711 1505h2l80 -256l-5 -2q-58 142 -109 185t-147 43h-18v-562q0 -62 23.5 -82.5t91.5 -23.5v-4h-350v4q69 3 91.5 24.5t22.5 81.5v562h-18q-49 0 -81.5 -8t-63 -33t-56.5 -69t-55 -118l-4 2l80 256h2q62 -14 206 -14h99q140 0 209 14zM1681 905q5 -53 23.5 -74t83.5 -24
v-4h-340v4q71 3 93 25t18 83l-46 488l-260 -610h-4l-270 626l-49 -495q-6 -67 20 -90.5t111 -26.5v-4h-260v4q60 3 81 23.5t27 74.5l49 496q5 47 -14 65t-82 21v4h219l226 -524l223 524h199v-4q-61 -3 -80.5 -21.5t-14.5 -64.5z" />
    <glyph glyph-name="oneeighth" unicode="&#x215b;" horiz-adv-x="1681" 
d="M1397 1540l18 -14l-1280 -1577l-18 16zM262 1374q-36 0 -96 -24l-2 4q147 72 276 155h2v-721q0 -75 29 -101.5t115 -29.5v-4h-410v4q85 3 114 30t29 101v494q0 47 -12 69.5t-45 22.5zM1311 471q47 -22 75.5 -37t66.5 -40t58.5 -48t36 -56.5t15.5 -70.5q0 -103 -88 -167
t-232 -64q-140 0 -225.5 59t-85.5 156q0 66 65 122.5t168 82.5q-89 45 -140.5 100t-51.5 137q0 91 74.5 147t195.5 56q124 0 200.5 -52t76.5 -139q0 -61 -58 -111.5t-151 -74.5zM1079 686q0 -35 15.5 -65t48.5 -55.5t63.5 -43t79.5 -41.5q62 35 96.5 84.5t34.5 100.5
q0 75 -47 119t-127 44q-74 0 -119 -39.5t-45 -103.5zM1243 6q94 0 151.5 47t57.5 123q0 34 -16.5 63t-50.5 54t-65 41t-81 39q-8 4 -24.5 11t-24.5 11q-72 -37 -114 -90.5t-42 -109.5q0 -85 57.5 -137t151.5 -52z" />
    <glyph glyph-name="threeeighths" unicode="&#x215c;" horiz-adv-x="1771" 
d="M1489 1540l18 -14l-1282 -1577l-18 16zM156 645q188 18 297.5 83.5t109.5 170.5q0 74 -67.5 115t-200.5 57l-2 4l285 311h-213q-98 0 -147 -28t-85 -109l-4 2l74 258h2q74 -18 379 -18h108l2 -4l-293 -320q137 -25 212 -85.5t75 -151.5q0 -122 -141 -199t-391 -90v4z
M1401 471q60 -28 95.5 -47.5t77 -51t61.5 -69.5t20 -84q0 -103 -88 -167t-232 -64q-140 0 -225.5 59t-85.5 156q0 66 64.5 122.5t168.5 82.5q-90 45 -141 99.5t-51 137.5q0 91 74.5 147t195.5 56q123 0 199 -52t76 -139q0 -61 -57.5 -112t-151.5 -74zM1171 686
q0 -35 16 -65.5t48 -55.5t63.5 -43.5t79.5 -40.5q60 35 95.5 85.5t35.5 99.5q0 75 -48 119t-126 44q-74 0 -119 -39.5t-45 -103.5zM1335 6q92 0 149.5 47t57.5 123q0 34 -16.5 63.5t-50 53.5t-65 41t-81.5 39l-47 22q-72 -37 -114 -90.5t-42 -109.5q0 -85 57.5 -137
t151.5 -52z" />
    <glyph glyph-name="fiveeighths" unicode="&#x215d;" horiz-adv-x="1783" 
d="M1501 1540l19 -14l-1282 -1577l-19 16zM137 645q185 18 296.5 86t111.5 174q0 91 -101.5 141.5t-308.5 71.5l-2 4l96 369h84q278 0 361 22h2l-35 -129h-422l-41 -157q251 -23 371.5 -93t120.5 -196q0 -128 -144.5 -206.5t-388.5 -90.5v4zM1415 471q48 -23 75 -37
t65.5 -39.5t59.5 -48.5t36.5 -56.5t15.5 -70.5q0 -103 -87.5 -167t-231.5 -64q-140 0 -226 59t-86 156q0 65 65 121t169 84q-91 45 -142 99.5t-51 137.5q0 91 75 147t196 56q123 0 198.5 -52t75.5 -139q0 -60 -57.5 -111.5t-149.5 -74.5zM1184 686q0 -35 15.5 -65
t48.5 -55.5t63.5 -43t79.5 -41.5q62 35 96.5 84.5t34.5 100.5q0 75 -48 119t-126 44q-74 0 -119 -39.5t-45 -103.5zM1348 6q92 0 149 47t57 123q0 34 -16.5 63.5t-50 53.5t-65 41t-81.5 39l-47 22q-71 -37 -113 -90.5t-42 -109.5q0 -85 57.5 -137t151.5 -52z" />
    <glyph glyph-name="seveneighths" unicode="&#x215e;" horiz-adv-x="1712" 
d="M1427 1540l19 -14l-1282 -1577l-19 16zM668 1384h-351q-99 0 -146 -27t-85 -108l-4 2l74 258h2q74 -18 379 -18h217v-4q-144 -213 -235.5 -404.5t-115.5 -371.5q-9 -70 -75 -70q-62 0 -62 57q0 105 129.5 319.5t272.5 366.5zM1339 471q60 -28 95.5 -47.5t77 -51
t61.5 -69.5t20 -84q0 -103 -87.5 -167t-231.5 -64q-140 0 -225.5 59t-85.5 156q0 66 64.5 122.5t168.5 82.5q-90 45 -141 99.5t-51 137.5q0 91 74.5 147t195.5 56q123 0 198.5 -52t75.5 -139q0 -61 -57.5 -112t-151.5 -74zM1110 686q0 -35 16 -65.5t48 -55.5t63.5 -43.5
t79.5 -40.5q60 35 95.5 85.5t35.5 99.5q0 75 -48 119t-126 44q-74 0 -119 -39.5t-45 -103.5zM1274 6q92 0 149.5 47t57.5 123q0 34 -16.5 63.5t-50 53.5t-65 41t-81.5 39l-47 22q-72 -37 -114 -90.5t-42 -109.5q0 -85 57.5 -137t151.5 -52z" />
    <glyph glyph-name="partialdiff" unicode="&#x2202;" horiz-adv-x="1325" 
d="M303 1626q422 -89 655.5 -369.5t233.5 -699.5q0 -259 -150.5 -418t-396.5 -159t-396.5 145.5t-150.5 384.5q0 237 147 383.5t376 146.5q232 0 364 -166q-65 290 -237.5 479.5t-446.5 268.5zM645 4q169 0 273 139.5t104 366.5q0 226 -104 364t-273 138q-165 0 -270 -139
t-105 -363q0 -227 103 -366.5t272 -139.5z" />
    <glyph glyph-name="emptyset" unicode="&#x2205;" horiz-adv-x="1523" 
d="M1370 1219l-166 -175q152 -173 152 -442q0 -283 -163.5 -456t-430.5 -173q-261 0 -424 166l-166 -174l-18 19l165 174q-153 170 -153 444q0 282 164.5 454.5t431.5 172.5q261 0 424 -166l168 176zM195 602q0 -264 143 -426l829 868q-154 160 -405 160q-255 0 -411 -165.5
t-156 -436.5zM1327 602q0 260 -143 422l-828 -866q154 -160 406 -160q254 0 409.5 165.5t155.5 438.5z" />
    <glyph glyph-name="product" unicode="&#x220f;" horiz-adv-x="1810" 
d="M1704 1487q-138 -3 -183.5 -43.5t-45.5 -157.5v-1491q0 -117 45.5 -157.5t183.5 -43.5v-4h-614v4q138 3 184.5 43.5t46.5 157.5v1675h-832v-1675q0 -117 46 -157.5t184 -43.5v-4h-613v4q138 3 184 43.5t46 157.5v1491q0 117 -46 157.5t-184 43.5v4h1598v-4z" />
    <glyph glyph-name="summation" unicode="&#x2211;" horiz-adv-x="1538" 
d="M1409 27h4l-70 -447q-195 10 -696 10h-579l-2 7l763 899l-749 989l2 6h491q463 0 648 10l163 -522l-4 -2q-59 153 -108 244.5t-110.5 149.5t-131.5 78.5t-174 20.5h-573l667 -870v-4l-743 -875h766q213 0 300 61t136 245z" />
    <glyph glyph-name="minus" unicode="&#x2212;" horiz-adv-x="970" 
d="M109 590v20h753v-20h-753z" />
    <glyph glyph-name="radical" unicode="&#x221a;" horiz-adv-x="1560" 
d="M1546 1608l25 -11l-881 -2027h-35l-405 915q-26 61 -43.5 92t-44.5 55.5t-60.5 33.5t-89.5 12v4h326l405 -934z" />
    <glyph glyph-name="infinity" unicode="&#x221e;" horiz-adv-x="1816" 
d="M1333 1094q154 0 248 -99t94 -260q0 -184 -103.5 -297.5t-273.5 -113.5q-72 0 -134 22.5t-112.5 67t-87.5 90t-79 110.5q-68 -134 -176 -212t-226 -78q-154 0 -248 98t-94 258q0 186 104 300t273 114q72 0 133.5 -22.5t112 -66.5t87.5 -89.5t79 -110.5
q65 132 173.5 210.5t229.5 78.5zM1341 444q138 0 222 81.5t84 213.5q0 147 -86.5 238.5t-227.5 91.5q-117 0 -221 -79t-166 -210l21 -32q38 -60 61 -93t62 -79.5t72.5 -71t80.5 -42.5t98 -18zM483 348q110 0 214.5 79.5t170.5 211.5l-18 31q-38 59 -61 92t-62.5 79t-73 70
t-80.5 42t-98 18q-138 0 -221.5 -81t-83.5 -214q0 -145 86.5 -236.5t226.5 -91.5z" />
    <glyph glyph-name="integral" unicode="&#x222b;" horiz-adv-x="813" 
d="M717 1477h-359q-67 -94 -67 -238q0 -91 30 -205.5t63.5 -198t92.5 -214.5q131 -304 131 -539q0 -123 -53 -241t-147.5 -194.5t-202.5 -76.5q-52 0 -86.5 27t-34.5 69q0 30 12 51h357q67 90 67 240q0 70 -14 144t-45 162t-55 147.5t-70 164.5q-133 305 -133 539
q0 123 53.5 241t147.5 194.5t202 76.5q52 0 86.5 -27t34.5 -69q0 -26 -10 -53z" />
    <glyph glyph-name="approxequal" unicode="&#x2248;" horiz-adv-x="970" 
d="M668 647q-36 0 -77.5 14t-66 28t-69.5 42q-43 27 -65 39.5t-58.5 25.5t-67.5 13q-133 0 -190 -145l-4 2q14 103 80 177.5t155 74.5q50 0 97.5 -21.5t107.5 -60.5q60 -40 105.5 -60t93.5 -20q134 0 190 143l4 -2q-14 -101 -80 -175.5t-155 -74.5zM668 303q-36 0 -77.5 14
t-66 28t-69.5 42q-58 38 -102 58t-89 20q-134 0 -190 -143l-4 2q14 101 80 175t155 74q81 0 205 -81q43 -27 68 -41t61.5 -26.5t69.5 -12.5q133 0 190 145l4 -2q-14 -103 -80 -177.5t-155 -74.5z" />
    <glyph glyph-name="notequal" unicode="&#x2260;" horiz-adv-x="970" 
d="M862 737h-287l-149 -274h436v-21h-448l-133 -243h-25l133 243h-280v21h292l150 274h-442v21h452l135 246h25l-135 -246h276v-21z" />
    <glyph glyph-name="lessequal" unicode="&#x2264;" horiz-adv-x="970" 
d="M856 518l-747 219v4l747 222v-23l-678 -201l678 -198v-23zM862 264h-753v21h753v-21z" />
    <glyph glyph-name="greaterequal" unicode="&#x2265;" horiz-adv-x="970" 
d="M115 518v23l678 198l-678 201v23l747 -222v-4zM109 264v21h753v-21h-753z" />
    <glyph glyph-name="lozenge" unicode="&#x25ca;" horiz-adv-x="1103" 
d="M551 0l-449 684l449 684h4l446 -684l-446 -684h-4zM553 43l418 641l-418 641l-420 -641z" />
    <glyph glyph-name="uniF8FF" unicode="&#xf8ff;" horiz-adv-x="2541" 
d="M117 -20q-15 0 -25 10.5t-10 25.5q0 21 10 31l701 698h-664q-47 0 -47 39q0 19 14 33l697 701h-670q-41 0 -41 38v3q0 38 41 38h758q47 0 47 -41q0 -17 -17 -34l-698 -697h676q17 0 29 -12t12 -29v-669l694 692q16 16 35 16q37 0 37 -45v-663l696 692q16 16 33 16
q15 0 25 -12t10 -27t-13 -28l-753 -762q-14 -14 -35 -14q-41 0 -41 47v663l-694 -696q-14 -14 -35 -14q-41 0 -41 47v663l-696 -696q-14 -14 -35 -14z" />
    <glyph glyph-name="uni00A40301" horiz-adv-x="778" 
d="M608 1712q-71 -32 -385 -108l-2 4q203 198 318 252q17 10 39 10q35 0 58 -24t23 -58q0 -54 -51 -76zM86 1491h612v-4q-138 -3 -183.5 -43.5t-45.5 -157.5v-952q0 -186 -102 -340t-267 -219l-2 4q104 77 160.5 206.5t56.5 293.5v1007q0 117 -45.5 157.5t-183.5 43.5v4z
" />
    <glyph glyph-name="i.loclTRK" horiz-adv-x="671" 
d="M352 1384q-47 0 -78.5 31.5t-31.5 77.5q0 47 31.5 78t78.5 31t79 -31t32 -78q0 -46 -32 -77.5t-79 -31.5zM424 201q0 -116 40 -155t161 -42v-4h-547v4q122 3 162.5 42.5t40.5 154.5v581q0 101 -40.5 140.5t-162.5 58.5v4q200 55 342 109h4v-893z" />
    <glyph glyph-name="uni006A0301" horiz-adv-x="591" 
d="M168 1239l-4 4q149 256 225 332q27 27 62 27q32 0 55.5 -23t23.5 -55q0 -43 -28 -68q-71 -71 -334 -217zM66 -430l-3 4q90 68 140.5 194t50.5 285v729q0 101 -40 140.5t-161 58.5v4q202 56 340 109h4v-985q0 -197 -91 -345t-240 -194z" />
    <glyph glyph-name="f_b" horiz-adv-x="2134" 
d="M1544 1102q214 0 344.5 -143.5t130.5 -376.5q0 -272 -145.5 -437t-384.5 -165q-152 0 -275 55q-114 -16 -190 -55h-4v1300q0 117 -41 157t-162 40h-362q-103 -127 -103 -244q0 -46 17.5 -86.5t48.5 -65.5h332l-5 -20h-327v-819q0 -138 49 -186.5t195 -51.5v-4h-588v4
q121 3 160.5 42t39.5 155v839v21h-202l4 20h200q7 150 68.5 274.5t166.5 197.5t230 73q52 0 86.5 -27t34.5 -69q0 -15 -4 -35q216 84 301 123h4v-735q70 99 174.5 159t206.5 60zM1468 8q177 0 284.5 149.5t107.5 395.5q0 222 -102 359t-265 137q-86 0 -175.5 -54
t-154.5 -145v-662q44 -86 127.5 -133t177.5 -47z" />
    <glyph glyph-name="f_h" horiz-adv-x="2172" 
d="M1937 201q0 -116 40 -155t161 -42v-4h-543v4q120 3 159.5 42t39.5 155v592q0 125 -60 190.5t-175 65.5q-90 0 -183.5 -46t-212.5 -137v-665q0 -116 39.5 -155t159.5 -42v-4h-545v4q122 3 162.5 42.5t40.5 154.5v1081q0 116 -41 155.5t-162 39.5h-362q-103 -127 -103 -244
q0 -46 17.5 -86.5t48.5 -65.5h332l-5 -20h-327v-819q0 -138 49 -186.5t195 -51.5v-4h-588v4q121 3 160.5 42t39.5 155v839v21h-202l4 20h200q7 150 68.5 274.5t166.5 197.5t230 73q52 0 86.5 -27t34.5 -69q0 -15 -4 -35q216 84 301 123h4v-727q249 211 461 211
q152 0 232.5 -83.5t80.5 -240.5v-577z" />
    <glyph glyph-name="f_hbar" horiz-adv-x="2172" 
d="M1937 201q0 -116 40 -155t161 -42v-4h-543v4q120 3 159.5 42t39.5 155v592q0 125 -60 190.5t-175 65.5q-90 0 -183.5 -46t-212.5 -137v-665q0 -116 39.5 -155t159.5 -42v-4h-545v4q122 3 162.5 42.5t40.5 154.5v1081q0 116 -41 155.5t-162 39.5h-362q-103 -127 -103 -244
q0 -46 17.5 -86.5t48.5 -65.5h332l-5 -20h-327v-819q0 -138 49 -186.5t195 -51.5v-4h-588v4q121 3 160.5 42t39.5 155v839v21h-202l4 20h200q7 150 68.5 274.5t166.5 197.5t230 73q52 0 86.5 -27t34.5 -69q0 -15 -4 -35q216 84 301 123h4v-348h359l-4 -21h-355v-358
q249 211 461 211q152 0 232.5 -83.5t80.5 -240.5v-577z" />
    <glyph glyph-name="f_icircumflex" horiz-adv-x="1437" 
d="M688 1626q48 0 80.5 -27t32.5 -69q0 -27 -13 -53h-346q-92 -111 -92 -244q0 -46 19 -86.5t51 -65.5h328l-5 -20h-323v-819q0 -138 49 -186.5t195 -51.5v-4h-588v4q121 3 160.5 42t39.5 155v839v21h-202l4 20h198q7 150 62 274.5t147.5 197.5t202.5 73zM1122 1602
l299 -347l-4 -4l-297 205l-297 -205l-4 4l299 347h4zM1192 201q0 -116 40 -155t161 -42v-4h-547v4q122 3 162.5 42.5t40.5 154.5v581q0 101 -40.5 140.5t-162.5 58.5v4q188 51 342 109h4v-893z" />
    <glyph glyph-name="f_idieresis" horiz-adv-x="1478" 
d="M688 1626q48 0 80.5 -27t32.5 -69q0 -27 -13 -53h-346q-92 -111 -92 -244q0 -46 19 -86.5t51 -65.5h328l-5 -20h-323v-819q0 -138 49 -186.5t195 -51.5v-4h-588v4q121 3 160.5 42t39.5 155v839v21h-202l4 20h198q7 150 62 274.5t147.5 197.5t202.5 73zM1012 1397
q-41 0 -69 27.5t-28 68.5q0 43 27.5 70.5t69.5 27.5q41 0 68.5 -27.5t27.5 -70.5q0 -41 -27.5 -68.5t-68.5 -27.5zM1311 1397q-41 0 -69 27.5t-28 68.5q0 43 28 70.5t69 27.5q40 0 67 -28t27 -70q0 -41 -27 -68.5t-67 -27.5zM1233 201q0 -116 40 -155t161 -42v-4h-547v4
q122 3 162.5 42.5t40.5 154.5v581q0 101 -40.5 140.5t-162.5 58.5v4q188 51 342 109h4v-893z" />
    <glyph glyph-name="f_igrave" horiz-adv-x="1488" 
d="M688 1626q48 0 80.5 -27t32.5 -69q0 -27 -13 -53h-346q-92 -111 -92 -244q0 -46 19 -86.5t51 -65.5h328l-5 -20h-323v-819q0 -138 49 -186.5t195 -51.5v-4h-588v4q121 3 160.5 42t39.5 155v839v21h-202l4 20h198q7 150 62 274.5t147.5 197.5t202.5 73zM1284 1239
q-259 144 -336 217q-28 28 -28 68q0 32 24 55t55 23q35 0 62 -27q81 -81 227 -332zM1241 201q0 -115 40.5 -154.5t162.5 -42.5v-4h-547v4q121 3 161 42t40 155v581q0 101 -40 140.5t-161 58.5v4q202 56 340 109h4v-893z" />
    <glyph glyph-name="f_imacron" horiz-adv-x="1437" 
d="M352 1231q0 -97 66 -150h327l-4 -20h-323v-819q0 -138 49 -186.5t195 -51.5v-4h-588v4q121 3 160.5 42t39.5 155v839v21h-202l4 20h200q14 220 159.5 374.5t338.5 154.5q51 0 86 -28t35 -71q0 -12 -4 -28h500l-5 -21h-913q-58 -58 -89.5 -119.5t-31.5 -111.5zM1192 201
q0 -116 40 -155t161 -42v-4h-547v4q122 3 162.5 42.5t40.5 154.5v581q0 101 -40.5 140.5t-162.5 58.5v4q188 51 342 109h4v-893z" />
    <glyph glyph-name="f_iogonek" horiz-adv-x="1437" 
d="M688 1626q48 0 80.5 -27t32.5 -69q0 -27 -13 -53h-346q-92 -111 -92 -244q0 -46 19 -86.5t51 -65.5h328l-5 -20h-323v-819q0 -138 49 -186.5t195 -51.5v-4h-588v4q121 3 160.5 42t39.5 155v839v21h-202l4 20h198q7 150 62 274.5t147.5 197.5t202.5 73zM1120 1384
q-47 0 -78.5 31.5t-31.5 77.5q0 47 31.5 78t78.5 31t79 -31t32 -78q0 -46 -32 -77.5t-79 -31.5zM1346 0q-117 -63 -189 -142.5t-72 -146.5q0 -41 31 -66.5t82 -25.5q90 0 164 55l2 -4q-97 -90 -225 -90q-77 0 -125.5 34t-48.5 91q0 79 100.5 158t269.5 137h-489v4
q122 3 162.5 42.5t40.5 154.5v581q0 101 -40.5 140.5t-162.5 58.5v4q188 51 342 109h4v-893q0 -116 40 -155t161 -42v-4h-47z" />
    <glyph glyph-name="f_j" horiz-adv-x="1386" 
d="M688 1626q48 0 80.5 -27t32.5 -69q0 -27 -13 -53h-346q-92 -111 -92 -244q0 -46 19 -86.5t51 -65.5h328l-5 -20h-323v-819q0 -138 49 -186.5t195 -51.5v-4h-588v4q121 3 160.5 42t39.5 155v839v21h-202l4 20h198q7 150 62 274.5t147.5 197.5t202.5 73zM1120 1602
q47 0 79 -31t32 -78q0 -46 -32 -77.5t-79 -31.5t-78.5 31.5t-31.5 77.5q0 47 31.5 78t78.5 31zM846 985q188 51 342 109h4v-985q0 -197 -91.5 -345t-240.5 -194l-2 4q90 68 140.5 194t50.5 285v729q0 101 -40.5 140.5t-162.5 58.5v4z" />
    <glyph glyph-name="f_k" horiz-adv-x="2072" 
d="M1163 201q0 -116 39.5 -155t159.5 -42v-4h-545v4q122 3 162.5 42.5t40.5 154.5v1079q0 117 -41 157t-162 40h-362q-103 -127 -103 -244q0 -46 17.5 -86.5t48.5 -65.5h332l-5 -20h-327v-819q0 -138 49 -186.5t195 -51.5v-4h-588v4q121 3 160.5 42t39.5 155v839v21h-202
l4 20h200q7 150 68.5 274.5t166.5 197.5t230 73q52 0 86.5 -27t34.5 -69q0 -15 -4 -35q216 84 301 123h4v-1417zM1350 637l694 -633v-4h-197l-624 565l315 250q141 112 141 170q0 45 -43 66t-137 26v4h477v-4q-52 0 -104.5 -32t-181.5 -136z" />
    <glyph glyph-name="uni00660137" horiz-adv-x="2072" 
d="M1163 201q0 -116 39.5 -155t159.5 -42v-4h-545v4q122 3 162.5 42.5t40.5 154.5v1079q0 117 -41 157t-162 40h-362q-103 -127 -103 -244q0 -46 17.5 -86.5t48.5 -65.5h332l-5 -20h-327v-819q0 -138 49 -186.5t195 -51.5v-4h-588v4q121 3 160.5 42t39.5 155v839v21h-202
l4 20h200q7 150 68.5 274.5t166.5 197.5t230 73q52 0 86.5 -27t34.5 -69q0 -15 -4 -35q216 84 301 123h4v-1417zM1350 637l694 -633v-4h-197l-624 565l315 250q141 112 141 170q0 45 -43 66t-137 26v4h477v-4q-52 0 -104.5 -32t-181.5 -136zM1491 -74q57 0 91 -39t34 -102
q0 -66 -48 -125.5t-130 -89.5l-2 4q40 24 66 62t26 77q0 40 -32 64.5t-85 29.5q-12 20 -12 41q0 33 26.5 55.5t65.5 22.5z" />
    <glyph glyph-name="f_lacute" horiz-adv-x="1411" 
d="M1307 1792q-70 -30 -383 -109l-2 5q200 200 315 254q23 10 41 10q35 0 58.5 -24t23.5 -58q0 -54 -53 -78zM1163 201q0 -116 40 -155t161 -42v-4h-547v4q122 3 162.5 42.5t40.5 154.5v1079q0 117 -41 157t-162 40h-362q-103 -127 -103 -244q0 -46 17.5 -86.5t48.5 -65.5
h332l-5 -20h-327v-819q0 -138 49 -186.5t195 -51.5v-4h-588v4q121 3 160.5 42t39.5 155v839v21h-202l4 20h200q7 150 68.5 274.5t166.5 197.5t230 73q52 0 86.5 -27t34.5 -69q0 -15 -4 -35q216 84 301 123h4v-1417z" />
    <glyph glyph-name="f_lcaron" horiz-adv-x="1427" 
d="M1163 201q0 -116 40 -155t161 -42v-4h-547v4q122 3 162.5 42.5t40.5 154.5v1079q0 117 -41 157t-162 40h-362q-103 -127 -103 -244q0 -46 17.5 -86.5t48.5 -65.5h332l-5 -20h-327v-819q0 -138 49 -186.5t195 -51.5v-4h-588v4q121 3 160.5 42t39.5 155v839v21h-202l4 20
h200q7 150 68.5 274.5t166.5 197.5t230 73q52 0 86.5 -27t34.5 -69q0 -15 -4 -35q216 84 301 123h4v-1417zM1350 1626q58 0 92.5 -46t34.5 -122q0 -91 -48.5 -173t-128.5 -126l-2 2q39 37 62.5 88t23.5 101q0 54 -31 90.5t-81 42.5q-17 24 -17 51q0 40 27 66t68 26z" />
    <glyph glyph-name="uni0066013C" horiz-adv-x="1411" 
d="M1163 201q0 -116 40 -155t161 -42v-4h-547v4q122 3 162.5 42.5t40.5 154.5v1079q0 117 -41 157t-162 40h-362q-103 -127 -103 -244q0 -46 17.5 -86.5t48.5 -65.5h332l-5 -20h-327v-819q0 -138 49 -186.5t195 -51.5v-4h-588v4q121 3 160.5 42t39.5 155v839v21h-202l4 20
h200q7 150 68.5 274.5t166.5 197.5t230 73q52 0 86.5 -27t34.5 -69q0 -15 -4 -35q216 84 301 123h4v-1417zM1075 -74q56 0 90.5 -39t34.5 -102q0 -66 -48 -125.5t-130 -89.5l-2 4q40 24 66 62t26 77q0 40 -32.5 64.5t-84.5 29.5q-12 20 -12 41q0 33 26.5 55.5t65.5 22.5z
" />
    <glyph glyph-name="f_lslash" horiz-adv-x="1441" 
d="M1163 201q0 -116 40 -155t161 -42v-4h-547v4q122 3 162.5 42.5t40.5 154.5v602l-176 -121l-15 18l191 131v449q0 117 -41 157t-162 40h-362q-103 -127 -103 -244q0 -46 17.5 -86.5t48.5 -65.5h332l-5 -20h-327v-819q0 -138 49 -186.5t195 -51.5v-4h-588v4q121 3 160.5 42
t39.5 155v839v21h-202l4 20h200q7 150 68.5 274.5t166.5 197.5t230 73q52 0 86.5 -27t34.5 -69q0 -15 -4 -35q216 84 301 123h4v-703l185 125l12 -18l-197 -135v-686z" />
    <glyph glyph-name="f_thorn" horiz-adv-x="2134" 
d="M1544 1102q214 0 344.5 -143.5t130.5 -376.5q0 -272 -145.5 -437t-384.5 -165q-88 0 -176.5 22.5t-149.5 60.5v-231q0 -139 48.5 -187t193.5 -51v-4h-588v4q121 1 162 41t41 156v1489q0 117 -41 157t-162 40h-362q-103 -127 -103 -244q0 -46 17.5 -86.5t48.5 -65.5h332
l-5 -20h-327v-819q0 -138 49 -186.5t195 -51.5v-4h-588v4q121 3 160.5 42t39.5 155v839v21h-202l4 20h200q7 150 68.5 274.5t166.5 197.5t230 73q52 0 86.5 -27t34.5 -69q0 -15 -4 -35q216 84 301 123h4v-735q70 99 174.5 159t206.5 60zM1468 8q177 0 284.5 149.5
t107.5 395.5q0 222 -102 359t-265 137q-86 0 -175.5 -54t-154.5 -145v-662q44 -86 127.5 -133t177.5 -47z" />
    <glyph glyph-name="zero.osf" horiz-adv-x="1396" 
d="M698 -20q-251 0 -403 154t-152 407t152 407t403 154q249 0 401 -154t152 -407t-152 -407t-401 -154zM698 4q177 0 286.5 148t109.5 389t-109.5 388.5t-286.5 147.5t-286 -147.5t-109 -388.5t109 -389t286 -148z" />
    <glyph glyph-name="one.osf" horiz-adv-x="776" 
d="M461 209q0 -123 44 -163.5t185 -41.5v-4h-604v4q97 1 145.5 19t67 60t18.5 126v557q0 97 -21.5 138.5t-78.5 41.5q-55 0 -143 -35l-2 4q227 108 385 207h4v-913z" />
    <glyph glyph-name="two.osf" horiz-adv-x="1284" 
d="M1159 369h4l-59 -379q-182 10 -617 10h-456l-2 4q143 110 317 221q83 53 137 89t121.5 85.5t109.5 89.5t81 86.5t57 93t18 93.5q0 100 -72 160.5t-190 60.5q-140 0 -264 -80t-188 -207l-4 2q65 179 207.5 291.5t306.5 112.5q161 0 260.5 -85t99.5 -222q0 -46 -18 -92
t-46.5 -85.5t-76.5 -82t-94 -76.5t-114 -75t-122.5 -71t-132.5 -71q-84 -49 -201 -125h524q141 0 218.5 21.5t122 74t73.5 156.5z" />
    <glyph glyph-name="three.osf" horiz-adv-x="1163" 
d="M586 498q201 -15 322.5 -118.5t121.5 -262.5q0 -219 -242 -368t-667 -179v4q226 27 395 97t263.5 181t94.5 250t-98 225.5t-260 86.5q-101 0 -235 -58l-9 19q116 51 197 97t148 101t100 118t33 136q0 88 -68.5 142.5t-183.5 54.5q-112 0 -231 -63t-197 -160l-4 2
q80 140 214.5 227.5t280.5 87.5q152 0 244 -74.5t92 -197.5q0 -101 -83 -192.5t-228 -155.5z" />
    <glyph glyph-name="four.osf" horiz-adv-x="1318" 
d="M1307 31l-7 -31h-339v-406l-140 -16h-4v422h-766l-2 6l813 1075h99v-1061q181 0 342 11h4zM88 20h729v963z" />
    <glyph glyph-name="five.osf" horiz-adv-x="1331" 
d="M262 612q431 -39 646.5 -162.5t215.5 -347.5q0 -149 -112 -265t-318.5 -185t-482.5 -82v4q351 35 558.5 163t207.5 329q0 180 -191 279.5t-579 137.5l-2 6l160 592h122q290 0 422.5 8.5t218.5 32.5h5l-48 -159h-727z" />
    <glyph glyph-name="six.osf" horiz-adv-x="1296" 
d="M727 862q204 0 334.5 -116t130.5 -302q0 -209 -147 -336.5t-388 -127.5t-387.5 165.5t-146.5 436.5q0 217 129 421.5t366.5 366.5t548.5 256l2 -4q-364 -141 -601 -393t-277 -539q85 78 201 125t235 47zM657 4q168 0 271.5 123t103.5 322q0 171 -92.5 279t-239.5 108
q-118 0 -233 -68t-184 -178v-8q0 -259 103 -418.5t271 -159.5z" />
    <glyph glyph-name="seven.osf" horiz-adv-x="1372" 
d="M1272 1081l2 -6q-265 -378 -430.5 -727.5t-218.5 -689.5q-15 -88 -95 -88q-75 0 -75 74q0 134 113 382.5t277 502t322 434.5h-587q-128 0 -203 -24t-125 -81.5t-96 -171.5l-4 2l131 424h4q67 -18 200.5 -24.5t395.5 -6.5h389z" />
    <glyph glyph-name="eight.osf" horiz-adv-x="1341" 
d="M760 819q60 -28 95.5 -45.5t89 -47.5t85.5 -53.5t70 -58.5t59 -69t35 -77.5t14 -90.5q0 -179 -148 -288t-392 -109q-243 0 -390 106t-147 279q0 120 118.5 225.5t313.5 161.5q-62 31 -108.5 59.5t-94.5 67.5t-78.5 80t-49.5 94.5t-19 113.5q0 155 125 249.5t330 94.5
q206 0 332 -92t126 -243q0 -114 -100.5 -211t-269.5 -144q1 0 2 -1t2 -1zM346 1210q0 -53 22 -101t54 -83t87.5 -72.5t102 -61.5t117.5 -58q125 59 198.5 152.5t73.5 195.5q0 138 -91 221.5t-242 83.5q-145 0 -233.5 -76t-88.5 -201zM668 4q182 0 292.5 89t110.5 237
q0 43 -13.5 81t-43.5 71.5t-61 59.5t-82 55.5t-89 48.5t-100 48l-90 43q-152 -67 -242 -171t-90 -210q0 -158 112 -255t296 -97z" />
    <glyph glyph-name="nine.osf" horiz-adv-x="1296" 
d="M629 1102q246 0 395.5 -166t149.5 -436q0 -292 -213.5 -548t-563.5 -382l-2 4q255 126 422 354.5t193 487.5q-86 -81 -203.5 -128.5t-237.5 -47.5q-205 0 -336 112.5t-131 294.5q0 204 145.5 329.5t381.5 125.5zM594 268q121 0 237 67t183 179q-3 253 -108.5 408
t-276.5 155q-164 0 -265.5 -120t-101.5 -314q0 -167 92.5 -271t239.5 -104z" />
    <glyph glyph-name="zero.dnom" horiz-adv-x="882" 
d="M440 -12q-150 0 -242 118.5t-92 313.5q0 192 91.5 310t242.5 118t243.5 -117.5t92.5 -310.5q0 -195 -92.5 -313.5t-243.5 -118.5zM440 6q90 0 144.5 113.5t54.5 300.5q0 184 -54.5 296.5t-144.5 112.5q-89 0 -143.5 -112.5t-54.5 -296.5q0 -186 54.5 -300t143.5 -114z
" />
    <glyph glyph-name="one.dnom" horiz-adv-x="567" 
d="M358 135q0 -75 28.5 -101.5t113.5 -29.5v-4h-410v4q87 3 115 29.5t28 101.5v494q0 49 -11.5 70.5t-45.5 21.5t-94 -25l-2 4q154 76 274 158h4v-723z" />
    <glyph glyph-name="two.dnom" horiz-adv-x="839" 
d="M745 256h5l-39 -262q-111 6 -412 6h-240l-2 4q56 58 185 170q58 49 94.5 81.5t80.5 78.5t68.5 83.5t42 83t17.5 89.5q0 71 -46 113t-122 42q-82 0 -152.5 -44t-107.5 -117l-4 2q43 118 133.5 190t195.5 72q104 0 168 -57t64 -148q0 -64 -30.5 -126t-88.5 -120
t-114.5 -102.5t-135.5 -97.5q-37 -27 -119 -93h308q125 0 175.5 30.5t75.5 121.5z" />
    <glyph glyph-name="three.dnom" horiz-adv-x="745" 
d="M356 514q136 -23 211.5 -85t75.5 -153q0 -122 -141 -198.5t-391 -89.5v4q187 18 297 84.5t110 171.5q0 73 -68 114t-202 56l-2 4l284 311h-211q-98 0 -146.5 -28t-84.5 -109l-4 2l74 258h2q71 -18 377 -18h110l2 -4z" />
    <glyph glyph-name="four.dnom" horiz-adv-x="843" 
d="M774 242h-188v-121q0 -65 26 -89.5t99 -27.5v-4h-396v4q88 3 118 32t30 107v99h-410l-2 2l445 594h90v-578q102 0 190 6h2zM86 260h377v502z" />
    <glyph glyph-name="five.dnom" horiz-adv-x="731" 
d="M139 573q253 -23 372.5 -92.5t119.5 -195.5q0 -128 -144.5 -206.5t-388.5 -90.5v4q185 18 296.5 86t111.5 174q0 92 -101 142t-309 71l-2 4l96 369h84q278 0 361 22h2l-35 -129h-422z" />
    <glyph glyph-name="six.dnom" horiz-adv-x="813" 
d="M459 487q119 0 196.5 -66t77.5 -171q0 -117 -87.5 -189.5t-229.5 -72.5t-230 93.5t-88 244.5q0 163 142.5 307.5t373.5 214.5l2 -4q-146 -62 -245 -178t-127 -252q92 73 215 73zM416 6q81 0 130.5 68.5t49.5 179.5q0 94 -45.5 153.5t-116.5 59.5q-56 0 -109 -32.5
t-89 -86.5v-22q0 -142 50 -231t130 -89z" />
    <glyph glyph-name="seven.dnom" horiz-adv-x="768" 
d="M514 838h217v-4q-302 -443 -350 -777q-9 -69 -76 -69q-61 0 -61 57q0 104 129.5 318.5t271.5 367.5h-350q-99 0 -146 -27t-83 -108l-5 2l74 258h2q71 -18 377 -18z" />
    <glyph glyph-name="eight.dnom" horiz-adv-x="829" 
d="M477 471q60 -28 95.5 -47.5t77 -51t61.5 -69.5t20 -84q0 -103 -88.5 -167t-232.5 -64q-140 0 -226 59t-86 156q0 65 65 121t171 84q-92 45 -143.5 99.5t-51.5 137.5q0 91 75 147t196 56q124 0 200 -52t76 -139q0 -61 -57.5 -112t-151.5 -74zM248 686q0 -66 52 -111
t153 -94q62 35 96.5 84.5t34.5 100.5q0 75 -47 119t-127 44q-72 0 -117 -39.5t-45 -103.5zM410 6q94 0 151 46.5t57 123.5q0 34 -16.5 63.5t-50.5 54t-64.5 41t-80.5 38.5q-8 4 -25 11t-25 11q-71 -38 -113 -91t-42 -109q0 -84 58 -136.5t151 -52.5z" />
    <glyph glyph-name="nine.dnom" horiz-adv-x="808" 
d="M387 848q145 0 233.5 -92.5t88.5 -243.5q0 -164 -126.5 -308.5t-332.5 -215.5l-2 4q128 65 212.5 184.5t104.5 259.5q-95 -74 -217 -74q-118 0 -195 64.5t-77 167.5q0 114 85.5 184t225.5 70zM375 381q54 0 108 33t88 86v14q0 141 -50.5 228t-133.5 87q-78 0 -126 -66
t-48 -173q0 -91 45 -150t117 -59z" />
    <glyph glyph-name="zero.numr" horiz-adv-x="882" 
d="M440 641q-150 0 -242 118.5t-92 313.5q0 192 91.5 310t242.5 118t243.5 -117.5t92.5 -310.5q0 -195 -92.5 -313.5t-243.5 -118.5zM440 659q90 0 144.5 113.5t54.5 300.5q0 184 -54.5 297t-144.5 113q-89 0 -143.5 -112.5t-54.5 -297.5q0 -186 54.5 -300t143.5 -114z" />
    <glyph glyph-name="one.numr" horiz-adv-x="567" 
d="M358 788q0 -75 29.5 -101.5t114.5 -29.5v-4h-410v4q86 3 115 30t29 101v494q0 46 -12.5 69t-45.5 23q-37 0 -94 -24l-2 4q148 74 274 155h2v-721z" />
    <glyph glyph-name="two.numr" horiz-adv-x="839" 
d="M745 909h5l-39 -262q-111 6 -412 6h-240l-2 4q56 58 185 170q58 49 94.5 81.5t80.5 78.5t68.5 83.5t42 83t17.5 89.5q0 71 -46 113.5t-122 42.5q-82 0 -152.5 -44t-107.5 -118l-4 2q43 118 133.5 190t195.5 72q104 0 168 -57t64 -148q0 -64 -30.5 -126t-88.5 -120
t-114.5 -102.5t-135.5 -97.5q-50 -37 -119 -92h308q125 0 175.5 30.5t75.5 120.5z" />
    <glyph glyph-name="three.numr" horiz-adv-x="745" 
d="M358 1167q136 -25 210.5 -85.5t74.5 -151.5q0 -122 -140 -199t-390 -90v4q187 18 297 83.5t110 170.5q0 74 -67.5 115.5t-202.5 56.5l-2 4l284 311h-210q-99 0 -147.5 -27.5t-84.5 -109.5l-4 2l74 258h2q71 -18 377 -18h110l2 -4z" />
    <glyph glyph-name="four.numr" horiz-adv-x="841" 
d="M774 895h-188v-121q0 -65 26 -89.5t99 -27.5v-4h-396v4q88 3 118 32.5t30 107.5v98h-410l-2 2l445 594h90v-578q87 0 190 7h2zM86 913h377v502z" />
    <glyph glyph-name="five.numr" horiz-adv-x="735" 
d="M143 1227q251 -23 370.5 -92.5t119.5 -196.5q0 -129 -144 -207t-389 -90v4q185 18 296.5 86t111.5 174q0 91 -100.5 141.5t-307.5 71.5l-2 4l97 369h84q275 0 358 22h2l-33 -129h-422z" />
    <glyph glyph-name="six.numr" horiz-adv-x="813" 
d="M459 1141q119 0 196.5 -66.5t77.5 -171.5q0 -117 -87.5 -189.5t-229.5 -72.5t-230 93.5t-88 244.5q0 163 142.5 307.5t373.5 214.5l2 -4q-146 -62 -246 -179t-126 -253q92 76 215 76zM416 659q81 0 130.5 68.5t49.5 179.5q0 94 -45.5 153.5t-116.5 59.5q-56 0 -109 -32.5
t-89 -86.5v-22q0 -142 50 -231t130 -89z" />
    <glyph glyph-name="seven.numr" horiz-adv-x="770" 
d="M516 1491h217v-4q-303 -447 -350 -776q-9 -70 -76 -70q-61 0 -61 57q0 104 129.5 318.5t271.5 367.5h-350q-99 0 -146 -27t-83 -108l-5 2l74 258h2q71 -18 377 -18z" />
    <glyph glyph-name="eight.numr" horiz-adv-x="829" 
d="M477 1124q60 -28 95.5 -47.5t77 -51t61.5 -69.5t20 -84q0 -104 -88 -167.5t-233 -63.5q-140 0 -226 59t-86 156q0 66 66 122t172 81q-93 47 -145 101.5t-52 137.5q0 91 75 147t196 56q124 0 200 -51.5t76 -138.5q0 -61 -57.5 -112.5t-151.5 -74.5zM248 1339
q0 -36 15.5 -66t47.5 -55t63 -42.5t79 -40.5q62 35 96.5 83.5t34.5 100.5q0 75 -47 119.5t-127 44.5q-72 0 -117 -40t-45 -104zM410 659q94 0 151 46.5t57 123.5q0 34 -16.5 63.5t-50.5 54t-64.5 41t-80.5 38.5q-8 3 -48 23q-71 -38 -114 -91t-43 -110q0 -84 58 -136.5
t151 -52.5z" />
    <glyph glyph-name="nine.numr" horiz-adv-x="808" 
d="M387 1501q145 0 233.5 -92.5t88.5 -243.5q0 -164 -126.5 -308.5t-332.5 -215.5l-2 4q128 65 212.5 185t104.5 260q-95 -74 -217 -74q-118 0 -195 64t-77 167q0 114 85.5 184t225.5 70zM375 1034q54 0 108 33t88 86v14q0 141 -50.5 228.5t-133.5 87.5q-78 0 -126 -66.5
t-48 -173.5q0 -91 45 -150t117 -59z" />
    <glyph glyph-name="exclamdown.case" horiz-adv-x="638" 
d="M319 1274q-54 0 -87 32.5t-33 86.5q0 53 33 85.5t87 32.5t87.5 -32.5t33.5 -85.5q0 -54 -33.5 -86.5t-87.5 -32.5zM319 -20q-44 0 -68 26.5t-24 71.5q0 256 39 502q47 340 51 512h5q4 -172 51 -512q39 -246 39 -502q0 -44 -25 -71t-68 -27z" />
    <glyph glyph-name="questiondown.case" horiz-adv-x="935" 
d="M586 1274q-54 0 -87.5 32.5t-33.5 86.5q0 53 33.5 85.5t87.5 32.5t87.5 -32.5t33.5 -85.5q0 -54 -33.5 -86.5t-87.5 -32.5zM776 127q12 -28 12 -51q0 -42 -34 -69t-86 -27q-108 0 -210 45t-175.5 116.5t-117.5 165t-44 187.5q0 161 117 250t337 98q20 143 23 250h4
q18 -183 68 -373l-4 -4q-250 -7 -376 -78t-126 -197q0 -168 182 -313h430z" />
    <glyph glyph-name="parenleft.case" horiz-adv-x="729" 
d="M727 -242q-275 164 -426 414.5t-151 581.5t151 581t426 414l4 -4q-211 -169 -330.5 -421t-119.5 -570t119.5 -570.5t330.5 -421.5z" />
    <glyph glyph-name="parenright.case" horiz-adv-x="729" 
d="M2 -242l-4 4q211 169 331 421.5t120 570.5q0 317 -120 569t-331 422l4 4q276 -164 427 -413.5t151 -581.5t-151 -582t-427 -414z" />
    <glyph glyph-name="braceleft.case" horiz-adv-x="733" 
d="M428 90q0 -88 64.5 -157t236.5 -166l-2 -5q-168 54 -264 110t-131 110.5t-35 126.5q0 63 55 200q62 148 62 221q0 48 -11 84t-37.5 66.5t-78 46.5t-125.5 16h-12v21h12q74 0 125.5 16t78 46.5t37.5 66.5t11 84q0 73 -62 221q-55 137 -55 201q0 72 35 126t131 110t264 110
l2 -4q-172 -97 -236.5 -166.5t-64.5 -157.5q0 -62 53 -190q64 -151 64 -232q0 -101 -61 -164t-212 -77q150 -14 211.5 -77.5t61.5 -164.5q0 -80 -64 -231q-53 -128 -53 -191z" />
    <glyph glyph-name="braceright.case" horiz-adv-x="733" 
d="M571 764h13v-21h-13q-74 0 -125 -16t-78 -46.5t-38 -66.5t-11 -84q0 -73 62 -221q55 -137 55 -200q0 -72 -35 -126.5t-130.5 -110.5t-262.5 -110l-2 5q171 97 235 166t64 157q0 63 -53 191q-64 151 -64 231q0 101 61.5 164.5t211.5 77.5q-151 14 -212 77t-61 164
q0 81 64 232q53 128 53 190q0 88 -64.5 157.5t-234.5 166.5l2 4q126 -41 210.5 -81.5t132 -83t66.5 -85.5t19 -96q0 -64 -55 -201q-62 -148 -62 -221q0 -48 11 -84t38 -66.5t78 -46.5t125 -16z" />
    <glyph glyph-name="bracketleft.case" horiz-adv-x="872" 
d="M772 1749q-175 -4 -233 -57t-58 -205v-1467q0 -152 58 -205t233 -57v-4h-426v1999h426v-4z" />
    <glyph glyph-name="bracketright.case" horiz-adv-x="872" 
d="M526 1753v-1999h-428v4q90 2 144.5 14.5t89 43t47 78t12.5 126.5v1467q0 79 -12.5 126.5t-47 78t-89 43t-144.5 14.5v4h428z" />
    <glyph glyph-name="hyphen.case" horiz-adv-x="856" 
d="M88 756l4 20h674l-4 -20h-674z" />
    <glyph glyph-name="uni00AD.case" horiz-adv-x="856" 
d="M88 756l4 20h674l-4 -20h-674z" />
    <glyph glyph-name="endash.case" horiz-adv-x="1167" 
d="M88 756l4 20h985l-4 -20h-985z" />
    <glyph glyph-name="emdash.case" horiz-adv-x="1626" 
d="M88 756l4 20h1444l-4 -20h-1444z" />
    <glyph glyph-name="guillemotleft.case" horiz-adv-x="806" 
d="M422 1161l-199 -397l199 -399l-4 -3l-326 383v35l326 383zM715 1161l-197 -397l197 -399l-4 -3l-324 383v35l324 383z" />
    <glyph glyph-name="guillemotright.case" horiz-adv-x="806" 
d="M422 780v-35l-326 -383l-4 3l197 399l-197 397l4 2zM391 1163l324 -383v-35l-324 -383l-4 3l197 399l-197 397z" />
    <glyph glyph-name="guilsinglleft.case" horiz-adv-x="512" 
d="M422 1161l-199 -397l199 -399l-4 -3l-326 383v35l326 383z" />
    <glyph glyph-name="guilsinglright.case" horiz-adv-x="512" 
d="M96 1163l326 -383v-35l-326 -383l-4 3l197 399l-197 397z" />
    <glyph glyph-name="uni20BF.osf" horiz-adv-x="1411" 
d="M891 623q170 -9 272.5 -93.5t102.5 -216.5q0 -140 -110 -226.5t-282 -86.5h-16v-205h-24v205h-261v-205h-24v205h-432v4q121 3 160.5 42t39.5 155v782q0 116 -39.5 155t-160.5 42v4h432v192h24v-192h224q25 0 37 -2v194h24v-194q142 -15 225.5 -91t83.5 -192
q0 -110 -74 -183t-202 -93zM754 1163h-293v-536h293q118 0 187 73t69 195t-69 195t-187 73zM827 20q124 0 202.5 81t78.5 212q0 132 -82 212.5t-217 80.5h-348v-405q0 -108 22 -144.5t88 -36.5h256z" />
    <glyph glyph-name="cent.osf" horiz-adv-x="1253" 
d="M1110 270q-55 -119 -167 -196.5t-245 -91.5v-203h-24v201h-25q-227 0 -366.5 151.5t-139.5 400.5q0 252 145.5 408t385.5 162v198h24v-198q180 -2 290 -102t110 -263q0 -56 -25.5 -90.5t-66.5 -34.5q-36 0 -58 15v350q-49 51 -106 75t-144 25v-1026h21q109 0 217 60.5
t170 160.5zM287 584q0 -225 105.5 -368.5t281.5 -162.5v1024q-175 -5 -281 -139.5t-106 -353.5z" />
    <glyph glyph-name="dollar.osf" horiz-adv-x="1247" 
d="M676 666q46 -17 71 -26.5t68.5 -27.5t68 -30.5t60.5 -32.5t56.5 -38t44.5 -42.5t37 -49t21.5 -55t8.5 -63.5q0 -150 -122 -235.5t-343 -85.5h-8v-185h-25v185q-82 4 -180.5 36.5t-124.5 32.5t-43.5 -12t-40.5 -47h-4l-82 387l4 2q55 -165 183.5 -265.5t287.5 -109.5v535
q-45 17 -71 27t-68 27.5t-67.5 30.5t-60.5 33.5t-56 39t-44.5 43.5t-36.5 51t-21.5 57.5t-8.5 66.5q0 132 103.5 210.5t275.5 78.5q10 0 30 -1t29 -1v174h25v-178q58 -7 146.5 -31t119.5 -24q24 0 37.5 10t34.5 41h4l92 -371l-4 -2q-46 138 -165 233.5t-265 119.5v-496z
M299 963q0 -50 24 -91.5t72.5 -75t98.5 -58t124 -52.5v490q-40 4 -59 4q-121 0 -190.5 -58.5t-69.5 -158.5zM641 4q168 0 256 65.5t88 182.5q0 41 -20 77t-48 62t-78.5 53t-92 44t-107.5 42v-526h2z" />
    <glyph glyph-name="Euro.osf" horiz-adv-x="1415" 
d="M1214 383h5v-393h-5q-29 31 -47.5 42t-42.5 11q-28 0 -134 -31.5t-189 -31.5q-217 0 -362 132t-177 357h-196l4 20h190q-6 49 -6 103q0 45 8 127h-196l4 20h196q38 215 181 340t354 125q65 0 129 -15t110.5 -29.5t69.5 -14.5t41 10t49 39h4v-373h-4q-12 161 -116.5 259
t-268.5 98q-153 0 -258.5 -119t-134.5 -320h491l-4 -20h-489q-8 -55 -8 -127q0 -37 4 -103h452l-4 -20h-446q26 -212 133 -337.5t264 -125.5q170 0 277.5 103.5t121.5 273.5z" />
    <glyph glyph-name="sterling.osf" horiz-adv-x="1335" 
d="M1221 369h4l-60 -379q-195 10 -696 10h-397l-2 6q71 49 127 109v2h2q70 78 97.5 159t27.5 177q0 50 -7 122h-233l4 21h227q-2 4 -2 10q-12 106 -12 176q0 193 132 307.5t345 114.5q186 0 299 -92.5t113 -243.5q0 -50 -24.5 -79t-65.5 -29q-40 0 -58 14v305
q-55 53 -117 77t-157 24q-80 0 -139.5 -21.5t-94 -55.5t-55.5 -86t-28 -104t-7 -118q0 -58 15 -154l6 -45h530l-4 -21h-522q6 -46 6 -92q0 -124 -69 -217t-191 -149h592q141 0 218.5 21.5t122 74t73.5 156.5z" />
    <glyph glyph-name="yen.osf" horiz-adv-x="1388" 
d="M817 1184h512v-4q-79 -9 -150 -76t-198 -256l-217 -334h350l-4 -20h-352v-230h356l-4 -20h-352v-2q0 -139 48.5 -187t194.5 -51v-4h-630v4q146 3 194.5 51t48.5 187v2h-350l4 20h346v225l-2 5h-348l4 20h330l-301 455q-78 119 -123.5 160.5t-114.5 50.5v4h570v-4
q-106 -10 -151.5 -38.5t-45.5 -82.5q0 -47 72 -148l248 -366l198 299q94 143 94 196q0 65 -54 99t-173 41v4z" />
    <glyph glyph-name="percent.osf" horiz-adv-x="1941" 
d="M543 -49l-19 12l873 1167l16 -12zM516 479q-139 0 -224 86t-85 226q0 141 84.5 226t224.5 85q138 0 222.5 -85t84.5 -226q0 -140 -84.5 -226t-222.5 -86zM516 498q88 0 140.5 80.5t52.5 212.5q0 133 -52.5 212.5t-140.5 79.5q-89 0 -141.5 -79t-52.5 -213
q0 -133 52.5 -213t141.5 -80zM1425 -23q-138 0 -222.5 86t-84.5 226t84.5 225.5t222.5 85.5t223 -86t85 -225q0 -140 -85 -226t-223 -86zM1425 -4q88 0 141.5 80.5t53.5 212.5t-53.5 212.5t-141.5 80.5t-141 -80.5t-53 -212.5t53 -212.5t141 -80.5z" />
    <glyph glyph-name="perthousand.osf" horiz-adv-x="2680" 
d="M543 -49l-19 12l873 1167l16 -12zM516 479q-139 0 -224 86t-85 226q0 141 84.5 226t224.5 85q138 0 222.5 -85t84.5 -226q0 -140 -84.5 -226t-222.5 -86zM516 498q88 0 140.5 80.5t52.5 212.5q0 133 -52.5 212.5t-140.5 79.5q-89 0 -141.5 -79t-52.5 -213
q0 -133 52.5 -213t141.5 -80zM1425 -23q-138 0 -222.5 86t-84.5 226t84.5 225.5t222.5 85.5t223 -86t85 -225q0 -140 -85 -226t-223 -86zM2167 -23q-138 0 -222.5 86t-84.5 226t84.5 225.5t222.5 85.5t222.5 -85.5t84.5 -225.5t-84.5 -226t-222.5 -86zM1425 -4
q88 0 141.5 80.5t53.5 212.5t-53.5 212.5t-141.5 80.5t-141 -80.5t-53 -212.5t53 -212.5t141 -80.5zM2167 -4q87 0 139.5 80.5t52.5 212.5t-52.5 212.5t-139.5 80.5q-88 0 -141.5 -80.5t-53.5 -212.5t53.5 -212.5t141.5 -80.5z" />
    <glyph glyph-name="at.case" horiz-adv-x="2070" 
d="M907 707l377 139v151q0 109 -54 167.5t-155 58.5q-70 0 -140.5 -27t-119.5 -68v-266q-28 -14 -59 -14q-34 0 -56 24.5t-22 65.5q0 70 44.5 132t112 102.5t145 64t146.5 23.5q142 0 217.5 -75.5t75.5 -215.5v-547q0 -61 32.5 -96t90.5 -35q158 0 256 167.5t98 442.5
q0 175 -56.5 323.5t-156 250.5t-238.5 159.5t-300 57.5q-293 0 -514 -128t-340 -362.5t-119 -544.5q0 -407 209.5 -632.5t587.5 -225.5q225 0 429.5 66.5t332.5 177.5l2 -4q-130 -121 -335.5 -192.5t-428.5 -71.5q-389 0 -607.5 232.5t-218.5 649.5q0 237 71 434.5
t200.5 335t317 213.5t413.5 76q168 0 312 -59t247.5 -164.5t162 -257.5t58.5 -332q0 -294 -112.5 -474.5t-296.5 -180.5q-102 0 -167 53.5t-65 140.5q-210 -194 -399 -194q-121 0 -191.5 57.5t-70.5 153.5q0 81 64.5 136t219.5 112zM770 471q0 -75 46.5 -120.5t123.5 -45.5
q78 0 159.5 41t184.5 121v354l-240 -88q-144 -54 -209 -117t-65 -145z" />
    <glyph glyph-name="uni0308.case" 
d="M-770 1671q-43 0 -71.5 28.5t-28.5 69.5q0 43 28.5 72t71.5 29t71.5 -29t28.5 -72q0 -41 -28.5 -69.5t-71.5 -28.5zM-360 1671q-43 0 -72 28.5t-29 69.5q0 43 29 72t72 29t71.5 -29t28.5 -72q0 -41 -28.5 -69.5t-71.5 -28.5z" />
    <glyph glyph-name="uni0307.case" 
d="M-360 1665q-47 0 -79 31.5t-32 77.5q0 47 31.5 77.5t79.5 30.5q47 0 78.5 -30.5t31.5 -77.5q0 -46 -31.5 -77.5t-78.5 -31.5z" />
    <glyph glyph-name="gravecomb.case" 
d="M-240 1604q-314 76 -383 108q-51 22 -51 76q0 34 23 58t57 24q24 0 41 -10q114 -54 315 -252z" />
    <glyph glyph-name="acutecomb.case" 
d="M-653 1604l-2 4q201 198 315 252q18 10 41 10q34 0 57 -24t23 -58q0 -54 -51 -76q-69 -32 -383 -108z" />
    <glyph glyph-name="uni030B.case" 
d="M-905 1593l-2 4q168 227 270 299q34 19 51 19q31 0 55.5 -24.5t24.5 -57.5q0 -43 -41 -72q-53 -40 -358 -168zM-571 1593l-2 4q168 227 270 299q34 19 51 19q31 0 55.5 -24.5t24.5 -57.5q0 -47 -41 -72q-53 -40 -358 -168z" />
    <glyph glyph-name="uni0302.case" 
d="M-268 1608l-2 -4l-295 135l-295 -135l-2 4l295 262h4z" />
    <glyph glyph-name="uni030C.case" 
d="M-270 1870l2 -4l-295 -262h-4l-295 262l2 4l295 -137z" />
    <glyph glyph-name="uni0306.case" 
d="M-553 1604q-93 0 -179.5 69.5t-127.5 188.5l4 2q60 -66 139 -104t164 -38q84 0 164 38t141 104l4 -2q-43 -119 -129.5 -188.5t-179.5 -69.5z" />
    <glyph glyph-name="uni030A.case" 
d="M-553 1573q-94 0 -151.5 52.5t-57.5 139.5q0 88 57.5 141.5t151.5 53.5t151.5 -53.5t57.5 -141.5q0 -87 -57.5 -139.5t-151.5 -52.5zM-553 1597q81 0 130.5 46.5t49.5 121.5q0 76 -49.5 123t-130.5 47t-130.5 -47t-49.5 -123q0 -75 49.5 -121.5t130.5 -46.5z" />
    <glyph glyph-name="tildecomb.case" 
d="M-436 1599q-86 0 -209 84q-40 25 -63 38.5t-58.5 26.5t-64.5 13q-123 0 -175 -145l-4 2q12 102 74.5 177t144.5 75q78 0 201 -84q42 -26 66.5 -39.5t61 -26t69.5 -12.5q121 0 172 143l4 -2q-13 -102 -74 -176t-145 -74z" />
    <glyph glyph-name="uni0304.case" 
d="M-872 1696l4 20h661l-4 -20h-661z" />
    <glyph glyph-name="uni0304.narrow.case" 
d="M-811 1698l4 20h539l-4 -20h-539z" />
    <glyph glyph-name="uni0308.narrow" 
d="M-715 1397q-41 0 -68.5 27.5t-27.5 68.5q0 43 27.5 70.5t68.5 27.5t69 -27.5t28 -70.5q0 -41 -28 -68.5t-69 -27.5zM-416 1397q-41 0 -68.5 27.5t-27.5 68.5q0 43 27.5 70.5t68.5 27.5q42 0 69.5 -27.5t27.5 -70.5q0 -41 -28 -68.5t-69 -27.5z" />
    <glyph glyph-name="uni0304.narrow" 
d="M-811 1462l4 21h539l-4 -21h-539z" />
    </font>
</defs>
</svg>
