<?xml version="1.0" standalone="no"?>
<!DOCTYPE svg PUBLIC "-//W3C//DTD SVG 1.1//EN" "http://www.w3.org/Graphics/SVG/1.1/DTD/svg11.dtd" >
<svg xmlns="http://www.w3.org/2000/svg" xmlns:xlink="http://www.w3.org/1999/xlink" version="1.1">
<metadata>
Created by FontForge 20170731 at Fri Mar 31 05:53:59 2023
 By Aleksey,,,
Copyright (c) 2019 by Alberto Romanos. All rights reserved.
</metadata>
<defs>
<font id="BwBeto-MediumItalic" horiz-adv-x="0" >
  <font-face 
    font-family="Bw Beto Medium Italic"
    font-weight="500"
    font-style="italic"
    font-stretch="normal"
    units-per-em="2048"
    panose-1="0 0 6 0 0 0 0 0 0 0"
    ascent="1638"
    descent="-410"
    x-height="1098"
    cap-height="1497"
    bbox="-971 -477 2521 1987"
    underline-thickness="102"
    underline-position="-307"
    slope="-10"
    unicode-range="U+000D-FB02"
  />
<missing-glyph horiz-adv-x="2541" 
d="M178 -20q-15 0 -25 10.5t-10 25.5q0 20 11 31l700 698h-664q-47 0 -47 39q0 18 15 33l696 701h-670q-41 0 -41 38v3q0 38 41 38h758q47 0 47 -41q0 -18 -16 -34l-699 -697h676q17 0 29 -12t12 -29v-669l695 692q16 16 34 16q37 0 37 -45v-663l697 692q16 16 32 16
q15 0 25 -12t10 -27q0 -16 -12 -28l-754 -762q-14 -14 -35 -14q-41 0 -41 47v663l-694 -696q-14 -14 -35 -14q-41 0 -41 47v663l-696 -696q-14 -14 -35 -14z" />
    <glyph glyph-name="fi" unicode="fi" horiz-adv-x="1325" 
d="M770 1087l-39 -106h-225l-152 -846q-38 -215 -166.5 -371t-300.5 -194l-6 47q96 68 151.5 170t80.5 250l166 944h-158l14 76l162 22q31 131 108.5 259t184 214t205.5 86q42 0 68 -26t26 -70q0 -36 -27 -98h-305q-41 -56 -64 -105.5t-34 -115.5q-6 -99 63 -136h248z
M1171 1593q60 0 99 -37t39 -94q0 -63 -44 -105t-110 -42q-59 0 -98 36.5t-39 94.5q0 63 44 105t109 42zM1077 119q56 0 150 231l35 -18q-52 -167 -133 -259.5t-173 -92.5q-65 0 -103 32t-38 97q0 20 6 47l133 743q2 18 2 35q0 20 -6.5 27.5t-21.5 7.5q-27 0 -65.5 -60.5
t-82.5 -171.5l-37 19q54 167 135.5 259.5t172.5 92.5q65 0 102 -31t37 -96q0 -13 -4 -49l-133 -744q-4 -18 -4 -34q0 -35 28 -35z" />
    <glyph glyph-name="fl" unicode="fl" horiz-adv-x="1284" 
d="M1032 119q56 0 150 231l35 -18q-52 -167 -133 -259.5t-173 -92.5q-65 0 -103 32t-38 97q0 20 6 47l209 1183q9 49 -19.5 65.5t-123.5 16.5h-277q-39 -51 -61 -95t-33 -105q-6 -96 51 -134h254l-39 -106h-231l-152 -846q-38 -215 -166.5 -371t-300.5 -194l-6 39
q96 69 150.5 172t81.5 256l166 944h-158l14 76l162 22q25 96 80.5 192.5t127 173t159.5 125t170 48.5q52 0 84 -28t32 -74q0 -13 -2 -19q185 62 309 137h5l-254 -1446q-4 -18 -4 -34q0 -35 28 -35z" />
    <glyph glyph-name=".notdef" horiz-adv-x="2541" 
d="M178 -20q-15 0 -25 10.5t-10 25.5q0 20 11 31l700 698h-664q-47 0 -47 39q0 18 15 33l696 701h-670q-41 0 -41 38v3q0 38 41 38h758q47 0 47 -41q0 -18 -16 -34l-699 -697h676q17 0 29 -12t12 -29v-669l695 692q16 16 34 16q37 0 37 -45v-663l697 692q16 16 32 16
q15 0 25 -12t10 -27q0 -16 -12 -28l-754 -762q-14 -14 -35 -14q-41 0 -41 47v663l-694 -696q-14 -14 -35 -14q-41 0 -41 47v663l-696 -696q-14 -14 -35 -14z" />
    <glyph glyph-name=".null" 
 />
    <glyph glyph-name="nonmarkingreturn" horiz-adv-x="682" 
 />
    <glyph glyph-name="CR" unicode="&#xd;" horiz-adv-x="512" 
 />
    <glyph glyph-name="space" unicode=" " horiz-adv-x="512" 
 />
    <glyph glyph-name="exclam" unicode="!" horiz-adv-x="602" 
d="M262 459q22 193 19 440q-7 298 20 465q10 76 58 115t114 39q58 0 89.5 -30.5t31.5 -84.5q0 -74 -44.5 -219t-92.5 -250q-111 -311 -146 -475h-49zM225 -20q-76 0 -122 43t-46 112q0 72 53.5 124t127.5 52q76 0 122 -43.5t46 -113.5q0 -71 -54 -122.5t-127 -51.5z" />
    <glyph glyph-name="quotedbl" unicode="&#x22;" horiz-adv-x="794" 
d="M258 985l10 610l273 43h4l-234 -647zM621 985l10 610l270 43h4l-233 -647z" />
    <glyph glyph-name="numbersign" unicode="#" horiz-adv-x="1253" 
d="M1206 780h-252l-120 -352h251l-24 -72h-252l-121 -356h-78l123 356h-366l-123 -356h-76l123 356h-244l23 72h245l119 352h-244l25 74h246l114 336h76l-114 -336h366l115 336h76l-115 -336h252zM758 428l119 352h-367l-119 -352h367z" />
    <glyph glyph-name="dollar" unicode="$" horiz-adv-x="1200" 
d="M1083 979q-25 166 -99.5 282.5t-178.5 155.5l-94 -534l32 -21q63 -39 99 -62.5t87 -65t78 -78t47.5 -88.5t20.5 -109q0 -199 -150 -333.5t-380 -145.5l-35 -199l-82 14l33 187q-59 7 -138 38t-118 31q-43 0 -74 -61h-29l-8 542l51 13q28 -204 116 -331.5t214 -147.5
l109 598q-60 35 -99 60.5t-87.5 67t-77 81t-48.5 95.5t-20 119q0 186 133.5 308.5t335.5 122.5h16l29 165l82 -14l-29 -164q27 -8 92 -35.5t99 -27.5q23 0 39 13.5t36 51.5h27l21 -516zM637 930l86 506h-16q-109 0 -183.5 -66.5t-74.5 -171.5q0 -81 49 -144t139 -124z
M862 358q0 81 -52 139.5t-153 120.5l-98 -555q136 11 219.5 91.5t83.5 203.5z" />
    <glyph glyph-name="percent" unicode="%" horiz-adv-x="1796" 
d="M264 -59l-49 51l1440 1567l49 -54zM440 645q-119 0 -186.5 83.5t-67.5 227.5q0 148 55 275.5t148.5 202.5t202.5 75q119 0 186.5 -83.5t67.5 -227.5q0 -148 -55 -275.5t-148.5 -202.5t-202.5 -75zM449 696q49 0 102 93.5t87 231t34 259.5q0 83 -23 130.5t-67 47.5
q-48 0 -100.5 -93.5t-87 -231.5t-34.5 -261q0 -84 23 -130t66 -46zM1290 -12q-120 0 -188 84t-68 229q0 147 55.5 274t149.5 202t203 75q118 0 186 -84t68 -227q0 -148 -55.5 -275.5t-149 -202.5t-201.5 -75zM1298 39q49 0 102 94t87.5 232t34.5 260q0 83 -23 129.5
t-67 46.5q-48 0 -101 -93t-88 -231t-35 -262q0 -83 23.5 -129.5t66.5 -46.5z" />
    <glyph glyph-name="ampersand" unicode="&#x26;" horiz-adv-x="1474" 
d="M1458 743l39 -10q-32 -111 -109 -192.5t-163 -81.5q-40 0 -92 18q-63 -226 -221 -361.5t-361 -135.5q-220 0 -348.5 91.5t-128.5 245.5q0 187 123.5 326.5t341.5 202.5q-86 48 -135.5 120.5t-49.5 155.5q0 111 67 202t184 142.5t259 51.5q152 0 240 -78t88 -209
q0 -104 -47.5 -165.5t-112.5 -61.5q-36 0 -57 14v395q-48 23 -111 23q-105 0 -175.5 -94t-70.5 -234q0 -78 27.5 -153.5t77.5 -131.5l-4 -6q-176 -49 -279.5 -187.5t-103.5 -320.5q0 -113 65.5 -180.5t180.5 -67.5q162 0 276.5 121.5t134.5 311.5q2 20 2 59q-77 43 -141 43
q-85 0 -141 -129l-41 10q32 112 109 193.5t163 81.5q33 0 68 -11.5t56.5 -23.5t59.5 -35q37 -22 60.5 -34t58.5 -23t68 -11q86 0 143 129z" />
    <glyph glyph-name="quotesingle" unicode="'" horiz-adv-x="434" 
d="M258 985l10 610l273 43h4l-234 -647z" />
    <glyph glyph-name="parenleft" unicode="(" horiz-adv-x="720" 
d="M502 -477q-420 338 -420 848q0 389 209.5 732.5t593.5 582.5l24 -35q-280 -223 -449 -598t-169 -774q0 -224 64.5 -407.5t185.5 -313.5z" />
    <glyph glyph-name="parenright" unicode=")" horiz-adv-x="718" 
d="M-141 -477l-25 35q281 226 450 600t169 772q0 225 -65 407.5t-185 313.5l37 35q201 -161 311.5 -374.5t110.5 -473.5q0 -388 -211 -732t-592 -583z" />
    <glyph glyph-name="asterisk" unicode="*" horiz-adv-x="1058" 
d="M1092 1327q6 -32 -14.5 -63t-55.5 -41q-76 -22 -342 -49q166 -181 199 -234q17 -30 5 -62.5t-46 -54.5q-31 -20 -63.5 -15.5t-49.5 32.5q-32 56 -96 297q-136 -222 -203 -297q-27 -28 -60.5 -32.5t-54.5 15.5q-28 23 -28 56t26 61q53 58 279 234q-253 25 -324 49
q-31 11 -40.5 41.5t7.5 62.5q17 34 50 49.5t65 5.5q60 -20 268 -155q-4 242 2 301q1 54 30.5 82t70.5 28q31 0 51 -18t20 -47q0 -55 -114 -344q24 13 66.5 34.5t61.5 31t49.5 25t46.5 23t36.5 16.5t35 14.5t27.5 8.5q37 10 63.5 -5.5t31.5 -49.5z" />
    <glyph glyph-name="plus" unicode="+" horiz-adv-x="970" 
d="M887 643l-15 -82h-340l-57 -332h-92l59 332h-338l15 82h338l59 332h90l-57 -332h338z" />
    <glyph glyph-name="comma" unicode="," horiz-adv-x="552" 
d="M18 -365l-16 48q84 44 139.5 110.5t55.5 130.5q0 48 -35 80.5t-94 36.5q-21 30 -21 74q0 78 56 137t130 59t117 -50t43 -134q0 -141 -106.5 -281.5t-268.5 -210.5z" />
    <glyph glyph-name="hyphen" unicode="-" horiz-adv-x="976" 
d="M137 549l39 106h684l-39 -106h-684z" />
    <glyph glyph-name="period" unicode="." horiz-adv-x="550" 
d="M215 -20q-75 0 -121.5 43t-46.5 112q0 72 53 124t127 52q76 0 122 -43.5t46 -113.5q0 -71 -53.5 -122.5t-126.5 -51.5z" />
    <glyph glyph-name="slash" unicode="/" horiz-adv-x="1036" 
d="M0 -221l-70 35l1172 1845l67 -35z" />
    <glyph glyph-name="zero" unicode="0" horiz-adv-x="1341" 
d="M573 -20q-205 0 -320.5 146.5t-115.5 399.5q0 198 57 381.5t152 317t225.5 213.5t272.5 80q203 0 318.5 -147t115.5 -400q0 -159 -36 -309.5t-102 -272.5t-153 -214.5t-194 -143.5t-220 -51zM588 61q103 0 206.5 154t168.5 391.5t65 468.5q0 169 -52 265t-147 96
q-104 0 -208 -153.5t-169 -390.5t-65 -468q0 -170 52.5 -266.5t148.5 -96.5z" />
    <glyph glyph-name="one" unicode="1" horiz-adv-x="854" 
d="M498 174q0 -65 43.5 -91.5t152.5 -31.5l-10 -51h-682l10 51q133 6 184 44.5t70 146.5l154 856q6 44 6 63q0 32 -13.5 48t-47.5 16q-48 0 -152 -37l-12 49q308 155 528 297h4l-227 -1292q-8 -39 -8 -68z" />
    <glyph glyph-name="two" unicode="2" horiz-adv-x="1284" 
d="M1133 547l51 -12l-164 -545q-212 10 -684 10h-383v6q118 116 330 289q84 70 134 112.5t123.5 109t117 114t95 111t79 116.5t46.5 114t19 120q0 99 -57 156t-156 57q-116 0 -230.5 -79.5t-191.5 -211.5l-41 24q110 215 284 347.5t343 132.5q150 0 236.5 -79.5t86.5 -213.5
q0 -60 -14 -119t-34 -109t-58.5 -106t-72 -98t-91.5 -96t-98.5 -89.5t-111.5 -90t-113 -85t-119 -86.5q-91 -64 -180 -129h419q64 0 108.5 4.5t87.5 17.5t74 36t61 60t54.5 88.5t49.5 123.5z" />
    <glyph glyph-name="three" unicode="3" horiz-adv-x="1120" 
d="M1186 1497v-4l-533 -575q169 -44 260 -136t91 -217q0 -246 -261 -402.5t-714 -182.5l2 55q333 31 527 149.5t194 292.5q0 102 -91 160.5t-276 85.5l-2 4l500 553h-295q-70 0 -116 -8.5t-90.5 -34.5t-81 -73t-77.5 -126l-47 13l203 481h4q76 -22 219.5 -28.5t401.5 -6.5
h182z" />
    <glyph glyph-name="four" unicode="4" horiz-adv-x="1273" 
d="M899 420l-35 -199q-6 -37 -6 -61q0 -58 37 -81t133 -28l-8 -51h-666l8 51q141 8 195 49.5t76 161.5l29 158h-648v6l904 1071h172l-177 -995q171 0 304 10h4l-37 -92h-285zM168 502h508l133 762z" />
    <glyph glyph-name="five" unicode="5" horiz-adv-x="1103" 
d="M1073 1280h-631l-110 -260q335 -39 497 -142.5t162 -285.5q0 -259 -257.5 -421.5t-719.5 -190.5l2 55q334 32 527.5 153t193.5 299q0 130 -144.5 203.5t-436.5 106.5v6l286 694h148q246 0 371 8t213 33h4z" />
    <glyph glyph-name="six" unicode="6" horiz-adv-x="1226" 
d="M764 874q171 0 274 -94t103 -250q0 -153 -80.5 -279.5t-220.5 -198.5t-310 -72q-199 0 -313.5 123.5t-114.5 330.5q0 147 55 289.5t151 261.5t226.5 222.5t281 181.5t314.5 129l11 -45q-235 -103 -421 -286.5t-280 -412.5q151 100 324 100zM547 61q84 0 162.5 71
t126 185.5t47.5 235.5q0 104 -50.5 164.5t-136.5 60.5q-76 0 -158.5 -36.5t-142.5 -96.5q-39 -144 -39 -285q0 -138 50.5 -218.5t140.5 -80.5z" />
    <glyph glyph-name="seven" unicode="7" horiz-adv-x="1173" 
d="M1313 1497l2 -4q-296 -379 -494 -715t-301 -657q-24 -72 -64.5 -106.5t-105.5 -34.5q-94 0 -94 86q0 78 86 233t221.5 338.5t264 342.5t251.5 300h-530q-55 0 -93.5 -5t-76.5 -19.5t-68.5 -42t-62 -70t-64.5 -105.5l-47 13l205 481h4q68 -20 202 -27.5t417 -7.5h348z" />
    <glyph glyph-name="eight" unicode="8" horiz-adv-x="1249" 
d="M825 834q66 -39 111 -71t92 -78t70.5 -100.5t23.5 -117.5q0 -136 -79.5 -248t-217.5 -175.5t-305 -63.5q-208 0 -328 86t-120 233q0 146 118 259.5t293 170.5q-100 67 -156.5 146t-56.5 190q0 197 147 325t374 128q183 0 291 -77t108 -208t-103.5 -237t-261.5 -162z
M776 1436q-126 0 -207.5 -71t-81.5 -181q0 -50 20.5 -94t62 -82.5t82 -66.5t102.5 -64q99 58 175.5 160.5t76.5 205.5q0 88 -62.5 140.5t-167.5 52.5zM535 61q153 0 254.5 81.5t101.5 205.5q0 29 -8.5 56.5t-20.5 49t-36 45.5t-42 39.5t-53.5 39t-55.5 35.5t-61 36l-61 35
q-126 -75 -209.5 -180t-83.5 -215q0 -103 74 -165.5t201 -62.5z" />
    <glyph glyph-name="nine" unicode="9" horiz-adv-x="1220" 
d="M756 1518q203 0 318.5 -123t115.5 -334q0 -218 -118.5 -431.5t-331.5 -384t-484 -265.5l-12 45q213 108 377 301.5t247 425.5q-72 -51 -160 -80t-176 -29q-170 0 -274 93t-104 247q0 148 79 271t217.5 193.5t305.5 70.5zM903 872q33 123 33 261q0 141 -52 222t-145 81
q-82 0 -158 -69.5t-121.5 -180.5t-45.5 -228q0 -100 50 -159.5t136 -59.5q79 0 162 37t141 96z" />
    <glyph glyph-name="colon" unicode=":" horiz-adv-x="604" 
d="M367 776q-76 0 -122 44t-46 114q0 71 53.5 122.5t126.5 51.5q75 0 121.5 -43.5t46.5 -112.5q0 -72 -53 -124t-127 -52zM227 -20q-76 0 -122 43t-46 112q0 72 53.5 124t127.5 52q75 0 121.5 -44t46.5 -113q0 -71 -54 -122.5t-127 -51.5z" />
    <glyph glyph-name="semicolon" unicode=";" horiz-adv-x="618" 
d="M371 776q-76 0 -122 44t-46 114q0 71 53.5 122.5t126.5 51.5q75 0 121.5 -43.5t46.5 -112.5q0 -72 -53 -124t-127 -52zM33 -365l-17 48q84 44 139.5 110.5t55.5 130.5q0 48 -35 80.5t-94 36.5q-21 30 -21 74q0 78 56.5 137t130.5 59t117 -50t43 -134
q0 -141 -106.5 -281.5t-268.5 -210.5z" />
    <glyph glyph-name="less" unicode="&#x3c;" horiz-adv-x="970" 
d="M807 285l-717 282l12 70l822 305l-17 -90l-663 -248l579 -229z" />
    <glyph glyph-name="equal" unicode="=" horiz-adv-x="970" 
d="M131 709l14 82h768l-16 -82h-766zM80 414l14 82h766l-14 -82h-766z" />
    <glyph glyph-name="greater" unicode="&#x3e;" horiz-adv-x="970" 
d="M72 285l16 90l662 229l-578 248l16 90l713 -305l-12 -70z" />
    <glyph glyph-name="question" unicode="?" horiz-adv-x="878" 
d="M414 1518q124 0 230.5 -67t166 -172.5t59.5 -219.5q0 -177 -138 -281t-372 -119q-29 -108 -47 -200h-49q3 215 -14 407l6 4q239 5 376.5 74.5t137.5 190.5q0 104 -104 188h-424q-6 18 -6 39q0 69 52 112.5t126 43.5zM260 311q75 0 121.5 -44t46.5 -113
q0 -71 -53.5 -122.5t-126.5 -51.5q-76 0 -122 43t-46 112q0 72 53 124t127 52z" />
    <glyph glyph-name="at" unicode="@" horiz-adv-x="2013" 
d="M1149 223q0 22 6 49l47 267q-101 -263 -204.5 -378.5t-243.5 -115.5q-98 0 -154.5 83t-56.5 224q0 191 70 354t192.5 259t269.5 96q116 0 203 -64q139 26 217 64h2l-137 -782q-2 -12 -2 -31q0 -78 90 -78q104 0 198.5 96.5t151.5 255t57 332.5q0 265 -176 423.5
t-467 158.5q-209 0 -400.5 -89.5t-329.5 -240.5t-220 -359t-82 -436q0 -314 176 -481.5t504 -167.5q200 0 397 57t334 152l21 -43q-148 -117 -356 -187.5t-410 -70.5q-372 0 -574 188.5t-202 536.5q0 250 91.5 476.5t246 390t369 260t450.5 96.5q328 0 527.5 -176
t199.5 -470q0 -217 -81.5 -408.5t-219 -305t-293.5 -113.5q-95 0 -153 46t-58 132zM864 184q94 0 188.5 165t207.5 523q-20 58 -64.5 88.5t-99.5 30.5q-91 0 -169.5 -80t-123.5 -213t-45 -284q0 -105 28.5 -167.5t77.5 -62.5z" />
    <glyph glyph-name="A" unicode="A" horiz-adv-x="1513" 
d="M1255 205q19 -89 52.5 -119.5t128.5 -34.5l-9 -51h-671l8 51q136 11 183.5 35.5t47.5 87.5q0 20 -12 90l-45 230h-541l-59 -109q-39 -75 -55.5 -108.5t-31.5 -73.5t-15 -64q0 -43 42 -63t138 -25l-8 -51h-504l10 51q98 10 157.5 62t135.5 190l547 1002l-19 88
q95 42 213 125h37zM442 578h482l-127 657z" />
    <glyph glyph-name="B" unicode="B" horiz-adv-x="1513" 
d="M1104 778q141 -29 220 -109.5t79 -197.5q0 -131 -77.5 -239t-213.5 -170t-301 -62h-831l8 51q117 6 161.5 40t61.5 130l186 1055q6 38 6 61q0 58 -37 81t-133 28l11 51h782q191 0 302.5 -83.5t111.5 -225.5q0 -141 -92 -251.5t-244 -158.5zM936 1415h-274l-107 -606h274
q151 0 249 107t98 270q0 106 -62.5 167.5t-177.5 61.5zM739 82q171 0 286.5 113.5t115.5 281.5q0 115 -72.5 182.5t-202.5 67.5h-327l-93 -526q-4 -40 -4 -54q0 -38 21 -51.5t76 -13.5h200z" />
    <glyph glyph-name="C" unicode="C" horiz-adv-x="1394" 
d="M643 -20q-244 0 -383 154t-139 417q0 199 65.5 378t176.5 308t266 205t327 76q63 0 123 -18t104 -36t68 -18t38.5 12t31.5 49h25l20 -534l-49 -15q-37 246 -135.5 362t-245.5 116q-153 0 -281.5 -104.5t-203 -285t-74.5 -395.5q0 -234 108.5 -370t300.5 -136
q123 0 254.5 74t216.5 195l39 -25q-105 -184 -284 -296.5t-369 -112.5z" />
    <glyph glyph-name="D" unicode="D" horiz-adv-x="1615" 
d="M940 1497q291 0 459 -158.5t168 -427.5q0 -152 -44 -292t-125.5 -251.5t-190.5 -194.5t-246 -128t-285 -45h-696l8 51q117 6 161.5 40t61.5 130l186 1055q6 38 6 61q0 58 -37 81t-133 28l11 51h696zM643 82q181 0 334.5 115.5t242.5 313t89 429.5q0 220 -110.5 347.5
t-309.5 127.5h-227l-216 -1214q-4 -27 -4 -54q0 -38 19 -51.5t69 -13.5h113z" />
    <glyph glyph-name="E" unicode="E" horiz-adv-x="1476" 
d="M1364 565l51 -22l-270 -553q-133 10 -397 10h-768l8 51q117 6 161.5 40t61.5 130l186 1055q6 38 6 61q0 58 -37 81t-133 28l11 51h725q253 0 383 10l59 -532l-51 -21q-16 120 -42.5 201.5t-62.5 133t-94 79t-123.5 37.5t-165.5 10h-210l-107 -606h150q56 0 91.5 11
t71 45.5t65 99t62.5 172.5h49q-85 -433 -133 -758h-49q2 37 2 96q0 104 -19 159t-54.5 74t-102.5 19h-147l-92 -516q-7 -47 -7 -59q0 -39 21 -54.5t74 -15.5h184q77 0 132.5 6.5t113 25.5t103 52t94.5 87t97 130t103 182z" />
    <glyph glyph-name="F" unicode="F" horiz-adv-x="1347" 
d="M1333 1507l60 -532l-52 -21q-11 86 -27.5 151t-37.5 114.5t-52 83.5t-65 56t-83 34.5t-100.5 17t-121.5 4.5h-192l-111 -627h137q76 0 122.5 24.5t87 95t81.5 208.5h49q-85 -433 -133 -758h-49q4 74 4 99q0 102 -18.5 156.5t-54.5 74t-103 19.5h-137l-80 -445
q-8 -44 -8 -78q0 -71 44.5 -99t157.5 -34l-8 -51h-663l8 51q117 6 161.5 40t61.5 130l186 1055q6 38 6 61q0 58 -37 81t-133 28l11 51h706q253 0 383 10z" />
    <glyph glyph-name="G" unicode="G" horiz-adv-x="1550" 
d="M877 668h663l-8 -52q-105 -5 -146.5 -37t-56.5 -122l-61 -342q-54 -7 -168 -47q-234 -88 -387 -88q-276 0 -434 159.5t-158 431.5q0 196 68.5 371t185 301.5t280 200.5t346.5 74q75 0 138.5 -19t111 -38t82.5 -19q26 0 43 13.5t37 51.5h27l-43 -534l-51 -8
q-6 226 -97.5 348.5t-251.5 122.5q-166 0 -308.5 -123.5t-226 -333t-83.5 -451.5q0 -217 92.5 -342t255.5 -125q153 0 313 113l41 232q6 47 6 73q0 73 -47.5 102t-171.5 35z" />
    <glyph glyph-name="H" unicode="H" horiz-adv-x="1640" 
d="M1108 1497h627l-11 -51q-116 -6 -161 -40t-62 -130l-186 -1055q-6 -38 -6 -61q0 -58 37.5 -81t132.5 -28l-9 -51h-626l10 51q116 6 161 40.5t62 129.5l90 506h-626l-90 -506q-7 -44 -7 -61q0 -58 37 -81t133 -28l-8 -51h-626l8 51q117 6 161.5 40t61.5 130l186 1055
q6 38 6 61q0 58 -37 81t-133 28l11 51h626l-10 -51q-116 -6 -161 -40t-62 -130l-82 -467h627l82 467q6 38 6 61q0 58 -38 81t-134 28z" />
    <glyph glyph-name="I" unicode="I" horiz-adv-x="776" 
d="M244 1497h626l-10 -51q-116 -6 -161 -40t-62 -130l-186 -1055q-7 -44 -7 -61q0 -58 37 -81t133 -28l-8 -51h-626l8 51q117 6 161.5 40t61.5 130l186 1055q6 38 6 61q0 58 -37 81t-133 28z" />
    <glyph glyph-name="J" unicode="J" horiz-adv-x="745" 
d="M233 1497h627l-10 -51q-117 -6 -162.5 -40.5t-62.5 -129.5l-154 -879q-38 -219 -183.5 -390.5t-342.5 -231.5l-8 39q116 77 181 189.5t97 293.5l172 979q6 38 6 61q0 58 -37.5 81t-132.5 28z" />
    <glyph glyph-name="K" unicode="K" horiz-adv-x="1552" 
d="M444 160q0 -58 37 -81t133 -28l-8 -51h-626l8 51q117 6 161.5 40t61.5 130l186 1055q6 38 6 61q0 58 -37 81t-133 28l11 51h626l-10 -51q-116 -6 -161 -40t-62 -130l-186 -1055q-7 -44 -7 -61zM1591 1446q-79 -2 -142.5 -27t-152.5 -106l-456 -414q194 -367 303 -540.5
t181 -237t159 -70.5l-10 -51h-181q-62 0 -108 10.5t-97.5 42.5t-97.5 85t-105.5 144t-125 213t-152.5 298l492 442q121 105 121 149q0 28 -38.5 43t-125.5 19l10 51h534z" />
    <glyph glyph-name="L" unicode="L" horiz-adv-x="1368" 
d="M1294 561l47 -18l-270 -553q-133 10 -379 10h-712l8 51q117 6 161.5 40t61.5 130l186 1055q6 38 6 61q0 58 -37 81t-133 28l11 51h663l-10 -51q-140 -8 -193 -47.5t-73 -153.5l-185 -1044q-4 -25 -4 -56q0 -36 18 -49.5t64 -13.5h142q89 0 151 9.5t126.5 37.5t118 81
t111.5 139t121 212z" />
    <glyph glyph-name="M" unicode="M" horiz-adv-x="1984" 
d="M1790 1303l-98 -1078q-2 -23 -2 -47q0 -66 38 -94.5t142 -32.5l-10 -51h-664l10 51q141 6 191 44.5t59 150.5l94 1005l-710 -1271h-37l-266 1263l-265 -983q-16 -62 -16 -98q0 -57 43 -82t150 -29l-9 -51h-510l11 51q118 6 164.5 40t74.5 134l289 1078q8 31 8 57
q0 43 -37.5 62.5t-134.5 23.5l10 51h422l232 -1126l622 1126h414l-10 -51q-82 -4 -125 -20.5t-59 -43.5t-21 -79z" />
    <glyph glyph-name="N" unicode="N" horiz-adv-x="1546" 
d="M1149 1497h510l-8 -51q-118 -6 -163.5 -40t-62.5 -130l-229 -1296h-49l-680 1202l-164 -920q-8 -47 -8 -78q0 -72 45 -100t158 -33l-11 -51h-507l8 51q117 6 161.5 40t61.5 130l192 1082l5 45q0 52 -38 72.5t-137 25.5l11 51h338l604 -1102l149 840q8 47 8 78
q0 72 -44.5 100t-159.5 33z" />
    <glyph glyph-name="O" unicode="O" horiz-adv-x="1597" 
d="M702 -20q-270 0 -424.5 158.5t-154.5 430.5q0 195 66.5 371t180 302.5t271 201t332.5 74.5q268 0 422.5 -159t154.5 -429q0 -195 -66.5 -371.5t-179.5 -303t-270.5 -201t-331.5 -74.5zM717 61q150 0 283.5 127.5t212.5 339.5t79 449q0 212 -88.5 335.5t-245.5 123.5
q-151 0 -285.5 -127.5t-214 -339t-79.5 -447.5q0 -215 89.5 -338t248.5 -123z" />
    <glyph glyph-name="P" unicode="P" horiz-adv-x="1380" 
d="M991 1497q205 0 324 -89.5t119 -240.5q0 -142 -86.5 -257t-240 -179.5t-343.5 -64.5h-96l-2 82h94q173 0 291 122.5t118 300.5q0 112 -65.5 178t-181.5 66h-260l-205 -1153q-8 -44 -8 -78q0 -71 44.5 -99t157.5 -34l-8 -51h-663l8 51q117 6 161.5 40t61.5 130l186 1055
q6 38 6 61q0 58 -37 81t-133 28l11 51h747z" />
    <glyph glyph-name="Q" unicode="Q" horiz-adv-x="1597" 
d="M885 0q103 -151 174 -224.5t135.5 -101.5t161.5 -32l-8 -52h-158q-78 0 -130.5 7.5t-109 29.5t-107.5 66.5t-111 114.5t-134 178q-224 31 -349.5 185.5t-125.5 397.5q0 195 66.5 371t180 302.5t271 201t332.5 74.5q268 0 422.5 -159t154.5 -429q0 -170 -50.5 -326.5
t-138.5 -277.5t-211 -206.5t-265 -119.5zM379 522q0 -215 89.5 -338t248.5 -123q150 0 283.5 127.5t212.5 339.5t79 449q0 212 -88.5 335.5t-245.5 123.5q-151 0 -285.5 -127.5t-214 -339t-79.5 -447.5z" />
    <glyph glyph-name="R" unicode="R" horiz-adv-x="1540" 
d="M1036 715q67 -169 116 -280t90 -187t78.5 -116.5t72 -58.5t80.5 -22l-9 -51h-184q-76 0 -127.5 22.5t-109 96.5t-116 203.5t-141.5 353.5h-20h-236l-73 -414q-8 -44 -8 -78q0 -71 44.5 -99t157.5 -34l-8 -51h-663l8 51q117 6 161.5 40t61.5 130l186 1055q6 38 6 61
q0 58 -37 81t-133 28l11 51h747q205 0 324 -86.5t119 -234.5q0 -158 -108 -281.5t-290 -179.5zM762 758q173 0 290 119.5t117 293.5q0 112 -65.5 178t-181.5 66h-260l-117 -657h217z" />
    <glyph glyph-name="S" unicode="S" horiz-adv-x="1302" 
d="M557 -20q-76 0 -143.5 18t-118.5 36.5t-86 18.5q-26 0 -44.5 -13t-41.5 -50h-29l-8 542l51 13q32 -222 147.5 -353t278.5 -131q178 0 289 82t111 211q0 40 -18.5 76t-44 62.5t-73 56.5t-84 48.5t-98.5 47.5q-54 26 -85.5 41.5t-80.5 43.5t-78 50t-64 55.5t-54 66.5
t-32 75.5t-13 89.5q0 195 153.5 323t388.5 128q71 0 136.5 -19t115.5 -38t84 -19q25 0 42.5 14t35.5 51h29l20 -516l-49 -12q-32 205 -150.5 331t-277.5 126q-136 0 -225.5 -64.5t-89.5 -171.5q0 -44 20.5 -84.5t48 -69.5t80 -62.5t90.5 -53.5t105 -53q53 -26 83.5 -42
t78.5 -43.5t75.5 -49t61.5 -53.5t52.5 -62t31 -69t12.5 -81q0 -141 -82.5 -255t-227.5 -178t-323 -64z" />
    <glyph glyph-name="T" unicode="T" horiz-adv-x="1386" 
d="M1372 1532l58 -559l-54 -17q-19 121 -42 202t-50 132.5t-67 78.5t-83.5 36.5t-109.5 9.5h-57l-209 -1173q-6 -44 -6 -68q0 -66 42.5 -92t153.5 -31l-10 -51h-682l10 51q134 6 184.5 44.5t69.5 146.5l207 1173h-55q-84 0 -140.5 -15.5t-118 -64.5t-121.5 -139t-136 -240
l-45 17l251 559h5q67 -20 148 -27.5t251 -7.5h190q163 0 248 6.5t164 28.5h4z" />
    <glyph glyph-name="U" unicode="U" horiz-adv-x="1546" 
d="M1155 1497h510l-10 -51q-117 -6 -161.5 -39.5t-61.5 -130.5l-140 -782q-41 -238 -196 -376t-377 -138q-245 0 -368.5 103t-123.5 292q0 57 13 127l135 774q6 38 6 61q0 58 -37 81t-133 28l10 51h664l-8 -51q-139 -6 -193.5 -44.5t-73.5 -144.5l-139 -796q-8 -44 -8 -94
q0 -141 81.5 -223.5t225.5 -82.5q163 0 283.5 114t152.5 300l133 760q9 53 9 80q0 71 -44.5 98.5t-156.5 32.5z" />
    <glyph glyph-name="V" unicode="V" horiz-adv-x="1503" 
d="M1180 1497h501l-8 -51q-65 -7 -107.5 -29.5t-84.5 -72.5t-101 -150l-710 -1214h-37l-301 1312q-22 91 -57 121t-128 33l11 51h671l-8 -51q-135 -9 -184 -36t-49 -83q0 -26 14 -94l197 -895l448 774q83 149 98 191q11 30 11 51q0 44 -43.5 66t-143.5 26z" />
    <glyph glyph-name="W" unicode="W" horiz-adv-x="2150" 
d="M1806 1497h523l-9 -51q-104 -10 -165 -63.5t-130 -188.5l-620 -1214h-37l-190 1130l-590 -1130h-39l-215 1312q-13 90 -50.5 120.5t-131.5 33.5l8 51h692l-8 -51q-146 -9 -198 -38t-52 -91q0 -26 10 -84l129 -827l580 1112h37l186 -1127l358 721q7 14 23 46.5t21.5 44.5
t17 36.5t15.5 36t10 28t8 28t2 22.5q0 46 -44 66.5t-149 25.5z" />
    <glyph glyph-name="X" unicode="X" horiz-adv-x="1501" 
d="M1620 1446q-101 -10 -192 -80.5t-236 -241.5l-274 -327l247 -486q28 -56 44 -85.5t40 -67t44.5 -56t48 -33t59.5 -18.5l-8 -51h-703l10 51q131 6 186.5 33t55.5 78q0 49 -59 160l-178 346l-242 -287q-73 -87 -109.5 -143t-36.5 -95t48 -62t157 -30l-10 -51h-592l8 51
q107 14 195.5 78.5t234.5 241.5l310 370l-250 486q-27 53 -42 79.5t-36 57t-39 44.5t-42.5 24.5t-55.5 13.5l10 51h692l-8 -51q-126 -7 -178.5 -35t-52.5 -76q0 -50 49 -143l166 -324l204 244q78 94 116 151.5t38 96.5q0 78 -201 86l11 51h579z" />
    <glyph glyph-name="Y" unicode="Y" horiz-adv-x="1433" 
d="M1042 1497h576l-10 -51q-54 -6 -99 -21.5t-97.5 -50t-109 -96.5t-120.5 -154l-328 -475l-72 -407q-6 -44 -6 -68q0 -66 43 -92t154 -31l-8 -51h-684l10 51q134 6 184.5 44.5t69.5 146.5l73 411l-212 588q-39 113 -87 155t-129 50l11 51h688l-8 -51q-125 -6 -174.5 -30.5
t-49.5 -76.5q0 -37 35 -147l148 -438l247 358q73 105 105.5 162.5t32.5 93.5q0 38 -45 56.5t-148 21.5z" />
    <glyph glyph-name="Z" unicode="Z" horiz-adv-x="1406" 
d="M780 82q59 0 101.5 6t87 23.5t79.5 49.5t72.5 83.5t73 125.5t74.5 177l49 -10l-166 -547q-208 10 -682 10h-494v6l1153 1409h-409q-85 0 -143.5 -17.5t-118.5 -68t-116 -139t-126 -234.5l-47 13l231 538q185 -10 635 -10h439l2 -4l-1156 -1411h461z" />
    <glyph glyph-name="bracketleft" unicode="[" horiz-adv-x="729" 
d="M399 1665h508l-10 -51q-168 -7 -232 -54t-87 -178l-275 -1556q-8 -47 -8 -80q0 -81 54 -113.5t192 -38.5l-9 -51h-507l45 250l286 1622z" />
    <glyph glyph-name="backslash" unicode="\" horiz-adv-x="1013" 
d="M758 -221l-520 1845l81 35l521 -1845z" />
    <glyph glyph-name="bracketright" unicode="]" horiz-adv-x="729" 
d="M219 1665h508l-45 -250l-287 -1622l-43 -250h-508l11 51q167 7 231 54t86 178l274 1556q9 49 9 80q0 81 -53 113.5t-191 38.5z" />
    <glyph glyph-name="asciicircum" unicode="^" horiz-adv-x="970" 
d="M989 891h-98l-234 614l-448 -614h-98l548 747h43z" />
    <glyph glyph-name="underscore" unicode="_" horiz-adv-x="1312" 
d="M-104 -233l26 71h1239l-26 -71h-1239z" />
    <glyph glyph-name="grave" unicode="`" horiz-adv-x="886" 
d="M580 1178q-240 201 -316 295q-24 27 -24 71q0 37 31 67.5t69 30.5q58 0 90 -49q57 -83 182 -391z" />
    <glyph glyph-name="a" unicode="a" horiz-adv-x="1236" 
d="M1137 350l34 -18q-52 -167 -133 -259.5t-172 -92.5q-65 0 -103 32t-38 97q0 20 6 47l68 376q-113 -295 -228.5 -423.5t-271.5 -128.5q-110 0 -173 91t-63 248q0 213 78 394.5t214.5 288t299.5 106.5q135 0 226 -72q150 27 241 72h4l-163 -920q-5 -22 -5 -34q0 -35 29 -35
q56 0 150 231zM422 135q104 0 208.5 183t227.5 581q-20 63 -68.5 98t-109.5 35q-102 0 -189.5 -90t-137.5 -238t-50 -315q0 -118 31.5 -186t87.5 -68z" />
    <glyph glyph-name="b" unicode="b" horiz-adv-x="1159" 
d="M864 1108q110 0 173 -91.5t63 -248.5q0 -160 -49.5 -305t-133.5 -251t-201.5 -169t-248.5 -63q-159 0 -255.5 88.5t-96.5 271.5q0 62 12 133l156 891q9 50 -19 66t-125 16l8 47q237 55 404 141h4l-190 -1079q111 294 226.5 423.5t272.5 129.5zM465 55q107 0 199 90
t145 238t53 315q0 118 -32 186t-89 68q-98 0 -195.5 -162t-213.5 -516q-10 -52 -10 -77q0 -66 43 -104t100 -38z" />
    <glyph glyph-name="c" unicode="c" horiz-adv-x="1069" 
d="M870 594q-36 0 -57 14v410q-42 22 -108 22q-106 0 -197.5 -76t-145 -205t-53.5 -278q0 -159 78 -252.5t215 -93.5q83 0 173.5 47t150.5 125l28 -20q-78 -138 -212.5 -222.5t-274.5 -84.5q-185 0 -290 113t-105 308q0 196 83 358t228 255.5t319 93.5q152 0 240 -78
t88 -209q0 -104 -47.5 -165.5t-112.5 -61.5zM868 971l13 -19z" />
    <glyph glyph-name="d" unicode="d" horiz-adv-x="1236" 
d="M987 119q56 0 150 231l34 -18q-52 -167 -133 -259.5t-172 -92.5q-65 0 -103 32t-38 97q0 20 6 47l66 372q-111 -292 -226.5 -420t-271.5 -128q-110 0 -173 91t-63 248q0 213 78 394.5t214.5 288t299.5 106.5q135 0 232 -74l57 330q9 49 -19.5 65.5t-123.5 16.5l8 47
q235 55 403 141h5l-254 -1446q-5 -22 -5 -34q0 -35 29 -35zM422 135q104 0 208.5 183t227.5 581q-20 63 -68.5 98t-109.5 35q-102 0 -189.5 -90t-137.5 -238t-50 -315q0 -118 31.5 -186t87.5 -68z" />
    <glyph glyph-name="e" unicode="e" horiz-adv-x="1064" 
d="M610 135q82 0 174 48t158 126l31 -22q-82 -138 -219 -222.5t-281 -84.5q-188 0 -295.5 113.5t-107.5 307.5q0 193 84 356t228 257t314 94q147 0 232.5 -59t85.5 -158q0 -77 -56 -144t-155 -116t-224 -84t-272 -55v-9q0 -161 80.5 -254.5t222.5 -93.5zM676 1038
q-132 0 -238.5 -141t-126.5 -338q235 38 370.5 130.5t135.5 228.5q0 55 -38 87.5t-103 32.5z" />
    <glyph glyph-name="f" unicode="f" horiz-adv-x="708" 
d="M580 1444q-45 -53 -70 -102.5t-39 -120.5q-6 -96 51 -134h277l-39 -106h-254l-152 -846q-38 -215 -166.5 -371t-300.5 -194l-6 39q96 69 150.5 172t81.5 256l166 944h-158l14 76l162 22q34 134 120.5 262.5t204 212.5t226.5 84q52 0 84.5 -27.5t32.5 -74.5t-29 -92h-356z
" />
    <glyph glyph-name="g" unicode="g" horiz-adv-x="1171" 
d="M1126 1108h4l-106 -582l-10 -55q-80 -429 -302 -665t-522 -236q-74 0 -117.5 33t-43.5 88q0 31 14 59l512 2q108 85 164 238.5t78 412.5l22 175q-118 -320 -236.5 -459t-279.5 -139q-110 0 -172.5 91t-62.5 248q0 213 78 394.5t214 288t299 106.5q135 0 226 -72
q150 27 241 72zM426 135q104 0 208.5 183t227.5 581q-20 63 -68.5 98t-109.5 35q-102 0 -189.5 -90t-137.5 -238t-50 -315q0 -118 31.5 -186t87.5 -68z" />
    <glyph glyph-name="h" unicode="h" horiz-adv-x="1243" 
d="M1147 350l37 -18q-54 -168 -134.5 -260t-172.5 -92q-65 0 -102.5 32t-37.5 97q0 20 6 47l123 702q2 18 2 31q0 55 -51 55q-36 0 -84.5 -40.5t-111 -127t-142 -245.5t-162.5 -373l-28 -158h-223l239 1364q9 49 -19.5 65.5t-123.5 16.5l8 47q235 55 403 141h5l-205 -1167
q66 155 136 272.5t129 186t119.5 111t105.5 57t89 14.5q69 0 109.5 -37.5t40.5 -109.5q0 -27 -4 -52l-125 -721q-2 -18 -2 -34q0 -20 6.5 -27.5t21.5 -7.5q27 0 65.5 60t82.5 171z" />
    <glyph glyph-name="i" unicode="i" horiz-adv-x="653" 
d="M500 1593q59 0 97 -37t38 -94q0 -63 -43.5 -105t-108.5 -42q-60 0 -98.5 36.5t-38.5 94.5q0 63 44 105t110 42zM406 119q56 0 147 231l37 -18q-54 -168 -134.5 -260t-172.5 -92q-65 0 -102.5 32t-37.5 97q0 11 4 47l134 743q4 18 4 35q0 35 -29 35q-56 0 -150 -232
l-34 19q52 167 133 259.5t172 92.5q65 0 103 -31t38 -96q0 -22 -6 -49l-133 -744q-2 -18 -2 -34q0 -20 7 -27.5t22 -7.5z" />
    <glyph glyph-name="j" unicode="j" horiz-adv-x="602" 
d="M504 1593q60 0 98.5 -37t38.5 -94q0 -63 -44 -105t-110 -42q-59 0 -98 36.5t-39 94.5q0 63 44.5 105t109.5 42zM383 1108q65 0 102 -31t37 -96q0 -13 -4 -49l-141 -797q-38 -214 -167 -370.5t-300 -194.5l-8 39q96 69 151 172t82 256l152 862q2 18 2 35q0 20 -7 27.5
t-22 7.5q-26 0 -64.5 -60t-82.5 -172l-37 19q54 168 135 260t172 92z" />
    <glyph glyph-name="k" unicode="k" horiz-adv-x="1202" 
d="M1124 338l39 -16q-39 -173 -113 -257.5t-173 -84.5q-60 0 -105 28t-80 94l-270 437l131 28q144 43 226.5 116.5t82.5 160.5q0 59 -38.5 94t-102.5 35q-67 0 -145.5 -50.5t-149.5 -146.5l-135 -776h-225l241 1364q8 50 -20.5 66t-124.5 16l8 47q235 55 403 141h5
l-134 -755q86 108 195.5 168.5t216.5 60.5q109 0 176.5 -55t67.5 -144q0 -104 -109 -200t-295 -154l199 -324q29 -48 50.5 -69t43.5 -21q40 0 72 46.5t63 150.5z" />
    <glyph glyph-name="l" unicode="l" horiz-adv-x="606" 
d="M354 119q59 0 150 231l35 -18q-52 -167 -133 -259.5t-173 -92.5q-64 0 -101.5 32t-37.5 97q0 11 4 47l213 1208q9 50 -19 66t-124 16l8 47q237 55 404 141h4l-254 -1446q-4 -18 -4 -34q0 -35 28 -35z" />
    <glyph glyph-name="m" unicode="m" horiz-adv-x="1941" 
d="M1845 350l37 -18q-54 -168 -135 -260t-172 -92q-64 0 -101.5 32t-37.5 97q0 11 4 47l123 702q4 18 4 31q0 55 -51 55q-35 0 -82.5 -40.5t-109.5 -127t-140.5 -246t-161.5 -372.5l-27 -158h-227l152 858q4 18 4 31q0 55 -54 55q-35 0 -82.5 -40.5t-109.5 -127t-140 -245.5
t-161 -373l-27 -158h-225l160 899q2 18 2 35q0 20 -7 27.5t-22 7.5q-26 0 -64.5 -60t-82.5 -172l-37 19q54 168 135 260t172 92q65 0 102 -31t37 -96q0 -13 -4 -49l-82 -459q66 153 135 269t127.5 184t117.5 110.5t104 57t88 14.5q69 0 109 -37.5t40 -109.5q0 -27 -4 -52
l-76 -444q66 155 135.5 273t128 186.5t118.5 111.5t104.5 57.5t87.5 14.5q71 0 111 -37.5t40 -109.5q0 -27 -4 -52l-125 -721q-2 -18 -2 -34q0 -35 27 -35q58 0 149 231z" />
    <glyph glyph-name="n" unicode="n" horiz-adv-x="1304" 
d="M1208 350l35 -18q-52 -167 -133 -259.5t-172 -92.5q-65 0 -103 32t-38 97q0 20 6 47l123 702q4 18 4 31q0 55 -53 55q-36 0 -84.5 -40.5t-111 -127t-142 -245.5t-162.5 -373l-27 -158h-225l160 899q2 18 2 35q0 20 -7 27.5t-22 7.5q-26 0 -64.5 -60t-82.5 -172l-37 19
q54 168 135 260t172 92q65 0 102 -31t37 -96q0 -13 -4 -49l-84 -463q67 154 137 271t129.5 185.5t119.5 111t105 57t89 14.5q70 0 110.5 -37.5t40.5 -109.5q0 -27 -4 -52l-125 -721q-4 -18 -4 -34q0 -35 29 -35q55 0 149 231z" />
    <glyph glyph-name="o" unicode="o" horiz-adv-x="1210" 
d="M508 -20q-203 0 -319.5 117.5t-116.5 316.5q0 143 49.5 272t134 221.5t202.5 146.5t249 54q202 0 318 -117t116 -317q0 -191 -84 -351t-229.5 -251.5t-319.5 -91.5zM520 47q96 0 185.5 100t143.5 261t54 331q0 139 -55.5 220t-151.5 81q-98 0 -188.5 -100t-144.5 -260.5
t-54 -329.5q0 -140 56 -221.5t155 -81.5z" />
    <glyph glyph-name="p" unicode="p" horiz-adv-x="1245" 
d="M948 1108q109 0 171.5 -91.5t62.5 -248.5q0 -213 -77.5 -394t-213.5 -287.5t-299 -106.5q-133 0 -232 73l-43 -248q-9 -50 19 -65.5t125 -15.5l-8 -48q-222 -34 -398 -100h-4l234 1323q2 18 2 35q0 20 -7 27.5t-22 7.5q-26 0 -64.5 -60t-82.5 -172l-37 19q54 168 135 260
t172 92q65 0 102 -31t37 -96q0 -13 -4 -49l-63 -363q111 287 225.5 413t269.5 126zM567 55q102 0 189.5 90t137.5 238t50 315q0 118 -32 186t-89 68q-103 0 -207 -183t-229 -581q20 -63 69 -98t111 -35z" />
    <glyph glyph-name="q" unicode="q" horiz-adv-x="1185" 
d="M891 -266q0 -50 30 -69.5t107 -22.5l-8 -52h-578l11 52q117 4 161.5 41t63.5 143l127 711q-115 -298 -230 -427.5t-272 -129.5q-110 0 -172.5 91t-62.5 248q0 213 78 394.5t214 288t299 106.5q135 0 226 -72q150 27 241 72h4l-235 -1323q-4 -25 -4 -51zM426 135
q104 0 208.5 183t227.5 581q-20 63 -68.5 98t-109.5 35q-102 0 -189.5 -90t-137.5 -238t-50 -315q0 -118 31.5 -186t87.5 -68z" />
    <glyph glyph-name="r" unicode="r" horiz-adv-x="970" 
d="M1032 997q0 -57 -39 -106h-274q-117 -187 -342 -733l-27 -158h-225l160 899q2 18 2 35q0 20 -7 27.5t-22 7.5q-26 0 -64.5 -60t-82.5 -172l-37 19q54 168 135 260t172 92q65 0 102 -31t37 -96q0 -13 -4 -49l-88 -486q87 208 154.5 340.5t125 202.5t103 94.5t100.5 24.5
t88 -30.5t33 -80.5z" />
    <glyph glyph-name="s" unicode="s" horiz-adv-x="1009" 
d="M805 709q-36 0 -60 12v272q-65 47 -184 47q-96 0 -161.5 -41t-65.5 -108q0 -35 16 -67t37 -54.5t62.5 -49t69.5 -41t81 -40.5t86.5 -44t78 -48t69.5 -57.5t43 -66.5t18 -81q0 -154 -136.5 -258t-340.5 -104q-184 0 -282.5 70t-98.5 192q0 74 41.5 121t97.5 47
q31 0 57 -13v-311q58 -39 191 -39q122 0 197 48.5t75 129.5q0 39 -18.5 72t-58.5 62.5t-74 48t-94 47.5q-49 24 -74 36.5t-67.5 37.5t-65 46t-47.5 50.5t-36 64t-11 74.5q0 147 119.5 245.5t299.5 98.5q174 0 273.5 -68t99.5 -184q0 -67 -40.5 -107t-96.5 -40z" />
    <glyph glyph-name="t" unicode="t" horiz-adv-x="772" 
d="M500 981l-129 -735q-6 -44 -6 -68q0 -36 16 -52.5t55 -16.5q52 0 113.5 57.5t120.5 179.5l37 -20q-76 -175 -176.5 -260.5t-208.5 -85.5q-89 0 -138 46.5t-49 129.5q0 33 4 53l137 772h-159l16 76l166 22l63 279h203l-51 -271h328l-39 -106h-303z" />
    <glyph glyph-name="u" unicode="u" horiz-adv-x="1298" 
d="M1196 350l35 -18q-52 -168 -133 -260t-174 -92q-63 0 -101.5 32t-38.5 97q0 15 7 47l81 460q-66 -153 -135 -269.5t-127.5 -184.5t-118 -110.5t-104.5 -57t-88 -14.5q-69 0 -109 37.5t-40 109.5q0 26 4 51l125 721q2 18 2 35q0 20 -7 27.5t-22 7.5q-27 0 -65.5 -60.5
t-82.5 -171.5l-36 19q54 168 134.5 260t172.5 92q65 0 102 -31t37 -96q0 -13 -4 -49l-125 -703q-2 -18 -2 -30q0 -56 51 -56q28 0 63 24t82.5 82t100 145.5t117 225.5t131.5 310l28 157h226l-160 -899q-4 -18 -4 -34q0 -35 29 -35q55 0 149 231z" />
    <glyph glyph-name="v" unicode="v" horiz-adv-x="1044" 
d="M913 1108q52 0 83.5 -47t31.5 -125q0 -87 -50.5 -205t-139 -248t-187.5 -252.5t-215 -250.5h-37l-190 938q-7 36 -27 36q-41 0 -119 -217l-34 19q58 184 121.5 268t152.5 84q53 0 91 -35t50 -102l134 -717q163 213 247 352v477q32 25 88 25z" />
    <glyph glyph-name="w" unicode="w" horiz-adv-x="1644" 
d="M1507 1108q52 0 83.5 -47t31.5 -125q0 -87 -47.5 -205t-130 -248t-174 -252.5t-199.5 -250.5h-37l-133 587q-147 -260 -424 -587h-37l-231 948q-8 35 -29 35q-42 0 -117 -226l-34 19q55 184 116 268t146 84q57 0 97.5 -36.5t57.5 -104.5l166 -703q177 243 262 416
l-92 407h248l178 -823q135 191 211 324v495q32 25 88 25z" />
    <glyph glyph-name="x" unicode="x" horiz-adv-x="1167" 
d="M1141 891h-285q-58 -79 -168 -289l199 -395q29 -66 61 -66q29 0 51.5 46.5t44.5 150.5l39 -16q-27 -158 -89 -250t-154 -92q-70 0 -108.5 32.5t-72.5 110.5l-143 283q-66 -131 -120 -216.5t-102.5 -130.5t-89 -62t-89.5 -17q-55 0 -88 30t-33 80q0 53 37 107h284
q62 85 164 282l-200 402q-29 65 -62 65q-29 0 -51.5 -46.5t-44.5 -149.5l-37 16q26 157 88.5 249.5t155.5 92.5q69 0 106.5 -32.5t71.5 -110.5l145 -289q66 133 121.5 220t104.5 132.5t90 62.5t90 17q55 0 88 -30.5t33 -80.5q0 -52 -37 -106z" />
    <glyph glyph-name="y" unicode="y" horiz-adv-x="1230" 
d="M956 1087h226l-101 -561l-10 -55q-40 -215 -119.5 -386t-186.5 -283.5t-238.5 -172t-278.5 -59.5q-74 0 -118 33.5t-44 87.5q0 31 14 59l512 2q108 85 164 238.5t78 412.5l33 246q-68 -161 -139 -284t-131.5 -194.5t-121.5 -116t-106.5 -59.5t-89.5 -15q-69 0 -109 37.5
t-40 109.5q0 26 4 51l125 721q2 18 2 35q0 20 -7 27.5t-22 7.5q-27 0 -65.5 -60.5t-82.5 -171.5l-36 19q54 168 134.5 260t172.5 92q65 0 102 -31t37 -96q0 -13 -4 -49l-125 -703q-2 -18 -2 -30q0 -56 51 -56q28 0 63 24t82.5 82t100 145.5t117 225.5t131.5 310z" />
    <glyph glyph-name="z" unicode="z" horiz-adv-x="1058" 
d="M758 172q68 0 106 39t76 151l39 -14q-25 -96 -49.5 -158.5t-61 -113t-87 -73.5t-119.5 -23q-106 0 -232 45t-246 122l-149 -157l-49 47l811 858h-279q-172 0 -247 -42.5t-126 -168.5l-43 8l150 406q194 -11 567 -11h252l2 -4l-723 -761q108 -70 220.5 -110t187.5 -40z
" />
    <glyph glyph-name="braceleft" unicode="{" horiz-adv-x="700" 
d="M854 1645q-186 -96 -262 -172.5t-76 -186.5q0 -73 19 -166q22 -112 22 -190q0 -285 -340 -324q250 -32 250 -203q0 -62 -18.5 -123t-38 -97.5t-56.5 -94.5q-48 -75 -72 -131.5t-24 -124.5t51.5 -128.5t177.5 -139.5l-28 -41q-229 94 -321.5 173t-92.5 169q0 42 7.5 79
t25.5 75.5t30 59.5t39 64q36 56 54.5 90t36.5 91.5t18 115.5q0 70 -47.5 104t-149.5 34h-12l10 53h13q262 0 262 256q0 67 -23 184q-20 98 -20 170q0 137 120.5 235t432.5 210z" />
    <glyph glyph-name="bar" unicode="|" horiz-adv-x="493" 
d="M31 -426l360 2044l96 16l-362 -2044z" />
    <glyph glyph-name="braceright" unicode="}" horiz-adv-x="702" 
d="M469 768q0 -137 195 -137h12l-8 -53h-13q-264 0 -264 -256q0 -68 23 -185q20 -98 20 -170q0 -138 -121 -236t-430 -208l-14 41q189 98 265.5 173.5t76.5 184.5q0 63 -21 166q-22 112 -22 191q0 285 342 325q-252 32 -252 201q0 62 18.5 123t38 97.5t56.5 94.5
q33 53 48.5 82t31.5 78t16 96q0 69 -52 129t-179 140l28 41q230 -94 322 -173t92 -170q0 -55 -16.5 -108.5t-34.5 -85t-52 -84.5q-35 -57 -53 -90t-35.5 -91t-17.5 -116z" />
    <glyph glyph-name="asciitilde" unicode="~" horiz-adv-x="970" 
d="M655 463q-38 0 -80 12.5t-65 23.5t-70 36q-59 33 -104.5 50t-95.5 17q-92 0 -156 -131l-43 10q34 113 117 195t180 82q36 0 75.5 -11.5t64 -24t67.5 -36.5q43 -23 66.5 -34t64 -22.5t76.5 -11.5q95 0 155 132l45 -11q-34 -113 -117.5 -194.5t-179.5 -81.5z" />
    <glyph glyph-name="uni00A0" unicode="&#xa0;" horiz-adv-x="512" 
 />
    <glyph glyph-name="exclamdown" unicode="&#xa1;" horiz-adv-x="598" 
d="M401 981q-76 0 -122 44t-46 114q0 71 54 122.5t127 51.5q75 0 121.5 -43.5t46.5 -112.5q0 -72 -53.5 -124t-127.5 -52zM166 -225q-58 0 -89.5 30t-31.5 84q0 73 44 217t91 252q110 296 148 476h49q-21 -180 -21 -441q10 -277 -18 -465q-10 -75 -58.5 -114t-113.5 -39z
" />
    <glyph glyph-name="cent" unicode="&#xa2;" horiz-adv-x="1116" 
d="M926 799q-37 0 -58 14v410q-35 18 -73 20l-158 -903h20q83 0 173.5 47t150.5 125l29 -20q-65 -115 -172 -194.5t-226 -104.5l-37 -207l-81 14l32 184h-4q-185 0 -290 113.5t-105 308.5q0 190 78 348.5t214.5 253.5t303.5 105l35 198l82 -14l-33 -186q130 -12 204 -88.5
t74 -196.5q0 -104 -47 -165.5t-112 -61.5zM365 686q0 -126 49.5 -212.5t140.5 -117.5l156 885q-147 -28 -246.5 -187t-99.5 -368zM918 1184l18 -27z" />
    <glyph glyph-name="sterling" unicode="&#xa3;" horiz-adv-x="1292" 
d="M1100 1004q-39 0 -60 14v395q-48 23 -108 23q-147 0 -216 -60t-91 -176q-19 -79 -27 -250q0 -47 -4 -145h448l-24 -72h-430q-17 -187 -100.5 -309t-243.5 -207h454q63 0 108.5 4.5t88.5 17.5t74.5 35.5t61.5 59.5t54.5 88.5t49.5 122.5l51 -10l-166 -545q-212 10 -682 10
h-348v6q83 84 143.5 165t97 148t59.5 141.5t32.5 134t15.5 138.5h-205l27 72h184q9 90 14 131q20 278 177 430t397 152q152 0 240 -78t88 -209q0 -104 -47.5 -165.5t-112.5 -61.5z" />
    <glyph glyph-name="currency" unicode="&#xa4;" horiz-adv-x="1370" 
d="M1161 858q0 -236 -139 -391l192 -231l-73 -64l-191 229q-131 -98 -309 -98q-177 0 -272 92l-269 -227l-51 63l270 230q-40 76 -40 180q0 243 145 397l-191 230l74 63l191 -227q128 92 301 92q178 0 272 -94l270 229l54 -63l-273 -234q39 -76 39 -176zM371 655
q0 -130 73.5 -200t210.5 -70q182 0 298 129.5t116 329.5q0 129 -74.5 199.5t-210.5 70.5q-181 0 -297 -129t-116 -330z" />
    <glyph glyph-name="yen" unicode="&#xa5;" horiz-adv-x="1472" 
d="M1026 1497h557l-10 -51q-52 -6 -95 -21.5t-93 -50t-104.5 -96.5t-115.5 -154l-297 -442h330l-24 -72h-324l-31 -168h336l-22 -71h-326l-23 -129q-8 -39 -8 -68q0 -66 43.5 -92t155.5 -31l-10 -51h-682l8 51q134 6 185.5 44.5t70.5 146.5l22 129h-323l24 71h312l30 168
h-323l22 72h291l-188 559q-38 114 -82.5 155.5t-120.5 49.5l10 51h678l-8 -51q-122 -7 -167.5 -30.5t-45.5 -76.5q0 -42 31 -147l129 -424l231 344q72 111 102.5 167.5t30.5 90.5q0 38 -43.5 55.5t-142.5 20.5z" />
    <glyph glyph-name="brokenbar" unicode="&#xa6;" horiz-adv-x="493" 
d="M250 813l141 805l96 16l-143 -805zM31 -426l141 805l96 16l-143 -805z" />
    <glyph glyph-name="section" unicode="&#xa7;" horiz-adv-x="901" 
d="M170 -434q-61 0 -97 28t-36 74q0 42 29 92h378q86 86 86 217q0 65 -26 150.5t-54.5 148.5t-82.5 170q-47 89 -72 141t-58 130.5t-48 147t-15 132.5q0 106 57 223t142.5 208t189 150.5t191.5 59.5q59 0 95 -27.5t36 -76.5q0 -40 -29 -90h-379q-84 -88 -84 -217
q0 -94 41.5 -205.5t118.5 -263.5q46 -86 72.5 -140.5t59 -131.5t48 -146t15.5 -133q0 -106 -57 -223t-142 -208t-188.5 -150.5t-190.5 -59.5zM614 -6q12 17 26.5 66.5t14.5 113.5q0 83 -30.5 185t-63.5 172.5t-92 185.5q-56 112 -84.5 176.5t-54.5 155.5t-23 161
q-41 -82 -41 -182q0 -64 14.5 -131.5t46 -144t56.5 -128.5t70 -139q55 -112 84 -176.5t54.5 -154.5t22.5 -160z" />
    <glyph glyph-name="dieresis" unicode="&#xa8;" horiz-adv-x="1128" 
d="M319 1339q-50 0 -82 31.5t-32 79.5q0 53 38.5 92t90.5 39q50 0 81 -31.5t31 -79.5q0 -54 -37.5 -92.5t-89.5 -38.5zM688 1339q-51 0 -83 31.5t-32 79.5q0 53 38.5 92t90.5 39q50 0 81.5 -31.5t31.5 -79.5q0 -54 -37.5 -92.5t-89.5 -38.5z" />
    <glyph glyph-name="copyright" unicode="&#xa9;" horiz-adv-x="2068" 
d="M1069 -143q-273 0 -481 110t-322 311.5t-114 464.5t113.5 464.5t322 312t481.5 110.5q272 0 481 -113t323 -316.5t114 -467.5q0 -263 -114 -462t-322.5 -306.5t-481.5 -107.5zM1069 -61q372 0 597.5 217t225.5 577q0 179 -59 330.5t-166 258.5t-260.5 166.5t-337.5 59.5
q-243 0 -430 -100.5t-289 -283.5t-102 -421q0 -178 59.5 -328t166 -254.5t260 -163t335.5 -58.5zM1075 152q-247 0 -399 162.5t-152 426.5q0 267 162.5 431.5t427.5 164.5q76 0 161 -28.5t103 -28.5q21 0 31.5 10t17.5 39h25l96 -411l-41 -13q-136 367 -397 367
q-165 0 -266 -123.5t-101 -325.5q0 -239 121 -386.5t318 -147.5q103 0 203 54.5t155 145.5l37 -20q-63 -142 -201.5 -229.5t-300.5 -87.5z" />
    <glyph glyph-name="ordfeminine" unicode="&#xaa;" horiz-adv-x="1038" 
d="M1008 934l26 -16q-40 -127 -104.5 -199t-136.5 -72q-61 0 -91 35.5t-18 105.5l45 254q-82 -212 -168 -303.5t-203 -91.5q-84 0 -133 72t-49 194q0 164 60.5 303t165 220.5t229.5 81.5q96 0 172 -56q111 17 194 56h4l-124 -705q-8 -49 18 -49q19 0 49.5 44.5t63.5 125.5z
M463 776q74 0 150 137t169 443q-13 47 -49 73.5t-80 26.5q-75 0 -139.5 -68t-101.5 -180t-37 -239q0 -88 23.5 -140.5t64.5 -52.5z" />
    <glyph glyph-name="guillemotleft" unicode="&#xab;" horiz-adv-x="872" 
d="M541 1016l-265 -416l117 -416l-41 -22l-254 418l8 41l400 417zM848 1016l-264 -416l118 -416l-40 -22l-254 418l6 41l401 417z" />
    <glyph glyph-name="logicalnot" unicode="&#xac;" horiz-adv-x="970" 
d="M141 772h766l-61 -350h-90l47 268h-676z" />
    <glyph glyph-name="uni00AD" unicode="&#xad;" horiz-adv-x="976" 
d="M137 549l39 106h684l-39 -106h-684z" />
    <glyph glyph-name="registered" unicode="&#xae;" horiz-adv-x="1243" 
d="M725 1638q233 0 375.5 -135t142.5 -358t-142.5 -358.5t-375.5 -135.5t-375.5 135.5t-142.5 358.5t142.5 358t375.5 135zM725 723q196 0 315 115.5t119 306.5t-119 306.5t-315 115.5t-315 -115.5t-119 -306.5t119 -306.5t315 -115.5zM836 1141q93 -147 133 -190.5
t84 -49.5v-20h-92q-35 0 -57.5 7t-52 33t-62 71.5t-84.5 129.5h-70v-143q0 -41 19 -57t69 -21v-20h-285v20q44 5 60 18t16 46v372q0 32 -16.5 45.5t-59.5 18.5v20h301q98 0 158.5 -38t60.5 -101q0 -49 -32 -85.5t-90 -55.5zM635 1386v-231h67q54 0 87.5 33.5t33.5 87.5
q0 51 -30.5 80.5t-81.5 29.5h-76z" />
    <glyph glyph-name="macron" unicode="&#xaf;" horiz-adv-x="1083" 
d="M168 1407l29 82h624l-28 -82h-625z" />
    <glyph glyph-name="degree" unicode="&#xb0;" horiz-adv-x="845" 
d="M553 989q-151 0 -242.5 89t-91.5 235q0 147 91.5 236t242.5 89q152 0 244 -88.5t92 -236.5q0 -146 -92 -235t-244 -89zM553 1106q92 0 148.5 56.5t56.5 150.5q0 95 -56 152t-149 57q-91 0 -147 -57t-56 -152q0 -93 56 -150t147 -57z" />
    <glyph glyph-name="plusminus" unicode="&#xb1;" horiz-adv-x="970" 
d="M575 778h336l-12 -82h-338l-51 -290h-92l51 290h-338l14 82h338l52 291h92zM49 236l14 81h768l-14 -81h-768z" />
    <glyph glyph-name="uni00B2" unicode="&#xb2;" horiz-adv-x="763" 
d="M494 811q110 0 158 25.5t77 101.5l31 -6l-84 -281q-117 6 -400 6h-210l-3 5q40 40 179 157q62 52 98 83.5t85 81t75 87t45.5 84.5t19.5 92q0 53 -29 84t-81 31q-60 0 -118.5 -39.5t-100.5 -105.5l-25 16q67 125 167.5 200.5t196.5 75.5q85 0 135 -46t50 -120
q0 -44 -13 -86.5t-32 -77.5t-53.5 -74.5t-64 -67.5t-78.5 -66t-81.5 -60.5t-87.5 -60.5q-10 -6 -29.5 -19.5t-29.5 -19.5h203z" />
    <glyph glyph-name="uni00B3" unicode="&#xb3;" horiz-adv-x="679" 
d="M481 1176q90 -27 140.5 -79.5t50.5 -123.5q0 -136 -146 -222.5t-417 -105.5v33q175 19 281 80t106 153q0 54 -47.5 84.5t-143.5 44.5l-2 4l266 302h-159q-75 0 -115.5 -24t-77.5 -97l-29 8l115 285h2q80 -21 367 -21h102l2 -4z" />
    <glyph glyph-name="acute" unicode="&#xb4;" horiz-adv-x="886" 
d="M244 1243l-21 33q209 231 303 305q33 23 66 23q41 0 72.5 -31t31.5 -70q0 -59 -55 -92q-75 -49 -397 -168z" />
    <glyph glyph-name="uni00B5" unicode="&#xb5;" horiz-adv-x="1349" 
d="M1053 199q0 -49 29.5 -67t107.5 -21l-8 -48q-216 -37 -396 -83h-2l35 194l-2 -8q-189 -186 -371 -186q-148 0 -184 139q-12 -341 -16 -400q-1 -73 -29.5 -111t-75.5 -38q-32 0 -51.5 20.5t-19.5 53.5q0 35 129 663l82 463q6 30 6 53q0 49 -29.5 72t-105.5 35l8 47
q253 73 401 127h4l-84 -477l-53 -301q-6 -34 -6 -62q0 -145 143 -145q104 0 266 125l93 526q6 30 6 55q0 44 -30 68.5t-107 36.5l10 47q253 73 401 127h4l-151 -850q-4 -27 -4 -55z" />
    <glyph glyph-name="paragraph" unicode="&#xb6;" horiz-adv-x="1181" 
d="M1257 1497l-8 -51q-118 -6 -162 -40t-61 -130l-299 -1686l-86 -16l326 1841h-183l-321 -1825l-86 -16l192 1092h-4q-191 0 -302 93.5t-111 252.5q0 205 138 345t341 140h626z" />
    <glyph glyph-name="periodcentered" unicode="&#xb7;" horiz-adv-x="585" 
d="M295 432q-75 0 -121.5 44.5t-46.5 113.5q0 71 53.5 122.5t126.5 51.5q76 0 122 -43.5t46 -112.5q0 -72 -53 -124t-127 -52z" />
    <glyph glyph-name="cedilla" unicode="&#xb8;" horiz-adv-x="876" 
d="M256 -430v37q63 11 101 37t38 67q0 72 -112 148l123 155l67 -14l-55 -72q123 -85 123 -174q0 -83 -77 -131t-208 -53z" />
    <glyph glyph-name="uni00B9" unicode="&#xb9;" horiz-adv-x="530" 
d="M397 760q0 -36 23 -51.5t82 -20.5l-6 -31h-404l6 31q71 6 98.5 27.5t36.5 77.5l82 456q4 36 4 37q0 37 -36 37q-20 0 -76 -16l-8 30q170 83 329 183h2l-129 -727q-4 -18 -4 -33z" />
    <glyph glyph-name="ordmasculine" unicode="&#xba;" horiz-adv-x="989" 
d="M512 647q-156 0 -247 92t-91 246q0 224 143.5 378.5t350.5 154.5q156 0 246 -91t90 -245q0 -146 -65 -269t-178 -194.5t-249 -71.5zM524 711q71 0 136.5 77.5t105 200t39.5 250.5q0 104 -39 163.5t-109 59.5q-71 0 -136.5 -77.5t-105.5 -200t-40 -250.5q0 -104 39 -163.5
t110 -59.5z" />
    <glyph glyph-name="guillemotright" unicode="&#xbb;" horiz-adv-x="870" 
d="M485 621l-6 -41l-399 -418l-35 22l264 416l-116 416l40 22zM541 1038l254 -417l-9 -41l-399 -418l-35 22l264 416l-116 416z" />
    <glyph glyph-name="onequarter" unicode="&#xbc;" horiz-adv-x="1540" 
d="M1460 1559l49 -54l-1439 -1564l-50 51zM559 688l-6 -31h-403l6 31q71 6 98.5 27.5t36.5 77.5l82 456q4 36 4 37q0 37 -37 37q-20 0 -76 -16l-8 30q175 85 330 183h2l-129 -727q-4 -18 -4 -33q0 -37 22.5 -52t81.5 -20zM1262 281q86 0 168 6h2l-23 -62h-158l-16 -96
q-4 -16 -4 -33q0 -32 19.5 -46t70.5 -17l-6 -33h-397l6 33q75 6 105 30.5t42 88.5l12 73h-348l-2 4l508 613h119zM836 281h258l67 395z" />
    <glyph glyph-name="onehalf" unicode="&#xbd;" horiz-adv-x="1560" 
d="M1452 1559l49 -54l-1440 -1564l-49 51zM551 688l-6 -31h-404l6 31q71 6 99 27.5t39 77.5l80 456q4 18 4 37q0 37 -37 37q-20 0 -76 -16l-6 30q176 87 328 183h2l-129 -727q-2 -18 -2 -33q0 -36 22.5 -51.5t79.5 -20.5zM1427 686q0 -51 -15 -98.5t-47 -92t-65 -81t-87 -79
t-93 -70t-102 -70.5l-62 -41h205q109 0 158 26.5t78 102.5l30 -7l-84 -282q-117 6 -399 6h-211l-2 4q73 73 178 158q50 42 71 60.5t64 57.5t63 61.5t50 58.5t43.5 63t24 61t10.5 66q0 53 -30.5 84t-82.5 31q-59 0 -118 -39.5t-101 -104.5l-24 17q67 125 167.5 199.5
t196.5 74.5q85 0 134.5 -45.5t49.5 -120.5z" />
    <glyph glyph-name="threequarters" unicode="&#xbe;" horiz-adv-x="1634" 
d="M1554 1559l52 -54l-1442 -1564l-49 51zM737 973q0 -136 -147 -222.5t-416 -105.5v33q174 20 280.5 80.5t106.5 152.5q0 54 -47.5 84.5t-144.5 44.5v4l264 302h-160q-75 0 -114.5 -24t-75.5 -97l-29 8l115 285h2q77 -21 366 -21h103l2 -4l-295 -317q90 -27 140 -79.5
t50 -123.5zM1354 283q86 0 168 6h2l-21 -62h-160l-16 -96q-2 -16 -2 -33q0 -32 19.5 -46t70.5 -17l-6 -33h-399l6 33q77 6 107 30.5t40 88.5l13 73h-347l-2 4l508 613h117zM928 283h258l69 397z" />
    <glyph glyph-name="questiondown" unicode="&#xbf;" horiz-adv-x="878" 
d="M668 1313q76 0 122 -43.5t46 -112.5q0 -72 -53.5 -124t-127.5 -52q-76 0 -122 44t-46 114q0 71 54 122.5t127 51.5zM248 -31h426q4 -20 4 -39q0 -69 -51.5 -112t-126.5 -43q-124 0 -230 66.5t-165.5 172t-59.5 219.5q0 177 138 281t370 119q25 86 49 201h49
q-5 -156 13 -408l-5 -4q-239 -5 -376.5 -73.5t-137.5 -190.5q0 -103 103 -189z" />
    <glyph glyph-name="Agrave" unicode="&#xc0;" horiz-adv-x="1513" 
d="M727 1710q-32 15 -50 40.5t-18 55.5q0 42 29.5 72.5t73.5 30.5q22 0 51 -13q73 -34 350 -254l-18 -36q-339 66 -418 104zM1255 205q19 -89 52.5 -119.5t128.5 -34.5l-9 -51h-671l8 51q136 11 183.5 35.5t47.5 87.5q0 20 -12 90l-45 230h-541l-59 -109
q-39 -75 -55.5 -108.5t-31.5 -73.5t-15 -64q0 -43 42 -63t138 -25l-8 -51h-504l10 51q98 10 157.5 62t135.5 190l547 1002l-19 88q95 42 213 125h37zM442 578h482l-127 657z" />
    <glyph glyph-name="Aacute" unicode="&#xc1;" horiz-adv-x="1513" 
d="M1180 1710q-83 -38 -420 -104l-17 36q271 217 349 254q29 13 51 13q43 0 72.5 -30.5t29.5 -72.5q0 -64 -65 -96zM1255 205q19 -89 52.5 -119.5t128.5 -34.5l-9 -51h-671l8 51q136 11 183.5 35.5t47.5 87.5q0 20 -12 90l-45 230h-541l-59 -109q-39 -75 -55.5 -108.5
t-31.5 -73.5t-15 -64q0 -43 42 -63t138 -25l-8 -51h-504l10 51q98 10 157.5 62t135.5 190l547 1002l-19 88q95 42 213 125h37zM442 578h482l-127 657z" />
    <glyph glyph-name="Acircumflex" unicode="&#xc2;" horiz-adv-x="1513" 
d="M963 1737l-308 -131l-12 39l332 264h37l237 -264l-26 -39zM1255 205q19 -89 52.5 -119.5t128.5 -34.5l-9 -51h-671l8 51q136 11 183.5 35.5t47.5 87.5q0 20 -12 90l-45 230h-541l-59 -109q-39 -75 -55.5 -108.5t-31.5 -73.5t-15 -64q0 -43 42 -63t138 -25l-8 -51h-504
l10 51q98 10 157.5 62t135.5 190l547 1002l-19 88q95 42 213 125h37zM442 578h482l-127 657z" />
    <glyph glyph-name="Atilde" unicode="&#xc3;" horiz-adv-x="1513" 
d="M741 1753q-77 0 -133 -131l-39 10q30 111 107 194t158 83q31 0 64.5 -11.5t55 -24t58.5 -36.5q40 -24 58 -34t52.5 -22t65.5 -12q78 0 133 132l41 -11q-32 -112 -106.5 -194t-157.5 -82q-33 0 -69 12.5t-56 23.5t-60 36q-34 22 -56.5 34t-54 22.5t-61.5 10.5zM1255 205
q19 -89 52.5 -119.5t128.5 -34.5l-9 -51h-671l8 51q136 11 183.5 35.5t47.5 87.5q0 20 -12 90l-45 230h-541l-59 -109q-39 -75 -55.5 -108.5t-31.5 -73.5t-15 -64q0 -43 42 -63t138 -25l-8 -51h-504l10 51q98 10 157.5 62t135.5 190l547 1002l-19 88q95 42 213 125h37z
M442 578h482l-127 657z" />
    <glyph glyph-name="Adieresis" unicode="&#xc4;" horiz-adv-x="1513" 
d="M778 1651q-51 0 -82.5 30.5t-31.5 79.5q0 52 38 90.5t91 38.5q50 0 80 -31t30 -79q0 -54 -36.5 -91.5t-88.5 -37.5zM1147 1651q-51 0 -83 30.5t-32 79.5q0 52 38 90.5t91 38.5q50 0 80.5 -31t30.5 -79q0 -54 -36.5 -91.5t-88.5 -37.5zM1255 205q19 -89 52.5 -119.5
t128.5 -34.5l-9 -51h-671l8 51q136 11 183.5 35.5t47.5 87.5q0 20 -12 90l-45 230h-541l-59 -109q-39 -75 -55.5 -108.5t-31.5 -73.5t-15 -64q0 -43 42 -63t138 -25l-8 -51h-504l10 51q98 10 157.5 62t135.5 190l547 1002l-19 88q95 42 213 125h37zM442 578h482l-127 657z
" />
    <glyph glyph-name="Aring" unicode="&#xc5;" horiz-adv-x="1513" 
d="M952 1575q-96 0 -152.5 49.5t-56.5 132.5q0 97 70.5 163.5t173.5 66.5q95 0 151 -50t56 -133q0 -98 -70 -163.5t-172 -65.5zM975 1919q-64 0 -108 -43.5t-44 -106.5q0 -59 38 -93t102 -34t107.5 43t43.5 105q0 59 -37.5 94t-101.5 35zM1255 205q19 -89 52.5 -119.5
t128.5 -34.5l-9 -51h-671l8 51q136 11 183.5 35.5t47.5 87.5q0 20 -12 90l-45 230h-541l-59 -109q-39 -75 -55.5 -108.5t-31.5 -73.5t-15 -64q0 -43 42 -63t138 -25l-8 -51h-504l10 51q98 10 157.5 62t135.5 190l547 1002l-19 88q95 42 213 125h37zM442 578h482l-127 657z
" />
    <glyph glyph-name="AE" unicode="&#xc6;" horiz-adv-x="2195" 
d="M2089 561l45 -18l-268 -553q-136 10 -400 10h-768l9 51q117 6 162.5 40.5t62.5 129.5l88 506h-459l-199 -342q-60 -103 -87 -161t-27 -93q0 -39 39 -58t129 -22l-10 -51h-502l8 51q102 11 171.5 65.5t147.5 186.5l699 1194h760q250 0 383 10l59 -532l-53 -21
q-13 100 -32.5 172.5t-49 124t-65 83.5t-89 50t-111.5 24.5t-141 6.5h-211l-106 -606h149q56 0 92 11t72 45.5t65.5 99.5t61.5 172h49q-85 -433 -133 -758h-49q4 74 4 96q0 104 -19.5 159.5t-55.5 74t-103 18.5h-147l-93 -516q-6 -38 -6 -59q0 -39 21.5 -54.5t74.5 -15.5
h183q94 0 158.5 9.5t131 38t121.5 82t114 138.5t124 211zM608 809h426l76 426q8 47 8 78q0 61 -32 89.5t-109 37.5z" />
    <glyph glyph-name="Ccedilla" unicode="&#xc7;" horiz-adv-x="1394" 
d="M936 1436q-153 0 -281.5 -104.5t-203 -285t-74.5 -395.5q0 -234 108.5 -370t300.5 -136q123 0 254.5 74t216.5 195l39 -25q-102 -178 -273 -290t-355 -119l-39 -52q125 -86 125 -174q0 -83 -77.5 -131t-209.5 -53v37q63 11 101 37t38 67q0 72 -112 148l96 123
q-220 17 -344.5 169t-124.5 400q0 199 65.5 378t176.5 308t266 205t327 76q63 0 123 -18t104 -36t68 -18t38.5 12t31.5 49h25l20 -534l-49 -15q-37 246 -135.5 362t-245.5 116z" />
    <glyph glyph-name="Egrave" unicode="&#xc8;" horiz-adv-x="1476" 
d="M684 1710q-66 31 -66 96q0 42 29 72.5t74 30.5q23 0 49 -13q81 -38 350 -254l-16 -36q-337 66 -420 104zM1364 565l51 -22l-270 -553q-133 10 -397 10h-768l8 51q117 6 161.5 40t61.5 130l186 1055q6 38 6 61q0 58 -37 81t-133 28l11 51h725q253 0 383 10l59 -532
l-51 -21q-16 120 -42.5 201.5t-62.5 133t-94 79t-123.5 37.5t-165.5 10h-210l-107 -606h150q56 0 91.5 11t71 45.5t65 99t62.5 172.5h49q-85 -433 -133 -758h-49q2 37 2 96q0 104 -19 159t-54.5 74t-102.5 19h-147l-92 -516q-7 -47 -7 -59q0 -39 21 -54.5t74 -15.5h184
q77 0 132.5 6.5t113 25.5t103 52t94.5 87t97 130t103 182z" />
    <glyph glyph-name="Eacute" unicode="&#xc9;" horiz-adv-x="1476" 
d="M1137 1710q-80 -38 -420 -104l-17 36q268 215 351 254q26 13 51 13q43 0 71.5 -30.5t28.5 -72.5q0 -66 -65 -96zM1364 565l51 -22l-270 -553q-133 10 -397 10h-768l8 51q117 6 161.5 40t61.5 130l186 1055q6 38 6 61q0 58 -37 81t-133 28l11 51h725q253 0 383 10l59 -532
l-51 -21q-16 120 -42.5 201.5t-62.5 133t-94 79t-123.5 37.5t-165.5 10h-210l-107 -606h150q56 0 91.5 11t71 45.5t65 99t62.5 172.5h49q-85 -433 -133 -758h-49q2 37 2 96q0 104 -19 159t-54.5 74t-102.5 19h-147l-92 -516q-7 -47 -7 -59q0 -39 21 -54.5t74 -15.5h184
q77 0 132.5 6.5t113 25.5t103 52t94.5 87t97 130t103 182z" />
    <glyph glyph-name="Ecircumflex" unicode="&#xca;" horiz-adv-x="1476" 
d="M920 1737l-306 -131l-12 39l332 264h37l235 -264l-26 -39zM1364 565l51 -22l-270 -553q-133 10 -397 10h-768l8 51q117 6 161.5 40t61.5 130l186 1055q6 38 6 61q0 58 -37 81t-133 28l11 51h725q253 0 383 10l59 -532l-51 -21q-16 120 -42.5 201.5t-62.5 133t-94 79
t-123.5 37.5t-165.5 10h-210l-107 -606h150q56 0 91.5 11t71 45.5t65 99t62.5 172.5h49q-85 -433 -133 -758h-49q2 37 2 96q0 104 -19 159t-54.5 74t-102.5 19h-147l-92 -516q-7 -47 -7 -59q0 -39 21 -54.5t74 -15.5h184q77 0 132.5 6.5t113 25.5t103 52t94.5 87t97 130
t103 182z" />
    <glyph glyph-name="Edieresis" unicode="&#xcb;" horiz-adv-x="1476" 
d="M735 1651q-51 0 -81.5 30t-30.5 80q0 52 37.5 90.5t89.5 38.5q50 0 81 -31t31 -79q0 -54 -37 -91.5t-90 -37.5zM1104 1651q-51 0 -82 30t-31 80q0 52 37.5 90.5t89.5 38.5q50 0 81.5 -31t31.5 -79q0 -54 -37 -91.5t-90 -37.5zM1364 565l51 -22l-270 -553q-133 10 -397 10
h-768l8 51q117 6 161.5 40t61.5 130l186 1055q6 38 6 61q0 58 -37 81t-133 28l11 51h725q253 0 383 10l59 -532l-51 -21q-16 120 -42.5 201.5t-62.5 133t-94 79t-123.5 37.5t-165.5 10h-210l-107 -606h150q56 0 91.5 11t71 45.5t65 99t62.5 172.5h49q-85 -433 -133 -758h-49
q2 37 2 96q0 104 -19 159t-54.5 74t-102.5 19h-147l-92 -516q-7 -47 -7 -59q0 -39 21 -54.5t74 -15.5h184q77 0 132.5 6.5t113 25.5t103 52t94.5 87t97 130t103 182z" />
    <glyph glyph-name="Igrave" unicode="&#xcc;" horiz-adv-x="776" 
d="M365 1710q-66 31 -66 96q0 42 28.5 72.5t73.5 30.5q24 0 50 -13q81 -38 350 -254l-17 -36q-338 66 -419 104zM244 1497h626l-10 -51q-116 -6 -161 -40t-62 -130l-186 -1055q-7 -44 -7 -61q0 -58 37 -81t133 -28l-8 -51h-626l8 51q117 6 161.5 40t61.5 130l186 1055
q6 38 6 61q0 58 -37 81t-133 28z" />
    <glyph glyph-name="Iacute" unicode="&#xcd;" horiz-adv-x="776" 
d="M817 1710q-83 -38 -420 -104l-16 36q269 216 350 254q26 13 49 13q45 0 74 -30.5t29 -72.5q0 -65 -66 -96zM233 1446l11 51h626l-10 -51q-116 -6 -161 -40t-62 -130l-186 -1055q-7 -44 -7 -61q0 -58 37 -81t133 -28l-8 -51h-626l8 51q117 6 161.5 40t61.5 130l186 1055
q6 38 6 61q0 58 -37 81t-133 28z" />
    <glyph glyph-name="Icircumflex" unicode="&#xce;" horiz-adv-x="776" 
d="M600 1737l-305 -131l-12 39l329 264h39l236 -264l-27 -39zM233 1446l11 51h626l-10 -51q-116 -6 -161 -40t-62 -130l-186 -1055q-7 -44 -7 -61q0 -58 37 -81t133 -28l-8 -51h-626l8 51q117 6 161.5 40t61.5 130l186 1055q6 38 6 61q0 58 -37 81t-133 28z" />
    <glyph glyph-name="Idieresis" unicode="&#xcf;" horiz-adv-x="776" 
d="M416 1651q-51 0 -83 30.5t-32 79.5q0 51 38.5 90t90.5 39q50 0 80.5 -31t30.5 -79q0 -54 -36.5 -91.5t-88.5 -37.5zM799 1890q50 0 80 -31t30 -79q0 -54 -36.5 -91.5t-88.5 -37.5q-51 0 -82.5 30.5t-31.5 79.5q0 51 38.5 90t90.5 39zM233 1446l11 51h626l-10 -51
q-116 -6 -161 -40t-62 -130l-186 -1055q-7 -44 -7 -61q0 -58 37 -81t133 -28l-8 -51h-626l8 51q117 6 161.5 40t61.5 130l186 1055q6 38 6 61q0 58 -37 81t-133 28z" />
    <glyph glyph-name="Eth" unicode="&#xd0;" horiz-adv-x="1617" 
d="M942 1497q291 0 459 -158.5t168 -427.5q0 -152 -44 -292t-125.5 -251.5t-190.5 -194.5t-246 -128t-285 -45h-696l8 51q117 6 161.5 40t61.5 130l90 510h-170l27 72h155l84 473q7 44 7 61q0 58 -37 81t-133 28l10 51h696zM645 82q181 0 334.5 115.5t242.5 313t89 429.5
q0 220 -110.5 347.5t-309.5 127.5h-227l-109 -612h379l-27 -72h-364l-94 -530q-5 -34 -5 -54q0 -38 19 -51.5t69 -13.5h113z" />
    <glyph glyph-name="Ntilde" unicode="&#xd1;" horiz-adv-x="1546" 
d="M770 1753q-79 0 -135 -131l-39 10q32 111 107.5 194t156.5 83q45 0 85.5 -18.5t92.5 -53.5q40 -24 58 -34t52.5 -22t65.5 -12q82 0 134 132l41 -11q-32 -113 -106 -194.5t-157 -81.5q-33 0 -70 12.5t-56 23.5t-60 36q-101 67 -170 67zM1149 1497h510l-8 -51
q-118 -6 -163.5 -40t-62.5 -130l-229 -1296h-49l-680 1202l-164 -920q-8 -47 -8 -78q0 -72 45 -100t158 -33l-11 -51h-507l8 51q117 6 161.5 40t61.5 130l192 1082l5 45q0 52 -38 72.5t-137 25.5l11 51h338l604 -1102l149 840q8 47 8 78q0 72 -44.5 100t-159.5 33z" />
    <glyph glyph-name="Ograve" unicode="&#xd2;" horiz-adv-x="1597" 
d="M1196 1606q-337 66 -420 104q-65 32 -65 96q0 42 29.5 72.5t72.5 30.5q22 0 51 -13q76 -36 348 -254zM702 -20q-270 0 -424.5 158.5t-154.5 430.5q0 195 66.5 371t180 302.5t271 201t332.5 74.5q268 0 422.5 -159t154.5 -429q0 -195 -66.5 -371.5t-179.5 -303
t-270.5 -201t-331.5 -74.5zM717 61q150 0 283.5 127.5t212.5 339.5t79 449q0 212 -88.5 335.5t-245.5 123.5q-151 0 -285.5 -127.5t-214 -339t-79.5 -447.5q0 -215 89.5 -338t248.5 -123z" />
    <glyph glyph-name="Oacute" unicode="&#xd3;" horiz-adv-x="1597" 
d="M811 1606l-18 36q277 220 350 254q26 13 51 13q43 0 72.5 -30.5t29.5 -72.5q0 -30 -17.5 -55.5t-49.5 -40.5q-79 -38 -418 -104zM702 -20q-270 0 -424.5 158.5t-154.5 430.5q0 195 66.5 371t180 302.5t271 201t332.5 74.5q268 0 422.5 -159t154.5 -429
q0 -195 -66.5 -371.5t-179.5 -303t-270.5 -201t-331.5 -74.5zM717 61q150 0 283.5 127.5t212.5 339.5t79 449q0 212 -88.5 335.5t-245.5 123.5q-151 0 -285.5 -127.5t-214 -339t-79.5 -447.5q0 -215 89.5 -338t248.5 -123z" />
    <glyph glyph-name="Ocircumflex" unicode="&#xd4;" horiz-adv-x="1597" 
d="M1014 1737l-307 -131l-13 39l332 264h37l235 -264l-26 -39zM973 1518q268 0 422.5 -159t154.5 -429q0 -195 -66.5 -371.5t-179.5 -303t-270.5 -201t-331.5 -74.5q-270 0 -424.5 158.5t-154.5 430.5q0 195 66.5 371t180 302.5t271 201t332.5 74.5zM717 61
q150 0 283.5 127.5t212.5 339.5t79 449q0 212 -88.5 335.5t-245.5 123.5q-151 0 -285.5 -127.5t-214 -339t-79.5 -447.5q0 -215 89.5 -338t248.5 -123z" />
    <glyph glyph-name="Otilde" unicode="&#xd5;" horiz-adv-x="1597" 
d="M1149 1614q-33 0 -70 12.5t-56 23.5t-60 36q-101 67 -170 67q-80 0 -136 -131l-39 10q32 111 108 194t157 83q45 0 85.5 -18.5t92.5 -53.5q40 -24 58 -34t52.5 -22t65.5 -12q80 0 135 132l39 -11q-32 -113 -105.5 -194.5t-156.5 -81.5zM702 -20q-270 0 -424.5 158.5
t-154.5 430.5q0 195 66.5 371t180 302.5t271 201t332.5 74.5q268 0 422.5 -159t154.5 -429q0 -195 -66.5 -371.5t-179.5 -303t-270.5 -201t-331.5 -74.5zM717 61q150 0 283.5 127.5t212.5 339.5t79 449q0 212 -88.5 335.5t-245.5 123.5q-151 0 -285.5 -127.5t-214 -339
t-79.5 -447.5q0 -215 89.5 -338t248.5 -123z" />
    <glyph glyph-name="Odieresis" unicode="&#xd6;" horiz-adv-x="1597" 
d="M827 1651q-51 0 -81.5 30t-30.5 80q0 52 37.5 90.5t89.5 38.5q50 0 81 -31t31 -79q0 -54 -37 -91.5t-90 -37.5zM1196 1651q-51 0 -82 30t-31 80q0 52 37.5 90.5t89.5 38.5q50 0 81.5 -31t31.5 -79q0 -54 -37 -91.5t-90 -37.5zM702 -20q-270 0 -424.5 158.5t-154.5 430.5
q0 195 66.5 371t180 302.5t271 201t332.5 74.5q268 0 422.5 -159t154.5 -429q0 -195 -66.5 -371.5t-179.5 -303t-270.5 -201t-331.5 -74.5zM717 61q150 0 283.5 127.5t212.5 339.5t79 449q0 212 -88.5 335.5t-245.5 123.5q-151 0 -285.5 -127.5t-214 -339t-79.5 -447.5
q0 -215 89.5 -338t248.5 -123z" />
    <glyph glyph-name="multiply" unicode="&#xd7;" horiz-adv-x="970" 
d="M866 862l-303 -258l219 -264l-75 -66l-220 267l-321 -275l-51 66l319 272l-219 266l76 66l221 -266l301 256z" />
    <glyph glyph-name="Oslash" unicode="&#xd8;" horiz-adv-x="1609" 
d="M1604 1487l-162 -176q112 -148 112 -381q0 -195 -66.5 -371.5t-179.5 -303t-270 -201t-331 -74.5q-249 0 -402 137l-180 -195l-49 53l180 193q-129 154 -129 401q0 195 66.5 371t180 302.5t271 201t332.5 74.5q261 0 416 -152l161 174zM963 1436q-151 0 -285.5 -127
t-214.5 -339t-80 -448q0 -107 27 -207l841 918q-40 98 -114 150.5t-174 52.5zM721 61q150 0 283.5 127.5t212.5 339.5t79 449q0 102 -20 178l-838 -915q43 -86 115.5 -132.5t167.5 -46.5z" />
    <glyph glyph-name="Ugrave" unicode="&#xd9;" horiz-adv-x="1546" 
d="M825 1710q-32 15 -49.5 40.5t-17.5 55.5q0 42 29.5 72.5t72.5 30.5q22 0 51 -13q75 -36 351 -254l-19 -36q-339 66 -418 104zM1155 1497h510l-10 -51q-117 -6 -161.5 -39.5t-61.5 -130.5l-140 -782q-41 -238 -196 -376t-377 -138q-245 0 -368.5 103t-123.5 292
q0 57 13 127l135 774q6 38 6 61q0 58 -37 81t-133 28l10 51h664l-8 -51q-139 -6 -193.5 -44.5t-73.5 -144.5l-139 -796q-8 -44 -8 -94q0 -141 81.5 -223.5t225.5 -82.5q163 0 283.5 114t152.5 300l133 760q9 53 9 80q0 71 -44.5 98.5t-156.5 32.5z" />
    <glyph glyph-name="Uacute" unicode="&#xda;" horiz-adv-x="1546" 
d="M1278 1710q-83 -38 -420 -104l-18 36q277 220 350 254q29 13 51 13q43 0 72.5 -30.5t29.5 -72.5q0 -64 -65 -96zM1155 1497h510l-10 -51q-117 -6 -161.5 -39.5t-61.5 -130.5l-140 -782q-41 -238 -196 -376t-377 -138q-245 0 -368.5 103t-123.5 292q0 57 13 127l135 774
q6 38 6 61q0 58 -37 81t-133 28l10 51h664l-8 -51q-139 -6 -193.5 -44.5t-73.5 -144.5l-139 -796q-8 -44 -8 -94q0 -141 81.5 -223.5t225.5 -82.5q163 0 283.5 114t152.5 300l133 760q9 53 9 80q0 71 -44.5 98.5t-156.5 32.5z" />
    <glyph glyph-name="Ucircumflex" unicode="&#xdb;" horiz-adv-x="1546" 
d="M1061 1737l-307 -131l-13 39l332 264h37l236 -264l-25 -39zM1155 1497h510l-10 -51q-117 -6 -161.5 -39.5t-61.5 -130.5l-140 -782q-41 -238 -196 -376t-377 -138q-245 0 -368.5 103t-123.5 292q0 57 13 127l135 774q6 38 6 61q0 58 -37 81t-133 28l10 51h664l-8 -51
q-139 -6 -193.5 -44.5t-73.5 -144.5l-139 -796q-8 -44 -8 -94q0 -141 81.5 -223.5t225.5 -82.5q163 0 283.5 114t152.5 300l133 760q9 53 9 80q0 71 -44.5 98.5t-156.5 32.5z" />
    <glyph glyph-name="Udieresis" unicode="&#xdc;" horiz-adv-x="1546" 
d="M877 1651q-51 0 -83 30.5t-32 79.5q0 52 38 90.5t91 38.5q49 0 79.5 -31t30.5 -79q0 -54 -36 -91.5t-88 -37.5zM1245 1651q-51 0 -83 30.5t-32 79.5q0 52 38.5 90.5t91.5 38.5q49 0 79.5 -31t30.5 -79q0 -54 -36.5 -91.5t-88.5 -37.5zM1155 1497h510l-10 -51
q-117 -6 -161.5 -39.5t-61.5 -130.5l-140 -782q-41 -238 -196 -376t-377 -138q-245 0 -368.5 103t-123.5 292q0 57 13 127l135 774q6 38 6 61q0 58 -37 81t-133 28l10 51h664l-8 -51q-139 -6 -193.5 -44.5t-73.5 -144.5l-139 -796q-8 -44 -8 -94q0 -141 81.5 -223.5
t225.5 -82.5q163 0 283.5 114t152.5 300l133 760q9 53 9 80q0 71 -44.5 98.5t-156.5 32.5z" />
    <glyph glyph-name="Yacute" unicode="&#xdd;" horiz-adv-x="1433" 
d="M1223 1710q-80 -38 -420 -104l-17 36q268 215 351 254q26 13 51 13q43 0 71.5 -30.5t28.5 -72.5q0 -66 -65 -96zM1042 1497h576l-10 -51q-54 -6 -99 -21.5t-97.5 -50t-109 -96.5t-120.5 -154l-328 -475l-72 -407q-6 -44 -6 -68q0 -66 43 -92t154 -31l-8 -51h-684l10 51
q134 6 184.5 44.5t69.5 146.5l73 411l-212 588q-39 113 -87 155t-129 50l11 51h688l-8 -51q-125 -6 -174.5 -30.5t-49.5 -76.5q0 -37 35 -147l148 -438l247 358q73 105 105.5 162.5t32.5 93.5q0 38 -45 56.5t-148 21.5z" />
    <glyph glyph-name="Thorn" unicode="&#xde;" horiz-adv-x="1400" 
d="M930 1200q203 0 321.5 -89.5t118.5 -242.5q0 -142 -83.5 -256t-232.5 -178.5t-335 -64.5h-244l-18 -107q-8 -44 -8 -78q0 -71 44.5 -99t157.5 -34l-8 -51h-663l8 51q117 6 161.5 40t61.5 130l186 1055q6 38 6 61q0 58 -37 81t-133 28l11 51h626l-10 -51q-116 -6 -161 -40
t-62 -130l-14 -76h307zM715 451q164 0 279.5 122t115.5 297q0 115 -67 181.5t-185 66.5h-250l-119 -667h226z" />
    <glyph glyph-name="germandbls" unicode="&#xdf;" horiz-adv-x="1228" 
d="M-156 -430l-6 39q96 69 150.5 172t81.5 256l178 999q47 274 216 438t398 164q158 0 251 -59.5t93 -159.5q0 -40 -13 -75.5t-29.5 -60.5t-48 -53t-53.5 -43.5t-61 -41.5q-42 -29 -66.5 -48t-53.5 -48t-42.5 -61.5t-13.5 -69.5q0 -30 10 -59t33.5 -61t41.5 -52.5t53 -57.5
q41 -42 67 -73.5t55.5 -76t44.5 -92.5t15 -98q0 -154 -110.5 -261t-264.5 -107q-182 0 -252 190l37 25q32 -58 81 -90.5t105 -32.5q80 0 131.5 50.5t51.5 129.5q0 38 -18 76.5t-38.5 63.5t-58.5 67q-45 50 -70.5 84t-49 92t-23.5 119q0 58 12 105.5t40.5 90.5t48 66.5
t60.5 66.5q34 36 49 53t41.5 54.5t38.5 67.5t22.5 75.5t10.5 96.5q0 64 -37 102.5t-102 38.5q-127 0 -229 -133.5t-140 -350.5l-170 -952q-38 -215 -166.5 -371t-300.5 -194z" />
    <glyph glyph-name="agrave" unicode="&#xe0;" horiz-adv-x="1236" 
d="M834 1178q-250 209 -316 295q-24 27 -24 71q0 37 30.5 67.5t69.5 30.5q58 0 90 -49q57 -83 182 -391zM1137 350l34 -18q-52 -167 -133 -259.5t-172 -92.5q-65 0 -103 32t-38 97q0 20 6 47l68 376q-113 -295 -228.5 -423.5t-271.5 -128.5q-110 0 -173 91t-63 248
q0 213 78 394.5t214.5 288t299.5 106.5q135 0 226 -72q150 27 241 72h4l-163 -920q-5 -22 -5 -34q0 -35 29 -35q56 0 150 231zM422 135q104 0 208.5 183t227.5 581q-20 63 -68.5 98t-109.5 35q-102 0 -189.5 -90t-137.5 -238t-50 -315q0 -118 31.5 -186t87.5 -68z" />
    <glyph glyph-name="aacute" unicode="&#xe1;" horiz-adv-x="1236" 
d="M993 1411q-75 -49 -397 -168l-21 33q102 112 184 193.5t122 111.5q29 23 63 23q41 0 73 -31t32 -70q0 -58 -56 -92zM1137 350l34 -18q-52 -167 -133 -259.5t-172 -92.5q-65 0 -103 32t-38 97q0 20 6 47l68 376q-113 -295 -228.5 -423.5t-271.5 -128.5q-110 0 -173 91
t-63 248q0 213 78 394.5t214.5 288t299.5 106.5q135 0 226 -72q150 27 241 72h4l-163 -920q-5 -22 -5 -34q0 -35 29 -35q56 0 150 231zM422 135q104 0 208.5 183t227.5 581q-20 63 -68.5 98t-109.5 35q-102 0 -189.5 -90t-137.5 -238t-50 -315q0 -118 31.5 -186t87.5 -68z
" />
    <glyph glyph-name="acircumflex" unicode="&#xe2;" horiz-adv-x="1236" 
d="M829 1425l-307 -217l-20 27l344 389h37l207 -389l-31 -27zM1137 350l34 -18q-52 -167 -133 -259.5t-172 -92.5q-65 0 -103 32t-38 97q0 20 6 47l68 376q-113 -295 -228.5 -423.5t-271.5 -128.5q-110 0 -173 91t-63 248q0 213 78 394.5t214.5 288t299.5 106.5
q135 0 226 -72q150 27 241 72h4l-163 -920q-5 -22 -5 -34q0 -35 29 -35q56 0 150 231zM422 135q104 0 208.5 183t227.5 581q-20 63 -68.5 98t-109.5 35q-102 0 -189.5 -90t-137.5 -238t-50 -315q0 -118 31.5 -186t87.5 -68z" />
    <glyph glyph-name="atilde" unicode="&#xe3;" horiz-adv-x="1236" 
d="M621 1421q-69 0 -123 -131l-41 10q31 113 103 195t153 82q40 0 76 -18.5t85 -53.5q32 -21 51.5 -33t51 -23t59.5 -11q73 0 125 131l39 -10q-31 -114 -101.5 -195.5t-152.5 -81.5q-31 0 -63.5 12.5t-50.5 24t-52 35.5q-32 22 -52 34t-49.5 22.5t-57.5 10.5zM987 119
q56 0 150 231l34 -18q-52 -167 -133 -259.5t-172 -92.5q-65 0 -103 32t-38 97q0 20 6 47l68 376q-113 -295 -228.5 -423.5t-271.5 -128.5q-110 0 -173 91t-63 248q0 213 78 394.5t214.5 288t299.5 106.5q135 0 226 -72q150 27 241 72h4l-163 -920q-5 -22 -5 -34
q0 -35 29 -35zM422 135q104 0 208.5 183t227.5 581q-20 63 -68.5 98t-109.5 35q-102 0 -189.5 -90t-137.5 -238t-50 -315q0 -118 31.5 -186t87.5 -68z" />
    <glyph glyph-name="adieresis" unicode="&#xe4;" horiz-adv-x="1236" 
d="M645 1339q-50 0 -81.5 31.5t-31.5 79.5q0 53 37.5 92t89.5 39q50 0 81.5 -31.5t31.5 -79.5q0 -54 -37.5 -92.5t-89.5 -38.5zM1014 1339q-50 0 -81.5 31.5t-31.5 79.5q0 53 37.5 92t89.5 39q50 0 81.5 -31.5t31.5 -79.5q0 -54 -37.5 -92.5t-89.5 -38.5zM1137 350l34 -18
q-52 -167 -133 -259.5t-172 -92.5q-65 0 -103 32t-38 97q0 20 6 47l68 376q-113 -295 -228.5 -423.5t-271.5 -128.5q-110 0 -173 91t-63 248q0 213 78 394.5t214.5 288t299.5 106.5q135 0 226 -72q150 27 241 72h4l-163 -920q-5 -22 -5 -34q0 -35 29 -35q56 0 150 231z
M422 135q104 0 208.5 183t227.5 581q-20 63 -68.5 98t-109.5 35q-102 0 -189.5 -90t-137.5 -238t-50 -315q0 -118 31.5 -186t87.5 -68z" />
    <glyph glyph-name="aring" unicode="&#xe5;" horiz-adv-x="1236" 
d="M811 1212q-96 0 -152.5 49.5t-56.5 133.5q0 98 70.5 163.5t173.5 65.5q95 0 151 -50.5t56 -135.5q0 -95 -70.5 -160.5t-171.5 -65.5zM834 1556q-64 0 -108 -42.5t-44 -104.5q0 -59 37.5 -94t101.5 -35t108 41.5t44 103.5q0 60 -37.5 95.5t-101.5 35.5zM1137 350l34 -18
q-52 -167 -133 -259.5t-172 -92.5q-65 0 -103 32t-38 97q0 20 6 47l68 376q-113 -295 -228.5 -423.5t-271.5 -128.5q-110 0 -173 91t-63 248q0 213 78 394.5t214.5 288t299.5 106.5q135 0 226 -72q150 27 241 72h4l-163 -920q-5 -22 -5 -34q0 -35 29 -35q56 0 150 231z
M422 135q104 0 208.5 183t227.5 581q-20 63 -68.5 98t-109.5 35q-102 0 -189.5 -90t-137.5 -238t-50 -315q0 -118 31.5 -186t87.5 -68z" />
    <glyph glyph-name="ae" unicode="&#xe6;" horiz-adv-x="1744" 
d="M1282 135q83 0 175.5 48t158.5 126l31 -22q-82 -138 -219.5 -222.5t-282.5 -84.5q-187 0 -293.5 112t-108.5 305q-97 -220 -201.5 -318.5t-242.5 -98.5q-110 0 -173 91t-63 248q0 213 78 394.5t214.5 288t299.5 106.5q92 0 177.5 -44t140.5 -116q174 160 403 160
q152 0 242 -61t90 -164q0 -76 -58 -142t-159.5 -114t-230.5 -82t-279 -53v-9q0 -161 80 -254.5t221 -93.5zM1356 1038q-135 0 -243 -141t-128 -338q243 38 384.5 128t141.5 220q0 60 -43 95.5t-112 35.5zM422 135q104 0 208.5 184.5t229.5 587.5q-27 61 -75 93t-105 32
q-102 0 -189.5 -90t-137.5 -238t-50 -315q0 -118 31.5 -186t87.5 -68z" />
    <glyph glyph-name="ccedilla" unicode="&#xe7;" horiz-adv-x="1069" 
d="M870 594q-36 0 -57 14v410q-42 22 -108 22q-106 0 -197.5 -76t-145 -205t-53.5 -278q0 -159 78 -252.5t215 -93.5q83 0 173.5 47t150.5 125l28 -20q-75 -131 -200.5 -214.5t-259.5 -92.5l-41 -52q125 -86 125 -174q0 -83 -77.5 -131t-209.5 -53v37q63 11 101 37t38 67
q0 71 -113 148l99 123q-163 17 -253.5 128t-90.5 291q0 196 83 358t228 255.5t319 93.5q152 0 240 -78t88 -209q0 -104 -47.5 -165.5t-112.5 -61.5zM868 971l13 -19z" />
    <glyph glyph-name="egrave" unicode="&#xe8;" horiz-adv-x="1064" 
d="M795 1178q-246 206 -318 295q-24 30 -24 71q0 37 31.5 67.5t70.5 30.5q58 0 90 -49q49 -71 182 -391zM610 135q82 0 174 48t158 126l31 -22q-82 -138 -219 -222.5t-281 -84.5q-188 0 -295.5 113.5t-107.5 307.5q0 193 84 356t228 257t314 94q147 0 232.5 -59t85.5 -158
q0 -77 -56 -144t-155 -116t-224 -84t-272 -55v-9q0 -161 80.5 -254.5t222.5 -93.5zM676 1038q-132 0 -238.5 -141t-126.5 -338q235 38 370.5 130.5t135.5 228.5q0 55 -38 87.5t-103 32.5z" />
    <glyph glyph-name="eacute" unicode="&#xe9;" horiz-adv-x="1064" 
d="M913 1411q-83 -53 -399 -168l-20 33q214 236 305 305q29 23 63 23q41 0 73 -31t32 -70q0 -57 -54 -92zM610 135q82 0 174 48t158 126l31 -22q-82 -138 -219 -222.5t-281 -84.5q-188 0 -295.5 113.5t-107.5 307.5q0 193 84 356t228 257t314 94q147 0 232.5 -59t85.5 -158
q0 -77 -56 -144t-155 -116t-224 -84t-272 -55v-9q0 -161 80.5 -254.5t222.5 -93.5zM676 1038q-132 0 -238.5 -141t-126.5 -338q235 38 370.5 130.5t135.5 228.5q0 55 -38 87.5t-103 32.5z" />
    <glyph glyph-name="ecircumflex" unicode="&#xea;" horiz-adv-x="1064" 
d="M748 1425l-306 -217l-22 27l344 389h39l205 -389l-31 -27zM610 135q82 0 174 48t158 126l31 -22q-82 -138 -219 -222.5t-281 -84.5q-188 0 -295.5 113.5t-107.5 307.5q0 193 84 356t228 257t314 94q147 0 232.5 -59t85.5 -158q0 -77 -56 -144t-155 -116t-224 -84
t-272 -55v-9q0 -161 80.5 -254.5t222.5 -93.5zM676 1038q-132 0 -238.5 -141t-126.5 -338q235 38 370.5 130.5t135.5 228.5q0 55 -38 87.5t-103 32.5z" />
    <glyph glyph-name="edieresis" unicode="&#xeb;" horiz-adv-x="1064" 
d="M563 1339q-50 0 -81 31.5t-31 79.5q0 53 37.5 92t89.5 39q50 0 81 -31.5t31 -79.5q0 -54 -36.5 -92.5t-90.5 -38.5zM946 1581q50 0 81.5 -31.5t31.5 -79.5q0 -54 -36.5 -92.5t-90.5 -38.5q-50 0 -81.5 31.5t-31.5 79.5q0 53 37.5 92t89.5 39zM1014 891q0 -77 -56 -144
t-155 -116t-224 -84t-272 -55v-9q0 -161 80.5 -254.5t222.5 -93.5q82 0 174 48t158 126l31 -22q-82 -138 -219 -222.5t-281 -84.5q-188 0 -295.5 113.5t-107.5 307.5q0 193 84 356t228 257t314 94q147 0 232.5 -59t85.5 -158zM676 1038q-132 0 -238.5 -141t-126.5 -338
q235 38 370.5 130.5t135.5 228.5q0 55 -38 87.5t-103 32.5z" />
    <glyph glyph-name="igrave" unicode="&#xec;" horiz-adv-x="653" 
d="M543 1178q-250 209 -316 295q-24 27 -24 71q0 37 30.5 67.5t69.5 30.5q58 0 90 -49q57 -83 182 -391zM553 350l37 -18q-54 -168 -134.5 -260t-172.5 -92q-65 0 -102.5 32t-37.5 97q0 11 4 47l134 743q4 18 4 35q0 35 -29 35q-56 0 -150 -232l-34 19q52 167 133 259.5
t172 92.5q65 0 103 -31t38 -96q0 -22 -6 -49l-133 -744q-2 -18 -2 -34q0 -20 7 -27.5t22 -7.5q56 0 147 231z" />
    <glyph glyph-name="iacute" unicode="&#xed;" horiz-adv-x="653" 
d="M600 1604q41 0 73 -31t32 -70q0 -59 -54 -92q-81 -52 -397 -168l-23 33q102 112 184 193.5t122 111.5q33 23 63 23zM406 119q56 0 147 231l37 -18q-54 -168 -134.5 -260t-172.5 -92q-65 0 -102.5 32t-37.5 97q0 11 4 47l134 743q4 18 4 35q0 35 -29 35q-56 0 -150 -232
l-34 19q52 167 133 259.5t172 92.5q65 0 103 -31t38 -96q0 -22 -6 -49l-133 -744q-2 -18 -2 -34q0 -20 7 -27.5t22 -7.5z" />
    <glyph glyph-name="icircumflex" unicode="&#xee;" horiz-adv-x="653" 
d="M541 1624l207 -389l-31 -27l-232 217l-305 -217l-22 27l346 389h37zM406 119q56 0 147 231l37 -18q-54 -168 -134.5 -260t-172.5 -92q-65 0 -102.5 32t-37.5 97q0 11 4 47l134 743q4 18 4 35q0 35 -29 35q-56 0 -150 -232l-34 19q52 167 133 259.5t172 92.5q65 0 103 -31
t38 -96q0 -22 -6 -49l-133 -744q-2 -18 -2 -34q0 -20 7 -27.5t22 -7.5z" />
    <glyph glyph-name="idieresis" unicode="&#xef;" horiz-adv-x="653" 
d="M344 1348q-46 0 -75 28t-29 74q0 51 34.5 88t81.5 37q45 0 74 -30t29 -75q0 -52 -33.5 -87t-81.5 -35zM643 1575q45 0 73.5 -30t28.5 -75q0 -52 -33 -87t-81 -35q-46 0 -75.5 28.5t-29.5 73.5q0 51 35 88t82 37zM406 119q56 0 147 231l37 -18q-54 -168 -134.5 -260
t-172.5 -92q-65 0 -102.5 32t-37.5 97q0 11 4 47l134 743q4 18 4 35q0 35 -29 35q-56 0 -150 -232l-34 19q52 167 133 259.5t172 92.5q65 0 103 -31t38 -96q0 -22 -6 -49l-133 -744q-2 -18 -2 -34q0 -20 7 -27.5t22 -7.5z" />
    <glyph glyph-name="eth" unicode="&#xf0;" horiz-adv-x="1187" 
d="M784 1446q162 -136 251 -313t89 -371q0 -157 -50.5 -301.5t-135.5 -249.5t-202 -168t-244 -63q-195 0 -307.5 116t-112.5 314q0 139 46 268t122.5 223t181.5 150.5t217 56.5q115 0 195 -61q-54 198 -172 346l-338 -150l-11 55l312 138q-76 87 -189 163l21 39
q151 -61 276 -153l350 153l15 -55zM504 47q80 0 154.5 74.5t127.5 199t74 271.5q10 88 10 145q0 136 -50.5 214.5t-141.5 78.5q-92 0 -178.5 -100.5t-139.5 -260.5t-53 -327q0 -135 52 -215t145 -80z" />
    <glyph glyph-name="ntilde" unicode="&#xf1;" horiz-adv-x="1304" 
d="M602 1421q-71 0 -123 -131l-41 10q31 113 103 195t153 82q40 0 77 -18.5t85 -53.5q32 -21 51.5 -33t51 -23t59.5 -11q74 0 123 131l41 -10q-32 -114 -103.5 -195.5t-152.5 -81.5q-29 0 -61.5 12.5t-50.5 23.5t-54 36q-94 67 -158 67zM1208 350l35 -18
q-52 -167 -133 -259.5t-172 -92.5q-65 0 -103 32t-38 97q0 20 6 47l123 702q4 18 4 31q0 55 -53 55q-36 0 -84.5 -40.5t-111 -127t-142 -245.5t-162.5 -373l-27 -158h-225l160 899q2 18 2 35q0 20 -7 27.5t-22 7.5q-26 0 -64.5 -60t-82.5 -172l-37 19q54 168 135 260t172 92
q65 0 102 -31t37 -96q0 -13 -4 -49l-84 -463q67 154 137 271t129.5 185.5t119.5 111t105 57t89 14.5q70 0 110.5 -37.5t40.5 -109.5q0 -27 -4 -52l-125 -721q-4 -18 -4 -34q0 -35 29 -35q55 0 149 231z" />
    <glyph glyph-name="ograve" unicode="&#xf2;" horiz-adv-x="1210" 
d="M819 1178q-248 207 -315 295q-25 28 -25 71q0 37 31 67.5t70 30.5q58 0 90 -49q49 -71 182 -391zM508 -20q-203 0 -319.5 117.5t-116.5 316.5q0 143 49.5 272t134 221.5t202.5 146.5t249 54q202 0 318 -117t116 -317q0 -191 -84 -351t-229.5 -251.5t-319.5 -91.5zM520 47
q96 0 185.5 100t143.5 261t54 331q0 139 -55.5 220t-151.5 81q-98 0 -188.5 -100t-144.5 -260.5t-54 -329.5q0 -140 56 -221.5t155 -81.5z" />
    <glyph glyph-name="oacute" unicode="&#xf3;" horiz-adv-x="1210" 
d="M528 1243l-20 33q214 236 305 305q29 23 64 23q41 0 72.5 -31t31.5 -70q0 -58 -53 -92q-82 -52 -400 -168zM508 -20q-203 0 -319.5 117.5t-116.5 316.5q0 143 49.5 272t134 221.5t202.5 146.5t249 54q202 0 318 -117t116 -317q0 -191 -84 -351t-229.5 -251.5
t-319.5 -91.5zM520 47q96 0 185.5 100t143.5 261t54 331q0 139 -55.5 220t-151.5 81q-98 0 -188.5 -100t-144.5 -260.5t-54 -329.5q0 -140 56 -221.5t155 -81.5z" />
    <glyph glyph-name="ocircumflex" unicode="&#xf4;" horiz-adv-x="1210" 
d="M762 1425l-305 -217l-23 27l346 389h37l205 -389l-31 -27zM707 1108q202 0 318 -117t116 -317q0 -191 -84 -351t-229.5 -251.5t-319.5 -91.5q-203 0 -319.5 117.5t-116.5 316.5q0 143 49.5 272t134 221.5t202.5 146.5t249 54zM520 47q96 0 185.5 100t143.5 261t54 331
q0 139 -55.5 220t-151.5 81q-98 0 -188.5 -100t-144.5 -260.5t-54 -329.5q0 -140 56 -221.5t155 -81.5z" />
    <glyph glyph-name="otilde" unicode="&#xf5;" horiz-adv-x="1210" 
d="M879 1282q-31 0 -63.5 12.5t-50.5 24t-52 35.5q-48 33 -84 50t-76 17q-69 0 -123 -131l-39 10q31 113 102 195t152 82q67 0 162 -72q99 -67 162 -67q73 0 125 131l41 -10q-32 -114 -103.5 -195.5t-152.5 -81.5zM508 -20q-203 0 -319.5 117.5t-116.5 316.5q0 143 49.5 272
t134 221.5t202.5 146.5t249 54q202 0 318 -117t116 -317q0 -191 -84 -351t-229.5 -251.5t-319.5 -91.5zM520 47q96 0 185.5 100t143.5 261t54 331q0 139 -55.5 220t-151.5 81q-98 0 -188.5 -100t-144.5 -260.5t-54 -329.5q0 -140 56 -221.5t155 -81.5z" />
    <glyph glyph-name="odieresis" unicode="&#xf6;" horiz-adv-x="1210" 
d="M578 1339q-49 0 -81 31.5t-32 79.5q0 53 37.5 92t89.5 39q50 0 81.5 -31.5t31.5 -79.5q0 -54 -36.5 -92.5t-90.5 -38.5zM946 1339q-49 0 -80.5 31.5t-31.5 79.5q0 53 37.5 92t89.5 39q50 0 81 -31.5t31 -79.5q0 -54 -36.5 -92.5t-90.5 -38.5zM508 -20
q-203 0 -319.5 117.5t-116.5 316.5q0 143 49.5 272t134 221.5t202.5 146.5t249 54q202 0 318 -117t116 -317q0 -191 -84 -351t-229.5 -251.5t-319.5 -91.5zM520 47q96 0 185.5 100t143.5 261t54 331q0 139 -55.5 220t-151.5 81q-98 0 -188.5 -100t-144.5 -260.5t-54 -329.5
q0 -140 56 -221.5t155 -81.5z" />
    <glyph glyph-name="divide" unicode="&#xf7;" horiz-adv-x="970" 
d="M522 750q-49 0 -77.5 27.5t-28.5 72.5q0 63 43.5 107t105.5 44q50 0 79.5 -27t29.5 -73q0 -62 -44.5 -106.5t-107.5 -44.5zM104 561l15 82h768l-15 -82h-768zM424 203q-48 0 -77.5 27.5t-29.5 72.5q0 61 45.5 106.5t106.5 45.5q49 0 77.5 -28t28.5 -73q0 -63 -44 -107
t-107 -44z" />
    <glyph glyph-name="oslash" unicode="&#xf8;" horiz-adv-x="1216" 
d="M1200 1114l-145 -158q86 -113 86 -282q0 -191 -84 -351t-229.5 -251.5t-319.5 -91.5q-172 0 -289 90l-135 -148l-49 53l133 144q-96 113 -96 295q0 143 49.5 272t134 221.5t202.5 146.5t249 54q184 0 299 -98l145 155zM696 1040q-98 0 -188.5 -100t-144.5 -260.5
t-54 -329.5q0 -42 6 -80l568 619q-25 72 -73 111.5t-114 39.5zM520 47q96 0 185.5 100t143.5 261t54 331q0 42 -2 60l-565 -615q51 -137 184 -137z" />
    <glyph glyph-name="ugrave" unicode="&#xf9;" horiz-adv-x="1298" 
d="M801 1178q-240 201 -316 295q-24 27 -24 71q0 37 31 67.5t69 30.5q58 0 90 -49q59 -86 183 -391zM1196 350l35 -18q-52 -168 -133 -260t-174 -92q-63 0 -101.5 32t-38.5 97q0 15 7 47l81 460q-66 -153 -135 -269.5t-127.5 -184.5t-118 -110.5t-104.5 -57t-88 -14.5
q-69 0 -109 37.5t-40 109.5q0 26 4 51l125 721q2 18 2 35q0 20 -7 27.5t-22 7.5q-27 0 -65.5 -60.5t-82.5 -171.5l-36 19q54 168 134.5 260t172.5 92q65 0 102 -31t37 -96q0 -13 -4 -49l-125 -703q-2 -18 -2 -30q0 -56 51 -56q28 0 63 24t82.5 82t100 145.5t117 225.5
t131.5 310l28 157h226l-160 -899q-4 -18 -4 -34q0 -35 29 -35q55 0 149 231z" />
    <glyph glyph-name="uacute" unicode="&#xfa;" horiz-adv-x="1298" 
d="M952 1411q-79 -50 -399 -168l-21 33q102 112 184 193.5t122 111.5q29 23 63 23q41 0 73 -31t32 -70q0 -57 -54 -92zM1196 350l35 -18q-52 -168 -133 -260t-174 -92q-63 0 -101.5 32t-38.5 97q0 15 7 47l81 460q-66 -153 -135 -269.5t-127.5 -184.5t-118 -110.5
t-104.5 -57t-88 -14.5q-69 0 -109 37.5t-40 109.5q0 26 4 51l125 721q2 18 2 35q0 20 -7 27.5t-22 7.5q-27 0 -65.5 -60.5t-82.5 -171.5l-36 19q54 168 134.5 260t172.5 92q65 0 102 -31t37 -96q0 -13 -4 -49l-125 -703q-2 -18 -2 -30q0 -56 51 -56q28 0 63 24t82.5 82
t100 145.5t117 225.5t131.5 310l28 157h226l-160 -899q-4 -18 -4 -34q0 -35 29 -35q55 0 149 231z" />
    <glyph glyph-name="ucircumflex" unicode="&#xfb;" horiz-adv-x="1298" 
d="M786 1425l-307 -217l-20 27l344 389h37l207 -389l-31 -27zM1196 350l35 -18q-52 -168 -133 -260t-174 -92q-63 0 -101.5 32t-38.5 97q0 15 7 47l81 460q-66 -153 -135 -269.5t-127.5 -184.5t-118 -110.5t-104.5 -57t-88 -14.5q-69 0 -109 37.5t-40 109.5q0 26 4 51
l125 721q2 18 2 35q0 20 -7 27.5t-22 7.5q-27 0 -65.5 -60.5t-82.5 -171.5l-36 19q54 168 134.5 260t172.5 92q65 0 102 -31t37 -96q0 -13 -4 -49l-125 -703q-2 -18 -2 -30q0 -56 51 -56q28 0 63 24t82.5 82t100 145.5t117 225.5t131.5 310l28 157h226l-160 -899
q-4 -18 -4 -34q0 -35 29 -35q55 0 149 231z" />
    <glyph glyph-name="udieresis" unicode="&#xfc;" horiz-adv-x="1298" 
d="M602 1339q-50 0 -81.5 31.5t-31.5 79.5q0 53 37.5 92t89.5 39q50 0 81.5 -31.5t31.5 -79.5q0 -54 -36.5 -92.5t-90.5 -38.5zM971 1339q-50 0 -81.5 31.5t-31.5 79.5q0 53 37.5 92t89.5 39q50 0 81.5 -31.5t31.5 -79.5q0 -54 -36.5 -92.5t-90.5 -38.5zM1196 350l35 -18
q-52 -168 -133 -260t-174 -92q-63 0 -101.5 32t-38.5 97q0 15 7 47l81 460q-66 -153 -135 -269.5t-127.5 -184.5t-118 -110.5t-104.5 -57t-88 -14.5q-69 0 -109 37.5t-40 109.5q0 26 4 51l125 721q2 18 2 35q0 20 -7 27.5t-22 7.5q-27 0 -65.5 -60.5t-82.5 -171.5l-36 19
q54 168 134.5 260t172.5 92q65 0 102 -31t37 -96q0 -13 -4 -49l-125 -703q-2 -18 -2 -30q0 -56 51 -56q28 0 63 24t82.5 82t100 145.5t117 225.5t131.5 310l28 157h226l-160 -899q-4 -18 -4 -34q0 -35 29 -35q55 0 149 231z" />
    <glyph glyph-name="yacute" unicode="&#xfd;" horiz-adv-x="1230" 
d="M952 1411q-79 -50 -399 -168l-21 33q102 112 184 193.5t122 111.5q29 23 63 23q41 0 73 -31t32 -70q0 -57 -54 -92zM956 1087h226l-101 -561l-10 -55q-40 -215 -119.5 -386t-186.5 -283.5t-238.5 -172t-278.5 -59.5q-74 0 -118 33.5t-44 87.5q0 31 14 59l512 2
q108 85 164 238.5t78 412.5l33 246q-68 -161 -139 -284t-131.5 -194.5t-121.5 -116t-106.5 -59.5t-89.5 -15q-69 0 -109 37.5t-40 109.5q0 26 4 51l125 721q2 18 2 35q0 20 -7 27.5t-22 7.5q-27 0 -65.5 -60.5t-82.5 -171.5l-36 19q54 168 134.5 260t172.5 92q65 0 102 -31
t37 -96q0 -13 -4 -49l-125 -703q-2 -18 -2 -30q0 -56 51 -56q28 0 63 24t82.5 82t100 145.5t117 225.5t131.5 310z" />
    <glyph glyph-name="thorn" unicode="&#xfe;" horiz-adv-x="1183" 
d="M887 1108q109 0 172 -91.5t63 -248.5q0 -213 -78 -394t-214.5 -287.5t-299.5 -106.5q-133 0 -231 75l-43 -250q-9 -50 19 -65.5t124 -15.5l-8 -48q-228 -35 -395 -100h-4l313 1788q9 49 -19.5 65.5t-123.5 16.5l8 47q235 55 403 141h5l-189 -1071q111 290 226.5 417.5
t271.5 127.5zM506 55q102 0 189.5 90t137.5 238t50 315q0 117 -32 185.5t-87 68.5q-104 0 -208.5 -183t-229.5 -581q20 -63 69 -98t111 -35z" />
    <glyph glyph-name="ydieresis" unicode="&#xff;" horiz-adv-x="1230" 
d="M602 1339q-50 0 -81.5 31.5t-31.5 79.5q0 53 37.5 92t89.5 39q50 0 81.5 -31.5t31.5 -79.5q0 -54 -36.5 -92.5t-90.5 -38.5zM971 1339q-50 0 -81.5 31.5t-31.5 79.5q0 53 37.5 92t89.5 39q50 0 81.5 -31.5t31.5 -79.5q0 -54 -36.5 -92.5t-90.5 -38.5zM956 1087h226
l-101 -561l-10 -55q-40 -215 -119.5 -386t-186.5 -283.5t-238.5 -172t-278.5 -59.5q-74 0 -118 33.5t-44 87.5q0 31 14 59l512 2q108 85 164 238.5t78 412.5l33 246q-68 -161 -139 -284t-131.5 -194.5t-121.5 -116t-106.5 -59.5t-89.5 -15q-69 0 -109 37.5t-40 109.5
q0 26 4 51l125 721q2 18 2 35q0 20 -7 27.5t-22 7.5q-27 0 -65.5 -60.5t-82.5 -171.5l-36 19q54 168 134.5 260t172.5 92q65 0 102 -31t37 -96q0 -13 -4 -49l-125 -703q-2 -18 -2 -30q0 -56 51 -56q28 0 63 24t82.5 82t100 145.5t117 225.5t131.5 310z" />
    <glyph glyph-name="Amacron" unicode="&#x100;" horiz-adv-x="1513" 
d="M1288 1784l-28 -82h-625l29 82h624zM1255 205q19 -89 52.5 -119.5t128.5 -34.5l-9 -51h-671l8 51q136 11 183.5 35.5t47.5 87.5q0 20 -12 90l-45 230h-541l-59 -109q-39 -75 -55.5 -108.5t-31.5 -73.5t-15 -64q0 -43 42 -63t138 -25l-8 -51h-504l10 51q98 10 157.5 62
t135.5 190l547 1002l-19 88q95 42 213 125h37zM442 578h482l-127 657z" />
    <glyph glyph-name="amacron" unicode="&#x101;" horiz-adv-x="1236" 
d="M1159 1489l-29 -82h-624l29 82h624zM1137 350l34 -18q-52 -167 -133 -259.5t-172 -92.5q-65 0 -103 32t-38 97q0 20 6 47l68 376q-113 -295 -228.5 -423.5t-271.5 -128.5q-110 0 -173 91t-63 248q0 213 78 394.5t214.5 288t299.5 106.5q135 0 226 -72q150 27 241 72h4
l-163 -920q-5 -22 -5 -34q0 -35 29 -35q56 0 150 231zM422 135q104 0 208.5 183t227.5 581q-20 63 -68.5 98t-109.5 35q-102 0 -189.5 -90t-137.5 -238t-50 -315q0 -118 31.5 -186t87.5 -68z" />
    <glyph glyph-name="Abreve" unicode="&#x102;" horiz-adv-x="1513" 
d="M936 1595q-87 0 -158.5 74.5t-113.5 204.5l38 29q46 -69 113.5 -108.5t149.5 -39.5q81 0 163 40t150 108l27 -29q-89 -131 -185.5 -205t-183.5 -74zM1255 205q19 -89 52.5 -119.5t128.5 -34.5l-9 -51h-671l8 51q136 11 183.5 35.5t47.5 87.5q0 20 -12 90l-45 230h-541
l-59 -109q-39 -75 -55.5 -108.5t-31.5 -73.5t-15 -64q0 -43 42 -63t138 -25l-8 -51h-504l10 51q98 10 157.5 62t135.5 190l547 1002l-19 88q95 42 213 125h37zM442 578h482l-127 657z" />
    <glyph glyph-name="abreve" unicode="&#x103;" horiz-adv-x="1236" 
d="M793 1214q-97 0 -158.5 103t-71.5 285l43 18q24 -112 80 -179t133 -67t158 67t143 179l37 -18q-75 -182 -171.5 -285t-192.5 -103zM1137 350l34 -18q-52 -167 -133 -259.5t-172 -92.5q-65 0 -103 32t-38 97q0 20 6 47l68 376q-113 -295 -228.5 -423.5t-271.5 -128.5
q-110 0 -173 91t-63 248q0 213 78 394.5t214.5 288t299.5 106.5q135 0 226 -72q150 27 241 72h4l-163 -920q-5 -22 -5 -34q0 -35 29 -35q56 0 150 231zM422 135q104 0 208.5 183t227.5 581q-20 63 -68.5 98t-109.5 35q-102 0 -189.5 -90t-137.5 -238t-50 -315
q0 -118 31.5 -186t87.5 -68z" />
    <glyph glyph-name="Aogonek" unicode="&#x104;" horiz-adv-x="1513" 
d="M1296 0q-71 -69 -116 -143t-45 -125q0 -29 18 -47.5t47 -18.5q72 0 141 55l11 -43q-49 -40 -117 -69t-139 -29q-64 0 -103 31t-39 82q0 61 71.5 142.5t199.5 164.5h-469l8 51q136 11 183.5 35.5t47.5 87.5q0 20 -12 90l-45 230h-541l-59 -109q-39 -75 -55.5 -108.5
t-31.5 -73.5t-15 -64q0 -43 42 -63t138 -25l-8 -51h-504l10 51q98 10 157.5 62t135.5 190l547 1002l-19 88q95 42 213 125h37l270 -1313q19 -89 52.5 -119.5t128.5 -34.5l-9 -51h-131zM442 578h482l-127 657z" />
    <glyph glyph-name="aogonek" unicode="&#x105;" horiz-adv-x="1236" 
d="M983 20q-79 -70 -131.5 -151.5t-52.5 -136.5q0 -29 18 -47.5t47 -18.5q73 0 142 55l10 -43q-49 -40 -117 -69t-139 -29q-65 0 -104.5 31t-39.5 82q0 59 64 135t178 152q-61 2 -97 34t-36 95q0 20 6 47l68 376q-113 -295 -228.5 -423.5t-271.5 -128.5q-110 0 -173 91
t-63 248q0 213 78 394.5t214.5 288t299.5 106.5q135 0 226 -72q150 27 241 72h4l-163 -920q-5 -22 -5 -34q0 -35 29 -35q56 0 150 231l34 -18q-71 -228 -188 -312zM422 135q104 0 208.5 183t227.5 581q-20 63 -68.5 98t-109.5 35q-102 0 -189.5 -90t-137.5 -238t-50 -315
q0 -118 31.5 -186t87.5 -68z" />
    <glyph glyph-name="Cacute" unicode="&#x106;" horiz-adv-x="1394" 
d="M791 1606l-17 36q269 216 350 254q26 13 50 13q45 0 73.5 -30.5t28.5 -72.5q0 -65 -66 -96q-83 -38 -419 -104zM643 -20q-244 0 -383 154t-139 417q0 199 65.5 378t176.5 308t266 205t327 76q63 0 123 -18t104 -36t68 -18t38.5 12t31.5 49h25l20 -534l-49 -15
q-37 246 -135.5 362t-245.5 116q-153 0 -281.5 -104.5t-203 -285t-74.5 -395.5q0 -234 108.5 -370t300.5 -136q123 0 254.5 74t216.5 195l39 -25q-105 -184 -284 -296.5t-369 -112.5z" />
    <glyph glyph-name="cacute" unicode="&#x107;" horiz-adv-x="1069" 
d="M920 1411q-80 -51 -398 -168l-22 33q214 236 305 305q29 23 63 23q41 0 73 -31t32 -70q0 -58 -53 -92zM870 594q-36 0 -57 14v410q-42 22 -108 22q-106 0 -197.5 -76t-145 -205t-53.5 -278q0 -159 78 -252.5t215 -93.5q83 0 173.5 47t150.5 125l28 -20
q-78 -138 -212.5 -222.5t-274.5 -84.5q-185 0 -290 113t-105 308q0 196 83 358t228 255.5t319 93.5q152 0 240 -78t88 -209q0 -104 -47.5 -165.5t-112.5 -61.5zM868 971l13 -19z" />
    <glyph glyph-name="Cdotaccent" unicode="&#x10a;" horiz-adv-x="1394" 
d="M991 1630q-59 0 -97 37t-38 94q0 63 44 105.5t110 42.5q59 0 97 -37t38 -94q0 -63 -44 -105.5t-110 -42.5zM643 -20q-244 0 -383 154t-139 417q0 199 65.5 378t176.5 308t266 205t327 76q63 0 123 -18t104 -36t68 -18t38.5 12t31.5 49h25l20 -534l-49 -15
q-37 246 -135.5 362t-245.5 116q-153 0 -281.5 -104.5t-203 -285t-74.5 -395.5q0 -234 108.5 -370t300.5 -136q123 0 254.5 74t216.5 195l39 -25q-105 -184 -284 -296.5t-369 -112.5z" />
    <glyph glyph-name="cdotaccent" unicode="&#x10b;" horiz-adv-x="1069" 
d="M750 1315q-59 0 -97.5 36.5t-38.5 94.5q0 63 44 105t110 42q59 0 97 -37t38 -94q0 -63 -43.5 -105t-109.5 -42zM870 594q-36 0 -57 14v410q-42 22 -108 22q-106 0 -197.5 -76t-145 -205t-53.5 -278q0 -159 78 -252.5t215 -93.5q83 0 173.5 47t150.5 125l28 -20
q-78 -138 -212.5 -222.5t-274.5 -84.5q-185 0 -290 113t-105 308q0 196 83 358t228 255.5t319 93.5q152 0 240 -78t88 -209q0 -104 -47.5 -165.5t-112.5 -61.5zM868 971l13 -19z" />
    <glyph glyph-name="Ccaron" unicode="&#x10c;" horiz-adv-x="1394" 
d="M987 1606h-37l-235 264l26 39l260 -131l306 131l12 -39zM936 1436q-153 0 -281.5 -104.5t-203 -285t-74.5 -395.5q0 -234 108.5 -370t300.5 -136q123 0 254.5 74t216.5 195l39 -25q-105 -184 -284 -296.5t-369 -112.5q-244 0 -383 154t-139 417q0 199 65.5 378t176.5 308
t266 205t327 76q63 0 123 -18t104 -36t68 -18t38.5 12t31.5 49h25l20 -534l-49 -15q-37 246 -135.5 362t-245.5 116z" />
    <glyph glyph-name="ccaron" unicode="&#x10d;" horiz-adv-x="1069" 
d="M735 1208h-39l-207 389l33 27l230 -217l307 217l20 -27zM702 1108q152 0 240 -78t88 -209q0 -104 -47.5 -165.5t-112.5 -61.5q-36 0 -57 14v410q-42 22 -108 22q-106 0 -197.5 -76t-145 -205t-53.5 -278q0 -159 78 -252.5t215 -93.5q83 0 173.5 47t150.5 125l28 -20
q-78 -138 -212.5 -222.5t-274.5 -84.5q-185 0 -290 113t-105 308q0 196 83 358t228 255.5t319 93.5zM868 971l13 -19z" />
    <glyph glyph-name="Dcaron" unicode="&#x10e;" horiz-adv-x="1615" 
d="M918 1606h-37l-238 264l27 39l260 -131l307 131l10 -39zM940 1497q291 0 459 -158.5t168 -427.5q0 -152 -44 -292t-125.5 -251.5t-190.5 -194.5t-246 -128t-285 -45h-696l8 51q117 6 161.5 40t61.5 130l186 1055q6 38 6 61q0 58 -37 81t-133 28l11 51h696zM643 82
q181 0 334.5 115.5t242.5 313t89 429.5q0 220 -110.5 347.5t-309.5 127.5h-227l-216 -1214q-4 -27 -4 -54q0 -38 19 -51.5t69 -13.5h113z" />
    <glyph glyph-name="dcaron" unicode="&#x10f;" horiz-adv-x="1259" 
d="M1407 1638q57 0 90 -36.5t33 -98.5q0 -96 -75 -192t-191 -148l-17 45q60 32 98.5 79.5t38.5 88.5q0 34 -26.5 58t-73.5 28q-14 28 -14 49q0 52 40.5 89.5t96.5 37.5zM1217 1634l-254 -1446q-5 -22 -5 -34q0 -35 29 -35q56 0 150 231l34 -18q-52 -167 -133 -259.5
t-172 -92.5q-65 0 -103 32t-38 97q0 20 6 47l66 372q-111 -292 -226.5 -420t-271.5 -128q-110 0 -173 91t-63 248q0 213 78 394.5t214.5 288t299.5 106.5q135 0 232 -74l57 330q9 49 -19.5 65.5t-123.5 16.5l8 47q235 55 403 141h5zM422 135q104 0 208.5 183t227.5 581
q-20 63 -68.5 98t-109.5 35q-102 0 -189.5 -90t-137.5 -238t-50 -315q0 -118 31.5 -186t87.5 -68z" />
    <glyph glyph-name="Dcroat" unicode="&#x110;" horiz-adv-x="1617" 
d="M942 1497q291 0 459 -158.5t168 -427.5q0 -152 -44 -292t-125.5 -251.5t-190.5 -194.5t-246 -128t-285 -45h-696l8 51q117 6 161.5 40t61.5 130l90 510h-170l27 72h155l84 473q7 44 7 61q0 58 -37 81t-133 28l10 51h696zM645 82q181 0 334.5 115.5t242.5 313t89 429.5
q0 220 -110.5 347.5t-309.5 127.5h-227l-109 -612h379l-27 -72h-364l-94 -530q-5 -34 -5 -54q0 -38 19 -51.5t69 -13.5h113z" />
    <glyph glyph-name="dcroat" unicode="&#x111;" horiz-adv-x="1236" 
d="M1145 1231l-182 -1043q-5 -22 -5 -34q0 -35 29 -35q56 0 150 231l34 -18q-52 -167 -133 -259.5t-172 -92.5q-65 0 -103 32t-38 97q0 20 6 47l66 372q-111 -292 -226.5 -420t-271.5 -128q-110 0 -173 91t-63 248q0 213 78 394.5t214.5 288t299.5 106.5q135 0 232 -74
l35 197h-295l22 65h283l12 68q9 49 -19.5 65.5t-123.5 16.5l8 47q235 55 403 141h5l-60 -338h154l-23 -65h-143zM422 135q104 0 208.5 183t227.5 581q-20 63 -68.5 98t-109.5 35q-102 0 -189.5 -90t-137.5 -238t-50 -315q0 -118 31.5 -186t87.5 -68z" />
    <glyph glyph-name="Emacron" unicode="&#x112;" horiz-adv-x="1476" 
d="M1247 1784l-30 -82h-625l31 82h624zM1364 565l51 -22l-270 -553q-133 10 -397 10h-768l8 51q117 6 161.5 40t61.5 130l186 1055q6 38 6 61q0 58 -37 81t-133 28l11 51h725q253 0 383 10l59 -532l-51 -21q-16 120 -42.5 201.5t-62.5 133t-94 79t-123.5 37.5t-165.5 10
h-210l-107 -606h150q56 0 91.5 11t71 45.5t65 99t62.5 172.5h49q-85 -433 -133 -758h-49q2 37 2 96q0 104 -19 159t-54.5 74t-102.5 19h-147l-92 -516q-7 -47 -7 -59q0 -39 21 -54.5t74 -15.5h184q77 0 132.5 6.5t113 25.5t103 52t94.5 87t97 130t103 182z" />
    <glyph glyph-name="emacron" unicode="&#x113;" horiz-adv-x="1064" 
d="M455 1489h622l-28 -82h-625zM1014 891q0 -77 -56 -144t-155 -116t-224 -84t-272 -55v-9q0 -161 80.5 -254.5t222.5 -93.5q82 0 174 48t158 126l31 -22q-82 -138 -219 -222.5t-281 -84.5q-188 0 -295.5 113.5t-107.5 307.5q0 193 84 356t228 257t314 94q147 0 232.5 -59
t85.5 -158zM676 1038q-132 0 -238.5 -141t-126.5 -338q235 38 370.5 130.5t135.5 228.5q0 55 -38 87.5t-103 32.5z" />
    <glyph glyph-name="Edotaccent" unicode="&#x116;" horiz-adv-x="1476" 
d="M920 1630q-60 0 -99 37t-39 94q0 63 44 105.5t110 42.5q59 0 97 -37t38 -94q0 -63 -43.5 -105.5t-107.5 -42.5zM1364 565l51 -22l-270 -553q-133 10 -397 10h-768l8 51q117 6 161.5 40t61.5 130l186 1055q6 38 6 61q0 58 -37 81t-133 28l11 51h725q253 0 383 10l59 -532
l-51 -21q-16 120 -42.5 201.5t-62.5 133t-94 79t-123.5 37.5t-165.5 10h-210l-107 -606h150q56 0 91.5 11t71 45.5t65 99t62.5 172.5h49q-85 -433 -133 -758h-49q2 37 2 96q0 104 -19 159t-54.5 74t-102.5 19h-147l-92 -516q-7 -47 -7 -59q0 -39 21 -54.5t74 -15.5h184
q77 0 132.5 6.5t113 25.5t103 52t94.5 87t97 130t103 182z" />
    <glyph glyph-name="edotaccent" unicode="&#x117;" horiz-adv-x="1064" 
d="M743 1315q-59 0 -98 36.5t-39 94.5q0 63 44.5 105t109.5 42q60 0 98.5 -37t38.5 -94q0 -63 -44 -105t-110 -42zM610 135q82 0 174 48t158 126l31 -22q-82 -138 -219 -222.5t-281 -84.5q-188 0 -295.5 113.5t-107.5 307.5q0 193 84 356t228 257t314 94q147 0 232.5 -59
t85.5 -158q0 -77 -56 -144t-155 -116t-224 -84t-272 -55v-9q0 -161 80.5 -254.5t222.5 -93.5zM676 1038q-132 0 -238.5 -141t-126.5 -338q235 38 370.5 130.5t135.5 228.5q0 55 -38 87.5t-103 32.5z" />
    <glyph glyph-name="Eogonek" unicode="&#x118;" horiz-adv-x="1476" 
d="M952 -2q-71 -68 -116 -141.5t-45 -124.5q0 -29 18 -47.5t47 -18.5q72 0 141 55l11 -43q-49 -40 -117 -69t-139 -29q-65 0 -104.5 31t-39.5 82q0 61 72.5 142t200.5 165h-133h-768l8 51q117 6 161.5 40t61.5 130l186 1055q6 38 6 61q0 58 -37 81t-133 28l11 51h725
q253 0 383 10l59 -532l-51 -21q-16 120 -42.5 201.5t-62.5 133t-94 79t-123.5 37.5t-165.5 10h-210l-107 -606h150q56 0 91.5 11t71 45.5t65 99t62.5 172.5h49q-85 -433 -133 -758h-49q2 37 2 96q0 104 -19 159t-54.5 74t-102.5 19h-147l-92 -516q-7 -47 -7 -59
q0 -39 21 -54.5t74 -15.5h184q77 0 132.5 6.5t113 25.5t103 52t94.5 87t97 130t103 182l51 -22l-270 -553q-126 8 -193 8z" />
    <glyph glyph-name="eogonek" unicode="&#x119;" horiz-adv-x="1064" 
d="M610 135q82 0 174 48t158 126l31 -22q-77 -129 -203 -213q-254 -198 -254 -334q0 -32 24 -53t62 -21q71 0 137 55l13 -43q-44 -41 -108 -69.5t-134 -28.5q-80 0 -129 34t-49 91q0 58 65.5 135t182.5 152q-56 -12 -107 -12q-188 0 -295.5 113.5t-107.5 307.5q0 193 84 356
t228 257t314 94q147 0 232.5 -59t85.5 -158q0 -77 -56 -144t-155 -116t-224 -84t-272 -55v-9q0 -161 80.5 -254.5t222.5 -93.5zM676 1038q-132 0 -238.5 -141t-126.5 -338q235 38 370.5 130.5t135.5 228.5q0 55 -38 87.5t-103 32.5z" />
    <glyph glyph-name="Ecaron" unicode="&#x11a;" horiz-adv-x="1476" 
d="M915 1606h-36l-238 264l27 39l260 -131l307 131l10 -39zM1364 565l51 -22l-270 -553q-133 10 -397 10h-768l8 51q117 6 161.5 40t61.5 130l186 1055q6 38 6 61q0 58 -37 81t-133 28l11 51h725q253 0 383 10l59 -532l-51 -21q-16 120 -42.5 201.5t-62.5 133t-94 79
t-123.5 37.5t-165.5 10h-210l-107 -606h150q56 0 91.5 11t71 45.5t65 99t62.5 172.5h49q-85 -433 -133 -758h-49q2 37 2 96q0 104 -19 159t-54.5 74t-102.5 19h-147l-92 -516q-7 -47 -7 -59q0 -39 21 -54.5t74 -15.5h184q77 0 132.5 6.5t113 25.5t103 52t94.5 87t97 130
t103 182z" />
    <glyph glyph-name="ecaron" unicode="&#x11b;" horiz-adv-x="1064" 
d="M727 1208h-37l-207 389l33 27l229 -217l306 217l20 -27zM1014 891q0 -77 -56 -144t-155 -116t-224 -84t-272 -55v-9q0 -161 80.5 -254.5t222.5 -93.5q82 0 174 48t158 126l31 -22q-82 -138 -219 -222.5t-281 -84.5q-188 0 -295.5 113.5t-107.5 307.5q0 193 84 356
t228 257t314 94q147 0 232.5 -59t85.5 -158zM676 1038q-132 0 -238.5 -141t-126.5 -338q235 38 370.5 130.5t135.5 228.5q0 55 -38 87.5t-103 32.5z" />
    <glyph glyph-name="Gbreve" unicode="&#x11e;" horiz-adv-x="1550" 
d="M1014 1595q-86 0 -158.5 75t-112.5 204l37 29q46 -69 113 -108.5t149 -39.5q81 0 163.5 40t150.5 108l26 -29q-88 -131 -184 -205t-184 -74zM877 668h663l-8 -52q-105 -5 -146.5 -37t-56.5 -122l-61 -342q-54 -7 -168 -47q-234 -88 -387 -88q-276 0 -434 159.5
t-158 431.5q0 196 68.5 371t185 301.5t280 200.5t346.5 74q75 0 138.5 -19t111 -38t82.5 -19q26 0 43 13.5t37 51.5h27l-43 -534l-51 -8q-6 226 -97.5 348.5t-251.5 122.5q-166 0 -308.5 -123.5t-226 -333t-83.5 -451.5q0 -217 92.5 -342t255.5 -125q153 0 313 113l41 232
q6 47 6 73q0 73 -47.5 102t-171.5 35z" />
    <glyph glyph-name="gbreve" unicode="&#x11f;" horiz-adv-x="1171" 
d="M797 1214q-97 0 -158.5 103t-71.5 285l43 18q24 -112 80 -179t133 -67t158 67t143 179l37 -18q-75 -182 -171.5 -285t-192.5 -103zM885 1036q150 27 241 72h4l-106 -582l-10 -55q-80 -429 -302 -665t-522 -236q-74 0 -117.5 33t-43.5 88q0 31 14 59l512 2
q108 85 164 238.5t78 412.5l22 175q-118 -320 -236.5 -459t-279.5 -139q-110 0 -172.5 91t-62.5 248q0 213 78 394.5t214 288t299 106.5q135 0 226 -72zM426 135q104 0 208.5 183t227.5 581q-20 63 -68.5 98t-109.5 35q-102 0 -189.5 -90t-137.5 -238t-50 -315
q0 -118 31.5 -186t87.5 -68z" />
    <glyph glyph-name="Gdotaccent" unicode="&#x120;" horiz-adv-x="1550" 
d="M1038 1630q-59 0 -97 37t-38 94q0 63 44 105.5t110 42.5q59 0 97 -37t38 -94q0 -63 -44 -105.5t-110 -42.5zM877 668h663l-8 -52q-105 -5 -146.5 -37t-56.5 -122l-61 -342q-54 -7 -168 -47q-234 -88 -387 -88q-276 0 -434 159.5t-158 431.5q0 196 68.5 371t185 301.5
t280 200.5t346.5 74q75 0 138.5 -19t111 -38t82.5 -19q26 0 43 13.5t37 51.5h27l-43 -534l-51 -8q-6 226 -97.5 348.5t-251.5 122.5q-166 0 -308.5 -123.5t-226 -333t-83.5 -451.5q0 -217 92.5 -342t255.5 -125q153 0 313 113l41 232q6 47 6 73q0 73 -47.5 102t-171.5 35z
" />
    <glyph glyph-name="gdotaccent" unicode="&#x121;" horiz-adv-x="1171" 
d="M829 1315q-59 0 -98 36.5t-39 94.5q0 63 44.5 105t109.5 42q60 0 98.5 -37t38.5 -94q0 -63 -44 -105t-110 -42zM1126 1108h4l-106 -582l-10 -55q-80 -429 -302 -665t-522 -236q-74 0 -117.5 33t-43.5 88q0 31 14 59l512 2q108 85 164 238.5t78 412.5l22 175
q-118 -320 -236.5 -459t-279.5 -139q-110 0 -172.5 91t-62.5 248q0 213 78 394.5t214 288t299 106.5q135 0 226 -72q150 27 241 72zM426 135q104 0 208.5 183t227.5 581q-20 63 -68.5 98t-109.5 35q-102 0 -189.5 -90t-137.5 -238t-50 -315q0 -118 31.5 -186t87.5 -68z" />
    <glyph glyph-name="uni0122" unicode="&#x122;" horiz-adv-x="1550" 
d="M877 668h663l-8 -52q-105 -5 -146.5 -37t-56.5 -122l-61 -342q-54 -7 -168 -47q-234 -88 -387 -88q-276 0 -434 159.5t-158 431.5q0 196 68.5 371t185 301.5t280 200.5t346.5 74q75 0 138.5 -19t111 -38t82.5 -19q26 0 43 13.5t37 51.5h27l-43 -534l-51 -8
q-6 226 -97.5 348.5t-251.5 122.5q-166 0 -308.5 -123.5t-226 -333t-83.5 -451.5q0 -217 92.5 -342t255.5 -125q153 0 313 113l41 232q6 47 6 73q0 73 -47.5 102t-171.5 35zM711 -59q57 0 90 -32.5t33 -86.5q0 -87 -76.5 -156t-190.5 -96l-8 41q54 18 90.5 49t36.5 64
q0 29 -28.5 46t-79.5 19q-7 28 -7 35q0 47 41.5 82t98.5 35z" />
    <glyph glyph-name="uni0123" unicode="&#x123;" horiz-adv-x="1171" 
d="M813 1233q-58 0 -90.5 32t-32.5 87q0 93 78 172.5t193 109.5l8 -41q-57 -19 -94 -56t-37 -77q0 -34 28.5 -54.5t77.5 -21.5q8 -20 8 -34q0 -47 -41 -82t-98 -35zM1126 1108h4l-106 -582l-10 -55q-80 -429 -302 -665t-522 -236q-74 0 -117.5 33t-43.5 88q0 31 14 59l512 2
q108 85 164 238.5t78 412.5l22 175q-118 -320 -236.5 -459t-279.5 -139q-110 0 -172.5 91t-62.5 248q0 213 78 394.5t214 288t299 106.5q135 0 226 -72q150 27 241 72zM426 135q104 0 208.5 183t227.5 581q-20 63 -68.5 98t-109.5 35q-102 0 -189.5 -90t-137.5 -238
t-50 -315q0 -118 31.5 -186t87.5 -68z" />
    <glyph glyph-name="Hbar" unicode="&#x126;" horiz-adv-x="1642" 
d="M1726 1446q-116 -6 -161 -40t-62 -130l-18 -105h184l-27 -71h-169l-156 -879q-6 -38 -6 -61q0 -58 37 -81t133 -28l-11 -51h-626l10 51q117 6 161.5 40t61.5 130l90 506h-626l-90 -506q-7 -44 -7 -61q0 -58 38 -81t134 -28l-10 -51h-626l10 51q117 6 161.5 40t61.5 130
l156 879h-166l26 71h152l18 105q7 44 7 61q0 58 -37.5 81t-132.5 28l8 51h626l-8 -51q-118 -6 -163 -40t-62 -130l-19 -105h627l19 105q6 38 6 61q0 58 -37 81t-133 28l10 51h625zM1182 809l51 291h-627l-51 -291h627z" />
    <glyph glyph-name="hbar" unicode="&#x127;" horiz-adv-x="1243" 
d="M1147 350l37 -18q-54 -168 -134.5 -260t-172.5 -92q-65 0 -102.5 32t-37.5 97q0 20 6 47l123 702q2 18 2 31q0 55 -51 55q-36 0 -84.5 -40.5t-111 -127t-142 -245.5t-162.5 -373l-28 -158h-223l217 1231h-156l25 65h141l12 68q9 49 -19.5 65.5t-123.5 16.5l8 47
q235 55 403 141h5l-60 -338h295l-22 -65h-285l-133 -764q66 155 136 272.5t129 186t119.5 111t105.5 57t89 14.5q69 0 109.5 -37.5t40.5 -109.5q0 -27 -4 -52l-125 -721q-2 -18 -2 -34q0 -20 6.5 -27.5t21.5 -7.5q27 0 65.5 60t82.5 171z" />
    <glyph glyph-name="Imacron" unicode="&#x12a;" horiz-adv-x="776" 
d="M870 1784l-28 -82h-514l30 82h512zM233 1446l11 51h626l-10 -51q-116 -6 -161 -40t-62 -130l-186 -1055q-7 -44 -7 -61q0 -58 37 -81t133 -28l-8 -51h-626l8 51q117 6 161.5 40t61.5 130l186 1055q6 38 6 61q0 58 -37 81t-133 28z" />
    <glyph glyph-name="imacron" unicode="&#x12b;" horiz-adv-x="653" 
d="M248 1491h514l-29 -84h-514zM406 119q56 0 147 231l37 -18q-54 -168 -134.5 -260t-172.5 -92q-65 0 -102.5 32t-37.5 97q0 11 4 47l134 743q4 18 4 35q0 35 -29 35q-56 0 -150 -232l-34 19q52 167 133 259.5t172 92.5q65 0 103 -31t38 -96q0 -22 -6 -49l-133 -744
q-2 -18 -2 -34q0 -20 7 -27.5t22 -7.5z" />
    <glyph glyph-name="Iogonek" unicode="&#x12e;" horiz-adv-x="776" 
d="M244 1497h626l-10 -51q-116 -6 -161 -40t-62 -130l-186 -1055q-7 -44 -7 -61q0 -58 37 -81t133 -28l-8 -51h-141q-71 -70 -116.5 -143.5t-45.5 -124.5q0 -30 18 -48t48 -18q72 0 141 55l10 -43q-49 -40 -117 -69t-139 -29q-66 0 -104.5 31t-38.5 82q0 62 71.5 143
t200.5 164h-413l8 51q117 6 161.5 40t61.5 130l186 1055q6 38 6 61q0 58 -37 81t-133 28z" />
    <glyph glyph-name="iogonek" unicode="&#x12f;" horiz-adv-x="653" 
d="M500 1593q59 0 97 -37t38 -94q0 -63 -43.5 -105t-108.5 -42q-60 0 -98.5 36.5t-38.5 94.5q0 63 44 105t110 42zM406 119q56 0 147 231l37 -18q-72 -221 -182 -305q-81 -72 -136 -155.5t-55 -139.5q0 -30 18 -48t48 -18q72 0 141 55l8 -43q-47 -40 -115.5 -69t-140.5 -29
q-64 0 -102.5 31t-38.5 82q0 59 63.5 135t177.5 152q-61 2 -97 34t-36 95q0 11 4 47l134 743q4 18 4 35q0 35 -29 35q-56 0 -150 -232l-34 19q52 167 133 259.5t172 92.5q65 0 103 -31t38 -96q0 -22 -6 -49l-133 -744q-2 -18 -2 -34q0 -20 7 -27.5t22 -7.5z" />
    <glyph glyph-name="Idotaccent" unicode="&#x130;" horiz-adv-x="776" 
d="M598 1630q-59 0 -97 37t-38 94q0 63 43.5 105.5t107.5 42.5q60 0 99 -37t39 -94q0 -63 -44 -105.5t-110 -42.5zM244 1497h626l-10 -51q-116 -6 -161 -40t-62 -130l-186 -1055q-7 -44 -7 -61q0 -58 37 -81t133 -28l-8 -51h-626l8 51q117 6 161.5 40t61.5 130l186 1055
q6 38 6 61q0 58 -37 81t-133 28z" />
    <glyph glyph-name="dotlessi" unicode="&#x131;" horiz-adv-x="653" 
d="M553 350l37 -18q-54 -168 -134.5 -260t-172.5 -92q-65 0 -102.5 32t-37.5 97q0 11 4 47l134 743q4 18 4 35q0 35 -29 35q-56 0 -150 -232l-34 19q52 167 133 259.5t172 92.5q65 0 103 -31t38 -96q0 -22 -6 -49l-133 -744q-2 -18 -2 -34q0 -20 7 -27.5t22 -7.5
q56 0 147 231z" />
    <glyph glyph-name="IJ" unicode="&#x132;" horiz-adv-x="1552" 
d="M870 1497l-10 -51q-116 -6 -161 -40t-62 -130l-186 -1055q-7 -44 -7 -61q0 -58 37 -81t133 -28l-8 -51h-626l8 51q117 6 161.5 40t61.5 130l186 1055q6 38 6 61q0 58 -37 81t-133 28l11 51h626zM1040 1497h627l-8 -51q-117 -6 -162.5 -40.5t-62.5 -129.5l-156 -879
q-37 -219 -182 -390.5t-344 -231.5l-7 39q115 77 181 190.5t96 292.5l172 979q6 37 6 61q0 58 -36.5 81t-131.5 28z" />
    <glyph glyph-name="ij" unicode="&#x133;" horiz-adv-x="1224" 
d="M483 1315q-60 0 -98.5 36.5t-38.5 94.5q0 63 44 105t110 42q59 0 97 -37t38 -94q0 -63 -43.5 -105t-108.5 -42zM1128 1593q59 0 97.5 -37t38.5 -94q0 -63 -43.5 -105t-108.5 -42q-60 0 -98.5 36.5t-38.5 94.5q0 63 43.5 105t109.5 42zM553 350l37 -18
q-54 -168 -134.5 -260t-172.5 -92q-65 0 -102.5 32t-37.5 97q0 11 4 47l134 743q4 18 4 35q0 35 -29 35q-56 0 -150 -232l-34 19q52 167 133 259.5t172 92.5q65 0 103 -31t38 -96q0 -22 -6 -49l-133 -744q-2 -18 -2 -34q0 -20 7 -27.5t22 -7.5q56 0 147 231zM1008 1108
q64 0 101.5 -31t37.5 -96q0 -22 -6 -49l-142 -797q-37 -214 -165.5 -370.5t-301.5 -194.5l-6 39q96 69 150.5 172t81.5 256l151 862q4 18 4 35q0 35 -28 35q-27 0 -65.5 -60.5t-82.5 -171.5l-37 19q52 168 133.5 260t174.5 92z" />
    <glyph glyph-name="uni0136" unicode="&#x136;" horiz-adv-x="1552" 
d="M614 51l-8 -51h-626l8 51q117 6 161.5 40t61.5 130l186 1055q6 38 6 61q0 58 -37 81t-133 28l11 51h626l-10 -51q-116 -6 -161 -40t-62 -130l-186 -1055q-7 -44 -7 -61q0 -58 37 -81t133 -28zM1591 1446q-79 -2 -142.5 -27t-152.5 -106l-456 -414q194 -367 303 -540.5
t181 -237t159 -70.5l-10 -51h-181q-62 0 -108 10.5t-97.5 42.5t-97.5 85t-105.5 144t-125 213t-152.5 298l492 442q121 105 121 149q0 28 -38.5 43t-125.5 19l10 51h534zM745 -59q57 0 90 -32.5t33 -86.5q0 -87 -76 -156t-190 -96l-6 41q54 18 90.5 49t36.5 64q0 29 -30 46
t-81 19q-6 24 -6 35q0 47 41 82t98 35z" />
    <glyph glyph-name="uni0137" unicode="&#x137;" horiz-adv-x="1202" 
d="M1124 338l39 -16q-39 -173 -113 -257.5t-173 -84.5q-60 0 -105 28t-80 94l-270 437l131 28q144 43 226.5 116.5t82.5 160.5q0 59 -38.5 94t-102.5 35q-67 0 -145.5 -50.5t-149.5 -146.5l-135 -776h-225l241 1364q8 50 -20.5 66t-124.5 16l8 47q235 55 403 141h5
l-134 -755q86 108 195.5 168.5t216.5 60.5q109 0 176.5 -55t67.5 -144q0 -104 -109 -200t-295 -154l199 -324q29 -48 50.5 -69t43.5 -21q40 0 72 46.5t63 150.5zM492 -59q57 0 89.5 -32.5t32.5 -86.5q0 -87 -76 -156t-190 -96l-8 41q54 18 90.5 49t36.5 64q0 29 -29 46
t-80 19q-6 24 -6 35q0 47 41.5 82t98.5 35z" />
    <glyph glyph-name="Lacute" unicode="&#x139;" horiz-adv-x="1368" 
d="M811 1710q-79 -38 -418 -104l-18 36q277 220 350 254q29 13 51 13q44 0 73.5 -30.5t29.5 -72.5q0 -30 -18 -55.5t-50 -40.5zM1294 561l47 -18l-270 -553q-133 10 -379 10h-712l8 51q117 6 161.5 40t61.5 130l186 1055q6 38 6 61q0 58 -37 81t-133 28l11 51h663l-10 -51
q-140 -8 -193 -47.5t-73 -153.5l-185 -1044q-4 -25 -4 -56q0 -36 18 -49.5t64 -13.5h142q89 0 151 9.5t126.5 37.5t118 81t111.5 139t121 212z" />
    <glyph glyph-name="lacute" unicode="&#x13a;" horiz-adv-x="606" 
d="M684 1978q45 0 73.5 -30t28.5 -72q0 -66 -65 -96q-86 -40 -420 -105l-16 37q269 216 350 254q24 12 49 12zM584 1634l-254 -1446q-4 -18 -4 -34q0 -35 28 -35q59 0 150 231l35 -18q-52 -167 -133 -259.5t-173 -92.5q-64 0 -101.5 32t-37.5 97q0 11 4 47l213 1208
q9 50 -19 66t-124 16l8 47q237 55 404 141h4z" />
    <glyph glyph-name="uni013B" unicode="&#x13b;" horiz-adv-x="1368" 
d="M1294 561l47 -18l-270 -553q-133 10 -379 10h-712l8 51q117 6 161.5 40t61.5 130l186 1055q6 38 6 61q0 58 -37 81t-133 28l11 51h663l-10 -51q-140 -8 -193 -47.5t-73 -153.5l-185 -1044q-4 -25 -4 -56q0 -36 18 -49.5t64 -13.5h142q89 0 151 9.5t126.5 37.5t118 81
t111.5 139t121 212zM539 -59q57 0 90 -32.5t33 -86.5q0 -87 -76.5 -156t-190.5 -96l-6 41q54 18 90.5 49t36.5 64q0 29 -29.5 46t-80.5 19q-7 28 -7 35q0 47 41.5 82t98.5 35z" />
    <glyph glyph-name="uni013C" unicode="&#x13c;" horiz-adv-x="606" 
d="M354 119q59 0 150 231l35 -18q-52 -167 -133 -259.5t-173 -92.5q-64 0 -101.5 32t-37.5 97q0 11 4 47l213 1208q9 50 -19 66t-124 16l8 47q237 55 404 141h4l-254 -1446q-4 -18 -4 -34q0 -35 28 -35zM160 -59q57 0 90 -32.5t33 -86.5q0 -87 -76.5 -156t-190.5 -96l-6 41
q54 18 90.5 49t36.5 64q0 29 -29 46t-79 19q-9 18 -9 35q0 47 42 82t98 35z" />
    <glyph glyph-name="Lcaron" unicode="&#x13d;" horiz-adv-x="1372" 
d="M1036 1208q59 33 98.5 80t39.5 88q0 34 -27 58t-74 28q-14 22 -14 49q0 52 39.5 89.5t95.5 37.5q57 0 91 -36.5t34 -98.5q0 -96 -75 -192t-191 -148zM1294 561l47 -18l-270 -553q-133 10 -379 10h-712l8 51q117 6 161.5 40t61.5 130l186 1055q6 38 6 61q0 58 -37 81
t-133 28l11 51h663l-10 -51q-140 -8 -193 -47.5t-73 -153.5l-185 -1044q-4 -25 -4 -56q0 -36 18 -49.5t64 -13.5h142q89 0 151 9.5t126.5 37.5t118 81t111.5 139t121 212z" />
    <glyph glyph-name="lcaron" unicode="&#x13e;" horiz-adv-x="626" 
d="M791 1638q57 0 89.5 -36.5t32.5 -98.5q0 -96 -75 -192t-191 -148l-16 45q60 32 98.5 79.5t38.5 88.5q0 34 -26.5 58t-73.5 28q-15 30 -15 49q0 52 40.5 89.5t97.5 37.5zM584 1634l-254 -1446q-4 -18 -4 -34q0 -35 28 -35q59 0 150 231l35 -18q-52 -167 -133 -259.5
t-173 -92.5q-64 0 -101.5 32t-37.5 97q0 11 4 47l213 1208q9 50 -19 66t-124 16l8 47q237 55 404 141h4z" />
    <glyph glyph-name="Lslash" unicode="&#x141;" horiz-adv-x="1388" 
d="M1315 561l47 -18l-270 -553q-132 10 -379 10h-713l8 51q117 6 161.5 40t61.5 130l70 393l-162 -82l-28 66l206 104l101 574q6 38 6 61q0 58 -37 81t-133 28l10 51h664l-10 -51q-140 -8 -193.5 -47.5t-73.5 -153.5l-73 -424l340 170l28 -63l-385 -195l-94 -532
q-4 -25 -4 -56q0 -36 18 -49.5t64 -13.5h141q74 0 127.5 6t110 24t101.5 51t93.5 86.5t96 129.5t100.5 182z" />
    <glyph glyph-name="lslash" unicode="&#x142;" horiz-adv-x="690" 
d="M395 119q27 0 65.5 60t82.5 171l37 -18q-54 -168 -134.5 -260t-173.5 -92q-64 0 -101.5 32t-37.5 97q0 11 4 47l101 567l-127 -80l-33 66l176 108l98 547q8 50 -20 66t-123 16l8 47q237 55 404 141h4l-121 -686l147 90l31 -63l-195 -121l-118 -666q-2 -18 -2 -34
q0 -20 6.5 -27.5t21.5 -7.5z" />
    <glyph glyph-name="Nacute" unicode="&#x143;" horiz-adv-x="1546" 
d="M1206 1710q-80 -38 -420 -104l-16 36q269 216 350 254q26 13 49 13q45 0 74 -30.5t29 -72.5q0 -65 -66 -96zM1149 1497h510l-8 -51q-118 -6 -163.5 -40t-62.5 -130l-229 -1296h-49l-680 1202l-164 -920q-8 -47 -8 -78q0 -72 45 -100t158 -33l-11 -51h-507l8 51
q117 6 161.5 40t61.5 130l192 1082l5 45q0 52 -38 72.5t-137 25.5l11 51h338l604 -1102l149 840q8 47 8 78q0 72 -44.5 100t-159.5 33z" />
    <glyph glyph-name="nacute" unicode="&#x144;" horiz-adv-x="1304" 
d="M975 1411q-75 -49 -397 -168l-23 33q99 110 182 192t123 113q33 23 64 23q42 0 73 -31t31 -70q0 -60 -53 -92zM1208 350l35 -18q-52 -167 -133 -259.5t-172 -92.5q-65 0 -103 32t-38 97q0 20 6 47l123 702q4 18 4 31q0 55 -53 55q-36 0 -84.5 -40.5t-111 -127
t-142 -245.5t-162.5 -373l-27 -158h-225l160 899q2 18 2 35q0 20 -7 27.5t-22 7.5q-26 0 -64.5 -60t-82.5 -172l-37 19q54 168 135 260t172 92q65 0 102 -31t37 -96q0 -13 -4 -49l-84 -463q67 154 137 271t129.5 185.5t119.5 111t105 57t89 14.5q70 0 110.5 -37.5
t40.5 -109.5q0 -27 -4 -52l-125 -721q-4 -18 -4 -34q0 -35 29 -35q55 0 149 231z" />
    <glyph glyph-name="uni0145" unicode="&#x145;" horiz-adv-x="1546" 
d="M1149 1497h510l-8 -51q-118 -6 -163.5 -40t-62.5 -130l-229 -1296h-49l-680 1202l-164 -920q-8 -47 -8 -78q0 -72 45 -100t158 -33l-11 -51h-507l8 51q117 6 161.5 40t61.5 130l192 1082l5 45q0 52 -38 72.5t-137 25.5l11 51h338l604 -1102l149 840q8 47 8 78
q0 72 -44.5 100t-159.5 33zM666 -59q55 0 87.5 -32.5t32.5 -86.5q0 -87 -75.5 -156t-188.5 -96l-8 41q54 18 90.5 49t36.5 64q0 29 -29 46t-80 19q-8 16 -8 35q0 47 42.5 82t99.5 35z" />
    <glyph glyph-name="uni0146" unicode="&#x146;" horiz-adv-x="1304" 
d="M1208 350l35 -18q-52 -167 -133 -259.5t-172 -92.5q-65 0 -103 32t-38 97q0 20 6 47l123 702q4 18 4 31q0 55 -53 55q-36 0 -84.5 -40.5t-111 -127t-142 -245.5t-162.5 -373l-27 -158h-225l160 899q2 18 2 35q0 20 -7 27.5t-22 7.5q-26 0 -64.5 -60t-82.5 -172l-37 19
q54 168 135 260t172 92q65 0 102 -31t37 -96q0 -13 -4 -49l-84 -463q67 154 137 271t129.5 185.5t119.5 111t105 57t89 14.5q70 0 110.5 -37.5t40.5 -109.5q0 -27 -4 -52l-125 -721q-4 -18 -4 -34q0 -35 29 -35q55 0 149 231zM537 -59q55 0 87.5 -32.5t32.5 -86.5
q0 -87 -75 -156t-189 -96l-8 41q54 18 90.5 49t36.5 64q0 29 -29 46t-80 19q-6 24 -6 35q0 47 41.5 82t98.5 35z" />
    <glyph glyph-name="Ncaron" unicode="&#x147;" horiz-adv-x="1546" 
d="M985 1606h-37l-237 264l26 39l260 -131l306 131l12 -39zM1149 1497h510l-8 -51q-118 -6 -163.5 -40t-62.5 -130l-229 -1296h-49l-680 1202l-164 -920q-8 -47 -8 -78q0 -72 45 -100t158 -33l-11 -51h-507l8 51q117 6 161.5 40t61.5 130l192 1082l5 45q0 52 -38 72.5
t-137 25.5l11 51h338l604 -1102l149 840q8 47 8 78q0 72 -44.5 100t-159.5 33z" />
    <glyph glyph-name="ncaron" unicode="&#x148;" horiz-adv-x="1304" 
d="M791 1208h-37l-207 389l31 27l229 -217l307 217l21 -27zM1208 350l35 -18q-52 -167 -133 -259.5t-172 -92.5q-65 0 -103 32t-38 97q0 20 6 47l123 702q4 18 4 31q0 55 -53 55q-36 0 -84.5 -40.5t-111 -127t-142 -245.5t-162.5 -373l-27 -158h-225l160 899q2 18 2 35
q0 20 -7 27.5t-22 7.5q-26 0 -64.5 -60t-82.5 -172l-37 19q54 168 135 260t172 92q65 0 102 -31t37 -96q0 -13 -4 -49l-84 -463q67 154 137 271t129.5 185.5t119.5 111t105 57t89 14.5q70 0 110.5 -37.5t40.5 -109.5q0 -27 -4 -52l-125 -721q-4 -18 -4 -34q0 -35 29 -35
q55 0 149 231z" />
    <glyph glyph-name="Eng" unicode="&#x14a;" horiz-adv-x="1546" 
d="M1149 1497h510l-8 -51q-118 -6 -163.5 -40t-62.5 -130l-174 -989q-32 -177 -144.5 -313t-272.5 -199l-9 39q194 100 271 254l-631 1116l-162 -922q-8 -47 -8 -78q0 -72 45 -100t158 -33l-11 -51h-507l8 51q117 6 161.5 40t61.5 130l192 1082l5 45q0 52 -38 72.5
t-137 25.5l11 51h338l604 -1104l149 842q8 47 8 78q0 72 -44.5 100t-159.5 33z" />
    <glyph glyph-name="eng" unicode="&#x14b;" horiz-adv-x="1247" 
d="M1012 1108q70 0 110.5 -37.5t40.5 -109.5q0 -27 -4 -52l-135 -774q-37 -215 -166 -371t-301 -194l-8 39q96 69 151 172.5t82 255.5l144 821q4 18 4 31q0 55 -53 55q-36 0 -84.5 -40.5t-111 -127t-142 -245.5t-162.5 -373l-27 -158h-225l160 899q2 18 2 35q0 20 -7 27.5
t-22 7.5q-26 0 -64.5 -60t-82.5 -172l-37 19q54 168 135 260t172 92q65 0 102 -31t37 -96q0 -13 -4 -49l-84 -463q67 154 137 271t129.5 185.5t119.5 111t105 57t89 14.5z" />
    <glyph glyph-name="Omacron" unicode="&#x14c;" horiz-adv-x="1597" 
d="M684 1702l31 82h624l-28 -82h-627zM702 -20q-270 0 -424.5 158.5t-154.5 430.5q0 195 66.5 371t180 302.5t271 201t332.5 74.5q268 0 422.5 -159t154.5 -429q0 -195 -66.5 -371.5t-179.5 -303t-270.5 -201t-331.5 -74.5zM717 61q150 0 283.5 127.5t212.5 339.5t79 449
q0 212 -88.5 335.5t-245.5 123.5q-151 0 -285.5 -127.5t-214 -339t-79.5 -447.5q0 -215 89.5 -338t248.5 -123z" />
    <glyph glyph-name="omacron" unicode="&#x14d;" horiz-adv-x="1210" 
d="M438 1407l31 82h623l-29 -82h-625zM508 -20q-203 0 -319.5 117.5t-116.5 316.5q0 143 49.5 272t134 221.5t202.5 146.5t249 54q202 0 318 -117t116 -317q0 -191 -84 -351t-229.5 -251.5t-319.5 -91.5zM520 47q96 0 185.5 100t143.5 261t54 331q0 139 -55.5 220t-151.5 81
q-98 0 -188.5 -100t-144.5 -260.5t-54 -329.5q0 -140 56 -221.5t155 -81.5z" />
    <glyph glyph-name="Ohungarumlaut" unicode="&#x150;" horiz-adv-x="1597" 
d="M700 1587l-22 33q228 256 303 307q35 21 66 21q40 0 70 -30.5t30 -72.5q0 -58 -51 -90q-72 -47 -396 -168zM1079 1587l-22 33q233 258 305 307q34 21 63 21q42 0 72.5 -30.5t30.5 -72.5q0 -58 -51 -90q-73 -49 -398 -168zM702 -20q-270 0 -424.5 158.5t-154.5 430.5
q0 195 66.5 371t180 302.5t271 201t332.5 74.5q268 0 422.5 -159t154.5 -429q0 -195 -66.5 -371.5t-179.5 -303t-270.5 -201t-331.5 -74.5zM717 61q150 0 283.5 127.5t212.5 339.5t79 449q0 212 -88.5 335.5t-245.5 123.5q-151 0 -285.5 -127.5t-214 -339t-79.5 -447.5
q0 -215 89.5 -338t248.5 -123z" />
    <glyph glyph-name="ohungarumlaut" unicode="&#x151;" horiz-adv-x="1210" 
d="M522 1208l-28 29q190 298 247 352q35 35 78 35q40 0 71.5 -29.5t31.5 -68.5q0 -50 -37 -84q-92 -81 -363 -234zM862 1208l-28 29q190 298 247 352q32 35 78 35q40 0 71.5 -29.5t31.5 -68.5q0 -51 -39 -84q-86 -78 -361 -234zM508 -20q-203 0 -319.5 117.5t-116.5 316.5
q0 143 49.5 272t134 221.5t202.5 146.5t249 54q202 0 318 -117t116 -317q0 -191 -84 -351t-229.5 -251.5t-319.5 -91.5zM520 47q96 0 185.5 100t143.5 261t54 331q0 139 -55.5 220t-151.5 81q-98 0 -188.5 -100t-144.5 -260.5t-54 -329.5q0 -140 56 -221.5t155 -81.5z" />
    <glyph glyph-name="OE" unicode="&#x152;" horiz-adv-x="2318" 
d="M2212 561l45 -18l-268 -553q-136 10 -398 10h-839q-292 0 -460.5 159t-168.5 429q0 190 69 358.5t188 289t284.5 191t351.5 70.5h796q250 0 383 10l60 -532l-53 -21q-13 101 -32 173t-49 124t-65 83.5t-88.5 49.5t-111.5 24.5t-142 6.5h-211l-106 -606h149q74 0 119 21.5
t88 93.5t86 213h49q-84 -413 -135 -758h-49q4 74 4 96q0 104 -19 159t-54.5 74t-102.5 19h-150l-92 -516q-6 -38 -6 -57q0 -41 22.5 -56.5t75.5 -15.5h181q78 0 134 6.5t114 25t104.5 51.5t96.5 86.5t98 129t102 180.5zM813 82h113q62 0 87.5 24.5t37.5 94.5l215 1214h-228
q-178 0 -329 -114t-238.5 -309t-87.5 -425q0 -223 115 -354t315 -131z" />
    <glyph glyph-name="oe" unicode="&#x153;" horiz-adv-x="1894" 
d="M1432 135q83 0 174 48t157 126l31 -22q-78 -138 -212 -222.5t-275 -84.5q-138 0 -230 70t-125 194q-85 -123 -205 -193.5t-255 -70.5q-195 0 -307.5 117t-112.5 315q0 143 48.5 272t131 222t197 147.5t241.5 54.5q146 0 245 -69.5t136 -194.5q81 123 199.5 193.5
t253.5 70.5q153 0 242 -61t89 -164q0 -76 -57.5 -141.5t-158.5 -113.5t-229.5 -82t-279.5 -54v-9q0 -161 80 -254.5t222 -93.5zM522 57q97 0 186 98t142 256.5t53 327.5q0 139 -55.5 220t-151.5 81q-97 0 -187 -99t-144 -257.5t-54 -325.5q0 -140 56 -220.5t155 -80.5z
M1503 1038q-88 0 -168.5 -65t-133.5 -175t-66 -239q243 38 384.5 128t141.5 220q0 60 -43.5 95.5t-114.5 35.5z" />
    <glyph glyph-name="Racute" unicode="&#x154;" horiz-adv-x="1540" 
d="M1143 1710q-83 -38 -420 -104l-16 36q272 218 348 254q29 13 51 13q43 0 72.5 -30.5t29.5 -72.5q0 -64 -65 -96zM1036 715q67 -169 116 -280t90 -187t78.5 -116.5t72 -58.5t80.5 -22l-9 -51h-184q-76 0 -127.5 22.5t-109 96.5t-116 203.5t-141.5 353.5h-20h-236l-73 -414
q-8 -44 -8 -78q0 -71 44.5 -99t157.5 -34l-8 -51h-663l8 51q117 6 161.5 40t61.5 130l186 1055q6 38 6 61q0 58 -37 81t-133 28l11 51h747q205 0 324 -86.5t119 -234.5q0 -158 -108 -281.5t-290 -179.5zM762 758q173 0 290 119.5t117 293.5q0 112 -65.5 178t-181.5 66h-260
l-117 -657h217z" />
    <glyph glyph-name="racute" unicode="&#x155;" horiz-adv-x="970" 
d="M854 1411q-75 -49 -397 -168l-21 33q209 231 303 305q33 23 66 23q41 0 72.5 -31t31.5 -70q0 -59 -55 -92zM1032 997q0 -57 -39 -106h-274q-117 -187 -342 -733l-27 -158h-225l160 899q2 18 2 35q0 20 -7 27.5t-22 7.5q-26 0 -64.5 -60t-82.5 -172l-37 19q54 168 135 260
t172 92q65 0 102 -31t37 -96q0 -13 -4 -49l-88 -486q87 208 154.5 340.5t125 202.5t103 94.5t100.5 24.5t88 -30.5t33 -80.5z" />
    <glyph glyph-name="uni0156" unicode="&#x156;" horiz-adv-x="1540" 
d="M1036 715q67 -169 116 -280t90 -187t78.5 -116.5t72 -58.5t80.5 -22l-9 -51h-184q-76 0 -127.5 22.5t-109 96.5t-116 203.5t-141.5 353.5h-20h-236l-73 -414q-8 -44 -8 -78q0 -71 44.5 -99t157.5 -34l-8 -51h-663l8 51q117 6 161.5 40t61.5 130l186 1055q6 38 6 61
q0 58 -37 81t-133 28l11 51h747q205 0 324 -86.5t119 -234.5q0 -158 -108 -281.5t-290 -179.5zM762 758q173 0 290 119.5t117 293.5q0 112 -65.5 178t-181.5 66h-260l-117 -657h217zM752 -59q55 0 87.5 -32.5t32.5 -86.5q0 -87 -75 -156t-189 -96l-8 41q54 18 90.5 49
t36.5 64q0 29 -29 46t-80 19q-6 24 -6 35q0 47 41.5 82t98.5 35z" />
    <glyph glyph-name="uni0157" unicode="&#x157;" horiz-adv-x="970" 
d="M1032 997q0 -57 -39 -106h-274q-117 -187 -342 -733l-27 -158h-225l160 899q2 18 2 35q0 20 -7 27.5t-22 7.5q-26 0 -64.5 -60t-82.5 -172l-37 19q54 168 135 260t172 92q65 0 102 -31t37 -96q0 -13 -4 -49l-88 -486q87 208 154.5 340.5t125 202.5t103 94.5t100.5 24.5
t88 -30.5t33 -80.5zM227 -59q57 0 90 -32.5t33 -86.5q0 -87 -76 -156t-190 -96l-6 41q54 18 90.5 49t36.5 64q0 29 -29.5 46t-79.5 19q-8 16 -8 35q0 47 41 82t98 35z" />
    <glyph glyph-name="Rcaron" unicode="&#x158;" horiz-adv-x="1540" 
d="M920 1606h-37l-238 264l27 39l260 -131l307 131l12 -39zM1036 715q67 -169 116 -280t90 -187t78.5 -116.5t72 -58.5t80.5 -22l-9 -51h-184q-76 0 -127.5 22.5t-109 96.5t-116 203.5t-141.5 353.5h-20h-236l-73 -414q-8 -44 -8 -78q0 -71 44.5 -99t157.5 -34l-8 -51h-663
l8 51q117 6 161.5 40t61.5 130l186 1055q6 38 6 61q0 58 -37 81t-133 28l11 51h747q205 0 324 -86.5t119 -234.5q0 -158 -108 -281.5t-290 -179.5zM762 758q173 0 290 119.5t117 293.5q0 112 -65.5 178t-181.5 66h-260l-117 -657h217z" />
    <glyph glyph-name="rcaron" unicode="&#x159;" horiz-adv-x="970" 
d="M670 1208h-37l-207 389l31 27l231 -217l305 217l21 -27zM1032 997q0 -57 -39 -106h-274q-117 -187 -342 -733l-27 -158h-225l160 899q2 18 2 35q0 20 -7 27.5t-22 7.5q-26 0 -64.5 -60t-82.5 -172l-37 19q54 168 135 260t172 92q65 0 102 -31t37 -96q0 -13 -4 -49
l-88 -486q87 208 154.5 340.5t125 202.5t103 94.5t100.5 24.5t88 -30.5t33 -80.5z" />
    <glyph glyph-name="Sacute" unicode="&#x15a;" horiz-adv-x="1302" 
d="M645 1606l-18 36q277 220 350 254q29 13 51 13q43 0 72.5 -30.5t29.5 -72.5q0 -30 -17.5 -55.5t-49.5 -40.5q-79 -38 -418 -104zM557 -20q-76 0 -143.5 18t-118.5 36.5t-86 18.5q-26 0 -44.5 -13t-41.5 -50h-29l-8 542l51 13q32 -222 147.5 -353t278.5 -131q178 0 289 82
t111 211q0 40 -18.5 76t-44 62.5t-73 56.5t-84 48.5t-98.5 47.5q-54 26 -85.5 41.5t-80.5 43.5t-78 50t-64 55.5t-54 66.5t-32 75.5t-13 89.5q0 195 153.5 323t388.5 128q71 0 136.5 -19t115.5 -38t84 -19q25 0 42.5 14t35.5 51h29l20 -516l-49 -12q-32 205 -150.5 331
t-277.5 126q-136 0 -225.5 -64.5t-89.5 -171.5q0 -44 20.5 -84.5t48 -69.5t80 -62.5t90.5 -53.5t105 -53q53 -26 83.5 -42t78.5 -43.5t75.5 -49t61.5 -53.5t52.5 -62t31 -69t12.5 -81q0 -141 -82.5 -255t-227.5 -178t-323 -64z" />
    <glyph glyph-name="sacute" unicode="&#x15b;" horiz-adv-x="1009" 
d="M827 1411q-83 -53 -399 -168l-20 33q214 236 305 305q29 23 63 23q41 0 73 -31t32 -70q0 -57 -54 -92zM805 709q-36 0 -60 12v272q-65 47 -184 47q-96 0 -161.5 -41t-65.5 -108q0 -35 16 -67t37 -54.5t62.5 -49t69.5 -41t81 -40.5t86.5 -44t78 -48t69.5 -57.5t43 -66.5
t18 -81q0 -154 -136.5 -258t-340.5 -104q-184 0 -282.5 70t-98.5 192q0 74 41.5 121t97.5 47q31 0 57 -13v-311q58 -39 191 -39q122 0 197 48.5t75 129.5q0 39 -18.5 72t-58.5 62.5t-74 48t-94 47.5q-49 24 -74 36.5t-67.5 37.5t-65 46t-47.5 50.5t-36 64t-11 74.5
q0 147 119.5 245.5t299.5 98.5q174 0 273.5 -68t99.5 -184q0 -67 -40.5 -107t-96.5 -40z" />
    <glyph glyph-name="Scedilla" unicode="&#x15e;" horiz-adv-x="1302" 
d="M766 1436q-136 0 -225.5 -64.5t-89.5 -171.5q0 -44 20.5 -84.5t48 -69.5t80 -62.5t90.5 -53.5t105 -53q53 -26 83.5 -42t78.5 -43.5t75.5 -49t61.5 -53.5t52.5 -62t31 -69t12.5 -81q0 -206 -168 -345.5t-424 -151.5l-41 -52q123 -85 123 -174q0 -83 -77 -131t-208 -53v37
q63 11 101.5 37.5t38.5 66.5q0 71 -113 148l96 123q-81 4 -176.5 37.5t-132.5 33.5q-26 0 -44.5 -13t-41.5 -50h-29l-8 542l51 13q32 -222 147.5 -353t278.5 -131q178 0 289 82t111 211q0 40 -18.5 76t-44 62.5t-73 56.5t-84 48.5t-98.5 47.5q-54 26 -85.5 41.5t-80.5 43.5
t-78 50t-64 55.5t-54 66.5t-32 75.5t-13 89.5q0 195 153.5 323t388.5 128q71 0 136.5 -19t115.5 -38t84 -19q25 0 42.5 14t35.5 51h29l20 -516l-49 -12q-32 205 -150.5 331t-277.5 126z" />
    <glyph glyph-name="scedilla" unicode="&#x15f;" horiz-adv-x="1009" 
d="M805 709q-36 0 -60 12v272q-65 47 -184 47q-96 0 -161.5 -41t-65.5 -108q0 -35 16 -67t37 -54.5t62.5 -49t69.5 -41t81 -40.5t86.5 -44t78 -48t69.5 -57.5t43 -66.5t18 -81q0 -148 -126 -250.5t-318 -111.5l-41 -52q122 -87 122 -174q0 -83 -76.5 -131t-207.5 -53l-2 37
q63 11 101 37t38 67q0 72 -111 148l95 123q-161 9 -246.5 77.5t-85.5 182.5q0 74 41.5 121t97.5 47q31 0 57 -13v-311q58 -39 191 -39q122 0 197 48.5t75 129.5q0 39 -18.5 72t-58.5 62.5t-74 48t-94 47.5q-49 24 -74 36.5t-67.5 37.5t-65 46t-47.5 50.5t-36 64t-11 74.5
q0 147 119.5 245.5t299.5 98.5q174 0 273.5 -68t99.5 -184q0 -67 -40.5 -107t-96.5 -40z" />
    <glyph glyph-name="Scaron" unicode="&#x160;" horiz-adv-x="1302" 
d="M842 1606h-37l-238 264l27 39l260 -131l307 131l10 -39zM766 1436q-136 0 -225.5 -64.5t-89.5 -171.5q0 -44 20.5 -84.5t48 -69.5t80 -62.5t90.5 -53.5t105 -53q53 -26 83.5 -42t78.5 -43.5t75.5 -49t61.5 -53.5t52.5 -62t31 -69t12.5 -81q0 -141 -82.5 -255t-227.5 -178
t-323 -64q-76 0 -143.5 18t-118.5 36.5t-86 18.5q-26 0 -44.5 -13t-41.5 -50h-29l-8 542l51 13q32 -222 147.5 -353t278.5 -131q178 0 289 82t111 211q0 40 -18.5 76t-44 62.5t-73 56.5t-84 48.5t-98.5 47.5q-54 26 -85.5 41.5t-80.5 43.5t-78 50t-64 55.5t-54 66.5
t-32 75.5t-13 89.5q0 195 153.5 323t388.5 128q71 0 136.5 -19t115.5 -38t84 -19q25 0 42.5 14t35.5 51h29l20 -516l-49 -12q-32 205 -150.5 331t-277.5 126z" />
    <glyph glyph-name="scaron" unicode="&#x161;" horiz-adv-x="1009" 
d="M641 1208h-37l-207 389l33 27l229 -217l306 217l22 -27zM569 1108q174 0 273.5 -68t99.5 -184q0 -67 -40.5 -107t-96.5 -40q-36 0 -60 12v272q-65 47 -184 47q-96 0 -161.5 -41t-65.5 -108q0 -35 16 -67t37 -54.5t62.5 -49t69.5 -41t81 -40.5t86.5 -44t78 -48t69.5 -57.5
t43 -66.5t18 -81q0 -154 -136.5 -258t-340.5 -104q-184 0 -282.5 70t-98.5 192q0 74 41.5 121t97.5 47q31 0 57 -13v-311q58 -39 191 -39q122 0 197 48.5t75 129.5q0 39 -18.5 72t-58.5 62.5t-74 48t-94 47.5q-49 24 -74 36.5t-67.5 37.5t-65 46t-47.5 50.5t-36 64t-11 74.5
q0 147 119.5 245.5t299.5 98.5z" />
    <glyph glyph-name="uni0162" unicode="&#x162;" horiz-adv-x="1386" 
d="M1372 1532l58 -559l-54 -17q-19 121 -42 202t-50 132.5t-67 78.5t-83.5 36.5t-109.5 9.5h-57l-209 -1173q-6 -44 -6 -68q0 -66 42.5 -92t153.5 -31l-10 -51h-301l-55 -72q123 -88 123 -174q0 -83 -77 -131t-208 -53l-2 37q63 11 101 37t38 67q0 72 -111 148l111 141h-301
l10 51q134 6 184.5 44.5t69.5 146.5l207 1173h-55q-84 0 -140.5 -15.5t-118 -64.5t-121.5 -139t-136 -240l-45 17l251 559h5q67 -20 148 -27.5t251 -7.5h190q163 0 248 6.5t164 28.5h4z" />
    <glyph glyph-name="uni0163" unicode="&#x163;" horiz-adv-x="772" 
d="M500 981l-129 -735q-6 -44 -6 -68q0 -36 16 -52.5t55 -16.5q52 0 113.5 57.5t120.5 179.5l37 -20q-76 -175 -176.5 -260.5t-208.5 -85.5q-27 0 -41 2l-41 -54q122 -87 122 -174q0 -83 -76.5 -131t-207.5 -53l-2 37q63 11 101 37t38 67q0 72 -111 148l113 143
q-82 45 -82 154q0 33 4 53l137 772h-159l16 76l166 22l63 279h203l-51 -271h328l-39 -106h-303z" />
    <glyph glyph-name="Tcaron" unicode="&#x164;" horiz-adv-x="1386" 
d="M899 1606h-37l-235 264l26 39l260 -131l306 131l12 -39zM1372 1532l58 -559l-54 -17q-19 121 -42 202t-50 132.5t-67 78.5t-83.5 36.5t-109.5 9.5h-57l-209 -1173q-6 -44 -6 -68q0 -66 42.5 -92t153.5 -31l-10 -51h-682l10 51q134 6 184.5 44.5t69.5 146.5l207 1173h-55
q-84 0 -140.5 -15.5t-118 -64.5t-121.5 -139t-136 -240l-45 17l251 559h5q67 -20 148 -27.5t251 -7.5h190q163 0 248 6.5t164 28.5h4z" />
    <glyph glyph-name="tcaron" unicode="&#x165;" horiz-adv-x="772" 
d="M657 1208q60 32 99 79.5t39 88.5q0 34 -26.5 58t-72.5 28q-14 22 -14 49q0 52 39.5 89.5t95.5 37.5q57 0 91 -36.5t34 -98.5q0 -96 -75 -192t-193 -148zM565 1358l-51 -271h328l-39 -106h-303l-129 -735q-6 -44 -6 -68q0 -36 16 -52.5t55 -16.5q52 0 113.5 57.5
t120.5 179.5l37 -20q-76 -175 -176.5 -260.5t-208.5 -85.5q-89 0 -138 46.5t-49 129.5q0 33 4 53l137 772h-159l16 76l166 22l63 279h203z" />
    <glyph glyph-name="Tbar" unicode="&#x166;" horiz-adv-x="1388" 
d="M1372 1532l58 -559l-54 -17q-19 121 -42 202t-50 132.5t-67 78.5t-83.5 36.5t-109.5 9.5h-57l-113 -633h285l-27 -71h-270l-84 -469q-6 -44 -6 -68q0 -66 42.5 -92t153.5 -31l-10 -51h-682l10 51q134 6 184.5 44.5t69.5 146.5l82 469h-264l27 71h251l111 633h-55
q-84 0 -140.5 -15.5t-118 -64.5t-121.5 -139t-136 -240l-45 17l251 559h5q67 -20 148 -27.5t251 -7.5h190q163 0 248 6.5t164 28.5h4z" />
    <glyph glyph-name="tbar" unicode="&#x167;" horiz-adv-x="786" 
d="M813 981h-303l-45 -256h319l-24 -63h-305l-74 -416q-8 -39 -8 -68q0 -36 17 -52.5t56 -16.5q51 0 112 57.5t120 179.5l39 -20q-76 -174 -177 -260t-208 -86q-89 0 -138 46.5t-49 129.5q0 28 5 53l77 453h-157l22 63h148l45 256h-158l14 76l166 22l64 279h204l-51 -271
h326z" />
    <glyph glyph-name="Umacron" unicode="&#x16a;" horiz-adv-x="1546" 
d="M1386 1784l-28 -82h-625l29 82h624zM1155 1497h510l-10 -51q-117 -6 -161.5 -39.5t-61.5 -130.5l-140 -782q-41 -238 -196 -376t-377 -138q-245 0 -368.5 103t-123.5 292q0 57 13 127l135 774q6 38 6 61q0 58 -37 81t-133 28l10 51h664l-8 -51q-139 -6 -193.5 -44.5
t-73.5 -144.5l-139 -796q-8 -44 -8 -94q0 -141 81.5 -223.5t225.5 -82.5q163 0 283.5 114t152.5 300l133 760q9 53 9 80q0 71 -44.5 98.5t-156.5 32.5z" />
    <glyph glyph-name="umacron" unicode="&#x16b;" horiz-adv-x="1298" 
d="M1116 1489l-29 -82h-624l29 82h624zM1196 350l35 -18q-52 -168 -133 -260t-174 -92q-63 0 -101.5 32t-38.5 97q0 15 7 47l81 460q-66 -153 -135 -269.5t-127.5 -184.5t-118 -110.5t-104.5 -57t-88 -14.5q-69 0 -109 37.5t-40 109.5q0 26 4 51l125 721q2 18 2 35
q0 20 -7 27.5t-22 7.5q-27 0 -65.5 -60.5t-82.5 -171.5l-36 19q54 168 134.5 260t172.5 92q65 0 102 -31t37 -96q0 -13 -4 -49l-125 -703q-2 -18 -2 -30q0 -56 51 -56q28 0 63 24t82.5 82t100 145.5t117 225.5t131.5 310l28 157h226l-160 -899q-4 -18 -4 -34q0 -35 29 -35
q55 0 149 231z" />
    <glyph glyph-name="Uring" unicode="&#x16e;" horiz-adv-x="1546" 
d="M1051 1575q-98 0 -153.5 49t-55.5 133q0 97 70 163.5t173 66.5q95 0 151 -50t56 -133q0 -98 -69.5 -163.5t-171.5 -65.5zM1073 1919q-64 0 -107.5 -43.5t-43.5 -106.5q0 -59 37.5 -93t101.5 -34t107.5 43t43.5 105q0 59 -37.5 94t-101.5 35zM1155 1497h510l-10 -51
q-117 -6 -161.5 -39.5t-61.5 -130.5l-140 -782q-41 -238 -196 -376t-377 -138q-245 0 -368.5 103t-123.5 292q0 57 13 127l135 774q6 38 6 61q0 58 -37 81t-133 28l10 51h664l-8 -51q-139 -6 -193.5 -44.5t-73.5 -144.5l-139 -796q-8 -44 -8 -94q0 -141 81.5 -223.5
t225.5 -82.5q163 0 283.5 114t152.5 300l133 760q9 53 9 80q0 71 -44.5 98.5t-156.5 32.5z" />
    <glyph glyph-name="uring" unicode="&#x16f;" horiz-adv-x="1298" 
d="M768 1212q-96 0 -152.5 49.5t-56.5 133.5q0 98 70.5 163.5t173.5 65.5q96 0 151.5 -50.5t55.5 -135.5q0 -95 -70.5 -160.5t-171.5 -65.5zM791 1556q-64 0 -108 -42.5t-44 -104.5q0 -59 37.5 -94t101.5 -35t108 41.5t44 103.5q0 60 -37.5 95.5t-101.5 35.5zM1196 350
l35 -18q-52 -168 -133 -260t-174 -92q-63 0 -101.5 32t-38.5 97q0 15 7 47l81 460q-66 -153 -135 -269.5t-127.5 -184.5t-118 -110.5t-104.5 -57t-88 -14.5q-69 0 -109 37.5t-40 109.5q0 26 4 51l125 721q2 18 2 35q0 20 -7 27.5t-22 7.5q-27 0 -65.5 -60.5t-82.5 -171.5
l-36 19q54 168 134.5 260t172.5 92q65 0 102 -31t37 -96q0 -13 -4 -49l-125 -703q-2 -18 -2 -30q0 -56 51 -56q28 0 63 24t82.5 82t100 145.5t117 225.5t131.5 310l28 157h226l-160 -899q-4 -18 -4 -34q0 -35 29 -35q55 0 149 231z" />
    <glyph glyph-name="Uhungarumlaut" unicode="&#x170;" horiz-adv-x="1546" 
d="M1145 1755q-81 -52 -397 -168l-23 33q233 258 305 307q30 21 64 21q42 0 72 -30t30 -73q0 -58 -51 -90zM1128 1587l-22 33q233 258 305 307q30 21 64 21q41 0 71.5 -30t30.5 -73q0 -58 -51 -90q-80 -51 -398 -168zM1155 1497h510l-10 -51q-117 -6 -161.5 -39.5
t-61.5 -130.5l-140 -782q-41 -238 -196 -376t-377 -138q-245 0 -368.5 103t-123.5 292q0 57 13 127l135 774q6 38 6 61q0 58 -37 81t-133 28l10 51h664l-8 -51q-139 -6 -193.5 -44.5t-73.5 -144.5l-139 -796q-8 -44 -8 -94q0 -141 81.5 -223.5t225.5 -82.5q163 0 283.5 114
t152.5 300l133 760q9 53 9 80q0 71 -44.5 98.5t-156.5 32.5z" />
    <glyph glyph-name="uhungarumlaut" unicode="&#x171;" horiz-adv-x="1298" 
d="M907 1442q-87 -80 -360 -234l-29 29q189 295 248 352q32 35 78 35q40 0 71 -29.5t31 -68.5q0 -48 -39 -84zM1184 1624q40 0 70 -29t30 -69q0 -50 -37 -84q-87 -80 -360 -234l-29 29q180 287 248 352q32 35 78 35zM1047 119q55 0 149 231l35 -18q-52 -168 -133 -260
t-174 -92q-63 0 -101.5 32t-38.5 97q0 15 7 47l81 460q-66 -153 -135 -269.5t-127.5 -184.5t-118 -110.5t-104.5 -57t-88 -14.5q-69 0 -109 37.5t-40 109.5q0 26 4 51l125 721q2 18 2 35q0 20 -7 27.5t-22 7.5q-27 0 -65.5 -60.5t-82.5 -171.5l-36 19q54 168 134.5 260
t172.5 92q65 0 102 -31t37 -96q0 -13 -4 -49l-125 -703q-2 -18 -2 -30q0 -56 51 -56q28 0 63 24t82.5 82t100 145.5t117 225.5t131.5 310l28 157h226l-160 -899q-4 -18 -4 -34q0 -35 29 -35z" />
    <glyph glyph-name="Uogonek" unicode="&#x172;" horiz-adv-x="1546" 
d="M1155 1497h510l-10 -51q-117 -6 -161.5 -39.5t-61.5 -130.5l-140 -782q-38 -221 -176 -357t-338 -155q-64 -66 -103.5 -133.5t-39.5 -116.5q0 -30 17 -48t46 -18q75 0 144 55l8 -43q-47 -40 -116 -69t-140 -29q-64 0 -102.5 31t-38.5 82q0 59 63.5 135t177.5 152
q-233 6 -350 108.5t-117 286.5q0 57 13 127l135 774q6 38 6 61q0 58 -37 81t-133 28l10 51h664l-8 -51q-139 -6 -193.5 -44.5t-73.5 -144.5l-139 -796q-8 -44 -8 -94q0 -141 81.5 -223.5t225.5 -82.5q163 0 283.5 114t152.5 300l133 760q9 53 9 80q0 71 -44.5 98.5
t-156.5 32.5z" />
    <glyph glyph-name="uogonek" unicode="&#x173;" horiz-adv-x="1298" 
d="M1047 23q-81 -70 -135 -152.5t-54 -138.5q0 -29 18.5 -47.5t47.5 -18.5q72 0 141 55l10 -43q-49 -40 -117 -69t-139 -29q-66 0 -104.5 31t-38.5 82q0 59 64 135t178 152q-60 2 -97 34t-37 95q0 15 7 47l81 460q-66 -153 -135 -269.5t-127.5 -184.5t-118 -110.5
t-104.5 -57t-88 -14.5q-69 0 -109 37.5t-40 109.5q0 26 4 51l125 721q2 18 2 35q0 20 -7 27.5t-22 7.5q-27 0 -65.5 -60.5t-82.5 -171.5l-36 19q54 168 134.5 260t172.5 92q65 0 102 -31t37 -96q0 -13 -4 -49l-125 -703q-2 -18 -2 -30q0 -56 51 -56q28 0 63 24t82.5 82
t100 145.5t117 225.5t131.5 310l28 157h226l-160 -899q-4 -18 -4 -34q0 -35 29 -35q55 0 149 231l35 -18q-68 -223 -184 -309z" />
    <glyph glyph-name="Wcircumflex" unicode="&#x174;" horiz-adv-x="2150" 
d="M1354 1737l-307 -131l-13 39l332 264h37l235 -264l-24 -39zM1806 1497h523l-9 -51q-104 -10 -165 -63.5t-130 -188.5l-620 -1214h-37l-190 1130l-590 -1130h-39l-215 1312q-13 90 -50.5 120.5t-131.5 33.5l8 51h692l-8 -51q-146 -9 -198 -38t-52 -91q0 -26 10 -84
l129 -827l580 1112h37l186 -1127l358 721q7 14 23 46.5t21.5 44.5t17 36.5t15.5 36t10 28t8 28t2 22.5q0 46 -44 66.5t-149 25.5z" />
    <glyph glyph-name="wcircumflex" unicode="&#x175;" horiz-adv-x="1644" 
d="M981 1425l-307 -217l-21 27l344 389h37l207 -389l-31 -27zM1507 1108q52 0 83.5 -47t31.5 -125q0 -87 -47.5 -205t-130 -248t-174 -252.5t-199.5 -250.5h-37l-133 587q-147 -260 -424 -587h-37l-231 948q-8 35 -29 35q-42 0 -117 -226l-34 19q55 184 116 268t146 84
q57 0 97.5 -36.5t57.5 -104.5l166 -703q177 243 262 416l-92 407h248l178 -823q135 191 211 324v495q32 25 88 25z" />
    <glyph glyph-name="Ycircumflex" unicode="&#x176;" horiz-adv-x="1433" 
d="M1006 1737l-306 -131l-12 39l332 264h37l235 -264l-26 -39zM1042 1497h576l-10 -51q-54 -6 -99 -21.5t-97.5 -50t-109 -96.5t-120.5 -154l-328 -475l-72 -407q-6 -44 -6 -68q0 -66 43 -92t154 -31l-8 -51h-684l10 51q134 6 184.5 44.5t69.5 146.5l73 411l-212 588
q-39 113 -87 155t-129 50l11 51h688l-8 -51q-125 -6 -174.5 -30.5t-49.5 -76.5q0 -37 35 -147l148 -438l247 358q73 105 105.5 162.5t32.5 93.5q0 38 -45 56.5t-148 21.5z" />
    <glyph glyph-name="ycircumflex" unicode="&#x177;" horiz-adv-x="1230" 
d="M786 1425l-307 -217l-20 27l344 389h37l207 -389l-31 -27zM956 1087h226l-101 -561l-10 -55q-40 -215 -119.5 -386t-186.5 -283.5t-238.5 -172t-278.5 -59.5q-74 0 -118 33.5t-44 87.5q0 31 14 59l512 2q108 85 164 238.5t78 412.5l33 246q-68 -161 -139 -284
t-131.5 -194.5t-121.5 -116t-106.5 -59.5t-89.5 -15q-69 0 -109 37.5t-40 109.5q0 26 4 51l125 721q2 18 2 35q0 20 -7 27.5t-22 7.5q-27 0 -65.5 -60.5t-82.5 -171.5l-36 19q54 168 134.5 260t172.5 92q65 0 102 -31t37 -96q0 -13 -4 -49l-125 -703q-2 -18 -2 -30
q0 -56 51 -56q28 0 63 24t82.5 82t100 145.5t117 225.5t131.5 310z" />
    <glyph glyph-name="Ydieresis" unicode="&#x178;" horiz-adv-x="1433" 
d="M821 1651q-51 0 -81.5 30t-30.5 80q0 52 37.5 90.5t89.5 38.5q50 0 81 -31t31 -79q0 -54 -37 -91.5t-90 -37.5zM1190 1651q-51 0 -82 30t-31 80q0 52 37.5 90.5t89.5 38.5q50 0 81.5 -31t31.5 -79q0 -54 -37 -91.5t-90 -37.5zM1042 1497h576l-10 -51q-54 -6 -99 -21.5
t-97.5 -50t-109 -96.5t-120.5 -154l-328 -475l-72 -407q-6 -44 -6 -68q0 -66 43 -92t154 -31l-8 -51h-684l10 51q134 6 184.5 44.5t69.5 146.5l73 411l-212 588q-39 113 -87 155t-129 50l11 51h688l-8 -51q-125 -6 -174.5 -30.5t-49.5 -76.5q0 -37 35 -147l148 -438l247 358
q73 105 105.5 162.5t32.5 93.5q0 38 -45 56.5t-148 21.5z" />
    <glyph glyph-name="Zacute" unicode="&#x179;" horiz-adv-x="1406" 
d="M1171 1710q-81 -38 -419 -104l-17 36q269 216 350 254q26 13 52 13q43 0 71.5 -30.5t28.5 -72.5q0 -65 -66 -96zM780 82q59 0 101.5 6t87 23.5t79.5 49.5t72.5 83.5t73 125.5t74.5 177l49 -10l-166 -547q-208 10 -682 10h-494v6l1153 1409h-409q-85 0 -143.5 -17.5
t-118.5 -68t-116 -139t-126 -234.5l-47 13l231 538q185 -10 635 -10h439l2 -4l-1156 -1411h461z" />
    <glyph glyph-name="zacute" unicode="&#x17a;" horiz-adv-x="1058" 
d="M866 1411q-75 -49 -397 -168l-23 33q202 223 306 305q33 23 63 23q42 0 73.5 -31t31.5 -70q0 -59 -54 -92zM758 172q68 0 106 39t76 151l39 -14q-25 -96 -49.5 -158.5t-61 -113t-87 -73.5t-119.5 -23q-106 0 -232 45t-246 122l-149 -157l-49 47l811 858h-279
q-172 0 -247 -42.5t-126 -168.5l-43 8l150 406q194 -11 567 -11h252l2 -4l-723 -761q108 -70 220.5 -110t187.5 -40z" />
    <glyph glyph-name="Zdotaccent" unicode="&#x17b;" horiz-adv-x="1406" 
d="M954 1630q-60 0 -98.5 37t-38.5 94q0 63 44 105.5t110 42.5q59 0 97 -37t38 -94q0 -63 -43.5 -105.5t-108.5 -42.5zM780 82q59 0 101.5 6t87 23.5t79.5 49.5t72.5 83.5t73 125.5t74.5 177l49 -10l-166 -547q-208 10 -682 10h-494v6l1153 1409h-409q-85 0 -143.5 -17.5
t-118.5 -68t-116 -139t-126 -234.5l-47 13l231 538q185 -10 635 -10h439l2 -4l-1156 -1411h461z" />
    <glyph glyph-name="zdotaccent" unicode="&#x17c;" horiz-adv-x="1058" 
d="M698 1315q-60 0 -98.5 36.5t-38.5 94.5q0 63 44 105t110 42q59 0 97 -37t38 -94q0 -63 -43.5 -105t-108.5 -42zM758 172q68 0 106 39t76 151l39 -14q-25 -96 -49.5 -158.5t-61 -113t-87 -73.5t-119.5 -23q-106 0 -232 45t-246 122l-149 -157l-49 47l811 858h-279
q-172 0 -247 -42.5t-126 -168.5l-43 8l150 406q194 -11 567 -11h252l2 -4l-723 -761q108 -70 220.5 -110t187.5 -40z" />
    <glyph glyph-name="Zcaron" unicode="&#x17d;" horiz-adv-x="1406" 
d="M950 1606h-37l-237 264l26 39l261 -131l307 131l10 -39zM780 82q59 0 101.5 6t87 23.5t79.5 49.5t72.5 83.5t73 125.5t74.5 177l49 -10l-166 -547q-208 10 -682 10h-494v6l1153 1409h-409q-85 0 -143.5 -17.5t-118.5 -68t-116 -139t-126 -234.5l-47 13l231 538
q185 -10 635 -10h439l2 -4l-1156 -1411h461z" />
    <glyph glyph-name="zcaron" unicode="&#x17e;" horiz-adv-x="1058" 
d="M682 1208h-37l-207 389l31 27l229 -217l308 217l20 -27zM758 172q68 0 106 39t76 151l39 -14q-25 -96 -49.5 -158.5t-61 -113t-87 -73.5t-119.5 -23q-106 0 -232 45t-246 122l-149 -157l-49 47l811 858h-279q-172 0 -247 -42.5t-126 -168.5l-43 8l150 406
q194 -11 567 -11h252l2 -4l-723 -761q108 -70 220.5 -110t187.5 -40z" />
    <glyph glyph-name="florin" unicode="&#x192;" horiz-adv-x="968" 
d="M973 1323h-340q-66 -82 -66 -203q0 -111 60 -274l12 -41h295l-23 -72h-252q17 -73 17 -131q0 -107 -51 -221.5t-127 -201.5t-168.5 -143t-171.5 -56q-52 0 -84.5 28t-32.5 74t27 92h342q61 71 61 191q0 101 -55 268q-24 78 -29 100h-270l24 72h230q-6 44 -6 84
q0 86 33 179t88 171.5t121.5 142t139.5 100t136 36.5q52 0 85 -28.5t33 -74.5q0 -45 -28 -92z" />
    <glyph glyph-name="AEacute" unicode="&#x1fc;" horiz-adv-x="2195" 
d="M1726 1710q-83 -38 -419 -104l-17 36q273 219 350 254q26 13 50 13q43 0 72.5 -30.5t29.5 -72.5q0 -29 -17.5 -55t-48.5 -41zM2089 561l45 -18l-268 -553q-136 10 -400 10h-768l9 51q117 6 162.5 40.5t62.5 129.5l88 506h-459l-199 -342q-60 -103 -87 -161t-27 -93
q0 -39 39 -58t129 -22l-10 -51h-502l8 51q102 11 171.5 65.5t147.5 186.5l699 1194h760q250 0 383 10l59 -532l-53 -21q-13 100 -32.5 172.5t-49 124t-65 83.5t-89 50t-111.5 24.5t-141 6.5h-211l-106 -606h149q56 0 92 11t72 45.5t65.5 99.5t61.5 172h49
q-85 -433 -133 -758h-49q4 74 4 96q0 104 -19.5 159.5t-55.5 74t-103 18.5h-147l-93 -516q-6 -38 -6 -59q0 -39 21.5 -54.5t74.5 -15.5h183q94 0 158.5 9.5t131 38t121.5 82t114 138.5t124 211zM608 809h426l76 426q8 47 8 78q0 61 -32 89.5t-109 37.5z" />
    <glyph glyph-name="aeacute" unicode="&#x1fd;" horiz-adv-x="1744" 
d="M1323 1411q-75 -49 -397 -168l-21 33q199 223 303 305q33 23 66 23q41 0 71.5 -31t30.5 -70q0 -60 -53 -92zM1282 135q83 0 175.5 48t158.5 126l31 -22q-82 -138 -219.5 -222.5t-282.5 -84.5q-187 0 -293.5 112t-108.5 305q-97 -220 -201.5 -318.5t-242.5 -98.5
q-110 0 -173 91t-63 248q0 213 78 394.5t214.5 288t299.5 106.5q92 0 177.5 -44t140.5 -116q174 160 403 160q152 0 242 -61t90 -164q0 -76 -58 -142t-159.5 -114t-230.5 -82t-279 -53v-9q0 -161 80 -254.5t221 -93.5zM1356 1038q-135 0 -243 -141t-128 -338
q243 38 384.5 128t141.5 220q0 60 -43 95.5t-112 35.5zM422 135q104 0 208.5 184.5t229.5 587.5q-27 61 -75 93t-105 32q-102 0 -189.5 -90t-137.5 -238t-50 -315q0 -118 31.5 -186t87.5 -68z" />
    <glyph glyph-name="uni0218" unicode="&#x218;" horiz-adv-x="1302" 
d="M557 -20q-76 0 -143.5 18t-118.5 36.5t-86 18.5q-26 0 -44.5 -13t-41.5 -50h-29l-8 542l51 13q32 -222 147.5 -353t278.5 -131q178 0 289 82t111 211q0 40 -18.5 76t-44 62.5t-73 56.5t-84 48.5t-98.5 47.5q-54 26 -85.5 41.5t-80.5 43.5t-78 50t-64 55.5t-54 66.5
t-32 75.5t-13 89.5q0 195 153.5 323t388.5 128q71 0 136.5 -19t115.5 -38t84 -19q25 0 42.5 14t35.5 51h29l20 -516l-49 -12q-32 205 -150.5 331t-277.5 126q-136 0 -225.5 -64.5t-89.5 -171.5q0 -44 20.5 -84.5t48 -69.5t80 -62.5t90.5 -53.5t105 -53q53 -26 83.5 -42
t78.5 -43.5t75.5 -49t61.5 -53.5t52.5 -62t31 -69t12.5 -81q0 -141 -82.5 -255t-227.5 -178t-323 -64zM408 -430l-7 41q54 18 90.5 49t36.5 64q0 29 -29 46t-79 19q-8 16 -8 35q0 47 41 82t98 35t90 -32.5t33 -86.5q0 -87 -76 -156t-190 -96z" />
    <glyph glyph-name="uni0219" unicode="&#x219;" horiz-adv-x="1009" 
d="M805 709q-36 0 -60 12v272q-65 47 -184 47q-96 0 -161.5 -41t-65.5 -108q0 -35 16 -67t37 -54.5t62.5 -49t69.5 -41t81 -40.5t86.5 -44t78 -48t69.5 -57.5t43 -66.5t18 -81q0 -154 -136.5 -258t-340.5 -104q-184 0 -282.5 70t-98.5 192q0 74 41.5 121t97.5 47
q31 0 57 -13v-311q58 -39 191 -39q122 0 197 48.5t75 129.5q0 39 -18.5 72t-58.5 62.5t-74 48t-94 47.5q-49 24 -74 36.5t-67.5 37.5t-65 46t-47.5 50.5t-36 64t-11 74.5q0 147 119.5 245.5t299.5 98.5q174 0 273.5 -68t99.5 -184q0 -67 -40.5 -107t-96.5 -40zM403 -59
q55 0 88 -32.5t33 -86.5q0 -87 -75.5 -156t-188.5 -96l-8 41q54 18 90.5 49t36.5 64q0 29 -29 46t-80 19q-8 16 -8 35q0 47 42 82t99 35z" />
    <glyph glyph-name="uni021A" unicode="&#x21a;" horiz-adv-x="1386" 
d="M1372 1532l58 -559l-54 -17q-19 121 -42 202t-50 132.5t-67 78.5t-83.5 36.5t-109.5 9.5h-57l-209 -1173q-6 -44 -6 -68q0 -66 42.5 -92t153.5 -31l-10 -51h-682l10 51q134 6 184.5 44.5t69.5 146.5l207 1173h-55q-84 0 -140.5 -15.5t-118 -64.5t-121.5 -139t-136 -240
l-45 17l251 559h5q67 -20 148 -27.5t251 -7.5h190q163 0 248 6.5t164 28.5h4zM573 -59q57 0 90 -32.5t33 -86.5q0 -87 -76 -156t-190 -96l-6 41q54 18 90.5 49t36.5 64q0 29 -29 46t-80 19q-8 16 -8 35q0 47 41.5 82t97.5 35z" />
    <glyph glyph-name="uni021B" unicode="&#x21b;" horiz-adv-x="772" 
d="M500 981l-129 -735q-6 -44 -6 -68q0 -36 16 -52.5t55 -16.5q52 0 113.5 57.5t120.5 179.5l37 -20q-76 -175 -176.5 -260.5t-208.5 -85.5q-89 0 -138 46.5t-49 129.5q0 33 4 53l137 772h-159l16 76l166 22l63 279h203l-51 -271h328l-39 -106h-303zM233 -59q55 0 88 -32.5
t33 -86.5q0 -87 -75 -156t-189 -96l-8 41q54 18 90.5 49t36.5 64q0 29 -29 46t-80 19q-6 24 -6 35q0 47 41 82t98 35z" />
    <glyph glyph-name="uni0237" unicode="&#x237;" horiz-adv-x="602" 
d="M383 1108q65 0 102 -31t37 -96q0 -13 -4 -49l-141 -797q-38 -214 -167 -370.5t-300 -194.5l-8 39q96 69 151 172t82 256l152 862q2 18 2 35q0 20 -7 27.5t-22 7.5q-26 0 -64.5 -60t-82.5 -172l-37 19q54 168 135 260t172 92z" />
    <glyph glyph-name="circumflex" unicode="&#x2c6;" horiz-adv-x="1130" 
d="M803 1235l-31 -27l-229 217l-307 -217l-21 27l344 389h37z" />
    <glyph glyph-name="caron" unicode="&#x2c7;" horiz-adv-x="1228" 
d="M782 1624l21 -27l-344 -389h-37l-207 389l31 27l229 -217z" />
    <glyph glyph-name="breve" unicode="&#x2d8;" horiz-adv-x="1105" 
d="M430 1214q-97 0 -158 102.5t-71 285.5l43 18q24 -112 80 -179t133 -67t158 67t143 179l37 -18q-73 -181 -171 -284.5t-194 -103.5z" />
    <glyph glyph-name="dotaccent" unicode="&#x2d9;" horiz-adv-x="718" 
d="M315 1315q-60 0 -98.5 36.5t-38.5 94.5q0 63 44.5 105t109.5 42q59 0 97 -37t38 -94q0 -63 -43.5 -105t-108.5 -42z" />
    <glyph glyph-name="ring" unicode="&#x2da;" horiz-adv-x="1105" 
d="M539 1212q-96 0 -151.5 49.5t-55.5 133.5q0 98 70 163.5t173 65.5q95 0 151 -50.5t56 -135.5q0 -95 -70 -160.5t-173 -65.5zM551 1280q64 0 107.5 41.5t43.5 103.5q0 60 -37.5 95.5t-103.5 35.5q-63 0 -107 -43t-44 -104q0 -59 38.5 -94t102.5 -35z" />
    <glyph glyph-name="ogonek" unicode="&#x2db;" horiz-adv-x="1087" 
d="M434 -420q-66 0 -104.5 31t-38.5 82q0 73 98.5 171t267.5 191l15 -22q-84 -71 -141.5 -157t-57.5 -144q0 -29 18.5 -47.5t47.5 -18.5q72 0 141 55l10 -43q-49 -40 -117 -69t-139 -29z" />
    <glyph glyph-name="tilde" unicode="&#x2dc;" horiz-adv-x="1228" 
d="M692 1282q-31 0 -64 12.5t-50 23.5t-54 36q-46 33 -81.5 50t-75.5 17q-71 0 -123 -131l-41 10q31 113 103 195t153 82q40 0 77 -18.5t85 -53.5q32 -22 51 -33.5t50.5 -22.5t59.5 -11q73 0 125 131l39 -10q-32 -114 -103 -195.5t-151 -81.5z" />
    <glyph glyph-name="hungarumlaut" unicode="&#x2dd;" horiz-adv-x="1099" 
d="M236 1208l-27 29q179 285 246 352q35 35 77 35q40 0 71.5 -29.5t31.5 -68.5q0 -50 -37 -84q-84 -77 -362 -234zM575 1208l-28 29q184 288 248 352q35 35 77 35q40 0 71.5 -29.5t31.5 -68.5q0 -50 -37 -84q-82 -75 -363 -234z" />
    <glyph glyph-name="gravecomb" unicode="&#x300;" 
d="M-307 1178q-240 201 -316 295q-24 27 -24 71q0 37 31 67.5t69 30.5q58 0 90 -49q59 -86 183 -391z" />
    <glyph glyph-name="acutecomb" unicode="&#x301;" 
d="M-641 1243l-21 33q102 112 184 193.5t122 111.5q29 23 63 23q41 0 73 -31t32 -70q0 -58 -56 -92q-75 -49 -397 -168z" />
    <glyph glyph-name="uni0302" unicode="&#x302;" 
d="M-215 1235l-31 -27l-229 217l-307 -217l-21 27l344 389h37z" />
    <glyph glyph-name="tildecomb" unicode="&#x303;" 
d="M-457 1282q-31 0 -64 12.5t-50 23.5t-54 36q-46 33 -81.5 50t-75.5 17q-71 0 -123 -131l-41 10q31 113 103 195t153 82q40 0 77 -18.5t85 -53.5q32 -22 51 -33.5t50.5 -22.5t59.5 -11q73 0 125 131l39 -10q-32 -114 -103 -195.5t-151 -81.5z" />
    <glyph glyph-name="uni0304" unicode="&#x304;" 
d="M-821 1407l28 82h625l-29 -82h-624z" />
    <glyph glyph-name="uni0306" unicode="&#x306;" 
d="M-565 1214q-97 0 -158.5 103t-71.5 285l43 18q24 -112 80 -179t133 -67t158 67t143 179l37 -18q-73 -182 -170.5 -285t-193.5 -103z" />
    <glyph glyph-name="uni0307" unicode="&#x307;" 
d="M-338 1315q-60 0 -98.5 36.5t-38.5 94.5q0 63 44 105t109 42q59 0 97.5 -37t38.5 -94q0 -63 -43.5 -105t-108.5 -42z" />
    <glyph glyph-name="uni0308" unicode="&#x308;" 
d="M-700 1339q-51 0 -83 31.5t-32 79.5q0 53 38.5 92t90.5 39q50 0 81.5 -31.5t31.5 -79.5q0 -54 -37.5 -92.5t-89.5 -38.5zM-332 1339q-50 0 -82 31.5t-32 79.5q0 53 38.5 92t90.5 39q50 0 81 -31.5t31 -79.5q0 -54 -37.5 -92.5t-89.5 -38.5z" />
    <glyph glyph-name="uni030A" unicode="&#x30a;" 
d="M-575 1212q-96 0 -151.5 49.5t-55.5 133.5q0 98 70 163.5t173 65.5q95 0 151 -50.5t56 -135.5q0 -95 -70 -160.5t-173 -65.5zM-563 1280q64 0 107.5 41.5t43.5 103.5q0 60 -37.5 95.5t-103.5 35.5q-63 0 -107.5 -43t-44.5 -104q0 -59 39 -94t103 -35z" />
    <glyph glyph-name="uni030B" unicode="&#x30b;" 
d="M-864 1208l-27 29q179 285 246 352q35 35 78 35q40 0 71 -29.5t31 -68.5q0 -50 -37 -84q-84 -77 -362 -234zM-524 1208l-29 29q184 288 248 352q35 35 78 35q40 0 71 -29.5t31 -68.5q0 -50 -37 -84q-84 -77 -362 -234z" />
    <glyph glyph-name="uni030C" unicode="&#x30c;" 
d="M-236 1624l21 -27l-344 -389h-37l-207 389l31 27l229 -217z" />
    <glyph glyph-name="uni0312" unicode="&#x312;" 
d="M-539 1233q-57 0 -90 32.5t-33 86.5q0 93 78.5 172.5t194.5 109.5l6 -41q-56 -19 -92.5 -55.5t-36.5 -77.5q0 -34 28.5 -54t75.5 -22q9 -22 9 -34q0 -47 -41.5 -82t-98.5 -35z" />
    <glyph glyph-name="uni0326" unicode="&#x326;" 
d="M-649 -430l-8 41q54 18 90.5 49t36.5 64q0 29 -29 46t-80 19q-6 24 -6 35q0 47 41 82t98 35q56 0 89.5 -32.5t33.5 -86.5q0 -87 -76 -156t-190 -96z" />
    <glyph glyph-name="uni0327" unicode="&#x327;" 
d="M-541 -430v37q63 11 101.5 37.5t38.5 66.5q0 71 -113 148l123 155l67 -14l-55 -72q123 -85 123 -174q0 -83 -77 -131t-208 -53z" />
    <glyph glyph-name="uni0328" unicode="&#x328;" 
d="M-580 -420q-66 0 -104.5 31t-38.5 82q0 73 99 171t268 191l14 -22q-84 -71 -141.5 -157t-57.5 -144q0 -29 18.5 -47.5t47.5 -18.5q72 0 141 55l10 -43q-49 -40 -117 -69t-139 -29z" />
    <glyph glyph-name="uni0394" unicode="&#x394;" horiz-adv-x="1275" 
d="M829 1518l349 -1512l-2 -6h-1264v6l881 1512h36zM39 82h858l-235 1073z" />
    <glyph glyph-name="uni03A9" unicode="&#x3a9;" horiz-adv-x="1716" 
d="M1563 481l51 -10l-148 -481q-192 10 -610 10h-35l-2 6q64 67 123.5 139t131 180t123.5 215t87 240t35 260q0 184 -80.5 290t-222.5 106q-137 0 -256 -111.5t-188.5 -298t-69.5 -399.5q0 -304 205 -621l-2 -6h-35q-413 0 -615 -10l25 481l51 10q3 -84 18.5 -134.5t54 -80
t92 -39.5t144.5 -10h92q-119 117 -195.5 267.5t-76.5 306.5q0 196 103 363.5t280.5 265.5t386.5 98q256 0 404.5 -134.5t148.5 -361.5q0 -401 -518 -805h96q179 0 260.5 53t141.5 211z" />
    <glyph glyph-name="uni03BC" unicode="&#x3bc;" horiz-adv-x="1228" 
d="M1053 199q0 -49 29.5 -67t107.5 -21l-8 -48q-216 -37 -396 -83h-2l35 194l-2 -8q-189 -186 -371 -186q-148 0 -184 139q-12 -341 -16 -400q-1 -73 -29.5 -111t-75.5 -38q-32 0 -51.5 20.5t-19.5 53.5q0 35 129 663l82 463q6 30 6 53q0 49 -29.5 72t-105.5 35l8 47
q253 73 401 127h4l-84 -477l-53 -301q-6 -34 -6 -62q0 -145 143 -145q104 0 266 125l93 526q6 30 6 55q0 44 -30 68.5t-107 36.5l10 47q253 73 401 127h4l-151 -850q-4 -27 -4 -55z" />
    <glyph glyph-name="pi" unicode="&#x3c0;" horiz-adv-x="1329" 
d="M1141 893l-125 -705q-4 -18 -4 -34q0 -35 28 -35q56 0 150 231l35 -18q-52 -168 -133 -260t-174 -92q-63 0 -101.5 32t-38.5 97q0 20 6 47l154 862h-410l-145 -823q-14 -83 10.5 -112t112.5 -32l-8 -51h-533l10 51q94 3 132 32.5t51 111.5l123 698q15 83 -11 111.5
t-120 31.5l8 51h1173l-8 -51q-98 -3 -133 -32.5t-49 -110.5z" />
    <glyph glyph-name="Wgrave" unicode="&#x1e80;" horiz-adv-x="2150" 
d="M1116 1710q-65 32 -65 96q0 42 29.5 72.5t72.5 30.5q22 0 51 -13q73 -34 350 -254l-18 -36q-337 66 -420 104zM1806 1497h523l-9 -51q-104 -10 -165 -63.5t-130 -188.5l-620 -1214h-37l-190 1130l-590 -1130h-39l-215 1312q-13 90 -50.5 120.5t-131.5 33.5l8 51h692
l-8 -51q-146 -9 -198 -38t-52 -91q0 -26 10 -84l129 -827l580 1112h37l186 -1127l358 721q7 14 23 46.5t21.5 44.5t17 36.5t15.5 36t10 28t8 28t2 22.5q0 46 -44 66.5t-149 25.5z" />
    <glyph glyph-name="wgrave" unicode="&#x1e81;" horiz-adv-x="1644" 
d="M1006 1178q-250 209 -316 295q-24 27 -24 71q0 37 31 67.5t69 30.5q58 0 90 -49q57 -83 182 -391zM1507 1108q52 0 83.5 -47t31.5 -125q0 -87 -47.5 -205t-130 -248t-174 -252.5t-199.5 -250.5h-37l-133 587q-147 -260 -424 -587h-37l-231 948q-8 35 -29 35
q-42 0 -117 -226l-34 19q55 184 116 268t146 84q57 0 97.5 -36.5t57.5 -104.5l166 -703q177 243 262 416l-92 407h248l178 -823q135 191 211 324v495q32 25 88 25z" />
    <glyph glyph-name="Wacute" unicode="&#x1e82;" horiz-adv-x="2150" 
d="M1571 1710q-83 -38 -420 -104l-18 36q277 220 350 254q29 13 51 13q43 0 72.5 -30.5t29.5 -72.5q0 -64 -65 -96zM1806 1497h523l-9 -51q-104 -10 -165 -63.5t-130 -188.5l-620 -1214h-37l-190 1130l-590 -1130h-39l-215 1312q-13 90 -50.5 120.5t-131.5 33.5l8 51h692
l-8 -51q-146 -9 -198 -38t-52 -91q0 -26 10 -84l129 -827l580 1112h37l186 -1127l358 721q7 14 23 46.5t21.5 44.5t17 36.5t15.5 36t10 28t8 28t2 22.5q0 46 -44 66.5t-149 25.5z" />
    <glyph glyph-name="wacute" unicode="&#x1e83;" horiz-adv-x="1644" 
d="M1145 1411q-75 -49 -397 -168l-21 33q209 231 303 305q33 23 66 23q41 0 72.5 -31t31.5 -70q0 -59 -55 -92zM1507 1108q52 0 83.5 -47t31.5 -125q0 -87 -47.5 -205t-130 -248t-174 -252.5t-199.5 -250.5h-37l-133 587q-147 -260 -424 -587h-37l-231 948q-8 35 -29 35
q-42 0 -117 -226l-34 19q55 184 116 268t146 84q57 0 97.5 -36.5t57.5 -104.5l166 -703q177 243 262 416l-92 407h248l178 -823q135 191 211 324v495q32 25 88 25z" />
    <glyph glyph-name="Wdieresis" unicode="&#x1e84;" horiz-adv-x="2150" 
d="M1167 1651q-50 0 -81 30.5t-31 79.5q0 52 38 90.5t91 38.5q49 0 79.5 -31t30.5 -79q0 -54 -36.5 -91.5t-90.5 -37.5zM1536 1651q-50 0 -81.5 30.5t-31.5 79.5q0 52 38 90.5t91 38.5q49 0 80 -31t31 -79q0 -54 -36.5 -91.5t-90.5 -37.5zM1806 1497h523l-9 -51
q-104 -10 -165 -63.5t-130 -188.5l-620 -1214h-37l-190 1130l-590 -1130h-39l-215 1312q-13 90 -50.5 120.5t-131.5 33.5l8 51h692l-8 -51q-146 -9 -198 -38t-52 -91q0 -26 10 -84l129 -827l580 1112h37l186 -1127l358 721q7 14 23 46.5t21.5 44.5t17 36.5t15.5 36t10 28
t8 28t2 22.5q0 46 -44 66.5t-149 25.5z" />
    <glyph glyph-name="wdieresis" unicode="&#x1e85;" horiz-adv-x="1644" 
d="M797 1339q-50 0 -81.5 31.5t-31.5 79.5q0 53 37.5 92t89.5 39q50 0 81.5 -31.5t31.5 -79.5q0 -54 -37.5 -92.5t-89.5 -38.5zM1165 1339q-50 0 -81 31.5t-31 79.5q0 53 37.5 92t89.5 39q50 0 81 -31.5t31 -79.5q0 -54 -37.5 -92.5t-89.5 -38.5zM1507 1108q52 0 83.5 -47
t31.5 -125q0 -87 -47.5 -205t-130 -248t-174 -252.5t-199.5 -250.5h-37l-133 587q-147 -260 -424 -587h-37l-231 948q-8 35 -29 35q-42 0 -117 -226l-34 19q55 184 116 268t146 84q57 0 97.5 -36.5t57.5 -104.5l166 -703q177 243 262 416l-92 407h248l178 -823
q135 191 211 324v495q32 25 88 25z" />
    <glyph glyph-name="uni1E9E" unicode="&#x1e9e;" horiz-adv-x="1540" 
d="M1440 1372v-6l-305 -405q65 -67 111 -121.5t91.5 -125t69 -145t23.5 -151.5q0 -188 -127.5 -313t-317.5 -125q-82 0 -147 32.5t-99 87.5l37 47q28 -34 76 -54.5t102 -20.5q87 0 155.5 70t68.5 188q0 98 -60 203.5t-198 281.5l360 488q-46 63 -122.5 100t-160.5 37
q-167 0 -288.5 -115.5t-155.5 -306.5l-139 -797q-6 -37 -6 -61q0 -58 37 -81t133 -28l-11 -51h-624l8 51q117 6 161.5 40t61.5 130l127 715q46 263 242 422.5t469 159.5q117 0 235 -40t193 -106z" />
    <glyph glyph-name="Ygrave" unicode="&#x1ef2;" horiz-adv-x="1433" 
d="M770 1710q-65 30 -65 96q0 42 28.5 72.5t73.5 30.5q23 0 49 -13q81 -38 350 -254l-16 -36q-337 66 -420 104zM1042 1497h576l-10 -51q-54 -6 -99 -21.5t-97.5 -50t-109 -96.5t-120.5 -154l-328 -475l-72 -407q-6 -44 -6 -68q0 -66 43 -92t154 -31l-8 -51h-684l10 51
q134 6 184.5 44.5t69.5 146.5l73 411l-212 588q-39 113 -87 155t-129 50l11 51h688l-8 -51q-125 -6 -174.5 -30.5t-49.5 -76.5q0 -37 35 -147l148 -438l247 358q73 105 105.5 162.5t32.5 93.5q0 38 -45 56.5t-148 21.5z" />
    <glyph glyph-name="ygrave" unicode="&#x1ef3;" horiz-adv-x="1230" 
d="M791 1178q-250 209 -316 295q-24 27 -24 71q0 37 30.5 67.5t69.5 30.5q58 0 90 -49q57 -83 182 -391zM956 1087h226l-101 -561l-10 -55q-40 -215 -119.5 -386t-186.5 -283.5t-238.5 -172t-278.5 -59.5q-74 0 -118 33.5t-44 87.5q0 31 14 59l512 2q108 85 164 238.5
t78 412.5l33 246q-68 -161 -139 -284t-131.5 -194.5t-121.5 -116t-106.5 -59.5t-89.5 -15q-69 0 -109 37.5t-40 109.5q0 26 4 51l125 721q2 18 2 35q0 20 -7 27.5t-22 7.5q-27 0 -65.5 -60.5t-82.5 -171.5l-36 19q54 168 134.5 260t172.5 92q65 0 102 -31t37 -96
q0 -13 -4 -49l-125 -703q-2 -18 -2 -30q0 -56 51 -56q28 0 63 24t82.5 82t100 145.5t117 225.5t131.5 310z" />
    <glyph glyph-name="endash" unicode="&#x2013;" horiz-adv-x="1327" 
d="M137 549l39 106h1034l-41 -106h-1032z" />
    <glyph glyph-name="emdash" unicode="&#x2014;" horiz-adv-x="1765" 
d="M137 549l39 106h1475l-41 -106h-1473z" />
    <glyph glyph-name="quoteleft" unicode="&#x2018;" horiz-adv-x="532" 
d="M575 1638l17 -45q-86 -46 -140.5 -111.5t-54.5 -129.5q0 -48 35 -80.5t94 -36.5q21 -35 21 -74q0 -78 -56.5 -137t-130.5 -59t-117.5 50t-43.5 134q0 141 107 280.5t269 208.5z" />
    <glyph glyph-name="quoteright" unicode="&#x2019;" horiz-adv-x="530" 
d="M227 965l-16 45q84 46 139.5 112t55.5 129q0 48 -35.5 80.5t-94.5 36.5q-20 33 -20 74q0 78 55.5 137t130.5 59t117.5 -49.5t42.5 -134.5q0 -142 -106.5 -281t-268.5 -208z" />
    <glyph glyph-name="quotesinglbase" unicode="&#x201a;" horiz-adv-x="552" 
d="M18 -365l-16 48q84 44 139.5 110.5t55.5 130.5q0 48 -35 80.5t-94 36.5q-21 30 -21 74q0 78 56 137t130 59t117 -50t43 -134q0 -141 -106.5 -281.5t-268.5 -210.5z" />
    <glyph glyph-name="quotedblleft" unicode="&#x201c;" horiz-adv-x="956" 
d="M575 1638l17 -45q-86 -46 -140.5 -111.5t-54.5 -129.5q0 -48 35 -80.5t94 -36.5q21 -35 21 -74q0 -78 -56.5 -137t-130.5 -59t-117.5 50t-43.5 134q0 141 107 280.5t269 208.5zM999 1638l17 -45q-86 -46 -141.5 -111.5t-55.5 -129.5q0 -48 35 -80.5t94 -36.5
q21 -35 21 -74q0 -78 -55.5 -137t-129.5 -59q-76 0 -118.5 50t-42.5 134q0 141 107 280.5t269 208.5z" />
    <glyph glyph-name="quotedblright" unicode="&#x201d;" horiz-adv-x="954" 
d="M227 965l-16 45q84 46 139.5 112t55.5 129q0 48 -35.5 80.5t-94.5 36.5q-20 33 -20 74q0 78 55.5 137t130.5 59t117.5 -49.5t42.5 -134.5q0 -142 -106.5 -281t-268.5 -208zM649 965l-16 45q85 45 140.5 111.5t55.5 129.5q0 48 -35 80.5t-94 36.5q-20 33 -20 74
q0 78 55.5 137t128.5 59q76 0 119 -49.5t43 -134.5q0 -141 -107.5 -280.5t-269.5 -208.5z" />
    <glyph glyph-name="quotedblbase" unicode="&#x201e;" horiz-adv-x="976" 
d="M18 -365l-16 48q84 44 139.5 110.5t55.5 130.5q0 48 -35 80.5t-94 36.5q-21 30 -21 74q0 78 56 137t130 59t117 -50t43 -134q0 -141 -106.5 -281.5t-268.5 -210.5zM440 -365l-16 48q86 44 141.5 110.5t55.5 130.5q0 48 -35 80.5t-94 36.5q-21 30 -21 74q0 78 55.5 137
t128.5 59q76 0 119 -50t43 -134q0 -141 -107 -281.5t-270 -210.5z" />
    <glyph glyph-name="dagger" unicode="&#x2020;" horiz-adv-x="1028" 
d="M1012 1272q30 0 48.5 -19t18.5 -49q0 -40 -29 -70t-69 -30q-71 0 -336 59q-16 -177 -41 -430q-1 -83 -8 -142t-16.5 -90t-25.5 -47.5t-28.5 -20t-31.5 -3.5q-31 0 -50.5 20.5t-19.5 51.5q0 17 9 58.5t28 110.5t38.5 137t49.5 173t51 182q-287 -59 -356 -59
q-31 0 -50.5 19t-19.5 48q0 40 30 70.5t68 30.5q77 0 334 -58q-3 268 0 316q1 52 30 80t71 28q31 0 50 -18t19 -47q0 -65 -119 -359q279 58 355 58z" />
    <glyph glyph-name="daggerdbl" unicode="&#x2021;" horiz-adv-x="1099" 
d="M1049 1272q30 0 48.5 -19t18.5 -49q0 -40 -29 -70t-69 -30q-68 0 -359 63q-307 -63 -378 -63q-31 0 -50.5 19t-19.5 48q0 40 30 70.5t70 30.5q75 0 332 -58q-6 219 0 314q3 55 30.5 82.5t69.5 27.5q32 0 52 -18t20 -47q0 -60 -121 -359q279 58 355 58zM993 965
q32 0 51 -19t19 -49q0 -40 -30 -70t-68 -30q-67 0 -334 57q1 -41 2 -106t1 -92.5t-0.5 -60.5t-2.5 -54q-1 -53 -30 -82t-71 -29q-30 0 -49.5 19t-19.5 49q0 32 37 140t82 216q-287 -57 -355 -57q-30 0 -48.5 18.5t-18.5 48.5q0 40 29.5 70.5t68.5 30.5q80 0 358 -64
q297 64 379 64z" />
    <glyph glyph-name="bullet" unicode="&#x2022;" horiz-adv-x="862" 
d="M426 330q-118 0 -190 69.5t-72 180.5q0 117 85.5 201.5t205.5 84.5q119 0 191.5 -69.5t72.5 -180.5q0 -117 -87 -201.5t-206 -84.5z" />
    <glyph glyph-name="ellipsis" unicode="&#x2026;" horiz-adv-x="1638" 
d="M215 -20q-75 0 -121.5 43t-46.5 112q0 72 53 124t127 52q76 0 122 -43.5t46 -113.5q0 -71 -53.5 -122.5t-126.5 -51.5zM760 -20q-76 0 -122 43t-46 112q0 72 53 124t127 52q76 0 122 -43.5t46 -113.5q0 -71 -53.5 -122.5t-126.5 -51.5zM1305 -20q-76 0 -122 43t-46 112
q0 72 53 124t127 52q75 0 121.5 -44t46.5 -113q0 -71 -53.5 -122.5t-126.5 -51.5z" />
    <glyph glyph-name="perthousand" unicode="&#x2030;" horiz-adv-x="2557" 
d="M264 -59l-49 51l1440 1567l49 -54zM440 645q-119 0 -186.5 83.5t-67.5 227.5q0 148 55 275.5t148.5 202.5t202.5 75q119 0 186.5 -83.5t67.5 -227.5q0 -148 -55 -275.5t-148.5 -202.5t-202.5 -75zM449 696q49 0 102 93.5t87 231t34 259.5q0 83 -23 130.5t-67 47.5
q-48 0 -100.5 -93.5t-87 -231.5t-34.5 -261q0 -84 23 -130t66 -46zM1290 -12q-120 0 -188 84t-68 229q0 147 55.5 274t149.5 202t203 75q118 0 186 -84t68 -227q0 -148 -55.5 -275.5t-149 -202.5t-201.5 -75zM2066 -12q-118 0 -186 84t-68 229q0 147 55 274t149.5 202
t203.5 75q118 0 186 -84t68 -227q0 -148 -55.5 -275.5t-149.5 -202.5t-203 -75zM1298 39q49 0 102 94t87.5 232t34.5 260q0 83 -23 129.5t-67 46.5q-48 0 -101 -93t-88 -231t-35 -262q0 -83 23.5 -129.5t66.5 -46.5zM2075 39q49 0 102.5 93.5t88 232t34.5 260.5
q0 82 -23.5 129t-66.5 47q-49 0 -102 -93t-87 -231t-34 -262q0 -83 23.5 -129.5t64.5 -46.5z" />
    <glyph glyph-name="guilsinglleft" unicode="&#x2039;" horiz-adv-x="565" 
d="M541 1016l-265 -416l117 -416l-41 -22l-254 418l8 41l400 417z" />
    <glyph glyph-name="guilsinglright" unicode="&#x203a;" horiz-adv-x="563" 
d="M233 1038l252 -417l-6 -41l-399 -418l-35 22l264 416l-116 416z" />
    <glyph glyph-name="fraction" unicode="&#x2044;" horiz-adv-x="225" 
d="M-545 -59l-49 51l1440 1567l49 -54z" />
    <glyph glyph-name="Euro" unicode="&#x20ac;" horiz-adv-x="1384" 
d="M1364 1507h27l-93 -526h-49q13 76 13 135q0 146 -65 231t-181 85q-132 0 -252 -141.5t-189 -366.5h461l-24 -74h-457q-20 -89 -31 -166h430l-24 -74h-414q-4 -78 -4 -114q0 -201 69.5 -315.5t194.5 -114.5q147 0 260 129.5t150 341.5h49l-96 -547h-27q-9 37 -21.5 50
t-33.5 13q-31 0 -81.5 -18.5t-115 -36.5t-127.5 -18q-224 0 -351.5 151.5t-127.5 409.5q0 46 2 69h-164l25 74h145q9 81 31 166h-158l23 74h157q88 265 275 429.5t414 164.5q63 0 119 -18t97 -36t66 -18q20 0 37 13t41 48z" />
    <glyph glyph-name="uni20BF" unicode="&#x20bf;" horiz-adv-x="1415" 
d="M1006 778q141 -28 220 -109t79 -198q0 -125 -74 -233t-200.5 -172t-274.5 -66l-37 -205h-76l37 205h-178l-37 -205h-76l37 205h-428l10 51q117 6 161.5 40t61.5 130l187 1055q6 38 6 61q0 58 -37 81t-133 28l8 51h428l31 172h76l-31 -172h162h16l31 172h76l-33 -178
q151 -19 237 -99t86 -204q0 -141 -91.5 -251.5t-243.5 -158.5zM1079 1186q0 106 -63 167.5t-178 61.5h-158l-107 -606h158q151 0 249.5 107t98.5 270zM678 82q149 0 257.5 117.5t108.5 277.5q0 115 -73.5 182.5t-202.5 67.5h-209l-92 -526q-6 -37 -6 -58q0 -35 17.5 -48
t60.5 -13h139z" />
    <glyph glyph-name="trademark" unicode="&#x2122;" horiz-adv-x="1984" 
d="M848 1516l78 -273l-31 -10q-49 137 -94 178t-133 41h-11v-534q0 -45 21 -61.5t84 -22.5v-29h-391v29q62 6 82 22.5t20 61.5v534h-10q-59 0 -93.5 -15t-66.5 -62t-67 -142l-31 10l80 273h2q77 -19 213 -19h131q140 0 215 19h2zM1843 915q3 -42 20.5 -58.5t75.5 -22.5v-29
h-387v29q66 6 87 23t18 61l-37 434l-244 -557h-20l-242 555l-41 -414q-6 -55 14.5 -75.5t88.5 -26.5v-29h-254v29q57 6 76 23t24 58l47 474q3 42 -14.5 57.5t-75.5 21.5v29h270l191 -440l192 440h252v-29q-56 -6 -72.5 -22t-11.5 -57z" />
    <glyph glyph-name="oneeighth" unicode="&#x215b;" horiz-adv-x="1572" 
d="M1450 1559l49 -54l-1440 -1564l-49 51zM549 688l-6 -31h-404l6 31q72 6 99.5 27.5t36.5 77.5l81 456q5 23 5 37q0 37 -37 37q-20 0 -76 -16l-6 30q171 85 327 183h3l-129 -727q-3 -27 -3 -33q0 -37 22 -52t81 -20zM1473 690q0 -71 -56.5 -128.5t-142.5 -86.5
q36 -21 61 -39.5t49.5 -43.5t37 -55.5t12.5 -66.5q0 -120 -100.5 -201t-248.5 -81q-118 0 -187 49t-69 131q0 78 63 137t155 90q-113 80 -113 191q0 115 86.5 190.5t218.5 75.5q106 0 170 -44.5t64 -117.5zM1227 502q52 38 85.5 92t33.5 106q0 46 -30.5 73.5t-84.5 27.5
q-63 0 -105.5 -35t-42.5 -94q0 -54 36.5 -91t107.5 -79zM1096 39q76 0 127 42t51 105q0 36 -23.5 67.5t-50.5 49.5t-76 45l-32 19q-56 -41 -95 -97t-39 -112q0 -54 37.5 -86.5t100.5 -32.5z" />
    <glyph glyph-name="threeeighths" unicode="&#x215c;" horiz-adv-x="1638" 
d="M1516 1559l49 -54l-1440 -1564l-51 51zM696 973q0 -136 -147 -222.5t-416 -105.5v33q174 20 280.5 80.5t106.5 152.5q0 54 -47.5 84.5t-144.5 44.5v4l264 302h-160q-73 0 -113.5 -24.5t-76.5 -96.5l-29 8l115 285h2q77 -21 366 -21h103l2 -4l-295 -317q90 -27 140 -79.5
t50 -123.5zM1538 690q0 -70 -56 -127t-143 -88q36 -21 61 -39.5t49.5 -43.5t37 -55.5t12.5 -66.5q0 -120 -100.5 -201t-247.5 -81q-118 0 -188 49t-70 131q0 79 62.5 137.5t156.5 89.5q-113 77 -113 191q0 115 86.5 190.5t217.5 75.5q106 0 170.5 -44.5t64.5 -117.5z
M1292 504q50 38 84.5 91.5t34.5 104.5q0 46 -31 73.5t-86 27.5q-62 0 -103.5 -35.5t-41.5 -93.5q0 -54 36.5 -91.5t106.5 -76.5zM1159 39q78 0 129 42t51 105q0 27 -11 50.5t-35 44t-45.5 34t-57.5 33.5q-14 7 -35 21q-56 -42 -94.5 -98.5t-38.5 -112.5q0 -54 37 -86.5
t100 -32.5z" />
    <glyph glyph-name="fiveeighths" unicode="&#x215d;" horiz-adv-x="1615" 
d="M1493 1559l49 -54l-1440 -1564l-51 51zM688 989q0 -153 -151 -241t-414 -103v33q180 20 284.5 82.5t104.5 152.5q0 65 -77 103t-236 57v4l168 420h98q241 0 328 23h2l-70 -177h-358l-52 -116q192 -23 282.5 -80.5t90.5 -157.5zM1516 690q0 -70 -56 -127t-143 -88
q36 -21 61 -39.5t49.5 -43.5t37 -55.5t12.5 -66.5q0 -120 -101 -201t-248 -81q-118 0 -188 49t-70 131q0 79 63 137.5t157 89.5q-113 77 -113 191q0 115 86 190.5t217 75.5q106 0 171 -44.5t65 -117.5zM1270 504q50 38 84.5 91.5t34.5 104.5q0 46 -31 73.5t-86 27.5
q-62 0 -104 -35.5t-42 -93.5q0 -54 37 -91t107 -77zM1137 39q78 0 129 42t51 105q0 36 -23.5 67.5t-50.5 49.5t-76 45q-10 5 -34 21q-57 -43 -95.5 -99t-38.5 -112q0 -54 37.5 -86.5t100.5 -32.5z" />
    <glyph glyph-name="seveneighths" unicode="&#x215e;" horiz-adv-x="1605" 
d="M1473 1559l49 -54l-1440 -1564l-49 51zM408 1343q-76 0 -116 -23.5t-77 -94.5l-29 8l115 285h2q80 -21 369 -21h190l2 -2q-336 -441 -432 -750q-32 -100 -119 -100q-63 0 -63 57q0 58 85.5 185.5t176.5 235t195 220.5h-299zM1495 690q0 -70 -56 -127t-143 -88
q36 -21 61 -39.5t49.5 -43.5t37 -55.5t12.5 -66.5q0 -120 -100 -201t-248 -81q-118 0 -188 49t-70 131q0 78 63.5 137t155.5 90q-113 80 -113 191q0 115 87 190.5t219 75.5q106 0 169.5 -44t63.5 -118zM1249 504q50 38 84.5 91.5t34.5 104.5q0 46 -31 73.5t-86 27.5
q-62 0 -103.5 -35.5t-41.5 -93.5q0 -54 36.5 -91.5t106.5 -76.5zM1118 39q76 0 127 42t51 105q0 27 -11 50.5t-35 44t-45.5 34t-57.5 33.5l-33 19q-56 -40 -94.5 -96.5t-38.5 -112.5q0 -54 36.5 -86.5t100.5 -32.5z" />
    <glyph glyph-name="partialdiff" unicode="&#x2202;" horiz-adv-x="1224" 
d="M463 1638q335 -88 510.5 -301t175.5 -532q0 -239 -82.5 -427t-231 -293t-337.5 -105q-205 0 -323 113t-118 304q0 130 46.5 250.5t124 208t184.5 139.5t223 52q165 0 254 -113q-10 248 -122.5 409t-330.5 246zM512 61q79 0 150.5 69.5t122.5 188t79 269.5q6 46 6 88
q0 130 -52.5 204t-147.5 74q-90 0 -173 -88t-133.5 -230t-50.5 -294q0 -130 53 -205.5t146 -75.5z" />
    <glyph glyph-name="emptyset" unicode="&#x2205;" horiz-adv-x="1478" 
d="M1491 1202l-199 -176q72 -119 72 -281q0 -215 -96 -393.5t-262.5 -281.5t-366.5 -103q-245 0 -379 146l-197 -174l-57 65l201 176q-72 119 -72 283q0 214 96 392t263 281t368 103q240 0 379 -145l199 176zM231 475q0 -128 52 -227l884 780q-112 127 -319 127
q-170 0 -312 -90t-223.5 -246t-81.5 -344zM1268 733q0 131 -51 225l-885 -782q116 -125 321 -125q169 0 310.5 90t223 247t81.5 345z" />
    <glyph glyph-name="product" unicode="&#x220f;" horiz-adv-x="1665" 
d="M1741 1497l-8 -51q-118 -6 -162.5 -39.5t-61.5 -130.5l-260 -1464q-6 -37 -6 -62q0 -58 37.5 -80.5t134.5 -27.5l-10 -52h-627l10 52q117 6 162 40.5t62 129.5l282 1603h-618l-283 -1603q-6 -37 -6 -62q0 -58 37.5 -80.5t134.5 -27.5l-10 -52h-627l10 52q117 6 162 40.5
t62 129.5l260 1464q6 38 6 59q0 58 -37.5 82t-134.5 29l8 51h1483z" />
    <glyph glyph-name="summation" unicode="&#x2211;" horiz-adv-x="1425" 
d="M1300 956q-18 147 -42.5 236t-66.5 139t-93.5 67t-134.5 17h-416l368 -772v-4l-733 -832h590q76 0 127 6t96.5 22t78 46t60.5 76t54 115l51 -11l-145 -481q-212 10 -684 10h-510v7l792 907l-461 989l5 4h438q455 0 637 10l43 -538z" />
    <glyph glyph-name="minus" unicode="&#x2212;" horiz-adv-x="970" 
d="M104 561l15 82h768l-15 -82h-768z" />
    <glyph glyph-name="radical" unicode="&#x221a;" horiz-adv-x="1413" 
d="M1552 1638l66 -34l-1184 -2034h-37l-211 911q-16 62 -32.5 91.5t-50.5 45t-99 17.5l8 51h389l166 -752z" />
    <glyph glyph-name="infinity" unicode="&#x221e;" horiz-adv-x="1763" 
d="M1378 1104q144 0 227 -84.5t83 -226.5q0 -141 -65 -260t-177 -188t-244 -69q-68 0 -123 19t-96.5 56t-70 76.5t-58.5 94.5q-77 -113 -189.5 -179.5t-228.5 -66.5q-144 0 -226.5 84t-82.5 226t64 261t175.5 188t245.5 69q68 0 123 -19.5t96.5 -56.5t70.5 -77t59 -95
q76 114 188 181t229 67zM1309 467q126 0 211.5 85.5t85.5 227.5q0 110 -65.5 177t-176.5 67q-99 0 -197.5 -65t-171.5 -175l13 -26q22 -48 35 -75t35.5 -66t43.5 -61.5t49.5 -45.5t63 -33t74.5 -10zM451 354q94 0 193 65t175 175l-12 27q-27 58 -43 90t-45.5 76t-57 67
t-68.5 40t-89 17q-128 0 -211.5 -87.5t-83.5 -223.5q0 -109 65 -177.5t177 -68.5z" />
    <glyph glyph-name="integral" unicode="&#x222b;" horiz-adv-x="778" 
d="M33 -430q-52 0 -84.5 28t-32.5 74t27 92h342q82 109 82 326q0 73 -13 159t-25.5 141.5t-37.5 150.5q-64 254 -64 381q0 117 48 246t123 232t174 170.5t194 67.5q53 0 86 -27.5t33 -74.5q0 -44 -29 -92h-338q-84 -107 -84 -328q0 -74 12 -159t25 -140.5t37 -150.5
q63 -250 63 -377q0 -117 -47.5 -246.5t-122 -233t-173.5 -171.5t-195 -68z" />
    <glyph glyph-name="approxequal" unicode="&#x2248;" horiz-adv-x="970" 
d="M690 649q-38 0 -79.5 11.5t-67 23.5t-68.5 35q-59 33 -104 50t-95 17q-95 0 -155 -131l-45 13q34 111 118 192.5t181 81.5q35 0 75 -12t61.5 -22.5t68.5 -35.5q44 -23 68 -34.5t64 -23t76 -11.5q96 0 156 131l45 -10q-36 -113 -119 -194t-180 -81zM625 279
q-55 0 -104 18.5t-111 52.5q-122 68 -199 68q-95 0 -156 -131l-45 10q34 112 117.5 193t179.5 81q53 0 99.5 -17.5t107.5 -51.5q42 -22 68 -34t65 -23t76 -11q95 0 156 131l45 -12q-36 -113 -119 -193.5t-180 -80.5z" />
    <glyph glyph-name="notequal" unicode="&#x2260;" horiz-adv-x="970" 
d="M897 709h-272l-154 -213h389l-14 -82h-434l-160 -221h-98l159 221h-233l14 82h279l153 213h-395l14 82h441l159 221h99l-160 -221h229z" />
    <glyph glyph-name="lessequal" unicode="&#x2264;" horiz-adv-x="970" 
d="M944 999l-16 -88l-606 -170l546 -170l-16 -88l-721 224l12 69zM47 236l14 81h768l-14 -81h-768z" />
    <glyph glyph-name="greaterequal" unicode="&#x2265;" horiz-adv-x="970" 
d="M190 999l721 -223l-12 -69l-801 -224l17 88l606 170l-547 170zM49 236l14 81h766l-14 -81h-766z" />
    <glyph glyph-name="lozenge" unicode="&#x25ca;" horiz-adv-x="987" 
d="M373 0l-264 690l507 690h52l264 -690l-510 -690h-49zM418 119l422 571l-219 572l-420 -572z" />
    <glyph glyph-name="uniF8FF" unicode="&#xf8ff;" horiz-adv-x="2541" 
d="M117 -20q-15 0 -25 10.5t-10 25.5q0 21 10 31l701 698h-664q-47 0 -47 39q0 19 14 33l697 701h-670q-41 0 -41 38v3q0 38 41 38h758q47 0 47 -41q0 -17 -17 -34l-698 -697h676q17 0 29 -12t12 -29v-669l694 692q16 16 35 16q37 0 37 -45v-663l696 692q16 16 33 16
q15 0 25 -12t10 -27t-13 -28l-753 -762q-14 -14 -35 -14q-41 0 -41 47v663l-694 -696q-14 -14 -35 -14q-41 0 -41 47v663l-696 -696q-14 -14 -35 -14z" />
    <glyph glyph-name="uni00A40301" horiz-adv-x="745" 
d="M807 1710q-83 -38 -420 -104l-16 36q269 216 350 254q26 13 49 13q45 0 73.5 -30.5t28.5 -72.5q0 -66 -65 -96zM223 1446l10 51h627l-10 -51q-117 -6 -162.5 -40.5t-62.5 -129.5l-154 -879q-38 -219 -183.5 -390.5t-342.5 -231.5l-8 39q116 77 181 189.5t97 293.5
l172 979q6 38 6 61q0 58 -37.5 81t-132.5 28z" />
    <glyph glyph-name="i.loclTRK" horiz-adv-x="653" 
d="M500 1593q59 0 97 -37t38 -94q0 -63 -43.5 -105t-108.5 -42q-60 0 -98.5 36.5t-38.5 94.5q0 63 44 105t110 42zM406 119q56 0 147 231l37 -18q-54 -168 -134.5 -260t-172.5 -92q-65 0 -102.5 32t-37.5 97q0 11 4 47l134 743q4 18 4 35q0 35 -29 35q-56 0 -150 -232
l-34 19q52 167 133 259.5t172 92.5q65 0 103 -31t38 -96q0 -22 -6 -49l-133 -744q-2 -18 -2 -34q0 -20 7 -27.5t22 -7.5z" />
    <glyph glyph-name="uni006A0301" horiz-adv-x="602" 
d="M606 1604q41 0 73 -31t32 -70q0 -58 -56 -92q-75 -49 -397 -168l-20 33q214 236 305 305q29 23 63 23zM383 1108q65 0 102 -31t37 -96q0 -13 -4 -49l-141 -797q-38 -214 -167 -370.5t-300 -194.5l-8 39q96 69 151 172t82 256l152 862q2 18 2 35q0 20 -7 27.5t-22 7.5
q-26 0 -64.5 -60t-82.5 -172l-37 19q54 168 135 260t172 92z" />
    <glyph glyph-name="f_b" horiz-adv-x="1865" 
d="M1571 1108q110 0 172.5 -91.5t62.5 -248.5q0 -213 -83.5 -394t-229 -287.5t-319.5 -106.5q-160 0 -256.5 88.5t-96.5 271.5q0 57 13 133l151 866q9 49 -19.5 65.5t-123.5 16.5h-277q-39 -51 -61 -95t-33 -105q-6 -96 51 -134h254l-39 -106h-231l-152 -846
q-38 -215 -166.5 -371t-300.5 -194l-6 39q96 69 150.5 172t81.5 256l166 944h-158l14 76l162 22q25 96 80.5 192.5t127 173t159.5 125t170 48.5q52 0 84 -28t32 -74q0 -13 -2 -19q173 55 309 137h5l-191 -1079q111 294 227 423.5t273 129.5zM1171 55q107 0 199.5 90
t145.5 238t53 315q0 118 -32 186t-89 68q-98 0 -196 -162.5t-214 -515.5q-10 -52 -10 -77q0 -66 43 -104t100 -38z" />
    <glyph glyph-name="f_h" horiz-adv-x="1929" 
d="M1833 350l35 -18q-52 -168 -133 -260t-174 -92q-63 0 -101.5 32t-38.5 97q0 20 6 47l123 702q4 18 4 31q0 55 -53 55q-36 0 -84.5 -40.5t-111 -127t-142 -245.5t-162.5 -373l-26 -158h-225l235 1339q9 49 -19.5 65.5t-123.5 16.5h-277q-39 -51 -61 -95t-33 -105
q-6 -96 51 -134h254l-39 -106h-231l-152 -846q-38 -215 -166.5 -371t-300.5 -194l-6 39q96 69 150.5 172t81.5 256l166 944h-158l14 76l162 22q25 96 80.5 192.5t127 173t159.5 125t170 48.5q52 0 84 -28t32 -74q0 -13 -2 -19q173 55 309 137h5l-207 -1169q67 155 137 273
t129.5 186.5t120 111.5t105.5 57.5t89 14.5q70 0 111 -37.5t41 -109.5q0 -27 -4 -52l-125 -721q-4 -18 -4 -34q0 -35 28 -35q56 0 150 231z" />
    <glyph glyph-name="f_hbar" horiz-adv-x="1929" 
d="M1833 350l35 -18q-52 -168 -133 -260t-174 -92q-63 0 -101.5 32t-38.5 97q0 20 6 47l123 702q4 18 4 31q0 55 -53 55q-36 0 -84.5 -40.5t-111 -127t-142 -245.5t-162.5 -373l-26 -158h-225l235 1339q9 49 -19.5 65.5t-123.5 16.5h-277q-39 -51 -61 -95t-33 -105
q-6 -96 51 -134h254l-39 -106h-231l-152 -846q-38 -215 -166.5 -371t-300.5 -194l-6 39q96 69 150.5 172t81.5 256l166 944h-158l14 76l162 22q25 96 80.5 192.5t127 173t159.5 125t170 48.5q52 0 84 -28t32 -74q0 -13 -2 -19q173 55 309 137h5l-60 -338h305l-22 -65h-295
l-135 -766q67 155 137 273t129.5 186.5t120 111.5t105.5 57.5t89 14.5q70 0 111 -37.5t41 -109.5q0 -27 -4 -52l-125 -721q-4 -18 -4 -34q0 -35 28 -35q56 0 150 231z" />
    <glyph glyph-name="f_icircumflex" horiz-adv-x="1335" 
d="M770 1087l-39 -106h-225l-152 -846q-38 -215 -166.5 -371t-300.5 -194l-6 47q96 68 151.5 170t80.5 250l166 944h-158l14 76l162 22q31 131 108.5 259t184 214t205.5 86q42 0 68 -26t26 -70q0 -36 -27 -98h-305q-41 -56 -64 -105.5t-34 -115.5q-6 -99 63 -136h248z
M1225 1624l205 -389l-31 -27l-230 217l-307 -217l-20 27l344 389h39zM1087 119q59 0 150 231l35 -18q-52 -167 -133 -259.5t-172 -92.5q-65 0 -102.5 32t-37.5 97q0 11 4 47l134 743q2 18 2 35q0 35 -27 35q-58 0 -149 -232l-37 19q54 168 135 260t172 92q65 0 102 -31
t37 -96q0 -13 -4 -49l-133 -744q-4 -18 -4 -34q0 -35 28 -35z" />
    <glyph glyph-name="f_idieresis" horiz-adv-x="1386" 
d="M459 1223q-6 -99 63 -136h248l-39 -106h-225l-152 -846q-38 -215 -166.5 -371t-300.5 -194l-6 47q96 68 151.5 170t80.5 250l166 944h-158l14 76l162 22q31 131 108.5 259t184 214t205.5 86q42 0 68 -26t26 -70q0 -36 -27 -98h-305q-41 -56 -64 -105.5t-34 -115.5z
M1079 1348q-47 0 -75.5 28t-28.5 74q0 51 34 88t83 37q45 0 73.5 -30t28.5 -75q0 -52 -33.5 -87t-81.5 -35zM1378 1575q45 0 74 -30t29 -75q0 -52 -33.5 -87t-81.5 -35q-47 0 -75.5 28t-28.5 74q0 52 33.5 88.5t82.5 36.5zM1139 119q58 0 149 231l35 -18
q-52 -167 -133 -259.5t-172 -92.5q-64 0 -101.5 32t-37.5 97q0 11 4 47l133 743q2 18 2 35q0 35 -27 35q-58 0 -149 -232l-37 19q54 168 135 260t172 92q65 0 102 -31t37 -96q0 -13 -4 -49l-133 -744q-4 -18 -4 -34q0 -35 29 -35z" />
    <glyph glyph-name="f_igrave" horiz-adv-x="1415" 
d="M1307 1178q-250 209 -316 295q-24 27 -24 71q0 37 30.5 67.5t69.5 30.5q58 0 90 -49q57 -83 182 -391zM459 1223q-6 -99 63 -136h248l-39 -106h-225l-152 -846q-38 -215 -166.5 -371t-300.5 -194l-6 47q96 68 151.5 170t80.5 250l166 944h-158l14 76l162 22
q31 131 108.5 259t184 214t205.5 86q42 0 68 -26t26 -70q0 -36 -27 -98h-305q-41 -56 -64 -105.5t-34 -115.5zM1317 350l37 -18q-54 -168 -135 -260t-172 -92q-65 0 -102.5 32t-37.5 97q0 11 4 47l133 743q5 23 5 35q0 35 -29 35q-56 0 -150 -232l-34 19q52 167 133 259.5
t172 92.5q65 0 102 -31t37 -96q0 -13 -4 -49l-133 -744q-2 -18 -2 -34q0 -20 6.5 -27.5t21.5 -7.5q27 0 65.5 60t82.5 171z" />
    <glyph glyph-name="f_imacron" horiz-adv-x="1335" 
d="M952 1491h494l-29 -84h-850q-41 -46 -64 -89t-36 -104q-4 -42 11 -75.5t44 -51.5h248l-39 -106h-225l-152 -846q-38 -215 -166.5 -371t-300.5 -194l-6 39q96 69 150.5 172t81.5 256l166 944h-158l14 76l164 22q33 126 116 246.5t197.5 199.5t223.5 79q51 0 83.5 -28.5
t32.5 -74.5v-10zM1087 119q59 0 150 231l35 -18q-52 -167 -133 -259.5t-172 -92.5q-65 0 -102.5 32t-37.5 97q0 11 4 47l134 743q2 18 2 35q0 35 -27 35q-58 0 -149 -232l-37 19q54 168 135 260t172 92q65 0 102 -31t37 -96q0 -13 -4 -49l-133 -744q-4 -18 -4 -34
q0 -35 28 -35z" />
    <glyph glyph-name="f_iogonek" horiz-adv-x="1335" 
d="M731 981h-225l-152 -846q-38 -215 -166.5 -371t-300.5 -194l-6 47q96 68 151.5 170t80.5 250l166 944h-158l14 76l162 22q31 131 108.5 259t184 214t205.5 86q42 0 68 -26t26 -70q0 -36 -27 -98h-305q-41 -56 -64 -105.5t-34 -115.5q-6 -99 63 -136h248zM1182 1593
q60 0 98.5 -37t38.5 -94q0 -63 -44 -105t-110 -42q-59 0 -98 36.5t-39 94.5q0 63 44.5 105t109.5 42zM1087 119q59 0 150 231l35 -18q-71 -227 -189 -312q-79 -70 -131.5 -151.5t-52.5 -136.5q0 -29 18.5 -47.5t47.5 -18.5q72 0 141 55l10 -43q-47 -40 -116 -69t-140 -29
q-64 0 -102.5 31t-38.5 82q0 59 63 135t176 152q-61 2 -96 33.5t-35 95.5q0 11 4 47l134 743q2 18 2 35q0 35 -27 35q-58 0 -149 -232l-37 19q54 168 135 260t172 92q65 0 102 -31t37 -96q0 -13 -4 -49l-133 -744q-4 -18 -4 -34q0 -35 28 -35z" />
    <glyph glyph-name="f_j" horiz-adv-x="1269" 
d="M731 981h-225l-152 -846q-38 -215 -166.5 -371t-300.5 -194l-6 47q96 68 151.5 170t80.5 250l166 944h-158l14 76l162 22q31 131 108.5 259t184 214t205.5 86q42 0 68 -26t26 -70q0 -36 -27 -98h-305q-41 -56 -64 -105.5t-34 -115.5q-6 -99 63 -136h248zM1171 1593
q60 0 99 -37t39 -94q0 -63 -44 -105t-110 -42q-59 0 -98 36.5t-39 94.5q0 63 44 105t109 42zM1051 1108q65 0 102 -31t37 -96q0 -13 -4 -49l-142 -797q-38 -215 -166.5 -371t-299.5 -194l-9 39q96 69 151.5 172.5t82.5 255.5l151 862q2 18 2 35q0 20 -6.5 27.5t-21.5 7.5
q-27 0 -65.5 -60.5t-82.5 -171.5l-37 19q54 167 135.5 259.5t172.5 92.5z" />
    <glyph glyph-name="f_k" horiz-adv-x="1886" 
d="M1808 338l37 -16q-37 -173 -111 -257.5t-173 -84.5q-60 0 -105 28t-80 94l-270 437l131 28q144 43 226.5 116.5t82.5 160.5q0 58 -39 93.5t-102 35.5q-69 0 -147 -50.5t-146 -146.5l-137 -776h-227l237 1339q9 49 -19.5 65.5t-123.5 16.5h-277q-39 -51 -61 -95t-33 -105
q-6 -96 51 -134h254l-39 -106h-231l-152 -846q-38 -215 -166.5 -371t-300.5 -194l-6 39q96 69 150.5 172t81.5 256l166 944h-158l14 76l162 22q25 96 80.5 192.5t127 173t159.5 125t170 48.5q52 0 84 -28t32 -74q0 -13 -2 -19q185 62 309 137h5l-134 -755
q86 108 195.5 168.5t216.5 60.5q109 0 175.5 -55t66.5 -144q0 -105 -108 -200.5t-294 -153.5l199 -324q29 -48 50.5 -69t43.5 -21q40 0 72 46.5t63 150.5z" />
    <glyph glyph-name="uni00660137" horiz-adv-x="1886" 
d="M1808 338l37 -16q-37 -173 -111 -257.5t-173 -84.5q-60 0 -105 28t-80 94l-270 437l131 28q144 43 226.5 116.5t82.5 160.5q0 58 -39 93.5t-102 35.5q-69 0 -147 -50.5t-146 -146.5l-137 -776h-227l237 1339q9 49 -19.5 65.5t-123.5 16.5h-277q-39 -51 -61 -95t-33 -105
q-6 -96 51 -134h254l-39 -106h-231l-152 -846q-38 -215 -166.5 -371t-300.5 -194l-6 39q96 69 150.5 172t81.5 256l166 944h-158l14 76l162 22q25 96 80.5 192.5t127 173t159.5 125t170 48.5q52 0 84 -28t32 -74q0 -13 -2 -19q185 62 309 137h5l-134 -755
q86 108 195.5 168.5t216.5 60.5q109 0 175.5 -55t66.5 -144q0 -105 -108 -200.5t-294 -153.5l199 -324q29 -48 50.5 -69t43.5 -21q40 0 72 46.5t63 150.5zM1176 -59q55 0 88.5 -32.5t33.5 -86.5q0 -87 -76 -156t-190 -96l-8 41q54 18 90.5 49t36.5 64q0 29 -29 46t-80 19
q-6 24 -6 35q0 47 41.5 82t98.5 35z" />
    <glyph glyph-name="f_lacute" horiz-adv-x="1284" 
d="M1362 1978q44 0 73 -30t29 -72q0 -66 -65 -96q-86 -40 -420 -105l-16 37q273 219 350 254q24 12 49 12zM1262 1634l-254 -1446q-4 -18 -4 -34q0 -35 28 -35q56 0 150 231l35 -18q-52 -167 -133 -259.5t-173 -92.5q-65 0 -103 32t-38 97q0 20 6 47l209 1183
q9 49 -19.5 65.5t-123.5 16.5h-277q-39 -51 -61 -95t-33 -105q-6 -96 51 -134h254l-39 -106h-231l-152 -846q-38 -215 -166.5 -371t-300.5 -194l-6 39q96 69 150.5 172t81.5 256l166 944h-158l14 76l162 22q25 96 80.5 192.5t127 173t159.5 125t170 48.5q52 0 84 -28t32 -74
q0 -13 -2 -19q185 62 309 137h5z" />
    <glyph glyph-name="f_lcaron" horiz-adv-x="1304" 
d="M1477 1638q57 0 89.5 -36.5t32.5 -98.5q0 -96 -75 -192t-191 -148l-16 45q60 32 98.5 79.5t38.5 88.5q0 34 -26.5 58t-73.5 28q-15 30 -15 49q0 52 40.5 89.5t97.5 37.5zM1262 1634l-254 -1446q-4 -18 -4 -34q0 -35 28 -35q56 0 150 231l35 -18q-52 -167 -133 -259.5
t-173 -92.5q-65 0 -103 32t-38 97q0 20 6 47l209 1183q9 49 -19.5 65.5t-123.5 16.5h-277q-39 -51 -61 -95t-33 -105q-6 -96 51 -134h254l-39 -106h-231l-152 -846q-38 -215 -166.5 -371t-300.5 -194l-6 39q96 69 150.5 172t81.5 256l166 944h-158l14 76l162 22
q25 96 80.5 192.5t127 173t159.5 125t170 48.5q52 0 84 -28t32 -74q0 -13 -2 -19q185 62 309 137h5z" />
    <glyph glyph-name="uni0066013C" horiz-adv-x="1284" 
d="M1032 119q56 0 150 231l35 -18q-52 -167 -133 -259.5t-173 -92.5q-65 0 -103 32t-38 97q0 20 6 47l209 1183q9 49 -19.5 65.5t-123.5 16.5h-277q-39 -51 -61 -95t-33 -105q-6 -96 51 -134h254l-39 -106h-231l-152 -846q-38 -215 -166.5 -371t-300.5 -194l-6 39
q96 69 150.5 172t81.5 256l166 944h-158l14 76l162 22q25 96 80.5 192.5t127 173t159.5 125t170 48.5q52 0 84 -28t32 -74q0 -13 -2 -19q185 62 309 137h5l-254 -1446q-4 -18 -4 -34q0 -35 28 -35zM838 -59q57 0 90 -32.5t33 -86.5q0 -87 -76.5 -156t-190.5 -96l-6 41
q54 18 90.5 49t36.5 64q0 29 -29 46t-79 19q-9 18 -9 35q0 47 42 82t98 35z" />
    <glyph glyph-name="f_lslash" horiz-adv-x="1243" 
d="M1008 119q56 0 147 231l37 -18q-54 -168 -135 -260t-172 -92q-65 0 -102.5 32t-37.5 97q0 2 5 47l100 561l-119 -74l-33 66l168 102l95 528q8 50 -20.5 66t-123.5 16h-278q-40 -52 -61.5 -95.5t-31.5 -104.5q-3 -45 11 -80.5t41 -53.5h254l-39 -106h-234l-149 -846
q-38 -214 -167 -370.5t-300 -194.5l-8 39q96 69 151 172t82 256l164 944h-158l15 76l161 22q25 96 80.5 192.5t127 173t159.5 125t170 48.5q53 0 86 -28t33 -74q0 -13 -2 -19q182 62 309 137h4l-123 -692l158 96l31 -63l-205 -127l-117 -660q-2 -18 -2 -34q0 -20 7 -27.5
t22 -7.5z" />
    <glyph glyph-name="f_thorn" horiz-adv-x="1869" 
d="M1573 1108q108 0 170.5 -91.5t62.5 -248.5q0 -213 -77.5 -394t-213 -287.5t-298.5 -106.5q-136 0 -232 73l-43 -248q-9 -50 19 -65.5t124 -15.5l-8 -48q-221 -34 -397 -100h-4l311 1763q8 50 -20 66t-123 16h-279q-39 -51 -61 -95t-33 -105q-6 -96 51 -134h254l-39 -106
h-231l-152 -846q-38 -215 -166.5 -371t-300.5 -194l-6 39q96 69 150.5 172t81.5 256l166 944h-158l14 76l162 22q25 96 80.5 192.5t127 173t159.5 125t170 48.5q52 0 84 -28t32 -74q0 -13 -2 -19q173 55 312 137h4l-189 -1067q111 288 226.5 414.5t271.5 126.5zM1192 55
q102 0 189.5 90t137.5 238t50 315q0 118 -32 186t-89 68q-103 0 -207 -183t-229 -581q20 -63 69 -98t111 -35z" />
    <glyph glyph-name="zero.osf" horiz-adv-x="1247" 
d="M524 -20q-203 0 -318.5 117.5t-115.5 316.5q0 143 49.5 272t134 221.5t202.5 146.5t249 54q202 0 317 -117t115 -317q0 -144 -49 -272.5t-133.5 -221t-202 -146.5t-248.5 -54zM539 47q96 0 185 100t142.5 261t53.5 331q0 139 -55 220t-152 81t-187 -100t-144 -260.5
t-54 -329.5q0 -140 56 -221.5t155 -81.5z" />
    <glyph glyph-name="one.osf" horiz-adv-x="686" 
d="M422 150q0 -56 37 -76t137 -23l-8 -51h-617l11 51q121 3 163.5 34.5t59.5 129.5l88 500q8 44 8 76q0 35 -13 52t-46 17q-38 0 -123 -31l-8 50q290 139 475 249h4l-160 -913q-8 -39 -8 -65z" />
    <glyph glyph-name="two.osf" horiz-adv-x="1216" 
d="M1059 406l43 -9l-123 -407q-188 10 -594 10h-418v6q90 69 295 207q70 46 115.5 76.5t106 74.5t99 77.5t80.5 76.5t66 80t39.5 79.5t15.5 84.5q0 72 -47.5 115t-130.5 43q-103 0 -208.5 -72t-174.5 -180l-33 18q95 182 255 302t315 120q131 0 206.5 -69.5t75.5 -184.5
q0 -55 -17.5 -107.5t-43 -94.5t-73 -88t-88.5 -78.5t-110.5 -76t-118 -71t-130.5 -72.5l-137 -73h360q172 0 247.5 43t127.5 170z" />
    <glyph glyph-name="three.osf" horiz-adv-x="1028" 
d="M573 500q157 -15 252 -100.5t95 -217.5q0 -160 -120 -292t-339.5 -215.5t-505.5 -104.5l4 47q319 38 515 180t196 336q0 105 -71 167t-196 62q-81 0 -167 -36l-3 57q91 42 167 88.5t143.5 103.5t106 124t38.5 135t-47.5 108.5t-126.5 40.5q-86 0 -187 -58t-177 -149
l-27 25q103 142 248 229.5t284 87.5q125 0 199 -60.5t74 -160.5q0 -119 -98.5 -223t-256.5 -174z" />
    <glyph glyph-name="four.osf" horiz-adv-x="1255" 
d="M1141 82l-29 -82h-291l-69 -397l-228 -29h-4l76 426h-655v6l933 1081h140l-180 -1015q173 0 303 10h4zM80 72h528l137 772z" />
    <glyph glyph-name="five.osf" horiz-adv-x="1220" 
d="M1051 889h-639l-123 -289q340 -36 504.5 -136.5t164.5 -279.5q0 -173 -117 -305.5t-336.5 -212t-518.5 -96.5v47q339 35 537 160t198 307q0 132 -146 206t-444 107l-2 6l285 684h147q246 0 371 8t213 33h4z" />
    <glyph glyph-name="six.osf" horiz-adv-x="1263" 
d="M752 874q164 0 264 -93t100 -249q0 -154 -78.5 -281t-215.5 -199t-304 -72q-194 0 -304 122t-110 330q0 193 91.5 382t250.5 344.5t373 280t459 199.5l8 -39q-139 -58 -267.5 -140.5t-243.5 -186.5t-208 -234t-149 -272q72 50 159.5 79t174.5 29zM530 47q87 0 168 74.5
t130 193.5t49 244q0 108 -51.5 172t-139.5 64q-78 0 -161 -38t-142 -100q-43 -142 -43 -303q0 -141 50 -224t140 -83z" />
    <glyph glyph-name="seven.osf" horiz-adv-x="1226" 
d="M1219 1087l2 -4q-300 -384 -499 -719.5t-304 -656.5q-47 -137 -160 -137q-45 0 -67.5 21t-22.5 59q0 80 88 240.5t225.5 348.5t266.5 350t249 300h-499q-147 0 -220 -47.5t-147 -194.5l-43 15l199 460h2q72 -21 206.5 -28t376.5 -7h347z" />
    <glyph glyph-name="eight.osf" horiz-adv-x="1294" 
d="M836 834q52 -32 87 -56t76.5 -60.5t66 -71t41.5 -81t17 -98.5q0 -135 -76.5 -247t-212 -176t-300.5 -64q-200 0 -317.5 86t-117.5 231q0 77 34.5 147.5t93.5 124t129 93.5t149 67q-98 66 -152.5 145t-54.5 189q0 198 143.5 326.5t362.5 128.5q179 0 283 -76.5t104 -206.5
q0 -132 -101.5 -239.5t-254.5 -161.5zM791 1436q-123 0 -205 -70.5t-82 -183.5q0 -41 15 -79t37.5 -67t59.5 -60t70.5 -53.5t81.5 -50.5q98 55 176 161.5t78 209.5q0 89 -62 141t-169 52zM549 61q155 0 257.5 82t102.5 207q0 40 -16 77t-38 64.5t-62.5 58t-72 50.5t-83.5 49
l-64 37q-128 -74 -212.5 -180t-84.5 -217q0 -103 74 -165.5t199 -62.5z" />
    <glyph glyph-name="nine.osf" horiz-adv-x="1181" 
d="M668 1108q197 0 309.5 -122.5t112.5 -330.5q0 -219 -117 -433t-327 -385t-478 -267l-8 41q214 114 378 308.5t244 424.5q-71 -51 -160 -81t-178 -30q-166 0 -266 91.5t-100 244.5q0 149 77.5 273t213 195t299.5 71zM815 453q37 133 37 276q0 146 -52 228.5t-145 82.5
q-84 0 -162.5 -72t-126 -187.5t-47.5 -237.5q0 -104 51.5 -166t141.5 -62q77 0 160 37.5t143 100.5z" />
    <glyph glyph-name="zero.dnom" horiz-adv-x="806" 
d="M307 -12q-120 0 -188 84t-68 229q0 147 55 274t149.5 202t203.5 75q118 0 186 -84t68 -227q0 -148 -55.5 -275.5t-149 -202.5t-201.5 -75zM315 39q49 0 102 94t87.5 232t34.5 260q0 83 -23 129.5t-67 46.5q-48 0 -101 -93t-88 -231t-35 -262q0 -83 23.5 -129.5
t66.5 -46.5z" />
    <glyph glyph-name="one.dnom" horiz-adv-x="530" 
d="M281 102q0 -36 22.5 -51t81.5 -18l-6 -33h-404l7 33q72 6 99 26.5t36 77.5l82 457q4 36 4 37q0 19 -8.5 27t-28.5 8q-26 0 -76 -17l-8 31q182 89 330 182h2l-129 -725q-4 -18 -4 -35z" />
    <glyph glyph-name="two.dnom" horiz-adv-x="763" 
d="M377 154q109 0 157.5 26.5t79.5 102.5l31 -7l-86 -282q-114 6 -399 6h-211l-2 4q72 69 178 158q54 45 83 70.5t74 67t69.5 72t50.5 69t37.5 75.5t11.5 74q0 53 -29.5 84t-81.5 31q-61 0 -120 -39t-101 -105l-25 17q68 125 169.5 199.5t197.5 74.5q85 0 134.5 -45.5
t49.5 -120.5q0 -44 -13 -86.5t-32 -78t-53.5 -74t-64.5 -67t-78.5 -65t-82.5 -60.5t-88 -60l-59 -41h203z" />
    <glyph glyph-name="three.dnom" horiz-adv-x="679" 
d="M365 518q90 -25 140 -78t50 -125q0 -136 -146 -222t-417 -105v35q174 18 280.5 79t106.5 154q0 52 -47.5 82.5t-143.5 46.5l-2 4l267 299h-160q-75 0 -115.5 -24t-77.5 -95l-28 6l114 287h2q76 -20 367 -20h102l2 -4z" />
    <glyph glyph-name="four.dnom" horiz-adv-x="763" 
d="M496 225l-17 -96q-4 -16 -4 -33q0 -32 19.5 -46t70.5 -17l-6 -33h-397l6 33q75 6 105 30.5t42 88.5l13 73h-346l-2 4l507 613h117l-98 -561q86 0 168 6h2l-23 -62h-157zM80 281h258l70 397z" />
    <glyph glyph-name="five.dnom" horiz-adv-x="669" 
d="M584 686h-361l-49 -117q192 -22 282.5 -79t90.5 -158q0 -151 -151 -238.5t-414 -105.5v35q181 19 285 81t104 154q0 65 -77.5 102.5t-236.5 55.5v4l168 422h99q243 0 327 22h2z" />
    <glyph glyph-name="six.dnom" horiz-adv-x="739" 
d="M416 496q97 0 157 -54.5t60 -144.5q0 -131 -101.5 -220t-250.5 -89q-116 0 -183 70t-67 188q0 100 48 197t130 174t187.5 138t224.5 97l8 -29q-119 -56 -213.5 -151t-147.5 -215q67 39 148 39zM291 39q59 0 110.5 91.5t51.5 191.5q0 51 -23 81.5t-61 30.5q-69 0 -129 -47
q-33 -109 -33 -205q0 -66 22 -104.5t62 -38.5z" />
    <glyph glyph-name="seven.dnom" horiz-adv-x="704" 
d="M535 842h192v-4q-335 -444 -430 -748q-32 -102 -119 -102q-63 0 -63 59q0 58 84 184t177 236t195 219h-299q-75 0 -115 -23.5t-77 -93.5l-29 6l115 287h2q74 -20 367 -20z" />
    <glyph glyph-name="eight.dnom" horiz-adv-x="749" 
d="M461 475q36 -21 61 -39.5t49.5 -43.5t37 -55.5t12.5 -66.5q0 -120 -100.5 -201t-248.5 -81q-118 0 -187 49t-69 131q0 79 63 137.5t157 89.5q-113 77 -113 191q0 116 85.5 191t217.5 75q106 0 169.5 -44t63.5 -118q0 -71 -56 -128.5t-142 -86.5zM418 801
q-63 0 -105.5 -35t-42.5 -94q0 -54 36.5 -91t107.5 -79q52 39 86.5 92.5t34.5 105.5q0 46 -31.5 73.5t-85.5 27.5zM283 39q78 0 128 42t50 105q0 27 -11 50.5t-35.5 44t-45 34t-56.5 33.5q-10 5 -34 21q-57 -43 -95.5 -99t-38.5 -112q0 -54 37.5 -86.5t100.5 -32.5z" />
    <glyph glyph-name="nine.dnom" horiz-adv-x="735" 
d="M410 852q116 0 184 -70t68 -188q0 -186 -150.5 -354.5t-390.5 -251.5l-6 28q107 59 191 160.5t130 224.5q-72 -43 -160 -43q-96 0 -155.5 53t-59.5 142q0 126 100 212.5t249 86.5zM459 469q26 99 26 188q0 67 -23 105.5t-63 38.5q-58 0 -107.5 -88t-49.5 -183
q0 -51 23 -81.5t63 -30.5q74 0 131 51z" />
    <glyph glyph-name="zero.numr" horiz-adv-x="804" 
d="M422 645q-119 0 -187.5 84t-68.5 227q0 148 55 275.5t148.5 202.5t203.5 75q118 0 186 -84t68 -227q0 -148 -55 -275.5t-148.5 -202.5t-201.5 -75zM430 696q49 0 102 93.5t87 231t34 259.5q0 83 -23 130.5t-67 47.5q-48 0 -101 -93t-87.5 -231.5t-34.5 -261.5
q0 -83 23.5 -129.5t66.5 -46.5z" />
    <glyph glyph-name="one.numr" horiz-adv-x="530" 
d="M397 760q0 -36 23 -51.5t82 -20.5l-6 -31h-404l6 31q71 6 98.5 27.5t36.5 77.5l82 456q4 36 4 37q0 37 -36 37q-20 0 -76 -16l-8 30q170 83 329 183h2l-129 -727q-4 -18 -4 -33z" />
    <glyph glyph-name="two.numr" horiz-adv-x="763" 
d="M494 811q110 0 158 25.5t77 101.5l31 -6l-84 -281q-117 6 -400 6h-210l-3 5q40 40 179 157q62 52 98 83.5t85 81t75 87t45.5 84.5t19.5 92q0 53 -29 84t-81 31q-60 0 -118.5 -39.5t-100.5 -105.5l-25 16q67 125 167.5 200.5t196.5 75.5q85 0 135 -46t50 -120
q0 -44 -13 -86.5t-32 -77.5t-53.5 -74.5t-64 -67.5t-78.5 -66t-81.5 -60.5t-87.5 -60.5q-10 -6 -29.5 -19.5t-29.5 -19.5h203z" />
    <glyph glyph-name="three.numr" horiz-adv-x="679" 
d="M481 1176q90 -27 140.5 -79.5t50.5 -123.5q0 -136 -146 -222.5t-417 -105.5v33q175 19 281 80t106 153q0 54 -47.5 84.5t-143.5 44.5l-2 4l266 302h-159q-75 0 -115.5 -24t-77.5 -97l-29 8l115 285h2q80 -21 367 -21h102l2 -4z" />
    <glyph glyph-name="four.numr" horiz-adv-x="761" 
d="M612 883l-16 -97q-4 -18 -4 -34q0 -31 19.5 -45.5t70.5 -18.5l-6 -31h-397l6 31q75 6 105 30.5t42 90.5l12 74h-346l-2 2l508 612h117l-98 -561q85 0 168 6h2l-23 -59h-158zM197 936h258l69 397z" />
    <glyph glyph-name="five.numr" horiz-adv-x="671" 
d="M698 1343h-358l-51 -116q194 -23 284.5 -80.5t90.5 -157.5q0 -102 -72 -177t-197.5 -116t-298.5 -51l2 33q180 20 283.5 82.5t103.5 152.5q0 65 -77 103t-236 57v4l170 420h98q241 0 326 23h4z" />
    <glyph glyph-name="six.numr" horiz-adv-x="741" 
d="M532 1151q97 0 157.5 -54.5t60.5 -144.5q0 -129 -102 -218t-251 -89q-116 0 -183 70t-67 188q0 100 48 197t130 174t187.5 138t224.5 97l8 -28q-118 -56 -212.5 -151t-149.5 -216q72 37 149 37zM408 696q59 0 110 91t51 190q0 52 -23 83.5t-61 31.5q-63 0 -129 -48
q-32 -106 -32 -206q0 -66 22 -104t62 -38z" />
    <glyph glyph-name="seven.numr" horiz-adv-x="704" 
d="M844 1497l2 -2q-333 -437 -430 -750q-35 -100 -119 -100q-64 0 -64 57q0 58 84.5 185t176.5 236t194 220h-299q-75 0 -115 -23.5t-77 -94.5l-29 8l117 285h2q77 -21 366 -21h191z" />
    <glyph glyph-name="eight.numr" horiz-adv-x="749" 
d="M578 1133q75 -45 117 -91.5t42 -113.5q0 -120 -100 -201.5t-248 -81.5q-118 0 -188 48t-70 130q0 79 63.5 139t157.5 91q-114 78 -114 188q0 117 86 192.5t217 75.5q107 0 171 -44t64 -117q0 -72 -56 -129.5t-142 -85.5zM532 1458q-62 0 -103.5 -36t-41.5 -95
q0 -53 37 -91t106 -77q50 37 84.5 92t34.5 107q0 46 -31 73t-86 27zM397 696q78 0 129.5 42t51.5 104q0 27 -11 50t-36 44.5t-45.5 34.5t-57.5 35q-15 9 -33 18q-56 -40 -95.5 -97.5t-39.5 -113.5q0 -53 37 -85t100 -32z" />
    <glyph glyph-name="nine.numr" horiz-adv-x="735" 
d="M524 1509q116 0 184 -70t68 -188q0 -186 -150.5 -355t-389.5 -251l-7 29q107 58 191.5 159t130.5 224q-72 -43 -160 -43q-96 0 -155.5 53.5t-59.5 140.5q0 128 99.5 214.5t248.5 86.5zM573 1126q27 92 27 187q0 67 -23 106t-63 39q-58 0 -108 -88.5t-50 -183.5
q0 -50 23.5 -81.5t62.5 -31.5q31 0 67.5 14.5t63.5 38.5z" />
    <glyph glyph-name="exclamdown.case" horiz-adv-x="710" 
d="M444 1186q-76 0 -122 43.5t-46 113.5q0 71 54 123t127 52q75 0 121.5 -43.5t46.5 -112.5q0 -72 -53.5 -124t-127.5 -52zM209 -20q-58 0 -90.5 30t-32.5 84q0 73 44.5 216t92.5 253q110 298 148 475h49q-21 -180 -21 -440q10 -277 -18 -465q-10 -75 -58.5 -114t-113.5 -39
z" />
    <glyph glyph-name="questiondown.case" horiz-adv-x="950" 
d="M725 1518q75 0 121.5 -43.5t46.5 -112.5q0 -72 -54 -124t-128 -52q-75 0 -120.5 44t-45.5 113q0 71 53.5 123t126.5 52zM305 174h426q4 -20 4 -39q0 -69 -51.5 -112t-126.5 -43q-124 0 -230 66.5t-165.5 172t-59.5 219.5q0 177 137.5 281t370.5 119q26 99 47 200h52
q-6 -195 12 -407l-4 -4q-239 -5 -376.5 -74t-137.5 -191q0 -102 102 -188z" />
    <glyph glyph-name="parenleft.case" horiz-adv-x="729" 
d="M555 -266q-430 324 -430 811q0 362 205 683t583 546l25 -35q-276 -210 -439 -556.5t-163 -719.5q0 -432 256 -694z" />
    <glyph glyph-name="parenright.case" horiz-adv-x="729" 
d="M-184 -266l-27 35q278 210 441 555.5t163 719.5q0 218 -66.5 394.5t-189.5 300.5l37 35q430 -323 430 -811q0 -363 -205.5 -684t-582.5 -545z" />
    <glyph glyph-name="braceleft.case" horiz-adv-x="790" 
d="M936 1733q-85 -44 -141 -79t-104.5 -77t-71.5 -89t-23 -102q0 -54 25 -149q26 -110 26 -178q0 -129 -85 -206t-249 -99q244 -32 244 -201q0 -55 -17.5 -109t-36 -87.5t-52.5 -84.5q-30 -45 -47 -73.5t-31.5 -71.5t-14.5 -84q0 -67 51.5 -126.5t180.5 -141.5l-29 -41
q-229 94 -321.5 173t-92.5 169q0 47 16 94.5t32.5 76.5t48.5 77q33 49 51 80t34.5 82.5t16.5 103.5q0 137 -194 137h-13l8 53h13q128 0 195 61.5t67 178.5q0 60 -27 166q-24 98 -24 160q0 129 127 226.5t422 201.5z" />
    <glyph glyph-name="braceright.case" horiz-adv-x="790" 
d="M639 780h12l-8 -53h-12q-129 0 -195.5 -61.5t-66.5 -178.5q0 -63 26 -165q25 -102 25 -160q0 -130 -127.5 -226.5t-423.5 -201.5l-14 41q86 44 141 78.5t104 77t72 89t23 101.5q0 54 -25 149q-27 114 -27 179q0 261 334 305q-246 32 -246 200q0 55 17.5 109.5t36 87
t53.5 84.5q31 46 47.5 74t31.5 71t15 84q0 68 -53 129t-178 140l28 41q231 -95 322.5 -174t91.5 -168q0 -47 -15.5 -94.5t-32.5 -77t-48 -76.5q-34 -50 -51.5 -80.5t-34.5 -82t-17 -103.5q0 -138 195 -138z" />
    <glyph glyph-name="bracketleft.case" horiz-adv-x="886" 
d="M506 1753h506l-8 -51q-166 -8 -231 -55t-87 -177l-254 -1433q-8 -47 -8 -80q0 -81 54 -113.5t192 -38.5l-11 -51h-505l43 250l264 1499z" />
    <glyph glyph-name="bracketright.case" horiz-adv-x="833" 
d="M227 1753h506l-43 -250l-264 -1499l-45 -250h-506l8 51q114 5 176.5 27t94.5 69t47 136l254 1433q8 44 8 80q0 81 -54 113.5t-192 38.5z" />
    <glyph glyph-name="hyphen.case" horiz-adv-x="884" 
d="M80 713l39 106h684l-39 -106h-684z" />
    <glyph glyph-name="uni00AD.case" horiz-adv-x="884" 
d="M80 713l39 106h684l-39 -106h-684z" />
    <glyph glyph-name="endash.case" horiz-adv-x="1232" 
d="M80 713l39 106h1034l-39 -106h-1034z" />
    <glyph glyph-name="emdash.case" horiz-adv-x="1673" 
d="M80 713l39 106h1474l-41 -106h-1472z" />
    <glyph glyph-name="guillemotleft.case" horiz-adv-x="917" 
d="M526 1180l-264 -414l117 -418l-41 -22l-254 417l6 41l402 418zM834 1180l-265 -414l117 -418l-41 -22l-254 417l8 41l400 418z" />
    <glyph glyph-name="guillemotright.case" horiz-adv-x="917" 
d="M526 784l-8 -41l-399 -417l-35 22l264 416l-117 416l41 22zM580 1202l254 -418l-9 -41l-399 -417l-35 22l264 414l-116 418z" />
    <glyph glyph-name="guilsinglleft.case" horiz-adv-x="608" 
d="M526 1180l-264 -414l117 -418l-41 -22l-254 417l6 41l402 418z" />
    <glyph glyph-name="guilsinglright.case" horiz-adv-x="608" 
d="M272 1202l254 -418l-8 -41l-399 -417l-35 22l264 416l-117 416z" />
    <glyph glyph-name="uni20BF.osf" horiz-adv-x="1280" 
d="M909 629q120 -22 186 -86.5t66 -159.5q0 -155 -130.5 -267.5t-313.5 -115.5l-37 -205h-74l37 205h-180l-37 -205h-74l37 205h-379l10 51q93 3 131.5 33t51.5 111l143 811q4 40 4 53q0 50 -30 69.5t-107 22.5l10 49h379l31 182h74l-31 -182h162h18l31 182h74l-33 -188
q117 -19 181.5 -82t64.5 -158q0 -113 -72 -199.5t-193 -125.5zM932 946q0 83 -47.5 129.5t-134.5 46.5h-160l-82 -465h158q115 0 190.5 82t75.5 207zM639 78q115 0 199 91.5t84 217.5q0 90 -56.5 142.5t-158.5 52.5h-211l-68 -381q-6 -25 -6 -60q0 -36 18 -49.5t60 -13.5
h139z" />
    <glyph glyph-name="cent.osf" horiz-adv-x="1126" 
d="M883 594q-37 0 -58 14v410q-35 18 -73 20l-158 -903h22q82 0 172.5 47t149.5 125l29 -20q-65 -116 -171.5 -195t-226.5 -104l-37 -207l-81 14l32 185h-4q-184 0 -289.5 113.5t-105.5 307.5q0 189 78.5 348t215 254t302.5 105l35 199l82 -15l-33 -186q131 -12 204.5 -88
t73.5 -197q0 -104 -47 -165.5t-112 -61.5zM322 481q0 -126 49.5 -211.5t140.5 -117.5l156 884q-147 -28 -246.5 -187t-99.5 -368zM874 979l19 -27z" />
    <glyph glyph-name="dollar.osf" horiz-adv-x="1144" 
d="M999 805q-15 124 -90 210t-182 115l-72 -419q3 -3 15 -9q44 -22 68.5 -34.5t64.5 -35.5t63 -40.5t51.5 -44t43.5 -52t25.5 -58.5t10.5 -68q0 -162 -135.5 -271.5t-343.5 -117.5l-35 -199l-82 14l33 189q-59 7 -133.5 37t-99.5 30q-21 0 -35.5 -12.5t-34.5 -48.5h-27
l-6 399l47 10q27 -143 108 -235t193 -113l80 457q-55 27 -91.5 47t-82 52t-72 64t-45 76.5t-18.5 94.5q0 157 122.5 262.5t303.5 105.5h16l33 185l78 -13l-31 -182q44 -8 116 -30.5t97 -22.5q19 0 31 11t27 42h26l6 -385zM580 748l67 395h-10q-103 0 -170.5 -55t-67.5 -138
q0 -62 47 -109t134 -93zM801 266q0 63 -50.5 108t-146.5 95l-74 -422q124 8 197.5 67t73.5 152z" />
    <glyph glyph-name="Euro.osf" horiz-adv-x="1290" 
d="M1202 1200h27l-66 -383h-45q4 46 4 68q0 113 -61.5 178t-169.5 65q-113 0 -214 -101t-161 -265h393l-24 -72h-391q-26 -99 -31 -168h364l-24 -71h-346v-33q0 -164 66 -260.5t182 -96.5q129 0 225 91t127 241h45l-72 -403h-26q-12 33 -23.5 44t-30.5 11q-26 0 -73 -16.5
t-107.5 -32.5t-118.5 -16q-203 0 -319.5 124.5t-116.5 339.5v7h-168l25 71h147q6 85 31 168h-162l25 72h159q78 201 238.5 324.5t357.5 123.5q59 0 112 -15t90.5 -30.5t59.5 -15.5q18 0 33 10.5t39 40.5z" />
    <glyph glyph-name="sterling.osf" horiz-adv-x="1341" 
d="M1108 748q-34 0 -61 12v352q-57 31 -140 31q-93 0 -154 -26.5t-90 -67t-42 -101.5q-19 -74 -23 -223q1 -12 2.5 -33t2.5 -38t1 -33h434l-24 -72h-414q-15 -127 -85.5 -212t-205.5 -144h471q82 0 135.5 8t100.5 31.5t79.5 66.5t59.5 113l45 -9l-125 -413q-212 10 -684 10
h-346v6q76 61 132 121.5t88.5 111t53.5 107.5t29.5 101t13.5 102h-204l24 72h185q1 18 4 58.5t4 63.5q11 148 86.5 255.5t192 159.5t261.5 52q161 0 256 -71t95 -191q0 -87 -45 -143.5t-113 -56.5z" />
    <glyph glyph-name="yen.osf" horiz-adv-x="1288" 
d="M887 1190h452l-8 -51q-82 -11 -149 -64.5t-181 -204.5l-233 -321h270l-24 -72h-281l-28 -168h290l-24 -71h-279v-2q-8 -39 -8 -72q0 -60 37 -84t131 -29l-8 -51h-619l8 51q119 6 164.5 43t65.5 142v2h-283l27 71h268l29 168h-281l25 72h235l-157 426q-36 92 -70.5 126
t-101.5 38l8 51h596l-10 -51q-97 -7 -138 -32.5t-41 -74.5q0 -37 35 -133l121 -305l162 217q69 97 102 155t33 95q0 70 -145 78z" />
    <glyph glyph-name="percent.osf" horiz-adv-x="1656" 
d="M354 -59l-49 51l1000 1157l49 -53zM408 481q-110 0 -173 65.5t-63 176.5q0 161 100.5 273t245.5 112q109 0 172.5 -65t63.5 -175q0 -161 -100.5 -274t-245.5 -113zM416 530q45 0 89.5 59t71.5 148.5t27 177.5q0 68 -25 106t-69 38q-45 0 -89 -58.5t-70.5 -148
t-26.5 -178.5q0 -67 24 -105.5t68 -38.5zM1139 -20q-110 0 -173 65t-63 174q0 161 100.5 274t245.5 113q109 0 172.5 -64.5t63.5 -174.5q0 -162 -100 -274.5t-246 -112.5zM1147 27q46 0 90 59t71 149t27 179q0 66 -25 104.5t-69 38.5q-45 0 -89 -59.5t-70.5 -149.5
t-26.5 -178q0 -67 24 -105t68 -38z" />
    <glyph glyph-name="perthousand.osf" horiz-adv-x="2236" 
d="M309 -59l-47 51l998 1157l51 -53zM365 481q-110 0 -174 65.5t-64 176.5q0 161 101 273t247 112q108 0 171 -64.5t63 -175.5q0 -162 -100 -274.5t-244 -112.5zM373 530q45 0 88.5 59t70.5 148.5t27 177.5q0 68 -25 106t-69 38q-45 0 -88.5 -58.5t-70.5 -148.5t-27 -178
q0 -67 24.5 -105.5t69.5 -38.5zM1094 -20q-108 0 -171 65t-63 174q0 162 100 274.5t244 112.5q110 0 173 -64t63 -175q0 -162 -100 -274.5t-246 -112.5zM1767 -20q-109 0 -172 64.5t-63 174.5q0 162 100 274.5t246 112.5q110 0 173 -65t63 -174q0 -162 -101 -274.5
t-246 -112.5zM1102 27q46 0 90 59t71 149t27 179q0 66 -25 104.5t-69 38.5q-45 0 -88.5 -59.5t-70.5 -149.5t-27 -178q0 -67 24 -105t68 -38zM1776 27q45 0 89 59.5t70.5 149.5t26.5 178q0 67 -24.5 105t-69.5 38q-44 0 -88 -60t-70.5 -150t-26.5 -177q0 -68 24.5 -105.5
t68.5 -37.5z" />
    <glyph glyph-name="at.case" horiz-adv-x="2107" 
d="M1190 428q0 22 6 49l47 266q-100 -263 -204 -378t-244 -115q-98 0 -154.5 83t-56.5 224q0 191 70 354t192.5 259t269.5 96q116 0 203 -64q139 26 217 64h4l-139 -783q-2 -12 -2 -30q0 -78 92 -78q103 0 197.5 96.5t152 255.5t57.5 332q0 265 -168 423t-446 158
q-216 0 -412.5 -91.5t-339 -246.5t-227 -368.5t-84.5 -448.5q0 -299 168.5 -458.5t482.5 -159.5q210 0 414.5 57t347.5 152l19 -43q-153 -117 -369 -187.5t-428 -70.5q-357 0 -551 181t-194 515q0 256 94 487.5t252.5 399t378.5 266t462 98.5q315 0 507 -176t192 -469
q0 -217 -82 -408.5t-219.5 -305t-294.5 -113.5q-95 0 -153 46t-58 132zM907 389q92 0 186 165.5t207 524.5q-20 56 -64 86.5t-97 30.5q-92 0 -170.5 -80.5t-124 -213.5t-45.5 -284q0 -105 28.5 -167t79.5 -62z" />
    <glyph glyph-name="uni0308.case" 
d="M-700 1651q-51 0 -83 30.5t-32 79.5q0 51 38.5 90t90.5 39q50 0 81.5 -31t31.5 -79q0 -54 -37 -91.5t-90 -37.5zM-332 1651q-51 0 -82.5 30.5t-31.5 79.5q0 51 38.5 90t90.5 39q50 0 81 -31t31 -79q0 -54 -37 -91.5t-90 -37.5z" />
    <glyph glyph-name="uni0307.case" 
d="M-336 1630q-59 0 -97 37t-38 94q0 63 44 105.5t110 42.5q59 0 97 -37t38 -94q0 -63 -44 -105.5t-110 -42.5z" />
    <glyph glyph-name="gravecomb.case" 
d="M-168 1606q-337 66 -420 104q-65 32 -65 96q0 42 29.5 72.5t72.5 30.5q22 0 51 -13q76 -36 348 -254z" />
    <glyph glyph-name="acutecomb.case" 
d="M-633 1606l-18 36q269 216 350 254q26 13 51 13q43 0 71.5 -30.5t28.5 -72.5q0 -66 -65 -96q-79 -38 -418 -104z" />
    <glyph glyph-name="uni030B.case" 
d="M-928 1587l-22 33q233 258 305 307q34 21 63 21q42 0 72.5 -30.5t30.5 -72.5q0 -58 -51 -90q-80 -51 -398 -168zM-547 1587l-22 33q233 258 305 307q30 21 63 21q42 0 72.5 -30.5t30.5 -72.5q0 -58 -52 -90q-81 -52 -397 -168z" />
    <glyph glyph-name="uni0302.case" 
d="M-207 1645l-26 -39l-261 131l-305 -131l-12 39l332 264h37z" />
    <glyph glyph-name="uni030C.case" 
d="M-219 1909l12 -39l-332 -264h-36l-236 264l27 39l260 -131z" />
    <glyph glyph-name="uni0306.case" 
d="M-547 1595q-86 0 -158 75t-112 204l37 29q46 -69 113 -108.5t149 -39.5q81 0 163 40t150 108l27 -29q-87 -131 -184 -205t-185 -74z" />
    <glyph glyph-name="uni030A.case" 
d="M-575 1575q-96 0 -151.5 49t-55.5 133q0 97 70 163.5t173 66.5q95 0 151 -50t56 -133q0 -98 -70 -163.5t-173 -65.5zM-563 1642q64 0 107.5 43t43.5 105q0 59 -37.5 94t-103.5 35q-63 0 -107.5 -43.5t-44.5 -106.5q0 -58 38.5 -92.5t103.5 -34.5z" />
    <glyph glyph-name="tildecomb.case" 
d="M-442 1614q-33 0 -69 12.5t-56 23.5t-60 36q-101 67 -172 67q-77 0 -133 -131l-39 10q32 111 107.5 194t156.5 83q72 0 179 -72q40 -24 58 -34t52.5 -22t65.5 -12q78 0 133 132l41 -11q-32 -113 -106 -194.5t-158 -81.5z" />
    <glyph glyph-name="uni0304.case" 
d="M-821 1702l28 82h625l-29 -82h-624z" />
    <glyph glyph-name="uni0304.narrow.case" 
d="M-766 1702l29 82h514l-29 -82h-514z" />
    <glyph glyph-name="uni0308.narrow" 
d="M-659 1348q-46 0 -75.5 28.5t-29.5 73.5q0 51 35 88t82 37q46 0 75 -30t29 -75q0 -52 -33 -87t-83 -35zM-373 1348q-46 0 -75 28t-29 74q0 51 35 88t82 37q45 0 74.5 -30t29.5 -75q0 -52 -34.5 -87t-82.5 -35z" />
    <glyph glyph-name="uni0304.narrow" 
d="M-766 1407l29 84h514l-29 -84h-514z" />
    </font>
</defs>
</svg>
