<?xml version="1.0" standalone="no"?>
<!DOCTYPE svg PUBLIC "-//W3C//DTD SVG 1.1//EN" "http://www.w3.org/Graphics/SVG/1.1/DTD/svg11.dtd" >
<svg xmlns="http://www.w3.org/2000/svg" xmlns:xlink="http://www.w3.org/1999/xlink" version="1.1">
<metadata>
Created by FontForge 20170731 at Fri Mar 31 05:53:54 2023
 By Aleksey,,,
Copyright (c) 2019 by Alberto Romanos. All rights reserved.
</metadata>
<defs>
<font id="BwBeto-BoldItalic" horiz-adv-x="0" >
  <font-face 
    font-family="Bw Beto Bold Italic"
    font-weight="700"
    font-style="italic"
    font-stretch="normal"
    units-per-em="2048"
    panose-1="0 0 8 0 0 0 0 0 0 0"
    ascent="1638"
    descent="-410"
    x-height="1104"
    cap-height="1503"
    bbox="-1010 -475 2523 2011"
    underline-thickness="102"
    underline-position="-307"
    slope="-10"
    unicode-range="U+000D-FB02"
  />
<missing-glyph horiz-adv-x="2541" 
d="M178 -20q-15 0 -25 10.5t-10 25.5q0 20 11 31l700 698h-664q-47 0 -47 39q0 18 15 33l696 701h-670q-41 0 -41 38v3q0 38 41 38h758q47 0 47 -41q0 -18 -16 -34l-699 -697h676q17 0 29 -12t12 -29v-669l695 692q16 16 34 16q37 0 37 -45v-663l697 692q16 16 32 16
q15 0 25 -12t10 -27q0 -16 -12 -28l-754 -762q-14 -14 -35 -14q-41 0 -41 47v663l-694 -696q-14 -14 -35 -14q-41 0 -41 47v663l-696 -696q-14 -14 -35 -14z" />
    <glyph glyph-name="fi" unicode="fi" horiz-adv-x="1376" 
d="M786 1094l-45 -121h-178l-145 -813q-40 -230 -187 -393t-346 -197l-8 57q93 71 137.5 158.5t71.5 239.5l164 948h-137l18 88l141 20q24 88 80 188.5t127.5 185t156 140.5t157.5 56q49 0 77.5 -31t28.5 -84q0 -54 -33 -123h-331q-54 -84 -66 -176q0 -60 30 -98t85 -45h202
zM1206 1606q74 0 123 -47t49 -119q0 -82 -55.5 -135.5t-138.5 -53.5q-75 0 -124.5 47t-49.5 119q0 82 55.5 135.5t140.5 53.5zM1157 164q23 0 56 50.5t69 137.5l41 -24q-50 -160 -141.5 -254t-198.5 -94q-76 0 -122 37t-46 116q0 23 6 53l123 688q2 14 2 27q0 29 -22 29
q-23 0 -56 -50.5t-69 -138.5l-41 25q47 159 139.5 253.5t200.5 94.5q76 0 122 -37t46 -116q0 -24 -6 -54l-123 -688q-2 -14 -2 -26q0 -29 22 -29z" />
    <glyph glyph-name="fl" unicode="fl" horiz-adv-x="1335" 
d="M1110 164q23 0 56 50.5t69 137.5l41 -24q-47 -160 -139 -254t-201 -94q-76 0 -121 37t-45 116q0 13 4 53l203 1141q8 46 -16.5 62t-108.5 16h-301q-54 -85 -62 -174q-1 -56 24.5 -92.5t70.5 -44.5h215l-47 -121h-189l-145 -813q-40 -230 -187 -393t-346 -197l-8 43
q93 72 137.5 162.5t71.5 249.5l164 948h-137l18 88l141 20q26 87 88.5 186t140.5 182t171.5 138t173.5 55q63 0 101 -33.5t38 -88.5q0 -17 -2 -25q214 67 356 154h4l-251 -1430q-5 -17 -5 -26q0 -29 23 -29z" />
    <glyph glyph-name=".notdef" horiz-adv-x="2541" 
d="M178 -20q-15 0 -25 10.5t-10 25.5q0 20 11 31l700 698h-664q-47 0 -47 39q0 18 15 33l696 701h-670q-41 0 -41 38v3q0 38 41 38h758q47 0 47 -41q0 -18 -16 -34l-699 -697h676q17 0 29 -12t12 -29v-669l695 692q16 16 34 16q37 0 37 -45v-663l697 692q16 16 32 16
q15 0 25 -12t10 -27q0 -16 -12 -28l-754 -762q-14 -14 -35 -14q-41 0 -41 47v663l-694 -696q-14 -14 -35 -14q-41 0 -41 47v663l-696 -696q-14 -14 -35 -14z" />
    <glyph glyph-name=".null" 
 />
    <glyph glyph-name="nonmarkingreturn" horiz-adv-x="682" 
 />
    <glyph glyph-name="CR" unicode="&#xd;" horiz-adv-x="487" 
 />
    <glyph glyph-name="space" unicode=" " horiz-adv-x="487" 
 />
    <glyph glyph-name="exclam" unicode="!" horiz-adv-x="634" 
d="M283 512q9 169 -13 377q-10 100 -14 155.5t-3.5 133.5t9.5 147q13 98 77.5 148.5t149.5 50.5q77 0 119.5 -41t42.5 -111q0 -170 -153 -457q-118 -249 -156 -403h-59zM248 -20q-96 0 -154.5 54.5t-58.5 141.5q0 88 67.5 152.5t159.5 64.5q95 0 153 -54.5t58 -141.5
q0 -88 -67 -152.5t-158 -64.5z" />
    <glyph glyph-name="quotedbl" unicode="&#x22;" horiz-adv-x="886" 
d="M254 920l-12 675l358 56h4l-289 -727zM680 920l-12 675l358 56h4l-289 -727z" />
    <glyph glyph-name="numbersign" unicode="#" horiz-adv-x="1282" 
d="M1241 774h-264l-117 -340h264l-30 -86h-263l-118 -348h-92l118 348h-356l-119 -348h-92l119 348h-254l29 86h256l114 340h-256l31 86h256l115 336h90l-115 -336h358l115 336h90l-114 -336h264zM770 434l115 340h-357l-116 -340h358z" />
    <glyph glyph-name="dollar" unicode="$" horiz-adv-x="1208" 
d="M770 891q64 -45 98 -70t86 -71.5t78.5 -84t47 -91t20.5 -109.5q0 -197 -157.5 -335t-393.5 -150l-35 -201l-96 16l33 189q-56 7 -137 38t-121 31q-47 0 -72 -63h-31l-8 553l59 14q34 -199 121.5 -326.5t206.5 -152.5l96 540q-62 42 -99.5 69.5t-88 74t-79 88.5t-49 100.5
t-20.5 122.5q0 193 143 321t359 130l29 162l96 -17l-27 -158q37 -8 103 -36.5t100 -28.5q24 0 41 14t35 53h29l12 -530l-55 -12q-25 167 -100.5 284.5t-182.5 157.5l-84 -491zM715 1430q-93 0 -159.5 -56t-66.5 -147q0 -67 39 -124t111 -116zM567 76q113 14 181.5 83
t68.5 171q0 65 -42.5 119t-123.5 112z" />
    <glyph glyph-name="percent" unicode="%" horiz-adv-x="1810" 
d="M274 -57l-59 63l1450 1555l57 -64zM434 647q-125 0 -196.5 85.5t-71.5 232.5q0 148 57 275t154 201.5t211 74.5q124 0 195 -85.5t71 -232.5q0 -148 -57 -275t-153.5 -201.5t-209.5 -74.5zM444 707q37 0 82 103.5t76 249.5t31 261q0 64 -15.5 100.5t-42.5 36.5
q-37 0 -81.5 -103t-75.5 -249t-31 -262q0 -137 57 -137zM1300 -12q-125 0 -196.5 85t-71.5 232q0 148 57 275t154 201.5t211 74.5q124 0 195 -85t71 -232q0 -148 -57 -275t-153.5 -201.5t-209.5 -74.5zM1311 47q37 0 81.5 104t75.5 250t31 261q0 137 -57 137
q-36 0 -80.5 -103.5t-75.5 -250t-31 -261.5q0 -66 15 -101.5t41 -35.5z" />
    <glyph glyph-name="ampersand" unicode="&#x26;" horiz-adv-x="1503" 
d="M1495 760l39 -12q-34 -121 -114.5 -209t-172.5 -88q-47 0 -88 12q-66 -221 -221.5 -352t-355.5 -131q-244 0 -387.5 93.5t-143.5 250.5q0 183 128 318t356 202q-95 50 -150 124.5t-55 155.5q0 112 73.5 203.5t202.5 144t285 52.5q159 0 251.5 -79t92.5 -212
q0 -116 -59.5 -181t-141.5 -65q-50 0 -84 21v417q-35 5 -45 5q-93 0 -154 -93t-61 -233q0 -152 72 -281l-2 -6q-158 -51 -255 -190.5t-97 -317.5q0 -108 58 -171.5t159 -63.5q151 0 253 112.5t111 286.5q0 42 -2 62q-77 34 -143 34q-76 0 -125 -112l-43 12q34 121 115 209
t174 88q35 0 72 -9.5t59 -19t67 -30.5q122 -60 203 -60q80 0 129 113z" />
    <glyph glyph-name="quotesingle" unicode="'" horiz-adv-x="460" 
d="M254 920l-12 675l358 56h4l-289 -727z" />
    <glyph glyph-name="parenleft" unicode="(" horiz-adv-x="733" 
d="M516 -475q-216 165 -332 383t-116 479q0 381 217.5 723t611.5 578l31 -37q-259 -224 -419.5 -609.5t-160.5 -789.5q0 -214 55.5 -389t157.5 -299z" />
    <glyph glyph-name="parenright" unicode=")" horiz-adv-x="733" 
d="M-143 -475l-31 39q261 226 421.5 610.5t160.5 786.5q0 427 -213 690l45 37q213 -162 330.5 -380.5t117.5 -482.5q0 -382 -218.5 -722.5t-612.5 -577.5z" />
    <glyph glyph-name="asterisk" unicode="*" horiz-adv-x="1032" 
d="M1081 1339q7 -41 -17.5 -78t-66.5 -51q-61 -21 -313 -28q155 -140 195 -205q20 -36 5 -75.5t-57 -67.5q-38 -24 -77.5 -18.5t-57.5 38.5q-37 65 -76 279q-119 -220 -174 -279q-33 -36 -73.5 -40t-67.5 22q-34 28 -34 67t32 74q53 61 264 205q-238 7 -303 28
q-37 14 -48 51t9 78q22 42 61.5 61.5t77.5 6.5q70 -22 238 -156q-18 189 -16 256q1 70 36.5 107t88.5 37q38 0 63 -22.5t25 -57.5q0 -67 -121 -320q195 116 247 139q27 12 48 17q42 13 74 -6.5t38 -61.5z" />
    <glyph glyph-name="plus" unicode="+" horiz-adv-x="970" 
d="M893 651l-16 -94h-340l-58 -332h-102l57 332h-336l17 94h338l57 332h102l-57 -332h338z" />
    <glyph glyph-name="comma" unicode="," horiz-adv-x="595" 
d="M0 -367l-14 58q98 46 159.5 111t61.5 130q0 51 -40.5 83.5t-109.5 35.5q-28 38 -28 96q0 98 70.5 172t164.5 74q92 0 144.5 -58t52.5 -155q0 -161 -130 -316t-331 -231z" />
    <glyph glyph-name="hyphen" unicode="-" horiz-adv-x="966" 
d="M117 543l47 121h704l-47 -121h-704z" />
    <glyph glyph-name="period" unicode="." horiz-adv-x="598" 
d="M244 -20q-96 0 -154.5 54.5t-58.5 141.5q0 88 67.5 152.5t159.5 64.5q95 0 153 -54.5t58 -141.5q0 -88 -67 -152.5t-158 -64.5z" />
    <glyph glyph-name="slash" unicode="/" horiz-adv-x="1056" 
d="M8 -221l-82 41l1184 1839l82 -41z" />
    <glyph glyph-name="zero" unicode="0" horiz-adv-x="1363" 
d="M584 -20q-217 0 -339 150t-122 407q0 265 99 492.5t268 361t366 133.5q215 0 337 -149.5t122 -407.5q0 -265 -98.5 -492.5t-267 -361t-365.5 -133.5zM600 74q62 0 130.5 101t122 253.5t89 342t35.5 355.5q0 143 -35.5 223.5t-101.5 80.5q-62 0 -131 -100.5t-122.5 -252.5
t-88.5 -341.5t-35 -356.5q0 -144 35 -224.5t102 -80.5z" />
    <glyph glyph-name="one" unicode="1" horiz-adv-x="888" 
d="M557 182q0 -62 39 -88t141 -35l-10 -59h-739l10 59q126 10 174.5 47.5t65.5 137.5l141 800q8 41 8 64q0 33 -14.5 48t-50.5 15q-44 0 -132 -24l-12 57q359 182 610 338h5l-230 -1298q-6 -38 -6 -62z" />
    <glyph glyph-name="two" unicode="2" horiz-adv-x="1296" 
d="M1151 571l61 -14l-165 -567q-245 10 -734 10h-374v6q114 114 313 279q71 60 108 92.5t100.5 89t98.5 94t83 90.5t74.5 95.5t53 93t38 99.5t11.5 99q0 93 -52 147t-144 54q-103 0 -203.5 -66t-171.5 -178l-49 31q121 224 304.5 361t358.5 137q154 0 243 -81.5t89 -217.5
q0 -79 -24 -157t-52 -136.5t-96.5 -132t-107.5 -113.5t-139.5 -114.5t-138.5 -101t-154 -104.5l-1 -1l-106 -70h342q82 0 136 6t103 22.5t82.5 48t61 79.5t51.5 120z" />
    <glyph glyph-name="three" unicode="3" horiz-adv-x="1138" 
d="M1225 1503v-4l-520 -567q158 -51 244.5 -147.5t86.5 -219.5q0 -247 -268 -400.5t-752 -184.5l2 61q320 37 498 144t178 264q0 91 -81.5 143.5t-250.5 79.5l-2 4l467 532h-282q-136 0 -204.5 -40t-131.5 -164l-55 14l213 524h4q84 -24 233.5 -31.5t433.5 -7.5h187z" />
    <glyph glyph-name="four" unicode="4" horiz-adv-x="1294" 
d="M936 395l-29 -159q-6 -38 -6 -62q0 -59 34.5 -83t123.5 -32l-10 -59h-732l9 59q136 12 188 55t74 162l20 119h-614v6l907 1102h229l-178 -1014q155 0 295 11h4l-39 -105h-276zM170 489h455l125 707z" />
    <glyph glyph-name="five" unicode="5" horiz-adv-x="1120" 
d="M1081 1208h-651l-80 -190q344 -39 506 -140.5t162 -283.5q0 -264 -262 -423t-762 -191l4 61q316 35 496 142.5t180 262.5q0 114 -135 177.5t-412 95.5v6l315 778h183q245 0 368 8.5t213 32.5h4z" />
    <glyph glyph-name="six" unicode="6" horiz-adv-x="1249" 
d="M788 887q176 0 284 -97.5t108 -259.5q0 -116 -49 -218t-133.5 -175t-202.5 -115t-252 -42q-212 0 -333.5 125t-121.5 337q0 146 57 287.5t156.5 260.5t235 222.5t292.5 181.5t328 130l12 -54q-207 -98 -369.5 -265t-256.5 -376q116 58 245 58zM559 74q64 0 127 74.5
t103 192t40 234.5q0 93 -36 147t-99 54q-51 0 -105 -20t-95 -54q-62 -180 -62 -376q0 -118 33 -185t94 -67z" />
    <glyph glyph-name="seven" unicode="7" horiz-adv-x="1198" 
d="M1346 1503l2 -4q-288 -382 -474 -704.5t-286 -628.5q-33 -94 -88 -140t-140 -46q-124 0 -124 110q0 70 65.5 190t154.5 239.5t213.5 265.5t208 237.5t173.5 185.5h-539q-137 0 -204.5 -39.5t-129.5 -164.5l-57 14l213 524h4q76 -22 217.5 -30.5t448.5 -8.5h342z" />
    <glyph glyph-name="eight" unicode="8" horiz-adv-x="1261" 
d="M870 856q50 -31 85 -55.5t74.5 -60t63.5 -70t40 -81t16 -97.5q0 -143 -82.5 -260.5t-226.5 -184.5t-320 -67q-213 0 -338 86.5t-125 232.5q0 72 31 137t85 114t121 86.5t144 61.5q-93 66 -144.5 146t-51.5 192q0 214 155 351t396 137q196 0 312 -79.5t116 -211.5
q0 -126 -100 -226.5t-251 -150.5zM776 1430q-108 0 -177 -63.5t-69 -162.5q0 -49 19.5 -91.5t58 -79.5t77.5 -64.5t97 -61.5q77 69 138 162t61 184q0 82 -55.5 129.5t-149.5 47.5zM539 74q131 0 218 71t87 181q0 39 -15.5 74t-36 60t-60.5 55t-68.5 47.5t-81.5 47.5
q-33 18 -58 35q-97 -78 -158 -175t-61 -191t63 -149.5t171 -55.5z" />
    <glyph glyph-name="nine" unicode="9" horiz-adv-x="1243" 
d="M768 1524q214 0 337.5 -125.5t123.5 -337.5q0 -218 -123.5 -431.5t-346.5 -384t-507 -265.5l-12 53q180 101 324 277t229 390q-123 -63 -261 -63q-176 0 -284.5 95.5t-108.5 254.5q0 150 82.5 273.5t226.5 193.5t320 70zM834 825q51 178 51 349q0 120 -34.5 188t-98.5 68
q-62 0 -123 -73t-99 -187t-38 -226q0 -90 36 -143t99 -53q53 0 109.5 21t97.5 56z" />
    <glyph glyph-name="colon" unicode=":" horiz-adv-x="649" 
d="M381 700q-95 0 -153 55t-58 142q0 88 66.5 152.5t158.5 64.5q95 0 153 -54.5t58 -141.5q0 -88 -66.5 -153t-158.5 -65zM254 -20q-95 0 -153 54.5t-58 141.5q0 88 67.5 152.5t159.5 64.5q95 0 153 -54.5t58 -141.5q0 -88 -67.5 -152.5t-159.5 -64.5z" />
    <glyph glyph-name="semicolon" unicode=";" horiz-adv-x="655" 
d="M381 700q-95 0 -153 55t-58 142q0 88 67 152.5t158 64.5q96 0 154.5 -54.5t58.5 -141.5q0 -88 -67.5 -153t-159.5 -65zM14 -367l-14 58q98 46 159.5 111t61.5 130q0 51 -40 83.5t-109 35.5q-29 39 -29 96q0 98 71 172t165 74q91 0 143.5 -57.5t52.5 -155.5
q0 -161 -130 -316t-331 -231z" />
    <glyph glyph-name="less" unicode="&#x3c;" horiz-adv-x="970" 
d="M811 276l-727 289l14 76l832 311l-17 -102l-653 -246l569 -225z" />
    <glyph glyph-name="equal" unicode="=" horiz-adv-x="970" 
d="M123 705l18 94h779l-19 -94h-778zM72 410l18 94h778l-18 -94h-778z" />
    <glyph glyph-name="greater" unicode="&#x3e;" horiz-adv-x="970" 
d="M66 276l18 103l649 225l-567 246l18 102l723 -311l-14 -76z" />
    <glyph glyph-name="question" unicode="?" horiz-adv-x="886" 
d="M438 1524q120 0 226 -70.5t166.5 -179.5t60.5 -223q0 -167 -140 -266t-366 -115q-28 -107 -39 -158h-59q-9 223 -39 438l6 4q235 2 376.5 58.5t141.5 152.5q0 61 -70 121h-469q-6 21 -6 47q0 84 60 137.5t151 53.5zM291 393q95 0 153 -54.5t58 -141.5q0 -88 -67 -152.5
t-159 -64.5q-95 0 -152.5 54.5t-57.5 141.5q0 88 66.5 152.5t158.5 64.5z" />
    <glyph glyph-name="at" unicode="@" horiz-adv-x="2017" 
d="M1102 240q0 28 6 55l22 121q-82 -201 -172 -285t-215 -84q-102 0 -160.5 87t-58.5 237q0 191 70 351t192 252.5t269 92.5q113 0 190 -70q166 25 273 70h2l-136 -770q-2 -12 -2 -27q0 -65 82 -65q101 0 192 89.5t145 239t54 316.5q0 262 -174.5 418.5t-461.5 156.5
q-208 0 -400 -89t-332 -238.5t-223.5 -354t-83.5 -426.5q0 -313 179 -479t509 -166q199 0 398 54.5t342 144.5l24 -47q-156 -115 -369 -184.5t-411 -69.5q-381 0 -590 190t-209 543q0 164 43 322t120 292t186.5 247t239 192t282 123.5t311.5 44.5q333 0 537 -178t204 -474
q0 -222 -86.5 -412t-234.5 -301.5t-320 -111.5q-103 0 -168 49t-65 144zM905 231q46 0 90 59.5t96.5 201t116.5 380.5q-10 55 -42 84t-74 29q-72 0 -136.5 -75t-103.5 -200.5t-39 -265.5q0 -97 24.5 -155t67.5 -58z" />
    <glyph glyph-name="A" unicode="A" horiz-adv-x="1529" 
d="M1282 211q19 -90 52 -119.5t124 -32.5l-10 -59h-766l10 59q135 11 182.5 37.5t47.5 93.5q0 14 -13 107l-30 164h-492l-16 -33q-61 -115 -89 -179t-28 -102q0 -43 40 -62.5t136 -25.5l-12 -59h-514l10 59q95 12 153 60t130 180l512 944l-23 115q139 64 285 166h41z
M438 555h424l-112 596z" />
    <glyph glyph-name="B" unicode="B" horiz-adv-x="1538" 
d="M1130 778q150 -31 234 -112t84 -197q0 -132 -84.5 -239.5t-233.5 -168.5t-333 -61h-834l10 59q110 10 153 46t60 131l185 1032q6 38 6 61q0 58 -35 82.5t-125 32.5l10 59h793q214 0 338.5 -85t124.5 -230q0 -139 -95.5 -248.5t-257.5 -161.5zM897 1409h-176l-105 -594
h177q145 0 238 105t93 268q0 103 -58.5 162t-168.5 59zM692 94q172 0 286 110.5t114 276.5q0 111 -68.5 175.5t-194.5 64.5h-229l-92 -518q-4 -32 -4 -45q0 -37 22.5 -50.5t81.5 -13.5h84z" />
    <glyph glyph-name="C" unicode="C" horiz-adv-x="1394" 
d="M647 -20q-255 0 -401 157t-146 424q0 200 68 378.5t184.5 306.5t279.5 203t345 75q65 0 124.5 -18.5t103 -37t69.5 -18.5q25 0 40.5 12t31.5 51h28l15 -544l-58 -17q-79 478 -377 478q-137 0 -253 -99t-183 -269.5t-67 -371.5q0 -225 104 -356t289 -131q115 0 235.5 63
t198.5 168l43 -28q-108 -193 -293 -309.5t-381 -116.5z" />
    <glyph glyph-name="D" unicode="D" horiz-adv-x="1622" 
d="M954 1503q297 0 468 -160t171 -432q0 -190 -70 -359t-190 -290t-288 -191.5t-357 -70.5h-725l10 59q110 10 153 46t60 131l185 1032q6 38 6 61q0 58 -35 82.5t-125 32.5l10 59h727zM643 94q161 0 299 118.5t218.5 319t80.5 433.5q0 207 -91.5 325.5t-260.5 118.5h-168
l-213 -1206q-4 -25 -4 -45q0 -37 19.5 -50.5t70.5 -13.5h49z" />
    <glyph glyph-name="E" unicode="E" horiz-adv-x="1478" 
d="M1380 588l62 -25l-275 -573q-159 10 -456 10h-748l10 59q110 10 153 46t60 131l185 1032q6 38 6 61q0 58 -35 82.5t-125 32.5l10 59h713q278 0 432 10l58 -552l-62 -23q-13 103 -33.5 177.5t-53.5 127t-72.5 85t-99.5 50.5t-125 24.5t-159 6.5h-104l-105 -594h95
q59 0 97 11t76.5 46t72 103t69.5 180h57q-93 -471 -141 -795h-57q2 27 2 72q0 92 -10.5 149.5t-36 88t-58.5 41t-88 10.5h-96l-88 -502q-4 -25 -4 -53q0 -41 21.5 -56.5t78.5 -15.5h84q72 0 125.5 5t109 17.5t99.5 36t90 59.5t88 89t86 123.5t92 163.5z" />
    <glyph glyph-name="F" unicode="F" horiz-adv-x="1355" 
d="M1354 1513l57 -552l-61 -23q-13 103 -33.5 177.5t-53.5 127t-72.5 85t-99.5 50.5t-125 24.5t-159 6.5h-86l-109 -614h80q82 0 133 27.5t93 99.5t88 213h57q-86 -438 -139 -795h-60q2 29 2 76q0 115 -19 176t-58.5 84.5t-112.5 23.5h-80l-76 -424q-8 -41 -8 -79
q0 -69 42.5 -99t147.5 -39l-10 -59h-729l10 59q110 10 153 46t60 131l185 1032q6 40 6 61q0 58 -35 82.5t-125 32.5l10 59h695q278 0 432 10z" />
    <glyph glyph-name="G" unicode="G" horiz-adv-x="1554" 
d="M840 668h721l-11 -60q-100 -9 -139.5 -41t-52.5 -118l-60 -330q-61 -8 -170 -49q-79 -28 -126.5 -43t-127 -31t-149.5 -16q-290 0 -456.5 162t-166.5 438q0 157 45.5 302t129.5 260.5t197 202t255 133t297 46.5q75 0 138.5 -19t111 -38t82.5 -19q26 0 43 13.5t35 51.5h28
l-43 -544l-57 -8q-34 469 -340 469q-114 0 -219.5 -74.5t-182.5 -198.5t-123 -293.5t-46 -351.5q0 -204 76 -321t212 -117q105 0 240 86l39 231q8 44 8 78q0 70 -44 100t-155 39z" />
    <glyph glyph-name="H" unicode="H" horiz-adv-x="1644" 
d="M1061 1503h692l-10 -59q-110 -9 -153 -44t-60 -132l-184 -1032q-7 -44 -7 -62q0 -58 35 -82.5t125 -32.5l-10 -59h-694l12 59q110 10 153 46t60 131l86 485h-506l-86 -485q-6 -38 -6 -62q0 -58 34.5 -82.5t123.5 -32.5l-11 -59h-692l10 59q110 10 153 46t60 131l185 1032
q6 38 6 61q0 58 -35 82.5t-125 32.5l10 59h695l-13 -59q-110 -9 -153 -44t-60 -132l-80 -453h506l80 453q6 38 6 61q0 58 -34.5 82.5t-122.5 32.5z" />
    <glyph glyph-name="I" unicode="I" horiz-adv-x="811" 
d="M227 1503h695l-13 -59q-110 -9 -153 -44t-60 -132l-182 -1032q-6 -38 -6 -62q0 -58 34.5 -82.5t123.5 -32.5l-11 -59h-692l10 59q110 10 153 46t60 131l185 1032q6 38 6 61q0 58 -35 82.5t-125 32.5z" />
    <glyph glyph-name="J" unicode="J" horiz-adv-x="780" 
d="M217 1503h694l-12 -59q-110 -9 -154 -45t-61 -131l-143 -817q-43 -247 -211.5 -433t-399.5 -243l-8 43q119 82 176 187.5t92 309.5l168 953q7 44 7 63q0 58 -34.5 81.5t-123.5 31.5z" />
    <glyph glyph-name="K" unicode="K" horiz-adv-x="1589" 
d="M508 174q0 -58 34.5 -82.5t123.5 -32.5l-11 -59h-692l10 59q110 10 153 46t60 131l185 1032q6 38 6 61q0 58 -35 82.5t-125 32.5l10 59h695l-13 -59q-110 -9 -153 -44t-60 -132l-182 -1032q-6 -38 -6 -62zM1630 1444q-85 -3 -150 -29.5t-153 -109.5l-366 -347
q91 -201 154.5 -335t118.5 -237t91.5 -160t75 -94.5t68.5 -51.5t71 -21l-12 -59h-234q-51 0 -84.5 3t-73.5 15.5t-69 34.5t-66.5 62.5t-71 97t-78 141t-91.5 191t-107 250.5l467 436q34 32 53.5 51t37.5 45.5t18 44.5q0 61 -168 72l10 59h571z" />
    <glyph glyph-name="L" unicode="L" horiz-adv-x="1378" 
d="M1313 584l55 -21l-274 -573q-159 10 -428 10h-703l10 59q110 10 153 46t60 131l185 1032q6 38 6 61q0 58 -35 82.5t-125 32.5l10 59h731l-12 -59q-134 -12 -185 -54t-73 -159l-180 -1028q-4 -23 -4 -49q0 -35 17.5 -47.5t62.5 -12.5h61q81 0 139 6.5t118.5 25t108.5 51.5
t99 87.5t100 133t103 186.5z" />
    <glyph glyph-name="M" unicode="M" horiz-adv-x="1996" 
d="M1833 1278l-98 -1040q-2 -20 -2 -50q0 -63 34 -91.5t131 -37.5l-10 -59h-731l12 59q134 11 182.5 47.5t57.5 139.5l94 960l-696 -1226h-41l-260 1220l-246 -924q-16 -66 -16 -102q0 -57 40 -82t140 -33l-10 -59h-500l10 59q114 11 159 45.5t71 133.5l278 1040
q10 48 10 70q0 46 -35.5 67t-123.5 29l10 59h491l211 -1003l566 1003h477l-10 -59q-61 -4 -98 -15.5t-57.5 -34t-28 -47.5t-11.5 -69z" />
    <glyph glyph-name="N" unicode="N" horiz-adv-x="1546" 
d="M1171 1503h502l-12 -59q-110 -9 -153 -44t-60 -132l-229 -1288h-58l-721 1155l-151 -859q-8 -44 -8 -79q0 -71 43 -100.5t149 -37.5l-10 -59h-500l10 59q110 10 153 46t60 131l187 1042q4 46 4 57q0 54 -35 77.5t-125 31.5l10 59h391l603 -983l122 707q9 49 9 82
q0 70 -42 98.5t-149 36.5z" />
    <glyph glyph-name="O" unicode="O" horiz-adv-x="1611" 
d="M709 -20q-283 0 -445 161t-162 434q0 196 69 372t186 302.5t279.5 200.5t342.5 74q281 0 442.5 -161.5t161.5 -434.5q0 -195 -68.5 -371t-185 -302.5t-278.5 -200.5t-342 -74zM725 74q129 0 247 131.5t189.5 347.5t71.5 451q0 199 -70 312.5t-198 113.5
q-130 0 -249 -131.5t-191 -347.5t-72 -451q0 -198 72 -312t200 -114z" />
    <glyph glyph-name="P" unicode="P" horiz-adv-x="1404" 
d="M985 1503q227 0 360.5 -92t133.5 -246q0 -143 -93 -259t-257.5 -181.5t-366.5 -65.5h-47v95h45q147 0 253.5 125t106.5 297q0 108 -61 170.5t-168 62.5h-170l-201 -1133q-8 -41 -8 -79q0 -69 42.5 -99t147.5 -39l-10 -59h-729l10 59q110 10 153 46t60 131l185 1032
q6 40 6 61q0 58 -35 82.5t-125 32.5l10 59h758z" />
    <glyph glyph-name="Q" unicode="Q" horiz-adv-x="1611" 
d="M950 14q102 -155 168.5 -229t124.5 -101.5t148 -33.5l-9 -60h-190q-57 0 -91.5 1.5t-78 7.5t-72.5 17t-66.5 31t-69 48.5t-72 71t-83 97.5t-94.5 128q-219 38 -341 192.5t-122 390.5q0 196 69 372t186 302.5t279.5 200.5t342.5 74q281 0 442.5 -161.5t161.5 -434.5
q0 -325 -176.5 -576.5t-456.5 -337.5zM965 1430q-130 0 -249 -131.5t-191 -347.5t-72 -451q0 -198 72 -312t200 -114q129 0 247 131.5t189.5 347.5t71.5 451q0 199 -70 312.5t-198 113.5z" />
    <glyph glyph-name="R" unicode="R" horiz-adv-x="1576" 
d="M1102 725q68 -173 115.5 -282.5t87 -185.5t75 -115.5t67.5 -57.5t77 -25l-11 -59h-229q-47 0 -76.5 2.5t-65 13t-60 29t-56 52.5t-58.5 81.5t-61.5 119t-70.5 161.5t-82 211h-164l-70 -394q-8 -41 -8 -79q0 -69 42.5 -99t147.5 -39l-10 -59h-729l10 59q110 10 153 46
t60 131l185 1032q6 40 6 61q0 58 -35 82.5t-125 32.5l10 59h758q229 0 362.5 -88t133.5 -237q0 -150 -102.5 -270.5t-276.5 -182.5zM721 1409l-115 -645h156q149 0 253.5 121.5t104.5 290.5q0 108 -61 170.5t-168 62.5h-170z" />
    <glyph glyph-name="S" unicode="S" horiz-adv-x="1304" 
d="M555 -20q-76 0 -145 18.5t-121.5 37.5t-89.5 19q-30 0 -49.5 -13.5t-40.5 -51.5h-31l-6 553l59 14q40 -219 158 -351t274 -132q155 0 249.5 68.5t94.5 179.5q0 35 -16.5 67.5t-40.5 57.5t-66.5 54t-77 48.5t-90.5 48.5q-51 26 -84 44.5t-79.5 47.5t-77 54t-64 59.5
t-53 69.5t-32.5 79t-13 92q0 207 162.5 343.5t408.5 136.5q74 0 142 -19.5t120.5 -39t88.5 -19.5q27 0 45.5 14t36.5 53h28l12 -530l-57 -12q-32 205 -151.5 332t-278.5 127q-115 0 -194.5 -53t-79.5 -142q0 -40 18.5 -78t45.5 -67.5t74 -63.5t86 -57t99 -56
q52 -29 82.5 -46t77.5 -47t75 -53t62 -56t52.5 -64.5t31 -71t12.5 -81.5q0 -144 -86.5 -262t-237 -185t-333.5 -67z" />
    <glyph glyph-name="T" unicode="T" horiz-adv-x="1421" 
d="M1423 1540l52 -579l-60 -21q-23 151 -50.5 242t-71.5 142t-97 68t-139 17h-31l-207 -1165q-6 -38 -6 -64q0 -61 39 -86.5t143 -34.5l-10 -59h-739l10 59q127 10 174 47.5t64 137.5l206 1165h-30q-85 0 -143 -16t-120.5 -66t-123.5 -142t-138 -245l-51 21l254 579h4
q74 -22 157 -29.5t253 -7.5h235q163 0 250 6.5t172 30.5h4z" />
    <glyph glyph-name="U" unicode="U" horiz-adv-x="1531" 
d="M1165 1503h502l-12 -59q-110 -9 -153 -44t-62 -132l-137 -774q-41 -239 -196 -376.5t-384 -137.5q-524 0 -524 393q0 41 12 135l133 760q6 38 6 61q0 58 -34.5 82.5t-122.5 32.5l10 59h731l-10 -59q-133 -9 -185 -46.5t-69 -137.5l-142 -805q-8 -44 -8 -95
q0 -133 73 -209.5t202 -76.5q153 0 265.5 108t143.5 285l133 760q9 49 9 82q0 70 -42 98.5t-149 36.5z" />
    <glyph glyph-name="V" unicode="V" horiz-adv-x="1519" 
d="M1186 1503h516l-10 -59q-92 -12 -146.5 -57.5t-136.5 -182.5l-729 -1224h-43l-313 1312q-23 91 -57.5 120t-123.5 32l13 59h766l-11 -59q-134 -10 -183.5 -39t-49.5 -88q0 -30 18 -111l172 -751l365 620q66 110 96.5 173t30.5 102q0 44 -43 66t-141 28z" />
    <glyph glyph-name="W" unicode="W" horiz-adv-x="2181" 
d="M1821 1503h542l-10 -59q-99 -12 -156.5 -62.5t-125.5 -177.5l-660 -1224h-43l-194 1017l-560 -1017h-43l-245 1312q-17 90 -53 119.5t-126 32.5l11 59h796l-12 -59q-150 -10 -204 -41.5t-54 -95.5q0 -29 14 -101l127 -676l537 994h43l194 -1018l295 569q63 118 89 176
t26 97q0 47 -45.5 68.5t-155.5 27.5z" />
    <glyph glyph-name="X" unicode="X" horiz-adv-x="1509" 
d="M1642 1444q-56 -6 -106 -27.5t-103 -66t-101.5 -97.5t-119.5 -139l-247 -301l229 -485q27 -59 41.5 -87.5t38.5 -68t43.5 -58.5t48 -35t61.5 -20l-10 -59h-776l10 59q119 6 170 33.5t51 81.5q0 46 -53 162l-149 313l-176 -217q-85 -106 -125.5 -168.5t-40.5 -105.5
q0 -85 188 -99l-10 -59h-604l10 59q114 17 204 85t236 249l277 342l-230 484q-61 127 -100.5 172.5t-112.5 52.5l11 59h768l-11 -59q-115 -6 -163 -35.5t-48 -81.5q0 -48 50 -153l129 -275l139 168q89 109 132.5 176.5t43.5 112.5q0 80 -182 88l10 59h588z" />
    <glyph glyph-name="Y" unicode="Y" horiz-adv-x="1468" 
d="M1079 1503h582l-12 -59q-115 -13 -213.5 -85t-216.5 -245l-301 -446l-76 -424q-6 -40 -6 -64q0 -61 39 -86.5t143 -34.5l-10 -59h-740l11 59q126 10 173 47t64 138l76 430l-189 551q-40 120 -87 165.5t-126 53.5l13 59h760l-11 -59q-112 -6 -156 -31.5t-44 -79.5
q0 -43 34 -159l117 -379l184 272q82 122 119 188.5t37 106.5t-41.5 59.5t-134.5 22.5z" />
    <glyph glyph-name="Z" unicode="Z" horiz-adv-x="1404" 
d="M760 94q77 0 129.5 9.5t106.5 37t97.5 79.5t88.5 135t94 206l57 -12l-164 -559q-242 10 -733 10h-485v6l1091 1403h-321q-88 0 -148 -16t-121.5 -65.5t-118 -140.5t-124.5 -241l-57 12l225 555q195 -10 682 -10h436l2 -4l-1091 -1405h354z" />
    <glyph glyph-name="bracketleft" unicode="[" horiz-adv-x="776" 
d="M387 1667h578l-13 -59q-162 -13 -223 -60.5t-84 -177.5l-270 -1528q-8 -47 -8 -80q0 -79 51.5 -112.5t181.5 -44.5l-10 -60h-578l43 248l287 1626z" />
    <glyph glyph-name="backslash" unicode="\" horiz-adv-x="1036" 
d="M768 -221l-535 1839l97 41l534 -1839z" />
    <glyph glyph-name="bracketright" unicode="]" horiz-adv-x="776" 
d="M209 1667h577l-43 -248l-286 -1626l-45 -248h-578l12 60q161 13 223 61t85 176l268 1528q8 44 8 82q0 79 -50.5 112t-180.5 44z" />
    <glyph glyph-name="asciicircum" unicode="^" horiz-adv-x="970" 
d="M995 903h-114l-226 590l-436 -590h-113l553 748h46z" />
    <glyph glyph-name="underscore" unicode="_" horiz-adv-x="1353" 
d="M-115 -236l31 80h1294l-30 -80h-1295z" />
    <glyph glyph-name="grave" unicode="`" horiz-adv-x="880" 
d="M584 1155q-123 96 -216.5 180.5t-127.5 126.5q-31 39 -31 84q0 46 37 81.5t84 35.5q31 0 59 -15.5t45 -41.5q62 -88 187 -424z" />
    <glyph glyph-name="a" unicode="a" horiz-adv-x="1241" 
d="M1143 352l41 -24q-47 -160 -139 -254t-201 -94q-76 0 -121 37t-45 116q0 13 4 53l35 195q-89 -219 -188 -310t-238 -91q-114 0 -179 97t-65 265q0 213 77 390t213 279.5t300 102.5q124 0 211 -80q184 31 305 80h4l-158 -895q-4 -14 -4 -26q0 -29 23 -29t56 50.5t69 137.5
zM473 188q51 0 99.5 66t106 222.5t128.5 422.5q-12 59 -47 91t-80 32q-80 0 -151 -83.5t-112.5 -221.5t-41.5 -291q0 -109 26 -173.5t72 -64.5z" />
    <glyph glyph-name="b" unicode="b" horiz-adv-x="1163" 
d="M877 1114q114 0 178.5 -97t64.5 -265q0 -213 -83 -390.5t-228 -279.5t-320 -102q-187 0 -289 100t-102 299q0 62 13 151l145 836q8 47 -16 62.5t-107 15.5l8 55q115 22 244.5 63t226.5 87h4l-167 -947q91 225 190 318.5t238 93.5zM481 72q82 0 155 83.5t116 221.5t43 291
q0 108 -27.5 172.5t-73.5 64.5q-71 0 -142 -141t-167 -485q-10 -58 -10 -89q0 -61 29.5 -89.5t76.5 -28.5z" />
    <glyph glyph-name="c" unicode="c" horiz-adv-x="1069" 
d="M848 578q-50 0 -82 20v436q-24 4 -41 4q-90 0 -170.5 -73.5t-128 -195t-47.5 -257.5q0 -149 73.5 -236.5t204.5 -87.5q74 0 155.5 38t133.5 102l33 -25q-79 -146 -219.5 -234.5t-288.5 -88.5q-196 0 -308 116.5t-112 315.5q0 195 86.5 356.5t237 253.5t332.5 92
q159 0 251.5 -79t92.5 -212q0 -116 -60 -180.5t-143 -64.5zM844 989l-17 17z" />
    <glyph glyph-name="d" unicode="d" horiz-adv-x="1241" 
d="M1018 164q23 0 56 50.5t69 137.5l41 -24q-47 -160 -139 -254t-201 -94q-76 0 -121 37t-45 116q0 13 4 53l35 193q-89 -218 -188 -308.5t-238 -90.5q-114 0 -179 97t-65 265q0 213 77 390t213 279.5t300 102.5q117 0 197 -67l57 319q8 47 -16 62.5t-107 15.5l8 55
q115 22 244.5 63t226.5 87h4l-252 -1430q-4 -14 -4 -26q0 -29 23 -29zM473 188q51 0 99.5 66t106 222.5t128.5 422.5q-12 59 -47 91t-80 32q-80 0 -151 -83.5t-112.5 -221.5t-41.5 -291q0 -109 26 -173.5t72 -64.5z" />
    <glyph glyph-name="e" unicode="e" horiz-adv-x="1062" 
d="M664 188q74 0 156.5 38.5t142.5 101.5l34 -25q-83 -146 -226.5 -234.5t-297.5 -88.5q-196 0 -309 116.5t-113 315.5q0 193 85 354.5t232.5 254.5t323.5 93q157 0 247.5 -58t90.5 -155q0 -60 -37 -114.5t-99 -96t-147 -76.5t-177 -58.5t-193 -39.5v-2q0 -150 76.5 -238
t210.5 -88zM676 1036q-101 0 -188.5 -133t-106.5 -309q182 38 285.5 127t103.5 219q0 43 -25.5 69.5t-68.5 26.5z" />
    <glyph glyph-name="f" unicode="f" horiz-adv-x="729" 
d="M557 1413q-57 -89 -68 -182q-1 -56 24.5 -92.5t70.5 -44.5h247l-47 -121h-221l-145 -813q-40 -230 -187 -393t-346 -197l-8 43q93 72 137.5 162.5t71.5 249.5l164 948h-137l18 88l141 20q26 89 89 189.5t142.5 185t173.5 140t175 55.5q63 0 101 -33t38 -88
q0 -53 -33 -117h-401z" />
    <glyph glyph-name="g" unicode="g" horiz-adv-x="1175" 
d="M1157 1114h4l-94 -512l-10 -61q-84 -447 -313.5 -709t-530.5 -262q-91 0 -143 41.5t-52 109.5q0 42 19 76l563 2q81 84 116.5 237t49.5 441l2 31q-102 -292 -209 -410t-264 -118q-114 0 -179 97t-65 265q0 213 77 390t213 279.5t300 102.5q124 0 211 -80q184 31 305 80z
M477 188q51 0 99.5 66t106 222.5t128.5 422.5q-12 59 -47 91t-80 32q-80 0 -151 -83.5t-112.5 -221.5t-41.5 -291q0 -109 26 -173.5t72 -64.5z" />
    <glyph glyph-name="h" unicode="h" horiz-adv-x="1251" 
d="M1159 352l41 -24q-50 -160 -141.5 -254t-198.5 -94q-76 0 -122 37t-46 116q0 23 6 53l111 637q2 14 2 27q0 43 -39 43q-74 0 -180 -189t-215 -546l-27 -158h-309l242 1366q8 47 -16.5 62.5t-108.5 15.5l10 55q115 22 245 63.5t224 86.5h4l-184 -1037q64 145 135.5 248.5
t138.5 156t124 75t112 22.5q75 0 120.5 -42t45.5 -122q0 -22 -5 -53l-114 -678q-2 -14 -2 -26q0 -29 22 -29q23 0 56 50.5t69 137.5z" />
    <glyph glyph-name="i" unicode="i" horiz-adv-x="679" 
d="M508 1606q75 0 123.5 -47t48.5 -119q0 -82 -55 -135.5t-138 -53.5q-76 0 -126 47t-50 119q0 82 56 135.5t141 53.5zM459 164q23 0 56 50.5t69 137.5l41 -24q-47 -160 -139 -254t-201 -94q-76 0 -121 37t-45 116q0 13 4 53l123 688q2 14 2 27q0 17 -5.5 23t-17.5 6
q-23 0 -56 -50.5t-69 -138.5l-39 25q47 160 139 254t199 94q76 0 122 -37t46 -116q0 -24 -6 -54l-121 -688q-4 -14 -4 -26q0 -29 23 -29z" />
    <glyph glyph-name="j" unicode="j" horiz-adv-x="632" 
d="M514 1606q75 0 124.5 -47t49.5 -119q0 -82 -55.5 -135.5t-138.5 -53.5q-75 0 -125 47t-50 119q0 82 55.5 135.5t139.5 53.5zM408 1114q76 0 120.5 -37t44.5 -116q0 -14 -4 -54l-133 -747q-40 -231 -186.5 -393.5t-345.5 -196.5l-8 43q93 72 137 162.5t71 249.5l148 849
q4 14 4 27q0 29 -23 29q-47 0 -124 -189l-41 25q47 160 139 254t201 94z" />
    <glyph glyph-name="k" unicode="k" horiz-adv-x="1234" 
d="M1167 340l43 -21q-35 -164 -115.5 -251.5t-193.5 -87.5q-78 0 -130.5 36.5t-90.5 120.5l-203 389l76 21q125 40 198.5 113t73.5 159q0 51 -29.5 82t-78.5 31t-108.5 -37.5t-121.5 -118.5l-137 -776h-309l242 1366q8 47 -16.5 62.5t-108.5 15.5l10 55q115 22 245 63.5
t224 86.5h4l-133 -752q85 103 192.5 160t212.5 57q106 0 171 -53t65 -139q0 -94 -86.5 -187t-237.5 -160l154 -296q25 -47 45.5 -70t42.5 -23q32 0 55 38.5t45 115.5z" />
    <glyph glyph-name="l" unicode="l" horiz-adv-x="636" 
d="M414 164q23 0 56 50.5t69 137.5l41 -24q-50 -160 -141.5 -254t-198.5 -94q-76 0 -122 37t-46 116q0 23 6 53l209 1180q8 47 -16.5 62.5t-108.5 15.5l10 55q115 22 245 63.5t224 86.5h4l-252 -1430q-2 -14 -2 -26q0 -29 23 -29z" />
    <glyph glyph-name="m" unicode="m" horiz-adv-x="1908" 
d="M1817 352l41 -24q-47 -160 -139 -254t-201 -94q-76 0 -121 37t-45 116q0 13 4 53l112 637q2 14 2 27q0 43 -40 43q-71 0 -175.5 -190t-207.5 -545l-27 -158h-311l145 823q2 14 2 27q0 43 -41 43q-71 0 -175.5 -190t-207.5 -545l-29 -158h-309l156 874q2 14 2 27
q0 29 -23 29t-56 -50.5t-69 -138.5l-41 25q50 160 141.5 254t198.5 94q76 0 122 -37t46 -116q0 -24 -6 -54l-49 -280q62 140 131.5 240.5t134.5 151.5t120.5 73t107.5 22q75 0 121.5 -42t46.5 -122q0 -28 -4 -53l-50 -281q64 143 134 245.5t135.5 155t121.5 75t109 22.5
q75 0 121.5 -42t46.5 -122q0 -28 -4 -53l-115 -678q-4 -14 -4 -26q0 -29 23 -29t56 50.5t69 137.5z" />
    <glyph glyph-name="n" unicode="n" horiz-adv-x="1304" 
d="M1212 352l41 -24q-47 -159 -139.5 -253.5t-200.5 -94.5q-76 0 -122 37t-46 116q0 18 7 53l110 637q4 14 4 27q0 43 -41 43q-74 0 -180 -189t-213 -546l-29 -158h-309l156 874q2 14 2 27q0 29 -23 29t-56 -50.5t-69 -138.5l-41 25q50 160 141.5 254t198.5 94q76 0 122 -37
t46 -116q0 -24 -6 -54l-51 -291q64 143 134.5 245.5t137.5 155t123.5 75t110.5 22.5q75 0 121.5 -42t46.5 -122q0 -28 -4 -53l-117 -678q-2 -14 -2 -26q0 -29 22 -29q23 0 56 50.5t69 137.5z" />
    <glyph glyph-name="o" unicode="o" horiz-adv-x="1214" 
d="M510 -20q-214 0 -335.5 118.5t-121.5 321.5q0 144 51 272.5t138 221t209 146.5t258 54q212 0 333 -119t121 -321q0 -144 -51 -272.5t-137.5 -221t-208 -146.5t-256.5 -54zM522 55q75 0 149.5 108t121.5 277t47 336q0 122 -38.5 192t-105.5 70q-76 0 -151 -108
t-121.5 -277t-46.5 -336q0 -122 38 -192t107 -70z" />
    <glyph glyph-name="p" unicode="p" horiz-adv-x="1245" 
d="M956 1114q114 0 179 -97t65 -265q0 -213 -77 -390t-213 -279.5t-300 -102.5q-111 0 -196 65l-39 -227q-9 -47 15.5 -62.5t107.5 -15.5l-9 -55q-278 -42 -464 -111h-5l230 1300q2 14 2 27q0 29 -23 29t-56 -50.5t-69 -138.5l-41 25q50 160 141.5 254t198.5 94
q76 0 122 -37t46 -116q0 -24 -6 -54l-35 -198q89 221 188 313t238 92zM569 72q80 0 151 83.5t112.5 221.5t41.5 291q0 109 -27 173t-73 64q-50 0 -98 -65.5t-105.5 -222t-128.5 -422.5q10 -59 46 -91t81 -32z" />
    <glyph glyph-name="q" unicode="q" horiz-adv-x="1193" 
d="M922 -266q0 -43 25.5 -61t90.5 -23l-10 -60h-618l12 60q104 9 145 43t58 127l100 569q-91 -224 -190.5 -316.5t-239.5 -92.5q-114 0 -179 97t-65 265q0 213 77 390t213 279.5t300 102.5q124 0 211 -80q184 31 305 80h4l-235 -1335q-4 -23 -4 -45zM477 188q51 0 99.5 66
t106 222.5t128.5 422.5q-12 59 -47 91t-80 32q-80 0 -151 -83.5t-112.5 -221.5t-41.5 -291q0 -109 26 -173.5t72 -64.5z" />
    <glyph glyph-name="r" unicode="r" horiz-adv-x="1019" 
d="M1085 983q0 -72 -45 -133h-301q-110 -183 -307 -692l-29 -158h-309l156 874q2 14 2 27q0 29 -23 29t-56 -50.5t-69 -138.5l-41 25q50 160 141.5 254t198.5 94q76 0 122 -37t46 -116q0 -24 -6 -54l-65 -370q59 144 111 247t95.5 166.5t87 100.5t80 50t80.5 13
q61 0 96 -35.5t35 -95.5z" />
    <glyph glyph-name="s" unicode="s" horiz-adv-x="1005" 
d="M625 668q55 -29 86 -46.5t76.5 -49t69.5 -59t42.5 -66t18.5 -80.5q0 -106 -67 -195t-183.5 -140.5t-255.5 -51.5q-191 0 -292.5 66.5t-101.5 182.5q0 82 49.5 128t118.5 46q52 0 84 -20v-311q49 -17 148 -17q105 0 169 40.5t64 107.5q0 28 -13.5 54.5t-32 46t-53 42.5
t-60.5 37t-72 37q-49 25 -73 38.5t-66 39.5t-64.5 47.5t-47 52t-35.5 65t-11 74.5q0 158 128 267.5t314 109.5q178 0 282.5 -65.5t104.5 -174.5q0 -72 -50 -112.5t-120 -40.5q-54 0 -82 20v275q-51 22 -139 22q-80 0 -137 -33.5t-57 -89.5q0 -32 15 -62t36 -52.5t59.5 -48.5
t68.5 -42.5t79 -41.5z" />
    <glyph glyph-name="t" unicode="t" horiz-adv-x="790" 
d="M559 973l-123 -697q-6 -40 -6 -65q0 -34 15.5 -49t50.5 -15q44 0 95.5 48.5t102.5 150.5l43 -27q-76 -171 -181.5 -255t-221.5 -84q-102 0 -160.5 53.5t-58.5 146.5q0 33 4 58l131 735h-139l18 88l147 20l68 285h279l-52 -272h295l-43 -121h-264z" />
    <glyph glyph-name="u" unicode="u" horiz-adv-x="1296" 
d="M1196 352l39 -24q-47 -160 -139 -254t-199 -94q-76 0 -122 37t-46 116q0 23 6 53l49 283q-51 -114 -107 -202t-106.5 -141t-103 -87t-95 -46.5t-83.5 -12.5q-75 0 -120.5 41.5t-45.5 121.5q0 29 4 54l115 677q2 14 2 27q0 17 -5.5 23t-17.5 6q-44 0 -125 -189l-39 25
q47 160 139 254t201 94q75 0 120.5 -37t45.5 -116q0 -24 -6 -54l-111 -637q-2 -14 -2 -26q0 -43 41 -43q71 0 174.5 189.5t208.5 545.5l27 158h311l-155 -875q-2 -14 -2 -26q0 -17 5 -23t17 -6q23 0 56 50.5t69 137.5z" />
    <glyph glyph-name="v" unicode="v" horiz-adv-x="1036" 
d="M903 1114q63 0 101 -46t38 -122q0 -302 -624 -966h-41l-193 901q-8 32 -26 32q-39 0 -107 -172l-39 25q59 175 133.5 261.5t176.5 86.5q69 0 119 -44.5t67 -131.5l110 -594q107 137 168 229v510q39 31 117 31z" />
    <glyph glyph-name="w" unicode="w" horiz-adv-x="1615" 
d="M1477 1114q62 0 99.5 -46t37.5 -122q0 -300 -584 -966h-41l-125 522q-142 -223 -403 -522h-41l-234 911q-8 35 -28 35q-40 0 -105 -185l-39 25q57 176 127 262t166 86q74 0 128 -45.5t77 -132.5l145 -578q120 171 177 271l-111 465h338l166 -734q88 124 131 193v530
q42 31 119 31z" />
    <glyph glyph-name="x" unicode="x" horiz-adv-x="1157" 
d="M1143 850h-305q-48 -75 -119 -219l160 -357q36 -86 73 -86q29 0 48 34t40 118l43 -21q-30 -158 -105 -248.5t-185 -90.5q-92 0 -138.5 41.5t-87.5 140.5l-86 190q-56 -113 -105 -188t-94.5 -114.5t-85 -54.5t-85.5 -15q-61 0 -97.5 35.5t-36.5 95.5q0 68 48 133h307
q51 83 108 202l-168 373q-36 86 -73 86q-28 0 -48 -34.5t-40 -116.5l-43 20q32 158 107 249t183 91q92 0 139.5 -41.5t86.5 -140.5l94 -209q57 119 107.5 198t97.5 120.5t87.5 57t88.5 15.5q60 0 95.5 -35.5t35.5 -95.5q0 -70 -47 -133z" />
    <glyph glyph-name="y" unicode="y" horiz-adv-x="1230" 
d="M895 1094h311l-88 -492l-12 -61q-84 -447 -313 -709t-529 -262q-92 0 -144 41t-52 110q0 46 20 76l561 2q82 85 118 238.5t50 439.5l8 84q-66 -169 -141.5 -289t-146.5 -180.5t-131 -86t-117 -25.5q-75 0 -120.5 41.5t-45.5 121.5q0 29 4 54l115 677q2 14 2 27
q0 17 -5.5 23t-17.5 6q-44 0 -125 -189l-39 25q47 160 139 254t201 94q75 0 120.5 -37t45.5 -116q0 -24 -6 -54l-111 -637q-2 -14 -2 -26q0 -43 41 -43q71 0 174.5 189.5t208.5 545.5z" />
    <glyph glyph-name="z" unicode="z" horiz-adv-x="1054" 
d="M807 236q60 0 91 28t60 109l43 -21q-23 -92 -49 -155.5t-64.5 -115t-94.5 -76.5t-131 -25q-224 0 -500 155l-142 -145l-53 53l758 788h-231q-177 0 -250.5 -34t-114.5 -135l-49 10l158 432q202 -10 598 -10h251l3 -4l-701 -721q111 -63 227.5 -98t190.5 -35z" />
    <glyph glyph-name="braceleft" unicode="{" horiz-adv-x="735" 
d="M891 1640q-177 -93 -249.5 -166t-72.5 -178q0 -63 21 -166q22 -112 22 -188q0 -151 -93 -231t-271 -103q140 -20 205 -73.5t65 -141.5t-29 -157.5t-83 -153.5q-48 -73 -72.5 -129.5t-24.5 -122.5t49 -123.5t168 -132.5l-32 -49q-260 98 -365.5 179.5t-105.5 176.5
q0 53 17 106t34 83.5t51 83.5q37 59 53.5 89.5t34.5 88t18 114.5q0 132 -172 132h-12l10 59h13q237 0 237 246q0 70 -22 182q-21 100 -21 170q0 95 57 167.5t188.5 140.5t364.5 145z" />
    <glyph glyph-name="bar" unicode="|" horiz-adv-x="481" 
d="M16 -426l363 2056l108 17l-362 -2057z" />
    <glyph glyph-name="braceright" unicode="}" horiz-adv-x="735" 
d="M526 766q0 -129 172 -129h13l-11 -59h-12q-237 0 -237 -246q0 -73 22 -185q23 -109 23 -167q0 -141 -136 -242t-479 -213l-14 49q178 93 250.5 166t72.5 178q0 66 -20 164q-25 127 -25 190q0 290 365 334q-139 20 -203.5 73t-64.5 140q0 88 28.5 158.5t81.5 152.5
q34 55 49 82.5t31.5 76.5t16.5 95q0 64 -49.5 121.5t-168.5 134.5l33 48q260 -96 364.5 -179.5t104.5 -177.5q0 -53 -16.5 -105.5t-32.5 -81.5t-51 -85t-53 -88.5t-36 -90t-18 -114.5z" />
    <glyph glyph-name="asciitilde" unicode="~" horiz-adv-x="970" 
d="M657 453q-40 0 -85 10t-71 19.5t-75 29.5q-137 59 -219 59q-84 0 -139 -112l-45 12q36 122 123 209.5t190 87.5q38 0 79.5 -9.5t68.5 -19.5t73 -30q45 -19 74 -30t72 -20.5t83 -9.5q87 0 138 113l45 -12q-35 -122 -122.5 -209.5t-189.5 -87.5z" />
    <glyph glyph-name="uni00A0" unicode="&#xa0;" horiz-adv-x="487" 
 />
    <glyph glyph-name="exclamdown" unicode="&#xa1;" horiz-adv-x="632" 
d="M410 905q-95 0 -153 55t-58 142q0 88 66.5 152.5t158.5 64.5q95 0 153 -55t58 -142q0 -88 -66.5 -152.5t-158.5 -64.5zM182 -225q-77 0 -119.5 40.5t-42.5 110.5q0 168 154 457q118 249 156 403h59q-9 -167 10 -376q11 -98 16 -155.5t4.5 -134.5t-9.5 -147
q-13 -98 -78 -148t-150 -50z" />
    <glyph glyph-name="cent" unicode="&#xa2;" horiz-adv-x="1128" 
d="M909 782q-46 0 -80 19l-69 -406q68 9 135.5 45.5t110.5 91.5l32 -24q-52 -96 -133 -169.5t-176 -113.5l-43 -241l-96 16l35 195q-57 -11 -95 -11q-194 0 -305.5 116.5t-111.5 315.5q0 196 85.5 357t235.5 253.5t332 92.5q39 0 55 -2l37 203l96 -17l-36 -207
q92 -32 142 -101.5t50 -166.5q0 -116 -59 -181t-142 -65zM438 717q0 -131 58.5 -215.5t162.5 -104.5l150 844q-8 2 -25 2q-90 0 -170.5 -73.5t-128 -195t-47.5 -257.5zM905 1194l-4 4z" />
    <glyph glyph-name="sterling" unicode="&#xa3;" horiz-adv-x="1312" 
d="M1092 987q-48 0 -82 21v417q-35 5 -45 5q-153 0 -215 -56t-70 -166q-10 -66 -6 -186q8 -124 6 -197h397l-33 -88h-372q-21 -156 -109 -258.5t-262 -183.5h420q82 0 137 6t104 22.5t82.5 47.5t62 79t52.5 119l60 -12l-168 -567q-242 10 -734 10h-337v6q88 99 151 187.5
t99 156.5t57 140t27.5 124t9.5 123h-197l31 88h170q4 28 4 43q4 163 51.5 289.5t130.5 206t193 120t243 40.5q159 0 251.5 -79t92.5 -212q0 -116 -59.5 -181t-142.5 -65z" />
    <glyph glyph-name="currency" unicode="&#xa4;" horiz-adv-x="1351" 
d="M1159 862q0 -235 -137 -391l190 -233l-82 -72l-192 229q-132 -96 -307 -96q-174 0 -273 90l-268 -227l-59 71l272 230q-41 77 -41 180q0 237 144 397l-191 230l86 71l188 -229q131 92 302 92q176 0 274 -92l270 229l58 -71l-273 -234q39 -68 39 -174zM367 659
q0 -128 72.5 -197t207.5 -69q179 0 292.5 127t113.5 326q0 126 -72 195t-207 69q-180 0 -293.5 -126.5t-113.5 -324.5z" />
    <glyph glyph-name="yen" unicode="&#xa5;" horiz-adv-x="1499" 
d="M1061 1503h553l-12 -59q-107 -13 -200.5 -85.5t-205.5 -244.5l-270 -407h303l-31 -86h-293l-24 -150h305l-29 -88h-293l-24 -139q-6 -40 -6 -64q0 -61 39 -86.5t143 -34.5l-10 -59h-740l10 59q127 10 174 47.5t64 137.5l25 139h-289l29 88h276l25 150h-289l28 86h250
l-166 518q-38 120 -80.5 165.5t-111.5 53.5l10 59h742l-13 -59q-105 -6 -145.5 -31t-40.5 -80q0 -42 31 -159l100 -361l166 254q79 123 115 192t36 107t-37.5 56.5t-123.5 21.5z" />
    <glyph glyph-name="brokenbar" unicode="&#xa6;" horiz-adv-x="481" 
d="M233 807l146 823l108 17l-145 -824zM16 -426l146 823l108 17l-145 -824z" />
    <glyph glyph-name="section" unicode="&#xa7;" horiz-adv-x="950" 
d="M205 -432q-72 0 -115 34t-43 91q0 44 35 112h440q56 69 56 164q0 61 -29 140.5t-61 138.5t-93 162q-54 88 -86 145t-71 138.5t-57.5 157.5t-18.5 148q0 74 28 154t75 151t109 135.5t129 110.5t137 73.5t130 27.5q70 0 112 -33.5t42 -91.5q0 -57 -33 -113h-438
q-60 -72 -60 -164q0 -87 46 -188.5t136 -251.5q55 -88 87.5 -145t72.5 -139t59 -158t19 -148q0 -110 -61 -229.5t-151 -211t-198 -151t-198 -59.5zM672 4q11 18 24 68.5t13 109.5q0 69 -17 140t-55 151t-67 133t-83 142q-62 105 -95 167t-62.5 147t-28.5 152
q-37 -86 -37 -178q0 -69 17.5 -141.5t54 -150.5t67.5 -134.5t82 -140.5q94 -156 141 -262t46 -203z" />
    <glyph glyph-name="dieresis" unicode="&#xa8;" horiz-adv-x="1126" 
d="M317 1292q-61 0 -99 37t-38 96q0 64 46 112t110 48q61 0 98 -37t37 -96q0 -65 -45 -112.5t-109 -47.5zM686 1292q-61 0 -99 37t-38 96q0 64 46 112t110 48q61 0 98 -37t37 -96q0 -65 -45 -112.5t-109 -47.5z" />
    <glyph glyph-name="copyright" unicode="&#xa9;" horiz-adv-x="2052" 
d="M1063 -143q-206 0 -378 64.5t-292.5 180.5t-187 282.5t-66.5 365.5t66.5 365.5t187 282.5t292.5 180t378 64q205 0 377.5 -65t292.5 -181.5t187 -284t67 -366.5q0 -265 -115 -467t-325 -311.5t-484 -109.5zM1063 -45q240 0 423.5 98t283.5 277.5t100 414.5t-100 416.5
t-283.5 282t-423.5 100.5q-362 0 -584.5 -219t-222.5 -575q0 -176 58.5 -324t163.5 -251.5t255.5 -161.5t329.5 -58zM1071 156q-257 0 -414 163.5t-157 430.5q0 266 171 431t451 165q57 0 111.5 -15t94.5 -30t61 -15t32.5 10.5t18.5 40.5h24l95 -419l-48 -15
q-142 369 -393 369q-147 0 -236 -115.5t-89 -304.5q0 -232 115.5 -374t303.5 -142q96 0 189.5 47t144.5 127l41 -25q-64 -149 -207 -239t-309 -90z" />
    <glyph glyph-name="ordfeminine" unicode="&#xaa;" horiz-adv-x="1030" 
d="M1010 936l30 -18q-37 -123 -109 -196t-157 -73q-70 0 -106.5 40.5t-22.5 123.5l23 125q-66 -159 -139.5 -224t-176.5 -65q-89 0 -139.5 75.5t-50.5 205.5q0 164 59.5 300.5t163.5 215t229 78.5q95 0 160 -62q147 23 246 62h4l-123 -686q-8 -41 14 -41q15 0 42 39t53 100z
M500 817q53 0 108.5 121t132.5 422q-9 44 -34 67t-56 23q-90 0 -157.5 -137t-67.5 -316q0 -83 19.5 -131.5t54.5 -48.5z" />
    <glyph glyph-name="guillemotleft" unicode="&#xab;" horiz-adv-x="888" 
d="M563 1034l-260 -432l109 -434l-45 -25l-279 435l8 47l430 434zM883 1034l-260 -432l108 -434l-45 -25l-278 435l8 47l430 434z" />
    <glyph glyph-name="logicalnot" unicode="&#xac;" horiz-adv-x="970" 
d="M133 780h778l-63 -368h-103l50 274h-678z" />
    <glyph glyph-name="uni00AD" unicode="&#xad;" horiz-adv-x="966" 
d="M117 543l47 121h704l-47 -121h-704z" />
    <glyph glyph-name="registered" unicode="&#xae;" horiz-adv-x="1241" 
d="M723 1651q239 0 384.5 -138.5t145.5 -367.5t-145.5 -367.5t-384.5 -138.5q-238 0 -384 139t-146 367t146 367t384 139zM723 723q196 0 314 115.5t118 306.5t-118 306.5t-314 115.5q-195 0 -312.5 -115.5t-117.5 -306.5t117.5 -306.5t312.5 -115.5zM848 1143
q64 -103 100.5 -152t58.5 -66t52 -22v-24h-105q-41 0 -63 5t-53.5 29t-64.5 71t-87 134h-41v-135q0 -41 17.5 -57.5t68.5 -22.5v-24h-307v24q42 5 57 18t15 46v366q0 33 -15 46.5t-57 19.5v22h305q106 0 171 -38t65 -99q0 -47 -30.5 -84t-86.5 -57zM645 1384v-229h49
q46 0 75.5 33.5t29.5 87.5q0 50 -29.5 79t-77.5 29h-47z" />
    <glyph glyph-name="macron" unicode="&#xaf;" horiz-adv-x="1085" 
d="M152 1380l32 95h660l-35 -95h-657z" />
    <glyph glyph-name="degree" unicode="&#xb0;" horiz-adv-x="892" 
d="M573 926q-169 0 -272.5 99t-103.5 263q0 163 103.5 263t272.5 100q170 0 273.5 -100t103.5 -263q0 -164 -103.5 -263t-273.5 -99zM573 1075q94 0 151.5 58.5t57.5 154.5t-57.5 154.5t-151.5 58.5t-151 -58t-57 -155t57 -155t151 -58z" />
    <glyph glyph-name="plusminus" unicode="&#xb1;" horiz-adv-x="970" 
d="M582 786h336l-15 -94h-338l-51 -291h-102l51 291h-338l14 94h340l51 291h103zM43 231l16 95h779l-17 -95h-778z" />
    <glyph glyph-name="uni00B2" unicode="&#xb2;" horiz-adv-x="763" 
d="M739 961l35 -9l-88 -299q-129 6 -426 6h-207l-2 5q55 57 168 151q50 43 75.5 65.5t67.5 62.5t64 68.5t46.5 65t35 71.5t10.5 71q0 51 -27 79.5t-73 28.5q-112 0 -195 -117l-28 19q74 130 180.5 208.5t204.5 78.5q88 0 139 -47t51 -123q0 -63 -25.5 -123t-60.5 -104.5
t-98 -96.5t-109 -83.5t-123 -80.5h146q118 0 167 21t72 82z" />
    <glyph glyph-name="uni00B3" unicode="&#xb3;" horiz-adv-x="684" 
d="M506 1184q84 -28 133 -83.5t49 -123.5q0 -138 -150.5 -223t-439.5 -107v39q163 20 263 74t100 139q0 46 -42.5 74t-129.5 43l-2 4l248 289h-154q-71 0 -108.5 -20t-65.5 -81l-35 9l121 309h2q91 -23 393 -23h107l2 -4z" />
    <glyph glyph-name="acute" unicode="&#xb4;" horiz-adv-x="880" 
d="M207 1227l-25 37q97 115 186.5 206.5t133.5 126.5q38 27 76 27q51 0 86.5 -36.5t35.5 -82.5q0 -32 -17 -61.5t-46 -46.5q-93 -60 -430 -170z" />
    <glyph glyph-name="uni00B5" unicode="&#xb5;" horiz-adv-x="1345" 
d="M1075 207q0 -42 26 -58.5t93 -21.5l-12 -55q-280 -53 -459 -92h-2l29 161q-67 -75 -152.5 -118t-171.5 -43q-123 0 -162 122q5 -307 4 -329q-1 -101 -36.5 -152t-98.5 -51q-40 0 -65 26t-25 66q0 37 125 645l80 451q6 30 6 55q0 44 -26 66t-91 34l13 56q354 105 466 143
h5l-91 -510l-45 -256q-4 -23 -4 -57q0 -125 121 -125q71 0 164 69l92 525q6 30 6 55q0 43 -25.5 65.5t-90.5 34.5l12 56q361 107 467 143h4l-152 -856q-4 -25 -4 -49z" />
    <glyph glyph-name="paragraph" unicode="&#xb6;" horiz-adv-x="1212" 
d="M1294 1503l-12 -59q-109 -10 -151.5 -44.5t-61.5 -125.5v-6l-295 -1678l-100 -16l323 1835h-217l-321 -1819l-101 -16l193 1085h-2q-185 0 -292 95t-107 256q0 209 136.5 351t336.5 142h671z" />
    <glyph glyph-name="periodcentered" unicode="&#xb7;" horiz-adv-x="620" 
d="M311 395q-95 0 -153 55t-58 142q0 88 68 152.5t160 64.5q95 0 153 -55t58 -142q0 -88 -68 -152.5t-160 -64.5z" />
    <glyph glyph-name="cedilla" unicode="&#xb8;" horiz-adv-x="886" 
d="M248 -430l-2 41q129 40 129 102q0 54 -107 129l129 176l82 -18l-51 -70q133 -88 133 -172q0 -83 -82 -131.5t-231 -56.5z" />
    <glyph glyph-name="uni00B9" unicode="&#xb9;" horiz-adv-x="542" 
d="M428 766q0 -34 20 -49t74 -21l-8 -37h-434l8 37q65 7 90.5 28t34.5 73l76 426q4 28 4 32q0 22 -9.5 31.5t-31.5 9.5q-17 0 -62 -10l-8 35q202 100 375 205h2l-129 -729q-2 -14 -2 -31z" />
    <glyph glyph-name="ordmasculine" unicode="&#xba;" horiz-adv-x="987" 
d="M512 649q-164 0 -259 92t-95 248q0 148 67 271t184 193.5t257 70.5q163 0 257.5 -92t94.5 -248q0 -224 -147 -379.5t-359 -155.5zM524 723q55 0 109.5 83t88.5 211t34 253q0 90 -26 141t-75 51q-55 0 -109.5 -83.5t-89 -212t-34.5 -253.5q0 -90 26.5 -140t75.5 -50z" />
    <glyph glyph-name="guillemotright" unicode="&#xbb;" horiz-adv-x="886" 
d="M502 625l-8 -47l-431 -435l-38 25l262 434l-109 432l47 25zM545 1059l276 -434l-8 -47l-430 -435l-39 25l262 434l-108 432z" />
    <glyph glyph-name="onequarter" unicode="&#xbc;" horiz-adv-x="1562" 
d="M1470 1561l58 -64l-1448 -1554l-60 63zM580 696l-9 -37h-434l8 37q65 7 90.5 28t34.5 73l76 426q4 28 4 32q0 22 -9.5 31.5t-31.5 9.5q-16 0 -61 -10l-8 35q196 97 374 205h2l-129 -729q-2 -14 -2 -31q0 -34 20.5 -49t74.5 -21zM1290 276q68 0 164 7h2l-24 -70h-154
l-12 -76q-4 -20 -4 -35q0 -31 18.5 -45t65.5 -20l-9 -37h-434l6 37q73 9 102.5 34t39.5 89l10 53h-330l-2 2l512 629h148zM844 276h227l64 359z" />
    <glyph glyph-name="onehalf" unicode="&#xbd;" horiz-adv-x="1564" 
d="M1460 1561l58 -64l-1448 -1554l-60 63zM569 696l-8 -37h-434l8 37q65 7 90.5 28t34.5 73l76 426q4 28 4 32q0 22 -9.5 31.5t-31.5 9.5q-16 0 -61 -10l-9 35q202 100 375 205h2l-129 -729q-2 -14 -2 -31q0 -34 20 -49t74 -21zM1171 199q118 0 167.5 20.5t72.5 81.5l35 -8
l-88 -299q-132 6 -428 6h-205l-2 4q67 70 166 152q59 50 91 78.5t78 75.5t70 82t42 79.5t18 87.5q0 51 -26 80t-72 29q-112 0 -195 -117l-29 18q74 131 180 209t205 78q87 0 139 -47t52 -123q0 -63 -25.5 -123t-60.5 -104t-98 -96t-109 -83.5t-123 -80.5h145z" />
    <glyph glyph-name="threequarters" unicode="&#xbe;" horiz-adv-x="1671" 
d="M1577 1561l59 -64l-1450 -1554l-57 63zM774 977q0 -138 -150.5 -223t-439.5 -107v39q163 20 263 74t100 139q0 46 -43 74t-131 43v4l248 289h-154q-71 0 -108.5 -20t-65.5 -81l-35 9l121 309h2q91 -23 393 -23h105l2 -4l-291 -313q86 -29 135 -85t49 -124zM1395 279
q81 0 164 6h2l-25 -70h-154l-12 -74q-4 -20 -4 -37q0 -31 18.5 -45t65.5 -18l-8 -37h-434l8 37q71 9 100 34t41 89l8 51h-329l-2 4l512 629h147zM948 279h230l63 364z" />
    <glyph glyph-name="questiondown" unicode="&#xbf;" horiz-adv-x="886" 
d="M647 1319q95 0 153 -55t58 -142q0 -89 -67 -153t-160 -64q-94 0 -151.5 55t-57.5 142q0 88 66.5 152.5t158.5 64.5zM221 12h469q4 -24 4 -47q0 -84 -59 -137t-152 -53q-89 0 -173.5 41.5t-144.5 108t-96 152t-36 171.5q0 167 139.5 266t364.5 117q21 68 41 155h59
q11 -252 39 -438l-6 -4q-235 -2 -376.5 -58.5t-141.5 -152.5q0 -64 69 -121z" />
    <glyph glyph-name="Agrave" unicode="&#xc0;" horiz-adv-x="1529" 
d="M735 1710q-37 19 -57.5 49t-20.5 64q0 49 34 84t87 35q34 0 60 -13q88 -42 368 -280l-20 -41q-355 58 -451 102zM1282 211q19 -90 52 -119.5t124 -32.5l-10 -59h-766l10 59q135 11 182.5 37.5t47.5 93.5q0 14 -13 107l-30 164h-492l-16 -33q-61 -115 -89 -179t-28 -102
q0 -43 40 -62.5t136 -25.5l-12 -59h-514l10 59q95 12 153 60t130 180l512 944l-23 115q139 64 285 166h41zM438 555h424l-112 596z" />
    <glyph glyph-name="Aacute" unicode="&#xc1;" horiz-adv-x="1529" 
d="M1192 1710q-96 -44 -451 -102l-20 41q271 233 369 280q26 13 59 13q53 0 87 -35t34 -84q0 -34 -20.5 -64t-57.5 -49zM1282 211q19 -90 52 -119.5t124 -32.5l-10 -59h-766l10 59q135 11 182.5 37.5t47.5 93.5q0 14 -13 107l-30 164h-492l-16 -33q-61 -115 -89 -179
t-28 -102q0 -43 40 -62.5t136 -25.5l-12 -59h-514l10 59q95 12 153 60t130 180l512 944l-23 115q139 64 285 166h41zM438 555h424l-112 596z" />
    <glyph glyph-name="Acircumflex" unicode="&#xc2;" horiz-adv-x="1529" 
d="M971 1735l-322 -127l-14 43l352 291h41l246 -291l-29 -43zM1282 211q19 -90 52 -119.5t124 -32.5l-10 -59h-766l10 59q135 11 182.5 37.5t47.5 93.5q0 14 -13 107l-30 164h-492l-16 -33q-61 -115 -89 -179t-28 -102q0 -43 40 -62.5t136 -25.5l-12 -59h-514l10 59
q95 12 153 60t130 180l512 944l-23 115q139 64 285 166h41zM438 555h424l-112 596z" />
    <glyph glyph-name="Atilde" unicode="&#xc3;" horiz-adv-x="1529" 
d="M727 1745q-74 0 -123 -111l-39 13q32 119 114 207t171 88q32 0 67.5 -9.5t57.5 -19.5t61 -29q112 -59 191 -59q75 0 123 112l39 -12q-34 -123 -112.5 -210t-168.5 -87q-50 0 -93.5 15t-101.5 45q-108 57 -186 57zM1282 211q19 -90 52 -119.5t124 -32.5l-10 -59h-766
l10 59q135 11 182.5 37.5t47.5 93.5q0 14 -13 107l-30 164h-492l-16 -33q-61 -115 -89 -179t-28 -102q0 -43 40 -62.5t136 -25.5l-12 -59h-514l10 59q95 12 153 60t130 180l512 944l-23 115q139 64 285 166h41zM438 555h424l-112 596z" />
    <glyph glyph-name="Adieresis" unicode="&#xc4;" horiz-adv-x="1529" 
d="M784 1630q-61 0 -99 37.5t-38 97.5q0 64 46 111t110 47q61 0 98 -37t37 -96q0 -65 -45 -112.5t-109 -47.5zM1153 1630q-61 0 -99 37.5t-38 97.5q0 64 45.5 111t109.5 47q61 0 98.5 -37t37.5 -96q0 -65 -45 -112.5t-109 -47.5zM1282 211q19 -90 52 -119.5t124 -32.5
l-10 -59h-766l10 59q135 11 182.5 37.5t47.5 93.5q0 14 -13 107l-30 164h-492l-16 -33q-61 -115 -89 -179t-28 -102q0 -43 40 -62.5t136 -25.5l-12 -59h-514l10 59q95 12 153 60t130 180l512 944l-23 115q139 64 285 166h41zM438 555h424l-112 596z" />
    <glyph glyph-name="Aring" unicode="&#xc5;" horiz-adv-x="1529" 
d="M961 1575q-102 0 -161 53t-59 141q0 102 74 172t182 70q101 0 160.5 -53t59.5 -141q0 -101 -74.5 -171.5t-181.5 -70.5zM983 1935q-64 0 -109 -44t-45 -107q0 -60 39 -95.5t105 -35.5q65 0 109 43.5t44 107.5q0 59 -39 95t-104 36zM1282 211q19 -90 52 -119.5t124 -32.5
l-10 -59h-766l10 59q135 11 182.5 37.5t47.5 93.5q0 14 -13 107l-30 164h-492l-16 -33q-61 -115 -89 -179t-28 -102q0 -43 40 -62.5t136 -25.5l-12 -59h-514l10 59q95 12 153 60t130 180l512 944l-23 115q139 64 285 166h41zM438 555h424l-112 596z" />
    <glyph glyph-name="AE" unicode="&#xc6;" horiz-adv-x="2181" 
d="M2089 584l55 -21l-274 -573q-159 10 -457 10h-747l10 59q112 10 155 45.5t60 131.5l86 485h-428l-164 -293q-68 -121 -97.5 -184t-29.5 -101q0 -41 39 -60t129 -24l-10 -59h-516l12 59q98 12 164 63t137 177l684 1204h745q282 0 433 10l57 -552l-61 -23q-10 77 -24 138
t-34 109t-44 82.5t-58 59.5t-70.5 41t-87 25t-103 12.5t-122.5 3.5h-105l-104 -594h96q59 0 96.5 11t76.5 46t71.5 103t69.5 180h57q-85 -431 -139 -795h-60q2 27 2 72q0 122 -21 185.5t-59.5 83.5t-111.5 20h-97l-88 -502q-4 -23 -4 -53q0 -41 22.5 -56.5t78.5 -15.5h84
q103 0 173.5 9.5t143 38.5t131 83.5t120.5 141.5t128 217zM602 815h391l72 412q8 44 8 78q0 58 -28.5 87.5t-96.5 43.5z" />
    <glyph glyph-name="Ccedilla" unicode="&#xc7;" horiz-adv-x="1394" 
d="M954 1430q-137 0 -253 -99t-183 -269.5t-67 -371.5q0 -225 104 -356t289 -131q115 0 235.5 63t198.5 168l43 -28q-104 -185 -278 -300t-363 -126l-35 -50q131 -87 131 -172q0 -83 -82 -131.5t-231 -56.5l-2 41q131 40 131 102q0 55 -109 129l105 140q-230 20 -359 174
t-129 405q0 200 68 378.5t184.5 306.5t279.5 203t345 75q65 0 124.5 -18.5t103 -37t69.5 -18.5q25 0 40.5 12t31.5 51h28l15 -544l-58 -17q-79 478 -377 478z" />
    <glyph glyph-name="Egrave" unicode="&#xc8;" horiz-adv-x="1478" 
d="M688 1710q-38 18 -58 48.5t-20 64.5q0 49 34 84t87 35q34 0 60 -13q95 -47 366 -280l-18 -41q-360 59 -451 102zM1380 588l62 -25l-275 -573q-159 10 -456 10h-748l10 59q110 10 153 46t60 131l185 1032q6 38 6 61q0 58 -35 82.5t-125 32.5l10 59h713q278 0 432 10
l58 -552l-62 -23q-13 103 -33.5 177.5t-53.5 127t-72.5 85t-99.5 50.5t-125 24.5t-159 6.5h-104l-105 -594h95q59 0 97 11t76.5 46t72 103t69.5 180h57q-93 -471 -141 -795h-57q2 27 2 72q0 92 -10.5 149.5t-36 88t-58.5 41t-88 10.5h-96l-88 -502q-4 -25 -4 -53
q0 -41 21.5 -56.5t78.5 -15.5h84q72 0 125.5 5t109 17.5t99.5 36t90 59.5t88 89t86 123.5t92 163.5z" />
    <glyph glyph-name="Eacute" unicode="&#xc9;" horiz-adv-x="1478" 
d="M1145 1710q-95 -44 -453 -102l-18 41q272 234 368 280q26 13 60 13q53 0 87 -35t34 -84q0 -34 -20.5 -64t-57.5 -49zM1380 588l62 -25l-275 -573q-159 10 -456 10h-748l10 59q110 10 153 46t60 131l185 1032q6 38 6 61q0 58 -35 82.5t-125 32.5l10 59h713q278 0 432 10
l58 -552l-62 -23q-13 103 -33.5 177.5t-53.5 127t-72.5 85t-99.5 50.5t-125 24.5t-159 6.5h-104l-105 -594h95q59 0 97 11t76.5 46t72 103t69.5 180h57q-93 -471 -141 -795h-57q2 27 2 72q0 92 -10.5 149.5t-36 88t-58.5 41t-88 10.5h-96l-88 -502q-4 -25 -4 -53
q0 -41 21.5 -56.5t78.5 -15.5h84q72 0 125.5 5t109 17.5t99.5 36t90 59.5t88 89t86 123.5t92 163.5z" />
    <glyph glyph-name="Ecircumflex" unicode="&#xca;" horiz-adv-x="1478" 
d="M922 1735l-320 -127l-14 43l352 291h41l246 -291l-29 -43zM1380 588l62 -25l-275 -573q-159 10 -456 10h-748l10 59q110 10 153 46t60 131l185 1032q6 38 6 61q0 58 -35 82.5t-125 32.5l10 59h713q278 0 432 10l58 -552l-62 -23q-13 103 -33.5 177.5t-53.5 127t-72.5 85
t-99.5 50.5t-125 24.5t-159 6.5h-104l-105 -594h95q59 0 97 11t76.5 46t72 103t69.5 180h57q-93 -471 -141 -795h-57q2 27 2 72q0 92 -10.5 149.5t-36 88t-58.5 41t-88 10.5h-96l-88 -502q-4 -25 -4 -53q0 -41 21.5 -56.5t78.5 -15.5h84q72 0 125.5 5t109 17.5t99.5 36
t90 59.5t88 89t86 123.5t92 163.5z" />
    <glyph glyph-name="Edieresis" unicode="&#xcb;" horiz-adv-x="1478" 
d="M737 1630q-61 0 -99 37.5t-38 97.5q0 64 46 111t110 47q61 0 98 -37t37 -96q0 -65 -45.5 -112.5t-108.5 -47.5zM1106 1630q-61 0 -99 37.5t-38 97.5q0 64 45.5 111t109.5 47q61 0 98.5 -37t37.5 -96q0 -65 -45.5 -112.5t-108.5 -47.5zM1380 588l62 -25l-275 -573
q-159 10 -456 10h-748l10 59q110 10 153 46t60 131l185 1032q6 38 6 61q0 58 -35 82.5t-125 32.5l10 59h713q278 0 432 10l58 -552l-62 -23q-13 103 -33.5 177.5t-53.5 127t-72.5 85t-99.5 50.5t-125 24.5t-159 6.5h-104l-105 -594h95q59 0 97 11t76.5 46t72 103t69.5 180
h57q-93 -471 -141 -795h-57q2 27 2 72q0 92 -10.5 149.5t-36 88t-58.5 41t-88 10.5h-96l-88 -502q-4 -25 -4 -53q0 -41 21.5 -56.5t78.5 -15.5h84q72 0 125.5 5t109 17.5t99.5 36t90 59.5t88 89t86 123.5t92 163.5z" />
    <glyph glyph-name="Igrave" unicode="&#xcc;" horiz-adv-x="811" 
d="M383 1710q-38 18 -58 48.5t-20 64.5q0 49 34 84t87 35q33 0 59 -13q98 -48 367 -280l-18 -41q-360 59 -451 102zM227 1503h695l-13 -59q-110 -9 -153 -44t-60 -132l-182 -1032q-6 -38 -6 -62q0 -58 34.5 -82.5t123.5 -32.5l-11 -59h-692l10 59q110 10 153 46t60 131
l185 1032q6 38 6 61q0 58 -35 82.5t-125 32.5z" />
    <glyph glyph-name="Iacute" unicode="&#xcd;" horiz-adv-x="811" 
d="M840 1710q-95 -44 -453 -102l-18 41q272 234 368 280q26 13 60 13q53 0 87 -35t34 -84q0 -34 -20.5 -64t-57.5 -49zM227 1503h695l-13 -59q-110 -9 -153 -44t-60 -132l-182 -1032q-6 -38 -6 -62q0 -58 34.5 -82.5t123.5 -32.5l-11 -59h-692l10 59q110 10 153 46t60 131
l185 1032q6 38 6 61q0 58 -35 82.5t-125 32.5z" />
    <glyph glyph-name="Icircumflex" unicode="&#xce;" horiz-adv-x="811" 
d="M616 1735l-319 -127l-14 43l352 291h41l246 -291l-29 -43zM217 1444l10 59h695l-13 -59q-110 -9 -153 -44t-60 -132l-182 -1032q-6 -38 -6 -62q0 -58 34.5 -82.5t123.5 -32.5l-11 -59h-692l10 59q110 10 153 46t60 131l185 1032q6 38 6 61q0 58 -35 82.5t-125 32.5z" />
    <glyph glyph-name="Idieresis" unicode="&#xcf;" horiz-adv-x="811" 
d="M432 1630q-61 0 -99 37.5t-38 97.5q0 64 46 111t110 47q61 0 98 -37t37 -96q0 -65 -45.5 -112.5t-108.5 -47.5zM801 1630q-61 0 -99 37.5t-38 97.5q0 64 45.5 111t109.5 47q61 0 98 -37t37 -96q0 -65 -45 -112.5t-108 -47.5zM217 1444l10 59h695l-13 -59
q-110 -9 -153 -44t-60 -132l-182 -1032q-6 -38 -6 -62q0 -58 34.5 -82.5t123.5 -32.5l-11 -59h-692l10 59q110 10 153 46t60 131l185 1032q6 38 6 61q0 58 -35 82.5t-125 32.5z" />
    <glyph glyph-name="Eth" unicode="&#xd0;" horiz-adv-x="1624" 
d="M956 1503q297 0 468 -160t171 -432q0 -190 -70 -359t-190 -290t-288 -191.5t-357 -70.5h-725l10 59q110 10 153 46t60 131l88 491h-163l30 80h148l82 461q6 38 6 61q0 58 -35 82.5t-125 32.5l10 59h727zM645 94q161 0 299 118.5t218.5 319t80.5 433.5q0 207 -91.5 325.5
t-260.5 118.5h-168l-107 -602h324l-31 -80h-307l-92 -524q-4 -25 -4 -45q0 -37 19.5 -50.5t70.5 -13.5h49z" />
    <glyph glyph-name="Ntilde" unicode="&#xd1;" horiz-adv-x="1546" 
d="M748 1745q-74 0 -123 -111l-39 13q32 118 114.5 206.5t169.5 88.5q32 0 67.5 -9.5t58 -19.5t61.5 -29q112 -59 190 -59q75 0 123 112l41 -12q-35 -123 -114 -210t-169 -87q-76 0 -194 60q-108 57 -186 57zM1171 1503h502l-12 -59q-110 -9 -153 -44t-60 -132l-229 -1288
h-58l-721 1155l-151 -859q-8 -44 -8 -79q0 -71 43 -100.5t149 -37.5l-10 -59h-500l10 59q110 10 153 46t60 131l187 1042q4 46 4 57q0 54 -35 77.5t-125 31.5l10 59h391l603 -983l122 707q9 49 9 82q0 70 -42 98.5t-149 36.5z" />
    <glyph glyph-name="Ograve" unicode="&#xd2;" horiz-adv-x="1611" 
d="M1235 1608q-355 58 -451 102q-36 19 -56.5 49t-20.5 64q0 49 33.5 84t86.5 35q34 0 60 -13q96 -46 368 -280zM709 -20q-283 0 -445 161t-162 434q0 196 69 372t186 302.5t279.5 200.5t342.5 74q281 0 442.5 -161.5t161.5 -434.5q0 -195 -68.5 -371t-185 -302.5
t-278.5 -200.5t-342 -74zM725 74q129 0 247 131.5t189.5 347.5t71.5 451q0 199 -70 312.5t-198 113.5q-130 0 -249 -131.5t-191 -347.5t-72 -451q0 -198 72 -312t200 -114z" />
    <glyph glyph-name="Oacute" unicode="&#xd3;" horiz-adv-x="1611" 
d="M791 1608l-21 41q278 237 369 280q26 13 59 13q53 0 87 -35t34 -84q0 -34 -20.5 -64t-57.5 -49q-97 -44 -450 -102zM709 -20q-283 0 -445 161t-162 434q0 196 69 372t186 302.5t279.5 200.5t342.5 74q281 0 442.5 -161.5t161.5 -434.5q0 -195 -68.5 -371t-185 -302.5
t-278.5 -200.5t-342 -74zM725 74q129 0 247 131.5t189.5 347.5t71.5 451q0 199 -70 312.5t-198 113.5q-130 0 -249 -131.5t-191 -347.5t-72 -451q0 -198 72 -312t200 -114z" />
    <glyph glyph-name="Ocircumflex" unicode="&#xd4;" horiz-adv-x="1611" 
d="M1020 1735l-322 -127l-14 43l352 291h41l246 -291l-29 -43zM979 1524q281 0 442.5 -161.5t161.5 -434.5q0 -195 -68.5 -371t-185 -302.5t-278.5 -200.5t-342 -74q-283 0 -445 161t-162 434q0 196 69 372t186 302.5t279.5 200.5t342.5 74zM725 74q129 0 247 131.5
t189.5 347.5t71.5 451q0 199 -70 312.5t-198 113.5q-130 0 -249 -131.5t-191 -347.5t-72 -451q0 -198 72 -312t200 -114z" />
    <glyph glyph-name="Otilde" unicode="&#xd5;" horiz-adv-x="1611" 
d="M1157 1628q-76 0 -194 60q-108 57 -187 57q-74 0 -123 -111l-39 13q31 118 114.5 206.5t170.5 88.5q32 0 67.5 -9.5t57.5 -19.5t61 -29q112 -59 191 -59q75 0 123 112l41 -12q-35 -123 -114 -210t-169 -87zM709 -20q-283 0 -445 161t-162 434q0 196 69 372t186 302.5
t279.5 200.5t342.5 74q281 0 442.5 -161.5t161.5 -434.5q0 -195 -68.5 -371t-185 -302.5t-278.5 -200.5t-342 -74zM725 74q129 0 247 131.5t189.5 347.5t71.5 451q0 199 -70 312.5t-198 113.5q-130 0 -249 -131.5t-191 -347.5t-72 -451q0 -198 72 -312t200 -114z" />
    <glyph glyph-name="Odieresis" unicode="&#xd6;" horiz-adv-x="1611" 
d="M836 1630q-63 0 -101.5 37.5t-38.5 97.5q0 63 46.5 110.5t109.5 47.5q61 0 98 -37t37 -96q0 -65 -44 -112.5t-107 -47.5zM1204 1630q-63 0 -101 37.5t-38 97.5q0 63 46.5 110.5t109.5 47.5q61 0 98 -37t37 -96q0 -65 -44.5 -112.5t-107.5 -47.5zM709 -20q-283 0 -445 161
t-162 434q0 196 69 372t186 302.5t279.5 200.5t342.5 74q281 0 442.5 -161.5t161.5 -434.5q0 -195 -68.5 -371t-185 -302.5t-278.5 -200.5t-342 -74zM725 74q129 0 247 131.5t189.5 347.5t71.5 451q0 199 -70 312.5t-198 113.5q-130 0 -249 -131.5t-191 -347.5t-72 -451
q0 -198 72 -312t200 -114z" />
    <glyph glyph-name="multiply" unicode="&#xd7;" horiz-adv-x="970" 
d="M874 864l-303 -256l220 -266l-86 -72l-220 265l-319 -273l-60 72l320 272l-219 266l86 74l219 -266l303 256z" />
    <glyph glyph-name="Oslash" unicode="&#xd8;" horiz-adv-x="1619" 
d="M1626 1470l-153 -165q112 -148 112 -377q0 -195 -68.5 -371t-185 -302.5t-278.5 -200.5t-342 -74q-254 0 -408 129l-182 -195l-58 63l179 191q-138 156 -138 407q0 196 69 372t186 302.5t279.5 200.5t342.5 74q273 0 436 -154l152 162zM967 1430q-130 0 -249 -131.5
t-191 -347.5t-72 -451q0 -74 8 -123l754 809q-28 117 -92 180.5t-158 63.5zM727 74q129 0 247 131.5t189.5 347.5t71.5 451q0 50 -2 73l-748 -801q31 -97 93 -149.5t149 -52.5z" />
    <glyph glyph-name="Ugrave" unicode="&#xd9;" horiz-adv-x="1531" 
d="M852 1710q-37 19 -57.5 49t-20.5 64q0 49 34 84t87 35q33 0 59 -13q98 -47 369 -280l-18 -41q-358 58 -453 102zM1165 1503h502l-12 -59q-110 -9 -153 -44t-62 -132l-137 -774q-41 -239 -196 -376.5t-384 -137.5q-524 0 -524 393q0 41 12 135l133 760q6 38 6 61
q0 58 -34.5 82.5t-122.5 32.5l10 59h731l-10 -59q-133 -9 -185 -46.5t-69 -137.5l-142 -805q-8 -44 -8 -95q0 -133 73 -209.5t202 -76.5q153 0 265.5 108t143.5 285l133 760q9 49 9 82q0 70 -42 98.5t-149 36.5z" />
    <glyph glyph-name="Uacute" unicode="&#xda;" horiz-adv-x="1531" 
d="M1309 1710q-91 -43 -451 -102l-18 41q271 233 366 280q26 13 60 13q53 0 86.5 -35t33.5 -84q0 -75 -77 -113zM1165 1503h502l-12 -59q-110 -9 -153 -44t-62 -132l-137 -774q-41 -239 -196 -376.5t-384 -137.5q-524 0 -524 393q0 41 12 135l133 760q6 38 6 61
q0 58 -34.5 82.5t-122.5 32.5l10 59h731l-10 -59q-133 -9 -185 -46.5t-69 -137.5l-142 -805q-8 -44 -8 -95q0 -133 73 -209.5t202 -76.5q153 0 265.5 108t143.5 285l133 760q9 49 9 82q0 70 -42 98.5t-149 36.5z" />
    <glyph glyph-name="Ucircumflex" unicode="&#xdb;" horiz-adv-x="1531" 
d="M1087 1735l-319 -127l-16 43l352 291h41l248 -291l-29 -43zM1165 1503h502l-12 -59q-110 -9 -153 -44t-62 -132l-137 -774q-41 -239 -196 -376.5t-384 -137.5q-524 0 -524 393q0 41 12 135l133 760q6 38 6 61q0 58 -34.5 82.5t-122.5 32.5l10 59h731l-10 -59
q-133 -9 -185 -46.5t-69 -137.5l-142 -805q-8 -44 -8 -95q0 -133 73 -209.5t202 -76.5q153 0 265.5 108t143.5 285l133 760q9 49 9 82q0 70 -42 98.5t-149 36.5z" />
    <glyph glyph-name="Udieresis" unicode="&#xdc;" horiz-adv-x="1531" 
d="M903 1630q-63 0 -101 37.5t-38 97.5q0 63 47 110.5t111 47.5q61 0 98 -37t37 -96q0 -65 -45.5 -112.5t-108.5 -47.5zM1272 1630q-63 0 -101 37.5t-38 97.5q0 63 46.5 110.5t110.5 47.5q61 0 98 -37t37 -96q0 -65 -45 -112.5t-108 -47.5zM1165 1503h502l-12 -59
q-110 -9 -153 -44t-62 -132l-137 -774q-41 -239 -196 -376.5t-384 -137.5q-524 0 -524 393q0 41 12 135l133 760q6 38 6 61q0 58 -34.5 82.5t-122.5 32.5l10 59h731l-10 -59q-133 -9 -185 -46.5t-69 -137.5l-142 -805q-8 -44 -8 -95q0 -133 73 -209.5t202 -76.5
q153 0 265.5 108t143.5 285l133 760q9 49 9 82q0 70 -42 98.5t-149 36.5z" />
    <glyph glyph-name="Yacute" unicode="&#xdd;" horiz-adv-x="1468" 
d="M1278 1710q-95 -44 -453 -102l-18 41q271 233 369 280q26 13 59 13q53 0 87 -35t34 -84q0 -34 -20.5 -64t-57.5 -49zM1079 1503h582l-12 -59q-115 -13 -213.5 -85t-216.5 -245l-301 -446l-76 -424q-6 -40 -6 -64q0 -61 39 -86.5t143 -34.5l-10 -59h-740l11 59
q126 10 173 47t64 138l76 430l-189 551q-40 120 -87 165.5t-126 53.5l13 59h760l-11 -59q-112 -6 -156 -31.5t-44 -79.5q0 -43 34 -159l117 -379l184 272q82 122 119 188.5t37 106.5t-41.5 59.5t-134.5 22.5z" />
    <glyph glyph-name="Thorn" unicode="&#xde;" horiz-adv-x="1431" 
d="M535 362l-15 -86q-8 -41 -8 -79q0 -69 42.5 -99t147.5 -39l-10 -59h-729l10 59q110 10 153 46t60 131l185 1032q6 38 6 61q0 58 -35 82.5t-125 32.5l10 59h695l-13 -59q-110 -9 -153 -44t-60 -132l-10 -62h242q226 0 358.5 -93t132.5 -249q0 -144 -92 -258.5t-256.5 -179
t-370.5 -64.5h-165zM834 1112h-166l-115 -655h145q152 0 258.5 121.5t106.5 293.5q0 111 -60.5 175.5t-168.5 64.5z" />
    <glyph glyph-name="germandbls" unicode="&#xdf;" horiz-adv-x="1245" 
d="M-156 -430l-8 43q93 72 136.5 162t72.5 250l178 1009q49 279 227.5 448t417.5 169q176 0 279.5 -64t103.5 -172q0 -44 -14 -82.5t-32 -64.5t-52.5 -54.5t-57.5 -43.5t-65 -40q-40 -24 -63 -39.5t-50 -39.5t-39 -50t-12 -57q0 -45 30.5 -92.5t92.5 -116.5q42 -48 68 -82
t57 -84t46.5 -101t15.5 -103q0 -159 -114 -272t-265 -113q-95 0 -158.5 48t-103.5 150l43 31q71 -121 167 -121q61 0 98.5 38.5t37.5 102.5q0 32 -15.5 67t-31.5 56.5t-50 63.5q-31 40 -47 62.5t-39 62t-33 80.5t-10 86q0 60 11 109.5t36 92t44.5 68t56.5 67.5
q39 45 59.5 72.5t48 77.5t40 111t12.5 137q0 61 -28.5 97t-78.5 36q-102 0 -188 -133.5t-123 -347.5l-166 -934q-41 -231 -188.5 -393.5t-346.5 -196.5z" />
    <glyph glyph-name="agrave" unicode="&#xe0;" horiz-adv-x="1241" 
d="M854 1155q-124 98 -218 181.5t-128 125.5q-29 36 -29 84q0 46 36.5 81.5t82.5 35.5q66 0 107 -57q64 -95 186 -424zM1143 352l41 -24q-47 -160 -139 -254t-201 -94q-76 0 -121 37t-45 116q0 13 4 53l35 195q-89 -219 -188 -310t-238 -91q-114 0 -179 97t-65 265
q0 213 77 390t213 279.5t300 102.5q124 0 211 -80q184 31 305 80h4l-158 -895q-4 -14 -4 -26q0 -29 23 -29t56 50.5t69 137.5zM473 188q51 0 99.5 66t106 222.5t128.5 422.5q-12 59 -47 91t-80 32q-80 0 -151 -83.5t-112.5 -221.5t-41.5 -291q0 -109 26 -173.5t72 -64.5z
" />
    <glyph glyph-name="aacute" unicode="&#xe1;" horiz-adv-x="1241" 
d="M1038 1397q-100 -63 -430 -170l-24 37q214 251 319 333q37 27 74 27q52 0 88.5 -36.5t36.5 -82.5q0 -32 -18 -61t-46 -47zM1143 352l41 -24q-47 -160 -139 -254t-201 -94q-76 0 -121 37t-45 116q0 13 4 53l35 195q-89 -219 -188 -310t-238 -91q-114 0 -179 97t-65 265
q0 213 77 390t213 279.5t300 102.5q124 0 211 -80q184 31 305 80h4l-158 -895q-4 -14 -4 -26q0 -29 23 -29t56 50.5t69 137.5zM473 188q51 0 99.5 66t106 222.5t128.5 422.5q-12 59 -47 91t-80 32q-80 0 -151 -83.5t-112.5 -221.5t-41.5 -291q0 -109 26 -173.5t72 -64.5z
" />
    <glyph glyph-name="acircumflex" unicode="&#xe2;" horiz-adv-x="1241" 
d="M840 1403l-324 -215l-24 31l370 426h41l217 -426l-35 -31zM1143 352l41 -24q-47 -160 -139 -254t-201 -94q-76 0 -121 37t-45 116q0 13 4 53l35 195q-89 -219 -188 -310t-238 -91q-114 0 -179 97t-65 265q0 213 77 390t213 279.5t300 102.5q124 0 211 -80q184 31 305 80
h4l-158 -895q-4 -14 -4 -26q0 -29 23 -29t56 50.5t69 137.5zM473 188q51 0 99.5 66t106 222.5t128.5 422.5q-12 59 -47 91t-80 32q-80 0 -151 -83.5t-112.5 -221.5t-41.5 -291q0 -109 26 -173.5t72 -64.5z" />
    <glyph glyph-name="atilde" unicode="&#xe3;" horiz-adv-x="1241" 
d="M606 1391q-70 0 -117 -113l-43 12q34 122 113 209.5t170 87.5q67 0 172 -59q103 -60 178 -60q71 0 119 113l39 -12q-34 -123 -111.5 -210t-167.5 -87q-32 0 -66.5 10t-54 19.5t-57.5 29.5q-106 60 -174 60zM1018 164q23 0 56 50.5t69 137.5l41 -24q-47 -160 -139 -254
t-201 -94q-76 0 -121 37t-45 116q0 13 4 53l35 195q-89 -219 -188 -310t-238 -91q-114 0 -179 97t-65 265q0 213 77 390t213 279.5t300 102.5q124 0 211 -80q184 31 305 80h4l-158 -895q-4 -14 -4 -26q0 -29 23 -29zM473 188q51 0 99.5 66t106 222.5t128.5 422.5
q-12 59 -47 91t-80 32q-80 0 -151 -83.5t-112.5 -221.5t-41.5 -291q0 -109 26 -173.5t72 -64.5z" />
    <glyph glyph-name="adieresis" unicode="&#xe4;" horiz-adv-x="1241" 
d="M653 1292q-61 0 -99 37t-38 96q0 64 46 112t110 48q61 0 98 -37t37 -96q0 -65 -45.5 -112.5t-108.5 -47.5zM1022 1292q-61 0 -99 37t-38 96q0 64 45.5 112t109.5 48q61 0 98.5 -37t37.5 -96q0 -65 -45.5 -112.5t-108.5 -47.5zM1143 352l41 -24q-47 -160 -139 -254
t-201 -94q-76 0 -121 37t-45 116q0 13 4 53l35 195q-89 -219 -188 -310t-238 -91q-114 0 -179 97t-65 265q0 213 77 390t213 279.5t300 102.5q124 0 211 -80q184 31 305 80h4l-158 -895q-4 -14 -4 -26q0 -29 23 -29t56 50.5t69 137.5zM473 188q51 0 99.5 66t106 222.5
t128.5 422.5q-12 59 -47 91t-80 32q-80 0 -151 -83.5t-112.5 -221.5t-41.5 -291q0 -109 26 -173.5t72 -64.5z" />
    <glyph glyph-name="aring" unicode="&#xe5;" horiz-adv-x="1241" 
d="M825 1210q-102 0 -160.5 52.5t-58.5 140.5q0 102 74 172t182 70q101 0 160 -54.5t59 -144.5q0 -101 -74 -168.5t-182 -67.5zM848 1569q-64 0 -109 -44.5t-45 -107.5q0 -60 39 -95.5t105 -35.5q64 0 108.5 42t44.5 104t-38.5 99.5t-104.5 37.5zM1143 352l41 -24
q-47 -160 -139 -254t-201 -94q-76 0 -121 37t-45 116q0 13 4 53l35 195q-89 -219 -188 -310t-238 -91q-114 0 -179 97t-65 265q0 213 77 390t213 279.5t300 102.5q124 0 211 -80q184 31 305 80h4l-158 -895q-4 -14 -4 -26q0 -29 23 -29t56 50.5t69 137.5zM473 188
q51 0 99.5 66t106 222.5t128.5 422.5q-12 59 -47 91t-80 32q-80 0 -151 -83.5t-112.5 -221.5t-41.5 -291q0 -109 26 -173.5t72 -64.5z" />
    <glyph glyph-name="ae" unicode="&#xe6;" horiz-adv-x="1722" 
d="M1317 188q73 0 155 38.5t144 101.5l35 -25q-85 -146 -228 -234.5t-297 -88.5q-183 0 -293.5 100.5t-125.5 275.5q-86 -205 -183 -290.5t-233 -85.5q-114 0 -179 97t-65 265q0 213 77 390t213 279.5t300 102.5q87 0 164.5 -47.5t124.5 -124.5q178 172 428 172
q163 0 256.5 -60.5t93.5 -162.5q0 -73 -57 -136.5t-155 -109.5t-214 -78t-248 -51v-2q0 -150 76.5 -238t210.5 -88zM1337 1036q-104 0 -193 -133t-110 -309q191 38 300.5 124t109.5 212q0 49 -29.5 77.5t-77.5 28.5zM473 188q51 0 99.5 66t106.5 223.5t130 425.5
q-14 59 -49.5 89t-79.5 30q-80 0 -151 -83.5t-112.5 -221.5t-41.5 -291q0 -109 26 -173.5t72 -64.5z" />
    <glyph glyph-name="ccedilla" unicode="&#xe7;" horiz-adv-x="1069" 
d="M848 578q-50 0 -82 20v436q-24 4 -41 4q-90 0 -170.5 -73.5t-128 -195t-47.5 -257.5q0 -149 73.5 -236.5t204.5 -87.5q74 0 155.5 38t133.5 102l33 -25q-75 -137 -205 -224.5t-270 -96.5l-35 -52q131 -87 131 -172q0 -83 -82 -131.5t-231 -56.5l-2 41q131 40 131 102
q0 55 -109 129l105 140q-170 19 -265.5 133t-95.5 297q0 195 86.5 356.5t237 253.5t332.5 92q159 0 251.5 -79t92.5 -212q0 -116 -60 -180.5t-143 -64.5zM844 989l-17 17z" />
    <glyph glyph-name="egrave" unicode="&#xe8;" horiz-adv-x="1062" 
d="M821 1155q-124 98 -218 181.5t-128 125.5q-29 36 -29 84q0 46 36.5 81.5t82.5 35.5q66 0 107 -57q64 -95 186 -424zM664 188q74 0 156.5 38.5t142.5 101.5l34 -25q-83 -146 -226.5 -234.5t-297.5 -88.5q-196 0 -309 116.5t-113 315.5q0 193 85 354.5t232.5 254.5
t323.5 93q157 0 247.5 -58t90.5 -155q0 -60 -37 -114.5t-99 -96t-147 -76.5t-177 -58.5t-193 -39.5v-2q0 -150 76.5 -238t210.5 -88zM676 1036q-101 0 -188.5 -133t-106.5 -309q182 38 285.5 127t103.5 219q0 43 -25.5 69.5t-68.5 26.5z" />
    <glyph glyph-name="eacute" unicode="&#xe9;" horiz-adv-x="1062" 
d="M940 1397q-96 -60 -430 -170l-25 37q100 117 188.5 208t131.5 125q38 27 74 27q51 0 88 -36.5t37 -82.5q0 -32 -18 -61t-46 -47zM664 188q74 0 156.5 38.5t142.5 101.5l34 -25q-83 -146 -226.5 -234.5t-297.5 -88.5q-196 0 -309 116.5t-113 315.5q0 193 85 354.5
t232.5 254.5t323.5 93q157 0 247.5 -58t90.5 -155q0 -60 -37 -114.5t-99 -96t-147 -76.5t-177 -58.5t-193 -39.5v-2q0 -150 76.5 -238t210.5 -88zM676 1036q-101 0 -188.5 -133t-106.5 -309q182 38 285.5 127t103.5 219q0 43 -25.5 69.5t-68.5 26.5z" />
    <glyph glyph-name="ecircumflex" unicode="&#xea;" horiz-adv-x="1062" 
d="M739 1401l-321 -213l-25 31l371 426h39l219 -426l-35 -31zM664 188q74 0 156.5 38.5t142.5 101.5l34 -25q-83 -146 -226.5 -234.5t-297.5 -88.5q-196 0 -309 116.5t-113 315.5q0 193 85 354.5t232.5 254.5t323.5 93q157 0 247.5 -58t90.5 -155q0 -60 -37 -114.5t-99 -96
t-147 -76.5t-177 -58.5t-193 -39.5v-2q0 -150 76.5 -238t210.5 -88zM676 1036q-101 0 -188.5 -133t-106.5 -309q182 38 285.5 127t103.5 219q0 43 -25.5 69.5t-68.5 26.5z" />
    <glyph glyph-name="edieresis" unicode="&#xeb;" horiz-adv-x="1062" 
d="M555 1292q-63 0 -101 37t-38 96q0 64 46.5 112t110.5 48q61 0 98.5 -37t37.5 -96q0 -65 -45.5 -112.5t-108.5 -47.5zM924 1292q-63 0 -101.5 37t-38.5 96q0 64 47 112t111 48q61 0 98 -37t37 -96q0 -65 -45 -112.5t-108 -47.5zM1030 901q0 -60 -37 -114.5t-99 -96
t-147 -76.5t-177 -58.5t-193 -39.5v-2q0 -150 76.5 -238t210.5 -88q74 0 156.5 38.5t142.5 101.5l34 -25q-83 -146 -226.5 -234.5t-297.5 -88.5q-196 0 -309 116.5t-113 315.5q0 193 85 354.5t232.5 254.5t323.5 93q157 0 247.5 -58t90.5 -155zM676 1036q-101 0 -188.5 -133
t-106.5 -309q182 38 285.5 127t103.5 219q0 43 -25.5 69.5t-68.5 26.5z" />
    <glyph glyph-name="igrave" unicode="&#xec;" horiz-adv-x="679" 
d="M592 1155q-124 98 -218 181.5t-128 125.5q-31 39 -31 84q0 46 37 81.5t84 35.5q65 0 106 -57q29 -43 80 -159.5t105 -264.5zM459 164q23 0 56 50.5t69 137.5l41 -24q-47 -160 -139 -254t-201 -94q-76 0 -121 37t-45 116q0 13 4 53l123 688q2 14 2 27q0 17 -5.5 23
t-17.5 6q-23 0 -56 -50.5t-69 -138.5l-39 25q47 160 139 254t199 94q76 0 122 -37t46 -116q0 -24 -6 -54l-121 -688q-4 -14 -4 -26q0 -29 23 -29z" />
    <glyph glyph-name="iacute" unicode="&#xed;" horiz-adv-x="679" 
d="M633 1624q51 0 87 -36.5t36 -82.5q0 -32 -17 -61.5t-45 -46.5q-96 -60 -430 -170l-24 37q97 116 186 207.5t133 125.5q37 27 74 27zM459 164q23 0 56 50.5t69 137.5l41 -24q-47 -160 -139 -254t-201 -94q-76 0 -121 37t-45 116q0 13 4 53l123 688q2 14 2 27q0 17 -5.5 23
t-17.5 6q-23 0 -56 -50.5t-69 -138.5l-39 25q47 160 139 254t199 94q76 0 122 -37t46 -116q0 -24 -6 -54l-121 -688q-4 -14 -4 -26q0 -29 23 -29z" />
    <glyph glyph-name="icircumflex" unicode="&#xee;" horiz-adv-x="679" 
d="M557 1645l219 -426l-35 -31l-247 213l-322 -213l-25 31l369 426h41zM459 164q23 0 56 50.5t69 137.5l41 -24q-47 -160 -139 -254t-201 -94q-76 0 -121 37t-45 116q0 13 4 53l123 688q2 14 2 27q0 17 -5.5 23t-17.5 6q-23 0 -56 -50.5t-69 -138.5l-39 25q47 160 139 254
t199 94q76 0 122 -37t46 -116q0 -24 -6 -54l-121 -688q-4 -14 -4 -26q0 -29 23 -29z" />
    <glyph glyph-name="idieresis" unicode="&#xef;" horiz-adv-x="679" 
d="M342 1303q-56 0 -89.5 33.5t-33.5 88.5q0 60 41 105t98 45q55 0 88 -34t33 -89q0 -62 -40 -105.5t-97 -43.5zM659 1575q55 0 89 -34.5t34 -88.5q0 -61 -40.5 -105t-96.5 -44q-57 0 -90 33t-33 89q0 61 40 105.5t97 44.5zM459 164q23 0 56 50.5t69 137.5l41 -24
q-47 -160 -139 -254t-201 -94q-76 0 -121 37t-45 116q0 13 4 53l123 688q2 14 2 27q0 17 -5.5 23t-17.5 6q-23 0 -56 -50.5t-69 -138.5l-39 25q47 160 139 254t199 94q76 0 122 -37t46 -116q0 -24 -6 -54l-121 -688q-4 -14 -4 -26q0 -29 23 -29z" />
    <glyph glyph-name="eth" unicode="&#xf0;" horiz-adv-x="1196" 
d="M807 1448q167 -134 257.5 -309t90.5 -367q0 -210 -89.5 -393t-241.5 -291t-328 -108q-206 0 -325.5 118t-119.5 320q0 137 47 265.5t124 222.5t182.5 151t216.5 57q87 0 151 -37q-43 162 -133 299l-346 -149l-10 65l319 138q-82 106 -180 176l24 45q168 -65 302 -158
l364 158l12 -66zM508 55q58 0 115.5 69.5t101.5 183t68 247.5q16 134 16 217q0 119 -33.5 185.5t-97.5 66.5q-71 0 -142 -108t-116 -275.5t-45 -331.5q0 -117 34.5 -185.5t98.5 -68.5z" />
    <glyph glyph-name="ntilde" unicode="&#xf1;" horiz-adv-x="1304" 
d="M573 1391q-69 0 -116 -113l-43 12q32 122 110.5 209.5t169.5 87.5q69 0 174 -59q103 -60 176 -60q74 0 119 113l41 -12q-34 -123 -111 -210t-167 -87q-32 0 -66.5 10t-54 19.5t-57.5 29.5q-36 20 -58 30.5t-54.5 20t-62.5 9.5zM1212 352l41 -24q-47 -159 -139.5 -253.5
t-200.5 -94.5q-76 0 -122 37t-46 116q0 18 7 53l110 637q4 14 4 27q0 43 -41 43q-74 0 -180 -189t-213 -546l-29 -158h-309l156 874q2 14 2 27q0 29 -23 29t-56 -50.5t-69 -138.5l-41 25q50 160 141.5 254t198.5 94q76 0 122 -37t46 -116q0 -24 -6 -54l-51 -291
q64 143 134.5 245.5t137.5 155t123.5 75t110.5 22.5q75 0 121.5 -42t46.5 -122q0 -28 -4 -53l-117 -678q-2 -14 -2 -26q0 -29 22 -29q23 0 56 50.5t69 137.5z" />
    <glyph glyph-name="ograve" unicode="&#xf2;" horiz-adv-x="1214" 
d="M856 1155q-124 98 -218 181.5t-128 125.5q-29 36 -29 84q0 46 37 81.5t84 35.5q64 0 105 -57q64 -95 186 -424zM510 -20q-214 0 -335.5 118.5t-121.5 321.5q0 144 51 272.5t138 221t209 146.5t258 54q212 0 333 -119t121 -321q0 -144 -51 -272.5t-137.5 -221t-208 -146.5
t-256.5 -54zM522 55q75 0 149.5 108t121.5 277t47 336q0 122 -38.5 192t-105.5 70q-76 0 -151 -108t-121.5 -277t-46.5 -336q0 -122 38 -192t107 -70z" />
    <glyph glyph-name="oacute" unicode="&#xf3;" horiz-adv-x="1214" 
d="M528 1227l-24 37q98 115 187 206.5t132 126.5q37 27 76 27q51 0 87 -36.5t36 -82.5q0 -32 -18 -61t-46 -47q-93 -60 -430 -170zM510 -20q-214 0 -335.5 118.5t-121.5 321.5q0 144 51 272.5t138 221t209 146.5t258 54q212 0 333 -119t121 -321q0 -144 -51 -272.5
t-137.5 -221t-208 -146.5t-256.5 -54zM522 55q75 0 149.5 108t121.5 277t47 336q0 122 -38.5 192t-105.5 70q-76 0 -151 -108t-121.5 -277t-46.5 -336q0 -122 38 -192t107 -70z" />
    <glyph glyph-name="ocircumflex" unicode="&#xf4;" horiz-adv-x="1214" 
d="M760 1403l-324 -215l-24 31l370 426h41l219 -426l-36 -31zM709 1114q212 0 333 -119t121 -321q0 -144 -51 -272.5t-137.5 -221t-208 -146.5t-256.5 -54q-214 0 -335.5 118.5t-121.5 321.5q0 144 51 272.5t138 221t209 146.5t258 54zM522 55q75 0 149.5 108t121.5 277
t47 336q0 122 -38.5 192t-105.5 70q-76 0 -151 -108t-121.5 -277t-46.5 -336q0 -122 38 -192t107 -70z" />
    <glyph glyph-name="otilde" unicode="&#xf5;" horiz-adv-x="1214" 
d="M879 1272q-32 0 -66.5 10t-54.5 19.5t-58 29.5q-106 60 -174 60q-67 0 -116 -113l-41 12q32 122 110.5 209.5t169.5 87.5q71 0 172 -59q106 -60 178 -60q74 0 119 113l41 -12q-34 -123 -112 -210t-168 -87zM510 -20q-214 0 -335.5 118.5t-121.5 321.5q0 144 51 272.5
t138 221t209 146.5t258 54q212 0 333 -119t121 -321q0 -144 -51 -272.5t-137.5 -221t-208 -146.5t-256.5 -54zM522 55q75 0 149.5 108t121.5 277t47 336q0 122 -38.5 192t-105.5 70q-76 0 -151 -108t-121.5 -277t-46.5 -336q0 -122 38 -192t107 -70z" />
    <glyph glyph-name="odieresis" unicode="&#xf6;" horiz-adv-x="1214" 
d="M573 1292q-61 0 -99 37t-38 96q0 64 46 112t110 48q61 0 98 -37t37 -96q0 -65 -45 -112.5t-109 -47.5zM942 1292q-61 0 -99 37t-38 96q0 64 46 112t110 48q61 0 98 -37t37 -96q0 -65 -45 -112.5t-109 -47.5zM510 -20q-214 0 -335.5 118.5t-121.5 321.5q0 144 51 272.5
t138 221t209 146.5t258 54q212 0 333 -119t121 -321q0 -144 -51 -272.5t-137.5 -221t-208 -146.5t-256.5 -54zM522 55q75 0 149.5 108t121.5 277t47 336q0 122 -38.5 192t-105.5 70q-76 0 -151 -108t-121.5 -277t-46.5 -336q0 -122 38 -192t107 -70z" />
    <glyph glyph-name="divide" unicode="&#xf7;" horiz-adv-x="970" 
d="M520 739q-60 0 -94.5 32.5t-34.5 88.5q0 75 52.5 128.5t127.5 53.5q59 0 94 -32.5t35 -87.5q0 -75 -52.5 -129t-127.5 -54zM98 557l17 94h778l-16 -94h-779zM418 166q-59 0 -93 32t-34 87q0 75 52.5 128.5t127.5 53.5q58 0 92.5 -33.5t34.5 -87.5q0 -75 -52.5 -127.5
t-127.5 -52.5z" />
    <glyph glyph-name="oslash" unicode="&#xf8;" horiz-adv-x="1218" 
d="M1221 1116l-148 -158q90 -110 90 -284q0 -144 -51 -272.5t-137.5 -221t-208 -146.5t-256.5 -54q-183 0 -297 88l-143 -154l-58 63l138 148q-97 118 -97 295q0 144 51 272.5t138 221t209 146.5t258 54q185 0 305 -94l147 160zM696 1038q-73 0 -146 -101.5t-120.5 -261.5
t-52.5 -323l459 494q-9 91 -46 141.5t-94 50.5zM522 55q71 0 142 98.5t119 254.5t55 317l-455 -492q11 -85 46.5 -131.5t92.5 -46.5z" />
    <glyph glyph-name="ugrave" unicode="&#xf9;" horiz-adv-x="1296" 
d="M807 1155q-124 98 -218 181.5t-128 125.5q-29 36 -29 84q0 46 36.5 81.5t82.5 35.5q65 0 106 -57q66 -99 187 -424zM1196 352l39 -24q-47 -160 -139 -254t-199 -94q-76 0 -122 37t-46 116q0 23 6 53l49 283q-51 -114 -107 -202t-106.5 -141t-103 -87t-95 -46.5
t-83.5 -12.5q-75 0 -120.5 41.5t-45.5 121.5q0 29 4 54l115 677q2 14 2 27q0 17 -5.5 23t-17.5 6q-44 0 -125 -189l-39 25q47 160 139 254t201 94q75 0 120.5 -37t45.5 -116q0 -24 -6 -54l-111 -637q-2 -14 -2 -26q0 -43 41 -43q71 0 174.5 189.5t208.5 545.5l27 158h311
l-155 -875q-2 -14 -2 -26q0 -17 5 -23t17 -6q23 0 56 50.5t69 137.5z" />
    <glyph glyph-name="uacute" unicode="&#xfa;" horiz-adv-x="1296" 
d="M975 1397q-100 -63 -430 -170l-25 37q100 117 188.5 208t131.5 125q38 27 73 27q52 0 88.5 -36.5t36.5 -82.5q0 -32 -17.5 -61t-45.5 -47zM1196 352l39 -24q-47 -160 -139 -254t-199 -94q-76 0 -122 37t-46 116q0 23 6 53l49 283q-51 -114 -107 -202t-106.5 -141
t-103 -87t-95 -46.5t-83.5 -12.5q-75 0 -120.5 41.5t-45.5 121.5q0 29 4 54l115 677q2 14 2 27q0 17 -5.5 23t-17.5 6q-44 0 -125 -189l-39 25q47 160 139 254t201 94q75 0 120.5 -37t45.5 -116q0 -24 -6 -54l-111 -637q-2 -14 -2 -26q0 -43 41 -43q71 0 174.5 189.5
t208.5 545.5l27 158h311l-155 -875q-2 -14 -2 -26q0 -17 5 -23t17 -6q23 0 56 50.5t69 137.5z" />
    <glyph glyph-name="ucircumflex" unicode="&#xfb;" horiz-adv-x="1296" 
d="M776 1403l-323 -215l-25 31l371 426h41l217 -426l-35 -31zM1196 352l39 -24q-47 -160 -139 -254t-199 -94q-76 0 -122 37t-46 116q0 23 6 53l49 283q-51 -114 -107 -202t-106.5 -141t-103 -87t-95 -46.5t-83.5 -12.5q-75 0 -120.5 41.5t-45.5 121.5q0 29 4 54l115 677
q2 14 2 27q0 17 -5.5 23t-17.5 6q-44 0 -125 -189l-39 25q47 160 139 254t201 94q75 0 120.5 -37t45.5 -116q0 -24 -6 -54l-111 -637q-2 -14 -2 -26q0 -43 41 -43q71 0 174.5 189.5t208.5 545.5l27 158h311l-155 -875q-2 -14 -2 -26q0 -17 5 -23t17 -6q23 0 56 50.5
t69 137.5z" />
    <glyph glyph-name="udieresis" unicode="&#xfc;" horiz-adv-x="1296" 
d="M590 1292q-61 0 -99 37t-38 96q0 64 45.5 112t109.5 48q61 0 98 -37t37 -96q0 -65 -45 -112.5t-108 -47.5zM958 1292q-61 0 -99 37t-38 96q0 64 46 112t110 48q61 0 98 -37t37 -96q0 -65 -45.5 -112.5t-108.5 -47.5zM1196 352l39 -24q-47 -160 -139 -254t-199 -94
q-76 0 -122 37t-46 116q0 23 6 53l49 283q-51 -114 -107 -202t-106.5 -141t-103 -87t-95 -46.5t-83.5 -12.5q-75 0 -120.5 41.5t-45.5 121.5q0 29 4 54l115 677q2 14 2 27q0 17 -5.5 23t-17.5 6q-44 0 -125 -189l-39 25q47 160 139 254t201 94q75 0 120.5 -37t45.5 -116
q0 -24 -6 -54l-111 -637q-2 -14 -2 -26q0 -43 41 -43q71 0 174.5 189.5t208.5 545.5l27 158h311l-155 -875q-2 -14 -2 -26q0 -17 5 -23t17 -6q23 0 56 50.5t69 137.5z" />
    <glyph glyph-name="yacute" unicode="&#xfd;" horiz-adv-x="1230" 
d="M975 1397q-100 -63 -430 -170l-25 37q100 117 188.5 208t131.5 125q38 27 73 27q52 0 88.5 -36.5t36.5 -82.5q0 -32 -17.5 -61t-45.5 -47zM895 1094h311l-88 -492l-12 -61q-84 -447 -313 -709t-529 -262q-92 0 -144 41t-52 110q0 46 20 76l561 2q82 85 118 238.5
t50 439.5l8 84q-66 -169 -141.5 -289t-146.5 -180.5t-131 -86t-117 -25.5q-75 0 -120.5 41.5t-45.5 121.5q0 29 4 54l115 677q2 14 2 27q0 17 -5.5 23t-17.5 6q-44 0 -125 -189l-39 25q47 160 139 254t201 94q75 0 120.5 -37t45.5 -116q0 -24 -6 -54l-111 -637
q-2 -14 -2 -26q0 -43 41 -43q71 0 174.5 189.5t208.5 545.5z" />
    <glyph glyph-name="thorn" unicode="&#xfe;" horiz-adv-x="1191" 
d="M903 1114q114 0 179 -97t65 -265q0 -213 -77 -390t-213 -279.5t-300 -102.5q-117 0 -197 67l-41 -229q-8 -47 16.5 -62.5t108.5 -15.5l-10 -55q-283 -43 -463 -111h-4l316 1792q8 47 -16.5 62.5t-108.5 15.5l10 55q115 22 245 63.5t224 86.5h4l-164 -938
q89 220 188 311.5t238 91.5zM514 72q80 0 151 83.5t112.5 221.5t41.5 291q0 109 -26 173t-72 64q-51 0 -99.5 -65.5t-106 -222t-128.5 -422.5q12 -59 47 -91t80 -32z" />
    <glyph glyph-name="ydieresis" unicode="&#xff;" horiz-adv-x="1230" 
d="M590 1292q-61 0 -99 37t-38 96q0 64 45.5 112t109.5 48q61 0 98 -37t37 -96q0 -65 -45 -112.5t-108 -47.5zM958 1292q-61 0 -99 37t-38 96q0 64 46 112t110 48q61 0 98 -37t37 -96q0 -65 -45.5 -112.5t-108.5 -47.5zM895 1094h311l-88 -492l-12 -61q-84 -447 -313 -709
t-529 -262q-92 0 -144 41t-52 110q0 46 20 76l561 2q82 85 118 238.5t50 439.5l8 84q-66 -169 -141.5 -289t-146.5 -180.5t-131 -86t-117 -25.5q-75 0 -120.5 41.5t-45.5 121.5q0 29 4 54l115 677q2 14 2 27q0 17 -5.5 23t-17.5 6q-44 0 -125 -189l-39 25q47 160 139 254
t201 94q75 0 120.5 -37t45.5 -116q0 -24 -6 -54l-111 -637q-2 -14 -2 -26q0 -43 41 -43q71 0 174.5 189.5t208.5 545.5z" />
    <glyph glyph-name="Amacron" unicode="&#x100;" horiz-adv-x="1529" 
d="M1317 1800l-33 -94h-659l34 94h658zM1282 211q19 -90 52 -119.5t124 -32.5l-10 -59h-766l10 59q135 11 182.5 37.5t47.5 93.5q0 14 -13 107l-30 164h-492l-16 -33q-61 -115 -89 -179t-28 -102q0 -43 40 -62.5t136 -25.5l-12 -59h-514l10 59q95 12 153 60t130 180l512 944
l-23 115q139 64 285 166h41zM438 555h424l-112 596z" />
    <glyph glyph-name="amacron" unicode="&#x101;" horiz-adv-x="1241" 
d="M1190 1475l-35 -95h-657l32 95h660zM1018 164q23 0 56 50.5t69 137.5l41 -24q-47 -160 -139 -254t-201 -94q-76 0 -121 37t-45 116q0 13 4 53l35 195q-89 -219 -188 -310t-238 -91q-114 0 -179 97t-65 265q0 213 77 390t213 279.5t300 102.5q124 0 211 -80q184 31 305 80
h4l-158 -895q-4 -14 -4 -26q0 -29 23 -29zM473 188q51 0 99.5 66t106 222.5t128.5 422.5q-12 59 -47 91t-80 32q-80 0 -151 -83.5t-112.5 -221.5t-41.5 -291q0 -109 26 -173.5t72 -64.5z" />
    <glyph glyph-name="Abreve" unicode="&#x102;" horiz-adv-x="1529" 
d="M942 1587q-93 0 -165.5 84t-112.5 234l38 32q103 -151 275 -151q177 0 328 151l28 -32q-95 -152 -196 -235t-195 -83zM1282 211q19 -90 52 -119.5t124 -32.5l-10 -59h-766l10 59q135 11 182.5 37.5t47.5 93.5q0 14 -13 107l-30 164h-492l-16 -33q-61 -115 -89 -179
t-28 -102q0 -43 40 -62.5t136 -25.5l-12 -59h-514l10 59q95 12 153 60t130 180l512 944l-23 115q139 64 285 166h41zM438 555h424l-112 596z" />
    <glyph glyph-name="abreve" unicode="&#x103;" horiz-adv-x="1241" 
d="M803 1194q-104 0 -165.5 111t-72.5 315l47 20q25 -116 83 -182.5t141 -66.5t165 67t148 182l39 -20q-81 -203 -182 -314.5t-203 -111.5zM1018 164q23 0 56 50.5t69 137.5l41 -24q-47 -160 -139 -254t-201 -94q-76 0 -121 37t-45 116q0 13 4 53l35 195q-89 -219 -188 -310
t-238 -91q-114 0 -179 97t-65 265q0 213 77 390t213 279.5t300 102.5q124 0 211 -80q184 31 305 80h4l-158 -895q-4 -14 -4 -26q0 -29 23 -29zM473 188q51 0 99.5 66t106 222.5t128.5 422.5q-12 59 -47 91t-80 32q-80 0 -151 -83.5t-112.5 -221.5t-41.5 -291
q0 -109 26 -173.5t72 -64.5z" />
    <glyph glyph-name="Aogonek" unicode="&#x104;" horiz-adv-x="1529" 
d="M1319 0q-65 -61 -106.5 -131.5t-41.5 -122.5q0 -26 17 -42.5t45 -16.5q59 0 125 49l8 -51q-47 -40 -121.5 -72.5t-152.5 -32.5q-74 0 -118 32.5t-44 86.5q0 64 77 142t222 159h-547l10 59q135 11 182.5 37.5t47.5 93.5q0 14 -13 107l-30 164h-492l-16 -33
q-61 -115 -89 -179t-28 -102q0 -43 40 -62.5t136 -25.5l-12 -59h-514l10 59q95 12 153 60t130 180l512 944l-23 115q139 64 285 166h41l270 -1313q19 -90 52 -119.5t124 -32.5l-10 -59h-129zM438 555h424l-112 596z" />
    <glyph glyph-name="aogonek" unicode="&#x105;" horiz-adv-x="1241" 
d="M987 27q-74 -62 -125 -142.5t-51 -138.5q0 -26 16.5 -42.5t44.5 -16.5q60 0 123 49l11 -51q-50 -40 -124.5 -72.5t-152.5 -32.5q-72 0 -116 32.5t-44 86.5q0 59 68.5 132t196.5 149q-72 3 -114 40t-42 113q0 13 4 53l35 195q-89 -219 -188 -310t-238 -91q-114 0 -179 97
t-65 265q0 213 77 390t213 279.5t300 102.5q124 0 211 -80q184 31 305 80h4l-158 -895q-4 -14 -4 -26q0 -29 23 -29t56 50.5t69 137.5l41 -24q-63 -213 -197 -301zM473 188q51 0 99.5 66t106 222.5t128.5 422.5q-12 59 -47 91t-80 32q-80 0 -151 -83.5t-112.5 -221.5
t-41.5 -291q0 -109 26 -173.5t72 -64.5z" />
    <glyph glyph-name="Cacute" unicode="&#x106;" horiz-adv-x="1394" 
d="M784 1608l-20 41q271 233 369 280q26 13 59 13q53 0 87 -35t34 -84q0 -34 -20.5 -64t-57.5 -49q-96 -44 -451 -102zM647 -20q-255 0 -401 157t-146 424q0 200 68 378.5t184.5 306.5t279.5 203t345 75q65 0 124.5 -18.5t103 -37t69.5 -18.5q25 0 40.5 12t31.5 51h28
l15 -544l-58 -17q-79 478 -377 478q-137 0 -253 -99t-183 -269.5t-67 -371.5q0 -225 104 -356t289 -131q115 0 235.5 63t198.5 168l43 -28q-108 -193 -293 -309.5t-381 -116.5z" />
    <glyph glyph-name="cacute" unicode="&#x107;" horiz-adv-x="1069" 
d="M954 1397q-100 -63 -430 -170l-24 37q214 251 319 333q37 27 74 27q52 0 88.5 -36.5t36.5 -82.5q0 -32 -18 -61t-46 -47zM848 578q-50 0 -82 20v436q-24 4 -41 4q-90 0 -170.5 -73.5t-128 -195t-47.5 -257.5q0 -149 73.5 -236.5t204.5 -87.5q74 0 155.5 38t133.5 102
l33 -25q-79 -146 -219.5 -234.5t-288.5 -88.5q-196 0 -308 116.5t-112 315.5q0 195 86.5 356.5t237 253.5t332.5 92q159 0 251.5 -79t92.5 -212q0 -116 -60 -180.5t-143 -64.5zM844 989l-17 17z" />
    <glyph glyph-name="Cdotaccent" unicode="&#x10a;" horiz-adv-x="1394" 
d="M1012 1599q-76 0 -126 47t-50 119q0 80 56 133.5t140 53.5q75 0 123.5 -47t48.5 -119q0 -80 -54.5 -133.5t-137.5 -53.5zM647 -20q-255 0 -401 157t-146 424q0 200 68 378.5t184.5 306.5t279.5 203t345 75q65 0 124.5 -18.5t103 -37t69.5 -18.5q25 0 40.5 12t31.5 51h28
l15 -544l-58 -17q-79 478 -377 478q-137 0 -253 -99t-183 -269.5t-67 -371.5q0 -225 104 -356t289 -131q115 0 235.5 63t198.5 168l43 -28q-108 -193 -293 -309.5t-381 -116.5z" />
    <glyph glyph-name="cdotaccent" unicode="&#x10b;" horiz-adv-x="1069" 
d="M748 1251q-75 0 -125 47t-50 119q0 82 55.5 135.5t139.5 53.5q75 0 124.5 -47t49.5 -119q0 -82 -55.5 -135.5t-138.5 -53.5zM848 578q-50 0 -82 20v436q-24 4 -41 4q-90 0 -170.5 -73.5t-128 -195t-47.5 -257.5q0 -149 73.5 -236.5t204.5 -87.5q74 0 155.5 38t133.5 102
l33 -25q-79 -146 -219.5 -234.5t-288.5 -88.5q-196 0 -308 116.5t-112 315.5q0 195 86.5 356.5t237 253.5t332.5 92q159 0 251.5 -79t92.5 -212q0 -116 -60 -180.5t-143 -64.5zM844 989l-17 17z" />
    <glyph glyph-name="Ccaron" unicode="&#x10c;" horiz-adv-x="1394" 
d="M1010 1608h-39l-250 293l31 41l276 -125l320 125l14 -41zM954 1430q-137 0 -253 -99t-183 -269.5t-67 -371.5q0 -225 104 -356t289 -131q115 0 235.5 63t198.5 168l43 -28q-108 -193 -293 -309.5t-381 -116.5q-255 0 -401 157t-146 424q0 200 68 378.5t184.5 306.5
t279.5 203t345 75q65 0 124.5 -18.5t103 -37t69.5 -18.5q25 0 40.5 12t31.5 51h28l15 -544l-58 -17q-79 478 -377 478z" />
    <glyph glyph-name="ccaron" unicode="&#x10d;" horiz-adv-x="1069" 
d="M737 1188h-41l-219 426l37 31l246 -215l323 215l23 -31zM707 1114q159 0 251.5 -79t92.5 -212q0 -116 -60 -180.5t-143 -64.5q-50 0 -82 20v436q-24 4 -41 4q-90 0 -170.5 -73.5t-128 -195t-47.5 -257.5q0 -149 73.5 -236.5t204.5 -87.5q74 0 155.5 38t133.5 102l33 -25
q-79 -146 -219.5 -234.5t-288.5 -88.5q-196 0 -308 116.5t-112 315.5q0 195 86.5 356.5t237 253.5t332.5 92zM827 1006l17 -17z" />
    <glyph glyph-name="Dcaron" unicode="&#x10e;" horiz-adv-x="1622" 
d="M909 1608h-39l-249 293l30 41l277 -125l319 125l15 -41zM954 1503q297 0 468 -160t171 -432q0 -190 -70 -359t-190 -290t-288 -191.5t-357 -70.5h-725l10 59q110 10 153 46t60 131l185 1032q6 38 6 61q0 58 -35 82.5t-125 32.5l10 59h727zM643 94q161 0 299 118.5
t218.5 319t80.5 433.5q0 207 -91.5 325.5t-260.5 118.5h-168l-213 -1206q-4 -25 -4 -45q0 -37 19.5 -50.5t70.5 -13.5h49z" />
    <glyph glyph-name="dcaron" unicode="&#x10f;" horiz-adv-x="1269" 
d="M1444 1651q64 0 101.5 -40t37.5 -106q0 -99 -82.5 -194t-212.5 -146l-16 58q59 27 98 67t39 76q0 31 -28.5 53t-75.5 25q-21 31 -21 61q0 60 47 103t113 43zM1251 1649l-252 -1430q-4 -14 -4 -26q0 -29 23 -29t56 50.5t69 137.5l41 -24q-47 -160 -139 -254t-201 -94
q-76 0 -121 37t-45 116q0 13 4 53l35 193q-89 -218 -188 -308.5t-238 -90.5q-114 0 -179 97t-65 265q0 213 77 390t213 279.5t300 102.5q117 0 197 -67l57 319q8 47 -16 62.5t-107 15.5l8 55q115 22 244.5 63t226.5 87h4zM473 188q51 0 99.5 66t106 222.5t128.5 422.5
q-12 59 -47 91t-80 32q-80 0 -151 -83.5t-112.5 -221.5t-41.5 -291q0 -109 26 -173.5t72 -64.5z" />
    <glyph glyph-name="Dcroat" unicode="&#x110;" horiz-adv-x="1624" 
d="M956 1503q297 0 468 -160t171 -432q0 -190 -70 -359t-190 -290t-288 -191.5t-357 -70.5h-725l10 59q110 10 153 46t60 131l88 491h-163l30 80h148l82 461q6 38 6 61q0 58 -35 82.5t-125 32.5l10 59h727zM645 94q161 0 299 118.5t218.5 319t80.5 433.5q0 207 -91.5 325.5
t-260.5 118.5h-168l-107 -602h324l-31 -80h-307l-92 -524q-4 -25 -4 -45q0 -37 19.5 -50.5t70.5 -13.5h49z" />
    <glyph glyph-name="dcroat" unicode="&#x111;" horiz-adv-x="1241" 
d="M1178 1231l-179 -1012q-4 -14 -4 -26q0 -29 23 -29t56 50.5t69 137.5l41 -24q-47 -160 -139 -254t-201 -94q-76 0 -121 37t-45 116q0 13 4 53l35 193q-89 -218 -188 -308.5t-238 -90.5q-114 0 -179 97t-65 265q0 213 77 390t213 279.5t300 102.5q117 0 197 -67l32 184
h-260l27 72h248l10 63q8 47 -16 62.5t-107 15.5l8 55q115 22 244.5 63t226.5 87h4l-61 -346h137l-24 -72h-125zM473 188q51 0 99.5 66t106 222.5t128.5 422.5q-12 59 -47 91t-80 32q-80 0 -151 -83.5t-112.5 -221.5t-41.5 -291q0 -109 26 -173.5t72 -64.5z" />
    <glyph glyph-name="Emacron" unicode="&#x112;" horiz-adv-x="1478" 
d="M1270 1800l-33 -94h-659l34 94h658zM1380 588l62 -25l-275 -573q-159 10 -456 10h-748l10 59q110 10 153 46t60 131l185 1032q6 38 6 61q0 58 -35 82.5t-125 32.5l10 59h713q278 0 432 10l58 -552l-62 -23q-13 103 -33.5 177.5t-53.5 127t-72.5 85t-99.5 50.5t-125 24.5
t-159 6.5h-104l-105 -594h95q59 0 97 11t76.5 46t72 103t69.5 180h57q-93 -471 -141 -795h-57q2 27 2 72q0 92 -10.5 149.5t-36 88t-58.5 41t-88 10.5h-96l-88 -502q-4 -25 -4 -53q0 -41 21.5 -56.5t78.5 -15.5h84q72 0 125.5 5t109 17.5t99.5 36t90 59.5t88 89t86 123.5
t92 163.5z" />
    <glyph glyph-name="emacron" unicode="&#x113;" horiz-adv-x="1062" 
d="M432 1475h660l-35 -95h-658zM1030 901q0 -60 -37 -114.5t-99 -96t-147 -76.5t-177 -58.5t-193 -39.5v-2q0 -150 76.5 -238t210.5 -88q74 0 156.5 38.5t142.5 101.5l34 -25q-83 -146 -226.5 -234.5t-297.5 -88.5q-196 0 -309 116.5t-113 315.5q0 193 85 354.5t232.5 254.5
t323.5 93q157 0 247.5 -58t90.5 -155zM676 1036q-101 0 -188.5 -133t-106.5 -309q182 38 285.5 127t103.5 219q0 43 -25.5 69.5t-68.5 26.5z" />
    <glyph glyph-name="Edotaccent" unicode="&#x116;" horiz-adv-x="1478" 
d="M920 1599q-75 0 -125 47t-50 119q0 80 56 133.5t141 53.5q75 0 123.5 -47t48.5 -119q0 -80 -55.5 -133.5t-138.5 -53.5zM1380 588l62 -25l-275 -573q-159 10 -456 10h-748l10 59q110 10 153 46t60 131l185 1032q6 38 6 61q0 58 -35 82.5t-125 32.5l10 59h713
q278 0 432 10l58 -552l-62 -23q-13 103 -33.5 177.5t-53.5 127t-72.5 85t-99.5 50.5t-125 24.5t-159 6.5h-104l-105 -594h95q59 0 97 11t76.5 46t72 103t69.5 180h57q-93 -471 -141 -795h-57q2 27 2 72q0 92 -10.5 149.5t-36 88t-58.5 41t-88 10.5h-96l-88 -502
q-4 -25 -4 -53q0 -41 21.5 -56.5t78.5 -15.5h84q72 0 125.5 5t109 17.5t99.5 36t90 59.5t88 89t86 123.5t92 163.5z" />
    <glyph glyph-name="edotaccent" unicode="&#x117;" horiz-adv-x="1062" 
d="M733 1251q-76 0 -125 47t-49 119q0 82 55.5 135.5t139.5 53.5q75 0 124.5 -47t49.5 -119q0 -82 -55.5 -135.5t-139.5 -53.5zM664 188q74 0 156.5 38.5t142.5 101.5l34 -25q-83 -146 -226.5 -234.5t-297.5 -88.5q-196 0 -309 116.5t-113 315.5q0 193 85 354.5t232.5 254.5
t323.5 93q157 0 247.5 -58t90.5 -155q0 -60 -37 -114.5t-99 -96t-147 -76.5t-177 -58.5t-193 -39.5v-2q0 -150 76.5 -238t210.5 -88zM676 1036q-101 0 -188.5 -133t-106.5 -309q182 38 285.5 127t103.5 219q0 43 -25.5 69.5t-68.5 26.5z" />
    <glyph glyph-name="Eogonek" unicode="&#x118;" horiz-adv-x="1478" 
d="M973 -2q-65 -61 -106.5 -130.5t-41.5 -121.5q0 -26 17 -42.5t45 -16.5q59 0 125 49l8 -51q-50 -40 -124.5 -72.5t-152.5 -32.5q-72 0 -115.5 32.5t-43.5 86.5q0 63 76.5 140.5t220.5 160.5h-170h-748l10 59q110 10 153 46t60 131l185 1032q6 38 6 61q0 58 -35 82.5
t-125 32.5l10 59h713q278 0 432 10l58 -552l-62 -23q-13 103 -33.5 177.5t-53.5 127t-72.5 85t-99.5 50.5t-125 24.5t-159 6.5h-104l-105 -594h95q59 0 97 11t76.5 46t72 103t69.5 180h57q-93 -471 -141 -795h-57q2 27 2 72q0 92 -10.5 149.5t-36 88t-58.5 41t-88 10.5h-96
l-88 -502q-4 -25 -4 -53q0 -41 21.5 -56.5t78.5 -15.5h84q72 0 125.5 5t109 17.5t99.5 36t90 59.5t88 89t86 123.5t92 163.5l62 -25l-275 -573q-80 5 -194 8z" />
    <glyph glyph-name="eogonek" unicode="&#x119;" horiz-adv-x="1062" 
d="M664 188q74 0 156.5 38.5t142.5 101.5l34 -25q-80 -142 -219 -229q-107 -84 -170 -169.5t-63 -154.5q0 -28 19 -45.5t50 -17.5q60 0 123 49l11 -51q-46 -40 -115.5 -72.5t-143.5 -32.5q-85 0 -136.5 34t-51.5 91q0 55 72 133t194 150q-62 -8 -94 -8q-196 0 -309 116.5
t-113 315.5q0 193 85 354.5t232.5 254.5t323.5 93q157 0 247.5 -58t90.5 -155q0 -60 -37 -114.5t-99 -96t-147 -76.5t-177 -58.5t-193 -39.5v-2q0 -150 76.5 -238t210.5 -88zM676 1036q-101 0 -188.5 -133t-106.5 -309q182 38 285.5 127t103.5 219q0 43 -25.5 69.5
t-68.5 26.5z" />
    <glyph glyph-name="Ecaron" unicode="&#x11a;" horiz-adv-x="1478" 
d="M920 1608h-41l-248 293l31 41l276 -125l319 125l13 -41zM1380 588l62 -25l-275 -573q-159 10 -456 10h-748l10 59q110 10 153 46t60 131l185 1032q6 38 6 61q0 58 -35 82.5t-125 32.5l10 59h713q278 0 432 10l58 -552l-62 -23q-13 103 -33.5 177.5t-53.5 127t-72.5 85
t-99.5 50.5t-125 24.5t-159 6.5h-104l-105 -594h95q59 0 97 11t76.5 46t72 103t69.5 180h57q-93 -471 -141 -795h-57q2 27 2 72q0 92 -10.5 149.5t-36 88t-58.5 41t-88 10.5h-96l-88 -502q-4 -25 -4 -53q0 -41 21.5 -56.5t78.5 -15.5h84q72 0 125.5 5t109 17.5t99.5 36
t90 59.5t88 89t86 123.5t92 163.5z" />
    <glyph glyph-name="ecaron" unicode="&#x11b;" horiz-adv-x="1062" 
d="M723 1188h-41l-219 426l37 31l245 -213l322 213l25 -31zM1030 901q0 -60 -37 -114.5t-99 -96t-147 -76.5t-177 -58.5t-193 -39.5v-2q0 -150 76.5 -238t210.5 -88q74 0 156.5 38.5t142.5 101.5l34 -25q-83 -146 -226.5 -234.5t-297.5 -88.5q-196 0 -309 116.5t-113 315.5
q0 193 85 354.5t232.5 254.5t323.5 93q157 0 247.5 -58t90.5 -155zM676 1036q-101 0 -188.5 -133t-106.5 -309q182 38 285.5 127t103.5 219q0 43 -25.5 69.5t-68.5 26.5z" />
    <glyph glyph-name="Gbreve" unicode="&#x11e;" horiz-adv-x="1554" 
d="M1036 1587q-93 0 -165.5 83.5t-114.5 234.5l41 32q100 -151 274 -151q87 0 172 40t156 111l28 -32q-97 -152 -197 -235t-194 -83zM840 668h721l-11 -60q-100 -9 -139.5 -41t-52.5 -118l-60 -330q-61 -8 -170 -49q-79 -28 -126.5 -43t-127 -31t-149.5 -16
q-290 0 -456.5 162t-166.5 438q0 157 45.5 302t129.5 260.5t197 202t255 133t297 46.5q75 0 138.5 -19t111 -38t82.5 -19q26 0 43 13.5t35 51.5h28l-43 -544l-57 -8q-34 469 -340 469q-114 0 -219.5 -74.5t-182.5 -198.5t-123 -293.5t-46 -351.5q0 -204 76 -321t212 -117
q105 0 240 86l39 231q8 44 8 78q0 70 -44 100t-155 39z" />
    <glyph glyph-name="gbreve" unicode="&#x11f;" horiz-adv-x="1175" 
d="M807 1194q-104 0 -165.5 111t-72.5 315l47 20q25 -116 83 -182.5t141 -66.5t165 67t148 182l39 -20q-81 -203 -182 -314.5t-203 -111.5zM852 1034q184 31 305 80h4l-94 -512l-10 -61q-84 -447 -313.5 -709t-530.5 -262q-91 0 -143 41.5t-52 109.5q0 42 19 76l563 2
q81 84 116.5 237t49.5 441l2 31q-102 -292 -209 -410t-264 -118q-114 0 -179 97t-65 265q0 213 77 390t213 279.5t300 102.5q124 0 211 -80zM477 188q51 0 99.5 66t106 222.5t128.5 422.5q-12 59 -47 91t-80 32q-80 0 -151 -83.5t-112.5 -221.5t-41.5 -291q0 -109 26 -173.5
t72 -64.5z" />
    <glyph glyph-name="Gdotaccent" unicode="&#x120;" horiz-adv-x="1554" 
d="M1061 1599q-75 0 -124.5 47t-49.5 119q0 80 56 133.5t140 53.5q75 0 123.5 -47t48.5 -119q0 -80 -55.5 -133.5t-138.5 -53.5zM840 668h721l-11 -60q-100 -9 -139.5 -41t-52.5 -118l-60 -330q-61 -8 -170 -49q-79 -28 -126.5 -43t-127 -31t-149.5 -16q-290 0 -456.5 162
t-166.5 438q0 157 45.5 302t129.5 260.5t197 202t255 133t297 46.5q75 0 138.5 -19t111 -38t82.5 -19q26 0 43 13.5t35 51.5h28l-43 -544l-57 -8q-34 469 -340 469q-114 0 -219.5 -74.5t-182.5 -198.5t-123 -293.5t-46 -351.5q0 -204 76 -321t212 -117q105 0 240 86l39 231
q8 44 8 78q0 70 -44 100t-155 39z" />
    <glyph glyph-name="gdotaccent" unicode="&#x121;" horiz-adv-x="1175" 
d="M836 1251q-75 0 -124.5 47t-49.5 119q0 82 55.5 135.5t138.5 53.5q75 0 124.5 -47t49.5 -119q0 -82 -55.5 -135.5t-138.5 -53.5zM1157 1114h4l-94 -512l-10 -61q-84 -447 -313.5 -709t-530.5 -262q-91 0 -143 41.5t-52 109.5q0 42 19 76l563 2q81 84 116.5 237t49.5 441
l2 31q-102 -292 -209 -410t-264 -118q-114 0 -179 97t-65 265q0 213 77 390t213 279.5t300 102.5q124 0 211 -80q184 31 305 80zM477 188q51 0 99.5 66t106 222.5t128.5 422.5q-12 59 -47 91t-80 32q-80 0 -151 -83.5t-112.5 -221.5t-41.5 -291q0 -109 26 -173.5t72 -64.5z
" />
    <glyph glyph-name="uni0122" unicode="&#x122;" horiz-adv-x="1554" 
d="M840 668h721l-11 -60q-100 -9 -139.5 -41t-52.5 -118l-60 -330q-61 -8 -170 -49q-79 -28 -126.5 -43t-127 -31t-149.5 -16q-290 0 -456.5 162t-166.5 438q0 157 45.5 302t129.5 260.5t197 202t255 133t297 46.5q75 0 138.5 -19t111 -38t82.5 -19q26 0 43 13.5t35 51.5h28
l-43 -544l-57 -8q-34 469 -340 469q-114 0 -219.5 -74.5t-182.5 -198.5t-123 -293.5t-46 -351.5q0 -204 76 -321t212 -117q105 0 240 86l39 231q8 44 8 78q0 70 -44 100t-155 39zM729 -47q63 0 101 -35t38 -92q0 -95 -88 -164t-219 -92l-6 51q57 12 92 38t35 58
q0 25 -30.5 40.5t-84.5 15.5q-6 30 -6 41q0 56 49.5 97.5t118.5 41.5z" />
    <glyph glyph-name="uni0123" unicode="&#x123;" horiz-adv-x="1175" 
d="M819 1217q-64 0 -101.5 34.5t-37.5 91.5q0 106 92 193.5t223 112.5l6 -52q-60 -17 -96.5 -51.5t-36.5 -75.5q0 -34 29.5 -53.5t83.5 -19.5q8 -24 8 -41q0 -56 -50.5 -97.5t-119.5 -41.5zM1157 1114h4l-94 -512l-10 -61q-84 -447 -313.5 -709t-530.5 -262q-91 0 -143 41.5
t-52 109.5q0 42 19 76l563 2q81 84 116.5 237t49.5 441l2 31q-102 -292 -209 -410t-264 -118q-114 0 -179 97t-65 265q0 213 77 390t213 279.5t300 102.5q124 0 211 -80q184 31 305 80zM477 188q51 0 99.5 66t106 222.5t128.5 422.5q-12 59 -47 91t-80 32q-80 0 -151 -83.5
t-112.5 -221.5t-41.5 -291q0 -109 26 -173.5t72 -64.5z" />
    <glyph glyph-name="Hbar" unicode="&#x126;" horiz-adv-x="1646" 
d="M1745 1444q-110 -9 -154 -44t-61 -132l-17 -92h185l-31 -80h-168l-151 -860q-7 -44 -7 -62q0 -58 35 -82.5t125 -32.5l-10 -59h-694l12 59q110 10 153 46t60 131l86 485h-508l-86 -485q-6 -38 -6 -62q0 -58 35 -82.5t125 -32.5l-11 -59h-694l12 59q110 10 153 46t60 131
l152 860h-162l31 80h145l17 92q6 38 6 61q0 58 -34.5 82.5t-123.5 32.5l10 59h693l-11 -59q-110 -9 -153 -44t-60 -132l-16 -92h506l16 92q6 38 6 61q0 58 -34.5 82.5t-124.5 32.5l12 59h692zM1124 815l50 281h-506l-50 -281h506z" />
    <glyph glyph-name="hbar" unicode="&#x127;" horiz-adv-x="1251" 
d="M1159 352l41 -24q-50 -160 -141.5 -254t-198.5 -94q-76 0 -122 37t-46 116q0 23 6 53l111 637q2 14 2 27q0 43 -39 43q-74 0 -180 -189t-215 -546l-27 -158h-309l217 1231h-137l26 72h125l11 63q8 47 -16.5 62.5t-108.5 15.5l10 55q115 22 245 63.5t224 86.5h4l-61 -346
h264l-27 -72h-250l-110 -619q64 145 135.5 248.5t138.5 156t124 75t112 22.5q75 0 120.5 -42t45.5 -122q0 -22 -5 -53l-114 -678q-2 -14 -2 -26q0 -29 22 -29q23 0 56 50.5t69 137.5z" />
    <glyph glyph-name="Imacron" unicode="&#x12a;" horiz-adv-x="811" 
d="M909 1800l-32 -94h-549l34 94h547zM227 1503h695l-13 -59q-110 -9 -153 -44t-60 -132l-182 -1032q-6 -38 -6 -62q0 -58 34.5 -82.5t123.5 -32.5l-11 -59h-692l10 59q110 10 153 46t60 131l185 1032q6 38 6 61q0 58 -35 82.5t-125 32.5z" />
    <glyph glyph-name="imacron" unicode="&#x12b;" horiz-adv-x="679" 
d="M242 1475h549l-35 -95h-547zM459 164q23 0 56 50.5t69 137.5l41 -24q-47 -160 -139 -254t-201 -94q-76 0 -121 37t-45 116q0 13 4 53l123 688q2 14 2 27q0 17 -5.5 23t-17.5 6q-23 0 -56 -50.5t-69 -138.5l-39 25q47 160 139 254t199 94q76 0 122 -37t46 -116
q0 -24 -6 -54l-121 -688q-4 -14 -4 -26q0 -29 23 -29z" />
    <glyph glyph-name="Iogonek" unicode="&#x12e;" horiz-adv-x="811" 
d="M227 1503h695l-13 -59q-110 -9 -153 -44t-60 -132l-182 -1032q-6 -38 -6 -62q0 -58 34.5 -82.5t123.5 -32.5l-11 -59h-159q-65 -61 -106.5 -131.5t-41.5 -122.5q0 -26 17 -42.5t45 -16.5q59 0 125 49l8 -51q-47 -40 -122 -72.5t-153 -32.5q-74 0 -118 32.5t-44 86.5
q0 63 77.5 141.5t222.5 159.5h-443l10 59q110 10 153 46t60 131l185 1032q6 38 6 61q0 58 -35 82.5t-125 32.5z" />
    <glyph glyph-name="iogonek" unicode="&#x12f;" horiz-adv-x="679" 
d="M508 1606q75 0 123.5 -47t48.5 -119q0 -82 -55 -135.5t-138 -53.5q-76 0 -126 47t-50 119q0 82 56 135.5t141 53.5zM459 164q23 0 56 50.5t69 137.5l41 -24q-63 -213 -197 -301q-74 -62 -125 -142.5t-51 -138.5q0 -26 16.5 -42.5t44.5 -16.5q60 0 123 49l10 -51
q-50 -40 -124 -72.5t-152 -32.5q-72 0 -116 32.5t-44 86.5q0 59 68 132t196 149q-155 7 -155 153q0 13 4 53l123 688q2 14 2 27q0 17 -5.5 23t-17.5 6q-23 0 -56 -50.5t-69 -138.5l-39 25q47 160 139 254t199 94q76 0 122 -37t46 -116q0 -24 -6 -54l-121 -688q-4 -14 -4 -26
q0 -29 23 -29z" />
    <glyph glyph-name="Idotaccent" unicode="&#x130;" horiz-adv-x="811" 
d="M614 1599q-75 0 -124.5 47t-49.5 119q0 80 56 133.5t141 53.5q75 0 123.5 -47t48.5 -119q0 -80 -56 -133.5t-139 -53.5zM227 1503h695l-13 -59q-110 -9 -153 -44t-60 -132l-182 -1032q-6 -38 -6 -62q0 -58 34.5 -82.5t123.5 -32.5l-11 -59h-692l10 59q110 10 153 46
t60 131l185 1032q6 38 6 61q0 58 -35 82.5t-125 32.5z" />
    <glyph glyph-name="dotlessi" unicode="&#x131;" horiz-adv-x="679" 
d="M584 352l41 -24q-47 -160 -139 -254t-201 -94q-76 0 -121 37t-45 116q0 13 4 53l123 688q2 14 2 27q0 17 -5.5 23t-17.5 6q-23 0 -56 -50.5t-69 -138.5l-39 25q47 160 139 254t199 94q76 0 122 -37t46 -116q0 -24 -6 -54l-121 -688q-4 -14 -4 -26q0 -29 23 -29t56 50.5
t69 137.5z" />
    <glyph glyph-name="IJ" unicode="&#x132;" horiz-adv-x="1611" 
d="M922 1503l-13 -59q-110 -9 -153 -44t-60 -132l-182 -1032q-6 -38 -6 -62q0 -58 34.5 -82.5t123.5 -32.5l-11 -59h-692l10 59q110 10 153 46t60 131l185 1032q6 38 6 61q0 58 -35 82.5t-125 32.5l10 59h695zM1049 1503h694l-12 -59q-110 -9 -154 -45t-61 -131l-144 -817
q-43 -247 -211 -433t-399 -243l-8 43q119 82 176 187.5t92 309.5l168 953q6 38 6 63q0 58 -34.5 81.5t-123.5 31.5z" />
    <glyph glyph-name="ij" unicode="&#x133;" horiz-adv-x="1286" 
d="M487 1251q-76 0 -126 47t-50 119q0 82 56 135.5t141 53.5q75 0 123.5 -47t48.5 -119q0 -82 -55 -135.5t-138 -53.5zM1167 1606q75 0 123.5 -47t48.5 -119q0 -82 -55.5 -135.5t-138.5 -53.5q-75 0 -124.5 47t-49.5 119q0 82 55.5 135.5t140.5 53.5zM584 352l41 -24
q-47 -160 -139 -254t-201 -94q-76 0 -121 37t-45 116q0 13 4 53l123 688q2 14 2 27q0 17 -5.5 23t-17.5 6q-23 0 -56 -50.5t-69 -138.5l-39 25q47 160 139 254t199 94q76 0 122 -37t46 -116q0 -24 -6 -54l-121 -688q-4 -14 -4 -26q0 -29 23 -29t56 50.5t69 137.5zM1059 1114
q76 0 122 -37t46 -116q0 -24 -6 -54l-131 -747q-40 -230 -187.5 -393t-347.5 -197l-6 43q92 73 136 163.5t71 248.5l149 849q2 14 2 27q0 29 -22 29q-23 0 -56 -50.5t-69 -138.5l-41 25q50 160 141.5 254t198.5 94z" />
    <glyph glyph-name="uni0136" unicode="&#x136;" horiz-adv-x="1589" 
d="M666 59l-11 -59h-692l10 59q110 10 153 46t60 131l185 1032q6 38 6 61q0 58 -35 82.5t-125 32.5l10 59h695l-13 -59q-110 -9 -153 -44t-60 -132l-182 -1032q-6 -38 -6 -62q0 -58 34.5 -82.5t123.5 -32.5zM1630 1444q-85 -3 -150 -29.5t-153 -109.5l-366 -347
q91 -201 154.5 -335t118.5 -237t91.5 -160t75 -94.5t68.5 -51.5t71 -21l-12 -59h-234q-51 0 -84.5 3t-73.5 15.5t-69 34.5t-66.5 62.5t-71 97t-78 141t-91.5 191t-107 250.5l467 436q34 32 53.5 51t37.5 45.5t18 44.5q0 61 -168 72l10 59h571zM795 -47q64 0 101.5 -35
t37.5 -92q0 -95 -87.5 -164t-219.5 -92l-4 51q56 12 91.5 38.5t35.5 57.5q0 25 -30.5 40.5t-84.5 15.5q-8 20 -8 41q0 56 50.5 97.5t117.5 41.5z" />
    <glyph glyph-name="uni0137" unicode="&#x137;" horiz-adv-x="1234" 
d="M1167 340l43 -21q-35 -164 -115.5 -251.5t-193.5 -87.5q-78 0 -130.5 36.5t-90.5 120.5l-203 389l76 21q125 40 198.5 113t73.5 159q0 51 -29.5 82t-78.5 31t-108.5 -37.5t-121.5 -118.5l-137 -776h-309l242 1366q8 47 -16.5 62.5t-108.5 15.5l10 55q115 22 245 63.5
t224 86.5h4l-133 -752q85 103 192.5 160t212.5 57q106 0 171 -53t65 -139q0 -94 -86.5 -187t-237.5 -160l154 -296q25 -47 45.5 -70t42.5 -23q32 0 55 38.5t45 115.5zM530 -47q63 0 101.5 -35t38.5 -92q0 -94 -88.5 -163.5t-219.5 -92.5l-6 51q57 12 92 38t35 58
q0 25 -30 40.5t-84 15.5q-7 35 -7 41q0 56 49.5 97.5t118.5 41.5z" />
    <glyph glyph-name="Lacute" unicode="&#x139;" horiz-adv-x="1378" 
d="M831 1710q-96 -44 -452 -102l-19 41q271 233 369 280q26 13 59 13q53 0 87 -35t34 -84q0 -34 -20.5 -64t-57.5 -49zM1313 584l55 -21l-274 -573q-159 10 -428 10h-703l10 59q110 10 153 46t60 131l185 1032q6 38 6 61q0 58 -35 82.5t-125 32.5l10 59h731l-12 -59
q-134 -12 -185 -54t-73 -159l-180 -1028q-4 -23 -4 -49q0 -35 17.5 -47.5t62.5 -12.5h61q81 0 139 6.5t118.5 25t108.5 51.5t99 87.5t100 133t103 186.5z" />
    <glyph glyph-name="lacute" unicode="&#x13a;" horiz-adv-x="636" 
d="M698 2011q53 0 87 -35t34 -84q0 -72 -78 -112q-100 -46 -450 -103l-21 41q281 239 369 281q24 12 59 12zM645 1649l-252 -1430q-2 -14 -2 -26q0 -29 23 -29t56 50.5t69 137.5l41 -24q-50 -160 -141.5 -254t-198.5 -94q-76 0 -122 37t-46 116q0 23 6 53l209 1180
q8 47 -16.5 62.5t-108.5 15.5l10 55q115 22 245 63.5t224 86.5h4z" />
    <glyph glyph-name="uni013B" unicode="&#x13b;" horiz-adv-x="1378" 
d="M1313 584l55 -21l-274 -573q-159 10 -428 10h-703l10 59q110 10 153 46t60 131l185 1032q6 38 6 61q0 58 -35 82.5t-125 32.5l10 59h731l-12 -59q-134 -12 -185 -54t-73 -159l-180 -1028q-4 -23 -4 -49q0 -35 17.5 -47.5t62.5 -12.5h61q81 0 139 6.5t118.5 25t108.5 51.5
t99 87.5t100 133t103 186.5zM543 -47q63 0 101 -35t38 -92q0 -95 -88 -164t-219 -92l-6 51q57 12 92 38t35 58q0 25 -30.5 40.5t-84.5 15.5q-6 30 -6 41q0 56 49.5 97.5t118.5 41.5z" />
    <glyph glyph-name="uni013C" unicode="&#x13c;" horiz-adv-x="636" 
d="M414 164q23 0 56 50.5t69 137.5l41 -24q-50 -160 -141.5 -254t-198.5 -94q-76 0 -122 37t-46 116q0 23 6 53l209 1180q8 47 -16.5 62.5t-108.5 15.5l10 55q115 22 245 63.5t224 86.5h4l-252 -1430q-2 -14 -2 -26q0 -29 23 -29zM182 -47q63 0 101.5 -35t38.5 -92
q0 -94 -88.5 -163.5t-219.5 -92.5l-6 51q57 12 92 38t35 58q0 25 -30.5 40.5t-84.5 15.5q-6 30 -6 41q0 56 49.5 97.5t118.5 41.5z" />
    <glyph glyph-name="Lcaron" unicode="&#x13d;" horiz-adv-x="1382" 
d="M1061 1223q58 27 96.5 67t38.5 76q0 31 -28.5 53t-75.5 25q-21 31 -21 61q0 60 47 103t113 43q64 0 101.5 -40t37.5 -106q0 -99 -82.5 -194t-212.5 -146zM645 94q81 0 139 6.5t118.5 25t108.5 51.5t99 87.5t100 133t103 186.5l55 -21l-274 -573q-159 10 -428 10h-703
l10 59q110 10 153 46t60 131l185 1032q6 38 6 61q0 58 -35 82.5t-125 32.5l10 59h731l-12 -59q-134 -12 -185 -54t-73 -159l-180 -1028q-4 -23 -4 -49q0 -35 17.5 -47.5t62.5 -12.5h61z" />
    <glyph glyph-name="lcaron" unicode="&#x13e;" horiz-adv-x="663" 
d="M844 1651q65 0 103 -39.5t38 -106.5q0 -99 -82.5 -194t-212.5 -146l-16 58q59 27 98 67t39 76q0 31 -28.5 53t-77.5 25q-19 28 -19 61q0 60 46.5 103t111.5 43zM645 1649l-252 -1430q-2 -14 -2 -26q0 -29 23 -29t56 50.5t69 137.5l41 -24q-50 -160 -141.5 -254
t-198.5 -94q-76 0 -122 37t-46 116q0 23 6 53l209 1180q8 47 -16.5 62.5t-108.5 15.5l10 55q115 22 245 63.5t224 86.5h4z" />
    <glyph glyph-name="Lslash" unicode="&#x141;" horiz-adv-x="1396" 
d="M1331 584l55 -21l-274 -573q-159 10 -426 10h-704l10 59q112 10 155 45.5t60 131.5l63 358l-141 -70l-35 80l195 96l100 568q6 38 6 61q0 58 -34.5 82.5t-124.5 32.5l12 59h729l-10 -59q-134 -12 -186 -54.5t-72 -158.5l-66 -371l309 154l35 -80l-362 -176l-97 -555
q-6 -35 -6 -49q0 -35 18.5 -47.5t63.5 -12.5h60q81 0 139.5 6.5t119 25t108 51.5t98.5 88t99.5 133t102.5 186z" />
    <glyph glyph-name="lslash" unicode="&#x142;" horiz-adv-x="708" 
d="M449 164q47 0 124 188l39 -24q-47 -160 -139 -254t-199 -94q-76 0 -122 37t-46 116q0 18 7 53l88 504l-99 -57l-34 78l153 88l101 567q8 47 -17 62.5t-108 15.5l10 55q115 22 245 63.5t224 86.5h4l-121 -684l123 69l35 -78l-176 -100l-113 -637q-2 -14 -2 -26
q0 -17 5.5 -23t17.5 -6z" />
    <glyph glyph-name="Nacute" unicode="&#x143;" horiz-adv-x="1546" 
d="M1212 1710q-97 -44 -450 -102l-21 41q278 237 369 280q26 13 59 13q53 0 87 -35t34 -84q0 -34 -20.5 -64t-57.5 -49zM1171 1503h502l-12 -59q-110 -9 -153 -44t-60 -132l-229 -1288h-58l-721 1155l-151 -859q-8 -44 -8 -79q0 -71 43 -100.5t149 -37.5l-10 -59h-500l10 59
q110 10 153 46t60 131l187 1042q4 46 4 57q0 54 -35 77.5t-125 31.5l10 59h391l603 -983l122 707q9 49 9 82q0 70 -42 98.5t-149 36.5z" />
    <glyph glyph-name="nacute" unicode="&#x144;" horiz-adv-x="1304" 
d="M1006 1397q-95 -60 -431 -170l-24 37q214 251 319 333q38 27 74 27q51 0 88 -36.5t37 -82.5q0 -32 -17.5 -61t-45.5 -47zM1212 352l41 -24q-47 -159 -139.5 -253.5t-200.5 -94.5q-76 0 -122 37t-46 116q0 18 7 53l110 637q4 14 4 27q0 43 -41 43q-74 0 -180 -189
t-213 -546l-29 -158h-309l156 874q2 14 2 27q0 29 -23 29t-56 -50.5t-69 -138.5l-41 25q50 160 141.5 254t198.5 94q76 0 122 -37t46 -116q0 -24 -6 -54l-51 -291q64 143 134.5 245.5t137.5 155t123.5 75t110.5 22.5q75 0 121.5 -42t46.5 -122q0 -28 -4 -53l-117 -678
q-2 -14 -2 -26q0 -29 22 -29q23 0 56 50.5t69 137.5z" />
    <glyph glyph-name="uni0145" unicode="&#x145;" horiz-adv-x="1546" 
d="M1171 1503h502l-12 -59q-110 -9 -153 -44t-60 -132l-229 -1288h-58l-721 1155l-151 -859q-8 -44 -8 -79q0 -71 43 -100.5t149 -37.5l-10 -59h-500l10 59q110 10 153 46t60 131l187 1042q4 46 4 57q0 54 -35 77.5t-125 31.5l10 59h391l603 -983l122 707q9 49 9 82
q0 70 -42 98.5t-149 36.5zM668 -47q64 0 101.5 -35t37.5 -92q0 -95 -87.5 -164t-219.5 -92l-4 51q56 12 91.5 38.5t35.5 57.5q0 25 -31 40.5t-84 15.5q-8 20 -8 41q0 56 49.5 97.5t118.5 41.5z" />
    <glyph glyph-name="uni0146" unicode="&#x146;" horiz-adv-x="1304" 
d="M1212 352l41 -24q-47 -159 -139.5 -253.5t-200.5 -94.5q-76 0 -122 37t-46 116q0 18 7 53l110 637q4 14 4 27q0 43 -41 43q-74 0 -180 -189t-213 -546l-29 -158h-309l156 874q2 14 2 27q0 29 -23 29t-56 -50.5t-69 -138.5l-41 25q50 160 141.5 254t198.5 94q76 0 122 -37
t46 -116q0 -24 -6 -54l-51 -291q64 143 134.5 245.5t137.5 155t123.5 75t110.5 22.5q75 0 121.5 -42t46.5 -122q0 -28 -4 -53l-117 -678q-2 -14 -2 -26q0 -29 22 -29q23 0 56 50.5t69 137.5zM541 -47q64 0 101.5 -35t37.5 -92q0 -95 -87.5 -164t-219.5 -92l-4 51
q56 12 91.5 38.5t35.5 57.5q0 25 -30.5 40.5t-84.5 15.5q-8 20 -8 41q0 56 50.5 97.5t117.5 41.5z" />
    <glyph glyph-name="Ncaron" unicode="&#x147;" horiz-adv-x="1546" 
d="M989 1608h-41l-248 293l29 41l277 -125l319 125l14 -41zM1171 1503h502l-12 -59q-110 -9 -153 -44t-60 -132l-229 -1288h-58l-721 1155l-151 -859q-8 -44 -8 -79q0 -71 43 -100.5t149 -37.5l-10 -59h-500l10 59q110 10 153 46t60 131l187 1042q4 46 4 57q0 54 -35 77.5
t-125 31.5l10 59h391l603 -983l122 707q9 49 9 82q0 70 -42 98.5t-149 36.5z" />
    <glyph glyph-name="ncaron" unicode="&#x148;" horiz-adv-x="1304" 
d="M788 1188h-40l-220 426l37 31l246 -213l322 213l24 -31zM1212 352l41 -24q-47 -159 -139.5 -253.5t-200.5 -94.5q-76 0 -122 37t-46 116q0 18 7 53l110 637q4 14 4 27q0 43 -41 43q-74 0 -180 -189t-213 -546l-29 -158h-309l156 874q2 14 2 27q0 29 -23 29t-56 -50.5
t-69 -138.5l-41 25q50 160 141.5 254t198.5 94q76 0 122 -37t46 -116q0 -24 -6 -54l-51 -291q64 143 134.5 245.5t137.5 155t123.5 75t110.5 22.5q75 0 121.5 -42t46.5 -122q0 -28 -4 -53l-117 -678q-2 -14 -2 -26q0 -29 22 -29q23 0 56 50.5t69 137.5z" />
    <glyph glyph-name="Eng" unicode="&#x14a;" horiz-adv-x="1544" 
d="M1171 1503h502l-12 -59q-110 -9 -153 -44t-60 -132l-168 -946q-35 -195 -160 -339t-305 -208l-8 43q209 106 293 258l-660 1059l-151 -859q-8 -44 -8 -79q0 -71 43 -100.5t149 -37.5l-10 -59h-500l10 59q110 10 153 46t60 131l187 1042q4 46 4 57q0 54 -35 77.5
t-125 31.5l10 59h391l601 -983l124 707q9 49 9 82q0 70 -42 98.5t-149 36.5z" />
    <glyph glyph-name="eng" unicode="&#x14b;" horiz-adv-x="1251" 
d="M1020 1114q75 0 121.5 -42t46.5 -122q0 -28 -4 -53l-127 -737q-38 -230 -186.5 -393t-348.5 -197l-6 43q92 72 136 163t71 249l139 798q4 14 4 27q0 43 -41 43q-74 0 -180 -189t-213 -546l-29 -158h-309l156 874q2 14 2 27q0 29 -23 29t-56 -50.5t-69 -138.5l-41 25
q50 160 141.5 254t198.5 94q76 0 122 -37t46 -116q0 -24 -6 -54l-51 -291q64 143 134.5 245.5t137.5 155t123.5 75t110.5 22.5z" />
    <glyph glyph-name="Omacron" unicode="&#x14c;" horiz-adv-x="1611" 
d="M674 1706l35 94h657l-33 -94h-659zM709 -20q-283 0 -445 161t-162 434q0 196 69 372t186 302.5t279.5 200.5t342.5 74q281 0 442.5 -161.5t161.5 -434.5q0 -195 -68.5 -371t-185 -302.5t-278.5 -200.5t-342 -74zM725 74q129 0 247 131.5t189.5 347.5t71.5 451
q0 199 -70 312.5t-198 113.5q-130 0 -249 -131.5t-191 -347.5t-72 -451q0 -198 72 -312t200 -114z" />
    <glyph glyph-name="omacron" unicode="&#x14d;" horiz-adv-x="1214" 
d="M418 1380l35 95h657l-33 -95h-659zM510 -20q-214 0 -335.5 118.5t-121.5 321.5q0 144 51 272.5t138 221t209 146.5t258 54q212 0 333 -119t121 -321q0 -144 -51 -272.5t-137.5 -221t-208 -146.5t-256.5 -54zM522 55q75 0 149.5 108t121.5 277t47 336q0 122 -38.5 192
t-105.5 70q-76 0 -151 -108t-121.5 -277t-46.5 -336q0 -122 38 -192t107 -70z" />
    <glyph glyph-name="Ohungarumlaut" unicode="&#x150;" horiz-adv-x="1611" 
d="M655 1581l-24 39q239 282 317 334q41 24 76 24q51 0 87 -34.5t36 -85.5q0 -31 -17.5 -60t-44.5 -47q-96 -60 -430 -170zM1077 1581l-24 39q239 282 317 334q40 24 76 24q51 0 87 -34.5t36 -85.5q0 -31 -17.5 -60t-44.5 -47q-96 -60 -430 -170zM709 -20q-283 0 -445 161
t-162 434q0 196 69 372t186 302.5t279.5 200.5t342.5 74q281 0 442.5 -161.5t161.5 -434.5q0 -195 -68.5 -371t-185 -302.5t-278.5 -200.5t-342 -74zM725 74q129 0 247 131.5t189.5 347.5t71.5 451q0 199 -70 312.5t-198 113.5q-130 0 -249 -131.5t-191 -347.5t-72 -451
q0 -198 72 -312t200 -114z" />
    <glyph glyph-name="ohungarumlaut" unicode="&#x151;" horiz-adv-x="1214" 
d="M492 1188l-31 33q183 310 256 383q41 41 92 41q48 0 84.5 -35t36.5 -84q0 -57 -45 -96q-42 -37 -149.5 -104.5t-243.5 -137.5zM872 1188l-30 33q183 310 256 383q41 41 92 41q48 0 84.5 -35t36.5 -84q0 -57 -45 -96q-42 -37 -150 -104t-244 -138zM510 -20
q-214 0 -335.5 118.5t-121.5 321.5q0 144 51 272.5t138 221t209 146.5t258 54q212 0 333 -119t121 -321q0 -144 -51 -272.5t-137.5 -221t-208 -146.5t-256.5 -54zM522 55q75 0 149.5 108t121.5 277t47 336q0 122 -38.5 192t-105.5 70q-76 0 -151 -108t-121.5 -277
t-46.5 -336q0 -122 38 -192t107 -70z" />
    <glyph glyph-name="OE" unicode="&#x152;" horiz-adv-x="2293" 
d="M2202 584l55 -21l-277 -573q-159 10 -456 10h-781q-298 0 -468.5 159.5t-170.5 432.5q0 152 44.5 292t127 251.5t193.5 194.5t249.5 128t289.5 45h747q278 0 432 10l58 -552l-64 -23q-13 103 -33 177t-52.5 126.5t-71.5 85t-99 51t-125.5 25t-159.5 6.5h-106l-104 -594
h96q58 0 95.5 11t76 46t72 103t69.5 180h59q-93 -471 -141 -795h-57v72q0 74 -7.5 125t-21 83.5t-38 50t-53 24t-71.5 6.5h-96l-88 -502q-6 -34 -6 -53q0 -40 23.5 -56t78.5 -16h82q73 0 126 4.5t109.5 16.5t100.5 34.5t91.5 58.5t90 88.5t88 123t93.5 164.5zM823 94h47
q63 0 89 22.5t38 86.5l211 1206h-168q-117 0 -225 -68.5t-185.5 -183.5t-124 -273t-46.5 -329q0 -214 96 -337.5t268 -123.5z" />
    <glyph glyph-name="oe" unicode="&#x153;" horiz-adv-x="1851" 
d="M1444 188q74 0 155.5 38.5t141.5 101.5l35 -25q-79 -146 -218.5 -234.5t-287.5 -88.5q-128 0 -217.5 60.5t-128.5 168.5q-87 -107 -200.5 -168t-238.5 -61q-201 0 -316.5 117.5t-115.5 318.5q0 143 49.5 272.5t133.5 222.5t201 148t247 55q136 0 233 -58.5t142 -164.5
q81 106 190 164.5t232 58.5q162 0 256 -60.5t94 -162.5q0 -72 -57 -135.5t-154.5 -109.5t-214 -78.5t-248.5 -51.5v-2q0 -150 76.5 -238t210.5 -88zM526 72q75 0 148.5 104.5t119.5 269.5t46 330q0 122 -38.5 192t-105.5 70q-75 0 -149.5 -106t-121 -271.5t-46.5 -328.5
q0 -122 38.5 -191t108.5 -69zM1464 1036q-104 0 -193 -133t-110 -309q190 38 300 124t110 212q0 49 -29.5 77.5t-77.5 28.5z" />
    <glyph glyph-name="Racute" unicode="&#x154;" horiz-adv-x="1576" 
d="M1178 1710q-96 -44 -451 -102l-20 41q280 238 368 280q26 13 60 13q53 0 86.5 -35t33.5 -84q0 -34 -20.5 -64t-56.5 -49zM1102 725q68 -173 115.5 -282.5t87 -185.5t75 -115.5t67.5 -57.5t77 -25l-11 -59h-229q-47 0 -76.5 2.5t-65 13t-60 29t-56 52.5t-58.5 81.5
t-61.5 119t-70.5 161.5t-82 211h-164l-70 -394q-8 -41 -8 -79q0 -69 42.5 -99t147.5 -39l-10 -59h-729l10 59q110 10 153 46t60 131l185 1032q6 40 6 61q0 58 -35 82.5t-125 32.5l10 59h758q229 0 362.5 -88t133.5 -237q0 -150 -102.5 -270.5t-276.5 -182.5zM721 1409
l-115 -645h156q149 0 253.5 121.5t104.5 290.5q0 108 -61 170.5t-168 62.5h-170z" />
    <glyph glyph-name="racute" unicode="&#x155;" horiz-adv-x="1019" 
d="M918 1397q-92 -60 -431 -170l-24 37q98 115 187 206.5t132 126.5q38 27 76 27q51 0 87 -36.5t36 -82.5q0 -32 -17 -61.5t-46 -46.5zM1085 983q0 -72 -45 -133h-301q-110 -183 -307 -692l-29 -158h-309l156 874q2 14 2 27q0 29 -23 29t-56 -50.5t-69 -138.5l-41 25
q50 160 141.5 254t198.5 94q76 0 122 -37t46 -116q0 -24 -6 -54l-65 -370q59 144 111 247t95.5 166.5t87 100.5t80 50t80.5 13q61 0 96 -35.5t35 -95.5z" />
    <glyph glyph-name="uni0156" unicode="&#x156;" horiz-adv-x="1576" 
d="M1102 725q68 -173 115.5 -282.5t87 -185.5t75 -115.5t67.5 -57.5t77 -25l-11 -59h-229q-47 0 -76.5 2.5t-65 13t-60 29t-56 52.5t-58.5 81.5t-61.5 119t-70.5 161.5t-82 211h-164l-70 -394q-8 -41 -8 -79q0 -69 42.5 -99t147.5 -39l-10 -59h-729l10 59q110 10 153 46
t60 131l185 1032q6 40 6 61q0 58 -35 82.5t-125 32.5l10 59h758q229 0 362.5 -88t133.5 -237q0 -150 -102.5 -270.5t-276.5 -182.5zM721 1409l-115 -645h156q149 0 253.5 121.5t104.5 290.5q0 108 -61 170.5t-168 62.5h-170zM803 -47q64 0 101.5 -35t37.5 -92
q0 -95 -87.5 -164t-219.5 -92l-4 51q56 12 91.5 38.5t35.5 57.5q0 25 -30.5 40.5t-84.5 15.5q-8 20 -8 41q0 56 50.5 97.5t117.5 41.5z" />
    <glyph glyph-name="uni0157" unicode="&#x157;" horiz-adv-x="1019" 
d="M1085 983q0 -72 -45 -133h-301q-110 -183 -307 -692l-29 -158h-309l156 874q2 14 2 27q0 29 -23 29t-56 -50.5t-69 -138.5l-41 25q50 160 141.5 254t198.5 94q76 0 122 -37t46 -116q0 -24 -6 -54l-65 -370q59 144 111 247t95.5 166.5t87 100.5t80 50t80.5 13
q61 0 96 -35.5t35 -95.5zM240 -47q64 0 101.5 -35t37.5 -92q0 -95 -87.5 -164t-219.5 -92l-4 51q56 12 91.5 38.5t35.5 57.5q0 25 -31 40.5t-84 15.5q-8 20 -8 41q0 56 49.5 97.5t118.5 41.5z" />
    <glyph glyph-name="Rcaron" unicode="&#x158;" horiz-adv-x="1576" 
d="M954 1608h-41l-247 293l28 41l277 -125l319 125l15 -41zM1102 725q68 -173 115.5 -282.5t87 -185.5t75 -115.5t67.5 -57.5t77 -25l-11 -59h-229q-47 0 -76.5 2.5t-65 13t-60 29t-56 52.5t-58.5 81.5t-61.5 119t-70.5 161.5t-82 211h-164l-70 -394q-8 -41 -8 -79
q0 -69 42.5 -99t147.5 -39l-10 -59h-729l10 59q110 10 153 46t60 131l185 1032q6 40 6 61q0 58 -35 82.5t-125 32.5l10 59h758q229 0 362.5 -88t133.5 -237q0 -150 -102.5 -270.5t-276.5 -182.5zM721 1409l-115 -645h156q149 0 253.5 121.5t104.5 290.5q0 108 -61 170.5
t-168 62.5h-170z" />
    <glyph glyph-name="rcaron" unicode="&#x159;" horiz-adv-x="1019" 
d="M700 1188h-38l-220 426l35 31l248 -213l322 213l24 -31zM1085 983q0 -72 -45 -133h-301q-110 -183 -307 -692l-29 -158h-309l156 874q2 14 2 27q0 29 -23 29t-56 -50.5t-69 -138.5l-41 25q50 160 141.5 254t198.5 94q76 0 122 -37t46 -116q0 -24 -6 -54l-65 -370
q59 144 111 247t95.5 166.5t87 100.5t80 50t80.5 13q61 0 96 -35.5t35 -95.5z" />
    <glyph glyph-name="Sacute" unicode="&#x15a;" horiz-adv-x="1304" 
d="M629 1608l-19 41q271 233 369 280q26 13 59 13q52 0 85.5 -35t33.5 -84q0 -34 -20 -64.5t-58 -48.5q-92 -44 -450 -102zM555 -20q-76 0 -145 18.5t-121.5 37.5t-89.5 19q-30 0 -49.5 -13.5t-40.5 -51.5h-31l-6 553l59 14q40 -219 158 -351t274 -132q155 0 249.5 68.5
t94.5 179.5q0 35 -16.5 67.5t-40.5 57.5t-66.5 54t-77 48.5t-90.5 48.5q-51 26 -84 44.5t-79.5 47.5t-77 54t-64 59.5t-53 69.5t-32.5 79t-13 92q0 207 162.5 343.5t408.5 136.5q74 0 142 -19.5t120.5 -39t88.5 -19.5q27 0 45.5 14t36.5 53h28l12 -530l-57 -12
q-32 205 -151.5 332t-278.5 127q-115 0 -194.5 -53t-79.5 -142q0 -40 18.5 -78t45.5 -67.5t74 -63.5t86 -57t99 -56q52 -29 82.5 -46t77.5 -47t75 -53t62 -56t52.5 -64.5t31 -71t12.5 -81.5q0 -144 -86.5 -262t-237 -185t-333.5 -67z" />
    <glyph glyph-name="sacute" unicode="&#x15b;" horiz-adv-x="1005" 
d="M858 1397q-93 -60 -430 -170l-25 37q97 115 186.5 206.5t133.5 126.5q37 27 76 27q51 0 87 -36.5t36 -82.5q0 -32 -18 -61t-46 -47zM625 668q55 -29 86 -46.5t76.5 -49t69.5 -59t42.5 -66t18.5 -80.5q0 -106 -67 -195t-183.5 -140.5t-255.5 -51.5q-191 0 -292.5 66.5
t-101.5 182.5q0 82 49.5 128t118.5 46q52 0 84 -20v-311q49 -17 148 -17q105 0 169 40.5t64 107.5q0 28 -13.5 54.5t-32 46t-53 42.5t-60.5 37t-72 37q-49 25 -73 38.5t-66 39.5t-64.5 47.5t-47 52t-35.5 65t-11 74.5q0 158 128 267.5t314 109.5q178 0 282.5 -65.5
t104.5 -174.5q0 -72 -50 -112.5t-120 -40.5q-54 0 -82 20v275q-51 22 -139 22q-80 0 -137 -33.5t-57 -89.5q0 -32 15 -62t36 -52.5t59.5 -48.5t68.5 -42.5t79 -41.5z" />
    <glyph glyph-name="Scedilla" unicode="&#x15e;" horiz-adv-x="1304" 
d="M819 913q52 -29 82.5 -46t77.5 -47t75 -53t62 -56t52.5 -64.5t31 -71t12.5 -81.5q0 -208 -172.5 -353t-433.5 -159l-35 -52q131 -89 131 -172t-82 -131.5t-231 -56.5l-2 41q131 40 131 102q0 55 -108 129l102 140q-80 5 -177 39t-136 34q-30 0 -49.5 -13.5t-40.5 -51.5
h-31l-6 553l59 14q40 -219 158 -351t274 -132q155 0 249.5 68.5t94.5 179.5q0 35 -16.5 67.5t-40.5 57.5t-66.5 54t-77 48.5t-90.5 48.5q-51 26 -84 44.5t-79.5 47.5t-77 54t-64 59.5t-53 69.5t-32.5 79t-13 92q0 207 162.5 343.5t408.5 136.5q74 0 142 -19.5t120.5 -39
t88.5 -19.5q27 0 45.5 14t36.5 53h28l12 -530l-57 -12q-32 205 -151.5 332t-278.5 127q-115 0 -194.5 -53t-79.5 -142q0 -40 18.5 -78t45.5 -67.5t74 -63.5t86 -57t99 -56z" />
    <glyph glyph-name="scedilla" unicode="&#x15f;" horiz-adv-x="1005" 
d="M625 668q55 -29 86 -46.5t76.5 -49t69.5 -59t42.5 -66t18.5 -80.5q0 -153 -133 -263t-330 -122l-35 -52q131 -89 131 -172t-82 -131.5t-231 -56.5l-2 41q131 40 131 102q0 55 -109 129l102 140q-166 9 -254 74t-88 173q0 82 49.5 128t118.5 46q52 0 84 -20v-311
q49 -17 148 -17q105 0 169 40.5t64 107.5q0 28 -13.5 54.5t-32 46t-53 42.5t-60.5 37t-72 37q-49 25 -73 38.5t-66 39.5t-64.5 47.5t-47 52t-35.5 65t-11 74.5q0 158 128 267.5t314 109.5q178 0 282.5 -65.5t104.5 -174.5q0 -72 -50 -112.5t-120 -40.5q-54 0 -82 20v275
q-51 22 -139 22q-80 0 -137 -33.5t-57 -89.5q0 -32 15 -62t36 -52.5t59.5 -48.5t68.5 -42.5t79 -41.5z" />
    <glyph glyph-name="Scaron" unicode="&#x160;" horiz-adv-x="1304" 
d="M856 1608h-41l-248 293l31 41l274 -125l322 125l12 -41zM819 913q52 -29 82.5 -46t77.5 -47t75 -53t62 -56t52.5 -64.5t31 -71t12.5 -81.5q0 -144 -86.5 -262t-237 -185t-333.5 -67q-76 0 -145 18.5t-121.5 37.5t-89.5 19q-30 0 -49.5 -13.5t-40.5 -51.5h-31l-6 553
l59 14q40 -219 158 -351t274 -132q155 0 249.5 68.5t94.5 179.5q0 35 -16.5 67.5t-40.5 57.5t-66.5 54t-77 48.5t-90.5 48.5q-51 26 -84 44.5t-79.5 47.5t-77 54t-64 59.5t-53 69.5t-32.5 79t-13 92q0 207 162.5 343.5t408.5 136.5q74 0 142 -19.5t120.5 -39t88.5 -19.5
q27 0 45.5 14t36.5 53h28l12 -530l-57 -12q-32 205 -151.5 332t-278.5 127q-115 0 -194.5 -53t-79.5 -142q0 -40 18.5 -78t45.5 -67.5t74 -63.5t86 -57t99 -56z" />
    <glyph glyph-name="scaron" unicode="&#x161;" horiz-adv-x="1005" 
d="M641 1188h-41l-219 426l37 31l246 -215l323 215l25 -31zM782 721q-54 0 -82 20v275q-51 22 -139 22q-80 0 -137 -33.5t-57 -89.5q0 -32 15 -62t36 -52.5t59.5 -48.5t68.5 -42.5t79 -41.5q55 -29 86 -46.5t76.5 -49t69.5 -59t42.5 -66t18.5 -80.5q0 -106 -67 -195
t-183.5 -140.5t-255.5 -51.5q-191 0 -292.5 66.5t-101.5 182.5q0 82 49.5 128t118.5 46q52 0 84 -20v-311q49 -17 148 -17q105 0 169 40.5t64 107.5q0 28 -13.5 54.5t-32 46t-53 42.5t-60.5 37t-72 37q-49 25 -73 38.5t-66 39.5t-64.5 47.5t-47 52t-35.5 65t-11 74.5
q0 158 128 267.5t314 109.5q178 0 282.5 -65.5t104.5 -174.5q0 -72 -50 -112.5t-120 -40.5z" />
    <glyph glyph-name="uni0162" unicode="&#x162;" horiz-adv-x="1421" 
d="M1423 1540l52 -579l-60 -21q-23 151 -50.5 242t-71.5 142t-97 68t-139 17h-31l-207 -1165q-6 -38 -6 -64q0 -61 39 -86.5t143 -34.5l-10 -59h-326l-51 -70q133 -88 133 -172q0 -83 -82 -131.5t-231 -56.5l-2 41q129 40 129 102q0 55 -106 129l114 158h-317l10 59
q127 10 174 47.5t64 137.5l206 1165h-30q-85 0 -143 -16t-120.5 -66t-123.5 -142t-138 -245l-51 21l254 579h4q74 -22 157 -29.5t253 -7.5h235q163 0 250 6.5t172 30.5h4z" />
    <glyph glyph-name="uni0163" unicode="&#x163;" horiz-adv-x="790" 
d="M559 973l-123 -697q-6 -40 -6 -65q0 -34 15.5 -49t50.5 -15q44 0 95.5 48.5t102.5 150.5l43 -27q-76 -171 -181.5 -255t-221.5 -84q-8 0 -23 1t-22 1l-37 -52q131 -87 131 -172q0 -83 -82 -131.5t-231 -56.5l-2 41q131 40 131 102q0 55 -109 129l123 164q-98 51 -98 174
q0 33 4 58l131 735h-139l18 88l147 20l68 285h279l-52 -272h295l-43 -121h-264z" />
    <glyph glyph-name="Tcaron" unicode="&#x164;" horiz-adv-x="1421" 
d="M920 1608h-41l-248 293l31 41l276 -125l319 125l13 -41zM1423 1540l52 -579l-60 -21q-23 151 -50.5 242t-71.5 142t-97 68t-139 17h-31l-207 -1165q-6 -38 -6 -64q0 -61 39 -86.5t143 -34.5l-10 -59h-739l10 59q127 10 174 47.5t64 137.5l206 1165h-30q-85 0 -143 -16
t-120.5 -66t-123.5 -142t-138 -245l-51 21l254 579h4q74 -22 157 -29.5t253 -7.5h235q163 0 250 6.5t172 30.5h4z" />
    <glyph glyph-name="tcaron" unicode="&#x165;" horiz-adv-x="790" 
d="M852 1651q64 0 101.5 -40t37.5 -106q0 -99 -82.5 -194t-212.5 -146l-16 58q59 27 98 67t39 76q0 31 -28.5 53t-75.5 25q-21 31 -21 61q0 60 47 103t113 43zM623 1366l-52 -272h295l-43 -121h-264l-123 -697q-6 -40 -6 -65q0 -34 15.5 -49t50.5 -15q44 0 95.5 48.5
t102.5 150.5l43 -27q-76 -171 -181.5 -255t-221.5 -84q-102 0 -160.5 53.5t-58.5 146.5q0 33 4 58l131 735h-139l18 88l147 20l68 285h279z" />
    <glyph glyph-name="Tbar" unicode="&#x166;" horiz-adv-x="1421" 
d="M1423 1540l52 -579l-60 -21q-23 151 -50.5 242t-71.5 142t-97 68t-139 17h-31l-111 -623h250l-30 -79h-234l-82 -463q-6 -38 -6 -64q0 -61 39 -86.5t143 -34.5l-10 -59h-739l10 59q127 10 174 47.5t64 137.5l81 463h-237l31 79h221l110 623h-30q-85 0 -143 -16
t-120.5 -66t-123.5 -142t-138 -245l-51 21l254 579h4q74 -22 157 -29.5t253 -7.5h235q163 0 250 6.5t172 30.5h4z" />
    <glyph glyph-name="tbar" unicode="&#x167;" horiz-adv-x="800" 
d="M829 973h-264l-43 -240h285l-27 -74h-270l-68 -383q-6 -40 -6 -65q0 -34 15.5 -49t50.5 -15q44 0 95.5 48.5t102.5 150.5l43 -27q-76 -171 -181.5 -255t-221.5 -84q-102 0 -160.5 53.5t-58.5 146.5q0 33 4 58l76 421h-140l27 74h125l43 240h-139l18 88l148 20l67 285h279
l-51 -272h294z" />
    <glyph glyph-name="Umacron" unicode="&#x16a;" horiz-adv-x="1531" 
d="M1436 1800l-35 -94h-658l33 94h660zM1165 1503h502l-12 -59q-110 -9 -153 -44t-62 -132l-137 -774q-41 -239 -196 -376.5t-384 -137.5q-524 0 -524 393q0 41 12 135l133 760q6 38 6 61q0 58 -34.5 82.5t-122.5 32.5l10 59h731l-10 -59q-133 -9 -185 -46.5t-69 -137.5
l-142 -805q-8 -44 -8 -95q0 -133 73 -209.5t202 -76.5q153 0 265.5 108t143.5 285l133 760q9 49 9 82q0 70 -42 98.5t-149 36.5z" />
    <glyph glyph-name="umacron" unicode="&#x16b;" horiz-adv-x="1296" 
d="M1126 1475l-34 -95h-658l33 95h659zM1196 352l39 -24q-47 -160 -139 -254t-199 -94q-76 0 -122 37t-46 116q0 23 6 53l49 283q-51 -114 -107 -202t-106.5 -141t-103 -87t-95 -46.5t-83.5 -12.5q-75 0 -120.5 41.5t-45.5 121.5q0 29 4 54l115 677q2 14 2 27q0 17 -5.5 23
t-17.5 6q-44 0 -125 -189l-39 25q47 160 139 254t201 94q75 0 120.5 -37t45.5 -116q0 -24 -6 -54l-111 -637q-2 -14 -2 -26q0 -43 41 -43q71 0 174.5 189.5t208.5 545.5l27 158h311l-155 -875q-2 -14 -2 -26q0 -17 5 -23t17 -6q23 0 56 50.5t69 137.5z" />
    <glyph glyph-name="Uring" unicode="&#x16e;" horiz-adv-x="1531" 
d="M1077 1575q-101 0 -160 53t-59 141q0 102 74 172t182 70q101 0 160 -53t59 -141q0 -101 -74.5 -171.5t-181.5 -70.5zM1100 1935q-63 0 -107.5 -44t-44.5 -107q0 -60 39 -95.5t105 -35.5q64 0 107.5 43.5t43.5 107.5q0 59 -38 95t-105 36zM1165 1503h502l-12 -59
q-110 -9 -153 -44t-62 -132l-137 -774q-41 -239 -196 -376.5t-384 -137.5q-524 0 -524 393q0 41 12 135l133 760q6 38 6 61q0 58 -34.5 82.5t-122.5 32.5l10 59h731l-10 -59q-133 -9 -185 -46.5t-69 -137.5l-142 -805q-8 -44 -8 -95q0 -133 73 -209.5t202 -76.5
q153 0 265.5 108t143.5 285l133 760q9 49 9 82q0 70 -42 98.5t-149 36.5z" />
    <glyph glyph-name="uring" unicode="&#x16f;" horiz-adv-x="1296" 
d="M762 1210q-102 0 -160.5 52.5t-58.5 140.5q0 102 74 172t182 70q101 0 160 -54.5t59 -144.5q0 -101 -74 -168.5t-182 -67.5zM784 1569q-64 0 -108.5 -44.5t-44.5 -107.5q0 -60 38.5 -95.5t104.5 -35.5q65 0 109.5 42.5t44.5 103.5q0 62 -39 99.5t-105 37.5zM1196 352
l39 -24q-47 -160 -139 -254t-199 -94q-76 0 -122 37t-46 116q0 23 6 53l49 283q-51 -114 -107 -202t-106.5 -141t-103 -87t-95 -46.5t-83.5 -12.5q-75 0 -120.5 41.5t-45.5 121.5q0 29 4 54l115 677q2 14 2 27q0 17 -5.5 23t-17.5 6q-44 0 -125 -189l-39 25q47 160 139 254
t201 94q75 0 120.5 -37t45.5 -116q0 -24 -6 -54l-111 -637q-2 -14 -2 -26q0 -43 41 -43q71 0 174.5 189.5t208.5 545.5l27 158h311l-155 -875q-2 -14 -2 -26q0 -17 5 -23t17 -6q23 0 56 50.5t69 137.5z" />
    <glyph glyph-name="Uhungarumlaut" unicode="&#x170;" horiz-adv-x="1531" 
d="M1153 1751q-100 -63 -430 -170l-25 39q234 275 318 334q40 24 76 24q51 0 86.5 -34.5t35.5 -85.5q0 -32 -16.5 -61t-44.5 -46zM1145 1581l-25 39q234 275 318 334q40 24 75 24q51 0 87 -34.5t36 -85.5q0 -32 -16.5 -61t-44.5 -46q-100 -63 -430 -170zM1165 1503h502
l-12 -59q-110 -9 -153 -44t-62 -132l-137 -774q-41 -239 -196 -376.5t-384 -137.5q-524 0 -524 393q0 41 12 135l133 760q6 38 6 61q0 58 -34.5 82.5t-122.5 32.5l10 59h731l-10 -59q-133 -9 -185 -46.5t-69 -137.5l-142 -805q-8 -44 -8 -95q0 -133 73 -209.5t202 -76.5
q153 0 265.5 108t143.5 285l133 760q9 49 9 82q0 70 -42 98.5t-149 36.5z" />
    <glyph glyph-name="uhungarumlaut" unicode="&#x171;" horiz-adv-x="1296" 
d="M901 1430q-42 -37 -149.5 -104.5t-243.5 -137.5l-31 33q175 302 256 383q41 41 92 41q48 0 84.5 -35t36.5 -84q0 -57 -45 -96zM1206 1645q48 0 84.5 -35t36.5 -84q0 -57 -45 -96q-42 -37 -149.5 -104.5t-243.5 -137.5l-31 33q175 302 256 383q41 41 92 41zM1071 164
q23 0 56 50.5t69 137.5l39 -24q-47 -160 -139 -254t-199 -94q-76 0 -122 37t-46 116q0 23 6 53l49 283q-51 -114 -107 -202t-106.5 -141t-103 -87t-95 -46.5t-83.5 -12.5q-75 0 -120.5 41.5t-45.5 121.5q0 29 4 54l115 677q2 14 2 27q0 17 -5.5 23t-17.5 6q-44 0 -125 -189
l-39 25q47 160 139 254t201 94q75 0 120.5 -37t45.5 -116q0 -24 -6 -54l-111 -637q-2 -14 -2 -26q0 -43 41 -43q71 0 174.5 189.5t208.5 545.5l27 158h311l-155 -875q-2 -14 -2 -26q0 -17 5 -23t17 -6z" />
    <glyph glyph-name="Uogonek" unicode="&#x172;" horiz-adv-x="1531" 
d="M1165 1503h502l-12 -59q-110 -9 -153 -44t-62 -132l-137 -774q-38 -221 -173.5 -355.5t-338.5 -154.5q-58 -59 -93.5 -124t-35.5 -114q0 -27 16 -43t43 -16q62 0 125 49l8 -51q-47 -40 -121.5 -72.5t-152.5 -32.5q-72 0 -117 32.5t-45 86.5q0 59 69 132t197 149
q-485 14 -485 393q0 41 12 135l133 760q6 38 6 61q0 58 -34.5 82.5t-122.5 32.5l10 59h731l-10 -59q-133 -9 -185 -46.5t-69 -137.5l-142 -805q-8 -44 -8 -95q0 -133 73 -209.5t202 -76.5q153 0 265.5 108t143.5 285l133 760q9 49 9 82q0 70 -42 98.5t-149 36.5z" />
    <glyph glyph-name="uogonek" unicode="&#x173;" horiz-adv-x="1296" 
d="M1235 328q-59 -200 -180 -291q-82 -61 -137.5 -145t-55.5 -146q0 -26 17 -42.5t45 -16.5q59 0 125 49l8 -51q-47 -40 -122 -72.5t-153 -32.5q-73 0 -117 32.5t-44 86.5q0 59 68 132t196 149q-71 3 -113.5 40.5t-42.5 112.5q0 23 6 53l49 283q-51 -114 -107 -202
t-106.5 -141t-103 -87t-95 -46.5t-83.5 -12.5q-75 0 -120.5 41.5t-45.5 121.5q0 29 4 54l115 677q2 14 2 27q0 17 -5.5 23t-17.5 6q-44 0 -125 -189l-39 25q47 160 139 254t201 94q75 0 120.5 -37t45.5 -116q0 -24 -6 -54l-111 -637q-2 -14 -2 -26q0 -43 41 -43
q71 0 174.5 189.5t208.5 545.5l27 158h311l-155 -875q-2 -14 -2 -26q0 -17 5 -23t17 -6q23 0 56 50.5t69 137.5z" />
    <glyph glyph-name="Wcircumflex" unicode="&#x174;" horiz-adv-x="2181" 
d="M1399 1735l-322 -127l-14 43l352 291h41l246 -291l-29 -43zM1821 1503h542l-10 -59q-99 -12 -156.5 -62.5t-125.5 -177.5l-660 -1224h-43l-194 1017l-560 -1017h-43l-245 1312q-17 90 -53 119.5t-126 32.5l11 59h796l-12 -59q-150 -10 -204 -41.5t-54 -95.5
q0 -29 14 -101l127 -676l537 994h43l194 -1018l295 569q63 118 89 176t26 97q0 47 -45.5 68.5t-155.5 27.5z" />
    <glyph glyph-name="wcircumflex" unicode="&#x175;" horiz-adv-x="1615" 
d="M961 1403l-324 -215l-25 31l371 426h41l219 -426l-37 -31zM1477 1114q62 0 99.5 -46t37.5 -122q0 -300 -584 -966h-41l-125 522q-142 -223 -403 -522h-41l-234 911q-8 35 -28 35q-40 0 -105 -185l-39 25q57 176 127 262t166 86q74 0 128 -45.5t77 -132.5l145 -578
q120 171 177 271l-111 465h338l166 -734q88 124 131 193v530q42 31 119 31z" />
    <glyph glyph-name="Ycircumflex" unicode="&#x176;" horiz-adv-x="1468" 
d="M1055 1735l-320 -127l-14 43l352 291h41l246 -291l-29 -43zM1079 1503h582l-12 -59q-115 -13 -213.5 -85t-216.5 -245l-301 -446l-76 -424q-6 -40 -6 -64q0 -61 39 -86.5t143 -34.5l-10 -59h-740l11 59q126 10 173 47t64 138l76 430l-189 551q-40 120 -87 165.5
t-126 53.5l13 59h760l-11 -59q-112 -6 -156 -31.5t-44 -79.5q0 -43 34 -159l117 -379l184 272q82 122 119 188.5t37 106.5t-41.5 59.5t-134.5 22.5z" />
    <glyph glyph-name="ycircumflex" unicode="&#x177;" horiz-adv-x="1230" 
d="M776 1403l-323 -215l-25 31l371 426h41l217 -426l-35 -31zM895 1094h311l-88 -492l-12 -61q-84 -447 -313 -709t-529 -262q-92 0 -144 41t-52 110q0 46 20 76l561 2q82 85 118 238.5t50 439.5l8 84q-66 -169 -141.5 -289t-146.5 -180.5t-131 -86t-117 -25.5
q-75 0 -120.5 41.5t-45.5 121.5q0 29 4 54l115 677q2 14 2 27q0 17 -5.5 23t-17.5 6q-44 0 -125 -189l-39 25q47 160 139 254t201 94q75 0 120.5 -37t45.5 -116q0 -24 -6 -54l-111 -637q-2 -14 -2 -26q0 -43 41 -43q71 0 174.5 189.5t208.5 545.5z" />
    <glyph glyph-name="Ydieresis" unicode="&#x178;" horiz-adv-x="1468" 
d="M870 1630q-61 0 -99 37.5t-38 97.5q0 64 46 111t110 47q61 0 98 -37t37 -96q0 -65 -45.5 -112.5t-108.5 -47.5zM1239 1630q-61 0 -99 37.5t-38 97.5q0 64 45.5 111t109.5 47q61 0 98.5 -37t37.5 -96q0 -65 -45.5 -112.5t-108.5 -47.5zM1079 1503h582l-12 -59
q-115 -13 -213.5 -85t-216.5 -245l-301 -446l-76 -424q-6 -40 -6 -64q0 -61 39 -86.5t143 -34.5l-10 -59h-740l11 59q126 10 173 47t64 138l76 430l-189 551q-40 120 -87 165.5t-126 53.5l13 59h760l-11 -59q-112 -6 -156 -31.5t-44 -79.5q0 -43 34 -159l117 -379l184 272
q82 122 119 188.5t37 106.5t-41.5 59.5t-134.5 22.5z" />
    <glyph glyph-name="Zacute" unicode="&#x179;" horiz-adv-x="1404" 
d="M1180 1710q-95 -44 -453 -102l-18 41q272 234 368 280q26 13 60 13q53 0 86.5 -35t33.5 -84q0 -34 -20.5 -64t-56.5 -49zM760 94q77 0 129.5 9.5t106.5 37t97.5 79.5t88.5 135t94 206l57 -12l-164 -559q-242 10 -733 10h-485v6l1091 1403h-321q-88 0 -148 -16
t-121.5 -65.5t-118 -140.5t-124.5 -241l-57 12l225 555q195 -10 682 -10h436l2 -4l-1091 -1405h354z" />
    <glyph glyph-name="zacute" unicode="&#x17a;" horiz-adv-x="1054" 
d="M895 1397q-96 -60 -430 -170l-25 37q97 115 186 206.5t134 126.5q37 27 74 27q51 0 86.5 -36.5t35.5 -82.5q0 -32 -16.5 -61.5t-44.5 -46.5zM807 236q60 0 91 28t60 109l43 -21q-23 -92 -49 -155.5t-64.5 -115t-94.5 -76.5t-131 -25q-224 0 -500 155l-142 -145l-53 53
l758 788h-231q-177 0 -250.5 -34t-114.5 -135l-49 10l158 432q202 -10 598 -10h251l3 -4l-701 -721q111 -63 227.5 -98t190.5 -35z" />
    <glyph glyph-name="Zdotaccent" unicode="&#x17b;" horiz-adv-x="1404" 
d="M954 1599q-75 0 -124.5 47t-49.5 119q0 80 56 133.5t141 53.5q75 0 123.5 -47t48.5 -119q0 -80 -56 -133.5t-139 -53.5zM760 94q77 0 129.5 9.5t106.5 37t97.5 79.5t88.5 135t94 206l57 -12l-164 -559q-242 10 -733 10h-485v6l1091 1403h-321q-88 0 -148 -16
t-121.5 -65.5t-118 -140.5t-124.5 -241l-57 12l225 555q195 -10 682 -10h436l2 -4l-1091 -1405h354z" />
    <glyph glyph-name="zdotaccent" unicode="&#x17c;" horiz-adv-x="1054" 
d="M688 1251q-76 0 -126 47t-50 119q0 82 56 135.5t141 53.5q75 0 123.5 -47t48.5 -119q0 -82 -55 -135.5t-138 -53.5zM807 236q60 0 91 28t60 109l43 -21q-23 -92 -49 -155.5t-64.5 -115t-94.5 -76.5t-131 -25q-224 0 -500 155l-142 -145l-53 53l758 788h-231
q-177 0 -250.5 -34t-114.5 -135l-49 10l158 432q202 -10 598 -10h251l3 -4l-701 -721q111 -63 227.5 -98t190.5 -35z" />
    <glyph glyph-name="Zcaron" unicode="&#x17d;" horiz-adv-x="1404" 
d="M954 1608h-41l-247 293l30 41l277 -125l319 125l13 -41zM760 94q77 0 129.5 9.5t106.5 37t97.5 79.5t88.5 135t94 206l57 -12l-164 -559q-242 10 -733 10h-485v6l1091 1403h-321q-88 0 -148 -16t-121.5 -65.5t-118 -140.5t-124.5 -241l-57 12l225 555q195 -10 682 -10
h436l2 -4l-1091 -1405h354z" />
    <glyph glyph-name="zcaron" unicode="&#x17e;" horiz-adv-x="1054" 
d="M678 1188h-41l-219 426l35 31l247 -213l322 213l25 -31zM807 236q60 0 91 28t60 109l43 -21q-23 -92 -49 -155.5t-64.5 -115t-94.5 -76.5t-131 -25q-224 0 -500 155l-142 -145l-53 53l758 788h-231q-177 0 -250.5 -34t-114.5 -135l-49 10l158 432q202 -10 598 -10h251
l3 -4l-701 -721q111 -63 227.5 -98t190.5 -35z" />
    <glyph glyph-name="florin" unicode="&#x192;" horiz-adv-x="1046" 
d="M1053 1286h-394q-30 -49 -30 -133q0 -73 19 -135.5t54 -138.5q4 -8 10 -21t10.5 -24t8.5 -21h287l-29 -88h-233q6 -30 6 -61q0 -104 -60 -227.5t-148 -223t-194 -166.5t-192 -67q-63 0 -100 32.5t-37 87.5q0 63 32 117h394q30 46 30 113q0 102 -69 268q-32 72 -47 127
h-262l28 88h217v23q0 105 60 229t147.5 224t193.5 167.5t193 67.5q64 0 101.5 -32.5t37.5 -88.5q0 -62 -34 -117z" />
    <glyph glyph-name="AEacute" unicode="&#x1fc;" horiz-adv-x="2181" 
d="M1718 1710q-97 -44 -450 -102l-21 41q271 233 369 280q26 13 59 13q53 0 87 -35t34 -84q0 -34 -20.5 -64t-57.5 -49zM2089 584l55 -21l-274 -573q-159 10 -457 10h-747l10 59q112 10 155 45.5t60 131.5l86 485h-428l-164 -293q-68 -121 -97.5 -184t-29.5 -101
q0 -41 39 -60t129 -24l-10 -59h-516l12 59q98 12 164 63t137 177l684 1204h745q282 0 433 10l57 -552l-61 -23q-10 77 -24 138t-34 109t-44 82.5t-58 59.5t-70.5 41t-87 25t-103 12.5t-122.5 3.5h-105l-104 -594h96q59 0 96.5 11t76.5 46t71.5 103t69.5 180h57
q-85 -431 -139 -795h-60q2 27 2 72q0 122 -21 185.5t-59.5 83.5t-111.5 20h-97l-88 -502q-4 -23 -4 -53q0 -41 22.5 -56.5t78.5 -15.5h84q103 0 173.5 9.5t143 38.5t131 83.5t120.5 141.5t128 217zM602 815h391l72 412q8 44 8 78q0 58 -28.5 87.5t-96.5 43.5z" />
    <glyph glyph-name="aeacute" unicode="&#x1fd;" horiz-adv-x="1722" 
d="M1337 1397q-96 -60 -430 -170l-24 37q97 116 186 207.5t133 125.5q38 27 74 27q51 0 87 -36.5t36 -82.5q0 -32 -17 -61.5t-45 -46.5zM1317 188q73 0 155 38.5t144 101.5l35 -25q-85 -146 -228 -234.5t-297 -88.5q-183 0 -293.5 100.5t-125.5 275.5q-86 -205 -183 -290.5
t-233 -85.5q-114 0 -179 97t-65 265q0 213 77 390t213 279.5t300 102.5q87 0 164.5 -47.5t124.5 -124.5q178 172 428 172q163 0 256.5 -60.5t93.5 -162.5q0 -73 -57 -136.5t-155 -109.5t-214 -78t-248 -51v-2q0 -150 76.5 -238t210.5 -88zM1337 1036q-104 0 -193 -133
t-110 -309q191 38 300.5 124t109.5 212q0 49 -29.5 77.5t-77.5 28.5zM473 188q51 0 99.5 66t106.5 223.5t130 425.5q-14 59 -49.5 89t-79.5 30q-80 0 -151 -83.5t-112.5 -221.5t-41.5 -291q0 -109 26 -173.5t72 -64.5z" />
    <glyph glyph-name="uni0218" unicode="&#x218;" horiz-adv-x="1304" 
d="M555 -20q-76 0 -145 18.5t-121.5 37.5t-89.5 19q-30 0 -49.5 -13.5t-40.5 -51.5h-31l-6 553l59 14q40 -219 158 -351t274 -132q155 0 249.5 68.5t94.5 179.5q0 35 -16.5 67.5t-40.5 57.5t-66.5 54t-77 48.5t-90.5 48.5q-51 26 -84 44.5t-79.5 47.5t-77 54t-64 59.5
t-53 69.5t-32.5 79t-13 92q0 207 162.5 343.5t408.5 136.5q74 0 142 -19.5t120.5 -39t88.5 -19.5q27 0 45.5 14t36.5 53h28l12 -530l-57 -12q-32 205 -151.5 332t-278.5 127q-115 0 -194.5 -53t-79.5 -142q0 -40 18.5 -78t45.5 -67.5t74 -63.5t86 -57t99 -56
q52 -29 82.5 -46t77.5 -47t75 -53t62 -56t52.5 -64.5t31 -71t12.5 -81.5q0 -144 -86.5 -262t-237 -185t-333.5 -67zM391 -430l-6 51q56 12 91.5 38.5t35.5 57.5q0 25 -30.5 40.5t-84.5 15.5q-8 20 -8 41q0 56 50.5 97.5t119.5 41.5q63 0 101 -35t38 -92q0 -95 -88 -164
t-219 -92z" />
    <glyph glyph-name="uni0219" unicode="&#x219;" horiz-adv-x="1005" 
d="M625 668q55 -29 86 -46.5t76.5 -49t69.5 -59t42.5 -66t18.5 -80.5q0 -106 -67 -195t-183.5 -140.5t-255.5 -51.5q-191 0 -292.5 66.5t-101.5 182.5q0 82 49.5 128t118.5 46q52 0 84 -20v-311q49 -17 148 -17q105 0 169 40.5t64 107.5q0 28 -13.5 54.5t-32 46t-53 42.5
t-60.5 37t-72 37q-49 25 -73 38.5t-66 39.5t-64.5 47.5t-47 52t-35.5 65t-11 74.5q0 158 128 267.5t314 109.5q178 0 282.5 -65.5t104.5 -174.5q0 -72 -50 -112.5t-120 -40.5q-54 0 -82 20v275q-51 22 -139 22q-80 0 -137 -33.5t-57 -89.5q0 -32 15 -62t36 -52.5t59.5 -48.5
t68.5 -42.5t79 -41.5zM408 -47q63 0 101 -35t38 -92q0 -95 -88 -164t-219 -92l-7 51q56 12 91.5 38.5t35.5 57.5q0 25 -30 40.5t-84 15.5q-8 20 -8 41q0 56 50.5 97.5t119.5 41.5z" />
    <glyph glyph-name="uni021A" unicode="&#x21a;" horiz-adv-x="1421" 
d="M1423 1540l52 -579l-60 -21q-23 151 -50.5 242t-71.5 142t-97 68t-139 17h-31l-207 -1165q-6 -38 -6 -64q0 -61 39 -86.5t143 -34.5l-10 -59h-739l10 59q127 10 174 47.5t64 137.5l206 1165h-30q-85 0 -143 -16t-120.5 -66t-123.5 -142t-138 -245l-51 21l254 579h4
q74 -22 157 -29.5t253 -7.5h235q163 0 250 6.5t172 30.5h4zM596 -47q64 0 102.5 -35t38.5 -92q0 -95 -88 -164t-219 -92l-6 51q56 12 91.5 38.5t35.5 57.5q0 25 -30.5 40.5t-84.5 15.5q-8 20 -8 41q0 56 50.5 97.5t117.5 41.5z" />
    <glyph glyph-name="uni021B" unicode="&#x21b;" horiz-adv-x="790" 
d="M559 973l-123 -697q-6 -40 -6 -65q0 -34 15.5 -49t50.5 -15q44 0 95.5 48.5t102.5 150.5l43 -27q-76 -171 -181.5 -255t-221.5 -84q-102 0 -160.5 53.5t-58.5 146.5q0 33 4 58l131 735h-139l18 88l147 20l68 285h279l-52 -272h295l-43 -121h-264zM240 -47q63 0 101 -35
t38 -92q0 -95 -88 -164t-219 -92l-6 51q57 12 92 38t35 58q0 25 -30.5 40.5t-84.5 15.5q-6 30 -6 41q0 56 49.5 97.5t118.5 41.5z" />
    <glyph glyph-name="uni0237" unicode="&#x237;" horiz-adv-x="632" 
d="M408 1114q76 0 120.5 -37t44.5 -116q0 -14 -4 -54l-133 -747q-40 -231 -186.5 -393.5t-345.5 -196.5l-8 43q93 72 137 162.5t71 249.5l148 849q4 14 4 27q0 29 -23 29q-47 0 -124 -189l-41 25q47 160 139 254t201 94z" />
    <glyph glyph-name="circumflex" unicode="&#x2c6;" horiz-adv-x="1130" 
d="M823 1219l-35 -31l-247 213l-322 -213l-24 31l368 426h41z" />
    <glyph glyph-name="caron" unicode="&#x2c7;" horiz-adv-x="1228" 
d="M799 1645l24 -31l-368 -426h-41l-219 426l34 31l248 -213z" />
    <glyph glyph-name="breve" unicode="&#x2d8;" horiz-adv-x="1105" 
d="M422 1194q-103 0 -164 111t-72 315l47 20q25 -116 83 -182.5t141 -66.5t165 67t148 182l39 -20q-82 -204 -183 -315t-204 -111z" />
    <glyph glyph-name="dotaccent" unicode="&#x2d9;" horiz-adv-x="716" 
d="M311 1251q-75 0 -124.5 47t-49.5 119q0 82 56 135.5t141 53.5q74 0 123 -47t49 -119q0 -82 -55.5 -135.5t-139.5 -53.5z" />
    <glyph glyph-name="ring" unicode="&#x2da;" horiz-adv-x="1105" 
d="M539 1210q-101 0 -160.5 52.5t-59.5 140.5q0 102 74 172t182 70q101 0 160.5 -54.5t59.5 -144.5q0 -101 -74 -168.5t-182 -67.5zM553 1286q63 0 107.5 42.5t44.5 103.5q0 62 -38.5 99.5t-105.5 37.5q-64 0 -107.5 -44.5t-43.5 -107.5q0 -60 38 -95.5t105 -35.5z" />
    <glyph glyph-name="ogonek" unicode="&#x2db;" horiz-adv-x="1136" 
d="M442 -420q-72 0 -116.5 32.5t-44.5 86.5q0 76 112 173t314 194l8 -29q-81 -61 -136 -145t-55 -146q0 -26 16 -42.5t44 -16.5q62 0 125 49l8 -51q-47 -40 -122 -72.5t-153 -32.5z" />
    <glyph glyph-name="tilde" unicode="&#x2dc;" horiz-adv-x="1228" 
d="M692 1272q-32 0 -66.5 10t-54 19.5t-57.5 29.5q-106 60 -174 60q-70 0 -117 -113l-43 12q34 122 113 209.5t170 87.5q67 0 172 -59q103 -60 178 -60q71 0 119 113l39 -12q-34 -123 -111.5 -210t-167.5 -87z" />
    <glyph glyph-name="hungarumlaut" unicode="&#x2dd;" horiz-adv-x="1136" 
d="M215 1188l-31 33q175 302 256 383q41 41 92 41q48 0 84.5 -35t36.5 -84q0 -57 -45 -96q-42 -37 -149.5 -104.5t-243.5 -137.5zM596 1188l-31 33q175 302 256 383q41 41 92 41q48 0 84.5 -35t36.5 -84q0 -57 -45 -96q-42 -37 -149.5 -104.5t-243.5 -137.5z" />
    <glyph glyph-name="gravecomb" unicode="&#x300;" 
d="M-297 1155q-123 96 -216.5 180.5t-127.5 126.5q-31 39 -31 84q0 46 37 81.5t84 35.5q31 0 59.5 -15.5t45.5 -41.5q60 -85 186 -424z" />
    <glyph glyph-name="acutecomb" unicode="&#x301;" 
d="M-672 1227l-24 37q214 251 319 333q37 27 74 27q52 0 88.5 -36.5t36.5 -82.5q0 -32 -18 -61t-46 -47q-100 -63 -430 -170z" />
    <glyph glyph-name="uni0302" unicode="&#x302;" 
d="M-195 1219l-34 -31l-248 213l-322 -213l-24 31l368 426h41z" />
    <glyph glyph-name="tildecomb" unicode="&#x303;" 
d="M-461 1272q-32 0 -66.5 10t-54 19.5t-57.5 29.5q-106 60 -174 60q-70 0 -117 -113l-43 12q34 122 113 209.5t170 87.5q67 0 172 -59q103 -60 178 -60q71 0 119 113l39 -12q-34 -123 -111.5 -210t-167.5 -87z" />
    <glyph glyph-name="uni0304" unicode="&#x304;" 
d="M-842 1380l33 95h659l-34 -95h-658z" />
    <glyph glyph-name="uni0306" unicode="&#x306;" 
d="M-573 1194q-103 0 -164 111t-72 315l47 20q25 -116 82.5 -182.5t140.5 -66.5t165.5 67t148.5 182l39 -20q-82 -204 -183 -315t-204 -111z" />
    <glyph glyph-name="uni0307" unicode="&#x307;" 
d="M-342 1251q-75 0 -124.5 47t-49.5 119q0 82 56 135.5t141 53.5q74 0 123 -47t49 -119q0 -82 -55.5 -135.5t-139.5 -53.5z" />
    <glyph glyph-name="uni0308" unicode="&#x308;" 
d="M-702 1292q-61 0 -99.5 37t-38.5 96q0 64 46 112t110 48q61 0 98 -37t37 -96q0 -65 -44.5 -112.5t-108.5 -47.5zM-334 1292q-61 0 -99 37t-38 96q0 64 46 112t110 48q61 0 98 -37t37 -96q0 -65 -45 -112.5t-109 -47.5z" />
    <glyph glyph-name="uni030A" unicode="&#x30a;" 
d="M-575 1210q-101 0 -160.5 52.5t-59.5 140.5q0 102 74 172t182 70q101 0 160.5 -54.5t59.5 -144.5q0 -101 -74 -168.5t-182 -67.5zM-561 1286q63 0 107 42.5t44 103.5q0 62 -38 99.5t-105 37.5q-64 0 -108 -44.5t-44 -107.5q0 -60 38.5 -95.5t105.5 -35.5z" />
    <glyph glyph-name="uni030B" unicode="&#x30b;" 
d="M-922 1188l-30 33q175 302 256 383q41 41 92 41q48 0 84.5 -35t36.5 -84q0 -57 -45 -96q-42 -37 -150 -104t-244 -138zM-541 1188l-30 33q175 302 256 383q41 41 92 41q48 0 84.5 -35t36.5 -84q0 -57 -45 -96q-42 -37 -150 -104t-244 -138z" />
    <glyph glyph-name="uni030C" unicode="&#x30c;" 
d="M-219 1645l24 -31l-368 -426h-41l-219 426l35 31l247 -213z" />
    <glyph glyph-name="uni0312" unicode="&#x312;" 
d="M-551 1217q-64 0 -101.5 34.5t-37.5 91.5q0 106 91.5 193.5t223.5 112.5l6 -52q-60 -17 -96.5 -51.5t-36.5 -75.5q0 -34 29.5 -53.5t81.5 -19.5q8 -24 8 -41q0 -56 -49.5 -97.5t-118.5 -41.5z" />
    <glyph glyph-name="uni0326" unicode="&#x326;" 
d="M-676 -430l-6 51q56 12 91.5 38.5t35.5 57.5q0 25 -30.5 40.5t-84.5 15.5q-8 20 -8 41q0 56 50.5 97.5t117.5 41.5q64 0 102.5 -35t38.5 -92q0 -95 -88 -164t-219 -92z" />
    <glyph glyph-name="uni0327" unicode="&#x327;" 
d="M-557 -430l-2 41q129 40 129 102q0 54 -107 129l129 176l82 -18l-51 -70q133 -88 133 -172q0 -83 -82 -131.5t-231 -56.5z" />
    <glyph glyph-name="uni0328" unicode="&#x328;" 
d="M-612 -420q-72 0 -117 32.5t-45 86.5q0 76 112 173t314 194l8 -29q-81 -61 -135.5 -145t-54.5 -146q0 -27 16 -43t43 -16q62 0 125 49l8 -51q-47 -40 -121.5 -72.5t-152.5 -32.5z" />
    <glyph glyph-name="uni0394" unicode="&#x394;" horiz-adv-x="1292" 
d="M840 1524l366 -1518l-4 -6h-1304v6l903 1518h39zM49 94h780l-217 953z" />
    <glyph glyph-name="uni03A9" unicode="&#x3a9;" horiz-adv-x="1732" 
d="M1597 514l60 -12l-152 -512q-218 10 -643 10h-47v6q81 91 154 198.5t142 243.5t110 296.5t41 318.5q0 170 -63.5 268.5t-176.5 98.5q-118 0 -223.5 -120.5t-167.5 -320.5t-62 -424q0 -271 156 -559l-2 -6h-47q-410 0 -645 -10l30 512l62 12q3 -133 69 -176t252 -43h72
q-120 99 -198 235.5t-78 284.5q0 192 107 355.5t290.5 258.5t398.5 95q270 0 427 -134.5t157 -361.5q0 -95 -31 -189t-80 -170t-117 -148.5t-133 -125.5t-137 -100h76q187 0 268.5 44.5t130.5 174.5z" />
    <glyph glyph-name="uni03BC" unicode="&#x3bc;" horiz-adv-x="1228" 
d="M1075 207q0 -42 26 -58.5t93 -21.5l-12 -55q-280 -53 -459 -92h-2l29 161q-67 -75 -152.5 -118t-171.5 -43q-123 0 -162 122q5 -307 4 -329q-1 -101 -36.5 -152t-98.5 -51q-40 0 -65 26t-25 66q0 37 125 645l80 451q6 30 6 55q0 44 -26 66t-91 34l13 56q354 105 466 143
h5l-91 -510l-45 -256q-4 -23 -4 -57q0 -125 121 -125q71 0 164 69l92 525q6 30 6 55q0 43 -25.5 65.5t-90.5 34.5l12 56q361 107 467 143h4l-152 -856q-4 -25 -4 -49z" />
    <glyph glyph-name="pi" unicode="&#x3c0;" horiz-adv-x="1323" 
d="M1169 905l-120 -686q-2 -14 -2 -26q0 -17 5 -23t17 -6q21 0 54.5 50.5t70.5 137.5l39 -24q-47 -160 -139 -254t-201 -94q-75 0 -120.5 37t-45.5 116q0 23 6 53l146 828h-297l-146 -826q-12 -71 7.5 -97t91.5 -32l-11 -59h-569l12 59q82 6 115 32.5t45 96.5l127 717
q12 72 -10.5 97.5t-104.5 31.5l11 60h1189l-12 -60q-87 -6 -117 -33t-41 -96z" />
    <glyph glyph-name="Wgrave" unicode="&#x1e80;" horiz-adv-x="2181" 
d="M1163 1710q-37 19 -57.5 49t-20.5 64q0 49 34 84t87 35q34 0 60 -13q96 -46 368 -280l-20 -41q-355 58 -451 102zM1821 1503h542l-10 -59q-99 -12 -156.5 -62.5t-125.5 -177.5l-660 -1224h-43l-194 1017l-560 -1017h-43l-245 1312q-17 90 -53 119.5t-126 32.5l11 59h796
l-12 -59q-150 -10 -204 -41.5t-54 -95.5q0 -29 14 -101l127 -676l537 994h43l194 -1018l295 569q63 118 89 176t26 97q0 47 -45.5 68.5t-155.5 27.5z" />
    <glyph glyph-name="wgrave" unicode="&#x1e81;" horiz-adv-x="1615" 
d="M1008 1155q-124 98 -218 181.5t-128 125.5q-29 36 -29 84q0 46 37 81.5t84 35.5q63 0 104 -57q64 -95 186 -424zM1477 1114q62 0 99.5 -46t37.5 -122q0 -300 -584 -966h-41l-125 522q-142 -223 -403 -522h-41l-234 911q-8 35 -28 35q-40 0 -105 -185l-39 25
q57 176 127 262t166 86q74 0 128 -45.5t77 -132.5l145 -578q120 171 177 271l-111 465h338l166 -734q88 124 131 193v530q42 31 119 31z" />
    <glyph glyph-name="Wacute" unicode="&#x1e82;" horiz-adv-x="2181" 
d="M1620 1710q-96 -44 -451 -102l-20 41q278 237 369 280q26 13 59 13q53 0 87 -35t34 -84q0 -34 -20.5 -64t-57.5 -49zM1821 1503h542l-10 -59q-99 -12 -156.5 -62.5t-125.5 -177.5l-660 -1224h-43l-194 1017l-560 -1017h-43l-245 1312q-17 90 -53 119.5t-126 32.5l11 59
h796l-12 -59q-150 -10 -204 -41.5t-54 -95.5q0 -29 14 -101l127 -676l537 994h43l194 -1018l295 569q63 118 89 176t26 97q0 47 -45.5 68.5t-155.5 27.5z" />
    <glyph glyph-name="wacute" unicode="&#x1e83;" horiz-adv-x="1615" 
d="M1159 1397q-93 -60 -430 -170l-24 37q98 115 187 206.5t132 126.5q38 27 76 27q51 0 87 -36.5t36 -82.5q0 -32 -18 -61t-46 -47zM1477 1114q62 0 99.5 -46t37.5 -122q0 -300 -584 -966h-41l-125 522q-142 -223 -403 -522h-41l-234 911q-8 35 -28 35q-40 0 -105 -185
l-39 25q57 176 127 262t166 86q74 0 128 -45.5t77 -132.5l145 -578q120 171 177 271l-111 465h338l166 -734q88 124 131 193v530q42 31 119 31z" />
    <glyph glyph-name="Wdieresis" unicode="&#x1e84;" horiz-adv-x="2181" 
d="M1214 1630q-63 0 -101 37.5t-38 97.5q0 63 46.5 110.5t109.5 47.5q61 0 98 -37t37 -96q0 -65 -44.5 -112.5t-107.5 -47.5zM1583 1630q-63 0 -101 37.5t-38 97.5q0 63 46 110.5t109 47.5q61 0 98.5 -37t37.5 -96q0 -65 -44.5 -112.5t-107.5 -47.5zM1821 1503h542l-10 -59
q-99 -12 -156.5 -62.5t-125.5 -177.5l-660 -1224h-43l-194 1017l-560 -1017h-43l-245 1312q-17 90 -53 119.5t-126 32.5l11 59h796l-12 -59q-150 -10 -204 -41.5t-54 -95.5q0 -29 14 -101l127 -676l537 994h43l194 -1018l295 569q63 118 89 176t26 97q0 47 -45.5 68.5
t-155.5 27.5z" />
    <glyph glyph-name="wdieresis" unicode="&#x1e85;" horiz-adv-x="1615" 
d="M774 1292q-61 0 -99 37t-38 96q0 64 46 112t110 48q61 0 98 -37t37 -96q0 -65 -45 -112.5t-109 -47.5zM1143 1292q-61 0 -99 37t-38 96q0 64 45.5 112t109.5 48q61 0 98 -37t37 -96q0 -65 -44.5 -112.5t-108.5 -47.5zM1477 1114q62 0 99.5 -46t37.5 -122
q0 -300 -584 -966h-41l-125 522q-142 -223 -403 -522h-41l-234 911q-8 35 -28 35q-40 0 -105 -185l-39 25q57 176 127 262t166 86q74 0 128 -45.5t77 -132.5l145 -578q120 171 177 271l-111 465h338l166 -734q88 124 131 193v530q42 31 119 31z" />
    <glyph glyph-name="uni1E9E" unicode="&#x1e9e;" horiz-adv-x="1546" 
d="M1167 1004q63 -65 108.5 -121t91 -128t69.5 -151t24 -160q0 -200 -134.5 -332t-338.5 -132q-163 0 -237 116l43 56q25 -29 63 -46.5t78 -17.5q30 0 61 14t59 41t46 75.5t18 109.5q0 91 -51 191t-178 276l371 503q-36 61 -101.5 97.5t-142.5 36.5q-150 0 -259.5 -104
t-140.5 -275l-143 -817q-6 -38 -6 -62q0 -59 34.5 -83t125.5 -32l-13 -59h-692l10 59q112 10 155 45.5t60 131.5l125 708q46 262 255 421t505 159q114 0 230 -38.5t188 -101.5v-4z" />
    <glyph glyph-name="Ygrave" unicode="&#x1ef2;" horiz-adv-x="1468" 
d="M821 1710q-38 18 -58 48.5t-20 64.5q0 49 34 84t87 35q34 0 60 -13q95 -47 366 -280l-18 -41q-360 59 -451 102zM1079 1503h582l-12 -59q-115 -13 -213.5 -85t-216.5 -245l-301 -446l-76 -424q-6 -40 -6 -64q0 -61 39 -86.5t143 -34.5l-10 -59h-740l11 59q126 10 173 47
t64 138l76 430l-189 551q-40 120 -87 165.5t-126 53.5l13 59h760l-11 -59q-112 -6 -156 -31.5t-44 -79.5q0 -43 34 -159l117 -379l184 272q82 122 119 188.5t37 106.5t-41.5 59.5t-134.5 22.5z" />
    <glyph glyph-name="ygrave" unicode="&#x1ef3;" horiz-adv-x="1230" 
d="M791 1155q-270 212 -347 307q-28 35 -28 84q0 46 36.5 81.5t82.5 35.5q65 0 106 -57q64 -95 186 -424zM895 1094h311l-88 -492l-12 -61q-84 -447 -313 -709t-529 -262q-92 0 -144 41t-52 110q0 46 20 76l561 2q82 85 118 238.5t50 439.5l8 84q-66 -169 -141.5 -289
t-146.5 -180.5t-131 -86t-117 -25.5q-75 0 -120.5 41.5t-45.5 121.5q0 29 4 54l115 677q2 14 2 27q0 17 -5.5 23t-17.5 6q-44 0 -125 -189l-39 25q47 160 139 254t201 94q75 0 120.5 -37t45.5 -116q0 -24 -6 -54l-111 -637q-2 -14 -2 -26q0 -43 41 -43q71 0 174.5 189.5
t208.5 545.5z" />
    <glyph glyph-name="endash" unicode="&#x2013;" horiz-adv-x="1351" 
d="M117 543l47 121h1089l-47 -121h-1089z" />
    <glyph glyph-name="emdash" unicode="&#x2014;" horiz-adv-x="1773" 
d="M117 543l47 121h1511l-47 -121h-1511z" />
    <glyph glyph-name="quoteleft" unicode="&#x2018;" horiz-adv-x="575" 
d="M631 1651l16 -58q-98 -46 -160.5 -111t-62.5 -130q0 -51 40.5 -83.5t108.5 -35.5q29 -39 29 -96q0 -99 -70 -172.5t-165 -73.5q-91 0 -143 57.5t-52 155.5q0 162 129.5 316.5t329.5 230.5z" />
    <glyph glyph-name="quoteright" unicode="&#x2019;" horiz-adv-x="573" 
d="M203 891l-15 57q98 46 160 111.5t62 130.5q0 51 -40.5 83.5t-109.5 35.5q-29 39 -29 96q0 98 71 172t165 74q92 0 144.5 -58t52.5 -155q0 -161 -130 -316t-331 -231z" />
    <glyph glyph-name="quotesinglbase" unicode="&#x201a;" horiz-adv-x="595" 
d="M0 -367l-14 58q98 46 159.5 111t61.5 130q0 51 -40.5 83.5t-109.5 35.5q-28 38 -28 96q0 98 70.5 172t164.5 74q92 0 144.5 -58t52.5 -155q0 -161 -130 -316t-331 -231z" />
    <glyph glyph-name="quotedblleft" unicode="&#x201c;" horiz-adv-x="1075" 
d="M631 1651l16 -58q-98 -46 -160.5 -111t-62.5 -130q0 -51 40.5 -83.5t108.5 -35.5q29 -39 29 -96q0 -99 -70 -172.5t-165 -73.5q-91 0 -143 57.5t-52 155.5q0 162 129.5 316.5t329.5 230.5zM1130 1651l17 -58q-98 -46 -160.5 -111t-62.5 -130q0 -51 40.5 -83.5
t108.5 -35.5q29 -39 29 -96q0 -98 -70.5 -172t-165.5 -74q-91 0 -142.5 57.5t-51.5 155.5q0 162 129 316.5t329 230.5z" />
    <glyph glyph-name="quotedblright" unicode="&#x201d;" horiz-adv-x="1073" 
d="M203 891l-15 57q98 46 160 111.5t62 130.5q0 51 -40.5 83.5t-109.5 35.5q-29 39 -29 96q0 98 71 172t165 74q92 0 144.5 -58t52.5 -155q0 -161 -130 -316t-331 -231zM702 891l-14 57q97 46 159 111.5t62 130.5q0 51 -40 83.5t-109 35.5q-29 39 -29 96q0 98 71 172t165 74
q91 0 143.5 -57.5t52.5 -155.5q0 -161 -130 -316t-331 -231z" />
    <glyph glyph-name="quotedblbase" unicode="&#x201e;" horiz-adv-x="1095" 
d="M0 -367l-14 58q98 46 159.5 111t61.5 130q0 51 -40.5 83.5t-109.5 35.5q-28 38 -28 96q0 98 70.5 172t164.5 74q92 0 144.5 -58t52.5 -155q0 -161 -130 -316t-331 -231zM500 -367l-15 58q98 46 160 111t62 130q0 51 -40.5 83.5t-109.5 35.5q-29 39 -29 96q0 98 71 172
t165 74q92 0 144.5 -58t52.5 -155q0 -161 -130 -316t-331 -231z" />
    <glyph glyph-name="dagger" unicode="&#x2020;" horiz-adv-x="1021" 
d="M995 1303q36 0 59 -23t23 -59q0 -49 -36 -86t-83 -37q-85 0 -311 71q-14 -277 -14 -286q-1 -124 -10 -210.5t-21.5 -131t-34 -68t-36.5 -27.5t-39 -4q-37 0 -61.5 24.5t-24.5 61.5q0 22 11 70t34 124t42 136.5t52 163t47 147.5q-252 -71 -336 -71q-36 0 -59 23t-23 59
q0 49 36 86t83 37q77 0 307 -70q-21 193 -18 274q0 70 35 107t88 37q37 0 62.5 -22.5t25.5 -57.5q0 -67 -127 -338q254 70 329 70z" />
    <glyph glyph-name="daggerdbl" unicode="&#x2021;" horiz-adv-x="1069" 
d="M1020 1303q38 0 60 -23t22 -59q0 -49 -36 -86t-83 -37q-80 0 -338 80q-284 -80 -366 -80q-36 0 -59 23t-23 59q0 49 36.5 86t83.5 37q80 0 306 -70q-19 193 -17 274q0 70 34.5 107t88.5 37q39 0 63.5 -23t24.5 -57q0 -71 -131 -340q253 72 334 72zM967 995q36 0 59 -23
t23 -59q0 -49 -36.5 -85.5t-82.5 -36.5q-81 0 -307 69q20 -209 18 -272q-1 -71 -36.5 -108.5t-88.5 -37.5q-37 0 -61.5 22.5t-24.5 57.5q0 38 36.5 134t90.5 204q-250 -69 -332 -69q-37 0 -59.5 22.5t-22.5 58.5q0 49 36 86t83 37q80 0 338 -80q284 80 367 80z" />
    <glyph glyph-name="bullet" unicode="&#x2022;" horiz-adv-x="905" 
d="M446 293q-139 0 -223 79.5t-84 209.5q0 134 101 231.5t239 97.5q136 0 220.5 -80t84.5 -208q0 -135 -100.5 -232.5t-237.5 -97.5z" />
    <glyph glyph-name="ellipsis" unicode="&#x2026;" horiz-adv-x="1769" 
d="M244 -20q-96 0 -154.5 54.5t-58.5 141.5q0 88 67.5 152.5t159.5 64.5q95 0 153 -54.5t58 -141.5q0 -88 -67 -152.5t-158 -64.5zM829 -20q-96 0 -154.5 54.5t-58.5 141.5q0 88 68 152.5t160 64.5q95 0 153 -54.5t58 -141.5q0 -88 -67.5 -152.5t-158.5 -64.5zM1415 -20
q-96 0 -154.5 54.5t-58.5 141.5q0 88 68 152.5t160 64.5q95 0 152.5 -54.5t57.5 -141.5q0 -88 -67 -152.5t-158 -64.5z" />
    <glyph glyph-name="perthousand" unicode="&#x2030;" horiz-adv-x="2605" 
d="M274 -57l-59 63l1450 1555l57 -64zM434 647q-125 0 -196.5 85.5t-71.5 232.5q0 148 57 275t154 201.5t211 74.5q124 0 195 -85.5t71 -232.5q0 -148 -57 -275t-153.5 -201.5t-209.5 -74.5zM444 707q37 0 82 103.5t76 249.5t31 261q0 64 -15.5 100.5t-42.5 36.5
q-37 0 -81.5 -103t-75.5 -249t-31 -262q0 -137 57 -137zM1300 -12q-125 0 -196.5 85t-71.5 232q0 148 57 275t154 201.5t211 74.5q124 0 195 -85t71 -232q0 -148 -57 -275t-153.5 -201.5t-209.5 -74.5zM2103 -12q-125 0 -196.5 85t-71.5 232q0 148 57 275t154 201.5
t211 74.5q124 0 195 -85t71 -232q0 -148 -57 -275t-153.5 -201.5t-209.5 -74.5zM1311 47q37 0 81.5 104t75.5 250t31 261q0 137 -57 137q-36 0 -80.5 -103.5t-75.5 -250t-31 -261.5q0 -66 15 -101.5t41 -35.5zM2111 47q37 0 82.5 104t76 250t30.5 261q0 137 -55 137
q-37 0 -82 -103.5t-76 -249.5t-31 -262q0 -137 55 -137z" />
    <glyph glyph-name="guilsinglleft" unicode="&#x2039;" horiz-adv-x="569" 
d="M563 1034l-260 -432l109 -434l-45 -25l-279 435l8 47l430 434z" />
    <glyph glyph-name="guilsinglright" unicode="&#x203a;" horiz-adv-x="567" 
d="M225 1059l277 -434l-8 -47l-431 -435l-38 25l262 434l-109 432z" />
    <glyph glyph-name="fraction" unicode="&#x2044;" horiz-adv-x="237" 
d="M-541 -57l-57 63l1448 1555l59 -64z" />
    <glyph glyph-name="Euro" unicode="&#x20ac;" horiz-adv-x="1392" 
d="M1382 1511h29l-94 -534h-57q14 71 14 143q0 142 -57.5 223.5t-159.5 81.5q-119 0 -229.5 -139t-176.5 -358h418l-29 -86h-413q-22 -108 -27 -150h389l-31 -86h-368q-4 -78 -4 -119q0 -192 61.5 -300.5t173.5 -108.5q133 0 238.5 129.5t142.5 339.5h55l-98 -557h-29
q-6 36 -17.5 49.5t-33.5 13.5q-27 0 -77 -18.5t-115.5 -36.5t-128.5 -18q-243 0 -381.5 155.5t-138.5 419.5q0 35 2 51h-158l31 86h133q10 84 26 150h-147l29 86h145q91 267 289.5 431.5t443.5 164.5q65 0 121 -18.5t94 -37t60 -18.5q19 0 35 12.5t40 48.5z" />
    <glyph glyph-name="uni20BF" unicode="&#x20bf;" horiz-adv-x="1462" 
d="M1047 780q150 -32 232.5 -113t82.5 -198q0 -124 -79.5 -231.5t-214 -171.5t-290.5 -66l-37 -205h-88l35 205h-162l-37 -205h-88l35 205h-448l12 59q110 10 153 46t60 131l182 1032q6 38 6 61q0 58 -34.5 82.5t-122.5 32.5l10 59h448l31 166h88l-30 -166h145h18l31 166h88
l-31 -172q167 -20 262 -102t95 -207q0 -139 -96 -248.5t-256 -159.5zM1038 1188q0 104 -57.5 162.5t-169.5 58.5h-63l-105 -594h64q146 0 238.5 105t92.5 268zM662 94q138 0 242 116.5t104 270.5q0 112 -69.5 176t-195.5 64h-116l-92 -518q-7 -40 -7 -53q0 -32 17 -44
t59 -12h58z" />
    <glyph glyph-name="trademark" unicode="&#x2122;" horiz-adv-x="2015" 
d="M877 1522l77 -283l-34 -12q-26 71 -48 114t-49 67.5t-56 32.5t-73 9v-528q0 -41 18.5 -56.5t75.5 -23.5v-35h-426v35q56 7 74.5 23.5t18.5 56.5v528q-42 0 -69.5 -7.5t-55 -31t-51 -67.5t-48.5 -117l-36 12l79 283h2q80 -19 220 -19h157q141 0 221 19h3zM1894 926
q3 -41 21 -59t72 -25v-35h-431v35q62 8 82 23.5t17 54.5l-33 409l-238 -532h-24l-234 530l-36 -381q-6 -55 13.5 -75.5t82.5 -28.5v-35h-248v35q55 7 72 25t22 59l43 452q5 46 -12 65.5t-70 26.5v33h316l164 -375l167 375h293v-33q-53 -7 -68 -26.5t-10 -65.5z" />
    <glyph glyph-name="oneeighth" unicode="&#x215b;" horiz-adv-x="1566" 
d="M1456 1561l57 -64l-1447 -1554l-58 63zM565 696l-6 -37h-436l8 37q65 7 90.5 28t34.5 73l76 426q4 14 4 32q0 22 -9.5 31.5t-31.5 9.5q-14 0 -59 -10l-9 35q217 109 373 205h2l-129 -729q-2 -14 -2 -31q0 -34 20 -49t74 -21zM1479 690q0 -68 -53.5 -121.5t-135.5 -81.5
q70 -42 109 -88t39 -112q0 -127 -104.5 -213t-258.5 -86q-122 0 -194 49t-72 131q0 73 58 127.5t145 83.5q-105 77 -105 190q0 124 92 205.5t230 81.5q115 0 182.5 -45.5t67.5 -120.5zM1233 522q36 39 62 90.5t26 94.5q0 42 -26.5 67t-73.5 25q-53 0 -88 -31.5t-35 -85.5
q0 -51 35 -87.5t100 -72.5zM1087 47q64 0 106 35.5t42 89.5q0 27 -10 49t-32.5 41t-42.5 32t-54 32l-31 18q-40 -40 -67 -94t-27 -98q0 -48 31 -76.5t85 -28.5z" />
    <glyph glyph-name="threeeighths" unicode="&#x215c;" horiz-adv-x="1626" 
d="M1516 1561l59 -64l-1450 -1554l-57 63zM713 977q0 -138 -150.5 -223t-439.5 -107v39q162 20 262 74t100 139q0 46 -43 74t-131 43v4l248 289h-153q-71 0 -109 -20.5t-66 -80.5l-34 9l120 309h2q91 -23 394 -23h104l2 -4l-291 -313q86 -29 135.5 -85t49.5 -124zM1538 690
q0 -68 -52.5 -122t-135.5 -81q70 -42 109.5 -88t39.5 -112q0 -127 -104 -213t-258 -86q-123 0 -195 49t-72 131q0 73 58 128.5t143 82.5q-102 77 -102 190q0 125 91 206t230 81q114 0 181 -45.5t67 -120.5zM1292 520q36 39 63 91.5t27 95.5q0 42 -27.5 67t-74.5 25
q-52 0 -87.5 -31.5t-35.5 -85.5q0 -51 34.5 -87.5t100.5 -74.5zM1147 47q66 0 107.5 35.5t41.5 89.5q0 27 -10.5 49t-33.5 41.5t-42.5 32t-54.5 31.5l-29 16q-40 -40 -67 -93t-27 -97q0 -48 31 -76.5t84 -28.5z" />
    <glyph glyph-name="fiveeighths" unicode="&#x215d;" horiz-adv-x="1605" 
d="M1495 1561l57 -64l-1448 -1554l-57 63zM700 991q0 -155 -156.5 -239.5t-434.5 -104.5v39q171 22 266.5 76.5t95.5 132.5q0 56 -71.5 87.5t-223.5 49.5v4l186 467h119q90 0 133.5 1t98.5 6t94 16h4l-86 -219h-371l-32 -76q197 -25 287.5 -82t90.5 -158zM1518 690
q0 -68 -53.5 -121.5t-135.5 -81.5q70 -42 109 -88t39 -112q0 -127 -104.5 -213t-258.5 -86q-122 0 -194 49t-72 131q0 73 58 127.5t145 83.5q-105 77 -105 190q0 124 92 205.5t230 81.5q115 0 182.5 -45.5t67.5 -120.5zM1272 522q36 39 62 90.5t26 94.5q0 42 -26.5 67
t-73.5 25q-53 0 -88 -31.5t-35 -85.5q0 -51 35 -87.5t100 -72.5zM1126 47q64 0 106 35.5t42 89.5q0 27 -10 49t-32.5 41t-42.5 32t-54 32l-31 18q-40 -40 -67 -94t-27 -98q0 -48 31 -76.5t85 -28.5z" />
    <glyph glyph-name="seveneighths" unicode="&#x215e;" horiz-adv-x="1609" 
d="M1489 1561l57 -64l-1448 -1554l-59 63zM391 1307q-73 0 -109.5 -19t-66.5 -80l-33 9l119 309h2q91 -23 393 -23h189l2 -2q-314 -427 -412 -725q-24 -69 -60.5 -99t-90.5 -30q-80 0 -80 74q0 39 37 103.5t82 122.5t119.5 139.5t112.5 120.5t99 100h-303zM1511 690
q0 -68 -53 -121.5t-137 -81.5q70 -41 109.5 -87.5t39.5 -112.5q0 -127 -104 -213t-258 -86q-122 0 -194 49t-72 131q0 74 58 129t144 82q-104 76 -104 190q0 124 91 205.5t231 81.5q114 0 181.5 -45.5t67.5 -120.5zM1264 520q36 39 63 91.5t27 95.5q0 41 -28 66.5t-75 25.5
q-52 0 -87.5 -31.5t-35.5 -85.5q0 -51 35 -87.5t101 -74.5zM1118 47q66 0 108 35.5t42 89.5q0 26 -10.5 48.5t-34 42t-41.5 31.5t-54 32l-30 18q-40 -40 -67 -94t-27 -98q0 -48 30.5 -76.5t83.5 -28.5z" />
    <glyph glyph-name="partialdiff" unicode="&#x2202;" horiz-adv-x="1249" 
d="M461 1651q359 -100 543 -314.5t184 -531.5q0 -238 -86.5 -426.5t-242 -293.5t-351.5 -105q-217 0 -342 114t-125 309q0 173 79 323t213 238.5t288 88.5q134 0 221 -84q-7 233 -106.5 380.5t-307.5 243.5zM524 74q57 0 113.5 70t101 187.5t72.5 262.5q6 58 6 108
q0 114 -36 178t-103 64q-70 0 -138 -93.5t-110.5 -240.5t-42.5 -295q0 -113 36.5 -177t100.5 -64z" />
    <glyph glyph-name="emptyset" unicode="&#x2205;" horiz-adv-x="1460" 
d="M1491 1202l-199 -176q70 -118 70 -278q0 -162 -57.5 -307t-155 -250t-233.5 -166.5t-287 -61.5q-242 0 -379 143l-197 -174l-63 74l200 178q-69 117 -69 279q0 161 57.5 306.5t155 249.5t233.5 165t287 61q242 0 377 -141l201 176zM229 477q0 -125 47 -217l875 772
q-113 119 -313 119q-168 0 -307.5 -89t-220.5 -244t-81 -341zM1253 733q0 128 -47 217l-874 -772q112 -121 313 -121q168 0 308 89.5t220 244.5t80 342z" />
    <glyph glyph-name="product" unicode="&#x220f;" horiz-adv-x="1683" 
d="M1772 1503l-13 -59q-110 -11 -153 -46t-60 -130l-254 -1442q-6 -37 -6 -62q0 -58 35 -82t125 -32l-12 -60h-693l11 60q112 10 155 45.5t60 130.5l278 1583h-504l-278 -1583q-6 -37 -6 -62q0 -58 34.5 -82t124.5 -32l-12 -60h-692l10 60q112 10 155 45.5t60 130.5
l254 1442q6 38 6 61q0 58 -34.5 82.5t-124.5 32.5l10 59h407l-12 -73l12 73h1117z" />
    <glyph glyph-name="summation" unicode="&#x2211;" horiz-adv-x="1460" 
d="M1317 946q-9 87 -21.5 153.5t-28 116t-38 83.5t-47 55.5t-59 33.5t-70 16.5t-84.5 4.5h-332l321 -727v-4l-694 -793h543q202 0 287 42.5t135 176.5l57 -12l-149 -512q-242 10 -734 10h-503v7l764 884l-439 1018l4 4h433q491 0 686 10l30 -555z" />
    <glyph glyph-name="minus" unicode="&#x2212;" horiz-adv-x="970" 
d="M98 557l17 94h778l-16 -94h-779z" />
    <glyph glyph-name="radical" unicode="&#x221a;" horiz-adv-x="1423" 
d="M1565 1651l75 -41l-1210 -2040h-41l-223 909q-24 90 -56.5 119.5t-119.5 32.5l10 59h473l145 -643z" />
    <glyph glyph-name="infinity" unicode="&#x221e;" horiz-adv-x="1740" 
d="M1366 1112q145 0 228 -87.5t83 -236.5q0 -150 -69 -278t-187.5 -202.5t-257.5 -74.5q-66 0 -120 17.5t-94.5 50.5t-70 70t-57.5 88q-73 -104 -180 -165t-221 -61q-145 0 -228 87.5t-83 236.5q0 152 68 279.5t186.5 201.5t259.5 74q126 0 206 -59.5t138 -165.5
q71 104 177.5 164.5t221.5 60.5zM1315 485q112 0 190 77.5t78 213.5q0 109 -63 176.5t-170 67.5q-93 0 -184 -58t-158 -157q5 -15 16 -37q19 -40 29.5 -62.5t30 -57t34.5 -54t37.5 -43.5t45 -36.5t52 -21t62.5 -8.5zM436 326q91 0 182.5 58t159.5 157q-5 15 -16 37
q-26 56 -41.5 87t-44 74t-55 65.5t-65.5 39t-85 16.5q-118 0 -193 -80.5t-75 -206.5q0 -108 62.5 -177.5t170.5 -69.5z" />
    <glyph glyph-name="integral" unicode="&#x222b;" horiz-adv-x="815" 
d="M47 -430q-64 0 -101.5 32.5t-37.5 88.5q0 57 35 116h393q41 81 41 213q0 82 -18 177t-35 151t-52 162q-30 91 -44.5 139.5t-29 122t-14.5 131.5q0 115 58 250t144.5 243.5t196 181.5t205.5 73q63 0 101.5 -33t38.5 -88q0 -57 -33 -117h-393q-43 -79 -43 -215
q0 -82 17.5 -176t34.5 -151.5t52 -161.5q29 -87 44.5 -138t29.5 -123t14 -131q0 -93 -37 -199t-99.5 -201.5t-139.5 -174.5t-164 -125.5t-164 -46.5z" />
    <glyph glyph-name="approxequal" unicode="&#x2248;" horiz-adv-x="970" 
d="M694 649q-40 0 -85.5 10.5t-69.5 19.5t-76 30q-133 59 -217 59q-88 0 -140 -113l-47 13q35 121 124 209t192 88q37 0 78.5 -9.5t69 -20t73.5 -30.5q45 -19 73.5 -30t71 -20t82.5 -9q88 0 140 112l45 -12q-36 -122 -123.5 -209.5t-190.5 -87.5zM625 256q-40 0 -85 10
t-71.5 19.5t-75.5 29.5q-135 60 -219 60q-85 0 -137 -113l-45 12q34 122 121.5 209.5t191.5 87.5q38 0 79.5 -9.5t68.5 -19.5t73 -30q137 -59 228 -59q86 0 137 112l47 -12q-35 -123 -122.5 -210t-190.5 -87z" />
    <glyph glyph-name="notequal" unicode="&#x2260;" horiz-adv-x="970" 
d="M901 705h-274l-146 -201h387l-18 -94h-436l-160 -222h-111l160 222h-231l18 94h281l145 201h-393l18 94h443l159 221h111l-160 -221h226z" />
    <glyph glyph-name="lessequal" unicode="&#x2264;" horiz-adv-x="970" 
d="M950 1010l-18 -103l-592 -166l534 -163l-18 -103l-733 227l14 80zM41 231l16 95h779l-17 -95h-778z" />
    <glyph glyph-name="greaterequal" unicode="&#x2265;" horiz-adv-x="970" 
d="M186 1010l732 -228l-15 -80l-811 -227l19 103l589 165l-534 164zM41 231l18 95h779l-19 -95h-778z" />
    <glyph glyph-name="lozenge" unicode="&#x25ca;" horiz-adv-x="980" 
d="M369 0l-269 696l512 697h56l268 -697l-514 -696h-53zM418 135l413 561l-215 561l-411 -561z" />
    <glyph glyph-name="uniF8FF" unicode="&#xf8ff;" horiz-adv-x="2541" 
d="M117 -20q-15 0 -25 10.5t-10 25.5q0 21 10 31l701 698h-664q-47 0 -47 39q0 19 14 33l697 701h-670q-41 0 -41 38v3q0 38 41 38h758q47 0 47 -41q0 -17 -17 -34l-698 -697h676q17 0 29 -12t12 -29v-669l694 692q16 16 35 16q37 0 37 -45v-663l696 692q16 16 33 16
q15 0 25 -12t10 -27t-13 -28l-753 -762q-14 -14 -35 -14q-41 0 -41 47v663l-694 -696q-14 -14 -35 -14q-41 0 -41 47v663l-696 -696q-14 -14 -35 -14z" />
    <glyph glyph-name="uni00A40301" horiz-adv-x="780" 
d="M829 1710q-96 -44 -452 -102l-19 41q271 233 369 280q26 13 59 13q53 0 87 -35t34 -84q0 -34 -20.5 -64t-57.5 -49zM217 1503h694l-12 -59q-110 -9 -154 -45t-61 -131l-143 -817q-43 -247 -211.5 -433t-399.5 -243l-8 43q119 82 176 187.5t92 309.5l168 953q7 44 7 63
q0 58 -34.5 81.5t-123.5 31.5z" />
    <glyph glyph-name="i.loclTRK" horiz-adv-x="679" 
d="M508 1606q75 0 123.5 -47t48.5 -119q0 -82 -55 -135.5t-138 -53.5q-76 0 -126 47t-50 119q0 82 56 135.5t141 53.5zM459 164q23 0 56 50.5t69 137.5l41 -24q-47 -160 -139 -254t-201 -94q-76 0 -121 37t-45 116q0 13 4 53l123 688q2 14 2 27q0 17 -5.5 23t-17.5 6
q-23 0 -56 -50.5t-69 -138.5l-39 25q47 160 139 254t199 94q76 0 122 -37t46 -116q0 -24 -6 -54l-121 -688q-4 -14 -4 -26q0 -29 23 -29z" />
    <glyph glyph-name="uni006A0301" horiz-adv-x="632" 
d="M639 1624q52 0 88.5 -36.5t36.5 -82.5q0 -32 -18 -61t-46 -47q-100 -63 -430 -170l-24 37q214 251 319 333q37 27 74 27zM408 1114q76 0 120.5 -37t44.5 -116q0 -14 -4 -54l-133 -747q-40 -231 -186.5 -393.5t-345.5 -196.5l-8 43q93 72 137 162.5t71 249.5l148 849
q4 14 4 27q0 29 -23 29q-47 0 -124 -189l-41 25q47 160 139 254t201 94z" />
    <glyph glyph-name="f_b" horiz-adv-x="1890" 
d="M1604 1114q114 0 178.5 -97t64.5 -265q0 -213 -82.5 -390t-227.5 -279.5t-320 -102.5q-187 0 -289.5 100t-102.5 299q0 62 13 151l139 797q8 46 -16.5 62t-108.5 16h-301q-54 -85 -62 -174q-1 -56 24.5 -92.5t70.5 -44.5h215l-47 -121h-189l-145 -813q-40 -230 -187 -393
t-346 -197l-8 43q93 72 137.5 162.5t71.5 249.5l164 948h-137l18 88l141 20q26 87 88.5 186t140.5 182t171.5 138t173.5 55q63 0 101 -33.5t38 -88.5q0 -17 -2 -27q208 65 356 156h4l-167 -947q91 225 190 318.5t238 93.5zM1208 72q82 0 155 83.5t116 221.5t43 291
q0 108 -27.5 172.5t-73.5 64.5q-71 0 -142 -141t-167 -485q-10 -58 -10 -89q0 -61 29.5 -89.5t76.5 -28.5z" />
    <glyph glyph-name="f_h" horiz-adv-x="1951" 
d="M1860 352l41 -24q-47 -160 -139 -254t-201 -94q-76 0 -121 37t-45 116q0 13 4 53l112 637q2 14 2 27q0 43 -40 43q-74 0 -180.5 -189.5t-213.5 -545.5l-26 -158h-312l236 1327q8 46 -16.5 62t-108.5 16h-301q-54 -85 -62 -174q-1 -56 24.5 -92.5t70.5 -44.5h215l-47 -121
h-189l-145 -813q-40 -230 -187 -393t-346 -197l-8 43q93 72 137.5 162.5t71.5 249.5l164 948h-137l18 88l141 20q26 87 88.5 186t140.5 182t171.5 138t173.5 55q63 0 101 -33.5t38 -88.5q0 -17 -2 -27q208 65 356 156h4l-182 -1035q51 116 108.5 206t109 144.5t105.5 89
t97.5 47.5t85.5 13q75 0 121.5 -42t46.5 -122q0 -28 -4 -53l-115 -678q-4 -14 -4 -26q0 -29 23 -29t56 50.5t69 137.5z" />
    <glyph glyph-name="f_hbar" horiz-adv-x="1951" 
d="M1860 352l41 -24q-47 -160 -139 -254t-201 -94q-76 0 -121 37t-45 116q0 13 4 53l112 637q2 14 2 27q0 43 -40 43q-74 0 -180.5 -189.5t-213.5 -545.5l-26 -158h-312l236 1327q8 46 -16.5 62t-108.5 16h-301q-54 -85 -62 -174q-1 -56 24.5 -92.5t70.5 -44.5h215l-47 -121
h-189l-145 -813q-40 -230 -187 -393t-346 -197l-8 43q93 72 137.5 162.5t71.5 249.5l164 948h-137l18 88l141 20q26 87 88.5 186t140.5 182t171.5 138t173.5 55q63 0 101 -33.5t38 -88.5q0 -17 -2 -27q208 65 356 156h4l-61 -346h283l-27 -72h-268l-109 -617
q51 116 108.5 206t109 144.5t105.5 89t97.5 47.5t85.5 13q75 0 121.5 -42t46.5 -122q0 -28 -4 -53l-115 -678q-4 -14 -4 -26q0 -29 23 -29t56 50.5t69 137.5z" />
    <glyph glyph-name="f_icircumflex" horiz-adv-x="1392" 
d="M786 1094l-45 -121h-178l-145 -813q-40 -230 -187 -393t-346 -197l-8 57q93 71 137.5 158.5t71.5 239.5l164 948h-137l18 88l141 20q24 88 80 188.5t127.5 185t156 140.5t157.5 56q49 0 77.5 -31t28.5 -84q0 -54 -33 -123h-331q-54 -84 -66 -176q0 -60 30 -98t85 -45h202
zM1272 1645l219 -426l-37 -31l-246 215l-323 -215l-25 31l371 426h41zM1174 164q47 0 124 188l41 -24q-50 -160 -141.5 -254t-198.5 -94q-76 0 -122 37t-46 116q0 18 7 53l123 688q2 14 2 27q0 29 -23 29t-56 -50.5t-69 -138.5l-41 25q47 159 139.5 253.5t200.5 94.5
q76 0 122 -37t46 -116q0 -24 -6 -54l-123 -688q-2 -14 -2 -26q0 -29 23 -29z" />
    <glyph glyph-name="f_idieresis" horiz-adv-x="1447" 
d="M469 1237q0 -60 30 -98t85 -45h202l-45 -121h-178l-145 -813q-40 -230 -187 -393t-346 -197l-8 57q93 71 137.5 158.5t71.5 239.5l164 948h-137l18 88l141 20q24 88 80 188.5t127.5 185t156 140.5t157.5 56q49 0 77.5 -31t28.5 -84q0 -54 -33 -123h-331q-54 -84 -66 -176
zM1110 1303q-56 0 -89.5 33.5t-33.5 88.5q0 61 40.5 105.5t96.5 44.5q55 0 89 -34.5t34 -88.5q0 -62 -40 -105.5t-97 -43.5zM1427 1575q55 0 89 -34.5t34 -88.5q0 -61 -40.5 -105t-96.5 -44q-57 0 -91 33t-34 89q0 60 41 105t98 45zM1227 164q23 0 56 50.5t69 137.5l41 -24
q-47 -159 -139.5 -253.5t-200.5 -94.5q-76 0 -122 37t-46 116q0 23 6 53l123 688q2 14 2 27q0 29 -23 29t-56 -50.5t-69 -138.5l-41 25q50 160 141.5 254t198.5 94q76 0 122 -37t46 -116q0 -24 -6 -54l-123 -688q-2 -14 -2 -26q0 -29 23 -29z" />
    <glyph glyph-name="f_igrave" horiz-adv-x="1437" 
d="M1350 1155q-124 98 -218 181.5t-128 125.5q-29 36 -29 84q0 46 37 81.5t84 35.5q63 0 104 -57q64 -95 186 -424zM469 1237q0 -60 30 -98t85 -45h202l-45 -121h-178l-145 -813q-40 -230 -187 -393t-346 -197l-8 57q93 71 137.5 158.5t71.5 239.5l164 948h-137l18 88
l141 20q24 88 80 188.5t127.5 185t156 140.5t157.5 56q49 0 77.5 -31t28.5 -84q0 -54 -33 -123h-331q-54 -84 -66 -176zM1219 164q47 0 124 188l41 -24q-50 -160 -141.5 -254t-198.5 -94q-76 0 -121.5 37t-45.5 116q0 23 6 53l123 688q2 14 2 27q0 29 -23 29t-56 -50.5
t-69 -138.5l-41 25q47 159 139.5 253.5t200.5 94.5q76 0 122 -37t46 -116q0 -24 -6 -54l-123 -688q-2 -14 -2 -26q0 -29 23 -29z" />
    <glyph glyph-name="f_imacron" horiz-adv-x="1392" 
d="M979 1475h524l-33 -95h-923q-57 -80 -68 -159q-1 -51 27 -85t78 -42h202l-45 -121h-178l-145 -813q-40 -230 -187 -393t-346 -197l-8 43q93 72 137.5 162.5t71.5 249.5l164 948h-137l18 88l143 20q25 84 86.5 178.5t139 174t170 132t172.5 52.5q63 0 101 -33t38 -88
q0 -14 -2 -22zM1174 164q47 0 124 188l41 -24q-50 -160 -141.5 -254t-198.5 -94q-76 0 -122 37t-46 116q0 18 7 53l123 688q2 14 2 27q0 29 -23 29t-56 -50.5t-69 -138.5l-41 25q47 159 139.5 253.5t200.5 94.5q76 0 122 -37t46 -116q0 -24 -6 -54l-123 -688q-2 -14 -2 -26
q0 -29 23 -29z" />
    <glyph glyph-name="f_iogonek" horiz-adv-x="1392" 
d="M741 973h-178l-145 -813q-40 -230 -187 -393t-346 -197l-8 57q93 71 137.5 158.5t71.5 239.5l164 948h-137l18 88l141 20q24 88 80 188.5t127.5 185t156 140.5t157.5 56q49 0 77.5 -31t28.5 -84q0 -54 -33 -123h-331q-54 -84 -66 -176q0 -60 30 -98t85 -45h202z
M1223 1606q74 0 123 -47t49 -119q0 -82 -55.5 -135.5t-139.5 -53.5q-75 0 -124.5 47t-49.5 119q0 82 56 135.5t141 53.5zM1174 164q47 0 124 188l41 -24q-63 -206 -186 -293q-79 -61 -132.5 -144t-53.5 -145q0 -27 16 -43t43 -16q62 0 125 49l8 -51q-47 -40 -121.5 -72.5
t-152.5 -32.5q-74 0 -118 32.5t-44 86.5q0 59 68 132t196 149q-71 3 -113.5 40.5t-42.5 112.5q0 18 7 53l123 688q2 14 2 27q0 29 -23 29t-56 -50.5t-69 -138.5l-41 25q47 159 139.5 253.5t200.5 94.5q76 0 122 -37t46 -116q0 -24 -6 -54l-123 -688q-2 -14 -2 -26
q0 -29 23 -29z" />
    <glyph glyph-name="f_j" horiz-adv-x="1323" 
d="M741 973h-178l-145 -813q-40 -230 -187 -393t-346 -197l-8 57q93 71 137.5 158.5t71.5 239.5l164 948h-137l18 88l141 20q24 88 80 188.5t127.5 185t156 140.5t157.5 56q49 0 77.5 -31t28.5 -84q0 -54 -33 -123h-331q-54 -84 -66 -176q0 -60 30 -98t85 -45h202z
M1206 1606q74 0 123 -47t49 -119q0 -82 -55.5 -135.5t-138.5 -53.5q-75 0 -124.5 47t-49.5 119q0 82 55.5 135.5t140.5 53.5zM1098 1114q76 0 122 -37t46 -116q0 -24 -6 -54l-132 -747q-40 -230 -187.5 -393t-346.5 -197l-8 43q93 72 137.5 162.5t71.5 249.5l149 849
q2 14 2 27q0 29 -22 29q-23 0 -56 -50.5t-69 -138.5l-41 25q47 159 139.5 253.5t200.5 94.5z" />
    <glyph glyph-name="f_k" horiz-adv-x="1935" 
d="M1868 340l45 -21q-37 -163 -117.5 -251t-191.5 -88q-78 0 -131.5 36.5t-92.5 120.5l-202 389l75 21q125 40 199 113t74 159q0 51 -30 82t-77 31q-109 0 -229 -154l-137 -778h-312l236 1327q8 46 -16.5 62t-108.5 16h-301q-54 -85 -62 -174q-1 -56 24.5 -92.5t70.5 -44.5
h215l-47 -121h-189l-145 -813q-40 -230 -187 -393t-346 -197l-8 43q93 72 137.5 162.5t71.5 249.5l164 948h-137l18 88l141 20q26 87 88.5 186t140.5 182t171.5 138t173.5 55q63 0 101 -33.5t38 -88.5q0 -17 -2 -25q214 67 356 154h4l-131 -748q84 101 191 157t213 56
q104 0 168.5 -53t64.5 -139q0 -94 -86.5 -187.5t-236.5 -159.5l153 -296q49 -93 88 -93q33 0 56 38t45 116z" />
    <glyph glyph-name="uni00660137" horiz-adv-x="1935" 
d="M1868 340l45 -21q-37 -163 -117.5 -251t-191.5 -88q-78 0 -131.5 36.5t-92.5 120.5l-202 389l75 21q125 40 199 113t74 159q0 51 -30 82t-77 31q-109 0 -229 -154l-137 -778h-312l236 1327q8 46 -16.5 62t-108.5 16h-301q-54 -85 -62 -174q-1 -56 24.5 -92.5t70.5 -44.5
h215l-47 -121h-189l-145 -813q-40 -230 -187 -393t-346 -197l-8 43q93 72 137.5 162.5t71.5 249.5l164 948h-137l18 88l141 20q26 87 88.5 186t140.5 182t171.5 138t173.5 55q63 0 101 -33.5t38 -88.5q0 -17 -2 -25q214 67 356 154h4l-131 -748q84 101 191 157t213 56
q104 0 168.5 -53t64.5 -139q0 -94 -86.5 -187.5t-236.5 -159.5l153 -296q49 -93 88 -93q33 0 56 38t45 116zM1231 -47q64 0 101.5 -35t37.5 -92q0 -95 -87.5 -164t-219.5 -92l-4 51q56 12 91.5 38.5t35.5 57.5q0 25 -31 40.5t-84 15.5q-8 20 -8 41q0 56 49.5 97.5
t118.5 41.5z" />
    <glyph glyph-name="f_lacute" horiz-adv-x="1335" 
d="M1397 2011q52 0 85.5 -35t33.5 -84q0 -74 -78 -112q-95 -45 -451 -103l-18 41q275 237 368 281q24 12 60 12zM1343 1649l-251 -1430q-5 -17 -5 -26q0 -29 23 -29t56 50.5t69 137.5l41 -24q-47 -160 -139 -254t-201 -94q-76 0 -121 37t-45 116q0 13 4 53l203 1141
q8 46 -16.5 62t-108.5 16h-301q-54 -85 -62 -174q-1 -56 24.5 -92.5t70.5 -44.5h215l-47 -121h-189l-145 -813q-40 -230 -187 -393t-346 -197l-8 43q93 72 137.5 162.5t71.5 249.5l164 948h-137l18 88l141 20q26 87 88.5 186t140.5 182t171.5 138t173.5 55q63 0 101 -33.5
t38 -88.5q0 -17 -2 -25q214 67 356 154h4z" />
    <glyph glyph-name="f_lcaron" horiz-adv-x="1361" 
d="M1554 1651q66 0 104 -40t38 -106q0 -98 -83.5 -193.5t-213.5 -146.5l-15 58q59 27 97.5 67t38.5 76q0 31 -28.5 53t-76.5 25q-18 27 -18 61q0 60 46 103t111 43zM1343 1649l-251 -1430q-5 -17 -5 -26q0 -29 23 -29t56 50.5t69 137.5l41 -24q-47 -160 -139 -254t-201 -94
q-76 0 -121 37t-45 116q0 13 4 53l203 1141q8 46 -16.5 62t-108.5 16h-301q-54 -85 -62 -174q-1 -56 24.5 -92.5t70.5 -44.5h215l-47 -121h-189l-145 -813q-40 -230 -187 -393t-346 -197l-8 43q93 72 137.5 162.5t71.5 249.5l164 948h-137l18 88l141 20q26 87 88.5 186
t140.5 182t171.5 138t173.5 55q63 0 101 -33.5t38 -88.5q0 -17 -2 -25q214 67 356 154h4z" />
    <glyph glyph-name="uni0066013C" horiz-adv-x="1335" 
d="M1110 164q23 0 56 50.5t69 137.5l41 -24q-47 -160 -139 -254t-201 -94q-76 0 -121 37t-45 116q0 13 4 53l203 1141q8 46 -16.5 62t-108.5 16h-301q-54 -85 -62 -174q-1 -56 24.5 -92.5t70.5 -44.5h215l-47 -121h-189l-145 -813q-40 -230 -187 -393t-346 -197l-8 43
q93 72 137.5 162.5t71.5 249.5l164 948h-137l18 88l141 20q26 87 88.5 186t140.5 182t171.5 138t173.5 55q63 0 101 -33.5t38 -88.5q0 -17 -2 -25q214 67 356 154h4l-251 -1430q-5 -17 -5 -26q0 -29 23 -29zM879 -47q64 0 101.5 -35t37.5 -92q0 -95 -87.5 -164t-219.5 -92
l-4 51q56 12 91.5 38.5t35.5 57.5q0 25 -30.5 40.5t-84.5 15.5q-8 20 -8 41q0 56 50.5 97.5t117.5 41.5z" />
    <glyph glyph-name="f_lslash" horiz-adv-x="1296" 
d="M1079 164q23 0 56 50.5t69 137.5l41 -24q-47 -159 -139.5 -253.5t-200.5 -94.5q-76 0 -122 37t-46 116q0 23 6 53l88 494l-83 -47l-35 78l137 77l96 539q8 46 -16.5 62t-108.5 16h-301q-52 -84 -61 -174q-1 -56 24 -92.5t68 -44.5h217l-47 -121h-191l-143 -813
q-41 -231 -187 -393.5t-345 -196.5l-9 43q93 72 136 162t71 250l166 948h-137l16 88l144 20q36 118 128 247.5t215.5 221.5t229.5 92q63 0 101 -33.5t38 -88.5q0 -17 -2 -25q212 66 355 154h4l-123 -695l139 80l35 -78l-193 -110l-110 -627q-2 -14 -2 -26q0 -29 22 -29z" />
    <glyph glyph-name="f_thorn" horiz-adv-x="1894" 
d="M1604 1114q114 0 178.5 -97t64.5 -265q0 -213 -77 -390t-212 -279.5t-298 -102.5q-117 0 -197 67l-41 -229q-8 -47 16 -62.5t107 -15.5l-8 -55q-283 -43 -463 -111h-4l307 1753q8 46 -16.5 62t-106.5 16h-303q-54 -85 -62 -174q-1 -56 24.5 -92.5t70.5 -44.5h215
l-47 -121h-189l-145 -813q-40 -230 -187 -393t-346 -197l-8 43q93 72 137.5 162.5t71.5 249.5l164 948h-137l18 88l141 20q26 87 88.5 186t140.5 182t171.5 138t173.5 55q63 0 101 -33.5t38 -88.5q0 -17 -2 -27q208 65 356 156h4l-163 -938q89 220 187.5 311.5t236.5 91.5z
M1217 72q80 0 151 83.5t112.5 221.5t41.5 291q0 109 -27 173t-74 64q-50 0 -98 -65.5t-105 -222t-128 -422.5q10 -59 46 -91t81 -32z" />
    <glyph glyph-name="zero.osf" horiz-adv-x="1247" 
d="M524 -20q-212 0 -334 119t-122 321q0 192 86 351t237 251t334 92q211 0 333 -119t122 -321q0 -144 -51 -272.5t-138 -221t-209 -146.5t-258 -54zM539 55q75 0 149 108t120 277t46 336q0 123 -37.5 192.5t-105.5 69.5q-75 0 -149.5 -108t-121.5 -277t-47 -336
q0 -123 38 -192.5t108 -69.5z" />
    <glyph glyph-name="one.osf" horiz-adv-x="729" 
d="M489 156q0 -53 34 -72.5t128 -24.5l-10 -59h-680l12 59q117 6 156.5 36t56.5 126l80 449q8 44 8 73q0 36 -14.5 53t-48.5 17q-35 0 -109 -22l-10 57q182 84 300 144t261 143h4l-161 -914q-7 -47 -7 -65z" />
    <glyph glyph-name="two.osf" horiz-adv-x="1228" 
d="M1092 432l49 -10l-125 -432q-212 10 -631 10h-422v6q132 107 268 197q75 51 123 85t111 82t101.5 87t75.5 84.5t54 91t17 90.5q0 64 -43 101.5t-115 37.5q-92 0 -184 -61t-156 -148l-35 23q99 185 268 311.5t332 126.5q133 0 210 -71.5t77 -188.5q0 -45 -10.5 -87.5
t-26.5 -78t-46.5 -72t-57 -64t-72.5 -60.5t-79 -54.5t-90.5 -53.5t-93 -50.5t-99.5 -50.5q-7 -3 -21.5 -10.5t-21.5 -10.5h278q177 0 250.5 34.5t114.5 135.5z" />
    <glyph glyph-name="three.osf" horiz-adv-x="1048" 
d="M606 506q158 -22 254 -110t96 -218q0 -159 -124.5 -290t-352 -214t-524.5 -104l4 55q292 34 472.5 168t180.5 316q0 101 -68.5 161t-187.5 60q-61 0 -123 -19l-2 68q178 86 290 199t112 227q0 63 -42.5 102t-113.5 39q-77 0 -166.5 -49t-158.5 -125l-31 29
q107 141 260 229t299 88q131 0 208 -60.5t77 -160.5q0 -119 -101 -221t-258 -170z" />
    <glyph glyph-name="four.osf" horiz-adv-x="1290" 
d="M1198 90l-33 -90h-282l-70 -391l-313 -37h-4l75 428h-624v6l946 1088h182l-178 -1014q169 0 297 10h4zM106 80h480l123 696z" />
    <glyph glyph-name="five.osf" horiz-adv-x="1304" 
d="M1083 823h-659l-96 -225q350 -39 516 -137.5t166 -276.5q0 -265 -266.5 -424t-751.5 -190v55q324 37 509 148t185 272q0 116 -136.5 179.5t-422.5 97.5v6l313 766h183q245 0 368 8.5t213 32.5h4z" />
    <glyph glyph-name="six.osf" horiz-adv-x="1271" 
d="M766 887q168 0 271.5 -96.5t103.5 -255.5q0 -155 -81 -282.5t-223.5 -200t-316.5 -72.5q-203 0 -320.5 123.5t-117.5 334.5q0 189 91.5 376.5t252.5 345t383 285.5t479 206l8 -45q-251 -116 -462 -317.5t-324 -463.5q121 62 256 62zM535 55q66 0 131.5 80t106 203
t40.5 244q0 99 -36.5 156t-100.5 57q-52 0 -108 -21t-99 -57q-63 -189 -63 -402q0 -121 33.5 -190.5t95.5 -69.5z" />
    <glyph glyph-name="seven.osf" horiz-adv-x="1294" 
d="M1268 1094l2 -4q-294 -383 -484 -708t-292 -632q-62 -180 -211 -180q-117 0 -117 104q0 71 67 196.5t158 250t216.5 275.5t208 243.5t167.5 183.5h-508q-140 0 -206.5 -39t-127.5 -161l-51 14l201 496h4q83 -24 223.5 -31.5t405.5 -7.5h344z" />
    <glyph glyph-name="eight.osf" horiz-adv-x="1300" 
d="M874 854q48 -30 82 -54t72.5 -59t62 -69.5t39 -80.5t15.5 -97q0 -143 -80 -261t-221 -185.5t-312 -67.5q-207 0 -327.5 86t-120.5 233q0 73 31.5 139t86 115.5t119 86t138.5 60.5q-89 67 -139 146t-50 188q0 214 151 352t384 138q188 0 298.5 -78.5t110.5 -210.5
q0 -128 -97 -229.5t-243 -151.5zM786 1430q-103 0 -174 -61.5t-71 -164.5q0 -50 19 -93t58.5 -80.5t78 -65t98.5 -62.5q72 60 134 158.5t62 191.5q0 82 -55 129.5t-150 47.5zM549 74q133 0 219 72t86 182q0 48 -19 88t-60.5 76t-76.5 59t-98 59q-51 31 -63 39
q-97 -76 -158.5 -176t-61.5 -194t62.5 -149.5t169.5 -55.5z" />
    <glyph glyph-name="nine.osf" horiz-adv-x="1200" 
d="M678 1114q208 0 326 -124t118 -335q0 -219 -121.5 -433t-340.5 -385t-498 -267l-8 45q182 108 326.5 286t228.5 394q-123 -68 -267 -68q-169 0 -272.5 95t-103.5 251q0 151 80 275t220.5 195t311.5 71zM743 399q58 193 58 375q0 124 -35.5 194t-99.5 70q-65 0 -129 -77
t-104 -197t-40 -238q0 -94 38 -150.5t104 -56.5q52 0 108 22t100 58z" />
    <glyph glyph-name="zero.dnom" horiz-adv-x="811" 
d="M307 -12q-125 0 -196.5 85t-71.5 232q0 148 57 275t154 201.5t211 74.5q124 0 196 -85.5t72 -231.5q0 -148 -57.5 -275t-154.5 -201.5t-210 -74.5zM317 47q37 0 82.5 104t76 250t30.5 261q0 137 -55 137q-37 0 -82 -103.5t-76 -249.5t-31 -262q0 -137 55 -137z" />
    <glyph glyph-name="one.dnom" horiz-adv-x="542" 
d="M311 106q0 -34 20.5 -48.5t74.5 -20.5l-9 -37h-434l8 37q65 7 90.5 28t34.5 72l76 426q4 28 4 33q0 22 -9.5 31.5t-31.5 9.5q-16 0 -61 -10l-8 35q205 102 374 204h2l-129 -729q-2 -14 -2 -31z" />
    <glyph glyph-name="two.dnom" horiz-adv-x="763" 
d="M623 301l34 -8l-88 -299q-129 6 -426 6h-206l-3 4q74 74 168 152q59 50 91 78.5t78 75.5t70 82t42 79.5t18 87.5q0 51 -27 80t-73 29q-112 0 -195 -117l-28 18q74 130 180.5 208.5t204.5 78.5q88 0 139 -47t51 -123q0 -45 -13 -89t-33 -79.5t-54.5 -74t-65 -66.5
t-79 -63.5t-82.5 -58t-88 -56.5h145q118 0 167.5 20.5t72.5 81.5z" />
    <glyph glyph-name="three.dnom" horiz-adv-x="684" 
d="M389 524q84 -28 133 -83.5t49 -123.5q0 -138 -150 -222.5t-439 -106.5v39q162 20 262 74t100 139q0 46 -42.5 73.5t-129.5 42.5l-2 4l248 289h-154q-71 0 -108.5 -20t-65.5 -80l-35 8l121 309h2q87 -22 393 -22h107l2 -4z" />
    <glyph glyph-name="four.dnom" horiz-adv-x="768" 
d="M514 213l-12 -76q-4 -20 -4 -35q0 -31 18.5 -45t65.5 -20l-9 -37h-434l6 37q73 9 102.5 34t39.5 89l10 53h-330l-2 2l512 629h148l-99 -568q68 0 164 7h2l-24 -70h-154zM80 276h227l64 359z" />
    <glyph glyph-name="five.dnom" horiz-adv-x="673" 
d="M584 647h-369l-33 -76q198 -25 288.5 -81.5t90.5 -157.5q0 -105 -76 -179t-205.5 -113t-312.5 -52l2 39q171 22 267 76.5t96 132.5q0 56 -71.5 87.5t-223.5 49.5v4l186 467h117q97 0 136 0.5t95.5 5.5t96.5 16h2z" />
    <glyph glyph-name="six.dnom" horiz-adv-x="745" 
d="M426 502q99 0 162 -56t63 -149q0 -132 -105 -220.5t-263 -88.5q-122 0 -193.5 71.5t-71.5 190.5q0 100 50 197t135.5 174t195.5 138t234 97l8 -33q-104 -53 -187.5 -141.5t-136.5 -198.5q63 19 109 19zM295 47q41 0 83 98.5t42 192.5q0 42 -16 69t-42 27q-35 0 -73 -20
q-45 -127 -45 -260q0 -107 51 -107z" />
    <glyph glyph-name="seven.dnom" horiz-adv-x="712" 
d="M741 844l2 -2q-317 -431 -411 -725q-24 -69 -61 -99t-91 -30q-82 0 -82 73q0 140 453 586h-303q-73 0 -110 -19t-66 -79l-35 8l121 309h2q87 -22 393 -22h188z" />
    <glyph glyph-name="eight.dnom" horiz-adv-x="749" 
d="M483 487q71 -42 110.5 -88t39.5 -112q0 -127 -104.5 -213t-258.5 -86q-122 0 -194 49t-72 131q0 73 58 128.5t145 82.5q-105 77 -105 190q0 124 91 205.5t231 81.5q114 0 182 -45.5t68 -120.5q0 -68 -53.5 -121.5t-137.5 -81.5zM414 799q-52 0 -87.5 -31.5t-35.5 -85.5
q0 -51 34.5 -87.5t100.5 -74.5q36 39 63 91.5t27 95.5q0 42 -27.5 67t-74.5 25zM281 47q66 0 107.5 35.5t41.5 89.5q0 26 -10.5 48.5t-33.5 42t-41.5 31.5t-53.5 32l-31 18q-40 -40 -67 -94t-27 -98q0 -48 31 -76.5t84 -28.5z" />
    <glyph glyph-name="nine.dnom" horiz-adv-x="739" 
d="M412 856q124 0 195 -71t71 -191q0 -186 -156.5 -354.5t-406.5 -251.5l-6 32q90 55 162.5 148t117.5 207q-58 -21 -117 -21q-98 0 -160.5 55t-62.5 146q0 128 103.5 214.5t259.5 86.5zM414 444q39 125 39 244q0 53 -13.5 82t-38.5 29q-39 0 -79.5 -96t-40.5 -185
q0 -43 15.5 -69.5t41.5 -26.5q40 0 76 22z" />
    <glyph glyph-name="zero.numr" horiz-adv-x="808" 
d="M422 647q-125 0 -196.5 85.5t-71.5 232.5q0 148 56.5 275t154 201.5t210.5 74.5q124 0 196.5 -86t72.5 -232q0 -148 -57.5 -275t-154.5 -201.5t-210 -74.5zM432 707q38 0 83 103.5t75.5 249.5t30.5 261q0 137 -56 137q-37 0 -81.5 -103t-75.5 -249t-31 -262
q0 -137 55 -137z" />
    <glyph glyph-name="one.numr" horiz-adv-x="542" 
d="M428 766q0 -34 20 -49t74 -21l-8 -37h-434l8 37q65 7 90.5 28t34.5 73l76 426q4 28 4 32q0 22 -9.5 31.5t-31.5 9.5q-17 0 -62 -10l-8 35q202 100 375 205h2l-129 -729q-2 -14 -2 -31z" />
    <glyph glyph-name="two.numr" horiz-adv-x="763" 
d="M739 961l35 -9l-88 -299q-129 6 -426 6h-207l-2 5q55 57 168 151q50 43 75.5 65.5t67.5 62.5t64 68.5t46.5 65t35 71.5t10.5 71q0 51 -27 79.5t-73 28.5q-112 0 -195 -117l-28 19q74 130 180.5 208.5t204.5 78.5q88 0 139 -47t51 -123q0 -63 -25.5 -123t-60.5 -104.5
t-98 -96.5t-109 -83.5t-123 -80.5h146q118 0 167 21t72 82z" />
    <glyph glyph-name="three.numr" horiz-adv-x="684" 
d="M506 1184q84 -28 133 -83.5t49 -123.5q0 -138 -150.5 -223t-439.5 -107v39q163 20 263 74t100 139q0 46 -42.5 74t-129.5 43l-2 4l248 289h-154q-71 0 -108.5 -20t-65.5 -81l-35 9l121 309h2q91 -23 393 -23h107l2 -4z" />
    <glyph glyph-name="four.numr" horiz-adv-x="770" 
d="M633 872l-15 -75q-4 -20 -4 -35q0 -31 19 -45.5t65 -20.5l-6 -37h-436l8 37q73 9 102.5 34t39.5 89l10 53h-332l-2 2l512 629h149l-100 -567q81 0 164 6h2l-25 -70h-151zM199 936h227l63 360z" />
    <glyph glyph-name="five.numr" horiz-adv-x="673" 
d="M700 1307h-370l-33 -76q197 -25 288 -82t91 -158q0 -155 -156.5 -239.5t-435.5 -104.5v39q171 22 266.5 76.5t95.5 132.5q0 56 -71 87.5t-223 49.5v4l186 467h119q89 0 132.5 1t98 6t94.5 16h4z" />
    <glyph glyph-name="six.numr" horiz-adv-x="745" 
d="M543 1161q99 0 162 -56t63 -149q0 -132 -105.5 -220.5t-263.5 -88.5q-122 0 -193 71.5t-71 190.5q0 133 86.5 257t224.5 212.5t304 137.5l8 -33q-104 -53 -187.5 -141.5t-136.5 -198.5q59 18 109 18zM412 707q41 0 83 98t42 192q0 42 -16 69.5t-42 27.5q-33 0 -73 -21
q-46 -130 -46 -260q0 -106 52 -106z" />
    <glyph glyph-name="seven.numr" horiz-adv-x="712" 
d="M860 1503l2 -2q-316 -429 -413 -725q-23 -69 -59.5 -99t-92.5 -30q-80 0 -80 74q0 140 453 586h-305q-71 0 -108.5 -19.5t-66.5 -79.5l-34 9l120 309h3q91 -23 393 -23h188z" />
    <glyph glyph-name="eight.numr" horiz-adv-x="747" 
d="M600 1147q70 -42 110 -88.5t40 -112.5q0 -127 -104.5 -213t-258.5 -86q-122 0 -194 49t-72 131q0 73 58 128.5t143 82.5q-103 78 -103 191q0 124 91 205.5t231 81.5q113 0 180 -45.5t67 -120.5q0 -68 -52.5 -122t-135.5 -81zM530 1458q-52 0 -87 -31.5t-35 -85.5
q0 -51 34.5 -87t100.5 -74q36 39 63 91t27 95q0 41 -28 66.5t-75 25.5zM397 707q66 0 108 35t42 89q0 27 -10.5 49t-33.5 41.5t-42.5 32t-54.5 31.5l-29 16q-40 -40 -67 -93t-27 -97q0 -48 30.5 -76t83.5 -28z" />
    <glyph glyph-name="nine.numr" horiz-adv-x="739" 
d="M526 1516q124 0 195.5 -72t71.5 -191q0 -186 -156.5 -354.5t-407.5 -251.5l-6 33q90 55 163 147.5t118 206.5q-55 -20 -117 -20q-98 0 -160.5 54.5t-62.5 145.5q0 128 103 215t259 87zM528 1104q39 125 39 244q0 110 -51 110q-39 0 -80 -95.5t-41 -184.5q0 -43 16 -70
t42 -27q37 0 75 23z" />
    <glyph glyph-name="exclamdown.case" horiz-adv-x="737" 
d="M451 1110q-95 0 -153 55t-58 142q0 88 66.5 152.5t158.5 64.5q95 0 153 -55t58 -142q0 -88 -66.5 -152.5t-158.5 -64.5zM221 -20q-77 0 -118.5 40.5t-41.5 110.5q0 168 154 457q118 249 156 403h59q-11 -149 10 -377q11 -98 16 -155t4.5 -134t-9.5 -147
q-13 -98 -78.5 -148t-151.5 -50z" />
    <glyph glyph-name="questiondown.case" horiz-adv-x="958" 
d="M698 1524q95 0 153 -55t58 -142q0 -89 -67 -153t-160 -64q-94 0 -151.5 55t-57.5 142q0 88 66.5 152.5t158.5 64.5zM272 217h469q4 -24 4 -47q0 -84 -58.5 -137t-151.5 -53q-119 0 -224.5 70t-166 179t-60.5 224q0 167 139.5 266t364.5 117q21 68 41 155h59
q11 -252 39 -438l-6 -4q-235 -2 -376.5 -58.5t-141.5 -152.5q0 -64 69 -121z" />
    <glyph glyph-name="parenleft.case" horiz-adv-x="735" 
d="M559 -266q-218 154 -337.5 362.5t-119.5 462.5q0 354 213 673t605 542l28 -39q-254 -210 -408.5 -566.5t-154.5 -730.5q0 -416 219 -665z" />
    <glyph glyph-name="parenright.case" horiz-adv-x="735" 
d="M-184 -266l-29 39q256 210 409.5 564.5t153.5 731.5q0 415 -217 666l43 39q218 -155 338.5 -363t120.5 -463q0 -356 -214.5 -674.5t-604.5 -539.5z" />
    <glyph glyph-name="braceleft.case" horiz-adv-x="843" 
d="M958 1724q-163 -82 -242 -155.5t-79 -173.5q0 -53 22 -150q27 -110 27 -176q0 -271 -371 -315q279 -33 279 -213q0 -54 -17.5 -107.5t-36.5 -86.5t-53 -83q-45 -67 -68.5 -117.5t-23.5 -107.5q0 -65 49 -122t170 -134l-32 -49q-260 97 -365.5 179.5t-105.5 176.5
q0 45 15.5 91t32.5 76t48 75q34 50 51 79.5t34 80.5t17 102q0 129 -172 129h-12l8 61h12q115 0 175.5 59.5t60.5 168.5q0 68 -25 166q-24 94 -24 157q0 130 138.5 230t469.5 209z" />
    <glyph glyph-name="braceright.case" horiz-adv-x="843" 
d="M535 913q0 -129 172 -129h12l-10 -61h-13q-115 0 -174 -58.5t-59 -168.5q0 -72 24 -166q25 -98 25 -158q0 -132 -138.5 -230t-471.5 -208l-17 49q163 82 242.5 156t79.5 174q0 62 -23 149q-26 106 -26 176q0 272 370 316q-280 33 -280 213q0 54 17 107t36 86.5t53 82.5
q32 47 48 74t31.5 69.5t15.5 81.5q0 64 -50.5 122.5t-171.5 133.5l35 50q262 -98 366.5 -180.5t104.5 -176.5q0 -45 -15.5 -91t-32.5 -75.5t-48 -74.5q-33 -50 -50.5 -80t-34.5 -81t-17 -102z" />
    <glyph glyph-name="bracketleft.case" horiz-adv-x="933" 
d="M500 1753h577l-10 -59q-110 -9 -169.5 -32.5t-91 -70.5t-46.5 -135l-250 -1405q-8 -47 -8 -80q0 -79 51.5 -112.5t181.5 -44.5l-10 -60h-578l43 248l267 1503z" />
    <glyph glyph-name="bracketright.case" horiz-adv-x="851" 
d="M209 1753h577l-43 -248l-266 -1503l-43 -248h-577l10 60q162 14 223.5 61t83.5 176l250 1405q8 41 8 80q0 79 -51.5 113t-181.5 45z" />
    <glyph glyph-name="hyphen.case" horiz-adv-x="894" 
d="M72 707l47 120h704l-47 -120h-704z" />
    <glyph glyph-name="uni00AD.case" horiz-adv-x="894" 
d="M72 707l47 120h704l-47 -120h-704z" />
    <glyph glyph-name="endash.case" horiz-adv-x="1280" 
d="M72 707l47 120h1089l-47 -120h-1089z" />
    <glyph glyph-name="emdash.case" horiz-adv-x="1701" 
d="M72 707l47 120h1511l-47 -120h-1511z" />
    <glyph glyph-name="guillemotleft.case" horiz-adv-x="948" 
d="M553 1198l-260 -430l108 -436l-47 -25l-278 434l8 47l432 435zM872 1198l-260 -430l109 -436l-47 -25l-279 434l8 47l433 435z" />
    <glyph glyph-name="guillemotright.case" horiz-adv-x="948" 
d="M553 788l-8 -47l-430 -434l-39 25l262 434l-109 432l47 25zM596 1223l276 -435l-8 -47l-430 -434l-39 25l262 434l-108 432z" />
    <glyph glyph-name="guilsinglleft.case" horiz-adv-x="628" 
d="M553 1198l-260 -430l108 -436l-47 -25l-278 434l8 47l432 435z" />
    <glyph glyph-name="guilsinglright.case" horiz-adv-x="628" 
d="M276 1223l277 -435l-8 -47l-430 -434l-39 25l262 434l-109 432z" />
    <glyph glyph-name="uni20BF.osf" horiz-adv-x="1325" 
d="M965 633q127 -25 196.5 -90t69.5 -160q0 -101 -65 -188.5t-174.5 -140t-235.5 -54.5l-35 -205h-90l37 205h-164l-35 -205h-88l35 205h-385l12 59q79 6 112.5 32.5t45.5 96.5l145 836q6 24 6 45q0 43 -26.5 61t-92.5 23l13 59h385l31 177h88l-31 -177h143h21l30 177h88
l-32 -185q129 -20 201.5 -85t72.5 -161q0 -111 -75 -197t-203 -128zM911 954q0 78 -44 123t-128 45h-65l-80 -456h65q109 0 180.5 82t71.5 206zM639 90q106 0 185 90.5t79 210.5q0 88 -53.5 138.5t-151.5 50.5h-118l-68 -379q-6 -25 -6 -51q0 -34 17.5 -47t58.5 -13h57z" />
    <glyph glyph-name="cent.osf" horiz-adv-x="1118" 
d="M856 578q-48 0 -80 18l-71 -406q68 9 136.5 46t112.5 92l33 -25q-53 -96 -134.5 -169.5t-176.5 -113.5l-43 -241l-96 16l34 195q-55 -10 -94 -10q-194 0 -306 116.5t-112 315.5q0 195 86.5 356.5t237 253.5t332.5 92q35 0 53 -2l35 203l96 -17l-37 -206q93 -31 145 -101
t52 -168q0 -116 -60 -180.5t-143 -64.5zM385 512q0 -131 58.5 -214.5t162.5 -102.5l148 841q-6 2 -23 2q-90 0 -170.5 -73.5t-128 -195t-47.5 -257.5zM852 989l-6 6z" />
    <glyph glyph-name="dollar.osf" horiz-adv-x="1120" 
d="M989 797q-15 126 -89.5 215t-178.5 118l-66 -380q9 -3 21 -11q44 -24 68.5 -37.5t64 -38t63 -43.5t52 -47t43.5 -54.5t26 -60t11 -69.5q0 -167 -141.5 -283.5t-354.5 -125.5l-35 -201l-96 16l33 191q-51 8 -124.5 37.5t-101.5 29.5q-23 0 -38 -12.5t-35 -50.5h-29l-6 409
l53 13q35 -140 114 -234t181 -117l72 408q-56 30 -91 50.5t-81.5 55.5t-73 67.5t-45.5 79t-19 97.5q0 168 130.5 283t322.5 115l33 186l94 -14l-31 -183q46 -8 119 -31.5t98 -23.5q20 0 32.5 11.5t27.5 43.5h28v-399zM426 973q0 -50 36 -90.5t105 -81.5l60 340
q-88 -3 -144.5 -50.5t-56.5 -117.5zM739 244q0 51 -39 92t-114 84l-64 -363q100 7 158.5 58t58.5 129z" />
    <glyph glyph-name="Euro.osf" horiz-adv-x="1292" 
d="M1212 1204h31l-69 -391h-52q4 54 4 72q0 108 -53 170.5t-147 62.5q-99 0 -190 -96t-148 -252h352l-29 -88h-350q-21 -82 -29 -150h328l-29 -86h-305v-32q0 -155 57 -245.5t158 -90.5q118 0 206.5 88.5t117.5 236.5h53l-74 -413h-28q-12 34 -23.5 45.5t-31.5 11.5
q-24 0 -70 -16.5t-106 -33.5t-119 -17q-217 0 -341.5 125t-127.5 341h-160l29 86h135q7 85 26 150h-149l28 88h150q81 202 250 324.5t379 122.5q59 0 110.5 -16t87.5 -32t58 -16q30 0 71 51z" />
    <glyph glyph-name="sterling.osf" horiz-adv-x="1351" 
d="M1098 737q-38 0 -86 19v370q-40 15 -92 15q-132 0 -190 -43.5t-66 -124.5q-8 -70 2 -170q18 -118 16 -168v-6h387l-31 -88h-368q-23 -93 -97 -159.5t-211 -119.5h449q66 0 109.5 3t87.5 13.5t72.5 30t54 52.5t43.5 81l51 -10l-129 -442q-242 10 -733 10h-338v6
q94 87 156.5 163.5t94.5 142.5t45 117t17 112h-199l29 88h172q1 17 2 49t2 49q4 121 49.5 215.5t123 154t177.5 90t217 30.5q174 0 277.5 -71t103.5 -188q0 -95 -56 -158t-142 -63z" />
    <glyph glyph-name="yen.osf" horiz-adv-x="1314" 
d="M924 1196h446l-12 -59q-82 -12 -140.5 -61t-156.5 -185l-236 -336h246l-29 -86h-251l-27 -150h266l-29 -86h-251v-4q-9 -37 -9 -63q0 -55 33 -77t119 -30l-12 -59h-664l10 59q107 9 147.5 43t57.5 127v4h-252l31 86h238l26 150h-254l31 86h207l-146 426q-31 90 -63 121.5
t-98 34.5l10 59h667l-12 -59q-90 -9 -127 -35.5t-37 -77.5q0 -50 31 -135l96 -273l111 154q76 109 112.5 177t36.5 110q0 36 -30.5 55t-98.5 25z" />
    <glyph glyph-name="percent.osf" horiz-adv-x="1642" 
d="M348 -57l-57 63l1007 1145l58 -64zM401 483q-114 0 -178.5 65.5t-64.5 178.5q0 161 103 274t251 113q112 0 176 -65.5t64 -178.5q0 -162 -102 -274.5t-249 -112.5zM410 539q33 0 67.5 65.5t57 160.5t22.5 179q0 115 -55 115q-32 0 -67 -65t-58 -161t-23 -180
q0 -114 56 -114zM1133 -20q-114 0 -178 65t-64 178q0 162 102.5 274.5t249.5 112.5q114 0 178 -64t64 -177q0 -163 -101.5 -276t-250.5 -113zM1143 35q32 0 67 64.5t57.5 160t22.5 180.5q0 53 -15 84t-42 31q-32 0 -67 -66t-58 -162.5t-23 -179.5q0 -53 15 -82.5t43 -29.5z
" />
    <glyph glyph-name="perthousand.osf" horiz-adv-x="2226" 
d="M303 -57l-57 63l1007 1145l58 -64zM356 483q-113 0 -177 65.5t-64 178.5q0 162 102.5 274.5t249.5 112.5q112 0 177 -65.5t65 -178.5q0 -163 -102.5 -275t-250.5 -112zM365 539q33 0 68 65.5t58 161t23 178.5q0 115 -57 115q-32 0 -67 -65t-58 -161t-23 -180
q0 -114 56 -114zM1087 -20q-112 0 -176.5 65t-64.5 178q0 162 102 274.5t250 112.5q114 0 178 -64t64 -177q0 -163 -102 -276t-251 -113zM1759 -20q-112 0 -176.5 65t-64.5 178q0 162 102.5 274.5t251.5 112.5q113 0 177.5 -65t64.5 -176q0 -163 -103 -276t-252 -113z
M1098 35q32 0 67 64.5t57.5 160t22.5 180.5q0 53 -14.5 84t-40.5 31q-33 0 -68.5 -66t-58.5 -162.5t-23 -179.5q0 -53 15 -82.5t43 -29.5zM1769 35q33 0 68 65.5t57.5 161t22.5 178.5q0 115 -55 115q-33 0 -68 -66.5t-57.5 -162.5t-22.5 -179q0 -112 55 -112z" />
    <glyph glyph-name="at.case" horiz-adv-x="2082" 
d="M1128 444q0 24 7 56l22 121q-82 -201 -172 -285t-215 -84q-102 0 -160.5 86.5t-58.5 236.5q0 191 69.5 351t191.5 253t269 93q114 0 191 -70q165 25 272 70h2l-135 -770q-2 -12 -2 -27q0 -65 82 -65q101 0 192 89.5t145 239t54 316.5q0 261 -172 418t-453 157
q-169 0 -328.5 -57.5t-289 -162t-227.5 -243t-151.5 -308.5t-53.5 -349q0 -307 176 -470t500 -163q202 0 404.5 54.5t346.5 144.5l25 -47q-157 -114 -374 -184t-419 -70q-375 0 -580.5 187t-205.5 534q0 248 95.5 476t256 394t381.5 264.5t461 98.5q328 0 528.5 -178
t200.5 -474q0 -222 -86.5 -412t-234.5 -301.5t-320 -111.5q-103 0 -168.5 48.5t-65.5 143.5zM932 436q46 0 90 59.5t96.5 201t116.5 380.5q-10 55 -42.5 84t-74.5 29q-72 0 -136.5 -75t-103 -200.5t-38.5 -265.5q0 -97 24.5 -155t67.5 -58z" />
    <glyph glyph-name="uni0308.case" 
d="M-702 1630q-61 0 -99.5 37.5t-38.5 97.5q0 64 46 111t110 47q61 0 98 -37t37 -96q0 -65 -44.5 -112.5t-108.5 -47.5zM-334 1630q-61 0 -99 37.5t-38 97.5q0 64 46 111t110 47q61 0 98 -37t37 -96q0 -65 -45 -112.5t-109 -47.5z" />
    <glyph glyph-name="uni0307.case" 
d="M-336 1599q-76 0 -126 47t-50 119q0 80 56 133.5t141 53.5q75 0 123.5 -47t48.5 -119q0 -80 -55 -133.5t-138 -53.5z" />
    <glyph glyph-name="gravecomb.case" 
d="M-145 1608q-355 58 -451 102q-37 19 -57.5 49t-20.5 64q0 49 34 84t87 35q33 0 59 -13q91 -43 369 -280z" />
    <glyph glyph-name="acutecomb.case" 
d="M-653 1608l-19 41q269 232 367 280q26 13 59 13q53 0 87 -35t34 -84q0 -34 -20 -64.5t-58 -48.5q-92 -44 -450 -102z" />
    <glyph glyph-name="uni030B.case" 
d="M-983 1581l-27 39q235 277 320 334q38 24 76 24q51 0 85.5 -34.5t34.5 -85.5q0 -32 -16.5 -61t-44.5 -46q-98 -62 -428 -170zM-561 1581l-27 39q235 277 320 334q38 24 75 24q51 0 86 -34.5t35 -85.5q0 -32 -16.5 -61t-44.5 -46q-98 -62 -428 -170z" />
    <glyph glyph-name="uni0302.case" 
d="M-190 1651l-29 -43l-275 127l-321 -127l-14 43l352 291h41z" />
    <glyph glyph-name="uni030C.case" 
d="M-203 1942l13 -41l-351 -293h-41l-247 293l30 41l275 -125z" />
    <glyph glyph-name="uni0306.case" 
d="M-555 1587q-92 0 -164.5 84t-114.5 234l41 32q100 -151 275 -151q87 0 172 40t156 111l28 -32q-97 -152 -198 -235t-195 -83z" />
    <glyph glyph-name="uni030A.case" 
d="M-575 1575q-101 0 -160.5 53t-59.5 141q0 102 74 172t182 70q101 0 160.5 -53t59.5 -141q0 -101 -74.5 -171.5t-181.5 -70.5zM-561 1653q63 0 107 43.5t44 107.5q0 59 -38 95t-105 36q-64 0 -108 -44t-44 -107q0 -60 38.5 -95.5t105.5 -35.5z" />
    <glyph glyph-name="tildecomb.case" 
d="M-446 1628q-77 0 -195 60q-108 57 -186 57q-75 0 -121 -111l-41 13q32 118 114.5 206.5t169.5 88.5q32 0 67.5 -9.5t58 -19.5t61.5 -29q112 -59 190 -59q75 0 123 112l41 -12q-34 -123 -112 -210t-170 -87z" />
    <glyph glyph-name="uni0304.case" 
d="M-842 1706l33 94h659l-34 -94h-658z" />
    <glyph glyph-name="uni0304.narrow.case" 
d="M-786 1706l32 94h549l-35 -94h-546z" />
    <glyph glyph-name="uni0308.narrow" 
d="M-668 1303q-57 0 -90 33t-33 89q0 60 40.5 105t97.5 45q55 0 89 -34.5t34 -88.5q0 -61 -41 -105t-97 -44zM-365 1303q-57 0 -90.5 33t-33.5 89q0 60 41 105t98 45q55 0 88 -34t33 -89q0 -61 -40 -105t-96 -44z" />
    <glyph glyph-name="uni0304.narrow" 
d="M-786 1380l32 95h549l-35 -95h-546z" />
    </font>
</defs>
</svg>
