<?xml version="1.0" standalone="no"?>
<!DOCTYPE svg PUBLIC "-//W3C//DTD SVG 1.1//EN" "http://www.w3.org/Graphics/SVG/1.1/DTD/svg11.dtd" >
<svg xmlns="http://www.w3.org/2000/svg" xmlns:xlink="http://www.w3.org/1999/xlink" version="1.1">
<metadata>
Created by FontForge 20170731 at Fri Mar 31 05:53:54 2023
 By Aleksey,,,
Copyright (c) 2019 by Alberto Romanos. All rights reserved.
</metadata>
<defs>
<font id="BwBetoGrande-BlackItalic" horiz-adv-x="0" >
  <font-face 
    font-family="Bw Beto Grande Black Italic"
    font-weight="900"
    font-style="italic"
    font-stretch="normal"
    units-per-em="2048"
    panose-1="0 0 10 0 0 0 0 0 0 0"
    ascent="1638"
    descent="-410"
    x-height="1108"
    cap-height="1507"
    bbox="-1024 -453 2558 2036"
    underline-thickness="102"
    underline-position="-307"
    slope="-10"
    unicode-range="U+000D-FB02"
  />
<missing-glyph horiz-adv-x="2541" 
d="M178 -20q-15 0 -25 10.5t-10 25.5q0 20 11 31l700 698h-664q-47 0 -47 39q0 18 15 33l696 701h-670q-41 0 -41 38v3q0 38 41 38h758q47 0 47 -41q0 -18 -16 -34l-699 -697h676q17 0 29 -12t12 -29v-669l695 692q16 16 34 16q37 0 37 -45v-663l697 692q16 16 32 16
q15 0 25 -12t10 -27q0 -16 -12 -28l-754 -762q-14 -14 -35 -14q-41 0 -41 47v663l-694 -696q-14 -14 -35 -14q-41 0 -41 47v663l-696 -696q-14 -14 -35 -14z" />
    <glyph glyph-name="fi" unicode="fi" horiz-adv-x="1413" 
d="M791 1077h-170l-158 -901q-43 -242 -202.5 -409.5t-377.5 -196.5l-2 4q46 43 75 84.5t49.5 99t32 108.5t28.5 148l178 1018q2 12 10 45h-125l8 21h123q38 114 125.5 243t201 223.5t204.5 94.5q54 0 85 -34t31 -93q0 -62 -37 -139h-413q-41 -78 -41 -148
q0 -68 55.5 -107.5t153.5 -39.5h174zM1229 1614q86 0 142 -54t56 -137q0 -92 -64 -153.5t-159 -61.5q-88 0 -144 54t-56 137q0 92 64 153.5t161 61.5zM1223 184q32 0 69.5 40.5t67.5 103.5l4 -2q-44 -156 -143.5 -251t-219.5 -95q-83 0 -134.5 41.5t-51.5 128.5q0 22 6 57
l115 649q2 12 2 23q0 34 -29 34q-32 0 -69.5 -40t-67.5 -103l-4 2q44 156 143 251t219 95q83 0 135 -41.5t52 -128.5q0 -22 -6 -57l-115 -649q-2 -12 -2 -23q0 -35 29 -35z" />
    <glyph glyph-name="fl" unicode="fl" horiz-adv-x="1370" 
d="M1176 184q32 0 69.5 40.5t67.5 103.5l4 -2q-44 -156 -143.5 -251t-219.5 -95q-83 0 -134.5 41.5t-51.5 128.5q0 22 6 57l197 1112q8 44 -14 59t-97 15h-383q-39 -82 -39 -154q0 -65 50.5 -103t136.5 -38h188l-8 -21h-184l-158 -901q-43 -242 -202.5 -409.5t-377.5 -196.5
l-2 4q86 82 119.5 168t65.5 272l178 1018q2 12 10 45h-125l8 21h125q25 67 72 144t110 150t131.5 133.5t143 97t137.5 36.5q70 0 112 -36.5t42 -98.5q0 -36 -17 -82q240 92 402 217h4l-250 -1417q-2 -12 -2 -23q0 -35 29 -35z" />
    <glyph glyph-name=".notdef" horiz-adv-x="2541" 
d="M178 -20q-15 0 -25 10.5t-10 25.5q0 20 11 31l700 698h-664q-47 0 -47 39q0 18 15 33l696 701h-670q-41 0 -41 38v3q0 38 41 38h758q47 0 47 -41q0 -18 -16 -34l-699 -697h676q17 0 29 -12t12 -29v-669l695 692q16 16 34 16q37 0 37 -45v-663l697 692q16 16 32 16
q15 0 25 -12t10 -27q0 -16 -12 -28l-754 -762q-14 -14 -35 -14q-41 0 -41 47v663l-694 -696q-14 -14 -35 -14q-41 0 -41 47v663l-696 -696q-14 -14 -35 -14z" />
    <glyph glyph-name=".null" 
 />
    <glyph glyph-name="nonmarkingreturn" horiz-adv-x="682" 
 />
    <glyph glyph-name="CR" unicode="&#xd;" horiz-adv-x="471" 
 />
    <glyph glyph-name="space" unicode=" " horiz-adv-x="471" 
 />
    <glyph glyph-name="exclam" unicode="!" horiz-adv-x="657" 
d="M328 549q0 105 -45 285q-77 305 -45 469q22 114 94 169.5t170 55.5q91 0 139.5 -47.5t48.5 -128.5q0 -63 -14 -123.5t-45 -125.5t-56 -107.5t-71 -116.5q-63 -96 -104.5 -172t-67.5 -158h-4zM262 -20q-108 0 -175 63t-67 162q0 98 77.5 172t181.5 74q108 0 174.5 -63.5
t66.5 -162.5q0 -98 -77 -171.5t-181 -73.5z" />
    <glyph glyph-name="quotedbl" unicode="&#x22;" horiz-adv-x="952" 
d="M283 874l-62 721l420 64h4l-358 -785h-4zM754 874l-62 721l420 64h4l-358 -785h-4z" />
    <glyph glyph-name="numbersign" unicode="#" horiz-adv-x="1302" 
d="M1286 823h-295l-149 -440h299l-6 -21h-301l-123 -362h-23l123 362h-471l-123 -362h-22l124 362h-286l6 21h287l151 440h-293l6 21h293l123 356h21l-121 -356h471l121 356h22l-121 -356h293zM819 383l150 440h-471l-150 -440h471z" />
    <glyph glyph-name="dollar" unicode="$" horiz-adv-x="1212" 
d="M1157 975q-29 219 -128 360t-238 164l-93 -516q25 -22 93 -72q60 -45 96 -73.5t86 -76t77 -87.5t47.5 -94.5t20.5 -110.5q0 -135 -81 -247.5t-221.5 -177t-307.5 -64.5l-35 -195l-22 4l34 191q-72 4 -165 39.5t-136 35.5q-30 0 -51.5 -13.5t-48.5 -51.5h-4l-6 559l4 2
q44 -242 155.5 -391t255.5 -156l99 559q-7 4 -20 14.5t-19 14.5q-44 32 -68 50.5t-65 52.5t-64 59.5t-53 63.5t-45.5 73t-27 79.5t-11.5 90.5q0 199 152 333t378 134h27l27 153l22 -4l-26 -151q62 -7 140.5 -42.5t113.5 -35.5q30 0 52 14.5t52 55.5h4l4 -541zM680 999
l88 502q-8 2 -27 2q-88 0 -152.5 -72.5t-64.5 -170.5q0 -126 156 -261zM512 4q117 3 191.5 79t74.5 196q0 129 -170 268z" />
    <glyph glyph-name="percent" unicode="%" horiz-adv-x="1820" 
d="M254 -27l-12 15l1454 1548l12 -14zM430 649q-131 0 -204.5 87t-73.5 235q0 149 58 275.5t157.5 200t216.5 73.5q128 0 202 -87t74 -235t-58 -274.5t-157 -200.5t-215 -74zM432 668q28 0 70.5 131.5t74 307t31.5 290.5q0 104 -28 104q-29 0 -72 -129t-75 -304t-32 -294
q0 -106 31 -106zM1309 -12q-131 0 -205 86.5t-74 234.5q0 149 58 275.5t157.5 200t216.5 73.5q129 0 203 -86.5t74 -234.5t-58 -274.5t-157 -200.5t-215 -74zM1311 6q28 0 70.5 131.5t74 307t31.5 290.5q0 105 -29 105q-28 0 -71 -129t-75 -304t-32 -294q0 -107 31 -107z
" />
    <glyph glyph-name="ampersand" unicode="&#x26;" horiz-adv-x="1523" 
d="M1556 760l5 -2q-36 -128 -119 -220t-180 -92q-23 0 -84 9q-66 -217 -221 -346t-353 -129q-260 0 -413.5 94.5t-153.5 253.5q0 210 182.5 342.5t528.5 152.5q-212 19 -323.5 104.5t-111.5 198.5q0 170 171.5 286t424.5 116q164 0 260.5 -79.5t96.5 -213.5
q0 -125 -68 -191.5t-164 -66.5q-64 0 -100 24v502q-85 0 -140 -106.5t-55 -268.5q0 -158 52 -307l-3 -6q-146 -50 -237.5 -190.5t-91.5 -317.5q0 -134 58.5 -213.5t160.5 -79.5q133 0 220 126.5t87 318.5q0 23 -4 63q-76 27 -143 27q-48 0 -81.5 -20.5t-72.5 -67.5l-4 2
q34 127 118 219t181 92q79 0 207 -51q132 -51 217 -51q48 0 82 20.5t71 67.5z" />
    <glyph glyph-name="quotesingle" unicode="'" horiz-adv-x="481" 
d="M283 874l-62 721l420 64h4l-358 -785h-4z" />
    <glyph glyph-name="parenleft" unicode="(" horiz-adv-x="741" 
d="M569 -436q-246 140 -379 355t-133 487q0 390 236 724t645 523l4 -4q-246 -224 -399.5 -616.5t-153.5 -799.5q0 -415 184 -665z" />
    <glyph glyph-name="parenright" unicode=")" horiz-adv-x="741" 
d="M-174 -436l-4 4q246 226 399.5 618t153.5 797q0 413 -187 666l7 4q246 -137 379 -351.5t133 -486.5q0 -388 -234.5 -721t-646.5 -530z" />
    <glyph glyph-name="asterisk" unicode="*" horiz-adv-x="1013" 
d="M1075 1348q7 -46 -20.5 -88.5t-73.5 -57.5q-94 -32 -346 0q192 -113 244 -201q22 -38 4.5 -83t-64.5 -76q-41 -27 -86 -21.5t-65 41.5q-53 92 -50 330q-85 -240 -165 -328q-37 -40 -83 -44.5t-77 24.5q-37 32 -37 76t35 84q76 85 313 198q-258 -33 -346 0
q-41 15 -53.5 57.5t10.5 88.5t68 68t88 9q97 -33 241 -202q-53 165 -53 274q0 80 41 121t100 41q43 0 71 -25t28 -65q0 -96 -164 -344q214 172 313 200q47 13 83 -9t44 -68z" />
    <glyph glyph-name="plus" unicode="+" horiz-adv-x="970" 
d="M891 614l-4 -20h-381l-66 -373h-24l65 373h-381l4 20h381l66 373h24l-65 -373h381z" />
    <glyph glyph-name="comma" unicode="," horiz-adv-x="626" 
d="M-12 -369l-2 4q101 56 164 130.5t63 152.5q0 61 -44.5 99.5t-119.5 41.5q-33 44 -33 111q0 113 81 197t190 84q102 0 160.5 -63.5t58.5 -168.5q0 -177 -145.5 -341.5t-372.5 -246.5z" />
    <glyph glyph-name="hyphen" unicode="-" horiz-adv-x="960" 
d="M115 594l8 20h743l-8 -20h-743z" />
    <glyph glyph-name="period" unicode="." horiz-adv-x="630" 
d="M262 -20q-108 0 -175 63t-67 162q0 98 77.5 172t181.5 74q108 0 174.5 -63.5t66.5 -162.5q0 -98 -77 -171.5t-181 -73.5z" />
    <glyph glyph-name="slash" unicode="/" horiz-adv-x="1069" 
d="M-20 -205l-23 12l1192 1835l22 -12z" />
    <glyph glyph-name="zero" unicode="0" horiz-adv-x="1380" 
d="M592 -20q-224 0 -351.5 152t-127.5 413q0 199 59.5 380.5t160 313.5t240 210.5t291.5 78.5q223 0 351 -152t128 -413q0 -198 -60 -380t-160.5 -314t-239.5 -210.5t-291 -78.5zM596 4q51 0 114.5 125t115.5 307t88 401.5t36 395.5q0 128 -23 199t-67 71
q-51 0 -114.5 -124.5t-115.5 -306.5t-88 -402.5t-36 -397.5q0 -129 23 -198.5t67 -69.5z" />
    <glyph glyph-name="one" unicode="1" horiz-adv-x="911" 
d="M594 150q0 -70 35.5 -101t126.5 -45v-4h-779v4q121 17 169.5 66t70.5 176l135 760q10 62 10 94q0 48 -18.5 71t-62.5 23q-33 0 -115 -16l-2 4q394 198 665 366h5l-230 -1302q-10 -65 -10 -96z" />
    <glyph glyph-name="two" unicode="2" horiz-adv-x="1306" 
d="M1229 573h4l-168 -583q-263 10 -766 10h-371v6q101 103 301 273q73 62 115.5 99t107 97t102.5 102t83 99.5t69.5 106t41 105t16.5 111.5q0 89 -54 142t-147 53q-106 0 -204 -48t-171 -130l-4 2q131 229 319.5 369.5t366.5 140.5q157 0 248.5 -82.5t91.5 -220.5
q0 -86 -37.5 -174t-93.5 -161t-140 -149t-157.5 -130t-167 -112t-147.5 -87.5t-119 -63.5h383q79 0 132.5 2.5t108 11t90.5 23.5t69.5 40t57 61.5t40.5 86.5z" />
    <glyph glyph-name="three" unicode="3" horiz-adv-x="1150" 
d="M1253 1507v-4l-559 -551q171 -47 268 -150.5t97 -234.5q0 -250 -272.5 -401.5t-780.5 -185.5v4q304 41 476.5 151.5t172.5 263.5q0 95 -74 150t-233 88l-2 4l526 518h-356q-154 0 -234.5 -32t-138.5 -136l-4 2l217 555h4q91 -26 246 -33.5t457 -7.5h190z" />
    <glyph glyph-name="four" unicode="4" horiz-adv-x="1308" 
d="M961 379l-25 -133q-10 -65 -10 -101q0 -67 32 -98t111 -43v-4h-778v4q134 22 186 77.5t80 205.5l16 92h-593v6l911 1122h268l-196 -1108q152 0 292 11h5l-11 -31h-288zM16 399h562l151 875z" />
    <glyph glyph-name="five" unicode="5" horiz-adv-x="1132" 
d="M1085 1159h-757l-54 -131q395 -38 578.5 -146.5t183.5 -308.5q0 -258 -264.5 -408.5t-789.5 -184.5v4q301 43 473 150t172 253q0 119 -125 181.5t-396 97.5v6l336 835h207q249 0 369 8.5t213 32.5h4z" />
    <glyph glyph-name="six" unicode="6" horiz-adv-x="1265" 
d="M803 895q181 0 292 -100t111 -265q0 -156 -84.5 -281.5t-235 -197t-337.5 -71.5q-219 0 -345 125.5t-126 338.5q0 147 58.5 289t160.5 261t241.5 222.5t301 181.5t338.5 130l2 -4q-191 -105 -338.5 -276t-237.5 -388q96 35 199 35zM553 4q51 0 108.5 102.5t95.5 255.5
t38 291q0 96 -23.5 149.5t-66.5 53.5q-62 0 -132 -70q-96 -274 -96 -561q0 -105 19.5 -163t56.5 -58z" />
    <glyph glyph-name="seven" unicode="7" horiz-adv-x="1214" 
d="M1370 1507l2 -4q-280 -376 -459.5 -692t-279.5 -614q-74 -217 -264 -217q-74 0 -111 34t-37 95q0 83 85.5 221.5t217 286.5t283 291.5t289.5 250.5h-611q-60 0 -98 -2.5t-81.5 -12t-74 -27t-61 -49t-55.5 -77.5l-4 2l217 555h4q90 -26 243.5 -33.5t454.5 -7.5h340z" />
    <glyph glyph-name="eight" unicode="8" horiz-adv-x="1269" 
d="M842 907q61 -36 97.5 -60t86 -64t76.5 -76.5t47 -88t20 -108.5q0 -148 -84 -269.5t-232.5 -191t-330.5 -69.5q-218 0 -346.5 86.5t-128.5 234.5q0 97 58.5 172.5t148.5 116.5t203 55q-53 35 -91.5 68.5t-73 78.5t-52 101t-17.5 123q0 224 160.5 368t411.5 144
q205 0 325.5 -80.5t120.5 -214.5q0 -93 -58 -165t-147 -110.5t-198 -48.5q2 -2 4 -2zM791 1503q-94 0 -161 -80t-67 -190q0 -51 19 -95.5t58 -83t76.5 -66.5t96.5 -64q154 206 154 372q0 95 -47 151t-129 56zM526 4q117 0 199 85t82 206q0 40 -14 76t-34.5 62.5t-56.5 55.5
t-66 48.5t-77 46.5q-13 7 -38.5 22.5t-39.5 22.5q-67 -83 -108 -191t-41 -205q0 -104 51.5 -166.5t142.5 -62.5z" />
    <glyph glyph-name="nine" unicode="9" horiz-adv-x="1259" 
d="M776 1528q223 0 351 -126t128 -341q0 -219 -127 -432t-357 -383.5t-523 -265.5l-2 4q159 106 288.5 286.5t210.5 401.5q-97 -39 -213 -39q-180 0 -291.5 98t-111.5 260q0 113 49.5 213t135 171t206 112t256.5 41zM774 758q82 257 82 520q0 108 -21.5 166.5t-62.5 58.5
q-36 0 -78 -60.5t-76 -151.5t-56.5 -205t-22.5 -214q0 -93 24 -146.5t68 -53.5q70 0 143 86z" />
    <glyph glyph-name="colon" unicode=":" horiz-adv-x="681" 
d="M391 647q-108 0 -174.5 63t-66.5 162t77 172.5t181 73.5q108 0 174.5 -63t66.5 -162t-77 -172.5t-181 -73.5zM274 -20q-108 0 -174.5 63t-66.5 162t77 172.5t181 73.5q108 0 174.5 -63.5t66.5 -162.5q0 -98 -77 -171.5t-181 -73.5z" />
    <glyph glyph-name="semicolon" unicode=";" horiz-adv-x="679" 
d="M389 647q-108 0 -175 63t-67 162q0 98 77.5 172t181.5 74q108 0 174.5 -63t66.5 -162t-77 -172.5t-181 -73.5zM2 -369l-2 4q101 56 164 130.5t63 152.5q0 61 -44.5 99.5t-119.5 41.5q-32 43 -32 111q0 113 80.5 197t189.5 84q102 0 160.5 -63.5t58.5 -168.5
q0 -177 -145.5 -341.5t-372.5 -246.5z" />
    <glyph glyph-name="less" unicode="&#x3c;" horiz-adv-x="970" 
d="M823 311l-735 291v4l842 314l-4 -23l-781 -293l682 -270z" />
    <glyph glyph-name="equal" unicode="=" horiz-adv-x="970" 
d="M125 741l4 21h786l-4 -21h-786zM74 446l4 21h786l-4 -21h-786z" />
    <glyph glyph-name="greater" unicode="&#x3e;" horiz-adv-x="970" 
d="M68 311l4 23l776 270l-678 293l4 23l731 -314v-4z" />
    <glyph glyph-name="question" unicode="?" horiz-adv-x="892" 
d="M457 1528q116 0 221 -72.5t166 -183.5t61 -225q0 -112 -72.5 -196t-189 -127t-262.5 -50q-28 -73 -43 -125h-4q-34 241 -88 459l6 4q264 0 431 46.5t167 127.5q0 31 -29 76h-594q-6 36 -6 51q0 95 66 155t170 60zM313 451q108 0 175 -63.5t67 -162.5q0 -98 -77 -171.5
t-181 -73.5q-108 0 -175 63t-67 162t77 172.5t181 73.5z" />
    <glyph glyph-name="at" unicode="@" horiz-adv-x="2021" 
d="M1069 252q0 29 6 59l49 271q-58 -208 -114.5 -324.5t-120.5 -163.5t-154 -47q-104 0 -163.5 91t-59.5 247q0 143 41 270t111 218.5t168 144.5t208 53q114 0 183 -76q195 31 309 76h4l-143 -815q-2 -12 -2 -25q0 -77 94 -77q93 0 181 58.5t153 155.5t104 229t39 271
q0 191 -91 335.5t-255 222t-379 77.5q-231 0 -446.5 -97t-372.5 -258t-251.5 -381t-94.5 -456q0 -350 205 -533.5t583 -183.5q207 0 417.5 63.5t367.5 168.5l2 -4q-160 -114 -376.5 -183t-414.5 -69q-387 0 -600 191t-213 546q0 163 44 320t122 291t189.5 247.5t243 193.5
t285.5 124.5t314 44.5q166 0 305 -46.5t237.5 -131.5t153 -207.5t54.5 -270.5q0 -168 -53.5 -321t-143.5 -263.5t-215 -175.5t-262 -65q-109 0 -178.5 51.5t-69.5 153.5zM932 264q35 0 68 52t75.5 187t100.5 378q-4 77 -26 118t-50 41q-62 0 -119.5 -80t-93 -213.5
t-35.5 -279.5q0 -92 21.5 -147.5t58.5 -55.5z" />
    <glyph glyph-name="A" unicode="A" horiz-adv-x="1540" 
d="M1300 215q9 -42 13.5 -61.5t12.5 -47.5t15 -39.5t18.5 -27t25.5 -21t33 -10t44 -4.5v-4h-850v4q137 16 197.5 57.5t60.5 143.5q0 35 -14 114l-29 160h-516l-2 -4q-77 -143 -104 -211t-27 -119q0 -69 54 -100.5t176 -40.5v-4h-506v4q92 16 148.5 76.5t137.5 214.5l488 907
l-25 131q148 66 336 195h43zM322 500h501l-127 702z" />
    <glyph glyph-name="B" unicode="B" horiz-adv-x="1556" 
d="M1001 772q221 -10 349.5 -98.5t128.5 -229.5q0 -127 -89 -228.5t-247.5 -158.5t-356.5 -57h-835v4q109 17 153 66t66 176l180 1016q10 68 10 102q0 66 -32.5 96.5t-112.5 42.5l2 4h799q228 0 362.5 -82.5t134.5 -220.5q0 -166 -143.5 -285t-368.5 -147zM1094 1243
q0 115 -53.5 179.5t-157.5 64.5h-107l-125 -709h107q143 0 239.5 133t96.5 332zM643 20q177 0 295.5 135.5t118.5 338.5q0 124 -63 194t-185 70h-162l-96 -553q-10 -65 -10 -96q0 -50 22.5 -69.5t77.5 -19.5h2z" />
    <glyph glyph-name="C" unicode="C" horiz-adv-x="1396" 
d="M651 -20q-261 0 -412 159t-151 430q0 200 69.5 378t189.5 305.5t287.5 201.5t356.5 74q66 0 125 -19t102.5 -38t71.5 -19q32 0 53 13t46 53h4l10 -551l-6 -2q-26 151 -69 258t-98.5 167t-116 86.5t-132.5 26.5q-92 0 -180 -65.5t-153.5 -172.5t-105.5 -252t-40 -296
q0 -219 102 -346t281 -127q121 0 246 46.5t202 127.5l4 -2q-109 -198 -298.5 -317t-387.5 -119z" />
    <glyph glyph-name="D" unicode="D" horiz-adv-x="1628" 
d="M965 1507q301 0 474 -160.5t173 -433.5q0 -190 -71 -359.5t-192 -291t-291 -192t-360 -70.5h-747v4q109 17 153 66t66 176l180 1016q10 68 10 102q0 66 -32.5 96.5t-112.5 42.5l2 4h748zM629 20q148 0 280 140t211.5 374.5t79.5 497.5q0 216 -75.5 335.5t-219.5 119.5
h-129l-225 -1282q-12 -65 -12 -101q0 -48 20 -66t66 -18h4z" />
    <glyph glyph-name="E" unicode="E" horiz-adv-x="1480" 
d="M1456 578l4 -3l-278 -585q-176 10 -498 10h-733v4q109 17 153 66t66 176l180 1016q10 68 10 102q0 66 -31.5 96.5t-111.5 42.5v4h703q278 0 464 11l58 -566l-4 -2q-14 118 -37 202.5t-61.5 145t-84 97t-116 57.5t-146.5 28t-186 7h-31l-125 -709h58q58 0 97.5 7t81.5 29
t75.5 64.5t69.5 113.5t73 175h4q-93 -472 -145 -819h-4v14q0 128 -13 206t-46 120.5t-77.5 56t-119.5 13.5h-56l-98 -553q-10 -65 -10 -96q0 -50 22.5 -69.5t75.5 -19.5h14q122 0 205.5 11.5t167 44.5t150.5 95.5t136 161t144 245.5z" />
    <glyph glyph-name="F" unicode="F" horiz-adv-x="1361" 
d="M1366 1518l57 -566l-4 -2q-14 118 -36.5 203t-61 145t-84 96.5t-116.5 57.5t-147 28t-186 7h-12l-127 -729h37q75 0 123.5 13t97.5 54t90 118t86 204h4q-90 -448 -145 -819h-4v26q0 101 -10 169.5t-28 111t-51.5 65t-71 30t-95.5 7.5h-37l-80 -450q-12 -71 -12 -119
q0 -78 39 -113.5t135 -50.5v-4h-776v4q109 17 153 66t66 176l180 1016q10 68 10 102q0 66 -32.5 96.5t-112.5 42.5l2 4h684q279 0 465 11z" />
    <glyph glyph-name="G" unicode="G" horiz-adv-x="1556" 
d="M815 668h760v-4q-97 -15 -138 -60.5t-61 -161.5l-57 -319q-56 -9 -172 -51q-255 -92 -414 -92q-300 0 -472.5 163.5t-172.5 442.5q0 198 73 372.5t199.5 299.5t304 197.5t377.5 72.5q75 0 139 -19t111.5 -38t81.5 -19q36 0 58.5 13.5t46.5 52.5h4l-45 -551h-4
q-31 275 -128 405.5t-268 130.5q-103 0 -202.5 -89t-173.5 -233.5t-119 -339t-45 -395.5q0 -206 62.5 -324t176.5 -118q80 0 189 84l51 293q12 70 12 119q0 80 -38.5 114.5t-135.5 49.5v4z" />
    <glyph glyph-name="H" unicode="H" horiz-adv-x="1646" 
d="M1028 1507h739v-4q-109 -15 -153 -64t-66 -177l-180 -1016q-10 -65 -10 -101q0 -67 32 -98t111 -43v-4h-739v4q109 17 152.5 65t66.5 177l90 512h-424l-90 -512q-10 -65 -10 -101q0 -67 32 -98t111 -43v-4h-739v4q109 17 153 66t66 176l180 1016q10 68 10 102
q0 66 -31.5 96.5t-111.5 42.5v4h739v-4q-109 -17 -153 -65.5t-66 -175.5l-86 -484h424l86 484q10 68 10 102q0 66 -31.5 96.5t-111.5 42.5v4z" />
    <glyph glyph-name="I" unicode="I" horiz-adv-x="835" 
d="M217 1507h739v-4q-109 -17 -153 -65.5t-66 -175.5l-180 -1016q-10 -65 -10 -101q0 -67 32 -98t111 -43v-4h-739v4q109 17 153 66t66 176l180 1016q10 68 10 102q0 66 -31.5 96.5t-111.5 42.5v4z" />
    <glyph glyph-name="J" unicode="J" horiz-adv-x="804" 
d="M207 1507h739v-4q-109 -17 -154 -65.5t-67 -175.5l-135 -773q-46 -263 -231.5 -460.5t-438.5 -253.5l-2 4q76 64 119.5 126t75.5 159.5t61 263.5l164 934q10 65 10 100q0 68 -31.5 98.5t-109.5 42.5v4z" />
    <glyph glyph-name="K" unicode="K" horiz-adv-x="1615" 
d="M547 145q0 -67 32 -98t111 -43v-4h-739v4q105 12 150.5 61.5t68.5 180.5l180 1016q10 68 10 102q0 66 -31.5 96.5t-111.5 42.5v4h739v-4q-109 -17 -153 -65.5t-66 -175.5l-180 -1016q-10 -65 -10 -101zM1671 1503q-76 -1 -142.5 -42.5t-211.5 -164.5l-279 -233
q103 -286 170 -460t119 -296.5t91.5 -181t72 -84.5t76.5 -37v-4h-344q-53 0 -77.5 1.5t-64.5 11t-60.5 29t-55 58t-59.5 94.5t-61.5 142t-73.5 197.5t-85 263.5l467 387q36 30 68 78.5t32 101.5q0 118 -176 139v4h594v-4z" />
    <glyph glyph-name="L" unicode="L" horiz-adv-x="1384" 
d="M1382 578l4 -3l-278 -585q-179 10 -461 10h-696v4q109 17 153 66t66 176l180 1016q10 68 10 102q0 66 -31.5 96.5t-111.5 42.5v4h776v-4q-131 -20 -184.5 -76.5t-79.5 -205.5l-178 -1016q-12 -67 -12 -109t17 -59t56 -17h4q115 0 196 12.5t159.5 46t143 96.5t130 160.5
t137.5 242.5z" />
    <glyph glyph-name="M" unicode="M" horiz-adv-x="2007" 
d="M1552 1507h510v-4q-76 -13 -114 -35.5t-58 -69t-28 -136.5l-99 -1016q-4 -43 -4 -80q0 -79 31.5 -113.5t116.5 -48.5v-4h-777v4q134 19 184 66.5t62 175.5l109 1091l-742 -1357h-4l-290 1347l-279 -1040q-20 -73 -20 -127q0 -76 55 -110t190 -46v-4h-493v4q59 9 97 25.5
t63.5 48t40.5 68t32 100.5l271 1016q18 68 18 112q0 57 -33 87t-112 42v4h540l207 -966z" />
    <glyph glyph-name="N" unicode="N" horiz-adv-x="1544" 
d="M1188 1507h493v-4q-109 -15 -153 -64t-66 -177l-227 -1282h-4l-873 1208l-157 -901q-11 -71 -11 -103q0 -91 56 -129.5t198 -50.5v-4h-493v4q109 17 153 66t66 176l180 1016q10 68 10 102q0 66 -31.5 96.5t-111.5 42.5v4h428l674 -932l113 646q10 65 10 100
q0 91 -56 130.5t-198 51.5v4z" />
    <glyph glyph-name="O" unicode="O" horiz-adv-x="1622" 
d="M713 -20q-290 0 -456.5 162.5t-166.5 439.5q0 196 70 371.5t189 301.5t285 199.5t351 73.5q290 0 456.5 -162.5t166.5 -439.5q0 -196 -69.5 -371.5t-188.5 -301.5t-285 -199.5t-352 -73.5zM717 4q88 0 176.5 94t155.5 243.5t109 346.5t42 391q0 199 -57 311.5t-162 112.5
q-116 0 -228.5 -157t-182.5 -407.5t-70 -508.5q0 -200 57 -313t160 -113z" />
    <glyph glyph-name="P" unicode="P" horiz-adv-x="1423" 
d="M979 1507q244 0 387 -93.5t143 -250.5q0 -144 -97.5 -260.5t-269 -182t-382.5 -65.5h-25v21h10q87 0 167.5 76t129 202.5t48.5 264.5q0 125 -54.5 196.5t-152.5 71.5h-107l-211 -1200q-12 -71 -12 -119q0 -78 39 -113.5t135 -50.5v-4h-776v4q109 17 153 66t66 176
l180 1016q10 68 10 102q0 65 -32 96t-111 43v4h762z" />
    <glyph glyph-name="Q" unicode="Q" horiz-adv-x="1622" 
d="M989 25q55 -98 94.5 -163t76 -113.5t62 -75t57.5 -44t58.5 -24t69.5 -11.5v-4h-305q-76 0 -110 1.5t-87 13.5t-83 35.5t-77.5 70t-93.5 114.5t-110 171q-214 46 -332.5 200t-118.5 386q0 196 70 371.5t189 301.5t285 199.5t351 73.5q290 0 456.5 -162.5t166.5 -439.5
q0 -319 -171 -565t-448 -336zM981 1503q-116 0 -228.5 -157t-182.5 -407.5t-70 -508.5q0 -200 57 -313t160 -113q88 0 176.5 94t155.5 243.5t109 346.5t42 391q0 199 -57 311.5t-162 112.5z" />
    <glyph glyph-name="R" unicode="R" horiz-adv-x="1601" 
d="M1133 764q86 -250 139.5 -389.5t101.5 -222t83.5 -109t90.5 -39.5v-4h-336q-54 0 -82 3t-67.5 15.5t-64.5 41t-59 77t-65 126.5t-69 185.5t-84 258.5h-82l-74 -420q-12 -71 -12 -117q0 -78 39.5 -114.5t134.5 -51.5v-4h-776v4q109 17 153 66t66 176l180 1016
q10 68 10 102q0 66 -31.5 96.5t-111.5 42.5v4h762q244 0 388 -85t144 -230q0 -139 -102 -252.5t-276 -175.5zM776 1487l-133 -760h113q85 0 162 69.5t123 186t46 246.5q0 120 -53.5 189t-150.5 69h-107z" />
    <glyph glyph-name="S" unicode="S" horiz-adv-x="1306" 
d="M547 -20q-74 0 -142.5 19t-122.5 38.5t-92 19.5q-40 0 -63.5 -13.5t-54.5 -53.5h-4l-7 559l5 2q52 -247 183 -397t294 -150q140 0 229.5 77t89.5 198q0 51 -21.5 95t-64 81t-87 65.5t-109.5 61.5q-41 21 -61.5 32t-60 33t-60.5 37t-53.5 39.5t-50.5 45t-40.5 49.5
t-33.5 57t-19 63t-8 72q0 146 79 265t218 186t311 67q68 0 134.5 -20t120 -40t89.5 -20q68 0 115 70h2l6 -541l-4 -2q-35 236 -166 382t-301 146q-103 0 -176.5 -67t-73.5 -162q0 -55 23.5 -103t68.5 -87.5t91 -68t112 -61.5q56 -28 94.5 -49.5t88 -53t81.5 -63.5t62 -71.5
t44.5 -87t14.5 -101.5q0 -150 -89.5 -275.5t-246 -199t-344.5 -73.5z" />
    <glyph glyph-name="T" unicode="T" horiz-adv-x="1445" 
d="M1458 1546l49 -596l-4 -2q-20 115 -42 198t-50 143t-58.5 97.5t-73.5 60t-88.5 31t-109.5 9.5l-219 -1241q-10 -65 -10 -99q0 -68 36 -98.5t128 -44.5v-4h-778v4q121 17 168 65.5t69 176.5l219 1241q-97 -2 -164.5 -22t-139.5 -78.5t-142.5 -162.5t-161.5 -276l-4 2
l256 596h4q78 -23 162.5 -31t255.5 -8h266q160 0 249 6.5t179 32.5h4z" />
    <glyph glyph-name="U" unicode="U" horiz-adv-x="1521" 
d="M1174 1507h493v-4q-110 -19 -154 -66.5t-67 -174.5l-141 -801q-38 -217 -181.5 -349t-341.5 -132q-308 0 -456 98.5t-148 298.5q0 47 15 135l131 750q12 62 12 104q0 65 -33 95t-113 42v4h779v-4q-132 -19 -183.5 -66.5t-74.5 -174.5l-144 -811q-12 -71 -12 -132
q0 -148 62.5 -231.5t177.5 -83.5q182 0 317 126t170 331l133 760q10 65 10 100q0 93 -54.5 131.5t-196.5 50.5v4z" />
    <glyph glyph-name="V" unicode="V" horiz-adv-x="1531" 
d="M1192 1507h524v-4q-18 -3 -34 -7.5t-32.5 -13.5t-28 -15t-27 -22t-24.5 -24.5t-26 -32t-25 -34.5t-28 -43t-28.5 -45.5t-32.5 -53.5l-744 -1232h-45l-324 1312q-31 127 -49 158q-24 43 -80 51q-15 2 -34 2v4h831v-4q-124 -14 -184 -60t-60 -136q0 -27 21 -119l176 -750
l358 598q80 135 109 201.5t29 118.5q0 71 -58 105t-184 42v4z" />
    <glyph glyph-name="W" unicode="W" horiz-adv-x="2203" 
d="M1829 1507h559v-4q-49 -7 -84.5 -25.5t-70 -59t-61 -82.5t-71.5 -124l-686 -1232h-45l-211 978l-526 -978h-43l-271 1312q-15 71 -24.5 105t-27.5 61.5t-43 35.5t-68 9v4h868v-4q-139 -14 -206.5 -61.5t-67.5 -151.5q0 -30 14 -102l139 -660l535 1000h4l223 -1053
l295 535q71 126 101 196.5t30 132.5q0 82 -61 118.5t-201 45.5v4z" />
    <glyph glyph-name="X" unicode="X" horiz-adv-x="1515" 
d="M1671 1503q-36 -4 -71 -16t-65 -27.5t-65 -44.5t-61 -54t-65 -69.5t-66.5 -77.5t-73.5 -90l-219 -272l229 -512q27 -61 41 -91.5t35.5 -75.5t36 -67.5t33.5 -48t37 -37.5t37 -16v-4h-828v4q104 7 158.5 52t54.5 122q0 64 -45 166l-145 326l-154 -193
q-99 -122 -138.5 -193t-39.5 -128q0 -132 203 -152v-4h-611v4q130 21 230.5 104t259.5 285l239 301l-231 518q-74 167 -110.5 225t-90.5 66v4h820v-4q-94 -8 -147.5 -54t-53.5 -122q0 -68 43 -166l127 -282l119 147q102 126 145 201.5t43 136.5q0 67 -50.5 100t-154.5 39v4
h594v-4z" />
    <glyph glyph-name="Y" unicode="Y" horiz-adv-x="1492" 
d="M1104 1507h586v-4q-113 -15 -208.5 -99t-236.5 -296l-287 -428l-75 -434q-11 -72 -11 -99q0 -69 36.5 -100t127.5 -43v-4h-778v4q122 19 168.5 66.5t69.5 175.5l77 442l-172 524q-18 54 -27 80.5t-24.5 66t-28.5 59t-31.5 41t-39.5 31.5t-47 13v4h811v-4q-91 -8 -144 -53
t-53 -121q0 -35 35 -168l119 -420l190 283q101 150 135.5 219.5t34.5 122.5q0 67 -55.5 99t-171.5 38v4z" />
    <glyph glyph-name="Z" unicode="Z" horiz-adv-x="1402" 
d="M682 20q82 0 140 7t118.5 27t107.5 56.5t97 96.5t96.5 146.5t97.5 205.5l4 -2l-161 -567q-263 10 -768 10h-480v6l1110 1481h-253q-92 0 -156.5 -11.5t-130 -43.5t-120.5 -92.5t-114 -155t-125 -234.5l-4 2l219 566q225 -11 717 -11h432l2 -4l-1110 -1483h281z" />
    <glyph glyph-name="bracketleft" unicode="[" horiz-adv-x="808" 
d="M377 1669h627v-4q-160 -23 -222.5 -83t-91.5 -220l-266 -1507q-12 -67 -12 -115q0 -91 48 -131t169 -58v-4h-627l43 246l289 1630z" />
    <glyph glyph-name="backslash" unicode="\" horiz-adv-x="1052" 
d="M817 -205l-545 1835l27 12l545 -1835z" />
    <glyph glyph-name="bracketright" unicode="]" horiz-adv-x="808" 
d="M203 1669h626l-43 -246l-288 -1630l-43 -246h-627v4q160 23 221.5 83.5t89.5 220.5l267 1507q12 68 12 117q0 89 -47 128.5t-168 57.5v4z" />
    <glyph glyph-name="asciicircum" unicode="^" horiz-adv-x="970" 
d="M102 911l578 748h4l315 -748h-28l-297 703l-543 -703h-29z" />
    <glyph glyph-name="underscore" unicode="_" horiz-adv-x="1382" 
d="M-117 -205l8 21h1348l-8 -21h-1348z" />
    <glyph glyph-name="grave" unicode="`" horiz-adv-x="874" 
d="M606 1151q-134 85 -240 171t-145 134q-33 39 -33 92q0 52 40.5 90.5t93.5 38.5q72 0 116 -63q33 -48 82.5 -176t89.5 -283z" />
    <glyph glyph-name="a" unicode="a" horiz-adv-x="1243" 
d="M1188 328l4 -2q-44 -156 -143.5 -251t-219.5 -95q-83 0 -134.5 41.5t-51.5 128.5q0 22 6 57l66 377q-63 -236 -125 -367t-132.5 -184t-170.5 -53q-117 0 -183.5 101t-66.5 275q0 213 77 388t211.5 274.5t299.5 99.5q60 0 112.5 -23.5t87.5 -62.5q183 25 351 86h4
l-156 -876q-2 -12 -2 -23q0 -35 29 -35q32 0 69.5 40.5t67.5 103.5zM500 207q40 0 76.5 61t83.5 214.5t116 441.5l10 57q-9 49 -33 73.5t-55 24.5q-70 0 -133.5 -88.5t-102 -234t-38.5 -305.5q0 -244 76 -244z" />
    <glyph glyph-name="b" unicode="b" horiz-adv-x="1167" 
d="M885 1118q116 0 183 -101.5t67 -275.5q0 -213 -82.5 -387.5t-227 -274t-319.5 -99.5q-206 0 -313 108t-107 318q0 80 14 163l140 815q9 53 -13 80t-88 39v4q125 19 268 61t246 91h4l-204 -1155q64 240 126.5 373t133.5 187t172 54zM473 4q70 0 134 90.5t102.5 239.5
t38.5 313q0 244 -76 244q-38 0 -72.5 -54t-78 -191t-105.5 -390q-23 -103 -23 -147q0 -105 80 -105z" />
    <glyph glyph-name="c" unicode="c" horiz-adv-x="1071" 
d="M717 205q73 0 150 29t124 81l4 -2q-82 -151 -225 -242t-297 -91q-202 0 -318 118t-116 320q0 196 88 356.5t241.5 252t340.5 91.5q164 0 260 -79.5t96 -213.5q0 -126 -67.5 -192t-163.5 -66q-64 0 -101 25v502q-78 -4 -149.5 -81t-114.5 -201.5t-43 -258.5
q0 -159 77.5 -253.5t213.5 -94.5z" />
    <glyph glyph-name="d" unicode="d" horiz-adv-x="1243" 
d="M1051 184q32 0 69.5 40.5t67.5 103.5l4 -2q-44 -156 -143.5 -251t-219.5 -95q-83 0 -134.5 41.5t-51.5 128.5q0 22 6 57l66 371q-63 -234 -125 -364t-132.5 -182t-170.5 -52q-117 0 -183.5 101t-66.5 275q0 213 77 388t211.5 274.5t299.5 99.5q102 0 174 -59l57 325
q9 54 -12.5 80.5t-87.5 38.5v4q125 19 268 61t246 91h4l-250 -1417q-2 -12 -2 -23q0 -35 29 -35zM500 207q40 0 75.5 58.5t83 211.5t113.5 434l14 72q-10 47 -34 71.5t-54 24.5q-70 0 -133.5 -88.5t-102 -234t-38.5 -305.5q0 -244 76 -244z" />
    <glyph glyph-name="e" unicode="e" horiz-adv-x="1062" 
d="M723 205q71 0 150 30.5t137 79.5l4 -2q-85 -151 -233 -242t-308 -91q-202 0 -318 118t-116 320q0 146 50.5 276t137 223t207.5 147t256 54q165 0 258.5 -57t93.5 -154q0 -71 -55 -132.5t-148.5 -105.5t-195.5 -74t-217 -50v-10q0 -152 79 -241t218 -89zM686 1094
q-60 0 -119 -78t-97.5 -201t-43.5 -250q146 83 228.5 198t82.5 255q0 34 -14 55t-37 21z" />
    <glyph glyph-name="f" unicode="f" horiz-adv-x="741" 
d="M973 1393h-496q-39 -82 -39 -154q0 -65 50.5 -103t136.5 -38h229l-8 -21h-225l-158 -901q-43 -242 -202.5 -409.5t-377.5 -196.5l-2 4q86 82 119.5 168t65.5 272l178 1018q2 12 10 45h-125l8 21h125q25 67 72 144t110 150t131.5 133.5t143 97t137.5 36.5q70 0 112 -36.5
t42 -98.5q0 -63 -37 -131z" />
    <glyph glyph-name="g" unicode="g" horiz-adv-x="1179" 
d="M1180 1118h4l-99 -530q-56 -302 -181 -533.5t-300.5 -358t-374.5 -126.5q-103 0 -161 47.5t-58 126.5q0 48 23 86l686 4q52 71 66 182t-3 267l-39 393q-68 -274 -133 -424.5t-139 -211t-180 -60.5q-117 0 -183.5 101t-66.5 275q0 213 77 388t211.5 274.5t299.5 99.5
q121 0 198 -84q188 24 353 84zM504 207q40 0 75.5 58t82.5 209t112 427l17 80q-9 48 -33.5 73t-55.5 25q-70 0 -133.5 -88.5t-102 -234t-38.5 -305.5q0 -244 76 -244z" />
    <glyph glyph-name="h" unicode="h" horiz-adv-x="1255" 
d="M1206 328l4 -2q-44 -156 -143 -251t-219 -95q-83 0 -134.5 41.5t-51.5 128.5q0 22 6 57l108 624q2 12 2 23q0 37 -33 37q-73 0 -164.5 -201.5t-160.5 -533.5l-27 -156h-368l243 1384q9 54 -12.5 80.5t-87.5 38.5v4q125 19 268 61t246 91h4l-207 -1174q44 146 97 260
t104 183t106.5 113t101 60.5t89.5 16.5q79 0 128.5 -45t49.5 -131q0 -28 -4 -53l-109 -647q-2 -12 -2 -23q0 -35 29 -35q32 0 69.5 40.5t67.5 103.5z" />
    <glyph glyph-name="i" unicode="i" horiz-adv-x="698" 
d="M514 1614q86 0 142.5 -54t56.5 -137q0 -92 -64.5 -153.5t-159.5 -61.5q-88 0 -144 54t-56 137q0 92 64 153.5t161 61.5zM508 184q32 0 69.5 40.5t67.5 103.5l4 -2q-44 -156 -143 -251t-219 -95q-83 0 -135 41.5t-52 128.5q0 22 6 57l115 649q2 12 2 23q0 34 -28 34
q-32 0 -70 -40t-68 -103l-4 2q44 156 143.5 251t219.5 95q83 0 134.5 -41.5t51.5 -128.5q0 -22 -6 -57l-115 -649q-2 -12 -2 -23q0 -35 29 -35z" />
    <glyph glyph-name="j" unicode="j" horiz-adv-x="655" 
d="M522 1614q86 0 142.5 -54t56.5 -137q0 -92 -64 -153.5t-159 -61.5q-88 0 -144.5 54t-56.5 137q0 92 64 153.5t161 61.5zM424 1118q83 0 134.5 -41.5t51.5 -128.5q0 -22 -6 -57l-125 -715q-41 -242 -201 -409.5t-378 -196.5l-2 4q37 35 63 71t43.5 69t32 84t23 94.5
t22.5 121.5l147 842q2 12 2 23q0 34 -28 34q-32 0 -69.5 -40t-67.5 -103l-5 2q44 156 143.5 251t219.5 95z" />
    <glyph glyph-name="k" unicode="k" horiz-adv-x="1257" 
d="M1241 319l4 -2q-34 -158 -119 -247.5t-206 -89.5q-90 0 -149.5 43t-100.5 139l-154 354q128 37 205.5 119t77.5 180q0 48 -22 78.5t-58 30.5q-85 0 -184 -129l-142 -795h-368l243 1384q9 54 -12.5 80.5t-87.5 38.5v4q125 19 268 61t246 91h4l-147 -834q76 139 188 216
t227 77q103 0 166.5 -51.5t63.5 -136.5q0 -80 -75 -164t-206 -148l135 -307q45 -102 97 -102q19 0 34.5 8t29 27.5t21 32.5t21.5 42z" />
    <glyph glyph-name="l" unicode="l" horiz-adv-x="659" 
d="M465 184q32 0 69.5 40.5t67.5 103.5l4 -2q-44 -156 -143 -251t-219 -95q-83 0 -135 41.5t-52 128.5q0 22 6 57l207 1177q9 54 -12.5 80.5t-87.5 38.5v4q125 19 268 61t246 91h4l-250 -1417q-2 -12 -2 -23q0 -35 29 -35z" />
    <glyph glyph-name="m" unicode="m" horiz-adv-x="1886" 
d="M1837 328l4 -2q-44 -156 -143 -251t-219 -95q-83 0 -135 41.5t-52 128.5q0 22 6 57l109 624q2 12 2 23q0 37 -33 37q-70 0 -159 -202t-154 -533l-27 -156h-368l145 831q2 12 2 23q0 37 -33 37q-70 0 -159 -202t-154 -533l-27 -156h-368l151 856q2 12 2 23q0 34 -28 34
q-32 0 -70 -40t-68 -103l-4 2q44 156 143.5 251t219.5 95q83 0 134.5 -41.5t51.5 -128.5q0 -22 -6 -57l-70 -385q43 142 95 252t101.5 176.5t103 109t97.5 58.5t87 16q79 0 128.5 -45t49.5 -131q0 -28 -4 -53l-70 -406q43 147 95.5 261.5t102.5 183t104.5 113t99 61
t88.5 16.5q79 0 128.5 -45t49.5 -131q0 -28 -4 -53l-109 -647q-2 -12 -2 -23q0 -35 29 -35q32 0 69.5 40.5t67.5 103.5z" />
    <glyph glyph-name="n" unicode="n" horiz-adv-x="1304" 
d="M1255 328l5 -2q-44 -156 -143.5 -251t-219.5 -95q-83 0 -134.5 41.5t-51.5 128.5q0 22 6 57l108 624q2 12 2 23q0 37 -32 37q-73 0 -165.5 -202t-160.5 -533l-27 -156h-368l151 856q2 12 2 23q0 34 -28 34q-32 0 -70 -40t-68 -103l-4 2q44 156 143.5 251t219.5 95
q83 0 134.5 -41.5t51.5 -128.5q0 -22 -6 -57l-72 -404q44 146 97 259.5t104 182t106 112.5t101 60.5t90 16.5q79 0 128.5 -45t49.5 -131q0 -28 -4 -53l-108 -647q-2 -12 -2 -23q0 -35 28 -35q32 0 69.5 40.5t67.5 103.5z" />
    <glyph glyph-name="o" unicode="o" horiz-adv-x="1216" 
d="M510 -20q-220 0 -345.5 120t-125.5 324q0 193 88.5 352t242.5 250.5t341 91.5q218 0 343.5 -120t125.5 -324q0 -193 -88.5 -352t-242 -250.5t-339.5 -91.5zM514 4q61 0 128.5 132.5t113 333t45.5 382.5q0 114 -24.5 178t-71.5 64q-61 0 -128 -133t-112 -333.5t-45 -381.5
q0 -115 24 -178.5t70 -63.5z" />
    <glyph glyph-name="p" unicode="p" horiz-adv-x="1247" 
d="M963 1118q116 0 182.5 -101.5t66.5 -275.5q0 -213 -76.5 -387.5t-211 -274t-299.5 -99.5q-102 0 -174 59l-37 -213q-5 -26 -5.5 -44t4 -31.5t11 -22t21 -15t29.5 -10.5t40 -8v-4q-305 -43 -510 -119h-4l225 1284q2 12 2 23q0 34 -28 34q-32 0 -70 -40t-68 -103l-4 2
q44 156 143.5 251t219.5 95q83 0 134.5 -41.5t51.5 -128.5q0 -22 -6 -57l-65 -369q63 233 125 362.5t132.5 181.5t170.5 52zM551 18q70 0 133.5 88.5t102 234.5t38.5 306q0 244 -75 244q-40 0 -76 -58t-83.5 -209.5t-113.5 -428.5l-12 -82q9 -45 33 -70t53 -25z" />
    <glyph glyph-name="q" unicode="q" horiz-adv-x="1200" 
d="M938 -305q0 -47 21.5 -69.5t74.5 -31.5v-4h-647v4q98 15 138.5 59.5t60.5 162.5l135 774q-63 -239 -125 -371.5t-133 -185.5t-172 -53q-117 0 -183.5 101t-66.5 275q0 213 77 388t211.5 274.5t299.5 99.5q60 0 112.5 -23t85.5 -61q191 25 353 84h4l-238 -1343
q-8 -44 -8 -80zM504 207q40 0 76.5 61t83.5 215t116 443l11 55q-9 48 -33.5 73t-55.5 25q-70 0 -133.5 -88.5t-102 -234t-38.5 -305.5q0 -244 76 -244z" />
    <glyph glyph-name="r" unicode="r" horiz-adv-x="1052" 
d="M1124 973q0 -81 -53 -152h-352q-90 -179 -250 -665l-27 -156h-368l151 856q2 12 2 23q0 34 -28 34q-32 0 -70 -40t-68 -103l-4 2q44 156 143.5 251t219.5 95q83 0 134.5 -41.5t51.5 -128.5q0 -22 -6 -57l-102 -576q63 200 120 345t103.5 232.5t93.5 139t85.5 69
t84.5 17.5q64 0 101.5 -39.5t37.5 -105.5z" />
    <glyph glyph-name="s" unicode="s" horiz-adv-x="1003" 
d="M641 688q54 -29 85.5 -47.5t76 -50t69 -59.5t42.5 -66.5t18 -79.5q0 -110 -69.5 -203t-190.5 -147.5t-264 -54.5q-196 0 -300 64.5t-104 176.5q0 85 56 130.5t135 45.5q64 0 100 -24v-365q50 -4 108 -4q96 0 155.5 46t59.5 116q0 33 -13 62t-30 50t-50.5 44.5t-58.5 37.5
t-69 37q-47 25 -71.5 39t-65 40t-63 48t-47 52.5t-35.5 65.5t-11 75q0 167 133 284t324 117q183 0 290 -62.5t107 -168.5q0 -75 -56 -115.5t-134 -40.5q-62 0 -100 25v331q-51 7 -97 7q-72 0 -127 -42.5t-55 -113.5q0 -40 19 -74.5t61 -67.5t76 -53.5t96 -54.5z" />
    <glyph glyph-name="t" unicode="t" horiz-adv-x="808" 
d="M625 1077l-138 -780q-6 -38 -6 -61q0 -39 17 -55.5t55 -16.5q118 0 207 153l4 -2q-76 -170 -184.5 -252.5t-231.5 -82.5q-113 0 -177.5 59t-64.5 160q0 26 5 57l145 821h-129l8 21h125l78 274h342l-51 -274h262l-8 -21h-258z" />
    <glyph glyph-name="u" unicode="u" horiz-adv-x="1294" 
d="M1235 328l4 -2q-44 -156 -143 -251t-219 -95q-83 0 -135 41.5t-52 128.5q0 22 6 57l70 385q-43 -142 -95 -252t-101.5 -176.5t-102.5 -109t-97 -58.5t-87 -16q-79 0 -129 45t-50 131q0 22 5 53l108 647q2 12 2 23q0 34 -29 34q-32 0 -69.5 -40t-67.5 -103l-4 2
q44 156 143.5 251t219.5 95q83 0 134.5 -41.5t51.5 -128.5q0 -22 -6 -57l-109 -625q-2 -12 -2 -22q0 -37 33 -37q70 0 159 202t154 533l27 156h369l-152 -856q-2 -12 -2 -23q0 -35 29 -35q32 0 69.5 40.5t67.5 103.5z" />
    <glyph glyph-name="v" unicode="v" horiz-adv-x="1030" 
d="M897 1118q69 0 111.5 -45.5t42.5 -118.5q0 -77 -44 -180.5t-109 -202.5t-156.5 -213.5t-169.5 -200.5t-166 -177h-46l-192 874q-10 43 -39 43q-22 0 -51 -26.5t-74 -100.5l-4 2q61 170 142 258t192 88q81 0 140.5 -52t78.5 -153l117 -612q35 42 88 113v669q49 35 139 35z
" />
    <glyph glyph-name="w" unicode="w" horiz-adv-x="1595" 
d="M1454 1118q69 0 111.5 -45.5t42.5 -118.5q0 -77 -41 -180.5t-102 -202.5t-147 -213.5t-159 -200.5t-155 -177h-46l-118 481q-149 -217 -389 -481h-45l-236 886q-10 43 -39 43q-51 0 -123 -139l-4 2q57 170 133.5 258t179.5 88q87 0 150 -51.5t90 -153.5l156 -594
q34 45 118 170l-149 609h399l185 -779l49 68v696q49 35 139 35z" />
    <glyph glyph-name="x" unicode="x" horiz-adv-x="1150" 
d="M1145 821h-393q-5 -10 -43 -88l165 -414q40 -100 97 -100q31 0 56.5 23t53.5 77l4 -2q-34 -157 -118.5 -247t-204.5 -90q-74 0 -123 24.5t-77 66t-58 117.5l-49 121q-64 -130 -125.5 -205t-112.5 -99.5t-111 -24.5q-64 0 -101.5 39.5t-37.5 105.5q0 80 53 151h394
q14 25 30 62l-176 440q-40 101 -96 101q-31 0 -57 -23.5t-54 -77.5l-4 2q34 157 119 247.5t205 90.5q107 0 160 -47.5t98 -161.5l59 -147q51 107 98.5 179t92.5 109.5t84.5 52.5t85.5 15q64 0 101.5 -39.5t37.5 -105.5q0 -81 -53 -152z" />
    <glyph glyph-name="y" unicode="y" horiz-adv-x="1228" 
d="M854 1098h369l-93 -510q-55 -302 -180.5 -533.5t-301 -358t-374.5 -126.5q-103 0 -161 47.5t-58 126.5q0 48 23 86l686 4q52 71 66 182t-3 267l-39 393q-43 -162 -97 -287.5t-105.5 -200.5t-108 -123.5t-103 -66.5t-91.5 -18q-79 0 -129 45t-50 131q0 22 5 53l108 647
q2 12 2 23q0 34 -29 34q-32 0 -69.5 -40t-67.5 -103l-4 2q44 156 143.5 251t219.5 95q83 0 134.5 -41.5t51.5 -128.5q0 -22 -6 -57l-109 -625q-2 -12 -2 -22q0 -37 33 -37q70 0 159 202t154 533z" />
    <glyph glyph-name="z" unicode="z" horiz-adv-x="1050" 
d="M840 281q75 0 109.5 15.5t62.5 61.5l4 -2q-21 -90 -47.5 -154.5t-67 -117t-99.5 -78.5t-138 -26q-234 0 -547 155l-150 -145l-14 14l805 784h-281q-142 0 -219 -11.5t-120 -39t-70 -82.5l-5 2l164 451q215 -10 621 -10h250l2 -4l-701 -682q111 -60 237.5 -95.5
t203.5 -35.5z" />
    <glyph glyph-name="braceleft" unicode="{" horiz-adv-x="759" 
d="M246 1225q0 103 63.5 176t208.5 130.5t397 108.5v-4q-180 -94 -244.5 -165.5t-64.5 -172.5q0 -47 19 -159q2 -14 7 -40t6.5 -35l4.5 -27t3.5 -29t1.5 -27t1 -33q0 -163 -113.5 -243.5t-330.5 -96.5q346 -26 346 -223q0 -102 -113 -307q-30 -56 -45.5 -86.5t-32 -79.5
t-16.5 -84q0 -63 47 -118.5t162 -129.5l-2 -4q-204 47 -326 98.5t-169.5 104t-47.5 117.5q0 37 16.5 86.5t33.5 83t48 90.5q55 102 83 172.5t28 136.5q0 133 -154 133h-12l4 20h13q106 0 163.5 68t57.5 193q0 58 -23 180q-20 106 -20 166z" />
    <glyph glyph-name="bar" unicode="|" horiz-adv-x="471" 
d="M53 -414l363 2052l24 4l-362 -2052z" />
    <glyph glyph-name="braceright" unicode="}" horiz-adv-x="759" 
d="M563 752q0 -134 154 -134h12l-4 -20h-10q-107 0 -165 -67.5t-58 -192.5q0 -72 22 -180q23 -113 23 -166q0 -102 -64.5 -174.5t-209 -130t-396.5 -111.5l-2 4q178 93 244.5 165t66.5 173q0 65 -20 160q-25 127 -25 190q0 163 113.5 243.5t330.5 96.5q-346 26 -346 223
q0 45 20 104.5t38 97t55 106.5q32 59 48.5 92.5t31 78t14.5 79.5q0 64 -46.5 118t-162.5 129l2 4q207 -46 329.5 -97.5t168 -103.5t45.5 -118q0 -83 -98 -262q-40 -74 -57 -108t-35.5 -92t-18.5 -107z" />
    <glyph glyph-name="asciitilde" unicode="~" horiz-adv-x="970" 
d="M657 446q-95 0 -241 52q-144 51 -234 51q-112 0 -168 -88l-4 2q36 128 126.5 219.5t199.5 91.5q93 0 229 -51q137 -51 244 -51q111 0 170 88l2 -2q-37 -130 -126.5 -221t-197.5 -91z" />
    <glyph glyph-name="uni00A0" unicode="&#xa0;" horiz-adv-x="471" 
 />
    <glyph glyph-name="exclamdown" unicode="&#xa1;" horiz-adv-x="655" 
d="M416 852q-108 0 -175 63t-67 162t77 172.5t181 73.5q108 0 175 -63t67 -162t-77 -172.5t-181 -73.5zM193 -225q-91 0 -140 47.5t-49 128.5q0 119 47 224.5t139 248.5q63 96 104.5 172t67.5 158h5q0 -105 45 -285q75 -314 45 -469q-22 -114 -94 -169.5t-170 -55.5z" />
    <glyph glyph-name="cent" unicode="&#xa2;" horiz-adv-x="1136" 
d="M780 410q73 0 150.5 29t124.5 81l4 -2q-71 -133 -194 -221.5t-261 -108.5l-35 -200l-20 4l35 194q-16 -2 -47 -2q-202 0 -318.5 118.5t-116.5 320.5q0 196 88 356.5t241.5 252t340.5 91.5h8l35 197l23 -4l-35 -193q151 -9 238 -87.5t87 -205.5q0 -126 -67.5 -192
t-163.5 -66q-63 0 -100 25v485l-148 -844q58 -28 131 -28zM489 758q0 -107 36 -186.5t104 -120.5l147 845q-75 -14 -141 -92.5t-106 -198t-40 -247.5z" />
    <glyph glyph-name="sterling" unicode="&#xa3;" horiz-adv-x="1327" 
d="M1087 977q-64 0 -100 24v502q-133 -3 -201.5 -78.5t-68.5 -216.5q0 -57 10 -141q14 -114 14 -197q0 -44 -2 -67h353l-7 -21h-350q-20 -160 -131 -259.5t-352 -174.5h485q80 0 135 3t109 11.5t90.5 23.5t69.5 40t56 61t40 86h4l-168 -583q-267 10 -768 10h-332v6
q80 103 125.5 165.5t93 141t70 142t37 143t14.5 170.5v14h-184l8 21h176v22q0 182 50.5 320t140.5 220t205 122.5t254 40.5q164 0 260 -79.5t96 -213.5q0 -125 -68 -191.5t-164 -66.5z" />
    <glyph glyph-name="currency" unicode="&#xa4;" horiz-adv-x="1339" 
d="M1157 864q0 -129 -44 -238.5t-124 -185.5l189 -231l-19 -16l-190 227q-142 -123 -344 -123t-299 117l-267 -226l-14 17l266 227q-59 83 -59 211q0 132 45.5 243t128.5 187l-184 230l18 16l189 -225q141 116 337 116q204 0 299 -118l271 227l14 -16l-270 -232
q57 -82 57 -207zM281 643q0 -154 90 -237.5t258 -83.5q222 0 360.5 150.5t138.5 391.5q0 154 -90 238t-258 84q-221 0 -360 -151.5t-139 -391.5z" />
    <glyph glyph-name="yen" unicode="&#xa5;" horiz-adv-x="1517" 
d="M1085 1507h549v-4q-102 -16 -192.5 -99t-227.5 -296l-251 -391l-9 -41h287l-8 -21h-283l-41 -241h285l-8 -21h-281l-26 -147q-11 -72 -11 -99q0 -69 36.5 -100t127.5 -43v-4h-778v4q64 9 103 23t66.5 43t42 69t26.5 107l26 147h-268l8 21h264l41 241h-266l8 21h254
l-164 536q-50 165 -82.5 224t-91.5 67v4h785v-4q-89 -8 -136 -52t-47 -120q0 -43 31 -170l104 -409l168 262q99 155 133.5 224.5t34.5 125.5q0 67 -51 99t-158 40v4z" />
    <glyph glyph-name="brokenbar" unicode="&#xa6;" horiz-adv-x="471" 
d="M268 801l148 837l24 4l-147 -837zM53 -414l148 838l24 4l-147 -838z" />
    <glyph glyph-name="section" unicode="&#xa7;" horiz-adv-x="985" 
d="M229 -430q-81 0 -127.5 37.5t-46.5 101.5q0 60 39 127h481q37 66 37 129q0 80 -49.5 176t-148.5 244q-59 88 -95.5 148t-80 144.5t-65 164.5t-21.5 157q0 91 41 189t108.5 180t149 148.5t168.5 104.5t161 38q78 0 125 -37.5t47 -101.5q0 -60 -37 -127h-481
q-39 -67 -39 -129q0 -43 14 -90.5t48.5 -109.5t58 -99t76.5 -117q50 -75 78 -118t69.5 -117t63 -128.5t38.5 -123.5t17 -132q0 -113 -63.5 -235t-157 -213.5t-205 -151t-203.5 -59.5zM629 -164q107 107 154.5 195.5t47.5 189.5q0 138 -68.5 285t-184.5 321
q-46 70 -69.5 105.5t-57.5 91.5t-48 88t-30.5 75.5t-18 74t4 64.5t22.5 65q-120 -126 -162.5 -206.5t-42.5 -176.5q0 -142 69.5 -290.5t186.5 -318.5q46 -66 68.5 -100t55 -86.5t46.5 -83t30 -73.5t18 -75t-2.5 -70t-18.5 -75z" />
    <glyph glyph-name="dieresis" unicode="&#xa8;" horiz-adv-x="1126" 
d="M317 1260q-70 0 -112.5 41.5t-42.5 107.5q0 71 52.5 124.5t123.5 53.5q68 0 109.5 -41t41.5 -106q0 -72 -51 -126t-121 -54zM686 1260q-70 0 -113 41.5t-43 107.5q0 71 52.5 124.5t124.5 53.5q68 0 109.5 -41t41.5 -106q0 -72 -51 -126t-121 -54z" />
    <glyph glyph-name="copyright" unicode="&#xa9;" horiz-adv-x="2039" 
d="M1057 -143q-276 0 -486.5 111.5t-326 315t-115.5 470.5t115.5 470.5t326 315t486.5 111.5t486.5 -111.5t326 -315t115.5 -470.5t-115.5 -470.5t-326 -315t-486.5 -111.5zM1057 -119q268 0 472 109t315.5 307t111.5 457t-111.5 457t-315.5 306.5t-472 108.5
q-267 0 -471 -108.5t-316 -307t-112 -456.5q0 -194 65 -356.5t182 -276t284.5 -177t367.5 -63.5zM1069 158q-264 0 -426 165t-162 433q0 266 177.5 431t467.5 165q58 0 113.5 -15.5t95.5 -31t60 -15.5q27 0 42.5 10.5t32.5 42.5h5l92 -425l-4 -3q-168 412 -441 412
q-133 0 -215 -126.5t-82 -330.5q0 -225 113.5 -363t296.5 -138q101 0 199.5 35t154.5 94l4 -2q-65 -153 -210.5 -245.5t-313.5 -92.5z" />
    <glyph glyph-name="ordfeminine" unicode="&#xaa;" horiz-adv-x="1024" 
d="M1042 918l2 -3q-34 -119 -111.5 -192.5t-170.5 -73.5q-65 0 -106.5 33t-41.5 102q0 17 4 45l46 261q-45 -171 -90.5 -266.5t-98.5 -135t-129 -39.5q-90 0 -142 79t-52 214q0 250 130 418t322 168q94 0 152 -68q163 24 278 68h4l-120 -672q-8 -43 20 -43q24 0 53.5 31
t50.5 74zM516 831q29 0 54 44t59 158.5t84 332.5l10 55v11q-6 30 -22 47.5t-37 17.5q-51 0 -98 -67.5t-76 -179t-29 -232.5q0 -187 55 -187z" />
    <glyph glyph-name="guillemotleft" unicode="&#xab;" horiz-adv-x="901" 
d="M580 1047l-258 -445l102 -444l-4 -2l-340 422l8 49l487 422zM907 1047l-258 -445l103 -444l-4 -2l-340 422l8 49l487 422z" />
    <glyph glyph-name="logicalnot" unicode="&#xac;" horiz-adv-x="970" 
d="M121 745h786l-61 -339h-25l58 319h-762z" />
    <glyph glyph-name="uni00AD" unicode="&#xad;" horiz-adv-x="960" 
d="M115 594l8 20h743l-8 -20h-743z" />
    <glyph glyph-name="registered" unicode="&#xae;" horiz-adv-x="1239" 
d="M723 1659q243 0 391 -141t148 -373t-148 -373t-391 -141t-391 141t-148 373t148 373t391 141zM723 649q233 0 374.5 136t141.5 360t-141.5 359.5t-374.5 135.5t-374.5 -135.5t-141.5 -359.5t141.5 -360t374.5 -136zM852 1151q96 -167 133.5 -213t79.5 -55v-4h-137
q-26 0 -37.5 1t-31 4.5t-31 13.5t-29.5 26.5t-36 44t-41.5 65.5t-53.5 92h-15v-141q0 -53 16.5 -73t67.5 -29v-4h-323v4q41 8 55 25t14 61v362q0 44 -14 61t-55 25v4h307q112 0 180 -37.5t68 -99.5q0 -90 -117 -133zM653 1405v-262h35q40 0 66 37t26 96t-27.5 94t-72.5 35
h-27z" />
    <glyph glyph-name="macron" unicode="&#xaf;" horiz-adv-x="1087" 
d="M147 1403l9 20h694l-8 -20h-695z" />
    <glyph glyph-name="degree" unicode="&#xb0;" horiz-adv-x="927" 
d="M588 881q-183 0 -294.5 107t-111.5 282t111.5 282t294.5 107t294 -107t111 -282t-111 -282t-294 -107zM588 905q169 0 273 100.5t104 264.5t-104 264t-273 100t-273 -100t-104 -264t104 -264.5t273 -100.5z" />
    <glyph glyph-name="plusminus" unicode="&#xb1;" horiz-adv-x="970" 
d="M532 750h381l-2 -21h-381l-59 -332h-25l60 332h-381l2 21h381l59 331h25zM43 268l4 21h787l-5 -21h-786z" />
    <glyph glyph-name="uni00B2" unicode="&#xb2;" horiz-adv-x="763" 
d="M780 967h4l-90 -312q-168 7 -446 7h-203l-2 4q79 78 164 149q57 47 93 80t85 87t74.5 109t25.5 109q0 48 -26.5 76.5t-73.5 28.5q-107 0 -197 -80l-4 2q78 133 188 213t210 80q90 0 142 -47.5t52 -124.5q0 -47 -18 -93.5t-43 -83t-68 -75t-78 -64t-88 -56.5t-82 -46
t-77 -39h182q143 0 200 15.5t76 60.5zM88 694q-6 -4 -14 -12z" />
    <glyph glyph-name="uni00B3" unicode="&#xb3;" horiz-adv-x="686" 
d="M502 1198q91 -27 144.5 -87.5t53.5 -131.5q0 -140 -156 -224t-454 -106v4q165 28 255.5 87t90.5 137q0 49 -38.5 75.5t-121.5 44.5v4l289 281h-200q-88 0 -131.5 -16t-67.5 -64l-4 2l123 328h2q85 -25 413 -25h107l2 -4z" />
    <glyph glyph-name="acute" unicode="&#xb4;" horiz-adv-x="874" 
d="M170 1233l-2 4q86 128 176 229.5t141 141.5q38 28 82 28q58 0 98 -40t40 -91q0 -35 -19.5 -67.5t-50.5 -51.5q-51 -32 -179 -76t-286 -77z" />
    <glyph glyph-name="uni00B5" unicode="&#xb5;" horiz-adv-x="1343" 
d="M707 145l-5 -24q-47 -64 -125.5 -102.5t-162.5 -38.5q-152 0 -213 98q45 -106 63.5 -175t18.5 -153q0 -79 -42 -129.5t-112 -50.5q-46 0 -75 30t-29 76q0 50 122 631l78 443q11 68 11 92q0 50 -21.5 75.5t-73.5 40.5v5q371 108 514 155h4l-94 -532l-49 -285
q-6 -37 -6 -68q0 -124 102 -124q56 0 95 36zM1087 176q0 -41 21.5 -64t75.5 -32v-4q-261 -45 -502 -96h-4l135 770q10 62 10 92q0 50 -21 75.5t-73 40.5v5q371 108 514 155h4l-151 -862q-9 -47 -9 -80z" />
    <glyph glyph-name="paragraph" unicode="&#xb6;" horiz-adv-x="1232" 
d="M1319 1507v-4q-108 -17 -152.5 -65.5t-66.5 -175.5l-295 -1672l-107 -18l336 1915h-246l-333 -1897l-109 -18l193 1083q-182 0 -287 96t-105 257q0 212 136.5 355.5t337.5 143.5h698z" />
    <glyph glyph-name="periodcentered" unicode="&#xb7;" horiz-adv-x="645" 
d="M324 369q-108 0 -175 63t-67 162t77 172.5t181 73.5q108 0 175 -63.5t67 -162.5q0 -98 -77 -171.5t-181 -73.5z" />
    <glyph glyph-name="cedilla" unicode="&#xb8;" horiz-adv-x="894" 
d="M242 -430v4q58 26 87 52t29 61q0 50 -75 125l139 188h24l-40 -53q167 -96 167 -187q0 -80 -86.5 -130.5t-244.5 -59.5z" />
    <glyph glyph-name="uni00B9" unicode="&#xb9;" horiz-adv-x="550" 
d="M444 748q0 -38 19.5 -56t64.5 -26v-4h-456v4q64 12 89.5 39.5t37.5 95.5l71 401q6 30 6 53q0 31 -13 44.5t-42 13.5q-17 0 -47 -6l-2 4q246 124 406 221h2l-129 -731q-7 -35 -7 -53z" />
    <glyph glyph-name="ordmasculine" unicode="&#xba;" horiz-adv-x="985" 
d="M508 649q-169 0 -267 93t-98 251q0 148 68.5 271t188.5 193.5t264 70.5q169 0 266.5 -93t97.5 -251q0 -147 -68.5 -270t-188 -194t-263.5 -71zM512 670q44 0 94.5 103t84.5 258.5t34 295.5q0 85 -17 133.5t-49 48.5q-45 0 -94.5 -105t-82.5 -260.5t-33 -293.5
q0 -180 63 -180z" />
    <glyph glyph-name="guillemotright" unicode="&#xbb;" horiz-adv-x="899" 
d="M512 627l-8 -49l-488 -422l-4 2l258 444l-100 445l4 2zM502 1049l338 -422l-9 -49l-487 -422l-4 2l258 444l-100 445z" />
    <glyph glyph-name="onequarter" unicode="&#xbc;" horiz-adv-x="1579" 
d="M1501 1536l12 -14l-1454 -1549l-12 15zM586 666v-4h-457v4q64 12 89.5 39.5t37.5 95.5l72 401q6 30 6 53q0 31 -13 44.5t-42 13.5q-18 0 -48 -6l-2 4q246 124 406 221h2l-129 -731q-6 -30 -6 -53q0 -38 19.5 -56t64.5 -26zM1300 221q76 0 162 6h2l-6 -24h-162l-10 -60
q-6 -37 -6 -59q0 -36 17 -54t57 -26v-4h-461v4q71 12 101.5 45.5t43.5 116.5l6 37h-317l-2 4l514 639h170zM758 221h291l81 465z" />
    <glyph glyph-name="onehalf" unicode="&#xbd;" horiz-adv-x="1568" 
d="M1489 1536l12 -14l-1454 -1549l-12 15zM573 666v-4h-456v4q64 12 89.5 39.5t37.5 95.5l71 401q7 35 7 53q0 31 -13.5 44.5t-42.5 13.5q-17 0 -47 -6l-2 4q246 124 406 221h2l-129 -731q-7 -35 -7 -53q0 -38 19.5 -56t64.5 -26zM1178 229q143 0 200 15.5t76 60.5h4
l-90 -311q-144 6 -446 6h-203l-2 4q84 84 164 150q57 47 93 80t85 87t74.5 109t25.5 109q0 48 -26.5 76t-73.5 28q-107 0 -197 -80l-4 2q79 133 188.5 213t208.5 80q91 0 143 -47.5t52 -124.5q0 -47 -18 -93.5t-43 -83t-68.5 -75t-78 -64t-88.5 -56.5t-82.5 -46t-76.5 -39
h183zM762 33q-3 -2 -14 -13z" />
    <glyph glyph-name="threequarters" unicode="&#xbe;" horiz-adv-x="1695" 
d="M1618 1536l12 -14l-1454 -1549l-12 15zM801 979q0 -140 -156.5 -224t-454.5 -106v4q165 28 256 87t91 137q0 49 -38.5 75.5t-121.5 44.5v4l289 281h-201q-88 0 -131.5 -16t-67.5 -64l-4 2l123 328h2q85 -25 414 -25h106l2 -4l-307 -305q91 -27 145 -87.5t54 -131.5z
M1413 225q77 0 162 6h2l-6 -24h-162l-10 -60q-6 -38 -6 -59q0 -37 16.5 -54.5t56.5 -25.5v-4h-460v4q71 12 101.5 45.5t43.5 116.5l6 37h-317l-2 4l514 639h170zM870 225h291l82 465z" />
    <glyph glyph-name="questiondown" unicode="&#xbf;" horiz-adv-x="890" 
d="M633 1323q108 0 174.5 -63t66.5 -162t-77.5 -172.5t-182.5 -73.5q-108 0 -173.5 63t-65.5 162t77 172.5t181 73.5zM109 41h593q5 -30 5 -51q0 -95 -65 -155t-169 -60q-116 0 -221 72.5t-166 183.5t-61 225q0 112 72.5 196t189 127t262.5 50q28 73 43 125h4
q34 -241 88 -459l-6 -4q-264 0 -431 -46.5t-167 -127.5q0 -31 29 -76z" />
    <glyph glyph-name="Agrave" unicode="&#xc0;" horiz-adv-x="1540" 
d="M741 1710q-41 20 -63.5 53t-22.5 72q0 53 37.5 92t95.5 39q34 0 66 -14q56 -26 159 -117.5t204 -220.5l-3 -4q-362 48 -473 100zM1300 215q9 -42 13.5 -61.5t12.5 -47.5t15 -39.5t18.5 -27t25.5 -21t33 -10t44 -4.5v-4h-850v4q137 16 197.5 57.5t60.5 143.5q0 35 -14 114
l-29 160h-516l-2 -4q-77 -143 -104 -211t-27 -119q0 -69 54 -100.5t176 -40.5v-4h-506v4q92 16 148.5 76.5t137.5 214.5l488 907l-25 131q148 66 336 195h43zM322 500h501l-127 702z" />
    <glyph glyph-name="Aacute" unicode="&#xc1;" horiz-adv-x="1540" 
d="M1200 1710q-111 -52 -473 -100l-2 4q101 129 203.5 220.5t158.5 117.5q32 14 66 14q58 0 95.5 -39t37.5 -92q0 -39 -22.5 -72t-63.5 -53zM1300 215q9 -42 13.5 -61.5t12.5 -47.5t15 -39.5t18.5 -27t25.5 -21t33 -10t44 -4.5v-4h-850v4q137 16 197.5 57.5t60.5 143.5
q0 35 -14 114l-29 160h-516l-2 -4q-77 -143 -104 -211t-27 -119q0 -69 54 -100.5t176 -40.5v-4h-506v4q92 16 148.5 76.5t137.5 214.5l488 907l-25 131q148 66 336 195h43zM322 500h501l-127 702z" />
    <glyph glyph-name="Acircumflex" unicode="&#xc2;" horiz-adv-x="1540" 
d="M973 1733l-328 -123l-2 4l371 352h2l248 -352l-2 -4zM1300 215q9 -42 13.5 -61.5t12.5 -47.5t15 -39.5t18.5 -27t25.5 -21t33 -10t44 -4.5v-4h-850v4q137 16 197.5 57.5t60.5 143.5q0 35 -14 114l-29 160h-516l-2 -4q-77 -143 -104 -211t-27 -119q0 -69 54 -100.5
t176 -40.5v-4h-506v4q92 16 148.5 76.5t137.5 214.5l488 907l-25 131q148 66 336 195h43zM322 500h501l-127 702z" />
    <glyph glyph-name="Atilde" unicode="&#xc3;" horiz-adv-x="1540" 
d="M717 1741q-102 0 -152 -88l-4 2q33 125 120 218t179 93q78 0 193 -51q119 -51 200 -51q100 0 156 88v-2q-35 -129 -117 -220.5t-178 -91.5q-84 0 -201 52q-115 51 -196 51zM1300 215q9 -42 13.5 -61.5t12.5 -47.5t15 -39.5t18.5 -27t25.5 -21t33 -10t44 -4.5v-4h-850v4
q137 16 197.5 57.5t60.5 143.5q0 35 -14 114l-29 160h-516l-2 -4q-77 -143 -104 -211t-27 -119q0 -69 54 -100.5t176 -40.5v-4h-506v4q92 16 148.5 76.5t137.5 214.5l488 907l-25 131q148 66 336 195h43zM322 500h501l-127 702z" />
    <glyph glyph-name="Adieresis" unicode="&#xc4;" horiz-adv-x="1540" 
d="M791 1618q-70 0 -113 41.5t-43 107.5q0 71 52.5 125t123.5 54q68 0 110 -41.5t42 -106.5q0 -72 -51 -126t-121 -54zM1159 1618q-70 0 -112.5 41.5t-42.5 107.5q0 71 52.5 125t123.5 54q68 0 109.5 -41.5t41.5 -106.5q0 -72 -51 -126t-121 -54zM1300 215q9 -42 13.5 -61.5
t12.5 -47.5t15 -39.5t18.5 -27t25.5 -21t33 -10t44 -4.5v-4h-850v4q137 16 197.5 57.5t60.5 143.5q0 35 -14 114l-29 160h-516l-2 -4q-77 -143 -104 -211t-27 -119q0 -69 54 -100.5t176 -40.5v-4h-506v4q92 16 148.5 76.5t137.5 214.5l488 907l-25 131q148 66 336 195h43z
M322 500h501l-127 702z" />
    <glyph glyph-name="Aring" unicode="&#xc5;" horiz-adv-x="1540" 
d="M967 1577q-105 0 -166.5 55t-61.5 146q0 105 77 177.5t188 72.5q105 0 166 -57t61 -152q0 -102 -76.5 -172t-187.5 -70zM999 2003q-97 0 -164 -64.5t-67 -156.5q0 -82 55 -131t148 -49q97 0 164 62t67 151q0 85 -55 136.5t-148 51.5zM1300 215q9 -42 13.5 -61.5
t12.5 -47.5t15 -39.5t18.5 -27t25.5 -21t33 -10t44 -4.5v-4h-850v4q137 16 197.5 57.5t60.5 143.5q0 35 -14 114l-29 160h-516l-2 -4q-77 -143 -104 -211t-27 -119q0 -69 54 -100.5t176 -40.5v-4h-506v4q92 16 148.5 76.5t137.5 214.5l488 907l-25 131q148 66 336 195h43z
M322 500h501l-127 702z" />
    <glyph glyph-name="AE" unicode="&#xc6;" horiz-adv-x="2172" 
d="M2148 578l4 -3l-278 -585q-176 10 -498 10h-733v4q109 17 153.5 65.5t67.5 176.5l90 512h-473l-170 -307q-77 -140 -106 -207t-29 -113q0 -64 58.5 -91.5t187.5 -35.5v-4h-524v4q94 18 155 74t150 217l669 1212h742q279 0 465 11l55 -566l-4 -2q-11 89 -27 159
t-40.5 124.5t-52 94.5t-68 68t-82.5 45.5t-101 28t-118.5 14t-139.5 3.5h-31l-124 -709h55q76 0 125.5 13.5t97.5 55t88 118t86 202.5h4q-93 -472 -145 -819h-4v14q0 105 -10 176t-28 114.5t-51.5 67t-71 31t-95.5 7.5h-54l-98 -553q-12 -61 -12 -99q0 -50 22.5 -68
t77.5 -18h13q123 0 206.5 11.5t166.5 44.5t150 95.5t135.5 161t143.5 245.5zM492 778h466l86 484q9 50 9 81q0 69 -37 101.5t-129 46.5z" />
    <glyph glyph-name="Ccedilla" unicode="&#xc7;" horiz-adv-x="1396" 
d="M981 1503q-92 0 -180 -65.5t-153.5 -172.5t-105.5 -252t-40 -296q0 -219 102 -346t281 -127q121 0 246 46.5t202 127.5l4 -2q-109 -198 -298.5 -317t-387.5 -119h-2l-24 -33q75 -43 121.5 -88t46.5 -99q0 -80 -87 -130.5t-245 -59.5v4q58 26 87.5 52t29.5 61
q0 49 -76 125l125 168q-251 7 -395 165.5t-144 423.5q0 200 69.5 378t189.5 305.5t287.5 201.5t356.5 74q66 0 125 -19t102.5 -38t71.5 -19q32 0 53 13t46 53h4l10 -551l-6 -2q-26 151 -69 258t-98.5 167t-116 86.5t-132.5 26.5z" />
    <glyph glyph-name="Egrave" unicode="&#xc8;" horiz-adv-x="1480" 
d="M690 1710q-41 20 -63.5 53t-22.5 72q0 53 37.5 92t95.5 39q34 0 66 -14q56 -26 158.5 -117.5t203.5 -220.5l-2 -4q-362 48 -473 100zM1456 578l4 -3l-278 -585q-176 10 -498 10h-733v4q109 17 153 66t66 176l180 1016q10 68 10 102q0 66 -31.5 96.5t-111.5 42.5v4h703
q278 0 464 11l58 -566l-4 -2q-14 118 -37 202.5t-61.5 145t-84 97t-116 57.5t-146.5 28t-186 7h-31l-125 -709h58q58 0 97.5 7t81.5 29t75.5 64.5t69.5 113.5t73 175h4q-93 -472 -145 -819h-4v14q0 128 -13 206t-46 120.5t-77.5 56t-119.5 13.5h-56l-98 -553
q-10 -65 -10 -96q0 -50 22.5 -69.5t75.5 -19.5h14q122 0 205.5 11.5t167 44.5t150.5 95.5t136 161t144 245.5z" />
    <glyph glyph-name="Eacute" unicode="&#xc9;" horiz-adv-x="1480" 
d="M1149 1710q-111 -52 -473 -100l-2 4q101 129 203.5 220.5t158.5 117.5q32 14 66 14q58 0 95.5 -39t37.5 -92q0 -39 -22.5 -72t-63.5 -53zM1456 578l4 -3l-278 -585q-176 10 -498 10h-733v4q109 17 153 66t66 176l180 1016q10 68 10 102q0 66 -31.5 96.5t-111.5 42.5v4
h703q278 0 464 11l58 -566l-4 -2q-14 118 -37 202.5t-61.5 145t-84 97t-116 57.5t-146.5 28t-186 7h-31l-125 -709h58q58 0 97.5 7t81.5 29t75.5 64.5t69.5 113.5t73 175h4q-93 -472 -145 -819h-4v14q0 128 -13 206t-46 120.5t-77.5 56t-119.5 13.5h-56l-98 -553
q-10 -65 -10 -96q0 -50 22.5 -69.5t75.5 -19.5h14q122 0 205.5 11.5t167 44.5t150.5 95.5t136 161t144 245.5z" />
    <glyph glyph-name="Ecircumflex" unicode="&#xca;" horiz-adv-x="1480" 
d="M922 1733l-328 -123l-2 4l371 352h2l247 -352l-2 -4zM1456 578l4 -3l-278 -585q-176 10 -498 10h-733v4q109 17 153 66t66 176l180 1016q10 68 10 102q0 66 -31.5 96.5t-111.5 42.5v4h703q278 0 464 11l58 -566l-4 -2q-14 118 -37 202.5t-61.5 145t-84 97t-116 57.5
t-146.5 28t-186 7h-31l-125 -709h58q58 0 97.5 7t81.5 29t75.5 64.5t69.5 113.5t73 175h4q-93 -472 -145 -819h-4v14q0 128 -13 206t-46 120.5t-77.5 56t-119.5 13.5h-56l-98 -553q-10 -65 -10 -96q0 -50 22.5 -69.5t75.5 -19.5h14q122 0 205.5 11.5t167 44.5t150.5 95.5
t136 161t144 245.5z" />
    <glyph glyph-name="Edieresis" unicode="&#xcb;" horiz-adv-x="1480" 
d="M739 1618q-70 0 -112.5 41.5t-42.5 107.5q0 71 52.5 125t123.5 54q68 0 109.5 -41.5t41.5 -106.5q0 -72 -51 -126t-121 -54zM1108 1618q-70 0 -113 41.5t-43 107.5q0 71 52.5 125t123.5 54q68 0 110 -41.5t42 -106.5q0 -72 -51 -126t-121 -54zM1456 578l4 -3l-278 -585
q-176 10 -498 10h-733v4q109 17 153 66t66 176l180 1016q10 68 10 102q0 66 -31.5 96.5t-111.5 42.5v4h703q278 0 464 11l58 -566l-4 -2q-14 118 -37 202.5t-61.5 145t-84 97t-116 57.5t-146.5 28t-186 7h-31l-125 -709h58q58 0 97.5 7t81.5 29t75.5 64.5t69.5 113.5t73 175
h4q-93 -472 -145 -819h-4v14q0 128 -13 206t-46 120.5t-77.5 56t-119.5 13.5h-56l-98 -553q-10 -65 -10 -96q0 -50 22.5 -69.5t75.5 -19.5h14q122 0 205.5 11.5t167 44.5t150.5 95.5t136 161t144 245.5z" />
    <glyph glyph-name="Igrave" unicode="&#xcc;" horiz-adv-x="835" 
d="M395 1710q-41 20 -63.5 53t-22.5 72q0 53 37.5 92t95.5 39q34 0 66 -14q56 -26 158.5 -117.5t203.5 -220.5l-2 -4q-362 48 -473 100zM217 1507h739v-4q-109 -17 -153 -65.5t-66 -175.5l-180 -1016q-10 -65 -10 -101q0 -67 32 -98t111 -43v-4h-739v4q109 17 153 66t66 176
l180 1016q10 68 10 102q0 66 -31.5 96.5t-111.5 42.5v4z" />
    <glyph glyph-name="Iacute" unicode="&#xcd;" horiz-adv-x="835" 
d="M854 1710q-111 -52 -473 -100l-2 4q101 129 203.5 220.5t158.5 117.5q32 14 66 14q58 0 95.5 -39t37.5 -92q0 -39 -22.5 -72t-63.5 -53zM217 1507h739v-4q-109 -17 -153 -65.5t-66 -175.5l-180 -1016q-10 -65 -10 -101q0 -67 32 -98t111 -43v-4h-739v4q109 17 153 66
t66 176l180 1016q10 68 10 102q0 66 -31.5 96.5t-111.5 42.5v4z" />
    <glyph glyph-name="Icircumflex" unicode="&#xce;" horiz-adv-x="835" 
d="M627 1733l-328 -123l-2 4l371 352h2l248 -352l-3 -4zM217 1507h739v-4q-109 -17 -153 -65.5t-66 -175.5l-180 -1016q-10 -65 -10 -101q0 -67 32 -98t111 -43v-4h-739v4q109 17 153 66t66 176l180 1016q10 68 10 102q0 66 -31.5 96.5t-111.5 42.5v4z" />
    <glyph glyph-name="Idieresis" unicode="&#xcf;" horiz-adv-x="835" 
d="M444 1618q-70 0 -112.5 41.5t-42.5 107.5q0 71 52.5 125t123.5 54q68 0 109.5 -41.5t41.5 -106.5q0 -72 -51 -126t-121 -54zM813 1618q-70 0 -113 41.5t-43 107.5q0 71 53 125t124 54q68 0 109.5 -41.5t41.5 -106.5q0 -72 -51 -126t-121 -54zM217 1503v4h739v-4
q-109 -17 -153 -65.5t-66 -175.5l-180 -1016q-10 -65 -10 -101q0 -67 32 -98t111 -43v-4h-739v4q109 17 153 66t66 176l180 1016q10 68 10 102q0 66 -31.5 96.5t-111.5 42.5z" />
    <glyph glyph-name="Eth" unicode="&#xd0;" horiz-adv-x="1630" 
d="M967 1507q301 0 474 -160.5t173 -433.5q0 -190 -71 -359.5t-192 -291t-291 -192t-360 -70.5h-747v4q109 17 153 66t66 176l92 514h-158l9 20h151l86 482q10 68 10 102q0 66 -32.5 96.5t-112.5 42.5l2 4h748zM631 20q148 0 280 140t211.5 374.5t79.5 497.5
q0 216 -75.5 335.5t-219.5 119.5h-129l-125 -707h287l-8 -20h-281l-98 -555q-12 -65 -12 -101q0 -48 20 -66t66 -18h4z" />
    <glyph glyph-name="Ntilde" unicode="&#xd1;" horiz-adv-x="1544" 
d="M733 1741q-101 0 -151 -88l-4 2q33 125 120 218t179 93q77 0 192 -51q119 -51 201 -51q99 0 155 88v-2q-35 -129 -117 -220.5t-178 -91.5q-83 0 -200 52q-115 51 -197 51zM1188 1507h493v-4q-109 -15 -153 -64t-66 -177l-227 -1282h-4l-873 1208l-157 -901
q-11 -71 -11 -103q0 -91 56 -129.5t198 -50.5v-4h-493v4q109 17 153 66t66 176l180 1016q10 68 10 102q0 66 -31.5 96.5t-111.5 42.5v4h428l674 -932l113 646q10 65 10 100q0 91 -56 130.5t-198 51.5v4z" />
    <glyph glyph-name="Ograve" unicode="&#xd2;" horiz-adv-x="1622" 
d="M1264 1610q-362 48 -473 100q-41 20 -63.5 53t-22.5 72q0 53 37.5 92t95.5 39q33 0 65 -14q56 -26 159 -117.5t204 -220.5zM713 -20q-290 0 -456.5 162.5t-166.5 439.5q0 196 70 371.5t189 301.5t285 199.5t351 73.5q290 0 456.5 -162.5t166.5 -439.5
q0 -196 -69.5 -371.5t-188.5 -301.5t-285 -199.5t-352 -73.5zM717 4q88 0 176.5 94t155.5 243.5t109 346.5t42 391q0 199 -57 311.5t-162 112.5q-116 0 -228.5 -157t-182.5 -407.5t-70 -508.5q0 -200 57 -313t160 -113z" />
    <glyph glyph-name="Oacute" unicode="&#xd3;" horiz-adv-x="1622" 
d="M776 1610l-2 4q101 129 204 220.5t159 117.5q32 14 65 14q58 0 95.5 -39t37.5 -92q0 -39 -22.5 -72t-63.5 -53q-111 -52 -473 -100zM713 -20q-290 0 -456.5 162.5t-166.5 439.5q0 196 70 371.5t189 301.5t285 199.5t351 73.5q290 0 456.5 -162.5t166.5 -439.5
q0 -196 -69.5 -371.5t-188.5 -301.5t-285 -199.5t-352 -73.5zM717 4q88 0 176.5 94t155.5 243.5t109 346.5t42 391q0 199 -57 311.5t-162 112.5q-116 0 -228.5 -157t-182.5 -407.5t-70 -508.5q0 -200 57 -313t160 -113z" />
    <glyph glyph-name="Ocircumflex" unicode="&#xd4;" horiz-adv-x="1622" 
d="M1022 1733l-328 -123l-2 4l371 352h2l248 -352l-2 -4zM985 1528q290 0 456.5 -162.5t166.5 -439.5q0 -196 -69.5 -371.5t-188.5 -301.5t-285 -199.5t-352 -73.5q-290 0 -456.5 162.5t-166.5 439.5q0 196 70 371.5t189 301.5t285 199.5t351 73.5zM717 4q88 0 176.5 94
t155.5 243.5t109 346.5t42 391q0 199 -57 311.5t-162 112.5q-116 0 -228.5 -157t-182.5 -407.5t-70 -508.5q0 -200 57 -313t160 -113z" />
    <glyph glyph-name="Otilde" unicode="&#xd5;" horiz-adv-x="1622" 
d="M1163 1638q-83 0 -200 52q-115 51 -197 51q-102 0 -152 -88l-4 2q33 125 120 218t179 93q78 0 193 -51q119 -51 201 -51q99 0 155 88v-2q-35 -129 -117 -220.5t-178 -91.5zM713 -20q-290 0 -456.5 162.5t-166.5 439.5q0 196 70 371.5t189 301.5t285 199.5t351 73.5
q290 0 456.5 -162.5t166.5 -439.5q0 -196 -69.5 -371.5t-188.5 -301.5t-285 -199.5t-352 -73.5zM717 4q88 0 176.5 94t155.5 243.5t109 346.5t42 391q0 199 -57 311.5t-162 112.5q-116 0 -228.5 -157t-182.5 -407.5t-70 -508.5q0 -200 57 -313t160 -113z" />
    <glyph glyph-name="Odieresis" unicode="&#xd6;" horiz-adv-x="1622" 
d="M840 1618q-70 0 -113 41.5t-43 107.5q0 71 52.5 125t123.5 54q68 0 110 -41.5t42 -106.5q0 -72 -51 -126t-121 -54zM1208 1618q-70 0 -112.5 41.5t-42.5 107.5q0 71 52.5 125t123.5 54q68 0 109.5 -41.5t41.5 -106.5q0 -72 -51 -126t-121 -54zM713 -20
q-290 0 -456.5 162.5t-166.5 439.5q0 196 70 371.5t189 301.5t285 199.5t351 73.5q290 0 456.5 -162.5t166.5 -439.5q0 -196 -69.5 -371.5t-188.5 -301.5t-285 -199.5t-352 -73.5zM717 4q88 0 176.5 94t155.5 243.5t109 346.5t42 391q0 199 -57 311.5t-162 112.5
q-116 0 -228.5 -157t-182.5 -407.5t-70 -508.5q0 -200 57 -313t160 -113z" />
    <glyph glyph-name="multiply" unicode="&#xd7;" horiz-adv-x="970" 
d="M856 901l-338 -287l244 -295l-21 -18l-243 295l-359 -303l-12 18l356 303l-243 295l20 19l244 -295l338 287z" />
    <glyph glyph-name="Oslash" unicode="&#xd8;" horiz-adv-x="1626" 
d="M1618 1485l-145 -154q135 -156 135 -405q0 -196 -69.5 -371.5t-188.5 -301.5t-285 -199.5t-352 -73.5q-275 0 -441 147l-178 -190l-16 18l178 188q-166 158 -166 439q0 196 70 371.5t189 301.5t285 199.5t351 73.5q307 0 471 -178l143 153zM981 1503q-116 0 -228.5 -157
t-182.5 -407.5t-70 -508.5q0 -41 2 -59l698 743q-5 183 -62 286t-157 103zM717 4q88 0 176 94t155 243t109 345t43 389l-696 -737q12 -159 67 -246.5t146 -87.5z" />
    <glyph glyph-name="Ugrave" unicode="&#xd9;" horiz-adv-x="1521" 
d="M872 1710q-41 20 -63.5 53t-22.5 72q0 53 38 92t96 39q33 0 65 -14q56 -26 159 -117.5t204 -220.5l-2 -4q-164 22 -294 49.5t-180 50.5zM1174 1507h493v-4q-110 -19 -154 -66.5t-67 -174.5l-141 -801q-38 -217 -181.5 -349t-341.5 -132q-308 0 -456 98.5t-148 298.5
q0 47 15 135l131 750q12 62 12 104q0 65 -33 95t-113 42v4h779v-4q-132 -19 -183.5 -66.5t-74.5 -174.5l-144 -811q-12 -71 -12 -132q0 -148 62.5 -231.5t177.5 -83.5q182 0 317 126t170 331l133 760q10 65 10 100q0 93 -54.5 131.5t-196.5 50.5v4z" />
    <glyph glyph-name="Uacute" unicode="&#xda;" horiz-adv-x="1521" 
d="M1331 1710q-111 -52 -473 -100l-2 4q101 129 204 220.5t159 117.5q32 14 65 14q58 0 95.5 -39t37.5 -92q0 -39 -22.5 -72t-63.5 -53zM1174 1507h493v-4q-110 -19 -154 -66.5t-67 -174.5l-141 -801q-38 -217 -181.5 -349t-341.5 -132q-308 0 -456 98.5t-148 298.5
q0 47 15 135l131 750q12 62 12 104q0 65 -33 95t-113 42v4h779v-4q-132 -19 -183.5 -66.5t-74.5 -174.5l-144 -811q-12 -71 -12 -132q0 -148 62.5 -231.5t177.5 -83.5q182 0 317 126t170 331l133 760q10 65 10 100q0 93 -54.5 131.5t-196.5 50.5v4z" />
    <glyph glyph-name="Ucircumflex" unicode="&#xdb;" horiz-adv-x="1521" 
d="M1104 1733l-328 -123l-2 4l371 352h2l248 -352l-2 -4zM1174 1507h493v-4q-110 -19 -154 -66.5t-67 -174.5l-141 -801q-38 -217 -181.5 -349t-341.5 -132q-308 0 -456 98.5t-148 298.5q0 47 15 135l131 750q12 62 12 104q0 65 -33 95t-113 42v4h779v-4
q-132 -19 -183.5 -66.5t-74.5 -174.5l-144 -811q-12 -71 -12 -132q0 -148 62.5 -231.5t177.5 -83.5q182 0 317 126t170 331l133 760q10 65 10 100q0 93 -54.5 131.5t-196.5 50.5v4z" />
    <glyph glyph-name="Udieresis" unicode="&#xdc;" horiz-adv-x="1521" 
d="M922 1618q-70 0 -113 41.5t-43 107.5q0 71 52.5 125t123.5 54q68 0 110 -41.5t42 -106.5q0 -72 -51 -126t-121 -54zM1290 1618q-70 0 -112.5 41.5t-42.5 107.5q0 71 52.5 125t123.5 54q68 0 109.5 -41.5t41.5 -106.5q0 -72 -51 -126t-121 -54zM1174 1507h493v-4
q-110 -19 -154 -66.5t-67 -174.5l-141 -801q-38 -217 -181.5 -349t-341.5 -132q-308 0 -456 98.5t-148 298.5q0 47 15 135l131 750q12 62 12 104q0 65 -33 95t-113 42v4h779v-4q-132 -19 -183.5 -66.5t-74.5 -174.5l-144 -811q-12 -71 -12 -132q0 -148 62.5 -231.5
t177.5 -83.5q182 0 317 126t170 331l133 760q10 65 10 100q0 93 -54.5 131.5t-196.5 50.5v4z" />
    <glyph glyph-name="Yacute" unicode="&#xdd;" horiz-adv-x="1492" 
d="M1315 1710q-111 -52 -473 -100l-2 4q101 129 203.5 220.5t158.5 117.5q32 14 66 14q58 0 95.5 -39t37.5 -92q0 -39 -22.5 -72t-63.5 -53zM1104 1507h586v-4q-113 -15 -208.5 -99t-236.5 -296l-287 -428l-75 -434q-11 -72 -11 -99q0 -69 36.5 -100t127.5 -43v-4h-778v4
q122 19 168.5 66.5t69.5 175.5l77 442l-172 524q-18 54 -27 80.5t-24.5 66t-28.5 59t-31.5 41t-39.5 31.5t-47 13v4h811v-4q-91 -8 -144 -53t-53 -121q0 -35 35 -168l119 -420l190 283q101 150 135.5 219.5t34.5 122.5q0 67 -55.5 99t-171.5 38v4z" />
    <glyph glyph-name="Thorn" unicode="&#xde;" horiz-adv-x="1454" 
d="M578 358l-13 -71q-12 -71 -12 -119q0 -78 39 -113.5t135 -50.5v-4h-776v4q109 17 153 66t66 176l180 1016q10 68 10 102q0 66 -31.5 96.5t-111.5 42.5v4h739v-4q-109 -17 -153 -65.5t-66 -175.5l-8 -52h197q244 0 386 -95t142 -255q0 -145 -98 -259.5t-273 -178.5
t-395 -64h-110zM829 1190h-104l-143 -811h92q96 0 179.5 74.5t133 199t49.5 265.5q0 127 -54.5 199.5t-152.5 72.5z" />
    <glyph glyph-name="germandbls" unicode="&#xdf;" horiz-adv-x="1257" 
d="M-156 -430l-2 4q86 81 119.5 167t65.5 273l180 1018q51 285 235.5 456t434.5 171q187 0 298 -66.5t111 -179.5q0 -37 -11.5 -70.5t-27.5 -58.5t-45.5 -50t-50.5 -40t-59.5 -34t-56 -26.5t-54.5 -23.5q-34 -14 -56 -24t-49 -25t-42 -28t-26 -30.5t-11 -35.5q0 -35 33 -76
t110 -113q46 -44 61.5 -59t56 -57t58 -68.5t41.5 -66.5t33.5 -78.5t9.5 -79.5q0 -158 -118 -273.5t-281 -115.5q-85 0 -149.5 44.5t-86.5 129.5l6 4q28 -36 72.5 -57t85.5 -21q57 0 91 36.5t34 96.5q0 29 -13 60.5t-27.5 52.5t-43.5 59q-56 74 -87.5 140.5t-31.5 146.5
q0 46 14.5 96t30.5 82.5t43 80.5t37 68l2 3q19 27 37.5 59.5t54.5 103t58 156t22 166.5q0 69 -20.5 108t-57.5 39q-86 0 -163.5 -147t-120.5 -389l-164 -922q-43 -242 -202.5 -409.5t-377.5 -196.5z" />
    <glyph glyph-name="agrave" unicode="&#xe0;" horiz-adv-x="1243" 
d="M887 1151q-134 85 -240 171t-145 134q-33 39 -33 92q0 52 40 90.5t93 38.5q73 0 117 -63q33 -48 82.5 -176t89.5 -283zM1188 328l4 -2q-44 -156 -143.5 -251t-219.5 -95q-83 0 -134.5 41.5t-51.5 128.5q0 22 6 57l66 377q-63 -236 -125 -367t-132.5 -184t-170.5 -53
q-117 0 -183.5 101t-66.5 275q0 213 77 388t211.5 274.5t299.5 99.5q60 0 112.5 -23.5t87.5 -62.5q183 25 351 86h4l-156 -876q-2 -12 -2 -23q0 -35 29 -35q32 0 69.5 40.5t67.5 103.5zM500 207q40 0 76.5 61t83.5 214.5t116 441.5l10 57q-9 49 -33 73.5t-55 24.5
q-70 0 -133.5 -88.5t-102 -234t-38.5 -305.5q0 -244 76 -244z" />
    <glyph glyph-name="aacute" unicode="&#xe1;" horiz-adv-x="1243" 
d="M1069 1386q-51 -32 -179 -76t-286 -77l-2 4q86 128 176 229t142 142q38 28 81 28q58 0 98 -40t40 -91q0 -35 -19.5 -67.5t-50.5 -51.5zM1188 328l4 -2q-44 -156 -143.5 -251t-219.5 -95q-83 0 -134.5 41.5t-51.5 128.5q0 22 6 57l66 377q-63 -236 -125 -367t-132.5 -184
t-170.5 -53q-117 0 -183.5 101t-66.5 275q0 213 77 388t211.5 274.5t299.5 99.5q60 0 112.5 -23.5t87.5 -62.5q183 25 351 86h4l-156 -876q-2 -12 -2 -23q0 -35 29 -35q32 0 69.5 40.5t67.5 103.5zM500 207q40 0 76.5 61t83.5 214.5t116 441.5l10 57q-9 49 -33 73.5
t-55 24.5q-70 0 -133.5 -88.5t-102 -234t-38.5 -305.5q0 -244 76 -244z" />
    <glyph glyph-name="acircumflex" unicode="&#xe2;" horiz-adv-x="1243" 
d="M846 1393l-357 -191l-4 4l408 453h2l248 -453l-4 -4zM1188 328l4 -2q-44 -156 -143.5 -251t-219.5 -95q-83 0 -134.5 41.5t-51.5 128.5q0 22 6 57l66 377q-63 -236 -125 -367t-132.5 -184t-170.5 -53q-117 0 -183.5 101t-66.5 275q0 213 77 388t211.5 274.5t299.5 99.5
q60 0 112.5 -23.5t87.5 -62.5q183 25 351 86h4l-156 -876q-2 -12 -2 -23q0 -35 29 -35q32 0 69.5 40.5t67.5 103.5zM500 207q40 0 76.5 61t83.5 214.5t116 441.5l10 57q-9 49 -33 73.5t-55 24.5q-70 0 -133.5 -88.5t-102 -234t-38.5 -305.5q0 -244 76 -244z" />
    <glyph glyph-name="atilde" unicode="&#xe3;" horiz-adv-x="1243" 
d="M596 1368q-102 0 -152 -88l-4 2q34 128 117 219.5t182 91.5q73 0 181 -51t188 -51q101 0 154 88l2 -2q-35 -129 -117.5 -220t-179.5 -91q-76 0 -187 51t-184 51zM1051 184q32 0 69.5 40.5t67.5 103.5l4 -2q-44 -156 -143.5 -251t-219.5 -95q-83 0 -134.5 41.5
t-51.5 128.5q0 22 6 57l66 377q-63 -236 -125 -367t-132.5 -184t-170.5 -53q-117 0 -183.5 101t-66.5 275q0 213 77 388t211.5 274.5t299.5 99.5q60 0 112.5 -23.5t87.5 -62.5q183 25 351 86h4l-156 -876q-2 -12 -2 -23q0 -35 29 -35zM500 207q40 0 76.5 61t83.5 214.5
t116 441.5l10 57q-9 49 -33 73.5t-55 24.5q-70 0 -133.5 -88.5t-102 -234t-38.5 -305.5q0 -244 76 -244z" />
    <glyph glyph-name="adieresis" unicode="&#xe4;" horiz-adv-x="1243" 
d="M659 1260q-70 0 -112.5 41.5t-42.5 107.5q0 71 52.5 124.5t123.5 53.5q68 0 109.5 -41t41.5 -106q0 -72 -51 -126t-121 -54zM1028 1260q-70 0 -113 41.5t-43 107.5q0 71 52.5 124.5t124.5 53.5q68 0 109.5 -41t41.5 -106q0 -72 -51 -126t-121 -54zM1051 184
q32 0 69.5 40.5t67.5 103.5l4 -2q-44 -156 -143.5 -251t-219.5 -95q-83 0 -134.5 41.5t-51.5 128.5q0 22 6 57l66 377q-63 -236 -125 -367t-132.5 -184t-170.5 -53q-117 0 -183.5 101t-66.5 275q0 213 77 388t211.5 274.5t299.5 99.5q60 0 112.5 -23.5t87.5 -62.5
q183 25 351 86h4l-156 -876q-2 -12 -2 -23q0 -35 29 -35zM500 207q40 0 76.5 61t83.5 214.5t116 441.5l10 57q-9 49 -33 73.5t-55 24.5q-70 0 -133.5 -88.5t-102 -234t-38.5 -305.5q0 -244 76 -244z" />
    <glyph glyph-name="aring" unicode="&#xe5;" horiz-adv-x="1243" 
d="M836 1208q-105 0 -166.5 55t-61.5 146q0 105 76.5 177.5t187.5 72.5q105 0 166.5 -57t61.5 -152q0 -102 -76.5 -172t-187.5 -70zM868 1634q-97 0 -164 -64.5t-67 -156.5q0 -82 55 -131t148 -49q97 0 164 62t67 151q0 85 -55 136.5t-148 51.5zM1188 328l4 -2
q-44 -156 -143.5 -251t-219.5 -95q-83 0 -134.5 41.5t-51.5 128.5q0 22 6 57l66 377q-63 -236 -125 -367t-132.5 -184t-170.5 -53q-117 0 -183.5 101t-66.5 275q0 213 77 388t211.5 274.5t299.5 99.5q60 0 112.5 -23.5t87.5 -62.5q183 25 351 86h4l-156 -876q-2 -12 -2 -23
q0 -35 29 -35q32 0 69.5 40.5t67.5 103.5zM500 207q40 0 76.5 61t83.5 214.5t116 441.5l10 57q-9 49 -33 73.5t-55 24.5q-70 0 -133.5 -88.5t-102 -234t-38.5 -305.5q0 -244 76 -244z" />
    <glyph glyph-name="ae" unicode="&#xe6;" horiz-adv-x="1708" 
d="M1362 205q70 0 148.5 30t138.5 80l4 -2q-85 -151 -233 -242t-308 -91q-202 0 -318 118t-116 320v35q-55 -183 -113 -286.5t-123 -145t-155 -41.5q-117 0 -183.5 101t-66.5 275q0 213 77 388t211.5 274.5t299.5 99.5q88 0 157.5 -48.5t110.5 -129.5q188 178 446 178
q169 0 266 -59.5t97 -161.5q0 -69 -57 -129t-153 -102.5t-202.5 -72t-224.5 -48.5v-10q0 -152 79 -241t218 -89zM1333 1094q-62 0 -123 -78t-100.5 -201t-44.5 -250q155 80 243.5 197t88.5 256q0 34 -17.5 55t-46.5 21zM500 207q40 0 76.5 61.5t87.5 228.5t124 476
q-9 52 -33.5 79t-56.5 27q-70 0 -133.5 -88.5t-102 -234t-38.5 -305.5q0 -244 76 -244z" />
    <glyph glyph-name="ccedilla" unicode="&#xe7;" horiz-adv-x="1071" 
d="M717 205q73 0 150 29t124 81l4 -2q-82 -151 -225 -242t-297 -91l-24 -33q167 -96 167 -187q0 -80 -86.5 -130.5t-244.5 -59.5v4q58 26 87 52t29 61q0 50 -75 125l125 168q-193 7 -302.5 124.5t-109.5 313.5t88 356.5t241.5 252t340.5 91.5q164 0 260 -79.5t96 -213.5
q0 -126 -67.5 -192t-163.5 -66q-64 0 -101 25v502q-78 -4 -149.5 -81t-114.5 -201.5t-43 -258.5q0 -159 77.5 -253.5t213.5 -94.5z" />
    <glyph glyph-name="egrave" unicode="&#xe8;" horiz-adv-x="1062" 
d="M858 1151q-134 85 -240 171t-145 134q-33 39 -33 92q0 52 40 90.5t93 38.5q73 0 117 -63q33 -48 82.5 -176t89.5 -283zM723 205q71 0 150 30.5t137 79.5l4 -2q-85 -151 -233 -242t-308 -91q-202 0 -318 118t-116 320q0 146 50.5 276t137 223t207.5 147t256 54
q165 0 258.5 -57t93.5 -154q0 -71 -55 -132.5t-148.5 -105.5t-195.5 -74t-217 -50v-10q0 -152 79 -241t218 -89zM686 1094q-60 0 -119 -78t-97.5 -201t-43.5 -250q146 83 228.5 198t82.5 255q0 34 -14 55t-37 21z" />
    <glyph glyph-name="eacute" unicode="&#xe9;" horiz-adv-x="1062" 
d="M958 1386q-51 -32 -178.5 -76t-285.5 -77l-2 4q86 128 176 229.5t141 141.5q38 28 82 28q58 0 97.5 -40t39.5 -91q0 -35 -19.5 -67.5t-50.5 -51.5zM723 205q71 0 150 30.5t137 79.5l4 -2q-85 -151 -233 -242t-308 -91q-202 0 -318 118t-116 320q0 146 50.5 276t137 223
t207.5 147t256 54q165 0 258.5 -57t93.5 -154q0 -71 -55 -132.5t-148.5 -105.5t-195.5 -74t-217 -50v-10q0 -152 79 -241t218 -89zM686 1094q-60 0 -119 -78t-97.5 -201t-43.5 -250q146 83 228.5 198t82.5 255q0 34 -14 55t-37 21z" />
    <glyph glyph-name="ecircumflex" unicode="&#xea;" horiz-adv-x="1062" 
d="M735 1393l-356 -191l-4 4l407 453h2l248 -453l-4 -4zM723 205q71 0 150 30.5t137 79.5l4 -2q-85 -151 -233 -242t-308 -91q-202 0 -318 118t-116 320q0 146 50.5 276t137 223t207.5 147t256 54q165 0 258.5 -57t93.5 -154q0 -71 -55 -132.5t-148.5 -105.5t-195.5 -74
t-217 -50v-10q0 -152 79 -241t218 -89zM686 1094q-60 0 -119 -78t-97.5 -201t-43.5 -250q146 83 228.5 198t82.5 255q0 34 -14 55t-37 21z" />
    <glyph glyph-name="edieresis" unicode="&#xeb;" horiz-adv-x="1062" 
d="M549 1260q-70 0 -113 41.5t-43 107.5q0 71 52.5 124.5t123.5 53.5q68 0 110 -41t42 -106q0 -72 -51 -126t-121 -54zM918 1260q-70 0 -113 41.5t-43 107.5q0 71 52.5 124.5t123.5 53.5q68 0 110 -41t42 -106q0 -72 -51 -126t-121 -54zM1042 907q0 -71 -55 -132.5
t-148.5 -105.5t-195.5 -74t-217 -50v-10q0 -152 79 -241t218 -89q71 0 150 30.5t137 79.5l4 -2q-85 -151 -233 -242t-308 -91q-202 0 -318 118t-116 320q0 146 50.5 276t137 223t207.5 147t256 54q165 0 258.5 -57t93.5 -154zM686 1094q-60 0 -119 -78t-97.5 -201
t-43.5 -250q146 83 228.5 198t82.5 255q0 34 -14 55t-37 21z" />
    <glyph glyph-name="igrave" unicode="&#xec;" horiz-adv-x="698" 
d="M643 1151q-134 85 -240 171t-145 134q-33 39 -33 92q0 52 40 90.5t93 38.5q73 0 117 -63q33 -48 82.5 -176t89.5 -283zM645 328l4 -2q-44 -156 -143 -251t-219 -95q-83 0 -135 41.5t-52 128.5q0 22 6 57l115 649q2 12 2 23q0 34 -28 34q-32 0 -70 -40t-68 -103l-4 2
q44 156 143.5 251t219.5 95q83 0 134.5 -41.5t51.5 -128.5q0 -22 -6 -57l-115 -649q-2 -12 -2 -23q0 -35 29 -35q32 0 69.5 40.5t67.5 103.5z" />
    <glyph glyph-name="iacute" unicode="&#xed;" horiz-adv-x="698" 
d="M655 1636q58 0 98 -40t40 -91q0 -35 -19.5 -67.5t-50.5 -51.5q-51 -32 -179 -76t-286 -77l-2 4q86 128 176 229.5t141 141.5q38 28 82 28zM508 184q32 0 69.5 40.5t67.5 103.5l4 -2q-44 -156 -143 -251t-219 -95q-83 0 -135 41.5t-52 128.5q0 22 6 57l115 649q2 12 2 23
q0 34 -28 34q-32 0 -70 -40t-68 -103l-4 2q44 156 143.5 251t219.5 95q83 0 134.5 -41.5t51.5 -128.5q0 -22 -6 -57l-115 -649q-2 -12 -2 -23q0 -35 29 -35z" />
    <glyph glyph-name="icircumflex" unicode="&#xee;" horiz-adv-x="698" 
d="M549 1659l248 -453l-4 -4l-293 191l-357 -191l-4 4l408 453h2zM508 184q32 0 69.5 40.5t67.5 103.5l4 -2q-44 -156 -143 -251t-219 -95q-83 0 -135 41.5t-52 128.5q0 22 6 57l115 649q2 12 2 23q0 34 -28 34q-32 0 -70 -40t-68 -103l-4 2q44 156 143.5 251t219.5 95
q83 0 134.5 -41.5t51.5 -128.5q0 -22 -6 -57l-115 -649q-2 -12 -2 -23q0 -35 29 -35z" />
    <glyph glyph-name="idieresis" unicode="&#xef;" horiz-adv-x="698" 
d="M342 1272q-62 0 -99.5 37t-37.5 98q0 68 45 118t108 50q61 0 98.5 -37.5t37.5 -97.5q0 -69 -45 -118.5t-107 -49.5zM672 1575q61 0 98 -37.5t37 -97.5q0 -69 -45 -118.5t-107 -49.5q-63 0 -100 37t-37 98q0 68 45.5 118t108.5 50zM508 184q32 0 69.5 40.5t67.5 103.5
l4 -2q-44 -156 -143 -251t-219 -95q-83 0 -135 41.5t-52 128.5q0 22 6 57l115 649q2 12 2 23q0 34 -28 34q-32 0 -70 -40t-68 -103l-4 2q44 156 143.5 251t219.5 95q83 0 134.5 -41.5t51.5 -128.5q0 -22 -6 -57l-115 -649q-2 -12 -2 -23q0 -35 29 -35z" />
    <glyph glyph-name="eth" unicode="&#xf0;" horiz-adv-x="1202" 
d="M780 1483q189 -138 292.5 -320t103.5 -383q0 -158 -54.5 -306t-146 -256t-216.5 -173t-259 -65q-214 0 -337.5 120t-123.5 324q0 136 47 264t124.5 222t182 151t215.5 57q76 0 140 -31q-40 189 -119 330l-359 -153l-10 22l356 154q-78 131 -178 215l2 4q178 -65 316 -160
l374 160l11 -23zM504 4q43 0 92 77.5t90 202.5t64 265q24 135 24 264v39q-3 101 -24 162t-58 61q-58 0 -122.5 -132t-108 -330.5t-43.5 -376.5q0 -109 22.5 -170.5t63.5 -61.5z" />
    <glyph glyph-name="ntilde" unicode="&#xf1;" horiz-adv-x="1304" 
d="M553 1368q-102 0 -152 -88l-4 2q34 128 117 219.5t182 91.5q73 0 181 -51t188 -51q101 0 154 88l2 -2q-35 -129 -117.5 -220t-179.5 -91q-76 0 -187 51t-184 51zM1255 328l5 -2q-44 -156 -143.5 -251t-219.5 -95q-83 0 -134.5 41.5t-51.5 128.5q0 22 6 57l108 624
q2 12 2 23q0 37 -32 37q-73 0 -165.5 -202t-160.5 -533l-27 -156h-368l151 856q2 12 2 23q0 34 -28 34q-32 0 -70 -40t-68 -103l-4 2q44 156 143.5 251t219.5 95q83 0 134.5 -41.5t51.5 -128.5q0 -22 -6 -57l-72 -404q44 146 97 259.5t104 182t106 112.5t101 60.5t90 16.5
q79 0 128.5 -45t49.5 -131q0 -28 -4 -53l-108 -647q-2 -12 -2 -23q0 -35 28 -35q32 0 69.5 40.5t67.5 103.5z" />
    <glyph glyph-name="ograve" unicode="&#xf2;" horiz-adv-x="1216" 
d="M840 1151q-134 85 -240 171t-145 134q-33 39 -33 92q0 52 40 90.5t93 38.5q73 0 117 -63q33 -48 82.5 -176t89.5 -283zM510 -20q-220 0 -345.5 120t-125.5 324q0 193 88.5 352t242.5 250.5t341 91.5q218 0 343.5 -120t125.5 -324q0 -193 -88.5 -352t-242 -250.5
t-339.5 -91.5zM514 4q61 0 128.5 132.5t113 333t45.5 382.5q0 114 -24.5 178t-71.5 64q-61 0 -128 -133t-112 -333.5t-45 -381.5q0 -115 24 -178.5t70 -63.5z" />
    <glyph glyph-name="oacute" unicode="&#xf3;" horiz-adv-x="1216" 
d="M516 1233l-2 4q86 128 176 229.5t141 141.5q38 28 82 28q58 0 98 -40t40 -91q0 -35 -19.5 -67.5t-50.5 -51.5q-51 -32 -179 -76t-286 -77zM510 -20q-220 0 -345.5 120t-125.5 324q0 193 88.5 352t242.5 250.5t341 91.5q218 0 343.5 -120t125.5 -324q0 -193 -88.5 -352
t-242 -250.5t-339.5 -91.5zM514 4q61 0 128.5 132.5t113 333t45.5 382.5q0 114 -24.5 178t-71.5 64q-61 0 -128 -133t-112 -333.5t-45 -381.5q0 -115 24 -178.5t70 -63.5z" />
    <glyph glyph-name="ocircumflex" unicode="&#xf4;" horiz-adv-x="1216" 
d="M758 1393l-357 -191l-4 4l408 453h2l248 -453l-4 -4zM711 1118q218 0 343.5 -120t125.5 -324q0 -193 -88.5 -352t-242 -250.5t-339.5 -91.5q-220 0 -345.5 120t-125.5 324q0 193 88.5 352t242.5 250.5t341 91.5zM514 4q61 0 128.5 132.5t113 333t45.5 382.5
q0 114 -24.5 178t-71.5 64q-61 0 -128 -133t-112 -333.5t-45 -381.5q0 -115 24 -178.5t70 -63.5z" />
    <glyph glyph-name="otilde" unicode="&#xf5;" horiz-adv-x="1216" 
d="M879 1266q-76 0 -187 51t-184 51q-102 0 -152 -88l-4 2q34 128 117 219.5t182 91.5q72 0 180 -51t189 -51q101 0 154 88l2 -2q-35 -129 -117.5 -220t-179.5 -91zM510 -20q-220 0 -345.5 120t-125.5 324q0 193 88.5 352t242.5 250.5t341 91.5q218 0 343.5 -120t125.5 -324
q0 -193 -88.5 -352t-242 -250.5t-339.5 -91.5zM514 4q61 0 128.5 132.5t113 333t45.5 382.5q0 114 -24.5 178t-71.5 64q-61 0 -128 -133t-112 -333.5t-45 -381.5q0 -115 24 -178.5t70 -63.5z" />
    <glyph glyph-name="odieresis" unicode="&#xf6;" horiz-adv-x="1216" 
d="M571 1260q-70 0 -112.5 41.5t-42.5 107.5q0 71 52.5 124.5t123.5 53.5q68 0 109.5 -41t41.5 -106q0 -72 -51 -126t-121 -54zM940 1260q-70 0 -113 41.5t-43 107.5q0 71 52.5 124.5t124.5 53.5q68 0 109.5 -41t41.5 -106q0 -72 -51 -126t-121 -54zM510 -20
q-220 0 -345.5 120t-125.5 324q0 193 88.5 352t242.5 250.5t341 91.5q218 0 343.5 -120t125.5 -324q0 -193 -88.5 -352t-242 -250.5t-339.5 -91.5zM514 4q61 0 128.5 132.5t113 333t45.5 382.5q0 114 -24.5 178t-71.5 64q-61 0 -128 -133t-112 -333.5t-45 -381.5
q0 -115 24 -178.5t70 -63.5z" />
    <glyph glyph-name="divide" unicode="&#xf7;" horiz-adv-x="970" 
d="M518 733q-66 0 -104.5 36t-38.5 97q0 85 58 144t142 59q66 0 105 -36t39 -97q0 -85 -58 -144t-143 -59zM100 594l4 20h787l-4 -20h-787zM412 139q-65 0 -103.5 36t-38.5 97q0 85 58 144t143 59q65 0 103 -36t38 -97q0 -85 -58 -144t-142 -59z" />
    <glyph glyph-name="oslash" unicode="&#xf8;" horiz-adv-x="1220" 
d="M1208 1149l-147 -158q119 -116 119 -317q0 -193 -88.5 -352t-242 -250.5t-339.5 -91.5q-211 0 -334 108l-139 -147l-17 16l140 147q-121 121 -121 320q0 193 88.5 352t242.5 250.5t341 91.5q211 0 333 -110l148 157zM705 1094q-55 0 -115.5 -110t-106 -280t-59.5 -342
l375 410q2 27 2 80q0 114 -24.5 178t-71.5 64zM514 4q55 0 116 109t107 279t60 341l-375 -409q-2 -27 -2 -78q0 -115 24 -178.5t70 -63.5z" />
    <glyph glyph-name="ugrave" unicode="&#xf9;" horiz-adv-x="1294" 
d="M850 1151q-134 85 -240 171t-145 134q-33 39 -33 92q0 52 40 90.5t93 38.5q73 0 117 -63q33 -48 82.5 -176t89.5 -283zM1235 328l4 -2q-44 -156 -143 -251t-219 -95q-83 0 -135 41.5t-52 128.5q0 22 6 57l70 385q-43 -142 -95 -252t-101.5 -176.5t-102.5 -109t-97 -58.5
t-87 -16q-79 0 -129 45t-50 131q0 22 5 53l108 647q2 12 2 23q0 34 -29 34q-32 0 -69.5 -40t-67.5 -103l-4 2q44 156 143.5 251t219.5 95q83 0 134.5 -41.5t51.5 -128.5q0 -22 -6 -57l-109 -625q-2 -12 -2 -22q0 -37 33 -37q70 0 159 202t154 533l27 156h369l-152 -856
q-2 -12 -2 -23q0 -35 29 -35q32 0 69.5 40.5t67.5 103.5z" />
    <glyph glyph-name="uacute" unicode="&#xfa;" horiz-adv-x="1294" 
d="M991 1386q-51 -32 -179 -76t-286 -77l-2 4q86 128 176 229t142 142q38 28 82 28q58 0 97.5 -40t39.5 -91q0 -35 -19.5 -67.5t-50.5 -51.5zM1235 328l4 -2q-44 -156 -143 -251t-219 -95q-83 0 -135 41.5t-52 128.5q0 22 6 57l70 385q-43 -142 -95 -252t-101.5 -176.5
t-102.5 -109t-97 -58.5t-87 -16q-79 0 -129 45t-50 131q0 22 5 53l108 647q2 12 2 23q0 34 -29 34q-32 0 -69.5 -40t-67.5 -103l-4 2q44 156 143.5 251t219.5 95q83 0 134.5 -41.5t51.5 -128.5q0 -22 -6 -57l-109 -625q-2 -12 -2 -22q0 -37 33 -37q70 0 159 202t154 533
l27 156h369l-152 -856q-2 -12 -2 -23q0 -35 29 -35q32 0 69.5 40.5t67.5 103.5z" />
    <glyph glyph-name="ucircumflex" unicode="&#xfb;" horiz-adv-x="1294" 
d="M768 1393l-356 -191l-4 4l407 453h2l248 -453l-4 -4zM1235 328l4 -2q-44 -156 -143 -251t-219 -95q-83 0 -135 41.5t-52 128.5q0 22 6 57l70 385q-43 -142 -95 -252t-101.5 -176.5t-102.5 -109t-97 -58.5t-87 -16q-79 0 -129 45t-50 131q0 22 5 53l108 647q2 12 2 23
q0 34 -29 34q-32 0 -69.5 -40t-67.5 -103l-4 2q44 156 143.5 251t219.5 95q83 0 134.5 -41.5t51.5 -128.5q0 -22 -6 -57l-109 -625q-2 -12 -2 -22q0 -37 33 -37q70 0 159 202t154 533l27 156h369l-152 -856q-2 -12 -2 -23q0 -35 29 -35q32 0 69.5 40.5t67.5 103.5z" />
    <glyph glyph-name="udieresis" unicode="&#xfc;" horiz-adv-x="1294" 
d="M582 1260q-70 0 -113 41.5t-43 107.5q0 71 52.5 124.5t123.5 53.5q68 0 110 -41t42 -106q0 -72 -51 -126t-121 -54zM950 1260q-70 0 -112.5 41.5t-42.5 107.5q0 71 52.5 124.5t123.5 53.5q68 0 109.5 -41t41.5 -106q0 -72 -51 -126t-121 -54zM1235 328l4 -2
q-44 -156 -143 -251t-219 -95q-83 0 -135 41.5t-52 128.5q0 22 6 57l70 385q-43 -142 -95 -252t-101.5 -176.5t-102.5 -109t-97 -58.5t-87 -16q-79 0 -129 45t-50 131q0 22 5 53l108 647q2 12 2 23q0 34 -29 34q-32 0 -69.5 -40t-67.5 -103l-4 2q44 156 143.5 251t219.5 95
q83 0 134.5 -41.5t51.5 -128.5q0 -22 -6 -57l-109 -625q-2 -12 -2 -22q0 -37 33 -37q70 0 159 202t154 533l27 156h369l-152 -856q-2 -12 -2 -23q0 -35 29 -35q32 0 69.5 40.5t67.5 103.5z" />
    <glyph glyph-name="yacute" unicode="&#xfd;" horiz-adv-x="1228" 
d="M991 1386q-51 -32 -179 -76t-286 -77l-2 4q86 128 176 229t142 142q38 28 82 28q58 0 97.5 -40t39.5 -91q0 -35 -19.5 -67.5t-50.5 -51.5zM854 1098h369l-93 -510q-55 -302 -180.5 -533.5t-301 -358t-374.5 -126.5q-103 0 -161 47.5t-58 126.5q0 48 23 86l686 4
q52 71 66 182t-3 267l-39 393q-43 -162 -97 -287.5t-105.5 -200.5t-108 -123.5t-103 -66.5t-91.5 -18q-79 0 -129 45t-50 131q0 22 5 53l108 647q2 12 2 23q0 34 -29 34q-32 0 -69.5 -40t-67.5 -103l-4 2q44 156 143.5 251t219.5 95q83 0 134.5 -41.5t51.5 -128.5
q0 -22 -6 -57l-109 -625q-2 -12 -2 -22q0 -37 33 -37q70 0 159 202t154 533z" />
    <glyph glyph-name="thorn" unicode="&#xfe;" horiz-adv-x="1198" 
d="M913 1118q116 0 183 -101.5t67 -275.5q0 -213 -77 -387.5t-211.5 -274t-299.5 -99.5q-102 0 -174 59l-36 -213q-5 -26 -5.5 -44t4 -31.5t11 -22t21 -15t29.5 -10.5t40 -8v-4q-305 -43 -510 -119h-4l317 1812q9 54 -12.5 80.5t-87.5 38.5v4q125 19 268 61t246 91h4
l-199 -1135q62 232 123.5 361t132 181t170.5 52zM502 18q70 0 133.5 88.5t102 234.5t38.5 306q0 244 -76 244q-40 0 -75.5 -58t-82.5 -209t-112 -427l-14 -84q9 -45 33 -70t53 -25z" />
    <glyph glyph-name="ydieresis" unicode="&#xff;" horiz-adv-x="1228" 
d="M582 1260q-70 0 -113 41.5t-43 107.5q0 71 52.5 124.5t123.5 53.5q68 0 110 -41t42 -106q0 -72 -51 -126t-121 -54zM950 1260q-70 0 -112.5 41.5t-42.5 107.5q0 71 52.5 124.5t123.5 53.5q68 0 109.5 -41t41.5 -106q0 -72 -51 -126t-121 -54zM854 1098h369l-93 -510
q-55 -302 -180.5 -533.5t-301 -358t-374.5 -126.5q-103 0 -161 47.5t-58 126.5q0 48 23 86l686 4q52 71 66 182t-3 267l-39 393q-43 -162 -97 -287.5t-105.5 -200.5t-108 -123.5t-103 -66.5t-91.5 -18q-79 0 -129 45t-50 131q0 22 5 53l108 647q2 12 2 23q0 34 -29 34
q-32 0 -69.5 -40t-67.5 -103l-4 2q44 156 143.5 251t219.5 95q83 0 134.5 -41.5t51.5 -128.5q0 -22 -6 -57l-109 -625q-2 -12 -2 -22q0 -37 33 -37q70 0 159 202t154 533z" />
    <glyph glyph-name="Amacron" unicode="&#x100;" horiz-adv-x="1540" 
d="M1323 1731l-8 -21h-697l9 21h696zM1300 215q9 -42 13.5 -61.5t12.5 -47.5t15 -39.5t18.5 -27t25.5 -21t33 -10t44 -4.5v-4h-850v4q137 16 197.5 57.5t60.5 143.5q0 35 -14 114l-29 160h-516l-2 -4q-77 -143 -104 -211t-27 -119q0 -69 54 -100.5t176 -40.5v-4h-506v4
q92 16 148.5 76.5t137.5 214.5l488 907l-25 131q148 66 336 195h43zM322 500h501l-127 702z" />
    <glyph glyph-name="amacron" unicode="&#x101;" horiz-adv-x="1243" 
d="M508 1423h694l-8 -20h-694zM1051 184q32 0 69.5 40.5t67.5 103.5l4 -2q-44 -156 -143.5 -251t-219.5 -95q-83 0 -134.5 41.5t-51.5 128.5q0 22 6 57l66 377q-63 -236 -125 -367t-132.5 -184t-170.5 -53q-117 0 -183.5 101t-66.5 275q0 213 77 388t211.5 274.5t299.5 99.5
q60 0 112.5 -23.5t87.5 -62.5q183 25 351 86h4l-156 -876q-2 -12 -2 -23q0 -35 29 -35zM500 207q40 0 76.5 61t83.5 214.5t116 441.5l10 57q-9 49 -33 73.5t-55 24.5q-70 0 -133.5 -88.5t-102 -234t-38.5 -305.5q0 -244 76 -244z" />
    <glyph glyph-name="Abreve" unicode="&#x102;" horiz-adv-x="1540" 
d="M948 1583q-102 0 -168.5 95.5t-79.5 281.5l5 2q105 -156 282 -156q180 0 336 156l4 -2q-77 -184 -177.5 -280.5t-201.5 -96.5zM1300 215q9 -42 13.5 -61.5t12.5 -47.5t15 -39.5t18.5 -27t25.5 -21t33 -10t44 -4.5v-4h-850v4q137 16 197.5 57.5t60.5 143.5q0 35 -14 114
l-29 160h-516l-2 -4q-77 -143 -104 -211t-27 -119q0 -69 54 -100.5t176 -40.5v-4h-506v4q92 16 148.5 76.5t137.5 214.5l488 907l-25 131q148 66 336 195h43zM322 500h501l-127 702z" />
    <glyph glyph-name="abreve" unicode="&#x103;" horiz-adv-x="1243" 
d="M809 1180q-107 0 -169 117t-73 337l4 2q35 -108 106.5 -170.5t170.5 -62.5q100 0 192.5 62t165.5 171l4 -2q-88 -219 -191.5 -336.5t-209.5 -117.5zM1051 184q32 0 69.5 40.5t67.5 103.5l4 -2q-44 -156 -143.5 -251t-219.5 -95q-83 0 -134.5 41.5t-51.5 128.5q0 22 6 57
l66 377q-63 -236 -125 -367t-132.5 -184t-170.5 -53q-117 0 -183.5 101t-66.5 275q0 213 77 388t211.5 274.5t299.5 99.5q60 0 112.5 -23.5t87.5 -62.5q183 25 351 86h4l-156 -876q-2 -12 -2 -23q0 -35 29 -35zM500 207q40 0 76.5 61t83.5 214.5t116 441.5l10 57
q-9 49 -33 73.5t-55 24.5q-70 0 -133.5 -88.5t-102 -234t-38.5 -305.5q0 -244 76 -244z" />
    <glyph glyph-name="Aogonek" unicode="&#x104;" horiz-adv-x="1540" 
d="M1300 215q9 -42 13.5 -61.5t12.5 -47.5t15 -39.5t18.5 -27t25.5 -21t33 -10t44 -4.5v-4h-51q-84 -55 -140.5 -131.5t-56.5 -138.5q0 -31 20 -50.5t52 -19.5q45 0 109 33l2 -4q-43 -39 -117.5 -74t-151.5 -35q-88 0 -141 34t-53 91q0 88 117.5 163t343.5 132h-783v4
q137 16 197.5 57.5t60.5 143.5q0 35 -14 114l-29 160h-516l-2 -4q-77 -143 -104 -211t-27 -119q0 -69 54 -100.5t176 -40.5v-4h-506v4q92 16 148.5 76.5t137.5 214.5l488 907l-25 131q148 66 336 195h43zM322 500h501l-127 702z" />
    <glyph glyph-name="aogonek" unicode="&#x105;" horiz-adv-x="1243" 
d="M1192 326q-31 -107 -89.5 -188t-133.5 -122q-113 -176 -113 -286q0 -31 20 -50.5t52 -19.5q44 0 108 33l2 -4q-43 -40 -117 -74.5t-151 -34.5q-88 0 -141.5 34t-53.5 91q0 149 318 283q-27 -8 -64 -8q-83 0 -134.5 41.5t-51.5 128.5q0 22 6 57l66 377q-63 -236 -125 -367
t-132.5 -184t-170.5 -53q-117 0 -183.5 101t-66.5 275q0 213 77 388t211.5 274.5t299.5 99.5q60 0 112.5 -23.5t87.5 -62.5q183 25 351 86h4l-156 -876q-2 -12 -2 -23q0 -35 29 -35q32 0 69.5 40.5t67.5 103.5zM500 207q40 0 76.5 61t83.5 214.5t116 441.5l10 57
q-9 49 -33 73.5t-55 24.5q-70 0 -133.5 -88.5t-102 -234t-38.5 -305.5q0 -244 76 -244z" />
    <glyph glyph-name="Cacute" unicode="&#x106;" horiz-adv-x="1396" 
d="M778 1610l-2 4q101 129 204 220.5t159 117.5q32 14 65 14q58 0 95.5 -39t37.5 -92q0 -39 -22.5 -72t-63.5 -53q-111 -52 -473 -100zM651 -20q-261 0 -412 159t-151 430q0 200 69.5 378t189.5 305.5t287.5 201.5t356.5 74q66 0 125 -19t102.5 -38t71.5 -19q32 0 53 13
t46 53h4l10 -551l-6 -2q-26 151 -69 258t-98.5 167t-116 86.5t-132.5 26.5q-92 0 -180 -65.5t-153.5 -172.5t-105.5 -252t-40 -296q0 -219 102 -346t281 -127q121 0 246 46.5t202 127.5l4 -2q-109 -198 -298.5 -317t-387.5 -119z" />
    <glyph glyph-name="cacute" unicode="&#x107;" horiz-adv-x="1071" 
d="M979 1386q-51 -32 -179 -76t-286 -77l-2 4q86 128 176 229.5t141 141.5q38 28 82 28q58 0 98 -40t40 -91q0 -35 -19.5 -67.5t-50.5 -51.5zM717 205q73 0 150 29t124 81l4 -2q-82 -151 -225 -242t-297 -91q-202 0 -318 118t-116 320q0 196 88 356.5t241.5 252t340.5 91.5
q164 0 260 -79.5t96 -213.5q0 -126 -67.5 -192t-163.5 -66q-64 0 -101 25v502q-78 -4 -149.5 -81t-114.5 -201.5t-43 -258.5q0 -159 77.5 -253.5t213.5 -94.5z" />
    <glyph glyph-name="Cdotaccent" unicode="&#x10a;" horiz-adv-x="1396" 
d="M1024 1577q-88 0 -144.5 53.5t-56.5 136.5q0 92 64.5 153.5t161.5 61.5q86 0 142 -53.5t56 -136.5q0 -92 -64 -153.5t-159 -61.5zM651 -20q-261 0 -412 159t-151 430q0 200 69.5 378t189.5 305.5t287.5 201.5t356.5 74q66 0 125 -19t102.5 -38t71.5 -19q32 0 53 13t46 53
h4l10 -551l-6 -2q-26 151 -69 258t-98.5 167t-116 86.5t-132.5 26.5q-92 0 -180 -65.5t-153.5 -172.5t-105.5 -252t-40 -296q0 -219 102 -346t281 -127q121 0 246 46.5t202 127.5l4 -2q-109 -198 -298.5 -317t-387.5 -119z" />
    <glyph glyph-name="cdotaccent" unicode="&#x10b;" horiz-adv-x="1071" 
d="M745 1208q-88 0 -144 54t-56 137q0 92 64 153.5t161 61.5q86 0 142.5 -54t56.5 -137q0 -92 -64.5 -153.5t-159.5 -61.5zM717 205q73 0 150 29t124 81l4 -2q-82 -151 -225 -242t-297 -91q-202 0 -318 118t-116 320q0 196 88 356.5t241.5 252t340.5 91.5q164 0 260 -79.5
t96 -213.5q0 -126 -67.5 -192t-163.5 -66q-64 0 -101 25v502q-78 -4 -149.5 -81t-114.5 -201.5t-43 -258.5q0 -159 77.5 -253.5t213.5 -94.5z" />
    <glyph glyph-name="Ccaron" unicode="&#x10c;" horiz-adv-x="1396" 
d="M1008 1610h-2l-248 352l2 4l289 -123l327 123l2 -4zM981 1503q-92 0 -180 -65.5t-153.5 -172.5t-105.5 -252t-40 -296q0 -219 102 -346t281 -127q121 0 246 46.5t202 127.5l4 -2q-109 -198 -298.5 -317t-387.5 -119q-261 0 -412 159t-151 430q0 200 69.5 378t189.5 305.5
t287.5 201.5t356.5 74q66 0 125 -19t102.5 -38t71.5 -19q32 0 53 13t46 53h4l10 -551l-6 -2q-26 151 -69 258t-98.5 167t-116 86.5t-132.5 26.5z" />
    <glyph glyph-name="ccaron" unicode="&#x10d;" horiz-adv-x="1071" 
d="M719 1174h-2l-248 452l4 4l293 -190l356 190l4 -4zM834 567q-64 0 -101 25v502q-78 -4 -149.5 -81t-114.5 -201.5t-43 -258.5q0 -159 77.5 -253.5t213.5 -94.5q73 0 150 29t124 81l4 -2q-82 -151 -225 -242t-297 -91q-202 0 -318 118t-116 320q0 196 88 356.5t241.5 252
t340.5 91.5q164 0 260 -79.5t96 -213.5q0 -126 -67.5 -192t-163.5 -66z" />
    <glyph glyph-name="Dcaron" unicode="&#x10e;" horiz-adv-x="1628" 
d="M887 1610h-2l-248 352l2 4l289 -123l327 123l2 -4zM965 1507q301 0 474 -160.5t173 -433.5q0 -190 -71 -359.5t-192 -291t-291 -192t-360 -70.5h-747v4q109 17 153 66t66 176l180 1016q10 68 10 102q0 66 -32.5 96.5t-112.5 42.5l2 4h748zM629 20q148 0 280 140
t211.5 374.5t79.5 497.5q0 216 -75.5 335.5t-219.5 119.5h-129l-225 -1282q-12 -65 -12 -101q0 -48 20 -66t66 -18h4z" />
    <glyph glyph-name="dcaron" unicode="&#x10f;" horiz-adv-x="1275" 
d="M1274 1659l-250 -1417q-2 -12 -2 -23q0 -35 29 -35q32 0 69.5 40.5t67.5 103.5l4 -2q-44 -156 -143.5 -251t-219.5 -95q-83 0 -134.5 41.5t-51.5 128.5q0 22 6 57l66 371q-63 -234 -125 -364t-132.5 -182t-170.5 -52q-117 0 -183.5 101t-66.5 275q0 213 77 388
t211.5 274.5t299.5 99.5q102 0 174 -59l57 325q9 54 -12.5 80.5t-87.5 38.5v4q125 19 268 61t246 91h4zM1468 1659q70 0 111 -42t41 -112q0 -99 -87.5 -193t-227.5 -145l-2 4q52 28 87 76t35 92q0 37 -29.5 63t-78.5 30q-23 30 -23 67q0 66 51 113t123 47zM500 207
q40 0 75.5 58.5t83 211.5t113.5 434l14 72q-10 47 -34 71.5t-54 24.5q-70 0 -133.5 -88.5t-102 -234t-38.5 -305.5q0 -244 76 -244z" />
    <glyph glyph-name="Dcroat" unicode="&#x110;" horiz-adv-x="1630" 
d="M967 1507q301 0 474 -160.5t173 -433.5q0 -190 -71 -359.5t-192 -291t-291 -192t-360 -70.5h-747v4q109 17 153 66t66 176l92 514h-158l9 20h151l86 482q10 68 10 102q0 66 -32.5 96.5t-112.5 42.5l2 4h748zM631 20q148 0 280 140t211.5 374.5t79.5 497.5
q0 216 -75.5 335.5t-219.5 119.5h-129l-125 -707h287l-8 -20h-281l-98 -555q-12 -65 -12 -101q0 -48 20 -66t66 -18h4z" />
    <glyph glyph-name="dcroat" unicode="&#x111;" horiz-adv-x="1243" 
d="M1204 1260l-180 -1018q-2 -12 -2 -23q0 -35 29 -35q32 0 69.5 40.5t67.5 103.5l4 -2q-44 -156 -143.5 -251t-219.5 -95q-83 0 -134.5 41.5t-51.5 128.5q0 22 6 57l66 371q-63 -234 -125 -364t-132.5 -182t-170.5 -52q-117 0 -183.5 101t-66.5 275q0 213 77 388
t211.5 274.5t299.5 99.5q102 0 174 -59l35 201h-236l8 20h232l18 104q9 54 -12.5 80.5t-87.5 38.5v4q125 19 268 61t246 91h4l-68 -379h127l-8 -20h-121zM500 207q40 0 75.5 58.5t83 211.5t113.5 434l14 72q-10 47 -34 71.5t-54 24.5q-70 0 -133.5 -88.5t-102 -234
t-38.5 -305.5q0 -244 76 -244z" />
    <glyph glyph-name="Emacron" unicode="&#x112;" horiz-adv-x="1480" 
d="M1272 1731l-8 -21h-697l8 21h697zM1456 578l4 -3l-278 -585q-176 10 -498 10h-733v4q109 17 153 66t66 176l180 1016q10 68 10 102q0 66 -31.5 96.5t-111.5 42.5v4h703q278 0 464 11l58 -566l-4 -2q-14 118 -37 202.5t-61.5 145t-84 97t-116 57.5t-146.5 28t-186 7h-31
l-125 -709h58q58 0 97.5 7t81.5 29t75.5 64.5t69.5 113.5t73 175h4q-93 -472 -145 -819h-4v14q0 128 -13 206t-46 120.5t-77.5 56t-119.5 13.5h-56l-98 -553q-10 -65 -10 -96q0 -50 22.5 -69.5t75.5 -19.5h14q122 0 205.5 11.5t167 44.5t150.5 95.5t136 161t144 245.5z" />
    <glyph glyph-name="emacron" unicode="&#x113;" horiz-adv-x="1062" 
d="M397 1423h695l-9 -20h-694zM1042 907q0 -71 -55 -132.5t-148.5 -105.5t-195.5 -74t-217 -50v-10q0 -152 79 -241t218 -89q71 0 150 30.5t137 79.5l4 -2q-85 -151 -233 -242t-308 -91q-202 0 -318 118t-116 320q0 146 50.5 276t137 223t207.5 147t256 54q165 0 258.5 -57
t93.5 -154zM686 1094q-60 0 -119 -78t-97.5 -201t-43.5 -250q146 83 228.5 198t82.5 255q0 34 -14 55t-37 21z" />
    <glyph glyph-name="Edotaccent" unicode="&#x116;" horiz-adv-x="1480" 
d="M922 1577q-88 0 -144.5 53.5t-56.5 136.5q0 92 64 153.5t161 61.5q86 0 142.5 -53.5t56.5 -136.5q0 -92 -64 -153.5t-159 -61.5zM1456 578l4 -3l-278 -585q-176 10 -498 10h-733v4q109 17 153 66t66 176l180 1016q10 68 10 102q0 66 -31.5 96.5t-111.5 42.5v4h703
q278 0 464 11l58 -566l-4 -2q-14 118 -37 202.5t-61.5 145t-84 97t-116 57.5t-146.5 28t-186 7h-31l-125 -709h58q58 0 97.5 7t81.5 29t75.5 64.5t69.5 113.5t73 175h4q-93 -472 -145 -819h-4v14q0 128 -13 206t-46 120.5t-77.5 56t-119.5 13.5h-56l-98 -553
q-10 -65 -10 -96q0 -50 22.5 -69.5t75.5 -19.5h14q122 0 205.5 11.5t167 44.5t150.5 95.5t136 161t144 245.5z" />
    <glyph glyph-name="edotaccent" unicode="&#x117;" horiz-adv-x="1062" 
d="M725 1208q-88 0 -144.5 54t-56.5 137q0 92 64.5 153.5t161.5 61.5q86 0 142 -54t56 -137q0 -92 -64 -153.5t-159 -61.5zM723 205q71 0 150 30.5t137 79.5l4 -2q-85 -151 -233 -242t-308 -91q-202 0 -318 118t-116 320q0 146 50.5 276t137 223t207.5 147t256 54
q165 0 258.5 -57t93.5 -154q0 -71 -55 -132.5t-148.5 -105.5t-195.5 -74t-217 -50v-10q0 -152 79 -241t218 -89zM686 1094q-60 0 -119 -78t-97.5 -201t-43.5 -250q146 83 228.5 198t82.5 255q0 34 -14 55t-37 21z" />
    <glyph glyph-name="Eogonek" unicode="&#x118;" horiz-adv-x="1480" 
d="M1057 -4q-82 -54 -136.5 -129.5t-54.5 -136.5q0 -31 20 -50.5t52 -19.5q45 0 109 33l2 -4q-43 -39 -117.5 -74t-151.5 -35q-88 0 -141 34t-53 91q0 86 114 161t332 130q-86 4 -348 4h-733v4q109 17 153 66t66 176l180 1016q10 68 10 102q0 66 -31.5 96.5t-111.5 42.5v4
h703q278 0 464 11l58 -566l-4 -2q-14 118 -37 202.5t-61.5 145t-84 97t-116 57.5t-146.5 28t-186 7h-31l-125 -709h58q58 0 97.5 7t81.5 29t75.5 64.5t69.5 113.5t73 175h4q-93 -472 -145 -819h-4v14q0 128 -13 206t-46 120.5t-77.5 56t-119.5 13.5h-56l-98 -553
q-10 -65 -10 -96q0 -50 22.5 -69.5t75.5 -19.5h14q122 0 205.5 11.5t167 44.5t150.5 95.5t136 161t144 245.5l4 -3l-278 -585z" />
    <glyph glyph-name="eogonek" unicode="&#x119;" horiz-adv-x="1062" 
d="M723 205q71 0 150 30.5t137 79.5l4 -2q-53 -94 -134.5 -167.5t-177.5 -116.5q-141 -191 -141 -299q0 -31 20 -50.5t52 -19.5q44 0 108 33l2 -4q-43 -40 -117 -74.5t-151 -34.5q-88 0 -141 34t-53 91q0 77 87 149.5t271 151.5q-79 -26 -166 -26q-202 0 -318 118t-116 320
q0 146 50.5 276t137 223t207.5 147t256 54q165 0 258.5 -57t93.5 -154q0 -71 -55 -132.5t-148.5 -105.5t-195.5 -74t-217 -50v-10q0 -152 79 -241t218 -89zM686 1094q-60 0 -119 -78t-97.5 -201t-43.5 -250q146 83 228.5 198t82.5 255q0 34 -14 55t-37 21z" />
    <glyph glyph-name="Ecaron" unicode="&#x11a;" horiz-adv-x="1480" 
d="M905 1610h-2l-248 352l2 4l289 -123l328 123l2 -4zM1456 578l4 -3l-278 -585q-176 10 -498 10h-733v4q109 17 153 66t66 176l180 1016q10 68 10 102q0 66 -31.5 96.5t-111.5 42.5v4h703q278 0 464 11l58 -566l-4 -2q-14 118 -37 202.5t-61.5 145t-84 97t-116 57.5
t-146.5 28t-186 7h-31l-125 -709h58q58 0 97.5 7t81.5 29t75.5 64.5t69.5 113.5t73 175h4q-93 -472 -145 -819h-4v14q0 128 -13 206t-46 120.5t-77.5 56t-119.5 13.5h-56l-98 -553q-10 -65 -10 -96q0 -50 22.5 -69.5t75.5 -19.5h14q122 0 205.5 11.5t167 44.5t150.5 95.5
t136 161t144 245.5z" />
    <glyph glyph-name="ecaron" unicode="&#x11b;" horiz-adv-x="1062" 
d="M698 1174h-2l-247 452l4 4l292 -190l357 190l4 -4zM1042 907q0 -71 -55 -132.5t-148.5 -105.5t-195.5 -74t-217 -50v-10q0 -152 79 -241t218 -89q71 0 150 30.5t137 79.5l4 -2q-85 -151 -233 -242t-308 -91q-202 0 -318 118t-116 320q0 146 50.5 276t137 223t207.5 147
t256 54q165 0 258.5 -57t93.5 -154zM686 1094q-60 0 -119 -78t-97.5 -201t-43.5 -250q146 83 228.5 198t82.5 255q0 34 -14 55t-37 21z" />
    <glyph glyph-name="Gbreve" unicode="&#x11e;" horiz-adv-x="1556" 
d="M1053 1583q-102 0 -168.5 95.5t-79.5 281.5l4 2q105 -156 283 -156q179 0 335 156l5 -2q-77 -184 -177.5 -280.5t-201.5 -96.5zM815 668h760v-4q-97 -15 -138 -60.5t-61 -161.5l-57 -319q-56 -9 -172 -51q-255 -92 -414 -92q-300 0 -472.5 163.5t-172.5 442.5
q0 198 73 372.5t199.5 299.5t304 197.5t377.5 72.5q75 0 139 -19t111.5 -38t81.5 -19q36 0 58.5 13.5t46.5 52.5h4l-45 -551h-4q-31 275 -128 405.5t-268 130.5q-103 0 -202.5 -89t-173.5 -233.5t-119 -339t-45 -395.5q0 -206 62.5 -324t176.5 -118q80 0 189 84l51 293
q12 70 12 119q0 80 -38.5 114.5t-135.5 49.5v4z" />
    <glyph glyph-name="gbreve" unicode="&#x11f;" horiz-adv-x="1179" 
d="M813 1180q-107 0 -169 117t-73 337l4 2q35 -108 106.5 -170.5t170.5 -62.5q100 0 192.5 62t165.5 171l4 -2q-88 -219 -191.5 -336.5t-209.5 -117.5zM827 1034q188 24 353 84h4l-99 -530q-56 -302 -181 -533.5t-300.5 -358t-374.5 -126.5q-103 0 -161 47.5t-58 126.5
q0 48 23 86l686 4q52 71 66 182t-3 267l-39 393q-68 -274 -133 -424.5t-139 -211t-180 -60.5q-117 0 -183.5 101t-66.5 275q0 213 77 388t211.5 274.5t299.5 99.5q121 0 198 -84zM504 207q40 0 75.5 58t82.5 209t112 427l17 80q-9 48 -33.5 73t-55.5 25q-70 0 -133.5 -88.5
t-102 -234t-38.5 -305.5q0 -244 76 -244z" />
    <glyph glyph-name="Gdotaccent" unicode="&#x120;" horiz-adv-x="1556" 
d="M1077 1577q-88 0 -144 53.5t-56 136.5q0 92 64 153.5t161 61.5q86 0 142 -53.5t56 -136.5q0 -92 -64 -153.5t-159 -61.5zM815 668h760v-4q-97 -15 -138 -60.5t-61 -161.5l-57 -319q-56 -9 -172 -51q-255 -92 -414 -92q-300 0 -472.5 163.5t-172.5 442.5q0 198 73 372.5
t199.5 299.5t304 197.5t377.5 72.5q75 0 139 -19t111.5 -38t81.5 -19q36 0 58.5 13.5t46.5 52.5h4l-45 -551h-4q-31 275 -128 405.5t-268 130.5q-103 0 -202.5 -89t-173.5 -233.5t-119 -339t-45 -395.5q0 -206 62.5 -324t176.5 -118q80 0 189 84l51 293q12 70 12 119
q0 80 -38.5 114.5t-135.5 49.5v4z" />
    <glyph glyph-name="gdotaccent" unicode="&#x121;" horiz-adv-x="1179" 
d="M840 1208q-88 0 -144.5 54t-56.5 137q0 92 64 153.5t161 61.5q86 0 142.5 -54t56.5 -137q0 -92 -64 -153.5t-159 -61.5zM1180 1118h4l-99 -530q-56 -302 -181 -533.5t-300.5 -358t-374.5 -126.5q-103 0 -161 47.5t-58 126.5q0 48 23 86l686 4q52 71 66 182t-3 267
l-39 393q-68 -274 -133 -424.5t-139 -211t-180 -60.5q-117 0 -183.5 101t-66.5 275q0 213 77 388t211.5 274.5t299.5 99.5q121 0 198 -84q188 24 353 84zM504 207q40 0 75.5 58t82.5 209t112 427l17 80q-9 48 -33.5 73t-55.5 25q-70 0 -133.5 -88.5t-102 -234t-38.5 -305.5
q0 -244 76 -244z" />
    <glyph glyph-name="uni0122" unicode="&#x122;" horiz-adv-x="1556" 
d="M815 668h760v-4q-97 -15 -138 -60.5t-61 -161.5l-57 -319q-56 -9 -172 -51q-255 -92 -414 -92q-300 0 -472.5 163.5t-172.5 442.5q0 198 73 372.5t199.5 299.5t304 197.5t377.5 72.5q75 0 139 -19t111.5 -38t81.5 -19q36 0 58.5 13.5t46.5 52.5h4l-45 -551h-4
q-31 275 -128 405.5t-268 130.5q-103 0 -202.5 -89t-173.5 -233.5t-119 -339t-45 -395.5q0 -206 62.5 -324t176.5 -118q80 0 189 84l51 293q12 70 12 119q0 80 -38.5 114.5t-135.5 49.5v4zM741 -39q69 0 110.5 -36.5t41.5 -96.5q0 -100 -97 -170t-239 -88l-2 4q57 15 89 46
t32 71q0 34 -30 52.5t-85 18.5q-8 20 -8 43q0 63 56 109.5t132 46.5z" />
    <glyph glyph-name="uni0123" unicode="&#x123;" horiz-adv-x="1179" 
d="M825 1206q-70 0 -110.5 36t-40.5 97q0 114 101.5 206t244.5 114l2 -4q-59 -23 -93 -66.5t-34 -95.5q0 -41 28.5 -64.5t82.5 -23.5q8 -24 8 -43q0 -63 -56.5 -109.5t-132.5 -46.5zM1180 1118h4l-99 -530q-56 -302 -181 -533.5t-300.5 -358t-374.5 -126.5q-103 0 -161 47.5
t-58 126.5q0 48 23 86l686 4q52 71 66 182t-3 267l-39 393q-68 -274 -133 -424.5t-139 -211t-180 -60.5q-117 0 -183.5 101t-66.5 275q0 213 77 388t211.5 274.5t299.5 99.5q121 0 198 -84q188 24 353 84zM504 207q40 0 75.5 58t82.5 209t112 427l17 80q-9 48 -33.5 73
t-55.5 25q-70 0 -133.5 -88.5t-102 -234t-38.5 -305.5q0 -244 76 -244z" />
    <glyph glyph-name="Hbar" unicode="&#x126;" horiz-adv-x="1648" 
d="M1769 1503q-109 -15 -153 -64t-66 -177l-20 -115h180l-8 -21h-176l-156 -880q-10 -65 -10 -101q0 -67 32 -98t111 -43v-4h-739v4q109 17 152.5 65t66.5 177l90 512h-424l-90 -512q-10 -65 -10 -101q0 -67 32 -98t111 -43v-4h-739v4q109 17 153 66t66 176l156 880h-160
l8 21h156l20 115q10 68 10 102q0 66 -31.5 96.5t-111.5 42.5v4h739v-4q-109 -17 -153 -65.5t-66 -175.5l-20 -115h424l20 115q11 75 11 102q0 66 -32 96.5t-112 42.5v4h739v-4zM1077 778l62 348h-424l-62 -348h424z" />
    <glyph glyph-name="hbar" unicode="&#x127;" horiz-adv-x="1255" 
d="M1206 328l4 -2q-44 -156 -143 -251t-219 -95q-83 0 -134.5 41.5t-51.5 128.5q0 22 6 57l108 624q2 12 2 23q0 37 -33 37q-73 0 -164.5 -201.5t-160.5 -533.5l-27 -156h-368l221 1260h-123l8 20h119l18 104q9 54 -12.5 80.5t-87.5 38.5v4q125 19 268 61t246 91h4l-68 -379
h240l-8 -20h-236l-135 -775q44 146 97 260t104 183t106.5 113t101 60.5t89.5 16.5q79 0 128.5 -45t49.5 -131q0 -28 -4 -53l-109 -647q-2 -12 -2 -23q0 -35 29 -35q32 0 69.5 40.5t67.5 103.5z" />
    <glyph glyph-name="Imacron" unicode="&#x12a;" horiz-adv-x="835" 
d="M922 1731l-9 -21h-585l8 21h586zM217 1507h739v-4q-109 -17 -153 -65.5t-66 -175.5l-180 -1016q-10 -65 -10 -101q0 -67 32 -98t111 -43v-4h-739v4q109 17 153 66t66 176l180 1016q10 68 10 102q0 66 -31.5 96.5t-111.5 42.5v4z" />
    <glyph glyph-name="imacron" unicode="&#x12b;" horiz-adv-x="698" 
d="M217 1423h584l-8 -20h-584zM508 184q32 0 69.5 40.5t67.5 103.5l4 -2q-44 -156 -143 -251t-219 -95q-83 0 -135 41.5t-52 128.5q0 22 6 57l115 649q2 12 2 23q0 34 -28 34q-32 0 -70 -40t-68 -103l-4 2q44 156 143.5 251t219.5 95q83 0 134.5 -41.5t51.5 -128.5
q0 -22 -6 -57l-115 -649q-2 -12 -2 -23q0 -35 29 -35z" />
    <glyph glyph-name="Iogonek" unicode="&#x12e;" horiz-adv-x="835" 
d="M217 1507h739v-4q-109 -17 -153 -65.5t-66 -175.5l-180 -1016q-10 -65 -10 -101q0 -67 32 -98t111 -43v-4h-96q-84 -55 -140.5 -131.5t-56.5 -138.5q0 -31 20 -50.5t52 -19.5q45 0 109 33l2 -4q-43 -39 -117.5 -74t-151.5 -35q-88 0 -141 34t-53 91q0 88 117.5 163
t343.5 132h-627v4q109 17 153 66t66 176l180 1016q10 68 10 102q0 66 -31.5 96.5t-111.5 42.5v4z" />
    <glyph glyph-name="iogonek" unicode="&#x12f;" horiz-adv-x="698" 
d="M514 1614q86 0 142.5 -54t56.5 -137q0 -92 -64.5 -153.5t-159.5 -61.5q-88 0 -144 54t-56 137q0 92 64 153.5t161 61.5zM508 184q32 0 69.5 40.5t67.5 103.5l4 -2q-31 -107 -89.5 -188t-133.5 -122q-113 -176 -113 -286q0 -31 20 -50.5t52 -19.5q45 0 109 33l2 -4
q-43 -39 -117.5 -74t-151.5 -35q-88 0 -141 34t-53 91q0 149 317 283q-27 -8 -63 -8q-83 0 -135 41.5t-52 128.5q0 22 6 57l115 649q2 12 2 23q0 34 -28 34q-32 0 -70 -40t-68 -103l-4 2q44 156 143.5 251t219.5 95q83 0 134.5 -41.5t51.5 -128.5q0 -22 -6 -57l-115 -649
q-2 -12 -2 -23q0 -35 29 -35z" />
    <glyph glyph-name="Idotaccent" unicode="&#x130;" horiz-adv-x="835" 
d="M627 1577q-88 0 -144.5 53.5t-56.5 136.5q0 92 64 153.5t161 61.5q86 0 142.5 -53.5t56.5 -136.5q0 -92 -64 -153.5t-159 -61.5zM217 1507h739v-4q-109 -17 -153 -65.5t-66 -175.5l-180 -1016q-10 -65 -10 -101q0 -67 32 -98t111 -43v-4h-739v4q109 17 153 66t66 176
l180 1016q10 68 10 102q0 66 -31.5 96.5t-111.5 42.5v4z" />
    <glyph glyph-name="dotlessi" unicode="&#x131;" horiz-adv-x="698" 
d="M645 328l4 -2q-44 -156 -143 -251t-219 -95q-83 0 -135 41.5t-52 128.5q0 22 6 57l115 649q2 12 2 23q0 34 -28 34q-32 0 -70 -40t-68 -103l-4 2q44 156 143.5 251t219.5 95q83 0 134.5 -41.5t51.5 -128.5q0 -22 -6 -57l-115 -649q-2 -12 -2 -23q0 -35 29 -35
q32 0 69.5 40.5t67.5 103.5z" />
    <glyph glyph-name="IJ" unicode="&#x132;" horiz-adv-x="1652" 
d="M737 1262l-180 -1016q-10 -65 -10 -101q0 -67 32 -98t111 -43v-4h-739v4q109 17 153 66t66 176l180 1016q10 68 10 102q0 66 -31.5 96.5t-111.5 42.5v4h739v-4q-109 -17 -153 -65.5t-66 -175.5zM1055 1507h739v-4q-109 -17 -154 -65.5t-67 -175.5l-135 -773
q-46 -263 -231.5 -460.5t-438.5 -253.5l-2 4q76 64 119.5 126t75.5 159.5t61 263.5l164 934q10 65 10 100q0 68 -31.5 98.5t-109.5 42.5v4z" />
    <glyph glyph-name="ij" unicode="&#x133;" horiz-adv-x="1327" 
d="M489 1208q-88 0 -144 54t-56 137q0 92 64 153.5t161 61.5q86 0 142.5 -54t56.5 -137q0 -92 -64.5 -153.5t-159.5 -61.5zM1194 1614q86 0 142.5 -54t56.5 -137q0 -92 -64.5 -153.5t-159.5 -61.5q-88 0 -144 54t-56 137q0 92 64 153.5t161 61.5zM645 328l4 -2
q-44 -156 -143 -251t-219 -95q-83 0 -135 41.5t-52 128.5q0 22 6 57l115 649q2 12 2 23q0 34 -28 34q-32 0 -70 -40t-68 -103l-4 2q44 156 143.5 251t219.5 95q83 0 134.5 -41.5t51.5 -128.5q0 -22 -6 -57l-115 -649q-2 -12 -2 -23q0 -35 29 -35q32 0 69.5 40.5t67.5 103.5z
M1096 1118q83 0 134.5 -41.5t51.5 -128.5q0 -22 -6 -57l-125 -715q-41 -242 -201.5 -409.5t-378.5 -196.5l-2 4q86 82 119.5 168t65.5 272l147 842q2 12 2 23q0 34 -29 34q-32 0 -69.5 -40t-67.5 -103l-4 2q44 156 143.5 251t219.5 95z" />
    <glyph glyph-name="uni0136" unicode="&#x136;" horiz-adv-x="1615" 
d="M690 4v-4h-739v4q105 12 150.5 61.5t68.5 180.5l180 1016q10 68 10 102q0 66 -31.5 96.5t-111.5 42.5v4h739v-4q-109 -17 -153 -65.5t-66 -175.5l-180 -1016q-10 -65 -10 -101q0 -67 32 -98t111 -43zM1671 1503q-76 -1 -142.5 -42.5t-211.5 -164.5l-279 -233
q103 -286 170 -460t119 -296.5t91.5 -181t72 -84.5t76.5 -37v-4h-344q-53 0 -77.5 1.5t-64.5 11t-60.5 29t-55 58t-59.5 94.5t-61.5 142t-73.5 197.5t-85 263.5l467 387q36 30 68 78.5t32 101.5q0 118 -176 139v4h594v-4zM829 -39q69 0 110.5 -36.5t41.5 -96.5
q0 -100 -97 -170t-239 -88l-2 4q57 15 89 46t32 71q0 34 -30 52.5t-85 18.5q-8 20 -8 43q0 63 56 109.5t132 46.5z" />
    <glyph glyph-name="uni0137" unicode="&#x137;" horiz-adv-x="1257" 
d="M1241 319l4 -2q-34 -158 -119 -247.5t-206 -89.5q-90 0 -149.5 43t-100.5 139l-154 354q128 37 205.5 119t77.5 180q0 48 -22 78.5t-58 30.5q-85 0 -184 -129l-142 -795h-368l243 1384q9 54 -12.5 80.5t-87.5 38.5v4q125 19 268 61t246 91h4l-147 -834q76 139 188 216
t227 77q103 0 166.5 -51.5t63.5 -136.5q0 -80 -75 -164t-206 -148l135 -307q45 -102 97 -102q19 0 34.5 8t29 27.5t21 32.5t21.5 42zM557 -39q69 0 110.5 -36.5t41.5 -96.5q0 -100 -97 -170t-239 -88l-2 4q57 15 89 46t32 71q0 34 -30 52.5t-85 18.5q-8 20 -8 43
q0 63 56 109.5t132 46.5z" />
    <glyph glyph-name="Lacute" unicode="&#x139;" horiz-adv-x="1384" 
d="M844 1710q-111 -52 -473 -100l-2 4q101 129 203.5 220.5t158.5 117.5q32 14 66 14q58 0 95.5 -39t37.5 -92q0 -39 -22.5 -72t-63.5 -53zM1382 578l4 -3l-278 -585q-179 10 -461 10h-696v4q109 17 153 66t66 176l180 1016q10 68 10 102q0 66 -31.5 96.5t-111.5 42.5v4h776
v-4q-131 -20 -184.5 -76.5t-79.5 -205.5l-178 -1016q-12 -67 -12 -109t17 -59t56 -17h4q115 0 196 12.5t159.5 46t143 96.5t130 160.5t137.5 242.5z" />
    <glyph glyph-name="lacute" unicode="&#x13a;" horiz-adv-x="659" 
d="M709 2036q58 0 95.5 -39t37.5 -92q0 -39 -22.5 -72t-63.5 -53q-114 -53 -473 -101l-2 4q101 129 203.5 220.5t158.5 117.5q34 15 66 15zM688 1659l-250 -1417q-2 -12 -2 -23q0 -35 29 -35q32 0 69.5 40.5t67.5 103.5l4 -2q-44 -156 -143 -251t-219 -95q-83 0 -135 41.5
t-52 128.5q0 22 6 57l207 1177q9 54 -12.5 80.5t-87.5 38.5v4q125 19 268 61t246 91h4z" />
    <glyph glyph-name="uni013B" unicode="&#x13b;" horiz-adv-x="1384" 
d="M1382 578l4 -3l-278 -585q-179 10 -461 10h-696v4q109 17 153 66t66 176l180 1016q10 68 10 102q0 66 -31.5 96.5t-111.5 42.5v4h776v-4q-131 -20 -184.5 -76.5t-79.5 -205.5l-178 -1016q-12 -67 -12 -109t17 -59t56 -17h4q115 0 196 12.5t159.5 46t143 96.5t130 160.5
t137.5 242.5zM545 -39q69 0 110 -36.5t41 -96.5q0 -100 -97 -170t-239 -88l-2 4q57 15 89 46t32 71q0 34 -29.5 52.5t-84.5 18.5q-9 23 -9 43q0 63 56.5 109.5t132.5 46.5z" />
    <glyph glyph-name="uni013C" unicode="&#x13c;" horiz-adv-x="659" 
d="M465 184q32 0 69.5 40.5t67.5 103.5l4 -2q-44 -156 -143 -251t-219 -95q-83 0 -135 41.5t-52 128.5q0 22 6 57l207 1177q9 54 -12.5 80.5t-87.5 38.5v4q125 19 268 61t246 91h4l-250 -1417q-2 -12 -2 -23q0 -35 29 -35zM197 -39q69 0 110 -36.5t41 -96.5q0 -100 -97 -170
t-239 -88l-2 4q57 15 89 46t32 71q0 34 -30 52.5t-85 18.5q-8 20 -8 43q0 63 56.5 109.5t132.5 46.5z" />
    <glyph glyph-name="Lcaron" unicode="&#x13d;" horiz-adv-x="1388" 
d="M1212 1339q0 37 -29.5 63t-78.5 30q-23 30 -23 67q0 66 51 113t123 47q70 0 111 -42t41 -112q0 -99 -87.5 -193t-227.5 -145l-2 4q52 28 87 76t35 92zM616 20q115 0 196 12.5t159.5 46t143 96.5t130 160.5t137.5 242.5l4 -3l-278 -585q-179 10 -461 10h-696v4
q109 17 153 66t66 176l180 1016q10 68 10 102q0 66 -31.5 96.5t-111.5 42.5v4h776v-4q-131 -20 -184.5 -76.5t-79.5 -205.5l-178 -1016q-12 -67 -12 -109t17 -59t56 -17h4z" />
    <glyph glyph-name="lcaron" unicode="&#x13e;" horiz-adv-x="690" 
d="M688 1659l-250 -1417q-2 -12 -2 -23q0 -35 29 -35q32 0 69.5 40.5t67.5 103.5l4 -2q-44 -156 -143 -251t-219 -95q-83 0 -135 41.5t-52 128.5q0 22 6 57l207 1177q9 54 -12.5 80.5t-87.5 38.5v4q125 19 268 61t246 91h4zM883 1659q70 0 110.5 -42t40.5 -112
q0 -99 -87.5 -193t-227.5 -145l-2 4q53 28 88 76t35 92q0 37 -30 63t-79 30q-22 28 -22 67q0 66 51 113t123 47z" />
    <glyph glyph-name="Lslash" unicode="&#x141;" horiz-adv-x="1402" 
d="M1401 578l4 -3l-279 -585q-179 10 -460 10h-697v4q109 17 153 66t66 176l68 385l-152 -74l-8 21l166 81l107 603q10 68 10 102q0 66 -31.5 96.5t-111.5 42.5v4h776v-4q-131 -20 -184.5 -76.5t-79.5 -205.5l-66 -373l307 149l8 -20l-319 -158l-109 -614q-12 -67 -12 -109
t17.5 -59t56.5 -17h4q115 0 196 12.5t159.5 46t143 96.5t130 160.5t137.5 242.5z" />
    <glyph glyph-name="lslash" unicode="&#x142;" horiz-adv-x="720" 
d="M496 184q32 0 69.5 40.5t67.5 103.5l4 -2q-44 -156 -143.5 -251t-219.5 -95q-83 0 -134.5 41.5t-51.5 128.5q0 22 6 57l90 508l-102 -56l-10 23l116 63l113 639q9 54 -12.5 80.5t-87.5 38.5v4q125 19 268 61t246 91h4l-129 -727l127 69l10 -22l-141 -78l-117 -659
q-2 -12 -2 -23q0 -35 29 -35z" />
    <glyph glyph-name="Nacute" unicode="&#x143;" horiz-adv-x="1544" 
d="M1217 1710q-50 -23 -180 -50.5t-294 -49.5l-2 4q101 129 204 220.5t159 117.5q32 14 65 14q58 0 96 -39t38 -92q0 -39 -22.5 -72t-63.5 -53zM1188 1507h493v-4q-109 -15 -153 -64t-66 -177l-227 -1282h-4l-873 1208l-157 -901q-11 -71 -11 -103q0 -91 56 -129.5
t198 -50.5v-4h-493v4q109 17 153 66t66 176l180 1016q10 68 10 102q0 66 -31.5 96.5t-111.5 42.5v4h428l674 -932l113 646q10 65 10 100q0 91 -56 130.5t-198 51.5v4z" />
    <glyph glyph-name="nacute" unicode="&#x144;" horiz-adv-x="1304" 
d="M1026 1386q-51 -32 -179 -76t-286 -77l-2 4q86 128 176 229t142 142q38 28 81 28q58 0 98 -40t40 -91q0 -35 -19.5 -67.5t-50.5 -51.5zM1255 328l5 -2q-44 -156 -143.5 -251t-219.5 -95q-83 0 -134.5 41.5t-51.5 128.5q0 22 6 57l108 624q2 12 2 23q0 37 -32 37
q-73 0 -165.5 -202t-160.5 -533l-27 -156h-368l151 856q2 12 2 23q0 34 -28 34q-32 0 -70 -40t-68 -103l-4 2q44 156 143.5 251t219.5 95q83 0 134.5 -41.5t51.5 -128.5q0 -22 -6 -57l-72 -404q44 146 97 259.5t104 182t106 112.5t101 60.5t90 16.5q79 0 128.5 -45
t49.5 -131q0 -28 -4 -53l-108 -647q-2 -12 -2 -23q0 -35 28 -35q32 0 69.5 40.5t67.5 103.5z" />
    <glyph glyph-name="uni0145" unicode="&#x145;" horiz-adv-x="1544" 
d="M1188 1507h493v-4q-109 -15 -153 -64t-66 -177l-227 -1282h-4l-873 1208l-157 -901q-11 -71 -11 -103q0 -91 56 -129.5t198 -50.5v-4h-493v4q109 17 153 66t66 176l180 1016q10 68 10 102q0 66 -31.5 96.5t-111.5 42.5v4h428l674 -932l113 646q10 65 10 100
q0 91 -56 130.5t-198 51.5v4zM670 -39q69 0 110 -36.5t41 -96.5q0 -100 -97 -170t-239 -88l-2 4q57 15 89 46t32 71q0 34 -30 52.5t-85 18.5q-8 20 -8 43q0 63 56.5 109.5t132.5 46.5z" />
    <glyph glyph-name="uni0146" unicode="&#x146;" horiz-adv-x="1304" 
d="M1255 328l5 -2q-44 -156 -143.5 -251t-219.5 -95q-83 0 -134.5 41.5t-51.5 128.5q0 22 6 57l108 624q2 12 2 23q0 37 -32 37q-73 0 -165.5 -202t-160.5 -533l-27 -156h-368l151 856q2 12 2 23q0 34 -28 34q-32 0 -70 -40t-68 -103l-4 2q44 156 143.5 251t219.5 95
q83 0 134.5 -41.5t51.5 -128.5q0 -22 -6 -57l-72 -404q44 146 97 259.5t104 182t106 112.5t101 60.5t90 16.5q79 0 128.5 -45t49.5 -131q0 -28 -4 -53l-108 -647q-2 -12 -2 -23q0 -35 28 -35q32 0 69.5 40.5t67.5 103.5zM545 -39q69 0 110 -36.5t41 -96.5q0 -100 -97 -170
t-239 -88l-2 4q57 15 89 46t32 71q0 34 -29.5 52.5t-84.5 18.5q-9 23 -9 43q0 63 56.5 109.5t132.5 46.5z" />
    <glyph glyph-name="Ncaron" unicode="&#x147;" horiz-adv-x="1544" 
d="M973 1610h-2l-248 352l2 4l289 -123l327 123l2 -4zM1188 1507h493v-4q-109 -15 -153 -64t-66 -177l-227 -1282h-4l-873 1208l-157 -901q-11 -71 -11 -103q0 -91 56 -129.5t198 -50.5v-4h-493v4q109 17 153 66t66 176l180 1016q10 68 10 102q0 66 -31.5 96.5t-111.5 42.5
v4h428l674 -932l113 646q10 65 10 100q0 91 -56 130.5t-198 51.5v4z" />
    <glyph glyph-name="ncaron" unicode="&#x148;" horiz-adv-x="1304" 
d="M766 1174h-2l-248 452l4 4l293 -190l356 190l5 -4zM1255 328l5 -2q-44 -156 -143.5 -251t-219.5 -95q-83 0 -134.5 41.5t-51.5 128.5q0 22 6 57l108 624q2 12 2 23q0 37 -32 37q-73 0 -165.5 -202t-160.5 -533l-27 -156h-368l151 856q2 12 2 23q0 34 -28 34
q-32 0 -70 -40t-68 -103l-4 2q44 156 143.5 251t219.5 95q83 0 134.5 -41.5t51.5 -128.5q0 -22 -6 -57l-72 -404q44 146 97 259.5t104 182t106 112.5t101 60.5t90 16.5q79 0 128.5 -45t49.5 -131q0 -28 -4 -53l-108 -647q-2 -12 -2 -23q0 -35 28 -35q32 0 69.5 40.5
t67.5 103.5z" />
    <glyph glyph-name="Eng" unicode="&#x14a;" horiz-adv-x="1542" 
d="M1188 1507h493v-4q-109 -15 -153 -64t-66 -177l-162 -916q-36 -206 -169.5 -355.5t-327.5 -215.5l-2 4q205 82 336 258l-779 1155l-157 -905q-11 -71 -11 -103q0 -91 56 -129.5t198 -50.5v-4h-493v4q109 17 153 66t66 176l180 1016q10 68 10 102q0 66 -31.5 96.5
t-111.5 42.5v4h428l662 -993l125 707q10 65 10 100q0 91 -56 130.5t-198 51.5v4z" />
    <glyph glyph-name="eng" unicode="&#x14b;" horiz-adv-x="1253" 
d="M1026 1118q79 0 128.5 -45t49.5 -131q0 -28 -4 -53l-121 -713q-40 -240 -200.5 -408.5t-378.5 -197.5l-2 4q86 80 118.5 166t65.5 274l143 817q2 12 2 23q0 37 -32 37q-72 0 -165 -202.5t-161 -532.5l-27 -156h-368l151 856q2 12 2 23q0 34 -28 34q-32 0 -70 -40
t-68 -103l-4 2q44 156 143.5 251t219.5 95q83 0 134.5 -41.5t51.5 -128.5q0 -22 -6 -57l-72 -404q44 146 97 259.5t104 182t106 112.5t101 60.5t90 16.5z" />
    <glyph glyph-name="Omacron" unicode="&#x14c;" horiz-adv-x="1622" 
d="M668 1710l8 21h696l-8 -21h-696zM713 -20q-290 0 -456.5 162.5t-166.5 439.5q0 196 70 371.5t189 301.5t285 199.5t351 73.5q290 0 456.5 -162.5t166.5 -439.5q0 -196 -69.5 -371.5t-188.5 -301.5t-285 -199.5t-352 -73.5zM717 4q88 0 176.5 94t155.5 243.5t109 346.5
t42 391q0 199 -57 311.5t-162 112.5q-116 0 -228.5 -157t-182.5 -407.5t-70 -508.5q0 -200 57 -313t160 -113z" />
    <glyph glyph-name="omacron" unicode="&#x14d;" horiz-adv-x="1216" 
d="M412 1403l8 20h694l-8 -20h-694zM510 -20q-220 0 -345.5 120t-125.5 324q0 193 88.5 352t242.5 250.5t341 91.5q218 0 343.5 -120t125.5 -324q0 -193 -88.5 -352t-242 -250.5t-339.5 -91.5zM514 4q61 0 128.5 132.5t113 333t45.5 382.5q0 114 -24.5 178t-71.5 64
q-61 0 -128 -133t-112 -333.5t-45 -381.5q0 -115 24 -178.5t70 -63.5z" />
    <glyph glyph-name="Ohungarumlaut" unicode="&#x150;" horiz-adv-x="1622" 
d="M625 1577l-2 4q79 144 166 251.5t137 139.5q44 27 84 27q57 0 96 -38.5t39 -94.5q0 -35 -18.5 -66.5t-49.5 -50.5q-50 -31 -174 -79t-278 -93zM1075 1577l-2 4q79 144 166 251.5t137 139.5q44 27 84 27q57 0 96 -38.5t39 -94.5q0 -35 -18 -66.5t-49 -50.5
q-49 -31 -174 -78.5t-279 -93.5zM713 -20q-290 0 -456.5 162.5t-166.5 439.5q0 196 70 371.5t189 301.5t285 199.5t351 73.5q290 0 456.5 -162.5t166.5 -439.5q0 -196 -69.5 -371.5t-188.5 -301.5t-285 -199.5t-352 -73.5zM717 4q88 0 176.5 94t155.5 243.5t109 346.5
t42 391q0 199 -57 311.5t-162 112.5q-116 0 -228.5 -157t-182.5 -407.5t-70 -508.5q0 -200 57 -313t160 -113z" />
    <glyph glyph-name="ohungarumlaut" unicode="&#x151;" horiz-adv-x="1216" 
d="M457 1190l-4 4q64 145 134.5 261.5t112.5 158.5q45 45 103 45q53 0 93 -39t40 -92q0 -64 -49 -107q-51 -43 -168.5 -109t-261.5 -122zM866 1190l-4 4q64 145 135 261.5t113 158.5q45 45 102 45q53 0 93.5 -39t40.5 -92q0 -63 -50 -107q-51 -43 -168.5 -109t-261.5 -122z
M510 -20q-220 0 -345.5 120t-125.5 324q0 193 88.5 352t242.5 250.5t341 91.5q218 0 343.5 -120t125.5 -324q0 -193 -88.5 -352t-242 -250.5t-339.5 -91.5zM514 4q61 0 128.5 132.5t113 333t45.5 382.5q0 114 -24.5 178t-71.5 64q-61 0 -128 -133t-112 -333.5t-45 -381.5
q0 -115 24 -178.5t70 -63.5z" />
    <glyph glyph-name="OE" unicode="&#x152;" horiz-adv-x="2275" 
d="M2251 578l4 -3l-279 -585q-179 10 -497 10h-742q-301 0 -474 160.5t-173 433.5q0 190 71 359.5t192 291t291 192t360 70.5h710q279 0 467 11l55 -566l-4 -2q-11 90 -27 160t-40 125t-52 94.5t-68.5 67.5t-82.5 45.5t-101.5 27.5t-118.5 13.5t-140 3.5h-31l-125 -709h57
q79 0 133 16.5t101 62t84 118t80 192.5h4q-97 -492 -146 -819h-4v27q0 101 -10.5 170t-28.5 111t-51.5 64.5t-70.5 30t-95 7.5h-55l-98 -553q-11 -72 -11 -94q0 -51 22.5 -71t76.5 -20h14q102 0 175.5 7.5t147 29.5t130.5 60t116.5 101t115.5 150.5t118 209.5zM815 20h4
q64 0 91.5 37t47.5 148l226 1282h-129q-143 0 -270.5 -137.5t-204 -366.5t-76.5 -485q0 -221 81.5 -349.5t229.5 -128.5z" />
    <glyph glyph-name="oe" unicode="&#x153;" horiz-adv-x="1820" 
d="M1473 205q70 0 148 30t138 80l4 -2q-82 -151 -224 -242t-296 -91q-122 0 -209 54.5t-129 153.5q-87 -98 -197 -153t-229 -55q-205 0 -322.5 120t-117.5 324q0 193 84 352t231.5 250.5t325.5 91.5q131 0 226 -52t143 -148q80 96 182.5 148t218.5 52q169 0 265.5 -59.5
t96.5 -161.5q0 -69 -57 -129t-153 -102.5t-202 -72t-224 -48.5v-10q0 -152 79 -241t218 -89zM514 4q62 0 128 122t109.5 310.5t43.5 366.5q0 137 -23 214t-65 77q-47 0 -98.5 -74t-91.5 -187.5t-66.5 -258.5t-26.5 -279q0 -137 23 -214t67 -77zM1444 1094q-62 0 -123 -78
t-100.5 -201t-44.5 -250q155 80 243 197t88 256q0 34 -17 55t-46 21z" />
    <glyph glyph-name="Racute" unicode="&#x154;" horiz-adv-x="1601" 
d="M1202 1710q-111 -52 -473 -100l-2 4q101 129 204 220.5t159 117.5q32 14 65 14q58 0 95.5 -39t37.5 -92q0 -39 -22.5 -72t-63.5 -53zM1133 764q86 -250 139.5 -389.5t101.5 -222t83.5 -109t90.5 -39.5v-4h-336q-54 0 -82 3t-67.5 15.5t-64.5 41t-59 77t-65 126.5
t-69 185.5t-84 258.5h-82l-74 -420q-12 -71 -12 -117q0 -78 39.5 -114.5t134.5 -51.5v-4h-776v4q109 17 153 66t66 176l180 1016q10 68 10 102q0 66 -31.5 96.5t-111.5 42.5v4h762q244 0 388 -85t144 -230q0 -139 -102 -252.5t-276 -175.5zM776 1487l-133 -760h113
q85 0 162 69.5t123 186t46 246.5q0 120 -53.5 189t-150.5 69h-107z" />
    <glyph glyph-name="racute" unicode="&#x155;" horiz-adv-x="1052" 
d="M963 1386q-51 -32 -179 -76t-286 -77l-2 4q86 128 176 229.5t141 141.5q38 28 82 28q58 0 97.5 -40t39.5 -91q0 -35 -19 -67.5t-50 -51.5zM1124 973q0 -81 -53 -152h-352q-90 -179 -250 -665l-27 -156h-368l151 856q2 12 2 23q0 34 -28 34q-32 0 -70 -40t-68 -103l-4 2
q44 156 143.5 251t219.5 95q83 0 134.5 -41.5t51.5 -128.5q0 -22 -6 -57l-102 -576q63 200 120 345t103.5 232.5t93.5 139t85.5 69t84.5 17.5q64 0 101.5 -39.5t37.5 -105.5z" />
    <glyph glyph-name="uni0156" unicode="&#x156;" horiz-adv-x="1601" 
d="M1133 764q86 -250 139.5 -389.5t101.5 -222t83.5 -109t90.5 -39.5v-4h-336q-54 0 -82 3t-67.5 15.5t-64.5 41t-59 77t-65 126.5t-69 185.5t-84 258.5h-82l-74 -420q-12 -71 -12 -117q0 -78 39.5 -114.5t134.5 -51.5v-4h-776v4q109 17 153 66t66 176l180 1016
q10 68 10 102q0 66 -31.5 96.5t-111.5 42.5v4h762q244 0 388 -85t144 -230q0 -139 -102 -252.5t-276 -175.5zM776 1487l-133 -760h113q85 0 162 69.5t123 186t46 246.5q0 120 -53.5 189t-150.5 69h-107zM840 -39q69 0 110 -36.5t41 -96.5q0 -100 -97 -170t-239 -88l-2 4
q57 15 89 46t32 71q0 34 -30 52.5t-85 18.5q-8 20 -8 43q0 63 56.5 109.5t132.5 46.5z" />
    <glyph glyph-name="uni0157" unicode="&#x157;" horiz-adv-x="1052" 
d="M1124 973q0 -81 -53 -152h-352q-90 -179 -250 -665l-27 -156h-368l151 856q2 12 2 23q0 34 -28 34q-32 0 -70 -40t-68 -103l-4 2q44 156 143.5 251t219.5 95q83 0 134.5 -41.5t51.5 -128.5q0 -22 -6 -57l-102 -576q63 200 120 345t103.5 232.5t93.5 139t85.5 69
t84.5 17.5q64 0 101.5 -39.5t37.5 -105.5zM248 -39q69 0 110 -36.5t41 -96.5q0 -100 -97 -170t-239 -88l-2 4q57 15 89 46t32 71q0 34 -29.5 52.5t-84.5 18.5q-9 22 -9 43q0 63 56.5 109.5t132.5 46.5z" />
    <glyph glyph-name="Rcaron" unicode="&#x158;" horiz-adv-x="1601" 
d="M958 1610h-2l-247 352l2 4l288 -123l328 123l2 -4zM1133 764q86 -250 139.5 -389.5t101.5 -222t83.5 -109t90.5 -39.5v-4h-336q-54 0 -82 3t-67.5 15.5t-64.5 41t-59 77t-65 126.5t-69 185.5t-84 258.5h-82l-74 -420q-12 -71 -12 -117q0 -78 39.5 -114.5t134.5 -51.5v-4
h-776v4q109 17 153 66t66 176l180 1016q10 68 10 102q0 66 -31.5 96.5t-111.5 42.5v4h762q244 0 388 -85t144 -230q0 -139 -102 -252.5t-276 -175.5zM776 1487l-133 -760h113q85 0 162 69.5t123 186t46 246.5q0 120 -53.5 189t-150.5 69h-107z" />
    <glyph glyph-name="rcaron" unicode="&#x159;" horiz-adv-x="1052" 
d="M702 1174h-2l-247 452l4 4l293 -190l356 190l4 -4zM1124 973q0 -81 -53 -152h-352q-90 -179 -250 -665l-27 -156h-368l151 856q2 12 2 23q0 34 -28 34q-32 0 -70 -40t-68 -103l-4 2q44 156 143.5 251t219.5 95q83 0 134.5 -41.5t51.5 -128.5q0 -22 -6 -57l-102 -576
q63 200 120 345t103.5 232.5t93.5 139t85.5 69t84.5 17.5q64 0 101.5 -39.5t37.5 -105.5z" />
    <glyph glyph-name="Sacute" unicode="&#x15a;" horiz-adv-x="1306" 
d="M618 1610l-2 4q101 129 204 220.5t159 117.5q32 14 65 14q58 0 96 -39t38 -92q0 -39 -22.5 -72t-63.5 -53q-50 -23 -180 -50.5t-294 -49.5zM547 -20q-74 0 -142.5 19t-122.5 38.5t-92 19.5q-40 0 -63.5 -13.5t-54.5 -53.5h-4l-7 559l5 2q52 -247 183 -397t294 -150
q140 0 229.5 77t89.5 198q0 51 -21.5 95t-64 81t-87 65.5t-109.5 61.5q-41 21 -61.5 32t-60 33t-60.5 37t-53.5 39.5t-50.5 45t-40.5 49.5t-33.5 57t-19 63t-8 72q0 146 79 265t218 186t311 67q68 0 134.5 -20t120 -40t89.5 -20q68 0 115 70h2l6 -541l-4 -2
q-35 236 -166 382t-301 146q-103 0 -176.5 -67t-73.5 -162q0 -55 23.5 -103t68.5 -87.5t91 -68t112 -61.5q56 -28 94.5 -49.5t88 -53t81.5 -63.5t62 -71.5t44.5 -87t14.5 -101.5q0 -150 -89.5 -275.5t-246 -199t-344.5 -73.5z" />
    <glyph glyph-name="sacute" unicode="&#x15b;" horiz-adv-x="1003" 
d="M881 1386q-51 -32 -179 -76t-286 -77l-2 4q86 128 176 229.5t141 141.5q38 28 82 28q58 0 97.5 -40t39.5 -91q0 -35 -19 -67.5t-50 -51.5zM641 688q54 -29 85.5 -47.5t76 -50t69 -59.5t42.5 -66.5t18 -79.5q0 -110 -69.5 -203t-190.5 -147.5t-264 -54.5q-196 0 -300 64.5
t-104 176.5q0 85 56 130.5t135 45.5q64 0 100 -24v-365q50 -4 108 -4q96 0 155.5 46t59.5 116q0 33 -13 62t-30 50t-50.5 44.5t-58.5 37.5t-69 37q-47 25 -71.5 39t-65 40t-63 48t-47 52.5t-35.5 65.5t-11 75q0 167 133 284t324 117q183 0 290 -62.5t107 -168.5
q0 -75 -56 -115.5t-134 -40.5q-62 0 -100 25v331q-51 7 -97 7q-72 0 -127 -42.5t-55 -113.5q0 -40 19 -74.5t61 -67.5t76 -53.5t96 -54.5z" />
    <glyph glyph-name="Scedilla" unicode="&#x15e;" horiz-adv-x="1306" 
d="M797 1503q-103 0 -176.5 -67t-73.5 -162q0 -55 23.5 -103t68.5 -87.5t91 -68t112 -61.5q56 -28 94.5 -49.5t88 -53t81.5 -63.5t62 -71.5t44.5 -87t14.5 -101.5q0 -146 -85.5 -269.5t-236 -198t-332.5 -80.5l-24 -33q75 -43 121.5 -88t46.5 -99q0 -80 -87 -130.5
t-245 -59.5v4q58 26 87.5 52t29.5 61q0 49 -76 125l125 168h-4q-74 0 -142.5 19t-122.5 38.5t-92 19.5q-40 0 -63.5 -13.5t-54.5 -53.5h-4l-7 559l5 2q52 -247 183 -397t294 -150q140 0 229.5 77t89.5 198q0 51 -21.5 95t-64 81t-87 65.5t-109.5 61.5q-41 21 -61.5 32
t-60 33t-60.5 37t-53.5 39.5t-50.5 45t-40.5 49.5t-33.5 57t-19 63t-8 72q0 146 79 265t218 186t311 67q68 0 134.5 -20t120 -40t89.5 -20q68 0 115 70h2l6 -541l-4 -2q-35 236 -166 382t-301 146z" />
    <glyph glyph-name="scedilla" unicode="&#x15f;" horiz-adv-x="1003" 
d="M641 688q54 -29 85.5 -47.5t76 -50t69 -59.5t42.5 -66.5t18 -79.5q0 -108 -68 -200t-186 -147t-258 -58l-25 -33q75 -43 121.5 -88t46.5 -99q0 -80 -87 -130.5t-245 -59.5v4q58 26 87.5 52t29.5 61q0 49 -76 125l125 168q-191 1 -292 65.5t-101 175.5q0 85 56 130.5
t135 45.5q64 0 100 -24v-365q50 -4 108 -4q96 0 155.5 46t59.5 116q0 33 -13 62t-30 50t-50.5 44.5t-58.5 37.5t-69 37q-47 25 -71.5 39t-65 40t-63 48t-47 52.5t-35.5 65.5t-11 75q0 167 133 284t324 117q183 0 290 -62.5t107 -168.5q0 -75 -56 -115.5t-134 -40.5
q-62 0 -100 25v331q-51 7 -97 7q-72 0 -127 -42.5t-55 -113.5q0 -40 19 -74.5t61 -67.5t76 -53.5t96 -54.5z" />
    <glyph glyph-name="Scaron" unicode="&#x160;" horiz-adv-x="1306" 
d="M848 1610h-2l-248 352l2 4l289 -123l328 123l2 -4zM797 1503q-103 0 -176.5 -67t-73.5 -162q0 -55 23.5 -103t68.5 -87.5t91 -68t112 -61.5q56 -28 94.5 -49.5t88 -53t81.5 -63.5t62 -71.5t44.5 -87t14.5 -101.5q0 -150 -89.5 -275.5t-246 -199t-344.5 -73.5
q-74 0 -142.5 19t-122.5 38.5t-92 19.5q-40 0 -63.5 -13.5t-54.5 -53.5h-4l-7 559l5 2q52 -247 183 -397t294 -150q140 0 229.5 77t89.5 198q0 51 -21.5 95t-64 81t-87 65.5t-109.5 61.5q-41 21 -61.5 32t-60 33t-60.5 37t-53.5 39.5t-50.5 45t-40.5 49.5t-33.5 57t-19 63
t-8 72q0 146 79 265t218 186t311 67q68 0 134.5 -20t120 -40t89.5 -20q68 0 115 70h2l6 -541l-4 -2q-35 236 -166 382t-301 146z" />
    <glyph glyph-name="scaron" unicode="&#x161;" horiz-adv-x="1003" 
d="M621 1174h-3l-247 452l4 4l293 -190l356 190l4 -4zM768 731q-62 0 -100 25v331q-51 7 -97 7q-72 0 -127 -42.5t-55 -113.5q0 -40 19 -74.5t61 -67.5t76 -53.5t96 -54.5q54 -29 85.5 -47.5t76 -50t69 -59.5t42.5 -66.5t18 -79.5q0 -110 -69.5 -203t-190.5 -147.5
t-264 -54.5q-196 0 -300 64.5t-104 176.5q0 85 56 130.5t135 45.5q64 0 100 -24v-365q50 -4 108 -4q96 0 155.5 46t59.5 116q0 33 -13 62t-30 50t-50.5 44.5t-58.5 37.5t-69 37q-47 25 -71.5 39t-65 40t-63 48t-47 52.5t-35.5 65.5t-11 75q0 167 133 284t324 117
q183 0 290 -62.5t107 -168.5q0 -75 -56 -115.5t-134 -40.5z" />
    <glyph glyph-name="uni0162" unicode="&#x162;" horiz-adv-x="1445" 
d="M1458 1546l49 -596l-4 -2q-20 115 -42 198t-50 143t-58.5 97.5t-73.5 60t-88.5 31t-109.5 9.5l-219 -1241q-10 -65 -10 -99q0 -68 36 -98.5t128 -44.5v-4h-377l-41 -53q75 -43 121.5 -88t46.5 -99q0 -80 -87 -130.5t-245 -59.5v4q58 26 87.5 52t29.5 61q0 49 -76 125
l139 188h-376v4q121 17 168 65.5t69 176.5l219 1241q-97 -2 -164.5 -22t-139.5 -78.5t-142.5 -162.5t-161.5 -276l-4 2l256 596h4q78 -23 162.5 -31t255.5 -8h266q160 0 249 6.5t179 32.5h4z" />
    <glyph glyph-name="uni0163" unicode="&#x163;" horiz-adv-x="802" 
d="M625 1077l-138 -780q-6 -38 -6 -61q0 -39 17 -55.5t55 -16.5q118 0 207 153l4 -2q-76 -170 -184.5 -252.5t-231.5 -82.5q-41 0 -86 10l-33 -43q75 -43 121.5 -88t46.5 -99q0 -80 -86.5 -130.5t-244.5 -59.5v4q58 26 87 52t29 61q0 49 -76 125l138 184q-66 23 -102 76
t-36 127q0 26 5 57l145 821h-129l8 21h125l78 274h342l-51 -274h262l-8 -21h-258z" />
    <glyph glyph-name="Tcaron" unicode="&#x164;" horiz-adv-x="1445" 
d="M915 1610h-2l-247 352l2 4l288 -123l328 123l2 -4zM1458 1546l49 -596l-4 -2q-20 115 -42 198t-50 143t-58.5 97.5t-73.5 60t-88.5 31t-109.5 9.5l-219 -1241q-10 -65 -10 -99q0 -68 36 -98.5t128 -44.5v-4h-778v4q121 17 168 65.5t69 176.5l219 1241q-97 -2 -164.5 -22
t-139.5 -78.5t-142.5 -162.5t-161.5 -276l-4 2l256 596h4q78 -23 162.5 -31t255.5 -8h266q160 0 249 6.5t179 32.5h4z" />
    <glyph glyph-name="tcaron" unicode="&#x165;" horiz-adv-x="802" 
d="M874 1659q70 0 111 -42t41 -112q0 -99 -87.5 -193t-227.5 -145l-2 4q52 28 87 76t35 92q0 37 -29.5 63t-78.5 30q-23 30 -23 67q0 66 51 113t123 47zM680 1372l-51 -274h262l-8 -21h-258l-138 -780q-6 -38 -6 -61q0 -39 17 -55.5t55 -16.5q118 0 207 153l4 -2
q-76 -170 -184.5 -252.5t-231.5 -82.5q-113 0 -177.5 59t-64.5 160q0 26 5 57l145 821h-129l8 21h125l78 274h342z" />
    <glyph glyph-name="Tbar" unicode="&#x166;" horiz-adv-x="1445" 
d="M1458 1546l49 -596l-4 -2q-20 115 -42 198t-50 143t-58.5 97.5t-73.5 60t-88.5 31t-109.5 9.5l-129 -729h226l-9 -21h-221l-86 -491q-10 -65 -10 -99q0 -68 36 -98.5t128 -44.5v-4h-778v4q121 17 168 65.5t69 176.5l86 491h-215l8 21h211l129 729q-97 -2 -164.5 -22
t-139.5 -78.5t-142.5 -162.5t-161.5 -276l-4 2l256 596h4q78 -23 162.5 -31t255.5 -8h266q160 0 249 6.5t179 32.5h4z" />
    <glyph glyph-name="tbar" unicode="&#x167;" horiz-adv-x="811" 
d="M887 1077h-258l-66 -368h252l-8 -21h-246l-69 -391q-7 -44 -7 -61q0 -39 17 -55.5t55 -16.5q118 0 207 153l4 -2q-76 -170 -184.5 -252.5t-231.5 -82.5q-113 0 -177 59t-64 160q0 32 4 57l75 432h-127l9 21h123l65 368h-129l8 21h125l78 274h342l-51 -274h262z" />
    <glyph glyph-name="Umacron" unicode="&#x16a;" horiz-adv-x="1521" 
d="M1454 1731l-8 -21h-696l8 21h696zM1174 1507h493v-4q-110 -19 -154 -66.5t-67 -174.5l-141 -801q-38 -217 -181.5 -349t-341.5 -132q-308 0 -456 98.5t-148 298.5q0 47 15 135l131 750q12 62 12 104q0 65 -33 95t-113 42v4h779v-4q-132 -19 -183.5 -66.5t-74.5 -174.5
l-144 -811q-12 -71 -12 -132q0 -148 62.5 -231.5t177.5 -83.5q182 0 317 126t170 331l133 760q10 65 10 100q0 93 -54.5 131.5t-196.5 50.5v4z" />
    <glyph glyph-name="umacron" unicode="&#x16b;" horiz-adv-x="1294" 
d="M1124 1423l-8 -20h-694l8 20h694zM1235 328l4 -2q-44 -156 -143 -251t-219 -95q-83 0 -135 41.5t-52 128.5q0 22 6 57l70 385q-43 -142 -95 -252t-101.5 -176.5t-102.5 -109t-97 -58.5t-87 -16q-79 0 -129 45t-50 131q0 22 5 53l108 647q2 12 2 23q0 34 -29 34
q-32 0 -69.5 -40t-67.5 -103l-4 2q44 156 143.5 251t219.5 95q83 0 134.5 -41.5t51.5 -128.5q0 -22 -6 -57l-109 -625q-2 -12 -2 -22q0 -37 33 -37q70 0 159 202t154 533l27 156h369l-152 -856q-2 -12 -2 -23q0 -35 29 -35q32 0 69.5 40.5t67.5 103.5z" />
    <glyph glyph-name="Uring" unicode="&#x16e;" horiz-adv-x="1521" 
d="M1098 1577q-105 0 -166.5 55t-61.5 146q0 105 77 177.5t188 72.5q105 0 166 -57t61 -152q0 -102 -76.5 -172t-187.5 -70zM1130 2003q-97 0 -164 -64.5t-67 -156.5q0 -82 55 -131t148 -49q97 0 164 62t67 151q0 85 -55 136.5t-148 51.5zM1174 1507h493v-4
q-110 -19 -154 -66.5t-67 -174.5l-141 -801q-38 -217 -181.5 -349t-341.5 -132q-308 0 -456 98.5t-148 298.5q0 47 15 135l131 750q12 62 12 104q0 65 -33 95t-113 42v4h779v-4q-132 -19 -183.5 -66.5t-74.5 -174.5l-144 -811q-12 -71 -12 -132q0 -148 62.5 -231.5
t177.5 -83.5q182 0 317 126t170 331l133 760q10 65 10 100q0 93 -54.5 131.5t-196.5 50.5v4z" />
    <glyph glyph-name="uring" unicode="&#x16f;" horiz-adv-x="1294" 
d="M758 1208q-105 0 -166.5 55t-61.5 146q0 105 77 177.5t188 72.5q105 0 166 -57t61 -152q0 -102 -76.5 -172t-187.5 -70zM791 1634q-97 0 -164.5 -64.5t-67.5 -156.5q0 -82 55 -131t148 -49q97 0 164 62t67 151q0 85 -54.5 136.5t-147.5 51.5zM1235 328l4 -2
q-44 -156 -143 -251t-219 -95q-83 0 -135 41.5t-52 128.5q0 22 6 57l70 385q-43 -142 -95 -252t-101.5 -176.5t-102.5 -109t-97 -58.5t-87 -16q-79 0 -129 45t-50 131q0 22 5 53l108 647q2 12 2 23q0 34 -29 34q-32 0 -69.5 -40t-67.5 -103l-4 2q44 156 143.5 251t219.5 95
q83 0 134.5 -41.5t51.5 -128.5q0 -22 -6 -57l-109 -625q-2 -12 -2 -22q0 -37 33 -37q70 0 159 202t154 533l27 156h369l-152 -856q-2 -12 -2 -23q0 -35 29 -35q32 0 69.5 40.5t67.5 103.5z" />
    <glyph glyph-name="Uhungarumlaut" unicode="&#x170;" horiz-adv-x="1521" 
d="M1159 1749q-50 -31 -174 -79t-278 -93l-2 4q79 144 166 251.5t137 139.5q44 27 84 27q57 0 96 -38.5t39 -94.5q0 -35 -18.5 -66.5t-49.5 -50.5zM1157 1577l-2 4q79 144 166 251.5t137 139.5q44 27 84 27q57 0 96 -38.5t39 -94.5q0 -35 -18 -66.5t-49 -50.5
q-49 -31 -174 -78.5t-279 -93.5zM1174 1503v4h493v-4q-110 -19 -154 -66.5t-67 -174.5l-141 -801q-38 -217 -181.5 -349t-341.5 -132q-308 0 -456 98.5t-148 298.5q0 47 15 135l131 750q12 62 12 104q0 65 -33 95t-113 42v4h779v-4q-132 -19 -183.5 -66.5t-74.5 -174.5
l-144 -811q-12 -71 -12 -132q0 -148 62.5 -231.5t177.5 -83.5q182 0 317 126t170 331l133 760q10 65 10 100q0 93 -54.5 131.5t-196.5 50.5z" />
    <glyph glyph-name="uhungarumlaut" unicode="&#x171;" horiz-adv-x="1294" 
d="M897 1421q-51 -43 -168.5 -109t-261.5 -122l-4 4q64 145 135 261.5t113 158.5q45 45 102 45q53 0 93 -39t40 -92q0 -64 -49 -107zM1223 1659q53 0 93 -39t40 -92q0 -64 -49 -107q-51 -43 -168.5 -109t-261.5 -122l-5 4q64 145 135 261.5t113 158.5q45 45 103 45z
M1098 184q32 0 69.5 40.5t67.5 103.5l4 -2q-44 -156 -143 -251t-219 -95q-83 0 -135 41.5t-52 128.5q0 22 6 57l70 385q-43 -142 -95 -252t-101.5 -176.5t-102.5 -109t-97 -58.5t-87 -16q-79 0 -129 45t-50 131q0 22 5 53l108 647q2 12 2 23q0 34 -29 34q-32 0 -69.5 -40
t-67.5 -103l-4 2q44 156 143.5 251t219.5 95q83 0 134.5 -41.5t51.5 -128.5q0 -22 -6 -57l-109 -625q-2 -12 -2 -22q0 -37 33 -37q70 0 159 202t154 533l27 156h369l-152 -856q-2 -12 -2 -23q0 -35 29 -35z" />
    <glyph glyph-name="Uogonek" unicode="&#x172;" horiz-adv-x="1521" 
d="M1174 1507h493v-4q-110 -19 -154 -66.5t-67 -174.5l-141 -801q-34 -190 -150 -317t-281 -156q-78 -55 -128 -127t-50 -131q0 -31 20 -50.5t52 -19.5q45 0 109 33l2 -4q-43 -39 -117.5 -74t-151.5 -35q-88 0 -141 34t-53 91q0 79 98 149t287 126h-19q-308 0 -456 98.5
t-148 298.5q0 47 15 135l131 750q12 62 12 104q0 65 -33 95t-113 42v4h779v-4q-132 -19 -183.5 -66.5t-74.5 -174.5l-144 -811q-12 -71 -12 -132q0 -148 62.5 -231.5t177.5 -83.5q182 0 317 126t170 331l133 760q10 65 10 100q0 93 -54.5 131.5t-196.5 50.5v4z" />
    <glyph glyph-name="uogonek" unicode="&#x173;" horiz-adv-x="1294" 
d="M1239 326q-31 -107 -89.5 -188t-133.5 -122q-113 -176 -113 -286q0 -31 20 -50.5t52 -19.5q44 0 108 33l2 -4q-43 -40 -117 -74.5t-151 -34.5q-88 0 -141 34t-53 91q0 149 317 283q-27 -8 -63 -8q-83 0 -135 41.5t-52 128.5q0 22 6 57l70 385q-43 -142 -95 -252
t-101.5 -176.5t-102.5 -109t-97 -58.5t-87 -16q-79 0 -129 45t-50 131q0 22 5 53l108 647q2 12 2 23q0 34 -29 34q-32 0 -69.5 -40t-67.5 -103l-4 2q44 156 143.5 251t219.5 95q83 0 134.5 -41.5t51.5 -128.5q0 -22 -6 -57l-109 -625q-2 -12 -2 -22q0 -37 33 -37
q70 0 159 202t154 533l27 156h369l-152 -856q-2 -12 -2 -23q0 -35 29 -35q32 0 69.5 40.5t67.5 103.5z" />
    <glyph glyph-name="Wcircumflex" unicode="&#x174;" horiz-adv-x="2203" 
d="M1427 1733l-327 -123l-2 4l370 352h2l248 -352l-2 -4zM1829 1507h559v-4q-49 -7 -84.5 -25.5t-70 -59t-61 -82.5t-71.5 -124l-686 -1232h-45l-211 978l-526 -978h-43l-271 1312q-15 71 -24.5 105t-27.5 61.5t-43 35.5t-68 9v4h868v-4q-139 -14 -206.5 -61.5t-67.5 -151.5
q0 -30 14 -102l139 -660l535 1000h4l223 -1053l295 535q71 126 101 196.5t30 132.5q0 82 -61 118.5t-201 45.5v4z" />
    <glyph glyph-name="wcircumflex" unicode="&#x175;" horiz-adv-x="1595" 
d="M946 1393l-356 -191l-4 4l407 453h2l248 -453l-4 -4zM1454 1118q69 0 111.5 -45.5t42.5 -118.5q0 -77 -41 -180.5t-102 -202.5t-147 -213.5t-159 -200.5t-155 -177h-46l-118 481q-149 -217 -389 -481h-45l-236 886q-10 43 -39 43q-51 0 -123 -139l-4 2q57 170 133.5 258
t179.5 88q87 0 150 -51.5t90 -153.5l156 -594q34 45 118 170l-149 609h399l185 -779l49 68v696q49 35 139 35z" />
    <glyph glyph-name="Ycircumflex" unicode="&#x176;" horiz-adv-x="1492" 
d="M1087 1733l-327 -123l-2 4l370 352h2l248 -352l-2 -4zM1104 1507h586v-4q-113 -15 -208.5 -99t-236.5 -296l-287 -428l-75 -434q-11 -72 -11 -99q0 -69 36.5 -100t127.5 -43v-4h-778v4q122 19 168.5 66.5t69.5 175.5l77 442l-172 524q-18 54 -27 80.5t-24.5 66t-28.5 59
t-31.5 41t-39.5 31.5t-47 13v4h811v-4q-91 -8 -144 -53t-53 -121q0 -35 35 -168l119 -420l190 283q101 150 135.5 219.5t34.5 122.5q0 67 -55.5 99t-171.5 38v4z" />
    <glyph glyph-name="ycircumflex" unicode="&#x177;" horiz-adv-x="1228" 
d="M768 1393l-356 -191l-4 4l407 453h2l248 -453l-4 -4zM854 1098h369l-93 -510q-55 -302 -180.5 -533.5t-301 -358t-374.5 -126.5q-103 0 -161 47.5t-58 126.5q0 48 23 86l686 4q52 71 66 182t-3 267l-39 393q-43 -162 -97 -287.5t-105.5 -200.5t-108 -123.5t-103 -66.5
t-91.5 -18q-79 0 -129 45t-50 131q0 22 5 53l108 647q2 12 2 23q0 34 -29 34q-32 0 -69.5 -40t-67.5 -103l-4 2q44 156 143.5 251t219.5 95q83 0 134.5 -41.5t51.5 -128.5q0 -22 -6 -57l-109 -625q-2 -12 -2 -22q0 -37 33 -37q70 0 159 202t154 533z" />
    <glyph glyph-name="Ydieresis" unicode="&#x178;" horiz-adv-x="1492" 
d="M905 1618q-70 0 -112.5 41.5t-42.5 107.5q0 71 52.5 125t123.5 54q68 0 109.5 -41.5t41.5 -106.5q0 -72 -51 -126t-121 -54zM1274 1618q-70 0 -113 41.5t-43 107.5q0 71 52.5 125t123.5 54q68 0 110 -41.5t42 -106.5q0 -72 -51 -126t-121 -54zM1104 1507h586v-4
q-113 -15 -208.5 -99t-236.5 -296l-287 -428l-75 -434q-11 -72 -11 -99q0 -69 36.5 -100t127.5 -43v-4h-778v4q122 19 168.5 66.5t69.5 175.5l77 442l-172 524q-18 54 -27 80.5t-24.5 66t-28.5 59t-31.5 41t-39.5 31.5t-47 13v4h811v-4q-91 -8 -144 -53t-53 -121
q0 -35 35 -168l119 -420l190 283q101 150 135.5 219.5t34.5 122.5q0 67 -55.5 99t-171.5 38v4z" />
    <glyph glyph-name="Zacute" unicode="&#x179;" horiz-adv-x="1402" 
d="M1184 1710q-111 -52 -473 -100l-2 4q101 129 203.5 220.5t158.5 117.5q32 14 66 14q58 0 95.5 -39t37.5 -92q0 -39 -22.5 -72t-63.5 -53zM682 20q82 0 140 7t118.5 27t107.5 56.5t97 96.5t96.5 146.5t97.5 205.5l4 -2l-161 -567q-263 10 -768 10h-480v6l1110 1481h-253
q-92 0 -156.5 -11.5t-130 -43.5t-120.5 -92.5t-114 -155t-125 -234.5l-4 2l219 566q225 -11 717 -11h432l2 -4l-1110 -1483h281z" />
    <glyph glyph-name="zacute" unicode="&#x17a;" horiz-adv-x="1050" 
d="M913 1386q-51 -32 -178.5 -76t-285.5 -77l-3 4q86 128 176 229t142 142q38 28 82 28q58 0 97.5 -40t39.5 -91q0 -35 -19.5 -67.5t-50.5 -51.5zM840 281q75 0 109.5 15.5t62.5 61.5l4 -2q-21 -90 -47.5 -154.5t-67 -117t-99.5 -78.5t-138 -26q-234 0 -547 155l-150 -145
l-14 14l805 784h-281q-142 0 -219 -11.5t-120 -39t-70 -82.5l-5 2l164 451q215 -10 621 -10h250l2 -4l-701 -682q111 -60 237.5 -95.5t203.5 -35.5z" />
    <glyph glyph-name="Zdotaccent" unicode="&#x17b;" horiz-adv-x="1402" 
d="M956 1577q-88 0 -144 53.5t-56 136.5q0 92 64 153.5t161 61.5q86 0 142.5 -53.5t56.5 -136.5q0 -92 -64.5 -153.5t-159.5 -61.5zM682 20q82 0 140 7t118.5 27t107.5 56.5t97 96.5t96.5 146.5t97.5 205.5l4 -2l-161 -567q-263 10 -768 10h-480v6l1110 1481h-253
q-92 0 -156.5 -11.5t-130 -43.5t-120.5 -92.5t-114 -155t-125 -234.5l-4 2l219 566q225 -11 717 -11h432l2 -4l-1110 -1483h281z" />
    <glyph glyph-name="zdotaccent" unicode="&#x17c;" horiz-adv-x="1050" 
d="M680 1208q-88 0 -144.5 54t-56.5 137q0 92 64.5 153.5t161.5 61.5q86 0 142 -54t56 -137q0 -92 -64 -153.5t-159 -61.5zM840 281q75 0 109.5 15.5t62.5 61.5l4 -2q-21 -90 -47.5 -154.5t-67 -117t-99.5 -78.5t-138 -26q-234 0 -547 155l-150 -145l-14 14l805 784h-281
q-142 0 -219 -11.5t-120 -39t-70 -82.5l-5 2l164 451q215 -10 621 -10h250l2 -4l-701 -682q111 -60 237.5 -95.5t203.5 -35.5z" />
    <glyph glyph-name="Zcaron" unicode="&#x17d;" horiz-adv-x="1402" 
d="M940 1610h-2l-248 352l2 4l289 -123l328 123l2 -4zM682 20q82 0 140 7t118.5 27t107.5 56.5t97 96.5t96.5 146.5t97.5 205.5l4 -2l-161 -567q-263 10 -768 10h-480v6l1110 1481h-253q-92 0 -156.5 -11.5t-130 -43.5t-120.5 -92.5t-114 -155t-125 -234.5l-4 2l219 566
q225 -11 717 -11h432l2 -4l-1110 -1483h281z" />
    <glyph glyph-name="zcaron" unicode="&#x17e;" horiz-adv-x="1050" 
d="M653 1174h-2l-248 452l5 4l292 -190l357 190l4 -4zM840 281q75 0 109.5 15.5t62.5 61.5l4 -2q-21 -90 -47.5 -154.5t-67 -117t-99.5 -78.5t-138 -26q-234 0 -547 155l-150 -145l-14 14l805 784h-281q-142 0 -219 -11.5t-120 -39t-70 -82.5l-5 2l164 451q215 -10 621 -10
h250l2 -4l-701 -682q111 -60 237.5 -95.5t203.5 -35.5z" />
    <glyph glyph-name="florin" unicode="&#x192;" horiz-adv-x="1099" 
d="M1110 1262h-485q-11 -37 -11 -68q0 -41 13.5 -83.5t38.5 -83t44.5 -66.5t47.5 -60q45 -54 61 -121h252l-6 -20h-242q2 -12 2 -39q0 -106 -65.5 -238.5t-161.5 -242.5t-212.5 -185t-209.5 -75q-71 0 -112 36.5t-41 98.5q0 69 36 131h471q5 40 5 51q0 47 -20 100.5
t-35.5 79.5t-59.5 96q-62 99 -70 187h-241l8 20h231v8q0 106 66 238.5t162 242t211.5 184.5t207.5 75q72 0 113 -36.5t41 -98.5q0 -61 -39 -131z" />
    <glyph glyph-name="AEacute" unicode="&#x1fc;" horiz-adv-x="2172" 
d="M1712 1710q-111 -52 -473 -100l-2 4q101 129 203.5 220.5t158.5 117.5q32 14 66 14q58 0 95.5 -39t37.5 -92q0 -39 -22.5 -72t-63.5 -53zM2148 578l4 -3l-278 -585q-176 10 -498 10h-733v4q109 17 153.5 65.5t67.5 176.5l90 512h-473l-170 -307q-77 -140 -106 -207
t-29 -113q0 -64 58.5 -91.5t187.5 -35.5v-4h-524v4q94 18 155 74t150 217l669 1212h742q279 0 465 11l55 -566l-4 -2q-11 89 -27 159t-40.5 124.5t-52 94.5t-68 68t-82.5 45.5t-101 28t-118.5 14t-139.5 3.5h-31l-124 -709h55q76 0 125.5 13.5t97.5 55t88 118t86 202.5h4
q-93 -472 -145 -819h-4v14q0 105 -10 176t-28 114.5t-51.5 67t-71 31t-95.5 7.5h-54l-98 -553q-12 -61 -12 -99q0 -50 22.5 -68t77.5 -18h13q123 0 206.5 11.5t166.5 44.5t150 95.5t135.5 161t143.5 245.5zM492 778h466l86 484q9 50 9 81q0 69 -37 101.5t-129 46.5z" />
    <glyph glyph-name="aeacute" unicode="&#x1fd;" horiz-adv-x="1708" 
d="M1346 1386q-51 -32 -179 -76t-286 -77l-2 4q86 128 176 229.5t141 141.5q38 28 82 28q58 0 97.5 -40t39.5 -91q0 -35 -19 -67.5t-50 -51.5zM1362 205q70 0 148.5 30t138.5 80l4 -2q-85 -151 -233 -242t-308 -91q-202 0 -318 118t-116 320v35q-55 -183 -113 -286.5
t-123 -145t-155 -41.5q-117 0 -183.5 101t-66.5 275q0 213 77 388t211.5 274.5t299.5 99.5q88 0 157.5 -48.5t110.5 -129.5q188 178 446 178q169 0 266 -59.5t97 -161.5q0 -69 -57 -129t-153 -102.5t-202.5 -72t-224.5 -48.5v-10q0 -152 79 -241t218 -89zM1333 1094
q-62 0 -123 -78t-100.5 -201t-44.5 -250q155 80 243.5 197t88.5 256q0 34 -17.5 55t-46.5 21zM500 207q40 0 76.5 61.5t87.5 228.5t124 476q-9 52 -33.5 79t-56.5 27q-70 0 -133.5 -88.5t-102 -234t-38.5 -305.5q0 -244 76 -244z" />
    <glyph glyph-name="uni0218" unicode="&#x218;" horiz-adv-x="1306" 
d="M547 -20q-74 0 -142.5 19t-122.5 38.5t-92 19.5q-40 0 -63.5 -13.5t-54.5 -53.5h-4l-7 559l5 2q52 -247 183 -397t294 -150q140 0 229.5 77t89.5 198q0 51 -21.5 95t-64 81t-87 65.5t-109.5 61.5q-41 21 -61.5 32t-60 33t-60.5 37t-53.5 39.5t-50.5 45t-40.5 49.5
t-33.5 57t-19 63t-8 72q0 146 79 265t218 186t311 67q68 0 134.5 -20t120 -40t89.5 -20q68 0 115 70h2l6 -541l-4 -2q-35 236 -166 382t-301 146q-103 0 -176.5 -67t-73.5 -162q0 -55 23.5 -103t68.5 -87.5t91 -68t112 -61.5q56 -28 94.5 -49.5t88 -53t81.5 -63.5t62 -71.5
t44.5 -87t14.5 -101.5q0 -150 -89.5 -275.5t-246 -199t-344.5 -73.5zM379 -430l-2 4q57 15 89 46t32 71q0 34 -30 52.5t-85 18.5q-8 20 -8 43q0 63 56 109.5t132 46.5q69 0 110.5 -36.5t41.5 -96.5q0 -100 -97 -170t-239 -88z" />
    <glyph glyph-name="uni0219" unicode="&#x219;" horiz-adv-x="1003" 
d="M641 688q54 -29 85.5 -47.5t76 -50t69 -59.5t42.5 -66.5t18 -79.5q0 -110 -69.5 -203t-190.5 -147.5t-264 -54.5q-196 0 -300 64.5t-104 176.5q0 85 56 130.5t135 45.5q64 0 100 -24v-365q50 -4 108 -4q96 0 155.5 46t59.5 116q0 33 -13 62t-30 50t-50.5 44.5t-58.5 37.5
t-69 37q-47 25 -71.5 39t-65 40t-63 48t-47 52.5t-35.5 65.5t-11 75q0 167 133 284t324 117q183 0 290 -62.5t107 -168.5q0 -75 -56 -115.5t-134 -40.5q-62 0 -100 25v331q-51 7 -97 7q-72 0 -127 -42.5t-55 -113.5q0 -40 19 -74.5t61 -67.5t76 -53.5t96 -54.5zM410 -39
q69 0 110 -36.5t41 -96.5q0 -100 -97 -170t-239 -88l-2 4q57 15 89 46t32 71q0 34 -30 52.5t-85 18.5q-8 20 -8 43q0 63 56.5 109.5t132.5 46.5z" />
    <glyph glyph-name="uni021A" unicode="&#x21a;" horiz-adv-x="1445" 
d="M1458 1546l49 -596l-4 -2q-20 115 -42 198t-50 143t-58.5 97.5t-73.5 60t-88.5 31t-109.5 9.5l-219 -1241q-10 -65 -10 -99q0 -68 36 -98.5t128 -44.5v-4h-778v4q121 17 168 65.5t69 176.5l219 1241q-97 -2 -164.5 -22t-139.5 -78.5t-142.5 -162.5t-161.5 -276l-4 2
l256 596h4q78 -23 162.5 -31t255.5 -8h266q160 0 249 6.5t179 32.5h4zM612 -39q69 0 110.5 -36.5t41.5 -96.5q0 -100 -97 -170t-239 -88l-2 4q57 15 89 46t32 71q0 34 -30 52.5t-85 18.5q-8 20 -8 43q0 63 56 109.5t132 46.5z" />
    <glyph glyph-name="uni021B" unicode="&#x21b;" horiz-adv-x="802" 
d="M625 1077l-138 -780q-6 -38 -6 -61q0 -39 17 -55.5t55 -16.5q118 0 207 153l4 -2q-76 -170 -184.5 -252.5t-231.5 -82.5q-113 0 -177.5 59t-64.5 160q0 26 5 57l145 821h-129l8 21h125l78 274h342l-51 -274h262l-8 -21h-258zM244 -39q69 0 110 -36.5t41 -96.5
q0 -100 -97 -170t-239 -88l-2 4q57 15 89 46t32 71q0 34 -30 52.5t-85 18.5q-8 20 -8 43q0 63 56.5 109.5t132.5 46.5z" />
    <glyph glyph-name="uni0237" unicode="&#x237;" horiz-adv-x="655" 
d="M424 1118q83 0 134.5 -41.5t51.5 -128.5q0 -22 -6 -57l-125 -715q-41 -242 -201 -409.5t-378 -196.5l-2 4q86 80 118.5 166t65.5 274l147 842q2 12 2 23q0 34 -28 34q-32 0 -69.5 -40t-67.5 -103l-5 2q44 156 143.5 251t219.5 95z" />
    <glyph glyph-name="circumflex" unicode="&#x2c6;" horiz-adv-x="1130" 
d="M838 1206l-4 -4l-293 191l-357 -191l-4 4l408 453h2z" />
    <glyph glyph-name="caron" unicode="&#x2c7;" horiz-adv-x="1228" 
d="M834 1630l4 -4l-408 -452h-2l-248 452l4 4l293 -190z" />
    <glyph glyph-name="breve" unicode="&#x2d8;" horiz-adv-x="1105" 
d="M418 1180q-107 0 -169 117t-73 337l4 2q35 -108 106.5 -170.5t170.5 -62.5q100 0 192.5 62t165.5 171l4 -2q-88 -219 -191.5 -336.5t-209.5 -117.5z" />
    <glyph glyph-name="dotaccent" unicode="&#x2d9;" horiz-adv-x="716" 
d="M309 1208q-88 0 -144 54t-56 137q0 92 64 153.5t161 61.5q86 0 142 -54t56 -137q0 -92 -64 -153.5t-159 -61.5z" />
    <glyph glyph-name="ring" unicode="&#x2da;" horiz-adv-x="1105" 
d="M539 1208q-105 0 -166.5 55t-61.5 146q0 105 76.5 177.5t187.5 72.5q105 0 166.5 -57t61.5 -152q0 -102 -76.5 -172t-187.5 -70zM543 1233q97 0 164 62t67 151q0 85 -55 136.5t-148 51.5q-97 0 -164 -64.5t-67 -156.5q0 -82 55 -131t148 -49z" />
    <glyph glyph-name="ogonek" unicode="&#x2db;" horiz-adv-x="1169" 
d="M489 -420q-88 0 -141 34t-53 91q0 89 122 165.5t355 133.5v-4q-84 -55 -140.5 -131.5t-56.5 -138.5q0 -31 20 -50.5t52 -19.5q45 0 109 33l2 -4q-43 -39 -117.5 -74t-151.5 -35z" />
    <glyph glyph-name="tilde" unicode="&#x2dc;" horiz-adv-x="1228" 
d="M692 1266q-75 0 -186 51t-184 51q-102 0 -152 -88l-4 2q34 128 117 219.5t182 91.5q72 0 180 -51t189 -51q100 0 153 88l2 -2q-35 -129 -117.5 -220t-179.5 -91z" />
    <glyph glyph-name="hungarumlaut" unicode="&#x2dd;" horiz-adv-x="1161" 
d="M186 1190l-4 4q64 145 135 261.5t113 158.5q45 45 102 45q53 0 93.5 -39t40.5 -92q0 -63 -50 -107q-51 -43 -168.5 -109t-261.5 -122zM596 1190l-4 4q64 145 135 261.5t113 158.5q45 45 102 45q53 0 93 -39t40 -92q0 -64 -49 -107q-51 -43 -168.5 -109t-261.5 -122z" />
    <glyph glyph-name="gravecomb" unicode="&#x300;" 
d="M-268 1151q-134 85 -240 171t-145 134q-33 39 -33 92q0 52 40 90.5t93 38.5q73 0 117 -63q33 -48 82.5 -176t89.5 -283z" />
    <glyph glyph-name="acutecomb" unicode="&#x301;" 
d="M-705 1233l-2 4q86 128 176 229t142 142q38 28 82 28q58 0 97.5 -40t39.5 -91q0 -35 -19.5 -67.5t-50.5 -51.5q-51 -32 -179 -76t-286 -77z" />
    <glyph glyph-name="uni0302" unicode="&#x302;" 
d="M-180 1206l-4 -4l-293 191l-357 -191l-4 4l408 453h2z" />
    <glyph glyph-name="tildecomb" unicode="&#x303;" 
d="M-463 1266q-75 0 -186 51t-185 51q-101 0 -151 -88l-4 2q34 128 117 219.5t182 91.5q72 0 180 -51t188 -51q101 0 154 88l2 -2q-35 -129 -117.5 -220t-179.5 -91z" />
    <glyph glyph-name="uni0304" unicode="&#x304;" 
d="M-850 1403l8 20h695l-9 -20h-694z" />
    <glyph glyph-name="uni0306" unicode="&#x306;" 
d="M-578 1180q-107 0 -168.5 117t-72.5 337l4 2q35 -109 106 -171t170 -62q100 0 193.5 62t165.5 171l4 -2q-88 -219 -192 -336.5t-210 -117.5z" />
    <glyph glyph-name="uni0307" unicode="&#x307;" 
d="M-344 1208q-88 0 -144.5 54t-56.5 137q0 92 64.5 153.5t161.5 61.5q86 0 142 -54t56 -137q0 -92 -64 -153.5t-159 -61.5z" />
    <glyph glyph-name="uni0308" unicode="&#x308;" 
d="M-702 1260q-70 0 -113 41.5t-43 107.5q0 71 52.5 124.5t123.5 53.5q68 0 110 -41t42 -106q0 -72 -51 -126t-121 -54zM-334 1260q-70 0 -112.5 41.5t-42.5 107.5q0 71 52.5 124.5t123.5 53.5q68 0 109.5 -41t41.5 -106q0 -72 -51 -126t-121 -54z" />
    <glyph glyph-name="uni030A" unicode="&#x30a;" 
d="M-575 1208q-105 0 -166.5 55t-61.5 146q0 105 76.5 177.5t187.5 72.5q105 0 166.5 -57t61.5 -152q0 -102 -76.5 -172t-187.5 -70zM-571 1233q97 0 164 62t67 151q0 85 -55 136.5t-148 51.5q-97 0 -164 -64.5t-67 -156.5q0 -82 55 -131t148 -49z" />
    <glyph glyph-name="uni030B" unicode="&#x30b;" 
d="M-975 1190l-4 4q64 145 135 261.5t113 158.5q45 45 102 45q53 0 93 -39t40 -92q0 -64 -49 -107q-51 -43 -168.5 -109t-261.5 -122zM-565 1190l-4 4q64 145 134.5 261.5t112.5 158.5q45 45 103 45q53 0 93 -39t40 -92q0 -64 -49 -107q-51 -43 -168.5 -109t-261.5 -122z
" />
    <glyph glyph-name="uni030C" unicode="&#x30c;" 
d="M-184 1630l4 -4l-408 -452h-2l-248 452l4 4l293 -190z" />
    <glyph glyph-name="uni0312" unicode="&#x312;" 
d="M-557 1206q-70 0 -111 36.5t-41 96.5q0 114 102 206t245 114l2 -4q-59 -23 -93 -66.5t-34 -95.5q0 -41 28 -64.5t82 -23.5q8 -24 8 -43q0 -63 -56 -109.5t-132 -46.5z" />
    <glyph glyph-name="uni0326" unicode="&#x326;" 
d="M-694 -430l-2 4q57 15 89 46t32 71q0 34 -30 52.5t-85 18.5q-8 20 -8 43q0 63 56 109.5t132 46.5q69 0 110.5 -36.5t41.5 -96.5q0 -100 -97 -170t-239 -88z" />
    <glyph glyph-name="uni0327" unicode="&#x327;" 
d="M-569 -430v4q58 26 87 52t29 61q0 50 -75 125l139 188h24l-41 -53q75 -43 121.5 -88t46.5 -99q0 -80 -86.5 -130.5t-244.5 -59.5z" />
    <glyph glyph-name="uni0328" unicode="&#x328;" 
d="M-594 -420q-88 0 -141 34t-53 91q0 89 122 165.5t355 133.5v-4q-84 -55 -140.5 -131.5t-56.5 -138.5q0 -31 20 -50.5t52 -19.5q44 0 108 33l2 -4q-43 -40 -117 -74.5t-151 -34.5z" />
    <glyph glyph-name="uni0394" unicode="&#x394;" horiz-adv-x="1302" 
d="M848 1528l377 -1522l-2 -6h-1336v6l918 1522h43zM-82 20h881l-246 1051z" />
    <glyph glyph-name="uni03A9" unicode="&#x3a9;" horiz-adv-x="1742" 
d="M1681 524h5l-152 -534q-245 10 -666 10h-55l-2 6q76 90 143 196t133 248.5t105 320.5t39 364q0 172 -50 270t-141 98q-77 0 -155 -86t-137.5 -222.5t-96.5 -315.5t-37 -355q0 -260 125 -518l-2 -6h-53q-410 0 -670 -10l35 534h4q6 -105 88 -140.5t308 -35.5h139
q-141 39 -251 177t-110 309q0 141 64.5 269.5t173.5 221.5t260.5 148t318.5 55q278 0 440.5 -135t162.5 -361q0 -111 -40.5 -215t-102.5 -180t-139 -138.5t-147.5 -98.5t-130.5 -52h140q68 0 112.5 1.5t95 7.5t83.5 17.5t66 31t56.5 49t40.5 69.5z" />
    <glyph glyph-name="uni03BC" unicode="&#x3bc;" horiz-adv-x="1228" 
d="M707 145l-5 -24q-47 -64 -125.5 -102.5t-162.5 -38.5q-152 0 -213 98q45 -106 63.5 -175t18.5 -153q0 -79 -42 -129.5t-112 -50.5q-46 0 -75 30t-29 76q0 50 122 631l78 443q11 68 11 92q0 50 -21.5 75.5t-73.5 40.5v5q371 108 514 155h4l-94 -532l-49 -285
q-6 -37 -6 -68q0 -124 102 -124q56 0 95 36zM1087 176q0 -41 21.5 -64t75.5 -32v-4q-261 -45 -502 -96h-4l135 770q10 62 10 92q0 50 -21 75.5t-73 40.5v5q371 108 514 155h4l-151 -862q-9 -47 -9 -80z" />
    <glyph glyph-name="pi" unicode="&#x3c0;" horiz-adv-x="1318" 
d="M1343 1098v-4q-81 -13 -109 -50t-44 -131l-119 -671q-2 -12 -2 -23q0 -35 29 -35q32 0 69.5 40.5t67.5 103.5l4 -2q-44 -156 -143 -251t-219 -95q-83 0 -135 41.5t-52 128.5q0 22 6 57l154 870h-219l-158 -893q-10 -62 -10 -88q0 -42 18.5 -62.5t61.5 -29.5v-4h-594v4
q74 12 106 48.5t49 131.5l129 729q9 49 9 80q0 48 -22.5 70t-76.5 31v4h1200z" />
    <glyph glyph-name="Wgrave" unicode="&#x1e80;" horiz-adv-x="2203" 
d="M1196 1710q-41 20 -63.5 53t-22.5 72q0 53 37.5 92t95.5 39q34 0 66 -14q56 -26 158.5 -117.5t203.5 -220.5l-2 -4q-362 48 -473 100zM1829 1507h559v-4q-49 -7 -84.5 -25.5t-70 -59t-61 -82.5t-71.5 -124l-686 -1232h-45l-211 978l-526 -978h-43l-271 1312
q-15 71 -24.5 105t-27.5 61.5t-43 35.5t-68 9v4h868v-4q-139 -14 -206.5 -61.5t-67.5 -151.5q0 -30 14 -102l139 -660l535 1000h4l223 -1053l295 535q71 126 101 196.5t30 132.5q0 82 -61 118.5t-201 45.5v4z" />
    <glyph glyph-name="wgrave" unicode="&#x1e81;" horiz-adv-x="1595" 
d="M1028 1151q-134 85 -240 171t-145 134q-33 39 -33 92q0 52 40 90.5t93 38.5q73 0 117 -63q33 -48 82.5 -176t89.5 -283zM1454 1118q69 0 111.5 -45.5t42.5 -118.5q0 -77 -41 -180.5t-102 -202.5t-147 -213.5t-159 -200.5t-155 -177h-46l-118 481q-149 -217 -389 -481h-45
l-236 886q-10 43 -39 43q-51 0 -123 -139l-4 2q57 170 133.5 258t179.5 88q87 0 150 -51.5t90 -153.5l156 -594q34 45 118 170l-149 609h399l185 -779l49 68v696q49 35 139 35z" />
    <glyph glyph-name="Wacute" unicode="&#x1e82;" horiz-adv-x="2203" 
d="M1655 1710q-111 -52 -473 -100l-2 4q101 129 203.5 220.5t158.5 117.5q32 14 66 14q58 0 95.5 -39t37.5 -92q0 -39 -22.5 -72t-63.5 -53zM1829 1507h559v-4q-49 -7 -84.5 -25.5t-70 -59t-61 -82.5t-71.5 -124l-686 -1232h-45l-211 978l-526 -978h-43l-271 1312
q-15 71 -24.5 105t-27.5 61.5t-43 35.5t-68 9v4h868v-4q-139 -14 -206.5 -61.5t-67.5 -151.5q0 -30 14 -102l139 -660l535 1000h4l223 -1053l295 535q71 126 101 196.5t30 132.5q0 82 -61 118.5t-201 45.5v4z" />
    <glyph glyph-name="wacute" unicode="&#x1e83;" horiz-adv-x="1595" 
d="M1169 1386q-51 -32 -178.5 -76t-285.5 -77l-3 4q86 128 176 229t142 142q38 28 82 28q58 0 97.5 -40t39.5 -91q0 -35 -19.5 -67.5t-50.5 -51.5zM1454 1118q69 0 111.5 -45.5t42.5 -118.5q0 -77 -41 -180.5t-102 -202.5t-147 -213.5t-159 -200.5t-155 -177h-46l-118 481
q-149 -217 -389 -481h-45l-236 886q-10 43 -39 43q-51 0 -123 -139l-4 2q57 170 133.5 258t179.5 88q87 0 150 -51.5t90 -153.5l156 -594q34 45 118 170l-149 609h399l185 -779l49 68v696q49 35 139 35z" />
    <glyph glyph-name="Wdieresis" unicode="&#x1e84;" horiz-adv-x="2203" 
d="M1245 1618q-70 0 -112.5 41.5t-42.5 107.5q0 71 52.5 125t123.5 54q68 0 109.5 -41.5t41.5 -106.5q0 -72 -51 -126t-121 -54zM1614 1618q-70 0 -113 41.5t-43 107.5q0 71 52.5 125t123.5 54q68 0 110 -41.5t42 -106.5q0 -72 -51 -126t-121 -54zM1829 1507h559v-4
q-49 -7 -84.5 -25.5t-70 -59t-61 -82.5t-71.5 -124l-686 -1232h-45l-211 978l-526 -978h-43l-271 1312q-15 71 -24.5 105t-27.5 61.5t-43 35.5t-68 9v4h868v-4q-139 -14 -206.5 -61.5t-67.5 -151.5q0 -30 14 -102l139 -660l535 1000h4l223 -1053l295 535q71 126 101 196.5
t30 132.5q0 82 -61 118.5t-201 45.5v4z" />
    <glyph glyph-name="wdieresis" unicode="&#x1e85;" horiz-adv-x="1595" 
d="M760 1260q-70 0 -113 41.5t-43 107.5q0 71 52.5 124.5t123.5 53.5q68 0 110 -41t42 -106q0 -72 -51 -126t-121 -54zM1128 1260q-70 0 -112.5 41.5t-42.5 107.5q0 71 52.5 124.5t123.5 53.5q68 0 109.5 -41t41.5 -106q0 -72 -51 -126t-121 -54zM1454 1118
q69 0 111.5 -45.5t42.5 -118.5q0 -77 -41 -180.5t-102 -202.5t-147 -213.5t-159 -200.5t-155 -177h-46l-118 481q-149 -217 -389 -481h-45l-236 886q-10 43 -39 43q-51 0 -123 -139l-4 2q57 170 133.5 258t179.5 88q87 0 150 -51.5t90 -153.5l156 -594q34 45 118 170
l-149 609h399l185 -779l49 68v696q49 35 139 35z" />
    <glyph glyph-name="uni1E9E" unicode="&#x1e9e;" horiz-adv-x="1552" 
d="M1157 1065q54 -54 94.5 -99t87 -107.5t75.5 -120.5t49 -129.5t20 -143.5q0 -209 -140 -347t-354 -138q-156 0 -233 112l2 4q60 -37 137 -37q83 0 133.5 68.5t50.5 177.5q0 91 -46.5 193.5t-164.5 281.5l500 547q-44 81 -128.5 128.5t-199.5 47.5q-135 0 -239.5 -117.5
t-138.5 -308.5l-148 -831q-10 -65 -10 -101q0 -68 32.5 -99t110.5 -42v-4h-739v4q109 17 152.5 65t66.5 177l125 704q46 261 264.5 419.5t530.5 158.5q113 0 227 -36.5t184 -96.5v-4z" />
    <glyph glyph-name="Ygrave" unicode="&#x1ef2;" horiz-adv-x="1492" 
d="M856 1710q-41 20 -63.5 53t-22.5 72q0 53 37.5 92t95.5 39q34 0 66 -14q56 -26 158.5 -117.5t203.5 -220.5l-2 -4q-362 48 -473 100zM1104 1507h586v-4q-113 -15 -208.5 -99t-236.5 -296l-287 -428l-75 -434q-11 -72 -11 -99q0 -69 36.5 -100t127.5 -43v-4h-778v4
q122 19 168.5 66.5t69.5 175.5l77 442l-172 524q-18 54 -27 80.5t-24.5 66t-28.5 59t-31.5 41t-39.5 31.5t-47 13v4h811v-4q-91 -8 -144 -53t-53 -121q0 -35 35 -168l119 -420l190 283q101 150 135.5 219.5t34.5 122.5q0 67 -55.5 99t-171.5 38v4z" />
    <glyph glyph-name="ygrave" unicode="&#x1ef3;" horiz-adv-x="1228" 
d="M850 1151q-134 85 -240 171t-145 134q-33 39 -33 92q0 52 40 90.5t93 38.5q73 0 117 -63q33 -48 82.5 -176t89.5 -283zM854 1098h369l-93 -510q-55 -302 -180.5 -533.5t-301 -358t-374.5 -126.5q-103 0 -161 47.5t-58 126.5q0 48 23 86l686 4q52 71 66 182t-3 267
l-39 393q-43 -162 -97 -287.5t-105.5 -200.5t-108 -123.5t-103 -66.5t-91.5 -18q-79 0 -129 45t-50 131q0 22 5 53l108 647q2 12 2 23q0 34 -29 34q-32 0 -69.5 -40t-67.5 -103l-4 2q44 156 143.5 251t219.5 95q83 0 134.5 -41.5t51.5 -128.5q0 -22 -6 -57l-109 -625
q-2 -12 -2 -22q0 -37 33 -37q70 0 159 202t154 533z" />
    <glyph glyph-name="endash" unicode="&#x2013;" horiz-adv-x="1370" 
d="M115 594l8 20h1153l-8 -20h-1153z" />
    <glyph glyph-name="emdash" unicode="&#x2014;" horiz-adv-x="1779" 
d="M115 594l8 20h1563l-9 -20h-1562z" />
    <glyph glyph-name="quoteleft" unicode="&#x2018;" horiz-adv-x="604" 
d="M670 1659l2 -4q-101 -56 -164.5 -130.5t-63.5 -152.5q0 -61 44.5 -99.5t119.5 -41.5q33 -44 33 -111q0 -113 -80.5 -196.5t-189.5 -83.5q-102 0 -160.5 63t-58.5 168q0 177 145.5 341.5t372.5 246.5z" />
    <glyph glyph-name="quoteright" unicode="&#x2019;" horiz-adv-x="604" 
d="M186 840l-2 4q101 56 164.5 130t63.5 152q0 62 -44.5 100.5t-119.5 41.5q-33 44 -33 110q0 113 80.5 197t189.5 84q102 0 161 -63.5t59 -168.5q0 -177 -145.5 -341t-373.5 -246z" />
    <glyph glyph-name="quotesinglbase" unicode="&#x201a;" horiz-adv-x="626" 
d="M-12 -369l-2 4q101 56 164 130.5t63 152.5q0 61 -44.5 99.5t-119.5 41.5q-33 44 -33 111q0 113 81 197t190 84q102 0 160.5 -63.5t58.5 -168.5q0 -177 -145.5 -341.5t-372.5 -246.5z" />
    <glyph glyph-name="quotedblleft" unicode="&#x201c;" horiz-adv-x="1157" 
d="M670 1659l2 -4q-101 -56 -164.5 -130.5t-63.5 -152.5q0 -61 44.5 -99.5t119.5 -41.5q33 -44 33 -111q0 -113 -80.5 -196.5t-189.5 -83.5q-102 0 -160.5 63t-58.5 168q0 177 145.5 341.5t372.5 246.5zM1223 1659l2 -4q-101 -56 -164.5 -130.5t-63.5 -152.5
q0 -61 44.5 -99.5t119.5 -41.5q33 -44 33 -111q0 -113 -80.5 -196.5t-189.5 -83.5q-102 0 -160.5 63t-58.5 168q0 177 145.5 341.5t372.5 246.5z" />
    <glyph glyph-name="quotedblright" unicode="&#x201d;" horiz-adv-x="1157" 
d="M186 840l-2 4q101 56 164.5 130t63.5 152q0 62 -44.5 100.5t-119.5 41.5q-33 44 -33 110q0 113 80.5 197t189.5 84q102 0 161 -63.5t59 -168.5q0 -177 -145.5 -341t-373.5 -246zM739 840l-2 4q101 56 164.5 130t63.5 152q0 62 -44.5 100.5t-119.5 41.5q-33 44 -33 110
q0 113 80.5 197t189.5 84q102 0 160.5 -63.5t58.5 -168.5q0 -177 -145 -341t-373 -246z" />
    <glyph glyph-name="quotedblbase" unicode="&#x201e;" horiz-adv-x="1179" 
d="M-12 -369l-2 4q101 56 164 130.5t63 152.5q0 61 -44.5 99.5t-119.5 41.5q-33 44 -33 111q0 113 81 197t190 84q102 0 160.5 -63.5t58.5 -168.5q0 -177 -145.5 -341.5t-372.5 -246.5zM541 -369l-2 4q101 56 164 130.5t63 152.5q0 61 -44.5 99.5t-119.5 41.5
q-33 44 -33 111q0 113 81 197t190 84q102 0 160.5 -63.5t58.5 -168.5q0 -177 -145.5 -341.5t-372.5 -246.5z" />
    <glyph glyph-name="dagger" unicode="&#x2020;" horiz-adv-x="1017" 
d="M985 1325q41 0 66.5 -27t25.5 -67q0 -55 -40 -97t-93 -42q-114 0 -315 110q18 -211 18 -368q0 -105 -10.5 -180t-24.5 -113.5t-37.5 -60t-40.5 -25.5t-42 -4q-43 0 -71 27.5t-28 68.5q0 64 63 248t160 405q-239 -108 -352 -108q-41 0 -66.5 27t-25.5 67q0 55 40 97t93 42
q116 0 313 -108q-55 174 -55 280q0 80 41.5 121t100.5 41q42 0 70 -25.5t28 -64.5q0 -97 -168 -352q236 108 350 108z" />
    <glyph glyph-name="daggerdbl" unicode="&#x2021;" horiz-adv-x="1046" 
d="M1001 1325q41 0 66 -27t25 -67q0 -56 -40 -97.5t-94 -41.5q-114 0 -319 112q-245 -112 -360 -112q-41 0 -67 27t-26 67q0 55 41 97t95 42q114 0 311 -108q-53 177 -53 280q0 80 40 121t99 41q44 0 72 -25.5t28 -64.5q0 -101 -172 -352q239 108 354 108zM946 1018
q41 0 66.5 -27t25.5 -67q0 -55 -40 -97.5t-93 -42.5q-111 0 -313 109q55 -171 55 -279q0 -80 -40.5 -121.5t-100.5 -41.5q-42 0 -70 25.5t-28 64.5q0 97 167 352q-236 -109 -350 -109q-41 0 -66.5 27.5t-25.5 67.5q0 55 40 97t93 42q113 0 320 -113q247 113 360 113z" />
    <glyph glyph-name="bullet" unicode="&#x2022;" horiz-adv-x="935" 
d="M459 266q-151 0 -243.5 88t-92.5 228q0 146 110.5 253t262.5 107q150 0 242.5 -87.5t92.5 -227.5q0 -147 -110.5 -254t-261.5 -107z" />
    <glyph glyph-name="ellipsis" unicode="&#x2026;" horiz-adv-x="1859" 
d="M262 -20q-108 0 -175 63t-67 162q0 98 77.5 172t181.5 74q108 0 174.5 -63.5t66.5 -162.5q0 -98 -77 -171.5t-181 -73.5zM877 -20q-108 0 -175 63t-67 162t77 172.5t181 73.5q108 0 175 -63.5t67 -162.5q0 -98 -77 -171.5t-181 -73.5zM1491 -20q-108 0 -175 63t-67 162
t77 172.5t181 73.5q108 0 175 -63.5t67 -162.5q0 -98 -77 -171.5t-181 -73.5z" />
    <glyph glyph-name="perthousand" unicode="&#x2030;" horiz-adv-x="2635" 
d="M254 -27l-12 15l1454 1548l12 -14zM430 649q-131 0 -204.5 87t-73.5 235q0 149 58 275.5t157.5 200t216.5 73.5q128 0 202 -87t74 -235t-58 -274.5t-157 -200.5t-215 -74zM432 668q28 0 70.5 131.5t74 307t31.5 290.5q0 104 -28 104q-29 0 -72 -129t-75 -304t-32 -294
q0 -106 31 -106zM1309 -12q-131 0 -205 86.5t-74 234.5q0 149 58 275.5t157.5 200t216.5 73.5q129 0 203 -86.5t74 -234.5t-58 -274.5t-157 -200.5t-215 -74zM2128 -12q-131 0 -205 86.5t-74 234.5q0 149 58 275.5t157.5 200t216.5 73.5q129 0 203 -86.5t74 -234.5
t-58 -274.5t-157 -200.5t-215 -74zM1311 6q28 0 70.5 131.5t74 307t31.5 290.5q0 105 -29 105q-28 0 -71 -129t-75 -304t-32 -294q0 -107 31 -107zM2130 6q28 0 70.5 131.5t74 307t31.5 290.5q0 105 -29 105q-28 0 -71 -129t-75 -304t-32 -294q0 -107 31 -107z" />
    <glyph glyph-name="guilsinglleft" unicode="&#x2039;" horiz-adv-x="573" 
d="M580 1047l-258 -445l102 -444l-4 -2l-340 422l8 49l487 422z" />
    <glyph glyph-name="guilsinglright" unicode="&#x203a;" horiz-adv-x="571" 
d="M174 1049l338 -422l-8 -49l-488 -422l-4 2l258 444l-100 445z" />
    <glyph glyph-name="fraction" unicode="&#x2044;" horiz-adv-x="245" 
d="M-563 -27l-12 15l1454 1548l12 -14z" />
    <glyph glyph-name="Euro" unicode="&#x20ac;" horiz-adv-x="1398" 
d="M1421 1516h4l-96 -541h-4q0 162 -23 276t-74 180t-128 66q-114 0 -226 -167.5t-178 -422.5h394l-9 -20h-391q-29 -124 -43 -242h357l-9 -20h-350q-12 -102 -12 -203q0 -193 53.5 -302.5t151.5 -109.5q121 0 232.5 145t199.5 398h4l-100 -563h-5q-16 38 -33 51.5t-42 13.5
q-23 0 -73 -18.5t-116 -37.5t-129 -19q-257 0 -404 157.5t-147 427.5q0 40 2 60h-147l8 20h139q10 134 45 242h-145l8 20h144q89 278 298.5 449.5t473.5 171.5q68 0 123 -19t91 -38t56 -19q22 0 43 13t57 51z" />
    <glyph glyph-name="uni20BF" unicode="&#x20bf;" horiz-adv-x="1492" 
d="M926 772q219 -10 346 -98.5t127 -229.5q0 -118 -84.5 -220.5t-227 -163t-305.5 -60.5h-24l-37 -205h-23l37 205h-227l-37 -205h-20l36 205h-505v4q109 17 152.5 65t66.5 177l180 1016q10 68 10 102q0 66 -32.5 96.5t-112.5 42.5l2 4h506l28 162h21l-29 -162h166
q41 0 61 -2l29 164h23l-29 -166q194 -14 305 -93.5t111 -205.5q0 -166 -144 -285t-370 -147zM1020 1243q0 115 -54 179.5t-159 64.5l-125 -709q145 0 241.5 133t96.5 332zM639 20q85 0 164 67.5t127.5 178t48.5 228.5q0 124 -62.5 194t-183.5 70h-53l-98 -553
q-13 -76 -13 -109q0 -43 16 -59.5t52 -16.5h2z" />
    <glyph glyph-name="trademark" unicode="&#x2122;" horiz-adv-x="2037" 
d="M971 1233q-59 141 -111.5 194t-138.5 62v-565q0 -54 16.5 -76t69.5 -35v-4h-451v4q53 13 69.5 35t16.5 76v565q-83 -8 -137 -60.5t-112 -195.5l-5 2l78 293h2q83 -21 226 -21h176q142 0 225 21h2l78 -293zM1931 932q5 -59 21.5 -83t64.5 -36v-4h-458v4q59 14 78 35.5
t16 73.5l-31 436l-256 -559h-4l-258 585l-43 -430q-7 -72 20 -100.5t113 -40.5v-4h-244v4q52 14 67.5 39.5t20.5 79.5l43 438q6 66 -10.5 93.5t-66.5 39.5v4h346l157 -358l164 358h295v-4q-50 -11 -63.5 -38.5t-8.5 -94.5z" />
    <glyph glyph-name="oneeighth" unicode="&#x215b;" horiz-adv-x="1560" 
d="M1485 1536l12 -14l-1454 -1549l-12 15zM569 666v-4h-456v4q64 12 89.5 39.5t37.5 95.5l71 401q6 30 6 53q0 31 -13 44.5t-42 13.5q-17 0 -47 -6l-2 4q240 121 405 221h3l-129 -731q-7 -35 -7 -53q0 -38 19.5 -56t64.5 -26zM1483 690q0 -75 -66.5 -119t-167.5 -47l8 -4
q45 -26 69 -42.5t55.5 -45t46 -62t14.5 -73.5q0 -132 -107.5 -220.5t-267.5 -88.5q-125 0 -197.5 49t-72.5 131t65 127.5t162 48.5q-63 41 -99 89t-36 124q0 131 93.5 216t238.5 85q122 0 192 -46t70 -122zM1233 537q72 114 72 196q0 48 -23 77.5t-65 29.5q-43 0 -77 -45.5
t-34 -102.5q0 -50 32 -83.5t95 -71.5zM1071 6q55 0 96 46.5t41 109.5q0 22 -8.5 41.5t-17 32t-31.5 29.5t-34 23.5t-42 24.5q-4 3 -13 8.5t-13 8.5q-31 -40 -50.5 -96.5t-19.5 -108.5q0 -54 24.5 -86.5t67.5 -32.5z" />
    <glyph glyph-name="threeeighths" unicode="&#x215c;" horiz-adv-x="1617" 
d="M1542 1536l12 -14l-1454 -1549l-12 15zM725 979q0 -140 -156 -224t-454 -106v4q165 28 255.5 87t90.5 137q0 49 -38.5 75.5t-121.5 44.5v4l289 281h-201q-88 0 -131.5 -16t-67.5 -64l-4 2l123 328h2q85 -25 414 -25h106l3 -4l-308 -305q91 -27 145 -87.5t54 -131.5z
M1540 690q0 -75 -66 -119t-167 -47l8 -4q44 -26 68.5 -42.5t55.5 -45t45.5 -62t14.5 -73.5q0 -132 -107.5 -220.5t-267.5 -88.5q-125 0 -197.5 49t-72.5 131t65 127.5t162 48.5q-63 41 -99 89t-36 124q0 131 93.5 216t238.5 85q122 0 192 -46t70 -122zM1290 537
q72 114 72 196q0 48 -23 77.5t-65 29.5q-43 0 -77 -45.5t-34 -102.5q0 -50 32 -83.5t95 -71.5zM1128 6q56 0 97 46.5t41 109.5q0 22 -8.5 41.5t-17 32t-31.5 29.5t-34 23.5t-42 24.5q-4 3 -13.5 8.5t-13.5 8.5q-31 -40 -50.5 -96.5t-19.5 -108.5q0 -54 24.5 -86.5
t67.5 -32.5z" />
    <glyph glyph-name="fiveeighths" unicode="&#x215d;" horiz-adv-x="1597" 
d="M1522 1536l12 -14l-1454 -1549l-12 15zM709 993q0 -299 -611 -344v4q162 26 254 82t92 127q0 60 -67 91t-215 51v4l198 499h134q84 0 126.5 1t99.5 6t99 16h2l-96 -250h-436l-17 -41q226 -24 331.5 -81t105.5 -165zM1520 690q0 -75 -66.5 -119t-167.5 -47l8 -4
q45 -26 69 -42.5t55.5 -45t46 -62t14.5 -73.5q0 -132 -107.5 -220.5t-267.5 -88.5q-125 0 -197.5 49t-72.5 131t65 127.5t162 48.5q-63 41 -99 89t-36 124q0 131 93.5 216t237.5 85q122 0 192.5 -46t70.5 -122zM1270 537q71 112 71 196q0 48 -23 77.5t-65 29.5
q-43 0 -76.5 -45.5t-33.5 -102.5q0 -50 32 -83.5t95 -71.5zM1108 6q55 0 96 46.5t41 109.5q0 22 -8.5 41.5t-17 32t-31.5 29.5t-34 23.5t-42 24.5q-4 3 -13.5 8.5t-13.5 8.5q-31 -40 -50 -96.5t-19 -108.5q0 -54 24.5 -86.5t67.5 -32.5z" />
    <glyph glyph-name="seveneighths" unicode="&#x215e;" horiz-adv-x="1611" 
d="M1524 1536l12 -14l-1454 -1549l-12 15zM377 1280q-83 0 -125 -15t-70 -63l-4 2l123 328h2q92 -25 410 -25h188l2 -2q-297 -406 -399 -708q-50 -148 -174 -148q-92 0 -92 84q0 51 52 128.5t130.5 156t157.5 146t147 116.5h-348zM1522 690q0 -75 -66.5 -119t-167.5 -47
l8 -4q45 -26 69 -42.5t55.5 -45t46 -62t14.5 -73.5q0 -132 -107.5 -220.5t-267.5 -88.5q-125 0 -197.5 49t-72.5 131t65 127.5t162 48.5q-63 41 -99 89t-36 124q0 131 93.5 216t238.5 85q122 0 192 -46t70 -122zM1272 537q71 112 71 196q0 48 -23 77.5t-65 29.5
q-43 0 -76.5 -45.5t-33.5 -102.5q0 -50 32 -83.5t95 -71.5zM1110 6q55 0 96 46.5t41 109.5q0 22 -8.5 41.5t-17 32t-31.5 29.5t-34 23.5t-42 24.5q-4 3 -13.5 8.5t-13.5 8.5q-31 -40 -50 -96.5t-19 -108.5q0 -54 24.5 -86.5t67.5 -32.5z" />
    <glyph glyph-name="partialdiff" unicode="&#x2202;" horiz-adv-x="1265" 
d="M459 1659q376 -109 568 -324.5t192 -529.5q0 -177 -52.5 -330.5t-145 -262t-223 -170.5t-282.5 -62q-226 0 -356.5 116t-130.5 314q0 171 80 320.5t215 238t290 88.5q122 0 201 -70v27q0 240 -83.5 386t-274.5 255zM522 4q64 0 135 170t115 412q16 101 16 202
q0 107 -23 166.5t-65 59.5q-58 0 -120.5 -122t-104 -306.5t-41.5 -352.5q0 -108 23 -168.5t65 -60.5z" />
    <glyph glyph-name="emptyset" unicode="&#x2205;" horiz-adv-x="1447" 
d="M1462 1235l-194 -172q92 -128 92 -313q0 -162 -57.5 -308.5t-156 -251.5t-235 -167t-288.5 -62q-270 0 -406 172l-197 -174l-16 16l199 177q-92 128 -92 311q0 162 57.5 308t156 251.5t235.5 167t290 61.5q266 0 403 -170l201 176zM139 465q0 -176 84 -295l1010 893
q-129 164 -387 164q-196 0 -358 -100.5t-255.5 -275.5t-93.5 -386zM1331 750q0 175 -84 294l-1009 -892q132 -166 389 -166q146 0 277 59.5t224.5 161t148 243t54.5 300.5z" />
    <glyph glyph-name="product" unicode="&#x220f;" horiz-adv-x="1695" 
d="M1792 1507v-4q-108 -17 -152.5 -65.5t-66.5 -175.5l-252 -1426q-10 -65 -10 -100q0 -67 32 -98.5t111 -43.5v-4h-739v4q109 17 152.5 65t66.5 177l291 1651h-424l-291 -1651q-10 -65 -10 -100q0 -67 32 -98.5t111 -43.5v-4h-739v4q109 17 152.5 65t66.5 177l252 1428
q10 65 10 98q0 67 -32.5 98t-112.5 43v4h1552z" />
    <glyph glyph-name="summation" unicode="&#x2211;" horiz-adv-x="1484" 
d="M1391 950q-15 120 -35 206.5t-50.5 146.5t-64 96t-85 55.5t-103 26t-127.5 6.5h-260l321 -778v-4l-729 -766h573q76 0 125 1.5t104 7.5t90 17.5t69.5 31t58 49t39.5 69.5h4l-154 -535q-267 10 -768 10h-497v7l768 806l-451 1100l4 4h432q493 0 719 11l21 -566z" />
    <glyph glyph-name="minus" unicode="&#x2212;" horiz-adv-x="970" 
d="M100 594l4 20h787l-4 -20h-787z" />
    <glyph glyph-name="radical" unicode="&#x221a;" horiz-adv-x="1431" 
d="M1636 1624l21 -10l-1229 -2044h-45l-229 907q-8 34 -11.5 46.5t-10.5 38t-10.5 33.5t-10.5 26t-12 23t-13.5 15.5t-17 13.5t-20.5 7.5t-25.5 6t-30.5 1.5v4h532l156 -663z" />
    <glyph glyph-name="infinity" unicode="&#x221e;" horiz-adv-x="1726" 
d="M1399 1118q130 0 204 -81t74 -218q0 -160 -74.5 -302t-199.5 -227t-266 -85q-70 0 -126.5 18.5t-98.5 54t-72 74.5t-60 94q-79 -112 -188 -176.5t-223 -64.5q-130 0 -204.5 81t-74.5 218q0 122 43.5 235.5t116.5 196.5t173 132.5t208 49.5q70 0 126 -18t98 -53
t71.5 -74.5t58.5 -93.5q80 111 190.5 175t223.5 64zM1362 500q128 0 208.5 89.5t80.5 231.5q0 122 -68.5 197.5t-187.5 75.5q-110 0 -214.5 -64.5t-181.5 -177.5l37 -78q29 -61 56.5 -104.5t66.5 -85t90 -63t113 -21.5zM373 229q109 0 213.5 64.5t181.5 177.5l-37 78
q-29 61 -56.5 104.5t-66 85t-89.5 63t-113 21.5q-127 0 -208 -88.5t-81 -228.5q0 -121 69 -199t187 -78z" />
    <glyph glyph-name="integral" unicode="&#x222b;" horiz-adv-x="839" 
d="M922 1393h-473q-13 -50 -13 -115q0 -92 27.5 -195t56 -168t82.5 -176q107 -223 107 -391q0 -157 -105.5 -341.5t-260 -310.5t-286.5 -126q-71 0 -112 36.5t-41 98.5q0 67 37 131h473q12 47 12 115q0 88 -26 187t-55.5 168t-84.5 183q-104 213 -104 390q0 118 63.5 258.5
t158.5 254.5t211.5 190.5t215.5 76.5q70 0 111.5 -36.5t41.5 -98.5q0 -65 -36 -131zM508 1511l10 11zM352 -287l-6 -6z" />
    <glyph glyph-name="approxequal" unicode="&#x2248;" horiz-adv-x="970" 
d="M696 651q-97 0 -241 51q-143 52 -232 52q-114 0 -170 -88l-4 2q35 127 126.5 219t199.5 92q101 0 231 -51q134 -51 242 -51q111 0 170 88l4 -2q-37 -128 -127.5 -220t-198.5 -92zM625 242q-98 0 -242 51t-233 51q-112 0 -168 -88l-5 2q36 128 126.5 219.5t199.5 91.5
q93 0 229 -51q137 -51 244 -51q111 0 170 88l2 -2q-37 -130 -126 -220.5t-197 -90.5z" />
    <glyph glyph-name="notequal" unicode="&#x2260;" horiz-adv-x="970" 
d="M911 741h-303l-196 -274h452l-4 -21h-465l-188 -262h-27l189 262h-295l4 21h307l197 274h-457l4 21h469l188 262h27l-188 -262h290z" />
    <glyph glyph-name="lessequal" unicode="&#x2264;" horiz-adv-x="970" 
d="M866 512l-739 229v4l821 230l-4 -23l-754 -209l680 -208zM43 268l4 21h787l-5 -21h-786z" />
    <glyph glyph-name="greaterequal" unicode="&#x2265;" horiz-adv-x="970" 
d="M94 512l4 23l754 208l-680 209l4 23l739 -230v-4zM45 268l4 21h787l-5 -21h-786z" />
    <glyph glyph-name="lozenge" unicode="&#x25ca;" horiz-adv-x="976" 
d="M391 0l-297 700l543 701h4l297 -701l-543 -700h-4zM399 43l510 657l-276 658l-512 -658z" />
    <glyph glyph-name="uniF8FF" unicode="&#xf8ff;" horiz-adv-x="2541" 
d="M117 -20q-15 0 -25 10.5t-10 25.5q0 21 10 31l701 698h-664q-47 0 -47 39q0 19 14 33l697 701h-670q-41 0 -41 38v3q0 38 41 38h758q47 0 47 -41q0 -17 -17 -34l-698 -697h676q17 0 29 -12t12 -29v-669l694 692q16 16 35 16q37 0 37 -45v-663l696 692q16 16 33 16
q15 0 25 -12t10 -27t-13 -28l-753 -762q-14 -14 -35 -14q-41 0 -41 47v663l-694 -696q-14 -14 -35 -14q-41 0 -41 47v663l-696 -696q-14 -14 -35 -14z" />
    <glyph glyph-name="uni00A40301" horiz-adv-x="804" 
d="M844 1710q-111 -52 -473 -100l-2 4q101 129 203.5 220.5t158.5 117.5q32 14 66 14q58 0 95.5 -39t37.5 -92q0 -39 -22.5 -72t-63.5 -53zM207 1507h739v-4q-109 -17 -154 -65.5t-67 -175.5l-135 -773q-46 -263 -231.5 -460.5t-438.5 -253.5l-2 4q76 64 119.5 126
t75.5 159.5t61 263.5l164 934q10 65 10 100q0 68 -31.5 98.5t-109.5 42.5v4z" />
    <glyph glyph-name="i.loclTRK" horiz-adv-x="698" 
d="M514 1614q86 0 142.5 -54t56.5 -137q0 -92 -64.5 -153.5t-159.5 -61.5q-88 0 -144 54t-56 137q0 92 64 153.5t161 61.5zM508 184q32 0 69.5 40.5t67.5 103.5l4 -2q-44 -156 -143 -251t-219 -95q-83 0 -135 41.5t-52 128.5q0 22 6 57l115 649q2 12 2 23q0 34 -28 34
q-32 0 -70 -40t-68 -103l-4 2q44 156 143.5 251t219.5 95q83 0 134.5 -41.5t51.5 -128.5q0 -22 -6 -57l-115 -649q-2 -12 -2 -23q0 -35 29 -35z" />
    <glyph glyph-name="uni006A0301" horiz-adv-x="655" 
d="M664 1636q58 0 97.5 -40t39.5 -91q0 -35 -19.5 -67.5t-50.5 -51.5q-51 -32 -179 -76t-286 -77l-2 4q86 128 176 229t142 142q38 28 82 28zM424 1118q83 0 134.5 -41.5t51.5 -128.5q0 -22 -6 -57l-125 -715q-41 -242 -201 -409.5t-378 -196.5l-2 4q86 80 118.5 166
t65.5 274l147 842q2 12 2 23q0 34 -28 34q-32 0 -69.5 -40t-67.5 -103l-5 2q44 156 143.5 251t219.5 95z" />
    <glyph glyph-name="f_b" horiz-adv-x="1908" 
d="M1626 1118q116 0 183 -101.5t67 -275.5q0 -213 -82.5 -387.5t-227 -274t-319.5 -99.5q-206 0 -313 108t-107 318q0 74 15 163l129 750q8 44 -14 59t-97 15h-383q-39 -82 -39 -154q0 -65 50.5 -103t136.5 -38h188l-8 -21h-184l-158 -901q-43 -242 -202.5 -409.5
t-377.5 -196.5l-2 4q86 82 119.5 168t65.5 272l178 1018q2 12 10 45h-125l8 21h125q25 67 72 144t110 150t131.5 133.5t143 97t137.5 36.5q70 0 112 -36.5t42 -98.5q0 -36 -17 -82q235 88 402 217h4l-205 -1155q64 240 126.5 373t133.5 187t172 54zM1214 4q70 0 134 90.5
t102.5 239.5t38.5 313q0 244 -76 244q-28 0 -52 -27t-54.5 -104t-63.5 -191t-86 -313q-22 -99 -22 -147q0 -105 79 -105z" />
    <glyph glyph-name="f_h" horiz-adv-x="1968" 
d="M1919 328l4 -2q-44 -156 -143 -251t-219 -95q-83 0 -135 41.5t-52 128.5q0 22 6 57l109 624q2 12 2 23q0 37 -33 37q-73 0 -164.5 -201.5t-160.5 -533.5l-27 -156h-369l234 1319q8 44 -14 59t-97 15h-383q-39 -82 -39 -154q0 -65 50.5 -103t136.5 -38h188l-8 -21h-184
l-158 -901q-43 -242 -202.5 -409.5t-377.5 -196.5l-2 4q86 82 119.5 168t65.5 272l178 1018q2 12 10 45h-125l8 21h125q25 67 72 144t110 150t131.5 133.5t143 97t137.5 36.5q70 0 112 -36.5t42 -98.5q0 -36 -17 -82q235 88 402 217h4l-207 -1174q44 146 97 260t104 183
t106.5 113t101 60.5t89.5 16.5q79 0 128.5 -45t49.5 -131q0 -28 -4 -53l-109 -647q-2 -12 -2 -23q0 -35 29 -35q32 0 69.5 40.5t67.5 103.5z" />
    <glyph glyph-name="f_hbar" horiz-adv-x="1968" 
d="M1919 328l4 -2q-44 -156 -143 -251t-219 -95q-83 0 -135 41.5t-52 128.5q0 22 6 57l109 624q2 12 2 23q0 37 -33 37q-73 0 -164.5 -201.5t-160.5 -533.5l-27 -156h-369l234 1319q8 44 -14 59t-97 15h-383q-39 -82 -39 -154q0 -65 50.5 -103t136.5 -38h188l-8 -21h-184
l-158 -901q-43 -242 -202.5 -409.5t-377.5 -196.5l-2 4q86 82 119.5 168t65.5 272l178 1018q2 12 10 45h-125l8 21h125q25 67 72 144t110 150t131.5 133.5t143 97t137.5 36.5q70 0 112 -36.5t42 -98.5q0 -36 -17 -82q235 88 402 217h4l-68 -379h266l-8 -20h-262l-135 -775
q44 146 97 260t104 183t106.5 113t101 60.5t89.5 16.5q79 0 128.5 -45t49.5 -131q0 -28 -4 -53l-109 -647q-2 -12 -2 -23q0 -35 29 -35q32 0 69.5 40.5t67.5 103.5z" />
    <glyph glyph-name="f_icircumflex" horiz-adv-x="1433" 
d="M791 1077h-170l-158 -901q-43 -242 -202.5 -409.5t-377.5 -196.5l-2 4q46 43 75 84.5t49.5 99t32 108.5t28.5 148l178 1018q2 12 10 45h-125l8 21h123q38 114 125.5 243t201 223.5t204.5 94.5q54 0 85 -34t31 -93q0 -62 -37 -139h-413q-41 -78 -41 -148
q0 -68 55.5 -107.5t153.5 -39.5h174zM1284 1659l248 -453l-4 -4l-293 191l-356 -191l-5 4l408 453h2zM1243 184q32 0 69.5 40.5t67.5 103.5l4 -2q-44 -156 -143 -251t-219 -95q-83 0 -134.5 41.5t-51.5 128.5q0 22 6 57l114 649q2 12 2 23q0 34 -28 34q-32 0 -69.5 -40
t-67.5 -103l-5 2q44 156 143.5 251t219.5 95q83 0 134.5 -41.5t51.5 -128.5q0 -22 -6 -57l-114 -649q-3 -18 -3 -23q0 -35 29 -35z" />
    <glyph glyph-name="f_idieresis" horiz-adv-x="1488" 
d="M416 1245q0 -68 55.5 -107.5t153.5 -39.5h174l-8 -21h-170l-158 -901q-43 -242 -202.5 -409.5t-377.5 -196.5l-2 4q46 43 75 84.5t49.5 99t32 108.5t28.5 148l178 1018q2 12 10 45h-125l8 21h123q38 114 125.5 243t201 223.5t204.5 94.5q54 0 85 -34t31 -93
q0 -62 -37 -139h-413q-41 -78 -41 -148zM1133 1272q-63 0 -100.5 37.5t-37.5 97.5q0 68 45.5 118t108.5 50q61 0 98 -37.5t37 -97.5q0 -69 -44.5 -118.5t-106.5 -49.5zM1462 1575q61 0 98 -37.5t37 -97.5q0 -69 -44.5 -118.5t-106.5 -49.5t-99.5 37t-37.5 98q0 68 45 118
t108 50zM1298 184q32 0 70 40.5t68 103.5l4 -2q-44 -156 -143.5 -251t-219.5 -95q-83 0 -134.5 41.5t-51.5 128.5q0 22 6 57l115 649q2 12 2 23q0 34 -29 34q-32 0 -69.5 -40t-67.5 -103l-4 2q44 156 143 251t219 95q83 0 135 -41.5t52 -128.5q0 -17 -7 -57l-114 -649
q-2 -12 -2 -23q0 -35 28 -35z" />
    <glyph glyph-name="f_igrave" horiz-adv-x="1454" 
d="M1399 1151q-134 85 -240 171t-145 134q-33 39 -33 92q0 52 40 90.5t93 38.5q73 0 117 -63q33 -48 82.5 -176t89.5 -283zM416 1245q0 -68 55.5 -107.5t153.5 -39.5h174l-8 -21h-170l-158 -901q-43 -242 -202.5 -409.5t-377.5 -196.5l-2 4q46 43 75 84.5t49.5 99t32 108.5
t28.5 148l178 1018q2 12 10 45h-125l8 21h123q38 114 125.5 243t201 223.5t204.5 94.5q54 0 85 -34t31 -93q0 -62 -37 -139h-413q-41 -78 -41 -148zM1401 328l4 -2q-44 -156 -143.5 -251t-219.5 -95q-83 0 -134.5 41.5t-51.5 128.5q0 22 6 57l115 649q2 12 2 23q0 34 -29 34
q-32 0 -69.5 -40t-67.5 -103l-4 2q44 156 143 251t219 95q83 0 135 -41.5t52 -128.5q0 -22 -6 -57l-115 -649q-2 -12 -2 -23q0 -35 29 -35q32 0 69.5 40.5t67.5 103.5z" />
    <glyph glyph-name="f_imacron" horiz-adv-x="1433" 
d="M985 1423h551l-8 -20h-1041q-51 -86 -51 -158q0 -68 50 -107.5t139 -39.5h174l-8 -21h-170l-158 -901q-43 -242 -202.5 -409.5t-377.5 -196.5l-2 4q46 43 75 84.5t49.5 99t32 108.5t28.5 148l178 1018q2 12 10 45h-125l8 21h125q31 83 97 181.5t145.5 182.5t168.5 140.5
t158 56.5q78 0 124 -42t46 -114q0 -40 -16 -80zM1243 184q32 0 69.5 40.5t67.5 103.5l4 -2q-44 -156 -143 -251t-219 -95q-83 0 -134.5 41.5t-51.5 128.5q0 22 6 57l114 649q2 12 2 23q0 34 -28 34q-32 0 -69.5 -40t-67.5 -103l-5 2q44 156 143.5 251t219.5 95
q83 0 134.5 -41.5t51.5 -128.5q0 -22 -6 -57l-114 -649q-3 -18 -3 -23q0 -35 29 -35z" />
    <glyph glyph-name="f_iogonek" horiz-adv-x="1433" 
d="M791 1077h-170l-158 -901q-43 -242 -202.5 -409.5t-377.5 -196.5l-2 4q46 43 75 84.5t49.5 99t32 108.5t28.5 148l178 1018q2 12 10 45h-125l8 21h123q38 114 125.5 243t201 223.5t204.5 94.5q54 0 85 -34t31 -93q0 -62 -37 -139h-413q-41 -78 -41 -148
q0 -68 55.5 -107.5t153.5 -39.5h174zM1249 1614q86 0 142.5 -54t56.5 -137q0 -92 -64 -153.5t-159 -61.5q-88 0 -144.5 54t-56.5 137q0 92 64 153.5t161 61.5zM1243 184q32 0 69.5 40.5t67.5 103.5l4 -2q-31 -107 -89.5 -188t-133.5 -122q-112 -175 -112 -286
q0 -31 19.5 -50.5t51.5 -19.5q45 0 109 33l2 -4q-43 -40 -117 -74.5t-151 -34.5q-88 0 -141.5 34t-53.5 91q0 149 317 283q-27 -8 -63 -8q-83 0 -134.5 41.5t-51.5 128.5q0 22 6 57l114 649q2 12 2 23q0 34 -28 34q-32 0 -69.5 -40t-67.5 -103l-5 2q44 156 143.5 251
t219.5 95q83 0 134.5 -41.5t51.5 -128.5q0 -22 -6 -57l-114 -649q-3 -18 -3 -23q0 -35 29 -35z" />
    <glyph glyph-name="f_j" horiz-adv-x="1361" 
d="M791 1077h-170l-158 -901q-43 -242 -202.5 -409.5t-377.5 -196.5l-2 4q46 43 75 84.5t49.5 99t32 108.5t28.5 148l178 1018q2 12 10 45h-125l8 21h123q38 114 125.5 243t201 223.5t204.5 94.5q54 0 85 -34t31 -93q0 -62 -37 -139h-413q-41 -78 -41 -148
q0 -68 55.5 -107.5t153.5 -39.5h174zM1229 1614q86 0 142 -54t56 -137q0 -92 -64 -153.5t-159 -61.5q-88 0 -144 54t-56 137q0 92 64 153.5t161 61.5zM1130 1118q83 0 135 -41.5t52 -128.5q0 -22 -6 -57l-125 -715q-41 -242 -201.5 -409.5t-378.5 -196.5l-2 4q37 35 63 71
t43.5 69t32 84t23 94.5t22.5 121.5l148 842q2 12 2 23q0 34 -29 34q-32 0 -69.5 -40t-67.5 -103l-4 2q44 156 143 251t219 95z" />
    <glyph glyph-name="f_k" horiz-adv-x="1970" 
d="M1954 319l4 -2q-34 -157 -119.5 -247t-206.5 -90q-90 0 -149.5 43t-100.5 139l-153 354q127 37 204.5 119t77.5 180q0 48 -21.5 78.5t-57.5 30.5q-86 0 -185 -129l-141 -795h-369l234 1319q8 44 -14 59t-97 15h-383q-39 -82 -39 -154q0 -65 50.5 -103t136.5 -38h188
l-8 -21h-184l-158 -901q-43 -242 -202.5 -409.5t-377.5 -196.5l-2 4q86 82 119.5 168t65.5 272l178 1018q2 12 10 45h-125l8 21h125q25 67 72 144t110 150t131.5 133.5t143 97t137.5 36.5q70 0 112 -36.5t42 -98.5q0 -36 -17 -82q240 92 402 217h4l-148 -834
q76 139 188.5 216t227.5 77q103 0 166 -51.5t63 -136.5q0 -80 -74.5 -164t-205.5 -148l135 -307q45 -102 96 -102q19 0 34.5 8.5t29.5 27t22 33t21 41.5z" />
    <glyph glyph-name="uni00660137" horiz-adv-x="1970" 
d="M1954 319l4 -2q-34 -157 -119.5 -247t-206.5 -90q-90 0 -149.5 43t-100.5 139l-153 354q127 37 204.5 119t77.5 180q0 48 -21.5 78.5t-57.5 30.5q-86 0 -185 -129l-141 -795h-369l234 1319q8 44 -14 59t-97 15h-383q-39 -82 -39 -154q0 -65 50.5 -103t136.5 -38h188
l-8 -21h-184l-158 -901q-43 -242 -202.5 -409.5t-377.5 -196.5l-2 4q86 82 119.5 168t65.5 272l178 1018q2 12 10 45h-125l8 21h125q25 67 72 144t110 150t131.5 133.5t143 97t137.5 36.5q70 0 112 -36.5t42 -98.5q0 -36 -17 -82q240 92 402 217h4l-148 -834
q76 139 188.5 216t227.5 77q103 0 166 -51.5t63 -136.5q0 -80 -74.5 -164t-205.5 -148l135 -307q45 -102 96 -102q19 0 34.5 8.5t29.5 27t22 33t21 41.5zM1270 -39q69 0 110 -36.5t41 -96.5q0 -100 -97 -170t-239 -88l-2 4q57 15 89 46t32 71q0 34 -29.5 52.5t-84.5 18.5
q-9 22 -9 43q0 63 56.5 109.5t132.5 46.5z" />
    <glyph glyph-name="f_lacute" horiz-adv-x="1370" 
d="M1419 2036q58 0 95.5 -39t37.5 -92q0 -39 -22.5 -72t-63.5 -53q-114 -53 -473 -101l-2 4q101 129 204 220.5t159 117.5q34 15 65 15zM1399 1659l-250 -1417q-2 -12 -2 -23q0 -35 29 -35q32 0 69.5 40.5t67.5 103.5l4 -2q-44 -156 -143.5 -251t-219.5 -95
q-83 0 -134.5 41.5t-51.5 128.5q0 22 6 57l197 1112q8 44 -14 59t-97 15h-383q-39 -82 -39 -154q0 -65 50.5 -103t136.5 -38h188l-8 -21h-184l-158 -901q-43 -242 -202.5 -409.5t-377.5 -196.5l-2 4q86 82 119.5 168t65.5 272l178 1018q2 12 10 45h-125l8 21h125
q25 67 72 144t110 150t131.5 133.5t143 97t137.5 36.5q70 0 112 -36.5t42 -98.5q0 -36 -17 -82q240 92 402 217h4z" />
    <glyph glyph-name="f_lcaron" horiz-adv-x="1400" 
d="M1399 1659l-250 -1417q-2 -12 -2 -23q0 -35 29 -35q32 0 69.5 40.5t67.5 103.5l4 -2q-44 -156 -143.5 -251t-219.5 -95q-83 0 -134.5 41.5t-51.5 128.5q0 22 6 57l197 1112q8 44 -14 59t-97 15h-383q-39 -82 -39 -154q0 -65 50.5 -103t136.5 -38h188l-8 -21h-184
l-158 -901q-43 -242 -202.5 -409.5t-377.5 -196.5l-2 4q86 82 119.5 168t65.5 272l178 1018q2 12 10 45h-125l8 21h125q25 67 72 144t110 150t131.5 133.5t143 97t137.5 36.5q70 0 112 -36.5t42 -98.5q0 -36 -17 -82q240 92 402 217h4zM1610 1659q70 0 110.5 -42t40.5 -112
q0 -99 -87.5 -193t-227.5 -145l-2 4q53 28 88 76t35 92q0 37 -30 63t-79 30q-22 28 -22 67q0 66 51 113t123 47z" />
    <glyph glyph-name="uni0066013C" horiz-adv-x="1370" 
d="M1176 184q32 0 69.5 40.5t67.5 103.5l4 -2q-44 -156 -143.5 -251t-219.5 -95q-83 0 -134.5 41.5t-51.5 128.5q0 22 6 57l197 1112q8 44 -14 59t-97 15h-383q-39 -82 -39 -154q0 -65 50.5 -103t136.5 -38h188l-8 -21h-184l-158 -901q-43 -242 -202.5 -409.5t-377.5 -196.5
l-2 4q86 82 119.5 168t65.5 272l178 1018q2 12 10 45h-125l8 21h125q25 67 72 144t110 150t131.5 133.5t143 97t137.5 36.5q70 0 112 -36.5t42 -98.5q0 -36 -17 -82q240 92 402 217h4l-250 -1417q-2 -12 -2 -23q0 -35 29 -35zM907 -39q69 0 110.5 -36.5t41.5 -96.5
q0 -100 -97 -170t-239 -88l-2 4q57 15 89 46t32 71q0 34 -30 52.5t-85 18.5q-8 20 -8 43q0 63 56 109.5t132 46.5z" />
    <glyph glyph-name="f_lslash" horiz-adv-x="1400" 
d="M1176 184q32 0 69.5 40.5t67.5 103.5l4 -2q-44 -156 -143.5 -251t-219.5 -95q-83 0 -134.5 41.5t-51.5 128.5q0 22 6 57l90 510l-102 -58l-10 23l118 63l101 574q8 44 -14 59t-97 15h-383q-39 -82 -39 -154q0 -65 50.5 -103t136.5 -38h188l-8 -21h-184l-158 -901
q-43 -242 -202.5 -409.5t-377.5 -196.5l-2 4q86 82 119.5 168t65.5 272l178 1018q2 12 10 45h-125l8 21h125q25 67 72 144t110 150t131.5 133.5t143 97t137.5 36.5q70 0 112 -36.5t42 -98.5q0 -36 -17 -82q240 92 402 217h4l-129 -727l127 69l10 -22l-141 -78l-117 -659
q-2 -12 -2 -23q0 -35 29 -35z" />
    <glyph glyph-name="f_thorn" horiz-adv-x="1910" 
d="M1626 1118q116 0 183 -101.5t67 -275.5q0 -213 -77 -387.5t-211.5 -274t-299.5 -99.5q-102 0 -174 59l-37 -213q-13 -73 8 -96.5t93 -34.5v-4q-305 -43 -510 -119h-4l307 1747q8 44 -14 59t-97 15h-383q-39 -82 -39 -154q0 -65 50.5 -103t136.5 -38h188l-8 -21h-184
l-158 -901q-43 -242 -202.5 -409.5t-377.5 -196.5l-2 4q86 82 119.5 168t65.5 272l178 1018q2 12 10 45h-125l8 21h125q25 67 72 144t110 150t131.5 133.5t143 97t137.5 36.5q70 0 112 -36.5t42 -98.5q0 -36 -17 -82q235 88 402 217h4l-199 -1135q62 232 123.5 361t132 181
t170.5 52zM1214 18q70 0 134 88.5t102.5 234.5t38.5 306q0 244 -76 244q-40 0 -75.5 -58t-82.5 -209t-112 -427l-15 -84q9 -45 33 -70t53 -25z" />
    <glyph glyph-name="zero.osf" horiz-adv-x="1247" 
d="M524 -20q-220 0 -345.5 120t-125.5 324q0 193 88.5 352t242.5 250.5t341 91.5q218 0 343.5 -120t125.5 -324q0 -193 -88.5 -352t-242 -250.5t-339.5 -91.5zM528 4q61 0 128.5 132.5t113 333t45.5 382.5q0 114 -24.5 178t-71.5 64q-61 0 -128 -133t-112 -333.5t-45 -381.5
q0 -115 24 -178.5t70 -63.5z" />
    <glyph glyph-name="one.osf" horiz-adv-x="759" 
d="M528 119q0 -60 32.5 -83.5t117.5 -31.5v-4h-723v4q115 10 155 51t62 170l74 412q12 65 12 111t-17.5 69t-58.5 23q-32 0 -100 -19l-2 4q359 165 618 314h4l-161 -914q-13 -70 -13 -106z" />
    <glyph glyph-name="two.osf" horiz-adv-x="1239" 
d="M1167 440h2l-127 -450q-228 10 -655 10h-426v6q130 108 250 191q71 49 114.5 81t103 79t95.5 84t71 81t51 87.5t16 86.5q0 58 -38.5 92.5t-101.5 34.5q-96 0 -189 -46.5t-157 -110.5l-4 2q104 190 281 320t342 130q134 0 212 -73t78 -191q0 -50 -14 -96.5t-36.5 -84.5
t-59.5 -75t-73.5 -65.5t-88.5 -57.5t-95.5 -49.5t-103 -44t-102 -38t-100.5 -34.5h344q209 0 292 26t119 105zM94 88l-69 -53z" />
    <glyph glyph-name="three.osf" horiz-adv-x="1062" 
d="M647 518q152 -43 243 -133t91 -211q0 -158 -128.5 -288t-361.5 -212.5t-536 -103.5v4q273 37 445.5 184t172.5 346q0 108 -66.5 172t-182.5 64q-50 0 -91 -6l-2 18q164 89 264.5 207.5t100.5 222.5q0 62 -43.5 100t-118.5 38q-74 0 -159.5 -34t-149.5 -87l-4 2
q110 141 267.5 229t309.5 88q134 0 212.5 -60.5t78.5 -162.5q0 -115 -96 -212t-246 -165z" />
    <glyph glyph-name="four.osf" horiz-adv-x="1314" 
d="M1227 31l-13 -31h-290l-68 -387l-373 -43h-4l76 430h-604v6l954 1092h213l-190 -1078q155 0 295 11h4zM-12 20h571l143 816z" />
    <glyph glyph-name="five.osf" horiz-adv-x="1363" 
d="M1108 778h-756l-69 -174q393 -39 577 -143t184 -297q0 -256 -268 -409t-778 -185v4q311 44 486 154t175 258q0 122 -128 184t-406 98v6l334 824h207q249 0 368.5 8.5t212.5 32.5h4z" />
    <glyph glyph-name="six.osf" horiz-adv-x="1277" 
d="M776 895q170 0 276.5 -98.5t106.5 -261.5q0 -156 -82.5 -283.5t-228.5 -199.5t-326 -72q-211 0 -332.5 124.5t-121.5 337.5q0 186 91.5 372.5t253 345.5t389 289.5t492.5 209.5l2 -4q-250 -129 -437 -335.5t-292 -463.5q97 39 209 39zM528 4q53 0 111.5 100t97.5 251.5
t39 289.5q0 98 -25.5 155.5t-72.5 57.5q-68 0 -137 -72q-97 -265 -97 -550q0 -110 21.5 -171t62.5 -61z" />
    <glyph glyph-name="seven.osf" horiz-adv-x="1339" 
d="M1300 1098l3 -4q-289 -383 -472.5 -700t-283.5 -613q-71 -211 -248 -211q-135 0 -135 121q0 86 86 230t218.5 297.5t284 302t289.5 257.5h-583q-75 0 -120 -4.5t-92 -20t-82.5 -48.5t-68.5 -87l-4 3l203 518h4q90 -26 237.5 -33.5t424.5 -7.5h339z" />
    <glyph glyph-name="eight.osf" horiz-adv-x="1304" 
d="M840 907q43 -26 67.5 -41.5t63.5 -42.5t61 -48t49.5 -52.5t42 -61.5t25 -68.5t10.5 -80.5q0 -148 -82.5 -270.5t-227 -192t-319.5 -69.5q-211 0 -333.5 86t-122.5 233q0 77 34 140.5t91.5 105.5t127 68t146.5 36q-105 69 -164 154t-59 211q0 224 156 369t397 145
q196 0 312 -79.5t116 -213.5q0 -140 -114 -225.5t-279 -100.5zM799 1503q-94 0 -161 -80t-67 -190q0 -53 19 -98.5t58 -84.5t76.5 -66.5t94.5 -63.5q154 207 154 378q0 95 -46 150t-128 55zM535 4q117 0 197.5 85.5t80.5 207.5q0 49 -18 90t-55 77t-72.5 61t-92.5 59
q-41 24 -81 51q-69 -85 -111.5 -195.5t-42.5 -206.5q0 -105 52.5 -167t142.5 -62z" />
    <glyph glyph-name="nine.osf" horiz-adv-x="1212" 
d="M686 1118q214 0 336.5 -125.5t122.5 -337.5q0 -164 -73 -329t-202 -307t-313 -259.5t-399 -189.5l-2 4q163 113 293 293t210 399q-101 -43 -219 -43q-171 0 -278 97.5t-107 257.5q0 152 82 276t226.5 194t322.5 70zM686 342q82 257 82 516q0 111 -22 173.5t-64 62.5
q-39 0 -82.5 -59t-78.5 -148t-58 -201.5t-23 -212.5q0 -96 26 -152.5t73 -56.5q72 0 147 78z" />
    <glyph glyph-name="zero.dnom" horiz-adv-x="813" 
d="M309 -12q-131 0 -204.5 86.5t-73.5 234.5q0 149 58 275.5t157.5 200t216.5 73.5q129 0 202.5 -86.5t73.5 -234.5t-58 -274.5t-157 -200.5t-215 -74zM311 6q28 0 70.5 131.5t74 307t31.5 290.5q0 105 -28 105t-71 -129t-75 -304t-32 -294q0 -107 30 -107z" />
    <glyph glyph-name="one.dnom" horiz-adv-x="550" 
d="M328 86q0 -38 19.5 -56t64.5 -26v-4h-457v4q64 12 89.5 39.5t37.5 95.5l72 402q6 30 6 53q0 30 -13 43.5t-43 13.5q-17 0 -47 -6l-2 4q246 124 406 221h2l-129 -731q-6 -30 -6 -53z" />
    <glyph glyph-name="two.dnom" horiz-adv-x="763" 
d="M664 305h4l-90 -311q-144 6 -447 6h-203l-2 4q84 84 164 150q45 38 73 62t72 68.5t69 80.5t45 83.5t20 90.5q0 48 -27 76t-74 28q-106 0 -196 -80l-4 2q79 133 188.5 213t208.5 80q90 0 142 -47.5t52 -124.5q0 -47 -18 -93.5t-43 -83t-68 -75t-78 -64t-88 -56.5t-82 -46
t-77 -39h182q143 0 200.5 15.5t76.5 60.5zM-29 33q-3 -2 -14 -13z" />
    <glyph glyph-name="three.dnom" horiz-adv-x="686" 
d="M385 537q91 -27 145 -88t54 -132q0 -140 -156.5 -223.5t-454.5 -105.5v4q165 28 255.5 86.5t90.5 136.5q0 49 -38 76t-121 45v4l289 281h-201q-88 0 -131.5 -16t-67.5 -64l-4 2l123 327h2q82 -24 414 -24h106l2 -4z" />
    <glyph glyph-name="four.dnom" horiz-adv-x="772" 
d="M526 203l-10 -60q-6 -38 -6 -59q0 -36 17 -54t57 -26v-4h-461v4q71 12 101.5 45.5t43.5 116.5l6 37h-317l-2 4l514 639h170l-109 -625q76 0 162 6h2l-6 -24h-162zM-12 221h291l81 465z" />
    <glyph glyph-name="five.dnom" horiz-adv-x="675" 
d="M586 618h-436l-17 -40q226 -24 331 -81t105 -165q0 -299 -610 -344v4q162 26 254 82t92 127q0 60 -66.5 90.5t-215.5 50.5v4l198 500h133q90 0 128 0.5t97 5.5t101 16h2z" />
    <glyph glyph-name="six.dnom" horiz-adv-x="749" 
d="M432 506q102 0 167 -57.5t65 -151.5q0 -132 -108 -220.5t-271 -88.5q-127 0 -201 71.5t-74 192.5q0 100 51.5 197t139 174t200.5 138t240 97l2 -4q-193 -114 -295 -358q38 10 84 10zM289 6q31 0 70.5 137.5t39.5 247.5q0 90 -30 90q-12 0 -33 -14q-70 -179 -70 -377
q0 -84 23 -84z" />
    <glyph glyph-name="seven.dnom" horiz-adv-x="718" 
d="M752 846l2 -2q-298 -407 -400 -709q-27 -79 -70 -113t-104 -34q-92 0 -92 84q0 51 51.5 128.5t130.5 155.5t158 145.5t147 116.5h-348q-83 0 -124.5 -14.5t-69.5 -62.5l-4 2l123 327h2q88 -24 409 -24h189z" />
    <glyph glyph-name="eight.dnom" horiz-adv-x="747" 
d="M457 520q44 -26 68.5 -42.5t55.5 -45t45.5 -62t14.5 -73.5q0 -132 -107.5 -220.5t-267.5 -88.5q-125 0 -197.5 49t-72.5 131t65 127.5t162 48.5q-63 41 -99 89t-36 124q0 131 93.5 216t238.5 85q122 0 192 -46t70 -122q0 -75 -66 -119t-167 -47zM416 840q-43 0 -77 -45.5
t-34 -102.5q0 -50 32 -83.5t95 -71.5q72 114 72 196q0 48 -23 77.5t-65 29.5zM270 6q56 0 97 46.5t41 109.5q0 22 -8.5 41.5t-17 31.5t-32.5 29.5t-34 23.5t-42 25q-4 3 -13 8.5t-13 8.5q-31 -40 -50.5 -96.5t-19.5 -108.5q0 -54 24.5 -86.5t67.5 -32.5z" />
    <glyph glyph-name="nine.dnom" horiz-adv-x="743" 
d="M414 858q128 0 202 -71.5t74 -192.5q0 -184 -160 -353t-419 -253l-2 4q77 57 143 153.5t110 216.5q-42 -10 -92 -10q-100 0 -164.5 56.5t-64.5 148.5q0 130 106.5 215.5t266.5 85.5zM375 397q59 180 59 357q0 86 -24 86q-29 0 -68 -134t-39 -239q0 -90 31 -90q18 0 41 20
z" />
    <glyph glyph-name="zero.numr" horiz-adv-x="811" 
d="M424 649q-131 0 -205 87t-74 235q0 149 58 275.5t158 200t217 73.5q128 0 202 -87t74 -235t-58 -274.5t-157 -200.5t-215 -74zM426 668q28 0 70.5 131.5t74 307t31.5 290.5q0 104 -29 104q-28 0 -71 -129t-75 -304t-32 -294q0 -106 31 -106z" />
    <glyph glyph-name="one.numr" horiz-adv-x="550" 
d="M444 748q0 -38 19.5 -56t64.5 -26v-4h-456v4q64 12 89.5 39.5t37.5 95.5l71 401q6 30 6 53q0 31 -13 44.5t-42 13.5q-17 0 -47 -6l-2 4q246 124 406 221h2l-129 -731q-7 -35 -7 -53z" />
    <glyph glyph-name="two.numr" horiz-adv-x="763" 
d="M780 967h4l-90 -312q-168 7 -446 7h-203l-2 4q79 78 164 149q57 47 93 80t85 87t74.5 109t25.5 109q0 48 -26.5 76.5t-73.5 28.5q-107 0 -197 -80l-4 2q78 133 188 213t210 80q90 0 142 -47.5t52 -124.5q0 -47 -18 -93.5t-43 -83t-68 -75t-78 -64t-88 -56.5t-82 -46
t-77 -39h182q143 0 200 15.5t76 60.5zM88 694q-6 -4 -14 -12z" />
    <glyph glyph-name="three.numr" horiz-adv-x="686" 
d="M502 1198q91 -27 144.5 -87.5t53.5 -131.5q0 -140 -156 -224t-454 -106v4q165 28 255.5 87t90.5 137q0 49 -38.5 75.5t-121.5 44.5v4l289 281h-200q-88 0 -131.5 -16t-67.5 -64l-4 2l123 328h2q85 -25 413 -25h107l2 -4z" />
    <glyph glyph-name="four.numr" horiz-adv-x="774" 
d="M645 864l-10 -59q-6 -37 -6 -60q0 -36 16.5 -53.5t56.5 -25.5v-4h-460v4q71 12 101.5 45t43.5 116l6 37h-317l-2 4l514 639h170l-109 -624q77 0 162 6h2l-6 -25h-162zM106 883h291l82 465z" />
    <glyph glyph-name="five.numr" horiz-adv-x="675" 
d="M700 1280h-436l-16 -41q226 -24 331 -81t105 -165q0 -299 -610 -344v4q162 26 254 82t92 127q0 60 -67.5 91t-215.5 51v4l199 499h133q84 0 126.5 1t100 6t99.5 16h2z" />
    <glyph glyph-name="six.numr" horiz-adv-x="749" 
d="M549 1167q102 0 166.5 -57.5t64.5 -151.5q0 -132 -108 -220.5t-271 -88.5q-127 0 -200.5 71.5t-73.5 192.5q0 133 89 257t230 212.5t312 137.5l2 -4q-94 -55 -169.5 -147.5t-125.5 -211.5q38 10 84 10zM406 668q31 0 70.5 137.5t39.5 247.5q0 90 -31 90q-9 0 -32 -15
q-70 -179 -70 -376q0 -84 23 -84z" />
    <glyph glyph-name="seven.numr" horiz-adv-x="718" 
d="M870 1507l2 -2q-297 -406 -399 -708q-50 -148 -174 -148q-92 0 -92 84q0 51 52 128.5t130.5 156t157.5 146t147 116.5h-348q-83 0 -124.5 -15t-69.5 -63l-5 2l123 328h2q92 -25 410 -25h188z" />
    <glyph glyph-name="eight.numr" horiz-adv-x="747" 
d="M573 1182q44 -26 68.5 -43t56 -45.5t46 -62t14.5 -73.5q0 -132 -107.5 -220.5t-267.5 -88.5q-125 0 -197.5 49t-72.5 131t65 128t162 49q-63 41 -99 89t-36 124q0 131 93.5 216t238.5 85q122 0 192 -46t70 -122q0 -75 -66.5 -119t-167.5 -47zM532 1501q-43 0 -76.5 -45
t-33.5 -102q0 -50 32 -84t95 -72q72 114 72 197q0 48 -23.5 77t-65.5 29zM387 668q56 0 96.5 46t40.5 109q0 27 -9 48.5t-32.5 41.5t-39.5 30.5t-52 31.5q-4 3 -13 8t-13 8q-31 -40 -50.5 -96.5t-19.5 -108.5q0 -54 24.5 -86t67.5 -32z" />
    <glyph glyph-name="nine.numr" horiz-adv-x="743" 
d="M528 1520q128 0 202.5 -72t74.5 -193q0 -184 -160.5 -353t-419.5 -253l-2 4q77 57 143.5 154t110.5 217q-42 -10 -92 -10q-100 0 -164.5 56.5t-64.5 148.5q0 130 106 215.5t266 85.5zM489 1059q60 183 60 356q0 86 -25 86q-29 0 -67.5 -134t-38.5 -239q0 -90 31 -90
q15 0 40 21z" />
    <glyph glyph-name="exclamdown.case" horiz-adv-x="755" 
d="M455 1057q-108 0 -175 63t-67 162t77 172.5t181 73.5q108 0 175 -63t67 -162t-77 -172.5t-181 -73.5zM231 -20q-91 0 -139.5 47.5t-48.5 128.5q0 119 47 224.5t139 248.5q63 97 104.5 172t67.5 157h5q0 -104 45 -284q75 -314 45 -469q-22 -114 -94.5 -169.5t-170.5 -55.5
z" />
    <glyph glyph-name="questiondown.case" horiz-adv-x="964" 
d="M680 1528q108 0 175 -63t67 -162t-77.5 -172.5t-182.5 -73.5q-108 0 -174 63t-66 162t77 172.5t181 73.5zM156 246h594q4 -24 4 -51q0 -95 -65 -155t-169 -60q-116 0 -221 72.5t-166 183.5t-61 225q0 112 72.5 196t189 127t262.5 50q29 76 43 124h4q34 -239 88 -458
l-6 -4q-264 0 -431 -46.5t-167 -127.5q0 -31 29 -76z" />
    <glyph glyph-name="parenleft.case" horiz-adv-x="741" 
d="M608 -229q-251 129 -386.5 333.5t-135.5 464.5q0 243 104 467t300.5 404.5t463.5 296.5l2 -4q-241 -210 -388.5 -572.5t-147.5 -740.5q0 -404 192 -645z" />
    <glyph glyph-name="parenright.case" horiz-adv-x="741" 
d="M-211 -229l-4 4q242 211 389.5 572t147.5 740q0 402 -191 646l4 4q251 -129 385.5 -333t134.5 -466q0 -371 -233.5 -682.5t-632.5 -484.5z" />
    <glyph glyph-name="braceleft.case" horiz-adv-x="880" 
d="M973 1720q-79 -41 -128.5 -72.5t-94.5 -71t-65.5 -83.5t-20.5 -96q0 -51 22 -144q29 -119 29 -174q0 -290 -443 -325q346 -26 346 -224q0 -44 -18.5 -97t-37 -88t-50.5 -89t-46 -79t-29 -66t-15 -76q0 -63 47 -118.5t162 -129.5l-2 -4q-204 45 -326.5 96.5t-169.5 104
t-47 118.5q0 37 15 80t31.5 73t47.5 81q34 56 53 91.5t35.5 86t16.5 96.5q0 133 -154 133h-14l4 21h12q103 0 162 65t59 179q0 64 -26 166q-25 92 -25 151q0 141 154.5 233.5t513.5 165.5z" />
    <glyph glyph-name="braceright.case" horiz-adv-x="880" 
d="M596 897q0 -133 154 -133h12l-4 -21h-13q-103 0 -161 -64.5t-58 -178.5q0 -60 27 -166q25 -102 25 -152q0 -141 -154.5 -233.5t-513.5 -165.5l-2 4q158 83 233.5 154.5t75.5 169.5q0 53 -24 147q-27 106 -27 170q0 292 442 326q-346 26 -346 223q0 45 19 99t36.5 86
t51.5 89q30 49 46 78.5t30 70t14 73.5q0 62 -48 118t-163 129l4 4q204 -45 326.5 -96.5t169.5 -104t47 -118.5q0 -35 -16.5 -80t-30 -69t-46.5 -80q-35 -58 -54 -94t-35.5 -87t-16.5 -98z" />
    <glyph glyph-name="bracketleft.case" horiz-adv-x="966" 
d="M496 1753h626v-4q-159 -23 -221 -83.5t-90 -219.5l-246 -1385q-12 -68 -12 -114q0 -91 48 -131t169 -58v-4h-627l43 246l267 1507z" />
    <glyph glyph-name="bracketright.case" horiz-adv-x="864" 
d="M197 1753h626l-43 -246l-266 -1507l-43 -246h-627v4q83 12 134 30t87.5 53.5t56.5 86t34 133.5l245 1385q13 73 13 117q0 89 -48 128.5t-169 57.5v4z" />
    <glyph glyph-name="hyphen.case" horiz-adv-x="901" 
d="M76 760l8 20h743l-8 -20h-743z" />
    <glyph glyph-name="uni00AD.case" horiz-adv-x="901" 
d="M76 760l8 20h743l-8 -20h-743z" />
    <glyph glyph-name="endash.case" horiz-adv-x="1310" 
d="M76 760l8 20h1153l-8 -20h-1153z" />
    <glyph glyph-name="emdash.case" horiz-adv-x="1720" 
d="M76 760l8 20h1563l-9 -20h-1562z" />
    <glyph glyph-name="guillemotleft.case" horiz-adv-x="970" 
d="M571 1210l-258 -444l103 -444l-4 -3l-340 422l8 50l487 421zM899 1210l-258 -444l102 -444l-4 -3l-340 422l9 50l487 421z" />
    <glyph glyph-name="guillemotright.case" horiz-adv-x="970" 
d="M571 791l-8 -50l-487 -422l-4 3l258 444l-101 444l4 2zM561 1212l338 -421l-8 -50l-488 -422l-4 3l258 444l-100 444z" />
    <glyph glyph-name="guilsinglleft.case" horiz-adv-x="643" 
d="M571 1210l-258 -444l103 -444l-4 -3l-340 422l8 50l487 421z" />
    <glyph glyph-name="guilsinglright.case" horiz-adv-x="643" 
d="M233 1212l338 -421l-8 -50l-487 -422l-4 3l258 444l-101 444z" />
    <glyph glyph-name="uni20BF.osf" horiz-adv-x="1355" 
d="M881 625q184 -9 289.5 -80t105.5 -185q0 -96 -69.5 -179t-186.5 -132t-250 -49h-22l-37 -205h-23l37 205h-227l-37 -205h-23l37 205h-430v4q74 12 105.5 48.5t48.5 131.5l145 832q8 44 8 80q0 47 -21.5 69t-74.5 31v4h430l35 193h22l-34 -193h165q42 0 62 -2l35 195h22
l-35 -197q156 -14 244 -75t88 -156q0 -129 -113.5 -222t-295.5 -118zM743 1180h-2l-96 -549q109 0 182.5 103.5t73.5 258.5q0 88 -40 137.5t-118 49.5zM627 20q65 0 126 54t98.5 143t37.5 184q0 97 -49 153t-142 56h-57l-72 -409q-12 -67 -12 -107q0 -42 16 -58t52 -16h2z
" />
    <glyph glyph-name="cent.osf" horiz-adv-x="1112" 
d="M721 205q73 0 150 29t124 81l4 -2q-71 -132 -193.5 -220.5t-260.5 -108.5l-35 -201l-21 4l35 195q-16 -2 -47 -2q-202 0 -318 118t-116 320q0 196 88 356.5t241.5 252t340.5 91.5h8l35 197l22 -4l-35 -193q151 -9 238.5 -87.5t87.5 -205.5q0 -126 -67.5 -192t-163.5 -66
q-64 0 -101 25v485l-147 -844q58 -28 131 -28zM430 553q0 -107 36 -186.5t103 -120.5l148 846q-75 -14 -141 -92.5t-106 -198.5t-40 -248z" />
    <glyph glyph-name="dollar.osf" horiz-adv-x="1103" 
d="M1040 1210h4l-6 -407l-4 -2q-18 160 -117.5 269t-232.5 124l-70 -391q26 -18 66 -39q59 -33 95.5 -55.5t86 -60t77.5 -71.5t48.5 -80t20.5 -96q0 -116 -72 -213t-197 -152.5t-274 -55.5h-10l-35 -195l-21 4l35 193q-64 5 -148.5 39t-113.5 34t-48.5 -12.5t-53.5 -52.5h-4
l-7 416l4 2q49 -171 152.5 -281t222.5 -121l72 414l-31 18q-42 24 -64.5 37.5t-61 39t-61 45t-50 49t-42.5 57.5t-25.5 64t-10.5 75q0 174 137 295t336 121q21 0 31 -2l32 184l21 -4l-33 -180q63 -8 151.5 -37t112.5 -29q26 0 43 11t45 46zM596 815l68 381h-17
q-80 0 -139 -55t-59 -131q0 -99 147 -195zM690 203q0 104 -160 205l-71 -404h2q105 0 167 54t62 145z" />
    <glyph glyph-name="Euro.osf" horiz-adv-x="1294" 
d="M1247 1208h4l-69 -397h-4q-30 373 -215 373q-97 0 -189 -121.5t-149 -312.5h336l-9 -21h-334q-31 -119 -43 -242h299l-8 -20h-293q-4 -70 -4 -105q0 -162 49.5 -254t137.5 -92q104 0 197.5 104.5t170.5 289.5h4l-73 -420h-4q-27 36 -42.5 47.5t-41.5 11.5q-23 0 -68 -17
t-104.5 -34.5t-118.5 -17.5q-229 0 -361.5 130t-132.5 351v6h-149l8 20h141q3 120 43 242h-145l8 21h145q79 212 257.5 341.5t404.5 129.5q59 0 109 -16t85 -32t58 -16q20 0 40 10t60 41z" />
    <glyph glyph-name="sterling.osf" horiz-adv-x="1359" 
d="M1090 731q-52 0 -103 21v440q-32 4 -51 4q-117 0 -179.5 -51t-62.5 -146q0 -62 17 -131q26 -113 26 -188q0 -49 -8 -82h354l-8 -20h-352q-29 -95 -127.5 -157t-296.5 -112h532q201 0 288.5 27t125.5 117h4l-131 -463q-267 10 -768 10h-332v6q171 174 241.5 299.5
t70.5 253.5v19h-191l8 20h183v119q0 163 78 278.5t209 170.5t301 55q183 0 292 -69.5t109 -186.5q0 -100 -65.5 -167t-163.5 -67z" />
    <glyph glyph-name="yen.osf" horiz-adv-x="1333" 
d="M948 1200h443v-4q-25 -5 -45.5 -13.5t-45 -30t-39.5 -36.5t-46.5 -57.5t-48 -65.5t-60.5 -88l-264 -383l-2 -10h250l-9 -20h-243l-45 -242h251l-8 -21h-248v-4q-10 -62 -10 -94q0 -59 29 -87t100 -40v-4h-696v4q102 17 141.5 60.5t59.5 160.5v4h-230l8 21h226l45 242
h-234l9 20h223l-152 473q-40 126 -64.5 165t-80.5 46v4h717v-4q-80 -14 -123 -60.5t-43 -119.5q0 -46 28 -135l103 -318l108 158q88 126 124 201.5t36 132.5q0 64 -40.5 98t-123.5 43v4z" />
    <glyph glyph-name="percent.osf" horiz-adv-x="1634" 
d="M322 -31l-17 17l1014 1138l16 -16zM395 483q-115 0 -180 66.5t-65 179.5q0 163 103.5 276t254.5 113q113 0 178.5 -66.5t65.5 -179.5q0 -163 -104 -276t-253 -113zM397 502q25 0 57 87t55 207.5t23 209.5q0 94 -28 94q-24 0 -55.5 -86t-54.5 -206.5t-23 -211.5
q0 -94 26 -94zM1128 -20q-115 0 -180 66t-65 179q0 163 103.5 276t252.5 113q115 0 180.5 -65t65.5 -178q0 -164 -103 -277.5t-254 -113.5zM1130 -2q24 0 56 86t55 206.5t23 211.5q0 94 -27 94q-24 0 -55.5 -88t-54.5 -209.5t-23 -210.5q0 -90 26 -90z" />
    <glyph glyph-name="perthousand.osf" horiz-adv-x="2217" 
d="M276 -31l-16 17l1014 1138l16 -16zM350 483q-115 0 -180.5 66.5t-65.5 179.5q0 163 104 276t255 113q113 0 178.5 -66.5t65.5 -179.5q0 -163 -104 -276t-253 -113zM352 502q25 0 57 87t55 207.5t23 209.5q0 94 -28 94q-24 0 -55.5 -86t-54.5 -206.5t-23 -211.5
q0 -94 26 -94zM1083 -20q-115 0 -180 66t-65 179q0 163 103.5 276t252.5 113q115 0 180.5 -65t65.5 -178q0 -164 -103 -277.5t-254 -113.5zM1757 -20q-115 0 -180.5 66t-65.5 179q0 163 104 276t253 113q115 0 180.5 -65t65.5 -178q0 -164 -103 -277.5t-254 -113.5zM1085 -2
q24 0 56 86t55 206.5t23 211.5q0 94 -27 94q-24 0 -55.5 -88t-54.5 -209.5t-23 -210.5q0 -90 26 -90zM1759 -2q24 0 55.5 86t54.5 206.5t23 211.5q0 94 -26 94q-24 0 -55.5 -88t-54.5 -209.5t-23 -210.5q0 -90 26 -90z" />
    <glyph glyph-name="at.case" horiz-adv-x="2066" 
d="M1085 457q0 24 7 59l49 270q-58 -208 -114.5 -324t-120.5 -163t-154 -47q-104 0 -164 91t-60 247q0 191 69.5 348.5t191 247.5t268.5 90q113 0 182 -76q195 31 309 76h4l-143 -815q-2 -12 -2 -25q0 -78 94 -78q75 0 147 37.5t131 105.5t104 156.5t70 196t25 219.5
q0 191 -91 335.5t-255 222t-379 77.5q-231 0 -446.5 -97t-372.5 -258t-251.5 -381t-94.5 -456q0 -350 205.5 -533.5t583.5 -183.5q207 0 417 63.5t367 168.5l2 -4q-160 -114 -376.5 -183t-414.5 -69q-387 0 -600 191t-213 546q0 163 44 320t122 291t189.5 247.5t243 193.5
t285.5 124.5t314 44.5q166 0 305 -46.5t237.5 -131.5t153 -207.5t54.5 -270.5q0 -168 -53.5 -321t-143.5 -263.5t-215 -175.5t-262 -65q-109 0 -178.5 51.5t-69.5 153.5zM948 469q35 0 68 51.5t75.5 186.5t100.5 378q-4 77 -26 118.5t-50 41.5q-62 0 -119.5 -80t-93 -213.5
t-35.5 -279.5q0 -92 21.5 -147.5t58.5 -55.5z" />
    <glyph glyph-name="uni0308.case" 
d="M-702 1618q-70 0 -113 41.5t-43 107.5q0 71 52.5 125t123.5 54q68 0 110 -41.5t42 -106.5q0 -72 -51 -126t-121 -54zM-334 1618q-70 0 -112.5 41.5t-42.5 107.5q0 71 52.5 125t123.5 54q68 0 109.5 -41.5t41.5 -106.5q0 -72 -51 -126t-121 -54z" />
    <glyph glyph-name="uni0307.case" 
d="M-338 1577q-88 0 -144.5 53.5t-56.5 136.5q0 92 64.5 153.5t161.5 61.5q86 0 142 -53.5t56 -136.5q0 -92 -64 -153.5t-159 -61.5z" />
    <glyph glyph-name="gravecomb.case" 
d="M-127 1610q-362 48 -473 100q-41 20 -63.5 53t-22.5 72q0 53 37.5 92t95.5 39q34 0 66 -14q56 -26 158.5 -117.5t203.5 -220.5z" />
    <glyph glyph-name="acutecomb.case" 
d="M-666 1610l-2 4q101 129 204 220.5t159 117.5q32 14 65 14q58 0 96 -39t38 -92q0 -38 -23 -71.5t-64 -53.5q-111 -52 -473 -100z" />
    <glyph glyph-name="uni030B.case" 
d="M-1022 1577l-2 4q79 144 166 251.5t137 139.5q43 27 84 27q57 0 96 -38.5t39 -94.5q0 -35 -18 -66.5t-49 -50.5q-49 -31 -174 -78.5t-279 -93.5zM-571 1577l-2 4q79 144 166 251.5t137 139.5q44 27 84 27q57 0 96 -38.5t39 -94.5q0 -35 -18.5 -66.5t-49.5 -50.5
q-50 -31 -174 -79t-278 -93z" />
    <glyph glyph-name="uni0302.case" 
d="M-207 1614l-2 -4l-289 123l-327 -123l-2 4l370 352h2z" />
    <glyph glyph-name="uni030C.case" 
d="M-193 1966l3 -4l-371 -352h-2l-248 352l2 4l289 -123z" />
    </font>
</defs>
</svg>
