<?xml version="1.0" standalone="no"?>
<!DOCTYPE svg PUBLIC "-//W3C//DTD SVG 1.1//EN" "http://www.w3.org/Graphics/SVG/1.1/DTD/svg11.dtd" >
<svg xmlns="http://www.w3.org/2000/svg" xmlns:xlink="http://www.w3.org/1999/xlink" version="1.1">
<metadata>
Created by FontForge 20170731 at Fri Mar 31 05:53:55 2023
 By Aleksey,,,
Copyright (c) 2019 by Alberto Romanos. All rights reserved.
</metadata>
<defs>
<font id="BwBeto-Black" horiz-adv-x="0" >
  <font-face 
    font-family="Bw Beto Black"
    font-weight="900"
    font-stretch="normal"
    units-per-em="2048"
    panose-1="0 0 10 0 0 0 0 0 0 0"
    ascent="1638"
    descent="-410"
    x-height="1098"
    cap-height="1507"
    bbox="-1090 -473 2777 2097"
    underline-thickness="102"
    underline-position="-307"
    unicode-range="U+000D-FB02"
  />
<missing-glyph horiz-adv-x="2541" 
d="M117 -20q-15 0 -25 10.5t-10 25.5q0 21 10 31l701 698h-664q-47 0 -47 39q0 19 14 33l697 701h-670q-41 0 -41 38v3q0 38 41 38h758q47 0 47 -41q0 -17 -17 -34l-698 -697h676q17 0 29 -12t12 -29v-669l694 692q16 16 35 16q37 0 37 -45v-663l696 692q16 16 33 16
q15 0 25 -12t10 -27t-13 -28l-753 -762q-14 -14 -35 -14q-41 0 -41 47v663l-694 -696q-14 -14 -35 -14q-41 0 -41 47v663l-696 -696q-14 -14 -35 -14z" />
    <glyph glyph-name="fi" unicode="fi" horiz-adv-x="1540" 
d="M651 1659q72 0 116 -46.5t44 -123.5q0 -47 -18 -96h-400q-18 -55 -18 -103q0 -86 55 -139t143 -53h195l-29 -131h-166v-742q0 -85 35.5 -116.5t141.5 -42.5v-66h-721v66q81 7 108 31t27 87v783h-135v61l145 86q15 67 48 142t81 146.5t103.5 129t120 92.5t124.5 35z
M1188 1208q-101 0 -168.5 64.5t-67.5 161.5t67.5 161t168.5 64t168 -64t67 -161t-67 -161.5t-168 -64.5zM1393 184q0 -63 27 -87t108 -31v-66h-680v66q81 7 108 31t27 87v566q0 75 -27 105.5t-108 45.5v62q285 74 541 155h4v-934z" />
    <glyph glyph-name="fl" unicode="fl" horiz-adv-x="1478" 
d="M1331 184q0 -63 27 -87t108 -31v-66h-680v66q82 7 109 31t27 87v1078q0 76 -27.5 103.5t-108.5 27.5h-362q-16 -49 -16 -105q0 -85 45.5 -137.5t119.5 -52.5h215l-28 -131h-187v-742q0 -85 35.5 -116.5t141.5 -42.5v-66h-721v66q81 7 108 31t27 87v783h-135v61l147 88
q17 66 55 141t93 146t118.5 128.5t137.5 92.5t143 35q86 0 140.5 -42.5t60.5 -111.5q220 79 403 154h4v-1475z" />
    <glyph glyph-name=".notdef" horiz-adv-x="2541" 
d="M117 -20q-15 0 -25 10.5t-10 25.5q0 21 10 31l701 698h-664q-47 0 -47 39q0 19 14 33l697 701h-670q-41 0 -41 38v3q0 38 41 38h758q47 0 47 -41q0 -17 -17 -34l-698 -697h676q17 0 29 -12t12 -29v-669l694 692q16 16 35 16q37 0 37 -45v-663l696 692q16 16 33 16
q15 0 25 -12t10 -27t-13 -28l-753 -762q-14 -14 -35 -14q-41 0 -41 47v663l-694 -696q-14 -14 -35 -14q-41 0 -41 47v663l-696 -696q-14 -14 -35 -14z" />
    <glyph glyph-name=".null" 
 />
    <glyph glyph-name="nonmarkingreturn" horiz-adv-x="682" 
 />
    <glyph glyph-name="CR" unicode="&#xd;" horiz-adv-x="471" 
 />
    <glyph glyph-name="space" unicode=" " horiz-adv-x="471" 
 />
    <glyph glyph-name="exclam" unicode="!" horiz-adv-x="667" 
d="M301 549q-10 97 -90 332q-33 94 -51 151t-34.5 133t-16.5 131q0 106 59.5 169t165.5 63t165.5 -63t59.5 -169q0 -55 -16.5 -131t-34.5 -133t-51 -151q-80 -235 -90 -332h-66zM334 -20q-106 0 -176 67t-70 168t70 168.5t176 67.5t176 -67.5t70 -168.5t-70 -168t-176 -67z
" />
    <glyph glyph-name="quotedbl" unicode="&#x22;" horiz-adv-x="970" 
d="M205 872l-156 723l410 64h4l-191 -780zM676 872l-156 723l410 64h4l-191 -780z" />
    <glyph glyph-name="numbersign" unicode="#" horiz-adv-x="1441" 
d="M1356 768h-303l-62 -330h305l-18 -96h-303l-64 -342h-94l64 342h-424l-64 -342h-94l63 342h-294l18 96h293l61 330h-295l19 96h295l61 336h94l-61 -336h424l61 336h95l-62 -336h303zM897 438l61 330h-423l-62 -330h424z" />
    <glyph glyph-name="dollar" unicode="$" horiz-adv-x="1343" 
d="M1264 410q0 -183 -148 -301.5t-397 -128.5v-185h-109v189q-65 7 -163.5 39t-145.5 32q-26 0 -41 -13.5t-24 -51.5h-37l-117 559l70 16q80 -197 203 -325.5t255 -151.5v500q-4 0 -8 4q-55 32 -84.5 50t-81.5 51.5t-82 58t-70.5 61t-64 70.5t-46.5 75.5t-33.5 88
t-10.5 96.5q0 165 138.5 273.5t359.5 111.5v141h108v-151q50 -9 133 -39.5t121 -30.5q28 0 44 15t28 55h35l110 -541l-65 -12q-61 173 -169.5 292t-236.5 154v-457q55 -33 72 -43q58 -34 95 -57t90.5 -59t87.5 -65t72.5 -68.5t60.5 -76.5t36.5 -82.5t14.5 -92.5zM438 1280
q0 -127 189 -256v401q-85 -3 -137 -43.5t-52 -101.5zM719 84q100 10 151.5 60.5t51.5 134.5q0 67 -52 123.5t-151 119.5v-438z" />
    <glyph glyph-name="percent" unicode="%" horiz-adv-x="1961" 
d="M367 -55l-84 69l1312 1549l84 -70zM455 649q-172 0 -277.5 120t-105.5 316q0 195 105.5 315t277.5 120q170 0 275.5 -120t105.5 -315q0 -196 -105 -316t-276 -120zM455 713q34 0 54.5 102t20.5 270q0 167 -20.5 270t-54.5 103q-35 0 -56.5 -102.5t-21.5 -270.5
q0 -169 21.5 -270.5t56.5 -101.5zM1509 -12q-172 0 -277.5 120t-105.5 316q0 195 105.5 314.5t277.5 119.5q170 0 275.5 -119.5t105.5 -314.5q0 -196 -105 -316t-276 -120zM1509 51q34 0 55 102.5t21 270.5q0 167 -21 270t-55 103q-35 0 -56 -102.5t-21 -270.5
q0 -169 21 -271t56 -102z" />
    <glyph glyph-name="ampersand" unicode="&#x26;" horiz-adv-x="1964" 
d="M1294 432q183 -156 356.5 -254.5t307.5 -111.5v-66h-399q-132 0 -272 51.5t-271 145.5q-103 -105 -236.5 -161t-273.5 -56q-185 0 -297.5 98.5t-112.5 259.5q0 136 95.5 244t261.5 182q-215 274 -215 416q0 150 144 249t374 99q192 0 310 -79t118 -208q0 -96 -91.5 -189
t-248.5 -161q160 -199 368 -389q122 122 201 254q78 132 78 190q0 48 -48.5 65.5t-162.5 20.5v66h606v-66q-107 -5 -165 -43.5t-122 -150.5q-128 -222 -305 -406zM745 1425q-57 0 -92 -31.5t-35 -82.5q0 -108 148 -316q102 152 102 308q0 55 -33.5 88.5t-89.5 33.5zM692 205
q127 0 240 55q-6 5 -17 14.5t-20 17.5t-16 15q-203 189 -347 359q-69 -112 -69 -260q0 -92 56.5 -146.5t172.5 -54.5z" />
    <glyph glyph-name="quotesingle" unicode="'" horiz-adv-x="499" 
d="M205 872l-156 723l410 64h4l-191 -780z" />
    <glyph glyph-name="parenleft" unicode="(" horiz-adv-x="759" 
d="M713 -473q-301 195 -471 469.5t-170 611.5t170 612t471 470l41 -41q-157 -171 -245.5 -435t-88.5 -606t88.5 -605.5t245.5 -434.5z" />
    <glyph glyph-name="parenright" unicode=")" horiz-adv-x="759" 
d="M47 -473l-41 41q157 171 245.5 434.5t88.5 605.5t-88.5 606t-245.5 435l41 41q301 -195 471 -470t170 -612t-170 -611.5t-471 -469.5z" />
    <glyph glyph-name="asterisk" unicode="*" horiz-adv-x="1028" 
d="M944 1348q15 -46 -5.5 -88.5t-64.5 -57.5q-77 -24 -282 -18q172 -122 217 -183q27 -39 18.5 -84t-47.5 -73q-40 -29 -85.5 -23.5t-73.5 43.5q-49 68 -107 262q-66 -208 -106 -262q-28 -38 -74 -43.5t-84 23.5q-40 30 -49 74t18 83q42 58 217 183q-207 -6 -282 18
q-44 15 -64.5 57.5t-5.5 88.5t56 68t85 9q77 -23 242 -153q-70 200 -70 276q0 47 33.5 79t83.5 32t83.5 -32t33.5 -79q0 -79 -70 -276q163 128 242 153q44 13 85 -9t56 -68z" />
    <glyph glyph-name="plus" unicode="+" horiz-adv-x="970" 
d="M879 655v-102h-338v-332h-111v332h-338v102h338v332h111v-332h338z" />
    <glyph glyph-name="comma" unicode="," horiz-adv-x="649" 
d="M147 -369l-26 66q90 42 144 101t54 118q0 61 -51.5 100.5t-134.5 42.5q-57 63 -57 156q0 101 64 168.5t161 67.5q120 0 193 -84t73 -220q0 -161 -115.5 -302.5t-304.5 -213.5z" />
    <glyph glyph-name="hyphen" unicode="-" horiz-adv-x="989" 
d="M121 539l29 131h718l-28 -131h-719z" />
    <glyph glyph-name="period" unicode="." horiz-adv-x="643" 
d="M322 -20q-106 0 -176 67t-70 168t70 168.5t176 67.5t175.5 -67.5t69.5 -168.5t-69.5 -168t-175.5 -67z" />
    <glyph glyph-name="slash" unicode="/" horiz-adv-x="1069" 
d="M150 -221l-99 45l869 1835l98 -45z" />
    <glyph glyph-name="zero" unicode="0" horiz-adv-x="1523" 
d="M762 -20q-197 0 -347 96t-232.5 272t-82.5 406t82.5 406t232.5 272t347 96t347 -96t232 -272t82 -406t-82 -406t-232 -272t-347 -96zM762 82q86 0 138 184.5t52 487.5t-52 487t-138 184t-138.5 -184.5t-52.5 -486.5q0 -303 52.5 -487.5t138.5 -184.5z" />
    <glyph glyph-name="one" unicode="1" horiz-adv-x="999" 
d="M727 246q0 -96 43.5 -132t173.5 -48v-66h-864v66q130 12 173.5 48t43.5 132v760q0 71 -21 100t-75 29q-34 0 -121 -17l-21 64q376 186 664 366h4v-1302z" />
    <glyph glyph-name="two" unicode="2" horiz-adv-x="1441" 
d="M1284 586l74 -13l-72 -583q-293 10 -854 10h-409l-3 6q100 111 289 281q66 60 98.5 90t89.5 86t87 91.5t69.5 88.5t58.5 96t33.5 94.5t14.5 102.5q0 117 -67.5 187.5t-178.5 70.5q-107 0 -196 -56t-150 -153l-62 33q100 229 283 369.5t381 140.5t320 -105t122 -272
q0 -69 -22 -138t-55.5 -127.5t-89.5 -122t-109 -112.5t-129.5 -108t-134.5 -99.5t-140 -95.5h312q163 0 250.5 21t130.5 70.5t59 146.5zM127 37l-2 -2z" />
    <glyph glyph-name="three" unicode="3" horiz-adv-x="1269" 
d="M737 940q200 -56 319.5 -168.5t119.5 -245.5q0 -479 -1061 -546l-13 67q301 34 475.5 120t174.5 220q0 106 -92 162t-295 88l-3 4l394 518h-307q-150 0 -214.5 -36.5t-99.5 -143.5l-69 14l131 555h4q97 -24 259 -32.5t527 -8.5h213l2 -4z" />
    <glyph glyph-name="four" unicode="4" horiz-adv-x="1456" 
d="M1401 379h-303v-133q0 -96 39 -132t157 -48v-66h-864v66q143 15 190.5 59t47.5 162v92h-658l-2 6l793 1122h297v-1026q170 0 323 11h4zM201 481h467v666z" />
    <glyph glyph-name="five" unicode="5" horiz-adv-x="1247" 
d="M303 1018q436 -43 640 -163.5t204 -346.5q0 -234 -272 -365.5t-789 -162.5l-12 67q300 34 474.5 120t174.5 220q0 119 -150.5 181.5t-482.5 97.5l-2 6l209 835h231q279 0 409.5 8t229.5 33h4l-92 -389h-737z" />
    <glyph glyph-name="six" unicode="6" horiz-adv-x="1400" 
d="M821 895q148 0 268 -56t189.5 -159.5t69.5 -235.5q0 -209 -173 -336.5t-456 -127.5t-456 166t-173 436q0 196 127 381t359 332.5t536 232.5l25 -58q-191 -95 -330 -255.5t-201 -354.5q100 35 215 35zM719 82q71 0 114.5 105.5t43.5 277.5q0 138 -43.5 223.5t-114.5 85.5
q-78 0 -144 -39q-14 -71 -14 -153q0 -224 43.5 -362t114.5 -138z" />
    <glyph glyph-name="seven" unicode="7" horiz-adv-x="1339" 
d="M1333 1507l2 -4q-237 -377 -374 -692t-191 -612q-21 -110 -82 -164.5t-170 -54.5q-96 0 -144 46t-48 128q0 79 69.5 210t179 275t224 275.5t225.5 244.5h-606q-150 0 -214.5 -36.5t-99.5 -143.5l-69 14l131 555h4q97 -24 259 -32.5t527 -8.5h377z" />
    <glyph glyph-name="eight" unicode="8" horiz-adv-x="1404" 
d="M938 870q65 -32 113 -60t99.5 -68.5t84.5 -82.5t54.5 -99t21.5 -120q0 -210 -168.5 -335t-452.5 -125q-269 0 -432.5 104t-163.5 276q0 101 90.5 186.5t243.5 131.5q-62 37 -109.5 76t-88.5 91.5t-63 120t-22 146.5q0 188 150 302t395 114q251 0 404 -95.5t153 -252.5
q0 -100 -84 -183.5t-225 -126.5zM690 1425q-92 0 -148.5 -44.5t-56.5 -116.5q0 -57 24.5 -105.5t74 -89.5t100 -71t125.5 -66q123 155 123 289q0 92 -66.5 148t-175.5 56zM690 82q117 0 187.5 50.5t70.5 135.5q0 33 -10.5 63.5t-24.5 53.5t-42.5 48t-51.5 41.5t-64.5 39
t-67.5 35t-75 35.5q-34 15 -67 32q-123 -135 -123 -297q0 -106 73.5 -171.5t194.5 -65.5z" />
    <glyph glyph-name="nine" unicode="9" horiz-adv-x="1394" 
d="M670 1528q286 0 460.5 -166t174.5 -436q0 -196 -114 -381t-323 -332.5t-483 -232.5l-25 57q160 97 275.5 265t165.5 370q-100 -39 -228 -39q-226 0 -376 122.5t-150 317.5q0 204 171.5 329.5t451.5 125.5zM676 754q84 0 149 43q9 101 9 139q0 220 -45 354.5t-119 134.5
q-68 0 -110 -102.5t-42 -269.5q0 -133 43.5 -216t114.5 -83z" />
    <glyph glyph-name="colon" unicode=":" horiz-adv-x="692" 
d="M346 647q-106 0 -176 67.5t-70 168.5t70 168t176 67t176 -67t70 -168t-70 -168.5t-176 -67.5zM346 -20q-106 0 -176 67t-70 168t70 168.5t176 67.5t176 -67.5t70 -168.5t-70 -168t-176 -67z" />
    <glyph glyph-name="semicolon" unicode=";" horiz-adv-x="696" 
d="M346 647q-106 0 -176 67.5t-70 168.5t70 168t176 67t176 -67t70 -168t-70 -168.5t-176 -67.5zM172 -369l-27 66q90 42 144.5 101t54.5 118q0 61 -51.5 100.5t-134.5 42.5q-58 64 -58 156q0 101 64.5 168.5t161.5 67.5q120 0 193 -84t73 -220q0 -161 -115.5 -302.5
t-304.5 -213.5z" />
    <glyph glyph-name="less" unicode="&#x3c;" horiz-adv-x="970" 
d="M862 272l-786 291v82l786 313v-110l-602 -242l602 -223v-111z" />
    <glyph glyph-name="equal" unicode="=" horiz-adv-x="970" 
d="M92 700v103h787v-103h-787zM92 406v102h787v-102h-787z" />
    <glyph glyph-name="greater" unicode="&#x3e;" horiz-adv-x="970" 
d="M109 272v111l602 223l-602 242v110l786 -313v-82z" />
    <glyph glyph-name="question" unicode="?" horiz-adv-x="905" 
d="M289 1528q127 0 253.5 -84.5t205.5 -212t79 -248.5q0 -126 -120 -209t-322 -98q-9 -66 -12 -127h-66q-58 230 -137 459l4 4q222 0 357 43.5t135 115.5q0 43 -58 91h-502q-18 49 -18 96q0 77 55 123.5t146 46.5zM369 451q106 0 175.5 -67.5t69.5 -168.5t-69.5 -168
t-175.5 -67t-176 67t-70 168t70 168.5t176 67.5z" />
    <glyph glyph-name="at" unicode="@" horiz-adv-x="2027" 
d="M965 -319q213 0 420.5 52.5t351.5 139.5l35 -51q-153 -114 -372.5 -183t-434.5 -69q-416 0 -652.5 233t-236.5 662q0 221 78.5 417t216.5 338.5t334.5 225t422.5 82.5q173 0 324 -59.5t260 -166t171.5 -261t62.5 -336.5q0 -295 -149.5 -476.5t-393.5 -181.5
q-99 0 -180.5 39t-116.5 104q-68 -68 -157.5 -105.5t-186.5 -37.5q-114 0 -183 53.5t-69 141.5q0 153 223 235l350 131v213q0 72 -39.5 116t-103.5 44q-9 0 -33 -4v-361q-39 -26 -91.5 -41.5t-94.5 -15.5q-72 0 -114 33.5t-42 95.5q0 107 82 196t210.5 138t270.5 49
t229 -78.5t87 -206.5v-424q0 -57 16 -80.5t74 -23.5q118 0 199.5 121.5t81.5 314.5q0 160 -53 295.5t-145 229t-218.5 146t-270.5 52.5q-197 0 -368.5 -74.5t-291.5 -202.5t-188.5 -303t-68.5 -372q0 -380 199 -582t555 -202zM981 238q54 0 102 36v9v239l-8 -4
q-81 -35 -133.5 -87t-52.5 -103q0 -41 25.5 -65.5t66.5 -24.5z" />
    <glyph glyph-name="A" unicode="A" horiz-adv-x="1716" 
d="M1511 215q39 -90 83.5 -118.5t140.5 -30.5v-66h-924v66q130 9 179.5 30.5t49.5 71.5q0 46 -43 151l-47 119h-501q-76 -199 -76 -262q0 -57 46.5 -80.5t162.5 -29.5v-66h-582v66q51 6 85 17.5t66 37t57.5 67t51.5 107.5l365 909l-54 129q148 62 334 195h49zM487 541h424
l-217 546z" />
    <glyph glyph-name="B" unicode="B" horiz-adv-x="1724" 
d="M1231 778q201 -35 316.5 -133t115.5 -235q0 -185 -187.5 -297.5t-494.5 -112.5h-930v66q118 12 157.5 48t39.5 132v1016q0 96 -39.5 132t-157.5 48v65h889q280 0 450.5 -102.5t170.5 -271.5q0 -123 -87.5 -216t-242.5 -139zM1090 1112q0 136 -75 214.5t-218 78.5h-119
v-586h119q143 0 218 78.5t75 214.5zM817 102q169 0 272 85t103 223q0 141 -87 224t-247 83h-180v-512q0 -62 27 -82.5t110 -20.5h2z" />
    <glyph glyph-name="C" unicode="C" horiz-adv-x="1550" 
d="M831 -20q-341 0 -549 212.5t-208 561.5q0 229 103 405t292 272.5t436 96.5q72 0 142 -19t122.5 -38t83.5 -19q30 0 44 13.5t24 52.5h35l119 -551l-66 -19q-188 477 -510 477q-178 0 -286.5 -144.5t-108.5 -381.5q0 -295 147.5 -475t388.5 -180q119 0 234.5 55.5
t179.5 149.5l55 -33q-84 -198 -271 -317t-407 -119z" />
    <glyph glyph-name="D" unicode="D" horiz-adv-x="1806" 
d="M883 1507q253 0 447 -93.5t299.5 -264.5t105.5 -395t-105.5 -395.5t-299.5 -265t-447 -93.5h-832v66q118 12 157.5 48t39.5 132v1016q0 96 -39.5 132t-157.5 48v65h832zM801 102q209 0 336 179t127 473q0 298 -117 474.5t-326 176.5h-143v-1200q0 -61 24 -82t95 -21h4z
" />
    <glyph glyph-name="E" unicode="E" horiz-adv-x="1640" 
d="M1544 598l72 -23l-195 -585q-198 10 -555 10h-815v66q118 12 157.5 48t39.5 132v1016q0 96 -39.5 132t-157.5 48v65h783q312 0 514 11l174 -566l-70 -24q-40 118 -83 196.5t-99 135.5t-135 87.5t-179 44t-243 13.5h-35v-586h63q96 0 150.5 29.5t88.5 102.5t60 216h70
q-6 -246 -6 -409q0 -164 6 -410h-70q-26 151 -60 228.5t-88.5 109t-150.5 31.5h-63v-492q0 -74 27 -98.5t108 -24.5h14q109 0 190 9t151 32t120.5 58t97 92.5t83 130t75.5 174.5z" />
    <glyph glyph-name="F" unicode="F" horiz-adv-x="1509" 
d="M1327 1518l174 -566l-69 -24q-33 98 -67 168t-79.5 125t-98 89t-127 56t-162 30.5t-206.5 8.5h-14v-606h43q96 0 150.5 29.5t88.5 102.5t60 216h70q-7 -287 -7 -410q0 -122 7 -409h-70q-26 151 -60 228t-88.5 108.5t-150.5 31.5h-43v-409q0 -118 47 -162t190 -59v-66
h-864v66q118 12 157.5 48t39.5 132v1016q0 96 -39.5 132t-157.5 48v65h762q312 0 514 11z" />
    <glyph glyph-name="G" unicode="G" horiz-adv-x="1728" 
d="M881 668h843v-66q-105 -10 -140.5 -42.5t-35.5 -117.5v-319q-68 -10 -182 -51q-80 -28 -134 -44.5t-141 -32t-167 -15.5q-253 0 -447 96t-299.5 272t-105.5 406q0 229 110.5 405t313.5 272.5t469 96.5q84 0 158.5 -19t130.5 -38t94 -19q32 0 47.5 13.5t25.5 52.5h35
l57 -551l-67 -11q-75 242 -186.5 355.5t-274.5 113.5q-199 0 -320.5 -184.5t-121.5 -486.5q0 -199 47.5 -352t134.5 -236.5t199 -83.5q94 0 194 65v234q0 117 -47.5 161.5t-189.5 59.5v66z" />
    <glyph glyph-name="H" unicode="H" horiz-adv-x="1826" 
d="M1776 1442q-118 -12 -157.5 -48t-39.5 -132v-1016q0 -96 39.5 -132t157.5 -48v-66h-824v66q118 12 157.5 48t39.5 132v471h-471v-471q0 -96 39 -132t157 -48v-66h-823v66q118 12 157.5 48t39.5 132v1016q0 96 -39.5 132t-157.5 48v65h823v-65q-118 -12 -157 -48t-39 -132
v-443h471v443q0 96 -39.5 132t-157.5 48v65h824v-65z" />
    <glyph glyph-name="I" unicode="I" horiz-adv-x="925" 
d="M874 1442q-118 -12 -157 -48t-39 -132v-1016q0 -96 39 -132t157 -48v-66h-823v66q118 12 157.5 48t39.5 132v1016q0 96 -39.5 132t-157.5 48v65h823v-65z" />
    <glyph glyph-name="J" unicode="J" horiz-adv-x="892" 
d="M37 1507h823v-65q-118 -12 -157 -48t-39 -132v-773q0 -265 -166.5 -461.5t-438.5 -252.5l-22 65q118 79 157 176.5t39 311.5v934q0 96 -39 132t-157 48v65z" />
    <glyph glyph-name="K" unicode="K" horiz-adv-x="1800" 
d="M678 246q0 -96 39 -132t157 -48v-66h-823v66q118 12 157.5 48t39.5 132v1016q0 96 -39.5 132t-157.5 48v65h823v-65q-118 -12 -157 -48t-39 -132v-1016zM1083 1014q137 -216 228.5 -357.5t168.5 -250t124 -167t92.5 -97.5t76.5 -53t74 -23v-66h-301q-82 0 -137.5 8.5
t-118.5 41.5t-113.5 81.5t-124 145t-149.5 214.5t-190 306l417 428q80 80 80 127q0 77 -202 90v65h659v-65q-94 -2 -162 -30t-151 -116z" />
    <glyph glyph-name="L" unicode="L" horiz-adv-x="1536" 
d="M1462 598l72 -23l-195 -585q-197 10 -514 10h-774v66q118 12 157.5 48t39.5 132v1016q0 96 -39.5 132t-157.5 48v65h864v-65q-142 -15 -189.5 -59.5t-47.5 -161.5v-1016q0 -62 20.5 -82.5t83.5 -20.5h4q123 0 210 14t157.5 45.5t123.5 91t97 141t88 204.5z" />
    <glyph glyph-name="M" unicode="M" horiz-adv-x="2230" 
d="M2017 246q9 -96 50 -132t159 -48v-66h-864v66q142 12 187.5 48.5t37.5 131.5l-78 930l-526 -1196h-49l-518 1187l-88 -880q-12 -120 32 -164.5t187 -56.5v-66h-549v66q118 12 160 48t51 132l102 1016q9 94 -30.5 131t-159.5 49v65h612l400 -923l403 923h567v-65
q-117 -12 -151 -48t-25 -132z" />
    <glyph glyph-name="N" unicode="N" horiz-adv-x="1716" 
d="M1130 1507h549v-65q-118 -12 -157 -48t-39 -132v-1282h-70l-1051 1116v-809q0 -120 48 -164.5t190 -56.5v-66h-549v66q118 12 157.5 48t39.5 132v1016q0 96 -39.5 132t-157.5 48v65h500l817 -876v590q0 120 -48 164.5t-190 56.5v65z" />
    <glyph glyph-name="O" unicode="O" horiz-adv-x="1798" 
d="M899 -20q-246 0 -433 96t-289.5 272t-102.5 406t102.5 406t289.5 272t433 96t433 -96t289.5 -272t102.5 -406t-102.5 -406t-289.5 -272t-433 -96zM899 82q160 0 257 185t97 487t-97 486.5t-257 184.5t-257 -184.5t-97 -486.5t97 -487t257 -185z" />
    <glyph glyph-name="P" unicode="P" horiz-adv-x="1581" 
d="M803 758q128 0 207.5 94.5t79.5 249.5q0 138 -80.5 220.5t-212.5 82.5h-119v-1118q0 -118 47 -162t190 -59v-66h-864v66q118 12 157.5 48t39.5 132v1016q0 96 -39.5 132t-157.5 48v65h848q298 0 480 -111t182 -294q0 -133 -92 -234.5t-259.5 -157t-386.5 -55.5h-10
l-20 103h10z" />
    <glyph glyph-name="Q" unicode="Q" horiz-adv-x="1798" 
d="M1204 25q108 -120 177 -187t131 -107.5t110.5 -54t122.5 -20.5v-66h-236q-92 0 -153 4.5t-126 21.5t-114 41.5t-115.5 73.5t-131.5 109.5t-160 155.5q-292 53 -463.5 256t-171.5 502q0 230 102.5 406t289.5 272t433 96t433 -96t289.5 -272t102.5 -406q0 -268 -138.5 -461
t-381.5 -268zM899 1425q-160 0 -257 -184.5t-97 -486.5t97 -487t257 -185t257 185t97 487t-97 486.5t-257 184.5z" />
    <glyph glyph-name="R" unicode="R" horiz-adv-x="1783" 
d="M1237 733q91 -146 155.5 -244.5t120 -174t93 -118t77 -71t70.5 -40.5t74 -19v-66h-301q-79 0 -132.5 7.5t-112 34.5t-105 68t-109.5 121t-128 179.5t-159 255.5h-102v-379q0 -117 47.5 -161.5t189.5 -59.5v-66h-864v66q118 12 157.5 48t39.5 132v1016q0 96 -39.5 132
t-157.5 48v65h848q298 0 480 -106t182 -279q0 -130 -85 -230.5t-239 -158.5zM678 1405v-637h125q128 0 207.5 92t79.5 242q0 138 -80.5 220.5t-212.5 82.5h-119z" />
    <glyph glyph-name="S" unicode="S" horiz-adv-x="1437" 
d="M719 -20q-84 0 -164.5 19t-144.5 38.5t-107 19.5q-37 0 -54 -13.5t-32 -53.5h-37l-117 559l70 16q95 -218 254 -350.5t322 -132.5q146 0 221.5 51.5t75.5 147.5q0 42 -21 79.5t-50 64.5t-84.5 57.5t-97.5 49t-116 48.5q-47 19 -75.5 31t-73.5 32t-74.5 36t-68.5 39
t-64.5 45t-55 50t-48 57.5t-35 64t-24 74.5t-7.5 83q0 197 156.5 316.5t412.5 119.5q85 0 163.5 -20t139 -40t102.5 -20q33 0 50.5 15t29.5 55h35l111 -541l-66 -12q-79 207 -235 333.5t-330 126.5q-99 0 -159 -43t-60 -112q0 -31 11.5 -59.5t29 -52t49.5 -48t60.5 -42
t74.5 -40t79.5 -37.5t86.5 -37q51 -21 83.5 -35.5t81 -37.5t80 -41t72 -44t66.5 -50.5t53.5 -56t43.5 -64t26 -71.5t10 -81q0 -224 -176.5 -358.5t-472.5 -134.5z" />
    <glyph glyph-name="T" unicode="T" horiz-adv-x="1605" 
d="M1425 1546l170 -596l-69 -22q-53 148 -98.5 236t-103.5 144.5t-125.5 76.5t-168.5 20h-12v-1159q0 -96 42.5 -132t174.5 -48v-66h-864v66q132 12 174.5 48t42.5 132v1159h-13q-81 0 -139 -13.5t-107.5 -44t-90.5 -87.5t-78 -135.5t-80 -196.5l-70 22l170 596h4
q91 -23 185.5 -31t285.5 -8h295q191 0 285.5 8t185.5 31h4z" />
    <glyph glyph-name="U" unicode="U" horiz-adv-x="1691" 
d="M1665 1507v-65q-118 -12 -157.5 -48t-39.5 -132v-768q0 -242 -145 -378t-403 -136q-359 0 -529 129t-170 403v750q0 96 -39 132t-157 48v65h864v-65q-142 -12 -190 -48.5t-48 -131.5v-811q0 -166 94.5 -267.5t249.5 -101.5q161 0 260 104.5t99 274.5v760q0 120 -48 164.5
t-190 56.5v65h549z" />
    <glyph glyph-name="V" unicode="V" horiz-adv-x="1703" 
d="M1137 1507h581v-65q-95 -12 -147.5 -58t-112.5 -172l-584 -1232h-49l-618 1312q-42 91 -85 119.5t-138 30.5v65h923v-65q-128 -9 -180.5 -32.5t-52.5 -74.5q0 -45 47 -147l299 -656l242 517q49 107 71.5 170t22.5 104q0 60 -50.5 86.5t-168.5 32.5v65z" />
    <glyph glyph-name="W" unicode="W" horiz-adv-x="2453" 
d="M1845 1507h623v-65q-99 -12 -152.5 -57.5t-107.5 -172.5l-522 -1232h-50l-409 944l-410 -944h-49l-557 1312q-39 91 -83.5 119.5t-139.5 30.5v65h964v-65q-147 -9 -206.5 -34.5t-59.5 -82.5q0 -48 39 -137l250 -580l389 920h49l410 -948l188 469q45 112 64.5 171.5
t19.5 100.5q0 63 -56 89t-194 32v65z" />
    <glyph glyph-name="X" unicode="X" horiz-adv-x="1691" 
d="M1395 340q32 -46 45.5 -65.5t40 -54.5t41.5 -50.5t39 -38.5t44 -33t45.5 -19.5t53.5 -12.5v-66h-920v66q205 8 205 96q0 55 -86 182l-203 293l-118 -170q-138 -197 -138 -281q0 -54 50.5 -83.5t162.5 -36.5v-66h-669v66q125 17 214.5 89t213.5 253l219 321l-334 483
q-89 129 -143.5 176t-137.5 54v65h912v-65q-193 -8 -193 -96q0 -58 86 -185l170 -246l84 121q148 211 148 295q0 53 -49 80t-156 31v65h649v-65q-80 -8 -145.5 -45.5t-126 -104t-142.5 -184.5l-198 -285z" />
    <glyph glyph-name="Y" unicode="Y" horiz-adv-x="1658" 
d="M1038 1507h650v-65q-126 -13 -222 -86.5t-192 -247.5l-234 -426v-436q0 -96 42.5 -132t174.5 -48v-66h-864v66q132 12 174.5 48t42.5 132v438l-293 528q-71 126 -130.5 174t-149.5 56v65h911v-65q-100 -4 -142 -25t-42 -63q0 -45 74 -193l163 -325l109 200q67 124 97 192
t30 111q0 51 -46.5 74.5t-152.5 28.5v65z" />
    <glyph glyph-name="Z" unicode="Z" horiz-adv-x="1544" 
d="M909 102q78 0 135.5 8.5t107 30t85 55t67 87t56 122t49.5 164.5l74 -12l-70 -567q-293 10 -854 10h-532l-2 6l907 1399h-305q-108 0 -178.5 -19.5t-128 -74.5t-98 -141.5t-83.5 -231.5l-69 14l133 566q247 -11 798 -11h480l2 -4l-908 -1401h334z" />
    <glyph glyph-name="bracketleft" unicode="[" horiz-adv-x="827" 
d="M819 1604q-155 -17 -206.5 -65.5t-51.5 -176.5v-1507q0 -128 51.5 -176.5t206.5 -65.5v-66h-626v2122h626v-65z" />
    <glyph glyph-name="backslash" unicode="\" horiz-adv-x="1069" 
d="M920 -221l-869 1835l99 45l868 -1835z" />
    <glyph glyph-name="bracketright" unicode="]" horiz-adv-x="827" 
d="M635 1669v-2122h-627v66q155 17 206.5 65.5t51.5 176.5v1507q0 128 -51.5 176.5t-206.5 65.5v65h627z" />
    <glyph glyph-name="asciicircum" unicode="^" horiz-adv-x="970" 
d="M934 911h-125l-324 576l-323 -576h-125l424 748h49z" />
    <glyph glyph-name="underscore" unicode="_" horiz-adv-x="1392" 
d="M20 -238l19 86h1333l-18 -86h-1334z" />
    <glyph glyph-name="grave" unicode="`" horiz-adv-x="874" 
d="M653 1174q-144 71 -259 140t-156 107q-50 44 -50 107q0 53 40.5 92t93.5 39q57 0 102 -45q38 -38 111.5 -151t150.5 -255z" />
    <glyph glyph-name="a" unicode="a" horiz-adv-x="1234" 
d="M1200 264l47 -31q-40 -114 -129 -183.5t-196 -69.5q-99 0 -166.5 41t-79.5 108q-51 -67 -148 -108t-206 -41q-126 0 -202.5 59t-76.5 156q0 170 246 262l387 145v240q0 78 -43 126t-113 48q-18 0 -28 -2v-404q-44 -29 -102 -47t-109 -18q-82 0 -129.5 37.5t-47.5 107.5
q0 120 92 219.5t236 154t303 54.5q158 0 254 -87t96 -230v-559q0 -26 7 -36.5t26 -10.5q22 0 44.5 19t37.5 50zM676 231v273q-91 -38 -147 -96.5t-56 -114.5q0 -44 27 -71t71 -27q66 0 105 36z" />
    <glyph glyph-name="b" unicode="b" horiz-adv-x="1341" 
d="M838 1118q201 0 324.5 -146t123.5 -384q0 -274 -142.5 -441t-377.5 -167q-157 0 -266 88q-204 -25 -379 -88h-4v1310q0 76 -27 106.5t-108 45.5v61q328 89 540 156h4v-690q49 68 134.5 108.5t177.5 40.5zM659 82q83 0 134 117.5t51 308.5q0 178 -54.5 287.5t-142.5 109.5
q-72 0 -121 -39v-635q37 -149 133 -149z" />
    <glyph glyph-name="c" unicode="c" horiz-adv-x="1185" 
d="M1104 340l43 -27q-60 -150 -201.5 -241.5t-312.5 -91.5q-261 0 -420.5 156.5t-159.5 412.5q0 257 169.5 413t449.5 156q207 0 334 -99.5t127 -262.5q0 -85 -59 -137t-154 -52q-57 0 -105 15.5t-70 40.5v411q-8 2 -26 2q-116 0 -186 -108.5t-70 -286.5q0 -188 102 -302
t269 -114q78 0 153.5 30.5t116.5 84.5z" />
    <glyph glyph-name="d" unicode="d" horiz-adv-x="1368" 
d="M1225 256q0 -63 27 -87.5t108 -31.5v-61q-300 -48 -541 -96h-4v149q-49 -68 -134 -108.5t-177 -40.5q-201 0 -325 146t-124 384q0 274 142.5 441t377.5 167q137 0 240 -67v239q0 76 -27 106.5t-108 45.5v61q335 91 541 156h4v-1403zM694 193q73 0 121 38v635
q-37 150 -133 150q-83 0 -133.5 -117.5t-50.5 -308.5q0 -178 54 -287.5t142 -109.5z" />
    <glyph glyph-name="e" unicode="e" horiz-adv-x="1204" 
d="M1122 342l45 -29q-63 -151 -209 -242t-325 -91q-261 0 -420.5 156.5t-159.5 412.5t168 412.5t443 156.5q218 0 351.5 -132t133.5 -349h-686q2 -186 105 -299t272 -113q75 0 152 32t130 85zM664 1034q-79 0 -132 -84t-65 -227h45q114 0 183 53t69 139q0 53 -28 86t-72 33z
" />
    <glyph glyph-name="f" unicode="f" horiz-adv-x="823" 
d="M905 1393h-481q-16 -49 -16 -105q0 -85 45.5 -137.5t119.5 -52.5h256l-28 -131h-228v-742q0 -85 35.5 -116.5t141.5 -42.5v-66h-721v66q81 7 108 31t27 87v783h-135v61l147 88q17 66 55 141t93 146t118.5 128.5t137.5 92.5t143 35q91 0 146 -46.5t55 -123.5
q0 -45 -19 -96z" />
    <glyph glyph-name="g" unicode="g" horiz-adv-x="1294" 
d="M1001 252q127 -12 204 -90.5t77 -177.5q0 -200 -177 -307t-495 -107q-620 0 -620 215q0 54 51 103t152 104q-109 67 -109 190q0 67 37 149.5t102 157.5q-149 98 -149 265q0 164 147.5 264t390.5 100q60 0 136 -8q132 -12 223 -12q177 0 299 20h4l-33 -151l-225 20
q135 -94 135 -233q0 -164 -148 -264.5t-391 -100.5q-182 0 -319 62q-21 -38 -21 -70q0 -65 170 -80zM612 1036q-42 0 -69 -78t-27 -204q0 -127 26.5 -205t69.5 -78q42 0 69.5 78.5t27.5 204.5q0 127 -27 204.5t-70 77.5zM672 -348q158 0 258 48.5t100 119.5q0 24 -18 39
t-51 18l-519 45q-94 9 -155 29q-23 -47 -23 -98q0 -91 112.5 -146t295.5 -55z" />
    <glyph glyph-name="h" unicode="h" horiz-adv-x="1372" 
d="M1231 184q0 -63 27 -87t108 -31v-66h-659v66q69 7 91.5 31t22.5 87v535q0 184 -155 184q-69 0 -109 -37v-682q0 -63 23 -87t92 -31v-66h-660v66q81 7 108 31t27 87v1106q0 76 -27 106.5t-108 45.5v61q335 91 541 156h4v-690q70 67 176 108t209 41q130 0 209.5 -87
t79.5 -230v-617z" />
    <glyph glyph-name="i" unicode="i" horiz-adv-x="720" 
d="M369 1208q-101 0 -168.5 64.5t-67.5 161.5t67.5 161t168.5 64t168 -64t67 -161t-67 -161.5t-168 -64.5zM573 184q0 -63 27 -87t109 -31v-66h-680v66q81 7 108 31t27 87v566q0 75 -27 105.5t-108 45.5v62q279 73 540 155h4v-934z" />
    <glyph glyph-name="j" unicode="j" horiz-adv-x="671" 
d="M352 1208q-101 0 -168 64.5t-67 161.5t67 161t168 64t168.5 -64t67.5 -161t-67.5 -161.5t-168.5 -64.5zM35 -430l-23 65q81 67 108 143t27 236v736q0 75 -27 105.5t-108 45.5v62q359 98 541 155h4v-942q0 -243 -143.5 -410t-378.5 -196z" />
    <glyph glyph-name="k" unicode="k" horiz-adv-x="1402" 
d="M557 184q0 -63 23 -87t92 -31v-66h-660v66q81 7 108 31t27 87v1106q0 76 -27 106.5t-108 45.5v61q335 91 541 156h4v-1475zM922 772l493 -706v-66h-448l-385 571l249 244q31 29 48 47t33 43.5t16 44.5q0 71 -199 82v66h619v-66q-92 -2 -157.5 -30t-152.5 -115z" />
    <glyph glyph-name="l" unicode="l" horiz-adv-x="704" 
d="M557 184q0 -63 27 -87t108 -31v-66h-680v66q81 7 108 31t27 87v1106q0 76 -27 106.5t-108 45.5v61q335 91 541 156h4v-1475z" />
    <glyph glyph-name="m" unicode="m" horiz-adv-x="2021" 
d="M1880 184q0 -63 27 -87t108 -31v-66h-659v66q69 7 91.5 31t22.5 87v555q0 164 -145 164q-61 0 -100 -39q2 -14 2 -43v-637q0 -63 22.5 -87t91.5 -31v-66h-639v66q69 7 92 31t23 87v555q0 164 -145 164q-62 0 -99 -37v-682q0 -63 23 -87t92 -31v-66h-659v66q81 7 108 31
t27 87v566q0 75 -27 105.5t-108 45.5v62q279 73 540 155h4v-149q54 67 156.5 108t218.5 41q92 0 159.5 -45.5t98.5 -126.5q54 77 157 124.5t218 47.5q135 0 217 -81.5t82 -215.5v-637z" />
    <glyph glyph-name="n" unicode="n" horiz-adv-x="1388" 
d="M1247 184q0 -63 27 -87t108 -31v-66h-659v66q69 7 92 31t23 87v535q0 91 -39.5 137.5t-116.5 46.5q-69 0 -109 -37v-682q0 -63 23 -87t92 -31v-66h-659v66q81 7 108 31t27 87v566q0 75 -27 105.5t-108 45.5v62q279 73 540 155h4v-149q70 67 176 108t209 41
q130 0 209.5 -87t79.5 -230v-617z" />
    <glyph glyph-name="o" unicode="o" horiz-adv-x="1347" 
d="M674 -20q-280 0 -450.5 156.5t-170.5 412.5t170.5 412.5t450.5 156.5t450 -156t170 -413t-170 -413t-450 -156zM674 61q80 0 129 134.5t49 353.5t-49 353t-129 134t-129 -134t-49 -353t49 -353.5t129 -134.5z" />
    <glyph glyph-name="p" unicode="p" horiz-adv-x="1372" 
d="M868 1118q201 0 325 -146t124 -384q0 -274 -142.5 -441t-377.5 -167q-137 0 -240 67v-231q0 -83 35.5 -115.5t140.5 -44.5v-66h-721v66q81 7 108 31.5t27 87.5v975q0 75 -27 105.5t-108 45.5v62q285 74 541 155h4v-149q49 68 134 108.5t177 40.5zM690 82
q83 0 133.5 117.5t50.5 308.5q0 178 -54 287.5t-142 109.5q-72 0 -121 -39v-635q37 -149 133 -149z" />
    <glyph glyph-name="q" unicode="q" horiz-adv-x="1341" 
d="M1225 -225q0 -63 27 -87.5t108 -31.5v-66h-721v66q106 11 141 42.5t35 117.5v313q-49 -68 -134 -108.5t-177 -40.5q-201 0 -325 146t-124 384q0 274 142.5 441t377.5 167q76 0 146.5 -23.5t118.5 -62.5q219 26 381 86h4v-1343zM694 193q73 0 121 38v635q-37 150 -133 150
q-83 0 -133.5 -117.5t-50.5 -308.5q0 -178 54 -287.5t142 -109.5z" />
    <glyph glyph-name="r" unicode="r" horiz-adv-x="1079" 
d="M668 821q-55 -105 -95 -266v-330q0 -85 35.5 -116.5t141.5 -42.5v-66h-721v66q81 7 108 31t27 87v566q0 75 -27 105.5t-108 45.5v62q348 99 518 155h4l22 -287q41 117 130.5 202t191.5 85q82 0 131 -49t49 -131q0 -60 -37 -117h-370z" />
    <glyph glyph-name="s" unicode="s" horiz-adv-x="1114" 
d="M561 -20q-60 0 -115 11.5t-87.5 26t-66.5 26t-56 11.5t-37.5 -14t-28.5 -51h-35l-88 416l62 14q82 -162 204 -260.5t240 -98.5q178 0 178 127q0 26 -15 49.5t-36 41t-59.5 38t-68.5 33t-81 33.5q-171 69 -241 115q-150 99 -150 241q0 170 118.5 274.5t311.5 104.5
q71 0 140 -16.5t120 -32.5t78 -16q23 0 35.5 11t25.5 44h35l74 -408l-60 -12q-61 157 -180.5 252.5t-253.5 95.5q-65 0 -105 -33.5t-40 -87.5q0 -24 15.5 -47t36.5 -40t61.5 -39t70.5 -35.5t84 -36.5q55 -23 86 -37t81.5 -40t80 -46t66 -50t56.5 -59.5t34 -67.5t14 -79
q0 -161 -139 -259.5t-365 -98.5z" />
    <glyph glyph-name="t" unicode="t" horiz-adv-x="849" 
d="M637 174q43 0 89.5 22.5t80.5 59.5l37 -37q-56 -107 -161 -173t-222 -66q-145 0 -232.5 75.5t-87.5 200.5v711h-135v61q149 67 257.5 147t213.5 197h66v-274h301l-29 -131h-264v-670q0 -71 18.5 -97t67.5 -26z" />
    <glyph glyph-name="u" unicode="u" horiz-adv-x="1351" 
d="M1206 256q0 -63 27 -87.5t108 -31.5v-61q-294 -47 -540 -96h-4v149q-54 -67 -156.5 -108t-218.5 -41q-126 0 -202.5 81t-76.5 215v474q0 75 -27 105.5t-108 45.5v62q359 98 541 155h4v-760q0 -163 145 -163q63 0 99 36v519q0 75 -27 105.5t-108 45.5v62q352 96 540 155h4
v-862z" />
    <glyph glyph-name="v" unicode="v" horiz-adv-x="1316" 
d="M858 1098h492v-66q-95 -12 -146.5 -58t-113.5 -171l-410 -823h-49l-445 903q-43 88 -83.5 117.5t-118.5 31.5v66h796v-66q-82 -9 -117.5 -30t-35.5 -64q0 -51 53 -160l145 -299l80 160q103 208 103 287q0 52 -36 76t-114 30v66z" />
    <glyph glyph-name="w" unicode="w" horiz-adv-x="1923" 
d="M1423 1098h533v-66q-95 -12 -147 -57.5t-113 -171.5l-393 -823h-50l-292 622l-297 -622h-50l-428 903q-41 87 -82.5 117t-119.5 32v66h837v-66q-104 -9 -147 -30.5t-43 -67.5q0 -45 49 -156l127 -284l299 624h49l289 -624l67 145q97 211 97 281q0 57 -43 81.5t-142 30.5
v66z" />
    <glyph glyph-name="x" unicode="x" horiz-adv-x="1261" 
d="M1049 264q69 -111 114 -151t109 -47v-66h-752v66q66 8 95.5 23.5t29.5 45.5q0 42 -55 127l-107 168l-24 -39q-107 -173 -107 -235q0 -39 32.5 -60t102.5 -30v-66h-497v66q99 15 161 65.5t146 185.5l127 207l-219 350q-56 90 -96.5 122t-104.5 36v66h741v-66
q-59 -8 -85.5 -22.5t-26.5 -44.5q0 -41 63 -142l84 -133l11 15q114 181 114 247q0 37 -30 55.5t-95 24.5v66h477v-66q-90 -9 -147.5 -56t-144.5 -181l-125 -197z" />
    <glyph glyph-name="y" unicode="y" horiz-adv-x="1316" 
d="M842 1098h508v-66q-94 -12 -145.5 -57.5t-114.5 -171.5l-508 -1022q-50 -101 -139.5 -156t-196.5 -55q-89 0 -144 48t-55 126q0 60 27 106l446 5l86 176l-420 852q-43 88 -83.5 117.5t-118.5 31.5v66h759v-66q-68 0 -98.5 -15t-30.5 -54q0 -53 66 -185l147 -299l78 160
q101 204 101 283q0 54 -39 79t-125 31v66z" />
    <glyph glyph-name="z" unicode="z" horiz-adv-x="1187" 
d="M676 86q150 0 245.5 85.5t147.5 268.5l68 -8l-52 -442q-245 10 -677 10h-379l-2 4l604 1008h-125q-135 0 -225.5 -90t-147.5 -279l-65 14l96 451q173 -10 627 -10h346l2 -4l-604 -1008h141z" />
    <glyph glyph-name="braceleft" unicode="{" horiz-adv-x="778" 
d="M475 -133q0 -78 55 -140.5t201 -146.5l-26 -53q-225 75 -353 142t-176.5 128t-48.5 137q0 74 55 222q21 57 31 86.5t20.5 76t10.5 82.5q0 82 -40 128t-143 46h-12v66h12q102 0 142.5 46.5t40.5 127.5q0 36 -10.5 82.5t-20.5 77t-31 86.5q-55 148 -55 221q0 76 48.5 137.5
t176.5 128.5t353 142l26 -54q-146 -85 -201 -146.5t-55 -139.5q0 -68 53 -211q64 -173 64 -256q0 -110 -74.5 -181t-255.5 -94q181 -23 255.5 -93.5t74.5 -180.5q0 -83 -64 -256q-53 -143 -53 -211z" />
    <glyph glyph-name="bar" unicode="|" horiz-adv-x="495" 
d="M190 -428v2066l115 19v-2067z" />
    <glyph glyph-name="braceright" unicode="}" horiz-adv-x="778" 
d="M717 641h12v-66h-12q-103 0 -142.5 -46t-39.5 -128q0 -80 61 -245q55 -148 55 -222q0 -76 -48 -137t-176 -128t-353 -142l-27 53q146 84 201 146.5t55 140.5q0 68 -53 211q-64 173 -64 256q0 110 74.5 180.5t255.5 93.5q-181 23 -255.5 94t-74.5 181q0 83 64 256
q53 143 53 211q0 78 -55 139.5t-201 146.5l27 54q225 -75 353 -142t176 -128.5t48 -137.5q0 -73 -55 -221q-61 -165 -61 -246t40 -127.5t142 -46.5z" />
    <glyph glyph-name="asciitilde" unicode="~" horiz-adv-x="970" 
d="M676 446q-96 0 -250 52q-151 51 -242 51q-80 0 -108 -98l-49 12q13 128 87 219.5t183 91.5q93 0 240 -51q144 -51 251 -51q81 0 109 98l49 -12q-14 -129 -87.5 -220.5t-182.5 -91.5z" />
    <glyph glyph-name="uni00A0" unicode="&#xa0;" horiz-adv-x="471" 
 />
    <glyph glyph-name="exclamdown" unicode="&#xa1;" horiz-adv-x="667" 
d="M334 852q-106 0 -176 67t-70 168t70 168.5t176 67.5t176 -67.5t70 -168.5t-70 -168t-176 -67zM334 -225q-106 0 -165.5 62.5t-59.5 168.5q0 55 16.5 131t35 134t50.5 151q80 235 90 332h66q10 -97 90 -332q32 -93 50.5 -151t35 -134t16.5 -131q0 -106 -59.5 -168.5
t-165.5 -62.5z" />
    <glyph glyph-name="cent" unicode="&#xa2;" horiz-adv-x="1255" 
d="M1178 518q-47 -119 -147.5 -202.5t-229.5 -114.5v-221h-109v204h-28q-261 0 -420.5 157t-159.5 413q0 254 166.5 410t441.5 159v205h109v-211q167 -23 264.5 -118.5t97.5 -237.5q0 -85 -59 -137t-154 -52q-88 0 -149 35v-373q40 -4 63 -4q78 0 154 30.5t117 84.5z
M494 846q0 -132 52.5 -230.5t145.5 -146.5v764q-91 -26 -144.5 -129.5t-53.5 -257.5z" />
    <glyph glyph-name="sterling" unicode="&#xa3;" horiz-adv-x="1466" 
d="M1294 586l74 -13l-72 -583q-293 10 -854 10h-368l-2 6q140 193 195 330t55 252q0 66 -17 153h-211l19 97h172q-21 107 -21 209q0 217 167 349t441 132q207 0 334 -100t127 -263q0 -85 -59 -136.5t-154 -51.5q-57 0 -104.5 15t-69.5 40v391q-8 2 -26 2q-148 0 -207.5 -38
t-59.5 -113q0 -68 47 -207q49 -141 60 -229h399l-18 -97h-373q0 -138 -88 -229.5t-264 -163.5h438q163 0 250.5 21t130.5 70.5t59 146.5z" />
    <glyph glyph-name="currency" unicode="&#xa4;" horiz-adv-x="1357" 
d="M1276 240l-78 -78l-229 227q-115 -92 -293 -92q-175 0 -289 88l-227 -227l-78 78l231 231q-80 116 -80 287q0 169 80 288l-229 230l78 78l227 -228q114 88 287 88q174 0 291 -90l229 230l78 -78l-234 -234q78 -113 78 -284q0 -168 -76 -283zM346 754q0 -169 86.5 -262
t243.5 -93t243.5 93t86.5 262t-86.5 261.5t-243.5 92.5t-243.5 -92.5t-86.5 -261.5z" />
    <glyph glyph-name="yen" unicode="&#xa5;" horiz-adv-x="1685" 
d="M1020 1507h608v-65q-112 -13 -202.5 -86t-182.5 -248l-201 -385h314l-19 -96h-299v-138h318l-19 -96h-299v-147q0 -96 42.5 -132t174.5 -48v-66h-864v66q132 12 174.5 48t42.5 132v147h-297l19 96h278v138h-297l19 96h243l-262 489q-67 126 -122 174t-130 56v65h871v-65
q-92 -4 -131 -24.5t-39 -61.5q0 -46 71 -195l152 -317l96 192q66 129 94.5 196.5t28.5 110.5q0 49 -42.5 71.5t-139.5 27.5v65z" />
    <glyph glyph-name="brokenbar" unicode="&#xa6;" horiz-adv-x="495" 
d="M190 801v837l115 19v-838zM190 -428v838l115 18v-838z" />
    <glyph glyph-name="section" unicode="&#xa7;" horiz-adv-x="997" 
d="M408 -430q-91 0 -146 46.5t-55 123.5q0 47 18 96h482q18 44 18 92q0 46 -20 97.5t-65 116.5t-82.5 112t-106.5 129q-50 59 -79 94t-74.5 94t-73 100.5t-60.5 99t-51 105t-30.5 102.5t-12.5 107q0 123 77 257.5t200 225.5t243 91q91 0 146 -46.5t55 -123.5q0 -45 -19 -96
h-481q-19 -46 -19 -93q0 -46 20 -97t66 -116.5t82 -111t107 -129.5q58 -69 92 -110.5t85.5 -109.5t82 -120.5t61.5 -116t45.5 -125t14.5 -121.5q0 -123 -77 -257.5t-200 -225t-243 -90.5zM813 10q10 52 10 94q0 57 -13 115t-42.5 118.5t-57 108.5t-76.5 113.5t-79.5 104
t-87.5 106.5q-66 80 -99.5 122t-79.5 107t-70.5 117.5t-33.5 102.5q-10 -52 -10 -95q0 -57 13 -115t42.5 -118.5t56.5 -108t76.5 -113.5t80 -103.5t87.5 -106.5q66 -80 99.5 -122t79.5 -107t70.5 -117.5t33.5 -102.5z" />
    <glyph glyph-name="dieresis" unicode="&#xa8;" horiz-adv-x="1126" 
d="M358 1260q-77 0 -127.5 49.5t-50.5 124.5t50.5 124.5t127.5 49.5t128 -49.5t51 -124.5t-51 -124.5t-128 -49.5zM768 1260q-77 0 -127.5 49.5t-50.5 124.5t50.5 124.5t127.5 49.5t127.5 -49.5t50.5 -124.5t-50.5 -124.5t-127.5 -49.5z" />
    <glyph glyph-name="copyright" unicode="&#xa9;" horiz-adv-x="2027" 
d="M1014 -143q-276 0 -486.5 111.5t-326 315t-115.5 470.5t115.5 470.5t326 315t486.5 111.5t486.5 -111.5t326 -315t115.5 -470.5t-115.5 -470.5t-326 -315t-486.5 -111.5zM1014 -33q237 0 418 98t279.5 277t98.5 412t-98.5 411.5t-279.5 276.5t-418 98q-236 0 -417 -98
t-280.5 -276.5t-99.5 -411.5t99.5 -412t280.5 -277t417 -98zM1026 158q-264 0 -426 165t-162 433q0 266 177.5 431t467.5 165q58 0 113.5 -15.5t95.5 -31t60 -15.5q23 0 34.5 11t18.5 42h27l92 -425l-51 -15q-149 369 -394 369q-133 0 -215 -111t-82 -291q0 -225 113.5 -363
t296.5 -138q90 0 177.5 41.5t137.5 111.5l43 -26q-65 -153 -210.5 -245.5t-313.5 -92.5z" />
    <glyph glyph-name="ordfeminine" unicode="&#xaa;" horiz-adv-x="1042" 
d="M965 870l36 -24q-31 -88 -101.5 -142.5t-154.5 -54.5q-76 0 -129.5 32.5t-62.5 84.5v-4q-37 -51 -111.5 -82t-158.5 -31q-94 0 -153.5 45.5t-59.5 120.5q0 61 45.5 113.5t140.5 87.5l297 110v191q0 57 -32.5 94t-84.5 37h-10v-313q-80 -54 -170 -54q-64 0 -101.5 29.5
t-37.5 85.5q0 92 70.5 169.5t183 120t237.5 42.5q122 0 197.5 -67.5t75.5 -176.5v-428q0 -35 22 -35q15 0 33.5 14t28.5 35zM485 821q45 0 68 23v205q-62 -27 -100.5 -71t-38.5 -85q0 -32 19.5 -52t51.5 -20z" />
    <glyph glyph-name="guillemotleft" unicode="&#xab;" horiz-adv-x="919" 
d="M500 1047l-181 -445l181 -444l-45 -27l-373 447v49l373 446zM827 1047l-180 -445l180 -444l-45 -27l-372 447v49l372 446z" />
    <glyph glyph-name="logicalnot" unicode="&#xac;" horiz-adv-x="970" 
d="M86 786h786v-380h-110v278h-676v102z" />
    <glyph glyph-name="uni00AD" unicode="&#xad;" horiz-adv-x="989" 
d="M121 539l29 131h718l-28 -131h-719z" />
    <glyph glyph-name="registered" unicode="&#xae;" horiz-adv-x="1236" 
d="M618 1659q243 0 391 -141t148 -373t-148 -373t-391 -141t-390.5 141t-147.5 373t147.5 373t390.5 141zM618 723q195 0 313 115.5t118 306.5t-118 306.5t-313 115.5t-312.5 -115.5t-117.5 -306.5t117.5 -306.5t312.5 -115.5zM752 1145q94 -151 130 -192t79 -50v-24h-117
q-32 0 -46 1t-37.5 7.5t-38.5 20.5t-39.5 41t-50.5 66.5t-63 100.5h-20v-131q0 -42 16.5 -58.5t67.5 -23.5v-24h-324v24q42 6 56 19t14 47v362q0 34 -14 47t-56 19v24h307q112 0 180 -37.5t68 -99.5q0 -45 -29.5 -81t-82.5 -58zM549 1382v-227h35q40 0 66 33.5t26 87.5
q0 49 -28 77.5t-73 28.5h-26z" />
    <glyph glyph-name="macron" unicode="&#xaf;" horiz-adv-x="1087" 
d="M154 1362l20 102h760l-21 -102h-759z" />
    <glyph glyph-name="degree" unicode="&#xb0;" horiz-adv-x="937" 
d="M469 881q-183 0 -294.5 107t-111.5 282t111.5 282t294.5 107t294 -107t111 -282t-111 -282t-294 -107zM469 1053q96 0 154.5 59.5t58.5 157.5t-58.5 157.5t-154.5 59.5t-154.5 -59.5t-58.5 -157.5t58.5 -157.5t154.5 -59.5z" />
    <glyph glyph-name="plusminus" unicode="&#xb1;" horiz-adv-x="970" 
d="M541 791h338v-103h-338v-291h-111v291h-338v103h338v290h111v-290zM92 227v103h787v-103h-787z" />
    <glyph glyph-name="uni00B2" unicode="&#xb2;" horiz-adv-x="839" 
d="M739 975l45 -8l-36 -312q-186 7 -500 7h-225l-3 4q58 65 152 149q57 50 91 83.5t72.5 80t56.5 92t18 92.5q0 64 -35 103t-92 39q-107 0 -179 -99l-36 21q61 133 167 213t216 80q114 0 184 -60t70 -153q0 -61 -27.5 -119.5t-79 -112t-104.5 -95t-125 -89.5h120
q138 0 189 16.5t61 67.5z" />
    <glyph glyph-name="uni00B3" unicode="&#xb3;" horiz-adv-x="755" 
d="M453 1192q107 -34 173 -102t66 -142q0 -133 -155 -205.5t-459 -93.5l-8 41q348 46 348 178q0 55 -47 83t-154 46l-2 4l209 281h-168q-79 0 -114.5 -16.5t-49.5 -69.5l-43 8l74 328h2q106 -25 461 -25h121l2 -4z" />
    <glyph glyph-name="acute" unicode="&#xb4;" horiz-adv-x="874" 
d="M221 1174l-33 34q77 141 151 254.5t112 151.5q45 45 102 45q53 0 93 -39t40 -92q0 -64 -49 -107q-41 -38 -156 -107t-260 -140z" />
    <glyph glyph-name="uni00B5" unicode="&#xb5;" horiz-adv-x="1478" 
d="M1268 256q0 -63 27 -87.5t108 -31.5v-61q-300 -48 -541 -96h-4v149q-41 -67 -121.5 -108t-171.5 -41q-117 0 -182 104q6 -22 18 -66.5t17.5 -65.5t14.5 -57t13.5 -57.5t9.5 -48.5t7 -48t2 -40q0 -55 -40 -93t-97 -38t-97.5 38t-40.5 93q0 92 15 606v443q0 75 -27 105.5
t-108 45.5v62q352 96 540 155h4v-760q0 -163 146 -163q62 0 98 36v519q0 75 -27 105.5t-108 45.5v62q359 98 541 155h4v-862z" />
    <glyph glyph-name="paragraph" unicode="&#xb6;" horiz-adv-x="1366" 
d="M1278 1507v-65q-118 -12 -157.5 -48t-39.5 -132v-1672l-114 -18v1833h-275v-1815l-114 -18v1083h-3q-230 0 -371 123t-141 324q0 183 120 294t317 111h778z" />
    <glyph glyph-name="periodcentered" unicode="&#xb7;" horiz-adv-x="659" 
d="M330 369q-106 0 -176 67t-70 168t70 168.5t176 67.5t175.5 -67.5t69.5 -168.5t-69.5 -168t-175.5 -67z" />
    <glyph glyph-name="cedilla" unicode="&#xb8;" horiz-adv-x="894" 
d="M299 -430l-14 43q66 25 93.5 45.5t27.5 46.5q0 25 -32.5 53.5t-109.5 73.5l113 188l104 -20l-41 -68q86 -43 138.5 -88.5t52.5 -101.5q0 -154 -332 -172z" />
    <glyph glyph-name="uni00B9" unicode="&#xb9;" horiz-adv-x="608" 
d="M451 801q0 -51 23 -71.5t91 -27.5v-40h-508v40q68 7 91.5 28t23.5 71v401q0 43 -12.5 59.5t-48.5 16.5q-19 0 -54 -6l-16 39q223 109 405 221h5v-731z" />
    <glyph glyph-name="ordmasculine" unicode="&#xba;" horiz-adv-x="1093" 
d="M547 649q-217 0 -349 121.5t-132 319.5q0 197 132 317.5t349 120.5t349 -120.5t132 -317.5q0 -198 -132 -319.5t-349 -121.5zM547 715q57 0 92 103t35 272q0 167 -35 269.5t-92 102.5t-92 -102t-35 -270q0 -170 35 -272.5t92 -102.5z" />
    <glyph glyph-name="guillemotright" unicode="&#xbb;" horiz-adv-x="919" 
d="M510 627v-49l-373 -447l-45 27l180 444l-180 445l45 26zM465 1073l373 -446v-49l-373 -447l-45 27l180 444l-180 445z" />
    <glyph glyph-name="onequarter" unicode="&#xbc;" horiz-adv-x="1753" 
d="M1427 1563l84 -70l-1312 -1548l-84 69zM174 1278q-18 0 -53 -6l-17 39q228 112 406 221h4v-731q0 -51 23 -71.5t92 -27.5v-40h-508v40q68 7 91.5 28t23.5 71v401q0 42 -13 59t-49 17zM1673 203h-166v-60q0 -53 21 -74t84 -28v-41h-512v41q76 9 102.5 34.5t26.5 90.5v37
h-355l-2 4l445 639h190v-574q74 0 181 7h2zM997 272h232v338z" />
    <glyph glyph-name="onehalf" unicode="&#xbd;" horiz-adv-x="1722" 
d="M1415 1563l84 -70l-1313 -1548l-84 69zM162 1278q-18 0 -53 -6l-17 39q228 112 406 221h4v-731q0 -51 23 -71.5t91 -27.5v-40h-507v40q68 7 91 28t23 71v401q0 43 -12.5 59.5t-48.5 16.5zM1606 313l45 -8l-37 -311q-159 6 -500 6h-225l-2 4q65 74 151 150q57 50 91 83.5
t72.5 80t56.5 92t18 92.5q0 64 -35 102.5t-92 38.5q-107 0 -178 -98l-37 20q61 133 167 213t216 80q114 0 184 -60t70 -153q0 -61 -27.5 -119.5t-79 -112t-104.5 -95t-125 -89.5h121q138 0 189 16.5t61 67.5z" />
    <glyph glyph-name="threequarters" unicode="&#xbe;" horiz-adv-x="1824" 
d="M1499 1563l84 -70l-1313 -1548l-84 69zM739 948q0 -133 -155 -205.5t-459 -93.5l-8 41q348 46 348 178q0 55 -47 83t-154 46l-2 4l209 281h-168q-79 0 -114.5 -16.5t-49.5 -69.5l-43 8l74 328h2q106 -25 461 -25h121l2 -4l-256 -311q107 -34 173 -102t66 -142zM1745 203
h-166v-60q0 -53 21 -74t83 -28v-41h-512v41q76 9 102.5 34.5t26.5 90.5v37h-354l-2 4l445 639h190v-574q73 0 180 7h2zM1069 272h231v338z" />
    <glyph glyph-name="questiondown" unicode="&#xbf;" horiz-adv-x="905" 
d="M537 852q-106 0 -176 67t-70 168t70 168.5t176 67.5t175.5 -67.5t69.5 -168.5t-69.5 -168t-175.5 -67zM799 41q18 -49 18 -96q0 -77 -55 -123.5t-146 -46.5q-76 0 -156 32.5t-147 88.5t-120.5 125t-84 147.5t-30.5 150.5q0 126 120.5 209.5t321.5 98.5q9 65 12 127h66
q58 -230 137 -459l-4 -4q-221 0 -356 -44t-135 -116q0 -43 57 -90h502z" />
    <glyph glyph-name="Agrave" unicode="&#xc0;" horiz-adv-x="1716" 
d="M618 1710q-41 20 -63.5 53t-22.5 72q0 53 38 92t96 39q33 0 65 -14q102 -47 381 -299l-20 -43q-164 22 -294 49.5t-180 50.5zM1511 215q39 -90 83.5 -118.5t140.5 -30.5v-66h-924v66q130 9 179.5 30.5t49.5 71.5q0 46 -43 151l-47 119h-501q-76 -199 -76 -262
q0 -57 46.5 -80.5t162.5 -29.5v-66h-582v66q51 6 85 17.5t66 37t57.5 67t51.5 107.5l365 909l-54 129q148 62 334 195h49zM487 541h424l-217 546z" />
    <glyph glyph-name="Aacute" unicode="&#xc1;" horiz-adv-x="1716" 
d="M1077 1710q-111 -52 -473 -100l-20 43q279 252 381 299q32 14 65 14q58 0 95.5 -39t37.5 -92q0 -39 -22.5 -72t-63.5 -53zM1511 215q39 -90 83.5 -118.5t140.5 -30.5v-66h-924v66q130 9 179.5 30.5t49.5 71.5q0 46 -43 151l-47 119h-501q-76 -199 -76 -262
q0 -57 46.5 -80.5t162.5 -29.5v-66h-582v66q51 6 85 17.5t66 37t57.5 67t51.5 107.5l365 909l-54 129q148 62 334 195h49zM487 541h424l-217 546z" />
    <glyph glyph-name="Acircumflex" unicode="&#xc2;" horiz-adv-x="1716" 
d="M852 1733l-342 -123l-27 45l344 311h50l344 -311l-27 -45zM1511 215q39 -90 83.5 -118.5t140.5 -30.5v-66h-924v66q130 9 179.5 30.5t49.5 71.5q0 46 -43 151l-47 119h-501q-76 -199 -76 -262q0 -57 46.5 -80.5t162.5 -29.5v-66h-582v66q51 6 85 17.5t66 37t57.5 67
t51.5 107.5l365 909l-54 129q148 62 334 195h49zM487 541h424l-217 546z" />
    <glyph glyph-name="Atilde" unicode="&#xc3;" horiz-adv-x="1716" 
d="M565 1741q-80 0 -108 -99l-49 13q12 124 90.5 217.5t179.5 93.5q85 0 225 -51q144 -51 234 -51q80 0 108 98l49 -12q-14 -129 -87.5 -220.5t-182.5 -91.5q-88 0 -231 52q-140 51 -228 51zM1511 215q39 -90 83.5 -118.5t140.5 -30.5v-66h-924v66q130 9 179.5 30.5
t49.5 71.5q0 46 -43 151l-47 119h-501q-76 -199 -76 -262q0 -57 46.5 -80.5t162.5 -29.5v-66h-582v66q51 6 85 17.5t66 37t57.5 67t51.5 107.5l365 909l-54 129q148 62 334 195h49zM487 541h424l-217 546z" />
    <glyph glyph-name="Adieresis" unicode="&#xc4;" horiz-adv-x="1716" 
d="M647 1618q-77 0 -127.5 49.5t-50.5 124.5t50.5 124.5t127.5 49.5t127.5 -49.5t50.5 -124.5t-50.5 -124.5t-127.5 -49.5zM1057 1618q-77 0 -127.5 49.5t-50.5 124.5t50.5 124.5t127.5 49.5t127.5 -49.5t50.5 -124.5t-50.5 -124.5t-127.5 -49.5zM1511 215
q39 -90 83.5 -118.5t140.5 -30.5v-66h-924v66q130 9 179.5 30.5t49.5 71.5q0 46 -43 151l-47 119h-501q-76 -199 -76 -262q0 -57 46.5 -80.5t162.5 -29.5v-66h-582v66q51 6 85 17.5t66 37t57.5 67t51.5 107.5l365 909l-54 129q148 62 334 195h49zM487 541h424l-217 546z" />
    <glyph glyph-name="Aring" unicode="&#xc5;" horiz-adv-x="1716" 
d="M852 1577q-109 0 -175.5 62t-66.5 163t66.5 163.5t175.5 62.5t175.5 -62.5t66.5 -163.5t-66.5 -163t-175.5 -62zM852 1946q-66 0 -106.5 -39.5t-40.5 -104.5q0 -64 40.5 -103.5t106.5 -39.5t106.5 39.5t40.5 103.5q0 65 -40.5 104.5t-106.5 39.5zM1511 215
q39 -90 83.5 -118.5t140.5 -30.5v-66h-924v66q130 9 179.5 30.5t49.5 71.5q0 46 -43 151l-47 119h-501q-76 -199 -76 -262q0 -57 46.5 -80.5t162.5 -29.5v-66h-582v66q51 6 85 17.5t66 37t57.5 67t51.5 107.5l365 909l-54 129q148 62 334 195h49zM487 541h424l-217 546z" />
    <glyph glyph-name="AE" unicode="&#xc6;" horiz-adv-x="2406" 
d="M2310 598l72 -23l-195 -585q-197 10 -555 10h-815v66q118 12 157.5 48t39.5 132v471h-449l-104 -258q-49 -119 -70.5 -183.5t-21.5 -103.5q0 -54 45.5 -77t156.5 -29v-66h-581v66q104 13 166 59t114 170l506 1212h823q313 0 515 11l174 -566l-70 -24q-40 118 -83 196.5
t-99 135.5t-135 87.5t-179 44t-243 13.5h-35v-586h63q96 0 150.5 29.5t88.5 102.5t60 216h70q-6 -246 -6 -409q0 -164 6 -410h-70q-26 151 -60 228.5t-88.5 109t-150.5 31.5h-63v-492q0 -74 27 -98.5t108 -24.5h14q109 0 190 9t151 32t120.5 58t97 92.5t83 130t75.5 174.5z
M606 819h408v402q0 100 -33.5 145.5t-126.5 63.5z" />
    <glyph glyph-name="Ccedilla" unicode="&#xc7;" horiz-adv-x="1550" 
d="M1509 416q-79 -189 -253.5 -306t-383.5 -128l-28 -50q86 -43 138 -88.5t52 -101.5q0 -154 -332 -172l-14 43q66 25 93.5 45.5t27.5 46.5q0 25 -32 54t-109 73l90 150q-311 25 -497.5 234.5t-186.5 537.5q0 229 103 405t292 272.5t436 96.5q72 0 142 -19t122.5 -38
t83.5 -19q30 0 44 13.5t24 52.5h35l119 -551l-66 -19q-188 477 -510 477q-178 0 -286.5 -144.5t-108.5 -381.5q0 -295 147.5 -475t388.5 -180q119 0 234.5 55.5t179.5 149.5z" />
    <glyph glyph-name="Egrave" unicode="&#xc8;" horiz-adv-x="1640" 
d="M557 1710q-41 20 -63.5 53t-22.5 72q0 53 37.5 92t95.5 39q34 0 66 -14q102 -47 381 -299l-21 -43q-362 48 -473 100zM1544 598l72 -23l-195 -585q-198 10 -555 10h-815v66q118 12 157.5 48t39.5 132v1016q0 96 -39.5 132t-157.5 48v65h783q312 0 514 11l174 -566
l-70 -24q-40 118 -83 196.5t-99 135.5t-135 87.5t-179 44t-243 13.5h-35v-586h63q96 0 150.5 29.5t88.5 102.5t60 216h70q-6 -246 -6 -409q0 -164 6 -410h-70q-26 151 -60 228.5t-88.5 109t-150.5 31.5h-63v-492q0 -74 27 -98.5t108 -24.5h14q109 0 190 9t151 32t120.5 58
t97 92.5t83 130t75.5 174.5z" />
    <glyph glyph-name="Eacute" unicode="&#xc9;" horiz-adv-x="1640" 
d="M1016 1710q-111 -52 -473 -100l-21 43q279 252 381 299q32 14 66 14q58 0 95.5 -39t37.5 -92q0 -39 -22.5 -72t-63.5 -53zM1544 598l72 -23l-195 -585q-198 10 -555 10h-815v66q118 12 157.5 48t39.5 132v1016q0 96 -39.5 132t-157.5 48v65h783q312 0 514 11l174 -566
l-70 -24q-40 118 -83 196.5t-99 135.5t-135 87.5t-179 44t-243 13.5h-35v-586h63q96 0 150.5 29.5t88.5 102.5t60 216h70q-6 -246 -6 -409q0 -164 6 -410h-70q-26 151 -60 228.5t-88.5 109t-150.5 31.5h-63v-492q0 -74 27 -98.5t108 -24.5h14q109 0 190 9t151 32t120.5 58
t97 92.5t83 130t75.5 174.5z" />
    <glyph glyph-name="Ecircumflex" unicode="&#xca;" horiz-adv-x="1640" 
d="M791 1733l-342 -123l-27 45l344 311h49l344 -311l-26 -45zM1544 598l72 -23l-195 -585q-198 10 -555 10h-815v66q118 12 157.5 48t39.5 132v1016q0 96 -39.5 132t-157.5 48v65h783q312 0 514 11l174 -566l-70 -24q-40 118 -83 196.5t-99 135.5t-135 87.5t-179 44
t-243 13.5h-35v-586h63q96 0 150.5 29.5t88.5 102.5t60 216h70q-6 -246 -6 -409q0 -164 6 -410h-70q-26 151 -60 228.5t-88.5 109t-150.5 31.5h-63v-492q0 -74 27 -98.5t108 -24.5h14q109 0 190 9t151 32t120.5 58t97 92.5t83 130t75.5 174.5z" />
    <glyph glyph-name="Edieresis" unicode="&#xcb;" horiz-adv-x="1640" 
d="M586 1618q-77 0 -127.5 49.5t-50.5 124.5t50.5 124.5t127.5 49.5t127.5 -49.5t50.5 -124.5t-50.5 -124.5t-127.5 -49.5zM995 1618q-77 0 -127.5 49.5t-50.5 124.5t50.5 124.5t127.5 49.5t128 -49.5t51 -124.5t-51 -124.5t-128 -49.5zM1544 598l72 -23l-195 -585
q-198 10 -555 10h-815v66q118 12 157.5 48t39.5 132v1016q0 96 -39.5 132t-157.5 48v65h783q312 0 514 11l174 -566l-70 -24q-40 118 -83 196.5t-99 135.5t-135 87.5t-179 44t-243 13.5h-35v-586h63q96 0 150.5 29.5t88.5 102.5t60 216h70q-6 -246 -6 -409q0 -164 6 -410
h-70q-26 151 -60 228.5t-88.5 109t-150.5 31.5h-63v-492q0 -74 27 -98.5t108 -24.5h14q109 0 190 9t151 32t120.5 58t97 92.5t83 130t75.5 174.5z" />
    <glyph glyph-name="Igrave" unicode="&#xcc;" horiz-adv-x="925" 
d="M229 1710q-41 20 -63.5 53t-22.5 72q0 53 37.5 92t95.5 39q34 0 66 -14q102 -47 381 -299l-21 -43q-362 48 -473 100zM874 1442q-118 -12 -157 -48t-39 -132v-1016q0 -96 39 -132t157 -48v-66h-823v66q118 12 157.5 48t39.5 132v1016q0 96 -39.5 132t-157.5 48v65h823
v-65z" />
    <glyph glyph-name="Iacute" unicode="&#xcd;" horiz-adv-x="925" 
d="M688 1710q-111 -52 -473 -100l-20 43q280 253 380 299q32 14 66 14q58 0 95.5 -39t37.5 -92q0 -39 -22.5 -72t-63.5 -53zM874 1442q-118 -12 -157 -48t-39 -132v-1016q0 -96 39 -132t157 -48v-66h-823v66q118 12 157.5 48t39.5 132v1016q0 96 -39.5 132t-157.5 48v65h823
v-65z" />
    <glyph glyph-name="Icircumflex" unicode="&#xce;" horiz-adv-x="925" 
d="M463 1733l-342 -123l-27 45l344 311h49l344 -311l-26 -45zM874 1442q-118 -12 -157 -48t-39 -132v-1016q0 -96 39 -132t157 -48v-66h-823v66q118 12 157.5 48t39.5 132v1016q0 96 -39.5 132t-157.5 48v65h823v-65z" />
    <glyph glyph-name="Idieresis" unicode="&#xcf;" horiz-adv-x="925" 
d="M258 1618q-77 0 -127.5 49.5t-50.5 124.5t50.5 124.5t127.5 49.5t127.5 -49.5t50.5 -124.5t-50.5 -124.5t-127.5 -49.5zM668 1618q-77 0 -128 49.5t-51 124.5t51 124.5t128 49.5t127.5 -49.5t50.5 -124.5t-50.5 -124.5t-127.5 -49.5zM874 1442q-118 -12 -157 -48
t-39 -132v-1016q0 -96 39 -132t157 -48v-66h-823v66q118 12 157.5 48t39.5 132v1016q0 96 -39.5 132t-157.5 48v65h823v-65z" />
    <glyph glyph-name="Eth" unicode="&#xd0;" horiz-adv-x="1808" 
d="M885 1507q253 0 447 -93.5t299.5 -264.5t105.5 -395t-105.5 -395.5t-299.5 -265t-447 -93.5h-832v66q118 12 157.5 48t39.5 132v479h-197l19 86h178v451q0 96 -39.5 132t-157.5 48v65h832zM803 102q209 0 336 179t127 473q0 298 -117 474.5t-326 176.5h-143v-594h295
l-19 -86h-276v-520q0 -61 24 -82t95 -21h4z" />
    <glyph glyph-name="Ntilde" unicode="&#xd1;" horiz-adv-x="1716" 
d="M580 1741q-81 0 -109 -99l-49 13q12 124 90.5 217.5t179.5 93.5q86 0 226 -51q144 -51 233 -51q81 0 109 98l49 -12q-14 -129 -88 -220.5t-183 -91.5q-88 0 -231 52q-140 51 -227 51zM1130 1507h549v-65q-118 -12 -157 -48t-39 -132v-1282h-70l-1051 1116v-809
q0 -120 48 -164.5t190 -56.5v-66h-549v66q118 12 157.5 48t39.5 132v1016q0 96 -39.5 132t-157.5 48v65h500l817 -876v590q0 120 -48 164.5t-190 56.5v65z" />
    <glyph glyph-name="Ograve" unicode="&#xd2;" horiz-adv-x="1798" 
d="M1139 1610q-362 48 -473 100q-41 20 -63.5 53t-22.5 72q0 53 37.5 92t95.5 39q33 0 65 -14q102 -47 381 -299zM899 -20q-246 0 -433 96t-289.5 272t-102.5 406t102.5 406t289.5 272t433 96t433 -96t289.5 -272t102.5 -406t-102.5 -406t-289.5 -272t-433 -96zM899 82
q160 0 257 185t97 487t-97 486.5t-257 184.5t-257 -184.5t-97 -486.5t97 -487t257 -185z" />
    <glyph glyph-name="Oacute" unicode="&#xd3;" horiz-adv-x="1798" 
d="M651 1610l-20 43q279 252 381 299q32 14 65 14q58 0 95.5 -39t37.5 -92q0 -39 -22.5 -72t-63.5 -53q-111 -52 -473 -100zM899 -20q-246 0 -433 96t-289.5 272t-102.5 406t102.5 406t289.5 272t433 96t433 -96t289.5 -272t102.5 -406t-102.5 -406t-289.5 -272t-433 -96z
M899 82q160 0 257 185t97 487t-97 486.5t-257 184.5t-257 -184.5t-97 -486.5t97 -487t257 -185z" />
    <glyph glyph-name="Ocircumflex" unicode="&#xd4;" horiz-adv-x="1798" 
d="M899 1733l-342 -123l-27 45l344 311h50l344 -311l-27 -45zM899 1528q246 0 433 -96t289.5 -272t102.5 -406t-102.5 -406t-289.5 -272t-433 -96t-433 96t-289.5 272t-102.5 406t102.5 406t289.5 272t433 96zM899 82q160 0 257 185t97 487t-97 486.5t-257 184.5
t-257 -184.5t-97 -486.5t97 -487t257 -185z" />
    <glyph glyph-name="Otilde" unicode="&#xd5;" horiz-adv-x="1798" 
d="M1071 1638q-88 0 -231 52q-140 51 -228 51q-80 0 -108 -99l-49 13q12 124 90.5 217.5t179.5 93.5q85 0 225 -51q144 -51 234 -51q80 0 108 98l49 -12q-14 -129 -87.5 -220.5t-182.5 -91.5zM899 -20q-246 0 -433 96t-289.5 272t-102.5 406t102.5 406t289.5 272t433 96
t433 -96t289.5 -272t102.5 -406t-102.5 -406t-289.5 -272t-433 -96zM899 82q160 0 257 185t97 487t-97 486.5t-257 184.5t-257 -184.5t-97 -486.5t97 -487t257 -185z" />
    <glyph glyph-name="Odieresis" unicode="&#xd6;" horiz-adv-x="1798" 
d="M694 1618q-77 0 -127.5 49.5t-50.5 124.5t50.5 124.5t127.5 49.5t127.5 -49.5t50.5 -124.5t-50.5 -124.5t-127.5 -49.5zM1104 1618q-77 0 -127.5 49.5t-50.5 124.5t50.5 124.5t127.5 49.5t127.5 -49.5t50.5 -124.5t-50.5 -124.5t-127.5 -49.5zM899 -20q-246 0 -433 96
t-289.5 272t-102.5 406t102.5 406t289.5 272t433 96t433 -96t289.5 -272t102.5 -406t-102.5 -406t-289.5 -272t-433 -96zM899 82q160 0 257 185t97 487t-97 486.5t-257 184.5t-257 -184.5t-97 -486.5t97 -487t257 -185z" />
    <glyph glyph-name="multiply" unicode="&#xd7;" horiz-adv-x="970" 
d="M831 344l-77 -78l-267 264l-272 -272l-78 78l273 272l-267 266l78 80l268 -266l256 256l78 -78l-256 -256z" />
    <glyph glyph-name="Oslash" unicode="&#xd8;" horiz-adv-x="1802" 
d="M1507 1307q106 -103 162.5 -244t56.5 -309q0 -230 -102.5 -406t-289.5 -272t-433 -96q-284 0 -485 126l-166 -196l-84 70l162 190q-122 104 -187 253t-65 331q0 230 102.5 406t289.5 272t433 96q310 0 522 -152l129 152l84 -70zM901 1425q-160 0 -257 -184.5t-97 -486.5
q0 -188 37 -324l612 723q-45 130 -121 201t-174 71zM901 82q160 0 257 185t97 487q0 150 -24 270l-606 -715q46 -109 117 -168t159 -59z" />
    <glyph glyph-name="Ugrave" unicode="&#xd9;" horiz-adv-x="1691" 
d="M762 1710q-41 20 -63.5 53t-22.5 72q0 53 37.5 92t95.5 39q33 0 65 -14q102 -47 381 -299l-20 -43q-362 48 -473 100zM1665 1507v-65q-118 -12 -157.5 -48t-39.5 -132v-768q0 -242 -145 -378t-403 -136q-359 0 -529 129t-170 403v750q0 96 -39 132t-157 48v65h864v-65
q-142 -12 -190 -48.5t-48 -131.5v-811q0 -166 94.5 -267.5t249.5 -101.5q161 0 260 104.5t99 274.5v760q0 120 -48 164.5t-190 56.5v65h549z" />
    <glyph glyph-name="Uacute" unicode="&#xda;" horiz-adv-x="1691" 
d="M1221 1710q-111 -52 -473 -100l-21 43q279 252 381 299q32 14 66 14q58 0 95.5 -39t37.5 -92q0 -39 -22.5 -72t-63.5 -53zM1665 1507v-65q-118 -12 -157.5 -48t-39.5 -132v-768q0 -242 -145 -378t-403 -136q-359 0 -529 129t-170 403v750q0 96 -39 132t-157 48v65h864
v-65q-142 -12 -190 -48.5t-48 -131.5v-811q0 -166 94.5 -267.5t249.5 -101.5q161 0 260 104.5t99 274.5v760q0 120 -48 164.5t-190 56.5v65h549z" />
    <glyph glyph-name="Ucircumflex" unicode="&#xdb;" horiz-adv-x="1691" 
d="M995 1733l-342 -123l-26 45l344 311h49l344 -311l-27 -45zM1665 1507v-65q-118 -12 -157.5 -48t-39.5 -132v-768q0 -242 -145 -378t-403 -136q-359 0 -529 129t-170 403v750q0 96 -39 132t-157 48v65h864v-65q-142 -12 -190 -48.5t-48 -131.5v-811q0 -166 94.5 -267.5
t249.5 -101.5q161 0 260 104.5t99 274.5v760q0 120 -48 164.5t-190 56.5v65h549z" />
    <glyph glyph-name="Udieresis" unicode="&#xdc;" horiz-adv-x="1691" 
d="M791 1618q-77 0 -128 49.5t-51 124.5t51 124.5t128 49.5t127.5 -49.5t50.5 -124.5t-50.5 -124.5t-127.5 -49.5zM1200 1618q-77 0 -127.5 49.5t-50.5 124.5t50.5 124.5t127.5 49.5t127.5 -49.5t50.5 -124.5t-50.5 -124.5t-127.5 -49.5zM1665 1507v-65q-118 -12 -157.5 -48
t-39.5 -132v-768q0 -242 -145 -378t-403 -136q-359 0 -529 129t-170 403v750q0 96 -39 132t-157 48v65h864v-65q-142 -12 -190 -48.5t-48 -131.5v-811q0 -166 94.5 -267.5t249.5 -101.5q161 0 260 104.5t99 274.5v760q0 120 -48 164.5t-190 56.5v65h549z" />
    <glyph glyph-name="Yacute" unicode="&#xdd;" horiz-adv-x="1658" 
d="M1202 1710q-111 -52 -473 -100l-20 43q279 252 381 299q32 14 65 14q58 0 95.5 -39t37.5 -92q0 -39 -22.5 -72t-63.5 -53zM1038 1507h650v-65q-126 -13 -222 -86.5t-192 -247.5l-234 -426v-436q0 -96 42.5 -132t174.5 -48v-66h-864v66q132 12 174.5 48t42.5 132v438
l-293 528q-71 126 -130.5 174t-149.5 56v65h911v-65q-100 -4 -142 -25t-42 -63q0 -45 74 -193l163 -325l109 200q67 124 97 192t30 111q0 51 -46.5 74.5t-152.5 28.5v65z" />
    <glyph glyph-name="Thorn" unicode="&#xde;" horiz-adv-x="1613" 
d="M801 358h-123v-71q0 -118 47 -162t190 -59v-66h-864v66q118 12 157.5 48t39.5 132v1016q0 96 -39.5 132t-157.5 48v65h823v-65q-118 -12 -157 -48t-39 -132v-52h221q298 0 480 -114t182 -301q0 -130 -94 -229t-267 -153.5t-399 -54.5zM797 1108h-119v-647h102
q138 0 224 92t86 242q0 142 -80.5 227.5t-212.5 85.5z" />
    <glyph glyph-name="germandbls" unicode="&#xdf;" horiz-adv-x="1423" 
d="M1106 766q53 -49 83.5 -78.5t76.5 -81.5t71 -92.5t44.5 -93.5t19.5 -103q0 -155 -109.5 -246t-281.5 -91q-91 0 -164 45.5t-111 128.5l45 47q34 -46 80.5 -73.5t89.5 -27.5q97 0 97 88q0 33 -20.5 69t-43 60.5t-68.5 69.5q-43 41 -70.5 71.5t-59.5 76t-48 97t-16 107.5
q0 48 13 97t27 79.5t42 83.5q33 62 51.5 104.5t36.5 119t18 159.5q0 88 -34 141.5t-91 53.5q-95 0 -153 -132t-58 -347v-914q0 -63 27 -87t109 -31v-66h-680v66q81 7 108 31t27 87v783h-135v61l139 82q25 251 191 400t425 149q229 0 368.5 -79t139.5 -208q0 -46 -17.5 -84.5
t-53 -70.5t-64.5 -51.5t-76 -45.5q-71 -39 -107 -71t-36 -72q0 -27 26 -64t54.5 -65t87.5 -82z" />
    <glyph glyph-name="agrave" unicode="&#xe0;" horiz-adv-x="1234" 
d="M432 1421q-49 43 -49 107q0 53 40 92t93 39q57 0 102 -45q38 -38 112 -151.5t151 -254.5l-33 -34q-145 71 -260 140t-156 107zM1200 264l47 -31q-40 -114 -129 -183.5t-196 -69.5q-99 0 -166.5 41t-79.5 108q-51 -67 -148 -108t-206 -41q-126 0 -202.5 59t-76.5 156
q0 170 246 262l387 145v240q0 78 -43 126t-113 48q-18 0 -28 -2v-404q-44 -29 -102 -47t-109 -18q-82 0 -129.5 37.5t-47.5 107.5q0 120 92 219.5t236 154t303 54.5q158 0 254 -87t96 -230v-559q0 -26 7 -36.5t26 -10.5q22 0 44.5 19t37.5 50zM676 231v273
q-91 -38 -147 -96.5t-56 -114.5q0 -44 27 -71t71 -27q66 0 105 36z" />
    <glyph glyph-name="aacute" unicode="&#xe1;" horiz-adv-x="1234" 
d="M883 1421q-41 -38 -156 -107t-260 -140l-33 34q77 142 150.5 255t111.5 151q45 45 103 45q53 0 93 -39t40 -92q0 -64 -49 -107zM1200 264l47 -31q-40 -114 -129 -183.5t-196 -69.5q-99 0 -166.5 41t-79.5 108q-51 -67 -148 -108t-206 -41q-126 0 -202.5 59t-76.5 156
q0 170 246 262l387 145v240q0 78 -43 126t-113 48q-18 0 -28 -2v-404q-44 -29 -102 -47t-109 -18q-82 0 -129.5 37.5t-47.5 107.5q0 120 92 219.5t236 154t303 54.5q158 0 254 -87t96 -230v-559q0 -26 7 -36.5t26 -10.5q22 0 44.5 19t37.5 50zM676 231v273
q-91 -38 -147 -96.5t-56 -114.5q0 -44 27 -71t71 -27q66 0 105 36z" />
    <glyph glyph-name="acircumflex" unicode="&#xe2;" horiz-adv-x="1234" 
d="M662 1384l-330 -210l-35 32l340 453h49l340 -453l-35 -32zM1200 264l47 -31q-40 -114 -129 -183.5t-196 -69.5q-99 0 -166.5 41t-79.5 108q-51 -67 -148 -108t-206 -41q-126 0 -202.5 59t-76.5 156q0 170 246 262l387 145v240q0 78 -43 126t-113 48q-18 0 -28 -2v-404
q-44 -29 -102 -47t-109 -18q-82 0 -129.5 37.5t-47.5 107.5q0 120 92 219.5t236 154t303 54.5q158 0 254 -87t96 -230v-559q0 -26 7 -36.5t26 -10.5q22 0 44.5 19t37.5 50zM676 231v273q-91 -38 -147 -96.5t-56 -114.5q0 -44 27 -71t71 -27q66 0 105 36z" />
    <glyph glyph-name="atilde" unicode="&#xe3;" horiz-adv-x="1234" 
d="M389 1368q-80 0 -108 -98l-50 12q13 128 87.5 219.5t183.5 91.5q79 0 211 -51t219 -51q80 0 108 98l50 -12q-14 -128 -88 -219.5t-183 -91.5q-85 0 -217 51t-213 51zM1200 264l47 -31q-40 -114 -129 -183.5t-196 -69.5q-99 0 -166.5 41t-79.5 108q-51 -67 -148 -108
t-206 -41q-126 0 -202.5 59t-76.5 156q0 170 246 262l387 145v240q0 78 -43 126t-113 48q-18 0 -28 -2v-404q-44 -29 -102 -47t-109 -18q-82 0 -129.5 37.5t-47.5 107.5q0 120 92 219.5t236 154t303 54.5q158 0 254 -87t96 -230v-559q0 -26 7 -36.5t26 -10.5q22 0 44.5 19
t37.5 50zM676 231v273q-91 -38 -147 -96.5t-56 -114.5q0 -44 27 -71t71 -27q66 0 105 36z" />
    <glyph glyph-name="adieresis" unicode="&#xe4;" horiz-adv-x="1234" 
d="M457 1260q-77 0 -127.5 49.5t-50.5 124.5t50.5 124.5t127.5 49.5t127.5 -49.5t50.5 -124.5t-50.5 -124.5t-127.5 -49.5zM866 1260q-77 0 -127.5 49.5t-50.5 124.5t50.5 124.5t127.5 49.5t127.5 -49.5t50.5 -124.5t-50.5 -124.5t-127.5 -49.5zM1200 264l47 -31
q-40 -114 -129 -183.5t-196 -69.5q-99 0 -166.5 41t-79.5 108q-51 -67 -148 -108t-206 -41q-126 0 -202.5 59t-76.5 156q0 170 246 262l387 145v240q0 78 -43 126t-113 48q-18 0 -28 -2v-404q-44 -29 -102 -47t-109 -18q-82 0 -129.5 37.5t-47.5 107.5q0 120 92 219.5
t236 154t303 54.5q158 0 254 -87t96 -230v-559q0 -26 7 -36.5t26 -10.5q22 0 44.5 19t37.5 50zM676 231v273q-91 -38 -147 -96.5t-56 -114.5q0 -44 27 -71t71 -27q66 0 105 36z" />
    <glyph glyph-name="aring" unicode="&#xe5;" horiz-adv-x="1234" 
d="M662 1208q-109 0 -175.5 62.5t-66.5 163.5t66.5 163t175.5 62t175 -62t66 -163t-66 -163.5t-175 -62.5zM662 1577q-66 0 -107 -39.5t-41 -103.5t41 -104t107 -40t106.5 39.5t40.5 104.5q0 64 -40.5 103.5t-106.5 39.5zM1200 264l47 -31q-40 -114 -129 -183.5t-196 -69.5
q-99 0 -166.5 41t-79.5 108q-51 -67 -148 -108t-206 -41q-126 0 -202.5 59t-76.5 156q0 170 246 262l387 145v240q0 78 -43 126t-113 48q-18 0 -28 -2v-404q-44 -29 -102 -47t-109 -18q-82 0 -129.5 37.5t-47.5 107.5q0 120 92 219.5t236 154t303 54.5q158 0 254 -87
t96 -230v-559q0 -26 7 -36.5t26 -10.5q22 0 44.5 19t37.5 50zM676 231v273q-91 -38 -147 -96.5t-56 -114.5q0 -44 27 -71t71 -27q66 0 105 36z" />
    <glyph glyph-name="ae" unicode="&#xe6;" horiz-adv-x="1826" 
d="M1745 342l45 -29q-63 -151 -209.5 -242t-325.5 -91q-157 0 -281 59.5t-198 167.5q-72 -104 -195.5 -165.5t-258.5 -61.5q-126 0 -202.5 59t-76.5 156q0 170 246 262l387 145v240q0 78 -43 126t-113 48q-18 0 -28 -2v-404q-44 -29 -102 -47t-109 -18q-82 0 -129.5 37.5
t-47.5 107.5q0 120 85.5 219.5t220.5 154t284 54.5q166 0 244 -133q139 133 348 133q218 0 352 -132t134 -349h-687q2 -186 105 -299t272 -113q75 0 152.5 32t130.5 85zM1286 1034q-79 0 -131.5 -84t-64.5 -227h45q114 0 182.5 53t68.5 139q0 53 -28 86t-72 33zM571 195
q44 0 86.5 24t73.5 66q-47 100 -53 219h-2q-91 -38 -147 -96.5t-56 -114.5q0 -44 27 -71t71 -27z" />
    <glyph glyph-name="ccedilla" unicode="&#xe7;" horiz-adv-x="1185" 
d="M1147 313q-57 -141 -185.5 -230.5t-287.5 -100.5l-29 -50q86 -43 138.5 -88.5t52.5 -101.5q0 -154 -332 -172l-15 43q66 25 93.5 45.5t27.5 46.5q0 25 -32 54t-109 73l90 152q-231 22 -368.5 175t-137.5 390q0 257 169.5 413t449.5 156q207 0 334 -99.5t127 -262.5
q0 -85 -59 -137t-154 -52q-57 0 -105 15.5t-70 40.5v411q-8 2 -26 2q-116 0 -186 -108.5t-70 -286.5q0 -188 102 -302t269 -114q78 0 153.5 30.5t116.5 84.5z" />
    <glyph glyph-name="egrave" unicode="&#xe8;" horiz-adv-x="1204" 
d="M432 1421q-49 43 -49 107q0 53 40 92t93 39q57 0 102 -45q38 -38 112 -151.5t151 -254.5l-33 -34q-145 71 -260 140t-156 107zM1122 342l45 -29q-63 -151 -209 -242t-325 -91q-261 0 -420.5 156.5t-159.5 412.5t168 412.5t443 156.5q218 0 351.5 -132t133.5 -349h-686
q2 -186 105 -299t272 -113q75 0 152 32t130 85zM664 1034q-79 0 -132 -84t-65 -227h45q114 0 183 53t69 139q0 53 -28 86t-72 33z" />
    <glyph glyph-name="eacute" unicode="&#xe9;" horiz-adv-x="1204" 
d="M883 1421q-41 -38 -156 -107t-260 -140l-33 34q77 142 150.5 255t111.5 151q45 45 103 45q53 0 93 -39t40 -92q0 -64 -49 -107zM1122 342l45 -29q-63 -151 -209 -242t-325 -91q-261 0 -420.5 156.5t-159.5 412.5t168 412.5t443 156.5q218 0 351.5 -132t133.5 -349h-686
q2 -186 105 -299t272 -113q75 0 152 32t130 85zM664 1034q-79 0 -132 -84t-65 -227h45q114 0 183 53t69 139q0 53 -28 86t-72 33z" />
    <glyph glyph-name="ecircumflex" unicode="&#xea;" horiz-adv-x="1204" 
d="M662 1384l-330 -210l-35 32l340 453h49l340 -453l-35 -32zM1122 342l45 -29q-63 -151 -209 -242t-325 -91q-261 0 -420.5 156.5t-159.5 412.5t168 412.5t443 156.5q218 0 351.5 -132t133.5 -349h-686q2 -186 105 -299t272 -113q75 0 152 32t130 85zM664 1034
q-79 0 -132 -84t-65 -227h45q114 0 183 53t69 139q0 53 -28 86t-72 33z" />
    <glyph glyph-name="edieresis" unicode="&#xeb;" horiz-adv-x="1204" 
d="M457 1260q-77 0 -127.5 49.5t-50.5 124.5t50.5 124.5t127.5 49.5t127.5 -49.5t50.5 -124.5t-50.5 -124.5t-127.5 -49.5zM866 1260q-77 0 -127.5 49.5t-50.5 124.5t50.5 124.5t127.5 49.5t127.5 -49.5t50.5 -124.5t-50.5 -124.5t-127.5 -49.5zM1122 342l45 -29
q-63 -151 -209 -242t-325 -91q-261 0 -420.5 156.5t-159.5 412.5t168 412.5t443 156.5q218 0 351.5 -132t133.5 -349h-686q2 -186 105 -299t272 -113q75 0 152 32t130 85zM664 1034q-79 0 -132 -84t-65 -227h45q114 0 183 53t69 139q0 53 -28 86t-72 33z" />
    <glyph glyph-name="igrave" unicode="&#xec;" horiz-adv-x="720" 
d="M139 1421q-49 43 -49 107q0 53 40 92t93 39q58 0 103 -45q38 -38 111.5 -151t150.5 -255l-33 -34q-145 71 -260 140t-156 107zM573 184q0 -63 27 -87t109 -31v-66h-680v66q81 7 108 31t27 87v566q0 75 -27 105.5t-108 45.5v62q279 73 540 155h4v-934z" />
    <glyph glyph-name="iacute" unicode="&#xed;" horiz-adv-x="720" 
d="M590 1421q-41 -38 -156 -107t-260 -140l-33 34q77 142 150.5 255t111.5 151q45 45 103 45q53 0 93 -39t40 -92q0 -64 -49 -107zM573 184q0 -63 27 -87t109 -31v-66h-680v66q81 7 108 31t27 87v566q0 75 -27 105.5t-108 45.5v62q279 73 540 155h4v-934z" />
    <glyph glyph-name="icircumflex" unicode="&#xee;" horiz-adv-x="720" 
d="M369 1384l-330 -210l-35 32l340 453h49l340 -453l-35 -32zM573 184q0 -63 27 -87t109 -31v-66h-680v66q81 7 108 31t27 87v566q0 75 -27 105.5t-108 45.5v62q279 73 540 155h4v-934z" />
    <glyph glyph-name="idieresis" unicode="&#xef;" horiz-adv-x="720" 
d="M195 1272q-68 0 -113 46t-45 116t45 115.5t113 45.5t112.5 -45.5t44.5 -115.5t-44.5 -116t-112.5 -46zM543 1272q-68 0 -113 46t-45 116t45 115.5t113 45.5t112.5 -45.5t44.5 -115.5t-44.5 -116t-112.5 -46zM573 184q0 -63 27 -87t109 -31v-66h-680v66q81 7 108 31t27 87
v566q0 75 -27 105.5t-108 45.5v62q279 73 540 155h4v-934z" />
    <glyph glyph-name="eth" unicode="&#xf0;" horiz-adv-x="1329" 
d="M733 1450q253 -158 395 -367.5t142 -433.5q0 -301 -167 -485t-441 -184t-441.5 156.5t-167.5 412.5q0 253 144.5 411t361.5 158q77 0 141 -24q-64 140 -172 270l-358 -150l-29 72l334 139q-108 111 -227 185l20 49q209 -65 383 -160l385 160l29 -72zM662 61
q74 0 119.5 135t45.5 353v2v2q0 110 -20.5 216t-59 177.5t-85.5 71.5q-74 0 -120 -129.5t-46 -339.5q0 -219 46 -353.5t120 -134.5z" />
    <glyph glyph-name="ntilde" unicode="&#xf1;" horiz-adv-x="1388" 
d="M430 1368q-80 0 -108 -98l-50 12q13 128 87.5 219.5t183.5 91.5q79 0 211 -51t219 -51q80 0 108 98l49 -12q-14 -129 -87.5 -220t-182.5 -91q-85 0 -217 51t-213 51zM1247 184q0 -63 27 -87t108 -31v-66h-659v66q69 7 92 31t23 87v535q0 91 -39.5 137.5t-116.5 46.5
q-69 0 -109 -37v-682q0 -63 23 -87t92 -31v-66h-659v66q81 7 108 31t27 87v566q0 75 -27 105.5t-108 45.5v62q279 73 540 155h4v-149q70 67 176 108t209 41q130 0 209.5 -87t79.5 -230v-617z" />
    <glyph glyph-name="ograve" unicode="&#xf2;" horiz-adv-x="1347" 
d="M860 1174q-145 71 -260 140t-156 107q-49 43 -49 107q0 53 40 92t93 39q58 0 103 -45q38 -38 111.5 -151t150.5 -255zM674 -20q-280 0 -450.5 156.5t-170.5 412.5t170.5 412.5t450.5 156.5t450 -156t170 -413t-170 -413t-450 -156zM674 61q80 0 129 134.5t49 353.5
t-49 353t-129 134t-129 -134t-49 -353t49 -353.5t129 -134.5z" />
    <glyph glyph-name="oacute" unicode="&#xf3;" horiz-adv-x="1347" 
d="M479 1174l-33 34q77 141 151 254.5t112 151.5q45 45 102 45q53 0 93 -39t40 -92q0 -64 -49 -107q-41 -38 -156 -107t-260 -140zM674 -20q-280 0 -450.5 156.5t-170.5 412.5t170.5 412.5t450.5 156.5t450 -156t170 -413t-170 -413t-450 -156zM674 61q80 0 129 134.5
t49 353.5t-49 353t-129 134t-129 -134t-49 -353t49 -353.5t129 -134.5z" />
    <glyph glyph-name="ocircumflex" unicode="&#xf4;" horiz-adv-x="1347" 
d="M674 1384l-330 -210l-35 32l340 453h49l340 -453l-34 -32zM674 1118q280 0 450 -156t170 -413t-170 -413t-450 -156t-450.5 156.5t-170.5 412.5t170.5 412.5t450.5 156.5zM674 61q80 0 129 134.5t49 353.5t-49 353t-129 134t-129 -134t-49 -353t49 -353.5t129 -134.5z
" />
    <glyph glyph-name="otilde" unicode="&#xf5;" horiz-adv-x="1347" 
d="M831 1266q-85 0 -217 51t-213 51q-80 0 -108 -98l-49 12q13 128 87 219.5t183 91.5q79 0 211 -51t219 -51q81 0 109 98l49 -12q-14 -128 -88 -219.5t-183 -91.5zM674 -20q-280 0 -450.5 156.5t-170.5 412.5t170.5 412.5t450.5 156.5t450 -156t170 -413t-170 -413
t-450 -156zM674 61q80 0 129 134.5t49 353.5t-49 353t-129 134t-129 -134t-49 -353t49 -353.5t129 -134.5z" />
    <glyph glyph-name="odieresis" unicode="&#xf6;" horiz-adv-x="1347" 
d="M469 1260q-77 0 -127.5 49.5t-50.5 124.5t50.5 124.5t127.5 49.5t127.5 -49.5t50.5 -124.5t-50.5 -124.5t-127.5 -49.5zM879 1260q-77 0 -128 49.5t-51 124.5t51 124.5t128 49.5t127.5 -49.5t50.5 -124.5t-50.5 -124.5t-127.5 -49.5zM674 -20q-280 0 -450.5 156.5
t-170.5 412.5t170.5 412.5t450.5 156.5t450 -156t170 -413t-170 -413t-450 -156zM674 61q80 0 129 134.5t49 353.5t-49 353t-129 134t-129 -134t-49 -353t49 -353.5t129 -134.5z" />
    <glyph glyph-name="divide" unicode="&#xf7;" horiz-adv-x="970" 
d="M485 733q-75 0 -121.5 46.5t-46.5 121.5t46.5 121.5t121.5 46.5t121.5 -46.5t46.5 -121.5t-46.5 -121.5t-121.5 -46.5zM92 553v102h787v-102h-787zM485 139q-75 0 -121.5 46.5t-46.5 121.5t46.5 121.5t121.5 46.5t121.5 -46.5t46.5 -121.5t-46.5 -121.5t-121.5 -46.5z
" />
    <glyph glyph-name="oslash" unicode="&#xf8;" horiz-adv-x="1357" 
d="M1126 963q172 -155 172 -414q0 -257 -170 -413t-450 -156q-201 0 -354 86l-131 -156l-84 70l127 149q-86 76 -132.5 183.5t-46.5 236.5q0 256 170.5 412.5t450.5 156.5q205 0 360 -90l136 160l83 -70zM678 1036q-80 0 -129 -134t-49 -353q0 -47 4 -125l327 387
q-22 107 -61.5 166t-91.5 59zM678 61q80 0 129 134.5t49 353.5q0 41 -4 115l-328 -385q24 -103 63.5 -160.5t90.5 -57.5z" />
    <glyph glyph-name="ugrave" unicode="&#xf9;" horiz-adv-x="1351" 
d="M449 1421q-50 44 -50 107q0 53 40 92t93 39q58 0 103 -45q38 -38 111.5 -151t150.5 -255l-33 -34q-144 71 -259 140t-156 107zM1206 256q0 -63 27 -87.5t108 -31.5v-61q-294 -47 -540 -96h-4v149q-54 -67 -156.5 -108t-218.5 -41q-126 0 -202.5 81t-76.5 215v474
q0 75 -27 105.5t-108 45.5v62q359 98 541 155h4v-760q0 -163 145 -163q63 0 99 36v519q0 75 -27 105.5t-108 45.5v62q352 96 540 155h4v-862z" />
    <glyph glyph-name="uacute" unicode="&#xfa;" horiz-adv-x="1351" 
d="M899 1421q-41 -38 -156 -107t-260 -140l-32 34q77 142 150.5 255t111.5 151q45 45 102 45q53 0 93 -39t40 -92q0 -64 -49 -107zM1206 256q0 -63 27 -87.5t108 -31.5v-61q-294 -47 -540 -96h-4v149q-54 -67 -156.5 -108t-218.5 -41q-126 0 -202.5 81t-76.5 215v474
q0 75 -27 105.5t-108 45.5v62q359 98 541 155h4v-760q0 -163 145 -163q63 0 99 36v519q0 75 -27 105.5t-108 45.5v62q352 96 540 155h4v-862z" />
    <glyph glyph-name="ucircumflex" unicode="&#xfb;" horiz-adv-x="1351" 
d="M678 1384l-330 -210l-35 32l340 453h49l340 -453l-34 -32zM1206 256q0 -63 27 -87.5t108 -31.5v-61q-294 -47 -540 -96h-4v149q-54 -67 -156.5 -108t-218.5 -41q-126 0 -202.5 81t-76.5 215v474q0 75 -27 105.5t-108 45.5v62q359 98 541 155h4v-760q0 -163 145 -163
q63 0 99 36v519q0 75 -27 105.5t-108 45.5v62q352 96 540 155h4v-862z" />
    <glyph glyph-name="udieresis" unicode="&#xfc;" horiz-adv-x="1351" 
d="M473 1260q-77 0 -127.5 49.5t-50.5 124.5t50.5 124.5t127.5 49.5t127.5 -49.5t50.5 -124.5t-50.5 -124.5t-127.5 -49.5zM883 1260q-77 0 -127.5 49.5t-50.5 124.5t50.5 124.5t127.5 49.5t127.5 -49.5t50.5 -124.5t-50.5 -124.5t-127.5 -49.5zM1206 256q0 -63 27 -87.5
t108 -31.5v-61q-294 -47 -540 -96h-4v149q-54 -67 -156.5 -108t-218.5 -41q-126 0 -202.5 81t-76.5 215v474q0 75 -27 105.5t-108 45.5v62q359 98 541 155h4v-760q0 -163 145 -163q63 0 99 36v519q0 75 -27 105.5t-108 45.5v62q352 96 540 155h4v-862z" />
    <glyph glyph-name="yacute" unicode="&#xfd;" horiz-adv-x="1316" 
d="M1010 1421q-41 -38 -156 -107t-260 -140l-33 34q77 142 150.5 255t111.5 151q45 45 103 45q53 0 93 -39t40 -92q0 -64 -49 -107zM842 1098h508v-66q-94 -12 -145.5 -57.5t-114.5 -171.5l-508 -1022q-50 -101 -139.5 -156t-196.5 -55q-89 0 -144 48t-55 126q0 60 27 106
l446 5l86 176l-420 852q-43 88 -83.5 117.5t-118.5 31.5v66h759v-66q-68 0 -98.5 -15t-30.5 -54q0 -53 66 -185l147 -299l78 160q101 204 101 283q0 54 -39 79t-125 31v66z" />
    <glyph glyph-name="thorn" unicode="&#xfe;" horiz-adv-x="1341" 
d="M838 1118q201 0 324.5 -146t123.5 -384q0 -274 -142.5 -441t-377.5 -167q-137 0 -240 67v-231q0 -83 35.5 -115.5t140.5 -44.5v-66h-720v66q81 7 108 31.5t27 87.5v1515q0 76 -27 106.5t-108 45.5v61q328 89 540 156h4v-690q49 68 134.5 108.5t177.5 40.5zM659 82
q83 0 134 117.5t51 308.5q0 178 -54.5 287.5t-142.5 109.5q-72 0 -121 -39v-635q37 -149 133 -149z" />
    <glyph glyph-name="ydieresis" unicode="&#xff;" horiz-adv-x="1316" 
d="M584 1260q-77 0 -127.5 49.5t-50.5 124.5t50.5 124.5t127.5 49.5t127.5 -49.5t50.5 -124.5t-50.5 -124.5t-127.5 -49.5zM993 1260q-77 0 -127.5 49.5t-50.5 124.5t50.5 124.5t127.5 49.5t127.5 -49.5t50.5 -124.5t-50.5 -124.5t-127.5 -49.5zM842 1098h508v-66
q-94 -12 -145.5 -57.5t-114.5 -171.5l-508 -1022q-50 -101 -139.5 -156t-196.5 -55q-89 0 -144 48t-55 126q0 60 27 106l446 5l86 176l-420 852q-43 88 -83.5 117.5t-118.5 31.5v66h759v-66q-68 0 -98.5 -15t-30.5 -54q0 -53 66 -185l147 -299l78 160q101 204 101 283
q0 54 -39 79t-125 31v66z" />
    <glyph glyph-name="Amacron" unicode="&#x100;" horiz-adv-x="1716" 
d="M1241 1812l-20 -102h-760l20 102h760zM1511 215q39 -90 83.5 -118.5t140.5 -30.5v-66h-924v66q130 9 179.5 30.5t49.5 71.5q0 46 -43 151l-47 119h-501q-76 -199 -76 -262q0 -57 46.5 -80.5t162.5 -29.5v-66h-582v66q51 6 85 17.5t66 37t57.5 67t51.5 107.5l365 909
l-54 129q148 62 334 195h49zM487 541h424l-217 546z" />
    <glyph glyph-name="amacron" unicode="&#x101;" horiz-adv-x="1234" 
d="M1051 1464l-21 -102h-760l21 102h760zM1200 264l47 -31q-40 -114 -129 -183.5t-196 -69.5q-99 0 -166.5 41t-79.5 108q-51 -67 -148 -108t-206 -41q-126 0 -202.5 59t-76.5 156q0 170 246 262l387 145v240q0 78 -43 126t-113 48q-18 0 -28 -2v-404q-44 -29 -102 -47
t-109 -18q-82 0 -129.5 37.5t-47.5 107.5q0 120 92 219.5t236 154t303 54.5q158 0 254 -87t96 -230v-559q0 -26 7 -36.5t26 -10.5q22 0 44.5 19t37.5 50zM676 231v273q-91 -38 -147 -96.5t-56 -114.5q0 -44 27 -71t71 -27q66 0 105 36z" />
    <glyph glyph-name="Abreve" unicode="&#x102;" horiz-adv-x="1716" 
d="M852 1583q-109 0 -207.5 89.5t-177.5 254.5l41 35q146 -156 344 -156t344 156l41 -35q-79 -165 -177.5 -254.5t-207.5 -89.5zM1511 215q39 -90 83.5 -118.5t140.5 -30.5v-66h-924v66q130 9 179.5 30.5t49.5 71.5q0 46 -43 151l-47 119h-501q-76 -199 -76 -262
q0 -57 46.5 -80.5t162.5 -29.5v-66h-582v66q51 6 85 17.5t66 37t57.5 67t51.5 107.5l365 909l-54 129q148 62 334 195h49zM487 541h424l-217 546z" />
    <glyph glyph-name="abreve" unicode="&#x103;" horiz-adv-x="1234" 
d="M662 1180q-120 0 -211.5 117t-145.5 337l49 21q53 -118 132 -185t176 -67t175.5 67t131.5 185l49 -21q-54 -221 -145 -337.5t-211 -116.5zM1200 264l47 -31q-40 -114 -129 -183.5t-196 -69.5q-99 0 -166.5 41t-79.5 108q-51 -67 -148 -108t-206 -41q-126 0 -202.5 59
t-76.5 156q0 170 246 262l387 145v240q0 78 -43 126t-113 48q-18 0 -28 -2v-404q-44 -29 -102 -47t-109 -18q-82 0 -129.5 37.5t-47.5 107.5q0 120 92 219.5t236 154t303 54.5q158 0 254 -87t96 -230v-559q0 -26 7 -36.5t26 -10.5q22 0 44.5 19t37.5 50zM676 231v273
q-91 -38 -147 -96.5t-56 -114.5q0 -44 27 -71t71 -27q66 0 105 36z" />
    <glyph glyph-name="Aogonek" unicode="&#x104;" horiz-adv-x="1716" 
d="M1677 0q-85 -44 -137.5 -107.5t-52.5 -121.5q0 -31 21 -50.5t55 -19.5q56 0 114 45l21 -57q-45 -39 -132 -74t-184 -35q-91 0 -146.5 41t-55.5 107q0 158 344 272h-713v66q130 9 179.5 30.5t49.5 71.5q0 46 -43 151l-47 119h-501q-76 -199 -76 -262q0 -57 46.5 -80.5
t162.5 -29.5v-66h-582v66q51 6 85 17.5t66 37t57.5 67t51.5 107.5l365 909l-54 129q148 62 334 195h49l557 -1313q39 -90 83.5 -118.5t140.5 -30.5v-66h-58zM487 541h424l-217 546z" />
    <glyph glyph-name="aogonek" unicode="&#x105;" horiz-adv-x="1234" 
d="M1071 -299q57 0 115 45l20 -57q-45 -39 -131.5 -74t-183.5 -35q-91 0 -147 41t-56 107q0 129 180 256q-79 11 -130.5 49t-61.5 96q-51 -67 -148 -108t-206 -41q-126 0 -202.5 59t-76.5 156q0 170 246 262l387 145v240q0 78 -43 126t-113 48q-18 0 -28 -2v-404
q-44 -29 -102 -47t-109 -18q-82 0 -129.5 37.5t-47.5 107.5q0 120 92 219.5t236 154t303 54.5q158 0 254 -87t96 -230v-559q0 -26 7 -36.5t26 -10.5q22 0 44.5 19t37.5 50l47 -31q-34 -97 -108 -165q-144 -178 -144 -297q0 -31 21 -50.5t55 -19.5zM676 231v273
q-91 -38 -147 -96.5t-56 -114.5q0 -44 27 -71t71 -27q66 0 105 36z" />
    <glyph glyph-name="Cacute" unicode="&#x106;" horiz-adv-x="1550" 
d="M657 1610l-20 43q279 252 381 299q32 14 65 14q58 0 96 -39t38 -92q0 -38 -23 -71.5t-64 -53.5q-111 -52 -473 -100zM831 -20q-341 0 -549 212.5t-208 561.5q0 229 103 405t292 272.5t436 96.5q72 0 142 -19t122.5 -38t83.5 -19q30 0 44 13.5t24 52.5h35l119 -551
l-66 -19q-188 477 -510 477q-178 0 -286.5 -144.5t-108.5 -381.5q0 -295 147.5 -475t388.5 -180q119 0 234.5 55.5t179.5 149.5l55 -33q-84 -198 -271 -317t-407 -119z" />
    <glyph glyph-name="cacute" unicode="&#x107;" horiz-adv-x="1185" 
d="M893 1421q-41 -38 -156 -107t-260 -140l-33 34q77 141 151 254.5t112 151.5q45 45 102 45q53 0 93 -39t40 -92q0 -64 -49 -107zM1104 340l43 -27q-60 -150 -201.5 -241.5t-312.5 -91.5q-261 0 -420.5 156.5t-159.5 412.5q0 257 169.5 413t449.5 156q207 0 334 -99.5
t127 -262.5q0 -85 -59 -137t-154 -52q-57 0 -105 15.5t-70 40.5v411q-8 2 -26 2q-116 0 -186 -108.5t-70 -286.5q0 -188 102 -302t269 -114q78 0 153.5 30.5t116.5 84.5z" />
    <glyph glyph-name="Cdotaccent" unicode="&#x10a;" horiz-adv-x="1550" 
d="M905 1577q-101 0 -168 64t-67 161t67 161.5t168 64.5t168.5 -64.5t67.5 -161.5t-67.5 -161t-168.5 -64zM831 -20q-341 0 -549 212.5t-208 561.5q0 229 103 405t292 272.5t436 96.5q72 0 142 -19t122.5 -38t83.5 -19q30 0 44 13.5t24 52.5h35l119 -551l-66 -19
q-188 477 -510 477q-178 0 -286.5 -144.5t-108.5 -381.5q0 -295 147.5 -475t388.5 -180q119 0 234.5 55.5t179.5 149.5l55 -33q-84 -198 -271 -317t-407 -119z" />
    <glyph glyph-name="cdotaccent" unicode="&#x10b;" horiz-adv-x="1185" 
d="M672 1208q-101 0 -168.5 64.5t-67.5 161.5t67.5 161t168.5 64t168 -64t67 -161t-67 -161.5t-168 -64.5zM1104 340l43 -27q-60 -150 -201.5 -241.5t-312.5 -91.5q-261 0 -420.5 156.5t-159.5 412.5q0 257 169.5 413t449.5 156q207 0 334 -99.5t127 -262.5q0 -85 -59 -137
t-154 -52q-57 0 -105 15.5t-70 40.5v411q-8 2 -26 2q-116 0 -186 -108.5t-70 -286.5q0 -188 102 -302t269 -114q78 0 153.5 30.5t116.5 84.5z" />
    <glyph glyph-name="Ccaron" unicode="&#x10c;" horiz-adv-x="1550" 
d="M930 1610h-49l-344 311l26 45l342 -123l342 123l27 -45zM1454 449l55 -33q-84 -198 -271 -317t-407 -119q-341 0 -549 212.5t-208 561.5q0 229 103 405t292 272.5t436 96.5q72 0 142 -19t122.5 -38t83.5 -19q30 0 44 13.5t24 52.5h35l119 -551l-66 -19q-188 477 -510 477
q-178 0 -286.5 -144.5t-108.5 -381.5q0 -295 147.5 -475t388.5 -180q119 0 234.5 55.5t179.5 149.5z" />
    <glyph glyph-name="ccaron" unicode="&#x10d;" horiz-adv-x="1185" 
d="M696 1174h-49l-340 452l35 33l330 -211l329 211l35 -33zM1104 340l43 -27q-60 -150 -201.5 -241.5t-312.5 -91.5q-261 0 -420.5 156.5t-159.5 412.5q0 257 169.5 413t449.5 156q207 0 334 -99.5t127 -262.5q0 -85 -59 -137t-154 -52q-57 0 -105 15.5t-70 40.5v411
q-8 2 -26 2q-116 0 -186 -108.5t-70 -286.5q0 -188 102 -302t269 -114q78 0 153.5 30.5t116.5 84.5z" />
    <glyph glyph-name="Dcaron" unicode="&#x10e;" horiz-adv-x="1806" 
d="M797 1610h-49l-345 311l27 45l342 -123l342 123l27 -45zM883 1507q253 0 447 -93.5t299.5 -264.5t105.5 -395t-105.5 -395.5t-299.5 -265t-447 -93.5h-832v66q118 12 157.5 48t39.5 132v1016q0 96 -39.5 132t-157.5 48v65h832zM801 102q209 0 336 179t127 473
q0 298 -117 474.5t-326 176.5h-143v-1200q0 -61 24 -82t95 -21h4z" />
    <glyph glyph-name="dcaron" unicode="&#x10f;" horiz-adv-x="1404" 
d="M1225 256q0 -63 27 -87.5t108 -31.5v-61q-300 -48 -541 -96h-4v149q-49 -68 -134 -108.5t-177 -40.5q-201 0 -325 146t-124 384q0 274 142.5 441t377.5 167q137 0 240 -67v239q0 76 -27 106.5t-108 45.5v61q335 91 541 156h4v-1403zM1436 1659q76 0 123 -51.5t47 -134.5
q0 -92 -70.5 -176t-185.5 -130l-27 66q51 22 82 53.5t31 63.5q0 34 -33.5 56.5t-87.5 25.5q-37 37 -37 94t45 95t113 38zM694 193q73 0 121 38v635q-37 150 -133 150q-83 0 -133.5 -117.5t-50.5 -308.5q0 -178 54 -287.5t142 -109.5z" />
    <glyph glyph-name="Dcroat" unicode="&#x110;" horiz-adv-x="1808" 
d="M885 1507q253 0 447 -93.5t299.5 -264.5t105.5 -395t-105.5 -395.5t-299.5 -265t-447 -93.5h-832v66q118 12 157.5 48t39.5 132v479h-197l19 86h178v451q0 96 -39.5 132t-157.5 48v65h832zM803 102q209 0 336 179t127 473q0 298 -117 474.5t-326 176.5h-143v-594h295
l-19 -86h-276v-520q0 -61 24 -82t95 -21h4z" />
    <glyph glyph-name="dcroat" unicode="&#x111;" horiz-adv-x="1368" 
d="M1225 256q0 -63 27 -87.5t108 -31.5v-61q-300 -48 -541 -96h-4v149q-49 -68 -134 -108.5t-177 -40.5q-201 0 -325 146t-124 384q0 274 142.5 441t377.5 167q137 0 240 -67v180h-272l16 78h256q-3 65 -31 92.5t-104 40.5v61q335 91 541 156h4v-350h135l-17 -78h-118v-975z
M694 193q73 0 121 38v635q-37 150 -133 150q-83 0 -133.5 -117.5t-50.5 -308.5q0 -178 54 -287.5t142 -109.5z" />
    <glyph glyph-name="Emacron" unicode="&#x112;" horiz-adv-x="1640" 
d="M1180 1812l-21 -102h-760l21 102h760zM1544 598l72 -23l-195 -585q-198 10 -555 10h-815v66q118 12 157.5 48t39.5 132v1016q0 96 -39.5 132t-157.5 48v65h783q312 0 514 11l174 -566l-70 -24q-40 118 -83 196.5t-99 135.5t-135 87.5t-179 44t-243 13.5h-35v-586h63
q96 0 150.5 29.5t88.5 102.5t60 216h70q-6 -246 -6 -409q0 -164 6 -410h-70q-26 151 -60 228.5t-88.5 109t-150.5 31.5h-63v-492q0 -74 27 -98.5t108 -24.5h14q109 0 190 9t151 32t120.5 58t97 92.5t83 130t75.5 174.5z" />
    <glyph glyph-name="emacron" unicode="&#x113;" horiz-adv-x="1204" 
d="M1051 1464l-21 -102h-760l21 102h760zM1122 342l45 -29q-63 -151 -209 -242t-325 -91q-261 0 -420.5 156.5t-159.5 412.5t168 412.5t443 156.5q218 0 351.5 -132t133.5 -349h-686q2 -186 105 -299t272 -113q75 0 152 32t130 85zM664 1034q-79 0 -132 -84t-65 -227h45
q114 0 183 53t69 139q0 53 -28 86t-72 33z" />
    <glyph glyph-name="Edotaccent" unicode="&#x116;" horiz-adv-x="1640" 
d="M791 1577q-101 0 -168.5 64t-67.5 161t67.5 161.5t168.5 64.5t168 -64.5t67 -161.5t-67 -161t-168 -64zM1544 598l72 -23l-195 -585q-198 10 -555 10h-815v66q118 12 157.5 48t39.5 132v1016q0 96 -39.5 132t-157.5 48v65h783q312 0 514 11l174 -566l-70 -24
q-40 118 -83 196.5t-99 135.5t-135 87.5t-179 44t-243 13.5h-35v-586h63q96 0 150.5 29.5t88.5 102.5t60 216h70q-6 -246 -6 -409q0 -164 6 -410h-70q-26 151 -60 228.5t-88.5 109t-150.5 31.5h-63v-492q0 -74 27 -98.5t108 -24.5h14q109 0 190 9t151 32t120.5 58t97 92.5
t83 130t75.5 174.5z" />
    <glyph glyph-name="edotaccent" unicode="&#x117;" horiz-adv-x="1204" 
d="M662 1208q-101 0 -168.5 64.5t-67.5 161.5t67.5 161t168.5 64t168 -64t67 -161t-67 -161.5t-168 -64.5zM1122 342l45 -29q-63 -151 -209 -242t-325 -91q-261 0 -420.5 156.5t-159.5 412.5t168 412.5t443 156.5q218 0 351.5 -132t133.5 -349h-686q2 -186 105 -299
t272 -113q75 0 152 32t130 85zM664 1034q-79 0 -132 -84t-65 -227h45q114 0 183 53t69 139q0 53 -28 86t-72 33z" />
    <glyph glyph-name="Eogonek" unicode="&#x118;" horiz-adv-x="1640" 
d="M1280 -4q-82 -44 -132 -106t-50 -119q0 -31 21 -50.5t55 -19.5q56 0 114 45l21 -57q-45 -39 -132 -74t-184 -35q-91 0 -146.5 41t-55.5 107q0 157 342 270q-72 2 -267 2h-815v66q118 12 157.5 48t39.5 132v1016q0 96 -39.5 132t-157.5 48v65h783q312 0 514 11l174 -566
l-70 -24q-40 118 -83 196.5t-99 135.5t-135 87.5t-179 44t-243 13.5h-35v-586h63q96 0 150.5 29.5t88.5 102.5t60 216h70q-6 -246 -6 -409q0 -164 6 -410h-70q-26 151 -60 228.5t-88.5 109t-150.5 31.5h-63v-492q0 -74 27 -98.5t108 -24.5h14q109 0 190 9t151 32t120.5 58
t97 92.5t83 130t75.5 174.5l72 -23l-195 -585z" />
    <glyph glyph-name="eogonek" unicode="&#x119;" horiz-adv-x="1204" 
d="M963 74q-87 -68 -142 -151.5t-55 -151.5q0 -31 21 -50.5t55 -19.5q56 0 114 45l21 -57q-45 -39 -131.5 -74t-183.5 -35q-91 0 -147 41t-56 107q0 134 190 252h-16q-261 0 -420.5 156.5t-159.5 412.5t168 412.5t443 156.5q218 0 351.5 -132t133.5 -349h-686
q2 -186 105 -299t272 -113q75 0 152 32t130 85l45 -29q-62 -148 -204 -239zM664 1034q-79 0 -132 -84t-65 -227h45q114 0 183 53t69 139q0 53 -28 86t-72 33z" />
    <glyph glyph-name="Ecaron" unicode="&#x11a;" horiz-adv-x="1640" 
d="M815 1610h-49l-344 311l27 45l342 -123l342 123l26 -45zM1544 598l72 -23l-195 -585q-198 10 -555 10h-815v66q118 12 157.5 48t39.5 132v1016q0 96 -39.5 132t-157.5 48v65h783q312 0 514 11l174 -566l-70 -24q-40 118 -83 196.5t-99 135.5t-135 87.5t-179 44t-243 13.5
h-35v-586h63q96 0 150.5 29.5t88.5 102.5t60 216h70q-6 -246 -6 -409q0 -164 6 -410h-70q-26 151 -60 228.5t-88.5 109t-150.5 31.5h-63v-492q0 -74 27 -98.5t108 -24.5h14q109 0 190 9t151 32t120.5 58t97 92.5t83 130t75.5 174.5z" />
    <glyph glyph-name="ecaron" unicode="&#x11b;" horiz-adv-x="1204" 
d="M686 1174h-49l-340 452l35 33l330 -211l329 211l35 -33zM1122 342l45 -29q-63 -151 -209 -242t-325 -91q-261 0 -420.5 156.5t-159.5 412.5t168 412.5t443 156.5q218 0 351.5 -132t133.5 -349h-686q2 -186 105 -299t272 -113q75 0 152 32t130 85zM664 1034
q-79 0 -132 -84t-65 -227h45q114 0 183 53t69 139q0 53 -28 86t-72 33z" />
    <glyph glyph-name="Gbreve" unicode="&#x11e;" horiz-adv-x="1728" 
d="M965 1583q-109 0 -207.5 89.5t-177.5 254.5l41 35q146 -156 344 -156t344 156l41 -35q-79 -165 -177.5 -254.5t-207.5 -89.5zM881 668h843v-66q-105 -10 -140.5 -42.5t-35.5 -117.5v-319q-68 -10 -182 -51q-80 -28 -134 -44.5t-141 -32t-167 -15.5q-253 0 -447 96
t-299.5 272t-105.5 406q0 229 110.5 405t313.5 272.5t469 96.5q84 0 158.5 -19t130.5 -38t94 -19q32 0 47.5 13.5t25.5 52.5h35l57 -551l-67 -11q-75 242 -186.5 355.5t-274.5 113.5q-199 0 -320.5 -184.5t-121.5 -486.5q0 -199 47.5 -352t134.5 -236.5t199 -83.5
q94 0 194 65v234q0 117 -47.5 161.5t-189.5 59.5v66z" />
    <glyph glyph-name="gbreve" unicode="&#x11f;" horiz-adv-x="1294" 
d="M612 1180q-120 0 -211 116.5t-145 337.5l49 21q53 -118 131.5 -185t175.5 -67t176 67t132 185l49 -21q-54 -220 -145.5 -337t-211.5 -117zM1001 252q127 -12 204 -90.5t77 -177.5q0 -200 -177 -307t-495 -107q-620 0 -620 215q0 54 51 103t152 104q-109 67 -109 190
q0 67 37 149.5t102 157.5q-149 98 -149 265q0 164 147.5 264t390.5 100q60 0 136 -8q132 -12 223 -12q177 0 299 20h4l-33 -151l-225 20q135 -94 135 -233q0 -164 -148 -264.5t-391 -100.5q-182 0 -319 62q-21 -38 -21 -70q0 -65 170 -80zM612 1036q-42 0 -69 -78t-27 -204
q0 -127 26.5 -205t69.5 -78q42 0 69.5 78.5t27.5 204.5q0 127 -27 204.5t-70 77.5zM672 -348q158 0 258 48.5t100 119.5q0 24 -18 39t-51 18l-519 45q-94 9 -155 29q-23 -47 -23 -98q0 -91 112.5 -146t295.5 -55z" />
    <glyph glyph-name="Gdotaccent" unicode="&#x120;" horiz-adv-x="1728" 
d="M965 1577q-101 0 -168.5 64t-67.5 161t67.5 161.5t168.5 64.5t168 -64.5t67 -161.5t-67 -161t-168 -64zM881 668h843v-66q-105 -10 -140.5 -42.5t-35.5 -117.5v-319q-68 -10 -182 -51q-80 -28 -134 -44.5t-141 -32t-167 -15.5q-253 0 -447 96t-299.5 272t-105.5 406
q0 229 110.5 405t313.5 272.5t469 96.5q84 0 158.5 -19t130.5 -38t94 -19q32 0 47.5 13.5t25.5 52.5h35l57 -551l-67 -11q-75 242 -186.5 355.5t-274.5 113.5q-199 0 -320.5 -184.5t-121.5 -486.5q0 -199 47.5 -352t134.5 -236.5t199 -83.5q94 0 194 65v234
q0 117 -47.5 161.5t-189.5 59.5v66z" />
    <glyph glyph-name="gdotaccent" unicode="&#x121;" horiz-adv-x="1294" 
d="M612 1208q-101 0 -168 64.5t-67 161.5t67 161t168 64t168.5 -64t67.5 -161t-67.5 -161.5t-168.5 -64.5zM1001 252q127 -12 204 -90.5t77 -177.5q0 -200 -177 -307t-495 -107q-620 0 -620 215q0 54 51 103t152 104q-109 67 -109 190q0 67 37 149.5t102 157.5
q-149 98 -149 265q0 164 147.5 264t390.5 100q60 0 136 -8q132 -12 223 -12q177 0 299 20h4l-33 -151l-225 20q135 -94 135 -233q0 -164 -148 -264.5t-391 -100.5q-182 0 -319 62q-21 -38 -21 -70q0 -65 170 -80zM612 1036q-42 0 -69 -78t-27 -204q0 -127 26.5 -205
t69.5 -78q42 0 69.5 78.5t27.5 204.5q0 127 -27 204.5t-70 77.5zM672 -348q158 0 258 48.5t100 119.5q0 24 -18 39t-51 18l-519 45q-94 9 -155 29q-23 -47 -23 -98q0 -91 112.5 -146t295.5 -55z" />
    <glyph glyph-name="uni0122" unicode="&#x122;" horiz-adv-x="1728" 
d="M881 668h843v-66q-105 -10 -140.5 -42.5t-35.5 -117.5v-319q-68 -10 -182 -51q-80 -28 -134 -44.5t-141 -32t-167 -15.5q-253 0 -447 96t-299.5 272t-105.5 406q0 229 110.5 405t313.5 272.5t469 96.5q84 0 158.5 -19t130.5 -38t94 -19q32 0 47.5 13.5t25.5 52.5h35
l57 -551l-67 -11q-75 242 -186.5 355.5t-274.5 113.5q-199 0 -320.5 -184.5t-121.5 -486.5q0 -199 47.5 -352t134.5 -236.5t199 -83.5q94 0 194 65v234q0 117 -47.5 161.5t-189.5 59.5v66zM936 -39q79 0 128.5 -46.5t49.5 -121.5q0 -83 -80.5 -144.5t-212.5 -78.5l-14 57
q113 22 113 76q0 59 -129 59q-17 34 -17 64q0 58 46.5 96.5t115.5 38.5z" />
    <glyph glyph-name="uni0123" unicode="&#x123;" horiz-adv-x="1294" 
d="M621 1206q-80 0 -129.5 46.5t-49.5 121.5q0 106 80.5 184.5t212.5 100.5l15 -57q-54 -15 -83.5 -42.5t-29.5 -64.5q0 -42 33.5 -66t95.5 -24q16 -32 16 -64q0 -58 -46 -96.5t-115 -38.5zM1001 252q127 -12 204 -90.5t77 -177.5q0 -200 -177 -307t-495 -107
q-620 0 -620 215q0 54 51 103t152 104q-109 67 -109 190q0 67 37 149.5t102 157.5q-149 98 -149 265q0 164 147.5 264t390.5 100q60 0 136 -8q132 -12 223 -12q177 0 299 20h4l-33 -151l-225 20q135 -94 135 -233q0 -164 -148 -264.5t-391 -100.5q-182 0 -319 62
q-21 -38 -21 -70q0 -65 170 -80zM612 1036q-42 0 -69 -78t-27 -204q0 -127 26.5 -205t69.5 -78q42 0 69.5 78.5t27.5 204.5q0 127 -27 204.5t-70 77.5zM672 -348q158 0 258 48.5t100 119.5q0 24 -18 39t-51 18l-519 45q-94 9 -155 29q-23 -47 -23 -98q0 -91 112.5 -146
t295.5 -55z" />
    <glyph glyph-name="Hbar" unicode="&#x126;" horiz-adv-x="1830" 
d="M1778 1442q-118 -12 -157.5 -48t-39.5 -132v-84h197l-19 -86h-178v-846q0 -96 39.5 -132t157.5 -48v-66h-824v66q118 12 157.5 48t39.5 132v471h-471v-471q0 -96 39.5 -132t157.5 -48v-66h-824v66q118 12 157.5 48t39.5 132v846h-197l19 86h178v84q0 96 -39.5 132
t-157.5 48v65h824v-65q-118 -12 -157.5 -48t-39.5 -132v-84h471v84q0 96 -39.5 132t-157.5 48v65h824v-65zM1151 819v273h-471v-273h471z" />
    <glyph glyph-name="hbar" unicode="&#x127;" horiz-adv-x="1372" 
d="M1231 184q0 -63 27 -87t108 -31v-66h-659v66q69 7 91.5 31t22.5 87v535q0 184 -155 184q-69 0 -109 -37v-682q0 -63 23 -87t92 -31v-66h-660v66q81 7 108 31t27 87v1047h-133l17 78h116q-3 65 -31 92.5t-104 40.5v61q335 91 541 156h4v-350h274l-16 -78h-258v-262
q70 67 176 108t209 41q130 0 209.5 -87t79.5 -230v-617z" />
    <glyph glyph-name="Imacron" unicode="&#x12a;" horiz-adv-x="925" 
d="M791 1812l-21 -102h-637l21 102h637zM874 1442q-118 -12 -157 -48t-39 -132v-1016q0 -96 39 -132t157 -48v-66h-823v66q118 12 157.5 48t39.5 132v1016q0 96 -39.5 132t-157.5 48v65h823v-65z" />
    <glyph glyph-name="imacron" unicode="&#x12b;" horiz-adv-x="720" 
d="M696 1464l-20 -102h-637l20 102h637zM573 184q0 -63 27 -87t109 -31v-66h-680v66q81 7 108 31t27 87v566q0 75 -27 105.5t-108 45.5v62q279 73 540 155h4v-934z" />
    <glyph glyph-name="Iogonek" unicode="&#x12e;" horiz-adv-x="925" 
d="M874 1442q-118 -12 -157 -48t-39 -132v-1016q0 -96 39 -132t157 -48v-66h-108q-85 -44 -138 -107.5t-53 -121.5q0 -31 21 -50.5t55 -19.5q57 0 115 45l20 -57q-45 -39 -131.5 -74t-183.5 -35q-91 0 -147 41t-56 107q0 158 344 272h-561v66q118 12 157.5 48t39.5 132v1016
q0 96 -39.5 132t-157.5 48v65h823v-65z" />
    <glyph glyph-name="iogonek" unicode="&#x12f;" horiz-adv-x="720" 
d="M369 1208q-101 0 -168.5 64.5t-67.5 161.5t67.5 161t168.5 64t168 -64t67 -161t-67 -161.5t-168 -64.5zM631 0q-85 -44 -138 -107.5t-53 -121.5q0 -31 21 -50.5t55 -19.5q57 0 115 45l20 -57q-45 -39 -131.5 -74t-183.5 -35q-91 0 -147 41t-56 107q0 158 344 272h-448v66
q81 7 108 31t27 87v566q0 75 -27 105.5t-108 45.5v62q279 73 540 155h4v-934q0 -63 27 -87t109 -31v-66h-78z" />
    <glyph glyph-name="Idotaccent" unicode="&#x130;" horiz-adv-x="925" 
d="M463 1577q-101 0 -168.5 64t-67.5 161t67.5 161.5t168.5 64.5t168 -64.5t67 -161.5t-67 -161t-168 -64zM874 1442q-118 -12 -157 -48t-39 -132v-1016q0 -96 39 -132t157 -48v-66h-823v66q118 12 157.5 48t39.5 132v1016q0 96 -39.5 132t-157.5 48v65h823v-65z" />
    <glyph glyph-name="dotlessi" unicode="&#x131;" horiz-adv-x="720" 
d="M573 184q0 -63 27 -87t109 -31v-66h-680v66q81 7 108 31t27 87v566q0 75 -27 105.5t-108 45.5v62q279 73 540 155h4v-934z" />
    <glyph glyph-name="IJ" unicode="&#x132;" horiz-adv-x="1828" 
d="M51 1442v65h823v-65q-118 -12 -157 -48t-39 -132v-1016q0 -96 39 -132t157 -48v-66h-823v66q118 12 157.5 48t39.5 132v1016q0 96 -39.5 132t-157.5 48zM973 1507h823v-65q-118 -12 -157.5 -48t-39.5 -132v-773q0 -265 -166 -461.5t-438 -252.5l-22 65q118 79 157 176.5
t39 311.5v934q0 96 -39 132t-157 48v65z" />
    <glyph glyph-name="ij" unicode="&#x133;" horiz-adv-x="1404" 
d="M369 1208q-101 0 -168.5 64.5t-67.5 161.5t67.5 161t168.5 64t168 -64t67 -161t-67 -161.5t-168 -64.5zM1085 1208q-101 0 -168 64.5t-67 161.5t67 161t168 64t168.5 -64t67.5 -161t-67.5 -161.5t-168.5 -64.5zM573 184q0 -63 27 -87t109 -31v-66h-680v66q81 7 108 31
t27 87v566q0 75 -27 105.5t-108 45.5v62q279 73 540 155h4v-934zM745 963q359 98 541 155h4v-942q0 -243 -143.5 -410t-378.5 -196l-23 65q82 67 109 143t27 236v736q0 75 -27 105.5t-109 45.5v62z" />
    <glyph glyph-name="uni0136" unicode="&#x136;" horiz-adv-x="1800" 
d="M874 66v-66h-823v66q118 12 157.5 48t39.5 132v1016q0 96 -39.5 132t-157.5 48v65h823v-65q-118 -12 -157 -48t-39 -132v-1016q0 -96 39 -132t157 -48zM1083 1014q137 -216 228.5 -357.5t168.5 -250t124 -167t92.5 -97.5t76.5 -53t74 -23v-66h-301q-82 0 -137.5 8.5
t-118.5 41.5t-113.5 81.5t-124 145t-149.5 214.5t-190 306l417 428q80 80 80 127q0 77 -202 90v65h659v-65q-94 -2 -162 -30t-151 -116zM1036 -39q79 0 128.5 -46.5t49.5 -121.5q0 -83 -80 -144.5t-212 -78.5l-15 57q113 22 113 76q0 59 -129 59q-17 34 -17 64
q0 58 46.5 96.5t115.5 38.5z" />
    <glyph glyph-name="uni0137" unicode="&#x137;" horiz-adv-x="1402" 
d="M672 66v-66h-660v66q81 7 108 31t27 87v1106q0 76 -27 106.5t-108 45.5v61q335 91 541 156h4v-1475q0 -63 23 -87t92 -31zM922 772l493 -706v-66h-448l-385 571l249 244q31 29 48 47t33 43.5t16 44.5q0 71 -199 82v66h619v-66q-92 -2 -157.5 -30t-152.5 -115zM778 -39
q79 0 128.5 -46.5t49.5 -121.5q0 -83 -80 -144.5t-212 -78.5l-15 57q113 22 113 76q0 59 -129 59q-17 34 -17 64q0 58 46.5 96.5t115.5 38.5z" />
    <glyph glyph-name="Lacute" unicode="&#x139;" horiz-adv-x="1536" 
d="M678 1710q-111 -52 -473 -100l-21 43q279 252 381 299q32 14 66 14q58 0 95.5 -39t37.5 -92q0 -39 -22.5 -72t-63.5 -53zM1462 598l72 -23l-195 -585q-197 10 -514 10h-774v66q118 12 157.5 48t39.5 132v1016q0 96 -39.5 132t-157.5 48v65h864v-65q-142 -15 -189.5 -59.5
t-47.5 -161.5v-1016q0 -62 20.5 -82.5t83.5 -20.5h4q123 0 210 14t157.5 45.5t123.5 91t97 141t88 204.5z" />
    <glyph glyph-name="lacute" unicode="&#x13a;" horiz-adv-x="704" 
d="M578 1780q-50 -23 -180.5 -51t-293.5 -50l-20 43q279 252 381 299q35 15 65 15q58 0 96 -39t38 -92q0 -39 -22.5 -72t-63.5 -53zM557 184q0 -63 27 -87t108 -31v-66h-680v66q81 7 108 31t27 87v1106q0 76 -27 106.5t-108 45.5v61q335 91 541 156h4v-1475z" />
    <glyph glyph-name="uni013B" unicode="&#x13b;" horiz-adv-x="1536" 
d="M1462 598l72 -23l-195 -585q-197 10 -514 10h-774v66q118 12 157.5 48t39.5 132v1016q0 96 -39.5 132t-157.5 48v65h864v-65q-142 -15 -189.5 -59.5t-47.5 -161.5v-1016q0 -62 20.5 -82.5t83.5 -20.5h4q123 0 210 14t157.5 45.5t123.5 91t97 141t88 204.5zM719 -39
q79 0 128.5 -46.5t49.5 -121.5q0 -83 -80.5 -144.5t-212.5 -78.5l-14 57q112 22 112 76q0 59 -129 59q-16 32 -16 64q0 58 46.5 96.5t115.5 38.5z" />
    <glyph glyph-name="uni013C" unicode="&#x13c;" horiz-adv-x="704" 
d="M557 184q0 -63 27 -87t108 -31v-66h-680v66q81 7 108 31t27 87v1106q0 76 -27 106.5t-108 45.5v61q335 91 541 156h4v-1475zM344 -39q79 0 128.5 -46.5t49.5 -121.5q0 -83 -80.5 -144.5t-212.5 -78.5l-14 57q113 22 113 76q0 59 -129 59q-17 34 -17 64q0 58 46.5 96.5
t115.5 38.5z" />
    <glyph glyph-name="Lcaron" unicode="&#x13d;" horiz-adv-x="1544" 
d="M1270 1350q0 34 -33.5 56.5t-87.5 25.5q-37 37 -37 94t45 95t113 38q76 0 123 -51.5t47 -134.5q0 -92 -70.5 -176t-185.5 -130l-27 66q51 22 82 53.5t31 63.5zM1462 598l72 -23l-195 -585q-197 10 -514 10h-774v66q118 12 157.5 48t39.5 132v1016q0 96 -39.5 132
t-157.5 48v65h864v-65q-142 -15 -189.5 -59.5t-47.5 -161.5v-1016q0 -62 20.5 -82.5t83.5 -20.5h4q123 0 210 14t157.5 45.5t123.5 91t97 141t88 204.5z" />
    <glyph glyph-name="lcaron" unicode="&#x13e;" horiz-adv-x="737" 
d="M557 184q0 -63 27 -87t108 -31v-66h-680v66q81 7 108 31t27 87v1106q0 76 -27 106.5t-108 45.5v61q335 91 541 156h4v-1475zM768 1659q76 0 123 -51.5t47 -134.5q0 -92 -70.5 -176t-185.5 -130l-27 66q51 22 82 53.5t31 63.5q0 34 -33.5 56.5t-87.5 25.5q-37 37 -37 94
t45 95t113 38z" />
    <glyph glyph-name="Lslash" unicode="&#x141;" horiz-adv-x="1558" 
d="M1485 598l71 -23l-194 -585q-198 10 -514 10h-774v66q118 12 157 48t39 132v346l-147 -72l-49 98l196 95v549q0 96 -39 132t-157 48v65h864v-65q-142 -15 -190 -59.5t-48 -161.5v-320l285 137l49 -98l-334 -160v-575q0 -62 21 -82.5t84 -20.5h4q123 0 210 14t157.5 45.5
t123.5 91t97 141t88 204.5z" />
    <glyph glyph-name="lslash" unicode="&#x142;" horiz-adv-x="751" 
d="M584 184q0 -63 27 -87t108 -31v-66h-680v66q81 7 108 31t27 87v492l-94 -51l-55 96l149 82v487q0 76 -27 106.5t-108 45.5v61q335 91 541 156h4v-670l94 51l55 -96l-149 -82v-678z" />
    <glyph glyph-name="Nacute" unicode="&#x143;" horiz-adv-x="1716" 
d="M1092 1710q-50 -23 -180 -50.5t-294 -49.5l-20 43q279 252 381 299q32 14 65 14q58 0 96 -39t38 -92q0 -39 -22.5 -72t-63.5 -53zM1130 1507h549v-65q-118 -12 -157 -48t-39 -132v-1282h-70l-1051 1116v-809q0 -120 48 -164.5t190 -56.5v-66h-549v66q118 12 157.5 48
t39.5 132v1016q0 96 -39.5 132t-157.5 48v65h500l817 -876v590q0 120 -48 164.5t-190 56.5v65z" />
    <glyph glyph-name="nacute" unicode="&#x144;" horiz-adv-x="1388" 
d="M924 1421q-41 -38 -156 -107t-260 -140l-33 34q77 142 150.5 255t111.5 151q45 45 103 45q53 0 93 -39t40 -92q0 -64 -49 -107zM1247 184q0 -63 27 -87t108 -31v-66h-659v66q69 7 92 31t23 87v535q0 91 -39.5 137.5t-116.5 46.5q-69 0 -109 -37v-682q0 -63 23 -87t92 -31
v-66h-659v66q81 7 108 31t27 87v566q0 75 -27 105.5t-108 45.5v62q279 73 540 155h4v-149q70 67 176 108t209 41q130 0 209.5 -87t79.5 -230v-617z" />
    <glyph glyph-name="uni0145" unicode="&#x145;" horiz-adv-x="1716" 
d="M1130 1507h549v-65q-118 -12 -157 -48t-39 -132v-1282h-70l-1051 1116v-809q0 -120 48 -164.5t190 -56.5v-66h-549v66q118 12 157.5 48t39.5 132v1016q0 96 -39.5 132t-157.5 48v65h500l817 -876v590q0 120 -48 164.5t-190 56.5v65zM858 -39q79 0 128.5 -46.5
t49.5 -121.5q0 -83 -80.5 -144.5t-212.5 -78.5l-14 57q113 22 113 76q0 59 -129 59q-17 34 -17 64q0 58 46.5 96.5t115.5 38.5z" />
    <glyph glyph-name="uni0146" unicode="&#x146;" horiz-adv-x="1388" 
d="M1247 184q0 -63 27 -87t108 -31v-66h-659v66q69 7 92 31t23 87v535q0 91 -39.5 137.5t-116.5 46.5q-69 0 -109 -37v-682q0 -63 23 -87t92 -31v-66h-659v66q81 7 108 31t27 87v566q0 75 -27 105.5t-108 45.5v62q279 73 540 155h4v-149q70 67 176 108t209 41
q130 0 209.5 -87t79.5 -230v-617zM696 -39q79 0 128.5 -46.5t49.5 -121.5q0 -83 -80 -144.5t-212 -78.5l-15 57q113 22 113 76q0 59 -129 59q-16 32 -16 64q0 58 46 96.5t115 38.5z" />
    <glyph glyph-name="Ncaron" unicode="&#x147;" horiz-adv-x="1716" 
d="M891 1610h-49l-344 311l26 45l342 -123l342 123l27 -45zM1130 1507h549v-65q-118 -12 -157 -48t-39 -132v-1282h-70l-1051 1116v-809q0 -120 48 -164.5t190 -56.5v-66h-549v66q118 12 157.5 48t39.5 132v1016q0 96 -39.5 132t-157.5 48v65h500l817 -876v590
q0 120 -48 164.5t-190 56.5v65z" />
    <glyph glyph-name="ncaron" unicode="&#x148;" horiz-adv-x="1388" 
d="M727 1174h-49l-340 452l35 33l329 -211l330 211l35 -33zM1247 184q0 -63 27 -87t108 -31v-66h-659v66q69 7 92 31t23 87v535q0 91 -39.5 137.5t-116.5 46.5q-69 0 -109 -37v-682q0 -63 23 -87t92 -31v-66h-659v66q81 7 108 31t27 87v566q0 75 -27 105.5t-108 45.5v62
q279 73 540 155h4v-149q70 67 176 108t209 41q130 0 209.5 -87t79.5 -230v-617z" />
    <glyph glyph-name="Eng" unicode="&#x14a;" horiz-adv-x="1712" 
d="M1130 1507h549v-65q-118 -12 -157 -48t-39 -132v-916q0 -206 -119 -355.5t-322 -215.5l-22 65q118 58 187 114t106 132l-951 1010v-809q0 -120 48 -164.5t190 -56.5v-66h-549v66q118 12 157.5 48t39.5 132v1016q0 96 -39.5 132t-157.5 48v65h500l817 -876v590
q0 120 -48 164.5t-190 56.5v65z" />
    <glyph glyph-name="eng" unicode="&#x14b;" horiz-adv-x="1347" 
d="M958 1118q130 0 209.5 -87t79.5 -230v-625q0 -243 -143.5 -410t-378.5 -196l-23 65q82 67 109 143t27 236v705q0 91 -39.5 137.5t-116.5 46.5q-69 0 -109 -37v-682q0 -63 23 -87t92 -31v-66h-659v66q81 7 108 31t27 87v566q0 75 -27 105.5t-108 45.5v62q279 73 540 155h4
v-149q55 67 160.5 108t224.5 41z" />
    <glyph glyph-name="Omacron" unicode="&#x14c;" horiz-adv-x="1798" 
d="M508 1710l20 102h760l-20 -102h-760zM899 -20q-246 0 -433 96t-289.5 272t-102.5 406t102.5 406t289.5 272t433 96t433 -96t289.5 -272t102.5 -406t-102.5 -406t-289.5 -272t-433 -96zM899 82q160 0 257 185t97 487t-97 486.5t-257 184.5t-257 -184.5t-97 -486.5t97 -487
t257 -185z" />
    <glyph glyph-name="omacron" unicode="&#x14d;" horiz-adv-x="1347" 
d="M283 1362l20 102h760l-21 -102h-759zM674 -20q-280 0 -450.5 156.5t-170.5 412.5t170.5 412.5t450.5 156.5t450 -156t170 -413t-170 -413t-450 -156zM674 61q80 0 129 134.5t49 353.5t-49 353t-129 134t-129 -134t-49 -353t49 -353.5t129 -134.5z" />
    <glyph glyph-name="Ohungarumlaut" unicode="&#x150;" horiz-adv-x="1798" 
d="M500 1577l-27 41q240 297 328 354q43 27 84 27q57 0 96 -38.5t39 -94.5q0 -35 -18.5 -66.5t-49.5 -50.5q-50 -31 -174 -79t-278 -93zM950 1577l-26 41q241 298 327 354q43 27 84 27q57 0 96 -38.5t39 -94.5q0 -35 -18 -66.5t-49 -50.5q-49 -31 -174 -78.5t-279 -93.5z
M899 -20q-246 0 -433 96t-289.5 272t-102.5 406t102.5 406t289.5 272t433 96t433 -96t289.5 -272t102.5 -406t-102.5 -406t-289.5 -272t-433 -96zM899 82q160 0 257 185t97 487t-97 486.5t-257 184.5t-257 -184.5t-97 -486.5t97 -487t257 -185z" />
    <glyph glyph-name="ohungarumlaut" unicode="&#x151;" horiz-adv-x="1347" 
d="M397 1174l-32 34q77 142 150.5 255t111.5 151q45 45 102 45q53 0 93 -39t40 -92q0 -64 -49 -107q-45 -39 -160.5 -108.5t-255.5 -138.5zM807 1174l-33 34q77 142 150.5 255t111.5 151q45 45 103 45q53 0 93 -39t40 -92q0 -64 -49 -107q-45 -39 -160.5 -108.5
t-255.5 -138.5zM674 -20q-280 0 -450.5 156.5t-170.5 412.5t170.5 412.5t450.5 156.5t450 -156t170 -413t-170 -413t-450 -156zM674 61q80 0 129 134.5t49 353.5t-49 353t-129 134t-129 -134t-49 -353t49 -353.5t129 -134.5z" />
    <glyph glyph-name="OE" unicode="&#x152;" horiz-adv-x="2521" 
d="M2425 598l72 -23l-195 -585q-198 10 -555 10h-823q-253 0 -447 93.5t-299.5 265t-105.5 395.5t105.5 395t299.5 264.5t447 93.5h790q312 0 514 11l174 -566l-69 -24q-33 98 -67 168t-79.5 125t-98 89t-127 56t-162 30.5t-206.5 8.5h-34v-586h63q96 0 150.5 29.5
t88.5 102.5t60 216h70q-6 -246 -6 -409q0 -164 6 -410h-70q-26 151 -60 228.5t-88.5 109t-150.5 31.5h-63v-492q0 -74 27 -98.5t108 -24.5h14q109 0 190 9t151 32t120.5 58t97 92.5t83 130t75.5 174.5zM1006 102h4q72 0 95 20.5t23 82.5v1200h-143q-209 0 -325.5 -176.5
t-116.5 -474.5q0 -294 127 -473t336 -179z" />
    <glyph glyph-name="oe" unicode="&#x153;" horiz-adv-x="2035" 
d="M1954 342l45 -29q-60 -151 -201 -242t-313 -91q-134 0 -240.5 54.5t-171.5 153.5q-73 -101 -183.5 -154.5t-248.5 -53.5q-264 0 -426 156.5t-162 412.5t162 412.5t426 156.5q149 0 266.5 -54.5t188.5 -154.5q68 101 169.5 155t229.5 54q218 0 351.5 -132t133.5 -349h-686
q2 -186 105 -299t272 -113q75 0 152.5 32t130.5 85zM674 61q80 0 129 134.5t49 353.5t-49 353t-129 134t-129 -134t-49 -353t49 -353.5t129 -134.5zM1495 1034q-79 0 -132 -84t-65 -227h45q114 0 183 53t69 139q0 53 -28 86t-72 33z" />
    <glyph glyph-name="Racute" unicode="&#x154;" horiz-adv-x="1783" 
d="M1075 1710q-111 -52 -473 -100l-20 43q279 252 381 299q32 14 65 14q58 0 95.5 -39t37.5 -92q0 -39 -22.5 -72t-63.5 -53zM1237 733q91 -146 155.5 -244.5t120 -174t93 -118t77 -71t70.5 -40.5t74 -19v-66h-301q-79 0 -132.5 7.5t-112 34.5t-105 68t-109.5 121
t-128 179.5t-159 255.5h-102v-379q0 -117 47.5 -161.5t189.5 -59.5v-66h-864v66q118 12 157.5 48t39.5 132v1016q0 96 -39.5 132t-157.5 48v65h848q298 0 480 -106t182 -279q0 -130 -85 -230.5t-239 -158.5zM678 1405v-637h125q128 0 207.5 92t79.5 242q0 138 -80.5 220.5
t-212.5 82.5h-119z" />
    <glyph glyph-name="racute" unicode="&#x155;" horiz-adv-x="1079" 
d="M795 1421q-41 -38 -156 -107t-260 -140l-33 34q77 142 150.5 255t111.5 151q45 45 103 45q53 0 93 -39t40 -92q0 -64 -49 -107zM668 821q-55 -105 -95 -266v-330q0 -85 35.5 -116.5t141.5 -42.5v-66h-721v66q81 7 108 31t27 87v566q0 75 -27 105.5t-108 45.5v62
q348 99 518 155h4l22 -287q41 117 130.5 202t191.5 85q82 0 131 -49t49 -131q0 -60 -37 -117h-370z" />
    <glyph glyph-name="uni0156" unicode="&#x156;" horiz-adv-x="1783" 
d="M1237 733q91 -146 155.5 -244.5t120 -174t93 -118t77 -71t70.5 -40.5t74 -19v-66h-301q-79 0 -132.5 7.5t-112 34.5t-105 68t-109.5 121t-128 179.5t-159 255.5h-102v-379q0 -117 47.5 -161.5t189.5 -59.5v-66h-864v66q118 12 157.5 48t39.5 132v1016q0 96 -39.5 132
t-157.5 48v65h848q298 0 480 -106t182 -279q0 -130 -85 -230.5t-239 -158.5zM678 1405v-637h125q128 0 207.5 92t79.5 242q0 138 -80.5 220.5t-212.5 82.5h-119zM1047 -39q79 0 128.5 -46.5t49.5 -121.5q0 -83 -80.5 -144.5t-212.5 -78.5l-14 57q112 22 112 76q0 59 -129 59
q-16 32 -16 64q0 58 46.5 96.5t115.5 38.5z" />
    <glyph glyph-name="uni0157" unicode="&#x157;" horiz-adv-x="1079" 
d="M668 821q-55 -105 -95 -266v-330q0 -85 35.5 -116.5t141.5 -42.5v-66h-721v66q81 7 108 31t27 87v566q0 75 -27 105.5t-108 45.5v62q348 99 518 155h4l22 -287q41 117 130.5 202t191.5 85q82 0 131 -49t49 -131q0 -60 -37 -117h-370zM371 -39q79 0 128.5 -46.5
t49.5 -121.5q0 -83 -80.5 -144.5t-212.5 -78.5l-14 57q112 22 112 76q0 59 -129 59q-16 32 -16 64q0 58 46.5 96.5t115.5 38.5z" />
    <glyph glyph-name="Rcaron" unicode="&#x158;" horiz-adv-x="1783" 
d="M874 1610h-49l-344 311l27 45l342 -123l342 123l27 -45zM1237 733q91 -146 155.5 -244.5t120 -174t93 -118t77 -71t70.5 -40.5t74 -19v-66h-301q-79 0 -132.5 7.5t-112 34.5t-105 68t-109.5 121t-128 179.5t-159 255.5h-102v-379q0 -117 47.5 -161.5t189.5 -59.5v-66
h-864v66q118 12 157.5 48t39.5 132v1016q0 96 -39.5 132t-157.5 48v65h848q298 0 480 -106t182 -279q0 -130 -85 -230.5t-239 -158.5zM678 1405v-637h125q128 0 207.5 92t79.5 242q0 138 -80.5 220.5t-212.5 82.5h-119z" />
    <glyph glyph-name="rcaron" unicode="&#x159;" horiz-adv-x="1079" 
d="M598 1174h-49l-340 452l35 33l329 -211l330 211l35 -33zM668 821q-55 -105 -95 -266v-330q0 -85 35.5 -116.5t141.5 -42.5v-66h-721v66q81 7 108 31t27 87v566q0 75 -27 105.5t-108 45.5v62q348 99 518 155h4l22 -287q41 117 130.5 202t191.5 85q82 0 131 -49t49 -131
q0 -60 -37 -117h-370z" />
    <glyph glyph-name="Sacute" unicode="&#x15a;" horiz-adv-x="1437" 
d="M471 1610l-20 43q280 253 380 299q32 14 66 14q58 0 95.5 -39t37.5 -92q0 -39 -22.5 -72t-63.5 -53q-111 -52 -473 -100zM719 -20q-84 0 -164.5 19t-144.5 38.5t-107 19.5q-37 0 -54 -13.5t-32 -53.5h-37l-117 559l70 16q95 -218 254 -350.5t322 -132.5q146 0 221.5 51.5
t75.5 147.5q0 42 -21 79.5t-50 64.5t-84.5 57.5t-97.5 49t-116 48.5q-47 19 -75.5 31t-73.5 32t-74.5 36t-68.5 39t-64.5 45t-55 50t-48 57.5t-35 64t-24 74.5t-7.5 83q0 197 156.5 316.5t412.5 119.5q85 0 163.5 -20t139 -40t102.5 -20q33 0 50.5 15t29.5 55h35l111 -541
l-66 -12q-79 207 -235 333.5t-330 126.5q-99 0 -159 -43t-60 -112q0 -31 11.5 -59.5t29 -52t49.5 -48t60.5 -42t74.5 -40t79.5 -37.5t86.5 -37q51 -21 83.5 -35.5t81 -37.5t80 -41t72 -44t66.5 -50.5t53.5 -56t43.5 -64t26 -71.5t10 -81q0 -224 -176.5 -358.5t-472.5 -134.5
z" />
    <glyph glyph-name="sacute" unicode="&#x15b;" horiz-adv-x="1114" 
d="M367 1174l-33 34q77 142 150.5 255t111.5 151q45 45 102 45q53 0 93 -39t40 -92q0 -64 -49 -107q-41 -38 -156 -107t-259 -140zM561 -20q-60 0 -115 11.5t-87.5 26t-66.5 26t-56 11.5t-37.5 -14t-28.5 -51h-35l-88 416l62 14q82 -162 204 -260.5t240 -98.5q178 0 178 127
q0 26 -15 49.5t-36 41t-59.5 38t-68.5 33t-81 33.5q-171 69 -241 115q-150 99 -150 241q0 170 118.5 274.5t311.5 104.5q71 0 140 -16.5t120 -32.5t78 -16q23 0 35.5 11t25.5 44h35l74 -408l-60 -12q-61 157 -180.5 252.5t-253.5 95.5q-65 0 -105 -33.5t-40 -87.5
q0 -24 15.5 -47t36.5 -40t61.5 -39t70.5 -35.5t84 -36.5q55 -23 86 -37t81.5 -40t80 -46t66 -50t56.5 -59.5t34 -67.5t14 -79q0 -161 -139 -259.5t-365 -98.5z" />
    <glyph glyph-name="Scedilla" unicode="&#x15e;" horiz-adv-x="1437" 
d="M1368 473q0 -212 -159 -344.5t-429 -146.5l-28 -50q86 -43 138 -88.5t52 -101.5q0 -154 -332 -172l-14 43q66 25 93.5 45.5t27.5 46.5q0 25 -32.5 53.5t-109.5 73.5l91 150q-86 6 -201.5 40.5t-161.5 34.5q-37 0 -54 -13.5t-32 -53.5h-37l-117 559l70 16
q95 -218 254 -350.5t322 -132.5q146 0 221.5 51.5t75.5 147.5q0 42 -21 79.5t-50 64.5t-84.5 57.5t-97.5 49t-116 48.5q-47 19 -75.5 31t-73.5 32t-74.5 36t-68.5 39t-64.5 45t-55 50t-48 57.5t-35 64t-24 74.5t-7.5 83q0 197 156.5 316.5t412.5 119.5q85 0 163.5 -20
t139 -40t102.5 -20q33 0 50.5 15t29.5 55h35l111 -541l-66 -12q-79 207 -235 333.5t-330 126.5q-99 0 -159 -43t-60 -112q0 -31 11.5 -59.5t29 -52t49.5 -48t60.5 -42t74.5 -40t79.5 -37.5t86.5 -37q51 -21 83.5 -35.5t81 -37.5t80 -41t72 -44t66.5 -50.5t53.5 -56t43.5 -64
t26 -71.5t10 -81z" />
    <glyph glyph-name="scedilla" unicode="&#x15f;" horiz-adv-x="1114" 
d="M1065 338q0 -150 -123 -247t-326 -109l-28 -50q86 -43 138 -88.5t52 -101.5q0 -154 -332 -172l-14 43q66 25 93.5 45.5t27.5 46.5q0 25 -32 54t-109 73l90 150q-74 8 -157 40.5t-109 32.5q-22 0 -37.5 -14t-28.5 -51h-35l-88 416l62 14q82 -162 204 -260.5t240 -98.5
q178 0 178 127q0 26 -15 49.5t-36 41t-59.5 38t-68.5 33t-81 33.5q-171 69 -241 115q-150 99 -150 241q0 170 118.5 274.5t311.5 104.5q71 0 140 -16.5t120 -32.5t78 -16q23 0 35.5 11t25.5 44h35l74 -408l-60 -12q-61 157 -180.5 252.5t-253.5 95.5q-65 0 -105 -33.5
t-40 -87.5q0 -24 15.5 -47t36.5 -40t61.5 -39t70.5 -35.5t84 -36.5q55 -23 86 -37t81.5 -40t80 -46t66 -50t56.5 -59.5t34 -67.5t14 -79z" />
    <glyph glyph-name="Scaron" unicode="&#x160;" horiz-adv-x="1437" 
d="M743 1610h-49l-344 311l27 45l342 -123l342 123l26 -45zM852 954q51 -21 83.5 -35.5t81 -37.5t80 -41t72 -44t66.5 -50.5t53.5 -56t43.5 -64t26 -71.5t10 -81q0 -224 -176.5 -358.5t-472.5 -134.5q-84 0 -164.5 19t-144.5 38.5t-107 19.5q-37 0 -54 -13.5t-32 -53.5h-37
l-117 559l70 16q95 -218 254 -350.5t322 -132.5q146 0 221.5 51.5t75.5 147.5q0 42 -21 79.5t-50 64.5t-84.5 57.5t-97.5 49t-116 48.5q-47 19 -75.5 31t-73.5 32t-74.5 36t-68.5 39t-64.5 45t-55 50t-48 57.5t-35 64t-24 74.5t-7.5 83q0 197 156.5 316.5t412.5 119.5
q85 0 163.5 -20t139 -40t102.5 -20q33 0 50.5 15t29.5 55h35l111 -541l-66 -12q-79 207 -235 333.5t-330 126.5q-99 0 -159 -43t-60 -112q0 -31 11.5 -59.5t29 -52t49.5 -48t60.5 -42t74.5 -40t79.5 -37.5t86.5 -37z" />
    <glyph glyph-name="scaron" unicode="&#x161;" horiz-adv-x="1114" 
d="M586 1174h-49l-340 452l34 33l330 -211l330 211l35 -33zM647 717q55 -23 86 -37t81.5 -40t80 -46t66 -50t56.5 -59.5t34 -67.5t14 -79q0 -161 -139 -259.5t-365 -98.5q-60 0 -115 11.5t-87.5 26t-66.5 26t-56 11.5t-37.5 -14t-28.5 -51h-35l-88 416l62 14
q82 -162 204 -260.5t240 -98.5q178 0 178 127q0 26 -15 49.5t-36 41t-59.5 38t-68.5 33t-81 33.5q-171 69 -241 115q-150 99 -150 241q0 170 118.5 274.5t311.5 104.5q71 0 140 -16.5t120 -32.5t78 -16q23 0 35.5 11t25.5 44h35l74 -408l-60 -12q-61 157 -180.5 252.5
t-253.5 95.5q-65 0 -105 -33.5t-40 -87.5q0 -24 15.5 -47t36.5 -40t61.5 -39t70.5 -35.5t84 -36.5z" />
    <glyph glyph-name="uni0162" unicode="&#x162;" horiz-adv-x="1605" 
d="M1425 1546l170 -596l-69 -22q-53 148 -98.5 236t-103.5 144.5t-125.5 76.5t-168.5 20h-12v-1159q0 -96 42.5 -132t174.5 -48v-66h-379l-41 -68q86 -43 138.5 -88.5t52.5 -101.5q0 -154 -332 -172l-15 43q66 25 93.5 45.5t27.5 46.5q0 25 -32 54t-109 73l100 168h-368v66
q132 12 174.5 48t42.5 132v1159h-13q-81 0 -139 -13.5t-107.5 -44t-90.5 -87.5t-78 -135.5t-80 -196.5l-70 22l170 596h4q91 -23 185.5 -31t285.5 -8h295q191 0 285.5 8t185.5 31h4z" />
    <glyph glyph-name="uni0163" unicode="&#x163;" horiz-adv-x="849" 
d="M637 174q43 0 89.5 22.5t80.5 59.5l37 -37q-56 -107 -161 -173t-222 -66q-19 0 -55 4l-31 -52q86 -43 138 -88.5t52 -101.5q0 -154 -332 -172l-14 43q66 25 93.5 45.5t27.5 46.5q0 25 -32 54t-109 73l106 176q-77 34 -120.5 98.5t-43.5 149.5v711h-135v61
q149 67 257.5 147t213.5 197h66v-274h301l-29 -131h-264v-670q0 -71 18.5 -97t67.5 -26z" />
    <glyph glyph-name="Tcaron" unicode="&#x164;" horiz-adv-x="1605" 
d="M827 1610h-49l-344 311l27 45l342 -123l342 123l26 -45zM1425 1546l170 -596l-69 -22q-53 148 -98.5 236t-103.5 144.5t-125.5 76.5t-168.5 20h-12v-1159q0 -96 42.5 -132t174.5 -48v-66h-864v66q132 12 174.5 48t42.5 132v1159h-13q-81 0 -139 -13.5t-107.5 -44
t-90.5 -87.5t-78 -135.5t-80 -196.5l-70 22l170 596h4q91 -23 185.5 -31t285.5 -8h295q191 0 285.5 8t185.5 31h4z" />
    <glyph glyph-name="tcaron" unicode="&#x165;" horiz-adv-x="849" 
d="M752 1350q0 34 -33.5 56.5t-87.5 25.5q-37 37 -37 94t45 95t113 38q76 0 123 -51.5t47 -134.5q0 -92 -70.5 -176t-185.5 -130l-27 66q51 22 82 53.5t31 63.5zM815 967h-264v-670q0 -71 18.5 -97t67.5 -26q43 0 89.5 22.5t80.5 59.5l37 -37q-56 -107 -161 -173t-222 -66
q-145 0 -232.5 75.5t-87.5 200.5v711h-135v61q149 67 257.5 147t213.5 197h66v-274h301z" />
    <glyph glyph-name="Tbar" unicode="&#x166;" horiz-adv-x="1605" 
d="M1425 1546l170 -596l-69 -22q-53 148 -98.5 236t-103.5 144.5t-125.5 76.5t-168.5 20h-12v-614h246l-19 -86h-227v-459q0 -96 42.5 -132t174.5 -48v-66h-864v66q132 12 174.5 48t42.5 132v459h-246l18 86h228v614h-13q-81 0 -139 -13.5t-107.5 -44t-90.5 -87.5
t-78 -135.5t-80 -196.5l-70 22l170 596h4q91 -23 185.5 -31t285.5 -8h295q191 0 285.5 8t185.5 31h4z" />
    <glyph glyph-name="tbar" unicode="&#x167;" horiz-adv-x="858" 
d="M641 174q43 0 89.5 22.5t80.5 59.5l37 -37q-56 -107 -161 -173t-222 -66q-145 0 -232.5 75.5t-87.5 200.5v403h-129l17 78h112v230h-135v61q149 67 257.5 147t213.5 197h66v-274h301l-29 -131h-264v-230h258l-16 -78h-242v-362q0 -71 18.5 -97t67.5 -26z" />
    <glyph glyph-name="Umacron" unicode="&#x16a;" horiz-adv-x="1691" 
d="M1384 1812l-20 -102h-760l21 102h759zM1665 1507v-65q-118 -12 -157.5 -48t-39.5 -132v-768q0 -242 -145 -378t-403 -136q-359 0 -529 129t-170 403v750q0 96 -39 132t-157 48v65h864v-65q-142 -12 -190 -48.5t-48 -131.5v-811q0 -166 94.5 -267.5t249.5 -101.5
q161 0 260 104.5t99 274.5v760q0 120 -48 164.5t-190 56.5v65h549z" />
    <glyph glyph-name="umacron" unicode="&#x16b;" horiz-adv-x="1351" 
d="M1067 1464l-20 -102h-760l20 102h760zM1206 256q0 -63 27 -87.5t108 -31.5v-61q-294 -47 -540 -96h-4v149q-54 -67 -156.5 -108t-218.5 -41q-126 0 -202.5 81t-76.5 215v474q0 75 -27 105.5t-108 45.5v62q359 98 541 155h4v-760q0 -163 145 -163q63 0 99 36v519
q0 75 -27 105.5t-108 45.5v62q352 96 540 155h4v-862z" />
    <glyph glyph-name="Uring" unicode="&#x16e;" horiz-adv-x="1691" 
d="M995 1577q-109 0 -175 62t-66 163t66 163.5t175 62.5t175.5 -62.5t66.5 -163.5t-66.5 -163t-175.5 -62zM995 1946q-66 0 -106.5 -39.5t-40.5 -104.5q0 -64 40.5 -103.5t106.5 -39.5t107 39.5t41 103.5t-41 104t-107 40zM1665 1507v-65q-118 -12 -157.5 -48t-39.5 -132
v-768q0 -242 -145 -378t-403 -136q-359 0 -529 129t-170 403v750q0 96 -39 132t-157 48v65h864v-65q-142 -12 -190 -48.5t-48 -131.5v-811q0 -166 94.5 -267.5t249.5 -101.5q161 0 260 104.5t99 274.5v760q0 120 -48 164.5t-190 56.5v65h549z" />
    <glyph glyph-name="uring" unicode="&#x16f;" horiz-adv-x="1351" 
d="M678 1208q-109 0 -175.5 62.5t-66.5 163.5t66.5 163t175.5 62t175.5 -62t66.5 -163t-66.5 -163.5t-175.5 -62.5zM678 1577q-66 0 -107 -39.5t-41 -103.5t41 -104t107 -40t106.5 39.5t40.5 104.5q0 64 -40.5 103.5t-106.5 39.5zM1206 256q0 -63 27 -87.5t108 -31.5v-61
q-294 -47 -540 -96h-4v149q-54 -67 -156.5 -108t-218.5 -41q-126 0 -202.5 81t-76.5 215v474q0 75 -27 105.5t-108 45.5v62q359 98 541 155h4v-760q0 -163 145 -163q63 0 99 36v519q0 75 -27 105.5t-108 45.5v62q352 96 540 155h4v-862z" />
    <glyph glyph-name="Uhungarumlaut" unicode="&#x170;" horiz-adv-x="1691" 
d="M1049 1749q-49 -31 -174 -78.5t-279 -93.5l-27 41q240 297 328 354q43 27 84 27q57 0 96 -38.5t39 -94.5q0 -35 -18 -66.5t-49 -50.5zM1047 1577l-27 41q240 297 328 354q44 27 84 27q57 0 96 -38.5t39 -94.5q0 -35 -18.5 -66.5t-49.5 -50.5q-50 -31 -174 -79t-278 -93z
M1665 1507v-65q-118 -12 -157.5 -48t-39.5 -132v-768q0 -242 -145 -378t-403 -136q-359 0 -529 129t-170 403v750q0 96 -39 132t-157 48v65h864v-65q-142 -12 -190 -48.5t-48 -131.5v-811q0 -166 94.5 -267.5t249.5 -101.5q161 0 260 104.5t99 274.5v760q0 120 -48 164.5
t-190 56.5v65h549z" />
    <glyph glyph-name="uhungarumlaut" unicode="&#x171;" horiz-adv-x="1351" 
d="M817 1421q-45 -39 -160.5 -108.5t-255.5 -138.5l-32 34q77 142 150.5 255t111.5 151q45 45 102 45q53 0 93 -39t40 -92q0 -64 -49 -107zM811 1174l-33 34q77 142 150.5 255t111.5 151q45 45 103 45q53 0 93 -39t40 -92q0 -64 -49 -107q-45 -39 -160.5 -108.5
t-255.5 -138.5zM1206 256q0 -63 27 -87.5t108 -31.5v-61q-294 -47 -540 -96h-4v149q-54 -67 -156.5 -108t-218.5 -41q-126 0 -202.5 81t-76.5 215v474q0 75 -27 105.5t-108 45.5v62q359 98 541 155h4v-760q0 -163 145 -163q63 0 99 36v519q0 75 -27 105.5t-108 45.5v62
q352 96 540 155h4v-862z" />
    <glyph glyph-name="Uogonek" unicode="&#x172;" horiz-adv-x="1691" 
d="M1665 1507v-65q-118 -12 -157.5 -48t-39.5 -132v-768q0 -194 -96.5 -322.5t-271.5 -171.5q-85 -44 -138 -107.5t-53 -121.5q0 -31 21 -50.5t55 -19.5q57 0 115 45l20 -57q-45 -39 -131.5 -74t-183.5 -35q-91 0 -147 41t-56 107q0 146 287 252q-344 6 -506 135.5
t-162 396.5v750q0 96 -39 132t-157 48v65h864v-65q-142 -12 -190 -48.5t-48 -131.5v-811q0 -166 94.5 -267.5t249.5 -101.5q161 0 260 104.5t99 274.5v760q0 120 -48 164.5t-190 56.5v65h549z" />
    <glyph glyph-name="uogonek" unicode="&#x173;" horiz-adv-x="1355" 
d="M1341 76q-136 -63 -202 -145.5t-66 -159.5q0 -31 21 -50.5t55 -19.5q57 0 115 45l20 -57q-45 -39 -131.5 -74t-183.5 -35q-91 0 -147 41t-56 107q0 175 311 303q-66 -11 -276 -51h-4v149q-54 -67 -156.5 -108t-218.5 -41q-126 0 -202.5 81t-76.5 215v474q0 75 -27 105.5
t-108 45.5v62q359 98 541 155h4v-760q0 -163 145 -163q63 0 99 36v519q0 75 -27 105.5t-108 45.5v62q352 96 540 155h4v-862q0 -63 27 -87.5t108 -31.5v-61z" />
    <glyph glyph-name="Wcircumflex" unicode="&#x174;" horiz-adv-x="2453" 
d="M1376 1733l-342 -123l-26 45l344 311h49l344 -311l-27 -45zM1845 1507h623v-65q-99 -12 -152.5 -57.5t-107.5 -172.5l-522 -1232h-50l-409 944l-410 -944h-49l-557 1312q-39 91 -83.5 119.5t-139.5 30.5v65h964v-65q-147 -9 -206.5 -34.5t-59.5 -82.5q0 -48 39 -137
l250 -580l389 920h49l410 -948l188 469q45 112 64.5 171.5t19.5 100.5q0 63 -56 89t-194 32v65z" />
    <glyph glyph-name="wcircumflex" unicode="&#x175;" horiz-adv-x="1923" 
d="M1120 1384l-329 -210l-35 32l340 453h49l340 -453l-35 -32zM1423 1098h533v-66q-95 -12 -147 -57.5t-113 -171.5l-393 -823h-50l-292 622l-297 -622h-50l-428 903q-41 87 -82.5 117t-119.5 32v66h837v-66q-104 -9 -147 -30.5t-43 -67.5q0 -45 49 -156l127 -284l299 624
h49l289 -624l67 145q97 211 97 281q0 57 -43 81.5t-142 30.5v66z" />
    <glyph glyph-name="Ycircumflex" unicode="&#x176;" horiz-adv-x="1658" 
d="M977 1733l-342 -123l-27 45l344 311h49l345 -311l-27 -45zM1038 1507h650v-65q-126 -13 -222 -86.5t-192 -247.5l-234 -426v-436q0 -96 42.5 -132t174.5 -48v-66h-864v66q132 12 174.5 48t42.5 132v438l-293 528q-71 126 -130.5 174t-149.5 56v65h911v-65
q-100 -4 -142 -25t-42 -63q0 -45 74 -193l163 -325l109 200q67 124 97 192t30 111q0 51 -46.5 74.5t-152.5 28.5v65z" />
    <glyph glyph-name="ycircumflex" unicode="&#x177;" horiz-adv-x="1316" 
d="M788 1384l-329 -210l-35 32l340 453h49l340 -453l-35 -32zM842 1098h508v-66q-94 -12 -145.5 -57.5t-114.5 -171.5l-508 -1022q-50 -101 -139.5 -156t-196.5 -55q-89 0 -144 48t-55 126q0 60 27 106l446 5l86 176l-420 852q-43 88 -83.5 117.5t-118.5 31.5v66h759v-66
q-68 0 -98.5 -15t-30.5 -54q0 -53 66 -185l147 -299l78 160q101 204 101 283q0 54 -39 79t-125 31v66z" />
    <glyph glyph-name="Ydieresis" unicode="&#x178;" horiz-adv-x="1658" 
d="M772 1618q-77 0 -127.5 49.5t-50.5 124.5t50.5 124.5t127.5 49.5t127.5 -49.5t50.5 -124.5t-50.5 -124.5t-127.5 -49.5zM1182 1618q-77 0 -127.5 49.5t-50.5 124.5t50.5 124.5t127.5 49.5t127.5 -49.5t50.5 -124.5t-50.5 -124.5t-127.5 -49.5zM1038 1507h650v-65
q-126 -13 -222 -86.5t-192 -247.5l-234 -426v-436q0 -96 42.5 -132t174.5 -48v-66h-864v66q132 12 174.5 48t42.5 132v438l-293 528q-71 126 -130.5 174t-149.5 56v65h911v-65q-100 -4 -142 -25t-42 -63q0 -45 74 -193l163 -325l109 200q67 124 97 192t30 111
q0 51 -46.5 74.5t-152.5 28.5v65z" />
    <glyph glyph-name="Zacute" unicode="&#x179;" horiz-adv-x="1544" 
d="M1049 1710q-50 -23 -180 -50.5t-294 -49.5l-20 43q279 252 381 299q32 14 65 14q58 0 96 -39t38 -92q0 -39 -22.5 -72t-63.5 -53zM909 102q78 0 135.5 8.5t107 30t85 55t67 87t56 122t49.5 164.5l74 -12l-70 -567q-293 10 -854 10h-532l-2 6l907 1399h-305
q-108 0 -178.5 -19.5t-128 -74.5t-98 -141.5t-83.5 -231.5l-69 14l133 566q247 -11 798 -11h480l2 -4l-908 -1401h334z" />
    <glyph glyph-name="zacute" unicode="&#x17a;" horiz-adv-x="1187" 
d="M868 1421q-41 -38 -156 -107t-259 -140l-33 34q77 142 150.5 255t111.5 151q45 45 102 45q53 0 93.5 -39t40.5 -92q0 -63 -50 -107zM676 86q150 0 245.5 85.5t147.5 268.5l68 -8l-52 -442q-245 10 -677 10h-379l-2 4l604 1008h-125q-135 0 -225.5 -90t-147.5 -279l-65 14
l96 451q173 -10 627 -10h346l2 -4l-604 -1008h141z" />
    <glyph glyph-name="Zdotaccent" unicode="&#x17b;" horiz-adv-x="1544" 
d="M823 1577q-101 0 -168 64t-67 161t67 161.5t168 64.5t168.5 -64.5t67.5 -161.5t-67.5 -161t-168.5 -64zM909 102q78 0 135.5 8.5t107 30t85 55t67 87t56 122t49.5 164.5l74 -12l-70 -567q-293 10 -854 10h-532l-2 6l907 1399h-305q-108 0 -178.5 -19.5t-128 -74.5
t-98 -141.5t-83.5 -231.5l-69 14l133 566q247 -11 798 -11h480l2 -4l-908 -1401h334z" />
    <glyph glyph-name="zdotaccent" unicode="&#x17c;" horiz-adv-x="1187" 
d="M647 1208q-101 0 -168 64.5t-67 161.5t67 161t168 64t168.5 -64t67.5 -161t-67.5 -161.5t-168.5 -64.5zM676 86q150 0 245.5 85.5t147.5 268.5l68 -8l-52 -442q-245 10 -677 10h-379l-2 4l604 1008h-125q-135 0 -225.5 -90t-147.5 -279l-65 14l96 451q173 -10 627 -10
h346l2 -4l-604 -1008h141z" />
    <glyph glyph-name="Zcaron" unicode="&#x17d;" horiz-adv-x="1544" 
d="M848 1610h-49l-344 311l26 45l342 -123l342 123l27 -45zM909 102q78 0 135.5 8.5t107 30t85 55t67 87t56 122t49.5 164.5l74 -12l-70 -567q-293 10 -854 10h-532l-2 6l907 1399h-305q-108 0 -178.5 -19.5t-128 -74.5t-98 -141.5t-83.5 -231.5l-69 14l133 566
q247 -11 798 -11h480l2 -4l-908 -1401h334z" />
    <glyph glyph-name="zcaron" unicode="&#x17e;" horiz-adv-x="1187" 
d="M672 1174h-49l-340 452l34 33l330 -211l330 211l35 -33zM676 86q150 0 245.5 85.5t147.5 268.5l68 -8l-52 -442q-245 10 -677 10h-379l-2 4l604 1008h-125q-135 0 -225.5 -90t-147.5 -279l-65 14l96 451q173 -10 627 -10h346l2 -4l-604 -1008h141z" />
    <glyph glyph-name="florin" unicode="&#x192;" horiz-adv-x="1210" 
d="M1139 817l-19 -96h-246q7 -28 7 -53q0 -109 -51.5 -232t-132 -223t-187.5 -166.5t-209 -66.5q-91 0 -146 46.5t-55 123.5q0 45 19 96h481q0 84 -38 160t-109 169q-66 83 -95 146h-284l18 96h238q-2 8 -2 23q0 109 51.5 232t131.5 223t187 166.5t209 66.5q91 0 146 -46.5
t55 -123.5q0 -47 -18 -96h-482v-27q0 -47 12.5 -92.5t39.5 -91t47.5 -74t58.5 -76.5q48 -61 61 -84h312z" />
    <glyph glyph-name="AEacute" unicode="&#x1fc;" horiz-adv-x="2406" 
d="M1638 1710q-111 -52 -473 -100l-20 43q279 252 381 299q32 14 65 14q58 0 95.5 -39t37.5 -92q0 -39 -22.5 -72t-63.5 -53zM2310 598l72 -23l-195 -585q-197 10 -555 10h-815v66q118 12 157.5 48t39.5 132v471h-449l-104 -258q-49 -119 -70.5 -183.5t-21.5 -103.5
q0 -54 45.5 -77t156.5 -29v-66h-581v66q104 13 166 59t114 170l506 1212h823q313 0 515 11l174 -566l-70 -24q-40 118 -83 196.5t-99 135.5t-135 87.5t-179 44t-243 13.5h-35v-586h63q96 0 150.5 29.5t88.5 102.5t60 216h70q-6 -246 -6 -409q0 -164 6 -410h-70
q-26 151 -60 228.5t-88.5 109t-150.5 31.5h-63v-492q0 -74 27 -98.5t108 -24.5h14q109 0 190 9t151 32t120.5 58t97 92.5t83 130t75.5 174.5zM606 819h408v402q0 100 -33.5 145.5t-126.5 63.5z" />
    <glyph glyph-name="aeacute" unicode="&#x1fd;" horiz-adv-x="1826" 
d="M1214 1421q-41 -38 -156 -107t-259 -140l-33 34q77 142 150.5 255t111.5 151q45 45 102 45q53 0 93.5 -39t40.5 -92q0 -63 -50 -107zM1745 342l45 -29q-63 -151 -209.5 -242t-325.5 -91q-157 0 -281 59.5t-198 167.5q-72 -104 -195.5 -165.5t-258.5 -61.5
q-126 0 -202.5 59t-76.5 156q0 170 246 262l387 145v240q0 78 -43 126t-113 48q-18 0 -28 -2v-404q-44 -29 -102 -47t-109 -18q-82 0 -129.5 37.5t-47.5 107.5q0 120 85.5 219.5t220.5 154t284 54.5q166 0 244 -133q139 133 348 133q218 0 352 -132t134 -349h-687
q2 -186 105 -299t272 -113q75 0 152.5 32t130.5 85zM1286 1034q-79 0 -131.5 -84t-64.5 -227h45q114 0 182.5 53t68.5 139q0 53 -28 86t-72 33zM571 195q44 0 86.5 24t73.5 66q-47 100 -53 219h-2q-91 -38 -147 -96.5t-56 -114.5q0 -44 27 -71t71 -27z" />
    <glyph glyph-name="uni0218" unicode="&#x218;" horiz-adv-x="1437" 
d="M719 -20q-84 0 -164.5 19t-144.5 38.5t-107 19.5q-37 0 -54 -13.5t-32 -53.5h-37l-117 559l70 16q95 -218 254 -350.5t322 -132.5q146 0 221.5 51.5t75.5 147.5q0 42 -21 79.5t-50 64.5t-84.5 57.5t-97.5 49t-116 48.5q-47 19 -75.5 31t-73.5 32t-74.5 36t-68.5 39
t-64.5 45t-55 50t-48 57.5t-35 64t-24 74.5t-7.5 83q0 197 156.5 316.5t412.5 119.5q85 0 163.5 -20t139 -40t102.5 -20q33 0 50.5 15t29.5 55h35l111 -541l-66 -12q-79 207 -235 333.5t-330 126.5q-99 0 -159 -43t-60 -112q0 -31 11.5 -59.5t29 -52t49.5 -48t60.5 -42
t74.5 -40t79.5 -37.5t86.5 -37q51 -21 83.5 -35.5t81 -37.5t80 -41t72 -44t66.5 -50.5t53.5 -56t43.5 -64t26 -71.5t10 -81q0 -224 -176.5 -358.5t-472.5 -134.5zM616 -430l-14 57q113 22 113 76q0 59 -129 59q-17 34 -17 64q0 58 46.5 96.5t115.5 38.5q79 0 128.5 -46.5
t49.5 -121.5q0 -83 -80.5 -144.5t-212.5 -78.5z" />
    <glyph glyph-name="uni0219" unicode="&#x219;" horiz-adv-x="1114" 
d="M561 -20q-60 0 -115 11.5t-87.5 26t-66.5 26t-56 11.5t-37.5 -14t-28.5 -51h-35l-88 416l62 14q82 -162 204 -260.5t240 -98.5q178 0 178 127q0 26 -15 49.5t-36 41t-59.5 38t-68.5 33t-81 33.5q-171 69 -241 115q-150 99 -150 241q0 170 118.5 274.5t311.5 104.5
q71 0 140 -16.5t120 -32.5t78 -16q23 0 35.5 11t25.5 44h35l74 -408l-60 -12q-61 157 -180.5 252.5t-253.5 95.5q-65 0 -105 -33.5t-40 -87.5q0 -24 15.5 -47t36.5 -40t61.5 -39t70.5 -35.5t84 -36.5q55 -23 86 -37t81.5 -40t80 -46t66 -50t56.5 -59.5t34 -67.5t14 -79
q0 -161 -139 -259.5t-365 -98.5zM453 -430l-15 57q113 22 113 76q0 59 -129 59q-16 32 -16 64q0 58 46 96.5t115 38.5q79 0 128.5 -46.5t49.5 -121.5q0 -83 -80 -144.5t-212 -78.5z" />
    <glyph glyph-name="uni021A" unicode="&#x21a;" horiz-adv-x="1605" 
d="M1425 1546l170 -596l-69 -22q-53 148 -98.5 236t-103.5 144.5t-125.5 76.5t-168.5 20h-12v-1159q0 -96 42.5 -132t174.5 -48v-66h-864v66q132 12 174.5 48t42.5 132v1159h-13q-81 0 -139 -13.5t-107.5 -44t-90.5 -87.5t-78 -135.5t-80 -196.5l-70 22l170 596h4
q91 -23 185.5 -31t285.5 -8h295q191 0 285.5 8t185.5 31h4zM795 -39q79 0 128.5 -46.5t49.5 -121.5q0 -83 -80.5 -144.5t-212.5 -78.5l-14 57q112 22 112 76q0 59 -129 59q-16 32 -16 64q0 58 46.5 96.5t115.5 38.5z" />
    <glyph glyph-name="uni021B" unicode="&#x21b;" horiz-adv-x="849" 
d="M637 174q43 0 89.5 22.5t80.5 59.5l37 -37q-56 -107 -161 -173t-222 -66q-145 0 -232.5 75.5t-87.5 200.5v711h-135v61q149 67 257.5 147t213.5 197h66v-274h301l-29 -131h-264v-670q0 -71 18.5 -97t67.5 -26zM354 -39q79 0 128.5 -46.5t49.5 -121.5q0 -83 -80 -144.5
t-212 -78.5l-15 57q113 22 113 76q0 59 -129 59q-16 32 -16 64q0 58 46 96.5t115 38.5z" />
    <glyph glyph-name="uni0237" unicode="&#x237;" horiz-adv-x="671" 
d="M35 -430l-23 65q81 67 108 143t27 236v736q0 75 -27 105.5t-108 45.5v62q359 98 541 155h4v-942q0 -243 -143.5 -410t-378.5 -196z" />
    <glyph glyph-name="circumflex" unicode="&#x2c6;" horiz-adv-x="1130" 
d="M930 1206l-35 -32l-330 210l-329 -210l-35 32l340 453h49z" />
    <glyph glyph-name="caron" unicode="&#x2c7;" horiz-adv-x="1130" 
d="M895 1659l35 -33l-340 -452h-49l-340 452l35 33l329 -211z" />
    <glyph glyph-name="breve" unicode="&#x2d8;" horiz-adv-x="1105" 
d="M553 1180q-120 0 -211 116.5t-145 337.5l49 21q53 -118 131.5 -185t175.5 -67t175.5 67t131.5 185l49 -21q-54 -221 -145 -337.5t-211 -116.5z" />
    <glyph glyph-name="dotaccent" unicode="&#x2d9;" horiz-adv-x="716" 
d="M358 1208q-101 0 -168 64.5t-67 161.5t67 161t168 64t168.5 -64t67.5 -161t-67.5 -161.5t-168.5 -64.5z" />
    <glyph glyph-name="ring" unicode="&#x2da;" horiz-adv-x="1105" 
d="M553 1208q-109 0 -175.5 62.5t-66.5 163.5t66.5 163t175.5 62t175.5 -62t66.5 -163t-66.5 -163.5t-175.5 -62.5zM553 1290q66 0 106.5 39.5t40.5 104.5q0 64 -40.5 103.5t-106.5 39.5t-106.5 -39.5t-40.5 -103.5q0 -65 40.5 -104.5t106.5 -39.5z" />
    <glyph glyph-name="ogonek" unicode="&#x2db;" horiz-adv-x="1169" 
d="M508 -420q-91 0 -147 41t-56 107q0 187 471 309l27 -37q-85 -44 -138 -107.5t-53 -121.5q0 -31 21 -50.5t55 -19.5q57 0 115 45l20 -57q-45 -39 -131.5 -74t-183.5 -35z" />
    <glyph glyph-name="tilde" unicode="&#x2dc;" horiz-adv-x="1228" 
d="M772 1266q-85 0 -217 51t-213 51t-109 -98l-49 12q13 128 87.5 219.5t183.5 91.5q79 0 211 -51t219 -51q80 0 108 98l49 -12q-14 -129 -87.5 -220t-182.5 -91z" />
    <glyph glyph-name="hungarumlaut" unicode="&#x2dd;" horiz-adv-x="1161" 
d="M160 1174l-33 34q77 142 150.5 255t111.5 151q45 45 103 45q53 0 93 -39t40 -92q0 -63 -50 -107q-46 -39 -161 -108.5t-254 -138.5zM569 1174l-32 34q77 142 150.5 255t111.5 151q45 45 102 45q53 0 93 -39t40 -92q0 -64 -49 -107q-45 -39 -160.5 -108.5t-255.5 -138.5z
" />
    <glyph glyph-name="gravecomb" unicode="&#x300;" 
d="M-221 1174q-145 71 -260 140t-156 107q-49 43 -49 107q0 53 40 92t93 39q57 0 102 -45q38 -38 112 -151.5t151 -254.5z" />
    <glyph glyph-name="acutecomb" unicode="&#x301;" 
d="M-653 1174l-33 34q77 142 150.5 255t111.5 151q45 45 102 45q53 0 93.5 -39t40.5 -92q0 -63 -50 -107q-41 -38 -156 -107t-259 -140z" />
    <glyph glyph-name="uni0302" unicode="&#x302;" 
d="M-201 1206l-35 -32l-329 210l-330 -210l-35 32l340 453h49z" />
    <glyph glyph-name="tildecomb" unicode="&#x303;" 
d="M-455 1266q-85 0 -217 51t-213 51q-80 0 -108 -98l-49 12q13 128 87 219.5t183 91.5q79 0 211 -51t219 -51q81 0 109 98l49 -12q-14 -128 -88 -219.5t-183 -91.5z" />
    <glyph glyph-name="uni0304" unicode="&#x304;" 
d="M-934 1362l21 102h759l-20 -102h-760z" />
    <glyph glyph-name="uni0306" unicode="&#x306;" 
d="M-553 1180q-120 0 -211 116.5t-145 337.5l49 21q53 -118 131.5 -185t175.5 -67t175.5 67t131.5 185l49 -21q-54 -221 -145 -337.5t-211 -116.5z" />
    <glyph glyph-name="uni0307" unicode="&#x307;" 
d="M-358 1208q-101 0 -168.5 64.5t-67.5 161.5t67.5 161t168.5 64t168 -64t67 -161t-67 -161.5t-168 -64.5z" />
    <glyph glyph-name="uni0308" unicode="&#x308;" 
d="M-768 1260q-77 0 -127.5 49.5t-50.5 124.5t50.5 124.5t127.5 49.5t127.5 -49.5t50.5 -124.5t-50.5 -124.5t-127.5 -49.5zM-358 1260q-77 0 -128 49.5t-51 124.5t51 124.5t128 49.5t127.5 -49.5t50.5 -124.5t-50.5 -124.5t-127.5 -49.5z" />
    <glyph glyph-name="uni030A" unicode="&#x30a;" 
d="M-553 1208q-109 0 -175.5 62.5t-66.5 163.5t66.5 163t175.5 62t175.5 -62t66.5 -163t-66.5 -163.5t-175.5 -62.5zM-553 1290q66 0 106.5 39.5t40.5 104.5q0 64 -40.5 103.5t-106.5 39.5t-106.5 -39.5t-40.5 -103.5q0 -65 40.5 -104.5t106.5 -39.5z" />
    <glyph glyph-name="uni030B" unicode="&#x30b;" 
d="M-1001 1174l-33 34q77 142 150.5 255t111.5 151q45 45 102 45q53 0 93 -39t40 -92q0 -64 -49 -107q-46 -39 -161 -108.5t-254 -138.5zM-592 1174l-33 34q77 141 151 254.5t112 151.5q45 45 102 45q53 0 93 -39t40 -92q0 -64 -49 -107q-45 -39 -160.5 -108.5
t-255.5 -138.5z" />
    <glyph glyph-name="uni030C" unicode="&#x30c;" 
d="M-236 1659l35 -33l-340 -452h-49l-340 452l35 33l330 -211z" />
    <glyph glyph-name="uni0312" unicode="&#x312;" 
d="M-520 1206q-79 0 -128.5 46.5t-49.5 121.5q0 106 80 184.5t212 100.5l15 -57q-54 -15 -83.5 -42.5t-29.5 -64.5q0 -42 33.5 -66t95.5 -24q17 -34 17 -64q0 -58 -46.5 -96.5t-115.5 -38.5z" />
    <glyph glyph-name="uni0326" unicode="&#x326;" 
d="M-651 -430l-15 57q113 22 113 76q0 59 -129 59q-16 32 -16 64q0 58 46 96.5t115 38.5q80 0 129.5 -46.5t49.5 -121.5q0 -83 -80.5 -144.5t-212.5 -78.5z" />
    <glyph glyph-name="uni0327" unicode="&#x327;" 
d="M-596 -430l-14 43q66 25 93.5 45.5t27.5 46.5q0 25 -32.5 53.5t-109.5 73.5l113 188l104 -20l-41 -68q86 -43 138.5 -88.5t52.5 -101.5q0 -154 -332 -172z" />
    <glyph glyph-name="uni0328" unicode="&#x328;" 
d="M-662 -420q-91 0 -146.5 41t-55.5 107q0 187 471 309l26 -37q-85 -44 -137.5 -107.5t-52.5 -121.5q0 -31 21 -50.5t55 -19.5q56 0 114 45l21 -57q-45 -39 -132 -74t-184 -35z" />
    <glyph glyph-name="uni0394" unicode="&#x394;" horiz-adv-x="1449" 
d="M752 1528l716 -1522l-2 -6h-1482l-2 6l720 1522h50zM150 102h804l-397 873z" />
    <glyph glyph-name="uni03A9" unicode="&#x3a9;" horiz-adv-x="1933" 
d="M1802 537l74 -13l-66 -534q-267 10 -741 10h-61l-2 6q157 212 212.5 403t55.5 445q0 257 -84.5 414t-222.5 157t-223 -157.5t-85 -413.5q0 -255 56 -445t213 -403l-2 -6h-62q-461 0 -741 -10l-66 534l74 13q23 -112 106 -150.5t298 -38.5h57q-109 65 -197 149
t-147.5 195.5t-59.5 222.5q0 275 214.5 444t564.5 169t564 -169t214 -444q0 -111 -59.5 -222.5t-147.5 -195.5t-197 -149h58q215 0 297.5 38.5t105.5 150.5z" />
    <glyph glyph-name="uni03BC" unicode="&#x3bc;" horiz-adv-x="1478" 
d="M1268 256q0 -63 27 -87.5t108 -31.5v-61q-300 -48 -541 -96h-4v149q-41 -67 -121.5 -108t-171.5 -41q-117 0 -182 104q6 -22 18 -66.5t17.5 -65.5t14.5 -57t13.5 -57.5t9.5 -48.5t7 -48t2 -40q0 -55 -40 -93t-97 -38t-97.5 38t-40.5 93q0 92 15 606v443q0 75 -27 105.5
t-108 45.5v62q352 96 540 155h4v-760q0 -163 146 -163q62 0 98 36v519q0 75 -27 105.5t-108 45.5v62q359 98 541 155h4v-862z" />
    <glyph glyph-name="pi" unicode="&#x3c0;" horiz-adv-x="1402" 
d="M1341 264l48 -31q-41 -114 -134.5 -183.5t-207.5 -69.5q-103 0 -166.5 59.5t-63.5 157.5v815h-244v-828q0 -63 23 -87t92 -31v-66h-659v66q81 7 108 31t27 87v729q0 65 -26.5 88.5t-108.5 30.5v66h1333v-66q-82 -7 -108.5 -30.5t-26.5 -88.5v-671q0 -26 7 -36.5t26 -10.5
q22 0 44 19t37 50z" />
    <glyph glyph-name="Wgrave" unicode="&#x1e80;" horiz-adv-x="2453" 
d="M1143 1710q-41 20 -63.5 53t-22.5 72q0 53 37.5 92t95.5 39q33 0 65 -14q102 -47 381 -299l-20 -43q-362 48 -473 100zM1845 1507h623v-65q-99 -12 -152.5 -57.5t-107.5 -172.5l-522 -1232h-50l-409 944l-410 -944h-49l-557 1312q-39 91 -83.5 119.5t-139.5 30.5v65h964
v-65q-147 -9 -206.5 -34.5t-59.5 -82.5q0 -48 39 -137l250 -580l389 920h49l410 -948l188 469q45 112 64.5 171.5t19.5 100.5q0 63 -56 89t-194 32v65z" />
    <glyph glyph-name="wgrave" unicode="&#x1e81;" horiz-adv-x="1923" 
d="M891 1421q-49 43 -49 107q0 53 40 92t93 39q57 0 102 -45q38 -38 111.5 -151t150.5 -255l-32 -34q-145 71 -260 140t-156 107zM1423 1098h533v-66q-95 -12 -147 -57.5t-113 -171.5l-393 -823h-50l-292 622l-297 -622h-50l-428 903q-41 87 -82.5 117t-119.5 32v66h837v-66
q-104 -9 -147 -30.5t-43 -67.5q0 -45 49 -156l127 -284l299 624h49l289 -624l67 145q97 211 97 281q0 57 -43 81.5t-142 30.5v66z" />
    <glyph glyph-name="Wacute" unicode="&#x1e82;" horiz-adv-x="2453" 
d="M1602 1710q-50 -23 -180 -50.5t-294 -49.5l-20 43q279 252 381 299q32 14 65 14q58 0 96 -39t38 -92q0 -39 -22.5 -72t-63.5 -53zM1845 1507h623v-65q-99 -12 -152.5 -57.5t-107.5 -172.5l-522 -1232h-50l-409 944l-410 -944h-49l-557 1312q-39 91 -83.5 119.5
t-139.5 30.5v65h964v-65q-147 -9 -206.5 -34.5t-59.5 -82.5q0 -48 39 -137l250 -580l389 920h49l410 -948l188 469q45 112 64.5 171.5t19.5 100.5q0 63 -56 89t-194 32v65z" />
    <glyph glyph-name="wacute" unicode="&#x1e83;" horiz-adv-x="1923" 
d="M1341 1421q-41 -38 -156 -107t-259 -140l-33 34q77 142 150.5 255t111.5 151q45 45 102 45q53 0 93.5 -39t40.5 -92q0 -63 -50 -107zM1423 1098h533v-66q-95 -12 -147 -57.5t-113 -171.5l-393 -823h-50l-292 622l-297 -622h-50l-428 903q-41 87 -82.5 117t-119.5 32v66
h837v-66q-104 -9 -147 -30.5t-43 -67.5q0 -45 49 -156l127 -284l299 624h49l289 -624l67 145q97 211 97 281q0 57 -43 81.5t-142 30.5v66z" />
    <glyph glyph-name="Wdieresis" unicode="&#x1e84;" horiz-adv-x="2453" 
d="M1171 1618q-77 0 -127.5 49.5t-50.5 124.5t50.5 124.5t127.5 49.5t128 -49.5t51 -124.5t-51 -124.5t-128 -49.5zM1581 1618q-77 0 -127.5 49.5t-50.5 124.5t50.5 124.5t127.5 49.5t127.5 -49.5t50.5 -124.5t-50.5 -124.5t-127.5 -49.5zM1845 1507h623v-65
q-99 -12 -152.5 -57.5t-107.5 -172.5l-522 -1232h-50l-409 944l-410 -944h-49l-557 1312q-39 91 -83.5 119.5t-139.5 30.5v65h964v-65q-147 -9 -206.5 -34.5t-59.5 -82.5q0 -48 39 -137l250 -580l389 920h49l410 -948l188 469q45 112 64.5 171.5t19.5 100.5q0 63 -56 89
t-194 32v65z" />
    <glyph glyph-name="wdieresis" unicode="&#x1e85;" horiz-adv-x="1923" 
d="M915 1260q-77 0 -127.5 49.5t-50.5 124.5t50.5 124.5t127.5 49.5t128 -49.5t51 -124.5t-51 -124.5t-128 -49.5zM1325 1260q-77 0 -127.5 49.5t-50.5 124.5t50.5 124.5t127.5 49.5t127.5 -49.5t50.5 -124.5t-50.5 -124.5t-127.5 -49.5zM1423 1098h533v-66
q-95 -12 -147 -57.5t-113 -171.5l-393 -823h-50l-292 622l-297 -622h-50l-428 903q-41 87 -82.5 117t-119.5 32v66h837v-66q-104 -9 -147 -30.5t-43 -67.5q0 -45 49 -156l127 -284l299 624h49l289 -624l67 145q97 211 97 281q0 57 -43 81.5t-142 30.5v66z" />
    <glyph glyph-name="uni1E9E" unicode="&#x1e9e;" horiz-adv-x="1716" 
d="M1217 1055q74 -59 129 -107.5t119.5 -118t105 -134.5t68.5 -146.5t28 -163.5q0 -187 -128.5 -296t-332.5 -109q-177 0 -280 112l43 62q61 -54 137 -54q50 0 93.5 41t43.5 109q0 114 -66 218t-262 312l332 506q-103 139 -282 139q-152 0 -245 -95.5t-93 -252.5v-831
q0 -96 39.5 -133t156.5 -47v-66h-823v66q118 12 157.5 48t39.5 132v704q0 172 95.5 303.5t270 203t402.5 71.5q126 0 260.5 -36.5t224.5 -96.5v-4z" />
    <glyph glyph-name="Ygrave" unicode="&#x1ef2;" horiz-adv-x="1658" 
d="M743 1710q-41 20 -63.5 53t-22.5 72q0 53 38 92t96 39q33 0 65 -14q102 -47 381 -299l-20 -43q-164 22 -294 49.5t-180 50.5zM1038 1507h650v-65q-126 -13 -222 -86.5t-192 -247.5l-234 -426v-436q0 -96 42.5 -132t174.5 -48v-66h-864v66q132 12 174.5 48t42.5 132v438
l-293 528q-71 126 -130.5 174t-149.5 56v65h911v-65q-100 -4 -142 -25t-42 -63q0 -45 74 -193l163 -325l109 200q67 124 97 192t30 111q0 51 -46.5 74.5t-152.5 28.5v65z" />
    <glyph glyph-name="ygrave" unicode="&#x1ef3;" horiz-adv-x="1316" 
d="M559 1421q-49 43 -49 107q0 53 40 92t93 39q57 0 102 -45q38 -38 112 -151.5t151 -254.5l-33 -34q-145 71 -260 140t-156 107zM842 1098h508v-66q-94 -12 -145.5 -57.5t-114.5 -171.5l-508 -1022q-50 -101 -139.5 -156t-196.5 -55q-89 0 -144 48t-55 126q0 60 27 106
l446 5l86 176l-420 852q-43 88 -83.5 117.5t-118.5 31.5v66h759v-66q-68 0 -98.5 -15t-30.5 -54q0 -53 66 -185l147 -299l78 160q101 204 101 283q0 54 -39 79t-125 31v66z" />
    <glyph glyph-name="endash" unicode="&#x2013;" horiz-adv-x="1398" 
d="M121 539l29 131h1128l-29 -131h-1128z" />
    <glyph glyph-name="emdash" unicode="&#x2014;" horiz-adv-x="1808" 
d="M121 539l29 131h1538l-29 -131h-1538z" />
    <glyph glyph-name="quoteleft" unicode="&#x2018;" horiz-adv-x="618" 
d="M481 1659l27 -66q-90 -42 -144.5 -101t-54.5 -118q0 -61 51.5 -100.5t135.5 -42.5q57 -63 57 -156q0 -101 -64 -168t-161 -67q-120 0 -193.5 84t-73.5 219q0 161 115.5 302.5t304.5 213.5z" />
    <glyph glyph-name="quoteright" unicode="&#x2019;" horiz-adv-x="620" 
d="M145 840l-26 65q90 42 144 101t54 118q0 61 -51.5 101t-134.5 43q-57 63 -57 155q0 101 64 168.5t161 67.5q120 0 193 -84t73 -219q0 -161 -115.5 -302.5t-304.5 -213.5z" />
    <glyph glyph-name="quotesinglbase" unicode="&#x201a;" horiz-adv-x="649" 
d="M147 -369l-26 66q90 42 144 101t54 118q0 61 -51.5 100.5t-134.5 42.5q-57 63 -57 156q0 101 64 168.5t161 67.5q120 0 193 -84t73 -220q0 -161 -115.5 -302.5t-304.5 -213.5z" />
    <glyph glyph-name="quotedblleft" unicode="&#x201c;" horiz-adv-x="1171" 
d="M481 1659l27 -66q-90 -42 -144.5 -101t-54.5 -118q0 -61 51.5 -100.5t135.5 -42.5q57 -63 57 -156q0 -101 -64 -168t-161 -67q-120 0 -193.5 84t-73.5 219q0 161 115.5 302.5t304.5 213.5zM1034 1659l27 -66q-90 -42 -144.5 -101t-54.5 -118q0 -61 51.5 -100.5
t135.5 -42.5q57 -63 57 -156q0 -101 -64 -168t-161 -67q-120 0 -193.5 84t-73.5 219q0 161 115.5 302.5t304.5 213.5z" />
    <glyph glyph-name="quotedblright" unicode="&#x201d;" horiz-adv-x="1173" 
d="M145 840l-26 65q90 42 144 101t54 118q0 61 -51.5 101t-134.5 43q-57 63 -57 155q0 101 64 168.5t161 67.5q120 0 193 -84t73 -219q0 -161 -115.5 -302.5t-304.5 -213.5zM698 840l-26 65q90 42 144 101t54 118q0 61 -51.5 101t-134.5 43q-57 63 -57 155q0 101 64 168.5
t161 67.5q120 0 193 -84t73 -219q0 -161 -115.5 -302.5t-304.5 -213.5z" />
    <glyph glyph-name="quotedblbase" unicode="&#x201e;" horiz-adv-x="1202" 
d="M147 -369l-26 66q90 42 144 101t54 118q0 61 -51.5 100.5t-134.5 42.5q-57 63 -57 156q0 101 64 168.5t161 67.5q120 0 193 -84t73 -220q0 -161 -115.5 -302.5t-304.5 -213.5zM700 -369l-26 66q90 42 144 101t54 118q0 61 -51.5 100.5t-134.5 42.5q-57 63 -57 156
q0 101 64 168.5t161 67.5q120 0 193 -84t73 -220q0 -161 -115.5 -302.5t-304.5 -213.5z" />
    <glyph glyph-name="dagger" unicode="&#x2020;" horiz-adv-x="1028" 
d="M854 1325q47 0 79 -33.5t32 -83.5q0 -49 -32 -82.5t-79 -33.5q-79 0 -309 79q86 -455 86 -600q0 -52 -33.5 -86t-83.5 -34t-83.5 34t-33.5 86q0 151 86 603q-233 -82 -309 -82q-47 0 -79 33.5t-32 82.5q0 50 32 83.5t79 33.5q80 0 301 -78q-78 224 -78 301q0 47 33.5 79
t83.5 32t83.5 -32t33.5 -79q0 -80 -78 -301q224 78 301 78z" />
    <glyph glyph-name="daggerdbl" unicode="&#x2021;" horiz-adv-x="1062" 
d="M190 1092q-47 0 -78.5 33t-31.5 83t31.5 83.5t78.5 33.5q81 0 302 -78q-78 224 -78 301q0 47 33.5 79t82.5 32q50 0 83.5 -32t33.5 -79q0 -80 -78 -301q224 78 301 78q47 0 79 -33.5t32 -83.5q0 -49 -32 -82.5t-79 -33.5q-86 0 -340 92q-258 -92 -340 -92zM870 1018
q47 0 79 -33.5t32 -83.5t-32 -83.5t-79 -33.5q-77 0 -301 78q78 -221 78 -301q0 -47 -33.5 -78.5t-83.5 -31.5t-83 31.5t-33 78.5q0 77 78 301q-221 -78 -302 -78q-47 0 -78.5 33.5t-31.5 83.5t31.5 83.5t78.5 33.5q82 0 340 -92q254 92 340 92z" />
    <glyph glyph-name="bullet" unicode="&#x2022;" horiz-adv-x="954" 
d="M477 266q-151 0 -249.5 96t-98.5 242t98.5 242t249.5 96t249.5 -96t98.5 -242t-98.5 -242t-249.5 -96z" />
    <glyph glyph-name="ellipsis" unicode="&#x2026;" horiz-adv-x="1871" 
d="M322 -20q-106 0 -176 67t-70 168t70 168.5t176 67.5t175.5 -67.5t69.5 -168.5t-69.5 -168t-175.5 -67zM936 -20q-106 0 -176 67t-70 168t70 168.5t176 67.5t176 -67.5t70 -168.5t-70 -168t-176 -67zM1550 -20q-106 0 -175.5 67t-69.5 168t69.5 168.5t175.5 67.5
t176 -67.5t70 -168.5t-70 -168t-176 -67z" />
    <glyph glyph-name="perthousand" unicode="&#x2030;" horiz-adv-x="2846" 
d="M367 -55l-84 69l1312 1549l84 -70zM455 649q-172 0 -277.5 120t-105.5 316q0 195 105.5 315t277.5 120q170 0 275.5 -120t105.5 -315q0 -196 -105 -316t-276 -120zM455 713q34 0 54.5 102t20.5 270q0 167 -20.5 270t-54.5 103q-35 0 -56.5 -102.5t-21.5 -270.5
q0 -169 21.5 -270.5t56.5 -101.5zM1509 -12q-172 0 -277.5 120t-105.5 316q0 195 105.5 314.5t277.5 119.5q170 0 275.5 -119.5t105.5 -314.5q0 -196 -105 -316t-276 -120zM2396 -12q-172 0 -277.5 120t-105.5 316q0 195 105.5 314.5t277.5 119.5q170 0 275.5 -119.5
t105.5 -314.5q0 -196 -105 -316t-276 -120zM1509 51q34 0 55 102.5t21 270.5q0 167 -21 270t-55 103q-35 0 -56 -102.5t-21 -270.5q0 -169 21 -271t56 -102zM2396 51q34 0 55 102.5t21 270.5q0 167 -21 270t-55 103q-35 0 -56.5 -102.5t-21.5 -270.5q0 -169 21.5 -271
t56.5 -102z" />
    <glyph glyph-name="guilsinglleft" unicode="&#x2039;" horiz-adv-x="591" 
d="M500 1047l-181 -445l181 -444l-45 -27l-373 447v49l373 446z" />
    <glyph glyph-name="guilsinglright" unicode="&#x203a;" horiz-adv-x="591" 
d="M137 1073l373 -446v-49l-373 -447l-45 27l180 444l-180 445z" />
    <glyph glyph-name="fraction" unicode="&#x2044;" horiz-adv-x="245" 
d="M-492 -55l-83 69l1312 1549l84 -70z" />
    <glyph glyph-name="Euro" unicode="&#x20ac;" horiz-adv-x="1550" 
d="M1341 553h70v-563h-35q-13 38 -28 51.5t-39 13.5q-27 0 -78 -18.5t-120.5 -37.5t-139.5 -19q-295 0 -493 168.5t-242 453.5h-166l18 96h139q-2 18 -2 56q0 28 4 82h-159l18 96h154q50 275 245 435.5t484 160.5q76 0 141.5 -19t109.5 -38t66 -19q20 0 35 13.5t33 50.5h35
v-541h-70q0 201 -79 322.5t-210 121.5q-127 0 -213 -130.5t-112 -356.5h428l-19 -96h-418q-2 -27 -2 -82v-56h396l-19 -96h-371q23 -236 111.5 -375t218.5 -139q139 0 224 128t85 337z" />
    <glyph glyph-name="uni20BF" unicode="&#x20bf;" horiz-adv-x="1650" 
d="M1575 410q0 -117 -84 -211.5t-218 -145.5t-288 -53v-205h-108v205h-168v-205h-109v205h-518v66q118 12 157.5 48t39.5 132v1016q0 96 -39.5 132t-157.5 48v65h518v162h109v-162h143h25v162h108v-168q224 -25 356 -123t132 -245q0 -123 -87.5 -216t-242.5 -139
q201 -35 316.5 -133t115.5 -235zM1001 1112q0 136 -74.5 214.5t-217.5 78.5v-586q143 0 217.5 78.5t74.5 214.5zM807 102q116 0 206.5 87.5t90.5 220.5q0 141 -87 224t-247 83h-61v-512q0 -62 19 -82.5t77 -20.5h2z" />
    <glyph glyph-name="trademark" unicode="&#x2122;" horiz-adv-x="2000" 
d="M782 1528l78 -293l-39 -12q-49 135 -92 179.5t-123 47.5v-526q0 -38 16.5 -53.5t69.5 -24.5v-37h-450v37q53 9 69.5 24.5t16.5 53.5v526q-77 -3 -121.5 -47t-93.5 -180l-39 12l78 293h2q83 -21 225 -21h176q142 0 225 21h2zM1817 932q3 -42 20 -59.5t66 -26.5v-37h-459
v37q59 9 78 24t16 52l-29 393l-235 -516h-27l-225 510l-35 -355q-6 -55 13 -77t79 -31v-37h-243v37q53 10 69 28.5t19 57.5l43 438q4 50 -12 70.5t-66 29.5v37h346l145 -329l152 329h319v-37q-50 -9 -63 -29.5t-8 -70.5z" />
    <glyph glyph-name="oneeighth" unicode="&#x215b;" horiz-adv-x="1714" 
d="M1411 1563l84 -70l-1313 -1548l-84 69zM158 1278q-20 0 -54 -6l-16 39q228 112 406 221h4v-731q0 -51 23 -71.5t91 -27.5v-40h-508v40q68 7 91.5 28t23.5 71v401q0 43 -12.5 59.5t-48.5 16.5zM1436 496q45 -23 77 -43.5t63 -49.5t46.5 -66t15.5 -81q0 -122 -97 -195
t-261 -73q-153 0 -246.5 58.5t-93.5 154.5q0 54 48 99.5t130 68.5q-72 42 -112.5 99.5t-40.5 145.5q0 110 87 177t228 67q146 0 236 -54t90 -142q0 -53 -45.5 -98t-124.5 -68zM1280 797q-44 0 -71 -23t-27 -59q0 -57 45 -97t129 -81q47 86 47 151q0 49 -33.5 79t-89.5 30z
M1280 51q56 0 90.5 24.5t34.5 65.5q0 31 -13 56t-42.5 46.5t-54 35t-70.5 34.5q-4 1 -15 7t-18 8q-43 -64 -43 -154q0 -55 36 -89t95 -34z" />
    <glyph glyph-name="threeeighths" unicode="&#x215c;" horiz-adv-x="1783" 
d="M1481 1563l84 -70l-1313 -1548l-84 69zM721 948q0 -133 -155.5 -205.5t-459.5 -93.5l-8 41q348 46 348 178q0 55 -47 83t-153 46l-2 4l209 281h-168q-79 0 -114.5 -16.5t-49.5 -69.5l-43 8l74 328h2q106 -25 460 -25h121l2 -4l-256 -311q107 -34 173.5 -102t66.5 -142z
M1505 496q46 -23 77.5 -43.5t62.5 -49.5t47 -66t16 -81q0 -122 -97 -195t-261 -73q-153 0 -246.5 58.5t-93.5 154.5q0 54 48 99.5t130 68.5q-72 42 -113 99.5t-41 145.5q0 110 87.5 177t228.5 67q146 0 235.5 -54t89.5 -142q0 -53 -45.5 -98t-124.5 -68zM1350 797
q-44 0 -71.5 -23t-27.5 -59q0 -57 45 -97t129 -81q48 88 48 151q0 49 -33.5 79t-89.5 30zM1350 51q56 0 90.5 24.5t34.5 65.5q0 25 -10.5 47t-24.5 37.5t-42 33t-47.5 27.5t-56.5 27q-4 2 -14.5 7.5t-17.5 7.5q-43 -64 -43 -154q0 -55 36 -89t95 -34z" />
    <glyph glyph-name="fiveeighths" unicode="&#x215d;" horiz-adv-x="1779" 
d="M1477 1563l84 -70l-1313 -1548l-84 69zM702 946q0 -132 -155 -204t-459 -93l-8 41q348 45 348 176q0 58 -79 88t-259 50v4l123 499h145q258 0 357 23h4l-60 -250h-419l-15 -47q249 -27 363 -94t114 -193zM1501 496q46 -23 77.5 -43.5t62.5 -49.5t47 -66t16 -81
q0 -122 -97 -195t-261 -73q-153 0 -246.5 58.5t-93.5 154.5q0 54 48 99.5t130 68.5q-72 42 -113 99.5t-41 145.5q0 110 87.5 177t228.5 67q146 0 235.5 -54t89.5 -142q0 -53 -45.5 -98t-124.5 -68zM1346 797q-44 0 -71.5 -23t-27.5 -59q0 -57 45 -97t129 -81q47 86 47 151
q0 50 -33.5 79.5t-88.5 29.5zM1346 51q56 0 90 24.5t34 65.5q0 31 -13 56t-42.5 46.5t-54 35t-70.5 34.5q-4 1 -15 7t-18 8q-43 -64 -43 -154q0 -55 36.5 -89t95.5 -34z" />
    <glyph glyph-name="seveneighths" unicode="&#x215e;" horiz-adv-x="1761" 
d="M1446 1563l84 -70l-1313 -1548l-84 69zM274 1280q-76 0 -111.5 -16t-51.5 -68l-43 8l73 328h2q106 -25 461 -25h209l2 -2q-247 -401 -305 -708q-15 -80 -54.5 -114t-109.5 -34q-60 0 -91.5 29.5t-31.5 83.5q0 55 69.5 156t152.5 191t171 171h-342zM1470 496
q46 -23 77.5 -43.5t62.5 -49.5t47 -66t16 -81q0 -122 -97 -195t-261 -73q-153 0 -246.5 58.5t-93.5 154.5q0 54 48 99.5t130 68.5q-72 42 -113 99.5t-41 145.5q0 110 87.5 177t228.5 67q146 0 235.5 -54t89.5 -142q0 -53 -45.5 -98t-124.5 -68zM1315 797q-44 0 -71 -23
t-27 -59q0 -57 45 -97t129 -81q47 86 47 151q0 49 -33.5 79t-89.5 30zM1315 51q56 0 90.5 24.5t34.5 65.5q0 31 -13 56t-42.5 46.5t-54 35t-70.5 34.5q-4 1 -15 7t-18 8q-43 -64 -43 -154q0 -55 36 -89t95 -34z" />
    <glyph glyph-name="partialdiff" unicode="&#x2202;" horiz-adv-x="1402" 
d="M289 1659q508 -126 769 -394.5t261 -666.5q0 -278 -175.5 -448t-461.5 -170t-461.5 147.5t-175.5 390.5q0 239 153 389t382 150q126 0 229 -64q-50 227 -176.5 364t-370.5 240zM682 82q74 0 120 120.5t46 315.5q0 187 -46 302.5t-120 115.5t-120 -115.5t-46 -302.5
q0 -196 46 -316t120 -120z" />
    <glyph glyph-name="emptyset" unicode="&#x2205;" horiz-adv-x="1464" 
d="M1382 1204l-168 -176q129 -175 129 -422q0 -289 -168 -467t-442 -178q-240 0 -403 141l-166 -174l-84 78l170 178q-129 175 -129 422q0 289 168.5 467t443.5 178q241 0 402 -139l170 176zM236 606q0 -201 94 -340l731 766q-129 117 -328 117q-224 0 -360.5 -148.5
t-136.5 -394.5zM1229 606q0 200 -92 340l-734 -766q132 -117 330 -117q224 0 360 148.5t136 394.5z" />
    <glyph glyph-name="product" unicode="&#x220f;" horiz-adv-x="1880" 
d="M1802 1442q-118 -12 -157 -48t-39 -132v-1426q0 -96 39 -132t157 -48v-66h-823v66q118 12 157.5 48t39.5 132v1569h-471v-1569q0 -96 39 -132t157 -48v-66h-823v66q118 12 157 48t39 132v1426q0 96 -39 132t-157 48v65h1724v-65z" />
    <glyph glyph-name="summation" unicode="&#x2211;" horiz-adv-x="1646" 
d="M1479 127l73 -12l-65 -535q-293 10 -854 10h-553l-2 7l653 868l-674 1038l2 4h480q551 0 798 11l133 -566l-69 -14q-43 145 -83.5 231.5t-98 141.5t-128 74.5t-178.5 19.5h-303l455 -696v-4l-588 -766h567q162 0 248 16t128.5 55.5t58.5 116.5z" />
    <glyph glyph-name="minus" unicode="&#x2212;" horiz-adv-x="970" 
d="M92 553v102h787v-102h-787z" />
    <glyph glyph-name="radical" unicode="&#x221a;" horiz-adv-x="1595" 
d="M1538 1659l102 -45l-964 -2044h-49l-434 907q-44 92 -87 120t-137 30v65h592l260 -569z" />
    <glyph glyph-name="infinity" unicode="&#x221e;" horiz-adv-x="1742" 
d="M1266 1118q172 0 276.5 -120.5t104.5 -317.5q0 -205 -122.5 -340t-318.5 -135q-123 0 -211.5 55.5t-163.5 155.5q-55 -98 -147.5 -154.5t-204.5 -56.5q-172 0 -276.5 120.5t-104.5 317.5q0 214 121.5 344.5t319.5 130.5q123 0 211 -55.5t163 -155.5q55 98 147.5 154.5
t205.5 56.5zM1337 500q94 0 150.5 54.5t56.5 145.5q0 137 -77 226.5t-201 89.5q-88 0 -164.5 -52.5t-124.5 -144.5q5 -7 14.5 -22.5t14.5 -22.5q36 -56 56 -85t55 -71.5t64 -63.5t70 -37.5t86 -16.5zM479 307q88 0 164.5 52.5t124.5 144.5q-5 7 -14.5 22.5t-14.5 22.5
q-36 56 -56 85t-55 71.5t-64 63.5t-70 37.5t-86 16.5q-94 0 -150.5 -54.5t-56.5 -145.5q0 -132 77.5 -224t200.5 -92z" />
    <glyph glyph-name="integral" unicode="&#x222b;" horiz-adv-x="921" 
d="M872 1489q0 -47 -18 -96h-481q0 -70 16 -144.5t37 -133.5t59.5 -133.5t66.5 -121.5t75 -121q52 -83 78.5 -128.5t60.5 -113.5t48.5 -125.5t14.5 -113.5q0 -109 -51.5 -232t-131.5 -223t-187 -166.5t-209 -66.5q-91 0 -146 46.5t-55 123.5q0 45 19 96h481q0 70 -16 144.5
t-37 133t-59.5 133t-66.5 121.5t-75 121q-42 67 -63 102t-53 94t-47.5 99.5t-27.5 91t-12 95.5q0 109 51.5 232t132 223t187.5 166.5t209 66.5q91 0 145.5 -46.5t54.5 -123.5z" />
    <glyph glyph-name="approxequal" unicode="&#x2248;" horiz-adv-x="970" 
d="M678 651q-99 0 -250 51q-154 52 -242 52q-80 0 -108 -99l-49 13q13 128 87 219.5t183 91.5q93 0 240 -51q144 -51 252 -51q80 0 108 98l49 -12q-14 -129 -87.5 -220.5t-182.5 -91.5zM678 242q-99 0 -250 51t-242 51q-80 0 -108 -98l-49 12q13 128 87 219.5t183 91.5
q93 0 240 -51q144 -51 252 -51q80 0 108 98l49 -12q-14 -129 -87.5 -220t-182.5 -91z" />
    <glyph glyph-name="notequal" unicode="&#x2260;" horiz-adv-x="970" 
d="M879 700h-277l-106 -192h383v-102h-439l-121 -222h-120l120 222h-227v102h283l106 192h-389v103h445l120 221h121l-121 -221h222v-103z" />
    <glyph glyph-name="lessequal" unicode="&#x2264;" horiz-adv-x="970" 
d="M872 582v-111l-780 229v86l780 230v-111l-555 -162zM92 330h787v-103h-787v103z" />
    <glyph glyph-name="greaterequal" unicode="&#x2265;" horiz-adv-x="970" 
d="M98 1016l781 -230v-86l-781 -229v111l555 161l-555 162v111zM92 227v103h787v-103h-787z" />
    <glyph glyph-name="lozenge" unicode="&#x25ca;" horiz-adv-x="1081" 
d="M508 0l-436 700l436 701h65l437 -701l-437 -700h-65zM541 147l344 553l-344 553l-344 -553z" />
    <glyph glyph-name="uniF8FF" unicode="&#xf8ff;" horiz-adv-x="2541" 
d="M117 -20q-15 0 -25 10.5t-10 25.5q0 21 10 31l701 698h-664q-47 0 -47 39q0 19 14 33l697 701h-670q-41 0 -41 38v3q0 38 41 38h758q47 0 47 -41q0 -17 -17 -34l-698 -697h676q17 0 29 -12t12 -29v-669l694 692q16 16 35 16q37 0 37 -45v-663l696 692q16 16 33 16
q15 0 25 -12t10 -27t-13 -28l-753 -762q-14 -14 -35 -14q-41 0 -41 47v663l-694 -696q-14 -14 -35 -14q-41 0 -41 47v663l-696 -696q-14 -14 -35 -14z" />
    <glyph glyph-name="uni00A40301" horiz-adv-x="892" 
d="M674 1710q-111 -52 -473 -100l-21 43q279 252 381 299q32 14 66 14q58 0 95.5 -39t37.5 -92q0 -39 -22.5 -72t-63.5 -53zM37 1507h823v-65q-118 -12 -157 -48t-39 -132v-773q0 -265 -166.5 -461.5t-438.5 -252.5l-22 65q118 79 157 176.5t39 311.5v934q0 96 -39 132
t-157 48v65z" />
    <glyph glyph-name="i.loclTRK" horiz-adv-x="720" 
d="M369 1208q-101 0 -168.5 64.5t-67.5 161.5t67.5 161t168.5 64t168 -64t67 -161t-67 -161.5t-168 -64.5zM573 184q0 -63 27 -87t109 -31v-66h-680v66q81 7 108 31t27 87v566q0 75 -27 105.5t-108 45.5v62q279 73 540 155h4v-934z" />
    <glyph glyph-name="uni006A0301" horiz-adv-x="671" 
d="M158 1174l-33 34q77 142 150.5 255t111.5 151q45 45 102 45q53 0 93.5 -39t40.5 -92q0 -63 -50 -107q-41 -38 -156 -107t-259 -140zM35 -430l-23 65q81 67 108 143t27 236v736q0 75 -27 105.5t-108 45.5v62q359 98 541 155h4v-942q0 -243 -143.5 -410t-378.5 -196z" />
    <glyph glyph-name="f_b" horiz-adv-x="2146" 
d="M1642 1118q201 0 325 -146t124 -384q0 -274 -142.5 -441t-377.5 -167q-157 0 -266 88q-204 -25 -379 -88h-4v1282q0 76 -27.5 103.5t-108.5 27.5h-362q-16 -49 -16 -105q0 -85 45.5 -137.5t119.5 -52.5h215l-28 -131h-187v-742q0 -85 35.5 -116.5t141.5 -42.5v-66h-721
v66q81 7 108 31t27 87v783h-135v61l147 88q17 66 55 141t93 146t118.5 128.5t137.5 92.5t143 35q86 0 140.5 -42.5t60.5 -113.5q246 91 403 156h4v-690q49 68 134 108.5t177 40.5zM1464 82q83 0 134 117.5t51 308.5q0 178 -54.5 287.5t-142.5 109.5q-72 0 -121 -39v-635
q37 -149 133 -149z" />
    <glyph glyph-name="f_h" horiz-adv-x="2146" 
d="M2005 184q0 -63 27 -87t108 -31v-66h-659v66q69 7 91.5 31t22.5 87v535q0 184 -155 184q-69 0 -109 -37v-682q0 -63 23 -87t92 -31v-66h-660v66q82 7 109 31t27 87v1078q0 76 -27.5 103.5t-108.5 27.5h-362q-16 -49 -16 -105q0 -85 45.5 -137.5t119.5 -52.5h215l-28 -131
h-187v-742q0 -85 35.5 -116.5t141.5 -42.5v-66h-721v66q81 7 108 31t27 87v783h-135v61l147 88q17 66 55 141t93 146t118.5 128.5t137.5 92.5t143 35q86 0 140.5 -42.5t60.5 -111.5q220 79 403 154h4v-690q70 67 176 108t209 41q130 0 209.5 -87t79.5 -230v-617z" />
    <glyph glyph-name="f_hbar" horiz-adv-x="2146" 
d="M2005 184q0 -63 27 -87t108 -31v-66h-659v66q69 7 91.5 31t22.5 87v535q0 184 -155 184q-69 0 -109 -37v-682q0 -63 23 -87t92 -31v-66h-660v66q82 7 109 31t27 87v1078q0 76 -27.5 103.5t-108.5 27.5h-362q-16 -49 -16 -105q0 -85 45.5 -137.5t119.5 -52.5h215l-28 -131
h-187v-742q0 -85 35.5 -116.5t141.5 -42.5v-66h-721v66q81 7 108 31t27 87v783h-135v61l147 88q17 66 55 141t93 146t118.5 128.5t137.5 92.5t143 35q86 0 140.5 -42.5t60.5 -111.5q220 79 403 154h4v-350h275l-17 -78h-258v-262q70 67 176 108t209 41q130 0 209.5 -87
t79.5 -230v-617z" />
    <glyph glyph-name="f_icircumflex" horiz-adv-x="1540" 
d="M651 1659q72 0 116 -46.5t44 -123.5q0 -47 -18 -96h-400q-18 -55 -18 -103q0 -86 55 -139t143 -53h195l-29 -131h-166v-742q0 -85 35.5 -116.5t141.5 -42.5v-66h-721v66q81 7 108 31t27 87v783h-135v61l145 86q15 67 48 142t81 146.5t103.5 129t120 92.5t124.5 35z
M1188 1384l-330 -210l-35 32l340 453h49l340 -453l-34 -32zM1393 184q0 -63 27 -87t108 -31v-66h-680v66q81 7 108 31t27 87v566q0 75 -27 105.5t-108 45.5v62q285 74 541 155h4v-934z" />
    <glyph glyph-name="f_idieresis" horiz-adv-x="1581" 
d="M651 1659q72 0 116 -46.5t44 -123.5q0 -47 -18 -96h-400q-18 -55 -18 -103q0 -86 55 -139t143 -53h195l-29 -131h-166v-742q0 -85 35.5 -116.5t141.5 -42.5v-66h-721v66q81 7 108 31t27 87v783h-135v61l145 86q15 67 48 142t81 146.5t103.5 129t120 92.5t124.5 35z
M1055 1272q-68 0 -113 46t-45 116t45 115.5t113 45.5t112.5 -45.5t44.5 -115.5t-44.5 -116t-112.5 -46zM1403 1272q-68 0 -113 46t-45 116t45 115.5t113 45.5t113 -45.5t45 -115.5t-45 -116t-113 -46zM1434 184q0 -63 27 -87t108 -31v-66h-680v66q81 7 108 31t27 87v566
q0 75 -27 105.5t-108 45.5v62q285 74 541 155h4v-934z" />
    <glyph glyph-name="f_igrave" horiz-adv-x="1540" 
d="M651 1659q72 0 116 -46.5t44 -123.5q0 -47 -18 -96h-400q-18 -55 -18 -103q0 -86 55 -139t143 -53h195l-29 -131h-166v-742q0 -85 35.5 -116.5t141.5 -42.5v-66h-721v66q81 7 108 31t27 87v783h-135v61l145 86q15 67 48 142t81 146.5t103.5 129t120 92.5t124.5 35z
M958 1421q-49 43 -49 107q0 53 40 92t93 39q58 0 103 -45q38 -38 111.5 -151t150.5 -255l-33 -34q-145 71 -260 140t-156 107zM1393 184q0 -63 27 -87t108 -31v-66h-680v66q81 7 108 31t27 87v566q0 75 -27 105.5t-108 45.5v62q285 74 541 155h4v-934z" />
    <glyph glyph-name="f_imacron" horiz-adv-x="1540" 
d="M739 967h-166v-742q0 -85 35.5 -116.5t141.5 -42.5v-66h-721v66q81 7 108 31t27 87v783h-135v61l147 88q18 63 56.5 134t93.5 137.5t118 120.5t136.5 87t142.5 33q89 0 143.5 -45t57.5 -119h592l-21 -102h-1071q-16 -44 -16 -94q0 -75 46 -122.5t119 -47.5h195zM1393 184
q0 -63 27 -87t108 -31v-66h-680v66q81 7 108 31t27 87v566q0 75 -27 105.5t-108 45.5v62q285 74 541 155h4v-934z" />
    <glyph glyph-name="f_iogonek" horiz-adv-x="1540" 
d="M651 1659q72 0 116 -46.5t44 -123.5q0 -47 -18 -96h-400q-18 -55 -18 -103q0 -86 55 -139t143 -53h195l-29 -131h-166v-742q0 -85 35.5 -116.5t141.5 -42.5v-66h-721v66q81 7 108 31t27 87v783h-135v61l145 86q15 67 48 142t81 146.5t103.5 129t120 92.5t124.5 35z
M1188 1208q-101 0 -168.5 64.5t-67.5 161.5t67.5 161t168.5 64t168 -64t67 -161t-67 -161.5t-168 -64.5zM1450 0q-85 -44 -137.5 -107.5t-52.5 -121.5q0 -31 20.5 -50.5t54.5 -19.5q57 0 115 45l20 -57q-45 -39 -131.5 -74t-183.5 -35q-91 0 -147 41t-56 107q0 158 344 272
h-448v66q81 7 108 31t27 87v566q0 75 -27 105.5t-108 45.5v62q285 74 541 155h4v-934q0 -63 27 -87t108 -31v-66h-78z" />
    <glyph glyph-name="f_j" horiz-adv-x="1507" 
d="M651 1659q72 0 116 -46.5t44 -123.5q0 -47 -18 -96h-400q-18 -55 -18 -103q0 -86 55 -139t143 -53h195l-29 -131h-166v-742q0 -85 35.5 -116.5t141.5 -42.5v-66h-721v66q81 7 108 31t27 87v783h-135v61l145 86q15 67 48 142t81 146.5t103.5 129t120 92.5t124.5 35z
M1188 1208q-101 0 -168.5 64.5t-67.5 161.5t67.5 161t168.5 64t168 -64t67 -161t-67 -161.5t-168 -64.5zM848 963q359 98 541 155h4v-942q0 -243 -144 -410t-379 -196l-22 65q81 67 108 143t27 236v736q0 75 -27 105.5t-108 45.5v62z" />
    <glyph glyph-name="f_k" horiz-adv-x="2177" 
d="M1331 184q0 -63 23 -87t92 -31v-66h-660v66q82 7 109 31t27 87v1078q0 76 -27.5 103.5t-108.5 27.5h-362q-16 -49 -16 -105q0 -85 45.5 -137.5t119.5 -52.5h215l-28 -131h-187v-742q0 -85 35.5 -116.5t141.5 -42.5v-66h-721v66q81 7 108 31t27 87v783h-135v61l147 88
q17 66 55 141t93 146t118.5 128.5t137.5 92.5t143 35q86 0 140.5 -42.5t60.5 -111.5q220 79 403 154h4v-1475zM1696 772l493 -706v-66h-448l-385 571l250 244q30 28 47 46.5t33 44t16 44.5q0 71 -199 82v66h619v-66q-92 -2 -157.5 -30t-152.5 -115z" />
    <glyph glyph-name="uni00660137" horiz-adv-x="2177" 
d="M1446 66v-66h-660v66q82 7 109 31t27 87v1078q0 76 -27.5 103.5t-108.5 27.5h-362q-16 -49 -16 -105q0 -85 45.5 -137.5t119.5 -52.5h215l-28 -131h-187v-742q0 -85 35.5 -116.5t141.5 -42.5v-66h-721v66q81 7 108 31t27 87v783h-135v61l147 88q17 66 55 141t93 146
t118.5 128.5t137.5 92.5t143 35q86 0 140.5 -42.5t60.5 -111.5q220 79 403 154h4v-1475q0 -63 23 -87t92 -31zM1696 772l493 -706v-66h-448l-385 571l250 244q30 28 47 46.5t33 44t16 44.5q0 71 -199 82v66h619v-66q-92 -2 -157.5 -30t-152.5 -115zM1552 -39
q80 0 129.5 -46.5t49.5 -121.5q0 -83 -80.5 -144.5t-212.5 -78.5l-15 57q113 22 113 76q0 59 -129 59q-16 32 -16 64q0 58 46 96.5t115 38.5z" />
    <glyph glyph-name="f_lacute" horiz-adv-x="1478" 
d="M1352 1841q-111 -52 -473 -100l-21 43q279 252 381 299q32 14 66 14q58 0 95.5 -39t37.5 -92q0 -39 -22.5 -72t-63.5 -53zM1331 184q0 -63 27 -87t108 -31v-66h-680v66q82 7 109 31t27 87v1078q0 76 -27.5 103.5t-108.5 27.5h-362q-16 -49 -16 -105q0 -85 45.5 -137.5
t119.5 -52.5h215l-28 -131h-187v-742q0 -85 35.5 -116.5t141.5 -42.5v-66h-721v66q81 7 108 31t27 87v783h-135v61l147 88q17 66 55 141t93 146t118.5 128.5t137.5 92.5t143 35q86 0 140.5 -42.5t60.5 -111.5q220 79 403 154h4v-1475z" />
    <glyph glyph-name="f_lcaron" horiz-adv-x="1511" 
d="M1331 184q0 -63 27 -87t108 -31v-66h-680v66q82 7 109 31t27 87v1078q0 76 -27.5 103.5t-108.5 27.5h-362q-16 -49 -16 -105q0 -85 45.5 -137.5t119.5 -52.5h215l-28 -131h-187v-742q0 -85 35.5 -116.5t141.5 -42.5v-66h-721v66q81 7 108 31t27 87v783h-135v61l147 88
q17 66 55 141t93 146t118.5 128.5t137.5 92.5t143 35q86 0 140.5 -42.5t60.5 -111.5q220 79 403 154h4v-1475zM1542 1659q76 0 123 -51.5t47 -134.5q0 -92 -70.5 -176t-185.5 -130l-26 66q51 22 81.5 53.5t30.5 63.5q0 34 -33.5 56.5t-87.5 25.5q-37 37 -37 94t45 95t113 38
z" />
    <glyph glyph-name="uni0066013C" horiz-adv-x="1478" 
d="M1331 184q0 -63 27 -87t108 -31v-66h-680v66q82 7 109 31t27 87v1078q0 76 -27.5 103.5t-108.5 27.5h-362q-16 -49 -16 -105q0 -85 45.5 -137.5t119.5 -52.5h215l-28 -131h-187v-742q0 -85 35.5 -116.5t141.5 -42.5v-66h-721v66q81 7 108 31t27 87v783h-135v61l147 88
q17 66 55 141t93 146t118.5 128.5t137.5 92.5t143 35q86 0 140.5 -42.5t60.5 -111.5q220 79 403 154h4v-1475zM1118 -39q79 0 128.5 -46.5t49.5 -121.5q0 -83 -80 -144.5t-212 -78.5l-15 57q113 22 113 76q0 59 -129 59q-17 34 -17 64q0 58 46.5 96.5t115.5 38.5z" />
    <glyph glyph-name="f_lslash" horiz-adv-x="1474" 
d="M1321 184q0 -63 27 -87t108 -31v-66h-680v66q81 7 108 31t27 87v492l-94 -51l-55 96l149 82v459q0 76 -27 103.5t-108 27.5h-362q-17 -52 -17 -105q0 -85 46 -137.5t120 -52.5h215l-28 -131h-187v-742q0 -85 35 -117t141 -42v-66h-721v66q82 7 109 31t27 87v783h-136v61
l148 88q17 66 55 141t93 146t118.5 128.5t137.5 92.5t143 35q86 0 140 -42t60 -112q228 81 404 154h4v-670l94 51l55 -96l-149 -82v-678z" />
    <glyph glyph-name="f_thorn" horiz-adv-x="2146" 
d="M1642 1118q201 0 325 -146t124 -384q0 -274 -142.5 -441t-377.5 -167q-137 0 -240 67v-231q0 -83 35.5 -115.5t140.5 -44.5v-66h-721v66q81 7 108.5 31.5t27.5 87.5v1487q0 76 -27.5 103.5t-108.5 27.5h-362q-16 -49 -16 -105q0 -85 45.5 -137.5t119.5 -52.5h215
l-28 -131h-187v-742q0 -85 35.5 -116.5t141.5 -42.5v-66h-721v66q81 7 108 31t27 87v783h-135v61l147 88q17 66 55 141t93 146t118.5 128.5t137.5 92.5t143 35q86 0 140.5 -42.5t60.5 -111.5q220 79 403 154h4v-690q49 68 134 108.5t177 40.5zM1464 82q83 0 134 117.5
t51 308.5q0 178 -54.5 287.5t-142.5 109.5q-72 0 -121 -39v-635q37 -149 133 -149z" />
    <glyph glyph-name="zero.osf" horiz-adv-x="1359" 
d="M680 -20q-280 0 -450.5 156.5t-170.5 412.5t170.5 412.5t450.5 156.5t450 -156t170 -413t-170 -413t-450 -156zM680 61q80 0 129 134.5t49 353.5t-49 353t-129 134t-129 -134t-49 -353t49 -353.5t129 -134.5z" />
    <glyph glyph-name="one.osf" horiz-adv-x="839" 
d="M625 225q0 -50 6 -76.5t28.5 -45.5t58.5 -26t103 -11v-66h-803v66q88 5 128 19t54.5 44t14.5 96v412q0 78 -19 110.5t-69 32.5q-41 0 -109 -18l-22 63q203 91 336 157.5t289 156.5h4v-914z" />
    <glyph glyph-name="two.osf" horiz-adv-x="1314" 
d="M1176 463l65 -10l-57 -463q-253 10 -731 10h-471l-2 6q99 91 251 199q74 53 120.5 88t104.5 86t90.5 92.5t55.5 92.5t23 100q0 72 -50.5 115.5t-132.5 43.5q-94 0 -176 -53t-135 -127l-47 25q78 191 248.5 320.5t355.5 129.5q169 0 275 -92.5t106 -232.5
q0 -54 -18 -103.5t-55.5 -93t-79.5 -80.5t-105 -75t-117 -66.5t-129 -65.5h238q139 0 212 13.5t109.5 45.5t51.5 95zM86 37l-2 -2z" />
    <glyph glyph-name="three.osf" horiz-adv-x="1228" 
d="M688 510q201 -30 330 -136t129 -257q0 -219 -272.5 -368t-753.5 -179l-8 59q271 30 434.5 139t163.5 271q0 120 -90 194t-236 74q-57 0 -100 -6l-15 74q150 75 239 174t89 199q0 77 -51 124.5t-137 47.5q-79 0 -163.5 -42.5t-142.5 -109.5l-41 33q95 142 253 229.5
t327 87.5q167 0 269 -74.5t102 -197.5q0 -93 -88 -183t-238 -153z" />
    <glyph glyph-name="four.osf" horiz-adv-x="1441" 
d="M1423 96l-20 -96h-309v-387l-406 -43h-4v430h-672l-2 6l848 1092h236v-1012q186 0 325 10h4zM190 86h494v641z" />
    <glyph glyph-name="five.osf" horiz-adv-x="1353" 
d="M340 594q441 -40 646.5 -155.5t205.5 -334.5q0 -237 -268.5 -370t-780.5 -164l-8 59q201 23 346 68t230.5 118.5t85.5 168.5q0 122 -154.5 185.5t-495.5 98.5l-2 6l209 824h232q279 0 409.5 8t229.5 33h4l-88 -361h-750z" />
    <glyph glyph-name="six.osf" horiz-adv-x="1353" 
d="M786 895q142 0 257 -56t182 -159.5t67 -235.5q0 -209 -167 -336.5t-441 -127.5q-273 0 -440.5 166t-167.5 436q0 223 140.5 434.5t399 379t596.5 263.5l21 -49q-247 -119 -425 -319t-249 -435q100 39 227 39zM684 61q74 0 120 111.5t46 292.5q0 147 -46 238.5t-120 91.5
q-84 0 -149 -43q-17 -97 -17 -170q0 -233 46 -377t120 -144z" />
    <glyph glyph-name="seven.osf" horiz-adv-x="1394" 
d="M1352 1098l2 -4q-245 -383 -387 -700t-195 -613q-19 -106 -76.5 -158.5t-158.5 -52.5q-89 0 -133 43.5t-44 122.5q0 83 69 219t178.5 285.5t223 285.5t222.5 252h-576q-148 0 -209.5 -34t-101.5 -138l-64 15l123 518h4q96 -23 252.5 -32t493.5 -9h377z" />
    <glyph glyph-name="eight.osf" horiz-adv-x="1339" 
d="M895 870q64 -33 111 -61t97 -68.5t81.5 -82.5t52 -98t20.5 -120q0 -210 -162.5 -335t-437.5 -125q-260 0 -417.5 104t-157.5 276q0 102 88 189t236 131q-61 36 -107 75.5t-85 91.5t-60 119t-21 146q0 188 144 302t380 114q242 0 389.5 -95.5t147.5 -252.5
q0 -101 -81.5 -184.5t-217.5 -125.5zM657 1446q-92 0 -148 -50t-56 -132q0 -47 18.5 -89.5t46 -74.5t73.5 -65t87.5 -56t101.5 -53q119 158 119 295q0 101 -66.5 163t-175.5 62zM657 61q117 0 187.5 56.5t70.5 150.5q0 38 -11 71.5t-36.5 63t-50 51.5t-69 47.5t-74 40.5
t-84.5 42q-33 15 -80 39q-121 -133 -121 -304q0 -116 73.5 -187t194.5 -71z" />
    <glyph glyph-name="nine.osf" horiz-adv-x="1353" 
d="M664 1118q276 0 445 -166t169 -436q0 -196 -111.5 -381t-315.5 -332.5t-472 -232.5l-21 49q162 104 278.5 274.5t166.5 372.5q-105 -43 -236 -43q-217 0 -361.5 123t-144.5 318q0 204 166.5 329t436.5 125zM670 324q87 0 153 47q13 83 13 155q0 228 -47.5 369t-124.5 141
q-71 0 -115.5 -108.5t-44.5 -284.5q0 -142 46 -230.5t120 -88.5z" />
    <glyph glyph-name="zero.dnom" horiz-adv-x="894" 
d="M449 -12q-172 0 -277.5 120t-105.5 316q0 195 105.5 314.5t277.5 119.5q170 0 275 -119.5t105 -314.5q0 -196 -105 -316t-275 -120zM449 51q34 0 54.5 102t20.5 271q0 167 -20.5 270t-54.5 103q-35 0 -56.5 -102.5t-21.5 -270.5q0 -169 21.5 -271t56.5 -102z" />
    <glyph glyph-name="one.dnom" horiz-adv-x="608" 
d="M451 139q0 -51 22.5 -71t91.5 -27v-41h-508v41q68 7 91.5 27.5t23.5 70.5v402q0 42 -12.5 58.5t-48.5 16.5q-19 0 -54 -6l-16 39q223 109 405 221h5v-731z" />
    <glyph glyph-name="two.dnom" horiz-adv-x="839" 
d="M739 313l45 -8l-36 -311q-159 6 -500 6h-225l-3 4q62 70 152 150q57 50 91 83.5t72.5 80t56.5 92t18 92.5q0 64 -35 102.5t-92 38.5q-108 0 -179 -98l-36 20q61 133 167 213t216 80q114 0 184 -60t70 -153q0 -61 -27.5 -119.5t-79 -112t-104.5 -95t-125 -89.5h120
q138 0 189 16.5t61 67.5z" />
    <glyph glyph-name="three.dnom" horiz-adv-x="755" 
d="M453 530q107 -34 173 -101.5t66 -141.5q0 -133 -155 -205.5t-459 -93.5l-8 41q348 46 348 178q0 55 -47 83t-154 46l-2 4l209 281h-168q-79 0 -114.5 -16.5t-49.5 -69.5l-43 8l74 327h2q101 -24 461 -24h121l2 -4z" />
    <glyph glyph-name="four.dnom" horiz-adv-x="860" 
d="M817 203h-166v-60q0 -53 21 -74t84 -28v-41h-512v41q76 9 102.5 34.5t26.5 90.5v37h-355l-2 4l445 639h190v-574q73 0 180 7h3zM141 272h232v338z" />
    <glyph glyph-name="five.dnom" horiz-adv-x="741" 
d="M197 571q249 -27 363 -93.5t114 -192.5q0 -132 -155.5 -204t-459.5 -93l-8 41q348 45 348 176q0 58 -79 87.5t-259 49.5v4l123 500h146q261 0 356 22h4l-59 -250h-420z" />
    <glyph glyph-name="six.dnom" horiz-adv-x="825" 
d="M483 506q128 0 214.5 -71t86.5 -185q0 -117 -100 -189.5t-262 -72.5q-164 0 -264.5 93.5t-100.5 244.5q0 165 163 312.5t427 219.5l15 -35q-95 -50 -166 -136.5t-105 -190.5q42 10 92 10zM422 51q26 0 41.5 59t15.5 152q0 75 -17 122.5t-46 47.5q-25 0 -43 -6
q-11 -61 -11 -100q0 -125 16.5 -200t43.5 -75z" />
    <glyph glyph-name="seven.dnom" horiz-adv-x="794" 
d="M776 846l2 -2q-247 -401 -305 -709q-15 -79 -54.5 -113t-109.5 -34q-61 0 -92 29.5t-31 82.5q0 55 70 156.5t153 190.5t171 171h-342q-77 0 -112.5 -15.5t-51.5 -67.5l-43 8l73 327h2q101 -24 461 -24h209z" />
    <glyph glyph-name="eight.dnom" horiz-adv-x="825" 
d="M559 496q46 -23 77.5 -43.5t62.5 -49.5t47 -66t16 -81q0 -122 -97.5 -195t-261.5 -73q-153 0 -246.5 58.5t-93.5 154.5q0 54 48.5 99.5t130.5 68.5q-72 42 -113 99.5t-41 145.5q0 110 87 177t228 67q146 0 236 -54t90 -142q0 -53 -45.5 -98t-124.5 -68zM403 797
q-44 0 -71 -23t-27 -59q0 -57 45 -97t129 -81q47 86 47 151q0 49 -33.5 79t-89.5 30zM403 51q56 0 90.5 24.5t34.5 65.5q0 31 -13 56t-42.5 46.5t-54 35t-70.5 34.5q-4 1 -15 7t-18 8q-43 -64 -43 -154q0 -55 36 -89t95 -34z" />
    <glyph glyph-name="nine.dnom" horiz-adv-x="825" 
d="M397 858q165 0 266 -93t101 -245q0 -167 -146.5 -312.5t-386.5 -219.5l-14 35q79 54 137 143t84 196q-45 -10 -100 -10q-128 0 -214.5 70t-86.5 182q0 114 99.5 184t260.5 70zM406 426q28 0 47 8q6 46 6 94q0 120 -17 194.5t-45 74.5q-25 0 -40 -58t-15 -149
q0 -72 17.5 -118t46.5 -46z" />
    <glyph glyph-name="zero.numr" horiz-adv-x="894" 
d="M449 649q-172 0 -277.5 120t-105.5 316q0 195 105.5 315t277.5 120q170 0 275 -120t105 -315q0 -196 -105 -316t-275 -120zM449 713q34 0 54.5 102t20.5 270q0 167 -20.5 270t-54.5 103q-35 0 -56.5 -102.5t-21.5 -270.5q0 -169 21.5 -270.5t56.5 -101.5z" />
    <glyph glyph-name="one.numr" horiz-adv-x="608" 
d="M451 801q0 -51 23 -71.5t91 -27.5v-40h-508v40q68 7 91.5 28t23.5 71v401q0 43 -12.5 59.5t-48.5 16.5q-19 0 -54 -6l-16 39q223 109 405 221h5v-731z" />
    <glyph glyph-name="two.numr" horiz-adv-x="839" 
d="M739 975l45 -8l-36 -312q-186 7 -500 7h-225l-3 4q58 65 152 149q57 50 91 83.5t72.5 80t56.5 92t18 92.5q0 64 -35 103t-92 39q-107 0 -179 -99l-36 21q61 133 167 213t216 80q114 0 184 -60t70 -153q0 -61 -27.5 -119.5t-79 -112t-104.5 -95t-125 -89.5h120
q138 0 189 16.5t61 67.5z" />
    <glyph glyph-name="three.numr" horiz-adv-x="755" 
d="M453 1192q107 -34 173 -102t66 -142q0 -133 -155 -205.5t-459 -93.5l-8 41q348 46 348 178q0 55 -47 83t-154 46l-2 4l209 281h-168q-79 0 -114.5 -16.5t-49.5 -69.5l-43 8l74 328h2q106 -25 461 -25h121l2 -4z" />
    <glyph glyph-name="four.numr" horiz-adv-x="860" 
d="M817 864h-166v-59q0 -53 21.5 -74.5t83.5 -28.5v-40h-512v40q76 9 102.5 34.5t26.5 90.5v37h-355l-2 4l445 639h190v-573q89 0 180 6h3zM141 934h232v338z" />
    <glyph glyph-name="five.numr" horiz-adv-x="741" 
d="M195 1233q249 -27 363 -94t114 -193q0 -132 -155.5 -204t-459.5 -93l-8 41q348 45 348 176q0 58 -79 88t-259 50v4l123 499h146q257 0 356 23h4l-59 -250h-420z" />
    <glyph glyph-name="six.numr" horiz-adv-x="825" 
d="M483 1167q128 0 214.5 -71t86.5 -185q0 -117 -100 -189.5t-262 -72.5q-164 0 -264.5 93.5t-100.5 244.5q0 165 163 313t427 220l15 -35q-95 -50 -166 -137t-105 -191q42 10 92 10zM422 713q26 0 41.5 59t15.5 152q0 75 -17 122.5t-46 47.5q-22 0 -43 -7q-11 -61 -11 -100
q0 -125 16.5 -199.5t43.5 -74.5z" />
    <glyph glyph-name="seven.numr" horiz-adv-x="794" 
d="M778 1507l2 -2q-247 -401 -305 -708q-15 -80 -54.5 -114t-109.5 -34q-60 0 -91.5 29.5t-31.5 83.5q0 55 70 156.5t153 190.5t171 171h-342q-77 0 -112.5 -16t-51.5 -68l-43 8l73 328h3q106 -25 460 -25h209z" />
    <glyph glyph-name="eight.numr" horiz-adv-x="825" 
d="M559 1157q46 -23 77.5 -43.5t62.5 -49t47 -65.5t16 -81q0 -122 -97.5 -195.5t-261.5 -73.5q-153 0 -246.5 58.5t-93.5 154.5q0 54 48.5 99.5t130.5 68.5q-72 42 -113 100t-41 146q0 110 87 177t228 67q146 0 236 -54.5t90 -142.5q0 -53 -45.5 -98t-124.5 -68zM403 1458
q-44 0 -71 -23t-27 -59q0 -57 45 -97t129 -81q47 86 47 152q0 49 -33.5 78.5t-89.5 29.5zM403 713q56 0 90.5 24.5t34.5 65.5q0 31 -13 56t-42.5 46.5t-54 35t-70.5 34.5q-3 1 -14.5 6.5t-18.5 7.5q-43 -64 -43 -153q0 -55 36 -89t95 -34z" />
    <glyph glyph-name="nine.numr" horiz-adv-x="825" 
d="M397 1520q165 0 266 -93t101 -245q0 -167 -146.5 -313t-386.5 -220l-14 35q79 53 136.5 143t84.5 197q-45 -10 -100 -10q-128 0 -214.5 70t-86.5 182q0 114 99.5 184t260.5 70zM406 1087q26 0 47 9q6 46 6 94q0 120 -17 194t-45 74q-25 0 -40 -58t-15 -149
q0 -72 17.5 -118t46.5 -46z" />
    <glyph glyph-name="exclamdown.case" horiz-adv-x="741" 
d="M371 1057q-106 0 -176 67t-70 168t70 168.5t176 67.5t175.5 -67.5t69.5 -168.5t-69.5 -168t-175.5 -67zM371 -20q-106 0 -166 62.5t-60 168.5q0 55 17 132t35 132.5t51 151.5q80 236 90 331h65q5 -44 21 -106t28.5 -101.5t41.5 -123.5q32 -93 50.5 -151t35 -134
t16.5 -131q0 -106 -59.5 -168.5t-165.5 -62.5z" />
    <glyph glyph-name="questiondown.case" horiz-adv-x="935" 
d="M530 1057q-106 0 -175.5 67t-69.5 168t69.5 168.5t175.5 67.5t176 -67.5t70 -168.5t-70 -168t-176 -67zM793 246q18 -49 18 -96q0 -77 -55 -123.5t-146 -46.5q-76 0 -156 32.5t-147 88.5t-120.5 125t-84 147.5t-30.5 150.5q0 126 120 209t322 98q9 66 12 127h66
q57 -226 137 -458l-4 -4q-221 0 -356.5 -44t-135.5 -116q0 -42 58 -90h502z" />
    <glyph glyph-name="parenleft.case" horiz-adv-x="757" 
d="M727 -266q-301 184 -471 443t-170 577t170 577t471 443l41 -41q-157 -161 -245.5 -409.5t-88.5 -569.5t88.5 -569.5t245.5 -409.5z" />
    <glyph glyph-name="parenright.case" horiz-adv-x="757" 
d="M31 -266l-41 41q157 161 245.5 409.5t88.5 569.5t-88.5 569.5t-245.5 409.5l41 41q301 -184 471 -443t170 -577t-170 -577t-471 -443z" />
    <glyph glyph-name="braceleft.case" horiz-adv-x="778" 
d="M512 74q0 -78 55 -140.5t201 -146.5l-27 -53q-225 75 -353 142t-176 128t-48 137q0 64 55 193q62 144 62 213q0 82 -40 128t-143 46h-12v65h12q102 0 142.5 47t40.5 128q0 69 -62 213q-55 129 -55 192q0 76 48 137.5t176 128.5t353 142l27 -54q-146 -85 -201 -146.5
t-55 -139.5q0 -59 53 -183q64 -147 64 -223q0 -110 -74.5 -180.5t-255.5 -93.5q181 -23 255.5 -94t74.5 -181q0 -76 -64 -223q-53 -124 -53 -182z" />
    <glyph glyph-name="braceright.case" horiz-adv-x="778" 
d="M680 786h12v-65h-12q-103 0 -142.5 -46t-39.5 -128q0 -71 61 -213q55 -129 55 -193q0 -76 -48 -137t-176 -128t-353 -142l-27 53q146 84 201 146.5t55 140.5q0 58 -53 182q-63 145 -63 223q0 110 74 181t255 94q-181 23 -255 93.5t-74 180.5q0 78 63 223q53 124 53 183
q0 78 -55 139.5t-201 146.5l27 54q225 -75 353 -142t176 -128.5t48 -137.5q0 -63 -55 -192q-61 -142 -61 -213q0 -82 40 -128.5t142 -46.5z" />
    <glyph glyph-name="bracketleft.case" horiz-adv-x="921" 
d="M872 1688q-155 -17 -206.5 -65.5t-51.5 -176.5v-1385q0 -128 51.5 -176t206.5 -65v-66h-626v1999h626v-65z" />
    <glyph glyph-name="bracketright.case" horiz-adv-x="921" 
d="M676 1753v-1999h-627v66q155 17 206.5 65t51.5 176v1385q0 128 -51.5 176.5t-206.5 65.5v65h627z" />
    <glyph glyph-name="hyphen.case" horiz-adv-x="878" 
d="M66 700l28 131h719l-29 -131h-718z" />
    <glyph glyph-name="uni00AD.case" horiz-adv-x="878" 
d="M66 700l28 131h719l-29 -131h-718z" />
    <glyph glyph-name="endash.case" horiz-adv-x="1288" 
d="M66 700l28 131h1129l-29 -131h-1128z" />
    <glyph glyph-name="emdash.case" horiz-adv-x="1697" 
d="M66 700l28 131h1538l-28 -131h-1538z" />
    <glyph glyph-name="guillemotleft.case" horiz-adv-x="888" 
d="M489 1210l-180 -444l180 -444l-45 -27l-372 446v50l372 446zM817 1210l-180 -444l180 -444l-45 -27l-373 446v50l373 446z" />
    <glyph glyph-name="guillemotright.case" horiz-adv-x="888" 
d="M489 791v-50l-372 -446l-45 27l180 444l-180 444l45 27zM444 1237l373 -446v-50l-373 -446l-45 27l181 444l-181 444z" />
    <glyph glyph-name="guilsinglleft.case" horiz-adv-x="561" 
d="M489 1210l-180 -444l180 -444l-45 -27l-372 446v50l372 446z" />
    <glyph glyph-name="guilsinglright.case" horiz-adv-x="561" 
d="M117 1237l372 -446v-50l-372 -446l-45 27l180 444l-180 444z" />
    <glyph glyph-name="uni20BF.osf" horiz-adv-x="1423" 
d="M1352 338q0 -96 -69 -174t-178.5 -120t-234.5 -44v-205h-108v205h-168v-205h-109v205h-436v66q81 7 108 31t27 87v832q0 63 -27 87.5t-108 31.5v65h436v172h109v-172h143h25v172h108v-180q176 -22 277.5 -98t101.5 -189q0 -96 -67 -166.5t-189 -107.5q167 -28 263 -105.5
t96 -187.5zM815 885q0 101 -56.5 159t-164.5 58v-434q108 0 164.5 58t56.5 159zM692 98q89 0 157.5 68.5t68.5 171.5q0 108 -69 171.5t-194 63.5h-61v-372q0 -62 19 -82.5t77 -20.5h2z" />
    <glyph glyph-name="cent.osf" horiz-adv-x="1212" 
d="M1153 313q-47 -119 -147.5 -202.5t-229.5 -114.5v-221h-108v205h-29q-261 0 -420.5 156.5t-159.5 412.5q0 254 167 410t442 159v205h108v-211q167 -23 265 -118.5t98 -237.5q0 -85 -59 -137t-154 -52q-89 0 -150 35v-373q40 -4 64 -4q78 0 153.5 30.5t116.5 84.5z
M469 641q0 -132 53 -230.5t146 -146.5v764q-91 -26 -145 -129.5t-54 -257.5z" />
    <glyph glyph-name="dollar.osf" horiz-adv-x="1189" 
d="M1124 352q0 -161 -134.5 -262.5t-356.5 -109.5v-185h-109v191q-55 9 -142.5 39t-121.5 30q-27 0 -42 -13t-30 -52h-34l-88 416l61 14q73 -139 179.5 -233t217.5 -117v368q-54 25 -87 41t-83.5 44t-81.5 50.5t-68 56.5t-57.5 67t-34.5 76t-14 89q0 160 122 259t321 100
v172h108v-181q55 -9 145 -34t117 -25q22 0 35 12t23 45h35l73 -407l-59 -12q-43 129 -145 219.5t-224 117.5v-348l35 -16q57 -26 90.5 -42.5t86 -45t84.5 -51t70 -55t59 -64t35.5 -71.5t14.5 -83zM377 1010q0 -49 42 -90.5t122 -85.5v305q-74 -6 -119 -41.5t-45 -87.5z
M633 63q178 12 178 144q0 52 -46 94.5t-132 85.5v-324z" />
    <glyph glyph-name="Euro.osf" horiz-adv-x="1445" 
d="M1196 410h66v-420h-35q-22 36 -37 47.5t-39 11.5q-26 0 -71.5 -17t-108 -34.5t-129.5 -17.5q-251 0 -421.5 124.5t-217.5 339.5h-172l18 97h139q-2 18 -2 59q0 28 4 78h-159l18 96h158q53 207 222 327t413 120q66 0 124.5 -16t100.5 -32t68 -16q19 0 33.5 10.5t37.5 40.5
h35v-397h-65q-3 136 -71.5 218.5t-180.5 82.5q-104 0 -178.5 -90.5t-102.5 -247.5h363l-19 -96h-356q-2 -25 -2 -78q0 -41 2 -59h332l-19 -97h-305q26 -165 102 -260.5t183 -95.5q121 0 195 88.5t77 233.5z" />
    <glyph glyph-name="sterling.osf" horiz-adv-x="1347" 
d="M1237 463l66 -10l-58 -463q-293 10 -854 10h-368l-3 6q140 156 195 265t55 202q0 24 -4 64h-223l18 96h185q-2 2 -2 4q-31 114 -31 205q0 170 156 274.5t411 104.5q226 0 364 -83t138 -218q0 -85 -59 -137t-154 -52q-57 0 -104.5 15t-69.5 40v344q-40 9 -88 9
q-127 0 -179.5 -27.5t-52.5 -81.5q0 -45 50 -162q63 -152 69 -235h393l-18 -96h-381q-23 -74 -98.5 -129t-206.5 -99h481q139 0 212 13.5t109.5 45.5t51.5 95z" />
    <glyph glyph-name="yen.osf" horiz-adv-x="1468" 
d="M926 1200h491v-65q-91 -11 -139 -56t-121 -174l-196 -346h256l-19 -96h-258v-137h277l-19 -97h-258v-4q0 -86 34 -117.5t142 -41.5v-66h-772v66q108 10 142 41.5t34 117.5v4h-256l19 97h237v137h-256l19 96h206l-235 426q-49 89 -88 119t-115 31v65h797v-65
q-79 -8 -115.5 -30t-36.5 -63q0 -52 62 -161l137 -246l61 106q117 206 117 289q0 50 -36 74.5t-111 30.5v65z" />
    <glyph glyph-name="percent.osf" horiz-adv-x="1900" 
d="M541 -55l-84 69l903 1139l84 -70zM494 483q-148 0 -238 87.5t-90 230.5t90 230t238 87t237.5 -87t89.5 -230t-90 -230.5t-237 -87.5zM494 545q29 0 47 70.5t18 185.5t-18 185.5t-47 70.5t-47.5 -70.5t-18.5 -185.5t18.5 -185.5t47.5 -70.5zM1407 -20q-148 0 -238 87
t-90 230t90 230t238 87t238 -87t90 -230t-90 -230t-238 -87zM1407 41q29 0 47.5 70.5t18.5 185.5t-18.5 185.5t-47.5 70.5t-47.5 -70.5t-18.5 -185.5t18.5 -185.5t47.5 -70.5z" />
    <glyph glyph-name="perthousand.osf" horiz-adv-x="2658" 
d="M541 -55l-84 69l903 1139l84 -70zM494 483q-148 0 -238 87.5t-90 230.5t90 230t238 87t237.5 -87t89.5 -230t-90 -230.5t-237 -87.5zM494 545q29 0 47 70.5t18 185.5t-18 185.5t-47 70.5t-47.5 -70.5t-18.5 -185.5t18.5 -185.5t47.5 -70.5zM1407 -20q-148 0 -238 87
t-90 230t90 230t238 87t238 -87t90 -230t-90 -230t-238 -87zM2165 -20q-148 0 -238 87t-90 230t90 230t238 87t237.5 -87t89.5 -230t-89.5 -230t-237.5 -87zM1407 41q29 0 47.5 70.5t18.5 185.5t-18.5 185.5t-47.5 70.5t-47.5 -70.5t-18.5 -185.5t18.5 -185.5t47.5 -70.5z
M2165 41q29 0 47 70.5t18 185.5t-18 185.5t-47 70.5t-47.5 -70.5t-18.5 -185.5t18.5 -185.5t47.5 -70.5z" />
    <glyph glyph-name="at.case" horiz-adv-x="1988" 
d="M948 -115q212 0 419.5 52.5t352.5 140.5l35 -51q-153 -114 -372.5 -183t-434.5 -69q-416 0 -652.5 233t-236.5 662q0 221 79 417t216.5 338.5t334.5 225t423 82.5q231 0 417 -102t293 -291t107 -431q0 -295 -149.5 -476t-393.5 -181q-99 0 -180 38.5t-116 104.5
q-68 -68 -157.5 -105.5t-187.5 -37.5q-114 0 -182.5 53t-68.5 141q0 71 54 132.5t169 103.5l350 131v213q0 72 -39.5 116t-103.5 44q-9 0 -33 -4v-361q-39 -26 -91.5 -41.5t-94.5 -15.5q-72 0 -114 33.5t-42 95.5q0 107 82 196t210.5 138t270.5 49t228.5 -78.5t86.5 -206.5
v-424q0 -56 16.5 -80t74.5 -24q118 0 199 121.5t81 314.5q0 160 -53 295.5t-144.5 229t-218 146t-270.5 52.5q-197 0 -368.5 -74.5t-291.5 -202.5t-188.5 -303t-68.5 -372q0 -380 198.5 -582.5t554.5 -202.5zM965 442q53 0 102 37v8v240l-8 -4q-81 -35 -134 -87.5
t-53 -103.5q0 -41 25.5 -65.5t67.5 -24.5z" />
    <glyph glyph-name="uni0308.case" 
d="M-768 1618q-77 0 -127.5 49.5t-50.5 124.5t50.5 124.5t127.5 49.5t127.5 -49.5t50.5 -124.5t-50.5 -124.5t-127.5 -49.5zM-358 1618q-77 0 -128 49.5t-51 124.5t51 124.5t128 49.5t127.5 -49.5t50.5 -124.5t-50.5 -124.5t-127.5 -49.5z" />
    <glyph glyph-name="uni0307.case" 
d="M-358 1577q-101 0 -168.5 64t-67.5 161t67.5 161.5t168.5 64.5t168 -64.5t67 -161.5t-67 -161t-168 -64z" />
    <glyph glyph-name="gravecomb.case" 
d="M-168 1610q-362 48 -473 100q-41 20 -63.5 53t-22.5 72q0 53 37.5 92t95.5 39q34 0 66 -14q102 -47 381 -299z" />
    <glyph glyph-name="acutecomb.case" 
d="M-707 1610l-20 43q279 252 381 299q32 14 65 14q58 0 96 -39t38 -92q0 -39 -22.5 -72t-63.5 -53q-50 -23 -180 -50.5t-294 -49.5z" />
    <glyph glyph-name="uni030B.case" 
d="M-1063 1577l-27 41q240 297 328 354q44 27 84 27q57 0 96 -38.5t39 -94.5q0 -35 -18 -66.5t-49 -50.5q-49 -31 -174 -78.5t-279 -93.5zM-612 1577l-27 41q240 297 328 354q43 27 84 27q57 0 96 -38.5t39 -94.5q0 -35 -18.5 -66.5t-49.5 -50.5q-50 -31 -174 -79t-278 -93z
" />
    <glyph glyph-name="uni0302.case" 
d="M-197 1655l-26 -45l-342 123l-342 -123l-27 45l344 311h49z" />
    <glyph glyph-name="uni030C.case" 
d="M-223 1966l26 -45l-344 -311h-49l-344 311l27 45l342 -123z" />
    <glyph glyph-name="uni0306.case" 
d="M-553 1583q-109 0 -207.5 89.5t-177.5 254.5l41 35q146 -156 344 -156t344 156l41 -35q-79 -165 -177.5 -254.5t-207.5 -89.5z" />
    <glyph glyph-name="uni030A.case" 
d="M-553 1577q-109 0 -175.5 62t-66.5 163t66.5 163.5t175.5 62.5t175.5 -62.5t66.5 -163.5t-66.5 -163t-175.5 -62zM-553 1659q66 0 106.5 39.5t40.5 103.5q0 65 -40.5 104.5t-106.5 39.5t-106.5 -39.5t-40.5 -104.5q0 -64 40.5 -103.5t106.5 -39.5z" />
    <glyph glyph-name="tildecomb.case" 
d="M-440 1638q-89 0 -232 52q-140 51 -227 51q-81 0 -109 -99l-49 13q12 124 91 217.5t180 93.5q85 0 225 -51q144 -51 233 -51q81 0 109 98l49 -12q-14 -129 -87.5 -220.5t-182.5 -91.5z" />
    <glyph glyph-name="uni0304.case" 
d="M-934 1710l21 102h759l-20 -102h-760z" />
    <glyph glyph-name="uni0304.narrow.case" 
d="M-872 1710l20 102h637l-21 -102h-636z" />
    <glyph glyph-name="uni0308.narrow" 
d="M-737 1272q-68 0 -113 46t-45 116t45 115.5t113 45.5t112.5 -45.5t44.5 -115.5t-44.5 -116t-112.5 -46zM-389 1272q-68 0 -113 46t-45 116t45 115.5t113 45.5t113 -45.5t45 -115.5t-45 -116t-113 -46z" />
    <glyph glyph-name="uni0304.narrow" 
d="M-872 1362l20 102h637l-21 -102h-636z" />
    </font>
</defs>
</svg>
