<?xml version="1.0" standalone="no"?>
<!DOCTYPE svg PUBLIC "-//W3C//DTD SVG 1.1//EN" "http://www.w3.org/Graphics/SVG/1.1/DTD/svg11.dtd" >
<svg xmlns="http://www.w3.org/2000/svg" xmlns:xlink="http://www.w3.org/1999/xlink" version="1.1">
<metadata>
Created by FontForge 20170731 at Fri Mar 31 05:53:54 2023
 By Aleksey,,,
Copyright (c) 2019 by Alberto Romanos. All rights reserved.
</metadata>
<defs>
<font id="BwBeto-Bold" horiz-adv-x="0" >
  <font-face 
    font-family="Bw Beto Bold"
    font-weight="700"
    font-stretch="normal"
    units-per-em="2048"
    panose-1="0 0 8 0 0 0 0 0 0 0"
    ascent="1638"
    descent="-410"
    x-height="1094"
    cap-height="1503"
    bbox="-1051 -475 2750 2060"
    underline-thickness="102"
    underline-position="-307"
    unicode-range="U+000D-FB02"
  />
<missing-glyph horiz-adv-x="2541" 
d="M117 -20q-15 0 -25 10.5t-10 25.5q0 21 10 31l701 698h-664q-47 0 -47 39q0 19 14 33l697 701h-670q-41 0 -41 38v3q0 38 41 38h758q47 0 47 -41q0 -17 -17 -34l-698 -697h676q17 0 29 -12t12 -29v-669l694 692q16 16 35 16q37 0 37 -45v-663l696 692q16 16 33 16
q15 0 25 -12t10 -27t-13 -28l-753 -762q-14 -14 -35 -14q-41 0 -41 47v663l-694 -696q-14 -14 -35 -14q-41 0 -41 47v663l-696 -696q-14 -14 -35 -14z" />
    <glyph glyph-name="fi" unicode="fi" horiz-adv-x="1515" 
d="M662 1651q66 0 106.5 -42t40.5 -110q0 -41 -18 -86h-373q-36 -65 -39 -133q-1 -75 42.5 -126t113.5 -60h227l-25 -121h-202v-744q0 -93 38.5 -127t153.5 -43v-59h-688v59q91 6 121 32t30 97v785h-151v55l158 80q21 119 89.5 243t171.5 212t204 88zM1171 1251
q-89 0 -146.5 56t-57.5 141t57.5 141t146.5 56q88 0 146.5 -56t58.5 -141t-58.5 -141t-146.5 -56zM1343 188q0 -71 30 -97t122 -32v-59h-647v59q90 6 120.5 32t30.5 97v570q0 77 -30.5 108.5t-120.5 46.5v56q278 72 491 143h4v-924z" />
    <glyph glyph-name="fl" unicode="fl" horiz-adv-x="1462" 
d="M1290 188q0 -71 30 -97t122 -32v-59h-647v59q90 6 120.5 32t30.5 97v1078q0 82 -30.5 110.5t-120.5 28.5h-351q-35 -57 -38 -127q-1 -73 34.5 -124t94.5 -60h243l-24 -121h-219v-744q0 -93 38.5 -127t153.5 -43v-59h-688v59q91 6 121 32t30 97v785h-151v55l160 80
q17 88 68 182t121 172.5t160.5 129t178.5 50.5q78 0 127.5 -38t54.5 -101q221 80 377 146h4v-1461z" />
    <glyph glyph-name=".notdef" horiz-adv-x="2541" 
d="M117 -20q-15 0 -25 10.5t-10 25.5q0 21 10 31l701 698h-664q-47 0 -47 39q0 19 14 33l697 701h-670q-41 0 -41 38v3q0 38 41 38h758q47 0 47 -41q0 -17 -17 -34l-698 -697h676q17 0 29 -12t12 -29v-669l694 692q16 16 35 16q37 0 37 -45v-663l696 692q16 16 33 16
q15 0 25 -12t10 -27t-13 -28l-753 -762q-14 -14 -35 -14q-41 0 -41 47v663l-694 -696q-14 -14 -35 -14q-41 0 -41 47v663l-696 -696q-14 -14 -35 -14z" />
    <glyph glyph-name=".null" 
 />
    <glyph glyph-name="nonmarkingreturn" horiz-adv-x="682" 
 />
    <glyph glyph-name="CR" unicode="&#xd;" horiz-adv-x="487" 
 />
    <glyph glyph-name="space" unicode=" " horiz-adv-x="487" 
 />
    <glyph glyph-name="exclam" unicode="!" horiz-adv-x="649" 
d="M295 512q-8 118 -76 375q-29 105 -43 160t-28.5 137t-14.5 141q0 91 51 145t142 54q90 0 141 -54.5t51 -144.5q0 -60 -14 -139.5t-30 -140t-44 -158.5q-68 -257 -76 -375h-59zM326 -20q-94 0 -154.5 58.5t-60.5 147.5t60.5 148t154.5 59q92 0 153.5 -59t61.5 -148
t-61.5 -147.5t-153.5 -58.5z" />
    <glyph glyph-name="quotedbl" unicode="&#x22;" horiz-adv-x="909" 
d="M201 920l-131 675l350 56h4l-162 -727zM627 920l-131 675l350 56h4l-162 -727z" />
    <glyph glyph-name="numbersign" unicode="#" horiz-adv-x="1421" 
d="M1329 774h-293l-63 -340h295l-17 -86h-295l-63 -348h-86l63 348h-426l-63 -348h-86l63 348h-282l16 86h283l63 340h-284l16 86h285l61 336h86l-61 -336h426l61 336h86l-61 -336h293zM887 434l63 340h-426l-63 -340h426z" />
    <glyph glyph-name="dollar" unicode="$" horiz-adv-x="1337" 
d="M1245 403q0 -184 -142.5 -299t-387.5 -124v-185h-99v189q-65 7 -162.5 38t-142.5 31q-26 0 -42 -13t-27 -50h-33l-117 553l64 14q77 -200 199.5 -328t260.5 -151v538l-2 2l-67.5 37.5t-66 38.5t-66.5 42.5t-60.5 43.5t-58.5 49t-49 52t-43.5 59t-31 63.5t-22 72
t-6.5 77.5q0 163 134 267t350 104h2v145h98v-156q46 -9 126 -38t118 -29q28 0 43.5 14t27.5 53h33l117 -530l-62 -12q-61 171 -168.5 289t-234.5 155v-489l61 -35q58 -32 96 -53.5t90.5 -55.5t87 -62t72.5 -66.5t60 -75t36.5 -82t14.5 -93.5zM410 1266q0 -82 57 -149
t162 -134v447h-2q-98 0 -157.5 -46t-59.5 -118zM715 76q117 9 177 65.5t60 153.5q0 79 -60.5 140.5t-176.5 127.5v-487z" />
    <glyph glyph-name="percent" unicode="%" horiz-adv-x="1947" 
d="M360 -57l-75 63l1304 1555l76 -64zM455 647q-167 0 -269 119.5t-102 314.5t102 315t269 120q166 0 267 -120t101 -315t-101 -314.5t-267 -119.5zM455 707q47 0 76.5 103t29.5 271q0 169 -29.5 273t-76.5 104q-49 0 -79 -104t-30 -273t30 -271.5t79 -102.5zM1495 -12
q-166 0 -268.5 119.5t-102.5 314.5t102.5 314.5t268.5 119.5t268.5 -119.5t102.5 -314.5t-102.5 -314.5t-268.5 -119.5zM1495 47q47 0 77 103.5t30 271.5t-30 272.5t-77 104.5t-76.5 -104t-29.5 -273q0 -168 29.5 -271.5t76.5 -103.5z" />
    <glyph glyph-name="ampersand" unicode="&#x26;" horiz-adv-x="1951" 
d="M1264 412q406 -334 675 -353v-59h-342q-135 0 -282 56t-281 155q-108 -112 -242 -171.5t-274 -59.5q-183 0 -295 99.5t-112 262.5q0 269 352 436q-207 273 -207 412q0 144 133.5 239t347.5 95q182 0 294 -79t112 -206q0 -97 -92.5 -192.5t-249.5 -163.5
q156 -202 387 -408q140 149 215 281q76 134 76 190q0 50 -48.5 67.5t-164.5 20.5v60h596v-60q-107 -5 -165.5 -44.5t-121.5 -151.5q-137 -238 -311 -426zM727 1430q-66 0 -106.5 -36.5t-40.5 -95.5q0 -111 155 -329q135 152 135 319q0 63 -39.5 102.5t-103.5 39.5zM674 174
q153 0 287 94q-4 2 -13 11q-229 194 -418 417q-50 -58 -79 -134.5t-29 -158.5q0 -104 64.5 -166.5t187.5 -62.5z" />
    <glyph glyph-name="quotesingle" unicode="'" horiz-adv-x="483" 
d="M201 920l-131 675l350 56h4l-162 -727z" />
    <glyph glyph-name="parenleft" unicode="(" horiz-adv-x="751" 
d="M705 -475q-292 196 -456.5 469t-164.5 612t164.5 612.5t456.5 469.5l36 -37q-171 -174 -266.5 -438.5t-95.5 -606.5q0 -341 96 -605.5t266 -436.5z" />
    <glyph glyph-name="parenright" unicode=")" horiz-adv-x="751" 
d="M47 -475l-37 39q171 172 267 436.5t96 605.5q0 342 -96 606.5t-267 438.5l37 37q292 -196 456.5 -469.5t164.5 -612.5t-164.5 -612t-456.5 -469z" />
    <glyph glyph-name="asterisk" unicode="*" horiz-adv-x="1050" 
d="M956 1339q12 -42 -6 -79t-57 -50q-63 -21 -307 -28q183 -143 231 -207q25 -34 17 -74t-43 -65q-35 -26 -76 -21t-66 39q-42 58 -123 279q-86 -227 -125 -279q-25 -34 -65 -39t-74 21q-37 26 -44.5 65.5t18.5 73.5q24 35 76 81t153 126q-247 7 -307 28q-40 14 -57.5 51
t-4.5 78q14 42 50 61.5t75 6.5q69 -20 266 -156q-65 232 -65 301q0 43 30 71t74 28q43 0 73 -28.5t30 -70.5q0 -77 -66 -301q76 51 113 75.5t81 48.5t72 32q40 13 76.5 -7t50.5 -61z" />
    <glyph glyph-name="plus" unicode="+" horiz-adv-x="970" 
d="M874 651v-94h-337v-332h-103v332h-338v94h338v332h103v-332h337z" />
    <glyph glyph-name="comma" unicode="," horiz-adv-x="622" 
d="M160 -367l-27 58q83 42 132.5 100.5t49.5 116.5q0 61 -48.5 100.5t-125.5 42.5q-47 56 -47 135q0 89 55 148t140 59q107 0 173 -77.5t66 -202.5q0 -149 -101 -280.5t-267 -199.5z" />
    <glyph glyph-name="hyphen" unicode="-" horiz-adv-x="995" 
d="M133 543l25 121h704l-24 -121h-705z" />
    <glyph glyph-name="period" unicode="." horiz-adv-x="614" 
d="M307 -20q-92 0 -153.5 58.5t-61.5 147.5t61.5 148t153.5 59t153.5 -59t61.5 -148t-61.5 -147.5t-153.5 -58.5z" />
    <glyph glyph-name="slash" unicode="/" horiz-adv-x="1056" 
d="M143 -221l-88 41l858 1839l88 -41z" />
    <glyph glyph-name="zero" unicode="0" horiz-adv-x="1505" 
d="M754 -20q-191 0 -336.5 96t-225 271.5t-79.5 404.5t79.5 404.5t225 271.5t336.5 96t336.5 -96t225 -271.5t79.5 -404.5t-79.5 -404.5t-225 -271.5t-336.5 -96zM754 74q109 0 176 186.5t67 491.5t-67 491.5t-176 186.5q-110 0 -177 -186t-67 -492t67 -492t177 -186z" />
    <glyph glyph-name="one" unicode="1" horiz-adv-x="972" 
d="M682 244q0 -101 46 -138.5t183 -46.5v-59h-821v59q137 9 183 46.5t46 138.5v800q0 68 -20.5 97.5t-73.5 29.5q-47 0 -135 -24l-20 57q321 158 608 338h4v-1298z" />
    <glyph glyph-name="two" unicode="2" horiz-adv-x="1431" 
d="M1272 569l65 -12l-73 -567q-267 10 -815 10h-416l-2 6q122 132 303 289q60 53 92 82.5t85.5 79.5t83 83.5t70 81t63 86.5t44.5 84.5t31.5 91t9.5 91.5q0 120 -71.5 192t-190.5 72q-117 0 -215 -65.5t-158 -176.5l-57 29q92 224 268 361t371 137t314.5 -104t119.5 -269
q0 -54 -13.5 -109t-34.5 -103t-58 -99.5t-72 -93t-88.5 -91t-96 -85.5t-106 -84t-107 -79t-110.5 -77l-49 -35h381q157 0 241 23.5t127.5 81t63.5 169.5z" />
    <glyph glyph-name="three" unicode="3" horiz-adv-x="1255" 
d="M702 932q208 -54 327.5 -164t119.5 -250q0 -236 -265.5 -372t-758.5 -166l-12 61q313 32 495.5 125t182.5 240q0 114 -101 175t-315 91l-2 4l413 532h-315q-153 0 -220.5 -41t-111.5 -163l-63 14l131 524h4q91 -22 249.5 -30.5t500.5 -8.5h208l2 -4z" />
    <glyph glyph-name="four" unicode="4" horiz-adv-x="1439" 
d="M1376 395h-309v-159q0 -96 41 -132t164 -45v-59h-813v59q148 12 197 55.5t49 161.5v119h-682l-3 6l793 1102h254v-1014q173 0 328 11h4zM199 489h506v707z" />
    <glyph glyph-name="five" unicode="5" horiz-adv-x="1232" 
d="M291 1018q429 -43 631 -164t202 -346q0 -232 -266.5 -366t-759.5 -162l-10 61q205 21 354.5 68t236.5 124t87 177q0 133 -160.5 203.5t-505.5 105.5l-2 6l199 778h205q283 0 413 8t226 33h4l-82 -336h-721z" />
    <glyph glyph-name="six" unicode="6" horiz-adv-x="1382" 
d="M805 887q221 0 367.5 -123t146.5 -320q0 -209 -167 -336.5t-441 -127.5t-441.5 166t-167.5 436q0 295 272 554t718 388l22 -54q-212 -98 -363.5 -268.5t-213.5 -374.5q123 60 268 60zM711 74q94 0 152.5 107t58.5 280q0 141 -56 229t-145 88q-56 0 -113.5 -21t-99.5 -55
q-8 -55 -8 -120q0 -228 58 -368t153 -140z" />
    <glyph glyph-name="seven" unicode="7" horiz-adv-x="1320" 
d="M1307 1503l2 -4q-244 -381 -387.5 -703.5t-196.5 -627.5q-18 -95 -69.5 -141.5t-145.5 -46.5q-82 0 -124 39.5t-42 109.5q0 84 68 224.5t176 295t221.5 297t222.5 262.5h-596q-153 0 -220.5 -41t-109.5 -163l-63 14l131 524h4q91 -22 248.5 -30.5t501.5 -8.5h379z" />
    <glyph glyph-name="eight" unicode="8" horiz-adv-x="1394" 
d="M905 856q69 -34 117 -62t103 -69t88.5 -83t56 -98.5t22.5 -119.5q0 -201 -164.5 -322.5t-439.5 -121.5q-264 0 -424 104t-160 276q0 107 95.5 197.5t257.5 140.5q-65 37 -114.5 76t-92.5 90.5t-65.5 117.5t-22.5 144q0 180 144.5 289t381.5 109q240 0 387.5 -95
t147.5 -251q0 -102 -86.5 -189t-231.5 -133zM688 1430q-105 0 -169 -49.5t-64 -129.5q0 -48 19 -90.5t47.5 -74.5t77 -66t90.5 -57t106 -54q157 154 157 301q0 98 -73 159t-191 61zM688 74q132 0 212.5 57.5t80.5 151.5q0 34 -11 65t-25.5 55t-45 50t-53.5 42.5t-67.5 40.5
t-70 36.5t-77.5 37.5l-70 33q-85 -68 -130.5 -150t-45.5 -165q0 -114 83.5 -184t219.5 -70z" />
    <glyph glyph-name="nine" unicode="9" horiz-adv-x="1376" 
d="M659 1524q277 0 447 -166t170 -436q0 -146 -64 -289t-179.5 -265.5t-281 -223t-362.5 -164.5l-24 53q182 101 310.5 279t176.5 390q-123 -65 -279 -65q-146 0 -262.5 53t-184 152t-67.5 227q0 204 165 329.5t435 125.5zM655 745q59 0 118 22.5t99 59.5q7 58 7 103
q0 224 -61 362t-159 138q-91 0 -146.5 -104t-55.5 -273q0 -137 54.5 -222.5t143.5 -85.5z" />
    <glyph glyph-name="colon" unicode=":" horiz-adv-x="661" 
d="M332 700q-94 0 -154.5 59t-60.5 148t60.5 148t154.5 59q92 0 153.5 -59t61.5 -148t-61.5 -148t-153.5 -59zM332 -20q-94 0 -154.5 58.5t-60.5 147.5t60.5 148t154.5 59q92 0 153.5 -59t61.5 -148t-61.5 -147.5t-153.5 -58.5z" />
    <glyph glyph-name="semicolon" unicode=";" horiz-adv-x="673" 
d="M334 700q-92 0 -153.5 59t-61.5 148t61.5 148t153.5 59t153.5 -59t61.5 -148t-61.5 -148t-153.5 -59zM184 -367l-24 58q81 42 130.5 100.5t49.5 116.5q0 61 -47.5 100.5t-124.5 42.5q-49 58 -49 135q0 89 55.5 148t140.5 59q107 0 172.5 -77.5t65.5 -202.5
q0 -149 -101.5 -280.5t-267.5 -199.5z" />
    <glyph glyph-name="less" unicode="&#x3c;" horiz-adv-x="970" 
d="M858 276l-778 289v76l778 311v-102l-610 -246l610 -225v-103z" />
    <glyph glyph-name="equal" unicode="=" horiz-adv-x="970" 
d="M96 705v94h778v-94h-778zM96 410v94h778v-94h-778z" />
    <glyph glyph-name="greater" unicode="&#x3e;" horiz-adv-x="970" 
d="M113 276v103l610 225l-610 246v102l778 -311v-76z" />
    <glyph glyph-name="question" unicode="?" horiz-adv-x="903" 
d="M274 1524q98 0 198 -49.5t174.5 -126t121.5 -173.5t47 -188q0 -133 -119 -217.5t-325 -99.5q-10 -92 -13 -158h-59q-46 214 -115 438l4 4q223 2 353.5 52t130.5 135q0 76 -92 145h-469q-19 47 -19 86q0 68 50 110t132 42zM354 393q94 0 154.5 -59t60.5 -148t-60.5 -147.5
t-154.5 -58.5t-154.5 58.5t-60.5 147.5t60.5 148t154.5 59z" />
    <glyph glyph-name="at" unicode="@" horiz-adv-x="2029" 
d="M961 -328q214 0 419.5 54.5t345.5 144.5l31 -47q-149 -115 -365 -184.5t-431 -69.5q-409 0 -641 233t-232 658q0 226 77 422.5t212 337.5t329 222t420 81q230 0 414 -101.5t289.5 -290t105.5 -430.5q0 -295 -140.5 -475t-369.5 -180q-101 0 -178 41.5t-104 112.5
q-157 -154 -357 -154q-115 0 -184.5 54t-69.5 143q0 156 238 241l358 136v186q0 81 -43.5 128.5t-115.5 47.5q-38 0 -90 -18v-338q-31 -21 -75 -34t-79 -13q-64 0 -100.5 31t-36.5 87q0 103 80 189.5t202 133t252 46.5q142 0 226 -78t84 -209v-442q0 -56 20 -83.5t78 -27.5
q124 0 206.5 130t82.5 337q0 161 -53 298.5t-145.5 232t-220.5 147.5t-274 53q-265 0 -474.5 -126t-325 -346t-115.5 -492q0 -379 197.5 -584t552.5 -205zM854 315q0 -47 31 -75.5t82 -28.5q74 0 161 68v262l-65 -25q-97 -39 -153 -91.5t-56 -109.5z" />
    <glyph glyph-name="A" unicode="A" horiz-adv-x="1703" 
d="M1491 211q39 -91 84 -120t143 -32v-59h-852v59q130 9 181 30.5t51 70.5q0 45 -39 137l-66 164h-542l-13 -33q-42 -108 -60 -164t-18 -94q0 -57 48 -81t165 -30v-59h-571v59q102 11 157 58.5t109 181.5l383 946l-45 113q124 52 283 166h45zM487 555h467l-237 592z" />
    <glyph glyph-name="B" unicode="B" horiz-adv-x="1705" 
d="M1212 778q193 -36 304.5 -133.5t111.5 -236.5q0 -183 -175 -295.5t-462 -112.5h-928v59q122 9 163.5 45t41.5 132v1032q0 96 -41 131.5t-164 44.5v59h881q263 0 423.5 -103t160.5 -272q0 -123 -83.5 -214t-232.5 -136zM1130 1112q0 136 -79.5 216.5t-225.5 80.5h-194
v-594h194q146 0 225.5 80.5t79.5 216.5zM856 94q169 0 272 86.5t103 227.5q0 143 -91 228t-253 85h-256v-518q0 -65 26 -87t107 -22h92z" />
    <glyph glyph-name="C" unicode="C" horiz-adv-x="1548" 
d="M827 -20q-219 0 -387 95.5t-260 270.5t-92 404t100 405t282.5 272.5t420.5 96.5q71 0 140.5 -18.5t122 -37t81.5 -18.5t42.5 12.5t25.5 50.5h32l121 -544l-59 -17q-184 478 -512 478q-195 0 -314.5 -152t-119.5 -401q0 -303 152 -488.5t401 -185.5q126 0 247 63t189 168
l51 -28q-81 -193 -264.5 -309.5t-399.5 -116.5z" />
    <glyph glyph-name="D" unicode="D" horiz-adv-x="1800" 
d="M872 1503q379 0 610.5 -206.5t231.5 -544.5t-231.5 -545t-610.5 -207h-809v59q122 9 163.5 45t41.5 132v1032q0 96 -41 131.5t-164 44.5v59h809zM803 94q232 0 373 181t141 477q0 299 -133.5 478t-364.5 179h-188v-1206q0 -64 24 -86.5t93 -22.5h55z" />
    <glyph glyph-name="E" unicode="E" horiz-adv-x="1638" 
d="M1532 584l65 -21l-192 -573q-179 10 -510 10h-832v59q122 9 163.5 45t41.5 132v1032q0 96 -41 131.5t-164 44.5v59h793q308 0 477 10l172 -552l-63 -23q-39 117 -80.5 194.5t-94.5 133.5t-127 86t-166.5 43.5t-225.5 13.5h-117v-594h104q93 0 145 29t84 100t56 211h63
q-6 -240 -6 -397q0 -158 6 -398h-63q-24 148 -56 223.5t-84 106.5t-145 31h-104v-502q0 -75 26 -100t105 -25h90q103 0 178.5 8.5t141.5 31.5t114.5 57.5t92.5 91t80 128.5t73 173z" />
    <glyph glyph-name="F" unicode="F" horiz-adv-x="1503" 
d="M1313 1513l172 -552l-64 -23q-39 117 -80.5 194.5t-94.5 133.5t-127 86t-166.5 43.5t-225.5 13.5h-96v-614h88q93 0 144.5 29t83 100t54.5 211h64q-6 -240 -6 -398q0 -157 6 -397h-64q-23 148 -54.5 223.5t-83 106t-144.5 30.5h-88v-424q0 -118 49 -161.5t197 -55.5v-59
h-814v59q122 9 163.5 45t41.5 132v1032q0 96 -41 131.5t-164 44.5v59h773q308 0 477 10z" />
    <glyph glyph-name="G" unicode="G" horiz-adv-x="1724" 
d="M907 668h801v-60q-110 -9 -147 -41t-37 -118v-330q-65 -8 -181 -49q-81 -28 -131 -43t-135.5 -31t-163.5 -16q-246 0 -434 96t-290.5 271.5t-102.5 404.5t107 404.5t302.5 271.5t450.5 96q84 0 158 -19t130 -38t95 -19q30 0 46 13t28 52h33l57 -544l-61 -8
q-132 469 -469 469q-217 0 -348.5 -186t-131.5 -492q0 -305 119 -491.5t311 -186.5q125 0 248 86v231q0 118 -50.5 161.5t-203.5 55.5v60z" />
    <glyph glyph-name="H" unicode="H" horiz-adv-x="1824" 
d="M1761 1444q-123 -9 -164 -44.5t-41 -131.5v-1032q0 -96 41.5 -132t163.5 -45v-59h-772v59q122 9 163.5 45t41.5 132v485h-563v-485q0 -96 41.5 -132t163.5 -45v-59h-773v59q122 9 163.5 45t41.5 132v1032q0 96 -41 131.5t-164 44.5v59h773v-59q-123 -9 -164 -44.5
t-41 -131.5v-453h563v453q0 96 -41 131.5t-164 44.5v59h772v-59z" />
    <glyph glyph-name="I" unicode="I" horiz-adv-x="899" 
d="M836 1444q-123 -9 -164 -44.5t-41 -131.5v-1032q0 -96 41.5 -132t163.5 -45v-59h-773v59q122 9 163.5 45t41.5 132v1032q0 96 -41 131.5t-164 44.5v59h773v-59z" />
    <glyph glyph-name="J" unicode="J" horiz-adv-x="864" 
d="M49 1503h772v-59q-124 -9 -164.5 -44.5t-40.5 -131.5v-817q0 -246 -150 -432.5t-396 -243.5l-21 57q116 78 160.5 182t44.5 301v953q0 96 -41 131.5t-164 44.5v59z" />
    <glyph glyph-name="K" unicode="K" horiz-adv-x="1771" 
d="M631 236q0 -96 41.5 -132t163.5 -45v-59h-773v59q122 9 163.5 45t41.5 132v1032q0 96 -41 131.5t-164 44.5v59h773v-59q-123 -9 -164 -44.5t-41 -131.5v-1032zM997 969q276 -402 418 -586t221 -247.5t168 -76.5v-59h-266q-76 0 -132 10.5t-119 45t-117.5 85t-132.5 146.5
t-159 211.5t-202 296.5l436 434q92 88 92 135q0 69 -203 80v59h633v-59q-90 -2 -156.5 -29t-150.5 -112z" />
    <glyph glyph-name="L" unicode="L" horiz-adv-x="1529" 
d="M1450 584l66 -21l-193 -573q-179 10 -477 10h-783v59q122 9 163.5 45t41.5 132v1032q0 96 -41 131.5t-164 44.5v59h814v-59q-148 -12 -197 -54.5t-49 -158.5v-1028q0 -65 21 -87t85 -22h66q117 0 199.5 14t150 45t118.5 89.5t93 139t86 202.5z" />
    <glyph glyph-name="M" unicode="M" horiz-adv-x="2220" 
d="M1987 238q9 -98 52 -134t165 -45v-59h-811v59q147 9 193 47t38 140l-86 960l-530 -1226h-45l-531 1218l-92 -922q-12 -120 33.5 -164t193.5 -53v-59h-557v59q122 9 166 45.5t55 133.5l105 1040q9 88 -33 122.5t-166 43.5v59h557l432 -1007l433 1007h518v-59
q-122 -9 -158 -42.5t-27 -123.5z" />
    <glyph glyph-name="N" unicode="N" horiz-adv-x="1718" 
d="M1114 1503h555v-59q-123 -9 -164 -44.5t-41 -131.5v-1288h-63l-1026 1150v-854q0 -121 49 -164.5t197 -52.5v-59h-558v59q122 9 163.5 45t41.5 132v1042q0 90 -41.5 123.5t-163.5 42.5v59h457l840 -964v688q0 120 -49.5 164t-196.5 53v59z" />
    <glyph glyph-name="O" unicode="O" horiz-adv-x="1785" 
d="M893 -20q-362 0 -583.5 212.5t-221.5 559.5t221.5 559.5t583.5 212.5t583.5 -212.5t221.5 -559.5t-221.5 -559.5t-583.5 -212.5zM893 74q184 0 295.5 186t111.5 492t-111.5 492t-295.5 186q-183 0 -295.5 -186t-112.5 -492t112.5 -492t295.5 -186z" />
    <glyph glyph-name="P" unicode="P" horiz-adv-x="1560" 
d="M803 754q146 0 235.5 95t89.5 251q0 141 -84.5 225t-224.5 84h-188v-1133q0 -118 49 -161.5t197 -55.5v-59h-814v59q122 9 163.5 45t41.5 132v1032q0 96 -41 131.5t-164 44.5v59h842q280 0 450.5 -110.5t170.5 -292.5q0 -198 -193.5 -319.5t-509.5 -121.5h-49l-20 95h49z
" />
    <glyph glyph-name="Q" unicode="Q" horiz-adv-x="1785" 
d="M1159 14q143 -155 231 -229t157.5 -101.5t170.5 -33.5v-60h-213q-84 0 -144.5 5.5t-122 23t-111.5 43.5t-113 73.5t-126.5 107t-152.5 149.5q-296 44 -471.5 249t-175.5 511q0 347 221.5 559.5t583.5 212.5t583.5 -212.5t221.5 -559.5q0 -276 -144 -471.5t-395 -266.5z
M485 752q0 -306 112.5 -492t295.5 -186q184 0 295.5 186t111.5 492t-111.5 492t-295.5 186q-183 0 -295.5 -186t-112.5 -492z" />
    <glyph glyph-name="R" unicode="R" horiz-adv-x="1757" 
d="M1188 725q135 -216 219.5 -338.5t153 -195.5t115.5 -98t112 -34v-59h-266q-70 0 -121 9t-105.5 38t-101.5 72.5t-109 123t-126.5 178.5t-155.5 249h-172v-394q0 -117 49.5 -161t196.5 -56v-59h-814v59q122 9 163.5 45t41.5 132v1032q0 96 -41 131.5t-164 44.5v59h842
q280 0 450.5 -106t170.5 -281q0 -134 -89 -235t-249 -156zM631 1409v-645h172q146 0 235.5 92t89.5 244q0 141 -84.5 225t-224.5 84h-188z" />
    <glyph glyph-name="S" unicode="S" horiz-adv-x="1435" 
d="M719 -20q-83 0 -162.5 18.5t-142 37.5t-103.5 19q-33 0 -50 -13t-34 -52h-34l-117 553l63 14q89 -219 246 -351t326 -132q162 0 246.5 59t84.5 168q0 34 -11.5 64.5t-28.5 54t-48.5 47.5t-59.5 40.5t-74.5 36.5t-79 33t-87.5 33l-84.5 32.5t-82 34t-81.5 39t-73.5 43.5
t-68 50.5t-55 58t-44.5 68.5t-26.5 78.5t-10.5 91.5q0 190 151 304t398 114q83 0 160 -19.5t136.5 -39t100.5 -19.5q30 0 47 14t29 53h33l116 -530l-59 -12q-79 205 -235 332t-328 127q-113 0 -181.5 -49.5t-68.5 -129.5q0 -35 12.5 -66.5t30.5 -56t52.5 -50t62.5 -42
t78.5 -39.5t82.5 -35.5t91 -35.5q50 -19 84 -32.5t81.5 -35t80 -39t72 -42t66 -48.5t53.5 -54.5t43 -62.5t26 -71.5t10 -81.5q0 -219 -170.5 -349t-462.5 -130z" />
    <glyph glyph-name="T" unicode="T" horiz-adv-x="1581" 
d="M1389 1540l170 -579l-64 -21q-53 146 -98 232.5t-102.5 142t-124 75t-166.5 19.5h-33v-1165q0 -101 45.5 -138.5t183.5 -46.5v-59h-821v59q139 9 184 46.5t45 138.5v1165h-33q-79 0 -136.5 -13.5t-106.5 -43t-89.5 -86t-77.5 -133.5t-79 -193l-63 21l170 579h4
q87 -22 179.5 -29.5t282.5 -7.5h261q192 0 284.5 7.5t179.5 29.5h5z" />
    <glyph glyph-name="U" unicode="U" horiz-adv-x="1701" 
d="M1663 1503v-59q-123 -9 -164 -44.5t-41 -131.5v-774q0 -240 -145 -377t-400 -137q-671 0 -671 528v760q0 96 -41 131.5t-164 44.5v59h813v-59q-147 -9 -196.5 -46.5t-49.5 -137.5v-805q0 -172 102 -276.5t269 -104.5q170 0 273.5 108t103.5 285v760q0 121 -49 164.5
t-197 52.5v59h557z" />
    <glyph glyph-name="V" unicode="V" horiz-adv-x="1691" 
d="M1130 1503h574v-59q-98 -10 -151 -58.5t-115 -181.5l-572 -1224h-45l-608 1312q-43 92 -85.5 120.5t-141.5 31.5v59h854v-59q-131 -9 -183.5 -31.5t-52.5 -71.5q0 -44 43 -135l336 -751l285 620q84 185 84 252q0 60 -51 85.5t-171 31.5v59z" />
    <glyph glyph-name="W" unicode="W" horiz-adv-x="2428" 
d="M1837 1503h604v-59q-102 -11 -158 -59t-108 -181l-494 -1224h-47l-417 1017l-420 -1017h-47l-533 1312q-38 91 -82.5 120t-144.5 32v59h887v-59q-146 -9 -203.5 -33.5t-57.5 -79.5q0 -44 35 -125l271 -676l403 994h47l414 -1020l219 571q74 192 74 252q0 62 -53.5 86.5
t-188.5 30.5v59z" />
    <glyph glyph-name="X" unicode="X" horiz-adv-x="1685" 
d="M1374 328q38 -52 54 -73.5t46.5 -60t49 -55t46.5 -37.5t55 -30.5t58 -12.5v-59h-862v59q221 8 221 97q0 31 -22 73t-68 107l-227 315l-158 -219q-127 -179 -127 -256q0 -53 53.5 -81.5t170.5 -35.5v-59h-664v59q122 15 210 84.5t214 249.5l240 342l-351 484
q-91 126 -144 172t-136 53v59h854v-59q-209 -8 -209 -96q0 -52 84 -174l203 -279l125 172q135 191 135 268q0 52 -51.5 78.5t-165.5 30.5v59h645v-59q-113 -10 -200 -81.5t-214 -248.5l-215 -303z" />
    <glyph glyph-name="Y" unicode="Y" horiz-adv-x="1634" 
d="M1012 1503h645v-59q-123 -11 -219 -82.5t-193 -247.5l-250 -446v-424q0 -101 46 -138.5t184 -46.5v-59h-819v59q138 9 183.5 46.5t45.5 138.5v426l-318 555q-68 121 -128.5 166t-151.5 53v59h856v-59q-111 -4 -157 -25t-46 -63q0 -28 17 -67t57 -115l197 -371l145 264
q62 114 89.5 175.5t27.5 100.5q0 50 -48.5 73.5t-162.5 27.5v59z" />
    <glyph glyph-name="Z" unicode="Z" horiz-adv-x="1546" 
d="M1405 561l68 -12l-74 -559q-270 10 -815 10h-539l-2 6l950 1403h-370q-137 0 -219 -40t-141.5 -136.5t-119.5 -286.5l-63 12l141 555q215 -10 762 -10h481l2 -4l-950 -1405h410q113 0 185 19.5t128.5 74.5t93 141.5t72.5 231.5z" />
    <glyph glyph-name="bracketleft" unicode="[" horiz-adv-x="796" 
d="M780 1608q-160 -13 -213 -61t-53 -177v-1528q0 -128 53.5 -176t212.5 -61v-60h-577v2122h577v-59z" />
    <glyph glyph-name="backslash" unicode="\" horiz-adv-x="1056" 
d="M913 -221l-860 1839l90 41l858 -1839z" />
    <glyph glyph-name="bracketright" unicode="]" horiz-adv-x="796" 
d="M594 1667v-2122h-578v60q159 13 213 61t54 176v1528q0 129 -53.5 176.5t-213.5 61.5v59h578z" />
    <glyph glyph-name="asciicircum" unicode="^" horiz-adv-x="970" 
d="M930 903h-113l-332 590l-331 -590h-113l422 748h45z" />
    <glyph glyph-name="underscore" unicode="_" horiz-adv-x="1368" 
d="M29 -236l16 80h1294l-16 -80h-1294z" />
    <glyph glyph-name="grave" unicode="`" horiz-adv-x="880" 
d="M643 1188q-139 72 -246 138.5t-147 103.5q-45 42 -45 96q0 49 36.5 84t84.5 35q54 0 92 -41q81 -81 256 -383z" />
    <glyph glyph-name="a" unicode="a" horiz-adv-x="1230" 
d="M1190 262l43 -26q-38 -118 -118.5 -187t-178.5 -69q-91 0 -150.5 38.5t-68.5 104.5v20q-66 -75 -166 -119t-211 -44q-129 0 -206 60t-77 159q0 84 63 150.5t202 119.5l395 147v209q0 91 -47 143t-129 52q-37 0 -92 -19v-378q-85 -54 -177 -54q-70 0 -111.5 35.5
t-41.5 100.5q0 87 53 164.5t138 130.5t192 83.5t215 30.5q159 0 251.5 -85.5t92.5 -233.5v-576q0 -31 8 -43t29 -12q49 0 92 98zM543 164q85 0 174 72v292l-68 -26q-108 -42 -168.5 -101t-60.5 -120q0 -53 34 -85t89 -32z" />
    <glyph glyph-name="b" unicode="b" horiz-adv-x="1333" 
d="M809 1114q204 0 329.5 -145t125.5 -383q0 -272 -144 -439t-379 -167q-154 0 -272 79q-181 -26 -330 -79h-4v1308q0 82 -29.5 113t-121.5 43v55q309 88 491 150h4v-701q55 76 145.5 121t184.5 45zM655 72q106 0 171 123t65 323q0 186 -66.5 300t-173.5 114
q-45 0 -92 -20.5t-80 -53.5v-637q26 -73 72 -111t104 -38z" />
    <glyph glyph-name="c" unicode="c" horiz-adv-x="1183" 
d="M1090 328l40 -25q-60 -146 -198 -234.5t-303 -88.5q-252 0 -406.5 155t-154.5 410q0 257 165.5 413t436.5 156q201 0 323.5 -99.5t122.5 -262.5q0 -78 -50 -126t-132 -48q-105 0 -146 47v399q-35 14 -86 14q-131 0 -210.5 -112.5t-79.5 -298.5q0 -197 106 -318t279 -121
q84 0 166 38t127 102z" />
    <glyph glyph-name="d" unicode="d" horiz-adv-x="1366" 
d="M1198 256q0 -71 30 -97t122 -32v-55q-304 -53 -492 -92h-4v165q-55 -76 -145 -120.5t-185 -44.5q-204 0 -329 145t-125 383q0 272 143.5 439t378.5 167q145 0 262 -74v248q0 82 -30.5 113t-121.5 43v55q318 91 492 150h4v-1393zM682 162q45 0 92 20.5t80 53.5v636
q-26 74 -72 112t-104 38q-106 0 -171 -123.5t-65 -323.5q0 -186 66.5 -299.5t173.5 -113.5z" />
    <glyph glyph-name="e" unicode="e" horiz-adv-x="1204" 
d="M1108 328l43 -25q-63 -146 -205 -234.5t-313 -88.5q-255 0 -410 154.5t-155 408.5q0 258 162.5 414.5t428.5 156.5q214 0 345 -130.5t131 -344.5h-723v-12q0 -197 107.5 -318t285.5 -121q82 0 165.5 38.5t137.5 101.5zM657 1036q-96 0 -160 -85t-81 -232h162
q105 0 166 45.5t61 122.5q0 66 -41 107.5t-107 41.5z" />
    <glyph glyph-name="f" unicode="f" horiz-adv-x="817" 
d="M434 1413q-25 -53 -28 -133q-1 -73 34.5 -124t94.5 -62h276l-25 -121h-251v-744q0 -93 38.5 -127t153.5 -43v-59h-688v59q91 6 121 32t30 97v785h-151v55l160 80q17 89 68 184.5t121 175.5t160.5 131.5t178.5 51.5q82 0 132 -42t50 -110q0 -41 -18 -86h-457z" />
    <glyph glyph-name="g" unicode="g" horiz-adv-x="1284" 
d="M975 227q136 -13 211.5 -89t75.5 -175q0 -188 -171.5 -290.5t-488.5 -102.5q-598 0 -598 229q0 102 203 217q-103 63 -103 181q0 123 136 290q-144 101 -144 265q0 163 142 262.5t372 99.5q62 0 133 -8q122 -12 205 -12q178 0 301 20h4l-30 -141l-232 18
q133 -94 133 -239q0 -163 -141.5 -263t-372.5 -100q-177 0 -307 62q-33 -51 -33 -91q0 -33 39.5 -55.5t143.5 -32.5zM610 1038q-62 0 -101.5 -79t-39.5 -207q0 -129 39 -208t102 -79t102.5 79t39.5 208q0 128 -39.5 207t-102.5 79zM651 -354q182 0 289 52t107 130
q0 31 -27 53.5t-80 26.5l-489 43q-93 9 -164 31q-43 -61 -43 -129q0 -95 111.5 -151t295.5 -56z" />
    <glyph glyph-name="h" unicode="h" horiz-adv-x="1378" 
d="M1214 188q0 -71 30.5 -97t121.5 -32v-59h-631v59q81 6 108 32t27 97v539q0 203 -176 203q-89 0 -178 -72v-670q0 -71 27 -97t108 -32v-59h-631v59q91 6 121.5 32t30.5 97v1100q0 82 -30.5 113t-121.5 43v55q334 96 492 150h4v-699q83 75 191 119.5t213 44.5
q136 0 215 -85.5t79 -233.5v-607z" />
    <glyph glyph-name="i" unicode="i" horiz-adv-x="708" 
d="M365 1251q-88 0 -146.5 56t-58.5 141t58.5 141t146.5 56t146 -56t58 -141t-58 -141t-146 -56zM537 188q0 -71 30.5 -97t120.5 -32v-59h-647v59q91 6 121.5 32t30.5 97v570q0 77 -31 108.5t-121 46.5v56q278 72 491 143h5v-924z" />
    <glyph glyph-name="j" unicode="j" horiz-adv-x="651" 
d="M346 1251q-89 0 -147 56t-58 141t58 141t147 56q88 0 146.5 -56t58.5 -141t-58.5 -141t-146.5 -56zM43 -430l-20 57q85 68 118 154t33 244v733q0 77 -30.5 108.5t-120.5 46.5v56q332 90 491 143h4v-952q0 -232 -130.5 -394t-344.5 -196z" />
    <glyph glyph-name="k" unicode="k" horiz-adv-x="1378" 
d="M516 188q0 -71 27 -97t108 -32v-59h-631v59q91 6 121.5 32t30.5 97v1100q0 82 -30.5 113t-121.5 43v55q334 96 492 150h4v-1461zM846 731l534 -672v-59h-379l-452 569l264 250q109 98 109 142q0 65 -193 73v60h584v-60q-85 -2 -147.5 -29t-149.5 -112z" />
    <glyph glyph-name="l" unicode="l" horiz-adv-x="688" 
d="M516 188q0 -71 30.5 -97t121.5 -32v-59h-648v59q91 6 121.5 32t30.5 97v1100q0 82 -30.5 113t-121.5 43v55q334 96 492 150h4v-1461z" />
    <glyph glyph-name="m" unicode="m" horiz-adv-x="2056" 
d="M1892 188q0 -71 30.5 -97t121.5 -32v-59h-631v59q81 6 108 32t27 97v560q0 182 -166 182q-82 0 -170 -74q2 -14 2 -41v-627q0 -71 27.5 -97t108.5 -32v-59h-615v59q81 6 108 32t27 97v560q0 182 -165 182q-83 0 -168 -72v-670q0 -71 27 -97t108 -32v-59h-631v59
q91 6 121.5 32t30.5 97v570q0 77 -31 108.5t-121 46.5v56q278 72 491 143h5v-162q67 75 172.5 119.5t220.5 44.5q100 0 169 -47t97 -133q68 82 174 131t221 49q138 0 219.5 -81t81.5 -218v-627z" />
    <glyph glyph-name="n" unicode="n" horiz-adv-x="1398" 
d="M1235 188q0 -71 30.5 -97t120.5 -32v-59h-630v59q81 6 108 32t27 97v539q0 203 -176 203q-89 0 -178 -72v-670q0 -71 27 -97t108 -32v-59h-631v59q91 6 121.5 32t30.5 97v570q0 77 -31 108.5t-121 46.5v56q278 72 491 143h5v-162q83 75 190.5 119.5t212.5 44.5
q137 0 216 -85.5t79 -233.5v-607z" />
    <glyph glyph-name="o" unicode="o" horiz-adv-x="1343" 
d="M672 -20q-272 0 -438 156t-166 411t166 411t438 156t438 -156t166 -411t-166 -411t-438 -156zM672 55q104 0 167.5 135.5t63.5 356.5t-63.5 356t-167.5 135q-103 0 -167.5 -135.5t-64.5 -355.5t64.5 -356t167.5 -136z" />
    <glyph glyph-name="p" unicode="p" horiz-adv-x="1370" 
d="M846 1114q204 0 329 -145t125 -383q0 -272 -143 -439t-379 -167q-145 0 -260 73v-233q0 -93 38.5 -127t154.5 -43v-60h-688v60q90 6 120.5 32t30.5 97v979q0 77 -30.5 108.5t-120.5 46.5v56q278 72 491 143h4v-164q53 76 144 121t184 45zM694 72q104 0 169 123.5
t65 322.5q0 186 -66 300t-172 114q-45 0 -92 -20.5t-80 -53.5v-637q24 -73 70 -111t106 -38z" />
    <glyph glyph-name="q" unicode="q" horiz-adv-x="1333" 
d="M1198 -221q0 -71 30 -97t122 -32v-60h-688v60q116 9 154 42.5t38 127.5v325q-55 -76 -145 -120.5t-185 -44.5q-204 0 -329 145t-125 383q0 272 143.5 439t378.5 167q154 0 270 -80q190 26 332 80h4v-1335zM682 162q45 0 92 20.5t80 53.5v636q-26 74 -72 112t-104 38
q-106 0 -171 -123.5t-65 -323.5q0 -186 66.5 -299.5t173.5 -113.5z" />
    <glyph glyph-name="r" unicode="r" horiz-adv-x="1038" 
d="M637 850q-54 -103 -100 -272v-349q0 -93 38.5 -127t153.5 -43v-59h-688v59q91 6 121.5 32t30.5 97v570q0 77 -31 108.5t-121 46.5v56q314 88 473 143h4l19 -293q42 127 127.5 211t189.5 84q77 0 123.5 -44.5t46.5 -117.5q0 -49 -33 -102h-354z" />
    <glyph glyph-name="s" unicode="s" horiz-adv-x="1114" 
d="M565 -20q-60 0 -115 11.5t-87.5 25t-65 25t-53.5 11.5q-22 0 -36.5 -13.5t-27.5 -49.5h-33l-86 409l56 13q75 -161 195.5 -259t244.5 -98q103 0 156 38.5t53 111.5q0 29 -16.5 55t-37.5 44t-64.5 39.5t-72 33t-86.5 33.5q-44 17 -62.5 24t-60.5 24.5t-61.5 28.5t-54 30.5
t-52 35.5t-40.5 40t-34 47.5t-19.5 53.5t-8.5 62q0 162 114 260t302 98q68 0 134.5 -16t115 -31.5t74.5 -15.5q23 0 34 10t25 43h33l78 -399l-56 -11q-57 155 -175.5 249.5t-252.5 94.5q-76 0 -123 -37.5t-47 -99.5q0 -28 16 -53.5t39.5 -45t64.5 -40.5t76 -35.5t89 -34.5
q54 -22 85 -35t81 -36.5t79 -42.5t65 -48t55.5 -57.5t33 -66t13.5 -78.5q0 -158 -132 -253t-352 -95z" />
    <glyph glyph-name="t" unicode="t" horiz-adv-x="845" 
d="M602 147q49 0 102.5 30t90.5 77l36 -33q-57 -109 -159.5 -175t-212.5 -66q-134 0 -212.5 70t-78.5 188v735h-152v55q140 64 237.5 140t190.5 192h60v-266h327l-26 -121h-293v-697q0 -74 19 -101.5t71 -27.5z" />
    <glyph glyph-name="u" unicode="u" horiz-adv-x="1361" 
d="M1190 256q0 -71 30.5 -97t120.5 -32v-55q-305 -54 -491 -92h-4v163q-67 -74 -172 -118.5t-221 -44.5q-130 0 -207.5 81t-77.5 218v479q0 77 -30.5 108.5t-121.5 46.5v56q337 91 492 143h4v-766q0 -182 166 -182q83 0 168 72v522q0 77 -30.5 108.5t-121.5 46.5v56
q337 91 492 143h4v-856z" />
    <glyph glyph-name="v" unicode="v" horiz-adv-x="1308" 
d="M848 1094h483v-60q-92 -10 -143.5 -58t-116.5 -181l-397 -815h-45l-436 903q-43 87 -84 117.5t-119 33.5v60h733v-60q-88 -9 -125 -29.5t-37 -62.5q0 -49 47 -145l183 -385l122 254q93 191 93 262q0 52 -37.5 76t-120.5 30v60z" />
    <glyph glyph-name="w" unicode="w" horiz-adv-x="1921" 
d="M1421 1094h523v-60q-92 -11 -144.5 -58.5t-113.5 -180.5l-371 -815h-47l-305 684l-314 -684h-47l-409 903q-39 87 -81 117.5t-122 33.5v60h774v-60q-110 -9 -154.5 -29.5t-44.5 -66.5q0 -41 43 -141l154 -369l315 686h45l301 -684l105 236q84 192 84 258q0 57 -43.5 80.5
t-147.5 29.5v60z" />
    <glyph glyph-name="x" unicode="x" horiz-adv-x="1253" 
d="M1028 252q72 -108 117 -147t106 -46v-59h-696v59q74 6 107.5 22t33.5 48q0 37 -57 125l-131 195l-64 -93q-98 -156 -98 -211q0 -37 35.5 -57t112.5 -29v-59h-492v59q94 14 155 62.5t148 181.5l150 225l-236 349q-60 89 -101 121t-102 36v60h686v-60q-68 -8 -98.5 -22.5
t-30.5 -44.5q0 -37 62 -131l115 -170l49 69q104 162 104 221q0 37 -33 54.5t-106 23.5v60h473v-60q-86 -7 -143.5 -53.5t-147.5 -179.5l-143 -213z" />
    <glyph glyph-name="y" unicode="y" horiz-adv-x="1308" 
d="M834 1094h497v-60q-90 -10 -141.5 -58t-116.5 -181l-498 -1022q-49 -99 -132.5 -151t-190.5 -52q-80 0 -129 42t-49 109q0 54 22 93l412 2q0 1 1 2t1 2l98 205l-415 858q-41 87 -82 117.5t-121 33.5v60h702v-60q-76 -2 -108.5 -17.5t-32.5 -55.5q0 -47 57 -164l183 -387
l122 256q91 187 91 258q0 55 -39.5 79.5t-130.5 30.5v60z" />
    <glyph glyph-name="z" unicode="z" horiz-adv-x="1185" 
d="M690 78q143 0 232.5 83t136.5 261l61 -6l-49 -426q-225 10 -641 10h-385l-2 4l643 1012h-192q-129 0 -215 -87t-142 -272l-59 15l96 432q167 -10 596 -10h350l2 -4l-645 -1012h213z" />
    <glyph glyph-name="braceleft" unicode="{" horiz-adv-x="755" 
d="M440 -131q0 -80 57.5 -144t209.5 -151l-25 -49q-210 74 -329 140t-163.5 125.5t-44.5 133.5q0 72 56 223q61 165 61 248q0 86 -44 134.5t-157 48.5h-12v59h12q113 0 157 48t44 132q0 83 -61 248q-56 154 -56 223q0 75 44.5 135.5t164 126.5t328.5 138l25 -48
q-152 -88 -209.5 -151.5t-57.5 -145.5q0 -64 54 -213q63 -171 63 -258q0 -106 -70.5 -174.5t-242.5 -91.5q172 -22 242.5 -90t70.5 -176q0 -83 -63 -258q-54 -145 -54 -213z" />
    <glyph glyph-name="bar" unicode="|" horiz-adv-x="507" 
d="M201 -426v2056l106 17v-2057z" />
    <glyph glyph-name="braceright" unicode="}" horiz-adv-x="755" 
d="M694 637h13v-59h-13q-113 0 -156.5 -48.5t-43.5 -134.5q0 -83 61 -248q55 -148 55 -223q0 -74 -45 -133.5t-163.5 -125.5t-327.5 -140l-25 49q151 87 208.5 151t57.5 144q0 70 -53 213q-63 175 -63 258q0 108 70.5 176t242.5 90q-172 23 -242.5 91.5t-70.5 174.5
q0 87 63 258q53 146 53 213q0 82 -57 145.5t-209 151.5l25 48q208 -72 327 -138t164 -126.5t45 -135.5q0 -71 -55 -223q-61 -165 -61 -248q0 -85 43.5 -132.5t156.5 -47.5z" />
    <glyph glyph-name="asciitilde" unicode="~" horiz-adv-x="970" 
d="M674 453q-40 0 -87 10t-73.5 19.5t-81.5 29.5q-145 59 -227 59q-87 0 -119 -112l-49 12q13 121 85 209t177 88q86 0 231 -59q142 -60 238 -60q87 0 119 113l49 -12q-14 -122 -86 -209.5t-176 -87.5z" />
    <glyph glyph-name="uni00A0" unicode="&#xa0;" horiz-adv-x="487" 
 />
    <glyph glyph-name="exclamdown" unicode="&#xa1;" horiz-adv-x="649" 
d="M324 905q-92 0 -153.5 59t-61.5 148t61.5 148t153.5 59q94 0 154.5 -59t60.5 -148t-60.5 -148t-154.5 -59zM324 -225q-90 0 -141.5 54t-51.5 144q0 85 22.5 187.5t65.5 251.5q68 257 76 374h59q8 -117 76 -374q29 -104 43 -160t28.5 -138t14.5 -141q0 -91 -50.5 -144.5
t-141.5 -53.5z" />
    <glyph glyph-name="cent" unicode="&#xa2;" horiz-adv-x="1247" 
d="M1157 508q-42 -104 -129 -182t-199 -115v-231h-98v208q-50 -4 -76 -4q-252 0 -406.5 155.5t-154.5 410.5q0 257 165.5 413t436.5 156h35v203h98v-215q145 -31 229.5 -124.5t84.5 -226.5q0 -78 -50 -126t-132 -48q-88 0 -132 35v-424q82 2 162.5 39t124.5 100zM438 831
q0 -168 79 -282.5t214 -145.5v840q-132 0 -212.5 -113t-80.5 -299z" />
    <glyph glyph-name="sterling" unicode="&#xa3;" horiz-adv-x="1449" 
d="M1278 569l68 -12l-74 -567q-270 10 -815 10h-377l-2 6q142 178 197 316.5t55 269.5q0 39 -13 145h-219l17 88h186q-20 113 -20 224q0 213 159.5 344t417.5 131q201 0 324 -100t123 -263q0 -78 -50.5 -126t-132.5 -48q-104 0 -145 47v381q-37 15 -84 15q-81 0 -137.5 -15
t-88 -43.5t-44.5 -64.5t-13 -84q0 -68 41 -207q30 -100 47 -191h437l-17 -88h-411v-18q0 -149 -83 -249.5t-247 -174.5h469q158 0 242 23.5t127 80.5t63 170z" />
    <glyph glyph-name="currency" unicode="&#xa4;" horiz-adv-x="1376" 
d="M1280 238l-72 -72l-229 227q-114 -94 -293 -94q-176 0 -289 90l-227 -227l-72 71l230 230q-80 119 -80 289q0 174 82 288l-230 230l72 71l227 -227q110 90 287 90q176 0 291 -92l229 229l72 -71l-231 -232q77 -115 77 -286t-77 -283zM352 752q0 -170 88 -264.5t246 -94.5
t246 94.5t88 264.5t-88 264t-246 94t-246 -94t-88 -264z" />
    <glyph glyph-name="yen" unicode="&#xa5;" horiz-adv-x="1665" 
d="M993 1503h613v-59q-54 -6 -99 -22.5t-93.5 -52.5t-97 -99.5t-97.5 -155.5l-218 -407h334l-16 -86h-324v-150h340l-16 -88h-324v-139q0 -101 46 -138.5t184 -46.5v-59h-822v59q139 9 184.5 46.5t45.5 138.5v139h-322l17 88h305v150h-322l17 86h274l-285 518
q-65 121 -121 166t-135 53v59h822v-59q-103 -4 -147 -24t-44 -62q0 -19 11 -50.5t22.5 -55.5t38.5 -78l180 -365l135 258q60 115 86.5 177.5t26.5 103.5q0 47 -46 69t-153 27v59z" />
    <glyph glyph-name="brokenbar" unicode="&#xa6;" horiz-adv-x="507" 
d="M201 807v823l106 17v-824zM201 -426v823l106 17v-824z" />
    <glyph glyph-name="section" unicode="&#xa7;" horiz-adv-x="966" 
d="M385 -432q-82 0 -132 41.5t-50 109.5q0 41 18 86h438q33 50 33 119q0 48 -20 104t-63 125.5t-79.5 120.5t-101.5 136q-46 59 -72 92.5t-68 91.5t-66.5 97.5t-54.5 94.5t-46 99.5t-27.5 96t-11.5 99.5q0 122 73 255.5t191.5 224t235.5 90.5q81 0 130.5 -42t49.5 -110
q0 -43 -17 -86h-438q-33 -50 -33 -119q0 -91 67 -203t198 -282q54 -68 84.5 -108.5t77.5 -106.5t74.5 -116t55.5 -110.5t41 -118t13 -112.5q0 -91 -44.5 -193t-113.5 -184.5t-161.5 -137t-180.5 -54.5zM776 4q12 46 12 96q0 64 -20.5 134.5t-47.5 128t-78 135t-86 124.5
t-97 128q-64 84 -94.5 125.5t-75.5 110t-68 123t-31 105.5q-12 -46 -12 -96q0 -64 20.5 -134.5t47.5 -128t77.5 -134.5t85.5 -124.5t97 -127.5q62 -81 95 -126.5t76.5 -112t67 -121.5t31.5 -105z" />
    <glyph glyph-name="dieresis" unicode="&#xa8;" horiz-adv-x="1126" 
d="M358 1292q-68 0 -112.5 44.5t-44.5 111.5t44.5 111.5t112.5 44.5q69 0 114.5 -44.5t45.5 -111.5t-45.5 -111.5t-114.5 -44.5zM768 1292q-68 0 -113 44.5t-45 111.5t45 111.5t113 44.5q69 0 114.5 -44.5t45.5 -111.5t-45.5 -111.5t-114.5 -44.5z" />
    <glyph glyph-name="copyright" unicode="&#xa9;" horiz-adv-x="2041" 
d="M1020 -143q-205 0 -377 64.5t-292.5 180.5t-187.5 282.5t-67 365.5t67 365.5t187.5 282t292.5 180t377 64.5q206 0 378.5 -65t292.5 -182t186.5 -284t66.5 -366q0 -266 -115 -467.5t-324.5 -311t-484.5 -109.5zM1020 -45q240 0 423.5 98t283.5 277.5t100 414.5
t-100 416.5t-283.5 282t-423.5 100.5q-362 0 -584.5 -219t-222.5 -575q0 -176 58.5 -324t163.5 -251.5t255.5 -161.5t329.5 -58zM1030 156q-257 0 -415 163.5t-158 430.5q0 266 171.5 431t450.5 165q58 0 113 -15t94.5 -30t59.5 -15q23 0 34.5 10.5t18.5 40.5h24l95 -419
l-48 -15q-146 369 -395 369q-146 0 -235.5 -115.5t-89.5 -304.5q0 -231 116.5 -373.5t304.5 -142.5q96 0 188.5 47t145.5 127l39 -25q-64 -149 -206 -239t-308 -90z" />
    <glyph glyph-name="ordfeminine" unicode="&#xaa;" horiz-adv-x="1048" 
d="M958 868l35 -22q-29 -89 -93 -143t-140 -54q-71 0 -119 30.5t-55 82.5v10q-46 -56 -124 -89.5t-163 -33.5q-96 0 -155.5 46t-59.5 122q0 133 199 207l303 113v168q0 65 -35.5 105t-95.5 40q-33 0 -60 -12v-297q-68 -45 -141 -45q-58 0 -90.5 27t-32.5 79q0 90 69 165
t176 116t222 41q121 0 193.5 -66.5t72.5 -177.5v-442q0 -22 5.5 -31.5t21.5 -9.5q18 0 36.5 19t30.5 52zM467 797q60 0 119 49v221l-39 -14q-77 -31 -123.5 -77t-46.5 -93q0 -38 25 -62t65 -24z" />
    <glyph glyph-name="guillemotleft" unicode="&#xab;" horiz-adv-x="909" 
d="M487 1034l-184 -432l184 -434l-43 -25l-354 435v47l354 434zM807 1034l-184 -432l184 -434l-43 -25l-354 435v47l354 434z" />
    <glyph glyph-name="logicalnot" unicode="&#xac;" horiz-adv-x="970" 
d="M92 780h778v-368h-102v274h-676v94z" />
    <glyph glyph-name="uni00AD" unicode="&#xad;" horiz-adv-x="995" 
d="M133 543l25 121h704l-24 -121h-705z" />
    <glyph glyph-name="registered" unicode="&#xae;" horiz-adv-x="1243" 
d="M623 1651q238 0 384 -139t146 -367t-146 -367t-384 -139q-239 0 -385 138.5t-146 367.5t146 367.5t385 138.5zM623 723q195 0 312.5 115.5t117.5 306.5t-117.5 306.5t-312.5 115.5q-196 0 -314.5 -115.5t-118.5 -306.5t118.5 -306.5t314.5 -115.5zM745 1143
q66 -105 101.5 -152.5t58 -65t53.5 -22.5v-24h-106q-41 0 -63 5t-53.5 29t-64.5 71t-87 134h-41v-135q0 -41 18 -57.5t68 -22.5v-24h-307v24q43 4 57 17t14 47v366q0 34 -14 47t-57 19v22h305q106 0 170.5 -37.5t64.5 -99.5q0 -47 -30.5 -84t-86.5 -57zM543 1384v-229h49
q46 0 75 33.5t29 87.5q0 50 -29 79t-77 29h-47z" />
    <glyph glyph-name="macron" unicode="&#xaf;" horiz-adv-x="1085" 
d="M166 1380l20 95h734l-21 -95h-733z" />
    <glyph glyph-name="degree" unicode="&#xb0;" horiz-adv-x="907" 
d="M453 926q-169 0 -273 99t-104 263q0 163 104 263t273 100q170 0 273 -100t103 -263q0 -164 -103 -263t-273 -99zM453 1075q94 0 151.5 58.5t57.5 154.5t-57.5 154.5t-151.5 58.5t-151.5 -58.5t-57.5 -154.5t57.5 -154.5t151.5 -58.5z" />
    <glyph glyph-name="plusminus" unicode="&#xb1;" horiz-adv-x="970" 
d="M537 786h337v-94h-337v-291h-103v291h-338v94h338v291h103v-291zM96 231v95h778v-95h-778z" />
    <glyph glyph-name="uni00B2" unicode="&#xb2;" horiz-adv-x="839" 
d="M735 961l41 -9l-37 -299q-147 6 -479 6h-229l-2 5q75 82 159 153q61 54 97.5 89.5t77.5 84.5t60 96.5t19 96.5q0 65 -37 104t-98 39q-60 0 -110.5 -31t-83.5 -86l-35 19q56 130 159 208.5t212 78.5q111 0 179 -59t68 -152q0 -53 -23 -106t-55.5 -95t-87 -90t-98 -80
t-108.5 -76h165q131 0 182 21t64 82z" />
    <glyph glyph-name="uni00B3" unicode="&#xb3;" horiz-adv-x="753" 
d="M434 1186q112 -32 179 -98.5t67 -143.5q0 -258 -594 -297l-6 39q168 20 265 68t97 123q0 59 -51.5 90t-165.5 49l-2 4l221 289h-172q-80 0 -117 -20t-57 -81l-41 9l74 309h2q106 -23 440 -23h119l2 -4z" />
    <glyph glyph-name="acute" unicode="&#xb4;" horiz-adv-x="880" 
d="M236 1188l-31 33q183 310 256 383q41 41 94 41q47 0 83 -35t36 -84q0 -56 -43 -96q-40 -37 -147.5 -103.5t-247.5 -138.5z" />
    <glyph glyph-name="uni00B5" unicode="&#xb5;" horiz-adv-x="1480" 
d="M1249 256q0 -71 30 -97t122 -32v-55q-304 -53 -492 -92h-4v163q-58 -75 -145 -119t-182 -44q-138 0 -203 120q9 -42 27.5 -125.5t26 -121t15 -86.5t7.5 -82q0 -49 -34.5 -82t-84.5 -33t-84.5 33t-34.5 82q0 106 14 622v451q0 77 -30.5 108.5t-120.5 46.5v56
q332 90 491 143h4v-766q0 -182 164 -182q85 0 170 72v522q0 77 -30.5 108.5t-120.5 46.5v56q332 90 491 143h4v-856z" />
    <glyph glyph-name="paragraph" unicode="&#xb6;" horiz-adv-x="1341" 
d="M1249 1503v-59q-123 -9 -164 -44.5t-41 -131.5v-1678l-104 -16v1835h-244v-1819l-106 -16v1085h-4q-234 0 -377 121.5t-143 319.5q0 182 120.5 292.5t319.5 110.5h743z" />
    <glyph glyph-name="periodcentered" unicode="&#xb7;" horiz-adv-x="636" 
d="M317 395q-92 0 -153.5 59t-61.5 148t61.5 148t153.5 59q94 0 154.5 -59t60.5 -148t-60.5 -148t-154.5 -59z" />
    <glyph glyph-name="cedilla" unicode="&#xb8;" horiz-adv-x="886" 
d="M303 -430l-10 41q125 36 125 90q0 31 -35 64.5t-111 76.5l109 176l94 -18l-45 -70q184 -94 184 -194q0 -151 -311 -166z" />
    <glyph glyph-name="uni00B9" unicode="&#xb9;" horiz-adv-x="598" 
d="M428 797q0 -53 25 -74t96 -27v-37h-483v37q72 6 97 27.5t25 73.5v426q0 40 -12.5 56.5t-46.5 16.5q-15 0 -63 -10l-15 35q203 101 373 205h4v-729z" />
    <glyph glyph-name="ordmasculine" unicode="&#xba;" horiz-adv-x="1095" 
d="M547 649q-211 0 -340 120t-129 318q0 195 129.5 316t339.5 121q212 0 340.5 -120.5t128.5 -316.5q0 -198 -128.5 -318t-340.5 -120zM547 711q75 0 121.5 103t46.5 273q0 168 -46.5 271.5t-121.5 103.5q-74 0 -120 -103.5t-46 -271.5q0 -171 46 -273.5t120 -102.5z" />
    <glyph glyph-name="guillemotright" unicode="&#xbb;" horiz-adv-x="909" 
d="M500 625v-47l-355 -435l-41 25l185 434l-185 432l41 25zM465 1059l354 -434v-47l-354 -435l-41 25l184 434l-184 432z" />
    <glyph glyph-name="onequarter" unicode="&#xbc;" horiz-adv-x="1728" 
d="M1417 1561l76 -64l-1305 -1554l-75 63zM199 1296q-16 0 -64 -10l-14 35q217 109 373 205h4v-729q0 -53 24.5 -74t95.5 -27v-37h-483v37q72 6 96.5 27.5t24.5 73.5v426q0 40 -11.5 56.5t-45.5 16.5zM1647 213h-170v-76q0 -53 22 -73.5t86 -26.5v-37h-483v37q79 7 107 32.5
t28 90.5v53h-369l-2 2l445 629h166v-568q75 0 182 7h2zM981 276h256v363z" />
    <glyph glyph-name="onehalf" unicode="&#xbd;" horiz-adv-x="1710" 
d="M1407 1561l76 -64l-1305 -1554l-76 63zM188 1296q-15 0 -63 -10l-14 35q198 98 372 205h4v-729q0 -53 25 -74t96 -27v-37h-483v37q72 6 97.5 27.5t25.5 73.5v426q0 40 -13 56.5t-47 16.5zM1589 301l41 -8l-37 -299q-147 6 -479 6h-227l-2 4q66 75 159 154q62 55 97 89.5
t76 84t60 96.5t19 96q0 66 -36.5 105t-98.5 39q-60 0 -110.5 -31t-83.5 -86l-33 18q56 130 158 208.5t211 78.5q113 0 181 -59t68 -152q0 -53 -23.5 -106.5t-55.5 -94.5t-88 -90t-97 -79t-108 -76h166q131 0 180.5 20.5t62.5 81.5z" />
    <glyph glyph-name="threequarters" unicode="&#xbe;" horiz-adv-x="1806" 
d="M1493 1561l76 -64l-1305 -1554l-76 63zM727 944q0 -258 -594 -297l-6 39q168 20 265 68t97 123q0 59 -51.5 90t-165.5 49l-2 4l222 289h-173q-80 0 -117 -20t-57 -81l-41 9l74 309h2q106 -23 441 -23h118l2 -4l-260 -313q112 -32 179 -98.5t67 -143.5zM1722 213h-170v-76
q0 -53 22.5 -73.5t88.5 -26.5v-37h-483v37q79 7 106 32.5t27 90.5v53h-369l-2 2l444 629h166v-568q78 0 185 7h2zM1057 276h256v363z" />
    <glyph glyph-name="questiondown" unicode="&#xbf;" horiz-adv-x="905" 
d="M549 905q-92 0 -153.5 59t-61.5 148t61.5 148t153.5 59q94 0 154.5 -59t60.5 -148t-60.5 -148t-154.5 -59zM795 12q16 -50 16 -86q0 -68 -50 -109.5t-132 -41.5q-131 0 -257.5 82t-204 207t-77.5 247q0 133 118 218t324 100q10 92 13 157h59q46 -214 115 -438l-4 -4
q-223 -2 -353.5 -51.5t-130.5 -134.5q0 -76 93 -146h471z" />
    <glyph glyph-name="Agrave" unicode="&#xc0;" horiz-adv-x="1703" 
d="M612 1710q-36 19 -56.5 49t-20.5 64q0 49 33.5 84t86.5 35q34 0 60 -13q88 -42 368 -280l-20 -41q-355 58 -451 102zM1491 211q39 -91 84 -120t143 -32v-59h-852v59q130 9 181 30.5t51 70.5q0 45 -39 137l-66 164h-542l-13 -33q-42 -108 -60 -164t-18 -94q0 -57 48 -81
t165 -30v-59h-571v59q102 11 157 58.5t109 181.5l383 946l-45 113q124 52 283 166h45zM487 555h467l-237 592z" />
    <glyph glyph-name="Aacute" unicode="&#xc1;" horiz-adv-x="1703" 
d="M1069 1710q-96 -44 -451 -102l-20 41q271 233 369 280q26 13 59 13q53 0 87 -35t34 -84q0 -34 -20.5 -64t-57.5 -49zM1491 211q39 -91 84 -120t143 -32v-59h-852v59q130 9 181 30.5t51 70.5q0 45 -39 137l-66 164h-542l-13 -33q-42 -108 -60 -164t-18 -94q0 -57 48 -81
t165 -30v-59h-571v59q102 11 157 58.5t109 181.5l383 946l-45 113q124 52 283 166h45zM487 555h467l-237 592z" />
    <glyph glyph-name="Acircumflex" unicode="&#xc2;" horiz-adv-x="1703" 
d="M846 1735l-330 -127l-24 43l331 291h45l332 -291l-24 -43zM1491 211q39 -91 84 -120t143 -32v-59h-852v59q130 9 181 30.5t51 70.5q0 45 -39 137l-66 164h-542l-13 -33q-42 -108 -60 -164t-18 -94q0 -57 48 -81t165 -30v-59h-571v59q102 11 157 58.5t109 181.5l383 946
l-45 113q124 52 283 166h45zM487 555h467l-237 592z" />
    <glyph glyph-name="Atilde" unicode="&#xc3;" horiz-adv-x="1703" 
d="M575 1745q-82 0 -114 -111l-47 13q12 119 86 207t170 88q36 0 78.5 -10t68 -19t74.5 -29q137 -59 223 -59q83 0 115 112l47 -12q-13 -121 -83.5 -209t-172.5 -88q-88 0 -227 60q-129 57 -218 57zM1491 211q39 -91 84 -120t143 -32v-59h-852v59q130 9 181 30.5t51 70.5
q0 45 -39 137l-66 164h-542l-13 -33q-42 -108 -60 -164t-18 -94q0 -57 48 -81t165 -30v-59h-571v59q102 11 157 58.5t109 181.5l383 946l-45 113q124 52 283 166h45zM487 555h467l-237 592z" />
    <glyph glyph-name="Adieresis" unicode="&#xc4;" horiz-adv-x="1703" 
d="M641 1630q-69 0 -114.5 45t-45.5 111q0 67 45.5 111.5t114.5 44.5t114.5 -44.5t45.5 -111.5q0 -66 -45.5 -111t-114.5 -45zM1051 1630q-69 0 -114.5 45t-45.5 111q0 67 45.5 111.5t114.5 44.5t114 -44t45 -112q0 -66 -45 -111t-114 -45zM1491 211q39 -91 84 -120t143 -32
v-59h-852v59q130 9 181 30.5t51 70.5q0 45 -39 137l-66 164h-542l-13 -33q-42 -108 -60 -164t-18 -94q0 -57 48 -81t165 -30v-59h-571v59q102 11 157 58.5t109 181.5l383 946l-45 113q124 52 283 166h45zM487 555h467l-237 592z" />
    <glyph glyph-name="Aring" unicode="&#xc5;" horiz-adv-x="1703" 
d="M846 1575q-106 0 -170 60.5t-64 158.5q0 97 64.5 157t169.5 60t169 -60t64 -157q0 -99 -64 -159t-169 -60zM846 1935q-66 0 -106 -39t-40 -102q0 -64 40 -102.5t106 -38.5t105.5 38.5t39.5 102.5q0 63 -39.5 102t-105.5 39zM1491 211q39 -91 84 -120t143 -32v-59h-852v59
q130 9 181 30.5t51 70.5q0 45 -39 137l-66 164h-542l-13 -33q-42 -108 -60 -164t-18 -94q0 -57 48 -81t165 -30v-59h-571v59q102 11 157 58.5t109 181.5l383 946l-45 113q124 52 283 166h45zM487 555h467l-237 592z" />
    <glyph glyph-name="AE" unicode="&#xc6;" horiz-adv-x="2416" 
d="M2310 584l66 -21l-193 -573q-179 10 -510 10h-831v59q122 9 163.5 45t41.5 132v485h-474l-124 -293q-47 -112 -67 -170t-20 -94q0 -53 45 -76t156 -29v-59h-571v59q105 11 170 60.5t121 179.5l520 1204h831q308 0 477 10l173 -552l-64 -23q-39 117 -80.5 194.5
t-94.5 133.5t-127 86t-166.5 43.5t-225.5 13.5h-117v-594h104q93 0 145 29t84 100t56 211h64q-7 -280 -7 -397q0 -118 7 -398h-64q-24 148 -56 223.5t-84 106.5t-145 31h-104v-502q0 -75 26 -100t105 -25h90q103 0 178.5 8.5t141.5 31.5t114.5 57.5t92.5 91t80 128.5t73 173
zM612 815h435v412q0 101 -36 146.5t-134 62.5z" />
    <glyph glyph-name="Ccedilla" unicode="&#xc7;" horiz-adv-x="1548" 
d="M1491 406q-77 -184 -249 -299.5t-378 -126.5l-33 -50q185 -96 185 -194q0 -151 -311 -166l-13 41q127 36 127 90q0 31 -35 64.5t-110 76.5l86 140q-305 23 -488.5 231.5t-183.5 536.5q0 229 100 405t282.5 272.5t420.5 96.5q71 0 140.5 -18.5t122 -37t81.5 -18.5
t42.5 12.5t25.5 50.5h32l121 -544l-59 -17q-184 478 -512 478q-195 0 -314.5 -152t-119.5 -401q0 -303 152 -488.5t401 -185.5q126 0 247 63t189 168z" />
    <glyph glyph-name="Egrave" unicode="&#xc8;" horiz-adv-x="1638" 
d="M555 1710q-37 19 -57.5 49t-20.5 64q0 49 34 84t87 35q33 0 59 -13q91 -43 369 -280l-20 -41q-355 58 -451 102zM1532 584l65 -21l-192 -573q-179 10 -510 10h-832v59q122 9 163.5 45t41.5 132v1032q0 96 -41 131.5t-164 44.5v59h793q308 0 477 10l172 -552l-63 -23
q-39 117 -80.5 194.5t-94.5 133.5t-127 86t-166.5 43.5t-225.5 13.5h-117v-594h104q93 0 145 29t84 100t56 211h63q-6 -240 -6 -397q0 -158 6 -398h-63q-24 148 -56 223.5t-84 106.5t-145 31h-104v-502q0 -75 26 -100t105 -25h90q103 0 178.5 8.5t141.5 31.5t114.5 57.5
t92.5 91t80 128.5t73 173z" />
    <glyph glyph-name="Eacute" unicode="&#xc9;" horiz-adv-x="1638" 
d="M1012 1710q-96 -44 -451 -102l-20 41q272 234 368 280q26 13 60 13q53 0 87 -35t34 -84q0 -34 -20.5 -64t-57.5 -49zM1532 584l65 -21l-192 -573q-179 10 -510 10h-832v59q122 9 163.5 45t41.5 132v1032q0 96 -41 131.5t-164 44.5v59h793q308 0 477 10l172 -552l-63 -23
q-39 117 -80.5 194.5t-94.5 133.5t-127 86t-166.5 43.5t-225.5 13.5h-117v-594h104q93 0 145 29t84 100t56 211h63q-6 -240 -6 -397q0 -158 6 -398h-63q-24 148 -56 223.5t-84 106.5t-145 31h-104v-502q0 -75 26 -100t105 -25h90q103 0 178.5 8.5t141.5 31.5t114.5 57.5
t92.5 91t80 128.5t73 173z" />
    <glyph glyph-name="Ecircumflex" unicode="&#xca;" horiz-adv-x="1638" 
d="M788 1735l-329 -127l-25 43l332 291h45l332 -291l-25 -43zM1532 584l65 -21l-192 -573q-179 10 -510 10h-832v59q122 9 163.5 45t41.5 132v1032q0 96 -41 131.5t-164 44.5v59h793q308 0 477 10l172 -552l-63 -23q-39 117 -80.5 194.5t-94.5 133.5t-127 86t-166.5 43.5
t-225.5 13.5h-117v-594h104q93 0 145 29t84 100t56 211h63q-6 -240 -6 -397q0 -158 6 -398h-63q-24 148 -56 223.5t-84 106.5t-145 31h-104v-502q0 -75 26 -100t105 -25h90q103 0 178.5 8.5t141.5 31.5t114.5 57.5t92.5 91t80 128.5t73 173z" />
    <glyph glyph-name="Edieresis" unicode="&#xcb;" horiz-adv-x="1638" 
d="M584 1630q-69 0 -114.5 45t-45.5 111q0 67 45.5 111.5t114.5 44.5t114 -44t45 -112q0 -66 -45 -111t-114 -45zM993 1630q-69 0 -114 45t-45 111q0 68 45 112t114 44t114.5 -44.5t45.5 -111.5q0 -66 -45.5 -111t-114.5 -45zM1532 584l65 -21l-192 -573q-179 10 -510 10
h-832v59q122 9 163.5 45t41.5 132v1032q0 96 -41 131.5t-164 44.5v59h793q308 0 477 10l172 -552l-63 -23q-39 117 -80.5 194.5t-94.5 133.5t-127 86t-166.5 43.5t-225.5 13.5h-117v-594h104q93 0 145 29t84 100t56 211h63q-6 -240 -6 -397q0 -158 6 -398h-63
q-24 148 -56 223.5t-84 106.5t-145 31h-104v-502q0 -75 26 -100t105 -25h90q103 0 178.5 8.5t141.5 31.5t114.5 57.5t92.5 91t80 128.5t73 173z" />
    <glyph glyph-name="Igrave" unicode="&#xcc;" horiz-adv-x="899" 
d="M215 1710q-37 19 -57.5 49t-20.5 64q0 49 34 84t87 35q33 0 59 -13q98 -47 369 -280l-18 -41q-358 58 -453 102zM836 1444q-123 -9 -164 -44.5t-41 -131.5v-1032q0 -96 41.5 -132t163.5 -45v-59h-773v59q122 9 163.5 45t41.5 132v1032q0 96 -41 131.5t-164 44.5v59h773
v-59z" />
    <glyph glyph-name="Iacute" unicode="&#xcd;" horiz-adv-x="899" 
d="M672 1710q-91 -43 -451 -102l-18 41q271 233 366 280q26 13 60 13q53 0 87 -35t34 -84q0 -34 -20 -64.5t-58 -48.5zM836 1444q-123 -9 -164 -44.5t-41 -131.5v-1032q0 -96 41.5 -132t163.5 -45v-59h-773v59q122 9 163.5 45t41.5 132v1032q0 96 -41 131.5t-164 44.5v59
h773v-59z" />
    <glyph glyph-name="Icircumflex" unicode="&#xce;" horiz-adv-x="899" 
d="M449 1735l-330 -127l-25 43l332 291h47l332 -291l-25 -43zM836 1444q-123 -9 -164 -44.5t-41 -131.5v-1032q0 -96 41.5 -132t163.5 -45v-59h-773v59q122 9 163.5 45t41.5 132v1032q0 96 -41 131.5t-164 44.5v59h773v-59z" />
    <glyph glyph-name="Idieresis" unicode="&#xcf;" horiz-adv-x="899" 
d="M244 1630q-67 0 -112.5 45t-45.5 111q0 67 45 111.5t113 44.5q69 0 114 -44t45 -112q0 -66 -45 -111t-114 -45zM653 1630q-67 0 -112 45t-45 111q0 67 44.5 111.5t112.5 44.5q69 0 114.5 -44.5t45.5 -111.5q0 -66 -45.5 -111t-114.5 -45zM836 1444q-123 -9 -164 -44.5
t-41 -131.5v-1032q0 -96 41.5 -132t163.5 -45v-59h-773v59q122 9 163.5 45t41.5 132v1032q0 96 -41 131.5t-164 44.5v59h773v-59z" />
    <glyph glyph-name="Eth" unicode="&#xd0;" horiz-adv-x="1804" 
d="M874 1503q251 0 442.5 -93t296.5 -264t105 -394t-105 -394t-297 -264.5t-442 -93.5h-806v59q122 9 163 45t41 132v491h-204l16 80h188v461q0 96 -41 131.5t-163 44.5v59h806zM805 94q232 0 374 181t142 477q0 299 -133.5 478t-366.5 179h-188v-602h336l-17 -80h-319v-524
q0 -65 24.5 -87t94.5 -22h53z" />
    <glyph glyph-name="Ntilde" unicode="&#xd1;" horiz-adv-x="1718" 
d="M594 1745q-83 0 -115 -111l-47 13q12 118 87 206.5t171 88.5q35 0 77 -10t67.5 -19t74.5 -29q141 -59 224 -59q42 0 69.5 26.5t44.5 85.5l49 -12q-14 -122 -84.5 -209.5t-173.5 -87.5q-90 0 -225 60q-132 57 -219 57zM1114 1503h555v-59q-123 -9 -164 -44.5t-41 -131.5
v-1288h-63l-1026 1150v-854q0 -121 49 -164.5t197 -52.5v-59h-558v59q122 9 163.5 45t41.5 132v1042q0 90 -41.5 123.5t-163.5 42.5v59h457l840 -964v688q0 120 -49.5 164t-196.5 53v59z" />
    <glyph glyph-name="Ograve" unicode="&#xd2;" horiz-adv-x="1785" 
d="M1110 1608q-355 58 -451 102q-36 19 -56.5 49t-20.5 64q0 49 33.5 84t86.5 35q34 0 60 -13q96 -46 368 -280zM893 -20q-362 0 -583.5 212.5t-221.5 559.5t221.5 559.5t583.5 212.5t583.5 -212.5t221.5 -559.5t-221.5 -559.5t-583.5 -212.5zM893 74q184 0 295.5 186
t111.5 492t-111.5 492t-295.5 186q-183 0 -295.5 -186t-112.5 -492t112.5 -492t295.5 -186z" />
    <glyph glyph-name="Oacute" unicode="&#xd3;" horiz-adv-x="1785" 
d="M666 1608l-21 41q278 237 369 280q26 13 59 13q53 0 87 -35t34 -84q0 -34 -20.5 -64t-57.5 -49q-97 -44 -450 -102zM893 -20q-362 0 -583.5 212.5t-221.5 559.5t221.5 559.5t583.5 212.5t583.5 -212.5t221.5 -559.5t-221.5 -559.5t-583.5 -212.5zM893 74q184 0 295.5 186
t111.5 492t-111.5 492t-295.5 186q-183 0 -295.5 -186t-112.5 -492t112.5 -492t295.5 -186z" />
    <glyph glyph-name="Ocircumflex" unicode="&#xd4;" horiz-adv-x="1785" 
d="M893 1735l-330 -127l-24 43l331 291h45l334 -291l-24 -43zM893 1524q362 0 583.5 -212.5t221.5 -559.5t-221.5 -559.5t-583.5 -212.5t-583.5 212.5t-221.5 559.5t221.5 559.5t583.5 212.5zM893 74q184 0 295.5 186t111.5 492t-111.5 492t-295.5 186q-183 0 -295.5 -186
t-112.5 -492t112.5 -492t295.5 -186z" />
    <glyph glyph-name="Otilde" unicode="&#xd5;" horiz-adv-x="1785" 
d="M1067 1628q-88 0 -227 60q-129 57 -217 57q-83 0 -115 -111l-47 13q12 118 87 206.5t171 88.5q35 0 77 -10t67.5 -19t74.5 -29q137 -59 223 -59q83 0 115 112l49 -12q-14 -122 -85.5 -209.5t-172.5 -87.5zM893 -20q-362 0 -583.5 212.5t-221.5 559.5t221.5 559.5
t583.5 212.5t583.5 -212.5t221.5 -559.5t-221.5 -559.5t-583.5 -212.5zM893 74q184 0 295.5 186t111.5 492t-111.5 492t-295.5 186q-183 0 -295.5 -186t-112.5 -492t112.5 -492t295.5 -186z" />
    <glyph glyph-name="Odieresis" unicode="&#xd6;" horiz-adv-x="1785" 
d="M688 1630q-67 0 -112.5 45t-45.5 111q0 67 45 111.5t113 44.5q69 0 114.5 -44.5t45.5 -111.5q0 -66 -45.5 -111t-114.5 -45zM1098 1630q-67 0 -112.5 45t-45.5 111q0 67 45 111.5t113 44.5q69 0 114 -44t45 -112q0 -66 -45 -111t-114 -45zM893 -20q-362 0 -583.5 212.5
t-221.5 559.5t221.5 559.5t583.5 212.5t583.5 -212.5t221.5 -559.5t-221.5 -559.5t-583.5 -212.5zM893 74q184 0 295.5 186t111.5 492t-111.5 492t-295.5 186q-183 0 -295.5 -186t-112.5 -492t112.5 -492t295.5 -186z" />
    <glyph glyph-name="multiply" unicode="&#xd7;" horiz-adv-x="970" 
d="M825 342l-71 -72l-267 265l-272 -273l-72 72l273 272l-266 266l71 74l268 -266l256 256l72 -72l-256 -256z" />
    <glyph glyph-name="Oslash" unicode="&#xd8;" horiz-adv-x="1794" 
d="M1483 1309q105 -102 162 -244.5t57 -312.5q0 -347 -221.5 -559.5t-583.5 -212.5q-280 0 -481 131l-164 -197l-76 63l162 193q-118 102 -182 251.5t-64 330.5q0 347 221.5 559.5t583.5 212.5q304 0 510 -152l135 160l76 -62zM897 1430q-184 0 -296 -186t-112 -492
q0 -208 56 -371l678 809q-55 115 -138 177.5t-188 62.5zM897 74q184 0 296 186t112 492q0 190 -43 329l-672 -800q55 -100 133 -153.5t174 -53.5z" />
    <glyph glyph-name="Ugrave" unicode="&#xd9;" horiz-adv-x="1701" 
d="M739 1710q-77 38 -77 113q0 49 33.5 84t86.5 35q34 0 60 -13q95 -47 366 -280l-18 -41q-360 59 -451 102zM1663 1503v-59q-123 -9 -164 -44.5t-41 -131.5v-774q0 -240 -145 -377t-400 -137q-671 0 -671 528v760q0 96 -41 131.5t-164 44.5v59h813v-59
q-147 -9 -196.5 -46.5t-49.5 -137.5v-805q0 -172 102 -276.5t269 -104.5q170 0 273.5 108t103.5 285v760q0 121 -49 164.5t-197 52.5v59h557z" />
    <glyph glyph-name="Uacute" unicode="&#xda;" horiz-adv-x="1701" 
d="M1196 1710q-95 -44 -453 -102l-18 41q271 233 369 280q26 13 59 13q53 0 87 -35t34 -84q0 -34 -20.5 -64t-57.5 -49zM1663 1503v-59q-123 -9 -164 -44.5t-41 -131.5v-774q0 -240 -145 -377t-400 -137q-671 0 -671 528v760q0 96 -41 131.5t-164 44.5v59h813v-59
q-147 -9 -196.5 -46.5t-49.5 -137.5v-805q0 -172 102 -276.5t269 -104.5q170 0 273.5 108t103.5 285v760q0 121 -49 164.5t-197 52.5v59h557z" />
    <glyph glyph-name="Ucircumflex" unicode="&#xdb;" horiz-adv-x="1701" 
d="M973 1735l-332 -127l-25 43l334 291h45l332 -291l-24 -43zM1663 1503v-59q-123 -9 -164 -44.5t-41 -131.5v-774q0 -240 -145 -377t-400 -137q-671 0 -671 528v760q0 96 -41 131.5t-164 44.5v59h813v-59q-147 -9 -196.5 -46.5t-49.5 -137.5v-805q0 -172 102 -276.5
t269 -104.5q170 0 273.5 108t103.5 285v760q0 121 -49 164.5t-197 52.5v59h557z" />
    <glyph glyph-name="Udieresis" unicode="&#xdc;" horiz-adv-x="1701" 
d="M768 1630q-69 0 -114.5 45t-45.5 111q0 67 45.5 111.5t114.5 44.5q68 0 113 -44.5t45 -111.5q0 -66 -45.5 -111t-112.5 -45zM1178 1630q-69 0 -114.5 45t-45.5 111q0 67 45.5 111.5t114.5 44.5q68 0 112.5 -44.5t44.5 -111.5q0 -66 -45 -111t-112 -45zM1663 1503v-59
q-123 -9 -164 -44.5t-41 -131.5v-774q0 -240 -145 -377t-400 -137q-671 0 -671 528v760q0 96 -41 131.5t-164 44.5v59h813v-59q-147 -9 -196.5 -46.5t-49.5 -137.5v-805q0 -172 102 -276.5t269 -104.5q170 0 273.5 108t103.5 285v760q0 121 -49 164.5t-197 52.5v59h557z" />
    <glyph glyph-name="Yacute" unicode="&#xdd;" horiz-adv-x="1634" 
d="M1161 1710q-92 -44 -450 -102l-19 41q271 233 369 280q26 13 59 13q52 0 85.5 -35t33.5 -84q0 -34 -20 -64.5t-58 -48.5zM1012 1503h645v-59q-123 -11 -219 -82.5t-193 -247.5l-250 -446v-424q0 -101 46 -138.5t184 -46.5v-59h-819v59q138 9 183.5 46.5t45.5 138.5v426
l-318 555q-68 121 -128.5 166t-151.5 53v59h856v-59q-111 -4 -157 -25t-46 -63q0 -28 17 -67t57 -115l197 -371l145 264q62 114 89.5 175.5t27.5 100.5q0 50 -48.5 73.5t-162.5 27.5v59z" />
    <glyph glyph-name="Thorn" unicode="&#xde;" horiz-adv-x="1589" 
d="M813 362h-182v-86q0 -118 49 -161.5t197 -55.5v-59h-814v59q122 9 163.5 45t41.5 132v1032q0 96 -41 131.5t-164 44.5v59h773v-59q-123 -9 -164 -44.5t-41 -131.5v-62h270q280 0 450.5 -112.5t170.5 -298.5q0 -195 -195 -314t-514 -119zM815 1112h-184v-655h162
q149 0 240 93t91 245q0 144 -84.5 230.5t-224.5 86.5z" />
    <glyph glyph-name="germandbls" unicode="&#xdf;" horiz-adv-x="1425" 
d="M1102 735q54 -48 82 -74.5t74 -76t69.5 -87.5t42.5 -89.5t19 -100.5q0 -150 -107 -238.5t-276 -88.5q-90 0 -165 46t-114 128l41 41q35 -49 87 -78t103 -29q60 0 93.5 29.5t33.5 83.5q0 39 -23 78.5t-48 65t-76 71.5q-38 35 -60.5 57t-54 60t-49 70.5t-30.5 77t-13 91.5
t15 95t32 80t49 83q26 43 41.5 72t34.5 74.5t28 96t9 107.5q0 88 -41.5 141.5t-110.5 53.5q-114 0 -183.5 -132t-69.5 -349v-906q0 -71 30.5 -97t120.5 -32v-59h-647v59q91 6 121 32t30 97v785h-151v55l156 78q22 248 182.5 396.5t410.5 148.5q215 0 346.5 -76t131.5 -199
q0 -43 -16.5 -80t-49.5 -68.5t-60.5 -51t-72.5 -46.5q-72 -46 -109.5 -82.5t-37.5 -82.5q0 -35 28 -76.5t61 -72t93 -81.5z" />
    <glyph glyph-name="agrave" unicode="&#xe0;" horiz-adv-x="1230" 
d="M424 1430q-45 39 -45 96q0 49 36.5 84t84.5 35q51 0 92 -41q73 -73 256 -383l-31 -33q-306 159 -393 242zM1190 262l43 -26q-38 -118 -118.5 -187t-178.5 -69q-91 0 -150.5 38.5t-68.5 104.5v20q-66 -75 -166 -119t-211 -44q-129 0 -206 60t-77 159q0 84 63 150.5
t202 119.5l395 147v209q0 91 -47 143t-129 52q-37 0 -92 -19v-378q-85 -54 -177 -54q-70 0 -111.5 35.5t-41.5 100.5q0 87 53 164.5t138 130.5t192 83.5t215 30.5q159 0 251.5 -85.5t92.5 -233.5v-576q0 -31 8 -43t29 -12q49 0 92 98zM543 164q85 0 174 72v292l-68 -26
q-108 -42 -168.5 -101t-60.5 -120q0 -53 34 -85t89 -32z" />
    <glyph glyph-name="aacute" unicode="&#xe1;" horiz-adv-x="1230" 
d="M860 1430q-87 -83 -393 -242l-31 33q175 302 256 383q41 41 92 41q48 0 84.5 -35t36.5 -84q0 -57 -45 -96zM1190 262l43 -26q-38 -118 -118.5 -187t-178.5 -69q-91 0 -150.5 38.5t-68.5 104.5v20q-66 -75 -166 -119t-211 -44q-129 0 -206 60t-77 159q0 84 63 150.5
t202 119.5l395 147v209q0 91 -47 143t-129 52q-37 0 -92 -19v-378q-85 -54 -177 -54q-70 0 -111.5 35.5t-41.5 100.5q0 87 53 164.5t138 130.5t192 83.5t215 30.5q159 0 251.5 -85.5t92.5 -233.5v-576q0 -31 8 -43t29 -12q49 0 92 98zM543 164q85 0 174 72v292l-68 -26
q-108 -42 -168.5 -101t-60.5 -120q0 -53 34 -85t89 -32z" />
    <glyph glyph-name="acircumflex" unicode="&#xe2;" horiz-adv-x="1230" 
d="M651 1401l-317 -213l-33 31l326 426h47l325 -426l-32 -31zM1190 262l43 -26q-38 -118 -118.5 -187t-178.5 -69q-91 0 -150.5 38.5t-68.5 104.5v20q-66 -75 -166 -119t-211 -44q-129 0 -206 60t-77 159q0 84 63 150.5t202 119.5l395 147v209q0 91 -47 143t-129 52
q-37 0 -92 -19v-378q-85 -54 -177 -54q-70 0 -111.5 35.5t-41.5 100.5q0 87 53 164.5t138 130.5t192 83.5t215 30.5q159 0 251.5 -85.5t92.5 -233.5v-576q0 -31 8 -43t29 -12q49 0 92 98zM543 164q85 0 174 72v292l-68 -26q-108 -42 -168.5 -101t-60.5 -120q0 -53 34 -85
t89 -32z" />
    <glyph glyph-name="atilde" unicode="&#xe3;" horiz-adv-x="1230" 
d="M395 1391q-78 0 -110 -113l-47 12q13 122 83 209.5t171 87.5q73 0 202 -59q132 -60 209 -60q40 0 67 27t44 86l47 -12q-13 -121 -82.5 -209t-169.5 -88q-82 0 -211 59q-128 60 -203 60zM1190 262l43 -26q-38 -118 -118.5 -187t-178.5 -69q-91 0 -150.5 38.5t-68.5 104.5
v20q-66 -75 -166 -119t-211 -44q-129 0 -206 60t-77 159q0 84 63 150.5t202 119.5l395 147v209q0 91 -47 143t-129 52q-37 0 -92 -19v-378q-85 -54 -177 -54q-70 0 -111.5 35.5t-41.5 100.5q0 87 53 164.5t138 130.5t192 83.5t215 30.5q159 0 251.5 -85.5t92.5 -233.5v-576
q0 -31 8 -43t29 -12q49 0 92 98zM543 164q85 0 174 72v292l-68 -26q-108 -42 -168.5 -101t-60.5 -120q0 -53 34 -85t89 -32z" />
    <glyph glyph-name="adieresis" unicode="&#xe4;" horiz-adv-x="1230" 
d="M446 1292q-69 0 -114 44t-45 112t45 112t114 44q68 0 113 -44.5t45 -111.5t-45 -111.5t-113 -44.5zM856 1292q-69 0 -114.5 44.5t-45.5 111.5t45.5 111.5t114.5 44.5q68 0 113 -44.5t45 -111.5t-45 -111.5t-113 -44.5zM1190 262l43 -26q-38 -118 -118.5 -187t-178.5 -69
q-91 0 -150.5 38.5t-68.5 104.5v20q-66 -75 -166 -119t-211 -44q-129 0 -206 60t-77 159q0 84 63 150.5t202 119.5l395 147v209q0 91 -47 143t-129 52q-37 0 -92 -19v-378q-85 -54 -177 -54q-70 0 -111.5 35.5t-41.5 100.5q0 87 53 164.5t138 130.5t192 83.5t215 30.5
q159 0 251.5 -85.5t92.5 -233.5v-576q0 -31 8 -43t29 -12q49 0 92 98zM543 164q85 0 174 72v292l-68 -26q-108 -42 -168.5 -101t-60.5 -120q0 -53 34 -85t89 -32z" />
    <glyph glyph-name="aring" unicode="&#xe5;" horiz-adv-x="1230" 
d="M651 1210q-106 0 -169.5 59.5t-63.5 157.5t63.5 158t169.5 60q105 0 169.5 -60t64.5 -158t-64.5 -157.5t-169.5 -59.5zM651 1569q-66 0 -106.5 -39.5t-40.5 -102.5t40.5 -102t106.5 -39q65 0 105.5 39t40.5 102t-40.5 102.5t-105.5 39.5zM1190 262l43 -26
q-38 -118 -118.5 -187t-178.5 -69q-91 0 -150.5 38.5t-68.5 104.5v20q-66 -75 -166 -119t-211 -44q-129 0 -206 60t-77 159q0 84 63 150.5t202 119.5l395 147v209q0 91 -47 143t-129 52q-37 0 -92 -19v-378q-85 -54 -177 -54q-70 0 -111.5 35.5t-41.5 100.5q0 87 53 164.5
t138 130.5t192 83.5t215 30.5q159 0 251.5 -85.5t92.5 -233.5v-576q0 -31 8 -43t29 -12q49 0 92 98zM543 164q85 0 174 72v292l-68 -26q-108 -42 -168.5 -101t-60.5 -120q0 -53 34 -85t89 -32z" />
    <glyph glyph-name="ae" unicode="&#xe6;" horiz-adv-x="1853" 
d="M1757 328l43 -25q-63 -146 -205.5 -234.5t-314.5 -88.5q-156 0 -278 61.5t-195 173.5q-84 -108 -208.5 -171.5t-258.5 -63.5q-129 0 -206 60t-77 159q0 84 63 150.5t202 119.5l395 147v209q0 91 -47 143t-129 52q-37 0 -92 -19v-378q-85 -54 -177 -54q-70 0 -111.5 35.5
t-41.5 100.5q0 115 85 211t214 147t266 51q90 0 157 -41t101 -115q140 156 367 156q214 0 344.5 -130.5t130.5 -344.5h-723v-12q0 -197 107 -318t284 -121q83 0 167 38.5t138 101.5zM1305 1036q-96 0 -159.5 -84.5t-80.5 -232.5h162q105 0 165 45.5t60 122.5
q0 66 -40.5 107.5t-106.5 41.5zM543 164q112 0 225 123q-48 109 -51 241l-68 -26q-108 -42 -168.5 -101t-60.5 -120q0 -53 34 -85t89 -32z" />
    <glyph glyph-name="ccedilla" unicode="&#xe7;" horiz-adv-x="1183" 
d="M1130 303q-57 -138 -183.5 -225t-280.5 -96l-33 -52q184 -94 184 -194q0 -151 -311 -166l-10 41q125 36 125 90q0 31 -35 64.5t-111 76.5l86 142q-224 20 -358.5 172t-134.5 389q0 257 165.5 413t436.5 156q201 0 323.5 -99.5t122.5 -262.5q0 -78 -50 -126t-132 -48
q-105 0 -146 47v399q-35 14 -86 14q-131 0 -210.5 -112.5t-79.5 -298.5q0 -197 106 -318t279 -121q84 0 166 38t127 102z" />
    <glyph glyph-name="egrave" unicode="&#xe8;" horiz-adv-x="1204" 
d="M430 1430q-45 39 -45 96q0 49 36.5 84t84.5 35q51 0 92 -41q81 -81 256 -383l-31 -33q-306 159 -393 242zM1108 328l43 -25q-63 -146 -205 -234.5t-313 -88.5q-255 0 -410 154.5t-155 408.5q0 258 162.5 414.5t428.5 156.5q214 0 345 -130.5t131 -344.5h-723v-12
q0 -197 107.5 -318t285.5 -121q82 0 165.5 38.5t137.5 101.5zM657 1036q-96 0 -160 -85t-81 -232h162q105 0 166 45.5t61 122.5q0 66 -41 107.5t-107 41.5z" />
    <glyph glyph-name="eacute" unicode="&#xe9;" horiz-adv-x="1204" 
d="M866 1430q-87 -83 -393 -242l-31 33q183 310 256 383q41 41 93 41q48 0 84 -35t36 -84q0 -57 -45 -96zM1108 328l43 -25q-63 -146 -205 -234.5t-313 -88.5q-255 0 -410 154.5t-155 408.5q0 258 162.5 414.5t428.5 156.5q214 0 345 -130.5t131 -344.5h-723v-12
q0 -197 107.5 -318t285.5 -121q82 0 165.5 38.5t137.5 101.5zM657 1036q-96 0 -160 -85t-81 -232h162q105 0 166 45.5t61 122.5q0 66 -41 107.5t-107 41.5z" />
    <glyph glyph-name="ecircumflex" unicode="&#xea;" horiz-adv-x="1204" 
d="M657 1401l-317 -213l-33 31l328 426h45l326 -426l-33 -31zM1108 328l43 -25q-63 -146 -205 -234.5t-313 -88.5q-255 0 -410 154.5t-155 408.5q0 258 162.5 414.5t428.5 156.5q214 0 345 -130.5t131 -344.5h-723v-12q0 -197 107.5 -318t285.5 -121q82 0 165.5 38.5
t137.5 101.5zM657 1036q-96 0 -160 -85t-81 -232h162q105 0 166 45.5t61 122.5q0 66 -41 107.5t-107 41.5z" />
    <glyph glyph-name="edieresis" unicode="&#xeb;" horiz-adv-x="1204" 
d="M453 1292q-69 0 -114.5 44.5t-45.5 111.5t45.5 111.5t114.5 44.5q68 0 112.5 -44.5t44.5 -111.5t-44.5 -111.5t-112.5 -44.5zM862 1292q-69 0 -114.5 44.5t-45.5 111.5t45.5 111.5t114.5 44.5q68 0 113 -44.5t45 -111.5t-45 -111.5t-113 -44.5zM1108 328l43 -25
q-63 -146 -205 -234.5t-313 -88.5q-255 0 -410 154.5t-155 408.5q0 258 162.5 414.5t428.5 156.5q214 0 345 -130.5t131 -344.5h-723v-12q0 -197 107.5 -318t285.5 -121q82 0 165.5 38.5t137.5 101.5zM657 1036q-96 0 -160 -85t-81 -232h162q105 0 166 45.5t61 122.5
q0 66 -41 107.5t-107 41.5z" />
    <glyph glyph-name="igrave" unicode="&#xec;" horiz-adv-x="708" 
d="M137 1430q-45 42 -45 96q0 49 36.5 84t84.5 35q54 0 92 -41q81 -81 256 -383l-31 -33q-139 72 -246 138.5t-147 103.5zM537 188q0 -71 30.5 -97t120.5 -32v-59h-647v59q91 6 121.5 32t30.5 97v570q0 77 -31 108.5t-121 46.5v56q278 72 491 143h5v-924z" />
    <glyph glyph-name="iacute" unicode="&#xed;" horiz-adv-x="708" 
d="M575 1430q-40 -37 -147.5 -103.5t-247.5 -138.5l-30 33q183 310 256 383q41 41 94 41q47 0 82.5 -35t35.5 -84q0 -56 -43 -96zM537 188q0 -71 30.5 -97t120.5 -32v-59h-647v59q91 6 121.5 32t30.5 97v570q0 77 -31 108.5t-121 46.5v56q278 72 491 143h5v-924z" />
    <glyph glyph-name="icircumflex" unicode="&#xee;" horiz-adv-x="708" 
d="M365 1401l-318 -213l-31 31l326 426h45l326 -426l-31 -31zM537 188q0 -71 30.5 -97t120.5 -32v-59h-647v59q91 6 121.5 32t30.5 97v570q0 77 -31 108.5t-121 46.5v56q278 72 491 143h5v-924z" />
    <glyph glyph-name="idieresis" unicode="&#xef;" horiz-adv-x="708" 
d="M197 1303q-62 0 -103 41t-41 104q0 64 41 104.5t103 40.5t102.5 -40.5t40.5 -104.5q0 -63 -40.5 -104t-102.5 -41zM532 1303q-62 0 -102.5 41t-40.5 104q0 64 40.5 104.5t102.5 40.5t103 -40.5t41 -104.5q0 -63 -41 -104t-103 -41zM537 188q0 -71 30.5 -97t120.5 -32v-59
h-647v59q91 6 121.5 32t30.5 97v570q0 77 -31 108.5t-121 46.5v56q278 72 491 143h5v-924z" />
    <glyph glyph-name="eth" unicode="&#xf0;" horiz-adv-x="1323" 
d="M717 1448q251 -159 391.5 -372.5t140.5 -440.5q0 -295 -163 -475t-429 -180q-264 0 -426.5 156t-162.5 411q0 252 144 409.5t363 157.5q100 0 175 -37q-77 159 -205 299l-355 -149l-26 65l328 138q-102 99 -234 176l18 45q188 -61 365 -158l375 158l26 -66zM657 55
q98 0 159 136t61 356v2q0 119 -27 227t-78.5 178t-114.5 70q-96 0 -156.5 -132t-60.5 -345q0 -221 60 -356.5t157 -135.5z" />
    <glyph glyph-name="ntilde" unicode="&#xf1;" horiz-adv-x="1398" 
d="M455 1391q-79 0 -111 -113l-47 12q13 122 83 209.5t171 87.5q77 0 203 -59q132 -60 209 -60q82 0 110 113l49 -12q-14 -122 -84 -209.5t-170 -87.5q-82 0 -211 59q-42 20 -67.5 30.5t-63 20t-71.5 9.5zM1235 188q0 -71 30.5 -97t120.5 -32v-59h-630v59q81 6 108 32t27 97
v539q0 203 -176 203q-89 0 -178 -72v-670q0 -71 27 -97t108 -32v-59h-631v59q91 6 121.5 32t30.5 97v570q0 77 -31 108.5t-121 46.5v56q278 72 491 143h5v-162q83 75 190.5 119.5t212.5 44.5q137 0 216 -85.5t79 -233.5v-607z" />
    <glyph glyph-name="ograve" unicode="&#xf2;" horiz-adv-x="1343" 
d="M838 1188q-300 156 -394 242q-43 40 -43 96q0 49 36 84t83 35q54 0 92 -41q81 -81 256 -383zM672 -20q-272 0 -438 156t-166 411t166 411t438 156t438 -156t166 -411t-166 -411t-438 -156zM672 55q104 0 167.5 135.5t63.5 356.5t-63.5 356t-167.5 135
q-103 0 -167.5 -135.5t-64.5 -355.5t64.5 -356t167.5 -136z" />
    <glyph glyph-name="oacute" unicode="&#xf3;" horiz-adv-x="1343" 
d="M489 1188l-30 33q175 302 256 383q38 41 92 41q47 0 83 -35t36 -84q0 -56 -43 -96q-94 -86 -394 -242zM672 -20q-272 0 -438 156t-166 411t166 411t438 156t438 -156t166 -411t-166 -411t-438 -156zM672 55q104 0 167.5 135.5t63.5 356.5t-63.5 356t-167.5 135
q-103 0 -167.5 -135.5t-64.5 -355.5t64.5 -356t167.5 -136z" />
    <glyph glyph-name="ocircumflex" unicode="&#xf4;" horiz-adv-x="1343" 
d="M672 1401l-316 -213l-32 31l325 426h45l328 -426l-33 -31zM672 1114q272 0 438 -156t166 -411t-166 -411t-438 -156t-438 156t-166 411t166 411t438 156zM672 55q104 0 167.5 135.5t63.5 356.5t-63.5 356t-167.5 135q-103 0 -167.5 -135.5t-64.5 -355.5t64.5 -356
t167.5 -136z" />
    <glyph glyph-name="otilde" unicode="&#xf5;" horiz-adv-x="1343" 
d="M829 1272q-82 0 -208 59q-44 20 -69.5 30.5t-63 20t-70.5 9.5q-83 0 -111 -113l-49 12q13 121 83.5 209t170.5 88q76 0 205 -59q128 -60 209 -60q78 0 110 113l47 -12q-14 -122 -83.5 -209.5t-170.5 -87.5zM672 -20q-272 0 -438 156t-166 411t166 411t438 156t438 -156
t166 -411t-166 -411t-438 -156zM672 55q104 0 167.5 135.5t63.5 356.5t-63.5 356t-167.5 135q-103 0 -167.5 -135.5t-64.5 -355.5t64.5 -356t167.5 -136z" />
    <glyph glyph-name="odieresis" unicode="&#xf6;" horiz-adv-x="1343" 
d="M467 1292q-68 0 -113 44.5t-45 111.5t45 111.5t113 44.5q69 0 114.5 -44.5t45.5 -111.5t-45.5 -111.5t-114.5 -44.5zM877 1292q-68 0 -113 44.5t-45 111.5t45 111.5t113 44.5q69 0 114 -44t45 -112t-45 -112t-114 -44zM672 -20q-272 0 -438 156t-166 411t166 411t438 156
t438 -156t166 -411t-166 -411t-438 -156zM672 55q104 0 167.5 135.5t63.5 356.5t-63.5 356t-167.5 135q-103 0 -167.5 -135.5t-64.5 -355.5t64.5 -356t167.5 -136z" />
    <glyph glyph-name="divide" unicode="&#xf7;" horiz-adv-x="970" 
d="M485 739q-67 0 -109 42t-42 110q0 67 42 109t109 42q68 0 110 -42t42 -109t-42.5 -109.5t-109.5 -42.5zM96 557v94h778v-94h-778zM485 166q-68 0 -109.5 41t-41.5 108q0 68 42 110t109 42t109.5 -42.5t42.5 -109.5t-42 -108t-110 -41z" />
    <glyph glyph-name="oslash" unicode="&#xf8;" horiz-adv-x="1355" 
d="M1112 961q168 -158 168 -414q0 -255 -166 -411t-438 -156q-201 0 -346 88l-129 -154l-76 63l125 148q-178 158 -178 422q0 255 166 411t438 156q208 0 356 -94l135 160l76 -64zM676 1038q-104 0 -168 -135t-64 -356q0 -84 15 -191l409 486q-31 94 -80 145t-112 51z
M676 55q104 0 167.5 135.5t63.5 356.5q0 97 -12 176l-406 -485q30 -87 78 -135t109 -48z" />
    <glyph glyph-name="ugrave" unicode="&#xf9;" horiz-adv-x="1361" 
d="M453 1430q-45 39 -45 96q0 49 36 84t84 35q52 0 93 -41q73 -73 256 -383l-31 -33q-306 159 -393 242zM1190 256q0 -71 30.5 -97t120.5 -32v-55q-305 -54 -491 -92h-4v163q-67 -74 -172 -118.5t-221 -44.5q-130 0 -207.5 81t-77.5 218v479q0 77 -30.5 108.5t-121.5 46.5
v56q337 91 492 143h4v-766q0 -182 166 -182q83 0 168 72v522q0 77 -30.5 108.5t-121.5 46.5v56q337 91 492 143h4v-856z" />
    <glyph glyph-name="uacute" unicode="&#xfa;" horiz-adv-x="1361" 
d="M889 1430q-87 -83 -393 -242l-31 33q175 302 256 383q41 41 92 41q48 0 84.5 -35t36.5 -84q0 -57 -45 -96zM1190 256q0 -71 30.5 -97t120.5 -32v-55q-305 -54 -491 -92h-4v163q-67 -74 -172 -118.5t-221 -44.5q-130 0 -207.5 81t-77.5 218v479q0 77 -30.5 108.5
t-121.5 46.5v56q337 91 492 143h4v-766q0 -182 166 -182q83 0 168 72v522q0 77 -30.5 108.5t-121.5 46.5v56q337 91 492 143h4v-856z" />
    <glyph glyph-name="ucircumflex" unicode="&#xfb;" horiz-adv-x="1361" 
d="M680 1401l-318 -213l-32 31l325 426h47l326 -426l-33 -31zM1190 256q0 -71 30.5 -97t120.5 -32v-55q-305 -54 -491 -92h-4v163q-67 -74 -172 -118.5t-221 -44.5q-130 0 -207.5 81t-77.5 218v479q0 77 -30.5 108.5t-121.5 46.5v56q337 91 492 143h4v-766q0 -182 166 -182
q83 0 168 72v522q0 77 -30.5 108.5t-121.5 46.5v56q337 91 492 143h4v-856z" />
    <glyph glyph-name="udieresis" unicode="&#xfc;" horiz-adv-x="1361" 
d="M475 1292q-69 0 -114.5 44.5t-45.5 111.5t45.5 111.5t114.5 44.5q68 0 113 -44.5t45 -111.5t-45 -111.5t-113 -44.5zM885 1292q-69 0 -114.5 44.5t-45.5 111.5t45.5 111.5t114.5 44.5q68 0 112.5 -44.5t44.5 -111.5t-44.5 -111.5t-112.5 -44.5zM1190 256q0 -71 30.5 -97
t120.5 -32v-55q-305 -54 -491 -92h-4v163q-67 -74 -172 -118.5t-221 -44.5q-130 0 -207.5 81t-77.5 218v479q0 77 -30.5 108.5t-121.5 46.5v56q337 91 492 143h4v-766q0 -182 166 -182q83 0 168 72v522q0 77 -30.5 108.5t-121.5 46.5v56q337 91 492 143h4v-856z" />
    <glyph glyph-name="yacute" unicode="&#xfd;" horiz-adv-x="1308" 
d="M971 1430q-87 -83 -393 -242l-31 33q183 310 256 383q41 41 92 41q48 0 84.5 -35t36.5 -84q0 -57 -45 -96zM834 1094h497v-60q-90 -10 -141.5 -58t-116.5 -181l-498 -1022q-49 -99 -132.5 -151t-190.5 -52q-80 0 -129 42t-49 109q0 54 22 93l412 2q0 1 1 2t1 2l98 205
l-415 858q-41 87 -82 117.5t-121 33.5v60h702v-60q-76 -2 -108.5 -17.5t-32.5 -55.5q0 -47 57 -164l183 -387l122 256q91 187 91 258q0 55 -39.5 79.5t-130.5 30.5v60z" />
    <glyph glyph-name="thorn" unicode="&#xfe;" horiz-adv-x="1333" 
d="M809 1114q204 0 329.5 -145t125.5 -383q0 -272 -144 -439t-379 -167q-147 0 -262 73v-233q0 -92 39 -126.5t154 -43.5v-60h-688v60q91 6 121 32t30 97v1509q0 82 -29.5 113t-121.5 43v55q309 88 491 150h4v-701q55 76 145.5 121t184.5 45zM655 72q106 0 171 123t65 323
q0 186 -66.5 300t-173.5 114q-45 0 -92 -20.5t-80 -53.5v-637q26 -73 72 -111t104 -38z" />
    <glyph glyph-name="ydieresis" unicode="&#xff;" horiz-adv-x="1308" 
d="M557 1292q-69 0 -114.5 44.5t-45.5 111.5t45.5 111.5t114.5 44.5q68 0 113 -44.5t45 -111.5t-45 -111.5t-113 -44.5zM967 1292q-69 0 -114.5 44.5t-45.5 111.5t45.5 111.5t114.5 44.5q68 0 112.5 -44.5t44.5 -111.5t-44.5 -111.5t-112.5 -44.5zM834 1094h497v-60
q-90 -10 -141.5 -58t-116.5 -181l-498 -1022q-49 -99 -132.5 -151t-190.5 -52q-80 0 -129 42t-49 109q0 54 22 93l412 2q0 1 1 2t1 2l98 205l-415 858q-41 87 -82 117.5t-121 33.5v60h702v-60q-76 -2 -108.5 -17.5t-32.5 -55.5q0 -47 57 -164l183 -387l122 256
q91 187 91 258q0 55 -39.5 79.5t-130.5 30.5v60z" />
    <glyph glyph-name="Amacron" unicode="&#x100;" horiz-adv-x="1703" 
d="M1221 1800l-19 -94h-733l18 94h734zM1491 211q39 -91 84 -120t143 -32v-59h-852v59q130 9 181 30.5t51 70.5q0 45 -39 137l-66 164h-542l-13 -33q-42 -108 -60 -164t-18 -94q0 -57 48 -81t165 -30v-59h-571v59q102 11 157 58.5t109 181.5l383 946l-45 113q124 52 283 166
h45zM487 555h467l-237 592z" />
    <glyph glyph-name="amacron" unicode="&#x101;" horiz-adv-x="1230" 
d="M1026 1475l-18 -95h-734l19 95h733zM1190 262l43 -26q-38 -118 -118.5 -187t-178.5 -69q-91 0 -150.5 38.5t-68.5 104.5v20q-66 -75 -166 -119t-211 -44q-129 0 -206 60t-77 159q0 84 63 150.5t202 119.5l395 147v209q0 91 -47 143t-129 52q-37 0 -92 -19v-378
q-85 -54 -177 -54q-70 0 -111.5 35.5t-41.5 100.5q0 87 53 164.5t138 130.5t192 83.5t215 30.5q159 0 251.5 -85.5t92.5 -233.5v-576q0 -31 8 -43t29 -12q49 0 92 98zM543 164q85 0 174 72v292l-68 -26q-108 -42 -168.5 -101t-60.5 -120q0 -53 34 -85t89 -32z" />
    <glyph glyph-name="Abreve" unicode="&#x102;" horiz-adv-x="1703" 
d="M846 1587q-104 0 -200.5 83.5t-172.5 234.5l39 32q141 -151 334 -151t334 151l39 -32q-76 -151 -172.5 -234.5t-200.5 -83.5zM1491 211q39 -91 84 -120t143 -32v-59h-852v59q130 9 181 30.5t51 70.5q0 45 -39 137l-66 164h-542l-13 -33q-42 -108 -60 -164t-18 -94
q0 -57 48 -81t165 -30v-59h-571v59q102 11 157 58.5t109 181.5l383 946l-45 113q124 52 283 166h45zM487 555h467l-237 592z" />
    <glyph glyph-name="abreve" unicode="&#x103;" horiz-adv-x="1230" 
d="M651 1194q-115 0 -205 111t-141 315l47 20q51 -116 128.5 -182.5t170.5 -66.5q92 0 169 66.5t128 182.5l47 -20q-51 -204 -140.5 -315t-203.5 -111zM1190 262l43 -26q-38 -118 -118.5 -187t-178.5 -69q-91 0 -150.5 38.5t-68.5 104.5v20q-66 -75 -166 -119t-211 -44
q-129 0 -206 60t-77 159q0 84 63 150.5t202 119.5l395 147v209q0 91 -47 143t-129 52q-37 0 -92 -19v-378q-85 -54 -177 -54q-70 0 -111.5 35.5t-41.5 100.5q0 87 53 164.5t138 130.5t192 83.5t215 30.5q159 0 251.5 -85.5t92.5 -233.5v-576q0 -31 8 -43t29 -12q49 0 92 98z
M543 164q85 0 174 72v292l-68 -26q-108 -42 -168.5 -101t-60.5 -120q0 -53 34 -85t89 -32z" />
    <glyph glyph-name="Aogonek" unicode="&#x104;" horiz-adv-x="1703" 
d="M1659 0q-93 -48 -151 -114t-58 -126q0 -32 23.5 -52.5t60.5 -20.5q66 0 125 49l20 -51q-45 -40 -125 -72.5t-170 -32.5q-87 0 -140.5 39t-53.5 102q0 81 88.5 152.5t249.5 126.5h-662v59q130 9 181 30.5t51 70.5q0 45 -39 137l-66 164h-542l-13 -33q-42 -108 -60 -164
t-18 -94q0 -57 48 -81t165 -30v-59h-571v59q102 11 157 58.5t109 181.5l383 946l-45 113q124 52 283 166h45l557 -1313q39 -91 84 -120t143 -32v-59h-59zM487 555h467l-237 592z" />
    <glyph glyph-name="aogonek" unicode="&#x105;" horiz-adv-x="1230" 
d="M1061 -313q63 0 119 49l20 -51q-43 -40 -122 -72.5t-169 -32.5q-85 0 -137.5 39t-52.5 102q0 130 180 261q-76 8 -125.5 45t-56.5 96v20q-66 -75 -166 -119t-211 -44q-129 0 -206 60t-77 159q0 84 63 150.5t202 119.5l395 147v209q0 91 -47 143t-129 52q-37 0 -92 -19
v-378q-85 -54 -177 -54q-70 0 -111.5 35.5t-41.5 100.5q0 87 53 164.5t138 130.5t192 83.5t215 30.5q159 0 251.5 -85.5t92.5 -233.5v-576q0 -31 8 -43t29 -12q49 0 92 98l43 -26q-29 -96 -94 -164q-158 -191 -158 -312q0 -32 22.5 -52.5t57.5 -20.5zM543 164q85 0 174 72
v292l-68 -26q-108 -42 -168.5 -101t-60.5 -120q0 -53 34 -85t89 -32z" />
    <glyph glyph-name="Cacute" unicode="&#x106;" horiz-adv-x="1548" 
d="M662 1608l-21 41q278 237 369 280q26 13 59 13q53 0 87 -35t34 -84q0 -34 -20.5 -64t-57.5 -49q-97 -44 -450 -102zM827 -20q-219 0 -387 95.5t-260 270.5t-92 404t100 405t282.5 272.5t420.5 96.5q71 0 140.5 -18.5t122 -37t81.5 -18.5t42.5 12.5t25.5 50.5h32l121 -544
l-59 -17q-184 478 -512 478q-195 0 -314.5 -152t-119.5 -401q0 -303 152 -488.5t401 -185.5q126 0 247 63t189 168l51 -28q-81 -193 -264.5 -309.5t-399.5 -116.5z" />
    <glyph glyph-name="cacute" unicode="&#x107;" horiz-adv-x="1183" 
d="M877 1430q-86 -82 -394 -242l-30 33q175 302 256 383q41 41 92 41q48 0 84.5 -35t36.5 -84q0 -57 -45 -96zM1090 328l40 -25q-60 -146 -198 -234.5t-303 -88.5q-252 0 -406.5 155t-154.5 410q0 257 165.5 413t436.5 156q201 0 323.5 -99.5t122.5 -262.5q0 -78 -50 -126
t-132 -48q-105 0 -146 47v399q-35 14 -86 14q-131 0 -210.5 -112.5t-79.5 -298.5q0 -197 106 -318t279 -121q84 0 166 38t127 102z" />
    <glyph glyph-name="Cdotaccent" unicode="&#x10a;" horiz-adv-x="1548" 
d="M889 1599q-88 0 -146.5 56t-58.5 141t58.5 141t146.5 56q89 0 147 -56t58 -141t-58 -141t-147 -56zM827 -20q-219 0 -387 95.5t-260 270.5t-92 404t100 405t282.5 272.5t420.5 96.5q71 0 140.5 -18.5t122 -37t81.5 -18.5t42.5 12.5t25.5 50.5h32l121 -544l-59 -17
q-184 478 -512 478q-195 0 -314.5 -152t-119.5 -401q0 -303 152 -488.5t401 -185.5q126 0 247 63t189 168l51 -28q-81 -193 -264.5 -309.5t-399.5 -116.5z" />
    <glyph glyph-name="cdotaccent" unicode="&#x10b;" horiz-adv-x="1183" 
d="M668 1251q-89 0 -147 56t-58 141t58 141t147 56q88 0 146 -56t58 -141t-58 -141t-146 -56zM1090 328l40 -25q-60 -146 -198 -234.5t-303 -88.5q-252 0 -406.5 155t-154.5 410q0 257 165.5 413t436.5 156q201 0 323.5 -99.5t122.5 -262.5q0 -78 -50 -126t-132 -48
q-105 0 -146 47v399q-35 14 -86 14q-131 0 -210.5 -112.5t-79.5 -298.5q0 -197 106 -318t279 -121q84 0 166 38t127 102z" />
    <glyph glyph-name="Ccaron" unicode="&#x10c;" horiz-adv-x="1548" 
d="M911 1608h-45l-331 293l24 41l330 -125l332 125l24 -41zM1440 434l51 -28q-81 -193 -264.5 -309.5t-399.5 -116.5q-219 0 -387 95.5t-260 270.5t-92 404t100 405t282.5 272.5t420.5 96.5q71 0 140.5 -18.5t122 -37t81.5 -18.5t42.5 12.5t25.5 50.5h32l121 -544l-59 -17
q-184 478 -512 478q-195 0 -314.5 -152t-119.5 -401q0 -303 152 -488.5t401 -185.5q126 0 247 63t189 168z" />
    <glyph glyph-name="ccaron" unicode="&#x10d;" horiz-adv-x="1183" 
d="M690 1188h-47l-326 426l33 31l318 -213l315 213l33 -31zM1090 328l40 -25q-60 -146 -198 -234.5t-303 -88.5q-252 0 -406.5 155t-154.5 410q0 257 165.5 413t436.5 156q201 0 323.5 -99.5t122.5 -262.5q0 -78 -50 -126t-132 -48q-105 0 -146 47v399q-35 14 -86 14
q-131 0 -210.5 -112.5t-79.5 -298.5q0 -197 106 -318t279 -121q84 0 166 38t127 102z" />
    <glyph glyph-name="Dcaron" unicode="&#x10e;" horiz-adv-x="1800" 
d="M803 1608h-47l-332 293l25 41l329 -125l332 125l25 -41zM872 1503q379 0 610.5 -206.5t231.5 -544.5t-231.5 -545t-610.5 -207h-809v59q122 9 163.5 45t41.5 132v1032q0 96 -41 131.5t-164 44.5v59h809zM803 94q232 0 373 181t141 477q0 299 -133.5 478t-364.5 179h-188
v-1206q0 -64 24 -86.5t93 -22.5h55z" />
    <glyph glyph-name="dcaron" unicode="&#x10f;" horiz-adv-x="1398" 
d="M1403 1651q72 0 116 -50.5t44 -132.5q0 -90 -66 -173.5t-172 -129.5l-25 58q50 25 80.5 60.5t30.5 70.5q0 37 -33 62t-86 28q-32 37 -32 84q0 53 41 88t102 35zM1198 256q0 -71 30 -97t122 -32v-55q-304 -53 -492 -92h-4v165q-55 -76 -145 -120.5t-185 -44.5
q-204 0 -329 145t-125 383q0 272 143.5 439t378.5 167q145 0 262 -74v248q0 82 -30.5 113t-121.5 43v55q318 91 492 150h4v-1393zM682 162q45 0 92 20.5t80 53.5v636q-26 74 -72 112t-104 38q-106 0 -171 -123.5t-65 -323.5q0 -186 66.5 -299.5t173.5 -113.5z" />
    <glyph glyph-name="Dcroat" unicode="&#x110;" horiz-adv-x="1804" 
d="M874 1503q251 0 442.5 -93t296.5 -264t105 -394t-105 -394t-297 -264.5t-442 -93.5h-806v59q122 9 163 45t41 132v491h-204l16 80h188v461q0 96 -41 131.5t-163 44.5v59h806zM805 94q232 0 374 181t142 477q0 299 -133.5 478t-366.5 179h-188v-602h336l-17 -80h-319v-524
q0 -65 24.5 -87t94.5 -22h53z" />
    <glyph glyph-name="dcroat" unicode="&#x111;" horiz-adv-x="1366" 
d="M1198 256q0 -71 30 -97t122 -32v-55q-304 -53 -492 -92h-4v165q-55 -76 -145 -120.5t-185 -44.5q-204 0 -329 145t-125 383q0 272 143.5 439t378.5 167q145 0 262 -74v191h-295l16 72h279q-1 71 -33 100t-119 41v55q318 91 492 150h4v-346h152l-17 -72h-135v-975z
M682 162q45 0 92 20.5t80 53.5v636q-26 74 -72 112t-104 38q-106 0 -171 -123.5t-65 -323.5q0 -186 66.5 -299.5t173.5 -113.5z" />
    <glyph glyph-name="Emacron" unicode="&#x112;" horiz-adv-x="1638" 
d="M1163 1800l-18 -94h-733l18 94h733zM1532 584l65 -21l-192 -573q-179 10 -510 10h-832v59q122 9 163.5 45t41.5 132v1032q0 96 -41 131.5t-164 44.5v59h793q308 0 477 10l172 -552l-63 -23q-39 117 -80.5 194.5t-94.5 133.5t-127 86t-166.5 43.5t-225.5 13.5h-117v-594
h104q93 0 145 29t84 100t56 211h63q-6 -240 -6 -397q0 -158 6 -398h-63q-24 148 -56 223.5t-84 106.5t-145 31h-104v-502q0 -75 26 -100t105 -25h90q103 0 178.5 8.5t141.5 31.5t114.5 57.5t92.5 91t80 128.5t73 173z" />
    <glyph glyph-name="emacron" unicode="&#x113;" horiz-adv-x="1204" 
d="M1032 1475l-18 -95h-733l18 95h733zM1108 328l43 -25q-63 -146 -205 -234.5t-313 -88.5q-255 0 -410 154.5t-155 408.5q0 258 162.5 414.5t428.5 156.5q214 0 345 -130.5t131 -344.5h-723v-12q0 -197 107.5 -318t285.5 -121q82 0 165.5 38.5t137.5 101.5zM657 1036
q-96 0 -160 -85t-81 -232h162q105 0 166 45.5t61 122.5q0 66 -41 107.5t-107 41.5z" />
    <glyph glyph-name="Edotaccent" unicode="&#x116;" horiz-adv-x="1638" 
d="M788 1599q-88 0 -146 56t-58 141t58 141t146 56t146.5 -56t58.5 -141t-58.5 -141t-146.5 -56zM1532 584l65 -21l-192 -573q-179 10 -510 10h-832v59q122 9 163.5 45t41.5 132v1032q0 96 -41 131.5t-164 44.5v59h793q308 0 477 10l172 -552l-63 -23q-39 117 -80.5 194.5
t-94.5 133.5t-127 86t-166.5 43.5t-225.5 13.5h-117v-594h104q93 0 145 29t84 100t56 211h63q-6 -240 -6 -397q0 -158 6 -398h-63q-24 148 -56 223.5t-84 106.5t-145 31h-104v-502q0 -75 26 -100t105 -25h90q103 0 178.5 8.5t141.5 31.5t114.5 57.5t92.5 91t80 128.5t73 173
z" />
    <glyph glyph-name="edotaccent" unicode="&#x117;" horiz-adv-x="1204" 
d="M657 1251q-89 0 -146.5 56t-57.5 141t57.5 141t146.5 56q88 0 146.5 -56t58.5 -141t-58.5 -141t-146.5 -56zM1108 328l43 -25q-63 -146 -205 -234.5t-313 -88.5q-255 0 -410 154.5t-155 408.5q0 258 162.5 414.5t428.5 156.5q214 0 345 -130.5t131 -344.5h-723v-12
q0 -197 107.5 -318t285.5 -121q82 0 165.5 38.5t137.5 101.5zM657 1036q-96 0 -160 -85t-81 -232h162q105 0 166 45.5t61 122.5q0 66 -41 107.5t-107 41.5z" />
    <glyph glyph-name="Eogonek" unicode="&#x118;" horiz-adv-x="1638" 
d="M1262 -4q-89 -47 -144 -112t-55 -124q0 -32 23.5 -52.5t60.5 -20.5q64 0 123 49l20 -51q-46 -40 -125 -72.5t-170 -32.5q-86 0 -140 39t-54 102q0 81 88 151t248 126q-66 2 -242 2h-832v59q122 9 163.5 45t41.5 132v1032q0 96 -41 131.5t-164 44.5v59h793q308 0 477 10
l172 -552l-63 -23q-39 117 -80.5 194.5t-94.5 133.5t-127 86t-166.5 43.5t-225.5 13.5h-117v-594h104q93 0 145 29t84 100t56 211h63q-6 -240 -6 -397q0 -158 6 -398h-63q-24 148 -56 223.5t-84 106.5t-145 31h-104v-502q0 -75 26 -100t105 -25h90q103 0 178.5 8.5
t141.5 31.5t114.5 57.5t92.5 91t80 128.5t73 173l65 -21l-192 -573z" />
    <glyph glyph-name="eogonek" unicode="&#x119;" horiz-adv-x="1204" 
d="M1151 303q-59 -139 -190 -225q-101 -77 -161.5 -163.5t-60.5 -154.5q0 -32 23.5 -52.5t60.5 -20.5q66 0 125 49l21 -51q-45 -40 -125 -72.5t-170 -32.5q-88 0 -141.5 39t-53.5 102q0 134 199 261q-14 -2 -45 -2q-255 0 -410 154.5t-155 408.5q0 258 162.5 414.5
t428.5 156.5q214 0 345 -130.5t131 -344.5h-723v-12q0 -197 107.5 -318t285.5 -121q82 0 165.5 38.5t137.5 101.5zM657 1036q-96 0 -160 -85t-81 -232h162q105 0 166 45.5t61 122.5q0 66 -41 107.5t-107 41.5z" />
    <glyph glyph-name="Ecaron" unicode="&#x11a;" horiz-adv-x="1638" 
d="M811 1608h-45l-332 293l25 41l329 -125l330 125l25 -41zM1532 584l65 -21l-192 -573q-179 10 -510 10h-832v59q122 9 163.5 45t41.5 132v1032q0 96 -41 131.5t-164 44.5v59h793q308 0 477 10l172 -552l-63 -23q-39 117 -80.5 194.5t-94.5 133.5t-127 86t-166.5 43.5
t-225.5 13.5h-117v-594h104q93 0 145 29t84 100t56 211h63q-6 -240 -6 -397q0 -158 6 -398h-63q-24 148 -56 223.5t-84 106.5t-145 31h-104v-502q0 -75 26 -100t105 -25h90q103 0 178.5 8.5t141.5 31.5t114.5 57.5t92.5 91t80 128.5t73 173z" />
    <glyph glyph-name="ecaron" unicode="&#x11b;" horiz-adv-x="1204" 
d="M680 1188h-45l-328 426l33 31l317 -213l316 213l33 -31zM1108 328l43 -25q-63 -146 -205 -234.5t-313 -88.5q-255 0 -410 154.5t-155 408.5q0 258 162.5 414.5t428.5 156.5q214 0 345 -130.5t131 -344.5h-723v-12q0 -197 107.5 -318t285.5 -121q82 0 165.5 38.5
t137.5 101.5zM657 1036q-96 0 -160 -85t-81 -232h162q105 0 166 45.5t61 122.5q0 66 -41 107.5t-107 41.5z" />
    <glyph glyph-name="Gbreve" unicode="&#x11e;" horiz-adv-x="1724" 
d="M946 1587q-104 0 -200.5 83.5t-172.5 234.5l39 32q138 -151 334 -151q193 0 334 151l39 -32q-76 -151 -173 -234.5t-200 -83.5zM907 668h801v-60q-110 -9 -147 -41t-37 -118v-330q-65 -8 -181 -49q-81 -28 -131 -43t-135.5 -31t-163.5 -16q-246 0 -434 96t-290.5 271.5
t-102.5 404.5t107 404.5t302.5 271.5t450.5 96q84 0 158 -19t130 -38t95 -19q30 0 46 13t28 52h33l57 -544l-61 -8q-132 469 -469 469q-217 0 -348.5 -186t-131.5 -492q0 -305 119 -491.5t311 -186.5q125 0 248 86v231q0 118 -50.5 161.5t-203.5 55.5v60z" />
    <glyph glyph-name="gbreve" unicode="&#x11f;" horiz-adv-x="1284" 
d="M610 1194q-114 0 -203.5 111t-140.5 315l47 20q51 -116 128 -182.5t169 -66.5q93 0 170.5 66.5t128.5 182.5l47 -20q-51 -204 -141 -315t-205 -111zM975 227q136 -13 211.5 -89t75.5 -175q0 -188 -171.5 -290.5t-488.5 -102.5q-598 0 -598 229q0 102 203 217
q-103 63 -103 181q0 123 136 290q-144 101 -144 265q0 163 142 262.5t372 99.5q62 0 133 -8q122 -12 205 -12q178 0 301 20h4l-30 -141l-232 18q133 -94 133 -239q0 -163 -141.5 -263t-372.5 -100q-177 0 -307 62q-33 -51 -33 -91q0 -33 39.5 -55.5t143.5 -32.5zM610 1038
q-62 0 -101.5 -79t-39.5 -207q0 -129 39 -208t102 -79t102.5 79t39.5 208q0 128 -39.5 207t-102.5 79zM651 -354q182 0 289 52t107 130q0 31 -27 53.5t-80 26.5l-489 43q-93 9 -164 31q-43 -61 -43 -129q0 -95 111.5 -151t295.5 -56z" />
    <glyph glyph-name="Gdotaccent" unicode="&#x120;" horiz-adv-x="1724" 
d="M946 1599q-89 0 -147 56t-58 141t58 141t147 56q88 0 146.5 -56t58.5 -141t-58.5 -141t-146.5 -56zM907 668h801v-60q-110 -9 -147 -41t-37 -118v-330q-65 -8 -181 -49q-81 -28 -131 -43t-135.5 -31t-163.5 -16q-246 0 -434 96t-290.5 271.5t-102.5 404.5t107 404.5
t302.5 271.5t450.5 96q84 0 158 -19t130 -38t95 -19q30 0 46 13t28 52h33l57 -544l-61 -8q-132 469 -469 469q-217 0 -348.5 -186t-131.5 -492q0 -305 119 -491.5t311 -186.5q125 0 248 86v231q0 118 -50.5 161.5t-203.5 55.5v60z" />
    <glyph glyph-name="gdotaccent" unicode="&#x121;" horiz-adv-x="1284" 
d="M610 1251q-88 0 -146 56t-58 141t58 141t146 56q89 0 147 -56t58 -141t-58 -141t-147 -56zM975 227q136 -13 211.5 -89t75.5 -175q0 -188 -171.5 -290.5t-488.5 -102.5q-598 0 -598 229q0 102 203 217q-103 63 -103 181q0 123 136 290q-144 101 -144 265q0 163 142 262.5
t372 99.5q62 0 133 -8q122 -12 205 -12q178 0 301 20h4l-30 -141l-232 18q133 -94 133 -239q0 -163 -141.5 -263t-372.5 -100q-177 0 -307 62q-33 -51 -33 -91q0 -33 39.5 -55.5t143.5 -32.5zM610 1038q-62 0 -101.5 -79t-39.5 -207q0 -129 39 -208t102 -79t102.5 79
t39.5 208q0 128 -39.5 207t-102.5 79zM651 -354q182 0 289 52t107 130q0 31 -27 53.5t-80 26.5l-489 43q-93 9 -164 31q-43 -61 -43 -129q0 -95 111.5 -151t295.5 -56z" />
    <glyph glyph-name="uni0122" unicode="&#x122;" horiz-adv-x="1724" 
d="M907 668h801v-60q-110 -9 -147 -41t-37 -118v-330q-65 -8 -181 -49q-81 -28 -131 -43t-135.5 -31t-163.5 -16q-246 0 -434 96t-290.5 271.5t-102.5 404.5t107 404.5t302.5 271.5t450.5 96q84 0 158 -19t130 -38t95 -19q30 0 46 13t28 52h33l57 -544l-61 -8
q-132 469 -469 469q-217 0 -348.5 -186t-131.5 -492q0 -305 119 -491.5t311 -186.5q125 0 248 86v231q0 118 -50.5 161.5t-203.5 55.5v60zM924 -47q73 0 118 -45t45 -117q0 -79 -72.5 -140t-191.5 -81l-14 51q52 12 81.5 35t29.5 51q0 31 -32.5 48.5t-92.5 17.5
q-17 34 -17 59q0 52 41.5 86.5t104.5 34.5z" />
    <glyph glyph-name="uni0123" unicode="&#x123;" horiz-adv-x="1284" 
d="M621 1217q-73 0 -118.5 44.5t-45.5 116.5q0 98 72.5 173t191.5 98l14 -52q-51 -15 -80.5 -44t-29.5 -66q0 -41 33.5 -65.5t91.5 -24.5q16 -28 16 -58q0 -53 -41 -87.5t-104 -34.5zM975 227q136 -13 211.5 -89t75.5 -175q0 -188 -171.5 -290.5t-488.5 -102.5
q-598 0 -598 229q0 102 203 217q-103 63 -103 181q0 123 136 290q-144 101 -144 265q0 163 142 262.5t372 99.5q62 0 133 -8q122 -12 205 -12q178 0 301 20h4l-30 -141l-232 18q133 -94 133 -239q0 -163 -141.5 -263t-372.5 -100q-177 0 -307 62q-33 -51 -33 -91
q0 -33 39.5 -55.5t143.5 -32.5zM610 1038q-62 0 -101.5 -79t-39.5 -207q0 -129 39 -208t102 -79t102.5 79t39.5 208q0 128 -39.5 207t-102.5 79zM651 -354q182 0 289 52t107 130q0 31 -27 53.5t-80 26.5l-489 43q-93 9 -164 31q-43 -61 -43 -129q0 -95 111.5 -151t295.5 -56
z" />
    <glyph glyph-name="Hbar" unicode="&#x126;" horiz-adv-x="1828" 
d="M1763 1444q-122 -9 -163 -44.5t-41 -131.5v-92h204l-16 -80h-188v-860q0 -96 41 -132t163 -45v-59h-772v59q122 9 163.5 45t41.5 132v485h-563v-485q0 -96 41.5 -132t163.5 -45v-59h-772v59q122 9 163 45t41 132v860h-204l16 80h188v92q0 96 -41 131.5t-163 44.5v59h772
v-59q-123 -9 -164 -44.5t-41 -131.5v-92h563v92q0 96 -41 131.5t-164 44.5v59h772v-59zM1196 815v281h-563v-281h563z" />
    <glyph glyph-name="hbar" unicode="&#x127;" horiz-adv-x="1378" 
d="M1214 188q0 -71 30.5 -97t121.5 -32v-59h-631v59q81 6 108 32t27 97v539q0 203 -176 203q-89 0 -178 -72v-670q0 -71 27 -97t108 -32v-59h-631v59q91 6 121.5 32t30.5 97v1043h-149l14 72h135q-1 71 -33 100t-119 41v55q334 96 492 150h4v-346h295l-14 -72h-281v-281
q83 75 191 119.5t213 44.5q136 0 215 -85.5t79 -233.5v-607z" />
    <glyph glyph-name="Imacron" unicode="&#x12a;" horiz-adv-x="899" 
d="M764 1800l-21 -94h-610l21 94h610zM836 1444q-123 -9 -164 -44.5t-41 -131.5v-1032q0 -96 41.5 -132t163.5 -45v-59h-773v59q122 9 163.5 45t41.5 132v1032q0 96 -41 131.5t-164 44.5v59h773v-59z" />
    <glyph glyph-name="imacron" unicode="&#x12b;" horiz-adv-x="708" 
d="M678 1475l-19 -95h-610l19 95h610zM537 188q0 -71 30.5 -97t120.5 -32v-59h-647v59q91 6 121.5 32t30.5 97v570q0 77 -31 108.5t-121 46.5v56q278 72 491 143h5v-924z" />
    <glyph glyph-name="Iogonek" unicode="&#x12e;" horiz-adv-x="899" 
d="M836 1444q-123 -9 -164 -44.5t-41 -131.5v-1032q0 -96 41.5 -132t163.5 -45v-59h-97q-92 -47 -149.5 -113.5t-57.5 -126.5q0 -32 23.5 -52.5t60.5 -20.5q64 0 123 49l21 -51q-46 -40 -125 -72.5t-170 -32.5q-86 0 -140.5 39t-54.5 102q0 81 89 152t249 127h-545v59
q122 9 163.5 45t41.5 132v1032q0 96 -41 131.5t-164 44.5v59h773v-59z" />
    <glyph glyph-name="iogonek" unicode="&#x12f;" horiz-adv-x="708" 
d="M365 1251q-88 0 -146.5 56t-58.5 141t58.5 141t146.5 56t146 -56t58 -141t-58 -141t-146 -56zM618 0q-93 -47 -150.5 -113.5t-57.5 -126.5q0 -32 23.5 -52.5t60.5 -20.5q65 0 124 49l19 -51q-46 -40 -125 -72.5t-170 -32.5q-86 0 -139 39t-53 102q0 81 88 152.5
t247 126.5h-444v59q91 6 121.5 32t30.5 97v570q0 77 -31 108.5t-121 46.5v56q278 72 491 143h5v-924q0 -71 30.5 -97t120.5 -32v-59h-70z" />
    <glyph glyph-name="Idotaccent" unicode="&#x130;" horiz-adv-x="899" 
d="M449 1599q-88 0 -146.5 56t-58.5 141t58.5 141t146.5 56q89 0 146.5 -56t57.5 -141t-57.5 -141t-146.5 -56zM836 1444q-123 -9 -164 -44.5t-41 -131.5v-1032q0 -96 41.5 -132t163.5 -45v-59h-773v59q122 9 163.5 45t41.5 132v1032q0 96 -41 131.5t-164 44.5v59h773v-59z
" />
    <glyph glyph-name="dotlessi" unicode="&#x131;" horiz-adv-x="708" 
d="M537 188q0 -71 30.5 -97t120.5 -32v-59h-647v59q91 6 121.5 32t30.5 97v570q0 77 -31 108.5t-121 46.5v56q278 72 491 143h5v-924z" />
    <glyph glyph-name="IJ" unicode="&#x132;" horiz-adv-x="1781" 
d="M63 1444v59h773v-59q-123 -9 -164 -44.5t-41 -131.5v-1032q0 -96 41.5 -132t163.5 -45v-59h-773v59q122 9 163.5 45t41.5 132v1032q0 96 -41 131.5t-164 44.5zM967 1503h772v-59q-124 -9 -164.5 -44.5t-40.5 -131.5v-817q0 -246 -150.5 -432.5t-396.5 -243.5l-20 57
q116 78 160 182t44 301v953q0 96 -41 131.5t-163 44.5v59z" />
    <glyph glyph-name="ij" unicode="&#x133;" horiz-adv-x="1380" 
d="M365 1251q-88 0 -146.5 56t-58.5 141t58.5 141t146.5 56t146 -56t58 -141t-58 -141t-146 -56zM1073 1251q-88 0 -146.5 56t-58.5 141t58.5 141t146.5 56q89 0 147 -56t58 -141t-58 -141t-147 -56zM537 188q0 -71 30.5 -97t120.5 -32v-59h-647v59q91 6 121.5 32t30.5 97
v570q0 77 -31 108.5t-121 46.5v56q278 72 491 143h5v-924zM750 969q332 90 491 143h4v-952q0 -232 -130 -394t-345 -196l-20 57q86 67 118.5 153t32.5 245v733q0 77 -30 108.5t-121 46.5v56z" />
    <glyph glyph-name="uni0136" unicode="&#x136;" horiz-adv-x="1771" 
d="M631 236q0 -96 41.5 -132t163.5 -45v-59h-773v59q122 9 163.5 45t41.5 132v1032q0 96 -41 131.5t-164 44.5v59h773v-59q-123 -9 -164 -44.5t-41 -131.5v-1032zM997 969q276 -402 418 -586t221 -247.5t168 -76.5v-59h-266q-76 0 -132 10.5t-119 45t-117.5 85t-132.5 146.5
t-159 211.5t-202 296.5l436 434q92 88 92 135q0 69 -203 80v59h633v-59q-90 -2 -156.5 -29t-150.5 -112zM999 -47q74 0 120 -45t46 -117q0 -79 -72.5 -140t-193.5 -81l-14 51q52 12 81 35t29 51q0 31 -32.5 48.5t-92.5 17.5q-16 32 -16 59q0 52 41.5 86.5t103.5 34.5z" />
    <glyph glyph-name="uni0137" unicode="&#x137;" horiz-adv-x="1378" 
d="M651 59v-59h-631v59q91 6 121.5 32t30.5 97v1100q0 82 -30.5 113t-121.5 43v55q334 96 492 150h4v-1461q0 -71 27 -97t108 -32zM846 731l534 -672v-59h-379l-452 569l264 250q109 98 109 142q0 65 -193 73v60h584v-60q-85 -2 -147.5 -29t-149.5 -112zM764 -47
q73 0 118.5 -45t45.5 -117q0 -79 -72.5 -140t-191.5 -81l-15 51q52 12 81.5 35t29.5 51q0 31 -32.5 48.5t-92.5 17.5q-17 34 -17 59q0 52 41.5 86.5t104.5 34.5z" />
    <glyph glyph-name="Lacute" unicode="&#x139;" horiz-adv-x="1529" 
d="M664 1710q-91 -43 -451 -102l-18 41q271 233 366 280q26 13 60 13q53 0 86.5 -35t33.5 -84q0 -75 -77 -113zM1450 584l66 -21l-193 -573q-179 10 -477 10h-783v59q122 9 163.5 45t41.5 132v1032q0 96 -41 131.5t-164 44.5v59h814v-59q-148 -12 -197 -54.5t-49 -158.5
v-1028q0 -65 21 -87t85 -22h66q117 0 199.5 14t150 45t118.5 89.5t93 139t86 202.5z" />
    <glyph glyph-name="lacute" unicode="&#x13a;" horiz-adv-x="688" 
d="M567 1780q-100 -46 -450 -103l-21 41q273 236 369 281q24 12 59 12q53 0 87 -35t34 -84q0 -72 -78 -112zM516 188q0 -71 30.5 -97t121.5 -32v-59h-648v59q91 6 121.5 32t30.5 97v1100q0 82 -30.5 113t-121.5 43v55q334 96 492 150h4v-1461z" />
    <glyph glyph-name="uni013B" unicode="&#x13b;" horiz-adv-x="1529" 
d="M1450 584l66 -21l-193 -573q-179 10 -477 10h-783v59q122 9 163.5 45t41.5 132v1032q0 96 -41 131.5t-164 44.5v59h814v-59q-148 -12 -197 -54.5t-49 -158.5v-1028q0 -65 21 -87t85 -22h66q117 0 199.5 14t150 45t118.5 89.5t93 139t86 202.5zM719 -47q73 0 118.5 -45
t45.5 -117q0 -78 -73 -139.5t-192 -81.5l-14 51q51 12 81 35t30 51q0 31 -33.5 48.5t-91.5 17.5q-17 34 -17 59q0 52 41.5 86.5t104.5 34.5z" />
    <glyph glyph-name="uni013C" unicode="&#x13c;" horiz-adv-x="688" 
d="M516 188q0 -71 30.5 -97t121.5 -32v-59h-648v59q91 6 121.5 32t30.5 97v1100q0 82 -30.5 113t-121.5 43v55q334 96 492 150h4v-1461zM334 -47q74 0 120 -45t46 -117q0 -79 -73 -140t-194 -81l-14 51q52 12 81.5 35t29.5 51q0 31 -32.5 48.5t-92.5 17.5q-17 34 -17 59
q0 52 42 86.5t104 34.5z" />
    <glyph glyph-name="Lcaron" unicode="&#x13d;" horiz-adv-x="1536" 
d="M1253 1354q0 37 -33 62t-85 28q-33 38 -33 84q0 53 41 88t102 35q72 0 116 -50.5t44 -132.5q0 -90 -66 -173.5t-172 -129.5l-24 58q50 25 80 60.5t30 70.5zM1450 584l66 -21l-193 -573q-179 10 -477 10h-783v59q122 9 163.5 45t41.5 132v1032q0 96 -41 131.5t-164 44.5
v59h814v-59q-148 -12 -197 -54.5t-49 -158.5v-1028q0 -65 21 -87t85 -22h66q117 0 199.5 14t150 45t118.5 89.5t93 139t86 202.5z" />
    <glyph glyph-name="lcaron" unicode="&#x13e;" horiz-adv-x="716" 
d="M725 1651q72 0 116 -50.5t44 -132.5q0 -91 -65 -174t-171 -129l-26 58q50 25 80 60.5t30 70.5q0 37 -32.5 62t-86.5 28q-30 34 -30 84q0 53 40 88t101 35zM516 188q0 -71 30.5 -97t121.5 -32v-59h-648v59q91 6 121.5 32t30.5 97v1100q0 82 -30.5 113t-121.5 43v55
q334 96 492 150h4v-1461z" />
    <glyph glyph-name="Lslash" unicode="&#x141;" horiz-adv-x="1552" 
d="M1475 584l65 -21l-194 -573q-176 10 -476 10h-782v59q122 9 163.5 45t41.5 132v368l-162 -80l-43 90l205 101v553q0 96 -41 131.5t-164 44.5v59h811v-59q-148 -12 -197 -54.5t-49 -158.5v-357l308 150l45 -90l-353 -170v-561q0 -64 22 -86.5t85 -22.5h67q117 0 199.5 14
t150 45t118.5 89.5t93.5 139t86.5 202.5z" />
    <glyph glyph-name="lslash" unicode="&#x142;" horiz-adv-x="741" 
d="M545 188q0 -71 30.5 -97t120.5 -32v-59h-647v59q92 6 122 32t30 97v508l-113 -63l-49 86l162 92v477q0 82 -30 113t-122 43v55q315 89 492 150h4v-672l112 65l52 -86l-164 -94v-674z" />
    <glyph glyph-name="Nacute" unicode="&#x143;" horiz-adv-x="1718" 
d="M1087 1710q-92 -44 -450 -102l-19 41q269 232 367 280q26 13 59 13q53 0 87 -35t34 -84q0 -34 -20 -64.5t-58 -48.5zM1114 1503h555v-59q-123 -9 -164 -44.5t-41 -131.5v-1288h-63l-1026 1150v-854q0 -121 49 -164.5t197 -52.5v-59h-558v59q122 9 163.5 45t41.5 132v1042
q0 90 -41.5 123.5t-163.5 42.5v59h457l840 -964v688q0 120 -49.5 164t-196.5 53v59z" />
    <glyph glyph-name="nacute" unicode="&#x144;" horiz-adv-x="1398" 
d="M920 1430q-86 -82 -394 -242l-30 33q183 310 256 383q41 41 92 41q48 0 84.5 -35t36.5 -84q0 -57 -45 -96zM1235 188q0 -71 30.5 -97t120.5 -32v-59h-630v59q81 6 108 32t27 97v539q0 203 -176 203q-89 0 -178 -72v-670q0 -71 27 -97t108 -32v-59h-631v59q91 6 121.5 32
t30.5 97v570q0 77 -31 108.5t-121 46.5v56q278 72 491 143h5v-162q83 75 190.5 119.5t212.5 44.5q137 0 216 -85.5t79 -233.5v-607z" />
    <glyph glyph-name="uni0145" unicode="&#x145;" horiz-adv-x="1718" 
d="M1114 1503h555v-59q-123 -9 -164 -44.5t-41 -131.5v-1288h-63l-1026 1150v-854q0 -121 49 -164.5t197 -52.5v-59h-558v59q122 9 163.5 45t41.5 132v1042q0 90 -41.5 123.5t-163.5 42.5v59h457l840 -964v688q0 120 -49.5 164t-196.5 53v59zM858 -47q73 0 118.5 -45
t45.5 -117q0 -79 -72.5 -140t-191.5 -81l-15 51q52 12 81.5 35t29.5 51q0 31 -32.5 48.5t-92.5 17.5q-16 32 -16 59q0 53 41 87t104 34z" />
    <glyph glyph-name="uni0146" unicode="&#x146;" horiz-adv-x="1398" 
d="M1235 188q0 -71 30.5 -97t120.5 -32v-59h-630v59q81 6 108 32t27 97v539q0 203 -176 203q-89 0 -178 -72v-670q0 -71 27 -97t108 -32v-59h-631v59q91 6 121.5 32t30.5 97v570q0 77 -31 108.5t-121 46.5v56q278 72 491 143h5v-162q83 75 190.5 119.5t212.5 44.5
q137 0 216 -85.5t79 -233.5v-607zM702 -47q73 0 118.5 -45t45.5 -117q0 -79 -72.5 -140t-191.5 -81l-14 51q51 12 80.5 35t29.5 51q0 31 -33.5 48.5t-91.5 17.5q-16 32 -16 59q0 53 41 87t104 34z" />
    <glyph glyph-name="Ncaron" unicode="&#x147;" horiz-adv-x="1718" 
d="M889 1608h-47l-332 293l25 41l329 -125l332 125l25 -41zM1114 1503h555v-59q-123 -9 -164 -44.5t-41 -131.5v-1288h-63l-1026 1150v-854q0 -121 49 -164.5t197 -52.5v-59h-558v59q122 9 163.5 45t41.5 132v1042q0 90 -41.5 123.5t-163.5 42.5v59h457l840 -964v688
q0 120 -49.5 164t-196.5 53v59z" />
    <glyph glyph-name="ncaron" unicode="&#x148;" horiz-adv-x="1398" 
d="M733 1188h-45l-328 426l33 31l318 -213l315 213l33 -31zM1235 188q0 -71 30.5 -97t120.5 -32v-59h-630v59q81 6 108 32t27 97v539q0 203 -176 203q-89 0 -178 -72v-670q0 -71 27 -97t108 -32v-59h-631v59q91 6 121.5 32t30.5 97v570q0 77 -31 108.5t-121 46.5v56
q278 72 491 143h5v-162q83 75 190.5 119.5t212.5 44.5q137 0 216 -85.5t79 -233.5v-607z" />
    <glyph glyph-name="Eng" unicode="&#x14a;" horiz-adv-x="1714" 
d="M1114 1503h555v-59q-123 -9 -164 -44.5t-41 -131.5v-946q0 -193 -110.5 -338t-296.5 -209l-21 57q109 54 174.5 112t100.5 136l-936 1050v-854q0 -121 49 -164.5t197 -52.5v-59h-558v59q122 9 163.5 45t41.5 132v1042q0 90 -41.5 123.5t-163.5 42.5v59h457l840 -958v682
q0 120 -49.5 164t-196.5 53v59z" />
    <glyph glyph-name="eng" unicode="&#x14b;" horiz-adv-x="1353" 
d="M940 1114q137 0 216 -85.5t79 -233.5v-635q0 -232 -130.5 -394t-344.5 -196l-21 57q85 68 118.5 154.5t33.5 243.5v702q0 203 -176 203q-89 0 -178 -72v-670q0 -71 27 -97t108 -32v-59h-631v59q91 6 121.5 32t30.5 97v570q0 77 -31 108.5t-121 46.5v56q278 72 491 143h5
v-162q70 75 177.5 119.5t225.5 44.5z" />
    <glyph glyph-name="Omacron" unicode="&#x14c;" horiz-adv-x="1785" 
d="M516 1706l19 94h733l-19 -94h-733zM893 -20q-362 0 -583.5 212.5t-221.5 559.5t221.5 559.5t583.5 212.5t583.5 -212.5t221.5 -559.5t-221.5 -559.5t-583.5 -212.5zM893 74q184 0 295.5 186t111.5 492t-111.5 492t-295.5 186q-183 0 -295.5 -186t-112.5 -492t112.5 -492
t295.5 -186z" />
    <glyph glyph-name="omacron" unicode="&#x14d;" horiz-adv-x="1343" 
d="M295 1380l18 95h734l-19 -95h-733zM672 -20q-272 0 -438 156t-166 411t166 411t438 156t438 -156t166 -411t-166 -411t-438 -156zM672 55q104 0 167.5 135.5t63.5 356.5t-63.5 356t-167.5 135q-103 0 -167.5 -135.5t-64.5 -355.5t64.5 -356t167.5 -136z" />
    <glyph glyph-name="Ohungarumlaut" unicode="&#x150;" horiz-adv-x="1785" 
d="M530 1581l-24 39q239 282 317 334q41 24 76 24q51 0 87 -34.5t36 -85.5q0 -31 -17 -60t-44 -47q-95 -60 -431 -170zM952 1581l-24 39q239 282 317 334q41 24 76 24q51 0 87 -34.5t36 -85.5q0 -31 -17.5 -60t-44.5 -47q-96 -60 -430 -170zM893 -20q-362 0 -583.5 212.5
t-221.5 559.5t221.5 559.5t583.5 212.5t583.5 -212.5t221.5 -559.5t-221.5 -559.5t-583.5 -212.5zM893 74q184 0 295.5 186t111.5 492t-111.5 492t-295.5 186q-183 0 -295.5 -186t-112.5 -492t112.5 -492t295.5 -186z" />
    <glyph glyph-name="ohungarumlaut" unicode="&#x151;" horiz-adv-x="1343" 
d="M418 1188l-31 33q183 310 256 383q41 41 92 41q48 0 84.5 -35t36.5 -84q0 -57 -45 -96q-42 -37 -149.5 -104.5t-243.5 -137.5zM799 1188l-31 33q183 310 256 383q41 41 92 41q48 0 84.5 -35t36.5 -84q0 -57 -45 -96q-42 -37 -149.5 -104.5t-243.5 -137.5zM672 -20
q-272 0 -438 156t-166 411t166 411t438 156t438 -156t166 -411t-166 -411t-438 -156zM672 55q104 0 167.5 135.5t63.5 356.5t-63.5 356t-167.5 135q-103 0 -167.5 -135.5t-64.5 -355.5t64.5 -356t167.5 -136z" />
    <glyph glyph-name="OE" unicode="&#x152;" horiz-adv-x="2539" 
d="M2435 584l64 -21l-193 -573q-176 10 -510 10h-866q-251 0 -443 93.5t-296.5 264.5t-104.5 394t104.5 394t296.5 264t443 93h829q309 0 475 10l174 -552l-63 -23q-40 117 -81.5 194.5t-95 133.5t-127.5 86t-166.5 43.5t-225.5 13.5h-117v-594h106q93 0 145 29t83.5 100.5
t54.5 210.5h64q-7 -280 -7 -397q0 -118 7 -398h-64q-23 148 -54.5 223.5t-83.5 106.5t-145 31h-106v-502q0 -75 26.5 -100t104.5 -25h92q123 0 210 14t158 45t124.5 89.5t97.5 139t90 202.5zM999 94h54q70 0 93 22t23 87v1206h-186q-233 0 -366.5 -179t-133.5 -478
q0 -297 141.5 -477.5t374.5 -180.5z" />
    <glyph glyph-name="oe" unicode="&#x153;" horiz-adv-x="2068" 
d="M1972 328l43 -25q-60 -146 -198 -234.5t-304 -88.5q-141 0 -250 60t-173 169q-71 -110 -185.5 -169.5t-259.5 -59.5q-259 0 -418 156t-159 411t159 411t418 156q155 0 275 -60.5t188 -170.5q67 110 174 170.5t242 60.5q214 0 344.5 -130.5t130.5 -344.5h-723v-12
q0 -197 107.5 -318t285.5 -121q82 0 165.5 38.5t137.5 101.5zM672 55q104 0 167.5 135.5t63.5 356.5t-63.5 356t-167.5 135q-103 0 -167.5 -135.5t-64.5 -355.5t64.5 -356t167.5 -136zM1520 1036q-95 0 -159 -85t-81 -232h162q105 0 166 45.5t61 122.5q0 66 -41.5 107.5
t-107.5 41.5z" />
    <glyph glyph-name="Racute" unicode="&#x154;" horiz-adv-x="1757" 
d="M1049 1710q-91 -43 -451 -102l-18 41q271 233 366 280q26 13 60 13q53 0 86.5 -35t33.5 -84q0 -75 -77 -113zM1188 725q135 -216 219.5 -338.5t153 -195.5t115.5 -98t112 -34v-59h-266q-70 0 -121 9t-105.5 38t-101.5 72.5t-109 123t-126.5 178.5t-155.5 249h-172v-394
q0 -117 49.5 -161t196.5 -56v-59h-814v59q122 9 163.5 45t41.5 132v1032q0 96 -41 131.5t-164 44.5v59h842q280 0 450.5 -106t170.5 -281q0 -134 -89 -235t-249 -156zM631 1409v-645h172q146 0 235.5 92t89.5 244q0 141 -84.5 225t-224.5 84h-188z" />
    <glyph glyph-name="racute" unicode="&#x155;" horiz-adv-x="1038" 
d="M764 1430q-87 -83 -393 -242l-31 33q183 310 256 383q41 41 92 41q48 0 84.5 -35t36.5 -84q0 -57 -45 -96zM637 850q-54 -103 -100 -272v-349q0 -93 38.5 -127t153.5 -43v-59h-688v59q91 6 121.5 32t30.5 97v570q0 77 -31 108.5t-121 46.5v56q314 88 473 143h4l19 -293
q42 127 127.5 211t189.5 84q77 0 123.5 -44.5t46.5 -117.5q0 -49 -33 -102h-354z" />
    <glyph glyph-name="uni0156" unicode="&#x156;" horiz-adv-x="1757" 
d="M1188 725q135 -216 219.5 -338.5t153 -195.5t115.5 -98t112 -34v-59h-266q-70 0 -121 9t-105.5 38t-101.5 72.5t-109 123t-126.5 178.5t-155.5 249h-172v-394q0 -117 49.5 -161t196.5 -56v-59h-814v59q122 9 163.5 45t41.5 132v1032q0 96 -41 131.5t-164 44.5v59h842
q280 0 450.5 -106t170.5 -281q0 -134 -89 -235t-249 -156zM631 1409v-645h172q146 0 235.5 92t89.5 244q0 141 -84.5 225t-224.5 84h-188zM1008 -47q74 0 120 -45t46 -117q0 -79 -73 -140t-194 -81l-14 51q52 12 81.5 35t29.5 51q0 31 -32.5 48.5t-92.5 17.5q-17 34 -17 59
q0 52 42 86.5t104 34.5z" />
    <glyph glyph-name="uni0157" unicode="&#x157;" horiz-adv-x="1038" 
d="M637 850q-54 -103 -100 -272v-349q0 -93 38.5 -127t153.5 -43v-59h-688v59q91 6 121.5 32t30.5 97v570q0 77 -31 108.5t-121 46.5v56q314 88 473 143h4l19 -293q42 127 127.5 211t189.5 84q77 0 123.5 -44.5t46.5 -117.5q0 -49 -33 -102h-354zM365 -47q75 0 120 -45
t45 -117q0 -79 -72.5 -140t-191.5 -81l-14 51q51 12 80.5 35t29.5 51q0 31 -33 48.5t-93 17.5q-15 40 -15 59q0 52 41 86.5t103 34.5z" />
    <glyph glyph-name="Rcaron" unicode="&#x158;" horiz-adv-x="1757" 
d="M850 1608h-47l-332 293l25 41l329 -125l332 125l25 -41zM1188 725q135 -216 219.5 -338.5t153 -195.5t115.5 -98t112 -34v-59h-266q-70 0 -121 9t-105.5 38t-101.5 72.5t-109 123t-126.5 178.5t-155.5 249h-172v-394q0 -117 49.5 -161t196.5 -56v-59h-814v59
q122 9 163.5 45t41.5 132v1032q0 96 -41 131.5t-164 44.5v59h842q280 0 450.5 -106t170.5 -281q0 -134 -89 -235t-249 -156zM631 1409v-645h172q146 0 235.5 92t89.5 244q0 141 -84.5 225t-224.5 84h-188z" />
    <glyph glyph-name="rcaron" unicode="&#x159;" horiz-adv-x="1038" 
d="M578 1188h-46l-327 426l33 31l317 -213l315 213l33 -31zM637 850q-54 -103 -100 -272v-349q0 -93 38.5 -127t153.5 -43v-59h-688v59q91 6 121.5 32t30.5 97v570q0 77 -31 108.5t-121 46.5v56q314 88 473 143h4l19 -293q42 127 127.5 211t189.5 84q77 0 123.5 -44.5
t46.5 -117.5q0 -49 -33 -102h-354z" />
    <glyph glyph-name="Sacute" unicode="&#x15a;" horiz-adv-x="1435" 
d="M481 1608l-18 41q272 234 368 280q26 13 60 13q52 0 85.5 -35t33.5 -84q0 -34 -20 -64.5t-58 -48.5q-91 -43 -451 -102zM719 -20q-83 0 -162.5 18.5t-142 37.5t-103.5 19q-33 0 -50 -13t-34 -52h-34l-117 553l63 14q89 -219 246 -351t326 -132q162 0 246.5 59t84.5 168
q0 34 -11.5 64.5t-28.5 54t-48.5 47.5t-59.5 40.5t-74.5 36.5t-79 33t-87.5 33l-84.5 32.5t-82 34t-81.5 39t-73.5 43.5t-68 50.5t-55 58t-44.5 68.5t-26.5 78.5t-10.5 91.5q0 190 151 304t398 114q83 0 160 -19.5t136.5 -39t100.5 -19.5q30 0 47 14t29 53h33l116 -530
l-59 -12q-79 205 -235 332t-328 127q-113 0 -181.5 -49.5t-68.5 -129.5q0 -35 12.5 -66.5t30.5 -56t52.5 -50t62.5 -42t78.5 -39.5t82.5 -35.5t91 -35.5q50 -19 84 -32.5t81.5 -35t80 -39t72 -42t66 -48.5t53.5 -54.5t43 -62.5t26 -71.5t10 -81.5q0 -219 -170.5 -349
t-462.5 -130z" />
    <glyph glyph-name="sacute" unicode="&#x15b;" horiz-adv-x="1114" 
d="M375 1188l-31 33q183 310 256 383q41 41 94 41q47 0 83 -35t36 -84q0 -56 -43 -96q-40 -37 -147.5 -103.5t-247.5 -138.5zM565 -20q-60 0 -115 11.5t-87.5 25t-65 25t-53.5 11.5q-22 0 -36.5 -13.5t-27.5 -49.5h-33l-86 409l56 13q75 -161 195.5 -259t244.5 -98
q103 0 156 38.5t53 111.5q0 29 -16.5 55t-37.5 44t-64.5 39.5t-72 33t-86.5 33.5q-44 17 -62.5 24t-60.5 24.5t-61.5 28.5t-54 30.5t-52 35.5t-40.5 40t-34 47.5t-19.5 53.5t-8.5 62q0 162 114 260t302 98q68 0 134.5 -16t115 -31.5t74.5 -15.5q23 0 34 10t25 43h33l78 -399
l-56 -11q-57 155 -175.5 249.5t-252.5 94.5q-76 0 -123 -37.5t-47 -99.5q0 -28 16 -53.5t39.5 -45t64.5 -40.5t76 -35.5t89 -34.5q54 -22 85 -35t81 -36.5t79 -42.5t65 -48t55.5 -57.5t33 -66t13.5 -78.5q0 -158 -132 -253t-352 -95z" />
    <glyph glyph-name="Scedilla" unicode="&#x15e;" horiz-adv-x="1435" 
d="M1352 459q0 -208 -155 -336.5t-423 -140.5l-31 -52q185 -96 185 -194q0 -74 -79.5 -116.5t-232.5 -49.5l-12 41q127 37 127 90q0 59 -147 141l86 140q-88 5 -202.5 39t-156.5 34q-33 0 -50 -13t-34 -52h-34l-117 553l63 14q89 -219 246 -351t326 -132q162 0 246.5 59
t84.5 168q0 34 -11.5 64.5t-28.5 54t-48.5 47.5t-59.5 40.5t-74.5 36.5t-79 33t-87.5 33l-84.5 32.5t-82 34t-81.5 39t-73.5 43.5t-68 50.5t-55 58t-44.5 68.5t-26.5 78.5t-10.5 91.5q0 190 151 304t398 114q83 0 160 -19.5t136.5 -39t100.5 -19.5q30 0 47 14t29 53h33
l116 -530l-59 -12q-79 205 -235 332t-328 127q-113 0 -181.5 -49.5t-68.5 -129.5q0 -35 12.5 -66.5t30.5 -56t52.5 -50t62.5 -42t78.5 -39.5t82.5 -35.5t91 -35.5q50 -19 84 -32.5t81.5 -35t80 -39t72 -42t66 -48.5t53.5 -54.5t43 -62.5t26 -71.5t10 -81.5z" />
    <glyph glyph-name="scedilla" unicode="&#x15f;" horiz-adv-x="1114" 
d="M1049 328q0 -149 -118.5 -243t-318.5 -103l-32 -52q184 -96 184 -194q0 -151 -311 -166l-13 41q127 36 127 90q0 59 -147 141l88 140q-76 8 -158.5 39.5t-105.5 31.5q-22 0 -36.5 -13.5t-27.5 -49.5h-33l-86 409l56 13q75 -161 195.5 -259t244.5 -98q103 0 156 38.5
t53 111.5q0 29 -16.5 55t-37.5 44t-64.5 39.5t-72 33t-86.5 33.5q-44 17 -62.5 24t-60.5 24.5t-61.5 28.5t-54 30.5t-52 35.5t-40.5 40t-34 47.5t-19.5 53.5t-8.5 62q0 162 114 260t302 98q68 0 134.5 -16t115 -31.5t74.5 -15.5q23 0 34 10t25 43h33l78 -399l-56 -11
q-57 155 -175.5 249.5t-252.5 94.5q-76 0 -123 -37.5t-47 -99.5q0 -28 16 -53.5t39.5 -45t64.5 -40.5t76 -35.5t89 -34.5q54 -22 85 -35t81 -36.5t79 -42.5t65 -48t55.5 -57.5t33 -66t13.5 -78.5z" />
    <glyph glyph-name="Scaron" unicode="&#x160;" horiz-adv-x="1435" 
d="M733 1608h-47l-332 293l25 41l332 -125l329 125l25 -41zM836 926q50 -19 84 -32.5t81.5 -35t80 -39t72 -42t66 -48.5t53.5 -54.5t43 -62.5t26 -71.5t10 -81.5q0 -219 -170.5 -349t-462.5 -130q-83 0 -162.5 18.5t-142 37.5t-103.5 19q-33 0 -50 -13t-34 -52h-34l-117 553
l63 14q89 -219 246 -351t326 -132q162 0 246.5 59t84.5 168q0 34 -11.5 64.5t-28.5 54t-48.5 47.5t-59.5 40.5t-74.5 36.5t-79 33t-87.5 33l-84.5 32.5t-82 34t-81.5 39t-73.5 43.5t-68 50.5t-55 58t-44.5 68.5t-26.5 78.5t-10.5 91.5q0 190 151 304t398 114q83 0 160 -19.5
t136.5 -39t100.5 -19.5q30 0 47 14t29 53h33l116 -530l-59 -12q-79 205 -235 332t-328 127q-113 0 -181.5 -49.5t-68.5 -129.5q0 -35 12.5 -66.5t30.5 -56t52.5 -50t62.5 -42t78.5 -39.5t82.5 -35.5t91 -35.5z" />
    <glyph glyph-name="scaron" unicode="&#x161;" horiz-adv-x="1114" 
d="M582 1188h-45l-326 426l31 31l317 -213l318 213l30 -31zM637 692q54 -22 85 -35t81 -36.5t79 -42.5t65 -48t55.5 -57.5t33 -66t13.5 -78.5q0 -158 -132 -253t-352 -95q-60 0 -115 11.5t-87.5 25t-65 25t-53.5 11.5q-22 0 -36.5 -13.5t-27.5 -49.5h-33l-86 409l56 13
q75 -161 195.5 -259t244.5 -98q103 0 156 38.5t53 111.5q0 29 -16.5 55t-37.5 44t-64.5 39.5t-72 33t-86.5 33.5q-44 17 -62.5 24t-60.5 24.5t-61.5 28.5t-54 30.5t-52 35.5t-40.5 40t-34 47.5t-19.5 53.5t-8.5 62q0 162 114 260t302 98q68 0 134.5 -16t115 -31.5
t74.5 -15.5q23 0 34 10t25 43h33l78 -399l-56 -11q-57 155 -175.5 249.5t-252.5 94.5q-76 0 -123 -37.5t-47 -99.5q0 -28 16 -53.5t39.5 -45t64.5 -40.5t76 -35.5t89 -34.5z" />
    <glyph glyph-name="uni0162" unicode="&#x162;" horiz-adv-x="1581" 
d="M1389 1540l170 -579l-64 -21q-53 146 -98 232.5t-102.5 142t-124 75t-166.5 19.5h-33v-1165q0 -101 45.5 -138.5t183.5 -46.5v-59h-360l-45 -70q184 -96 184 -194q0 -151 -311 -166l-13 41q127 36 127 90q0 59 -147 141l98 158h-354v59q139 9 184 46.5t45 138.5v1165h-33
q-79 0 -136.5 -13.5t-106.5 -43t-89.5 -86t-77.5 -133.5t-79 -193l-63 21l170 579h4q87 -22 179.5 -29.5t282.5 -7.5h261q192 0 284.5 7.5t179.5 29.5h5z" />
    <glyph glyph-name="uni0163" unicode="&#x163;" horiz-adv-x="845" 
d="M602 147q49 0 102.5 30t90.5 77l36 -33q-57 -109 -159.5 -175t-212.5 -66q-21 0 -53 4l-33 -54q184 -96 184 -194q0 -74 -79 -116.5t-232 -49.5l-13 41q127 37 127 90q0 59 -147 141l100 164q-69 31 -107 91t-38 141v735h-152v55q140 64 237.5 140t190.5 192h60v-266h327
l-26 -121h-293v-697q0 -74 19 -101.5t71 -27.5z" />
    <glyph glyph-name="Tcaron" unicode="&#x164;" horiz-adv-x="1581" 
d="M813 1608h-45l-334 293l25 41l332 -125l329 125l25 -41zM1389 1540l170 -579l-64 -21q-53 146 -98 232.5t-102.5 142t-124 75t-166.5 19.5h-33v-1165q0 -101 45.5 -138.5t183.5 -46.5v-59h-821v59q139 9 184 46.5t45 138.5v1165h-33q-79 0 -136.5 -13.5t-106.5 -43
t-89.5 -86t-77.5 -133.5t-79 -193l-63 21l170 579h4q87 -22 179.5 -29.5t282.5 -7.5h261q192 0 284.5 7.5t179.5 29.5h5z" />
    <glyph glyph-name="tcaron" unicode="&#x165;" horiz-adv-x="845" 
d="M752 1354q0 37 -33 62t-86 28q-33 33 -33 84q0 52 40.5 87.5t100.5 35.5q72 0 116 -50.5t44 -132.5q0 -91 -64.5 -174t-170.5 -129l-27 58q51 25 82 60.5t31 70.5zM805 973h-293v-697q0 -74 19 -101.5t71 -27.5q49 0 102.5 30t90.5 77l36 -33q-57 -109 -159.5 -175
t-212.5 -66q-134 0 -212.5 70t-78.5 188v735h-152v55q140 64 237.5 140t190.5 192h60v-266h327z" />
    <glyph glyph-name="Tbar" unicode="&#x166;" horiz-adv-x="1581" 
d="M1389 1540l170 -579l-64 -21q-53 146 -98 232.5t-102.5 142t-124 75t-166.5 19.5h-33v-623h270l-16 -79h-254v-463q0 -101 45.5 -138.5t183.5 -46.5v-59h-821v59q139 9 184 46.5t45 138.5v463h-270l18 79h252v623h-33q-79 0 -136.5 -13.5t-106.5 -43t-89.5 -86
t-77.5 -133.5t-79 -193l-63 21l170 579h4q87 -22 179.5 -29.5t282.5 -7.5h261q192 0 284.5 7.5t179.5 29.5h5z" />
    <glyph glyph-name="tbar" unicode="&#x167;" horiz-adv-x="854" 
d="M608 147q49 0 101.5 29.5t91.5 77.5l35 -33q-55 -109 -157.5 -175t-215.5 -66q-134 0 -212.5 70t-78.5 188v421h-143l16 74h127v240h-152v55q140 64 238.5 140t192.5 192h59v-266h326l-27 -121h-293v-240h287l-15 -74h-272v-383q0 -74 19 -101.5t73 -27.5z" />
    <glyph glyph-name="Umacron" unicode="&#x16a;" horiz-adv-x="1701" 
d="M1348 1800l-19 -94h-733l18 94h734zM1663 1503v-59q-123 -9 -164 -44.5t-41 -131.5v-774q0 -240 -145 -377t-400 -137q-671 0 -671 528v760q0 96 -41 131.5t-164 44.5v59h813v-59q-147 -9 -196.5 -46.5t-49.5 -137.5v-805q0 -172 102 -276.5t269 -104.5q170 0 273.5 108
t103.5 285v760q0 121 -49 164.5t-197 52.5v59h557z" />
    <glyph glyph-name="umacron" unicode="&#x16b;" horiz-adv-x="1361" 
d="M1055 1475l-19 -95h-733l19 95h733zM1190 256q0 -71 30.5 -97t120.5 -32v-55q-305 -54 -491 -92h-4v163q-67 -74 -172 -118.5t-221 -44.5q-130 0 -207.5 81t-77.5 218v479q0 77 -30.5 108.5t-121.5 46.5v56q337 91 492 143h4v-766q0 -182 166 -182q83 0 168 72v522
q0 77 -30.5 108.5t-121.5 46.5v56q337 91 492 143h4v-856z" />
    <glyph glyph-name="Uring" unicode="&#x16e;" horiz-adv-x="1701" 
d="M973 1575q-106 0 -170 60.5t-64 158.5q0 97 64.5 157t169.5 60q104 0 168.5 -60t64.5 -157q0 -98 -64.5 -158.5t-168.5 -60.5zM973 1935q-66 0 -106 -39t-40 -102q0 -64 40 -102.5t106 -38.5q65 0 105 38.5t40 102.5q0 63 -40 102t-105 39zM1663 1503v-59
q-123 -9 -164 -44.5t-41 -131.5v-774q0 -240 -145 -377t-400 -137q-671 0 -671 528v760q0 96 -41 131.5t-164 44.5v59h813v-59q-147 -9 -196.5 -46.5t-49.5 -137.5v-805q0 -172 102 -276.5t269 -104.5q170 0 273.5 108t103.5 285v760q0 121 -49 164.5t-197 52.5v59h557z" />
    <glyph glyph-name="uring" unicode="&#x16f;" horiz-adv-x="1361" 
d="M680 1210q-106 0 -170 59.5t-64 157.5t64 158t170 60q104 0 168.5 -60t64.5 -158t-64 -157.5t-169 -59.5zM680 1569q-66 0 -107 -39.5t-41 -102.5t41 -102t107 -39q65 0 105 39t40 102t-40.5 102.5t-104.5 39.5zM1190 256q0 -71 30.5 -97t120.5 -32v-55
q-305 -54 -491 -92h-4v163q-67 -74 -172 -118.5t-221 -44.5q-130 0 -207.5 81t-77.5 218v479q0 77 -30.5 108.5t-121.5 46.5v56q337 91 492 143h4v-766q0 -182 166 -182q83 0 168 72v522q0 77 -30.5 108.5t-121.5 46.5v56q337 91 492 143h4v-856z" />
    <glyph glyph-name="Uhungarumlaut" unicode="&#x170;" horiz-adv-x="1701" 
d="M1038 1751q-98 -62 -428 -170l-26 39q237 279 319 334q38 24 76 24q51 0 86 -34.5t35 -85.5q0 -68 -62 -107zM1032 1581l-26 39q237 279 319 334q37 24 76 24q51 0 86 -34.5t35 -85.5q0 -68 -62 -107q-98 -62 -428 -170zM1663 1503v-59q-123 -9 -164 -44.5t-41 -131.5
v-774q0 -240 -145 -377t-400 -137q-671 0 -671 528v760q0 96 -41 131.5t-164 44.5v59h813v-59q-147 -9 -196.5 -46.5t-49.5 -137.5v-805q0 -172 102 -276.5t269 -104.5q170 0 273.5 108t103.5 285v760q0 121 -49 164.5t-197 52.5v59h557z" />
    <glyph glyph-name="uhungarumlaut" unicode="&#x171;" horiz-adv-x="1361" 
d="M819 1430q-45 -38 -152 -105.5t-241 -136.5l-31 33q175 302 256 383q38 41 92 41q47 0 83 -35t36 -84q0 -56 -43 -96zM807 1188l-31 33q175 302 256 383q38 41 92 41q47 0 83 -35t36 -84q0 -56 -43 -96q-45 -38 -152 -105.5t-241 -136.5zM1190 256q0 -71 30.5 -97
t120.5 -32v-55q-305 -54 -491 -92h-4v163q-67 -74 -172 -118.5t-221 -44.5q-130 0 -207.5 81t-77.5 218v479q0 77 -30.5 108.5t-121.5 46.5v56q337 91 492 143h4v-766q0 -182 166 -182q83 0 168 72v522q0 77 -30.5 108.5t-121.5 46.5v56q337 91 492 143h4v-856z" />
    <glyph glyph-name="Uogonek" unicode="&#x172;" horiz-adv-x="1701" 
d="M1663 1503v-59q-123 -9 -164 -44.5t-41 -131.5v-774q0 -196 -98 -325.5t-277 -170.5q-91 -48 -147.5 -113t-56.5 -125q0 -32 23.5 -52.5t60.5 -20.5q65 0 124 49l21 -51q-45 -40 -125 -72.5t-170 -32.5q-88 0 -141.5 39t-53.5 102q0 73 74 139t209 120q-659 6 -659 528
v760q0 96 -41 131.5t-164 44.5v59h813v-59q-147 -9 -196.5 -46.5t-49.5 -137.5v-805q0 -172 102 -276.5t269 -104.5q170 0 273.5 108t103.5 285v760q0 121 -49 164.5t-197 52.5v59h557z" />
    <glyph glyph-name="uogonek" unicode="&#x173;" horiz-adv-x="1366" 
d="M1341 72q-139 -68 -207.5 -152t-68.5 -160q0 -32 23 -52.5t61 -20.5q64 0 123 49l20 -51q-45 -40 -125 -72.5t-170 -32.5q-88 0 -141 39.5t-53 104.5q0 171 315 307q-61 -11 -268 -51h-4v163q-67 -74 -172 -118.5t-221 -44.5q-130 0 -207.5 81t-77.5 218v479
q0 77 -30.5 108.5t-121.5 46.5v56q337 91 492 143h4v-766q0 -182 166 -182q83 0 168 72v522q0 77 -30.5 108.5t-121.5 46.5v56q337 91 492 143h4v-856q0 -71 30.5 -97t120.5 -32v-55z" />
    <glyph glyph-name="Wcircumflex" unicode="&#x174;" horiz-adv-x="2428" 
d="M1337 1735l-329 -127l-25 43l332 291h47l332 -291l-25 -43zM1837 1503h604v-59q-102 -11 -158 -59t-108 -181l-494 -1224h-47l-417 1017l-420 -1017h-47l-533 1312q-38 91 -82.5 120t-144.5 32v59h887v-59q-146 -9 -203.5 -33.5t-57.5 -79.5q0 -44 35 -125l271 -676
l403 994h47l414 -1020l219 571q74 192 74 252q0 62 -53.5 86.5t-188.5 30.5v59z" />
    <glyph glyph-name="wcircumflex" unicode="&#x175;" horiz-adv-x="1921" 
d="M1092 1401l-318 -213l-33 31l328 426h45l326 -426l-33 -31zM1421 1094h523v-60q-92 -11 -144.5 -58.5t-113.5 -180.5l-371 -815h-47l-305 684l-314 -684h-47l-409 903q-39 87 -81 117.5t-122 33.5v60h774v-60q-110 -9 -154.5 -29.5t-44.5 -66.5q0 -41 43 -141l154 -369
l315 686h45l301 -684l105 236q84 192 84 258q0 57 -43.5 80.5t-147.5 29.5v60z" />
    <glyph glyph-name="Ycircumflex" unicode="&#x176;" horiz-adv-x="1634" 
d="M940 1735l-332 -127l-24 43l331 291h48l331 -291l-24 -43zM1012 1503h645v-59q-123 -11 -219 -82.5t-193 -247.5l-250 -446v-424q0 -101 46 -138.5t184 -46.5v-59h-819v59q138 9 183.5 46.5t45.5 138.5v426l-318 555q-68 121 -128.5 166t-151.5 53v59h856v-59
q-111 -4 -157 -25t-46 -63q0 -28 17 -67t57 -115l197 -371l145 264q62 114 89.5 175.5t27.5 100.5q0 50 -48.5 73.5t-162.5 27.5v59z" />
    <glyph glyph-name="ycircumflex" unicode="&#x177;" horiz-adv-x="1308" 
d="M762 1401l-318 -213l-32 31l327 426h45l326 -426l-33 -31zM834 1094h497v-60q-90 -10 -141.5 -58t-116.5 -181l-498 -1022q-49 -99 -132.5 -151t-190.5 -52q-80 0 -129 42t-49 109q0 54 22 93l412 2q0 1 1 2t1 2l98 205l-415 858q-41 87 -82 117.5t-121 33.5v60h702v-60
q-76 -2 -108.5 -17.5t-32.5 -55.5q0 -47 57 -164l183 -387l122 256q91 187 91 258q0 55 -39.5 79.5t-130.5 30.5v60z" />
    <glyph glyph-name="Ydieresis" unicode="&#x178;" horiz-adv-x="1634" 
d="M735 1630q-69 0 -114.5 45t-45.5 111q0 67 45.5 111.5t114.5 44.5q68 0 113 -44.5t45 -111.5q0 -66 -45.5 -111t-112.5 -45zM1145 1630q-69 0 -114.5 45t-45.5 111q0 67 45.5 111.5t114.5 44.5q68 0 113 -44.5t45 -111.5q0 -66 -45.5 -111t-112.5 -45zM1012 1503h645v-59
q-123 -11 -219 -82.5t-193 -247.5l-250 -446v-424q0 -101 46 -138.5t184 -46.5v-59h-819v59q138 9 183.5 46.5t45.5 138.5v426l-318 555q-68 121 -128.5 166t-151.5 53v59h856v-59q-111 -4 -157 -25t-46 -63q0 -28 17 -67t57 -115l197 -371l145 264q62 114 89.5 175.5
t27.5 100.5q0 50 -48.5 73.5t-162.5 27.5v59z" />
    <glyph glyph-name="Zacute" unicode="&#x179;" horiz-adv-x="1546" 
d="M1044 1710q-97 -44 -450 -102l-21 41q271 233 369 280q26 13 59 13q53 0 87 -35t34 -84q0 -34 -20.5 -64t-57.5 -49zM1405 561l68 -12l-74 -559q-270 10 -815 10h-539l-2 6l950 1403h-370q-137 0 -219 -40t-141.5 -136.5t-119.5 -286.5l-63 12l141 555q215 -10 762 -10
h481l2 -4l-950 -1405h410q113 0 185 19.5t128.5 74.5t93 141.5t72.5 231.5z" />
    <glyph glyph-name="zacute" unicode="&#x17a;" horiz-adv-x="1185" 
d="M852 1430q-87 -83 -393 -242l-31 33q175 302 256 383q41 41 92 41q48 0 84.5 -35t36.5 -84q0 -57 -45 -96zM690 78q143 0 232.5 83t136.5 261l61 -6l-49 -426q-225 10 -641 10h-385l-2 4l643 1012h-192q-129 0 -215 -87t-142 -272l-59 15l96 432q167 -10 596 -10h350
l2 -4l-645 -1012h213z" />
    <glyph glyph-name="Zdotaccent" unicode="&#x17b;" horiz-adv-x="1546" 
d="M821 1599q-88 0 -146.5 56t-58.5 141t58.5 141t146.5 56t146.5 -56t58.5 -141t-58.5 -141t-146.5 -56zM1405 561l68 -12l-74 -559q-270 10 -815 10h-539l-2 6l950 1403h-370q-137 0 -219 -40t-141.5 -136.5t-119.5 -286.5l-63 12l141 555q215 -10 762 -10h481l2 -4
l-950 -1405h410q113 0 185 19.5t128.5 74.5t93 141.5t72.5 231.5z" />
    <glyph glyph-name="zdotaccent" unicode="&#x17c;" horiz-adv-x="1185" 
d="M643 1251q-89 0 -147 56t-58 141t58 141t147 56q88 0 146.5 -56t58.5 -141t-58.5 -141t-146.5 -56zM690 78q143 0 232.5 83t136.5 261l61 -6l-49 -426q-225 10 -641 10h-385l-2 4l643 1012h-192q-129 0 -215 -87t-142 -272l-59 15l96 432q167 -10 596 -10h350l2 -4
l-645 -1012h213z" />
    <glyph glyph-name="Zcaron" unicode="&#x17d;" horiz-adv-x="1546" 
d="M844 1608h-45l-332 293l25 41l329 -125l330 125l25 -41zM1405 561l68 -12l-74 -559q-270 10 -815 10h-539l-2 6l950 1403h-370q-137 0 -219 -40t-141.5 -136.5t-119.5 -286.5l-63 12l141 555q215 -10 762 -10h481l2 -4l-950 -1405h410q113 0 185 19.5t128.5 74.5
t93 141.5t72.5 231.5z" />
    <glyph glyph-name="zcaron" unicode="&#x17e;" horiz-adv-x="1185" 
d="M666 1188h-48l-325 426l33 31l317 -213l315 213l33 -31zM690 78q143 0 232.5 83t136.5 261l61 -6l-49 -426q-225 10 -641 10h-385l-2 4l643 1012h-192q-129 0 -215 -87t-142 -272l-59 15l96 432q167 -10 596 -10h350l2 -4l-645 -1012h213z" />
    <glyph glyph-name="florin" unicode="&#x192;" horiz-adv-x="1150" 
d="M1073 813l-16 -88h-258q24 -67 24 -119q0 -101 -46.5 -213t-119 -203t-170.5 -150.5t-194 -59.5q-82 0 -132 41.5t-50 109.5q0 41 18 86h453q2 14 2 43q0 84 -36 163.5t-102 176.5q-51 77 -73 125h-293l16 88h242q-12 41 -12 82q0 101 46.5 213.5t119 204t171 151.5
t193.5 60q82 0 132 -42t50 -110q0 -36 -16 -86h-451q-6 -34 -6 -65q0 -46 11 -90t37.5 -93.5t43 -76t54.5 -82.5q3 -6 18.5 -29.5t22.5 -36.5h321z" />
    <glyph glyph-name="AEacute" unicode="&#x1fc;" horiz-adv-x="2416" 
d="M1647 1710q-95 -44 -453 -102l-18 41q272 234 368 280q26 13 60 13q53 0 86.5 -35t33.5 -84q0 -34 -20.5 -64t-56.5 -49zM2310 584l66 -21l-193 -573q-179 10 -510 10h-831v59q122 9 163.5 45t41.5 132v485h-474l-124 -293q-47 -112 -67 -170t-20 -94q0 -53 45 -76
t156 -29v-59h-571v59q105 11 170 60.5t121 179.5l520 1204h831q308 0 477 10l173 -552l-64 -23q-39 117 -80.5 194.5t-94.5 133.5t-127 86t-166.5 43.5t-225.5 13.5h-117v-594h104q93 0 145 29t84 100t56 211h64q-7 -280 -7 -397q0 -118 7 -398h-64q-24 148 -56 223.5
t-84 106.5t-145 31h-104v-502q0 -75 26 -100t105 -25h90q103 0 178.5 8.5t141.5 31.5t114.5 57.5t92.5 91t80 128.5t73 173zM612 815h435v412q0 101 -36 146.5t-134 62.5z" />
    <glyph glyph-name="aeacute" unicode="&#x1fd;" horiz-adv-x="1853" 
d="M1212 1430q-40 -37 -147.5 -103.5t-247.5 -138.5l-31 33q183 310 256 383q41 41 95 41q47 0 82.5 -35t35.5 -84q0 -56 -43 -96zM1757 328l43 -25q-63 -146 -205.5 -234.5t-314.5 -88.5q-156 0 -278 61.5t-195 173.5q-84 -108 -208.5 -171.5t-258.5 -63.5q-129 0 -206 60
t-77 159q0 84 63 150.5t202 119.5l395 147v209q0 91 -47 143t-129 52q-37 0 -92 -19v-378q-85 -54 -177 -54q-70 0 -111.5 35.5t-41.5 100.5q0 115 85 211t214 147t266 51q90 0 157 -41t101 -115q140 156 367 156q214 0 344.5 -130.5t130.5 -344.5h-723v-12q0 -197 107 -318
t284 -121q83 0 167 38.5t138 101.5zM1305 1036q-96 0 -159.5 -84.5t-80.5 -232.5h162q105 0 165 45.5t60 122.5q0 66 -40.5 107.5t-106.5 41.5zM543 164q112 0 225 123q-48 109 -51 241l-68 -26q-108 -42 -168.5 -101t-60.5 -120q0 -53 34 -85t89 -32z" />
    <glyph glyph-name="uni0218" unicode="&#x218;" horiz-adv-x="1435" 
d="M719 -20q-83 0 -162.5 18.5t-142 37.5t-103.5 19q-33 0 -50 -13t-34 -52h-34l-117 553l63 14q89 -219 246 -351t326 -132q162 0 246.5 59t84.5 168q0 34 -11.5 64.5t-28.5 54t-48.5 47.5t-59.5 40.5t-74.5 36.5t-79 33t-87.5 33l-84.5 32.5t-82 34t-81.5 39t-73.5 43.5
t-68 50.5t-55 58t-44.5 68.5t-26.5 78.5t-10.5 91.5q0 190 151 304t398 114q83 0 160 -19.5t136.5 -39t100.5 -19.5q30 0 47 14t29 53h33l116 -530l-59 -12q-79 205 -235 332t-328 127q-113 0 -181.5 -49.5t-68.5 -129.5q0 -35 12.5 -66.5t30.5 -56t52.5 -50t62.5 -42
t78.5 -39.5t82.5 -35.5t91 -35.5q50 -19 84 -32.5t81.5 -35t80 -39t72 -42t66 -48.5t53.5 -54.5t43 -62.5t26 -71.5t10 -81.5q0 -219 -170.5 -349t-462.5 -130zM629 -430l-15 51q51 12 81 35t30 51q0 31 -33.5 48.5t-93.5 17.5q-14 37 -14 59q0 52 40.5 86.5t102.5 34.5
q75 0 120.5 -45t45.5 -117q0 -79 -72.5 -140t-191.5 -81z" />
    <glyph glyph-name="uni0219" unicode="&#x219;" horiz-adv-x="1114" 
d="M565 -20q-60 0 -115 11.5t-87.5 25t-65 25t-53.5 11.5q-22 0 -36.5 -13.5t-27.5 -49.5h-33l-86 409l56 13q75 -161 195.5 -259t244.5 -98q103 0 156 38.5t53 111.5q0 29 -16.5 55t-37.5 44t-64.5 39.5t-72 33t-86.5 33.5q-44 17 -62.5 24t-60.5 24.5t-61.5 28.5t-54 30.5
t-52 35.5t-40.5 40t-34 47.5t-19.5 53.5t-8.5 62q0 162 114 260t302 98q68 0 134.5 -16t115 -31.5t74.5 -15.5q23 0 34 10t25 43h33l78 -399l-56 -11q-57 155 -175.5 249.5t-252.5 94.5q-76 0 -123 -37.5t-47 -99.5q0 -28 16 -53.5t39.5 -45t64.5 -40.5t76 -35.5t89 -34.5
q54 -22 85 -35t81 -36.5t79 -42.5t65 -48t55.5 -57.5t33 -66t13.5 -78.5q0 -158 -132 -253t-352 -95zM465 -430l-14 51q52 12 81 35t29 51q0 31 -32.5 48.5t-92.5 17.5q-16 32 -16 59q0 53 41 87t104 34q73 0 118.5 -45t45.5 -117q0 -79 -72.5 -140t-191.5 -81z" />
    <glyph glyph-name="uni021A" unicode="&#x21a;" horiz-adv-x="1581" 
d="M1389 1540l170 -579l-64 -21q-53 146 -98 232.5t-102.5 142t-124 75t-166.5 19.5h-33v-1165q0 -101 45.5 -138.5t183.5 -46.5v-59h-821v59q139 9 184 46.5t45 138.5v1165h-33q-79 0 -136.5 -13.5t-106.5 -43t-89.5 -86t-77.5 -133.5t-79 -193l-63 21l170 579h4
q87 -22 179.5 -29.5t282.5 -7.5h261q192 0 284.5 7.5t179.5 29.5h5zM780 -47q73 0 118.5 -45t45.5 -117q0 -79 -72.5 -140t-191.5 -81l-14 51q52 12 81 35t29 51q0 31 -32.5 48.5t-92.5 17.5q-16 32 -16 59q0 53 41 87t104 34z" />
    <glyph glyph-name="uni021B" unicode="&#x21b;" horiz-adv-x="845" 
d="M602 147q49 0 102.5 30t90.5 77l36 -33q-57 -109 -159.5 -175t-212.5 -66q-134 0 -212.5 70t-78.5 188v735h-152v55q140 64 237.5 140t190.5 192h60v-266h327l-26 -121h-293v-697q0 -74 19 -101.5t71 -27.5zM358 -47q73 0 118.5 -45t45.5 -117q0 -79 -72.5 -140
t-191.5 -81l-14 51q51 12 80.5 35t29.5 51q0 31 -33.5 48.5t-91.5 17.5q-16 32 -16 59q0 53 41 87t104 34z" />
    <glyph glyph-name="uni0237" unicode="&#x237;" horiz-adv-x="651" 
d="M43 -430l-20 57q85 68 118 154t33 244v733q0 77 -30.5 108.5t-120.5 46.5v56q332 90 491 143h4v-952q0 -232 -130.5 -394t-344.5 -196z" />
    <glyph glyph-name="circumflex" unicode="&#x2c6;" horiz-adv-x="1130" 
d="M913 1219l-30 -31l-318 213l-317 -213l-31 31l326 426h45z" />
    <glyph glyph-name="caron" unicode="&#x2c7;" horiz-adv-x="1130" 
d="M883 1645l30 -31l-325 -426h-45l-326 426l31 31l317 -213z" />
    <glyph glyph-name="breve" unicode="&#x2d8;" horiz-adv-x="1105" 
d="M553 1194q-115 0 -204 110.5t-142 315.5l47 20q51 -116 128.5 -182.5t170.5 -66.5t170.5 66.5t128.5 182.5l47 -20q-53 -205 -142 -315.5t-204 -110.5z" />
    <glyph glyph-name="dotaccent" unicode="&#x2d9;" horiz-adv-x="716" 
d="M358 1251q-88 0 -146 56t-58 141t58 141t146 56q89 0 147 -56t58 -141t-58 -141t-147 -56z" />
    <glyph glyph-name="ring" unicode="&#x2da;" horiz-adv-x="1105" 
d="M553 1210q-106 0 -170 59.5t-64 157.5t64 158t170 60t169.5 -60t63.5 -158t-63.5 -157.5t-169.5 -59.5zM553 1286q66 0 105.5 39t39.5 102t-39.5 102.5t-105.5 39.5t-105.5 -39.5t-39.5 -102.5t39.5 -102t105.5 -39z" />
    <glyph glyph-name="ogonek" unicode="&#x2db;" horiz-adv-x="1136" 
d="M498 -420q-86 0 -140.5 39t-54.5 102q0 94 117.5 173.5t324.5 138.5l27 -33q-92 -47 -149.5 -113.5t-57.5 -126.5q0 -32 23 -52.5t61 -20.5q64 0 123 49l21 -51q-45 -40 -125 -72.5t-170 -32.5z" />
    <glyph glyph-name="tilde" unicode="&#x2dc;" horiz-adv-x="1228" 
d="M772 1272q-82 0 -211 59q-128 60 -201 60q-82 0 -110 -113l-49 12q13 122 83 209.5t171 87.5q75 0 204 -59q128 -60 207 -60q83 0 111 113l49 -12q-14 -122 -83.5 -209.5t-170.5 -87.5z" />
    <glyph glyph-name="hungarumlaut" unicode="&#x2dd;" horiz-adv-x="1136" 
d="M174 1188l-31 33q175 302 256 383q41 41 93 41q48 0 84 -35t36 -84q0 -57 -45 -96q-42 -37 -149.5 -104.5t-243.5 -137.5zM555 1188l-31 33q175 302 256 383q41 41 92 41q48 0 84.5 -35t36.5 -84q0 -57 -45 -96q-42 -37 -149.5 -104.5t-243.5 -137.5z" />
    <glyph glyph-name="gravecomb" unicode="&#x300;" 
d="M-238 1188q-139 72 -246 138.5t-147 103.5q-45 42 -45 96q0 49 36.5 84t84.5 35q54 0 92 -41q81 -81 256 -383z" />
    <glyph glyph-name="acutecomb" unicode="&#x301;" 
d="M-635 1188l-31 33q175 302 256 383q41 41 93 41q48 0 84 -35t36 -84q0 -57 -45 -96q-87 -83 -393 -242z" />
    <glyph glyph-name="uni0302" unicode="&#x302;" 
d="M-217 1219l-31 -31l-317 213l-318 -213l-30 31l325 426h45z" />
    <glyph glyph-name="tildecomb" unicode="&#x303;" 
d="M-455 1272q-82 0 -211 59q-42 20 -67.5 30.5t-62.5 20t-70 9.5q-83 0 -111 -113l-49 12q13 122 83 209.5t171 87.5q76 0 205 -59q128 -60 207 -60q82 0 110 113l49 -12q-14 -122 -83.5 -209.5t-170.5 -87.5z" />
    <glyph glyph-name="uni0304" unicode="&#x304;" 
d="M-920 1380l21 95h733l-20 -95h-734z" />
    <glyph glyph-name="uni0306" unicode="&#x306;" 
d="M-553 1194q-115 0 -204 110.5t-142 315.5l47 20q51 -116 128.5 -182.5t170.5 -66.5t170.5 66.5t128.5 182.5l47 -20q-53 -205 -142 -315.5t-204 -110.5z" />
    <glyph glyph-name="uni0307" unicode="&#x307;" 
d="M-358 1251q-88 0 -146.5 56t-58.5 141t58.5 141t146.5 56q89 0 146.5 -56t57.5 -141t-57.5 -141t-146.5 -56z" />
    <glyph glyph-name="uni0308" unicode="&#x308;" 
d="M-768 1292q-68 0 -113 44.5t-45 111.5t45 111.5t113 44.5q69 0 114.5 -44.5t45.5 -111.5t-45.5 -111.5t-114.5 -44.5zM-358 1292q-68 0 -113 44.5t-45 111.5t45 111.5t113 44.5q69 0 114 -44t45 -112t-45 -112t-114 -44z" />
    <glyph glyph-name="uni030A" unicode="&#x30a;" 
d="M-553 1210q-106 0 -169.5 59.5t-63.5 157.5t63.5 158t169.5 60t170 -60t64 -158t-64 -157.5t-170 -59.5zM-553 1286q66 0 105.5 39t39.5 102t-39.5 102.5t-105.5 39.5t-105.5 -39.5t-39.5 -102.5t39.5 -102t105.5 -39z" />
    <glyph glyph-name="uni030B" unicode="&#x30b;" 
d="M-963 1188l-30 33q175 302 256 383q41 41 92 41q48 0 84.5 -35t36.5 -84q0 -57 -45 -96q-42 -37 -150 -104t-244 -138zM-582 1188l-30 33q175 302 256 383q41 41 92 41q48 0 84.5 -35t36.5 -84q0 -57 -45 -96q-42 -37 -150 -104t-244 -138z" />
    <glyph glyph-name="uni030C" unicode="&#x30c;" 
d="M-248 1645l31 -31l-326 -426h-45l-325 426l30 31l318 -213z" />
    <glyph glyph-name="uni0312" unicode="&#x312;" 
d="M-512 1217q-75 0 -120.5 44.5t-45.5 116.5q0 98 72.5 173t191.5 98l15 -52q-51 -15 -81 -44.5t-30 -65.5q0 -42 33.5 -66t93.5 -24q14 -33 14 -58q0 -52 -40.5 -87t-102.5 -35z" />
    <glyph glyph-name="uni0326" unicode="&#x326;" 
d="M-633 -430l-14 51q51 12 80.5 35t29.5 51q0 31 -33.5 48.5t-91.5 17.5q-16 32 -16 59q0 52 41.5 86.5t104.5 34.5q73 0 118 -45t45 -117q0 -79 -72.5 -140t-191.5 -81z" />
    <glyph glyph-name="uni0327" unicode="&#x327;" 
d="M-584 -430l-10 41q125 36 125 90q0 60 -145 141l108 176l94 -18l-45 -70q185 -94 185 -194q0 -151 -312 -166z" />
    <glyph glyph-name="uni0328" unicode="&#x328;" 
d="M-639 -420q-86 0 -140.5 39t-54.5 102q0 94 117.5 173.5t325.5 138.5l26 -33q-92 -47 -149 -113.5t-57 -126.5q0 -32 23 -52.5t61 -20.5q63 0 122 49l21 -51q-45 -40 -125 -72.5t-170 -32.5z" />
    <glyph glyph-name="uni0394" unicode="&#x394;" horiz-adv-x="1437" 
d="M743 1524l703 -1518l-2 -6h-1450l-2 6l704 1518h47zM143 94h867l-428 955z" />
    <glyph glyph-name="uni03A9" unicode="&#x3a9;" horiz-adv-x="1921" 
d="M1780 514l65 -12l-65 -512q-245 10 -717 10h-51l-2 6q166 210 237.5 410.5t71.5 439.5q0 258 -98.5 416t-259.5 158t-260 -158t-99 -416q0 -241 71 -440.5t238 -409.5l-2 -6h-51q-460 0 -717 -10l-67 512l67 12q19 -89 60.5 -135t119.5 -65t220 -19h80
q-82 53 -154.5 119.5t-132 144.5t-94.5 168t-35 178q0 184 93.5 324.5t265.5 217.5t397 77q340 0 547.5 -170.5t207.5 -448.5q0 -88 -35 -178t-95 -168t-132 -144t-154 -120h80q206 0 288.5 44.5t111.5 174.5z" />
    <glyph glyph-name="uni03BC" unicode="&#x3bc;" horiz-adv-x="1480" 
d="M1249 256q0 -71 30 -97t122 -32v-55q-304 -53 -492 -92h-4v163q-58 -75 -145 -119t-182 -44q-138 0 -203 120q9 -42 27.5 -125.5t26 -121t15 -86.5t7.5 -82q0 -49 -34.5 -82t-84.5 -33t-84.5 33t-34.5 82q0 106 14 622v451q0 77 -30.5 108.5t-120.5 46.5v56
q332 90 491 143h4v-766q0 -182 164 -182q85 0 170 72v522q0 77 -30.5 108.5t-120.5 46.5v56q332 90 491 143h4v-856z" />
    <glyph glyph-name="pi" unicode="&#x3c0;" horiz-adv-x="1411" 
d="M1337 262l43 -26q-40 -118 -123 -187t-186 -69q-95 0 -151 53.5t-56 144.5v836h-329v-826q0 -71 27 -97t108 -32v-59h-631v59q90 6 120.5 32t30.5 97v717q0 72 -30 97.5t-121 31.5v60h1321v-60q-92 -6 -122 -31.5t-30 -97.5v-686q0 -31 8 -43t29 -12q49 0 92 98z" />
    <glyph glyph-name="Wgrave" unicode="&#x1e80;" horiz-adv-x="2428" 
d="M1104 1710q-37 19 -57.5 49t-20.5 64q0 49 34 84t87 35q33 0 59 -13q98 -47 369 -280l-19 -41q-356 58 -452 102zM1837 1503h604v-59q-102 -11 -158 -59t-108 -181l-494 -1224h-47l-417 1017l-420 -1017h-47l-533 1312q-38 91 -82.5 120t-144.5 32v59h887v-59
q-146 -9 -203.5 -33.5t-57.5 -79.5q0 -44 35 -125l271 -676l403 994h47l414 -1020l219 571q74 192 74 252q0 62 -53.5 86.5t-188.5 30.5v59z" />
    <glyph glyph-name="wgrave" unicode="&#x1e81;" horiz-adv-x="1921" 
d="M864 1430q-45 39 -45 96q0 49 36.5 84t84.5 35q51 0 92 -41q81 -81 256 -383l-31 -33q-306 159 -393 242zM1421 1094h523v-60q-92 -11 -144.5 -58.5t-113.5 -180.5l-371 -815h-47l-305 684l-314 -684h-47l-409 903q-39 87 -81 117.5t-122 33.5v60h774v-60
q-110 -9 -154.5 -29.5t-44.5 -66.5q0 -41 43 -141l154 -369l315 686h45l301 -684l105 236q84 192 84 258q0 57 -43.5 80.5t-147.5 29.5v60z" />
    <glyph glyph-name="Wacute" unicode="&#x1e82;" horiz-adv-x="2428" 
d="M1561 1710q-91 -43 -451 -102l-18 41q271 233 366 280q26 13 60 13q53 0 86.5 -35t33.5 -84q0 -75 -77 -113zM1837 1503h604v-59q-102 -11 -158 -59t-108 -181l-494 -1224h-47l-417 1017l-420 -1017h-47l-533 1312q-38 91 -82.5 120t-144.5 32v59h887v-59
q-146 -9 -203.5 -33.5t-57.5 -79.5q0 -44 35 -125l271 -676l403 994h47l414 -1020l219 571q74 192 74 252q0 62 -53.5 86.5t-188.5 30.5v59z" />
    <glyph glyph-name="wacute" unicode="&#x1e83;" horiz-adv-x="1921" 
d="M1300 1430q-87 -83 -393 -242l-30 33q183 310 256 383q41 41 92 41q48 0 84.5 -35t36.5 -84q0 -56 -46 -96zM1421 1094h523v-60q-92 -11 -144.5 -58.5t-113.5 -180.5l-371 -815h-47l-305 684l-314 -684h-47l-409 903q-39 87 -81 117.5t-122 33.5v60h774v-60
q-110 -9 -154.5 -29.5t-44.5 -66.5q0 -41 43 -141l154 -369l315 686h45l301 -684l105 236q84 192 84 258q0 57 -43.5 80.5t-147.5 29.5v60z" />
    <glyph glyph-name="Wdieresis" unicode="&#x1e84;" horiz-adv-x="2428" 
d="M1133 1630q-67 0 -112.5 45t-45.5 111q0 67 45 111.5t113 44.5q69 0 114 -44t45 -112q0 -66 -45 -111t-114 -45zM1542 1630q-67 0 -112.5 45t-45.5 111q0 67 45 111.5t113 44.5q69 0 114.5 -44.5t45.5 -111.5q0 -66 -45.5 -111t-114.5 -45zM1837 1503h604v-59
q-102 -11 -158 -59t-108 -181l-494 -1224h-47l-417 1017l-420 -1017h-47l-533 1312q-38 91 -82.5 120t-144.5 32v59h887v-59q-146 -9 -203.5 -33.5t-57.5 -79.5q0 -44 35 -125l271 -676l403 994h47l414 -1020l219 571q74 192 74 252q0 62 -53.5 86.5t-188.5 30.5v59z" />
    <glyph glyph-name="wdieresis" unicode="&#x1e85;" horiz-adv-x="1921" 
d="M887 1292q-69 0 -114.5 44.5t-45.5 111.5t45.5 111.5t114.5 44.5q68 0 112.5 -44.5t44.5 -111.5t-44.5 -111.5t-112.5 -44.5zM1296 1292q-69 0 -114 44t-45 112t45 112t114 44q68 0 113 -44.5t45 -111.5t-45 -111.5t-113 -44.5zM1421 1094h523v-60q-92 -11 -144.5 -58.5
t-113.5 -180.5l-371 -815h-47l-305 684l-314 -684h-47l-409 903q-39 87 -81 117.5t-122 33.5v60h774v-60q-110 -9 -154.5 -29.5t-44.5 -66.5q0 -41 43 -141l154 -369l315 686h45l301 -684l105 236q84 192 84 258q0 57 -43.5 80.5t-147.5 29.5v60z" />
    <glyph glyph-name="uni1E9E" unicode="&#x1e9e;" horiz-adv-x="1712" 
d="M1196 1024q76 -60 131.5 -108.5t120 -117t104.5 -131.5t67.5 -141t27.5 -157q0 -179 -123 -284t-320 -105q-88 0 -162 30t-124 86l38 56q30 -29 76.5 -46.5t91.5 -17.5q65 0 114.5 46.5t49.5 123.5q0 114 -74.5 223.5t-277.5 313.5l326 495q-56 65 -137.5 103.5
t-174.5 38.5q-165 0 -265.5 -104t-100.5 -275v-817q0 -96 40.5 -132t163.5 -45v-59h-772v59q122 9 163.5 45t41.5 132v708q0 262 200 421t529 159q128 0 265 -38.5t229 -101.5v-4z" />
    <glyph glyph-name="Ygrave" unicode="&#x1ef2;" horiz-adv-x="1634" 
d="M707 1710q-38 18 -58 48.5t-20 64.5q0 49 33.5 84t85.5 35q33 0 59 -13q98 -47 369 -280l-19 -41q-358 58 -450 102zM1012 1503h645v-59q-123 -11 -219 -82.5t-193 -247.5l-250 -446v-424q0 -101 46 -138.5t184 -46.5v-59h-819v59q138 9 183.5 46.5t45.5 138.5v426
l-318 555q-68 121 -128.5 166t-151.5 53v59h856v-59q-111 -4 -157 -25t-46 -63q0 -28 17 -67t57 -115l197 -371l145 264q62 114 89.5 175.5t27.5 100.5q0 50 -48.5 73.5t-162.5 27.5v59z" />
    <glyph glyph-name="ygrave" unicode="&#x1ef3;" horiz-adv-x="1308" 
d="M535 1430q-46 40 -46 96q0 49 36.5 84t84.5 35q51 0 92 -41q81 -81 256 -383l-30 -33q-306 159 -393 242zM834 1094h497v-60q-90 -10 -141.5 -58t-116.5 -181l-498 -1022q-49 -99 -132.5 -151t-190.5 -52q-80 0 -129 42t-49 109q0 54 22 93l412 2q0 1 1 2t1 2l98 205
l-415 858q-41 87 -82 117.5t-121 33.5v60h702v-60q-76 -2 -108.5 -17.5t-32.5 -55.5q0 -47 57 -164l183 -387l122 256q91 187 91 258q0 55 -39.5 79.5t-130.5 30.5v60z" />
    <glyph glyph-name="endash" unicode="&#x2013;" horiz-adv-x="1380" 
d="M133 543l25 121h1089l-24 -121h-1090z" />
    <glyph glyph-name="emdash" unicode="&#x2014;" horiz-adv-x="1802" 
d="M133 543l25 121h1511l-24 -121h-1512z" />
    <glyph glyph-name="quoteleft" unicode="&#x2018;" horiz-adv-x="591" 
d="M446 1651l25 -58q-82 -41 -131 -100t-49 -117q0 -61 47.5 -100.5t124.5 -42.5q49 -58 49 -135q0 -89 -56 -148t-141 -59q-107 0 -172 77.5t-65 202.5q0 149 101 280.5t267 199.5z" />
    <glyph glyph-name="quoteright" unicode="&#x2019;" horiz-adv-x="593" 
d="M154 891l-25 57q81 42 130.5 100.5t49.5 116.5q0 61 -47.5 101t-124.5 43q-49 58 -49 135q0 89 56 148t141 59q107 0 172 -78t65 -203q0 -149 -101 -280t-267 -199z" />
    <glyph glyph-name="quotesinglbase" unicode="&#x201a;" horiz-adv-x="622" 
d="M160 -367l-27 58q83 42 132.5 100.5t49.5 116.5q0 61 -48.5 100.5t-125.5 42.5q-47 56 -47 135q0 89 55 148t140 59q107 0 173 -77.5t66 -202.5q0 -149 -101 -280.5t-267 -199.5z" />
    <glyph glyph-name="quotedblleft" unicode="&#x201c;" horiz-adv-x="1091" 
d="M446 1651l25 -58q-82 -41 -131 -100t-49 -117q0 -61 47.5 -100.5t124.5 -42.5q49 -58 49 -135q0 -89 -56 -148t-141 -59q-107 0 -172 77.5t-65 202.5q0 149 101 280.5t267 199.5zM946 1651l25 -58q-82 -41 -131 -100t-49 -117q0 -61 47.5 -100.5t124.5 -42.5
q49 -58 49 -135q0 -89 -56 -148t-141 -59q-107 0 -172 77.5t-65 202.5q0 149 101 280.5t267 199.5z" />
    <glyph glyph-name="quotedblright" unicode="&#x201d;" horiz-adv-x="1093" 
d="M154 891l-25 57q81 42 130.5 100.5t49.5 116.5q0 61 -47.5 101t-124.5 43q-49 58 -49 135q0 89 56 148t141 59q107 0 172 -78t65 -203q0 -149 -101 -280t-267 -199zM653 891l-24 57q81 42 130.5 100.5t49.5 116.5q0 61 -47.5 101t-124.5 43q-49 58 -49 135q0 89 55.5 148
t140.5 59q107 0 172.5 -78t65.5 -203q0 -149 -101.5 -280t-267.5 -199z" />
    <glyph glyph-name="quotedblbase" unicode="&#x201e;" horiz-adv-x="1122" 
d="M160 -367l-27 58q83 42 132.5 100.5t49.5 116.5q0 61 -48.5 100.5t-125.5 42.5q-47 56 -47 135q0 89 55 148t140 59q107 0 173 -77.5t66 -202.5q0 -149 -101 -280.5t-267 -199.5zM659 -367l-26 58q83 42 132.5 100.5t49.5 116.5q0 61 -48.5 100.5t-125.5 42.5
q-47 56 -47 135q0 90 55 148.5t139 58.5q107 0 173.5 -77.5t66.5 -202.5q0 -149 -101.5 -280.5t-267.5 -199.5z" />
    <glyph glyph-name="dagger" unicode="&#x2020;" horiz-adv-x="1032" 
d="M868 1303q42 0 70.5 -30t28.5 -73t-28.5 -72.5t-70.5 -29.5q-85 0 -325 71q75 -464 75 -618q0 -47 -29.5 -78t-72.5 -31t-72.5 31t-29.5 78q0 157 75 618q-240 -71 -325 -71q-42 0 -70 29.5t-28 72.5t28 73t70 30q80 0 319 -70q-69 236 -69 319q0 42 29.5 70.5t72.5 28.5
t72.5 -28.5t29.5 -70.5q0 -83 -69 -319q239 70 319 70z" />
    <glyph glyph-name="daggerdbl" unicode="&#x2021;" horiz-adv-x="1089" 
d="M193 1098q-43 0 -72 29.5t-29 72.5t29 73t72 30q81 0 317 -70q-70 244 -70 319q0 42 30 70.5t73 28.5q44 0 74 -28t30 -71q0 -73 -72 -319q247 70 320 70q42 0 70 -30t28 -73t-28 -72.5t-70 -29.5q-81 0 -352 80q-271 -80 -350 -80zM895 995q42 0 70 -29.5t28 -72.5
t-28 -72.5t-70 -29.5q-76 0 -320 69q72 -246 72 -319q0 -43 -30 -71t-74 -28q-43 0 -73 28.5t-30 70.5q0 75 70 319q-233 -69 -317 -69q-43 0 -72 29.5t-29 72.5t29 72.5t72 29.5q79 0 350 -80q271 80 352 80z" />
    <glyph glyph-name="bullet" unicode="&#x2022;" horiz-adv-x="929" 
d="M465 293q-137 0 -227.5 88t-90.5 221t90.5 221t227.5 88t227 -88t90 -221t-90 -221t-227 -88z" />
    <glyph glyph-name="ellipsis" unicode="&#x2026;" horiz-adv-x="1785" 
d="M307 -20q-92 0 -153.5 58.5t-61.5 147.5t61.5 148t153.5 59t153.5 -59t61.5 -148t-61.5 -147.5t-153.5 -58.5zM893 -20q-92 0 -153.5 58.5t-61.5 147.5t61.5 148t153.5 59t153.5 -59t61.5 -148t-61.5 -147.5t-153.5 -58.5zM1479 -20q-92 0 -153.5 58.5t-61.5 147.5
t61.5 148t153.5 59t153.5 -59t61.5 -148t-61.5 -147.5t-153.5 -58.5z" />
    <glyph glyph-name="perthousand" unicode="&#x2030;" horiz-adv-x="2826" 
d="M360 -57l-75 63l1304 1555l76 -64zM455 647q-167 0 -269 119.5t-102 314.5t102 315t269 120q166 0 267 -120t101 -315t-101 -314.5t-267 -119.5zM455 707q47 0 76.5 103t29.5 271q0 169 -29.5 273t-76.5 104q-49 0 -79 -104t-30 -273t30 -271.5t79 -102.5zM1495 -12
q-166 0 -268.5 119.5t-102.5 314.5t102.5 314.5t268.5 119.5t268.5 -119.5t102.5 -314.5t-102.5 -314.5t-268.5 -119.5zM2382 -12q-167 0 -270 119.5t-103 314.5t103 314.5t270 119.5q165 0 266.5 -119.5t101.5 -314.5t-101.5 -314.5t-266.5 -119.5zM1495 47q47 0 77 103.5
t30 271.5t-30 272.5t-77 104.5t-76.5 -104t-29.5 -273q0 -168 29.5 -271.5t76.5 -103.5zM2382 47q47 0 75.5 103t28.5 272t-28.5 273t-75.5 104q-49 0 -79 -104t-30 -273t30 -272t79 -103z" />
    <glyph glyph-name="guilsinglleft" unicode="&#x2039;" horiz-adv-x="589" 
d="M487 1034l-184 -432l184 -434l-43 -25l-354 435v47l354 434z" />
    <glyph glyph-name="guilsinglright" unicode="&#x203a;" horiz-adv-x="589" 
d="M145 1059l355 -434v-47l-355 -435l-41 25l185 434l-185 432z" />
    <glyph glyph-name="fraction" unicode="&#x2044;" horiz-adv-x="237" 
d="M-496 -57l-75 63l1304 1555l76 -64z" />
    <glyph glyph-name="Euro" unicode="&#x20ac;" horiz-adv-x="1542" 
d="M1329 547h66v-557h-33q-14 36 -30.5 49.5t-41.5 13.5q-29 0 -81 -18.5t-120.5 -36.5t-138.5 -18q-283 0 -471.5 169.5t-228.5 456.5h-174l16 86h150q-2 20 -2 60q0 32 4 90h-168l16 86h162q48 273 234.5 434.5t461.5 161.5q73 0 138.5 -18.5t111.5 -37t72 -18.5
q21 0 36 12.5t33 48.5h33v-534h-63q0 202 -85.5 325t-226.5 123q-137 0 -230.5 -134t-121.5 -363h463l-16 -86h-455q-2 -29 -2 -90q0 -42 2 -60h426l-16 -86h-406q23 -243 118.5 -385.5t237.5 -142.5q149 0 239.5 129t90.5 340z" />
    <glyph glyph-name="uni20BF" unicode="&#x20bf;" horiz-adv-x="1615" 
d="M1530 408q0 -117 -78 -210.5t-206 -144.5t-279 -53v-205h-99v205h-180v-205h-98v205h-502v59q122 9 163.5 45t41.5 132v1032q0 96 -41 131.5t-164 44.5v59h502v166h98v-166h158h22v166h99v-172q213 -23 336.5 -121.5t123.5 -247.5q0 -123 -83 -214t-232 -136
q195 -35 306.5 -133t111.5 -237zM1030 1112q0 137 -78.5 217t-224.5 80h-72v-594h72q146 0 224.5 80t78.5 217zM819 94q127 0 220.5 88.5t93.5 225.5q0 143 -91.5 228t-255.5 85h-131v-518q0 -65 20 -87t81 -22h63z" />
    <glyph glyph-name="trademark" unicode="&#x2122;" horiz-adv-x="1984" 
d="M766 1522l78 -283l-37 -12q-33 94 -63.5 141.5t-65.5 64t-94 17.5v-528q0 -41 17.5 -57t74.5 -23v-35h-426v35q58 7 76 23.5t18 56.5v528q-42 0 -69.5 -7.5t-55 -31t-51 -67.5t-49.5 -117l-35 12l78 283h2q83 -19 221 -19h158q138 0 221 19h2zM1784 926q3 -42 20.5 -59.5
t69.5 -24.5v-35h-430v35q62 8 82 23.5t16 54.5l-31 409l-239 -532h-25l-231 528l-37 -379q-6 -55 13.5 -75.5t82.5 -28.5v-35h-248v35q55 7 72.5 25.5t20.5 58.5l45 452q5 46 -12.5 65.5t-69.5 26.5v33h315l164 -375l168 375h291v-33q-52 -7 -66.5 -26.5t-9.5 -65.5z" />
    <glyph glyph-name="oneeighth" unicode="&#x215b;" horiz-adv-x="1705" 
d="M1403 1561l78 -64l-1307 -1554l-76 63zM186 1296q-18 0 -63 -10l-17 35q214 106 375 205h2v-729q0 -53 25 -74t98 -27v-37h-483v37q71 6 96 27.5t25 73.5v426q0 40 -12 56.5t-46 16.5zM1411 487q48 -24 80 -44.5t64.5 -49.5t48.5 -65.5t16 -79.5q0 -118 -95 -189
t-253 -71q-150 0 -242 59t-92 154q0 57 51 105t137 73q-75 44 -117 100.5t-42 143.5q0 105 84 169t221 64q139 0 226 -54t87 -140q0 -55 -47 -102.5t-127 -72.5zM1272 799q-52 0 -83.5 -26t-31.5 -66q0 -60 47 -101.5t135 -83.5q68 88 68 160q0 54 -37 85.5t-98 31.5z
M1272 47q65 0 105 28t40 75q0 26 -11 48.5t-26 39t-43 34t-50 28.5t-58 28q-22 11 -37 16q-72 -72 -72 -166q0 -58 42 -94.5t110 -36.5z" />
    <glyph glyph-name="threeeighths" unicode="&#x215c;" horiz-adv-x="1781" 
d="M1479 1561l75 -64l-1304 -1554l-76 63zM713 944q0 -258 -594 -297l-8 39q169 20 266.5 68t97.5 123q0 59 -52 90t-165 49l-2 4l221 289h-172q-80 0 -118.5 -20t-57.5 -81l-39 9l74 309h2q106 -23 440 -23h119l2 -4l-262 -313q112 -32 180 -98.5t68 -143.5zM1485 487
q101 -50 156 -103.5t55 -135.5q0 -119 -95 -189.5t-255 -70.5q-150 0 -241 58.5t-91 154.5q0 57 50.5 105t135.5 73q-74 44 -116 101t-42 143q0 105 83.5 169t220.5 64q139 0 226 -54t87 -140q0 -56 -46.5 -103t-127.5 -72zM1346 799q-51 0 -83 -26t-32 -66q0 -59 47.5 -100
t136.5 -85q66 85 66 160q0 54 -36.5 85.5t-98.5 31.5zM1346 47q65 0 105 28t40 75q0 32 -14 58t-44 48t-57.5 37t-72.5 35q-5 2 -17 7.5t-18 8.5q-72 -72 -72 -166q0 -58 42 -94.5t108 -36.5z" />
    <glyph glyph-name="fiveeighths" unicode="&#x215d;" horiz-adv-x="1781" 
d="M1479 1561l75 -64l-1304 -1554l-76 63zM694 944q0 -258 -594 -297l-8 39q170 19 267.5 68t97.5 123q0 65 -85 100.5t-272 54.5v4l117 467h131q263 0 357 23h4l-54 -219h-411l-23 -76q245 -27 359 -94.5t114 -192.5zM1485 487q101 -50 156 -103.5t55 -135.5
q0 -119 -95 -189.5t-255 -70.5q-150 0 -241 58.5t-91 154.5q0 57 50.5 105t135.5 73q-74 44 -116 101t-42 143q0 105 83.5 169t220.5 64q139 0 226 -54t87 -140q0 -56 -46.5 -103t-127.5 -72zM1346 799q-51 0 -83 -26t-32 -66q0 -59 47.5 -100t136.5 -85q66 85 66 160
q0 54 -36.5 85.5t-98.5 31.5zM1346 47q65 0 105 28t40 75q0 32 -14 58t-44 48t-57.5 37t-72.5 35q-5 2 -17 7.5t-18 8.5q-72 -72 -72 -166q0 -58 42 -94.5t108 -36.5z" />
    <glyph glyph-name="seveneighths" unicode="&#x215e;" horiz-adv-x="1748" 
d="M1438 1561l75 -64l-1304 -1554l-76 63zM285 1307q-79 0 -116 -19.5t-58 -79.5l-39 9l73 309h2q104 -23 441 -23h211l2 -2q-262 -412 -318 -725q-12 -69 -46.5 -99t-94.5 -30q-53 0 -81 26.5t-28 71.5q0 84 123 249t267 313h-338zM1444 487q48 -24 80 -44.5t64.5 -49.5
t48.5 -65.5t16 -79.5q0 -119 -94.5 -189.5t-253.5 -70.5q-150 0 -242 59t-92 154q0 57 51 105t137 73q-75 44 -117.5 100.5t-42.5 143.5q0 105 84.5 169t221.5 64q139 0 226 -54t87 -140q0 -56 -46.5 -103t-127.5 -72zM1305 799q-52 0 -83.5 -26t-31.5 -66q0 -32 13.5 -58.5
t43 -49.5t55.5 -38.5t70 -38.5q68 88 68 160q0 54 -36.5 85.5t-98.5 31.5zM1305 47q65 0 105 28t40 75q0 32 -14 58t-44 48t-57.5 37t-72.5 35q-22 11 -37 16q-70 -73 -70 -166q0 -59 41.5 -95t108.5 -36z" />
    <glyph glyph-name="partialdiff" unicode="&#x2202;" horiz-adv-x="1384" 
d="M293 1651q487 -117 741 -388t254 -675q0 -273 -169 -440.5t-445 -167.5q-277 0 -447 147.5t-170 388.5q0 238 152 387.5t381 149.5q147 0 258 -82q-55 235 -192.5 380t-387.5 242zM674 74q97 0 157 122t60 320q0 192 -60 310t-157 118t-158 -118.5t-61 -309.5
q0 -199 60.5 -320.5t158.5 -121.5z" />
    <glyph glyph-name="emptyset" unicode="&#x2205;" horiz-adv-x="1478" 
d="M1384 1202l-170 -176q132 -174 132 -422q0 -287 -167.5 -464t-439.5 -177q-243 0 -403 141l-166 -172l-78 74l170 178q-131 170 -131 420q0 287 168 464t440 177q241 0 404 -141l168 176zM238 604q0 -202 96 -344l739 770q-133 121 -334 121q-226 0 -363.5 -150
t-137.5 -397zM1239 604q0 201 -96 346l-737 -772q130 -121 333 -121q226 0 363 150t137 397z" />
    <glyph glyph-name="product" unicode="&#x220f;" horiz-adv-x="1863" 
d="M1778 1444q-123 -9 -164 -44.5t-41 -131.5v-1442q0 -96 41 -131.5t164 -44.5v-60h-772v60q123 9 163.5 44.5t40.5 131.5v1583h-559v-1583q0 -96 41 -131.5t164 -44.5v-60h-772v60q124 9 164.5 44.5t40.5 131.5v1442q0 96 -40.5 131.5t-164.5 44.5v59h1694v-59z" />
    <glyph glyph-name="summation" unicode="&#x2211;" horiz-adv-x="1619" 
d="M1450 104l68 -12l-66 -512q-270 10 -815 10h-559l-2 7l674 884l-687 1018l3 4h481q547 0 762 10l141 -555l-64 -12q-60 190 -119 286.5t-141 136.5t-219 40h-368l497 -727v-4l-614 -793h604q154 0 237 19t125.5 65t61.5 135z" />
    <glyph glyph-name="minus" unicode="&#x2212;" horiz-adv-x="970" 
d="M96 557v94h778v-94h-778z" />
    <glyph glyph-name="radical" unicode="&#x221a;" horiz-adv-x="1587" 
d="M1530 1651l94 -41l-944 -2040h-47l-426 909q-43 92 -85.5 120.5t-141.5 31.5v59h526l289 -645z" />
    <glyph glyph-name="infinity" unicode="&#x221e;" horiz-adv-x="1761" 
d="M1276 1112q170 0 273.5 -116.5t103.5 -307.5q0 -198 -117 -326.5t-307 -128.5q-66 0 -123 17.5t-104 50.5t-83 70t-73 88q-55 -104 -151 -165t-210 -61q-169 0 -272.5 117t-103.5 307q0 204 117 329.5t309 125.5q86 0 159 -32.5t122 -78t99 -114.5q55 104 151 164.5
t210 60.5zM1337 485q100 0 161 61t61 159q0 138 -78.5 226.5t-204.5 88.5q-92 0 -172.5 -57.5t-132.5 -157.5l24 -37q31 -48 48 -73t46 -64.5t53 -60.5t55.5 -43.5t66 -32t73.5 -9.5zM485 326q93 0 173.5 57.5t132.5 157.5l-25 37q-26 40 -40.5 62.5t-40 57t-43.5 54t-45 43
t-51.5 36t-55.5 21t-64 8.5q-101 0 -162 -60t-61 -159q0 -133 78.5 -224t203.5 -91z" />
    <glyph glyph-name="integral" unicode="&#x222b;" horiz-adv-x="894" 
d="M819 1413h-454q-3 -27 -3 -57q0 -82 18 -166.5t56 -172.5t70 -150.5t84 -155.5q91 -164 137.5 -277.5t46.5 -218.5q0 -140 -76.5 -290.5t-202.5 -252.5t-255 -102q-82 0 -132.5 42t-50.5 109q0 33 17 86h456q2 18 2 58q0 82 -18 166.5t-55.5 172.5t-69.5 151t-84 155
q-61 110 -94.5 176.5t-62.5 156.5t-29 163q0 140 77 290.5t203.5 252.5t255.5 102q82 0 132.5 -42t50.5 -110q0 -39 -19 -86zM510 -276l-10 -23q2 3 5 11.5t5 11.5z" />
    <glyph glyph-name="approxequal" unicode="&#x2248;" horiz-adv-x="970" 
d="M676 649q-40 0 -87 10.5t-75 20t-80 29.5q-145 59 -229 59t-119 -113l-47 13q13 121 85 209t177 88q84 0 231 -60q139 -59 238 -59q87 0 119 112l49 -12q-14 -121 -86.5 -209t-175.5 -88zM676 256q-40 0 -86.5 10t-76 20t-79.5 29q-49 20 -77.5 30.5t-71.5 20t-80 9.5
q-84 0 -119 -113l-47 12q13 121 85 209t177 88q86 0 231 -59q139 -59 238 -59q87 0 119 112l49 -12q-14 -121 -86.5 -209t-175.5 -88z" />
    <glyph glyph-name="notequal" unicode="&#x2260;" horiz-adv-x="970" 
d="M874 705h-274l-111 -201h385v-94h-436l-121 -222h-112l121 222h-230v94h281l110 201h-391v94h443l120 221h113l-121 -221h223v-94z" />
    <glyph glyph-name="lessequal" unicode="&#x2264;" horiz-adv-x="970" 
d="M868 578v-103l-772 227v80l772 228v-103l-563 -164zM96 326h778v-95h-778v95z" />
    <glyph glyph-name="greaterequal" unicode="&#x2265;" horiz-adv-x="970" 
d="M102 1010l772 -228v-80l-772 -227v103l564 165l-564 164v103zM96 231v95h778v-95h-778z" />
    <glyph glyph-name="lozenge" unicode="&#x25ca;" horiz-adv-x="1087" 
d="M512 0l-432 696l432 697h61l435 -697l-435 -696h-61zM543 135l350 561l-350 561l-348 -561z" />
    <glyph glyph-name="uniF8FF" unicode="&#xf8ff;" horiz-adv-x="2541" 
d="M117 -20q-15 0 -25 10.5t-10 25.5q0 21 10 31l701 698h-664q-47 0 -47 39q0 19 14 33l697 701h-670q-41 0 -41 38v3q0 38 41 38h758q47 0 47 -41q0 -17 -17 -34l-698 -697h676q17 0 29 -12t12 -29v-669l694 692q16 16 35 16q37 0 37 -45v-663l696 692q16 16 33 16
q15 0 25 -12t10 -27t-13 -28l-753 -762q-14 -14 -35 -14q-41 0 -41 47v663l-694 -696q-14 -14 -35 -14q-41 0 -41 47v663l-696 -696q-14 -14 -35 -14z" />
    <glyph glyph-name="uni00A40301" horiz-adv-x="864" 
d="M657 1710q-97 -44 -450 -102l-21 41q278 237 369 280q26 13 59 13q53 0 87 -35t34 -84q0 -34 -20.5 -64t-57.5 -49zM49 1503h772v-59q-124 -9 -164.5 -44.5t-40.5 -131.5v-817q0 -246 -150 -432.5t-396 -243.5l-21 57q116 78 160.5 182t44.5 301v953q0 96 -41 131.5
t-164 44.5v59z" />
    <glyph glyph-name="i.loclTRK" horiz-adv-x="708" 
d="M365 1251q-88 0 -146.5 56t-58.5 141t58.5 141t146.5 56t146 -56t58 -141t-58 -141t-146 -56zM537 188q0 -71 30.5 -97t120.5 -32v-59h-647v59q91 6 121.5 32t30.5 97v570q0 77 -31 108.5t-121 46.5v56q278 72 491 143h5v-924z" />
    <glyph glyph-name="uni006A0301" horiz-adv-x="651" 
d="M162 1188l-31 33q183 310 256 383q41 41 92 41q48 0 84.5 -35t36.5 -84q0 -57 -45 -96q-87 -83 -393 -242zM43 -430l-20 57q85 68 118 154t33 244v733q0 77 -30.5 108.5t-120.5 46.5v56q332 90 491 143h4v-952q0 -232 -130.5 -394t-344.5 -196z" />
    <glyph glyph-name="f_b" horiz-adv-x="2142" 
d="M1618 1114q204 0 329.5 -145t125.5 -383q0 -272 -143.5 -439t-379.5 -167q-152 0 -270 79q-168 -21 -330 -79h-4v1286q0 82 -30.5 110.5t-120.5 28.5h-351q-35 -57 -38 -127q-1 -73 34.5 -124t94.5 -60h243l-24 -121h-219v-744q0 -93 38.5 -127t153.5 -43v-59h-688v59
q91 6 121 32t30 97v785h-151v55l160 80q17 88 68 182t121 172.5t160.5 129t178.5 50.5q78 0 127.5 -39t54.5 -102q250 94 377 148h4v-701q53 76 144 121t184 45zM1466 72q104 0 169 123.5t65 322.5q0 186 -66 300t-172 114q-45 0 -92 -20.5t-80 -53.5v-637q24 -73 70 -111
t106 -38z" />
    <glyph glyph-name="f_h" horiz-adv-x="2152" 
d="M1989 188q0 -71 30 -97t121 -32v-59h-631v59q81 6 108.5 32t27.5 97v539q0 100 -45.5 151.5t-131.5 51.5q-89 0 -178 -72v-670q0 -71 27 -97t108 -32v-59h-630v59q90 6 120.5 32t30.5 97v1078q0 82 -30.5 110.5t-120.5 28.5h-351q-35 -57 -38 -127q-1 -73 34.5 -124
t94.5 -60h243l-24 -121h-219v-744q0 -93 38.5 -127t153.5 -43v-59h-688v59q91 6 121 32t30 97v785h-151v55l160 80q17 88 68 182t121 172.5t160.5 129t178.5 50.5q78 0 127.5 -38t54.5 -101q221 80 377 146h4v-699q81 75 189.5 119.5t214.5 44.5q135 0 215 -86t80 -233v-607
z" />
    <glyph glyph-name="f_hbar" horiz-adv-x="2152" 
d="M1989 188q0 -71 30 -97t121 -32v-59h-631v59q81 6 108.5 32t27.5 97v539q0 100 -45.5 151.5t-131.5 51.5q-89 0 -178 -72v-670q0 -71 27 -97t108 -32v-59h-630v59q90 6 120.5 32t30.5 97v1078q0 82 -30.5 110.5t-120.5 28.5h-351q-35 -57 -38 -127q-1 -73 34.5 -124
t94.5 -60h243l-24 -121h-219v-744q0 -93 38.5 -127t153.5 -43v-59h-688v59q91 6 121 32t30 97v785h-151v55l160 80q17 88 68 182t121 172.5t160.5 129t178.5 50.5q78 0 127.5 -38t54.5 -101q221 80 377 146h4v-346h295l-14 -72h-281v-281q81 75 189.5 119.5t214.5 44.5
q135 0 215 -86t80 -233v-607z" />
    <glyph glyph-name="f_icircumflex" horiz-adv-x="1515" 
d="M662 1651q66 0 106.5 -42t40.5 -110q0 -41 -18 -86h-373q-36 -65 -39 -133q-1 -75 42.5 -126t113.5 -60h227l-25 -121h-202v-744q0 -93 38.5 -127t153.5 -43v-59h-688v59q91 6 121 32t30 97v785h-151v55l158 80q21 119 89.5 243t171.5 212t204 88zM1171 1401l-317 -213
l-33 31l328 426h45l326 -426l-33 -31zM1343 188q0 -71 30 -97t122 -32v-59h-647v59q90 6 120.5 32t30.5 97v570q0 77 -30.5 108.5t-120.5 46.5v56q278 72 491 143h4v-924z" />
    <glyph glyph-name="f_idieresis" horiz-adv-x="1556" 
d="M662 1651q66 0 106.5 -42t40.5 -110q0 -41 -18 -86h-373q-36 -65 -39 -133q-1 -75 42.5 -126t113.5 -60h227l-25 -121h-202v-744q0 -93 38.5 -127t153.5 -43v-59h-688v59q91 6 121 32t30 97v785h-151v55l158 80q21 119 89.5 243t171.5 212t204 88zM1044 1303
q-62 0 -102.5 41t-40.5 104q0 64 40.5 104.5t102.5 40.5t102 -40.5t40 -104.5q0 -63 -40 -104t-102 -41zM1380 1303q-62 0 -102.5 41t-40.5 104q0 64 40.5 104.5t102.5 40.5t102 -40.5t40 -104.5q0 -63 -40 -104t-102 -41zM1384 188q0 -71 30 -97t122 -32v-59h-647v59
q90 6 120.5 32t30.5 97v570q0 77 -30.5 108.5t-120.5 46.5v56q278 72 491 143h4v-924z" />
    <glyph glyph-name="f_igrave" horiz-adv-x="1527" 
d="M662 1651q66 0 106.5 -42t40.5 -110q0 -41 -18 -86h-373q-36 -65 -39 -133q-1 -75 42.5 -126t113.5 -60h227l-25 -121h-202v-744q0 -93 38.5 -127t153.5 -43v-59h-688v59q91 6 121 32t30 97v785h-151v55l158 80q21 119 89.5 243t171.5 212t204 88zM956 1430
q-45 39 -45 96q0 49 36.5 84t84.5 35q51 0 92 -41q81 -81 256 -383l-30 -33q-308 160 -394 242zM1356 188q0 -71 30 -97t121 -32v-59h-647v59q91 6 121.5 32t30.5 97v570q0 77 -31 108.5t-121 46.5v56q283 73 492 143h4v-924z" />
    <glyph glyph-name="f_imacron" horiz-adv-x="1515" 
d="M406 1262q-1 -67 34.5 -113t94.5 -55h227l-25 -121h-202v-744q0 -93 38.5 -127t153.5 -43v-59h-688v59q91 6 121 32t30 97v785h-151v55l160 82q18 83 69.5 172.5t122.5 164.5t163 123t181 48q77 0 127 -39.5t53 -103.5h570l-19 -95h-1015q-40 -57 -45 -118zM1343 188
q0 -71 30 -97t122 -32v-59h-647v59q90 6 120.5 32t30.5 97v570q0 77 -30.5 108.5t-120.5 46.5v56q278 72 491 143h4v-924z" />
    <glyph glyph-name="f_iogonek" horiz-adv-x="1515" 
d="M662 1651q66 0 106.5 -42t40.5 -110q0 -41 -18 -86h-373q-36 -65 -39 -133q-1 -75 42.5 -126t113.5 -60h227l-25 -121h-202v-744q0 -93 38.5 -127t153.5 -43v-59h-688v59q91 6 121 32t30 97v785h-151v55l158 80q21 119 89.5 243t171.5 212t204 88zM1171 1251
q-89 0 -146.5 56t-57.5 141t57.5 141t146.5 56q88 0 146.5 -56t58.5 -141t-58.5 -141t-146.5 -56zM1423 0q-92 -47 -149 -113.5t-57 -126.5q0 -32 23 -52.5t60 -20.5q64 0 123 49l21 -51q-46 -40 -125 -72.5t-170 -32.5q-86 0 -140.5 39t-54.5 102q0 81 89 152t249 127h-444
v59q90 6 120.5 32t30.5 97v570q0 77 -30.5 108.5t-120.5 46.5v56q278 72 491 143h4v-924q0 -71 30 -97t122 -32v-59h-72z" />
    <glyph glyph-name="f_j" horiz-adv-x="1476" 
d="M662 1651q66 0 106.5 -42t40.5 -110q0 -41 -18 -86h-373q-36 -65 -39 -133q-1 -75 42.5 -126t113.5 -60h227l-25 -121h-202v-744q0 -93 38.5 -127t153.5 -43v-59h-688v59q91 6 121 32t30 97v785h-151v55l158 80q21 119 89.5 243t171.5 212t204 88zM1171 1251
q-89 0 -146.5 56t-57.5 141t57.5 141t146.5 56q88 0 146.5 -56t58.5 -141t-58.5 -141t-146.5 -56zM848 969q332 90 491 143h4v-952q0 -232 -130.5 -394t-344.5 -196l-20 57q85 68 118 154t33 244v733q0 77 -30.5 108.5t-120.5 46.5v56z" />
    <glyph glyph-name="f_k" horiz-adv-x="2150" 
d="M1290 188q0 -71 27 -97t108 -32v-59h-630v59q90 6 120.5 32t30.5 97v1078q0 82 -30.5 110.5t-120.5 28.5h-351q-35 -57 -38 -127q-1 -73 34.5 -124t94.5 -60h243l-24 -121h-219v-744q0 -93 38.5 -127t153.5 -43v-59h-688v59q91 6 121 32t30 97v785h-151v55l160 80
q17 88 68 182t121 172.5t160.5 129t178.5 50.5q78 0 127.5 -38t54.5 -101q221 80 377 146h4v-1461zM1618 731l536 -672v-59h-378l-453 569l264 250q36 33 55.5 53t36.5 45.5t17 43.5q0 65 -193 73v60h584v-60q-85 -2 -148 -29t-151 -112z" />
    <glyph glyph-name="uni00660137" horiz-adv-x="2150" 
d="M1425 59v-59h-630v59q90 6 120.5 32t30.5 97v1078q0 82 -30.5 110.5t-120.5 28.5h-351q-35 -57 -38 -127q-1 -73 34.5 -124t94.5 -60h243l-24 -121h-219v-744q0 -93 38.5 -127t153.5 -43v-59h-688v59q91 6 121 32t30 97v785h-151v55l160 80q17 88 68 182t121 172.5
t160.5 129t178.5 50.5q78 0 127.5 -38t54.5 -101q221 80 377 146h4v-1461q0 -71 27 -97t108 -32zM1618 731l536 -672v-59h-378l-453 569l264 250q36 33 55.5 53t36.5 45.5t17 43.5q0 65 -193 73v60h584v-60q-85 -2 -148 -29t-151 -112zM1538 -47q73 0 118.5 -45t45.5 -117
q0 -79 -72.5 -140t-191.5 -81l-15 51q51 12 81 35t30 51q0 31 -33.5 48.5t-91.5 17.5q-16 32 -16 59q0 53 41 87t104 34z" />
    <glyph glyph-name="f_lacute" horiz-adv-x="1462" 
d="M1341 1829q-99 -46 -452 -103l-19 41q273 236 369 281q24 12 59 12q53 0 87 -34.5t34 -83.5q0 -34 -20.5 -64t-57.5 -49zM1290 188q0 -71 30 -97t122 -32v-59h-647v59q90 6 120.5 32t30.5 97v1078q0 82 -30.5 110.5t-120.5 28.5h-351q-35 -57 -38 -127q-1 -73 34.5 -124
t94.5 -60h243l-24 -121h-219v-744q0 -93 38.5 -127t153.5 -43v-59h-688v59q91 6 121 32t30 97v785h-151v55l160 80q17 88 68 182t121 172.5t160.5 129t178.5 50.5q78 0 127.5 -38t54.5 -101q221 80 377 146h4v-1461z" />
    <glyph glyph-name="f_lcaron" horiz-adv-x="1490" 
d="M1495 1651q72 0 116 -50.5t44 -132.5q0 -91 -65.5 -174t-172.5 -129l-24 58q50 25 80 60.5t30 70.5q0 37 -33 62t-86 28q-32 37 -32 84q0 53 41 88t102 35zM1290 188q0 -71 30 -97t122 -32v-59h-647v59q90 6 120.5 32t30.5 97v1078q0 82 -30.5 110.5t-120.5 28.5h-351
q-35 -57 -38 -127q-1 -73 34.5 -124t94.5 -60h243l-24 -121h-219v-744q0 -93 38.5 -127t153.5 -43v-59h-688v59q91 6 121 32t30 97v785h-151v55l160 80q17 88 68 182t121 172.5t160.5 129t178.5 50.5q78 0 127.5 -38t54.5 -101q221 80 377 146h4v-1461z" />
    <glyph glyph-name="uni0066013C" horiz-adv-x="1462" 
d="M1290 188q0 -71 30 -97t122 -32v-59h-647v59q90 6 120.5 32t30.5 97v1078q0 82 -30.5 110.5t-120.5 28.5h-351q-35 -57 -38 -127q-1 -73 34.5 -124t94.5 -60h243l-24 -121h-219v-744q0 -93 38.5 -127t153.5 -43v-59h-688v59q91 6 121 32t30 97v785h-151v55l160 80
q17 88 68 182t121 172.5t160.5 129t178.5 50.5q78 0 127.5 -38t54.5 -101q221 80 377 146h4v-1461zM1108 -47q73 0 118.5 -45t45.5 -117q0 -79 -72.5 -140t-191.5 -81l-15 51q52 12 81.5 35t29.5 51q0 31 -32.5 48.5t-92.5 17.5q-16 32 -16 59q0 53 41 87t104 34z" />
    <glyph glyph-name="f_lslash" horiz-adv-x="1464" 
d="M1282 188q0 -71 30 -97t122 -32v-59h-648v59q91 6 121.5 32t30.5 97v510l-113 -65l-51 86l164 94v453q0 82 -31 110.5t-121 28.5h-350q-35 -58 -41 -127q0 -73 36 -124t95 -60h244l-25 -121h-219v-744q0 -92 39 -126.5t154 -43.5v-59h-688v59q91 6 121 32t30 97v785h-151
v55l159 80q17 88 68 182t121.5 172.5t161 129t178.5 50.5q78 0 126.5 -38t53.5 -101q164 57 379 146h4v-670l113 63l49 -86l-162 -92v-676z" />
    <glyph glyph-name="f_thorn" horiz-adv-x="2142" 
d="M1618 1114q204 0 329.5 -145t125.5 -383q0 -272 -143.5 -439t-379.5 -167q-145 0 -260 73v-233q0 -93 38.5 -127t154.5 -43v-60h-688v60q90 6 120.5 32t30.5 97v1487q0 82 -30.5 110.5t-120.5 28.5h-351q-35 -57 -38 -127q-1 -73 34.5 -124t94.5 -60h243l-24 -121h-219
v-744q0 -93 38.5 -127t153.5 -43v-59h-688v59q91 6 121 32t30 97v785h-151v55l160 80q17 88 68 182t121 172.5t160.5 129t178.5 50.5q78 0 127.5 -38t54.5 -101q221 80 377 146h4v-701q53 76 144 121t184 45zM1466 72q104 0 169 123.5t65 322.5q0 186 -66 300t-172 114
q-45 0 -92 -20.5t-80 -53.5v-637q24 -73 70 -111t106 -38z" />
    <glyph glyph-name="zero.osf" horiz-adv-x="1368" 
d="M684 -20q-272 0 -438 156t-166 411t166 411t438 156t438 -156t166 -411t-166 -411t-438 -156zM684 55q104 0 167.5 135.5t63.5 356.5t-63.5 356t-167.5 135q-103 0 -167 -135t-64 -356t64 -356.5t167 -135.5z" />
    <glyph glyph-name="one.osf" horiz-adv-x="823" 
d="M584 221q0 -96 37 -126t167 -36v-59h-753v59q69 3 107 10.5t61 26.5t30 47t7 78v449q0 77 -19 110t-69 33q-40 0 -117 -22l-21 57q186 83 306.5 143.5t259.5 143.5h4v-914z" />
    <glyph glyph-name="two.osf" horiz-adv-x="1306" 
d="M1163 442l60 -10l-60 -442q-232 10 -702 10h-467l-2 6q118 103 268 203q68 47 109.5 77.5t98 75t90 80t66 77.5t47.5 84t15 85q0 78 -56 126t-147 48q-103 0 -194.5 -61t-145.5 -148l-43 23q74 187 238.5 312.5t343.5 125.5q168 0 272.5 -90.5t104.5 -230.5
q0 -48 -17 -94.5t-43 -84.5t-71.5 -78.5t-87 -71t-107 -68.5t-113 -63t-122.5 -63q-3 -1 -8.5 -4t-8.5 -4h307q200 0 274.5 35.5t100.5 144.5z" />
    <glyph glyph-name="three.osf" horiz-adv-x="1212" 
d="M662 506q201 -24 328.5 -129t127.5 -260q0 -219 -264.5 -368t-732.5 -179l-8 55q291 31 465 145.5t174 284.5q0 123 -92.5 199t-241.5 76q-71 0 -133 -19l-15 68q170 79 267.5 179.5t97.5 209.5q0 79 -56 128.5t-147 49.5q-85 0 -176 -49t-154 -125l-39 29
q92 142 244.5 229.5t315.5 87.5q164 0 263 -74.5t99 -197.5q0 -96 -87 -186t-236 -154z" />
    <glyph glyph-name="four.osf" horiz-adv-x="1411" 
d="M1395 90l-19 -90h-315v-391l-340 -37h-4v428h-694l-3 6l840 1088h201v-1014q189 0 330 10h4zM184 80h533v696z" />
    <glyph glyph-name="five.osf" horiz-adv-x="1347" 
d="M332 598q434 -42 639 -158.5t205 -335.5q0 -157 -121 -271t-346.5 -179t-548.5 -84l-8 55q209 22 361.5 70.5t240.5 127.5t88 181q0 136 -164.5 209t-515.5 109l-2 6l196 766h205q284 0 414.5 8t224.5 33h4l-78 -312h-731z" />
    <glyph glyph-name="six.osf" horiz-adv-x="1339" 
d="M772 887q214 0 355 -123t141 -320q0 -209 -162 -336.5t-428 -127.5q-265 0 -427.5 166t-162.5 436q0 221 137.5 430.5t391 376.5t585.5 262l19 -45q-274 -122 -465.5 -330.5t-259.5 -454.5q122 66 276 66zM678 55q97 0 157 112.5t60 293.5q0 149 -57.5 242.5t-149.5 93.5
q-58 0 -117 -21.5t-100 -58.5q-10 -75 -10 -135q0 -236 60 -381.5t157 -145.5z" />
    <glyph glyph-name="seven.osf" horiz-adv-x="1388" 
d="M1331 1094l2 -4q-250 -382 -397 -707t-201 -633q-15 -91 -63.5 -135.5t-136.5 -44.5q-76 0 -114 37.5t-38 105.5q0 87 68 232.5t174.5 304t220.5 305.5t221 268h-565q-153 0 -218.5 -39.5t-111.5 -160.5l-57 14l125 496h4q90 -22 241.5 -30.5t466.5 -8.5h379z" />
    <glyph glyph-name="eight.osf" horiz-adv-x="1339" 
d="M868 854q66 -33 115 -61t101.5 -68.5t85 -82.5t54 -98t21.5 -120q0 -201 -159.5 -322.5t-426.5 -121.5q-255 0 -410 104t-155 276q0 107 93.5 198.5t250.5 141.5q-63 37 -111 75.5t-89 89.5t-62.5 117t-21.5 144q0 180 138.5 289t366.5 109q234 0 376.5 -95t142.5 -251
q0 -102 -85 -190t-225 -134zM659 1448q-104 0 -168.5 -55t-64.5 -144q0 -48 19 -91.5t47.5 -76t77 -66.5t91 -57.5t105.5 -54.5q158 155 158 307q0 107 -72.5 172.5t-192.5 65.5zM659 55q133 0 214 63.5t81 166.5q0 34 -10.5 65t-25.5 55t-43.5 49.5t-52 43t-65.5 40.5
t-69 36t-76 36l-80 39q-85 -68 -130.5 -151.5t-45.5 -169.5q0 -122 83.5 -197.5t219.5 -75.5z" />
    <glyph glyph-name="nine.osf" horiz-adv-x="1339" 
d="M655 1114q268 0 432 -166t164 -436q0 -295 -238.5 -554t-629.5 -388l-18 45q182 106 310.5 287t178.5 395q-126 -70 -287 -70q-214 0 -354.5 120t-140.5 312q0 204 160.5 329.5t422.5 125.5zM651 317q59 0 119 23t100 61q9 59 9 119q0 231 -62 374.5t-162 143.5
q-94 0 -152.5 -109t-58.5 -286q0 -145 57.5 -235.5t149.5 -90.5z" />
    <glyph glyph-name="zero.dnom" horiz-adv-x="890" 
d="M446 -12q-166 0 -268 119.5t-102 314.5t101.5 314.5t268.5 119.5q166 0 268.5 -119.5t102.5 -314.5t-102.5 -314.5t-268.5 -119.5zM446 47q47 0 77 103.5t30 271.5t-30 272.5t-77 104.5q-49 0 -77.5 -103t-28.5 -274q0 -170 28.5 -272.5t77.5 -102.5z" />
    <glyph glyph-name="one.dnom" horiz-adv-x="598" 
d="M428 137q0 -53 24.5 -73.5t96.5 -26.5v-37h-483v37q72 6 96 27t24 73v426q0 40 -11.5 57t-45.5 17q-15 0 -63 -10l-15 35q226 114 373 204h4v-729z" />
    <glyph glyph-name="two.dnom" horiz-adv-x="839" 
d="M735 301l41 -8l-37 -299q-147 6 -479 6h-229l-2 4q80 86 159 154q62 54 98 89t77 84t60 96.5t19 96.5q0 66 -37.5 105t-97.5 39t-110.5 -31t-83.5 -86l-35 18q56 130 159 208.5t212 78.5q111 0 179 -59t68 -152q0 -53 -23 -106t-55 -94.5t-87.5 -90t-98 -79.5t-108.5 -76
h165q132 0 182.5 20.5t63.5 81.5z" />
    <glyph glyph-name="three.dnom" horiz-adv-x="753" 
d="M432 526q112 -32 180 -98t68 -143q0 -258 -594 -297l-8 39q169 20 266.5 67.5t97.5 122.5q0 59 -52 90t-165 49l-2 4l221 289h-172q-81 0 -119 -20t-57 -80l-39 8l74 309h2q102 -22 440 -22h119l2 -4z" />
    <glyph glyph-name="four.dnom" horiz-adv-x="856" 
d="M805 213h-170v-76q0 -53 22.5 -73.5t87.5 -26.5v-37h-483v37q79 7 106 32.5t27 90.5v53h-368l-2 2l444 629h166v-568q79 0 182 7h2zM139 276h256v363z" />
    <glyph glyph-name="five.dnom" horiz-adv-x="739" 
d="M190 571q246 -27 360 -94t114 -192q0 -258 -594 -297l-9 39q170 19 267.5 67.5t97.5 122.5q0 66 -85 101.5t-271 54.5v4l116 467h129q269 0 359 22h4l-53 -219h-412z" />
    <glyph glyph-name="six.dnom" horiz-adv-x="823" 
d="M477 502q127 0 211 -70t84 -182q0 -117 -97 -189.5t-255 -72.5t-255 93.5t-97 244.5q0 165 157 311.5t414 218.5l14 -33q-106 -53 -183.5 -143.5t-113.5 -198.5q58 21 121 21zM420 47q40 0 64 59.5t24 153.5q0 77 -24 125.5t-64 48.5q-44 0 -80 -22q-8 -39 -8 -86
q0 -126 24.5 -202.5t63.5 -76.5z" />
    <glyph glyph-name="seven.dnom" horiz-adv-x="788" 
d="M555 844h211v-2q-259 -412 -315 -725q-12 -69 -47 -99t-95 -30q-54 0 -81 26t-27 72q0 84 122.5 248.5t266.5 312.5h-338q-79 0 -116 -19t-58 -79l-39 8l74 309h2q99 -22 440 -22z" />
    <glyph glyph-name="eight.dnom" horiz-adv-x="827" 
d="M545 487q48 -24 80 -44.5t64.5 -49.5t48.5 -65.5t16 -79.5q0 -119 -94.5 -189.5t-253.5 -70.5q-150 0 -242 59t-92 154q0 57 51 105t137 73q-75 44 -117.5 100.5t-42.5 143.5q0 105 84.5 169t221.5 64q139 0 226 -54t87 -140q0 -55 -47 -102.5t-127 -72.5zM406 799
q-52 0 -83.5 -26t-31.5 -66q0 -60 47 -101.5t135 -83.5q68 88 68 160q0 54 -36.5 85.5t-98.5 31.5zM406 47q65 0 105 28t40 75q0 25 -11 48t-26.5 39.5t-43.5 34t-50 28.5t-58 28q-24 12 -36 16q-72 -75 -72 -166q0 -58 42 -94.5t110 -36.5z" />
    <glyph glyph-name="nine.dnom" horiz-adv-x="821" 
d="M395 856q160 0 257.5 -93t97.5 -245q0 -167 -141 -311.5t-373 -218.5l-13 32q89 55 153.5 149.5t92.5 207.5q-54 -23 -129 -23q-125 0 -209 68.5t-84 179.5q0 114 95.5 184t252.5 70zM397 422q43 0 86 24q4 54 4 78q0 123 -25.5 199t-66.5 76q-38 0 -62 -58.5t-24 -150.5
q0 -73 24.5 -120.5t63.5 -47.5z" />
    <glyph glyph-name="zero.numr" horiz-adv-x="890" 
d="M446 647q-166 0 -268 119.5t-102 314.5t101.5 315t268.5 120q166 0 268.5 -120t102.5 -315t-102.5 -314.5t-268.5 -119.5zM446 707q47 0 77 103t30 271t-30 272.5t-77 104.5q-49 0 -77.5 -103t-28.5 -274q0 -170 28.5 -272t77.5 -102z" />
    <glyph glyph-name="one.numr" horiz-adv-x="598" 
d="M428 797q0 -53 25 -74t96 -27v-37h-483v37q72 6 97 27.5t25 73.5v426q0 40 -12.5 56.5t-46.5 16.5q-15 0 -63 -10l-15 35q203 101 373 205h4v-729z" />
    <glyph glyph-name="two.numr" horiz-adv-x="839" 
d="M735 961l41 -9l-37 -299q-147 6 -479 6h-229l-2 5q75 82 159 153q61 54 97.5 89.5t77.5 84.5t60 96.5t19 96.5q0 65 -37 104t-98 39q-60 0 -110.5 -31t-83.5 -86l-35 19q56 130 159 208.5t212 78.5q111 0 179 -59t68 -152q0 -53 -23 -106t-55.5 -95t-87 -90t-98 -80
t-108.5 -76h165q131 0 182 21t64 82z" />
    <glyph glyph-name="three.numr" horiz-adv-x="753" 
d="M434 1186q112 -32 179 -98.5t67 -143.5q0 -258 -594 -297l-6 39q168 20 265 68t97 123q0 59 -51.5 90t-165.5 49l-2 4l221 289h-172q-80 0 -117 -20t-57 -81l-41 9l74 309h2q106 -23 440 -23h119l2 -4z" />
    <glyph glyph-name="four.numr" horiz-adv-x="856" 
d="M805 872h-170v-75q0 -53 22.5 -74t87.5 -27v-37h-483v37q79 7 106 32.5t27 90.5v53h-368l-2 2l444 629h166v-567q93 0 182 6h2zM139 936h256v362z" />
    <glyph glyph-name="five.numr" horiz-adv-x="739" 
d="M190 1231q245 -27 358.5 -94.5t113.5 -192.5q0 -258 -594 -297l-7 39q169 19 266 68t97 123q0 66 -84 101t-270 54v4l114 467h131q265 0 357 23h4l-53 -219h-412z" />
    <glyph glyph-name="six.numr" horiz-adv-x="823" 
d="M477 1161q127 0 211 -70t84 -182q0 -117 -97 -189.5t-255 -72.5t-255 93.5t-97 244.5q0 165 157 312t414 219l14 -33q-106 -53 -183.5 -143.5t-113.5 -198.5q55 20 121 20zM420 707q40 0 64 59.5t24 153.5q0 77 -24 125.5t-64 48.5q-42 0 -80 -23q-8 -39 -8 -86
q0 -126 24.5 -202t63.5 -76z" />
    <glyph glyph-name="seven.numr" horiz-adv-x="788" 
d="M557 1503h211v-2q-259 -412 -315 -725q-12 -69 -47 -99t-95 -30q-54 0 -81 26t-27 72q0 84 122.5 249t266.5 313h-338q-79 0 -116 -19.5t-58 -79.5l-39 9l74 309h2q103 -23 440 -23z" />
    <glyph glyph-name="eight.numr" horiz-adv-x="827" 
d="M545 1147q47 -24 79.5 -44.5t64.5 -50t48.5 -66t16.5 -79.5q0 -119 -94.5 -189.5t-253.5 -70.5q-150 0 -242 59t-92 154q0 57 51 105t137 73q-75 44 -117.5 100.5t-42.5 143.5q0 105 84.5 169.5t221.5 64.5q139 0 226 -54.5t87 -140.5q0 -55 -47 -102t-127 -72zM406 1458
q-52 0 -83.5 -26t-31.5 -66q0 -60 46.5 -100.5t135.5 -83.5q68 88 68 159q0 54 -36.5 85.5t-98.5 31.5zM406 707q65 0 105 27.5t40 74.5q0 25 -11 48t-26.5 39.5t-43.5 34t-50 28.5t-58 28q-30 15 -36 17q-72 -75 -72 -166q0 -58 42 -94.5t110 -36.5z" />
    <glyph glyph-name="nine.numr" horiz-adv-x="821" 
d="M395 1516q160 0 257.5 -93t97.5 -245q0 -167 -141 -312t-373 -219l-13 33q89 55 153.5 149t92.5 207q-52 -22 -129 -22q-125 0 -209 68.5t-84 179.5q0 114 95.5 184t252.5 70zM397 1081q41 0 86 25q4 54 4 78q0 123 -25.5 198.5t-66.5 75.5q-38 0 -62 -58.5t-24 -150.5
q0 -73 24.5 -120.5t63.5 -47.5z" />
    <glyph glyph-name="exclamdown.case" horiz-adv-x="716" 
d="M358 1110q-94 0 -154.5 59t-60.5 148t60.5 148t154.5 59q92 0 153.5 -59t61.5 -148t-61.5 -148t-153.5 -59zM358 -20q-91 0 -141.5 53.5t-50.5 144.5q0 59 14.5 141t28.5 137t43 160q68 257 76 375h59q9 -127 78 -375q29 -105 43 -160t28.5 -137t14.5 -141
q0 -91 -51 -144.5t-142 -53.5z" />
    <glyph glyph-name="questiondown.case" horiz-adv-x="935" 
d="M545 1110q-94 0 -154.5 59t-60.5 148t60.5 148t154.5 59q92 0 153.5 -59t61.5 -148t-61.5 -148t-153.5 -59zM788 217q17 -43 17 -86q0 -67 -50 -109t-130 -42q-131 0 -258 82t-205 207t-78 247q0 133 119 219t325 101q7 63 11 155h59q51 -226 117 -438l-4 -4
q-224 -1 -354 -51.5t-130 -135.5q0 -75 90 -145h471z" />
    <glyph glyph-name="parenleft.case" horiz-adv-x="751" 
d="M723 -266q-292 185 -456.5 442.5t-164.5 577.5t164.5 577.5t456.5 442.5l37 -39q-171 -163 -267 -411.5t-96 -569.5t96 -569.5t267 -411.5z" />
    <glyph glyph-name="parenright.case" horiz-adv-x="751" 
d="M29 -266l-37 39q170 163 266 412t96 569t-96 569t-266 412l37 39q292 -185 456 -442.5t164 -577.5t-164 -577.5t-456 -442.5z" />
    <glyph glyph-name="braceleft.case" horiz-adv-x="768" 
d="M492 78q0 -82 57 -145.5t209 -149.5l-25 -49q-209 74 -327.5 139.5t-163.5 125t-45 134.5q0 66 55 195q61 142 61 215q0 86 -43 133t-155 47h-13v61h13q111 0 154.5 48t43.5 133q0 73 -61 215q-55 129 -55 194q0 75 45 135t163.5 125.5t327.5 139.5l25 -50
q-152 -86 -209 -149t-57 -145q0 -61 53 -185q63 -145 63 -225q0 -108 -71.5 -177t-247.5 -89q176 -20 247.5 -89.5t71.5 -177.5q0 -80 -63 -225q-53 -124 -53 -184z" />
    <glyph glyph-name="braceright.case" horiz-adv-x="768" 
d="M653 784h13v-61h-13q-113 0 -155.5 -47t-42.5 -133q0 -73 61 -215q55 -129 55 -195q0 -75 -45 -134.5t-164 -125t-329 -139.5l-25 49q152 86 210 149.5t58 145.5q0 60 -53 184q-63 145 -63 225q0 108 71.5 177.5t247.5 89.5q-176 20 -247.5 89t-71.5 177q0 80 63 225
q53 124 53 185q0 81 -57.5 144t-210.5 150l25 50q210 -74 329 -139.5t164 -125.5t45 -135q0 -65 -55 -194q-61 -142 -61 -215q0 -85 43 -133t155 -48z" />
    <glyph glyph-name="bracketleft.case" horiz-adv-x="909" 
d="M848 1694q-160 -13 -213 -61t-53 -177v-1405q0 -129 53 -176t213 -61v-60h-578v1999h578v-59z" />
    <glyph glyph-name="bracketright.case" horiz-adv-x="909" 
d="M639 1753v-1999h-578v60q160 14 213.5 61t53.5 176v1405q0 129 -53.5 176.5t-213.5 61.5v59h578z" />
    <glyph glyph-name="hyphen.case" horiz-adv-x="872" 
d="M72 707l24 120h705l-25 -120h-704z" />
    <glyph glyph-name="uni00AD.case" horiz-adv-x="872" 
d="M72 707l24 120h705l-25 -120h-704z" />
    <glyph glyph-name="endash.case" horiz-adv-x="1257" 
d="M72 707l24 120h1090l-25 -120h-1089z" />
    <glyph glyph-name="emdash.case" horiz-adv-x="1679" 
d="M72 707l24 120h1512l-25 -120h-1511z" />
    <glyph glyph-name="guillemotleft.case" horiz-adv-x="868" 
d="M473 1198l-184 -432l184 -434l-43 -25l-354 434v47l354 435zM793 1198l-185 -432l185 -434l-43 -25l-355 434v47l355 435z" />
    <glyph glyph-name="guillemotright.case" horiz-adv-x="868" 
d="M473 788v-47l-354 -434l-43 25l184 434l-184 432l43 25zM438 1223l355 -435v-47l-355 -434l-43 25l185 434l-185 432z" />
    <glyph glyph-name="guilsinglleft.case" horiz-adv-x="548" 
d="M473 1198l-184 -432l184 -434l-43 -25l-354 434v47l354 435z" />
    <glyph glyph-name="guilsinglright.case" horiz-adv-x="548" 
d="M119 1223l354 -435v-47l-354 -434l-43 25l184 434l-184 432z" />
    <glyph glyph-name="uni20BF.osf" horiz-adv-x="1421" 
d="M1331 336q0 -97 -64 -174t-168 -118.5t-227 -43.5v-205h-98v205h-180v-205h-98v205h-430v59q90 6 120.5 32t30.5 97v820q0 71 -30.5 97t-120.5 32v59h430v176h98v-176h158h22v176h98v-184q165 -20 261 -97t96 -190q0 -96 -66 -166t-184 -104q164 -28 258 -105.5
t94 -189.5zM862 885q0 102 -59.5 161.5t-169.5 59.5h-72v-444h72q110 0 169.5 60t59.5 163zM725 90q97 0 168.5 69.5t71.5 176.5q0 109 -72 174t-201 65h-131v-374q0 -66 20 -88.5t81 -22.5h63z" />
    <glyph glyph-name="cent.osf" horiz-adv-x="1222" 
d="M1143 303q-42 -104 -129 -181.5t-199 -113.5v-233h-98v211q-37 -6 -76 -6q-252 0 -406.5 155t-154.5 410q0 257 165.5 413t436.5 156h35v203h98v-215q145 -31 229 -124t84 -226q0 -78 -50 -126t-132 -48q-88 0 -131 34v-424q82 2 163 39.5t124 100.5zM424 627
q0 -168 79.5 -282.5t213.5 -145.5v839h-2q-131 0 -211 -112.5t-80 -298.5z" />
    <glyph glyph-name="dollar.osf" horiz-adv-x="1204" 
d="M1120 340q0 -159 -130 -256.5t-351 -103.5v-185h-98v191q-59 8 -147.5 37.5t-121.5 29.5q-26 0 -40 -12.5t-29 -50.5h-33l-86 409l55 13q67 -140 175.5 -234.5t226.5 -116.5v406q-54 24 -87.5 39.5t-83 41.5t-80.5 48t-67 54t-56.5 64t-34 73.5t-13.5 86.5
q0 155 118.5 249t313.5 94h4v172h98v-181q53 -9 141 -33t117 -24q21 0 33.5 12t22.5 43h32l78 -399l-55 -10q-42 128 -143 217t-226 116v-378l29 -13q46 -20 71 -31.5t68 -32t68 -35.5t61 -37.5t57 -42t45.5 -46t37 -52.5t21.5 -57.5t9 -64.5zM358 997q0 -59 51 -105.5
t146 -92.5v342q-89 -1 -143 -41.5t-54 -102.5zM639 55q106 6 160.5 48t54.5 116q0 62 -55 108.5t-160 96.5v-369z" />
    <glyph glyph-name="Euro.osf" horiz-adv-x="1437" 
d="M1192 403h59v-413h-32q-22 34 -36.5 45.5t-37.5 11.5q-27 0 -74.5 -16.5t-110.5 -33.5t-129 -17q-241 0 -404.5 125.5t-209.5 340.5h-178l16 86h150q-2 20 -2 66q0 30 4 84h-168l16 88h168q50 206 212 326.5t396 120.5q66 0 126 -16t103 -32t68 -16q19 0 34 10.5t38 40.5
h33v-391h-59q-5 139 -80 222t-197 83q-115 0 -196.5 -93t-110.5 -255h393l-16 -88h-387q-5 -68 -5 -84q0 -36 3 -66h362l-16 -86h-338q28 -172 110 -270t201 -98q131 0 211.5 88.5t83.5 236.5z" />
    <glyph glyph-name="sterling.osf" horiz-adv-x="1345" 
d="M1225 442l59 -10l-59 -442q-267 10 -815 10h-375l-2 6q141 143 195.5 251.5t54.5 211.5q0 32 -7 72h-223l17 88h190q-24 118 -24 198q0 177 149.5 283.5t394.5 106.5q215 0 347.5 -86t132.5 -224q0 -75 -50.5 -122.5t-132.5 -47.5q-104 0 -145 47v334q-64 23 -135 23
q-141 0 -197.5 -44.5t-56.5 -123.5q0 -55 41 -160q43 -124 53 -184h428l-16 -88h-410q-10 -94 -83 -160.5t-208 -118.5h502q200 0 274.5 35.5t100.5 144.5z" />
    <glyph glyph-name="yen.osf" horiz-adv-x="1447" 
d="M899 1196h496v-59q-89 -10 -143 -59t-138 -187l-196 -336h274l-16 -86h-281v-150h297l-16 -86h-281v-4q0 -93 37.5 -127t154.5 -43v-59h-737v59q117 9 155 43t38 127v4h-279l17 86h262v150h-279l17 86h229l-246 426q-53 91 -94.5 122t-116.5 34v59h742v-59
q-86 -7 -125 -28.5t-39 -61.5q0 -50 63 -158l162 -273l92 154q111 193 111 266q0 47 -38.5 71t-121.5 30v59z" />
    <glyph glyph-name="percent.osf" horiz-adv-x="1910" 
d="M545 -57l-76 63l895 1145l78 -64zM500 483q-146 0 -235 86.5t-89 229.5q0 141 89 228t235 87q144 0 232.5 -87t88.5 -228q0 -142 -88 -229t-233 -87zM500 539q43 0 69.5 71.5t26.5 188.5t-26.5 188.5t-69.5 71.5q-44 0 -71.5 -71.5t-27.5 -188.5t27.5 -188.5t71.5 -71.5z
M1411 -20q-145 0 -233 86.5t-88 228.5t88 228.5t233 86.5q146 0 235 -86.5t89 -228.5t-89 -228.5t-235 -86.5zM1411 35q44 0 71 71.5t27 188.5t-27 188.5t-71 71.5q-43 0 -69.5 -71.5t-26.5 -188.5t26.5 -188.5t69.5 -71.5z" />
    <glyph glyph-name="perthousand.osf" horiz-adv-x="2664" 
d="M545 -57l-76 63l895 1145l78 -64zM500 483q-146 0 -235 86.5t-89 229.5q0 141 89 228t235 87q144 0 232.5 -87t88.5 -228q0 -142 -88 -229t-233 -87zM500 539q43 0 69.5 71.5t26.5 188.5t-26.5 188.5t-69.5 71.5q-44 0 -71.5 -71.5t-27.5 -188.5t27.5 -188.5t71.5 -71.5z
M1411 -20q-145 0 -233 86.5t-88 228.5t88 228.5t233 86.5q146 0 235 -86.5t89 -228.5t-89 -228.5t-235 -86.5zM2165 -20q-145 0 -233.5 86.5t-88.5 228.5t88.5 228.5t233.5 86.5q146 0 234.5 -86t88.5 -229t-88.5 -229t-234.5 -86zM1411 35q44 0 71 71.5t27 188.5t-27 188.5
t-71 71.5q-43 0 -69.5 -71.5t-26.5 -188.5t26.5 -188.5t69.5 -71.5zM2165 35q44 0 71 71.5t27 188.5t-27 188.5t-71 71.5q-43 0 -70 -72t-27 -188t27 -188t70 -72z" />
    <glyph glyph-name="at.case" horiz-adv-x="2009" 
d="M952 -123q215 0 420.5 54t345.5 145l31 -47q-147 -115 -363.5 -184.5t-433.5 -69.5q-409 0 -640.5 233t-231.5 658q0 226 77 422.5t212.5 337.5t330 222t420.5 81q229 0 413 -101.5t290 -290t106 -430.5q0 -295 -141 -475t-371 -180q-99 0 -176 40.5t-106 110.5
q-154 -151 -355 -151q-117 0 -186.5 54t-69.5 143q0 155 240 241l356 133v189q0 82 -42.5 129t-116.5 47q-43 0 -89 -19v-338q-73 -47 -155 -47q-63 0 -100 31.5t-37 87.5q0 103 80.5 189.5t203 133t252.5 46.5q142 0 225.5 -78t83.5 -209v-442q0 -56 20.5 -83.5t78.5 -27.5
q124 0 206 129.5t82 337.5q0 161 -53.5 298.5t-146 232t-220 147.5t-272.5 53q-199 0 -370.5 -74t-290.5 -202t-186.5 -306t-67.5 -382q0 -379 197 -584t550 -205zM848 520q0 -47 30 -75.5t80 -28.5q76 0 162 67v262l-65 -24q-96 -39 -151.5 -91.5t-55.5 -109.5z" />
    <glyph glyph-name="uni0308.case" 
d="M-768 1630q-67 0 -112.5 45t-45.5 111q0 67 45 111.5t113 44.5q69 0 114.5 -44.5t45.5 -111.5q0 -66 -45.5 -111t-114.5 -45zM-358 1630q-67 0 -112.5 45t-45.5 111q0 67 45 111.5t113 44.5q69 0 114 -44t45 -112q0 -66 -45 -111t-114 -45z" />
    <glyph glyph-name="uni0307.case" 
d="M-358 1599q-88 0 -146.5 56t-58.5 141t58.5 141t146.5 56q89 0 146.5 -56t57.5 -141t-57.5 -141t-146.5 -56z" />
    <glyph glyph-name="gravecomb.case" 
d="M-186 1608q-355 58 -451 102q-37 19 -57.5 49t-20.5 64q0 49 34 84t87 35q33 0 59 -13q91 -43 369 -280z" />
    <glyph glyph-name="acutecomb.case" 
d="M-694 1608l-19 41q269 232 367 280q26 13 59 13q53 0 87 -35t34 -84q0 -34 -20 -64.5t-58 -48.5q-92 -44 -450 -102z" />
    <glyph glyph-name="uni030B.case" 
d="M-1024 1581l-27 39q235 277 320 334q37 24 76 24q51 0 85.5 -34.5t34.5 -85.5q0 -32 -16.5 -61t-44.5 -46q-98 -62 -428 -170zM-602 1581l-27 39q235 277 320 334q37 24 76 24q51 0 85.5 -34.5t34.5 -85.5q0 -32 -16.5 -61t-44.5 -46q-98 -62 -428 -170z" />
    <glyph glyph-name="uni0302.case" 
d="M-211 1651l-25 -43l-329 127l-330 -127l-25 43l332 291h45z" />
    <glyph glyph-name="uni030C.case" 
d="M-236 1942l25 -41l-332 -293h-45l-332 293l25 41l330 -125z" />
    <glyph glyph-name="uni0306.case" 
d="M-553 1587q-104 0 -200.5 83.5t-172.5 234.5l39 32q141 -151 334 -151t334 151l39 -32q-76 -151 -172.5 -234.5t-200.5 -83.5z" />
    <glyph glyph-name="uni030A.case" 
d="M-553 1575q-105 0 -169 60t-64 159q0 97 64 157t169 60t169.5 -60t64.5 -157q0 -98 -64 -158.5t-170 -60.5zM-553 1653q66 0 105.5 38.5t39.5 102.5q0 63 -39.5 102t-105.5 39t-105.5 -39t-39.5 -102q0 -64 39.5 -102.5t105.5 -38.5z" />
    <glyph glyph-name="tildecomb.case" 
d="M-438 1628q-89 0 -228 60q-129 57 -217 57q-82 0 -114 -111l-47 13q12 119 86 207t170 88q36 0 78.5 -10t68 -19t74.5 -29q137 -59 223 -59q83 0 115 112l47 -12q-13 -121 -83.5 -209t-172.5 -88z" />
    <glyph glyph-name="uni0304.case" 
d="M-920 1706l21 94h733l-20 -94h-734z" />
    <glyph glyph-name="uni0304.narrow.case" 
d="M-858 1706l20 94h611l-21 -94h-610z" />
    <glyph glyph-name="uni0308.narrow" 
d="M-731 1303q-61 0 -101 41t-40 104q0 64 39.5 104.5t101.5 40.5t102.5 -40.5t40.5 -104.5q0 -63 -40.5 -104t-102.5 -41zM-395 1303q-62 0 -102 41t-40 104q0 64 40 104.5t102 40.5t102.5 -40.5t40.5 -104.5q0 -63 -40.5 -104t-102.5 -41z" />
    <glyph glyph-name="uni0304.narrow" 
d="M-858 1380l20 95h611l-21 -95h-610z" />
    </font>
</defs>
</svg>
