<?xml version="1.0" standalone="no"?>
<!DOCTYPE svg PUBLIC "-//W3C//DTD SVG 1.1//EN" "http://www.w3.org/Graphics/SVG/1.1/DTD/svg11.dtd" >
<svg xmlns="http://www.w3.org/2000/svg" xmlns:xlink="http://www.w3.org/1999/xlink" version="1.1">
<metadata>
Created by FontForge 20170731 at Fri Mar 31 05:53:57 2023
 By Aleksey,,,
Copyright (c) 2019 by Alberto Romanos. All rights reserved.
</metadata>
<defs>
<font id="BwBetoGrande-Regular" horiz-adv-x="0" >
  <font-face 
    font-family="Bw Beto Grande"
    font-weight="400"
    font-stretch="normal"
    units-per-em="2048"
    panose-1="0 0 5 0 0 0 0 0 0 0"
    ascent="1638"
    descent="-410"
    x-height="1085"
    cap-height="1495"
    bbox="-1020 -459 2693 1982"
    underline-thickness="102"
    underline-position="-307"
    unicode-range="U+000D-FB02"
  />
<missing-glyph horiz-adv-x="2541" 
d="M117 -20q-15 0 -25 10.5t-10 25.5q0 21 10 31l701 698h-664q-47 0 -47 39q0 19 14 33l697 701h-670q-41 0 -41 38v3q0 38 41 38h758q47 0 47 -41q0 -17 -17 -34l-698 -697h676q17 0 29 -12t12 -29v-669l694 692q16 16 35 16q37 0 37 -45v-663l696 692q16 16 33 16
q15 0 25 -12t10 -27t-13 -28l-753 -762q-14 -14 -35 -14q-41 0 -41 47v663l-694 -696q-14 -14 -35 -14q-41 0 -41 47v663l-696 -696q-14 -14 -35 -14z" />
    <glyph glyph-name="fi" unicode="fi" horiz-adv-x="1458" 
d="M678 1632q53 0 88 -31t35 -81q0 -30 -15 -60h-374q-74 -102 -74 -215q0 -55 31 -98t82 -62h299l-5 -20h-294v-827q0 -134 45.5 -181t183.5 -53v-4h-617v4q112 4 149.5 43t37.5 150v841v27h-189l5 20h186q9 141 67 266.5t154 203t205 77.5zM1133 1348q-60 0 -100 37.5
t-40 95.5q0 57 40 95t100 38q59 0 98 -38t39 -95q0 -58 -39 -95.5t-98 -37.5zM1233 197q0 -111 37 -150t149 -43v-4h-575v4q112 4 150 43.5t38 149.5v579q0 101 -37.5 141t-150.5 60v4q204 54 385 117h4v-901z" />
    <glyph glyph-name="fl" unicode="fl" horiz-adv-x="1425" 
d="M1200 197q0 -111 37 -150t149 -43v-4h-575v4q113 4 150.5 43t37.5 150v1067q0 116 -37.5 156t-150.5 40h-383q-82 -109 -82 -215q0 -55 29.5 -98t77.5 -62h305l-4 -20h-301v-827q0 -134 45.5 -181t181.5 -53v-4h-617v4q114 4 151.5 43t37.5 150v841v27h-191l5 20h188
q10 141 76 266.5t175 203t232 77.5q61 0 99 -30.5t38 -81.5q0 -13 -4 -33q148 58 326 139h4v-1429z" />
    <glyph glyph-name=".notdef" horiz-adv-x="2541" 
d="M117 -20q-15 0 -25 10.5t-10 25.5q0 21 10 31l701 698h-664q-47 0 -47 39q0 19 14 33l697 701h-670q-41 0 -41 38v3q0 38 41 38h758q47 0 47 -41q0 -17 -17 -34l-698 -697h676q17 0 29 -12t12 -29v-669l694 692q16 16 35 16q37 0 37 -45v-663l696 692q16 16 33 16
q15 0 25 -12t10 -27t-13 -28l-753 -762q-14 -14 -35 -14q-41 0 -41 47v663l-694 -696q-14 -14 -35 -14q-41 0 -41 47v663l-696 -696q-14 -14 -35 -14z" />
    <glyph glyph-name=".null" 
 />
    <glyph glyph-name="nonmarkingreturn" horiz-adv-x="682" 
 />
    <glyph glyph-name="CR" unicode="&#xd;" horiz-adv-x="524" 
 />
    <glyph glyph-name="space" unicode=" " horiz-adv-x="524" 
 />
    <glyph glyph-name="exclam" unicode="!" horiz-adv-x="610" 
d="M303 432q-9 182 -65 477q-54 259 -54 480q0 58 31.5 92.5t89.5 34.5q56 0 88.5 -34.5t32.5 -92.5q0 -226 -53 -480q-58 -302 -66 -477h-4zM305 -20q-65 0 -106 40t-41 103q0 64 41 104.5t106 40.5t106.5 -40.5t41.5 -104.5q0 -63 -41.5 -103t-106.5 -40z" />
    <glyph glyph-name="quotedbl" unicode="&#x22;" horiz-adv-x="774" 
d="M209 1020l-92 577l217 35h4l-125 -610zM537 1020l-95 577l220 35h4l-125 -610z" />
    <glyph glyph-name="numbersign" unicode="#" horiz-adv-x="1374" 
d="M1280 817h-289l-80 -426h295l-4 -20h-295l-67 -371h-25l68 371h-490l-67 -371h-25l68 371h-279l4 20h279l80 426h-285l4 21h283l65 350h25l-66 -350h490l65 350h25l-66 -350h291zM887 391l80 426h-490l-80 -426h490z" />
    <glyph glyph-name="dollar" unicode="$" horiz-adv-x="1323" 
d="M748 848q58 -27 96 -45.5t90.5 -47.5t86.5 -54.5t71.5 -61.5t59 -72t36 -82.5t14.5 -97.5q0 -188 -137.5 -297.5t-382.5 -109.5h-4v-185h-25v185q-81 4 -182 36.5t-139 32.5q-31 0 -53 -12.5t-46 -46.5h-4l-116 536l4 2q78 -235 220.5 -375t315.5 -149v670q-2 0 -10 4
q-64 30 -98 47t-92 49.5t-90.5 57.5t-73.5 64.5t-62.5 78.5t-37 90.5t-15.5 108.5q0 153 117 247.5t311 94.5q12 0 57 -5v158h25v-160q50 -9 130.5 -39t119.5 -30q30 0 48.5 13t41.5 52h4l131 -510l-4 -2q-72 196 -198.5 327.5t-272.5 162.5v-604zM344 1243q0 -62 24 -114.5
t71 -95.5t97.5 -74.5t122.5 -67.5v596q-36 4 -57 4q-118 0 -188 -69t-70 -179zM678 4q164 0 253 81.5t89 227.5q0 51 -19 95.5t-48 78t-77 67t-91.5 56.5t-106.5 52v-658z" />
    <glyph glyph-name="percent" unicode="%" horiz-adv-x="1918" 
d="M326 -45l-19 14l1286 1571l19 -14zM453 643q-154 0 -249 118.5t-95 313.5q0 194 94.5 312t249.5 118t250.5 -118.5t95.5 -311.5q0 -195 -95.5 -313.5t-250.5 -118.5zM453 662q78 0 126 113.5t48 299.5q0 185 -48 298.5t-126 113.5q-77 0 -124.5 -113.5t-47.5 -298.5
t47.5 -299t124.5 -114zM1466 -12q-155 0 -250.5 118.5t-95.5 313.5q0 193 95.5 311.5t250.5 118.5t250.5 -118.5t95.5 -311.5q0 -195 -95.5 -313.5t-250.5 -118.5zM1466 6q78 0 125 114t47 300q0 185 -47 298t-125 113q-77 0 -124.5 -113t-47.5 -298q0 -186 47.5 -300
t124.5 -114z" />
    <glyph glyph-name="ampersand" unicode="&#x26;" horiz-adv-x="1927" 
d="M1178 356q191 -158 378 -253t347 -99v-4h-240q-141 0 -298 56.5t-288 158.5l-30 23q-107 -123 -237.5 -190.5t-262.5 -67.5q-181 0 -291.5 102t-110.5 268q0 157 96.5 267t260.5 167q-205 276 -205 426q0 135 109.5 220.5t287.5 85.5q161 0 260 -78.5t99 -204.5
q0 -107 -102.5 -204.5t-266.5 -141.5q199 -279 475 -514q180 219 254 356q76 134 76 195q0 88 -57.5 118.5t-194.5 38.5v4h569v-4q-107 -7 -165 -55t-130 -182q-155 -278 -333 -488zM684 1491q-85 0 -135.5 -55t-50.5 -146q0 -130 172 -383q92 70 149.5 159.5t57.5 186.5
q0 108 -52 173t-141 65zM653 86q192 0 377 164q-292 229 -512 514q-192 -143 -192 -361q0 -143 86.5 -230t240.5 -87z" />
    <glyph glyph-name="quotesingle" unicode="'" horiz-adv-x="448" 
d="M209 1020l-92 577l217 35h4l-125 -610z" />
    <glyph glyph-name="parenleft" unicode="(" horiz-adv-x="733" 
d="M709 -451q-188 114 -320 265.5t-206 352.5t-74 435q0 350 157 616.5t443 438.5l4 -4q-200 -179 -313 -445t-113 -606q0 -339 113 -605t313 -443z" />
    <glyph glyph-name="parenright" unicode=")" horiz-adv-x="733" 
d="M27 -451l-4 5q198 177 310.5 443t112.5 605q0 340 -112 606t-311 445l4 4q285 -172 441.5 -438.5t156.5 -616.5q0 -348 -157 -614t-441 -439z" />
    <glyph glyph-name="asterisk" unicode="*" horiz-adv-x="1101" 
d="M981 1321q9 -30 -4 -56t-43 -36q-95 -31 -375 -51q210 -173 272 -258q19 -27 14.5 -54.5t-30.5 -48.5q-25 -19 -53.5 -14t-48.5 31q-61 84 -162 337q-100 -254 -164 -337q-19 -26 -46.5 -31t-53.5 14t-32 48t13 55q66 86 275 258q-284 20 -375 51q-31 11 -44 37t-3 55
q11 30 36.5 44t55.5 5q103 -34 332 -180q-68 279 -68 371q0 32 20.5 51.5t53.5 19.5q31 0 52.5 -19.5t21.5 -51.5q0 -96 -68 -371q227 145 330 180q32 9 58.5 -5t35.5 -44z" />
    <glyph glyph-name="plus" unicode="+" horiz-adv-x="970" 
d="M866 612v-20h-368v-361h-25v361h-369v20h369v359h25v-359h368z" />
    <glyph glyph-name="comma" unicode="," horiz-adv-x="565" 
d="M184 -362l-2 4q55 43 88 105t33 124q0 66 -39 111t-102 53q-31 43 -31 88q0 63 38 104t95 41q80 0 129 -64.5t49 -168.5q0 -122 -70.5 -230.5t-187.5 -166.5z" />
    <glyph glyph-name="hyphen" unicode="-" horiz-adv-x="1009" 
d="M158 592l4 20h690l-4 -20h-690z" />
    <glyph glyph-name="period" unicode="." horiz-adv-x="550" 
d="M276 -20q-64 0 -105.5 40.5t-41.5 102.5q0 63 41.5 104t105.5 41q63 0 105.5 -41t42.5 -104q0 -61 -42.5 -102t-105.5 -41z" />
    <glyph glyph-name="slash" unicode="/" horiz-adv-x="1028" 
d="M106 -211l-22 10l838 1850l24 -11z" />
    <glyph glyph-name="zero" unicode="0" horiz-adv-x="1466" 
d="M733 -20q-268 0 -432 211t-164 557t164 557t432 211t432 -211t164 -557t-164 -557t-432 -211zM733 4q107 0 189 92.5t127 261.5t45 390t-45 389.5t-127 261t-189 92.5t-189 -92.5t-126.5 -261t-44.5 -389.5t44.5 -390t126.5 -261.5t189 -92.5z" />
    <glyph glyph-name="one" unicode="1" horiz-adv-x="913" 
d="M582 240q0 -135 51 -182.5t205 -53.5v-4h-725v4q154 6 205 53.5t51 182.5v886q0 87 -23.5 126.5t-81.5 39.5q-53 0 -168 -41l-2 4q242 118 484 273h4v-1288z" />
    <glyph glyph-name="two" unicode="2" horiz-adv-x="1406" 
d="M1290 522h4l-77 -532q-215 10 -730 10h-432l-2 4q117 122 332 309q75 65 121 105.5t110.5 102t103 105.5t83 102.5t68.5 108.5t40.5 107.5t16.5 114.5q0 126 -83.5 203t-219.5 77q-150 0 -277 -81.5t-192 -215.5l-4 2q75 212 237 342t350 130q185 0 299.5 -102
t114.5 -265q0 -66 -21 -133t-58 -126.5t-88 -118.5t-109 -112t-123.5 -105.5t-129.5 -99t-129 -92.5q-27 -19 -40 -28q-58 -43 -189 -158h565q120 0 194.5 14.5t128.5 55.5t83.5 105t52.5 171z" />
    <glyph glyph-name="three" unicode="3" horiz-adv-x="1224" 
d="M578 918q248 -42 382 -148t134 -268q0 -148 -115.5 -260.5t-329 -179.5t-504.5 -82v4q335 30 533.5 149.5t198.5 308.5q0 132 -119 205t-363 103l-2 4l518 563h-391q-180 0 -264.5 -50.5t-151.5 -199.5l-4 2l131 459h5q73 -20 216.5 -26.5t452.5 -6.5h197l2 -6z" />
    <glyph glyph-name="four" unicode="4" horiz-adv-x="1404" 
d="M1333 432h-336v-219q0 -119 44.5 -161t179.5 -48v-4h-701v4q82 4 131 16.5t80 41.5t42 73.5t11 118.5v178h-737l-2 6l795 1057h157v-1042q192 0 338 10h4zM86 453h698v929z" />
    <glyph glyph-name="five" unicode="5" horiz-adv-x="1202" 
d="M197 1026q445 -40 661.5 -164.5t216.5 -353.5q0 -226 -253 -366t-695 -162v4q220 21 383 80.5t255.5 158.5t92.5 226q0 168 -180.5 259.5t-552.5 129.5l-2 6l172 651h145q294 0 424 8t217 33h4l-57 -219h-754z" />
    <glyph glyph-name="six" unicode="6" horiz-adv-x="1345" 
d="M766 868q214 0 350.5 -117.5t136.5 -306.5q0 -209 -154.5 -336.5t-408.5 -127.5q-253 0 -408 166t-155 436q0 144 66 286t185 263.5t290 221.5t376 163l3 -5q-265 -117 -444.5 -326t-225.5 -452q78 62 180.5 98.5t208.5 36.5zM690 4q148 0 238 123.5t90 325.5
q0 171 -82 279t-211 108q-101 0 -201 -62t-162 -162v-34q0 -260 90 -419t238 -159z" />
    <glyph glyph-name="seven" unicode="7" horiz-adv-x="1277" 
d="M1251 1495l2 -6q-257 -379 -415 -719.5t-211 -671.5q-11 -61 -42.5 -89.5t-90.5 -28.5q-54 0 -80.5 26t-26.5 72q0 127 114.5 359.5t281 469.5t329.5 410h-633q-123 0 -196.5 -21.5t-124 -74t-97.5 -154.5l-4 2l133 459h5q73 -20 216.5 -26.5t452.5 -6.5h387z" />
    <glyph glyph-name="eight" unicode="8" horiz-adv-x="1374" 
d="M795 840q59 -28 96 -46t90.5 -47.5t87 -54.5t71.5 -60t59 -69.5t35.5 -79t14.5 -92.5q0 -186 -155 -298.5t-412 -112.5q-250 0 -403.5 105t-153.5 277q0 118 116 218t308 147q-78 40 -133.5 77.5t-108 89t-79.5 117.5t-27 144q0 163 132 262t349 99q220 0 353.5 -93
t133.5 -247q0 -110 -103 -201.5t-273 -132.5zM387 1229q0 -65 29 -120t87 -101t115.5 -79t143.5 -73q108 63 170.5 151t62.5 183q0 135 -86 218t-227 83q-133 0 -214 -71.5t-81 -190.5zM682 4q168 0 270.5 83.5t102.5 221.5q0 36 -11.5 70t-29 61t-48 54.5t-59.5 48t-73 45
t-77.5 40.5t-84.5 40q-38 17 -92 45q-126 -69 -200.5 -167.5t-74.5 -197.5q0 -155 103.5 -249.5t273.5 -94.5z" />
    <glyph glyph-name="nine" unicode="9" horiz-adv-x="1337" 
d="M639 1516q256 0 413.5 -166.5t157.5 -436.5q0 -194 -100.5 -376.5t-286 -327.5t-428.5 -229l-2 4q232 120 386 336t188 468q-78 -66 -183 -104.5t-213 -38.5q-214 0 -350.5 115t-136.5 301q0 204 152.5 329.5t402.5 125.5zM612 676q103 0 202.5 61t160.5 162v16
q0 258 -92.5 417t-243.5 159q-143 0 -231.5 -121t-88.5 -317q0 -168 81.5 -272.5t211.5 -104.5z" />
    <glyph glyph-name="colon" unicode=":" horiz-adv-x="595" 
d="M297 817q-63 0 -105 41t-42 103q0 63 42 104t105 41q65 0 107 -41t42 -104q0 -62 -42.5 -103t-106.5 -41zM297 -20q-63 0 -105 41t-42 102q0 63 42 104t105 41q65 0 107 -41t42 -104q0 -62 -42.5 -102.5t-106.5 -40.5z" />
    <glyph glyph-name="semicolon" unicode=";" horiz-adv-x="624" 
d="M307 817q-64 0 -105.5 41t-41.5 103q0 63 41.5 104t105.5 41q63 0 105.5 -41t42.5 -104q0 -61 -42.5 -102.5t-105.5 -41.5zM213 -362l-2 4q54 43 87.5 105.5t33.5 123.5q0 66 -39.5 111t-104.5 53q-28 39 -28 88q0 63 37 104t94 41q80 0 129 -64.5t49 -168.5
q0 -121 -70 -229.5t-186 -167.5z" />
    <glyph glyph-name="less" unicode="&#x3c;" horiz-adv-x="970" 
d="M850 317l-762 283v4l762 303v-22l-707 -283l707 -262v-23z" />
    <glyph glyph-name="equal" unicode="=" horiz-adv-x="970" 
d="M104 739v21h762v-21h-762zM104 444v21h762v-21h-762z" />
    <glyph glyph-name="greater" unicode="&#x3e;" horiz-adv-x="970" 
d="M121 317v23l706 262l-706 283v22l762 -303v-4z" />
    <glyph glyph-name="question" unicode="?" horiz-adv-x="899" 
d="M242 1516q105 0 206.5 -46.5t174.5 -120t118 -168.5t45 -188q0 -154 -118.5 -242.5t-335.5 -97.5q-18 -97 -25 -221h-4q-30 195 -88 389l4 4q251 6 383.5 71t132.5 179q0 141 -151 266h-467q-13 26 -13 62q0 49 39 81t99 32zM324 268q65 0 106 -40.5t41 -104.5
q0 -63 -41 -103t-106 -40q-66 0 -107 40t-41 103q0 65 41 105t107 40z" />
    <glyph glyph-name="at" unicode="@" horiz-adv-x="2033" 
d="M852 492l373 139v176q0 101 -51.5 156t-145.5 55q-107 0 -209 -70v-299q-43 -24 -88 -24q-42 0 -69 26.5t-27 71.5q0 95 77 174.5t184.5 120.5t211.5 41q142 0 220.5 -76.5t78.5 -212.5v-549q0 -59 29.5 -92t87.5 -33q158 0 259 166t101 434q0 234 -99 416t-271.5 280.5
t-389.5 98.5q-220 0 -404 -76t-311 -211.5t-197.5 -328t-70.5 -420.5q0 -411 212.5 -636t596.5 -225q225 0 432 65.5t340 174.5l2 -4q-135 -118 -344 -189t-430 -71q-394 0 -615.5 233t-221.5 652q0 313 124.5 554t354.5 374t532 133q168 0 314 -59t250.5 -165t164.5 -259.5
t60 -334.5q0 -293 -121 -473t-319 -180q-104 0 -174 52.5t-74 138.5q-191 -191 -383 -191q-121 0 -191.5 56t-70.5 149q0 77 64 133t208 109zM778 274q0 -69 42.5 -110t111.5 -41q122 0 293 135v350l-191 -71q-256 -99 -256 -263z" />
    <glyph glyph-name="A" unicode="A" horiz-adv-x="1679" 
d="M1448 201q27 -63 45 -94.5t44.5 -57t59 -34t86.5 -11.5v-4h-704v4q136 12 190 40.5t54 92.5q0 35 -31 109l-121 293h-665l-70 -170q-60 -152 -60 -207q0 -83 61.5 -116.5t211.5 -41.5v-4h-545v4q102 10 156 70t125 233l426 1028l-31 76q92 41 174 105h37zM414 559h649
l-326 784z" />
    <glyph glyph-name="B" unicode="B" horiz-adv-x="1665" 
d="M1065 772q220 -11 353.5 -115t133.5 -266q0 -177 -147.5 -284t-390.5 -107h-924v4q133 6 178 48t45 161v1069q0 119 -45 161t-178 48v4h866q224 0 361 -99.5t137 -262.5q0 -144 -104.5 -240t-284.5 -121zM1217 1126q0 158 -87.5 253.5t-238.5 95.5h-365v-697h365
q151 0 238.5 95t87.5 253zM942 20q169 0 272 102t103 269q0 165 -101 266t-270 101h-420v-559q0 -108 29.5 -143.5t120.5 -35.5h266z" />
    <glyph glyph-name="C" unicode="C" horiz-adv-x="1544" 
d="M819 -20q-315 0 -505.5 208t-190.5 551q0 230 91 406.5t257.5 273.5t384.5 97q68 0 138.5 -18t123 -36t78.5 -18q31 0 48.5 12t39.5 49h4l129 -530l-4 -2q-183 518 -563 518q-232 0 -373 -182.5t-141 -481.5q0 -158 42.5 -290.5t118.5 -225.5t185.5 -144.5t239.5 -51.5
q154 0 300.5 73t227.5 195l4 -2q-78 -179 -253.5 -290t-381.5 -111z" />
    <glyph glyph-name="D" unicode="D" horiz-adv-x="1787" 
d="M848 1495q183 0 336 -54t260 -151t166 -236t59 -306q0 -222 -101.5 -392t-288.5 -263t-431 -93h-758v4q133 6 178 48t45 161v1069q0 119 -45 161t-178 48v4h758zM805 20q140 0 257 52.5t199 147.5t127.5 230.5t45.5 297.5q0 328 -169 527.5t-452 199.5h-287v-1276
q0 -107 23.5 -143t93.5 -36h162z" />
    <glyph glyph-name="E" unicode="E" horiz-adv-x="1634" 
d="M1552 537l4 -2l-188 -545q-139 10 -410 10h-868v4q133 6 178 48t45 161v1069q0 119 -45 161t-178 48v4h817q263 0 396 10l167 -524l-4 -2q-35 102 -68 174t-74.5 129.5t-87 93t-108 58.5t-135 32t-170.5 9h-297v-697h199q76 0 123 14.5t81.5 55.5t54 106t34.5 174h4
q-6 -221 -6 -370q0 -150 6 -371h-4q-15 115 -34.5 184t-54 112.5t-81.5 59t-123 15.5h-199v-559q0 -107 29.5 -143t118.5 -36h235q112 0 192 14.5t146 47.5t118 95t96 147t91 213z" />
    <glyph glyph-name="F" unicode="F" horiz-adv-x="1490" 
d="M1282 1505l168 -524l-4 -2q-52 153 -102.5 245t-126 150.5t-171.5 79.5t-243 21h-277v-717h187q76 0 124 14.5t82.5 55.5t54 106t34.5 174h4q-6 -221 -6 -371q0 -149 6 -370h-4q-15 115 -34.5 183.5t-54 112t-82.5 59t-124 15.5h-187v-483q0 -74 11.5 -118.5t42.5 -73.5
t80 -41.5t131 -16.5v-4h-701v4q133 6 178 48t45 161v1069q0 119 -45 161t-178 48v4h797q263 0 395 10z" />
    <glyph glyph-name="G" unicode="G" horiz-adv-x="1716" 
d="M1673 668v-4q-122 -6 -162.5 -46t-40.5 -155v-350q-69 -8 -174 -47q-249 -86 -407 -86q-228 0 -402.5 95.5t-270 270t-95.5 402.5t97.5 402.5t275.5 270t411 95.5q83 0 157 -19t130 -38t96 -19q35 0 56 13t45 52h4l57 -530h-4q-54 245 -196.5 380.5t-344.5 135.5
q-247 0 -398 -204t-151 -539q0 -334 147 -539t386 -205q96 0 192.5 41t175.5 111v258q0 141 -58.5 192t-231.5 58v4h706z" />
    <glyph glyph-name="H" unicode="H" horiz-adv-x="1818" 
d="M1729 1491q-133 -6 -178.5 -48t-45.5 -161v-1069q0 -119 45.5 -161t178.5 -48v-4h-660v4q134 6 178.5 48t44.5 161v545h-766v-545q0 -119 45.5 -161t178.5 -48v-4h-660v4q133 6 178 48t45 161v1069q0 119 -45 161t-178 48v4h660v-4q-133 -6 -178.5 -48t-45.5 -161v-504
h766v504q0 119 -44.5 161t-178.5 48v4h660v-4z" />
    <glyph glyph-name="I" unicode="I" horiz-adv-x="839" 
d="M750 1491q-133 -6 -178.5 -48t-45.5 -161v-1069q0 -119 45.5 -161t178.5 -48v-4h-660v4q133 6 178 48t45 161v1069q0 119 -45 161t-178 48v4h660v-4z" />
    <glyph glyph-name="J" unicode="J" horiz-adv-x="802" 
d="M74 1495h659v-4q-133 -6 -178 -48t-45 -161v-913q0 -204 -115.5 -368.5t-304.5 -225.5l-2 4q209 159 209 510v993q0 119 -44.5 161t-178.5 48v4z" />
    <glyph glyph-name="K" unicode="K" horiz-adv-x="1712" 
d="M526 213q0 -119 45.5 -161t178.5 -48v-4h-660v4q133 4 178 47t45 162v1069q0 119 -45 161t-178 48v4h660v-4q-133 -6 -178.5 -48t-45.5 -161v-1069zM776 915q223 -288 365 -459t249.5 -273t176.5 -138t143 -41v-4h-254q-59 0 -110 14t-111 54t-117 93t-140.5 149.5
t-168 204.5t-211.5 276l502 430q121 105 121 159q0 51 -54 77.5t-176 33.5v4h574v-4q-74 -2 -138.5 -36.5t-181.5 -135.5z" />
    <glyph glyph-name="L" unicode="L" horiz-adv-x="1515" 
d="M1470 537l5 -2l-189 -545q-139 10 -395 10h-801v4q133 6 178 48t45 161v1069q0 119 -45 161t-178 48v4h701v-4q-158 -7 -211.5 -55.5t-53.5 -182.5v-1054q0 -107 27.5 -143t110.5 -36h178q91 0 159 9t128 33t104.5 61t86.5 96.5t77 135t73 182.5z" />
    <glyph glyph-name="M" unicode="M" horiz-adv-x="2199" 
d="M1919 219q12 -124 58.5 -166.5t179.5 -48.5v-4h-699v4q159 6 208.5 54.5t37.5 187.5l-109 1140l-567 -1406h-4l-600 1402l-117 -1130q-8 -74 1.5 -118.5t45 -73.5t95.5 -41t161 -15v-4h-571v4q133 6 180.5 49t59.5 166l112 1096q10 97 -36 133.5t-181 42.5v4h434
l514 -1216l488 1216h411v-4q-133 -6 -174 -41.5t-32 -134.5z" />
    <glyph glyph-name="N" unicode="N" horiz-adv-x="1722" 
d="M1075 1495h574v-4q-133 -6 -178.5 -48t-45.5 -161v-1302h-4l-1083 1306v-1032q0 -145 64.5 -194.5t261.5 -55.5v-4h-574v4q133 6 178 48t45 161v1102q0 99 -45 134.5t-178 41.5v4h363l948 -1176v922q0 98 -27.5 148.5t-96 74t-202.5 27.5v4z" />
    <glyph glyph-name="O" unicode="O" horiz-adv-x="1761" 
d="M881 -20q-226 0 -399 95.5t-267 270t-94 402.5t94 402.5t267 270t399 95.5q342 0 550.5 -211t208.5 -557t-208.5 -557t-550.5 -211zM881 4q236 0 380 204.5t144 539.5t-144 539t-380 204t-380.5 -204.5t-144.5 -538.5q0 -335 144.5 -539.5t380.5 -204.5z" />
    <glyph glyph-name="P" unicode="P" horiz-adv-x="1515" 
d="M920 1495q238 0 384 -109.5t146 -289.5q0 -192 -172 -310t-453 -118h-149l-6 20h135q184 0 296.5 112.5t112.5 295.5q0 170 -95.5 274.5t-250.5 104.5h-342v-1221q0 -74 11.5 -118.5t42.5 -73.5t80 -41.5t131 -16.5v-4h-701v4q133 6 178 48t45 161v1069q0 119 -45 161
t-178 48v4h830z" />
    <glyph glyph-name="Q" unicode="Q" horiz-adv-x="1761" 
d="M1053 -4q149 -170 243.5 -252.5t174.5 -114.5t190 -35v-4h-240q-124 0 -217.5 35.5t-187 117t-228.5 241.5q-305 29 -486 235.5t-181 528.5q0 228 94 402.5t267 270t399 95.5q342 0 550.5 -211t208.5 -557q0 -298 -158.5 -499.5t-428.5 -252.5zM356 748
q0 -335 144.5 -539.5t380.5 -204.5t380 204.5t144 539.5t-144 539t-380 204t-380.5 -204.5t-144.5 -538.5z" />
    <glyph glyph-name="R" unicode="R" horiz-adv-x="1699" 
d="M1065 731q185 -307 292.5 -457t182.5 -207.5t162 -62.5v-4h-238q-59 0 -110.5 21.5t-103.5 66.5t-115 131.5t-132 199.5t-167 288h-11h-299v-453q0 -141 53.5 -192t211.5 -58v-4h-701v4q133 6 178 48t45 161v1069q0 119 -45 161t-178 48v4h830q238 0 384 -106t146 -279
q0 -137 -102.5 -237t-282.5 -142zM805 727q184 0 296.5 103t112.5 272q0 168 -95 270.5t-251 102.5h-342v-748h279z" />
    <glyph glyph-name="S" unicode="S" horiz-adv-x="1433" 
d="M721 -20q-82 0 -159 17.5t-135.5 35.5t-94.5 18q-34 0 -57 -13t-52 -48h-4l-115 536l5 2q79 -241 243.5 -382.5t360.5 -141.5q199 0 306 86t107 238q0 43 -13 81t-33 66.5t-55 55.5t-67 45t-82.5 38.5t-88 33t-95.5 30.5q-207 67 -295 114q-191 101 -225 267q-8 39 -8 82
q0 171 139 273t369 102q77 0 150 -19t129 -38t93 -19q33 0 54 14t41 51h4l131 -510l-4 -2q-81 223 -247.5 360.5t-350.5 137.5q-148 0 -235 -72t-87 -194q0 -45 14 -84t34 -68t57.5 -57t70 -47t86 -40.5t91 -34t98.5 -32.5q69 -22 109 -36t102 -40t99 -48t81 -57t68 -71.5
t40.5 -86.5t16.5 -107q0 -202 -157.5 -319t-438.5 -117z" />
    <glyph glyph-name="T" unicode="T" horiz-adv-x="1523" 
d="M1305 1526l174 -545l-4 -2q-78 203 -147.5 306.5t-159.5 146.5t-234 43h-66v-1235q0 -136 50.5 -183t205.5 -53v-4h-725v4q155 6 205.5 53t50.5 183v1235h-63q-109 0 -182.5 -21t-137 -80t-113 -150t-108.5 -245l-4 2l172 545h4q73 -19 163 -25t284 -6h184q195 0 284 6
t162 25h5z" />
    <glyph glyph-name="U" unicode="U" horiz-adv-x="1724" 
d="M1659 1495v-4q-133 -6 -178 -48t-45 -161v-801q0 -226 -140 -363.5t-370 -137.5q-306 0 -472.5 136t-166.5 384v782q0 119 -45.5 161t-178.5 48v4h701v-4q-158 -6 -211 -54t-53 -182v-792q0 -206 118.5 -332.5t311.5 -126.5q217 0 349 131t132 346v760q0 98 -27.5 148.5
t-96 74t-202.5 27.5v4h574z" />
    <glyph glyph-name="V" unicode="V" horiz-adv-x="1667" 
d="M1120 1495h551v-4q-101 -12 -153 -71t-127 -232l-539 -1208h-39l-586 1314q-53 119 -93.5 155t-141.5 42v4h698v-4q-132 -12 -184.5 -42t-52.5 -97q0 -38 30 -105l449 -1028l401 907q64 144 64 203q0 84 -63.5 119t-213.5 43v4z" />
    <glyph glyph-name="W" unicode="W" horiz-adv-x="2377" 
d="M1817 1495h567v-4q-107 -12 -164 -72t-119 -231l-432 -1208h-39l-444 1208l-436 -1208h-39l-480 1314q-29 80 -55.5 119t-66.5 56.5t-113 21.5v4h713v-4q-138 -12 -191 -42.5t-53 -100.5q0 -40 24 -101l342 -971l340 949v2l105 289h4l461 -1258l301 860q55 145 55 205
q0 90 -61 125t-219 43v4z" />
    <glyph glyph-name="X" unicode="X" horiz-adv-x="1669" 
d="M1317 303q51 -68 73.5 -96.5t62 -75t64.5 -66.5t58 -38.5t65 -22.5v-4h-739v4q132 7 189 39.5t57 93.5q0 56 -94 178l-293 383l-250 -331q-102 -142 -102 -203q0 -72 63 -110t209 -50v-4h-651v4q117 14 206.5 83t227.5 257l280 377l-391 512q-47 63 -68.5 90.5t-55 66
t-56 54.5t-52 29.5t-61.5 17.5v4h732v-4q-128 -10 -182 -42t-54 -93q0 -53 78 -154l280 -368l220 288q112 147 112 211q0 73 -64 111t-208 47v4h637v-4q-106 -10 -194 -82t-234 -264l-252 -334z" />
    <glyph glyph-name="Y" unicode="Y" horiz-adv-x="1579" 
d="M954 1495h635v-4q-111 -11 -201 -85.5t-206 -275.5l-283 -485v-405q0 -136 50.5 -183t205.5 -53v-4h-725v4q155 6 205.5 53t50.5 183v403l-367 606q-83 136 -138 184.5t-142 57.5v4h731v-4q-131 -10 -184.5 -39.5t-53.5 -89.5q0 -44 68 -160l297 -512l254 438
q98 168 98 220q0 71 -67 103.5t-228 39.5v4z" />
    <glyph glyph-name="Z" unicode="Z" horiz-adv-x="1552" 
d="M1444 530h4l-80 -540q-215 10 -729 10h-555l-2 6l1089 1469h-522q-110 0 -183.5 -21.5t-137 -81t-112.5 -152.5t-107 -249l-5 2l158 532q195 -10 680 -10h490l2 -6l-1092 -1469h586q98 0 167 14.5t124 47t94.5 93.5t70.5 145t60 210z" />
    <glyph glyph-name="bracketleft" unicode="[" horiz-adv-x="729" 
d="M694 1659q-88 -4 -140.5 -17t-86 -44.5t-45.5 -80t-12 -128.5v-1571q0 -155 57 -209.5t227 -63.5v-4h-471v2122h471v-4z" />
    <glyph glyph-name="backslash" unicode="\" horiz-adv-x="1028" 
d="M922 -211l-840 1849l24 11l838 -1850z" />
    <glyph glyph-name="bracketright" unicode="]" horiz-adv-x="729" 
d="M504 1663v-2122h-469v4q88 5 140.5 18.5t85.5 45.5t44.5 80.5t11.5 128.5v1571q0 155 -56 209t-226 61v4h469z" />
    <glyph glyph-name="asciicircum" unicode="^" horiz-adv-x="970" 
d="M49 885l434 747h4l435 -747h-29l-408 702l-407 -702h-29z" />
    <glyph glyph-name="underscore" unicode="_" horiz-adv-x="1310" 
d="M43 -207l4 21h1219l-4 -21h-1219z" />
    <glyph glyph-name="grave" unicode="`" horiz-adv-x="890" 
d="M631 1229q-268 140 -355 219q-32 32 -32 76q0 36 27 63t63 27q41 0 72 -31q85 -85 229 -350z" />
    <glyph glyph-name="a" unicode="a" horiz-adv-x="1222" 
d="M1200 244l4 -4q-35 -127 -95.5 -193.5t-137.5 -66.5q-74 0 -117 34t-47 97v67q-208 -198 -426 -198q-134 0 -212.5 59t-78.5 158q0 83 69 144t234 122l414 153v211q0 114 -57.5 176t-161.5 62q-127 0 -236 -78v-336q-44 -26 -94 -26q-48 0 -77 29t-29 81
q0 106 85.5 193.5t204.5 132.5t234 45q158 0 245 -84t87 -238v-626q0 -46 11.5 -64t41.5 -18q72 0 139 168zM481 51q136 0 326 152v389l-215 -80q-287 -109 -287 -287q0 -78 49 -126t127 -48z" />
    <glyph glyph-name="b" unicode="b" horiz-adv-x="1314" 
d="M745 1106q211 0 340 -144t129 -380q0 -270 -145 -436t-383 -166q-153 0 -276 63q-139 -21 -228 -63h-4v1304q0 116 -37.5 158t-150.5 49v4q201 60 385 131h4v-725q66 93 166.5 149t199.5 56zM647 10q155 0 250.5 148t95.5 391q0 221 -90.5 356t-238.5 135
q-74 0 -152 -46.5t-133 -125.5v-671q39 -90 111.5 -138.5t156.5 -48.5z" />
    <glyph glyph-name="c" unicode="c" horiz-adv-x="1181" 
d="M1090 281l4 -2q-60 -134 -190.5 -216.5t-282.5 -82.5q-235 0 -378 152.5t-143 404.5q0 256 155 412.5t409 156.5q188 0 302.5 -100.5t114.5 -264.5q0 -62 -32 -100.5t-86 -38.5q-57 0 -82 25v385q-78 69 -211 69q-166 0 -267.5 -133.5t-101.5 -351.5q0 -232 115 -374
t303 -142q105 0 208.5 55t162.5 146z" />
    <glyph glyph-name="d" unicode="d" horiz-adv-x="1361" 
d="M1137 254q0 -109 37.5 -148t150.5 -43v-4q-185 -30 -385 -79h-4v204q-65 -93 -165.5 -148.5t-199.5 -55.5q-212 0 -341.5 143.5t-129.5 378.5q0 271 145.5 437.5t383.5 166.5q83 0 165 -22.5t142 -59.5v260q0 116 -37 158t-149 49v4q207 62 383 131h4v-1372zM653 43
q73 0 150 47t133 125v672q-39 91 -111 139.5t-157 48.5q-155 0 -250.5 -147.5t-95.5 -390.5q0 -221 91.5 -357.5t239.5 -136.5z" />
    <glyph glyph-name="e" unicode="e" horiz-adv-x="1204" 
d="M1112 281l4 -2q-63 -134 -196 -216.5t-289 -82.5q-238 0 -383.5 150.5t-145.5 397.5q0 260 151 419t400 159q203 0 327 -118.5t124 -313.5h-797q-4 -50 -4 -78q0 -232 116 -374t308 -142q106 0 212.5 55.5t172.5 145.5zM641 1081q-133 0 -221.5 -104t-110.5 -279h414
q88 0 129 35t41 107q0 108 -69 174.5t-183 66.5z" />
    <glyph glyph-name="f" unicode="f" horiz-adv-x="806" 
d="M862 1460h-434q-82 -109 -82 -215q0 -55 29.5 -98t77.5 -62h321l-4 -20h-317v-827q0 -134 45.5 -181t181.5 -53v-4h-617v4q114 4 151.5 43t37.5 150v841v27h-191l5 20h188q10 141 76 266.5t175 203t232 77.5q61 0 99 -30.5t38 -81.5q0 -36 -12 -60z" />
    <glyph glyph-name="g" unicode="g" horiz-adv-x="1263" 
d="M918 170q154 -13 227.5 -84t73.5 -170q0 -159 -161 -252.5t-474 -93.5q-282 0 -413.5 68t-131.5 184q0 122 225 239q-112 53 -112 166q0 104 129 254q-134 101 -134 267q0 161 127 259.5t334 98.5q49 0 127 -10q90 -11 164 -11q160 0 281 21h4l-8 -41h-359
q120 -41 186 -124t66 -193q0 -161 -127 -260t-334 -99q-188 0 -309 82q-66 -93 -66 -145q0 -42 42.5 -71.5t168.5 -41.5zM608 1081q-107 0 -173 -92t-66 -241q0 -150 66.5 -242t172.5 -92q108 0 174 92t66 242q0 149 -66.5 241t-173.5 92zM606 -406q244 0 372 71t128 181
q0 47 -48.5 82t-150.5 45l-442 39q-93 8 -176 37q-92 -92 -92 -211q0 -115 111 -179.5t298 -64.5z" />
    <glyph glyph-name="h" unicode="h" horiz-adv-x="1394" 
d="M1180 197q0 -111 37 -150t149 -43v-4h-567v4q107 4 143.5 43.5t36.5 149.5v596q0 118 -55.5 178.5t-163.5 60.5q-78 0 -157 -37.5t-177 -111.5v-686q0 -110 36.5 -149.5t143.5 -43.5v-4h-567v4q112 4 149 43t37 150v1087q0 116 -37 158t-149 49v4q207 62 383 131h4v-719
q229 199 444 199q148 0 229 -84t81 -238v-587z" />
    <glyph glyph-name="i" unicode="i" horiz-adv-x="681" 
d="M356 1348q-60 0 -99.5 37.5t-39.5 95.5q0 57 39.5 95t99.5 38q59 0 98.5 -38t39.5 -95q0 -58 -39.5 -95.5t-98.5 -37.5zM457 197q0 -111 37 -150t149 -43v-4h-575v4q113 4 150.5 43t37.5 150v579q0 101 -37 141t-151 60v4q204 54 385 117h4v-901z" />
    <glyph glyph-name="j" unicode="j" horiz-adv-x="608" 
d="M332 1348q-60 0 -98.5 37.5t-38.5 95.5q0 57 38.5 95t98.5 38q59 0 98 -38t39 -95q0 -58 -39 -95.5t-98 -37.5zM59 -430l-2 4q174 145 174 471v731q0 101 -37 141t-151 60v4q247 69 385 117h4v-975q0 -207 -103 -359.5t-270 -193.5z" />
    <glyph glyph-name="k" unicode="k" horiz-adv-x="1320" 
d="M426 197q0 -110 36.5 -149.5t143.5 -43.5v-4h-567v4q112 4 149 43t37 150v1087q0 116 -37 158t-149 49v4q207 62 383 131h4v-1429zM647 674l656 -670v-4h-261l-563 565l312 250q131 107 131 166q0 46 -46.5 70t-148.5 30v4h508v-4q-57 -1 -115 -37t-190 -143z" />
    <glyph glyph-name="l" unicode="l" horiz-adv-x="653" 
d="M426 197q0 -110 37 -148.5t151 -44.5v-4h-575v4q112 4 149 43t37 150v1087q0 116 -37 158t-149 49v4q207 62 383 131h4v-1429z" />
    <glyph glyph-name="m" unicode="m" horiz-adv-x="2134" 
d="M1919 197q0 -111 37.5 -150t150.5 -43v-4h-569v4q108 4 144 43t36 150v616q0 107 -53 163t-154 56q-78 0 -156.5 -38.5t-172.5 -114.5q6 -35 6 -74v-608q0 -111 36 -150t144 -43v-4h-561v4q108 4 144 43t36 150v616q0 107 -53 163t-156 56q-75 0 -152 -38t-169 -111v-686
q0 -111 36 -150t144 -43v-4h-569v4q113 4 150.5 43t37.5 150v579q0 101 -37 141t-151 60v4q238 63 385 117h4v-191q222 199 432 199q117 0 190.5 -52.5t98.5 -150.5q223 203 436 203q147 0 226 -79t79 -222v-608z" />
    <glyph glyph-name="n" unicode="n" horiz-adv-x="1423" 
d="M1208 197q0 -111 37.5 -150t149.5 -43v-4h-568v4q108 4 144.5 43t36.5 150v596q0 118 -56 178.5t-164 60.5q-78 0 -156.5 -37.5t-174.5 -111.5v-686q0 -111 36 -150t144 -43v-4h-569v4q113 4 150.5 43t37.5 150v579q0 101 -37 141t-151 60v4q238 63 385 117h4v-191
q229 199 442 199q149 0 229 -84t80 -238v-587z" />
    <glyph glyph-name="o" unicode="o" horiz-adv-x="1337" 
d="M668 -20q-255 0 -411.5 155t-156.5 408t156.5 408t411.5 155q256 0 412.5 -154.5t156.5 -408.5t-156.5 -408.5t-412.5 -154.5zM668 4q157 0 252.5 148t95.5 391q0 242 -95.5 390t-252.5 148q-155 0 -250.5 -148.5t-95.5 -389.5q0 -243 95.5 -391t250.5 -148z" />
    <glyph glyph-name="p" unicode="p" horiz-adv-x="1368" 
d="M799 1106q211 0 340 -144t129 -380q0 -270 -145.5 -436t-383.5 -166q-84 0 -166 22t-141 59v-233q0 -134 45.5 -181t181.5 -53v-4h-616v4q113 4 150.5 43t37.5 150v989q0 101 -37 141t-151 60v4q238 63 385 117h4v-197q66 93 166.5 149t200.5 56zM700 10q156 0 251.5 148
t95.5 391q0 221 -92 356t-240 135q-74 0 -151 -46.5t-132 -125.5v-671q39 -90 111.5 -138.5t156.5 -48.5z" />
    <glyph glyph-name="q" unicode="q" horiz-adv-x="1314" 
d="M1137 -213q0 -111 37.5 -150t150.5 -43v-4h-616v4q137 6 182 52.5t45 181.5v356q-65 -93 -165.5 -148.5t-199.5 -55.5q-212 0 -341.5 143.5t-129.5 378.5q0 271 145.5 437.5t383.5 166.5q155 0 284 -68q132 20 220 68h4v-1319zM653 43q73 0 150 47t133 125v672
q-39 91 -111 139.5t-157 48.5q-155 0 -250.5 -147.5t-95.5 -390.5q0 -221 91.5 -357.5t239.5 -136.5z" />
    <glyph glyph-name="r" unicode="r" horiz-adv-x="948" 
d="M535 911q-31 -54 -78 -176v-497q0 -134 45.5 -181t181.5 -53v-4h-616v4q113 4 150.5 43t37.5 150v579q0 101 -37 141t-151 60v4q231 65 376 117h5l8 -307q100 315 309 315q66 0 105.5 -33.5t39.5 -87.5q0 -38 -22 -74h-354zM639 1047l8 4q-4 0 -8 -4z" />
    <glyph glyph-name="s" unicode="s" horiz-adv-x="1112" 
d="M563 -20q-72 0 -135.5 17t-105.5 34.5t-62 17.5q-22 0 -40.5 -13t-41.5 -46h-4l-82 393l4 2q63 -176 188.5 -278.5t272.5 -102.5q138 0 211.5 58.5t73.5 162.5q0 38 -18 70.5t-44.5 55.5t-71 45.5t-83 36.5t-95.5 32q-53 17 -84 27.5t-79 29.5t-76.5 35.5t-62.5 42
t-52.5 53t-31.5 64t-13 78.5q0 141 109.5 226t291.5 85q77 0 168 -29.5t111 -29.5q24 0 41 10.5t35 38.5h4l88 -379l-4 -2q-54 163 -177 264.5t-263 101.5q-110 0 -177 -53.5t-67 -142.5q0 -39 18.5 -72.5t45.5 -57.5t73.5 -47.5t86 -38t99.5 -34.5q52 -17 83.5 -28
t79.5 -30.5t77 -36.5t63.5 -42.5t53.5 -52.5t32 -62.5t13 -75.5q0 -152 -120 -239.5t-333 -87.5z" />
    <glyph glyph-name="t" unicode="t" horiz-adv-x="837" 
d="M537 82q68 0 140.5 40.5t123.5 106.5l2 -2q-57 -112 -153.5 -179.5t-196.5 -67.5q-108 0 -169 57t-61 158v870h-186v4q140 50 223 108.5t160 157.5h4v-250h379l-4 -20h-375v-844q0 -76 24.5 -107.5t88.5 -31.5z" />
    <glyph glyph-name="u" unicode="u" horiz-adv-x="1384" 
d="M1157 254q0 -109 37 -148t149 -43v-4q-177 -28 -382 -79h-5v194q-211 -194 -434 -194q-142 0 -219.5 79t-77.5 222v495q0 101 -37.5 141t-150.5 60v4q247 69 385 117h4v-819q0 -113 52.5 -171.5t154.5 -58.5q75 0 151.5 38t171.5 112v577q0 101 -37 141t-151 60v4
q247 69 385 117h4v-844z" />
    <glyph glyph-name="v" unicode="v" horiz-adv-x="1288" 
d="M827 1085h461v-4q-82 -11 -128 -69.5t-126 -233.5l-372 -798h-39l-418 905q-30 61 -46 90t-39.5 56t-49.5 37t-66 13v4h594v-4q-100 -12 -141 -40.5t-41 -88.5q0 -36 33 -114l290 -639l236 514q67 146 67 211q0 81 -50.5 115t-164.5 42v4z" />
    <glyph glyph-name="w" unicode="w" horiz-adv-x="1916" 
d="M1415 1085h504v-4q-86 -12 -137.5 -72.5t-118.5 -230.5l-324 -798h-39l-342 843l-344 -843h-36l-371 905q-45 111 -85 150.5t-118 45.5v4h635v-4q-122 -12 -170.5 -40.5t-48.5 -92.5q0 -29 31 -110l235 -623l363 891h4l358 -895l195 506q61 144 61 207q0 83 -56.5 116
t-195.5 41v4z" />
    <glyph glyph-name="x" unicode="x" horiz-adv-x="1236" 
d="M985 223q95 -130 134.5 -171t88.5 -48v-4h-575v4q92 8 133 30t41 68q0 44 -64 129l-194 258l-154 -202q-80 -113 -80 -160q0 -57 44.5 -84t146.5 -39v-4h-479v4q91 9 154.5 59.5t170.5 198.5l183 246l-285 379q-87 116 -123.5 152t-85.5 42v4h569v-4q-88 -12 -126 -33.5
t-38 -64.5q0 -42 54 -119l190 -252l141 183q49 69 70 107.5t21 64.5q0 56 -45 81t-146 33v4h463v-4q-81 -7 -141.5 -58t-175.5 -204l-172 -225z" />
    <glyph glyph-name="y" unicode="y" horiz-adv-x="1290" 
d="M815 1085h475v-4q-81 -11 -127 -69t-127 -234l-475 -1022q-83 -186 -293 -186q-61 0 -99 29t-38 75q0 34 12 58l383 2q12 21 25 47l82 182l-426 922q-53 114 -89.5 152t-111.5 44v4h574v-4q-90 -8 -128 -35t-38 -90q0 -40 37 -118l290 -639l236 516q67 140 67 209
q0 80 -53.5 114.5t-175.5 42.5v4z" />
    <glyph glyph-name="z" unicode="z" horiz-adv-x="1181" 
d="M709 20q152 0 240 84.5t132 272.5h4l-49 -387q-177 10 -559 10h-399l-2 4l762 1061h-342q-144 0 -236.5 -86.5t-155.5 -280.5l-4 2l97 396q169 -11 530 -11h356l2 -4l-761 -1061h385z" />
    <glyph glyph-name="braceleft" unicode="{" horiz-adv-x="704" 
d="M362 -125q0 -86 62 -153.5t227 -161.5l-2 -4q-183 54 -287 110t-142 111t-38 127q0 73 56 227q61 169 61 252q0 47 -10.5 82.5t-36 65.5t-73 45.5t-116.5 15.5h-12v20h12q132 0 184 56t52 155q0 83 -61 252q-56 154 -56 228q0 73 38 128t142.5 111t286.5 109l2 -4
q-165 -93 -227 -161t-62 -155q0 -68 54 -217q63 -175 63 -262q0 -103 -67.5 -168.5t-231.5 -81.5q163 -14 231 -79t68 -169q0 -87 -63 -262q-54 -149 -54 -217z" />
    <glyph glyph-name="bar" unicode="|" horiz-adv-x="532" 
d="M254 -414v2026l25 4v-2026z" />
    <glyph glyph-name="braceright" unicode="}" horiz-adv-x="704" 
d="M643 612h12v-20h-12q-134 0 -185.5 -55t-51.5 -154q0 -83 61 -252q55 -152 55 -227q0 -72 -38 -127t-142 -111t-287 -110l-2 4q166 94 228.5 161.5t62.5 153.5q0 71 -53 217q-64 178 -64 262q0 104 67 169t230 79q-163 16 -230 81t-67 169q0 84 64 262q53 146 53 217
q0 86 -62.5 154t-228.5 162l2 4q182 -53 286.5 -109t142.5 -111t38 -128q0 -76 -55 -228q-61 -169 -61 -252q0 -99 51.5 -155t185.5 -56z" />
    <glyph glyph-name="asciitilde" unicode="~" horiz-adv-x="970" 
d="M670 469q-54 0 -105 20.5t-116 57.5q-44 24 -68.5 36t-62 23.5t-70.5 11.5q-131 0 -182 -133l-5 2q13 107 81 186t161 79q51 0 99.5 -19.5t113.5 -56.5q126 -74 209 -74q131 0 182 133l4 -2q-14 -108 -81 -186t-160 -78z" />
    <glyph glyph-name="uni00A0" unicode="&#xa0;" horiz-adv-x="524" 
 />
    <glyph glyph-name="exclamdown" unicode="&#xa1;" horiz-adv-x="608" 
d="M303 1022q-65 0 -106 40t-41 103t41.5 104.5t105.5 41.5q66 0 108 -41.5t42 -104.5t-42 -103t-108 -40zM303 -225q-56 0 -88.5 34.5t-32.5 92.5q0 204 54 479q59 310 65 477h4q8 -174 66 -477q53 -254 53 -479q0 -58 -31.5 -92.5t-89.5 -34.5z" />
    <glyph glyph-name="cent" unicode="&#xa2;" horiz-adv-x="1226" 
d="M1112 483q-54 -119 -164 -198.5t-243 -96.5v-206h-25v204q-12 -2 -39 -2q-235 0 -378.5 152.5t-143.5 404.5q0 256 154.5 413t406.5 157v200h25v-200q180 -6 287.5 -105.5t107.5 -259.5q0 -62 -32.5 -100.5t-86.5 -38.5q-55 0 -82 24v388q-76 64 -194 67v-999
q10 -2 32 -2q106 0 209 54.5t162 145.5zM319 801q0 -213 98.5 -351.5t262.5 -160.5v997q-163 -3 -262 -136.5t-99 -348.5z" />
    <glyph glyph-name="sterling" unicode="&#xa3;" horiz-adv-x="1415" 
d="M1290 522h4l-77 -532q-215 10 -730 10h-391l-2 6q80 83 135 166l-4 4h6q115 185 115 424q0 50 -8 156h-227l4 20h219q0 19 -2 27q-15 146 -15 250q0 207 141.5 335t368.5 128q189 0 303.5 -100.5t114.5 -264.5q0 -62 -32.5 -100.5t-86.5 -38.5q-58 0 -82 24v387
q-80 68 -210 68q-76 0 -132.5 -19.5t-91 -52.5t-56 -83.5t-29 -104.5t-7.5 -123q0 -65 23 -203q16 -86 20 -129h520l-4 -20h-514q6 -47 6 -90q0 -346 -315 -490h577q119 0 193.5 14.5t128.5 55.5t84 105t53 171z" />
    <glyph glyph-name="currency" unicode="&#xa4;" horiz-adv-x="1419" 
d="M1268 213l-17 -16l-229 227q-113 -119 -315 -119q-197 0 -310 113l-227 -225l-16 16l225 227q-100 115 -100 312q0 199 102 313l-225 227l16 17l225 -226q113 113 310 113q198 0 313 -115l229 228l17 -17l-230 -231q101 -113 101 -309q0 -190 -99 -306zM707 330
q190 0 295.5 110.5t105.5 307.5q0 198 -105.5 308.5t-295.5 110.5q-189 0 -294.5 -110.5t-105.5 -308.5q0 -197 105.5 -307.5t294.5 -110.5z" />
    <glyph glyph-name="yen" unicode="&#xa5;" horiz-adv-x="1617" 
d="M936 1495h623v-4q-53 -6 -94.5 -22.5t-90 -54.5t-99.5 -108t-110 -176l-262 -468v-13h389l-4 -20h-385v-232h389l-4 -20h-385v-137q0 -136 50.5 -183t205.5 -53v-4h-727v4q155 6 206.5 53.5t51.5 182.5v137h-381l4 20h377v232h-381l4 20h367l-348 600q-76 135 -131 184
t-138 58v4h717v-4q-130 -10 -181.5 -39.5t-51.5 -89.5q0 -40 67 -160l277 -510l237 426q36 65 51 94.5t29.5 66.5t14.5 60q0 75 -65 109t-222 43v4z" />
    <glyph glyph-name="brokenbar" unicode="&#xa6;" horiz-adv-x="532" 
d="M254 817v795l25 4v-795zM254 -414v795l25 4v-795z" />
    <glyph glyph-name="section" unicode="&#xa7;" horiz-adv-x="899" 
d="M334 -436q-59 0 -98 31t-39 81q0 26 12 62h348q64 70 64 174q0 46 -15 102t-33.5 102t-57.5 116t-63 110t-73 119q-58 92 -82 130.5t-70 119.5t-66 130t-37.5 112t-17.5 116q0 122 65 253t173 220.5t219 89.5q61 0 100 -31t39 -81q0 -32 -14 -60h-346q-63 -71 -63 -176
q0 -57 18.5 -122.5t57.5 -142.5t73.5 -135t91.5 -149q58 -92 82 -130.5t70 -119.5t66 -130t37.5 -112t17.5 -116q0 -122 -65 -253t-173.5 -220.5t-220.5 -89.5zM639 -207q129 178 129 334q0 80 -43.5 191t-94.5 199t-130 208q-47 73 -71 111.5t-61.5 102t-55 102t-38.5 93
t-26 95t-3.5 86.5t15.5 88q-129 -180 -129 -334q0 -117 72.5 -266t193.5 -332q53 -80 83 -128t68.5 -116t57 -116t34 -105t14.5 -109t-15 -104z" />
    <glyph glyph-name="dieresis" unicode="&#xa8;" horiz-adv-x="1128" 
d="M360 1366q-51 0 -83.5 32.5t-32.5 82.5t32.5 82t83.5 32q50 0 83.5 -32.5t33.5 -81.5t-33.5 -82t-83.5 -33zM770 1366q-51 0 -84 32.5t-33 82.5t33 82t84 32q50 0 83.5 -32.5t33.5 -81.5t-33.5 -82t-83.5 -33z" />
    <glyph glyph-name="copyright" unicode="&#xa9;" horiz-adv-x="2072" 
d="M1036 -143q-204 0 -374.5 63.5t-289.5 178.5t-185 280t-66 362t66 361.5t185 279t289.5 178.5t374.5 64q203 0 374 -66t289.5 -183.5t184.5 -284t66 -363.5q0 -262 -113.5 -459.5t-321 -304t-479.5 -106.5zM1036 -119q264 0 464.5 103.5t310.5 296t110 446.5
q0 191 -64 353t-178.5 276t-280 178.5t-362.5 64.5t-362 -62t-280 -173.5t-179.5 -271.5t-64.5 -351q0 -255 110.5 -450.5t312 -302.5t463.5 -107zM1040 150q-243 0 -391.5 161.5t-148.5 425.5q0 267 157.5 431.5t415.5 164.5q57 0 110.5 -14.5t92 -28.5t59.5 -14
q24 0 38.5 10t29.5 39h4l98 -410l-4 -2q-142 396 -432 396q-174 0 -281.5 -138t-107.5 -362q0 -243 123.5 -394t324.5 -151q115 0 228 55.5t174 143.5l4 -2q-62 -138 -198.5 -224.5t-295.5 -86.5z" />
    <glyph glyph-name="ordfeminine" unicode="&#xaa;" horiz-adv-x="1058" 
d="M975 850l4 -2q-30 -97 -78 -149t-110 -52q-59 0 -94 28t-38 79v55q-152 -162 -323 -162q-101 0 -162 48t-61 128q0 62 53 110t176 93l317 119v143q0 92 -43 142.5t-120 50.5q-87 0 -166 -58v-270q-41 -25 -82 -25q-40 0 -64 24t-24 65q0 84 66.5 155t160.5 107.5
t186 36.5q121 0 188.5 -65.5t67.5 -182.5v-480q0 -32 8 -45.5t31 -13.5q57 0 107 121zM303 1399l6 6zM426 713q99 0 233 118v291l-149 -55q-102 -40 -157.5 -98t-55.5 -127q0 -58 35.5 -93.5t93.5 -35.5z" />
    <glyph glyph-name="guillemotleft" unicode="&#xab;" horiz-adv-x="888" 
d="M459 1008l-195 -408l195 -407l-4 -3l-346 390v38l346 392zM760 1008l-195 -408l195 -407l-4 -3l-344 390v38l344 392z" />
    <glyph glyph-name="logicalnot" unicode="&#xac;" horiz-adv-x="970" 
d="M106 739h760v-313h-24v293h-736v20z" />
    <glyph glyph-name="uni00AD" unicode="&#xad;" horiz-adv-x="1009" 
d="M158 592l4 20h690l-4 -20h-690z" />
    <glyph glyph-name="registered" unicode="&#xae;" horiz-adv-x="1257" 
d="M629 1632q230 0 371 -133.5t141 -353.5t-141 -354t-371 -134t-371 134t-141 354t141 353.5t371 133.5zM629 676q221 0 355 128.5t134 340.5t-134 340.5t-355 128.5t-355.5 -128.5t-134.5 -340.5t134.5 -340.5t355.5 -128.5zM729 1145q97 -160 138 -207.5t85 -52.5v-4h-98
q-41 0 -70.5 17.5t-67.5 69t-102 162.5h-82v-153q0 -50 20 -68.5t71 -23.5v-4h-275v4q45 5 61.5 21t16.5 57v376q0 39 -17 56t-61 20v4h301q94 0 151.5 -38t57.5 -99q0 -49 -34 -84t-95 -53zM532 1147h78q59 0 95 35.5t36 93.5t-31.5 92.5t-84.5 34.5h-93v-256z" />
    <glyph glyph-name="macron" unicode="&#xaf;" horiz-adv-x="1081" 
d="M195 1448l4 20h686l-4 -20h-686z" />
    <glyph glyph-name="degree" unicode="&#xb0;" horiz-adv-x="839" 
d="M420 1022q-141 0 -228.5 83.5t-87.5 221.5t87.5 221.5t228.5 83.5t227 -83.5t86 -221.5t-86 -221.5t-227 -83.5zM420 1047q129 0 207 76.5t78 203.5t-78 204t-207 77t-208 -77t-79 -204t79 -203.5t208 -76.5z" />
    <glyph glyph-name="plusminus" unicode="&#xb1;" horiz-adv-x="970" 
d="M498 748h368v-21h-368v-319h-25v319h-369v21h369v317h25v-317zM104 266v21h762v-21h-762z" />
    <glyph glyph-name="uni00B2" unicode="&#xb2;" horiz-adv-x="839" 
d="M754 922h4l-39 -273q-120 6 -430 6h-238l-2 4q79 81 178 164q55 47 89.5 79t76.5 76.5t66 81t40.5 80.5t16.5 87q0 69 -44 110t-116 41q-77 0 -144 -39t-106 -106l-4 2q47 122 141.5 196t200.5 74q107 0 172.5 -57.5t65.5 -149.5q0 -53 -22.5 -104.5t-55.5 -93
t-86.5 -87.5t-99.5 -78t-111 -73q-26 -17 -96 -76h281q133 0 186 27.5t76 108.5z" />
    <glyph glyph-name="uni00B3" unicode="&#xb3;" horiz-adv-x="747" 
d="M371 1174q133 -23 208.5 -87t75.5 -153q0 -124 -144.5 -200t-406.5 -91v4q181 19 287.5 82.5t106.5 163.5q0 70 -63.5 108t-190.5 54l-2 4l280 305h-215q-97 0 -144.5 -25.5t-80.5 -99.5l-4 2l74 272h2q77 -18 395 -18h113l2 -4z" />
    <glyph glyph-name="acute" unicode="&#xb4;" horiz-adv-x="890" 
d="M260 1229l-4 4q144 265 229 350q36 31 72 31t64 -27t28 -63q0 -41 -35 -76q-83 -79 -354 -219z" />
    <glyph glyph-name="uni00B5" unicode="&#xb5;" horiz-adv-x="1486" 
d="M1208 254q0 -109 37.5 -148t149.5 -43v-4q-189 -30 -383 -79h-4v194q-201 -194 -402 -194q-177 0 -241 143q5 -34 13.5 -92.5t12.5 -87.5t10 -73t9 -69t6.5 -56t4.5 -53.5t1 -41.5q0 -34 -23.5 -57t-58.5 -23q-34 0 -57 23t-23 57q0 62 14 657v469q0 101 -37 141t-149 60
v4q251 70 383 117h4v-819q0 -113 53 -171.5t156 -58.5q75 0 152.5 38t171.5 112v577q0 101 -37.5 141t-151.5 60v4q247 69 385 117h4v-844z" />
    <glyph glyph-name="paragraph" unicode="&#xb6;" horiz-adv-x="1284" 
d="M1190 1495v-4q-134 -6 -178.5 -48t-44.5 -161v-1692l-86 -14v1899h-179v-1885l-86 -14v1092h-6q-244 0 -393 118t-149 310q0 180 123 289.5t325 109.5h674z" />
    <glyph glyph-name="periodcentered" unicode="&#xb7;" horiz-adv-x="585" 
d="M293 453q-63 0 -105.5 41t-42.5 102q0 63 42.5 104t105.5 41q64 0 105.5 -41t41.5 -104q0 -62 -41.5 -102.5t-105.5 -40.5z" />
    <glyph glyph-name="cedilla" unicode="&#xb8;" horiz-adv-x="870" 
d="M315 -430v4q61 9 96 38.5t35 70.5q0 40 -36 86t-103 88l103 143h26l-45 -61q191 -107 191 -215q0 -69 -70.5 -110t-196.5 -44z" />
    <glyph glyph-name="uni00B9" unicode="&#xb9;" horiz-adv-x="575" 
d="M379 791q0 -74 27 -101t110 -31v-4h-432v4q82 4 109.5 31.5t27.5 100.5v475q0 50 -12.5 73t-48.5 23q-25 0 -86 -21l-2 5q168 81 305 170h2v-725z" />
    <glyph glyph-name="ordmasculine" unicode="&#xba;" horiz-adv-x="1099" 
d="M549 647q-198 0 -320.5 119.5t-122.5 314.5t122.5 315t320.5 120q199 0 320.5 -120t121.5 -315t-121.5 -314.5t-320.5 -119.5zM549 666q114 0 184 113.5t70 301.5q0 186 -70 301t-184 115t-184 -114.5t-70 -301.5t70 -301t184 -114z" />
    <glyph glyph-name="guillemotright" unicode="&#xbb;" horiz-adv-x="888" 
d="M479 618v-38l-346 -390l-4 3l195 407l-195 408l4 2zM436 1010l344 -392v-38l-344 -390l-4 3l193 407l-193 408z" />
    <glyph glyph-name="onequarter" unicode="&#xbc;" horiz-adv-x="1675" 
d="M1413 1540l19 -14l-1289 -1571l-18 14zM242 1362q-24 0 -86 -21l-2 5q168 81 305 170h2v-725q0 -74 27 -101t110 -31v-4h-432v4q82 4 109.5 31.5t27.5 100.5v475q0 50 -12.5 73t-48.5 23zM1595 233h-186v-108q0 -66 24.5 -91.5t96.5 -29.5v-4h-422v4q87 6 115 35t28 108
v86h-397l-2 3l444 604h113v-588q99 0 188 6h2zM889 252h362v493z" />
    <glyph glyph-name="onehalf" unicode="&#xbd;" horiz-adv-x="1685" 
d="M1409 1540l18 -14l-1288 -1571l-18 14zM238 1362q-28 0 -86 -21l-2 5q169 82 303 170h4v-725q0 -74 27 -101t110 -31v-4h-432v4q82 4 109.5 31.5t27.5 100.5v475q0 50 -12.5 73t-48.5 23zM1581 268h4l-39 -274q-120 6 -430 6h-235l-2 4q81 84 176 166q69 58 111.5 98.5
t88 93.5t67 104.5t21.5 104.5q0 69 -43.5 111.5t-115.5 42.5q-76 0 -143.5 -40t-104.5 -105l-4 2q45 120 140 194t200 74q107 0 172 -57t65 -150q0 -65 -31.5 -127t-92.5 -119.5t-117.5 -99t-139.5 -94.5q-39 -28 -92 -72h285q132 0 185 27.5t75 109.5z" />
    <glyph glyph-name="threequarters" unicode="&#xbe;" horiz-adv-x="1763" 
d="M1501 1540l19 -14l-1289 -1571l-18 14zM152 647q181 19 287 82.5t106 163.5q0 70 -63.5 108t-190.5 54l-2 4l280 305h-215q-97 0 -144.5 -25.5t-80.5 -99.5l-4 2l74 272h2q76 -18 395 -18h113l2 -4l-293 -317q133 -23 208.5 -87t75.5 -153q0 -124 -144 -200t-406 -91v4z
M1683 233h-186v-108q0 -66 24.5 -91.5t94.5 -29.5v-4h-420v4q86 6 114.5 35t28.5 108v86h-397l-2 3l444 604h113v-588q97 0 189 6h2zM975 252h364v493z" />
    <glyph glyph-name="questiondown" unicode="&#xbf;" horiz-adv-x="903" 
d="M578 1022q-65 0 -106.5 40t-41.5 103t42 104.5t106 41.5t105.5 -41.5t41.5 -104.5t-41 -103t-106 -40zM782 -51q15 -34 15 -62q0 -50 -39.5 -81t-100.5 -31q-105 0 -205.5 46t-173.5 119.5t-118 168t-45 188.5q0 153 118 241t334 97q22 121 25 223h4q30 -196 90 -391
l-4 -4q-252 -6 -384 -70.5t-132 -179.5q0 -142 151 -264h465z" />
    <glyph glyph-name="Agrave" unicode="&#xc0;" horiz-adv-x="1679" 
d="M598 1712q-27 12 -43 35.5t-16 50.5q0 37 26.5 64.5t65.5 27.5q27 0 47 -10q49 -24 134.5 -93t191.5 -179l-3 -4q-336 76 -403 108zM1448 201q27 -63 45 -94.5t44.5 -57t59 -34t86.5 -11.5v-4h-704v4q136 12 190 40.5t54 92.5q0 35 -31 109l-121 293h-665l-70 -170
q-60 -152 -60 -207q0 -83 61.5 -116.5t211.5 -41.5v-4h-545v4q102 10 156 70t125 233l426 1028l-31 76q92 41 174 105h37zM414 559h649l-326 784z" />
    <glyph glyph-name="Aacute" unicode="&#xc1;" horiz-adv-x="1679" 
d="M1051 1712q-66 -31 -404 -108l-2 4q106 110 191.5 179t134.5 93q20 10 47 10q39 0 65.5 -27.5t26.5 -64.5q0 -27 -16 -50.5t-43 -35.5zM1448 201q27 -63 45 -94.5t44.5 -57t59 -34t86.5 -11.5v-4h-704v4q136 12 190 40.5t54 92.5q0 35 -31 109l-121 293h-665l-70 -170
q-60 -152 -60 -207q0 -83 61.5 -116.5t211.5 -41.5v-4h-545v4q102 10 156 70t125 233l426 1028l-31 76q92 41 174 105h37zM414 559h649l-326 784z" />
    <glyph glyph-name="Acircumflex" unicode="&#xc2;" horiz-adv-x="1679" 
d="M834 1739l-308 -135l-2 4l305 282h5l307 -282l-2 -4zM1448 201q27 -63 45 -94.5t44.5 -57t59 -34t86.5 -11.5v-4h-704v4q136 12 190 40.5t54 92.5q0 35 -31 109l-121 293h-665l-70 -170q-60 -152 -60 -207q0 -83 61.5 -116.5t211.5 -41.5v-4h-545v4q102 10 156 70
t125 233l426 1028l-31 76q92 41 174 105h37zM414 559h649l-326 784z" />
    <glyph glyph-name="Atilde" unicode="&#xc3;" horiz-adv-x="1679" 
d="M598 1757q-122 0 -170 -133l-4 2q12 106 78 185t153 79q49 0 96 -19t111 -56q61 -36 107.5 -55t95.5 -19q119 0 170 133l4 -2q-14 -108 -78 -186t-153 -78q-36 0 -77 12.5t-67 25.5t-69 37q-62 37 -106.5 55.5t-90.5 18.5zM1448 201q27 -63 45 -94.5t44.5 -57t59 -34
t86.5 -11.5v-4h-704v4q136 12 190 40.5t54 92.5q0 35 -31 109l-121 293h-665l-70 -170q-60 -152 -60 -207q0 -83 61.5 -116.5t211.5 -41.5v-4h-545v4q102 10 156 70t125 233l426 1028l-31 76q92 41 174 105h37zM414 559h649l-326 784z" />
    <glyph glyph-name="Adieresis" unicode="&#xc4;" horiz-adv-x="1679" 
d="M627 1659q-50 0 -83.5 33t-33.5 84q0 49 33.5 81.5t83.5 32.5q51 0 83.5 -32t32.5 -82q0 -51 -32.5 -84t-83.5 -33zM1036 1659q-50 0 -83 33t-33 84q0 49 33 81.5t83 32.5q51 0 84 -32t33 -82q0 -51 -33 -84t-84 -33zM1448 201q27 -63 45 -94.5t44.5 -57t59 -34
t86.5 -11.5v-4h-704v4q136 12 190 40.5t54 92.5q0 35 -31 109l-121 293h-665l-70 -170q-60 -152 -60 -207q0 -83 61.5 -116.5t211.5 -41.5v-4h-545v4q102 10 156 70t125 233l426 1028l-31 76q92 41 174 105h37zM414 559h649l-326 784z" />
    <glyph glyph-name="Aring" unicode="&#xc5;" horiz-adv-x="1679" 
d="M831 1573q-97 0 -156 55t-59 146t59 145.5t156 54.5q98 0 158 -54.5t60 -145.5t-60 -146t-158 -55zM831 1950q-84 0 -135 -48.5t-51 -127.5t51 -128t135 -49t136.5 49.5t52.5 127.5t-52 127t-137 49zM1448 201q27 -63 45 -94.5t44.5 -57t59 -34t86.5 -11.5v-4h-704v4
q136 12 190 40.5t54 92.5q0 35 -31 109l-121 293h-665l-70 -170q-60 -152 -60 -207q0 -83 61.5 -116.5t211.5 -41.5v-4h-545v4q102 10 156 70t125 233l426 1028l-31 76q92 41 174 105h37zM414 559h649l-326 784z" />
    <glyph glyph-name="AE" unicode="&#xc6;" horiz-adv-x="2439" 
d="M2357 537l4 -2l-188 -545q-136 10 -410 10h-868v4q133 6 178 48t45 161v545h-573l-185 -398q-73 -162 -73 -219q0 -70 59.5 -100.5t202.5 -36.5v-4h-553v4q106 11 172.5 74.5t142.5 228.5l551 1188h850q263 0 395 10l168 -524l-4 -2q-35 102 -68 174t-74.5 129.5t-87 93
t-108 58.5t-135 32t-170.5 9h-297v-697h199q76 0 123.5 14.5t82 55.5t53.5 106t34 174h4q-6 -220 -6 -370t6 -371h-4q-15 115 -34 183.5t-53.5 112.5t-82 59.5t-123.5 15.5h-199v-559q0 -108 29.5 -143.5t120.5 -35.5h233q141 0 233.5 21.5t167.5 82.5t129 156.5t113 256.5z
M555 778h563v504q0 108 -48.5 148t-190.5 47z" />
    <glyph glyph-name="Ccedilla" unicode="&#xc7;" horiz-adv-x="1544" 
d="M819 -20h-2l-29 -41q189 -108 189 -215q0 -69 -70 -110t-196 -44v4q63 9 98 38t35 71q0 40 -36.5 85.5t-102.5 88.5l86 123q-303 11 -485.5 218t-182.5 541q0 230 91 406.5t257.5 273.5t384.5 97q68 0 138.5 -18t123 -36t78.5 -18q31 0 48.5 12t39.5 49h4l129 -530l-4 -2
q-183 518 -563 518q-232 0 -373 -182.5t-141 -481.5q0 -158 42.5 -290.5t118.5 -225.5t185.5 -144.5t239.5 -51.5q154 0 300.5 73t227.5 195l4 -2q-78 -179 -253.5 -290t-381.5 -111z" />
    <glyph glyph-name="Egrave" unicode="&#xc8;" horiz-adv-x="1634" 
d="M551 1712q-28 12 -43.5 35.5t-15.5 50.5q0 37 26.5 64.5t65.5 27.5q25 0 45 -10q49 -24 135 -93.5t190 -178.5l-2 -4q-340 78 -401 108zM1552 537l4 -2l-188 -545q-139 10 -410 10h-868v4q133 6 178 48t45 161v1069q0 119 -45 161t-178 48v4h817q263 0 396 10l167 -524
l-4 -2q-35 102 -68 174t-74.5 129.5t-87 93t-108 58.5t-135 32t-170.5 9h-297v-697h199q76 0 123 14.5t81.5 55.5t54 106t34.5 174h4q-6 -221 -6 -370q0 -150 6 -371h-4q-15 115 -34.5 184t-54 112.5t-81.5 59t-123 15.5h-199v-559q0 -107 29.5 -143t118.5 -36h235
q112 0 192 14.5t146 47.5t118 95t96 147t91 213z" />
    <glyph glyph-name="Eacute" unicode="&#xc9;" horiz-adv-x="1634" 
d="M1001 1712q-67 -32 -403 -108l-2 4q106 110 192.5 179.5t135.5 92.5q18 10 45 10q39 0 65.5 -27.5t26.5 -64.5q0 -27 -16 -50.5t-44 -35.5zM1552 537l4 -2l-188 -545q-139 10 -410 10h-868v4q133 6 178 48t45 161v1069q0 119 -45 161t-178 48v4h817q263 0 396 10
l167 -524l-4 -2q-35 102 -68 174t-74.5 129.5t-87 93t-108 58.5t-135 32t-170.5 9h-297v-697h199q76 0 123 14.5t81.5 55.5t54 106t34.5 174h4q-6 -221 -6 -370q0 -150 6 -371h-4q-15 115 -34.5 184t-54 112.5t-81.5 59t-123 15.5h-199v-559q0 -107 29.5 -143t118.5 -36h235
q112 0 192 14.5t146 47.5t118 95t96 147t91 213z" />
    <glyph glyph-name="Ecircumflex" unicode="&#xca;" horiz-adv-x="1634" 
d="M784 1739l-305 -135l-2 4l305 282h4l306 -282l-2 -4zM1552 537l4 -2l-188 -545q-139 10 -410 10h-868v4q133 6 178 48t45 161v1069q0 119 -45 161t-178 48v4h817q263 0 396 10l167 -524l-4 -2q-35 102 -68 174t-74.5 129.5t-87 93t-108 58.5t-135 32t-170.5 9h-297v-697
h199q76 0 123 14.5t81.5 55.5t54 106t34.5 174h4q-6 -221 -6 -370q0 -150 6 -371h-4q-15 115 -34.5 184t-54 112.5t-81.5 59t-123 15.5h-199v-559q0 -107 29.5 -143t118.5 -36h235q112 0 192 14.5t146 47.5t118 95t96 147t91 213z" />
    <glyph glyph-name="Edieresis" unicode="&#xcb;" horiz-adv-x="1634" 
d="M580 1659q-51 0 -84 33t-33 84q0 50 33 82t84 32t83.5 -32t32.5 -82q0 -51 -32.5 -84t-83.5 -33zM989 1659q-51 0 -84 33t-33 84q0 50 33 82t84 32t84 -32t33 -82q0 -51 -33 -84t-84 -33zM1552 537l4 -2l-188 -545q-139 10 -410 10h-868v4q133 6 178 48t45 161v1069
q0 119 -45 161t-178 48v4h817q263 0 396 10l167 -524l-4 -2q-35 102 -68 174t-74.5 129.5t-87 93t-108 58.5t-135 32t-170.5 9h-297v-697h199q76 0 123 14.5t81.5 55.5t54 106t34.5 174h4q-6 -221 -6 -370q0 -150 6 -371h-4q-15 115 -34.5 184t-54 112.5t-81.5 59t-123 15.5
h-199v-559q0 -107 29.5 -143t118.5 -36h235q112 0 192 14.5t146 47.5t118 95t96 147t91 213z" />
    <glyph glyph-name="Igrave" unicode="&#xcc;" horiz-adv-x="839" 
d="M186 1712q-28 12 -43.5 35.5t-15.5 50.5q0 37 26.5 64.5t65.5 27.5q28 0 45 -10q49 -23 135.5 -92.5t192.5 -179.5l-2 -4q-338 77 -404 108zM750 1491q-133 -6 -178.5 -48t-45.5 -161v-1069q0 -119 45.5 -161t178.5 -48v-4h-660v4q133 6 178 48t45 161v1069
q0 119 -45 161t-178 48v4h660v-4z" />
    <glyph glyph-name="Iacute" unicode="&#xcd;" horiz-adv-x="839" 
d="M637 1712q-61 -30 -401 -108l-3 4q104 109 190 178.5t136 93.5q20 10 45 10q39 0 65.5 -27.5t26.5 -64.5q0 -27 -15.5 -50.5t-43.5 -35.5zM750 1491q-133 -6 -178.5 -48t-45.5 -161v-1069q0 -119 45.5 -161t178.5 -48v-4h-660v4q133 6 178 48t45 161v1069q0 119 -45 161
t-178 48v4h660v-4z" />
    <glyph glyph-name="Icircumflex" unicode="&#xce;" horiz-adv-x="839" 
d="M420 1739l-305 -135l-2 4l305 282h4l305 -282l-2 -4zM750 1491q-133 -6 -178.5 -48t-45.5 -161v-1069q0 -119 45.5 -161t178.5 -48v-4h-660v4q133 6 178 48t45 161v1069q0 119 -45 161t-178 48v4h660v-4z" />
    <glyph glyph-name="Idieresis" unicode="&#xcf;" horiz-adv-x="839" 
d="M215 1659q-51 0 -84 33t-33 84q0 50 33 82t84 32t84 -32t33 -82q0 -51 -33 -84t-84 -33zM625 1659q-51 0 -84 33t-33 84q0 50 33 82t84 32t83.5 -32t32.5 -82q0 -51 -32.5 -84t-83.5 -33zM750 1491q-133 -6 -178.5 -48t-45.5 -161v-1069q0 -119 45.5 -161t178.5 -48v-4
h-660v4q133 6 178 48t45 161v1069q0 119 -45 161t-178 48v4h660v-4z" />
    <glyph glyph-name="Eth" unicode="&#xd0;" horiz-adv-x="1794" 
d="M854 1495q183 0 336 -54t260 -151t166 -236t59 -306q0 -222 -101.5 -392t-288.5 -263t-431 -93h-758v4q133 6 178 48t45 161v545h-223l4 20h219v504q0 119 -45 161t-178 48v4h758zM811 20q140 0 257 52.5t199 147.5t127.5 230.5t45.5 297.5q0 329 -169.5 528t-453.5 199
h-285v-697h426l-4 -20h-422v-559q0 -107 23.5 -143t93.5 -36h162z" />
    <glyph glyph-name="Ntilde" unicode="&#xd1;" horiz-adv-x="1722" 
d="M629 1757q-122 0 -170 -133l-4 2q12 106 78 185t151 79q50 0 98 -19.5t109 -55.5q64 -37 110 -55.5t95 -18.5q120 0 168 133l4 -2q-13 -107 -77 -185.5t-153 -78.5q-36 0 -77 12.5t-68.5 25.5t-69.5 37q-58 36 -103 55t-91 19zM1075 1495h574v-4q-133 -6 -178.5 -48
t-45.5 -161v-1302h-4l-1083 1306v-1032q0 -145 64.5 -194.5t261.5 -55.5v-4h-574v4q133 6 178 48t45 161v1102q0 99 -45 134.5t-178 41.5v4h363l948 -1176v922q0 98 -27.5 148.5t-96 74t-202.5 27.5v4z" />
    <glyph glyph-name="Ograve" unicode="&#xd2;" horiz-adv-x="1761" 
d="M1051 1604q-338 77 -404 108q-28 12 -43.5 35.5t-15.5 50.5q0 37 26.5 64.5t65.5 27.5q27 0 47 -10q49 -24 134.5 -93t191.5 -179zM881 -20q-226 0 -399 95.5t-267 270t-94 402.5t94 402.5t267 270t399 95.5q342 0 550.5 -211t208.5 -557t-208.5 -557t-550.5 -211zM881 4
q236 0 380 204.5t144 539.5t-144 539t-380 204t-380.5 -204.5t-144.5 -538.5q0 -335 144.5 -539.5t380.5 -204.5z" />
    <glyph glyph-name="Oacute" unicode="&#xd3;" horiz-adv-x="1761" 
d="M696 1604l-2 4q104 109 190 178.5t136 93.5q20 10 45 10q40 0 67 -27t27 -65q0 -27 -16 -50.5t-45 -35.5q-61 -30 -402 -108zM881 -20q-226 0 -399 95.5t-267 270t-94 402.5t94 402.5t267 270t399 95.5q342 0 550.5 -211t208.5 -557t-208.5 -557t-550.5 -211zM881 4
q236 0 380 204.5t144 539.5t-144 539t-380 204t-380.5 -204.5t-144.5 -538.5q0 -335 144.5 -539.5t380.5 -204.5z" />
    <glyph glyph-name="Ocircumflex" unicode="&#xd4;" horiz-adv-x="1761" 
d="M881 1739l-306 -135l-2 4l306 282h4l305 -282l-2 -4zM881 1516q342 0 550.5 -211t208.5 -557t-208.5 -557t-550.5 -211q-226 0 -399 95.5t-267 270t-94 402.5t94 402.5t267 270t399 95.5zM881 4q236 0 380 204.5t144 539.5t-144 539t-380 204t-380.5 -204.5
t-144.5 -538.5q0 -335 144.5 -539.5t380.5 -204.5z" />
    <glyph glyph-name="Otilde" unicode="&#xd5;" horiz-adv-x="1761" 
d="M1057 1608q-36 0 -77 12.5t-68.5 25.5t-69.5 37q-120 74 -195 74q-122 0 -170 -133l-4 2q12 106 78 185t151 79q50 0 98 -19.5t109 -55.5q64 -37 110 -55.5t95 -18.5q120 0 168 133l4 -2q-13 -108 -76.5 -186t-152.5 -78zM881 -20q-226 0 -399 95.5t-267 270t-94 402.5
t94 402.5t267 270t399 95.5q342 0 550.5 -211t208.5 -557t-208.5 -557t-550.5 -211zM881 4q236 0 380 204.5t144 539.5t-144 539t-380 204t-380.5 -204.5t-144.5 -538.5q0 -335 144.5 -539.5t380.5 -204.5z" />
    <glyph glyph-name="Odieresis" unicode="&#xd6;" horiz-adv-x="1761" 
d="M676 1659q-51 0 -84 33t-33 84q0 50 33 82t84 32t84 -32t33 -82q0 -51 -33 -84t-84 -33zM1085 1659q-51 0 -83.5 33t-32.5 84q0 50 32.5 82t83.5 32t84 -32t33 -82q0 -51 -33 -84t-84 -33zM881 -20q-226 0 -399 95.5t-267 270t-94 402.5t94 402.5t267 270t399 95.5
q342 0 550.5 -211t208.5 -557t-208.5 -557t-550.5 -211zM881 4q236 0 380 204.5t144 539.5t-144 539t-380 204t-380.5 -204.5t-144.5 -538.5q0 -335 144.5 -539.5t380.5 -204.5z" />
    <glyph glyph-name="multiply" unicode="&#xd7;" horiz-adv-x="970" 
d="M791 322l-17 -19l-287 287l-294 -295l-17 18l295 295l-287 285l17 18l286 -286l279 278l16 -18l-276 -277z" />
    <glyph glyph-name="Oslash" unicode="&#xd8;" horiz-adv-x="1775" 
d="M1411 1331q114 -103 176 -252t62 -331q0 -228 -94.5 -402.5t-267.5 -270t-398 -95.5q-292 0 -492 155l-157 -192l-23 16l160 195q-120 102 -185 254.5t-65 339.5q0 228 94.5 402.5t268 270t399.5 95.5q298 0 500 -166l149 180l21 -19zM889 1491q-236 0 -380 -204
t-144 -539q0 -296 112 -490l813 993q-68 115 -171.5 177.5t-229.5 62.5zM889 4q155 0 273.5 92.5t183.5 261.5t65 390q0 286 -104 477l-813 -994q70 -109 171 -168t224 -59z" />
    <glyph glyph-name="Ugrave" unicode="&#xd9;" horiz-adv-x="1724" 
d="M688 1712q-27 12 -43 35.5t-16 50.5q0 37 26.5 64.5t65.5 27.5q27 0 47 -10q49 -24 134.5 -93t191.5 -179l-2 -4q-338 77 -404 108zM1659 1495v-4q-133 -6 -178 -48t-45 -161v-801q0 -226 -140 -363.5t-370 -137.5q-306 0 -472.5 136t-166.5 384v782q0 119 -45.5 161
t-178.5 48v4h701v-4q-158 -6 -211 -54t-53 -182v-792q0 -206 118.5 -332.5t311.5 -126.5q217 0 349 131t132 346v760q0 98 -27.5 148.5t-96 74t-202.5 27.5v4h574z" />
    <glyph glyph-name="Uacute" unicode="&#xda;" horiz-adv-x="1724" 
d="M1139 1712q-63 -31 -402 -108l-2 4q104 109 190 178.5t136 93.5q20 10 45 10q40 0 67 -27t27 -65q0 -27 -16 -50.5t-45 -35.5zM1659 1495v-4q-133 -6 -178 -48t-45 -161v-801q0 -226 -140 -363.5t-370 -137.5q-306 0 -472.5 136t-166.5 384v782q0 119 -45.5 161
t-178.5 48v4h701v-4q-158 -6 -211 -54t-53 -182v-792q0 -206 118.5 -332.5t311.5 -126.5q217 0 349 131t132 346v760q0 98 -27.5 148.5t-96 74t-202.5 27.5v4h574z" />
    <glyph glyph-name="Ucircumflex" unicode="&#xdb;" horiz-adv-x="1724" 
d="M922 1739l-306 -135l-2 4l306 282h4l305 -282l-2 -4zM1659 1495v-4q-133 -6 -178 -48t-45 -161v-801q0 -226 -140 -363.5t-370 -137.5q-306 0 -472.5 136t-166.5 384v782q0 119 -45.5 161t-178.5 48v4h701v-4q-158 -6 -211 -54t-53 -182v-792q0 -206 118.5 -332.5
t311.5 -126.5q217 0 349 131t132 346v760q0 98 -27.5 148.5t-96 74t-202.5 27.5v4h574z" />
    <glyph glyph-name="Udieresis" unicode="&#xdc;" horiz-adv-x="1724" 
d="M717 1659q-50 0 -83.5 33t-33.5 84q0 49 33.5 81.5t83.5 32.5q51 0 84 -32t33 -82q0 -51 -33 -84t-84 -33zM1126 1659q-50 0 -83 33t-33 84q0 49 33 81.5t83 32.5q51 0 84 -32t33 -82q0 -51 -33 -84t-84 -33zM1659 1495v-4q-133 -6 -178 -48t-45 -161v-801
q0 -226 -140 -363.5t-370 -137.5q-306 0 -472.5 136t-166.5 384v782q0 119 -45.5 161t-178.5 48v4h701v-4q-158 -6 -211 -54t-53 -182v-792q0 -206 118.5 -332.5t311.5 -126.5q217 0 349 131t132 346v760q0 98 -27.5 148.5t-96 74t-202.5 27.5v4h574z" />
    <glyph glyph-name="Yacute" unicode="&#xdd;" horiz-adv-x="1579" 
d="M1075 1712q-67 -32 -403 -108l-2 4q106 110 191.5 179t133.5 93q20 10 47 10q39 0 66 -27.5t27 -64.5q0 -27 -16.5 -50.5t-43.5 -35.5zM954 1495h635v-4q-111 -11 -201 -85.5t-206 -275.5l-283 -485v-405q0 -136 50.5 -183t205.5 -53v-4h-725v4q155 6 205.5 53t50.5 183
v403l-367 606q-83 136 -138 184.5t-142 57.5v4h731v-4q-131 -10 -184.5 -39.5t-53.5 -89.5q0 -44 68 -160l297 -512l254 438q98 168 98 220q0 71 -67 103.5t-228 39.5v4z" />
    <glyph glyph-name="Thorn" unicode="&#xde;" horiz-adv-x="1536" 
d="M905 1198q239 0 385 -110.5t146 -292.5q0 -191 -163.5 -307.5t-430.5 -116.5h-316v-117q0 -74 11.5 -118.5t42.5 -73.5t80 -41.5t131 -16.5v-4h-701v4q133 6 178 48t45 161v1069q0 119 -45 161t-178 48v4h660v-4q-133 -6 -178.5 -48t-45.5 -161v-84h379zM821 391
q170 0 274.5 111.5t104.5 292.5q0 173 -94.5 278t-249.5 105h-330v-787h295z" />
    <glyph glyph-name="germandbls" unicode="&#xdf;" horiz-adv-x="1431" 
d="M1063 670q55 -39 86 -62t77 -65t71 -77t44 -83.5t19 -99.5q0 -137 -98 -220t-256 -83q-92 0 -172 47.5t-121 126.5l4 2q41 -49 110 -78t140 -29q94 0 149 47t55 129q0 40 -13.5 74.5t-44.5 68.5t-55.5 55t-72.5 58q-44 35 -69 56.5t-60.5 59.5t-55 71t-34 80t-14.5 98
q0 34 9 66t32.5 68t37.5 55t48 61q42 52 64 83t43.5 85.5t21.5 109.5q0 104 -57.5 169t-149.5 65q-158 0 -253 -144t-95 -379v-888q0 -111 37 -150t149 -43v-4h-576v4q114 4 151.5 43t37.5 150v841v27h-191l5 20h188q14 249 162.5 398t384.5 149q183 0 294 -68t111 -180
q0 -27 -6.5 -51t-23 -45t-29 -35.5t-40.5 -33t-42 -27t-47 -27.5q-43 -26 -66.5 -42.5t-53 -44.5t-43 -62t-13.5 -76q0 -41 16.5 -77.5t52 -71.5t67 -59.5t85.5 -61.5z" />
    <glyph glyph-name="agrave" unicode="&#xe0;" horiz-adv-x="1222" 
d="M758 1229q-264 136 -355 219q-32 32 -32 76q0 36 27 63t63 27q35 0 71 -31q88 -88 230 -350zM1200 244l4 -4q-35 -127 -95.5 -193.5t-137.5 -66.5q-74 0 -117 34t-47 97v67q-208 -198 -426 -198q-134 0 -212.5 59t-78.5 158q0 83 69 144t234 122l414 153v211
q0 114 -57.5 176t-161.5 62q-127 0 -236 -78v-336q-44 -26 -94 -26q-48 0 -77 29t-29 81q0 106 85.5 193.5t204.5 132.5t234 45q158 0 245 -84t87 -238v-626q0 -46 11.5 -64t41.5 -18q72 0 139 168zM481 51q136 0 326 152v389l-215 -80q-287 -109 -287 -287q0 -78 49 -126
t127 -48z" />
    <glyph glyph-name="aacute" unicode="&#xe1;" horiz-adv-x="1222" 
d="M813 1448q-37 -34 -130 -92t-226 -127l-4 4q147 266 231 350q31 31 70 31q36 0 64 -27t28 -63q0 -38 -33 -76zM1200 244l4 -4q-35 -127 -95.5 -193.5t-137.5 -66.5q-74 0 -117 34t-47 97v67q-208 -198 -426 -198q-134 0 -212.5 59t-78.5 158q0 83 69 144t234 122l414 153
v211q0 114 -57.5 176t-161.5 62q-127 0 -236 -78v-336q-44 -26 -94 -26q-48 0 -77 29t-29 81q0 106 85.5 193.5t204.5 132.5t234 45q158 0 245 -84t87 -238v-626q0 -46 11.5 -64t41.5 -18q72 0 139 168zM481 51q136 0 326 152v389l-215 -80q-287 -109 -287 -287
q0 -78 49 -126t127 -48z" />
    <glyph glyph-name="acircumflex" unicode="&#xe2;" horiz-adv-x="1222" 
d="M627 1442l-312 -203l-4 4l314 371h4l313 -371l-4 -4zM1200 244l4 -4q-35 -127 -95.5 -193.5t-137.5 -66.5q-74 0 -117 34t-47 97v67q-208 -198 -426 -198q-134 0 -212.5 59t-78.5 158q0 83 69 144t234 122l414 153v211q0 114 -57.5 176t-161.5 62q-127 0 -236 -78v-336
q-44 -26 -94 -26q-48 0 -77 29t-29 81q0 106 85.5 193.5t204.5 132.5t234 45q158 0 245 -84t87 -238v-626q0 -46 11.5 -64t41.5 -18q72 0 139 168zM481 51q136 0 326 152v389l-215 -80q-287 -109 -287 -287q0 -78 49 -126t127 -48z" />
    <glyph glyph-name="atilde" unicode="&#xe3;" horiz-adv-x="1222" 
d="M410 1438q-110 0 -156 -133l-4 2q11 107 71.5 185.5t145.5 78.5q44 0 87 -19.5t101 -56.5q118 -74 185 -74q111 0 157 133l4 -2q-13 -108 -73 -186t-144 -78q-49 0 -93.5 20t-100.5 58q-115 72 -180 72zM1200 244l4 -4q-35 -127 -95.5 -193.5t-137.5 -66.5q-74 0 -117 34
t-47 97v67q-208 -198 -426 -198q-134 0 -212.5 59t-78.5 158q0 83 69 144t234 122l414 153v211q0 114 -57.5 176t-161.5 62q-127 0 -236 -78v-336q-44 -26 -94 -26q-48 0 -77 29t-29 81q0 106 85.5 193.5t204.5 132.5t234 45q158 0 245 -84t87 -238v-626q0 -46 11.5 -64
t41.5 -18q72 0 139 168zM481 51q136 0 326 152v389l-215 -80q-287 -109 -287 -287q0 -78 49 -126t127 -48z" />
    <glyph glyph-name="adieresis" unicode="&#xe4;" horiz-adv-x="1222" 
d="M422 1366q-51 0 -84 32.5t-33 82.5t33 82t84 32t84 -32t33 -82t-33 -82.5t-84 -32.5zM831 1366q-51 0 -83.5 32.5t-32.5 82.5t32.5 82t83.5 32t84 -32t33 -82t-33 -82.5t-84 -32.5zM1200 244l4 -4q-35 -127 -95.5 -193.5t-137.5 -66.5q-74 0 -117 34t-47 97v67
q-208 -198 -426 -198q-134 0 -212.5 59t-78.5 158q0 83 69 144t234 122l414 153v211q0 114 -57.5 176t-161.5 62q-127 0 -236 -78v-336q-44 -26 -94 -26q-48 0 -77 29t-29 81q0 106 85.5 193.5t204.5 132.5t234 45q158 0 245 -84t87 -238v-626q0 -46 11.5 -64t41.5 -18
q72 0 139 168zM481 51q136 0 326 152v389l-215 -80q-287 -109 -287 -287q0 -78 49 -126t127 -48z" />
    <glyph glyph-name="aring" unicode="&#xe5;" horiz-adv-x="1222" 
d="M627 1214q-98 0 -156.5 54t-58.5 145t58.5 146t156.5 55q97 0 156 -55t59 -146q0 -90 -59 -144.5t-156 -54.5zM627 1589q-85 0 -136 -48t-51 -128q0 -78 51 -126t136 -48q84 0 135 48t51 126q0 80 -50.5 128t-135.5 48zM1200 244l4 -4q-35 -127 -95.5 -193.5
t-137.5 -66.5q-74 0 -117 34t-47 97v67q-208 -198 -426 -198q-134 0 -212.5 59t-78.5 158q0 83 69 144t234 122l414 153v211q0 114 -57.5 176t-161.5 62q-127 0 -236 -78v-336q-44 -26 -94 -26q-48 0 -77 29t-29 81q0 106 85.5 193.5t204.5 132.5t234 45q158 0 245 -84
t87 -238v-626q0 -46 11.5 -64t41.5 -18q72 0 139 168zM481 51q136 0 326 152v389l-215 -80q-287 -109 -287 -287q0 -78 49 -126t127 -48z" />
    <glyph glyph-name="ae" unicode="&#xe6;" horiz-adv-x="1908" 
d="M1817 281l4 -2q-63 -134 -196.5 -216.5t-289.5 -82.5q-157 0 -276.5 67.5t-184.5 190.5q-246 -258 -493 -258q-134 0 -212.5 59t-78.5 158q0 83 69 144t234 122l414 153v211q0 114 -57.5 176t-161.5 62q-127 0 -236 -78v-336q-44 -26 -94 -26q-48 0 -77 29t-29 81
q0 106 83 193.5t198 132.5t226 45q117 0 190.5 -57t96.5 -164q67 106 173 163.5t239 57.5q204 0 327 -118.5t123 -313.5h-796q-4 -50 -4 -78q0 -232 116 -374t308 -142q106 0 212.5 55.5t172.5 145.5zM1346 1081q-132 0 -221 -104t-111 -279h413q88 0 129 35t41 107
q0 108 -69 174.5t-182 66.5zM481 51q92 0 182.5 53t198.5 156q-55 123 -55 268v64l-215 -80q-287 -109 -287 -287q0 -78 49 -126t127 -48z" />
    <glyph glyph-name="ccedilla" unicode="&#xe7;" horiz-adv-x="1181" 
d="M621 -20l-31 -41q190 -106 190 -215q0 -69 -70.5 -110t-197.5 -44v4q63 9 98 38t35 71q0 40 -36.5 85.5t-102.5 88.5l88 123q-224 9 -359 161t-135 396q0 256 155 412.5t409 156.5q188 0 302.5 -100.5t114.5 -264.5q0 -62 -32 -100.5t-86 -38.5q-57 0 -82 25v385
q-78 69 -211 69q-166 0 -267.5 -133.5t-101.5 -351.5q0 -232 115 -374t303 -142q105 0 208.5 55t162.5 146l4 -2q-60 -134 -190.5 -216.5t-282.5 -82.5z" />
    <glyph glyph-name="egrave" unicode="&#xe8;" horiz-adv-x="1204" 
d="M778 1229q-266 138 -354 219q-33 33 -33 76q0 36 27 63t63 27q41 0 72 -31q85 -85 229 -350zM1112 281l4 -2q-63 -134 -196 -216.5t-289 -82.5q-238 0 -383.5 150.5t-145.5 397.5q0 260 151 419t400 159q203 0 327 -118.5t124 -313.5h-797q-4 -50 -4 -78q0 -232 116 -374
t308 -142q106 0 212.5 55.5t172.5 145.5zM641 1081q-133 0 -221.5 -104t-110.5 -279h414q88 0 129 35t41 107q0 108 -69 174.5t-183 66.5z" />
    <glyph glyph-name="eacute" unicode="&#xe9;" horiz-adv-x="1204" 
d="M834 1448q-88 -80 -357 -219l-4 4q146 264 232 350q31 31 71 31q36 0 63 -27t27 -63q0 -44 -32 -76zM1112 281l4 -2q-63 -134 -196 -216.5t-289 -82.5q-238 0 -383.5 150.5t-145.5 397.5q0 260 151 419t400 159q203 0 327 -118.5t124 -313.5h-797q-4 -50 -4 -78
q0 -232 116 -374t308 -142q106 0 212.5 55.5t172.5 145.5zM641 1081q-133 0 -221.5 -104t-110.5 -279h414q88 0 129 35t41 107q0 108 -69 174.5t-183 66.5z" />
    <glyph glyph-name="ecircumflex" unicode="&#xea;" horiz-adv-x="1204" 
d="M647 1442l-311 -203l-4 4l313 371h4l314 -371l-5 -4zM1112 281l4 -2q-63 -134 -196 -216.5t-289 -82.5q-238 0 -383.5 150.5t-145.5 397.5q0 260 151 419t400 159q203 0 327 -118.5t124 -313.5h-797q-4 -50 -4 -78q0 -232 116 -374t308 -142q106 0 212.5 55.5
t172.5 145.5zM641 1081q-133 0 -221.5 -104t-110.5 -279h414q88 0 129 35t41 107q0 108 -69 174.5t-183 66.5z" />
    <glyph glyph-name="edieresis" unicode="&#xeb;" horiz-adv-x="1204" 
d="M442 1366q-51 0 -83.5 32.5t-32.5 82.5t32.5 82t83.5 32t84 -32t33 -82t-33 -82.5t-84 -32.5zM852 1366q-51 0 -84 32.5t-33 82.5t33 82t84 32t84 -32t33 -82t-33 -82.5t-84 -32.5zM1112 281l4 -2q-63 -134 -196 -216.5t-289 -82.5q-238 0 -383.5 150.5t-145.5 397.5
q0 260 151 419t400 159q203 0 327 -118.5t124 -313.5h-797q-4 -50 -4 -78q0 -232 116 -374t308 -142q106 0 212.5 55.5t172.5 145.5zM641 1081q-133 0 -221.5 -104t-110.5 -279h414q88 0 129 35t41 107q0 108 -69 174.5t-183 66.5z" />
    <glyph glyph-name="igrave" unicode="&#xec;" horiz-adv-x="681" 
d="M487 1229q-262 135 -354 219q-35 35 -35 76q0 36 28 63t64 27t72 -31q88 -88 230 -350zM457 197q0 -111 37 -150t149 -43v-4h-575v4q113 4 150.5 43t37.5 150v579q0 101 -37 141t-151 60v4q204 54 385 117h4v-901z" />
    <glyph glyph-name="iacute" unicode="&#xed;" horiz-adv-x="681" 
d="M541 1448q-82 -78 -355 -219l-4 4q137 252 230 350q36 31 71 31q36 0 64 -27t28 -63q0 -42 -34 -76zM457 197q0 -111 37 -150t149 -43v-4h-575v4q113 4 150.5 43t37.5 150v579q0 101 -37 141t-151 60v4q204 54 385 117h4v-901z" />
    <glyph glyph-name="icircumflex" unicode="&#xee;" horiz-adv-x="681" 
d="M358 1614l312 -371l-4 -4l-310 203l-311 -203l-4 4l313 371h4zM457 197q0 -111 37 -150t149 -43v-4h-575v4q113 4 150.5 43t37.5 150v579q0 101 -37 141t-151 60v4q204 54 385 117h4v-901z" />
    <glyph glyph-name="idieresis" unicode="&#xef;" horiz-adv-x="681" 
d="M201 1370q-46 0 -77.5 32t-31.5 79t31.5 78.5t77.5 31.5q47 0 78.5 -31.5t31.5 -78.5t-31.5 -79t-78.5 -32zM510 1370q-47 0 -78 32t-31 79t31 78.5t78 31.5t77.5 -31.5t30.5 -78.5q0 -48 -30.5 -79.5t-77.5 -31.5zM457 197q0 -111 37 -150t149 -43v-4h-575v4
q113 4 150.5 43t37.5 150v579q0 101 -37 141t-151 60v4q204 54 385 117h4v-901z" />
    <glyph glyph-name="eth" unicode="&#xf0;" horiz-adv-x="1308" 
d="M649 1462q259 -163 406 -388.5t147 -469.5q0 -281 -151.5 -452.5t-399.5 -171.5q-249 0 -400 154.5t-151 408.5q0 251 143 407t365 156q155 0 271 -86q-108 234 -304 412l-352 -154l-10 25l340 147q-115 101 -258 178l2 4q180 -63 326 -151l350 151l10 -24zM651 4
q148 0 239 149t91 390v2q0 146 -41 266t-117 191t-172 71q-146 0 -237.5 -147t-91.5 -383q0 -242 90 -390.5t239 -148.5z" />
    <glyph glyph-name="ntilde" unicode="&#xf1;" horiz-adv-x="1423" 
d="M512 1438q-112 0 -158 -133l-4 2q13 108 73 186t144 78q44 0 87.5 -19.5t101.5 -56.5q38 -24 61.5 -37t58.5 -25t66 -12q110 0 156 133l4 -2q-13 -108 -73 -186t-144 -78q-49 0 -94 20t-101 58q-37 23 -60 36t-56 24.5t-62 11.5zM1208 197q0 -111 37.5 -150t149.5 -43v-4
h-568v4q108 4 144.5 43t36.5 150v596q0 118 -56 178.5t-164 60.5q-78 0 -156.5 -37.5t-174.5 -111.5v-686q0 -111 36 -150t144 -43v-4h-569v4q113 4 150.5 43t37.5 150v579q0 101 -37 141t-151 60v4q238 63 385 117h4v-191q229 199 442 199q149 0 229 -84t80 -238v-587z" />
    <glyph glyph-name="ograve" unicode="&#xf2;" horiz-adv-x="1337" 
d="M801 1229q-264 136 -355 219q-34 34 -34 76q0 36 28 63t64 27q35 0 71 -31q93 -98 230 -350zM668 -20q-255 0 -411.5 155t-156.5 408t156.5 408t411.5 155q256 0 412.5 -154.5t156.5 -408.5t-156.5 -408.5t-412.5 -154.5zM668 4q157 0 252.5 148t95.5 391
q0 242 -95.5 390t-252.5 148q-155 0 -250.5 -148.5t-95.5 -389.5q0 -243 95.5 -391t250.5 -148z" />
    <glyph glyph-name="oacute" unicode="&#xf3;" horiz-adv-x="1337" 
d="M500 1229l-4 4q144 265 229 350q36 31 72 31t64 -27t28 -63q0 -41 -35 -76q-83 -79 -354 -219zM668 -20q-255 0 -411.5 155t-156.5 408t156.5 408t411.5 155q256 0 412.5 -154.5t156.5 -408.5t-156.5 -408.5t-412.5 -154.5zM668 4q157 0 252.5 148t95.5 391
q0 242 -95.5 390t-252.5 148q-155 0 -250.5 -148.5t-95.5 -389.5q0 -243 95.5 -391t250.5 -148z" />
    <glyph glyph-name="ocircumflex" unicode="&#xf4;" horiz-adv-x="1337" 
d="M670 1442l-312 -203l-4 4l312 371h4l313 -371l-4 -4zM668 1106q256 0 412.5 -154.5t156.5 -408.5t-156.5 -408.5t-412.5 -154.5q-255 0 -411.5 155t-156.5 408t156.5 408t411.5 155zM668 4q157 0 252.5 148t95.5 391q0 242 -95.5 390t-252.5 148q-155 0 -250.5 -148.5
t-95.5 -389.5q0 -243 95.5 -391t250.5 -148z" />
    <glyph glyph-name="otilde" unicode="&#xf5;" horiz-adv-x="1337" 
d="M825 1288q-78 0 -194 78q-37 23 -60 36t-56 24.5t-62 11.5q-110 0 -156 -133l-4 2q11 107 71.5 185.5t143.5 78.5q32 0 68 -12.5t58 -25t64 -38.5q39 -24 61.5 -37t57.5 -25t66 -12q109 0 155 133l4 -2q-11 -107 -71.5 -185.5t-145.5 -78.5zM668 -20q-255 0 -411.5 155
t-156.5 408t156.5 408t411.5 155q256 0 412.5 -154.5t156.5 -408.5t-156.5 -408.5t-412.5 -154.5zM668 4q157 0 252.5 148t95.5 391q0 242 -95.5 390t-252.5 148q-155 0 -250.5 -148.5t-95.5 -389.5q0 -243 95.5 -391t250.5 -148z" />
    <glyph glyph-name="odieresis" unicode="&#xf6;" horiz-adv-x="1337" 
d="M463 1366q-50 0 -83.5 33t-33.5 82t33.5 81.5t83.5 32.5q51 0 84 -32t33 -82t-33 -82.5t-84 -32.5zM872 1366q-50 0 -83 33t-33 82t33 81.5t83 32.5q51 0 84 -32t33 -82t-33 -82.5t-84 -32.5zM668 -20q-255 0 -411.5 155t-156.5 408t156.5 408t411.5 155
q256 0 412.5 -154.5t156.5 -408.5t-156.5 -408.5t-412.5 -154.5zM668 4q157 0 252.5 148t95.5 391q0 242 -95.5 390t-252.5 148q-155 0 -250.5 -148.5t-95.5 -389.5q0 -243 95.5 -391t250.5 -148z" />
    <glyph glyph-name="divide" unicode="&#xf7;" horiz-adv-x="970" 
d="M485 756q-49 0 -80.5 31t-31.5 81t31.5 81.5t80.5 31.5t81 -31.5t32 -81.5q0 -49 -31.5 -80.5t-81.5 -31.5zM104 592v20h762v-20h-762zM485 221q-49 0 -80.5 31.5t-31.5 81.5q0 51 31 83t81 32t81.5 -32t31.5 -83q0 -50 -32 -81.5t-81 -31.5z" />
    <glyph glyph-name="oslash" unicode="&#xf8;" horiz-adv-x="1351" 
d="M1061 973q86 -74 132 -184.5t46 -245.5q0 -254 -155.5 -408.5t-411.5 -154.5q-210 0 -357 106l-116 -143l-21 16l117 143q-92 74 -142.5 188t-50.5 253q0 253 156.5 408t413.5 155q220 0 366 -115l129 154l21 -17zM672 1081q-157 0 -252.5 -148t-95.5 -390
q0 -201 67 -338l557 688q-46 90 -117 139t-159 49zM672 4q157 0 252.5 148t95.5 391q0 191 -59 321l-558 -686q96 -174 269 -174z" />
    <glyph glyph-name="ugrave" unicode="&#xf9;" horiz-adv-x="1384" 
d="M813 1229q-266 138 -354 219q-33 33 -33 76q0 36 27 63t63 27q41 0 72 -31q85 -85 229 -350zM1157 254q0 -109 37 -148t149 -43v-4q-177 -28 -382 -79h-5v194q-211 -194 -434 -194q-142 0 -219.5 79t-77.5 222v495q0 101 -37.5 141t-150.5 60v4q247 69 385 117h4v-819
q0 -113 52.5 -171.5t154.5 -58.5q75 0 151.5 38t171.5 112v577q0 101 -37 141t-151 60v4q247 69 385 117h4v-844z" />
    <glyph glyph-name="uacute" unicode="&#xfa;" horiz-adv-x="1384" 
d="M868 1448q-37 -34 -130 -92t-226 -127l-4 4q147 266 231 350q31 31 70 31q37 0 64.5 -26.5t27.5 -63.5q0 -43 -33 -76zM1157 254q0 -109 37 -148t149 -43v-4q-177 -28 -382 -79h-5v194q-211 -194 -434 -194q-142 0 -219.5 79t-77.5 222v495q0 101 -37.5 141t-150.5 60v4
q247 69 385 117h4v-819q0 -113 52.5 -171.5t154.5 -58.5q75 0 151.5 38t171.5 112v577q0 101 -37 141t-151 60v4q247 69 385 117h4v-844z" />
    <glyph glyph-name="ucircumflex" unicode="&#xfb;" horiz-adv-x="1384" 
d="M682 1442l-311 -203l-4 4l313 371h4l313 -371l-4 -4zM1157 254q0 -109 37 -148t149 -43v-4q-177 -28 -382 -79h-5v194q-211 -194 -434 -194q-142 0 -219.5 79t-77.5 222v495q0 101 -37.5 141t-150.5 60v4q247 69 385 117h4v-819q0 -113 52.5 -171.5t154.5 -58.5
q75 0 151.5 38t171.5 112v577q0 101 -37 141t-151 60v4q247 69 385 117h4v-844z" />
    <glyph glyph-name="udieresis" unicode="&#xfc;" horiz-adv-x="1384" 
d="M477 1366q-51 0 -84 32.5t-33 82.5t33 82t84 32t84 -32t33 -82t-33 -82.5t-84 -32.5zM887 1366q-51 0 -84 32.5t-33 82.5t33 82t84 32t84 -32t33 -82t-33 -82.5t-84 -32.5zM1157 254q0 -109 37 -148t149 -43v-4q-177 -28 -382 -79h-5v194q-211 -194 -434 -194
q-142 0 -219.5 79t-77.5 222v495q0 101 -37.5 141t-150.5 60v4q247 69 385 117h4v-819q0 -113 52.5 -171.5t154.5 -58.5q75 0 151.5 38t171.5 112v577q0 101 -37 141t-151 60v4q247 69 385 117h4v-844z" />
    <glyph glyph-name="yacute" unicode="&#xfd;" horiz-adv-x="1290" 
d="M889 1448q-88 -80 -357 -219l-4 4q146 264 232 350q31 31 69 31q37 0 65 -27t28 -63q0 -43 -33 -76zM815 1085h475v-4q-81 -11 -127 -69t-127 -234l-475 -1022q-83 -186 -293 -186q-61 0 -99 29t-38 75q0 34 12 58l383 2q12 21 25 47l82 182l-426 922q-53 114 -89.5 152
t-111.5 44v4h574v-4q-90 -8 -128 -35t-38 -90q0 -40 37 -118l290 -639l236 516q67 140 67 209q0 80 -53.5 114.5t-175.5 42.5v4z" />
    <glyph glyph-name="thorn" unicode="&#xfe;" horiz-adv-x="1314" 
d="M745 1106q211 0 340 -144t129 -380q0 -270 -145 -436t-383 -166q-84 0 -166 22t-141 59v-233q0 -134 45.5 -181t181.5 -53v-4h-616v4q113 4 150.5 43t37.5 150v1497q0 116 -37.5 158t-150.5 49v4q201 60 385 131h4v-725q66 93 166.5 149t199.5 56zM647 10
q155 0 250.5 148t95.5 391q0 221 -90.5 356t-238.5 135q-74 0 -152 -46.5t-133 -125.5v-671q39 -90 111.5 -138.5t156.5 -48.5z" />
    <glyph glyph-name="ydieresis" unicode="&#xff;" horiz-adv-x="1290" 
d="M498 1366q-51 0 -84 32.5t-33 82.5t33 82t84 32t83.5 -32t32.5 -82t-32.5 -82.5t-83.5 -32.5zM907 1366q-51 0 -83.5 32.5t-32.5 82.5t32.5 82t83.5 32t84 -32t33 -82t-33 -82.5t-84 -32.5zM815 1085h475v-4q-81 -11 -127 -69t-127 -234l-475 -1022q-83 -186 -293 -186
q-61 0 -99 29t-38 75q0 34 12 58l383 2q12 21 25 47l82 182l-426 922q-53 114 -89.5 152t-111.5 44v4h574v-4q-90 -8 -128 -35t-38 -90q0 -40 37 -118l290 -639l236 516q67 140 67 209q0 80 -53.5 114.5t-175.5 42.5v4z" />
    <glyph glyph-name="Amacron" unicode="&#x100;" horiz-adv-x="1679" 
d="M1178 1718l-4 -20h-687l5 20h686zM1448 201q27 -63 45 -94.5t44.5 -57t59 -34t86.5 -11.5v-4h-704v4q136 12 190 40.5t54 92.5q0 35 -31 109l-121 293h-665l-70 -170q-60 -152 -60 -207q0 -83 61.5 -116.5t211.5 -41.5v-4h-545v4q102 10 156 70t125 233l426 1028l-31 76
q92 41 174 105h37zM414 559h649l-326 784z" />
    <glyph glyph-name="amacron" unicode="&#x101;" horiz-adv-x="1222" 
d="M971 1468l-4 -20h-686l4 20h686zM1200 244l4 -4q-35 -127 -95.5 -193.5t-137.5 -66.5q-74 0 -117 34t-47 97v67q-208 -198 -426 -198q-134 0 -212.5 59t-78.5 158q0 83 69 144t234 122l414 153v211q0 114 -57.5 176t-161.5 62q-127 0 -236 -78v-336q-44 -26 -94 -26
q-48 0 -77 29t-29 81q0 106 85.5 193.5t204.5 132.5t234 45q158 0 245 -84t87 -238v-626q0 -46 11.5 -64t41.5 -18q72 0 139 168zM481 51q136 0 326 152v389l-215 -80q-287 -109 -287 -287q0 -78 49 -126t127 -48z" />
    <glyph glyph-name="Abreve" unicode="&#x102;" horiz-adv-x="1679" 
d="M831 1599q-97 0 -183.5 75t-131.5 208l4 2q62 -67 143 -106t168 -39q88 0 170 39t144 106l4 -2q-45 -133 -132.5 -208t-185.5 -75zM1448 201q27 -63 45 -94.5t44.5 -57t59 -34t86.5 -11.5v-4h-704v4q136 12 190 40.5t54 92.5q0 35 -31 109l-121 293h-665l-70 -170
q-60 -152 -60 -207q0 -83 61.5 -116.5t211.5 -41.5v-4h-545v4q102 10 156 70t125 233l426 1028l-31 76q92 41 174 105h37zM414 559h649l-326 784z" />
    <glyph glyph-name="abreve" unicode="&#x103;" horiz-adv-x="1222" 
d="M627 1239q-104 0 -191 99t-133 270l4 2q55 -105 140 -167.5t180 -62.5q94 0 179 63t138 167l4 -2q-46 -172 -131.5 -270.5t-189.5 -98.5zM1200 244l4 -4q-35 -127 -95.5 -193.5t-137.5 -66.5q-74 0 -117 34t-47 97v67q-208 -198 -426 -198q-134 0 -212.5 59t-78.5 158
q0 83 69 144t234 122l414 153v211q0 114 -57.5 176t-161.5 62q-127 0 -236 -78v-336q-44 -26 -94 -26q-48 0 -77 29t-29 81q0 106 85.5 193.5t204.5 132.5t234 45q158 0 245 -84t87 -238v-626q0 -46 11.5 -64t41.5 -18q72 0 139 168zM481 51q136 0 326 152v389l-215 -80
q-287 -109 -287 -287q0 -78 49 -126t127 -48z" />
    <glyph glyph-name="Aogonek" unicode="&#x104;" horiz-adv-x="1679" 
d="M1618 0q-110 -60 -178 -137.5t-68 -143.5q0 -40 30 -66t79 -26q83 0 153 51l2 -4q-102 -94 -235 -94q-85 0 -138 35.5t-53 95.5q0 79 108 157t290 132h-629v4q136 12 190 40.5t54 92.5q0 35 -31 109l-121 293h-665l-70 -170q-60 -152 -60 -207q0 -83 61.5 -116.5
t211.5 -41.5v-4h-545v4q102 10 156 70t125 233l426 1028l-31 76q92 41 174 105h37l557 -1315q27 -63 45 -94.5t44.5 -57t59 -34t86.5 -11.5v-4h-65zM414 559h649l-326 784z" />
    <glyph glyph-name="aogonek" unicode="&#x105;" horiz-adv-x="1222" 
d="M1038 -373q84 0 146 51l2 -4q-40 -40 -100 -67t-130 -27q-76 0 -123 36t-47 95q0 68 67 141t187 142q-32 -14 -69 -14q-74 0 -117 34t-47 97v67q-208 -198 -426 -198q-134 0 -212.5 59t-78.5 158q0 83 69 144t234 122l414 153v211q0 114 -57.5 176t-161.5 62
q-127 0 -236 -78v-336q-44 -26 -94 -26q-48 0 -77 29t-29 81q0 106 85.5 193.5t204.5 132.5t234 45q158 0 245 -84t87 -238v-626q0 -46 11.5 -64t41.5 -18q72 0 139 168l4 -4q-37 -127 -96 -195q-160 -225 -160 -332q0 -38 25 -62t65 -24zM481 51q136 0 326 152v389
l-215 -80q-287 -109 -287 -287q0 -78 49 -126t127 -48z" />
    <glyph glyph-name="Cacute" unicode="&#x106;" horiz-adv-x="1544" 
d="M670 1604l-2 4q104 109 190 178.5t135 93.5q20 10 45 10q40 0 67.5 -27t27.5 -65q0 -27 -16.5 -50.5t-45.5 -35.5q-61 -30 -401 -108zM819 -20q-315 0 -505.5 208t-190.5 551q0 230 91 406.5t257.5 273.5t384.5 97q68 0 138.5 -18t123 -36t78.5 -18q31 0 48.5 12t39.5 49
h4l129 -530l-4 -2q-183 518 -563 518q-232 0 -373 -182.5t-141 -481.5q0 -158 42.5 -290.5t118.5 -225.5t185.5 -144.5t239.5 -51.5q154 0 300.5 73t227.5 195l4 -2q-78 -179 -253.5 -290t-381.5 -111z" />
    <glyph glyph-name="cacute" unicode="&#x107;" horiz-adv-x="1181" 
d="M842 1448q-82 -78 -355 -219l-4 4q142 262 230 350q36 31 71 31q36 0 63 -27t27 -63q0 -44 -32 -76zM1090 281l4 -2q-60 -134 -190.5 -216.5t-282.5 -82.5q-235 0 -378 152.5t-143 404.5q0 256 155 412.5t409 156.5q188 0 302.5 -100.5t114.5 -264.5q0 -62 -32 -100.5
t-86 -38.5q-57 0 -82 25v385q-78 69 -211 69q-166 0 -267.5 -133.5t-101.5 -351.5q0 -232 115 -374t303 -142q105 0 208.5 55t162.5 146z" />
    <glyph glyph-name="Cdotaccent" unicode="&#x10a;" horiz-adv-x="1544" 
d="M854 1647q-59 0 -98 38t-39 95q0 58 39 96.5t98 38.5q60 0 98.5 -38t38.5 -97q0 -57 -38.5 -95t-98.5 -38zM819 -20q-315 0 -505.5 208t-190.5 551q0 230 91 406.5t257.5 273.5t384.5 97q68 0 138.5 -18t123 -36t78.5 -18q31 0 48.5 12t39.5 49h4l129 -530l-4 -2
q-183 518 -563 518q-232 0 -373 -182.5t-141 -481.5q0 -158 42.5 -290.5t118.5 -225.5t185.5 -144.5t239.5 -51.5q154 0 300.5 73t227.5 195l4 -2q-78 -179 -253.5 -290t-381.5 -111z" />
    <glyph glyph-name="cdotaccent" unicode="&#x10b;" horiz-adv-x="1181" 
d="M655 1348q-59 0 -98 37.5t-39 95.5q0 57 39 95t98 38q60 0 100 -38t40 -95q0 -58 -40 -95.5t-100 -37.5zM1090 281l4 -2q-60 -134 -190.5 -216.5t-282.5 -82.5q-235 0 -378 152.5t-143 404.5q0 256 155 412.5t409 156.5q188 0 302.5 -100.5t114.5 -264.5
q0 -62 -32 -100.5t-86 -38.5q-57 0 -82 25v385q-78 69 -211 69q-166 0 -267.5 -133.5t-101.5 -351.5q0 -232 115 -374t303 -142q105 0 208.5 55t162.5 146z" />
    <glyph glyph-name="Ccaron" unicode="&#x10c;" horiz-adv-x="1544" 
d="M856 1604h-4l-305 282l2 4l305 -133l305 133l2 -4zM1450 383l4 -2q-78 -179 -253.5 -290t-381.5 -111q-315 0 -505.5 208t-190.5 551q0 230 91 406.5t257.5 273.5t384.5 97q68 0 138.5 -18t123 -36t78.5 -18q31 0 48.5 12t39.5 49h4l129 -530l-4 -2q-183 518 -563 518
q-232 0 -373 -182.5t-141 -481.5q0 -158 42.5 -290.5t118.5 -225.5t185.5 -144.5t239.5 -51.5q154 0 300.5 73t227.5 195z" />
    <glyph glyph-name="ccaron" unicode="&#x10d;" horiz-adv-x="1181" 
d="M657 1237h-4l-311 371l4 4l311 -203l310 203l4 -4zM1090 281l4 -2q-60 -134 -190.5 -216.5t-282.5 -82.5q-235 0 -378 152.5t-143 404.5q0 256 155 412.5t409 156.5q188 0 302.5 -100.5t114.5 -264.5q0 -62 -32 -100.5t-86 -38.5q-57 0 -82 25v385q-78 69 -211 69
q-166 0 -267.5 -133.5t-101.5 -351.5q0 -232 115 -374t303 -142q105 0 208.5 55t162.5 146z" />
    <glyph glyph-name="Dcaron" unicode="&#x10e;" horiz-adv-x="1787" 
d="M797 1604h-4l-306 282l2 4l306 -133l305 133l2 -4zM848 1495q183 0 336 -54t260 -151t166 -236t59 -306q0 -222 -101.5 -392t-288.5 -263t-431 -93h-758v4q133 6 178 48t45 161v1069q0 119 -45 161t-178 48v4h758zM805 20q140 0 257 52.5t199 147.5t127.5 230.5
t45.5 297.5q0 328 -169 527.5t-452 199.5h-287v-1276q0 -107 23.5 -143t93.5 -36h162z" />
    <glyph glyph-name="dcaron" unicode="&#x10f;" horiz-adv-x="1384" 
d="M1329 1632q61 0 99 -47.5t38 -124.5q0 -90 -53.5 -172.5t-140.5 -126.5l-2 2q39 34 62.5 82.5t23.5 95.5q0 53 -32 89.5t-83 42.5q-20 27 -20 59q0 43 30.5 71.5t77.5 28.5zM1137 254q0 -109 37.5 -148t150.5 -43v-4q-185 -30 -385 -79h-4v204q-65 -93 -165.5 -148.5
t-199.5 -55.5q-212 0 -341.5 143.5t-129.5 378.5q0 271 145.5 437.5t383.5 166.5q83 0 165 -22.5t142 -59.5v260q0 116 -37 158t-149 49v4q207 62 383 131h4v-1372zM653 43q73 0 150 47t133 125v672q-39 91 -111 139.5t-157 48.5q-155 0 -250.5 -147.5t-95.5 -390.5
q0 -221 91.5 -357.5t239.5 -136.5z" />
    <glyph glyph-name="Dcroat" unicode="&#x110;" horiz-adv-x="1794" 
d="M854 1495q183 0 336 -54t260 -151t166 -236t59 -306q0 -222 -101.5 -392t-288.5 -263t-431 -93h-758v4q133 6 178 48t45 161v545h-223l4 20h219v504q0 119 -45 161t-178 48v4h758zM811 20q140 0 257 52.5t199 147.5t127.5 230.5t45.5 297.5q0 329 -169.5 528t-453.5 199
h-285v-697h426l-4 -20h-422v-559q0 -107 23.5 -143t93.5 -36h162z" />
    <glyph glyph-name="dcroat" unicode="&#x111;" horiz-adv-x="1361" 
d="M1137 254q0 -109 37.5 -148t150.5 -43v-4q-185 -30 -385 -79h-4v204q-65 -93 -165.5 -148.5t-199.5 -55.5q-212 0 -341.5 143.5t-129.5 378.5q0 271 145.5 437.5t383.5 166.5q83 0 165 -22.5t142 -59.5v227h-338l4 21h334v12q0 116 -37 158t-149 49v4q207 62 383 131h4
v-354h188l-4 -21h-184v-997zM653 43q73 0 150 47t133 125v672q-39 91 -111 139.5t-157 48.5q-155 0 -250.5 -147.5t-95.5 -390.5q0 -221 91.5 -357.5t239.5 -136.5z" />
    <glyph glyph-name="Emacron" unicode="&#x112;" horiz-adv-x="1634" 
d="M1128 1718l-4 -20h-686l4 20h686zM1552 537l4 -2l-188 -545q-139 10 -410 10h-868v4q133 6 178 48t45 161v1069q0 119 -45 161t-178 48v4h817q263 0 396 10l167 -524l-4 -2q-35 102 -68 174t-74.5 129.5t-87 93t-108 58.5t-135 32t-170.5 9h-297v-697h199q76 0 123 14.5
t81.5 55.5t54 106t34.5 174h4q-6 -221 -6 -370q0 -150 6 -371h-4q-15 115 -34.5 184t-54 112.5t-81.5 59t-123 15.5h-199v-559q0 -107 29.5 -143t118.5 -36h235q112 0 192 14.5t146 47.5t118 95t96 147t91 213z" />
    <glyph glyph-name="emacron" unicode="&#x113;" horiz-adv-x="1204" 
d="M991 1468l-4 -20h-686l4 20h686zM1112 281l4 -2q-63 -134 -196 -216.5t-289 -82.5q-238 0 -383.5 150.5t-145.5 397.5q0 260 151 419t400 159q203 0 327 -118.5t124 -313.5h-797q-4 -50 -4 -78q0 -232 116 -374t308 -142q106 0 212.5 55.5t172.5 145.5zM641 1081
q-133 0 -221.5 -104t-110.5 -279h414q88 0 129 35t41 107q0 108 -69 174.5t-183 66.5z" />
    <glyph glyph-name="Edotaccent" unicode="&#x116;" horiz-adv-x="1634" 
d="M784 1647q-60 0 -98.5 38t-38.5 95q0 59 38.5 97t98.5 38q59 0 98.5 -38.5t39.5 -96.5q0 -57 -39.5 -95t-98.5 -38zM1552 537l4 -2l-188 -545q-139 10 -410 10h-868v4q133 6 178 48t45 161v1069q0 119 -45 161t-178 48v4h817q263 0 396 10l167 -524l-4 -2
q-35 102 -68 174t-74.5 129.5t-87 93t-108 58.5t-135 32t-170.5 9h-297v-697h199q76 0 123 14.5t81.5 55.5t54 106t34.5 174h4q-6 -221 -6 -370q0 -150 6 -371h-4q-15 115 -34.5 184t-54 112.5t-81.5 59t-123 15.5h-199v-559q0 -107 29.5 -143t118.5 -36h235q112 0 192 14.5
t146 47.5t118 95t96 147t91 213z" />
    <glyph glyph-name="edotaccent" unicode="&#x117;" horiz-adv-x="1204" 
d="M647 1348q-60 0 -98.5 37.5t-38.5 95.5q0 57 38.5 95t98.5 38t98.5 -38t38.5 -95q0 -58 -38.5 -95.5t-98.5 -37.5zM1112 281l4 -2q-63 -134 -196 -216.5t-289 -82.5q-238 0 -383.5 150.5t-145.5 397.5q0 260 151 419t400 159q203 0 327 -118.5t124 -313.5h-797
q-4 -50 -4 -78q0 -232 116 -374t308 -142q106 0 212.5 55.5t172.5 145.5zM641 1081q-133 0 -221.5 -104t-110.5 -279h414q88 0 129 35t41 107q0 108 -69 174.5t-183 66.5z" />
    <glyph glyph-name="Eogonek" unicode="&#x118;" horiz-adv-x="1634" 
d="M1229 -2q-109 -60 -175.5 -136.5t-66.5 -142.5q0 -40 30 -66t79 -26q83 0 153 51l2 -4q-102 -94 -235 -94q-85 0 -138 35.5t-53 95.5q0 79 105 156t284 131q-63 2 -256 2h-868v4q133 6 178 48t45 161v1069q0 119 -45 161t-178 48v4h817q263 0 396 10l167 -524l-4 -2
q-35 102 -68 174t-74.5 129.5t-87 93t-108 58.5t-135 32t-170.5 9h-297v-697h199q76 0 123 14.5t81.5 55.5t54 106t34.5 174h4q-6 -221 -6 -370q0 -150 6 -371h-4q-15 115 -34.5 184t-54 112.5t-81.5 59t-123 15.5h-199v-559q0 -107 29.5 -143t118.5 -36h235q112 0 192 14.5
t146 47.5t118 95t96 147t91 213l4 -2l-188 -545q-53 4 -139 8z" />
    <glyph glyph-name="eogonek" unicode="&#x119;" horiz-adv-x="1204" 
d="M950 82q-266 -221 -266 -363q0 -40 30 -66t79 -26q83 0 153 51l2 -4q-102 -94 -235 -94q-85 0 -138 35.5t-53 95.5q0 130 309 305q-99 -36 -200 -36q-238 0 -383.5 150.5t-145.5 397.5q0 260 151 419t400 159q203 0 327 -118.5t124 -313.5h-797q-4 -50 -4 -78
q0 -232 116 -374t308 -142q106 0 212.5 55.5t172.5 145.5l4 -2q-55 -116 -166 -197zM641 1081q-133 0 -221.5 -104t-110.5 -279h414q88 0 129 35t41 107q0 108 -69 174.5t-183 66.5z" />
    <glyph glyph-name="Ecaron" unicode="&#x11a;" horiz-adv-x="1634" 
d="M786 1604h-4l-305 282l2 4l305 -133l306 133l2 -4zM1552 537l4 -2l-188 -545q-139 10 -410 10h-868v4q133 6 178 48t45 161v1069q0 119 -45 161t-178 48v4h817q263 0 396 10l167 -524l-4 -2q-35 102 -68 174t-74.5 129.5t-87 93t-108 58.5t-135 32t-170.5 9h-297v-697
h199q76 0 123 14.5t81.5 55.5t54 106t34.5 174h4q-6 -221 -6 -370q0 -150 6 -371h-4q-15 115 -34.5 184t-54 112.5t-81.5 59t-123 15.5h-199v-559q0 -107 29.5 -143t118.5 -36h235q112 0 192 14.5t146 47.5t118 95t96 147t91 213z" />
    <glyph glyph-name="ecaron" unicode="&#x11b;" horiz-adv-x="1204" 
d="M649 1237h-4l-313 371l4 4l311 -203l311 203l5 -4zM1112 281l4 -2q-63 -134 -196 -216.5t-289 -82.5q-238 0 -383.5 150.5t-145.5 397.5q0 260 151 419t400 159q203 0 327 -118.5t124 -313.5h-797q-4 -50 -4 -78q0 -232 116 -374t308 -142q106 0 212.5 55.5t172.5 145.5z
M641 1081q-133 0 -221.5 -104t-110.5 -279h414q88 0 129 35t41 107q0 108 -69 174.5t-183 66.5z" />
    <glyph glyph-name="Gbreve" unicode="&#x11e;" horiz-adv-x="1716" 
d="M905 1599q-97 0 -185 75t-132 208l4 2q62 -67 143.5 -106t169.5 -39q87 0 168.5 39t143.5 106l4 -2q-43 -132 -131 -207.5t-185 -75.5zM1673 668v-4q-122 -6 -162.5 -46t-40.5 -155v-350q-69 -8 -174 -47q-249 -86 -407 -86q-228 0 -402.5 95.5t-270 270t-95.5 402.5
t97.5 402.5t275.5 270t411 95.5q83 0 157 -19t130 -38t96 -19q35 0 56 13t45 52h4l57 -530h-4q-54 245 -196.5 380.5t-344.5 135.5q-247 0 -398 -204t-151 -539q0 -334 147 -539t386 -205q96 0 192.5 41t175.5 111v258q0 141 -58.5 192t-231.5 58v4h706z" />
    <glyph glyph-name="gbreve" unicode="&#x11f;" horiz-adv-x="1263" 
d="M608 1239q-104 0 -189.5 98.5t-131.5 270.5l4 2q54 -105 138 -167.5t179 -62.5t180 62.5t140 167.5l4 -2q-46 -171 -133 -270t-191 -99zM918 170q154 -13 227.5 -84t73.5 -170q0 -159 -161 -252.5t-474 -93.5q-282 0 -413.5 68t-131.5 184q0 122 225 239
q-112 53 -112 166q0 104 129 254q-134 101 -134 267q0 161 127 259.5t334 98.5q49 0 127 -10q90 -11 164 -11q160 0 281 21h4l-8 -41h-359q120 -41 186 -124t66 -193q0 -161 -127 -260t-334 -99q-188 0 -309 82q-66 -93 -66 -145q0 -42 42.5 -71.5t168.5 -41.5zM608 1081
q-107 0 -173 -92t-66 -241q0 -150 66.5 -242t172.5 -92q108 0 174 92t66 242q0 149 -66.5 241t-173.5 92zM606 -406q244 0 372 71t128 181q0 47 -48.5 82t-150.5 45l-442 39q-93 8 -176 37q-92 -92 -92 -211q0 -115 111 -179.5t298 -64.5z" />
    <glyph glyph-name="Gdotaccent" unicode="&#x120;" horiz-adv-x="1716" 
d="M905 1647q-60 0 -99.5 38t-39.5 95q0 58 39.5 96.5t99.5 38.5q59 0 98 -38.5t39 -96.5q0 -57 -39 -95t-98 -38zM1673 668v-4q-122 -6 -162.5 -46t-40.5 -155v-350q-69 -8 -174 -47q-249 -86 -407 -86q-228 0 -402.5 95.5t-270 270t-95.5 402.5t97.5 402.5t275.5 270
t411 95.5q83 0 157 -19t130 -38t96 -19q35 0 56 13t45 52h4l57 -530h-4q-54 245 -196.5 380.5t-344.5 135.5q-247 0 -398 -204t-151 -539q0 -334 147 -539t386 -205q96 0 192.5 41t175.5 111v258q0 141 -58.5 192t-231.5 58v4h706z" />
    <glyph glyph-name="gdotaccent" unicode="&#x121;" horiz-adv-x="1263" 
d="M608 1348q-59 0 -98 37.5t-39 95.5q0 57 39 95t98 38q60 0 98.5 -38t38.5 -95q0 -58 -38.5 -95.5t-98.5 -37.5zM918 170q154 -13 227.5 -84t73.5 -170q0 -159 -161 -252.5t-474 -93.5q-282 0 -413.5 68t-131.5 184q0 122 225 239q-112 53 -112 166q0 104 129 254
q-134 101 -134 267q0 161 127 259.5t334 98.5q49 0 127 -10q90 -11 164 -11q160 0 281 21h4l-8 -41h-359q120 -41 186 -124t66 -193q0 -161 -127 -260t-334 -99q-188 0 -309 82q-66 -93 -66 -145q0 -42 42.5 -71.5t168.5 -41.5zM608 1081q-107 0 -173 -92t-66 -241
q0 -150 66.5 -242t172.5 -92q108 0 174 92t66 242q0 149 -66.5 241t-173.5 92zM606 -406q244 0 372 71t128 181q0 47 -48.5 82t-150.5 45l-442 39q-93 8 -176 37q-92 -92 -92 -211q0 -115 111 -179.5t298 -64.5z" />
    <glyph glyph-name="uni0122" unicode="&#x122;" horiz-adv-x="1716" 
d="M1673 668v-4q-122 -6 -162.5 -46t-40.5 -155v-350q-69 -8 -174 -47q-249 -86 -407 -86q-228 0 -402.5 95.5t-270 270t-95.5 402.5t97.5 402.5t275.5 270t411 95.5q83 0 157 -19t130 -38t96 -19q35 0 56 13t45 52h4l57 -530h-4q-54 245 -196.5 380.5t-344.5 135.5
q-247 0 -398 -204t-151 -539q0 -334 147 -539t386 -205q96 0 192.5 41t175.5 111v258q0 141 -58.5 192t-231.5 58v4h706zM895 -66q61 0 99 -41t38 -106q0 -70 -55 -130t-148 -87l-2 4q41 21 68 57.5t27 73.5q0 40 -32.5 64.5t-86.5 27.5q-15 23 -15 45q0 40 30.5 66t76.5 26
z" />
    <glyph glyph-name="uni0123" unicode="&#x123;" horiz-adv-x="1263" 
d="M623 1241q-61 0 -98.5 41t-37.5 107q0 78 55.5 144t147.5 95l2 -4q-42 -24 -68 -63.5t-26 -81.5q0 -44 33 -71t86 -30q14 -28 14 -45q0 -40 -30.5 -66t-77.5 -26zM918 170q154 -13 227.5 -84t73.5 -170q0 -159 -161 -252.5t-474 -93.5q-282 0 -413.5 68t-131.5 184
q0 122 225 239q-112 53 -112 166q0 104 129 254q-134 101 -134 267q0 161 127 259.5t334 98.5q49 0 127 -10q90 -11 164 -11q160 0 281 21h4l-8 -41h-359q120 -41 186 -124t66 -193q0 -161 -127 -260t-334 -99q-188 0 -309 82q-66 -93 -66 -145q0 -42 42.5 -71.5
t168.5 -41.5zM608 1081q-107 0 -173 -92t-66 -241q0 -150 66.5 -242t172.5 -92q108 0 174 92t66 242q0 149 -66.5 241t-173.5 92zM606 -406q244 0 372 71t128 181q0 47 -48.5 82t-150.5 45l-442 39q-93 8 -176 37q-92 -92 -92 -211q0 -115 111 -179.5t298 -64.5z" />
    <glyph glyph-name="Hbar" unicode="&#x126;" horiz-adv-x="1822" 
d="M1731 1491q-133 -6 -178.5 -48t-45.5 -161v-137h224l-5 -21h-219v-911q0 -119 45.5 -161t178.5 -48v-4h-660v4q134 6 178.5 48t44.5 161v545h-766v-545q0 -119 45.5 -161t178.5 -48v-4h-660v4q133 6 178 48t45 161v911h-223l4 21h219v137q0 119 -45 161t-178 48v4h660v-4
q-133 -6 -178.5 -48t-45.5 -161v-137h766v137q0 119 -44.5 161t-178.5 48v4h660v-4zM1294 778v346h-766v-346h766z" />
    <glyph glyph-name="hbar" unicode="&#x127;" horiz-adv-x="1394" 
d="M1180 197q0 -111 37 -150t149 -43v-4h-567v4q107 4 143.5 43.5t36.5 149.5v596q0 118 -55.5 178.5t-163.5 60.5q-78 0 -157 -37.5t-177 -111.5v-686q0 -110 36.5 -149.5t143.5 -43.5v-4h-567v4q112 4 149 43t37 150v1054h-186l4 21h182v12q0 116 -37 158t-149 49v4
q207 62 383 131h4v-354h340l-4 -21h-336v-344q229 199 444 199q148 0 229 -84t81 -238v-587z" />
    <glyph glyph-name="Imacron" unicode="&#x12a;" horiz-adv-x="839" 
d="M702 1720l-4 -20h-563l4 20h563zM750 1491q-133 -6 -178.5 -48t-45.5 -161v-1069q0 -119 45.5 -161t178.5 -48v-4h-660v4q133 6 178 48t45 161v1069q0 119 -45 161t-178 48v4h660v-4z" />
    <glyph glyph-name="imacron" unicode="&#x12b;" horiz-adv-x="681" 
d="M639 1470l-4 -20h-563l4 20h563zM457 197q0 -111 37 -150t149 -43v-4h-575v4q113 4 150.5 43t37.5 150v579q0 101 -37 141t-151 60v4q204 54 385 117h4v-901z" />
    <glyph glyph-name="Iogonek" unicode="&#x12e;" horiz-adv-x="839" 
d="M750 1491q-133 -6 -178.5 -48t-45.5 -161v-1069q0 -119 45.5 -161t178.5 -48v-4h-66q-110 -60 -178 -137.5t-68 -143.5q0 -40 31 -66t78 -26q83 0 153 51l2 -4q-102 -94 -235 -94q-85 0 -138 35.5t-53 95.5q0 79 108.5 156.5t289.5 132.5h-584v4q133 6 178 48t45 161
v1069q0 119 -45 161t-178 48v4h660v-4z" />
    <glyph glyph-name="iogonek" unicode="&#x12f;" horiz-adv-x="681" 
d="M356 1348q-60 0 -99.5 37.5t-39.5 95.5q0 57 39.5 95t99.5 38q59 0 98.5 -38t39.5 -95q0 -58 -39.5 -95.5t-98.5 -37.5zM590 0q-110 -60 -178 -137.5t-68 -143.5q0 -40 30 -66t79 -26q83 0 153 51l2 -4q-102 -94 -235 -94q-85 0 -138 35.5t-53 95.5q0 79 108 157t290 132
h-512v4q113 4 150.5 43t37.5 150v579q0 101 -37 141t-151 60v4q204 54 385 117h4v-901q0 -111 37 -150t149 -43v-4h-53z" />
    <glyph glyph-name="Idotaccent" unicode="&#x130;" horiz-adv-x="839" 
d="M420 1647q-60 0 -98.5 38t-38.5 95q0 59 38.5 97t98.5 38t98.5 -38t38.5 -97q0 -57 -38.5 -95t-98.5 -38zM750 1491q-133 -6 -178.5 -48t-45.5 -161v-1069q0 -119 45.5 -161t178.5 -48v-4h-660v4q133 6 178 48t45 161v1069q0 119 -45 161t-178 48v4h660v-4z" />
    <glyph glyph-name="dotlessi" unicode="&#x131;" horiz-adv-x="681" 
d="M457 197q0 -111 37 -150t149 -43v-4h-575v4q113 4 150.5 43t37.5 150v579q0 101 -37 141t-151 60v4q204 54 385 117h4v-901z" />
    <glyph glyph-name="IJ" unicode="&#x132;" horiz-adv-x="1679" 
d="M90 1491v4h660v-4q-133 -6 -178.5 -48t-45.5 -161v-1069q0 -119 45.5 -161t178.5 -48v-4h-660v4q133 6 178 48t45 161v1069q0 119 -45 161t-178 48zM952 1495h658v-4q-133 -6 -177 -48t-44 -161v-913q0 -204 -116 -368t-304 -226l-2 4q209 162 209 510v993
q0 119 -45.5 161t-178.5 48v4z" />
    <glyph glyph-name="ij" unicode="&#x133;" horiz-adv-x="1327" 
d="M356 1348q-60 0 -99.5 37.5t-39.5 95.5q0 57 39.5 95t99.5 38q59 0 98.5 -38t39.5 -95q0 -58 -39.5 -95.5t-98.5 -37.5zM1049 1348q-59 0 -98.5 37.5t-39.5 95.5q0 57 39.5 95t98.5 38q60 0 98.5 -38t38.5 -95q0 -58 -38.5 -95.5t-98.5 -37.5zM457 197q0 -111 37 -150
t149 -43v-4h-575v4q113 4 150.5 43t37.5 150v579q0 101 -37 141t-151 60v4q204 54 385 117h4v-901zM762 981q251 70 383 117h4v-975q0 -207 -103 -359.5t-270 -193.5l-2 4q174 142 174 471v731q0 101 -37 141t-149 60v4z" />
    <glyph glyph-name="uni0136" unicode="&#x136;" horiz-adv-x="1712" 
d="M526 213q0 -119 45.5 -161t178.5 -48v-4h-660v4q133 4 178 47t45 162v1069q0 119 -45 161t-178 48v4h660v-4q-133 -6 -178.5 -48t-45.5 -161v-1069zM776 915q223 -288 365 -459t249.5 -273t176.5 -138t143 -41v-4h-254q-59 0 -110 14t-111 54t-117 93t-140.5 149.5
t-168 204.5t-211.5 276l502 430q121 105 121 159q0 51 -54 77.5t-176 33.5v4h574v-4q-74 -2 -138.5 -36.5t-181.5 -135.5zM920 -66q61 0 98 -41t37 -106q0 -70 -55 -130t-148 -87l-2 4q42 20 68 56.5t26 74.5q0 40 -32.5 64.5t-86.5 27.5q-14 28 -14 45q0 40 31 66t78 26z
" />
    <glyph glyph-name="uni0137" unicode="&#x137;" horiz-adv-x="1320" 
d="M426 197q0 -110 36.5 -149.5t143.5 -43.5v-4h-567v4q112 4 149 43t37 150v1087q0 116 -37 158t-149 49v4q207 62 383 131h4v-1429zM647 674l656 -670v-4h-261l-563 565l312 250q131 107 131 166q0 46 -46.5 70t-148.5 30v4h508v-4q-57 -1 -115 -37t-190 -143zM731 -66
q61 0 99 -41t38 -106q0 -70 -54.5 -130t-147.5 -87l-2 4q40 21 66 57t26 74q0 41 -31.5 65t-85.5 27q-14 21 -14 45q0 40 30 66t76 26z" />
    <glyph glyph-name="Lacute" unicode="&#x139;" horiz-adv-x="1515" 
d="M633 1712q-61 -30 -402 -108l-2 4q104 109 190 178.5t136 93.5q20 10 45 10q40 0 67 -27t27 -65q0 -27 -16 -50.5t-45 -35.5zM1470 537l5 -2l-189 -545q-139 10 -395 10h-801v4q133 6 178 48t45 161v1069q0 119 -45 161t-178 48v4h701v-4q-158 -7 -211.5 -55.5
t-53.5 -182.5v-1054q0 -107 27.5 -143t110.5 -36h178q91 0 159 9t128 33t104.5 61t86.5 96.5t77 135t73 182.5z" />
    <glyph glyph-name="lacute" unicode="&#x13a;" horiz-adv-x="653" 
d="M543 1782q-64 -32 -402 -109l-2 4q104 109 190.5 179t135.5 94q20 10 45 10q40 0 67 -27t27 -65q0 -27 -16 -50.5t-45 -35.5zM426 197q0 -110 37 -148.5t151 -44.5v-4h-575v4q112 4 149 43t37 150v1087q0 116 -37 158t-149 49v4q207 62 383 131h4v-1429z" />
    <glyph glyph-name="uni013B" unicode="&#x13b;" horiz-adv-x="1515" 
d="M1470 537l5 -2l-189 -545q-139 10 -395 10h-801v4q133 6 178 48t45 161v1069q0 119 -45 161t-178 48v4h701v-4q-158 -7 -211.5 -55.5t-53.5 -182.5v-1054q0 -107 27.5 -143t110.5 -36h178q91 0 159 9t128 33t104.5 61t86.5 96.5t77 135t73 182.5zM717 -66q61 0 98 -41
t37 -106q0 -70 -55 -130t-148 -87l-2 4q42 20 68 56.5t26 74.5q0 40 -32 64.5t-86 27.5q-13 26 -13 45q0 40 30 66t77 26z" />
    <glyph glyph-name="uni013C" unicode="&#x13c;" horiz-adv-x="653" 
d="M426 197q0 -110 37 -148.5t151 -44.5v-4h-575v4q112 4 149 43t37 150v1087q0 116 -37 158t-149 49v4q207 62 383 131h4v-1429zM311 -66q61 0 99.5 -41t38.5 -106q0 -70 -55 -130t-148 -87l-2 4q40 21 66 57t26 74q0 41 -31.5 65t-85.5 27q-14 21 -14 45q0 40 30 66t76 26
z" />
    <glyph glyph-name="Lcaron" unicode="&#x13d;" horiz-adv-x="1521" 
d="M1217 1341q0 53 -32 89.5t-83 42.5q-21 28 -21 59q0 43 30.5 71.5t76.5 28.5q63 0 101 -47.5t38 -124.5q0 -90 -53.5 -172.5t-140.5 -126.5l-3 2q39 34 63 82.5t24 95.5zM1470 537l5 -2l-189 -545q-139 10 -395 10h-801v4q133 6 178 48t45 161v1069q0 119 -45 161
t-178 48v4h701v-4q-158 -7 -211.5 -55.5t-53.5 -182.5v-1054q0 -107 27.5 -143t110.5 -36h178q91 0 159 9t128 33t104.5 61t86.5 96.5t77 135t73 182.5z" />
    <glyph glyph-name="lcaron" unicode="&#x13e;" horiz-adv-x="671" 
d="M631 1632q63 0 100 -47.5t37 -124.5q0 -89 -53.5 -172t-139.5 -127l-2 2q37 34 60.5 82.5t23.5 95.5q0 53 -30.5 89.5t-81.5 42.5q-23 26 -23 59q0 43 31 71.5t78 28.5zM426 197q0 -110 37 -148.5t151 -44.5v-4h-575v4q112 4 149 43t37 150v1087q0 116 -37 158t-149 49v4
q207 62 383 131h4v-1429z" />
    <glyph glyph-name="Lslash" unicode="&#x141;" horiz-adv-x="1542" 
d="M1497 537l4 -2l-188 -545q-139 10 -395 10h-801v4q133 6 178 48t45 161v446l-199 -100l-14 23l213 106v594q0 119 -45 161t-178 48v4h700v-4q-158 -7 -211 -55.5t-53 -182.5v-467l367 183l12 -23l-379 -190v-557q0 -108 27 -143.5t110 -35.5h178q110 0 188 14.5t143 47.5
t115.5 94.5t94 147t88.5 213.5z" />
    <glyph glyph-name="lslash" unicode="&#x142;" horiz-adv-x="716" 
d="M461 197q0 -110 37 -148.5t151 -44.5v-4h-575v4q112 4 149 43t37 150v587l-162 -106l-14 20l176 115v471q0 116 -37 158t-149 49v4q218 66 383 131h4v-704l170 110l12 -18l-182 -119v-698z" />
    <glyph glyph-name="Nacute" unicode="&#x143;" horiz-adv-x="1722" 
d="M1079 1712q-61 -30 -401 -108l-2 4q104 109 190 178.5t135 93.5q20 10 46 10q40 0 67 -27t27 -65q0 -27 -16.5 -50.5t-45.5 -35.5zM1075 1495h574v-4q-133 -6 -178.5 -48t-45.5 -161v-1302h-4l-1083 1306v-1032q0 -145 64.5 -194.5t261.5 -55.5v-4h-574v4q133 6 178 48
t45 161v1102q0 99 -45 134.5t-178 41.5v4h363l948 -1176v922q0 98 -27.5 148.5t-96 74t-202.5 27.5v4z" />
    <glyph glyph-name="nacute" unicode="&#x144;" horiz-adv-x="1423" 
d="M913 1448q-88 -81 -354 -219l-4 4q144 265 229 350q31 31 72 31q36 0 63 -27t27 -63q0 -43 -33 -76zM1208 197q0 -111 37.5 -150t149.5 -43v-4h-568v4q108 4 144.5 43t36.5 150v596q0 118 -56 178.5t-164 60.5q-78 0 -156.5 -37.5t-174.5 -111.5v-686q0 -111 36 -150
t144 -43v-4h-569v4q113 4 150.5 43t37.5 150v579q0 101 -37 141t-151 60v4q238 63 385 117h4v-191q229 199 442 199q149 0 229 -84t80 -238v-587z" />
    <glyph glyph-name="uni0145" unicode="&#x145;" horiz-adv-x="1722" 
d="M1075 1495h574v-4q-133 -6 -178.5 -48t-45.5 -161v-1302h-4l-1083 1306v-1032q0 -145 64.5 -194.5t261.5 -55.5v-4h-574v4q133 6 178 48t45 161v1102q0 99 -45 134.5t-178 41.5v4h363l948 -1176v922q0 98 -27.5 148.5t-96 74t-202.5 27.5v4zM856 -66q61 0 99 -41t38 -106
q0 -70 -54.5 -130t-147.5 -87l-3 4q41 21 68 57.5t27 73.5q0 40 -32.5 64.5t-86.5 27.5q-14 28 -14 45q0 40 30 66t76 26z" />
    <glyph glyph-name="uni0146" unicode="&#x146;" horiz-adv-x="1423" 
d="M1208 197q0 -111 37.5 -150t149.5 -43v-4h-568v4q108 4 144.5 43t36.5 150v596q0 118 -56 178.5t-164 60.5q-78 0 -156.5 -37.5t-174.5 -111.5v-686q0 -111 36 -150t144 -43v-4h-569v4q113 4 150.5 43t37.5 150v579q0 101 -37 141t-151 60v4q238 63 385 117h4v-191
q229 199 442 199q149 0 229 -84t80 -238v-587zM713 -66q61 0 99 -41t38 -106q0 -70 -55 -130t-148 -87l-2 4q41 21 67.5 57t26.5 74q0 40 -32 64.5t-86 27.5q-15 23 -15 45q0 40 30.5 66t76.5 26z" />
    <glyph glyph-name="Ncaron" unicode="&#x147;" horiz-adv-x="1722" 
d="M864 1604h-4l-305 282l2 4l305 -133l305 133l2 -4zM1075 1495h574v-4q-133 -6 -178.5 -48t-45.5 -161v-1302h-4l-1083 1306v-1032q0 -145 64.5 -194.5t261.5 -55.5v-4h-574v4q133 6 178 48t45 161v1102q0 99 -45 134.5t-178 41.5v4h363l948 -1176v922q0 98 -27.5 148.5
t-96 74t-202.5 27.5v4z" />
    <glyph glyph-name="ncaron" unicode="&#x148;" horiz-adv-x="1423" 
d="M729 1237h-4l-313 371l4 4l311 -203l311 203l4 -4zM1208 197q0 -111 37.5 -150t149.5 -43v-4h-568v4q108 4 144.5 43t36.5 150v596q0 118 -56 178.5t-164 60.5q-78 0 -156.5 -37.5t-174.5 -111.5v-686q0 -111 36 -150t144 -43v-4h-569v4q113 4 150.5 43t37.5 150v579
q0 101 -37 141t-151 60v4q238 63 385 117h4v-191q229 199 442 199q149 0 229 -84t80 -238v-587z" />
    <glyph glyph-name="Eng" unicode="&#x14a;" horiz-adv-x="1718" 
d="M1075 1495h574v-4q-133 -6 -178.5 -48t-45.5 -161v-1014q0 -167 -93 -299.5t-247 -193.5l-2 4q171 79 258 246l-1003 1261v-1032q0 -145 64.5 -194.5t261.5 -55.5v-4h-574v4q133 6 178 48t45 161v1102q0 99 -45 134.5t-178 41.5v4h363l948 -1225v2v969q0 98 -27.5 148.5
t-96 74t-202.5 27.5v4z" />
    <glyph glyph-name="eng" unicode="&#x14b;" horiz-adv-x="1370" 
d="M899 1106q149 0 229 -84t80 -238v-661q0 -206 -102.5 -358t-271.5 -195l-3 4q177 163 177 471v748q0 118 -56 178.5t-164 60.5q-78 0 -156.5 -37.5t-174.5 -111.5v-686q0 -111 36 -150t144 -43v-4h-569v4q113 4 150.5 43t37.5 150v579q0 101 -37 141t-151 60v4
q238 63 385 117h4v-191q229 199 442 199z" />
    <glyph glyph-name="Omacron" unicode="&#x14c;" horiz-adv-x="1761" 
d="M535 1698l4 20h686l-4 -20h-686zM881 -20q-226 0 -399 95.5t-267 270t-94 402.5t94 402.5t267 270t399 95.5q342 0 550.5 -211t208.5 -557t-208.5 -557t-550.5 -211zM881 4q236 0 380 204.5t144 539.5t-144 539t-380 204t-380.5 -204.5t-144.5 -538.5
q0 -335 144.5 -539.5t380.5 -204.5z" />
    <glyph glyph-name="omacron" unicode="&#x14d;" horiz-adv-x="1337" 
d="M324 1448l4 20h686l-4 -20h-686zM668 -20q-255 0 -411.5 155t-156.5 408t156.5 408t411.5 155q256 0 412.5 -154.5t156.5 -408.5t-156.5 -408.5t-412.5 -154.5zM668 4q157 0 252.5 148t95.5 391q0 242 -95.5 390t-252.5 148q-155 0 -250.5 -148.5t-95.5 -389.5
q0 -243 95.5 -391t250.5 -148z" />
    <glyph glyph-name="Ohungarumlaut" unicode="&#x150;" horiz-adv-x="1761" 
d="M598 1589l-2 4q87 125 161.5 208.5t116.5 111.5q27 18 58 18q37 0 64.5 -27t27.5 -65q0 -48 -47 -82q-62 -42 -379 -168zM956 1589l-2 4q86 124 161.5 208t117.5 112q30 18 57 18q37 0 64.5 -27t27.5 -65q0 -51 -47 -82q-62 -42 -379 -168zM881 -20q-226 0 -399 95.5
t-267 270t-94 402.5t94 402.5t267 270t399 95.5q342 0 550.5 -211t208.5 -557t-208.5 -557t-550.5 -211zM881 4q236 0 380 204.5t144 539.5t-144 539t-380 204t-380.5 -204.5t-144.5 -538.5q0 -335 144.5 -539.5t380.5 -204.5z" />
    <glyph glyph-name="ohungarumlaut" unicode="&#x151;" horiz-adv-x="1337" 
d="M455 1229l-4 4q144 265 229 350q36 31 72 31t63 -27t27 -63q0 -43 -33 -76q-92 -84 -354 -219zM772 1229l-4 4q147 266 231 350q31 31 70 31q36 0 64 -27t28 -63q0 -41 -35 -76q-83 -79 -354 -219zM668 -20q-255 0 -411.5 155t-156.5 408t156.5 408t411.5 155
q256 0 412.5 -154.5t156.5 -408.5t-156.5 -408.5t-412.5 -154.5zM668 4q157 0 252.5 148t95.5 391q0 242 -95.5 390t-252.5 148q-155 0 -250.5 -148.5t-95.5 -389.5q0 -243 95.5 -391t250.5 -148z" />
    <glyph glyph-name="OE" unicode="&#x152;" horiz-adv-x="2582" 
d="M2501 537l4 -2l-189 -545q-136 10 -409 10h-967q-244 0 -431 93t-288.5 263t-101.5 392q0 167 59 306t166 236t260 151t336 54h915q263 0 396 10l168 -524l-4 -2q-35 102 -68 174t-74.5 129.5t-87 93t-108 58.5t-135 32t-170.5 9h-297v-697h198q76 0 123.5 14.5t82 55.5
t53.5 106t34 174h4q-6 -220 -6 -370t6 -371h-4q-15 115 -34 183.5t-53.5 112.5t-82 59.5t-123.5 15.5h-198v-559q0 -108 29.5 -143.5t119.5 -35.5h234q141 0 233.5 21.5t167.5 82.5t129 156.5t113 256.5zM983 20h162q70 0 93.5 36t23.5 143v1276h-285q-284 0 -453.5 -199
t-169.5 -528q0 -162 45.5 -297.5t127.5 -230.5t199 -147.5t257 -52.5z" />
    <glyph glyph-name="oe" unicode="&#x153;" horiz-adv-x="2138" 
d="M2046 281l4 -2q-60 -134 -189.5 -216.5t-281.5 -82.5q-160 0 -279 76t-176 212q-64 -136 -185 -212t-282 -76q-251 0 -404 155t-153 408t153 408t404 155q169 0 294 -77.5t186 -215.5q62 138 178.5 215.5t271.5 77.5q204 0 328.5 -118.5t124.5 -313.5h-799q-4 -50 -4 -78
q0 -232 117 -374t309 -142q105 0 212 55.5t171 145.5zM668 2q157 0 252.5 148.5t95.5 392.5t-95.5 392t-252.5 148q-156 0 -251 -148t-95 -392t95 -392.5t251 -148.5zM1577 1081q-134 0 -223 -104t-111 -279h414q88 0 129 35t41 107q0 108 -69 174.5t-181 66.5z" />
    <glyph glyph-name="Racute" unicode="&#x154;" horiz-adv-x="1699" 
d="M991 1712q-61 -30 -401 -108l-2 4q104 109 190 178.5t135 93.5q20 10 45 10q39 0 66 -27.5t27 -64.5q0 -27 -16 -50.5t-44 -35.5zM1065 731q185 -307 292.5 -457t182.5 -207.5t162 -62.5v-4h-238q-59 0 -110.5 21.5t-103.5 66.5t-115 131.5t-132 199.5t-167 288h-11h-299
v-453q0 -141 53.5 -192t211.5 -58v-4h-701v4q133 6 178 48t45 161v1069q0 119 -45 161t-178 48v4h830q238 0 384 -106t146 -279q0 -137 -102.5 -237t-282.5 -142zM805 727q184 0 296.5 103t112.5 272q0 168 -95 270.5t-251 102.5h-342v-748h279z" />
    <glyph glyph-name="racute" unicode="&#x155;" horiz-adv-x="948" 
d="M698 1448q-83 -79 -354 -219l-4 4q147 266 231 350q31 31 70 31q36 0 64 -27t28 -63q0 -41 -35 -76zM535 911q-31 -54 -78 -176v-497q0 -134 45.5 -181t181.5 -53v-4h-616v4q113 4 150.5 43t37.5 150v579q0 101 -37 141t-151 60v4q231 65 376 117h5l8 -307
q100 315 309 315q66 0 105.5 -33.5t39.5 -87.5q0 -38 -22 -74h-354zM639 1047l8 4q-4 0 -8 -4z" />
    <glyph glyph-name="uni0156" unicode="&#x156;" horiz-adv-x="1699" 
d="M1065 731q185 -307 292.5 -457t182.5 -207.5t162 -62.5v-4h-238q-59 0 -110.5 21.5t-103.5 66.5t-115 131.5t-132 199.5t-167 288h-11h-299v-453q0 -141 53.5 -192t211.5 -58v-4h-701v4q133 6 178 48t45 161v1069q0 119 -45 161t-178 48v4h830q238 0 384 -106t146 -279
q0 -137 -102.5 -237t-282.5 -142zM805 727q184 0 296.5 103t112.5 272q0 168 -95 270.5t-251 102.5h-342v-748h279zM922 -66q61 0 99 -41t38 -106q0 -70 -55 -130t-148 -87l-2 4q42 20 68 56.5t26 74.5q0 40 -32.5 64.5t-86.5 27.5q-14 28 -14 45q0 40 30.5 66t76.5 26z" />
    <glyph glyph-name="uni0157" unicode="&#x157;" horiz-adv-x="948" 
d="M535 911q-31 -54 -78 -176v-497q0 -134 45.5 -181t181.5 -53v-4h-616v4q113 4 150.5 43t37.5 150v579q0 101 -37 141t-151 60v4q231 65 376 117h5l8 -307q100 315 309 315q66 0 105.5 -33.5t39.5 -87.5q0 -38 -22 -74h-354zM639 1047l8 4q-4 0 -8 -4zM354 -66
q61 0 98 -41t37 -106q0 -70 -54.5 -130t-147.5 -87l-2 4q42 20 68 56.5t26 74.5q0 40 -32.5 64.5t-86.5 27.5q-14 28 -14 45q0 40 30.5 66t77.5 26z" />
    <glyph glyph-name="Rcaron" unicode="&#x158;" horiz-adv-x="1699" 
d="M776 1604h-4l-305 282l2 4l305 -133l305 133l2 -4zM1065 731q185 -307 292.5 -457t182.5 -207.5t162 -62.5v-4h-238q-59 0 -110.5 21.5t-103.5 66.5t-115 131.5t-132 199.5t-167 288h-11h-299v-453q0 -141 53.5 -192t211.5 -58v-4h-701v4q133 6 178 48t45 161v1069
q0 119 -45 161t-178 48v4h830q238 0 384 -106t146 -279q0 -137 -102.5 -237t-282.5 -142zM805 727q184 0 296.5 103t112.5 272q0 168 -95 270.5t-251 102.5h-342v-748h279z" />
    <glyph glyph-name="rcaron" unicode="&#x159;" horiz-adv-x="948" 
d="M516 1237h-4l-313 371l4 4l311 -203l309 203l4 -4zM535 911q-31 -54 -78 -176v-497q0 -134 45.5 -181t181.5 -53v-4h-616v4q113 4 150.5 43t37.5 150v579q0 101 -37 141t-151 60v4q231 65 376 117h5l8 -307q100 315 309 315q66 0 105.5 -33.5t39.5 -87.5q0 -38 -22 -74
h-354zM639 1047l8 4q-4 0 -8 -4z" />
    <glyph glyph-name="Sacute" unicode="&#x15a;" horiz-adv-x="1433" 
d="M506 1604l-2 4q104 109 190 178.5t135 93.5q20 10 45 10q39 0 66 -27.5t27 -64.5q0 -27 -16 -50.5t-44 -35.5q-61 -30 -401 -108zM721 -20q-82 0 -159 17.5t-135.5 35.5t-94.5 18q-34 0 -57 -13t-52 -48h-4l-115 536l5 2q79 -241 243.5 -382.5t360.5 -141.5q199 0 306 86
t107 238q0 43 -13 81t-33 66.5t-55 55.5t-67 45t-82.5 38.5t-88 33t-95.5 30.5q-207 67 -295 114q-191 101 -225 267q-8 39 -8 82q0 171 139 273t369 102q77 0 150 -19t129 -38t93 -19q33 0 54 14t41 51h4l131 -510l-4 -2q-81 223 -247.5 360.5t-350.5 137.5
q-148 0 -235 -72t-87 -194q0 -45 14 -84t34 -68t57.5 -57t70 -47t86 -40.5t91 -34t98.5 -32.5q69 -22 109 -36t102 -40t99 -48t81 -57t68 -71.5t40.5 -86.5t16.5 -107q0 -202 -157.5 -319t-438.5 -117z" />
    <glyph glyph-name="sacute" unicode="&#x15b;" horiz-adv-x="1112" 
d="M385 1229l-4 4q147 266 231 350q31 31 70 31q37 0 64.5 -26.5t27.5 -63.5q0 -43 -33 -76q-37 -34 -130 -92t-226 -127zM563 -20q-72 0 -135.5 17t-105.5 34.5t-62 17.5q-22 0 -40.5 -13t-41.5 -46h-4l-82 393l4 2q63 -176 188.5 -278.5t272.5 -102.5q138 0 211.5 58.5
t73.5 162.5q0 38 -18 70.5t-44.5 55.5t-71 45.5t-83 36.5t-95.5 32q-53 17 -84 27.5t-79 29.5t-76.5 35.5t-62.5 42t-52.5 53t-31.5 64t-13 78.5q0 141 109.5 226t291.5 85q77 0 168 -29.5t111 -29.5q24 0 41 10.5t35 38.5h4l88 -379l-4 -2q-54 163 -177 264.5t-263 101.5
q-110 0 -177 -53.5t-67 -142.5q0 -39 18.5 -72.5t45.5 -57.5t73.5 -47.5t86 -38t99.5 -34.5q52 -17 83.5 -28t79.5 -30.5t77 -36.5t63.5 -42.5t53.5 -52.5t32 -62.5t13 -75.5q0 -152 -120 -239.5t-333 -87.5z" />
    <glyph glyph-name="Scedilla" unicode="&#x15e;" horiz-adv-x="1433" 
d="M1317 416q0 -200 -153.5 -316.5t-428.5 -119.5l-30 -41q188 -107 188 -215q0 -69 -69.5 -110t-196.5 -44v4q63 9 98 38t35 71q0 40 -36.5 85.5t-102.5 88.5l86 123q-78 2 -152.5 19.5t-130.5 34.5t-92 17q-34 0 -57 -13t-52 -48h-4l-115 536l5 2q79 -241 243.5 -382.5
t360.5 -141.5q199 0 306 86t107 238q0 43 -13 81t-33 66.5t-55 55.5t-67 45t-82.5 38.5t-88 33t-95.5 30.5q-207 67 -295 114q-191 101 -225 267q-8 39 -8 82q0 171 139 273t369 102q77 0 150 -19t129 -38t93 -19q33 0 54 14t41 51h4l131 -510l-4 -2q-81 223 -247.5 360.5
t-350.5 137.5q-148 0 -235 -72t-87 -194q0 -45 14 -84t34 -68t57.5 -57t70 -47t86 -40.5t91 -34t98.5 -32.5q69 -22 109 -36t102 -40t99 -48t81 -57t68 -71.5t40.5 -86.5t16.5 -107z" />
    <glyph glyph-name="scedilla" unicode="&#x15f;" horiz-adv-x="1112" 
d="M1016 307q0 -150 -117.5 -238t-325.5 -89l-30 -41q190 -106 190 -215q0 -69 -70 -110t-196 -44v4q61 9 96 38.5t35 70.5q0 40 -36.5 85.5t-102.5 88.5l88 123q-68 2 -128 19t-99.5 33.5t-59.5 16.5q-22 0 -40.5 -13t-41.5 -46h-4l-82 393l4 2q63 -176 188.5 -278.5
t272.5 -102.5q138 0 211.5 58.5t73.5 162.5q0 38 -18 70.5t-44.5 55.5t-71 45.5t-83 36.5t-95.5 32q-53 17 -84 27.5t-79 29.5t-76.5 35.5t-62.5 42t-52.5 53t-31.5 64t-13 78.5q0 141 109.5 226t291.5 85q77 0 168 -29.5t111 -29.5q24 0 41 10.5t35 38.5h4l88 -379l-4 -2
q-54 163 -177 264.5t-263 101.5q-110 0 -177 -53.5t-67 -142.5q0 -39 18.5 -72.5t45.5 -57.5t73.5 -47.5t86 -38t99.5 -34.5q52 -17 83.5 -28t79.5 -30.5t77 -36.5t63.5 -42.5t53.5 -52.5t32 -62.5t13 -75.5z" />
    <glyph glyph-name="Scaron" unicode="&#x160;" horiz-adv-x="1433" 
d="M692 1604h-4l-305 282l2 4l305 -133l305 133l2 -4zM801 862q69 -22 109 -36t102 -40t99 -48t81 -57t68 -71.5t40.5 -86.5t16.5 -107q0 -202 -157.5 -319t-438.5 -117q-82 0 -159 17.5t-135.5 35.5t-94.5 18q-34 0 -57 -13t-52 -48h-4l-115 536l5 2q79 -241 243.5 -382.5
t360.5 -141.5q199 0 306 86t107 238q0 43 -13 81t-33 66.5t-55 55.5t-67 45t-82.5 38.5t-88 33t-95.5 30.5q-207 67 -295 114q-191 101 -225 267q-8 39 -8 82q0 171 139 273t369 102q77 0 150 -19t129 -38t93 -19q33 0 54 14t41 51h4l131 -510l-4 -2q-81 223 -247.5 360.5
t-350.5 137.5q-148 0 -235 -72t-87 -194q0 -45 14 -84t34 -68t57.5 -57t70 -47t86 -40.5t91 -34t98.5 -32.5z" />
    <glyph glyph-name="scaron" unicode="&#x161;" horiz-adv-x="1112" 
d="M557 1237h-4l-313 371l4 4l311 -203l311 203l4 -4zM614 635q52 -17 83.5 -28t79.5 -30.5t77 -36.5t63.5 -42.5t53.5 -52.5t32 -62.5t13 -75.5q0 -152 -120 -239.5t-333 -87.5q-72 0 -135.5 17t-105.5 34.5t-62 17.5q-22 0 -40.5 -13t-41.5 -46h-4l-82 393l4 2
q63 -176 188.5 -278.5t272.5 -102.5q138 0 211.5 58.5t73.5 162.5q0 38 -18 70.5t-44.5 55.5t-71 45.5t-83 36.5t-95.5 32q-53 17 -84 27.5t-79 29.5t-76.5 35.5t-62.5 42t-52.5 53t-31.5 64t-13 78.5q0 141 109.5 226t291.5 85q77 0 168 -29.5t111 -29.5q24 0 41 10.5
t35 38.5h4l88 -379l-4 -2q-54 163 -177 264.5t-263 101.5q-110 0 -177 -53.5t-67 -142.5q0 -39 18.5 -72.5t45.5 -57.5t73.5 -47.5t86 -38t99.5 -34.5z" />
    <glyph glyph-name="uni0162" unicode="&#x162;" horiz-adv-x="1523" 
d="M1305 1526l174 -545l-4 -2q-78 203 -147.5 306.5t-159.5 146.5t-234 43h-66v-1235q0 -136 50.5 -183t205.5 -53v-4h-348l-45 -61q191 -109 191 -215q0 -69 -71 -110t-198 -44v4q63 9 98 38t35 71q0 40 -36.5 85.5t-102.5 88.5l103 143h-351v4q155 6 205.5 53t50.5 183
v1235h-63q-109 0 -182.5 -21t-137 -80t-113 -150t-108.5 -245l-4 2l172 545h4q73 -19 163 -25t284 -6h184q195 0 284 6t162 25h5z" />
    <glyph glyph-name="uni0163" unicode="&#x163;" horiz-adv-x="837" 
d="M537 82q68 0 140.5 40.5t123.5 106.5l2 -2q-57 -112 -153.5 -179.5t-196.5 -67.5q-35 0 -70 6l-35 -47q191 -107 191 -215q0 -69 -71 -110t-198 -44v4q63 9 98 38t35 71q0 40 -36.5 85.5t-102.5 88.5l96 135q-65 22 -101 74.5t-36 128.5v870h-186v4q140 50 223 108.5
t160 157.5h4v-250h379l-4 -20h-375v-844q0 -76 24.5 -107.5t88.5 -31.5z" />
    <glyph glyph-name="Tcaron" unicode="&#x164;" horiz-adv-x="1523" 
d="M764 1604h-4l-305 282l2 4l305 -133l305 133l2 -4zM1305 1526l174 -545l-4 -2q-78 203 -147.5 306.5t-159.5 146.5t-234 43h-66v-1235q0 -136 50.5 -183t205.5 -53v-4h-725v4q155 6 205.5 53t50.5 183v1235h-63q-109 0 -182.5 -21t-137 -80t-113 -150t-108.5 -245l-4 2
l172 545h4q73 -19 163 -25t284 -6h184q195 0 284 6t162 25h5z" />
    <glyph glyph-name="tcaron" unicode="&#x165;" horiz-adv-x="837" 
d="M750 1341q0 53 -32 89.5t-83 42.5q-21 28 -21 59q0 43 30.5 71.5t76.5 28.5q63 0 100 -47.5t37 -124.5q0 -90 -52.5 -172.5t-139.5 -126.5l-2 2q39 34 62.5 82.5t23.5 95.5zM799 1065h-375v-844q0 -76 24.5 -107.5t88.5 -31.5q68 0 140.5 40.5t123.5 106.5l2 -2
q-57 -112 -153.5 -179.5t-196.5 -67.5q-108 0 -169 57t-61 158v870h-186v4q140 50 223 108.5t160 157.5h4v-250h379z" />
    <glyph glyph-name="Tbar" unicode="&#x166;" horiz-adv-x="1523" 
d="M1305 1526l174 -545l-4 -2q-78 203 -147.5 306.5t-159.5 146.5t-234 43h-66v-719h326l-4 -21h-322v-495q0 -136 50.5 -183t205.5 -53v-4h-725v4q155 6 205.5 53t50.5 183v495h-323l4 21h319v719h-63q-109 0 -182.5 -21t-137 -80t-113 -150t-108.5 -245l-4 2l172 545h4
q73 -19 163 -25t284 -6h184q195 0 284 6t162 25h5z" />
    <glyph glyph-name="tbar" unicode="&#x167;" horiz-adv-x="845" 
d="M541 82q69 0 141 40.5t123 106.5l4 -2q-57 -112 -153.5 -179.5t-198.5 -67.5q-107 0 -167.5 57t-60.5 158v487h-172l4 20h168v363h-188v4q140 51 224 109t159 157h4v-250h381l-4 -20h-375v-363h348l-4 -20h-344v-461q0 -77 24 -108t87 -31z" />
    <glyph glyph-name="Umacron" unicode="&#x16a;" horiz-adv-x="1724" 
d="M1268 1718l-4 -20h-686l4 20h686zM1659 1495v-4q-133 -6 -178 -48t-45 -161v-801q0 -226 -140 -363.5t-370 -137.5q-306 0 -472.5 136t-166.5 384v782q0 119 -45.5 161t-178.5 48v4h701v-4q-158 -6 -211 -54t-53 -182v-792q0 -206 118.5 -332.5t311.5 -126.5
q217 0 349 131t132 346v760q0 98 -27.5 148.5t-96 74t-202.5 27.5v4h574z" />
    <glyph glyph-name="umacron" unicode="&#x16b;" horiz-adv-x="1384" 
d="M1026 1468l-4 -20h-686l4 20h686zM1157 254q0 -109 37 -148t149 -43v-4q-177 -28 -382 -79h-5v194q-211 -194 -434 -194q-142 0 -219.5 79t-77.5 222v495q0 101 -37.5 141t-150.5 60v4q247 69 385 117h4v-819q0 -113 52.5 -171.5t154.5 -58.5q75 0 151.5 38t171.5 112
v577q0 101 -37 141t-151 60v4q247 69 385 117h4v-844z" />
    <glyph glyph-name="Uring" unicode="&#x16e;" horiz-adv-x="1724" 
d="M922 1573q-97 0 -156 55t-59 146t59 145.5t156 54.5q98 0 157.5 -54.5t59.5 -145.5t-59.5 -146t-157.5 -55zM922 1950q-84 0 -135.5 -49t-51.5 -127q0 -79 51.5 -128t135.5 -49t136 49.5t52 127.5t-52 127t-136 49zM1659 1495v-4q-133 -6 -178 -48t-45 -161v-801
q0 -226 -140 -363.5t-370 -137.5q-306 0 -472.5 136t-166.5 384v782q0 119 -45.5 161t-178.5 48v4h701v-4q-158 -6 -211 -54t-53 -182v-792q0 -206 118.5 -332.5t311.5 -126.5q217 0 349 131t132 346v760q0 98 -27.5 148.5t-96 74t-202.5 27.5v4h574z" />
    <glyph glyph-name="uring" unicode="&#x16f;" horiz-adv-x="1384" 
d="M682 1214q-97 0 -156 54.5t-59 144.5q0 91 59 146t156 55t156 -55t59 -146q0 -90 -59 -144.5t-156 -54.5zM682 1589q-85 0 -135.5 -48t-50.5 -128q0 -78 51 -126t135 -48t135 48t51 126q0 80 -50.5 128t-135.5 48zM1157 254q0 -109 37 -148t149 -43v-4q-177 -28 -382 -79
h-5v194q-211 -194 -434 -194q-142 0 -219.5 79t-77.5 222v495q0 101 -37.5 141t-150.5 60v4q247 69 385 117h4v-819q0 -113 52.5 -171.5t154.5 -58.5q75 0 151.5 38t171.5 112v577q0 101 -37 141t-151 60v4q247 69 385 117h4v-844z" />
    <glyph glyph-name="Uhungarumlaut" unicode="&#x170;" horiz-adv-x="1724" 
d="M1018 1757q-62 -42 -379 -168l-2 4q87 125 161.5 208.5t116.5 111.5q27 18 58 18q37 0 64.5 -27t27.5 -65q0 -51 -47 -82zM997 1589l-2 4q88 125 163 208.5t116 111.5q30 18 59 18q36 0 64 -27t28 -65q0 -48 -47 -82q-65 -43 -381 -168zM1659 1495v-4q-133 -6 -178 -48
t-45 -161v-801q0 -226 -140 -363.5t-370 -137.5q-306 0 -472.5 136t-166.5 384v782q0 119 -45.5 161t-178.5 48v4h701v-4q-158 -6 -211 -54t-53 -182v-792q0 -206 118.5 -332.5t311.5 -126.5q217 0 349 131t132 346v760q0 98 -27.5 148.5t-96 74t-202.5 27.5v4h574z" />
    <glyph glyph-name="uhungarumlaut" unicode="&#x171;" horiz-adv-x="1384" 
d="M823 1448q-37 -34 -130 -92t-226 -127l-4 4q147 266 231 350q31 31 70 31q36 0 64 -27t28 -63q0 -38 -33 -76zM786 1229l-4 4q142 262 230 350q36 31 71 31q36 0 63.5 -27t27.5 -63q0 -43 -33 -76q-87 -79 -355 -219zM1157 254q0 -109 37 -148t149 -43v-4
q-177 -28 -382 -79h-5v194q-211 -194 -434 -194q-142 0 -219.5 79t-77.5 222v495q0 101 -37.5 141t-150.5 60v4q247 69 385 117h4v-819q0 -113 52.5 -171.5t154.5 -58.5q75 0 151.5 38t171.5 112v577q0 101 -37 141t-151 60v4q247 69 385 117h4v-844z" />
    <glyph glyph-name="Uogonek" unicode="&#x172;" horiz-adv-x="1724" 
d="M1659 1495v-4q-133 -6 -178 -48t-45 -161v-801q0 -196 -107 -327.5t-289 -163.5q-102 -61 -164.5 -135t-62.5 -136q0 -40 31 -66t80 -26q79 0 153 51l2 -4q-102 -94 -235 -94q-85 0 -138 35.5t-53 95.5q0 74 92.5 146t251.5 127q-46 -4 -71 -4q-306 0 -472.5 136
t-166.5 384v782q0 119 -45.5 161t-178.5 48v4h701v-4q-158 -6 -211 -54t-53 -182v-792q0 -206 118.5 -332.5t311.5 -126.5q217 0 349 131t132 346v760q0 98 -27.5 148.5t-96 74t-202.5 27.5v4h574z" />
    <glyph glyph-name="uogonek" unicode="&#x173;" horiz-adv-x="1386" 
d="M1343 59q-147 -85 -223 -174.5t-76 -165.5q0 -40 31 -66t78 -26q89 0 154 51l2 -4q-102 -94 -236 -94q-85 0 -137.5 36.5t-52.5 96.5q0 88 111.5 176.5t324.5 165.5q-160 -26 -358 -75h-5v194q-211 -194 -434 -194q-142 0 -219.5 79t-77.5 222v495q0 101 -37.5 141
t-150.5 60v4q247 69 385 117h4v-819q0 -113 52.5 -171.5t154.5 -58.5q75 0 151.5 38t171.5 112v577q0 101 -37 141t-151 60v4q247 69 385 117h4v-844q0 -109 37 -148t149 -43v-4z" />
    <glyph glyph-name="Wcircumflex" unicode="&#x174;" horiz-adv-x="2377" 
d="M1255 1739l-305 -135l-2 4l305 282h4l306 -282l-2 -4zM1817 1495h567v-4q-107 -12 -164 -72t-119 -231l-432 -1208h-39l-444 1208l-436 -1208h-39l-480 1314q-29 80 -55.5 119t-66.5 56.5t-113 21.5v4h713v-4q-138 -12 -191 -42.5t-53 -100.5q0 -40 24 -101l342 -971
l340 949v2l105 289h4l461 -1258l301 860q55 145 55 205q0 90 -61 125t-219 43v4z" />
    <glyph glyph-name="wcircumflex" unicode="&#x175;" horiz-adv-x="1916" 
d="M1028 1442l-311 -203l-4 4l313 371h4l313 -371l-4 -4zM1415 1085h504v-4q-86 -12 -137.5 -72.5t-118.5 -230.5l-324 -798h-39l-342 843l-344 -843h-36l-371 905q-45 111 -85 150.5t-118 45.5v4h635v-4q-122 -12 -170.5 -40.5t-48.5 -92.5q0 -29 31 -110l235 -623l363 891
h4l358 -895l195 506q61 144 61 207q0 83 -56.5 116t-195.5 41v4z" />
    <glyph glyph-name="Ycircumflex" unicode="&#x176;" horiz-adv-x="1579" 
d="M858 1739l-307 -135l-2 4l305 282h4l307 -282l-2 -4zM954 1495h635v-4q-111 -11 -201 -85.5t-206 -275.5l-283 -485v-405q0 -136 50.5 -183t205.5 -53v-4h-725v4q155 6 205.5 53t50.5 183v403l-367 606q-83 136 -138 184.5t-142 57.5v4h731v-4q-131 -10 -184.5 -39.5
t-53.5 -89.5q0 -44 68 -160l297 -512l254 438q98 168 98 220q0 71 -67 103.5t-228 39.5v4z" />
    <glyph glyph-name="ycircumflex" unicode="&#x177;" horiz-adv-x="1290" 
d="M702 1442l-311 -203l-4 4l313 371h5l313 -371l-4 -4zM815 1085h475v-4q-81 -11 -127 -69t-127 -234l-475 -1022q-83 -186 -293 -186q-61 0 -99 29t-38 75q0 34 12 58l383 2q12 21 25 47l82 182l-426 922q-53 114 -89.5 152t-111.5 44v4h574v-4q-90 -8 -128 -35t-38 -90
q0 -40 37 -118l290 -639l236 516q67 140 67 209q0 80 -53.5 114.5t-175.5 42.5v4z" />
    <glyph glyph-name="Ydieresis" unicode="&#x178;" horiz-adv-x="1579" 
d="M651 1659q-50 0 -83 33t-33 84q0 49 33 81.5t83 32.5q51 0 84 -32t33 -82q0 -51 -33 -84t-84 -33zM1061 1659q-50 0 -83.5 33t-33.5 84q0 49 33.5 81.5t83.5 32.5q51 0 84 -32t33 -82q0 -51 -33 -84t-84 -33zM954 1495h635v-4q-111 -11 -201 -85.5t-206 -275.5l-283 -485
v-405q0 -136 50.5 -183t205.5 -53v-4h-725v4q155 6 205.5 53t50.5 183v403l-367 606q-83 136 -138 184.5t-142 57.5v4h731v-4q-131 -10 -184.5 -39.5t-53.5 -89.5q0 -44 68 -160l297 -512l254 438q98 168 98 220q0 71 -67 103.5t-228 39.5v4z" />
    <glyph glyph-name="Zacute" unicode="&#x179;" horiz-adv-x="1552" 
d="M1034 1712q-67 -32 -403 -108l-2 4q106 111 192 180t135 92q17 10 45 10q39 0 66 -27.5t27 -64.5q0 -27 -16 -50.5t-44 -35.5zM1444 530h4l-80 -540q-215 10 -729 10h-555l-2 6l1089 1469h-522q-110 0 -183.5 -21.5t-137 -81t-112.5 -152.5t-107 -249l-5 2l158 532
q195 -10 680 -10h490l2 -6l-1092 -1469h586q98 0 167 14.5t124 47t94.5 93.5t70.5 145t60 210z" />
    <glyph glyph-name="zacute" unicode="&#x17a;" horiz-adv-x="1181" 
d="M817 1448q-83 -79 -354 -219l-4 4q144 265 229 350q36 31 72 31t63 -27t27 -63q0 -43 -33 -76zM709 20q152 0 240 84.5t132 272.5h4l-49 -387q-177 10 -559 10h-399l-2 4l762 1061h-342q-144 0 -236.5 -86.5t-155.5 -280.5l-4 2l97 396q169 -11 530 -11h356l2 -4
l-761 -1061h385z" />
    <glyph glyph-name="Zdotaccent" unicode="&#x17b;" horiz-adv-x="1552" 
d="M817 1647q-60 0 -98.5 38t-38.5 95q0 59 38.5 97t98.5 38q59 0 98 -38.5t39 -96.5q0 -57 -39 -95t-98 -38zM1444 530h4l-80 -540q-215 10 -729 10h-555l-2 6l1089 1469h-522q-110 0 -183.5 -21.5t-137 -81t-112.5 -152.5t-107 -249l-5 2l158 532q195 -10 680 -10h490
l2 -6l-1092 -1469h586q98 0 167 14.5t124 47t94.5 93.5t70.5 145t60 210z" />
    <glyph glyph-name="zdotaccent" unicode="&#x17c;" horiz-adv-x="1181" 
d="M631 1348q-59 0 -98 37.5t-39 95.5q0 57 39 95t98 38q60 0 99.5 -38t39.5 -95q0 -58 -39.5 -95.5t-99.5 -37.5zM709 20q152 0 240 84.5t132 272.5h4l-49 -387q-177 10 -559 10h-399l-2 4l762 1061h-342q-144 0 -236.5 -86.5t-155.5 -280.5l-4 2l97 396q169 -11 530 -11
h356l2 -4l-761 -1061h385z" />
    <glyph glyph-name="Zcaron" unicode="&#x17d;" horiz-adv-x="1552" 
d="M819 1604h-4l-305 282l2 4l305 -133l305 133l2 -4zM1444 530h4l-80 -540q-215 10 -729 10h-555l-2 6l1089 1469h-522q-110 0 -183.5 -21.5t-137 -81t-112.5 -152.5t-107 -249l-5 2l158 532q195 -10 680 -10h490l2 -6l-1092 -1469h586q98 0 167 14.5t124 47t94.5 93.5
t70.5 145t60 210z" />
    <glyph glyph-name="zcaron" unicode="&#x17e;" horiz-adv-x="1181" 
d="M633 1237h-4l-312 371l5 4l311 -203l309 203l4 -4zM709 20q152 0 240 84.5t132 272.5h4l-49 -387q-177 10 -559 10h-399l-2 4l762 1061h-342q-144 0 -236.5 -86.5t-155.5 -280.5l-4 2l97 396q169 -11 530 -11h356l2 -4l-761 -1061h385z" />
    <glyph glyph-name="florin" unicode="&#x192;" horiz-adv-x="1021" 
d="M932 780l-4 -20h-301q71 -145 71 -285q0 -117 -58 -231.5t-157.5 -189t-208.5 -74.5q-61 0 -100 31t-39 81q0 28 15 62h397q31 58 31 137q0 82 -35.5 161.5t-108.5 198.5q-32 57 -55 109h-289l4 20h277q-49 123 -49 236q0 85 35 174.5t92.5 161.5t137 118t161.5 46
q59 0 98 -32t39 -81q0 -27 -13 -62h-401q-35 -61 -35 -149q0 -18 3 -37.5t6 -35.5t11.5 -38.5t12.5 -35t17.5 -38t18 -35t21 -37.5t20.5 -34.5t23 -37t21 -34.5q8 -12 26 -49h316z" />
    <glyph glyph-name="AEacute" unicode="&#x1fc;" horiz-adv-x="2439" 
d="M1661 1712q-64 -32 -401 -108l-3 4q104 109 190 178.5t136 93.5q20 10 45 10q40 0 67 -27t27 -65q0 -27 -16 -50.5t-45 -35.5zM2357 537l4 -2l-188 -545q-136 10 -410 10h-868v4q133 6 178 48t45 161v545h-573l-185 -398q-73 -162 -73 -219q0 -70 59.5 -100.5
t202.5 -36.5v-4h-553v4q106 11 172.5 74.5t142.5 228.5l551 1188h850q263 0 395 10l168 -524l-4 -2q-35 102 -68 174t-74.5 129.5t-87 93t-108 58.5t-135 32t-170.5 9h-297v-697h199q76 0 123.5 14.5t82 55.5t53.5 106t34 174h4q-6 -220 -6 -370t6 -371h-4
q-15 115 -34 183.5t-53.5 112.5t-82 59.5t-123.5 15.5h-199v-559q0 -108 29.5 -143.5t120.5 -35.5h233q141 0 233.5 21.5t167.5 82.5t129 156.5t113 256.5zM555 778h563v504q0 108 -48.5 148t-190.5 47z" />
    <glyph glyph-name="aeacute" unicode="&#x1fd;" horiz-adv-x="1908" 
d="M1206 1448q-37 -34 -130 -92t-226 -127l-4 4q147 266 231 350q31 31 70 31q36 0 64 -27t28 -63q0 -38 -33 -76zM1817 281l4 -2q-63 -134 -196.5 -216.5t-289.5 -82.5q-157 0 -276.5 67.5t-184.5 190.5q-246 -258 -493 -258q-134 0 -212.5 59t-78.5 158q0 83 69 144
t234 122l414 153v211q0 114 -57.5 176t-161.5 62q-127 0 -236 -78v-336q-44 -26 -94 -26q-48 0 -77 29t-29 81q0 106 83 193.5t198 132.5t226 45q117 0 190.5 -57t96.5 -164q67 106 173 163.5t239 57.5q204 0 327 -118.5t123 -313.5h-796q-4 -50 -4 -78q0 -232 116 -374
t308 -142q106 0 212.5 55.5t172.5 145.5zM1346 1081q-132 0 -221 -104t-111 -279h413q88 0 129 35t41 107q0 108 -69 174.5t-182 66.5zM481 51q92 0 182.5 53t198.5 156q-55 123 -55 268v64l-215 -80q-287 -109 -287 -287q0 -78 49 -126t127 -48z" />
    <glyph glyph-name="uni0218" unicode="&#x218;" horiz-adv-x="1433" 
d="M721 -20q-82 0 -159 17.5t-135.5 35.5t-94.5 18q-34 0 -57 -13t-52 -48h-4l-115 536l5 2q79 -241 243.5 -382.5t360.5 -141.5q199 0 306 86t107 238q0 43 -13 81t-33 66.5t-55 55.5t-67 45t-82.5 38.5t-88 33t-95.5 30.5q-207 67 -295 114q-191 101 -225 267q-8 39 -8 82
q0 171 139 273t369 102q77 0 150 -19t129 -38t93 -19q33 0 54 14t41 51h4l131 -510l-4 -2q-81 223 -247.5 360.5t-350.5 137.5q-148 0 -235 -72t-87 -194q0 -45 14 -84t34 -68t57.5 -57t70 -47t86 -40.5t91 -34t98.5 -32.5q69 -22 109 -36t102 -40t99 -48t81 -57t68 -71.5
t40.5 -86.5t16.5 -107q0 -202 -157.5 -319t-438.5 -117zM653 -430l-2 4q42 20 68 56.5t26 74.5q0 40 -32 64.5t-86 27.5q-13 26 -13 45q0 40 30.5 66t76.5 26q61 0 99 -41t38 -106q0 -70 -55.5 -130t-149.5 -87z" />
    <glyph glyph-name="uni0219" unicode="&#x219;" horiz-adv-x="1112" 
d="M563 -20q-72 0 -135.5 17t-105.5 34.5t-62 17.5q-22 0 -40.5 -13t-41.5 -46h-4l-82 393l4 2q63 -176 188.5 -278.5t272.5 -102.5q138 0 211.5 58.5t73.5 162.5q0 38 -18 70.5t-44.5 55.5t-71 45.5t-83 36.5t-95.5 32q-53 17 -84 27.5t-79 29.5t-76.5 35.5t-62.5 42
t-52.5 53t-31.5 64t-13 78.5q0 141 109.5 226t291.5 85q77 0 168 -29.5t111 -29.5q24 0 41 10.5t35 38.5h4l88 -379l-4 -2q-54 163 -177 264.5t-263 101.5q-110 0 -177 -53.5t-67 -142.5q0 -39 18.5 -72.5t45.5 -57.5t73.5 -47.5t86 -38t99.5 -34.5q52 -17 83.5 -28
t79.5 -30.5t77 -36.5t63.5 -42.5t53.5 -52.5t32 -62.5t13 -75.5q0 -152 -120 -239.5t-333 -87.5zM494 -430l-2 4q41 21 67.5 57t26.5 74q0 40 -32.5 64.5t-86.5 27.5q-14 21 -14 45q0 40 30 66t76 26q61 0 99 -41t38 -106q0 -70 -54.5 -130t-147.5 -87z" />
    <glyph glyph-name="uni021A" unicode="&#x21a;" horiz-adv-x="1523" 
d="M1305 1526l174 -545l-4 -2q-78 203 -147.5 306.5t-159.5 146.5t-234 43h-66v-1235q0 -136 50.5 -183t205.5 -53v-4h-725v4q155 6 205.5 53t50.5 183v1235h-63q-109 0 -182.5 -21t-137 -80t-113 -150t-108.5 -245l-4 2l172 545h4q73 -19 163 -25t284 -6h184q195 0 284 6
t162 25h5zM748 -66q61 0 99 -41t38 -106q0 -70 -55 -130t-148 -87l-2 4q40 21 66 57t26 74q0 41 -31.5 65t-85.5 27q-14 21 -14 45q0 40 30.5 66t76.5 26z" />
    <glyph glyph-name="uni021B" unicode="&#x21b;" horiz-adv-x="837" 
d="M537 82q68 0 140.5 40.5t123.5 106.5l2 -2q-57 -112 -153.5 -179.5t-196.5 -67.5q-108 0 -169 57t-61 158v870h-186v4q140 50 223 108.5t160 157.5h4v-250h379l-4 -20h-375v-844q0 -76 24.5 -107.5t88.5 -31.5zM365 -66q61 0 99 -41t38 -106q0 -70 -55 -130t-148 -87
l-2 4q41 21 67.5 57t26.5 74q0 40 -32.5 64.5t-86.5 27.5q-14 21 -14 45q0 40 30.5 66t76.5 26z" />
    <glyph glyph-name="uni0237" unicode="&#x237;" horiz-adv-x="608" 
d="M59 -430l-2 4q174 145 174 471v731q0 101 -37 141t-151 60v4q247 69 385 117h4v-975q0 -207 -103 -359.5t-270 -193.5z" />
    <glyph glyph-name="circumflex" unicode="&#x2c6;" horiz-adv-x="1130" 
d="M881 1243l-4 -4l-312 203l-311 -203l-4 4l313 371h4z" />
    <glyph glyph-name="caron" unicode="&#x2c7;" horiz-adv-x="1130" 
d="M877 1612l4 -4l-314 -371h-4l-313 371l4 4l311 -203z" />
    <glyph glyph-name="breve" unicode="&#x2d8;" horiz-adv-x="1105" 
d="M553 1239q-105 0 -191.5 99t-130.5 270l5 2q54 -105 138 -167.5t179 -62.5t179 62.5t138 167.5l4 -2q-44 -171 -130.5 -270t-190.5 -99z" />
    <glyph glyph-name="dotaccent" unicode="&#x2d9;" horiz-adv-x="718" 
d="M360 1348q-60 0 -99.5 37.5t-39.5 95.5q0 57 39.5 95t99.5 38q59 0 98.5 -38t39.5 -95q0 -58 -39.5 -95.5t-98.5 -37.5z" />
    <glyph glyph-name="ring" unicode="&#x2da;" horiz-adv-x="1105" 
d="M553 1214q-97 0 -156 54.5t-59 144.5q0 91 59 146t156 55t156 -55t59 -146q0 -90 -59 -144.5t-156 -54.5zM553 1239q84 0 135 48t51 126q0 80 -50.5 128t-135.5 48t-135.5 -48t-50.5 -128q0 -78 51 -126t135 -48z" />
    <glyph glyph-name="ogonek" unicode="&#x2db;" horiz-adv-x="1062" 
d="M489 -420q-85 0 -137.5 35.5t-52.5 95.5q0 81 109.5 158.5t293.5 132.5l5 -2q-110 -60 -178 -137.5t-68 -143.5q0 -40 30.5 -66t77.5 -26q84 0 154 51l2 -4q-102 -94 -236 -94z" />
    <glyph glyph-name="tilde" unicode="&#x2dc;" horiz-adv-x="1226" 
d="M772 1288q-49 0 -93.5 20t-100.5 58q-37 23 -60.5 36t-57 24.5t-63.5 11.5q-109 0 -155 -133l-4 2q13 108 73 186t144 78q44 0 87 -19.5t101 -56.5q38 -24 61.5 -37t58.5 -25t66 -12q110 0 156 133l4 -2q-13 -108 -73 -186t-144 -78z" />
    <glyph glyph-name="hungarumlaut" unicode="&#x2dd;" horiz-adv-x="1081" 
d="M197 1229l-4 4q144 265 229 350q31 31 72 31q36 0 63 -27t27 -63q0 -43 -33 -76q-88 -81 -354 -219zM514 1229l-4 4q70 129 131.5 220.5t97.5 129.5q36 31 72 31t64 -27t28 -63q0 -41 -35 -76q-92 -84 -354 -219z" />
    <glyph glyph-name="gravecomb" unicode="&#x300;" 
d="M-260 1229q-266 138 -354 219q-33 33 -33 76q0 36 27 63t63 27q41 0 72 -31q85 -85 229 -350z" />
    <glyph glyph-name="acutecomb" unicode="&#x301;" 
d="M-604 1229l-4 4q147 266 231 350q31 31 70 31q37 0 64.5 -26.5t27.5 -63.5q0 -43 -33 -76q-37 -34 -130 -92t-226 -127z" />
    <glyph glyph-name="uni0302" unicode="&#x302;" 
d="M-250 1243l-4 -4l-311 203l-312 -203l-4 4l314 371h4z" />
    <glyph glyph-name="tildecomb" unicode="&#x303;" 
d="M-455 1288q-49 0 -93.5 20t-100.5 58q-37 23 -60 36t-56.5 24.5t-63.5 11.5q-110 0 -156 -133l-4 2q13 108 73 186t144 78q44 0 87 -19.5t101 -56.5q37 -23 61.5 -36.5t59.5 -25.5t66 -12q109 0 155 133l4 -2q-13 -108 -73 -186t-144 -78z" />
    <glyph glyph-name="uni0304" unicode="&#x304;" 
d="M-887 1448l4 20h686l-4 -20h-686z" />
    <glyph glyph-name="uni0306" unicode="&#x306;" 
d="M-553 1239q-104 0 -190.5 99t-130.5 270l4 2q54 -105 138 -167.5t179 -62.5t179 62.5t138 167.5l5 -2q-44 -171 -130.5 -270t-191.5 -99z" />
    <glyph glyph-name="uni0307" unicode="&#x307;" 
d="M-358 1348q-60 0 -100 37.5t-40 95.5q0 57 40 95t100 38q59 0 98 -38t39 -95q0 -58 -39 -95.5t-98 -37.5z" />
    <glyph glyph-name="uni0308" unicode="&#x308;" 
d="M-768 1366q-51 0 -84 32.5t-33 82.5t33 82t84 32q50 0 83.5 -32.5t33.5 -81.5t-33.5 -82t-83.5 -33zM-358 1366q-51 0 -84 32.5t-33 82.5t33 82t84 32q50 0 83 -32.5t33 -81.5t-33 -82t-83 -33z" />
    <glyph glyph-name="uni030A" unicode="&#x30a;" 
d="M-553 1214q-97 0 -156 54.5t-59 144.5q0 91 59 146t156 55t156 -55t59 -146q0 -90 -59 -144.5t-156 -54.5zM-553 1239q84 0 135 48t51 126q0 80 -50.5 128t-135.5 48t-135.5 -48t-50.5 -128q0 -78 51 -126t135 -48z" />
    <glyph glyph-name="uni030B" unicode="&#x30b;" 
d="M-885 1229l-4 4q142 262 230 350q31 31 71 31q36 0 63 -27t27 -63q0 -44 -32 -76q-87 -79 -355 -219zM-567 1229l-4 4q70 129 131.5 220.5t97.5 129.5q36 31 72 31t64 -27t28 -63q0 -41 -35 -76q-92 -84 -354 -219z" />
    <glyph glyph-name="uni030C" unicode="&#x30c;" 
d="M-254 1612l4 -4l-313 -371h-4l-314 371l4 4l312 -203z" />
    <glyph glyph-name="uni0312" unicode="&#x312;" 
d="M-498 1241q-61 0 -99 41t-38 107q0 78 55.5 144t147.5 95l2 -4q-42 -24 -68 -63.5t-26 -81.5q0 -44 32.5 -71t85.5 -30q15 -30 15 -45q0 -40 -30.5 -66t-76.5 -26z" />
    <glyph glyph-name="uni0326" unicode="&#x326;" 
d="M-594 -430l-2 4q41 21 67.5 57t26.5 74q0 40 -32.5 64.5t-86.5 27.5q-14 21 -14 45q0 40 30.5 66t76.5 26q61 0 99 -41t38 -106q0 -70 -55 -130t-148 -87z" />
    <glyph glyph-name="uni0327" unicode="&#x327;" 
d="M-555 -430v4q61 9 96 38.5t35 70.5q0 40 -36 86t-103 88l102 143h27l-45 -61q190 -106 190 -215q0 -69 -70 -110t-196 -44z" />
    <glyph glyph-name="uni0328" unicode="&#x328;" 
d="M-573 -420q-85 0 -138 35.5t-53 95.5q0 81 110 158.5t294 132.5l4 -2q-110 -60 -178 -137.5t-68 -143.5q0 -40 30.5 -66t77.5 -26q84 0 154 51l2 -4q-102 -94 -235 -94z" />
    <glyph glyph-name="uni0394" unicode="&#x394;" horiz-adv-x="1409" 
d="M725 1516l672 -1510l-2 -6h-1381l-2 6l674 1510h39zM43 20h1110l-549 1256z" />
    <glyph glyph-name="uni03A9" unicode="&#x3a9;" horiz-adv-x="1892" 
d="M1776 455h4l-68 -465q-198 10 -663 10h-31l-2 6q399 426 399 854q0 283 -128.5 457t-340.5 174t-341.5 -174t-129.5 -457q0 -429 402 -854l-3 -6h-32q-459 0 -664 -10l-67 465h4q30 -114 77.5 -172.5t130 -82.5t232.5 -24h166q-199 117 -340 312.5t-141 392.5
q0 286 194 460.5t512 174.5t512.5 -174.5t194.5 -460.5q0 -100 -40 -205t-107.5 -196.5t-153.5 -169.5t-181 -134h166q90 0 152 8t110.5 26t81 51t55 79t40.5 115z" />
    <glyph glyph-name="uni03BC" unicode="&#x3bc;" horiz-adv-x="1486" 
d="M1208 254q0 -109 37.5 -148t149.5 -43v-4q-189 -30 -383 -79h-4v194q-201 -194 -402 -194q-177 0 -241 143q5 -34 13.5 -92.5t12.5 -87.5t10 -73t9 -69t6.5 -56t4.5 -53.5t1 -41.5q0 -34 -23.5 -57t-58.5 -23q-34 0 -57 23t-23 57q0 62 14 657v469q0 101 -37 141t-149 60
v4q251 70 383 117h4v-819q0 -113 53 -171.5t156 -58.5q75 0 152.5 38t171.5 112v577q0 101 -37.5 141t-151.5 60v4q247 69 385 117h4v-844z" />
    <glyph glyph-name="pi" unicode="&#x3c0;" horiz-adv-x="1431" 
d="M1360 242l4 -2q-36 -126 -98.5 -193t-141.5 -67q-76 0 -116.5 40.5t-40.5 114.5v930h-518v-868q0 -111 36 -150t144 -43v-4h-570v4q114 4 151.5 43t37.5 150v690q0 113 -37.5 151.5t-151.5 42.5v4h1295v-4q-113 -5 -150 -43.5t-37 -150.5v-729q0 -46 12 -64t44 -18
q74 0 137 166z" />
    <glyph glyph-name="Wgrave" unicode="&#x1e80;" horiz-adv-x="2377" 
d="M1022 1712q-29 12 -45 35.5t-16 50.5q0 38 27 65t67 27q25 0 45 -10q49 -24 135 -93.5t190 -178.5l-2 -4q-340 78 -401 108zM1817 1495h567v-4q-107 -12 -164 -72t-119 -231l-432 -1208h-39l-444 1208l-436 -1208h-39l-480 1314q-29 80 -55.5 119t-66.5 56.5t-113 21.5v4
h713v-4q-138 -12 -191 -42.5t-53 -100.5q0 -40 24 -101l342 -971l340 949v2l105 289h4l461 -1258l301 860q55 145 55 205q0 90 -61 125t-219 43v4z" />
    <glyph glyph-name="wgrave" unicode="&#x1e81;" horiz-adv-x="1916" 
d="M1159 1229q-262 135 -354 219q-33 33 -33 76q0 36 27 63t63 27t72 -31q85 -85 229 -350zM1415 1085h504v-4q-86 -12 -137.5 -72.5t-118.5 -230.5l-324 -798h-39l-342 843l-344 -843h-36l-371 905q-45 111 -85 150.5t-118 45.5v4h635v-4q-122 -12 -170.5 -40.5
t-48.5 -92.5q0 -29 31 -110l235 -623l363 891h4l358 -895l195 506q61 144 61 207q0 83 -56.5 116t-195.5 41v4z" />
    <glyph glyph-name="Wacute" unicode="&#x1e82;" horiz-adv-x="2377" 
d="M1473 1712q-66 -31 -404 -108l-2 4q106 110 191.5 179t134.5 93q20 10 47 10q39 0 65.5 -27.5t26.5 -64.5q0 -27 -15.5 -50.5t-43.5 -35.5zM1817 1495h567v-4q-107 -12 -164 -72t-119 -231l-432 -1208h-39l-444 1208l-436 -1208h-39l-480 1314q-29 80 -55.5 119
t-66.5 56.5t-113 21.5v4h713v-4q-138 -12 -191 -42.5t-53 -100.5q0 -40 24 -101l342 -971l340 949v2l105 289h4l461 -1258l301 860q55 145 55 205q0 90 -61 125t-219 43v4z" />
    <glyph glyph-name="wacute" unicode="&#x1e83;" horiz-adv-x="1916" 
d="M1214 1448q-37 -34 -130 -92t-226 -127l-4 4q147 266 231 350q31 31 70 31q36 0 64 -27t28 -63q0 -38 -33 -76zM1415 1085h504v-4q-86 -12 -137.5 -72.5t-118.5 -230.5l-324 -798h-39l-342 843l-344 -843h-36l-371 905q-45 111 -85 150.5t-118 45.5v4h635v-4
q-122 -12 -170.5 -40.5t-48.5 -92.5q0 -29 31 -110l235 -623l363 891h4l358 -895l195 506q61 144 61 207q0 83 -56.5 116t-195.5 41v4z" />
    <glyph glyph-name="Wdieresis" unicode="&#x1e84;" horiz-adv-x="2377" 
d="M1051 1659q-51 0 -84 33t-33 84q0 50 33 82t84 32t83.5 -32t32.5 -82q0 -51 -32.5 -84t-83.5 -33zM1460 1659q-51 0 -84 33t-33 84q0 50 33 82t84 32t84 -32t33 -82q0 -51 -33 -84t-84 -33zM1817 1495h567v-4q-107 -12 -164 -72t-119 -231l-432 -1208h-39l-444 1208
l-436 -1208h-39l-480 1314q-29 80 -55.5 119t-66.5 56.5t-113 21.5v4h713v-4q-138 -12 -191 -42.5t-53 -100.5q0 -40 24 -101l342 -971l340 949v2l105 289h4l461 -1258l301 860q55 145 55 205q0 90 -61 125t-219 43v4z" />
    <glyph glyph-name="wdieresis" unicode="&#x1e85;" horiz-adv-x="1916" 
d="M823 1366q-51 0 -83.5 32.5t-32.5 82.5t32.5 82t83.5 32t84 -32t33 -82t-33 -82.5t-84 -32.5zM1233 1366q-51 0 -84 32.5t-33 82.5t33 82t84 32t84 -32t33 -82t-33 -82.5t-84 -32.5zM1415 1085h504v-4q-86 -12 -137.5 -72.5t-118.5 -230.5l-324 -798h-39l-342 843
l-344 -843h-36l-371 905q-45 111 -85 150.5t-118 45.5v4h635v-4q-122 -12 -170.5 -40.5t-48.5 -92.5q0 -29 31 -110l235 -623l363 891h4l358 -895l195 506q61 144 61 207q0 83 -56.5 116t-195.5 41v4z" />
    <glyph glyph-name="uni1E9E" unicode="&#x1e9e;" horiz-adv-x="1701" 
d="M1128 971q81 -60 143 -112t127.5 -118.5t107.5 -128.5t69 -135.5t27 -146.5q0 -160 -115 -255t-303 -95q-85 0 -161.5 33.5t-119.5 88.5l2 4q39 -31 103.5 -51t130.5 -20q113 0 181.5 63.5t68.5 167.5q0 64 -25.5 126t-84.5 134.5t-123 136t-173 162.5l375 486
q-83 84 -200.5 132t-237.5 48q-195 0 -314 -135.5t-119 -356.5v-786q0 -119 45 -162t179 -47v-4h-660v4q133 6 178 48t45 161v717q0 264 178 425t468 161q131 0 272 -42t238 -110v-4z" />
    <glyph glyph-name="Ygrave" unicode="&#x1ef2;" horiz-adv-x="1579" 
d="M623 1712q-27 12 -43.5 35.5t-16.5 50.5q0 37 26.5 64.5t65.5 27.5q27 0 47 -10q49 -24 134.5 -93t191.5 -179l-2 -4q-336 76 -403 108zM954 1495h635v-4q-111 -11 -201 -85.5t-206 -275.5l-283 -485v-405q0 -136 50.5 -183t205.5 -53v-4h-725v4q155 6 205.5 53t50.5 183
v403l-367 606q-83 136 -138 184.5t-142 57.5v4h731v-4q-131 -10 -184.5 -39.5t-53.5 -89.5q0 -44 68 -160l297 -512l254 438q98 168 98 220q0 71 -67 103.5t-228 39.5v4z" />
    <glyph glyph-name="ygrave" unicode="&#x1ef3;" horiz-adv-x="1290" 
d="M834 1229q-268 140 -355 219q-33 33 -33 76q0 36 27.5 63t63.5 27q40 0 71 -31q88 -88 230 -350zM815 1085h475v-4q-81 -11 -127 -69t-127 -234l-475 -1022q-83 -186 -293 -186q-61 0 -99 29t-38 75q0 34 12 58l383 2q12 21 25 47l82 182l-426 922q-53 114 -89.5 152
t-111.5 44v4h574v-4q-90 -8 -128 -35t-38 -90q0 -40 37 -118l290 -639l236 516q67 140 67 209q0 80 -53.5 114.5t-175.5 42.5v4z" />
    <glyph glyph-name="endash" unicode="&#x2013;" horiz-adv-x="1341" 
d="M158 592l4 20h1020l-4 -20h-1020z" />
    <glyph glyph-name="emdash" unicode="&#x2014;" horiz-adv-x="1789" 
d="M158 592l4 20h1470l-4 -20h-1470z" />
    <glyph glyph-name="quoteleft" unicode="&#x2018;" horiz-adv-x="536" 
d="M369 1632l2 -4q-55 -41 -88 -103t-33 -124q0 -67 39 -112.5t102 -51.5q31 -43 31 -90q0 -61 -37.5 -102t-93.5 -41q-81 0 -130.5 64t-49.5 167q0 122 70.5 231t187.5 166z" />
    <glyph glyph-name="quoteright" unicode="&#x2019;" horiz-adv-x="532" 
d="M172 1004l-2 4q54 41 87.5 103.5t33.5 123.5q0 67 -39 112.5t-102 51.5q-31 43 -31 90q0 61 37.5 102t93.5 41q81 0 130.5 -64t49.5 -167q0 -122 -70.5 -231t-187.5 -166z" />
    <glyph glyph-name="quotesinglbase" unicode="&#x201a;" horiz-adv-x="565" 
d="M184 -362l-2 4q55 43 88 105t33 124q0 66 -39 111t-102 53q-31 43 -31 88q0 63 38 104t95 41q80 0 129 -64.5t49 -168.5q0 -122 -70.5 -230.5t-187.5 -166.5z" />
    <glyph glyph-name="quotedblleft" unicode="&#x201c;" horiz-adv-x="919" 
d="M369 1632l2 -4q-55 -41 -88 -103t-33 -124q0 -67 39 -112.5t102 -51.5q31 -43 31 -90q0 -61 -37.5 -102t-93.5 -41q-81 0 -130.5 64t-49.5 167q0 122 70.5 231t187.5 166zM752 1632l2 -4q-54 -41 -87.5 -103.5t-33.5 -123.5q0 -67 39 -112.5t102 -51.5q31 -43 31 -90
q0 -62 -37 -102.5t-94 -40.5q-81 0 -130.5 64t-49.5 167q0 122 70.5 231t187.5 166z" />
    <glyph glyph-name="quotedblright" unicode="&#x201d;" horiz-adv-x="915" 
d="M172 1004l-2 4q54 41 87.5 103.5t33.5 123.5q0 67 -39 112.5t-102 51.5q-31 43 -31 90q0 61 37.5 102t93.5 41q81 0 130.5 -64t49.5 -167q0 -122 -70.5 -231t-187.5 -166zM557 1004l-2 4q54 41 86.5 103t32.5 124q0 67 -39.5 112.5t-102.5 51.5q-30 42 -30 90
q0 61 38 102t95 41q79 0 128.5 -64t49.5 -167q0 -122 -70.5 -231t-185.5 -166z" />
    <glyph glyph-name="quotedblbase" unicode="&#x201e;" horiz-adv-x="948" 
d="M184 -362l-2 4q55 43 88 105t33 124q0 66 -39 111t-102 53q-31 43 -31 88q0 63 38 104t95 41q80 0 129 -64.5t49 -168.5q0 -122 -70.5 -230.5t-187.5 -166.5zM569 -362l-2 4q54 43 86.5 105.5t32.5 123.5q0 66 -39 111t-102 53q-29 40 -29 88q0 63 37 104t94 41
q80 0 129 -64.5t49 -168.5q0 -121 -70 -229.5t-186 -167.5z" />
    <glyph glyph-name="dagger" unicode="&#x2020;" horiz-adv-x="1040" 
d="M899 1255q31 0 51.5 -20.5t20.5 -52.5q0 -31 -20.5 -52.5t-51.5 -21.5q-96 0 -375 68q70 -494 70 -672q0 -35 -21 -57.5t-53 -22.5q-31 0 -52.5 22.5t-21.5 57.5q0 181 70 672q-279 -68 -373 -68q-32 0 -52.5 21.5t-20.5 52.5q0 32 20.5 52.5t52.5 20.5q111 0 371 -67
q-68 279 -68 373q0 32 21.5 51.5t52.5 19.5q33 0 53.5 -19.5t20.5 -51.5q0 -98 -68 -373q264 67 373 67z" />
    <glyph glyph-name="daggerdbl" unicode="&#x2021;" horiz-adv-x="1144" 
d="M195 1108q-32 0 -53 21.5t-21 52.5q0 32 21 52.5t53 20.5q110 0 370 -67q-67 275 -67 373q0 32 21 51.5t52 19.5q33 0 53.5 -19.5t20.5 -51.5q0 -113 -67 -373q264 67 372 67q32 0 52 -20.5t20 -52.5q0 -31 -20 -52.5t-52 -21.5q-100 0 -379 70q-279 -70 -376 -70z
M950 948q32 0 52 -21t20 -53q0 -31 -20 -52t-52 -21q-97 0 -372 67q67 -260 67 -370q0 -32 -21 -53t-53 -21q-31 0 -52 21t-21 53q0 99 67 370q-271 -67 -370 -67q-32 0 -53 21t-21 52q0 32 21 53t53 21q101 0 376 -69q275 69 379 69z" />
    <glyph glyph-name="bullet" unicode="&#x2022;" horiz-adv-x="876" 
d="M438 350q-108 0 -179 70t-71 176q0 107 70.5 177.5t179.5 70.5q107 0 178.5 -70.5t71.5 -177.5q0 -106 -71.5 -176t-178.5 -70z" />
    <glyph glyph-name="ellipsis" unicode="&#x2026;" horiz-adv-x="1597" 
d="M276 -20q-64 0 -105.5 40.5t-41.5 102.5q0 63 41.5 104t105.5 41q63 0 105.5 -41t42.5 -104q0 -61 -42.5 -102t-105.5 -41zM799 -20q-64 0 -106 40.5t-42 102.5q0 63 42 104t106 41t105.5 -41t41.5 -104q0 -62 -41.5 -102.5t-105.5 -40.5zM1321 -20q-63 0 -105 41
t-42 102q0 63 42 104t105 41q65 0 107 -41t42 -104q0 -62 -42.5 -102.5t-106.5 -40.5z" />
    <glyph glyph-name="perthousand" unicode="&#x2030;" horiz-adv-x="2779" 
d="M326 -45l-19 14l1286 1571l19 -14zM453 643q-154 0 -249 118.5t-95 313.5q0 194 94.5 312t249.5 118t250.5 -118.5t95.5 -311.5q0 -195 -95.5 -313.5t-250.5 -118.5zM453 662q78 0 126 113.5t48 299.5q0 185 -48 298.5t-126 113.5q-77 0 -124.5 -113.5t-47.5 -298.5
t47.5 -299t124.5 -114zM1466 -12q-155 0 -250.5 118.5t-95.5 313.5q0 193 95.5 311.5t250.5 118.5t250.5 -118.5t95.5 -311.5q0 -195 -95.5 -313.5t-250.5 -118.5zM2347 -12q-154 0 -249 118.5t-95 313.5q0 194 94.5 312t249.5 118t250.5 -118.5t95.5 -311.5
q0 -195 -95.5 -313.5t-250.5 -118.5zM1466 6q78 0 125 114t47 300q0 185 -47 298t-125 113q-77 0 -124.5 -113t-47.5 -298q0 -186 47.5 -300t124.5 -114zM2347 6q78 0 126 114t48 300q0 184 -48 297.5t-126 113.5q-77 0 -123.5 -112.5t-46.5 -298.5t47 -300t123 -114z" />
    <glyph glyph-name="guilsinglleft" unicode="&#x2039;" horiz-adv-x="587" 
d="M459 1008l-195 -408l195 -407l-4 -3l-346 390v38l346 392z" />
    <glyph glyph-name="guilsinglright" unicode="&#x203a;" horiz-adv-x="587" 
d="M133 1010l346 -392v-38l-346 -390l-4 3l195 407l-195 408z" />
    <glyph glyph-name="fraction" unicode="&#x2044;" horiz-adv-x="219" 
d="M-524 -45l-19 14l1288 1571l19 -14z" />
    <glyph glyph-name="Euro" unicode="&#x20ac;" horiz-adv-x="1523" 
d="M1352 532h4v-542h-4q-30 36 -52 48.5t-49 12.5q-36 0 -89 -17.5t-120.5 -35.5t-138.5 -18q-259 0 -428.5 177t-198.5 474h-186l4 20h180q-4 62 -4 97q0 70 9 135h-189l4 20h187q38 281 205.5 447t416.5 166q68 0 134.5 -18t117.5 -36t82 -18q26 0 46 12t54 47h4v-520h-4
q-17 230 -127.5 368t-283.5 138q-164 0 -275 -159t-137 -427h539l-4 -20h-537q-6 -65 -6 -135q0 -66 2 -97h502l-4 -20h-496q20 -286 133 -455.5t283 -169.5q181 0 295 143.5t131 382.5z" />
    <glyph glyph-name="uni20BF" unicode="&#x20bf;" horiz-adv-x="1538" 
d="M942 772q221 -11 354.5 -114.5t133.5 -266.5q0 -174 -145 -282.5t-365 -108.5h-19v-205h-24v205h-259v-205h-24v205h-492v4q133 6 178.5 48t45.5 161v1069q0 119 -45.5 161t-178.5 48v4h492v174h24v-174h216q29 0 43 -2v176h24v-176q196 -15 313 -112.5t117 -247.5
q0 -142 -105 -239t-284 -122zM768 1475h-229v-697h229q152 0 240 95t88 253t-88 253.5t-240 95.5zM848 20q150 0 248 103t98 268t-100 266t-269 101h-286v-559q0 -108 21 -143.5t87 -35.5h201z" />
    <glyph glyph-name="trademark" unicode="&#x2122;" horiz-adv-x="1949" 
d="M725 1511h2l80 -264l-4 -2q-41 101 -78.5 151t-78.5 66.5t-111 16.5v-564q0 -61 21.5 -81.5t86.5 -26.5v-4h-373v4q66 6 87.5 27.5t21.5 80.5v564q-52 0 -85.5 -8t-65.5 -33.5t-59 -71t-58 -121.5l-5 2l80 264h2q63 -16 211 -16h115q143 0 211 16zM1710 911q5 -54 23 -76
t79 -28v-4h-366v4q69 6 90.5 28t17.5 80l-43 480l-258 -602h-4l-268 620l-47 -483q-8 -66 18.5 -91.5t112.5 -31.5v-4h-256v4q58 7 77.5 29t24.5 75l50 482q4 52 -14.5 72t-78.5 26v4h246l211 -487l211 487h219v-4q-59 -6 -76 -26t-12 -72z" />
    <glyph glyph-name="oneeighth" unicode="&#x215b;" horiz-adv-x="1687" 
d="M1407 1540l18 -14l-1288 -1571l-18 14zM236 1362q-25 0 -86 -21l-3 5q172 82 306 170h2v-725q0 -74 27.5 -101t109.5 -31v-4h-432v4q82 4 109.5 31.5t27.5 100.5v475q0 50 -12.5 73t-48.5 23zM1327 481q46 -21 75 -36t66.5 -39.5t59 -48.5t36.5 -58t15 -72
q0 -108 -89.5 -173.5t-238.5 -65.5q-143 0 -230 59t-87 156q0 64 64 116t167 74q-91 47 -142.5 104t-51.5 142q0 95 77 153t203 58q128 0 207.5 -52.5t79.5 -138.5q0 -60 -58 -109t-153 -69zM1102 692q0 -34 15 -63t48 -54t61 -41t77 -40q53 37 82.5 84t29.5 94
q0 72 -45 115.5t-119 43.5q-67 0 -108 -38.5t-41 -100.5zM1251 6q85 0 138 45t53 117q0 27 -12.5 51.5t-29 42t-48 37t-54.5 31t-63 30.5q-7 3 -21.5 10.5t-21.5 10.5q-62 -37 -97.5 -88t-35.5 -103q0 -83 53 -133.5t139 -50.5z" />
    <glyph glyph-name="threeeighths" unicode="&#x215c;" horiz-adv-x="1775" 
d="M1493 1540l18 -14l-1286 -1571l-18 14zM145 647q181 19 287.5 82.5t106.5 163.5q0 70 -63.5 108t-192.5 54l-2 4l282 305h-215q-97 0 -145 -25.5t-80 -99.5l-4 2l74 272h2q74 -18 395 -18h110l2 -4l-290 -317q133 -25 207.5 -88t74.5 -152q0 -124 -143.5 -200t-405.5 -91
v4zM1413 481q46 -21 76 -36t67.5 -39.5t59 -48.5t36.5 -58t15 -72q0 -107 -90.5 -173t-239.5 -66q-143 0 -230 59t-87 156q0 64 64 116t167 74q-91 47 -142.5 104t-51.5 142q0 95 77 153t203 58q128 0 207.5 -52.5t79.5 -138.5q0 -60 -58 -109t-153 -69zM1188 692
q0 -34 15 -63t48 -54t61 -41t77 -40q53 37 82.5 84t29.5 94q0 72 -45 115.5t-119 43.5q-66 0 -107.5 -38.5t-41.5 -100.5zM1337 6q85 0 138 45t53 117q0 27 -12.5 51.5t-29 42t-48 37t-54.5 31t-63 30.5q-7 3 -21.5 10.5t-21.5 10.5q-61 -37 -97 -88t-36 -103
q0 -83 53 -133.5t139 -50.5z" />
    <glyph glyph-name="fiveeighths" unicode="&#x215d;" horiz-adv-x="1783" 
d="M1503 1540l19 -14l-1289 -1571l-18 14zM676 940q0 -130 -146.5 -206.5t-404.5 -90.5v4q180 19 287.5 83.5t107.5 164.5q0 86 -96.5 132t-298.5 67v4l100 397h99q153 0 230 4.5t128 18.5h2l-39 -156h-434l-35 -131q258 -25 379 -94t121 -197zM1423 483q47 -22 75.5 -37
t66.5 -40t58.5 -49t36 -58t15.5 -72q0 -107 -89.5 -173t-237.5 -66q-143 0 -231.5 59t-88.5 156q0 64 64.5 116t169.5 74q-91 47 -143 104t-52 142q0 95 77.5 153t203.5 58q128 0 207 -52.5t79 -138.5q0 -60 -58 -108.5t-153 -67.5zM1198 692q0 -34 15 -63t47 -54t60.5 -41
t76.5 -40q53 37 82.5 84t29.5 94q0 72 -44 115.5t-117 43.5q-67 0 -108.5 -38.5t-41.5 -100.5zM1348 6q85 0 137.5 45t52.5 117q0 27 -12.5 51.5t-29 42t-48 37t-54.5 31t-63 30.5q-5 2 -20.5 10t-24.5 11q-61 -37 -96 -88t-35 -103q0 -83 53 -133.5t140 -50.5z" />
    <glyph glyph-name="seveneighths" unicode="&#x215e;" horiz-adv-x="1724" 
d="M1438 1540l18 -14l-1288 -1571l-18 14zM664 1362h-355q-99 0 -145.5 -24.5t-79.5 -98.5l-4 2l74 272h2q74 -18 395 -18h215v-4q-293 -444 -340 -762q-14 -86 -94 -86q-74 0 -74 70q0 100 130.5 302t275.5 347zM1358 481q46 -21 75 -36t66.5 -39.5t59 -48.5t36.5 -58
t15 -72q0 -108 -89.5 -173.5t-238.5 -65.5q-143 0 -230 59t-87 156q0 64 64 116t167 74q-91 47 -143 104t-52 142q0 95 77.5 153t203.5 58q128 0 207.5 -52.5t79.5 -138.5q0 -60 -58 -109t-153 -69zM1133 692q0 -34 15 -63t47.5 -54t61 -41t76.5 -40q53 37 83 84t30 94
q0 72 -45 115.5t-119 43.5q-67 0 -108 -38.5t-41 -100.5zM1282 6q85 0 138 45t53 117q0 27 -12.5 51.5t-29 42t-48 37t-54.5 31t-63 30.5q-7 3 -21.5 10.5t-21.5 10.5q-62 -37 -97.5 -88t-35.5 -103q0 -83 53 -133.5t139 -50.5z" />
    <glyph glyph-name="partialdiff" unicode="&#x2202;" horiz-adv-x="1341" 
d="M299 1632q443 -97 682.5 -374t239.5 -693q0 -263 -156.5 -424t-411.5 -161t-411 146.5t-156 385.5q0 237 148 384.5t376 147.5q205 0 334 -135q-63 279 -223.5 456.5t-423.5 262.5zM653 4q148 0 239 140.5t91 367.5q0 225 -91 362.5t-239 137.5q-147 0 -238 -138
t-91 -362q0 -229 90.5 -368.5t238.5 -139.5z" />
    <glyph glyph-name="emptyset" unicode="&#x2205;" horiz-adv-x="1511" 
d="M1366 1223l-166 -174q152 -176 152 -447q0 -284 -164 -458.5t-432 -174.5q-263 0 -428 168l-166 -172l-19 17l166 174q-153 173 -153 446q0 284 165.5 458.5t434.5 174.5q261 0 426 -168l168 176zM184 602q0 -261 146 -426l833 873q-158 161 -407 161
q-257 0 -414.5 -166.5t-157.5 -441.5zM1323 602q0 264 -143 426l-834 -870q158 -164 410 -164q255 0 411 167t156 441z" />
    <glyph glyph-name="product" unicode="&#x220f;" horiz-adv-x="1824" 
d="M1724 1491q-133 -6 -177 -48t-44 -161v-1479q0 -119 44 -161t177 -48v-4h-657v4q133 6 177 48t44 161v1672h-751v-1672q0 -119 44.5 -161t178.5 -48v-4h-660v4q133 6 178.5 48t45.5 161v1479q0 119 -45.5 161t-178.5 48v4h1624v-4z" />
    <glyph glyph-name="summation" unicode="&#x2211;" horiz-adv-x="1562" 
d="M1438 45h4l-68 -465q-215 10 -729 10h-573l-2 7l747 878l-743 1014l2 6h489q485 0 680 10l158 -532l-4 -2q-58 156 -107.5 249t-114 152.5t-139 81t-186.5 21.5h-510l633 -850v-4l-729 -854h743q117 0 190 11.5t125.5 44t82 84.5t51.5 138z" />
    <glyph glyph-name="minus" unicode="&#x2212;" horiz-adv-x="970" 
d="M104 592v20h762v-20h-762z" />
    <glyph glyph-name="radical" unicode="&#x221a;" horiz-adv-x="1568" 
d="M1561 1612l24 -10l-897 -2032h-39l-411 913q-29 64 -46 95t-44 57t-59 34.5t-85 10.5v4h383l381 -874z" />
    <glyph glyph-name="infinity" unicode="&#x221e;" horiz-adv-x="1800" 
d="M1327 1098q154 0 248 -100.5t94 -264.5q0 -193 -107.5 -314.5t-283.5 -121.5q-58 0 -110 16t-92 40.5t-79.5 63.5t-67.5 75.5t-61 85.5q-67 -129 -173 -205t-222 -76q-153 0 -246.5 101t-93.5 266q0 195 107 314.5t282 119.5q58 0 110 -15.5t92 -40t79.5 -63t67.5 -74.5
t61 -84q63 127 169.5 202t225.5 75zM1350 457q132 0 211 77t79 205q0 148 -86.5 241t-226.5 93q-116 0 -217.5 -75t-161.5 -203q4 -7 13.5 -20.5t13.5 -20.5q35 -56 60 -91.5t63 -78.5t73 -68t81.5 -42t97.5 -17zM473 322q112 0 214 76t165 204q-6 8 -15.5 23.5t-11.5 17.5
q-35 55 -59.5 90.5t-62.5 78.5t-72.5 68t-81.5 42.5t-98 17.5q-130 0 -209.5 -78.5t-79.5 -206.5q0 -146 85.5 -239.5t225.5 -93.5z" />
    <glyph glyph-name="integral" unicode="&#x222b;" horiz-adv-x="837" 
d="M745 1460h-399q-47 -74 -47 -188q0 -73 16.5 -151t51.5 -165.5t64 -149t79 -161.5q145 -300 145 -526q0 -94 -36 -192.5t-95 -177.5t-141 -129t-168 -50q-61 0 -100 31.5t-39 81.5q0 29 14 61h402q45 77 45 186q0 73 -16 150.5t-50 163.5t-64.5 150.5t-80.5 162.5
q-146 302 -146 526q0 128 59.5 254.5t163 210.5t218.5 84q61 0 100 -31t39 -81q0 -30 -15 -60zM461 -297l-15 -16q13 13 15 16z" />
    <glyph glyph-name="approxequal" unicode="&#x2248;" horiz-adv-x="970" 
d="M670 647q-54 0 -105 20.5t-116 57.5q-42 23 -67.5 36t-63 24.5t-70.5 11.5q-131 0 -182 -133l-5 2q14 108 82 186t162 78q50 0 98.5 -19.5t112.5 -56.5q44 -25 70.5 -38t65.5 -24.5t75 -11.5q127 0 182 133l4 -2q-14 -108 -82 -186t-161 -78zM670 291q-37 0 -79.5 13
t-69.5 26t-72 37q-43 24 -68 36.5t-62.5 24.5t-70.5 12q-130 0 -182 -133l-5 2q14 108 82 186t162 78q50 0 99 -19.5t112 -55.5q126 -74 211 -74q128 0 182 133l4 -2q-14 -108 -82 -186t-161 -78z" />
    <glyph glyph-name="notequal" unicode="&#x2260;" horiz-adv-x="970" 
d="M866 739h-291l-149 -274h440v-21h-450l-137 -249h-25l137 249h-287v21h297l150 274h-447v21h459l135 248h25l-135 -248h278v-21z" />
    <glyph glyph-name="lessequal" unicode="&#x2264;" horiz-adv-x="970" 
d="M860 518l-756 221v4l756 222v-23l-686 -201l686 -200v-23zM866 266h-762v21h762v-21z" />
    <glyph glyph-name="greaterequal" unicode="&#x2265;" horiz-adv-x="970" 
d="M111 518v23l686 200l-686 201v23l755 -222v-4zM104 266v21h762v-21h-762z" />
    <glyph glyph-name="lozenge" unicode="&#x25ca;" horiz-adv-x="1099" 
d="M547 0l-451 688l451 686h4l453 -686l-453 -688h-4zM549 43l424 645l-424 643l-422 -643z" />
    <glyph glyph-name="uniF8FF" unicode="&#xf8ff;" horiz-adv-x="2541" 
d="M117 -20q-15 0 -25 10.5t-10 25.5q0 21 10 31l701 698h-664q-47 0 -47 39q0 19 14 33l697 701h-670q-41 0 -41 38v3q0 38 41 38h758q47 0 47 -41q0 -17 -17 -34l-698 -697h676q17 0 29 -12t12 -29v-669l694 692q16 16 35 16q37 0 37 -45v-663l696 692q16 16 33 16
q15 0 25 -12t10 -27t-13 -28l-753 -762q-14 -14 -35 -14q-41 0 -41 47v663l-694 -696q-14 -14 -35 -14q-41 0 -41 47v663l-696 -696q-14 -14 -35 -14z" />
    <glyph glyph-name="uni00A40301" horiz-adv-x="802" 
d="M623 1712q-66 -31 -404 -108l-2 4q104 109 190 178.5t136 93.5q20 10 47 10q39 0 65.5 -27.5t26.5 -64.5q0 -27 -16 -50.5t-43 -35.5zM74 1495h659v-4q-133 -6 -178 -48t-45 -161v-913q0 -204 -115.5 -368.5t-304.5 -225.5l-2 4q209 159 209 510v993q0 119 -44.5 161
t-178.5 48v4z" />
    <glyph glyph-name="i.loclTRK" horiz-adv-x="681" 
d="M356 1348q-60 0 -99.5 37.5t-39.5 95.5q0 57 39.5 95t99.5 38q59 0 98.5 -38t39.5 -95q0 -58 -39.5 -95.5t-98.5 -37.5zM457 197q0 -111 37 -150t149 -43v-4h-575v4q113 4 150.5 43t37.5 150v579q0 101 -37 141t-151 60v4q204 54 385 117h4v-901z" />
    <glyph glyph-name="uni006A0301" horiz-adv-x="608" 
d="M162 1229l-4 4q147 266 231 350q31 31 70 31q37 0 64.5 -26.5t27.5 -63.5q0 -38 -33 -76q-37 -34 -130 -92t-226 -127zM59 -430l-2 4q174 145 174 471v731q0 101 -37 141t-151 60v4q247 69 385 117h4v-975q0 -207 -103 -359.5t-270 -193.5z" />
    <glyph glyph-name="f_b" horiz-adv-x="2136" 
d="M1565 1106q212 0 341.5 -144t129.5 -380q0 -270 -145.5 -436t-383.5 -166q-151 0 -274 63q-134 -20 -229 -63h-5v1284q0 116 -37.5 156t-150.5 40h-383q-82 -109 -82 -215q0 -55 29.5 -98t77.5 -62h305l-4 -20h-301v-827q0 -134 45.5 -181t181.5 -53v-4h-617v4
q114 4 151.5 43t37.5 150v841v27h-191l5 20h188q10 141 76 266.5t175 203t232 77.5q61 0 99 -30.5t38 -81.5q0 -23 -2 -31q185 74 324 137h4v-725q64 93 165 149t200 56zM1468 10q156 0 251.5 148t95.5 391q0 221 -92 356t-240 135q-74 0 -151 -46.5t-132 -125.5v-671
q39 -90 111.5 -138.5t156.5 -48.5z" />
    <glyph glyph-name="f_h" horiz-adv-x="2166" 
d="M1952 197q0 -111 37 -150t149 -43v-4h-567v4q107 4 143.5 43.5t36.5 149.5v596q0 118 -55.5 178.5t-163.5 60.5q-78 0 -157 -37.5t-175 -111.5v-686q0 -111 35.5 -150t142.5 -43v-4h-567v4q113 4 150.5 43t37.5 150v1069q0 115 -37.5 154.5t-150.5 39.5h-383
q-82 -109 -82 -215q0 -55 29.5 -98t77.5 -62h305l-4 -20h-301v-827q0 -134 45.5 -181t181.5 -53v-4h-617v4q114 4 151.5 43t37.5 150v841v27h-191l5 20h188q10 141 76 266.5t175 203t232 77.5q61 0 99 -30.5t38 -81.5q0 -13 -4 -33q148 58 326 139h4v-719q229 199 442 199
q149 0 229.5 -84t80.5 -238v-587z" />
    <glyph glyph-name="f_hbar" horiz-adv-x="2166" 
d="M1952 197q0 -111 37 -150t149 -43v-4h-567v4q107 4 143.5 43.5t36.5 149.5v596q0 118 -55.5 178.5t-163.5 60.5q-78 0 -157 -37.5t-175 -111.5v-686q0 -111 35.5 -150t142.5 -43v-4h-567v4q113 4 150.5 43t37.5 150v1069q0 115 -37.5 154.5t-150.5 39.5h-383
q-82 -109 -82 -215q0 -55 29.5 -98t77.5 -62h305l-4 -20h-301v-827q0 -134 45.5 -181t181.5 -53v-4h-617v4q114 4 151.5 43t37.5 150v841v27h-191l5 20h188q10 141 76 266.5t175 203t232 77.5q61 0 99 -30.5t38 -81.5q0 -13 -4 -33q148 58 326 139h4v-354h338l-4 -21h-334
v-344q229 199 442 199q149 0 229.5 -84t80.5 -238v-587z" />
    <glyph glyph-name="f_icircumflex" horiz-adv-x="1460" 
d="M680 1632q53 0 88 -31t35 -81q0 -28 -12 -60h-375q-74 -102 -74 -215q0 -55 30 -98t81 -62h299l-4 -20h-295v-827q0 -134 45.5 -181t183.5 -53v-4h-616v4q112 4 149 43t37 150v841v27h-189l5 20h186q9 141 67.5 266.5t154.5 203t204 77.5zM1137 1614l313 -371l-4 -4
l-311 203l-312 -203l-4 4l314 371h4zM1235 197q0 -111 37 -150t149 -43v-4h-575v4q113 4 150.5 43t37.5 150v579q0 101 -37 141t-151 60v4q218 57 385 117h4v-901z" />
    <glyph glyph-name="f_idieresis" horiz-adv-x="1501" 
d="M680 1632q53 0 88 -31t35 -81q0 -28 -12 -60h-375q-74 -102 -74 -215q0 -55 30 -98t81 -62h299l-4 -20h-295v-827q0 -134 45.5 -181t183.5 -53v-4h-616v4q112 4 149 43t37 150v841v27h-189l5 20h186q9 141 67.5 266.5t154.5 203t204 77.5zM1020 1370q-46 0 -77.5 32
t-31.5 79t31.5 78.5t77.5 31.5q47 0 78.5 -31.5t31.5 -78.5t-31.5 -79t-78.5 -32zM1329 1370q-46 0 -77 32t-31 79t31 78.5t77 31.5q47 0 79 -31.5t32 -78.5t-32 -79t-79 -32zM1276 197q0 -111 37 -150t149 -43v-4h-575v4q113 4 150.5 43t37.5 150v579q0 101 -37 141
t-151 60v4q218 57 385 117h4v-901z" />
    <glyph glyph-name="f_igrave" horiz-adv-x="1499" 
d="M680 1632q53 0 88 -31t35 -81q0 -28 -12 -60h-375q-74 -102 -74 -215q0 -55 30 -98t81 -62h299l-4 -20h-295v-827q0 -134 45.5 -181t183.5 -53v-4h-616v4q112 4 149 43t37 150v841v27h-189l5 20h186q9 141 67.5 266.5t154.5 203t204 77.5zM1305 1229q-268 140 -355 219
q-32 32 -32 76q0 36 27 63t63 27q40 0 71 -31q88 -88 230 -350zM1274 197q0 -111 37 -150t149 -43v-4h-575v4q113 4 150.5 43t37.5 150v579q0 101 -37 141t-151 60v4q209 54 385 117h4v-901z" />
    <glyph glyph-name="f_imacron" horiz-adv-x="1460" 
d="M346 1241q0 -53 29.5 -95t77.5 -61h299l-4 -20h-295v-827q0 -134 45.5 -181t181.5 -53v-4h-617v4q114 4 151.5 43t37.5 150v841v27h-191l5 20h188q12 136 85 259t188 199.5t239 76.5q61 0 100 -31.5t39 -81.5q0 -22 -6 -37h518l-4 -20h-967q-100 -109 -100 -209z
M1235 197q0 -111 37 -150t149 -43v-4h-575v4q113 4 150.5 43t37.5 150v579q0 101 -37 141t-151 60v4q218 57 385 117h4v-901z" />
    <glyph glyph-name="f_iogonek" horiz-adv-x="1460" 
d="M680 1632q53 0 88 -31t35 -81q0 -28 -12 -60h-375q-74 -102 -74 -215q0 -55 30 -98t81 -62h299l-4 -20h-295v-827q0 -134 45.5 -181t183.5 -53v-4h-616v4q112 4 149 43t37 150v841v27h-189l5 20h186q9 141 67.5 266.5t154.5 203t204 77.5zM1135 1348q-60 0 -99 37.5
t-39 95.5q0 57 39 95t99 38q59 0 98 -38t39 -95q0 -58 -39 -95.5t-98 -37.5zM1368 0q-110 -60 -178 -137.5t-68 -143.5q0 -40 31 -66t78 -26q83 0 153 51l2 -4q-102 -94 -235 -94q-85 0 -137.5 35.5t-52.5 95.5q0 79 108 156.5t289 132.5h-512v4q113 4 150.5 43t37.5 150
v579q0 101 -37 141t-151 60v4q218 57 385 117h4v-901q0 -111 37 -150t149 -43v-4h-53z" />
    <glyph glyph-name="f_j" horiz-adv-x="1411" 
d="M680 1632q53 0 88 -31t35 -81q0 -28 -12 -60h-375q-74 -102 -74 -215q0 -55 30 -98t81 -62h299l-4 -20h-295v-827q0 -134 45.5 -181t183.5 -53v-4h-616v4q112 4 149 43t37 150v841v27h-189l5 20h186q9 141 67.5 266.5t154.5 203t204 77.5zM1135 1348q-60 0 -99 37.5
t-39 95.5q0 57 39 95t99 38q59 0 98 -38t39 -95q0 -58 -39 -95.5t-98 -37.5zM846 981q260 72 385 117h4v-975q0 -207 -103 -359.5t-270 -193.5l-2 4q174 145 174 471v731q0 101 -37 141t-151 60v4z" />
    <glyph glyph-name="f_k" horiz-adv-x="2095" 
d="M1200 197q0 -111 35.5 -150t142.5 -43v-4h-567v4q113 4 150.5 43t37.5 150v1067q0 116 -37.5 156t-150.5 40h-383q-82 -109 -82 -215q0 -55 29.5 -98t77.5 -62h305l-4 -20h-301v-827q0 -134 45.5 -181t181.5 -53v-4h-617v4q114 4 151.5 43t37.5 150v841v27h-191l5 20h188
q10 141 76 266.5t175 203t232 77.5q61 0 99 -30.5t38 -81.5q0 -13 -4 -33q148 58 326 139h4v-1429zM1421 672l656 -668v-4h-262l-564 565l312 250q131 104 131 166q0 46 -46 70t-147 30v4h508v-4q-58 -1 -116.5 -37t-188.5 -143z" />
    <glyph glyph-name="uni00660137" horiz-adv-x="2095" 
d="M1200 197q0 -111 35.5 -150t142.5 -43v-4h-567v4q113 4 150.5 43t37.5 150v1067q0 116 -37.5 156t-150.5 40h-383q-82 -109 -82 -215q0 -55 29.5 -98t77.5 -62h305l-4 -20h-301v-827q0 -134 45.5 -181t181.5 -53v-4h-617v4q114 4 151.5 43t37.5 150v841v27h-191l5 20h188
q10 141 76 266.5t175 203t232 77.5q61 0 99 -30.5t38 -81.5q0 -13 -4 -33q148 58 326 139h4v-1429zM1421 672l656 -668v-4h-262l-564 565l312 250q131 104 131 166q0 46 -46 70t-147 30v4h508v-4q-58 -1 -116.5 -37t-188.5 -143zM1503 -66q61 0 99 -41t38 -106
q0 -70 -54.5 -130t-147.5 -87l-2 4q42 20 68 56.5t26 74.5q0 40 -32.5 64.5t-86.5 27.5q-14 28 -14 45q0 40 30 66t76 26z" />
    <glyph glyph-name="f_lacute" horiz-adv-x="1425" 
d="M1317 1804q-66 -31 -404 -108l-2 4q106 110 191.5 179t134.5 93q20 10 47 10q39 0 65.5 -27.5t26.5 -64.5q0 -27 -15.5 -50.5t-43.5 -35.5zM1200 197q0 -111 37 -150t149 -43v-4h-575v4q113 4 150.5 43t37.5 150v1067q0 116 -37.5 156t-150.5 40h-383q-82 -109 -82 -215
q0 -55 29.5 -98t77.5 -62h305l-4 -20h-301v-827q0 -134 45.5 -181t181.5 -53v-4h-617v4q114 4 151.5 43t37.5 150v841v27h-191l5 20h188q10 141 76 266.5t175 203t232 77.5q61 0 99 -30.5t38 -81.5q0 -13 -4 -33q148 58 326 139h4v-1429z" />
    <glyph glyph-name="f_lcaron" horiz-adv-x="1443" 
d="M1200 197q0 -111 37 -150t149 -43v-4h-575v4q113 4 150.5 43t37.5 150v1067q0 116 -37.5 156t-150.5 40h-383q-82 -109 -82 -215q0 -55 29.5 -98t77.5 -62h305l-4 -20h-301v-827q0 -134 45.5 -181t181.5 -53v-4h-617v4q114 4 151.5 43t37.5 150v841v27h-191l5 20h188
q10 141 76 266.5t175 203t232 77.5q61 0 99 -30.5t38 -81.5q0 -13 -4 -33q148 58 326 139h4v-1429zM1391 1632q61 0 99 -47.5t38 -124.5q0 -89 -53.5 -172t-139.5 -127l-2 2q37 34 60.5 82.5t23.5 95.5q0 53 -30.5 89.5t-81.5 42.5q-23 26 -23 59q0 43 31 71.5t78 28.5z" />
    <glyph glyph-name="uni0066013C" horiz-adv-x="1425" 
d="M1200 197q0 -111 37 -150t149 -43v-4h-575v4q113 4 150.5 43t37.5 150v1067q0 116 -37.5 156t-150.5 40h-383q-82 -109 -82 -215q0 -55 29.5 -98t77.5 -62h305l-4 -20h-301v-827q0 -134 45.5 -181t181.5 -53v-4h-617v4q114 4 151.5 43t37.5 150v841v27h-191l5 20h188
q10 141 76 266.5t175 203t232 77.5q61 0 99 -30.5t38 -81.5q0 -13 -4 -33q148 58 326 139h4v-1429zM1083 -66q61 0 99.5 -41t38.5 -106q0 -70 -55 -130t-148 -87l-2 4q42 20 68 56.5t26 74.5q0 40 -32.5 64.5t-86.5 27.5q-14 28 -14 45q0 40 30 66t76 26z" />
    <glyph glyph-name="f_lslash" horiz-adv-x="1454" 
d="M1200 197q0 -111 37 -150t149 -43v-4h-575v4q113 4 150.5 43t37.5 150v589l-163 -108l-13 20l176 115v451q0 116 -37.5 156t-150.5 40h-383q-82 -109 -82 -215q0 -55 29.5 -98t77.5 -62h305l-4 -20h-301v-827q0 -134 45.5 -181t181.5 -53v-4h-617v4q114 4 151.5 43
t37.5 150v841v27h-191l5 20h188q10 141 76 266.5t175 203t232 77.5q61 0 99 -30.5t38 -81.5q0 -13 -4 -33q148 58 326 139h4v-704l168 110l12 -18l-180 -117v-700z" />
    <glyph glyph-name="f_thorn" horiz-adv-x="2136" 
d="M1565 1106q212 0 341.5 -144t129.5 -380q0 -270 -145.5 -436t-383.5 -166q-178 0 -307 81v-233q0 -134 45.5 -181t181.5 -53v-4h-616v4q113 4 150.5 43t37.5 150v1477q0 116 -37.5 156t-150.5 40h-383q-82 -109 -82 -215q0 -55 29.5 -98t77.5 -62h305l-4 -20h-301v-827
q0 -134 45.5 -181t181.5 -53v-4h-617v4q114 4 151.5 43t37.5 150v841v27h-191l5 20h188q10 141 76 266.5t175 203t232 77.5q61 0 99 -30.5t38 -81.5q0 -13 -4 -33q148 58 326 139h4v-725q64 93 165 149t200 56zM1468 10q156 0 251.5 148t95.5 391q0 221 -92 356t-240 135
q-74 0 -151 -46.5t-132 -125.5v-671q39 -90 111.5 -138.5t156.5 -48.5z" />
    <glyph glyph-name="zero.osf" horiz-adv-x="1388" 
d="M694 -20q-256 0 -411.5 154.5t-155.5 408.5t155.5 408.5t411.5 154.5q257 0 413.5 -155t156.5 -408t-156.5 -408t-413.5 -155zM694 4q157 0 252.5 148t95.5 391q0 242 -95.5 390t-252.5 148t-252.5 -148t-95.5 -390q0 -243 95.5 -391t252.5 -148z" />
    <glyph glyph-name="one.osf" horiz-adv-x="790" 
d="M496 213q0 -125 42 -165t181 -44v-4h-647v4q139 4 181 44t42 165v526q0 99 -22 142t-80 43q-51 0 -136 -33l-2 4q259 122 437 231h4v-913z" />
    <glyph glyph-name="two.osf" horiz-adv-x="1292" 
d="M1176 387h4l-60 -397q-195 10 -641 10h-459l-2 4q115 91 304 217q94 61 154 102.5t131.5 99t112.5 104.5t69 103t28 111q0 93 -67.5 150t-176.5 57q-135 0 -252.5 -73.5t-179.5 -186.5l-4 2q68 182 216.5 299t316.5 117q163 0 263.5 -87t100.5 -224q0 -48 -18.5 -95
t-47.5 -86t-78.5 -81t-96 -74t-116.5 -71.5t-123 -66.5t-132 -65q-44 -22 -158 -98h494q213 0 296.5 45.5t121.5 183.5z" />
    <glyph glyph-name="three.osf" horiz-adv-x="1177" 
d="M612 502q199 -24 321 -128t122 -257q0 -219 -248 -368t-686 -179v4q328 39 523.5 175.5t195.5 338.5q0 138 -97.5 223.5t-255.5 85.5q-99 0 -206 -47l-9 21q216 98 330.5 203t114.5 237q0 85 -66 137.5t-178 52.5q-104 0 -216.5 -56.5t-186.5 -143.5l-4 2
q84 140 223 227.5t291 87.5q154 0 248 -74.5t94 -197.5q0 -98 -83.5 -189t-226.5 -155z" />
    <glyph glyph-name="four.osf" horiz-adv-x="1345" 
d="M1331 31l-6 -31h-336v-401l-196 -23h-5v424h-745l-2 6l821 1079h127v-1065q180 0 338 11h4zM80 20h708v930z" />
    <glyph glyph-name="five.osf" horiz-adv-x="1335" 
d="M262 610q443 -39 660 -161t217 -347q0 -151 -114.5 -266.5t-326.5 -183.5t-501 -82v4q341 36 541 158.5t200 312.5q0 169 -184 262t-559 129l-2 6l169 643h146q294 0 424 8t217 33h4l-55 -202h-752z" />
    <glyph glyph-name="six.osf" horiz-adv-x="1308" 
d="M739 868q207 0 341 -117.5t134 -306.5q0 -209 -151 -336.5t-399 -127.5q-249 0 -400 166t-151 436q0 218 132 424t374 369t559 257l2 -4q-336 -136 -559.5 -378t-274.5 -521q76 64 181 101.5t212 37.5zM664 4q148 0 238.5 124t90.5 325q0 171 -83 279t-214 108
q-103 0 -203.5 -59.5t-158.5 -157.5q-2 -12 -2 -41q0 -258 91.5 -418t240.5 -160z" />
    <glyph glyph-name="seven.osf" horiz-adv-x="1376" 
d="M1288 1085l2 -6q-260 -380 -420 -721.5t-215 -672.5q-18 -115 -125 -115q-96 0 -96 94q0 129 115.5 366.5t281 478.5t326.5 415h-598q-127 0 -201 -22t-122.5 -74t-92.5 -156l-4 2l131 444h4q72 -20 209.5 -26.5t417.5 -6.5h387z" />
    <glyph glyph-name="eight.osf" horiz-adv-x="1341" 
d="M772 838q59 -28 94.5 -46t89 -48t86 -54t70.5 -59t59 -69.5t35.5 -78.5t14.5 -92q0 -186 -151.5 -298.5t-403.5 -112.5q-246 0 -395.5 105t-149.5 277q0 118 114 218.5t302 150.5q-59 30 -105 58.5t-92 68t-76 82t-48.5 98t-18.5 117.5q0 163 128.5 262t340.5 99
q214 0 344.5 -93t130.5 -247q0 -111 -101.5 -203t-269.5 -133zM369 1227q0 -52 21 -99.5t52.5 -83t84.5 -72t99.5 -62t114.5 -58.5q109 61 173.5 151.5t64.5 186.5q0 135 -86 218t-227 83q-133 0 -215 -72.5t-82 -191.5zM666 4q167 0 269.5 84.5t102.5 222.5q0 36 -11.5 70
t-28.5 61t-47.5 54.5t-58 48t-71 45t-76.5 40.5t-83 40q-63 28 -95 45q-128 -67 -204 -167t-76 -200q0 -155 104.5 -249.5t274.5 -94.5z" />
    <glyph glyph-name="nine.osf" horiz-adv-x="1308" 
d="M637 1106q252 0 405.5 -166t153.5 -436q0 -293 -220.5 -550t-582.5 -384l-2 4q232 123 387 340t189 465q-78 -66 -183 -104.5t-215 -38.5q-208 0 -341.5 114.5t-133.5 300.5q0 204 149.5 329.5t393.5 125.5zM610 266q103 0 203.5 59t161.5 156v25q0 258 -93 416.5
t-245 158.5q-145 0 -233.5 -120.5t-88.5 -317.5q0 -167 82 -272t213 -105z" />
    <glyph glyph-name="zero.dnom" horiz-adv-x="884" 
d="M442 -12q-155 0 -250.5 118.5t-95.5 313.5q0 193 95.5 311.5t250.5 118.5t250.5 -118.5t95.5 -311.5q0 -195 -95.5 -313.5t-250.5 -118.5zM442 6q78 0 125 114t47 300q0 185 -47 298t-125 113t-125 -112.5t-47 -298.5t47 -300t125 -114z" />
    <glyph glyph-name="one.dnom" horiz-adv-x="575" 
d="M377 135q0 -72 28 -99.5t109 -31.5v-4h-430v4q82 4 109.5 31.5t27.5 99.5v475q0 50 -13 73.5t-48 23.5q-28 0 -86 -21l-2 4q153 75 303 170h2v-725z" />
    <glyph glyph-name="two.dnom" horiz-adv-x="839" 
d="M754 268h4l-39 -274q-120 6 -430 6h-238l-2 4q71 73 178 166q69 59 111.5 98.5t88 93t67.5 105t22 104.5q0 69 -44 111.5t-116 42.5q-77 0 -144 -39.5t-106 -105.5l-4 2q47 121 141.5 194.5t200.5 73.5q107 0 172.5 -57.5t65.5 -149.5q0 -65 -31.5 -127t-92.5 -119.5
t-117.5 -99t-139.5 -94.5q-39 -28 -92 -72h283q132 0 185.5 27.5t76.5 109.5z" />
    <glyph glyph-name="three.dnom" horiz-adv-x="747" 
d="M371 518q133 -25 207.5 -87.5t74.5 -151.5q0 -124 -144 -200t-405 -91v4q180 19 286 82.5t106 163.5q0 70 -62.5 107.5t-191.5 53.5l-2 4l280 306h-215q-97 0 -144.5 -25t-80.5 -100l-4 2l74 272h2q87 -18 397 -18h110l3 -4z" />
    <glyph glyph-name="four.dnom" horiz-adv-x="847" 
d="M786 233h-186v-108q0 -66 24.5 -91.5t96.5 -29.5v-4h-422v4q87 6 115 35t28 108v86h-397l-2 3l444 604h113v-588q100 0 188 6h3zM80 252h362v493z" />
    <glyph glyph-name="five.dnom" horiz-adv-x="733" 
d="M139 575q258 -25 379 -93.5t121 -196.5q0 -129 -146.5 -206t-402.5 -91v4q179 19 286 83.5t107 164.5q0 86 -96.5 132.5t-298.5 65.5v4l102 398h97q157 0 232 4t126 18h4l-41 -155h-434z" />
    <glyph glyph-name="six.dnom" horiz-adv-x="817" 
d="M463 492q123 0 201.5 -67t78.5 -175q0 -117 -90 -189.5t-237 -72.5q-146 0 -236 93.5t-90 244.5q0 163 146.5 308.5t384.5 215.5l2 -4q-133 -61 -225.5 -171.5t-121.5 -240.5q80 58 187 58zM416 6q70 0 112.5 68.5t42.5 181.5q0 94 -39.5 153.5t-101.5 59.5
q-45 0 -88.5 -26t-75.5 -68q-2 -16 -2 -49q0 -144 42 -232t110 -88z" />
    <glyph glyph-name="seven.dnom" horiz-adv-x="774" 
d="M526 840h215v-4q-293 -444 -340 -762q-15 -86 -94 -86q-76 0 -76 69q0 101 131.5 303.5t276.5 346.5h-356q-97 0 -144 -24.5t-82 -98.5l-4 2l74 272h2q87 -18 397 -18z" />
    <glyph glyph-name="eight.dnom" horiz-adv-x="829" 
d="M485 483q47 -22 75.5 -37t66.5 -40t58.5 -49t36 -58t15.5 -72q0 -107 -89.5 -173t-237.5 -66q-143 0 -231.5 59t-88.5 156q0 64 64.5 116t169.5 74q-92 47 -143.5 103.5t-51.5 142.5q0 95 77.5 153t203.5 58q127 0 205.5 -52.5t78.5 -138.5q0 -60 -57 -108.5t-152 -67.5z
M260 692q0 -34 15 -63t47 -54t60.5 -41t76.5 -40q53 37 82.5 84t29.5 94q0 72 -44 115.5t-117 43.5q-67 0 -108.5 -38.5t-41.5 -100.5zM410 6q84 0 136 45t52 117q0 34 -15.5 62t-49 52t-62 39.5t-78.5 38.5l-45 21q-61 -37 -96 -88t-35 -103q0 -83 53 -133.5t140 -50.5z
" />
    <glyph glyph-name="nine.dnom" horiz-adv-x="813" 
d="M389 850q149 0 240.5 -92.5t91.5 -243.5q0 -165 -130.5 -309.5t-344.5 -216.5l-2 4q114 64 193 178.5t102 247.5q-81 -58 -193 -58q-121 0 -199.5 65.5t-78.5 170.5q0 114 88 184t233 70zM381 381q44 0 90 27.5t74 70.5q2 12 2 37q0 142 -43.5 228.5t-114.5 86.5
q-66 0 -107.5 -67t-41.5 -174q0 -91 39 -150t102 -59z" />
    <glyph glyph-name="zero.numr" horiz-adv-x="884" 
d="M442 643q-155 0 -250.5 118.5t-95.5 313.5q0 193 95.5 311.5t250.5 118.5t250.5 -118.5t95.5 -311.5q0 -195 -95.5 -313.5t-250.5 -118.5zM442 662q78 0 125 113.5t47 299.5q0 185 -47 298.5t-125 113.5t-125 -113t-47 -299t47 -299.5t125 -113.5z" />
    <glyph glyph-name="one.numr" horiz-adv-x="575" 
d="M379 791q0 -74 27 -101t110 -31v-4h-432v4q82 4 109.5 31.5t27.5 100.5v475q0 50 -12.5 73t-48.5 23q-25 0 -86 -21l-2 5q168 81 305 170h2v-725z" />
    <glyph glyph-name="two.numr" horiz-adv-x="839" 
d="M754 922h4l-39 -273q-120 6 -430 6h-238l-2 4q79 81 178 164q55 47 89.5 79t76.5 76.5t66 81t40.5 80.5t16.5 87q0 69 -44 110t-116 41q-77 0 -144 -39t-106 -106l-4 2q47 122 141.5 196t200.5 74q107 0 172.5 -57.5t65.5 -149.5q0 -65 -31.5 -127t-92.5 -119.5
t-117.5 -99t-139.5 -94.5q-39 -28 -92 -72h283q133 0 186 27.5t76 108.5z" />
    <glyph glyph-name="three.numr" horiz-adv-x="747" 
d="M371 1174q133 -23 208.5 -87t75.5 -153q0 -124 -144.5 -200t-406.5 -91v4q181 19 287.5 82.5t106.5 163.5q0 70 -63.5 108t-190.5 54l-2 4l280 305h-215q-97 0 -144.5 -25.5t-80.5 -99.5l-4 2l74 272h2q77 -18 395 -18h113l2 -4z" />
    <glyph glyph-name="four.numr" horiz-adv-x="845" 
d="M786 887h-186v-107q0 -66 24.5 -91.5t96.5 -29.5v-4h-422v4q86 4 114.5 34t28.5 110v84h-397l-2 4l444 604h113v-590q100 0 188 6h3zM78 905h364v496z" />
    <glyph glyph-name="five.numr" horiz-adv-x="735" 
d="M141 1231q258 -25 379 -94t121 -197q0 -130 -146 -206.5t-403 -90.5v4q179 19 286 83.5t107 164.5q0 86 -96.5 132t-298.5 67v4l100 397h99q153 0 230 4.5t128 18.5h4l-41 -156h-434z" />
    <glyph glyph-name="six.numr" horiz-adv-x="817" 
d="M463 1147q122 0 201 -67.5t79 -174.5q0 -117 -90 -189.5t-237 -72.5q-146 0 -236 93.5t-90 244.5q0 163 146.5 308.5t384.5 215.5l2 -4q-133 -61 -225.5 -171t-121.5 -240q79 57 187 57zM416 662q70 0 112.5 68t42.5 181q0 94 -39.5 153.5t-101.5 59.5q-45 0 -88.5 -26
t-75.5 -68q-2 -16 -2 -49q0 -144 42 -231.5t110 -87.5z" />
    <glyph glyph-name="seven.numr" horiz-adv-x="774" 
d="M528 1495h215v-4q-293 -444 -340 -762q-14 -86 -94 -86q-76 0 -76 70q0 101 131 303t277 346h-356q-97 0 -144 -24.5t-82 -98.5l-4 2l74 272h2q76 -18 397 -18z" />
    <glyph glyph-name="eight.numr" horiz-adv-x="829" 
d="M483 1137q48 -23 76 -37t66.5 -39.5t59.5 -49t36.5 -57t15.5 -71.5q0 -108 -90 -174t-237 -66q-143 0 -231.5 59t-88.5 154q0 66 64.5 118.5t169.5 74.5q-91 45 -143 101.5t-52 143.5q0 95 77.5 153t203.5 58q127 0 205.5 -52t78.5 -138q0 -60 -58 -109t-155 -69h2z
M260 1348q0 -34 15 -63.5t47 -54t61.5 -41.5t77.5 -40q51 37 80.5 84t29.5 94q0 72 -44 116t-117 44q-67 0 -108.5 -38.5t-41.5 -100.5zM410 662q84 0 136 44t52 115q0 34 -15.5 63t-49 53t-62.5 40t-78 39q-32 14 -43 20q-62 -37 -97.5 -87.5t-35.5 -104.5q0 -82 53.5 -132
t139.5 -50z" />
    <glyph glyph-name="nine.numr" horiz-adv-x="813" 
d="M389 1505q149 0 240.5 -92.5t91.5 -243.5q0 -165 -130.5 -309.5t-344.5 -216.5l-2 4q114 64 193 178.5t102 247.5q-83 -57 -193 -57q-122 0 -200 64.5t-78 170.5q0 114 88 184t233 70zM381 1036q44 0 90 28t74 71q2 12 2 36q0 141 -43.5 228.5t-114.5 87.5
q-66 0 -107.5 -67.5t-41.5 -174.5q0 -93 39 -151t102 -58z" />
    <glyph glyph-name="exclamdown.case" horiz-adv-x="659" 
d="M330 1227q-65 0 -106.5 40t-41.5 103t42 104.5t106 41.5t105.5 -41.5t41.5 -104.5t-41 -103t-106 -40zM330 -20q-56 0 -88.5 34t-32.5 92q0 210 53 480q21 112 30 161t21 143t15 173h4q9 -181 65 -477q54 -259 54 -480q0 -58 -31.5 -92t-89.5 -34z" />
    <glyph glyph-name="questiondown.case" horiz-adv-x="935" 
d="M573 1227q-65 0 -106 40t-41 103t41.5 104.5t105.5 41.5t106 -41.5t42 -104.5t-41.5 -103t-106.5 -40zM780 154q13 -39 13 -62q0 -50 -39 -81t-99 -31q-105 0 -206.5 46t-174.5 119.5t-118 168t-45 188.5q0 152 118 239.5t334 98.5q22 121 25 223h4q40 -230 90 -391
l-4 -4q-252 -6 -384 -70.5t-132 -179.5q0 -139 151 -264h467z" />
    <glyph glyph-name="parenleft.case" horiz-adv-x="735" 
d="M735 -238q-286 160 -443 411t-157 581t157 580.5t443 410.5l4 -4q-200 -166 -313 -417t-113 -570t113 -570t313 -417z" />
    <glyph glyph-name="parenright.case" horiz-adv-x="735" 
d="M0 -238l-4 5q200 166 313 417t113 570t-113 570t-313 417l4 4q286 -160 443 -410.5t157 -580.5t-157 -581t-443 -411z" />
    <glyph glyph-name="braceleft.case" horiz-adv-x="743" 
d="M446 86q0 -86 62.5 -153.5t228.5 -161.5l-2 -4q-182 54 -286.5 110.5t-142.5 111t-38 126.5q0 63 56 198q61 150 61 222q0 99 -52 153.5t-186 54.5h-12v21h12q134 0 186 55.5t52 153.5q0 71 -61 221q-56 135 -56 199q0 72 38 126.5t142.5 111t286.5 110.5l2 -4
q-166 -94 -228.5 -162t-62.5 -154q0 -60 54 -190q63 -145 63 -230q0 -104 -67 -168.5t-230 -78.5q163 -14 230 -79t67 -169q0 -85 -63 -230q-54 -130 -54 -190z" />
    <glyph glyph-name="braceright.case" horiz-adv-x="743" 
d="M596 764h12v-21h-12q-134 0 -186 -54.5t-52 -153.5q0 -33 10.5 -74.5t20.5 -69t31 -78.5q55 -133 55 -198q0 -72 -38 -126.5t-142.5 -111t-286.5 -110.5l-2 4q166 94 228.5 161.5t62.5 153.5q0 62 -53 190q-64 147 -64 230q0 104 67 169t230 79q-163 14 -230 78.5
t-67 168.5q0 83 64 230q53 128 53 190q0 86 -62.5 154t-228.5 162l2 4q182 -54 286.5 -110.5t142.5 -111t38 -126.5q0 -66 -55 -199q-21 -52 -31 -78.5t-20.5 -68t-10.5 -74.5q0 -98 52 -153.5t186 -55.5z" />
    <glyph glyph-name="bracketleft.case" horiz-adv-x="882" 
d="M795 1749q-170 -7 -227.5 -61.5t-57.5 -208.5v-1450q0 -154 57.5 -209t227.5 -62v-4h-471v1999h471v-4z" />
    <glyph glyph-name="bracketright.case" horiz-adv-x="882" 
d="M559 1753v-1999h-471v4q170 7 227.5 62t57.5 209v1450q0 154 -57.5 208.5t-227.5 61.5v4h471z" />
    <glyph glyph-name="hyphen.case" horiz-adv-x="862" 
d="M84 758l4 20h688l-4 -20h-688z" />
    <glyph glyph-name="uni00AD.case" horiz-adv-x="862" 
d="M84 758l4 20h688l-4 -20h-688z" />
    <glyph glyph-name="endash.case" horiz-adv-x="1191" 
d="M84 758l4 20h1020l-4 -20h-1020z" />
    <glyph glyph-name="emdash.case" horiz-adv-x="1642" 
d="M84 758l4 20h1468l-4 -20h-1468z" />
    <glyph glyph-name="guillemotleft.case" horiz-adv-x="825" 
d="M436 1171l-194 -407l194 -408l-4 -2l-344 389v39l344 392zM737 1171l-194 -407l194 -408l-4 -2l-344 389v39l344 392z" />
    <glyph glyph-name="guillemotright.case" horiz-adv-x="825" 
d="M436 782v-39l-344 -389l-4 2l193 408l-193 407l4 3zM393 1174l344 -392v-39l-344 -389l-4 2l195 408l-195 407z" />
    <glyph glyph-name="guilsinglleft.case" horiz-adv-x="524" 
d="M436 1171l-194 -407l194 -408l-4 -2l-344 389v39l344 392z" />
    <glyph glyph-name="guilsinglright.case" horiz-adv-x="524" 
d="M92 1174l344 -392v-39l-344 -389l-4 2l193 408l-193 407z" />
    <glyph glyph-name="uni20BF.osf" horiz-adv-x="1415" 
d="M885 621q182 -9 290.5 -92.5t108.5 -213.5q0 -140 -118 -227.5t-296 -87.5h-18v-205h-25v205h-258v-205h-24v205h-443v4q112 4 149.5 43t37.5 150v792q0 111 -37.5 151t-149.5 44v4h443v192h24v-192h215q29 0 43 -2v194h25v-196q153 -14 243.5 -89t90.5 -190
q0 -113 -80.5 -187.5t-220.5 -96.5zM719 1167h-230v-540h230q116 0 183 74t67 198q0 121 -67 194.5t-183 73.5zM799 20q116 0 192 81.5t76 213.5q0 131 -79 211t-212 80h-287v-405q0 -108 21.5 -144.5t87.5 -36.5h201z" />
    <glyph glyph-name="cent.osf" horiz-adv-x="1245" 
d="M1118 279q-54 -120 -163.5 -199t-243.5 -96v-207h-25v205q-12 -2 -39 -2q-235 0 -377.5 152.5t-142.5 404.5q0 255 153 411.5t406 157.5v201h25v-201q179 -6 287 -105.5t108 -259.5q0 -62 -32.5 -100.5t-84.5 -38.5q-55 0 -84 25v387q-76 64 -194 67v-999q10 -2 32 -2
q106 0 209 55t162 146zM328 596q0 -213 97.5 -351.5t260.5 -160.5v997q-162 -3 -260 -136t-98 -349z" />
    <glyph glyph-name="dollar.osf" horiz-adv-x="1234" 
d="M678 686q47 -18 71.5 -28t68 -28.5t68 -31.5t60.5 -34t56.5 -39.5t44.5 -43.5t37 -50t21.5 -56t8.5 -64q0 -153 -127 -242t-350 -89h-10v-185h-25v187q-81 4 -179 35.5t-124 31.5q-28 0 -46 -12t-44 -47h-2l-84 393l4 2q64 -167 192.5 -269.5t282.5 -111.5v512
q-60 23 -92 36t-86 38.5t-84.5 45t-69.5 50.5t-59 61t-34.5 70.5t-14.5 85.5q0 139 108 222t287 83q37 0 53 -2v174h25v-176q59 -8 150.5 -33.5t123.5 -25.5q25 0 40.5 11t35.5 42h4l88 -379l-4 -2q-46 143 -168 241t-270 120v-476q7 -3 21.5 -8t21.5 -8zM315 979
q0 -47 22.5 -86.5t66 -72t91.5 -57t115 -50.5v469q-16 2 -51 2q-112 0 -178 -55.5t-66 -149.5zM631 4q155 0 236 61t81 171q0 39 -18 73t-44.5 59.5t-73 52t-85.5 44t-100 41.5v-502h4z" />
    <glyph glyph-name="Euro.osf" horiz-adv-x="1423" 
d="M1223 389h4v-399h-4q-30 32 -49 42.5t-44 10.5q-28 0 -132 -31.5t-189 -31.5q-225 0 -376 132t-185 357h-191l4 20h183q-6 49 -6 105q0 59 10 127h-191l4 20h189q40 215 189.5 341t369.5 126q65 0 128 -15t108.5 -30.5t68.5 -15.5t42.5 10t51.5 39h4v-377h-4
q-22 164 -119.5 261.5t-248.5 97.5q-145 0 -244 -118t-127 -319h463l-4 -20h-461q-8 -55 -8 -127q0 -39 4 -105h426l-4 -20h-420q25 -212 125.5 -336.5t249.5 -124.5q158 0 260 104t123 277z" />
    <glyph glyph-name="sterling.osf" horiz-adv-x="1339" 
d="M1237 387h4l-59 -397q-215 10 -729 10h-392l-2 6q91 70 152 148l-2 4h4q98 128 98 299q0 66 -8 118h-227l4 21h221q0 3 -1 8t-1 8q-16 110 -16 183q0 189 136.5 301t358.5 112q195 0 313.5 -90t118.5 -239q0 -56 -32 -90.5t-86 -34.5q-58 0 -82 24v334q-90 72 -234 72
q-74 0 -129 -18.5t-87.5 -49t-52.5 -76t-27 -91.5t-7 -105q0 -61 21 -154q10 -38 20 -94h500l-4 -21h-492q4 -46 4 -67q0 -119 -77.5 -207.5t-217.5 -142.5h592q146 0 224.5 19.5t122.5 67t71 142.5z" />
    <glyph glyph-name="yen.osf" horiz-adv-x="1404" 
d="M842 1188h506v-4q-78 -10 -144 -75t-186 -249l-217 -346h334l-5 -20h-331v-234h336l-5 -20h-331v-2q0 -134 45 -181t182 -53v-4h-661v4q138 6 183.5 53t45.5 181v2h-330l4 20h326v225l-4 9h-326l4 20h307l-286 459q-77 120 -120.5 161t-111.5 50v4h619v-4
q-101 -12 -144 -41.5t-43 -87.5q0 -44 68 -152l236 -356l174 270q51 84 74.5 133t23.5 82q0 71 -53.5 108t-169.5 44v4z" />
    <glyph glyph-name="percent.osf" horiz-adv-x="1931" 
d="M535 -45l-17 14l879 1161l16 -14zM510 481q-140 0 -225.5 85.5t-85.5 226.5t85.5 227t225.5 86q141 0 227 -86t86 -227t-86 -226.5t-227 -85.5zM510 500q75 0 120.5 80t45.5 213t-45.5 213.5t-120.5 80.5t-120.5 -80.5t-45.5 -213.5t45.5 -213t120.5 -80zM1421 -23
q-141 0 -226 86.5t-85 227.5t85 226t226 85t226.5 -85t85.5 -226t-85.5 -227.5t-226.5 -86.5zM1421 -4q75 0 120.5 81t45.5 214t-45.5 213t-120.5 80t-120.5 -80t-45.5 -213t45.5 -214t120.5 -81z" />
    <glyph glyph-name="perthousand.osf" horiz-adv-x="2676" 
d="M535 -45l-17 14l879 1161l16 -14zM510 481q-140 0 -225.5 85.5t-85.5 226.5t85.5 227t225.5 86q141 0 227 -86t86 -227t-86 -226.5t-227 -85.5zM510 500q75 0 120.5 80t45.5 213t-45.5 213.5t-120.5 80.5t-120.5 -80.5t-45.5 -213.5t45.5 -213t120.5 -80zM1421 -23
q-141 0 -226 86.5t-85 227.5t85 226t226 85t226.5 -85t85.5 -226t-85.5 -227.5t-226.5 -86.5zM2167 -23q-141 0 -227.5 86.5t-86.5 227.5t86.5 226t227.5 85q140 0 225.5 -85t85.5 -226t-85.5 -227.5t-225.5 -86.5zM1421 -4q75 0 120.5 81t45.5 214t-45.5 213t-120.5 80
t-120.5 -80t-45.5 -213t45.5 -214t120.5 -81zM2167 -4q75 0 120.5 81t45.5 214t-45.5 213t-120.5 80t-120.5 -80t-45.5 -213t45.5 -214t120.5 -81z" />
    <glyph glyph-name="at.case" horiz-adv-x="2052" 
d="M866 696l373 140v174q0 102 -51.5 157.5t-145.5 55.5q-54 0 -111 -19.5t-100 -50.5v-299q-39 -25 -86 -25q-43 0 -69.5 27t-26.5 72q0 95 77 174.5t184.5 120.5t211.5 41q142 0 220.5 -76.5t78.5 -212.5v-549q0 -125 117 -125q158 0 259 166t101 434q0 176 -58 325
t-158.5 252t-241 160.5t-301.5 57.5q-293 0 -517 -131t-345 -366t-121 -540q0 -410 212.5 -635t596.5 -225q224 0 431 65.5t341 174.5l2 -4q-136 -118 -344.5 -189t-429.5 -71q-394 0 -616 232.5t-222 651.5q0 234 72.5 431.5t203.5 336t320 216t416 77.5q168 0 314 -59
t250.5 -164.5t164 -259t59.5 -334.5q0 -293 -121 -473t-319 -180q-105 0 -174.5 52t-73.5 138q-190 -190 -383 -190q-121 0 -191.5 56t-70.5 149q0 77 63.5 132.5t208.5 108.5zM791 479q0 -69 43 -110t112 -41q67 0 137 34t156 101v350l-192 -72q-256 -100 -256 -262z" />
    <glyph glyph-name="uni0308.case" 
d="M-768 1659q-51 0 -84 33t-33 84q0 50 33 82t84 32q50 0 83.5 -32.5t33.5 -81.5q0 -51 -33.5 -84t-83.5 -33zM-358 1659q-51 0 -84 33t-33 84q0 50 33 82t84 32q50 0 83 -32.5t33 -81.5q0 -51 -33 -84t-83 -33z" />
    <glyph glyph-name="uni0307.case" 
d="M-358 1647q-60 0 -100 38t-40 95q0 58 40 96.5t100 38.5q59 0 98 -38.5t39 -96.5q0 -57 -39 -95t-98 -38z" />
    <glyph glyph-name="gravecomb.case" 
d="M-221 1604q-342 78 -404 108q-28 12 -43.5 35.5t-15.5 50.5q0 37 26.5 64.5t65.5 27.5q28 0 45 -10q49 -23 135.5 -92.5t192.5 -179.5z" />
    <glyph glyph-name="acutecomb.case" 
d="M-668 1604l-2 4q106 110 192.5 179.5t135.5 92.5q17 10 45 10q39 0 65.5 -27.5t26.5 -64.5q0 -27 -15.5 -50.5t-43.5 -35.5q-62 -30 -404 -108z" />
    <glyph glyph-name="uni030B.case" 
d="M-938 1589l-2 4q88 126 162 209.5t116 110.5q27 18 58 18q36 0 64 -27t28 -65q0 -48 -47 -82q-57 -39 -379 -168zM-580 1589l-2 4q86 124 161.5 208t117.5 112q27 18 57 18q37 0 64.5 -27t27.5 -65q0 -51 -47 -82q-62 -42 -379 -168z" />
    <glyph glyph-name="uni0302.case" 
d="M-258 1608l-2 -4l-305 135l-305 -135l-2 4l305 282h4z" />
    <glyph glyph-name="uni030C.case" 
d="M-260 1890l2 -4l-305 -282h-4l-305 282l2 4l305 -133z" />
    <glyph glyph-name="uni0306.case" 
d="M-553 1599q-97 0 -185 75t-132 208l4 2q62 -67 143.5 -106t169.5 -39t169.5 39t143.5 106l4 -2q-44 -133 -132 -208t-185 -75z" />
    <glyph glyph-name="uni030A.case" 
d="M-553 1573q-97 0 -156 55t-59 146t59 145.5t156 54.5t156 -54.5t59 -145.5t-59 -146t-156 -55zM-553 1597q84 0 135 49t51 128t-51 127.5t-135 48.5t-135 -48.5t-51 -127.5t51 -128t135 -49z" />
    <glyph glyph-name="tildecomb.case" 
d="M-436 1608q-36 0 -77 12.5t-68.5 25.5t-69.5 37q-120 74 -195 74q-122 0 -170 -133l-4 2q12 106 78 185t151 79q50 0 98 -19.5t109 -55.5q64 -37 110 -55.5t95 -18.5q120 0 168 133l4 -2q-13 -108 -76.5 -186t-152.5 -78z" />
    <glyph glyph-name="uni0304.case" 
d="M-887 1698l4 20h686l-4 -20h-686z" />
    <glyph glyph-name="uni0304.narrow.case" 
d="M-825 1700l4 20h563l-4 -20h-563z" />
    <glyph glyph-name="uni0308.narrow" 
d="M-719 1370q-46 0 -77 32t-31 79t31 78.5t77 31.5q47 0 79 -31.5t32 -78.5t-32 -79t-79 -32zM-410 1370q-47 0 -77.5 31.5t-30.5 79.5q0 47 30.5 78.5t77.5 31.5t78 -31.5t31 -78.5t-31 -79t-78 -32z" />
    <glyph glyph-name="uni0304.narrow" 
d="M-825 1450l4 20h563l-4 -20h-563z" />
    </font>
</defs>
</svg>
