<?xml version="1.0" standalone="no"?>
<!DOCTYPE svg PUBLIC "-//W3C//DTD SVG 1.1//EN" "http://www.w3.org/Graphics/SVG/1.1/DTD/svg11.dtd" >
<svg xmlns="http://www.w3.org/2000/svg" xmlns:xlink="http://www.w3.org/1999/xlink" version="1.1">
<metadata>
Created by FontForge 20170731 at Fri Mar 31 05:53:55 2023
 By Aleksey,,,
Copyright (c) 2019 by Alberto Romanos. All rights reserved.
</metadata>
<defs>
<font id="BwBetoGrande-LightItalic" horiz-adv-x="0" >
  <font-face 
    font-family="Bw Beto Grande Light Italic"
    font-weight="300"
    font-style="italic"
    font-stretch="normal"
    units-per-em="2048"
    panose-1="0 0 4 0 0 0 0 0 0 0"
    ascent="1638"
    descent="-410"
    x-height="1092"
    cap-height="1491"
    bbox="-950 -459 2521 1960"
    underline-thickness="102"
    underline-position="-307"
    slope="-10"
    unicode-range="U+000D-FB02"
  />
<missing-glyph horiz-adv-x="2541" 
d="M178 -20q-15 0 -25 10.5t-10 25.5q0 20 11 31l700 698h-664q-47 0 -47 39q0 18 15 33l696 701h-670q-41 0 -41 38v3q0 38 41 38h758q47 0 47 -41q0 -18 -16 -34l-699 -697h676q17 0 29 -12t12 -29v-669l695 692q16 16 34 16q37 0 37 -45v-663l697 692q16 16 32 16
q15 0 25 -12t10 -27q0 -16 -12 -28l-754 -762q-14 -14 -35 -14q-41 0 -41 47v663l-694 -696q-14 -14 -35 -14q-41 0 -41 47v663l-696 -696q-14 -14 -35 -14z" />
    <glyph glyph-name="fi" unicode="fi" horiz-adv-x="1267" 
d="M741 1061h-288l-170 -952q-35 -197 -142.5 -345t-249.5 -194l-2 4q96 69 162 194t94 285l174 987q1 3 2.5 10.5t2.5 10.5h-185l8 20h181q31 146 100.5 270t167.5 199.5t201 75.5q34 0 57 -21.5t23 -56.5q0 -23 -21 -71h-299q-63 -72 -102 -150t-39 -137q0 -85 41 -109
h293zM1135 1581q40 0 67 -27t27 -65q0 -44 -30.5 -74.5t-76.5 -30.5q-40 0 -67 26.5t-27 66.5q0 44 31 74t76 30zM989 68q81 0 201 272l4 -2q-58 -178 -126.5 -268t-141.5 -90q-109 0 -109 100q0 13 4 41l146 809q2 23 2 41q0 24 -8 33.5t-29 9.5q-79 0 -199 -273l-4 2
q56 177 125.5 268t142.5 91q52 0 80.5 -25.5t28.5 -75.5q0 -12 -4 -40l-146 -809q-4 -23 -4 -41q0 -24 9 -33.5t28 -9.5z" />
    <glyph glyph-name="fl" unicode="fl" horiz-adv-x="1226" 
d="M946 68q38 0 89.5 68t111.5 204l4 -2q-58 -177 -127.5 -267.5t-142.5 -90.5q-109 0 -109 100q0 20 6 41l217 1231q9 54 -24 72t-142 18h-282q-58 -66 -92.5 -137t-34.5 -127q0 -74 37 -97h297l-9 -20h-292l-170 -952q-35 -197 -142.5 -345t-249.5 -194l-2 4
q96 70 162 195t94 284l174 987q1 3 2.5 10.5t2.5 10.5h-185l8 20h181q48 215 185 361.5t304 146.5q40 0 67 -22.5t27 -57.5q0 -12 -2 -18q152 58 258 127h4l-258 -1466q-4 -23 -4 -41q0 -24 9 -33.5t28 -9.5z" />
    <glyph glyph-name=".notdef" horiz-adv-x="2541" 
d="M178 -20q-15 0 -25 10.5t-10 25.5q0 20 11 31l700 698h-664q-47 0 -47 39q0 18 15 33l696 701h-670q-41 0 -41 38v3q0 38 41 38h758q47 0 47 -41q0 -18 -16 -34l-699 -697h676q17 0 29 -12t12 -29v-669l695 692q16 16 34 16q37 0 37 -45v-663l697 692q16 16 32 16
q15 0 25 -12t10 -27q0 -16 -12 -28l-754 -762q-14 -14 -35 -14q-41 0 -41 47v663l-694 -696q-14 -14 -35 -14q-41 0 -41 47v663l-696 -696q-14 -14 -35 -14z" />
    <glyph glyph-name=".null" 
 />
    <glyph glyph-name="nonmarkingreturn" horiz-adv-x="682" 
 />
    <glyph glyph-name="CR" unicode="&#xd;" horiz-adv-x="538" 
 />
    <glyph glyph-name="space" unicode=" " horiz-adv-x="538" 
 />
    <glyph glyph-name="exclam" unicode="!" horiz-adv-x="565" 
d="M256 399q35 241 45 496q8 301 43 514q9 49 38.5 75.5t70.5 26.5q77 0 77 -73q0 -91 -141 -564q-110 -387 -129 -475h-4zM201 -20q-54 0 -86.5 30t-32.5 80q0 54 37.5 90.5t91.5 36.5t86.5 -30t32.5 -81q0 -53 -37.5 -89.5t-91.5 -36.5z" />
    <glyph glyph-name="quotedbl" unicode="&#x22;" horiz-adv-x="690" 
d="M285 1063l16 534l172 29h4l-188 -563h-4zM571 1063l19 534l172 29h4l-191 -563h-4z" />
    <glyph glyph-name="numbersign" unicode="#" horiz-adv-x="1220" 
d="M1180 817h-250l-146 -422h254l-6 -20h-254l-129 -375h-20l127 375h-434l-127 -375h-23l127 375h-240l7 20h241l144 422h-244l6 21h244l118 346h23l-119 -346h434l119 346h23l-119 -346h250zM764 395l143 422h-434l-143 -422h434z" />
    <glyph glyph-name="dollar" unicode="$" horiz-adv-x="1191" 
d="M1110 997q-31 192 -119 320t-211 160l-108 -625q7 -5 22.5 -13t18.5 -10q47 -25 70.5 -38t65.5 -39t64.5 -45t52 -49.5t44.5 -59.5t26 -67t11 -80q0 -205 -149 -338t-378 -133h-8l-33 -191l-22 4l32 187q-69 5 -151 37t-117 32q-27 0 -48.5 -12.5t-49.5 -46.5h-4l-10 530
l2 2q25 -235 126 -371t257 -147l124 698q-66 35 -107 59.5t-91 63t-78.5 75.5t-48 89.5t-19.5 112.5q0 179 122.5 294t310.5 115q25 0 57 -4l31 170l20 -4l-31 -170q39 -9 103 -37t98 -28q29 0 45.5 12t46.5 51h4l33 -502zM651 864l109 617q-27 6 -58 6q-126 0 -211 -91.5
t-85 -226.5q0 -102 63 -170.5t182 -134.5zM913 387q0 45 -17 85.5t-39.5 68t-64.5 58.5t-71.5 48t-81.5 45l-121 -688q169 0 282 109.5t113 273.5z" />
    <glyph glyph-name="percent" unicode="%" horiz-adv-x="1779" 
d="M240 -49l-15 14l1432 1575l12 -14zM446 641q-112 0 -174.5 82.5t-62.5 224.5q0 147 53 274.5t142.5 203t193.5 75.5q112 0 176 -82.5t64 -222.5q0 -147 -53.5 -275t-144 -204t-194.5 -76zM449 659q65 0 128 90.5t102.5 230t39.5 277.5q0 105 -32.5 165.5t-92.5 60.5
q-64 0 -126.5 -90t-102 -229.5t-39.5 -278.5q0 -105 32.5 -165.5t90.5 -60.5zM1278 -12q-112 0 -176 82.5t-64 224.5q0 147 53 274.5t143.5 203t195.5 75.5q110 0 173.5 -82.5t63.5 -222.5q0 -147 -53 -275t-143 -204t-193 -76zM1280 6q48 0 97.5 54.5t87 139.5t61.5 193.5
t24 210.5q0 104 -33 164.5t-92 60.5q-65 0 -128 -90t-102.5 -229.5t-39.5 -278.5q0 -105 33 -165t92 -60z" />
    <glyph glyph-name="ampersand" unicode="&#x26;" horiz-adv-x="1441" 
d="M1452 721l4 -2q-30 -102 -103.5 -177t-152.5 -75q-51 0 -98 29q-60 -235 -219.5 -375.5t-366.5 -140.5q-193 0 -305.5 89t-112.5 240q0 208 141 350.5t396 169.5q-124 36 -189 113t-65 178q0 166 130.5 278.5t322.5 112.5q144 0 226.5 -76.5t82.5 -207.5
q0 -88 -33.5 -146.5t-79.5 -58.5q-17 0 -29 6v406q-59 53 -178 53q-123 0 -204.5 -106t-81.5 -263q0 -88 37.5 -165.5t103.5 -127.5l-4 -6q-197 -49 -309.5 -185.5t-112.5 -322.5q0 -140 77.5 -222.5t211.5 -82.5q172 0 298 142t160 368q1 6 7 51q-81 62 -140 62
q-58 0 -104 -34.5t-90 -111.5l-4 2q29 102 102 177t152 75q31 0 64 -14t51 -26.5t55 -41.5q32 -26 52.5 -40t51.5 -27t61 -13q56 0 103 34.5t92 111.5z" />
    <glyph glyph-name="quotesingle" unicode="'" horiz-adv-x="401" 
d="M285 1063l16 534l172 29h4l-188 -563h-4z" />
    <glyph glyph-name="parenleft" unicode="(" horiz-adv-x="706" 
d="M512 -455q-199 141 -306.5 346t-107.5 465q0 399 207.5 744.5t579.5 556.5l2 -4q-202 -149 -352 -364t-230 -467.5t-80 -512.5q0 -469 291 -760z" />
    <glyph glyph-name="parenright" unicode=")" horiz-adv-x="704" 
d="M-154 -455l-4 4q306 227 484 589.5t178 754.5q0 472 -291 760l4 4q414 -291 414 -809q0 -404 -209 -748.5t-576 -554.5z" />
    <glyph glyph-name="asterisk" unicode="*" horiz-adv-x="1089" 
d="M1104 1315q3 -25 -12.5 -48t-42.5 -32q-82 -27 -392 -64q161 -177 220 -272q26 -48 -27 -88q-25 -17 -48.5 -13t-37.5 27q-44 75 -115 342q-171 -269 -239 -342q-21 -22 -47.5 -25.5t-38.5 9.5q-21 18 -21 42t19 46q48 62 319 274q-282 30 -371 64q-25 9 -32.5 32t6.5 48
q12 25 37 36.5t51 2.5q80 -28 313 -172q-5 258 8 370q4 34 25.5 54t50.5 20q23 0 37 -14t14 -37q0 -31 -35.5 -144t-89.5 -247q281 143 377 170q27 9 47 -2.5t25 -36.5z" />
    <glyph glyph-name="plus" unicode="+" horiz-adv-x="970" 
d="M874 610l-4 -20h-364l-62 -354h-24l61 354h-364l4 20h364l62 357h24l-61 -357h364z" />
    <glyph glyph-name="comma" unicode="," horiz-adv-x="505" 
d="M37 -360l-2 4q64 47 107.5 119.5t43.5 138.5q0 52 -28.5 86.5t-77.5 40.5q-12 21 -12 49q0 55 39 97t90 42q58 0 90 -41.5t32 -112.5q0 -118 -80.5 -240t-201.5 -183z" />
    <glyph glyph-name="hyphen" unicode="-" horiz-adv-x="987" 
d="M164 592l8 20h674l-8 -20h-674z" />
    <glyph glyph-name="period" unicode="." horiz-adv-x="495" 
d="M184 -20q-54 0 -86 30t-32 80q0 54 37.5 90.5t91.5 36.5t85 -30t31 -81q0 -53 -36.5 -89.5t-90.5 -36.5z" />
    <glyph glyph-name="slash" unicode="/" horiz-adv-x="1015" 
d="M-29 -213l-20 10l1157 1854l20 -11z" />
    <glyph glyph-name="zero" unicode="0" horiz-adv-x="1314" 
d="M561 -20q-192 0 -299.5 143t-107.5 391q0 265 92 495t248 366t335 136q192 0 300 -143t108 -391q0 -198 -54.5 -382.5t-145.5 -319t-216 -215t-260 -80.5zM565 4q97 0 194 91t169.5 236.5t118 336.5t45.5 381q0 204 -70 321t-197 117q-98 0 -195 -91t-169 -236.5
t-117 -336.5t-45 -381q0 -205 69.5 -321.5t196.5 -116.5z" />
    <glyph glyph-name="one" unicode="1" horiz-adv-x="817" 
d="M430 145q0 -78 46 -108t161 -33v-4h-619v4q146 3 202 50t81 184l162 923q10 48 10 74q0 86 -72 86q-39 0 -174 -51l-2 4q249 127 439 250h4l-228 -1286q-10 -58 -10 -93z" />
    <glyph glyph-name="two" unicode="2" horiz-adv-x="1267" 
d="M1147 508h4l-162 -518q-173 10 -624 10h-398v6q114 106 350 301q75 62 114 94.5t107.5 91t105.5 94t92 91t85.5 95t67 92t54.5 97t31 94.5t13 99q0 102 -63.5 162.5t-175.5 60.5q-140 0 -278.5 -90t-221.5 -237l-4 2q100 206 262.5 332t329.5 126q143 0 226 -78t83 -208
q0 -72 -26 -147t-59 -135.5t-102.5 -135.5t-117 -122.5t-144 -123.5t-142.5 -110.5t-150 -109.5q-10 -7 -15 -11q-57 -41 -250 -199h541q62 0 103.5 4t87 17t79 38.5t68.5 67t66 103.5t63 147z" />
    <glyph glyph-name="three" unicode="3" horiz-adv-x="1099" 
d="M1141 1491v-6l-582 -578q201 -35 304.5 -126.5t103.5 -235.5q0 -154 -114.5 -277.5t-324 -198.5t-483.5 -89v4q343 28 556.5 166.5t213.5 336.5q0 122 -101.5 193.5t-303.5 99.5l-2 6l575 574h-346q-79 0 -130 -8.5t-104 -37t-99.5 -83t-100.5 -144.5l-4 3l196 432h4
q63 -20 194.5 -25.5t373.5 -5.5h174z" />
    <glyph glyph-name="four" unicode="4" horiz-adv-x="1251" 
d="M860 446l-43 -241q-10 -52 -10 -82q0 -66 39.5 -91t138.5 -28v-4h-588v4q147 4 204 52.5t83 189.5l35 200h-682v7l897 1038h108l-180 -1024q173 0 309 10h5l-13 -31h-303zM74 467h649l164 938z" />
    <glyph glyph-name="five" unicode="5" horiz-adv-x="1085" 
d="M1065 1360h-653l-142 -336q350 -37 520.5 -148t170.5 -307q0 -162 -114 -290.5t-324 -206.5t-488 -92v4q349 31 561.5 175t212.5 349q0 159 -155.5 249.5t-463.5 125.5v6l250 602h111q248 0 373.5 7.5t210.5 33.5h4z" />
    <glyph glyph-name="six" unicode="6" horiz-adv-x="1200" 
d="M737 862q164 0 262.5 -91t98.5 -243q0 -151 -76.5 -277t-210 -198.5t-293.5 -72.5q-185 0 -292 121t-107 327q0 148 52.5 290.5t144.5 261.5t216 222.5t267.5 180.5t298.5 128l2 -4q-268 -115 -480.5 -329t-300.5 -482q91 76 202.5 121t215.5 45zM522 4q111 0 209.5 77.5
t156.5 205.5t58 270q0 127 -63.5 202t-173.5 75q-107 0 -221.5 -68.5t-196.5 -181.5q-23 -112 -23 -211q0 -171 67.5 -270t186.5 -99z" />
    <glyph glyph-name="seven" unicode="7" horiz-adv-x="1144" 
d="M1274 1491l2 -6q-197 -245 -346.5 -462.5t-280.5 -468t-203 -484.5q-27 -90 -106 -90q-61 0 -61 57q0 97 136.5 337t341 514t394.5 472h-559q-61 0 -103.5 -5t-87.5 -21t-81.5 -46t-76.5 -79.5t-83 -121.5l-4 3l196 432h4q61 -18 189.5 -24.5t376.5 -6.5h352z" />
    <glyph glyph-name="eight" unicode="8" horiz-adv-x="1236" 
d="M752 821q45 -26 72 -42t67.5 -43t65 -48t53 -51.5t44 -59.5t26 -65.5t10.5 -75.5q0 -127 -75 -231.5t-206 -164.5t-291 -60q-199 0 -314.5 86t-115.5 231q0 81 38.5 154.5t104.5 130t147.5 99t174.5 69.5q-56 35 -97 67.5t-78.5 75.5t-57 94.5t-19.5 110.5
q0 180 137 296.5t348 116.5q169 0 269 -75.5t100 -202.5q0 -73 -34 -140.5t-92 -118.5t-128.5 -90t-150.5 -63h2zM442 1165q0 -55 22.5 -102.5t69.5 -90t86.5 -69.5t106.5 -67q128 59 218.5 170.5t90.5 242.5q0 109 -67.5 173.5t-186.5 64.5q-143 0 -241.5 -93.5
t-98.5 -228.5zM522 4q175 0 299.5 107.5t124.5 259.5q0 31 -9.5 60t-22 52t-38 48.5t-45.5 43t-56.5 41.5t-59 37.5t-64.5 38.5l-73 43q-73 -35 -136.5 -80t-117 -102t-84.5 -127t-31 -143q0 -128 84 -203.5t229 -75.5z" />
    <glyph glyph-name="nine" unicode="9" horiz-adv-x="1193" 
d="M741 1511q188 0 297 -122t109 -328q0 -216 -112.5 -429.5t-314.5 -385t-458 -266.5l-2 4q249 124 435.5 348.5t260.5 486.5q-91 -78 -203 -124t-218 -46q-165 0 -265 89.5t-100 238.5q0 110 44.5 209t121 170.5t182 113t223.5 41.5zM563 676q105 0 220.5 69.5
t199.5 182.5q16 98 16 186q0 173 -70 273t-192 100q-108 0 -204.5 -75.5t-153.5 -200.5t-57 -263q0 -124 64.5 -198t176.5 -74z" />
    <glyph glyph-name="colon" unicode=":" horiz-adv-x="552" 
d="M350 864q-55 0 -87 30t-32 81q0 53 37.5 90t89.5 37q55 0 87 -30.5t32 -80.5q0 -54 -37 -90.5t-90 -36.5zM195 -20q-54 0 -86.5 30t-32.5 80q0 54 37.5 90.5t91.5 36.5t86.5 -30t32.5 -81q0 -53 -37.5 -89.5t-91.5 -36.5z" />
    <glyph glyph-name="semicolon" unicode=";" horiz-adv-x="577" 
d="M358 864q-55 0 -86.5 30t-31.5 81q0 53 37 90t90 37q55 0 86.5 -30.5t31.5 -80.5q0 -54 -37 -90.5t-90 -36.5zM51 -360l-2 4q65 47 108.5 119.5t43.5 138.5q0 51 -29 86t-78 41q-12 21 -12 49q0 55 39 97t90 42q58 0 90.5 -41.5t32.5 -112.5q0 -118 -81 -240t-202 -183z
" />
    <glyph glyph-name="less" unicode="&#x3c;" horiz-adv-x="970" 
d="M807 319l-705 279v4l807 301l-4 -22l-747 -281l653 -258z" />
    <glyph glyph-name="equal" unicode="=" horiz-adv-x="970" 
d="M143 737l4 21h754l-4 -21h-754zM92 442l4 21h754l-4 -21h-754z" />
    <glyph glyph-name="greater" unicode="&#x3e;" horiz-adv-x="970" 
d="M86 319l4 23l746 258l-652 281l4 22l701 -301v-4z" />
    <glyph glyph-name="question" unicode="?" horiz-adv-x="868" 
d="M385 1511q130 0 237.5 -63.5t166.5 -165t59 -215.5q0 -188 -139.5 -297.5t-382.5 -120.5q-42 -125 -66 -250h-4q9 208 -4 373l6 4q266 8 409.5 90.5t143.5 235.5q0 139 -129 262h-432q-4 16 -4 31q0 52 42 84t97 32zM223 217q54 0 86.5 -30t32.5 -81q0 -53 -37.5 -89.5
t-91.5 -36.5t-85.5 30t-31.5 80q0 54 36.5 90.5t90.5 36.5z" />
    <glyph glyph-name="at" unicode="@" horiz-adv-x="2007" 
d="M1202 203q0 15 4 43l97 528q-66 -189 -125 -320t-124.5 -226t-136 -140t-151.5 -45q-95 0 -149 77.5t-54 209.5q0 191 70.5 358t194.5 267t270 100q121 0 219 -58q93 20 153 58h3l-146 -822q-2 -14 -2 -43q0 -106 100 -106q119 0 230.5 111.5t179.5 294t68 378.5
q0 282 -189 450.5t-502 168.5q-180 0 -347.5 -59.5t-302 -169.5t-235 -257t-155.5 -330t-55 -380q0 -334 188 -515.5t537 -181.5q208 0 409 67t336 177l2 -4q-140 -121 -342.5 -192.5t-408.5 -71.5q-360 0 -556 187.5t-196 529.5q0 203 56 391t159.5 338t242.5 262
t312 172.5t361 60.5q325 0 519.5 -174t194.5 -467q0 -159 -45 -311t-118.5 -265t-173.5 -182t-205 -69q-84 0 -135.5 43t-51.5 117zM821 125q118 0 240.5 189.5t255.5 559.5q-29 75 -85 114.5t-126 39.5q-113 0 -208.5 -90.5t-149.5 -241t-54 -321.5q0 -115 34 -182.5
t93 -67.5z" />
    <glyph glyph-name="A" unicode="A" horiz-adv-x="1495" 
d="M1225 197q13 -60 23 -90.5t30 -55.5t49 -34.5t78 -12.5v-4h-569v4q130 13 186.5 44.5t56.5 109.5q0 1 -10 69l-65 328h-625l-119 -217q-47 -85 -66.5 -132t-19.5 -85q0 -60 50 -85.5t169 -31.5v-4h-487v4q37 4 66 13.5t56 29.5t47.5 40t46.5 59t45 71.5t52 91.5l586 1059
l-12 64q75 37 131 79h30zM391 575h608l-161 814z" />
    <glyph glyph-name="B" unicode="B" horiz-adv-x="1484" 
d="M995 772q167 -9 262 -92t95 -217q0 -196 -151 -329.5t-374 -133.5h-829v4q123 3 172.5 43.5t69.5 157.5l190 1081q8 41 8 82q0 65 -39 90.5t-139 28.5v4h772q165 0 262 -79t97 -212q0 -163 -111.5 -281.5t-284.5 -146.5zM1237 1212q0 119 -66 188.5t-182 69.5h-387
l-121 -692h387q156 0 262.5 125t106.5 309zM788 20q172 0 291 132.5t119 324.5q0 129 -75.5 205t-211.5 76h-434l-98 -561q-10 -58 -10 -86q0 -52 25 -71.5t89 -19.5h305z" />
    <glyph glyph-name="C" unicode="C" horiz-adv-x="1392" 
d="M637 -20q-231 0 -363.5 150.5t-132.5 408.5q0 198 63 378t169 310t253 207t308 77q60 0 120 -17.5t104.5 -34.5t66.5 -17q24 0 43 12.5t43 46.5h4l26 -522l-4 -2q-32 254 -138.5 382t-274.5 128q-170 0 -315.5 -118.5t-230.5 -322t-85 -440.5q0 -243 114 -384.5
t314 -141.5q144 0 295.5 81t247.5 212l4 -2q-101 -173 -274.5 -282t-356.5 -109z" />
    <glyph glyph-name="D" unicode="D" horiz-adv-x="1605" 
d="M924 1491q285 0 448.5 -157.5t163.5 -424.5q0 -189 -68 -357.5t-184 -289.5t-279 -191.5t-346 -70.5h-661v4q123 3 172.5 43.5t69.5 157.5l190 1081q8 41 8 82q0 65 -39 90.5t-139 28.5v4h664zM635 20q153 0 292.5 72.5t239.5 195t159.5 292.5t59.5 356q0 247 -131 390.5
t-362 143.5h-291l-223 -1273q-12 -61 -12 -97q0 -45 19.5 -62.5t64.5 -17.5h184z" />
    <glyph glyph-name="E" unicode="E" horiz-adv-x="1472" 
d="M932 1470h-330l-121 -692h209q64 0 105.5 13.5t78 52t64.5 103t59 171.5h4q-76 -380 -127 -721h-4q7 79 7 113q0 79 -10.5 128t-35.5 75.5t-58 35.5t-87 9h-209l-98 -561q-10 -58 -10 -86q0 -52 25 -71.5t89 -19.5h265q88 0 150 10.5t125.5 40.5t117.5 86.5t113 145.5
t126 221l4 -2l-262 -532q-108 10 -331 10h-793v4q123 3 172.5 43.5t69.5 157.5l190 1081q8 41 8 82q0 65 -39 90.5t-139 28.5v4h744q220 0 327 10l62 -512l-4 -2q-15 107 -34.5 184t-48.5 131t-61.5 86.5t-82.5 51t-102 24.5t-128 6z" />
    <glyph glyph-name="F" unicode="F" horiz-adv-x="1339" 
d="M1313 1501l61 -512l-4 -2q-15 107 -34.5 184t-48.5 131t-61.5 86.5t-82.5 51t-102 24.5t-128 6h-311l-125 -712h201q61 0 99 10.5t76.5 45.5t69 103t62.5 181h4q-77 -394 -125 -721h-4q4 90 4 115q0 80 -10 128.5t-35 74t-57.5 34t-87.5 8.5h-201l-88 -491
q-10 -62 -10 -99q0 -80 47 -110t164 -33v-4h-588v4q123 3 172.5 43.5t69.5 157.5l190 1081q8 41 8 82q0 65 -39 90.5t-139 28.5v4h725q221 0 328 10z" />
    <glyph glyph-name="G" unicode="G" horiz-adv-x="1544" 
d="M918 668h600v-4q-114 -3 -159.5 -42.5t-64.5 -154.5l-61 -356q-54 -6 -166 -48q-217 -83 -369 -83q-258 0 -406.5 156.5t-148.5 424.5q0 156 41.5 301t118 262t178.5 204.5t229.5 135t264.5 47.5q74 0 137 -18.5t111 -37.5t84 -19q29 0 50.5 13.5t49.5 51.5h4l-41 -522
h-4q3 234 -103.5 371t-291.5 137q-181 0 -337.5 -131.5t-248.5 -354t-92 -479.5q0 -239 109 -378.5t300 -139.5q98 0 205.5 44.5t196.5 119.5l45 254q8 49 8 92q0 83 -52.5 115t-186.5 35v4z" />
    <glyph glyph-name="H" unicode="H" horiz-adv-x="1636" 
d="M1161 1491h551v-4q-124 -3 -173 -43.5t-69 -157.5l-190 -1081q-8 -44 -8 -82q0 -66 39 -91t139 -28v-4h-551v4q123 3 172.5 43.5t69.5 157.5l98 553h-762l-98 -553q-8 -44 -8 -82q0 -66 39 -91t139 -28v-4h-551v4q123 3 172.5 43.5t69.5 157.5l190 1081q8 41 8 82
q0 65 -39 90.5t-139 28.5v4h551v-4q-123 -3 -172.5 -43.5t-69.5 -157.5l-90 -508h762l90 508q8 41 8 82q0 65 -39 90.5t-139 28.5v4z" />
    <glyph glyph-name="I" unicode="I" horiz-adv-x="735" 
d="M260 1491h551v-4q-123 -3 -172.5 -43.5t-69.5 -157.5l-190 -1081q-8 -44 -8 -82q0 -66 39 -91t139 -28v-4h-551v4q123 3 172.5 43.5t69.5 157.5l190 1081q8 41 8 82q0 65 -39 90.5t-139 28.5v4z" />
    <glyph glyph-name="J" unicode="J" horiz-adv-x="704" 
d="M250 1491h551v-4q-123 -3 -172.5 -43.5t-69.5 -157.5l-168 -952q-32 -186 -151.5 -340t-280.5 -219l-2 4q108 79 182 207.5t103 292.5l178 1007q8 41 8 80q0 68 -39 93t-139 28v4z" />
    <glyph glyph-name="K" unicode="K" horiz-adv-x="1511" 
d="M371 123q0 -66 39 -91t139 -28v-4h-551v4q123 3 172.5 43.5t69.5 157.5l190 1081q8 41 8 82q0 65 -39 90.5t-139 28.5v4h551v-4q-123 -3 -172.5 -43.5t-69.5 -157.5l-190 -1081q-8 -44 -8 -82zM1552 1487q-67 0 -130 -33.5t-179 -126.5l-553 -453q208 -359 333 -541
t211.5 -254t176.5 -75v-4h-199q-48 0 -90 14.5t-89 54.5t-92 94.5t-106.5 150t-125 204t-154.5 273.5l543 442q80 65 115.5 105.5t35.5 70.5q0 38 -46 55.5t-148 22.5v4h497v-4z" />
    <glyph glyph-name="L" unicode="L" horiz-adv-x="1357" 
d="M1307 524l4 -2l-262 -532q-107 10 -326 10h-725v4q123 3 172.5 43.5t69.5 157.5l190 1081q8 41 8 82q0 65 -39 90.5t-139 28.5v4h588v-4q-146 -5 -203 -50t-80 -175l-186 -1065q-12 -53 -12 -88q0 -50 24.5 -69.5t85.5 -19.5h203q72 0 124 6.5t107 25.5t100 53.5t94 90.5
t98 136.5t104 191.5z" />
    <glyph glyph-name="M" unicode="M" horiz-adv-x="1968" 
d="M1743 1329l-98 -1118q-3 -37 -3 -59q0 -85 39.5 -115t147.5 -33v-4h-588v4q105 2 161 27.5t78 73.5t29 141l105 1157l-766 -1423h-2l-293 1415l-313 -1153q-19 -71 -19 -113q0 -66 55 -94t195 -31v-4h-520v4q85 2 133.5 21.5t76.5 61.5t50 124l301 1118q10 31 10 66
q0 50 -41 69.5t-143 22.5v4h344l264 -1290l690 1290h330v-4q-126 -3 -170 -34.5t-53 -123.5z" />
    <glyph glyph-name="N" unicode="N" horiz-adv-x="1548" 
d="M1122 1491h520v-4q-123 -3 -172 -43.5t-69 -157.5l-232 -1306h-4l-708 1333l-189 -1067q-8 -47 -8 -88q0 -86 57 -118.5t201 -35.5v-4h-520v4q123 3 172.5 43.5t69.5 157.5l198 1124q6 41 6 53q0 58 -40 80t-144 25v4h279l653 -1262l180 1016q8 47 8 90q0 84 -57 116.5
t-201 35.5v4z" />
    <glyph glyph-name="O" unicode="O" horiz-adv-x="1583" 
d="M694 -20q-257 0 -404 156t-147 423q0 195 64.5 371.5t174 303.5t261.5 202t320 75q257 0 403.5 -156.5t146.5 -424.5q0 -156 -41 -301t-116 -262t-175.5 -204.5t-226 -135t-260.5 -47.5zM698 4q132 0 255.5 79t213 210.5t143.5 309.5t54 368q0 238 -107.5 377t-298.5 139
q-177 0 -330.5 -133t-244 -356t-90.5 -478q0 -239 107.5 -377.5t297.5 -138.5z" />
    <glyph glyph-name="P" unicode="P" horiz-adv-x="1349" 
d="M1001 1491q177 0 279 -86.5t102 -233.5q0 -215 -174.5 -357t-439.5 -142h-168v20h154q202 0 338.5 143t136.5 353q0 131 -70 206.5t-194 75.5h-363l-217 -1224q-10 -62 -10 -99q0 -80 47 -110t164 -33v-4h-588v4q123 3 172.5 43.5t69.5 157.5l190 1081q8 41 8 82
q0 65 -39 90.5t-139 28.5v4h741z" />
    <glyph glyph-name="Q" unicode="Q" horiz-adv-x="1583" 
d="M805 -12q101 -163 178.5 -246.5t150.5 -114.5t179 -33l-2 -4h-193q-73 0 -126 14.5t-111.5 56t-117 119.5t-128.5 202q-231 19 -361.5 172.5t-130.5 404.5q0 195 64.5 371.5t174 303.5t261.5 202t320 75q257 0 403.5 -156.5t146.5 -424.5q0 -239 -92.5 -444
t-254.5 -336.5t-361 -161.5zM293 520q0 -239 107.5 -377.5t297.5 -138.5q132 0 255.5 79t213 210.5t143.5 309.5t54 368q0 238 -107.5 377t-298.5 139q-177 0 -330.5 -133t-244 -356t-90.5 -478z" />
    <glyph glyph-name="R" unicode="R" horiz-adv-x="1499" 
d="M954 725q111 -302 182.5 -452t131.5 -208t139 -61v-4h-170q-54 0 -96 26t-92.5 102t-107.5 215.5t-132 363.5h-35h-307l-82 -461q-10 -62 -10 -99q0 -78 47.5 -109t163.5 -34v-4h-588v4q123 3 172.5 43.5t69.5 157.5l190 1081q8 41 8 82q0 65 -39 90.5t-139 28.5v4h741
q177 0 279 -84.5t102 -228.5q0 -167 -117.5 -290t-310.5 -163zM760 727q202 0 335.5 131.5t133.5 331.5q0 130 -70 205t-194 75h-363l-131 -743h289z" />
    <glyph glyph-name="S" unicode="S" horiz-adv-x="1300" 
d="M553 -20q-72 0 -137 17t-113.5 34.5t-81.5 17.5q-27 0 -50 -12.5t-54 -46.5h-4l-11 530l4 2q24 -244 145 -381t302 -137q207 0 339 105.5t132 271.5q0 46 -12.5 85t-39.5 70t-56 54t-75 45.5t-81.5 37t-91.5 34.5q-53 19 -87 32t-80.5 34.5t-76.5 41.5t-63 50t-51.5 62
t-31 75t-12.5 92q0 184 142 300.5t366 116.5q68 0 131 -18.5t111 -36.5t78 -18q29 0 51 13t47 50h4l33 -502l-4 -2q-33 219 -161.5 354.5t-295.5 135.5q-158 0 -262.5 -90.5t-104.5 -227.5q0 -42 11 -78.5t28.5 -64t47 -53t57 -43.5t68.5 -36.5t72.5 -30t76.5 -27.5
q51 -17 85.5 -30.5t80 -34t76 -40.5t62.5 -49.5t51 -61.5t31.5 -74t12.5 -91q0 -210 -168.5 -342.5t-439.5 -132.5z" />
    <glyph glyph-name="T" unicode="T" horiz-adv-x="1347" 
d="M1315 1522l63 -533l-4 -2q-18 104 -37 179t-44 129.5t-52.5 87.5t-67 53t-82.5 27t-104 7h-80l-217 -1232q-10 -62 -10 -95q0 -77 45 -106.5t162 -32.5v-4h-619v4q146 3 203 50t80 184l217 1232h-80q-70 0 -118 -8.5t-103 -36.5t-104 -81t-106 -140.5t-124 -216.5l-4 2
l250 533h4q58 -19 136.5 -25t252.5 -6h139q166 0 248 6t152 25h4z" />
    <glyph glyph-name="U" unicode="U" horiz-adv-x="1562" 
d="M1143 1491h520v-4q-124 -3 -173 -43.5t-69 -157.5l-141 -801q-40 -227 -193 -366t-362 -139q-221 0 -343 107t-122 294q0 50 10 115l140 790q10 52 10 82q0 66 -39.5 91t-140.5 28v4h589v-4q-147 -3 -203 -50t-81 -184l-139 -786q-11 -71 -11 -111q0 -163 90 -257.5
t246 -94.5q198 0 343 132t183 349l134 760q8 47 8 90q0 85 -55.5 117t-200.5 35v4z" />
    <glyph glyph-name="V" unicode="V" horiz-adv-x="1484" 
d="M1169 1491h490v-4q-36 -3 -65 -12.5t-56.5 -30.5t-46.5 -39.5t-46.5 -60t-45.5 -71t-53 -91.5l-687 -1202h-30l-289 1314q-9 40 -14 60t-15 46t-21 37.5t-29 24.5t-42.5 18t-58.5 7v4h567v-4q-122 -11 -181 -44t-59 -106q0 -31 11 -73l235 -1112l570 999q44 77 65 127.5
t21 91.5q0 60 -51.5 85.5t-168.5 31.5v4z" />
    <glyph glyph-name="W" unicode="W" horiz-adv-x="2115" 
d="M1792 1491h498v-4q-103 -12 -167.5 -73.5t-146.5 -231.5l-577 -1202h-33l-182 1275l-627 -1275h-33l-180 1314q-5 38 -9 58.5t-12 45.5t-19.5 37t-30 25t-45.5 19t-64 8v4h573v-4q-130 -11 -186.5 -46.5t-56.5 -121.5q0 -25 6 -55l137 -1074l645 1321h4l189 -1321
l456 957q80 163 80 225q0 60 -50 84.5t-169 30.5v4z" />
    <glyph glyph-name="X" unicode="X" horiz-adv-x="1490" 
d="M1599 1487q-99 -10 -188 -82t-250 -256l-309 -352l268 -504q27 -52 41.5 -78.5t37.5 -65.5t39 -58.5t37.5 -41.5t43 -32t45.5 -13v-4h-616v4q251 15 251 146q0 51 -59 157l-209 398l-315 -369q-67 -78 -94 -124t-27 -83q0 -55 53.5 -85t173.5 -40v-4h-583v4
q106 12 195.5 77t248.5 251l338 393l-270 512q-24 47 -38 72t-33.5 57.5t-34 49.5t-33.5 34.5t-39 25.5t-44 11v4h611v-4q-252 -22 -252 -146q0 -48 43 -129l211 -395l288 332q68 80 97.5 127t29.5 88q0 56 -54.5 86t-174.5 37v4h571v-4z" />
    <glyph glyph-name="Y" unicode="Y" horiz-adv-x="1392" 
d="M1001 1491h570v-4q-68 -8 -124 -35t-132.5 -103.5t-171.5 -211.5l-357 -504l-69 -395q-10 -62 -10 -95q0 -77 46 -106.5t165 -32.5v-4h-621v4q145 3 201.5 50t81.5 184l69 393l-239 631q-44 117 -86.5 166t-124.5 59v4h606v-4q-127 -11 -189.5 -43t-62.5 -98
q0 -34 35 -134l198 -542l344 487q71 100 94 143.5t23 77.5q0 52 -56.5 76.5t-189.5 32.5v4z" />
    <glyph glyph-name="Z" unicode="Z" horiz-adv-x="1409" 
d="M1452 1491v-6l-1270 -1465h586q78 0 130.5 9t108 38.5t100 85t92 147t97.5 226.5l4 -2l-167 -534q-173 10 -625 10h-506v6l1268 1464h-525q-70 0 -120.5 -10.5t-103.5 -40t-102.5 -85t-105.5 -142t-123 -215.5l-4 2l240 522q167 -10 582 -10h444z" />
    <glyph glyph-name="bracketleft" unicode="[" horiz-adv-x="675" 
d="M416 1663h426v-4q-175 -5 -243.5 -57.5t-94.5 -204.5l-281 -1592q-10 -62 -10 -98q0 -89 56 -124t198 -38v-4h-426l45 254l285 1614z" />
    <glyph glyph-name="backslash" unicode="\" horiz-adv-x="989" 
d="M764 -213l-504 1853l27 11l501 -1854z" />
    <glyph glyph-name="bracketright" unicode="]" horiz-adv-x="675" 
d="M231 1663h426l-43 -254l-331 -1868h-426v4q176 5 244 56.5t94 203.5l280 1592q10 65 10 100q0 89 -56 124t-198 38v4z" />
    <glyph glyph-name="asciicircum" unicode="^" horiz-adv-x="970" 
d="M117 879l561 747h4l299 -747h-29l-280 700l-527 -700h-28z" />
    <glyph glyph-name="underscore" unicode="_" horiz-adv-x="1267" 
d="M-90 -209l8 21h1184l-8 -21h-1184z" />
    <glyph glyph-name="grave" unicode="`" horiz-adv-x="897" 
d="M586 1212q-228 185 -293 271q-21 27 -21 57t25 55t55 25q43 0 74 -39q63 -96 164 -367z" />
    <glyph glyph-name="a" unicode="a" horiz-adv-x="1230" 
d="M1155 340l4 -2q-58 -177 -127.5 -267.5t-142.5 -90.5q-109 0 -109 100q0 20 6 41l121 682q-152 -424 -292 -623.5t-308 -199.5q-105 0 -165 85t-60 232q0 213 78.5 398t215.5 296t298 111q140 0 246 -64q110 25 165 64h5l-168 -950q-4 -23 -4 -41q0 -24 8.5 -33.5
t27.5 -9.5q38 0 89.5 68t111.5 204zM365 61q134 0 270 214.5t293 642.5l4 18q-31 64 -96.5 101.5t-147.5 37.5q-128 0 -236 -101t-169.5 -268t-61.5 -358q0 -139 37 -213t107 -74z" />
    <glyph glyph-name="b" unicode="b" horiz-adv-x="1155" 
d="M852 1102q104 0 164.5 -85.5t60.5 -232.5q0 -213 -84 -397.5t-231 -295.5t-320 -111q-61 0 -113 16t-97 51t-71 98.5t-26 149.5q0 47 10 115l170 960q10 58 -20.5 80.5t-138.5 36.5v4q180 47 327 127h4l-239 -1348q76 213 144 363t142 258t152 159.5t166 51.5zM438 4
q103 0 196.5 60t159.5 159t105 233t39 277q0 138 -37.5 212.5t-107.5 74.5q-126 0 -256 -193.5t-275 -576.5q-14 -46 -14 -84q0 -74 54 -118t136 -44z" />
    <glyph glyph-name="c" unicode="c" horiz-adv-x="1067" 
d="M895 612q-19 0 -31 6v410q-58 49 -170 49q-127 0 -233.5 -83t-168 -227t-61.5 -316q0 -174 83.5 -276.5t230.5 -102.5q96 0 201 55t178 145l4 -2q-76 -130 -204.5 -210t-262.5 -80q-171 0 -270 110.5t-99 300.5q0 194 80.5 358t220 258.5t305.5 94.5q144 0 227 -77
t83 -208q0 -88 -33.5 -146.5t-79.5 -58.5z" />
    <glyph glyph-name="d" unicode="d" horiz-adv-x="1230" 
d="M954 68q38 0 89.5 68t111.5 204l4 -2q-58 -177 -127.5 -267.5t-142.5 -90.5q-109 0 -109 100q0 20 6 41l121 680q-152 -423 -292 -622t-308 -199q-105 0 -165 85t-60 232q0 213 78.5 398t215.5 296t298 111q74 0 146.5 -21.5t125.5 -58.5l62 348q10 58 -21 80.5
t-139 36.5v4q176 46 328 127h4l-258 -1466q-4 -23 -4 -41q0 -24 8.5 -33.5t27.5 -9.5zM365 61q134 0 270 213.5t293 640.5l2 21q-31 65 -95.5 102t-146.5 37q-128 0 -236 -101t-169.5 -268t-61.5 -358q0 -139 37 -213t107 -74z" />
    <glyph glyph-name="e" unicode="e" horiz-adv-x="1067" 
d="M551 72q98 0 206.5 55t184.5 145l4 -2q-80 -131 -210 -210.5t-265 -79.5q-178 0 -279.5 110.5t-101.5 298.5q0 193 82.5 357.5t223.5 260t306 95.5q133 0 213 -60.5t80 -160.5q0 -106 -100 -190.5t-270.5 -137t-395.5 -74.5v-30q0 -173 85.5 -275t236.5 -102zM684 1077
q-118 0 -219 -77t-163 -210t-71 -292q296 46 468.5 149.5t172.5 253.5q0 78 -52 127t-136 49z" />
    <glyph glyph-name="f" unicode="f" horiz-adv-x="688" 
d="M913 1477h-342q-69 -70 -110 -148.5t-41 -138.5q0 -83 37 -109h305l-8 -20h-301l-170 -952q-35 -197 -142.5 -345t-249.5 -194l-2 4q96 70 162 195t94 284l174 987q1 3 2.5 10.5t2.5 10.5h-185l8 20h181q52 230 198 387.5t316 157.5q39 0 65.5 -22.5t26.5 -57.5
q0 -29 -21 -69z" />
    <glyph glyph-name="g" unicode="g" horiz-adv-x="1165" 
d="M1090 1102h4l-127 -709q-38 -207 -114.5 -365.5t-181.5 -258t-232 -149.5t-273 -50q-56 0 -90.5 24t-34.5 60q0 21 10 41l486 2q272 168 313 575l61 527q-152 -422 -292 -620.5t-308 -198.5q-105 0 -165 85t-60 232q0 213 78.5 398t215.5 296t298 111q141 0 244 -64
q113 25 168 64zM369 61q134 0 270 213t291 637l4 25q-31 65 -95.5 102t-146.5 37q-128 0 -236 -101t-169.5 -268t-61.5 -358q0 -139 37 -213t107 -74z" />
    <glyph glyph-name="h" unicode="h" horiz-adv-x="1234" 
d="M1161 340l4 -2q-58 -178 -126.5 -268t-141.5 -90q-109 0 -109 100q0 6 5 41l139 790q4 23 4 37q0 70 -64 70q-30 0 -67.5 -19.5t-95.5 -77.5t-123.5 -149t-154 -249t-183.5 -363l-27 -160h-129l242 1370q10 58 -22 80.5t-140 36.5v4q182 48 328 127h4l-242 -1376
q93 214 183.5 375t160 251t136 145t110 72t84.5 17q63 0 97 -33t34 -96q0 -26 -4 -51l-135 -770q-4 -23 -4 -41q0 -24 9 -33.5t28 -9.5q80 0 200 272z" />
    <glyph glyph-name="i" unicode="i" horiz-adv-x="622" 
d="M489 1581q41 0 68 -26.5t27 -65.5q0 -44 -30.5 -74.5t-76.5 -30.5q-40 0 -67 26.5t-27 66.5q0 44 31 74t75 30zM344 68q81 0 201 272l4 -2q-58 -178 -126.5 -268t-141.5 -90q-109 0 -109 100q0 13 4 41l146 809q4 23 4 41q0 24 -9 33.5t-28 9.5q-81 0 -201 -273l-4 2
q58 178 126.5 268.5t141.5 90.5q52 0 80.5 -25.5t28.5 -75.5q0 -12 -4 -40l-146 -809q-4 -23 -4 -41q0 -24 9 -33.5t28 -9.5z" />
    <glyph glyph-name="j" unicode="j" horiz-adv-x="565" 
d="M492 1581q41 0 67.5 -26.5t26.5 -65.5q0 -44 -30.5 -74.5t-74.5 -30.5q-40 0 -67 26.5t-27 66.5q0 44 31 74t74 30zM356 1102q52 0 80.5 -25.5t28.5 -75.5q0 -19 -6 -40l-152 -852q-35 -197 -142 -345t-249 -194l-2 4q96 69 162 194t94 285l154 877q4 23 4 41
q0 24 -9 33.5t-28 9.5q-38 0 -89.5 -68.5t-111.5 -204.5l-4 2q58 177 127.5 268t142.5 91z" />
    <glyph glyph-name="k" unicode="k" horiz-adv-x="1165" 
d="M1104 328l4 -2q-42 -183 -109.5 -264.5t-150.5 -81.5q-86 0 -139 83l-351 492l84 10q217 35 339 118t122 191q0 71 -47 113.5t-125 42.5q-92 0 -191 -60t-178 -165l-141 -805h-129l244 1370q9 58 -22.5 80.5t-139.5 36.5v4q182 48 328 127h4l-137 -776q85 120 199 190
t223 70q114 0 182.5 -56.5t68.5 -148.5q0 -115 -139 -207.5t-371 -132.5l267 -381q33 -47 58.5 -67.5t55.5 -20.5q51 0 97.5 54t93.5 186z" />
    <glyph glyph-name="l" unicode="l" horiz-adv-x="571" 
d="M291 68q78 0 201 272l4 -2q-57 -177 -127.5 -267.5t-143.5 -90.5q-108 0 -108 100q0 13 4 41l223 1249q10 58 -21 80.5t-139 36.5v4q176 46 328 127h4l-260 -1466q-2 -23 -2 -41q0 -24 8 -33.5t29 -9.5z" />
    <glyph glyph-name="m" unicode="m" horiz-adv-x="1978" 
d="M1905 340l4 -2q-57 -177 -127.5 -267.5t-143.5 -90.5q-108 0 -108 100q0 13 4 41l141 790q4 23 4 37q0 70 -65 70q-29 0 -66 -20t-95 -77.5t-122.5 -148t-152 -247t-181.5 -359.5l-2 -6l-28 -160h-131l161 911q4 23 4 37q0 70 -63 70q-30 0 -67.5 -20t-96 -78
t-123.5 -149t-153 -249t-183 -362l-28 -160h-129l166 930q4 23 4 41q0 24 -9 33.5t-28 9.5q-81 0 -201 -273l-4 2q58 178 126.5 268.5t141.5 90.5q52 0 80.5 -25.5t28.5 -75.5q0 -12 -4 -40l-129 -715q76 179 150 320t137 231.5t119 153.5t106 94.5t87 44t72 12.5
q62 0 97 -33.5t35 -95.5q0 -20 -5 -51l-116 -670q90 212 178 370.5t156 248t134 144t110 71t87 16.5q63 0 97 -33t34 -96q0 -26 -4 -51l-135 -770q-2 -23 -2 -41q0 -24 8 -33.5t29 -9.5q78 0 201 272z" />
    <glyph glyph-name="n" unicode="n" horiz-adv-x="1302" 
d="M1229 340l4 -2q-58 -178 -126.5 -268t-141.5 -90q-109 0 -109 100q0 13 4 41l139 790q5 29 5 37q0 70 -64 70q-30 0 -67.5 -19.5t-96 -77.5t-124 -149t-154 -249t-183.5 -363l-28 -160h-129l166 930q4 23 4 41q0 24 -9 33.5t-28 9.5q-81 0 -201 -273l-4 2
q58 178 126.5 268.5t141.5 90.5q52 0 80.5 -25.5t28.5 -75.5q0 -12 -4 -40l-129 -719q93 214 183.5 375t160 251t136 145t110 72t84.5 17q63 0 97 -33t34 -96q0 -20 -5 -51l-135 -770q-4 -23 -4 -41q0 -24 9 -33.5t28 -9.5q38 0 89.5 68t111.5 204z" />
    <glyph glyph-name="o" unicode="o" horiz-adv-x="1204" 
d="M506 -20q-192 0 -302 115t-110 311q0 192 81 352t221.5 252t308.5 92q192 0 300.5 -115.5t108.5 -310.5q0 -192 -80 -351.5t-220 -252t-308 -92.5zM510 4q122 0 230.5 100t172.5 265t64 348q0 166 -73.5 263t-203.5 97q-122 0 -230.5 -99.5t-172.5 -263.5t-64 -347
q0 -167 73.5 -265t203.5 -98z" />
    <glyph glyph-name="p" unicode="p" horiz-adv-x="1243" 
d="M938 1102q105 0 165 -85.5t60 -232.5q0 -213 -78.5 -397.5t-216 -295.5t-299.5 -111q-73 0 -145 21t-125 58l-47 -266q-12 -70 20 -92.5t140 -28.5v-4q-198 -42 -322 -90h-4l238 1352q4 23 4 41q0 24 -9 33.5t-28 9.5q-81 0 -201 -273l-4 2q58 178 126.5 268.5
t141.5 90.5q52 0 80.5 -25.5t28.5 -75.5q0 -12 -4 -40l-119 -672q150 418 290 615.5t308 197.5zM555 6q129 0 237.5 101t170 268t61.5 358q0 138 -37.5 212.5t-107.5 74.5q-132 0 -269 -214t-293 -640l-4 -21q32 -64 97 -101.5t145 -37.5z" />
    <glyph glyph-name="q" unicode="q" horiz-adv-x="1175" 
d="M854 -293q0 -62 35 -86.5t121 -26.5v-4h-529v4q130 3 182.5 51t77.5 187l170 973q-150 -424 -291 -624.5t-309 -200.5q-105 0 -165 85t-60 232q0 213 78.5 398t215.5 296t298 111q141 0 244 -64q113 25 168 64h4l-232 -1311q-8 -44 -8 -84zM369 61q134 0 270 214.5
t293 642.5l4 18q-31 64 -96.5 101.5t-147.5 37.5q-128 0 -236 -101t-169.5 -268t-61.5 -358q0 -139 37 -213t107 -74z" />
    <glyph glyph-name="r" unicode="r" horiz-adv-x="915" 
d="M969 1014q0 -43 -27 -78h-262q-96 -145 -365 -776l-28 -160h-129l166 930q4 23 4 41q0 24 -9 33.5t-28 9.5q-81 0 -201 -273l-4 2q58 178 126.5 268.5t141.5 90.5q52 0 80.5 -25.5t28.5 -75.5q0 -12 -4 -40l-127 -711q114 279 190 444t137 257t104.5 121.5t98.5 29.5
q49 0 78 -24.5t29 -63.5z" />
    <glyph glyph-name="s" unicode="s" horiz-adv-x="1015" 
d="M827 692q-15 0 -30 6v312q-73 67 -228 67q-119 0 -195.5 -60t-76.5 -155q0 -37 16.5 -70.5t39 -57.5t63.5 -49.5t72 -41.5t83 -39q56 -26 88 -42t78 -45t71 -56t43.5 -66.5t18.5 -83.5q0 -143 -125.5 -237t-320.5 -94q-175 0 -270 73.5t-95 200.5q0 68 31.5 117t73.5 49
q5 0 29 -6v-342q74 -68 233 -68q142 0 232 67.5t90 170.5q0 37 -15.5 70t-36.5 55.5t-61.5 47.5t-69 39.5t-80.5 37.5q-39 18 -57 27t-53 27t-53 30.5t-45 32.5t-41 38.5t-29 42t-21 50.5t-6 57q0 131 112 218t283 87q167 0 262 -71.5t95 -194.5q0 -63 -31 -103.5t-74 -40.5
z" />
    <glyph glyph-name="t" unicode="t" horiz-adv-x="753" 
d="M449 1061l-150 -850q-8 -41 -8 -72q0 -76 82 -76q67 0 144.5 66t152.5 205l4 -2q-76 -176 -172 -264t-193 -88q-72 0 -110.5 37.5t-38.5 107.5q0 33 4 53l155 883h-184l8 20h181l59 269h121l-51 -269h362l-8 -20h-358z" />
    <glyph glyph-name="u" unicode="u" horiz-adv-x="1302" 
d="M1223 340l4 -2q-57 -177 -127.5 -267.5t-143.5 -90.5q-108 0 -108 100q0 13 4 41l129 713q-76 -178 -150 -319t-137.5 -231.5t-119 -153t-105.5 -94t-86.5 -44t-71.5 -12.5q-63 0 -97 33t-34 96q0 26 4 51l135 770q3 35 3 41q0 24 -8 33.5t-29 9.5q-78 0 -201 -273l-4 2
q58 177 127.5 268t142.5 91q52 0 80.5 -25.5t28.5 -75.5q0 -12 -4 -40l-142 -791q-4 -23 -4 -37q0 -70 66 -70q29 0 66.5 20t95.5 78t123 149t153 248.5t182 361.5l29 161h129l-166 -929q-2 -23 -2 -41q0 -24 8 -33.5t29 -9.5q78 0 201 272z" />
    <glyph glyph-name="v" unicode="v" horiz-adv-x="1054" 
d="M926 1102q39 0 63.5 -48.5t24.5 -129.5q0 -159 -154.5 -411t-404.5 -533h-31l-186 981q-7 38 -29 38q-28 0 -66 -60.5t-92 -197.5l-4 2q57 196 109 277.5t127 81.5q33 0 58 -24.5t32 -67.5l166 -910q203 246 331 473v512q27 17 56 17z" />
    <glyph glyph-name="w" unicode="w" horiz-adv-x="1677" 
d="M1200 86l-20 -25q-13 -18 -66 -81h-31l-143 673q-129 -287 -446 -673h-31l-230 989q-4 22 -10.5 30.5t-17.5 8.5q-28 0 -64.5 -62t-91.5 -205l-4 2q56 196 105.5 277.5t121.5 81.5q38 0 64 -28t37 -73l202 -892q248 325 357 579l-84 393h147l201 -972q179 231 293 446
v530q27 17 55 17q39 0 63.5 -48.5t24.5 -129.5q0 -144 -117.5 -365t-314.5 -473z" />
    <glyph glyph-name="x" unicode="x" horiz-adv-x="1177" 
d="M1137 936h-308q-80 -116 -194 -330l260 -473q21 -43 51 -43q72 0 131 238l4 -2q-22 -159 -69 -252.5t-121 -93.5q-46 0 -73 22t-54 76l-209 379q-104 -197 -181 -303t-132 -140t-121 -34q-51 0 -80 24t-29 64q0 36 27 77h307q81 113 197 336l-256 467q-20 41 -51 41
q-77 0 -132 -235l-4 2q22 158 69.5 252t121.5 94q45 0 72.5 -22t54.5 -76l205 -375q103 195 179.5 300t131.5 139t121 34q50 0 79 -24.5t29 -63.5t-26 -78z" />
    <glyph glyph-name="y" unicode="y" horiz-adv-x="1232" 
d="M1024 1081h129l-123 -688q-37 -207 -113 -365.5t-181 -258t-232 -149.5t-273 -50q-56 0 -90.5 24t-34.5 60q0 19 11 41l485 2q135 83 213.5 229t97.5 346l64 553v2q-90 -211 -178 -369.5t-156 -247t-134 -143t-110.5 -71t-87.5 -16.5q-63 0 -97 33t-34 96q0 26 4 51
l135 770q3 35 3 41q0 24 -8 33.5t-29 9.5q-78 0 -201 -273l-4 2q58 177 127.5 268t142.5 91q52 0 80.5 -25.5t28.5 -75.5q0 -12 -4 -40l-142 -791q-4 -23 -4 -37q0 -70 66 -70q29 0 66.5 20t95.5 78t123 149t153 248.5t182 361.5z" />
    <glyph glyph-name="z" unicode="z" horiz-adv-x="1064" 
d="M702 100q87 0 139.5 50.5t108.5 193.5l4 -2q-28 -101 -51 -160.5t-57 -109.5t-78.5 -71t-108.5 -21q-100 0 -222 53t-236 145l-178 -188l-15 14l912 961h-373q-181 0 -265.5 -51t-150.5 -201l-4 2l141 377q169 -11 531 -11h254l2 -4l-760 -801q111 -84 219.5 -130
t187.5 -46z" />
    <glyph glyph-name="braceleft" unicode="{" horiz-adv-x="661" 
d="M815 1651q-208 -107 -284 -186t-76 -193q0 -65 18 -164q23 -146 23 -195q0 -280 -322 -311q236 -23 236 -186q0 -47 -19.5 -107t-38.5 -100t-57 -113q-30 -56 -46.5 -89.5t-33 -84t-16.5 -88.5q0 -70 54 -132.5t191 -147.5l-2 -5q-206 70 -289 141t-83 158
q0 40 16.5 91.5t34.5 88.5t51 97q34 64 53 104t38.5 100.5t19.5 106.5q0 156 -222 156h-12l4 20h13q294 0 294 281q0 59 -20 186q-21 126 -21 168q0 142 110.5 232.5t383.5 175.5z" />
    <glyph glyph-name="bar" unicode="|" horiz-adv-x="509" 
d="M74 -414l356 2020l25 4l-357 -2020z" />
    <glyph glyph-name="braceright" unicode="}" horiz-adv-x="663" 
d="M625 612h12l-4 -20h-10q-297 0 -297 -283q0 -54 22 -184q21 -124 21 -170q0 -140 -110.5 -230.5t-385.5 -175.5l-2 5q209 105 285.5 185t76.5 191q0 64 -20 166q-23 142 -23 195q0 281 324 311q-238 22 -238 186q0 46 20 107t40 103t55 108q96 180 96 262q0 71 -55 134
t-190 149l2 4q207 -71 289.5 -141.5t82.5 -159.5q0 -41 -17 -93.5t-33.5 -86t-49.5 -95.5q-35 -66 -54 -105.5t-37.5 -99.5t-18.5 -108q0 -154 219 -154z" />
    <glyph glyph-name="asciitilde" unicode="~" horiz-adv-x="970" 
d="M653 475q-35 0 -73 14t-62.5 29t-60.5 41t-57.5 39.5t-55 26t-65.5 12.5q-135 0 -216 -145l-4 2q34 103 112.5 177t168.5 74q77 0 190 -81q52 -40 94 -60t91 -20q137 0 215 145l4 -2q-32 -103 -111.5 -177.5t-169.5 -74.5z" />
    <glyph glyph-name="uni00A0" unicode="&#xa0;" horiz-adv-x="538" 
 />
    <glyph glyph-name="exclamdown" unicode="&#xa1;" horiz-adv-x="561" 
d="M391 1069q-54 0 -86.5 30t-32.5 81q0 53 37.5 90t91.5 37t85.5 -30.5t31.5 -80.5q0 -54 -36.5 -90.5t-90.5 -36.5zM147 -225q-75 0 -75 73q0 91 141 564q102 359 127 475h4q-32 -221 -43 -496q0 -8 -1.5 -47.5t-2 -50.5t-2 -47.5t-2.5 -51.5t-3 -49t-4 -53.5t-5 -51
t-6.5 -55t-7.5 -52.5t-9 -56q-10 -50 -39.5 -76t-71.5 -26z" />
    <glyph glyph-name="cent" unicode="&#xa2;" horiz-adv-x="1103" 
d="M946 817q-19 0 -31 6v410q-58 49 -170 49q-20 0 -28 -2l-176 -999q40 -5 53 -5q96 0 202 55.5t177 145.5l4 -2q-75 -128 -199.5 -208t-253.5 -83l-35 -192l-20 4l33 188q-168 3 -263.5 114t-95.5 298q0 184 73 341.5t200 255t282 112.5l33 192l23 -4l-33 -186h29
q144 0 225.5 -77t81.5 -208q0 -88 -33.5 -146.5t-77.5 -58.5zM520 285l172 993q-115 -17 -209 -103t-148 -223t-54 -297q0 -151 62.5 -248t176.5 -122z" />
    <glyph glyph-name="sterling" unicode="&#xa3;" horiz-adv-x="1269" 
d="M1108 1022q-19 0 -31 6v410q-61 49 -174 49q-72 0 -130 -22.5t-97.5 -60t-69 -94.5t-47 -118t-29.5 -139q-13 -92 -20 -193q-3 -58 -8 -92h499l-6 -20h-495q-1 -11 -11 -80q-64 -396 -339 -537h526q65 0 112.5 5.5t92.5 21.5t78.5 42t66 68.5t61 100.5t58.5 139h4
l-164 -518q-170 10 -625 10h-358v6q70 62 123 123l-2 2h4q104 122 154 264.5t73 352.5h-209l9 20h202l4 35q3 34 15 111t14 96q29 232 175 366.5t349 134.5q142 0 224 -77t82 -209q0 -87 -33 -145t-78 -58z" />
    <glyph glyph-name="currency" unicode="&#xa4;" horiz-adv-x="1390" 
d="M1167 854q0 -255 -161 -410l188 -231l-18 -16l-191 227q-139 -117 -332 -117q-195 0 -286 111l-267 -225l-14 16l266 227q-57 77 -57 203q0 128 44.5 235.5t125.5 182.5l-189 227l19 16l188 -225q135 113 326 113q197 0 289 -115l270 227l14 -16l-270 -229
q55 -79 55 -201zM324 643q0 -149 87 -230t248 -81q210 0 345 146t135 374q0 148 -87 229.5t-249 81.5q-210 0 -344.5 -146t-134.5 -374z" />
    <glyph glyph-name="yen" unicode="&#xa5;" horiz-adv-x="1441" 
d="M985 1491h563v-4q-50 -6 -88 -20t-88.5 -49.5t-110 -104.5t-131.5 -176l-337 -492v-2h368l-8 -20h-365l-40 -232h370l-8 -20h-365l-24 -133q-8 -47 -8 -95q0 -77 45.5 -106.5t163.5 -32.5v-4h-621v4q146 3 202 50t81 184l22 133h-362l8 20h358l41 232h-364l8 20h350
l-219 619q-40 119 -81 167t-124 58v4h608v-4q-129 -11 -189 -43t-60 -96q0 -35 32 -136l179 -532l321 467q68 102 90.5 145t22.5 80q0 56 -56.5 81.5t-183.5 33.5v4z" />
    <glyph glyph-name="brokenbar" unicode="&#xa6;" horiz-adv-x="509" 
d="M293 823l137 783l27 4l-140 -783zM76 -414l137 783l27 4l-140 -783z" />
    <glyph glyph-name="section" unicode="&#xa7;" horiz-adv-x="843" 
d="M129 -438q-46 0 -75 22.5t-29 57.5q0 34 20 67h311q119 106 119 277q0 54 -9.5 109.5t-35 131.5t-40.5 115t-54 139q-51 124 -74 185.5t-47.5 157t-24.5 167.5q0 102 53 217t132 206t177 151.5t183 60.5q45 0 75 -23t30 -59q0 -29 -23 -67h-309q-117 -100 -117 -275
q0 -102 35.5 -219t99.5 -274q49 -118 74.5 -186.5t49.5 -162t24 -163.5q0 -103 -53 -218t-132.5 -206t-177.5 -151t-182 -60zM459 -219q190 214 190 409q0 175 -143 506q-36 87 -54.5 133.5t-44.5 121t-34 123.5t-12.5 110.5t7.5 115t38 105.5q-191 -215 -191 -410
q0 -176 143 -506q36 -84 54.5 -132t43.5 -120t33.5 -122t13 -110.5t-7 -115.5t-36.5 -108z" />
    <glyph glyph-name="dieresis" unicode="&#xa8;" horiz-adv-x="1130" 
d="M322 1395q-37 0 -61.5 23.5t-24.5 60.5q0 40 28 68t68 28q37 0 60.5 -23.5t23.5 -60.5q0 -40 -27 -68t-67 -28zM690 1395q-37 0 -61.5 23.5t-24.5 60.5q0 40 28 68t68 28q37 0 60.5 -23.5t23.5 -60.5q0 -40 -27 -68t-67 -28z" />
    <glyph glyph-name="copyright" unicode="&#xa9;" horiz-adv-x="2088" 
d="M1079 -143q-204 0 -374 63.5t-288 178t-183.5 278.5t-65.5 360t65.5 360t183.5 279t288 178.5t374 63.5q202 0 372.5 -66t288.5 -184t183.5 -284.5t65.5 -362.5t-65.5 -357.5t-184 -273t-288 -172.5t-372.5 -61zM1079 -119q263 0 462.5 102.5t309 293.5t109.5 444
q0 254 -109 452t-310 309t-462 111q-196 0 -361 -62t-279.5 -173.5t-178 -271t-63.5 -349.5t63.5 -349.5t178 -271t279.5 -173.5t361 -62zM1081 147q-236 0 -382 162t-146 424q0 266 152.5 431t400.5 165q57 0 110 -14.5t91 -28.5t59 -14q24 0 37.5 10t28.5 39h4l100 -406
l-4 -2q-68 197 -177.5 294.5t-252.5 97.5q-185 0 -299.5 -141t-114.5 -371q0 -249 127 -403t332 -154q120 0 236 61t178 158l4 -2q-60 -136 -193.5 -221t-290.5 -85z" />
    <glyph glyph-name="ordfeminine" unicode="&#xaa;" horiz-adv-x="1048" 
d="M1024 922l4 -2q-44 -134 -100 -204.5t-115 -70.5q-40 0 -64 21.5t-24 60.5q0 3 4 35l94 520q-114 -331 -219.5 -484t-234.5 -153q-82 0 -129 67t-47 181q0 165 60.5 307t166 226.5t229.5 84.5q104 0 185 -49q71 11 141 49h4l-129 -727q-7 -34 -1.5 -48.5t25.5 -14.5
q29 0 68 51t82 150zM424 721q99 0 199 161.5t219 497.5q-23 51 -70.5 81t-107.5 30q-95 0 -176 -77.5t-127 -205t-46 -272.5q0 -104 27.5 -159.5t81.5 -55.5z" />
    <glyph glyph-name="guillemotleft" unicode="&#xab;" horiz-adv-x="854" 
d="M514 997l-268 -397l129 -399l-4 -2l-260 383l8 34l391 383zM809 997l-268 -399l127 -397l-4 -2l-258 383l6 34l393 383z" />
    <glyph glyph-name="logicalnot" unicode="&#xac;" horiz-adv-x="970" 
d="M143 739h752l-53 -307h-25l49 287h-727z" />
    <glyph glyph-name="uni00AD" unicode="&#xad;" horiz-adv-x="987" 
d="M164 592l8 20h674l-8 -20h-674z" />
    <glyph glyph-name="registered" unicode="&#xae;" horiz-adv-x="1247" 
d="M727 1626q227 0 365.5 -132t138.5 -349t-138.5 -349t-365.5 -132q-229 0 -367.5 132t-138.5 349t138.5 349t367.5 132zM727 682q218 0 349.5 127t131.5 336t-131.5 336t-349.5 127q-219 0 -351 -126.5t-132 -336.5t132 -336.5t351 -126.5zM819 1143q95 -157 137.5 -205
t85.5 -51v-4h-86q-56 0 -99.5 46t-133.5 201h-2h-98v-155q0 -50 19.5 -67.5t72.5 -20.5v-4h-260v4q44 1 60.5 17.5t16.5 56.5v382q0 36 -17 52.5t-60 19.5v4h297q91 0 145.5 -38t54.5 -101q0 -49 -35.5 -85.5t-97.5 -51.5zM713 1147q63 0 102 36t39 93q0 58 -33.5 92.5
t-89.5 34.5h-108v-256h90z" />
    <glyph glyph-name="macron" unicode="&#xaf;" horiz-adv-x="1079" 
d="M188 1460l9 21h596l-9 -21h-596z" />
    <glyph glyph-name="degree" unicode="&#xb0;" horiz-adv-x="790" 
d="M530 1061q-129 0 -208.5 77.5t-79.5 204.5t79.5 205t208.5 78q131 0 211 -78t80 -205t-80 -204.5t-211 -77.5zM530 1085q119 0 191 70.5t72 187.5t-72 188t-191 71q-117 0 -188.5 -71t-71.5 -188t71.5 -187.5t188.5 -70.5z" />
    <glyph glyph-name="plusminus" unicode="&#xb1;" horiz-adv-x="970" 
d="M535 745h364l-2 -20h-367l-55 -313h-24l55 313h-363l2 20h365l55 316h25zM61 264l5 21h753l-4 -21h-754z" />
    <glyph glyph-name="uni00B2" unicode="&#xb2;" horiz-adv-x="761" 
d="M485 758q112 0 165 30t91 121h4l-81 -262q-102 6 -369 6h-217l-2 4q73 70 196 170q44 36 64.5 53t65 56t68.5 64t57.5 64.5t51 71t31 69.5t13.5 73q0 56 -34.5 88.5t-92.5 32.5q-74 0 -146.5 -44.5t-118.5 -117.5l-4 2q62 119 155.5 190.5t188.5 71.5q82 0 130.5 -44.5
t48.5 -117.5q0 -52 -20.5 -105t-59.5 -101t-78 -87.5t-93.5 -80.5t-87 -63.5t-77.5 -51.5q-59 -40 -123 -92h274z" />
    <glyph glyph-name="uni00B3" unicode="&#xb3;" horiz-adv-x="675" 
d="M434 1167q104 -21 161.5 -71.5t57.5 -128.5q0 -135 -142 -223t-390 -103v4q188 19 302 96t114 185q0 114 -213 145l-2 4l309 311h-191q-86 0 -134.5 -27.5t-94.5 -109.5l-4 2l108 258h2q64 -18 338 -18h99l2 -4z" />
    <glyph glyph-name="acute" unicode="&#xb4;" horiz-adv-x="897" 
d="M276 1274l-2 4q174 203 281 285q26 20 53 20q30 0 56 -25t26 -57q0 -46 -43 -74q-105 -64 -371 -153z" />
    <glyph glyph-name="uni00B5" unicode="&#xb5;" horiz-adv-x="1355" 
d="M1024 172q0 -61 35 -86t121 -27v-4q-149 -24 -322 -75h-4l37 206q-120 -100 -223 -153t-201 -53q-197 0 -227 155q3 -336 -19 -487q-3 -36 -22 -57t-49 -21q-23 0 -36.5 14.5t-13.5 36.5q0 40 133 686l84 475q9 52 9 74q0 54 -33.5 82t-120.5 43v4q180 53 326 109h4
l-78 -441l-68 -381q-6 -38 -6 -67q0 -172 168 -172q79 0 167 44.5t210 133.5l100 571q11 64 11 76q0 52 -33.5 80.5t-122.5 42.5v4q201 59 328 109h4l-150 -842q-8 -41 -8 -80z" />
    <glyph glyph-name="paragraph" unicode="&#xb6;" horiz-adv-x="1146" 
d="M1217 1491v-4q-123 -3 -171.5 -43.5t-68.5 -157.5l-301 -1696l-72 -14l334 1894h-135l-334 -1880l-72 -14l195 1096h-8q-198 0 -313 93t-115 249q0 201 139.5 339t343.5 138h578z" />
    <glyph glyph-name="periodcentered" unicode="&#xb7;" horiz-adv-x="544" 
d="M276 475q-54 0 -86 30.5t-32 80.5q0 54 37.5 90.5t91.5 36.5t86.5 -30t32.5 -81q0 -53 -38 -90t-92 -37z" />
    <glyph glyph-name="cedilla" unicode="&#xb8;" horiz-adv-x="864" 
d="M266 -430v4q64 5 107 41.5t43 89.5q0 40 -28 84.5t-77 79.5l109 131h29l-56 -66q127 -93 127 -188q0 -80 -70 -127t-184 -49z" />
    <glyph glyph-name="uni00B9" unicode="&#xb9;" horiz-adv-x="516" 
d="M362 737q0 -43 24.5 -60t86.5 -20v-4h-369v4q78 3 109 30t43 101l90 494q4 32 4 45q0 47 -43 47q-31 0 -88 -24l-2 4q9 5 46.5 24t49 25.5t42 23t48 26.5t43 25.5t48.5 30.5h2l-129 -721q-5 -29 -5 -51z" />
    <glyph glyph-name="ordmasculine" unicode="&#xba;" horiz-adv-x="993" 
d="M514 645q-150 0 -235.5 90t-85.5 242q0 224 138.5 379t336.5 155q150 0 235.5 -88.5t85.5 -240.5q0 -146 -63 -269.5t-172.5 -195.5t-239.5 -72zM518 666q89 0 169.5 79t128.5 208.5t48 271.5q0 124 -53 196t-147 72q-89 0 -169.5 -79.5t-129 -208.5t-48.5 -269
q0 -125 53 -197.5t148 -72.5z" />
    <glyph glyph-name="guillemotright" unicode="&#xbb;" horiz-adv-x="851" 
d="M469 616l-6 -34l-393 -383l-4 2l268 399l-127 397l4 2zM506 999l258 -383l-8 -34l-391 -383l-5 2l269 399l-127 397z" />
    <glyph glyph-name="onequarter" unicode="&#xbc;" horiz-adv-x="1513" 
d="M1462 1540l13 -14l-1430 -1575l-14 14zM530 657v-4h-368v4q77 3 108 30t43 101l90 494q5 40 5 45q0 47 -43 47q-32 0 -89 -24l-2 4q9 5 46.5 24t49 25.5t42 23t48 26.5t43 25.5t48.5 30.5h2l-129 -721q-4 -23 -4 -51q0 -43 24.5 -60t85.5 -20zM1225 260q93 0 172 6h2
l-6 -24h-172l-21 -121q-4 -25 -4 -45q0 -38 20.5 -53.5t71.5 -18.5v-4h-354v4q80 3 112.5 31.5t45.5 107.5l16 99h-367l-2 2l504 594h82zM776 260h336l88 500z" />
    <glyph glyph-name="onehalf" unicode="&#xbd;" horiz-adv-x="1554" 
d="M1458 1540l12 -14l-1429 -1575l-14 14zM526 657v-4h-368v4q78 3 109.5 30t43.5 101l88 494q4 32 4 45q0 47 -43 47q-31 0 -88 -24l-2 4q9 5 46.5 24t49 25.5t42 23t48 26.5t43 25.5t48.5 30.5h2l-129 -721q-4 -23 -4 -51q0 -43 24.5 -60t85.5 -20zM1413 686
q0 -51 -20.5 -104t-59 -100.5t-78 -88t-93.5 -81t-87.5 -64t-77.5 -51.5q-71 -51 -123 -93h275q112 0 165 30.5t91 121.5h4l-82 -262q-102 6 -369 6h-217l-2 4q88 85 197 170q60 49 92 76t89 82t88 96t56 95t25 102q0 55 -34 87.5t-93 32.5q-74 0 -146 -44t-118 -117l-4 2
q62 119 155.5 190.5t188.5 71.5q83 0 130.5 -44.5t47.5 -117.5z" />
    <glyph glyph-name="threequarters" unicode="&#xbe;" horiz-adv-x="1593" 
d="M1542 1540l14 -14l-1429 -1575l-14 14zM694 967q0 -134 -142.5 -222.5t-389.5 -103.5v4q188 19 302 96t114 185q0 114 -213 145l-3 4l310 311h-191q-86 0 -134.5 -27.5t-94.5 -109.5l-4 2l108 258h2q64 -18 338 -18h99l2 -4l-322 -320q104 -21 161.5 -71.5t57.5 -128.5z
M1305 260q95 0 174 6h2l-8 -24h-173l-20 -121q-4 -23 -4 -45q0 -37 21.5 -53t72.5 -19v-4h-356v4q82 5 114.5 32.5t45.5 106.5l16 99h-367l-2 2l504 594h82zM856 260h338l88 500z" />
    <glyph glyph-name="questiondown" unicode="&#xbf;" horiz-adv-x="870" 
d="M690 1307q55 0 87 -30.5t32 -80.5q0 -54 -37 -90.5t-90 -36.5q-55 0 -87 30t-32 81q0 52 37.5 89.5t89.5 37.5zM223 -78h430q4 -16 4 -31q0 -52 -41 -84t-96 -32q-130 0 -237.5 63.5t-166.5 165t-59 215.5q0 187 139.5 297t383.5 121q40 118 65 250h4q-12 -205 4 -373
l-6 -4q-266 -8 -409.5 -90.5t-143.5 -235.5q0 -142 129 -262z" />
    <glyph glyph-name="Agrave" unicode="&#xc0;" horiz-adv-x="1495" 
d="M717 1712q-25 10 -39 31t-14 45q0 34 23 58t58 24q23 0 41 -10q116 -55 316 -252l-2 -4q-315 76 -383 108zM1225 197q13 -60 23 -90.5t30 -55.5t49 -34.5t78 -12.5v-4h-569v4q130 13 186.5 44.5t56.5 109.5q0 1 -10 69l-65 328h-625l-119 -217q-47 -85 -66.5 -132
t-19.5 -85q0 -60 50 -85.5t169 -31.5v-4h-487v4q37 4 66 13.5t56 29.5t47.5 40t46.5 59t45 71.5t52 91.5l586 1059l-12 64q75 37 131 79h30zM391 575h608l-161 814z" />
    <glyph glyph-name="Aacute" unicode="&#xc1;" horiz-adv-x="1495" 
d="M1165 1712q-68 -32 -383 -108l-2 4q200 197 316 252q18 10 41 10q35 0 58.5 -24t23.5 -58q0 -24 -15 -45t-39 -31zM1225 197q13 -60 23 -90.5t30 -55.5t49 -34.5t78 -12.5v-4h-569v4q130 13 186.5 44.5t56.5 109.5q0 1 -10 69l-65 328h-625l-119 -217q-47 -85 -66.5 -132
t-19.5 -85q0 -60 50 -85.5t169 -31.5v-4h-487v4q37 4 66 13.5t56 29.5t47.5 40t46.5 59t45 71.5t52 91.5l586 1059l-12 64q75 37 131 79h30zM391 575h608l-161 814z" />
    <glyph glyph-name="Acircumflex" unicode="&#xc2;" horiz-adv-x="1495" 
d="M954 1739l-290 -135l-2 4l313 262h2l221 -262l-2 -4zM1225 197q13 -60 23 -90.5t30 -55.5t49 -34.5t78 -12.5v-4h-569v4q130 13 186.5 44.5t56.5 109.5q0 1 -10 69l-65 328h-625l-119 -217q-47 -85 -66.5 -132t-19.5 -85q0 -60 50 -85.5t169 -31.5v-4h-487v4
q37 4 66 13.5t56 29.5t47.5 40t46.5 59t45 71.5t52 91.5l586 1059l-12 64q75 37 131 79h30zM391 575h608l-161 814z" />
    <glyph glyph-name="Atilde" unicode="&#xc3;" horiz-adv-x="1495" 
d="M758 1761q-107 0 -178 -145l-5 2q29 102 97.5 177t142.5 75q72 0 168 -84q45 -38 82 -58t78 -20q112 0 182 143l4 -2q-31 -101 -99.5 -175.5t-142.5 -74.5q-78 0 -174 84q-31 26 -49 39t-48 26t-58 13zM1225 197q13 -60 23 -90.5t30 -55.5t49 -34.5t78 -12.5v-4h-569v4
q130 13 186.5 44.5t56.5 109.5q0 1 -10 69l-65 328h-625l-119 -217q-47 -85 -66.5 -132t-19.5 -85q0 -60 50 -85.5t169 -31.5v-4h-487v4q37 4 66 13.5t56 29.5t47.5 40t46.5 59t45 71.5t52 91.5l586 1059l-12 64q75 37 131 79h30zM391 575h608l-161 814z" />
    <glyph glyph-name="Adieresis" unicode="&#xc4;" horiz-adv-x="1495" 
d="M768 1671q-37 0 -60.5 23.5t-23.5 60.5q0 40 28 69t68 29q37 0 60.5 -24.5t23.5 -61.5q0 -40 -27.5 -68t-68.5 -28zM1137 1671q-37 0 -60.5 23.5t-23.5 60.5q0 40 28 69t68 29q37 0 60.5 -24.5t23.5 -61.5q0 -40 -27.5 -68t-68.5 -28zM1225 197q13 -60 23 -90.5t30 -55.5
t49 -34.5t78 -12.5v-4h-569v4q130 13 186.5 44.5t56.5 109.5q0 1 -10 69l-65 328h-625l-119 -217q-47 -85 -66.5 -132t-19.5 -85q0 -60 50 -85.5t169 -31.5v-4h-487v4q37 4 66 13.5t56 29.5t47.5 40t46.5 59t45 71.5t52 91.5l586 1059l-12 64q75 37 131 79h30zM391 575h608
l-161 814z" />
    <glyph glyph-name="Aring" unicode="&#xc5;" horiz-adv-x="1495" 
d="M942 1573q-91 0 -144 46t-53 124q0 92 66.5 154.5t163.5 62.5q90 0 142 -46.5t52 -125.5q0 -92 -65.5 -153.5t-161.5 -61.5zM971 1935q-83 0 -140 -55t-57 -133q0 -69 47 -109.5t125 -40.5q82 0 138.5 54.5t56.5 132.5q0 69 -46 110t-124 41zM1225 197q13 -60 23 -90.5
t30 -55.5t49 -34.5t78 -12.5v-4h-569v4q130 13 186.5 44.5t56.5 109.5q0 1 -10 69l-65 328h-625l-119 -217q-47 -85 -66.5 -132t-19.5 -85q0 -60 50 -85.5t169 -31.5v-4h-487v4q37 4 66 13.5t56 29.5t47.5 40t46.5 59t45 71.5t52 91.5l586 1059l-12 64q75 37 131 79h30z
M391 575h608l-161 814z" />
    <glyph glyph-name="AE" unicode="&#xc6;" horiz-adv-x="2209" 
d="M1669 1470h-330l-120 -692h211q85 0 136 28t90 99.5t79 212.5h4q-76 -380 -127 -721h-4q6 47 6 119q0 101 -21 154t-59.5 70.5t-108.5 17.5h-211l-98 -561q-12 -52 -12 -86q0 -52 26.5 -71.5t92.5 -19.5h262q89 0 151.5 10.5t126 40.5t117.5 86.5t112.5 145.5t125.5 221
l4 -2l-262 -532q-108 10 -332 10h-793v4q123 3 172.5 43.5t69.5 157.5l98 553h-526l-256 -422q-54 -92 -76 -141.5t-22 -85.5q0 -52 47 -76t155 -29v-4h-489v4q100 12 172.5 75t173.5 230l717 1182h770q219 0 327 10l62 -512l-4 -2q-11 80 -24.5 143t-32.5 112t-40 85
t-50 61.5t-59 41t-71.5 24.5t-83 12.5t-96.5 3.5zM1079 778l90 508q7 44 7 66q0 65 -42.5 90t-152.5 28l-420 -692h518z" />
    <glyph glyph-name="Ccedilla" unicode="&#xc7;" horiz-adv-x="1392" 
d="M924 1487q-170 0 -315.5 -118.5t-230.5 -322t-85 -440.5q0 -243 114 -384.5t314 -141.5q144 0 295.5 81t247.5 212l4 -2q-101 -173 -274.5 -282t-356.5 -109l-39 -46q129 -91 129 -188q0 -80 -70.5 -127t-183.5 -49v4q64 5 106 41.5t42 89.5q0 40 -28 84.5t-77 79.5
l94 111q-219 9 -344 159t-125 400q0 198 63 378t169 310t253 207t308 77q60 0 120 -17.5t104.5 -34.5t66.5 -17q24 0 43 12.5t43 46.5h4l26 -522l-4 -2q-32 254 -138.5 382t-274.5 128z" />
    <glyph glyph-name="Egrave" unicode="&#xc8;" horiz-adv-x="1472" 
d="M680 1712q-24 10 -38.5 31t-14.5 45q0 34 23.5 58t58.5 24q23 0 41 -10q114 -54 315 -252l-2 -4q-315 76 -383 108zM932 1470h-330l-121 -692h209q64 0 105.5 13.5t78 52t64.5 103t59 171.5h4q-76 -380 -127 -721h-4q7 79 7 113q0 79 -10.5 128t-35.5 75.5t-58 35.5
t-87 9h-209l-98 -561q-10 -58 -10 -86q0 -52 25 -71.5t89 -19.5h265q88 0 150 10.5t125.5 40.5t117.5 86.5t113 145.5t126 221l4 -2l-262 -532q-108 10 -331 10h-793v4q123 3 172.5 43.5t69.5 157.5l190 1081q8 41 8 82q0 65 -39 90.5t-139 28.5v4h744q220 0 327 10l62 -512
l-4 -2q-15 107 -34.5 184t-48.5 131t-61.5 86.5t-82.5 51t-102 24.5t-128 6z" />
    <glyph glyph-name="Eacute" unicode="&#xc9;" horiz-adv-x="1472" 
d="M1128 1712q-68 -32 -383 -108l-2 4q200 197 316 252q17 10 41 10q35 0 58.5 -24t23.5 -58q0 -24 -14 -45t-40 -31zM932 1470h-330l-121 -692h209q64 0 105.5 13.5t78 52t64.5 103t59 171.5h4q-76 -380 -127 -721h-4q7 79 7 113q0 79 -10.5 128t-35.5 75.5t-58 35.5t-87 9
h-209l-98 -561q-10 -58 -10 -86q0 -52 25 -71.5t89 -19.5h265q88 0 150 10.5t125.5 40.5t117.5 86.5t113 145.5t126 221l4 -2l-262 -532q-108 10 -331 10h-793v4q123 3 172.5 43.5t69.5 157.5l190 1081q8 41 8 82q0 65 -39 90.5t-139 28.5v4h744q220 0 327 10l62 -512l-4 -2
q-15 107 -34.5 184t-48.5 131t-61.5 86.5t-82.5 51t-102 24.5t-128 6z" />
    <glyph glyph-name="Ecircumflex" unicode="&#xca;" horiz-adv-x="1472" 
d="M918 1739l-291 -135l-2 4l315 262h2l219 -262v-4zM932 1470h-330l-121 -692h209q64 0 105.5 13.5t78 52t64.5 103t59 171.5h4q-76 -380 -127 -721h-4q7 79 7 113q0 79 -10.5 128t-35.5 75.5t-58 35.5t-87 9h-209l-98 -561q-10 -58 -10 -86q0 -52 25 -71.5t89 -19.5h265
q88 0 150 10.5t125.5 40.5t117.5 86.5t113 145.5t126 221l4 -2l-262 -532q-108 10 -331 10h-793v4q123 3 172.5 43.5t69.5 157.5l190 1081q8 41 8 82q0 65 -39 90.5t-139 28.5v4h744q220 0 327 10l62 -512l-4 -2q-15 107 -34.5 184t-48.5 131t-61.5 86.5t-82.5 51t-102 24.5
t-128 6z" />
    <glyph glyph-name="Edieresis" unicode="&#xcb;" horiz-adv-x="1472" 
d="M733 1671q-37 0 -61.5 23.5t-24.5 60.5q0 40 28 69t68 29q38 0 61 -24.5t23 -61.5q0 -40 -27 -68t-67 -28zM1102 1671q-37 0 -61.5 23.5t-24.5 60.5q0 40 28 69t68 29q38 0 61 -24.5t23 -61.5q0 -40 -27 -68t-67 -28zM932 1470h-330l-121 -692h209q64 0 105.5 13.5t78 52
t64.5 103t59 171.5h4q-76 -380 -127 -721h-4q7 79 7 113q0 79 -10.5 128t-35.5 75.5t-58 35.5t-87 9h-209l-98 -561q-10 -58 -10 -86q0 -52 25 -71.5t89 -19.5h265q88 0 150 10.5t125.5 40.5t117.5 86.5t113 145.5t126 221l4 -2l-262 -532q-108 10 -331 10h-793v4
q123 3 172.5 43.5t69.5 157.5l190 1081q8 41 8 82q0 65 -39 90.5t-139 28.5v4h744q220 0 327 10l62 -512l-4 -2q-15 107 -34.5 184t-48.5 131t-61.5 86.5t-82.5 51t-102 24.5t-128 6z" />
    <glyph glyph-name="Igrave" unicode="&#xcc;" horiz-adv-x="735" 
d="M344 1712q-25 10 -39 31t-14 45q0 34 23.5 58t58.5 24q23 0 41 -10q114 -54 315 -252l-2 -4q-315 76 -383 108zM260 1491h551v-4q-123 -3 -172.5 -43.5t-69.5 -157.5l-190 -1081q-8 -44 -8 -82q0 -66 39 -91t139 -28v-4h-551v4q123 3 172.5 43.5t69.5 157.5l190 1081
q8 41 8 82q0 65 -39 90.5t-139 28.5v4z" />
    <glyph glyph-name="Iacute" unicode="&#xcd;" horiz-adv-x="735" 
d="M764 1870q35 0 58.5 -24t23.5 -58q0 -24 -14.5 -45t-38.5 -31q-68 -32 -383 -108l-2 4q201 198 315 252q17 10 41 10zM260 1487v4h551v-4q-123 -3 -172.5 -43.5t-69.5 -157.5l-190 -1081q-8 -44 -8 -82q0 -66 39 -91t139 -28v-4h-551v4q123 3 172.5 43.5t69.5 157.5
l190 1081q8 41 8 82q0 65 -39 90.5t-139 28.5z" />
    <glyph glyph-name="Icircumflex" unicode="&#xce;" horiz-adv-x="735" 
d="M604 1870l221 -262l-2 -4l-241 135l-291 -135l-2 4l313 262h2zM260 1487v4h551v-4q-123 -3 -172.5 -43.5t-69.5 -157.5l-190 -1081q-8 -44 -8 -82q0 -66 39 -91t139 -28v-4h-551v4q123 3 172.5 43.5t69.5 157.5l190 1081q8 41 8 82q0 65 -39 90.5t-139 28.5z" />
    <glyph glyph-name="Idieresis" unicode="&#xcf;" horiz-adv-x="735" 
d="M395 1671q-37 0 -60.5 23.5t-23.5 60.5q0 40 28.5 69t68.5 29q37 0 60.5 -24.5t23.5 -61.5q0 -40 -28 -68t-69 -28zM776 1853q37 0 60.5 -24.5t23.5 -61.5q0 -40 -27.5 -68t-68.5 -28q-37 0 -60.5 23.5t-23.5 60.5q0 40 28 69t68 29zM260 1487v4h551v-4
q-123 -3 -172.5 -43.5t-69.5 -157.5l-190 -1081q-8 -44 -8 -82q0 -66 39 -91t139 -28v-4h-551v4q123 3 172.5 43.5t69.5 157.5l190 1081q8 41 8 82q0 65 -39 90.5t-139 28.5z" />
    <glyph glyph-name="Eth" unicode="&#xd0;" horiz-adv-x="1607" 
d="M926 1491q285 0 448.5 -157.5t163.5 -424.5q0 -189 -67.5 -357.5t-184 -289.5t-279 -191.5t-345.5 -70.5h-662v4q123 3 172.5 43.5t69.5 157.5l96 551h-182l8 20h178l90 510q8 41 8 82q0 65 -39 90.5t-139 28.5v4h664zM637 20q153 0 292.5 72.5t240 195t160 292.5
t59.5 356q0 247 -131.5 390.5t-362.5 143.5h-291l-121 -694h441l-9 -20h-436l-98 -559q-12 -61 -12 -97q0 -45 19.5 -62.5t64.5 -17.5h184z" />
    <glyph glyph-name="Ntilde" unicode="&#xd1;" horiz-adv-x="1548" 
d="M793 1761q-107 0 -181 -145l-4 2q30 102 99 177t143 75q72 0 168 -84q45 -38 82 -58t78 -20q112 0 182 143l4 -2q-31 -101 -99.5 -175.5t-142.5 -74.5q-78 0 -174 84q-37 29 -51 39.5t-45 24.5t-59 14zM1122 1491h520v-4q-123 -3 -172 -43.5t-69 -157.5l-232 -1306h-4
l-708 1333l-189 -1067q-8 -47 -8 -88q0 -86 57 -118.5t201 -35.5v-4h-520v4q123 3 172.5 43.5t69.5 157.5l198 1124q6 41 6 53q0 58 -40 80t-144 25v4h279l653 -1262l180 1016q8 47 8 90q0 84 -57 116.5t-201 35.5v4z" />
    <glyph glyph-name="Ograve" unicode="&#xd2;" horiz-adv-x="1583" 
d="M1151 1604q-315 76 -383 108q-25 10 -39 31t-14 45q0 34 23.5 58t58.5 24q23 0 41 -10q114 -54 315 -252zM694 -20q-257 0 -404 156t-147 423q0 195 64.5 371.5t174 303.5t261.5 202t320 75q257 0 403.5 -156.5t146.5 -424.5q0 -156 -41 -301t-116 -262t-175.5 -204.5
t-226 -135t-260.5 -47.5zM698 4q132 0 255.5 79t213 210.5t143.5 309.5t54 368q0 238 -107.5 377t-298.5 139q-177 0 -330.5 -133t-244 -356t-90.5 -478q0 -239 107.5 -377.5t297.5 -138.5z" />
    <glyph glyph-name="Oacute" unicode="&#xd3;" horiz-adv-x="1583" 
d="M834 1604l-3 4q200 197 316 252q18 10 41 10q34 0 58 -24t24 -58q0 -24 -14.5 -45t-38.5 -31q-73 -33 -383 -108zM694 -20q-257 0 -404 156t-147 423q0 195 64.5 371.5t174 303.5t261.5 202t320 75q257 0 403.5 -156.5t146.5 -424.5q0 -156 -41 -301t-116 -262
t-175.5 -204.5t-226 -135t-260.5 -47.5zM698 4q132 0 255.5 79t213 210.5t143.5 309.5t54 368q0 238 -107.5 377t-298.5 139q-177 0 -330.5 -133t-244 -356t-90.5 -478q0 -239 107.5 -377.5t297.5 -138.5z" />
    <glyph glyph-name="Ocircumflex" unicode="&#xd4;" horiz-adv-x="1583" 
d="M1004 1739l-289 -135l-2 4l313 262h2l219 -262v-4zM963 1511q257 0 403.5 -156.5t146.5 -424.5q0 -156 -41 -301t-116 -262t-175.5 -204.5t-226 -135t-260.5 -47.5q-257 0 -404 156t-147 423q0 195 64.5 371.5t174 303.5t261.5 202t320 75zM698 4q132 0 255.5 79
t213 210.5t143.5 309.5t54 368q0 238 -107.5 377t-298.5 139q-177 0 -330.5 -133t-244 -356t-90.5 -478q0 -239 107.5 -377.5t297.5 -138.5z" />
    <glyph glyph-name="Otilde" unicode="&#xd5;" horiz-adv-x="1583" 
d="M1139 1599q-78 0 -174 84q-35 28 -51 39.5t-46.5 25t-58.5 13.5q-109 0 -180 -145l-4 2q31 103 99 177.5t142 74.5q68 0 168 -84q45 -38 82 -58t78 -20q112 0 182 143l4 -2q-31 -101 -99 -175.5t-142 -74.5zM694 -20q-257 0 -404 156t-147 423q0 195 64.5 371.5
t174 303.5t261.5 202t320 75q257 0 403.5 -156.5t146.5 -424.5q0 -156 -41 -301t-116 -262t-175.5 -204.5t-226 -135t-260.5 -47.5zM698 4q132 0 255.5 79t213 210.5t143.5 309.5t54 368q0 238 -107.5 377t-298.5 139q-177 0 -330.5 -133t-244 -356t-90.5 -478
q0 -239 107.5 -377.5t297.5 -138.5z" />
    <glyph glyph-name="Odieresis" unicode="&#xd6;" horiz-adv-x="1583" 
d="M819 1671q-37 0 -61.5 23.5t-24.5 60.5q0 40 29 69t67 29t62 -24.5t24 -61.5q0 -40 -27.5 -68t-68.5 -28zM1188 1671q-37 0 -61.5 23.5t-24.5 60.5q0 40 29 69t67 29t62 -24.5t24 -61.5q0 -40 -27.5 -68t-68.5 -28zM694 -20q-257 0 -404 156t-147 423q0 195 64.5 371.5
t174 303.5t261.5 202t320 75q257 0 403.5 -156.5t146.5 -424.5q0 -156 -41 -301t-116 -262t-175.5 -204.5t-226 -135t-260.5 -47.5zM698 4q132 0 255.5 79t213 210.5t143.5 309.5t54 368q0 238 -107.5 377t-298.5 139q-177 0 -330.5 -133t-244 -356t-90.5 -478
q0 -239 107.5 -377.5t297.5 -138.5z" />
    <glyph glyph-name="multiply" unicode="&#xd7;" horiz-adv-x="970" 
d="M842 881l-324 -275l234 -282l-21 -19l-233 283l-344 -291l-13 18l342 291l-233 283l20 18l234 -284l325 276z" />
    <glyph glyph-name="Oslash" unicode="&#xd8;" horiz-adv-x="1597" 
d="M1567 1520l-172 -189q125 -156 125 -401q0 -195 -64.5 -371t-174 -303t-261.5 -201.5t-320 -74.5q-258 0 -405 159l-178 -196l-17 16l179 197q-129 154 -129 403q0 195 64.5 371.5t174 303.5t262 202t320.5 75q261 0 407 -161l172 186zM967 1487q-132 0 -255.5 -79
t-213 -210t-143.5 -309t-54 -369q0 -172 55 -291l951 1049q-107 209 -340 209zM705 4q132 0 255 79t213 210.5t143.5 309.5t53.5 368q0 166 -53 284l-950 -1046q50 -99 136 -152t202 -53z" />
    <glyph glyph-name="Ugrave" unicode="&#xd9;" horiz-adv-x="1562" 
d="M793 1712q-24 10 -39 31t-15 45q0 34 23.5 58t58.5 24q23 0 41 -10q116 -55 316 -252l-2 -4q-315 76 -383 108zM1143 1491h520v-4q-124 -3 -173 -43.5t-69 -157.5l-141 -801q-40 -227 -193 -366t-362 -139q-221 0 -343 107t-122 294q0 50 10 115l140 790q10 52 10 82
q0 66 -39.5 91t-140.5 28v4h589v-4q-147 -3 -203 -50t-81 -184l-139 -786q-11 -71 -11 -111q0 -163 90 -257.5t246 -94.5q198 0 343 132t183 349l134 760q8 47 8 90q0 85 -55.5 117t-200.5 35v4z" />
    <glyph glyph-name="Uacute" unicode="&#xda;" horiz-adv-x="1562" 
d="M1241 1712q-68 -32 -383 -108l-2 4q201 198 315 252q17 10 41 10q35 0 58.5 -24t23.5 -58q0 -24 -14 -45t-39 -31zM1143 1491h520v-4q-124 -3 -173 -43.5t-69 -157.5l-141 -801q-40 -227 -193 -366t-362 -139q-221 0 -343 107t-122 294q0 50 10 115l140 790q10 52 10 82
q0 66 -39.5 91t-140.5 28v4h589v-4q-147 -3 -203 -50t-81 -184l-139 -786q-11 -71 -11 -111q0 -163 90 -257.5t246 -94.5q198 0 343 132t183 349l134 760q8 47 8 90q0 85 -55.5 117t-200.5 35v4z" />
    <glyph glyph-name="Ucircumflex" unicode="&#xdb;" horiz-adv-x="1562" 
d="M1030 1739l-291 -135l-2 4l316 262h2l219 -262v-4zM1143 1491h520v-4q-124 -3 -173 -43.5t-69 -157.5l-141 -801q-40 -227 -193 -366t-362 -139q-221 0 -343 107t-122 294q0 50 10 115l140 790q10 52 10 82q0 66 -39.5 91t-140.5 28v4h589v-4q-147 -3 -203 -50t-81 -184
l-139 -786q-11 -71 -11 -111q0 -163 90 -257.5t246 -94.5q198 0 343 132t183 349l134 760q8 47 8 90q0 85 -55.5 117t-200.5 35v4z" />
    <glyph glyph-name="Udieresis" unicode="&#xdc;" horiz-adv-x="1562" 
d="M846 1671q-37 0 -61.5 23.5t-24.5 60.5q0 40 28 69t68 29q37 0 60.5 -24.5t23.5 -61.5q0 -40 -27 -68t-67 -28zM1214 1671q-37 0 -61.5 23.5t-24.5 60.5q0 40 28.5 69t68.5 29q37 0 60.5 -24.5t23.5 -61.5q0 -40 -27.5 -68t-67.5 -28zM1143 1491h520v-4
q-124 -3 -173 -43.5t-69 -157.5l-141 -801q-40 -227 -193 -366t-362 -139q-221 0 -343 107t-122 294q0 50 10 115l140 790q10 52 10 82q0 66 -39.5 91t-140.5 28v4h589v-4q-147 -3 -203 -50t-81 -184l-139 -786q-11 -71 -11 -111q0 -163 90 -257.5t246 -94.5q198 0 343 132
t183 349l134 760q8 47 8 90q0 85 -55.5 117t-200.5 35v4z" />
    <glyph glyph-name="Yacute" unicode="&#xdd;" horiz-adv-x="1392" 
d="M1161 1712q-68 -32 -383 -108l-2 4q200 197 316 252q18 10 41 10q35 0 58 -24t23 -58q0 -24 -14 -45t-39 -31zM1001 1491h570v-4q-68 -8 -124 -35t-132.5 -103.5t-171.5 -211.5l-357 -504l-69 -395q-10 -62 -10 -95q0 -77 46 -106.5t165 -32.5v-4h-621v4q145 3 201.5 50
t81.5 184l69 393l-239 631q-44 117 -86.5 166t-124.5 59v4h606v-4q-127 -11 -189.5 -43t-62.5 -98q0 -34 35 -134l198 -542l344 487q71 100 94 143.5t23 77.5q0 52 -56.5 76.5t-189.5 32.5v4z" />
    <glyph glyph-name="Thorn" unicode="&#xde;" horiz-adv-x="1363" 
d="M932 1194q178 0 280.5 -86.5t102.5 -233.5q0 -141 -74.5 -255t-206.5 -179t-295 -65h-331l-23 -129q-10 -62 -10 -99q0 -80 47 -110t164 -33v-4h-588v4q123 3 172.5 43.5t69.5 157.5l190 1081q8 41 8 82q0 65 -39 90.5t-139 28.5v4h551v-4q-123 -3 -172.5 -43.5
t-69.5 -157.5l-16 -92h379zM723 395q184 0 311 144.5t127 351.5q0 130 -70 206.5t-194 76.5h-348l-137 -779h311z" />
    <glyph glyph-name="germandbls" unicode="&#xdf;" horiz-adv-x="1210" 
d="M-154 -430l-2 4q96 68 162 193t94 286l174 987q46 263 206 424.5t374 161.5q137 0 219 -55t82 -146q0 -34 -11 -65.5t-25.5 -53t-42 -46t-45.5 -37.5t-52 -35q-4 -3 -6.5 -4.5t-5.5 -3.5q-41 -26 -68 -47.5t-62.5 -58.5t-54 -84t-18.5 -101q0 -48 24.5 -95t52.5 -77
t79 -76q38 -35 56 -52t48.5 -52t45 -62t26.5 -65.5t12 -79.5q0 -148 -106.5 -249t-264.5 -101q-80 0 -144 47.5t-89 126.5l4 2q30 -54 90 -84.5t131 -30.5q103 0 173.5 68.5t70.5 169.5q0 34 -10 64.5t-33 61t-40 49t-52 52.5q-37 37 -60 62.5t-49.5 64t-39.5 82t-13 92.5
q0 64 25 121.5t57 95t92 96.5q77 70 123.5 144t46.5 166q0 78 -46 125t-124 47q-157 0 -277 -143.5t-161 -377.5l-174 -972q-35 -197 -143 -345t-249 -194z" />
    <glyph glyph-name="agrave" unicode="&#xe0;" horiz-adv-x="1230" 
d="M821 1212q-228 185 -293 271q-18 23 -18 57q0 30 24 55t56 25q41 0 72 -39q61 -92 163 -367zM1155 340l4 -2q-58 -177 -127.5 -267.5t-142.5 -90.5q-109 0 -109 100q0 20 6 41l121 682q-152 -424 -292 -623.5t-308 -199.5q-105 0 -165 85t-60 232q0 213 78.5 398
t215.5 296t298 111q140 0 246 -64q110 25 165 64h5l-168 -950q-4 -23 -4 -41q0 -24 8.5 -33.5t27.5 -9.5q38 0 89.5 68t111.5 204zM365 61q134 0 270 214.5t293 642.5l4 18q-31 64 -96.5 101.5t-147.5 37.5q-128 0 -236 -101t-169.5 -268t-61.5 -358q0 -139 37 -213t107 -74
z" />
    <glyph glyph-name="aacute" unicode="&#xe1;" horiz-adv-x="1230" 
d="M944 1427q-96 -61 -371 -153l-2 4q179 209 283 285q23 20 51 20q30 0 56 -25t26 -57q0 -49 -43 -74zM1155 340l4 -2q-58 -177 -127.5 -267.5t-142.5 -90.5q-109 0 -109 100q0 20 6 41l121 682q-152 -424 -292 -623.5t-308 -199.5q-105 0 -165 85t-60 232q0 213 78.5 398
t215.5 296t298 111q140 0 246 -64q110 25 165 64h5l-168 -950q-4 -23 -4 -41q0 -24 8.5 -33.5t27.5 -9.5q38 0 89.5 68t111.5 204zM365 61q134 0 270 214.5t293 642.5l4 18q-31 64 -96.5 101.5t-147.5 37.5q-128 0 -236 -101t-169.5 -268t-61.5 -358q0 -139 37 -213t107 -74
z" />
    <glyph glyph-name="acircumflex" unicode="&#xe2;" horiz-adv-x="1230" 
d="M819 1456l-303 -205l-4 4l332 347h2l209 -347l-2 -4zM1155 340l4 -2q-58 -177 -127.5 -267.5t-142.5 -90.5q-109 0 -109 100q0 20 6 41l121 682q-152 -424 -292 -623.5t-308 -199.5q-105 0 -165 85t-60 232q0 213 78.5 398t215.5 296t298 111q140 0 246 -64
q110 25 165 64h5l-168 -950q-4 -23 -4 -41q0 -24 8.5 -33.5t27.5 -9.5q38 0 89.5 68t111.5 204zM365 61q134 0 270 214.5t293 642.5l4 18q-31 64 -96.5 101.5t-147.5 37.5q-128 0 -236 -101t-169.5 -268t-61.5 -358q0 -139 37 -213t107 -74z" />
    <glyph glyph-name="atilde" unicode="&#xe3;" horiz-adv-x="1230" 
d="M637 1456q-100 0 -164 -145l-4 2q29 103 92.5 177.5t132.5 74.5q37 0 71.5 -21t78.5 -59q42 -40 75 -61t70 -21q99 0 166 145l4 -2q-29 -103 -93.5 -177.5t-133.5 -74.5q-40 0 -76 22t-80 62q-37 37 -69.5 57.5t-69.5 20.5zM954 68q38 0 89.5 68t111.5 204l4 -2
q-58 -177 -127.5 -267.5t-142.5 -90.5q-109 0 -109 100q0 20 6 41l121 682q-152 -424 -292 -623.5t-308 -199.5q-105 0 -165 85t-60 232q0 213 78.5 398t215.5 296t298 111q140 0 246 -64q110 25 165 64h5l-168 -950q-4 -23 -4 -41q0 -24 8.5 -33.5t27.5 -9.5zM365 61
q134 0 270 214.5t293 642.5l4 18q-31 64 -96.5 101.5t-147.5 37.5q-128 0 -236 -101t-169.5 -268t-61.5 -358q0 -139 37 -213t107 -74z" />
    <glyph glyph-name="adieresis" unicode="&#xe4;" horiz-adv-x="1230" 
d="M637 1395q-37 0 -61.5 23.5t-24.5 60.5q0 40 28 68t68 28q37 0 60.5 -23.5t23.5 -60.5q0 -40 -27 -68t-67 -28zM1006 1395q-37 0 -61.5 23.5t-24.5 60.5q0 40 28 68t68 28q37 0 60.5 -23.5t23.5 -60.5q0 -40 -27 -68t-67 -28zM1155 340l4 -2q-58 -177 -127.5 -267.5
t-142.5 -90.5q-109 0 -109 100q0 20 6 41l121 682q-152 -424 -292 -623.5t-308 -199.5q-105 0 -165 85t-60 232q0 213 78.5 398t215.5 296t298 111q140 0 246 -64q110 25 165 64h5l-168 -950q-4 -23 -4 -41q0 -24 8.5 -33.5t27.5 -9.5q38 0 89.5 68t111.5 204zM365 61
q134 0 270 214.5t293 642.5l4 18q-31 64 -96.5 101.5t-147.5 37.5q-128 0 -236 -101t-169.5 -268t-61.5 -358q0 -139 37 -213t107 -74z" />
    <glyph glyph-name="aring" unicode="&#xe5;" horiz-adv-x="1230" 
d="M795 1214q-92 0 -144.5 46.5t-52.5 125.5q0 92 66 154t163 62q91 0 143 -46t52 -126q0 -91 -66 -153.5t-161 -62.5zM823 1577q-83 0 -139.5 -54t-56.5 -132q0 -69 47 -110.5t125 -41.5q81 0 137.5 54.5t56.5 131.5q0 70 -46 111t-124 41zM1155 340l4 -2
q-58 -177 -127.5 -267.5t-142.5 -90.5q-109 0 -109 100q0 20 6 41l121 682q-152 -424 -292 -623.5t-308 -199.5q-105 0 -165 85t-60 232q0 213 78.5 398t215.5 296t298 111q140 0 246 -64q110 25 165 64h5l-168 -950q-4 -23 -4 -41q0 -24 8.5 -33.5t27.5 -9.5q38 0 89.5 68
t111.5 204zM365 61q134 0 270 214.5t293 642.5l4 18q-31 64 -96.5 101.5t-147.5 37.5q-128 0 -236 -101t-169.5 -268t-61.5 -358q0 -139 37 -213t107 -74z" />
    <glyph glyph-name="ae" unicode="&#xe6;" horiz-adv-x="1769" 
d="M1247 72q98 0 206.5 55t182.5 145l4 -2q-78 -131 -208 -210.5t-265 -79.5q-179 0 -280 110t-101 299q0 31 9 123q-117 -270 -234 -401t-254 -131q-105 0 -165 85t-60 232q0 213 78.5 398t215.5 296t298 111q101 0 195 -40t159 -106q169 146 371 146q142 0 227.5 -63
t85.5 -165q0 -104 -102.5 -187t-277.5 -134.5t-406 -73.5v-30q0 -173 85 -275t236 -102zM1382 1077q-119 0 -220 -77t-163 -210t-71 -292q305 46 482 148.5t177 250.5q0 82 -56.5 131t-148.5 49zM365 61q134 0 271.5 217.5t295.5 653.5q-29 67 -95 105t-149 38
q-128 0 -236 -101t-169.5 -268t-61.5 -358q0 -139 37 -213t107 -74z" />
    <glyph glyph-name="ccedilla" unicode="&#xe7;" horiz-adv-x="1067" 
d="M895 612q-19 0 -31 6v410q-58 49 -170 49q-127 0 -233.5 -83t-168 -227t-61.5 -316q0 -174 83.5 -276.5t230.5 -102.5q96 0 201 55t178 145l4 -2q-76 -130 -204.5 -210t-262.5 -80l-39 -46q129 -91 129 -188q0 -80 -70.5 -127t-183.5 -49v4q64 5 105.5 41.5t41.5 89.5
q0 40 -27.5 84.5t-76.5 79.5l94 111q-159 9 -250.5 119t-91.5 292q0 194 80.5 358t220 258.5t305.5 94.5q144 0 227 -77t83 -208q0 -88 -33.5 -146.5t-79.5 -58.5z" />
    <glyph glyph-name="egrave" unicode="&#xe8;" horiz-adv-x="1067" 
d="M774 1212q-228 185 -293 271q-18 23 -18 57q0 30 24 55t56 25q44 0 71 -39q63 -96 164 -367zM551 72q98 0 206.5 55t184.5 145l4 -2q-80 -131 -210 -210.5t-265 -79.5q-178 0 -279.5 110.5t-101.5 298.5q0 193 82.5 357.5t223.5 260t306 95.5q133 0 213 -60.5t80 -160.5
q0 -106 -100 -190.5t-270.5 -137t-395.5 -74.5v-30q0 -173 85.5 -275t236.5 -102zM684 1077q-118 0 -219 -77t-163 -210t-71 -292q296 46 468.5 149.5t172.5 253.5q0 78 -52 127t-136 49z" />
    <glyph glyph-name="eacute" unicode="&#xe9;" horiz-adv-x="1067" 
d="M883 1427q-105 -64 -371 -153l-2 4q174 203 281 285q26 20 51 20q31 0 57.5 -25t26.5 -57q0 -46 -43 -74zM551 72q98 0 206.5 55t184.5 145l4 -2q-80 -131 -210 -210.5t-265 -79.5q-178 0 -279.5 110.5t-101.5 298.5q0 193 82.5 357.5t223.5 260t306 95.5
q133 0 213 -60.5t80 -160.5q0 -106 -100 -190.5t-270.5 -137t-395.5 -74.5v-30q0 -173 85.5 -275t236.5 -102zM684 1077q-118 0 -219 -77t-163 -210t-71 -292q296 46 468.5 149.5t172.5 253.5q0 78 -52 127t-136 49z" />
    <glyph glyph-name="ecircumflex" unicode="&#xea;" horiz-adv-x="1067" 
d="M758 1456l-303 -205l-4 4l331 347h2l209 -347l-4 -4zM551 72q98 0 206.5 55t184.5 145l4 -2q-80 -131 -210 -210.5t-265 -79.5q-178 0 -279.5 110.5t-101.5 298.5q0 193 82.5 357.5t223.5 260t306 95.5q133 0 213 -60.5t80 -160.5q0 -106 -100 -190.5t-270.5 -137
t-395.5 -74.5v-30q0 -173 85.5 -275t236.5 -102zM684 1077q-118 0 -219 -77t-163 -210t-71 -292q296 46 468.5 149.5t172.5 253.5q0 78 -52 127t-136 49z" />
    <glyph glyph-name="edieresis" unicode="&#xeb;" horiz-adv-x="1067" 
d="M573 1395q-37 0 -61.5 23.5t-24.5 60.5q0 40 28.5 68t68.5 28q38 0 62 -23.5t24 -60.5q0 -40 -28 -68t-69 -28zM952 1575q38 0 62 -23.5t24 -60.5q0 -40 -27.5 -68t-68.5 -28q-37 0 -61.5 23.5t-24.5 60.5q0 40 28 68t68 28zM995 881q0 -106 -100 -190.5t-270.5 -137
t-395.5 -74.5v-30q0 -173 85.5 -275t236.5 -102q98 0 206.5 55t184.5 145l4 -2q-80 -131 -210 -210.5t-265 -79.5q-178 0 -279.5 110.5t-101.5 298.5q0 193 82.5 357.5t223.5 260t306 95.5q133 0 213 -60.5t80 -160.5zM684 1077q-118 0 -219 -77t-163 -210t-71 -292
q296 46 468.5 149.5t172.5 253.5q0 78 -52 127t-136 49z" />
    <glyph glyph-name="igrave" unicode="&#xec;" horiz-adv-x="622" 
d="M500 1212q-228 185 -293 271q-21 27 -21 57t25 55t55 25q45 0 72 -39q63 -89 166 -367zM545 340l4 -2q-58 -178 -126.5 -268t-141.5 -90q-109 0 -109 100q0 13 4 41l146 809q4 23 4 41q0 24 -9 33.5t-28 9.5q-81 0 -201 -273l-4 2q58 178 126.5 268.5t141.5 90.5
q52 0 80.5 -25.5t28.5 -75.5q0 -12 -4 -40l-146 -809q-4 -23 -4 -41q0 -24 9 -33.5t28 -9.5q81 0 201 272z" />
    <glyph glyph-name="iacute" unicode="&#xed;" horiz-adv-x="622" 
d="M563 1583q31 0 57.5 -25t26.5 -57q0 -46 -43 -74q-102 -62 -371 -153l-2 4q174 203 281 285q26 20 51 20zM344 68q81 0 201 272l4 -2q-58 -178 -126.5 -268t-141.5 -90q-109 0 -109 100q0 13 4 41l146 809q4 23 4 41q0 24 -9 33.5t-28 9.5q-81 0 -201 -273l-4 2
q58 178 126.5 268.5t141.5 90.5q52 0 80.5 -25.5t28.5 -75.5q0 -12 -4 -40l-146 -809q-4 -23 -4 -41q0 -24 9 -33.5t28 -9.5z" />
    <glyph glyph-name="icircumflex" unicode="&#xee;" horiz-adv-x="622" 
d="M506 1602l207 -347l-2 -4l-232 205l-305 -205l-4 4l334 347h2zM344 68q81 0 201 272l4 -2q-58 -178 -126.5 -268t-141.5 -90q-109 0 -109 100q0 13 4 41l146 809q4 23 4 41q0 24 -9 33.5t-28 9.5q-81 0 -201 -273l-4 2q58 178 126.5 268.5t141.5 90.5q52 0 80.5 -25.5
t28.5 -75.5q0 -12 -4 -40l-146 -809q-4 -23 -4 -41q0 -24 9 -33.5t28 -9.5z" />
    <glyph glyph-name="idieresis" unicode="&#xef;" horiz-adv-x="622" 
d="M346 1397q-36 0 -60 23t-24 59q0 38 27.5 66t64.5 28q36 0 59 -23t23 -59q0 -40 -26 -67t-64 -27zM623 1573q36 0 59 -23t23 -59q0 -40 -26.5 -67t-64.5 -27q-36 0 -59 23t-23 59q0 38 27 66t64 28zM344 68q81 0 201 272l4 -2q-58 -178 -126.5 -268t-141.5 -90
q-109 0 -109 100q0 13 4 41l146 809q4 23 4 41q0 24 -9 33.5t-28 9.5q-81 0 -201 -273l-4 2q58 178 126.5 268.5t141.5 90.5q52 0 80.5 -25.5t28.5 -75.5q0 -12 -4 -40l-146 -809q-4 -23 -4 -41q0 -24 9 -33.5t28 -9.5z" />
    <glyph glyph-name="eth" unicode="&#xf0;" horiz-adv-x="1177" 
d="M743 1458q167 -136 258 -320t91 -388q0 -155 -48 -297.5t-129.5 -246t-193.5 -165t-234 -61.5q-184 0 -289.5 113.5t-105.5 307.5q0 187 77.5 349t209 257t283.5 95q166 0 258 -115q-55 255 -230 449l-332 -150l-10 23l324 145q-92 98 -205 168l2 4q135 -59 252 -149
l332 149l12 -22zM492 4q150 0 269 152t163 385q16 81 16 174q0 164 -69 261t-191 97q-115 0 -219.5 -101t-167 -267t-62.5 -347q0 -163 69.5 -258.5t191.5 -95.5z" />
    <glyph glyph-name="ntilde" unicode="&#xf1;" horiz-adv-x="1302" 
d="M635 1456q-99 0 -166 -145l-4 2q29 103 93.5 177.5t133.5 74.5q60 0 148 -80q86 -82 145 -82q101 0 168 145l2 -2q-29 -103 -92.5 -177.5t-134.5 -74.5q-66 0 -154 84q-27 26 -44 39.5t-43 26t-52 12.5zM1229 340l4 -2q-58 -178 -126.5 -268t-141.5 -90q-109 0 -109 100
q0 13 4 41l139 790q5 29 5 37q0 70 -64 70q-30 0 -67.5 -19.5t-96 -77.5t-124 -149t-154 -249t-183.5 -363l-28 -160h-129l166 930q4 23 4 41q0 24 -9 33.5t-28 9.5q-81 0 -201 -273l-4 2q58 178 126.5 268.5t141.5 90.5q52 0 80.5 -25.5t28.5 -75.5q0 -12 -4 -40l-129 -719
q93 214 183.5 375t160 251t136 145t110 72t84.5 17q63 0 97 -33t34 -96q0 -20 -5 -51l-135 -770q-4 -23 -4 -41q0 -24 9 -33.5t28 -9.5q38 0 89.5 68t111.5 204z" />
    <glyph glyph-name="ograve" unicode="&#xf2;" horiz-adv-x="1204" 
d="M776 1212q-228 185 -293 271q-20 26 -20 57q0 30 25 55t55 25q44 0 71 -39q63 -89 166 -367zM506 -20q-192 0 -302 115t-110 311q0 192 81 352t221.5 252t308.5 92q192 0 300.5 -115.5t108.5 -310.5q0 -192 -80 -351.5t-220 -252t-308 -92.5zM510 4q122 0 230.5 100
t172.5 265t64 348q0 166 -73.5 263t-203.5 97q-122 0 -230.5 -99.5t-172.5 -263.5t-64 -347q0 -167 73.5 -265t203.5 -98z" />
    <glyph glyph-name="oacute" unicode="&#xf3;" horiz-adv-x="1204" 
d="M520 1274l-2 4q179 209 283 285q26 20 51 20q30 0 56 -25t26 -57q0 -49 -43 -74q-96 -61 -371 -153zM506 -20q-192 0 -302 115t-110 311q0 192 81 352t221.5 252t308.5 92q192 0 300.5 -115.5t108.5 -310.5q0 -192 -80 -351.5t-220 -252t-308 -92.5zM510 4
q122 0 230.5 100t172.5 265t64 348q0 166 -73.5 263t-203.5 97q-122 0 -230.5 -99.5t-172.5 -263.5t-64 -347q0 -167 73.5 -265t203.5 -98z" />
    <glyph glyph-name="ocircumflex" unicode="&#xf4;" horiz-adv-x="1204" 
d="M766 1456l-303 -205l-4 4l334 347h2l206 -347l-2 -4zM705 1102q192 0 300.5 -115.5t108.5 -310.5q0 -192 -80 -351.5t-220 -252t-308 -92.5q-192 0 -302 115t-110 311q0 192 81 352t221.5 252t308.5 92zM510 4q122 0 230.5 100t172.5 265t64 348q0 166 -73.5 263
t-203.5 97q-122 0 -230.5 -99.5t-172.5 -263.5t-64 -347q0 -167 73.5 -265t203.5 -98z" />
    <glyph glyph-name="otilde" unicode="&#xf5;" horiz-adv-x="1204" 
d="M879 1294q-40 0 -76 22t-80 62q-37 37 -69.5 57.5t-69.5 20.5q-100 0 -164 -145l-4 2q29 103 92.5 177.5t132.5 74.5q37 0 71.5 -21t78.5 -59q42 -40 75 -61t70 -21q99 0 166 145l4 -2q-29 -103 -93.5 -177.5t-133.5 -74.5zM506 -20q-192 0 -302 115t-110 311
q0 192 81 352t221.5 252t308.5 92q192 0 300.5 -115.5t108.5 -310.5q0 -192 -80 -351.5t-220 -252t-308 -92.5zM510 4q122 0 230.5 100t172.5 265t64 348q0 166 -73.5 263t-203.5 97q-122 0 -230.5 -99.5t-172.5 -263.5t-64 -347q0 -167 73.5 -265t203.5 -98z" />
    <glyph glyph-name="odieresis" unicode="&#xf6;" horiz-adv-x="1204" 
d="M584 1395q-37 0 -61.5 23.5t-24.5 60.5q0 40 28 68t68 28q38 0 61 -23.5t23 -60.5q0 -40 -27 -68t-67 -28zM952 1395q-37 0 -61.5 23.5t-24.5 60.5q0 40 28.5 68t68.5 28q38 0 61 -23.5t23 -60.5q0 -40 -27.5 -68t-67.5 -28zM506 -20q-192 0 -302 115t-110 311
q0 192 81 352t221.5 252t308.5 92q192 0 300.5 -115.5t108.5 -310.5q0 -192 -80 -351.5t-220 -252t-308 -92.5zM510 4q122 0 230.5 100t172.5 265t64 348q0 166 -73.5 263t-203.5 97q-122 0 -230.5 -99.5t-172.5 -263.5t-64 -347q0 -167 73.5 -265t203.5 -98z" />
    <glyph glyph-name="divide" unicode="&#xf7;" horiz-adv-x="970" 
d="M524 762q-36 0 -59 22t-23 56q0 47 35 82.5t82 35.5q37 0 60.5 -22t23.5 -57q0 -48 -35 -82.5t-84 -34.5zM117 590l4 20h753l-4 -20h-753zM434 244q-38 0 -61 22t-23 56q0 49 35 83.5t82 34.5q38 0 61 -21.5t23 -56.5q0 -49 -34.5 -83.5t-82.5 -34.5z" />
    <glyph glyph-name="oslash" unicode="&#xf8;" horiz-adv-x="1214" 
d="M1167 1124l-145 -157q92 -115 92 -291q0 -192 -80 -351.5t-220 -252t-308 -92.5q-183 0 -293 104l-127 -139l-16 16l127 139q-103 115 -103 306q0 192 81 352t221.5 252t308.5 92q192 0 303 -117l143 156zM700 1077q-122 0 -230.5 -99.5t-172.5 -263.5t-64 -347
q0 -113 35 -197l672 748q-72 159 -240 159zM510 4q122 0 230.5 100t172.5 265t64 348q0 93 -27 176l-671 -743q34 -70 93 -108t138 -38z" />
    <glyph glyph-name="ugrave" unicode="&#xf9;" horiz-adv-x="1302" 
d="M811 1212q-229 183 -295 271q-18 23 -18 57q0 30 25 55t55 25q44 0 71 -39q57 -81 166 -367zM1223 340l4 -2q-57 -177 -127.5 -267.5t-143.5 -90.5q-108 0 -108 100q0 13 4 41l129 713q-76 -178 -150 -319t-137.5 -231.5t-119 -153t-105.5 -94t-86.5 -44t-71.5 -12.5
q-63 0 -97 33t-34 96q0 26 4 51l135 770q3 35 3 41q0 24 -8 33.5t-29 9.5q-78 0 -201 -273l-4 2q58 177 127.5 268t142.5 91q52 0 80.5 -25.5t28.5 -75.5q0 -12 -4 -40l-142 -791q-4 -23 -4 -37q0 -70 66 -70q29 0 66.5 20t95.5 78t123 149t153 248.5t182 361.5l29 161h129
l-166 -929q-2 -23 -2 -41q0 -24 8 -33.5t29 -9.5q78 0 201 272z" />
    <glyph glyph-name="uacute" unicode="&#xfa;" horiz-adv-x="1302" 
d="M926 1427q-102 -62 -371 -153l-2 4q174 203 281 285q26 20 51 20q31 0 57.5 -25t26.5 -57q0 -46 -43 -74zM1223 340l4 -2q-57 -177 -127.5 -267.5t-143.5 -90.5q-108 0 -108 100q0 13 4 41l129 713q-76 -178 -150 -319t-137.5 -231.5t-119 -153t-105.5 -94t-86.5 -44
t-71.5 -12.5q-63 0 -97 33t-34 96q0 26 4 51l135 770q3 35 3 41q0 24 -8 33.5t-29 9.5q-78 0 -201 -273l-4 2q58 177 127.5 268t142.5 91q52 0 80.5 -25.5t28.5 -75.5q0 -12 -4 -40l-142 -791q-4 -23 -4 -37q0 -70 66 -70q29 0 66.5 20t95.5 78t123 149t153 248.5t182 361.5
l29 161h129l-166 -929q-2 -23 -2 -41q0 -24 8 -33.5t29 -9.5q78 0 201 272z" />
    <glyph glyph-name="ucircumflex" unicode="&#xfb;" horiz-adv-x="1302" 
d="M801 1456l-305 -205l-4 4l333 347h2l207 -347l-2 -4zM1223 340l4 -2q-57 -177 -127.5 -267.5t-143.5 -90.5q-108 0 -108 100q0 13 4 41l129 713q-76 -178 -150 -319t-137.5 -231.5t-119 -153t-105.5 -94t-86.5 -44t-71.5 -12.5q-63 0 -97 33t-34 96q0 26 4 51l135 770
q3 35 3 41q0 24 -8 33.5t-29 9.5q-78 0 -201 -273l-4 2q58 177 127.5 268t142.5 91q52 0 80.5 -25.5t28.5 -75.5q0 -12 -4 -40l-142 -791q-4 -23 -4 -37q0 -70 66 -70q29 0 66.5 20t95.5 78t123 149t153 248.5t182 361.5l29 161h129l-166 -929q-2 -23 -2 -41q0 -24 8 -33.5
t29 -9.5q78 0 201 272z" />
    <glyph glyph-name="udieresis" unicode="&#xfc;" horiz-adv-x="1302" 
d="M616 1395q-37 0 -61.5 23.5t-24.5 60.5q0 40 28.5 68t68.5 28q38 0 62 -23.5t24 -60.5q0 -40 -28 -68t-69 -28zM985 1395q-37 0 -61.5 23.5t-24.5 60.5q0 40 28 68t68 28q38 0 62 -23.5t24 -60.5q0 -40 -27.5 -68t-68.5 -28zM1223 340l4 -2q-57 -177 -127.5 -267.5
t-143.5 -90.5q-108 0 -108 100q0 13 4 41l129 713q-76 -178 -150 -319t-137.5 -231.5t-119 -153t-105.5 -94t-86.5 -44t-71.5 -12.5q-63 0 -97 33t-34 96q0 26 4 51l135 770q3 35 3 41q0 24 -8 33.5t-29 9.5q-78 0 -201 -273l-4 2q58 177 127.5 268t142.5 91
q52 0 80.5 -25.5t28.5 -75.5q0 -12 -4 -40l-142 -791q-4 -23 -4 -37q0 -70 66 -70q29 0 66.5 20t95.5 78t123 149t153 248.5t182 361.5l29 161h129l-166 -929q-2 -23 -2 -41q0 -24 8 -33.5t29 -9.5q78 0 201 272z" />
    <glyph glyph-name="yacute" unicode="&#xfd;" horiz-adv-x="1232" 
d="M926 1427q-102 -62 -371 -153l-2 4q174 203 281 285q26 20 51 20q31 0 57.5 -25t26.5 -57q0 -46 -43 -74zM1024 1081h129l-123 -688q-37 -207 -113 -365.5t-181 -258t-232 -149.5t-273 -50q-56 0 -90.5 24t-34.5 60q0 19 11 41l485 2q135 83 213.5 229t97.5 346l64 553v2
q-90 -211 -178 -369.5t-156 -247t-134 -143t-110.5 -71t-87.5 -16.5q-63 0 -97 33t-34 96q0 26 4 51l135 770q3 35 3 41q0 24 -8 33.5t-29 9.5q-78 0 -201 -273l-4 2q58 177 127.5 268t142.5 91q52 0 80.5 -25.5t28.5 -75.5q0 -12 -4 -40l-142 -791q-4 -23 -4 -37
q0 -70 66 -70q29 0 66.5 20t95.5 78t123 149t153 248.5t182 361.5z" />
    <glyph glyph-name="thorn" unicode="&#xfe;" horiz-adv-x="1175" 
d="M868 1102q105 0 165.5 -85.5t60.5 -232.5q0 -213 -78.5 -397.5t-216 -295.5t-299.5 -111q-74 0 -146.5 21t-124.5 58l-47 -266q-12 -70 20 -92.5t140 -28.5v-4q-204 -44 -319 -90h-5l316 1792q10 58 -22 80.5t-140 36.5v4q182 48 328 127h4l-236 -1342q150 424 291 625
t309 201zM487 6q128 0 236 101t169.5 268t61.5 358q0 138 -37 212.5t-106 74.5q-134 0 -270 -214t-293 -642l-4 -19q31 -64 96 -101.5t147 -37.5z" />
    <glyph glyph-name="ydieresis" unicode="&#xff;" horiz-adv-x="1232" 
d="M616 1395q-37 0 -61.5 23.5t-24.5 60.5q0 40 28.5 68t68.5 28q38 0 62 -23.5t24 -60.5q0 -40 -28 -68t-69 -28zM985 1395q-37 0 -61.5 23.5t-24.5 60.5q0 40 28 68t68 28q38 0 62 -23.5t24 -60.5q0 -40 -27.5 -68t-68.5 -28zM1024 1081h129l-123 -688
q-37 -207 -113 -365.5t-181 -258t-232 -149.5t-273 -50q-56 0 -90.5 24t-34.5 60q0 19 11 41l485 2q135 83 213.5 229t97.5 346l64 553v2q-90 -211 -178 -369.5t-156 -247t-134 -143t-110.5 -71t-87.5 -16.5q-63 0 -97 33t-34 96q0 26 4 51l135 770q3 35 3 41q0 24 -8 33.5
t-29 9.5q-78 0 -201 -273l-4 2q58 177 127.5 268t142.5 91q52 0 80.5 -25.5t28.5 -75.5q0 -12 -4 -40l-142 -791q-4 -23 -4 -37q0 -70 66 -70q29 0 66.5 20t95.5 78t123 149t153 248.5t182 361.5z" />
    <glyph glyph-name="Amacron" unicode="&#x100;" horiz-adv-x="1495" 
d="M1247 1716l-8 -20h-594l8 20h594zM1225 197q13 -60 23 -90.5t30 -55.5t49 -34.5t78 -12.5v-4h-569v4q130 13 186.5 44.5t56.5 109.5q0 1 -10 69l-65 328h-625l-119 -217q-47 -85 -66.5 -132t-19.5 -85q0 -60 50 -85.5t169 -31.5v-4h-487v4q37 4 66 13.5t56 29.5t47.5 40
t46.5 59t45 71.5t52 91.5l586 1059l-12 64q75 37 131 79h30zM391 575h608l-161 814z" />
    <glyph glyph-name="amacron" unicode="&#x101;" horiz-adv-x="1230" 
d="M1120 1481l-8 -21h-596l8 21h596zM1155 340l4 -2q-58 -177 -127.5 -267.5t-142.5 -90.5q-109 0 -109 100q0 20 6 41l121 682q-152 -424 -292 -623.5t-308 -199.5q-105 0 -165 85t-60 232q0 213 78.5 398t215.5 296t298 111q140 0 246 -64q110 25 165 64h5l-168 -950
q-4 -23 -4 -41q0 -24 8.5 -33.5t27.5 -9.5q38 0 89.5 68t111.5 204zM365 61q134 0 270 214.5t293 642.5l4 18q-31 64 -96.5 101.5t-147.5 37.5q-128 0 -236 -101t-169.5 -268t-61.5 -358q0 -139 37 -213t107 -74z" />
    <glyph glyph-name="Abreve" unicode="&#x102;" horiz-adv-x="1495" 
d="M928 1604q-83 0 -148.5 69.5t-83.5 188.5l4 2q42 -65 108 -103.5t140 -38.5q77 0 156 38t143 104l4 -2q-61 -120 -150.5 -189t-172.5 -69zM1225 197q13 -60 23 -90.5t30 -55.5t49 -34.5t78 -12.5v-4h-569v4q130 13 186.5 44.5t56.5 109.5q0 1 -10 69l-65 328h-625
l-119 -217q-47 -85 -66.5 -132t-19.5 -85q0 -60 50 -85.5t169 -31.5v-4h-487v4q37 4 66 13.5t56 29.5t47.5 40t46.5 59t45 71.5t52 91.5l586 1059l-12 64q75 37 131 79h30zM391 575h608l-161 814z" />
    <glyph glyph-name="abreve" unicode="&#x103;" horiz-adv-x="1230" 
d="M780 1237q-89 0 -149 92.5t-72 249.5l4 2q26 -102 91.5 -164.5t146.5 -62.5t168 62.5t149 164.5l4 -2q-66 -156 -159 -249t-183 -93zM1155 340l4 -2q-58 -177 -127.5 -267.5t-142.5 -90.5q-109 0 -109 100q0 20 6 41l121 682q-152 -424 -292 -623.5t-308 -199.5
q-105 0 -165 85t-60 232q0 213 78.5 398t215.5 296t298 111q140 0 246 -64q110 25 165 64h5l-168 -950q-4 -23 -4 -41q0 -24 8.5 -33.5t27.5 -9.5q38 0 89.5 68t111.5 204zM365 61q134 0 270 214.5t293 642.5l4 18q-31 64 -96.5 101.5t-147.5 37.5q-128 0 -236 -101
t-169.5 -268t-61.5 -358q0 -139 37 -213t107 -74z" />
    <glyph glyph-name="Aogonek" unicode="&#x104;" horiz-adv-x="1495" 
d="M1225 197q13 -60 23 -90.5t30 -55.5t49 -34.5t78 -12.5v-4h-62q-110 -64 -178.5 -147.5t-68.5 -151.5q0 -37 25.5 -59.5t66.5 -22.5q39 0 80 16t69 39l2 -4q-94 -90 -206 -90q-66 0 -106 31.5t-40 83.5q0 80 94 163.5t252 141.5h-497v4q130 13 186.5 44.5t56.5 109.5
q0 1 -10 69l-65 328h-625l-119 -217q-47 -85 -66.5 -132t-19.5 -85q0 -60 50 -85.5t169 -31.5v-4h-487v4q37 4 66 13.5t56 29.5t47.5 40t46.5 59t45 71.5t52 91.5l586 1059l-12 64q75 37 131 79h30zM391 575h608l-161 814z" />
    <glyph glyph-name="aogonek" unicode="&#x105;" horiz-adv-x="1230" 
d="M885 -381q81 0 147 55l2 -4q-90 -90 -205 -90q-66 0 -105.5 31.5t-39.5 83.5q0 68 66.5 145t173.5 146q-15 -6 -35 -6q-109 0 -109 100q0 20 6 41l121 682q-152 -424 -292 -623.5t-308 -199.5q-105 0 -165 85t-60 232q0 213 78.5 398t215.5 296t298 111q140 0 246 -64
q110 25 165 64h5l-168 -950q-4 -23 -4 -41q0 -24 8.5 -33.5t27.5 -9.5q38 0 89.5 68t111.5 204l4 -2q-81 -253 -188 -330q-178 -203 -178 -307q0 -37 25 -59.5t67 -22.5zM365 61q134 0 270 214.5t293 642.5l4 18q-31 64 -96.5 101.5t-147.5 37.5q-128 0 -236 -101
t-169.5 -268t-61.5 -358q0 -139 37 -213t107 -74z" />
    <glyph glyph-name="Cacute" unicode="&#x106;" horiz-adv-x="1392" 
d="M801 1604l-2 4q201 198 315 252q17 10 41 10q34 0 57 -24t23 -58q0 -54 -51 -76q-69 -32 -383 -108zM637 -20q-231 0 -363.5 150.5t-132.5 408.5q0 198 63 378t169 310t253 207t308 77q60 0 120 -17.5t104.5 -34.5t66.5 -17q24 0 43 12.5t43 46.5h4l26 -522l-4 -2
q-32 254 -138.5 382t-274.5 128q-170 0 -315.5 -118.5t-230.5 -322t-85 -440.5q0 -243 114 -384.5t314 -141.5q144 0 295.5 81t247.5 212l4 -2q-101 -173 -274.5 -282t-356.5 -109z" />
    <glyph glyph-name="cacute" unicode="&#x107;" horiz-adv-x="1067" 
d="M879 1427q-96 -61 -369 -153l-2 4q177 210 280 285q26 20 52 20q31 0 56.5 -25t25.5 -57q0 -49 -43 -74zM895 612q-19 0 -31 6v410q-58 49 -170 49q-127 0 -233.5 -83t-168 -227t-61.5 -316q0 -174 83.5 -276.5t230.5 -102.5q96 0 201 55t178 145l4 -2
q-76 -130 -204.5 -210t-262.5 -80q-171 0 -270 110.5t-99 300.5q0 194 80.5 358t220 258.5t305.5 94.5q144 0 227 -77t83 -208q0 -88 -33.5 -146.5t-79.5 -58.5z" />
    <glyph glyph-name="Cdotaccent" unicode="&#x10a;" horiz-adv-x="1392" 
d="M971 1665q-40 0 -67 26t-27 66q0 43 31 74t75 31q39 0 65.5 -27t26.5 -66q0 -45 -29.5 -74.5t-74.5 -29.5zM637 -20q-231 0 -363.5 150.5t-132.5 408.5q0 198 63 378t169 310t253 207t308 77q60 0 120 -17.5t104.5 -34.5t66.5 -17q24 0 43 12.5t43 46.5h4l26 -522l-4 -2
q-32 254 -138.5 382t-274.5 128q-170 0 -315.5 -118.5t-230.5 -322t-85 -440.5q0 -243 114 -384.5t314 -141.5q144 0 295.5 81t247.5 212l4 -2q-101 -173 -274.5 -282t-356.5 -109z" />
    <glyph glyph-name="cdotaccent" unicode="&#x10b;" horiz-adv-x="1067" 
d="M754 1384q-40 0 -67.5 26.5t-27.5 66.5q0 44 31 74t76 30q39 0 65.5 -26.5t26.5 -65.5q0 -45 -29.5 -75t-74.5 -30zM895 612q-19 0 -31 6v410q-58 49 -170 49q-127 0 -233.5 -83t-168 -227t-61.5 -316q0 -174 83.5 -276.5t230.5 -102.5q96 0 201 55t178 145l4 -2
q-76 -130 -204.5 -210t-262.5 -80q-171 0 -270 110.5t-99 300.5q0 194 80.5 358t220 258.5t305.5 94.5q144 0 227 -77t83 -208q0 -88 -33.5 -146.5t-79.5 -58.5z" />
    <glyph glyph-name="Ccaron" unicode="&#x10c;" horiz-adv-x="1392" 
d="M950 1604h-2l-221 262l2 4l242 -137l291 137v-4zM924 1487q-170 0 -315.5 -118.5t-230.5 -322t-85 -440.5q0 -243 114 -384.5t314 -141.5q144 0 295.5 81t247.5 212l4 -2q-101 -173 -274.5 -282t-356.5 -109q-231 0 -363.5 150.5t-132.5 408.5q0 198 63 378t169 310
t253 207t308 77q60 0 120 -17.5t104.5 -34.5t66.5 -17q24 0 43 12.5t43 46.5h4l26 -522l-4 -2q-32 254 -138.5 382t-274.5 128z" />
    <glyph glyph-name="ccaron" unicode="&#x10d;" horiz-adv-x="1067" 
d="M715 1231h-2l-209 346l4 4l233 -205l303 205l3 -4zM698 1102q144 0 227 -77t83 -208q0 -88 -33.5 -146.5t-79.5 -58.5q-19 0 -31 6v410q-58 49 -170 49q-127 0 -233.5 -83t-168 -227t-61.5 -316q0 -174 83.5 -276.5t230.5 -102.5q96 0 201 55t178 145l4 -2
q-76 -130 -204.5 -210t-262.5 -80q-171 0 -270 110.5t-99 300.5q0 194 80.5 358t220 258.5t305.5 94.5z" />
    <glyph glyph-name="Dcaron" unicode="&#x10e;" horiz-adv-x="1605" 
d="M911 1604h-2l-221 262l2 4l244 -137l291 137v-4zM924 1491q285 0 448.5 -157.5t163.5 -424.5q0 -189 -68 -357.5t-184 -289.5t-279 -191.5t-346 -70.5h-661v4q123 3 172.5 43.5t69.5 157.5l190 1081q8 41 8 82q0 65 -39 90.5t-139 28.5v4h664zM635 20q153 0 292.5 72.5
t239.5 195t159.5 292.5t59.5 356q0 247 -131 390.5t-362 143.5h-291l-223 -1273q-12 -61 -12 -97q0 -45 19.5 -62.5t64.5 -17.5h184z" />
    <glyph glyph-name="dcaron" unicode="&#x10f;" horiz-adv-x="1249" 
d="M1366 1626q47 0 75.5 -34t28.5 -91q0 -93 -66 -190.5t-167 -151.5l-2 4q54 41 88.5 101t34.5 110q0 43 -25 73t-69 36q-9 21 -9 39q0 40 33.5 72t77.5 32zM1180 1618l-258 -1466q-4 -23 -4 -41q0 -24 8.5 -33.5t27.5 -9.5q38 0 89.5 68t111.5 204l4 -2
q-58 -177 -127.5 -267.5t-142.5 -90.5q-109 0 -109 100q0 20 6 41l121 680q-152 -423 -292 -622t-308 -199q-105 0 -165 85t-60 232q0 213 78.5 398t215.5 296t298 111q74 0 146.5 -21.5t125.5 -58.5l62 348q10 58 -21 80.5t-139 36.5v4q176 46 328 127h4zM365 61
q134 0 270 213.5t293 640.5l2 21q-31 65 -95.5 102t-146.5 37q-128 0 -236 -101t-169.5 -268t-61.5 -358q0 -139 37 -213t107 -74z" />
    <glyph glyph-name="Dcroat" unicode="&#x110;" horiz-adv-x="1607" 
d="M926 1491q285 0 448.5 -157.5t163.5 -424.5q0 -189 -67.5 -357.5t-184 -289.5t-279 -191.5t-345.5 -70.5h-662v4q123 3 172.5 43.5t69.5 157.5l96 551h-182l8 20h178l90 510q8 41 8 82q0 65 -39 90.5t-139 28.5v4h664zM637 20q153 0 292.5 72.5t240 195t160 292.5
t59.5 356q0 247 -131.5 390.5t-362.5 143.5h-291l-121 -694h441l-9 -20h-436l-98 -559q-12 -61 -12 -97q0 -45 19.5 -62.5t64.5 -17.5h184z" />
    <glyph glyph-name="dcroat" unicode="&#x111;" horiz-adv-x="1230" 
d="M1114 1249l-192 -1097q-4 -23 -4 -41q0 -24 8.5 -33.5t27.5 -9.5q38 0 89.5 68t111.5 204l4 -2q-58 -177 -127.5 -267.5t-142.5 -90.5q-109 0 -109 100q0 20 6 41l121 680q-152 -423 -292 -622t-308 -199q-105 0 -165 85t-60 232q0 213 78.5 398t215.5 296t298 111
q74 0 146.5 -21.5t125.5 -58.5l41 227h-334l9 21h327l19 100q10 58 -21 80.5t-139 36.5v4q176 46 328 127h4l-62 -348h170l-8 -21h-166zM365 61q134 0 270 213.5t293 640.5l2 21q-31 65 -95.5 102t-146.5 37q-128 0 -236 -101t-169.5 -268t-61.5 -358q0 -139 37 -213
t107 -74z" />
    <glyph glyph-name="Emacron" unicode="&#x112;" horiz-adv-x="1472" 
d="M1210 1716l-8 -20h-594l8 20h594zM932 1470h-330l-121 -692h209q64 0 105.5 13.5t78 52t64.5 103t59 171.5h4q-76 -380 -127 -721h-4q7 79 7 113q0 79 -10.5 128t-35.5 75.5t-58 35.5t-87 9h-209l-98 -561q-10 -58 -10 -86q0 -52 25 -71.5t89 -19.5h265q88 0 150 10.5
t125.5 40.5t117.5 86.5t113 145.5t126 221l4 -2l-262 -532q-108 10 -331 10h-793v4q123 3 172.5 43.5t69.5 157.5l190 1081q8 41 8 82q0 65 -39 90.5t-139 28.5v4h744q220 0 327 10l62 -512l-4 -2q-15 107 -34.5 184t-48.5 131t-61.5 86.5t-82.5 51t-102 24.5t-128 6z" />
    <glyph glyph-name="emacron" unicode="&#x113;" horiz-adv-x="1067" 
d="M463 1481h596l-8 -21h-596zM995 881q0 -106 -100 -190.5t-270.5 -137t-395.5 -74.5v-30q0 -173 85.5 -275t236.5 -102q98 0 206.5 55t184.5 145l4 -2q-80 -131 -210 -210.5t-265 -79.5q-178 0 -279.5 110.5t-101.5 298.5q0 193 82.5 357.5t223.5 260t306 95.5
q133 0 213 -60.5t80 -160.5zM684 1077q-118 0 -219 -77t-163 -210t-71 -292q296 46 468.5 149.5t172.5 253.5q0 78 -52 127t-136 49z" />
    <glyph glyph-name="Edotaccent" unicode="&#x116;" horiz-adv-x="1472" 
d="M918 1665q-41 0 -68 26t-27 66q0 43 30.5 74t74.5 31q41 0 67.5 -27t26.5 -66q0 -44 -30 -74t-74 -30zM932 1470h-330l-121 -692h209q64 0 105.5 13.5t78 52t64.5 103t59 171.5h4q-76 -380 -127 -721h-4q7 79 7 113q0 79 -10.5 128t-35.5 75.5t-58 35.5t-87 9h-209
l-98 -561q-10 -58 -10 -86q0 -52 25 -71.5t89 -19.5h265q88 0 150 10.5t125.5 40.5t117.5 86.5t113 145.5t126 221l4 -2l-262 -532q-108 10 -331 10h-793v4q123 3 172.5 43.5t69.5 157.5l190 1081q8 41 8 82q0 65 -39 90.5t-139 28.5v4h744q220 0 327 10l62 -512l-4 -2
q-15 107 -34.5 184t-48.5 131t-61.5 86.5t-82.5 51t-102 24.5t-128 6z" />
    <glyph glyph-name="edotaccent" unicode="&#x117;" horiz-adv-x="1067" 
d="M756 1384q-40 0 -67 26.5t-27 66.5q0 44 31 74t75 30q41 0 67.5 -26.5t26.5 -65.5q0 -45 -30 -75t-76 -30zM551 72q98 0 206.5 55t184.5 145l4 -2q-80 -131 -210 -210.5t-265 -79.5q-178 0 -279.5 110.5t-101.5 298.5q0 193 82.5 357.5t223.5 260t306 95.5
q133 0 213 -60.5t80 -160.5q0 -106 -100 -190.5t-270.5 -137t-395.5 -74.5v-30q0 -173 85.5 -275t236.5 -102zM684 1077q-118 0 -219 -77t-163 -210t-71 -292q296 46 468.5 149.5t172.5 253.5q0 78 -52 127t-136 49z" />
    <glyph glyph-name="Eogonek" unicode="&#x118;" horiz-adv-x="1472" 
d="M932 1470h-330l-121 -692h209q64 0 105.5 13.5t78 52t64.5 103t59 171.5h4q-76 -380 -127 -721h-4q7 79 7 113q0 79 -10.5 128t-35.5 75.5t-58 35.5t-87 9h-209l-98 -561q-10 -58 -10 -86q0 -52 25 -71.5t89 -19.5h265q88 0 150 10.5t125.5 40.5t117.5 86.5t113 145.5
t126 221l4 -2l-262 -532q-49 5 -125 8q-108 -64 -174.5 -146.5t-66.5 -150.5q0 -37 24.5 -59.5t65.5 -22.5q39 0 80 16t69 39l2 -4q-94 -90 -204 -90q-66 0 -107 31.5t-41 83.5q0 79 93 162t249 141q-49 2 -196 2h-793v4q123 3 172.5 43.5t69.5 157.5l190 1081q8 41 8 82
q0 65 -39 90.5t-139 28.5v4h744q220 0 327 10l62 -512l-4 -2q-15 107 -34.5 184t-48.5 131t-61.5 86.5t-82.5 51t-102 24.5t-128 6z" />
    <glyph glyph-name="eogonek" unicode="&#x119;" horiz-adv-x="1067" 
d="M551 72q98 0 206.5 55t184.5 145l4 -2q-85 -136 -215 -213q-128 -119 -191 -205.5t-63 -150.5q0 -37 24.5 -59.5t65.5 -22.5q39 0 80.5 16t69.5 39l2 -4q-94 -90 -205 -90q-66 0 -106.5 31.5t-40.5 83.5q0 130 292 325q-90 -40 -188 -40q-178 0 -279.5 110.5
t-101.5 298.5q0 193 82.5 357.5t223.5 260t306 95.5q133 0 213 -60.5t80 -160.5q0 -106 -100 -190.5t-270.5 -137t-395.5 -74.5v-30q0 -173 85.5 -275t236.5 -102zM684 1077q-118 0 -219 -77t-163 -210t-71 -292q296 46 468.5 149.5t172.5 253.5q0 78 -52 127t-136 49z" />
    <glyph glyph-name="Ecaron" unicode="&#x11a;" horiz-adv-x="1472" 
d="M895 1604h-2l-221 262l2 4l244 -137l290 137v-4zM932 1470h-330l-121 -692h209q64 0 105.5 13.5t78 52t64.5 103t59 171.5h4q-76 -380 -127 -721h-4q7 79 7 113q0 79 -10.5 128t-35.5 75.5t-58 35.5t-87 9h-209l-98 -561q-10 -58 -10 -86q0 -52 25 -71.5t89 -19.5h265
q88 0 150 10.5t125.5 40.5t117.5 86.5t113 145.5t126 221l4 -2l-262 -532q-108 10 -331 10h-793v4q123 3 172.5 43.5t69.5 157.5l190 1081q8 41 8 82q0 65 -39 90.5t-139 28.5v4h744q220 0 327 10l62 -512l-4 -2q-15 107 -34.5 184t-48.5 131t-61.5 86.5t-82.5 51t-102 24.5
t-128 6z" />
    <glyph glyph-name="ecaron" unicode="&#x11b;" horiz-adv-x="1067" 
d="M719 1231h-2l-211 346l4 4l233 -205l304 205l2 -4zM995 881q0 -106 -100 -190.5t-270.5 -137t-395.5 -74.5v-30q0 -173 85.5 -275t236.5 -102q98 0 206.5 55t184.5 145l4 -2q-80 -131 -210 -210.5t-265 -79.5q-178 0 -279.5 110.5t-101.5 298.5q0 193 82.5 357.5
t223.5 260t306 95.5q133 0 213 -60.5t80 -160.5zM684 1077q-118 0 -219 -77t-163 -210t-71 -292q296 46 468.5 149.5t172.5 253.5q0 78 -52 127t-136 49z" />
    <glyph glyph-name="Gbreve" unicode="&#x11e;" horiz-adv-x="1544" 
d="M989 1604q-82 0 -147.5 69.5t-83.5 188.5l2 2q44 -66 109.5 -104t140.5 -38q76 0 154.5 38t144.5 104l4 -2q-61 -120 -151 -189t-173 -69zM918 668h600v-4q-114 -3 -159.5 -42.5t-64.5 -154.5l-61 -356q-54 -6 -166 -48q-217 -83 -369 -83q-258 0 -406.5 156.5
t-148.5 424.5q0 156 41.5 301t118 262t178.5 204.5t229.5 135t264.5 47.5q74 0 137 -18.5t111 -37.5t84 -19q29 0 50.5 13.5t49.5 51.5h4l-41 -522h-4q3 234 -103.5 371t-291.5 137q-181 0 -337.5 -131.5t-248.5 -354t-92 -479.5q0 -239 109 -378.5t300 -139.5
q98 0 205.5 44.5t196.5 119.5l45 254q8 49 8 92q0 83 -52.5 115t-186.5 35v4z" />
    <glyph glyph-name="gbreve" unicode="&#x11f;" horiz-adv-x="1165" 
d="M784 1237q-89 0 -149 92.5t-72 249.5l4 2q26 -102 91.5 -164.5t146.5 -62.5t168 62.5t149 164.5l4 -2q-66 -156 -159 -249t-183 -93zM922 1038q113 25 168 64h4l-127 -709q-38 -207 -114.5 -365.5t-181.5 -258t-232 -149.5t-273 -50q-56 0 -90.5 24t-34.5 60q0 21 10 41
l486 2q272 168 313 575l61 527q-152 -422 -292 -620.5t-308 -198.5q-105 0 -165 85t-60 232q0 213 78.5 398t215.5 296t298 111q141 0 244 -64zM369 61q134 0 270 213t291 637l4 25q-31 65 -95.5 102t-146.5 37q-128 0 -236 -101t-169.5 -268t-61.5 -358q0 -139 37 -213
t107 -74z" />
    <glyph glyph-name="Gdotaccent" unicode="&#x120;" horiz-adv-x="1544" 
d="M1014 1665q-40 0 -67 26t-27 66q0 43 31 74t75 31q39 0 65.5 -27t26.5 -66q0 -45 -29.5 -74.5t-74.5 -29.5zM918 668h600v-4q-114 -3 -159.5 -42.5t-64.5 -154.5l-61 -356q-54 -6 -166 -48q-217 -83 -369 -83q-258 0 -406.5 156.5t-148.5 424.5q0 156 41.5 301t118 262
t178.5 204.5t229.5 135t264.5 47.5q74 0 137 -18.5t111 -37.5t84 -19q29 0 50.5 13.5t49.5 51.5h4l-41 -522h-4q3 234 -103.5 371t-291.5 137q-181 0 -337.5 -131.5t-248.5 -354t-92 -479.5q0 -239 109 -378.5t300 -139.5q98 0 205.5 44.5t196.5 119.5l45 254q8 49 8 92
q0 83 -52.5 115t-186.5 35v4z" />
    <glyph glyph-name="gdotaccent" unicode="&#x121;" horiz-adv-x="1165" 
d="M823 1384q-40 0 -67 26.5t-27 66.5q0 44 31 74t74 30q41 0 67.5 -26.5t26.5 -65.5q0 -44 -30.5 -74.5t-74.5 -30.5zM1090 1102h4l-127 -709q-38 -207 -114.5 -365.5t-181.5 -258t-232 -149.5t-273 -50q-56 0 -90.5 24t-34.5 60q0 21 10 41l486 2q272 168 313 575l61 527
q-152 -422 -292 -620.5t-308 -198.5q-105 0 -165 85t-60 232q0 213 78.5 398t215.5 296t298 111q141 0 244 -64q113 25 168 64zM369 61q134 0 270 213t291 637l4 25q-31 65 -95.5 102t-146.5 37q-128 0 -236 -101t-169.5 -268t-61.5 -358q0 -139 37 -213t107 -74z" />
    <glyph glyph-name="uni0122" unicode="&#x122;" horiz-adv-x="1544" 
d="M918 668h600v-4q-114 -3 -159.5 -42.5t-64.5 -154.5l-61 -356q-54 -6 -166 -48q-217 -83 -369 -83q-258 0 -406.5 156.5t-148.5 424.5q0 156 41.5 301t118 262t178.5 204.5t229.5 135t264.5 47.5q74 0 137 -18.5t111 -37.5t84 -19q29 0 50.5 13.5t49.5 51.5h4l-41 -522
h-4q3 234 -103.5 371t-291.5 137q-181 0 -337.5 -131.5t-248.5 -354t-92 -479.5q0 -239 109 -378.5t300 -139.5q98 0 205.5 44.5t196.5 119.5l45 254q8 49 8 92q0 83 -52.5 115t-186.5 35v4zM690 -74q49 0 76 -29t27 -79q0 -76 -62 -145t-158 -103l-2 4q51 26 85 71.5
t34 84.5q0 33 -27 52.5t-73 24.5q-6 9 -6 29q0 37 31.5 63.5t74.5 26.5z" />
    <glyph glyph-name="uni0123" unicode="&#x123;" horiz-adv-x="1165" 
d="M803 1251q-47 0 -75 29.5t-28 79.5q0 78 63 151.5t159 108.5v-4q-50 -29 -84.5 -76.5t-34.5 -87.5q0 -35 28 -57t72 -25q8 -16 8 -31q0 -35 -32 -61.5t-76 -26.5zM1090 1102h4l-127 -709q-38 -207 -114.5 -365.5t-181.5 -258t-232 -149.5t-273 -50q-56 0 -90.5 24
t-34.5 60q0 21 10 41l486 2q272 168 313 575l61 527q-152 -422 -292 -620.5t-308 -198.5q-105 0 -165 85t-60 232q0 213 78.5 398t215.5 296t298 111q141 0 244 -64q113 25 168 64zM369 61q134 0 270 213t291 637l4 25q-31 65 -95.5 102t-146.5 37q-128 0 -236 -101
t-169.5 -268t-61.5 -358q0 -139 37 -213t107 -74z" />
    <glyph glyph-name="Hbar" unicode="&#x126;" horiz-adv-x="1638" 
d="M1712 1487q-124 -3 -173 -43.5t-69 -157.5l-24 -139h188l-8 -21h-184l-162 -921q-8 -44 -8 -82q0 -66 39 -91t139 -28v-4h-551v4q123 3 172.5 43.5t69.5 157.5l98 553h-762l-98 -553q-8 -44 -8 -82q0 -66 39 -91t139 -28v-4h-551v4q123 3 172.5 43.5t69.5 157.5l161 921
h-168l9 21h164l24 139q8 41 8 82q0 65 -38.5 90.5t-139.5 28.5v4h553v-4q-125 -3 -174.5 -43.5t-69.5 -157.5l-24 -139h762l24 139q8 41 8 82q0 65 -39 90.5t-139 28.5v4h551v-4zM1241 778l62 348h-762l-62 -348h762z" />
    <glyph glyph-name="hbar" unicode="&#x127;" horiz-adv-x="1234" 
d="M1161 340l4 -2q-58 -178 -126.5 -268t-141.5 -90q-109 0 -109 100q0 6 5 41l139 790q4 23 4 37q0 70 -64 70q-30 0 -67.5 -19.5t-95.5 -77.5t-123.5 -149t-154 -249t-183.5 -363l-27 -160h-129l221 1249h-174l8 21h168l19 100q10 58 -22 80.5t-140 36.5v4q182 48 328 127
h4l-62 -348h332l-8 -21h-328l-176 -1007q93 214 183.5 375t160 251t136 145t110 72t84.5 17q63 0 97 -33t34 -96q0 -26 -4 -51l-135 -770q-4 -23 -4 -41q0 -24 9 -33.5t28 -9.5q80 0 200 272z" />
    <glyph glyph-name="Imacron" unicode="&#x12a;" horiz-adv-x="735" 
d="M336 1716h483l-8 -20h-483zM260 1487v4h551v-4q-123 -3 -172.5 -43.5t-69.5 -157.5l-190 -1081q-8 -44 -8 -82q0 -66 39 -91t139 -28v-4h-551v4q123 3 172.5 43.5t69.5 157.5l190 1081q8 41 8 82q0 65 -39 90.5t-139 28.5z" />
    <glyph glyph-name="imacron" unicode="&#x12b;" horiz-adv-x="622" 
d="M240 1481h485l-8 -21h-486zM344 68q81 0 201 272l4 -2q-58 -178 -126.5 -268t-141.5 -90q-109 0 -109 100q0 13 4 41l146 809q4 23 4 41q0 24 -9 33.5t-28 9.5q-81 0 -201 -273l-4 2q58 178 126.5 268.5t141.5 90.5q52 0 80.5 -25.5t28.5 -75.5q0 -12 -4 -40l-146 -809
q-4 -23 -4 -41q0 -24 9 -33.5t28 -9.5z" />
    <glyph glyph-name="Iogonek" unicode="&#x12e;" horiz-adv-x="735" 
d="M260 1491h551v-4q-123 -3 -172.5 -43.5t-69.5 -157.5l-190 -1081q-8 -44 -8 -82q0 -66 39 -91t139 -28v-4h-47q-110 -64 -179 -147.5t-69 -151.5q0 -37 25 -59.5t67 -22.5q39 0 79.5 16t68.5 39l2 -4q-90 -90 -205 -90q-66 0 -106 31.5t-40 83.5q0 80 94 163.5t253 141.5
h-494v4q123 3 172.5 43.5t69.5 157.5l190 1081q8 41 8 82q0 65 -39 90.5t-139 28.5v4z" />
    <glyph glyph-name="iogonek" unicode="&#x12f;" horiz-adv-x="622" 
d="M489 1581q41 0 68 -26.5t27 -65.5q0 -44 -30.5 -74.5t-76.5 -30.5q-40 0 -67 26.5t-27 66.5q0 44 31 74t75 30zM549 338q-80 -251 -187 -330q-178 -198 -178 -307q0 -37 24.5 -59.5t65.5 -22.5q84 0 150 55l2 -4q-94 -90 -205 -90q-66 0 -106.5 31.5t-40.5 83.5
q0 68 67 145t172 144q-20 -4 -32 -4q-109 0 -109 100q0 13 4 41l146 809q4 23 4 41q0 24 -9 33.5t-28 9.5q-81 0 -201 -273l-4 2q58 178 126.5 268.5t141.5 90.5q52 0 80.5 -25.5t28.5 -75.5q0 -12 -4 -40l-146 -809q-4 -23 -4 -41q0 -24 9 -33.5t28 -9.5q81 0 201 272z" />
    <glyph glyph-name="Idotaccent" unicode="&#x130;" horiz-adv-x="735" 
d="M580 1665q-40 0 -67.5 26.5t-27.5 65.5q0 43 31.5 74t75.5 31q41 0 67.5 -27t26.5 -66q0 -44 -30 -74t-76 -30zM260 1491h551v-4q-123 -3 -172.5 -43.5t-69.5 -157.5l-190 -1081q-8 -44 -8 -82q0 -66 39 -91t139 -28v-4h-551v4q123 3 172.5 43.5t69.5 157.5l190 1081
q8 41 8 82q0 65 -39 90.5t-139 28.5v4z" />
    <glyph glyph-name="dotlessi" unicode="&#x131;" horiz-adv-x="622" 
d="M545 340l4 -2q-58 -178 -126.5 -268t-141.5 -90q-109 0 -109 100q0 13 4 41l146 809q4 23 4 41q0 24 -9 33.5t-28 9.5q-81 0 -201 -273l-4 2q58 178 126.5 268.5t141.5 90.5q52 0 80.5 -25.5t28.5 -75.5q0 -12 -4 -40l-146 -809q-4 -23 -4 -41q0 -24 9 -33.5t28 -9.5
q81 0 201 272z" />
    <glyph glyph-name="IJ" unicode="&#x132;" horiz-adv-x="1486" 
d="M811 1491v-4q-123 -3 -172.5 -43.5t-69.5 -157.5l-190 -1081q-8 -44 -8 -82q0 -66 39 -91t139 -28v-4h-551v4q123 3 172.5 43.5t69.5 157.5l190 1081q8 41 8 82q0 65 -39 90.5t-139 28.5v4h551zM1032 1491h551v-4q-124 -3 -174 -44t-70 -157l-165 -952
q-32 -186 -152 -340t-281 -219l-2 4q107 79 181.5 208t103.5 292l176 1007q10 52 10 80q0 67 -39.5 92.5t-138.5 28.5v4z" />
    <glyph glyph-name="ij" unicode="&#x133;" horiz-adv-x="1157" 
d="M477 1384q-40 0 -67 26.5t-27 66.5q0 44 31 74t75 30q41 0 68 -26.5t27 -65.5q0 -44 -30.5 -74.5t-76.5 -30.5zM1083 1581q41 0 68 -26.5t27 -65.5q0 -44 -30.5 -74.5t-74.5 -30.5q-40 0 -67 26.5t-27 66.5q0 44 30.5 74t73.5 30zM545 340l4 -2q-58 -178 -126.5 -268
t-141.5 -90q-109 0 -109 100q0 13 4 41l146 809q4 23 4 41q0 24 -9 33.5t-28 9.5q-81 0 -201 -273l-4 2q58 178 126.5 268.5t141.5 90.5q52 0 80.5 -25.5t28.5 -75.5q0 -12 -4 -40l-146 -809q-4 -23 -4 -41q0 -24 9 -33.5t28 -9.5q81 0 201 272zM948 1102q52 0 80.5 -25.5
t28.5 -75.5q0 -19 -6 -40l-152 -852q-35 -197 -142 -345t-249 -194l-2 4q96 69 162 194t94 285l153 877q5 29 5 41q0 24 -9 33.5t-28 9.5q-38 0 -89.5 -68.5t-111.5 -204.5l-4 2q58 177 127.5 268t142.5 91z" />
    <glyph glyph-name="uni0136" unicode="&#x136;" horiz-adv-x="1511" 
d="M371 123q0 -66 39 -91t139 -28v-4h-551v4q123 3 172.5 43.5t69.5 157.5l190 1081q8 41 8 82q0 65 -39 90.5t-139 28.5v4h551v-4q-123 -3 -172.5 -43.5t-69.5 -157.5l-190 -1081q-8 -44 -8 -82zM1552 1487q-67 0 -130 -33.5t-179 -126.5l-553 -453q208 -359 333 -541
t211.5 -254t176.5 -75v-4h-199q-48 0 -90 14.5t-89 54.5t-92 94.5t-106.5 150t-125 204t-154.5 273.5l543 442q80 65 115.5 105.5t35.5 70.5q0 38 -46 55.5t-148 22.5v4h497v-4zM690 -74q49 0 76 -29t27 -79q0 -76 -62 -145t-158 -103l-2 4q51 26 85 71.5t34 84.5
q0 33 -27 52.5t-73 24.5q-6 9 -6 29q0 37 31.5 63.5t74.5 26.5z" />
    <glyph glyph-name="uni0137" unicode="&#x137;" horiz-adv-x="1165" 
d="M1104 328l4 -2q-42 -183 -109.5 -264.5t-150.5 -81.5q-86 0 -139 83l-351 492l84 10q217 35 339 118t122 191q0 71 -47 113.5t-125 42.5q-92 0 -191 -60t-178 -165l-141 -805h-129l244 1370q9 58 -22.5 80.5t-139.5 36.5v4q182 48 328 127h4l-137 -776q85 120 199 190
t223 70q114 0 182.5 -56.5t68.5 -148.5q0 -115 -139 -207.5t-371 -132.5l267 -381q33 -47 58.5 -67.5t55.5 -20.5q51 0 97.5 54t93.5 186zM446 -74q49 0 77 -29t28 -79q0 -76 -61.5 -145t-157.5 -103l-2 4q50 26 84.5 71.5t34.5 84.5q0 33 -28 52.5t-75 24.5q-6 9 -6 29
q0 37 31.5 63.5t74.5 26.5z" />
    <glyph glyph-name="Lacute" unicode="&#x139;" horiz-adv-x="1357" 
d="M791 1712q-68 -32 -383 -108l-2 4q201 198 315 252q17 10 41 10q35 0 58.5 -24t23.5 -58q0 -24 -14.5 -45t-38.5 -31zM1307 524l4 -2l-262 -532q-107 10 -326 10h-725v4q123 3 172.5 43.5t69.5 157.5l190 1081q8 41 8 82q0 65 -39 90.5t-139 28.5v4h588v-4
q-146 -5 -203 -50t-80 -175l-186 -1065q-12 -53 -12 -88q0 -50 24.5 -69.5t85.5 -19.5h203q72 0 124 6.5t107 25.5t100 53.5t94 90.5t98 136.5t104 191.5z" />
    <glyph glyph-name="lacute" unicode="&#x13a;" horiz-adv-x="571" 
d="M670 1939q34 0 57 -23.5t23 -57.5q0 -24 -14 -45t-38 -31q-75 -34 -385 -109l-2 4q203 198 318 252q17 10 41 10zM516 1618l-260 -1466q-2 -23 -2 -41q0 -24 8 -33.5t29 -9.5q78 0 201 272l4 -2q-57 -177 -127.5 -267.5t-143.5 -90.5q-108 0 -108 100q0 13 4 41l223 1249
q10 58 -21 80.5t-139 36.5v4q176 46 328 127h4z" />
    <glyph glyph-name="uni013B" unicode="&#x13b;" horiz-adv-x="1357" 
d="M1307 524l4 -2l-262 -532q-107 10 -326 10h-725v4q123 3 172.5 43.5t69.5 157.5l190 1081q8 41 8 82q0 65 -39 90.5t-139 28.5v4h588v-4q-146 -5 -203 -50t-80 -175l-186 -1065q-12 -53 -12 -88q0 -50 24.5 -69.5t85.5 -19.5h203q72 0 124 6.5t107 25.5t100 53.5t94 90.5
t98 136.5t104 191.5zM535 -74q49 0 76.5 -29t27.5 -79q0 -76 -62.5 -145t-158.5 -103l-2 4q52 26 86.5 71.5t34.5 84.5q0 33 -28 52.5t-75 24.5q-6 9 -6 29q0 37 32 63.5t75 26.5z" />
    <glyph glyph-name="uni013C" unicode="&#x13c;" horiz-adv-x="571" 
d="M291 68q78 0 201 272l4 -2q-57 -177 -127.5 -267.5t-143.5 -90.5q-108 0 -108 100q0 13 4 41l223 1249q10 58 -21 80.5t-139 36.5v4q176 46 328 127h4l-260 -1466q-2 -23 -2 -41q0 -24 8 -33.5t29 -9.5zM137 -74q49 0 76 -29t27 -79q0 -76 -62 -145t-158 -103l-2 4
q51 26 85 71.5t34 84.5q0 33 -27 52.5t-73 24.5q-6 9 -6 29q0 37 31.5 63.5t74.5 26.5z" />
    <glyph glyph-name="Lcaron" unicode="&#x13d;" horiz-adv-x="1359" 
d="M1024 1163q54 41 88.5 101t34.5 110q0 43 -25 73t-69 36q-11 26 -11 39q0 40 33.5 72t77.5 32q49 0 78 -34t29 -91q0 -93 -66.5 -190.5t-167.5 -151.5zM1307 524l4 -2l-262 -532q-107 10 -326 10h-725v4q123 3 172.5 43.5t69.5 157.5l190 1081q8 41 8 82q0 65 -39 90.5
t-139 28.5v4h588v-4q-146 -5 -203 -50t-80 -175l-186 -1065q-12 -53 -12 -88q0 -50 24.5 -69.5t85.5 -19.5h203q72 0 124 6.5t107 25.5t100 53.5t94 90.5t98 136.5t104 191.5z" />
    <glyph glyph-name="lcaron" unicode="&#x13e;" horiz-adv-x="585" 
d="M727 1626q49 0 78 -34t29 -91q0 -93 -66.5 -190.5t-167.5 -151.5l-2 4q54 41 88.5 101t34.5 110q0 43 -25 73t-69 36q-11 26 -11 39q0 40 33.5 72t77.5 32zM516 1618l-260 -1466q-2 -23 -2 -41q0 -24 8 -33.5t29 -9.5q78 0 201 272l4 -2q-57 -177 -127.5 -267.5
t-143.5 -90.5q-108 0 -108 100q0 13 4 41l223 1249q10 58 -21 80.5t-139 36.5v4q176 46 328 127h4z" />
    <glyph glyph-name="Lslash" unicode="&#x141;" horiz-adv-x="1380" 
d="M1329 524l4 -2l-264 -532q-105 10 -324 10h-727v4q125 3 174.5 43.5t69.5 157.5l80 454l-199 -102l-10 21l215 110l105 598q8 41 8 82q0 65 -39 90.5t-139 28.5v4h587v-4q-147 -4 -203 -49t-81 -176l-88 -502l383 196l10 -20l-397 -205l-95 -534q-10 -58 -10 -88
q0 -50 25 -69.5t86 -19.5h202q86 0 146 10t123.5 39.5t117.5 85.5t113.5 146t126.5 223z" />
    <glyph glyph-name="lslash" unicode="&#x142;" horiz-adv-x="669" 
d="M336 68q38 0 89.5 68t111.5 204l4 -2q-58 -178 -127 -268t-144 -90q-106 0 -106 100q0 13 4 41l119 672l-178 -121l-11 16l193 131l98 551q10 58 -21 80.5t-139 36.5v4q176 46 328 127h4l-127 -719l191 129l10 -18l-205 -138l-127 -720q-4 -23 -4 -41q0 -24 9 -33.5
t28 -9.5z" />
    <glyph glyph-name="Nacute" unicode="&#x143;" horiz-adv-x="1548" 
d="M1200 1712q-68 -32 -383 -108l-2 4q201 198 315 252q18 10 41 10q35 0 58.5 -24t23.5 -58q0 -24 -14.5 -45t-38.5 -31zM1122 1491h520v-4q-123 -3 -172 -43.5t-69 -157.5l-232 -1306h-4l-708 1333l-189 -1067q-8 -47 -8 -88q0 -86 57 -118.5t201 -35.5v-4h-520v4
q123 3 172.5 43.5t69.5 157.5l198 1124q6 41 6 53q0 58 -40 80t-144 25v4h279l653 -1262l180 1016q8 47 8 90q0 84 -57 116.5t-201 35.5v4z" />
    <glyph glyph-name="nacute" unicode="&#x144;" horiz-adv-x="1302" 
d="M942 1427q-105 -64 -371 -153l-2 4q174 203 281 285q26 20 51 20q31 0 57.5 -25t26.5 -57q0 -46 -43 -74zM1229 340l4 -2q-58 -178 -126.5 -268t-141.5 -90q-109 0 -109 100q0 13 4 41l139 790q5 29 5 37q0 70 -64 70q-30 0 -67.5 -19.5t-96 -77.5t-124 -149t-154 -249
t-183.5 -363l-28 -160h-129l166 930q4 23 4 41q0 24 -9 33.5t-28 9.5q-81 0 -201 -273l-4 2q58 178 126.5 268.5t141.5 90.5q52 0 80.5 -25.5t28.5 -75.5q0 -12 -4 -40l-129 -719q93 214 183.5 375t160 251t136 145t110 72t84.5 17q63 0 97 -33t34 -96q0 -20 -5 -51
l-135 -770q-4 -23 -4 -41q0 -24 9 -33.5t28 -9.5q38 0 89.5 68t111.5 204z" />
    <glyph glyph-name="uni0145" unicode="&#x145;" horiz-adv-x="1548" 
d="M1122 1491h520v-4q-123 -3 -172 -43.5t-69 -157.5l-232 -1306h-4l-708 1333l-189 -1067q-8 -47 -8 -88q0 -86 57 -118.5t201 -35.5v-4h-520v4q123 3 172.5 43.5t69.5 157.5l198 1124q6 41 6 53q0 58 -40 80t-144 25v4h279l653 -1262l180 1016q8 47 8 90q0 84 -57 116.5
t-201 35.5v4zM662 -74q49 0 75.5 -29t26.5 -79q0 -76 -61.5 -145t-157.5 -103l-2 4q51 26 85 71.5t34 84.5q0 33 -27.5 52.5t-73.5 24.5q-6 9 -6 29q0 37 32 63.5t75 26.5z" />
    <glyph glyph-name="uni0146" unicode="&#x146;" horiz-adv-x="1302" 
d="M1229 340l4 -2q-58 -178 -126.5 -268t-141.5 -90q-109 0 -109 100q0 13 4 41l139 790q5 29 5 37q0 70 -64 70q-30 0 -67.5 -19.5t-96 -77.5t-124 -149t-154 -249t-183.5 -363l-28 -160h-129l166 930q4 23 4 41q0 24 -9 33.5t-28 9.5q-81 0 -201 -273l-4 2
q58 178 126.5 268.5t141.5 90.5q52 0 80.5 -25.5t28.5 -75.5q0 -12 -4 -40l-129 -719q93 214 183.5 375t160 251t136 145t110 72t84.5 17q63 0 97 -33t34 -96q0 -20 -5 -51l-135 -770q-4 -23 -4 -41q0 -24 9 -33.5t28 -9.5q38 0 89.5 68t111.5 204zM530 -74q49 0 76 -29
t27 -79q0 -76 -61.5 -145t-157.5 -103l-2 4q51 26 84.5 71.5t33.5 84.5q0 33 -27 52.5t-73 24.5q-6 9 -6 29q0 37 31.5 63.5t74.5 26.5z" />
    <glyph glyph-name="Ncaron" unicode="&#x147;" horiz-adv-x="1548" 
d="M967 1604h-2l-222 262l2 4l244 -137l289 137v-4zM1122 1491h520v-4q-123 -3 -172 -43.5t-69 -157.5l-232 -1306h-4l-708 1333l-189 -1067q-8 -47 -8 -88q0 -86 57 -118.5t201 -35.5v-4h-520v4q123 3 172.5 43.5t69.5 157.5l198 1124q6 41 6 53q0 58 -40 80t-144 25v4h279
l653 -1262l180 1016q8 47 8 90q0 84 -57 116.5t-201 35.5v4z" />
    <glyph glyph-name="ncaron" unicode="&#x148;" horiz-adv-x="1302" 
d="M778 1231h-2l-211 346l4 4l234 -205l303 205l2 -4zM1229 340l4 -2q-58 -178 -126.5 -268t-141.5 -90q-109 0 -109 100q0 13 4 41l139 790q5 29 5 37q0 70 -64 70q-30 0 -67.5 -19.5t-96 -77.5t-124 -149t-154 -249t-183.5 -363l-28 -160h-129l166 930q4 23 4 41
q0 24 -9 33.5t-28 9.5q-81 0 -201 -273l-4 2q58 178 126.5 268.5t141.5 90.5q52 0 80.5 -25.5t28.5 -75.5q0 -12 -4 -40l-129 -719q93 214 183.5 375t160 251t136 145t110 72t84.5 17q63 0 97 -33t34 -96q0 -20 -5 -51l-135 -770q-4 -23 -4 -41q0 -24 9 -33.5t28 -9.5
q38 0 89.5 68t111.5 204z" />
    <glyph glyph-name="Eng" unicode="&#x14a;" horiz-adv-x="1548" 
d="M1122 1491h523v-4q-125 -3 -174.5 -43.5t-69.5 -157.5l-184 -1040q-28 -155 -127.5 -283.5t-235.5 -187.5l-2 4q78 40 144.5 104.5t111.5 139.5l-651 1290l-189 -1067q-8 -47 -8 -88q0 -86 57 -118.5t201 -35.5v-4h-520v4q123 3 172.5 43.5t69.5 157.5l198 1124
q6 41 6 53q0 58 -40 80t-144 25v4h279l643 -1307q5 16 14 62l176 999q8 47 8 90q0 84 -57 116.5t-201 35.5v4z" />
    <glyph glyph-name="eng" unicode="&#x14b;" horiz-adv-x="1241" 
d="M1004 1102q63 0 97 -33t34 -96q0 -20 -5 -51l-143 -813q-35 -199 -142.5 -346t-250.5 -193l-2 4q96 68 162 193t94 286l151 858q5 29 5 37q0 70 -64 70q-30 0 -67.5 -20t-96.5 -78t-124.5 -149t-153.5 -249t-183 -362l-28 -160h-129l166 930q4 23 4 41q0 24 -9 33.5
t-28 9.5q-81 0 -201 -273l-4 2q58 178 126.5 268.5t141.5 90.5q52 0 80.5 -25.5t28.5 -75.5q0 -12 -4 -40l-129 -715q91 213 180 373t157.5 249.5t135.5 144.5t112.5 72t88.5 17z" />
    <glyph glyph-name="Omacron" unicode="&#x14c;" horiz-adv-x="1583" 
d="M696 1696l9 20h591l-8 -20h-592zM694 -20q-257 0 -404 156t-147 423q0 195 64.5 371.5t174 303.5t261.5 202t320 75q257 0 403.5 -156.5t146.5 -424.5q0 -156 -41 -301t-116 -262t-175.5 -204.5t-226 -135t-260.5 -47.5zM698 4q132 0 255.5 79t213 210.5t143.5 309.5
t54 368q0 238 -107.5 377t-298.5 139q-177 0 -330.5 -133t-244 -356t-90.5 -478q0 -239 107.5 -377.5t297.5 -138.5z" />
    <glyph glyph-name="omacron" unicode="&#x14d;" horiz-adv-x="1204" 
d="M463 1460l8 21h596l-8 -21h-596zM506 -20q-192 0 -302 115t-110 311q0 192 81 352t221.5 252t308.5 92q192 0 300.5 -115.5t108.5 -310.5q0 -192 -80 -351.5t-220 -252t-308 -92.5zM510 4q122 0 230.5 100t172.5 265t64 348q0 166 -73.5 263t-203.5 97
q-122 0 -230.5 -99.5t-172.5 -263.5t-64 -347q0 -167 73.5 -265t203.5 -98z" />
    <glyph glyph-name="Ohungarumlaut" unicode="&#x150;" horiz-adv-x="1583" 
d="M750 1593l-2 4q170 230 272 299q30 19 49 19q31 0 55.5 -24.5t24.5 -57.5q0 -47 -41 -72q-53 -40 -358 -168zM1083 1593l-2 4q88 118 159.5 194t113.5 105q30 19 49 19q31 0 56.5 -24.5t25.5 -57.5q0 -43 -41 -72q-61 -44 -361 -168zM694 -20q-257 0 -404 156t-147 423
q0 195 64.5 371.5t174 303.5t261.5 202t320 75q257 0 403.5 -156.5t146.5 -424.5q0 -156 -41 -301t-116 -262t-175.5 -204.5t-226 -135t-260.5 -47.5zM698 4q132 0 255.5 79t213 210.5t143.5 309.5t54 368q0 238 -107.5 377t-298.5 139q-177 0 -330.5 -133t-244 -356
t-90.5 -478q0 -239 107.5 -377.5t297.5 -138.5z" />
    <glyph glyph-name="ohungarumlaut" unicode="&#x151;" horiz-adv-x="1204" 
d="M543 1239l-2 4q157 262 227 332q30 27 63 27q31 0 55.5 -23t24.5 -55q0 -40 -28 -68q-68 -65 -340 -217zM836 1239l-2 4q151 252 227 332q30 27 63 27q31 0 55.5 -23t24.5 -55q0 -40 -28 -68q-68 -65 -340 -217zM506 -20q-192 0 -302 115t-110 311q0 192 81 352
t221.5 252t308.5 92q192 0 300.5 -115.5t108.5 -310.5q0 -192 -80 -351.5t-220 -252t-308 -92.5zM510 4q122 0 230.5 100t172.5 265t64 348q0 166 -73.5 263t-203.5 97q-122 0 -230.5 -99.5t-172.5 -263.5t-64 -347q0 -167 73.5 -265t203.5 -98z" />
    <glyph glyph-name="OE" unicode="&#x152;" horiz-adv-x="2347" 
d="M1808 1470h-333l-121 -692h211q61 0 100 11t77 46.5t68.5 103t61.5 179.5h4q-76 -380 -127 -721h-4q6 45 6 119q0 143 -41.5 192.5t-146.5 49.5h-213l-99 -561q-8 -47 -8 -82q0 -55 25.5 -75t89.5 -20h264q113 0 188.5 18t151 73t143 152.5t150.5 260.5l4 -2l-262 -532
q-107 10 -332 10h-905q-286 0 -450.5 157.5t-164.5 424.5q0 190 68 358.5t185 289t280 191t346 70.5h854q220 0 328 10l61 -512l-4 -2q-11 80 -24.5 143.5t-32.5 112.5t-39.5 85t-49.5 61t-59 41t-71.5 25t-82.5 12t-96 3zM1114 197l223 1273h-290q-205 0 -377.5 -122
t-272.5 -331.5t-100 -457.5q0 -249 132.5 -394t363.5 -145h184q63 0 90 35.5t47 141.5z" />
    <glyph glyph-name="oe" unicode="&#x153;" horiz-adv-x="1943" 
d="M1421 72q98 0 206.5 55t182.5 145l5 -2q-76 -130 -204.5 -210t-260.5 -80q-152 0 -246.5 84.5t-116.5 232.5q-81 -146 -209 -231.5t-276 -85.5q-191 0 -299.5 115.5t-108.5 312.5q0 190 80 349.5t219 252t305 92.5q159 0 258.5 -86.5t122.5 -239.5q81 150 211.5 238
t282.5 88q141 0 227 -63t86 -165q0 -104 -102 -187t-277 -134.5t-407 -73.5v-30q0 -173 85 -275t236 -102zM510 4q123 0 231 95.5t171 255t63 341.5q0 175 -73.5 278t-201.5 103q-123 0 -231.5 -95.5t-172 -255t-63.5 -339.5q0 -177 74 -280t203 -103zM1554 1077
q-118 0 -219 -77t-162.5 -210t-70.5 -292q306 46 482.5 148.5t176.5 250.5q0 82 -56.5 131t-150.5 49z" />
    <glyph glyph-name="Racute" unicode="&#x154;" horiz-adv-x="1499" 
d="M1102 1712q-68 -32 -383 -108l-2 4q201 198 315 252q18 10 41 10q35 0 58.5 -24t23.5 -58q0 -24 -14 -45t-39 -31zM954 725q111 -302 182.5 -452t131.5 -208t139 -61v-4h-170q-54 0 -96 26t-92.5 102t-107.5 215.5t-132 363.5h-35h-307l-82 -461q-10 -62 -10 -99
q0 -78 47.5 -109t163.5 -34v-4h-588v4q123 3 172.5 43.5t69.5 157.5l190 1081q8 41 8 82q0 65 -39 90.5t-139 28.5v4h741q177 0 279 -84.5t102 -228.5q0 -167 -117.5 -290t-310.5 -163zM760 727q202 0 335.5 131.5t133.5 331.5q0 130 -70 205t-194 75h-363l-131 -743h289z
" />
    <glyph glyph-name="racute" unicode="&#x155;" horiz-adv-x="915" 
d="M782 1427q-97 -61 -368 -153l-2 4q177 210 280 285q26 20 51 20q31 0 56.5 -25t25.5 -57q0 -49 -43 -74zM969 1014q0 -43 -27 -78h-262q-96 -145 -365 -776l-28 -160h-129l166 930q4 23 4 41q0 24 -9 33.5t-28 9.5q-81 0 -201 -273l-4 2q58 178 126.5 268.5t141.5 90.5
q52 0 80.5 -25.5t28.5 -75.5q0 -12 -4 -40l-127 -711q114 279 190 444t137 257t104.5 121.5t98.5 29.5q49 0 78 -24.5t29 -63.5z" />
    <glyph glyph-name="uni0156" unicode="&#x156;" horiz-adv-x="1499" 
d="M954 725q111 -302 182.5 -452t131.5 -208t139 -61v-4h-170q-54 0 -96 26t-92.5 102t-107.5 215.5t-132 363.5h-35h-307l-82 -461q-10 -62 -10 -99q0 -78 47.5 -109t163.5 -34v-4h-588v4q123 3 172.5 43.5t69.5 157.5l190 1081q8 41 8 82q0 65 -39 90.5t-139 28.5v4h741
q177 0 279 -84.5t102 -228.5q0 -167 -117.5 -290t-310.5 -163zM760 727q202 0 335.5 131.5t133.5 331.5q0 130 -70 205t-194 75h-363l-131 -743h289zM692 -74q49 0 76 -29t27 -79q0 -76 -62 -145t-158 -103l-2 4q51 26 85 71.5t34 84.5q0 33 -27 52.5t-73 24.5q-6 9 -6 29
q0 37 31.5 63.5t74.5 26.5z" />
    <glyph glyph-name="uni0157" unicode="&#x157;" horiz-adv-x="915" 
d="M969 1014q0 -43 -27 -78h-262q-96 -145 -365 -776l-28 -160h-129l166 930q4 23 4 41q0 24 -9 33.5t-28 9.5q-81 0 -201 -273l-4 2q58 178 126.5 268.5t141.5 90.5q52 0 80.5 -25.5t28.5 -75.5q0 -12 -4 -40l-127 -711q114 279 190 444t137 257t104.5 121.5t98.5 29.5
q49 0 78 -24.5t29 -63.5zM215 -74q49 0 75.5 -29t26.5 -79q0 -76 -61.5 -145t-157.5 -103l-2 4q51 26 85 71.5t34 84.5q0 33 -27 52.5t-73 24.5q-6 9 -6 29q0 37 31.5 63.5t74.5 26.5z" />
    <glyph glyph-name="Rcaron" unicode="&#x158;" horiz-adv-x="1499" 
d="M868 1604h-2l-221 262l2 4l244 -137l291 137v-4zM954 725q111 -302 182.5 -452t131.5 -208t139 -61v-4h-170q-54 0 -96 26t-92.5 102t-107.5 215.5t-132 363.5h-35h-307l-82 -461q-10 -62 -10 -99q0 -78 47.5 -109t163.5 -34v-4h-588v4q123 3 172.5 43.5t69.5 157.5
l190 1081q8 41 8 82q0 65 -39 90.5t-139 28.5v4h741q177 0 279 -84.5t102 -228.5q0 -167 -117.5 -290t-310.5 -163zM760 727q202 0 335.5 131.5t133.5 331.5q0 130 -70 205t-194 75h-363l-131 -743h289z" />
    <glyph glyph-name="rcaron" unicode="&#x159;" horiz-adv-x="915" 
d="M618 1231h-2l-208 346l4 4l233 -205l303 205l2 -4zM969 1014q0 -43 -27 -78h-262q-96 -145 -365 -776l-28 -160h-129l166 930q4 23 4 41q0 24 -9 33.5t-28 9.5q-81 0 -201 -273l-4 2q58 178 126.5 268.5t141.5 90.5q52 0 80.5 -25.5t28.5 -75.5q0 -12 -4 -40l-127 -711
q114 279 190 444t137 257t104.5 121.5t98.5 29.5q49 0 78 -24.5t29 -63.5z" />
    <glyph glyph-name="Sacute" unicode="&#x15a;" horiz-adv-x="1300" 
d="M662 1604l-3 4q200 197 316 252q17 10 41 10q35 0 58.5 -24t23.5 -58q0 -24 -14 -45t-40 -31q-69 -32 -382 -108zM553 -20q-72 0 -137 17t-113.5 34.5t-81.5 17.5q-27 0 -50 -12.5t-54 -46.5h-4l-11 530l4 2q24 -244 145 -381t302 -137q207 0 339 105.5t132 271.5
q0 46 -12.5 85t-39.5 70t-56 54t-75 45.5t-81.5 37t-91.5 34.5q-53 19 -87 32t-80.5 34.5t-76.5 41.5t-63 50t-51.5 62t-31 75t-12.5 92q0 184 142 300.5t366 116.5q68 0 131 -18.5t111 -36.5t78 -18q29 0 51 13t47 50h4l33 -502l-4 -2q-33 219 -161.5 354.5t-295.5 135.5
q-158 0 -262.5 -90.5t-104.5 -227.5q0 -42 11 -78.5t28.5 -64t47 -53t57 -43.5t68.5 -36.5t72.5 -30t76.5 -27.5q51 -17 85.5 -30.5t80 -34t76 -40.5t62.5 -49.5t51 -61.5t31.5 -74t12.5 -91q0 -210 -168.5 -342.5t-439.5 -132.5z" />
    <glyph glyph-name="sacute" unicode="&#x15b;" horiz-adv-x="1015" 
d="M791 1427q-96 -61 -371 -153l-2 4q181 211 282 285q26 20 52 20q30 0 56 -25t26 -57q0 -49 -43 -74zM827 692q-15 0 -30 6v312q-73 67 -228 67q-119 0 -195.5 -60t-76.5 -155q0 -37 16.5 -70.5t39 -57.5t63.5 -49.5t72 -41.5t83 -39q56 -26 88 -42t78 -45t71 -56
t43.5 -66.5t18.5 -83.5q0 -143 -125.5 -237t-320.5 -94q-175 0 -270 73.5t-95 200.5q0 68 31.5 117t73.5 49q5 0 29 -6v-342q74 -68 233 -68q142 0 232 67.5t90 170.5q0 37 -15.5 70t-36.5 55.5t-61.5 47.5t-69 39.5t-80.5 37.5q-39 18 -57 27t-53 27t-53 30.5t-45 32.5
t-41 38.5t-29 42t-21 50.5t-6 57q0 131 112 218t283 87q167 0 262 -71.5t95 -194.5q0 -63 -31 -103.5t-74 -40.5z" />
    <glyph glyph-name="Scedilla" unicode="&#x15e;" horiz-adv-x="1300" 
d="M768 1487q-158 0 -262.5 -90.5t-104.5 -227.5q0 -42 11 -78.5t28.5 -64t47 -53t57 -43.5t68.5 -36.5t72.5 -30t76.5 -27.5q51 -17 85.5 -30.5t80 -34t76 -40.5t62.5 -49.5t51 -61.5t31.5 -74t12.5 -91q0 -206 -164.5 -338.5t-429.5 -136.5l-39 -46q129 -91 129 -188
q0 -80 -70.5 -127t-183.5 -49v4q64 5 106 41.5t42 89.5q0 40 -27.5 84.5t-74.5 79.5l92 111q-69 2 -131.5 19t-109.5 33.5t-79 16.5q-27 0 -50 -12.5t-54 -46.5h-4l-11 530l4 2q24 -244 145 -381t302 -137q207 0 339 105.5t132 271.5q0 46 -12.5 85t-39.5 70t-56 54
t-75 45.5t-81.5 37t-91.5 34.5q-53 19 -87 32t-80.5 34.5t-76.5 41.5t-63 50t-51.5 62t-31 75t-12.5 92q0 184 142 300.5t366 116.5q68 0 131 -18.5t111 -36.5t78 -18q29 0 51 13t47 50h4l33 -502l-4 -2q-33 219 -161.5 354.5t-295.5 135.5z" />
    <glyph glyph-name="scedilla" unicode="&#x15f;" horiz-adv-x="1015" 
d="M827 692q-15 0 -30 6v312q-73 67 -228 67q-119 0 -195.5 -60t-76.5 -155q0 -37 16.5 -70.5t39 -57.5t63.5 -49.5t72 -41.5t83 -39q56 -26 88 -42t78 -45t71 -56t43.5 -66.5t18.5 -83.5q0 -143 -125.5 -237t-320.5 -94h-2l-39 -46q129 -91 129 -188q0 -80 -70.5 -127
t-183.5 -49v4q64 5 106 41.5t42 89.5q0 41 -27.5 85t-75.5 79l92 111q-162 6 -249 79t-87 195q0 68 31.5 117t73.5 49q5 0 29 -6v-342q74 -68 233 -68q142 0 232 67.5t90 170.5q0 37 -15.5 70t-36.5 55.5t-61.5 47.5t-69 39.5t-80.5 37.5q-39 18 -57 27t-53 27t-53 30.5
t-45 32.5t-41 38.5t-29 42t-21 50.5t-6 57q0 131 112 218t283 87q167 0 262 -71.5t95 -194.5q0 -63 -31 -103.5t-74 -40.5z" />
    <glyph glyph-name="Scaron" unicode="&#x160;" horiz-adv-x="1300" 
d="M811 1604h-2l-221 262l2 4l244 -137l290 137v-4zM768 1487q-158 0 -262.5 -90.5t-104.5 -227.5q0 -42 11 -78.5t28.5 -64t47 -53t57 -43.5t68.5 -36.5t72.5 -30t76.5 -27.5q51 -17 85.5 -30.5t80 -34t76 -40.5t62.5 -49.5t51 -61.5t31.5 -74t12.5 -91
q0 -210 -168.5 -342.5t-439.5 -132.5q-72 0 -137 17t-113.5 34.5t-81.5 17.5q-27 0 -50 -12.5t-54 -46.5h-4l-11 530l4 2q24 -244 145 -381t302 -137q207 0 339 105.5t132 271.5q0 46 -12.5 85t-39.5 70t-56 54t-75 45.5t-81.5 37t-91.5 34.5q-53 19 -87 32t-80.5 34.5
t-76.5 41.5t-63 50t-51.5 62t-31 75t-12.5 92q0 184 142 300.5t366 116.5q68 0 131 -18.5t111 -36.5t78 -18q29 0 51 13t47 50h4l33 -502l-4 -2q-33 219 -161.5 354.5t-295.5 135.5z" />
    <glyph glyph-name="scaron" unicode="&#x161;" horiz-adv-x="1015" 
d="M627 1231h-2l-209 346l4 4l231 -205l305 205l2 -4zM575 1102q167 0 262 -71.5t95 -194.5q0 -63 -31 -103.5t-74 -40.5q-15 0 -30 6v312q-73 67 -228 67q-119 0 -195.5 -60t-76.5 -155q0 -37 16.5 -70.5t39 -57.5t63.5 -49.5t72 -41.5t83 -39q56 -26 88 -42t78 -45t71 -56
t43.5 -66.5t18.5 -83.5q0 -143 -125.5 -237t-320.5 -94q-175 0 -270 73.5t-95 200.5q0 68 31.5 117t73.5 49q5 0 29 -6v-342q74 -68 233 -68q142 0 232 67.5t90 170.5q0 37 -15.5 70t-36.5 55.5t-61.5 47.5t-69 39.5t-80.5 37.5q-39 18 -57 27t-53 27t-53 30.5t-45 32.5
t-41 38.5t-29 42t-21 50.5t-6 57q0 131 112 218t283 87z" />
    <glyph glyph-name="uni0162" unicode="&#x162;" horiz-adv-x="1347" 
d="M1315 1522l63 -533l-4 -2q-18 104 -37 179t-44 129.5t-52.5 87.5t-67 53t-82.5 27t-104 7h-80l-217 -1232q-10 -62 -10 -95q0 -77 45 -106.5t162 -32.5v-4h-297l-55 -66q129 -91 129 -188q0 -80 -70.5 -127t-183.5 -49v4q64 5 105.5 41.5t41.5 89.5q0 40 -27.5 84.5
t-76.5 79.5l110 131h-295v4q146 3 203 50t80 184l217 1232h-80q-70 0 -118 -8.5t-103 -36.5t-104 -81t-106 -140.5t-124 -216.5l-4 2l250 533h4q58 -19 136.5 -25t252.5 -6h139q166 0 248 6t152 25h4z" />
    <glyph glyph-name="uni0163" unicode="&#x163;" horiz-adv-x="753" 
d="M449 1061l-150 -850q-8 -41 -8 -72q0 -76 82 -76q67 0 144.5 66t152.5 205l4 -2q-76 -176 -172 -264t-193 -88q-31 0 -55 6l-43 -52q129 -91 129 -188q0 -80 -70.5 -127t-183.5 -49v4q64 5 105.5 41.5t41.5 89.5q0 40 -27.5 84.5t-76.5 79.5l104 125q-73 31 -73 131
q0 33 4 53l155 883h-184l8 20h181l59 269h121l-51 -269h362l-8 -20h-358z" />
    <glyph glyph-name="Tcaron" unicode="&#x164;" horiz-adv-x="1347" 
d="M864 1604h-2l-221 262l2 4l244 -137l289 137v-4zM1315 1522l63 -533l-4 -2q-18 104 -37 179t-44 129.5t-52.5 87.5t-67 53t-82.5 27t-104 7h-80l-217 -1232q-10 -62 -10 -95q0 -77 45 -106.5t162 -32.5v-4h-619v4q146 3 203 50t80 184l217 1232h-80q-70 0 -118 -8.5
t-103 -36.5t-104 -81t-106 -140.5t-124 -216.5l-4 2l250 533h4q58 -19 136.5 -25t252.5 -6h139q166 0 248 6t152 25h4z" />
    <glyph glyph-name="tcaron" unicode="&#x165;" horiz-adv-x="753" 
d="M649 1163q54 41 88.5 101t34.5 110q0 43 -25 73t-69 36q-8 19 -8 39q0 40 33 72t77 32q47 0 76 -34t29 -91q0 -93 -66.5 -190.5t-167.5 -151.5zM504 1350l-51 -269h362l-8 -20h-358l-150 -850q-8 -41 -8 -72q0 -76 82 -76q67 0 144.5 66t152.5 205l4 -2
q-76 -176 -172 -264t-193 -88q-72 0 -110.5 37.5t-38.5 107.5q0 33 4 53l155 883h-184l8 20h181l59 269h121z" />
    <glyph glyph-name="Tbar" unicode="&#x166;" horiz-adv-x="1349" 
d="M1315 1522l63 -533l-4 -2q-18 104 -37 179t-44 129.5t-52.5 87.5t-67 53t-82.5 27t-104 7h-80l-125 -712h322l-8 -21h-318l-88 -499q-10 -62 -10 -95q0 -77 45 -106.5t162 -32.5v-4h-619v4q146 3 203 50t80 184l88 499h-301l8 21h297l125 712h-80q-70 0 -118 -8.5
t-103 -36.5t-104 -81t-106 -140.5t-124 -216.5l-4 2l250 533h4q58 -19 136.5 -25t252.5 -6h139q166 0 248 6t152 25h4z" />
    <glyph glyph-name="tbar" unicode="&#x167;" horiz-adv-x="772" 
d="M819 1061h-358l-64 -361h359l-8 -20h-355l-82 -469q-8 -41 -8 -72q0 -76 82 -76q67 0 144.5 66t152.5 205l4 -2q-77 -176 -172 -264t-192 -88q-72 0 -111 37.5t-39 107.5q0 33 4 53l88 502h-182l8 20h178l64 361h-185l9 20h180l59 269h121l-51 -269h362z" />
    <glyph glyph-name="Umacron" unicode="&#x16a;" horiz-adv-x="1562" 
d="M1323 1716l-8 -20h-594l8 20h594zM1143 1491h520v-4q-124 -3 -173 -43.5t-69 -157.5l-141 -801q-40 -227 -193 -366t-362 -139q-221 0 -343 107t-122 294q0 50 10 115l140 790q10 52 10 82q0 66 -39.5 91t-140.5 28v4h589v-4q-147 -3 -203 -50t-81 -184l-139 -786
q-11 -71 -11 -111q0 -163 90 -257.5t246 -94.5q198 0 343 132t183 349l134 760q8 47 8 90q0 85 -55.5 117t-200.5 35v4z" />
    <glyph glyph-name="umacron" unicode="&#x16b;" horiz-adv-x="1302" 
d="M1102 1481l-8 -21h-596l8 21h596zM1223 340l4 -2q-57 -177 -127.5 -267.5t-143.5 -90.5q-108 0 -108 100q0 13 4 41l129 713q-76 -178 -150 -319t-137.5 -231.5t-119 -153t-105.5 -94t-86.5 -44t-71.5 -12.5q-63 0 -97 33t-34 96q0 26 4 51l135 770q3 35 3 41
q0 24 -8 33.5t-29 9.5q-78 0 -201 -273l-4 2q58 177 127.5 268t142.5 91q52 0 80.5 -25.5t28.5 -75.5q0 -12 -4 -40l-142 -791q-4 -23 -4 -37q0 -70 66 -70q29 0 66.5 20t95.5 78t123 149t153 248.5t182 361.5l29 161h129l-166 -929q-2 -23 -2 -41q0 -24 8 -33.5t29 -9.5
q78 0 201 272z" />
    <glyph glyph-name="Uring" unicode="&#x16e;" horiz-adv-x="1562" 
d="M1018 1573q-91 0 -144 46t-53 124q0 92 66.5 154.5t163.5 62.5q90 0 142 -46.5t52 -125.5q0 -92 -65.5 -153.5t-161.5 -61.5zM1047 1935q-83 0 -140 -55t-57 -133q0 -68 47.5 -109t124.5 -41q82 0 138.5 54.5t56.5 132.5q0 69 -45.5 110t-124.5 41zM1143 1491h520v-4
q-124 -3 -173 -43.5t-69 -157.5l-141 -801q-40 -227 -193 -366t-362 -139q-221 0 -343 107t-122 294q0 50 10 115l140 790q10 52 10 82q0 66 -39.5 91t-140.5 28v4h589v-4q-147 -3 -203 -50t-81 -184l-139 -786q-11 -71 -11 -111q0 -163 90 -257.5t246 -94.5q198 0 343 132
t183 349l134 760q8 47 8 90q0 85 -55.5 117t-200.5 35v4z" />
    <glyph glyph-name="uring" unicode="&#x16f;" horiz-adv-x="1302" 
d="M774 1214q-90 0 -142 46.5t-52 125.5q0 92 65.5 154t163.5 62q89 0 140.5 -46t51.5 -126q0 -91 -66 -153.5t-161 -62.5zM805 1577q-84 0 -140.5 -54t-56.5 -132q0 -69 46.5 -110.5t123.5 -41.5q81 0 138 54.5t57 131.5q0 71 -45 111.5t-123 40.5zM1223 340l4 -2
q-57 -177 -127.5 -267.5t-143.5 -90.5q-108 0 -108 100q0 13 4 41l129 713q-76 -178 -150 -319t-137.5 -231.5t-119 -153t-105.5 -94t-86.5 -44t-71.5 -12.5q-63 0 -97 33t-34 96q0 26 4 51l135 770q3 35 3 41q0 24 -8 33.5t-29 9.5q-78 0 -201 -273l-4 2q58 177 127.5 268
t142.5 91q52 0 80.5 -25.5t28.5 -75.5q0 -12 -4 -40l-142 -791q-4 -23 -4 -37q0 -70 66 -70q29 0 66.5 20t95.5 78t123 149t153 248.5t182 361.5l29 161h129l-166 -929q-2 -23 -2 -41q0 -24 8 -33.5t29 -9.5q78 0 201 272z" />
    <glyph glyph-name="Uhungarumlaut" unicode="&#x170;" horiz-adv-x="1562" 
d="M1135 1761q-61 -44 -361 -168l-2 4q171 228 272 299q30 19 52 19q31 0 55.5 -24.5t24.5 -57.5q0 -43 -41 -72zM1108 1593l-2 4q171 228 272 299q30 19 52 19q31 0 55 -24.5t24 -57.5q0 -43 -41 -72q-63 -45 -360 -168zM1143 1491h520v-4q-124 -3 -173 -43.5t-69 -157.5
l-141 -801q-40 -227 -193 -366t-362 -139q-221 0 -343 107t-122 294q0 50 10 115l140 790q10 52 10 82q0 66 -39.5 91t-140.5 28v4h589v-4q-147 -3 -203 -50t-81 -184l-139 -786q-11 -71 -11 -111q0 -163 90 -257.5t246 -94.5q198 0 343 132t183 349l134 760q8 47 8 90
q0 85 -55.5 117t-200.5 35v4z" />
    <glyph glyph-name="uhungarumlaut" unicode="&#x171;" horiz-adv-x="1302" 
d="M915 1456q-72 -69 -337 -217l-5 4q159 261 230 332q27 27 61 27q31 0 55.5 -23t24.5 -55q0 -39 -29 -68zM870 1239l-2 4q155 259 228 332q27 27 61 27q32 0 56 -23t24 -55q0 -42 -29 -68q-64 -64 -338 -217zM1022 68q78 0 201 272l4 -2q-57 -177 -127.5 -267.5
t-143.5 -90.5q-108 0 -108 100q0 13 4 41l129 713q-76 -178 -150 -319t-137.5 -231.5t-119 -153t-105.5 -94t-86.5 -44t-71.5 -12.5q-63 0 -97 33t-34 96q0 26 4 51l135 770q3 35 3 41q0 24 -8 33.5t-29 9.5q-78 0 -201 -273l-4 2q58 177 127.5 268t142.5 91
q52 0 80.5 -25.5t28.5 -75.5q0 -12 -4 -40l-142 -791q-4 -23 -4 -37q0 -70 66 -70q29 0 66.5 20t95.5 78t123 149t153 248.5t182 361.5l29 161h129l-166 -929q-2 -23 -2 -41q0 -24 8 -33.5t29 -9.5z" />
    <glyph glyph-name="Uogonek" unicode="&#x172;" horiz-adv-x="1562" 
d="M1143 1491h520v-4q-124 -3 -173 -43.5t-69 -157.5l-141 -801q-33 -194 -152 -325.5t-288 -167.5q-105 -65 -169.5 -145t-64.5 -146q0 -37 25 -59.5t67 -22.5q39 0 79.5 16t68.5 39l2 -4q-90 -90 -205 -90q-66 0 -105.5 31.5t-39.5 83.5q0 75 83 154t226 137
q-41 -6 -82 -6q-221 0 -343 107t-122 294q0 50 10 115l140 790q10 52 10 82q0 66 -39.5 91t-140.5 28v4h589v-4q-147 -3 -203 -50t-81 -184l-139 -786q-11 -71 -11 -111q0 -163 90 -257.5t246 -94.5q198 0 343 132t183 349l134 760q8 47 8 90q0 85 -55.5 117t-200.5 35v4z
" />
    <glyph glyph-name="uogonek" unicode="&#x173;" horiz-adv-x="1302" 
d="M952 -381q39 0 79.5 16t68.5 39l2 -4q-90 -90 -205 -90q-66 0 -105.5 31.5t-39.5 83.5q0 67 66.5 144.5t170.5 144.5q-20 -4 -33 -4q-108 0 -108 100q0 13 4 41l129 713q-76 -178 -150 -319t-137.5 -231.5t-119 -153t-105.5 -94t-86.5 -44t-71.5 -12.5q-63 0 -97 33
t-34 96q0 26 4 51l135 770q3 35 3 41q0 24 -8 33.5t-29 9.5q-78 0 -201 -273l-4 2q58 177 127.5 268t142.5 91q52 0 80.5 -25.5t28.5 -75.5q0 -12 -4 -40l-142 -791q-4 -23 -4 -37q0 -70 66 -70q29 0 66.5 20t95.5 78t123 149t153 248.5t182 361.5l29 161h129l-166 -929
q-2 -23 -2 -41q0 -24 8 -33.5t29 -9.5q78 0 201 272l4 -2q-81 -252 -189 -330q-178 -203 -178 -307q0 -37 25 -59.5t67 -22.5z" />
    <glyph glyph-name="Wcircumflex" unicode="&#x174;" horiz-adv-x="2115" 
d="M1303 1739l-291 -135l-2 4l313 262h2l221 -262l-2 -4zM1792 1491h498v-4q-103 -12 -167.5 -73.5t-146.5 -231.5l-577 -1202h-33l-182 1275l-627 -1275h-33l-180 1314q-5 38 -9 58.5t-12 45.5t-19.5 37t-30 25t-45.5 19t-64 8v4h573v-4q-130 -11 -186.5 -46.5
t-56.5 -121.5q0 -25 6 -55l137 -1074l645 1321h4l189 -1321l456 957q80 163 80 225q0 60 -50 84.5t-169 30.5v4z" />
    <glyph glyph-name="wcircumflex" unicode="&#x175;" horiz-adv-x="1677" 
d="M1006 1456l-306 -205l-4 4l334 347h2l207 -347l-2 -4zM1200 86l-20 -25q-13 -18 -66 -81h-31l-143 673q-129 -287 -446 -673h-31l-230 989q-4 22 -10.5 30.5t-17.5 8.5q-28 0 -64.5 -62t-91.5 -205l-4 2q56 196 105.5 277.5t121.5 81.5q38 0 64 -28t37 -73l202 -892
q248 325 357 579l-84 393h147l201 -972q179 231 293 446v530q27 17 55 17q39 0 63.5 -48.5t24.5 -129.5q0 -144 -117.5 -365t-314.5 -473z" />
    <glyph glyph-name="Ycircumflex" unicode="&#x176;" horiz-adv-x="1392" 
d="M950 1739l-291 -135l-2 4l316 262h2l219 -262v-4zM1001 1491h570v-4q-68 -8 -124 -35t-132.5 -103.5t-171.5 -211.5l-357 -504l-69 -395q-10 -62 -10 -95q0 -77 46 -106.5t165 -32.5v-4h-621v4q145 3 201.5 50t81.5 184l69 393l-239 631q-44 117 -86.5 166t-124.5 59v4
h606v-4q-127 -11 -189.5 -43t-62.5 -98q0 -34 35 -134l198 -542l344 487q71 100 94 143.5t23 77.5q0 52 -56.5 76.5t-189.5 32.5v4z" />
    <glyph glyph-name="ycircumflex" unicode="&#x177;" horiz-adv-x="1232" 
d="M801 1456l-305 -205l-4 4l333 347h2l207 -347l-2 -4zM1024 1081h129l-123 -688q-37 -207 -113 -365.5t-181 -258t-232 -149.5t-273 -50q-56 0 -90.5 24t-34.5 60q0 19 11 41l485 2q135 83 213.5 229t97.5 346l64 553v2q-90 -211 -178 -369.5t-156 -247t-134 -143
t-110.5 -71t-87.5 -16.5q-63 0 -97 33t-34 96q0 26 4 51l135 770q3 35 3 41q0 24 -8 33.5t-29 9.5q-78 0 -201 -273l-4 2q58 177 127.5 268t142.5 91q52 0 80.5 -25.5t28.5 -75.5q0 -12 -4 -40l-142 -791q-4 -23 -4 -37q0 -70 66 -70q29 0 66.5 20t95.5 78t123 149
t153 248.5t182 361.5z" />
    <glyph glyph-name="Ydieresis" unicode="&#x178;" horiz-adv-x="1392" 
d="M766 1671q-37 0 -61.5 23.5t-24.5 60.5q0 40 28 69t68 29q38 0 61 -24.5t23 -61.5q0 -40 -27 -68t-67 -28zM1135 1671q-37 0 -61.5 23.5t-24.5 60.5q0 40 28 69t68 29q38 0 61 -24.5t23 -61.5q0 -40 -27 -68t-67 -28zM1001 1491h570v-4q-68 -8 -124 -35t-132.5 -103.5
t-171.5 -211.5l-357 -504l-69 -395q-10 -62 -10 -95q0 -77 46 -106.5t165 -32.5v-4h-621v4q145 3 201.5 50t81.5 184l69 393l-239 631q-44 117 -86.5 166t-124.5 59v4h606v-4q-127 -11 -189.5 -43t-62.5 -98q0 -34 35 -134l198 -542l344 487q71 100 94 143.5t23 77.5
q0 52 -56.5 76.5t-189.5 32.5v4z" />
    <glyph glyph-name="Zacute" unicode="&#x179;" horiz-adv-x="1409" 
d="M1163 1712q-68 -32 -383 -108l-2 4q200 197 316 252q18 10 41 10q35 0 58.5 -24t23.5 -58q0 -24 -14 -45t-40 -31zM1452 1491v-6l-1270 -1465h586q78 0 130.5 9t108 38.5t100 85t92 147t97.5 226.5l4 -2l-167 -534q-173 10 -625 10h-506v6l1268 1464h-525
q-70 0 -120.5 -10.5t-103.5 -40t-102.5 -85t-105.5 -142t-123 -215.5l-4 2l240 522q167 -10 582 -10h444z" />
    <glyph glyph-name="zacute" unicode="&#x17a;" horiz-adv-x="1064" 
d="M836 1427q-96 -61 -371 -153l-2 4q176 205 280 285q26 20 54 20q30 0 56 -25t26 -57q0 -49 -43 -74zM702 100q87 0 139.5 50.5t108.5 193.5l4 -2q-28 -101 -51 -160.5t-57 -109.5t-78.5 -71t-108.5 -21q-100 0 -222 53t-236 145l-178 -188l-15 14l912 961h-373
q-181 0 -265.5 -51t-150.5 -201l-4 2l141 377q169 -11 531 -11h254l2 -4l-760 -801q111 -84 219.5 -130t187.5 -46z" />
    <glyph glyph-name="Zdotaccent" unicode="&#x17b;" horiz-adv-x="1409" 
d="M952 1665q-41 0 -67.5 26t-26.5 66q0 43 30.5 74t74.5 31q41 0 67.5 -27t26.5 -66q0 -44 -30.5 -74t-74.5 -30zM1452 1491v-6l-1270 -1465h586q78 0 130.5 9t108 38.5t100 85t92 147t97.5 226.5l4 -2l-167 -534q-173 10 -625 10h-506v6l1268 1464h-525
q-70 0 -120.5 -10.5t-103.5 -40t-102.5 -85t-105.5 -142t-123 -215.5l-4 2l240 522q167 -10 582 -10h444z" />
    <glyph glyph-name="zdotaccent" unicode="&#x17c;" horiz-adv-x="1064" 
d="M711 1384q-40 0 -67.5 26.5t-27.5 66.5q0 44 30.5 74t74.5 30q41 0 67.5 -26.5t26.5 -65.5q0 -44 -30 -74.5t-74 -30.5zM702 100q87 0 139.5 50.5t108.5 193.5l4 -2q-28 -101 -51 -160.5t-57 -109.5t-78.5 -71t-108.5 -21q-100 0 -222 53t-236 145l-178 -188l-15 14
l912 961h-373q-181 0 -265.5 -51t-150.5 -201l-4 2l141 377q169 -11 531 -11h254l2 -4l-760 -801q111 -84 219.5 -130t187.5 -46z" />
    <glyph glyph-name="Zcaron" unicode="&#x17d;" horiz-adv-x="1409" 
d="M930 1604h-2l-221 262l2 4l243 -137l291 137v-4zM1452 1491v-6l-1270 -1465h586q78 0 130.5 9t108 38.5t100 85t92 147t97.5 226.5l4 -2l-167 -534q-173 10 -625 10h-506v6l1268 1464h-525q-70 0 -120.5 -10.5t-103.5 -40t-102.5 -85t-105.5 -142t-123 -215.5l-4 2
l240 522q167 -10 582 -10h444z" />
    <glyph glyph-name="zcaron" unicode="&#x17e;" horiz-adv-x="1064" 
d="M672 1231h-2l-209 346l4 4l231 -205l303 205l5 -4zM702 100q87 0 139.5 50.5t108.5 193.5l4 -2q-28 -101 -51 -160.5t-57 -109.5t-78.5 -71t-108.5 -21q-100 0 -222 53t-236 145l-178 -188l-15 14l912 961h-373q-181 0 -265.5 -51t-150.5 -201l-4 2l141 377
q169 -11 531 -11h254l2 -4l-760 -801q111 -84 219.5 -130t187.5 -46z" />
    <glyph glyph-name="florin" unicode="&#x192;" horiz-adv-x="882" 
d="M881 1364h-320q-84 -113 -84 -262q0 -46 11.5 -103t20.5 -87t32 -99q3 -7 8 -33h287l-7 -20h-274q25 -106 25 -205q0 -97 -27 -188t-71.5 -160t-101 -121t-117.5 -79t-118 -27q-39 0 -65.5 21.5t-26.5 57.5q0 34 21 68h321q80 111 80 254q0 46 -9.5 100t-19 88.5
t-30.5 102.5q-20 72 -23 88h-262l8 20h250q-14 89 -14 150q0 119 41.5 230t105 186t140 120t147.5 45q40 0 67 -22t27 -57q0 -30 -22 -68z" />
    <glyph glyph-name="AEacute" unicode="&#x1fc;" horiz-adv-x="2209" 
d="M1735 1712q-68 -32 -383 -108l-2 4q208 202 317 252q15 10 39 10q35 0 58.5 -24t23.5 -58q0 -24 -14 -45t-39 -31zM1669 1470h-330l-120 -692h211q85 0 136 28t90 99.5t79 212.5h4q-76 -380 -127 -721h-4q6 47 6 119q0 101 -21 154t-59.5 70.5t-108.5 17.5h-211l-98 -561
q-12 -52 -12 -86q0 -52 26.5 -71.5t92.5 -19.5h262q89 0 151.5 10.5t126 40.5t117.5 86.5t112.5 145.5t125.5 221l4 -2l-262 -532q-108 10 -332 10h-793v4q123 3 172.5 43.5t69.5 157.5l98 553h-526l-256 -422q-54 -92 -76 -141.5t-22 -85.5q0 -52 47 -76t155 -29v-4h-489v4
q100 12 172.5 75t173.5 230l717 1182h770q219 0 327 10l62 -512l-4 -2q-11 80 -24.5 143t-32.5 112t-40 85t-50 61.5t-59 41t-71.5 24.5t-83 12.5t-96.5 3.5zM1079 778l90 508q7 44 7 66q0 65 -42.5 90t-152.5 28l-420 -692h518z" />
    <glyph glyph-name="aeacute" unicode="&#x1fd;" horiz-adv-x="1769" 
d="M1309 1427q-96 -61 -371 -153l-2 4q179 209 283 285q26 20 51 20q30 0 56 -25t26 -57q0 -49 -43 -74zM1247 72q98 0 206.5 55t182.5 145l4 -2q-78 -131 -208 -210.5t-265 -79.5q-179 0 -280 110t-101 299q0 31 9 123q-117 -270 -234 -401t-254 -131q-105 0 -165 85
t-60 232q0 213 78.5 398t215.5 296t298 111q101 0 195 -40t159 -106q169 146 371 146q142 0 227.5 -63t85.5 -165q0 -104 -102.5 -187t-277.5 -134.5t-406 -73.5v-30q0 -173 85 -275t236 -102zM1382 1077q-119 0 -220 -77t-163 -210t-71 -292q305 46 482 148.5t177 250.5
q0 82 -56.5 131t-148.5 49zM365 61q134 0 271.5 217.5t295.5 653.5q-29 67 -95 105t-149 38q-128 0 -236 -101t-169.5 -268t-61.5 -358q0 -139 37 -213t107 -74z" />
    <glyph glyph-name="uni0218" unicode="&#x218;" horiz-adv-x="1300" 
d="M553 -20q-72 0 -137 17t-113.5 34.5t-81.5 17.5q-27 0 -50 -12.5t-54 -46.5h-4l-11 530l4 2q24 -244 145 -381t302 -137q207 0 339 105.5t132 271.5q0 46 -12.5 85t-39.5 70t-56 54t-75 45.5t-81.5 37t-91.5 34.5q-53 19 -87 32t-80.5 34.5t-76.5 41.5t-63 50t-51.5 62
t-31 75t-12.5 92q0 184 142 300.5t366 116.5q68 0 131 -18.5t111 -36.5t78 -18q29 0 51 13t47 50h4l33 -502l-4 -2q-33 219 -161.5 354.5t-295.5 135.5q-158 0 -262.5 -90.5t-104.5 -227.5q0 -42 11 -78.5t28.5 -64t47 -53t57 -43.5t68.5 -36.5t72.5 -30t76.5 -27.5
q51 -17 85.5 -30.5t80 -34t76 -40.5t62.5 -49.5t51 -61.5t31.5 -74t12.5 -91q0 -210 -168.5 -342.5t-439.5 -132.5zM428 -430l-2 4q50 26 84.5 71.5t34.5 84.5q0 33 -28 52.5t-75 24.5q-6 9 -6 29q0 37 32 63.5t75 26.5q49 0 76.5 -29t27.5 -79q0 -76 -61.5 -145
t-157.5 -103z" />
    <glyph glyph-name="uni0219" unicode="&#x219;" horiz-adv-x="1015" 
d="M827 692q-15 0 -30 6v312q-73 67 -228 67q-119 0 -195.5 -60t-76.5 -155q0 -37 16.5 -70.5t39 -57.5t63.5 -49.5t72 -41.5t83 -39q56 -26 88 -42t78 -45t71 -56t43.5 -66.5t18.5 -83.5q0 -143 -125.5 -237t-320.5 -94q-175 0 -270 73.5t-95 200.5q0 68 31.5 117t73.5 49
q5 0 29 -6v-342q74 -68 233 -68q142 0 232 67.5t90 170.5q0 37 -15.5 70t-36.5 55.5t-61.5 47.5t-69 39.5t-80.5 37.5q-39 18 -57 27t-53 27t-53 30.5t-45 32.5t-41 38.5t-29 42t-21 50.5t-6 57q0 131 112 218t283 87q167 0 262 -71.5t95 -194.5q0 -63 -31 -103.5t-74 -40.5
zM397 -74q49 0 77 -29t28 -79q0 -76 -61.5 -145t-157.5 -103l-2 4q50 26 84 71.5t34 84.5q0 33 -27.5 52.5t-74.5 24.5q-6 9 -6 29q0 37 31.5 63.5t74.5 26.5z" />
    <glyph glyph-name="uni021A" unicode="&#x21a;" horiz-adv-x="1347" 
d="M1315 1522l63 -533l-4 -2q-18 104 -37 179t-44 129.5t-52.5 87.5t-67 53t-82.5 27t-104 7h-80l-217 -1232q-10 -62 -10 -95q0 -77 45 -106.5t162 -32.5v-4h-619v4q146 3 203 50t80 184l217 1232h-80q-70 0 -118 -8.5t-103 -36.5t-104 -81t-106 -140.5t-124 -216.5l-4 2
l250 533h4q58 -19 136.5 -25t252.5 -6h139q166 0 248 6t152 25h4zM549 -74q49 0 76.5 -29t27.5 -79q0 -76 -62.5 -145t-158.5 -103l-2 4q52 26 86.5 71.5t34.5 84.5q0 33 -27.5 52.5t-74.5 24.5q-7 11 -7 29q0 37 32 63.5t75 26.5z" />
    <glyph glyph-name="uni021B" unicode="&#x21b;" horiz-adv-x="753" 
d="M449 1061l-150 -850q-8 -41 -8 -72q0 -76 82 -76q67 0 144.5 66t152.5 205l4 -2q-76 -176 -172 -264t-193 -88q-72 0 -110.5 37.5t-38.5 107.5q0 33 4 53l155 883h-184l8 20h181l59 269h121l-51 -269h362l-8 -20h-358zM225 -74q49 0 77 -29t28 -79q0 -76 -62.5 -145
t-158.5 -103l-3 4q52 26 86.5 71.5t34.5 84.5q0 33 -27.5 52.5t-74.5 24.5q-6 9 -6 29q0 37 31.5 63.5t74.5 26.5z" />
    <glyph glyph-name="uni0237" unicode="&#x237;" horiz-adv-x="565" 
d="M356 1102q52 0 80.5 -25.5t28.5 -75.5q0 -19 -6 -40l-152 -852q-35 -197 -142 -345t-249 -194l-2 4q96 68 162 193t94 286l154 877q4 23 4 41q0 24 -9 33.5t-28 9.5q-38 0 -89.5 -68.5t-111.5 -204.5l-4 2q58 177 127.5 268t142.5 91z" />
    <glyph glyph-name="circumflex" unicode="&#x2c6;" horiz-adv-x="1130" 
d="M780 1255l-4 -4l-231 205l-303 -205l-4 4l331 347h2z" />
    <glyph glyph-name="caron" unicode="&#x2c7;" horiz-adv-x="1228" 
d="M776 1581l4 -4l-331 -346h-3l-208 346l4 4l231 -205z" />
    <glyph glyph-name="breve" unicode="&#x2d8;" horiz-adv-x="1105" 
d="M438 1237q-91 0 -151 92.5t-70 249.5l4 2q26 -102 91.5 -164.5t146.5 -62.5q79 0 166.5 62.5t150.5 164.5l4 -2q-67 -156 -160.5 -249t-181.5 -93z" />
    <glyph glyph-name="dotaccent" unicode="&#x2d9;" horiz-adv-x="720" 
d="M319 1384q-40 0 -67 26.5t-27 66.5q0 44 31 74t74 30q41 0 67.5 -26.5t26.5 -65.5q0 -44 -30.5 -74.5t-74.5 -30.5z" />
    <glyph glyph-name="ring" unicode="&#x2da;" horiz-adv-x="1105" 
d="M541 1214q-90 0 -143.5 47t-53.5 125q0 92 66 154t163 62q91 0 143 -46t52 -126q0 -91 -66 -153.5t-161 -62.5zM545 1239q81 0 137.5 54.5t56.5 131.5q0 70 -46 111t-124 41q-83 0 -139.5 -54t-56.5 -132q0 -69 47 -110.5t125 -41.5z" />
    <glyph glyph-name="ogonek" unicode="&#x2db;" horiz-adv-x="1032" 
d="M457 -420q-66 0 -107 31.5t-41 83.5q0 80 96.5 164.5t256.5 142.5l4 -2q-110 -64 -178 -147.5t-68 -151.5q0 -37 24.5 -59.5t65.5 -22.5q83 0 149 55l3 -4q-94 -90 -205 -90z" />
    <glyph glyph-name="tilde" unicode="&#x2dc;" horiz-adv-x="1226" 
d="M690 1294q-40 0 -75.5 22t-77.5 62q-39 38 -71.5 58t-68.5 20q-99 0 -166 -145l-4 2q29 102 93.5 177t132.5 75q26 0 54.5 -13.5t47 -27.5t47.5 -39q41 -40 75 -61t71 -21q101 0 165 145l5 -2q-29 -103 -93 -177.5t-135 -74.5z" />
    <glyph glyph-name="hungarumlaut" unicode="&#x2dd;" horiz-adv-x="1058" 
d="M246 1239l-2 4q157 262 227 332q30 27 64 27q31 0 55 -23t24 -55q0 -40 -28 -68q-68 -65 -340 -217zM539 1239l-2 4q151 252 227 332q30 27 63 27q31 0 55.5 -23t24.5 -55q0 -40 -28 -68q-68 -65 -340 -217z" />
    <glyph glyph-name="gravecomb" unicode="&#x300;" 
d="M-311 1212q-228 185 -293 271q-21 27 -21 57t25 55t55 25q43 0 74 -39q63 -96 164 -367z" />
    <glyph glyph-name="acutecomb" unicode="&#x301;" 
d="M-616 1274l-2 4q181 211 282 285q23 20 51 20q30 0 56 -25t26 -57q0 -49 -43 -74q-98 -62 -370 -153z" />
    <glyph glyph-name="uni0302" unicode="&#x302;" 
d="M-238 1255l-4 -4l-231 205l-303 -205l-4 4l331 347h3z" />
    <glyph glyph-name="tildecomb" unicode="&#x303;" 
d="M-455 1294q-40 0 -75.5 22t-77.5 62q-39 38 -71.5 58t-68.5 20q-98 0 -165 -145l-5 2q29 102 93.5 177t132.5 75q26 0 54.5 -13.5t47 -27.5t47.5 -39q41 -40 75 -61t71 -21q102 0 166 145l4 -2q-29 -103 -93 -177.5t-135 -74.5z" />
    <glyph glyph-name="uni0304" unicode="&#x304;" 
d="M-795 1460l9 21h596l-9 -21h-596z" />
    <glyph glyph-name="uni0306" unicode="&#x306;" 
d="M-557 1237q-91 0 -151 92.5t-70 249.5l4 2q26 -102 91 -164.5t146 -62.5q79 0 167 63t151 164l4 -2q-67 -156 -160.5 -249t-181.5 -93z" />
    <glyph glyph-name="uni0307" unicode="&#x307;" 
d="M-334 1384q-40 0 -67 26.5t-27 66.5q0 44 30.5 74t73.5 30q41 0 68 -26.5t27 -65.5q0 -44 -30.5 -74.5t-74.5 -30.5z" />
    <glyph glyph-name="uni0308" unicode="&#x308;" 
d="M-700 1395q-37 0 -61.5 23.5t-24.5 60.5q0 40 28 68t68 28q37 0 60.5 -23.5t23.5 -60.5q0 -40 -27 -68t-67 -28zM-332 1395q-37 0 -61.5 23.5t-24.5 60.5q0 40 28 68t68 28q37 0 60.5 -23.5t23.5 -60.5q0 -40 -27 -68t-67 -28z" />
    <glyph glyph-name="uni030A" unicode="&#x30a;" 
d="M-571 1214q-90 0 -143.5 47t-53.5 125q0 92 66 154t163 62q91 0 143 -46t52 -126q0 -91 -66 -153.5t-161 -62.5zM-567 1239q81 0 137.5 54.5t56.5 131.5q0 70 -46 111t-124 41q-83 0 -139.5 -54t-56.5 -132q0 -69 47 -110.5t125 -41.5z" />
    <glyph glyph-name="uni030B" unicode="&#x30b;" 
d="M-813 1239l-2 4q157 262 227 332q30 27 64 27q31 0 55.5 -23t24.5 -55q0 -39 -29 -68q-68 -65 -340 -217zM-520 1239l-2 4q151 252 227 332q30 27 64 27q31 0 55 -23t24 -55q0 -40 -28 -68q-68 -65 -340 -217z" />
    <glyph glyph-name="uni030C" unicode="&#x30c;" 
d="M-242 1581l4 -4l-331 -346h-2l-209 346l4 4l231 -205z" />
    <glyph glyph-name="uni0312" unicode="&#x312;" 
d="M-526 1251q-49 0 -77 29.5t-28 79.5q0 78 62.5 151.5t158.5 108.5l2 -4q-50 -29 -84 -76.5t-34 -87.5q0 -35 27 -57t71 -25q8 -16 8 -31q0 -35 -31.5 -61.5t-74.5 -26.5z" />
    <glyph glyph-name="uni0326" unicode="&#x326;" 
d="M-618 -430l-3 4q51 26 85 71.5t34 84.5q0 33 -27.5 52.5t-74.5 24.5q-6 9 -6 29q0 37 31.5 63.5t74.5 26.5q49 0 77 -29t28 -79q0 -76 -61.5 -145t-157.5 -103z" />
    <glyph glyph-name="uni0327" unicode="&#x327;" 
d="M-520 -430v4q64 5 106.5 41.5t42.5 89.5q0 40 -27.5 84.5t-76.5 79.5l108 131h29l-55 -66q127 -93 127 -188q0 -80 -70 -127t-184 -49z" />
    <glyph glyph-name="uni0328" unicode="&#x328;" 
d="M-510 -420q-66 0 -106.5 31.5t-40.5 83.5q0 80 96 164.5t256 142.5l4 -2q-110 -64 -178 -147.5t-68 -151.5q0 -37 24.5 -59.5t65.5 -22.5q84 0 150 55l2 -4q-94 -90 -205 -90z" />
    <glyph glyph-name="uni0394" unicode="&#x394;" horiz-adv-x="1257" 
d="M817 1511l330 -1505l-4 -6h-1217v6l858 1505h33zM-43 20h1030l-278 1319z" />
    <glyph glyph-name="uni03A9" unicode="&#x3a9;" horiz-adv-x="1699" 
d="M1563 436h4l-144 -446q-157 10 -575 10h-21l-2 6q71 64 137.5 134.5t147 177.5t138.5 214.5t98 243t40 266.5q0 204 -98 324.5t-270 120.5q-93 0 -182.5 -41.5t-162.5 -116.5t-128.5 -173t-86 -218t-30.5 -244q0 -174 70 -353t186 -335l-2 -6h-20q-413 0 -580 -10l16 446
h4q10 -183 78 -244t256 -61h154q-137 118 -223 286t-86 343q0 152 59 291.5t158 240t236.5 160t287.5 59.5q240 0 379 -134.5t139 -362.5q0 -122 -42 -244t-103.5 -216t-143 -181.5t-148.5 -143t-132 -98.5h149q72 0 120.5 6t97 23.5t84.5 51.5t71.5 88.5t69.5 135.5z" />
    <glyph glyph-name="uni03BC" unicode="&#x3bc;" horiz-adv-x="1228" 
d="M1024 172q0 -61 35 -86t121 -27v-4q-149 -24 -322 -75h-4l37 206q-120 -100 -223 -153t-201 -53q-197 0 -227 155q3 -336 -19 -487q-3 -36 -22 -57t-49 -21q-23 0 -36.5 14.5t-13.5 36.5q0 40 133 686l84 475q9 52 9 74q0 54 -33.5 82t-120.5 43v4q180 53 326 109h4
l-78 -441l-68 -381q-6 -38 -6 -67q0 -172 168 -172q79 0 167 44.5t210 133.5l100 571q11 64 11 76q0 52 -33.5 80.5t-122.5 42.5v4q201 59 328 109h4l-150 -842q-8 -41 -8 -80z" />
    <glyph glyph-name="pi" unicode="&#x3c0;" horiz-adv-x="1337" 
d="M1106 881l-127 -729q-4 -23 -4 -41q0 -24 9 -33.5t28 -9.5q80 0 200 272l5 -2q-57 -177 -127.5 -267.5t-143.5 -90.5q-108 0 -108 100q0 20 6 41l166 940h-535l-151 -860q-9 -49 -9 -84q0 -62 34 -86.5t118 -26.5v-4h-490v4q109 3 152.5 42.5t65.5 154.5l118 680
q11 64 11 86q0 62 -34.5 85t-121.5 25v4h1155v-4q-111 -3 -153 -42t-64 -154z" />
    <glyph glyph-name="Wgrave" unicode="&#x1e80;" horiz-adv-x="2115" 
d="M1065 1712q-25 10 -39 31t-14 45q0 34 23.5 58t58.5 24q24 0 41 -10q114 -54 315 -252l-2 -4q-315 76 -383 108zM1792 1491h498v-4q-103 -12 -167.5 -73.5t-146.5 -231.5l-577 -1202h-33l-182 1275l-627 -1275h-33l-180 1314q-5 38 -9 58.5t-12 45.5t-19.5 37t-30 25
t-45.5 19t-64 8v4h573v-4q-130 -11 -186.5 -46.5t-56.5 -121.5q0 -25 6 -55l137 -1074l645 1321h4l189 -1321l456 957q80 163 80 225q0 60 -50 84.5t-169 30.5v4z" />
    <glyph glyph-name="wgrave" unicode="&#x1e81;" horiz-adv-x="1677" 
d="M1016 1212q-229 183 -295 271q-19 24 -19 57q0 30 25 55t55 25q45 0 72 -39q57 -81 166 -367zM1200 86l-20 -25q-13 -18 -66 -81h-31l-143 673q-129 -287 -446 -673h-31l-230 989q-4 22 -10.5 30.5t-17.5 8.5q-28 0 -64.5 -62t-91.5 -205l-4 2q56 196 105.5 277.5
t121.5 81.5q38 0 64 -28t37 -73l202 -892q248 325 357 579l-84 393h147l201 -972q179 231 293 446v530q27 17 55 17q39 0 63.5 -48.5t24.5 -129.5q0 -144 -117.5 -365t-314.5 -473z" />
    <glyph glyph-name="Wacute" unicode="&#x1e82;" horiz-adv-x="2115" 
d="M1513 1712q-68 -32 -383 -108l-2 4q200 197 316 252q18 10 41 10q35 0 58.5 -24t23.5 -58q0 -24 -15 -45t-39 -31zM1792 1491h498v-4q-103 -12 -167.5 -73.5t-146.5 -231.5l-577 -1202h-33l-182 1275l-627 -1275h-33l-180 1314q-5 38 -9 58.5t-12 45.5t-19.5 37t-30 25
t-45.5 19t-64 8v4h573v-4q-130 -11 -186.5 -46.5t-56.5 -121.5q0 -25 6 -55l137 -1074l645 1321h4l189 -1321l456 957q80 163 80 225q0 60 -50 84.5t-169 30.5v4z" />
    <glyph glyph-name="wacute" unicode="&#x1e83;" horiz-adv-x="1677" 
d="M1130 1427q-103 -63 -370 -153l-2 4q176 205 280 285q26 20 52 20q31 0 57.5 -25t26.5 -57q0 -46 -44 -74zM1200 86l-20 -25q-13 -18 -66 -81h-31l-143 673q-129 -287 -446 -673h-31l-230 989q-4 22 -10.5 30.5t-17.5 8.5q-28 0 -64.5 -62t-91.5 -205l-4 2
q56 196 105.5 277.5t121.5 81.5q38 0 64 -28t37 -73l202 -892q248 325 357 579l-84 393h147l201 -972q179 231 293 446v530q27 17 55 17q39 0 63.5 -48.5t24.5 -129.5q0 -144 -117.5 -365t-314.5 -473z" />
    <glyph glyph-name="Wdieresis" unicode="&#x1e84;" horiz-adv-x="2115" 
d="M1116 1671q-37 0 -60.5 23.5t-23.5 60.5q0 40 28 69t68 29q37 0 60.5 -24.5t23.5 -61.5q0 -40 -27.5 -68t-68.5 -28zM1485 1671q-37 0 -60.5 23.5t-23.5 60.5q0 40 28 69t68 29q37 0 60.5 -24.5t23.5 -61.5q0 -40 -27.5 -68t-68.5 -28zM1792 1491h498v-4
q-103 -12 -167.5 -73.5t-146.5 -231.5l-577 -1202h-33l-182 1275l-627 -1275h-33l-180 1314q-5 38 -9 58.5t-12 45.5t-19.5 37t-30 25t-45.5 19t-64 8v4h573v-4q-130 -11 -186.5 -46.5t-56.5 -121.5q0 -25 6 -55l137 -1074l645 1321h4l189 -1321l456 957q80 163 80 225
q0 60 -50 84.5t-169 30.5v4z" />
    <glyph glyph-name="wdieresis" unicode="&#x1e85;" horiz-adv-x="1677" 
d="M821 1395q-37 0 -61.5 23.5t-24.5 60.5q0 40 28 68t68 28q38 0 62.5 -23.5t24.5 -60.5q0 -40 -28 -68t-69 -28zM1190 1395q-37 0 -61.5 23.5t-24.5 60.5q0 40 28 68t68 28q38 0 62 -23.5t24 -60.5q0 -40 -27.5 -68t-68.5 -28zM1200 86l-20 -25q-13 -18 -66 -81h-31
l-143 673q-129 -287 -446 -673h-31l-230 989q-4 22 -10.5 30.5t-17.5 8.5q-28 0 -64.5 -62t-91.5 -205l-4 2q56 196 105.5 277.5t121.5 81.5q38 0 64 -28t37 -73l202 -892q248 325 357 579l-84 393h147l201 -972q179 231 293 446v530q27 17 55 17q39 0 63.5 -48.5
t24.5 -129.5q0 -144 -117.5 -365t-314.5 -473z" />
    <glyph glyph-name="uni1E9E" unicode="&#x1e9e;" horiz-adv-x="1529" 
d="M1427 1356v-4l-358 -416q152 -145 238 -277.5t86 -273.5q0 -175 -119 -290t-299 -115q-82 0 -149 35.5t-97 90.5l2 5q33 -36 96.5 -59t133.5 -23q120 0 201 87t81 216q0 108 -71.5 223t-219.5 283l406 467q-63 86 -165 134t-208 48q-184 0 -324 -140.5t-180 -369.5
l-135 -772q-8 -41 -8 -82q0 -67 39.5 -92t140.5 -27v-4h-553v4q123 3 172.5 43.5t69.5 157.5l129 721q46 263 226 424t427 161q121 0 240.5 -42t197.5 -113z" />
    <glyph glyph-name="Ygrave" unicode="&#x1ef2;" horiz-adv-x="1392" 
d="M713 1712q-24 10 -39 31t-15 45q0 34 23.5 58t58.5 24q23 0 41 -10q116 -55 316 -252l-2 -4q-315 76 -383 108zM1001 1491h570v-4q-68 -8 -124 -35t-132.5 -103.5t-171.5 -211.5l-357 -504l-69 -395q-10 -62 -10 -95q0 -77 46 -106.5t165 -32.5v-4h-621v4q145 3 201.5 50
t81.5 184l69 393l-239 631q-44 117 -86.5 166t-124.5 59v4h606v-4q-127 -11 -189.5 -43t-62.5 -98q0 -34 35 -134l198 -542l344 487q71 100 94 143.5t23 77.5q0 52 -56.5 76.5t-189.5 32.5v4z" />
    <glyph glyph-name="ygrave" unicode="&#x1ef3;" horiz-adv-x="1232" 
d="M811 1212q-229 183 -295 271q-18 23 -18 57q0 30 25 55t55 25q44 0 71 -39q57 -81 166 -367zM1024 1081h129l-123 -688q-37 -207 -113 -365.5t-181 -258t-232 -149.5t-273 -50q-56 0 -90.5 24t-34.5 60q0 19 11 41l485 2q135 83 213.5 229t97.5 346l64 553v2
q-90 -211 -178 -369.5t-156 -247t-134 -143t-110.5 -71t-87.5 -16.5q-63 0 -97 33t-34 96q0 26 4 51l135 770q3 35 3 41q0 24 -8 33.5t-29 9.5q-78 0 -201 -273l-4 2q58 177 127.5 268t142.5 91q52 0 80.5 -25.5t28.5 -75.5q0 -12 -4 -40l-142 -791q-4 -23 -4 -37
q0 -70 66 -70q29 0 66.5 20t95.5 78t123 149t153 248.5t182 361.5z" />
    <glyph glyph-name="endash" unicode="&#x2013;" horiz-adv-x="1296" 
d="M164 592l8 20h983l-8 -20h-983z" />
    <glyph glyph-name="emdash" unicode="&#x2014;" horiz-adv-x="1757" 
d="M164 592l8 20h1442l-8 -20h-1442z" />
    <glyph glyph-name="quoteleft" unicode="&#x2018;" horiz-adv-x="485" 
d="M514 1626l2 -4q-64 -47 -107.5 -119.5t-43.5 -138.5q0 -52 28.5 -86.5t77.5 -40.5q12 -21 12 -49q0 -55 -39 -97t-90 -42q-58 0 -90.5 40.5t-32.5 110.5q0 119 81.5 242t201.5 184z" />
    <glyph glyph-name="quoteright" unicode="&#x2019;" horiz-adv-x="481" 
d="M254 1049l-2 4q63 47 106 118.5t43 137.5q0 52 -27.5 86.5t-76.5 40.5q-14 22 -14 49q0 56 39 98.5t90 42.5q58 0 90.5 -41.5t32.5 -111.5q0 -119 -80.5 -241t-200.5 -183z" />
    <glyph glyph-name="quotesinglbase" unicode="&#x201a;" horiz-adv-x="505" 
d="M37 -360l-2 4q64 47 107.5 119.5t43.5 138.5q0 52 -28.5 86.5t-77.5 40.5q-12 21 -12 49q0 55 39 97t90 42q58 0 90 -41.5t32 -112.5q0 -118 -80.5 -240t-201.5 -183z" />
    <glyph glyph-name="quotedblleft" unicode="&#x201c;" horiz-adv-x="823" 
d="M514 1626l2 -4q-64 -47 -107.5 -119.5t-43.5 -138.5q0 -52 28.5 -86.5t77.5 -40.5q12 -21 12 -49q0 -55 -39 -97t-90 -42q-58 0 -90.5 40.5t-32.5 110.5q0 119 81.5 242t201.5 184zM850 1626l2 -4q-65 -47 -108.5 -119.5t-43.5 -138.5q0 -51 29 -86t78 -41q12 -21 12 -49
q0 -55 -39 -97t-90 -42q-57 0 -90 41t-33 110q0 119 81.5 242t201.5 184z" />
    <glyph glyph-name="quotedblright" unicode="&#x201d;" horiz-adv-x="817" 
d="M254 1049l-2 4q63 47 106 118.5t43 137.5q0 52 -27.5 86.5t-76.5 40.5q-14 22 -14 49q0 56 39 98.5t90 42.5q58 0 90.5 -41.5t32.5 -111.5q0 -119 -80.5 -241t-200.5 -183zM590 1049l-2 4q65 47 108 118.5t43 137.5q0 52 -28.5 86.5t-77.5 40.5q-12 19 -12 49
q0 56 39 98.5t90 42.5q57 0 89.5 -41.5t32.5 -111.5q0 -119 -81 -241t-201 -183z" />
    <glyph glyph-name="quotedblbase" unicode="&#x201e;" horiz-adv-x="841" 
d="M37 -360l-2 4q64 47 107.5 119.5t43.5 138.5q0 52 -28.5 86.5t-77.5 40.5q-12 21 -12 49q0 55 39 97t90 42q58 0 90 -41.5t32 -112.5q0 -118 -80.5 -240t-201.5 -183zM375 -360l-2 4q64 46 106.5 118.5t42.5 139.5q0 52 -27.5 86.5t-76.5 40.5q-12 17 -12 49q0 55 39 97
t90 42q57 0 88.5 -41.5t31.5 -112.5q0 -118 -80.5 -240t-199.5 -183z" />
    <glyph glyph-name="dagger" unicode="&#x2020;" horiz-adv-x="1034" 
d="M1028 1237q24 0 38.5 -13.5t14.5 -35.5q0 -31 -22 -52.5t-53 -21.5q-112 0 -373 57q-32 -457 -62 -636q-5 -117 -75 -117q-23 0 -38.5 15t-15.5 38q0 68 181 698q-283 -55 -394 -55q-24 0 -38.5 13.5t-14.5 35.5q0 29 22.5 51.5t53.5 22.5q112 0 373 -57q-5 247 10 374
q3 32 24 52t50 20q22 0 36.5 -14t14.5 -37q0 -67 -125 -393q283 55 393 55z" />
    <glyph glyph-name="daggerdbl" unicode="&#x2021;" horiz-adv-x="1136" 
d="M1079 1237q25 0 39.5 -13.5t14.5 -35.5q0 -30 -22 -52t-52 -22q-113 0 -379 57q-282 -57 -397 -57q-25 0 -40.5 13.5t-15.5 35.5q0 29 23.5 51.5t52.5 22.5q109 0 373 -55q-3 272 10 370q3 34 24 54t50 20q25 0 39 -14t14 -37q0 -69 -127 -395q280 57 393 57zM1026 930
q24 0 38.5 -13.5t14.5 -35.5q0 -31 -22 -52.5t-53 -21.5q-112 0 -373 57q3 -297 -10 -375q-3 -33 -24 -52t-50 -19q-22 0 -36.5 13.5t-14.5 35.5q0 31 35 143t90 252q-283 -55 -394 -55q-24 0 -38.5 13.5t-14.5 35.5q0 29 22.5 51.5t53.5 22.5q109 0 377 -58q290 58 399 58z
" />
    <glyph glyph-name="bullet" unicode="&#x2022;" horiz-adv-x="815" 
d="M406 373q-96 0 -156 57t-60 148q0 97 70 167t168 70q97 0 156 -57.5t59 -147.5q0 -97 -70 -167t-167 -70z" />
    <glyph glyph-name="ellipsis" unicode="&#x2026;" horiz-adv-x="1490" 
d="M184 -20q-54 0 -86 30t-32 80q0 54 37.5 90.5t91.5 36.5t85 -30t31 -81q0 -53 -36.5 -89.5t-90.5 -36.5zM682 -20q-54 0 -86.5 30t-32.5 80q0 54 37.5 90.5t91.5 36.5t86.5 -30t32.5 -81q0 -53 -37.5 -89.5t-91.5 -36.5zM1180 -20q-54 0 -86.5 30t-32.5 80
q0 54 37.5 90.5t91.5 36.5t86.5 -30t32.5 -81q0 -53 -37.5 -89.5t-91.5 -36.5z" />
    <glyph glyph-name="perthousand" unicode="&#x2030;" horiz-adv-x="2506" 
d="M240 -49l-15 14l1432 1575l12 -14zM446 641q-112 0 -174.5 82.5t-62.5 224.5q0 147 53 274.5t142.5 203t193.5 75.5q112 0 176 -82.5t64 -222.5q0 -147 -53.5 -275t-144 -204t-194.5 -76zM449 659q65 0 128 90.5t102.5 230t39.5 277.5q0 105 -32.5 165.5t-92.5 60.5
q-64 0 -126.5 -90t-102 -229.5t-39.5 -278.5q0 -105 32.5 -165.5t90.5 -60.5zM1278 -12q-112 0 -176 82.5t-64 224.5q0 147 53 274.5t143.5 203t195.5 75.5q110 0 173.5 -82.5t63.5 -222.5q0 -147 -53 -275t-143 -204t-193 -76zM2025 -12q-112 0 -174.5 82.5t-62.5 224.5
q0 147 53 274.5t143 203t195 75.5q110 0 174 -82.5t64 -222.5q0 -147 -53.5 -275t-144 -204t-194.5 -76zM1280 6q48 0 97.5 54.5t87 139.5t61.5 193.5t24 210.5q0 104 -33 164.5t-92 60.5q-65 0 -128 -90t-102.5 -229.5t-39.5 -278.5q0 -105 33 -165t92 -60zM2028 6
q65 0 128.5 90.5t103.5 230.5t40 277q0 104 -33 164.5t-92 60.5q-65 0 -128 -90t-102.5 -229.5t-39.5 -278.5q0 -105 32.5 -165t90.5 -60z" />
    <glyph glyph-name="guilsinglleft" unicode="&#x2039;" horiz-adv-x="561" 
d="M514 997l-268 -397l129 -399l-4 -2l-260 383l8 34l391 383z" />
    <glyph glyph-name="guilsinglright" unicode="&#x203a;" horiz-adv-x="559" 
d="M211 999l258 -383l-6 -34l-393 -383l-4 2l268 399l-127 397z" />
    <glyph glyph-name="fraction" unicode="&#x2044;" horiz-adv-x="212" 
d="M-563 -49l-15 14l1432 1575l14 -14z" />
    <glyph glyph-name="Euro" unicode="&#x20ac;" horiz-adv-x="1374" 
d="M1364 1501h4l-88 -516h-4q29 227 -50 363.5t-245 136.5q-154 0 -290 -163t-208 -419h514l-8 -20h-512q-31 -116 -43 -232h479l-8 -20h-473q-8 -68 -8 -156q0 -219 78 -344t217 -125q169 0 301.5 143t183.5 377h4l-92 -536h-4q-21 36 -38.5 48.5t-41.5 12.5
q-35 0 -86 -17.5t-114 -35.5t-127 -18q-203 0 -317 145.5t-114 396.5q0 22 5 109h-173l9 20h166q12 116 43 232h-174l8 20h172q83 270 258 439t387 169q75 0 166.5 -34.5t122.5 -34.5q26 0 44 11t56 48z" />
    <glyph glyph-name="uni20BF" unicode="&#x20bf;" horiz-adv-x="1363" 
d="M885 772q164 -9 259 -92.5t95 -218.5q0 -127 -68 -233t-185.5 -167t-256.5 -61h-16l-37 -205h-23l37 205h-233l-37 -205h-23l37 205h-424v4q124 3 173 43.5t69 157.5l190 1081q9 56 9 82q0 65 -39 90.5t-140 28.5v4h424l33 178h23l-33 -178h203h30l33 178h23l-33 -180
q144 -12 225.5 -89.5t81.5 -199.5q0 -163 -111 -281.5t-286 -146.5zM879 1470h-265l-120 -692h264q157 0 263.5 125t106.5 309q0 120 -65.5 189t-183.5 69zM690 20q107 0 198 61.5t144 167t53 228.5q0 129 -75 205t-209 76h-312l-98 -561q-12 -61 -12 -97q0 -45 19 -62.5
t63 -17.5h229z" />
    <glyph glyph-name="trademark" unicode="&#x2122;" horiz-adv-x="1947" 
d="M811 1505h2l80 -256l-4 -2q-39 98 -74.5 146.5t-75.5 65t-106 16.5h-17v-562q0 -62 23.5 -82.5t91.5 -23.5v-4h-352v4q69 3 92 24.5t23 81.5v562h-17q-49 0 -81.5 -8t-63 -33t-56.5 -69t-55 -118l-4 2l80 256h2q62 -14 207 -14h98q141 0 207 14zM1784 905q3 -28 6 -41.5
t13.5 -28t30.5 -21t54 -7.5v-4h-340v4q71 3 94 25t17 83l-45 490l-260 -612h-4l-269 626l-51 -495q-6 -66 20.5 -90t112.5 -27v-4h-262v4q61 3 82 23t27 75l49 496q6 47 -13 65t-81 21v4h219l223 -524l225 524h197v-4q-59 -3 -78 -21t-14 -65z" />
    <glyph glyph-name="oneeighth" unicode="&#x215b;" horiz-adv-x="1583" 
d="M1456 1540l14 -14l-1431 -1575l-12 14zM526 657v-4h-368v4q77 3 108 30t43 101l88 494q4 32 4 45q0 24 -9 35.5t-32 11.5q-31 0 -88 -24l-2 4q188 98 277 155h2l-129 -721q-4 -23 -4 -51q0 -44 23.5 -60.5t86.5 -19.5zM1466 690q0 -79 -66 -137t-159 -82q45 -26 70 -43
t57 -44.5t47 -59.5t15 -70q0 -112 -96.5 -189t-237.5 -77q-113 0 -179.5 48t-66.5 130q0 88 73.5 151t176.5 91q-63 39 -99 85t-36 111q0 106 80 175t202 69q100 0 159.5 -43t59.5 -115zM1221 481q68 38 111.5 96t43.5 125q0 59 -36 93t-97 34q-72 0 -123 -50t-51 -120
q0 -57 39.5 -96.5t112.5 -81.5zM1319 201q0 29 -12 54t-39.5 47t-48 35.5t-60.5 35.5q-6 4 -19.5 11t-19.5 11q-76 -40 -128 -103t-52 -138q0 -66 43.5 -107t116.5 -41q90 0 154.5 57.5t64.5 137.5z" />
    <glyph glyph-name="threeeighths" unicode="&#x215c;" horiz-adv-x="1650" 
d="M1526 1540l14 -14l-1431 -1575l-15 14zM676 967q0 -135 -142 -223t-389 -103v4q187 19 300.5 96t113.5 185q0 114 -213 145l-2 4l309 311h-188q-87 0 -135.5 -27t-96.5 -110l-4 2l111 258h2q62 -18 336 -18h98l2 -4l-321 -320q105 -21 162 -71.5t57 -128.5zM1536 690
q0 -79 -66 -137t-159 -82q35 -21 55 -33.5t48.5 -35t44 -42t27 -47.5t11.5 -59q0 -112 -96 -189t-236 -77q-114 0 -179.5 48t-65.5 130q0 88 73 151t174 91q-62 39 -97.5 85t-35.5 111q0 106 80 175t203 69q99 0 159 -43t60 -115zM1290 481q68 41 112 98t44 123q0 59 -36 93
t-97 34q-72 0 -123 -50t-51 -120q0 -57 38 -95.5t113 -82.5zM1386 201q0 55 -40 92t-119 80q-6 4 -19.5 11t-19.5 11q-76 -42 -127 -104t-51 -137q0 -67 43 -107.5t116 -40.5q89 0 153 57.5t64 137.5z" />
    <glyph glyph-name="fiveeighths" unicode="&#x215d;" horiz-adv-x="1628" 
d="M1501 1540l15 -14l-1432 -1575l-12 14zM676 985q0 -146 -146.5 -238t-390.5 -106v4q188 19 302 98.5t114 188.5q0 78 -82.5 122.5t-251.5 63.5v4l152 369h76q246 0 327 22h2l-55 -129h-375l-65 -157q201 -22 297 -81.5t96 -160.5zM1511 690q0 -79 -66 -137t-159 -82
q45 -26 70 -43t57 -44.5t47 -59.5t15 -70q0 -112 -96.5 -189t-237.5 -77q-113 0 -179.5 48t-66.5 130q0 88 73.5 151t176.5 91q-63 39 -99 85t-36 111q0 106 80 175t202 69q100 0 159.5 -43t59.5 -115zM1266 481q68 38 111.5 96t43.5 125q0 59 -36 93t-97 34q-72 0 -123 -50
t-51 -120q0 -57 39.5 -96.5t112.5 -81.5zM1364 201q0 29 -12 54t-39.5 47t-48 35.5t-60.5 35.5q-6 4 -19.5 11t-19.5 11q-76 -40 -128 -103t-52 -138q0 -66 43.5 -107t116.5 -41q90 0 154.5 57.5t64.5 137.5z" />
    <glyph glyph-name="seveneighths" unicode="&#x215e;" horiz-adv-x="1599" 
d="M1466 1540l15 -14l-1430 -1575l-14 14zM426 1384q-88 0 -134 -27t-95 -108l-4 2l110 258h2q62 -18 334 -18h197l2 -4q-351 -440 -453 -776q-23 -70 -82 -70q-45 0 -45 43q0 82 158.5 308t324.5 392h-315zM1477 690q0 -79 -66 -137t-160 -82q45 -26 70 -43t57 -44.5
t47 -59.5t15 -70q0 -112 -96.5 -189t-237.5 -77q-113 0 -179.5 48t-66.5 130q0 88 73.5 151t176.5 91q-62 39 -97.5 85t-35.5 111q0 106 79.5 175t200.5 69q100 0 160 -43t60 -115zM1231 481q68 38 111.5 96t43.5 125q0 59 -36 93t-97 34q-71 0 -122.5 -50t-51.5 -120
q0 -57 39.5 -96.5t112.5 -81.5zM1329 201q0 29 -12 54t-38.5 47t-48.5 36t-61 35q-6 4 -19.5 11t-19.5 11q-75 -40 -126.5 -102.5t-51.5 -138.5q0 -66 43 -107t115 -41q90 0 154.5 57.5t64.5 137.5z" />
    <glyph glyph-name="partialdiff" unicode="&#x2202;" horiz-adv-x="1198" 
d="M465 1626q309 -73 474 -284.5t165 -534.5q0 -181 -45.5 -335t-126.5 -262t-196.5 -169t-250.5 -61q-192 0 -300.5 109.5t-108.5 297.5q0 176 77 326.5t208.5 238.5t285.5 88q104 0 181 -43t120 -123q-6 288 -129.5 479t-355.5 269zM489 4q159 0 278 162t161 424
q4 58 4 82q0 158 -70 249t-194 91q-115 0 -218 -94t-164 -249t-61 -325q0 -156 70 -248t194 -92z" />
    <glyph glyph-name="emptyset" unicode="&#x2205;" horiz-adv-x="1499" 
d="M1477 1219l-197 -175q86 -125 86 -301q0 -159 -56 -302t-151.5 -245.5t-228.5 -162.5t-281 -60q-260 0 -395 166l-197 -174l-14 19l197 174q-88 124 -88 303q0 159 56 301t151.5 244.5t229 162.5t283.5 60q262 0 394 -166l200 176zM180 463q0 -169 82 -287l981 866
q-127 162 -375 162q-143 0 -270.5 -57.5t-219 -156t-145 -236t-53.5 -291.5zM1337 739q0 166 -80 285l-981 -866q61 -76 157.5 -118t219.5 -42q190 0 347 98t247 268t90 375z" />
    <glyph glyph-name="product" unicode="&#x220f;" horiz-adv-x="1644" 
d="M1708 1491v-4q-125 -3 -173.5 -43.5t-68.5 -157.5l-264 -1491q-8 -44 -8 -82q0 -67 39 -92t139 -27v-4h-551v4q123 3 172.5 43.5t69.5 157.5l295 1675h-748l-293 -1675q-8 -44 -8 -82q0 -67 39 -92t139 -27v-4h-553v4q123 3 172.5 43.5t71.5 157.5l264 1491q9 56 9 80
q0 66 -40.5 92t-140.5 29v4h1438z" />
    <glyph glyph-name="summation" unicode="&#x2211;" horiz-adv-x="1386" 
d="M1323 977q-17 97 -36 170t-39 125.5t-47 88.5t-52.5 57.5t-62 33t-69.5 15t-81 3.5h-516l448 -870v-4l-823 -875h686q73 0 121.5 6t98.5 23.5t86.5 51t72.5 89t70 136.5h4l-142 -447q-173 10 -626 10h-518v7l843 901l-499 987l2 6h442q413 0 586 10l55 -522z" />
    <glyph glyph-name="minus" unicode="&#x2212;" horiz-adv-x="970" 
d="M117 590l4 20h753l-4 -20h-753z" />
    <glyph glyph-name="radical" unicode="&#x221a;" horiz-adv-x="1400" 
d="M1571 1608l20 -11l-1151 -2027h-32l-203 915q-11 49 -17 70.5t-18.5 50t-29.5 40t-44.5 21t-68.5 11.5v4h290l201 -932z" />
    <glyph glyph-name="infinity" unicode="&#x221e;" horiz-adv-x="1787" 
d="M1417 1094q133 0 209 -75.5t76 -203.5q0 -132 -61 -245t-166.5 -179.5t-229.5 -66.5q-72 0 -130 23t-101 68t-71.5 90t-57.5 109q-92 -134 -214.5 -212t-240.5 -78q-133 0 -209 74.5t-76 201.5q0 99 36.5 190.5t98 158t146 106t176.5 39.5q58 0 108 -16.5t85 -41.5
t68 -65.5t54 -77t46 -88.5q89 132 211.5 210.5t242.5 78.5zM1311 444q157 0 259.5 104.5t102.5 264.5q0 117 -69 186.5t-191 69.5q-116 0 -234 -79t-204 -210l14 -32q24 -50 38 -77.5t38.5 -69.5t47 -65t52.5 -47t66.5 -34.5t79.5 -10.5zM436 348q109 0 228 79.5t208 211.5
q-5 8 -14 31q-23 49 -35.5 74t-37 67t-46.5 65t-53 48t-68 36t-81 11q-156 0 -259.5 -104.5t-103.5 -262.5q0 -116 69.5 -186t192.5 -70z" />
    <glyph glyph-name="integral" unicode="&#x222b;" horiz-adv-x="737" 
d="M815 1477h-321q-117 -141 -117 -394q0 -167 69 -465q43 -175 43 -323q0 -159 -44.5 -299t-114 -231t-152 -143t-160.5 -52q-40 0 -66 21.5t-26 56.5t19 69h321q117 142 117 396q0 101 -17.5 203.5t-54.5 258.5q-39 170 -39 324q0 160 44.5 300.5t113.5 231.5t151 143
t160 52q40 0 67.5 -22.5t27.5 -57.5q0 -27 -21 -69z" />
    <glyph glyph-name="approxequal" unicode="&#x2248;" horiz-adv-x="970" 
d="M686 647q-86 0 -199 84q-38 27 -57 39t-52.5 25.5t-64.5 13.5q-135 0 -217 -145l-4 2q34 103 113 177.5t168 74.5q48 0 91.5 -21.5t98.5 -60.5q52 -40 94 -60t91 -20q134 0 215 143l4 -2q-32 -101 -112 -175.5t-169 -74.5zM627 303q-36 0 -74.5 14t-63.5 29t-61 41
q-34 25 -56 39.5t-55 26.5t-65 12q-134 0 -215 -143l-4 2q32 101 110.5 175t167.5 74q82 0 191 -81q37 -27 59.5 -41t56.5 -26.5t68 -12.5q135 0 217 145l4 -2q-34 -103 -112.5 -177.5t-167.5 -74.5z" />
    <glyph glyph-name="notequal" unicode="&#x2260;" horiz-adv-x="970" 
d="M897 737h-289l-198 -274h440l-4 -21h-451l-176 -243h-24l176 243h-279l4 21h289l199 274h-441l4 21h451l178 246h25l-178 -246h278z" />
    <glyph glyph-name="lessequal" unicode="&#x2264;" horiz-adv-x="970" 
d="M852 518l-709 219v4l787 222l-4 -23l-713 -201l643 -198zM59 264l4 21h754l-4 -21h-754z" />
    <glyph glyph-name="greaterequal" unicode="&#x2265;" horiz-adv-x="970" 
d="M111 518l4 23l712 198l-641 201l4 23l707 -222v-4zM59 264l4 21h754l-4 -21h-754z" />
    <glyph glyph-name="lozenge" unicode="&#x25ca;" horiz-adv-x="993" 
d="M399 0l-280 684l522 684h4l281 -684l-523 -684h-4zM410 43l489 641l-262 641l-492 -641z" />
    <glyph glyph-name="uniF8FF" unicode="&#xf8ff;" horiz-adv-x="2541" 
d="M117 -20q-15 0 -25 10.5t-10 25.5q0 21 10 31l701 698h-664q-47 0 -47 39q0 19 14 33l697 701h-670q-41 0 -41 38v3q0 38 41 38h758q47 0 47 -41q0 -17 -17 -34l-698 -697h676q17 0 29 -12t12 -29v-669l694 692q16 16 35 16q37 0 37 -45v-663l696 692q16 16 33 16
q15 0 25 -12t10 -27t-13 -28l-753 -762q-14 -14 -35 -14q-41 0 -41 47v663l-694 -696q-14 -14 -35 -14q-41 0 -41 47v663l-696 -696q-14 -14 -35 -14z" />
    <glyph glyph-name="uni00A40301" horiz-adv-x="704" 
d="M754 1870q35 0 58.5 -24t23.5 -58q0 -24 -15 -45t-39 -31q-68 -32 -383 -108l-2 4q200 197 316 252q17 10 41 10zM250 1487v4h551v-4q-123 -3 -172.5 -43.5t-69.5 -157.5l-168 -952q-32 -186 -151.5 -340t-280.5 -219l-2 4q108 79 182 207.5t103 292.5l178 1007
q8 41 8 80q0 68 -39 93t-139 28z" />
    <glyph glyph-name="i.loclTRK" horiz-adv-x="622" 
d="M489 1581q41 0 68 -26.5t27 -65.5q0 -44 -30.5 -74.5t-76.5 -30.5q-40 0 -67 26.5t-27 66.5q0 44 31 74t75 30zM344 68q81 0 201 272l4 -2q-58 -178 -126.5 -268t-141.5 -90q-109 0 -109 100q0 13 4 41l146 809q4 23 4 41q0 24 -9 33.5t-28 9.5q-81 0 -201 -273l-4 2
q58 178 126.5 268.5t141.5 90.5q52 0 80.5 -25.5t28.5 -75.5q0 -12 -4 -40l-146 -809q-4 -23 -4 -41q0 -24 9 -33.5t28 -9.5z" />
    <glyph glyph-name="uni006A0301" horiz-adv-x="565" 
d="M567 1583q30 0 56 -25t26 -57q0 -49 -43 -74q-98 -62 -370 -153l-3 4q179 209 283 285q23 20 51 20zM356 1102q52 0 80.5 -25.5t28.5 -75.5q0 -19 -6 -40l-152 -852q-35 -197 -142 -345t-249 -194l-2 4q96 68 162 193t94 286l154 877q4 23 4 41q0 24 -9 33.5t-28 9.5
q-38 0 -89.5 -68.5t-111.5 -204.5l-4 2q58 177 127.5 268t142.5 91z" />
    <glyph glyph-name="f_b" horiz-adv-x="1837" 
d="M1534 1102q105 0 165 -85.5t60 -232.5q0 -212 -84 -397t-230.5 -296t-318.5 -111q-61 0 -113 16t-97.5 51t-72 98.5t-26.5 149.5q0 53 12 115l166 942q9 54 -24 72t-142 18h-282q-58 -66 -92.5 -137t-34.5 -127q0 -74 37 -97h297l-9 -20h-292l-170 -952
q-35 -197 -142.5 -345t-249.5 -194l-2 4q96 70 162 195t94 284l174 987q1 3 2.5 10.5t2.5 10.5h-185l8 20h181q48 215 185 361.5t304 146.5q40 0 67 -22.5t27 -57.5q0 -12 -2 -18q152 58 258 127h4l-237 -1337q152 423 292 622t308 199zM1122 4q103 0 196 60t159 159.5
t104.5 233t38.5 276.5q0 139 -36.5 213t-106.5 74q-124 0 -248 -188.5t-283 -581.5q-16 -44 -16 -84q0 -75 54 -118.5t138 -43.5z" />
    <glyph glyph-name="f_h" horiz-adv-x="1902" 
d="M1827 340l4 -2q-58 -178 -126.5 -268t-141.5 -90q-109 0 -109 100q0 13 4 41l141 790q3 34 3 37q0 70 -64 70q-30 0 -67.5 -19.5t-96 -77.5t-123.5 -149t-153 -249t-183 -363l-28 -160h-129l237 1352q9 54 -24 72t-142 18h-282q-58 -66 -92.5 -137t-34.5 -127
q0 -74 37 -97h297l-9 -20h-292l-170 -952q-35 -197 -142.5 -345t-249.5 -194l-2 4q96 70 162 195t94 284l174 987q1 3 2.5 10.5t2.5 10.5h-185l8 20h181q48 215 185 361.5t304 146.5q40 0 67 -22.5t27 -57.5q0 -12 -2 -18q152 58 258 127h4l-241 -1376q93 214 183.5 374.5
t159.5 251t135 145.5t109.5 72t84.5 17q63 0 97 -33t34 -96q0 -26 -4 -51l-136 -770q-4 -23 -4 -41q0 -24 9 -33.5t28 -9.5q81 0 201 272z" />
    <glyph glyph-name="f_hbar" horiz-adv-x="1902" 
d="M1827 340l4 -2q-58 -178 -126.5 -268t-141.5 -90q-109 0 -109 100q0 13 4 41l141 790q3 34 3 37q0 70 -64 70q-30 0 -67.5 -19.5t-96 -77.5t-123.5 -149t-153 -249t-183 -363l-28 -160h-129l237 1352q9 54 -24 72t-142 18h-282q-58 -66 -92.5 -137t-34.5 -127
q0 -74 37 -97h297l-9 -20h-292l-170 -952q-35 -197 -142.5 -345t-249.5 -194l-2 4q96 70 162 195t94 284l174 987q1 3 2.5 10.5t2.5 10.5h-185l8 20h181q48 215 185 361.5t304 146.5q40 0 67 -22.5t27 -57.5q0 -12 -2 -18q152 58 258 127h4l-61 -348h330l-8 -21h-326
l-176 -1007q93 214 183.5 374.5t159.5 251t135 145.5t109.5 72t84.5 17q63 0 97 -33t34 -96q0 -26 -4 -51l-136 -770q-4 -23 -4 -41q0 -24 9 -33.5t28 -9.5q81 0 201 272z" />
    <glyph glyph-name="f_icircumflex" horiz-adv-x="1269" 
d="M741 1061h-288l-170 -952q-35 -197 -142.5 -345t-249.5 -194l-2 4q96 69 162 194t94 285l174 987q1 3 2.5 10.5t2.5 10.5h-185l8 20h181q31 146 100.5 270t167.5 199.5t201 75.5q34 0 57 -21.5t23 -56.5q0 -23 -21 -71h-299q-63 -72 -102 -150t-39 -137q0 -85 41 -109
h293zM1155 1602l207 -347l-2 -4l-232 205l-305 -205l-4 4l334 347h2zM993 68q38 0 89.5 68t111.5 204l4 -2q-58 -178 -126.5 -268t-141.5 -90q-109 0 -109 100q0 13 4 41l146 809q2 23 2 41q0 24 -8 33.5t-29 9.5q-78 0 -201 -273l-4 2q58 177 127.5 268t142.5 91
q52 0 80.5 -25.5t28.5 -75.5q0 -12 -4 -40l-145 -809q-5 -29 -5 -41q0 -24 9 -33.5t28 -9.5z" />
    <glyph glyph-name="f_idieresis" horiz-adv-x="1318" 
d="M416 1190q0 -85 41 -109h293l-9 -20h-288l-170 -952q-35 -197 -142.5 -345t-249.5 -194l-2 4q96 69 162 194t94 285l174 987q1 3 2.5 10.5t2.5 10.5h-185l8 20h181q31 146 100.5 270t167.5 199.5t201 75.5q34 0 57 -21.5t23 -56.5q0 -23 -21 -71h-299q-63 -72 -102 -150
t-39 -137zM1042 1397q-36 0 -58.5 22.5t-22.5 59.5q0 38 27 66t65 28q36 0 59 -23t23 -59q0 -40 -26.5 -67t-66.5 -27zM1321 1573q36 0 59 -23t23 -59q0 -40 -26 -67t-66 -27q-36 0 -59 23t-23 59q0 38 27 66t65 28zM1042 68q38 0 89.5 68t111.5 204l4 -2
q-58 -177 -127.5 -267.5t-142.5 -90.5q-109 0 -109 100q0 20 6 41l144 809q4 23 4 41q0 24 -9 33.5t-28 9.5q-38 0 -89.5 -68.5t-111.5 -204.5l-4 2q58 177 128 268t143 91q106 0 106 -101q0 -12 -4 -40l-143 -809q-4 -23 -4 -41q0 -24 8.5 -33.5t27.5 -9.5z" />
    <glyph glyph-name="f_igrave" horiz-adv-x="1390" 
d="M416 1190q0 -85 41 -109h293l-9 -20h-288l-170 -952q-35 -197 -142.5 -345t-249.5 -194l-2 4q96 69 162 194t94 285l174 987q1 3 2.5 10.5t2.5 10.5h-185l8 20h181q31 146 100.5 270t167.5 199.5t201 75.5q34 0 57 -21.5t23 -56.5q0 -23 -21 -71h-299q-63 -72 -102 -150
t-39 -137zM1270 1212q-229 183 -295 271q-19 24 -19 57q0 30 25 55t55 25q45 0 72 -39q63 -89 166 -367zM1315 340l4 -2q-58 -177 -127.5 -267.5t-142.5 -90.5q-109 0 -109 100q0 20 6 41l144 809q4 23 4 41q0 24 -9 33.5t-28 9.5q-38 0 -89.5 -68.5t-111.5 -204.5l-4 2
q58 177 127.5 268t142.5 91q107 0 107 -101q0 -12 -4 -40l-144 -809q-4 -23 -4 -41q0 -24 9 -33.5t28 -9.5q38 0 89.5 68t111.5 204z" />
    <glyph glyph-name="f_imacron" horiz-adv-x="1269" 
d="M920 1481h454l-8 -21h-799q-67 -66 -107 -139.5t-40 -130.5q0 -85 37 -109h293l-9 -20h-288l-170 -952q-35 -197 -142.5 -345t-249.5 -194l-2 4q96 69 162 194t94 285l174 987q1 3 2.5 10.5t2.5 10.5h-185l8 20h181q34 145 110 265t180 191t213 71q42 0 69.5 -23
t27.5 -61q0 -24 -8 -43zM993 68q38 0 89.5 68t111.5 204l4 -2q-58 -178 -126.5 -268t-141.5 -90q-109 0 -109 100q0 13 4 41l146 809q2 23 2 41q0 24 -8 33.5t-29 9.5q-78 0 -201 -273l-4 2q58 177 127.5 268t142.5 91q52 0 80.5 -25.5t28.5 -75.5q0 -12 -4 -40l-145 -809
q-5 -29 -5 -41q0 -24 9 -33.5t28 -9.5z" />
    <glyph glyph-name="f_iogonek" horiz-adv-x="1269" 
d="M741 1061h-288l-170 -952q-35 -197 -142.5 -345t-249.5 -194l-2 4q96 69 162 194t94 285l174 987q1 3 2.5 10.5t2.5 10.5h-185l8 20h181q31 146 100.5 270t167.5 199.5t201 75.5q34 0 57 -21.5t23 -56.5q0 -23 -21 -71h-299q-63 -72 -102 -150t-39 -137q0 -85 41 -109
h293zM1139 1581q39 0 65.5 -26.5t26.5 -65.5q0 -45 -30 -75t-75 -30q-40 0 -67 26.5t-27 66.5q0 44 31 74t76 30zM1198 338q-86 -262 -190 -332q-177 -202 -177 -305q0 -37 26 -59.5t67 -22.5q39 0 80 16t69 39l2 -4q-94 -90 -205 -90q-67 0 -107 31t-40 84q0 68 67 145.5
t173 143.5q-24 -4 -33 -4q-109 0 -109 100q0 13 4 41l146 809q2 23 2 41q0 24 -8 33.5t-29 9.5q-78 0 -201 -273l-4 2q58 177 127.5 268t142.5 91q52 0 80.5 -25.5t28.5 -75.5q0 -12 -4 -40l-145 -809q-5 -29 -5 -41q0 -24 9 -33.5t28 -9.5q38 0 89.5 68t111.5 204z" />
    <glyph glyph-name="f_j" horiz-adv-x="1206" 
d="M741 1061h-288l-170 -952q-35 -197 -142.5 -345t-249.5 -194l-2 4q96 69 162 194t94 285l174 987q1 3 2.5 10.5t2.5 10.5h-185l8 20h181q31 146 100.5 270t167.5 199.5t201 75.5q34 0 57 -21.5t23 -56.5q0 -23 -21 -71h-299q-63 -72 -102 -150t-39 -137q0 -85 41 -109
h293zM1135 1581q40 0 67 -27t27 -65q0 -44 -30.5 -74.5t-76.5 -30.5q-40 0 -67 26.5t-27 66.5q0 44 31 74t76 30zM997 1102q52 0 80.5 -25.5t28.5 -75.5q0 -12 -4 -40l-152 -852q-35 -197 -143 -345t-250 -194l-2 4q97 69 162 193.5t94 285.5l156 877q2 23 2 41
q0 24 -8 33.5t-29 9.5q-79 0 -199 -273l-4 2q56 177 125.5 268t142.5 91z" />
    <glyph glyph-name="f_k" horiz-adv-x="1830" 
d="M1767 328l5 -2q-40 -182 -108.5 -264t-150.5 -82q-88 0 -141 83l-350 492l82 10q218 33 341.5 116.5t123.5 192.5q0 70 -48 113t-126 43q-90 0 -189 -60t-178 -165l-141 -805h-131l239 1352q9 54 -24 72t-142 18h-282q-58 -66 -92.5 -137t-34.5 -127q0 -74 37 -97h297
l-9 -20h-292l-170 -952q-35 -197 -142.5 -345t-249.5 -194l-2 4q96 70 162 195t94 284l174 987q1 3 2.5 10.5t2.5 10.5h-185l8 20h181q48 215 185 361.5t304 146.5q40 0 67 -22.5t27 -57.5q0 -12 -2 -18q152 58 258 127h4l-135 -774q84 120 197.5 189t222.5 69
q112 0 181 -56.5t69 -148.5q0 -115 -138 -207.5t-370 -132.5l264 -381q35 -48 60 -68t55 -20q51 0 97 54t93 186z" />
    <glyph glyph-name="uni00660137" horiz-adv-x="1830" 
d="M1767 328l5 -2q-40 -182 -108.5 -264t-150.5 -82q-88 0 -141 83l-350 492l82 10q218 33 341.5 116.5t123.5 192.5q0 70 -48 113t-126 43q-90 0 -189 -60t-178 -165l-141 -805h-131l239 1352q9 54 -24 72t-142 18h-282q-58 -66 -92.5 -137t-34.5 -127q0 -74 37 -97h297
l-9 -20h-292l-170 -952q-35 -197 -142.5 -345t-249.5 -194l-2 4q96 70 162 195t94 284l174 987q1 3 2.5 10.5t2.5 10.5h-185l8 20h181q48 215 185 361.5t304 146.5q40 0 67 -22.5t27 -57.5q0 -12 -2 -18q152 58 258 127h4l-135 -774q84 120 197.5 189t222.5 69
q112 0 181 -56.5t69 -148.5q0 -115 -138 -207.5t-370 -132.5l264 -381q35 -48 60 -68t55 -20q51 0 97 54t93 186zM1112 -74q49 0 75.5 -29t26.5 -79q0 -76 -61.5 -145t-157.5 -103l-2 4q51 26 85 71.5t34 84.5q0 33 -27 52.5t-73 24.5q-6 9 -6 29q0 37 31.5 63.5t74.5 26.5z
" />
    <glyph glyph-name="f_lacute" horiz-adv-x="1226" 
d="M1325 1939q34 0 58 -23.5t24 -57.5q0 -24 -14.5 -45t-38.5 -31q-78 -35 -383 -109l-2 4q201 198 315 252q18 10 41 10zM1171 1618l-258 -1466q-4 -23 -4 -41q0 -24 9 -33.5t28 -9.5q38 0 89.5 68t111.5 204l4 -2q-58 -177 -127.5 -267.5t-142.5 -90.5q-109 0 -109 100
q0 20 6 41l217 1231q9 54 -24 72t-142 18h-282q-58 -66 -92.5 -137t-34.5 -127q0 -74 37 -97h297l-9 -20h-292l-170 -952q-35 -197 -142.5 -345t-249.5 -194l-2 4q96 70 162 195t94 284l174 987q1 3 2.5 10.5t2.5 10.5h-185l8 20h181q48 215 185 361.5t304 146.5
q40 0 67 -22.5t27 -57.5q0 -12 -2 -18q152 58 258 127h4z" />
    <glyph glyph-name="f_lcaron" horiz-adv-x="1241" 
d="M1386 1626q49 0 77 -34t28 -91q0 -93 -66 -191t-168 -151l-2 4q54 40 88.5 100t34.5 111q0 43 -24 73t-68 36q-10 23 -10 39q0 40 33 72t77 32zM1171 1618l-258 -1466q-4 -23 -4 -41q0 -24 9 -33.5t28 -9.5q38 0 89.5 68t111.5 204l4 -2q-58 -177 -127.5 -267.5
t-142.5 -90.5q-109 0 -109 100q0 20 6 41l217 1231q9 54 -24 72t-142 18h-282q-58 -66 -92.5 -137t-34.5 -127q0 -74 37 -97h297l-9 -20h-292l-170 -952q-35 -197 -142.5 -345t-249.5 -194l-2 4q96 70 162 195t94 284l174 987q1 3 2.5 10.5t2.5 10.5h-185l8 20h181
q48 215 185 361.5t304 146.5q40 0 67 -22.5t27 -57.5q0 -12 -2 -18q152 58 258 127h4z" />
    <glyph glyph-name="uni0066013C" horiz-adv-x="1226" 
d="M946 68q38 0 89.5 68t111.5 204l4 -2q-58 -177 -127.5 -267.5t-142.5 -90.5q-109 0 -109 100q0 20 6 41l217 1231q9 54 -24 72t-142 18h-282q-58 -66 -92.5 -137t-34.5 -127q0 -74 37 -97h297l-9 -20h-292l-170 -952q-35 -197 -142.5 -345t-249.5 -194l-2 4
q96 70 162 195t94 284l174 987q1 3 2.5 10.5t2.5 10.5h-185l8 20h181q48 215 185 361.5t304 146.5q40 0 67 -22.5t27 -57.5q0 -12 -2 -18q152 58 258 127h4l-258 -1466q-4 -23 -4 -41q0 -24 9 -33.5t28 -9.5zM793 -74q49 0 75.5 -29t26.5 -79q0 -76 -61.5 -145t-157.5 -103
l-2 4q51 26 85 71.5t34 84.5q0 33 -27.5 52.5t-73.5 24.5q-6 9 -6 29q0 37 32 63.5t75 26.5z" />
    <glyph glyph-name="f_lslash" horiz-adv-x="1280" 
d="M946 68q38 0 89.5 68t111.5 204l4 -2q-58 -177 -127.5 -267.5t-142.5 -90.5q-109 0 -109 100q0 20 6 41l119 672l-178 -121l-10 16l192 131l94 533q9 54 -24 72t-142 18h-282q-58 -66 -92.5 -137t-34.5 -127q0 -74 37 -97h297l-9 -20h-292l-170 -952
q-35 -197 -142.5 -345t-249.5 -194l-2 4q96 70 162 195t94 284l174 987q1 3 2.5 10.5t2.5 10.5h-185l8 20h181q48 215 185 361.5t304 146.5q40 0 67 -22.5t27 -57.5q0 -12 -2 -18q152 58 258 127h4l-127 -717l189 127l10 -18l-203 -136l-127 -722q-4 -23 -4 -41
q0 -24 9 -33.5t28 -9.5z" />
    <glyph glyph-name="f_thorn" horiz-adv-x="1841" 
d="M1536 1102q105 0 165 -85.5t60 -232.5q0 -213 -78.5 -397.5t-215.5 -295.5t-298 -111q-155 0 -270 77l-47 -264q-13 -70 19 -93t139 -28v-4q-206 -45 -320 -90h-4l311 1774q9 54 -24 72t-142 18h-284q-58 -66 -92.5 -137t-34.5 -127q0 -74 37 -97h297l-9 -20h-292
l-170 -952q-35 -197 -142.5 -345t-249.5 -194l-2 4q96 70 162 195t94 284l174 987q1 3 2.5 10.5t2.5 10.5h-185l8 20h181q48 215 185 361.5t304 146.5q40 0 67 -22.5t27 -57.5q0 -12 -2 -18q157 60 260 127h5l-236 -1333q152 422 291 619.5t307 197.5zM1155 6q128 0 236 101
t169.5 268t61.5 358q0 138 -37 212.5t-106 74.5q-134 0 -269 -211t-290 -635l-7 -31q32 -64 97 -100.5t145 -36.5z" />
    <glyph glyph-name="zero.osf" horiz-adv-x="1247" 
d="M526 -20q-192 0 -302.5 116t-110.5 312q0 190 81 349.5t221.5 252t307.5 92.5q191 0 301.5 -115t110.5 -311q0 -191 -81 -351.5t-221 -252.5t-307 -92zM530 4q121 0 229.5 99.5t173 265t64.5 348.5q0 165 -74 262.5t-204 97.5q-121 0 -229.5 -99.5t-173 -264
t-64.5 -346.5q0 -167 73.5 -265t204.5 -98z" />
    <glyph glyph-name="one.osf" horiz-adv-x="638" 
d="M346 121q0 -65 39.5 -90t140.5 -27v-4h-542v4q128 1 174.5 41.5t68.5 163.5l99 557q10 62 10 92q0 88 -70 88q-45 0 -133 -35l-2 4q220 108 381 207h4l-160 -913q-10 -58 -10 -88z" />
    <glyph glyph-name="two.osf" horiz-adv-x="1200" 
d="M1053 367h4l-119 -377q-163 10 -553 10h-412v6q110 82 322 217q90 56 149 95.5t132.5 92t120 96.5t89 95t62.5 102t20 103q0 80 -55 128t-147 48q-126 0 -253 -80.5t-206 -206.5l-4 2q93 180 240 292t294 112q128 0 202.5 -67.5t74.5 -178.5q0 -72 -31 -138.5t-81 -121.5
t-138.5 -118t-175.5 -114t-221 -122q-83 -47 -203 -125h473q184 0 268 50t148 200z" />
    <glyph glyph-name="three.osf" horiz-adv-x="1005" 
d="M539 498q156 -14 248 -98t92 -214q0 -161 -115 -294t-324.5 -217t-482.5 -105v4q348 44 563 208t215 384q0 114 -73 181t-201 67q-89 0 -223 -58l-2 19q78 36 138.5 67.5t135 81t123.5 98t83 113t34 131.5q0 71 -53.5 114.5t-143.5 43.5q-101 0 -219.5 -63t-204.5 -160
l-4 2q97 140 234 227.5t268 87.5q120 0 190 -59.5t70 -159.5q0 -122 -97 -226t-251 -175z" />
    <glyph glyph-name="four.osf" horiz-adv-x="1214" 
d="M1071 31l-12 -31h-305l-72 -406l-129 -16h-4l74 422h-691v6l924 1075h88l-186 -1061q159 0 309 11h4zM-31 20h658l170 963z" />
    <glyph glyph-name="five.osf" horiz-adv-x="1124" 
d="M1012 963h-656l-147 -351q346 -37 518 -146.5t172 -303.5q0 -162 -114 -291t-324 -208t-486 -93v4q354 36 569.5 180t215.5 352q0 158 -156.5 249.5t-468.5 127.5l-2 6l250 592h111q246 0 371 7.5t210 33.5h4z" />
    <glyph glyph-name="six.osf" horiz-adv-x="1253" 
d="M735 862q160 0 256 -90.5t96 -241.5q0 -114 -44.5 -216t-121 -175t-182 -116t-223.5 -43q-183 0 -286 120t-103 324q0 199 92 389.5t249.5 344.5t362.5 274.5t437 193.5l2 -4q-219 -89 -408 -223.5t-335 -318t-212 -386.5q91 76 203.5 122t216.5 46zM522 4
q111 0 210.5 77.5t158.5 205t59 268.5q0 128 -65.5 204.5t-175.5 76.5q-107 0 -223.5 -68t-198.5 -178q-23 -115 -23 -215q0 -171 68.5 -271t189.5 -100z" />
    <glyph glyph-name="seven.osf" horiz-adv-x="1153" 
d="M1163 1081l2 -6q-305 -378 -515 -726.5t-320 -690.5q-28 -88 -101 -88q-57 0 -57 53q0 99 138.5 343t343.5 520t395 477h-527q-64 0 -107.5 -5t-89.5 -21t-82.5 -46.5t-74.5 -80.5t-78 -124l-4 2l195 424h2q104 -31 530 -31h350z" />
    <glyph glyph-name="eight.osf" horiz-adv-x="1286" 
d="M770 819q46 -27 70.5 -41.5t65.5 -42t63.5 -47.5t52 -50.5t44 -59t25.5 -65.5t11 -77q0 -192 -162 -324t-401 -132q-194 0 -307 86t-113 229q0 83 39.5 158.5t106.5 132t146.5 98t168.5 68.5q-56 35 -95.5 67t-76.5 74t-55.5 93.5t-18.5 111.5q0 178 134.5 295.5
t338.5 117.5q167 0 263.5 -74.5t96.5 -201.5q0 -75 -34.5 -144t-92.5 -120t-127.5 -89t-146.5 -61q1 0 2 -1t2 -1zM461 1161q0 -44 16.5 -84.5t40 -71t65 -63.5t75.5 -55t87 -53q129 59 220.5 170.5t91.5 244.5q0 109 -67.5 173.5t-186.5 64.5q-141 0 -241.5 -95.5
t-100.5 -230.5zM543 4q177 0 301.5 108.5t124.5 260.5q0 43 -17 83t-40.5 69t-67.5 62.5t-77 54t-89 52.5l-74 43q-73 -35 -137.5 -80.5t-118.5 -102.5t-85.5 -127.5t-31.5 -143.5q0 -128 84 -203.5t228 -75.5z" />
    <glyph glyph-name="nine.osf" horiz-adv-x="1161" 
d="M655 1102q185 0 291.5 -121t106.5 -328q0 -218 -111.5 -432t-312 -385t-455.5 -266l-2 4q254 128 441 353.5t261 486.5q-92 -79 -206.5 -126.5t-221.5 -47.5q-161 0 -256.5 88t-95.5 237q0 147 74 270.5t203 195t284 71.5zM475 268q108 0 224.5 67t197.5 177
q18 94 18 190q0 172 -71 273.5t-193 101.5q-108 0 -205 -75t-155 -199t-58 -262q0 -124 66 -198.5t176 -74.5z" />
    <glyph glyph-name="zero.dnom" horiz-adv-x="800" 
d="M305 -12q-112 0 -175.5 82.5t-63.5 224.5q0 147 53 274.5t143 203t195 75.5q110 0 173.5 -82.5t63.5 -222.5q0 -147 -53 -275t-143 -204t-193 -76zM307 6q64 0 127.5 90.5t103.5 230.5t40 277q0 104 -33 164.5t-92 60.5q-65 0 -128.5 -90t-103 -229.5t-39.5 -278.5
q0 -105 33 -165t92 -60z" />
    <glyph glyph-name="one.dnom" horiz-adv-x="516" 
d="M246 84q0 -43 24.5 -60t85.5 -20v-4h-368v4q77 3 108 30t43 101l90 494q4 32 4 45q0 47 -43 47q-28 0 -88 -25l-2 4q194 101 277 158h2l-129 -723q-4 -23 -4 -51z" />
    <glyph glyph-name="two.dnom" horiz-adv-x="761" 
d="M371 104q112 0 164 30.5t90 121.5h4l-82 -262q-99 6 -367 6h-217l-2 4q88 85 197 170q48 39 75.5 62t75.5 66.5t76.5 77.5t59.5 77t46 85.5t15 82.5q0 56 -33.5 88t-93.5 32q-72 0 -144.5 -44t-117.5 -117l-4 2q62 119 155.5 190.5t188.5 71.5q82 0 130 -44.5t48 -117.5
q0 -51 -20.5 -104t-59 -100.5t-78 -88t-93.5 -81t-87.5 -64t-77.5 -51.5q-41 -28 -125 -93h277z" />
    <glyph glyph-name="three.dnom" horiz-adv-x="675" 
d="M317 514q104 -21 162 -72t58 -129q0 -135 -142 -222.5t-391 -102.5v4q188 19 302 95.5t114 184.5q0 115 -213 146l-2 4l309 311h-190q-87 0 -135.5 -27.5t-94.5 -109.5l-4 2l109 258h2q64 -18 338 -18h98l2 -4z" />
    <glyph glyph-name="four.dnom" horiz-adv-x="757" 
d="M475 242l-20 -121q-4 -25 -4 -45q0 -38 20.5 -53.5t73.5 -18.5v-4h-357v4q80 3 112.5 31.5t45.5 107.5l19 99h-369l-2 2l506 594h82l-103 -578q91 0 174 6h2l-8 -24h-172zM31 260h336l90 502z" />
    <glyph glyph-name="five.dnom" horiz-adv-x="665" 
d="M582 731h-375l-66 -160q200 -20 295.5 -78.5t95.5 -160.5q0 -146 -145.5 -238t-390.5 -106v4q188 19 303 98.5t115 188.5q0 78 -83 122.5t-251 63.5v4l149 369h76q247 0 328 22h2z" />
    <glyph glyph-name="six.dnom" horiz-adv-x="733" 
d="M403 487q94 0 152.5 -52.5t58.5 -139.5q0 -128 -98 -217.5t-237 -89.5q-108 0 -171 69t-63 185q0 133 79 257t205 212t279 137l2 -4q-135 -61 -244 -172t-161 -254q94 69 198 69zM281 6q82 0 147.5 97.5t65.5 215.5q0 66 -31 107t-82 41t-104 -31t-93 -82
q-20 -73 -20 -159t31 -137.5t86 -51.5z" />
    <glyph glyph-name="seven.dnom" horiz-adv-x="696" 
d="M514 838h197v-4q-351 -439 -453 -777q-23 -69 -82 -69q-21 0 -33 12t-12 33q0 81 158.5 306.5t324.5 391.5h-313q-90 0 -136 -27t-95 -108l-4 2l110 258h2q62 -18 336 -18z" />
    <glyph glyph-name="eight.dnom" horiz-adv-x="751" 
d="M420 471q44 -26 69.5 -43t57 -44.5t46.5 -59.5t15 -70q0 -112 -96.5 -189t-237.5 -77q-113 0 -179 48t-66 130q0 88 73.5 151t176.5 91q-63 39 -98.5 85t-35.5 111q0 106 79.5 175t201.5 69q100 0 159.5 -43t59.5 -115q0 -79 -66 -137t-159 -82zM422 829
q-71 0 -122.5 -50t-51.5 -120q0 -57 39 -96.5t112 -81.5q68 38 112 96t44 125q0 59 -36 93t-97 34zM279 6q90 0 154.5 57.5t64.5 137.5q0 29 -12 54t-38.5 47t-48.5 36t-61 35q-6 4 -19.5 11t-19.5 11q-75 -40 -126.5 -102.5t-51.5 -138.5q0 -66 43 -107t115 -41z" />
    <glyph glyph-name="nine.dnom" horiz-adv-x="731" 
d="M403 848q110 0 174 -68.5t64 -185.5q0 -185 -143.5 -354.5t-368.5 -251.5l-2 4q126 65 223 184t142 260q-98 -74 -209 -74q-94 0 -151.5 51t-57.5 136q0 126 95.5 212.5t233.5 86.5zM510 504q14 79 14 137q0 88 -33.5 138t-91.5 50q-79 0 -141.5 -95t-62.5 -210
q0 -64 30.5 -103.5t83.5 -39.5q50 0 106 34t95 89z" />
    <glyph glyph-name="zero.numr" horiz-adv-x="800" 
d="M420 641q-112 0 -176 82.5t-64 224.5q0 147 53 274.5t143 203t195 75.5q110 0 174 -82.5t64 -222.5q0 -147 -53 -275t-143 -204t-193 -76zM422 659q48 0 97.5 54.5t87 139t61.5 193t24 211.5q0 104 -33 165t-92 61q-65 0 -128 -90t-102.5 -229.5t-39.5 -278.5
q0 -105 33 -165.5t92 -60.5z" />
    <glyph glyph-name="one.numr" horiz-adv-x="516" 
d="M362 737q0 -43 24.5 -60t86.5 -20v-4h-369v4q78 3 109 30t43 101l90 494q4 32 4 45q0 47 -43 47q-31 0 -88 -24l-2 4q9 5 46.5 24t49 25.5t42 23t48 26.5t43 25.5t48.5 30.5h2l-129 -721q-5 -29 -5 -51z" />
    <glyph glyph-name="two.numr" horiz-adv-x="761" 
d="M485 758q112 0 165 30t91 121h4l-81 -262q-102 6 -369 6h-217l-2 4q73 70 196 170q44 36 64.5 53t65 56t68.5 64t57.5 64.5t51 71t31 69.5t13.5 73q0 56 -34.5 88.5t-92.5 32.5q-74 0 -146.5 -44.5t-118.5 -117.5l-4 2q62 119 155.5 190.5t188.5 71.5q82 0 130.5 -44.5
t48.5 -117.5q0 -52 -20.5 -105t-59.5 -101t-78 -87.5t-93.5 -80.5t-87 -63.5t-77.5 -51.5q-59 -40 -123 -92h274z" />
    <glyph glyph-name="three.numr" horiz-adv-x="675" 
d="M434 1167q104 -21 161.5 -71.5t57.5 -128.5q0 -135 -142 -223t-390 -103v4q188 19 302 96t114 185q0 114 -213 145l-2 4l309 311h-191q-86 0 -134.5 -27.5t-94.5 -109.5l-4 2l108 258h2q64 -18 338 -18h99l2 -4z" />
    <glyph glyph-name="four.numr" horiz-adv-x="753" 
d="M590 895l-21 -121q-4 -25 -4 -45q0 -38 21 -53.5t73 -18.5v-4h-356v4q81 3 113.5 31.5t46.5 108.5l16 98h-366l-2 2l503 594h82l-102 -578q81 0 174 7h2l-8 -25h-172zM145 913h338l88 500z" />
    <glyph glyph-name="five.numr" horiz-adv-x="669" 
d="M696 1384h-372l-68 -157q202 -22 297.5 -81t95.5 -161q0 -146 -145.5 -238t-390.5 -106v4q188 19 302.5 98.5t114.5 188.5q0 78 -83 122.5t-252 63.5v4l151 369h76q247 0 328 22h2z" />
    <glyph glyph-name="six.numr" horiz-adv-x="735" 
d="M520 1141q94 0 152.5 -53t58.5 -140q0 -127 -98 -217t-238 -90q-108 0 -170.5 69t-62.5 185q0 133 79 257t205 212t279 137l2 -4q-136 -61 -246 -173t-162 -255q98 72 201 72zM397 659q82 0 147.5 98t65.5 216q0 66 -30.5 106.5t-81.5 40.5t-104 -30.5t-93 -81.5
q-20 -73 -20 -160t30.5 -138t85.5 -51z" />
    <glyph glyph-name="seven.numr" horiz-adv-x="696" 
d="M631 1491h196v-4q-352 -445 -452 -776q-20 -70 -80 -70q-47 0 -47 43q0 82 159 308t326 392h-315q-89 0 -136 -27t-96 -108l-4 2l111 258h2q64 -18 336 -18z" />
    <glyph glyph-name="eight.numr" horiz-adv-x="751" 
d="M535 1124q44 -26 69.5 -43t57 -44.5t46.5 -59.5t15 -70q0 -112 -96.5 -189t-237.5 -77q-113 0 -179.5 48t-66.5 130q0 89 74.5 152.5t177.5 87.5q-64 41 -99.5 87.5t-35.5 110.5q0 105 80 174.5t201 69.5q100 0 159.5 -43t59.5 -115q0 -79 -66 -137t-159 -82zM537 1483
q-71 0 -121.5 -50t-50.5 -120q0 -57 38 -96t113 -82q67 38 110.5 96t43.5 125q0 59 -35 93t-98 34zM393 659q90 0 154.5 57.5t64.5 137.5q0 55 -40 92t-119 80l-37 21q-76 -38 -128 -101t-52 -139q0 -66 42.5 -107t114.5 -41z" />
    <glyph glyph-name="nine.numr" horiz-adv-x="731" 
d="M518 1501q110 0 174 -68.5t64 -185.5q0 -185 -143.5 -354.5t-368.5 -251.5l-2 4q126 65 222.5 184.5t141.5 260.5q-98 -74 -209 -74q-94 0 -151.5 51t-57.5 135q0 126 96 212.5t234 86.5zM625 1157q14 79 14 137q0 88 -33.5 138.5t-91.5 50.5q-79 0 -142 -95t-63 -210
q0 -64 31 -104t84 -40q50 0 106 34t95 89z" />
    <glyph glyph-name="exclamdown.case" horiz-adv-x="679" 
d="M436 1274q-54 0 -86.5 29.5t-32.5 80.5q0 53 37.5 90t91.5 37t86.5 -30t32.5 -80q0 -54 -37.5 -90.5t-91.5 -36.5zM193 -20q-76 0 -76 73q0 90 141 563q109 384 129 476h4q-35 -239 -45 -496q-8 -316 -43 -514q-9 -50 -38.5 -76t-71.5 -26z" />
    <glyph glyph-name="questiondown.case" horiz-adv-x="940" 
d="M756 1511q54 0 85 -30t31 -80q0 -54 -37 -90.5t-90 -36.5q-55 0 -86.5 29.5t-31.5 80.5q0 53 37.5 90t91.5 37zM287 127h432q4 -16 4 -31q0 -52 -42 -84t-97 -32q-130 0 -237.5 63.5t-166.5 165t-59 215.5q0 188 139.5 297.5t382.5 120.5q42 125 66 250h4q-9 -208 4 -373
l-6 -4q-266 -8 -409.5 -90.5t-143.5 -235.5q0 -139 129 -262z" />
    <glyph glyph-name="parenleft.case" horiz-adv-x="718" 
d="M571 -242q-421 281 -421 774q0 378 204.5 699t569.5 518l2 -4q-300 -212 -475 -548.5t-175 -702.5q0 -226 79.5 -412.5t222.5 -319.5z" />
    <glyph glyph-name="parenright.case" horiz-adv-x="718" 
d="M-203 -242l-4 4q301 212 475 548.5t174 703.5q0 227 -78.5 412.5t-220.5 318.5l4 4q424 -283 424 -774q0 -376 -204 -697.5t-570 -519.5z" />
    <glyph glyph-name="braceleft.case" horiz-adv-x="731" 
d="M414 1356q0 127 113.5 216.5t381.5 172.5v-4q-194 -99 -276 -178.5t-82 -188.5q0 -54 22 -147q27 -121 27 -176q0 -132 -80.5 -207t-238.5 -90q235 -23 235 -187q0 -46 -21 -105.5t-36 -88t-51 -92.5q-45 -74 -69 -128t-24 -104q0 -71 55.5 -133.5t192.5 -148.5l-4 -5
q-206 71 -289.5 141.5t-83.5 159.5q0 53 24.5 109t72.5 137q35 59 53 94.5t34.5 87t16.5 97.5q0 155 -219 155h-12l4 21h12q142 0 217.5 68t75.5 196q0 46 -27 170q-24 108 -24 158z" />
    <glyph glyph-name="braceright.case" horiz-adv-x="731" 
d="M561 764h12l-4 -21h-12q-142 0 -217.5 -68t-75.5 -196q0 -56 27 -174q24 -91 24 -153q0 -129 -114 -218.5t-379 -171.5l-2 5q195 100 276.5 178.5t81.5 187.5q0 58 -22 148q-27 119 -27 176q0 132 81 207t241 90q-238 22 -238 186q0 36 8.5 72.5t31.5 83.5t32 64t39 69
q44 73 67 126.5t23 104.5q0 72 -56 134.5t-190 146.5l2 4q206 -70 289.5 -141.5t83.5 -157.5q0 -38 -15 -84t-31 -77t-48 -87q-37 -63 -54.5 -96t-35 -85t-17.5 -97q0 -156 219 -156z" />
    <glyph glyph-name="bracketleft.case" horiz-adv-x="833" 
d="M512 1753h428v-4q-175 -5 -243.5 -57.5t-94.5 -204.5l-260 -1467q-10 -65 -10 -102q0 -90 55.5 -123.5t200.5 -36.5v-4h-428l45 254l262 1491z" />
    <glyph glyph-name="bracketright.case" horiz-adv-x="815" 
d="M246 1753h428l-45 -254l-262 -1491l-45 -254h-428v4q175 5 243 57.5t94 204.5l261 1467q10 65 10 100q0 90 -56.5 124.5t-199.5 37.5v4z" />
    <glyph glyph-name="hyphen.case" horiz-adv-x="872" 
d="M96 756l8 20h672l-8 -20h-672z" />
    <glyph glyph-name="uni00AD.case" horiz-adv-x="872" 
d="M96 756l8 20h672l-8 -20h-672z" />
    <glyph glyph-name="endash.case" horiz-adv-x="1181" 
d="M96 756l8 20h981l-8 -20h-981z" />
    <glyph glyph-name="emdash.case" horiz-adv-x="1642" 
d="M96 756l8 20h1440l-8 -20h-1440z" />
    <glyph glyph-name="guillemotleft.case" horiz-adv-x="880" 
d="M496 1161l-269 -397l127 -399l-4 -3l-258 383l6 35l394 383zM788 1161l-266 -397l127 -399l-4 -3l-258 383l6 35l391 383z" />
    <glyph glyph-name="guillemotright.case" horiz-adv-x="880" 
d="M496 780l-9 -35l-391 -383l-4 3l268 399l-127 397l5 2zM530 1163l258 -383l-6 -35l-391 -383l-4 3l266 397l-127 399z" />
    <glyph glyph-name="guilsinglleft.case" horiz-adv-x="585" 
d="M496 1161l-269 -397l127 -399l-4 -3l-258 383l6 35l394 383z" />
    <glyph glyph-name="guilsinglright.case" horiz-adv-x="585" 
d="M238 1163l258 -383l-9 -35l-391 -383l-4 3l268 399l-127 397z" />
    <glyph glyph-name="uni20BF.osf" horiz-adv-x="1228" 
d="M793 623q136 -9 213 -76.5t77 -175.5q0 -155 -120 -263t-293 -108h-15l-37 -205h-22l37 205h-234l-37 -205h-22l37 205h-389v4q109 3 153 42.5t64 154.5l137 782q10 58 10 84q0 63 -34 87t-119 26v4h387l32 192h23l-33 -192h201q23 0 35 -2l33 194h22l-33 -196
q109 -12 170.5 -72t61.5 -154q0 -126 -84.5 -217t-220.5 -114zM766 1163h-262l-94 -536h262q120 0 203 97.5t83 238.5q0 93 -50.5 146.5t-141.5 53.5zM631 20q128 0 219.5 107t91.5 256q0 102 -59.5 162.5t-163.5 60.5h-313l-72 -405q-12 -61 -12 -101q0 -45 18 -62.5
t61 -17.5h230z" />
    <glyph glyph-name="cent.osf" horiz-adv-x="1136" 
d="M913 612q-16 0 -28 6v410q-58 49 -170 49q-21 0 -31 -2l-174 -999q32 -4 53 -4q96 0 202 55t177 145l4 -2q-75 -128 -199.5 -207.5t-254.5 -82.5l-33 -193l-21 4l33 189q-168 3 -264 113.5t-96 297.5q0 184 73.5 341.5t200.5 255t281 112.5l32 192l23 -4l-33 -186h29
q144 0 226.5 -77t82.5 -208q0 -88 -33.5 -146.5t-79.5 -58.5zM487 80l172 993q-115 -17 -208.5 -103t-147 -222.5t-53.5 -296.5q0 -151 62.5 -248.5t174.5 -122.5z" />
    <glyph glyph-name="dollar.osf" horiz-adv-x="1171" 
d="M1042 821q-15 138 -105 233.5t-218 119.5l-86 -500l26 -12q44 -19 71 -31t66 -32t63 -37t52 -41.5t43.5 -48.5t26 -55.5t10.5 -66.5q0 -164 -133.5 -267t-345.5 -103h-8l-35 -191l-20 4l32 187q-75 4 -156.5 36.5t-103.5 32.5q-23 0 -40.5 -12t-45.5 -47h-4l-6 387l4 2
q20 -164 118.5 -265t237.5 -110l97 541q-46 20 -70 31t-65 32t-63.5 37t-51.5 41t-44 49.5t-25.5 57.5t-10.5 69q0 148 112.5 245t284.5 97q9 0 26.5 -1t26.5 -1l31 180l21 -4l-31 -180q49 -7 125 -31t106 -24q22 0 36.5 10t37.5 41h4l15 -371zM610 684l86 492q-32 4 -53 4
q-117 0 -195.5 -72.5t-78.5 -179.5q0 -80 63 -135.5t178 -108.5zM868 287q0 43 -20.5 79t-62.5 67t-81.5 52.5t-101.5 49.5l-94 -531h2q158 0 258 79t100 204z" />
    <glyph glyph-name="Euro.osf" horiz-adv-x="1286" 
d="M1210 1194h4l-63 -373h-4q15 161 -62 259t-225 98q-134 0 -251.5 -122.5t-180.5 -316.5h444l-8 -20h-442q-33 -117 -41 -230h407l-8 -20h-401q-2 -23 -2 -66q0 -184 73.5 -290.5t202.5 -106.5q154 0 270 103.5t156 273.5h4l-67 -393h-4q-22 32 -36.5 42.5t-37.5 10.5
q-25 0 -125.5 -31.5t-175.5 -31.5q-186 0 -292.5 122t-106.5 330v37h-177l9 20h170q6 121 41 230h-177l9 20h176q72 208 224.5 336.5t338.5 128.5q77 0 163.5 -29.5t104.5 -29.5q21 0 39.5 10t50.5 39z" />
    <glyph glyph-name="sterling.osf" horiz-adv-x="1329" 
d="M1120 760q-18 0 -33 6v358q-69 56 -188 56q-89 0 -156 -31.5t-107.5 -89t-63 -122.5t-35.5 -149q-11 -85 -15 -147q0 -8 -1 -23t-1 -22h479l-8 -21h-473q0 -37 -6 -77q-15 -128 -94 -227t-205 -154h532q71 0 117.5 4.5t93 19t79.5 42.5t65 73.5t61 112.5h4l-118 -379
q-173 10 -627 10h-357v6q91 63 136 111q89 90 130.5 197t55.5 261h-209l8 21h203q2 22 19 166q29 206 168.5 324t338.5 118q147 0 231.5 -73t84.5 -195q0 -78 -30.5 -127t-78.5 -49z" />
    <glyph glyph-name="yen.osf" horiz-adv-x="1257" 
d="M846 1184h461v-4q-51 -7 -94.5 -34t-108.5 -95.5t-170 -202.5l-254 -334h315l-8 -20h-315l-41 -230h321l-8 -20h-317v-2q-13 -63 -13 -103q0 -73 42.5 -102.5t144.5 -32.5v-4h-568v4q134 3 186 51t77 187v2h-314l8 20h310l41 225l-2 5h-314l8 20h297l-190 455
q-49 118 -82.5 160t-93.5 51v4h512v-4q-199 -22 -199 -138q0 -45 39 -131l160 -366l229 299q71 93 97 140t26 85q0 51 -43.5 78t-138.5 33v4z" />
    <glyph glyph-name="percent.osf" horiz-adv-x="1671" 
d="M346 -49l-12 12l989 1167l14 -12zM418 479q-108 0 -170 65t-62 173q0 161 99.5 273t240.5 112q105 0 167.5 -64t62.5 -172q0 -161 -98.5 -274t-239.5 -113zM420 498q91 0 163 124.5t72 278.5q0 84 -35.5 133t-97.5 49q-61 0 -115.5 -57.5t-87 -151t-32.5 -194.5
q0 -84 34.5 -133t98.5 -49zM1145 -23q-105 0 -166 64.5t-61 171.5q0 163 98 275t239 112q105 0 166.5 -63.5t61.5 -171.5q0 -162 -98 -275t-240 -113zM1149 -4q61 0 115.5 58t87 151.5t32.5 193.5q0 85 -34.5 134t-98.5 49q-60 0 -115 -59t-87.5 -152.5t-32.5 -192.5
q0 -85 35 -133.5t98 -48.5z" />
    <glyph glyph-name="perthousand.osf" horiz-adv-x="2248" 
d="M303 -49l-12 12l989 1167l14 -12zM373 479q-106 0 -168 65t-62 173q0 161 99 273t241 112q105 0 166.5 -64t61.5 -172q0 -162 -98 -274.5t-240 -112.5zM375 498q61 0 116 58t88 151.5t33 193.5q0 84 -35.5 133t-97.5 49q-61 0 -116 -57.5t-88 -151t-33 -194.5
q0 -84 35.5 -133t97.5 -49zM1102 -23q-105 0 -166.5 64.5t-61.5 171.5q0 162 98.5 274.5t239.5 112.5q105 0 166.5 -63.5t61.5 -171.5q0 -162 -98 -275t-240 -113zM1776 -23q-105 0 -166.5 64.5t-61.5 171.5q0 162 98.5 274.5t239.5 112.5q105 0 166.5 -63.5t61.5 -171.5
q0 -162 -98 -275t-240 -113zM1106 -4q61 0 115.5 58t87 151.5t32.5 193.5q0 85 -34.5 134t-98.5 49q-60 0 -115 -59t-87.5 -152.5t-32.5 -192.5q0 -85 35 -133.5t98 -48.5zM1780 -4q61 0 115.5 58t87 151.5t32.5 193.5q0 85 -34.5 134t-98.5 49q-60 0 -115 -59t-87.5 -152.5
t-32.5 -192.5q0 -85 35 -133.5t98 -48.5z" />
    <glyph glyph-name="at.case" horiz-adv-x="2134" 
d="M1260 408q0 22 6 43l96 530q-54 -152 -101.5 -264t-98.5 -203.5t-103 -148.5t-110.5 -87t-123.5 -30q-96 0 -149 77.5t-53 209.5q0 191 70.5 358t193.5 267t268 100q121 0 219 -58q98 20 154 58h2l-144 -822q-4 -28 -4 -43q0 -106 101 -106q119 0 230 111.5t179 294
t68 378.5q0 282 -188.5 450.5t-501.5 168.5q-150 0 -292.5 -42.5t-263 -119t-221 -186.5t-171 -241t-109.5 -286.5t-39 -320.5q0 -334 188 -515.5t537 -181.5q208 0 410 67t336 177l2 -4q-140 -121 -343 -192.5t-409 -71.5q-360 0 -556 187.5t-196 529.5q0 203 56 391
t159.5 338t242.5 262t312 172.5t361 60.5q325 0 520 -174t195 -467q0 -159 -45 -311t-119 -265t-174 -182t-205 -69q-84 0 -135 43t-51 117zM879 330q118 0 240 188.5t257 558.5q-27 74 -85 115t-126 41q-114 0 -209.5 -91t-149.5 -240.5t-54 -321.5q0 -115 34 -182.5
t93 -67.5z" />
    <glyph glyph-name="uni0308.case" 
d="M-700 1671q-37 0 -61.5 23.5t-24.5 60.5q0 40 28 69t68 29q37 0 60.5 -24.5t23.5 -61.5q0 -40 -27 -68t-67 -28zM-332 1671q-37 0 -61.5 23.5t-24.5 60.5q0 40 28 69t68 29q37 0 60.5 -24.5t23.5 -61.5q0 -40 -27 -68t-67 -28z" />
    <glyph glyph-name="uni0307.case" 
d="M-334 1665q-40 0 -67 26t-27 66q0 43 31 74t75 31q41 0 68 -27t27 -66q0 -44 -30.5 -74t-76.5 -30z" />
    <glyph glyph-name="gravecomb.case" 
d="M-199 1604q-314 76 -383 108q-51 22 -51 76q0 34 23 58t57 24q23 0 41 -10q114 -54 315 -252z" />
    <glyph glyph-name="acutecomb.case" 
d="M-612 1604l-2 4q201 198 315 252q17 10 41 10q34 0 57 -24t23 -58q0 -54 -51 -76q-69 -32 -383 -108z" />
    <glyph glyph-name="uni030B.case" 
d="M-864 1593l-2 4q168 227 270 299q34 19 51 19q31 0 55.5 -24.5t24.5 -57.5q0 -43 -41 -72q-53 -40 -358 -168zM-530 1593l-2 4q168 227 270 299q34 19 51 19q31 0 55.5 -24.5t24.5 -57.5q0 -47 -41 -72q-53 -40 -358 -168z" />
    <glyph glyph-name="uni0302.case" 
d="M-248 1608v-4l-244 135l-290 -135l-2 4l315 262h2z" />
    <glyph glyph-name="uni030C.case" 
d="M-526 1733l290 137v-4l-311 -262h-2l-221 262l2 4z" />
    <glyph glyph-name="uni0306.case" 
d="M-539 1604q-82 0 -147.5 69.5t-83.5 188.5l2 2q44 -66 109.5 -104t140.5 -38t154 38t145 104l2 -2q-59 -120 -149 -189t-173 -69z" />
    <glyph glyph-name="uni030A.case" 
d="M-571 1573q-91 0 -144 46t-53 124q0 92 66 154.5t163 62.5q90 0 142.5 -47t52.5 -125q0 -92 -65.5 -153.5t-161.5 -61.5zM-567 1597q82 0 138 54.5t56 132.5q0 69 -46 110t-124 41q-83 0 -139.5 -55t-56.5 -133q0 -69 47 -109.5t125 -40.5z" />
    <glyph glyph-name="tildecomb.case" 
d="M-436 1599q-78 0 -174 84q-35 28 -51 39.5t-46.5 25t-58.5 13.5q-109 0 -180 -145l-4 2q31 103 99 177.5t142 74.5q68 0 168 -84q45 -38 82 -58t78 -20q112 0 182 143l4 -2q-31 -101 -99 -175.5t-142 -74.5z" />
    <glyph glyph-name="uni0304.case" 
d="M-797 1696l9 20h591l-8 -20h-592z" />
    <glyph glyph-name="uni0304.narrow.case" 
d="M-741 1696l8 20h481l-8 -20h-481z" />
    <glyph glyph-name="uni0308.narrow" 
d="M-651 1397q-36 0 -59 23t-23 59q0 38 27 66t65 28q36 0 59 -23t23 -59q0 -40 -26 -67t-66 -27zM-383 1397q-36 0 -59 23t-23 59q0 38 27 66t65 28q36 0 59 -23t23 -59q0 -40 -26 -67t-66 -27z" />
    <glyph glyph-name="uni0304.narrow" 
d="M-739 1460l8 21h485l-8 -21h-485z" />
    </font>
</defs>
</svg>
