<?xml version="1.0" standalone="no"?>
<!DOCTYPE svg PUBLIC "-//W3C//DTD SVG 1.1//EN" "http://www.w3.org/Graphics/SVG/1.1/DTD/svg11.dtd" >
<svg xmlns="http://www.w3.org/2000/svg" xmlns:xlink="http://www.w3.org/1999/xlink" version="1.1">
<metadata>
Created by FontForge 20170731 at Fri Mar 31 05:53:56 2023
 By Aleksey,,,
Copyright (c) 2019 by Alberto Romanos. All rights reserved.
</metadata>
<defs>
<font id="BwBetoGrande-RegularItalic" horiz-adv-x="0" >
  <font-face 
    font-family="Bw Beto Grande Italic"
    font-weight="400"
    font-style="italic"
    font-stretch="normal"
    units-per-em="2048"
    panose-1="0 0 5 0 0 0 0 0 0 0"
    ascent="1638"
    descent="-410"
    x-height="1096"
    cap-height="1495"
    bbox="-961 -459 2521 1974"
    underline-thickness="102"
    underline-position="-307"
    slope="-10"
    unicode-range="U+000D-FB02"
  />
<missing-glyph horiz-adv-x="2541" 
d="M178 -20q-15 0 -25 10.5t-10 25.5q0 20 11 31l700 698h-664q-47 0 -47 39q0 18 15 33l696 701h-670q-41 0 -41 38v3q0 38 41 38h758q47 0 47 -41q0 -18 -16 -34l-699 -697h676q17 0 29 -12t12 -29v-669l695 692q16 16 34 16q37 0 37 -45v-663l697 692q16 16 32 16
q15 0 25 -12t10 -27q0 -16 -12 -28l-754 -762q-14 -14 -35 -14q-41 0 -41 47v663l-694 -696q-14 -14 -35 -14q-41 0 -41 47v663l-696 -696q-14 -14 -35 -14z" />
    <glyph glyph-name="fi" unicode="fi" horiz-adv-x="1298" 
d="M754 1065h-265l-167 -942q-37 -206 -156 -359t-277 -194l-2 4q180 137 242 471l174 993q1 4 2 13.5t2 13.5h-170l8 20h166q32 138 105.5 262.5t176 204.5t204.5 80q37 0 61.5 -24.5t24.5 -63.5q0 -42 -25 -84h-323q-119 -150 -119 -258q0 -98 78 -117h268zM1155 1587
q51 0 84 -31.5t33 -80.5q0 -55 -37.5 -91t-93.5 -36q-51 0 -84 31.5t-33 80.5q0 54 37 90.5t94 36.5zM1040 92q36 0 84 62t103 182l4 -2q-55 -171 -130.5 -262.5t-158.5 -91.5q-125 0 -125 114q0 13 4 45l137 774q5 25 5 37q0 24 -8.5 32.5t-26.5 8.5q-38 0 -86 -61.5
t-101 -181.5l-4 2q55 172 130 264t159 92q59 0 92 -29.5t33 -87.5q0 -11 -4 -43l-139 -774q-2 -20 -2 -37q0 -24 7.5 -33.5t26.5 -9.5z" />
    <glyph glyph-name="fl" unicode="fl" horiz-adv-x="1257" 
d="M995 92q37 0 85.5 62t101.5 182l4 -2q-55 -172 -130 -263t-159 -91q-125 0 -125 114q0 13 4 45l215 1207q8 51 -22 67.5t-131 16.5h-306q-50 -59 -79 -123.5t-29 -116.5q0 -42 18.5 -69.5t51.5 -35.5h272l-8 -20h-269l-167 -942q-37 -206 -156 -359t-277 -194l-2 4
q181 137 242 471l174 993l6 27h-172l8 20h168q33 133 110.5 251t185 193t216.5 75q47 0 77 -25.5t30 -67.5q0 -8 -4 -28q162 59 289 143h4l-258 -1454q-2 -20 -2 -37q0 -24 7.5 -33.5t26.5 -9.5z" />
    <glyph glyph-name=".notdef" horiz-adv-x="2541" 
d="M178 -20q-15 0 -25 10.5t-10 25.5q0 20 11 31l700 698h-664q-47 0 -47 39q0 18 15 33l696 701h-670q-41 0 -41 38v3q0 38 41 38h758q47 0 47 -41q0 -18 -16 -34l-699 -697h676q17 0 29 -12t12 -29v-669l695 692q16 16 34 16q37 0 37 -45v-663l697 692q16 16 32 16
q15 0 25 -12t10 -27q0 -16 -12 -28l-754 -762q-14 -14 -35 -14q-41 0 -41 47v663l-694 -696q-14 -14 -35 -14q-41 0 -41 47v663l-696 -696q-14 -14 -35 -14z" />
    <glyph glyph-name=".null" 
 />
    <glyph glyph-name="nonmarkingreturn" horiz-adv-x="682" 
 />
    <glyph glyph-name="CR" unicode="&#xd;" horiz-adv-x="524" 
 />
    <glyph glyph-name="space" unicode=" " horiz-adv-x="524" 
 />
    <glyph glyph-name="exclam" unicode="!" horiz-adv-x="583" 
d="M272 432q25 205 25 451q-8 304 25 503q12 64 50 97t93 33q47 0 73.5 -25.5t26.5 -71.5q0 -106 -151 -542q-99 -291 -138 -445h-4zM213 -20q-65 0 -104 37t-39 98q0 63 45.5 108t109.5 45q66 0 106 -37.5t40 -97.5q0 -63 -46.5 -108t-111.5 -45z" />
    <glyph glyph-name="quotedbl" unicode="&#x22;" horiz-adv-x="745" 
d="M285 1022v575l225 35h4l-225 -610h-4zM612 1022l-2 575l226 35h4l-224 -610h-4z" />
    <glyph glyph-name="numbersign" unicode="#" horiz-adv-x="1239" 
d="M1202 817h-260l-145 -426h262l-6 -20h-265l-126 -371h-21l127 371h-442l-125 -371h-23l127 371h-252l6 20h252l146 426h-254l6 21h256l119 350h20l-119 -350h443l119 350h22l-121 -350h260zM774 391l146 426h-441l-145 -426h440z" />
    <glyph glyph-name="dollar" unicode="$" horiz-adv-x="1196" 
d="M1120 993q-31 196 -121.5 327.5t-216.5 162.5l-104 -606q9 -5 27 -15.5t24 -13.5q48 -28 70.5 -41.5t65.5 -42t64.5 -48t52 -51.5t45 -61.5t25.5 -68t11 -80.5q0 -205 -155.5 -340t-391.5 -135h-2l-35 -193l-22 4l32 189q-71 4 -155.5 36.5t-120.5 32.5
q-28 0 -49.5 -12.5t-48.5 -46.5h-4l-11 536l4 2q29 -237 132.5 -376t257.5 -148l118 670l-8 6q-63 35 -105 61t-91 66t-78 79t-48.5 93t-19.5 115q0 183 128.5 302.5t324.5 119.5q11 0 51 -5l29 166l20 -4l-29 -164q43 -9 110.5 -39t102.5 -30q29 0 47 13t48 52h4l26 -510z
M657 889l105 598q-32 4 -51 4q-117 0 -199 -87.5t-82 -213.5q0 -95 59.5 -165t167.5 -136zM885 362q0 42 -14.5 80t-36 66.5t-58 58.5t-67 50t-76.5 47l-115 -660q157 0 262 102t105 256z" />
    <glyph glyph-name="percent" unicode="%" horiz-adv-x="1787" 
d="M242 -45l-13 14l1436 1571l12 -14zM442 643q-115 0 -180 83.5t-65 225.5q0 148 53.5 275.5t145.5 202.5t200 75q115 0 180.5 -83t65.5 -226q0 -147 -54.5 -274.5t-146.5 -203t-199 -75.5zM444 662q56 0 116 99.5t98 246.5t38 278q0 94 -27 147.5t-77 53.5q-57 0 -116 -99
t-96.5 -246.5t-37.5 -281.5q0 -93 26.5 -145.5t75.5 -52.5zM1284 -12q-116 0 -182 83.5t-66 225.5q0 148 54.5 275.5t146.5 202.5t199 75q115 0 181 -82.5t66 -224.5q0 -148 -54.5 -276t-146.5 -203.5t-198 -75.5zM1286 6q56 0 115.5 100t97 247t37.5 280q0 92 -27 145
t-77 53q-57 0 -116 -98.5t-96.5 -245.5t-37.5 -282q0 -93 27.5 -146t76.5 -53z" />
    <glyph glyph-name="ampersand" unicode="&#x26;" horiz-adv-x="1460" 
d="M1475 729l4 -2q-32 -107 -108 -185.5t-159 -78.5q-48 0 -94 22q-62 -231 -220 -368t-363 -137q-207 0 -328 90t-121 243q0 209 149 349.5t424 166.5q-143 31 -217.5 110t-74.5 181q0 168 139.5 282t343.5 114q148 0 233.5 -78t85.5 -209q0 -97 -41 -157t-96 -60
q-28 0 -45 10v434q-50 35 -141 35q-114 0 -190 -106.5t-76 -264.5q0 -84 32 -163t90 -132l-4 -6q-186 -51 -293.5 -188t-107.5 -320q0 -139 72.5 -221t199.5 -82q163 0 281.5 139t146.5 357q2 20 2 55q-74 53 -139 53q-56 0 -99.5 -31.5t-86.5 -101.5l-4 2
q30 107 105.5 185.5t158.5 78.5q32 0 65.5 -12t54.5 -25t58 -38q38 -26 57 -37.5t53 -24t66 -12.5q56 0 100 31.5t87 101.5z" />
    <glyph glyph-name="quotesingle" unicode="'" horiz-adv-x="417" 
d="M285 1022v575l225 35h4l-225 -610h-4z" />
    <glyph glyph-name="parenleft" unicode="(" horiz-adv-x="714" 
d="M524 -451q-209 141 -322.5 348.5t-113.5 469.5q0 398 214 741t595 549l2 -4q-194 -149 -338.5 -367t-222.5 -474.5t-78 -518.5q0 -458 268 -739z" />
    <glyph glyph-name="parenright" unicode=")" horiz-adv-x="712" 
d="M-158 -451l-4 5q292 227 465.5 596t173.5 763q0 456 -268 740l4 4q209 -141 321.5 -347t112.5 -468q0 -401 -214.5 -744t-590.5 -549z" />
    <glyph glyph-name="asterisk" unicode="*" horiz-adv-x="1073" 
d="M1098 1321q5 -29 -13.5 -55.5t-50.5 -36.5q-90 -30 -383 -51q176 -171 226 -258q16 -27 5.5 -54.5t-40.5 -48.5q-28 -19 -56 -14t-43 31q-44 72 -100 337q-148 -257 -225 -337q-24 -27 -53.5 -31t-49.5 14q-23 22 -23.5 50t21.5 53q60 69 320 258q-266 14 -367 51
q-28 10 -35.5 36.5t7.5 55.5q15 30 44 44t58 5q100 -36 299 -180q-15 228 -6 350q3 44 28.5 68t61.5 24q28 0 44.5 -15.5t16.5 -41.5q0 -35 -37 -143t-96 -242q253 147 363 180q32 9 55.5 -5t28.5 -44z" />
    <glyph glyph-name="plus" unicode="+" horiz-adv-x="970" 
d="M879 612l-5 -20h-368l-64 -361h-24l63 361h-368l4 20h368l64 359h24l-63 -359h369z" />
    <glyph glyph-name="comma" unicode="," horiz-adv-x="530" 
d="M27 -362l-2 4q72 49 120 122t48 142q0 53 -32 89t-87 40q-17 25 -17 61q0 69 48.5 120.5t111.5 51.5q67 0 105 -46.5t38 -123.5q0 -131 -95.5 -262.5t-237.5 -197.5z" />
    <glyph glyph-name="hyphen" unicode="-" horiz-adv-x="980" 
d="M154 592l8 20h688l-8 -20h-688z" />
    <glyph glyph-name="period" unicode="." horiz-adv-x="524" 
d="M201 -20q-66 0 -106 37.5t-40 97.5q0 63 46.5 108t109.5 45q66 0 105.5 -37.5t39.5 -97.5q0 -63 -45.5 -108t-109.5 -45z" />
    <glyph glyph-name="slash" unicode="/" horiz-adv-x="1028" 
d="M-27 -211l-22 10l1165 1850l21 -11z" />
    <glyph glyph-name="zero" unicode="0" horiz-adv-x="1329" 
d="M567 -20q-200 0 -312 145.5t-112 396.5q0 159 35.5 310t100.5 273.5t151 215.5t191.5 144t216.5 51q198 0 310 -145.5t112 -397.5q0 -264 -94 -493t-254 -364.5t-345 -135.5zM571 4q87 0 177 98t158.5 251.5t111.5 350t43 383.5q0 189 -59.5 296.5t-167.5 107.5
q-88 0 -178 -98t-158 -251.5t-111 -350.5t-43 -385q0 -189 59.5 -295.5t167.5 -106.5z" />
    <glyph glyph-name="one" unicode="1" horiz-adv-x="837" 
d="M465 145q0 -75 45 -105.5t154 -35.5v-4h-654v4q140 6 195 53.5t78 182.5l157 886q9 70 9 80q0 44 -17.5 65t-56.5 21q-42 0 -160 -43l-2 4q255 132 485 275h4l-227 -1288q-10 -62 -10 -95z" />
    <glyph glyph-name="two" unicode="2" horiz-adv-x="1275" 
d="M1165 522h4l-163 -532q-192 10 -656 10h-391v6q114 109 340 295q70 58 109 90.5t102.5 88t100 91t88 88t81.5 91.5t64 89.5t52 93.5t30 91.5t12 95.5q0 100 -61 159.5t-168 59.5q-133 0 -263 -81.5t-210 -215.5l-5 2q106 212 274.5 342t338.5 130q146 0 230.5 -79.5
t84.5 -211.5q0 -73 -27.5 -149t-61 -136t-106 -136t-118.5 -120.5t-145 -119.5t-138 -103t-142 -99q-27 -19 -40 -28q-55 -39 -199 -158h508q65 0 109.5 4t92 16t81.5 35.5t69 61.5t64.5 94.5t58.5 134.5z" />
    <glyph glyph-name="three" unicode="3" horiz-adv-x="1110" 
d="M1165 1495v-6l-575 -571q193 -40 294 -133.5t101 -233.5q0 -157 -115.5 -280.5t-330 -199t-502.5 -91.5v4q334 31 538.5 164t204.5 321q0 116 -95 183.5t-288 97.5l-2 4l566 563h-351q-78 0 -128.5 -8t-102.5 -34t-96 -76t-93 -132l-4 2l201 459h4q68 -21 203.5 -27
t392.5 -6h178z" />
    <glyph glyph-name="four" unicode="4" horiz-adv-x="1263" 
d="M881 432l-39 -219q-8 -44 -8 -84q0 -66 38 -93t132 -32v-4h-629v4q144 7 199.5 57t80.5 193l31 178h-661v6l901 1057h141l-182 -1042q173 0 303 10h4l-10 -31h-301zM61 453h629l164 925z" />
    <glyph glyph-name="five" unicode="5" horiz-adv-x="1095" 
d="M1069 1317h-676l-123 -293q360 -37 533.5 -146.5t173.5 -306.5q0 -250 -254.5 -408t-699.5 -183v4q340 34 542.5 169t202.5 330q0 149 -148 234t-448 121v6l268 651h131q250 0 374 7.5t210 33.5h4z" />
    <glyph glyph-name="six" unicode="6" horiz-adv-x="1214" 
d="M752 868q168 0 269 -92.5t101 -247.5q0 -151 -79 -277t-216.5 -198.5t-302.5 -72.5q-192 0 -302.5 122t-110.5 330q0 147 54 289.5t148 261.5t221 222.5t274 181t306 129.5l2 -5q-245 -113 -440.5 -315.5t-290.5 -456.5q79 60 176 94.5t191 34.5zM528 4q73 0 144.5 49.5
t124 129t84.5 184.5t32 211q0 121 -55 191.5t-151 70.5q-89 0 -187 -58t-170 -153q-37 -136 -37 -289q0 -156 57 -246t158 -90z" />
    <glyph glyph-name="seven" unicode="7" horiz-adv-x="1159" 
d="M1294 1495l2 -6q-299 -378 -502.5 -719t-306.5 -672q-21 -61 -54.5 -89.5t-86.5 -28.5q-80 0 -80 73q0 99 138 331t341.5 489t393.5 444h-570q-76 0 -126 -8t-102 -33.5t-97.5 -76t-93.5 -132.5l-5 2l203 459h4q65 -20 195.5 -26.5t398.5 -6.5h348z" />
    <glyph glyph-name="eight" unicode="8" horiz-adv-x="1243" 
d="M772 840q40 -23 62 -36.5t58.5 -37t58 -41.5t49.5 -43t44 -49t32 -52.5t23 -60.5t7 -67q0 -131 -76.5 -239.5t-212 -171t-299.5 -62.5q-202 0 -321 86.5t-119 232.5q0 79 37.5 149.5t101.5 123.5t143.5 92t169.5 63q-116 73 -180.5 154.5t-64.5 197.5q0 189 142 313
t361 124q177 0 281.5 -77t104.5 -206q0 -73 -34 -138t-92 -113.5t-128.5 -83.5t-149.5 -56zM784 1491q-132 0 -224.5 -90.5t-92.5 -220.5q0 -44 16.5 -85t40.5 -71.5t64 -63.5t73.5 -55t83.5 -51q112 60 194.5 170t82.5 236q0 105 -64 168t-174 63zM522 4q163 0 279.5 102
t116.5 248q0 52 -22 96.5t-69 85t-87 66.5t-109 66q-45 25 -76 45q-136 -78 -227.5 -194.5t-91.5 -248.5q0 -122 76.5 -194t209.5 -72z" />
    <glyph glyph-name="nine" unicode="9" horiz-adv-x="1208" 
d="M750 1516q195 0 308 -123.5t113 -331.5q0 -217 -116 -430.5t-324.5 -384.5t-472.5 -266l-2 4q226 119 399.5 331.5t253.5 464.5q-82 -62 -181 -98.5t-193 -36.5q-168 0 -270.5 91t-102.5 243q0 148 77.5 271.5t213 194.5t297.5 71zM578 676q91 0 190.5 60t171.5 159
q29 139 29 256q0 157 -60 248.5t-164 91.5q-96 0 -183.5 -81t-140 -211t-52.5 -267q0 -118 55.5 -187t153.5 -69z" />
    <glyph glyph-name="colon" unicode=":" horiz-adv-x="579" 
d="M358 817q-66 0 -105.5 37.5t-39.5 97.5q0 63 46.5 108.5t111.5 45.5q64 0 103.5 -37.5t39.5 -97.5q0 -63 -46 -108.5t-110 -45.5zM211 -20q-65 0 -104 37t-39 98q0 63 45.5 108t109.5 45q66 0 106 -37.5t40 -97.5q0 -63 -46.5 -108t-111.5 -45z" />
    <glyph glyph-name="semicolon" unicode=";" horiz-adv-x="598" 
d="M365 817q-66 0 -106 37.5t-40 97.5q0 63 46 108.5t110 45.5q66 0 105.5 -37.5t39.5 -97.5q0 -63 -45.5 -108.5t-109.5 -45.5zM41 -362l-2 4q72 49 120 122t48 142q0 53 -32 89t-87 40q-16 24 -16 61q0 69 48 120.5t111 51.5q67 0 105.5 -46.5t38.5 -123.5
q0 -130 -95.5 -262t-238.5 -198z" />
    <glyph glyph-name="less" unicode="&#x3c;" horiz-adv-x="970" 
d="M811 317l-711 283v4l813 303l-4 -22l-755 -283l661 -262z" />
    <glyph glyph-name="equal" unicode="=" horiz-adv-x="970" 
d="M139 739l4 21h760l-4 -21h-760zM88 444l4 21h760l-4 -21h-760z" />
    <glyph glyph-name="greater" unicode="&#x3e;" horiz-adv-x="970" 
d="M82 317l4 23l752 262l-656 283l4 22l707 -303v-4z" />
    <glyph glyph-name="question" unicode="?" horiz-adv-x="872" 
d="M401 1516q126 0 233 -65.5t166.5 -169.5t59.5 -218q0 -184 -141 -291.5t-379 -118.5q-41 -117 -64 -221h-4q3 202 -20 389l6 4q264 6 412.5 81.5t148.5 211.5q0 121 -108 223h-465q-4 20 -4 35q0 62 46.5 101t112.5 39zM244 268q65 0 104 -37t39 -98q0 -63 -46 -108
t-110 -45q-66 0 -105.5 37.5t-39.5 97.5q0 63 46.5 108t111.5 45z" />
    <glyph glyph-name="at" unicode="@" horiz-adv-x="2009" 
d="M1174 215q0 13 4 45l88 488q-124 -375 -238 -539t-268 -164q-96 0 -151.5 80t-55.5 217q0 191 70 356t193 263t269 98q115 0 211 -62q121 26 187 62h4l-146 -819q-2 -16 -2 -41q0 -50 26 -75.5t73 -25.5q120 0 231 109t178.5 288t67.5 373q0 187 -86.5 328.5t-245 218
t-366.5 76.5q-151 0 -295 -42.5t-266 -119.5t-224.5 -187t-174 -241.5t-111.5 -287t-40 -318.5q0 -337 192 -519t548 -182q208 0 411.5 65.5t341.5 174.5l3 -4q-146 -118 -352 -189t-408 -71q-366 0 -565 188t-199 533q0 252 89.5 479t242.5 390.5t364.5 259.5t446.5 96
q328 0 525.5 -176t197.5 -470q0 -160 -47 -312t-124.5 -264.5t-183 -180.5t-217.5 -68q-89 0 -143.5 44t-54.5 126zM844 154q106 0 213 176.5t229 541.5q-21 77 -70 118.5t-110 41.5q-103 0 -191 -89t-138 -235.5t-50 -312.5q0 -110 31.5 -175.5t85.5 -65.5z" />
    <glyph glyph-name="A" unicode="A" horiz-adv-x="1505" 
d="M1241 201q13 -62 23 -93t29 -56.5t47.5 -35t76.5 -12.5v-4h-631v4q132 13 190 47t58 117q0 6 -10 78l-57 293h-605l-92 -170q-53 -94 -73.5 -147.5t-20.5 -96.5q0 -60 50.5 -86.5t168.5 -34.5v-4h-489v4q42 5 76 20t60 35t56 61t52.5 79.5t60.5 107.5l565 1026l-14 78
q89 39 176 105h33zM375 559h588l-156 793z" />
    <glyph glyph-name="B" unicode="B" horiz-adv-x="1501" 
d="M997 772q178 -9 280.5 -92.5t102.5 -220.5q0 -129 -73 -234.5t-202 -165t-288 -59.5h-829v4q120 6 167.5 48t69.5 161l189 1069q8 44 8 84q0 67 -38 93.5t-134 31.5l2 4h776q180 0 284.5 -80t104.5 -215q0 -163 -118.5 -281.5t-301.5 -146.5zM1206 1219
q0 119 -62.5 187.5t-176.5 68.5h-328l-121 -697h326q153 0 257.5 127t104.5 314zM756 20q175 0 293 133t118 328q0 128 -72 202.5t-204 74.5h-377l-98 -559q-10 -58 -10 -88q0 -52 24.5 -71.5t85.5 -19.5h240z" />
    <glyph glyph-name="C" unicode="C" horiz-adv-x="1392" 
d="M639 -20q-237 0 -373.5 153t-136.5 414q0 159 41 306.5t116 267t175.5 209t225.5 138t259 48.5q61 0 121 -18t104.5 -36t67.5 -18q26 0 45 12.5t43 48.5h4l23 -530l-4 -2q-36 263 -142.5 390.5t-271.5 127.5q-160 0 -298 -116.5t-219 -315t-81 -428.5q0 -238 111.5 -377
t306.5 -139q139 0 284.5 73.5t237.5 194.5l4 -2q-102 -179 -278.5 -290t-364.5 -111z" />
    <glyph glyph-name="D" unicode="D" horiz-adv-x="1611" 
d="M932 1495q288 0 454 -158.5t166 -427.5q0 -189 -68.5 -357.5t-185.5 -289.5t-281.5 -191.5t-348.5 -70.5h-680v4q120 6 167.5 48t69.5 161l189 1069q8 44 8 84q0 67 -38 93.5t-134 31.5l2 4h680zM635 20q192 0 356 126.5t259.5 342t95.5 467.5q0 240 -118.5 379.5
t-330.5 139.5h-258l-223 -1276q-13 -70 -13 -99q0 -45 19.5 -62.5t64.5 -17.5h148z" />
    <glyph glyph-name="E" unicode="E" horiz-adv-x="1474" 
d="M727 20q68 0 119 5t103 18.5t94.5 38t86.5 62.5t86 93.5t87 129t94 170.5l4 -2l-266 -545q-120 10 -367 10h-780v4q120 6 167.5 48t69.5 161l189 1069q8 44 8 84q0 67 -37.5 93.5t-132.5 31.5v4h733q235 0 358 10l60 -524l-4 -2q-15 109 -35 187.5t-51 134t-66.5 89.5
t-89.5 53t-111.5 25.5t-140.5 6.5h-266l-121 -697h176q65 0 108 13t83 51.5t71.5 106.5t65.5 179h4q-85 -424 -131 -741h-4q2 35 2 92q0 89 -10.5 144t-37 85t-62 40t-93.5 10h-176l-98 -559q-10 -58 -10 -88q0 -52 24.5 -71.5t85.5 -19.5h211z" />
    <glyph glyph-name="F" unicode="F" horiz-adv-x="1343" 
d="M1325 1505l59 -524l-4 -2q-14 109 -34 187.5t-51 134t-66.5 89.5t-89.5 53t-111.5 25.5t-140.5 6.5h-248l-125 -717h166q51 0 85.5 6.5t69.5 27t62 59t54 101.5t55 156h4q-82 -410 -129 -741h-4q4 74 4 96q0 89 -11 143.5t-38.5 83t-62.5 38t-93 9.5h-166l-86 -483
q-10 -65 -10 -102q0 -78 45.5 -110t156.5 -38v-4h-628v4q120 6 167.5 48t69.5 161l189 1069q8 44 8 84q0 67 -38 93.5t-134 31.5l2 4h715q235 0 358 10z" />
    <glyph glyph-name="G" unicode="G" horiz-adv-x="1548" 
d="M895 668h635v-4q-109 -6 -153.5 -47t-63.5 -154l-62 -350q-55 -5 -168 -47q-229 -86 -376 -86q-268 0 -422 158t-154 427q0 196 67 372.5t181 303t273.5 201t336.5 74.5q74 0 137.5 -19t111.5 -38t83 -19q30 0 52 13t50 52h4l-43 -530h-4q-4 244 -108.5 380t-286.5 136
q-103 0 -201.5 -51t-178 -144t-140 -214.5t-94 -270.5t-33.5 -305q0 -233 98.5 -367.5t274.5 -134.5q84 0 178 41.5t176 110.5l47 258q8 49 8 96q0 83 -49 115.5t-176 38.5v4z" />
    <glyph glyph-name="H" unicode="H" horiz-adv-x="1638" 
d="M1133 1495h591v-4q-121 -6 -169 -48t-68 -161l-189 -1069q-8 -44 -8 -86q0 -65 37.5 -91.5t132.5 -31.5v-4h-592v4q121 6 168.5 47.5t69.5 161.5l96 545h-688l-96 -545q-10 -55 -10 -86q0 -65 38.5 -91.5t133.5 -31.5v-4h-592v4q120 6 167.5 48t69.5 161l189 1069
q8 44 8 84q0 67 -37.5 93.5t-132.5 31.5v4h592v-4q-122 -6 -170 -48.5t-68 -160.5l-88 -504h688l88 504q9 50 9 84q0 67 -37 93.5t-133 31.5v4z" />
    <glyph glyph-name="I" unicode="I" horiz-adv-x="757" 
d="M252 1495h592v-4q-122 -6 -170 -48.5t-68 -160.5l-188 -1069q-10 -55 -10 -86q0 -65 38.5 -91.5t133.5 -31.5v-4h-592v4q120 6 167.5 48t69.5 161l189 1069q8 44 8 84q0 67 -37.5 93.5t-132.5 31.5v4z" />
    <glyph glyph-name="J" unicode="J" horiz-adv-x="727" 
d="M242 1495h592v-4q-120 -6 -169 -48.5t-71 -160.5l-160 -913q-35 -204 -168.5 -368.5t-314.5 -225.5l-2 4q109 83 177.5 206.5t100.5 303.5l174 993q11 57 11 84q0 66 -38 93t-132 32v4z" />
    <glyph glyph-name="K" unicode="K" horiz-adv-x="1533" 
d="M408 127q0 -65 38.5 -91.5t133.5 -31.5v-4h-592v4q119 5 167 47t70 162l189 1069q8 44 8 84q0 67 -37.5 93.5t-132.5 31.5v4h592v-4q-122 -6 -170 -48.5t-68 -160.5l-188 -1069q-10 -55 -10 -86zM1579 1491q-71 -1 -136 -37t-183 -135l-496 -406q198 -379 316 -569
t197.5 -262t166.5 -78v-4h-230q-62 0 -112 20.5t-102 68t-113.5 142.5t-131.5 225t-171 335l526 430q139 114 139 178q0 41 -44.5 62.5t-143.5 29.5v4h518v-4z" />
    <glyph glyph-name="L" unicode="L" horiz-adv-x="1363" 
d="M1323 537l4 -2l-266 -545q-123 10 -354 10h-719v4q120 6 167.5 48t69.5 161l189 1069q8 44 8 84q0 67 -37.5 93.5t-132.5 31.5v4h629v-4q-144 -7 -200 -55.5t-81 -182.5l-184 -1054q-13 -60 -13 -95q0 -46 24 -65t79 -19h160q93 0 158 10.5t131.5 41t122.5 88
t116.5 149.5t128.5 228z" />
    <glyph glyph-name="M" unicode="M" horiz-adv-x="1976" 
d="M1769 1315l-98 -1096q-4 -29 -4 -65q0 -83 38 -114t140 -36v-4h-628v4q103 4 157.5 29t77 73t29.5 140l104 1140l-760 -1406h-2l-293 1400l-305 -1128q-20 -67 -20 -115q0 -69 55.5 -99t194.5 -34v-4h-516v4q123 6 173 49.5t83 165.5l294 1096q13 47 13 76q0 51 -40 73
t-136 27v4h385l252 -1221l655 1221h369v-4q-122 -8 -165.5 -42.5t-52.5 -133.5z" />
    <glyph glyph-name="N" unicode="N" horiz-adv-x="1548" 
d="M1137 1495h514v-4q-120 -6 -168 -48.5t-70 -160.5l-229 -1302h-4l-744 1308l-182 -1034q-8 -47 -8 -90q0 -88 56 -121.5t200 -38.5v-4h-514v4q120 6 167.5 48t69.5 161l195 1102q6 43 6 63q0 60 -38.5 84t-135.5 29v4h309l658 -1192l165 938q9 53 9 90q0 87 -56 121
t-200 39v4z" />
    <glyph glyph-name="O" unicode="O" horiz-adv-x="1591" 
d="M698 -20q-264 0 -415.5 157.5t-151.5 427.5q0 195 66 371t177.5 303t267 202t327.5 75q262 0 413.5 -158.5t151.5 -427.5q0 -195 -65.5 -371.5t-177 -303t-266.5 -201t-327 -74.5zM702 4q163 0 308 138.5t231 367.5t86 485q0 229 -96 362.5t-266 133.5q-164 0 -309 -138
t-231.5 -367.5t-86.5 -485.5q0 -230 96.5 -363t267.5 -133z" />
    <glyph glyph-name="P" unicode="P" horiz-adv-x="1366" 
d="M995 1495q192 0 304 -88.5t112 -237.5q0 -143 -83.5 -257.5t-231 -179t-330.5 -64.5h-137v20h123q123 0 226 68t162.5 185t59.5 255q0 129 -67.5 204t-186.5 75h-307l-215 -1221q-10 -65 -10 -102q0 -78 45.5 -110t156.5 -38v-4h-628v4q120 6 167.5 48t69.5 161l189 1069
q8 44 8 84q0 67 -37.5 93.5t-132.5 31.5v4h743z" />
    <glyph glyph-name="Q" unicode="Q" horiz-adv-x="1591" 
d="M846 -6q77 -127 134.5 -203t114.5 -120t109.5 -59.5t128.5 -17.5l-2 -4h-217q-63 0 -107.5 7.5t-93 30.5t-92.5 67t-95.5 114.5t-111.5 174.5q-227 25 -355 179t-128 402q0 195 66 371t177.5 303t267 202t327.5 75q262 0 413.5 -158.5t151.5 -427.5q0 -233 -89.5 -433.5
t-246 -332t-352.5 -170.5zM338 500q0 -230 96.5 -363t267.5 -133q163 0 308 138.5t231 367.5t86 485q0 229 -96 362.5t-266 133.5q-164 0 -309 -138t-231.5 -367.5t-86.5 -485.5z" />
    <glyph glyph-name="R" unicode="R" horiz-adv-x="1521" 
d="M991 731q112 -307 182.5 -457t128 -207.5t136.5 -62.5v-4h-205q-62 0 -105.5 23t-95.5 97.5t-108.5 214t-132.5 372.5h-17h-270l-80 -453q-10 -65 -10 -100q0 -80 45 -112t157 -38v-4h-628v4q120 6 167.5 48t69.5 161l189 1069q8 44 8 84q0 67 -37.5 93.5t-132.5 31.5v4
h743q193 0 304.5 -85t111.5 -230q0 -161 -114.5 -282t-305.5 -167zM760 727q186 0 312 135.5t126 335.5q0 127 -66.5 202t-185.5 75h-307l-131 -748h252z" />
    <glyph glyph-name="S" unicode="S" horiz-adv-x="1300" 
d="M553 -20q-73 0 -139 17.5t-116 35.5t-83 18q-31 0 -54 -13t-55 -48h-4l-8 536l4 2q29 -244 152.5 -384t300.5 -140q192 0 315 99.5t123 256.5q0 52 -19.5 95.5t-48 74t-77.5 60t-90.5 48t-104.5 42.5q-53 21 -85.5 34.5t-80 37t-76 43.5t-62 51t-52 63t-31 74.5
t-12.5 91.5q0 194 148.5 317.5t381.5 123.5q68 0 132 -19t112.5 -38t79.5 -19q30 0 53.5 14t48.5 51h4l27 -510l-4 -2q-33 222 -162.5 360t-296.5 138q-148 0 -244 -85t-96 -214q0 -54 20.5 -100.5t50.5 -78.5t79 -62t91.5 -48.5t102.5 -40.5q51 -20 84.5 -34t79.5 -36.5
t76 -43.5t62.5 -51t51.5 -62t31.5 -74t12.5 -90q0 -214 -175 -352.5t-448 -138.5z" />
    <glyph glyph-name="T" unicode="T" horiz-adv-x="1368" 
d="M1346 1526l59 -545l-4 -2q-22 129 -47.5 215t-56 142.5t-75 86.5t-95.5 41t-126 11h-57l-217 -1235q-10 -65 -10 -97q0 -74 43.5 -104t154.5 -35v-4h-653v4q140 6 195 53.5t78 182.5l217 1235h-58q-73 0 -123.5 -9.5t-106.5 -38t-106 -83t-108.5 -144t-126.5 -221.5l-4 2
l250 545h4q64 -19 143.5 -25t251.5 -6h168q170 0 251 5.5t154 25.5h5z" />
    <glyph glyph-name="U" unicode="U" horiz-adv-x="1552" 
d="M1151 1495h514v-4q-122 -8 -170 -49.5t-70 -159.5l-141 -801q-38 -225 -189.5 -363t-357.5 -138q-240 0 -367.5 104.5t-127.5 296.5q0 37 12 119l137 782q10 41 10 86q0 65 -38.5 91.5t-133.5 31.5v4h629v-4q-142 -7 -197.5 -54.5t-80.5 -181.5l-140 -792
q-10 -65 -10 -115q0 -159 83.5 -251.5t231.5 -92.5q194 0 337 131.5t180 345.5l133 760q10 58 10 90q0 88 -55.5 121.5t-198.5 38.5v4z" />
    <glyph glyph-name="V" unicode="V" horiz-adv-x="1495" 
d="M1176 1495h495v-4q-35 -4 -63 -13t-55 -30.5t-45 -39.5t-46 -60t-45 -69.5t-53 -90.5l-698 -1208h-35l-295 1314q-11 44 -16 62.5t-15 46.5t-20.5 39t-28 24t-40.5 18t-56 7v4h622v-4q-123 -13 -182 -48.5t-59 -113.5q0 -24 14 -82l223 -1030l525 909q96 166 96 240
q0 62 -52.5 89.5t-170.5 35.5v4z" />
    <glyph glyph-name="W" unicode="W" horiz-adv-x="2134" 
d="M1800 1495h510v-4q-100 -12 -161.5 -73.5t-145.5 -229.5l-600 -1208h-35l-188 1210l-607 -1210h-34l-199 1314q-8 48 -14 72.5t-18 51.5t-29.5 39t-46 21.5t-70.5 12.5v4h637v-4q-132 -13 -191 -50.5t-59 -127.5q0 -20 8 -66l137 -981l623 1250h4l195 -1256l421 858
q48 96 69.5 150.5t21.5 97.5q0 64 -52 90.5t-176 34.5v4z" />
    <glyph glyph-name="X" unicode="X" horiz-adv-x="1495" 
d="M1616 1491q-54 -5 -102.5 -26.5t-105 -70t-106 -101t-133.5 -148.5l-288 -338l260 -504q75 -152 124.5 -220.5t112.5 -78.5v-4h-661v4q244 15 244 152q0 52 -56 159l-194 381l-283 -329q-74 -88 -103.5 -139.5t-29.5 -92.5q0 -56 53 -88.5t168 -42.5v-4h-588v4
q111 15 202.5 83.5t250.5 256.5l317 375l-262 514q-29 60 -44.5 89.5t-38.5 66.5t-40.5 54t-41 30.5t-50.5 17.5v4h653v-4q-241 -22 -241 -154q0 -50 45 -135l192 -373l252 293q75 90 107.5 144t32.5 98q0 59 -53.5 89.5t-168.5 37.5v4h576v-4z" />
    <glyph glyph-name="Y" unicode="Y" horiz-adv-x="1415" 
d="M1022 1495h573v-4q-69 -9 -126.5 -38.5t-133.5 -107.5t-172 -215l-340 -489l-71 -401q-11 -72 -11 -95q0 -76 44.5 -106t156.5 -35v-4h-653v4q139 6 193 53t79 183l72 401l-225 608q-23 64 -40 101t-41 70.5t-54 49.5t-72 21v4h649v-4q-119 -11 -179.5 -46.5
t-60.5 -103.5q0 -32 35 -139l180 -516l314 442q75 108 100 158t25 88q0 56 -56 82.5t-186 34.5v4z" />
    <glyph glyph-name="Z" unicode="Z" horiz-adv-x="1409" 
d="M1464 1495v-6l-1233 -1469h519q68 0 116.5 6t99.5 25t90.5 53.5t82 91.5t83 139.5t83.5 196.5l4 -2l-166 -540q-195 10 -656 10h-501v6l1235 1469h-465q-75 0 -129 -11t-110 -41t-106.5 -86.5t-107 -145.5t-123.5 -220l-4 2l236 532q177 -10 610 -10h442z" />
    <glyph glyph-name="bracketleft" unicode="[" horiz-adv-x="704" 
d="M408 1663h469v-4q-89 -4 -144 -17t-94.5 -44.5t-59.5 -80t-34 -128.5l-279 -1571q-10 -51 -10 -105q0 -90 54.5 -126t191.5 -42v-4h-469l43 254l286 1616z" />
    <glyph glyph-name="backslash" unicode="\" horiz-adv-x="1003" 
d="M776 -211l-512 1849l25 11l512 -1850z" />
    <glyph glyph-name="bracketright" unicode="]" horiz-adv-x="704" 
d="M225 1663h469l-43 -252l-332 -1870h-469v4q172 9 239 63.5t93 209.5l279 1571q10 68 10 104q0 89 -54.5 124.5t-191.5 41.5v4z" />
    <glyph glyph-name="asciicircum" unicode="^" horiz-adv-x="970" 
d="M115 885l563 747h4l303 -747h-29l-284 702l-529 -702h-28z" />
    <glyph glyph-name="underscore" unicode="_" horiz-adv-x="1292" 
d="M-96 -207l8 21h1218l-8 -21h-1218z" />
    <glyph glyph-name="grave" unicode="`" horiz-adv-x="890" 
d="M590 1200q-236 179 -314 277q-20 29 -20 65q0 34 27.5 62t62.5 28q54 0 82 -45q68 -101 166 -385z" />
    <glyph glyph-name="a" unicode="a" horiz-adv-x="1234" 
d="M1161 336l4 -2q-55 -172 -129.5 -263t-158.5 -91q-125 0 -125 114q0 13 4 45l114 639q-138 -421 -269 -609.5t-298 -188.5q-108 0 -169.5 88t-61.5 241q0 213 78 396t215 292t299 109q131 0 235 -68q124 21 207 68h4l-168 -934q-2 -20 -2 -37q0 -24 8 -33.5t27 -9.5
q78 0 186 244zM393 94q119 0 239.5 201.5t264.5 626.5l2 16q-24 65 -80.5 101t-128.5 36q-116 0 -215 -98.5t-155 -260.5t-56 -347q0 -134 33.5 -204.5t95.5 -70.5z" />
    <glyph glyph-name="b" unicode="b" horiz-adv-x="1157" 
d="M858 1106q108 0 170 -88.5t62 -241.5q0 -213 -83.5 -396t-230 -291.5t-319.5 -108.5q-70 0 -128 18.5t-105.5 57t-74 105.5t-26.5 158q0 57 12 125l164 928q11 57 -18.5 81.5t-128.5 37.5v4q201 44 368 131h4l-239 -1335q141 431 273 623t300 192zM446 4q123 0 227.5 99
t164 262.5t59.5 349.5q0 135 -33.5 205.5t-95.5 70.5q-114 0 -227 -180.5t-246 -560.5q-16 -59 -16 -96q0 -71 47 -110.5t120 -39.5z" />
    <glyph glyph-name="c" unicode="c" horiz-adv-x="1067" 
d="M883 602q-27 0 -47 10v437q-50 32 -131 32q-117 0 -217 -82t-158 -222.5t-58 -305.5q0 -170 83 -270.5t227 -100.5q91 0 190.5 49.5t165.5 131.5l4 -2q-78 -134 -209.5 -216.5t-267.5 -82.5q-179 0 -282 112t-103 305q0 146 48.5 277t131.5 226t197.5 150.5t242.5 55.5
q148 0 234 -78t86 -209q0 -97 -41 -157t-96 -60z" />
    <glyph glyph-name="d" unicode="d" horiz-adv-x="1234" 
d="M975 92q78 0 186 244l4 -2q-55 -172 -129.5 -263t-158.5 -91q-125 0 -125 114q0 13 4 45l112 629q-138 -415 -268.5 -601.5t-296.5 -186.5q-108 0 -169.5 88t-61.5 241q0 213 78 396t215 292t299 109q144 0 249 -78l62 344q11 57 -19.5 81.5t-128.5 37.5v4
q202 44 369 131h4l-258 -1454q-2 -20 -2 -37q0 -24 8 -33.5t27 -9.5zM393 94q119 0 238.5 198.5t261.5 618.5l6 31q-26 64 -81.5 98.5t-127.5 34.5q-116 0 -215 -98.5t-155 -260.5t-56 -347q0 -134 33.5 -204.5t95.5 -70.5z" />
    <glyph glyph-name="e" unicode="e" horiz-adv-x="1064" 
d="M588 100q93 0 194.5 50t173.5 131l5 -2q-82 -134 -216 -216.5t-274 -82.5q-183 0 -287 111.5t-104 303.5q0 193 83 357t225.5 259t309.5 95q140 0 224 -60t84 -159q0 -103 -99.5 -186t-261.5 -133.5t-373 -73.5v-27q0 -169 84 -268t232 -99zM684 1081q-104 0 -196 -77.5
t-149 -208t-65 -283.5q173 36 299 93t198.5 139.5t72.5 181.5q0 69 -44 112t-116 43z" />
    <glyph glyph-name="f" unicode="f" horiz-adv-x="700" 
d="M926 1460h-375q-59 -66 -93 -136t-34 -124q0 -95 70 -115h286l-8 -20h-283l-167 -942q-37 -206 -156 -359t-277 -194l-2 4q181 137 242 471l174 993q4 16 4 27h-170l8 20h168q34 141 116.5 266.5t194 203t220.5 77.5q47 0 76.5 -25t29.5 -67q0 -41 -24 -80z" />
    <glyph glyph-name="g" unicode="g" horiz-adv-x="1167" 
d="M1110 1106h4l-123 -672q-38 -211 -115.5 -376t-184 -271.5t-236 -161.5t-275.5 -55q-67 0 -106 29t-39 75q0 26 12 50l537 2q231 167 252 548l36 496q-138 -417 -268.5 -603.5t-296.5 -186.5q-108 0 -169.5 88t-61.5 241q0 213 78 396t215 292t299 109q131 0 235 -68
q126 25 207 68zM397 94q119 0 238 198t262 617l6 31q-26 65 -81.5 100t-127.5 35q-116 0 -215 -98.5t-155 -260.5t-56 -347q0 -134 33.5 -204.5t95.5 -70.5z" />
    <glyph glyph-name="h" unicode="h" horiz-adv-x="1239" 
d="M1171 336l5 -2q-55 -171 -131 -262.5t-160 -91.5q-58 0 -91.5 28t-33.5 86q0 21 6 45l133 756q4 18 4 33q0 61 -59 61q-29 0 -65.5 -22.5t-89.5 -81t-111.5 -149t-135 -239t-157.5 -337.5l-27 -160h-180l241 1372q11 57 -19 81.5t-128 37.5v4q202 44 369 131h4
l-242 -1368q82 207 164.5 364.5t148.5 247t130.5 145t110 73.5t87.5 18q67 0 104 -36t37 -105q0 -25 -4 -50l-129 -743q-4 -20 -4 -37q0 -24 9 -33.5t28 -9.5q75 0 186 244z" />
    <glyph glyph-name="i" unicode="i" horiz-adv-x="638" 
d="M494 1587q51 0 83.5 -31.5t32.5 -80.5q0 -55 -36.5 -91t-92.5 -36q-51 0 -85 31.5t-34 80.5q0 54 38 90.5t94 36.5zM381 92q75 0 186 244l4 -2q-55 -172 -130.5 -263t-159.5 -91q-58 0 -91.5 28t-33.5 86q0 21 6 45l137 774q4 20 4 37q0 24 -8.5 32.5t-26.5 8.5
q-78 0 -188 -243l-4 2q55 172 131 264t160 92q58 0 91.5 -29.5t33.5 -87.5q0 -15 -7 -43l-137 -774q-4 -20 -4 -37q0 -24 9 -33.5t28 -9.5z" />
    <glyph glyph-name="j" unicode="j" horiz-adv-x="585" 
d="M500 1587q51 0 82.5 -31t31.5 -81q0 -55 -36.5 -91t-92.5 -36q-51 0 -84.5 31.5t-33.5 80.5q0 54 38 90.5t95 36.5zM371 1106q58 0 91.5 -29.5t33.5 -87.5q0 -11 -4 -43l-148 -823q-35 -206 -154.5 -359t-277.5 -194l-2 4q180 135 242 471l151 868q4 20 4 37
q0 24 -8.5 32.5t-26.5 8.5q-79 0 -186 -243l-4 2q55 172 130 264t159 92z" />
    <glyph glyph-name="k" unicode="k" horiz-adv-x="1185" 
d="M1133 326l4 -2q-39 -178 -110.5 -261t-162.5 -83q-103 0 -164 104l-309 463l148 26q162 41 252 118t90 171q0 65 -42 105.5t-112 40.5q-79 0 -167.5 -55t-160.5 -154l-141 -799h-180l244 1372q9 57 -20.5 81.5t-127.5 37.5v4q207 46 367 131h4l-139 -788
q82 125 196 196.5t225 71.5q110 0 178 -56t68 -147q0 -108 -124.5 -200.5t-334.5 -139.5l236 -358q33 -49 57.5 -70.5t53.5 -21.5q48 0 89.5 49t82.5 164z" />
    <glyph glyph-name="l" unicode="l" horiz-adv-x="589" 
d="M328 92q78 0 186 244l4 -2q-55 -172 -130 -263t-159 -91q-125 0 -125 114q0 5 5 45l219 1233q11 57 -19 81.5t-129 37.5v4q202 44 369 131h4l-256 -1454q-4 -20 -4 -37q0 -24 8.5 -33.5t26.5 -9.5z" />
    <glyph glyph-name="m" unicode="m" horiz-adv-x="1957" 
d="M1890 336l4 -2q-57 -172 -131.5 -263t-158.5 -91q-58 0 -91.5 28t-33.5 86q0 21 6 45l133 756q2 18 2 33q0 61 -57 61q-28 0 -64 -22t-88.5 -80.5t-110.5 -147.5t-133.5 -236.5t-154.5 -334.5l-2 -8l-29 -160h-182l159 895q3 27 3 33q0 61 -58 61q-36 0 -86 -39
t-118.5 -127t-160 -258.5t-190.5 -404.5l-26 -160h-181l162 913q2 20 2 37q0 24 -8 32.5t-27 8.5q-36 0 -85 -62t-101 -181l-4 2q55 172 130 264t159 92q59 0 92 -29.5t33 -87.5q0 -3 -5 -43l-122 -682q80 207 161 363t146 245t129.5 144t110.5 72.5t90 17.5q67 0 104 -36
t37 -105q0 -25 -4 -50l-113 -645q79 205 159.5 360t145.5 243.5t129.5 143t110.5 72t90 17.5q66 0 103.5 -36t37.5 -105q0 -25 -4 -50l-129 -743q-4 -20 -4 -37q0 -24 8.5 -33.5t26.5 -9.5q77 0 188 244z" />
    <glyph glyph-name="n" unicode="n" horiz-adv-x="1302" 
d="M1235 336l4 -2q-55 -171 -130.5 -262.5t-158.5 -91.5q-60 0 -93.5 28t-33.5 86q0 21 6 45l134 756q4 18 4 33q0 61 -60 61q-29 0 -65.5 -22.5t-89.5 -81t-111.5 -149t-135 -239t-157.5 -337.5l-26 -160h-181l162 913q2 20 2 37q0 24 -8 32.5t-27 8.5q-36 0 -85 -62
t-101 -181l-4 2q55 172 130 264t159 92q59 0 92 -29.5t33 -87.5q0 -3 -5 -43l-122 -686q69 174 137.5 313t128.5 228.5t114 152t103 94.5t86 45t72 13q67 0 104 -36t37 -105q0 -25 -4 -50l-129 -743q-4 -20 -4 -37q0 -24 9 -33.5t28 -9.5q75 0 186 244z" />
    <glyph glyph-name="o" unicode="o" horiz-adv-x="1208" 
d="M508 -20q-198 0 -312 116t-114 314q0 143 49 272t132 222t198.5 147.5t243.5 54.5q198 0 310.5 -116.5t112.5 -313.5q0 -192 -82 -352t-224.5 -252t-313.5 -92zM512 4q108 0 207.5 106.5t160 279t60.5 355.5q0 155 -63.5 245.5t-176.5 90.5q-108 0 -207 -107t-159 -279.5
t-60 -354.5q0 -157 62.5 -246.5t175.5 -89.5z" />
    <glyph glyph-name="p" unicode="p" horiz-adv-x="1243" 
d="M942 1106q108 0 170 -88.5t62 -241.5q0 -213 -78 -396t-214.5 -291.5t-299.5 -108.5q-69 0 -135.5 21t-114.5 56l-45 -258q-12 -70 17 -92.5t128 -30.5v-4q-194 -33 -360 -94h-4l235 1335q2 20 2 37q0 24 -8 32.5t-27 8.5q-36 0 -85 -62t-101 -181l-4 2q55 172 130 264
t159 92q59 0 92 -29.5t33 -87.5q0 -3 -5 -43l-110 -629q138 416 268 602.5t295 186.5zM555 10q116 0 215 98t155 260t56 347q0 276 -129 276q-119 0 -237 -197t-261 -616l-6 -37q24 -62 80.5 -96.5t126.5 -34.5z" />
    <glyph glyph-name="q" unicode="q" horiz-adv-x="1179" 
d="M870 -295q0 -59 33 -83.5t111 -27.5v-4h-553v4q123 6 173 53t73 181l170 952q-139 -422 -271 -611t-299 -189q-108 0 -169.5 88t-61.5 241q0 213 78 396t215 292t299 109q131 0 235 -68q126 25 207 68h4l-235 -1319q-9 -50 -9 -82zM397 94q119 0 239.5 202t264.5 628
l2 14q-24 65 -80.5 101t-128.5 36q-116 0 -215 -98.5t-155 -260.5t-56 -347q0 -134 33.5 -204.5t95.5 -70.5z" />
    <glyph glyph-name="r" unicode="r" horiz-adv-x="946" 
d="M1004 1006q0 -49 -33 -95h-285q-103 -170 -338 -751l-26 -160h-181l162 913q2 20 2 37q0 24 -8 32.5t-27 8.5q-36 0 -85 -62t-101 -181l-4 2q55 172 130 264t159 92q59 0 92 -29.5t33 -87.5q0 -3 -5 -43l-122 -686q105 272 180 439t135 257t105.5 120t101.5 30
q52 0 83.5 -27.5t31.5 -72.5z" />
    <glyph glyph-name="s" unicode="s" horiz-adv-x="1011" 
d="M815 700q-17 0 -45 11v317q-68 53 -201 53q-109 0 -181.5 -55.5t-72.5 -146.5q0 -36 16.5 -69t38 -55.5t63.5 -49.5t70.5 -41.5t82.5 -40.5q46 -21 73.5 -35t67 -37t63.5 -44.5t47.5 -49t34.5 -60t11 -69.5q0 -150 -131.5 -249t-331.5 -99q-180 0 -276.5 71.5
t-96.5 196.5q0 71 37 118.5t86 47.5q27 0 45 -11v-350q65 -49 205 -49q133 0 217 62t84 159q0 36 -15 68t-35.5 54.5t-59 47t-66.5 39t-78 37.5q-42 20 -64 31t-59.5 32t-58.5 37t-47.5 40.5t-40 48t-23.5 55t-10 65.5q0 138 116.5 232t290.5 94q171 0 269 -70t98 -190
q0 -64 -37 -105t-86 -41z" />
    <glyph glyph-name="t" unicode="t" horiz-adv-x="765" 
d="M485 1065l-145 -836q-8 -41 -8 -69q0 -39 19 -56.5t61 -17.5q65 0 137 59t141 185l4 -2q-76 -175 -175 -261.5t-202 -86.5q-82 0 -126 42t-44 119q0 29 5 54l153 870h-172l8 20h168l64 269h168l-52 -269h342l-8 -20h-338z" />
    <glyph glyph-name="u" unicode="u" horiz-adv-x="1300" 
d="M1225 336l4 -2q-55 -171 -130.5 -262.5t-158.5 -91.5q-125 0 -125 114q0 13 4 45l121 682q-79 -206 -159.5 -362.5t-146 -245t-130 -143.5t-110 -72.5t-89.5 -17.5q-67 0 -104 35.5t-37 103.5q0 26 4 51l129 743q4 20 4 37q0 24 -8.5 32.5t-28.5 8.5q-76 0 -186 -243
l-4 2q55 172 130.5 264t157.5 92q59 0 92 -29.5t33 -87.5q0 -11 -4 -43l-133 -756q-4 -20 -4 -34q0 -62 57 -62q37 0 87.5 39.5t119 128t159.5 259.5t189 405l29 159h180l-161 -913q-5 -25 -5 -37q0 -24 9 -33.5t28 -9.5q36 0 84 62t103 182z" />
    <glyph glyph-name="v" unicode="v" horiz-adv-x="1050" 
d="M920 1106q46 0 74 -48.5t28 -127.5q0 -111 -85 -277t-208.5 -330t-284.5 -343h-34l-187 958q-11 41 -30 41q-54 0 -152 -231l-4 2q59 191 116 273.5t140 82.5q44 0 77 -31t42 -86l155 -844q169 208 279 387v553q30 21 74 21z" />
    <glyph glyph-name="w" unicode="w" horiz-adv-x="1658" 
d="M1524 1106q46 0 75 -48.5t29 -127.5q0 -84 -44 -198t-121.5 -241.5t-169 -253t-201.5 -257.5h-35l-137 624q-130 -256 -435 -624h-34l-232 966q-8 41 -31 41q-26 0 -60.5 -54.5t-88.5 -184.5l-4 2q57 191 112.5 273.5t135.5 82.5q49 0 82 -32.5t47 -90.5l192 -829
q197 261 307 485l-98 446h201l196 -931q151 198 242 360v571q27 21 72 21z" />
    <glyph glyph-name="x" unicode="x" horiz-adv-x="1171" 
d="M1139 911h-328q-63 -92 -160 -282l240 -455q24 -55 59 -55q71 0 127 207l4 -2q-25 -158 -80 -251t-139 -93q-58 0 -90.5 27t-64.5 95l-172 330q-72 -141 -129.5 -231t-107.5 -138t-90.5 -65.5t-90.5 -17.5q-52 0 -83.5 27.5t-31.5 72.5q0 44 33 94h330q74 114 157 281
l-239 456q-24 56 -62 56q-72 0 -125 -209l-4 2q25 160 79.5 253t139.5 93q58 0 90.5 -28t63.5 -95l174 -330q95 186 169 287t128.5 133.5t120.5 32.5q52 0 83 -27.5t31 -72.5q0 -51 -32 -95z" />
    <glyph glyph-name="y" unicode="y" horiz-adv-x="1232" 
d="M987 1085h180l-114 -651q-38 -211 -115.5 -376t-184 -271.5t-236.5 -161.5t-277 -55q-65 0 -104.5 29t-39.5 75q0 30 13 50l536 2q232 168 250 548l41 529l2 14q-79 -205 -159 -360.5t-145 -244t-129.5 -143t-110 -72t-89.5 -17.5q-67 0 -104 35.5t-37 103.5q0 26 4 51
l129 743q4 20 4 37q0 24 -8.5 32.5t-28.5 8.5q-76 0 -186 -243l-4 2q55 172 130.5 264t157.5 92q59 0 92 -29.5t33 -87.5q0 -11 -4 -43l-133 -756q-4 -20 -4 -34q0 -62 57 -62q37 0 87.5 39.5t119 128t159.5 259.5t189 405z" />
    <glyph glyph-name="z" unicode="z" horiz-adv-x="1060" 
d="M733 139q84 0 132.5 43t97.5 164l4 -2q-26 -97 -50 -158t-59 -111t-83.5 -72.5t-115.5 -22.5q-105 0 -232 50.5t-245 137.5l-172 -178l-14 14l891 924h-355q-127 0 -201.5 -20t-123 -67.5t-90.5 -140.5l-4 2l145 394q187 -11 553 -11h252l2 -4l-748 -774
q110 -79 224 -123.5t192 -44.5z" />
    <glyph glyph-name="braceleft" unicode="{" horiz-adv-x="681" 
d="M838 1647q-202 -103 -276.5 -181t-74.5 -188q0 -60 19 -164q22 -123 22 -192q0 -289 -348 -320q133 -12 196.5 -60t63.5 -134q0 -65 -30 -140.5t-84 -175.5q-68 -132 -84 -187q-11 -40 -11 -71q0 -69 52.5 -130t185.5 -144l-2 -4q-226 69 -318 141t-92 162q0 39 18 92
t33 83.5t50 98.5q110 199 110 309q0 150 -207 150h-12l4 20h13q278 0 278 279q0 52 -20 184q-21 126 -21 168q0 145 119 235.5t414 172.5z" />
    <glyph glyph-name="bar" unicode="|" horiz-adv-x="501" 
d="M70 -414l356 2026l27 4l-359 -2026z" />
    <glyph glyph-name="braceright" unicode="}" horiz-adv-x="684" 
d="M645 612h12l-4 -20h-12q-138 0 -209.5 -70.5t-71.5 -206.5q0 -48 23 -184q23 -113 23 -168q0 -142 -119 -233t-414 -174l-2 4q201 103 275.5 181t74.5 187q0 62 -20 164q-23 134 -23 193q0 148 87.5 225t258.5 92q-258 25 -258 195q0 46 19 106t39.5 102t54.5 107
q31 57 48.5 93t33.5 83.5t16 83.5q0 70 -53.5 131.5t-185.5 143.5l4 4q226 -69 316.5 -140.5t90.5 -162.5q0 -58 -26 -121.5t-74 -151.5q-39 -74 -55.5 -108t-36 -95t-19.5 -108q0 -152 207 -152z" />
    <glyph glyph-name="asciitilde" unicode="~" horiz-adv-x="970" 
d="M655 469q-87 0 -209 78q-37 23 -60.5 36t-58.5 24t-69 11q-129 0 -205 -133l-4 2q34 108 115 186.5t174 78.5q82 0 201 -76q57 -37 100.5 -55.5t95.5 -18.5q131 0 207 133l2 -2q-34 -108 -115 -186t-174 -78z" />
    <glyph glyph-name="uni00A0" unicode="&#xa0;" horiz-adv-x="524" 
 />
    <glyph glyph-name="exclamdown" unicode="&#xa1;" horiz-adv-x="581" 
d="M395 1022q-65 0 -104 37t-39 98q0 63 46 108.5t110 45.5q66 0 105.5 -37.5t39.5 -97.5q0 -63 -46.5 -108.5t-111.5 -45.5zM158 -225q-49 0 -75 24.5t-26 69.5q0 112 150 545q107 314 139 444h4q-26 -213 -26 -450q6 -105 2 -246t-25 -258q-12 -63 -50.5 -96t-92.5 -33z
" />
    <glyph glyph-name="cent" unicode="&#xa2;" horiz-adv-x="1110" 
d="M934 807q-28 0 -45 10v436q-51 33 -131 33q-17 0 -25 -2l-172 -971q33 -8 74 -8q91 0 190.5 49t165.5 131l4 -2q-75 -128 -199 -210t-255 -89l-35 -192l-21 4l33 188h-2q-178 0 -280.5 112.5t-102.5 305.5q0 187 76.5 345.5t210 254.5t295.5 107l33 194l22 -4l-33 -188
h17q148 0 233.5 -78t85.5 -209q0 -97 -41 -157t-98 -60zM541 317l168 965q-106 -17 -194 -101.5t-138.5 -217.5t-50.5 -287q0 -139 57 -233.5t158 -125.5z" />
    <glyph glyph-name="sterling" unicode="&#xa3;" horiz-adv-x="1282" 
d="M1104 1012q-27 0 -47 10v438q-51 31 -133 31q-86 0 -150 -30t-104.5 -87t-64 -127t-34.5 -162q-14 -93 -14 -180l-6 -129h471l-6 -20h-467q0 -17 -4 -45q-26 -201 -117 -330.5t-258 -204.5h518q82 0 139 8t108.5 29t89.5 60.5t72 99.5t66 149h4l-163 -532
q-192 10 -656 10h-352v6q92 89 151 168l-2 2h5q90 121 134 255.5t62 324.5h-205l9 20h198q2 6 2 19q2 29 11.5 92.5t11.5 83.5q23 259 176 402t375 143q147 0 232 -78t85 -211q0 -96 -40.5 -155.5t-96.5 -59.5z" />
    <glyph glyph-name="currency" unicode="&#xa4;" horiz-adv-x="1380" 
d="M1165 856q0 -126 -43 -232.5t-121 -181.5l189 -229l-19 -16l-190 227q-138 -119 -334 -119q-195 0 -291 113l-266 -225l-14 16l266 229q-55 79 -55 203q0 129 44.5 237t125.5 183l-189 227l19 17l188 -228q137 115 330 115q196 0 291 -115l268 228l14 -17l-268 -231
q55 -79 55 -201zM315 643q0 -149 87.5 -231t248.5 -82q214 0 350 146.5t136 377.5q0 150 -88 231.5t-250 81.5q-212 0 -348 -147t-136 -377z" />
    <glyph glyph-name="yen" unicode="&#xa5;" horiz-adv-x="1458" 
d="M1008 1495h559v-4q-49 -7 -89 -22.5t-90 -53.5t-109 -108t-132 -177l-318 -471l-2 -10h351l-9 -20h-344l-43 -232h353l-9 -20h-348l-24 -137q-9 -55 -9 -95q0 -75 44.5 -105.5t154.5 -35.5v-4h-653v4q140 6 193.5 53t78.5 183l25 137h-344l8 20h340l41 232h-344l8 20h332
l-209 600q-44 129 -83.5 180.5t-115.5 61.5v4h645v-4q-121 -11 -177 -45.5t-56 -102.5q0 -33 33 -141l161 -508l287 424q74 111 99.5 161t25.5 91q0 59 -54.5 86t-176.5 35v4z" />
    <glyph glyph-name="brokenbar" unicode="&#xa6;" horiz-adv-x="501" 
d="M289 817l139 795l25 4l-140 -795zM70 -414l139 795l27 4l-142 -795z" />
    <glyph glyph-name="section" unicode="&#xa7;" horiz-adv-x="874" 
d="M152 -436q-54 0 -87.5 26t-33.5 66q0 38 26 82h346q42 37 71.5 98.5t29.5 145.5q0 67 -24.5 154.5t-49 146.5t-78.5 178q-45 97 -64.5 141.5t-50 124.5t-43 143t-12.5 123q0 104 55 220.5t137 207.5t183 151t188 60q53 0 86 -25t33 -67q0 -39 -26 -80h-346
q-101 -97 -101 -246q0 -67 25.5 -157t49.5 -148t75 -172q57 -123 86 -189.5t57.5 -167t28.5 -177.5q0 -105 -55 -221.5t-137 -207t-182.5 -150.5t-186.5 -60zM496 -207q192 210 192 404q0 184 -166 528q-47 98 -72.5 155.5t-53.5 138.5t-34.5 138t1.5 122.5t38 123.5
q-194 -215 -194 -404q0 -190 168 -530q46 -96 71 -152.5t52 -135.5t33.5 -136t-1 -123.5t-34.5 -128.5z" />
    <glyph glyph-name="dieresis" unicode="&#xa8;" horiz-adv-x="1128" 
d="M319 1366q-44 0 -72 27t-28 71q0 46 33.5 80.5t79.5 34.5q45 0 72.5 -28t27.5 -70q0 -47 -33 -81t-80 -34zM688 1366q-44 0 -72 27t-28 71q0 46 33.5 80.5t78.5 34.5t73 -28t28 -70q0 -47 -33 -81t-80 -34z" />
    <glyph glyph-name="copyright" unicode="&#xa9;" horiz-adv-x="2076" 
d="M1073 -143q-204 0 -374 63.5t-288.5 178.5t-184.5 280t-66 362t66 361.5t184.5 279t288.5 178.5t374 64q203 0 374 -66t290 -183.5t185.5 -284t66.5 -363.5q0 -262 -114 -459.5t-321.5 -304t-480.5 -106.5zM1073 -119q264 0 465 103.5t311.5 296t110.5 446.5
q0 191 -64 353t-179.5 276t-281 178.5t-362.5 64.5q-262 0 -463.5 -107t-311.5 -302t-110 -449q0 -255 110 -450.5t311.5 -302.5t463.5 -107zM1077 150q-243 0 -391.5 161.5t-148.5 425.5q0 267 157.5 431.5t415.5 164.5q58 0 111.5 -14.5t92 -28.5t58.5 -14q24 0 38.5 10
t29.5 39h4l100 -410l-4 -2q-73 202 -184 299t-250 97q-173 0 -280 -138t-107 -362q0 -243 123.5 -394t322.5 -151q115 0 228 55.5t174 143.5l4 -2q-62 -139 -198 -225t-296 -86z" />
    <glyph glyph-name="ordfeminine" unicode="&#xaa;" horiz-adv-x="1044" 
d="M1028 922l4 -2q-41 -130 -102 -201.5t-127 -71.5q-46 0 -73.5 23t-27.5 69q0 13 3 37l86 479q-101 -321 -200.5 -464.5t-228.5 -143.5q-83 0 -130.5 69.5t-47.5 188.5q0 164 60 304.5t165.5 223.5t229.5 83q96 0 178 -54q102 18 170 54h4l-127 -715q-11 -60 25 -60
q27 0 63.5 47t75.5 134zM442 743q88 0 175 150.5t194 480.5l4 15q-19 47 -59.5 74.5t-91.5 27.5q-85 0 -158.5 -75t-115.5 -198.5t-42 -263.5q0 -102 24 -156.5t70 -54.5z" />
    <glyph glyph-name="guillemotleft" unicode="&#xab;" horiz-adv-x="864" 
d="M528 1008l-266 -408l123 -407l-4 -3l-277 390l7 38l413 392zM829 1008l-264 -406l121 -409l-4 -3l-276 390l8 38l411 392z" />
    <glyph glyph-name="logicalnot" unicode="&#xac;" horiz-adv-x="970" 
d="M137 739h762l-57 -313h-25l53 293h-737z" />
    <glyph glyph-name="uni00AD" unicode="&#xad;" horiz-adv-x="980" 
d="M154 592l8 20h688l-8 -20h-688z" />
    <glyph glyph-name="registered" unicode="&#xae;" horiz-adv-x="1245" 
d="M725 1632q232 0 373 -133.5t141 -353.5t-141 -354t-373 -134q-230 0 -371 134t-141 354t141 353.5t371 133.5zM725 676q223 0 357.5 128.5t134.5 340.5t-134.5 340.5t-357.5 128.5q-221 0 -355 -128.5t-134 -340.5t134 -340.5t355 -128.5zM825 1145q96 -159 138 -207
t86 -53v-4h-99q-60 0 -103.5 44.5t-135.5 204.5h-82v-153q0 -50 19.5 -68.5t70.5 -23.5v-4h-275v4q45 5 61.5 21t16.5 57v376q0 39 -17 56t-61 20v4h301q95 0 153 -37.5t58 -99.5q0 -49 -35 -84t-96 -53zM629 1403v-256h80q57 0 93 35.5t36 93.5t-32 92.5t-85 34.5h-92z" />
    <glyph glyph-name="macron" unicode="&#xaf;" horiz-adv-x="1081" 
d="M178 1448l8 20h619l-8 -20h-619z" />
    <glyph glyph-name="degree" unicode="&#xb0;" horiz-adv-x="819" 
d="M543 1022q-141 0 -227.5 83.5t-86.5 221.5t86.5 221.5t227.5 83.5q143 0 229 -83.5t86 -221.5t-86 -221.5t-229 -83.5zM543 1047q129 0 207.5 76.5t78.5 203.5t-78.5 204t-207.5 77t-207 -77t-78 -204t78 -203.5t207 -76.5z" />
    <glyph glyph-name="plusminus" unicode="&#xb1;" horiz-adv-x="970" 
d="M535 748h366l-2 -21h-369l-55 -319h-24l55 319h-367l2 21h369l55 317h25zM57 266l4 21h760l-4 -21h-760z" />
    <glyph glyph-name="uni00B2" unicode="&#xb2;" horiz-adv-x="761" 
d="M489 786q119 0 173.5 27.5t87.5 108.5h4l-84 -273q-111 6 -385 6h-213l-2 4q97 94 188 164q44 37 61.5 52t61.5 54t65.5 62.5t54.5 63t49 69.5t29 67t13 71q0 54 -32 85t-89 31q-69 0 -136.5 -39.5t-111.5 -105.5l-4 2q64 123 160.5 196.5t193.5 73.5q85 0 134 -45
t49 -119q0 -45 -17 -91.5t-42.5 -85t-65 -79.5t-74.5 -70.5t-82.5 -62.5t-76.5 -51.5t-68 -42.5q-12 -7 -94 -72h253z" />
    <glyph glyph-name="uni00B3" unicode="&#xb3;" horiz-adv-x="677" 
d="M449 1174q102 -24 158.5 -76t56.5 -127q0 -137 -145 -224t-404 -104v4q183 20 291 93t108 173q0 59 -50 93t-151 49l-2 4l305 305h-192q-86 0 -133.5 -25.5t-89.5 -99.5l-4 2l112 272h2q66 -18 355 -18h100l2 -4z" />
    <glyph glyph-name="acute" unicode="&#xb4;" horiz-adv-x="890" 
d="M254 1264l-2 4q92 115 169.5 194.5t119.5 110.5q31 22 57 22q37 0 65.5 -28.5t28.5 -63.5q0 -56 -49 -84q-84 -58 -389 -155z" />
    <glyph glyph-name="uni00B5" unicode="&#xb5;" horiz-adv-x="1351" 
d="M1038 172q0 -56 31.5 -80.5t110.5 -28.5v-4q-164 -27 -359 -79h-4l35 194q-214 -194 -397 -194q-181 0 -226 139q19 -311 4 -449q-2 -44 -26 -72t-62 -28q-28 0 -44.5 17.5t-16.5 45.5q0 37 131 674l82 469q8 47 8 78q0 52 -30.5 80t-108.5 43v4q235 70 364 117h5
l-80 -459l-64 -360q-6 -38 -6 -68q0 -162 154 -162q68 0 143.5 38t173.5 112l100 577q9 53 9 78q0 51 -29.5 78.5t-110.5 44.5v4q251 75 367 117h4l-149 -844q-9 -50 -9 -82z" />
    <glyph glyph-name="paragraph" unicode="&#xb6;" horiz-adv-x="1165" 
d="M1239 1495v-4q-120 -6 -167.5 -48t-67.5 -161l-299 -1692l-80 -14l333 1899h-159l-332 -1885l-80 -14l193 1092h-7q-194 0 -306.5 93.5t-112.5 252.5q0 202 139 341.5t342 139.5h604z" />
    <glyph glyph-name="periodcentered" unicode="&#xb7;" horiz-adv-x="567" 
d="M287 453q-66 0 -106 37.5t-40 97.5q0 63 46.5 108t111.5 45t104 -37t39 -98q0 -64 -45 -108.5t-110 -44.5z" />
    <glyph glyph-name="cedilla" unicode="&#xb8;" horiz-adv-x="870" 
d="M262 -430v4q61 8 101 42.5t40 84.5q0 37 -25.5 78.5t-72.5 77.5l115 143h29l-54 -61q137 -97 137 -189q0 -81 -73.5 -129t-196.5 -51z" />
    <glyph glyph-name="uni00B9" unicode="&#xb9;" horiz-adv-x="524" 
d="M381 739q0 -42 23 -59.5t81 -20.5v-4h-387v4q74 4 104 31.5t42 100.5l86 475q4 32 4 45q0 26 -10 38.5t-35 12.5q-21 0 -80 -21l-2 5q187 92 305 170h2l-129 -725q-4 -23 -4 -52z" />
    <glyph glyph-name="ordmasculine" unicode="&#xba;" horiz-adv-x="991" 
d="M514 647q-154 0 -243 90.5t-89 243.5q0 224 141.5 379.5t342.5 155.5q154 0 242.5 -90.5t88.5 -243.5q0 -146 -64 -269t-175 -194.5t-244 -71.5zM518 668q79 0 153 83.5t119.5 217.5t45.5 276q0 117 -45.5 184.5t-126.5 67.5q-80 0 -154 -85t-119 -219.5t-45 -274.5
q0 -118 44.5 -184t127.5 -66z" />
    <glyph glyph-name="guillemotright" unicode="&#xbb;" horiz-adv-x="862" 
d="M477 618l-6 -38l-414 -390l-4 3l266 405l-120 410l4 2zM504 1010l276 -392l-8 -38l-412 -390l-4 3l265 403l-121 412z" />
    <glyph glyph-name="onequarter" unicode="&#xbc;" horiz-adv-x="1527" 
d="M1470 1540l13 -14l-1436 -1571l-12 14zM543 659v-4h-387v4q74 4 103.5 31.5t41.5 100.5l86 475q4 32 4 45q0 26 -10 38.5t-35 12.5q-22 0 -80 -21l-2 5q187 92 305 170h2l-129 -725q-4 -23 -4 -52q0 -42 23.5 -59.5t81.5 -20.5zM1241 252q87 0 170 6h2l-6 -25h-170
l-18 -108q-7 -40 -7 -47q0 -38 20.5 -54.5t70.5 -19.5v-4h-379v4q78 6 110 35t45 108l15 86h-355l-2 3l506 604h100zM772 252h326l88 491z" />
    <glyph glyph-name="onehalf" unicode="&#xbd;" horiz-adv-x="1556" 
d="M1464 1540l15 -14l-1438 -1571l-12 14zM537 659v-4h-387v4q74 4 104.5 31.5t42.5 100.5l84 475q4 32 4 45q0 26 -10 38.5t-35 12.5q-22 0 -80 -21l-2 5q187 92 305 170h2l-129 -725q-4 -23 -4 -52q0 -42 23.5 -59.5t81.5 -20.5zM1421 686q0 -45 -17 -91.5t-42 -85
t-65.5 -79.5t-74.5 -70t-82 -63t-75.5 -52t-67.5 -42q-23 -14 -96 -72h254q119 0 173 27.5t87 109.5h4l-84 -274q-108 6 -385 6h-213l-2 4q87 84 189 166q54 44 88 72.5t86 79.5t82.5 92t53.5 93t23 99q0 55 -32 87t-88 32q-68 0 -135.5 -40t-112.5 -105l-4 2
q64 121 161.5 194.5t192.5 73.5q85 0 133.5 -44.5t48.5 -119.5z" />
    <glyph glyph-name="threequarters" unicode="&#xbe;" horiz-adv-x="1615" 
d="M1559 1540l14 -14l-1436 -1571l-14 14zM717 971q0 -137 -145 -224t-404 -104v4q183 20 291 93t108 173q0 59 -49.5 93t-150.5 49l-2 4l305 305h-193q-86 0 -133.5 -25.5t-89.5 -99.5l-4 2l112 272h3q66 -18 354 -18h100l2 -4l-319 -317q102 -24 158.5 -76t56.5 -127z
M1329 252q87 0 170 6h2l-8 -25h-168l-18 -106q-7 -44 -7 -47q0 -38 20.5 -54.5t70.5 -19.5v-4h-379v4q78 4 109.5 34t45.5 110l15 83h-355l-2 5l506 604h101zM858 252h328l88 496z" />
    <glyph glyph-name="questiondown" unicode="&#xbf;" horiz-adv-x="874" 
d="M678 1311q66 0 105.5 -37.5t39.5 -97.5q0 -64 -46 -109t-109 -45q-66 0 -106 37.5t-40 97.5q0 63 46 108.5t110 45.5zM199 -51h467q4 -20 4 -37q0 -61 -47 -99t-113 -38q-95 0 -181.5 38.5t-146.5 101.5t-95.5 145t-35.5 167q0 183 140 289.5t378 118.5q43 113 64 223h4
q0 -211 22 -391l-6 -4q-265 -6 -414 -81.5t-149 -211.5q0 -118 109 -221z" />
    <glyph glyph-name="Agrave" unicode="&#xc0;" horiz-adv-x="1505" 
d="M721 1712q-27 12 -43 35.5t-16 50.5q0 37 26.5 64.5t65.5 27.5q27 0 47 -10q48 -24 133.5 -93t191.5 -179l-2 -4q-336 76 -403 108zM1241 201q13 -62 23 -93t29 -56.5t47.5 -35t76.5 -12.5v-4h-631v4q132 13 190 47t58 117q0 6 -10 78l-57 293h-605l-92 -170
q-53 -94 -73.5 -147.5t-20.5 -96.5q0 -60 50.5 -86.5t168.5 -34.5v-4h-489v4q42 5 76 20t60 35t56 61t52.5 79.5t60.5 107.5l565 1026l-14 78q89 39 176 105h33zM375 559h588l-156 793z" />
    <glyph glyph-name="Aacute" unicode="&#xc1;" horiz-adv-x="1505" 
d="M1174 1712q-66 -31 -404 -108l-2 4q106 110 191.5 179t134.5 93q20 10 47 10q39 0 65.5 -27.5t26.5 -64.5q0 -27 -16 -50.5t-43 -35.5zM1241 201q13 -62 23 -93t29 -56.5t47.5 -35t76.5 -12.5v-4h-631v4q132 13 190 47t58 117q0 6 -10 78l-57 293h-605l-92 -170
q-53 -94 -73.5 -147.5t-20.5 -96.5q0 -60 50.5 -86.5t168.5 -34.5v-4h-489v4q42 5 76 20t60 35t56 61t52.5 79.5t60.5 107.5l565 1026l-14 78q89 39 176 105h33zM375 559h588l-156 793z" />
    <glyph glyph-name="Acircumflex" unicode="&#xc2;" horiz-adv-x="1505" 
d="M958 1739l-299 -135l-2 4l326 282h2l227 -282l-2 -4zM1241 201q13 -62 23 -93t29 -56.5t47.5 -35t76.5 -12.5v-4h-631v4q132 13 190 47t58 117q0 6 -10 78l-57 293h-605l-92 -170q-53 -94 -73.5 -147.5t-20.5 -96.5q0 -60 50.5 -86.5t168.5 -34.5v-4h-489v4q42 5 76 20
t60 35t56 61t52.5 79.5t60.5 107.5l565 1026l-14 78q89 39 176 105h33zM375 559h588l-156 793z" />
    <glyph glyph-name="Atilde" unicode="&#xc3;" horiz-adv-x="1505" 
d="M750 1757q-110 0 -175 -133l-4 2q30 106 103.5 185t150.5 79q74 0 172 -75q48 -36 87.5 -55t82.5 -19q108 0 176 133l3 -2q-31 -107 -102 -185.5t-150 -78.5q-47 0 -88.5 19.5t-92.5 55.5q-32 24 -52.5 37.5t-50.5 25t-60 11.5zM1241 201q13 -62 23 -93t29 -56.5
t47.5 -35t76.5 -12.5v-4h-631v4q132 13 190 47t58 117q0 6 -10 78l-57 293h-605l-92 -170q-53 -94 -73.5 -147.5t-20.5 -96.5q0 -60 50.5 -86.5t168.5 -34.5v-4h-489v4q42 5 76 20t60 35t56 61t52.5 79.5t60.5 107.5l565 1026l-14 78q89 39 176 105h33zM375 559h588
l-156 793z" />
    <glyph glyph-name="Adieresis" unicode="&#xc4;" horiz-adv-x="1505" 
d="M774 1659q-44 0 -73 28t-29 72q0 46 33.5 79.5t80.5 33.5q44 0 71.5 -27t27.5 -69q0 -49 -32.5 -83t-78.5 -34zM1143 1659q-45 0 -74 28t-29 72q0 46 34 79.5t81 33.5q44 0 71 -27t27 -69q0 -49 -32 -83t-78 -34zM1241 201q13 -62 23 -93t29 -56.5t47.5 -35t76.5 -12.5
v-4h-631v4q132 13 190 47t58 117q0 6 -10 78l-57 293h-605l-92 -170q-53 -94 -73.5 -147.5t-20.5 -96.5q0 -60 50.5 -86.5t168.5 -34.5v-4h-489v4q42 5 76 20t60 35t56 61t52.5 79.5t60.5 107.5l565 1026l-14 78q89 39 176 105h33zM375 559h588l-156 793z" />
    <glyph glyph-name="Aring" unicode="&#xc5;" horiz-adv-x="1505" 
d="M946 1573q-93 0 -147 48t-54 130q0 95 68 159t168 64q93 0 147 -49t54 -131q0 -94 -68 -157.5t-168 -63.5zM977 1950q-86 0 -144.5 -56.5t-58.5 -138.5q0 -72 48 -115t128 -43q86 0 144.5 56.5t58.5 136.5q0 73 -47 116.5t-129 43.5zM1241 201q13 -62 23 -93t29 -56.5
t47.5 -35t76.5 -12.5v-4h-631v4q132 13 190 47t58 117q0 6 -10 78l-57 293h-605l-92 -170q-53 -94 -73.5 -147.5t-20.5 -96.5q0 -60 50.5 -86.5t168.5 -34.5v-4h-489v4q42 5 76 20t60 35t56 61t52.5 79.5t60.5 107.5l565 1026l-14 78q89 39 176 105h33zM375 559h588
l-156 793z" />
    <glyph glyph-name="AE" unicode="&#xc6;" horiz-adv-x="2201" 
d="M1456 20q68 0 119 5t103.5 18.5t95 38.5t86.5 63t86 93.5t86.5 128.5t93.5 170l4 -2l-268 -545q-120 10 -367 10h-780v4q121 6 169 48t68 161l97 545h-514l-238 -398q-59 -99 -83 -153.5t-24 -93.5q0 -54 49.5 -78.5t161.5 -30.5v-4h-495v4q98 12 168 73.5t170 229.5
l706 1188h762q239 0 359 10l59 -524l-4 -2q-14 109 -34.5 188t-52 134.5t-67.5 89t-90.5 52.5t-111 25.5t-138.5 6.5h-264l-123 -697h178q89 0 142.5 28t96 102t87.5 220h4q-85 -424 -131 -741h-4q4 37 4 96q0 88 -11 142.5t-38 83.5t-62 39t-92 10h-178l-98 -559
q-10 -62 -10 -90q0 -50 25 -69.5t87 -19.5h211zM547 778h506l90 504q6 38 6 68q0 65 -40.5 92t-145.5 35z" />
    <glyph glyph-name="Ccedilla" unicode="&#xc7;" horiz-adv-x="1392" 
d="M936 1491q-160 0 -298 -116.5t-219 -315t-81 -428.5q0 -238 111.5 -377t306.5 -139q139 0 284.5 73.5t237.5 194.5l4 -2q-102 -179 -278.5 -290t-364.5 -111l-35 -41q137 -97 137 -189q0 -81 -74 -129t-198 -51v4q63 8 103 42.5t40 84.5q0 37 -25.5 78.5t-72.5 77.5
l98 123q-225 9 -354 161.5t-129 405.5q0 159 41 306.5t116 267t175.5 209t225.5 138t259 48.5q61 0 121 -18t104.5 -36t67.5 -18q26 0 45 12.5t43 48.5h4l23 -530l-4 -2q-36 263 -142.5 390.5t-271.5 127.5z" />
    <glyph glyph-name="Egrave" unicode="&#xc8;" horiz-adv-x="1474" 
d="M682 1712q-28 12 -43.5 35.5t-15.5 50.5q0 37 26.5 64.5t65.5 27.5q27 0 47 -10q48 -24 133.5 -93t191.5 -179l-2 -4q-336 76 -403 108zM727 20q68 0 119 5t103 18.5t94.5 38t86.5 62.5t86 93.5t87 129t94 170.5l4 -2l-266 -545q-120 10 -367 10h-780v4q120 6 167.5 48
t69.5 161l189 1069q8 44 8 84q0 67 -37.5 93.5t-132.5 31.5v4h733q235 0 358 10l60 -524l-4 -2q-15 109 -35 187.5t-51 134t-66.5 89.5t-89.5 53t-111.5 25.5t-140.5 6.5h-266l-121 -697h176q65 0 108 13t83 51.5t71.5 106.5t65.5 179h4q-85 -424 -131 -741h-4q2 35 2 92
q0 89 -10.5 144t-37 85t-62 40t-93.5 10h-176l-98 -559q-10 -58 -10 -88q0 -52 24.5 -71.5t85.5 -19.5h211z" />
    <glyph glyph-name="Eacute" unicode="&#xc9;" horiz-adv-x="1474" 
d="M1133 1712q-61 -30 -402 -108l-2 4q104 109 190 178.5t136 93.5q20 10 45 10q40 0 67 -27t27 -65q0 -27 -16 -50.5t-45 -35.5zM727 20q68 0 119 5t103 18.5t94.5 38t86.5 62.5t86 93.5t87 129t94 170.5l4 -2l-266 -545q-120 10 -367 10h-780v4q120 6 167.5 48t69.5 161
l189 1069q8 44 8 84q0 67 -37.5 93.5t-132.5 31.5v4h733q235 0 358 10l60 -524l-4 -2q-15 109 -35 187.5t-51 134t-66.5 89.5t-89.5 53t-111.5 25.5t-140.5 6.5h-266l-121 -697h176q65 0 108 13t83 51.5t71.5 106.5t65.5 179h4q-85 -424 -131 -741h-4q2 35 2 92
q0 89 -10.5 144t-37 85t-62 40t-93.5 10h-176l-98 -559q-10 -58 -10 -88q0 -52 24.5 -71.5t85.5 -19.5h211z" />
    <glyph glyph-name="Ecircumflex" unicode="&#xca;" horiz-adv-x="1474" 
d="M918 1739l-297 -135l-3 4l326 282h2l225 -282v-4zM727 20q68 0 119 5t103 18.5t94.5 38t86.5 62.5t86 93.5t87 129t94 170.5l4 -2l-266 -545q-120 10 -367 10h-780v4q120 6 167.5 48t69.5 161l189 1069q8 44 8 84q0 67 -37.5 93.5t-132.5 31.5v4h733q235 0 358 10
l60 -524l-4 -2q-15 109 -35 187.5t-51 134t-66.5 89.5t-89.5 53t-111.5 25.5t-140.5 6.5h-266l-121 -697h176q65 0 108 13t83 51.5t71.5 106.5t65.5 179h4q-85 -424 -131 -741h-4q2 35 2 92q0 89 -10.5 144t-37 85t-62 40t-93.5 10h-176l-98 -559q-10 -58 -10 -88
q0 -52 24.5 -71.5t85.5 -19.5h211z" />
    <glyph glyph-name="Edieresis" unicode="&#xcb;" horiz-adv-x="1474" 
d="M733 1659q-43 0 -71.5 28t-28.5 72q0 46 34 79.5t81 33.5q44 0 71 -27t27 -69q0 -49 -33 -83t-80 -34zM1102 1659q-43 0 -72 28t-29 72q0 46 34 79.5t81 33.5q44 0 71 -27t27 -69q0 -49 -32.5 -83t-79.5 -34zM727 20q68 0 119 5t103 18.5t94.5 38t86.5 62.5t86 93.5
t87 129t94 170.5l4 -2l-266 -545q-120 10 -367 10h-780v4q120 6 167.5 48t69.5 161l189 1069q8 44 8 84q0 67 -37.5 93.5t-132.5 31.5v4h733q235 0 358 10l60 -524l-4 -2q-15 109 -35 187.5t-51 134t-66.5 89.5t-89.5 53t-111.5 25.5t-140.5 6.5h-266l-121 -697h176
q65 0 108 13t83 51.5t71.5 106.5t65.5 179h4q-85 -424 -131 -741h-4q2 35 2 92q0 89 -10.5 144t-37 85t-62 40t-93.5 10h-176l-98 -559q-10 -58 -10 -88q0 -52 24.5 -71.5t85.5 -19.5h211z" />
    <glyph glyph-name="Igrave" unicode="&#xcc;" horiz-adv-x="757" 
d="M354 1712q-27 12 -43 35.5t-16 50.5q0 37 26.5 64.5t65.5 27.5q27 0 47 -10q49 -24 134.5 -93t191.5 -179l-2 -4q-338 77 -404 108zM252 1495h592v-4q-122 -6 -170 -48.5t-68 -160.5l-188 -1069q-10 -55 -10 -86q0 -65 38.5 -91.5t133.5 -31.5v-4h-592v4q120 6 167.5 48
t69.5 161l189 1069q8 44 8 84q0 67 -37.5 93.5t-132.5 31.5v4z" />
    <glyph glyph-name="Iacute" unicode="&#xcd;" horiz-adv-x="757" 
d="M805 1712q-61 -30 -402 -108l-2 4q104 109 190 178.5t136 93.5q20 10 45 10q40 0 67 -27t27 -65q0 -27 -16 -50.5t-45 -35.5zM252 1491v4h592v-4q-122 -6 -170 -48.5t-68 -160.5l-188 -1069q-10 -55 -10 -86q0 -65 38.5 -91.5t133.5 -31.5v-4h-592v4q120 6 167.5 48
t69.5 161l189 1069q8 44 8 84q0 67 -37.5 93.5t-132.5 31.5z" />
    <glyph glyph-name="Icircumflex" unicode="&#xce;" horiz-adv-x="757" 
d="M618 1890l226 -282v-4l-254 135l-297 -135l-2 4l325 282h2zM252 1491v4h592v-4q-122 -6 -170 -48.5t-68 -160.5l-188 -1069q-10 -55 -10 -86q0 -65 38.5 -91.5t133.5 -31.5v-4h-592v4q120 6 167.5 48t69.5 161l189 1069q8 44 8 84q0 67 -37.5 93.5t-132.5 31.5z" />
    <glyph glyph-name="Idieresis" unicode="&#xcf;" horiz-adv-x="757" 
d="M408 1659q-45 0 -74 28t-29 72q0 46 34 79.5t81 33.5q44 0 71 -27t27 -69q0 -49 -32 -83t-78 -34zM788 1872q44 0 71.5 -27t27.5 -69q0 -49 -32.5 -83t-78.5 -34q-44 0 -73 28t-29 72q0 46 33.5 79.5t80.5 33.5zM252 1491v4h592v-4q-122 -6 -170 -48.5t-68 -160.5
l-188 -1069q-10 -55 -10 -86q0 -65 38.5 -91.5t133.5 -31.5v-4h-592v4q120 6 167.5 48t69.5 161l189 1069q8 44 8 84q0 67 -37.5 93.5t-132.5 31.5z" />
    <glyph glyph-name="Eth" unicode="&#xd0;" horiz-adv-x="1613" 
d="M934 1495q288 0 454 -158.5t166 -427.5q0 -189 -68.5 -357.5t-185.5 -289.5t-281.5 -191.5t-348.5 -70.5h-680v4q120 6 167.5 48t69.5 161l97 545h-179l9 20h174l88 504q8 44 8 84q0 67 -38 93.5t-134 31.5l2 4h680zM637 20q192 0 356 126.5t259.5 342t95.5 467.5
q0 240 -118.5 379.5t-330.5 139.5h-258l-121 -697h408l-8 -20h-404l-98 -559q-12 -65 -12 -99q0 -45 19 -62.5t64 -17.5h148z" />
    <glyph glyph-name="Ntilde" unicode="&#xd1;" horiz-adv-x="1548" 
d="M780 1757q-109 0 -174 -133l-4 2q30 106 103.5 185t150.5 79q74 0 172 -75q48 -36 87.5 -55t82.5 -19q108 0 176 133l2 -2q-31 -107 -102 -185.5t-150 -78.5q-33 0 -67.5 12.5t-56.5 25.5t-56 37q-48 36 -84.5 55t-79.5 19zM1137 1495h514v-4q-120 -6 -168 -48.5
t-70 -160.5l-229 -1302h-4l-744 1308l-182 -1034q-8 -47 -8 -90q0 -88 56 -121.5t200 -38.5v-4h-514v4q120 6 167.5 48t69.5 161l195 1102q6 43 6 63q0 60 -38.5 84t-135.5 29v4h309l658 -1192l165 938q9 53 9 90q0 87 -56 121t-200 39v4z" />
    <glyph glyph-name="Ograve" unicode="&#xd2;" horiz-adv-x="1591" 
d="M1176 1604q-338 77 -404 108q-28 12 -43.5 35.5t-15.5 50.5q0 37 26.5 64.5t65.5 27.5q27 0 47 -10q49 -24 134.5 -93t191.5 -179zM698 -20q-264 0 -415.5 157.5t-151.5 427.5q0 195 66 371t177.5 303t267 202t327.5 75q262 0 413.5 -158.5t151.5 -427.5
q0 -195 -65.5 -371.5t-177 -303t-266.5 -201t-327 -74.5zM702 4q163 0 308 138.5t231 367.5t86 485q0 229 -96 362.5t-266 133.5q-164 0 -309 -138t-231.5 -367.5t-86.5 -485.5q0 -230 96.5 -363t267.5 -133z" />
    <glyph glyph-name="Oacute" unicode="&#xd3;" horiz-adv-x="1591" 
d="M821 1604l-2 4q104 109 190 178.5t136 93.5q20 10 45 10q40 0 67 -27t27 -65q0 -27 -16 -50.5t-45 -35.5q-61 -30 -402 -108zM698 -20q-264 0 -415.5 157.5t-151.5 427.5q0 195 66 371t177.5 303t267 202t327.5 75q262 0 413.5 -158.5t151.5 -427.5q0 -195 -65.5 -371.5
t-177 -303t-266.5 -201t-327 -74.5zM702 4q163 0 308 138.5t231 367.5t86 485q0 229 -96 362.5t-266 133.5q-164 0 -309 -138t-231.5 -367.5t-86.5 -485.5q0 -230 96.5 -363t267.5 -133z" />
    <glyph glyph-name="Ocircumflex" unicode="&#xd4;" horiz-adv-x="1591" 
d="M1008 1739l-297 -135l-2 4l325 282h2l226 -282v-4zM969 1516q262 0 413.5 -158.5t151.5 -427.5q0 -195 -65.5 -371.5t-177 -303t-266.5 -201t-327 -74.5q-264 0 -415.5 157.5t-151.5 427.5q0 195 66 371t177.5 303t267 202t327.5 75zM702 4q163 0 308 138.5t231 367.5
t86 485q0 229 -96 362.5t-266 133.5q-164 0 -309 -138t-231.5 -367.5t-86.5 -485.5q0 -230 96.5 -363t267.5 -133z" />
    <glyph glyph-name="Otilde" unicode="&#xd5;" horiz-adv-x="1591" 
d="M1143 1608q-75 0 -178 75q-97 74 -164 74q-109 0 -174 -133l-4 2q30 107 102 185.5t149 78.5q73 0 175 -75q50 -37 87.5 -55.5t82.5 -18.5q108 0 176 133l2 -2q-31 -108 -102.5 -186t-151.5 -78zM698 -20q-264 0 -415.5 157.5t-151.5 427.5q0 195 66 371t177.5 303
t267 202t327.5 75q262 0 413.5 -158.5t151.5 -427.5q0 -195 -65.5 -371.5t-177 -303t-266.5 -201t-327 -74.5zM702 4q163 0 308 138.5t231 367.5t86 485q0 229 -96 362.5t-266 133.5q-164 0 -309 -138t-231.5 -367.5t-86.5 -485.5q0 -230 96.5 -363t267.5 -133z" />
    <glyph glyph-name="Odieresis" unicode="&#xd6;" horiz-adv-x="1591" 
d="M823 1659q-43 0 -71.5 28t-28.5 72q0 46 34 79.5t81 33.5q44 0 71 -27t27 -69q0 -49 -33 -83t-80 -34zM1192 1659q-43 0 -71.5 28t-28.5 72q0 46 33.5 79.5t80.5 33.5q44 0 71.5 -27t27.5 -69q0 -49 -33 -83t-80 -34zM698 -20q-264 0 -415.5 157.5t-151.5 427.5
q0 195 66 371t177.5 303t267 202t327.5 75q262 0 413.5 -158.5t151.5 -427.5q0 -195 -65.5 -371.5t-177 -303t-266.5 -201t-327 -74.5zM702 4q163 0 308 138.5t231 367.5t86 485q0 229 -96 362.5t-266 133.5q-164 0 -309 -138t-231.5 -367.5t-86.5 -485.5q0 -230 96.5 -363
t267.5 -133z" />
    <glyph glyph-name="multiply" unicode="&#xd7;" horiz-adv-x="970" 
d="M844 885l-326 -277l236 -286l-21 -19l-235 287l-348 -295l-13 18l346 293l-235 287l20 18l236 -286l327 278z" />
    <glyph glyph-name="Oslash" unicode="&#xd8;" horiz-adv-x="1603" 
d="M1577 1511l-166 -182q127 -155 127 -399q0 -195 -65.5 -371.5t-176.5 -303t-265.5 -201t-325.5 -74.5q-265 0 -414 155l-178 -192l-17 16l178 195q-137 152 -137 411q0 195 65.5 371t177 303t266.5 202t327 75q274 0 422 -168l166 182zM969 1491q-164 0 -308.5 -138
t-230.5 -367t-86 -486q0 -142 37 -246l911 999q-42 114 -124.5 176t-198.5 62zM709 4q163 0 307.5 138.5t230.5 368t86 484.5q0 130 -30 232l-914 -998q45 -109 126 -167t194 -58z" />
    <glyph glyph-name="Ugrave" unicode="&#xd9;" horiz-adv-x="1552" 
d="M809 1712q-27 12 -43 35.5t-16 50.5q0 37 26.5 64.5t65.5 27.5q27 0 47 -10q48 -24 133.5 -93t191.5 -179l-2 -4q-336 76 -403 108zM1151 1495h514v-4q-122 -8 -170 -49.5t-70 -159.5l-141 -801q-38 -225 -189.5 -363t-357.5 -138q-240 0 -367.5 104.5t-127.5 296.5
q0 37 12 119l137 782q10 41 10 86q0 65 -38.5 91.5t-133.5 31.5v4h629v-4q-142 -7 -197.5 -54.5t-80.5 -181.5l-140 -792q-10 -65 -10 -115q0 -159 83.5 -251.5t231.5 -92.5q194 0 337 131.5t180 345.5l133 760q10 58 10 90q0 88 -55.5 121.5t-198.5 38.5v4z" />
    <glyph glyph-name="Uacute" unicode="&#xda;" horiz-adv-x="1552" 
d="M1262 1712q-66 -31 -404 -108l-2 4q106 110 191.5 179t134.5 93q20 10 47 10q39 0 65.5 -27.5t26.5 -64.5q0 -27 -16 -50.5t-43 -35.5zM1151 1495h514v-4q-122 -8 -170 -49.5t-70 -159.5l-141 -801q-38 -225 -189.5 -363t-357.5 -138q-240 0 -367.5 104.5t-127.5 296.5
q0 37 12 119l137 782q10 41 10 86q0 65 -38.5 91.5t-133.5 31.5v4h629v-4q-142 -7 -197.5 -54.5t-80.5 -181.5l-140 -792q-10 -65 -10 -115q0 -159 83.5 -251.5t231.5 -92.5q194 0 337 131.5t180 345.5l133 760q10 58 10 90q0 88 -55.5 121.5t-198.5 38.5v4z" />
    <glyph glyph-name="Ucircumflex" unicode="&#xdb;" horiz-adv-x="1552" 
d="M1047 1739l-299 -135l-3 4l326 282h2l225 -282v-4zM1151 1495h514v-4q-122 -8 -170 -49.5t-70 -159.5l-141 -801q-38 -225 -189.5 -363t-357.5 -138q-240 0 -367.5 104.5t-127.5 296.5q0 37 12 119l137 782q10 41 10 86q0 65 -38.5 91.5t-133.5 31.5v4h629v-4
q-142 -7 -197.5 -54.5t-80.5 -181.5l-140 -792q-10 -65 -10 -115q0 -159 83.5 -251.5t231.5 -92.5q194 0 337 131.5t180 345.5l133 760q10 58 10 90q0 88 -55.5 121.5t-198.5 38.5v4z" />
    <glyph glyph-name="Udieresis" unicode="&#xdc;" horiz-adv-x="1552" 
d="M862 1659q-44 0 -73 28t-29 72q0 46 33.5 79.5t80.5 33.5q44 0 71.5 -27t27.5 -69q0 -49 -32.5 -83t-78.5 -34zM1231 1659q-45 0 -74 28t-29 72q0 46 34 79.5t81 33.5q44 0 71 -27t27 -69q0 -49 -32 -83t-78 -34zM1151 1495h514v-4q-122 -8 -170 -49.5t-70 -159.5
l-141 -801q-38 -225 -189.5 -363t-357.5 -138q-240 0 -367.5 104.5t-127.5 296.5q0 37 12 119l137 782q10 41 10 86q0 65 -38.5 91.5t-133.5 31.5v4h629v-4q-142 -7 -197.5 -54.5t-80.5 -181.5l-140 -792q-10 -65 -10 -115q0 -159 83.5 -251.5t231.5 -92.5q194 0 337 131.5
t180 345.5l133 760q10 58 10 90q0 88 -55.5 121.5t-198.5 38.5v4z" />
    <glyph glyph-name="Yacute" unicode="&#xdd;" horiz-adv-x="1415" 
d="M1194 1712q-61 -30 -401 -108l-2 4q104 109 190 178.5t135 93.5q20 10 45 10q40 0 67 -27t27 -65q0 -27 -16 -50.5t-45 -35.5zM1022 1495h573v-4q-69 -9 -126.5 -38.5t-133.5 -107.5t-172 -215l-340 -489l-71 -401q-11 -72 -11 -95q0 -76 44.5 -106t156.5 -35v-4h-653v4
q139 6 193 53t79 183l72 401l-225 608q-23 64 -40 101t-41 70.5t-54 49.5t-72 21v4h649v-4q-119 -11 -179.5 -46.5t-60.5 -103.5q0 -32 35 -139l180 -516l314 442q75 108 100 158t25 88q0 56 -56 82.5t-186 34.5v4z" />
    <glyph glyph-name="Thorn" unicode="&#xde;" horiz-adv-x="1384" 
d="M932 1198q191 0 301 -89t110 -239q0 -141 -79 -255t-220 -179t-315 -65h-285l-20 -117q-10 -65 -10 -102q0 -78 45.5 -110t156.5 -38v-4h-628v4q120 6 167.5 48t69.5 161l189 1069q8 44 8 84q0 67 -37.5 93.5t-132.5 31.5v4h592v-4q-122 -6 -170 -48.5t-68 -160.5
l-14 -84h340zM713 391q115 0 212 68t153.5 184.5t56.5 253.5q0 129 -66.5 205t-185.5 76h-295l-139 -787h264z" />
    <glyph glyph-name="germandbls" unicode="&#xdf;" horiz-adv-x="1220" 
d="M-154 -430l-2 4q182 138 240 471l174 993q49 269 213.5 431.5t386.5 162.5q149 0 237.5 -57t88.5 -154q0 -108 -113 -191q-24 -18 -102 -65q-32 -19 -54 -34t-52 -41t-48 -51t-31.5 -60.5t-13.5 -73.5q0 -43 23.5 -86.5t51 -72.5t79.5 -76q47 -43 75 -71t62 -71.5
t50.5 -90.5t16.5 -99q0 -151 -109 -254.5t-267 -103.5q-83 0 -147.5 46.5t-88.5 127.5l6 2q29 -49 85.5 -78t121.5 -29q94 0 155.5 61.5t61.5 153.5q0 31 -8.5 59t-31 59t-35.5 46.5t-48 52.5q-72 74 -111.5 141t-39.5 156q0 48 11.5 90.5t37.5 83.5t49 69.5t64 74.5
q66 59 119 149t53 197q0 77 -41 121.5t-111 44.5q-141 0 -251.5 -143.5t-153.5 -379.5l-170 -962q-38 -207 -157 -359.5t-276 -193.5z" />
    <glyph glyph-name="agrave" unicode="&#xe0;" horiz-adv-x="1234" 
d="M836 1200q-236 179 -314 277q-22 27 -22 65q0 34 28.5 62t63.5 28q54 0 82 -45q68 -101 166 -385zM1161 336l4 -2q-55 -172 -129.5 -263t-158.5 -91q-125 0 -125 114q0 13 4 45l114 639q-138 -421 -269 -609.5t-298 -188.5q-108 0 -169.5 88t-61.5 241q0 213 78 396
t215 292t299 109q131 0 235 -68q124 21 207 68h4l-168 -934q-2 -20 -2 -37q0 -24 8 -33.5t27 -9.5q78 0 186 244zM393 94q119 0 239.5 201.5t264.5 626.5l2 16q-24 65 -80.5 101t-128.5 36q-116 0 -215 -98.5t-155 -260.5t-56 -347q0 -134 33.5 -204.5t95.5 -70.5z" />
    <glyph glyph-name="aacute" unicode="&#xe1;" horiz-adv-x="1234" 
d="M971 1419q-84 -58 -389 -155l-2 4q92 115 169 194.5t119 110.5q28 22 58 22q37 0 65.5 -28.5t28.5 -63.5q0 -54 -49 -84zM1161 336l4 -2q-55 -172 -129.5 -263t-158.5 -91q-125 0 -125 114q0 13 4 45l114 639q-138 -421 -269 -609.5t-298 -188.5q-108 0 -169.5 88
t-61.5 241q0 213 78 396t215 292t299 109q131 0 235 -68q124 21 207 68h4l-168 -934q-2 -20 -2 -37q0 -24 8 -33.5t27 -9.5q78 0 186 244zM393 94q119 0 239.5 201.5t264.5 626.5l2 16q-24 65 -80.5 101t-128.5 36q-116 0 -215 -98.5t-155 -260.5t-56 -347
q0 -134 33.5 -204.5t95.5 -70.5z" />
    <glyph glyph-name="acircumflex" unicode="&#xe2;" horiz-adv-x="1234" 
d="M825 1442l-315 -203l-4 4l350 371h2l215 -371l-2 -4zM1161 336l4 -2q-55 -172 -129.5 -263t-158.5 -91q-125 0 -125 114q0 13 4 45l114 639q-138 -421 -269 -609.5t-298 -188.5q-108 0 -169.5 88t-61.5 241q0 213 78 396t215 292t299 109q131 0 235 -68q124 21 207 68h4
l-168 -934q-2 -20 -2 -37q0 -24 8 -33.5t27 -9.5q78 0 186 244zM393 94q119 0 239.5 201.5t264.5 626.5l2 16q-24 65 -80.5 101t-128.5 36q-116 0 -215 -98.5t-155 -260.5t-56 -347q0 -134 33.5 -204.5t95.5 -70.5z" />
    <glyph glyph-name="atilde" unicode="&#xe3;" horiz-adv-x="1234" 
d="M629 1438q-100 0 -162 -133l-4 2q29 107 98 185.5t144 78.5q61 0 155 -74q44 -36 79.5 -56t74.5 -20q102 0 164 133l4 -2q-31 -108 -99 -186t-143 -78q-43 0 -80 20t-82 58q-31 24 -48.5 36.5t-45.5 24t-55 11.5zM975 92q78 0 186 244l4 -2q-55 -172 -129.5 -263
t-158.5 -91q-125 0 -125 114q0 13 4 45l114 639q-138 -421 -269 -609.5t-298 -188.5q-108 0 -169.5 88t-61.5 241q0 213 78 396t215 292t299 109q131 0 235 -68q124 21 207 68h4l-168 -934q-2 -20 -2 -37q0 -24 8 -33.5t27 -9.5zM393 94q119 0 239.5 201.5t264.5 626.5l2 16
q-24 65 -80.5 101t-128.5 36q-116 0 -215 -98.5t-155 -260.5t-56 -347q0 -134 33.5 -204.5t95.5 -70.5z" />
    <glyph glyph-name="adieresis" unicode="&#xe4;" horiz-adv-x="1234" 
d="M641 1366q-44 0 -72 27t-28 71q0 46 33.5 80.5t78.5 34.5q44 0 72.5 -28t28.5 -70q0 -47 -33 -81t-80 -34zM1010 1366q-45 0 -73 27t-28 71q0 46 33.5 80.5t79.5 34.5q44 0 72 -28t28 -70q0 -48 -32.5 -81.5t-79.5 -33.5zM1161 336l4 -2q-55 -172 -129.5 -263t-158.5 -91
q-125 0 -125 114q0 13 4 45l114 639q-138 -421 -269 -609.5t-298 -188.5q-108 0 -169.5 88t-61.5 241q0 213 78 396t215 292t299 109q131 0 235 -68q124 21 207 68h4l-168 -934q-2 -20 -2 -37q0 -24 8 -33.5t27 -9.5q78 0 186 244zM393 94q119 0 239.5 201.5t264.5 626.5
l2 16q-24 65 -80.5 101t-128.5 36q-116 0 -215 -98.5t-155 -260.5t-56 -347q0 -134 33.5 -204.5t95.5 -70.5z" />
    <glyph glyph-name="aring" unicode="&#xe5;" horiz-adv-x="1234" 
d="M803 1214q-94 0 -148.5 47.5t-54.5 129.5q0 95 69 159t169 64q93 0 146.5 -48t53.5 -132q0 -93 -68 -156.5t-167 -63.5zM834 1589q-86 0 -145.5 -56t-59.5 -138q0 -72 48 -114t130 -42q85 0 144 55.5t59 135.5q0 74 -47 116.5t-129 42.5zM1161 336l4 -2
q-55 -172 -129.5 -263t-158.5 -91q-125 0 -125 114q0 13 4 45l114 639q-138 -421 -269 -609.5t-298 -188.5q-108 0 -169.5 88t-61.5 241q0 213 78 396t215 292t299 109q131 0 235 -68q124 21 207 68h4l-168 -934q-2 -20 -2 -37q0 -24 8 -33.5t27 -9.5q78 0 186 244zM393 94
q119 0 239.5 201.5t264.5 626.5l2 16q-24 65 -80.5 101t-128.5 36q-116 0 -215 -98.5t-155 -260.5t-56 -347q0 -134 33.5 -204.5t95.5 -70.5z" />
    <glyph glyph-name="ae" unicode="&#xe6;" horiz-adv-x="1757" 
d="M1272 100q91 0 193 50t175 131l5 -2q-82 -134 -216.5 -216.5t-273.5 -82.5q-184 0 -288.5 111.5t-104.5 303.5q0 49 6 92q-109 -262 -219.5 -384.5t-245.5 -122.5q-108 0 -169.5 88t-61.5 241q0 213 78 396t215 292t299 109q98 0 186.5 -41.5t148.5 -112.5
q170 154 387 154q147 0 235.5 -62t88.5 -165q0 -101 -102.5 -182.5t-269.5 -131t-384 -71.5v-27q0 -168 85 -267.5t233 -99.5zM1370 1081q-105 0 -198 -77.5t-150.5 -208t-65.5 -283.5q272 53 431 159t159 251q0 72 -48 115.5t-128 43.5zM393 94q120 0 240.5 204.5
t265.5 641.5q-24 64 -80.5 99.5t-128.5 35.5q-116 0 -215 -98.5t-155 -260.5t-56 -347q0 -134 33.5 -204.5t95.5 -70.5z" />
    <glyph glyph-name="ccedilla" unicode="&#xe7;" horiz-adv-x="1067" 
d="M883 602q-27 0 -47 10v437q-50 32 -131 32q-117 0 -217 -82t-158 -222.5t-58 -305.5q0 -170 83 -270.5t227 -100.5q91 0 190.5 49.5t165.5 131.5l4 -2q-78 -134 -209.5 -216.5t-267.5 -82.5h-2l-35 -41q137 -97 137 -189q0 -81 -74 -129t-198 -51v4q63 8 103 42.5
t40 84.5q0 37 -25.5 78.5t-72.5 77.5l98 123q-167 9 -261.5 120.5t-94.5 296.5q0 146 48.5 277t131.5 226t197.5 150.5t242.5 55.5q148 0 234 -78t86 -209q0 -97 -41 -157t-96 -60z" />
    <glyph glyph-name="egrave" unicode="&#xe8;" horiz-adv-x="1064" 
d="M793 1200q-236 179 -314 277q-22 27 -22 65q0 34 28.5 62t63.5 28q54 0 82 -45q68 -101 166 -385zM588 100q93 0 194.5 50t173.5 131l5 -2q-82 -134 -216 -216.5t-274 -82.5q-183 0 -287 111.5t-104 303.5q0 193 83 357t225.5 259t309.5 95q140 0 224 -60t84 -159
q0 -103 -99.5 -186t-261.5 -133.5t-373 -73.5v-27q0 -169 84 -268t232 -99zM684 1081q-104 0 -196 -77.5t-149 -208t-65 -283.5q173 36 299 93t198.5 139.5t72.5 181.5q0 69 -44 112t-116 43z" />
    <glyph glyph-name="eacute" unicode="&#xe9;" horiz-adv-x="1064" 
d="M899 1419q-89 -59 -391 -155l-2 4q92 115 169.5 194.5t119.5 110.5q31 22 59 22q35 0 63.5 -28.5t28.5 -63.5q0 -55 -47 -84zM588 100q93 0 194.5 50t173.5 131l5 -2q-82 -134 -216 -216.5t-274 -82.5q-183 0 -287 111.5t-104 303.5q0 193 83 357t225.5 259t309.5 95
q140 0 224 -60t84 -159q0 -103 -99.5 -186t-261.5 -133.5t-373 -73.5v-27q0 -169 84 -268t232 -99zM684 1081q-104 0 -196 -77.5t-149 -208t-65 -283.5q173 36 299 93t198.5 139.5t72.5 181.5q0 69 -44 112t-116 43z" />
    <glyph glyph-name="ecircumflex" unicode="&#xea;" horiz-adv-x="1064" 
d="M754 1442l-316 -203l-4 4l348 371h2l217 -371l-4 -4zM588 100q93 0 194.5 50t173.5 131l5 -2q-82 -134 -216 -216.5t-274 -82.5q-183 0 -287 111.5t-104 303.5q0 193 83 357t225.5 259t309.5 95q140 0 224 -60t84 -159q0 -103 -99.5 -186t-261.5 -133.5t-373 -73.5v-27
q0 -169 84 -268t232 -99zM684 1081q-104 0 -196 -77.5t-149 -208t-65 -283.5q173 36 299 93t198.5 139.5t72.5 181.5q0 69 -44 112t-116 43z" />
    <glyph glyph-name="edieresis" unicode="&#xeb;" horiz-adv-x="1064" 
d="M569 1366q-45 0 -73.5 27t-28.5 71q0 46 34 80.5t81 34.5q44 0 71 -28t27 -70q0 -47 -32.5 -81t-78.5 -34zM950 1579q44 0 71.5 -28t27.5 -70q0 -47 -32.5 -81t-78.5 -34q-45 0 -73.5 27t-28.5 71q0 46 33.5 80.5t80.5 34.5zM1006 887q0 -103 -99.5 -186t-261.5 -133.5
t-373 -73.5v-27q0 -169 84 -268t232 -99q93 0 194.5 50t173.5 131l5 -2q-82 -134 -216 -216.5t-274 -82.5q-183 0 -287 111.5t-104 303.5q0 193 83 357t225.5 259t309.5 95q140 0 224 -60t84 -159zM684 1081q-104 0 -196 -77.5t-149 -208t-65 -283.5q173 36 299 93
t198.5 139.5t72.5 181.5q0 69 -44 112t-116 43z" />
    <glyph glyph-name="igrave" unicode="&#xec;" horiz-adv-x="638" 
d="M530 1200q-118 90 -199 163t-114 114q-22 27 -22 65q0 34 28.5 62t63.5 28q54 0 82 -45q68 -101 166 -385zM567 336l4 -2q-55 -172 -130.5 -263t-159.5 -91q-58 0 -91.5 28t-33.5 86q0 21 6 45l137 774q4 20 4 37q0 24 -8.5 32.5t-26.5 8.5q-78 0 -188 -243l-4 2
q55 172 131 264t160 92q58 0 91.5 -29.5t33.5 -87.5q0 -15 -7 -43l-137 -774q-4 -20 -4 -37q0 -24 9 -33.5t28 -9.5q75 0 186 244z" />
    <glyph glyph-name="iacute" unicode="&#xed;" horiz-adv-x="638" 
d="M584 1595q37 0 65.5 -28.5t28.5 -63.5q0 -54 -49 -84q-85 -58 -391 -155l-2 4q181 221 288 305q31 22 60 22zM381 92q75 0 186 244l4 -2q-55 -172 -130.5 -263t-159.5 -91q-58 0 -91.5 28t-33.5 86q0 21 6 45l137 774q4 20 4 37q0 24 -8.5 32.5t-26.5 8.5
q-78 0 -188 -243l-4 2q55 172 131 264t160 92q58 0 91.5 -29.5t33.5 -87.5q0 -15 -7 -43l-137 -774q-4 -20 -4 -37q0 -24 9 -33.5t28 -9.5z" />
    <glyph glyph-name="icircumflex" unicode="&#xee;" horiz-adv-x="638" 
d="M514 1614l217 -371l-2 -4l-246 203l-315 -203l-4 4l348 371h2zM381 92q75 0 186 244l4 -2q-55 -172 -130.5 -263t-159.5 -91q-58 0 -91.5 28t-33.5 86q0 21 6 45l137 774q4 20 4 37q0 24 -8.5 32.5t-26.5 8.5q-78 0 -188 -243l-4 2q55 172 131 264t160 92
q58 0 91.5 -29.5t33.5 -87.5q0 -15 -7 -43l-137 -774q-4 -20 -4 -37q0 -24 9 -33.5t28 -9.5z" />
    <glyph glyph-name="idieresis" unicode="&#xef;" horiz-adv-x="638" 
d="M344 1370q-41 0 -67.5 26t-26.5 66q0 46 31 78.5t75 32.5q41 0 67 -26t26 -66q0 -47 -30.5 -79t-74.5 -32zM635 1573q41 0 66.5 -26t25.5 -66q0 -47 -30 -79t-74 -32q-41 0 -68 26t-27 66q0 46 31.5 78.5t75.5 32.5zM381 92q75 0 186 244l4 -2q-55 -172 -130.5 -263
t-159.5 -91q-58 0 -91.5 28t-33.5 86q0 21 6 45l137 774q4 20 4 37q0 24 -8.5 32.5t-26.5 8.5q-78 0 -188 -243l-4 2q55 172 131 264t160 92q58 0 91.5 -29.5t33.5 -87.5q0 -15 -7 -43l-137 -774q-4 -20 -4 -37q0 -24 9 -33.5t28 -9.5z" />
    <glyph glyph-name="eth" unicode="&#xf0;" horiz-adv-x="1181" 
d="M752 1462q170 -136 263 -318.5t93 -385.5q0 -209 -83 -388.5t-225 -284.5t-308 -105q-191 0 -301.5 115.5t-110.5 312.5q0 139 46 268t123 223t182 150.5t218 56.5q144 0 232 -88q-51 228 -201 414l-340 -152l-10 23l334 149q-89 99 -203 176l2 4q149 -62 266 -151
l340 151l12 -22zM496 4q95 0 182 87t145.5 232t75.5 314q6 52 6 100q0 154 -59 245t-162 91t-199 -107.5t-154.5 -280t-58.5 -353.5q0 -152 59 -240t165 -88z" />
    <glyph glyph-name="ntilde" unicode="&#xf1;" horiz-adv-x="1302" 
d="M616 1438q-99 0 -161 -133l-4 2q31 108 98.5 186t142.5 78q62 0 156 -74q32 -25 50 -38t47 -25.5t56 -12.5q102 0 164 133l4 -2q-31 -108 -98.5 -186t-142.5 -78q-43 0 -80 20t-82 58q-31 25 -48 36.5t-45.5 23.5t-56.5 12zM1235 336l4 -2q-55 -171 -130.5 -262.5
t-158.5 -91.5q-60 0 -93.5 28t-33.5 86q0 21 6 45l134 756q4 18 4 33q0 61 -60 61q-29 0 -65.5 -22.5t-89.5 -81t-111.5 -149t-135 -239t-157.5 -337.5l-26 -160h-181l162 913q2 20 2 37q0 24 -8 32.5t-27 8.5q-36 0 -85 -62t-101 -181l-4 2q55 172 130 264t159 92
q59 0 92 -29.5t33 -87.5q0 -3 -5 -43l-122 -686q69 174 137.5 313t128.5 228.5t114 152t103 94.5t86 45t72 13q67 0 104 -36t37 -105q0 -25 -4 -50l-129 -743q-4 -20 -4 -37q0 -24 9 -33.5t28 -9.5q75 0 186 244z" />
    <glyph glyph-name="ograve" unicode="&#xf2;" horiz-adv-x="1208" 
d="M791 1200q-232 174 -314 277q-22 27 -22 65q0 34 28 62t64 28q52 0 80 -45q62 -87 168 -385zM508 -20q-198 0 -312 116t-114 314q0 143 49 272t132 222t198.5 147.5t243.5 54.5q198 0 310.5 -116.5t112.5 -313.5q0 -192 -82 -352t-224.5 -252t-313.5 -92zM512 4
q108 0 207.5 106.5t160 279t60.5 355.5q0 155 -63.5 245.5t-176.5 90.5q-108 0 -207 -107t-159 -279.5t-60 -354.5q0 -157 62.5 -246.5t175.5 -89.5z" />
    <glyph glyph-name="oacute" unicode="&#xf3;" horiz-adv-x="1208" 
d="M520 1264l-2 4q92 115 169.5 194.5t119.5 110.5q31 22 57 22q37 0 65.5 -28.5t28.5 -63.5q0 -55 -47 -84q-89 -59 -391 -155zM508 -20q-198 0 -312 116t-114 314q0 143 49 272t132 222t198.5 147.5t243.5 54.5q198 0 310.5 -116.5t112.5 -313.5q0 -192 -82 -352
t-224.5 -252t-313.5 -92zM512 4q108 0 207.5 106.5t160 279t60.5 355.5q0 155 -63.5 245.5t-176.5 90.5q-108 0 -207 -107t-159 -279.5t-60 -354.5q0 -157 62.5 -246.5t175.5 -89.5z" />
    <glyph glyph-name="ocircumflex" unicode="&#xf4;" horiz-adv-x="1208" 
d="M764 1442l-313 -203l-5 4l349 371h2l217 -371l-4 -4zM705 1106q198 0 310.5 -116.5t112.5 -313.5q0 -192 -82 -352t-224.5 -252t-313.5 -92q-198 0 -312 116t-114 314q0 143 49 272t132 222t198.5 147.5t243.5 54.5zM512 4q108 0 207.5 106.5t160 279t60.5 355.5
q0 155 -63.5 245.5t-176.5 90.5q-108 0 -207 -107t-159 -279.5t-60 -354.5q0 -157 62.5 -246.5t175.5 -89.5z" />
    <glyph glyph-name="otilde" unicode="&#xf5;" horiz-adv-x="1208" 
d="M879 1288q-43 0 -80 20t-82 58q-31 25 -48 36.5t-45.5 23.5t-56.5 12q-99 0 -161 -133l-5 2q31 108 99 186t143 78q62 0 156 -74q31 -24 50.5 -38t48 -26t54.5 -12q101 0 166 133l2 -2q-31 -108 -98.5 -186t-142.5 -78zM508 -20q-198 0 -312 116t-114 314q0 143 49 272
t132 222t198.5 147.5t243.5 54.5q198 0 310.5 -116.5t112.5 -313.5q0 -192 -82 -352t-224.5 -252t-313.5 -92zM512 4q108 0 207.5 106.5t160 279t60.5 355.5q0 155 -63.5 245.5t-176.5 90.5q-108 0 -207 -107t-159 -279.5t-60 -354.5q0 -157 62.5 -246.5t175.5 -89.5z" />
    <glyph glyph-name="odieresis" unicode="&#xf6;" horiz-adv-x="1208" 
d="M580 1366q-43 0 -72 27t-29 71q0 46 34 80.5t81 34.5q44 0 71 -28t27 -70q0 -48 -32.5 -81.5t-79.5 -33.5zM948 1366q-43 0 -71.5 27t-28.5 71q0 46 34 80.5t81 34.5q44 0 71 -28t27 -70q0 -47 -33 -81t-80 -34zM508 -20q-198 0 -312 116t-114 314q0 143 49 272t132 222
t198.5 147.5t243.5 54.5q198 0 310.5 -116.5t112.5 -313.5q0 -192 -82 -352t-224.5 -252t-313.5 -92zM512 4q108 0 207.5 106.5t160 279t60.5 355.5q0 155 -63.5 245.5t-176.5 90.5q-108 0 -207 -107t-159 -279.5t-60 -354.5q0 -157 62.5 -246.5t175.5 -89.5z" />
    <glyph glyph-name="divide" unicode="&#xf7;" horiz-adv-x="970" 
d="M524 756q-44 0 -70 25t-26 65q0 56 40 95.5t95 39.5q43 0 69.5 -24.5t26.5 -65.5q0 -55 -39.5 -95t-95.5 -40zM113 592l4 20h762l-5 -20h-761zM428 221q-42 0 -68 25t-26 65q0 57 39.5 97.5t95.5 40.5q42 0 68 -25.5t26 -65.5q0 -57 -39 -97t-96 -40z" />
    <glyph glyph-name="oslash" unicode="&#xf8;" horiz-adv-x="1214" 
d="M1176 1128l-144 -157q96 -116 96 -295q0 -192 -82 -352t-224.5 -252t-313.5 -92q-188 0 -303 106l-131 -143l-17 16l131 143q-106 112 -106 308q0 143 49 272t132 222t198.5 147.5t243.5 54.5q197 0 311 -117l143 156zM700 1081q-108 0 -207 -107t-159 -279.5t-60 -354.5
q0 -69 17 -139l629 696q-25 88 -82 136t-138 48zM512 4q108 0 207.5 106.5t160 279t60.5 355.5q0 67 -12 125l-631 -696q58 -170 215 -170z" />
    <glyph glyph-name="ugrave" unicode="&#xf9;" horiz-adv-x="1300" 
d="M819 1200q-118 89 -198.5 161.5t-114.5 115.5q-23 29 -23 65q0 34 27.5 62t62.5 28q54 0 82 -45q62 -87 168 -385zM1225 336l4 -2q-55 -171 -130.5 -262.5t-158.5 -91.5q-125 0 -125 114q0 13 4 45l121 682q-79 -206 -159.5 -362.5t-146 -245t-130 -143.5t-110 -72.5
t-89.5 -17.5q-67 0 -104 35.5t-37 103.5q0 26 4 51l129 743q4 20 4 37q0 24 -8.5 32.5t-28.5 8.5q-76 0 -186 -243l-4 2q55 172 130.5 264t157.5 92q59 0 92 -29.5t33 -87.5q0 -11 -4 -43l-133 -756q-4 -20 -4 -34q0 -62 57 -62q37 0 87.5 39.5t119 128t159.5 259.5t189 405
l29 159h180l-161 -913q-5 -25 -5 -37q0 -24 9 -33.5t28 -9.5q36 0 84 62t103 182z" />
    <glyph glyph-name="uacute" unicode="&#xfa;" horiz-adv-x="1300" 
d="M940 1419q-89 -59 -391 -155l-2 4q92 115 169.5 194.5t119.5 110.5q31 22 57 22q37 0 65.5 -28.5t28.5 -63.5q0 -55 -47 -84zM1225 336l4 -2q-55 -171 -130.5 -262.5t-158.5 -91.5q-125 0 -125 114q0 13 4 45l121 682q-79 -206 -159.5 -362.5t-146 -245t-130 -143.5
t-110 -72.5t-89.5 -17.5q-67 0 -104 35.5t-37 103.5q0 26 4 51l129 743q4 20 4 37q0 24 -8.5 32.5t-28.5 8.5q-76 0 -186 -243l-4 2q55 172 130.5 264t157.5 92q59 0 92 -29.5t33 -87.5q0 -11 -4 -43l-133 -756q-4 -20 -4 -34q0 -62 57 -62q37 0 87.5 39.5t119 128
t159.5 259.5t189 405l29 159h180l-161 -913q-5 -25 -5 -37q0 -24 9 -33.5t28 -9.5q36 0 84 62t103 182z" />
    <glyph glyph-name="ucircumflex" unicode="&#xfb;" horiz-adv-x="1300" 
d="M793 1442l-314 -203l-4 4l348 371h2l217 -371l-4 -4zM1225 336l4 -2q-55 -171 -130.5 -262.5t-158.5 -91.5q-125 0 -125 114q0 13 4 45l121 682q-79 -206 -159.5 -362.5t-146 -245t-130 -143.5t-110 -72.5t-89.5 -17.5q-67 0 -104 35.5t-37 103.5q0 26 4 51l129 743
q4 20 4 37q0 24 -8.5 32.5t-28.5 8.5q-76 0 -186 -243l-4 2q55 172 130.5 264t157.5 92q59 0 92 -29.5t33 -87.5q0 -11 -4 -43l-133 -756q-4 -20 -4 -34q0 -62 57 -62q37 0 87.5 39.5t119 128t159.5 259.5t189 405l29 159h180l-161 -913q-5 -25 -5 -37q0 -24 9 -33.5
t28 -9.5q36 0 84 62t103 182z" />
    <glyph glyph-name="udieresis" unicode="&#xfc;" horiz-adv-x="1300" 
d="M608 1366q-43 0 -71.5 27t-28.5 71q0 46 34 80.5t81 34.5q44 0 71 -28t27 -70q0 -47 -33 -81t-80 -34zM977 1366q-43 0 -71.5 27t-28.5 71q0 46 33.5 80.5t80.5 34.5q44 0 71.5 -28t27.5 -70q0 -47 -33 -81t-80 -34zM1225 336l4 -2q-55 -171 -130.5 -262.5t-158.5 -91.5
q-125 0 -125 114q0 13 4 45l121 682q-79 -206 -159.5 -362.5t-146 -245t-130 -143.5t-110 -72.5t-89.5 -17.5q-67 0 -104 35.5t-37 103.5q0 26 4 51l129 743q4 20 4 37q0 24 -8.5 32.5t-28.5 8.5q-76 0 -186 -243l-4 2q55 172 130.5 264t157.5 92q59 0 92 -29.5t33 -87.5
q0 -11 -4 -43l-133 -756q-4 -20 -4 -34q0 -62 57 -62q37 0 87.5 39.5t119 128t159.5 259.5t189 405l29 159h180l-161 -913q-5 -25 -5 -37q0 -24 9 -33.5t28 -9.5q36 0 84 62t103 182z" />
    <glyph glyph-name="yacute" unicode="&#xfd;" horiz-adv-x="1232" 
d="M940 1419q-89 -59 -391 -155l-2 4q92 115 169.5 194.5t119.5 110.5q31 22 57 22q37 0 65.5 -28.5t28.5 -63.5q0 -55 -47 -84zM987 1085h180l-114 -651q-38 -211 -115.5 -376t-184 -271.5t-236.5 -161.5t-277 -55q-65 0 -104.5 29t-39.5 75q0 30 13 50l536 2
q232 168 250 548l41 529l2 14q-79 -205 -159 -360.5t-145 -244t-129.5 -143t-110 -72t-89.5 -17.5q-67 0 -104 35.5t-37 103.5q0 26 4 51l129 743q4 20 4 37q0 24 -8.5 32.5t-28.5 8.5q-76 0 -186 -243l-4 2q55 172 130.5 264t157.5 92q59 0 92 -29.5t33 -87.5q0 -11 -4 -43
l-133 -756q-4 -20 -4 -34q0 -62 57 -62q37 0 87.5 39.5t119 128t159.5 259.5t189 405z" />
    <glyph glyph-name="thorn" unicode="&#xfe;" horiz-adv-x="1179" 
d="M879 1106q107 0 168 -88.5t61 -241.5q0 -213 -78 -396t-214.5 -291.5t-299.5 -108.5q-68 0 -134 20.5t-114 56.5l-45 -258q-13 -70 16.5 -92.5t129.5 -30.5v-4q-202 -34 -361 -94h-4l315 1794q11 57 -19 81.5t-128 37.5v4q202 44 369 131h4l-232 -1309q138 414 269 601.5
t297 187.5zM489 10q116 0 215 98t155 260t56 347q0 276 -129 276q-118 0 -237 -198.5t-260 -616.5l-6 -37q26 -61 81.5 -95t124.5 -34z" />
    <glyph glyph-name="ydieresis" unicode="&#xff;" horiz-adv-x="1232" 
d="M608 1366q-43 0 -71.5 27t-28.5 71q0 46 34 80.5t81 34.5q44 0 71 -28t27 -70q0 -47 -33 -81t-80 -34zM977 1366q-43 0 -71.5 27t-28.5 71q0 46 33.5 80.5t80.5 34.5q44 0 71.5 -28t27.5 -70q0 -47 -33 -81t-80 -34zM987 1085h180l-114 -651q-38 -211 -115.5 -376
t-184 -271.5t-236.5 -161.5t-277 -55q-65 0 -104.5 29t-39.5 75q0 30 13 50l536 2q232 168 250 548l41 529l2 14q-79 -205 -159 -360.5t-145 -244t-129.5 -143t-110 -72t-89.5 -17.5q-67 0 -104 35.5t-37 103.5q0 26 4 51l129 743q4 20 4 37q0 24 -8.5 32.5t-28.5 8.5
q-76 0 -186 -243l-4 2q55 172 130.5 264t157.5 92q59 0 92 -29.5t33 -87.5q0 -11 -4 -43l-133 -756q-4 -20 -4 -34q0 -62 57 -62q37 0 87.5 39.5t119 128t159.5 259.5t189 405z" />
    <glyph glyph-name="Amacron" unicode="&#x100;" horiz-adv-x="1505" 
d="M1264 1718l-9 -20h-616l8 20h617zM1241 201q13 -62 23 -93t29 -56.5t47.5 -35t76.5 -12.5v-4h-631v4q132 13 190 47t58 117q0 6 -10 78l-57 293h-605l-92 -170q-53 -94 -73.5 -147.5t-20.5 -96.5q0 -60 50.5 -86.5t168.5 -34.5v-4h-489v4q42 5 76 20t60 35t56 61
t52.5 79.5t60.5 107.5l565 1026l-14 78q89 39 176 105h33zM375 559h588l-156 793z" />
    <glyph glyph-name="amacron" unicode="&#x101;" horiz-adv-x="1234" 
d="M1139 1468l-9 -20h-618l8 20h619zM1161 336l4 -2q-55 -172 -129.5 -263t-158.5 -91q-125 0 -125 114q0 13 4 45l114 639q-138 -421 -269 -609.5t-298 -188.5q-108 0 -169.5 88t-61.5 241q0 213 78 396t215 292t299 109q131 0 235 -68q124 21 207 68h4l-168 -934
q-2 -20 -2 -37q0 -24 8 -33.5t27 -9.5q78 0 186 244zM393 94q119 0 239.5 201.5t264.5 626.5l2 16q-24 65 -80.5 101t-128.5 36q-116 0 -215 -98.5t-155 -260.5t-56 -347q0 -134 33.5 -204.5t95.5 -70.5z" />
    <glyph glyph-name="Abreve" unicode="&#x102;" horiz-adv-x="1505" 
d="M932 1599q-87 0 -152 74.5t-82 208.5l2 2q46 -67 112.5 -106t143.5 -39q80 0 160.5 39t147.5 106l4 -2q-64 -134 -156 -208.5t-180 -74.5zM1241 201q13 -62 23 -93t29 -56.5t47.5 -35t76.5 -12.5v-4h-631v4q132 13 190 47t58 117q0 6 -10 78l-57 293h-605l-92 -170
q-53 -94 -73.5 -147.5t-20.5 -96.5q0 -60 50.5 -86.5t168.5 -34.5v-4h-489v4q42 5 76 20t60 35t56 61t52.5 79.5t60.5 107.5l565 1026l-14 78q89 39 176 105h33zM375 559h588l-156 793z" />
    <glyph glyph-name="abreve" unicode="&#x103;" horiz-adv-x="1234" 
d="M786 1225q-94 0 -154.5 98t-70.5 268l4 2q28 -103 94.5 -165t151.5 -62q86 0 174.5 62t151.5 165l4 -2q-70 -169 -166 -267.5t-189 -98.5zM1161 336l4 -2q-55 -172 -129.5 -263t-158.5 -91q-125 0 -125 114q0 13 4 45l114 639q-138 -421 -269 -609.5t-298 -188.5
q-108 0 -169.5 88t-61.5 241q0 213 78 396t215 292t299 109q131 0 235 -68q124 21 207 68h4l-168 -934q-2 -20 -2 -37q0 -24 8 -33.5t27 -9.5q78 0 186 244zM393 94q119 0 239.5 201.5t264.5 626.5l2 16q-24 65 -80.5 101t-128.5 36q-116 0 -215 -98.5t-155 -260.5t-56 -347
q0 -134 33.5 -204.5t95.5 -70.5z" />
    <glyph glyph-name="Aogonek" unicode="&#x104;" horiz-adv-x="1505" 
d="M1241 201q13 -62 23 -93t29 -56.5t47.5 -35t76.5 -12.5v-4h-59q-105 -63 -170.5 -144.5t-65.5 -148.5q0 -36 23.5 -58t62.5 -22q76 0 142 51l2 -4q-42 -40 -99 -67t-120 -27q-71 0 -114.5 31.5t-43.5 85.5q0 83 100 163.5t275 139.5h-564v4q132 13 190 47t58 117
q0 6 -10 78l-57 293h-605l-92 -170q-53 -94 -73.5 -147.5t-20.5 -96.5q0 -60 50.5 -86.5t168.5 -34.5v-4h-489v4q42 5 76 20t60 35t56 61t52.5 79.5t60.5 107.5l565 1026l-14 78q89 39 176 105h33zM375 559h588l-156 793z" />
    <glyph glyph-name="aogonek" unicode="&#x105;" horiz-adv-x="1234" 
d="M893 -373q75 0 141 51l2 -4q-42 -40 -99 -67t-120 -27q-71 0 -114.5 31.5t-43.5 85.5q0 69 69 144t185 143q-24 -4 -36 -4q-125 0 -125 114q0 13 4 45l114 639q-138 -421 -269 -609.5t-298 -188.5q-108 0 -169.5 88t-61.5 241q0 213 78 396t215 292t299 109
q131 0 235 -68q124 21 207 68h4l-168 -934q-2 -20 -2 -37q0 -24 8 -33.5t27 -9.5q78 0 186 244l4 -2q-80 -249 -194 -324q-164 -200 -164 -303q0 -36 23.5 -58t62.5 -22zM393 94q119 0 239.5 201.5t264.5 626.5l2 16q-24 65 -80.5 101t-128.5 36q-116 0 -215 -98.5
t-155 -260.5t-56 -347q0 -134 33.5 -204.5t95.5 -70.5z" />
    <glyph glyph-name="Cacute" unicode="&#x106;" horiz-adv-x="1392" 
d="M795 1604l-2 4q106 110 191.5 179t133.5 93q20 10 47 10q39 0 65.5 -27.5t26.5 -64.5q0 -27 -15.5 -50.5t-43.5 -35.5q-67 -32 -403 -108zM639 -20q-237 0 -373.5 153t-136.5 414q0 159 41 306.5t116 267t175.5 209t225.5 138t259 48.5q61 0 121 -18t104.5 -36t67.5 -18
q26 0 45 12.5t43 48.5h4l23 -530l-4 -2q-36 263 -142.5 390.5t-271.5 127.5q-160 0 -298 -116.5t-219 -315t-81 -428.5q0 -238 111.5 -377t306.5 -139q139 0 284.5 73.5t237.5 194.5l4 -2q-102 -179 -278.5 -290t-364.5 -111z" />
    <glyph glyph-name="cacute" unicode="&#x107;" horiz-adv-x="1067" 
d="M901 1419q-89 -59 -391 -155l-2 4q179 219 289 305q31 22 59 22q35 0 64.5 -28.5t29.5 -63.5q0 -54 -49 -84zM883 602q-27 0 -47 10v437q-50 32 -131 32q-117 0 -217 -82t-158 -222.5t-58 -305.5q0 -170 83 -270.5t227 -100.5q91 0 190.5 49.5t165.5 131.5l4 -2
q-78 -134 -209.5 -216.5t-267.5 -82.5q-179 0 -282 112t-103 305q0 146 48.5 277t131.5 226t197.5 150.5t242.5 55.5q148 0 234 -78t86 -209q0 -97 -41 -157t-96 -60z" />
    <glyph glyph-name="Cdotaccent" unicode="&#x10a;" horiz-adv-x="1392" 
d="M983 1647q-51 0 -85 31.5t-34 80.5q0 54 38 90.5t95 36.5q51 0 83 -31t32 -81q0 -55 -36.5 -91t-92.5 -36zM639 -20q-237 0 -373.5 153t-136.5 414q0 159 41 306.5t116 267t175.5 209t225.5 138t259 48.5q61 0 121 -18t104.5 -36t67.5 -18q26 0 45 12.5t43 48.5h4
l23 -530l-4 -2q-36 263 -142.5 390.5t-271.5 127.5q-160 0 -298 -116.5t-219 -315t-81 -428.5q0 -238 111.5 -377t306.5 -139q139 0 284.5 73.5t237.5 194.5l4 -2q-102 -179 -278.5 -290t-364.5 -111z" />
    <glyph glyph-name="cdotaccent" unicode="&#x10b;" horiz-adv-x="1067" 
d="M752 1348q-51 0 -84 31.5t-33 80.5q0 54 37.5 90.5t93.5 36.5q51 0 84 -31.5t33 -80.5q0 -55 -37 -91t-94 -36zM883 602q-27 0 -47 10v437q-50 32 -131 32q-117 0 -217 -82t-158 -222.5t-58 -305.5q0 -170 83 -270.5t227 -100.5q91 0 190.5 49.5t165.5 131.5l4 -2
q-78 -134 -209.5 -216.5t-267.5 -82.5q-179 0 -282 112t-103 305q0 146 48.5 277t131.5 226t197.5 150.5t242.5 55.5q148 0 234 -78t86 -209q0 -97 -41 -157t-96 -60z" />
    <glyph glyph-name="Ccaron" unicode="&#x10c;" horiz-adv-x="1392" 
d="M963 1604h-2l-228 282l2 4l252 -133l299 133v-4zM936 1491q-160 0 -298 -116.5t-219 -315t-81 -428.5q0 -238 111.5 -377t306.5 -139q139 0 284.5 73.5t237.5 194.5l4 -2q-102 -179 -278.5 -290t-364.5 -111q-237 0 -373.5 153t-136.5 414q0 159 41 306.5t116 267
t175.5 209t225.5 138t259 48.5q61 0 121 -18t104.5 -36t67.5 -18q26 0 45 12.5t43 48.5h4l23 -530l-4 -2q-36 263 -142.5 390.5t-271.5 127.5z" />
    <glyph glyph-name="ccaron" unicode="&#x10d;" horiz-adv-x="1067" 
d="M717 1219h-2l-219 370l4 4l245 -202l316 202l2 -4zM700 1106q148 0 234 -78t86 -209q0 -97 -41 -157t-96 -60q-27 0 -47 10v437q-50 32 -131 32q-117 0 -217 -82t-158 -222.5t-58 -305.5q0 -170 83 -270.5t227 -100.5q91 0 190.5 49.5t165.5 131.5l4 -2
q-78 -134 -209.5 -216.5t-267.5 -82.5q-179 0 -282 112t-103 305q0 146 48.5 277t131.5 226t197.5 150.5t242.5 55.5z" />
    <glyph glyph-name="Dcaron" unicode="&#x10e;" horiz-adv-x="1611" 
d="M907 1604h-2l-227 282l2 4l252 -133l299 133v-4zM932 1495q288 0 454 -158.5t166 -427.5q0 -189 -68.5 -357.5t-185.5 -289.5t-281.5 -191.5t-348.5 -70.5h-680v4q120 6 167.5 48t69.5 161l189 1069q8 44 8 84q0 67 -38 93.5t-134 31.5l2 4h680zM635 20q192 0 356 126.5
t259.5 342t95.5 467.5q0 240 -118.5 379.5t-330.5 139.5h-258l-223 -1276q-13 -70 -13 -99q0 -45 19.5 -62.5t64.5 -17.5h148z" />
    <glyph glyph-name="dcaron" unicode="&#x10f;" horiz-adv-x="1255" 
d="M1386 1632q54 0 85.5 -35t31.5 -94q0 -95 -71.5 -192.5t-180.5 -149.5l-2 4q53 38 88 95.5t35 105.5q0 41 -25.5 71t-70.5 36q-12 21 -12 43q0 47 36 81.5t86 34.5zM1200 1626l-258 -1454q-2 -20 -2 -37q0 -24 8 -33.5t27 -9.5q78 0 186 244l4 -2q-55 -172 -129.5 -263
t-158.5 -91q-125 0 -125 114q0 13 4 45l112 629q-138 -415 -268.5 -601.5t-296.5 -186.5q-108 0 -169.5 88t-61.5 241q0 213 78 396t215 292t299 109q144 0 249 -78l62 344q11 57 -19.5 81.5t-128.5 37.5v4q202 44 369 131h4zM393 94q119 0 238.5 198.5t261.5 618.5l6 31
q-26 64 -81.5 98.5t-127.5 34.5q-116 0 -215 -98.5t-155 -260.5t-56 -347q0 -134 33.5 -204.5t95.5 -70.5z" />
    <glyph glyph-name="Dcroat" unicode="&#x110;" horiz-adv-x="1613" 
d="M934 1495q288 0 454 -158.5t166 -427.5q0 -189 -68.5 -357.5t-185.5 -289.5t-281.5 -191.5t-348.5 -70.5h-680v4q120 6 167.5 48t69.5 161l97 545h-179l9 20h174l88 504q8 44 8 84q0 67 -38 93.5t-134 31.5l2 4h680zM637 20q192 0 356 126.5t259.5 342t95.5 467.5
q0 240 -118.5 379.5t-330.5 139.5h-258l-121 -697h408l-8 -20h-404l-98 -559q-12 -65 -12 -99q0 -45 19 -62.5t64 -17.5h148z" />
    <glyph glyph-name="dcroat" unicode="&#x111;" horiz-adv-x="1234" 
d="M1135 1251l-193 -1079q-2 -20 -2 -37q0 -24 8 -33.5t27 -9.5q78 0 186 244l4 -2q-55 -172 -129.5 -263t-158.5 -91q-125 0 -125 114q0 13 4 45l112 629q-138 -415 -268.5 -601.5t-296.5 -186.5q-108 0 -169.5 88t-61.5 241q0 213 78 396t215 292t299 109q144 0 249 -78
l41 223h-313l8 21h307l19 100q11 57 -19.5 81.5t-128.5 37.5v4q202 44 369 131h4l-63 -354h161l-8 -21h-155zM393 94q119 0 238.5 198.5t261.5 618.5l6 31q-26 64 -81.5 98.5t-127.5 34.5q-116 0 -215 -98.5t-155 -260.5t-56 -347q0 -134 33.5 -204.5t95.5 -70.5z" />
    <glyph glyph-name="Emacron" unicode="&#x112;" horiz-adv-x="1474" 
d="M1223 1718l-9 -20h-614l8 20h615zM727 20q68 0 119 5t103 18.5t94.5 38t86.5 62.5t86 93.5t87 129t94 170.5l4 -2l-266 -545q-120 10 -367 10h-780v4q120 6 167.5 48t69.5 161l189 1069q8 44 8 84q0 67 -37.5 93.5t-132.5 31.5v4h733q235 0 358 10l60 -524l-4 -2
q-15 109 -35 187.5t-51 134t-66.5 89.5t-89.5 53t-111.5 25.5t-140.5 6.5h-266l-121 -697h176q65 0 108 13t83 51.5t71.5 106.5t65.5 179h4q-85 -424 -131 -741h-4q2 35 2 92q0 89 -10.5 144t-37 85t-62 40t-93.5 10h-176l-98 -559q-10 -58 -10 -88q0 -52 24.5 -71.5
t85.5 -19.5h211z" />
    <glyph glyph-name="emacron" unicode="&#x113;" horiz-adv-x="1064" 
d="M449 1468h616l-8 -20h-617zM1006 887q0 -103 -99.5 -186t-261.5 -133.5t-373 -73.5v-27q0 -169 84 -268t232 -99q93 0 194.5 50t173.5 131l5 -2q-82 -134 -216 -216.5t-274 -82.5q-183 0 -287 111.5t-104 303.5q0 193 83 357t225.5 259t309.5 95q140 0 224 -60t84 -159z
M684 1081q-104 0 -196 -77.5t-149 -208t-65 -283.5q173 36 299 93t198.5 139.5t72.5 181.5q0 69 -44 112t-116 43z" />
    <glyph glyph-name="Edotaccent" unicode="&#x116;" horiz-adv-x="1474" 
d="M918 1647q-51 0 -84 31.5t-33 80.5q0 54 37.5 90.5t93.5 36.5q51 0 84 -31.5t33 -80.5q0 -55 -37 -91t-94 -36zM727 20q68 0 119 5t103 18.5t94.5 38t86.5 62.5t86 93.5t87 129t94 170.5l4 -2l-266 -545q-120 10 -367 10h-780v4q120 6 167.5 48t69.5 161l189 1069
q8 44 8 84q0 67 -37.5 93.5t-132.5 31.5v4h733q235 0 358 10l60 -524l-4 -2q-15 109 -35 187.5t-51 134t-66.5 89.5t-89.5 53t-111.5 25.5t-140.5 6.5h-266l-121 -697h176q65 0 108 13t83 51.5t71.5 106.5t65.5 179h4q-85 -424 -131 -741h-4q2 35 2 92q0 89 -10.5 144
t-37 85t-62 40t-93.5 10h-176l-98 -559q-10 -58 -10 -88q0 -52 24.5 -71.5t85.5 -19.5h211z" />
    <glyph glyph-name="edotaccent" unicode="&#x117;" horiz-adv-x="1064" 
d="M750 1348q-51 0 -84 31.5t-33 80.5q0 54 37.5 90.5t93.5 36.5q51 0 84 -31.5t33 -80.5q0 -55 -37 -91t-94 -36zM588 100q93 0 194.5 50t173.5 131l5 -2q-82 -134 -216 -216.5t-274 -82.5q-183 0 -287 111.5t-104 303.5q0 193 83 357t225.5 259t309.5 95q140 0 224 -60
t84 -159q0 -103 -99.5 -186t-261.5 -133.5t-373 -73.5v-27q0 -169 84 -268t232 -99zM684 1081q-104 0 -196 -77.5t-149 -208t-65 -283.5q173 36 299 93t198.5 139.5t72.5 181.5q0 69 -44 112t-116 43z" />
    <glyph glyph-name="Eogonek" unicode="&#x118;" horiz-adv-x="1474" 
d="M727 20q68 0 119 5t103 18.5t94.5 38t86.5 62.5t86 93.5t87 129t94 170.5l4 -2l-266 -545q-46 4 -125 8q-103 -63 -167.5 -143.5t-64.5 -147.5q0 -35 24 -57.5t64 -22.5q74 0 140 51l2 -4q-98 -94 -220 -94q-71 0 -113 31.5t-42 85.5q0 82 97 162.5t269 138.5
q-57 2 -231 2h-780v4q120 6 167.5 48t69.5 161l189 1069q8 44 8 84q0 67 -37.5 93.5t-132.5 31.5v4h733q235 0 358 10l60 -524l-4 -2q-15 109 -35 187.5t-51 134t-66.5 89.5t-89.5 53t-111.5 25.5t-140.5 6.5h-266l-121 -697h176q65 0 108 13t83 51.5t71.5 106.5t65.5 179h4
q-85 -424 -131 -741h-4q2 35 2 92q0 89 -10.5 144t-37 85t-62 40t-93.5 10h-176l-98 -559q-10 -58 -10 -88q0 -52 24.5 -71.5t85.5 -19.5h211z" />
    <glyph glyph-name="eogonek" unicode="&#x119;" horiz-adv-x="1064" 
d="M588 100q93 0 194.5 50t173.5 131l5 -2q-92 -149 -234 -228q-233 -225 -233 -344q0 -35 24 -57.5t64 -22.5q73 0 139 51l2 -4q-40 -40 -97 -67t-120 -27q-71 0 -114.5 31.5t-43.5 85.5q0 71 74.5 147.5t226.5 169.5q-84 -34 -178 -34q-183 0 -287 111.5t-104 303.5
q0 193 83 357t225.5 259t309.5 95q140 0 224 -60t84 -159q0 -103 -99.5 -186t-261.5 -133.5t-373 -73.5v-27q0 -169 84 -268t232 -99zM684 1081q-104 0 -196 -77.5t-149 -208t-65 -283.5q173 36 299 93t198.5 139.5t72.5 181.5q0 69 -44 112t-116 43z" />
    <glyph glyph-name="Ecaron" unicode="&#x11a;" horiz-adv-x="1474" 
d="M897 1604h-2l-227 282l2 4l254 -133l299 133v-4zM727 20q68 0 119 5t103 18.5t94.5 38t86.5 62.5t86 93.5t87 129t94 170.5l4 -2l-266 -545q-120 10 -367 10h-780v4q120 6 167.5 48t69.5 161l189 1069q8 44 8 84q0 67 -37.5 93.5t-132.5 31.5v4h733q235 0 358 10l60 -524
l-4 -2q-15 109 -35 187.5t-51 134t-66.5 89.5t-89.5 53t-111.5 25.5t-140.5 6.5h-266l-121 -697h176q65 0 108 13t83 51.5t71.5 106.5t65.5 179h4q-85 -424 -131 -741h-4q2 35 2 92q0 89 -10.5 144t-37 85t-62 40t-93.5 10h-176l-98 -559q-10 -58 -10 -88q0 -52 24.5 -71.5
t85.5 -19.5h211z" />
    <glyph glyph-name="ecaron" unicode="&#x11b;" horiz-adv-x="1064" 
d="M715 1219h-2l-219 370l4 4l245 -202l316 202l2 -4zM1006 887q0 -103 -99.5 -186t-261.5 -133.5t-373 -73.5v-27q0 -169 84 -268t232 -99q93 0 194.5 50t173.5 131l5 -2q-82 -134 -216 -216.5t-274 -82.5q-183 0 -287 111.5t-104 303.5q0 193 83 357t225.5 259t309.5 95
q140 0 224 -60t84 -159zM684 1081q-104 0 -196 -77.5t-149 -208t-65 -283.5q173 36 299 93t198.5 139.5t72.5 181.5q0 69 -44 112t-116 43z" />
    <glyph glyph-name="Gbreve" unicode="&#x11e;" horiz-adv-x="1548" 
d="M1004 1599q-88 0 -153.5 74.5t-82.5 208.5l4 2q44 -67 110.5 -106t145.5 -39q77 0 158 39t149 106l2 -2q-64 -134 -155.5 -208.5t-177.5 -74.5zM895 668h635v-4q-109 -6 -153.5 -47t-63.5 -154l-62 -350q-55 -5 -168 -47q-229 -86 -376 -86q-268 0 -422 158t-154 427
q0 196 67 372.5t181 303t273.5 201t336.5 74.5q74 0 137.5 -19t111.5 -38t83 -19q30 0 52 13t50 52h4l-43 -530h-4q-4 244 -108.5 380t-286.5 136q-103 0 -201.5 -51t-178 -144t-140 -214.5t-94 -270.5t-33.5 -305q0 -233 98.5 -367.5t274.5 -134.5q84 0 178 41.5t176 110.5
l47 258q8 49 8 96q0 83 -49 115.5t-176 38.5v4z" />
    <glyph glyph-name="gbreve" unicode="&#x11f;" horiz-adv-x="1167" 
d="M791 1225q-94 0 -155 98t-71 268l4 2q28 -103 94.5 -165t151.5 -62q86 0 174.5 62t151.5 165l4 -2q-70 -169 -165.5 -267.5t-188.5 -98.5zM903 1038q126 25 207 68h4l-123 -672q-38 -211 -115.5 -376t-184 -271.5t-236 -161.5t-275.5 -55q-67 0 -106 29t-39 75
q0 26 12 50l537 2q231 167 252 548l36 496q-138 -417 -268.5 -603.5t-296.5 -186.5q-108 0 -169.5 88t-61.5 241q0 213 78 396t215 292t299 109q131 0 235 -68zM397 94q119 0 238 198t262 617l6 31q-26 65 -81.5 100t-127.5 35q-116 0 -215 -98.5t-155 -260.5t-56 -347
q0 -134 33.5 -204.5t95.5 -70.5z" />
    <glyph glyph-name="Gdotaccent" unicode="&#x120;" horiz-adv-x="1548" 
d="M1028 1647q-51 0 -84 31.5t-33 80.5q0 54 37 90.5t94 36.5q51 0 84 -31.5t33 -80.5q0 -55 -37.5 -91t-93.5 -36zM895 668h635v-4q-109 -6 -153.5 -47t-63.5 -154l-62 -350q-55 -5 -168 -47q-229 -86 -376 -86q-268 0 -422 158t-154 427q0 196 67 372.5t181 303t273.5 201
t336.5 74.5q74 0 137.5 -19t111.5 -38t83 -19q30 0 52 13t50 52h4l-43 -530h-4q-4 244 -108.5 380t-286.5 136q-103 0 -201.5 -51t-178 -144t-140 -214.5t-94 -270.5t-33.5 -305q0 -233 98.5 -367.5t274.5 -134.5q84 0 178 41.5t176 110.5l47 258q8 49 8 96q0 83 -49 115.5
t-176 38.5v4z" />
    <glyph glyph-name="gdotaccent" unicode="&#x121;" horiz-adv-x="1167" 
d="M827 1348q-51 0 -84.5 31.5t-33.5 80.5q0 54 38 90.5t95 36.5q51 0 82.5 -31t31.5 -81q0 -55 -36.5 -91t-92.5 -36zM1110 1106h4l-123 -672q-38 -211 -115.5 -376t-184 -271.5t-236 -161.5t-275.5 -55q-67 0 -106 29t-39 75q0 26 12 50l537 2q231 167 252 548l36 496
q-138 -417 -268.5 -603.5t-296.5 -186.5q-108 0 -169.5 88t-61.5 241q0 213 78 396t215 292t299 109q131 0 235 -68q126 25 207 68zM397 94q119 0 238 198t262 617l6 31q-26 65 -81.5 100t-127.5 35q-116 0 -215 -98.5t-155 -260.5t-56 -347q0 -134 33.5 -204.5t95.5 -70.5z
" />
    <glyph glyph-name="uni0122" unicode="&#x122;" horiz-adv-x="1548" 
d="M895 668h635v-4q-109 -6 -153.5 -47t-63.5 -154l-62 -350q-55 -5 -168 -47q-229 -86 -376 -86q-268 0 -422 158t-154 427q0 196 67 372.5t181 303t273.5 201t336.5 74.5q74 0 137.5 -19t111.5 -38t83 -19q30 0 52 13t50 52h4l-43 -530h-4q-4 244 -108.5 380t-286.5 136
q-103 0 -201.5 -51t-178 -144t-140 -214.5t-94 -270.5t-33.5 -305q0 -233 98.5 -367.5t274.5 -134.5q84 0 178 41.5t176 110.5l47 258q8 49 8 96q0 83 -49 115.5t-176 38.5v4zM700 -66q53 0 84 -31t31 -83q0 -82 -70 -151t-176 -99l-2 4q53 24 87 66t34 81q0 33 -28 53
t-76 23q-9 18 -9 33q0 42 37 73t88 31z" />
    <glyph glyph-name="uni0123" unicode="&#x123;" horiz-adv-x="1167" 
d="M809 1241q-54 0 -84.5 31t-30.5 84q0 85 71.5 162t176.5 110l2 -4q-52 -28 -86.5 -74.5t-34.5 -89.5q0 -35 28 -57t73 -25q8 -16 8 -32q0 -42 -36.5 -73.5t-86.5 -31.5zM1110 1106h4l-123 -672q-38 -211 -115.5 -376t-184 -271.5t-236 -161.5t-275.5 -55q-67 0 -106 29
t-39 75q0 26 12 50l537 2q231 167 252 548l36 496q-138 -417 -268.5 -603.5t-296.5 -186.5q-108 0 -169.5 88t-61.5 241q0 213 78 396t215 292t299 109q131 0 235 -68q126 25 207 68zM397 94q119 0 238 198t262 617l6 31q-26 65 -81.5 100t-127.5 35q-116 0 -215 -98.5
t-155 -260.5t-56 -347q0 -134 33.5 -204.5t95.5 -70.5z" />
    <glyph glyph-name="Hbar" unicode="&#x126;" horiz-adv-x="1640" 
d="M1724 1491q-121 -6 -168 -48t-69 -161l-25 -135h189l-9 -21h-182l-160 -913q-10 -55 -10 -86q0 -65 38 -91.5t134 -31.5v-4h-592v4q121 6 168.5 47.5t69.5 161.5l94 545h-688l-96 -545q-8 -44 -8 -86q0 -65 37.5 -91.5t132.5 -31.5v-4h-592v4q121 6 169 48t68 161
l162 913h-168l8 21h162l25 135q8 44 8 84q0 67 -37 93.5t-133 31.5v4h592v-4q-122 -6 -170 -48.5t-68 -160.5l-24 -135h688l24 135q11 60 11 84q0 67 -38 93.5t-134 31.5v4h591v-4zM1206 778l62 348h-688l-62 -348h688z" />
    <glyph glyph-name="hbar" unicode="&#x127;" horiz-adv-x="1239" 
d="M1171 336l5 -2q-55 -171 -131 -262.5t-160 -91.5q-58 0 -91.5 28t-33.5 86q0 21 6 45l133 756q4 18 4 33q0 61 -59 61q-29 0 -65.5 -22.5t-89.5 -81t-111.5 -149t-135 -239t-157.5 -337.5l-27 -160h-180l221 1251h-164l8 21h158l18 100q11 57 -19 81.5t-128 37.5v4
q202 44 369 131h4l-64 -354h312l-9 -21h-305l-176 -993q82 207 164.5 364.5t148.5 247t130.5 145t110 73.5t87.5 18q67 0 104 -36t37 -105q0 -25 -4 -50l-129 -743q-4 -20 -4 -37q0 -24 9 -33.5t28 -9.5q75 0 186 244z" />
    <glyph glyph-name="Imacron" unicode="&#x12a;" horiz-adv-x="757" 
d="M840 1718l-9 -20h-503l8 20h504zM252 1495h592v-4q-122 -6 -170 -48.5t-68 -160.5l-188 -1069q-10 -55 -10 -86q0 -65 38.5 -91.5t133.5 -31.5v-4h-592v4q120 6 167.5 48t69.5 161l189 1069q8 44 8 84q0 67 -37.5 93.5t-132.5 31.5v4z" />
    <glyph glyph-name="imacron" unicode="&#x12b;" horiz-adv-x="638" 
d="M236 1468h505l-8 -20h-506zM381 92q75 0 186 244l4 -2q-55 -172 -130.5 -263t-159.5 -91q-58 0 -91.5 28t-33.5 86q0 21 6 45l137 774q4 20 4 37q0 24 -8.5 32.5t-26.5 8.5q-78 0 -188 -243l-4 2q55 172 131 264t160 92q58 0 91.5 -29.5t33.5 -87.5q0 -15 -7 -43
l-137 -774q-4 -20 -4 -37q0 -24 9 -33.5t28 -9.5z" />
    <glyph glyph-name="Iogonek" unicode="&#x12e;" horiz-adv-x="757" 
d="M252 1495h592v-4q-122 -6 -170 -48.5t-68 -160.5l-188 -1069q-10 -55 -10 -86q0 -65 38.5 -91.5t133.5 -31.5v-4h-60q-104 -63 -169.5 -144.5t-65.5 -148.5q0 -35 24 -57.5t64 -22.5q73 0 139 51l2 -4q-98 -94 -219 -94q-71 0 -113.5 31.5t-42.5 85.5q0 83 99 164
t274 139h-524v4q120 6 167.5 48t69.5 161l189 1069q8 44 8 84q0 67 -37.5 93.5t-132.5 31.5v4z" />
    <glyph glyph-name="iogonek" unicode="&#x12f;" horiz-adv-x="638" 
d="M494 1587q51 0 83.5 -31.5t32.5 -80.5q0 -55 -36.5 -91t-92.5 -36q-51 0 -85 31.5t-34 80.5q0 54 38 90.5t94 36.5zM571 334q-81 -250 -196 -324h2q-166 -198 -166 -303q0 -35 24 -57.5t64 -22.5q73 0 139 51l2 -4q-98 -94 -219 -94q-71 0 -113 31.5t-42 85.5
q0 71 67.5 145.5t185.5 143.5q-18 -6 -38 -6q-58 0 -91.5 28t-33.5 86q0 21 6 45l137 774q4 20 4 37q0 24 -8.5 32.5t-26.5 8.5q-78 0 -188 -243l-4 2q55 172 131 264t160 92q58 0 91.5 -29.5t33.5 -87.5q0 -15 -7 -43l-137 -774q-4 -20 -4 -37q0 -24 9 -33.5t28 -9.5
q75 0 186 244z" />
    <glyph glyph-name="Idotaccent" unicode="&#x130;" horiz-adv-x="757" 
d="M590 1647q-51 0 -84 31.5t-33 80.5q0 54 37.5 90.5t93.5 36.5q51 0 84 -31.5t33 -80.5q0 -55 -37 -91t-94 -36zM252 1495h592v-4q-122 -6 -170 -48.5t-68 -160.5l-188 -1069q-10 -55 -10 -86q0 -65 38.5 -91.5t133.5 -31.5v-4h-592v4q120 6 167.5 48t69.5 161l189 1069
q8 44 8 84q0 67 -37.5 93.5t-132.5 31.5v4z" />
    <glyph glyph-name="dotlessi" unicode="&#x131;" horiz-adv-x="638" 
d="M567 336l4 -2q-55 -172 -130.5 -263t-159.5 -91q-58 0 -91.5 28t-33.5 86q0 21 6 45l137 774q4 20 4 37q0 24 -8.5 32.5t-26.5 8.5q-78 0 -188 -243l-4 2q55 172 131 264t160 92q58 0 91.5 -29.5t33.5 -87.5q0 -15 -7 -43l-137 -774q-4 -20 -4 -37q0 -24 9 -33.5t28 -9.5
q75 0 186 244z" />
    <glyph glyph-name="IJ" unicode="&#x132;" horiz-adv-x="1521" 
d="M844 1495v-4q-122 -6 -170 -48.5t-68 -160.5l-188 -1069q-10 -55 -10 -86q0 -65 38.5 -91.5t133.5 -31.5v-4h-592v4q120 6 167.5 48t69.5 161l189 1069q8 44 8 84q0 67 -37.5 93.5t-132.5 31.5v4h592zM1036 1495h592v-4q-120 -6 -168.5 -48.5t-68.5 -160.5l-160 -913
q-35 -204 -169 -368t-314 -226l-3 4q110 84 178.5 207.5t100.5 302.5l174 993q8 41 8 84q0 67 -37.5 93.5t-132.5 31.5v4z" />
    <glyph glyph-name="ij" unicode="&#x133;" horiz-adv-x="1193" 
d="M481 1348q-51 0 -85 31.5t-34 80.5q0 54 38 90.5t94 36.5q51 0 83.5 -31.5t32.5 -80.5q0 -55 -36.5 -91t-92.5 -36zM1108 1587q51 0 84 -31.5t33 -80.5q0 -55 -37 -91t-94 -36q-51 0 -84 31.5t-33 80.5q0 54 37.5 90.5t93.5 36.5zM567 336l4 -2q-55 -172 -130.5 -263
t-159.5 -91q-58 0 -91.5 28t-33.5 86q0 21 6 45l137 774q4 20 4 37q0 24 -8.5 32.5t-26.5 8.5q-78 0 -188 -243l-4 2q55 172 131 264t160 92q58 0 91.5 -29.5t33.5 -87.5q0 -15 -7 -43l-137 -774q-4 -20 -4 -37q0 -24 9 -33.5t28 -9.5q75 0 186 244zM979 1106q59 0 92 -29.5
t33 -87.5q0 -11 -4 -43l-146 -823q-37 -206 -155.5 -359t-276.5 -194l-2 4q182 138 240 471l153 868q2 20 2 37q0 24 -7.5 32.5t-26.5 8.5q-36 0 -84.5 -61.5t-102.5 -181.5l-4 2q55 172 130 264t159 92z" />
    <glyph glyph-name="uni0136" unicode="&#x136;" horiz-adv-x="1533" 
d="M408 127q0 -65 38.5 -91.5t133.5 -31.5v-4h-592v4q119 5 167 47t70 162l189 1069q8 44 8 84q0 67 -37.5 93.5t-132.5 31.5v4h592v-4q-122 -6 -170 -48.5t-68 -160.5l-188 -1069q-10 -55 -10 -86zM1579 1491q-71 -1 -136 -37t-183 -135l-496 -406q198 -379 316 -569
t197.5 -262t166.5 -78v-4h-230q-62 0 -112 20.5t-102 68t-113.5 142.5t-131.5 225t-171 335l526 430q139 114 139 178q0 41 -44.5 62.5t-143.5 29.5v4h518v-4zM719 -66q53 0 84 -31t31 -83q0 -82 -69.5 -151t-174.5 -99l-2 4q52 24 85.5 66t33.5 81q0 33 -28.5 53t-76.5 23
q-6 12 -6 33q0 41 37 72.5t86 31.5z" />
    <glyph glyph-name="uni0137" unicode="&#x137;" horiz-adv-x="1185" 
d="M1133 326l4 -2q-39 -178 -110.5 -261t-162.5 -83q-103 0 -164 104l-309 463l148 26q162 41 252 118t90 171q0 65 -42 105.5t-112 40.5q-79 0 -167.5 -55t-160.5 -154l-141 -799h-180l244 1372q9 57 -20.5 81.5t-127.5 37.5v4q207 46 367 131h4l-139 -788
q82 125 196 196.5t225 71.5q110 0 178 -56t68 -147q0 -108 -124.5 -200.5t-334.5 -139.5l236 -358q33 -49 57.5 -70.5t53.5 -21.5q48 0 89.5 49t82.5 164zM471 -66q53 0 83 -31t30 -83q0 -82 -69 -151t-175 -99l-2 4q53 24 86 66t33 81q0 33 -28 53t-75 23q-8 16 -8 33
q0 42 37 73t88 31z" />
    <glyph glyph-name="Lacute" unicode="&#x139;" horiz-adv-x="1363" 
d="M803 1712q-66 -31 -404 -108l-2 4q106 110 191.5 179t134.5 93q20 10 47 10q39 0 65.5 -27.5t26.5 -64.5q0 -27 -16 -50.5t-43 -35.5zM1323 537l4 -2l-266 -545q-123 10 -354 10h-719v4q120 6 167.5 48t69.5 161l189 1069q8 44 8 84q0 67 -37.5 93.5t-132.5 31.5v4h629
v-4q-144 -7 -200 -55.5t-81 -182.5l-184 -1054q-13 -60 -13 -95q0 -46 24 -65t79 -19h160q93 0 158 10.5t131.5 41t122.5 88t116.5 149.5t128.5 228z" />
    <glyph glyph-name="lacute" unicode="&#x13a;" horiz-adv-x="589" 
d="M678 1960q39 0 65.5 -27.5t26.5 -64.5q0 -27 -16 -50.5t-43 -35.5q-70 -33 -404 -109l-2 4q106 110 192 179.5t134 93.5q20 10 47 10zM553 1626l-256 -1454q-4 -20 -4 -37q0 -24 8.5 -33.5t26.5 -9.5q78 0 186 244l4 -2q-55 -172 -130 -263t-159 -91q-125 0 -125 114
q0 5 5 45l219 1233q11 57 -19 81.5t-129 37.5v4q202 44 369 131h4z" />
    <glyph glyph-name="uni013B" unicode="&#x13b;" horiz-adv-x="1363" 
d="M1323 537l4 -2l-266 -545q-123 10 -354 10h-719v4q120 6 167.5 48t69.5 161l189 1069q8 44 8 84q0 67 -37.5 93.5t-132.5 31.5v4h629v-4q-144 -7 -200 -55.5t-81 -182.5l-184 -1054q-13 -60 -13 -95q0 -46 24 -65t79 -19h160q93 0 158 10.5t131.5 41t122.5 88
t116.5 149.5t128.5 228zM537 -66q53 0 83.5 -31t30.5 -83q0 -82 -69.5 -151t-175.5 -99l-3 4q53 24 87 66t34 81q0 33 -28 53t-76 23q-8 16 -8 33q0 42 37 73t88 31z" />
    <glyph glyph-name="uni013C" unicode="&#x13c;" horiz-adv-x="589" 
d="M328 92q78 0 186 244l4 -2q-55 -172 -130 -263t-159 -91q-125 0 -125 114q0 5 5 45l219 1233q11 57 -19 81.5t-129 37.5v4q202 44 369 131h4l-256 -1454q-4 -20 -4 -37q0 -24 8.5 -33.5t26.5 -9.5zM150 -66q53 0 83.5 -31t30.5 -83q0 -82 -70 -151t-176 -99l-2 4
q53 24 87 66t34 81q0 33 -28 53t-76 23q-8 16 -8 33q0 42 37 73t88 31z" />
    <glyph glyph-name="Lcaron" unicode="&#x13d;" horiz-adv-x="1366" 
d="M1038 1165q53 38 88 95.5t35 105.5q0 41 -26 71t-72 36q-12 21 -12 43q0 47 37 81.5t88 34.5q53 0 83.5 -35t30.5 -94q0 -94 -71 -192t-179 -150zM1323 537l4 -2l-266 -545q-123 10 -354 10h-719v4q120 6 167.5 48t69.5 161l189 1069q8 44 8 84q0 67 -37.5 93.5
t-132.5 31.5v4h629v-4q-144 -7 -200 -55.5t-81 -182.5l-184 -1054q-13 -60 -13 -95q0 -46 24 -65t79 -19h160q93 0 158 10.5t131.5 41t122.5 88t116.5 149.5t128.5 228z" />
    <glyph glyph-name="lcaron" unicode="&#x13e;" horiz-adv-x="608" 
d="M762 1632q52 0 83.5 -35t31.5 -94q0 -95 -71.5 -192.5t-180.5 -149.5l-2 4q53 38 87.5 95.5t34.5 105.5q0 41 -25 71t-71 36q-12 21 -12 43q0 47 37 81.5t88 34.5zM553 1626l-256 -1454q-4 -20 -4 -37q0 -24 8.5 -33.5t26.5 -9.5q78 0 186 244l4 -2q-55 -172 -130 -263
t-159 -91q-125 0 -125 114q0 5 5 45l219 1233q11 57 -19 81.5t-129 37.5v4q202 44 369 131h4z" />
    <glyph glyph-name="Lslash" unicode="&#x141;" horiz-adv-x="1384" 
d="M1346 537l4 -2l-269 -545q-120 10 -352 10h-721v4q122 6 170 48.5t68 160.5l78 440l-189 -96l-10 21l203 104l106 600q8 44 8 84q0 67 -37.5 93.5t-132.5 31.5v4h629v-4q-142 -7 -198.5 -55.5t-81.5 -182.5l-84 -475l368 187l8 -21l-381 -192l-96 -553q-10 -62 -10 -95
q0 -47 23 -65.5t79 -18.5h158q93 0 158 10.5t132 41t123.5 88t117.5 149.5t129 228z" />
    <glyph glyph-name="lslash" unicode="&#x142;" horiz-adv-x="679" 
d="M371 92q75 0 186 244l4 -2q-55 -172 -130 -263t-159 -91q-125 0 -125 114q0 5 5 45l112 633l-162 -104l-10 20l176 113l103 571q9 57 -20.5 81.5t-127.5 37.5v4q207 46 367 131h4l-127 -717l176 113l10 -18l-190 -123l-125 -709q-2 -20 -2 -37q0 -24 8 -33.5t27 -9.5z
" />
    <glyph glyph-name="Nacute" unicode="&#x143;" horiz-adv-x="1548" 
d="M1204 1712q-67 -32 -403 -108l-2 4q106 110 191.5 179t133.5 93q20 10 47 10q39 0 66 -27.5t27 -64.5q0 -27 -16.5 -50.5t-43.5 -35.5zM1137 1495h514v-4q-120 -6 -168 -48.5t-70 -160.5l-229 -1302h-4l-744 1308l-182 -1034q-8 -47 -8 -90q0 -88 56 -121.5t200 -38.5v-4
h-514v4q120 6 167.5 48t69.5 161l195 1102q6 43 6 63q0 60 -38.5 84t-135.5 29v4h309l658 -1192l165 938q9 53 9 90q0 87 -56 121t-200 39v4z" />
    <glyph glyph-name="nacute" unicode="&#x144;" horiz-adv-x="1302" 
d="M958 1419q-84 -58 -389 -155l-2 4q92 115 169.5 194.5t119.5 110.5q31 22 57 22q37 0 66 -28.5t29 -63.5q0 -55 -50 -84zM1235 336l4 -2q-55 -171 -130.5 -262.5t-158.5 -91.5q-60 0 -93.5 28t-33.5 86q0 21 6 45l134 756q4 18 4 33q0 61 -60 61q-29 0 -65.5 -22.5
t-89.5 -81t-111.5 -149t-135 -239t-157.5 -337.5l-26 -160h-181l162 913q2 20 2 37q0 24 -8 32.5t-27 8.5q-36 0 -85 -62t-101 -181l-4 2q55 172 130 264t159 92q59 0 92 -29.5t33 -87.5q0 -3 -5 -43l-122 -686q69 174 137.5 313t128.5 228.5t114 152t103 94.5t86 45t72 13
q67 0 104 -36t37 -105q0 -25 -4 -50l-129 -743q-4 -20 -4 -37q0 -24 9 -33.5t28 -9.5q75 0 186 244z" />
    <glyph glyph-name="uni0145" unicode="&#x145;" horiz-adv-x="1548" 
d="M1137 1495h514v-4q-120 -6 -168 -48.5t-70 -160.5l-229 -1302h-4l-744 1308l-182 -1034q-8 -47 -8 -90q0 -88 56 -121.5t200 -38.5v-4h-514v4q120 6 167.5 48t69.5 161l195 1102q6 43 6 63q0 60 -38.5 84t-135.5 29v4h309l658 -1192l165 938q9 53 9 90q0 87 -56 121
t-200 39v4zM664 -66q53 0 82.5 -31t29.5 -83q0 -82 -69 -151t-175 -99l-2 4q52 24 85.5 66t33.5 81q0 33 -28 53t-76 23q-6 12 -6 33q0 42 37 73t88 31z" />
    <glyph glyph-name="uni0146" unicode="&#x146;" horiz-adv-x="1302" 
d="M1235 336l4 -2q-55 -171 -130.5 -262.5t-158.5 -91.5q-60 0 -93.5 28t-33.5 86q0 21 6 45l134 756q4 18 4 33q0 61 -60 61q-29 0 -65.5 -22.5t-89.5 -81t-111.5 -149t-135 -239t-157.5 -337.5l-26 -160h-181l162 913q2 20 2 37q0 24 -8 32.5t-27 8.5q-36 0 -85 -62
t-101 -181l-4 2q55 172 130 264t159 92q59 0 92 -29.5t33 -87.5q0 -3 -5 -43l-122 -686q69 174 137.5 313t128.5 228.5t114 152t103 94.5t86 45t72 13q67 0 104 -36t37 -105q0 -25 -4 -50l-129 -743q-4 -20 -4 -37q0 -24 9 -33.5t28 -9.5q75 0 186 244zM532 -66q53 0 84 -31
t31 -83q0 -82 -70 -151t-176 -99l-2 4q53 24 87 66t34 81q0 33 -28 53t-76 23q-6 12 -6 33q0 42 36 73t86 31z" />
    <glyph glyph-name="Ncaron" unicode="&#x147;" horiz-adv-x="1548" 
d="M967 1604h-2l-226 282l2 4l252 -133l299 133v-4zM1137 1495h514v-4q-120 -6 -168 -48.5t-70 -160.5l-229 -1302h-4l-744 1308l-182 -1034q-8 -47 -8 -90q0 -88 56 -121.5t200 -38.5v-4h-514v4q120 6 167.5 48t69.5 161l195 1102q6 43 6 63q0 60 -38.5 84t-135.5 29v4h309
l658 -1192l165 938q9 53 9 90q0 87 -56 121t-200 39v4z" />
    <glyph glyph-name="ncaron" unicode="&#x148;" horiz-adv-x="1302" 
d="M774 1219h-2l-217 370l4 4l246 -202l315 202l2 -4zM1235 336l4 -2q-55 -171 -130.5 -262.5t-158.5 -91.5q-60 0 -93.5 28t-33.5 86q0 21 6 45l134 756q4 18 4 33q0 61 -60 61q-29 0 -65.5 -22.5t-89.5 -81t-111.5 -149t-135 -239t-157.5 -337.5l-26 -160h-181l162 913
q2 20 2 37q0 24 -8 32.5t-27 8.5q-36 0 -85 -62t-101 -181l-4 2q55 172 130 264t159 92q59 0 92 -29.5t33 -87.5q0 -3 -5 -43l-122 -686q69 174 137.5 313t128.5 228.5t114 152t103 94.5t86 45t72 13q67 0 104 -36t37 -105q0 -25 -4 -50l-129 -743q-4 -20 -4 -37
q0 -24 9 -33.5t28 -9.5q75 0 186 244z" />
    <glyph glyph-name="Eng" unicode="&#x14a;" horiz-adv-x="1548" 
d="M1137 1495h516v-4q-121 -6 -169.5 -48t-70.5 -161l-178 -1014q-29 -166 -136 -299t-255 -194l-2 4q166 79 272 248l-678 1263l-182 -1036q-8 -47 -8 -90q0 -88 56 -121.5t200 -38.5v-4h-514v4q120 6 167.5 48t69.5 161l195 1102q6 43 6 63q0 60 -38.5 84t-135.5 29v4h309
l647 -1243q1 4 2 10.5t2 9.5l172 969q9 53 9 90q0 87 -56 121t-200 39v4z" />
    <glyph glyph-name="eng" unicode="&#x14b;" horiz-adv-x="1245" 
d="M1008 1106q67 0 104 -36t37 -105q0 -25 -4 -50l-139 -792q-35 -207 -154.5 -359.5t-278.5 -193.5l-2 4q180 135 242 471l150 850q4 18 4 33q0 61 -60 61q-36 0 -86.5 -39t-120 -127t-161.5 -258.5t-191 -404.5l-26 -160h-181l162 913q2 20 2 37q0 24 -8 32.5t-27 8.5
q-36 0 -85 -62t-101 -181l-4 2q55 172 130 264t159 92q59 0 92 -29.5t33 -87.5q0 -3 -5 -43l-122 -682q81 207 162.5 363t147 245t130.5 144t111 72.5t90 17.5z" />
    <glyph glyph-name="Omacron" unicode="&#x14c;" horiz-adv-x="1591" 
d="M690 1698l8 20h615l-8 -20h-615zM698 -20q-264 0 -415.5 157.5t-151.5 427.5q0 195 66 371t177.5 303t267 202t327.5 75q262 0 413.5 -158.5t151.5 -427.5q0 -195 -65.5 -371.5t-177 -303t-266.5 -201t-327 -74.5zM702 4q163 0 308 138.5t231 367.5t86 485
q0 229 -96 362.5t-266 133.5q-164 0 -309 -138t-231.5 -367.5t-86.5 -485.5q0 -230 96.5 -363t267.5 -133z" />
    <glyph glyph-name="omacron" unicode="&#x14d;" horiz-adv-x="1208" 
d="M453 1448l8 20h616l-8 -20h-616zM508 -20q-198 0 -312 116t-114 314q0 143 49 272t132 222t198.5 147.5t243.5 54.5q198 0 310.5 -116.5t112.5 -313.5q0 -192 -82 -352t-224.5 -252t-313.5 -92zM512 4q108 0 207.5 106.5t160 279t60.5 355.5q0 155 -63.5 245.5
t-176.5 90.5q-108 0 -207 -107t-159 -279.5t-60 -354.5q0 -157 62.5 -246.5t175.5 -89.5z" />
    <glyph glyph-name="Ohungarumlaut" unicode="&#x150;" horiz-adv-x="1591" 
d="M723 1589l-2 4q87 125 161.5 208.5t116.5 111.5q27 18 58 18q37 0 64.5 -27t27.5 -65q0 -48 -47 -82q-62 -42 -379 -168zM1081 1589l-2 4q86 124 161.5 208t117.5 112q30 18 57 18q37 0 64.5 -27t27.5 -65q0 -51 -47 -82q-62 -42 -379 -168zM698 -20q-264 0 -415.5 157.5
t-151.5 427.5q0 195 66 371t177.5 303t267 202t327.5 75q262 0 413.5 -158.5t151.5 -427.5q0 -195 -65.5 -371.5t-177 -303t-266.5 -201t-327 -74.5zM702 4q163 0 308 138.5t231 367.5t86 485q0 229 -96 362.5t-266 133.5q-164 0 -309 -138t-231.5 -367.5t-86.5 -485.5
q0 -230 96.5 -363t267.5 -133z" />
    <glyph glyph-name="ohungarumlaut" unicode="&#x151;" horiz-adv-x="1208" 
d="M524 1229l-2 4q146 264 232 350q36 31 71 31q36 0 63 -27t27 -63q0 -44 -32 -76q-91 -83 -359 -219zM844 1229l-4 4q151 268 233 350q31 31 70 31q36 0 64 -27t28 -63q0 -41 -35 -76q-81 -77 -356 -219zM508 -20q-198 0 -312 116t-114 314q0 143 49 272t132 222
t198.5 147.5t243.5 54.5q198 0 310.5 -116.5t112.5 -313.5q0 -192 -82 -352t-224.5 -252t-313.5 -92zM512 4q108 0 207.5 106.5t160 279t60.5 355.5q0 155 -63.5 245.5t-176.5 90.5q-108 0 -207 -107t-159 -279.5t-60 -354.5q0 -157 62.5 -246.5t175.5 -89.5z" />
    <glyph glyph-name="OE" unicode="&#x152;" horiz-adv-x="2330" 
d="M1583 20q81 0 140.5 7.5t119 28.5t107 56.5t98.5 94t100.5 138.5t106.5 192l4 -2l-266 -545q-123 10 -369 10h-868q-289 0 -456 158t-167 428q0 189 69 357.5t186.5 289.5t282.5 191.5t349 70.5h821q239 0 361 10l57 -524l-4 -2q-14 110 -34.5 189t-52 134t-67.5 89
t-90 52.5t-110 25t-138 6.5h-268l-121 -697h178q52 0 88 7.5t70.5 28.5t61 61t53 101t53.5 152h4q-76 -381 -131 -741h-4q6 56 6 98q0 112 -22.5 172t-64.5 80.5t-118 20.5h-178l-98 -559q-10 -58 -10 -86q0 -53 25.5 -73t86.5 -20h209zM944 20q63 0 89.5 35.5t45.5 143.5
l226 1276h-256q-143 0 -274 -74t-226 -199t-151 -296.5t-56 -358.5q0 -243 121.5 -385t335.5 -142h145z" />
    <glyph glyph-name="oe" unicode="&#x153;" horiz-adv-x="1916" 
d="M1432 100q92 0 193.5 49.5t174.5 131.5l4 -2q-78 -134 -209.5 -216.5t-267.5 -82.5q-143 0 -236.5 75.5t-123.5 210.5q-84 -132 -207.5 -209t-263.5 -77q-193 0 -303.5 116.5t-110.5 315.5q0 143 48 271.5t129.5 221t195 147t239.5 54.5q151 0 250.5 -77t130.5 -214
q81 135 205 213t266 78q149 0 236.5 -62t87.5 -165q0 -101 -102 -182.5t-269 -131t-383 -71.5v-27q0 -169 84 -268t232 -99zM512 4q109 0 207.5 101.5t157.5 267.5t59 346q0 167 -63 264.5t-173 97.5q-109 0 -208 -101t-158.5 -267t-59.5 -346q0 -168 63 -265.5t175 -97.5z
M1532 1081q-106 0 -199 -77.5t-150 -208t-65 -283.5q273 53 431.5 158.5t158.5 251.5q0 72 -49 115.5t-127 43.5z" />
    <glyph glyph-name="Racute" unicode="&#x154;" horiz-adv-x="1521" 
d="M1124 1712q-67 -32 -403 -108l-2 4q106 110 191.5 179t133.5 93q20 10 48 10q39 0 65.5 -27.5t26.5 -64.5q0 -27 -16.5 -50.5t-43.5 -35.5zM991 731q112 -307 182.5 -457t128 -207.5t136.5 -62.5v-4h-205q-62 0 -105.5 23t-95.5 97.5t-108.5 214t-132.5 372.5h-17h-270
l-80 -453q-10 -65 -10 -100q0 -80 45 -112t157 -38v-4h-628v4q120 6 167.5 48t69.5 161l189 1069q8 44 8 84q0 67 -37.5 93.5t-132.5 31.5v4h743q193 0 304.5 -85t111.5 -230q0 -161 -114.5 -282t-305.5 -167zM760 727q186 0 312 135.5t126 335.5q0 127 -66.5 202t-185.5 75
h-307l-131 -748h252z" />
    <glyph glyph-name="racute" unicode="&#x155;" horiz-adv-x="946" 
d="M821 1419q-85 -58 -391 -155l-2 4q179 219 289 305q31 22 59 22q37 0 65.5 -28.5t28.5 -63.5q0 -54 -49 -84zM1004 1006q0 -49 -33 -95h-285q-103 -170 -338 -751l-26 -160h-181l162 913q2 20 2 37q0 24 -8 32.5t-27 8.5q-36 0 -85 -62t-101 -181l-4 2q55 172 130 264
t159 92q59 0 92 -29.5t33 -87.5q0 -3 -5 -43l-122 -686q105 272 180 439t135 257t105.5 120t101.5 30q52 0 83.5 -27.5t31.5 -72.5z" />
    <glyph glyph-name="uni0156" unicode="&#x156;" horiz-adv-x="1521" 
d="M991 731q112 -307 182.5 -457t128 -207.5t136.5 -62.5v-4h-205q-62 0 -105.5 23t-95.5 97.5t-108.5 214t-132.5 372.5h-17h-270l-80 -453q-10 -65 -10 -100q0 -80 45 -112t157 -38v-4h-628v4q120 6 167.5 48t69.5 161l189 1069q8 44 8 84q0 67 -37.5 93.5t-132.5 31.5v4
h743q193 0 304.5 -85t111.5 -230q0 -161 -114.5 -282t-305.5 -167zM760 727q186 0 312 135.5t126 335.5q0 127 -66.5 202t-185.5 75h-307l-131 -748h252zM723 -66q53 0 84 -31t31 -83q0 -82 -70 -151t-176 -99l-2 4q53 24 87 66t34 81q0 33 -28.5 53t-76.5 23q-6 12 -6 33
q0 42 36.5 73t86.5 31z" />
    <glyph glyph-name="uni0157" unicode="&#x157;" horiz-adv-x="946" 
d="M1004 1006q0 -49 -33 -95h-285q-103 -170 -338 -751l-26 -160h-181l162 913q2 20 2 37q0 24 -8 32.5t-27 8.5q-36 0 -85 -62t-101 -181l-4 2q55 172 130 264t159 92q59 0 92 -29.5t33 -87.5q0 -3 -5 -43l-122 -686q105 272 180 439t135 257t105.5 120t101.5 30
q52 0 83.5 -27.5t31.5 -72.5zM221 -66q53 0 84 -31t31 -83q0 -82 -70 -151t-176 -99l-2 4q53 24 87 66t34 81q0 33 -28.5 53t-76.5 23q-8 16 -8 33q0 42 37 73t88 31z" />
    <glyph glyph-name="Rcaron" unicode="&#x158;" horiz-adv-x="1521" 
d="M889 1604h-2l-228 282l3 4l251 -133l299 133v-4zM991 731q112 -307 182.5 -457t128 -207.5t136.5 -62.5v-4h-205q-62 0 -105.5 23t-95.5 97.5t-108.5 214t-132.5 372.5h-17h-270l-80 -453q-10 -65 -10 -100q0 -80 45 -112t157 -38v-4h-628v4q120 6 167.5 48t69.5 161
l189 1069q8 44 8 84q0 67 -37.5 93.5t-132.5 31.5v4h743q193 0 304.5 -85t111.5 -230q0 -161 -114.5 -282t-305.5 -167zM760 727q186 0 312 135.5t126 335.5q0 127 -66.5 202t-185.5 75h-307l-131 -748h252z" />
    <glyph glyph-name="rcaron" unicode="&#x159;" horiz-adv-x="946" 
d="M637 1219h-2l-217 370l4 4l246 -202l313 202l4 -4zM1004 1006q0 -49 -33 -95h-285q-103 -170 -338 -751l-26 -160h-181l162 913q2 20 2 37q0 24 -8 32.5t-27 8.5q-36 0 -85 -62t-101 -181l-4 2q55 172 130 264t159 92q59 0 92 -29.5t33 -87.5q0 -3 -5 -43l-122 -686
q105 272 180 439t135 257t105.5 120t101.5 30q52 0 83.5 -27.5t31.5 -72.5z" />
    <glyph glyph-name="Sacute" unicode="&#x15a;" horiz-adv-x="1300" 
d="M653 1604l-2 4q104 109 190 178.5t136 93.5q20 10 45 10q39 0 65.5 -27.5t26.5 -64.5q0 -27 -15.5 -50.5t-43.5 -35.5q-61 -30 -402 -108zM553 -20q-73 0 -139 17.5t-116 35.5t-83 18q-31 0 -54 -13t-55 -48h-4l-8 536l4 2q29 -244 152.5 -384t300.5 -140q192 0 315 99.5
t123 256.5q0 52 -19.5 95.5t-48 74t-77.5 60t-90.5 48t-104.5 42.5q-53 21 -85.5 34.5t-80 37t-76 43.5t-62 51t-52 63t-31 74.5t-12.5 91.5q0 194 148.5 317.5t381.5 123.5q68 0 132 -19t112.5 -38t79.5 -19q30 0 53.5 14t48.5 51h4l27 -510l-4 -2q-33 222 -162.5 360
t-296.5 138q-148 0 -244 -85t-96 -214q0 -54 20.5 -100.5t50.5 -78.5t79 -62t91.5 -48.5t102.5 -40.5q51 -20 84.5 -34t79.5 -36.5t76 -43.5t62.5 -51t51.5 -62t31.5 -74t12.5 -90q0 -214 -175 -352.5t-448 -138.5z" />
    <glyph glyph-name="sacute" unicode="&#x15b;" horiz-adv-x="1011" 
d="M811 1419q-89 -59 -391 -155l-2 4q92 115 169.5 194.5t119.5 110.5q31 22 57 22q37 0 65.5 -28.5t28.5 -63.5q0 -55 -47 -84zM815 700q-17 0 -45 11v317q-68 53 -201 53q-109 0 -181.5 -55.5t-72.5 -146.5q0 -36 16.5 -69t38 -55.5t63.5 -49.5t70.5 -41.5t82.5 -40.5
q46 -21 73.5 -35t67 -37t63.5 -44.5t47.5 -49t34.5 -60t11 -69.5q0 -150 -131.5 -249t-331.5 -99q-180 0 -276.5 71.5t-96.5 196.5q0 71 37 118.5t86 47.5q27 0 45 -11v-350q65 -49 205 -49q133 0 217 62t84 159q0 36 -15 68t-35.5 54.5t-59 47t-66.5 39t-78 37.5
q-42 20 -64 31t-59.5 32t-58.5 37t-47.5 40.5t-40 48t-23.5 55t-10 65.5q0 138 116.5 232t290.5 94q171 0 269 -70t98 -190q0 -64 -37 -105t-86 -41z" />
    <glyph glyph-name="Scedilla" unicode="&#x15e;" horiz-adv-x="1300" 
d="M774 1491q-148 0 -244 -85t-96 -214q0 -54 20.5 -100.5t50.5 -78.5t79 -62t91.5 -48.5t102.5 -40.5q51 -20 84.5 -34t79.5 -36.5t76 -43.5t62.5 -51t51.5 -62t31.5 -74t12.5 -90q0 -139 -77.5 -250t-216.5 -174.5t-315 -66.5l-35 -41q138 -95 138 -189q0 -81 -74 -129
t-197 -51v4q62 8 102 42.5t40 84.5q0 79 -99 156l101 123q-70 1 -134.5 18.5t-112.5 35t-81 17.5q-31 0 -54 -13t-55 -48h-4l-8 536l4 2q29 -244 152.5 -384t300.5 -140q192 0 315 99.5t123 256.5q0 52 -19.5 95.5t-48 74t-77.5 60t-90.5 48t-104.5 42.5q-53 21 -85.5 34.5
t-80 37t-76 43.5t-62 51t-52 63t-31 74.5t-12.5 91.5q0 194 148.5 317.5t381.5 123.5q68 0 132 -19t112.5 -38t79.5 -19q30 0 53.5 14t48.5 51h4l27 -510l-4 -2q-33 222 -162.5 360t-296.5 138z" />
    <glyph glyph-name="scedilla" unicode="&#x15f;" horiz-adv-x="1011" 
d="M815 700q-17 0 -45 11v317q-68 53 -201 53q-109 0 -181.5 -55.5t-72.5 -146.5q0 -36 16.5 -69t38 -55.5t63.5 -49.5t70.5 -41.5t82.5 -40.5q46 -21 73.5 -35t67 -37t63.5 -44.5t47.5 -49t34.5 -60t11 -69.5q0 -150 -131 -249t-330 -99l-35 -41q135 -96 135 -189
q0 -81 -73.5 -129t-196.5 -51v4q62 8 101.5 42.5t39.5 84.5q0 37 -25.5 78.5t-72.5 77.5l100 123q-168 6 -258 77t-90 191q0 71 37 118.5t86 47.5q27 0 45 -11v-350q65 -49 205 -49q133 0 217 62t84 159q0 36 -15 68t-35.5 54.5t-59 47t-66.5 39t-78 37.5q-42 20 -64 31
t-59.5 32t-58.5 37t-47.5 40.5t-40 48t-23.5 55t-10 65.5q0 138 116.5 232t290.5 94q171 0 269 -70t98 -190q0 -64 -37 -105t-86 -41z" />
    <glyph glyph-name="Scaron" unicode="&#x160;" horiz-adv-x="1300" 
d="M819 1604h-2l-227 282l2 4l254 -133l297 133l2 -4zM774 1491q-148 0 -244 -85t-96 -214q0 -54 20.5 -100.5t50.5 -78.5t79 -62t91.5 -48.5t102.5 -40.5q51 -20 84.5 -34t79.5 -36.5t76 -43.5t62.5 -51t51.5 -62t31.5 -74t12.5 -90q0 -214 -175 -352.5t-448 -138.5
q-73 0 -139 17.5t-116 35.5t-83 18q-31 0 -54 -13t-55 -48h-4l-8 536l4 2q29 -244 152.5 -384t300.5 -140q192 0 315 99.5t123 256.5q0 52 -19.5 95.5t-48 74t-77.5 60t-90.5 48t-104.5 42.5q-53 21 -85.5 34.5t-80 37t-76 43.5t-62 51t-52 63t-31 74.5t-12.5 91.5
q0 194 148.5 317.5t381.5 123.5q68 0 132 -19t112.5 -38t79.5 -19q30 0 53.5 14t48.5 51h4l27 -510l-4 -2q-33 222 -162.5 360t-296.5 138z" />
    <glyph glyph-name="scaron" unicode="&#x161;" horiz-adv-x="1011" 
d="M627 1219h-2l-219 370l4 4l245 -202l316 202l2 -4zM571 1106q171 0 269 -70t98 -190q0 -64 -37 -105t-86 -41q-17 0 -45 11v317q-68 53 -201 53q-109 0 -181.5 -55.5t-72.5 -146.5q0 -36 16.5 -69t38 -55.5t63.5 -49.5t70.5 -41.5t82.5 -40.5q46 -21 73.5 -35t67 -37
t63.5 -44.5t47.5 -49t34.5 -60t11 -69.5q0 -150 -131.5 -249t-331.5 -99q-180 0 -276.5 71.5t-96.5 196.5q0 71 37 118.5t86 47.5q27 0 45 -11v-350q65 -49 205 -49q133 0 217 62t84 159q0 36 -15 68t-35.5 54.5t-59 47t-66.5 39t-78 37.5q-42 20 -64 31t-59.5 32t-58.5 37
t-47.5 40.5t-40 48t-23.5 55t-10 65.5q0 138 116.5 232t290.5 94z" />
    <glyph glyph-name="uni0162" unicode="&#x162;" horiz-adv-x="1368" 
d="M1346 1526l59 -545l-4 -2q-22 129 -47.5 215t-56 142.5t-75 86.5t-95.5 41t-126 11h-57l-217 -1235q-10 -65 -10 -97q0 -74 43.5 -104t154.5 -35v-4h-313l-53 -61q135 -96 135 -189q0 -81 -73 -129t-197 -51v4q63 8 103 42.5t40 84.5q0 37 -25.5 78.5t-72.5 77.5l114 143
h-311v4q140 6 195 53.5t78 182.5l217 1235h-58q-73 0 -123.5 -9.5t-106.5 -38t-106 -83t-108.5 -144t-126.5 -221.5l-4 2l250 545h4q64 -19 143.5 -25t251.5 -6h168q170 0 251 5.5t154 25.5h5z" />
    <glyph glyph-name="uni0163" unicode="&#x163;" horiz-adv-x="763" 
d="M485 1065l-145 -836q-8 -41 -8 -69q0 -39 19 -56.5t61 -17.5q65 0 137 59t141 185l4 -2q-76 -175 -175 -261.5t-202 -86.5q-37 0 -61 8l-41 -49q137 -97 137 -189q0 -81 -73.5 -129t-196.5 -51v4q61 8 101 42.5t40 84.5q0 37 -25.5 78.5t-72.5 77.5l111 137
q-89 39 -89 147q0 29 5 54l153 870h-172l8 20h168l64 269h168l-52 -269h342l-8 -20h-338z" />
    <glyph glyph-name="Tcaron" unicode="&#x164;" horiz-adv-x="1368" 
d="M874 1604h-2l-227 282l2 4l254 -133l299 133v-4zM1346 1526l59 -545l-4 -2q-22 129 -47.5 215t-56 142.5t-75 86.5t-95.5 41t-126 11h-57l-217 -1235q-10 -65 -10 -97q0 -74 43.5 -104t154.5 -35v-4h-653v4q140 6 195 53.5t78 182.5l217 1235h-58q-73 0 -123.5 -9.5
t-106.5 -38t-106 -83t-108.5 -144t-126.5 -221.5l-4 2l250 545h4q64 -19 143.5 -25t251.5 -6h168q170 0 251 5.5t154 25.5h5z" />
    <glyph glyph-name="tcaron" unicode="&#x165;" horiz-adv-x="763" 
d="M662 1165q53 38 87.5 95.5t34.5 105.5q0 41 -25 71t-71 36q-12 21 -12 43q0 47 37 81.5t88 34.5q52 0 83 -35t31 -94q0 -95 -71 -192.5t-180 -149.5zM541 1354l-52 -269h342l-8 -20h-338l-145 -836q-8 -41 -8 -69q0 -39 19 -56.5t61 -17.5q65 0 137 59t141 185l4 -2
q-76 -175 -175 -261.5t-202 -86.5q-82 0 -126 42t-44 119q0 29 5 54l153 870h-172l8 20h168l64 269h168z" />
    <glyph glyph-name="Tbar" unicode="&#x166;" horiz-adv-x="1370" 
d="M1346 1526l59 -545l-4 -2q-22 129 -47.5 215t-56 142.5t-75 86.5t-95.5 41t-126 11h-57l-125 -717h301l-8 -21h-297l-88 -497q-10 -65 -10 -97q0 -74 43.5 -104t154.5 -35v-4h-653v4q140 6 195 53.5t78 182.5l88 497h-283l8 21h279l125 717h-58q-73 0 -123.5 -9.5
t-106.5 -38t-106 -83t-108.5 -144t-126.5 -221.5l-4 2l250 545h4q64 -19 143.5 -25t251.5 -6h168q170 0 251 5.5t154 25.5h5z" />
    <glyph glyph-name="tbar" unicode="&#x167;" horiz-adv-x="780" 
d="M834 1065h-336l-64 -363h334l-8 -20h-330l-80 -453q-6 -46 -6 -69q0 -39 18 -56.5t60 -17.5q65 0 137 59t141 185l5 -2q-76 -174 -174.5 -261t-200.5 -87q-82 0 -126 42t-44 119q0 34 4 54l84 487h-170l8 20h166l63 363h-172l9 20h167l64 269h170l-51 -269h340z" />
    <glyph glyph-name="Umacron" unicode="&#x16a;" horiz-adv-x="1552" 
d="M1352 1718l-9 -20h-616l8 20h617zM1151 1495h514v-4q-122 -8 -170 -49.5t-70 -159.5l-141 -801q-38 -225 -189.5 -363t-357.5 -138q-240 0 -367.5 104.5t-127.5 296.5q0 37 12 119l137 782q10 41 10 86q0 65 -38.5 91.5t-133.5 31.5v4h629v-4q-142 -7 -197.5 -54.5
t-80.5 -181.5l-140 -792q-10 -65 -10 -115q0 -159 83.5 -251.5t231.5 -92.5q194 0 337 131.5t180 345.5l133 760q10 58 10 90q0 88 -55.5 121.5t-198.5 38.5v4z" />
    <glyph glyph-name="umacron" unicode="&#x16b;" horiz-adv-x="1300" 
d="M1106 1468l-8 -20h-617l8 20h617zM1225 336l4 -2q-55 -171 -130.5 -262.5t-158.5 -91.5q-125 0 -125 114q0 13 4 45l121 682q-79 -206 -159.5 -362.5t-146 -245t-130 -143.5t-110 -72.5t-89.5 -17.5q-67 0 -104 35.5t-37 103.5q0 26 4 51l129 743q4 20 4 37
q0 24 -8.5 32.5t-28.5 8.5q-76 0 -186 -243l-4 2q55 172 130.5 264t157.5 92q59 0 92 -29.5t33 -87.5q0 -11 -4 -43l-133 -756q-4 -20 -4 -34q0 -62 57 -62q37 0 87.5 39.5t119 128t159.5 259.5t189 405l29 159h180l-161 -913q-5 -25 -5 -37q0 -24 9 -33.5t28 -9.5
q36 0 84 62t103 182z" />
    <glyph glyph-name="Uring" unicode="&#x16e;" horiz-adv-x="1552" 
d="M1034 1573q-93 0 -146.5 48t-53.5 130q0 95 67.5 159t167.5 64q93 0 147 -49t54 -131q0 -94 -68 -157.5t-168 -63.5zM1065 1950q-86 0 -144.5 -56.5t-58.5 -138.5q0 -72 48 -115t128 -43q86 0 144.5 56.5t58.5 136.5q0 73 -47.5 116.5t-128.5 43.5zM1151 1495h514v-4
q-122 -8 -170 -49.5t-70 -159.5l-141 -801q-38 -225 -189.5 -363t-357.5 -138q-240 0 -367.5 104.5t-127.5 296.5q0 37 12 119l137 782q10 41 10 86q0 65 -38.5 91.5t-133.5 31.5v4h629v-4q-142 -7 -197.5 -54.5t-80.5 -181.5l-140 -792q-10 -65 -10 -115
q0 -159 83.5 -251.5t231.5 -92.5q194 0 337 131.5t180 345.5l133 760q10 58 10 90q0 88 -55.5 121.5t-198.5 38.5v4z" />
    <glyph glyph-name="uring" unicode="&#x16f;" horiz-adv-x="1300" 
d="M770 1214q-94 0 -148.5 47.5t-54.5 129.5q0 95 69 159t169 64q94 0 147.5 -48.5t53.5 -131.5q0 -94 -68 -157t-168 -63zM801 1589q-86 0 -145.5 -56t-59.5 -138q0 -71 49 -113.5t129 -42.5q86 0 144.5 55.5t58.5 135.5q0 74 -47 116.5t-129 42.5zM1225 336l4 -2
q-55 -171 -130.5 -262.5t-158.5 -91.5q-125 0 -125 114q0 13 4 45l121 682q-79 -206 -159.5 -362.5t-146 -245t-130 -143.5t-110 -72.5t-89.5 -17.5q-67 0 -104 35.5t-37 103.5q0 26 4 51l129 743q4 20 4 37q0 24 -8.5 32.5t-28.5 8.5q-76 0 -186 -243l-4 2
q55 172 130.5 264t157.5 92q59 0 92 -29.5t33 -87.5q0 -11 -4 -43l-133 -756q-4 -20 -4 -34q0 -62 57 -62q37 0 87.5 39.5t119 128t159.5 259.5t189 405l29 159h180l-161 -913q-5 -25 -5 -37q0 -24 9 -33.5t28 -9.5q36 0 84 62t103 182z" />
    <glyph glyph-name="Uhungarumlaut" unicode="&#x170;" horiz-adv-x="1552" 
d="M1139 1757q-62 -42 -379 -168l-2 4q87 125 161.5 208.5t116.5 111.5q30 18 58 18q37 0 64.5 -27t27.5 -65q0 -51 -47 -82zM1120 1589l-2 4q87 125 161 208.5t116 111.5q30 18 59 18q36 0 64 -27t28 -65q0 -48 -47 -82q-57 -39 -379 -168zM1151 1495h514v-4
q-122 -8 -170 -49.5t-70 -159.5l-141 -801q-38 -225 -189.5 -363t-357.5 -138q-240 0 -367.5 104.5t-127.5 296.5q0 37 12 119l137 782q10 41 10 86q0 65 -38.5 91.5t-133.5 31.5v4h629v-4q-142 -7 -197.5 -54.5t-80.5 -181.5l-140 -792q-10 -65 -10 -115
q0 -159 83.5 -251.5t231.5 -92.5q194 0 337 131.5t180 345.5l133 760q10 58 10 90q0 88 -55.5 121.5t-198.5 38.5v4z" />
    <glyph glyph-name="uhungarumlaut" unicode="&#x171;" horiz-adv-x="1300" 
d="M911 1448q-92 -84 -358 -219l-2 4q147 266 231 350q36 31 72 31t63 -27t27 -63q0 -43 -33 -76zM1171 1614q36 0 64.5 -27t28.5 -63q0 -41 -35 -76q-91 -83 -359 -219l-2 4q141 254 232 350q36 31 71 31zM1038 92q36 0 84 62t103 182l4 -2q-55 -171 -130.5 -262.5
t-158.5 -91.5q-125 0 -125 114q0 13 4 45l121 682q-79 -206 -159.5 -362.5t-146 -245t-130 -143.5t-110 -72.5t-89.5 -17.5q-67 0 -104 35.5t-37 103.5q0 26 4 51l129 743q4 20 4 37q0 24 -8.5 32.5t-28.5 8.5q-76 0 -186 -243l-4 2q55 172 130.5 264t157.5 92
q59 0 92 -29.5t33 -87.5q0 -11 -4 -43l-133 -756q-4 -20 -4 -34q0 -62 57 -62q37 0 87.5 39.5t119 128t159.5 259.5t189 405l29 159h180l-161 -913q-5 -25 -5 -37q0 -24 9 -33.5t28 -9.5z" />
    <glyph glyph-name="Uogonek" unicode="&#x172;" horiz-adv-x="1552" 
d="M1151 1495h514v-4q-122 -8 -170 -49.5t-70 -159.5l-141 -801q-33 -193 -151 -324t-285 -167q-98 -62 -159.5 -140.5t-61.5 -142.5q0 -36 23.5 -58t62.5 -22q75 0 141 51l2 -4q-42 -40 -99 -67t-120 -27q-71 0 -114.5 31.5t-43.5 85.5q0 76 87 152t241 135q-46 -4 -70 -4
q-240 0 -367.5 104.5t-127.5 296.5q0 37 12 119l137 782q10 41 10 86q0 65 -38.5 91.5t-133.5 31.5v4h629v-4q-142 -7 -197.5 -54.5t-80.5 -181.5l-140 -792q-10 -65 -10 -115q0 -159 83.5 -251.5t231.5 -92.5q194 0 337 131.5t180 345.5l133 760q10 58 10 90
q0 88 -55.5 121.5t-198.5 38.5v4z" />
    <glyph glyph-name="uogonek" unicode="&#x173;" horiz-adv-x="1300" 
d="M956 -373q74 0 140 51l2 -4q-98 -94 -217 -94q-72 0 -115 31.5t-43 85.5q0 69 69 144t185 143q-24 -4 -37 -4q-125 0 -125 114q0 13 4 45l121 682q-79 -206 -159.5 -362.5t-146 -245t-130 -143.5t-110 -72.5t-89.5 -17.5q-67 0 -104 35.5t-37 103.5q0 26 4 51l129 743
q4 20 4 37q0 24 -8.5 32.5t-28.5 8.5q-76 0 -186 -243l-4 2q55 172 130.5 264t157.5 92q59 0 92 -29.5t33 -87.5q0 -11 -4 -43l-133 -756q-4 -20 -4 -34q0 -62 57 -62q37 0 87.5 39.5t119 128t159.5 259.5t189 405l29 159h180l-161 -913q-5 -25 -5 -37q0 -24 9 -33.5
t28 -9.5q36 0 84 62t103 182l4 -2q-80 -249 -197 -324h2q-166 -198 -166 -303q0 -35 24 -57.5t64 -22.5z" />
    <glyph glyph-name="Wcircumflex" unicode="&#x174;" horiz-adv-x="2134" 
d="M1329 1739l-299 -135l-2 4l328 282h2l225 -282l-2 -4zM1800 1495h510v-4q-100 -12 -161.5 -73.5t-145.5 -229.5l-600 -1208h-35l-188 1210l-607 -1210h-34l-199 1314q-8 48 -14 72.5t-18 51.5t-29.5 39t-46 21.5t-70.5 12.5v4h637v-4q-132 -13 -191 -50.5t-59 -127.5
q0 -20 8 -66l137 -981l623 1250h4l195 -1256l421 858q48 96 69.5 150.5t21.5 97.5q0 64 -52 90.5t-176 34.5v4z" />
    <glyph glyph-name="wcircumflex" unicode="&#x175;" horiz-adv-x="1658" 
d="M993 1442l-315 -203l-4 4l348 371h2l217 -371l-4 -4zM1524 1106q46 0 75 -48.5t29 -127.5q0 -84 -44 -198t-121.5 -241.5t-169 -253t-201.5 -257.5h-35l-137 624q-130 -256 -435 -624h-34l-232 966q-8 41 -31 41q-26 0 -60.5 -54.5t-88.5 -184.5l-4 2q57 191 112.5 273.5
t135.5 82.5q49 0 82 -32.5t47 -90.5l192 -829q197 261 307 485l-98 446h201l196 -931q151 198 242 360v571q27 21 72 21z" />
    <glyph glyph-name="Ycircumflex" unicode="&#x176;" horiz-adv-x="1415" 
d="M979 1739l-297 -135l-2 4l326 282h2l225 -282v-4zM1022 1495h573v-4q-69 -9 -126.5 -38.5t-133.5 -107.5t-172 -215l-340 -489l-71 -401q-11 -72 -11 -95q0 -76 44.5 -106t156.5 -35v-4h-653v4q139 6 193 53t79 183l72 401l-225 608q-23 64 -40 101t-41 70.5t-54 49.5
t-72 21v4h649v-4q-119 -11 -179.5 -46.5t-60.5 -103.5q0 -32 35 -139l180 -516l314 442q75 108 100 158t25 88q0 56 -56 82.5t-186 34.5v4z" />
    <glyph glyph-name="ycircumflex" unicode="&#x177;" horiz-adv-x="1232" 
d="M793 1442l-314 -203l-4 4l348 371h2l217 -371l-4 -4zM987 1085h180l-114 -651q-38 -211 -115.5 -376t-184 -271.5t-236.5 -161.5t-277 -55q-65 0 -104.5 29t-39.5 75q0 30 13 50l536 2q232 168 250 548l41 529l2 14q-79 -205 -159 -360.5t-145 -244t-129.5 -143t-110 -72
t-89.5 -17.5q-67 0 -104 35.5t-37 103.5q0 26 4 51l129 743q4 20 4 37q0 24 -8.5 32.5t-28.5 8.5q-76 0 -186 -243l-4 2q55 172 130.5 264t157.5 92q59 0 92 -29.5t33 -87.5q0 -11 -4 -43l-133 -756q-4 -20 -4 -34q0 -62 57 -62q37 0 87.5 39.5t119 128t159.5 259.5t189 405
z" />
    <glyph glyph-name="Ydieresis" unicode="&#x178;" horiz-adv-x="1415" 
d="M795 1659q-43 0 -72 28t-29 72q0 46 34 79.5t81 33.5q44 0 71 -27t27 -69q0 -49 -32.5 -83t-79.5 -34zM1163 1659q-43 0 -71.5 28t-28.5 72q0 46 34 79.5t81 33.5q44 0 71 -27t27 -69q0 -49 -33 -83t-80 -34zM1022 1495h573v-4q-69 -9 -126.5 -38.5t-133.5 -107.5
t-172 -215l-340 -489l-71 -401q-11 -72 -11 -95q0 -76 44.5 -106t156.5 -35v-4h-653v4q139 6 193 53t79 183l72 401l-225 608q-23 64 -40 101t-41 70.5t-54 49.5t-72 21v4h649v-4q-119 -11 -179.5 -46.5t-60.5 -103.5q0 -32 35 -139l180 -516l314 442q75 108 100 158t25 88
q0 56 -56 82.5t-186 34.5v4z" />
    <glyph glyph-name="Zacute" unicode="&#x179;" horiz-adv-x="1409" 
d="M1167 1712q-61 -30 -401 -108l-2 4q104 109 190 178.5t136 93.5q20 10 45 10q40 0 67 -27t27 -65q0 -27 -16.5 -50.5t-45.5 -35.5zM1464 1495v-6l-1233 -1469h519q68 0 116.5 6t99.5 25t90.5 53.5t82 91.5t83 139.5t83.5 196.5l4 -2l-166 -540q-195 10 -656 10h-501v6
l1235 1469h-465q-75 0 -129 -11t-110 -41t-106.5 -86.5t-107 -145.5t-123.5 -220l-4 2l236 532q177 -10 610 -10h442z" />
    <glyph glyph-name="zacute" unicode="&#x17a;" horiz-adv-x="1060" 
d="M852 1419q-83 -57 -391 -155l-2 4q179 219 289 305q31 22 59 22q37 0 65.5 -28.5t28.5 -63.5q0 -54 -49 -84zM733 139q84 0 132.5 43t97.5 164l4 -2q-26 -97 -50 -158t-59 -111t-83.5 -72.5t-115.5 -22.5q-105 0 -232 50.5t-245 137.5l-172 -178l-14 14l891 924h-355
q-127 0 -201.5 -20t-123 -67.5t-90.5 -140.5l-4 2l145 394q187 -11 553 -11h252l2 -4l-748 -774q110 -79 224 -123.5t192 -44.5z" />
    <glyph glyph-name="Zdotaccent" unicode="&#x17b;" horiz-adv-x="1409" 
d="M952 1647q-51 0 -83.5 31.5t-32.5 80.5q0 54 37.5 90.5t93.5 36.5q51 0 83.5 -31.5t32.5 -80.5q0 -55 -37 -91t-94 -36zM1464 1495v-6l-1233 -1469h519q68 0 116.5 6t99.5 25t90.5 53.5t82 91.5t83 139.5t83.5 196.5l4 -2l-166 -540q-195 10 -656 10h-501v6l1235 1469
h-465q-75 0 -129 -11t-110 -41t-106.5 -86.5t-107 -145.5t-123.5 -220l-4 2l236 532q177 -10 610 -10h442z" />
    <glyph glyph-name="zdotaccent" unicode="&#x17c;" horiz-adv-x="1060" 
d="M702 1348q-50 0 -83 31.5t-33 80.5q0 54 37.5 90.5t93.5 36.5q51 0 84 -31.5t33 -80.5q0 -55 -37.5 -91t-94.5 -36zM733 139q84 0 132.5 43t97.5 164l4 -2q-26 -97 -50 -158t-59 -111t-83.5 -72.5t-115.5 -22.5q-105 0 -232 50.5t-245 137.5l-172 -178l-14 14l891 924
h-355q-127 0 -201.5 -20t-123 -67.5t-90.5 -140.5l-4 2l145 394q187 -11 553 -11h252l2 -4l-748 -774q110 -79 224 -123.5t192 -44.5z" />
    <glyph glyph-name="Zcaron" unicode="&#x17d;" horiz-adv-x="1409" 
d="M932 1604h-2l-228 282l3 4l253 -133l299 133v-4zM1464 1495v-6l-1233 -1469h519q68 0 116.5 6t99.5 25t90.5 53.5t82 91.5t83 139.5t83.5 196.5l4 -2l-166 -540q-195 10 -656 10h-501v6l1235 1469h-465q-75 0 -129 -11t-110 -41t-106.5 -86.5t-107 -145.5t-123.5 -220
l-4 2l236 532q177 -10 610 -10h442z" />
    <glyph glyph-name="zcaron" unicode="&#x17e;" horiz-adv-x="1060" 
d="M668 1219h-2l-217 370l4 4l243 -202l316 202l4 -4zM733 139q84 0 132.5 43t97.5 164l4 -2q-26 -97 -50 -158t-59 -111t-83.5 -72.5t-115.5 -22.5q-105 0 -232 50.5t-245 137.5l-172 -178l-14 14l891 924h-355q-127 0 -201.5 -20t-123 -67.5t-90.5 -140.5l-4 2l145 394
q187 -11 553 -11h252l2 -4l-748 -774q110 -79 224 -123.5t192 -44.5z" />
    <glyph glyph-name="florin" unicode="&#x192;" horiz-adv-x="927" 
d="M930 1341h-359q-65 -100 -65 -219q0 -22 2 -43.5t8 -45.5l10 -40t14.5 -44t14 -38.5t16.5 -42t15 -37.5l18 -51h283l-8 -20h-269q23 -90 23 -170q0 -117 -46.5 -232t-117 -196t-155 -131.5t-160.5 -50.5q-48 0 -78.5 25.5t-30.5 66.5q0 33 27 82h358q57 93 57 208
q0 46 -12 100.5t-22.5 85.5t-36.5 103q-20 59 -31 109h-260l8 20h248q-12 58 -12 119q0 117 46.5 232.5t117 198.5t156 134.5t161.5 51.5q46 0 76 -26t30 -67q0 -40 -26 -82z" />
    <glyph glyph-name="AEacute" unicode="&#x1fc;" horiz-adv-x="2201" 
d="M1731 1712q-66 -31 -404 -108l-2 4q106 110 192.5 179.5t135.5 92.5q17 10 45 10q39 0 65.5 -27.5t26.5 -64.5q0 -27 -15.5 -50.5t-43.5 -35.5zM1456 20q68 0 119 5t103.5 18.5t95 38.5t86.5 63t86 93.5t86.5 128.5t93.5 170l4 -2l-268 -545q-120 10 -367 10h-780v4
q121 6 169 48t68 161l97 545h-514l-238 -398q-59 -99 -83 -153.5t-24 -93.5q0 -54 49.5 -78.5t161.5 -30.5v-4h-495v4q98 12 168 73.5t170 229.5l706 1188h762q239 0 359 10l59 -524l-4 -2q-14 109 -34.5 188t-52 134.5t-67.5 89t-90.5 52.5t-111 25.5t-138.5 6.5h-264
l-123 -697h178q89 0 142.5 28t96 102t87.5 220h4q-85 -424 -131 -741h-4q4 37 4 96q0 88 -11 142.5t-38 83.5t-62 39t-92 10h-178l-98 -559q-10 -62 -10 -90q0 -50 25 -69.5t87 -19.5h211zM547 778h506l90 504q6 38 6 68q0 65 -40.5 92t-145.5 35z" />
    <glyph glyph-name="aeacute" unicode="&#x1fd;" horiz-adv-x="1757" 
d="M1317 1419q-89 -59 -391 -155l-2 4q181 221 288 305q31 22 60 22q37 0 65.5 -28.5t28.5 -63.5q0 -54 -49 -84zM1272 100q91 0 193 50t175 131l5 -2q-82 -134 -216.5 -216.5t-273.5 -82.5q-184 0 -288.5 111.5t-104.5 303.5q0 49 6 92q-109 -262 -219.5 -384.5
t-245.5 -122.5q-108 0 -169.5 88t-61.5 241q0 213 78 396t215 292t299 109q98 0 186.5 -41.5t148.5 -112.5q170 154 387 154q147 0 235.5 -62t88.5 -165q0 -101 -102.5 -182.5t-269.5 -131t-384 -71.5v-27q0 -168 85 -267.5t233 -99.5zM1370 1081q-105 0 -198 -77.5
t-150.5 -208t-65.5 -283.5q272 53 431 159t159 251q0 72 -48 115.5t-128 43.5zM393 94q120 0 240.5 204.5t265.5 641.5q-24 64 -80.5 99.5t-128.5 35.5q-116 0 -215 -98.5t-155 -260.5t-56 -347q0 -134 33.5 -204.5t95.5 -70.5z" />
    <glyph glyph-name="uni0218" unicode="&#x218;" horiz-adv-x="1300" 
d="M553 -20q-73 0 -139 17.5t-116 35.5t-83 18q-31 0 -54 -13t-55 -48h-4l-8 536l4 2q29 -244 152.5 -384t300.5 -140q192 0 315 99.5t123 256.5q0 52 -19.5 95.5t-48 74t-77.5 60t-90.5 48t-104.5 42.5q-53 21 -85.5 34.5t-80 37t-76 43.5t-62 51t-52 63t-31 74.5
t-12.5 91.5q0 194 148.5 317.5t381.5 123.5q68 0 132 -19t112.5 -38t79.5 -19q30 0 53.5 14t48.5 51h4l27 -510l-4 -2q-33 222 -162.5 360t-296.5 138q-148 0 -244 -85t-96 -214q0 -54 20.5 -100.5t50.5 -78.5t79 -62t91.5 -48.5t102.5 -40.5q51 -20 84.5 -34t79.5 -36.5
t76 -43.5t62.5 -51t51.5 -62t31.5 -74t12.5 -90q0 -214 -175 -352.5t-448 -138.5zM416 -430l-2 4q53 24 87 66t34 81q0 33 -28.5 53t-76.5 23q-6 12 -6 33q0 41 37 72.5t86 31.5q53 0 84 -31t31 -83q0 -82 -70 -151t-176 -99z" />
    <glyph glyph-name="uni0219" unicode="&#x219;" horiz-adv-x="1011" 
d="M815 700q-17 0 -45 11v317q-68 53 -201 53q-109 0 -181.5 -55.5t-72.5 -146.5q0 -36 16.5 -69t38 -55.5t63.5 -49.5t70.5 -41.5t82.5 -40.5q46 -21 73.5 -35t67 -37t63.5 -44.5t47.5 -49t34.5 -60t11 -69.5q0 -150 -131.5 -249t-331.5 -99q-180 0 -276.5 71.5
t-96.5 196.5q0 71 37 118.5t86 47.5q27 0 45 -11v-350q65 -49 205 -49q133 0 217 62t84 159q0 36 -15 68t-35.5 54.5t-59 47t-66.5 39t-78 37.5q-42 20 -64 31t-59.5 32t-58.5 37t-47.5 40.5t-40 48t-23.5 55t-10 65.5q0 138 116.5 232t290.5 94q171 0 269 -70t98 -190
q0 -64 -37 -105t-86 -41zM401 -66q52 0 82.5 -31.5t30.5 -82.5q0 -82 -69.5 -151t-174.5 -99l-2 4q52 24 85.5 66t33.5 81q0 33 -28 53t-76 23q-7 14 -7 33q0 42 37 73t88 31z" />
    <glyph glyph-name="uni021A" unicode="&#x21a;" horiz-adv-x="1368" 
d="M1346 1526l59 -545l-4 -2q-22 129 -47.5 215t-56 142.5t-75 86.5t-95.5 41t-126 11h-57l-217 -1235q-10 -65 -10 -97q0 -74 43.5 -104t154.5 -35v-4h-653v4q140 6 195 53.5t78 182.5l217 1235h-58q-73 0 -123.5 -9.5t-106.5 -38t-106 -83t-108.5 -144t-126.5 -221.5l-4 2
l250 545h4q64 -19 143.5 -25t251.5 -6h168q170 0 251 5.5t154 25.5h5zM563 -66q53 0 83 -31t30 -83q0 -82 -69 -151t-175 -99l-2 4q52 24 85.5 66t33.5 81q0 33 -28.5 53t-76.5 23q-6 12 -6 33q0 42 37 73t88 31z" />
    <glyph glyph-name="uni021B" unicode="&#x21b;" horiz-adv-x="763" 
d="M485 1065l-145 -836q-8 -41 -8 -69q0 -39 19 -56.5t61 -17.5q65 0 137 59t141 185l4 -2q-76 -175 -175 -261.5t-202 -86.5q-82 0 -126 42t-44 119q0 29 5 54l153 870h-172l8 20h168l64 269h168l-52 -269h342l-8 -20h-338zM229 -66q53 0 83 -31t30 -83q0 -82 -69 -151
t-175 -99l-2 4q53 24 86 66t33 81q0 33 -27.5 53t-74.5 23q-9 18 -9 33q0 42 37 73t88 31z" />
    <glyph glyph-name="uni0237" unicode="&#x237;" horiz-adv-x="585" 
d="M371 1106q58 0 91.5 -29.5t33.5 -87.5q0 -11 -4 -43l-148 -823q-35 -206 -154.5 -359t-277.5 -194l-2 4q180 135 242 471l151 868q4 20 4 37q0 24 -8.5 32.5t-26.5 8.5q-79 0 -186 -243l-4 2q55 172 130 264t159 92z" />
    <glyph glyph-name="circumflex" unicode="&#x2c6;" horiz-adv-x="1130" 
d="M793 1243l-5 -4l-243 203l-316 -203l-4 4l348 371h2z" />
    <glyph glyph-name="caron" unicode="&#x2c7;" horiz-adv-x="1228" 
d="M788 1593l5 -4l-349 -370h-2l-217 370l4 4l244 -202z" />
    <glyph glyph-name="breve" unicode="&#x2d8;" horiz-adv-x="1105" 
d="M434 1225q-94 0 -154.5 98t-72.5 268l4 2q28 -102 95.5 -164.5t152.5 -62.5q84 0 172 62t153 165l4 -2q-70 -169 -165.5 -267.5t-188.5 -98.5z" />
    <glyph glyph-name="dotaccent" unicode="&#x2d9;" horiz-adv-x="718" 
d="M317 1348q-51 0 -83.5 31.5t-32.5 80.5q0 54 37.5 90.5t93.5 36.5q51 0 84 -31.5t33 -80.5q0 -55 -38 -91t-94 -36z" />
    <glyph glyph-name="ring" unicode="&#x2da;" horiz-adv-x="1105" 
d="M541 1214q-95 0 -149 47.5t-54 129.5q0 95 67.5 159t167.5 64q94 0 148.5 -48.5t54.5 -131.5q0 -93 -68 -156.5t-167 -63.5zM545 1239q85 0 144 55.5t59 135.5q0 74 -48 116.5t-131 42.5q-86 0 -144 -56t-58 -138q0 -72 48 -114t130 -42z" />
    <glyph glyph-name="ogonek" unicode="&#x2db;" horiz-adv-x="1062" 
d="M463 -420q-71 0 -113.5 31.5t-42.5 85.5q0 84 100.5 165.5t278.5 139.5l2 -2q-104 -63 -169.5 -144.5t-65.5 -148.5q0 -35 24 -57.5t64 -22.5q73 0 139 51l2 -4q-98 -94 -219 -94z" />
    <glyph glyph-name="tilde" unicode="&#x2dc;" horiz-adv-x="1226" 
d="M690 1288q-69 0 -162 78q-28 23 -46.5 36t-46 24.5t-54.5 11.5q-100 0 -162 -133l-4 2q29 108 97 186t145 78q63 0 153 -74q46 -37 82 -56.5t74 -19.5q99 0 164 133l4 -2q-31 -108 -99.5 -186t-144.5 -78z" />
    <glyph glyph-name="hungarumlaut" unicode="&#x2dd;" horiz-adv-x="1081" 
d="M233 1229l-2 4q146 264 232 350q31 31 72 31q36 0 63 -27t27 -63q0 -43 -33 -76q-91 -83 -359 -219zM551 1229l-2 4q142 257 231 350q36 31 72 31t64 -27t28 -63q0 -41 -35 -76q-92 -84 -358 -219z" />
    <glyph glyph-name="gravecomb" unicode="&#x300;" 
d="M-301 1200q-118 90 -199 163t-114 114q-21 30 -21 65q0 34 27.5 62t62.5 28q54 0 82 -45q68 -101 166 -385z" />
    <glyph glyph-name="acutecomb" unicode="&#x301;" 
d="M-635 1264l-2 4q92 115 169.5 194.5t119.5 110.5q28 22 57 22q37 0 65.5 -28.5t28.5 -63.5q0 -54 -49 -84q-84 -58 -389 -155z" />
    <glyph glyph-name="uni0302" unicode="&#x302;" 
d="M-225 1243l-4 -4l-244 203l-315 -203l-5 4l349 371h2z" />
    <glyph glyph-name="tildecomb" unicode="&#x303;" 
d="M-457 1288q-68 0 -161 78q-28 23 -46.5 36t-46.5 24.5t-55 11.5q-100 0 -162 -133l-4 2q29 108 97 186t145 78q63 0 153 -74q46 -37 82 -56.5t74 -19.5q99 0 164 133l4 -2q-31 -108 -99.5 -186t-144.5 -78z" />
    <glyph glyph-name="uni0304" unicode="&#x304;" 
d="M-807 1448l8 20h619l-8 -20h-619z" />
    <glyph glyph-name="uni0306" unicode="&#x306;" 
d="M-561 1225q-94 0 -154.5 98t-72.5 268l4 2q28 -102 95 -164.5t152 -62.5q84 0 172.5 62t153.5 165l4 -2q-70 -169 -165.5 -267.5t-188.5 -98.5z" />
    <glyph glyph-name="uni0307" unicode="&#x307;" 
d="M-336 1348q-51 0 -84 31.5t-33 80.5q0 54 37.5 90.5t93.5 36.5q51 0 84 -31.5t33 -80.5q0 -55 -37.5 -91t-93.5 -36z" />
    <glyph glyph-name="uni0308" unicode="&#x308;" 
d="M-702 1366q-45 0 -73 27t-28 71q0 46 33.5 80.5t79.5 34.5q45 0 72.5 -28t27.5 -70q0 -48 -32.5 -81.5t-79.5 -33.5zM-334 1366q-44 0 -72 27t-28 71q0 46 33.5 80.5t78.5 34.5t73 -28t28 -70q0 -47 -33 -81t-80 -34z" />
    <glyph glyph-name="uni030A" unicode="&#x30a;" 
d="M-571 1214q-95 0 -149 47.5t-54 129.5q0 95 67.5 159t167.5 64q94 0 148.5 -48.5t54.5 -131.5q0 -93 -68 -156.5t-167 -63.5zM-567 1239q85 0 143.5 55.5t58.5 135.5q0 74 -47.5 116.5t-130.5 42.5q-86 0 -144 -56t-58 -138q0 -72 48 -114t130 -42z" />
    <glyph glyph-name="uni030B" unicode="&#x30b;" 
d="M-848 1229l-2 4q146 264 232 350q31 31 71 31q36 0 63 -27t27 -63q0 -44 -32 -76q-91 -83 -359 -219zM-530 1229l-2 4q142 257 231 350q36 31 72 31t64 -27t28 -63q0 -41 -35 -76q-92 -84 -358 -219z" />
    <glyph glyph-name="uni030C" unicode="&#x30c;" 
d="M-229 1593l4 -4l-348 -370h-2l-218 370l5 4l243 -202z" />
    <glyph glyph-name="uni0312" unicode="&#x312;" 
d="M-535 1241q-52 0 -82 31t-30 84q0 85 71.5 162t176.5 110v-4q-51 -28 -85 -74.5t-34 -89.5q0 -35 27.5 -57t72.5 -25q8 -16 8 -32q0 -42 -37 -73.5t-88 -31.5z" />
    <glyph glyph-name="uni0326" unicode="&#x326;" 
d="M-635 -430l-2 4q52 24 85.5 66t33.5 81q0 33 -28.5 53t-76.5 23q-6 12 -6 33q0 42 37 73t88 31q53 0 83 -31t30 -83q0 -82 -69.5 -151t-174.5 -99z" />
    <glyph glyph-name="uni0327" unicode="&#x327;" 
d="M-528 -430v4q61 8 101 42.5t40 84.5q0 37 -25.5 78.5t-72.5 77.5l114 143h29l-53 -61q137 -97 137 -189q0 -81 -73.5 -129t-196.5 -51z" />
    <glyph glyph-name="uni0328" unicode="&#x328;" 
d="M-528 -420q-71 0 -113.5 31.5t-42.5 85.5q0 84 100.5 165.5t278.5 139.5l2 -2q-105 -63 -170.5 -144.5t-65.5 -148.5q0 -35 24 -57.5t64 -22.5q74 0 140 51l2 -4q-98 -94 -219 -94z" />
    <glyph glyph-name="uni0394" unicode="&#x394;" horiz-adv-x="1267" 
d="M825 1516l338 -1510l-4 -6h-1241v6l870 1510h37zM-51 20h997l-272 1258z" />
    <glyph glyph-name="uni03A9" unicode="&#x3a9;" horiz-adv-x="1708" 
d="M1587 455h4l-143 -465q-177 10 -596 10h-27l-2 6q68 66 131.5 138t139.5 180t131 217.5t92 248t37 273.5q0 198 -88 313t-244 115q-143 0 -271.5 -117t-205 -310.5t-76.5 -406.5q0 -163 61 -331t166 -320l-2 -6h-26q-415 0 -600 -10l20 465h4q9 -166 80 -222.5t266 -56.5
h152q-138 103 -230 265t-92 335q0 150 60 286.5t161.5 236t242 158.5t294.5 59q249 0 393 -135.5t144 -362.5q0 -120 -42 -238t-104 -208.5t-142.5 -172.5t-148.5 -134t-131 -89h148q93 0 151 9t114.5 37.5t98 84.5t80.5 148z" />
    <glyph glyph-name="uni03BC" unicode="&#x3bc;" horiz-adv-x="1228" 
d="M1038 172q0 -56 31.5 -80.5t110.5 -28.5v-4q-164 -27 -359 -79h-4l35 194q-214 -194 -397 -194q-181 0 -226 139q19 -311 4 -449q-2 -44 -26 -72t-62 -28q-28 0 -44.5 17.5t-16.5 45.5q0 37 131 674l82 469q8 47 8 78q0 52 -30.5 80t-108.5 43v4q235 70 364 117h5
l-80 -459l-64 -360q-6 -38 -6 -68q0 -162 154 -162q68 0 143.5 38t173.5 112l100 577q9 53 9 78q0 51 -29.5 78.5t-110.5 44.5v4q251 75 367 117h4l-149 -844q-9 -50 -9 -82z" />
    <glyph glyph-name="pi" unicode="&#x3c0;" horiz-adv-x="1333" 
d="M1124 887l-127 -715q-2 -20 -2 -37q0 -24 8 -33.5t27 -9.5q36 0 85 62.5t102 181.5l4 -2q-55 -172 -130 -263t-159 -91q-125 0 -125 114q0 13 4 45l164 926h-467l-152 -868q-10 -55 -10 -84q0 -59 31 -82.5t106 -26.5v-4h-512v4q101 5 142.5 44t60.5 149l123 690
q8 47 8 86q0 58 -31 80.5t-110 27.5v4h1163v-4q-104 -6 -143 -45t-60 -149z" />
    <glyph glyph-name="Wgrave" unicode="&#x1e80;" horiz-adv-x="2134" 
d="M1094 1712q-29 12 -45.5 35.5t-16.5 50.5q0 38 27 65t67 27q25 0 45 -10q50 -24 136 -93.5t190 -178.5l-2 -4q-340 78 -401 108zM1800 1495h510v-4q-100 -12 -161.5 -73.5t-145.5 -229.5l-600 -1208h-35l-188 1210l-607 -1210h-34l-199 1314q-8 48 -14 72.5t-18 51.5
t-29.5 39t-46 21.5t-70.5 12.5v4h637v-4q-132 -13 -191 -50.5t-59 -127.5q0 -20 8 -66l137 -981l623 1250h4l195 -1256l421 858q48 96 69.5 150.5t21.5 97.5q0 64 -52 90.5t-176 34.5v4z" />
    <glyph glyph-name="wgrave" unicode="&#x1e81;" horiz-adv-x="1658" 
d="M1018 1200q-118 89 -198.5 161.5t-114.5 115.5q-23 29 -23 65q0 34 28.5 62t63.5 28q52 0 80 -45q68 -95 168 -385zM1524 1106q46 0 75 -48.5t29 -127.5q0 -84 -44 -198t-121.5 -241.5t-169 -253t-201.5 -257.5h-35l-137 624q-130 -256 -435 -624h-34l-232 966
q-8 41 -31 41q-26 0 -60.5 -54.5t-88.5 -184.5l-4 2q57 191 112.5 273.5t135.5 82.5q49 0 82 -32.5t47 -90.5l192 -829q197 261 307 485l-98 446h201l196 -931q151 198 242 360v571q27 21 72 21z" />
    <glyph glyph-name="Wacute" unicode="&#x1e82;" horiz-adv-x="2134" 
d="M1544 1712q-67 -32 -403 -108l-2 4q106 110 191.5 179t133.5 93q20 10 47 10q39 0 66 -27.5t27 -64.5q0 -27 -16 -50.5t-44 -35.5zM1800 1495h510v-4q-100 -12 -161.5 -73.5t-145.5 -229.5l-600 -1208h-35l-188 1210l-607 -1210h-34l-199 1314q-8 48 -14 72.5t-18 51.5
t-29.5 39t-46 21.5t-70.5 12.5v4h637v-4q-132 -13 -191 -50.5t-59 -127.5q0 -20 8 -66l137 -981l623 1250h4l195 -1256l421 858q48 96 69.5 150.5t21.5 97.5q0 64 -52 90.5t-176 34.5v4z" />
    <glyph glyph-name="wacute" unicode="&#x1e83;" horiz-adv-x="1658" 
d="M1139 1419q-89 -59 -391 -155l-3 4q94 116 171 195.5t118 109.5q31 22 60 22q35 0 64.5 -28.5t29.5 -63.5q0 -54 -49 -84zM1524 1106q46 0 75 -48.5t29 -127.5q0 -84 -44 -198t-121.5 -241.5t-169 -253t-201.5 -257.5h-35l-137 624q-130 -256 -435 -624h-34l-232 966
q-8 41 -31 41q-26 0 -60.5 -54.5t-88.5 -184.5l-4 2q57 191 112.5 273.5t135.5 82.5q49 0 82 -32.5t47 -90.5l192 -829q197 261 307 485l-98 446h201l196 -931q151 198 242 360v571q27 21 72 21z" />
    <glyph glyph-name="Wdieresis" unicode="&#x1e84;" horiz-adv-x="2134" 
d="M1145 1659q-44 0 -72.5 28t-28.5 72q0 46 33.5 79.5t79.5 33.5q44 0 72 -27t28 -69q0 -49 -32.5 -83t-79.5 -34zM1513 1659q-44 0 -72 28t-28 72q0 46 33.5 79.5t79.5 33.5q44 0 72 -27t28 -69q0 -49 -33 -83t-80 -34zM1800 1495h510v-4q-100 -12 -161.5 -73.5
t-145.5 -229.5l-600 -1208h-35l-188 1210l-607 -1210h-34l-199 1314q-8 48 -14 72.5t-18 51.5t-29.5 39t-46 21.5t-70.5 12.5v4h637v-4q-132 -13 -191 -50.5t-59 -127.5q0 -20 8 -66l137 -981l623 1250h4l195 -1256l421 858q48 96 69.5 150.5t21.5 97.5q0 64 -52 90.5
t-176 34.5v4z" />
    <glyph glyph-name="wdieresis" unicode="&#x1e85;" horiz-adv-x="1658" 
d="M809 1366q-45 0 -73.5 27t-28.5 71q0 46 33.5 80.5t80.5 34.5q44 0 71.5 -28t27.5 -70q0 -47 -32.5 -81t-78.5 -34zM1178 1366q-45 0 -74 27t-29 71q0 46 34 80.5t81 34.5q44 0 71 -28t27 -70q0 -47 -32 -81t-78 -34zM1524 1106q46 0 75 -48.5t29 -127.5q0 -84 -44 -198
t-121.5 -241.5t-169 -253t-201.5 -257.5h-35l-137 624q-130 -256 -435 -624h-34l-232 966q-8 41 -31 41q-26 0 -60.5 -54.5t-88.5 -184.5l-4 2q57 191 112.5 273.5t135.5 82.5q49 0 82 -32.5t47 -90.5l192 -829q197 261 307 485l-98 446h201l196 -931q151 198 242 360v571
q27 21 72 21z" />
    <glyph glyph-name="uni1E9E" unicode="&#x1e9e;" horiz-adv-x="1536" 
d="M1434 1364v-4l-347 -395q72 -71 124 -130t101.5 -131.5t75 -149t25.5 -153.5q0 -181 -124 -301t-312 -120q-80 0 -145.5 33.5t-96.5 88.5l2 4q31 -31 89 -51t120 -20q112 0 187 83t75 208q0 104 -64.5 214.5t-207.5 284.5l424 486q-59 84 -157.5 132t-205.5 48
q-174 0 -306.5 -136t-170.5 -356l-137 -786q-10 -55 -10 -84q0 -68 38 -94t134 -31v-4h-592v4q120 6 167.5 47.5t69.5 161.5l127 717q47 264 235 425t449 161q119 0 237.5 -42t195.5 -110z" />
    <glyph glyph-name="Ygrave" unicode="&#x1ef2;" horiz-adv-x="1415" 
d="M743 1712q-28 12 -43.5 35.5t-15.5 50.5q0 37 26.5 64.5t65.5 27.5q27 0 47 -10q49 -24 134.5 -93t191.5 -179l-2 -4q-338 77 -404 108zM1022 1495h573v-4q-69 -9 -126.5 -38.5t-133.5 -107.5t-172 -215l-340 -489l-71 -401q-11 -72 -11 -95q0 -76 44.5 -106t156.5 -35
v-4h-653v4q139 6 193 53t79 183l72 401l-225 608q-23 64 -40 101t-41 70.5t-54 49.5t-72 21v4h649v-4q-119 -11 -179.5 -46.5t-60.5 -103.5q0 -32 35 -139l180 -516l314 442q75 108 100 158t25 88q0 56 -56 82.5t-186 34.5v4z" />
    <glyph glyph-name="ygrave" unicode="&#x1ef3;" horiz-adv-x="1232" 
d="M819 1200q-118 89 -198.5 161.5t-114.5 115.5q-23 29 -23 65q0 34 27.5 62t62.5 28q54 0 82 -45q62 -87 168 -385zM987 1085h180l-114 -651q-38 -211 -115.5 -376t-184 -271.5t-236.5 -161.5t-277 -55q-65 0 -104.5 29t-39.5 75q0 30 13 50l536 2q232 168 250 548l41 529
l2 14q-79 -205 -159 -360.5t-145 -244t-129.5 -143t-110 -72t-89.5 -17.5q-67 0 -104 35.5t-37 103.5q0 26 4 51l129 743q4 20 4 37q0 24 -8.5 32.5t-28.5 8.5q-76 0 -186 -243l-4 2q55 172 130.5 264t157.5 92q59 0 92 -29.5t33 -87.5q0 -11 -4 -43l-133 -756
q-4 -20 -4 -34q0 -62 57 -62q37 0 87.5 39.5t119 128t159.5 259.5t189 405z" />
    <glyph glyph-name="endash" unicode="&#x2013;" horiz-adv-x="1312" 
d="M154 592l8 20h1018l-9 -20h-1017z" />
    <glyph glyph-name="emdash" unicode="&#x2014;" horiz-adv-x="1761" 
d="M154 592l8 20h1468l-8 -20h-1468z" />
    <glyph glyph-name="quoteleft" unicode="&#x2018;" horiz-adv-x="512" 
d="M547 1632l2 -4q-72 -49 -120 -121.5t-48 -140.5q0 -53 32 -89t87 -40q16 -27 16 -63q0 -68 -47.5 -119t-110.5 -51q-67 0 -105 46.5t-38 123.5q0 131 95 261.5t237 196.5z" />
    <glyph glyph-name="quoteright" unicode="&#x2019;" horiz-adv-x="507" 
d="M240 1004l-2 4q71 49 118 121t47 141q0 53 -31.5 89t-86.5 40q-17 34 -17 63q0 67 48.5 118.5t111.5 51.5q67 0 105 -46.5t38 -123.5q0 -131 -94.5 -262.5t-236.5 -195.5z" />
    <glyph glyph-name="quotesinglbase" unicode="&#x201a;" horiz-adv-x="530" 
d="M27 -362l-2 4q72 49 120 122t48 142q0 53 -32 89t-87 40q-17 25 -17 61q0 69 48.5 120.5t111.5 51.5q67 0 105 -46.5t38 -123.5q0 -131 -95.5 -262.5t-237.5 -197.5z" />
    <glyph glyph-name="quotedblleft" unicode="&#x201c;" horiz-adv-x="894" 
d="M547 1632l2 -4q-72 -49 -120 -121.5t-48 -140.5q0 -53 32 -89t87 -40q16 -27 16 -63q0 -68 -47.5 -119t-110.5 -51q-67 0 -105 46.5t-38 123.5q0 131 95 261.5t237 196.5zM930 1632l2 -4q-71 -49 -118.5 -121.5t-47.5 -140.5q0 -53 32 -89t85 -40q18 -30 18 -63
q0 -67 -48.5 -118.5t-111.5 -51.5q-67 0 -105 46.5t-38 123.5q0 131 95 261.5t237 196.5z" />
    <glyph glyph-name="quotedblright" unicode="&#x201d;" horiz-adv-x="890" 
d="M240 1004l-2 4q71 49 118 121t47 141q0 53 -31.5 89t-86.5 40q-17 34 -17 63q0 67 48.5 118.5t111.5 51.5q67 0 105 -46.5t38 -123.5q0 -131 -94.5 -262.5t-236.5 -195.5zM623 1004l-2 4q71 49 118 121t47 141q0 53 -31.5 89t-84.5 40q-19 32 -19 63q0 67 48.5 118.5
t111.5 51.5q67 0 105 -46.5t38 -123.5q0 -131 -94.5 -262.5t-236.5 -195.5z" />
    <glyph glyph-name="quotedblbase" unicode="&#x201e;" horiz-adv-x="915" 
d="M27 -362l-2 4q72 49 120 122t48 142q0 53 -32 89t-87 40q-17 25 -17 61q0 69 48.5 120.5t111.5 51.5q67 0 105 -46.5t38 -123.5q0 -131 -95.5 -262.5t-237.5 -197.5zM410 -362l-2 4q72 48 119.5 121.5t47.5 142.5q0 53 -31.5 89t-86.5 40q-17 25 -17 61q0 69 48.5 120.5
t111.5 51.5q67 0 105 -46.5t38 -123.5q0 -131 -95.5 -262.5t-237.5 -197.5z" />
    <glyph glyph-name="dagger" unicode="&#x2020;" horiz-adv-x="1030" 
d="M1020 1255q27 0 43 -16t16 -43q0 -35 -25.5 -61.5t-60.5 -26.5q-99 0 -362 70q-22 -415 -43 -580q-1 -55 -9.5 -91.5t-23 -53.5t-28.5 -23t-33 -6q-28 0 -45 17.5t-17 45.5q0 89 189 689q-291 -68 -383 -68q-27 0 -44.5 17t-17.5 42q0 36 26 62t62 26q110 0 359 -67
q-15 247 -5 354q3 41 28.5 65.5t60.5 24.5q28 0 44.5 -15.5t16.5 -41.5q0 -35 -38 -145t-97 -242q278 67 387 67z" />
    <glyph glyph-name="daggerdbl" unicode="&#x2021;" horiz-adv-x="1116" 
d="M1063 1255q27 0 43 -16t16 -43q0 -35 -25.5 -61.5t-60.5 -26.5q-98 0 -364 70q-293 -70 -391 -70q-27 0 -44.5 17t-17.5 42q0 35 26.5 61.5t61.5 26.5q109 0 361 -67q-14 246 -4 352q3 44 28 68t60 24q27 0 44 -16t17 -41q0 -37 -37 -143.5t-98 -243.5q275 67 385 67z
M1010 948q27 0 43 -16t16 -43q0 -35 -25.5 -61.5t-60.5 -26.5q-100 0 -362 67q17 -266 6 -352q-3 -43 -28 -67.5t-60 -24.5q-27 0 -44.5 16.5t-17.5 42.5q0 35 37 143.5t96 241.5q-284 -67 -383 -67q-27 0 -44 17t-17 42q0 36 26 62t62 26q102 0 364 -69q286 69 392 69z" />
    <glyph glyph-name="bullet" unicode="&#x2022;" horiz-adv-x="839" 
d="M418 350q-108 0 -175 64t-67 166q0 106 79 185t187 79t175 -64.5t67 -165.5q0 -107 -79.5 -185.5t-186.5 -78.5z" />
    <glyph glyph-name="ellipsis" unicode="&#x2026;" horiz-adv-x="1570" 
d="M201 -20q-66 0 -106 37.5t-40 97.5q0 63 46.5 108t109.5 45q66 0 105.5 -37.5t39.5 -97.5q0 -63 -45.5 -108t-109.5 -45zM723 -20q-65 0 -104 37t-39 98q0 63 45.5 108t109.5 45q66 0 106 -37.5t40 -97.5q0 -63 -46.5 -108t-111.5 -45zM1247 -20q-66 0 -105.5 37.5
t-39.5 97.5q0 63 45.5 108t109.5 45q66 0 106 -37.5t40 -97.5q0 -63 -46 -108t-110 -45z" />
    <glyph glyph-name="perthousand" unicode="&#x2030;" horiz-adv-x="2535" 
d="M242 -45l-13 14l1436 1571l12 -14zM442 643q-115 0 -180 83.5t-65 225.5q0 148 53.5 275.5t145.5 202.5t200 75q115 0 180.5 -83t65.5 -226q0 -147 -54.5 -274.5t-146.5 -203t-199 -75.5zM444 662q56 0 116 99.5t98 246.5t38 278q0 94 -27 147.5t-77 53.5q-57 0 -116 -99
t-96.5 -246.5t-37.5 -281.5q0 -93 26.5 -145.5t75.5 -52.5zM1284 -12q-116 0 -182 83.5t-66 225.5q0 148 54.5 275.5t146.5 202.5t199 75q115 0 181 -82.5t66 -224.5q0 -148 -54.5 -276t-146.5 -203.5t-198 -75.5zM2048 -12q-116 0 -182 83.5t-66 225.5q0 148 54.5 275.5
t146.5 202.5t199 75q116 0 181.5 -82.5t65.5 -224.5q0 -148 -54 -276t-146 -203.5t-199 -75.5zM1286 6q56 0 115.5 100t97 247t37.5 280q0 92 -27 145t-77 53q-57 0 -116 -98.5t-96.5 -245.5t-37.5 -282q0 -93 27.5 -146t76.5 -53zM2050 6q56 0 115.5 100t97 247t37.5 280
q0 92 -27.5 145t-77.5 53q-57 0 -115.5 -98.5t-96 -245.5t-37.5 -282q0 -93 27.5 -146t76.5 -53z" />
    <glyph glyph-name="guilsinglleft" unicode="&#x2039;" horiz-adv-x="563" 
d="M528 1008l-266 -408l123 -407l-4 -3l-277 390l7 38l413 392z" />
    <glyph glyph-name="guilsinglright" unicode="&#x203a;" horiz-adv-x="561" 
d="M203 1010l274 -392l-6 -38l-414 -390l-4 3l266 405l-120 410z" />
    <glyph glyph-name="fraction" unicode="&#x2044;" horiz-adv-x="219" 
d="M-563 -45l-15 14l1436 1571l14 -14z" />
    <glyph glyph-name="Euro" unicode="&#x20ac;" horiz-adv-x="1378" 
d="M1376 1503h4l-90 -520h-4q24 231 -50 368.5t-230 137.5q-143 0 -274.5 -165t-203.5 -421h490l-8 -20h-486q-30 -110 -45 -232h455l-8 -20h-449q-8 -73 -8 -168q0 -214 72.5 -335.5t203.5 -121.5q158 0 286.5 144t187.5 382h4l-95 -542h-4q-19 35 -37 48t-43 13
q-32 0 -83 -17.5t-114 -35.5t-126 -18q-215 0 -337 148t-122 402q0 35 4 101h-166l9 20h159q8 101 43 232h-166l9 20h163q85 272 268.5 442.5t405.5 170.5q60 0 115.5 -18t98.5 -36t71 -18q25 0 44 11.5t56 47.5z" />
    <glyph glyph-name="uni20BF" unicode="&#x20bf;" horiz-adv-x="1392" 
d="M893 772q177 -9 279 -93t102 -222q0 -125 -71.5 -230t-194.5 -166t-267 -61h-18l-37 -205h-22l36 205h-233l-37 -205h-20l36 205h-442v4q121 6 168.5 47.5t69.5 161.5l188 1069q8 49 8 84q0 67 -38 93.5t-134 31.5l2 4h441l32 174h21l-31 -174h195q27 0 39 -2l30 176h23
l-31 -176q152 -14 240 -92t88 -201q0 -163 -118 -281.5t-304 -146.5zM862 1475h-207l-120 -697h206q154 0 258.5 127t104.5 314q0 119 -63.5 187.5t-178.5 68.5zM680 20q155 0 269 137t114 324q0 128 -72.5 202.5t-204.5 74.5h-256l-98 -559q-12 -65 -12 -101
q0 -43 18.5 -60.5t59.5 -17.5h182z" />
    <glyph glyph-name="trademark" unicode="&#x2122;" horiz-adv-x="1968" 
d="M829 1511h2l80 -264l-4 -2q-41 101 -78.5 151t-78.5 66.5t-111 16.5v-564q0 -61 21.5 -81.5t87.5 -26.5v-4h-373v4q66 6 87 27.5t21 80.5v564h-2q-51 0 -84.5 -8t-65.5 -33.5t-59 -71t-57 -121.5l-4 2l78 264h2q65 -16 211 -16h116q143 0 211 16zM1815 911q5 -54 23 -76
t79 -28v-4h-367v4q69 6 91 28t18 80l-43 480l-258 -602h-4l-269 616l-47 -479q-8 -66 18.5 -91.5t112.5 -31.5v-4h-256v4q58 7 78 29t25 75l49 482q5 53 -13.5 72.5t-78.5 25.5v4h246l211 -487l210 487h220v-4q-59 -6 -77.5 -26t-13.5 -72z" />
    <glyph glyph-name="oneeighth" unicode="&#x215b;" horiz-adv-x="1576" 
d="M1462 1540l15 -14l-1436 -1571l-14 14zM535 659v-4h-388v4q75 4 105.5 32t42.5 100l84 475q6 24 6 45q0 51 -45 51q-22 0 -80 -21l-2 5q189 95 305 170h2l-129 -725q-6 -34 -6 -52q0 -42 23.5 -59.5t81.5 -20.5zM1470 690q0 -78 -65 -132t-160 -75q43 -25 69.5 -42.5
t57 -45.5t45.5 -61t15 -72q0 -116 -98.5 -195t-243.5 -79q-116 0 -184 48t-68 130q0 86 73 146t172 81q-64 42 -99.5 88t-35.5 113q0 110 83.5 183t209.5 73q104 0 166.5 -43.5t62.5 -116.5zM1225 494q59 40 97 96t38 121q0 56 -32.5 88t-90.5 32q-65 0 -112.5 -49
t-47.5 -116q0 -55 37.5 -92.5t110.5 -79.5zM1294 193q0 23 -9.5 44.5t-21 35.5t-36.5 32.5t-39.5 27t-46.5 27.5q-5 3 -11.5 6.5t-13.5 8t-10 6.5q-67 -41 -112.5 -102.5t-45.5 -131.5q0 -64 40 -102.5t106 -38.5q83 0 141.5 55t58.5 132z" />
    <glyph glyph-name="threeeighths" unicode="&#x215c;" horiz-adv-x="1644" 
d="M1530 1540l12 -14l-1436 -1571l-12 14zM688 971q0 -137 -146 -224t-405 -104v4q184 20 293 93t109 173q0 58 -51 92.5t-152 49.5v4l305 305h-192q-87 0 -134.5 -25.5t-89.5 -99.5l-4 2l111 272h2q66 -18 354 -18h100l3 -4l-320 -317q101 -22 159 -75t58 -128zM1536 690
q0 -78 -65 -132t-160 -75q43 -25 69.5 -43t57 -45.5t45 -60.5t14.5 -72q0 -116 -98 -195t-244 -79q-115 0 -182.5 48t-67.5 130q0 86 72 145.5t174 81.5q-64 41 -99.5 87t-35.5 114q0 111 83 183.5t210 72.5q104 0 165.5 -43.5t61.5 -116.5zM1290 494q59 39 98 95.5
t39 121.5q0 56 -32.5 88t-89.5 32q-66 0 -114 -49t-48 -116q0 -56 38 -94.5t109 -77.5zM1362 193q0 29 -11.5 52.5t-38.5 45.5t-46.5 34t-59.5 35q-5 3 -11.5 6.5t-13.5 8t-10 6.5q-65 -41 -110 -102.5t-45 -131.5q0 -65 38.5 -103t104.5 -38q83 0 143 55t60 132z" />
    <glyph glyph-name="fiveeighths" unicode="&#x215d;" horiz-adv-x="1619" 
d="M1505 1540l15 -14l-1436 -1571l-14 14zM682 987q0 -148 -149 -238.5t-404 -105.5v4q183 20 293 94.5t110 176.5q0 73 -79.5 115t-243.5 61v4l160 397h90q245 0 325 23h2l-63 -156h-389l-53 -133q207 -22 304 -80.5t97 -161.5zM1513 690q0 -78 -65 -132t-160 -75
q43 -25 69.5 -42.5t57 -45.5t45.5 -61t15 -72q0 -116 -98.5 -195t-243.5 -79q-115 0 -182.5 48t-67.5 130q0 86 71.5 145.5t173.5 81.5q-64 41 -99.5 87t-35.5 114q0 110 82.5 183t208.5 73q104 0 166.5 -43.5t62.5 -116.5zM1268 494q60 41 98.5 97t38.5 120q0 56 -33.5 88
t-91.5 32q-65 0 -112.5 -49t-47.5 -116q0 -55 37.5 -92.5t110.5 -79.5zM1337 193q0 29 -11 52.5t-37 45t-46 34.5t-59 35q-5 3 -11.5 6.5t-13.5 8t-10 6.5q-66 -41 -111 -102.5t-45 -131.5q0 -65 39 -103t105 -38q83 0 141.5 55t58.5 132z" />
    <glyph glyph-name="seveneighths" unicode="&#x215e;" horiz-adv-x="1603" 
d="M1479 1540l14 -14l-1436 -1571l-14 14zM416 1362q-88 0 -133.5 -24.5t-89.5 -98.5l-5 2l115 272h2q64 -18 350 -18h195v-4q-340 -435 -440 -762q-28 -86 -101 -86q-55 0 -55 53q0 84 157.5 294.5t323.5 371.5h-319zM1487 690q0 -78 -65 -132t-160 -75q43 -25 69.5 -43
t57 -45.5t45 -60.5t14.5 -72q0 -116 -98.5 -195t-243.5 -79q-115 0 -182.5 48t-67.5 130q0 86 72.5 146t171.5 81q-64 42 -99.5 88t-35.5 113q0 110 83 183t209 73q105 0 167.5 -43.5t62.5 -116.5zM1241 494q60 41 98.5 97t38.5 120q0 56 -33.5 88t-91.5 32q-65 0 -112 -49
t-47 -116q0 -55 37 -92.5t110 -79.5zM1311 193q0 29 -11.5 52.5t-37.5 45t-46 34.5t-59 35l-35 21q-65 -41 -110 -102.5t-45 -131.5q0 -65 38.5 -103t104.5 -38q83 0 142 55t59 132z" />
    <glyph glyph-name="partialdiff" unicode="&#x2202;" horiz-adv-x="1212" 
d="M465 1632q321 -82 492 -294t171 -531q0 -241 -80.5 -429.5t-225.5 -293t-330 -104.5q-198 0 -312 111.5t-114 301.5q0 175 77.5 325t210 238t287.5 88q186 0 279 -139q-9 553 -457 723zM496 4q135 0 244.5 165t154.5 421q6 59 6 106q0 148 -60 232t-167 84
q-102 0 -196 -99.5t-151 -260t-57 -330.5q0 -147 60 -232.5t166 -85.5z" />
    <glyph glyph-name="emptyset" unicode="&#x2205;" horiz-adv-x="1488" 
d="M1475 1223l-197 -174q88 -124 88 -306q0 -159 -56.5 -302.5t-153 -247t-230.5 -164t-283 -60.5q-130 0 -231.5 43.5t-165.5 124.5l-197 -172l-14 17l196 174q-88 124 -88 305q0 214 95.5 391.5t261.5 280t366 102.5q129 0 231 -43.5t167 -124.5l198 176zM172 463
q0 -168 82 -289l987 875q-126 161 -379 161q-143 0 -271 -58t-219.5 -157.5t-145.5 -238t-54 -293.5zM1337 741q0 168 -82 289l-989 -872q129 -164 381 -164q143 0 271 58t219.5 157.5t145.5 238t54 293.5z" />
    <glyph glyph-name="product" unicode="&#x220f;" horiz-adv-x="1654" 
d="M1724 1495v-4q-119 -6 -166 -48t-69 -161l-260 -1479q-10 -55 -10 -86q0 -65 38.5 -91.5t133.5 -31.5v-4h-592v4q120 6 167.5 47.5t69.5 161.5l293 1672h-678l-293 -1672q-8 -44 -8 -86q0 -65 37.5 -91.5t132.5 -31.5v-4h-592v4q121 6 168.5 47.5t69.5 161.5l262 1479
q8 49 8 82q0 67 -39 94.5t-135 32.5v4h1462z" />
    <glyph glyph-name="summation" unicode="&#x2211;" horiz-adv-x="1406" 
d="M1337 971q-16 98 -34.5 172.5t-39 128t-48 90.5t-54.5 59t-65.5 34t-74.5 16t-87 4h-461l422 -850v-4l-807 -854h666q76 0 127 5t102.5 21.5t88 47t71.5 80.5t65 124h4l-143 -465q-195 10 -657 10h-514v7l829 880l-491 1012l4 6h440q435 0 612 10l49 -532z" />
    <glyph glyph-name="minus" unicode="&#x2212;" horiz-adv-x="970" 
d="M113 592l4 20h762l-5 -20h-761z" />
    <glyph glyph-name="radical" unicode="&#x221a;" horiz-adv-x="1409" 
d="M1585 1612l21 -10l-1170 -2032h-33l-208 913q-8 35 -11.5 48t-11 39t-13 34.5t-15.5 25t-20.5 22t-26 13.5t-35 11t-44.5 4v4h344l191 -870z" />
    <glyph glyph-name="infinity" unicode="&#x221e;" horiz-adv-x="1775" 
d="M1413 1098q132 0 208.5 -76t76.5 -205q0 -139 -64.5 -259t-174.5 -190.5t-238 -70.5q-58 0 -107.5 16t-84.5 41t-68 64.5t-54.5 75t-46.5 84.5q-89 -129 -207.5 -205t-234.5 -76q-133 0 -209 76.5t-76 206.5q0 139 64 258.5t173.5 189.5t237.5 70q58 0 107.5 -15.5
t85 -39.5t68 -62.5t54.5 -74.5t46 -85q85 127 205 202t239 75zM1321 457q151 0 249.5 101.5t98.5 256.5q0 117 -69.5 187.5t-190.5 70.5q-115 0 -230.5 -74.5t-199.5 -201.5q6 -11 20 -43q26 -56 45 -91.5t49 -78.5t60.5 -68t74 -42t93.5 -17zM422 322q110 0 224.5 76
t201.5 204l-19 41q-19 40 -30 62.5t-31.5 59t-37 57t-41.5 46.5t-50.5 39.5t-59 23t-71.5 9.5q-149 0 -247.5 -101t-98.5 -255q0 -118 69.5 -190t190.5 -72z" />
    <glyph glyph-name="integral" unicode="&#x222b;" horiz-adv-x="759" 
d="M838 1460h-361q-88 -129 -88 -336q0 -75 15 -165t30.5 -148.5t46.5 -167.5q56 -188 56 -336q0 -150 -49 -290.5t-124 -236t-165 -153t-172 -57.5q-47 0 -77 25t-30 65q0 39 25 84h360q86 126 86 334q0 107 -22.5 214.5t-67.5 264.5q-53 174 -53 338q0 151 48.5 291
t123 236t164 153t172.5 57q47 0 76.5 -25t29.5 -67q0 -37 -24 -80zM516 1505l10 11q-2 -1 -5.5 -5.5t-4.5 -5.5zM256 -313l18 18z" />
    <glyph glyph-name="approxequal" unicode="&#x2248;" horiz-adv-x="970" 
d="M688 647q-84 0 -207 78q-37 23 -61 36t-59 24.5t-68 11.5q-132 0 -205 -133l-4 2q32 107 114.5 185.5t174.5 78.5q83 0 198 -76q39 -24 64 -37.5t62 -25t73 -11.5q127 0 205 133l4 -2q-34 -108 -116 -186t-175 -78zM627 291q-37 0 -77.5 12.5t-66.5 26t-65 37.5t-61 36.5
t-58 24.5t-70 12q-126 0 -204 -133l-5 2q34 108 115 186t174 78q84 0 201 -75q57 -37 101 -55.5t96 -18.5q128 0 204 133l4 -2q-34 -108 -115 -186t-173 -78z" />
    <glyph glyph-name="notequal" unicode="&#x2260;" horiz-adv-x="970" 
d="M899 739h-289l-198 -274h440l-4 -21h-451l-182 -249h-25l181 249h-283l4 21h293l199 274h-445l4 21h457l178 248h27l-180 -248h278z" />
    <glyph glyph-name="lessequal" unicode="&#x2264;" horiz-adv-x="970" 
d="M854 518l-715 221v4l795 222l-4 -23l-721 -201l649 -200zM55 266l4 21h762l-4 -21h-762z" />
    <glyph glyph-name="greaterequal" unicode="&#x2265;" horiz-adv-x="970" 
d="M106 518l5 23l720 200l-649 201l4 23l715 -222v-4zM57 266l4 21h760l-4 -21h-760z" />
    <glyph glyph-name="lozenge" unicode="&#x25ca;" horiz-adv-x="989" 
d="M397 0l-282 688l526 686h4l285 -686l-529 -688h-4zM408 43l493 645l-266 643l-494 -643z" />
    <glyph glyph-name="uniF8FF" unicode="&#xf8ff;" horiz-adv-x="2541" 
d="M117 -20q-15 0 -25 10.5t-10 25.5q0 21 10 31l701 698h-664q-47 0 -47 39q0 19 14 33l697 701h-670q-41 0 -41 38v3q0 38 41 38h758q47 0 47 -41q0 -17 -17 -34l-698 -697h676q17 0 29 -12t12 -29v-669l694 692q16 16 35 16q37 0 37 -45v-663l696 692q16 16 33 16
q15 0 25 -12t10 -27t-13 -28l-753 -762q-14 -14 -35 -14q-41 0 -41 47v663l-694 -696q-14 -14 -35 -14q-41 0 -41 47v663l-696 -696q-14 -14 -35 -14z" />
    <glyph glyph-name="uni00A40301" horiz-adv-x="727" 
d="M795 1712q-61 -30 -402 -108l-2 4q104 109 190 178.5t136 93.5q20 10 45 10q40 0 67 -27t27 -65q0 -27 -16 -50.5t-45 -35.5zM242 1491v4h592v-4q-120 -6 -169 -48.5t-71 -160.5l-160 -913q-35 -204 -168.5 -368.5t-314.5 -225.5l-2 4q109 83 177.5 206.5t100.5 303.5
l174 993q11 57 11 84q0 66 -38 93t-132 32z" />
    <glyph glyph-name="i.loclTRK" horiz-adv-x="638" 
d="M494 1587q51 0 83.5 -31.5t32.5 -80.5q0 -55 -36.5 -91t-92.5 -36q-51 0 -85 31.5t-34 80.5q0 54 38 90.5t94 36.5zM381 92q75 0 186 244l4 -2q-55 -172 -130.5 -263t-159.5 -91q-58 0 -91.5 28t-33.5 86q0 21 6 45l137 774q4 20 4 37q0 24 -8.5 32.5t-26.5 8.5
q-78 0 -188 -243l-4 2q55 172 131 264t160 92q58 0 91.5 -29.5t33.5 -87.5q0 -15 -7 -43l-137 -774q-4 -20 -4 -37q0 -24 9 -33.5t28 -9.5z" />
    <glyph glyph-name="uni006A0301" horiz-adv-x="585" 
d="M588 1595q37 0 65.5 -28.5t28.5 -63.5q0 -54 -49 -84q-84 -58 -389 -155l-2 4q92 115 169 194.5t119 110.5q28 22 58 22zM371 1106q58 0 91.5 -29.5t33.5 -87.5q0 -11 -4 -43l-148 -823q-35 -206 -154.5 -359t-277.5 -194l-2 4q180 135 242 471l151 868q4 20 4 37
q0 24 -8.5 32.5t-26.5 8.5q-79 0 -186 -243l-4 2q55 172 130 264t159 92z" />
    <glyph glyph-name="f_b" horiz-adv-x="1853" 
d="M1554 1106q107 0 168.5 -88.5t61.5 -241.5q0 -213 -83.5 -396t-230 -291.5t-319.5 -108.5q-69 0 -126.5 18.5t-105 57t-74 105.5t-26.5 158q0 57 12 125l160 902q8 51 -22 67.5t-131 16.5h-306q-50 -59 -79 -123.5t-29 -116.5q0 -42 18.5 -69.5t51.5 -35.5h272l-8 -20
h-269l-167 -942q-37 -206 -156 -359t-277 -194l-2 4q181 137 242 471l174 993l6 27h-172l8 20h168q33 133 110.5 251t185 193t216.5 75q47 0 77 -25.5t30 -67.5q0 -8 -4 -28q162 59 289 143h4l-234 -1321q138 422 269 611.5t298 189.5zM1141 4q92 0 176 58.5t144 156
t95 227.5t35 269q0 276 -129 276q-110 0 -218.5 -176.5t-252.5 -564.5q-16 -49 -16 -96q0 -71 46.5 -110.5t119.5 -39.5z" />
    <glyph glyph-name="f_h" horiz-adv-x="1916" 
d="M1847 336l4 -2q-55 -171 -130 -262.5t-158 -91.5q-125 0 -125 114q0 13 4 45l133 756q4 18 4 33q0 61 -57 61q-37 0 -87.5 -39t-120 -127t-161.5 -258.5t-192 -404.5l-27 -160h-180l237 1346q8 51 -22 67.5t-131 16.5h-306q-50 -59 -79 -123.5t-29 -116.5
q0 -42 18.5 -69.5t51.5 -35.5h272l-8 -20h-269l-167 -942q-37 -206 -156 -359t-277 -194l-2 4q181 137 242 471l174 993l6 27h-172l8 20h168q33 133 110.5 251t185 193t216.5 75q47 0 77 -25.5t30 -67.5q0 -8 -4 -28q162 59 289 143h4l-242 -1368q82 207 164.5 364.5
t148.5 247t130.5 145t110 73.5t87.5 18q67 0 104 -36t37 -105q0 -25 -4 -50l-129 -743q-2 -20 -2 -37q0 -24 8 -33.5t27 -9.5q75 0 186 244z" />
    <glyph glyph-name="f_hbar" horiz-adv-x="1916" 
d="M1847 336l4 -2q-55 -171 -130 -262.5t-158 -91.5q-125 0 -125 114q0 13 4 45l133 756q4 18 4 33q0 61 -57 61q-37 0 -87.5 -39t-120 -127t-161.5 -258.5t-192 -404.5l-27 -160h-180l237 1346q8 51 -22 67.5t-131 16.5h-306q-50 -59 -79 -123.5t-29 -116.5
q0 -42 18.5 -69.5t51.5 -35.5h272l-8 -20h-269l-167 -942q-37 -206 -156 -359t-277 -194l-2 4q181 137 242 471l174 993l6 27h-172l8 20h168q33 133 110.5 251t185 193t216.5 75q47 0 77 -25.5t30 -67.5q0 -8 -4 -28q162 59 289 143h4l-64 -354h316l-9 -21h-309l-176 -993
q82 207 164.5 364.5t148.5 247t130.5 145t110 73.5t87.5 18q67 0 104 -36t37 -105q0 -25 -4 -50l-129 -743q-2 -20 -2 -37q0 -24 8 -33.5t27 -9.5q75 0 186 244z" />
    <glyph glyph-name="f_icircumflex" horiz-adv-x="1306" 
d="M754 1065h-265l-167 -942q-37 -206 -156 -359t-277 -194l-2 4q180 137 242 471l174 993q1 4 2 13.5t2 13.5h-170l8 20h166q32 138 105.5 262.5t176 204.5t204.5 80q37 0 61.5 -24.5t24.5 -63.5q0 -42 -25 -84h-323q-119 -150 -119 -258q0 -98 78 -117h268zM1182 1614
l217 -371l-2 -4l-246 203l-315 -203l-5 4l349 371h2zM1047 92q77 0 188 244l4 -2q-55 -171 -131 -262.5t-160 -91.5q-58 0 -91.5 28t-33.5 86q0 21 6 45l138 774q4 20 4 37q0 24 -8.5 32.5t-26.5 8.5q-78 0 -188 -243l-5 2q55 172 131 264t160 92q58 0 91.5 -29.5
t33.5 -87.5q0 -19 -6 -43l-137 -774q-4 -20 -4 -37q0 -24 8.5 -33.5t26.5 -9.5z" />
    <glyph glyph-name="f_idieresis" horiz-adv-x="1355" 
d="M416 1202q0 -98 78 -117h268l-8 -20h-265l-167 -942q-37 -206 -156 -359t-277 -194l-2 4q180 137 242 471l174 993q1 4 2 13.5t2 13.5h-170l8 20h166q32 138 105.5 262.5t176 204.5t204.5 80q37 0 61.5 -24.5t24.5 -63.5q0 -42 -25 -84h-323q-119 -150 -119 -258z
M1063 1370q-41 0 -67.5 26t-26.5 66q0 46 30.5 78.5t73.5 32.5q41 0 67.5 -26t26.5 -66q0 -47 -30.5 -79t-73.5 -32zM1352 1573q41 0 66.5 -26t25.5 -66q0 -47 -30.5 -79t-74.5 -32q-41 0 -67.5 26t-26.5 66q0 45 32 78t75 33zM1098 92q75 0 186 244l4 -2
q-55 -172 -130 -263t-159 -91q-125 0 -125 114q0 5 5 45l139 774q2 20 2 37q0 24 -8 32.5t-27 8.5q-79 0 -186 -243l-4 2q55 173 129.5 264.5t158.5 91.5q59 0 92 -29.5t33 -87.5q0 -11 -4 -43l-139 -774q-2 -20 -2 -37q0 -24 8 -33.5t27 -9.5z" />
    <glyph glyph-name="f_igrave" horiz-adv-x="1404" 
d="M416 1202q0 -98 78 -117h268l-8 -20h-265l-167 -942q-37 -206 -156 -359t-277 -194l-2 4q180 137 242 471l174 993q1 4 2 13.5t2 13.5h-170l8 20h166q32 138 105.5 262.5t176 204.5t204.5 80q37 0 61.5 -24.5t24.5 -63.5q0 -42 -25 -84h-323q-119 -150 -119 -258z
M1296 1200q-118 90 -199 163t-114 114q-22 31 -22 65t28.5 62t63.5 28q54 0 82 -45q66 -98 165 -385zM1333 336l4 -2q-55 -171 -130 -262.5t-158 -91.5q-125 0 -125 114q0 13 4 45l137 774q4 20 4 37q0 24 -8.5 32.5t-26.5 8.5q-79 0 -186 -243l-4 2q55 172 130 264t159 92
q58 0 91 -29.5t33 -87.5q0 -11 -4 -43l-139 -774q-4 -20 -4 -37q0 -24 9 -33.5t28 -9.5q75 0 186 244z" />
    <glyph glyph-name="f_imacron" horiz-adv-x="1306" 
d="M934 1468h475l-8 -20h-850q-58 -61 -92.5 -128t-34.5 -118q0 -98 70 -117h268l-8 -20h-265l-167 -942q-37 -206 -156 -359t-277 -194l-2 4q180 137 242 471l174 993l6 27h-172l8 20h168q34 135 114.5 257.5t189.5 199t214 76.5q50 0 81.5 -27t31.5 -71q0 -25 -10 -52z
M1047 92q77 0 188 244l4 -2q-55 -171 -131 -262.5t-160 -91.5q-58 0 -91.5 28t-33.5 86q0 21 6 45l138 774q4 20 4 37q0 24 -8.5 32.5t-26.5 8.5q-78 0 -188 -243l-5 2q55 172 131 264t160 92q58 0 91.5 -29.5t33.5 -87.5q0 -19 -6 -43l-137 -774q-4 -20 -4 -37
q0 -24 8.5 -33.5t26.5 -9.5z" />
    <glyph glyph-name="f_iogonek" horiz-adv-x="1306" 
d="M754 1065h-265l-167 -942q-37 -206 -156 -359t-277 -194l-2 4q180 137 242 471l174 993q1 4 2 13.5t2 13.5h-170l8 20h166q32 138 105.5 262.5t176 204.5t204.5 80q37 0 61.5 -24.5t24.5 -63.5q0 -42 -25 -84h-323q-119 -150 -119 -258q0 -98 78 -117h268zM1161 1587
q51 0 84 -31.5t33 -80.5q0 -55 -37 -91t-94 -36q-50 0 -83.5 31.5t-33.5 80.5q0 54 37.5 90.5t93.5 36.5zM1239 334q-80 -249 -197 -324q-163 -199 -163 -303q0 -35 24 -57.5t64 -22.5q73 0 139 51l2 -4q-98 -94 -219 -94q-71 0 -113.5 31.5t-42.5 85.5q0 71 68 145.5
t186 143.5q-18 -6 -39 -6q-58 0 -91.5 28t-33.5 86q0 21 6 45l138 774q4 20 4 37q0 24 -8.5 32.5t-26.5 8.5q-78 0 -188 -243l-5 2q55 172 131 264t160 92q58 0 91.5 -29.5t33.5 -87.5q0 -19 -6 -43l-137 -774q-4 -20 -4 -37q0 -24 8.5 -33.5t26.5 -9.5q77 0 188 244z" />
    <glyph glyph-name="f_j" horiz-adv-x="1241" 
d="M754 1065h-265l-167 -942q-37 -206 -156 -359t-277 -194l-2 4q180 137 242 471l174 993q1 4 2 13.5t2 13.5h-170l8 20h166q32 138 105.5 262.5t176 204.5t204.5 80q37 0 61.5 -24.5t24.5 -63.5q0 -42 -25 -84h-323q-119 -150 -119 -258q0 -98 78 -117h268zM1155 1587
q51 0 84 -31.5t33 -80.5q0 -55 -37.5 -91t-93.5 -36q-51 0 -84 31.5t-33 80.5q0 54 37 90.5t94 36.5zM1026 1106q59 0 92 -29.5t33 -87.5q0 -11 -4 -43l-148 -823q-35 -206 -153.5 -359t-276.5 -194l-2 4q182 138 240 471l151 868q5 25 5 37q0 24 -8.5 32.5t-26.5 8.5
q-38 0 -86 -61.5t-101 -181.5l-4 2q55 172 130 264t159 92z" />
    <glyph glyph-name="f_k" horiz-adv-x="1859" 
d="M1808 326l4 -2q-40 -178 -110.5 -261t-163.5 -83q-103 0 -164 104l-307 463l147 26q162 41 252 118t90 171q0 65 -42 105.5t-111 40.5q-80 0 -167 -53.5t-161 -151.5l-141 -803h-182l239 1346q8 51 -22 67.5t-131 16.5h-306q-50 -59 -79 -123.5t-29 -116.5
q0 -42 18.5 -69.5t51.5 -35.5h272l-8 -20h-269l-167 -942q-37 -206 -156 -359t-277 -194l-2 4q181 137 242 471l174 993l6 27h-172l8 20h168q33 133 110.5 251t185 193t216.5 75q47 0 77 -25.5t30 -67.5q0 -8 -4 -28q162 59 289 143h4l-138 -784q83 122 196 193t222 71
q110 0 178 -56t68 -147q0 -108 -123.5 -200.5t-333.5 -139.5l236 -358q31 -48 56 -70t54 -22q48 0 89.5 49t82.5 164z" />
    <glyph glyph-name="uni00660137" horiz-adv-x="1859" 
d="M1808 326l4 -2q-40 -178 -110.5 -261t-163.5 -83q-103 0 -164 104l-307 463l147 26q162 41 252 118t90 171q0 65 -42 105.5t-111 40.5q-80 0 -167 -53.5t-161 -151.5l-141 -803h-182l239 1346q8 51 -22 67.5t-131 16.5h-306q-50 -59 -79 -123.5t-29 -116.5
q0 -42 18.5 -69.5t51.5 -35.5h272l-8 -20h-269l-167 -942q-37 -206 -156 -359t-277 -194l-2 4q181 137 242 471l174 993l6 27h-172l8 20h168q33 133 110.5 251t185 193t216.5 75q47 0 77 -25.5t30 -67.5q0 -8 -4 -28q162 59 289 143h4l-138 -784q83 122 196 193t222 71
q110 0 178 -56t68 -147q0 -108 -123.5 -200.5t-333.5 -139.5l236 -358q31 -48 56 -70t54 -22q48 0 89.5 49t82.5 164zM1145 -66q53 0 84 -31t31 -83q0 -82 -69.5 -151t-174.5 -99l-2 4q52 24 85.5 66t33.5 81q0 33 -28.5 53t-76.5 23q-6 12 -6 33q0 41 37 72.5t86 31.5z" />
    <glyph glyph-name="f_lacute" horiz-adv-x="1257" 
d="M1346 1960q39 0 65.5 -27.5t26.5 -64.5q0 -27 -16.5 -50.5t-43.5 -35.5q-71 -34 -403 -109l-2 4q106 110 191.5 180t133.5 93q20 10 48 10zM1221 1626l-258 -1454q-2 -20 -2 -37q0 -24 7.5 -33.5t26.5 -9.5q37 0 85.5 62t101.5 182l4 -2q-55 -172 -130 -263t-159 -91
q-125 0 -125 114q0 13 4 45l215 1207q8 51 -22 67.5t-131 16.5h-306q-50 -59 -79 -123.5t-29 -116.5q0 -42 18.5 -69.5t51.5 -35.5h272l-8 -20h-269l-167 -942q-37 -206 -156 -359t-277 -194l-2 4q181 137 242 471l174 993l6 27h-172l8 20h168q33 133 110.5 251t185 193
t216.5 75q47 0 77 -25.5t30 -67.5q0 -8 -4 -28q162 59 289 143h4z" />
    <glyph glyph-name="f_lcaron" horiz-adv-x="1275" 
d="M1436 1632q52 0 83 -35t31 -94q0 -95 -71.5 -192.5t-180.5 -149.5l-2 4q53 38 88 95.5t35 105.5q0 41 -25.5 71t-70.5 36q-12 21 -12 43q0 47 37 81.5t88 34.5zM1221 1626l-258 -1454q-2 -20 -2 -37q0 -24 7.5 -33.5t26.5 -9.5q37 0 85.5 62t101.5 182l4 -2
q-55 -172 -130 -263t-159 -91q-125 0 -125 114q0 13 4 45l215 1207q8 51 -22 67.5t-131 16.5h-306q-50 -59 -79 -123.5t-29 -116.5q0 -42 18.5 -69.5t51.5 -35.5h272l-8 -20h-269l-167 -942q-37 -206 -156 -359t-277 -194l-2 4q181 137 242 471l174 993l6 27h-172l8 20h168
q33 133 110.5 251t185 193t216.5 75q47 0 77 -25.5t30 -67.5q0 -8 -4 -28q162 59 289 143h4z" />
    <glyph glyph-name="uni0066013C" horiz-adv-x="1257" 
d="M995 92q37 0 85.5 62t101.5 182l4 -2q-55 -172 -130 -263t-159 -91q-125 0 -125 114q0 13 4 45l215 1207q8 51 -22 67.5t-131 16.5h-306q-50 -59 -79 -123.5t-29 -116.5q0 -42 18.5 -69.5t51.5 -35.5h272l-8 -20h-269l-167 -942q-37 -206 -156 -359t-277 -194l-2 4
q181 137 242 471l174 993l6 27h-172l8 20h168q33 133 110.5 251t185 193t216.5 75q47 0 77 -25.5t30 -67.5q0 -8 -4 -28q162 59 289 143h4l-258 -1454q-2 -20 -2 -37q0 -24 7.5 -33.5t26.5 -9.5zM817 -66q53 0 84 -31t31 -83q0 -82 -70 -151t-176 -99l-2 4q53 24 87 66
t34 81q0 33 -28.5 53t-76.5 23q-8 16 -8 33q0 42 37 73t88 31z" />
    <glyph glyph-name="f_lslash" horiz-adv-x="1304" 
d="M995 92q37 0 85.5 62t101.5 182l4 -2q-55 -172 -130 -263t-159 -91q-125 0 -125 114q0 13 4 45l113 633l-162 -104l-10 20l178 113l96 545q8 51 -22 67.5t-131 16.5h-306q-50 -59 -79 -123.5t-29 -116.5q0 -42 18.5 -69.5t51.5 -35.5h272l-8 -20h-269l-167 -942
q-37 -206 -156 -359t-277 -194l-2 4q181 137 242 471l174 993l6 27h-172l8 20h168q33 133 110.5 251t185 193t216.5 75q47 0 77 -25.5t30 -67.5q0 -8 -4 -28q162 59 289 143h4l-127 -717l176 113l10 -18l-193 -123l-124 -709q-2 -20 -2 -37q0 -24 7.5 -33.5t26.5 -9.5z" />
    <glyph glyph-name="f_thorn" horiz-adv-x="1855" 
d="M1556 1106q107 0 168.5 -88.5t61.5 -241.5q0 -213 -78 -396t-214.5 -291.5t-299.5 -108.5q-69 0 -135.5 21t-114.5 56l-45 -258q-12 -70 18 -92.5t130 -30.5v-4q-197 -33 -363 -94h-4l311 1768q9 51 -21.5 67.5t-131.5 16.5h-306q-50 -59 -79 -123.5t-29 -116.5
q0 -42 18.5 -69.5t51.5 -35.5h272l-8 -20h-269l-167 -942q-37 -206 -156 -359t-277 -194l-2 4q181 137 242 471l174 993l6 27h-172l8 20h168q33 133 110.5 251t185 193t216.5 75q47 0 77 -25.5t30 -67.5q0 -10 -4 -30q166 63 289 145h4l-232 -1313q140 419 270 606t297 187z
M1167 10q116 0 215 98t155 260t56 347q0 276 -129 276q-119 0 -239 -201t-262 -626l-5 -23q26 -62 82.5 -96.5t126.5 -34.5z" />
    <glyph glyph-name="zero.osf" horiz-adv-x="1247" 
d="M526 -20q-198 0 -312 116.5t-114 315.5q0 143 49 271.5t132 221t198.5 147t243.5 54.5q197 0 310.5 -116t113.5 -314q0 -143 -48.5 -272t-131 -222t-198 -147.5t-243.5 -54.5zM530 4q108 0 207 106.5t159 279t60 355.5q0 156 -62 246t-175 90q-108 0 -207 -107
t-159 -279.5t-60 -354.5q0 -157 62 -246.5t175 -89.5z" />
    <glyph glyph-name="one.osf" horiz-adv-x="663" 
d="M387 121q0 -65 37 -89.5t135 -27.5v-4h-582v4q126 4 171 44t67 165l94 526q10 62 10 97q0 88 -69 88q-52 0 -127 -33l-2 4q248 121 432 231h4l-162 -913q-8 -49 -8 -92z" />
    <glyph glyph-name="two.osf" horiz-adv-x="1208" 
d="M1077 383h4l-120 -393q-177 10 -576 10h-416v6q96 73 310 211q85 55 141 92.5t126 89t114 94t84.5 91.5t59.5 98.5t19 99.5q0 76 -51 121t-137 45q-120 0 -239 -73.5t-195 -186.5l-4 2q94 182 248.5 299t304.5 117q129 0 204.5 -68.5t75.5 -181.5q0 -48 -12 -92
t-38.5 -85t-57.5 -77t-79.5 -73.5t-94 -68.5t-112.5 -68.5t-123 -66.5t-136 -69q-36 -19 -158 -98h443q189 0 273 45t142 180z" />
    <glyph glyph-name="three.osf" horiz-adv-x="1017" 
d="M561 502q156 -20 247 -105t91 -215q0 -159 -117.5 -291t-332 -216t-492.5 -105v4q219 28 388 110.5t262 204.5t93 265q0 111 -72 177t-198 66q-90 0 -192 -47l-2 21q481 226 481 477q0 70 -51 111.5t-140 41.5q-95 0 -205.5 -56t-193.5 -144l-4 2q100 139 242.5 227
t277.5 88q122 0 193 -59.5t71 -159.5q0 -121 -96.5 -224.5t-249.5 -172.5z" />
    <glyph glyph-name="four.osf" horiz-adv-x="1236" 
d="M1104 31l-12 -31h-301l-72 -401l-180 -23h-4l73 424h-671v6l929 1079h115l-188 -1065q161 0 307 11h4zM-27 20h639l164 932z" />
    <glyph glyph-name="five.osf" horiz-adv-x="1175" 
d="M1032 924h-678l-131 -314q357 -37 533 -145.5t176 -302.5q0 -248 -256.5 -408.5t-693.5 -183.5v4q344 38 549.5 175t205.5 331q0 152 -150 236.5t-454 119.5l-2 6l268 643h131q250 0 373.5 7.5t208.5 33.5h4z" />
    <glyph glyph-name="six.osf" horiz-adv-x="1257" 
d="M743 868q163 0 262 -91.5t99 -244.5q0 -115 -46 -217.5t-124 -175.5t-187 -116t-231 -43q-188 0 -294.5 120.5t-106.5 327.5q0 158 59.5 312t166 287.5t251 250t318 206t364.5 148.5l2 -4q-313 -134 -555.5 -369t-347.5 -524q79 61 177.5 97t192.5 36zM522 4
q99 0 189.5 82.5t145 215t54.5 273.5q0 121 -56.5 193t-154.5 72q-90 0 -189 -57t-171 -150q-37 -136 -37 -287q0 -159 58.5 -250.5t160.5 -91.5z" />
    <glyph glyph-name="seven.osf" horiz-adv-x="1193" 
d="M1194 1085l2 -6q-303 -380 -507 -721t-312 -673q-38 -115 -133 -115q-74 0 -74 68q0 102 140 338.5t343.5 497t393.5 450.5h-539q-79 0 -129.5 -8t-102.5 -33.5t-96 -76.5t-90 -134l-4 2l197 444h4q64 -20 189.5 -26.5t367.5 -6.5h350z" />
    <glyph glyph-name="eight.osf" horiz-adv-x="1290" 
d="M784 838q46 -27 70 -41.5t65 -42t63.5 -47.5t51.5 -50.5t44 -59.5t25.5 -66.5t10.5 -77.5q0 -131 -75.5 -239.5t-208 -171t-293.5 -62.5q-199 0 -313.5 86t-114.5 231q0 81 38 153.5t102.5 126t141.5 92t164 62.5q-114 71 -177 151.5t-63 196.5q0 189 139 313t353 124
q173 0 274 -76.5t101 -204.5q0 -75 -34 -141t-92 -114.5t-127 -83.5t-147 -56zM803 1491q-132 0 -225 -92t-93 -221q0 -44 15.5 -84.5t39 -71.5t62.5 -63.5t73.5 -55t84.5 -51.5q112 59 196 170.5t84 239.5q0 105 -63.5 167t-173.5 62zM541 4q164 0 279.5 103t115.5 249
q0 42 -16.5 81t-39.5 67.5t-64.5 61t-73.5 53t-85 51.5q-14 7 -38.5 22.5t-38.5 22.5q-138 -78 -231 -195.5t-93 -249.5q0 -122 76.5 -194t208.5 -72z" />
    <glyph glyph-name="nine.osf" horiz-adv-x="1171" 
d="M662 1106q191 0 300 -122.5t109 -330.5q0 -219 -114 -432.5t-319.5 -384.5t-467.5 -266l-2 4q230 125 403.5 337.5t251.5 463.5q-79 -64 -179.5 -101.5t-197.5 -37.5q-164 0 -262 90t-98 241q0 148 76 272t208.5 195.5t291.5 71.5zM852 477q31 133 31 260
q0 159 -60.5 251.5t-165.5 92.5q-96 0 -184 -80t-141 -209t-53 -266q0 -119 56 -189.5t154 -70.5q93 0 193 58t170 153z" />
    <glyph glyph-name="zero.dnom" horiz-adv-x="804" 
d="M305 -12q-116 0 -182 83.5t-66 225.5q0 148 54.5 275.5t146.5 202.5t199 75q116 0 182 -82.5t66 -224.5q0 -148 -54.5 -276t-146.5 -203.5t-199 -75.5zM307 6q56 0 115.5 100t97 247t37.5 280q0 92 -27 145t-77 53q-57 0 -116 -98.5t-96.5 -245.5t-37.5 -282
q0 -93 27.5 -146t76.5 -53z" />
    <glyph glyph-name="one.dnom" horiz-adv-x="524" 
d="M264 84q0 -42 23.5 -59.5t81.5 -20.5v-4h-387v4q74 6 103.5 33t41.5 98l86 475q4 32 4 47q0 50 -45 50q-22 0 -80 -21l-2 4q172 85 305 170h2l-129 -725q-4 -23 -4 -51z" />
    <glyph glyph-name="two.dnom" horiz-adv-x="761" 
d="M375 131q119 0 172 27.5t86 109.5h4l-82 -274q-111 6 -387 6h-213l-2 4q82 80 190 166q58 47 88 73t85 79t84 92.5t53 92t24 99.5q0 54 -33 86.5t-88 32.5q-69 0 -137 -40t-113 -105l-4 2q66 122 163 195t194 73q84 0 132 -45t48 -119q0 -45 -17 -91.5t-42 -85
t-65.5 -79.5t-74.5 -70t-82 -63t-75.5 -52t-67.5 -42q-23 -14 -96 -72h256z" />
    <glyph glyph-name="three.dnom" horiz-adv-x="677" 
d="M332 518q101 -22 158 -74.5t57 -128.5q0 -136 -145.5 -223t-403.5 -104v4q184 22 291.5 94.5t107.5 173.5q0 112 -200 139l-2 4l305 306h-193q-86 0 -133.5 -25.5t-89.5 -99.5l-4 2l113 272h2q66 -18 354 -18h100l2 -4z" />
    <glyph glyph-name="four.dnom" horiz-adv-x="759" 
d="M485 233l-18 -108q-4 -23 -4 -47q0 -38 20 -54.5t70 -19.5v-4h-379v4q79 6 111 35t45 108l14 86h-356l-2 3l506 604h102l-105 -588q91 0 173 6h2l-9 -25h-170zM23 252h325l88 493z" />
    <glyph glyph-name="five.dnom" horiz-adv-x="667" 
d="M582 707h-389l-54 -134q207 -22 304.5 -79.5t97.5 -161.5q0 -148 -149.5 -238.5t-403.5 -105.5v4q182 20 291.5 94t109.5 176q0 73 -79.5 115t-241.5 61v4l159 398h90q137 0 207 4t119 18h2z" />
    <glyph glyph-name="six.dnom" horiz-adv-x="737" 
d="M410 492q96 0 155.5 -53.5t59.5 -143.5q0 -129 -100 -218t-246 -89q-112 0 -177 70t-65 186q0 100 47 197t127 174t183.5 138t219.5 97l2 -4q-121 -58 -222.5 -165.5t-155.5 -242.5q79 54 172 54zM283 6q47 0 91.5 49.5t71.5 126.5t27 154q0 60 -26 96.5t-70 36.5
q-39 0 -82.5 -24.5t-79.5 -65.5q-31 -102 -31 -207q0 -75 26.5 -120.5t72.5 -45.5z" />
    <glyph glyph-name="seven.dnom" horiz-adv-x="700" 
d="M524 840h195v-4q-340 -435 -440 -762q-28 -86 -101 -86q-55 0 -55 53q0 84 157.5 294.5t323.5 371.5h-319q-88 0 -134.5 -24.5t-89.5 -98.5l-4 2l115 272h2q73 -18 350 -18z" />
    <glyph glyph-name="eight.dnom" horiz-adv-x="751" 
d="M428 483q43 -25 69.5 -43t57 -45.5t45 -60.5t14.5 -72q0 -116 -98 -195t-244 -79q-115 0 -182 48t-67 130q0 86 71.5 145.5t173.5 81.5q-64 41 -99.5 87t-35.5 114q0 111 83 183.5t210 72.5q103 0 165 -43.5t62 -116.5q0 -78 -65 -132t-160 -75zM422 831q-66 0 -114 -49
t-48 -116q0 -56 38.5 -94.5t109.5 -77.5q59 39 98 95.5t39 121.5q0 56 -33 88t-90 32zM276 6q83 0 142 55t59 132q0 29 -11 52.5t-37 45t-46 34.5t-59 35q-5 3 -11.5 6.5t-13.5 8t-10 6.5q-66 -41 -111 -102.5t-45 -131.5q0 -65 38.5 -103t104.5 -38z" />
    <glyph glyph-name="nine.dnom" horiz-adv-x="733" 
d="M406 850q115 0 181 -69t66 -187q0 -184 -147.5 -353.5t-380.5 -252.5l-2 4q113 63 202.5 175.5t135.5 248.5q-87 -56 -182 -56t-153 52t-58 139q0 126 98 212.5t240 86.5zM479 479q25 95 25 187q0 77 -27 121t-76 44q-68 0 -125 -102.5t-57 -216.5q0 -59 25 -95t69 -36
q41 0 86.5 27t79.5 71z" />
    <glyph glyph-name="zero.numr" horiz-adv-x="802" 
d="M420 643q-116 0 -182 83.5t-66 225.5q0 148 54 275.5t146 202.5t199 75q116 0 182 -83t66 -226q0 -147 -54 -274.5t-146 -203t-199 -75.5zM422 662q56 0 115.5 99.5t97 246t37.5 278.5q0 94 -27.5 147.5t-77.5 53.5q-57 0 -116 -99t-96.5 -246.5t-37.5 -281.5
q0 -93 28 -145.5t77 -52.5z" />
    <glyph glyph-name="one.numr" horiz-adv-x="524" 
d="M381 739q0 -42 23 -59.5t81 -20.5v-4h-387v4q74 4 104 31.5t42 100.5l86 475q4 32 4 45q0 26 -10 38.5t-35 12.5q-21 0 -80 -21l-2 5q187 92 305 170h2l-129 -725q-4 -23 -4 -52z" />
    <glyph glyph-name="two.numr" horiz-adv-x="761" 
d="M489 786q119 0 173.5 27.5t87.5 108.5h4l-84 -273q-111 6 -385 6h-213l-2 4q97 94 188 164q44 37 61.5 52t61.5 54t65.5 62.5t54.5 63t49 69.5t29 67t13 71q0 54 -32 85t-89 31q-69 0 -136.5 -39.5t-111.5 -105.5l-4 2q64 123 160.5 196.5t193.5 73.5q85 0 134 -45
t49 -119q0 -45 -17 -91.5t-42.5 -85t-65 -79.5t-74.5 -70.5t-82.5 -62.5t-76.5 -51.5t-68 -42.5q-12 -7 -94 -72h253z" />
    <glyph glyph-name="three.numr" horiz-adv-x="677" 
d="M449 1174q102 -24 158.5 -76t56.5 -127q0 -137 -145 -224t-404 -104v4q183 20 291 93t108 173q0 59 -50 93t-151 49l-2 4l305 305h-192q-86 0 -133.5 -25.5t-89.5 -99.5l-4 2l112 272h2q66 -18 355 -18h100l2 -4z" />
    <glyph glyph-name="four.numr" horiz-adv-x="757" 
d="M602 887l-18 -107q-4 -23 -4 -47q0 -38 20 -54.5t68 -19.5v-4h-377v4q78 4 109.5 34t45.5 110l15 84h-357l-2 4l506 604h101l-103 -590q90 0 170 6h2l-6 -24h-170zM135 905h330l86 494z" />
    <glyph glyph-name="five.numr" horiz-adv-x="669" 
d="M698 1362h-389l-53 -131q205 -23 303 -82.5t98 -161.5q0 -148 -149.5 -238.5t-403.5 -105.5v4q182 20 292 94.5t110 176.5q0 73 -80 115t-244 61v4l162 397h88q245 0 328 23h2z" />
    <glyph glyph-name="six.numr" horiz-adv-x="737" 
d="M526 1147q96 0 155.5 -54t59.5 -143q0 -129 -100 -218t-246 -89q-112 0 -176.5 70t-64.5 186q0 100 47 197t127 174t183.5 138t219.5 97l2 -4q-122 -59 -223.5 -165.5t-155.5 -241.5q77 53 172 53zM399 662q71 0 131 105t60 222q0 62 -26 98.5t-70 36.5
q-39 0 -82.5 -24.5t-79.5 -65.5q-31 -102 -31 -207q0 -75 26.5 -120t71.5 -45z" />
    <glyph glyph-name="seven.numr" horiz-adv-x="700" 
d="M836 1495l2 -4q-341 -436 -443 -762q-25 -86 -100 -86q-55 0 -55 53q0 84 157.5 294.5t323.5 371.5h-320q-86 0 -132 -24.5t-91 -98.5l-4 2l115 272h2q64 -18 350 -18h195z" />
    <glyph glyph-name="eight.numr" horiz-adv-x="749" 
d="M543 1137q36 -21 56 -33.5t49 -35t44.5 -42t27 -48.5t11.5 -60q0 -117 -98.5 -196t-243.5 -79q-116 0 -184 48t-68 130q0 87 72.5 146t175.5 82q-64 39 -100.5 85.5t-36.5 114.5q0 111 83 183.5t210 72.5q104 0 165.5 -43t61.5 -116q0 -78 -65.5 -133.5t-159.5 -75.5z
M537 1487q-66 0 -113 -49t-47 -117q0 -39 23 -72.5t49 -53t75 -48.5q58 43 96.5 99t38.5 118q0 56 -32.5 89.5t-89.5 33.5zM393 662q82 0 141.5 54.5t59.5 129.5q0 29 -11.5 53.5t-38 46.5t-45.5 34.5t-59 35.5q-16 8 -34 20q-67 -41 -112.5 -102t-45.5 -131q0 -65 39 -103
t106 -38z" />
    <glyph glyph-name="nine.numr" horiz-adv-x="733" 
d="M520 1505q115 0 181.5 -69t66.5 -187q0 -184 -147.5 -353.5t-380.5 -252.5l-2 4q113 62 202 175t135 249q-85 -55 -182 -55q-95 0 -153 51.5t-58 138.5q0 126 98 212.5t240 86.5zM594 1135q24 91 24 184q0 79 -26.5 123.5t-75.5 44.5q-68 0 -125 -103t-57 -217
q0 -59 25 -95t69 -36q41 0 86.5 27.5t79.5 71.5z" />
    <glyph glyph-name="exclamdown.case" horiz-adv-x="696" 
d="M440 1227q-66 0 -105.5 37.5t-39.5 97.5q0 63 46.5 108.5t109.5 45.5q66 0 105.5 -38t39.5 -98q0 -63 -46 -108t-110 -45zM201 -20q-47 0 -74 25t-27 69q0 117 152 544q109 332 137 445h4q-24 -197 -24 -451q6 -105 1.5 -245.5t-26.5 -257.5q-12 -64 -50 -96.5t-93 -32.5
z" />
    <glyph glyph-name="questiondown.case" horiz-adv-x="944" 
d="M739 1516q66 0 106 -38t40 -98q0 -64 -46.5 -108.5t-111.5 -44.5q-66 0 -105.5 37.5t-39.5 97.5q0 63 46.5 108.5t110.5 45.5zM258 154h467q4 -20 4 -37q0 -61 -47 -99t-113 -38q-127 0 -233.5 65.5t-165.5 169t-59 217.5q0 183 140.5 290t379.5 118q38 106 63 223h4
q-3 -196 21 -391l-6 -4q-264 -6 -413.5 -81.5t-149.5 -211.5q0 -116 108 -221z" />
    <glyph glyph-name="parenleft.case" horiz-adv-x="724" 
d="M580 -238q-214 132 -329.5 329t-115.5 450q0 376 210.5 694.5t584.5 509.5l4 -4q-288 -210 -457.5 -552t-169.5 -712q0 -220 73 -401t206 -309z" />
    <glyph glyph-name="parenright.case" horiz-adv-x="724" 
d="M-205 -238l-4 5q288 210 456.5 551t168.5 712q0 222 -72.5 402.5t-204.5 308.5l4 4q215 -132 330 -327.5t115 -450.5q0 -376 -209.5 -694.5t-583.5 -510.5z" />
    <glyph glyph-name="braceleft.case" horiz-adv-x="763" 
d="M924 1737q-187 -97 -268 -174.5t-81 -182.5q0 -49 23 -147q27 -127 27 -176q0 -135 -87 -211.5t-259 -91.5q258 -23 258 -195q0 -46 -18.5 -102t-38 -93t-50.5 -88q-31 -53 -47 -82t-30.5 -71t-14.5 -78q0 -69 54.5 -130.5t185.5 -143.5l-5 -4q-225 69 -317 141.5
t-92 163.5q0 53 24 107.5t72 135.5q37 64 54.5 96t35 84.5t17.5 98.5q0 149 -207 149h-13l5 21h12q133 0 204.5 67.5t71.5 192.5q0 60 -24 170q-25 95 -25 154q0 131 121.5 221t409.5 172z" />
    <glyph glyph-name="braceright.case" horiz-adv-x="763" 
d="M602 764h12l-4 -21h-12q-133 0 -204.5 -67.5t-71.5 -192.5q0 -62 26 -172q23 -105 23 -151q0 -133 -122 -223t-409 -170l-2 4q187 97 267.5 174t80.5 182q0 59 -22 149q-27 119 -27 175q0 273 348 303q-260 22 -260 194q0 107 109 285q30 51 45.5 80.5t30 71.5t14.5 77
q0 69 -55.5 131.5t-184.5 143.5l4 4q226 -69 318 -141.5t92 -163.5q0 -37 -16 -83t-31 -73.5t-49 -85.5q-38 -67 -54.5 -97.5t-34.5 -84t-18 -99.5q0 -149 207 -149z" />
    <glyph glyph-name="bracketleft.case" horiz-adv-x="862" 
d="M508 1753h471v-4q-171 -8 -238.5 -62.5t-93.5 -207.5l-256 -1450q-12 -59 -12 -105q0 -89 54.5 -124.5t193.5 -41.5v-4h-471l45 252l264 1495z" />
    <glyph glyph-name="bracketright.case" horiz-adv-x="825" 
d="M236 1753h471l-45 -252l-265 -1495l-43 -252h-471v4q172 7 239 62t93 209l256 1450q12 59 12 104q0 89 -54 124.5t-193 41.5v4z" />
    <glyph glyph-name="hyphen.case" horiz-adv-x="878" 
d="M92 758l8 20h686l-8 -20h-686z" />
    <glyph glyph-name="uni00AD.case" horiz-adv-x="878" 
d="M92 758l8 20h686l-8 -20h-686z" />
    <glyph glyph-name="endash.case" horiz-adv-x="1210" 
d="M92 758l8 20h1018l-8 -20h-1018z" />
    <glyph glyph-name="emdash.case" horiz-adv-x="1658" 
d="M92 758l8 20h1467l-8 -20h-1467z" />
    <glyph glyph-name="guillemotleft.case" horiz-adv-x="901" 
d="M512 1171l-266 -407l121 -408l-5 -2l-274 389l6 39l414 392zM813 1171l-266 -407l123 -408l-4 -2l-277 389l6 39l414 392z" />
    <glyph glyph-name="guillemotright.case" horiz-adv-x="901" 
d="M512 782l-8 -39l-412 -389l-4 2l264 404l-121 411l5 3zM539 1174l274 -392l-6 -39l-414 -389l-4 2l266 406l-120 409z" />
    <glyph glyph-name="guilsinglleft.case" horiz-adv-x="598" 
d="M512 1171l-266 -407l121 -408l-5 -2l-274 389l6 39l414 392z" />
    <glyph glyph-name="guilsinglright.case" horiz-adv-x="598" 
d="M236 1174l276 -392l-8 -39l-412 -389l-4 2l264 404l-121 411z" />
    <glyph glyph-name="uni20BF.osf" horiz-adv-x="1257" 
d="M813 621q146 -7 228.5 -75t82.5 -177q0 -153 -126.5 -261t-305.5 -108h-16l-37 -205h-23l37 205h-233l-37 -205h-23l37 205h-397v4q101 5 143 44t62 149l137 792q10 58 10 84q0 59 -31.5 82.5t-109.5 28.5v4h397l33 192h23l-33 -192h192q27 0 39 -2l35 194h23l-35 -196
q119 -12 186.5 -73t67.5 -155q0 -127 -90.5 -218.5t-235.5 -116.5zM762 1167h-207l-96 -540h207q119 0 199.5 99t80.5 245q0 91 -48 143.5t-136 52.5zM631 20q122 0 210.5 109t88.5 258q0 101 -56.5 160t-158.5 59h-260l-72 -405q-10 -72 -10 -101q0 -45 18 -62.5t60 -17.5
h180z" />
    <glyph glyph-name="cent.osf" horiz-adv-x="1132" 
d="M897 602q-28 0 -45 10v437q-50 32 -131 32q-17 0 -25 -2l-172 -970q34 -9 72 -9q92 0 191 49.5t167 131.5l4 -2q-75 -128 -199.5 -210t-254.5 -89l-35 -193l-20 4l32 189h-2q-178 0 -280.5 112t-102.5 305q0 187 76.5 345.5t210 254.5t295.5 107l33 194l22 -4l-33 -188
h17q148 0 232.5 -77.5t84.5 -209.5q0 -98 -40.5 -157.5t-96.5 -59.5zM504 113l168 964q-106 -17 -194 -101.5t-138.5 -217.5t-50.5 -287q0 -139 57 -234t158 -124z" />
    <glyph glyph-name="dollar.osf" horiz-adv-x="1157" 
d="M1040 817q-17 143 -108.5 241t-220.5 120l-84 -478q15 -5 37 -16q46 -21 70.5 -33t65 -34.5t63.5 -39.5t52 -42.5t44 -50.5t25.5 -57t10.5 -67q0 -166 -139 -273t-354 -107h-8l-35 -193l-21 4l33 189q-71 6 -153.5 37.5t-106.5 31.5q-25 0 -43 -12t-47 -47h-4l-6 393l4 2
q27 -166 127 -269t235 -112l90 514h-2q-46 21 -70 32.5t-65 34t-64 39.5t-52 43.5t-44 52t-26 59.5t-11 71q0 154 117.5 256t294.5 102q35 0 49 -2l33 180l21 -4l-33 -180q53 -7 132 -32t107 -25q21 0 35.5 10.5t40.5 42.5h4l10 -379zM608 711l82 471q-14 2 -45 2
q-109 0 -184.5 -69t-75.5 -169q0 -75 58.5 -129t164.5 -106zM829 268q0 76 -63.5 131t-179.5 109l-88 -504h2q146 0 237.5 73.5t91.5 190.5z" />
    <glyph glyph-name="Euro.osf" horiz-adv-x="1288" 
d="M1219 1196h4l-66 -377h-4q9 164 -62.5 261.5t-207.5 97.5q-126 0 -238.5 -122t-173.5 -315h420l-8 -20h-418q-35 -131 -43 -232h385l-8 -20h-379q-2 -25 -2 -76q0 -179 68.5 -282t189.5 -103q143 0 254.5 104.5t159.5 276.5h4l-70 -399h-4q-23 32 -38 42.5t-38 10.5
q-25 0 -124.5 -31.5t-174.5 -31.5q-196 0 -308 123t-112 335v31h-170l8 20h164q6 126 43 232h-170l9 20h167q73 209 231.5 338t352.5 129q59 0 113 -15t92.5 -30.5t60.5 -15.5q21 0 40.5 10t52.5 39z" />
    <glyph glyph-name="sterling.osf" horiz-adv-x="1337" 
d="M1114 754q-30 0 -49 8v383q-61 39 -158 39q-288 0 -338 -350q-6 -61 -6 -144q3 -48 0 -94h455l-8 -21h-447q0 -6 -1 -18t-1 -18q-23 -267 -330 -381h533q73 0 120.5 4t95 17.5t80.5 38.5t63.5 66.5t56.5 102.5h4l-121 -397q-195 10 -657 10h-353v6q92 68 162 148v4h4
q74 88 109.5 186.5t46.5 230.5h-207l8 21h199q5 71 14 156q23 213 168 334.5t356 121.5q155 0 245.5 -72t90.5 -194q0 -83 -38 -135.5t-97 -52.5z" />
    <glyph glyph-name="yen.osf" horiz-adv-x="1273" 
d="M866 1188h457v-4q-72 -12 -139.5 -74t-212.5 -250l-256 -346h301l-8 -20h-301l-41 -234h305l-8 -20h-301v-2q-11 -71 -11 -101q0 -71 39 -99.5t133 -33.5v-4h-594v4q127 6 176 52.5t74 181.5v2h-297l8 20h293l39 223l-4 11h-293l8 20h277l-176 459q-48 119 -80 160.5
t-90 50.5v4h555v-4q-193 -25 -193 -148q0 -41 37 -133l150 -356l202 270q73 97 101 151.5t28 96.5q0 54 -43 83t-135 36v4z" />
    <glyph glyph-name="percent.osf" horiz-adv-x="1662" 
d="M342 -45l-14 14l995 1161l14 -14zM412 481q-108 0 -171 64.5t-63 175.5q0 160 100 272.5t244 112.5q107 0 169.5 -65t62.5 -175q0 -161 -99.5 -273t-242.5 -112zM414 500q53 0 103.5 64t81 163t30.5 197q0 76 -29 119.5t-82 43.5t-103.5 -64t-81 -162.5t-30.5 -196.5
q0 -76 29.5 -120t81.5 -44zM1141 -23q-107 0 -169.5 65.5t-62.5 174.5q0 161 99.5 273t242.5 112q109 0 170.5 -63.5t61.5 -173.5q0 -162 -98.5 -275t-243.5 -113zM1145 -4q53 0 103.5 64t81 163t30.5 197q0 77 -29.5 120.5t-81.5 43.5q-53 0 -103.5 -64.5t-81 -164
t-30.5 -197.5q0 -74 29.5 -118t81.5 -44z" />
    <glyph glyph-name="perthousand.osf" horiz-adv-x="2240" 
d="M297 -45l-14 14l997 1161l12 -14zM369 481q-108 0 -171 64.5t-63 175.5q0 160 100 272.5t244 112.5q107 0 169.5 -65t62.5 -175q0 -161 -99.5 -273t-242.5 -112zM371 500q53 0 103.5 64t81 163t30.5 197q0 76 -29.5 119.5t-81.5 43.5q-53 0 -103.5 -64t-81 -162.5
t-30.5 -196.5q0 -76 29 -120t82 -44zM1098 -23q-108 0 -170 65t-62 175q0 161 99.5 273t242.5 112q109 0 170.5 -63.5t61.5 -173.5q0 -162 -99 -275t-243 -113zM1772 -23q-108 0 -170 65t-62 175q0 161 99.5 273t242.5 112q109 0 170.5 -63.5t61.5 -173.5q0 -162 -99 -275
t-243 -113zM1102 -4q53 0 103 64t80 163t30 197q0 77 -29 120.5t-82 43.5q-51 0 -101 -64.5t-81 -164t-31 -197.5q0 -74 29.5 -118t81.5 -44zM1776 -4q53 0 103 64t80 163t30 197q0 77 -29 120.5t-82 43.5q-51 0 -101 -64.5t-81 -164t-31 -197.5q0 -74 29.5 -118t81.5 -44z
" />
    <glyph glyph-name="at.case" horiz-adv-x="2119" 
d="M1223 420q0 15 4 43l90 491q-125 -377 -239.5 -540.5t-268.5 -163.5q-96 0 -151.5 80t-55.5 217q0 191 70 356t193.5 263t269.5 98q115 0 211 -62q119 25 186 62h4l-145 -820q-5 -40 -5 -41q0 -50 27 -75t74 -25q120 0 231 109t178.5 288t67.5 373q0 187 -86.5 328.5
t-245 218t-366.5 76.5q-151 0 -295 -42.5t-266 -119.5t-224 -187t-173.5 -241.5t-111.5 -287t-40 -318.5q0 -337 191.5 -519t547.5 -182q208 0 411 65.5t343 174.5l2 -4q-146 -118 -352 -189t-408 -71q-366 0 -565 188t-199 533q0 252 89.5 479t242.5 390t364.5 259
t446.5 96q328 0 525.5 -175.5t197.5 -469.5q0 -160 -47 -312t-124.5 -264.5t-183 -180.5t-217.5 -68q-89 0 -143.5 44t-54.5 126zM893 358q106 0 213 178t229 545q-23 75 -72 115.5t-110 40.5q-102 0 -189.5 -89t-137.5 -235.5t-50 -312.5q0 -111 31.5 -176.5t85.5 -65.5z
" />
    <glyph glyph-name="uni0308.case" 
d="M-702 1659q-44 0 -72.5 28t-28.5 72q0 46 33.5 79.5t79.5 33.5q45 0 72.5 -27t27.5 -69q0 -49 -32.5 -83t-79.5 -34zM-334 1659q-44 0 -72 28t-28 72q0 46 33 79.5t79 33.5q45 0 73 -27t28 -69q0 -49 -33 -83t-80 -34z" />
    <glyph glyph-name="uni0307.case" 
d="M-334 1647q-51 0 -84 31.5t-33 80.5q0 54 38 90.5t94 36.5q51 0 83.5 -31.5t32.5 -80.5q0 -55 -37.5 -91t-93.5 -36z" />
    <glyph glyph-name="gravecomb.case" 
d="M-180 1604q-342 78 -404 108q-28 12 -43.5 35.5t-15.5 50.5q0 37 26.5 64.5t65.5 27.5q27 0 45 -10q49 -23 135.5 -92.5t192.5 -179.5z" />
    <glyph glyph-name="acutecomb.case" 
d="M-625 1604l-4 4q106 110 192.5 179.5t135.5 92.5q17 10 45 10q39 0 65.5 -27.5t26.5 -64.5q0 -27 -15.5 -50.5t-43.5 -35.5q-61 -30 -402 -108z" />
    <glyph glyph-name="uni030B.case" 
d="M-897 1589l-2 4q88 126 162 209.5t116 110.5q27 18 58 18q36 0 64 -27t28 -65q0 -48 -47 -82q-57 -39 -379 -168zM-539 1589l-2 4q86 124 161.5 208t117.5 112q27 18 57 18q37 0 64.5 -27t27.5 -65q0 -51 -47 -82q-62 -42 -379 -168z" />
    <glyph glyph-name="uni0302.case" 
d="M-240 1608v-4l-254 135l-297 -135l-2 4l326 282h2z" />
    <glyph glyph-name="uni030C.case" 
d="M-227 1890l2 -4l-326 -282h-2l-227 282l2 4l254 -133z" />
    <glyph glyph-name="uni0306.case" 
d="M-543 1599q-87 0 -152.5 75t-82.5 208l4 2q44 -66 111 -105.5t145 -39.5q79 0 158.5 39t148.5 106l2 -2q-64 -134 -155.5 -208.5t-178.5 -74.5z" />
    <glyph glyph-name="uni030A.case" 
d="M-571 1573q-95 0 -149 48t-54 130q0 95 67.5 159t167.5 64q93 0 148 -49t55 -131q0 -93 -68 -157t-167 -64zM-567 1597q84 0 143 56.5t59 136.5q0 73 -47.5 116.5t-130.5 43.5q-86 0 -144 -56.5t-58 -138.5q0 -72 48 -115t130 -43z" />
    <glyph glyph-name="tildecomb.case" 
d="M-438 1608q-77 0 -180 75q-48 36 -84.5 55t-79.5 19q-109 0 -174 -133l-5 2q30 106 103.5 185t150.5 79q74 0 172 -75q48 -36 87.5 -55t82.5 -19q109 0 177 133l2 -2q-31 -107 -102 -185.5t-150 -78.5z" />
    <glyph glyph-name="uni0304.case" 
d="M-809 1698l8 20h615l-9 -20h-614z" />
    <glyph glyph-name="uni0304.narrow.case" 
d="M-754 1698l9 20h503l-8 -20h-504z" />
    <glyph glyph-name="uni0308.narrow" 
d="M-655 1370q-41 0 -68 26t-27 66q0 46 31 78.5t74 32.5q41 0 67.5 -26t26.5 -66q0 -47 -30.5 -79t-73.5 -32zM-379 1370q-41 0 -67.5 26t-26.5 66q0 46 31.5 78.5t74.5 32.5q41 0 67 -26t26 -66q0 -47 -30.5 -79t-74.5 -32z" />
    <glyph glyph-name="uni0304.narrow" 
d="M-752 1448l9 20h507l-8 -20h-508z" />
    </font>
</defs>
</svg>
